g z13_2_bj-mesh
v -1024 177 0
v -1024 401 0
v -1152 401 0
v -1152 177 0
v -1152 273 0
v -1152 369 0
v -1248 369 0
v -1248 273 0
v -1056 113 0
v -1056 177 0
v -1120 177 0
v -1120 113 0
v -960 337 0
v -960 401 0
v -1024 401 0
v -1024 337 0
v -1152 209 0
v -1152 273 0
v -1184 273 0
v -1184 209 0
v -1184 401 0
v -1184 465 0
v -1216 465 0
v -1216 401 0
v -992 241 0
v -992 305 0
v -1024 305 0
v -1024 241 0
v -1056 81 0
v -1056 113 0
v -1088 113 0
v -1088 81 0
v -1024 145 0
v -1024 177 0
v -1056 177 0
v -1056 145 0
v -992 209 0
v -992 241 0
v -1024 241 0
v -1024 209 0
v -1152 177 0
v -1152 209 0
v -1184 209 0
v -1184 177 0
vt 0.001953125 0.0044247508
vt 0.001953125 0.995575249
vt 0.251953125 0.995575249
vt 0.251953125 0.0044247508
vt 0.255859375 0.0044247508
vt 0.255859375 0.42920351
vt 0.443359375 0.42920351
vt 0.443359375 0.0044247508
vt 0.447265625 0.0044247508
vt 0.447265625 0.28761059
vt 0.572265625 0.28761059
vt 0.572265625 0.0044247508
vt 0.576171875 0.0044247508
vt 0.576171875 0.28761059
vt 0.701171875 0.28761059
vt 0.701171875 0.0044247508
vt 0.705078125 0.0044247508
vt 0.705078125 0.28761059
vt 0.767578125 0.28761059
vt 0.767578125 0.0044247508
vt 0.771484375 0.0044247508
vt 0.771484375 0.28761059
vt 0.833984375 0.28761059
vt 0.833984375 0.0044247508
vt 0.837890625 0.0044247508
vt 0.837890625 0.28761059
vt 0.900390625 0.28761059
vt 0.900390625 0.0044247508
vt 0.904296875 0.0044247508
vt 0.904296875 0.146017671
vt 0.966796875 0.146017671
vt 0.966796875 0.0044247508
vt 0.904296875 0.154867232
vt 0.904296875 0.296460152
vt 0.966796875 0.296460152
vt 0.966796875 0.154867232
vt 0.447265625 0.296460152
vt 0.447265625 0.438053071
vt 0.509765625 0.438053071
vt 0.509765625 0.296460152
vt 0.513671875 0.296460152
vt 0.513671875 0.438053071
vt 0.576171875 0.438053071
vt 0.576171875 0.296460152
g z13_2_bj-mesh_0
f 3/3/3 2/2/2 1/1/1
f 1/1/1 4/4/4 3/3/3
f 7/7/7 6/6/6 5/5/5
f 5/5/5 8/8/8 7/7/7
f 11/11/11 10/10/10 9/9/9
f 9/9/9 12/12/12 11/11/11
f 15/15/15 14/14/14 13/13/13
f 13/13/13 16/16/16 15/15/15
f 19/19/19 18/18/18 17/17/17
f 17/17/17 20/20/20 19/19/19
f 23/23/23 22/22/22 21/21/21
f 21/21/21 24/24/24 23/23/23
f 27/27/27 26/26/26 25/25/25
f 25/25/25 28/28/28 27/27/27
f 31/31/31 30/30/30 29/29/29
f 29/29/29 32/32/32 31/31/31
f 35/35/35 34/34/34 33/33/33
f 33/33/33 36/36/36 35/35/35
f 39/39/39 38/38/38 37/37/37
f 37/37/37 40/40/40 39/39/39
f 43/43/43 42/42/42 41/41/41
f 41/41/41 44/44/44 43/43/43
