g z13_2_rw-mesh
v -768 405 0
v -768 885 0
v -1344 885 0
v -1344 405 0
v -768 885 0
v -768 1365 0
v -1344 1365 0
v -1344 885 0
v -224 1141 0
v -224 1333 0
v -512 1333 0
v -512 1141 0
v -512 1141 0
v -512 1333 0
v -768 1333 0
v -768 1141 0
v -1344 245 0
v -1344 533 0
v -1504 533 0
v -1504 245 0
v -1344 533 0
v -1344 821 0
v -1504 821 0
v -1504 533 0
v -96 1013 0
v -96 1269 0
v -224 1269 0
v -224 1013 0
v -672 1365 0
v -672 1461 0
v -960 1461 0
v -960 1365 0
v -960 1365 0
v -960 1461 0
v -1216 1461 0
v -1216 1365 0
v -64 1301 0
v -64 1461 0
v -192 1461 0
v -192 1301 0
v -1280 0 0
v -1280 181 0
v -1376 181 0
v -1376 0 0
v -832 1461 0
v -832 1557 0
v -1024 1557 0
v -1024 1461 0
v -704 885 0
v -704 1141 0
v -768 1141 0
v -768 885 0
v -704 629 0
v -704 885 0
v -768 885 0
v -768 629 0
v -0 1461 0
v -0 1589 0
v -96 1589 0
v -96 1461 0
v -1184 1525 0
v -1184 1621 0
v -1312 1621 0
v -1312 1525 0
v -1152 213 0
v -1152 309 0
v -1248 309 0
v -1248 213 0
v -256 1045 0
v -256 1141 0
v -352 1141 0
v -352 1045 0
v -640 405 0
v -640 469 0
v -768 469 0
v -768 405 0
v -1344 181 0
v -1344 245 0
v -1472 245 0
v -1472 181 0
v -1120 1461 0
v -1120 1525 0
v -1248 1525 0
v -1248 1461 0
v -512 405 0
v -512 469 0
v -640 469 0
v -640 405 0
v -544 1333 0
v -544 1397 0
v -672 1397 0
v -672 1333 0
v -832 0 0
v -832 117 0
v -896 117 0
v -896 0 0
v -1056 309 0
v -1056 373 0
v -1184 373 0
v -1184 309 0
v -928 309 0
v -928 373 0
v -1056 373 0
v -1056 309 0
v -928 373 0
v -928 405 0
v -1152 405 0
v -1152 373 0
v -480 341 0
v -480 405 0
v -576 405 0
v -576 341 0
v -1152 373 0
v -1152 405 0
v -1344 405 0
v -1344 373 0
v -192 1333 0
v -192 1365 0
v -352 1365 0
v -352 1333 0
v -768 1461 0
v -768 1525 0
v -832 1525 0
v -832 1461 0
v -192 1365 0
v -192 1429 0
v -256 1429 0
v -256 1365 0
v -352 1333 0
v -352 1365 0
v -480 1365 0
v -480 1333 0
v -1248 181 0
v -1248 277 0
v -1280 277 0
v -1280 181 0
v -896 85 0
v -896 181 0
v -928 181 0
v -928 85 0
v -928 213 0
v -928 309 0
v -960 309 0
v -960 213 0
v -896 181 0
v -896 277 0
v -928 277 0
v -928 181 0
v -96 1461 0
v -96 1525 0
v -128 1525 0
v -128 1461 0
v -1024 1461 0
v -1024 1525 0
v -1056 1525 0
v -1056 1461 0
v -0 1429 0
v -0 1461 0
v -64 1461 0
v -64 1429 0
v -1152 1525 0
v -1152 1589 0
v -1184 1589 0
v -1184 1525 0
v -1280 1621 0
v -1280 1685 0
v -1312 1685 0
v -1312 1621 0
v -864 149 0
v -864 213 0
v -896 213 0
v -896 149 0
v -32 1589 0
v -32 1621 0
v -96 1621 0
v -96 1589 0
v -1088 277 0
v -1088 309 0
v -1152 309 0
v -1152 277 0
v -1184 181 0
v -1184 213 0
v -1248 213 0
v -1248 181 0
v -800 0 0
v -800 53 0
v -832 53 0
v -832 0 0
v -640 1109 0
v -640 1141 0
v -704 1141 0
v -704 1109 0
v -608 1397 0
v -608 1429 0
v -672 1429 0
v -672 1397 0
v -256 1365 0
v -256 1397 0
v -320 1397 0
v -320 1365 0
v -352 1109 0
v -352 1141 0
v -416 1141 0
v -416 1109 0
v -960 245 0
v -960 309 0
v -992 309 0
v -992 245 0
v -1248 117 0
v -1248 181 0
v -1280 181 0
v -1280 117 0
v -736 565 0
v -736 629 0
v -768 629 0
v -768 565 0
v -672 725 0
v -672 789 0
v -704 789 0
v -704 725 0
v -672 1333 0
v -672 1365 0
v -736 1365 0
v -736 1333 0
v -928 149 0
v -928 213 0
v -960 213 0
v -960 149 0
v -224 1013 0
v -224 1077 0
v -256 1077 0
v -256 1013 0
v -224 1077 0
v -224 1141 0
v -256 1141 0
v -256 1077 0
v -1248 1365 0
v -1248 1397 0
v -1312 1397 0
v -1312 1365 0
v -672 469 0
v -672 501 0
v -736 501 0
v -736 469 0
v -512 1333 0
v -512 1365 0
v -544 1365 0
v -544 1333 0
v -672 1077 0
v -672 1109 0
v -704 1109 0
v -704 1077 0
v -192 1301 0
v -192 1333 0
v -224 1333 0
v -224 1301 0
v -1184 309 0
v -1184 341 0
v -1216 341 0
v -1216 309 0
v -480 405 0
v -480 437 0
v -512 437 0
v -512 405 0
v -992 277 0
v -992 309 0
v -1024 309 0
v -1024 277 0
v -1280 181 0
v -1280 213 0
v -1312 213 0
v -1312 181 0
v -1120 245 0
v -1120 277 0
v -1152 277 0
v -1152 245 0
v -1216 149 0
v -1216 181 0
v -1248 181 0
v -1248 149 0
v -768 0 0
v -768 21 0
v -800 21 0
v -800 0 0
v -1376 21 0
v -1376 53 0
v -1408 53 0
v -1408 21 0
v -1376 149 0
v -1376 181 0
v -1408 181 0
v -1408 149 0
v -32 1397 0
v -32 1429 0
v -64 1429 0
v -64 1397 0
v -736 533 0
v -736 565 0
v -768 565 0
v -768 533 0
v -736 469 0
v -736 501 0
v -768 501 0
v -768 469 0
v -960 213 0
v -960 245 0
v -992 245 0
v -992 213 0
v -1312 1365 0
v -1312 1397 0
v -1344 1397 0
v -1344 1365 0
v -736 1333 0
v -736 1365 0
v -768 1365 0
v -768 1333 0
v -672 693 0
v -672 725 0
v -704 725 0
v -704 693 0
v -1248 1493 0
v -1248 1525 0
v -1280 1525 0
v -1280 1493 0
v -128 1461 0
v -128 1493 0
v -160 1493 0
v -160 1461 0
v -736 1461 0
v -736 1493 0
v -768 1493 0
v -768 1461 0
v -864 117 0
v -864 149 0
v -896 149 0
v -896 117 0
v -1248 1621 0
v -1248 1653 0
v -1280 1653 0
v -1280 1621 0
v -1120 1525 0
v -1120 1557 0
v -1152 1557 0
v -1152 1525 0
vt 0.00048828125 0.0016181469
vt 0.00048828125 0.778317153
vt 0.281738281 0.778317153
vt 0.281738281 0.0016181469
vt 0.282714844 0.0016181469
vt 0.282714844 0.778317153
vt 0.563964844 0.778317153
vt 0.563964844 0.0016181469
vt 0.564941406 0.0016181469
vt 0.564941406 0.312297761
vt 0.705566406 0.312297761
vt 0.705566406 0.0016181469
vt 0.706542969 0.0016181469
vt 0.706542969 0.312297761
vt 0.831542969 0.312297761
vt 0.831542969 0.0016181469
vt 0.832519531 0.0016181469
vt 0.832519531 0.467637539
vt 0.910644531 0.467637539
vt 0.910644531 0.0016181469
vt 0.911621094 0.0016181469
vt 0.911621094 0.467637539
vt 0.989746094 0.467637539
vt 0.989746094 0.0016181469
vt 0.564941406 0.315533996
vt 0.564941406 0.729773462
vt 0.627441406 0.729773462
vt 0.627441406 0.315533996
vt 0.628417969 0.315533996
vt 0.628417969 0.470873773
vt 0.769042969 0.470873773
vt 0.769042969 0.315533996
vt 0.832519531 0.470873773
vt 0.832519531 0.626213551
vt 0.957519531 0.626213551
vt 0.957519531 0.470873773
vt 0.628417969 0.474110007
vt 0.628417969 0.733009696
vt 0.690917969 0.733009696
vt 0.690917969 0.474110007
vt 0.770019531 0.315533996
vt 0.770019531 0.61003232
vt 0.816894531 0.61003232
vt 0.816894531 0.315533996
vt 0.832519531 0.629449844
vt 0.832519531 0.784789622
vt 0.926269531 0.784789622
vt 0.926269531 0.629449844
vt 0.958496094 0.470873773
vt 0.958496094 0.885113239
vt 0.989746094 0.885113239
vt 0.989746094 0.470873773
vt 0.691894531 0.474110007
vt 0.691894531 0.888349533
vt 0.723144531 0.888349533
vt 0.723144531 0.474110007
vt 0.770019531 0.613268614
vt 0.770019531 0.820388317
vt 0.816894531 0.820388317
vt 0.816894531 0.613268614
vt 0.564941406 0.733009696
vt 0.564941406 0.888349533
vt 0.627441406 0.888349533
vt 0.627441406 0.733009696
vt 0.628417969 0.73624599
vt 0.628417969 0.891585767
vt 0.675292969 0.891585767
vt 0.675292969 0.73624599
vt 0.00048828125 0.781553388
vt 0.00048828125 0.936893225
vt 0.0473632812 0.936893225
vt 0.0473632812 0.781553388
vt 0.0483398438 0.781553388
vt 0.0483398438 0.885113239
vt 0.110839844 0.885113239
vt 0.110839844 0.781553388
vt 0.111816406 0.781553388
vt 0.111816406 0.885113239
vt 0.174316406 0.885113239
vt 0.174316406 0.781553388
vt 0.175292969 0.781553388
vt 0.175292969 0.885113239
vt 0.237792969 0.885113239
vt 0.237792969 0.781553388
vt 0.238769531 0.781553388
vt 0.238769531 0.885113239
vt 0.301269531 0.885113239
vt 0.301269531 0.781553388
vt 0.302246094 0.781553388
vt 0.302246094 0.885113239
vt 0.364746094 0.885113239
vt 0.364746094 0.781553388
vt 0.724121094 0.474110007
vt 0.724121094 0.66504854
vt 0.755371094 0.66504854
vt 0.755371094 0.474110007
vt 0.365722656 0.781553388
vt 0.365722656 0.885113239
vt 0.428222656 0.885113239
vt 0.428222656 0.781553388
vt 0.429199219 0.781553388
vt 0.429199219 0.885113239
vt 0.491699219 0.885113239
vt 0.491699219 0.781553388
vt 0.832519531 0.788025856
vt 0.832519531 0.839805841
vt 0.941894531 0.839805841
vt 0.941894531 0.788025856
vt 0.492675781 0.781553388
vt 0.492675781 0.885113239
vt 0.539550781 0.885113239
vt 0.539550781 0.781553388
vt 0.832519531 0.843042076
vt 0.832519531 0.894822001
vt 0.926269531 0.894822001
vt 0.926269531 0.843042076
vt 0.0483398438 0.888349533
vt 0.0483398438 0.940129459
vt 0.126464844 0.940129459
vt 0.126464844 0.888349533
vt 0.724121094 0.668284774
vt 0.724121094 0.771844625
vt 0.755371094 0.771844625
vt 0.755371094 0.668284774
vt 0.724121094 0.775080919
vt 0.724121094 0.878640771
vt 0.755371094 0.878640771
vt 0.755371094 0.775080919
vt 0.724121094 0.881877005
vt 0.724121094 0.933656931
vt 0.786621094 0.933656931
vt 0.786621094 0.881877005
vt 0.540527344 0.781553388
vt 0.540527344 0.936893225
vt 0.556152344 0.936893225
vt 0.556152344 0.781553388
vt 0.787597656 0.823624611
vt 0.787597656 0.978964388
vt 0.803222656 0.978964388
vt 0.803222656 0.823624611
vt 0.804199219 0.823624611
vt 0.804199219 0.978964388
vt 0.819824219 0.978964388
vt 0.819824219 0.823624611
vt 0.927246094 0.843042076
vt 0.927246094 0.998381853
vt 0.942871094 0.998381853
vt 0.942871094 0.843042076
vt 0.127441406 0.888349533
vt 0.127441406 0.991909385
vt 0.143066406 0.991909385
vt 0.143066406 0.888349533
vt 0.144042969 0.888349533
vt 0.144042969 0.991909385
vt 0.159667969 0.991909385
vt 0.159667969 0.888349533
vt 0.160644531 0.888349533
vt 0.160644531 0.940129459
vt 0.191894531 0.940129459
vt 0.191894531 0.888349533
vt 0.192871094 0.888349533
vt 0.192871094 0.991909385
vt 0.208496094 0.991909385
vt 0.208496094 0.888349533
vt 0.209472656 0.888349533
vt 0.209472656 0.991909385
vt 0.225097656 0.991909385
vt 0.225097656 0.888349533
vt 0.226074219 0.888349533
vt 0.226074219 0.991909385
vt 0.241699219 0.991909385
vt 0.241699219 0.888349533
vt 0.242675781 0.888349533
vt 0.242675781 0.940129459
vt 0.273925781 0.940129459
vt 0.273925781 0.888349533
vt 0.274902344 0.888349533
vt 0.274902344 0.940129459
vt 0.306152344 0.940129459
vt 0.306152344 0.888349533
vt 0.307128906 0.888349533
vt 0.307128906 0.940129459
vt 0.338378906 0.940129459
vt 0.338378906 0.888349533
vt 0.339355469 0.888349533
vt 0.339355469 0.975728154
vt 0.354980469 0.975728154
vt 0.354980469 0.888349533
vt 0.355957031 0.888349533
vt 0.355957031 0.940129459
vt 0.387207031 0.940129459
vt 0.387207031 0.888349533
vt 0.388183594 0.888349533
vt 0.388183594 0.940129459
vt 0.419433594 0.940129459
vt 0.419433594 0.888349533
vt 0.420410156 0.888349533
vt 0.420410156 0.940129459
vt 0.451660156 0.940129459
vt 0.451660156 0.888349533
vt 0.452636719 0.888349533
vt 0.452636719 0.940129459
vt 0.483886719 0.940129459
vt 0.483886719 0.888349533
vt 0.484863281 0.888349533
vt 0.484863281 0.991909385
vt 0.500488281 0.991909385
vt 0.500488281 0.888349533
vt 0.501464844 0.888349533
vt 0.501464844 0.991909385
vt 0.517089844 0.991909385
vt 0.517089844 0.888349533
vt 0.518066406 0.888349533
vt 0.518066406 0.991909385
vt 0.533691406 0.991909385
vt 0.533691406 0.888349533
vt 0.958496094 0.888349533
vt 0.958496094 0.991909385
vt 0.974121094 0.991909385
vt 0.974121094 0.888349533
vt 0.564941406 0.891585767
vt 0.564941406 0.943365693
vt 0.596191406 0.943365693
vt 0.596191406 0.891585767
vt 0.975097656 0.888349533
vt 0.975097656 0.991909385
vt 0.990722656 0.991909385
vt 0.990722656 0.888349533
vt 0.597167969 0.891585767
vt 0.597167969 0.995145619
vt 0.612792969 0.995145619
vt 0.612792969 0.891585767
vt 0.691894531 0.891585767
vt 0.691894531 0.995145619
vt 0.707519531 0.995145619
vt 0.707519531 0.891585767
vt 0.628417969 0.894822001
vt 0.628417969 0.946601927
vt 0.659667969 0.946601927
vt 0.659667969 0.894822001
vt 0.832519531 0.898058236
vt 0.832519531 0.949838161
vt 0.863769531 0.949838161
vt 0.863769531 0.898058236
vt 0.660644531 0.894822001
vt 0.660644531 0.946601927
vt 0.676269531 0.946601927
vt 0.676269531 0.894822001
vt 0.864746094 0.898058236
vt 0.864746094 0.949838161
vt 0.880371094 0.949838161
vt 0.880371094 0.898058236
vt 0.881347656 0.898058236
vt 0.881347656 0.949838161
vt 0.896972656 0.949838161
vt 0.896972656 0.898058236
vt 0.897949219 0.898058236
vt 0.897949219 0.949838161
vt 0.913574219 0.949838161
vt 0.913574219 0.898058236
vt 0.724121094 0.936893225
vt 0.724121094 0.988673151
vt 0.739746094 0.988673151
vt 0.739746094 0.936893225
vt 0.740722656 0.936893225
vt 0.740722656 0.988673151
vt 0.756347656 0.988673151
vt 0.756347656 0.936893225
vt 0.757324219 0.936893225
vt 0.757324219 0.988673151
vt 0.772949219 0.988673151
vt 0.772949219 0.936893225
vt 0.00048828125 0.940129459
vt 0.00048828125 0.991909385
vt 0.0161132812 0.991909385
vt 0.0161132812 0.940129459
vt 0.0170898438 0.940129459
vt 0.0170898438 0.991909385
vt 0.0327148438 0.991909385
vt 0.0327148438 0.940129459
vt 0.540527344 0.940129459
vt 0.540527344 0.975728154
vt 0.556152344 0.975728154
vt 0.556152344 0.940129459
vt 0.0483398438 0.943365693
vt 0.0483398438 0.995145619
vt 0.0639648438 0.995145619
vt 0.0639648438 0.943365693
vt 0.0649414062 0.943365693
vt 0.0649414062 0.995145619
vt 0.0805664062 0.995145619
vt 0.0805664062 0.943365693
vt 0.0815429688 0.943365693
vt 0.0815429688 0.995145619
vt 0.0971679688 0.995145619
vt 0.0971679688 0.943365693
vt 0.0981445312 0.943365693
vt 0.0981445312 0.995145619
vt 0.113769531 0.995145619
vt 0.113769531 0.943365693
vt 0.160644531 0.943365693
vt 0.160644531 0.995145619
vt 0.176269531 0.995145619
vt 0.176269531 0.943365693
vt 0.242675781 0.943365693
vt 0.242675781 0.995145619
vt 0.258300781 0.995145619
vt 0.258300781 0.943365693
vt 0.259277344 0.943365693
vt 0.259277344 0.995145619
vt 0.274902344 0.995145619
vt 0.274902344 0.943365693
vt 0.275878906 0.943365693
vt 0.275878906 0.995145619
vt 0.291503906 0.995145619
vt 0.291503906 0.943365693
vt 0.292480469 0.943365693
vt 0.292480469 0.995145619
vt 0.308105469 0.995145619
vt 0.308105469 0.943365693
vt 0.309082031 0.943365693
vt 0.309082031 0.995145619
vt 0.324707031 0.995145619
vt 0.324707031 0.943365693
vt 0.355957031 0.943365693
vt 0.355957031 0.995145619
vt 0.371582031 0.995145619
vt 0.371582031 0.943365693
vt 0.372558594 0.943365693
vt 0.372558594 0.995145619
vt 0.388183594 0.995145619
vt 0.388183594 0.943365693
vt 0.389160156 0.943365693
vt 0.389160156 0.995145619
vt 0.404785156 0.995145619
vt 0.404785156 0.943365693
vt 0.405761719 0.943365693
vt 0.405761719 0.995145619
vt 0.421386719 0.995145619
vt 0.421386719 0.943365693
vt 0.422363281 0.943365693
vt 0.422363281 0.995145619
vt 0.437988281 0.995145619
vt 0.437988281 0.943365693
g z13_2_rw-mesh_0
f 3/3/3 2/2/2 1/1/1
f 1/1/1 4/4/4 3/3/3
f 7/7/7 6/6/6 5/5/5
f 5/5/5 8/8/8 7/7/7
f 11/11/11 10/10/10 9/9/9
f 9/9/9 12/12/12 11/11/11
f 15/15/15 14/14/14 13/13/13
f 13/13/13 16/16/16 15/15/15
f 19/19/19 18/18/18 17/17/17
f 17/17/17 20/20/20 19/19/19
f 23/23/23 22/22/22 21/21/21
f 21/21/21 24/24/24 23/23/23
f 27/27/27 26/26/26 25/25/25
f 25/25/25 28/28/28 27/27/27
f 31/31/31 30/30/30 29/29/29
f 29/29/29 32/32/32 31/31/31
f 35/35/35 34/34/34 33/33/33
f 33/33/33 36/36/36 35/35/35
f 39/39/39 38/38/38 37/37/37
f 37/37/37 40/40/40 39/39/39
f 43/43/43 42/42/42 41/41/41
f 41/41/41 44/44/44 43/43/43
f 47/47/47 46/46/46 45/45/45
f 45/45/45 48/48/48 47/47/47
f 51/51/51 50/50/50 49/49/49
f 49/49/49 52/52/52 51/51/51
f 55/55/55 54/54/54 53/53/53
f 53/53/53 56/56/56 55/55/55
f 59/59/59 58/58/58 57/57/57
f 57/57/57 60/60/60 59/59/59
f 63/63/63 62/62/62 61/61/61
f 61/61/61 64/64/64 63/63/63
f 67/67/67 66/66/66 65/65/65
f 65/65/65 68/68/68 67/67/67
f 71/71/71 70/70/70 69/69/69
f 69/69/69 72/72/72 71/71/71
f 75/75/75 74/74/74 73/73/73
f 73/73/73 76/76/76 75/75/75
f 79/79/79 78/78/78 77/77/77
f 77/77/77 80/80/80 79/79/79
f 83/83/83 82/82/82 81/81/81
f 81/81/81 84/84/84 83/83/83
f 87/87/87 86/86/86 85/85/85
f 85/85/85 88/88/88 87/87/87
f 91/91/91 90/90/90 89/89/89
f 89/89/89 92/92/92 91/91/91
f 95/95/95 94/94/94 93/93/93
f 93/93/93 96/96/96 95/95/95
f 99/99/99 98/98/98 97/97/97
f 97/97/97 100/100/100 99/99/99
f 103/103/103 102/102/102 101/101/101
f 101/101/101 104/104/104 103/103/103
f 107/107/107 106/106/106 105/105/105
f 105/105/105 108/108/108 107/107/107
f 111/111/111 110/110/110 109/109/109
f 109/109/109 112/112/112 111/111/111
f 115/115/115 114/114/114 113/113/113
f 113/113/113 116/116/116 115/115/115
f 119/119/119 118/118/118 117/117/117
f 117/117/117 120/120/120 119/119/119
f 123/123/123 122/122/122 121/121/121
f 121/121/121 124/124/124 123/123/123
f 127/127/127 126/126/126 125/125/125
f 125/125/125 128/128/128 127/127/127
f 131/131/131 130/130/130 129/129/129
f 129/129/129 132/132/132 131/131/131
f 135/135/135 134/134/134 133/133/133
f 133/133/133 136/136/136 135/135/135
f 139/139/139 138/138/138 137/137/137
f 137/137/137 140/140/140 139/139/139
f 143/143/143 142/142/142 141/141/141
f 141/141/141 144/144/144 143/143/143
f 147/147/147 146/146/146 145/145/145
f 145/145/145 148/148/148 147/147/147
f 151/151/151 150/150/150 149/149/149
f 149/149/149 152/152/152 151/151/151
f 155/155/155 154/154/154 153/153/153
f 153/153/153 156/156/156 155/155/155
f 159/159/159 158/158/158 157/157/157
f 157/157/157 160/160/160 159/159/159
f 163/163/163 162/162/162 161/161/161
f 161/161/161 164/164/164 163/163/163
f 167/167/167 166/166/166 165/165/165
f 165/165/165 168/168/168 167/167/167
f 171/171/171 170/170/170 169/169/169
f 169/169/169 172/172/172 171/171/171
f 175/175/175 174/174/174 173/173/173
f 173/173/173 176/176/176 175/175/175
f 179/179/179 178/178/178 177/177/177
f 177/177/177 180/180/180 179/179/179
f 183/183/183 182/182/182 181/181/181
f 181/181/181 184/184/184 183/183/183
f 187/187/187 186/186/186 185/185/185
f 185/185/185 188/188/188 187/187/187
f 191/191/191 190/190/190 189/189/189
f 189/189/189 192/192/192 191/191/191
f 195/195/195 194/194/194 193/193/193
f 193/193/193 196/196/196 195/195/195
f 199/199/199 198/198/198 197/197/197
f 197/197/197 200/200/200 199/199/199
f 203/203/203 202/202/202 201/201/201
f 201/201/201 204/204/204 203/203/203
f 207/207/207 206/206/206 205/205/205
f 205/205/205 208/208/208 207/207/207
f 211/211/211 210/210/210 209/209/209
f 209/209/209 212/212/212 211/211/211
f 215/215/215 214/214/214 213/213/213
f 213/213/213 216/216/216 215/215/215
f 219/219/219 218/218/218 217/217/217
f 217/217/217 220/220/220 219/219/219
f 223/223/223 222/222/222 221/221/221
f 221/221/221 224/224/224 223/223/223
f 227/227/227 226/226/226 225/225/225
f 225/225/225 228/228/228 227/227/227
f 231/231/231 230/230/230 229/229/229
f 229/229/229 232/232/232 231/231/231
f 235/235/235 234/234/234 233/233/233
f 233/233/233 236/236/236 235/235/235
f 239/239/239 238/238/238 237/237/237
f 237/237/237 240/240/240 239/239/239
f 243/243/243 242/242/242 241/241/241
f 241/241/241 244/244/244 243/243/243
f 247/247/247 246/246/246 245/245/245
f 245/245/245 248/248/248 247/247/247
f 251/251/251 250/250/250 249/249/249
f 249/249/249 252/252/252 251/251/251
f 255/255/255 254/254/254 253/253/253
f 253/253/253 256/256/256 255/255/255
f 259/259/259 258/258/258 257/257/257
f 257/257/257 260/260/260 259/259/259
f 263/263/263 262/262/262 261/261/261
f 261/261/261 264/264/264 263/263/263
f 267/267/267 266/266/266 265/265/265
f 265/265/265 268/268/268 267/267/267
f 271/271/271 270/270/270 269/269/269
f 269/269/269 272/272/272 271/271/271
f 275/275/275 274/274/274 273/273/273
f 273/273/273 276/276/276 275/275/275
f 279/279/279 278/278/278 277/277/277
f 277/277/277 280/280/280 279/279/279
f 283/283/283 282/282/282 281/281/281
f 281/281/281 284/284/284 283/283/283
f 287/287/287 286/286/286 285/285/285
f 285/285/285 288/288/288 287/287/287
f 291/291/291 290/290/290 289/289/289
f 289/289/289 292/292/292 291/291/291
f 295/295/295 294/294/294 293/293/293
f 293/293/293 296/296/296 295/295/295
f 299/299/299 298/298/298 297/297/297
f 297/297/297 300/300/300 299/299/299
f 303/303/303 302/302/302 301/301/301
f 301/301/301 304/304/304 303/303/303
f 307/307/307 306/306/306 305/305/305
f 305/305/305 308/308/308 307/307/307
f 311/311/311 310/310/310 309/309/309
f 309/309/309 312/312/312 311/311/311
f 315/315/315 314/314/314 313/313/313
f 313/313/313 316/316/316 315/315/315
f 319/319/319 318/318/318 317/317/317
f 317/317/317 320/320/320 319/319/319
f 323/323/323 322/322/322 321/321/321
f 321/321/321 324/324/324 323/323/323
f 327/327/327 326/326/326 325/325/325
f 325/325/325 328/328/328 327/327/327
f 331/331/331 330/330/330 329/329/329
f 329/329/329 332/332/332 331/331/331
f 335/335/335 334/334/334 333/333/333
f 333/333/333 336/336/336 335/335/335
f 339/339/339 338/338/338 337/337/337
f 337/337/337 340/340/340 339/339/339
f 343/343/343 342/342/342 341/341/341
f 341/341/341 344/344/344 343/343/343
