g dafenqi_2-mesh
v -256 447 0
v -256 1119 0
v -1568 1119 0
v -1568 447 0
v -256 1119 0
v -256 1791 0
v -1568 1791 0
v -1568 1119 0
v -896 31 0
v -896 447 0
v -1280 447 0
v -1280 31 0
v -512 31 0
v -512 447 0
v -896 447 0
v -896 31 0
v -1568 607 0
v -1568 1023 0
v -1760 1023 0
v -1760 607 0
v -1568 1023 0
v -1568 1439 0
v -1760 1439 0
v -1760 1023 0
v -480 1791 0
v -480 1951 0
v -960 1951 0
v -960 1791 0
v -96 639 0
v -96 1087 0
v -256 1087 0
v -256 639 0
v -96 1087 0
v -96 1535 0
v -256 1535 0
v -256 1087 0
v -960 1791 0
v -960 1951 0
v -1408 1951 0
v -1408 1791 0
v -1568 1439 0
v -1568 1695 0
v -1696 1695 0
v -1696 1439 0
v -0 1119 0
v -0 1343 0
v -96 1343 0
v -96 1119 0
v -640 1951 0
v -640 2015 0
v -960 2015 0
v -960 1951 0
v -960 1951 0
v -960 2015 0
v -1280 2015 0
v -1280 1951 0
v -0 927 0
v -0 1119 0
v -96 1119 0
v -96 927 0
v -160 479 0
v -160 639 0
v -256 639 0
v -256 479 0
v -160 1535 0
v -160 1695 0
v -256 1695 0
v -256 1535 0
v -320 1791 0
v -320 1887 0
v -480 1887 0
v -480 1791 0
v -416 319 0
v -416 447 0
v -512 447 0
v -512 319 0
v -1568 511 0
v -1568 607 0
v -1696 607 0
v -1696 511 0
v -544 0 0
v -544 31 0
v -896 31 0
v -896 0 0
v -896 0 0
v -896 31 0
v -1216 31 0
v -1216 0 0
v -1408 1791 0
v -1408 1887 0
v -1504 1887 0
v -1504 1791 0
v -1760 831 0
v -1760 1087 0
v -1792 1087 0
v -1792 831 0
v -1760 1087 0
v -1760 1343 0
v -1792 1343 0
v -1792 1087 0
v -32 831 0
v -32 927 0
v -96 927 0
v -96 831 0
v -1280 351 0
v -1280 447 0
v -1344 447 0
v -1344 351 0
v -1280 287 0
v -1280 351 0
v -1344 351 0
v -1344 287 0
v -1696 1663 0
v -1696 1727 0
v -1760 1727 0
v -1760 1663 0
v -832 2015 0
v -832 2047 0
v -960 2047 0
v -960 2015 0
v -480 95 0
v -480 191 0
v -512 191 0
v -512 95 0
v -1344 415 0
v -1344 447 0
v -1440 447 0
v -1440 415 0
v -1792 927 0
v -1792 1023 0
v -1824 1023 0
v -1824 927 0
v -960 2015 0
v -960 2047 0
v -1056 2047 0
v -1056 2015 0
v -1792 831 0
v -1792 927 0
v -1824 927 0
v -1824 831 0
v -1408 1887 0
v -1408 1919 0
v -1472 1919 0
v -1472 1887 0
v -128 1535 0
v -128 1599 0
v -160 1599 0
v -160 1535 0
v -224 1695 0
v -224 1759 0
v -256 1759 0
v -256 1695 0
v -1344 351 0
v -1344 415 0
v -1376 415 0
v -1376 351 0
v -1088 2015 0
v -1088 2047 0
v -1152 2047 0
v -1152 2015 0
v -416 1887 0
v -416 1919 0
v -480 1919 0
v -480 1887 0
v -1696 1439 0
v -1696 1503 0
v -1728 1503 0
v -1728 1439 0
v -1632 479 0
v -1632 511 0
v -1696 511 0
v -1696 479 0
v -1376 351 0
v -1376 415 0
v -1408 415 0
v -1408 351 0
v -448 287 0
v -448 319 0
v -512 319 0
v -512 287 0
v -1792 1279 0
v -1792 1343 0
v -1824 1343 0
v -1824 1279 0
v -64 767 0
v -64 831 0
v -96 831 0
v -96 767 0
v -1568 447 0
v -1568 511 0
v -1600 511 0
v -1600 447 0
v -352 415 0
v -352 447 0
v -416 447 0
v -416 415 0
v -1280 95 0
v -1280 159 0
v -1312 159 0
v -1312 95 0
v -1280 31 0
v -1280 95 0
v -1312 95 0
v -1312 31 0
v -288 415 0
v -288 447 0
v -352 447 0
v -352 415 0
v -1440 415 0
v -1440 447 0
v -1504 447 0
v -1504 415 0
v -64 1407 0
v -64 1471 0
v -96 1471 0
v -96 1407 0
v -64 1343 0
v -64 1407 0
v -96 1407 0
v -96 1343 0
v -128 575 0
v -128 639 0
v -160 639 0
v -160 575 0
v -480 31 0
v -480 95 0
v -512 95 0
v -512 31 0
v -64 671 0
v -64 735 0
v -96 735 0
v -96 671 0
v -544 1951 0
v -544 1983 0
v -608 1983 0
v -608 1951 0
v -32 1343 0
v -32 1375 0
v -64 1375 0
v -64 1343 0
v -1824 959 0
v -1824 991 0
v -1829 991 0
v -1829 959 0
v -1664 1695 0
v -1664 1727 0
v -1696 1727 0
v -1696 1695 0
v -1696 1631 0
v -1696 1663 0
v -1728 1663 0
v -1728 1631 0
v -384 383 0
v -384 415 0
v -416 415 0
v -416 383 0
v -480 255 0
v -480 287 0
v -512 287 0
v -512 255 0
v -1408 383 0
v -1408 415 0
v -1440 415 0
v -1440 383 0
v -224 447 0
v -224 479 0
v -256 479 0
v -256 447 0
v -1568 1695 0
v -1568 1727 0
v -1600 1727 0
v -1600 1695 0
v -608 1951 0
v -608 1983 0
v -640 1983 0
v -640 1951 0
v -128 543 0
v -128 575 0
v -160 575 0
v -160 543 0
v -1344 319 0
v -1344 351 0
v -1376 351 0
v -1376 319 0
v -64 639 0
v -64 671 0
v -96 671 0
v -96 639 0
v -288 1791 0
v -288 1823 0
v -320 1823 0
v -320 1791 0
v -192 1695 0
v -192 1727 0
v -224 1727 0
v -224 1695 0
v -1280 1951 0
v -1280 1983 0
v -1312 1983 0
v -1312 1951 0
v -1504 1823 0
v -1504 1855 0
v -1536 1855 0
v -1536 1823 0
vt 0.00048828125 0.000646829605
vt 0.00048828125 0.43531692
vt 0.641113281 0.43531692
vt 0.641113281 0.000646829605
vt 0.00048828125 0.436610579
vt 0.00048828125 0.87128073
vt 0.641113281 0.87128073
vt 0.641113281 0.436610579
vt 0.642089844 0.000646829605
vt 0.642089844 0.269728303
vt 0.829589844 0.269728303
vt 0.829589844 0.000646829605
vt 0.642089844 0.271022022
vt 0.642089844 0.540103495
vt 0.829589844 0.540103495
vt 0.829589844 0.271022022
vt 0.830566406 0.000646829605
vt 0.830566406 0.269728303
vt 0.924316406 0.269728303
vt 0.924316406 0.000646829605
vt 0.830566406 0.271022022
vt 0.830566406 0.540103495
vt 0.924316406 0.540103495
vt 0.924316406 0.271022022
vt 0.642089844 0.541397154
vt 0.642089844 0.64489007
vt 0.876464844 0.64489007
vt 0.876464844 0.541397154
vt 0.877441406 0.541397154
vt 0.877441406 0.831177235
vt 0.955566406 0.831177235
vt 0.955566406 0.541397154
vt 0.642089844 0.646183729
vt 0.642089844 0.93596375
vt 0.720214844 0.93596375
vt 0.720214844 0.646183729
vt 0.00048828125 0.872574389
vt 0.00048828125 0.976067245
vt 0.219238281 0.976067245
vt 0.219238281 0.872574389
vt 0.721191406 0.646183729
vt 0.721191406 0.811772346
vt 0.783691406 0.811772346
vt 0.783691406 0.646183729
vt 0.784667969 0.646183729
vt 0.784667969 0.79107374
vt 0.831542969 0.79107374
vt 0.831542969 0.646183729
vt 0.220214844 0.872574389
vt 0.220214844 0.913971543
vt 0.376464844 0.913971543
vt 0.376464844 0.872574389
vt 0.377441406 0.872574389
vt 0.377441406 0.913971543
vt 0.533691406 0.913971543
vt 0.533691406 0.872574389
vt 0.784667969 0.792367399
vt 0.784667969 0.916558862
vt 0.831542969 0.916558862
vt 0.831542969 0.792367399
vt 0.721191406 0.813066006
vt 0.721191406 0.916558862
vt 0.768066406 0.916558862
vt 0.768066406 0.813066006
vt 0.877441406 0.832470894
vt 0.877441406 0.93596375
vt 0.924316406 0.93596375
vt 0.924316406 0.832470894
vt 0.534667969 0.872574389
vt 0.534667969 0.934670091
vt 0.612792969 0.934670091
vt 0.612792969 0.872574389
vt 0.925292969 0.832470894
vt 0.925292969 0.915265203
vt 0.972167969 0.915265203
vt 0.972167969 0.832470894
vt 0.220214844 0.915265203
vt 0.220214844 0.977360904
vt 0.282714844 0.977360904
vt 0.282714844 0.915265203
vt 0.283691406 0.915265203
vt 0.283691406 0.93596375
vt 0.455566406 0.93596375
vt 0.455566406 0.915265203
vt 0.283691406 0.937257409
vt 0.283691406 0.957956016
vt 0.439941406 0.957956016
vt 0.439941406 0.937257409
vt 0.456542969 0.915265203
vt 0.456542969 0.977360904
vt 0.503417969 0.977360904
vt 0.503417969 0.915265203
vt 0.973144531 0.000646829605
vt 0.973144531 0.166235447
vt 0.988769531 0.166235447
vt 0.988769531 0.000646829605
vt 0.973144531 0.167529106
vt 0.973144531 0.333117723
vt 0.988769531 0.333117723
vt 0.988769531 0.167529106
vt 0.832519531 0.646183729
vt 0.832519531 0.708279431
vt 0.863769531 0.708279431
vt 0.863769531 0.646183729
vt 0.832519531 0.70957309
vt 0.832519531 0.771668792
vt 0.863769531 0.771668792
vt 0.863769531 0.70957309
vt 0.832519531 0.772962451
vt 0.832519531 0.814359665
vt 0.863769531 0.814359665
vt 0.863769531 0.772962451
vt 0.832519531 0.815653324
vt 0.832519531 0.857050419
vt 0.863769531 0.857050419
vt 0.863769531 0.815653324
vt 0.925292969 0.916558862
vt 0.925292969 0.937257409
vt 0.987792969 0.937257409
vt 0.987792969 0.916558862
vt 0.832519531 0.858344078
vt 0.832519531 0.920439839
vt 0.848144531 0.920439839
vt 0.848144531 0.858344078
vt 0.721191406 0.917852521
vt 0.721191406 0.938551068
vt 0.768066406 0.938551068
vt 0.768066406 0.917852521
vt 0.849121094 0.858344078
vt 0.849121094 0.920439839
vt 0.864746094 0.920439839
vt 0.864746094 0.858344078
vt 0.784667969 0.917852521
vt 0.784667969 0.938551068
vt 0.831542969 0.938551068
vt 0.831542969 0.917852521
vt 0.613769531 0.872574389
vt 0.613769531 0.934670091
vt 0.629394531 0.934670091
vt 0.629394531 0.872574389
vt 0.832519531 0.921733499
vt 0.832519531 0.942432106
vt 0.863769531 0.942432106
vt 0.863769531 0.921733499
vt 0.504394531 0.915265203
vt 0.504394531 0.956662357
vt 0.520019531 0.956662357
vt 0.520019531 0.915265203
vt 0.534667969 0.93596375
vt 0.534667969 0.977360904
vt 0.550292969 0.977360904
vt 0.550292969 0.93596375
vt 0.551269531 0.93596375
vt 0.551269531 0.977360904
vt 0.566894531 0.977360904
vt 0.566894531 0.93596375
vt 0.567871094 0.93596375
vt 0.567871094 0.956662357
vt 0.599121094 0.956662357
vt 0.599121094 0.93596375
vt 0.600097656 0.93596375
vt 0.600097656 0.956662357
vt 0.631347656 0.956662357
vt 0.631347656 0.93596375
vt 0.642089844 0.937257409
vt 0.642089844 0.978654623
vt 0.657714844 0.978654623
vt 0.657714844 0.937257409
vt 0.658691406 0.937257409
vt 0.658691406 0.957956016
vt 0.689941406 0.957956016
vt 0.689941406 0.937257409
vt 0.690917969 0.937257409
vt 0.690917969 0.978654623
vt 0.706542969 0.978654623
vt 0.706542969 0.937257409
vt 0.877441406 0.937257409
vt 0.877441406 0.957956016
vt 0.908691406 0.957956016
vt 0.908691406 0.937257409
vt 0.925292969 0.938551068
vt 0.925292969 0.979948282
vt 0.940917969 0.979948282
vt 0.940917969 0.938551068
vt 0.941894531 0.938551068
vt 0.941894531 0.979948282
vt 0.957519531 0.979948282
vt 0.957519531 0.938551068
vt 0.958496094 0.938551068
vt 0.958496094 0.979948282
vt 0.974121094 0.979948282
vt 0.974121094 0.938551068
vt 0.721191406 0.939844787
vt 0.721191406 0.960543334
vt 0.752441406 0.960543334
vt 0.752441406 0.939844787
vt 0.975097656 0.938551068
vt 0.975097656 0.979948282
vt 0.990722656 0.979948282
vt 0.990722656 0.938551068
vt 0.753417969 0.939844787
vt 0.753417969 0.981241941
vt 0.769042969 0.981241941
vt 0.769042969 0.939844787
vt 0.784667969 0.939844787
vt 0.784667969 0.960543334
vt 0.815917969 0.960543334
vt 0.815917969 0.939844787
vt 0.832519531 0.943725765
vt 0.832519531 0.964424312
vt 0.863769531 0.964424312
vt 0.863769531 0.943725765
vt 0.504394531 0.957956016
vt 0.504394531 0.99935317
vt 0.520019531 0.99935317
vt 0.520019531 0.957956016
vt 0.567871094 0.957956016
vt 0.567871094 0.99935317
vt 0.583496094 0.99935317
vt 0.583496094 0.957956016
vt 0.584472656 0.957956016
vt 0.584472656 0.99935317
vt 0.600097656 0.99935317
vt 0.600097656 0.957956016
vt 0.601074219 0.957956016
vt 0.601074219 0.99935317
vt 0.616699219 0.99935317
vt 0.616699219 0.957956016
vt 0.617675781 0.957956016
vt 0.617675781 0.99935317
vt 0.633300781 0.99935317
vt 0.633300781 0.957956016
vt 0.283691406 0.959249675
vt 0.283691406 0.979948282
vt 0.314941406 0.979948282
vt 0.314941406 0.959249675
vt 0.315917969 0.959249675
vt 0.315917969 0.979948282
vt 0.331542969 0.979948282
vt 0.331542969 0.959249675
vt 0.991699219 0.000646829605
vt 0.991699219 0.0213454366
vt 0.994628906 0.0213454366
vt 0.994628906 0.000646829605
vt 0.332519531 0.959249675
vt 0.332519531 0.979948282
vt 0.348144531 0.979948282
vt 0.348144531 0.959249675
vt 0.349121094 0.959249675
vt 0.349121094 0.979948282
vt 0.364746094 0.979948282
vt 0.364746094 0.959249675
vt 0.365722656 0.959249675
vt 0.365722656 0.979948282
vt 0.381347656 0.979948282
vt 0.381347656 0.959249675
vt 0.382324219 0.959249675
vt 0.382324219 0.979948282
vt 0.397949219 0.979948282
vt 0.397949219 0.959249675
vt 0.398925781 0.959249675
vt 0.398925781 0.979948282
vt 0.414550781 0.979948282
vt 0.414550781 0.959249675
vt 0.415527344 0.959249675
vt 0.415527344 0.979948282
vt 0.431152344 0.979948282
vt 0.431152344 0.959249675
vt 0.432128906 0.959249675
vt 0.432128906 0.979948282
vt 0.447753906 0.979948282
vt 0.447753906 0.959249675
vt 0.658691406 0.959249675
vt 0.658691406 0.979948282
vt 0.674316406 0.979948282
vt 0.674316406 0.959249675
vt 0.877441406 0.959249675
vt 0.877441406 0.979948282
vt 0.893066406 0.979948282
vt 0.893066406 0.959249675
vt 0.894042969 0.959249675
vt 0.894042969 0.979948282
vt 0.909667969 0.979948282
vt 0.909667969 0.959249675
vt 0.721191406 0.961836994
vt 0.721191406 0.982535601
vt 0.736816406 0.982535601
vt 0.736816406 0.961836994
vt 0.784667969 0.961836994
vt 0.784667969 0.982535601
vt 0.800292969 0.982535601
vt 0.800292969 0.961836994
vt 0.801269531 0.961836994
vt 0.801269531 0.982535601
vt 0.816894531 0.982535601
vt 0.816894531 0.961836994
vt 0.832519531 0.965717971
vt 0.832519531 0.986416578
vt 0.848144531 0.986416578
vt 0.848144531 0.965717971
vt 0.849121094 0.965717971
vt 0.849121094 0.986416578
vt 0.864746094 0.986416578
vt 0.864746094 0.965717971
g dafenqi_2-mesh_0
f 3/3/3 2/2/2 1/1/1
f 1/1/1 4/4/4 3/3/3
f 7/7/7 6/6/6 5/5/5
f 5/5/5 8/8/8 7/7/7
f 11/11/11 10/10/10 9/9/9
f 9/9/9 12/12/12 11/11/11
f 15/15/15 14/14/14 13/13/13
f 13/13/13 16/16/16 15/15/15
f 19/19/19 18/18/18 17/17/17
f 17/17/17 20/20/20 19/19/19
f 23/23/23 22/22/22 21/21/21
f 21/21/21 24/24/24 23/23/23
f 27/27/27 26/26/26 25/25/25
f 25/25/25 28/28/28 27/27/27
f 31/31/31 30/30/30 29/29/29
f 29/29/29 32/32/32 31/31/31
f 35/35/35 34/34/34 33/33/33
f 33/33/33 36/36/36 35/35/35
f 39/39/39 38/38/38 37/37/37
f 37/37/37 40/40/40 39/39/39
f 43/43/43 42/42/42 41/41/41
f 41/41/41 44/44/44 43/43/43
f 47/47/47 46/46/46 45/45/45
f 45/45/45 48/48/48 47/47/47
f 51/51/51 50/50/50 49/49/49
f 49/49/49 52/52/52 51/51/51
f 55/55/55 54/54/54 53/53/53
f 53/53/53 56/56/56 55/55/55
f 59/59/59 58/58/58 57/57/57
f 57/57/57 60/60/60 59/59/59
f 63/63/63 62/62/62 61/61/61
f 61/61/61 64/64/64 63/63/63
f 67/67/67 66/66/66 65/65/65
f 65/65/65 68/68/68 67/67/67
f 71/71/71 70/70/70 69/69/69
f 69/69/69 72/72/72 71/71/71
f 75/75/75 74/74/74 73/73/73
f 73/73/73 76/76/76 75/75/75
f 79/79/79 78/78/78 77/77/77
f 77/77/77 80/80/80 79/79/79
f 83/83/83 82/82/82 81/81/81
f 81/81/81 84/84/84 83/83/83
f 87/87/87 86/86/86 85/85/85
f 85/85/85 88/88/88 87/87/87
f 91/91/91 90/90/90 89/89/89
f 89/89/89 92/92/92 91/91/91
f 95/95/95 94/94/94 93/93/93
f 93/93/93 96/96/96 95/95/95
f 99/99/99 98/98/98 97/97/97
f 97/97/97 100/100/100 99/99/99
f 103/103/103 102/102/102 101/101/101
f 101/101/101 104/104/104 103/103/103
f 107/107/107 106/106/106 105/105/105
f 105/105/105 108/108/108 107/107/107
f 111/111/111 110/110/110 109/109/109
f 109/109/109 112/112/112 111/111/111
f 115/115/115 114/114/114 113/113/113
f 113/113/113 116/116/116 115/115/115
f 119/119/119 118/118/118 117/117/117
f 117/117/117 120/120/120 119/119/119
f 123/123/123 122/122/122 121/121/121
f 121/121/121 124/124/124 123/123/123
f 127/127/127 126/126/126 125/125/125
f 125/125/125 128/128/128 127/127/127
f 131/131/131 130/130/130 129/129/129
f 129/129/129 132/132/132 131/131/131
f 135/135/135 134/134/134 133/133/133
f 133/133/133 136/136/136 135/135/135
f 139/139/139 138/138/138 137/137/137
f 137/137/137 140/140/140 139/139/139
f 143/143/143 142/142/142 141/141/141
f 141/141/141 144/144/144 143/143/143
f 147/147/147 146/146/146 145/145/145
f 145/145/145 148/148/148 147/147/147
f 151/151/151 150/150/150 149/149/149
f 149/149/149 152/152/152 151/151/151
f 155/155/155 154/154/154 153/153/153
f 153/153/153 156/156/156 155/155/155
f 159/159/159 158/158/158 157/157/157
f 157/157/157 160/160/160 159/159/159
f 163/163/163 162/162/162 161/161/161
f 161/161/161 164/164/164 163/163/163
f 167/167/167 166/166/166 165/165/165
f 165/165/165 168/168/168 167/167/167
f 171/171/171 170/170/170 169/169/169
f 169/169/169 172/172/172 171/171/171
f 175/175/175 174/174/174 173/173/173
f 173/173/173 176/176/176 175/175/175
f 179/179/179 178/178/178 177/177/177
f 177/177/177 180/180/180 179/179/179
f 183/183/183 182/182/182 181/181/181
f 181/181/181 184/184/184 183/183/183
f 187/187/187 186/186/186 185/185/185
f 185/185/185 188/188/188 187/187/187
f 191/191/191 190/190/190 189/189/189
f 189/189/189 192/192/192 191/191/191
f 195/195/195 194/194/194 193/193/193
f 193/193/193 196/196/196 195/195/195
f 199/199/199 198/198/198 197/197/197
f 197/197/197 200/200/200 199/199/199
f 203/203/203 202/202/202 201/201/201
f 201/201/201 204/204/204 203/203/203
f 207/207/207 206/206/206 205/205/205
f 205/205/205 208/208/208 207/207/207
f 211/211/211 210/210/210 209/209/209
f 209/209/209 212/212/212 211/211/211
f 215/215/215 214/214/214 213/213/213
f 213/213/213 216/216/216 215/215/215
f 219/219/219 218/218/218 217/217/217
f 217/217/217 220/220/220 219/219/219
f 223/223/223 222/222/222 221/221/221
f 221/221/221 224/224/224 223/223/223
f 227/227/227 226/226/226 225/225/225
f 225/225/225 228/228/228 227/227/227
f 231/231/231 230/230/230 229/229/229
f 229/229/229 232/232/232 231/231/231
f 235/235/235 234/234/234 233/233/233
f 233/233/233 236/236/236 235/235/235
f 239/239/239 238/238/238 237/237/237
f 237/237/237 240/240/240 239/239/239
f 243/243/243 242/242/242 241/241/241
f 241/241/241 244/244/244 243/243/243
f 247/247/247 246/246/246 245/245/245
f 245/245/245 248/248/248 247/247/247
f 251/251/251 250/250/250 249/249/249
f 249/249/249 252/252/252 251/251/251
f 255/255/255 254/254/254 253/253/253
f 253/253/253 256/256/256 255/255/255
f 259/259/259 258/258/258 257/257/257
f 257/257/257 260/260/260 259/259/259
f 263/263/263 262/262/262 261/261/261
f 261/261/261 264/264/264 263/263/263
f 267/267/267 266/266/266 265/265/265
f 265/265/265 268/268/268 267/267/267
f 271/271/271 270/270/270 269/269/269
f 269/269/269 272/272/272 271/271/271
f 275/275/275 274/274/274 273/273/273
f 273/273/273 276/276/276 275/275/275
f 279/279/279 278/278/278 277/277/277
f 277/277/277 280/280/280 279/279/279
f 283/283/283 282/282/282 281/281/281
f 281/281/281 284/284/284 283/283/283
f 287/287/287 286/286/286 285/285/285
f 285/285/285 288/288/288 287/287/287
f 291/291/291 290/290/290 289/289/289
f 289/289/289 292/292/292 291/291/291
f 295/295/295 294/294/294 293/293/293
f 293/293/293 296/296/296 295/295/295
f 299/299/299 298/298/298 297/297/297
f 297/297/297 300/300/300 299/299/299
f 303/303/303 302/302/302 301/301/301
f 301/301/301 304/304/304 303/303/303
