g ougen_6-mesh
v -128 543 0
v -128 1215 0
v -1408 1215 0
v -1408 543 0
v -128 1215 0
v -128 1887 0
v -1408 1887 0
v -1408 1215 0
v -1408 1407 0
v -1408 1983 0
v -1696 1983 0
v -1696 1407 0
v -1408 863 0
v -1408 1407 0
v -1696 1407 0
v -1696 863 0
v -512 223 0
v -512 543 0
v -832 543 0
v -832 223 0
v -832 223 0
v -832 543 0
v -1120 543 0
v -1120 223 0
v -896 1887 0
v -896 2047 0
v -1408 2047 0
v -1408 1887 0
v -384 1887 0
v -384 2047 0
v -896 2047 0
v -896 1887 0
v -704 31 0
v -704 223 0
v -960 223 0
v -960 31 0
v -0 1087 0
v -0 1439 0
v -128 1439 0
v -128 1087 0
v -0 1439 0
v -0 1791 0
v -128 1791 0
v -128 1439 0
v -320 383 0
v -320 543 0
v -512 543 0
v -512 383 0
v -256 1887 0
v -256 1983 0
v -384 1983 0
v -384 1887 0
v -1696 895 0
v -1696 1247 0
v -1725 1247 0
v -1725 895 0
v -1696 1247 0
v -1696 1599 0
v -1725 1599 0
v -1725 1247 0
v -224 447 0
v -224 543 0
v -320 543 0
v -320 447 0
v -1248 479 0
v -1248 543 0
v -1376 543 0
v -1376 479 0
v -384 319 0
v -384 383 0
v -512 383 0
v -512 319 0
v -1120 479 0
v -1120 543 0
v -1248 543 0
v -1248 479 0
v -1408 799 0
v -1408 863 0
v -1536 863 0
v -1536 799 0
v -64 831 0
v -64 959 0
v -128 959 0
v -128 831 0
v -64 959 0
v -64 1087 0
v -128 1087 0
v -128 959 0
v -1536 799 0
v -1536 863 0
v -1664 863 0
v -1664 799 0
v -608 159 0
v -608 223 0
v -704 223 0
v -704 159 0
v -1408 1983 0
v -1408 2047 0
v -1504 2047 0
v -1504 1983 0
v -1504 1983 0
v -1504 2047 0
v -1600 2047 0
v -1600 1983 0
v -64 1791 0
v -64 1855 0
v -128 1855 0
v -128 1791 0
v -1120 351 0
v -1120 479 0
v -1152 479 0
v -1152 351 0
v -96 703 0
v -96 831 0
v -128 831 0
v -128 703 0
v -1408 671 0
v -1408 799 0
v -1440 799 0
v -1440 671 0
v -1472 703 0
v -1472 799 0
v -1504 799 0
v -1504 703 0
v -768 0 0
v -768 31 0
v -864 31 0
v -864 0 0
v -960 127 0
v -960 223 0
v -992 223 0
v -992 127 0
v -1184 383 0
v -1184 479 0
v -1216 479 0
v -1216 383 0
v -1152 287 0
v -1152 383 0
v -1184 383 0
v -1184 287 0
v -1120 255 0
v -1120 351 0
v -1152 351 0
v -1152 255 0
v -1408 575 0
v -1408 671 0
v -1440 671 0
v -1440 575 0
v -96 607 0
v -96 703 0
v -128 703 0
v -128 607 0
v -1440 703 0
v -1440 799 0
v -1472 799 0
v -1472 703 0
v -1152 383 0
v -1152 479 0
v -1184 479 0
v -1184 383 0
v -1440 607 0
v -1440 703 0
v -1472 703 0
v -1472 607 0
v -32 1023 0
v -32 1087 0
v -64 1087 0
v -64 1023 0
v -1600 1983 0
v -1600 2015 0
v -1664 2015 0
v -1664 1983 0
v -320 1983 0
v -320 2015 0
v -384 2015 0
v -384 1983 0
v -1536 735 0
v -1536 799 0
v -1568 799 0
v -1568 735 0
v -1024 159 0
v -1024 223 0
v -1056 223 0
v -1056 159 0
v -1248 415 0
v -1248 479 0
v -1280 479 0
v -1280 415 0
v -448 287 0
v -448 319 0
v -512 319 0
v -512 287 0
v -1056 159 0
v -1056 223 0
v -1088 223 0
v -1088 159 0
v -640 127 0
v -640 159 0
v -704 159 0
v -704 127 0
v -1568 735 0
v -1568 799 0
v -1600 799 0
v -1600 735 0
v -160 511 0
v -160 543 0
v -224 543 0
v -224 511 0
v -1280 415 0
v -1280 479 0
v -1312 479 0
v -1312 415 0
v -1504 671 0
v -1504 735 0
v -1536 735 0
v -1536 671 0
v -1216 415 0
v -1216 479 0
v -1248 479 0
v -1248 415 0
v -1216 351 0
v -1216 415 0
v -1248 415 0
v -1248 351 0
v -1504 735 0
v -1504 799 0
v -1536 799 0
v -1536 735 0
v -1472 639 0
v -1472 703 0
v -1504 703 0
v -1504 639 0
v -1184 319 0
v -1184 383 0
v -1216 383 0
v -1216 319 0
v -864 0 0
v -864 31 0
v -928 31 0
v -928 0 0
v -960 63 0
v -960 127 0
v -992 127 0
v -992 63 0
v -160 1887 0
v -160 1919 0
v -224 1919 0
v -224 1887 0
v -992 95 0
v -992 159 0
v -1024 159 0
v -1024 95 0
v -992 159 0
v -992 223 0
v -1024 223 0
v -1024 159 0
v -288 415 0
v -288 447 0
v -320 447 0
v -320 415 0
v -352 351 0
v -352 383 0
v -384 383 0
v -384 351 0
v -1312 447 0
v -1312 479 0
v -1344 479 0
v -1344 447 0
v -1088 191 0
v -1088 223 0
v -1120 223 0
v -1120 191 0
v -576 191 0
v -576 223 0
v -608 223 0
v -608 191 0
v -672 95 0
v -672 127 0
v -704 127 0
v -704 95 0
v -480 255 0
v -480 287 0
v -512 287 0
v -512 255 0
v -192 479 0
v -192 511 0
v -224 511 0
v -224 479 0
v -1024 127 0
v -1024 159 0
v -1056 159 0
v -1056 127 0
v -1248 383 0
v -1248 415 0
v -1280 415 0
v -1280 383 0
v -1536 703 0
v -1536 735 0
v -1568 735 0
v -1568 703 0
v -224 1887 0
v -224 1919 0
v -256 1919 0
v -256 1887 0
v -1600 767 0
v -1600 799 0
v -1632 799 0
v -1632 767 0
v -32 1791 0
v -32 1823 0
v -64 1823 0
v -64 1791 0
v -224 1919 0
v -224 1951 0
v -256 1951 0
v -256 1919 0
vt 0.00048828125 0.000675678253
vt 0.00048828125 0.454729736
vt 0.625488281 0.454729736
vt 0.625488281 0.000675678253
vt 0.00048828125 0.456081092
vt 0.00048828125 0.91013515
vt 0.625488281 0.91013515
vt 0.625488281 0.456081092
vt 0.626464844 0.000675678253
vt 0.626464844 0.389864862
vt 0.767089844 0.389864862
vt 0.767089844 0.000675678253
vt 0.768066406 0.000675678253
vt 0.768066406 0.368243217
vt 0.908691406 0.368243217
vt 0.908691406 0.000675678253
vt 0.768066406 0.369594574
vt 0.768066406 0.585810781
vt 0.924316406 0.585810781
vt 0.924316406 0.369594574
vt 0.626464844 0.391216218
vt 0.626464844 0.607432425
vt 0.767089844 0.607432425
vt 0.767089844 0.391216218
vt 0.626464844 0.608783782
vt 0.626464844 0.716891885
vt 0.876464844 0.716891885
vt 0.876464844 0.608783782
vt 0.626464844 0.718243241
vt 0.626464844 0.826351345
vt 0.876464844 0.826351345
vt 0.876464844 0.718243241
vt 0.626464844 0.827702701
vt 0.626464844 0.957432449
vt 0.751464844 0.957432449
vt 0.751464844 0.827702701
vt 0.925292969 0.000675678253
vt 0.925292969 0.238513529
vt 0.987792969 0.238513529
vt 0.987792969 0.000675678253
vt 0.925292969 0.239864886
vt 0.925292969 0.477702677
vt 0.987792969 0.477702677
vt 0.987792969 0.239864886
vt 0.877441406 0.587162137
vt 0.877441406 0.6952703
vt 0.971191406 0.6952703
vt 0.971191406 0.587162137
vt 0.877441406 0.696621656
vt 0.877441406 0.761486471
vt 0.939941406 0.761486471
vt 0.939941406 0.696621656
vt 0.972167969 0.479054034
vt 0.972167969 0.716891885
vt 0.986816406 0.716891885
vt 0.986816406 0.479054034
vt 0.940917969 0.696621656
vt 0.940917969 0.934459448
vt 0.955566406 0.934459448
vt 0.955566406 0.696621656
vt 0.877441406 0.762837827
vt 0.877441406 0.827702701
vt 0.924316406 0.827702701
vt 0.924316406 0.762837827
vt 0.752441406 0.827702701
vt 0.752441406 0.87094593
vt 0.814941406 0.87094593
vt 0.814941406 0.827702701
vt 0.877441406 0.829054058
vt 0.877441406 0.872297287
vt 0.939941406 0.872297287
vt 0.939941406 0.829054058
vt 0.752441406 0.872297287
vt 0.752441406 0.915540516
vt 0.814941406 0.915540516
vt 0.814941406 0.872297287
vt 0.877441406 0.873648643
vt 0.877441406 0.916891873
vt 0.939941406 0.916891873
vt 0.939941406 0.873648643
vt 0.815917969 0.827702701
vt 0.815917969 0.914189219
vt 0.847167969 0.914189219
vt 0.847167969 0.827702701
vt 0.00048828125 0.911486506
vt 0.00048828125 0.997972965
vt 0.0317382812 0.997972965
vt 0.0317382812 0.911486506
vt 0.0327148438 0.911486506
vt 0.0327148438 0.954729736
vt 0.0952148438 0.954729736
vt 0.0952148438 0.911486506
vt 0.0961914062 0.911486506
vt 0.0961914062 0.954729736
vt 0.143066406 0.954729736
vt 0.143066406 0.911486506
vt 0.144042969 0.911486506
vt 0.144042969 0.954729736
vt 0.190917969 0.954729736
vt 0.190917969 0.911486506
vt 0.191894531 0.911486506
vt 0.191894531 0.954729736
vt 0.238769531 0.954729736
vt 0.238769531 0.911486506
vt 0.239746094 0.911486506
vt 0.239746094 0.954729736
vt 0.270996094 0.954729736
vt 0.270996094 0.911486506
vt 0.972167969 0.718243241
vt 0.972167969 0.8047297
vt 0.987792969 0.8047297
vt 0.987792969 0.718243241
vt 0.972167969 0.806081057
vt 0.972167969 0.892567575
vt 0.987792969 0.892567575
vt 0.987792969 0.806081057
vt 0.848144531 0.827702701
vt 0.848144531 0.914189219
vt 0.863769531 0.914189219
vt 0.863769531 0.827702701
vt 0.972167969 0.893918931
vt 0.972167969 0.958783805
vt 0.987792969 0.958783805
vt 0.987792969 0.893918931
vt 0.271972656 0.911486506
vt 0.271972656 0.933108091
vt 0.318847656 0.933108091
vt 0.318847656 0.911486506
vt 0.319824219 0.911486506
vt 0.319824219 0.97635138
vt 0.335449219 0.97635138
vt 0.335449219 0.911486506
vt 0.336425781 0.911486506
vt 0.336425781 0.97635138
vt 0.352050781 0.97635138
vt 0.352050781 0.911486506
vt 0.353027344 0.911486506
vt 0.353027344 0.97635138
vt 0.368652344 0.97635138
vt 0.368652344 0.911486506
vt 0.369628906 0.911486506
vt 0.369628906 0.97635138
vt 0.385253906 0.97635138
vt 0.385253906 0.911486506
vt 0.386230469 0.911486506
vt 0.386230469 0.97635138
vt 0.401855469 0.97635138
vt 0.401855469 0.911486506
vt 0.402832031 0.911486506
vt 0.402832031 0.97635138
vt 0.418457031 0.97635138
vt 0.418457031 0.911486506
vt 0.419433594 0.911486506
vt 0.419433594 0.97635138
vt 0.435058594 0.97635138
vt 0.435058594 0.911486506
vt 0.436035156 0.911486506
vt 0.436035156 0.97635138
vt 0.451660156 0.97635138
vt 0.451660156 0.911486506
vt 0.452636719 0.911486506
vt 0.452636719 0.97635138
vt 0.468261719 0.97635138
vt 0.468261719 0.911486506
vt 0.469238281 0.911486506
vt 0.469238281 0.954729736
vt 0.484863281 0.954729736
vt 0.484863281 0.911486506
vt 0.485839844 0.911486506
vt 0.485839844 0.933108091
vt 0.517089844 0.933108091
vt 0.517089844 0.911486506
vt 0.518066406 0.911486506
vt 0.518066406 0.933108091
vt 0.549316406 0.933108091
vt 0.549316406 0.911486506
vt 0.550292969 0.911486506
vt 0.550292969 0.954729736
vt 0.565917969 0.954729736
vt 0.565917969 0.911486506
vt 0.566894531 0.911486506
vt 0.566894531 0.954729736
vt 0.582519531 0.954729736
vt 0.582519531 0.911486506
vt 0.583496094 0.911486506
vt 0.583496094 0.954729736
vt 0.599121094 0.954729736
vt 0.599121094 0.911486506
vt 0.815917969 0.915540516
vt 0.815917969 0.937162161
vt 0.847167969 0.937162161
vt 0.847167969 0.915540516
vt 0.600097656 0.911486506
vt 0.600097656 0.954729736
vt 0.615722656 0.954729736
vt 0.615722656 0.911486506
vt 0.752441406 0.916891873
vt 0.752441406 0.938513517
vt 0.783691406 0.938513517
vt 0.783691406 0.916891873
vt 0.848144531 0.915540516
vt 0.848144531 0.958783805
vt 0.863769531 0.958783805
vt 0.863769531 0.915540516
vt 0.877441406 0.918243229
vt 0.877441406 0.939864874
vt 0.908691406 0.939864874
vt 0.908691406 0.918243229
vt 0.784667969 0.916891873
vt 0.784667969 0.960135162
vt 0.800292969 0.960135162
vt 0.800292969 0.916891873
vt 0.909667969 0.918243229
vt 0.909667969 0.961486459
vt 0.925292969 0.961486459
vt 0.925292969 0.918243229
vt 0.271972656 0.934459448
vt 0.271972656 0.977702677
vt 0.287597656 0.977702677
vt 0.287597656 0.934459448
vt 0.288574219 0.934459448
vt 0.288574219 0.977702677
vt 0.304199219 0.977702677
vt 0.304199219 0.934459448
vt 0.485839844 0.934459448
vt 0.485839844 0.977702677
vt 0.501464844 0.977702677
vt 0.501464844 0.934459448
vt 0.502441406 0.934459448
vt 0.502441406 0.977702677
vt 0.518066406 0.977702677
vt 0.518066406 0.934459448
vt 0.519042969 0.934459448
vt 0.519042969 0.977702677
vt 0.534667969 0.977702677
vt 0.534667969 0.934459448
vt 0.815917969 0.938513517
vt 0.815917969 0.960135162
vt 0.847167969 0.960135162
vt 0.847167969 0.938513517
vt 0.940917969 0.935810804
vt 0.940917969 0.979054034
vt 0.956542969 0.979054034
vt 0.956542969 0.935810804
vt 0.752441406 0.939864874
vt 0.752441406 0.961486459
vt 0.783691406 0.961486459
vt 0.783691406 0.939864874
vt 0.877441406 0.94121623
vt 0.877441406 0.98445946
vt 0.893066406 0.98445946
vt 0.893066406 0.94121623
vt 0.0327148438 0.956081092
vt 0.0327148438 0.999324322
vt 0.0483398438 0.999324322
vt 0.0483398438 0.956081092
vt 0.0493164062 0.956081092
vt 0.0493164062 0.977702677
vt 0.0649414062 0.977702677
vt 0.0649414062 0.956081092
vt 0.0659179688 0.956081092
vt 0.0659179688 0.977702677
vt 0.0815429688 0.977702677
vt 0.0815429688 0.956081092
vt 0.0825195312 0.956081092
vt 0.0825195312 0.977702677
vt 0.0981445312 0.977702677
vt 0.0981445312 0.956081092
vt 0.0991210938 0.956081092
vt 0.0991210938 0.977702677
vt 0.114746094 0.977702677
vt 0.114746094 0.956081092
vt 0.115722656 0.956081092
vt 0.115722656 0.977702677
vt 0.131347656 0.977702677
vt 0.131347656 0.956081092
vt 0.132324219 0.956081092
vt 0.132324219 0.977702677
vt 0.147949219 0.977702677
vt 0.147949219 0.956081092
vt 0.148925781 0.956081092
vt 0.148925781 0.977702677
vt 0.164550781 0.977702677
vt 0.164550781 0.956081092
vt 0.165527344 0.956081092
vt 0.165527344 0.977702677
vt 0.181152344 0.977702677
vt 0.181152344 0.956081092
vt 0.182128906 0.956081092
vt 0.182128906 0.977702677
vt 0.197753906 0.977702677
vt 0.197753906 0.956081092
vt 0.198730469 0.956081092
vt 0.198730469 0.977702677
vt 0.214355469 0.977702677
vt 0.214355469 0.956081092
vt 0.215332031 0.956081092
vt 0.215332031 0.977702677
vt 0.230957031 0.977702677
vt 0.230957031 0.956081092
vt 0.231933594 0.956081092
vt 0.231933594 0.977702677
vt 0.247558594 0.977702677
vt 0.247558594 0.956081092
vt 0.248535156 0.956081092
vt 0.248535156 0.977702677
vt 0.264160156 0.977702677
vt 0.264160156 0.956081092
vt 0.469238281 0.956081092
vt 0.469238281 0.977702677
vt 0.484863281 0.977702677
vt 0.484863281 0.956081092
vt 0.550292969 0.956081092
vt 0.550292969 0.977702677
vt 0.565917969 0.977702677
vt 0.565917969 0.956081092
g ougen_6-mesh_0
f 3/3/3 2/2/2 1/1/1
f 1/1/1 4/4/4 3/3/3
f 7/7/7 6/6/6 5/5/5
f 5/5/5 8/8/8 7/7/7
f 11/11/11 10/10/10 9/9/9
f 9/9/9 12/12/12 11/11/11
f 15/15/15 14/14/14 13/13/13
f 13/13/13 16/16/16 15/15/15
f 19/19/19 18/18/18 17/17/17
f 17/17/17 20/20/20 19/19/19
f 23/23/23 22/22/22 21/21/21
f 21/21/21 24/24/24 23/23/23
f 27/27/27 26/26/26 25/25/25
f 25/25/25 28/28/28 27/27/27
f 31/31/31 30/30/30 29/29/29
f 29/29/29 32/32/32 31/31/31
f 35/35/35 34/34/34 33/33/33
f 33/33/33 36/36/36 35/35/35
f 39/39/39 38/38/38 37/37/37
f 37/37/37 40/40/40 39/39/39
f 43/43/43 42/42/42 41/41/41
f 41/41/41 44/44/44 43/43/43
f 47/47/47 46/46/46 45/45/45
f 45/45/45 48/48/48 47/47/47
f 51/51/51 50/50/50 49/49/49
f 49/49/49 52/52/52 51/51/51
f 55/55/55 54/54/54 53/53/53
f 53/53/53 56/56/56 55/55/55
f 59/59/59 58/58/58 57/57/57
f 57/57/57 60/60/60 59/59/59
f 63/63/63 62/62/62 61/61/61
f 61/61/61 64/64/64 63/63/63
f 67/67/67 66/66/66 65/65/65
f 65/65/65 68/68/68 67/67/67
f 71/71/71 70/70/70 69/69/69
f 69/69/69 72/72/72 71/71/71
f 75/75/75 74/74/74 73/73/73
f 73/73/73 76/76/76 75/75/75
f 79/79/79 78/78/78 77/77/77
f 77/77/77 80/80/80 79/79/79
f 83/83/83 82/82/82 81/81/81
f 81/81/81 84/84/84 83/83/83
f 87/87/87 86/86/86 85/85/85
f 85/85/85 88/88/88 87/87/87
f 91/91/91 90/90/90 89/89/89
f 89/89/89 92/92/92 91/91/91
f 95/95/95 94/94/94 93/93/93
f 93/93/93 96/96/96 95/95/95
f 99/99/99 98/98/98 97/97/97
f 97/97/97 100/100/100 99/99/99
f 103/103/103 102/102/102 101/101/101
f 101/101/101 104/104/104 103/103/103
f 107/107/107 106/106/106 105/105/105
f 105/105/105 108/108/108 107/107/107
f 111/111/111 110/110/110 109/109/109
f 109/109/109 112/112/112 111/111/111
f 115/115/115 114/114/114 113/113/113
f 113/113/113 116/116/116 115/115/115
f 119/119/119 118/118/118 117/117/117
f 117/117/117 120/120/120 119/119/119
f 123/123/123 122/122/122 121/121/121
f 121/121/121 124/124/124 123/123/123
f 127/127/127 126/126/126 125/125/125
f 125/125/125 128/128/128 127/127/127
f 131/131/131 130/130/130 129/129/129
f 129/129/129 132/132/132 131/131/131
f 135/135/135 134/134/134 133/133/133
f 133/133/133 136/136/136 135/135/135
f 139/139/139 138/138/138 137/137/137
f 137/137/137 140/140/140 139/139/139
f 143/143/143 142/142/142 141/141/141
f 141/141/141 144/144/144 143/143/143
f 147/147/147 146/146/146 145/145/145
f 145/145/145 148/148/148 147/147/147
f 151/151/151 150/150/150 149/149/149
f 149/149/149 152/152/152 151/151/151
f 155/155/155 154/154/154 153/153/153
f 153/153/153 156/156/156 155/155/155
f 159/159/159 158/158/158 157/157/157
f 157/157/157 160/160/160 159/159/159
f 163/163/163 162/162/162 161/161/161
f 161/161/161 164/164/164 163/163/163
f 167/167/167 166/166/166 165/165/165
f 165/165/165 168/168/168 167/167/167
f 171/171/171 170/170/170 169/169/169
f 169/169/169 172/172/172 171/171/171
f 175/175/175 174/174/174 173/173/173
f 173/173/173 176/176/176 175/175/175
f 179/179/179 178/178/178 177/177/177
f 177/177/177 180/180/180 179/179/179
f 183/183/183 182/182/182 181/181/181
f 181/181/181 184/184/184 183/183/183
f 187/187/187 186/186/186 185/185/185
f 185/185/185 188/188/188 187/187/187
f 191/191/191 190/190/190 189/189/189
f 189/189/189 192/192/192 191/191/191
f 195/195/195 194/194/194 193/193/193
f 193/193/193 196/196/196 195/195/195
f 199/199/199 198/198/198 197/197/197
f 197/197/197 200/200/200 199/199/199
f 203/203/203 202/202/202 201/201/201
f 201/201/201 204/204/204 203/203/203
f 207/207/207 206/206/206 205/205/205
f 205/205/205 208/208/208 207/207/207
f 211/211/211 210/210/210 209/209/209
f 209/209/209 212/212/212 211/211/211
f 215/215/215 214/214/214 213/213/213
f 213/213/213 216/216/216 215/215/215
f 219/219/219 218/218/218 217/217/217
f 217/217/217 220/220/220 219/219/219
f 223/223/223 222/222/222 221/221/221
f 221/221/221 224/224/224 223/223/223
f 227/227/227 226/226/226 225/225/225
f 225/225/225 228/228/228 227/227/227
f 231/231/231 230/230/230 229/229/229
f 229/229/229 232/232/232 231/231/231
f 235/235/235 234/234/234 233/233/233
f 233/233/233 236/236/236 235/235/235
f 239/239/239 238/238/238 237/237/237
f 237/237/237 240/240/240 239/239/239
f 243/243/243 242/242/242 241/241/241
f 241/241/241 244/244/244 243/243/243
f 247/247/247 246/246/246 245/245/245
f 245/245/245 248/248/248 247/247/247
f 251/251/251 250/250/250 249/249/249
f 249/249/249 252/252/252 251/251/251
f 255/255/255 254/254/254 253/253/253
f 253/253/253 256/256/256 255/255/255
f 259/259/259 258/258/258 257/257/257
f 257/257/257 260/260/260 259/259/259
f 263/263/263 262/262/262 261/261/261
f 261/261/261 264/264/264 263/263/263
f 267/267/267 266/266/266 265/265/265
f 265/265/265 268/268/268 267/267/267
f 271/271/271 270/270/270 269/269/269
f 269/269/269 272/272/272 271/271/271
f 275/275/275 274/274/274 273/273/273
f 273/273/273 276/276/276 275/275/275
f 279/279/279 278/278/278 277/277/277
f 277/277/277 280/280/280 279/279/279
f 283/283/283 282/282/282 281/281/281
f 281/281/281 284/284/284 283/283/283
f 287/287/287 286/286/286 285/285/285
f 285/285/285 288/288/288 287/287/287
f 291/291/291 290/290/290 289/289/289
f 289/289/289 292/292/292 291/291/291
f 295/295/295 294/294/294 293/293/293
f 293/293/293 296/296/296 295/295/295
f 299/299/299 298/298/298 297/297/297
f 297/297/297 300/300/300 299/299/299
f 303/303/303 302/302/302 301/301/301
f 301/301/301 304/304/304 303/303/303
f 307/307/307 306/306/306 305/305/305
f 305/305/305 308/308/308 307/307/307
f 311/311/311 310/310/310 309/309/309
f 309/309/309 312/312/312 311/311/311
f 315/315/315 314/314/314 313/313/313
f 313/313/313 316/316/316 315/315/315
