g juejiang_2-mesh
v -128 479 0
v -128 927 0
v -896 927 0
v -896 479 0
v -128 63 0
v -128 479 0
v -896 479 0
v -896 63 0
v -64 31 0
v -64 415 0
v -128 415 0
v -128 31 0
v -64 415 0
v -64 799 0
v -128 799 0
v -128 415 0
v -896 479 0
v -896 671 0
v -992 671 0
v -992 479 0
v -192 927 0
v -192 991 0
v -480 991 0
v -480 927 0
v -480 927 0
v -480 991 0
v -736 991 0
v -736 927 0
v -896 319 0
v -896 479 0
v -992 479 0
v -992 319 0
v -320 0 0
v -320 63 0
v -512 63 0
v -512 0 0
v -512 0 0
v -512 63 0
v -672 63 0
v -672 0 0
v -896 223 0
v -896 319 0
v -960 319 0
v -960 223 0
v -192 0 0
v -192 63 0
v -288 63 0
v -288 0 0
v -32 63 0
v -32 223 0
v -64 223 0
v -64 63 0
v -32 639 0
v -32 799 0
v -64 799 0
v -64 639 0
v -32 479 0
v -32 639 0
v -64 639 0
v -64 479 0
v -32 223 0
v -32 383 0
v -64 383 0
v -64 223 0
v -896 159 0
v -896 223 0
v -960 223 0
v -960 159 0
v -544 991 0
v -544 1023 0
v -640 1023 0
v -640 991 0
v -448 991 0
v -448 1023 0
v -544 1023 0
v -544 991 0
v -896 95 0
v -896 159 0
v -928 159 0
v -928 95 0
v -736 927 0
v -736 959 0
v -800 959 0
v -800 927 0
v -224 991 0
v -224 1023 0
v -288 1023 0
v -288 991 0
v -896 703 0
v -896 767 0
v -928 767 0
v -928 703 0
v -960 159 0
v -960 223 0
v -992 223 0
v -992 159 0
v -0 63 0
v -0 127 0
v -32 127 0
v -32 63 0
v -0 575 0
v -0 639 0
v -32 639 0
v -32 575 0
v -0 479 0
v -0 543 0
v -32 543 0
v -32 479 0
v -96 799 0
v -96 863 0
v -128 863 0
v -128 799 0
v -0 223 0
v -0 287 0
v -32 287 0
v -32 223 0
v -96 863 0
v -96 927 0
v -128 927 0
v -128 863 0
v -896 895 0
v -896 959 0
v -928 959 0
v -928 895 0
v -896 831 0
v -896 895 0
v -928 895 0
v -928 831 0
v -672 31 0
v -672 63 0
v -736 63 0
v -736 31 0
v -0 159 0
v -0 223 0
v -32 223 0
v -32 159 0
v -736 31 0
v -736 63 0
v -800 63 0
v -800 31 0
v -288 31 0
v -288 63 0
v -320 63 0
v -320 31 0
v -864 927 0
v -864 959 0
v -896 959 0
v -896 927 0
v -160 31 0
v -160 63 0
v -192 63 0
v -192 31 0
v -160 927 0
v -160 959 0
v -192 959 0
v -192 927 0
v -896 63 0
v -896 95 0
v -928 95 0
v -928 63 0
v -896 671 0
v -896 703 0
v -928 703 0
v -928 671 0
v -288 991 0
v -288 1023 0
v -320 1023 0
v -320 991 0
vt 0.0009765625 0.0010330677
vt 0.0009765625 0.463842988
vt 0.750976562 0.463842988
vt 0.750976562 0.0010330677
vt 0.0009765625 0.465909064
vt 0.0009765625 0.895661175
vt 0.750976562 0.895661175
vt 0.750976562 0.465909064
vt 0.752929688 0.0010330677
vt 0.752929688 0.397727251
vt 0.815429688 0.397727251
vt 0.815429688 0.0010330677
vt 0.817382812 0.0010330677
vt 0.817382812 0.397727251
vt 0.879882812 0.397727251
vt 0.879882812 0.0010330677
vt 0.881835938 0.0010330677
vt 0.881835938 0.199380159
vt 0.975585938 0.199380159
vt 0.975585938 0.0010330677
vt 0.0009765625 0.897727251
vt 0.0009765625 0.963842988
vt 0.282226562 0.963842988
vt 0.282226562 0.897727251
vt 0.284179688 0.897727251
vt 0.284179688 0.963842988
vt 0.534179688 0.963842988
vt 0.534179688 0.897727251
vt 0.881835938 0.201446295
vt 0.881835938 0.366735518
vt 0.975585938 0.366735518
vt 0.975585938 0.201446295
vt 0.752929688 0.399793386
vt 0.752929688 0.465909064
vt 0.940429688 0.465909064
vt 0.940429688 0.399793386
vt 0.752929688 0.467975199
vt 0.752929688 0.534090877
vt 0.909179688 0.534090877
vt 0.909179688 0.467975199
vt 0.911132812 0.467975199
vt 0.911132812 0.567148805
vt 0.973632812 0.567148805
vt 0.973632812 0.467975199
vt 0.752929688 0.536157012
vt 0.752929688 0.602272749
vt 0.846679688 0.602272749
vt 0.846679688 0.536157012
vt 0.848632812 0.536157012
vt 0.848632812 0.701446295
vt 0.879882812 0.701446295
vt 0.879882812 0.536157012
vt 0.911132812 0.56921488
vt 0.911132812 0.734504104
vt 0.942382812 0.734504104
vt 0.942382812 0.56921488
vt 0.944335938 0.56921488
vt 0.944335938 0.734504104
vt 0.975585938 0.734504104
vt 0.975585938 0.56921488
vt 0.752929688 0.604338884
vt 0.752929688 0.769628108
vt 0.784179688 0.769628108
vt 0.784179688 0.604338884
vt 0.911132812 0.736570239
vt 0.911132812 0.802685976
vt 0.973632812 0.802685976
vt 0.973632812 0.736570239
vt 0.752929688 0.771694183
vt 0.752929688 0.804752052
vt 0.846679688 0.804752052
vt 0.846679688 0.771694183
vt 0.752929688 0.806818187
vt 0.752929688 0.839876056
vt 0.846679688 0.839876056
vt 0.846679688 0.806818187
vt 0.848632812 0.70351243
vt 0.848632812 0.769628108
vt 0.879882812 0.769628108
vt 0.879882812 0.70351243
vt 0.911132812 0.804752052
vt 0.911132812 0.83780992
vt 0.973632812 0.83780992
vt 0.973632812 0.804752052
vt 0.911132812 0.839876056
vt 0.911132812 0.872933865
vt 0.973632812 0.872933865
vt 0.973632812 0.839876056
vt 0.848632812 0.771694183
vt 0.848632812 0.83780992
vt 0.879882812 0.83780992
vt 0.879882812 0.771694183
vt 0.848632812 0.839876056
vt 0.848632812 0.905991733
vt 0.879882812 0.905991733
vt 0.879882812 0.839876056
vt 0.752929688 0.841942132
vt 0.752929688 0.908057868
vt 0.784179688 0.908057868
vt 0.784179688 0.841942132
vt 0.786132812 0.841942132
vt 0.786132812 0.908057868
vt 0.817382812 0.908057868
vt 0.817382812 0.841942132
vt 0.911132812 0.875
vt 0.911132812 0.941115677
vt 0.942382812 0.941115677
vt 0.942382812 0.875
vt 0.944335938 0.875
vt 0.944335938 0.941115677
vt 0.975585938 0.941115677
vt 0.975585938 0.875
vt 0.536132812 0.897727251
vt 0.536132812 0.963842988
vt 0.567382812 0.963842988
vt 0.567382812 0.897727251
vt 0.569335938 0.897727251
vt 0.569335938 0.963842988
vt 0.600585938 0.963842988
vt 0.600585938 0.897727251
vt 0.602539062 0.897727251
vt 0.602539062 0.963842988
vt 0.633789062 0.963842988
vt 0.633789062 0.897727251
vt 0.635742188 0.897727251
vt 0.635742188 0.963842988
vt 0.666992188 0.963842988
vt 0.666992188 0.897727251
vt 0.668945312 0.897727251
vt 0.668945312 0.93078512
vt 0.731445312 0.93078512
vt 0.731445312 0.897727251
vt 0.848632812 0.908057868
vt 0.848632812 0.974173546
vt 0.879882812 0.974173546
vt 0.879882812 0.908057868
vt 0.752929688 0.910123944
vt 0.752929688 0.943181813
vt 0.815429688 0.943181813
vt 0.815429688 0.910123944
vt 0.668945312 0.932851255
vt 0.668945312 0.965909064
vt 0.700195312 0.965909064
vt 0.700195312 0.932851255
vt 0.702148438 0.932851255
vt 0.702148438 0.965909064
vt 0.733398438 0.965909064
vt 0.733398438 0.932851255
vt 0.911132812 0.943181813
vt 0.911132812 0.976239681
vt 0.942382812 0.976239681
vt 0.942382812 0.943181813
vt 0.944335938 0.943181813
vt 0.944335938 0.976239681
vt 0.975585938 0.976239681
vt 0.975585938 0.943181813
vt 0.752929688 0.945247948
vt 0.752929688 0.978305757
vt 0.784179688 0.978305757
vt 0.784179688 0.945247948
vt 0.786132812 0.945247948
vt 0.786132812 0.978305757
vt 0.817382812 0.978305757
vt 0.817382812 0.945247948
vt 0.0009765625 0.965909064
vt 0.0009765625 0.998966932
vt 0.0322265625 0.998966932
vt 0.0322265625 0.965909064
g juejiang_2-mesh_0
f 3/3/3 2/2/2 1/1/1
f 1/1/1 4/4/4 3/3/3
f 7/7/7 6/6/6 5/5/5
f 5/5/5 8/8/8 7/7/7
f 11/11/11 10/10/10 9/9/9
f 9/9/9 12/12/12 11/11/11
f 15/15/15 14/14/14 13/13/13
f 13/13/13 16/16/16 15/15/15
f 19/19/19 18/18/18 17/17/17
f 17/17/17 20/20/20 19/19/19
f 23/23/23 22/22/22 21/21/21
f 21/21/21 24/24/24 23/23/23
f 27/27/27 26/26/26 25/25/25
f 25/25/25 28/28/28 27/27/27
f 31/31/31 30/30/30 29/29/29
f 29/29/29 32/32/32 31/31/31
f 35/35/35 34/34/34 33/33/33
f 33/33/33 36/36/36 35/35/35
f 39/39/39 38/38/38 37/37/37
f 37/37/37 40/40/40 39/39/39
f 43/43/43 42/42/42 41/41/41
f 41/41/41 44/44/44 43/43/43
f 47/47/47 46/46/46 45/45/45
f 45/45/45 48/48/48 47/47/47
f 51/51/51 50/50/50 49/49/49
f 49/49/49 52/52/52 51/51/51
f 55/55/55 54/54/54 53/53/53
f 53/53/53 56/56/56 55/55/55
f 59/59/59 58/58/58 57/57/57
f 57/57/57 60/60/60 59/59/59
f 63/63/63 62/62/62 61/61/61
f 61/61/61 64/64/64 63/63/63
f 67/67/67 66/66/66 65/65/65
f 65/65/65 68/68/68 67/67/67
f 71/71/71 70/70/70 69/69/69
f 69/69/69 72/72/72 71/71/71
f 75/75/75 74/74/74 73/73/73
f 73/73/73 76/76/76 75/75/75
f 79/79/79 78/78/78 77/77/77
f 77/77/77 80/80/80 79/79/79
f 83/83/83 82/82/82 81/81/81
f 81/81/81 84/84/84 83/83/83
f 87/87/87 86/86/86 85/85/85
f 85/85/85 88/88/88 87/87/87
f 91/91/91 90/90/90 89/89/89
f 89/89/89 92/92/92 91/91/91
f 95/95/95 94/94/94 93/93/93
f 93/93/93 96/96/96 95/95/95
f 99/99/99 98/98/98 97/97/97
f 97/97/97 100/100/100 99/99/99
f 103/103/103 102/102/102 101/101/101
f 101/101/101 104/104/104 103/103/103
f 107/107/107 106/106/106 105/105/105
f 105/105/105 108/108/108 107/107/107
f 111/111/111 110/110/110 109/109/109
f 109/109/109 112/112/112 111/111/111
f 115/115/115 114/114/114 113/113/113
f 113/113/113 116/116/116 115/115/115
f 119/119/119 118/118/118 117/117/117
f 117/117/117 120/120/120 119/119/119
f 123/123/123 122/122/122 121/121/121
f 121/121/121 124/124/124 123/123/123
f 127/127/127 126/126/126 125/125/125
f 125/125/125 128/128/128 127/127/127
f 131/131/131 130/130/130 129/129/129
f 129/129/129 132/132/132 131/131/131
f 135/135/135 134/134/134 133/133/133
f 133/133/133 136/136/136 135/135/135
f 139/139/139 138/138/138 137/137/137
f 137/137/137 140/140/140 139/139/139
f 143/143/143 142/142/142 141/141/141
f 141/141/141 144/144/144 143/143/143
f 147/147/147 146/146/146 145/145/145
f 145/145/145 148/148/148 147/147/147
f 151/151/151 150/150/150 149/149/149
f 149/149/149 152/152/152 151/151/151
f 155/155/155 154/154/154 153/153/153
f 153/153/153 156/156/156 155/155/155
f 159/159/159 158/158/158 157/157/157
f 157/157/157 160/160/160 159/159/159
f 163/163/163 162/162/162 161/161/161
f 161/161/161 164/164/164 163/163/163
f 167/167/167 166/166/166 165/165/165
f 165/165/165 168/168/168 167/167/167
