g adaerbote_2-mesh
v -256 255 0
v -256 927 0
v -1440 927 0
v -1440 255 0
v -256 927 0
v -256 1599 0
v -1440 1599 0
v -1440 927 0
v -1440 607 0
v -1440 1215 0
v -1760 1215 0
v -1760 607 0
v -1440 1215 0
v -1440 1823 0
v -1760 1823 0
v -1760 1215 0
v -1088 1599 0
v -1088 1983 0
v -1440 1983 0
v -1440 1599 0
v -736 1599 0
v -736 1983 0
v -1088 1983 0
v -1088 1599 0
v -960 31 0
v -960 255 0
v -1312 255 0
v -1312 31 0
v -608 31 0
v -608 255 0
v -960 255 0
v -960 31 0
v -512 1599 0
v -512 1855 0
v -736 1855 0
v -736 1599 0
v -96 767 0
v -96 1055 0
v -256 1055 0
v -256 767 0
v -1440 351 0
v -1440 575 0
v -1632 575 0
v -1632 351 0
v -96 511 0
v -96 767 0
v -256 767 0
v -256 511 0
v -1760 895 0
v -1760 1311 0
v -1824 1311 0
v -1824 895 0
v -1760 1311 0
v -1760 1727 0
v -1824 1727 0
v -1824 1311 0
v -1440 1823 0
v -1440 1951 0
v -1632 1951 0
v -1632 1823 0
v -384 159 0
v -384 255 0
v -608 255 0
v -608 159 0
v -0 767 0
v -0 991 0
v -96 991 0
v -96 767 0
v -1248 1983 0
v -1248 2047 0
v -1472 2047 0
v -1472 1983 0
v -1024 1983 0
v -1024 2047 0
v -1248 2047 0
v -1248 1983 0
v -160 383 0
v -160 511 0
v -256 511 0
v -256 383 0
v -416 1599 0
v -416 1727 0
v -512 1727 0
v -512 1599 0
v -1824 1215 0
v -1824 1407 0
v -1888 1407 0
v -1888 1215 0
v -192 1215 0
v -192 1407 0
v -256 1407 0
v -256 1215 0
v -192 1055 0
v -192 1215 0
v -256 1215 0
v -256 1055 0
v -1824 1055 0
v -1824 1215 0
v -1888 1215 0
v -1888 1055 0
v -480 95 0
v -480 159 0
v -608 159 0
v -608 95 0
v -128 1279 0
v -128 1375 0
v -192 1375 0
v -192 1279 0
v -1888 1151 0
v -1888 1247 0
v -1948 1247 0
v -1948 1151 0
v -320 1599 0
v -320 1663 0
v -416 1663 0
v -416 1599 0
v -896 0 0
v -896 31 0
v -1088 31 0
v -1088 0 0
v -704 0 0
v -704 31 0
v -896 31 0
v -896 0 0
v -1632 1823 0
v -1632 1887 0
v -1696 1887 0
v -1696 1823 0
v -1472 1951 0
v -1472 2015 0
v -1536 2015 0
v -1536 1951 0
v -32 703 0
v -32 767 0
v -96 767 0
v -96 703 0
v -1824 1567 0
v -1824 1695 0
v -1856 1695 0
v -1856 1567 0
v -1440 575 0
v -1440 607 0
v -1568 607 0
v -1568 575 0
v -1568 575 0
v -1568 607 0
v -1664 607 0
v -1664 575 0
v -1824 1471 0
v -1824 1567 0
v -1856 1567 0
v -1856 1471 0
v -1312 159 0
v -1312 255 0
v -1344 255 0
v -1344 159 0
v -1312 63 0
v -1312 159 0
v -1344 159 0
v -1344 63 0
v -128 447 0
v -128 511 0
v -160 511 0
v -160 447 0
v -64 639 0
v -64 703 0
v -96 703 0
v -96 639 0
v -1824 959 0
v -1824 1023 0
v -1856 1023 0
v -1856 959 0
v -128 1055 0
v -128 1119 0
v -160 1119 0
v -160 1055 0
v -64 991 0
v -64 1055 0
v -96 1055 0
v -96 991 0
v -192 351 0
v -192 383 0
v -256 383 0
v -256 351 0
v -1152 0 0
v -1152 31 0
v -1216 31 0
v -1216 0 0
v -1248 0 0
v -1248 31 0
v -1312 31 0
v -1312 0 0
v -544 63 0
v -544 95 0
v -608 95 0
v -608 63 0
v -320 223 0
v -320 255 0
v -384 255 0
v -384 223 0
v -1344 191 0
v -1344 255 0
v -1376 255 0
v -1376 191 0
v -1888 1087 0
v -1888 1151 0
v -1920 1151 0
v -1920 1087 0
v -1632 351 0
v -1632 415 0
v -1664 415 0
v -1664 351 0
v -704 1887 0
v -704 1951 0
v -736 1951 0
v -736 1887 0
v -1632 415 0
v -1632 479 0
v -1664 479 0
v -1664 415 0
v -160 1119 0
v -160 1183 0
v -192 1183 0
v -192 1119 0
v -160 1055 0
v -160 1119 0
v -192 1119 0
v -192 1055 0
v -1760 1727 0
v -1760 1791 0
v -1792 1791 0
v -1792 1727 0
v -640 1855 0
v -640 1887 0
v -704 1887 0
v -704 1855 0
v -480 1727 0
v -480 1791 0
v -512 1791 0
v -512 1727 0
v -1536 319 0
v -1536 351 0
v -1600 351 0
v -1600 319 0
v -1760 735 0
v -1760 767 0
v -1792 767 0
v -1792 735 0
v -1760 863 0
v -1760 895 0
v -1792 895 0
v -1792 863 0
v -32 991 0
v -32 1023 0
v -64 1023 0
v -64 991 0
v -160 1247 0
v -160 1279 0
v -192 1279 0
v -192 1247 0
v -160 1375 0
v -160 1407 0
v -192 1407 0
v -192 1375 0
v -224 319 0
v -224 351 0
v -256 351 0
v -256 319 0
v -1344 95 0
v -1344 127 0
v -1376 127 0
v -1376 95 0
v -448 127 0
v -448 159 0
v -480 159 0
v -480 127 0
v -352 191 0
v -352 223 0
v -384 223 0
v -384 191 0
v -1440 319 0
v -1440 351 0
v -1472 351 0
v -1472 319 0
v -1376 223 0
v -1376 255 0
v -1408 255 0
v -1408 223 0
v -1536 1951 0
v -1536 1983 0
v -1568 1983 0
v -1568 1951 0
v -1632 1887 0
v -1632 1919 0
v -1664 1919 0
v -1664 1887 0
v -1440 1951 0
v -1440 1983 0
v -1472 1983 0
v -1472 1951 0
v -1600 319 0
v -1600 351 0
v -1632 351 0
v -1632 319 0
v -704 1855 0
v -704 1887 0
v -736 1887 0
v -736 1855 0
v -1696 1823 0
v -1696 1855 0
v -1728 1855 0
v -1728 1823 0
v -224 1407 0
v -224 1439 0
v -256 1439 0
v -256 1407 0
v -1824 1407 0
v -1824 1439 0
v -1856 1439 0
v -1856 1407 0
v -1856 1503 0
v -1856 1535 0
v -1888 1535 0
v -1888 1503 0
v -448 1727 0
v -448 1759 0
v -480 1759 0
v -480 1727 0
v -384 1663 0
v -384 1695 0
v -416 1695 0
v -416 1663 0
vt 0.00048828125 0.000645160675
vt 0.00048828125 0.434193552
vt 0.578613281 0.434193552
vt 0.578613281 0.000645160675
vt 0.00048828125 0.435483873
vt 0.00048828125 0.869032264
vt 0.578613281 0.869032264
vt 0.578613281 0.435483873
vt 0.579589844 0.000645160675
vt 0.579589844 0.392903209
vt 0.735839844 0.392903209
vt 0.735839844 0.000645160675
vt 0.736816406 0.000645160675
vt 0.736816406 0.392903209
vt 0.893066406 0.392903209
vt 0.893066406 0.000645160675
vt 0.579589844 0.39419353
vt 0.579589844 0.641935468
vt 0.751464844 0.641935468
vt 0.751464844 0.39419353
vt 0.752441406 0.39419353
vt 0.752441406 0.641935468
vt 0.924316406 0.641935468
vt 0.924316406 0.39419353
vt 0.579589844 0.643225789
vt 0.579589844 0.787741899
vt 0.751464844 0.787741899
vt 0.751464844 0.643225789
vt 0.752441406 0.643225789
vt 0.752441406 0.787741899
vt 0.924316406 0.787741899
vt 0.924316406 0.643225789
vt 0.579589844 0.789032221
vt 0.579589844 0.954193532
vt 0.688964844 0.954193532
vt 0.688964844 0.789032221
vt 0.689941406 0.789032221
vt 0.689941406 0.974838734
vt 0.768066406 0.974838734
vt 0.768066406 0.789032221
vt 0.769042969 0.789032221
vt 0.769042969 0.933548391
vt 0.862792969 0.933548391
vt 0.862792969 0.789032221
vt 0.863769531 0.789032221
vt 0.863769531 0.954193532
vt 0.941894531 0.954193532
vt 0.941894531 0.789032221
vt 0.942871094 0.000645160675
vt 0.942871094 0.26903224
vt 0.974121094 0.26903224
vt 0.974121094 0.000645160675
vt 0.942871094 0.270322561
vt 0.942871094 0.538709641
vt 0.974121094 0.538709641
vt 0.974121094 0.270322561
vt 0.00048828125 0.870322585
vt 0.00048828125 0.952903211
vt 0.0942382812 0.952903211
vt 0.0942382812 0.870322585
vt 0.0952148438 0.870322585
vt 0.0952148438 0.93225807
vt 0.204589844 0.93225807
vt 0.204589844 0.870322585
vt 0.942871094 0.539999962
vt 0.942871094 0.684516132
vt 0.989746094 0.684516132
vt 0.989746094 0.539999962
vt 0.205566406 0.870322585
vt 0.205566406 0.911612928
vt 0.314941406 0.911612928
vt 0.314941406 0.870322585
vt 0.315917969 0.870322585
vt 0.315917969 0.911612928
vt 0.425292969 0.911612928
vt 0.425292969 0.870322585
vt 0.942871094 0.685806453
vt 0.942871094 0.768387079
vt 0.989746094 0.768387079
vt 0.989746094 0.685806453
vt 0.942871094 0.769677401
vt 0.942871094 0.852258086
vt 0.989746094 0.852258086
vt 0.989746094 0.769677401
vt 0.942871094 0.853548408
vt 0.942871094 0.977419376
vt 0.974121094 0.977419376
vt 0.974121094 0.853548408
vt 0.426269531 0.870322585
vt 0.426269531 0.994193554
vt 0.457519531 0.994193554
vt 0.457519531 0.870322585
vt 0.458496094 0.870322585
vt 0.458496094 0.973548412
vt 0.489746094 0.973548412
vt 0.489746094 0.870322585
vt 0.490722656 0.870322585
vt 0.490722656 0.973548412
vt 0.521972656 0.973548412
vt 0.521972656 0.870322585
vt 0.205566406 0.912903249
vt 0.205566406 0.954193532
vt 0.268066406 0.954193532
vt 0.268066406 0.912903249
vt 0.522949219 0.870322585
vt 0.522949219 0.93225807
vt 0.554199219 0.93225807
vt 0.554199219 0.870322585
vt 0.269042969 0.912903249
vt 0.269042969 0.974838734
vt 0.298828125 0.974838734
vt 0.298828125 0.912903249
vt 0.299804688 0.912903249
vt 0.299804688 0.954193532
vt 0.346679688 0.954193532
vt 0.346679688 0.912903249
vt 0.0952148438 0.933548391
vt 0.0952148438 0.954193532
vt 0.188964844 0.954193532
vt 0.188964844 0.933548391
vt 0.769042969 0.934838712
vt 0.769042969 0.955483854
vt 0.862792969 0.955483854
vt 0.862792969 0.934838712
vt 0.34765625 0.912903249
vt 0.34765625 0.954193532
vt 0.37890625 0.954193532
vt 0.37890625 0.912903249
vt 0.379882812 0.912903249
vt 0.379882812 0.954193532
vt 0.411132812 0.954193532
vt 0.411132812 0.912903249
vt 0.522949219 0.933548391
vt 0.522949219 0.974838734
vt 0.554199219 0.974838734
vt 0.554199219 0.933548391
vt 0.975097656 0.853548408
vt 0.975097656 0.936129034
vt 0.990722656 0.936129034
vt 0.990722656 0.853548408
vt 0.00048828125 0.954193532
vt 0.00048828125 0.974838734
vt 0.0629882812 0.974838734
vt 0.0629882812 0.954193532
vt 0.0952148438 0.955483854
vt 0.0952148438 0.976129055
vt 0.142089844 0.976129055
vt 0.142089844 0.955483854
vt 0.555175781 0.870322585
vt 0.555175781 0.93225807
vt 0.570800781 0.93225807
vt 0.570800781 0.870322585
vt 0.555175781 0.933548391
vt 0.555175781 0.995483875
vt 0.570800781 0.995483875
vt 0.570800781 0.933548391
vt 0.975097656 0.937419355
vt 0.975097656 0.999354839
vt 0.990722656 0.999354839
vt 0.990722656 0.937419355
vt 0.0639648438 0.954193532
vt 0.0639648438 0.995483875
vt 0.0795898438 0.995483875
vt 0.0795898438 0.954193532
vt 0.143066406 0.955483854
vt 0.143066406 0.996774197
vt 0.158691406 0.996774197
vt 0.158691406 0.955483854
vt 0.159667969 0.955483854
vt 0.159667969 0.996774197
vt 0.175292969 0.996774197
vt 0.175292969 0.955483854
vt 0.176269531 0.955483854
vt 0.176269531 0.996774197
vt 0.191894531 0.996774197
vt 0.191894531 0.955483854
vt 0.205566406 0.955483854
vt 0.205566406 0.996774197
vt 0.221191406 0.996774197
vt 0.221191406 0.955483854
vt 0.222167969 0.955483854
vt 0.222167969 0.976129055
vt 0.253417969 0.976129055
vt 0.253417969 0.955483854
vt 0.299804688 0.955483854
vt 0.299804688 0.976129055
vt 0.331054688 0.976129055
vt 0.331054688 0.955483854
vt 0.33203125 0.955483854
vt 0.33203125 0.976129055
vt 0.36328125 0.976129055
vt 0.36328125 0.955483854
vt 0.364257812 0.955483854
vt 0.364257812 0.976129055
vt 0.395507812 0.976129055
vt 0.395507812 0.955483854
vt 0.579589844 0.955483854
vt 0.579589844 0.976129055
vt 0.610839844 0.976129055
vt 0.610839844 0.955483854
vt 0.396484375 0.955483854
vt 0.396484375 0.996774197
vt 0.412109375 0.996774197
vt 0.412109375 0.955483854
vt 0.611816406 0.955483854
vt 0.611816406 0.996774197
vt 0.627441406 0.996774197
vt 0.627441406 0.955483854
vt 0.628417969 0.955483854
vt 0.628417969 0.996774197
vt 0.644042969 0.996774197
vt 0.644042969 0.955483854
vt 0.645019531 0.955483854
vt 0.645019531 0.996774197
vt 0.660644531 0.996774197
vt 0.660644531 0.955483854
vt 0.661621094 0.955483854
vt 0.661621094 0.996774197
vt 0.677246094 0.996774197
vt 0.677246094 0.955483854
vt 0.863769531 0.955483854
vt 0.863769531 0.996774197
vt 0.879394531 0.996774197
vt 0.879394531 0.955483854
vt 0.880371094 0.955483854
vt 0.880371094 0.996774197
vt 0.895996094 0.996774197
vt 0.895996094 0.955483854
vt 0.896972656 0.955483854
vt 0.896972656 0.996774197
vt 0.912597656 0.996774197
vt 0.912597656 0.955483854
vt 0.769042969 0.956774175
vt 0.769042969 0.977419376
vt 0.800292969 0.977419376
vt 0.800292969 0.956774175
vt 0.913574219 0.955483854
vt 0.913574219 0.996774197
vt 0.929199219 0.996774197
vt 0.929199219 0.955483854
vt 0.801269531 0.956774175
vt 0.801269531 0.977419376
vt 0.832519531 0.977419376
vt 0.832519531 0.956774175
vt 0.833496094 0.956774175
vt 0.833496094 0.977419376
vt 0.849121094 0.977419376
vt 0.849121094 0.956774175
vt 0.458496094 0.974838734
vt 0.458496094 0.995483875
vt 0.474121094 0.995483875
vt 0.474121094 0.974838734
vt 0.475097656 0.974838734
vt 0.475097656 0.995483875
vt 0.490722656 0.995483875
vt 0.490722656 0.974838734
vt 0.491699219 0.974838734
vt 0.491699219 0.995483875
vt 0.507324219 0.995483875
vt 0.507324219 0.974838734
vt 0.00048828125 0.976129055
vt 0.00048828125 0.996774197
vt 0.0161132812 0.996774197
vt 0.0161132812 0.976129055
vt 0.0170898438 0.976129055
vt 0.0170898438 0.996774197
vt 0.0327148438 0.996774197
vt 0.0327148438 0.976129055
vt 0.0336914062 0.976129055
vt 0.0336914062 0.996774197
vt 0.0493164062 0.996774197
vt 0.0493164062 0.976129055
vt 0.269042969 0.976129055
vt 0.269042969 0.996774197
vt 0.284667969 0.996774197
vt 0.284667969 0.976129055
vt 0.522949219 0.976129055
vt 0.522949219 0.996774197
vt 0.538574219 0.996774197
vt 0.538574219 0.976129055
vt 0.689941406 0.976129055
vt 0.689941406 0.996774197
vt 0.705566406 0.996774197
vt 0.705566406 0.976129055
vt 0.706542969 0.976129055
vt 0.706542969 0.996774197
vt 0.722167969 0.996774197
vt 0.722167969 0.976129055
vt 0.723144531 0.976129055
vt 0.723144531 0.996774197
vt 0.738769531 0.996774197
vt 0.738769531 0.976129055
vt 0.739746094 0.976129055
vt 0.739746094 0.996774197
vt 0.755371094 0.996774197
vt 0.755371094 0.976129055
vt 0.0952148438 0.977419376
vt 0.0952148438 0.998064518
vt 0.110839844 0.998064518
vt 0.110839844 0.977419376
vt 0.111816406 0.977419376
vt 0.111816406 0.998064518
vt 0.127441406 0.998064518
vt 0.127441406 0.977419376
vt 0.222167969 0.977419376
vt 0.222167969 0.998064518
vt 0.237792969 0.998064518
vt 0.237792969 0.977419376
vt 0.238769531 0.977419376
vt 0.238769531 0.998064518
vt 0.254394531 0.998064518
vt 0.254394531 0.977419376
vt 0.299804688 0.977419376
vt 0.299804688 0.998064518
vt 0.315429688 0.998064518
vt 0.315429688 0.977419376
vt 0.31640625 0.977419376
vt 0.31640625 0.998064518
vt 0.33203125 0.998064518
vt 0.33203125 0.977419376
vt 0.333007812 0.977419376
vt 0.333007812 0.998064518
vt 0.348632812 0.998064518
vt 0.348632812 0.977419376
vt 0.349609375 0.977419376
vt 0.349609375 0.998064518
vt 0.365234375 0.998064518
vt 0.365234375 0.977419376
vt 0.366210938 0.977419376
vt 0.366210938 0.998064518
vt 0.381835938 0.998064518
vt 0.381835938 0.977419376
g adaerbote_2-mesh_0
f 3/3/3 2/2/2 1/1/1
f 1/1/1 4/4/4 3/3/3
f 7/7/7 6/6/6 5/5/5
f 5/5/5 8/8/8 7/7/7
f 11/11/11 10/10/10 9/9/9
f 9/9/9 12/12/12 11/11/11
f 15/15/15 14/14/14 13/13/13
f 13/13/13 16/16/16 15/15/15
f 19/19/19 18/18/18 17/17/17
f 17/17/17 20/20/20 19/19/19
f 23/23/23 22/22/22 21/21/21
f 21/21/21 24/24/24 23/23/23
f 27/27/27 26/26/26 25/25/25
f 25/25/25 28/28/28 27/27/27
f 31/31/31 30/30/30 29/29/29
f 29/29/29 32/32/32 31/31/31
f 35/35/35 34/34/34 33/33/33
f 33/33/33 36/36/36 35/35/35
f 39/39/39 38/38/38 37/37/37
f 37/37/37 40/40/40 39/39/39
f 43/43/43 42/42/42 41/41/41
f 41/41/41 44/44/44 43/43/43
f 47/47/47 46/46/46 45/45/45
f 45/45/45 48/48/48 47/47/47
f 51/51/51 50/50/50 49/49/49
f 49/49/49 52/52/52 51/51/51
f 55/55/55 54/54/54 53/53/53
f 53/53/53 56/56/56 55/55/55
f 59/59/59 58/58/58 57/57/57
f 57/57/57 60/60/60 59/59/59
f 63/63/63 62/62/62 61/61/61
f 61/61/61 64/64/64 63/63/63
f 67/67/67 66/66/66 65/65/65
f 65/65/65 68/68/68 67/67/67
f 71/71/71 70/70/70 69/69/69
f 69/69/69 72/72/72 71/71/71
f 75/75/75 74/74/74 73/73/73
f 73/73/73 76/76/76 75/75/75
f 79/79/79 78/78/78 77/77/77
f 77/77/77 80/80/80 79/79/79
f 83/83/83 82/82/82 81/81/81
f 81/81/81 84/84/84 83/83/83
f 87/87/87 86/86/86 85/85/85
f 85/85/85 88/88/88 87/87/87
f 91/91/91 90/90/90 89/89/89
f 89/89/89 92/92/92 91/91/91
f 95/95/95 94/94/94 93/93/93
f 93/93/93 96/96/96 95/95/95
f 99/99/99 98/98/98 97/97/97
f 97/97/97 100/100/100 99/99/99
f 103/103/103 102/102/102 101/101/101
f 101/101/101 104/104/104 103/103/103
f 107/107/107 106/106/106 105/105/105
f 105/105/105 108/108/108 107/107/107
f 111/111/111 110/110/110 109/109/109
f 109/109/109 112/112/112 111/111/111
f 115/115/115 114/114/114 113/113/113
f 113/113/113 116/116/116 115/115/115
f 119/119/119 118/118/118 117/117/117
f 117/117/117 120/120/120 119/119/119
f 123/123/123 122/122/122 121/121/121
f 121/121/121 124/124/124 123/123/123
f 127/127/127 126/126/126 125/125/125
f 125/125/125 128/128/128 127/127/127
f 131/131/131 130/130/130 129/129/129
f 129/129/129 132/132/132 131/131/131
f 135/135/135 134/134/134 133/133/133
f 133/133/133 136/136/136 135/135/135
f 139/139/139 138/138/138 137/137/137
f 137/137/137 140/140/140 139/139/139
f 143/143/143 142/142/142 141/141/141
f 141/141/141 144/144/144 143/143/143
f 147/147/147 146/146/146 145/145/145
f 145/145/145 148/148/148 147/147/147
f 151/151/151 150/150/150 149/149/149
f 149/149/149 152/152/152 151/151/151
f 155/155/155 154/154/154 153/153/153
f 153/153/153 156/156/156 155/155/155
f 159/159/159 158/158/158 157/157/157
f 157/157/157 160/160/160 159/159/159
f 163/163/163 162/162/162 161/161/161
f 161/161/161 164/164/164 163/163/163
f 167/167/167 166/166/166 165/165/165
f 165/165/165 168/168/168 167/167/167
f 171/171/171 170/170/170 169/169/169
f 169/169/169 172/172/172 171/171/171
f 175/175/175 174/174/174 173/173/173
f 173/173/173 176/176/176 175/175/175
f 179/179/179 178/178/178 177/177/177
f 177/177/177 180/180/180 179/179/179
f 183/183/183 182/182/182 181/181/181
f 181/181/181 184/184/184 183/183/183
f 187/187/187 186/186/186 185/185/185
f 185/185/185 188/188/188 187/187/187
f 191/191/191 190/190/190 189/189/189
f 189/189/189 192/192/192 191/191/191
f 195/195/195 194/194/194 193/193/193
f 193/193/193 196/196/196 195/195/195
f 199/199/199 198/198/198 197/197/197
f 197/197/197 200/200/200 199/199/199
f 203/203/203 202/202/202 201/201/201
f 201/201/201 204/204/204 203/203/203
f 207/207/207 206/206/206 205/205/205
f 205/205/205 208/208/208 207/207/207
f 211/211/211 210/210/210 209/209/209
f 209/209/209 212/212/212 211/211/211
f 215/215/215 214/214/214 213/213/213
f 213/213/213 216/216/216 215/215/215
f 219/219/219 218/218/218 217/217/217
f 217/217/217 220/220/220 219/219/219
f 223/223/223 222/222/222 221/221/221
f 221/221/221 224/224/224 223/223/223
f 227/227/227 226/226/226 225/225/225
f 225/225/225 228/228/228 227/227/227
f 231/231/231 230/230/230 229/229/229
f 229/229/229 232/232/232 231/231/231
f 235/235/235 234/234/234 233/233/233
f 233/233/233 236/236/236 235/235/235
f 239/239/239 238/238/238 237/237/237
f 237/237/237 240/240/240 239/239/239
f 243/243/243 242/242/242 241/241/241
f 241/241/241 244/244/244 243/243/243
f 247/247/247 246/246/246 245/245/245
f 245/245/245 248/248/248 247/247/247
f 251/251/251 250/250/250 249/249/249
f 249/249/249 252/252/252 251/251/251
f 255/255/255 254/254/254 253/253/253
f 253/253/253 256/256/256 255/255/255
f 259/259/259 258/258/258 257/257/257
f 257/257/257 260/260/260 259/259/259
f 263/263/263 262/262/262 261/261/261
f 261/261/261 264/264/264 263/263/263
f 267/267/267 266/266/266 265/265/265
f 265/265/265 268/268/268 267/267/267
f 271/271/271 270/270/270 269/269/269
f 269/269/269 272/272/272 271/271/271
f 275/275/275 274/274/274 273/273/273
f 273/273/273 276/276/276 275/275/275
f 279/279/279 278/278/278 277/277/277
f 277/277/277 280/280/280 279/279/279
f 283/283/283 282/282/282 281/281/281
f 281/281/281 284/284/284 283/283/283
f 287/287/287 286/286/286 285/285/285
f 285/285/285 288/288/288 287/287/287
f 291/291/291 290/290/290 289/289/289
f 289/289/289 292/292/292 291/291/291
f 295/295/295 294/294/294 293/293/293
f 293/293/293 296/296/296 295/295/295
f 299/299/299 298/298/298 297/297/297
f 297/297/297 300/300/300 299/299/299
f 303/303/303 302/302/302 301/301/301
f 301/301/301 304/304/304 303/303/303
f 307/307/307 306/306/306 305/305/305
f 305/305/305 308/308/308 307/307/307
f 311/311/311 310/310/310 309/309/309
f 309/309/309 312/312/312 311/311/311
f 315/315/315 314/314/314 313/313/313
f 313/313/313 316/316/316 315/315/315
f 319/319/319 318/318/318 317/317/317
f 317/317/317 320/320/320 319/319/319
f 323/323/323 322/322/322 321/321/321
f 321/321/321 324/324/324 323/323/323
f 327/327/327 326/326/326 325/325/325
f 325/325/325 328/328/328 327/327/327
f 331/331/331 330/330/330 329/329/329
f 329/329/329 332/332/332 331/331/331
