g biaoqiang_g-mesh
v -128 220 0
v -128 700 0
v -448 700 0
v -448 220 0
v -448 252 0
v -448 476 0
v -608 476 0
v -608 252 0
v -192 700 0
v -192 892 0
v -352 892 0
v -352 700 0
v -448 572 0
v -448 700 0
v -608 700 0
v -608 572 0
v -224 156 0
v -224 220 0
v -416 220 0
v -416 156 0
v -320 892 0
v -320 1020 0
v -416 1020 0
v -416 892 0
v -416 156 0
v -416 220 0
v -576 220 0
v -576 156 0
v -96 700 0
v -96 796 0
v -192 796 0
v -192 700 0
v -448 92 0
v -448 156 0
v -576 156 0
v -576 92 0
v -32 636 0
v -32 700 0
v -128 700 0
v -128 636 0
v -64 284 0
v -64 380 0
v -128 380 0
v -128 284 0
v -288 92 0
v -288 156 0
v -384 156 0
v -384 92 0
v -256 892 0
v -256 956 0
v -320 956 0
v -320 892 0
v -64 220 0
v -64 284 0
v -128 284 0
v -128 220 0
v -160 796 0
v -160 860 0
v -192 860 0
v -192 796 0
v -352 828 0
v -352 892 0
v -384 892 0
v -384 828 0
v -608 284 0
v -608 348 0
v -630 348 0
v -630 284 0
v -64 700 0
v -64 764 0
v -96 764 0
v -96 700 0
v -224 0 0
v -224 60 0
v -256 60 0
v -256 0 0
v -288 28 0
v -288 92 0
v -320 92 0
v -320 28 0
v -512 220 0
v -512 252 0
v -576 252 0
v -576 220 0
v -256 0 0
v -256 60 0
v -288 60 0
v -288 0 0
v -0 604 0
v -0 668 0
v -32 668 0
v -32 604 0
v -96 380 0
v -96 444 0
v -128 444 0
v -128 380 0
v -256 60 0
v -256 124 0
v -288 124 0
v -288 60 0
v -448 540 0
v -448 572 0
v -512 572 0
v -512 540 0
v -96 444 0
v -96 508 0
v -128 508 0
v -128 444 0
v -448 508 0
v -448 540 0
v -480 540 0
v -480 508 0
v -96 604 0
v -96 636 0
v -128 636 0
v -128 604 0
v -160 188 0
v -160 220 0
v -192 220 0
v -192 188 0
v -320 60 0
v -320 92 0
v -352 92 0
v -352 60 0
v -416 124 0
v -416 156 0
v -448 156 0
v -448 124 0
v -32 604 0
v -32 636 0
v -64 636 0
v -64 604 0
v -0 572 0
v -0 604 0
v -32 604 0
v -32 572 0
v -608 252 0
v -608 284 0
v -630 284 0
v -630 252 0
v -512 540 0
v -512 572 0
v -544 572 0
v -544 540 0
v -128 796 0
v -128 828 0
v -160 828 0
v -160 796 0
v -288 956 0
v -288 988 0
v -320 988 0
v -320 956 0
vt 0.0009765625 0.00207471848
vt 0.0009765625 0.997925282
vt 0.313476562 0.997925282
vt 0.313476562 0.00207471848
vt 0.315429688 0.00207471848
vt 0.315429688 0.466804981
vt 0.471679688 0.466804981
vt 0.471679688 0.00207471848
vt 0.473632812 0.00207471848
vt 0.473632812 0.400414944
vt 0.629882812 0.400414944
vt 0.629882812 0.00207471848
vt 0.631835938 0.00207471848
vt 0.631835938 0.267634869
vt 0.788085938 0.267634869
vt 0.788085938 0.00207471848
vt 0.790039062 0.00207471848
vt 0.790039062 0.134854794
vt 0.977539062 0.134854794
vt 0.977539062 0.00207471848
vt 0.790039062 0.139004171
vt 0.790039062 0.404564321
vt 0.883789062 0.404564321
vt 0.883789062 0.139004171
vt 0.631835938 0.271784246
vt 0.631835938 0.404564321
vt 0.788085938 0.404564321
vt 0.788085938 0.271784246
vt 0.885742188 0.139004171
vt 0.885742188 0.338174284
vt 0.979492188 0.338174284
vt 0.979492188 0.139004171
vt 0.473632812 0.404564321
vt 0.473632812 0.537344396
vt 0.598632812 0.537344396
vt 0.598632812 0.404564321
vt 0.885742188 0.342323661
vt 0.885742188 0.475103736
vt 0.979492188 0.475103736
vt 0.979492188 0.342323661
vt 0.631835938 0.408713698
vt 0.631835938 0.607883811
vt 0.694335938 0.607883811
vt 0.694335938 0.408713698
vt 0.696289062 0.408713698
vt 0.696289062 0.541493773
vt 0.790039062 0.541493773
vt 0.790039062 0.408713698
vt 0.791992188 0.408713698
vt 0.791992188 0.541493773
vt 0.854492188 0.541493773
vt 0.854492188 0.408713698
vt 0.315429688 0.470954359
vt 0.315429688 0.603734434
vt 0.377929688 0.603734434
vt 0.377929688 0.470954359
vt 0.379882812 0.470954359
vt 0.379882812 0.603734434
vt 0.411132812 0.603734434
vt 0.411132812 0.470954359
vt 0.413085938 0.470954359
vt 0.413085938 0.603734434
vt 0.444335938 0.603734434
vt 0.444335938 0.470954359
vt 0.600585938 0.404564321
vt 0.600585938 0.537344396
vt 0.623046875 0.537344396
vt 0.623046875 0.404564321
vt 0.885742188 0.479253113
vt 0.885742188 0.612033188
vt 0.916992188 0.612033188
vt 0.916992188 0.479253113
vt 0.918945312 0.479253113
vt 0.918945312 0.605809093
vt 0.950195312 0.605809093
vt 0.950195312 0.479253113
vt 0.952148438 0.479253113
vt 0.952148438 0.612033188
vt 0.983398438 0.612033188
vt 0.983398438 0.479253113
vt 0.473632812 0.541493773
vt 0.473632812 0.607883811
vt 0.536132812 0.607883811
vt 0.536132812 0.541493773
vt 0.538085938 0.541493773
vt 0.538085938 0.668049812
vt 0.569335938 0.668049812
vt 0.569335938 0.541493773
vt 0.571289062 0.541493773
vt 0.571289062 0.674273849
vt 0.602539062 0.674273849
vt 0.602539062 0.541493773
vt 0.696289062 0.545643151
vt 0.696289062 0.678423226
vt 0.727539062 0.678423226
vt 0.727539062 0.545643151
vt 0.729492188 0.545643151
vt 0.729492188 0.678423226
vt 0.760742188 0.678423226
vt 0.760742188 0.545643151
vt 0.762695312 0.545643151
vt 0.762695312 0.612033188
vt 0.825195312 0.612033188
vt 0.825195312 0.545643151
vt 0.827148438 0.545643151
vt 0.827148438 0.678423226
vt 0.858398438 0.678423226
vt 0.858398438 0.545643151
vt 0.315429688 0.607883811
vt 0.315429688 0.674273849
vt 0.346679688 0.674273849
vt 0.346679688 0.607883811
vt 0.348632812 0.607883811
vt 0.348632812 0.674273849
vt 0.379882812 0.674273849
vt 0.379882812 0.607883811
vt 0.381835938 0.607883811
vt 0.381835938 0.674273849
vt 0.413085938 0.674273849
vt 0.413085938 0.607883811
vt 0.415039062 0.607883811
vt 0.415039062 0.674273849
vt 0.446289062 0.674273849
vt 0.446289062 0.607883811
vt 0.918945312 0.609958529
vt 0.918945312 0.676348567
vt 0.950195312 0.676348567
vt 0.950195312 0.609958529
vt 0.473632812 0.612033188
vt 0.473632812 0.678423226
vt 0.504882812 0.678423226
vt 0.504882812 0.612033188
vt 0.631835938 0.612033188
vt 0.631835938 0.678423226
vt 0.663085938 0.678423226
vt 0.663085938 0.612033188
vt 0.860351562 0.408713698
vt 0.860351562 0.475103736
vt 0.8828125 0.475103736
vt 0.8828125 0.408713698
vt 0.762695312 0.616182566
vt 0.762695312 0.682572603
vt 0.793945312 0.682572603
vt 0.793945312 0.616182566
vt 0.885742188 0.616182566
vt 0.885742188 0.682572603
vt 0.916992188 0.682572603
vt 0.916992188 0.616182566
vt 0.952148438 0.616182566
vt 0.952148438 0.682572603
vt 0.983398438 0.682572603
vt 0.983398438 0.616182566
g biaoqiang_g-mesh_0
f 3/3/3 2/2/2 1/1/1
f 1/1/1 4/4/4 3/3/3
f 7/7/7 6/6/6 5/5/5
f 5/5/5 8/8/8 7/7/7
f 11/11/11 10/10/10 9/9/9
f 9/9/9 12/12/12 11/11/11
f 15/15/15 14/14/14 13/13/13
f 13/13/13 16/16/16 15/15/15
f 19/19/19 18/18/18 17/17/17
f 17/17/17 20/20/20 19/19/19
f 23/23/23 22/22/22 21/21/21
f 21/21/21 24/24/24 23/23/23
f 27/27/27 26/26/26 25/25/25
f 25/25/25 28/28/28 27/27/27
f 31/31/31 30/30/30 29/29/29
f 29/29/29 32/32/32 31/31/31
f 35/35/35 34/34/34 33/33/33
f 33/33/33 36/36/36 35/35/35
f 39/39/39 38/38/38 37/37/37
f 37/37/37 40/40/40 39/39/39
f 43/43/43 42/42/42 41/41/41
f 41/41/41 44/44/44 43/43/43
f 47/47/47 46/46/46 45/45/45
f 45/45/45 48/48/48 47/47/47
f 51/51/51 50/50/50 49/49/49
f 49/49/49 52/52/52 51/51/51
f 55/55/55 54/54/54 53/53/53
f 53/53/53 56/56/56 55/55/55
f 59/59/59 58/58/58 57/57/57
f 57/57/57 60/60/60 59/59/59
f 63/63/63 62/62/62 61/61/61
f 61/61/61 64/64/64 63/63/63
f 67/67/67 66/66/66 65/65/65
f 65/65/65 68/68/68 67/67/67
f 71/71/71 70/70/70 69/69/69
f 69/69/69 72/72/72 71/71/71
f 75/75/75 74/74/74 73/73/73
f 73/73/73 76/76/76 75/75/75
f 79/79/79 78/78/78 77/77/77
f 77/77/77 80/80/80 79/79/79
f 83/83/83 82/82/82 81/81/81
f 81/81/81 84/84/84 83/83/83
f 87/87/87 86/86/86 85/85/85
f 85/85/85 88/88/88 87/87/87
f 91/91/91 90/90/90 89/89/89
f 89/89/89 92/92/92 91/91/91
f 95/95/95 94/94/94 93/93/93
f 93/93/93 96/96/96 95/95/95
f 99/99/99 98/98/98 97/97/97
f 97/97/97 100/100/100 99/99/99
f 103/103/103 102/102/102 101/101/101
f 101/101/101 104/104/104 103/103/103
f 107/107/107 106/106/106 105/105/105
f 105/105/105 108/108/108 107/107/107
f 111/111/111 110/110/110 109/109/109
f 109/109/109 112/112/112 111/111/111
f 115/115/115 114/114/114 113/113/113
f 113/113/113 116/116/116 115/115/115
f 119/119/119 118/118/118 117/117/117
f 117/117/117 120/120/120 119/119/119
f 123/123/123 122/122/122 121/121/121
f 121/121/121 124/124/124 123/123/123
f 127/127/127 126/126/126 125/125/125
f 125/125/125 128/128/128 127/127/127
f 131/131/131 130/130/130 129/129/129
f 129/129/129 132/132/132 131/131/131
f 135/135/135 134/134/134 133/133/133
f 133/133/133 136/136/136 135/135/135
f 139/139/139 138/138/138 137/137/137
f 137/137/137 140/140/140 139/139/139
f 143/143/143 142/142/142 141/141/141
f 141/141/141 144/144/144 143/143/143
f 147/147/147 146/146/146 145/145/145
f 145/145/145 148/148/148 147/147/147
f 151/151/151 150/150/150 149/149/149
f 149/149/149 152/152/152 151/151/151
