g fushun-mesh
v -288 351 0
v -288 863 0
v -704 863 0
v -704 351 0
v -704 479 0
v -704 703 0
v -1018 703 0
v -1018 479 0
v -64 607 0
v -64 735 0
v -192 735 0
v -192 607 0
v -512 863 0
v -512 959 0
v -672 959 0
v -672 863 0
v -352 863 0
v -352 959 0
v -512 959 0
v -512 863 0
v -704 383 0
v -704 479 0
v -832 479 0
v -832 383 0
v -0 543 0
v -0 703 0
v -64 703 0
v -64 543 0
v -896 383 0
v -896 479 0
v -992 479 0
v -992 383 0
v -224 447 0
v -224 575 0
v -288 575 0
v -288 447 0
v -544 191 0
v -544 319 0
v -608 319 0
v -608 191 0
v -704 703 0
v -704 767 0
v -832 767 0
v -832 703 0
v -0 415 0
v -0 543 0
v -64 543 0
v -64 415 0
v -224 575 0
v -224 703 0
v -288 703 0
v -288 575 0
v -608 159 0
v -608 287 0
v -672 287 0
v -672 159 0
v -608 31 0
v -608 159 0
v -672 159 0
v -672 31 0
v -128 735 0
v -128 799 0
v -224 799 0
v -224 735 0
v -384 959 0
v -384 1023 0
v -480 1023 0
v -480 959 0
v -64 415 0
v -64 479 0
v -160 479 0
v -160 415 0
v -320 319 0
v -320 351 0
v -480 351 0
v -480 319 0
v -480 319 0
v -480 351 0
v -640 351 0
v -640 319 0
v -320 255 0
v -320 319 0
v -384 319 0
v -384 255 0
v -224 735 0
v -224 799 0
v -288 799 0
v -288 735 0
v -160 415 0
v -160 479 0
v -224 479 0
v -224 415 0
v -672 0 0
v -672 95 0
v -704 95 0
v -704 0 0
v -672 95 0
v -672 191 0
v -704 191 0
v -704 95 0
v -992 415 0
v -992 479 0
v -1018 479 0
v -1018 415 0
v -864 383 0
v -864 447 0
v -896 447 0
v -896 383 0
v -64 479 0
v -64 543 0
v -96 543 0
v -96 479 0
v -128 575 0
v -128 607 0
v -192 607 0
v -192 575 0
v -480 287 0
v -480 319 0
v -544 319 0
v -544 287 0
v -576 127 0
v -576 191 0
v -608 191 0
v -608 127 0
v -32 383 0
v -32 415 0
v -96 415 0
v -96 383 0
v -768 351 0
v -768 383 0
v -832 383 0
v -832 351 0
v -704 31 0
v -704 95 0
v -736 95 0
v -736 31 0
v -192 543 0
v -192 607 0
v -224 607 0
v -224 543 0
v -192 607 0
v -192 671 0
v -224 671 0
v -224 607 0
v -672 863 0
v -672 927 0
v -704 927 0
v -704 863 0
v -832 703 0
v -832 735 0
v -896 735 0
v -896 703 0
v -256 799 0
v -256 863 0
v -288 863 0
v -288 799 0
v -928 703 0
v -928 735 0
v -992 735 0
v -992 703 0
v -192 479 0
v -192 511 0
v -224 511 0
v -224 479 0
v -832 447 0
v -832 479 0
v -864 479 0
v -864 447 0
v -160 543 0
v -160 575 0
v -192 575 0
v -192 543 0
v -96 479 0
v -96 511 0
v -128 511 0
v -128 479 0
v -256 415 0
v -256 447 0
v -288 447 0
v -288 415 0
v -768 191 0
v -768 223 0
v -800 223 0
v -800 191 0
v -640 0 0
v -640 31 0
v -672 31 0
v -672 0 0
v -384 287 0
v -384 319 0
v -416 319 0
v -416 287 0
v -608 287 0
v -608 319 0
v -640 319 0
v -640 287 0
v -256 703 0
v -256 735 0
v -288 735 0
v -288 703 0
v -192 927 0
v -192 959 0
v -224 959 0
v -224 927 0
v -320 863 0
v -320 895 0
v -352 895 0
v -352 863 0
v -704 0 0
v -704 31 0
v -736 31 0
v -736 0 0
v -480 959 0
v -480 991 0
v -512 991 0
v -512 959 0
v -224 799 0
v -224 831 0
v -256 831 0
v -256 799 0
v -0 703 0
v -0 735 0
v -32 735 0
v -32 703 0
v -192 703 0
v -192 735 0
v -224 735 0
v -224 703 0
v -704 767 0
v -704 799 0
v -736 799 0
v -736 767 0
v -96 735 0
v -96 767 0
v -128 767 0
v -128 735 0
vt 0.0009765625 0.00162339211
vt 0.0009765625 0.832792222
vt 0.407226562 0.832792222
vt 0.407226562 0.00162339211
vt 0.409179688 0.00162339211
vt 0.409179688 0.365259767
vt 0.716796875 0.365259767
vt 0.716796875 0.00162339211
vt 0.71875 0.00162339211
vt 0.71875 0.209415555
vt 0.84375 0.209415555
vt 0.84375 0.00162339211
vt 0.71875 0.212662339
vt 0.71875 0.368506491
vt 0.875 0.368506491
vt 0.875 0.212662339
vt 0.409179688 0.368506491
vt 0.409179688 0.524350643
vt 0.565429688 0.524350643
vt 0.565429688 0.368506491
vt 0.567382812 0.368506491
vt 0.567382812 0.524350643
vt 0.692382812 0.524350643
vt 0.692382812 0.368506491
vt 0.876953125 0.00162339211
vt 0.876953125 0.261363626
vt 0.939453125 0.261363626
vt 0.939453125 0.00162339211
vt 0.876953125 0.26461041
vt 0.876953125 0.420454562
vt 0.970703125 0.420454562
vt 0.970703125 0.26461041
vt 0.71875 0.371753275
vt 0.71875 0.579545498
vt 0.78125 0.579545498
vt 0.78125 0.371753275
vt 0.783203125 0.371753275
vt 0.783203125 0.579545498
vt 0.845703125 0.579545498
vt 0.845703125 0.371753275
vt 0.409179688 0.527597427
vt 0.409179688 0.631493509
vt 0.534179688 0.631493509
vt 0.534179688 0.527597427
vt 0.876953125 0.423701286
vt 0.876953125 0.631493509
vt 0.939453125 0.631493509
vt 0.939453125 0.423701286
vt 0.536132812 0.527597427
vt 0.536132812 0.73538959
vt 0.598632812 0.73538959
vt 0.598632812 0.527597427
vt 0.600585938 0.527597427
vt 0.600585938 0.73538959
vt 0.663085938 0.73538959
vt 0.663085938 0.527597427
vt 0.71875 0.582792222
vt 0.71875 0.790584445
vt 0.78125 0.790584445
vt 0.78125 0.582792222
vt 0.409179688 0.634740233
vt 0.409179688 0.738636374
vt 0.502929688 0.738636374
vt 0.502929688 0.634740233
vt 0.876953125 0.634740233
vt 0.876953125 0.738636374
vt 0.970703125 0.738636374
vt 0.970703125 0.634740233
vt 0.536132812 0.738636374
vt 0.536132812 0.842532456
vt 0.629882812 0.842532456
vt 0.629882812 0.738636374
vt 0.71875 0.79383117
vt 0.71875 0.84577924
vt 0.875 0.84577924
vt 0.875 0.79383117
vt 0.0009765625 0.836038947
vt 0.0009765625 0.887987018
vt 0.157226562 0.887987018
vt 0.157226562 0.836038947
vt 0.631835938 0.738636374
vt 0.631835938 0.842532456
vt 0.694335938 0.842532456
vt 0.694335938 0.738636374
vt 0.409179688 0.741883159
vt 0.409179688 0.84577924
vt 0.471679688 0.84577924
vt 0.471679688 0.741883159
vt 0.876953125 0.741883159
vt 0.876953125 0.84577924
vt 0.939453125 0.84577924
vt 0.939453125 0.741883159
vt 0.473632812 0.741883159
vt 0.473632812 0.897727251
vt 0.504882812 0.897727251
vt 0.504882812 0.741883159
vt 0.94140625 0.741883159
vt 0.94140625 0.897727251
vt 0.97265625 0.897727251
vt 0.97265625 0.741883159
vt 0.506835938 0.634740233
vt 0.506835938 0.738636374
vt 0.533203125 0.738636374
vt 0.533203125 0.634740233
vt 0.159179688 0.836038947
vt 0.159179688 0.939935088
vt 0.190429688 0.939935088
vt 0.190429688 0.836038947
vt 0.192382812 0.836038947
vt 0.192382812 0.939935088
vt 0.223632812 0.939935088
vt 0.223632812 0.836038947
vt 0.225585938 0.836038947
vt 0.225585938 0.887987018
vt 0.288085938 0.887987018
vt 0.288085938 0.836038947
vt 0.290039062 0.836038947
vt 0.290039062 0.887987018
vt 0.352539062 0.887987018
vt 0.352539062 0.836038947
vt 0.354492188 0.836038947
vt 0.354492188 0.939935088
vt 0.385742188 0.939935088
vt 0.385742188 0.836038947
vt 0.536132812 0.84577924
vt 0.536132812 0.897727251
vt 0.598632812 0.897727251
vt 0.598632812 0.84577924
vt 0.600585938 0.84577924
vt 0.600585938 0.897727251
vt 0.663085938 0.897727251
vt 0.663085938 0.84577924
vt 0.665039062 0.84577924
vt 0.665039062 0.949675322
vt 0.696289062 0.949675322
vt 0.696289062 0.84577924
vt 0.409179688 0.849025965
vt 0.409179688 0.952922106
vt 0.440429688 0.952922106
vt 0.440429688 0.849025965
vt 0.71875 0.849025965
vt 0.71875 0.952922106
vt 0.75 0.952922106
vt 0.75 0.849025965
vt 0.751953125 0.849025965
vt 0.751953125 0.952922106
vt 0.783203125 0.952922106
vt 0.783203125 0.849025965
vt 0.78515625 0.849025965
vt 0.78515625 0.900974035
vt 0.84765625 0.900974035
vt 0.84765625 0.849025965
vt 0.849609375 0.849025965
vt 0.849609375 0.952922106
vt 0.880859375 0.952922106
vt 0.880859375 0.849025965
vt 0.0009765625 0.891233742
vt 0.0009765625 0.943181813
vt 0.0634765625 0.943181813
vt 0.0634765625 0.891233742
vt 0.8828125 0.849025965
vt 0.8828125 0.900974035
vt 0.9140625 0.900974035
vt 0.9140625 0.849025965
vt 0.0654296875 0.891233742
vt 0.0654296875 0.943181813
vt 0.0966796875 0.943181813
vt 0.0966796875 0.891233742
vt 0.0986328125 0.891233742
vt 0.0986328125 0.943181813
vt 0.129882812 0.943181813
vt 0.129882812 0.891233742
vt 0.225585938 0.891233742
vt 0.225585938 0.943181813
vt 0.256835938 0.943181813
vt 0.256835938 0.891233742
vt 0.258789062 0.891233742
vt 0.258789062 0.943181813
vt 0.290039062 0.943181813
vt 0.290039062 0.891233742
vt 0.291992188 0.891233742
vt 0.291992188 0.943181813
vt 0.323242188 0.943181813
vt 0.323242188 0.891233742
vt 0.473632812 0.900974035
vt 0.473632812 0.952922106
vt 0.504882812 0.952922106
vt 0.504882812 0.900974035
vt 0.536132812 0.900974035
vt 0.536132812 0.952922106
vt 0.567382812 0.952922106
vt 0.567382812 0.900974035
vt 0.569335938 0.900974035
vt 0.569335938 0.952922106
vt 0.600585938 0.952922106
vt 0.600585938 0.900974035
vt 0.602539062 0.900974035
vt 0.602539062 0.952922106
vt 0.633789062 0.952922106
vt 0.633789062 0.900974035
vt 0.94140625 0.900974035
vt 0.94140625 0.952922106
vt 0.97265625 0.952922106
vt 0.97265625 0.900974035
vt 0.78515625 0.90422076
vt 0.78515625 0.95616883
vt 0.81640625 0.95616883
vt 0.81640625 0.90422076
vt 0.8828125 0.90422076
vt 0.8828125 0.95616883
vt 0.9140625 0.95616883
vt 0.9140625 0.90422076
vt 0.159179688 0.943181813
vt 0.159179688 0.995129883
vt 0.190429688 0.995129883
vt 0.190429688 0.943181813
vt 0.192382812 0.943181813
vt 0.192382812 0.995129883
vt 0.223632812 0.995129883
vt 0.223632812 0.943181813
vt 0.354492188 0.943181813
vt 0.354492188 0.995129883
vt 0.385742188 0.995129883
vt 0.385742188 0.943181813
vt 0.0009765625 0.946428597
vt 0.0009765625 0.998376608
vt 0.0322265625 0.998376608
vt 0.0322265625 0.946428597
vt 0.0341796875 0.946428597
vt 0.0341796875 0.998376608
vt 0.0654296875 0.998376608
vt 0.0654296875 0.946428597
vt 0.0673828125 0.946428597
vt 0.0673828125 0.998376608
vt 0.0986328125 0.998376608
vt 0.0986328125 0.946428597
g fushun-mesh_0
f 3/3/3 2/2/2 1/1/1
f 1/1/1 4/4/4 3/3/3
f 7/7/7 6/6/6 5/5/5
f 5/5/5 8/8/8 7/7/7
f 11/11/11 10/10/10 9/9/9
f 9/9/9 12/12/12 11/11/11
f 15/15/15 14/14/14 13/13/13
f 13/13/13 16/16/16 15/15/15
f 19/19/19 18/18/18 17/17/17
f 17/17/17 20/20/20 19/19/19
f 23/23/23 22/22/22 21/21/21
f 21/21/21 24/24/24 23/23/23
f 27/27/27 26/26/26 25/25/25
f 25/25/25 28/28/28 27/27/27
f 31/31/31 30/30/30 29/29/29
f 29/29/29 32/32/32 31/31/31
f 35/35/35 34/34/34 33/33/33
f 33/33/33 36/36/36 35/35/35
f 39/39/39 38/38/38 37/37/37
f 37/37/37 40/40/40 39/39/39
f 43/43/43 42/42/42 41/41/41
f 41/41/41 44/44/44 43/43/43
f 47/47/47 46/46/46 45/45/45
f 45/45/45 48/48/48 47/47/47
f 51/51/51 50/50/50 49/49/49
f 49/49/49 52/52/52 51/51/51
f 55/55/55 54/54/54 53/53/53
f 53/53/53 56/56/56 55/55/55
f 59/59/59 58/58/58 57/57/57
f 57/57/57 60/60/60 59/59/59
f 63/63/63 62/62/62 61/61/61
f 61/61/61 64/64/64 63/63/63
f 67/67/67 66/66/66 65/65/65
f 65/65/65 68/68/68 67/67/67
f 71/71/71 70/70/70 69/69/69
f 69/69/69 72/72/72 71/71/71
f 75/75/75 74/74/74 73/73/73
f 73/73/73 76/76/76 75/75/75
f 79/79/79 78/78/78 77/77/77
f 77/77/77 80/80/80 79/79/79
f 83/83/83 82/82/82 81/81/81
f 81/81/81 84/84/84 83/83/83
f 87/87/87 86/86/86 85/85/85
f 85/85/85 88/88/88 87/87/87
f 91/91/91 90/90/90 89/89/89
f 89/89/89 92/92/92 91/91/91
f 95/95/95 94/94/94 93/93/93
f 93/93/93 96/96/96 95/95/95
f 99/99/99 98/98/98 97/97/97
f 97/97/97 100/100/100 99/99/99
f 103/103/103 102/102/102 101/101/101
f 101/101/101 104/104/104 103/103/103
f 107/107/107 106/106/106 105/105/105
f 105/105/105 108/108/108 107/107/107
f 111/111/111 110/110/110 109/109/109
f 109/109/109 112/112/112 111/111/111
f 115/115/115 114/114/114 113/113/113
f 113/113/113 116/116/116 115/115/115
f 119/119/119 118/118/118 117/117/117
f 117/117/117 120/120/120 119/119/119
f 123/123/123 122/122/122 121/121/121
f 121/121/121 124/124/124 123/123/123
f 127/127/127 126/126/126 125/125/125
f 125/125/125 128/128/128 127/127/127
f 131/131/131 130/130/130 129/129/129
f 129/129/129 132/132/132 131/131/131
f 135/135/135 134/134/134 133/133/133
f 133/133/133 136/136/136 135/135/135
f 139/139/139 138/138/138 137/137/137
f 137/137/137 140/140/140 139/139/139
f 143/143/143 142/142/142 141/141/141
f 141/141/141 144/144/144 143/143/143
f 147/147/147 146/146/146 145/145/145
f 145/145/145 148/148/148 147/147/147
f 151/151/151 150/150/150 149/149/149
f 149/149/149 152/152/152 151/151/151
f 155/155/155 154/154/154 153/153/153
f 153/153/153 156/156/156 155/155/155
f 159/159/159 158/158/158 157/157/157
f 157/157/157 160/160/160 159/159/159
f 163/163/163 162/162/162 161/161/161
f 161/161/161 164/164/164 163/163/163
f 167/167/167 166/166/166 165/165/165
f 165/165/165 168/168/168 167/167/167
f 171/171/171 170/170/170 169/169/169
f 169/169/169 172/172/172 171/171/171
f 175/175/175 174/174/174 173/173/173
f 173/173/173 176/176/176 175/175/175
f 179/179/179 178/178/178 177/177/177
f 177/177/177 180/180/180 179/179/179
f 183/183/183 182/182/182 181/181/181
f 181/181/181 184/184/184 183/183/183
f 187/187/187 186/186/186 185/185/185
f 185/185/185 188/188/188 187/187/187
f 191/191/191 190/190/190 189/189/189
f 189/189/189 192/192/192 191/191/191
f 195/195/195 194/194/194 193/193/193
f 193/193/193 196/196/196 195/195/195
f 199/199/199 198/198/198 197/197/197
f 197/197/197 200/200/200 199/199/199
f 203/203/203 202/202/202 201/201/201
f 201/201/201 204/204/204 203/203/203
f 207/207/207 206/206/206 205/205/205
f 205/205/205 208/208/208 207/207/207
f 211/211/211 210/210/210 209/209/209
f 209/209/209 212/212/212 211/211/211
f 215/215/215 214/214/214 213/213/213
f 213/213/213 216/216/216 215/215/215
f 219/219/219 218/218/218 217/217/217
f 217/217/217 220/220/220 219/219/219
f 223/223/223 222/222/222 221/221/221
f 221/221/221 224/224/224 223/223/223
f 227/227/227 226/226/226 225/225/225
f 225/225/225 228/228/228 227/227/227
f 231/231/231 230/230/230 229/229/229
f 229/229/229 232/232/232 231/231/231
f 235/235/235 234/234/234 233/233/233
f 233/233/233 236/236/236 235/235/235
