g tengbo-mesh
v -1024 151 0
v -1024 663 0
v -1568 663 0
v -1568 151 0
v -480 151 0
v -480 663 0
v -1024 663 0
v -1024 151 0
v -1056 887 0
v -1056 1111 0
v -1568 1111 0
v -1568 887 0
v -544 887 0
v -544 1111 0
v -1056 1111 0
v -1056 887 0
v -896 1111 0
v -896 1495 0
v -1184 1495 0
v -1184 1111 0
v -608 1111 0
v -608 1495 0
v -896 1495 0
v -896 1111 0
v -448 663 0
v -448 887 0
v -864 887 0
v -864 663 0
v -1184 663 0
v -1184 887 0
v -1568 887 0
v -1568 663 0
v -1568 311 0
v -1568 663 0
v -1760 663 0
v -1760 311 0
v -1760 471 0
v -1760 759 0
v -1984 759 0
v -1984 471 0
v -1472 1143 0
v -1472 1303 0
v -1696 1303 0
v -1696 1143 0
v -1184 1335 0
v -1184 1559 0
v -1312 1559 0
v -1312 1335 0
v -288 247 0
v -288 439 0
v -416 439 0
v -416 247 0
v -1184 1143 0
v -1184 1335 0
v -1312 1335 0
v -1312 1143 0
v -1216 87 0
v -1216 151 0
v -1568 151 0
v -1568 87 0
v -864 87 0
v -864 151 0
v -1216 151 0
v -1216 87 0
v -1600 695 0
v -1600 919 0
v -1696 919 0
v -1696 695 0
v -384 439 0
v -384 663 0
v -480 663 0
v -480 439 0
v -1696 1079 0
v -1696 1399 0
v -1760 1399 0
v -1760 1079 0
v -1696 759 0
v -1696 1079 0
v -1760 1079 0
v -1760 759 0
v -448 887 0
v -448 1143 0
v -512 1143 0
v -512 887 0
v -448 1143 0
v -448 1399 0
v -512 1399 0
v -512 1143 0
v -864 663 0
v -864 759 0
v -1024 759 0
v -1024 663 0
v -352 919 0
v -352 1079 0
v -448 1079 0
v -448 919 0
v -256 1367 0
v -256 1463 0
v -416 1463 0
v -416 1367 0
v -1920 279 0
v -1920 407 0
v -2016 407 0
v -2016 279 0
v -288 663 0
v -288 759 0
v -416 759 0
v -416 663 0
v -512 1207 0
v -512 1335 0
v -608 1335 0
v -608 1207 0
v -160 567 0
v -160 759 0
v -224 759 0
v -224 567 0
v -352 791 0
v -352 919 0
v -448 919 0
v -448 791 0
v -160 407 0
v -160 567 0
v -224 567 0
v -224 407 0
v -896 823 0
v -896 887 0
v -1056 887 0
v -1056 823 0
v -1792 1431 0
v -1792 1527 0
v -1888 1527 0
v -1888 1431 0
v -288 1015 0
v -288 1143 0
v -352 1143 0
v -352 1015 0
v -32 1463 0
v -32 1527 0
v -160 1527 0
v -160 1463 0
v -1792 887 0
v -1792 1015 0
v -1856 1015 0
v -1856 887 0
v -1056 55 0
v -1056 87 0
v -1312 87 0
v -1312 55 0
v -800 55 0
v -800 87 0
v -1056 87 0
v -1056 55 0
v -1056 823 0
v -1056 887 0
v -1184 887 0
v -1184 823 0
v -1792 759 0
v -1792 887 0
v -1856 887 0
v -1856 759 0
v -1312 1431 0
v -1312 1559 0
v -1376 1559 0
v -1376 1431 0
v -1216 1111 0
v -1216 1143 0
v -1440 1143 0
v -1440 1111 0
v -160 1431 0
v -160 1495 0
v -256 1495 0
v -256 1431 0
v -1312 1335 0
v -1312 1431 0
v -1376 1431 0
v -1376 1335 0
v -1408 1143 0
v -1408 1239 0
v -1472 1239 0
v -1472 1143 0
v -1856 151 0
v -1856 215 0
v -1952 215 0
v -1952 151 0
v -288 0 0
v -288 55 0
v -384 55 0
v -384 0 0
v -1952 823 0
v -1952 919 0
v -2016 919 0
v -2016 823 0
v -320 567 0
v -320 663 0
v -384 663 0
v -384 567 0
v -576 87 0
v -576 151 0
v -672 151 0
v -672 87 0
v -416 1239 0
v -416 1431 0
v -448 1431 0
v -448 1239 0
v -224 439 0
v -224 535 0
v -288 535 0
v -288 439 0
v -1440 1111 0
v -1440 1143 0
v -1632 1143 0
v -1632 1111 0
v -224 343 0
v -224 439 0
v -288 439 0
v -288 343 0
v -416 279 0
v -416 375 0
v -480 375 0
v -480 279 0
v -192 791 0
v -192 855 0
v -288 855 0
v -288 791 0
v -416 183 0
v -416 279 0
v -480 279 0
v -480 183 0
v -416 1079 0
v -416 1239 0
v -448 1239 0
v -448 1079 0
v -1856 1239 0
v -1856 1303 0
v -1920 1303 0
v -1920 1239 0
v -1888 1335 0
v -1888 1399 0
v -1952 1399 0
v -1952 1335 0
v -352 1303 0
v -352 1367 0
v -416 1367 0
v -416 1303 0
v -224 1015 0
v -224 1079 0
v -288 1079 0
v -288 1015 0
v -1632 1303 0
v -1632 1367 0
v -1696 1367 0
v -1696 1303 0
v -224 567 0
v -224 631 0
v -288 631 0
v -288 567 0
v -1760 407 0
v -1760 471 0
v -1824 471 0
v -1824 407 0
v -256 87 0
v -256 151 0
v -320 151 0
v -320 87 0
v -1568 215 0
v -1568 279 0
v -1632 279 0
v -1632 215 0
v -864 759 0
v -864 823 0
v -928 823 0
v -928 759 0
v -1856 759 0
v -1856 823 0
v -1920 823 0
v -1920 759 0
v -672 87 0
v -672 151 0
v -736 151 0
v -736 87 0
v -1568 951 0
v -1568 1079 0
v -1600 1079 0
v -1600 951 0
v -1568 823 0
v -1568 951 0
v -1600 951 0
v -1600 823 0
v -1760 1335 0
v -1760 1463 0
v -1792 1463 0
v -1792 1335 0
v -288 791 0
v -288 855 0
v -352 855 0
v -352 791 0
v -672 1495 0
v -672 1527 0
v -768 1527 0
v -768 1495 0
v -256 1175 0
v -256 1271 0
v -288 1271 0
v -288 1175 0
v -1760 1239 0
v -1760 1335 0
v -1792 1335 0
v -1792 1239 0
v -512 951 0
v -512 1047 0
v -544 1047 0
v -544 951 0
v -1568 279 0
v -1568 311 0
v -1664 311 0
v -1664 279 0
v -992 791 0
v -992 823 0
v -1088 823 0
v -1088 791 0
v -1984 599 0
v -1984 695 0
v -2016 695 0
v -2016 599 0
v -1024 23 0
v -1024 55 0
v -1120 55 0
v -1120 23 0
v -1856 1527 0
v -1856 1591 0
v -1888 1591 0
v -1888 1527 0
v -192 1399 0
v -192 1431 0
v -256 1431 0
v -256 1399 0
v -256 887 0
v -256 951 0
v -288 951 0
v -288 887 0
v -1632 951 0
v -1632 1015 0
v -1664 1015 0
v -1664 951 0
v -960 1495 0
v -960 1527 0
v -1024 1527 0
v -1024 1495 0
v -1248 1559 0
v -1248 1591 0
v -1312 1591 0
v -1312 1559 0
v -352 215 0
v -352 247 0
v -416 247 0
v -416 215 0
v -1088 1495 0
v -1088 1527 0
v -1152 1527 0
v -1152 1495 0
v -1312 1143 0
v -1312 1175 0
v -1376 1175 0
v -1376 1143 0
v -576 1143 0
v -576 1207 0
v -608 1207 0
v -608 1143 0
v -1920 1303 0
v -1920 1335 0
v -1984 1335 0
v -1984 1303 0
v -1600 663 0
v -1600 695 0
v -1664 695 0
v -1664 663 0
v -352 503 0
v -352 567 0
v -384 567 0
v -384 503 0
v -416 727 0
v -416 791 0
v -448 791 0
v -448 727 0
v -1056 663 0
v -1056 727 0
v -1088 727 0
v -1088 663 0
v -448 375 0
v -448 439 0
v -480 439 0
v -480 375 0
v -1888 343 0
v -1888 407 0
v -1920 407 0
v -1920 343 0
v -128 471 0
v -128 535 0
v -160 535 0
v -160 471 0
v -1856 439 0
v -1856 471 0
v -1920 471 0
v -1920 439 0
v -1376 1335 0
v -1376 1399 0
v -1408 1399 0
v -1408 1335 0
v -288 1143 0
v -288 1207 0
v -320 1207 0
v -320 1143 0
v -1824 1367 0
v -1824 1431 0
v -1856 1431 0
v -1856 1367 0
v -512 1335 0
v -512 1399 0
v -544 1399 0
v -544 1335 0
v -320 951 0
v -320 1015 0
v -352 1015 0
v -352 951 0
v -256 727 0
v -256 791 0
v -288 791 0
v -288 727 0
v -704 55 0
v -704 87 0
v -768 87 0
v -768 55 0
v -736 119 0
v -736 151 0
v -800 151 0
v -800 119 0
v -1792 1367 0
v -1792 1431 0
v -1824 1431 0
v -1824 1367 0
v -1792 1303 0
v -1792 1367 0
v -1824 1367 0
v -1824 1303 0
v -1376 1399 0
v -1376 1431 0
v -1440 1431 0
v -1440 1399 0
v -1440 1399 0
v -1440 1431 0
v -1504 1431 0
v -1504 1399 0
v -1760 823 0
v -1760 887 0
v -1792 887 0
v -1792 823 0
v -1760 759 0
v -1760 823 0
v -1792 823 0
v -1792 759 0
v -1760 1047 0
v -1760 1111 0
v -1792 1111 0
v -1792 1047 0
v -1760 983 0
v -1760 1047 0
v -1792 1047 0
v -1792 983 0
v -1472 1431 0
v -1472 1463 0
v -1536 1463 0
v -1536 1431 0
v -512 887 0
v -512 951 0
v -544 951 0
v -544 887 0
v -1088 791 0
v -1088 823 0
v -1152 823 0
v -1152 791 0
v -768 1495 0
v -768 1527 0
v -832 1527 0
v -832 1495 0
v -256 1111 0
v -256 1175 0
v -288 1175 0
v -288 1111 0
v -1120 23 0
v -1120 55 0
v -1184 55 0
v -1184 23 0
v -1408 1431 0
v -1408 1463 0
v -1472 1463 0
v -1472 1431 0
v -1984 535 0
v -1984 599 0
v -2016 599 0
v -2016 535 0
v -1664 279 0
v -1664 311 0
v -1728 311 0
v -1728 279 0
v -2016 823 0
v -2016 887 0
v -2047 887 0
v -2047 823 0
v -0 695 0
v -0 759 0
v -32 759 0
v -32 695 0
v -1568 663 0
v -1568 727 0
v -1600 727 0
v -1600 663 0
v -1568 727 0
v -1568 791 0
v -1600 791 0
v -1600 727 0
v -32 567 0
v -32 631 0
v -64 631 0
v -64 567 0
v -32 631 0
v -32 695 0
v -64 695 0
v -64 631 0
v -0 631 0
v -0 695 0
v -32 695 0
v -32 631 0
v -1120 727 0
v -1120 791 0
v -1152 791 0
v -1152 727 0
v -2016 759 0
v -2016 823 0
v -2047 823 0
v -2047 759 0
v -1120 663 0
v -1120 727 0
v -1152 727 0
v -1152 663 0
v -1152 759 0
v -1152 791 0
v -1184 791 0
v -1184 759 0
v -1088 759 0
v -1088 791 0
v -1120 791 0
v -1120 759 0
v -1728 663 0
v -1728 695 0
v -1760 695 0
v -1760 663 0
v -128 631 0
v -128 663 0
v -160 663 0
v -160 631 0
v -1920 759 0
v -1920 791 0
v -1952 791 0
v -1952 759 0
v -416 663 0
v -416 695 0
v -448 695 0
v -448 663 0
v -160 791 0
v -160 823 0
v -192 823 0
v -192 791 0
v -864 823 0
v -864 855 0
v -896 855 0
v -896 823 0
v -320 855 0
v -320 887 0
v -352 887 0
v -352 855 0
v -1920 887 0
v -1920 919 0
v -1952 919 0
v -1952 887 0
v -1664 919 0
v -1664 951 0
v -1696 951 0
v -1696 919 0
v -992 759 0
v -992 791 0
v -1024 791 0
v -1024 759 0
v -288 759 0
v -288 791 0
v -320 791 0
v -320 759 0
v -64 599 0
v -64 631 0
v -96 631 0
v -96 599 0
v -1568 183 0
v -1568 215 0
v -1600 215 0
v -1600 183 0
v -256 151 0
v -256 183 0
v -288 183 0
v -288 151 0
v -832 119 0
v -832 151 0
v -864 151 0
v -864 119 0
v -1856 343 0
v -1856 375 0
v -1888 375 0
v -1888 343 0
v -256 311 0
v -256 343 0
v -288 343 0
v -288 311 0
v -1696 247 0
v -1696 279 0
v -1728 279 0
v -1728 247 0
v -1536 55 0
v -1536 87 0
v -1568 87 0
v -1568 55 0
v -352 439 0
v -352 471 0
v -384 471 0
v -384 439 0
v -320 503 0
v -320 535 0
v -352 535 0
v -352 503 0
v -224 535 0
v -224 567 0
v -256 567 0
v -256 535 0
v -1248 23 0
v -1248 55 0
v -1280 55 0
v -1280 23 0
v -1760 375 0
v -1760 407 0
v -1792 407 0
v -1792 375 0
v -192 375 0
v -192 407 0
v -224 407 0
v -224 375 0
v -736 1527 0
v -736 1559 0
v -768 1559 0
v -768 1527 0
v -1888 1559 0
v -1888 1591 0
v -1920 1591 0
v -1920 1559 0
v -256 855 0
v -256 887 0
v -288 887 0
v -288 855 0
v -256 1463 0
v -256 1495 0
v -288 1495 0
v -288 1463 0
v -0 1495 0
v -0 1527 0
v -32 1527 0
v -32 1495 0
v -1824 1527 0
v -1824 1559 0
v -1856 1559 0
v -1856 1527 0
v -1632 919 0
v -1632 951 0
v -1664 951 0
v -1664 919 0
v -1152 1495 0
v -1152 1527 0
v -1184 1527 0
v -1184 1495 0
v -1024 1495 0
v -1024 1527 0
v -1056 1527 0
v -1056 1495 0
v -1312 1559 0
v -1312 1591 0
v -1344 1591 0
v -1344 1559 0
v -1376 1143 0
v -1376 1175 0
v -1408 1175 0
v -1408 1143 0
v -576 1111 0
v -576 1143 0
v -608 1143 0
v -608 1111 0
v -1984 1303 0
v -1984 1335 0
v -2016 1335 0
v -2016 1303 0
v -128 1431 0
v -128 1463 0
v -160 1463 0
v -160 1431 0
v -1312 1175 0
v -1312 1207 0
v -1344 1207 0
v -1344 1175 0
v -544 1175 0
v -544 1207 0
v -576 1207 0
v -576 1175 0
v -1440 1239 0
v -1440 1271 0
v -1472 1271 0
v -1472 1239 0
v -1600 951 0
v -1600 983 0
v -1632 983 0
v -1632 951 0
v -1792 1015 0
v -1792 1047 0
v -1824 1047 0
v -1824 1015 0
v -1376 1175 0
v -1376 1207 0
v -1408 1207 0
v -1408 1175 0
v -1984 1271 0
v -1984 1303 0
v -2016 1303 0
v -2016 1271 0
v -544 1335 0
v -544 1367 0
v -576 1367 0
v -576 1335 0
v -320 1335 0
v -320 1367 0
v -352 1367 0
v -352 1335 0
v -1408 1367 0
v -1408 1399 0
v -1440 1399 0
v -1440 1367 0
v -1600 1303 0
v -1600 1335 0
v -1632 1335 0
v -1632 1303 0
v -1472 1303 0
v -1472 1335 0
v -1504 1335 0
v -1504 1303 0
v -1312 1303 0
v -1312 1335 0
v -1344 1335 0
v -1344 1303 0
vt 0.00048828125 0.000830590725
vt 0.00048828125 0.42607975
vt 0.266113281 0.42607975
vt 0.266113281 0.000830590725
vt 0.267089844 0.000830590725
vt 0.267089844 0.42607975
vt 0.532714844 0.42607975
vt 0.532714844 0.000830590725
vt 0.533691406 0.000830590725
vt 0.533691406 0.186877072
vt 0.783691406 0.186877072
vt 0.783691406 0.000830590725
vt 0.533691406 0.188538194
vt 0.533691406 0.374584734
vt 0.783691406 0.374584734
vt 0.783691406 0.188538194
vt 0.784667969 0.000830590725
vt 0.784667969 0.319767416
vt 0.925292969 0.319767416
vt 0.925292969 0.000830590725
vt 0.784667969 0.321428597
vt 0.784667969 0.640365481
vt 0.925292969 0.640365481
vt 0.925292969 0.321428597
vt 0.533691406 0.376245856
vt 0.533691406 0.562292337
vt 0.736816406 0.562292337
vt 0.736816406 0.376245856
vt 0.00048828125 0.427740872
vt 0.00048828125 0.613787413
vt 0.187988281 0.613787413
vt 0.187988281 0.427740872
vt 0.188964844 0.427740872
vt 0.188964844 0.720099688
vt 0.282714844 0.720099688
vt 0.282714844 0.427740872
vt 0.283691406 0.427740872
vt 0.283691406 0.66694355
vt 0.393066406 0.66694355
vt 0.393066406 0.427740872
vt 0.394042969 0.427740872
vt 0.394042969 0.560631216
vt 0.503417969 0.560631216
vt 0.503417969 0.427740872
vt 0.926269531 0.000830590725
vt 0.926269531 0.186877072
vt 0.988769531 0.186877072
vt 0.988769531 0.000830590725
vt 0.926269531 0.188538194
vt 0.926269531 0.348006666
vt 0.988769531 0.348006666
vt 0.988769531 0.188538194
vt 0.926269531 0.349667788
vt 0.926269531 0.5091362
vt 0.988769531 0.5091362
vt 0.988769531 0.349667788
vt 0.533691406 0.563953519
vt 0.533691406 0.617109656
vt 0.705566406 0.617109656
vt 0.705566406 0.563953519
vt 0.00048828125 0.615448475
vt 0.00048828125 0.668604612
vt 0.172363281 0.668604612
vt 0.172363281 0.615448475
vt 0.926269531 0.510797381
vt 0.926269531 0.696843863
vt 0.973144531 0.696843863
vt 0.973144531 0.510797381
vt 0.394042969 0.562292337
vt 0.394042969 0.748338878
vt 0.440917969 0.748338878
vt 0.440917969 0.562292337
vt 0.737792969 0.376245856
vt 0.737792969 0.642026544
vt 0.769042969 0.642026544
vt 0.769042969 0.376245856
vt 0.441894531 0.562292337
vt 0.441894531 0.828073084
vt 0.473144531 0.828073084
vt 0.473144531 0.562292337
vt 0.474121094 0.562292337
vt 0.474121094 0.774916947
vt 0.505371094 0.774916947
vt 0.505371094 0.562292337
vt 0.533691406 0.618770778
vt 0.533691406 0.831395328
vt 0.564941406 0.831395328
vt 0.564941406 0.618770778
vt 0.565917969 0.618770778
vt 0.565917969 0.698504984
vt 0.644042969 0.698504984
vt 0.644042969 0.618770778
vt 0.645019531 0.618770778
vt 0.645019531 0.751661122
vt 0.691894531 0.751661122
vt 0.691894531 0.618770778
vt 0.784667969 0.642026544
vt 0.784667969 0.721760809
vt 0.862792969 0.721760809
vt 0.862792969 0.642026544
vt 0.863769531 0.642026544
vt 0.863769531 0.748338878
vt 0.910644531 0.748338878
vt 0.910644531 0.642026544
vt 0.283691406 0.668604612
vt 0.283691406 0.748338878
vt 0.346191406 0.748338878
vt 0.346191406 0.668604612
vt 0.00048828125 0.670265794
vt 0.00048828125 0.776578069
vt 0.0473632812 0.776578069
vt 0.0473632812 0.670265794
vt 0.692871094 0.618770778
vt 0.692871094 0.778239191
vt 0.724121094 0.778239191
vt 0.724121094 0.618770778
vt 0.0483398438 0.670265794
vt 0.0483398438 0.776578069
vt 0.0952148438 0.776578069
vt 0.0952148438 0.670265794
vt 0.737792969 0.643687725
vt 0.737792969 0.776578069
vt 0.769042969 0.776578069
vt 0.769042969 0.643687725
vt 0.0961914062 0.670265794
vt 0.0961914062 0.723421931
vt 0.174316406 0.723421931
vt 0.174316406 0.670265794
vt 0.926269531 0.698504984
vt 0.926269531 0.778239191
vt 0.973144531 0.778239191
vt 0.973144531 0.698504984
vt 0.347167969 0.668604612
vt 0.347167969 0.774916947
vt 0.378417969 0.774916947
vt 0.378417969 0.668604612
vt 0.565917969 0.700166106
vt 0.565917969 0.753322244
vt 0.628417969 0.753322244
vt 0.628417969 0.700166106
vt 0.188964844 0.721760809
vt 0.188964844 0.828073084
vt 0.220214844 0.828073084
vt 0.220214844 0.721760809
vt 0.565917969 0.754983425
vt 0.565917969 0.781561494
vt 0.690917969 0.781561494
vt 0.690917969 0.754983425
vt 0.00048828125 0.778239191
vt 0.00048828125 0.804817259
vt 0.125488281 0.804817259
vt 0.125488281 0.778239191
vt 0.784667969 0.723421931
vt 0.784667969 0.776578069
vt 0.847167969 0.776578069
vt 0.847167969 0.723421931
vt 0.221191406 0.721760809
vt 0.221191406 0.828073084
vt 0.252441406 0.828073084
vt 0.252441406 0.721760809
vt 0.126464844 0.725083053
vt 0.126464844 0.831395328
vt 0.157714844 0.831395328
vt 0.157714844 0.725083053
vt 0.737792969 0.778239191
vt 0.737792969 0.804817259
vt 0.847167969 0.804817259
vt 0.847167969 0.778239191
vt 0.283691406 0.75
vt 0.283691406 0.803156137
vt 0.330566406 0.803156137
vt 0.330566406 0.75
vt 0.394042969 0.75
vt 0.394042969 0.829734206
vt 0.425292969 0.829734206
vt 0.425292969 0.75
vt 0.863769531 0.75
vt 0.863769531 0.829734206
vt 0.895019531 0.829734206
vt 0.895019531 0.75
vt 0.474121094 0.776578069
vt 0.474121094 0.829734206
vt 0.520996094 0.829734206
vt 0.520996094 0.776578069
vt 0.926269531 0.779900312
vt 0.926269531 0.826411963
vt 0.973144531 0.826411963
vt 0.973144531 0.779900312
vt 0.347167969 0.776578069
vt 0.347167969 0.856312275
vt 0.378417969 0.856312275
vt 0.378417969 0.776578069
vt 0.692871094 0.779900312
vt 0.692871094 0.859634519
vt 0.724121094 0.859634519
vt 0.724121094 0.779900312
vt 0.565917969 0.783222556
vt 0.565917969 0.836378753
vt 0.612792969 0.836378753
vt 0.612792969 0.783222556
vt 0.974121094 0.510797381
vt 0.974121094 0.670265794
vt 0.989746094 0.670265794
vt 0.989746094 0.510797381
vt 0.613769531 0.783222556
vt 0.613769531 0.862956822
vt 0.645019531 0.862956822
vt 0.645019531 0.783222556
vt 0.00048828125 0.806478381
vt 0.00048828125 0.83305645
vt 0.0942382812 0.83305645
vt 0.0942382812 0.806478381
vt 0.645996094 0.783222556
vt 0.645996094 0.862956822
vt 0.677246094 0.862956822
vt 0.677246094 0.783222556
vt 0.283691406 0.804817259
vt 0.283691406 0.884551525
vt 0.314941406 0.884551525
vt 0.314941406 0.804817259
vt 0.737792969 0.806478381
vt 0.737792969 0.859634519
vt 0.784667969 0.859634519
vt 0.784667969 0.806478381
vt 0.785644531 0.806478381
vt 0.785644531 0.886212647
vt 0.816894531 0.886212647
vt 0.816894531 0.806478381
vt 0.974121094 0.671926916
vt 0.974121094 0.804817259
vt 0.989746094 0.804817259
vt 0.989746094 0.671926916
vt 0.817871094 0.806478381
vt 0.817871094 0.859634519
vt 0.849121094 0.859634519
vt 0.849121094 0.806478381
vt 0.926269531 0.828073084
vt 0.926269531 0.881229222
vt 0.957519531 0.881229222
vt 0.957519531 0.828073084
vt 0.958496094 0.828073084
vt 0.958496094 0.881229222
vt 0.989746094 0.881229222
vt 0.989746094 0.828073084
vt 0.188964844 0.829734206
vt 0.188964844 0.882890344
vt 0.220214844 0.882890344
vt 0.220214844 0.829734206
vt 0.221191406 0.829734206
vt 0.221191406 0.882890344
vt 0.252441406 0.882890344
vt 0.252441406 0.829734206
vt 0.441894531 0.829734206
vt 0.441894531 0.882890344
vt 0.473144531 0.882890344
vt 0.473144531 0.829734206
vt 0.394042969 0.831395328
vt 0.394042969 0.884551525
vt 0.425292969 0.884551525
vt 0.425292969 0.831395328
vt 0.474121094 0.831395328
vt 0.474121094 0.884551525
vt 0.505371094 0.884551525
vt 0.505371094 0.831395328
vt 0.863769531 0.831395328
vt 0.863769531 0.884551525
vt 0.895019531 0.884551525
vt 0.895019531 0.831395328
vt 0.126464844 0.83305645
vt 0.126464844 0.886212647
vt 0.157714844 0.886212647
vt 0.157714844 0.83305645
vt 0.533691406 0.83305645
vt 0.533691406 0.886212647
vt 0.564941406 0.886212647
vt 0.564941406 0.83305645
vt 0.00048828125 0.834717631
vt 0.00048828125 0.887873769
vt 0.0317382812 0.887873769
vt 0.0317382812 0.834717631
vt 0.253417969 0.721760809
vt 0.253417969 0.828073084
vt 0.269042969 0.828073084
vt 0.269042969 0.721760809
vt 0.158691406 0.725083053
vt 0.158691406 0.831395328
vt 0.174316406 0.831395328
vt 0.174316406 0.725083053
vt 0.895996094 0.75
vt 0.895996094 0.856312275
vt 0.911621094 0.856312275
vt 0.911621094 0.75
vt 0.0327148438 0.834717631
vt 0.0327148438 0.887873769
vt 0.0639648438 0.887873769
vt 0.0639648438 0.834717631
vt 0.0649414062 0.834717631
vt 0.0649414062 0.8612957
vt 0.111816406 0.8612957
vt 0.111816406 0.834717631
vt 0.315917969 0.804817259
vt 0.315917969 0.884551525
vt 0.331542969 0.884551525
vt 0.331542969 0.804817259
vt 0.253417969 0.829734206
vt 0.253417969 0.909468412
vt 0.269042969 0.909468412
vt 0.269042969 0.829734206
vt 0.506347656 0.831395328
vt 0.506347656 0.911129594
vt 0.521972656 0.911129594
vt 0.521972656 0.831395328
vt 0.565917969 0.838039875
vt 0.565917969 0.864617944
vt 0.612792969 0.864617944
vt 0.612792969 0.838039875
vt 0.692871094 0.8612957
vt 0.692871094 0.887873769
vt 0.739746094 0.887873769
vt 0.739746094 0.8612957
vt 0.158691406 0.83305645
vt 0.158691406 0.912790716
vt 0.174316406 0.912790716
vt 0.174316406 0.83305645
vt 0.0649414062 0.862956822
vt 0.0649414062 0.889534891
vt 0.111816406 0.889534891
vt 0.111816406 0.862956822
vt 0.347167969 0.857973456
vt 0.347167969 0.911129594
vt 0.362792969 0.911129594
vt 0.362792969 0.857973456
vt 0.740722656 0.8612957
vt 0.740722656 0.887873769
vt 0.771972656 0.887873769
vt 0.771972656 0.8612957
vt 0.363769531 0.857973456
vt 0.363769531 0.911129594
vt 0.379394531 0.911129594
vt 0.379394531 0.857973456
vt 0.895996094 0.857973456
vt 0.895996094 0.911129594
vt 0.911621094 0.911129594
vt 0.911621094 0.857973456
vt 0.817871094 0.8612957
vt 0.817871094 0.887873769
vt 0.849121094 0.887873769
vt 0.849121094 0.8612957
vt 0.613769531 0.864617944
vt 0.613769531 0.891196012
vt 0.645019531 0.891196012
vt 0.645019531 0.864617944
vt 0.645996094 0.864617944
vt 0.645996094 0.891196012
vt 0.677246094 0.891196012
vt 0.677246094 0.864617944
vt 0.565917969 0.866279066
vt 0.565917969 0.892857134
vt 0.597167969 0.892857134
vt 0.597167969 0.866279066
vt 0.926269531 0.882890344
vt 0.926269531 0.909468412
vt 0.957519531 0.909468412
vt 0.957519531 0.882890344
vt 0.958496094 0.882890344
vt 0.958496094 0.936046481
vt 0.974121094 0.936046481
vt 0.974121094 0.882890344
vt 0.188964844 0.884551525
vt 0.188964844 0.911129594
vt 0.220214844 0.911129594
vt 0.220214844 0.884551525
vt 0.221191406 0.884551525
vt 0.221191406 0.911129594
vt 0.252441406 0.911129594
vt 0.252441406 0.884551525
vt 0.975097656 0.882890344
vt 0.975097656 0.936046481
vt 0.990722656 0.936046481
vt 0.990722656 0.882890344
vt 0.441894531 0.884551525
vt 0.441894531 0.937707663
vt 0.457519531 0.937707663
vt 0.457519531 0.884551525
vt 0.283691406 0.886212647
vt 0.283691406 0.939368784
vt 0.299316406 0.939368784
vt 0.299316406 0.886212647
vt 0.300292969 0.886212647
vt 0.300292969 0.939368784
vt 0.315917969 0.939368784
vt 0.315917969 0.886212647
vt 0.316894531 0.886212647
vt 0.316894531 0.939368784
vt 0.332519531 0.939368784
vt 0.332519531 0.886212647
vt 0.394042969 0.886212647
vt 0.394042969 0.939368784
vt 0.409667969 0.939368784
vt 0.409667969 0.886212647
vt 0.474121094 0.886212647
vt 0.474121094 0.912790716
vt 0.505371094 0.912790716
vt 0.505371094 0.886212647
vt 0.410644531 0.886212647
vt 0.410644531 0.939368784
vt 0.426269531 0.939368784
vt 0.426269531 0.886212647
vt 0.863769531 0.886212647
vt 0.863769531 0.939368784
vt 0.879394531 0.939368784
vt 0.879394531 0.886212647
vt 0.126464844 0.887873769
vt 0.126464844 0.941029906
vt 0.142089844 0.941029906
vt 0.142089844 0.887873769
vt 0.533691406 0.887873769
vt 0.533691406 0.941029906
vt 0.549316406 0.941029906
vt 0.549316406 0.887873769
vt 0.785644531 0.887873769
vt 0.785644531 0.941029906
vt 0.801269531 0.941029906
vt 0.801269531 0.887873769
vt 0.00048828125 0.889534891
vt 0.00048828125 0.942691028
vt 0.0161132812 0.942691028
vt 0.0161132812 0.889534891
vt 0.0170898438 0.889534891
vt 0.0170898438 0.916112959
vt 0.0483398438 0.916112959
vt 0.0483398438 0.889534891
vt 0.692871094 0.889534891
vt 0.692871094 0.916112959
vt 0.724121094 0.916112959
vt 0.724121094 0.889534891
vt 0.725097656 0.889534891
vt 0.725097656 0.942691028
vt 0.740722656 0.942691028
vt 0.740722656 0.889534891
vt 0.741699219 0.889534891
vt 0.741699219 0.942691028
vt 0.757324219 0.942691028
vt 0.757324219 0.889534891
vt 0.817871094 0.889534891
vt 0.817871094 0.916112959
vt 0.849121094 0.916112959
vt 0.849121094 0.889534891
vt 0.0649414062 0.891196012
vt 0.0649414062 0.917774081
vt 0.0961914062 0.917774081
vt 0.0961914062 0.891196012
vt 0.758300781 0.889534891
vt 0.758300781 0.942691028
vt 0.773925781 0.942691028
vt 0.773925781 0.889534891
vt 0.0971679688 0.891196012
vt 0.0971679688 0.94435215
vt 0.112792969 0.94435215
vt 0.112792969 0.891196012
vt 0.613769531 0.892857134
vt 0.613769531 0.946013272
vt 0.629394531 0.946013272
vt 0.629394531 0.892857134
vt 0.630371094 0.892857134
vt 0.630371094 0.946013272
vt 0.645996094 0.946013272
vt 0.645996094 0.892857134
vt 0.646972656 0.892857134
vt 0.646972656 0.919435203
vt 0.678222656 0.919435203
vt 0.678222656 0.892857134
vt 0.565917969 0.894518256
vt 0.565917969 0.947674394
vt 0.581542969 0.947674394
vt 0.581542969 0.894518256
vt 0.926269531 0.911129594
vt 0.926269531 0.937707663
vt 0.957519531 0.937707663
vt 0.957519531 0.911129594
vt 0.188964844 0.912790716
vt 0.188964844 0.939368784
vt 0.220214844 0.939368784
vt 0.220214844 0.912790716
vt 0.582519531 0.894518256
vt 0.582519531 0.947674394
vt 0.598144531 0.947674394
vt 0.598144531 0.894518256
vt 0.221191406 0.912790716
vt 0.221191406 0.939368784
vt 0.252441406 0.939368784
vt 0.252441406 0.912790716
vt 0.347167969 0.912790716
vt 0.347167969 0.939368784
vt 0.378417969 0.939368784
vt 0.378417969 0.912790716
vt 0.253417969 0.911129594
vt 0.253417969 0.964285731
vt 0.269042969 0.964285731
vt 0.269042969 0.911129594
vt 0.474121094 0.914451838
vt 0.474121094 0.941029906
vt 0.505371094 0.941029906
vt 0.505371094 0.914451838
vt 0.506347656 0.912790716
vt 0.506347656 0.965946853
vt 0.521972656 0.965946853
vt 0.521972656 0.912790716
vt 0.895996094 0.912790716
vt 0.895996094 0.965946853
vt 0.911621094 0.965946853
vt 0.911621094 0.912790716
vt 0.158691406 0.914451838
vt 0.158691406 0.967607975
vt 0.174316406 0.967607975
vt 0.174316406 0.914451838
vt 0.0170898438 0.917774081
vt 0.0170898438 0.970930219
vt 0.0327148438 0.970930219
vt 0.0327148438 0.917774081
vt 0.0336914062 0.917774081
vt 0.0336914062 0.970930219
vt 0.0493164062 0.970930219
vt 0.0493164062 0.917774081
vt 0.692871094 0.917774081
vt 0.692871094 0.970930219
vt 0.708496094 0.970930219
vt 0.708496094 0.917774081
vt 0.817871094 0.917774081
vt 0.817871094 0.970930219
vt 0.833496094 0.970930219
vt 0.833496094 0.917774081
vt 0.834472656 0.917774081
vt 0.834472656 0.970930219
vt 0.850097656 0.970930219
vt 0.850097656 0.917774081
vt 0.0649414062 0.919435203
vt 0.0649414062 0.972591341
vt 0.0805664062 0.972591341
vt 0.0805664062 0.919435203
vt 0.646972656 0.921096325
vt 0.646972656 0.974252462
vt 0.662597656 0.974252462
vt 0.662597656 0.921096325
vt 0.663574219 0.921096325
vt 0.663574219 0.947674394
vt 0.679199219 0.947674394
vt 0.679199219 0.921096325
vt 0.958496094 0.937707663
vt 0.958496094 0.964285731
vt 0.974121094 0.964285731
vt 0.974121094 0.937707663
vt 0.975097656 0.937707663
vt 0.975097656 0.964285731
vt 0.990722656 0.964285731
vt 0.990722656 0.937707663
vt 0.441894531 0.939368784
vt 0.441894531 0.965946853
vt 0.457519531 0.965946853
vt 0.457519531 0.939368784
vt 0.926269531 0.939368784
vt 0.926269531 0.965946853
vt 0.941894531 0.965946853
vt 0.941894531 0.939368784
vt 0.188964844 0.941029906
vt 0.188964844 0.967607975
vt 0.204589844 0.967607975
vt 0.204589844 0.941029906
vt 0.205566406 0.941029906
vt 0.205566406 0.967607975
vt 0.221191406 0.967607975
vt 0.221191406 0.941029906
vt 0.222167969 0.941029906
vt 0.222167969 0.967607975
vt 0.237792969 0.967607975
vt 0.237792969 0.941029906
vt 0.283691406 0.941029906
vt 0.283691406 0.967607975
vt 0.299316406 0.967607975
vt 0.299316406 0.941029906
vt 0.300292969 0.941029906
vt 0.300292969 0.967607975
vt 0.315917969 0.967607975
vt 0.315917969 0.941029906
vt 0.316894531 0.941029906
vt 0.316894531 0.967607975
vt 0.332519531 0.967607975
vt 0.332519531 0.941029906
vt 0.347167969 0.941029906
vt 0.347167969 0.967607975
vt 0.362792969 0.967607975
vt 0.362792969 0.941029906
vt 0.363769531 0.941029906
vt 0.363769531 0.967607975
vt 0.379394531 0.967607975
vt 0.379394531 0.941029906
vt 0.394042969 0.941029906
vt 0.394042969 0.967607975
vt 0.409667969 0.967607975
vt 0.409667969 0.941029906
vt 0.410644531 0.941029906
vt 0.410644531 0.967607975
vt 0.426269531 0.967607975
vt 0.426269531 0.941029906
vt 0.863769531 0.941029906
vt 0.863769531 0.967607975
vt 0.879394531 0.967607975
vt 0.879394531 0.941029906
vt 0.126464844 0.942691028
vt 0.126464844 0.969269097
vt 0.142089844 0.969269097
vt 0.142089844 0.942691028
vt 0.474121094 0.942691028
vt 0.474121094 0.969269097
vt 0.489746094 0.969269097
vt 0.489746094 0.942691028
vt 0.533691406 0.942691028
vt 0.533691406 0.969269097
vt 0.549316406 0.969269097
vt 0.549316406 0.942691028
vt 0.785644531 0.942691028
vt 0.785644531 0.969269097
vt 0.801269531 0.969269097
vt 0.801269531 0.942691028
vt 0.00048828125 0.94435215
vt 0.00048828125 0.970930219
vt 0.0161132812 0.970930219
vt 0.0161132812 0.94435215
vt 0.725097656 0.94435215
vt 0.725097656 0.970930219
vt 0.740722656 0.970930219
vt 0.740722656 0.94435215
vt 0.741699219 0.94435215
vt 0.741699219 0.970930219
vt 0.757324219 0.970930219
vt 0.757324219 0.94435215
vt 0.758300781 0.94435215
vt 0.758300781 0.970930219
vt 0.773925781 0.970930219
vt 0.773925781 0.94435215
vt 0.0971679688 0.946013272
vt 0.0971679688 0.972591341
vt 0.112792969 0.972591341
vt 0.112792969 0.946013272
vt 0.613769531 0.947674394
vt 0.613769531 0.974252462
vt 0.629394531 0.974252462
vt 0.629394531 0.947674394
vt 0.630371094 0.947674394
vt 0.630371094 0.974252462
vt 0.645996094 0.974252462
vt 0.645996094 0.947674394
vt 0.565917969 0.949335575
vt 0.565917969 0.975913644
vt 0.581542969 0.975913644
vt 0.581542969 0.949335575
vt 0.582519531 0.949335575
vt 0.582519531 0.975913644
vt 0.598144531 0.975913644
vt 0.598144531 0.949335575
vt 0.663574219 0.949335575
vt 0.663574219 0.975913644
vt 0.679199219 0.975913644
vt 0.679199219 0.949335575
vt 0.253417969 0.965946853
vt 0.253417969 0.992524922
vt 0.269042969 0.992524922
vt 0.269042969 0.965946853
vt 0.958496094 0.965946853
vt 0.958496094 0.992524922
vt 0.974121094 0.992524922
vt 0.974121094 0.965946853
vt 0.975097656 0.965946853
vt 0.975097656 0.992524922
vt 0.990722656 0.992524922
vt 0.990722656 0.965946853
vt 0.441894531 0.967607975
vt 0.441894531 0.994186044
vt 0.457519531 0.994186044
vt 0.457519531 0.967607975
vt 0.506347656 0.967607975
vt 0.506347656 0.994186044
vt 0.521972656 0.994186044
vt 0.521972656 0.967607975
vt 0.895996094 0.967607975
vt 0.895996094 0.994186044
vt 0.911621094 0.994186044
vt 0.911621094 0.967607975
vt 0.926269531 0.967607975
vt 0.926269531 0.994186044
vt 0.941894531 0.994186044
vt 0.941894531 0.967607975
vt 0.158691406 0.969269097
vt 0.158691406 0.995847166
vt 0.174316406 0.995847166
vt 0.174316406 0.969269097
vt 0.188964844 0.969269097
vt 0.188964844 0.995847166
vt 0.204589844 0.995847166
vt 0.204589844 0.969269097
vt 0.205566406 0.969269097
vt 0.205566406 0.995847166
vt 0.221191406 0.995847166
vt 0.221191406 0.969269097
vt 0.222167969 0.969269097
vt 0.222167969 0.995847166
vt 0.237792969 0.995847166
vt 0.237792969 0.969269097
vt 0.283691406 0.969269097
vt 0.283691406 0.995847166
vt 0.299316406 0.995847166
vt 0.299316406 0.969269097
vt 0.300292969 0.969269097
vt 0.300292969 0.995847166
vt 0.315917969 0.995847166
vt 0.315917969 0.969269097
vt 0.316894531 0.969269097
vt 0.316894531 0.995847166
vt 0.332519531 0.995847166
vt 0.332519531 0.969269097
vt 0.347167969 0.969269097
vt 0.347167969 0.995847166
vt 0.362792969 0.995847166
vt 0.362792969 0.969269097
vt 0.363769531 0.969269097
vt 0.363769531 0.995847166
vt 0.379394531 0.995847166
vt 0.379394531 0.969269097
vt 0.394042969 0.969269097
vt 0.394042969 0.995847166
vt 0.409667969 0.995847166
vt 0.409667969 0.969269097
vt 0.410644531 0.969269097
vt 0.410644531 0.995847166
vt 0.426269531 0.995847166
vt 0.426269531 0.969269097
vt 0.863769531 0.969269097
vt 0.863769531 0.995847166
vt 0.879394531 0.995847166
vt 0.879394531 0.969269097
vt 0.126464844 0.970930219
vt 0.126464844 0.997508287
vt 0.142089844 0.997508287
vt 0.142089844 0.970930219
vt 0.474121094 0.970930219
vt 0.474121094 0.997508287
vt 0.489746094 0.997508287
vt 0.489746094 0.970930219
vt 0.533691406 0.970930219
vt 0.533691406 0.997508287
vt 0.549316406 0.997508287
vt 0.549316406 0.970930219
vt 0.785644531 0.970930219
vt 0.785644531 0.997508287
vt 0.801269531 0.997508287
vt 0.801269531 0.970930219
vt 0.00048828125 0.972591341
vt 0.00048828125 0.999169409
vt 0.0161132812 0.999169409
vt 0.0161132812 0.972591341
g tengbo-mesh_0
f 3/3/3 2/2/2 1/1/1
f 1/1/1 4/4/4 3/3/3
f 7/7/7 6/6/6 5/5/5
f 5/5/5 8/8/8 7/7/7
f 11/11/11 10/10/10 9/9/9
f 9/9/9 12/12/12 11/11/11
f 15/15/15 14/14/14 13/13/13
f 13/13/13 16/16/16 15/15/15
f 19/19/19 18/18/18 17/17/17
f 17/17/17 20/20/20 19/19/19
f 23/23/23 22/22/22 21/21/21
f 21/21/21 24/24/24 23/23/23
f 27/27/27 26/26/26 25/25/25
f 25/25/25 28/28/28 27/27/27
f 31/31/31 30/30/30 29/29/29
f 29/29/29 32/32/32 31/31/31
f 35/35/35 34/34/34 33/33/33
f 33/33/33 36/36/36 35/35/35
f 39/39/39 38/38/38 37/37/37
f 37/37/37 40/40/40 39/39/39
f 43/43/43 42/42/42 41/41/41
f 41/41/41 44/44/44 43/43/43
f 47/47/47 46/46/46 45/45/45
f 45/45/45 48/48/48 47/47/47
f 51/51/51 50/50/50 49/49/49
f 49/49/49 52/52/52 51/51/51
f 55/55/55 54/54/54 53/53/53
f 53/53/53 56/56/56 55/55/55
f 59/59/59 58/58/58 57/57/57
f 57/57/57 60/60/60 59/59/59
f 63/63/63 62/62/62 61/61/61
f 61/61/61 64/64/64 63/63/63
f 67/67/67 66/66/66 65/65/65
f 65/65/65 68/68/68 67/67/67
f 71/71/71 70/70/70 69/69/69
f 69/69/69 72/72/72 71/71/71
f 75/75/75 74/74/74 73/73/73
f 73/73/73 76/76/76 75/75/75
f 79/79/79 78/78/78 77/77/77
f 77/77/77 80/80/80 79/79/79
f 83/83/83 82/82/82 81/81/81
f 81/81/81 84/84/84 83/83/83
f 87/87/87 86/86/86 85/85/85
f 85/85/85 88/88/88 87/87/87
f 91/91/91 90/90/90 89/89/89
f 89/89/89 92/92/92 91/91/91
f 95/95/95 94/94/94 93/93/93
f 93/93/93 96/96/96 95/95/95
f 99/99/99 98/98/98 97/97/97
f 97/97/97 100/100/100 99/99/99
f 103/103/103 102/102/102 101/101/101
f 101/101/101 104/104/104 103/103/103
f 107/107/107 106/106/106 105/105/105
f 105/105/105 108/108/108 107/107/107
f 111/111/111 110/110/110 109/109/109
f 109/109/109 112/112/112 111/111/111
f 115/115/115 114/114/114 113/113/113
f 113/113/113 116/116/116 115/115/115
f 119/119/119 118/118/118 117/117/117
f 117/117/117 120/120/120 119/119/119
f 123/123/123 122/122/122 121/121/121
f 121/121/121 124/124/124 123/123/123
f 127/127/127 126/126/126 125/125/125
f 125/125/125 128/128/128 127/127/127
f 131/131/131 130/130/130 129/129/129
f 129/129/129 132/132/132 131/131/131
f 135/135/135 134/134/134 133/133/133
f 133/133/133 136/136/136 135/135/135
f 139/139/139 138/138/138 137/137/137
f 137/137/137 140/140/140 139/139/139
f 143/143/143 142/142/142 141/141/141
f 141/141/141 144/144/144 143/143/143
f 147/147/147 146/146/146 145/145/145
f 145/145/145 148/148/148 147/147/147
f 151/151/151 150/150/150 149/149/149
f 149/149/149 152/152/152 151/151/151
f 155/155/155 154/154/154 153/153/153
f 153/153/153 156/156/156 155/155/155
f 159/159/159 158/158/158 157/157/157
f 157/157/157 160/160/160 159/159/159
f 163/163/163 162/162/162 161/161/161
f 161/161/161 164/164/164 163/163/163
f 167/167/167 166/166/166 165/165/165
f 165/165/165 168/168/168 167/167/167
f 171/171/171 170/170/170 169/169/169
f 169/169/169 172/172/172 171/171/171
f 175/175/175 174/174/174 173/173/173
f 173/173/173 176/176/176 175/175/175
f 179/179/179 178/178/178 177/177/177
f 177/177/177 180/180/180 179/179/179
f 183/183/183 182/182/182 181/181/181
f 181/181/181 184/184/184 183/183/183
f 187/187/187 186/186/186 185/185/185
f 185/185/185 188/188/188 187/187/187
f 191/191/191 190/190/190 189/189/189
f 189/189/189 192/192/192 191/191/191
f 195/195/195 194/194/194 193/193/193
f 193/193/193 196/196/196 195/195/195
f 199/199/199 198/198/198 197/197/197
f 197/197/197 200/200/200 199/199/199
f 203/203/203 202/202/202 201/201/201
f 201/201/201 204/204/204 203/203/203
f 207/207/207 206/206/206 205/205/205
f 205/205/205 208/208/208 207/207/207
f 211/211/211 210/210/210 209/209/209
f 209/209/209 212/212/212 211/211/211
f 215/215/215 214/214/214 213/213/213
f 213/213/213 216/216/216 215/215/215
f 219/219/219 218/218/218 217/217/217
f 217/217/217 220/220/220 219/219/219
f 223/223/223 222/222/222 221/221/221
f 221/221/221 224/224/224 223/223/223
f 227/227/227 226/226/226 225/225/225
f 225/225/225 228/228/228 227/227/227
f 231/231/231 230/230/230 229/229/229
f 229/229/229 232/232/232 231/231/231
f 235/235/235 234/234/234 233/233/233
f 233/233/233 236/236/236 235/235/235
f 239/239/239 238/238/238 237/237/237
f 237/237/237 240/240/240 239/239/239
f 243/243/243 242/242/242 241/241/241
f 241/241/241 244/244/244 243/243/243
f 247/247/247 246/246/246 245/245/245
f 245/245/245 248/248/248 247/247/247
f 251/251/251 250/250/250 249/249/249
f 249/249/249 252/252/252 251/251/251
f 255/255/255 254/254/254 253/253/253
f 253/253/253 256/256/256 255/255/255
f 259/259/259 258/258/258 257/257/257
f 257/257/257 260/260/260 259/259/259
f 263/263/263 262/262/262 261/261/261
f 261/261/261 264/264/264 263/263/263
f 267/267/267 266/266/266 265/265/265
f 265/265/265 268/268/268 267/267/267
f 271/271/271 270/270/270 269/269/269
f 269/269/269 272/272/272 271/271/271
f 275/275/275 274/274/274 273/273/273
f 273/273/273 276/276/276 275/275/275
f 279/279/279 278/278/278 277/277/277
f 277/277/277 280/280/280 279/279/279
f 283/283/283 282/282/282 281/281/281
f 281/281/281 284/284/284 283/283/283
f 287/287/287 286/286/286 285/285/285
f 285/285/285 288/288/288 287/287/287
f 291/291/291 290/290/290 289/289/289
f 289/289/289 292/292/292 291/291/291
f 295/295/295 294/294/294 293/293/293
f 293/293/293 296/296/296 295/295/295
f 299/299/299 298/298/298 297/297/297
f 297/297/297 300/300/300 299/299/299
f 303/303/303 302/302/302 301/301/301
f 301/301/301 304/304/304 303/303/303
f 307/307/307 306/306/306 305/305/305
f 305/305/305 308/308/308 307/307/307
f 311/311/311 310/310/310 309/309/309
f 309/309/309 312/312/312 311/311/311
f 315/315/315 314/314/314 313/313/313
f 313/313/313 316/316/316 315/315/315
f 319/319/319 318/318/318 317/317/317
f 317/317/317 320/320/320 319/319/319
f 323/323/323 322/322/322 321/321/321
f 321/321/321 324/324/324 323/323/323
f 327/327/327 326/326/326 325/325/325
f 325/325/325 328/328/328 327/327/327
f 331/331/331 330/330/330 329/329/329
f 329/329/329 332/332/332 331/331/331
f 335/335/335 334/334/334 333/333/333
f 333/333/333 336/336/336 335/335/335
f 339/339/339 338/338/338 337/337/337
f 337/337/337 340/340/340 339/339/339
f 343/343/343 342/342/342 341/341/341
f 341/341/341 344/344/344 343/343/343
f 347/347/347 346/346/346 345/345/345
f 345/345/345 348/348/348 347/347/347
f 351/351/351 350/350/350 349/349/349
f 349/349/349 352/352/352 351/351/351
f 355/355/355 354/354/354 353/353/353
f 353/353/353 356/356/356 355/355/355
f 359/359/359 358/358/358 357/357/357
f 357/357/357 360/360/360 359/359/359
f 363/363/363 362/362/362 361/361/361
f 361/361/361 364/364/364 363/363/363
f 367/367/367 366/366/366 365/365/365
f 365/365/365 368/368/368 367/367/367
f 371/371/371 370/370/370 369/369/369
f 369/369/369 372/372/372 371/371/371
f 375/375/375 374/374/374 373/373/373
f 373/373/373 376/376/376 375/375/375
f 379/379/379 378/378/378 377/377/377
f 377/377/377 380/380/380 379/379/379
f 383/383/383 382/382/382 381/381/381
f 381/381/381 384/384/384 383/383/383
f 387/387/387 386/386/386 385/385/385
f 385/385/385 388/388/388 387/387/387
f 391/391/391 390/390/390 389/389/389
f 389/389/389 392/392/392 391/391/391
f 395/395/395 394/394/394 393/393/393
f 393/393/393 396/396/396 395/395/395
f 399/399/399 398/398/398 397/397/397
f 397/397/397 400/400/400 399/399/399
f 403/403/403 402/402/402 401/401/401
f 401/401/401 404/404/404 403/403/403
f 407/407/407 406/406/406 405/405/405
f 405/405/405 408/408/408 407/407/407
f 411/411/411 410/410/410 409/409/409
f 409/409/409 412/412/412 411/411/411
f 415/415/415 414/414/414 413/413/413
f 413/413/413 416/416/416 415/415/415
f 419/419/419 418/418/418 417/417/417
f 417/417/417 420/420/420 419/419/419
f 423/423/423 422/422/422 421/421/421
f 421/421/421 424/424/424 423/423/423
f 427/427/427 426/426/426 425/425/425
f 425/425/425 428/428/428 427/427/427
f 431/431/431 430/430/430 429/429/429
f 429/429/429 432/432/432 431/431/431
f 435/435/435 434/434/434 433/433/433
f 433/433/433 436/436/436 435/435/435
f 439/439/439 438/438/438 437/437/437
f 437/437/437 440/440/440 439/439/439
f 443/443/443 442/442/442 441/441/441
f 441/441/441 444/444/444 443/443/443
f 447/447/447 446/446/446 445/445/445
f 445/445/445 448/448/448 447/447/447
f 451/451/451 450/450/450 449/449/449
f 449/449/449 452/452/452 451/451/451
f 455/455/455 454/454/454 453/453/453
f 453/453/453 456/456/456 455/455/455
f 459/459/459 458/458/458 457/457/457
f 457/457/457 460/460/460 459/459/459
f 463/463/463 462/462/462 461/461/461
f 461/461/461 464/464/464 463/463/463
f 467/467/467 466/466/466 465/465/465
f 465/465/465 468/468/468 467/467/467
f 471/471/471 470/470/470 469/469/469
f 469/469/469 472/472/472 471/471/471
f 475/475/475 474/474/474 473/473/473
f 473/473/473 476/476/476 475/475/475
f 479/479/479 478/478/478 477/477/477
f 477/477/477 480/480/480 479/479/479
f 483/483/483 482/482/482 481/481/481
f 481/481/481 484/484/484 483/483/483
f 487/487/487 486/486/486 485/485/485
f 485/485/485 488/488/488 487/487/487
f 491/491/491 490/490/490 489/489/489
f 489/489/489 492/492/492 491/491/491
f 495/495/495 494/494/494 493/493/493
f 493/493/493 496/496/496 495/495/495
f 499/499/499 498/498/498 497/497/497
f 497/497/497 500/500/500 499/499/499
f 503/503/503 502/502/502 501/501/501
f 501/501/501 504/504/504 503/503/503
f 507/507/507 506/506/506 505/505/505
f 505/505/505 508/508/508 507/507/507
f 511/511/511 510/510/510 509/509/509
f 509/509/509 512/512/512 511/511/511
f 515/515/515 514/514/514 513/513/513
f 513/513/513 516/516/516 515/515/515
f 519/519/519 518/518/518 517/517/517
f 517/517/517 520/520/520 519/519/519
f 523/523/523 522/522/522 521/521/521
f 521/521/521 524/524/524 523/523/523
f 527/527/527 526/526/526 525/525/525
f 525/525/525 528/528/528 527/527/527
f 531/531/531 530/530/530 529/529/529
f 529/529/529 532/532/532 531/531/531
f 535/535/535 534/534/534 533/533/533
f 533/533/533 536/536/536 535/535/535
f 539/539/539 538/538/538 537/537/537
f 537/537/537 540/540/540 539/539/539
f 543/543/543 542/542/542 541/541/541
f 541/541/541 544/544/544 543/543/543
f 547/547/547 546/546/546 545/545/545
f 545/545/545 548/548/548 547/547/547
f 551/551/551 550/550/550 549/549/549
f 549/549/549 552/552/552 551/551/551
f 555/555/555 554/554/554 553/553/553
f 553/553/553 556/556/556 555/555/555
f 559/559/559 558/558/558 557/557/557
f 557/557/557 560/560/560 559/559/559
f 563/563/563 562/562/562 561/561/561
f 561/561/561 564/564/564 563/563/563
f 567/567/567 566/566/566 565/565/565
f 565/565/565 568/568/568 567/567/567
f 571/571/571 570/570/570 569/569/569
f 569/569/569 572/572/572 571/571/571
f 575/575/575 574/574/574 573/573/573
f 573/573/573 576/576/576 575/575/575
f 579/579/579 578/578/578 577/577/577
f 577/577/577 580/580/580 579/579/579
f 583/583/583 582/582/582 581/581/581
f 581/581/581 584/584/584 583/583/583
f 587/587/587 586/586/586 585/585/585
f 585/585/585 588/588/588 587/587/587
f 591/591/591 590/590/590 589/589/589
f 589/589/589 592/592/592 591/591/591
f 595/595/595 594/594/594 593/593/593
f 593/593/593 596/596/596 595/595/595
f 599/599/599 598/598/598 597/597/597
f 597/597/597 600/600/600 599/599/599
f 603/603/603 602/602/602 601/601/601
f 601/601/601 604/604/604 603/603/603
f 607/607/607 606/606/606 605/605/605
f 605/605/605 608/608/608 607/607/607
f 611/611/611 610/610/610 609/609/609
f 609/609/609 612/612/612 611/611/611
f 615/615/615 614/614/614 613/613/613
f 613/613/613 616/616/616 615/615/615
f 619/619/619 618/618/618 617/617/617
f 617/617/617 620/620/620 619/619/619
f 623/623/623 622/622/622 621/621/621
f 621/621/621 624/624/624 623/623/623
f 627/627/627 626/626/626 625/625/625
f 625/625/625 628/628/628 627/627/627
f 631/631/631 630/630/630 629/629/629
f 629/629/629 632/632/632 631/631/631
f 635/635/635 634/634/634 633/633/633
f 633/633/633 636/636/636 635/635/635
f 639/639/639 638/638/638 637/637/637
f 637/637/637 640/640/640 639/639/639
f 643/643/643 642/642/642 641/641/641
f 641/641/641 644/644/644 643/643/643
f 647/647/647 646/646/646 645/645/645
f 645/645/645 648/648/648 647/647/647
f 651/651/651 650/650/650 649/649/649
f 649/649/649 652/652/652 651/651/651
f 655/655/655 654/654/654 653/653/653
f 653/653/653 656/656/656 655/655/655
f 659/659/659 658/658/658 657/657/657
f 657/657/657 660/660/660 659/659/659
f 663/663/663 662/662/662 661/661/661
f 661/661/661 664/664/664 663/663/663
f 667/667/667 666/666/666 665/665/665
f 665/665/665 668/668/668 667/667/667
f 671/671/671 670/670/670 669/669/669
f 669/669/669 672/672/672 671/671/671
f 675/675/675 674/674/674 673/673/673
f 673/673/673 676/676/676 675/675/675
f 679/679/679 678/678/678 677/677/677
f 677/677/677 680/680/680 679/679/679
f 683/683/683 682/682/682 681/681/681
f 681/681/681 684/684/684 683/683/683
f 687/687/687 686/686/686 685/685/685
f 685/685/685 688/688/688 687/687/687
f 691/691/691 690/690/690 689/689/689
f 689/689/689 692/692/692 691/691/691
f 695/695/695 694/694/694 693/693/693
f 693/693/693 696/696/696 695/695/695
f 699/699/699 698/698/698 697/697/697
f 697/697/697 700/700/700 699/699/699
f 703/703/703 702/702/702 701/701/701
f 701/701/701 704/704/704 703/703/703
f 707/707/707 706/706/706 705/705/705
f 705/705/705 708/708/708 707/707/707
f 711/711/711 710/710/710 709/709/709
f 709/709/709 712/712/712 711/711/711
f 715/715/715 714/714/714 713/713/713
f 713/713/713 716/716/716 715/715/715
f 719/719/719 718/718/718 717/717/717
f 717/717/717 720/720/720 719/719/719
f 723/723/723 722/722/722 721/721/721
f 721/721/721 724/724/724 723/723/723
f 727/727/727 726/726/726 725/725/725
f 725/725/725 728/728/728 727/727/727
f 731/731/731 730/730/730 729/729/729
f 729/729/729 732/732/732 731/731/731
f 735/735/735 734/734/734 733/733/733
f 733/733/733 736/736/736 735/735/735
f 739/739/739 738/738/738 737/737/737
f 737/737/737 740/740/740 739/739/739
f 743/743/743 742/742/742 741/741/741
f 741/741/741 744/744/744 743/743/743
f 747/747/747 746/746/746 745/745/745
f 745/745/745 748/748/748 747/747/747
f 751/751/751 750/750/750 749/749/749
f 749/749/749 752/752/752 751/751/751
f 755/755/755 754/754/754 753/753/753
f 753/753/753 756/756/756 755/755/755
f 759/759/759 758/758/758 757/757/757
f 757/757/757 760/760/760 759/759/759
