g kangkede_2-mesh
v -352 95 0
v -352 543 0
v -608 543 0
v -608 95 0
v -352 543 0
v -352 991 0
v -608 991 0
v -608 543 0
v -160 31 0
v -160 447 0
v -352 447 0
v -352 31 0
v -0 31 0
v -0 191 0
v -160 191 0
v -160 31 0
v -224 447 0
v -224 543 0
v -352 543 0
v -352 447 0
v -352 0 0
v -352 95 0
v -480 95 0
v -480 0 0
v -608 543 0
v -608 927 0
v -640 927 0
v -640 543 0
v -608 159 0
v -608 543 0
v -640 543 0
v -640 159 0
v -640 415 0
v -640 479 0
v -736 479 0
v -736 415 0
v -320 639 0
v -320 767 0
v -352 767 0
v -352 639 0
v -384 991 0
v -384 1023 0
v -512 1023 0
v -512 991 0
v -736 415 0
v -736 479 0
v -778 479 0
v -778 415 0
v -320 543 0
v -320 639 0
v -352 639 0
v -352 543 0
v -512 991 0
v -512 1023 0
v -608 1023 0
v -608 991 0
v -640 735 0
v -640 799 0
v -672 799 0
v -672 735 0
v -640 191 0
v -640 255 0
v -672 255 0
v -672 191 0
v -640 479 0
v -640 543 0
v -672 543 0
v -672 479 0
v -32 191 0
v -32 223 0
v -96 223 0
v -96 191 0
v -640 255 0
v -640 319 0
v -672 319 0
v -672 255 0
v -704 383 0
v -704 415 0
v -768 415 0
v -768 383 0
v -640 383 0
v -640 415 0
v -704 415 0
v -704 383 0
v -128 191 0
v -128 255 0
v -160 255 0
v -160 191 0
v -128 255 0
v -128 319 0
v -160 319 0
v -160 255 0
v -192 447 0
v -192 479 0
v -224 479 0
v -224 447 0
v -96 223 0
v -96 255 0
v -128 255 0
v -128 223 0
v -640 351 0
v -640 383 0
v -672 383 0
v -672 351 0
v -640 703 0
v -640 735 0
v -672 735 0
v -672 703 0
v -96 191 0
v -96 223 0
v -128 223 0
v -128 191 0
v -288 543 0
v -288 575 0
v -320 575 0
v -320 543 0
vt 0.0009765625 0.0018247962
vt 0.0009765625 0.81934309
vt 0.250976562 0.81934309
vt 0.250976562 0.0018247962
vt 0.252929688 0.0018247962
vt 0.252929688 0.81934309
vt 0.502929688 0.81934309
vt 0.502929688 0.0018247962
vt 0.504882812 0.0018247962
vt 0.504882812 0.760948896
vt 0.692382812 0.760948896
vt 0.692382812 0.0018247962
vt 0.694335938 0.0018247962
vt 0.694335938 0.293795645
vt 0.850585938 0.293795645
vt 0.850585938 0.0018247962
vt 0.852539062 0.0018247962
vt 0.852539062 0.177007318
vt 0.977539062 0.177007318
vt 0.977539062 0.0018247962
vt 0.852539062 0.18065691
vt 0.852539062 0.355839431
vt 0.977539062 0.355839431
vt 0.977539062 0.18065691
vt 0.694335938 0.297445238
vt 0.694335938 0.998175204
vt 0.725585938 0.998175204
vt 0.725585938 0.297445238
vt 0.727539062 0.297445238
vt 0.727539062 0.998175204
vt 0.758789062 0.998175204
vt 0.758789062 0.297445238
vt 0.852539062 0.359489024
vt 0.852539062 0.476277351
vt 0.946289062 0.476277351
vt 0.946289062 0.359489024
vt 0.760742188 0.297445238
vt 0.760742188 0.531021893
vt 0.791992188 0.531021893
vt 0.791992188 0.297445238
vt 0.852539062 0.479927003
vt 0.852539062 0.538321137
vt 0.977539062 0.538321137
vt 0.977539062 0.479927003
vt 0.793945312 0.297445238
vt 0.793945312 0.414233565
vt 0.8359375 0.414233565
vt 0.8359375 0.297445238
vt 0.793945312 0.417883217
vt 0.793945312 0.593065679
vt 0.825195312 0.593065679
vt 0.825195312 0.417883217
vt 0.852539062 0.541970789
vt 0.852539062 0.600364923
vt 0.946289062 0.600364923
vt 0.946289062 0.541970789
vt 0.760742188 0.534671545
vt 0.760742188 0.651459813
vt 0.791992188 0.651459813
vt 0.791992188 0.534671545
vt 0.948242188 0.541970789
vt 0.948242188 0.658759117
vt 0.979492188 0.658759117
vt 0.979492188 0.541970789
vt 0.793945312 0.596715331
vt 0.793945312 0.713503659
vt 0.825195312 0.713503659
vt 0.825195312 0.596715331
vt 0.852539062 0.604014635
vt 0.852539062 0.662408769
vt 0.915039062 0.662408769
vt 0.915039062 0.604014635
vt 0.760742188 0.655109525
vt 0.760742188 0.771897793
vt 0.791992188 0.771897793
vt 0.791992188 0.655109525
vt 0.852539062 0.666058421
vt 0.852539062 0.724452555
vt 0.915039062 0.724452555
vt 0.915039062 0.666058421
vt 0.852539062 0.728102207
vt 0.852539062 0.786496341
vt 0.915039062 0.786496341
vt 0.915039062 0.728102207
vt 0.948242188 0.662408769
vt 0.948242188 0.779197097
vt 0.979492188 0.779197097
vt 0.979492188 0.662408769
vt 0.793945312 0.717153311
vt 0.793945312 0.833941579
vt 0.825195312 0.833941579
vt 0.825195312 0.717153311
vt 0.504882812 0.764598548
vt 0.504882812 0.822992682
vt 0.536132812 0.822992682
vt 0.536132812 0.764598548
vt 0.538085938 0.764598548
vt 0.538085938 0.822992682
vt 0.569335938 0.822992682
vt 0.569335938 0.764598548
vt 0.571289062 0.764598548
vt 0.571289062 0.822992682
vt 0.602539062 0.822992682
vt 0.602539062 0.764598548
vt 0.604492188 0.764598548
vt 0.604492188 0.822992682
vt 0.635742188 0.822992682
vt 0.635742188 0.764598548
vt 0.637695312 0.764598548
vt 0.637695312 0.822992682
vt 0.668945312 0.822992682
vt 0.668945312 0.764598548
vt 0.760742188 0.775547445
vt 0.760742188 0.833941579
vt 0.791992188 0.833941579
vt 0.791992188 0.775547445
g kangkede_2-mesh_0
f 3/3/3 2/2/2 1/1/1
f 1/1/1 4/4/4 3/3/3
f 7/7/7 6/6/6 5/5/5
f 5/5/5 8/8/8 7/7/7
f 11/11/11 10/10/10 9/9/9
f 9/9/9 12/12/12 11/11/11
f 15/15/15 14/14/14 13/13/13
f 13/13/13 16/16/16 15/15/15
f 19/19/19 18/18/18 17/17/17
f 17/17/17 20/20/20 19/19/19
f 23/23/23 22/22/22 21/21/21
f 21/21/21 24/24/24 23/23/23
f 27/27/27 26/26/26 25/25/25
f 25/25/25 28/28/28 27/27/27
f 31/31/31 30/30/30 29/29/29
f 29/29/29 32/32/32 31/31/31
f 35/35/35 34/34/34 33/33/33
f 33/33/33 36/36/36 35/35/35
f 39/39/39 38/38/38 37/37/37
f 37/37/37 40/40/40 39/39/39
f 43/43/43 42/42/42 41/41/41
f 41/41/41 44/44/44 43/43/43
f 47/47/47 46/46/46 45/45/45
f 45/45/45 48/48/48 47/47/47
f 51/51/51 50/50/50 49/49/49
f 49/49/49 52/52/52 51/51/51
f 55/55/55 54/54/54 53/53/53
f 53/53/53 56/56/56 55/55/55
f 59/59/59 58/58/58 57/57/57
f 57/57/57 60/60/60 59/59/59
f 63/63/63 62/62/62 61/61/61
f 61/61/61 64/64/64 63/63/63
f 67/67/67 66/66/66 65/65/65
f 65/65/65 68/68/68 67/67/67
f 71/71/71 70/70/70 69/69/69
f 69/69/69 72/72/72 71/71/71
f 75/75/75 74/74/74 73/73/73
f 73/73/73 76/76/76 75/75/75
f 79/79/79 78/78/78 77/77/77
f 77/77/77 80/80/80 79/79/79
f 83/83/83 82/82/82 81/81/81
f 81/81/81 84/84/84 83/83/83
f 87/87/87 86/86/86 85/85/85
f 85/85/85 88/88/88 87/87/87
f 91/91/91 90/90/90 89/89/89
f 89/89/89 92/92/92 91/91/91
f 95/95/95 94/94/94 93/93/93
f 93/93/93 96/96/96 95/95/95
f 99/99/99 98/98/98 97/97/97
f 97/97/97 100/100/100 99/99/99
f 103/103/103 102/102/102 101/101/101
f 101/101/101 104/104/104 103/103/103
f 107/107/107 106/106/106 105/105/105
f 105/105/105 108/108/108 107/107/107
f 111/111/111 110/110/110 109/109/109
f 109/109/109 112/112/112 111/111/111
f 115/115/115 114/114/114 113/113/113
f 113/113/113 116/116/116 115/115/115
