g shiyu_3-mesh
v -544 145 0
v -544 817 0
v -928 817 0
v -928 145 0
v -160 145 0
v -160 817 0
v -544 817 0
v -544 145 0
v -320 817 0
v -320 913 0
v -608 913 0
v -608 817 0
v -608 817 0
v -608 913 0
v -864 913 0
v -864 817 0
v -384 17 0
v -384 145 0
v -544 145 0
v -544 17 0
v -544 17 0
v -544 145 0
v -704 145 0
v -704 17 0
v -32 305 0
v -32 465 0
v -160 465 0
v -160 305 0
v -32 145 0
v -32 305 0
v -160 305 0
v -160 145 0
v -928 49 0
v -928 241 0
v -1023 241 0
v -1023 49 0
v -928 241 0
v -928 433 0
v -1023 433 0
v -1023 241 0
v -832 17 0
v -832 145 0
v -928 145 0
v -928 17 0
v -160 81 0
v -160 145 0
v -256 145 0
v -256 81 0
v -128 625 0
v -128 785 0
v -160 785 0
v -160 625 0
v -928 561 0
v -928 721 0
v -960 721 0
v -960 561 0
v -128 465 0
v -128 625 0
v -160 625 0
v -160 465 0
v -576 913 0
v -576 945 0
v -736 945 0
v -736 913 0
v -256 817 0
v -256 881 0
v -320 881 0
v -320 817 0
v -448 0 0
v -448 17 0
v -576 17 0
v -576 0 0
v -736 913 0
v -736 945 0
v -864 945 0
v -864 913 0
v -928 433 0
v -928 561 0
v -960 561 0
v -960 433 0
v -320 913 0
v -320 945 0
v -448 945 0
v -448 913 0
v -0 177 0
v -0 273 0
v -32 273 0
v -32 177 0
v -448 913 0
v -448 945 0
v -544 945 0
v -544 913 0
v -576 0 0
v -576 17 0
v -672 17 0
v -672 0 0
v -0 273 0
v -0 369 0
v -32 369 0
v -32 273 0
v -64 113 0
v -64 145 0
v -128 145 0
v -128 113 0
v -864 817 0
v -864 881 0
v -896 881 0
v -896 817 0
v -320 113 0
v -320 145 0
v -384 145 0
v -384 113 0
v -928 17 0
v -928 49 0
v -992 49 0
v -992 17 0
v -800 81 0
v -800 145 0
v -832 145 0
v -832 81 0
v -96 529 0
v -96 593 0
v -128 593 0
v -128 529 0
v -96 689 0
v -96 753 0
v -128 753 0
v -128 689 0
v -96 465 0
v -96 529 0
v -128 529 0
v -128 465 0
v -96 625 0
v -96 689 0
v -128 689 0
v -128 625 0
v -960 465 0
v -960 529 0
v -992 529 0
v -992 465 0
v -704 113 0
v -704 145 0
v -736 145 0
v -736 113 0
v -256 113 0
v -256 145 0
v -288 145 0
v -288 113 0
v -896 0 0
v -896 17 0
v -928 17 0
v -928 0 0
v -832 0 0
v -832 17 0
v -864 17 0
v -864 0 0
v -224 817 0
v -224 849 0
v -256 849 0
v -256 817 0
v -960 433 0
v -960 465 0
v -992 465 0
v -992 433 0
v -64 465 0
v -64 497 0
v -96 497 0
v -96 465 0
v -64 529 0
v -64 561 0
v -96 561 0
v -96 529 0
vt 0.0009765625 0.00115209818
vt 0.0009765625 0.775345623
vt 0.375976562 0.775345623
vt 0.375976562 0.00115209818
vt 0.377929688 0.00115209818
vt 0.377929688 0.775345623
vt 0.752929688 0.775345623
vt 0.752929688 0.00115209818
vt 0.0009765625 0.77764976
vt 0.0009765625 0.888248861
vt 0.282226562 0.888248861
vt 0.282226562 0.77764976
vt 0.284179688 0.77764976
vt 0.284179688 0.888248861
vt 0.534179688 0.888248861
vt 0.534179688 0.77764976
vt 0.754882812 0.00115209818
vt 0.754882812 0.148617506
vt 0.911132812 0.148617506
vt 0.911132812 0.00115209818
vt 0.754882812 0.150921643
vt 0.754882812 0.29838711
vt 0.911132812 0.29838711
vt 0.911132812 0.150921643
vt 0.754882812 0.300691247
vt 0.754882812 0.485023022
vt 0.879882812 0.485023022
vt 0.879882812 0.300691247
vt 0.754882812 0.487327218
vt 0.754882812 0.671658993
vt 0.879882812 0.671658993
vt 0.879882812 0.487327218
vt 0.881835938 0.300691247
vt 0.881835938 0.521889389
vt 0.975585938 0.521889389
vt 0.975585938 0.300691247
vt 0.881835938 0.524193525
vt 0.881835938 0.745391726
vt 0.975585938 0.745391726
vt 0.975585938 0.524193525
vt 0.754882812 0.67396313
vt 0.754882812 0.821428537
vt 0.848632812 0.821428537
vt 0.848632812 0.67396313
vt 0.881835938 0.747695863
vt 0.881835938 0.821428537
vt 0.975585938 0.821428537
vt 0.975585938 0.747695863
vt 0.536132812 0.77764976
vt 0.536132812 0.961981595
vt 0.567382812 0.961981595
vt 0.567382812 0.77764976
vt 0.569335938 0.77764976
vt 0.569335938 0.961981595
vt 0.600585938 0.961981595
vt 0.600585938 0.77764976
vt 0.602539062 0.77764976
vt 0.602539062 0.961981595
vt 0.633789062 0.961981595
vt 0.633789062 0.77764976
vt 0.754882812 0.823732734
vt 0.754882812 0.860599101
vt 0.911132812 0.860599101
vt 0.911132812 0.823732734
vt 0.635742188 0.77764976
vt 0.635742188 0.851382494
vt 0.698242188 0.851382494
vt 0.698242188 0.77764976
vt 0.754882812 0.862903237
vt 0.754882812 0.883640528
vt 0.879882812 0.883640528
vt 0.879882812 0.862903237
vt 0.754882812 0.885944724
vt 0.754882812 0.922811031
vt 0.879882812 0.922811031
vt 0.879882812 0.885944724
vt 0.700195312 0.77764976
vt 0.700195312 0.925115228
vt 0.731445312 0.925115228
vt 0.731445312 0.77764976
vt 0.0009765625 0.890552998
vt 0.0009765625 0.927419364
vt 0.125976562 0.927419364
vt 0.125976562 0.890552998
vt 0.913085938 0.823732734
vt 0.913085938 0.934331775
vt 0.944335938 0.934331775
vt 0.944335938 0.823732734
vt 0.127929688 0.890552998
vt 0.127929688 0.927419364
vt 0.221679688 0.927419364
vt 0.221679688 0.890552998
vt 0.223632812 0.890552998
vt 0.223632812 0.911290348
vt 0.317382812 0.911290348
vt 0.317382812 0.890552998
vt 0.946289062 0.823732734
vt 0.946289062 0.934331775
vt 0.977539062 0.934331775
vt 0.977539062 0.823732734
vt 0.635742188 0.853686631
vt 0.635742188 0.890552998
vt 0.698242188 0.890552998
vt 0.698242188 0.853686631
vt 0.319335938 0.890552998
vt 0.319335938 0.964285731
vt 0.350585938 0.964285731
vt 0.350585938 0.890552998
vt 0.352539062 0.890552998
vt 0.352539062 0.927419364
vt 0.415039062 0.927419364
vt 0.415039062 0.890552998
vt 0.416992188 0.890552998
vt 0.416992188 0.927419364
vt 0.479492188 0.927419364
vt 0.479492188 0.890552998
vt 0.481445312 0.890552998
vt 0.481445312 0.964285731
vt 0.512695312 0.964285731
vt 0.512695312 0.890552998
vt 0.635742188 0.892857134
vt 0.635742188 0.966589868
vt 0.666992188 0.966589868
vt 0.666992188 0.892857134
vt 0.223632812 0.913594484
vt 0.223632812 0.987327218
vt 0.254882812 0.987327218
vt 0.254882812 0.913594484
vt 0.256835938 0.913594484
vt 0.256835938 0.987327218
vt 0.288085938 0.987327218
vt 0.288085938 0.913594484
vt 0.754882812 0.925115228
vt 0.754882812 0.998847902
vt 0.786132812 0.998847902
vt 0.786132812 0.925115228
vt 0.788085938 0.925115228
vt 0.788085938 0.998847902
vt 0.819335938 0.998847902
vt 0.819335938 0.925115228
vt 0.821289062 0.925115228
vt 0.821289062 0.961981595
vt 0.852539062 0.961981595
vt 0.852539062 0.925115228
vt 0.854492188 0.925115228
vt 0.854492188 0.961981595
vt 0.885742188 0.961981595
vt 0.885742188 0.925115228
vt 0.700195312 0.927419364
vt 0.700195312 0.948156655
vt 0.731445312 0.948156655
vt 0.731445312 0.927419364
vt 0.0009765625 0.929723501
vt 0.0009765625 0.950460851
vt 0.0322265625 0.950460851
vt 0.0322265625 0.929723501
vt 0.0341796875 0.929723501
vt 0.0341796875 0.966589868
vt 0.0654296875 0.966589868
vt 0.0654296875 0.929723501
vt 0.0673828125 0.929723501
vt 0.0673828125 0.966589868
vt 0.0986328125 0.966589868
vt 0.0986328125 0.929723501
vt 0.100585938 0.929723501
vt 0.100585938 0.966589868
vt 0.131835938 0.966589868
vt 0.131835938 0.929723501
vt 0.133789062 0.929723501
vt 0.133789062 0.966589868
vt 0.165039062 0.966589868
vt 0.165039062 0.929723501
g shiyu_3-mesh_0
f 3/3/3 2/2/2 1/1/1
f 1/1/1 4/4/4 3/3/3
f 7/7/7 6/6/6 5/5/5
f 5/5/5 8/8/8 7/7/7
f 11/11/11 10/10/10 9/9/9
f 9/9/9 12/12/12 11/11/11
f 15/15/15 14/14/14 13/13/13
f 13/13/13 16/16/16 15/15/15
f 19/19/19 18/18/18 17/17/17
f 17/17/17 20/20/20 19/19/19
f 23/23/23 22/22/22 21/21/21
f 21/21/21 24/24/24 23/23/23
f 27/27/27 26/26/26 25/25/25
f 25/25/25 28/28/28 27/27/27
f 31/31/31 30/30/30 29/29/29
f 29/29/29 32/32/32 31/31/31
f 35/35/35 34/34/34 33/33/33
f 33/33/33 36/36/36 35/35/35
f 39/39/39 38/38/38 37/37/37
f 37/37/37 40/40/40 39/39/39
f 43/43/43 42/42/42 41/41/41
f 41/41/41 44/44/44 43/43/43
f 47/47/47 46/46/46 45/45/45
f 45/45/45 48/48/48 47/47/47
f 51/51/51 50/50/50 49/49/49
f 49/49/49 52/52/52 51/51/51
f 55/55/55 54/54/54 53/53/53
f 53/53/53 56/56/56 55/55/55
f 59/59/59 58/58/58 57/57/57
f 57/57/57 60/60/60 59/59/59
f 63/63/63 62/62/62 61/61/61
f 61/61/61 64/64/64 63/63/63
f 67/67/67 66/66/66 65/65/65
f 65/65/65 68/68/68 67/67/67
f 71/71/71 70/70/70 69/69/69
f 69/69/69 72/72/72 71/71/71
f 75/75/75 74/74/74 73/73/73
f 73/73/73 76/76/76 75/75/75
f 79/79/79 78/78/78 77/77/77
f 77/77/77 80/80/80 79/79/79
f 83/83/83 82/82/82 81/81/81
f 81/81/81 84/84/84 83/83/83
f 87/87/87 86/86/86 85/85/85
f 85/85/85 88/88/88 87/87/87
f 91/91/91 90/90/90 89/89/89
f 89/89/89 92/92/92 91/91/91
f 95/95/95 94/94/94 93/93/93
f 93/93/93 96/96/96 95/95/95
f 99/99/99 98/98/98 97/97/97
f 97/97/97 100/100/100 99/99/99
f 103/103/103 102/102/102 101/101/101
f 101/101/101 104/104/104 103/103/103
f 107/107/107 106/106/106 105/105/105
f 105/105/105 108/108/108 107/107/107
f 111/111/111 110/110/110 109/109/109
f 109/109/109 112/112/112 111/111/111
f 115/115/115 114/114/114 113/113/113
f 113/113/113 116/116/116 115/115/115
f 119/119/119 118/118/118 117/117/117
f 117/117/117 120/120/120 119/119/119
f 123/123/123 122/122/122 121/121/121
f 121/121/121 124/124/124 123/123/123
f 127/127/127 126/126/126 125/125/125
f 125/125/125 128/128/128 127/127/127
f 131/131/131 130/130/130 129/129/129
f 129/129/129 132/132/132 131/131/131
f 135/135/135 134/134/134 133/133/133
f 133/133/133 136/136/136 135/135/135
f 139/139/139 138/138/138 137/137/137
f 137/137/137 140/140/140 139/139/139
f 143/143/143 142/142/142 141/141/141
f 141/141/141 144/144/144 143/143/143
f 147/147/147 146/146/146 145/145/145
f 145/145/145 148/148/148 147/147/147
f 151/151/151 150/150/150 149/149/149
f 149/149/149 152/152/152 151/151/151
f 155/155/155 154/154/154 153/153/153
f 153/153/153 156/156/156 155/155/155
f 159/159/159 158/158/158 157/157/157
f 157/157/157 160/160/160 159/159/159
f 163/163/163 162/162/162 161/161/161
f 161/161/161 164/164/164 163/163/163
f 167/167/167 166/166/166 165/165/165
f 165/165/165 168/168/168 167/167/167
f 171/171/171 170/170/170 169/169/169
f 169/169/169 172/172/172 171/171/171
