g duwei_alter_bj-mesh
v -1408 263 0
v -1408 519 0
v -1568 519 0
v -1568 263 0
v -1600 583 0
v -1600 807 0
v -1728 807 0
v -1728 583 0
v -1376 1063 0
v -1376 1255 0
v -1504 1255 0
v -1504 1063 0
v -1600 391 0
v -1600 583 0
v -1728 583 0
v -1728 391 0
v -1280 231 0
v -1280 391 0
v -1408 391 0
v -1408 231 0
v -1024 1223 0
v -1024 1415 0
v -1120 1415 0
v -1120 1223 0
v -1440 7 0
v -1440 199 0
v -1536 199 0
v -1536 7 0
v -1728 903 0
v -1728 1095 0
v -1824 1095 0
v -1824 903 0
v -1248 1095 0
v -1248 1223 0
v -1376 1223 0
v -1376 1095 0
v -1504 519 0
v -1504 679 0
v -1600 679 0
v -1600 519 0
v -1728 743 0
v -1728 903 0
v -1824 903 0
v -1824 743 0
v -736 1127 0
v -736 1287 0
v -800 1287 0
v -800 1127 0
v -736 967 0
v -736 1127 0
v -800 1127 0
v -800 967 0
v -1216 903 0
v -1216 1191 0
v -1248 1191 0
v -1248 903 0
v -1216 615 0
v -1216 903 0
v -1248 903 0
v -1248 615 0
v -896 1351 0
v -896 1415 0
v -1024 1415 0
v -1024 1351 0
v -832 1255 0
v -832 1383 0
v -896 1383 0
v -896 1255 0
v -1600 1063 0
v -1600 1127 0
v -1728 1127 0
v -1728 1063 0
v -1408 903 0
v -1408 1031 0
v -1472 1031 0
v -1472 903 0
v -1248 615 0
v -1248 743 0
v -1312 743 0
v -1312 615 0
v -1216 199 0
v -1216 295 0
v -1280 295 0
v -1280 199 0
v -1376 807 0
v -1376 903 0
v -1440 903 0
v -1440 807 0
v -1504 199 0
v -1504 263 0
v -1600 263 0
v -1600 199 0
v -1248 935 0
v -1248 1095 0
v -1280 1095 0
v -1280 935 0
v -1184 775 0
v -1184 935 0
v -1216 935 0
v -1216 775 0
v -1056 1159 0
v -1056 1223 0
v -1120 1223 0
v -1120 1159 0
v -1248 807 0
v -1248 935 0
v -1280 935 0
v -1280 807 0
v -1184 647 0
v -1184 775 0
v -1216 775 0
v -1216 647 0
v -1728 615 0
v -1728 743 0
v -1760 743 0
v -1760 615 0
v -1344 391 0
v -1344 455 0
v -1408 455 0
v -1408 391 0
v -1728 487 0
v -1728 615 0
v -1760 615 0
v -1760 487 0
v -1344 743 0
v -1344 839 0
v -1376 839 0
v -1376 743 0
v -1696 871 0
v -1696 967 0
v -1728 967 0
v -1728 871 0
v -800 1255 0
v -800 1351 0
v -832 1351 0
v -832 1255 0
v -704 1095 0
v -704 1191 0
v -736 1191 0
v -736 1095 0
v -704 999 0
v -704 1095 0
v -736 1095 0
v -736 999 0
v -1568 327 0
v -1568 423 0
v -1600 423 0
v -1600 327 0
v -1568 423 0
v -1568 519 0
v -1600 519 0
v -1600 423 0
v -1568 1031 0
v -1568 1095 0
v -1600 1095 0
v -1600 1031 0
v -1024 1127 0
v -1024 1191 0
v -1056 1191 0
v -1056 1127 0
v -1728 1095 0
v -1728 1127 0
v -1792 1127 0
v -1792 1095 0
v -1472 1255 0
v -1472 1319 0
v -1504 1319 0
v -1504 1255 0
v -928 1415 0
v -928 1447 0
v -992 1447 0
v -992 1415 0
v -1472 551 0
v -1472 615 0
v -1504 615 0
v -1504 551 0
v -992 1287 0
v -992 1351 0
v -1024 1351 0
v -1024 1287 0
v -896 1319 0
v -896 1351 0
v -960 1351 0
v -960 1319 0
v -1248 295 0
v -1248 359 0
v -1280 359 0
v -1280 295 0
v -1568 679 0
v -1568 743 0
v -1600 743 0
v -1600 679 0
v -1376 7 0
v -1376 71 0
v -1408 71 0
v -1408 7 0
v -1184 199 0
v -1184 263 0
v -1216 263 0
v -1216 199 0
v -1376 743 0
v -1376 807 0
v -1408 807 0
v -1408 743 0
v -800 967 0
v -800 1031 0
v -832 1031 0
v -832 967 0
v -1536 999 0
v -1536 1063 0
v -1568 1063 0
v -1568 999 0
v -1664 807 0
v -1664 871 0
v -1696 871 0
v -1696 807 0
v -1824 903 0
v -1824 967 0
v -1856 967 0
v -1856 903 0
v -1504 1159 0
v -1504 1223 0
v -1536 1223 0
v -1536 1159 0
v -1504 1223 0
v -1504 1287 0
v -1536 1287 0
v -1536 1223 0
v -1280 967 0
v -1280 1031 0
v -1312 1031 0
v -1312 967 0
v -1280 1031 0
v -1280 1095 0
v -1312 1095 0
v -1312 1031 0
v -1120 1223 0
v -1120 1287 0
v -1152 1287 0
v -1152 1223 0
v -1696 807 0
v -1696 871 0
v -1728 871 0
v -1728 807 0
v -800 1191 0
v -800 1255 0
v -832 1255 0
v -832 1191 0
v -1120 1287 0
v -1120 1351 0
v -1152 1351 0
v -1152 1287 0
v -1344 679 0
v -1344 743 0
v -1376 743 0
v -1376 679 0
v -1536 71 0
v -1536 135 0
v -1568 135 0
v -1568 71 0
v -1536 135 0
v -1536 199 0
v -1568 199 0
v -1568 135 0
v -1408 7 0
v -1408 71 0
v -1440 71 0
v -1440 7 0
v -1408 71 0
v -1408 135 0
v -1440 135 0
v -1440 71 0
v -1312 647 0
v -1312 711 0
v -1344 711 0
v -1344 647 0
v -1312 711 0
v -1312 775 0
v -1344 775 0
v -1344 711 0
v -1760 615 0
v -1760 679 0
v -1792 679 0
v -1792 615 0
v -1760 679 0
v -1760 743 0
v -1792 743 0
v -1792 679 0
v -1376 455 0
v -1376 487 0
v -1408 487 0
v -1408 455 0
v -1312 391 0
v -1312 423 0
v -1344 423 0
v -1344 391 0
v -1536 679 0
v -1536 711 0
v -1568 711 0
v -1568 679 0
v -1440 519 0
v -1440 551 0
v -1472 551 0
v -1472 519 0
v -1664 359 0
v -1664 391 0
v -1696 391 0
v -1696 359 0
v -1472 199 0
v -1472 231 0
v -1504 231 0
v -1504 199 0
v -1568 167 0
v -1568 199 0
v -1600 199 0
v -1600 167 0
v -1152 199 0
v -1152 231 0
v -1184 231 0
v -1184 199 0
v -1280 199 0
v -1280 231 0
v -1312 231 0
v -1312 199 0
v -1440 1255 0
v -1440 1287 0
v -1472 1287 0
v -1472 1255 0
v -1312 1063 0
v -1312 1095 0
v -1344 1095 0
v -1344 1063 0
v -1472 519 0
v -1472 551 0
v -1504 551 0
v -1504 519 0
v -768 1287 0
v -768 1319 0
v -800 1319 0
v -800 1287 0
v -1184 1031 0
v -1184 1063 0
v -1216 1063 0
v -1216 1031 0
v -768 935 0
v -768 967 0
v -800 967 0
v -800 935 0
v -1632 807 0
v -1632 839 0
v -1664 839 0
v -1664 807 0
v -1440 1031 0
v -1440 1063 0
v -1472 1063 0
v -1472 1031 0
v -1632 1031 0
v -1632 1063 0
v -1664 1063 0
v -1664 1031 0
vt 0.0009765625 0.00170069933
vt 0.0009765625 0.43707484
vt 0.157226562 0.43707484
vt 0.157226562 0.00170069933
vt 0.159179688 0.00170069933
vt 0.159179688 0.382653058
vt 0.284179688 0.382653058
vt 0.284179688 0.00170069933
vt 0.286132812 0.00170069933
vt 0.286132812 0.328231275
vt 0.411132812 0.328231275
vt 0.411132812 0.00170069933
vt 0.413085938 0.00170069933
vt 0.413085938 0.328231275
vt 0.538085938 0.328231275
vt 0.538085938 0.00170069933
vt 0.540039062 0.00170069933
vt 0.540039062 0.273809552
vt 0.665039062 0.273809552
vt 0.665039062 0.00170069933
vt 0.666992188 0.00170069933
vt 0.666992188 0.328231275
vt 0.760742188 0.328231275
vt 0.760742188 0.00170069933
vt 0.762695312 0.00170069933
vt 0.762695312 0.328231275
vt 0.856445312 0.328231275
vt 0.856445312 0.00170069933
vt 0.858398438 0.00170069933
vt 0.858398438 0.328231275
vt 0.952148438 0.328231275
vt 0.952148438 0.00170069933
vt 0.540039062 0.277210891
vt 0.540039062 0.494897962
vt 0.665039062 0.494897962
vt 0.665039062 0.277210891
vt 0.286132812 0.331632674
vt 0.286132812 0.603741527
vt 0.379882812 0.603741527
vt 0.379882812 0.331632674
vt 0.381835938 0.331632674
vt 0.381835938 0.603741527
vt 0.475585938 0.603741527
vt 0.475585938 0.331632674
vt 0.666992188 0.331632674
vt 0.666992188 0.603741527
vt 0.729492188 0.603741527
vt 0.729492188 0.331632674
vt 0.731445312 0.331632674
vt 0.731445312 0.603741527
vt 0.793945312 0.603741527
vt 0.793945312 0.331632674
vt 0.954101562 0.00170069933
vt 0.954101562 0.491496623
vt 0.985351562 0.491496623
vt 0.985351562 0.00170069933
vt 0.477539062 0.331632674
vt 0.477539062 0.821428537
vt 0.508789062 0.821428537
vt 0.508789062 0.331632674
vt 0.795898438 0.331632674
vt 0.795898438 0.440476179
vt 0.920898438 0.440476179
vt 0.920898438 0.331632674
vt 0.159179688 0.386054397
vt 0.159179688 0.603741527
vt 0.221679688 0.603741527
vt 0.221679688 0.386054397
vt 0.0009765625 0.440476179
vt 0.0009765625 0.549319744
vt 0.125976562 0.549319744
vt 0.125976562 0.440476179
vt 0.795898438 0.443877578
vt 0.795898438 0.661564589
vt 0.858398438 0.661564589
vt 0.858398438 0.443877578
vt 0.860351562 0.443877578
vt 0.860351562 0.661564589
vt 0.922851562 0.661564589
vt 0.922851562 0.443877578
vt 0.540039062 0.498299301
vt 0.540039062 0.661564589
vt 0.602539062 0.661564589
vt 0.602539062 0.498299301
vt 0.0009765625 0.552721083
vt 0.0009765625 0.715986371
vt 0.0634765625 0.715986371
vt 0.0634765625 0.552721083
vt 0.159179688 0.607142866
vt 0.159179688 0.715986371
vt 0.252929688 0.715986371
vt 0.252929688 0.607142866
vt 0.954101562 0.494897962
vt 0.954101562 0.767006814
vt 0.985351562 0.767006814
vt 0.985351562 0.494897962
vt 0.604492188 0.498299301
vt 0.604492188 0.770408154
vt 0.635742188 0.770408154
vt 0.635742188 0.498299301
vt 0.0654296875 0.552721083
vt 0.0654296875 0.661564589
vt 0.127929688 0.661564589
vt 0.127929688 0.552721083
vt 0.286132812 0.607142866
vt 0.286132812 0.824829936
vt 0.317382812 0.824829936
vt 0.317382812 0.607142866
vt 0.319335938 0.607142866
vt 0.319335938 0.824829936
vt 0.350585938 0.824829936
vt 0.350585938 0.607142866
vt 0.352539062 0.607142866
vt 0.352539062 0.824829936
vt 0.383789062 0.824829936
vt 0.383789062 0.607142866
vt 0.385742188 0.607142866
vt 0.385742188 0.715986371
vt 0.448242188 0.715986371
vt 0.448242188 0.607142866
vt 0.666992188 0.607142866
vt 0.666992188 0.824829936
vt 0.698242188 0.824829936
vt 0.698242188 0.607142866
vt 0.700195312 0.607142866
vt 0.700195312 0.770408154
vt 0.731445312 0.770408154
vt 0.731445312 0.607142866
vt 0.733398438 0.607142866
vt 0.733398438 0.770408154
vt 0.764648438 0.770408154
vt 0.764648438 0.607142866
vt 0.0654296875 0.664965987
vt 0.0654296875 0.828231275
vt 0.0966796875 0.828231275
vt 0.0966796875 0.664965987
vt 0.0986328125 0.664965987
vt 0.0986328125 0.828231275
vt 0.129882812 0.828231275
vt 0.129882812 0.664965987
vt 0.540039062 0.664965987
vt 0.540039062 0.828231275
vt 0.571289062 0.828231275
vt 0.571289062 0.664965987
vt 0.795898438 0.664965987
vt 0.795898438 0.828231275
vt 0.827148438 0.828231275
vt 0.827148438 0.664965987
vt 0.829101562 0.664965987
vt 0.829101562 0.828231275
vt 0.860351562 0.828231275
vt 0.860351562 0.664965987
vt 0.862304688 0.664965987
vt 0.862304688 0.773809552
vt 0.893554688 0.773809552
vt 0.893554688 0.664965987
vt 0.895507812 0.664965987
vt 0.895507812 0.773809552
vt 0.926757812 0.773809552
vt 0.926757812 0.664965987
vt 0.0009765625 0.71938777
vt 0.0009765625 0.773809552
vt 0.0634765625 0.773809552
vt 0.0634765625 0.71938777
vt 0.159179688 0.71938777
vt 0.159179688 0.828231275
vt 0.190429688 0.828231275
vt 0.190429688 0.71938777
vt 0.192382812 0.71938777
vt 0.192382812 0.773809552
vt 0.254882812 0.773809552
vt 0.254882812 0.71938777
vt 0.385742188 0.71938777
vt 0.385742188 0.828231275
vt 0.416992188 0.828231275
vt 0.416992188 0.71938777
vt 0.418945312 0.71938777
vt 0.418945312 0.828231275
vt 0.450195312 0.828231275
vt 0.450195312 0.71938777
vt 0.700195312 0.773809552
vt 0.700195312 0.828231275
vt 0.762695312 0.828231275
vt 0.762695312 0.773809552
vt 0.954101562 0.770408154
vt 0.954101562 0.879251719
vt 0.985351562 0.879251719
vt 0.985351562 0.770408154
vt 0.604492188 0.773809552
vt 0.604492188 0.882653058
vt 0.635742188 0.882653058
vt 0.635742188 0.773809552
vt 0.0009765625 0.777210891
vt 0.0009765625 0.886054397
vt 0.0322265625 0.886054397
vt 0.0322265625 0.777210891
vt 0.192382812 0.777210891
vt 0.192382812 0.886054397
vt 0.223632812 0.886054397
vt 0.223632812 0.777210891
vt 0.225585938 0.777210891
vt 0.225585938 0.886054397
vt 0.256835938 0.886054397
vt 0.256835938 0.777210891
vt 0.862304688 0.777210891
vt 0.862304688 0.886054397
vt 0.893554688 0.886054397
vt 0.893554688 0.777210891
vt 0.895507812 0.777210891
vt 0.895507812 0.886054397
vt 0.926757812 0.886054397
vt 0.926757812 0.777210891
vt 0.477539062 0.824829936
vt 0.477539062 0.933673501
vt 0.508789062 0.933673501
vt 0.508789062 0.824829936
vt 0.286132812 0.828231275
vt 0.286132812 0.93707484
vt 0.317382812 0.93707484
vt 0.317382812 0.828231275
vt 0.319335938 0.828231275
vt 0.319335938 0.93707484
vt 0.350585938 0.93707484
vt 0.350585938 0.828231275
vt 0.352539062 0.828231275
vt 0.352539062 0.93707484
vt 0.383789062 0.93707484
vt 0.383789062 0.828231275
vt 0.666992188 0.828231275
vt 0.666992188 0.93707484
vt 0.698242188 0.93707484
vt 0.698242188 0.828231275
vt 0.0654296875 0.831632674
vt 0.0654296875 0.940476179
vt 0.0966796875 0.940476179
vt 0.0966796875 0.831632674
vt 0.0986328125 0.831632674
vt 0.0986328125 0.940476179
vt 0.129882812 0.940476179
vt 0.129882812 0.831632674
vt 0.159179688 0.831632674
vt 0.159179688 0.940476179
vt 0.190429688 0.940476179
vt 0.190429688 0.831632674
vt 0.385742188 0.831632674
vt 0.385742188 0.940476179
vt 0.416992188 0.940476179
vt 0.416992188 0.831632674
vt 0.418945312 0.831632674
vt 0.418945312 0.940476179
vt 0.450195312 0.940476179
vt 0.450195312 0.831632674
vt 0.540039062 0.831632674
vt 0.540039062 0.940476179
vt 0.571289062 0.940476179
vt 0.571289062 0.831632674
vt 0.700195312 0.831632674
vt 0.700195312 0.940476179
vt 0.731445312 0.940476179
vt 0.731445312 0.831632674
vt 0.733398438 0.831632674
vt 0.733398438 0.940476179
vt 0.764648438 0.940476179
vt 0.764648438 0.831632674
vt 0.795898438 0.831632674
vt 0.795898438 0.940476179
vt 0.827148438 0.940476179
vt 0.827148438 0.831632674
vt 0.829101562 0.831632674
vt 0.829101562 0.940476179
vt 0.860351562 0.940476179
vt 0.860351562 0.831632674
vt 0.954101562 0.882653058
vt 0.954101562 0.991496623
vt 0.985351562 0.991496623
vt 0.985351562 0.882653058
vt 0.604492188 0.886054397
vt 0.604492188 0.994897962
vt 0.635742188 0.994897962
vt 0.635742188 0.886054397
vt 0.0009765625 0.889455795
vt 0.0009765625 0.998299301
vt 0.0322265625 0.998299301
vt 0.0322265625 0.889455795
vt 0.192382812 0.889455795
vt 0.192382812 0.998299301
vt 0.223632812 0.998299301
vt 0.223632812 0.889455795
vt 0.225585938 0.889455795
vt 0.225585938 0.943877578
vt 0.256835938 0.943877578
vt 0.256835938 0.889455795
vt 0.862304688 0.889455795
vt 0.862304688 0.943877578
vt 0.893554688 0.943877578
vt 0.893554688 0.889455795
vt 0.895507812 0.889455795
vt 0.895507812 0.943877578
vt 0.926757812 0.943877578
vt 0.926757812 0.889455795
vt 0.477539062 0.93707484
vt 0.477539062 0.991496623
vt 0.508789062 0.991496623
vt 0.508789062 0.93707484
vt 0.286132812 0.940476179
vt 0.286132812 0.994897962
vt 0.317382812 0.994897962
vt 0.317382812 0.940476179
vt 0.319335938 0.940476179
vt 0.319335938 0.994897962
vt 0.350585938 0.994897962
vt 0.350585938 0.940476179
vt 0.352539062 0.940476179
vt 0.352539062 0.994897962
vt 0.383789062 0.994897962
vt 0.383789062 0.940476179
vt 0.666992188 0.940476179
vt 0.666992188 0.994897962
vt 0.698242188 0.994897962
vt 0.698242188 0.940476179
vt 0.0654296875 0.943877578
vt 0.0654296875 0.998299301
vt 0.0966796875 0.998299301
vt 0.0966796875 0.943877578
vt 0.0986328125 0.943877578
vt 0.0986328125 0.998299301
vt 0.129882812 0.998299301
vt 0.129882812 0.943877578
vt 0.159179688 0.943877578
vt 0.159179688 0.998299301
vt 0.190429688 0.998299301
vt 0.190429688 0.943877578
vt 0.385742188 0.943877578
vt 0.385742188 0.998299301
vt 0.416992188 0.998299301
vt 0.416992188 0.943877578
vt 0.418945312 0.943877578
vt 0.418945312 0.998299301
vt 0.450195312 0.998299301
vt 0.450195312 0.943877578
vt 0.540039062 0.943877578
vt 0.540039062 0.998299301
vt 0.571289062 0.998299301
vt 0.571289062 0.943877578
vt 0.700195312 0.943877578
vt 0.700195312 0.998299301
vt 0.731445312 0.998299301
vt 0.731445312 0.943877578
vt 0.733398438 0.943877578
vt 0.733398438 0.998299301
vt 0.764648438 0.998299301
vt 0.764648438 0.943877578
vt 0.795898438 0.943877578
vt 0.795898438 0.998299301
vt 0.827148438 0.998299301
vt 0.827148438 0.943877578
vt 0.829101562 0.943877578
vt 0.829101562 0.998299301
vt 0.860351562 0.998299301
vt 0.860351562 0.943877578
g duwei_alter_bj-mesh_0
f 3/3/3 2/2/2 1/1/1
f 1/1/1 4/4/4 3/3/3
f 7/7/7 6/6/6 5/5/5
f 5/5/5 8/8/8 7/7/7
f 11/11/11 10/10/10 9/9/9
f 9/9/9 12/12/12 11/11/11
f 15/15/15 14/14/14 13/13/13
f 13/13/13 16/16/16 15/15/15
f 19/19/19 18/18/18 17/17/17
f 17/17/17 20/20/20 19/19/19
f 23/23/23 22/22/22 21/21/21
f 21/21/21 24/24/24 23/23/23
f 27/27/27 26/26/26 25/25/25
f 25/25/25 28/28/28 27/27/27
f 31/31/31 30/30/30 29/29/29
f 29/29/29 32/32/32 31/31/31
f 35/35/35 34/34/34 33/33/33
f 33/33/33 36/36/36 35/35/35
f 39/39/39 38/38/38 37/37/37
f 37/37/37 40/40/40 39/39/39
f 43/43/43 42/42/42 41/41/41
f 41/41/41 44/44/44 43/43/43
f 47/47/47 46/46/46 45/45/45
f 45/45/45 48/48/48 47/47/47
f 51/51/51 50/50/50 49/49/49
f 49/49/49 52/52/52 51/51/51
f 55/55/55 54/54/54 53/53/53
f 53/53/53 56/56/56 55/55/55
f 59/59/59 58/58/58 57/57/57
f 57/57/57 60/60/60 59/59/59
f 63/63/63 62/62/62 61/61/61
f 61/61/61 64/64/64 63/63/63
f 67/67/67 66/66/66 65/65/65
f 65/65/65 68/68/68 67/67/67
f 71/71/71 70/70/70 69/69/69
f 69/69/69 72/72/72 71/71/71
f 75/75/75 74/74/74 73/73/73
f 73/73/73 76/76/76 75/75/75
f 79/79/79 78/78/78 77/77/77
f 77/77/77 80/80/80 79/79/79
f 83/83/83 82/82/82 81/81/81
f 81/81/81 84/84/84 83/83/83
f 87/87/87 86/86/86 85/85/85
f 85/85/85 88/88/88 87/87/87
f 91/91/91 90/90/90 89/89/89
f 89/89/89 92/92/92 91/91/91
f 95/95/95 94/94/94 93/93/93
f 93/93/93 96/96/96 95/95/95
f 99/99/99 98/98/98 97/97/97
f 97/97/97 100/100/100 99/99/99
f 103/103/103 102/102/102 101/101/101
f 101/101/101 104/104/104 103/103/103
f 107/107/107 106/106/106 105/105/105
f 105/105/105 108/108/108 107/107/107
f 111/111/111 110/110/110 109/109/109
f 109/109/109 112/112/112 111/111/111
f 115/115/115 114/114/114 113/113/113
f 113/113/113 116/116/116 115/115/115
f 119/119/119 118/118/118 117/117/117
f 117/117/117 120/120/120 119/119/119
f 123/123/123 122/122/122 121/121/121
f 121/121/121 124/124/124 123/123/123
f 127/127/127 126/126/126 125/125/125
f 125/125/125 128/128/128 127/127/127
f 131/131/131 130/130/130 129/129/129
f 129/129/129 132/132/132 131/131/131
f 135/135/135 134/134/134 133/133/133
f 133/133/133 136/136/136 135/135/135
f 139/139/139 138/138/138 137/137/137
f 137/137/137 140/140/140 139/139/139
f 143/143/143 142/142/142 141/141/141
f 141/141/141 144/144/144 143/143/143
f 147/147/147 146/146/146 145/145/145
f 145/145/145 148/148/148 147/147/147
f 151/151/151 150/150/150 149/149/149
f 149/149/149 152/152/152 151/151/151
f 155/155/155 154/154/154 153/153/153
f 153/153/153 156/156/156 155/155/155
f 159/159/159 158/158/158 157/157/157
f 157/157/157 160/160/160 159/159/159
f 163/163/163 162/162/162 161/161/161
f 161/161/161 164/164/164 163/163/163
f 167/167/167 166/166/166 165/165/165
f 165/165/165 168/168/168 167/167/167
f 171/171/171 170/170/170 169/169/169
f 169/169/169 172/172/172 171/171/171
f 175/175/175 174/174/174 173/173/173
f 173/173/173 176/176/176 175/175/175
f 179/179/179 178/178/178 177/177/177
f 177/177/177 180/180/180 179/179/179
f 183/183/183 182/182/182 181/181/181
f 181/181/181 184/184/184 183/183/183
f 187/187/187 186/186/186 185/185/185
f 185/185/185 188/188/188 187/187/187
f 191/191/191 190/190/190 189/189/189
f 189/189/189 192/192/192 191/191/191
f 195/195/195 194/194/194 193/193/193
f 193/193/193 196/196/196 195/195/195
f 199/199/199 198/198/198 197/197/197
f 197/197/197 200/200/200 199/199/199
f 203/203/203 202/202/202 201/201/201
f 201/201/201 204/204/204 203/203/203
f 207/207/207 206/206/206 205/205/205
f 205/205/205 208/208/208 207/207/207
f 211/211/211 210/210/210 209/209/209
f 209/209/209 212/212/212 211/211/211
f 215/215/215 214/214/214 213/213/213
f 213/213/213 216/216/216 215/215/215
f 219/219/219 218/218/218 217/217/217
f 217/217/217 220/220/220 219/219/219
f 223/223/223 222/222/222 221/221/221
f 221/221/221 224/224/224 223/223/223
f 227/227/227 226/226/226 225/225/225
f 225/225/225 228/228/228 227/227/227
f 231/231/231 230/230/230 229/229/229
f 229/229/229 232/232/232 231/231/231
f 235/235/235 234/234/234 233/233/233
f 233/233/233 236/236/236 235/235/235
f 239/239/239 238/238/238 237/237/237
f 237/237/237 240/240/240 239/239/239
f 243/243/243 242/242/242 241/241/241
f 241/241/241 244/244/244 243/243/243
f 247/247/247 246/246/246 245/245/245
f 245/245/245 248/248/248 247/247/247
f 251/251/251 250/250/250 249/249/249
f 249/249/249 252/252/252 251/251/251
f 255/255/255 254/254/254 253/253/253
f 253/253/253 256/256/256 255/255/255
f 259/259/259 258/258/258 257/257/257
f 257/257/257 260/260/260 259/259/259
f 263/263/263 262/262/262 261/261/261
f 261/261/261 264/264/264 263/263/263
f 267/267/267 266/266/266 265/265/265
f 265/265/265 268/268/268 267/267/267
f 271/271/271 270/270/270 269/269/269
f 269/269/269 272/272/272 271/271/271
f 275/275/275 274/274/274 273/273/273
f 273/273/273 276/276/276 275/275/275
f 279/279/279 278/278/278 277/277/277
f 277/277/277 280/280/280 279/279/279
f 283/283/283 282/282/282 281/281/281
f 281/281/281 284/284/284 283/283/283
f 287/287/287 286/286/286 285/285/285
f 285/285/285 288/288/288 287/287/287
f 291/291/291 290/290/290 289/289/289
f 289/289/289 292/292/292 291/291/291
f 295/295/295 294/294/294 293/293/293
f 293/293/293 296/296/296 295/295/295
f 299/299/299 298/298/298 297/297/297
f 297/297/297 300/300/300 299/299/299
f 303/303/303 302/302/302 301/301/301
f 301/301/301 304/304/304 303/303/303
f 307/307/307 306/306/306 305/305/305
f 305/305/305 308/308/308 307/307/307
f 311/311/311 310/310/310 309/309/309
f 309/309/309 312/312/312 311/311/311
f 315/315/315 314/314/314 313/313/313
f 313/313/313 316/316/316 315/315/315
f 319/319/319 318/318/318 317/317/317
f 317/317/317 320/320/320 319/319/319
f 323/323/323 322/322/322 321/321/321
f 321/321/321 324/324/324 323/323/323
f 327/327/327 326/326/326 325/325/325
f 325/325/325 328/328/328 327/327/327
f 331/331/331 330/330/330 329/329/329
f 329/329/329 332/332/332 331/331/331
f 335/335/335 334/334/334 333/333/333
f 333/333/333 336/336/336 335/335/335
f 339/339/339 338/338/338 337/337/337
f 337/337/337 340/340/340 339/339/339
f 343/343/343 342/342/342 341/341/341
f 341/341/341 344/344/344 343/343/343
f 347/347/347 346/346/346 345/345/345
f 345/345/345 348/348/348 347/347/347
f 351/351/351 350/350/350 349/349/349
f 349/349/349 352/352/352 351/351/351
f 355/355/355 354/354/354 353/353/353
f 353/353/353 356/356/356 355/355/355
f 359/359/359 358/358/358 357/357/357
f 357/357/357 360/360/360 359/359/359
