g xia_alter-mesh
v -1024 135 0
v -1024 1639 0
v -1920 1639 0
v -1920 135 0
v -128 135 0
v -128 1639 0
v -1024 1639 0
v -1024 135 0
v -992 1639 0
v -992 1767 0
v -1792 1767 0
v -1792 1639 0
v -192 1639 0
v -192 1767 0
v -992 1767 0
v -992 1639 0
v -288 7 0
v -288 135 0
v -1056 135 0
v -1056 7 0
v -1056 7 0
v -1056 135 0
v -1792 135 0
v -1792 7 0
v -64 711 0
v -64 1159 0
v -128 1159 0
v -128 711 0
v -1184 1767 0
v -1184 1895 0
v -1408 1895 0
v -1408 1767 0
v -960 1767 0
v -960 1895 0
v -1184 1895 0
v -1184 1767 0
v -64 295 0
v -64 711 0
v -128 711 0
v -128 295 0
v -1920 1223 0
v -1920 1543 0
v -1984 1543 0
v -1984 1223 0
v -1920 935 0
v -1920 1223 0
v -1984 1223 0
v -1984 935 0
v -192 1767 0
v -192 1831 0
v -384 1831 0
v -384 1767 0
v -1472 1767 0
v -1472 1831 0
v -1632 1831 0
v -1632 1767 0
v -384 1767 0
v -384 1831 0
v -544 1831 0
v -544 1767 0
v -32 167 0
v -32 423 0
v -64 423 0
v -64 167 0
v -1952 327 0
v -1952 583 0
v -1984 583 0
v -1984 327 0
v -1952 71 0
v -1952 327 0
v -1984 327 0
v -1984 71 0
v -32 423 0
v -32 679 0
v -64 679 0
v -64 423 0
v -1632 1767 0
v -1632 1831 0
v -1760 1831 0
v -1760 1767 0
v -64 1415 0
v -64 1543 0
v -128 1543 0
v -128 1415 0
v -64 1287 0
v -64 1415 0
v -128 1415 0
v -128 1287 0
v -1792 71 0
v -1792 135 0
v -1888 135 0
v -1888 71 0
v -0 743 0
v -0 839 0
v -64 839 0
v -64 743 0
v -0 1031 0
v -0 1127 0
v -64 1127 0
v -64 1031 0
v -192 39 0
v -192 103 0
v -288 103 0
v -288 39 0
v -1984 1351 0
v -1984 1511 0
v -2016 1511 0
v -2016 1351 0
v -544 1767 0
v -544 1799 0
v -704 1799 0
v -704 1767 0
v -1792 1639 0
v -1792 1703 0
v -1856 1703 0
v -1856 1639 0
v -0 967 0
v -0 1031 0
v -64 1031 0
v -64 967 0
v -1888 71 0
v -1888 135 0
v -1952 135 0
v -1952 71 0
v -1952 839 0
v -1952 903 0
v -2016 903 0
v -2016 839 0
v -0 1447 0
v -0 1511 0
v -64 1511 0
v -64 1447 0
v -64 1575 0
v -64 1639 0
v -128 1639 0
v -128 1575 0
v -1984 1223 0
v -1984 1351 0
v -2016 1351 0
v -2016 1223 0
v -1920 455 0
v -1920 583 0
v -1952 583 0
v -1952 455 0
v -704 1767 0
v -704 1799 0
v -832 1799 0
v -832 1767 0
v -1920 359 0
v -1920 455 0
v -1952 455 0
v -1952 359 0
v -1920 743 0
v -1920 839 0
v -1952 839 0
v -1952 743 0
v -1920 839 0
v -1920 935 0
v -1952 935 0
v -1952 839 0
v -0 167 0
v -0 263 0
v -32 263 0
v -32 167 0
v -0 71 0
v -0 167 0
v -32 167 0
v -32 71 0
v -224 1831 0
v -224 1863 0
v -288 1863 0
v -288 1831 0
v -1984 1127 0
v -1984 1191 0
v -2016 1191 0
v -2016 1127 0
v -928 1767 0
v -928 1831 0
v -960 1831 0
v -960 1767 0
v -1696 1831 0
v -1696 1863 0
v -1760 1863 0
v -1760 1831 0
v -32 903 0
v -32 967 0
v -64 967 0
v -64 903 0
v -2016 1287 0
v -2016 1351 0
v -2047 1351 0
v -2047 1287 0
v -1216 1895 0
v -1216 1927 0
v -1280 1927 0
v -1280 1895 0
v -1984 487 0
v -1984 551 0
v -2016 551 0
v -2016 487 0
v -160 71 0
v -160 135 0
v -192 135 0
v -192 71 0
v -32 71 0
v -32 135 0
v -64 135 0
v -64 71 0
v -1824 7 0
v -1824 71 0
v -1856 71 0
v -1856 7 0
v -1888 39 0
v -1888 71 0
v -1952 71 0
v -1952 39 0
v -0 295 0
v -0 359 0
v -32 359 0
v -32 295 0
v -2016 999 0
v -2016 1063 0
v -2047 1063 0
v -2047 999 0
v -96 231 0
v -96 295 0
v -128 295 0
v -128 231 0
v -1984 263 0
v -1984 327 0
v -2016 327 0
v -2016 263 0
v -736 1799 0
v -736 1831 0
v -800 1831 0
v -800 1799 0
v -160 1671 0
v -160 1735 0
v -192 1735 0
v -192 1671 0
v -1056 1895 0
v -1056 1927 0
v -1120 1927 0
v -1120 1895 0
v -1984 1031 0
v -1984 1095 0
v -2016 1095 0
v -2016 1031 0
v -1408 1799 0
v -1408 1863 0
v -1440 1863 0
v -1440 1799 0
v -1984 967 0
v -1984 1031 0
v -2016 1031 0
v -2016 967 0
v -576 1799 0
v -576 1831 0
v -640 1831 0
v -640 1799 0
v -1120 1895 0
v -1120 1927 0
v -1184 1927 0
v -1184 1895 0
v -32 1319 0
v -32 1383 0
v -64 1383 0
v -64 1319 0
v -2016 1415 0
v -2016 1479 0
v -2047 1479 0
v -2047 1415 0
v -96 1255 0
v -96 1287 0
v -128 1287 0
v -128 1255 0
v -1856 1639 0
v -1856 1671 0
v -1888 1671 0
v -1888 1639 0
v -32 1127 0
v -32 1159 0
v -64 1159 0
v -64 1127 0
v -96 1159 0
v -96 1191 0
v -128 1191 0
v -128 1159 0
v -96 1543 0
v -96 1575 0
v -128 1575 0
v -128 1543 0
v -256 103 0
v -256 135 0
v -288 135 0
v -288 103 0
v -96 103 0
v -96 135 0
v -128 135 0
v -128 103 0
v -32 7 0
v -32 39 0
v -64 39 0
v -64 7 0
v -128 71 0
v -128 103 0
v -160 103 0
v -160 71 0
v -32 711 0
v -32 743 0
v -64 743 0
v -64 711 0
v -0 839 0
v -0 871 0
v -32 871 0
v -32 839 0
v -1920 135 0
v -1920 167 0
v -1952 167 0
v -1952 135 0
v -2016 295 0
v -2016 327 0
v -2047 327 0
v -2047 295 0
v -1984 455 0
v -1984 487 0
v -2016 487 0
v -2016 455 0
v -160 1639 0
v -160 1671 0
v -192 1671 0
v -192 1639 0
v -800 1799 0
v -800 1831 0
v -832 1831 0
v -832 1799 0
v -2016 1255 0
v -2016 1287 0
v -2047 1287 0
v -2047 1255 0
v -32 871 0
v -32 903 0
v -64 903 0
v -64 871 0
v -2016 1383 0
v -2016 1415 0
v -2047 1415 0
v -2047 1383 0
v -640 1799 0
v -640 1831 0
v -672 1831 0
v -672 1799 0
v -1440 1767 0
v -1440 1799 0
v -1472 1799 0
v -1472 1767 0
v -1760 1767 0
v -1760 1799 0
v -1792 1799 0
v -1792 1767 0
v -1824 1703 0
v -1824 1735 0
v -1856 1735 0
v -1856 1703 0
v -1408 1767 0
v -1408 1799 0
v -1440 1799 0
v -1440 1767 0
v -32 1287 0
v -32 1319 0
v -64 1319 0
v -64 1287 0
v -896 1767 0
v -896 1799 0
v -928 1799 0
v -928 1767 0
vt 0.00048828125 0.00054526329
vt 0.00048828125 0.820610702
vt 0.437988281 0.820610702
vt 0.437988281 0.00054526329
vt 0.438964844 0.00054526329
vt 0.438964844 0.820610702
vt 0.876464844 0.820610702
vt 0.876464844 0.00054526329
vt 0.00048828125 0.821701169
vt 0.00048828125 0.891493976
vt 0.391113281 0.891493976
vt 0.391113281 0.821701169
vt 0.392089844 0.821701169
vt 0.392089844 0.891493976
vt 0.782714844 0.891493976
vt 0.782714844 0.821701169
vt 0.00048828125 0.892584503
vt 0.00048828125 0.96237731
vt 0.375488281 0.96237731
vt 0.375488281 0.892584503
vt 0.376464844 0.892584503
vt 0.376464844 0.96237731
vt 0.735839844 0.96237731
vt 0.735839844 0.892584503
vt 0.877441406 0.00054526329
vt 0.877441406 0.244820058
vt 0.908691406 0.244820058
vt 0.908691406 0.00054526329
vt 0.877441406 0.245910585
vt 0.877441406 0.315703392
vt 0.986816406 0.315703392
vt 0.986816406 0.245910585
vt 0.877441406 0.316793919
vt 0.877441406 0.386586666
vt 0.986816406 0.386586666
vt 0.986816406 0.316793919
vt 0.877441406 0.387677193
vt 0.877441406 0.61450386
vt 0.908691406 0.61450386
vt 0.908691406 0.387677193
vt 0.909667969 0.387677193
vt 0.909667969 0.562159181
vt 0.940917969 0.562159181
vt 0.940917969 0.387677193
vt 0.941894531 0.387677193
vt 0.941894531 0.544710994
vt 0.973144531 0.544710994
vt 0.973144531 0.387677193
vt 0.877441406 0.615594327
vt 0.877441406 0.650490761
vt 0.971191406 0.650490761
vt 0.971191406 0.615594327
vt 0.877441406 0.651581287
vt 0.877441406 0.686477661
vt 0.955566406 0.686477661
vt 0.955566406 0.651581287
vt 0.877441406 0.687568188
vt 0.877441406 0.722464561
vt 0.955566406 0.722464561
vt 0.955566406 0.687568188
vt 0.974121094 0.387677193
vt 0.974121094 0.527262807
vt 0.989746094 0.527262807
vt 0.989746094 0.387677193
vt 0.974121094 0.528353333
vt 0.974121094 0.667938948
vt 0.989746094 0.667938948
vt 0.989746094 0.528353333
vt 0.956542969 0.651581287
vt 0.956542969 0.791166842
vt 0.972167969 0.791166842
vt 0.972167969 0.651581287
vt 0.974121094 0.669029474
vt 0.974121094 0.808615029
vt 0.989746094 0.808615029
vt 0.989746094 0.669029474
vt 0.877441406 0.723555088
vt 0.877441406 0.758451462
vt 0.939941406 0.758451462
vt 0.939941406 0.723555088
vt 0.877441406 0.759541988
vt 0.877441406 0.829334795
vt 0.908691406 0.829334795
vt 0.908691406 0.759541988
vt 0.909667969 0.759541988
vt 0.909667969 0.829334795
vt 0.940917969 0.829334795
vt 0.940917969 0.759541988
vt 0.783691406 0.821701169
vt 0.783691406 0.856597602
vt 0.830566406 0.856597602
vt 0.830566406 0.821701169
vt 0.831542969 0.821701169
vt 0.831542969 0.874045789
vt 0.862792969 0.874045789
vt 0.862792969 0.821701169
vt 0.877441406 0.830425322
vt 0.877441406 0.882769883
vt 0.908691406 0.882769883
vt 0.908691406 0.830425322
vt 0.909667969 0.830425322
vt 0.909667969 0.865321696
vt 0.956542969 0.865321696
vt 0.956542969 0.830425322
vt 0.957519531 0.792257369
vt 0.957519531 0.879498363
vt 0.973144531 0.879498363
vt 0.973144531 0.792257369
vt 0.877441406 0.883860409
vt 0.877441406 0.901308596
vt 0.955566406 0.901308596
vt 0.955566406 0.883860409
vt 0.783691406 0.857688129
vt 0.783691406 0.892584503
vt 0.814941406 0.892584503
vt 0.814941406 0.857688129
vt 0.831542969 0.875136316
vt 0.831542969 0.91003269
vt 0.862792969 0.91003269
vt 0.862792969 0.875136316
vt 0.957519531 0.880588889
vt 0.957519531 0.915485263
vt 0.988769531 0.915485263
vt 0.988769531 0.880588889
vt 0.736816406 0.892584503
vt 0.736816406 0.927480936
vt 0.768066406 0.927480936
vt 0.768066406 0.892584503
vt 0.783691406 0.893675029
vt 0.783691406 0.928571403
vt 0.814941406 0.928571403
vt 0.814941406 0.893675029
vt 0.877441406 0.902399123
vt 0.877441406 0.937295556
vt 0.908691406 0.937295556
vt 0.908691406 0.902399123
vt 0.909667969 0.902399123
vt 0.909667969 0.97219193
vt 0.925292969 0.97219193
vt 0.925292969 0.902399123
vt 0.926269531 0.902399123
vt 0.926269531 0.97219193
vt 0.941894531 0.97219193
vt 0.941894531 0.902399123
vt 0.783691406 0.92966193
vt 0.783691406 0.947110116
vt 0.846191406 0.947110116
vt 0.846191406 0.92966193
vt 0.847167969 0.911123216
vt 0.847167969 0.963467836
vt 0.862792969 0.963467836
vt 0.862792969 0.911123216
vt 0.957519531 0.916575789
vt 0.957519531 0.96892041
vt 0.973144531 0.96892041
vt 0.973144531 0.916575789
vt 0.974121094 0.916575789
vt 0.974121094 0.96892041
vt 0.989746094 0.96892041
vt 0.989746094 0.916575789
vt 0.736816406 0.928571403
vt 0.736816406 0.980916023
vt 0.752441406 0.980916023
vt 0.752441406 0.928571403
vt 0.753417969 0.928571403
vt 0.753417969 0.980916023
vt 0.769042969 0.980916023
vt 0.769042969 0.928571403
vt 0.877441406 0.938386023
vt 0.877441406 0.95583427
vt 0.908691406 0.95583427
vt 0.908691406 0.938386023
vt 0.783691406 0.948200643
vt 0.783691406 0.983097076
vt 0.799316406 0.983097076
vt 0.799316406 0.948200643
vt 0.800292969 0.948200643
vt 0.800292969 0.983097076
vt 0.815917969 0.983097076
vt 0.815917969 0.948200643
vt 0.877441406 0.956924736
vt 0.877441406 0.974372983
vt 0.908691406 0.974372983
vt 0.908691406 0.956924736
vt 0.816894531 0.948200643
vt 0.816894531 0.983097076
vt 0.832519531 0.983097076
vt 0.832519531 0.948200643
vt 0.00048828125 0.963467836
vt 0.00048828125 0.99836421
vt 0.0161132812 0.99836421
vt 0.0161132812 0.963467836
vt 0.0170898438 0.963467836
vt 0.0170898438 0.980916023
vt 0.0483398438 0.980916023
vt 0.0483398438 0.963467836
vt 0.0493164062 0.963467836
vt 0.0493164062 0.99836421
vt 0.0649414062 0.99836421
vt 0.0649414062 0.963467836
vt 0.0659179688 0.963467836
vt 0.0659179688 0.99836421
vt 0.0815429688 0.99836421
vt 0.0815429688 0.963467836
vt 0.0825195312 0.963467836
vt 0.0825195312 0.99836421
vt 0.0981445312 0.99836421
vt 0.0981445312 0.963467836
vt 0.0991210938 0.963467836
vt 0.0991210938 0.99836421
vt 0.114746094 0.99836421
vt 0.114746094 0.963467836
vt 0.115722656 0.963467836
vt 0.115722656 0.980916023
vt 0.146972656 0.980916023
vt 0.146972656 0.963467836
vt 0.147949219 0.963467836
vt 0.147949219 0.99836421
vt 0.163574219 0.99836421
vt 0.163574219 0.963467836
vt 0.164550781 0.963467836
vt 0.164550781 0.99836421
vt 0.180175781 0.99836421
vt 0.180175781 0.963467836
vt 0.181152344 0.963467836
vt 0.181152344 0.99836421
vt 0.196777344 0.99836421
vt 0.196777344 0.963467836
vt 0.197753906 0.963467836
vt 0.197753906 0.99836421
vt 0.213378906 0.99836421
vt 0.213378906 0.963467836
vt 0.214355469 0.963467836
vt 0.214355469 0.980916023
vt 0.245605469 0.980916023
vt 0.245605469 0.963467836
vt 0.246582031 0.963467836
vt 0.246582031 0.99836421
vt 0.262207031 0.99836421
vt 0.262207031 0.963467836
vt 0.263183594 0.963467836
vt 0.263183594 0.980916023
vt 0.294433594 0.980916023
vt 0.294433594 0.963467836
vt 0.295410156 0.963467836
vt 0.295410156 0.99836421
vt 0.311035156 0.99836421
vt 0.311035156 0.963467836
vt 0.312011719 0.963467836
vt 0.312011719 0.99836421
vt 0.327636719 0.99836421
vt 0.327636719 0.963467836
vt 0.328613281 0.963467836
vt 0.328613281 0.99836421
vt 0.344238281 0.99836421
vt 0.344238281 0.963467836
vt 0.345214844 0.963467836
vt 0.345214844 0.980916023
vt 0.376464844 0.980916023
vt 0.376464844 0.963467836
vt 0.377441406 0.963467836
vt 0.377441406 0.980916023
vt 0.408691406 0.980916023
vt 0.408691406 0.963467836
vt 0.409667969 0.963467836
vt 0.409667969 0.99836421
vt 0.425292969 0.99836421
vt 0.425292969 0.963467836
vt 0.426269531 0.963467836
vt 0.426269531 0.99836421
vt 0.441894531 0.99836421
vt 0.441894531 0.963467836
vt 0.442871094 0.963467836
vt 0.442871094 0.980916023
vt 0.458496094 0.980916023
vt 0.458496094 0.963467836
vt 0.459472656 0.963467836
vt 0.459472656 0.980916023
vt 0.475097656 0.980916023
vt 0.475097656 0.963467836
vt 0.476074219 0.963467836
vt 0.476074219 0.980916023
vt 0.491699219 0.980916023
vt 0.491699219 0.963467836
vt 0.492675781 0.963467836
vt 0.492675781 0.980916023
vt 0.508300781 0.980916023
vt 0.508300781 0.963467836
vt 0.509277344 0.963467836
vt 0.509277344 0.980916023
vt 0.524902344 0.980916023
vt 0.524902344 0.963467836
vt 0.525878906 0.963467836
vt 0.525878906 0.980916023
vt 0.541503906 0.980916023
vt 0.541503906 0.963467836
vt 0.542480469 0.963467836
vt 0.542480469 0.980916023
vt 0.558105469 0.980916023
vt 0.558105469 0.963467836
vt 0.559082031 0.963467836
vt 0.559082031 0.980916023
vt 0.574707031 0.980916023
vt 0.574707031 0.963467836
vt 0.575683594 0.963467836
vt 0.575683594 0.980916023
vt 0.591308594 0.980916023
vt 0.591308594 0.963467836
vt 0.592285156 0.963467836
vt 0.592285156 0.980916023
vt 0.607910156 0.980916023
vt 0.607910156 0.963467836
vt 0.608886719 0.963467836
vt 0.608886719 0.980916023
vt 0.624511719 0.980916023
vt 0.624511719 0.963467836
vt 0.625488281 0.963467836
vt 0.625488281 0.980916023
vt 0.641113281 0.980916023
vt 0.641113281 0.963467836
vt 0.642089844 0.963467836
vt 0.642089844 0.980916023
vt 0.657714844 0.980916023
vt 0.657714844 0.963467836
vt 0.658691406 0.963467836
vt 0.658691406 0.980916023
vt 0.674316406 0.980916023
vt 0.674316406 0.963467836
vt 0.675292969 0.963467836
vt 0.675292969 0.980916023
vt 0.690917969 0.980916023
vt 0.690917969 0.963467836
vt 0.691894531 0.963467836
vt 0.691894531 0.980916023
vt 0.707519531 0.980916023
vt 0.707519531 0.963467836
vt 0.708496094 0.963467836
vt 0.708496094 0.980916023
vt 0.724121094 0.980916023
vt 0.724121094 0.963467836
vt 0.847167969 0.964558363
vt 0.847167969 0.98200655
vt 0.862792969 0.98200655
vt 0.862792969 0.964558363
vt 0.957519531 0.970010877
vt 0.957519531 0.987459123
vt 0.973144531 0.987459123
vt 0.973144531 0.970010877
vt 0.974121094 0.970010877
vt 0.974121094 0.987459123
vt 0.989746094 0.987459123
vt 0.989746094 0.970010877
vt 0.909667969 0.973282456
vt 0.909667969 0.990730643
vt 0.925292969 0.990730643
vt 0.925292969 0.973282456
vt 0.926269531 0.973282456
vt 0.926269531 0.990730643
vt 0.941894531 0.990730643
vt 0.941894531 0.973282456
vt 0.877441406 0.97546345
vt 0.877441406 0.992911696
vt 0.893066406 0.992911696
vt 0.893066406 0.97546345
vt 0.0170898438 0.98200655
vt 0.0170898438 0.999454737
vt 0.0327148438 0.999454737
vt 0.0327148438 0.98200655
vt 0.115722656 0.98200655
vt 0.115722656 0.999454737
vt 0.131347656 0.999454737
vt 0.131347656 0.98200655
vt 0.214355469 0.98200655
vt 0.214355469 0.999454737
vt 0.229980469 0.999454737
vt 0.229980469 0.98200655
g xia_alter-mesh_0
f 3/3/3 2/2/2 1/1/1
f 1/1/1 4/4/4 3/3/3
f 7/7/7 6/6/6 5/5/5
f 5/5/5 8/8/8 7/7/7
f 11/11/11 10/10/10 9/9/9
f 9/9/9 12/12/12 11/11/11
f 15/15/15 14/14/14 13/13/13
f 13/13/13 16/16/16 15/15/15
f 19/19/19 18/18/18 17/17/17
f 17/17/17 20/20/20 19/19/19
f 23/23/23 22/22/22 21/21/21
f 21/21/21 24/24/24 23/23/23
f 27/27/27 26/26/26 25/25/25
f 25/25/25 28/28/28 27/27/27
f 31/31/31 30/30/30 29/29/29
f 29/29/29 32/32/32 31/31/31
f 35/35/35 34/34/34 33/33/33
f 33/33/33 36/36/36 35/35/35
f 39/39/39 38/38/38 37/37/37
f 37/37/37 40/40/40 39/39/39
f 43/43/43 42/42/42 41/41/41
f 41/41/41 44/44/44 43/43/43
f 47/47/47 46/46/46 45/45/45
f 45/45/45 48/48/48 47/47/47
f 51/51/51 50/50/50 49/49/49
f 49/49/49 52/52/52 51/51/51
f 55/55/55 54/54/54 53/53/53
f 53/53/53 56/56/56 55/55/55
f 59/59/59 58/58/58 57/57/57
f 57/57/57 60/60/60 59/59/59
f 63/63/63 62/62/62 61/61/61
f 61/61/61 64/64/64 63/63/63
f 67/67/67 66/66/66 65/65/65
f 65/65/65 68/68/68 67/67/67
f 71/71/71 70/70/70 69/69/69
f 69/69/69 72/72/72 71/71/71
f 75/75/75 74/74/74 73/73/73
f 73/73/73 76/76/76 75/75/75
f 79/79/79 78/78/78 77/77/77
f 77/77/77 80/80/80 79/79/79
f 83/83/83 82/82/82 81/81/81
f 81/81/81 84/84/84 83/83/83
f 87/87/87 86/86/86 85/85/85
f 85/85/85 88/88/88 87/87/87
f 91/91/91 90/90/90 89/89/89
f 89/89/89 92/92/92 91/91/91
f 95/95/95 94/94/94 93/93/93
f 93/93/93 96/96/96 95/95/95
f 99/99/99 98/98/98 97/97/97
f 97/97/97 100/100/100 99/99/99
f 103/103/103 102/102/102 101/101/101
f 101/101/101 104/104/104 103/103/103
f 107/107/107 106/106/106 105/105/105
f 105/105/105 108/108/108 107/107/107
f 111/111/111 110/110/110 109/109/109
f 109/109/109 112/112/112 111/111/111
f 115/115/115 114/114/114 113/113/113
f 113/113/113 116/116/116 115/115/115
f 119/119/119 118/118/118 117/117/117
f 117/117/117 120/120/120 119/119/119
f 123/123/123 122/122/122 121/121/121
f 121/121/121 124/124/124 123/123/123
f 127/127/127 126/126/126 125/125/125
f 125/125/125 128/128/128 127/127/127
f 131/131/131 130/130/130 129/129/129
f 129/129/129 132/132/132 131/131/131
f 135/135/135 134/134/134 133/133/133
f 133/133/133 136/136/136 135/135/135
f 139/139/139 138/138/138 137/137/137
f 137/137/137 140/140/140 139/139/139
f 143/143/143 142/142/142 141/141/141
f 141/141/141 144/144/144 143/143/143
f 147/147/147 146/146/146 145/145/145
f 145/145/145 148/148/148 147/147/147
f 151/151/151 150/150/150 149/149/149
f 149/149/149 152/152/152 151/151/151
f 155/155/155 154/154/154 153/153/153
f 153/153/153 156/156/156 155/155/155
f 159/159/159 158/158/158 157/157/157
f 157/157/157 160/160/160 159/159/159
f 163/163/163 162/162/162 161/161/161
f 161/161/161 164/164/164 163/163/163
f 167/167/167 166/166/166 165/165/165
f 165/165/165 168/168/168 167/167/167
f 171/171/171 170/170/170 169/169/169
f 169/169/169 172/172/172 171/171/171
f 175/175/175 174/174/174 173/173/173
f 173/173/173 176/176/176 175/175/175
f 179/179/179 178/178/178 177/177/177
f 177/177/177 180/180/180 179/179/179
f 183/183/183 182/182/182 181/181/181
f 181/181/181 184/184/184 183/183/183
f 187/187/187 186/186/186 185/185/185
f 185/185/185 188/188/188 187/187/187
f 191/191/191 190/190/190 189/189/189
f 189/189/189 192/192/192 191/191/191
f 195/195/195 194/194/194 193/193/193
f 193/193/193 196/196/196 195/195/195
f 199/199/199 198/198/198 197/197/197
f 197/197/197 200/200/200 199/199/199
f 203/203/203 202/202/202 201/201/201
f 201/201/201 204/204/204 203/203/203
f 207/207/207 206/206/206 205/205/205
f 205/205/205 208/208/208 207/207/207
f 211/211/211 210/210/210 209/209/209
f 209/209/209 212/212/212 211/211/211
f 215/215/215 214/214/214 213/213/213
f 213/213/213 216/216/216 215/215/215
f 219/219/219 218/218/218 217/217/217
f 217/217/217 220/220/220 219/219/219
f 223/223/223 222/222/222 221/221/221
f 221/221/221 224/224/224 223/223/223
f 227/227/227 226/226/226 225/225/225
f 225/225/225 228/228/228 227/227/227
f 231/231/231 230/230/230 229/229/229
f 229/229/229 232/232/232 231/231/231
f 235/235/235 234/234/234 233/233/233
f 233/233/233 236/236/236 235/235/235
f 239/239/239 238/238/238 237/237/237
f 237/237/237 240/240/240 239/239/239
f 243/243/243 242/242/242 241/241/241
f 241/241/241 244/244/244 243/243/243
f 247/247/247 246/246/246 245/245/245
f 245/245/245 248/248/248 247/247/247
f 251/251/251 250/250/250 249/249/249
f 249/249/249 252/252/252 251/251/251
f 255/255/255 254/254/254 253/253/253
f 253/253/253 256/256/256 255/255/255
f 259/259/259 258/258/258 257/257/257
f 257/257/257 260/260/260 259/259/259
f 263/263/263 262/262/262 261/261/261
f 261/261/261 264/264/264 263/263/263
f 267/267/267 266/266/266 265/265/265
f 265/265/265 268/268/268 267/267/267
f 271/271/271 270/270/270 269/269/269
f 269/269/269 272/272/272 271/271/271
f 275/275/275 274/274/274 273/273/273
f 273/273/273 276/276/276 275/275/275
f 279/279/279 278/278/278 277/277/277
f 277/277/277 280/280/280 279/279/279
f 283/283/283 282/282/282 281/281/281
f 281/281/281 284/284/284 283/283/283
f 287/287/287 286/286/286 285/285/285
f 285/285/285 288/288/288 287/287/287
f 291/291/291 290/290/290 289/289/289
f 289/289/289 292/292/292 291/291/291
f 295/295/295 294/294/294 293/293/293
f 293/293/293 296/296/296 295/295/295
f 299/299/299 298/298/298 297/297/297
f 297/297/297 300/300/300 299/299/299
f 303/303/303 302/302/302 301/301/301
f 301/301/301 304/304/304 303/303/303
f 307/307/307 306/306/306 305/305/305
f 305/305/305 308/308/308 307/307/307
f 311/311/311 310/310/310 309/309/309
f 309/309/309 312/312/312 311/311/311
f 315/315/315 314/314/314 313/313/313
f 313/313/313 316/316/316 315/315/315
f 319/319/319 318/318/318 317/317/317
f 317/317/317 320/320/320 319/319/319
f 323/323/323 322/322/322 321/321/321
f 321/321/321 324/324/324 323/323/323
f 327/327/327 326/326/326 325/325/325
f 325/325/325 328/328/328 327/327/327
f 331/331/331 330/330/330 329/329/329
f 329/329/329 332/332/332 331/331/331
f 335/335/335 334/334/334 333/333/333
f 333/333/333 336/336/336 335/335/335
f 339/339/339 338/338/338 337/337/337
f 337/337/337 340/340/340 339/339/339
f 343/343/343 342/342/342 341/341/341
f 341/341/341 344/344/344 343/343/343
f 347/347/347 346/346/346 345/345/345
f 345/345/345 348/348/348 347/347/347
f 351/351/351 350/350/350 349/349/349
f 349/349/349 352/352/352 351/351/351
f 355/355/355 354/354/354 353/353/353
f 353/353/353 356/356/356 355/355/355
f 359/359/359 358/358/358 357/357/357
f 357/357/357 360/360/360 359/359/359
f 363/363/363 362/362/362 361/361/361
f 361/361/361 364/364/364 363/363/363
f 367/367/367 366/366/366 365/365/365
f 365/365/365 368/368/368 367/367/367
f 371/371/371 370/370/370 369/369/369
f 369/369/369 372/372/372 371/371/371
f 375/375/375 374/374/374 373/373/373
f 373/373/373 376/376/376 375/375/375
