g weikesibao_bj-mesh
v -1568 539 0
v -1568 667 0
v -1664 667 0
v -1664 539 0
v -1376 1179 0
v -1376 1307 0
v -1440 1307 0
v -1440 1179 0
v -352 635 0
v -352 731 0
v -416 731 0
v -416 635 0
v -1632 1115 0
v -1632 1211 0
v -1696 1211 0
v -1696 1115 0
v -608 1179 0
v -608 1339 0
v -640 1339 0
v -640 1179 0
v -1536 1243 0
v -1536 1307 0
v -1600 1307 0
v -1600 1243 0
v -448 955 0
v -448 1019 0
v -512 1019 0
v -512 955 0
v -512 987 0
v -512 1051 0
v -576 1051 0
v -576 987 0
v -768 315 0
v -768 379 0
v -832 379 0
v -832 315 0
v -1344 731 0
v -1344 795 0
v -1408 795 0
v -1408 731 0
v -1152 955 0
v -1152 1019 0
v -1216 1019 0
v -1216 955 0
v -608 1051 0
v -608 1179 0
v -640 1179 0
v -640 1051 0
v -1696 1051 0
v -1696 1147 0
v -1728 1147 0
v -1728 1051 0
v -352 955 0
v -352 1051 0
v -384 1051 0
v -384 955 0
v -1472 1051 0
v -1472 1083 0
v -1568 1083 0
v -1568 1051 0
v -352 1051 0
v -352 1147 0
v -384 1147 0
v -384 1051 0
v -1408 1115 0
v -1408 1179 0
v -1440 1179 0
v -1440 1115 0
v -768 1371 0
v -768 1435 0
v -800 1435 0
v -800 1371 0
v -352 891 0
v -352 923 0
v -416 923 0
v -416 891 0
v -1568 1019 0
v -1568 1051 0
v -1632 1051 0
v -1632 1019 0
v -384 923 0
v -384 955 0
v -448 955 0
v -448 923 0
v -1664 571 0
v -1664 635 0
v -1696 635 0
v -1696 571 0
v -1632 987 0
v -1632 1019 0
v -1696 1019 0
v -1696 987 0
v -576 1275 0
v -576 1339 0
v -608 1339 0
v -608 1275 0
v -416 1147 0
v -416 1211 0
v -448 1211 0
v -448 1147 0
v -512 1211 0
v -512 1275 0
v -544 1275 0
v -544 1211 0
v -1600 1211 0
v -1600 1275 0
v -1632 1275 0
v -1632 1211 0
v -640 1243 0
v -640 1307 0
v -672 1307 0
v -672 1243 0
v -1472 1307 0
v -1472 1339 0
v -1536 1339 0
v -1536 1307 0
v -576 1179 0
v -576 1243 0
v -608 1243 0
v -608 1179 0
v -544 1243 0
v -544 1307 0
v -576 1307 0
v -576 1243 0
v -800 731 0
v -800 795 0
v -832 795 0
v -832 731 0
v -320 955 0
v -320 1019 0
v -352 1019 0
v -352 955 0
v -320 891 0
v -320 955 0
v -352 955 0
v -352 891 0
v -480 1211 0
v -480 1275 0
v -512 1275 0
v -512 1211 0
v -1440 1339 0
v -1440 1371 0
v -1504 1371 0
v -1504 1339 0
v -1696 987 0
v -1696 1051 0
v -1728 1051 0
v -1728 987 0
v -1568 1051 0
v -1568 1083 0
v -1632 1083 0
v -1632 1051 0
v -1376 1339 0
v -1376 1371 0
v -1440 1371 0
v -1440 1339 0
v -384 1115 0
v -384 1179 0
v -416 1179 0
v -416 1115 0
v -768 987 0
v -768 1051 0
v -800 1051 0
v -800 987 0
v -1440 1083 0
v -1440 1115 0
v -1504 1115 0
v -1504 1083 0
v -1568 475 0
v -1568 539 0
v -1600 539 0
v -1600 475 0
v -640 1147 0
v -640 1211 0
v -672 1211 0
v -672 1147 0
v -576 1051 0
v -576 1115 0
v -608 1115 0
v -608 1051 0
v -1440 1243 0
v -1440 1275 0
v -1472 1275 0
v -1472 1243 0
v -1632 1211 0
v -1632 1243 0
v -1664 1243 0
v -1664 1211 0
v -448 1179 0
v -448 1211 0
v -480 1211 0
v -480 1179 0
v -416 955 0
v -416 987 0
v -448 987 0
v -448 955 0
v -1728 1019 0
v -1728 1051 0
v -1760 1051 0
v -1760 1019 0
v -800 379 0
v -800 411 0
v -832 411 0
v -832 379 0
v -1536 603 0
v -1536 635 0
v -1568 635 0
v -1568 603 0
v -1568 1083 0
v -1568 1115 0
v -1600 1115 0
v -1600 1083 0
v -1440 1115 0
v -1440 1147 0
v -1472 1147 0
v -1472 1115 0
v -384 1019 0
v -384 1051 0
v -416 1051 0
v -416 1019 0
v -1664 1083 0
v -1664 1115 0
v -1696 1115 0
v -1696 1083 0
v -1504 1083 0
v -1504 1115 0
v -1536 1115 0
v -1536 1083 0
v -768 955 0
v -768 987 0
v -800 987 0
v -800 955 0
v -576 1019 0
v -576 1051 0
v -608 1051 0
v -608 1019 0
v -480 1179 0
v -480 1211 0
v -512 1211 0
v -512 1179 0
v -640 1115 0
v -640 1147 0
v -672 1147 0
v -672 1115 0
v -1632 1019 0
v -1632 1051 0
v -1664 1051 0
v -1664 1019 0
v -1376 1307 0
v -1376 1339 0
v -1408 1339 0
v -1408 1307 0
v -1504 1275 0
v -1504 1307 0
v -1536 1307 0
v -1536 1275 0
v -736 1371 0
v -736 1403 0
v -768 1403 0
v -768 1371 0
v -448 923 0
v -448 955 0
v -480 955 0
v -480 923 0
v -1664 539 0
v -1664 571 0
v -1696 571 0
v -1696 539 0
vt 0.001953125 0.00232559443
vt 0.001953125 0.300000012
vt 0.189453125 0.300000012
vt 0.189453125 0.00232559443
vt 0.193359375 0.00232559443
vt 0.193359375 0.300000012
vt 0.318359375 0.300000012
vt 0.318359375 0.00232559443
vt 0.322265625 0.00232559443
vt 0.322265625 0.225581408
vt 0.447265625 0.225581408
vt 0.447265625 0.00232559443
vt 0.451171875 0.00232559443
vt 0.451171875 0.225581408
vt 0.576171875 0.225581408
vt 0.576171875 0.00232559443
vt 0.580078125 0.00232559443
vt 0.580078125 0.374418616
vt 0.642578125 0.374418616
vt 0.642578125 0.00232559443
vt 0.646484375 0.00232559443
vt 0.646484375 0.151162803
vt 0.771484375 0.151162803
vt 0.771484375 0.00232559443
vt 0.775390625 0.00232559443
vt 0.775390625 0.151162803
vt 0.900390625 0.151162803
vt 0.900390625 0.00232559443
vt 0.646484375 0.155813932
vt 0.646484375 0.304651141
vt 0.771484375 0.304651141
vt 0.771484375 0.155813932
vt 0.775390625 0.155813932
vt 0.775390625 0.304651141
vt 0.900390625 0.304651141
vt 0.900390625 0.155813932
vt 0.322265625 0.230232537
vt 0.322265625 0.379069746
vt 0.447265625 0.379069746
vt 0.447265625 0.230232537
vt 0.451171875 0.230232537
vt 0.451171875 0.379069746
vt 0.576171875 0.379069746
vt 0.576171875 0.230232537
vt 0.904296875 0.00232559443
vt 0.904296875 0.300000012
vt 0.966796875 0.300000012
vt 0.966796875 0.00232559443
vt 0.001953125 0.304651141
vt 0.001953125 0.527907014
vt 0.064453125 0.527907014
vt 0.064453125 0.304651141
vt 0.068359375 0.304651141
vt 0.068359375 0.527907014
vt 0.130859375 0.527907014
vt 0.130859375 0.304651141
vt 0.646484375 0.30930233
vt 0.646484375 0.383720934
vt 0.833984375 0.383720934
vt 0.833984375 0.30930233
vt 0.134765625 0.304651141
vt 0.134765625 0.527907014
vt 0.197265625 0.527907014
vt 0.197265625 0.304651141
vt 0.201171875 0.304651141
vt 0.201171875 0.45348835
vt 0.263671875 0.45348835
vt 0.263671875 0.304651141
vt 0.904296875 0.304651141
vt 0.904296875 0.45348835
vt 0.966796875 0.45348835
vt 0.966796875 0.304651141
vt 0.322265625 0.383720934
vt 0.322265625 0.458139539
vt 0.447265625 0.458139539
vt 0.447265625 0.383720934
vt 0.451171875 0.383720934
vt 0.451171875 0.458139539
vt 0.576171875 0.458139539
vt 0.576171875 0.383720934
vt 0.646484375 0.388372064
vt 0.646484375 0.462790668
vt 0.771484375 0.462790668
vt 0.771484375 0.388372064
vt 0.837890625 0.30930233
vt 0.837890625 0.458139539
vt 0.900390625 0.458139539
vt 0.900390625 0.30930233
vt 0.322265625 0.462790668
vt 0.322265625 0.537209272
vt 0.447265625 0.537209272
vt 0.447265625 0.462790668
vt 0.580078125 0.379069746
vt 0.580078125 0.527907014
vt 0.642578125 0.527907014
vt 0.642578125 0.379069746
vt 0.201171875 0.458139539
vt 0.201171875 0.606976748
vt 0.263671875 0.606976748
vt 0.263671875 0.458139539
vt 0.904296875 0.458139539
vt 0.904296875 0.606976748
vt 0.966796875 0.606976748
vt 0.966796875 0.458139539
vt 0.451171875 0.462790668
vt 0.451171875 0.611627936
vt 0.513671875 0.611627936
vt 0.513671875 0.462790668
vt 0.837890625 0.462790668
vt 0.837890625 0.611627936
vt 0.900390625 0.611627936
vt 0.900390625 0.462790668
vt 0.646484375 0.467441857
vt 0.646484375 0.541860461
vt 0.771484375 0.541860461
vt 0.771484375 0.467441857
vt 0.001953125 0.532558143
vt 0.001953125 0.681395352
vt 0.064453125 0.681395352
vt 0.064453125 0.532558143
vt 0.068359375 0.532558143
vt 0.068359375 0.681395352
vt 0.130859375 0.681395352
vt 0.130859375 0.532558143
vt 0.134765625 0.532558143
vt 0.134765625 0.681395352
vt 0.197265625 0.681395352
vt 0.197265625 0.532558143
vt 0.580078125 0.532558143
vt 0.580078125 0.681395352
vt 0.642578125 0.681395352
vt 0.642578125 0.532558143
vt 0.322265625 0.541860461
vt 0.322265625 0.69069767
vt 0.384765625 0.69069767
vt 0.384765625 0.541860461
vt 0.646484375 0.54651165
vt 0.646484375 0.695348859
vt 0.708984375 0.695348859
vt 0.708984375 0.54651165
vt 0.451171875 0.616279066
vt 0.451171875 0.69069767
vt 0.576171875 0.69069767
vt 0.576171875 0.616279066
vt 0.712890625 0.54651165
vt 0.712890625 0.695348859
vt 0.775390625 0.695348859
vt 0.775390625 0.54651165
vt 0.837890625 0.616279066
vt 0.837890625 0.69069767
vt 0.962890625 0.69069767
vt 0.962890625 0.616279066
vt 0.001953125 0.686046481
vt 0.001953125 0.760465145
vt 0.126953125 0.760465145
vt 0.126953125 0.686046481
vt 0.201171875 0.611627936
vt 0.201171875 0.760465145
vt 0.263671875 0.760465145
vt 0.263671875 0.611627936
vt 0.130859375 0.686046481
vt 0.130859375 0.83488369
vt 0.193359375 0.83488369
vt 0.193359375 0.686046481
vt 0.322265625 0.695348859
vt 0.322265625 0.769767463
vt 0.447265625 0.769767463
vt 0.447265625 0.695348859
vt 0.580078125 0.686046481
vt 0.580078125 0.83488369
vt 0.642578125 0.83488369
vt 0.642578125 0.686046481
vt 0.451171875 0.695348859
vt 0.451171875 0.844186068
vt 0.513671875 0.844186068
vt 0.513671875 0.695348859
vt 0.837890625 0.695348859
vt 0.837890625 0.844186068
vt 0.900390625 0.844186068
vt 0.900390625 0.695348859
vt 0.904296875 0.695348859
vt 0.904296875 0.769767463
vt 0.966796875 0.769767463
vt 0.966796875 0.695348859
vt 0.646484375 0.699999988
vt 0.646484375 0.774418592
vt 0.708984375 0.774418592
vt 0.708984375 0.699999988
vt 0.712890625 0.699999988
vt 0.712890625 0.774418592
vt 0.775390625 0.774418592
vt 0.775390625 0.699999988
vt 0.001953125 0.765116274
vt 0.001953125 0.839534879
vt 0.064453125 0.839534879
vt 0.064453125 0.765116274
vt 0.201171875 0.765116274
vt 0.201171875 0.839534879
vt 0.263671875 0.839534879
vt 0.263671875 0.765116274
vt 0.322265625 0.774418592
vt 0.322265625 0.848837197
vt 0.384765625 0.848837197
vt 0.384765625 0.774418592
vt 0.904296875 0.774418592
vt 0.904296875 0.848837197
vt 0.966796875 0.848837197
vt 0.966796875 0.774418592
vt 0.646484375 0.779069781
vt 0.646484375 0.853488386
vt 0.708984375 0.853488386
vt 0.708984375 0.779069781
vt 0.712890625 0.779069781
vt 0.712890625 0.853488386
vt 0.775390625 0.853488386
vt 0.775390625 0.779069781
vt 0.130859375 0.839534879
vt 0.130859375 0.913953483
vt 0.193359375 0.913953483
vt 0.193359375 0.839534879
vt 0.580078125 0.839534879
vt 0.580078125 0.913953483
vt 0.642578125 0.913953483
vt 0.642578125 0.839534879
vt 0.001953125 0.844186068
vt 0.001953125 0.918604672
vt 0.064453125 0.918604672
vt 0.064453125 0.844186068
vt 0.201171875 0.844186068
vt 0.201171875 0.918604672
vt 0.263671875 0.918604672
vt 0.263671875 0.844186068
vt 0.451171875 0.848837197
vt 0.451171875 0.923255801
vt 0.513671875 0.923255801
vt 0.513671875 0.848837197
vt 0.837890625 0.848837197
vt 0.837890625 0.923255801
vt 0.900390625 0.923255801
vt 0.900390625 0.848837197
vt 0.322265625 0.853488386
vt 0.322265625 0.92790699
vt 0.384765625 0.92790699
vt 0.384765625 0.853488386
vt 0.904296875 0.853488386
vt 0.904296875 0.92790699
vt 0.966796875 0.92790699
vt 0.966796875 0.853488386
vt 0.646484375 0.858139515
vt 0.646484375 0.932558119
vt 0.708984375 0.932558119
vt 0.708984375 0.858139515
vt 0.712890625 0.858139515
vt 0.712890625 0.932558119
vt 0.775390625 0.932558119
vt 0.775390625 0.858139515
vt 0.130859375 0.918604672
vt 0.130859375 0.993023276
vt 0.193359375 0.993023276
vt 0.193359375 0.918604672
vt 0.580078125 0.918604672
vt 0.580078125 0.993023276
vt 0.642578125 0.993023276
vt 0.642578125 0.918604672
vt 0.001953125 0.923255801
vt 0.001953125 0.997674406
vt 0.064453125 0.997674406
vt 0.064453125 0.923255801
g weikesibao_bj-mesh_0
f 3/3/3 2/2/2 1/1/1
f 1/1/1 4/4/4 3/3/3
f 7/7/7 6/6/6 5/5/5
f 5/5/5 8/8/8 7/7/7
f 11/11/11 10/10/10 9/9/9
f 9/9/9 12/12/12 11/11/11
f 15/15/15 14/14/14 13/13/13
f 13/13/13 16/16/16 15/15/15
f 19/19/19 18/18/18 17/17/17
f 17/17/17 20/20/20 19/19/19
f 23/23/23 22/22/22 21/21/21
f 21/21/21 24/24/24 23/23/23
f 27/27/27 26/26/26 25/25/25
f 25/25/25 28/28/28 27/27/27
f 31/31/31 30/30/30 29/29/29
f 29/29/29 32/32/32 31/31/31
f 35/35/35 34/34/34 33/33/33
f 33/33/33 36/36/36 35/35/35
f 39/39/39 38/38/38 37/37/37
f 37/37/37 40/40/40 39/39/39
f 43/43/43 42/42/42 41/41/41
f 41/41/41 44/44/44 43/43/43
f 47/47/47 46/46/46 45/45/45
f 45/45/45 48/48/48 47/47/47
f 51/51/51 50/50/50 49/49/49
f 49/49/49 52/52/52 51/51/51
f 55/55/55 54/54/54 53/53/53
f 53/53/53 56/56/56 55/55/55
f 59/59/59 58/58/58 57/57/57
f 57/57/57 60/60/60 59/59/59
f 63/63/63 62/62/62 61/61/61
f 61/61/61 64/64/64 63/63/63
f 67/67/67 66/66/66 65/65/65
f 65/65/65 68/68/68 67/67/67
f 71/71/71 70/70/70 69/69/69
f 69/69/69 72/72/72 71/71/71
f 75/75/75 74/74/74 73/73/73
f 73/73/73 76/76/76 75/75/75
f 79/79/79 78/78/78 77/77/77
f 77/77/77 80/80/80 79/79/79
f 83/83/83 82/82/82 81/81/81
f 81/81/81 84/84/84 83/83/83
f 87/87/87 86/86/86 85/85/85
f 85/85/85 88/88/88 87/87/87
f 91/91/91 90/90/90 89/89/89
f 89/89/89 92/92/92 91/91/91
f 95/95/95 94/94/94 93/93/93
f 93/93/93 96/96/96 95/95/95
f 99/99/99 98/98/98 97/97/97
f 97/97/97 100/100/100 99/99/99
f 103/103/103 102/102/102 101/101/101
f 101/101/101 104/104/104 103/103/103
f 107/107/107 106/106/106 105/105/105
f 105/105/105 108/108/108 107/107/107
f 111/111/111 110/110/110 109/109/109
f 109/109/109 112/112/112 111/111/111
f 115/115/115 114/114/114 113/113/113
f 113/113/113 116/116/116 115/115/115
f 119/119/119 118/118/118 117/117/117
f 117/117/117 120/120/120 119/119/119
f 123/123/123 122/122/122 121/121/121
f 121/121/121 124/124/124 123/123/123
f 127/127/127 126/126/126 125/125/125
f 125/125/125 128/128/128 127/127/127
f 131/131/131 130/130/130 129/129/129
f 129/129/129 132/132/132 131/131/131
f 135/135/135 134/134/134 133/133/133
f 133/133/133 136/136/136 135/135/135
f 139/139/139 138/138/138 137/137/137
f 137/137/137 140/140/140 139/139/139
f 143/143/143 142/142/142 141/141/141
f 141/141/141 144/144/144 143/143/143
f 147/147/147 146/146/146 145/145/145
f 145/145/145 148/148/148 147/147/147
f 151/151/151 150/150/150 149/149/149
f 149/149/149 152/152/152 151/151/151
f 155/155/155 154/154/154 153/153/153
f 153/153/153 156/156/156 155/155/155
f 159/159/159 158/158/158 157/157/157
f 157/157/157 160/160/160 159/159/159
f 163/163/163 162/162/162 161/161/161
f 161/161/161 164/164/164 163/163/163
f 167/167/167 166/166/166 165/165/165
f 165/165/165 168/168/168 167/167/167
f 171/171/171 170/170/170 169/169/169
f 169/169/169 172/172/172 171/171/171
f 175/175/175 174/174/174 173/173/173
f 173/173/173 176/176/176 175/175/175
f 179/179/179 178/178/178 177/177/177
f 177/177/177 180/180/180 179/179/179
f 183/183/183 182/182/182 181/181/181
f 181/181/181 184/184/184 183/183/183
f 187/187/187 186/186/186 185/185/185
f 185/185/185 188/188/188 187/187/187
f 191/191/191 190/190/190 189/189/189
f 189/189/189 192/192/192 191/191/191
f 195/195/195 194/194/194 193/193/193
f 193/193/193 196/196/196 195/195/195
f 199/199/199 198/198/198 197/197/197
f 197/197/197 200/200/200 199/199/199
f 203/203/203 202/202/202 201/201/201
f 201/201/201 204/204/204 203/203/203
f 207/207/207 206/206/206 205/205/205
f 205/205/205 208/208/208 207/207/207
f 211/211/211 210/210/210 209/209/209
f 209/209/209 212/212/212 211/211/211
f 215/215/215 214/214/214 213/213/213
f 213/213/213 216/216/216 215/215/215
f 219/219/219 218/218/218 217/217/217
f 217/217/217 220/220/220 219/219/219
f 223/223/223 222/222/222 221/221/221
f 221/221/221 224/224/224 223/223/223
f 227/227/227 226/226/226 225/225/225
f 225/225/225 228/228/228 227/227/227
f 231/231/231 230/230/230 229/229/229
f 229/229/229 232/232/232 231/231/231
f 235/235/235 234/234/234 233/233/233
f 233/233/233 236/236/236 235/235/235
f 239/239/239 238/238/238 237/237/237
f 237/237/237 240/240/240 239/239/239
f 243/243/243 242/242/242 241/241/241
f 241/241/241 244/244/244 243/243/243
f 247/247/247 246/246/246 245/245/245
f 245/245/245 248/248/248 247/247/247
f 251/251/251 250/250/250 249/249/249
f 249/249/249 252/252/252 251/251/251
f 255/255/255 254/254/254 253/253/253
f 253/253/253 256/256/256 255/255/255
f 259/259/259 258/258/258 257/257/257
f 257/257/257 260/260/260 259/259/259
f 263/263/263 262/262/262 261/261/261
f 261/261/261 264/264/264 263/263/263
f 267/267/267 266/266/266 265/265/265
f 265/265/265 268/268/268 267/267/267
