g lingbo_16-mesh
v -384 265 0
v -384 1481 0
v -1120 1481 0
v -1120 265 0
v -1120 265 0
v -1120 1481 0
v -1824 1481 0
v -1824 265 0
v -1344 0 0
v -1344 265 0
v -1888 265 0
v -1888 0 0
v -800 0 0
v -800 265 0
v -1344 265 0
v -1344 0 0
v -32 521 0
v -32 873 0
v -384 873 0
v -384 521 0
v -32 873 0
v -32 1225 0
v -384 1225 0
v -384 873 0
v -544 1481 0
v -544 1737 0
v -992 1737 0
v -992 1481 0
v -992 1481 0
v -992 1737 0
v -1408 1737 0
v -1408 1481 0
v -1824 1129 0
v -1824 1449 0
v -2047 1449 0
v -2047 1129 0
v -1824 777 0
v -1824 1097 0
v -2047 1097 0
v -2047 777 0
v -1824 489 0
v -1824 777 0
v -2047 777 0
v -2047 489 0
v -224 1225 0
v -224 1417 0
v -384 1417 0
v -384 1225 0
v -576 137 0
v -576 265 0
v -800 265 0
v -800 137 0
v -1408 1481 0
v -1408 1641 0
v -1568 1641 0
v -1568 1481 0
v -160 425 0
v -160 521 0
v -384 521 0
v -384 425 0
v -416 1481 0
v -416 1609 0
v -544 1609 0
v -544 1481 0
v -1952 1449 0
v -1952 1577 0
v -2047 1577 0
v -2047 1449 0
v -1280 1737 0
v -1280 1833 0
v -1408 1833 0
v -1408 1737 0
v -768 1737 0
v -768 1833 0
v -896 1833 0
v -896 1737 0
v -640 1737 0
v -640 1833 0
v -768 1833 0
v -768 1737 0
v -0 553 0
v -0 873 0
v -32 873 0
v -32 553 0
v -0 873 0
v -0 1193 0
v -32 1193 0
v -32 873 0
v -704 41 0
v -704 137 0
v -800 137 0
v -800 41 0
v -128 1225 0
v -128 1321 0
v -224 1321 0
v -224 1225 0
v -1568 1481 0
v -1568 1545 0
v -1696 1545 0
v -1696 1481 0
v -256 361 0
v -256 425 0
v -384 425 0
v -384 361 0
v -32 1321 0
v -32 1385 0
v -128 1385 0
v -128 1321 0
v -1824 393 0
v -1824 489 0
v -1888 489 0
v -1888 393 0
v -320 1417 0
v -320 1513 0
v -384 1513 0
v -384 1417 0
v -480 201 0
v -480 265 0
v -576 265 0
v -576 201 0
v -1888 425 0
v -1888 489 0
v -1952 489 0
v -1952 425 0
v -1056 1769 0
v -1056 1833 0
v -1120 1833 0
v -1120 1769 0
v -480 1609 0
v -480 1673 0
v -544 1673 0
v -544 1609 0
v -1504 1641 0
v -1504 1705 0
v -1568 1705 0
v -1568 1641 0
v -1024 1737 0
v -1024 1769 0
v -1152 1769 0
v -1152 1737 0
v -896 1737 0
v -896 1769 0
v -1024 1769 0
v -1024 1737 0
v -1824 1097 0
v -1824 1129 0
v -1920 1129 0
v -1920 1097 0
v -672 1833 0
v -672 1865 0
v -768 1865 0
v -768 1833 0
v -1920 1097 0
v -1920 1129 0
v -2016 1129 0
v -2016 1097 0
v -1888 137 0
v -1888 233 0
v -1920 233 0
v -1920 137 0
v -288 1417 0
v -288 1481 0
v -320 1481 0
v -320 1417 0
v -192 1321 0
v -192 1385 0
v -224 1385 0
v -224 1321 0
v -1920 1449 0
v -1920 1513 0
v -1952 1513 0
v -1952 1449 0
v -2016 1577 0
v -2016 1641 0
v -2047 1641 0
v -2047 1577 0
v -1696 1481 0
v -1696 1513 0
v -1760 1513 0
v -1760 1481 0
v -640 105 0
v -640 137 0
v -704 137 0
v -704 105 0
v -320 329 0
v -320 361 0
v -384 361 0
v -384 329 0
v -1952 457 0
v -1952 489 0
v -2016 489 0
v -2016 457 0
v -0 1289 0
v -0 1353 0
v -32 1353 0
v -32 1289 0
v -96 1225 0
v -96 1289 0
v -128 1289 0
v -128 1225 0
v -1408 1641 0
v -1408 1705 0
v -1440 1705 0
v -1440 1641 0
v -896 1769 0
v -896 1801 0
v -960 1801 0
v -960 1769 0
v -384 1513 0
v -384 1577 0
v -416 1577 0
v -416 1513 0
v -768 1833 0
v -768 1865 0
v -832 1865 0
v -832 1833 0
v -1888 73 0
v -1888 137 0
v -1920 137 0
v -1920 73 0
v -1248 1737 0
v -1248 1801 0
v -1280 1801 0
v -1280 1737 0
v -64 489 0
v -64 521 0
v -128 521 0
v -128 489 0
v -608 1737 0
v -608 1801 0
v -640 1801 0
v -640 1737 0
v -128 457 0
v -128 489 0
v -160 489 0
v -160 457 0
v -32 1289 0
v -32 1321 0
v -64 1321 0
v -64 1289 0
v -64 1225 0
v -64 1257 0
v -96 1257 0
v -96 1225 0
v -256 1417 0
v -256 1449 0
v -288 1449 0
v -288 1417 0
v -160 1321 0
v -160 1353 0
v -192 1353 0
v -192 1321 0
v -1888 1449 0
v -1888 1481 0
v -1920 1481 0
v -1920 1449 0
v -224 393 0
v -224 425 0
v -256 425 0
v -256 393 0
v -768 9 0
v -768 41 0
v -800 41 0
v -800 9 0
v -1920 169 0
v -1920 201 0
v -1952 201 0
v -1952 169 0
v -672 73 0
v -672 105 0
v -704 105 0
v -704 73 0
v -352 297 0
v -352 329 0
v -384 329 0
v -384 297 0
v -448 233 0
v -448 265 0
v -480 265 0
v -480 233 0
v -544 169 0
v -544 201 0
v -576 201 0
v -576 169 0
v -1824 1449 0
v -1824 1481 0
v -1856 1481 0
v -1856 1449 0
v -1088 1833 0
v -1088 1865 0
v -1120 1865 0
v -1120 1833 0
v -1120 1769 0
v -1120 1801 0
v -1152 1801 0
v -1152 1769 0
v -576 1737 0
v -576 1769 0
v -608 1769 0
v -608 1737 0
v -128 489 0
v -128 521 0
v -160 521 0
v -160 489 0
v -384 1481 0
v -384 1513 0
v -416 1513 0
v -416 1481 0
v -960 1769 0
v -960 1801 0
v -992 1801 0
v -992 1769 0
v -1216 1737 0
v -1216 1769 0
v -1248 1769 0
v -1248 1737 0
v -1984 1577 0
v -1984 1609 0
v -2016 1609 0
v -2016 1577 0
v -1568 1545 0
v -1568 1577 0
v -1600 1577 0
v -1600 1545 0
v -352 1513 0
v -352 1545 0
v -384 1545 0
v -384 1513 0
v -512 1673 0
v -512 1705 0
v -544 1705 0
v -544 1673 0
v -1440 1641 0
v -1440 1673 0
v -1472 1673 0
v -1472 1641 0
v -448 1609 0
v -448 1641 0
v -480 1641 0
v -480 1609 0
vt 0.00048828125 0.000600934029
vt 0.00048828125 0.731370211
vt 0.359863281 0.731370211
vt 0.359863281 0.000600934029
vt 0.360839844 0.000600934029
vt 0.360839844 0.731370211
vt 0.704589844 0.731370211
vt 0.704589844 0.000600934029
vt 0.705566406 0.000600934029
vt 0.705566406 0.160456717
vt 0.971191406 0.160456717
vt 0.971191406 0.000600934029
vt 0.705566406 0.161658645
vt 0.705566406 0.321514428
vt 0.971191406 0.321514428
vt 0.971191406 0.161658645
vt 0.705566406 0.322716355
vt 0.705566406 0.534254789
vt 0.877441406 0.534254789
vt 0.877441406 0.322716355
vt 0.705566406 0.535456717
vt 0.705566406 0.746995211
vt 0.877441406 0.746995211
vt 0.877441406 0.535456717
vt 0.00048828125 0.732572079
vt 0.00048828125 0.886418283
vt 0.219238281 0.886418283
vt 0.219238281 0.732572079
vt 0.220214844 0.732572079
vt 0.220214844 0.886418283
vt 0.423339844 0.886418283
vt 0.423339844 0.732572079
vt 0.878417969 0.322716355
vt 0.878417969 0.515024066
vt 0.987792969 0.515024066
vt 0.987792969 0.322716355
vt 0.878417969 0.516225934
vt 0.878417969 0.708533645
vt 0.987792969 0.708533645
vt 0.987792969 0.516225934
vt 0.878417969 0.709735572
vt 0.878417969 0.8828125
vt 0.987792969 0.8828125
vt 0.987792969 0.709735572
vt 0.424316406 0.732572079
vt 0.424316406 0.847956717
vt 0.502441406 0.847956717
vt 0.502441406 0.732572079
vt 0.503417969 0.732572079
vt 0.503417969 0.809495211
vt 0.612792969 0.809495211
vt 0.612792969 0.732572079
vt 0.613769531 0.732572079
vt 0.613769531 0.828725934
vt 0.691894531 0.828725934
vt 0.691894531 0.732572079
vt 0.705566406 0.748197079
vt 0.705566406 0.805889428
vt 0.814941406 0.805889428
vt 0.814941406 0.748197079
vt 0.705566406 0.807091355
vt 0.705566406 0.884014428
vt 0.768066406 0.884014428
vt 0.768066406 0.807091355
vt 0.815917969 0.748197079
vt 0.815917969 0.825120211
vt 0.862792969 0.825120211
vt 0.862792969 0.748197079
vt 0.503417969 0.810697079
vt 0.503417969 0.868389428
vt 0.565917969 0.868389428
vt 0.565917969 0.810697079
vt 0.613769531 0.829927921
vt 0.613769531 0.887620211
vt 0.676269531 0.887620211
vt 0.676269531 0.829927921
vt 0.424316406 0.849158645
vt 0.424316406 0.906850934
vt 0.486816406 0.906850934
vt 0.486816406 0.849158645
vt 0.769042969 0.807091355
vt 0.769042969 0.999399066
vt 0.784667969 0.999399066
vt 0.784667969 0.807091355
vt 0.785644531 0.807091355
vt 0.785644531 0.999399066
vt 0.801269531 0.999399066
vt 0.801269531 0.807091355
vt 0.815917969 0.826322079
vt 0.815917969 0.884014428
vt 0.862792969 0.884014428
vt 0.862792969 0.826322079
vt 0.503417969 0.869591355
vt 0.503417969 0.927283645
vt 0.550292969 0.927283645
vt 0.550292969 0.869591355
vt 0.878417969 0.884014428
vt 0.878417969 0.922475934
vt 0.940917969 0.922475934
vt 0.940917969 0.884014428
vt 0.705566406 0.885216355
vt 0.705566406 0.923677862
vt 0.768066406 0.923677862
vt 0.768066406 0.885216355
vt 0.551269531 0.869591355
vt 0.551269531 0.908052862
vt 0.598144531 0.908052862
vt 0.598144531 0.869591355
vt 0.941894531 0.884014428
vt 0.941894531 0.941706717
vt 0.973144531 0.941706717
vt 0.973144531 0.884014428
vt 0.815917969 0.885216355
vt 0.815917969 0.942908645
vt 0.847167969 0.942908645
vt 0.847167969 0.885216355
vt 0.00048828125 0.887620211
vt 0.00048828125 0.926081717
vt 0.0473632812 0.926081717
vt 0.0473632812 0.887620211
vt 0.0483398438 0.887620211
vt 0.0483398438 0.926081717
vt 0.0795898438 0.926081717
vt 0.0795898438 0.887620211
vt 0.0805664062 0.887620211
vt 0.0805664062 0.926081717
vt 0.111816406 0.926081717
vt 0.111816406 0.887620211
vt 0.112792969 0.887620211
vt 0.112792969 0.926081717
vt 0.144042969 0.926081717
vt 0.144042969 0.887620211
vt 0.145019531 0.887620211
vt 0.145019531 0.926081717
vt 0.176269531 0.926081717
vt 0.176269531 0.887620211
vt 0.177246094 0.887620211
vt 0.177246094 0.906850934
vt 0.239746094 0.906850934
vt 0.239746094 0.887620211
vt 0.240722656 0.887620211
vt 0.240722656 0.906850934
vt 0.303222656 0.906850934
vt 0.303222656 0.887620211
vt 0.304199219 0.887620211
vt 0.304199219 0.906850934
vt 0.351074219 0.906850934
vt 0.351074219 0.887620211
vt 0.352050781 0.887620211
vt 0.352050781 0.906850934
vt 0.398925781 0.906850934
vt 0.398925781 0.887620211
vt 0.613769531 0.888822138
vt 0.613769531 0.908052862
vt 0.660644531 0.908052862
vt 0.660644531 0.888822138
vt 0.677246094 0.829927921
vt 0.677246094 0.887620211
vt 0.692871094 0.887620211
vt 0.692871094 0.829927921
vt 0.974121094 0.884014428
vt 0.974121094 0.922475934
vt 0.989746094 0.922475934
vt 0.989746094 0.884014428
vt 0.848144531 0.885216355
vt 0.848144531 0.923677862
vt 0.863769531 0.923677862
vt 0.863769531 0.885216355
vt 0.399902344 0.887620211
vt 0.399902344 0.926081717
vt 0.415527344 0.926081717
vt 0.415527344 0.887620211
vt 0.661621094 0.888822138
vt 0.661621094 0.927283645
vt 0.677246094 0.927283645
vt 0.677246094 0.888822138
vt 0.177246094 0.908052862
vt 0.177246094 0.927283645
vt 0.208496094 0.927283645
vt 0.208496094 0.908052862
vt 0.209472656 0.908052862
vt 0.209472656 0.927283645
vt 0.240722656 0.927283645
vt 0.240722656 0.908052862
vt 0.241699219 0.908052862
vt 0.241699219 0.927283645
vt 0.272949219 0.927283645
vt 0.272949219 0.908052862
vt 0.273925781 0.908052862
vt 0.273925781 0.927283645
vt 0.305175781 0.927283645
vt 0.305175781 0.908052862
vt 0.678222656 0.888822138
vt 0.678222656 0.927283645
vt 0.693847656 0.927283645
vt 0.693847656 0.888822138
vt 0.306152344 0.908052862
vt 0.306152344 0.946514428
vt 0.321777344 0.946514428
vt 0.321777344 0.908052862
vt 0.322753906 0.908052862
vt 0.322753906 0.946514428
vt 0.338378906 0.946514428
vt 0.338378906 0.908052862
vt 0.339355469 0.908052862
vt 0.339355469 0.927283645
vt 0.370605469 0.927283645
vt 0.370605469 0.908052862
vt 0.371582031 0.908052862
vt 0.371582031 0.946514428
vt 0.387207031 0.946514428
vt 0.387207031 0.908052862
vt 0.424316406 0.908052862
vt 0.424316406 0.927283645
vt 0.455566406 0.927283645
vt 0.455566406 0.908052862
vt 0.456542969 0.908052862
vt 0.456542969 0.946514428
vt 0.472167969 0.946514428
vt 0.472167969 0.908052862
vt 0.473144531 0.908052862
vt 0.473144531 0.946514428
vt 0.488769531 0.946514428
vt 0.488769531 0.908052862
vt 0.551269531 0.909254789
vt 0.551269531 0.928485572
vt 0.582519531 0.928485572
vt 0.582519531 0.909254789
vt 0.583496094 0.909254789
vt 0.583496094 0.947716355
vt 0.599121094 0.947716355
vt 0.599121094 0.909254789
vt 0.613769531 0.909254789
vt 0.613769531 0.928485572
vt 0.629394531 0.928485572
vt 0.629394531 0.909254789
vt 0.630371094 0.909254789
vt 0.630371094 0.928485572
vt 0.645996094 0.928485572
vt 0.645996094 0.909254789
vt 0.878417969 0.923677862
vt 0.878417969 0.942908645
vt 0.894042969 0.942908645
vt 0.894042969 0.923677862
vt 0.895019531 0.923677862
vt 0.895019531 0.942908645
vt 0.910644531 0.942908645
vt 0.910644531 0.923677862
vt 0.911621094 0.923677862
vt 0.911621094 0.942908645
vt 0.927246094 0.942908645
vt 0.927246094 0.923677862
vt 0.974121094 0.923677862
vt 0.974121094 0.942908645
vt 0.989746094 0.942908645
vt 0.989746094 0.923677862
vt 0.705566406 0.924879789
vt 0.705566406 0.944110572
vt 0.721191406 0.944110572
vt 0.721191406 0.924879789
vt 0.722167969 0.924879789
vt 0.722167969 0.944110572
vt 0.737792969 0.944110572
vt 0.737792969 0.924879789
vt 0.738769531 0.924879789
vt 0.738769531 0.944110572
vt 0.754394531 0.944110572
vt 0.754394531 0.924879789
vt 0.848144531 0.924879789
vt 0.848144531 0.944110572
vt 0.863769531 0.944110572
vt 0.863769531 0.924879789
vt 0.00048828125 0.927283645
vt 0.00048828125 0.946514428
vt 0.0161132812 0.946514428
vt 0.0161132812 0.927283645
vt 0.0170898438 0.927283645
vt 0.0170898438 0.946514428
vt 0.0327148438 0.946514428
vt 0.0327148438 0.927283645
vt 0.0336914062 0.927283645
vt 0.0336914062 0.946514428
vt 0.0493164062 0.946514428
vt 0.0493164062 0.927283645
vt 0.0502929688 0.927283645
vt 0.0502929688 0.946514428
vt 0.0659179688 0.946514428
vt 0.0659179688 0.927283645
vt 0.0668945312 0.927283645
vt 0.0668945312 0.946514428
vt 0.0825195312 0.946514428
vt 0.0825195312 0.927283645
vt 0.0834960938 0.927283645
vt 0.0834960938 0.946514428
vt 0.0991210938 0.946514428
vt 0.0991210938 0.927283645
vt 0.100097656 0.927283645
vt 0.100097656 0.946514428
vt 0.115722656 0.946514428
vt 0.115722656 0.927283645
vt 0.116699219 0.927283645
vt 0.116699219 0.946514428
vt 0.132324219 0.946514428
vt 0.132324219 0.927283645
vt 0.133300781 0.927283645
vt 0.133300781 0.946514428
vt 0.148925781 0.946514428
vt 0.148925781 0.927283645
vt 0.149902344 0.927283645
vt 0.149902344 0.946514428
vt 0.165527344 0.946514428
vt 0.165527344 0.927283645
vt 0.399902344 0.927283645
vt 0.399902344 0.946514428
vt 0.415527344 0.946514428
vt 0.415527344 0.927283645
vt 0.177246094 0.928485572
vt 0.177246094 0.947716355
vt 0.192871094 0.947716355
vt 0.192871094 0.928485572
vt 0.193847656 0.928485572
vt 0.193847656 0.947716355
vt 0.209472656 0.947716355
vt 0.209472656 0.928485572
vt 0.210449219 0.928485572
vt 0.210449219 0.947716355
vt 0.226074219 0.947716355
vt 0.226074219 0.928485572
vt 0.227050781 0.928485572
vt 0.227050781 0.947716355
vt 0.242675781 0.947716355
vt 0.242675781 0.928485572
vt 0.243652344 0.928485572
vt 0.243652344 0.947716355
vt 0.259277344 0.947716355
vt 0.259277344 0.928485572
vt 0.260253906 0.928485572
vt 0.260253906 0.947716355
vt 0.275878906 0.947716355
vt 0.275878906 0.928485572
g lingbo_16-mesh_0
f 3/3/3 2/2/2 1/1/1
f 1/1/1 4/4/4 3/3/3
f 7/7/7 6/6/6 5/5/5
f 5/5/5 8/8/8 7/7/7
f 11/11/11 10/10/10 9/9/9
f 9/9/9 12/12/12 11/11/11
f 15/15/15 14/14/14 13/13/13
f 13/13/13 16/16/16 15/15/15
f 19/19/19 18/18/18 17/17/17
f 17/17/17 20/20/20 19/19/19
f 23/23/23 22/22/22 21/21/21
f 21/21/21 24/24/24 23/23/23
f 27/27/27 26/26/26 25/25/25
f 25/25/25 28/28/28 27/27/27
f 31/31/31 30/30/30 29/29/29
f 29/29/29 32/32/32 31/31/31
f 35/35/35 34/34/34 33/33/33
f 33/33/33 36/36/36 35/35/35
f 39/39/39 38/38/38 37/37/37
f 37/37/37 40/40/40 39/39/39
f 43/43/43 42/42/42 41/41/41
f 41/41/41 44/44/44 43/43/43
f 47/47/47 46/46/46 45/45/45
f 45/45/45 48/48/48 47/47/47
f 51/51/51 50/50/50 49/49/49
f 49/49/49 52/52/52 51/51/51
f 55/55/55 54/54/54 53/53/53
f 53/53/53 56/56/56 55/55/55
f 59/59/59 58/58/58 57/57/57
f 57/57/57 60/60/60 59/59/59
f 63/63/63 62/62/62 61/61/61
f 61/61/61 64/64/64 63/63/63
f 67/67/67 66/66/66 65/65/65
f 65/65/65 68/68/68 67/67/67
f 71/71/71 70/70/70 69/69/69
f 69/69/69 72/72/72 71/71/71
f 75/75/75 74/74/74 73/73/73
f 73/73/73 76/76/76 75/75/75
f 79/79/79 78/78/78 77/77/77
f 77/77/77 80/80/80 79/79/79
f 83/83/83 82/82/82 81/81/81
f 81/81/81 84/84/84 83/83/83
f 87/87/87 86/86/86 85/85/85
f 85/85/85 88/88/88 87/87/87
f 91/91/91 90/90/90 89/89/89
f 89/89/89 92/92/92 91/91/91
f 95/95/95 94/94/94 93/93/93
f 93/93/93 96/96/96 95/95/95
f 99/99/99 98/98/98 97/97/97
f 97/97/97 100/100/100 99/99/99
f 103/103/103 102/102/102 101/101/101
f 101/101/101 104/104/104 103/103/103
f 107/107/107 106/106/106 105/105/105
f 105/105/105 108/108/108 107/107/107
f 111/111/111 110/110/110 109/109/109
f 109/109/109 112/112/112 111/111/111
f 115/115/115 114/114/114 113/113/113
f 113/113/113 116/116/116 115/115/115
f 119/119/119 118/118/118 117/117/117
f 117/117/117 120/120/120 119/119/119
f 123/123/123 122/122/122 121/121/121
f 121/121/121 124/124/124 123/123/123
f 127/127/127 126/126/126 125/125/125
f 125/125/125 128/128/128 127/127/127
f 131/131/131 130/130/130 129/129/129
f 129/129/129 132/132/132 131/131/131
f 135/135/135 134/134/134 133/133/133
f 133/133/133 136/136/136 135/135/135
f 139/139/139 138/138/138 137/137/137
f 137/137/137 140/140/140 139/139/139
f 143/143/143 142/142/142 141/141/141
f 141/141/141 144/144/144 143/143/143
f 147/147/147 146/146/146 145/145/145
f 145/145/145 148/148/148 147/147/147
f 151/151/151 150/150/150 149/149/149
f 149/149/149 152/152/152 151/151/151
f 155/155/155 154/154/154 153/153/153
f 153/153/153 156/156/156 155/155/155
f 159/159/159 158/158/158 157/157/157
f 157/157/157 160/160/160 159/159/159
f 163/163/163 162/162/162 161/161/161
f 161/161/161 164/164/164 163/163/163
f 167/167/167 166/166/166 165/165/165
f 165/165/165 168/168/168 167/167/167
f 171/171/171 170/170/170 169/169/169
f 169/169/169 172/172/172 171/171/171
f 175/175/175 174/174/174 173/173/173
f 173/173/173 176/176/176 175/175/175
f 179/179/179 178/178/178 177/177/177
f 177/177/177 180/180/180 179/179/179
f 183/183/183 182/182/182 181/181/181
f 181/181/181 184/184/184 183/183/183
f 187/187/187 186/186/186 185/185/185
f 185/185/185 188/188/188 187/187/187
f 191/191/191 190/190/190 189/189/189
f 189/189/189 192/192/192 191/191/191
f 195/195/195 194/194/194 193/193/193
f 193/193/193 196/196/196 195/195/195
f 199/199/199 198/198/198 197/197/197
f 197/197/197 200/200/200 199/199/199
f 203/203/203 202/202/202 201/201/201
f 201/201/201 204/204/204 203/203/203
f 207/207/207 206/206/206 205/205/205
f 205/205/205 208/208/208 207/207/207
f 211/211/211 210/210/210 209/209/209
f 209/209/209 212/212/212 211/211/211
f 215/215/215 214/214/214 213/213/213
f 213/213/213 216/216/216 215/215/215
f 219/219/219 218/218/218 217/217/217
f 217/217/217 220/220/220 219/219/219
f 223/223/223 222/222/222 221/221/221
f 221/221/221 224/224/224 223/223/223
f 227/227/227 226/226/226 225/225/225
f 225/225/225 228/228/228 227/227/227
f 231/231/231 230/230/230 229/229/229
f 229/229/229 232/232/232 231/231/231
f 235/235/235 234/234/234 233/233/233
f 233/233/233 236/236/236 235/235/235
f 239/239/239 238/238/238 237/237/237
f 237/237/237 240/240/240 239/239/239
f 243/243/243 242/242/242 241/241/241
f 241/241/241 244/244/244 243/243/243
f 247/247/247 246/246/246 245/245/245
f 245/245/245 248/248/248 247/247/247
f 251/251/251 250/250/250 249/249/249
f 249/249/249 252/252/252 251/251/251
f 255/255/255 254/254/254 253/253/253
f 253/253/253 256/256/256 255/255/255
f 259/259/259 258/258/258 257/257/257
f 257/257/257 260/260/260 259/259/259
f 263/263/263 262/262/262 261/261/261
f 261/261/261 264/264/264 263/263/263
f 267/267/267 266/266/266 265/265/265
f 265/265/265 268/268/268 267/267/267
f 271/271/271 270/270/270 269/269/269
f 269/269/269 272/272/272 271/271/271
f 275/275/275 274/274/274 273/273/273
f 273/273/273 276/276/276 275/275/275
f 279/279/279 278/278/278 277/277/277
f 277/277/277 280/280/280 279/279/279
f 283/283/283 282/282/282 281/281/281
f 281/281/281 284/284/284 283/283/283
f 287/287/287 286/286/286 285/285/285
f 285/285/285 288/288/288 287/287/287
f 291/291/291 290/290/290 289/289/289
f 289/289/289 292/292/292 291/291/291
f 295/295/295 294/294/294 293/293/293
f 293/293/293 296/296/296 295/295/295
f 299/299/299 298/298/298 297/297/297
f 297/297/297 300/300/300 299/299/299
f 303/303/303 302/302/302 301/301/301
f 301/301/301 304/304/304 303/303/303
f 307/307/307 306/306/306 305/305/305
f 305/305/305 308/308/308 307/307/307
f 311/311/311 310/310/310 309/309/309
f 309/309/309 312/312/312 311/311/311
f 315/315/315 314/314/314 313/313/313
f 313/313/313 316/316/316 315/315/315
f 319/319/319 318/318/318 317/317/317
f 317/317/317 320/320/320 319/319/319
f 323/323/323 322/322/322 321/321/321
f 321/321/321 324/324/324 323/323/323
f 327/327/327 326/326/326 325/325/325
f 325/325/325 328/328/328 327/327/327
f 331/331/331 330/330/330 329/329/329
f 329/329/329 332/332/332 331/331/331
f 335/335/335 334/334/334 333/333/333
f 333/333/333 336/336/336 335/335/335
f 339/339/339 338/338/338 337/337/337
f 337/337/337 340/340/340 339/339/339
