g changchun_3-mesh
v -416 967 0
v -416 1767 0
v -1728 1767 0
v -1728 967 0
v -416 199 0
v -416 967 0
v -1728 967 0
v -1728 199 0
v -128 199 0
v -128 679 0
v -416 679 0
v -416 199 0
v -128 679 0
v -128 1159 0
v -416 1159 0
v -416 679 0
v -1728 743 0
v -1728 1287 0
v -1952 1287 0
v -1952 743 0
v -1728 231 0
v -1728 743 0
v -1952 743 0
v -1952 231 0
v -128 1511 0
v -128 1767 0
v -288 1767 0
v -288 1511 0
v -640 135 0
v -640 199 0
v -1248 199 0
v -1248 135 0
v -1248 135 0
v -1248 199 0
v -1824 199 0
v -1824 135 0
v -288 1383 0
v -288 1639 0
v -416 1639 0
v -416 1383 0
v -288 1159 0
v -288 1383 0
v -416 1383 0
v -416 1159 0
v -0 423 0
v -0 647 0
v -128 647 0
v -128 423 0
v -1536 1767 0
v -1536 1895 0
v -1728 1895 0
v -1728 1767 0
v -0 231 0
v -0 423 0
v -128 423 0
v -128 231 0
v -320 103 0
v -320 199 0
v -544 199 0
v -544 103 0
v -1728 1287 0
v -1728 1447 0
v -1856 1447 0
v -1856 1287 0
v -1728 1543 0
v -1728 1735 0
v -1824 1735 0
v -1824 1543 0
v -1952 455 0
v -1952 743 0
v -2016 743 0
v -2016 455 0
v -1952 743 0
v -1952 1031 0
v -2016 1031 0
v -2016 743 0
v -1280 71 0
v -1280 135 0
v -1536 135 0
v -1536 71 0
v -1952 263 0
v -1952 423 0
v -2047 423 0
v -2047 263 0
v -1536 71 0
v -1536 135 0
v -1760 135 0
v -1760 71 0
v -672 1767 0
v -672 1799 0
v -1056 1799 0
v -1056 1767 0
v -1056 1767 0
v -1056 1799 0
v -1408 1799 0
v -1408 1767 0
v -192 1351 0
v -192 1511 0
v -256 1511 0
v -256 1351 0
v -192 1191 0
v -192 1351 0
v -256 1351 0
v -256 1191 0
v -288 1639 0
v -288 1767 0
v -352 1767 0
v -352 1639 0
v -64 839 0
v -64 967 0
v -128 967 0
v -128 839 0
v -64 743 0
v -64 839 0
v -128 839 0
v -128 743 0
v -2016 487 0
v -2016 679 0
v -2047 679 0
v -2047 487 0
v -2016 679 0
v -2016 871 0
v -2047 871 0
v -2047 679 0
v -1472 39 0
v -1472 71 0
v -1632 71 0
v -1632 39 0
v -1312 39 0
v -1312 71 0
v -1472 71 0
v -1472 39 0
v -64 647 0
v -64 711 0
v -128 711 0
v -128 647 0
v -1952 1127 0
v -1952 1255 0
v -1984 1255 0
v -1984 1127 0
v -352 1703 0
v -352 1767 0
v -416 1767 0
v -416 1703 0
v -1312 1799 0
v -1312 1831 0
v -1440 1831 0
v -1440 1799 0
v -256 135 0
v -256 199 0
v -320 199 0
v -320 135 0
v -256 1255 0
v -256 1383 0
v -288 1383 0
v -288 1255 0
v -1728 199 0
v -1728 231 0
v -1824 231 0
v -1824 199 0
v -1440 1799 0
v -1440 1831 0
v -1536 1831 0
v -1536 1799 0
v -1952 1031 0
v -1952 1127 0
v -1984 1127 0
v -1984 1031 0
v -256 1159 0
v -256 1255 0
v -288 1255 0
v -288 1159 0
v -1472 1767 0
v -1472 1799 0
v -1536 1799 0
v -1536 1767 0
v -1760 1511 0
v -1760 1543 0
v -1824 1543 0
v -1824 1511 0
v -1728 1447 0
v -1728 1511 0
v -1760 1511 0
v -1760 1447 0
v -544 167 0
v -544 199 0
v -608 199 0
v -608 167 0
v -1760 103 0
v -1760 135 0
v -1824 135 0
v -1824 103 0
v -1888 1287 0
v -1888 1351 0
v -1920 1351 0
v -1920 1287 0
v -64 199 0
v -64 231 0
v -128 231 0
v -128 199 0
v -1472 1831 0
v -1472 1863 0
v -1536 1863 0
v -1536 1831 0
v -1824 1671 0
v -1824 1735 0
v -1856 1735 0
v -1856 1671 0
v -96 1607 0
v -96 1671 0
v -128 1671 0
v -128 1607 0
v -96 1671 0
v -96 1735 0
v -128 1735 0
v -128 1671 0
v -1824 199 0
v -1824 231 0
v -1888 231 0
v -1888 199 0
v -256 1447 0
v -256 1511 0
v -288 1511 0
v -288 1447 0
v -1824 1607 0
v -1824 1671 0
v -1856 1671 0
v -1856 1607 0
v -96 711 0
v -96 743 0
v -128 743 0
v -128 711 0
v -32 647 0
v -32 679 0
v -64 679 0
v -64 647 0
v -224 1159 0
v -224 1191 0
v -256 1191 0
v -256 1159 0
v -96 967 0
v -96 999 0
v -128 999 0
v -128 967 0
v -1824 167 0
v -1824 199 0
v -1856 199 0
v -1856 167 0
v -384 71 0
v -384 103 0
v -416 103 0
v -416 71 0
v -1952 231 0
v -1952 263 0
v -1984 263 0
v -1984 231 0
v -2016 231 0
v -2016 263 0
v -2047 263 0
v -2047 231 0
v -1856 1287 0
v -1856 1319 0
v -1888 1319 0
v -1888 1287 0
v -864 1799 0
v -864 1831 0
v -896 1831 0
v -896 1799 0
v -128 1767 0
v -128 1799 0
v -160 1799 0
v -160 1767 0
v -256 1415 0
v -256 1447 0
v -288 1447 0
v -288 1415 0
v -1728 1863 0
v -1728 1895 0
v -1760 1895 0
v -1760 1863 0
v -160 1479 0
v -160 1511 0
v -192 1511 0
v -192 1479 0
v -1824 1447 0
v -1824 1479 0
v -1856 1479 0
v -1856 1447 0
v -384 1639 0
v -384 1671 0
v -416 1671 0
v -416 1639 0
v -1824 1543 0
v -1824 1575 0
v -1856 1575 0
v -1856 1543 0
vt 0.00048828125 0.000574052334
vt 0.00048828125 0.459816277
vt 0.641113281 0.459816277
vt 0.641113281 0.000574052334
vt 0.00048828125 0.460964382
vt 0.00048828125 0.901836991
vt 0.641113281 0.901836991
vt 0.641113281 0.460964382
vt 0.642089844 0.000574052334
vt 0.642089844 0.276119411
vt 0.782714844 0.276119411
vt 0.782714844 0.000574052334
vt 0.783691406 0.000574052334
vt 0.783691406 0.276119411
vt 0.924316406 0.276119411
vt 0.924316406 0.000574052334
vt 0.642089844 0.277267516
vt 0.642089844 0.589552283
vt 0.751464844 0.589552283
vt 0.751464844 0.277267516
vt 0.752441406 0.277267516
vt 0.752441406 0.571182549
vt 0.861816406 0.571182549
vt 0.861816406 0.277267516
vt 0.862792969 0.277267516
vt 0.862792969 0.424225032
vt 0.940917969 0.424225032
vt 0.940917969 0.277267516
vt 0.642089844 0.590700388
vt 0.642089844 0.627439737
vt 0.938964844 0.627439737
vt 0.938964844 0.590700388
vt 0.642089844 0.628587842
vt 0.642089844 0.665327191
vt 0.923339844 0.665327191
vt 0.923339844 0.628587842
vt 0.924316406 0.628587842
vt 0.924316406 0.775545359
vt 0.986816406 0.775545359
vt 0.986816406 0.628587842
vt 0.642089844 0.666475296
vt 0.642089844 0.795063138
vt 0.704589844 0.795063138
vt 0.704589844 0.666475296
vt 0.705566406 0.666475296
vt 0.705566406 0.795063138
vt 0.768066406 0.795063138
vt 0.768066406 0.666475296
vt 0.769042969 0.666475296
vt 0.769042969 0.739954114
vt 0.862792969 0.739954114
vt 0.862792969 0.666475296
vt 0.769042969 0.741102219
vt 0.769042969 0.851320326
vt 0.831542969 0.851320326
vt 0.831542969 0.741102219
vt 0.642089844 0.796211243
vt 0.642089844 0.851320326
vt 0.751464844 0.851320326
vt 0.751464844 0.796211243
vt 0.832519531 0.741102219
vt 0.832519531 0.832950652
vt 0.895019531 0.832950652
vt 0.895019531 0.741102219
vt 0.924316406 0.776693463
vt 0.924316406 0.886911571
vt 0.971191406 0.886911571
vt 0.971191406 0.776693463
vt 0.832519531 0.834098756
vt 0.832519531 0.999425948
vt 0.863769531 0.999425948
vt 0.863769531 0.834098756
vt 0.864746094 0.834098756
vt 0.864746094 0.999425948
vt 0.895996094 0.999425948
vt 0.895996094 0.834098756
vt 0.642089844 0.852468431
vt 0.642089844 0.88920784
vt 0.767089844 0.88920784
vt 0.767089844 0.852468431
vt 0.769042969 0.852468431
vt 0.769042969 0.944316864
vt 0.815917969 0.944316864
vt 0.815917969 0.852468431
vt 0.642089844 0.890355945
vt 0.642089844 0.927095294
vt 0.751464844 0.927095294
vt 0.751464844 0.890355945
vt 0.00048828125 0.902985096
vt 0.00048828125 0.921354771
vt 0.187988281 0.921354771
vt 0.187988281 0.902985096
vt 0.188964844 0.902985096
vt 0.188964844 0.921354771
vt 0.360839844 0.921354771
vt 0.360839844 0.902985096
vt 0.924316406 0.888059676
vt 0.924316406 0.979908168
vt 0.955566406 0.979908168
vt 0.955566406 0.888059676
vt 0.956542969 0.888059676
vt 0.956542969 0.979908168
vt 0.987792969 0.979908168
vt 0.987792969 0.888059676
vt 0.361816406 0.902985096
vt 0.361816406 0.976463854
vt 0.393066406 0.976463854
vt 0.393066406 0.902985096
vt 0.394042969 0.902985096
vt 0.394042969 0.976463854
vt 0.425292969 0.976463854
vt 0.425292969 0.902985096
vt 0.426269531 0.902985096
vt 0.426269531 0.95809412
vt 0.457519531 0.95809412
vt 0.457519531 0.902985096
vt 0.896972656 0.666475296
vt 0.896972656 0.776693463
vt 0.912597656 0.776693463
vt 0.912597656 0.666475296
vt 0.896972656 0.777841568
vt 0.896972656 0.888059676
vt 0.912597656 0.888059676
vt 0.912597656 0.777841568
vt 0.458496094 0.902985096
vt 0.458496094 0.921354771
vt 0.536621094 0.921354771
vt 0.536621094 0.902985096
vt 0.537597656 0.902985096
vt 0.537597656 0.921354771
vt 0.615722656 0.921354771
vt 0.615722656 0.902985096
vt 0.00048828125 0.922502875
vt 0.00048828125 0.959242225
vt 0.0317382812 0.959242225
vt 0.0317382812 0.922502875
vt 0.896972656 0.88920784
vt 0.896972656 0.962686539
vt 0.912597656 0.962686539
vt 0.912597656 0.88920784
vt 0.0327148438 0.922502875
vt 0.0327148438 0.959242225
vt 0.0639648438 0.959242225
vt 0.0639648438 0.922502875
vt 0.0649414062 0.922502875
vt 0.0649414062 0.94087255
vt 0.127441406 0.94087255
vt 0.127441406 0.922502875
vt 0.128417969 0.922502875
vt 0.128417969 0.959242225
vt 0.159667969 0.959242225
vt 0.159667969 0.922502875
vt 0.752441406 0.890355945
vt 0.752441406 0.963834643
vt 0.768066406 0.963834643
vt 0.768066406 0.890355945
vt 0.160644531 0.922502875
vt 0.160644531 0.94087255
vt 0.207519531 0.94087255
vt 0.207519531 0.922502875
vt 0.208496094 0.922502875
vt 0.208496094 0.94087255
vt 0.255371094 0.94087255
vt 0.255371094 0.922502875
vt 0.616699219 0.902985096
vt 0.616699219 0.95809412
vt 0.632324219 0.95809412
vt 0.632324219 0.902985096
vt 0.256347656 0.922502875
vt 0.256347656 0.977611959
vt 0.271972656 0.977611959
vt 0.271972656 0.922502875
vt 0.272949219 0.922502875
vt 0.272949219 0.94087255
vt 0.304199219 0.94087255
vt 0.304199219 0.922502875
vt 0.305175781 0.922502875
vt 0.305175781 0.94087255
vt 0.336425781 0.94087255
vt 0.336425781 0.922502875
vt 0.337402344 0.922502875
vt 0.337402344 0.959242225
vt 0.353027344 0.959242225
vt 0.353027344 0.922502875
vt 0.458496094 0.922502875
vt 0.458496094 0.94087255
vt 0.489746094 0.94087255
vt 0.489746094 0.922502875
vt 0.490722656 0.922502875
vt 0.490722656 0.94087255
vt 0.521972656 0.94087255
vt 0.521972656 0.922502875
vt 0.522949219 0.922502875
vt 0.522949219 0.959242225
vt 0.538574219 0.959242225
vt 0.538574219 0.922502875
vt 0.539550781 0.922502875
vt 0.539550781 0.94087255
vt 0.570800781 0.94087255
vt 0.570800781 0.922502875
vt 0.571777344 0.922502875
vt 0.571777344 0.94087255
vt 0.603027344 0.94087255
vt 0.603027344 0.922502875
vt 0.642089844 0.928243399
vt 0.642089844 0.964982748
vt 0.657714844 0.964982748
vt 0.657714844 0.928243399
vt 0.658691406 0.928243399
vt 0.658691406 0.964982748
vt 0.674316406 0.964982748
vt 0.674316406 0.928243399
vt 0.675292969 0.928243399
vt 0.675292969 0.964982748
vt 0.690917969 0.964982748
vt 0.690917969 0.928243399
vt 0.691894531 0.928243399
vt 0.691894531 0.946613073
vt 0.723144531 0.946613073
vt 0.723144531 0.928243399
vt 0.724121094 0.928243399
vt 0.724121094 0.964982748
vt 0.739746094 0.964982748
vt 0.739746094 0.928243399
vt 0.0649414062 0.942020655
vt 0.0649414062 0.978760064
vt 0.0805664062 0.978760064
vt 0.0805664062 0.942020655
vt 0.0815429688 0.942020655
vt 0.0815429688 0.960390329
vt 0.0971679688 0.960390329
vt 0.0971679688 0.942020655
vt 0.0981445312 0.942020655
vt 0.0981445312 0.960390329
vt 0.113769531 0.960390329
vt 0.113769531 0.942020655
vt 0.160644531 0.942020655
vt 0.160644531 0.960390329
vt 0.176269531 0.960390329
vt 0.176269531 0.942020655
vt 0.177246094 0.942020655
vt 0.177246094 0.960390329
vt 0.192871094 0.960390329
vt 0.192871094 0.942020655
vt 0.193847656 0.942020655
vt 0.193847656 0.960390329
vt 0.209472656 0.960390329
vt 0.209472656 0.942020655
vt 0.210449219 0.942020655
vt 0.210449219 0.960390329
vt 0.226074219 0.960390329
vt 0.226074219 0.942020655
vt 0.227050781 0.942020655
vt 0.227050781 0.960390329
vt 0.242675781 0.960390329
vt 0.242675781 0.942020655
vt 0.272949219 0.942020655
vt 0.272949219 0.960390329
vt 0.288574219 0.960390329
vt 0.288574219 0.942020655
vt 0.289550781 0.942020655
vt 0.289550781 0.960390329
vt 0.305175781 0.960390329
vt 0.305175781 0.942020655
vt 0.306152344 0.942020655
vt 0.306152344 0.960390329
vt 0.321777344 0.960390329
vt 0.321777344 0.942020655
vt 0.458496094 0.942020655
vt 0.458496094 0.960390329
vt 0.474121094 0.960390329
vt 0.474121094 0.942020655
vt 0.475097656 0.942020655
vt 0.475097656 0.960390329
vt 0.490722656 0.960390329
vt 0.490722656 0.942020655
vt 0.491699219 0.942020655
vt 0.491699219 0.960390329
vt 0.507324219 0.960390329
vt 0.507324219 0.942020655
vt 0.539550781 0.942020655
vt 0.539550781 0.960390329
vt 0.555175781 0.960390329
vt 0.555175781 0.942020655
vt 0.556152344 0.942020655
vt 0.556152344 0.960390329
vt 0.571777344 0.960390329
vt 0.571777344 0.942020655
vt 0.572753906 0.942020655
vt 0.572753906 0.960390329
vt 0.588378906 0.960390329
vt 0.588378906 0.942020655
vt 0.589355469 0.942020655
vt 0.589355469 0.960390329
vt 0.604980469 0.960390329
vt 0.604980469 0.942020655
g changchun_3-mesh_0
f 3/3/3 2/2/2 1/1/1
f 1/1/1 4/4/4 3/3/3
f 7/7/7 6/6/6 5/5/5
f 5/5/5 8/8/8 7/7/7
f 11/11/11 10/10/10 9/9/9
f 9/9/9 12/12/12 11/11/11
f 15/15/15 14/14/14 13/13/13
f 13/13/13 16/16/16 15/15/15
f 19/19/19 18/18/18 17/17/17
f 17/17/17 20/20/20 19/19/19
f 23/23/23 22/22/22 21/21/21
f 21/21/21 24/24/24 23/23/23
f 27/27/27 26/26/26 25/25/25
f 25/25/25 28/28/28 27/27/27
f 31/31/31 30/30/30 29/29/29
f 29/29/29 32/32/32 31/31/31
f 35/35/35 34/34/34 33/33/33
f 33/33/33 36/36/36 35/35/35
f 39/39/39 38/38/38 37/37/37
f 37/37/37 40/40/40 39/39/39
f 43/43/43 42/42/42 41/41/41
f 41/41/41 44/44/44 43/43/43
f 47/47/47 46/46/46 45/45/45
f 45/45/45 48/48/48 47/47/47
f 51/51/51 50/50/50 49/49/49
f 49/49/49 52/52/52 51/51/51
f 55/55/55 54/54/54 53/53/53
f 53/53/53 56/56/56 55/55/55
f 59/59/59 58/58/58 57/57/57
f 57/57/57 60/60/60 59/59/59
f 63/63/63 62/62/62 61/61/61
f 61/61/61 64/64/64 63/63/63
f 67/67/67 66/66/66 65/65/65
f 65/65/65 68/68/68 67/67/67
f 71/71/71 70/70/70 69/69/69
f 69/69/69 72/72/72 71/71/71
f 75/75/75 74/74/74 73/73/73
f 73/73/73 76/76/76 75/75/75
f 79/79/79 78/78/78 77/77/77
f 77/77/77 80/80/80 79/79/79
f 83/83/83 82/82/82 81/81/81
f 81/81/81 84/84/84 83/83/83
f 87/87/87 86/86/86 85/85/85
f 85/85/85 88/88/88 87/87/87
f 91/91/91 90/90/90 89/89/89
f 89/89/89 92/92/92 91/91/91
f 95/95/95 94/94/94 93/93/93
f 93/93/93 96/96/96 95/95/95
f 99/99/99 98/98/98 97/97/97
f 97/97/97 100/100/100 99/99/99
f 103/103/103 102/102/102 101/101/101
f 101/101/101 104/104/104 103/103/103
f 107/107/107 106/106/106 105/105/105
f 105/105/105 108/108/108 107/107/107
f 111/111/111 110/110/110 109/109/109
f 109/109/109 112/112/112 111/111/111
f 115/115/115 114/114/114 113/113/113
f 113/113/113 116/116/116 115/115/115
f 119/119/119 118/118/118 117/117/117
f 117/117/117 120/120/120 119/119/119
f 123/123/123 122/122/122 121/121/121
f 121/121/121 124/124/124 123/123/123
f 127/127/127 126/126/126 125/125/125
f 125/125/125 128/128/128 127/127/127
f 131/131/131 130/130/130 129/129/129
f 129/129/129 132/132/132 131/131/131
f 135/135/135 134/134/134 133/133/133
f 133/133/133 136/136/136 135/135/135
f 139/139/139 138/138/138 137/137/137
f 137/137/137 140/140/140 139/139/139
f 143/143/143 142/142/142 141/141/141
f 141/141/141 144/144/144 143/143/143
f 147/147/147 146/146/146 145/145/145
f 145/145/145 148/148/148 147/147/147
f 151/151/151 150/150/150 149/149/149
f 149/149/149 152/152/152 151/151/151
f 155/155/155 154/154/154 153/153/153
f 153/153/153 156/156/156 155/155/155
f 159/159/159 158/158/158 157/157/157
f 157/157/157 160/160/160 159/159/159
f 163/163/163 162/162/162 161/161/161
f 161/161/161 164/164/164 163/163/163
f 167/167/167 166/166/166 165/165/165
f 165/165/165 168/168/168 167/167/167
f 171/171/171 170/170/170 169/169/169
f 169/169/169 172/172/172 171/171/171
f 175/175/175 174/174/174 173/173/173
f 173/173/173 176/176/176 175/175/175
f 179/179/179 178/178/178 177/177/177
f 177/177/177 180/180/180 179/179/179
f 183/183/183 182/182/182 181/181/181
f 181/181/181 184/184/184 183/183/183
f 187/187/187 186/186/186 185/185/185
f 185/185/185 188/188/188 187/187/187
f 191/191/191 190/190/190 189/189/189
f 189/189/189 192/192/192 191/191/191
f 195/195/195 194/194/194 193/193/193
f 193/193/193 196/196/196 195/195/195
f 199/199/199 198/198/198 197/197/197
f 197/197/197 200/200/200 199/199/199
f 203/203/203 202/202/202 201/201/201
f 201/201/201 204/204/204 203/203/203
f 207/207/207 206/206/206 205/205/205
f 205/205/205 208/208/208 207/207/207
f 211/211/211 210/210/210 209/209/209
f 209/209/209 212/212/212 211/211/211
f 215/215/215 214/214/214 213/213/213
f 213/213/213 216/216/216 215/215/215
f 219/219/219 218/218/218 217/217/217
f 217/217/217 220/220/220 219/219/219
f 223/223/223 222/222/222 221/221/221
f 221/221/221 224/224/224 223/223/223
f 227/227/227 226/226/226 225/225/225
f 225/225/225 228/228/228 227/227/227
f 231/231/231 230/230/230 229/229/229
f 229/229/229 232/232/232 231/231/231
f 235/235/235 234/234/234 233/233/233
f 233/233/233 236/236/236 235/235/235
f 239/239/239 238/238/238 237/237/237
f 237/237/237 240/240/240 239/239/239
f 243/243/243 242/242/242 241/241/241
f 241/241/241 244/244/244 243/243/243
f 247/247/247 246/246/246 245/245/245
f 245/245/245 248/248/248 247/247/247
f 251/251/251 250/250/250 249/249/249
f 249/249/249 252/252/252 251/251/251
f 255/255/255 254/254/254 253/253/253
f 253/253/253 256/256/256 255/255/255
f 259/259/259 258/258/258 257/257/257
f 257/257/257 260/260/260 259/259/259
f 263/263/263 262/262/262 261/261/261
f 261/261/261 264/264/264 263/263/263
f 267/267/267 266/266/266 265/265/265
f 265/265/265 268/268/268 267/267/267
f 271/271/271 270/270/270 269/269/269
f 269/269/269 272/272/272 271/271/271
f 275/275/275 274/274/274 273/273/273
f 273/273/273 276/276/276 275/275/275
f 279/279/279 278/278/278 277/277/277
f 277/277/277 280/280/280 279/279/279
f 283/283/283 282/282/282 281/281/281
f 281/281/281 284/284/284 283/283/283
f 287/287/287 286/286/286 285/285/285
f 285/285/285 288/288/288 287/287/287
f 291/291/291 290/290/290 289/289/289
f 289/289/289 292/292/292 291/291/291
f 295/295/295 294/294/294 293/293/293
f 293/293/293 296/296/296 295/295/295
