g mengmeng_2_tolove-mesh
v -32 113 0
v -32 1105 0
v -1024 1105 0
v -1024 113 0
v -1024 113 0
v -1024 1105 0
v -1984 1105 0
v -1984 113 0
v -320 17 0
v -320 113 0
v -960 113 0
v -960 17 0
v -960 17 0
v -960 113 0
v -1568 113 0
v -1568 17 0
v -512 1105 0
v -512 1201 0
v -1024 1201 0
v -1024 1105 0
v -1024 1105 0
v -1024 1201 0
v -1504 1201 0
v -1504 1105 0
v -1984 113 0
v -1984 593 0
v -2016 593 0
v -2016 113 0
v -1984 593 0
v -1984 1073 0
v -2016 1073 0
v -2016 593 0
v -0 81 0
v -0 497 0
v -32 497 0
v -32 81 0
v -0 497 0
v -0 913 0
v -32 913 0
v -32 497 0
v -640 0 0
v -640 17 0
v -992 17 0
v -992 0 0
v -992 0 0
v -992 17 0
v -1312 17 0
v -1312 0 0
v -2016 337 0
v -2016 593 0
v -2047 593 0
v -2047 337 0
v -288 1105 0
v -288 1169 0
v -416 1169 0
v -416 1105 0
v -64 49 0
v -64 113 0
v -192 113 0
v -192 49 0
v -192 49 0
v -192 113 0
v -320 113 0
v -320 49 0
v -2016 113 0
v -2016 337 0
v -2047 337 0
v -2047 113 0
v -1568 49 0
v -1568 113 0
v -1664 113 0
v -1664 49 0
v -1664 49 0
v -1664 113 0
v -1760 113 0
v -1760 49 0
v -1600 1105 0
v -1600 1169 0
v -1696 1169 0
v -1696 1105 0
v -416 1105 0
v -416 1169 0
v -512 1169 0
v -512 1105 0
v -1504 1105 0
v -1504 1169 0
v -1600 1169 0
v -1600 1105 0
v -1760 81 0
v -1760 113 0
v -1856 113 0
v -1856 81 0
v -1696 1105 0
v -1696 1137 0
v -1792 1137 0
v -1792 1105 0
v -224 1105 0
v -224 1137 0
v -288 1137 0
v -288 1105 0
v -2016 785 0
v -2016 849 0
v -2047 849 0
v -2047 785 0
v -2016 721 0
v -2016 785 0
v -2047 785 0
v -2047 721 0
v -1792 1105 0
v -1792 1137 0
v -1856 1137 0
v -1856 1105 0
v -1856 81 0
v -1856 113 0
v -1920 113 0
v -1920 81 0
v -160 1105 0
v -160 1137 0
v -224 1137 0
v -224 1105 0
v -32 81 0
v -32 113 0
v -64 113 0
v -64 81 0
vt 0.00048828125 0.000840365887
vt 0.00048828125 0.834453762
vt 0.484863281 0.834453762
vt 0.484863281 0.000840365887
vt 0.485839844 0.000840365887
vt 0.485839844 0.834453762
vt 0.954589844 0.834453762
vt 0.954589844 0.000840365887
vt 0.00048828125 0.836134434
vt 0.00048828125 0.916806698
vt 0.312988281 0.916806698
vt 0.312988281 0.836134434
vt 0.313964844 0.836134434
vt 0.313964844 0.916806698
vt 0.610839844 0.916806698
vt 0.610839844 0.836134434
vt 0.611816406 0.836134434
vt 0.611816406 0.916806698
vt 0.861816406 0.916806698
vt 0.861816406 0.836134434
vt 0.00048828125 0.91848737
vt 0.00048828125 0.999159634
vt 0.234863281 0.999159634
vt 0.234863281 0.91848737
vt 0.955566406 0.000840365887
vt 0.955566406 0.404201686
vt 0.971191406 0.404201686
vt 0.971191406 0.000840365887
vt 0.972167969 0.000840365887
vt 0.972167969 0.404201686
vt 0.987792969 0.404201686
vt 0.987792969 0.000840365887
vt 0.955566406 0.405882359
vt 0.955566406 0.75546217
vt 0.971191406 0.75546217
vt 0.971191406 0.405882359
vt 0.972167969 0.405882359
vt 0.972167969 0.75546217
vt 0.987792969 0.75546217
vt 0.987792969 0.405882359
vt 0.235839844 0.91848737
vt 0.235839844 0.93361342
vt 0.407714844 0.93361342
vt 0.407714844 0.91848737
vt 0.408691406 0.91848737
vt 0.408691406 0.93361342
vt 0.564941406 0.93361342
vt 0.564941406 0.91848737
vt 0.955566406 0.757142842
vt 0.955566406 0.972268879
vt 0.971191406 0.972268879
vt 0.971191406 0.757142842
vt 0.862792969 0.836134434
vt 0.862792969 0.889915943
vt 0.925292969 0.889915943
vt 0.925292969 0.836134434
vt 0.862792969 0.891596615
vt 0.862792969 0.945378125
vt 0.925292969 0.945378125
vt 0.925292969 0.891596615
vt 0.565917969 0.91848737
vt 0.565917969 0.972268879
vt 0.628417969 0.972268879
vt 0.628417969 0.91848737
vt 0.972167969 0.757142842
vt 0.972167969 0.945378125
vt 0.987792969 0.945378125
vt 0.987792969 0.757142842
vt 0.629394531 0.91848737
vt 0.629394531 0.972268879
vt 0.676269531 0.972268879
vt 0.676269531 0.91848737
vt 0.677246094 0.91848737
vt 0.677246094 0.972268879
vt 0.724121094 0.972268879
vt 0.724121094 0.91848737
vt 0.725097656 0.91848737
vt 0.725097656 0.972268879
vt 0.771972656 0.972268879
vt 0.771972656 0.91848737
vt 0.772949219 0.91848737
vt 0.772949219 0.972268879
vt 0.819824219 0.972268879
vt 0.819824219 0.91848737
vt 0.235839844 0.935294092
vt 0.235839844 0.989075601
vt 0.282714844 0.989075601
vt 0.282714844 0.935294092
vt 0.283691406 0.935294092
vt 0.283691406 0.962184846
vt 0.330566406 0.962184846
vt 0.330566406 0.935294092
vt 0.331542969 0.935294092
vt 0.331542969 0.962184846
vt 0.378417969 0.962184846
vt 0.378417969 0.935294092
vt 0.820800781 0.91848737
vt 0.820800781 0.945378125
vt 0.852050781 0.945378125
vt 0.852050781 0.91848737
vt 0.926269531 0.836134434
vt 0.926269531 0.889915943
vt 0.941894531 0.889915943
vt 0.941894531 0.836134434
vt 0.926269531 0.891596615
vt 0.926269531 0.945378125
vt 0.941894531 0.945378125
vt 0.941894531 0.891596615
vt 0.379394531 0.935294092
vt 0.379394531 0.962184846
vt 0.410644531 0.962184846
vt 0.410644531 0.935294092
vt 0.411621094 0.935294092
vt 0.411621094 0.962184846
vt 0.442871094 0.962184846
vt 0.442871094 0.935294092
vt 0.443847656 0.935294092
vt 0.443847656 0.962184846
vt 0.475097656 0.962184846
vt 0.475097656 0.935294092
vt 0.476074219 0.935294092
vt 0.476074219 0.962184846
vt 0.491699219 0.962184846
vt 0.491699219 0.935294092
g mengmeng_2_tolove-mesh_0
f 3/3/3 2/2/2 1/1/1
f 1/1/1 4/4/4 3/3/3
f 7/7/7 6/6/6 5/5/5
f 5/5/5 8/8/8 7/7/7
f 11/11/11 10/10/10 9/9/9
f 9/9/9 12/12/12 11/11/11
f 15/15/15 14/14/14 13/13/13
f 13/13/13 16/16/16 15/15/15
f 19/19/19 18/18/18 17/17/17
f 17/17/17 20/20/20 19/19/19
f 23/23/23 22/22/22 21/21/21
f 21/21/21 24/24/24 23/23/23
f 27/27/27 26/26/26 25/25/25
f 25/25/25 28/28/28 27/27/27
f 31/31/31 30/30/30 29/29/29
f 29/29/29 32/32/32 31/31/31
f 35/35/35 34/34/34 33/33/33
f 33/33/33 36/36/36 35/35/35
f 39/39/39 38/38/38 37/37/37
f 37/37/37 40/40/40 39/39/39
f 43/43/43 42/42/42 41/41/41
f 41/41/41 44/44/44 43/43/43
f 47/47/47 46/46/46 45/45/45
f 45/45/45 48/48/48 47/47/47
f 51/51/51 50/50/50 49/49/49
f 49/49/49 52/52/52 51/51/51
f 55/55/55 54/54/54 53/53/53
f 53/53/53 56/56/56 55/55/55
f 59/59/59 58/58/58 57/57/57
f 57/57/57 60/60/60 59/59/59
f 63/63/63 62/62/62 61/61/61
f 61/61/61 64/64/64 63/63/63
f 67/67/67 66/66/66 65/65/65
f 65/65/65 68/68/68 67/67/67
f 71/71/71 70/70/70 69/69/69
f 69/69/69 72/72/72 71/71/71
f 75/75/75 74/74/74 73/73/73
f 73/73/73 76/76/76 75/75/75
f 79/79/79 78/78/78 77/77/77
f 77/77/77 80/80/80 79/79/79
f 83/83/83 82/82/82 81/81/81
f 81/81/81 84/84/84 83/83/83
f 87/87/87 86/86/86 85/85/85
f 85/85/85 88/88/88 87/87/87
f 91/91/91 90/90/90 89/89/89
f 89/89/89 92/92/92 91/91/91
f 95/95/95 94/94/94 93/93/93
f 93/93/93 96/96/96 95/95/95
f 99/99/99 98/98/98 97/97/97
f 97/97/97 100/100/100 99/99/99
f 103/103/103 102/102/102 101/101/101
f 101/101/101 104/104/104 103/103/103
f 107/107/107 106/106/106 105/105/105
f 105/105/105 108/108/108 107/107/107
f 111/111/111 110/110/110 109/109/109
f 109/109/109 112/112/112 111/111/111
f 115/115/115 114/114/114 113/113/113
f 113/113/113 116/116/116 115/115/115
f 119/119/119 118/118/118 117/117/117
f 117/117/117 120/120/120 119/119/119
f 123/123/123 122/122/122 121/121/121
f 121/121/121 124/124/124 123/123/123
