g xiaotiane-mesh
v -160 286 0
v -160 574 0
v -448 574 0
v -448 286 0
v -160 574 0
v -160 862 0
v -448 862 0
v -448 574 0
v -160 862 0
v -160 990 0
v -384 990 0
v -384 862 0
v -32 478 0
v -32 670 0
v -160 670 0
v -160 478 0
v -448 542 0
v -448 766 0
v -544 766 0
v -544 542 0
v -320 94 0
v -320 286 0
v -416 286 0
v -416 94 0
v -128 126 0
v -128 286 0
v -192 286 0
v -192 126 0
v -416 862 0
v -416 990 0
v -480 990 0
v -480 862 0
v -128 0 0
v -128 126 0
v -192 126 0
v -192 0 0
v -352 0 0
v -352 94 0
v -416 94 0
v -416 0 0
v -448 382 0
v -448 478 0
v -512 478 0
v -512 382 0
v -64 702 0
v -64 766 0
v -128 766 0
v -128 702 0
v -448 318 0
v -448 382 0
v -512 382 0
v -512 318 0
v -544 638 0
v -544 734 0
v -561 734 0
v -561 638 0
v -192 190 0
v -192 286 0
v -224 286 0
v -224 190 0
v -128 766 0
v -128 862 0
v -160 862 0
v -160 766 0
v -192 990 0
v -192 1022 0
v -288 1022 0
v -288 990 0
v -128 670 0
v -128 766 0
v -160 766 0
v -160 670 0
v -384 862 0
v -384 926 0
v -416 926 0
v -416 862 0
v -32 670 0
v -32 702 0
v -96 702 0
v -96 670 0
v -448 766 0
v -448 830 0
v -480 830 0
v -480 766 0
v -0 510 0
v -0 574 0
v -32 574 0
v -32 510 0
v -192 0 0
v -192 62 0
v -224 62 0
v -224 0 0
v -288 190 0
v -288 254 0
v -320 254 0
v -320 190 0
v -512 350 0
v -512 414 0
v -544 414 0
v -544 350 0
v -480 926 0
v -480 990 0
v -512 990 0
v -512 926 0
v -128 414 0
v -128 478 0
v -160 478 0
v -160 414 0
v -544 574 0
v -544 638 0
v -561 638 0
v -561 574 0
v -288 990 0
v -288 1022 0
v -352 1022 0
v -352 990 0
v -224 254 0
v -224 286 0
v -288 286 0
v -288 254 0
v -192 126 0
v -192 190 0
v -224 190 0
v -224 126 0
v -128 286 0
v -128 318 0
v -160 318 0
v -160 286 0
v -448 286 0
v -448 318 0
v -480 318 0
v -480 286 0
v -224 222 0
v -224 254 0
v -256 254 0
v -256 222 0
v -416 30 0
v -416 62 0
v -448 62 0
v -448 30 0
v -320 0 0
v -320 30 0
v -352 30 0
v -352 0 0
v -96 446 0
v -96 478 0
v -128 478 0
v -128 446 0
v -128 382 0
v -128 414 0
v -160 414 0
v -160 382 0
v -288 254 0
v -288 286 0
v -320 286 0
v -320 254 0
v -96 766 0
v -96 798 0
v -128 798 0
v -128 766 0
v -448 510 0
v -448 542 0
v -480 542 0
v -480 510 0
v -480 766 0
v -480 798 0
v -512 798 0
v -512 766 0
vt 0.0009765625 0.00255101919
vt 0.0009765625 0.737244904
vt 0.282226562 0.737244904
vt 0.282226562 0.00255101919
vt 0.284179688 0.00255101919
vt 0.284179688 0.737244904
vt 0.565429688 0.737244904
vt 0.565429688 0.00255101919
vt 0.567382812 0.00255101919
vt 0.567382812 0.329081655
vt 0.786132812 0.329081655
vt 0.786132812 0.00255101919
vt 0.788085938 0.00255101919
vt 0.788085938 0.492346942
vt 0.913085938 0.492346942
vt 0.913085938 0.00255101919
vt 0.567382812 0.334183693
vt 0.567382812 0.90561223
vt 0.661132812 0.90561223
vt 0.661132812 0.334183693
vt 0.663085938 0.334183693
vt 0.663085938 0.823979616
vt 0.756835938 0.823979616
vt 0.756835938 0.334183693
vt 0.915039062 0.00255101919
vt 0.915039062 0.410714269
vt 0.977539062 0.410714269
vt 0.977539062 0.00255101919
vt 0.915039062 0.415816307
vt 0.915039062 0.742346942
vt 0.977539062 0.742346942
vt 0.977539062 0.415816307
vt 0.788085938 0.497448981
vt 0.788085938 0.821428537
vt 0.850585938 0.821428537
vt 0.850585938 0.497448981
vt 0.0009765625 0.742346942
vt 0.0009765625 0.984693885
vt 0.0634765625 0.984693885
vt 0.0634765625 0.742346942
vt 0.0654296875 0.742346942
vt 0.0654296875 0.987244904
vt 0.127929688 0.987244904
vt 0.127929688 0.742346942
vt 0.129882812 0.742346942
vt 0.129882812 0.90561223
vt 0.192382812 0.90561223
vt 0.192382812 0.742346942
vt 0.194335938 0.742346942
vt 0.194335938 0.90561223
vt 0.256835938 0.90561223
vt 0.256835938 0.742346942
vt 0.979492188 0.00255101919
vt 0.979492188 0.247448981
vt 0.997070312 0.247448981
vt 0.997070312 0.00255101919
vt 0.852539062 0.497448981
vt 0.852539062 0.742346942
vt 0.883789062 0.742346942
vt 0.883789062 0.497448981
vt 0.258789062 0.742346942
vt 0.258789062 0.987244904
vt 0.290039062 0.987244904
vt 0.290039062 0.742346942
vt 0.291992188 0.742346942
vt 0.291992188 0.823979616
vt 0.385742188 0.823979616
vt 0.385742188 0.742346942
vt 0.387695312 0.742346942
vt 0.387695312 0.987244904
vt 0.418945312 0.987244904
vt 0.418945312 0.742346942
vt 0.420898438 0.742346942
vt 0.420898438 0.90561223
vt 0.452148438 0.90561223
vt 0.452148438 0.742346942
vt 0.454101562 0.742346942
vt 0.454101562 0.823979616
vt 0.516601562 0.823979616
vt 0.516601562 0.742346942
vt 0.518554688 0.742346942
vt 0.518554688 0.90561223
vt 0.549804688 0.90561223
vt 0.549804688 0.742346942
vt 0.852539062 0.747448981
vt 0.852539062 0.910714269
vt 0.883789062 0.910714269
vt 0.883789062 0.747448981
vt 0.915039062 0.747448981
vt 0.915039062 0.908163249
vt 0.946289062 0.908163249
vt 0.946289062 0.747448981
vt 0.948242188 0.747448981
vt 0.948242188 0.910714269
vt 0.979492188 0.910714269
vt 0.979492188 0.747448981
vt 0.788085938 0.826530576
vt 0.788085938 0.989795923
vt 0.819335938 0.989795923
vt 0.819335938 0.826530576
vt 0.291992188 0.829081655
vt 0.291992188 0.992346942
vt 0.323242188 0.992346942
vt 0.323242188 0.829081655
vt 0.325195312 0.829081655
vt 0.325195312 0.992346942
vt 0.356445312 0.992346942
vt 0.356445312 0.829081655
vt 0.981445312 0.252551019
vt 0.981445312 0.415816307
vt 0.999023438 0.415816307
vt 0.999023438 0.252551019
vt 0.454101562 0.829081655
vt 0.454101562 0.910714269
vt 0.516601562 0.910714269
vt 0.516601562 0.829081655
vt 0.663085938 0.829081655
vt 0.663085938 0.910714269
vt 0.725585938 0.910714269
vt 0.725585938 0.829081655
vt 0.727539062 0.829081655
vt 0.727539062 0.992346942
vt 0.758789062 0.992346942
vt 0.758789062 0.829081655
vt 0.129882812 0.910714269
vt 0.129882812 0.992346942
vt 0.161132812 0.992346942
vt 0.161132812 0.910714269
vt 0.163085938 0.910714269
vt 0.163085938 0.992346942
vt 0.194335938 0.992346942
vt 0.194335938 0.910714269
vt 0.196289062 0.910714269
vt 0.196289062 0.992346942
vt 0.227539062 0.992346942
vt 0.227539062 0.910714269
vt 0.420898438 0.910714269
vt 0.420898438 0.992346942
vt 0.452148438 0.992346942
vt 0.452148438 0.910714269
vt 0.518554688 0.910714269
vt 0.518554688 0.989795923
vt 0.549804688 0.989795923
vt 0.549804688 0.910714269
vt 0.567382812 0.910714269
vt 0.567382812 0.992346942
vt 0.598632812 0.992346942
vt 0.598632812 0.910714269
vt 0.600585938 0.910714269
vt 0.600585938 0.992346942
vt 0.631835938 0.992346942
vt 0.631835938 0.910714269
vt 0.915039062 0.913265288
vt 0.915039062 0.994897962
vt 0.946289062 0.994897962
vt 0.946289062 0.913265288
vt 0.454101562 0.915816307
vt 0.454101562 0.997448981
vt 0.485351562 0.997448981
vt 0.485351562 0.915816307
vt 0.663085938 0.915816307
vt 0.663085938 0.997448981
vt 0.694335938 0.997448981
vt 0.694335938 0.915816307
vt 0.852539062 0.915816307
vt 0.852539062 0.997448981
vt 0.883789062 0.997448981
vt 0.883789062 0.915816307
g xiaotiane-mesh_0
f 3/3/3 2/2/2 1/1/1
f 1/1/1 4/4/4 3/3/3
f 7/7/7 6/6/6 5/5/5
f 5/5/5 8/8/8 7/7/7
f 11/11/11 10/10/10 9/9/9
f 9/9/9 12/12/12 11/11/11
f 15/15/15 14/14/14 13/13/13
f 13/13/13 16/16/16 15/15/15
f 19/19/19 18/18/18 17/17/17
f 17/17/17 20/20/20 19/19/19
f 23/23/23 22/22/22 21/21/21
f 21/21/21 24/24/24 23/23/23
f 27/27/27 26/26/26 25/25/25
f 25/25/25 28/28/28 27/27/27
f 31/31/31 30/30/30 29/29/29
f 29/29/29 32/32/32 31/31/31
f 35/35/35 34/34/34 33/33/33
f 33/33/33 36/36/36 35/35/35
f 39/39/39 38/38/38 37/37/37
f 37/37/37 40/40/40 39/39/39
f 43/43/43 42/42/42 41/41/41
f 41/41/41 44/44/44 43/43/43
f 47/47/47 46/46/46 45/45/45
f 45/45/45 48/48/48 47/47/47
f 51/51/51 50/50/50 49/49/49
f 49/49/49 52/52/52 51/51/51
f 55/55/55 54/54/54 53/53/53
f 53/53/53 56/56/56 55/55/55
f 59/59/59 58/58/58 57/57/57
f 57/57/57 60/60/60 59/59/59
f 63/63/63 62/62/62 61/61/61
f 61/61/61 64/64/64 63/63/63
f 67/67/67 66/66/66 65/65/65
f 65/65/65 68/68/68 67/67/67
f 71/71/71 70/70/70 69/69/69
f 69/69/69 72/72/72 71/71/71
f 75/75/75 74/74/74 73/73/73
f 73/73/73 76/76/76 75/75/75
f 79/79/79 78/78/78 77/77/77
f 77/77/77 80/80/80 79/79/79
f 83/83/83 82/82/82 81/81/81
f 81/81/81 84/84/84 83/83/83
f 87/87/87 86/86/86 85/85/85
f 85/85/85 88/88/88 87/87/87
f 91/91/91 90/90/90 89/89/89
f 89/89/89 92/92/92 91/91/91
f 95/95/95 94/94/94 93/93/93
f 93/93/93 96/96/96 95/95/95
f 99/99/99 98/98/98 97/97/97
f 97/97/97 100/100/100 99/99/99
f 103/103/103 102/102/102 101/101/101
f 101/101/101 104/104/104 103/103/103
f 107/107/107 106/106/106 105/105/105
f 105/105/105 108/108/108 107/107/107
f 111/111/111 110/110/110 109/109/109
f 109/109/109 112/112/112 111/111/111
f 115/115/115 114/114/114 113/113/113
f 113/113/113 116/116/116 115/115/115
f 119/119/119 118/118/118 117/117/117
f 117/117/117 120/120/120 119/119/119
f 123/123/123 122/122/122 121/121/121
f 121/121/121 124/124/124 123/123/123
f 127/127/127 126/126/126 125/125/125
f 125/125/125 128/128/128 127/127/127
f 131/131/131 130/130/130 129/129/129
f 129/129/129 132/132/132 131/131/131
f 135/135/135 134/134/134 133/133/133
f 133/133/133 136/136/136 135/135/135
f 139/139/139 138/138/138 137/137/137
f 137/137/137 140/140/140 139/139/139
f 143/143/143 142/142/142 141/141/141
f 141/141/141 144/144/144 143/143/143
f 147/147/147 146/146/146 145/145/145
f 145/145/145 148/148/148 147/147/147
f 151/151/151 150/150/150 149/149/149
f 149/149/149 152/152/152 151/151/151
f 155/155/155 154/154/154 153/153/153
f 153/153/153 156/156/156 155/155/155
f 159/159/159 158/158/158 157/157/157
f 157/157/157 160/160/160 159/159/159
f 163/163/163 162/162/162 161/161/161
f 161/161/161 164/164/164 163/163/163
f 167/167/167 166/166/166 165/165/165
f 165/165/165 168/168/168 167/167/167
