g jiuyun-mesh
v -576 171 0
v -576 843 0
v -1696 843 0
v -1696 171 0
v -576 843 0
v -576 1515 0
v -1696 1515 0
v -1696 843 0
v -288 267 0
v -288 779 0
v -544 779 0
v -544 267 0
v -640 1515 0
v -640 1739 0
v -1024 1739 0
v -1024 1515 0
v -1024 1515 0
v -1024 1739 0
v -1408 1739 0
v -1408 1515 0
v -320 875 0
v -320 1195 0
v -576 1195 0
v -576 875 0
v -320 1195 0
v -320 1515 0
v -576 1515 0
v -576 1195 0
v -128 555 0
v -128 907 0
v -288 907 0
v -288 555 0
v -1696 1131 0
v -1696 1355 0
v -1888 1355 0
v -1888 1131 0
v -1856 651 0
v -1856 875 0
v -2047 875 0
v -2047 651 0
v -960 43 0
v -960 171 0
v -1280 171 0
v -1280 43 0
v -1280 43 0
v -1280 171 0
v -1568 171 0
v -1568 43 0
v -1696 491 0
v -1696 747 0
v -1824 747 0
v -1824 491 0
v -64 1355 0
v -64 1483 0
v -320 1483 0
v -320 1355 0
v -1696 267 0
v -1696 491 0
v -1824 491 0
v -1824 267 0
v -1824 427 0
v -1824 555 0
v -1984 555 0
v -1984 427 0
v -1408 1515 0
v -1408 1675 0
v -1536 1675 0
v -1536 1515 0
v -448 1515 0
v -448 1611 0
v -640 1611 0
v -640 1515 0
v -800 75 0
v -800 171 0
v -960 171 0
v -960 75 0
v -832 1739 0
v -832 1835 0
v -960 1835 0
v -960 1739 0
v -1088 1739 0
v -1088 1867 0
v -1184 1867 0
v -1184 1739 0
v -1248 1739 0
v -1248 1867 0
v -1344 1867 0
v -1344 1739 0
v -1888 555 0
v -1888 651 0
v -2016 651 0
v -2016 555 0
v -1952 1003 0
v -1952 1163 0
v -2016 1163 0
v -2016 1003 0
v -544 395 0
v -544 683 0
v -576 683 0
v -576 395 0
v -288 779 0
v -288 875 0
v -384 875 0
v -384 779 0
v -480 779 0
v -480 875 0
v -576 875 0
v -576 779 0
v -1728 1003 0
v -1728 1131 0
v -1792 1131 0
v -1792 1003 0
v -1952 875 0
v -1952 1003 0
v -2016 1003 0
v -2016 875 0
v -1504 1675 0
v -1504 1803 0
v -1568 1803 0
v -1568 1675 0
v -1024 11 0
v -1024 43 0
v -1280 43 0
v -1280 11 0
v -544 139 0
v -544 395 0
v -576 395 0
v -576 139 0
v -192 907 0
v -192 1035 0
v -256 1035 0
v -256 907 0
v -192 1035 0
v -192 1163 0
v -256 1163 0
v -256 1035 0
v -1280 11 0
v -1280 43 0
v -1504 43 0
v -1504 11 0
v -224 459 0
v -224 555 0
v -288 555 0
v -288 459 0
v -1696 1355 0
v -1696 1451 0
v -1760 1451 0
v -1760 1355 0
v -992 1803 0
v -992 1899 0
v -1056 1899 0
v -1056 1803 0
v -384 203 0
v -384 267 0
v -480 267 0
v -480 203 0
v -0 1355 0
v -0 1451 0
v -64 1451 0
v -64 1355 0
v -1696 939 0
v -1696 1131 0
v -1728 1131 0
v -1728 939 0
v -1696 747 0
v -1696 939 0
v -1728 939 0
v -1728 747 0
v -1888 1099 0
v -1888 1195 0
v -1952 1195 0
v -1952 1099 0
v -256 1099 0
v -256 1195 0
v -320 1195 0
v -320 1099 0
v -256 1195 0
v -256 1291 0
v -320 1291 0
v -320 1195 0
v -1824 747 0
v -1824 939 0
v -1856 939 0
v -1856 747 0
v -1824 939 0
v -1824 1131 0
v -1856 1131 0
v -1856 939 0
v -1888 1195 0
v -1888 1291 0
v -1952 1291 0
v -1952 1195 0
v -736 107 0
v -736 171 0
v -800 171 0
v -800 107 0
v -1536 1515 0
v -1536 1579 0
v -1600 1579 0
v -1600 1515 0
v -1696 203 0
v -1696 267 0
v -1760 267 0
v -1760 203 0
v -480 203 0
v -480 267 0
v -544 267 0
v -544 203 0
v -224 395 0
v -224 459 0
v -288 459 0
v -288 395 0
v -0 1291 0
v -0 1355 0
v -64 1355 0
v -64 1291 0
v -96 587 0
v -96 715 0
v -128 715 0
v -128 587 0
v -96 715 0
v -96 843 0
v -128 843 0
v -128 715 0
v -1248 0 0
v -1248 11 0
v -1344 11 0
v -1344 0 0
v -1856 1035 0
v -1856 1131 0
v -1888 1131 0
v -1888 1035 0
v -2016 971 0
v -2016 1067 0
v -2047 1067 0
v -2047 971 0
v -2016 875 0
v -2016 971 0
v -2047 971 0
v -2047 875 0
v -1472 1675 0
v -1472 1739 0
v -1504 1739 0
v -1504 1675 0
v -608 1675 0
v -608 1739 0
v -640 1739 0
v -640 1675 0
v -288 1291 0
v -288 1355 0
v -320 1355 0
v -320 1291 0
v -1600 1515 0
v -1600 1547 0
v -1664 1547 0
v -1664 1515 0
v -1184 1739 0
v -1184 1771 0
v -1248 1771 0
v -1248 1739 0
v -1280 1867 0
v -1280 1899 0
v -1344 1899 0
v -1344 1867 0
v -448 171 0
v -448 203 0
v -512 203 0
v -512 171 0
v -1856 363 0
v -1856 427 0
v -1888 427 0
v -1888 363 0
v -800 1739 0
v -800 1803 0
v -832 1803 0
v -832 1739 0
v -1184 1803 0
v -1184 1867 0
v -1216 1867 0
v -1216 1803 0
v -928 1835 0
v -928 1867 0
v -992 1867 0
v -992 1835 0
v -256 331 0
v -256 395 0
v -288 395 0
v -288 331 0
v -1888 363 0
v -1888 427 0
v -1920 427 0
v -1920 363 0
v -160 523 0
v -160 555 0
v -224 555 0
v -224 523 0
v -1568 139 0
v -1568 171 0
v -1632 171 0
v -1632 139 0
v -576 139 0
v -576 171 0
v -640 171 0
v -640 139 0
v -320 235 0
v -320 267 0
v -384 267 0
v -384 235 0
v -544 715 0
v -544 779 0
v -576 779 0
v -576 715 0
v -1728 875 0
v -1728 939 0
v -1760 939 0
v -1760 875 0
v -1952 1163 0
v -1952 1227 0
v -1984 1227 0
v -1984 1163 0
v -224 1163 0
v -224 1227 0
v -256 1227 0
v -256 1163 0
v -384 779 0
v -384 843 0
v -416 843 0
v -416 779 0
v -448 811 0
v -448 875 0
v -480 875 0
v -480 811 0
v -1792 875 0
v -1792 939 0
v -1824 939 0
v -1824 875 0
v -288 875 0
v -288 939 0
v -320 939 0
v -320 875 0
v -288 939 0
v -288 1003 0
v -320 1003 0
v -320 939 0
v -128 1323 0
v -128 1355 0
v -192 1355 0
v -192 1323 0
v -1824 363 0
v -1824 427 0
v -1856 427 0
v -1856 363 0
v -1824 587 0
v -1824 651 0
v -1856 651 0
v -1856 587 0
v -1824 651 0
v -1824 715 0
v -1856 715 0
v -1856 651 0
v -384 1515 0
v -384 1547 0
v -448 1547 0
v -448 1515 0
v -320 1515 0
v -320 1547 0
v -384 1547 0
v -384 1515 0
v -1344 0 0
v -1344 11 0
v -1408 11 0
v -1408 0 0
v -64 1323 0
v -64 1355 0
v -128 1355 0
v -128 1323 0
v -256 1483 0
v -256 1515 0
v -320 1515 0
v -320 1483 0
v -192 1483 0
v -192 1515 0
v -256 1515 0
v -256 1483 0
v -1824 299 0
v -1824 363 0
v -1856 363 0
v -1856 299 0
v -1728 779 0
v -1728 843 0
v -1760 843 0
v -1760 779 0
v -160 939 0
v -160 1003 0
v -192 1003 0
v -192 939 0
v -1856 971 0
v -1856 1035 0
v -1888 1035 0
v -1888 971 0
v -1792 779 0
v -1792 843 0
v -1824 843 0
v -1824 779 0
v -1056 1867 0
v -1056 1899 0
v -1120 1899 0
v -1120 1867 0
v -1920 1035 0
v -1920 1099 0
v -1952 1099 0
v -1952 1035 0
v -416 779 0
v -416 811 0
v -448 811 0
v -448 779 0
v -1760 747 0
v -1760 779 0
v -1792 779 0
v -1792 747 0
v -1856 619 0
v -1856 651 0
v -1888 651 0
v -1888 619 0
v -64 1291 0
v -64 1323 0
v -96 1323 0
v -96 1291 0
v -256 1067 0
v -256 1099 0
v -288 1099 0
v -288 1067 0
v -1888 1291 0
v -1888 1323 0
v -1920 1323 0
v -1920 1291 0
v -256 907 0
v -256 939 0
v -288 939 0
v -288 907 0
v -1728 971 0
v -1728 1003 0
v -1760 1003 0
v -1760 971 0
v -1760 235 0
v -1760 267 0
v -1792 267 0
v -1792 235 0
v -512 139 0
v -512 171 0
v -544 171 0
v -544 139 0
v -1984 491 0
v -1984 523 0
v -2016 523 0
v -2016 491 0
v -1920 395 0
v -1920 427 0
v -1952 427 0
v -1952 395 0
v -192 491 0
v -192 523 0
v -224 523 0
v -224 491 0
v -1856 555 0
v -1856 587 0
v -1888 587 0
v -1888 555 0
v -704 139 0
v -704 171 0
v -736 171 0
v -736 139 0
v -1184 0 0
v -1184 11 0
v -1216 11 0
v -1216 0 0
v -1120 1867 0
v -1120 1899 0
v -1152 1899 0
v -1152 1867 0
v -1920 1003 0
v -1920 1035 0
v -1952 1035 0
v -1952 1003 0
v -1056 1835 0
v -1056 1867 0
v -1088 1867 0
v -1088 1835 0
v -1792 747 0
v -1792 779 0
v -1824 779 0
v -1824 747 0
v -512 171 0
v -512 203 0
v -544 203 0
v -544 171 0
v -1856 331 0
v -1856 363 0
v -1888 363 0
v -1888 331 0
v -160 907 0
v -160 939 0
v -192 939 0
v -192 907 0
v -1728 747 0
v -1728 779 0
v -1760 779 0
v -1760 747 0
v -1536 1579 0
v -1536 1611 0
v -1568 1611 0
v -1568 1579 0
v -608 1611 0
v -608 1643 0
v -640 1643 0
v -640 1611 0
v -1760 1355 0
v -1760 1387 0
v -1792 1387 0
v -1792 1355 0
v -1696 1451 0
v -1696 1483 0
v -1728 1483 0
v -1728 1451 0
v -768 1739 0
v -768 1771 0
v -800 1771 0
v -800 1739 0
v -960 1803 0
v -960 1835 0
v -992 1835 0
v -992 1803 0
v -1440 1675 0
v -1440 1707 0
v -1472 1707 0
v -1472 1675 0
v -576 1675 0
v -576 1707 0
v -608 1707 0
v -608 1675 0
vt 0.00048828125 0.000676572323
vt 0.00048828125 0.455345035
vt 0.547363281 0.455345035
vt 0.547363281 0.000676572323
vt 0.00048828125 0.456698239
vt 0.00048828125 0.911366701
vt 0.547363281 0.911366701
vt 0.547363281 0.456698239
vt 0.548339844 0.000676572323
vt 0.548339844 0.347090662
vt 0.673339844 0.347090662
vt 0.673339844 0.000676572323
vt 0.674316406 0.000676572323
vt 0.674316406 0.152232766
vt 0.861816406 0.152232766
vt 0.861816406 0.000676572323
vt 0.674316406 0.153585911
vt 0.674316406 0.305142105
vt 0.861816406 0.305142105
vt 0.861816406 0.153585911
vt 0.862792969 0.000676572323
vt 0.862792969 0.217185378
vt 0.987792969 0.217185378
vt 0.987792969 0.000676572323
vt 0.862792969 0.218538582
vt 0.862792969 0.435047388
vt 0.987792969 0.435047388
vt 0.987792969 0.218538582
vt 0.674316406 0.306495249
vt 0.674316406 0.544654965
vt 0.752441406 0.544654965
vt 0.752441406 0.306495249
vt 0.753417969 0.306495249
vt 0.753417969 0.458051443
vt 0.847167969 0.458051443
vt 0.847167969 0.306495249
vt 0.548339844 0.348443866
vt 0.548339844 0.5
vt 0.642089844 0.5
vt 0.642089844 0.348443866
vt 0.753417969 0.459404588
vt 0.753417969 0.54600811
vt 0.909667969 0.54600811
vt 0.909667969 0.459404588
vt 0.753417969 0.547361255
vt 0.753417969 0.633964777
vt 0.894042969 0.633964777
vt 0.894042969 0.547361255
vt 0.910644531 0.436400533
vt 0.910644531 0.609607577
vt 0.973144531 0.609607577
vt 0.973144531 0.436400533
vt 0.548339844 0.501353145
vt 0.548339844 0.587956667
vt 0.673339844 0.587956667
vt 0.673339844 0.501353145
vt 0.674316406 0.54600811
vt 0.674316406 0.697564244
vt 0.736816406 0.697564244
vt 0.736816406 0.54600811
vt 0.548339844 0.589309871
vt 0.548339844 0.675913393
vt 0.626464844 0.675913393
vt 0.626464844 0.589309871
vt 0.910644531 0.610960722
vt 0.910644531 0.719215155
vt 0.973144531 0.719215155
vt 0.973144531 0.610960722
vt 0.753417969 0.635318041
vt 0.753417969 0.700270653
vt 0.847167969 0.700270653
vt 0.847167969 0.635318041
vt 0.548339844 0.677266598
vt 0.548339844 0.74221921
vt 0.626464844 0.74221921
vt 0.626464844 0.677266598
vt 0.674316406 0.698917449
vt 0.674316406 0.76387012
vt 0.736816406 0.76387012
vt 0.736816406 0.698917449
vt 0.848144531 0.635318041
vt 0.848144531 0.721921504
vt 0.895019531 0.721921504
vt 0.895019531 0.635318041
vt 0.753417969 0.701623797
vt 0.753417969 0.78822732
vt 0.800292969 0.78822732
vt 0.800292969 0.701623797
vt 0.910644531 0.720568299
vt 0.910644531 0.785520971
vt 0.973144531 0.785520971
vt 0.973144531 0.720568299
vt 0.627441406 0.589309871
vt 0.627441406 0.697564244
vt 0.658691406 0.697564244
vt 0.658691406 0.589309871
vt 0.974121094 0.436400533
vt 0.974121094 0.631258488
vt 0.989746094 0.631258488
vt 0.989746094 0.436400533
vt 0.848144531 0.723274708
vt 0.848144531 0.78822732
vt 0.895019531 0.78822732
vt 0.895019531 0.723274708
vt 0.548339844 0.743572354
vt 0.548339844 0.808525026
vt 0.595214844 0.808525026
vt 0.595214844 0.743572354
vt 0.627441406 0.698917449
vt 0.627441406 0.785520971
vt 0.658691406 0.785520971
vt 0.658691406 0.698917449
vt 0.801269531 0.701623797
vt 0.801269531 0.78822732
vt 0.832519531 0.78822732
vt 0.832519531 0.701623797
vt 0.674316406 0.765223265
vt 0.674316406 0.851826787
vt 0.705566406 0.851826787
vt 0.705566406 0.765223265
vt 0.753417969 0.789580524
vt 0.753417969 0.811231375
vt 0.878417969 0.811231375
vt 0.878417969 0.789580524
vt 0.974121094 0.632611632
vt 0.974121094 0.805818677
vt 0.989746094 0.805818677
vt 0.989746094 0.632611632
vt 0.706542969 0.765223265
vt 0.706542969 0.851826787
vt 0.737792969 0.851826787
vt 0.737792969 0.765223265
vt 0.627441406 0.786874175
vt 0.627441406 0.873477697
vt 0.658691406 0.873477697
vt 0.658691406 0.786874175
vt 0.753417969 0.812584579
vt 0.753417969 0.83423543
vt 0.862792969 0.83423543
vt 0.862792969 0.812584579
vt 0.910644531 0.786874175
vt 0.910644531 0.851826787
vt 0.941894531 0.851826787
vt 0.941894531 0.786874175
vt 0.548339844 0.80987823
vt 0.548339844 0.874830842
vt 0.579589844 0.874830842
vt 0.579589844 0.80987823
vt 0.580566406 0.80987823
vt 0.580566406 0.874830842
vt 0.611816406 0.874830842
vt 0.611816406 0.80987823
vt 0.753417969 0.835588634
vt 0.753417969 0.878890395
vt 0.800292969 0.878890395
vt 0.800292969 0.835588634
vt 0.863769531 0.812584579
vt 0.863769531 0.877537191
vt 0.895019531 0.877537191
vt 0.895019531 0.812584579
vt 0.942871094 0.786874175
vt 0.942871094 0.916779399
vt 0.958496094 0.916779399
vt 0.958496094 0.786874175
vt 0.974121094 0.807171822
vt 0.974121094 0.937077165
vt 0.989746094 0.937077165
vt 0.989746094 0.807171822
vt 0.801269531 0.835588634
vt 0.801269531 0.900541246
vt 0.832519531 0.900541246
vt 0.832519531 0.835588634
vt 0.674316406 0.853179991
vt 0.674316406 0.918132603
vt 0.705566406 0.918132603
vt 0.705566406 0.853179991
vt 0.706542969 0.853179991
vt 0.706542969 0.918132603
vt 0.737792969 0.918132603
vt 0.737792969 0.853179991
vt 0.833496094 0.835588634
vt 0.833496094 0.965493917
vt 0.849121094 0.965493917
vt 0.849121094 0.835588634
vt 0.910644531 0.853179991
vt 0.910644531 0.983085275
vt 0.926269531 0.983085275
vt 0.926269531 0.853179991
vt 0.627441406 0.874830842
vt 0.627441406 0.939783514
vt 0.658691406 0.939783514
vt 0.658691406 0.874830842
vt 0.548339844 0.876184046
vt 0.548339844 0.919485807
vt 0.579589844 0.919485807
vt 0.579589844 0.876184046
vt 0.580566406 0.876184046
vt 0.580566406 0.919485807
vt 0.611816406 0.919485807
vt 0.611816406 0.876184046
vt 0.863769531 0.878890395
vt 0.863769531 0.922192156
vt 0.895019531 0.922192156
vt 0.895019531 0.878890395
vt 0.753417969 0.88024354
vt 0.753417969 0.923545361
vt 0.784667969 0.923545361
vt 0.784667969 0.88024354
vt 0.801269531 0.90189445
vt 0.801269531 0.945196211
vt 0.832519531 0.945196211
vt 0.832519531 0.90189445
vt 0.00048828125 0.912719905
vt 0.00048828125 0.956021667
vt 0.0317382812 0.956021667
vt 0.0317382812 0.912719905
vt 0.0327148438 0.912719905
vt 0.0327148438 0.999323428
vt 0.0483398438 0.999323428
vt 0.0483398438 0.912719905
vt 0.0493164062 0.912719905
vt 0.0493164062 0.999323428
vt 0.0649414062 0.999323428
vt 0.0649414062 0.912719905
vt 0.0659179688 0.912719905
vt 0.0659179688 0.920838952
vt 0.112792969 0.920838952
vt 0.112792969 0.912719905
vt 0.113769531 0.912719905
vt 0.113769531 0.977672517
vt 0.129394531 0.977672517
vt 0.129394531 0.912719905
vt 0.130371094 0.912719905
vt 0.130371094 0.977672517
vt 0.145996094 0.977672517
vt 0.145996094 0.912719905
vt 0.146972656 0.912719905
vt 0.146972656 0.977672517
vt 0.162597656 0.977672517
vt 0.162597656 0.912719905
vt 0.163574219 0.912719905
vt 0.163574219 0.956021667
vt 0.179199219 0.956021667
vt 0.179199219 0.912719905
vt 0.180175781 0.912719905
vt 0.180175781 0.956021667
vt 0.195800781 0.956021667
vt 0.195800781 0.912719905
vt 0.196777344 0.912719905
vt 0.196777344 0.956021667
vt 0.212402344 0.956021667
vt 0.212402344 0.912719905
vt 0.213378906 0.912719905
vt 0.213378906 0.934370756
vt 0.244628906 0.934370756
vt 0.244628906 0.912719905
vt 0.245605469 0.912719905
vt 0.245605469 0.934370756
vt 0.276855469 0.934370756
vt 0.276855469 0.912719905
vt 0.277832031 0.912719905
vt 0.277832031 0.934370756
vt 0.309082031 0.934370756
vt 0.309082031 0.912719905
vt 0.310058594 0.912719905
vt 0.310058594 0.934370756
vt 0.341308594 0.934370756
vt 0.341308594 0.912719905
vt 0.342285156 0.912719905
vt 0.342285156 0.956021667
vt 0.357910156 0.956021667
vt 0.357910156 0.912719905
vt 0.358886719 0.912719905
vt 0.358886719 0.956021667
vt 0.374511719 0.956021667
vt 0.374511719 0.912719905
vt 0.375488281 0.912719905
vt 0.375488281 0.956021667
vt 0.391113281 0.956021667
vt 0.391113281 0.912719905
vt 0.392089844 0.912719905
vt 0.392089844 0.934370756
vt 0.423339844 0.934370756
vt 0.423339844 0.912719905
vt 0.424316406 0.912719905
vt 0.424316406 0.956021667
vt 0.439941406 0.956021667
vt 0.439941406 0.912719905
vt 0.440917969 0.912719905
vt 0.440917969 0.956021667
vt 0.456542969 0.956021667
vt 0.456542969 0.912719905
vt 0.457519531 0.912719905
vt 0.457519531 0.934370756
vt 0.488769531 0.934370756
vt 0.488769531 0.912719905
vt 0.489746094 0.912719905
vt 0.489746094 0.934370756
vt 0.520996094 0.934370756
vt 0.520996094 0.912719905
vt 0.674316406 0.919485807
vt 0.674316406 0.941136658
vt 0.705566406 0.941136658
vt 0.705566406 0.919485807
vt 0.706542969 0.919485807
vt 0.706542969 0.941136658
vt 0.737792969 0.941136658
vt 0.737792969 0.919485807
vt 0.521972656 0.912719905
vt 0.521972656 0.956021667
vt 0.537597656 0.956021667
vt 0.537597656 0.912719905
vt 0.942871094 0.918132603
vt 0.942871094 0.961434364
vt 0.958496094 0.961434364
vt 0.958496094 0.918132603
vt 0.548339844 0.920838952
vt 0.548339844 0.964140713
vt 0.563964844 0.964140713
vt 0.563964844 0.920838952
vt 0.564941406 0.920838952
vt 0.564941406 0.964140713
vt 0.580566406 0.964140713
vt 0.580566406 0.920838952
vt 0.581542969 0.920838952
vt 0.581542969 0.964140713
vt 0.597167969 0.964140713
vt 0.597167969 0.920838952
vt 0.598144531 0.920838952
vt 0.598144531 0.964140713
vt 0.613769531 0.964140713
vt 0.613769531 0.920838952
vt 0.0659179688 0.922192156
vt 0.0659179688 0.965493917
vt 0.0815429688 0.965493917
vt 0.0815429688 0.922192156
vt 0.0825195312 0.922192156
vt 0.0825195312 0.965493917
vt 0.0981445312 0.965493917
vt 0.0981445312 0.922192156
vt 0.863769531 0.923545361
vt 0.863769531 0.966847062
vt 0.879394531 0.966847062
vt 0.879394531 0.923545361
vt 0.753417969 0.924898505
vt 0.753417969 0.946549416
vt 0.784667969 0.946549416
vt 0.784667969 0.924898505
vt 0.880371094 0.923545361
vt 0.880371094 0.966847062
vt 0.895996094 0.966847062
vt 0.895996094 0.923545361
vt 0.213378906 0.93572396
vt 0.213378906 0.979025722
vt 0.229003906 0.979025722
vt 0.229003906 0.93572396
vt 0.229980469 0.93572396
vt 0.229980469 0.979025722
vt 0.245605469 0.979025722
vt 0.245605469 0.93572396
vt 0.246582031 0.93572396
vt 0.246582031 0.957374811
vt 0.277832031 0.957374811
vt 0.277832031 0.93572396
vt 0.278808594 0.93572396
vt 0.278808594 0.957374811
vt 0.310058594 0.957374811
vt 0.310058594 0.93572396
vt 0.392089844 0.93572396
vt 0.392089844 0.943843007
vt 0.423339844 0.943843007
vt 0.423339844 0.93572396
vt 0.457519531 0.93572396
vt 0.457519531 0.957374811
vt 0.488769531 0.957374811
vt 0.488769531 0.93572396
vt 0.489746094 0.93572396
vt 0.489746094 0.957374811
vt 0.520996094 0.957374811
vt 0.520996094 0.93572396
vt 0.627441406 0.941136658
vt 0.627441406 0.962787569
vt 0.658691406 0.962787569
vt 0.658691406 0.941136658
vt 0.311035156 0.93572396
vt 0.311035156 0.979025722
vt 0.326660156 0.979025722
vt 0.326660156 0.93572396
vt 0.974121094 0.938430309
vt 0.974121094 0.98173207
vt 0.989746094 0.98173207
vt 0.989746094 0.938430309
vt 0.674316406 0.942489862
vt 0.674316406 0.985791624
vt 0.689941406 0.985791624
vt 0.689941406 0.942489862
vt 0.690917969 0.942489862
vt 0.690917969 0.985791624
vt 0.706542969 0.985791624
vt 0.706542969 0.942489862
vt 0.707519531 0.942489862
vt 0.707519531 0.985791624
vt 0.723144531 0.985791624
vt 0.723144531 0.942489862
vt 0.392089844 0.945196211
vt 0.392089844 0.966847062
vt 0.423339844 0.966847062
vt 0.423339844 0.945196211
vt 0.724121094 0.942489862
vt 0.724121094 0.985791624
vt 0.739746094 0.985791624
vt 0.739746094 0.942489862
vt 0.801269531 0.946549416
vt 0.801269531 0.968200266
vt 0.816894531 0.968200266
vt 0.816894531 0.946549416
vt 0.753417969 0.94790256
vt 0.753417969 0.969553471
vt 0.769042969 0.969553471
vt 0.769042969 0.94790256
vt 0.770019531 0.94790256
vt 0.770019531 0.969553471
vt 0.785644531 0.969553471
vt 0.785644531 0.94790256
vt 0.00048828125 0.957374811
vt 0.00048828125 0.979025722
vt 0.0161132812 0.979025722
vt 0.0161132812 0.957374811
vt 0.163574219 0.957374811
vt 0.163574219 0.979025722
vt 0.179199219 0.979025722
vt 0.179199219 0.957374811
vt 0.180175781 0.957374811
vt 0.180175781 0.979025722
vt 0.195800781 0.979025722
vt 0.195800781 0.957374811
vt 0.196777344 0.957374811
vt 0.196777344 0.979025722
vt 0.212402344 0.979025722
vt 0.212402344 0.957374811
vt 0.342285156 0.957374811
vt 0.342285156 0.979025722
vt 0.357910156 0.979025722
vt 0.357910156 0.957374811
vt 0.358886719 0.957374811
vt 0.358886719 0.979025722
vt 0.374511719 0.979025722
vt 0.374511719 0.957374811
vt 0.375488281 0.957374811
vt 0.375488281 0.979025722
vt 0.391113281 0.979025722
vt 0.391113281 0.957374811
vt 0.424316406 0.957374811
vt 0.424316406 0.979025722
vt 0.439941406 0.979025722
vt 0.439941406 0.957374811
vt 0.440917969 0.957374811
vt 0.440917969 0.979025722
vt 0.456542969 0.979025722
vt 0.456542969 0.957374811
vt 0.521972656 0.957374811
vt 0.521972656 0.979025722
vt 0.537597656 0.979025722
vt 0.537597656 0.957374811
vt 0.246582031 0.958728015
vt 0.246582031 0.980378866
vt 0.262207031 0.980378866
vt 0.262207031 0.958728015
vt 0.263183594 0.958728015
vt 0.263183594 0.980378866
vt 0.278808594 0.980378866
vt 0.278808594 0.958728015
vt 0.279785156 0.958728015
vt 0.279785156 0.966847062
vt 0.295410156 0.966847062
vt 0.295410156 0.958728015
vt 0.457519531 0.958728015
vt 0.457519531 0.980378866
vt 0.473144531 0.980378866
vt 0.473144531 0.958728015
vt 0.474121094 0.958728015
vt 0.474121094 0.980378866
vt 0.489746094 0.980378866
vt 0.489746094 0.958728015
vt 0.490722656 0.958728015
vt 0.490722656 0.980378866
vt 0.506347656 0.980378866
vt 0.506347656 0.958728015
vt 0.942871094 0.962787569
vt 0.942871094 0.984438419
vt 0.958496094 0.984438419
vt 0.958496094 0.962787569
vt 0.627441406 0.964140713
vt 0.627441406 0.985791624
vt 0.643066406 0.985791624
vt 0.643066406 0.964140713
vt 0.644042969 0.964140713
vt 0.644042969 0.985791624
vt 0.659667969 0.985791624
vt 0.659667969 0.964140713
vt 0.548339844 0.965493917
vt 0.548339844 0.987144768
vt 0.563964844 0.987144768
vt 0.563964844 0.965493917
vt 0.564941406 0.965493917
vt 0.564941406 0.987144768
vt 0.580566406 0.987144768
vt 0.580566406 0.965493917
vt 0.581542969 0.965493917
vt 0.581542969 0.987144768
vt 0.597167969 0.987144768
vt 0.597167969 0.965493917
vt 0.598144531 0.965493917
vt 0.598144531 0.987144768
vt 0.613769531 0.987144768
vt 0.613769531 0.965493917
vt 0.0659179688 0.966847062
vt 0.0659179688 0.988497972
vt 0.0815429688 0.988497972
vt 0.0815429688 0.966847062
vt 0.0825195312 0.966847062
vt 0.0825195312 0.988497972
vt 0.0981445312 0.988497972
vt 0.0981445312 0.966847062
vt 0.833496094 0.966847062
vt 0.833496094 0.988497972
vt 0.849121094 0.988497972
vt 0.849121094 0.966847062
vt 0.279785156 0.968200266
vt 0.279785156 0.989851177
vt 0.295410156 0.989851177
vt 0.295410156 0.968200266
vt 0.392089844 0.968200266
vt 0.392089844 0.989851177
vt 0.407714844 0.989851177
vt 0.407714844 0.968200266
vt 0.863769531 0.968200266
vt 0.863769531 0.989851177
vt 0.879394531 0.989851177
vt 0.879394531 0.968200266
g jiuyun-mesh_0
f 3/3/3 2/2/2 1/1/1
f 1/1/1 4/4/4 3/3/3
f 7/7/7 6/6/6 5/5/5
f 5/5/5 8/8/8 7/7/7
f 11/11/11 10/10/10 9/9/9
f 9/9/9 12/12/12 11/11/11
f 15/15/15 14/14/14 13/13/13
f 13/13/13 16/16/16 15/15/15
f 19/19/19 18/18/18 17/17/17
f 17/17/17 20/20/20 19/19/19
f 23/23/23 22/22/22 21/21/21
f 21/21/21 24/24/24 23/23/23
f 27/27/27 26/26/26 25/25/25
f 25/25/25 28/28/28 27/27/27
f 31/31/31 30/30/30 29/29/29
f 29/29/29 32/32/32 31/31/31
f 35/35/35 34/34/34 33/33/33
f 33/33/33 36/36/36 35/35/35
f 39/39/39 38/38/38 37/37/37
f 37/37/37 40/40/40 39/39/39
f 43/43/43 42/42/42 41/41/41
f 41/41/41 44/44/44 43/43/43
f 47/47/47 46/46/46 45/45/45
f 45/45/45 48/48/48 47/47/47
f 51/51/51 50/50/50 49/49/49
f 49/49/49 52/52/52 51/51/51
f 55/55/55 54/54/54 53/53/53
f 53/53/53 56/56/56 55/55/55
f 59/59/59 58/58/58 57/57/57
f 57/57/57 60/60/60 59/59/59
f 63/63/63 62/62/62 61/61/61
f 61/61/61 64/64/64 63/63/63
f 67/67/67 66/66/66 65/65/65
f 65/65/65 68/68/68 67/67/67
f 71/71/71 70/70/70 69/69/69
f 69/69/69 72/72/72 71/71/71
f 75/75/75 74/74/74 73/73/73
f 73/73/73 76/76/76 75/75/75
f 79/79/79 78/78/78 77/77/77
f 77/77/77 80/80/80 79/79/79
f 83/83/83 82/82/82 81/81/81
f 81/81/81 84/84/84 83/83/83
f 87/87/87 86/86/86 85/85/85
f 85/85/85 88/88/88 87/87/87
f 91/91/91 90/90/90 89/89/89
f 89/89/89 92/92/92 91/91/91
f 95/95/95 94/94/94 93/93/93
f 93/93/93 96/96/96 95/95/95
f 99/99/99 98/98/98 97/97/97
f 97/97/97 100/100/100 99/99/99
f 103/103/103 102/102/102 101/101/101
f 101/101/101 104/104/104 103/103/103
f 107/107/107 106/106/106 105/105/105
f 105/105/105 108/108/108 107/107/107
f 111/111/111 110/110/110 109/109/109
f 109/109/109 112/112/112 111/111/111
f 115/115/115 114/114/114 113/113/113
f 113/113/113 116/116/116 115/115/115
f 119/119/119 118/118/118 117/117/117
f 117/117/117 120/120/120 119/119/119
f 123/123/123 122/122/122 121/121/121
f 121/121/121 124/124/124 123/123/123
f 127/127/127 126/126/126 125/125/125
f 125/125/125 128/128/128 127/127/127
f 131/131/131 130/130/130 129/129/129
f 129/129/129 132/132/132 131/131/131
f 135/135/135 134/134/134 133/133/133
f 133/133/133 136/136/136 135/135/135
f 139/139/139 138/138/138 137/137/137
f 137/137/137 140/140/140 139/139/139
f 143/143/143 142/142/142 141/141/141
f 141/141/141 144/144/144 143/143/143
f 147/147/147 146/146/146 145/145/145
f 145/145/145 148/148/148 147/147/147
f 151/151/151 150/150/150 149/149/149
f 149/149/149 152/152/152 151/151/151
f 155/155/155 154/154/154 153/153/153
f 153/153/153 156/156/156 155/155/155
f 159/159/159 158/158/158 157/157/157
f 157/157/157 160/160/160 159/159/159
f 163/163/163 162/162/162 161/161/161
f 161/161/161 164/164/164 163/163/163
f 167/167/167 166/166/166 165/165/165
f 165/165/165 168/168/168 167/167/167
f 171/171/171 170/170/170 169/169/169
f 169/169/169 172/172/172 171/171/171
f 175/175/175 174/174/174 173/173/173
f 173/173/173 176/176/176 175/175/175
f 179/179/179 178/178/178 177/177/177
f 177/177/177 180/180/180 179/179/179
f 183/183/183 182/182/182 181/181/181
f 181/181/181 184/184/184 183/183/183
f 187/187/187 186/186/186 185/185/185
f 185/185/185 188/188/188 187/187/187
f 191/191/191 190/190/190 189/189/189
f 189/189/189 192/192/192 191/191/191
f 195/195/195 194/194/194 193/193/193
f 193/193/193 196/196/196 195/195/195
f 199/199/199 198/198/198 197/197/197
f 197/197/197 200/200/200 199/199/199
f 203/203/203 202/202/202 201/201/201
f 201/201/201 204/204/204 203/203/203
f 207/207/207 206/206/206 205/205/205
f 205/205/205 208/208/208 207/207/207
f 211/211/211 210/210/210 209/209/209
f 209/209/209 212/212/212 211/211/211
f 215/215/215 214/214/214 213/213/213
f 213/213/213 216/216/216 215/215/215
f 219/219/219 218/218/218 217/217/217
f 217/217/217 220/220/220 219/219/219
f 223/223/223 222/222/222 221/221/221
f 221/221/221 224/224/224 223/223/223
f 227/227/227 226/226/226 225/225/225
f 225/225/225 228/228/228 227/227/227
f 231/231/231 230/230/230 229/229/229
f 229/229/229 232/232/232 231/231/231
f 235/235/235 234/234/234 233/233/233
f 233/233/233 236/236/236 235/235/235
f 239/239/239 238/238/238 237/237/237
f 237/237/237 240/240/240 239/239/239
f 243/243/243 242/242/242 241/241/241
f 241/241/241 244/244/244 243/243/243
f 247/247/247 246/246/246 245/245/245
f 245/245/245 248/248/248 247/247/247
f 251/251/251 250/250/250 249/249/249
f 249/249/249 252/252/252 251/251/251
f 255/255/255 254/254/254 253/253/253
f 253/253/253 256/256/256 255/255/255
f 259/259/259 258/258/258 257/257/257
f 257/257/257 260/260/260 259/259/259
f 263/263/263 262/262/262 261/261/261
f 261/261/261 264/264/264 263/263/263
f 267/267/267 266/266/266 265/265/265
f 265/265/265 268/268/268 267/267/267
f 271/271/271 270/270/270 269/269/269
f 269/269/269 272/272/272 271/271/271
f 275/275/275 274/274/274 273/273/273
f 273/273/273 276/276/276 275/275/275
f 279/279/279 278/278/278 277/277/277
f 277/277/277 280/280/280 279/279/279
f 283/283/283 282/282/282 281/281/281
f 281/281/281 284/284/284 283/283/283
f 287/287/287 286/286/286 285/285/285
f 285/285/285 288/288/288 287/287/287
f 291/291/291 290/290/290 289/289/289
f 289/289/289 292/292/292 291/291/291
f 295/295/295 294/294/294 293/293/293
f 293/293/293 296/296/296 295/295/295
f 299/299/299 298/298/298 297/297/297
f 297/297/297 300/300/300 299/299/299
f 303/303/303 302/302/302 301/301/301
f 301/301/301 304/304/304 303/303/303
f 307/307/307 306/306/306 305/305/305
f 305/305/305 308/308/308 307/307/307
f 311/311/311 310/310/310 309/309/309
f 309/309/309 312/312/312 311/311/311
f 315/315/315 314/314/314 313/313/313
f 313/313/313 316/316/316 315/315/315
f 319/319/319 318/318/318 317/317/317
f 317/317/317 320/320/320 319/319/319
f 323/323/323 322/322/322 321/321/321
f 321/321/321 324/324/324 323/323/323
f 327/327/327 326/326/326 325/325/325
f 325/325/325 328/328/328 327/327/327
f 331/331/331 330/330/330 329/329/329
f 329/329/329 332/332/332 331/331/331
f 335/335/335 334/334/334 333/333/333
f 333/333/333 336/336/336 335/335/335
f 339/339/339 338/338/338 337/337/337
f 337/337/337 340/340/340 339/339/339
f 343/343/343 342/342/342 341/341/341
f 341/341/341 344/344/344 343/343/343
f 347/347/347 346/346/346 345/345/345
f 345/345/345 348/348/348 347/347/347
f 351/351/351 350/350/350 349/349/349
f 349/349/349 352/352/352 351/351/351
f 355/355/355 354/354/354 353/353/353
f 353/353/353 356/356/356 355/355/355
f 359/359/359 358/358/358 357/357/357
f 357/357/357 360/360/360 359/359/359
f 363/363/363 362/362/362 361/361/361
f 361/361/361 364/364/364 363/363/363
f 367/367/367 366/366/366 365/365/365
f 365/365/365 368/368/368 367/367/367
f 371/371/371 370/370/370 369/369/369
f 369/369/369 372/372/372 371/371/371
f 375/375/375 374/374/374 373/373/373
f 373/373/373 376/376/376 375/375/375
f 379/379/379 378/378/378 377/377/377
f 377/377/377 380/380/380 379/379/379
f 383/383/383 382/382/382 381/381/381
f 381/381/381 384/384/384 383/383/383
f 387/387/387 386/386/386 385/385/385
f 385/385/385 388/388/388 387/387/387
f 391/391/391 390/390/390 389/389/389
f 389/389/389 392/392/392 391/391/391
f 395/395/395 394/394/394 393/393/393
f 393/393/393 396/396/396 395/395/395
f 399/399/399 398/398/398 397/397/397
f 397/397/397 400/400/400 399/399/399
f 403/403/403 402/402/402 401/401/401
f 401/401/401 404/404/404 403/403/403
f 407/407/407 406/406/406 405/405/405
f 405/405/405 408/408/408 407/407/407
f 411/411/411 410/410/410 409/409/409
f 409/409/409 412/412/412 411/411/411
f 415/415/415 414/414/414 413/413/413
f 413/413/413 416/416/416 415/415/415
f 419/419/419 418/418/418 417/417/417
f 417/417/417 420/420/420 419/419/419
f 423/423/423 422/422/422 421/421/421
f 421/421/421 424/424/424 423/423/423
f 427/427/427 426/426/426 425/425/425
f 425/425/425 428/428/428 427/427/427
f 431/431/431 430/430/430 429/429/429
f 429/429/429 432/432/432 431/431/431
f 435/435/435 434/434/434 433/433/433
f 433/433/433 436/436/436 435/435/435
f 439/439/439 438/438/438 437/437/437
f 437/437/437 440/440/440 439/439/439
f 443/443/443 442/442/442 441/441/441
f 441/441/441 444/444/444 443/443/443
f 447/447/447 446/446/446 445/445/445
f 445/445/445 448/448/448 447/447/447
f 451/451/451 450/450/450 449/449/449
f 449/449/449 452/452/452 451/451/451
f 455/455/455 454/454/454 453/453/453
f 453/453/453 456/456/456 455/455/455
f 459/459/459 458/458/458 457/457/457
f 457/457/457 460/460/460 459/459/459
f 463/463/463 462/462/462 461/461/461
f 461/461/461 464/464/464 463/463/463
f 467/467/467 466/466/466 465/465/465
f 465/465/465 468/468/468 467/467/467
f 471/471/471 470/470/470 469/469/469
f 469/469/469 472/472/472 471/471/471
f 475/475/475 474/474/474 473/473/473
f 473/473/473 476/476/476 475/475/475
f 479/479/479 478/478/478 477/477/477
f 477/477/477 480/480/480 479/479/479
f 483/483/483 482/482/482 481/481/481
f 481/481/481 484/484/484 483/483/483
f 487/487/487 486/486/486 485/485/485
f 485/485/485 488/488/488 487/487/487
f 491/491/491 490/490/490 489/489/489
f 489/489/489 492/492/492 491/491/491
f 495/495/495 494/494/494 493/493/493
f 493/493/493 496/496/496 495/495/495
f 499/499/499 498/498/498 497/497/497
f 497/497/497 500/500/500 499/499/499
f 503/503/503 502/502/502 501/501/501
f 501/501/501 504/504/504 503/503/503
f 507/507/507 506/506/506 505/505/505
f 505/505/505 508/508/508 507/507/507
f 511/511/511 510/510/510 509/509/509
f 509/509/509 512/512/512 511/511/511
f 515/515/515 514/514/514 513/513/513
f 513/513/513 516/516/516 515/515/515
f 519/519/519 518/518/518 517/517/517
f 517/517/517 520/520/520 519/519/519
f 523/523/523 522/522/522 521/521/521
f 521/521/521 524/524/524 523/523/523
f 527/527/527 526/526/526 525/525/525
f 525/525/525 528/528/528 527/527/527
f 531/531/531 530/530/530 529/529/529
f 529/529/529 532/532/532 531/531/531
f 535/535/535 534/534/534 533/533/533
f 533/533/533 536/536/536 535/535/535
f 539/539/539 538/538/538 537/537/537
f 537/537/537 540/540/540 539/539/539
