g aierdeliqi_g-mesh
v -384 370 0
v -384 1746 0
v -1760 1746 0
v -1760 370 0
v -192 1074 0
v -192 1682 0
v -384 1682 0
v -384 1074 0
v -192 498 0
v -192 1074 0
v -384 1074 0
v -384 498 0
v -1088 178 0
v -1088 370 0
v -1504 370 0
v -1504 178 0
v -672 178 0
v -672 370 0
v -1088 370 0
v -1088 178 0
v -1760 754 0
v -1760 1202 0
v -1920 1202 0
v -1920 754 0
v -1760 1202 0
v -1760 1650 0
v -1920 1650 0
v -1920 1202 0
v -640 1746 0
v -640 1874 0
v -1120 1874 0
v -1120 1746 0
v -1120 1746 0
v -1120 1874 0
v -1568 1874 0
v -1568 1746 0
v -128 530 0
v -128 946 0
v -192 946 0
v -192 530 0
v -128 946 0
v -128 1362 0
v -192 1362 0
v -192 946 0
v -544 242 0
v -544 370 0
v -672 370 0
v -672 242 0
v -832 1874 0
v -832 1938 0
v -1088 1938 0
v -1088 1874 0
v -1504 274 0
v -1504 370 0
v -1664 370 0
v -1664 274 0
v -1088 1874 0
v -1088 1938 0
v -1312 1938 0
v -1312 1874 0
v -1664 274 0
v -1664 370 0
v -1792 370 0
v -1792 274 0
v -736 146 0
v -736 178 0
v -1088 178 0
v -1088 146 0
v -1920 1266 0
v -1920 1426 0
v -1984 1426 0
v -1984 1266 0
v -1088 146 0
v -1088 178 0
v -1408 178 0
v -1408 146 0
v -1920 1426 0
v -1920 1586 0
v -1984 1586 0
v -1984 1426 0
v -224 1682 0
v -224 1746 0
v -352 1746 0
v -352 1682 0
v -1568 1746 0
v -1568 1810 0
v -1696 1810 0
v -1696 1746 0
v -1376 1874 0
v -1376 1938 0
v -1472 1938 0
v -1472 1874 0
v -448 306 0
v -448 370 0
v -544 370 0
v -544 306 0
v -1824 466 0
v -1824 562 0
v -1888 562 0
v -1888 466 0
v -544 1746 0
v -544 1810 0
v -640 1810 0
v -640 1746 0
v -0 626 0
v -0 690 0
v -96 690 0
v -96 626 0
v -1824 658 0
v -1824 754 0
v -1888 754 0
v -1888 658 0
v -96 1490 0
v -96 1554 0
v -192 1554 0
v -192 1490 0
v -1760 370 0
v -1760 562 0
v -1792 562 0
v -1792 370 0
v -1760 562 0
v -1760 754 0
v -1792 754 0
v -1792 562 0
v -864 114 0
v -864 146 0
v -1024 146 0
v -1024 114 0
v -1792 594 0
v -1792 754 0
v -1824 754 0
v -1824 594 0
v -1792 434 0
v -1792 594 0
v -1824 594 0
v -1824 434 0
v -96 722 0
v -96 882 0
v -128 882 0
v -128 722 0
v -1024 114 0
v -1024 146 0
v -1184 146 0
v -1184 114 0
v -1504 210 0
v -1504 274 0
v -1568 274 0
v -1568 210 0
v -320 434 0
v -320 498 0
v -384 498 0
v -384 434 0
v -96 594 0
v -96 722 0
v -128 722 0
v -128 594 0
v -1920 1010 0
v -1920 1138 0
v -1952 1138 0
v -1952 1010 0
v -1920 914 0
v -1920 1010 0
v -1952 1010 0
v -1952 914 0
v -1984 1426 0
v -1984 1522 0
v -2016 1522 0
v -2016 1426 0
v -1984 1330 0
v -1984 1426 0
v -2016 1426 0
v -2016 1330 0
v -1760 1682 0
v -1760 1746 0
v -1792 1746 0
v -1792 1682 0
v -1568 1810 0
v -1568 1842 0
v -1632 1842 0
v -1632 1810 0
v -96 1138 0
v -96 1202 0
v -128 1202 0
v -128 1138 0
v -1312 1874 0
v -1312 1906 0
v -1376 1906 0
v -1376 1874 0
v -1888 658 0
v -1888 722 0
v -1920 722 0
v -1920 658 0
v -96 434 0
v -96 498 0
v -128 498 0
v -128 434 0
v -224 466 0
v -224 498 0
v -288 498 0
v -288 466 0
v -608 210 0
v -608 242 0
v -672 242 0
v -672 210 0
v -1824 594 0
v -1824 658 0
v -1856 658 0
v -1856 594 0
v -1760 1746 0
v -1760 1778 0
v -1824 1778 0
v -1824 1746 0
v -160 1426 0
v -160 1490 0
v -192 1490 0
v -192 1426 0
v -64 754 0
v -64 818 0
v -96 818 0
v -96 754 0
v -736 1874 0
v -736 1906 0
v -800 1906 0
v -800 1874 0
v -96 1266 0
v -96 1330 0
v -128 1330 0
v -128 1266 0
v -64 818 0
v -64 882 0
v -96 882 0
v -96 818 0
v -1696 1746 0
v -1696 1778 0
v -1760 1778 0
v -1760 1746 0
v -1824 434 0
v -1824 466 0
v -1856 466 0
v -1856 434 0
v -128 498 0
v -128 530 0
v -160 530 0
v -160 498 0
v -64 1266 0
v -64 1298 0
v -96 1298 0
v -96 1266 0
v -64 594 0
v -64 626 0
v -96 626 0
v -96 594 0
v -96 530 0
v -96 562 0
v -128 562 0
v -128 530 0
v -352 402 0
v -352 434 0
v -384 434 0
v -384 402 0
v -512 274 0
v -512 306 0
v -544 306 0
v -544 274 0
v -1792 274 0
v -1792 306 0
v -1824 306 0
v -1824 274 0
v -416 338 0
v -416 370 0
v -448 370 0
v -448 338 0
v -256 370 0
v -256 402 0
v -288 402 0
v -288 370 0
v -1568 242 0
v -1568 274 0
v -1600 274 0
v -1600 242 0
v -96 1458 0
v -96 1490 0
v -128 1490 0
v -128 1458 0
v -800 1874 0
v -800 1906 0
v -832 1906 0
v -832 1874 0
v -608 1810 0
v -608 1842 0
v -640 1842 0
v -640 1810 0
v -160 1394 0
v -160 1426 0
v -192 1426 0
v -192 1394 0
v -96 1234 0
v -96 1266 0
v -128 1266 0
v -128 1234 0
v -96 1106 0
v -96 1138 0
v -128 1138 0
v -128 1106 0
v -32 1778 0
v -32 1810 0
v -64 1810 0
v -64 1778 0
v -352 1682 0
v -352 1714 0
v -384 1714 0
v -384 1682 0
v -1920 1586 0
v -1920 1618 0
v -1952 1618 0
v -1952 1586 0
v -0 1682 0
v -0 1714 0
v -32 1714 0
v -32 1682 0
v -512 1746 0
v -512 1778 0
v -544 1778 0
v -544 1746 0
v -1792 1714 0
v -1792 1746 0
v -1824 1746 0
v -1824 1714 0
vt 0.00048828125 0.0006082654
vt 0.00048828125 0.837591231
vt 0.672363281 0.837591231
vt 0.672363281 0.0006082654
vt 0.673339844 0.0006082654
vt 0.673339844 0.37043798
vt 0.767089844 0.37043798
vt 0.767089844 0.0006082654
vt 0.768066406 0.0006082654
vt 0.768066406 0.350973248
vt 0.861816406 0.350973248
vt 0.861816406 0.0006082654
vt 0.768066406 0.352189779
vt 0.768066406 0.468978107
vt 0.971191406 0.468978107
vt 0.971191406 0.352189779
vt 0.768066406 0.470194638
vt 0.768066406 0.586982965
vt 0.971191406 0.586982965
vt 0.971191406 0.470194638
vt 0.673339844 0.37165451
vt 0.673339844 0.644160628
vt 0.751464844 0.644160628
vt 0.751464844 0.37165451
vt 0.768066406 0.588199496
vt 0.768066406 0.860705614
vt 0.846191406 0.860705614
vt 0.846191406 0.588199496
vt 0.00048828125 0.838807821
vt 0.00048828125 0.916666687
vt 0.234863281 0.916666687
vt 0.234863281 0.838807821
vt 0.235839844 0.838807821
vt 0.235839844 0.916666687
vt 0.454589844 0.916666687
vt 0.454589844 0.838807821
vt 0.847167969 0.588199496
vt 0.847167969 0.841240883
vt 0.878417969 0.841240883
vt 0.878417969 0.588199496
vt 0.879394531 0.588199496
vt 0.879394531 0.841240883
vt 0.910644531 0.841240883
vt 0.910644531 0.588199496
vt 0.911621094 0.588199496
vt 0.911621094 0.666058421
vt 0.974121094 0.666058421
vt 0.974121094 0.588199496
vt 0.455566406 0.838807821
vt 0.455566406 0.877737224
vt 0.580566406 0.877737224
vt 0.580566406 0.838807821
vt 0.673339844 0.645377159
vt 0.673339844 0.703771293
vt 0.751464844 0.703771293
vt 0.751464844 0.645377159
vt 0.581542969 0.838807821
vt 0.581542969 0.877737224
vt 0.690917969 0.877737224
vt 0.690917969 0.838807821
vt 0.911621094 0.667274952
vt 0.911621094 0.725669086
vt 0.974121094 0.725669086
vt 0.974121094 0.667274952
vt 0.768066406 0.861922145
vt 0.768066406 0.881386876
vt 0.939941406 0.881386876
vt 0.939941406 0.861922145
vt 0.691894531 0.704987824
vt 0.691894531 0.80231142
vt 0.723144531 0.80231142
vt 0.723144531 0.704987824
vt 0.455566406 0.878953755
vt 0.455566406 0.898418486
vt 0.611816406 0.898418486
vt 0.611816406 0.878953755
vt 0.724121094 0.704987824
vt 0.724121094 0.80231142
vt 0.755371094 0.80231142
vt 0.755371094 0.704987824
vt 0.691894531 0.803527951
vt 0.691894531 0.842457414
vt 0.754394531 0.842457414
vt 0.754394531 0.803527951
vt 0.691894531 0.843673944
vt 0.691894531 0.882603407
vt 0.754394531 0.882603407
vt 0.754394531 0.843673944
vt 0.940917969 0.726885676
vt 0.940917969 0.765815079
vt 0.987792969 0.765815079
vt 0.987792969 0.726885676
vt 0.940917969 0.76703161
vt 0.940917969 0.805961072
vt 0.987792969 0.805961072
vt 0.987792969 0.76703161
vt 0.940917969 0.807177603
vt 0.940917969 0.865571797
vt 0.972167969 0.865571797
vt 0.972167969 0.807177603
vt 0.940917969 0.866788328
vt 0.940917969 0.905717731
vt 0.987792969 0.905717731
vt 0.987792969 0.866788328
vt 0.612792969 0.878953755
vt 0.612792969 0.917883217
vt 0.659667969 0.917883217
vt 0.659667969 0.878953755
vt 0.768066406 0.882603407
vt 0.768066406 0.940997541
vt 0.799316406 0.940997541
vt 0.799316406 0.882603407
vt 0.800292969 0.882603407
vt 0.800292969 0.921532869
vt 0.847167969 0.921532869
vt 0.847167969 0.882603407
vt 0.660644531 0.878953755
vt 0.660644531 0.995742083
vt 0.676269531 0.995742083
vt 0.676269531 0.878953755
vt 0.848144531 0.882603407
vt 0.848144531 0.999391735
vt 0.863769531 0.999391735
vt 0.863769531 0.882603407
vt 0.455566406 0.899635017
vt 0.455566406 0.919099748
vt 0.533691406 0.919099748
vt 0.533691406 0.899635017
vt 0.864746094 0.882603407
vt 0.864746094 0.979927003
vt 0.880371094 0.979927003
vt 0.880371094 0.882603407
vt 0.881347656 0.882603407
vt 0.881347656 0.979927003
vt 0.896972656 0.979927003
vt 0.896972656 0.882603407
vt 0.897949219 0.882603407
vt 0.897949219 0.979927003
vt 0.913574219 0.979927003
vt 0.913574219 0.882603407
vt 0.00048828125 0.917883217
vt 0.00048828125 0.937347949
vt 0.0786132812 0.937347949
vt 0.0786132812 0.917883217
vt 0.691894531 0.883819938
vt 0.691894531 0.9227494
vt 0.723144531 0.9227494
vt 0.723144531 0.883819938
vt 0.724121094 0.883819938
vt 0.724121094 0.9227494
vt 0.755371094 0.9227494
vt 0.755371094 0.883819938
vt 0.914550781 0.882603407
vt 0.914550781 0.960462272
vt 0.930175781 0.960462272
vt 0.930175781 0.882603407
vt 0.534667969 0.899635017
vt 0.534667969 0.977493942
vt 0.550292969 0.977493942
vt 0.550292969 0.899635017
vt 0.551269531 0.899635017
vt 0.551269531 0.958029211
vt 0.566894531 0.958029211
vt 0.566894531 0.899635017
vt 0.567871094 0.899635017
vt 0.567871094 0.958029211
vt 0.583496094 0.958029211
vt 0.583496094 0.899635017
vt 0.584472656 0.899635017
vt 0.584472656 0.958029211
vt 0.600097656 0.958029211
vt 0.600097656 0.899635017
vt 0.940917969 0.906934321
vt 0.940917969 0.945863724
vt 0.956542969 0.945863724
vt 0.956542969 0.906934321
vt 0.957519531 0.906934321
vt 0.957519531 0.926399052
vt 0.988769531 0.926399052
vt 0.988769531 0.906934321
vt 0.0795898438 0.917883217
vt 0.0795898438 0.95681268
vt 0.0952148438 0.95681268
vt 0.0952148438 0.917883217
vt 0.0961914062 0.917883217
vt 0.0961914062 0.937347949
vt 0.127441406 0.937347949
vt 0.127441406 0.917883217
vt 0.128417969 0.917883217
vt 0.128417969 0.95681268
vt 0.144042969 0.95681268
vt 0.144042969 0.917883217
vt 0.145019531 0.917883217
vt 0.145019531 0.95681268
vt 0.160644531 0.95681268
vt 0.160644531 0.917883217
vt 0.161621094 0.917883217
vt 0.161621094 0.937347949
vt 0.192871094 0.937347949
vt 0.192871094 0.917883217
vt 0.193847656 0.917883217
vt 0.193847656 0.937347949
vt 0.225097656 0.937347949
vt 0.225097656 0.917883217
vt 0.226074219 0.917883217
vt 0.226074219 0.95681268
vt 0.241699219 0.95681268
vt 0.241699219 0.917883217
vt 0.242675781 0.917883217
vt 0.242675781 0.937347949
vt 0.273925781 0.937347949
vt 0.273925781 0.917883217
vt 0.274902344 0.917883217
vt 0.274902344 0.95681268
vt 0.290527344 0.95681268
vt 0.290527344 0.917883217
vt 0.291503906 0.917883217
vt 0.291503906 0.95681268
vt 0.307128906 0.95681268
vt 0.307128906 0.917883217
vt 0.308105469 0.917883217
vt 0.308105469 0.937347949
vt 0.339355469 0.937347949
vt 0.339355469 0.917883217
vt 0.340332031 0.917883217
vt 0.340332031 0.95681268
vt 0.355957031 0.95681268
vt 0.355957031 0.917883217
vt 0.356933594 0.917883217
vt 0.356933594 0.95681268
vt 0.372558594 0.95681268
vt 0.372558594 0.917883217
vt 0.373535156 0.917883217
vt 0.373535156 0.937347949
vt 0.404785156 0.937347949
vt 0.404785156 0.917883217
vt 0.405761719 0.917883217
vt 0.405761719 0.937347949
vt 0.421386719 0.937347949
vt 0.421386719 0.917883217
vt 0.422363281 0.917883217
vt 0.422363281 0.937347949
vt 0.437988281 0.937347949
vt 0.437988281 0.917883217
vt 0.438964844 0.917883217
vt 0.438964844 0.937347949
vt 0.454589844 0.937347949
vt 0.454589844 0.917883217
vt 0.612792969 0.919099748
vt 0.612792969 0.938564479
vt 0.628417969 0.938564479
vt 0.628417969 0.919099748
vt 0.629394531 0.919099748
vt 0.629394531 0.938564479
vt 0.645019531 0.938564479
vt 0.645019531 0.919099748
vt 0.455566406 0.920316279
vt 0.455566406 0.93978101
vt 0.471191406 0.93978101
vt 0.471191406 0.920316279
vt 0.472167969 0.920316279
vt 0.472167969 0.93978101
vt 0.487792969 0.93978101
vt 0.487792969 0.920316279
vt 0.488769531 0.920316279
vt 0.488769531 0.93978101
vt 0.504394531 0.93978101
vt 0.504394531 0.920316279
vt 0.505371094 0.920316279
vt 0.505371094 0.93978101
vt 0.520996094 0.93978101
vt 0.520996094 0.920316279
vt 0.800292969 0.9227494
vt 0.800292969 0.942214131
vt 0.815917969 0.942214131
vt 0.815917969 0.9227494
vt 0.816894531 0.9227494
vt 0.816894531 0.942214131
vt 0.832519531 0.942214131
vt 0.832519531 0.9227494
vt 0.691894531 0.923965931
vt 0.691894531 0.943430662
vt 0.707519531 0.943430662
vt 0.707519531 0.923965931
vt 0.708496094 0.923965931
vt 0.708496094 0.943430662
vt 0.724121094 0.943430662
vt 0.724121094 0.923965931
vt 0.725097656 0.923965931
vt 0.725097656 0.943430662
vt 0.740722656 0.943430662
vt 0.740722656 0.923965931
vt 0.741699219 0.923965931
vt 0.741699219 0.943430662
vt 0.757324219 0.943430662
vt 0.757324219 0.923965931
vt 0.957519531 0.927615583
vt 0.957519531 0.947080314
vt 0.973144531 0.947080314
vt 0.973144531 0.927615583
vt 0.974121094 0.927615583
vt 0.974121094 0.947080314
vt 0.989746094 0.947080314
vt 0.989746094 0.927615583
vt 0.00048828125 0.938564479
vt 0.00048828125 0.958029211
vt 0.0161132812 0.958029211
vt 0.0161132812 0.938564479
vt 0.0170898438 0.938564479
vt 0.0170898438 0.958029211
vt 0.0327148438 0.958029211
vt 0.0327148438 0.938564479
vt 0.0336914062 0.938564479
vt 0.0336914062 0.958029211
vt 0.0493164062 0.958029211
vt 0.0493164062 0.938564479
vt 0.0502929688 0.938564479
vt 0.0502929688 0.958029211
vt 0.0659179688 0.958029211
vt 0.0659179688 0.938564479
vt 0.0961914062 0.938564479
vt 0.0961914062 0.958029211
vt 0.111816406 0.958029211
vt 0.111816406 0.938564479
vt 0.161621094 0.938564479
vt 0.161621094 0.958029211
vt 0.177246094 0.958029211
vt 0.177246094 0.938564479
g aierdeliqi_g-mesh_0
f 3/3/3 2/2/2 1/1/1
f 1/1/1 4/4/4 3/3/3
f 7/7/7 6/6/6 5/5/5
f 5/5/5 8/8/8 7/7/7
f 11/11/11 10/10/10 9/9/9
f 9/9/9 12/12/12 11/11/11
f 15/15/15 14/14/14 13/13/13
f 13/13/13 16/16/16 15/15/15
f 19/19/19 18/18/18 17/17/17
f 17/17/17 20/20/20 19/19/19
f 23/23/23 22/22/22 21/21/21
f 21/21/21 24/24/24 23/23/23
f 27/27/27 26/26/26 25/25/25
f 25/25/25 28/28/28 27/27/27
f 31/31/31 30/30/30 29/29/29
f 29/29/29 32/32/32 31/31/31
f 35/35/35 34/34/34 33/33/33
f 33/33/33 36/36/36 35/35/35
f 39/39/39 38/38/38 37/37/37
f 37/37/37 40/40/40 39/39/39
f 43/43/43 42/42/42 41/41/41
f 41/41/41 44/44/44 43/43/43
f 47/47/47 46/46/46 45/45/45
f 45/45/45 48/48/48 47/47/47
f 51/51/51 50/50/50 49/49/49
f 49/49/49 52/52/52 51/51/51
f 55/55/55 54/54/54 53/53/53
f 53/53/53 56/56/56 55/55/55
f 59/59/59 58/58/58 57/57/57
f 57/57/57 60/60/60 59/59/59
f 63/63/63 62/62/62 61/61/61
f 61/61/61 64/64/64 63/63/63
f 67/67/67 66/66/66 65/65/65
f 65/65/65 68/68/68 67/67/67
f 71/71/71 70/70/70 69/69/69
f 69/69/69 72/72/72 71/71/71
f 75/75/75 74/74/74 73/73/73
f 73/73/73 76/76/76 75/75/75
f 79/79/79 78/78/78 77/77/77
f 77/77/77 80/80/80 79/79/79
f 83/83/83 82/82/82 81/81/81
f 81/81/81 84/84/84 83/83/83
f 87/87/87 86/86/86 85/85/85
f 85/85/85 88/88/88 87/87/87
f 91/91/91 90/90/90 89/89/89
f 89/89/89 92/92/92 91/91/91
f 95/95/95 94/94/94 93/93/93
f 93/93/93 96/96/96 95/95/95
f 99/99/99 98/98/98 97/97/97
f 97/97/97 100/100/100 99/99/99
f 103/103/103 102/102/102 101/101/101
f 101/101/101 104/104/104 103/103/103
f 107/107/107 106/106/106 105/105/105
f 105/105/105 108/108/108 107/107/107
f 111/111/111 110/110/110 109/109/109
f 109/109/109 112/112/112 111/111/111
f 115/115/115 114/114/114 113/113/113
f 113/113/113 116/116/116 115/115/115
f 119/119/119 118/118/118 117/117/117
f 117/117/117 120/120/120 119/119/119
f 123/123/123 122/122/122 121/121/121
f 121/121/121 124/124/124 123/123/123
f 127/127/127 126/126/126 125/125/125
f 125/125/125 128/128/128 127/127/127
f 131/131/131 130/130/130 129/129/129
f 129/129/129 132/132/132 131/131/131
f 135/135/135 134/134/134 133/133/133
f 133/133/133 136/136/136 135/135/135
f 139/139/139 138/138/138 137/137/137
f 137/137/137 140/140/140 139/139/139
f 143/143/143 142/142/142 141/141/141
f 141/141/141 144/144/144 143/143/143
f 147/147/147 146/146/146 145/145/145
f 145/145/145 148/148/148 147/147/147
f 151/151/151 150/150/150 149/149/149
f 149/149/149 152/152/152 151/151/151
f 155/155/155 154/154/154 153/153/153
f 153/153/153 156/156/156 155/155/155
f 159/159/159 158/158/158 157/157/157
f 157/157/157 160/160/160 159/159/159
f 163/163/163 162/162/162 161/161/161
f 161/161/161 164/164/164 163/163/163
f 167/167/167 166/166/166 165/165/165
f 165/165/165 168/168/168 167/167/167
f 171/171/171 170/170/170 169/169/169
f 169/169/169 172/172/172 171/171/171
f 175/175/175 174/174/174 173/173/173
f 173/173/173 176/176/176 175/175/175
f 179/179/179 178/178/178 177/177/177
f 177/177/177 180/180/180 179/179/179
f 183/183/183 182/182/182 181/181/181
f 181/181/181 184/184/184 183/183/183
f 187/187/187 186/186/186 185/185/185
f 185/185/185 188/188/188 187/187/187
f 191/191/191 190/190/190 189/189/189
f 189/189/189 192/192/192 191/191/191
f 195/195/195 194/194/194 193/193/193
f 193/193/193 196/196/196 195/195/195
f 199/199/199 198/198/198 197/197/197
f 197/197/197 200/200/200 199/199/199
f 203/203/203 202/202/202 201/201/201
f 201/201/201 204/204/204 203/203/203
f 207/207/207 206/206/206 205/205/205
f 205/205/205 208/208/208 207/207/207
f 211/211/211 210/210/210 209/209/209
f 209/209/209 212/212/212 211/211/211
f 215/215/215 214/214/214 213/213/213
f 213/213/213 216/216/216 215/215/215
f 219/219/219 218/218/218 217/217/217
f 217/217/217 220/220/220 219/219/219
f 223/223/223 222/222/222 221/221/221
f 221/221/221 224/224/224 223/223/223
f 227/227/227 226/226/226 225/225/225
f 225/225/225 228/228/228 227/227/227
f 231/231/231 230/230/230 229/229/229
f 229/229/229 232/232/232 231/231/231
f 235/235/235 234/234/234 233/233/233
f 233/233/233 236/236/236 235/235/235
f 239/239/239 238/238/238 237/237/237
f 237/237/237 240/240/240 239/239/239
f 243/243/243 242/242/242 241/241/241
f 241/241/241 244/244/244 243/243/243
f 247/247/247 246/246/246 245/245/245
f 245/245/245 248/248/248 247/247/247
f 251/251/251 250/250/250 249/249/249
f 249/249/249 252/252/252 251/251/251
f 255/255/255 254/254/254 253/253/253
f 253/253/253 256/256/256 255/255/255
f 259/259/259 258/258/258 257/257/257
f 257/257/257 260/260/260 259/259/259
f 263/263/263 262/262/262 261/261/261
f 261/261/261 264/264/264 263/263/263
f 267/267/267 266/266/266 265/265/265
f 265/265/265 268/268/268 267/267/267
f 271/271/271 270/270/270 269/269/269
f 269/269/269 272/272/272 271/271/271
f 275/275/275 274/274/274 273/273/273
f 273/273/273 276/276/276 275/275/275
f 279/279/279 278/278/278 277/277/277
f 277/277/277 280/280/280 279/279/279
f 283/283/283 282/282/282 281/281/281
f 281/281/281 284/284/284 283/283/283
f 287/287/287 286/286/286 285/285/285
f 285/285/285 288/288/288 287/287/287
f 291/291/291 290/290/290 289/289/289
f 289/289/289 292/292/292 291/291/291
f 295/295/295 294/294/294 293/293/293
f 293/293/293 296/296/296 295/295/295
f 299/299/299 298/298/298 297/297/297
f 297/297/297 300/300/300 299/299/299
f 303/303/303 302/302/302 301/301/301
f 301/301/301 304/304/304 303/303/303
f 307/307/307 306/306/306 305/305/305
f 305/305/305 308/308/308 307/307/307
f 311/311/311 310/310/310 309/309/309
f 309/309/309 312/312/312 311/311/311
f 315/315/315 314/314/314 313/313/313
f 313/313/313 316/316/316 315/315/315
f 319/319/319 318/318/318 317/317/317
f 317/317/317 320/320/320 319/319/319
f 323/323/323 322/322/322 321/321/321
f 321/321/321 324/324/324 323/323/323
f 327/327/327 326/326/326 325/325/325
f 325/325/325 328/328/328 327/327/327
