g chuixue_6-mesh
v -128 247 0
v -128 919 0
v -576 919 0
v -576 247 0
v -576 247 0
v -576 919 0
v -992 919 0
v -992 247 0
v -416 919 0
v -416 1175 0
v -736 1175 0
v -736 919 0
v -736 919 0
v -736 1175 0
v -1024 1175 0
v -1024 919 0
v -160 983 0
v -160 1367 0
v -320 1367 0
v -320 983 0
v -320 119 0
v -320 247 0
v -576 247 0
v -576 119 0
v -576 119 0
v -576 247 0
v -800 247 0
v -800 119 0
v -448 23 0
v -448 119 0
v -672 119 0
v -672 23 0
v -64 983 0
v -64 1207 0
v -160 1207 0
v -160 983 0
v -64 567 0
v -64 887 0
v -128 887 0
v -128 567 0
v -64 279 0
v -64 567 0
v -128 567 0
v -128 279 0
v -800 23 0
v -800 119 0
v -992 119 0
v -992 23 0
v -544 1175 0
v -544 1239 0
v -832 1239 0
v -832 1175 0
v -320 919 0
v -320 1111 0
v -416 1111 0
v -416 919 0
v -832 1175 0
v -832 1239 0
v -1087 1239 0
v -1087 1175 0
v -512 1271 0
v -512 1367 0
v -640 1367 0
v -640 1271 0
v -384 1271 0
v -384 1367 0
v -512 1367 0
v -512 1271 0
v -992 663 0
v -992 823 0
v -1056 823 0
v -1056 663 0
v -992 823 0
v -992 919 0
v -1087 919 0
v -1087 823 0
v -992 535 0
v -992 663 0
v -1056 663 0
v -1056 535 0
v -0 311 0
v -0 439 0
v -64 439 0
v -64 311 0
v -192 183 0
v -192 247 0
v -320 247 0
v -320 183 0
v -800 183 0
v -800 247 0
v -896 247 0
v -896 183 0
v -864 119 0
v -864 183 0
v -928 183 0
v -928 119 0
v -896 183 0
v -896 247 0
v -960 247 0
v -960 183 0
v -544 1239 0
v -544 1271 0
v -672 1271 0
v -672 1239 0
v -672 1239 0
v -672 1271 0
v -800 1271 0
v -800 1239 0
v -992 343 0
v -992 439 0
v -1024 439 0
v -1024 343 0
v -1056 663 0
v -1056 759 0
v -1087 759 0
v -1087 663 0
v -32 983 0
v -32 1047 0
v -64 1047 0
v -64 983 0
v -256 951 0
v -256 983 0
v -320 983 0
v -320 951 0
v -352 87 0
v -352 119 0
v -416 119 0
v -416 87 0
v -256 1367 0
v -256 1399 0
v -320 1399 0
v -320 1367 0
v -416 1367 0
v -416 1399 0
v -480 1399 0
v -480 1367 0
v -1024 919 0
v -1024 983 0
v -1056 983 0
v -1056 919 0
v -672 55 0
v -672 119 0
v -704 119 0
v -704 55 0
v -768 23 0
v -768 87 0
v -800 87 0
v -800 23 0
v -256 151 0
v -256 183 0
v -320 183 0
v -320 151 0
v -32 823 0
v -32 887 0
v -64 887 0
v -64 823 0
v -1024 375 0
v -1024 439 0
v -1056 439 0
v -1056 375 0
v -512 0 0
v -512 23 0
v -576 23 0
v -576 0 0
v -576 0 0
v -576 23 0
v -640 23 0
v -640 0 0
v -544 1367 0
v -544 1399 0
v -608 1399 0
v -608 1367 0
v -1056 599 0
v -1056 663 0
v -1087 663 0
v -1087 599 0
v -992 279 0
v -992 343 0
v -1024 343 0
v -1024 279 0
v -1024 1111 0
v -1024 1175 0
v -1056 1175 0
v -1056 1111 0
v -1024 1047 0
v -1024 1111 0
v -1056 1111 0
v -1056 1047 0
v -640 1271 0
v -640 1303 0
v -704 1303 0
v -704 1271 0
v -320 1239 0
v -320 1303 0
v -352 1303 0
v -352 1239 0
v -800 151 0
v -800 183 0
v -832 183 0
v -832 151 0
v -1024 311 0
v -1024 343 0
v -1056 343 0
v -1056 311 0
v -96 247 0
v -96 279 0
v -128 279 0
v -128 247 0
v -32 279 0
v -32 311 0
v -64 311 0
v -64 279 0
v -160 215 0
v -160 247 0
v -192 247 0
v -192 215 0
v -704 87 0
v -704 119 0
v -736 119 0
v -736 87 0
v -416 55 0
v -416 87 0
v -448 87 0
v -448 55 0
v -928 119 0
v -928 151 0
v -960 151 0
v -960 119 0
v -832 119 0
v -832 151 0
v -864 151 0
v -864 119 0
v -928 0 0
v -928 23 0
v -960 23 0
v -960 0 0
v -32 439 0
v -32 471 0
v -64 471 0
v -64 439 0
v -608 1367 0
v -608 1399 0
v -640 1399 0
v -640 1367 0
v -1024 1239 0
v -1024 1271 0
v -1056 1271 0
v -1056 1239 0
v -320 1207 0
v -320 1239 0
v -352 1239 0
v -352 1207 0
v -704 1271 0
v -704 1303 0
v -736 1303 0
v -736 1271 0
v -416 87 0
v -416 119 0
v -448 119 0
v -448 87 0
v -32 503 0
v -32 535 0
v -64 535 0
v -64 503 0
v -992 503 0
v -992 535 0
v -1024 535 0
v -1024 503 0
v -1056 1143 0
v -1056 1175 0
v -1087 1175 0
v -1087 1143 0
v -128 1207 0
v -128 1239 0
v -160 1239 0
v -160 1207 0
v -320 1143 0
v -320 1175 0
v -352 1175 0
v -352 1143 0
vt 0.00048828125 0.00148367882
vt 0.00048828125 0.998516321
vt 0.219238281 0.998516321
vt 0.219238281 0.00148367882
vt 0.220214844 0.00148367882
vt 0.220214844 0.998516321
vt 0.423339844 0.998516321
vt 0.423339844 0.00148367882
vt 0.424316406 0.00148367882
vt 0.424316406 0.381305635
vt 0.580566406 0.381305635
vt 0.580566406 0.00148367882
vt 0.581542969 0.00148367882
vt 0.581542969 0.381305635
vt 0.722167969 0.381305635
vt 0.722167969 0.00148367882
vt 0.723144531 0.00148367882
vt 0.723144531 0.571216583
vt 0.801269531 0.571216583
vt 0.801269531 0.00148367882
vt 0.802246094 0.00148367882
vt 0.802246094 0.191394687
vt 0.927246094 0.191394687
vt 0.927246094 0.00148367882
vt 0.802246094 0.194362044
vt 0.802246094 0.384272993
vt 0.911621094 0.384272993
vt 0.911621094 0.194362044
vt 0.424316406 0.384272993
vt 0.424316406 0.526706219
vt 0.533691406 0.526706219
vt 0.533691406 0.384272993
vt 0.928222656 0.00148367882
vt 0.928222656 0.333827913
vt 0.975097656 0.333827913
vt 0.975097656 0.00148367882
vt 0.928222656 0.33679527
vt 0.928222656 0.811572671
vt 0.959472656 0.811572671
vt 0.959472656 0.33679527
vt 0.960449219 0.33679527
vt 0.960449219 0.764094949
vt 0.991699219 0.764094949
vt 0.991699219 0.33679527
vt 0.534667969 0.384272993
vt 0.534667969 0.526706219
vt 0.628417969 0.526706219
vt 0.628417969 0.384272993
vt 0.424316406 0.529673576
vt 0.424316406 0.62462908
vt 0.564941406 0.62462908
vt 0.564941406 0.529673576
vt 0.629394531 0.384272993
vt 0.629394531 0.669139504
vt 0.676269531 0.669139504
vt 0.676269531 0.384272993
vt 0.802246094 0.38724035
vt 0.802246094 0.482195854
vt 0.927246094 0.482195854
vt 0.927246094 0.38724035
vt 0.802246094 0.485163212
vt 0.802246094 0.627596438
vt 0.864746094 0.627596438
vt 0.864746094 0.485163212
vt 0.565917969 0.529673576
vt 0.565917969 0.672106862
vt 0.628417969 0.672106862
vt 0.628417969 0.529673576
vt 0.677246094 0.384272993
vt 0.677246094 0.621661723
vt 0.708496094 0.621661723
vt 0.708496094 0.384272993
vt 0.865722656 0.485163212
vt 0.865722656 0.627596438
vt 0.912597656 0.627596438
vt 0.912597656 0.485163212
vt 0.723144531 0.574183941
vt 0.723144531 0.764094949
vt 0.754394531 0.764094949
vt 0.754394531 0.574183941
vt 0.755371094 0.574183941
vt 0.755371094 0.764094949
vt 0.786621094 0.764094949
vt 0.786621094 0.574183941
vt 0.424316406 0.627596438
vt 0.424316406 0.722551942
vt 0.486816406 0.722551942
vt 0.486816406 0.627596438
vt 0.487792969 0.627596438
vt 0.487792969 0.722551942
vt 0.534667969 0.722551942
vt 0.534667969 0.627596438
vt 0.677246094 0.62462908
vt 0.677246094 0.719584584
vt 0.708496094 0.719584584
vt 0.708496094 0.62462908
vt 0.802246094 0.630563796
vt 0.802246094 0.7255193
vt 0.833496094 0.7255193
vt 0.833496094 0.630563796
vt 0.834472656 0.630563796
vt 0.834472656 0.678041577
vt 0.896972656 0.678041577
vt 0.896972656 0.630563796
vt 0.565917969 0.67507422
vt 0.565917969 0.722551942
vt 0.628417969 0.722551942
vt 0.628417969 0.67507422
vt 0.535644531 0.627596438
vt 0.535644531 0.770029664
vt 0.551269531 0.770029664
vt 0.551269531 0.627596438
vt 0.897949219 0.630563796
vt 0.897949219 0.772997022
vt 0.913574219 0.772997022
vt 0.913574219 0.630563796
vt 0.629394531 0.672106862
vt 0.629394531 0.767062306
vt 0.645019531 0.767062306
vt 0.645019531 0.672106862
vt 0.834472656 0.681008935
vt 0.834472656 0.728486657
vt 0.865722656 0.728486657
vt 0.865722656 0.681008935
vt 0.677246094 0.722551942
vt 0.677246094 0.770029664
vt 0.708496094 0.770029664
vt 0.708496094 0.722551942
vt 0.424316406 0.7255193
vt 0.424316406 0.772997022
vt 0.455566406 0.772997022
vt 0.455566406 0.7255193
vt 0.456542969 0.7255193
vt 0.456542969 0.772997022
vt 0.487792969 0.772997022
vt 0.487792969 0.7255193
vt 0.645996094 0.672106862
vt 0.645996094 0.767062306
vt 0.661621094 0.767062306
vt 0.661621094 0.672106862
vt 0.866699219 0.681008935
vt 0.866699219 0.775964379
vt 0.882324219 0.775964379
vt 0.882324219 0.681008935
vt 0.488769531 0.7255193
vt 0.488769531 0.820474744
vt 0.504394531 0.820474744
vt 0.504394531 0.7255193
vt 0.565917969 0.7255193
vt 0.565917969 0.772997022
vt 0.597167969 0.772997022
vt 0.597167969 0.7255193
vt 0.505371094 0.7255193
vt 0.505371094 0.820474744
vt 0.520996094 0.820474744
vt 0.520996094 0.7255193
vt 0.598144531 0.7255193
vt 0.598144531 0.820474744
vt 0.613769531 0.820474744
vt 0.613769531 0.7255193
vt 0.802246094 0.728486657
vt 0.802246094 0.764094949
vt 0.833496094 0.764094949
vt 0.833496094 0.728486657
vt 0.834472656 0.731454015
vt 0.834472656 0.767062306
vt 0.865722656 0.767062306
vt 0.865722656 0.731454015
vt 0.723144531 0.767062306
vt 0.723144531 0.814540029
vt 0.754394531 0.814540029
vt 0.754394531 0.767062306
vt 0.755371094 0.767062306
vt 0.755371094 0.86201781
vt 0.770996094 0.86201781
vt 0.770996094 0.767062306
vt 0.771972656 0.767062306
vt 0.771972656 0.86201781
vt 0.787597656 0.86201781
vt 0.787597656 0.767062306
vt 0.802246094 0.767062306
vt 0.802246094 0.86201781
vt 0.817871094 0.86201781
vt 0.817871094 0.767062306
vt 0.960449219 0.767062306
vt 0.960449219 0.86201781
vt 0.976074219 0.86201781
vt 0.976074219 0.767062306
vt 0.629394531 0.770029664
vt 0.629394531 0.817507386
vt 0.660644531 0.817507386
vt 0.660644531 0.770029664
vt 0.977050781 0.767062306
vt 0.977050781 0.86201781
vt 0.992675781 0.86201781
vt 0.992675781 0.767062306
vt 0.834472656 0.770029664
vt 0.834472656 0.817507386
vt 0.850097656 0.817507386
vt 0.850097656 0.770029664
vt 0.535644531 0.772997022
vt 0.535644531 0.820474744
vt 0.551269531 0.820474744
vt 0.551269531 0.772997022
vt 0.677246094 0.772997022
vt 0.677246094 0.820474744
vt 0.692871094 0.820474744
vt 0.692871094 0.772997022
vt 0.693847656 0.772997022
vt 0.693847656 0.820474744
vt 0.709472656 0.820474744
vt 0.709472656 0.772997022
vt 0.424316406 0.775964379
vt 0.424316406 0.823442101
vt 0.439941406 0.823442101
vt 0.439941406 0.775964379
vt 0.440917969 0.775964379
vt 0.440917969 0.823442101
vt 0.456542969 0.823442101
vt 0.456542969 0.775964379
vt 0.457519531 0.775964379
vt 0.457519531 0.823442101
vt 0.473144531 0.823442101
vt 0.473144531 0.775964379
vt 0.565917969 0.775964379
vt 0.565917969 0.823442101
vt 0.581542969 0.823442101
vt 0.581542969 0.775964379
vt 0.897949219 0.775964379
vt 0.897949219 0.823442101
vt 0.913574219 0.823442101
vt 0.913574219 0.775964379
vt 0.866699219 0.778931737
vt 0.866699219 0.814540029
vt 0.882324219 0.814540029
vt 0.882324219 0.778931737
vt 0.928222656 0.814540029
vt 0.928222656 0.86201781
vt 0.943847656 0.86201781
vt 0.943847656 0.814540029
vt 0.723144531 0.817507386
vt 0.723144531 0.864985168
vt 0.738769531 0.864985168
vt 0.738769531 0.817507386
vt 0.866699219 0.817507386
vt 0.866699219 0.864985168
vt 0.882324219 0.864985168
vt 0.882324219 0.817507386
vt 0.629394531 0.820474744
vt 0.629394531 0.867952526
vt 0.645019531 0.867952526
vt 0.645019531 0.820474744
vt 0.645996094 0.820474744
vt 0.645996094 0.867952526
vt 0.661621094 0.867952526
vt 0.661621094 0.820474744
vt 0.834472656 0.820474744
vt 0.834472656 0.867952526
vt 0.850097656 0.867952526
vt 0.850097656 0.820474744
vt 0.488769531 0.823442101
vt 0.488769531 0.870919883
vt 0.504394531 0.870919883
vt 0.504394531 0.823442101
vt 0.505371094 0.823442101
vt 0.505371094 0.870919883
vt 0.520996094 0.870919883
vt 0.520996094 0.823442101
vt 0.535644531 0.823442101
vt 0.535644531 0.870919883
vt 0.551269531 0.870919883
vt 0.551269531 0.823442101
vt 0.598144531 0.823442101
vt 0.598144531 0.870919883
vt 0.613769531 0.870919883
vt 0.613769531 0.823442101
vt 0.677246094 0.823442101
vt 0.677246094 0.870919883
vt 0.692871094 0.870919883
vt 0.692871094 0.823442101
g chuixue_6-mesh_0
f 3/3/3 2/2/2 1/1/1
f 1/1/1 4/4/4 3/3/3
f 7/7/7 6/6/6 5/5/5
f 5/5/5 8/8/8 7/7/7
f 11/11/11 10/10/10 9/9/9
f 9/9/9 12/12/12 11/11/11
f 15/15/15 14/14/14 13/13/13
f 13/13/13 16/16/16 15/15/15
f 19/19/19 18/18/18 17/17/17
f 17/17/17 20/20/20 19/19/19
f 23/23/23 22/22/22 21/21/21
f 21/21/21 24/24/24 23/23/23
f 27/27/27 26/26/26 25/25/25
f 25/25/25 28/28/28 27/27/27
f 31/31/31 30/30/30 29/29/29
f 29/29/29 32/32/32 31/31/31
f 35/35/35 34/34/34 33/33/33
f 33/33/33 36/36/36 35/35/35
f 39/39/39 38/38/38 37/37/37
f 37/37/37 40/40/40 39/39/39
f 43/43/43 42/42/42 41/41/41
f 41/41/41 44/44/44 43/43/43
f 47/47/47 46/46/46 45/45/45
f 45/45/45 48/48/48 47/47/47
f 51/51/51 50/50/50 49/49/49
f 49/49/49 52/52/52 51/51/51
f 55/55/55 54/54/54 53/53/53
f 53/53/53 56/56/56 55/55/55
f 59/59/59 58/58/58 57/57/57
f 57/57/57 60/60/60 59/59/59
f 63/63/63 62/62/62 61/61/61
f 61/61/61 64/64/64 63/63/63
f 67/67/67 66/66/66 65/65/65
f 65/65/65 68/68/68 67/67/67
f 71/71/71 70/70/70 69/69/69
f 69/69/69 72/72/72 71/71/71
f 75/75/75 74/74/74 73/73/73
f 73/73/73 76/76/76 75/75/75
f 79/79/79 78/78/78 77/77/77
f 77/77/77 80/80/80 79/79/79
f 83/83/83 82/82/82 81/81/81
f 81/81/81 84/84/84 83/83/83
f 87/87/87 86/86/86 85/85/85
f 85/85/85 88/88/88 87/87/87
f 91/91/91 90/90/90 89/89/89
f 89/89/89 92/92/92 91/91/91
f 95/95/95 94/94/94 93/93/93
f 93/93/93 96/96/96 95/95/95
f 99/99/99 98/98/98 97/97/97
f 97/97/97 100/100/100 99/99/99
f 103/103/103 102/102/102 101/101/101
f 101/101/101 104/104/104 103/103/103
f 107/107/107 106/106/106 105/105/105
f 105/105/105 108/108/108 107/107/107
f 111/111/111 110/110/110 109/109/109
f 109/109/109 112/112/112 111/111/111
f 115/115/115 114/114/114 113/113/113
f 113/113/113 116/116/116 115/115/115
f 119/119/119 118/118/118 117/117/117
f 117/117/117 120/120/120 119/119/119
f 123/123/123 122/122/122 121/121/121
f 121/121/121 124/124/124 123/123/123
f 127/127/127 126/126/126 125/125/125
f 125/125/125 128/128/128 127/127/127
f 131/131/131 130/130/130 129/129/129
f 129/129/129 132/132/132 131/131/131
f 135/135/135 134/134/134 133/133/133
f 133/133/133 136/136/136 135/135/135
f 139/139/139 138/138/138 137/137/137
f 137/137/137 140/140/140 139/139/139
f 143/143/143 142/142/142 141/141/141
f 141/141/141 144/144/144 143/143/143
f 147/147/147 146/146/146 145/145/145
f 145/145/145 148/148/148 147/147/147
f 151/151/151 150/150/150 149/149/149
f 149/149/149 152/152/152 151/151/151
f 155/155/155 154/154/154 153/153/153
f 153/153/153 156/156/156 155/155/155
f 159/159/159 158/158/158 157/157/157
f 157/157/157 160/160/160 159/159/159
f 163/163/163 162/162/162 161/161/161
f 161/161/161 164/164/164 163/163/163
f 167/167/167 166/166/166 165/165/165
f 165/165/165 168/168/168 167/167/167
f 171/171/171 170/170/170 169/169/169
f 169/169/169 172/172/172 171/171/171
f 175/175/175 174/174/174 173/173/173
f 173/173/173 176/176/176 175/175/175
f 179/179/179 178/178/178 177/177/177
f 177/177/177 180/180/180 179/179/179
f 183/183/183 182/182/182 181/181/181
f 181/181/181 184/184/184 183/183/183
f 187/187/187 186/186/186 185/185/185
f 185/185/185 188/188/188 187/187/187
f 191/191/191 190/190/190 189/189/189
f 189/189/189 192/192/192 191/191/191
f 195/195/195 194/194/194 193/193/193
f 193/193/193 196/196/196 195/195/195
f 199/199/199 198/198/198 197/197/197
f 197/197/197 200/200/200 199/199/199
f 203/203/203 202/202/202 201/201/201
f 201/201/201 204/204/204 203/203/203
f 207/207/207 206/206/206 205/205/205
f 205/205/205 208/208/208 207/207/207
f 211/211/211 210/210/210 209/209/209
f 209/209/209 212/212/212 211/211/211
f 215/215/215 214/214/214 213/213/213
f 213/213/213 216/216/216 215/215/215
f 219/219/219 218/218/218 217/217/217
f 217/217/217 220/220/220 219/219/219
f 223/223/223 222/222/222 221/221/221
f 221/221/221 224/224/224 223/223/223
f 227/227/227 226/226/226 225/225/225
f 225/225/225 228/228/228 227/227/227
f 231/231/231 230/230/230 229/229/229
f 229/229/229 232/232/232 231/231/231
f 235/235/235 234/234/234 233/233/233
f 233/233/233 236/236/236 235/235/235
f 239/239/239 238/238/238 237/237/237
f 237/237/237 240/240/240 239/239/239
f 243/243/243 242/242/242 241/241/241
f 241/241/241 244/244/244 243/243/243
f 247/247/247 246/246/246 245/245/245
f 245/245/245 248/248/248 247/247/247
f 251/251/251 250/250/250 249/249/249
f 249/249/249 252/252/252 251/251/251
f 255/255/255 254/254/254 253/253/253
f 253/253/253 256/256/256 255/255/255
f 259/259/259 258/258/258 257/257/257
f 257/257/257 260/260/260 259/259/259
f 263/263/263 262/262/262 261/261/261
f 261/261/261 264/264/264 263/263/263
f 267/267/267 266/266/266 265/265/265
f 265/265/265 268/268/268 267/267/267
f 271/271/271 270/270/270 269/269/269
f 269/269/269 272/272/272 271/271/271
f 275/275/275 274/274/274 273/273/273
f 273/273/273 276/276/276 275/275/275
f 279/279/279 278/278/278 277/277/277
f 277/277/277 280/280/280 279/279/279
