g bulisituoer_2_rw-mesh
v -896 927 0
v -896 1375 0
v -1568 1375 0
v -1568 927 0
v -896 1375 0
v -896 1823 0
v -1568 1823 0
v -1568 1375 0
v -1280 639 0
v -1280 927 0
v -1568 927 0
v -1568 639 0
v -320 1055 0
v -320 1311 0
v -608 1311 0
v -608 1055 0
v -1024 1823 0
v -1024 2015 0
v -1408 2015 0
v -1408 1823 0
v -608 1055 0
v -608 1311 0
v -896 1311 0
v -896 1055 0
v -1568 703 0
v -1568 1343 0
v -1664 1343 0
v -1664 703 0
v -1568 63 0
v -1568 703 0
v -1664 703 0
v -1664 63 0
v -1024 127 0
v -1024 383 0
v -1216 383 0
v -1216 127 0
v -192 1311 0
v -192 1471 0
v -384 1471 0
v -384 1311 0
v -1472 447 0
v -1472 639 0
v -1568 639 0
v -1568 447 0
v -1664 991 0
v -1664 1279 0
v -1728 1279 0
v -1728 991 0
v -1664 703 0
v -1664 991 0
v -1728 991 0
v -1728 703 0
v -1184 511 0
v -1184 671 0
v -1280 671 0
v -1280 511 0
v -1184 383 0
v -1184 511 0
v -1280 511 0
v -1280 383 0
v -1408 1823 0
v -1408 1951 0
v -1504 1951 0
v -1504 1823 0
v -800 1311 0
v -800 1439 0
v -896 1439 0
v -896 1311 0
v -1664 0 0
v -1664 127 0
v -1760 127 0
v -1760 0 0
v -1664 127 0
v -1664 255 0
v -1760 255 0
v -1760 127 0
v -736 991 0
v -736 1055 0
v -896 1055 0
v -896 991 0
v -576 991 0
v -576 1055 0
v -736 1055 0
v -736 991 0
v -992 863 0
v -992 927 0
v -1152 927 0
v -1152 863 0
v -96 1471 0
v -96 1535 0
v -224 1535 0
v -224 1471 0
v -1280 543 0
v -1280 607 0
v -1408 607 0
v -1408 543 0
v -1152 799 0
v -1152 863 0
v -1280 863 0
v -1280 799 0
v -960 223 0
v -960 351 0
v -1024 351 0
v -1024 223 0
v -1152 863 0
v -1152 927 0
v -1280 927 0
v -1280 863 0
v -1760 0 0
v -1760 127 0
v -1823 127 0
v -1823 0 0
v -1088 63 0
v -1088 127 0
v -1184 127 0
v -1184 63 0
v -1120 383 0
v -1120 479 0
v -1184 479 0
v -1184 383 0
v -256 1215 0
v -256 1311 0
v -320 1311 0
v -320 1215 0
v -832 1567 0
v -832 1663 0
v -896 1663 0
v -896 1567 0
v -864 1823 0
v -864 1887 0
v -960 1887 0
v -960 1823 0
v -832 1663 0
v -832 1759 0
v -896 1759 0
v -896 1663 0
v -1728 1119 0
v -1728 1215 0
v -1792 1215 0
v -1792 1119 0
v -512 1311 0
v -512 1343 0
v -672 1343 0
v -672 1311 0
v -1568 1535 0
v -1568 1599 0
v -1632 1599 0
v -1632 1535 0
v -1504 383 0
v -1504 447 0
v -1568 447 0
v -1568 383 0
v -0 1535 0
v -0 1599 0
v -64 1599 0
v -64 1535 0
v -864 1887 0
v -864 1951 0
v -928 1951 0
v -928 1887 0
v -128 1407 0
v -128 1471 0
v -192 1471 0
v -192 1407 0
v -1728 1055 0
v -1728 1119 0
v -1792 1119 0
v -1792 1055 0
v -672 1311 0
v -672 1343 0
v -800 1343 0
v -800 1311 0
v -1728 799 0
v -1728 927 0
v -1760 927 0
v -1760 799 0
v -960 1823 0
v -960 1887 0
v -1024 1887 0
v -1024 1823 0
v -1184 63 0
v -1184 127 0
v -1248 127 0
v -1248 63 0
v -256 1151 0
v -256 1215 0
v -320 1215 0
v -320 1151 0
v -1280 607 0
v -1280 639 0
v -1376 639 0
v -1376 607 0
v -1728 703 0
v -1728 799 0
v -1760 799 0
v -1760 703 0
v -1536 127 0
v -1536 223 0
v -1568 223 0
v -1568 127 0
v -704 959 0
v -704 991 0
v -800 991 0
v -800 959 0
v -1568 1631 0
v -1568 1727 0
v -1600 1727 0
v -1600 1631 0
v -384 1023 0
v -384 1055 0
v -480 1055 0
v -480 1023 0
v -1568 1727 0
v -1568 1823 0
v -1600 1823 0
v -1600 1727 0
v -1056 2015 0
v -1056 2047 0
v -1152 2047 0
v -1152 2015 0
v -480 1023 0
v -480 1055 0
v -576 1055 0
v -576 1023 0
v -800 959 0
v -800 991 0
v -896 991 0
v -896 959 0
v -416 1311 0
v -416 1375 0
v -448 1375 0
v -448 1311 0
v -928 895 0
v -928 927 0
v -992 927 0
v -992 895 0
v -288 1087 0
v -288 1151 0
v -320 1151 0
v -320 1087 0
v -864 1439 0
v -864 1503 0
v -896 1503 0
v -896 1439 0
v -64 1503 0
v -64 1567 0
v -96 1567 0
v -96 1503 0
v -1568 1407 0
v -1568 1471 0
v -1600 1471 0
v -1600 1407 0
v -1152 31 0
v -1152 63 0
v -1216 63 0
v -1216 31 0
v -1088 831 0
v -1088 863 0
v -1152 863 0
v -1152 831 0
v -1216 127 0
v -1216 191 0
v -1248 191 0
v -1248 127 0
v -1760 127 0
v -1760 191 0
v -1792 191 0
v -1792 127 0
v -1504 95 0
v -1504 159 0
v -1536 159 0
v -1536 95 0
v -1536 319 0
v -1536 383 0
v -1568 383 0
v -1568 319 0
v -1248 671 0
v -1248 735 0
v -1280 735 0
v -1280 671 0
v -1152 479 0
v -1152 543 0
v -1184 543 0
v -1184 479 0
v -1312 479 0
v -1312 543 0
v -1344 543 0
v -1344 479 0
v -1280 479 0
v -1280 543 0
v -1312 543 0
v -1312 479 0
v -384 1375 0
v -384 1439 0
v -416 1439 0
v -416 1375 0
v -640 1343 0
v -640 1375 0
v -704 1375 0
v -704 1343 0
v -1536 63 0
v -1536 127 0
v -1568 127 0
v -1568 63 0
v -1664 319 0
v -1664 383 0
v -1696 383 0
v -1696 319 0
v -1664 255 0
v -1664 319 0
v -1696 319 0
v -1696 255 0
v -224 1471 0
v -224 1503 0
v -288 1503 0
v -288 1471 0
v -1152 2015 0
v -1152 2047 0
v -1216 2047 0
v -1216 2015 0
v -384 1311 0
v -384 1375 0
v -416 1375 0
v -416 1311 0
v -800 927 0
v -800 959 0
v -864 959 0
v -864 927 0
v -224 1247 0
v -224 1311 0
v -256 1311 0
v -256 1247 0
v -1376 607 0
v -1376 639 0
v -1440 639 0
v -1440 607 0
v -1344 511 0
v -1344 543 0
v -1376 543 0
v -1376 511 0
v -1216 671 0
v -1216 703 0
v -1248 703 0
v -1248 671 0
v -448 1311 0
v -448 1343 0
v -480 1343 0
v -480 1311 0
v -1568 1343 0
v -1568 1375 0
v -1600 1375 0
v -1600 1343 0
v -1664 1279 0
v -1664 1311 0
v -1696 1311 0
v -1696 1279 0
v -1728 1023 0
v -1728 1055 0
v -1760 1055 0
v -1760 1023 0
v -1728 1215 0
v -1728 1247 0
v -1760 1247 0
v -1760 1215 0
v -1696 255 0
v -1696 287 0
v -1728 287 0
v -1728 255 0
v -992 191 0
v -992 223 0
v -1024 223 0
v -1024 191 0
v -1056 95 0
v -1056 127 0
v -1088 127 0
v -1088 95 0
v -928 255 0
v -928 287 0
v -960 287 0
v -960 255 0
v -1088 383 0
v -1088 415 0
v -1120 415 0
v -1120 383 0
v -1632 31 0
v -1632 63 0
v -1664 63 0
v -1664 31 0
v -1216 351 0
v -1216 383 0
v -1248 383 0
v -1248 351 0
v -768 1343 0
v -768 1375 0
v -800 1375 0
v -800 1343 0
v -704 1343 0
v -704 1375 0
v -736 1375 0
v -736 1343 0
v -288 1471 0
v -288 1503 0
v -320 1503 0
v -320 1471 0
v -1408 1951 0
v -1408 1983 0
v -1440 1983 0
v -1440 1951 0
v -224 1215 0
v -224 1247 0
v -256 1247 0
v -256 1215 0
v -1280 447 0
v -1280 479 0
v -1312 479 0
v -1312 447 0
v -864 927 0
v -864 959 0
v -896 959 0
v -896 927 0
v -1216 31 0
v -1216 63 0
v -1248 63 0
v -1248 31 0
v -32 1503 0
v -32 1535 0
v -64 1535 0
v -64 1503 0
v -832 1439 0
v -832 1471 0
v -864 1471 0
v -864 1439 0
v -160 1375 0
v -160 1407 0
v -192 1407 0
v -192 1375 0
v -0 1599 0
v -0 1631 0
v -32 1631 0
v -32 1599 0
v -928 1887 0
v -928 1919 0
v -960 1919 0
v -960 1887 0
v -1504 1823 0
v -1504 1855 0
v -1536 1855 0
v -1536 1823 0
v -864 1759 0
v -864 1791 0
v -896 1791 0
v -896 1759 0
vt 0.00048828125 0.000915765762
vt 0.00048828125 0.411172152
vt 0.328613281 0.411172152
vt 0.328613281 0.000915765762
vt 0.329589844 0.000915765762
vt 0.329589844 0.411172152
vt 0.657714844 0.411172152
vt 0.657714844 0.000915765762
vt 0.658691406 0.000915765762
vt 0.658691406 0.264652014
vt 0.799316406 0.264652014
vt 0.799316406 0.000915765762
vt 0.800292969 0.000915765762
vt 0.800292969 0.235347986
vt 0.940917969 0.235347986
vt 0.940917969 0.000915765762
vt 0.800292969 0.237179458
vt 0.800292969 0.413003683
vt 0.987792969 0.413003683
vt 0.987792969 0.237179458
vt 0.658691406 0.266483545
vt 0.658691406 0.500915766
vt 0.799316406 0.500915766
vt 0.799316406 0.266483545
vt 0.00048828125 0.413003683
vt 0.00048828125 0.999084234
vt 0.0473632812 0.999084234
vt 0.0473632812 0.413003683
vt 0.0483398438 0.413003683
vt 0.0483398438 0.999084234
vt 0.0952148438 0.999084234
vt 0.0952148438 0.413003683
vt 0.0961914062 0.413003683
vt 0.0961914062 0.647435904
vt 0.189941406 0.647435904
vt 0.189941406 0.413003683
vt 0.190917969 0.413003683
vt 0.190917969 0.559523821
vt 0.284667969 0.559523821
vt 0.284667969 0.413003683
vt 0.285644531 0.413003683
vt 0.285644531 0.588827848
vt 0.332519531 0.588827848
vt 0.332519531 0.413003683
vt 0.333496094 0.413003683
vt 0.333496094 0.676739931
vt 0.364746094 0.676739931
vt 0.364746094 0.413003683
vt 0.365722656 0.413003683
vt 0.365722656 0.676739931
vt 0.396972656 0.676739931
vt 0.396972656 0.413003683
vt 0.397949219 0.413003683
vt 0.397949219 0.559523821
vt 0.444824219 0.559523821
vt 0.444824219 0.413003683
vt 0.445800781 0.413003683
vt 0.445800781 0.530219793
vt 0.492675781 0.530219793
vt 0.492675781 0.413003683
vt 0.493652344 0.413003683
vt 0.493652344 0.530219793
vt 0.540527344 0.530219793
vt 0.540527344 0.413003683
vt 0.541503906 0.413003683
vt 0.541503906 0.530219793
vt 0.588378906 0.530219793
vt 0.588378906 0.413003683
vt 0.589355469 0.413003683
vt 0.589355469 0.530219793
vt 0.636230469 0.530219793
vt 0.636230469 0.413003683
vt 0.800292969 0.414835155
vt 0.800292969 0.532051325
vt 0.847167969 0.532051325
vt 0.847167969 0.414835155
vt 0.848144531 0.414835155
vt 0.848144531 0.47344321
vt 0.926269531 0.47344321
vt 0.926269531 0.414835155
vt 0.848144531 0.475274742
vt 0.848144531 0.533882797
vt 0.926269531 0.533882797
vt 0.926269531 0.475274742
vt 0.658691406 0.502747297
vt 0.658691406 0.561355352
vt 0.736816406 0.561355352
vt 0.736816406 0.502747297
vt 0.927246094 0.414835155
vt 0.927246094 0.47344321
vt 0.989746094 0.47344321
vt 0.989746094 0.414835155
vt 0.927246094 0.475274742
vt 0.927246094 0.533882797
vt 0.989746094 0.533882797
vt 0.989746094 0.475274742
vt 0.445800781 0.532051325
vt 0.445800781 0.59065938
vt 0.508300781 0.59065938
vt 0.508300781 0.532051325
vt 0.737792969 0.502747297
vt 0.737792969 0.619963408
vt 0.769042969 0.619963408
vt 0.769042969 0.502747297
vt 0.509277344 0.532051325
vt 0.509277344 0.59065938
vt 0.571777344 0.59065938
vt 0.571777344 0.532051325
vt 0.572753906 0.532051325
vt 0.572753906 0.649267435
vt 0.604003906 0.649267435
vt 0.604003906 0.532051325
vt 0.604980469 0.532051325
vt 0.604980469 0.59065938
vt 0.651855469 0.59065938
vt 0.651855469 0.532051325
vt 0.800292969 0.533882797
vt 0.800292969 0.621794879
vt 0.831542969 0.621794879
vt 0.831542969 0.533882797
vt 0.848144531 0.535714269
vt 0.848144531 0.623626351
vt 0.879394531 0.623626351
vt 0.879394531 0.535714269
vt 0.880371094 0.535714269
vt 0.880371094 0.623626351
vt 0.911621094 0.623626351
vt 0.911621094 0.535714269
vt 0.912597656 0.535714269
vt 0.912597656 0.594322324
vt 0.959472656 0.594322324
vt 0.959472656 0.535714269
vt 0.960449219 0.535714269
vt 0.960449219 0.623626351
vt 0.991699219 0.623626351
vt 0.991699219 0.535714269
vt 0.190917969 0.561355352
vt 0.190917969 0.649267435
vt 0.222167969 0.649267435
vt 0.222167969 0.561355352
vt 0.658691406 0.563186824
vt 0.658691406 0.592490852
vt 0.736816406 0.592490852
vt 0.736816406 0.563186824
vt 0.223144531 0.561355352
vt 0.223144531 0.619963408
vt 0.254394531 0.619963408
vt 0.254394531 0.561355352
vt 0.397949219 0.561355352
vt 0.397949219 0.619963408
vt 0.429199219 0.619963408
vt 0.429199219 0.561355352
vt 0.285644531 0.59065938
vt 0.285644531 0.649267435
vt 0.316894531 0.649267435
vt 0.316894531 0.59065938
vt 0.445800781 0.592490852
vt 0.445800781 0.651098907
vt 0.477050781 0.651098907
vt 0.477050781 0.592490852
vt 0.478027344 0.592490852
vt 0.478027344 0.651098907
vt 0.509277344 0.651098907
vt 0.509277344 0.592490852
vt 0.510253906 0.592490852
vt 0.510253906 0.651098907
vt 0.541503906 0.651098907
vt 0.541503906 0.592490852
vt 0.658691406 0.594322324
vt 0.658691406 0.623626351
vt 0.721191406 0.623626351
vt 0.721191406 0.594322324
vt 0.770019531 0.502747297
vt 0.770019531 0.619963408
vt 0.785644531 0.619963408
vt 0.785644531 0.502747297
vt 0.604980469 0.592490852
vt 0.604980469 0.651098907
vt 0.636230469 0.651098907
vt 0.636230469 0.592490852
vt 0.912597656 0.596153855
vt 0.912597656 0.65476191
vt 0.943847656 0.65476191
vt 0.943847656 0.596153855
vt 0.223144531 0.621794879
vt 0.223144531 0.680402935
vt 0.254394531 0.680402935
vt 0.254394531 0.621794879
vt 0.397949219 0.621794879
vt 0.397949219 0.651098907
vt 0.444824219 0.651098907
vt 0.444824219 0.621794879
vt 0.255371094 0.561355352
vt 0.255371094 0.649267435
vt 0.270996094 0.649267435
vt 0.270996094 0.561355352
vt 0.542480469 0.592490852
vt 0.542480469 0.680402935
vt 0.558105469 0.680402935
vt 0.558105469 0.592490852
vt 0.737792969 0.621794879
vt 0.737792969 0.651098907
vt 0.784667969 0.651098907
vt 0.784667969 0.621794879
vt 0.637207031 0.592490852
vt 0.637207031 0.680402935
vt 0.652832031 0.680402935
vt 0.652832031 0.592490852
vt 0.800292969 0.623626351
vt 0.800292969 0.652930379
vt 0.847167969 0.652930379
vt 0.847167969 0.623626351
vt 0.658691406 0.625457883
vt 0.658691406 0.713369966
vt 0.674316406 0.713369966
vt 0.674316406 0.625457883
vt 0.675292969 0.625457883
vt 0.675292969 0.65476191
vt 0.722167969 0.65476191
vt 0.722167969 0.625457883
vt 0.848144531 0.625457883
vt 0.848144531 0.65476191
vt 0.895019531 0.65476191
vt 0.895019531 0.625457883
vt 0.0961914062 0.649267435
vt 0.0961914062 0.678571463
vt 0.143066406 0.678571463
vt 0.143066406 0.649267435
vt 0.895996094 0.625457883
vt 0.895996094 0.684065938
vt 0.911621094 0.684065938
vt 0.911621094 0.625457883
vt 0.960449219 0.625457883
vt 0.960449219 0.65476191
vt 0.991699219 0.65476191
vt 0.991699219 0.625457883
vt 0.144042969 0.649267435
vt 0.144042969 0.70787549
vt 0.159667969 0.70787549
vt 0.159667969 0.649267435
vt 0.160644531 0.649267435
vt 0.160644531 0.70787549
vt 0.176269531 0.70787549
vt 0.176269531 0.649267435
vt 0.190917969 0.651098907
vt 0.190917969 0.709706962
vt 0.206542969 0.709706962
vt 0.206542969 0.651098907
vt 0.255371094 0.651098907
vt 0.255371094 0.709706962
vt 0.270996094 0.709706962
vt 0.270996094 0.651098907
vt 0.285644531 0.651098907
vt 0.285644531 0.680402935
vt 0.316894531 0.680402935
vt 0.316894531 0.651098907
vt 0.572753906 0.651098907
vt 0.572753906 0.680402935
vt 0.604003906 0.680402935
vt 0.604003906 0.651098907
vt 0.397949219 0.652930379
vt 0.397949219 0.711538434
vt 0.413574219 0.711538434
vt 0.413574219 0.652930379
vt 0.414550781 0.652930379
vt 0.414550781 0.711538434
vt 0.430175781 0.711538434
vt 0.430175781 0.652930379
vt 0.431152344 0.652930379
vt 0.431152344 0.711538434
vt 0.446777344 0.711538434
vt 0.446777344 0.652930379
vt 0.447753906 0.652930379
vt 0.447753906 0.711538434
vt 0.463378906 0.711538434
vt 0.463378906 0.652930379
vt 0.464355469 0.652930379
vt 0.464355469 0.711538434
vt 0.479980469 0.711538434
vt 0.479980469 0.652930379
vt 0.480957031 0.652930379
vt 0.480957031 0.711538434
vt 0.496582031 0.711538434
vt 0.496582031 0.652930379
vt 0.497558594 0.652930379
vt 0.497558594 0.711538434
vt 0.513183594 0.711538434
vt 0.513183594 0.652930379
vt 0.514160156 0.652930379
vt 0.514160156 0.711538434
vt 0.529785156 0.711538434
vt 0.529785156 0.652930379
vt 0.604980469 0.652930379
vt 0.604980469 0.711538434
vt 0.620605469 0.711538434
vt 0.620605469 0.652930379
vt 0.737792969 0.652930379
vt 0.737792969 0.682234406
vt 0.769042969 0.682234406
vt 0.769042969 0.652930379
vt 0.770019531 0.652930379
vt 0.770019531 0.711538434
vt 0.785644531 0.711538434
vt 0.785644531 0.652930379
vt 0.800292969 0.65476191
vt 0.800292969 0.713369966
vt 0.815917969 0.713369966
vt 0.815917969 0.65476191
vt 0.816894531 0.65476191
vt 0.816894531 0.713369966
vt 0.832519531 0.713369966
vt 0.832519531 0.65476191
vt 0.675292969 0.656593442
vt 0.675292969 0.68589747
vt 0.706542969 0.68589747
vt 0.706542969 0.656593442
vt 0.848144531 0.656593442
vt 0.848144531 0.68589747
vt 0.879394531 0.68589747
vt 0.879394531 0.656593442
vt 0.707519531 0.656593442
vt 0.707519531 0.715201497
vt 0.723144531 0.715201497
vt 0.723144531 0.656593442
vt 0.912597656 0.656593442
vt 0.912597656 0.68589747
vt 0.943847656 0.68589747
vt 0.943847656 0.656593442
vt 0.960449219 0.656593442
vt 0.960449219 0.715201497
vt 0.976074219 0.715201497
vt 0.976074219 0.656593442
vt 0.333496094 0.678571463
vt 0.333496094 0.70787549
vt 0.364746094 0.70787549
vt 0.364746094 0.678571463
vt 0.977050781 0.656593442
vt 0.977050781 0.68589747
vt 0.992675781 0.68589747
vt 0.992675781 0.656593442
vt 0.365722656 0.678571463
vt 0.365722656 0.70787549
vt 0.381347656 0.70787549
vt 0.381347656 0.678571463
vt 0.0961914062 0.680402935
vt 0.0961914062 0.709706962
vt 0.111816406 0.709706962
vt 0.111816406 0.680402935
vt 0.112792969 0.680402935
vt 0.112792969 0.709706962
vt 0.128417969 0.709706962
vt 0.128417969 0.680402935
vt 0.223144531 0.682234406
vt 0.223144531 0.711538434
vt 0.238769531 0.711538434
vt 0.238769531 0.682234406
vt 0.285644531 0.682234406
vt 0.285644531 0.711538434
vt 0.301269531 0.711538434
vt 0.301269531 0.682234406
vt 0.302246094 0.682234406
vt 0.302246094 0.711538434
vt 0.317871094 0.711538434
vt 0.317871094 0.682234406
vt 0.542480469 0.682234406
vt 0.542480469 0.711538434
vt 0.558105469 0.711538434
vt 0.558105469 0.682234406
vt 0.572753906 0.682234406
vt 0.572753906 0.711538434
vt 0.588378906 0.711538434
vt 0.588378906 0.682234406
vt 0.637207031 0.682234406
vt 0.637207031 0.711538434
vt 0.652832031 0.711538434
vt 0.652832031 0.682234406
vt 0.737792969 0.684065938
vt 0.737792969 0.713369966
vt 0.753417969 0.713369966
vt 0.753417969 0.684065938
vt 0.895996094 0.68589747
vt 0.895996094 0.715201497
vt 0.911621094 0.715201497
vt 0.911621094 0.68589747
vt 0.675292969 0.687728941
vt 0.675292969 0.717032969
vt 0.690917969 0.717032969
vt 0.690917969 0.687728941
vt 0.848144531 0.687728941
vt 0.848144531 0.717032969
vt 0.863769531 0.717032969
vt 0.863769531 0.687728941
vt 0.864746094 0.687728941
vt 0.864746094 0.717032969
vt 0.880371094 0.717032969
vt 0.880371094 0.687728941
vt 0.912597656 0.687728941
vt 0.912597656 0.717032969
vt 0.928222656 0.717032969
vt 0.928222656 0.687728941
vt 0.929199219 0.687728941
vt 0.929199219 0.717032969
vt 0.944824219 0.717032969
vt 0.944824219 0.687728941
vt 0.977050781 0.687728941
vt 0.977050781 0.717032969
vt 0.992675781 0.717032969
vt 0.992675781 0.687728941
vt 0.144042969 0.709706962
vt 0.144042969 0.73901099
vt 0.159667969 0.73901099
vt 0.159667969 0.709706962
vt 0.160644531 0.709706962
vt 0.160644531 0.73901099
vt 0.176269531 0.73901099
vt 0.176269531 0.709706962
vt 0.333496094 0.709706962
vt 0.333496094 0.73901099
vt 0.349121094 0.73901099
vt 0.349121094 0.709706962
vt 0.350097656 0.709706962
vt 0.350097656 0.73901099
vt 0.365722656 0.73901099
vt 0.365722656 0.709706962
vt 0.366699219 0.709706962
vt 0.366699219 0.73901099
vt 0.382324219 0.73901099
vt 0.382324219 0.709706962
vt 0.0961914062 0.711538434
vt 0.0961914062 0.740842462
vt 0.111816406 0.740842462
vt 0.111816406 0.711538434
vt 0.112792969 0.711538434
vt 0.112792969 0.740842462
vt 0.128417969 0.740842462
vt 0.128417969 0.711538434
vt 0.190917969 0.711538434
vt 0.190917969 0.740842462
vt 0.206542969 0.740842462
vt 0.206542969 0.711538434
vt 0.255371094 0.711538434
vt 0.255371094 0.740842462
vt 0.270996094 0.740842462
vt 0.270996094 0.711538434
vt 0.223144531 0.713369966
vt 0.223144531 0.742673993
vt 0.238769531 0.742673993
vt 0.238769531 0.713369966
vt 0.285644531 0.713369966
vt 0.285644531 0.742673993
vt 0.301269531 0.742673993
vt 0.301269531 0.713369966
g bulisituoer_2_rw-mesh_0
f 3/3/3 2/2/2 1/1/1
f 1/1/1 4/4/4 3/3/3
f 7/7/7 6/6/6 5/5/5
f 5/5/5 8/8/8 7/7/7
f 11/11/11 10/10/10 9/9/9
f 9/9/9 12/12/12 11/11/11
f 15/15/15 14/14/14 13/13/13
f 13/13/13 16/16/16 15/15/15
f 19/19/19 18/18/18 17/17/17
f 17/17/17 20/20/20 19/19/19
f 23/23/23 22/22/22 21/21/21
f 21/21/21 24/24/24 23/23/23
f 27/27/27 26/26/26 25/25/25
f 25/25/25 28/28/28 27/27/27
f 31/31/31 30/30/30 29/29/29
f 29/29/29 32/32/32 31/31/31
f 35/35/35 34/34/34 33/33/33
f 33/33/33 36/36/36 35/35/35
f 39/39/39 38/38/38 37/37/37
f 37/37/37 40/40/40 39/39/39
f 43/43/43 42/42/42 41/41/41
f 41/41/41 44/44/44 43/43/43
f 47/47/47 46/46/46 45/45/45
f 45/45/45 48/48/48 47/47/47
f 51/51/51 50/50/50 49/49/49
f 49/49/49 52/52/52 51/51/51
f 55/55/55 54/54/54 53/53/53
f 53/53/53 56/56/56 55/55/55
f 59/59/59 58/58/58 57/57/57
f 57/57/57 60/60/60 59/59/59
f 63/63/63 62/62/62 61/61/61
f 61/61/61 64/64/64 63/63/63
f 67/67/67 66/66/66 65/65/65
f 65/65/65 68/68/68 67/67/67
f 71/71/71 70/70/70 69/69/69
f 69/69/69 72/72/72 71/71/71
f 75/75/75 74/74/74 73/73/73
f 73/73/73 76/76/76 75/75/75
f 79/79/79 78/78/78 77/77/77
f 77/77/77 80/80/80 79/79/79
f 83/83/83 82/82/82 81/81/81
f 81/81/81 84/84/84 83/83/83
f 87/87/87 86/86/86 85/85/85
f 85/85/85 88/88/88 87/87/87
f 91/91/91 90/90/90 89/89/89
f 89/89/89 92/92/92 91/91/91
f 95/95/95 94/94/94 93/93/93
f 93/93/93 96/96/96 95/95/95
f 99/99/99 98/98/98 97/97/97
f 97/97/97 100/100/100 99/99/99
f 103/103/103 102/102/102 101/101/101
f 101/101/101 104/104/104 103/103/103
f 107/107/107 106/106/106 105/105/105
f 105/105/105 108/108/108 107/107/107
f 111/111/111 110/110/110 109/109/109
f 109/109/109 112/112/112 111/111/111
f 115/115/115 114/114/114 113/113/113
f 113/113/113 116/116/116 115/115/115
f 119/119/119 118/118/118 117/117/117
f 117/117/117 120/120/120 119/119/119
f 123/123/123 122/122/122 121/121/121
f 121/121/121 124/124/124 123/123/123
f 127/127/127 126/126/126 125/125/125
f 125/125/125 128/128/128 127/127/127
f 131/131/131 130/130/130 129/129/129
f 129/129/129 132/132/132 131/131/131
f 135/135/135 134/134/134 133/133/133
f 133/133/133 136/136/136 135/135/135
f 139/139/139 138/138/138 137/137/137
f 137/137/137 140/140/140 139/139/139
f 143/143/143 142/142/142 141/141/141
f 141/141/141 144/144/144 143/143/143
f 147/147/147 146/146/146 145/145/145
f 145/145/145 148/148/148 147/147/147
f 151/151/151 150/150/150 149/149/149
f 149/149/149 152/152/152 151/151/151
f 155/155/155 154/154/154 153/153/153
f 153/153/153 156/156/156 155/155/155
f 159/159/159 158/158/158 157/157/157
f 157/157/157 160/160/160 159/159/159
f 163/163/163 162/162/162 161/161/161
f 161/161/161 164/164/164 163/163/163
f 167/167/167 166/166/166 165/165/165
f 165/165/165 168/168/168 167/167/167
f 171/171/171 170/170/170 169/169/169
f 169/169/169 172/172/172 171/171/171
f 175/175/175 174/174/174 173/173/173
f 173/173/173 176/176/176 175/175/175
f 179/179/179 178/178/178 177/177/177
f 177/177/177 180/180/180 179/179/179
f 183/183/183 182/182/182 181/181/181
f 181/181/181 184/184/184 183/183/183
f 187/187/187 186/186/186 185/185/185
f 185/185/185 188/188/188 187/187/187
f 191/191/191 190/190/190 189/189/189
f 189/189/189 192/192/192 191/191/191
f 195/195/195 194/194/194 193/193/193
f 193/193/193 196/196/196 195/195/195
f 199/199/199 198/198/198 197/197/197
f 197/197/197 200/200/200 199/199/199
f 203/203/203 202/202/202 201/201/201
f 201/201/201 204/204/204 203/203/203
f 207/207/207 206/206/206 205/205/205
f 205/205/205 208/208/208 207/207/207
f 211/211/211 210/210/210 209/209/209
f 209/209/209 212/212/212 211/211/211
f 215/215/215 214/214/214 213/213/213
f 213/213/213 216/216/216 215/215/215
f 219/219/219 218/218/218 217/217/217
f 217/217/217 220/220/220 219/219/219
f 223/223/223 222/222/222 221/221/221
f 221/221/221 224/224/224 223/223/223
f 227/227/227 226/226/226 225/225/225
f 225/225/225 228/228/228 227/227/227
f 231/231/231 230/230/230 229/229/229
f 229/229/229 232/232/232 231/231/231
f 235/235/235 234/234/234 233/233/233
f 233/233/233 236/236/236 235/235/235
f 239/239/239 238/238/238 237/237/237
f 237/237/237 240/240/240 239/239/239
f 243/243/243 242/242/242 241/241/241
f 241/241/241 244/244/244 243/243/243
f 247/247/247 246/246/246 245/245/245
f 245/245/245 248/248/248 247/247/247
f 251/251/251 250/250/250 249/249/249
f 249/249/249 252/252/252 251/251/251
f 255/255/255 254/254/254 253/253/253
f 253/253/253 256/256/256 255/255/255
f 259/259/259 258/258/258 257/257/257
f 257/257/257 260/260/260 259/259/259
f 263/263/263 262/262/262 261/261/261
f 261/261/261 264/264/264 263/263/263
f 267/267/267 266/266/266 265/265/265
f 265/265/265 268/268/268 267/267/267
f 271/271/271 270/270/270 269/269/269
f 269/269/269 272/272/272 271/271/271
f 275/275/275 274/274/274 273/273/273
f 273/273/273 276/276/276 275/275/275
f 279/279/279 278/278/278 277/277/277
f 277/277/277 280/280/280 279/279/279
f 283/283/283 282/282/282 281/281/281
f 281/281/281 284/284/284 283/283/283
f 287/287/287 286/286/286 285/285/285
f 285/285/285 288/288/288 287/287/287
f 291/291/291 290/290/290 289/289/289
f 289/289/289 292/292/292 291/291/291
f 295/295/295 294/294/294 293/293/293
f 293/293/293 296/296/296 295/295/295
f 299/299/299 298/298/298 297/297/297
f 297/297/297 300/300/300 299/299/299
f 303/303/303 302/302/302 301/301/301
f 301/301/301 304/304/304 303/303/303
f 307/307/307 306/306/306 305/305/305
f 305/305/305 308/308/308 307/307/307
f 311/311/311 310/310/310 309/309/309
f 309/309/309 312/312/312 311/311/311
f 315/315/315 314/314/314 313/313/313
f 313/313/313 316/316/316 315/315/315
f 319/319/319 318/318/318 317/317/317
f 317/317/317 320/320/320 319/319/319
f 323/323/323 322/322/322 321/321/321
f 321/321/321 324/324/324 323/323/323
f 327/327/327 326/326/326 325/325/325
f 325/325/325 328/328/328 327/327/327
f 331/331/331 330/330/330 329/329/329
f 329/329/329 332/332/332 331/331/331
f 335/335/335 334/334/334 333/333/333
f 333/333/333 336/336/336 335/335/335
f 339/339/339 338/338/338 337/337/337
f 337/337/337 340/340/340 339/339/339
f 343/343/343 342/342/342 341/341/341
f 341/341/341 344/344/344 343/343/343
f 347/347/347 346/346/346 345/345/345
f 345/345/345 348/348/348 347/347/347
f 351/351/351 350/350/350 349/349/349
f 349/349/349 352/352/352 351/351/351
f 355/355/355 354/354/354 353/353/353
f 353/353/353 356/356/356 355/355/355
f 359/359/359 358/358/358 357/357/357
f 357/357/357 360/360/360 359/359/359
f 363/363/363 362/362/362 361/361/361
f 361/361/361 364/364/364 363/363/363
f 367/367/367 366/366/366 365/365/365
f 365/365/365 368/368/368 367/367/367
f 371/371/371 370/370/370 369/369/369
f 369/369/369 372/372/372 371/371/371
f 375/375/375 374/374/374 373/373/373
f 373/373/373 376/376/376 375/375/375
f 379/379/379 378/378/378 377/377/377
f 377/377/377 380/380/380 379/379/379
f 383/383/383 382/382/382 381/381/381
f 381/381/381 384/384/384 383/383/383
f 387/387/387 386/386/386 385/385/385
f 385/385/385 388/388/388 387/387/387
f 391/391/391 390/390/390 389/389/389
f 389/389/389 392/392/392 391/391/391
f 395/395/395 394/394/394 393/393/393
f 393/393/393 396/396/396 395/395/395
f 399/399/399 398/398/398 397/397/397
f 397/397/397 400/400/400 399/399/399
f 403/403/403 402/402/402 401/401/401
f 401/401/401 404/404/404 403/403/403
f 407/407/407 406/406/406 405/405/405
f 405/405/405 408/408/408 407/407/407
f 411/411/411 410/410/410 409/409/409
f 409/409/409 412/412/412 411/411/411
f 415/415/415 414/414/414 413/413/413
f 413/413/413 416/416/416 415/415/415
f 419/419/419 418/418/418 417/417/417
f 417/417/417 420/420/420 419/419/419
f 423/423/423 422/422/422 421/421/421
f 421/421/421 424/424/424 423/423/423
f 427/427/427 426/426/426 425/425/425
f 425/425/425 428/428/428 427/427/427
f 431/431/431 430/430/430 429/429/429
f 429/429/429 432/432/432 431/431/431
f 435/435/435 434/434/434 433/433/433
f 433/433/433 436/436/436 435/435/435
f 439/439/439 438/438/438 437/437/437
f 437/437/437 440/440/440 439/439/439
f 443/443/443 442/442/442 441/441/441
f 441/441/441 444/444/444 443/443/443
f 447/447/447 446/446/446 445/445/445
f 445/445/445 448/448/448 447/447/447
f 451/451/451 450/450/450 449/449/449
f 449/449/449 452/452/452 451/451/451
