g tierbici_2-mesh
v -320 8 0
v -320 360 0
v -736 360 0
v -736 8 0
v -320 360 0
v -320 712 0
v -736 712 0
v -736 360 0
v -736 40 0
v -736 360 0
v -992 360 0
v -992 40 0
v -96 136 0
v -96 424 0
v -320 424 0
v -320 136 0
v -544 712 0
v -544 1000 0
v -672 1000 0
v -672 712 0
v -192 40 0
v -192 136 0
v -320 136 0
v -320 40 0
v -256 616 0
v -256 744 0
v -320 744 0
v -320 616 0
v -672 872 0
v -672 1000 0
v -736 1000 0
v -736 872 0
v -832 456 0
v -832 520 0
v -960 520 0
v -960 456 0
v -736 488 0
v -736 616 0
v -800 616 0
v -800 488 0
v -736 360 0
v -736 488 0
v -800 488 0
v -800 360 0
v -256 488 0
v -256 616 0
v -320 616 0
v -320 488 0
v -384 840 0
v -384 936 0
v -448 936 0
v -448 840 0
v -192 648 0
v -192 744 0
v -256 744 0
v -256 648 0
v -320 712 0
v -320 776 0
v -416 776 0
v -416 712 0
v -832 552 0
v -832 616 0
v -928 616 0
v -928 552 0
v -800 616 0
v -800 712 0
v -864 712 0
v -864 616 0
v -480 808 0
v -480 904 0
v -544 904 0
v -544 808 0
v -736 840 0
v -736 936 0
v -800 936 0
v -800 840 0
v -480 712 0
v -480 808 0
v -544 808 0
v -544 712 0
v -32 232 0
v -32 328 0
v -96 328 0
v -96 232 0
v -32 136 0
v -32 232 0
v -96 232 0
v -96 136 0
v -928 584 0
v -928 648 0
v -992 648 0
v -992 584 0
v -832 744 0
v -832 808 0
v -896 808 0
v -896 744 0
v -96 488 0
v -96 552 0
v -160 552 0
v -160 488 0
v -800 392 0
v -800 456 0
v -864 456 0
v -864 392 0
v -160 424 0
v -160 488 0
v -224 488 0
v -224 424 0
v -576 0 0
v -576 8 0
v -704 8 0
v -704 0 0
v -448 0 0
v -448 8 0
v -576 8 0
v -576 0 0
v -736 776 0
v -736 840 0
v -800 840 0
v -800 776 0
v -992 200 0
v -992 296 0
v -1023 296 0
v -1023 200 0
v -864 680 0
v -864 712 0
v -928 712 0
v -928 680 0
v -736 648 0
v -736 680 0
v -800 680 0
v -800 648 0
v -800 712 0
v -800 776 0
v -832 776 0
v -832 712 0
v -800 840 0
v -800 904 0
v -832 904 0
v -832 840 0
v -672 712 0
v -672 776 0
v -704 776 0
v -704 712 0
v -0 168 0
v -0 232 0
v -32 232 0
v -32 168 0
v -128 104 0
v -128 136 0
v -192 136 0
v -192 104 0
v -0 264 0
v -0 328 0
v -32 328 0
v -32 264 0
v -32 392 0
v -32 424 0
v -96 424 0
v -96 392 0
v -928 360 0
v -928 392 0
v -992 392 0
v -992 360 0
v -352 840 0
v -352 904 0
v -384 904 0
v -384 840 0
v -896 712 0
v -896 744 0
v -960 744 0
v -960 712 0
v -736 8 0
v -736 40 0
v -800 40 0
v -800 8 0
v -992 136 0
v -992 200 0
v -1023 200 0
v -1023 136 0
v -448 744 0
v -448 808 0
v -480 808 0
v -480 744 0
v -864 8 0
v -864 40 0
v -928 40 0
v -928 8 0
v -896 936 0
v -896 968 0
v -960 968 0
v -960 936 0
v -992 488 0
v -992 520 0
v -1023 520 0
v -1023 488 0
v -96 456 0
v -96 488 0
v -128 488 0
v -128 456 0
v -768 616 0
v -768 648 0
v -800 648 0
v -800 616 0
v -864 616 0
v -864 648 0
v -896 648 0
v -896 616 0
v -224 488 0
v -224 520 0
v -256 520 0
v -256 488 0
v -224 424 0
v -224 456 0
v -256 456 0
v -256 424 0
v -160 72 0
v -160 104 0
v -192 104 0
v -192 72 0
v -800 360 0
v -800 392 0
v -832 392 0
v -832 360 0
v -288 8 0
v -288 40 0
v -320 40 0
v -320 8 0
v -288 424 0
v -288 456 0
v -320 456 0
v -320 424 0
v -928 424 0
v -928 456 0
v -960 456 0
v -960 424 0
v -160 648 0
v -160 680 0
v -192 680 0
v -192 648 0
v -928 8 0
v -928 40 0
v -960 40 0
v -960 8 0
v -416 936 0
v -416 968 0
v -448 968 0
v -448 936 0
v -800 8 0
v -800 40 0
v -832 40 0
v -832 8 0
v -448 712 0
v -448 744 0
v -480 744 0
v -480 712 0
v -960 712 0
v -960 744 0
v -992 744 0
v -992 712 0
v -512 904 0
v -512 936 0
v -544 936 0
v -544 904 0
v -416 712 0
v -416 744 0
v -448 744 0
v -448 712 0
v -768 712 0
v -768 744 0
v -800 744 0
v -800 712 0
v -256 744 0
v -256 776 0
v -288 776 0
v -288 744 0
v -704 840 0
v -704 872 0
v -736 872 0
v -736 840 0
v -704 776 0
v -704 808 0
v -736 808 0
v -736 776 0
vt 0.0009765625 0.0012820363
vt 0.0009765625 0.45256412
vt 0.407226562 0.45256412
vt 0.407226562 0.0012820363
vt 0.409179688 0.0012820363
vt 0.409179688 0.45256412
vt 0.815429688 0.45256412
vt 0.815429688 0.0012820363
vt 0.0009765625 0.455128193
vt 0.0009765625 0.865384579
vt 0.250976562 0.865384579
vt 0.250976562 0.455128193
vt 0.252929688 0.455128193
vt 0.252929688 0.82435894
vt 0.471679688 0.82435894
vt 0.471679688 0.455128193
vt 0.817382812 0.0012820363
vt 0.817382812 0.370512843
vt 0.942382812 0.370512843
vt 0.942382812 0.0012820363
vt 0.817382812 0.373076916
vt 0.817382812 0.496153831
vt 0.942382812 0.496153831
vt 0.942382812 0.373076916
vt 0.473632812 0.455128193
vt 0.473632812 0.619230747
vt 0.536132812 0.619230747
vt 0.536132812 0.455128193
vt 0.538085938 0.455128193
vt 0.538085938 0.619230747
vt 0.600585938 0.619230747
vt 0.600585938 0.455128193
vt 0.602539062 0.455128193
vt 0.602539062 0.53717947
vt 0.727539062 0.53717947
vt 0.727539062 0.455128193
vt 0.729492188 0.455128193
vt 0.729492188 0.619230747
vt 0.791992188 0.619230747
vt 0.791992188 0.455128193
vt 0.817382812 0.498717964
vt 0.817382812 0.662820518
vt 0.879882812 0.662820518
vt 0.879882812 0.498717964
vt 0.881835938 0.498717964
vt 0.881835938 0.662820518
vt 0.944335938 0.662820518
vt 0.944335938 0.498717964
vt 0.602539062 0.539743602
vt 0.602539062 0.662820518
vt 0.665039062 0.662820518
vt 0.665039062 0.539743602
vt 0.473632812 0.621794879
vt 0.473632812 0.744871795
vt 0.536132812 0.744871795
vt 0.536132812 0.621794879
vt 0.602539062 0.66538465
vt 0.602539062 0.747435927
vt 0.696289062 0.747435927
vt 0.696289062 0.66538465
vt 0.817382812 0.66538465
vt 0.817382812 0.747435927
vt 0.911132812 0.747435927
vt 0.911132812 0.66538465
vt 0.538085938 0.621794879
vt 0.538085938 0.744871795
vt 0.600585938 0.744871795
vt 0.600585938 0.621794879
vt 0.729492188 0.621794879
vt 0.729492188 0.744871795
vt 0.791992188 0.744871795
vt 0.791992188 0.621794879
vt 0.913085938 0.66538465
vt 0.913085938 0.788461566
vt 0.975585938 0.788461566
vt 0.975585938 0.66538465
vt 0.473632812 0.747435927
vt 0.473632812 0.870512843
vt 0.536132812 0.870512843
vt 0.536132812 0.747435927
vt 0.538085938 0.747435927
vt 0.538085938 0.870512843
vt 0.600585938 0.870512843
vt 0.600585938 0.747435927
vt 0.729492188 0.747435927
vt 0.729492188 0.870512843
vt 0.791992188 0.870512843
vt 0.791992188 0.747435927
vt 0.602539062 0.75
vt 0.602539062 0.832051277
vt 0.665039062 0.832051277
vt 0.665039062 0.75
vt 0.817382812 0.75
vt 0.817382812 0.832051277
vt 0.879882812 0.832051277
vt 0.879882812 0.75
vt 0.913085938 0.791025639
vt 0.913085938 0.873076916
vt 0.975585938 0.873076916
vt 0.975585938 0.791025639
vt 0.252929688 0.826923072
vt 0.252929688 0.908974349
vt 0.315429688 0.908974349
vt 0.315429688 0.826923072
vt 0.317382812 0.826923072
vt 0.317382812 0.908974349
vt 0.379882812 0.908974349
vt 0.379882812 0.826923072
vt 0.602539062 0.83461535
vt 0.602539062 0.846153855
vt 0.727539062 0.846153855
vt 0.727539062 0.83461535
vt 0.602539062 0.848717928
vt 0.602539062 0.860256433
vt 0.727539062 0.860256433
vt 0.727539062 0.848717928
vt 0.381835938 0.826923072
vt 0.381835938 0.908974349
vt 0.444335938 0.908974349
vt 0.444335938 0.826923072
vt 0.817382812 0.83461535
vt 0.817382812 0.957692325
vt 0.848632812 0.957692325
vt 0.848632812 0.83461535
vt 0.602539062 0.862820506
vt 0.602539062 0.903846145
vt 0.665039062 0.903846145
vt 0.665039062 0.862820506
vt 0.0009765625 0.867948711
vt 0.0009765625 0.908974349
vt 0.0634765625 0.908974349
vt 0.0634765625 0.867948711
vt 0.850585938 0.83461535
vt 0.850585938 0.916666687
vt 0.881835938 0.916666687
vt 0.881835938 0.83461535
vt 0.666992188 0.862820506
vt 0.666992188 0.944871783
vt 0.698242188 0.944871783
vt 0.698242188 0.862820506
vt 0.0654296875 0.867948711
vt 0.0654296875 0.949999988
vt 0.0966796875 0.949999988
vt 0.0966796875 0.867948711
vt 0.0986328125 0.867948711
vt 0.0986328125 0.949999988
vt 0.129882812 0.949999988
vt 0.129882812 0.867948711
vt 0.131835938 0.867948711
vt 0.131835938 0.908974349
vt 0.194335938 0.908974349
vt 0.194335938 0.867948711
vt 0.196289062 0.867948711
vt 0.196289062 0.949999988
vt 0.227539062 0.949999988
vt 0.227539062 0.867948711
vt 0.473632812 0.873076916
vt 0.473632812 0.914102554
vt 0.536132812 0.914102554
vt 0.536132812 0.873076916
vt 0.538085938 0.873076916
vt 0.538085938 0.914102554
vt 0.600585938 0.914102554
vt 0.600585938 0.873076916
vt 0.729492188 0.873076916
vt 0.729492188 0.955128193
vt 0.760742188 0.955128193
vt 0.760742188 0.873076916
vt 0.913085938 0.875641048
vt 0.913085938 0.916666687
vt 0.975585938 0.916666687
vt 0.975585938 0.875641048
vt 0.602539062 0.906410277
vt 0.602539062 0.947435915
vt 0.665039062 0.947435915
vt 0.665039062 0.906410277
vt 0.762695312 0.873076916
vt 0.762695312 0.955128193
vt 0.793945312 0.955128193
vt 0.793945312 0.873076916
vt 0.0009765625 0.911538482
vt 0.0009765625 0.993589759
vt 0.0322265625 0.993589759
vt 0.0322265625 0.911538482
vt 0.131835938 0.911538482
vt 0.131835938 0.95256412
vt 0.194335938 0.95256412
vt 0.194335938 0.911538482
vt 0.252929688 0.911538482
vt 0.252929688 0.95256412
vt 0.315429688 0.95256412
vt 0.315429688 0.911538482
vt 0.317382812 0.911538482
vt 0.317382812 0.95256412
vt 0.348632812 0.95256412
vt 0.348632812 0.911538482
vt 0.350585938 0.911538482
vt 0.350585938 0.95256412
vt 0.381835938 0.95256412
vt 0.381835938 0.911538482
vt 0.383789062 0.911538482
vt 0.383789062 0.95256412
vt 0.415039062 0.95256412
vt 0.415039062 0.911538482
vt 0.416992188 0.911538482
vt 0.416992188 0.95256412
vt 0.448242188 0.95256412
vt 0.448242188 0.911538482
vt 0.473632812 0.916666687
vt 0.473632812 0.957692325
vt 0.504882812 0.957692325
vt 0.504882812 0.916666687
vt 0.506835938 0.916666687
vt 0.506835938 0.957692325
vt 0.538085938 0.957692325
vt 0.538085938 0.916666687
vt 0.540039062 0.916666687
vt 0.540039062 0.957692325
vt 0.571289062 0.957692325
vt 0.571289062 0.916666687
vt 0.850585938 0.919230759
vt 0.850585938 0.960256398
vt 0.881835938 0.960256398
vt 0.881835938 0.919230759
vt 0.913085938 0.919230759
vt 0.913085938 0.960256398
vt 0.944335938 0.960256398
vt 0.944335938 0.919230759
vt 0.946289062 0.919230759
vt 0.946289062 0.960256398
vt 0.977539062 0.960256398
vt 0.977539062 0.919230759
vt 0.666992188 0.947435915
vt 0.666992188 0.988461554
vt 0.698242188 0.988461554
vt 0.698242188 0.947435915
vt 0.602539062 0.949999988
vt 0.602539062 0.991025627
vt 0.633789062 0.991025627
vt 0.633789062 0.949999988
vt 0.0654296875 0.95256412
vt 0.0654296875 0.993589759
vt 0.0966796875 0.993589759
vt 0.0966796875 0.95256412
vt 0.0986328125 0.95256412
vt 0.0986328125 0.993589759
vt 0.129882812 0.993589759
vt 0.129882812 0.95256412
vt 0.196289062 0.95256412
vt 0.196289062 0.993589759
vt 0.227539062 0.993589759
vt 0.227539062 0.95256412
vt 0.131835938 0.955128193
vt 0.131835938 0.996153831
vt 0.163085938 0.996153831
vt 0.163085938 0.955128193
vt 0.252929688 0.955128193
vt 0.252929688 0.996153831
vt 0.284179688 0.996153831
vt 0.284179688 0.955128193
vt 0.286132812 0.955128193
vt 0.286132812 0.996153831
vt 0.317382812 0.996153831
vt 0.317382812 0.955128193
vt 0.319335938 0.955128193
vt 0.319335938 0.996153831
vt 0.350585938 0.996153831
vt 0.350585938 0.955128193
vt 0.352539062 0.955128193
vt 0.352539062 0.996153831
vt 0.383789062 0.996153831
vt 0.383789062 0.955128193
vt 0.385742188 0.955128193
vt 0.385742188 0.996153831
vt 0.416992188 0.996153831
vt 0.416992188 0.955128193
vt 0.418945312 0.955128193
vt 0.418945312 0.996153831
vt 0.450195312 0.996153831
vt 0.450195312 0.955128193
vt 0.729492188 0.957692325
vt 0.729492188 0.998717964
vt 0.760742188 0.998717964
vt 0.760742188 0.957692325
g tierbici_2-mesh_0
f 3/3/3 2/2/2 1/1/1
f 1/1/1 4/4/4 3/3/3
f 7/7/7 6/6/6 5/5/5
f 5/5/5 8/8/8 7/7/7
f 11/11/11 10/10/10 9/9/9
f 9/9/9 12/12/12 11/11/11
f 15/15/15 14/14/14 13/13/13
f 13/13/13 16/16/16 15/15/15
f 19/19/19 18/18/18 17/17/17
f 17/17/17 20/20/20 19/19/19
f 23/23/23 22/22/22 21/21/21
f 21/21/21 24/24/24 23/23/23
f 27/27/27 26/26/26 25/25/25
f 25/25/25 28/28/28 27/27/27
f 31/31/31 30/30/30 29/29/29
f 29/29/29 32/32/32 31/31/31
f 35/35/35 34/34/34 33/33/33
f 33/33/33 36/36/36 35/35/35
f 39/39/39 38/38/38 37/37/37
f 37/37/37 40/40/40 39/39/39
f 43/43/43 42/42/42 41/41/41
f 41/41/41 44/44/44 43/43/43
f 47/47/47 46/46/46 45/45/45
f 45/45/45 48/48/48 47/47/47
f 51/51/51 50/50/50 49/49/49
f 49/49/49 52/52/52 51/51/51
f 55/55/55 54/54/54 53/53/53
f 53/53/53 56/56/56 55/55/55
f 59/59/59 58/58/58 57/57/57
f 57/57/57 60/60/60 59/59/59
f 63/63/63 62/62/62 61/61/61
f 61/61/61 64/64/64 63/63/63
f 67/67/67 66/66/66 65/65/65
f 65/65/65 68/68/68 67/67/67
f 71/71/71 70/70/70 69/69/69
f 69/69/69 72/72/72 71/71/71
f 75/75/75 74/74/74 73/73/73
f 73/73/73 76/76/76 75/75/75
f 79/79/79 78/78/78 77/77/77
f 77/77/77 80/80/80 79/79/79
f 83/83/83 82/82/82 81/81/81
f 81/81/81 84/84/84 83/83/83
f 87/87/87 86/86/86 85/85/85
f 85/85/85 88/88/88 87/87/87
f 91/91/91 90/90/90 89/89/89
f 89/89/89 92/92/92 91/91/91
f 95/95/95 94/94/94 93/93/93
f 93/93/93 96/96/96 95/95/95
f 99/99/99 98/98/98 97/97/97
f 97/97/97 100/100/100 99/99/99
f 103/103/103 102/102/102 101/101/101
f 101/101/101 104/104/104 103/103/103
f 107/107/107 106/106/106 105/105/105
f 105/105/105 108/108/108 107/107/107
f 111/111/111 110/110/110 109/109/109
f 109/109/109 112/112/112 111/111/111
f 115/115/115 114/114/114 113/113/113
f 113/113/113 116/116/116 115/115/115
f 119/119/119 118/118/118 117/117/117
f 117/117/117 120/120/120 119/119/119
f 123/123/123 122/122/122 121/121/121
f 121/121/121 124/124/124 123/123/123
f 127/127/127 126/126/126 125/125/125
f 125/125/125 128/128/128 127/127/127
f 131/131/131 130/130/130 129/129/129
f 129/129/129 132/132/132 131/131/131
f 135/135/135 134/134/134 133/133/133
f 133/133/133 136/136/136 135/135/135
f 139/139/139 138/138/138 137/137/137
f 137/137/137 140/140/140 139/139/139
f 143/143/143 142/142/142 141/141/141
f 141/141/141 144/144/144 143/143/143
f 147/147/147 146/146/146 145/145/145
f 145/145/145 148/148/148 147/147/147
f 151/151/151 150/150/150 149/149/149
f 149/149/149 152/152/152 151/151/151
f 155/155/155 154/154/154 153/153/153
f 153/153/153 156/156/156 155/155/155
f 159/159/159 158/158/158 157/157/157
f 157/157/157 160/160/160 159/159/159
f 163/163/163 162/162/162 161/161/161
f 161/161/161 164/164/164 163/163/163
f 167/167/167 166/166/166 165/165/165
f 165/165/165 168/168/168 167/167/167
f 171/171/171 170/170/170 169/169/169
f 169/169/169 172/172/172 171/171/171
f 175/175/175 174/174/174 173/173/173
f 173/173/173 176/176/176 175/175/175
f 179/179/179 178/178/178 177/177/177
f 177/177/177 180/180/180 179/179/179
f 183/183/183 182/182/182 181/181/181
f 181/181/181 184/184/184 183/183/183
f 187/187/187 186/186/186 185/185/185
f 185/185/185 188/188/188 187/187/187
f 191/191/191 190/190/190 189/189/189
f 189/189/189 192/192/192 191/191/191
f 195/195/195 194/194/194 193/193/193
f 193/193/193 196/196/196 195/195/195
f 199/199/199 198/198/198 197/197/197
f 197/197/197 200/200/200 199/199/199
f 203/203/203 202/202/202 201/201/201
f 201/201/201 204/204/204 203/203/203
f 207/207/207 206/206/206 205/205/205
f 205/205/205 208/208/208 207/207/207
f 211/211/211 210/210/210 209/209/209
f 209/209/209 212/212/212 211/211/211
f 215/215/215 214/214/214 213/213/213
f 213/213/213 216/216/216 215/215/215
f 219/219/219 218/218/218 217/217/217
f 217/217/217 220/220/220 219/219/219
f 223/223/223 222/222/222 221/221/221
f 221/221/221 224/224/224 223/223/223
f 227/227/227 226/226/226 225/225/225
f 225/225/225 228/228/228 227/227/227
f 231/231/231 230/230/230 229/229/229
f 229/229/229 232/232/232 231/231/231
f 235/235/235 234/234/234 233/233/233
f 233/233/233 236/236/236 235/235/235
f 239/239/239 238/238/238 237/237/237
f 237/237/237 240/240/240 239/239/239
f 243/243/243 242/242/242 241/241/241
f 241/241/241 244/244/244 243/243/243
f 247/247/247 246/246/246 245/245/245
f 245/245/245 248/248/248 247/247/247
f 251/251/251 250/250/250 249/249/249
f 249/249/249 252/252/252 251/251/251
f 255/255/255 254/254/254 253/253/253
f 253/253/253 256/256/256 255/255/255
f 259/259/259 258/258/258 257/257/257
f 257/257/257 260/260/260 259/259/259
f 263/263/263 262/262/262 261/261/261
f 261/261/261 264/264/264 263/263/263
f 267/267/267 266/266/266 265/265/265
f 265/265/265 268/268/268 267/267/267
f 271/271/271 270/270/270 269/269/269
f 269/269/269 272/272/272 271/271/271
f 275/275/275 274/274/274 273/273/273
f 273/273/273 276/276/276 275/275/275
f 279/279/279 278/278/278 277/277/277
f 277/277/277 280/280/280 279/279/279
f 283/283/283 282/282/282 281/281/281
f 281/281/281 284/284/284 283/283/283
