g ladefute-mesh
v -32 376 0
v -32 664 0
v -320 664 0
v -320 376 0
v -32 664 0
v -32 952 0
v -320 952 0
v -320 664 0
v -160 152 0
v -160 376 0
v -256 376 0
v -256 152 0
v -32 0 0
v -32 184 0
v -96 184 0
v -96 0 0
v -32 184 0
v -32 376 0
v -96 376 0
v -96 184 0
v -320 536 0
v -320 696 0
v -384 696 0
v -384 536 0
v -320 760 0
v -320 824 0
v -446 824 0
v -446 760 0
v -384 440 0
v -384 568 0
v -446 568 0
v -446 440 0
v -320 408 0
v -320 536 0
v -384 536 0
v -384 408 0
v -32 952 0
v -32 1016 0
v -128 1016 0
v -128 952 0
v -128 952 0
v -128 1016 0
v -224 1016 0
v -224 952 0
v -128 88 0
v -128 152 0
v -224 152 0
v -224 88 0
v -0 760 0
v -0 920 0
v -32 920 0
v -32 760 0
v -96 248 0
v -96 376 0
v -128 376 0
v -128 248 0
v -0 632 0
v -0 760 0
v -32 760 0
v -32 632 0
v -96 152 0
v -96 248 0
v -128 248 0
v -128 152 0
v -384 728 0
v -384 760 0
v -446 760 0
v -446 728 0
v -320 696 0
v -320 760 0
v -352 760 0
v -352 696 0
v -256 216 0
v -256 280 0
v -288 280 0
v -288 216 0
v -128 312 0
v -128 376 0
v -160 376 0
v -160 312 0
v -0 152 0
v -0 216 0
v -32 216 0
v -32 152 0
v -96 24 0
v -96 88 0
v -128 88 0
v -128 24 0
v -0 88 0
v -0 152 0
v -32 152 0
v -32 88 0
v -320 824 0
v -320 856 0
v -352 856 0
v -352 824 0
v -224 952 0
v -224 984 0
v -256 984 0
v -256 952 0
v -96 0 0
v -96 24 0
v -128 24 0
v -128 0 0
vt 0.0009765625 0.00279331207
vt 0.0009765625 0.80726254
vt 0.282226562 0.80726254
vt 0.282226562 0.00279331207
vt 0.284179688 0.00279331207
vt 0.284179688 0.80726254
vt 0.565429688 0.80726254
vt 0.565429688 0.00279331207
vt 0.567382812 0.00279331207
vt 0.567382812 0.62849164
vt 0.661132812 0.62849164
vt 0.661132812 0.00279331207
vt 0.663085938 0.00279331207
vt 0.663085938 0.519553065
vt 0.725585938 0.519553065
vt 0.725585938 0.00279331207
vt 0.727539062 0.00279331207
vt 0.727539062 0.539106131
vt 0.790039062 0.539106131
vt 0.790039062 0.00279331207
vt 0.791992188 0.00279331207
vt 0.791992188 0.449720681
vt 0.854492188 0.449720681
vt 0.854492188 0.00279331207
vt 0.856445312 0.00279331207
vt 0.856445312 0.181564271
vt 0.98046875 0.181564271
vt 0.98046875 0.00279331207
vt 0.856445312 0.187150836
vt 0.856445312 0.544692755
vt 0.91796875 0.544692755
vt 0.91796875 0.187150836
vt 0.919921875 0.187150836
vt 0.919921875 0.544692755
vt 0.982421875 0.544692755
vt 0.982421875 0.187150836
vt 0.727539062 0.544692755
vt 0.727539062 0.723463655
vt 0.821289062 0.723463655
vt 0.821289062 0.544692755
vt 0.856445312 0.550279319
vt 0.856445312 0.729050279
vt 0.950195312 0.729050279
vt 0.950195312 0.550279319
vt 0.567382812 0.634078205
vt 0.567382812 0.812849164
vt 0.661132812 0.812849164
vt 0.661132812 0.634078205
vt 0.823242188 0.455307245
vt 0.823242188 0.902234614
vt 0.854492188 0.902234614
vt 0.854492188 0.455307245
vt 0.663085938 0.525139689
vt 0.663085938 0.882681549
vt 0.694335938 0.882681549
vt 0.694335938 0.525139689
vt 0.952148438 0.550279319
vt 0.952148438 0.907821238
vt 0.983398438 0.907821238
vt 0.983398438 0.550279319
vt 0.727539062 0.729050279
vt 0.727539062 0.997206688
vt 0.758789062 0.997206688
vt 0.758789062 0.729050279
vt 0.856445312 0.734636903
vt 0.856445312 0.824022353
vt 0.91796875 0.824022353
vt 0.91796875 0.734636903
vt 0.760742188 0.729050279
vt 0.760742188 0.907821238
vt 0.791992188 0.907821238
vt 0.791992188 0.729050279
vt 0.0009765625 0.812849164
vt 0.0009765625 0.991620123
vt 0.0322265625 0.991620123
vt 0.0322265625 0.812849164
vt 0.0341796875 0.812849164
vt 0.0341796875 0.991620123
vt 0.0654296875 0.991620123
vt 0.0654296875 0.812849164
vt 0.0673828125 0.812849164
vt 0.0673828125 0.991620123
vt 0.0986328125 0.991620123
vt 0.0986328125 0.812849164
vt 0.100585938 0.812849164
vt 0.100585938 0.991620123
vt 0.131835938 0.991620123
vt 0.131835938 0.812849164
vt 0.133789062 0.812849164
vt 0.133789062 0.991620123
vt 0.165039062 0.991620123
vt 0.165039062 0.812849164
vt 0.166992188 0.812849164
vt 0.166992188 0.902234614
vt 0.198242188 0.902234614
vt 0.198242188 0.812849164
vt 0.200195312 0.812849164
vt 0.200195312 0.902234614
vt 0.231445312 0.902234614
vt 0.231445312 0.812849164
vt 0.233398438 0.812849164
vt 0.233398438 0.882681549
vt 0.264648438 0.882681549
vt 0.264648438 0.812849164
g ladefute-mesh_0
f 3/3/3 2/2/2 1/1/1
f 1/1/1 4/4/4 3/3/3
f 7/7/7 6/6/6 5/5/5
f 5/5/5 8/8/8 7/7/7
f 11/11/11 10/10/10 9/9/9
f 9/9/9 12/12/12 11/11/11
f 15/15/15 14/14/14 13/13/13
f 13/13/13 16/16/16 15/15/15
f 19/19/19 18/18/18 17/17/17
f 17/17/17 20/20/20 19/19/19
f 23/23/23 22/22/22 21/21/21
f 21/21/21 24/24/24 23/23/23
f 27/27/27 26/26/26 25/25/25
f 25/25/25 28/28/28 27/27/27
f 31/31/31 30/30/30 29/29/29
f 29/29/29 32/32/32 31/31/31
f 35/35/35 34/34/34 33/33/33
f 33/33/33 36/36/36 35/35/35
f 39/39/39 38/38/38 37/37/37
f 37/37/37 40/40/40 39/39/39
f 43/43/43 42/42/42 41/41/41
f 41/41/41 44/44/44 43/43/43
f 47/47/47 46/46/46 45/45/45
f 45/45/45 48/48/48 47/47/47
f 51/51/51 50/50/50 49/49/49
f 49/49/49 52/52/52 51/51/51
f 55/55/55 54/54/54 53/53/53
f 53/53/53 56/56/56 55/55/55
f 59/59/59 58/58/58 57/57/57
f 57/57/57 60/60/60 59/59/59
f 63/63/63 62/62/62 61/61/61
f 61/61/61 64/64/64 63/63/63
f 67/67/67 66/66/66 65/65/65
f 65/65/65 68/68/68 67/67/67
f 71/71/71 70/70/70 69/69/69
f 69/69/69 72/72/72 71/71/71
f 75/75/75 74/74/74 73/73/73
f 73/73/73 76/76/76 75/75/75
f 79/79/79 78/78/78 77/77/77
f 77/77/77 80/80/80 79/79/79
f 83/83/83 82/82/82 81/81/81
f 81/81/81 84/84/84 83/83/83
f 87/87/87 86/86/86 85/85/85
f 85/85/85 88/88/88 87/87/87
f 91/91/91 90/90/90 89/89/89
f 89/89/89 92/92/92 91/91/91
f 95/95/95 94/94/94 93/93/93
f 93/93/93 96/96/96 95/95/95
f 99/99/99 98/98/98 97/97/97
f 97/97/97 100/100/100 99/99/99
f 103/103/103 102/102/102 101/101/101
f 101/101/101 104/104/104 103/103/103
