g binxifaniya-mesh
v -32 575 0
v -32 863 0
v -512 863 0
v -512 575 0
v -32 319 0
v -32 575 0
v -512 575 0
v -512 319 0
v -512 703 0
v -512 831 0
v -704 831 0
v -704 703 0
v -512 511 0
v -512 607 0
v -721 607 0
v -721 511 0
v -256 159 0
v -256 319 0
v -384 319 0
v -384 159 0
v -192 863 0
v -192 991 0
v -352 991 0
v -352 863 0
v -352 863 0
v -352 991 0
v -512 991 0
v -512 863 0
v -320 0 0
v -320 127 0
v -416 127 0
v -416 0 0
v -64 191 0
v -64 319 0
v -160 319 0
v -160 191 0
v -512 831 0
v -512 895 0
v -608 895 0
v -608 831 0
v -512 607 0
v -512 703 0
v -576 703 0
v -576 607 0
v -96 863 0
v -96 927 0
v -192 927 0
v -192 863 0
v -384 255 0
v -384 319 0
v -448 319 0
v -448 255 0
v -0 479 0
v -0 607 0
v -32 607 0
v -32 479 0
v -0 351 0
v -0 479 0
v -32 479 0
v -32 351 0
v -352 991 0
v -352 1023 0
v -448 1023 0
v -448 991 0
v -512 479 0
v -512 511 0
v -608 511 0
v -608 479 0
v -608 479 0
v -608 511 0
v -704 511 0
v -704 479 0
v -160 255 0
v -160 319 0
v -192 319 0
v -192 255 0
v -320 127 0
v -320 159 0
v -384 159 0
v -384 127 0
v -224 255 0
v -224 319 0
v -256 319 0
v -256 255 0
v -544 383 0
v -544 447 0
v -576 447 0
v -576 383 0
v -640 447 0
v -640 479 0
v -704 479 0
v -704 447 0
v -192 991 0
v -192 1023 0
v -256 1023 0
v -256 991 0
v -512 415 0
v -512 479 0
v -544 479 0
v -544 415 0
v -0 671 0
v -0 735 0
v -32 735 0
v -32 671 0
v -0 735 0
v -0 799 0
v -32 799 0
v -32 735 0
v -512 351 0
v -512 415 0
v -544 415 0
v -544 351 0
v -448 991 0
v -448 1023 0
v -512 1023 0
v -512 991 0
v -608 863 0
v -608 895 0
v -640 895 0
v -640 863 0
v -576 671 0
v -576 703 0
v -608 703 0
v -608 671 0
v -576 607 0
v -576 639 0
v -608 639 0
v -608 607 0
v -384 223 0
v -384 255 0
v -416 255 0
v -416 223 0
v -192 287 0
v -192 319 0
v -224 319 0
v -224 287 0
v -224 223 0
v -224 255 0
v -256 255 0
v -256 223 0
v -160 223 0
v -160 255 0
v -192 255 0
v -192 223 0
v -256 991 0
v -256 1023 0
v -288 1023 0
v -288 991 0
v -64 863 0
v -64 895 0
v -96 895 0
v -96 863 0
v -160 927 0
v -160 959 0
v -192 959 0
v -192 927 0
vt 0.0009765625 0.00181818008
vt 0.0009765625 0.525454521
vt 0.469726562 0.525454521
vt 0.469726562 0.00181818008
vt 0.471679688 0.00181818008
vt 0.471679688 0.467272699
vt 0.940429688 0.467272699
vt 0.940429688 0.00181818008
vt 0.471679688 0.470909119
vt 0.471679688 0.703636408
vt 0.659179688 0.703636408
vt 0.659179688 0.470909119
vt 0.661132812 0.470909119
vt 0.661132812 0.645454526
vt 0.866210938 0.645454526
vt 0.866210938 0.470909119
vt 0.868164062 0.470909119
vt 0.868164062 0.761818171
vt 0.993164062 0.761818171
vt 0.993164062 0.470909119
vt 0.0009765625 0.529090881
vt 0.0009765625 0.761818171
vt 0.157226562 0.761818171
vt 0.157226562 0.529090881
vt 0.159179688 0.529090881
vt 0.159179688 0.761818171
vt 0.315429688 0.761818171
vt 0.315429688 0.529090881
vt 0.317382812 0.529090881
vt 0.317382812 0.761818171
vt 0.411132812 0.761818171
vt 0.411132812 0.529090881
vt 0.661132812 0.649090886
vt 0.661132812 0.881818175
vt 0.754882812 0.881818175
vt 0.754882812 0.649090886
vt 0.756835938 0.649090886
vt 0.756835938 0.765454531
vt 0.850585938 0.765454531
vt 0.850585938 0.649090886
vt 0.471679688 0.707272768
vt 0.471679688 0.881818175
vt 0.534179688 0.881818175
vt 0.534179688 0.707272768
vt 0.536132812 0.707272768
vt 0.536132812 0.823636353
vt 0.629882812 0.823636353
vt 0.629882812 0.707272768
vt 0.0009765625 0.765454531
vt 0.0009765625 0.881818175
vt 0.0634765625 0.881818175
vt 0.0634765625 0.765454531
vt 0.413085938 0.529090881
vt 0.413085938 0.761818171
vt 0.444335938 0.761818171
vt 0.444335938 0.529090881
vt 0.0654296875 0.765454531
vt 0.0654296875 0.99818182
vt 0.0966796875 0.99818182
vt 0.0966796875 0.765454531
vt 0.0986328125 0.765454531
vt 0.0986328125 0.823636353
vt 0.192382812 0.823636353
vt 0.192382812 0.765454531
vt 0.194335938 0.765454531
vt 0.194335938 0.823636353
vt 0.288085938 0.823636353
vt 0.288085938 0.765454531
vt 0.290039062 0.765454531
vt 0.290039062 0.823636353
vt 0.383789062 0.823636353
vt 0.383789062 0.765454531
vt 0.385742188 0.765454531
vt 0.385742188 0.881818175
vt 0.416992188 0.881818175
vt 0.416992188 0.765454531
vt 0.868164062 0.765454531
vt 0.868164062 0.823636353
vt 0.930664062 0.823636353
vt 0.930664062 0.765454531
vt 0.418945312 0.765454531
vt 0.418945312 0.881818175
vt 0.450195312 0.881818175
vt 0.450195312 0.765454531
vt 0.932617188 0.765454531
vt 0.932617188 0.881818175
vt 0.963867188 0.881818175
vt 0.963867188 0.765454531
vt 0.756835938 0.769090891
vt 0.756835938 0.827272713
vt 0.819335938 0.827272713
vt 0.819335938 0.769090891
vt 0.0986328125 0.827272713
vt 0.0986328125 0.885454535
vt 0.161132812 0.885454535
vt 0.161132812 0.827272713
vt 0.965820312 0.765454531
vt 0.965820312 0.881818175
vt 0.997070312 0.881818175
vt 0.997070312 0.765454531
vt 0.821289062 0.769090891
vt 0.821289062 0.885454535
vt 0.852539062 0.885454535
vt 0.852539062 0.769090891
vt 0.163085938 0.827272713
vt 0.163085938 0.943636358
vt 0.194335938 0.943636358
vt 0.194335938 0.827272713
vt 0.196289062 0.827272713
vt 0.196289062 0.943636358
vt 0.227539062 0.943636358
vt 0.227539062 0.827272713
vt 0.229492188 0.827272713
vt 0.229492188 0.885454535
vt 0.291992188 0.885454535
vt 0.291992188 0.827272713
vt 0.293945312 0.827272713
vt 0.293945312 0.885454535
vt 0.325195312 0.885454535
vt 0.325195312 0.827272713
vt 0.327148438 0.827272713
vt 0.327148438 0.885454535
vt 0.358398438 0.885454535
vt 0.358398438 0.827272713
vt 0.536132812 0.827272713
vt 0.536132812 0.885454535
vt 0.567382812 0.885454535
vt 0.567382812 0.827272713
vt 0.569335938 0.827272713
vt 0.569335938 0.885454535
vt 0.600585938 0.885454535
vt 0.600585938 0.827272713
vt 0.602539062 0.827272713
vt 0.602539062 0.885454535
vt 0.633789062 0.885454535
vt 0.633789062 0.827272713
vt 0.868164062 0.827272713
vt 0.868164062 0.885454535
vt 0.899414062 0.885454535
vt 0.899414062 0.827272713
vt 0.756835938 0.830909073
vt 0.756835938 0.889090896
vt 0.788085938 0.889090896
vt 0.788085938 0.830909073
vt 0.0009765625 0.885454535
vt 0.0009765625 0.943636358
vt 0.0322265625 0.943636358
vt 0.0322265625 0.885454535
vt 0.385742188 0.885454535
vt 0.385742188 0.943636358
vt 0.416992188 0.943636358
vt 0.416992188 0.885454535
vt 0.418945312 0.885454535
vt 0.418945312 0.943636358
vt 0.450195312 0.943636358
vt 0.450195312 0.885454535
g binxifaniya-mesh_0
f 3/3/3 2/2/2 1/1/1
f 1/1/1 4/4/4 3/3/3
f 7/7/7 6/6/6 5/5/5
f 5/5/5 8/8/8 7/7/7
f 11/11/11 10/10/10 9/9/9
f 9/9/9 12/12/12 11/11/11
f 15/15/15 14/14/14 13/13/13
f 13/13/13 16/16/16 15/15/15
f 19/19/19 18/18/18 17/17/17
f 17/17/17 20/20/20 19/19/19
f 23/23/23 22/22/22 21/21/21
f 21/21/21 24/24/24 23/23/23
f 27/27/27 26/26/26 25/25/25
f 25/25/25 28/28/28 27/27/27
f 31/31/31 30/30/30 29/29/29
f 29/29/29 32/32/32 31/31/31
f 35/35/35 34/34/34 33/33/33
f 33/33/33 36/36/36 35/35/35
f 39/39/39 38/38/38 37/37/37
f 37/37/37 40/40/40 39/39/39
f 43/43/43 42/42/42 41/41/41
f 41/41/41 44/44/44 43/43/43
f 47/47/47 46/46/46 45/45/45
f 45/45/45 48/48/48 47/47/47
f 51/51/51 50/50/50 49/49/49
f 49/49/49 52/52/52 51/51/51
f 55/55/55 54/54/54 53/53/53
f 53/53/53 56/56/56 55/55/55
f 59/59/59 58/58/58 57/57/57
f 57/57/57 60/60/60 59/59/59
f 63/63/63 62/62/62 61/61/61
f 61/61/61 64/64/64 63/63/63
f 67/67/67 66/66/66 65/65/65
f 65/65/65 68/68/68 67/67/67
f 71/71/71 70/70/70 69/69/69
f 69/69/69 72/72/72 71/71/71
f 75/75/75 74/74/74 73/73/73
f 73/73/73 76/76/76 75/75/75
f 79/79/79 78/78/78 77/77/77
f 77/77/77 80/80/80 79/79/79
f 83/83/83 82/82/82 81/81/81
f 81/81/81 84/84/84 83/83/83
f 87/87/87 86/86/86 85/85/85
f 85/85/85 88/88/88 87/87/87
f 91/91/91 90/90/90 89/89/89
f 89/89/89 92/92/92 91/91/91
f 95/95/95 94/94/94 93/93/93
f 93/93/93 96/96/96 95/95/95
f 99/99/99 98/98/98 97/97/97
f 97/97/97 100/100/100 99/99/99
f 103/103/103 102/102/102 101/101/101
f 101/101/101 104/104/104 103/103/103
f 107/107/107 106/106/106 105/105/105
f 105/105/105 108/108/108 107/107/107
f 111/111/111 110/110/110 109/109/109
f 109/109/109 112/112/112 111/111/111
f 115/115/115 114/114/114 113/113/113
f 113/113/113 116/116/116 115/115/115
f 119/119/119 118/118/118 117/117/117
f 117/117/117 120/120/120 119/119/119
f 123/123/123 122/122/122 121/121/121
f 121/121/121 124/124/124 123/123/123
f 127/127/127 126/126/126 125/125/125
f 125/125/125 128/128/128 127/127/127
f 131/131/131 130/130/130 129/129/129
f 129/129/129 132/132/132 131/131/131
f 135/135/135 134/134/134 133/133/133
f 133/133/133 136/136/136 135/135/135
f 139/139/139 138/138/138 137/137/137
f 137/137/137 140/140/140 139/139/139
f 143/143/143 142/142/142 141/141/141
f 141/141/141 144/144/144 143/143/143
f 147/147/147 146/146/146 145/145/145
f 145/145/145 148/148/148 147/147/147
f 151/151/151 150/150/150 149/149/149
f 149/149/149 152/152/152 151/151/151
f 155/155/155 154/154/154 153/153/153
f 153/153/153 156/156/156 155/155/155
