g laisha_3_rw-mesh
v -1024 285 0
v -1024 861 0
v -1472 861 0
v -1472 285 0
v -576 285 0
v -576 861 0
v -1024 861 0
v -1024 285 0
v -160 797 0
v -160 1213 0
v -544 1213 0
v -544 797 0
v -896 61 0
v -896 285 0
v -1440 285 0
v -1440 61 0
v -1440 61 0
v -1440 285 0
v -1984 285 0
v -1984 61 0
v -480 413 0
v -480 797 0
v -576 797 0
v -576 413 0
v -480 61 0
v -480 413 0
v -576 413 0
v -576 61 0
v -1472 669 0
v -1472 861 0
v -1600 861 0
v -1600 669 0
v -1024 861 0
v -1024 957 0
v -1280 957 0
v -1280 861 0
v -544 861 0
v -544 1085 0
v -640 1085 0
v -640 861 0
v -1280 861 0
v -1280 957 0
v -1504 957 0
v -1504 861 0
v -1472 509 0
v -1472 669 0
v -1600 669 0
v -1600 509 0
v -1440 29 0
v -1440 61 0
v -1952 61 0
v -1952 29 0
v -928 29 0
v -928 61 0
v -1440 61 0
v -1440 29 0
v -192 701 0
v -192 797 0
v -320 797 0
v -320 701 0
v -352 61 0
v -352 157 0
v -480 157 0
v -480 61 0
v -608 221 0
v -608 285 0
v -768 285 0
v -768 221 0
v -576 125 0
v -576 221 0
v -672 221 0
v -672 125 0
v -64 1117 0
v -64 1213 0
v -160 1213 0
v -160 1117 0
v -224 1245 0
v -224 1373 0
v -288 1373 0
v -288 1245 0
v -1728 285 0
v -1728 317 0
v -1984 317 0
v -1984 285 0
v -256 1213 0
v -256 1245 0
v -512 1245 0
v -512 1213 0
v -0 1213 0
v -0 1245 0
v -256 1245 0
v -256 1213 0
v -1472 285 0
v -1472 317 0
v -1728 317 0
v -1728 285 0
v -768 157 0
v -768 221 0
v -896 221 0
v -896 157 0
v -768 221 0
v -768 285 0
v -896 285 0
v -896 221 0
v -1920 957 0
v -1920 1181 0
v -1952 1181 0
v -1952 957 0
v -896 0 0
v -896 29 0
v -1120 29 0
v -1120 0 0
v -1120 0 0
v -1120 29 0
v -1344 29 0
v -1344 0 0
v -1920 733 0
v -1920 957 0
v -1952 957 0
v -1952 733 0
v -640 861 0
v -640 925 0
v -736 925 0
v -736 861 0
v -1472 445 0
v -1472 509 0
v -1568 509 0
v -1568 445 0
v -928 861 0
v -928 925 0
v -1024 925 0
v -1024 861 0
v -1760 317 0
v -1760 381 0
v -1856 381 0
v -1856 317 0
v -832 861 0
v -832 925 0
v -928 925 0
v -928 861 0
v -1984 157 0
v -1984 253 0
v -2047 253 0
v -2047 157 0
v -1056 957 0
v -1056 989 0
v -1248 989 0
v -1248 957 0
v -1248 957 0
v -1248 989 0
v -1408 989 0
v -1408 957 0
v -320 1245 0
v -320 1309 0
v -384 1309 0
v -384 1245 0
v -384 733 0
v -384 797 0
v -448 797 0
v -448 733 0
v -0 1245 0
v -0 1309 0
v -64 1309 0
v -64 1245 0
v -544 1085 0
v -544 1149 0
v -608 1149 0
v -608 1085 0
v -256 605 0
v -256 669 0
v -320 669 0
v -320 605 0
v -448 669 0
v -448 797 0
v -480 797 0
v -480 669 0
v -1856 317 0
v -1856 381 0
v -1920 381 0
v -1920 317 0
v -448 541 0
v -448 669 0
v -480 669 0
v -480 541 0
v -288 29 0
v -288 93 0
v -352 93 0
v -352 29 0
v -1984 93 0
v -1984 157 0
v -2047 157 0
v -2047 93 0
v -1600 669 0
v -1600 765 0
v -1632 765 0
v -1632 669 0
v -1888 1213 0
v -1888 1309 0
v -1920 1309 0
v -1920 1213 0
v -1600 573 0
v -1600 669 0
v -1632 669 0
v -1632 573 0
v -448 349 0
v -448 445 0
v -480 445 0
v -480 349 0
v -1504 861 0
v -1504 925 0
v -1536 925 0
v -1536 861 0
v -640 925 0
v -640 989 0
v -672 989 0
v -672 925 0
v -96 1085 0
v -96 1117 0
v -160 1117 0
v -160 1085 0
v -0 1181 0
v -0 1213 0
v -64 1213 0
v -64 1181 0
v -192 1245 0
v -192 1309 0
v -224 1309 0
v -224 1245 0
v -544 797 0
v -544 861 0
v -576 861 0
v -576 797 0
v -576 93 0
v -576 125 0
v -640 125 0
v -640 93 0
v -672 0 0
v -672 29 0
v -736 29 0
v -736 0 0
v -416 157 0
v -416 189 0
v -480 189 0
v -480 157 0
v -320 573 0
v -320 637 0
v -352 637 0
v -352 573 0
v -1472 381 0
v -1472 445 0
v -1504 445 0
v -1504 381 0
v -448 29 0
v -448 61 0
v -512 61 0
v -512 29 0
v -1952 701 0
v -1952 765 0
v -1984 765 0
v -1984 701 0
v -384 29 0
v -384 61 0
v -448 61 0
v -448 29 0
v -448 285 0
v -448 349 0
v -480 349 0
v -480 285 0
v -1888 1149 0
v -1888 1213 0
v -1920 1213 0
v -1920 1149 0
v -32 1309 0
v -32 1341 0
v -96 1341 0
v -96 1309 0
v -192 669 0
v -192 701 0
v -256 701 0
v -256 669 0
v -1792 381 0
v -1792 413 0
v -1856 413 0
v -1856 381 0
v -1504 413 0
v -1504 445 0
v -1536 445 0
v -1536 413 0
v -288 573 0
v -288 605 0
v -320 605 0
v -320 573 0
v -416 701 0
v -416 733 0
v -448 733 0
v -448 701 0
v -320 701 0
v -320 733 0
v -352 733 0
v -352 701 0
v -192 637 0
v -192 669 0
v -224 669 0
v -224 637 0
v -1920 317 0
v -1920 349 0
v -1952 349 0
v -1952 317 0
v -320 93 0
v -320 125 0
v -352 125 0
v -352 93 0
v -736 189 0
v -736 221 0
v -768 221 0
v -768 189 0
v -864 61 0
v -864 93 0
v -896 93 0
v -896 61 0
v -1984 253 0
v -1984 285 0
v -2016 285 0
v -2016 253 0
v -576 221 0
v -576 253 0
v -608 253 0
v -608 221 0
v -288 1277 0
v -288 1309 0
v -320 1309 0
v -320 1277 0
v -384 1245 0
v -384 1277 0
v -416 1277 0
v -416 1245 0
v -1952 669 0
v -1952 701 0
v -1984 701 0
v -1984 669 0
v -1856 381 0
v -1856 413 0
v -1888 413 0
v -1888 381 0
v -256 669 0
v -256 701 0
v -288 701 0
v -288 669 0
v -32 1149 0
v -32 1181 0
v -64 1181 0
v -64 1149 0
v -1536 861 0
v -1536 893 0
v -1568 893 0
v -1568 861 0
v -160 765 0
v -160 797 0
v -192 797 0
v -192 765 0
v -800 861 0
v -800 893 0
v -832 893 0
v -832 861 0
v -544 1149 0
v -544 1181 0
v -576 1181 0
v -576 1149 0
v -736 861 0
v -736 893 0
v -768 893 0
v -768 861 0
vt 0.00048828125 0.00128537416
vt 0.00048828125 0.741645217
vt 0.219238281 0.741645217
vt 0.219238281 0.00128537416
vt 0.220214844 0.00128537416
vt 0.220214844 0.741645217
vt 0.438964844 0.741645217
vt 0.438964844 0.00128537416
vt 0.439941406 0.00128537416
vt 0.439941406 0.535989761
vt 0.627441406 0.535989761
vt 0.627441406 0.00128537416
vt 0.628417969 0.00128537416
vt 0.628417969 0.289203107
vt 0.894042969 0.289203107
vt 0.894042969 0.00128537416
vt 0.628417969 0.291773796
vt 0.628417969 0.579691529
vt 0.894042969 0.579691529
vt 0.894042969 0.291773796
vt 0.895019531 0.00128537416
vt 0.895019531 0.494858623
vt 0.941894531 0.494858623
vt 0.941894531 0.00128537416
vt 0.942871094 0.00128537416
vt 0.942871094 0.453727484
vt 0.989746094 0.453727484
vt 0.989746094 0.00128537416
vt 0.895019531 0.497429311
vt 0.895019531 0.744215965
vt 0.957519531 0.744215965
vt 0.957519531 0.497429311
vt 0.439941406 0.53856039
vt 0.439941406 0.661953688
vt 0.564941406 0.661953688
vt 0.564941406 0.53856039
vt 0.565917969 0.53856039
vt 0.565917969 0.826478124
vt 0.612792969 0.826478124
vt 0.612792969 0.53856039
vt 0.628417969 0.582262218
vt 0.628417969 0.705655515
vt 0.737792969 0.705655515
vt 0.737792969 0.582262218
vt 0.738769531 0.582262218
vt 0.738769531 0.787917733
vt 0.801269531 0.787917733
vt 0.801269531 0.582262218
vt 0.00048828125 0.744215965
vt 0.00048828125 0.785347044
vt 0.250488281 0.785347044
vt 0.250488281 0.744215965
vt 0.251464844 0.744215965
vt 0.251464844 0.785347044
vt 0.501464844 0.785347044
vt 0.501464844 0.744215965
vt 0.802246094 0.582262218
vt 0.802246094 0.705655515
vt 0.864746094 0.705655515
vt 0.864746094 0.582262218
vt 0.502441406 0.664524436
vt 0.502441406 0.787917733
vt 0.564941406 0.787917733
vt 0.564941406 0.664524436
vt 0.628417969 0.708226204
vt 0.628417969 0.790488422
vt 0.706542969 0.790488422
vt 0.706542969 0.708226204
vt 0.802246094 0.708226204
vt 0.802246094 0.831619501
vt 0.849121094 0.831619501
vt 0.849121094 0.708226204
vt 0.895019531 0.746786594
vt 0.895019531 0.870179951
vt 0.941894531 0.870179951
vt 0.941894531 0.746786594
vt 0.958496094 0.456298172
vt 0.958496094 0.620822608
vt 0.989746094 0.620822608
vt 0.989746094 0.456298172
vt 0.00048828125 0.787917733
vt 0.00048828125 0.829048872
vt 0.125488281 0.829048872
vt 0.125488281 0.787917733
vt 0.126464844 0.787917733
vt 0.126464844 0.829048872
vt 0.251464844 0.829048872
vt 0.251464844 0.787917733
vt 0.252441406 0.787917733
vt 0.252441406 0.829048872
vt 0.377441406 0.829048872
vt 0.377441406 0.787917733
vt 0.628417969 0.793059111
vt 0.628417969 0.834190249
vt 0.753417969 0.834190249
vt 0.753417969 0.793059111
vt 0.378417969 0.787917733
vt 0.378417969 0.870179951
vt 0.440917969 0.870179951
vt 0.440917969 0.787917733
vt 0.502441406 0.790488422
vt 0.502441406 0.87275064
vt 0.564941406 0.87275064
vt 0.564941406 0.790488422
vt 0.865722656 0.582262218
vt 0.865722656 0.870179951
vt 0.881347656 0.870179951
vt 0.881347656 0.582262218
vt 0.00048828125 0.831619501
vt 0.00048828125 0.870179951
vt 0.109863281 0.870179951
vt 0.109863281 0.831619501
vt 0.110839844 0.831619501
vt 0.110839844 0.870179951
vt 0.220214844 0.870179951
vt 0.220214844 0.831619501
vt 0.958496094 0.623393297
vt 0.958496094 0.91131103
vt 0.974121094 0.91131103
vt 0.974121094 0.623393297
vt 0.441894531 0.787917733
vt 0.441894531 0.870179951
vt 0.488769531 0.870179951
vt 0.488769531 0.787917733
vt 0.754394531 0.790488422
vt 0.754394531 0.87275064
vt 0.801269531 0.87275064
vt 0.801269531 0.790488422
vt 0.565917969 0.829048872
vt 0.565917969 0.91131103
vt 0.612792969 0.91131103
vt 0.612792969 0.829048872
vt 0.221191406 0.831619501
vt 0.221191406 0.913881779
vt 0.268066406 0.913881779
vt 0.268066406 0.831619501
vt 0.269042969 0.831619501
vt 0.269042969 0.913881779
vt 0.315917969 0.913881779
vt 0.315917969 0.831619501
vt 0.316894531 0.831619501
vt 0.316894531 0.955012858
vt 0.348144531 0.955012858
vt 0.348144531 0.831619501
vt 0.628417969 0.836760938
vt 0.628417969 0.877892017
vt 0.722167969 0.877892017
vt 0.722167969 0.836760938
vt 0.00048828125 0.87275064
vt 0.00048828125 0.913881779
vt 0.0786132812 0.913881779
vt 0.0786132812 0.87275064
vt 0.802246094 0.834190249
vt 0.802246094 0.916452467
vt 0.833496094 0.916452467
vt 0.833496094 0.834190249
vt 0.0795898438 0.87275064
vt 0.0795898438 0.955012858
vt 0.110839844 0.955012858
vt 0.110839844 0.87275064
vt 0.111816406 0.87275064
vt 0.111816406 0.955012858
vt 0.143066406 0.955012858
vt 0.143066406 0.87275064
vt 0.144042969 0.87275064
vt 0.144042969 0.955012858
vt 0.175292969 0.955012858
vt 0.175292969 0.87275064
vt 0.176269531 0.87275064
vt 0.176269531 0.955012858
vt 0.207519531 0.955012858
vt 0.207519531 0.87275064
vt 0.975097656 0.623393297
vt 0.975097656 0.787917733
vt 0.990722656 0.787917733
vt 0.990722656 0.623393297
vt 0.378417969 0.87275064
vt 0.378417969 0.955012858
vt 0.409667969 0.955012858
vt 0.409667969 0.87275064
vt 0.975097656 0.790488422
vt 0.975097656 0.955012858
vt 0.990722656 0.955012858
vt 0.990722656 0.790488422
vt 0.410644531 0.87275064
vt 0.410644531 0.955012858
vt 0.441894531 0.955012858
vt 0.441894531 0.87275064
vt 0.442871094 0.87275064
vt 0.442871094 0.955012858
vt 0.474121094 0.955012858
vt 0.474121094 0.87275064
vt 0.349121094 0.831619501
vt 0.349121094 0.955012858
vt 0.364746094 0.955012858
vt 0.364746094 0.831619501
vt 0.834472656 0.834190249
vt 0.834472656 0.957583547
vt 0.850097656 0.957583547
vt 0.850097656 0.834190249
vt 0.723144531 0.836760938
vt 0.723144531 0.960154235
vt 0.738769531 0.960154235
vt 0.738769531 0.836760938
vt 0.475097656 0.87275064
vt 0.475097656 0.996143937
vt 0.490722656 0.996143937
vt 0.490722656 0.87275064
vt 0.865722656 0.87275064
vt 0.865722656 0.955012858
vt 0.881347656 0.955012858
vt 0.881347656 0.87275064
vt 0.895019531 0.87275064
vt 0.895019531 0.955012858
vt 0.910644531 0.955012858
vt 0.910644531 0.87275064
vt 0.911621094 0.87275064
vt 0.911621094 0.913881779
vt 0.942871094 0.913881779
vt 0.942871094 0.87275064
vt 0.502441406 0.875321329
vt 0.502441406 0.916452467
vt 0.533691406 0.916452467
vt 0.533691406 0.875321329
vt 0.534667969 0.875321329
vt 0.534667969 0.957583547
vt 0.550292969 0.957583547
vt 0.550292969 0.875321329
vt 0.754394531 0.875321329
vt 0.754394531 0.957583547
vt 0.770019531 0.957583547
vt 0.770019531 0.875321329
vt 0.628417969 0.880462706
vt 0.628417969 0.921593845
vt 0.659667969 0.921593845
vt 0.659667969 0.880462706
vt 0.660644531 0.880462706
vt 0.660644531 0.919023156
vt 0.691894531 0.919023156
vt 0.691894531 0.880462706
vt 0.565917969 0.913881779
vt 0.565917969 0.955012858
vt 0.597167969 0.955012858
vt 0.597167969 0.913881779
vt 0.770996094 0.875321329
vt 0.770996094 0.957583547
vt 0.786621094 0.957583547
vt 0.786621094 0.875321329
vt 0.692871094 0.880462706
vt 0.692871094 0.962724924
vt 0.708496094 0.962724924
vt 0.708496094 0.880462706
vt 0.00048828125 0.916452467
vt 0.00048828125 0.957583547
vt 0.0317382812 0.957583547
vt 0.0317382812 0.916452467
vt 0.598144531 0.913881779
vt 0.598144531 0.996143937
vt 0.613769531 0.996143937
vt 0.613769531 0.913881779
vt 0.0327148438 0.916452467
vt 0.0327148438 0.957583547
vt 0.0639648438 0.957583547
vt 0.0639648438 0.916452467
vt 0.958496094 0.913881779
vt 0.958496094 0.996143937
vt 0.974121094 0.996143937
vt 0.974121094 0.913881779
vt 0.221191406 0.916452467
vt 0.221191406 0.998714626
vt 0.236816406 0.998714626
vt 0.236816406 0.916452467
vt 0.237792969 0.916452467
vt 0.237792969 0.957583547
vt 0.269042969 0.957583547
vt 0.269042969 0.916452467
vt 0.270019531 0.916452467
vt 0.270019531 0.957583547
vt 0.301269531 0.957583547
vt 0.301269531 0.916452467
vt 0.911621094 0.916452467
vt 0.911621094 0.957583547
vt 0.942871094 0.957583547
vt 0.942871094 0.916452467
vt 0.502441406 0.919023156
vt 0.502441406 0.960154235
vt 0.518066406 0.960154235
vt 0.518066406 0.919023156
vt 0.802246094 0.919023156
vt 0.802246094 0.960154235
vt 0.817871094 0.960154235
vt 0.817871094 0.919023156
vt 0.660644531 0.921593845
vt 0.660644531 0.962724924
vt 0.676269531 0.962724924
vt 0.676269531 0.921593845
vt 0.628417969 0.924164534
vt 0.628417969 0.965295613
vt 0.644042969 0.965295613
vt 0.644042969 0.924164534
vt 0.0795898438 0.957583547
vt 0.0795898438 0.998714626
vt 0.0952148438 0.998714626
vt 0.0952148438 0.957583547
vt 0.0961914062 0.957583547
vt 0.0961914062 0.998714626
vt 0.111816406 0.998714626
vt 0.111816406 0.957583547
vt 0.112792969 0.957583547
vt 0.112792969 0.998714626
vt 0.128417969 0.998714626
vt 0.128417969 0.957583547
vt 0.129394531 0.957583547
vt 0.129394531 0.998714626
vt 0.145019531 0.998714626
vt 0.145019531 0.957583547
vt 0.145996094 0.957583547
vt 0.145996094 0.998714626
vt 0.161621094 0.998714626
vt 0.161621094 0.957583547
vt 0.162597656 0.957583547
vt 0.162597656 0.998714626
vt 0.178222656 0.998714626
vt 0.178222656 0.957583547
vt 0.179199219 0.957583547
vt 0.179199219 0.998714626
vt 0.194824219 0.998714626
vt 0.194824219 0.957583547
vt 0.195800781 0.957583547
vt 0.195800781 0.998714626
vt 0.211425781 0.998714626
vt 0.211425781 0.957583547
vt 0.316894531 0.957583547
vt 0.316894531 0.998714626
vt 0.332519531 0.998714626
vt 0.332519531 0.957583547
vt 0.333496094 0.957583547
vt 0.333496094 0.998714626
vt 0.349121094 0.998714626
vt 0.349121094 0.957583547
vt 0.350097656 0.957583547
vt 0.350097656 0.998714626
vt 0.365722656 0.998714626
vt 0.365722656 0.957583547
vt 0.378417969 0.957583547
vt 0.378417969 0.998714626
vt 0.394042969 0.998714626
vt 0.394042969 0.957583547
vt 0.395019531 0.957583547
vt 0.395019531 0.998714626
vt 0.410644531 0.998714626
vt 0.410644531 0.957583547
vt 0.411621094 0.957583547
vt 0.411621094 0.998714626
vt 0.427246094 0.998714626
vt 0.427246094 0.957583547
vt 0.428222656 0.957583547
vt 0.428222656 0.998714626
vt 0.443847656 0.998714626
vt 0.443847656 0.957583547
vt 0.444824219 0.957583547
vt 0.444824219 0.998714626
vt 0.460449219 0.998714626
vt 0.460449219 0.957583547
vt 0.565917969 0.957583547
vt 0.565917969 0.998714626
vt 0.581542969 0.998714626
vt 0.581542969 0.957583547
vt 0.865722656 0.957583547
vt 0.865722656 0.998714626
vt 0.881347656 0.998714626
vt 0.881347656 0.957583547
g laisha_3_rw-mesh_0
f 3/3/3 2/2/2 1/1/1
f 1/1/1 4/4/4 3/3/3
f 7/7/7 6/6/6 5/5/5
f 5/5/5 8/8/8 7/7/7
f 11/11/11 10/10/10 9/9/9
f 9/9/9 12/12/12 11/11/11
f 15/15/15 14/14/14 13/13/13
f 13/13/13 16/16/16 15/15/15
f 19/19/19 18/18/18 17/17/17
f 17/17/17 20/20/20 19/19/19
f 23/23/23 22/22/22 21/21/21
f 21/21/21 24/24/24 23/23/23
f 27/27/27 26/26/26 25/25/25
f 25/25/25 28/28/28 27/27/27
f 31/31/31 30/30/30 29/29/29
f 29/29/29 32/32/32 31/31/31
f 35/35/35 34/34/34 33/33/33
f 33/33/33 36/36/36 35/35/35
f 39/39/39 38/38/38 37/37/37
f 37/37/37 40/40/40 39/39/39
f 43/43/43 42/42/42 41/41/41
f 41/41/41 44/44/44 43/43/43
f 47/47/47 46/46/46 45/45/45
f 45/45/45 48/48/48 47/47/47
f 51/51/51 50/50/50 49/49/49
f 49/49/49 52/52/52 51/51/51
f 55/55/55 54/54/54 53/53/53
f 53/53/53 56/56/56 55/55/55
f 59/59/59 58/58/58 57/57/57
f 57/57/57 60/60/60 59/59/59
f 63/63/63 62/62/62 61/61/61
f 61/61/61 64/64/64 63/63/63
f 67/67/67 66/66/66 65/65/65
f 65/65/65 68/68/68 67/67/67
f 71/71/71 70/70/70 69/69/69
f 69/69/69 72/72/72 71/71/71
f 75/75/75 74/74/74 73/73/73
f 73/73/73 76/76/76 75/75/75
f 79/79/79 78/78/78 77/77/77
f 77/77/77 80/80/80 79/79/79
f 83/83/83 82/82/82 81/81/81
f 81/81/81 84/84/84 83/83/83
f 87/87/87 86/86/86 85/85/85
f 85/85/85 88/88/88 87/87/87
f 91/91/91 90/90/90 89/89/89
f 89/89/89 92/92/92 91/91/91
f 95/95/95 94/94/94 93/93/93
f 93/93/93 96/96/96 95/95/95
f 99/99/99 98/98/98 97/97/97
f 97/97/97 100/100/100 99/99/99
f 103/103/103 102/102/102 101/101/101
f 101/101/101 104/104/104 103/103/103
f 107/107/107 106/106/106 105/105/105
f 105/105/105 108/108/108 107/107/107
f 111/111/111 110/110/110 109/109/109
f 109/109/109 112/112/112 111/111/111
f 115/115/115 114/114/114 113/113/113
f 113/113/113 116/116/116 115/115/115
f 119/119/119 118/118/118 117/117/117
f 117/117/117 120/120/120 119/119/119
f 123/123/123 122/122/122 121/121/121
f 121/121/121 124/124/124 123/123/123
f 127/127/127 126/126/126 125/125/125
f 125/125/125 128/128/128 127/127/127
f 131/131/131 130/130/130 129/129/129
f 129/129/129 132/132/132 131/131/131
f 135/135/135 134/134/134 133/133/133
f 133/133/133 136/136/136 135/135/135
f 139/139/139 138/138/138 137/137/137
f 137/137/137 140/140/140 139/139/139
f 143/143/143 142/142/142 141/141/141
f 141/141/141 144/144/144 143/143/143
f 147/147/147 146/146/146 145/145/145
f 145/145/145 148/148/148 147/147/147
f 151/151/151 150/150/150 149/149/149
f 149/149/149 152/152/152 151/151/151
f 155/155/155 154/154/154 153/153/153
f 153/153/153 156/156/156 155/155/155
f 159/159/159 158/158/158 157/157/157
f 157/157/157 160/160/160 159/159/159
f 163/163/163 162/162/162 161/161/161
f 161/161/161 164/164/164 163/163/163
f 167/167/167 166/166/166 165/165/165
f 165/165/165 168/168/168 167/167/167
f 171/171/171 170/170/170 169/169/169
f 169/169/169 172/172/172 171/171/171
f 175/175/175 174/174/174 173/173/173
f 173/173/173 176/176/176 175/175/175
f 179/179/179 178/178/178 177/177/177
f 177/177/177 180/180/180 179/179/179
f 183/183/183 182/182/182 181/181/181
f 181/181/181 184/184/184 183/183/183
f 187/187/187 186/186/186 185/185/185
f 185/185/185 188/188/188 187/187/187
f 191/191/191 190/190/190 189/189/189
f 189/189/189 192/192/192 191/191/191
f 195/195/195 194/194/194 193/193/193
f 193/193/193 196/196/196 195/195/195
f 199/199/199 198/198/198 197/197/197
f 197/197/197 200/200/200 199/199/199
f 203/203/203 202/202/202 201/201/201
f 201/201/201 204/204/204 203/203/203
f 207/207/207 206/206/206 205/205/205
f 205/205/205 208/208/208 207/207/207
f 211/211/211 210/210/210 209/209/209
f 209/209/209 212/212/212 211/211/211
f 215/215/215 214/214/214 213/213/213
f 213/213/213 216/216/216 215/215/215
f 219/219/219 218/218/218 217/217/217
f 217/217/217 220/220/220 219/219/219
f 223/223/223 222/222/222 221/221/221
f 221/221/221 224/224/224 223/223/223
f 227/227/227 226/226/226 225/225/225
f 225/225/225 228/228/228 227/227/227
f 231/231/231 230/230/230 229/229/229
f 229/229/229 232/232/232 231/231/231
f 235/235/235 234/234/234 233/233/233
f 233/233/233 236/236/236 235/235/235
f 239/239/239 238/238/238 237/237/237
f 237/237/237 240/240/240 239/239/239
f 243/243/243 242/242/242 241/241/241
f 241/241/241 244/244/244 243/243/243
f 247/247/247 246/246/246 245/245/245
f 245/245/245 248/248/248 247/247/247
f 251/251/251 250/250/250 249/249/249
f 249/249/249 252/252/252 251/251/251
f 255/255/255 254/254/254 253/253/253
f 253/253/253 256/256/256 255/255/255
f 259/259/259 258/258/258 257/257/257
f 257/257/257 260/260/260 259/259/259
f 263/263/263 262/262/262 261/261/261
f 261/261/261 264/264/264 263/263/263
f 267/267/267 266/266/266 265/265/265
f 265/265/265 268/268/268 267/267/267
f 271/271/271 270/270/270 269/269/269
f 269/269/269 272/272/272 271/271/271
f 275/275/275 274/274/274 273/273/273
f 273/273/273 276/276/276 275/275/275
f 279/279/279 278/278/278 277/277/277
f 277/277/277 280/280/280 279/279/279
f 283/283/283 282/282/282 281/281/281
f 281/281/281 284/284/284 283/283/283
f 287/287/287 286/286/286 285/285/285
f 285/285/285 288/288/288 287/287/287
f 291/291/291 290/290/290 289/289/289
f 289/289/289 292/292/292 291/291/291
f 295/295/295 294/294/294 293/293/293
f 293/293/293 296/296/296 295/295/295
f 299/299/299 298/298/298 297/297/297
f 297/297/297 300/300/300 299/299/299
f 303/303/303 302/302/302 301/301/301
f 301/301/301 304/304/304 303/303/303
f 307/307/307 306/306/306 305/305/305
f 305/305/305 308/308/308 307/307/307
f 311/311/311 310/310/310 309/309/309
f 309/309/309 312/312/312 311/311/311
f 315/315/315 314/314/314 313/313/313
f 313/313/313 316/316/316 315/315/315
f 319/319/319 318/318/318 317/317/317
f 317/317/317 320/320/320 319/319/319
f 323/323/323 322/322/322 321/321/321
f 321/321/321 324/324/324 323/323/323
f 327/327/327 326/326/326 325/325/325
f 325/325/325 328/328/328 327/327/327
f 331/331/331 330/330/330 329/329/329
f 329/329/329 332/332/332 331/331/331
f 335/335/335 334/334/334 333/333/333
f 333/333/333 336/336/336 335/335/335
f 339/339/339 338/338/338 337/337/337
f 337/337/337 340/340/340 339/339/339
f 343/343/343 342/342/342 341/341/341
f 341/341/341 344/344/344 343/343/343
f 347/347/347 346/346/346 345/345/345
f 345/345/345 348/348/348 347/347/347
f 351/351/351 350/350/350 349/349/349
f 349/349/349 352/352/352 351/351/351
f 355/355/355 354/354/354 353/353/353
f 353/353/353 356/356/356 355/355/355
f 359/359/359 358/358/358 357/357/357
f 357/357/357 360/360/360 359/359/359
f 363/363/363 362/362/362 361/361/361
f 361/361/361 364/364/364 363/363/363
f 367/367/367 366/366/366 365/365/365
f 365/365/365 368/368/368 367/367/367
f 371/371/371 370/370/370 369/369/369
f 369/369/369 372/372/372 371/371/371
