g daiduo_idol-mesh
v -352 959 0
v -352 1823 0
v -1600 1823 0
v -1600 959 0
v -352 127 0
v -352 959 0
v -1600 959 0
v -1600 127 0
v -32 767 0
v -32 1247 0
v -352 1247 0
v -352 767 0
v -32 1247 0
v -32 1727 0
v -352 1727 0
v -352 1247 0
v -1600 1247 0
v -1600 1759 0
v -1888 1759 0
v -1888 1247 0
v -1600 767 0
v -1600 1247 0
v -1888 1247 0
v -1888 767 0
v -1056 1823 0
v -1056 2047 0
v -1440 2047 0
v -1440 1823 0
v -672 1823 0
v -672 2047 0
v -1056 2047 0
v -1056 1823 0
v -160 511 0
v -160 767 0
v -352 767 0
v -352 511 0
v -480 31 0
v -480 127 0
v -864 127 0
v -864 31 0
v -864 31 0
v -864 127 0
v -1216 127 0
v -1216 31 0
v -1600 447 0
v -1600 767 0
v -1696 767 0
v -1696 447 0
v -1600 159 0
v -1600 447 0
v -1696 447 0
v -1696 159 0
v -1888 1471 0
v -1888 1727 0
v -1984 1727 0
v -1984 1471 0
v -1888 1215 0
v -1888 1471 0
v -1984 1471 0
v -1984 1215 0
v -32 1759 0
v -32 1919 0
v -160 1919 0
v -160 1759 0
v -1696 575 0
v -1696 767 0
v -1792 767 0
v -1792 575 0
v -0 1407 0
v -0 1951 0
v -32 1951 0
v -32 1407 0
v -0 895 0
v -0 1407 0
v -32 1407 0
v -32 895 0
v -256 1823 0
v -256 1887 0
v -480 1887 0
v -480 1823 0
v -544 1887 0
v -544 1983 0
v -672 1983 0
v -672 1887 0
v -480 1823 0
v -480 1887 0
v -672 1887 0
v -672 1823 0
v -1696 383 0
v -1696 575 0
v -1760 575 0
v -1760 383 0
v -1696 223 0
v -1696 383 0
v -1760 383 0
v -1760 223 0
v -256 415 0
v -256 511 0
v -352 511 0
v -352 415 0
v -576 0 0
v -576 31 0
v -864 31 0
v -864 0 0
v -224 1887 0
v -224 1983 0
v -320 1983 0
v -320 1887 0
v -864 0 0
v -864 31 0
v -1120 31 0
v -1120 0 0
v -1792 671 0
v -1792 767 0
v -1856 767 0
v -1856 671 0
v -1888 1023 0
v -1888 1215 0
v -1920 1215 0
v -1920 1023 0
v -96 671 0
v -96 767 0
v -160 767 0
v -160 671 0
v -1888 863 0
v -1888 1023 0
v -1920 1023 0
v -1920 863 0
v -288 1759 0
v -288 1823 0
v -352 1823 0
v -352 1759 0
v -128 1727 0
v -128 1759 0
v -256 1759 0
v -256 1727 0
v -96 607 0
v -96 671 0
v -160 671 0
v -160 607 0
v -1984 1439 0
v -1984 1567 0
v -1995 1567 0
v -1995 1439 0
v -1984 1311 0
v -1984 1439 0
v -1995 1439 0
v -1995 1311 0
v -1600 1759 0
v -1600 1791 0
v -1728 1791 0
v -1728 1759 0
v -1440 1887 0
v -1440 1983 0
v -1472 1983 0
v -1472 1887 0
v -1728 1759 0
v -1728 1791 0
v -1824 1791 0
v -1824 1759 0
v -256 1727 0
v -256 1759 0
v -352 1759 0
v -352 1727 0
v -192 479 0
v -192 511 0
v -256 511 0
v -256 479 0
v -1472 1823 0
v -1472 1855 0
v -1536 1855 0
v -1536 1823 0
v -448 1887 0
v -448 1919 0
v -512 1919 0
v -512 1887 0
v -288 383 0
v -288 415 0
v -352 415 0
v -352 383 0
v -64 703 0
v -64 767 0
v -96 767 0
v -96 703 0
v -32 1727 0
v -32 1759 0
v -96 1759 0
v -96 1727 0
v -1216 95 0
v -1216 127 0
v -1280 127 0
v -1280 95 0
v -1792 607 0
v -1792 671 0
v -1824 671 0
v -1824 607 0
v -384 95 0
v -384 127 0
v -448 127 0
v -448 95 0
v -192 1983 0
v -192 2015 0
v -256 2015 0
v -256 1983 0
v -1440 1823 0
v -1440 1887 0
v -1472 1887 0
v -1472 1823 0
v -160 1823 0
v -160 1887 0
v -192 1887 0
v -192 1823 0
v -160 1759 0
v -160 1823 0
v -192 1823 0
v -192 1759 0
v -320 1887 0
v -320 1919 0
v -384 1919 0
v -384 1887 0
v -1696 1887 0
v -1696 1919 0
v -1760 1919 0
v -1760 1887 0
v -32 1919 0
v -32 1951 0
v -96 1951 0
v -96 1919 0
v -1952 1727 0
v -1952 1759 0
v -1984 1759 0
v -1984 1727 0
v -192 1759 0
v -192 1791 0
v -224 1791 0
v -224 1759 0
v -1664 1855 0
v -1664 1887 0
v -1696 1887 0
v -1696 1855 0
v -1696 191 0
v -1696 223 0
v -1728 223 0
v -1728 191 0
v -320 351 0
v -320 383 0
v -352 383 0
v -352 351 0
v -1216 63 0
v -1216 95 0
v -1248 95 0
v -1248 63 0
v -448 63 0
v -448 95 0
v -480 95 0
v -480 63 0
v -1920 1183 0
v -1920 1215 0
v -1952 1215 0
v -1952 1183 0
v -1984 1663 0
v -1984 1695 0
v -1995 1695 0
v -1995 1663 0
v -224 447 0
v -224 479 0
v -256 479 0
v -256 447 0
v -128 575 0
v -128 607 0
v -160 607 0
v -160 575 0
v -1472 1855 0
v -1472 1887 0
v -1504 1887 0
v -1504 1855 0
v -512 1887 0
v -512 1919 0
v -544 1919 0
v -544 1887 0
v -1536 1823 0
v -1536 1855 0
v -1568 1855 0
v -1568 1823 0
v -384 1887 0
v -384 1919 0
v -416 1919 0
v -416 1887 0
v -256 1983 0
v -256 2015 0
v -288 2015 0
v -288 1983 0
v -96 1919 0
v -96 1951 0
v -128 1951 0
v -128 1919 0
v -64 671 0
v -64 703 0
v -96 703 0
v -96 671 0
v -320 1919 0
v -320 1951 0
v -352 1951 0
v -352 1919 0
v -512 1919 0
v -512 1951 0
v -544 1951 0
v -544 1919 0
v -640 1983 0
v -640 2015 0
v -672 2015 0
v -672 1983 0
v -448 95 0
v -448 127 0
v -480 127 0
v -480 95 0
v -1280 95 0
v -1280 127 0
v -1312 127 0
v -1312 95 0
vt 0.00048828125 0.000563085079
vt 0.00048828125 0.48704952
vt 0.609863281 0.48704952
vt 0.609863281 0.000563085079
vt 0.00048828125 0.48817569
vt 0.00048828125 0.956644118
vt 0.609863281 0.956644118
vt 0.609863281 0.48817569
vt 0.610839844 0.000563085079
vt 0.610839844 0.270833313
vt 0.767089844 0.270833313
vt 0.767089844 0.000563085079
vt 0.768066406 0.000563085079
vt 0.768066406 0.270833313
vt 0.924316406 0.270833313
vt 0.924316406 0.000563085079
vt 0.610839844 0.271959484
vt 0.610839844 0.560247779
vt 0.751464844 0.560247779
vt 0.751464844 0.271959484
vt 0.752441406 0.271959484
vt 0.752441406 0.542229772
vt 0.893066406 0.542229772
vt 0.893066406 0.271959484
vt 0.752441406 0.543355823
vt 0.752441406 0.669481993
vt 0.939941406 0.669481993
vt 0.939941406 0.543355823
vt 0.752441406 0.670608103
vt 0.752441406 0.796734214
vt 0.939941406 0.796734214
vt 0.939941406 0.670608103
vt 0.610839844 0.56137383
vt 0.610839844 0.705518007
vt 0.704589844 0.705518007
vt 0.704589844 0.56137383
vt 0.752441406 0.797860384
vt 0.752441406 0.851914406
vt 0.939941406 0.851914406
vt 0.939941406 0.797860384
vt 0.752441406 0.853040576
vt 0.752441406 0.907094598
vt 0.924316406 0.907094598
vt 0.924316406 0.853040576
vt 0.940917969 0.000563085079
vt 0.940917969 0.180743217
vt 0.987792969 0.180743217
vt 0.987792969 0.000563085079
vt 0.940917969 0.181869388
vt 0.940917969 0.344031513
vt 0.987792969 0.344031513
vt 0.987792969 0.181869388
vt 0.940917969 0.345157683
vt 0.940917969 0.489301801
vt 0.987792969 0.489301801
vt 0.987792969 0.345157683
vt 0.940917969 0.490427911
vt 0.940917969 0.634572029
vt 0.987792969 0.634572029
vt 0.987792969 0.490427911
vt 0.610839844 0.706644177
vt 0.610839844 0.796734214
vt 0.673339844 0.796734214
vt 0.673339844 0.706644177
vt 0.940917969 0.635698199
vt 0.940917969 0.743806303
vt 0.987792969 0.743806303
vt 0.987792969 0.635698199
vt 0.705566406 0.56137383
vt 0.705566406 0.867680192
vt 0.721191406 0.867680192
vt 0.721191406 0.56137383
vt 0.722167969 0.56137383
vt 0.722167969 0.849662185
vt 0.737792969 0.849662185
vt 0.737792969 0.56137383
vt 0.752441406 0.908220708
vt 0.752441406 0.944256783
vt 0.861816406 0.944256783
vt 0.861816406 0.908220708
vt 0.610839844 0.797860384
vt 0.610839844 0.851914406
vt 0.673339844 0.851914406
vt 0.673339844 0.797860384
vt 0.610839844 0.853040576
vt 0.610839844 0.889076591
vt 0.704589844 0.889076591
vt 0.704589844 0.853040576
vt 0.940917969 0.744932413
vt 0.940917969 0.853040576
vt 0.972167969 0.853040576
vt 0.972167969 0.744932413
vt 0.940917969 0.854166687
vt 0.940917969 0.944256783
vt 0.972167969 0.944256783
vt 0.972167969 0.854166687
vt 0.610839844 0.890202701
vt 0.610839844 0.944256783
vt 0.657714844 0.944256783
vt 0.657714844 0.890202701
vt 0.610839844 0.945382893
vt 0.610839844 0.9634009
vt 0.751464844 0.9634009
vt 0.751464844 0.945382893
vt 0.862792969 0.908220708
vt 0.862792969 0.96227479
vt 0.909667969 0.96227479
vt 0.909667969 0.908220708
vt 0.00048828125 0.957770288
vt 0.00048828125 0.975788295
vt 0.125488281 0.975788295
vt 0.125488281 0.957770288
vt 0.752441406 0.945382893
vt 0.752441406 0.999436915
vt 0.783691406 0.999436915
vt 0.783691406 0.945382893
vt 0.973144531 0.744932413
vt 0.973144531 0.853040576
vt 0.988769531 0.853040576
vt 0.988769531 0.744932413
vt 0.784667969 0.945382893
vt 0.784667969 0.999436915
vt 0.815917969 0.999436915
vt 0.815917969 0.945382893
vt 0.973144531 0.854166687
vt 0.973144531 0.944256783
vt 0.988769531 0.944256783
vt 0.988769531 0.854166687
vt 0.816894531 0.945382893
vt 0.816894531 0.981418908
vt 0.848144531 0.981418908
vt 0.848144531 0.945382893
vt 0.126464844 0.957770288
vt 0.126464844 0.975788295
vt 0.188964844 0.975788295
vt 0.188964844 0.957770288
vt 0.940917969 0.945382893
vt 0.940917969 0.981418908
vt 0.972167969 0.981418908
vt 0.972167969 0.945382893
vt 0.989746094 0.000563085079
vt 0.989746094 0.0726351142
vt 0.995605469 0.0726351142
vt 0.995605469 0.000563085079
vt 0.989746094 0.0737612844
vt 0.989746094 0.145833313
vt 0.995605469 0.145833313
vt 0.995605469 0.0737612844
vt 0.189941406 0.957770288
vt 0.189941406 0.975788295
vt 0.252441406 0.975788295
vt 0.252441406 0.957770288
vt 0.910644531 0.908220708
vt 0.910644531 0.96227479
vt 0.926269531 0.96227479
vt 0.926269531 0.908220708
vt 0.253417969 0.957770288
vt 0.253417969 0.975788295
vt 0.300292969 0.975788295
vt 0.300292969 0.957770288
vt 0.301269531 0.957770288
vt 0.301269531 0.975788295
vt 0.348144531 0.975788295
vt 0.348144531 0.957770288
vt 0.349121094 0.957770288
vt 0.349121094 0.975788295
vt 0.380371094 0.975788295
vt 0.380371094 0.957770288
vt 0.381347656 0.957770288
vt 0.381347656 0.975788295
vt 0.412597656 0.975788295
vt 0.412597656 0.957770288
vt 0.413574219 0.957770288
vt 0.413574219 0.975788295
vt 0.444824219 0.975788295
vt 0.444824219 0.957770288
vt 0.445800781 0.957770288
vt 0.445800781 0.975788295
vt 0.477050781 0.975788295
vt 0.477050781 0.957770288
vt 0.973144531 0.945382893
vt 0.973144531 0.981418908
vt 0.988769531 0.981418908
vt 0.988769531 0.945382893
vt 0.478027344 0.957770288
vt 0.478027344 0.975788295
vt 0.509277344 0.975788295
vt 0.509277344 0.957770288
vt 0.510253906 0.957770288
vt 0.510253906 0.975788295
vt 0.541503906 0.975788295
vt 0.541503906 0.957770288
vt 0.542480469 0.957770288
vt 0.542480469 0.993806303
vt 0.558105469 0.993806303
vt 0.558105469 0.957770288
vt 0.559082031 0.957770288
vt 0.559082031 0.975788295
vt 0.590332031 0.975788295
vt 0.590332031 0.957770288
vt 0.862792969 0.9634009
vt 0.862792969 0.981418908
vt 0.894042969 0.981418908
vt 0.894042969 0.9634009
vt 0.591308594 0.957770288
vt 0.591308594 0.993806303
vt 0.606933594 0.993806303
vt 0.606933594 0.957770288
vt 0.895019531 0.9634009
vt 0.895019531 0.999436915
vt 0.910644531 0.999436915
vt 0.910644531 0.9634009
vt 0.911621094 0.9634009
vt 0.911621094 0.999436915
vt 0.927246094 0.999436915
vt 0.927246094 0.9634009
vt 0.610839844 0.964527011
vt 0.610839844 0.982545018
vt 0.642089844 0.982545018
vt 0.642089844 0.964527011
vt 0.643066406 0.964527011
vt 0.643066406 0.982545018
vt 0.674316406 0.982545018
vt 0.674316406 0.964527011
vt 0.675292969 0.964527011
vt 0.675292969 0.982545018
vt 0.706542969 0.982545018
vt 0.706542969 0.964527011
vt 0.707519531 0.964527011
vt 0.707519531 0.982545018
vt 0.723144531 0.982545018
vt 0.723144531 0.964527011
vt 0.724121094 0.964527011
vt 0.724121094 0.982545018
vt 0.739746094 0.982545018
vt 0.739746094 0.964527011
vt 0.00048828125 0.976914406
vt 0.00048828125 0.994932413
vt 0.0161132812 0.994932413
vt 0.0161132812 0.976914406
vt 0.0170898438 0.976914406
vt 0.0170898438 0.994932413
vt 0.0327148438 0.994932413
vt 0.0327148438 0.976914406
vt 0.0336914062 0.976914406
vt 0.0336914062 0.994932413
vt 0.0493164062 0.994932413
vt 0.0493164062 0.976914406
vt 0.0502929688 0.976914406
vt 0.0502929688 0.994932413
vt 0.0659179688 0.994932413
vt 0.0659179688 0.976914406
vt 0.0668945312 0.976914406
vt 0.0668945312 0.994932413
vt 0.0825195312 0.994932413
vt 0.0825195312 0.976914406
vt 0.0834960938 0.976914406
vt 0.0834960938 0.994932413
vt 0.0991210938 0.994932413
vt 0.0991210938 0.976914406
vt 0.989746094 0.146959484
vt 0.989746094 0.164977491
vt 0.995605469 0.164977491
vt 0.995605469 0.146959484
vt 0.100097656 0.976914406
vt 0.100097656 0.994932413
vt 0.115722656 0.994932413
vt 0.115722656 0.976914406
vt 0.116699219 0.976914406
vt 0.116699219 0.994932413
vt 0.132324219 0.994932413
vt 0.132324219 0.976914406
vt 0.133300781 0.976914406
vt 0.133300781 0.994932413
vt 0.148925781 0.994932413
vt 0.148925781 0.976914406
vt 0.149902344 0.976914406
vt 0.149902344 0.994932413
vt 0.165527344 0.994932413
vt 0.165527344 0.976914406
vt 0.166503906 0.976914406
vt 0.166503906 0.994932413
vt 0.182128906 0.994932413
vt 0.182128906 0.976914406
vt 0.183105469 0.976914406
vt 0.183105469 0.994932413
vt 0.198730469 0.994932413
vt 0.198730469 0.976914406
vt 0.199707031 0.976914406
vt 0.199707031 0.994932413
vt 0.215332031 0.994932413
vt 0.215332031 0.976914406
vt 0.216308594 0.976914406
vt 0.216308594 0.994932413
vt 0.231933594 0.994932413
vt 0.231933594 0.976914406
vt 0.232910156 0.976914406
vt 0.232910156 0.994932413
vt 0.248535156 0.994932413
vt 0.248535156 0.976914406
vt 0.249511719 0.976914406
vt 0.249511719 0.994932413
vt 0.265136719 0.994932413
vt 0.265136719 0.976914406
vt 0.266113281 0.976914406
vt 0.266113281 0.994932413
vt 0.281738281 0.994932413
vt 0.281738281 0.976914406
vt 0.282714844 0.976914406
vt 0.282714844 0.994932413
vt 0.298339844 0.994932413
vt 0.298339844 0.976914406
vt 0.299316406 0.976914406
vt 0.299316406 0.994932413
vt 0.314941406 0.994932413
vt 0.314941406 0.976914406
vt 0.315917969 0.976914406
vt 0.315917969 0.994932413
vt 0.331542969 0.994932413
vt 0.331542969 0.976914406
g daiduo_idol-mesh_0
f 3/3/3 2/2/2 1/1/1
f 1/1/1 4/4/4 3/3/3
f 7/7/7 6/6/6 5/5/5
f 5/5/5 8/8/8 7/7/7
f 11/11/11 10/10/10 9/9/9
f 9/9/9 12/12/12 11/11/11
f 15/15/15 14/14/14 13/13/13
f 13/13/13 16/16/16 15/15/15
f 19/19/19 18/18/18 17/17/17
f 17/17/17 20/20/20 19/19/19
f 23/23/23 22/22/22 21/21/21
f 21/21/21 24/24/24 23/23/23
f 27/27/27 26/26/26 25/25/25
f 25/25/25 28/28/28 27/27/27
f 31/31/31 30/30/30 29/29/29
f 29/29/29 32/32/32 31/31/31
f 35/35/35 34/34/34 33/33/33
f 33/33/33 36/36/36 35/35/35
f 39/39/39 38/38/38 37/37/37
f 37/37/37 40/40/40 39/39/39
f 43/43/43 42/42/42 41/41/41
f 41/41/41 44/44/44 43/43/43
f 47/47/47 46/46/46 45/45/45
f 45/45/45 48/48/48 47/47/47
f 51/51/51 50/50/50 49/49/49
f 49/49/49 52/52/52 51/51/51
f 55/55/55 54/54/54 53/53/53
f 53/53/53 56/56/56 55/55/55
f 59/59/59 58/58/58 57/57/57
f 57/57/57 60/60/60 59/59/59
f 63/63/63 62/62/62 61/61/61
f 61/61/61 64/64/64 63/63/63
f 67/67/67 66/66/66 65/65/65
f 65/65/65 68/68/68 67/67/67
f 71/71/71 70/70/70 69/69/69
f 69/69/69 72/72/72 71/71/71
f 75/75/75 74/74/74 73/73/73
f 73/73/73 76/76/76 75/75/75
f 79/79/79 78/78/78 77/77/77
f 77/77/77 80/80/80 79/79/79
f 83/83/83 82/82/82 81/81/81
f 81/81/81 84/84/84 83/83/83
f 87/87/87 86/86/86 85/85/85
f 85/85/85 88/88/88 87/87/87
f 91/91/91 90/90/90 89/89/89
f 89/89/89 92/92/92 91/91/91
f 95/95/95 94/94/94 93/93/93
f 93/93/93 96/96/96 95/95/95
f 99/99/99 98/98/98 97/97/97
f 97/97/97 100/100/100 99/99/99
f 103/103/103 102/102/102 101/101/101
f 101/101/101 104/104/104 103/103/103
f 107/107/107 106/106/106 105/105/105
f 105/105/105 108/108/108 107/107/107
f 111/111/111 110/110/110 109/109/109
f 109/109/109 112/112/112 111/111/111
f 115/115/115 114/114/114 113/113/113
f 113/113/113 116/116/116 115/115/115
f 119/119/119 118/118/118 117/117/117
f 117/117/117 120/120/120 119/119/119
f 123/123/123 122/122/122 121/121/121
f 121/121/121 124/124/124 123/123/123
f 127/127/127 126/126/126 125/125/125
f 125/125/125 128/128/128 127/127/127
f 131/131/131 130/130/130 129/129/129
f 129/129/129 132/132/132 131/131/131
f 135/135/135 134/134/134 133/133/133
f 133/133/133 136/136/136 135/135/135
f 139/139/139 138/138/138 137/137/137
f 137/137/137 140/140/140 139/139/139
f 143/143/143 142/142/142 141/141/141
f 141/141/141 144/144/144 143/143/143
f 147/147/147 146/146/146 145/145/145
f 145/145/145 148/148/148 147/147/147
f 151/151/151 150/150/150 149/149/149
f 149/149/149 152/152/152 151/151/151
f 155/155/155 154/154/154 153/153/153
f 153/153/153 156/156/156 155/155/155
f 159/159/159 158/158/158 157/157/157
f 157/157/157 160/160/160 159/159/159
f 163/163/163 162/162/162 161/161/161
f 161/161/161 164/164/164 163/163/163
f 167/167/167 166/166/166 165/165/165
f 165/165/165 168/168/168 167/167/167
f 171/171/171 170/170/170 169/169/169
f 169/169/169 172/172/172 171/171/171
f 175/175/175 174/174/174 173/173/173
f 173/173/173 176/176/176 175/175/175
f 179/179/179 178/178/178 177/177/177
f 177/177/177 180/180/180 179/179/179
f 183/183/183 182/182/182 181/181/181
f 181/181/181 184/184/184 183/183/183
f 187/187/187 186/186/186 185/185/185
f 185/185/185 188/188/188 187/187/187
f 191/191/191 190/190/190 189/189/189
f 189/189/189 192/192/192 191/191/191
f 195/195/195 194/194/194 193/193/193
f 193/193/193 196/196/196 195/195/195
f 199/199/199 198/198/198 197/197/197
f 197/197/197 200/200/200 199/199/199
f 203/203/203 202/202/202 201/201/201
f 201/201/201 204/204/204 203/203/203
f 207/207/207 206/206/206 205/205/205
f 205/205/205 208/208/208 207/207/207
f 211/211/211 210/210/210 209/209/209
f 209/209/209 212/212/212 211/211/211
f 215/215/215 214/214/214 213/213/213
f 213/213/213 216/216/216 215/215/215
f 219/219/219 218/218/218 217/217/217
f 217/217/217 220/220/220 219/219/219
f 223/223/223 222/222/222 221/221/221
f 221/221/221 224/224/224 223/223/223
f 227/227/227 226/226/226 225/225/225
f 225/225/225 228/228/228 227/227/227
f 231/231/231 230/230/230 229/229/229
f 229/229/229 232/232/232 231/231/231
f 235/235/235 234/234/234 233/233/233
f 233/233/233 236/236/236 235/235/235
f 239/239/239 238/238/238 237/237/237
f 237/237/237 240/240/240 239/239/239
f 243/243/243 242/242/242 241/241/241
f 241/241/241 244/244/244 243/243/243
f 247/247/247 246/246/246 245/245/245
f 245/245/245 248/248/248 247/247/247
f 251/251/251 250/250/250 249/249/249
f 249/249/249 252/252/252 251/251/251
f 255/255/255 254/254/254 253/253/253
f 253/253/253 256/256/256 255/255/255
f 259/259/259 258/258/258 257/257/257
f 257/257/257 260/260/260 259/259/259
f 263/263/263 262/262/262 261/261/261
f 261/261/261 264/264/264 263/263/263
f 267/267/267 266/266/266 265/265/265
f 265/265/265 268/268/268 267/267/267
f 271/271/271 270/270/270 269/269/269
f 269/269/269 272/272/272 271/271/271
f 275/275/275 274/274/274 273/273/273
f 273/273/273 276/276/276 275/275/275
f 279/279/279 278/278/278 277/277/277
f 277/277/277 280/280/280 279/279/279
f 283/283/283 282/282/282 281/281/281
f 281/281/281 284/284/284 283/283/283
f 287/287/287 286/286/286 285/285/285
f 285/285/285 288/288/288 287/287/287
f 291/291/291 290/290/290 289/289/289
f 289/289/289 292/292/292 291/291/291
f 295/295/295 294/294/294 293/293/293
f 293/293/293 296/296/296 295/295/295
f 299/299/299 298/298/298 297/297/297
f 297/297/297 300/300/300 299/299/299
f 303/303/303 302/302/302 301/301/301
f 301/301/301 304/304/304 303/303/303
f 307/307/307 306/306/306 305/305/305
f 305/305/305 308/308/308 307/307/307
f 311/311/311 310/310/310 309/309/309
f 309/309/309 312/312/312 311/311/311
f 315/315/315 314/314/314 313/313/313
f 313/313/313 316/316/316 315/315/315
f 319/319/319 318/318/318 317/317/317
f 317/317/317 320/320/320 319/319/319
