g jianwu_4_bj-mesh
v -1600 567 0
v -1600 1175 0
v -2047 1175 0
v -2047 567 0
v -1600 0 0
v -1600 567 0
v -2047 567 0
v -2047 0 0
v -800 951 0
v -800 1175 0
v -1600 1175 0
v -1600 951 0
v -0 951 0
v -0 1175 0
v -800 1175 0
v -800 951 0
v -160 0 0
v -160 279 0
v -544 279 0
v -544 0 0
v -160 279 0
v -160 567 0
v -544 567 0
v -544 279 0
v -1088 0 0
v -1088 151 0
v -1600 151 0
v -1600 0 0
v -576 0 0
v -576 151 0
v -1088 151 0
v -1088 0 0
v -64 567 0
v -64 951 0
v -256 951 0
v -256 567 0
v -544 247 0
v -544 439 0
v -768 439 0
v -768 247 0
v -672 471 0
v -672 599 0
v -960 599 0
v -960 471 0
v -1056 823 0
v -1056 951 0
v -1248 951 0
v -1248 823 0
v -1248 823 0
v -1248 951 0
v -1440 951 0
v -1440 823 0
v -512 695 0
v -512 791 0
v -704 791 0
v -704 695 0
v -256 567 0
v -256 695 0
v -384 695 0
v -384 567 0
v -64 215 0
v -64 471 0
v -128 471 0
v -128 215 0
v -800 375 0
v -800 471 0
v -960 471 0
v -960 375 0
v -1504 791 0
v -1504 951 0
v -1600 951 0
v -1600 791 0
v -256 855 0
v -256 951 0
v -416 951 0
v -416 855 0
v -64 0 0
v -64 215 0
v -128 215 0
v -128 0 0
v -608 887 0
v -608 951 0
v -800 951 0
v -800 887 0
v -416 887 0
v -416 951 0
v -608 951 0
v -608 887 0
v -544 471 0
v -544 567 0
v -672 567 0
v -672 471 0
v -1152 375 0
v -1152 471 0
v -1280 471 0
v -1280 375 0
v -1216 151 0
v -1216 183 0
v -1600 183 0
v -1600 151 0
v -832 151 0
v -832 183 0
v -1216 183 0
v -1216 151 0
v -0 791 0
v -0 951 0
v -64 951 0
v -64 791 0
v -0 631 0
v -0 791 0
v -64 791 0
v -64 631 0
v -608 151 0
v -608 247 0
v -704 247 0
v -704 151 0
v -1440 407 0
v -1440 471 0
v -1536 471 0
v -1536 407 0
v -1024 343 0
v -1024 439 0
v -1088 439 0
v -1088 343 0
v -768 247 0
v -768 343 0
v -832 343 0
v -832 247 0
v -1056 183 0
v -1056 279 0
v -1120 279 0
v -1120 183 0
v -1568 375 0
v -1568 567 0
v -1600 567 0
v -1600 375 0
v -992 439 0
v -992 535 0
v -1056 535 0
v -1056 439 0
v -992 535 0
v -992 631 0
v -1056 631 0
v -1056 535 0
v -1568 183 0
v -1568 375 0
v -1600 375 0
v -1600 183 0
v -1344 407 0
v -1344 471 0
v -1440 471 0
v -1440 407 0
v -1088 791 0
v -1088 823 0
v -1248 823 0
v -1248 791 0
v -32 311 0
v -32 471 0
v -64 471 0
v -64 311 0
v -800 183 0
v -800 247 0
v -864 247 0
v -864 183 0
v -1440 791 0
v -1440 855 0
v -1504 855 0
v -1504 791 0
v -1440 887 0
v -1440 951 0
v -1504 951 0
v -1504 887 0
v -32 183 0
v -32 311 0
v -64 311 0
v -64 183 0
v -1248 791 0
v -1248 823 0
v -1376 823 0
v -1376 791 0
v -1024 279 0
v -1024 343 0
v -1088 343 0
v -1088 279 0
v -128 0 0
v -128 119 0
v -160 119 0
v -160 0 0
v -128 119 0
v -128 247 0
v -160 247 0
v -160 119 0
v -832 599 0
v -832 631 0
v -928 631 0
v -928 599 0
v -576 791 0
v -576 823 0
v -672 823 0
v -672 791 0
v -128 375 0
v -128 471 0
v -160 471 0
v -160 375 0
v -1152 183 0
v -1152 215 0
v -1248 215 0
v -1248 183 0
v -128 471 0
v -128 567 0
v -160 567 0
v -160 471 0
v -1248 183 0
v -1248 215 0
v -1344 215 0
v -1344 183 0
v -544 439 0
v -544 471 0
v -608 471 0
v -608 439 0
v -1472 183 0
v -1472 215 0
v -1536 215 0
v -1536 183 0
v -960 535 0
v -960 599 0
v -992 599 0
v -992 535 0
v -992 919 0
v -992 951 0
v -1056 951 0
v -1056 919 0
v -704 727 0
v -704 791 0
v -736 791 0
v -736 727 0
v -256 695 0
v -256 727 0
v -320 727 0
v -320 695 0
v -832 279 0
v -832 343 0
v -864 343 0
v -864 279 0
v -544 215 0
v -544 247 0
v -608 247 0
v -608 215 0
v -0 0 0
v -0 23 0
v -64 23 0
v -64 0 0
v -1120 375 0
v -1120 439 0
v -1152 439 0
v -1152 375 0
v -1280 375 0
v -1280 439 0
v -1312 439 0
v -1312 375 0
v -1344 375 0
v -1344 407 0
v -1408 407 0
v -1408 375 0
v -0 407 0
v -0 471 0
v -32 471 0
v -32 407 0
v -448 567 0
v -448 599 0
v -512 599 0
v -512 567 0
v -928 599 0
v -928 631 0
v -992 631 0
v -992 599 0
v -544 0 0
v -544 55 0
v -576 55 0
v -576 0 0
v -800 919 0
v -800 951 0
v -864 951 0
v -864 919 0
v -864 919 0
v -864 951 0
v -928 951 0
v -928 919 0
v -384 567 0
v -384 599 0
v -448 599 0
v -448 567 0
v -1408 471 0
v -1408 503 0
v -1472 503 0
v -1472 471 0
v -544 55 0
v -544 119 0
v -576 119 0
v -576 55 0
v -1568 727 0
v -1568 791 0
v -1600 791 0
v -1600 727 0
v -672 791 0
v -672 823 0
v -736 823 0
v -736 791 0
v -1536 759 0
v -1536 791 0
v -1568 791 0
v -1568 759 0
v -1152 759 0
v -1152 791 0
v -1184 791 0
v -1184 759 0
v -0 599 0
v -0 631 0
v -32 631 0
v -32 599 0
v -768 343 0
v -768 375 0
v -800 375 0
v -800 343 0
v -96 535 0
v -96 567 0
v -128 567 0
v -128 535 0
v -1536 215 0
v -1536 247 0
v -1568 247 0
v -1568 215 0
v -1408 791 0
v -1408 823 0
v -1440 823 0
v -1440 791 0
v -0 375 0
v -0 407 0
v -32 407 0
v -32 375 0
v -1472 471 0
v -1472 503 0
v -1504 503 0
v -1504 471 0
v -1568 695 0
v -1568 727 0
v -1600 727 0
v -1600 695 0
v -256 823 0
v -256 855 0
v -288 855 0
v -288 823 0
v -1024 887 0
v -1024 919 0
v -1056 919 0
v -1056 887 0
v -1536 183 0
v -1536 215 0
v -1568 215 0
v -1568 183 0
vt 0.00048828125 0.000945150852
vt 0.00048828125 0.575614333
vt 0.219238281 0.575614333
vt 0.219238281 0.000945150852
vt 0.220214844 0.000945150852
vt 0.220214844 0.537807226
vt 0.438964844 0.537807226
vt 0.438964844 0.000945150852
vt 0.439941406 0.000945150852
vt 0.439941406 0.212665379
vt 0.830566406 0.212665379
vt 0.830566406 0.000945150852
vt 0.439941406 0.21455574
vt 0.439941406 0.426275969
vt 0.830566406 0.426275969
vt 0.830566406 0.21455574
vt 0.439941406 0.42816633
vt 0.439941406 0.692816615
vt 0.627441406 0.692816615
vt 0.627441406 0.42816633
vt 0.628417969 0.42816633
vt 0.628417969 0.70037806
vt 0.815917969 0.70037806
vt 0.815917969 0.42816633
vt 0.00048828125 0.577504754
vt 0.00048828125 0.721172035
vt 0.250488281 0.721172035
vt 0.250488281 0.577504754
vt 0.628417969 0.702268422
vt 0.628417969 0.845935702
vt 0.878417969 0.845935702
vt 0.878417969 0.702268422
vt 0.879394531 0.000945150852
vt 0.879394531 0.363894165
vt 0.973144531 0.363894165
vt 0.973144531 0.000945150852
vt 0.879394531 0.365784526
vt 0.879394531 0.547258973
vt 0.988769531 0.547258973
vt 0.988769531 0.365784526
vt 0.251464844 0.539697528
vt 0.251464844 0.660680532
vt 0.392089844 0.660680532
vt 0.392089844 0.539697528
vt 0.879394531 0.549149334
vt 0.879394531 0.670132339
vt 0.973144531 0.670132339
vt 0.973144531 0.549149334
vt 0.251464844 0.662570894
vt 0.251464844 0.783553839
vt 0.345214844 0.783553839
vt 0.345214844 0.662570894
vt 0.879394531 0.6720227
vt 0.879394531 0.762759924
vt 0.973144531 0.762759924
vt 0.973144531 0.6720227
vt 0.346191406 0.662570894
vt 0.346191406 0.783553839
vt 0.408691406 0.783553839
vt 0.408691406 0.662570894
vt 0.439941406 0.694707036
vt 0.439941406 0.936672986
vt 0.471191406 0.936672986
vt 0.471191406 0.694707036
vt 0.472167969 0.694707036
vt 0.472167969 0.78544426
vt 0.550292969 0.78544426
vt 0.550292969 0.694707036
vt 0.551269531 0.694707036
vt 0.551269531 0.845935702
vt 0.598144531 0.845935702
vt 0.598144531 0.694707036
vt 0.00048828125 0.723062396
vt 0.00048828125 0.81379962
vt 0.0786132812 0.81379962
vt 0.0786132812 0.723062396
vt 0.0795898438 0.723062396
vt 0.0795898438 0.927221179
vt 0.110839844 0.927221179
vt 0.110839844 0.723062396
vt 0.111816406 0.723062396
vt 0.111816406 0.783553839
vt 0.205566406 0.783553839
vt 0.205566406 0.723062396
vt 0.879394531 0.764650285
vt 0.879394531 0.825141788
vt 0.973144531 0.825141788
vt 0.973144531 0.764650285
vt 0.111816406 0.78544426
vt 0.111816406 0.876181483
vt 0.174316406 0.876181483
vt 0.174316406 0.78544426
vt 0.175292969 0.78544426
vt 0.175292969 0.876181483
vt 0.237792969 0.876181483
vt 0.237792969 0.78544426
vt 0.251464844 0.78544426
vt 0.251464844 0.815689981
vt 0.438964844 0.815689981
vt 0.438964844 0.78544426
vt 0.251464844 0.817580342
vt 0.251464844 0.847826123
vt 0.438964844 0.847826123
vt 0.438964844 0.817580342
vt 0.472167969 0.787334561
vt 0.472167969 0.938563347
vt 0.503417969 0.938563347
vt 0.503417969 0.787334561
vt 0.504394531 0.787334561
vt 0.504394531 0.938563347
vt 0.535644531 0.938563347
vt 0.535644531 0.787334561
vt 0.00048828125 0.815689981
vt 0.00048828125 0.906427205
vt 0.0473632812 0.906427205
vt 0.0473632812 0.815689981
vt 0.879394531 0.827032149
vt 0.879394531 0.887523651
vt 0.926269531 0.887523651
vt 0.926269531 0.827032149
vt 0.927246094 0.827032149
vt 0.927246094 0.917769372
vt 0.958496094 0.917769372
vt 0.958496094 0.827032149
vt 0.959472656 0.827032149
vt 0.959472656 0.917769372
vt 0.990722656 0.917769372
vt 0.990722656 0.827032149
vt 0.551269531 0.847826123
vt 0.551269531 0.938563347
vt 0.582519531 0.938563347
vt 0.582519531 0.847826123
vt 0.599121094 0.694707036
vt 0.599121094 0.876181483
vt 0.614746094 0.876181483
vt 0.614746094 0.694707036
vt 0.628417969 0.847826123
vt 0.628417969 0.938563347
vt 0.659667969 0.938563347
vt 0.659667969 0.847826123
vt 0.660644531 0.847826123
vt 0.660644531 0.938563347
vt 0.691894531 0.938563347
vt 0.691894531 0.847826123
vt 0.0483398438 0.815689981
vt 0.0483398438 0.997164488
vt 0.0639648438 0.997164488
vt 0.0639648438 0.815689981
vt 0.692871094 0.847826123
vt 0.692871094 0.908317566
vt 0.739746094 0.908317566
vt 0.739746094 0.847826123
vt 0.740722656 0.847826123
vt 0.740722656 0.878071845
vt 0.818847656 0.878071845
vt 0.818847656 0.847826123
vt 0.819824219 0.847826123
vt 0.819824219 0.999054849
vt 0.835449219 0.999054849
vt 0.835449219 0.847826123
vt 0.836425781 0.847826123
vt 0.836425781 0.908317566
vt 0.867675781 0.908317566
vt 0.867675781 0.847826123
vt 0.251464844 0.849716425
vt 0.251464844 0.910207927
vt 0.282714844 0.910207927
vt 0.282714844 0.849716425
vt 0.283691406 0.849716425
vt 0.283691406 0.910207927
vt 0.314941406 0.910207927
vt 0.314941406 0.849716425
vt 0.315917969 0.849716425
vt 0.315917969 0.97069943
vt 0.331542969 0.97069943
vt 0.331542969 0.849716425
vt 0.332519531 0.849716425
vt 0.332519531 0.879962206
vt 0.395019531 0.879962206
vt 0.395019531 0.849716425
vt 0.395996094 0.849716425
vt 0.395996094 0.910207927
vt 0.427246094 0.910207927
vt 0.427246094 0.849716425
vt 0.111816406 0.878071845
vt 0.111816406 0.991493404
vt 0.127441406 0.991493404
vt 0.127441406 0.878071845
vt 0.128417969 0.878071845
vt 0.128417969 0.999054849
vt 0.144042969 0.999054849
vt 0.144042969 0.878071845
vt 0.145019531 0.878071845
vt 0.145019531 0.908317566
vt 0.191894531 0.908317566
vt 0.191894531 0.878071845
vt 0.192871094 0.878071845
vt 0.192871094 0.908317566
vt 0.239746094 0.908317566
vt 0.239746094 0.878071845
vt 0.599121094 0.878071845
vt 0.599121094 0.968809068
vt 0.614746094 0.968809068
vt 0.614746094 0.878071845
vt 0.740722656 0.879962206
vt 0.740722656 0.910207927
vt 0.787597656 0.910207927
vt 0.787597656 0.879962206
vt 0.788574219 0.879962206
vt 0.788574219 0.97069943
vt 0.804199219 0.97069943
vt 0.804199219 0.879962206
vt 0.332519531 0.881852567
vt 0.332519531 0.912098289
vt 0.379394531 0.912098289
vt 0.379394531 0.881852567
vt 0.879394531 0.889414012
vt 0.879394531 0.919659734
vt 0.910644531 0.919659734
vt 0.910644531 0.889414012
vt 0.00048828125 0.908317566
vt 0.00048828125 0.938563347
vt 0.0317382812 0.938563347
vt 0.0317382812 0.908317566
vt 0.145019531 0.910207927
vt 0.145019531 0.97069943
vt 0.160644531 0.97069943
vt 0.160644531 0.910207927
vt 0.161621094 0.910207927
vt 0.161621094 0.940453708
vt 0.192871094 0.940453708
vt 0.192871094 0.910207927
vt 0.193847656 0.910207927
vt 0.193847656 0.97069943
vt 0.209472656 0.97069943
vt 0.209472656 0.910207927
vt 0.210449219 0.910207927
vt 0.210449219 0.940453708
vt 0.241699219 0.940453708
vt 0.241699219 0.910207927
vt 0.692871094 0.910207927
vt 0.692871094 0.97069943
vt 0.708496094 0.97069943
vt 0.708496094 0.910207927
vt 0.836425781 0.910207927
vt 0.836425781 0.940453708
vt 0.867675781 0.940453708
vt 0.867675781 0.910207927
vt 0.251464844 0.912098289
vt 0.251464844 0.934782624
vt 0.282714844 0.934782624
vt 0.282714844 0.912098289
vt 0.709472656 0.910207927
vt 0.709472656 0.97069943
vt 0.725097656 0.97069943
vt 0.725097656 0.910207927
vt 0.283691406 0.912098289
vt 0.283691406 0.972589791
vt 0.299316406 0.972589791
vt 0.299316406 0.912098289
vt 0.395996094 0.912098289
vt 0.395996094 0.942344069
vt 0.427246094 0.942344069
vt 0.427246094 0.912098289
vt 0.740722656 0.912098289
vt 0.740722656 0.972589791
vt 0.756347656 0.972589791
vt 0.756347656 0.912098289
vt 0.332519531 0.91398865
vt 0.332519531 0.944234431
vt 0.363769531 0.944234431
vt 0.363769531 0.91398865
vt 0.927246094 0.919659734
vt 0.927246094 0.949905455
vt 0.958496094 0.949905455
vt 0.958496094 0.919659734
vt 0.757324219 0.912098289
vt 0.757324219 0.965028346
vt 0.772949219 0.965028346
vt 0.772949219 0.912098289
vt 0.959472656 0.919659734
vt 0.959472656 0.949905455
vt 0.990722656 0.949905455
vt 0.990722656 0.919659734
vt 0.879394531 0.921550095
vt 0.879394531 0.951795816
vt 0.910644531 0.951795816
vt 0.910644531 0.921550095
vt 0.0795898438 0.92911154
vt 0.0795898438 0.959357262
vt 0.110839844 0.959357262
vt 0.110839844 0.92911154
vt 0.251464844 0.936672986
vt 0.251464844 0.966918707
vt 0.282714844 0.966918707
vt 0.282714844 0.936672986
vt 0.364746094 0.91398865
vt 0.364746094 0.974480152
vt 0.380371094 0.974480152
vt 0.380371094 0.91398865
vt 0.439941406 0.938563347
vt 0.439941406 0.999054849
vt 0.455566406 0.999054849
vt 0.455566406 0.938563347
vt 0.00048828125 0.940453708
vt 0.00048828125 0.97069943
vt 0.0317382812 0.97069943
vt 0.0317382812 0.940453708
vt 0.472167969 0.940453708
vt 0.472167969 0.97069943
vt 0.487792969 0.97069943
vt 0.487792969 0.940453708
vt 0.488769531 0.940453708
vt 0.488769531 0.97069943
vt 0.504394531 0.97069943
vt 0.504394531 0.940453708
vt 0.505371094 0.940453708
vt 0.505371094 0.97069943
vt 0.520996094 0.97069943
vt 0.520996094 0.940453708
vt 0.521972656 0.940453708
vt 0.521972656 0.97069943
vt 0.537597656 0.97069943
vt 0.537597656 0.940453708
vt 0.551269531 0.940453708
vt 0.551269531 0.97069943
vt 0.566894531 0.97069943
vt 0.566894531 0.940453708
vt 0.567871094 0.940453708
vt 0.567871094 0.97069943
vt 0.583496094 0.97069943
vt 0.583496094 0.940453708
vt 0.628417969 0.940453708
vt 0.628417969 0.97069943
vt 0.644042969 0.97069943
vt 0.644042969 0.940453708
vt 0.645019531 0.940453708
vt 0.645019531 0.97069943
vt 0.660644531 0.97069943
vt 0.660644531 0.940453708
vt 0.661621094 0.940453708
vt 0.661621094 0.97069943
vt 0.677246094 0.97069943
vt 0.677246094 0.940453708
vt 0.161621094 0.942344069
vt 0.161621094 0.972589791
vt 0.177246094 0.972589791
vt 0.177246094 0.942344069
vt 0.210449219 0.942344069
vt 0.210449219 0.972589791
vt 0.226074219 0.972589791
vt 0.226074219 0.942344069
vt 0.227050781 0.942344069
vt 0.227050781 0.972589791
vt 0.242675781 0.972589791
vt 0.242675781 0.942344069
vt 0.836425781 0.942344069
vt 0.836425781 0.972589791
vt 0.852050781 0.972589791
vt 0.852050781 0.942344069
g jianwu_4_bj-mesh_0
f 3/3/3 2/2/2 1/1/1
f 1/1/1 4/4/4 3/3/3
f 7/7/7 6/6/6 5/5/5
f 5/5/5 8/8/8 7/7/7
f 11/11/11 10/10/10 9/9/9
f 9/9/9 12/12/12 11/11/11
f 15/15/15 14/14/14 13/13/13
f 13/13/13 16/16/16 15/15/15
f 19/19/19 18/18/18 17/17/17
f 17/17/17 20/20/20 19/19/19
f 23/23/23 22/22/22 21/21/21
f 21/21/21 24/24/24 23/23/23
f 27/27/27 26/26/26 25/25/25
f 25/25/25 28/28/28 27/27/27
f 31/31/31 30/30/30 29/29/29
f 29/29/29 32/32/32 31/31/31
f 35/35/35 34/34/34 33/33/33
f 33/33/33 36/36/36 35/35/35
f 39/39/39 38/38/38 37/37/37
f 37/37/37 40/40/40 39/39/39
f 43/43/43 42/42/42 41/41/41
f 41/41/41 44/44/44 43/43/43
f 47/47/47 46/46/46 45/45/45
f 45/45/45 48/48/48 47/47/47
f 51/51/51 50/50/50 49/49/49
f 49/49/49 52/52/52 51/51/51
f 55/55/55 54/54/54 53/53/53
f 53/53/53 56/56/56 55/55/55
f 59/59/59 58/58/58 57/57/57
f 57/57/57 60/60/60 59/59/59
f 63/63/63 62/62/62 61/61/61
f 61/61/61 64/64/64 63/63/63
f 67/67/67 66/66/66 65/65/65
f 65/65/65 68/68/68 67/67/67
f 71/71/71 70/70/70 69/69/69
f 69/69/69 72/72/72 71/71/71
f 75/75/75 74/74/74 73/73/73
f 73/73/73 76/76/76 75/75/75
f 79/79/79 78/78/78 77/77/77
f 77/77/77 80/80/80 79/79/79
f 83/83/83 82/82/82 81/81/81
f 81/81/81 84/84/84 83/83/83
f 87/87/87 86/86/86 85/85/85
f 85/85/85 88/88/88 87/87/87
f 91/91/91 90/90/90 89/89/89
f 89/89/89 92/92/92 91/91/91
f 95/95/95 94/94/94 93/93/93
f 93/93/93 96/96/96 95/95/95
f 99/99/99 98/98/98 97/97/97
f 97/97/97 100/100/100 99/99/99
f 103/103/103 102/102/102 101/101/101
f 101/101/101 104/104/104 103/103/103
f 107/107/107 106/106/106 105/105/105
f 105/105/105 108/108/108 107/107/107
f 111/111/111 110/110/110 109/109/109
f 109/109/109 112/112/112 111/111/111
f 115/115/115 114/114/114 113/113/113
f 113/113/113 116/116/116 115/115/115
f 119/119/119 118/118/118 117/117/117
f 117/117/117 120/120/120 119/119/119
f 123/123/123 122/122/122 121/121/121
f 121/121/121 124/124/124 123/123/123
f 127/127/127 126/126/126 125/125/125
f 125/125/125 128/128/128 127/127/127
f 131/131/131 130/130/130 129/129/129
f 129/129/129 132/132/132 131/131/131
f 135/135/135 134/134/134 133/133/133
f 133/133/133 136/136/136 135/135/135
f 139/139/139 138/138/138 137/137/137
f 137/137/137 140/140/140 139/139/139
f 143/143/143 142/142/142 141/141/141
f 141/141/141 144/144/144 143/143/143
f 147/147/147 146/146/146 145/145/145
f 145/145/145 148/148/148 147/147/147
f 151/151/151 150/150/150 149/149/149
f 149/149/149 152/152/152 151/151/151
f 155/155/155 154/154/154 153/153/153
f 153/153/153 156/156/156 155/155/155
f 159/159/159 158/158/158 157/157/157
f 157/157/157 160/160/160 159/159/159
f 163/163/163 162/162/162 161/161/161
f 161/161/161 164/164/164 163/163/163
f 167/167/167 166/166/166 165/165/165
f 165/165/165 168/168/168 167/167/167
f 171/171/171 170/170/170 169/169/169
f 169/169/169 172/172/172 171/171/171
f 175/175/175 174/174/174 173/173/173
f 173/173/173 176/176/176 175/175/175
f 179/179/179 178/178/178 177/177/177
f 177/177/177 180/180/180 179/179/179
f 183/183/183 182/182/182 181/181/181
f 181/181/181 184/184/184 183/183/183
f 187/187/187 186/186/186 185/185/185
f 185/185/185 188/188/188 187/187/187
f 191/191/191 190/190/190 189/189/189
f 189/189/189 192/192/192 191/191/191
f 195/195/195 194/194/194 193/193/193
f 193/193/193 196/196/196 195/195/195
f 199/199/199 198/198/198 197/197/197
f 197/197/197 200/200/200 199/199/199
f 203/203/203 202/202/202 201/201/201
f 201/201/201 204/204/204 203/203/203
f 207/207/207 206/206/206 205/205/205
f 205/205/205 208/208/208 207/207/207
f 211/211/211 210/210/210 209/209/209
f 209/209/209 212/212/212 211/211/211
f 215/215/215 214/214/214 213/213/213
f 213/213/213 216/216/216 215/215/215
f 219/219/219 218/218/218 217/217/217
f 217/217/217 220/220/220 219/219/219
f 223/223/223 222/222/222 221/221/221
f 221/221/221 224/224/224 223/223/223
f 227/227/227 226/226/226 225/225/225
f 225/225/225 228/228/228 227/227/227
f 231/231/231 230/230/230 229/229/229
f 229/229/229 232/232/232 231/231/231
f 235/235/235 234/234/234 233/233/233
f 233/233/233 236/236/236 235/235/235
f 239/239/239 238/238/238 237/237/237
f 237/237/237 240/240/240 239/239/239
f 243/243/243 242/242/242 241/241/241
f 241/241/241 244/244/244 243/243/243
f 247/247/247 246/246/246 245/245/245
f 245/245/245 248/248/248 247/247/247
f 251/251/251 250/250/250 249/249/249
f 249/249/249 252/252/252 251/251/251
f 255/255/255 254/254/254 253/253/253
f 253/253/253 256/256/256 255/255/255
f 259/259/259 258/258/258 257/257/257
f 257/257/257 260/260/260 259/259/259
f 263/263/263 262/262/262 261/261/261
f 261/261/261 264/264/264 263/263/263
f 267/267/267 266/266/266 265/265/265
f 265/265/265 268/268/268 267/267/267
f 271/271/271 270/270/270 269/269/269
f 269/269/269 272/272/272 271/271/271
f 275/275/275 274/274/274 273/273/273
f 273/273/273 276/276/276 275/275/275
f 279/279/279 278/278/278 277/277/277
f 277/277/277 280/280/280 279/279/279
f 283/283/283 282/282/282 281/281/281
f 281/281/281 284/284/284 283/283/283
f 287/287/287 286/286/286 285/285/285
f 285/285/285 288/288/288 287/287/287
f 291/291/291 290/290/290 289/289/289
f 289/289/289 292/292/292 291/291/291
f 295/295/295 294/294/294 293/293/293
f 293/293/293 296/296/296 295/295/295
f 299/299/299 298/298/298 297/297/297
f 297/297/297 300/300/300 299/299/299
f 303/303/303 302/302/302 301/301/301
f 301/301/301 304/304/304 303/303/303
f 307/307/307 306/306/306 305/305/305
f 305/305/305 308/308/308 307/307/307
f 311/311/311 310/310/310 309/309/309
f 309/309/309 312/312/312 311/311/311
f 315/315/315 314/314/314 313/313/313
f 313/313/313 316/316/316 315/315/315
f 319/319/319 318/318/318 317/317/317
f 317/317/317 320/320/320 319/319/319
f 323/323/323 322/322/322 321/321/321
f 321/321/321 324/324/324 323/323/323
f 327/327/327 326/326/326 325/325/325
f 325/325/325 328/328/328 327/327/327
f 331/331/331 330/330/330 329/329/329
f 329/329/329 332/332/332 331/331/331
f 335/335/335 334/334/334 333/333/333
f 333/333/333 336/336/336 335/335/335
f 339/339/339 338/338/338 337/337/337
f 337/337/337 340/340/340 339/339/339
f 343/343/343 342/342/342 341/341/341
f 341/341/341 344/344/344 343/343/343
f 347/347/347 346/346/346 345/345/345
f 345/345/345 348/348/348 347/347/347
f 351/351/351 350/350/350 349/349/349
f 349/349/349 352/352/352 351/351/351
f 355/355/355 354/354/354 353/353/353
f 353/353/353 356/356/356 355/355/355
f 359/359/359 358/358/358 357/357/357
f 357/357/357 360/360/360 359/359/359
