g kangkede-mesh
v -128 447 0
v -128 767 0
v -608 767 0
v -608 447 0
v -192 95 0
v -192 287 0
v -576 287 0
v -576 95 0
v -224 767 0
v -224 1023 0
v -416 1023 0
v -416 767 0
v -0 511 0
v -0 703 0
v -128 703 0
v -128 511 0
v -96 0 0
v -96 95 0
v -288 95 0
v -288 0 0
v -128 351 0
v -128 447 0
v -320 447 0
v -320 351 0
v -416 767 0
v -416 863 0
v -512 863 0
v -512 767 0
v -64 95 0
v -64 159 0
v -192 159 0
v -192 95 0
v -416 383 0
v -416 447 0
v -544 447 0
v -544 383 0
v -192 287 0
v -192 351 0
v -288 351 0
v -288 287 0
v -64 447 0
v -64 511 0
v -128 511 0
v -128 447 0
v -160 767 0
v -160 831 0
v -224 831 0
v -224 767 0
v -608 607 0
v -608 703 0
v -640 703 0
v -640 607 0
v -288 63 0
v -288 95 0
v -384 95 0
v -384 63 0
v -640 543 0
v -640 607 0
v -646 607 0
v -646 543 0
v -512 767 0
v -512 831 0
v -544 831 0
v -544 767 0
v -576 191 0
v -576 255 0
v -608 255 0
v -608 191 0
v -160 159 0
v -160 223 0
v -192 223 0
v -192 159 0
v -64 31 0
v -64 95 0
v -96 95 0
v -96 31 0
v -608 543 0
v -608 607 0
v -640 607 0
v -640 543 0
v -416 895 0
v -416 959 0
v -448 959 0
v -448 895 0
v -384 63 0
v -384 95 0
v -448 95 0
v -448 63 0
v -352 287 0
v -352 319 0
v -416 319 0
v -416 287 0
v -32 479 0
v -32 511 0
v -64 511 0
v -64 479 0
v -320 415 0
v -320 447 0
v -352 447 0
v -352 415 0
v -384 415 0
v -384 447 0
v -416 447 0
v -416 415 0
v -544 415 0
v -544 447 0
v -576 447 0
v -576 415 0
v -288 31 0
v -288 63 0
v -320 63 0
v -320 31 0
v -416 863 0
v -416 895 0
v -448 895 0
v -448 863 0
v -416 287 0
v -416 319 0
v -448 319 0
v -448 287 0
v -544 767 0
v -544 799 0
v -576 799 0
v -576 767 0
v -96 703 0
v -96 735 0
v -128 735 0
v -128 703 0
v -0 703 0
v -0 735 0
v -32 735 0
v -32 703 0
vt 0.0009765625 0.00220263004
vt 0.0009765625 0.707048416
vt 0.469726562 0.707048416
vt 0.469726562 0.00220263004
vt 0.471679688 0.00220263004
vt 0.471679688 0.425110161
vt 0.846679688 0.425110161
vt 0.846679688 0.00220263004
vt 0.471679688 0.429515421
vt 0.471679688 0.99339205
vt 0.659179688 0.99339205
vt 0.659179688 0.429515421
vt 0.848632812 0.00220263004
vt 0.848632812 0.425110161
vt 0.973632812 0.425110161
vt 0.973632812 0.00220263004
vt 0.661132812 0.429515421
vt 0.661132812 0.640969157
vt 0.848632812 0.640969157
vt 0.848632812 0.429515421
vt 0.661132812 0.645374417
vt 0.661132812 0.856828213
vt 0.848632812 0.856828213
vt 0.848632812 0.645374417
vt 0.850585938 0.429515421
vt 0.850585938 0.640969157
vt 0.944335938 0.640969157
vt 0.944335938 0.429515421
vt 0.850585938 0.645374417
vt 0.850585938 0.786343634
vt 0.975585938 0.786343634
vt 0.975585938 0.645374417
vt 0.0009765625 0.711453736
vt 0.0009765625 0.852422893
vt 0.125976562 0.852422893
vt 0.125976562 0.711453736
vt 0.127929688 0.711453736
vt 0.127929688 0.852422893
vt 0.221679688 0.852422893
vt 0.221679688 0.711453736
vt 0.223632812 0.711453736
vt 0.223632812 0.852422893
vt 0.286132812 0.852422893
vt 0.286132812 0.711453736
vt 0.288085938 0.711453736
vt 0.288085938 0.852422893
vt 0.350585938 0.852422893
vt 0.350585938 0.711453736
vt 0.352539062 0.711453736
vt 0.352539062 0.922907472
vt 0.383789062 0.922907472
vt 0.383789062 0.711453736
vt 0.850585938 0.790748894
vt 0.850585938 0.861233473
vt 0.944335938 0.861233473
vt 0.944335938 0.790748894
vt 0.977539062 0.00220263004
vt 0.977539062 0.143171787
vt 0.984375 0.143171787
vt 0.984375 0.00220263004
vt 0.385742188 0.711453736
vt 0.385742188 0.852422893
vt 0.416992188 0.852422893
vt 0.416992188 0.711453736
vt 0.418945312 0.711453736
vt 0.418945312 0.852422893
vt 0.450195312 0.852422893
vt 0.450195312 0.711453736
vt 0.946289062 0.790748894
vt 0.946289062 0.931718051
vt 0.977539062 0.931718051
vt 0.977539062 0.790748894
vt 0.0009765625 0.856828213
vt 0.0009765625 0.99779737
vt 0.0322265625 0.99779737
vt 0.0322265625 0.856828213
vt 0.0341796875 0.856828213
vt 0.0341796875 0.99779737
vt 0.0654296875 0.99779737
vt 0.0654296875 0.856828213
vt 0.0673828125 0.856828213
vt 0.0673828125 0.99779737
vt 0.0986328125 0.99779737
vt 0.0986328125 0.856828213
vt 0.100585938 0.856828213
vt 0.100585938 0.927312791
vt 0.163085938 0.927312791
vt 0.163085938 0.856828213
vt 0.165039062 0.856828213
vt 0.165039062 0.927312791
vt 0.227539062 0.927312791
vt 0.227539062 0.856828213
vt 0.229492188 0.856828213
vt 0.229492188 0.927312791
vt 0.260742188 0.927312791
vt 0.260742188 0.856828213
vt 0.262695312 0.856828213
vt 0.262695312 0.927312791
vt 0.293945312 0.927312791
vt 0.293945312 0.856828213
vt 0.295898438 0.856828213
vt 0.295898438 0.927312791
vt 0.327148438 0.927312791
vt 0.327148438 0.856828213
vt 0.385742188 0.856828213
vt 0.385742188 0.927312791
vt 0.416992188 0.927312791
vt 0.416992188 0.856828213
vt 0.418945312 0.856828213
vt 0.418945312 0.927312791
vt 0.450195312 0.927312791
vt 0.450195312 0.856828213
vt 0.661132812 0.861233473
vt 0.661132812 0.931718051
vt 0.692382812 0.931718051
vt 0.692382812 0.861233473
vt 0.694335938 0.861233473
vt 0.694335938 0.931718051
vt 0.725585938 0.931718051
vt 0.725585938 0.861233473
vt 0.727539062 0.861233473
vt 0.727539062 0.931718051
vt 0.758789062 0.931718051
vt 0.758789062 0.861233473
vt 0.760742188 0.861233473
vt 0.760742188 0.931718051
vt 0.791992188 0.931718051
vt 0.791992188 0.861233473
vt 0.793945312 0.861233473
vt 0.793945312 0.931718051
vt 0.825195312 0.931718051
vt 0.825195312 0.861233473
g kangkede-mesh_0
f 3/3/3 2/2/2 1/1/1
f 1/1/1 4/4/4 3/3/3
f 7/7/7 6/6/6 5/5/5
f 5/5/5 8/8/8 7/7/7
f 11/11/11 10/10/10 9/9/9
f 9/9/9 12/12/12 11/11/11
f 15/15/15 14/14/14 13/13/13
f 13/13/13 16/16/16 15/15/15
f 19/19/19 18/18/18 17/17/17
f 17/17/17 20/20/20 19/19/19
f 23/23/23 22/22/22 21/21/21
f 21/21/21 24/24/24 23/23/23
f 27/27/27 26/26/26 25/25/25
f 25/25/25 28/28/28 27/27/27
f 31/31/31 30/30/30 29/29/29
f 29/29/29 32/32/32 31/31/31
f 35/35/35 34/34/34 33/33/33
f 33/33/33 36/36/36 35/35/35
f 39/39/39 38/38/38 37/37/37
f 37/37/37 40/40/40 39/39/39
f 43/43/43 42/42/42 41/41/41
f 41/41/41 44/44/44 43/43/43
f 47/47/47 46/46/46 45/45/45
f 45/45/45 48/48/48 47/47/47
f 51/51/51 50/50/50 49/49/49
f 49/49/49 52/52/52 51/51/51
f 55/55/55 54/54/54 53/53/53
f 53/53/53 56/56/56 55/55/55
f 59/59/59 58/58/58 57/57/57
f 57/57/57 60/60/60 59/59/59
f 63/63/63 62/62/62 61/61/61
f 61/61/61 64/64/64 63/63/63
f 67/67/67 66/66/66 65/65/65
f 65/65/65 68/68/68 67/67/67
f 71/71/71 70/70/70 69/69/69
f 69/69/69 72/72/72 71/71/71
f 75/75/75 74/74/74 73/73/73
f 73/73/73 76/76/76 75/75/75
f 79/79/79 78/78/78 77/77/77
f 77/77/77 80/80/80 79/79/79
f 83/83/83 82/82/82 81/81/81
f 81/81/81 84/84/84 83/83/83
f 87/87/87 86/86/86 85/85/85
f 85/85/85 88/88/88 87/87/87
f 91/91/91 90/90/90 89/89/89
f 89/89/89 92/92/92 91/91/91
f 95/95/95 94/94/94 93/93/93
f 93/93/93 96/96/96 95/95/95
f 99/99/99 98/98/98 97/97/97
f 97/97/97 100/100/100 99/99/99
f 103/103/103 102/102/102 101/101/101
f 101/101/101 104/104/104 103/103/103
f 107/107/107 106/106/106 105/105/105
f 105/105/105 108/108/108 107/107/107
f 111/111/111 110/110/110 109/109/109
f 109/109/109 112/112/112 111/111/111
f 115/115/115 114/114/114 113/113/113
f 113/113/113 116/116/116 115/115/115
f 119/119/119 118/118/118 117/117/117
f 117/117/117 120/120/120 119/119/119
f 123/123/123 122/122/122 121/121/121
f 121/121/121 124/124/124 123/123/123
f 127/127/127 126/126/126 125/125/125
f 125/125/125 128/128/128 127/127/127
f 131/131/131 130/130/130 129/129/129
f 129/129/129 132/132/132 131/131/131
