g shaenhuosite_alter_front-mesh
v -1280 223 0
v -1280 447 0
v -1568 447 0
v -1568 223 0
v -1696 383 0
v -1696 671 0
v -1849 671 0
v -1849 383 0
v -1568 351 0
v -1568 511 0
v -1696 511 0
v -1696 351 0
v -1184 255 0
v -1184 383 0
v -1280 383 0
v -1280 255 0
v -1312 127 0
v -1312 223 0
v -1408 223 0
v -1408 127 0
v -1216 95 0
v -1216 159 0
v -1312 159 0
v -1312 95 0
v -960 191 0
v -960 287 0
v -1024 287 0
v -1024 191 0
v -1408 447 0
v -1408 511 0
v -1504 511 0
v -1504 447 0
v -1792 1023 0
v -1792 1119 0
v -1849 1119 0
v -1849 1023 0
v -1120 287 0
v -1120 351 0
v -1184 351 0
v -1184 287 0
v -1696 319 0
v -1696 383 0
v -1760 383 0
v -1760 319 0
v -1056 255 0
v -1056 319 0
v -1120 319 0
v -1120 255 0
v -1152 63 0
v -1152 127 0
v -1216 127 0
v -1216 63 0
v -1408 159 0
v -1408 223 0
v -1472 223 0
v -1472 159 0
v -1504 447 0
v -1504 511 0
v -1568 511 0
v -1568 447 0
v -1792 863 0
v -1792 927 0
v -1849 927 0
v -1849 863 0
v -1792 959 0
v -1792 1023 0
v -1849 1023 0
v -1849 959 0
v -1568 287 0
v -1568 351 0
v -1600 351 0
v -1600 287 0
v -1024 223 0
v -1024 287 0
v -1056 287 0
v -1056 223 0
v -1472 191 0
v -1472 223 0
v -1536 223 0
v -1536 191 0
v -1344 447 0
v -1344 479 0
v -1408 479 0
v -1408 447 0
v -1216 383 0
v -1216 415 0
v -1280 415 0
v -1280 383 0
v -1728 671 0
v -1728 703 0
v -1792 703 0
v -1792 671 0
v -1792 671 0
v -1792 703 0
v -1849 703 0
v -1849 671 0
v -1504 511 0
v -1504 543 0
v -1568 543 0
v -1568 511 0
v -1568 511 0
v -1568 543 0
v -1632 543 0
v -1632 511 0
v -1664 543 0
v -1664 607 0
v -1696 607 0
v -1696 543 0
v -1248 223 0
v -1248 255 0
v -1280 255 0
v -1280 223 0
v -928 223 0
v -928 255 0
v -960 255 0
v -960 223 0
v -1056 223 0
v -1056 255 0
v -1088 255 0
v -1088 223 0
v -1280 159 0
v -1280 191 0
v -1312 191 0
v -1312 159 0
v -1216 63 0
v -1216 95 0
v -1248 95 0
v -1248 63 0
v -1152 31 0
v -1152 63 0
v -1184 63 0
v -1184 31 0
v -1120 63 0
v -1120 95 0
v -1152 95 0
v -1152 63 0
v -1824 1119 0
v -1824 1151 0
v -1849 1151 0
v -1849 1119 0
v -1568 255 0
v -1568 287 0
v -1600 287 0
v -1600 255 0
v -1664 511 0
v -1664 543 0
v -1696 543 0
v -1696 511 0
v -1824 927 0
v -1824 959 0
v -1849 959 0
v -1849 927 0
v -1120 255 0
v -1120 287 0
v -1152 287 0
v -1152 255 0
v -1760 351 0
v -1760 383 0
v -1792 383 0
v -1792 351 0
v -1792 831 0
v -1792 863 0
v -1824 863 0
v -1824 831 0
vt 0.0009765625 0.00344824791
vt 0.0009765625 0.775862098
vt 0.282226562 0.775862098
vt 0.282226562 0.00344824791
vt 0.284179688 0.00344824791
vt 0.284179688 0.996551752
vt 0.434570312 0.996551752
vt 0.434570312 0.00344824791
vt 0.436523438 0.00344824791
vt 0.436523438 0.555172443
vt 0.561523438 0.555172443
vt 0.561523438 0.00344824791
vt 0.563476562 0.00344824791
vt 0.563476562 0.444827557
vt 0.657226562 0.444827557
vt 0.657226562 0.00344824791
vt 0.659179688 0.00344824791
vt 0.659179688 0.334482729
vt 0.752929688 0.334482729
vt 0.752929688 0.00344824791
vt 0.754882812 0.00344824791
vt 0.754882812 0.224137902
vt 0.848632812 0.224137902
vt 0.848632812 0.00344824791
vt 0.850585938 0.00344824791
vt 0.850585938 0.334482729
vt 0.913085938 0.334482729
vt 0.913085938 0.00344824791
vt 0.754882812 0.231034458
vt 0.754882812 0.451724112
vt 0.848632812 0.451724112
vt 0.848632812 0.231034458
vt 0.915039062 0.00344824791
vt 0.915039062 0.334482729
vt 0.971679688 0.334482729
vt 0.971679688 0.00344824791
vt 0.659179688 0.341379285
vt 0.659179688 0.562068939
vt 0.721679688 0.562068939
vt 0.721679688 0.341379285
vt 0.850585938 0.341379285
vt 0.850585938 0.562068939
vt 0.913085938 0.562068939
vt 0.913085938 0.341379285
vt 0.915039062 0.341379285
vt 0.915039062 0.562068939
vt 0.977539062 0.562068939
vt 0.977539062 0.341379285
vt 0.563476562 0.451724112
vt 0.563476562 0.672413826
vt 0.625976562 0.672413826
vt 0.625976562 0.451724112
vt 0.754882812 0.458620667
vt 0.754882812 0.679310322
vt 0.817382812 0.679310322
vt 0.817382812 0.458620667
vt 0.436523438 0.562068939
vt 0.436523438 0.782758594
vt 0.499023438 0.782758594
vt 0.499023438 0.562068939
vt 0.500976562 0.562068939
vt 0.500976562 0.782758594
vt 0.557617188 0.782758594
vt 0.557617188 0.562068939
vt 0.659179688 0.568965554
vt 0.659179688 0.789655209
vt 0.715820312 0.789655209
vt 0.715820312 0.568965554
vt 0.717773438 0.568965554
vt 0.717773438 0.789655209
vt 0.749023438 0.789655209
vt 0.749023438 0.568965554
vt 0.850585938 0.568965554
vt 0.850585938 0.789655209
vt 0.881835938 0.789655209
vt 0.881835938 0.568965554
vt 0.883789062 0.568965554
vt 0.883789062 0.679310322
vt 0.946289062 0.679310322
vt 0.946289062 0.568965554
vt 0.563476562 0.679310322
vt 0.563476562 0.789655209
vt 0.625976562 0.789655209
vt 0.625976562 0.679310322
vt 0.754882812 0.686206937
vt 0.754882812 0.796551704
vt 0.817382812 0.796551704
vt 0.817382812 0.686206937
vt 0.883789062 0.686206937
vt 0.883789062 0.796551704
vt 0.946289062 0.796551704
vt 0.946289062 0.686206937
vt 0.0009765625 0.782758594
vt 0.0009765625 0.89310348
vt 0.0576171875 0.89310348
vt 0.0576171875 0.782758594
vt 0.0595703125 0.782758594
vt 0.0595703125 0.89310348
vt 0.122070312 0.89310348
vt 0.122070312 0.782758594
vt 0.124023438 0.782758594
vt 0.124023438 0.89310348
vt 0.186523438 0.89310348
vt 0.186523438 0.782758594
vt 0.948242188 0.568965554
vt 0.948242188 0.789655209
vt 0.979492188 0.789655209
vt 0.979492188 0.568965554
vt 0.188476562 0.782758594
vt 0.188476562 0.89310348
vt 0.219726562 0.89310348
vt 0.219726562 0.782758594
vt 0.221679688 0.782758594
vt 0.221679688 0.89310348
vt 0.252929688 0.89310348
vt 0.252929688 0.782758594
vt 0.436523438 0.789655209
vt 0.436523438 0.899999976
vt 0.467773438 0.899999976
vt 0.467773438 0.789655209
vt 0.469726562 0.789655209
vt 0.469726562 0.899999976
vt 0.500976562 0.899999976
vt 0.500976562 0.789655209
vt 0.502929688 0.789655209
vt 0.502929688 0.899999976
vt 0.534179688 0.899999976
vt 0.534179688 0.789655209
vt 0.563476562 0.796551704
vt 0.563476562 0.906896532
vt 0.594726562 0.906896532
vt 0.594726562 0.796551704
vt 0.596679688 0.796551704
vt 0.596679688 0.906896532
vt 0.627929688 0.906896532
vt 0.627929688 0.796551704
vt 0.629882812 0.451724112
vt 0.629882812 0.562068939
vt 0.655273438 0.562068939
vt 0.655273438 0.451724112
vt 0.659179688 0.796551704
vt 0.659179688 0.906896532
vt 0.690429688 0.906896532
vt 0.690429688 0.796551704
vt 0.692382812 0.796551704
vt 0.692382812 0.906896532
vt 0.723632812 0.906896532
vt 0.723632812 0.796551704
vt 0.819335938 0.458620667
vt 0.819335938 0.568965554
vt 0.844726562 0.568965554
vt 0.844726562 0.458620667
vt 0.850585938 0.796551704
vt 0.850585938 0.906896532
vt 0.881835938 0.906896532
vt 0.881835938 0.796551704
vt 0.948242188 0.796551704
vt 0.948242188 0.906896532
vt 0.979492188 0.906896532
vt 0.979492188 0.796551704
vt 0.754882812 0.80344826
vt 0.754882812 0.913793087
vt 0.786132812 0.913793087
vt 0.786132812 0.80344826
g shaenhuosite_alter_front-mesh_0
f 3/3/3 2/2/2 1/1/1
f 1/1/1 4/4/4 3/3/3
f 7/7/7 6/6/6 5/5/5
f 5/5/5 8/8/8 7/7/7
f 11/11/11 10/10/10 9/9/9
f 9/9/9 12/12/12 11/11/11
f 15/15/15 14/14/14 13/13/13
f 13/13/13 16/16/16 15/15/15
f 19/19/19 18/18/18 17/17/17
f 17/17/17 20/20/20 19/19/19
f 23/23/23 22/22/22 21/21/21
f 21/21/21 24/24/24 23/23/23
f 27/27/27 26/26/26 25/25/25
f 25/25/25 28/28/28 27/27/27
f 31/31/31 30/30/30 29/29/29
f 29/29/29 32/32/32 31/31/31
f 35/35/35 34/34/34 33/33/33
f 33/33/33 36/36/36 35/35/35
f 39/39/39 38/38/38 37/37/37
f 37/37/37 40/40/40 39/39/39
f 43/43/43 42/42/42 41/41/41
f 41/41/41 44/44/44 43/43/43
f 47/47/47 46/46/46 45/45/45
f 45/45/45 48/48/48 47/47/47
f 51/51/51 50/50/50 49/49/49
f 49/49/49 52/52/52 51/51/51
f 55/55/55 54/54/54 53/53/53
f 53/53/53 56/56/56 55/55/55
f 59/59/59 58/58/58 57/57/57
f 57/57/57 60/60/60 59/59/59
f 63/63/63 62/62/62 61/61/61
f 61/61/61 64/64/64 63/63/63
f 67/67/67 66/66/66 65/65/65
f 65/65/65 68/68/68 67/67/67
f 71/71/71 70/70/70 69/69/69
f 69/69/69 72/72/72 71/71/71
f 75/75/75 74/74/74 73/73/73
f 73/73/73 76/76/76 75/75/75
f 79/79/79 78/78/78 77/77/77
f 77/77/77 80/80/80 79/79/79
f 83/83/83 82/82/82 81/81/81
f 81/81/81 84/84/84 83/83/83
f 87/87/87 86/86/86 85/85/85
f 85/85/85 88/88/88 87/87/87
f 91/91/91 90/90/90 89/89/89
f 89/89/89 92/92/92 91/91/91
f 95/95/95 94/94/94 93/93/93
f 93/93/93 96/96/96 95/95/95
f 99/99/99 98/98/98 97/97/97
f 97/97/97 100/100/100 99/99/99
f 103/103/103 102/102/102 101/101/101
f 101/101/101 104/104/104 103/103/103
f 107/107/107 106/106/106 105/105/105
f 105/105/105 108/108/108 107/107/107
f 111/111/111 110/110/110 109/109/109
f 109/109/109 112/112/112 111/111/111
f 115/115/115 114/114/114 113/113/113
f 113/113/113 116/116/116 115/115/115
f 119/119/119 118/118/118 117/117/117
f 117/117/117 120/120/120 119/119/119
f 123/123/123 122/122/122 121/121/121
f 121/121/121 124/124/124 123/123/123
f 127/127/127 126/126/126 125/125/125
f 125/125/125 128/128/128 127/127/127
f 131/131/131 130/130/130 129/129/129
f 129/129/129 132/132/132 131/131/131
f 135/135/135 134/134/134 133/133/133
f 133/133/133 136/136/136 135/135/135
f 139/139/139 138/138/138 137/137/137
f 137/137/137 140/140/140 139/139/139
f 143/143/143 142/142/142 141/141/141
f 141/141/141 144/144/144 143/143/143
f 147/147/147 146/146/146 145/145/145
f 145/145/145 148/148/148 147/147/147
f 151/151/151 150/150/150 149/149/149
f 149/149/149 152/152/152 151/151/151
f 155/155/155 154/154/154 153/153/153
f 153/153/153 156/156/156 155/155/155
f 159/159/159 158/158/158 157/157/157
f 157/157/157 160/160/160 159/159/159
f 163/163/163 162/162/162 161/161/161
f 161/161/161 164/164/164 163/163/163
