g tashigan_3-mesh
v -128 145 0
v -128 913 0
v -1600 913 0
v -1600 145 0
v -128 913 0
v -128 1681 0
v -1600 1681 0
v -1600 913 0
v -1600 785 0
v -1600 1329 0
v -1888 1329 0
v -1888 785 0
v -1600 273 0
v -1600 785 0
v -1888 785 0
v -1888 273 0
v -1312 1809 0
v -1312 2001 0
v -1632 2001 0
v -1632 1809 0
v -1888 913 0
v -1888 1201 0
v -2047 1201 0
v -2047 913 0
v -224 1681 0
v -224 1809 0
v -576 1809 0
v -576 1681 0
v -576 1681 0
v -576 1809 0
v -928 1809 0
v -928 1681 0
v -32 721 0
v -32 977 0
v -128 977 0
v -128 721 0
v -864 17 0
v -864 113 0
v -1120 113 0
v -1120 17 0
v -1120 17 0
v -1120 113 0
v -1376 113 0
v -1376 17 0
v -32 497 0
v -32 721 0
v -128 721 0
v -128 497 0
v -64 1425 0
v -64 1745 0
v -128 1745 0
v -128 1425 0
v -64 1137 0
v -64 1425 0
v -128 1425 0
v -128 1137 0
v -352 113 0
v -352 145 0
v -896 145 0
v -896 113 0
v -896 113 0
v -896 145 0
v -1408 145 0
v -1408 113 0
v -1888 465 0
v -1888 625 0
v -1984 625 0
v -1984 465 0
v -128 1681 0
v -128 1777 0
v -224 1777 0
v -224 1681 0
v -928 1681 0
v -928 1713 0
v -1216 1713 0
v -1216 1681 0
v -1216 1681 0
v -1216 1713 0
v -1504 1713 0
v -1504 1681 0
v -1888 273 0
v -1888 401 0
v -1952 401 0
v -1952 273 0
v -0 1169 0
v -0 1297 0
v -64 1297 0
v -64 1169 0
v -1600 1329 0
v -1600 1393 0
v -1728 1393 0
v -1728 1329 0
v -1440 1713 0
v -1440 1809 0
v -1504 1809 0
v -1504 1713 0
v -1888 849 0
v -1888 913 0
v -1984 913 0
v -1984 849 0
v -1728 1329 0
v -1728 1393 0
v -1824 1393 0
v -1824 1329 0
v -1888 753 0
v -1888 849 0
v -1952 849 0
v -1952 753 0
v -0 625 0
v -0 785 0
v -32 785 0
v -32 625 0
v -352 81 0
v -352 113 0
v -512 113 0
v -512 81 0
v -0 465 0
v -0 625 0
v -32 625 0
v -32 465 0
v -1888 689 0
v -1888 753 0
v -1952 753 0
v -1952 689 0
v -864 0 0
v -864 17 0
v -992 17 0
v -992 0 0
v -512 81 0
v -512 113 0
v -640 113 0
v -640 81 0
v -1344 2001 0
v -1344 2033 0
v -1472 2033 0
v -1472 2001 0
v -1472 2001 0
v -1472 2033 0
v -1600 2033 0
v -1600 2001 0
v -1632 1873 0
v -1632 1969 0
v -1664 1969 0
v -1664 1873 0
v -1600 241 0
v -1600 273 0
v -1696 273 0
v -1696 241 0
v -992 0 0
v -992 17 0
v -1088 17 0
v -1088 0 0
v -704 1809 0
v -704 1841 0
v -800 1841 0
v -800 1809 0
v -800 1809 0
v -800 1841 0
v -896 1841 0
v -896 1809 0
v -928 1713 0
v -928 1777 0
v -960 1777 0
v -960 1713 0
v -1600 177 0
v -1600 241 0
v -1632 241 0
v -1632 177 0
v -1984 529 0
v -1984 593 0
v -2016 593 0
v -2016 529 0
v -32 465 0
v -32 497 0
v -96 497 0
v -96 465 0
v -1888 625 0
v -1888 689 0
v -1920 689 0
v -1920 625 0
v -64 977 0
v -64 1041 0
v -96 1041 0
v -96 977 0
v -96 977 0
v -96 1041 0
v -128 1041 0
v -128 977 0
v -96 1041 0
v -96 1105 0
v -128 1105 0
v -128 1041 0
v -1696 241 0
v -1696 273 0
v -1760 273 0
v -1760 241 0
v -1952 753 0
v -1952 817 0
v -1984 817 0
v -1984 753 0
v -1632 1809 0
v -1632 1873 0
v -1664 1873 0
v -1664 1809 0
v -1984 881 0
v -1984 913 0
v -2016 913 0
v -2016 881 0
v -32 1297 0
v -32 1329 0
v -64 1329 0
v -64 1297 0
v -1920 625 0
v -1920 657 0
v -1952 657 0
v -1952 625 0
v -832 81 0
v -832 113 0
v -864 113 0
v -864 81 0
v -1888 401 0
v -1888 433 0
v -1920 433 0
v -1920 401 0
v -1824 1329 0
v -1824 1361 0
v -1856 1361 0
v -1856 1329 0
v -1600 145 0
v -1600 177 0
v -1632 177 0
v -1632 145 0
v -1984 497 0
v -1984 529 0
v -2016 529 0
v -2016 497 0
v -1952 721 0
v -1952 753 0
v -1984 753 0
v -1984 721 0
v -96 1745 0
v -96 1777 0
v -128 1777 0
v -128 1745 0
v -736 1841 0
v -736 1873 0
v -768 1873 0
v -768 1841 0
vt 0.00048828125 0.000537037849
vt 0.00048828125 0.412996769
vt 0.719238281 0.412996769
vt 0.719238281 0.000537037849
vt 0.00048828125 0.414070904
vt 0.00048828125 0.826530576
vt 0.719238281 0.826530576
vt 0.719238281 0.414070904
vt 0.720214844 0.000537037849
vt 0.720214844 0.292695999
vt 0.860839844 0.292695999
vt 0.860839844 0.000537037849
vt 0.720214844 0.293770134
vt 0.720214844 0.568743289
vt 0.860839844 0.568743289
vt 0.860839844 0.293770134
vt 0.720214844 0.569817424
vt 0.720214844 0.672932327
vt 0.876464844 0.672932327
vt 0.876464844 0.569817424
vt 0.877441406 0.000537037849
vt 0.877441406 0.155209482
vt 0.955566406 0.155209482
vt 0.955566406 0.000537037849
vt 0.720214844 0.674006462
vt 0.720214844 0.742749691
vt 0.892089844 0.742749691
vt 0.892089844 0.674006462
vt 0.720214844 0.743823886
vt 0.720214844 0.812567115
vt 0.892089844 0.812567115
vt 0.892089844 0.743823886
vt 0.893066406 0.156283557
vt 0.893066406 0.293770134
vt 0.939941406 0.293770134
vt 0.939941406 0.156283557
vt 0.720214844 0.81364125
vt 0.720214844 0.865198731
vt 0.845214844 0.865198731
vt 0.845214844 0.81364125
vt 0.846191406 0.81364125
vt 0.846191406 0.865198731
vt 0.971191406 0.865198731
vt 0.971191406 0.81364125
vt 0.00048828125 0.827604711
vt 0.00048828125 0.947905481
vt 0.0473632812 0.947905481
vt 0.0473632812 0.827604711
vt 0.0483398438 0.827604711
vt 0.0483398438 0.999462962
vt 0.0795898438 0.999462962
vt 0.0795898438 0.827604711
vt 0.0805664062 0.827604711
vt 0.0805664062 0.982277095
vt 0.111816406 0.982277095
vt 0.111816406 0.827604711
vt 0.112792969 0.827604711
vt 0.112792969 0.844790578
vt 0.378417969 0.844790578
vt 0.378417969 0.827604711
vt 0.379394531 0.827604711
vt 0.379394531 0.844790578
vt 0.629394531 0.844790578
vt 0.629394531 0.827604711
vt 0.630371094 0.827604711
vt 0.630371094 0.913533807
vt 0.677246094 0.913533807
vt 0.677246094 0.827604711
vt 0.112792969 0.845864654
vt 0.112792969 0.897422135
vt 0.159667969 0.897422135
vt 0.159667969 0.845864654
vt 0.160644531 0.845864654
vt 0.160644531 0.863050461
vt 0.301269531 0.863050461
vt 0.301269531 0.845864654
vt 0.302246094 0.845864654
vt 0.302246094 0.863050461
vt 0.442871094 0.863050461
vt 0.442871094 0.845864654
vt 0.678222656 0.827604711
vt 0.678222656 0.896348
vt 0.709472656 0.896348
vt 0.709472656 0.827604711
vt 0.443847656 0.845864654
vt 0.443847656 0.914607942
vt 0.475097656 0.914607942
vt 0.475097656 0.845864654
vt 0.476074219 0.845864654
vt 0.476074219 0.880236328
vt 0.538574219 0.880236328
vt 0.538574219 0.845864654
vt 0.539550781 0.845864654
vt 0.539550781 0.897422135
vt 0.570800781 0.897422135
vt 0.570800781 0.845864654
vt 0.571777344 0.845864654
vt 0.571777344 0.880236328
vt 0.618652344 0.880236328
vt 0.618652344 0.845864654
vt 0.160644531 0.864124596
vt 0.160644531 0.89849627
vt 0.207519531 0.89849627
vt 0.207519531 0.864124596
vt 0.208496094 0.864124596
vt 0.208496094 0.915682077
vt 0.239746094 0.915682077
vt 0.239746094 0.864124596
vt 0.972167969 0.000537037849
vt 0.972167969 0.0864661932
vt 0.987792969 0.0864661932
vt 0.987792969 0.000537037849
vt 0.240722656 0.864124596
vt 0.240722656 0.881310403
vt 0.318847656 0.881310403
vt 0.318847656 0.864124596
vt 0.972167969 0.0875402689
vt 0.972167969 0.173469365
vt 0.987792969 0.173469365
vt 0.987792969 0.0875402689
vt 0.319824219 0.864124596
vt 0.319824219 0.89849627
vt 0.351074219 0.89849627
vt 0.351074219 0.864124596
vt 0.352050781 0.864124596
vt 0.352050781 0.873791635
vt 0.414550781 0.873791635
vt 0.414550781 0.864124596
vt 0.720214844 0.866272807
vt 0.720214844 0.883458614
vt 0.782714844 0.883458614
vt 0.782714844 0.866272807
vt 0.783691406 0.866272807
vt 0.783691406 0.883458614
vt 0.846191406 0.883458614
vt 0.846191406 0.866272807
vt 0.847167969 0.866272807
vt 0.847167969 0.883458614
vt 0.909667969 0.883458614
vt 0.909667969 0.866272807
vt 0.972167969 0.1745435
vt 0.972167969 0.226100981
vt 0.987792969 0.226100981
vt 0.987792969 0.1745435
vt 0.910644531 0.866272807
vt 0.910644531 0.883458614
vt 0.957519531 0.883458614
vt 0.957519531 0.866272807
vt 0.352050781 0.87486577
vt 0.352050781 0.88453275
vt 0.398925781 0.88453275
vt 0.398925781 0.87486577
vt 0.476074219 0.881310403
vt 0.476074219 0.89849627
vt 0.522949219 0.89849627
vt 0.522949219 0.881310403
vt 0.571777344 0.881310403
vt 0.571777344 0.89849627
vt 0.618652344 0.89849627
vt 0.618652344 0.881310403
vt 0.972167969 0.227175057
vt 0.972167969 0.261546731
vt 0.987792969 0.261546731
vt 0.987792969 0.227175057
vt 0.972167969 0.262620866
vt 0.972167969 0.296992481
vt 0.987792969 0.296992481
vt 0.987792969 0.262620866
vt 0.972167969 0.298066616
vt 0.972167969 0.332438231
vt 0.987792969 0.332438231
vt 0.987792969 0.298066616
vt 0.958496094 0.866272807
vt 0.958496094 0.883458614
vt 0.989746094 0.883458614
vt 0.989746094 0.866272807
vt 0.415527344 0.864124596
vt 0.415527344 0.89849627
vt 0.431152344 0.89849627
vt 0.431152344 0.864124596
vt 0.240722656 0.882384539
vt 0.240722656 0.916756153
vt 0.256347656 0.916756153
vt 0.256347656 0.882384539
vt 0.257324219 0.882384539
vt 0.257324219 0.916756153
vt 0.272949219 0.916756153
vt 0.272949219 0.882384539
vt 0.273925781 0.882384539
vt 0.273925781 0.916756153
vt 0.289550781 0.916756153
vt 0.289550781 0.882384539
vt 0.720214844 0.88453275
vt 0.720214844 0.901718557
vt 0.751464844 0.901718557
vt 0.751464844 0.88453275
vt 0.290527344 0.882384539
vt 0.290527344 0.916756153
vt 0.306152344 0.916756153
vt 0.306152344 0.882384539
vt 0.752441406 0.88453275
vt 0.752441406 0.918904424
vt 0.768066406 0.918904424
vt 0.768066406 0.88453275
vt 0.769042969 0.88453275
vt 0.769042969 0.901718557
vt 0.784667969 0.901718557
vt 0.784667969 0.88453275
vt 0.785644531 0.88453275
vt 0.785644531 0.901718557
vt 0.801269531 0.901718557
vt 0.801269531 0.88453275
vt 0.802246094 0.88453275
vt 0.802246094 0.901718557
vt 0.817871094 0.901718557
vt 0.817871094 0.88453275
vt 0.818847656 0.88453275
vt 0.818847656 0.901718557
vt 0.834472656 0.901718557
vt 0.834472656 0.88453275
vt 0.835449219 0.88453275
vt 0.835449219 0.901718557
vt 0.851074219 0.901718557
vt 0.851074219 0.88453275
vt 0.852050781 0.88453275
vt 0.852050781 0.901718557
vt 0.867675781 0.901718557
vt 0.867675781 0.88453275
vt 0.868652344 0.88453275
vt 0.868652344 0.901718557
vt 0.884277344 0.901718557
vt 0.884277344 0.88453275
vt 0.885253906 0.88453275
vt 0.885253906 0.901718557
vt 0.900878906 0.901718557
vt 0.900878906 0.88453275
vt 0.901855469 0.88453275
vt 0.901855469 0.901718557
vt 0.917480469 0.901718557
vt 0.917480469 0.88453275
vt 0.918457031 0.88453275
vt 0.918457031 0.901718557
vt 0.934082031 0.901718557
vt 0.934082031 0.88453275
vt 0.935058594 0.88453275
vt 0.935058594 0.901718557
vt 0.950683594 0.901718557
vt 0.950683594 0.88453275
g tashigan_3-mesh_0
f 3/3/3 2/2/2 1/1/1
f 1/1/1 4/4/4 3/3/3
f 7/7/7 6/6/6 5/5/5
f 5/5/5 8/8/8 7/7/7
f 11/11/11 10/10/10 9/9/9
f 9/9/9 12/12/12 11/11/11
f 15/15/15 14/14/14 13/13/13
f 13/13/13 16/16/16 15/15/15
f 19/19/19 18/18/18 17/17/17
f 17/17/17 20/20/20 19/19/19
f 23/23/23 22/22/22 21/21/21
f 21/21/21 24/24/24 23/23/23
f 27/27/27 26/26/26 25/25/25
f 25/25/25 28/28/28 27/27/27
f 31/31/31 30/30/30 29/29/29
f 29/29/29 32/32/32 31/31/31
f 35/35/35 34/34/34 33/33/33
f 33/33/33 36/36/36 35/35/35
f 39/39/39 38/38/38 37/37/37
f 37/37/37 40/40/40 39/39/39
f 43/43/43 42/42/42 41/41/41
f 41/41/41 44/44/44 43/43/43
f 47/47/47 46/46/46 45/45/45
f 45/45/45 48/48/48 47/47/47
f 51/51/51 50/50/50 49/49/49
f 49/49/49 52/52/52 51/51/51
f 55/55/55 54/54/54 53/53/53
f 53/53/53 56/56/56 55/55/55
f 59/59/59 58/58/58 57/57/57
f 57/57/57 60/60/60 59/59/59
f 63/63/63 62/62/62 61/61/61
f 61/61/61 64/64/64 63/63/63
f 67/67/67 66/66/66 65/65/65
f 65/65/65 68/68/68 67/67/67
f 71/71/71 70/70/70 69/69/69
f 69/69/69 72/72/72 71/71/71
f 75/75/75 74/74/74 73/73/73
f 73/73/73 76/76/76 75/75/75
f 79/79/79 78/78/78 77/77/77
f 77/77/77 80/80/80 79/79/79
f 83/83/83 82/82/82 81/81/81
f 81/81/81 84/84/84 83/83/83
f 87/87/87 86/86/86 85/85/85
f 85/85/85 88/88/88 87/87/87
f 91/91/91 90/90/90 89/89/89
f 89/89/89 92/92/92 91/91/91
f 95/95/95 94/94/94 93/93/93
f 93/93/93 96/96/96 95/95/95
f 99/99/99 98/98/98 97/97/97
f 97/97/97 100/100/100 99/99/99
f 103/103/103 102/102/102 101/101/101
f 101/101/101 104/104/104 103/103/103
f 107/107/107 106/106/106 105/105/105
f 105/105/105 108/108/108 107/107/107
f 111/111/111 110/110/110 109/109/109
f 109/109/109 112/112/112 111/111/111
f 115/115/115 114/114/114 113/113/113
f 113/113/113 116/116/116 115/115/115
f 119/119/119 118/118/118 117/117/117
f 117/117/117 120/120/120 119/119/119
f 123/123/123 122/122/122 121/121/121
f 121/121/121 124/124/124 123/123/123
f 127/127/127 126/126/126 125/125/125
f 125/125/125 128/128/128 127/127/127
f 131/131/131 130/130/130 129/129/129
f 129/129/129 132/132/132 131/131/131
f 135/135/135 134/134/134 133/133/133
f 133/133/133 136/136/136 135/135/135
f 139/139/139 138/138/138 137/137/137
f 137/137/137 140/140/140 139/139/139
f 143/143/143 142/142/142 141/141/141
f 141/141/141 144/144/144 143/143/143
f 147/147/147 146/146/146 145/145/145
f 145/145/145 148/148/148 147/147/147
f 151/151/151 150/150/150 149/149/149
f 149/149/149 152/152/152 151/151/151
f 155/155/155 154/154/154 153/153/153
f 153/153/153 156/156/156 155/155/155
f 159/159/159 158/158/158 157/157/157
f 157/157/157 160/160/160 159/159/159
f 163/163/163 162/162/162 161/161/161
f 161/161/161 164/164/164 163/163/163
f 167/167/167 166/166/166 165/165/165
f 165/165/165 168/168/168 167/167/167
f 171/171/171 170/170/170 169/169/169
f 169/169/169 172/172/172 171/171/171
f 175/175/175 174/174/174 173/173/173
f 173/173/173 176/176/176 175/175/175
f 179/179/179 178/178/178 177/177/177
f 177/177/177 180/180/180 179/179/179
f 183/183/183 182/182/182 181/181/181
f 181/181/181 184/184/184 183/183/183
f 187/187/187 186/186/186 185/185/185
f 185/185/185 188/188/188 187/187/187
f 191/191/191 190/190/190 189/189/189
f 189/189/189 192/192/192 191/191/191
f 195/195/195 194/194/194 193/193/193
f 193/193/193 196/196/196 195/195/195
f 199/199/199 198/198/198 197/197/197
f 197/197/197 200/200/200 199/199/199
f 203/203/203 202/202/202 201/201/201
f 201/201/201 204/204/204 203/203/203
f 207/207/207 206/206/206 205/205/205
f 205/205/205 208/208/208 207/207/207
f 211/211/211 210/210/210 209/209/209
f 209/209/209 212/212/212 211/211/211
f 215/215/215 214/214/214 213/213/213
f 213/213/213 216/216/216 215/215/215
f 219/219/219 218/218/218 217/217/217
f 217/217/217 220/220/220 219/219/219
f 223/223/223 222/222/222 221/221/221
f 221/221/221 224/224/224 223/223/223
f 227/227/227 226/226/226 225/225/225
f 225/225/225 228/228/228 227/227/227
f 231/231/231 230/230/230 229/229/229
f 229/229/229 232/232/232 231/231/231
f 235/235/235 234/234/234 233/233/233
f 233/233/233 236/236/236 235/235/235
f 239/239/239 238/238/238 237/237/237
f 237/237/237 240/240/240 239/239/239
f 243/243/243 242/242/242 241/241/241
f 241/241/241 244/244/244 243/243/243
f 247/247/247 246/246/246 245/245/245
f 245/245/245 248/248/248 247/247/247
