g afuleer_4_rw-mesh
v -480 499 0
v -480 1139 0
v -928 1139 0
v -928 499 0
v -928 499 0
v -928 1139 0
v -1344 1139 0
v -1344 499 0
v -576 403 0
v -576 499 0
v -1152 499 0
v -1152 403 0
v -1152 403 0
v -1152 499 0
v -1696 499 0
v -1696 403 0
v -352 819 0
v -352 1107 0
v -480 1107 0
v -480 819 0
v -608 179 0
v -608 339 0
v -832 339 0
v -832 179 0
v -1184 1139 0
v -1184 1299 0
v -1376 1299 0
v -1376 1139 0
v -416 339 0
v -416 403 0
v -864 403 0
v -864 339 0
v -864 339 0
v -864 403 0
v -1280 403 0
v -1280 339 0
v -480 1139 0
v -480 1267 0
v -672 1267 0
v -672 1139 0
v -672 1139 0
v -672 1267 0
v -864 1267 0
v -864 1139 0
v -576 1267 0
v -576 1395 0
v -736 1395 0
v -736 1267 0
v -1344 691 0
v -1344 883 0
v -1440 883 0
v -1440 691 0
v -1344 499 0
v -1344 691 0
v -1440 691 0
v -1440 499 0
v -1376 915 0
v -1376 1043 0
v -1504 1043 0
v -1504 915 0
v -64 531 0
v -64 627 0
v -224 627 0
v -224 531 0
v -1632 307 0
v -1632 403 0
v -1792 403 0
v -1792 307 0
v -224 531 0
v -224 627 0
v -384 627 0
v -384 531 0
v -1504 19 0
v -1504 115 0
v -1632 115 0
v -1632 19 0
v -1760 211 0
v -1760 307 0
v -1888 307 0
v -1888 211 0
v -1920 51 0
v -1920 179 0
v -2016 179 0
v -2016 51 0
v -1408 115 0
v -1408 243 0
v -1504 243 0
v -1504 115 0
v -1408 243 0
v -1408 371 0
v -1504 371 0
v -1504 243 0
v -928 1299 0
v -928 1363 0
v -1056 1363 0
v -1056 1299 0
v -1440 499 0
v -1440 563 0
v -1568 563 0
v -1568 499 0
v -1344 275 0
v -1344 403 0
v -1408 403 0
v -1408 275 0
v -160 435 0
v -160 499 0
v -288 499 0
v -288 435 0
v -672 115 0
v -672 179 0
v -800 179 0
v -800 115 0
v -832 307 0
v -832 339 0
v -1056 339 0
v -1056 307 0
v -416 1139 0
v -416 1235 0
v -480 1235 0
v -480 1139 0
v -0 467 0
v -0 563 0
v -64 563 0
v -64 467 0
v -1408 1171 0
v -1408 1267 0
v -1472 1267 0
v -1472 1171 0
v -544 243 0
v -544 339 0
v -608 339 0
v -608 243 0
v -1056 307 0
v -1056 339 0
v -1248 339 0
v -1248 307 0
v -992 1139 0
v -992 1203 0
v -1088 1203 0
v -1088 1139 0
v -288 435 0
v -288 499 0
v -384 499 0
v -384 435 0
v -800 115 0
v -800 179 0
v -896 179 0
v -896 115 0
v -1056 1299 0
v -1056 1363 0
v -1152 1363 0
v -1152 1299 0
v -288 851 0
v -288 947 0
v -352 947 0
v -352 851 0
v -1088 1139 0
v -1088 1203 0
v -1184 1203 0
v -1184 1139 0
v -288 947 0
v -288 1043 0
v -352 1043 0
v -352 947 0
v -448 659 0
v -448 819 0
v -480 819 0
v -480 659 0
v -288 627 0
v -288 691 0
v -352 691 0
v -352 627 0
v -448 531 0
v -448 659 0
v -480 659 0
v -480 531 0
v -1408 1107 0
v -1408 1171 0
v -1472 1171 0
v -1472 1107 0
v -1440 627 0
v -1440 723 0
v -1472 723 0
v -1472 627 0
v -1888 179 0
v -1888 275 0
v -1920 275 0
v -1920 179 0
v -1344 1043 0
v -1344 1139 0
v -1376 1139 0
v -1376 1043 0
v -1344 947 0
v -1344 1043 0
v -1376 1043 0
v -1376 947 0
v -1376 1107 0
v -1376 1203 0
v -1408 1203 0
v -1408 1107 0
v -1024 275 0
v -1024 307 0
v -1088 307 0
v -1088 275 0
v -896 275 0
v -896 307 0
v -960 307 0
v -960 275 0
v -1504 147 0
v -1504 211 0
v -1536 211 0
v -1536 147 0
v -384 787 0
v -384 819 0
v -448 819 0
v -448 787 0
v -736 1267 0
v -736 1299 0
v -800 1299 0
v -800 1267 0
v -1152 1267 0
v -1152 1331 0
v -1184 1331 0
v -1184 1267 0
v -1408 883 0
v -1408 915 0
v -1472 915 0
v -1472 883 0
v -1504 947 0
v -1504 1011 0
v -1536 1011 0
v -1536 947 0
v -256 947 0
v -256 1011 0
v -288 1011 0
v -288 947 0
v -1536 371 0
v -1536 403 0
v -1600 403 0
v -1600 371 0
v -384 403 0
v -384 467 0
v -416 467 0
v -416 403 0
v -416 627 0
v -416 691 0
v -448 691 0
v -448 627 0
v -1920 179 0
v -1920 243 0
v -1952 243 0
v -1952 179 0
v -1376 211 0
v -1376 275 0
v -1408 275 0
v -1408 211 0
v -1696 275 0
v -1696 307 0
v -1760 307 0
v -1760 275 0
v -1952 19 0
v -1952 51 0
v -2016 51 0
v -2016 19 0
v -1440 83 0
v -1440 115 0
v -1504 115 0
v -1504 83 0
v -1824 179 0
v -1824 211 0
v -1888 211 0
v -1888 179 0
v -1696 403 0
v -1696 467 0
v -1728 467 0
v -1728 403 0
v -96 435 0
v -96 499 0
v -128 499 0
v -128 435 0
v -1568 499 0
v -1568 531 0
v -1632 531 0
v -1632 499 0
v -1792 307 0
v -1792 371 0
v -1824 371 0
v -1824 307 0
v -1408 371 0
v -1408 403 0
v -1472 403 0
v -1472 371 0
v -1312 339 0
v -1312 403 0
v -1344 403 0
v -1344 339 0
v -736 83 0
v -736 115 0
v -800 115 0
v -800 83 0
v -1888 115 0
v -1888 179 0
v -1920 179 0
v -1920 115 0
v -2016 83 0
v -2016 147 0
v -2047 147 0
v -2047 83 0
v -800 83 0
v -800 115 0
v -864 115 0
v -864 83 0
v -1376 1043 0
v -1376 1107 0
v -1408 1107 0
v -1408 1043 0
v -1536 0 0
v -1536 19 0
v -1600 19 0
v -1600 0 0
v -1440 563 0
v -1440 627 0
v -1472 627 0
v -1472 563 0
v -224 403 0
v -224 435 0
v -288 435 0
v -288 403 0
v -64 499 0
v -64 531 0
v -128 531 0
v -128 499 0
v -864 1171 0
v -864 1235 0
v -896 1235 0
v -896 1171 0
v -864 1235 0
v -864 1299 0
v -896 1299 0
v -896 1235 0
v -128 499 0
v -128 531 0
v -192 531 0
v -192 499 0
v -160 403 0
v -160 435 0
v -224 435 0
v -224 403 0
v -288 499 0
v -288 531 0
v -352 531 0
v -352 499 0
v -224 499 0
v -224 531 0
v -288 531 0
v -288 499 0
v -1600 0 0
v -1600 19 0
v -1664 19 0
v -1664 0 0
v -1056 1203 0
v -1056 1235 0
v -1120 1235 0
v -1120 1203 0
v -1472 1203 0
v -1472 1267 0
v -1504 1267 0
v -1504 1203 0
v -896 1267 0
v -896 1331 0
v -928 1331 0
v -928 1267 0
v -544 1299 0
v -544 1363 0
v -576 1363 0
v -576 1299 0
v -2016 19 0
v -2016 83 0
v -2047 83 0
v -2047 19 0
v -256 627 0
v -256 659 0
v -288 659 0
v -288 627 0
v -1440 787 0
v -1440 819 0
v -1472 819 0
v -1472 787 0
v -544 403 0
v -544 435 0
v -576 435 0
v -576 403 0
v -416 723 0
v -416 755 0
v -448 755 0
v -448 723 0
v -128 435 0
v -128 467 0
v -160 467 0
v -160 435 0
v -352 403 0
v -352 435 0
v -384 435 0
v -384 403 0
v -416 403 0
v -416 435 0
v -448 435 0
v -448 403 0
v -32 563 0
v -32 595 0
v -64 595 0
v -64 563 0
v -1472 563 0
v -1472 595 0
v -1504 595 0
v -1504 563 0
v -544 467 0
v -544 499 0
v -576 499 0
v -576 467 0
v -576 211 0
v -576 243 0
v -608 243 0
v -608 211 0
v -1472 51 0
v -1472 83 0
v -1504 83 0
v -1504 51 0
v -1728 243 0
v -1728 275 0
v -1760 275 0
v -1760 243 0
v -1856 147 0
v -1856 179 0
v -1888 179 0
v -1888 147 0
v -768 51 0
v -768 83 0
v -800 83 0
v -800 51 0
v -1952 179 0
v -1952 211 0
v -1984 211 0
v -1984 179 0
v -832 275 0
v -832 307 0
v -864 307 0
v -864 275 0
v -192 371 0
v -192 403 0
v -224 403 0
v -224 371 0
v -1728 403 0
v -1728 435 0
v -1760 435 0
v -1760 403 0
v -1536 115 0
v -1536 147 0
v -1568 147 0
v -1568 115 0
v -1632 19 0
v -1632 51 0
v -1664 51 0
v -1664 19 0
v -1824 307 0
v -1824 339 0
v -1856 339 0
v -1856 307 0
v -1600 339 0
v -1600 371 0
v -1632 371 0
v -1632 339 0
v -416 595 0
v -416 627 0
v -448 627 0
v -448 595 0
v -1472 883 0
v -1472 915 0
v -1504 915 0
v -1504 883 0
v -384 371 0
v -384 403 0
v -416 403 0
v -416 371 0
v -960 275 0
v -960 307 0
v -992 307 0
v -992 275 0
v -1600 371 0
v -1600 403 0
v -1632 403 0
v -1632 371 0
v -1504 915 0
v -1504 947 0
v -1536 947 0
v -1536 915 0
v -896 1235 0
v -896 1267 0
v -928 1267 0
v -928 1235 0
v -544 1267 0
v -544 1299 0
v -576 1299 0
v -576 1267 0
v -1472 1171 0
v -1472 1203 0
v -1504 1203 0
v -1504 1171 0
v -256 915 0
v -256 947 0
v -288 947 0
v -288 915 0
v -1120 1203 0
v -1120 1235 0
v -1152 1235 0
v -1152 1203 0
v -1088 275 0
v -1088 307 0
v -1120 307 0
v -1120 275 0
v -1472 1107 0
v -1472 1139 0
v -1504 1139 0
v -1504 1107 0
v -448 1107 0
v -448 1139 0
v -480 1139 0
v -480 1107 0
v -320 1043 0
v -320 1075 0
v -352 1075 0
v -352 1043 0
v -1536 915 0
v -1536 947 0
v -1568 947 0
v -1568 915 0
v -1408 1043 0
v -1408 1075 0
v -1440 1075 0
v -1440 1043 0
v -960 1139 0
v -960 1171 0
v -992 1171 0
v -992 1139 0
v -1184 1299 0
v -1184 1331 0
v -1216 1331 0
v -1216 1299 0
v -1504 115 0
v -1504 147 0
v -1536 147 0
v -1536 115 0
v -512 1267 0
v -512 1299 0
v -544 1299 0
v -544 1267 0
v -1120 1267 0
v -1120 1299 0
v -1152 1299 0
v -1152 1267 0
v -928 1267 0
v -928 1299 0
v -960 1299 0
v -960 1267 0
vt 0.00048828125 0.00134408474
vt 0.00048828125 0.861559153
vt 0.219238281 0.861559153
vt 0.219238281 0.00134408474
vt 0.220214844 0.00134408474
vt 0.220214844 0.861559153
vt 0.423339844 0.861559153
vt 0.423339844 0.00134408474
vt 0.424316406 0.00134408474
vt 0.424316406 0.130376339
vt 0.705566406 0.130376339
vt 0.705566406 0.00134408474
vt 0.706542969 0.00134408474
vt 0.706542969 0.130376339
vt 0.972167969 0.130376339
vt 0.972167969 0.00134408474
vt 0.424316406 0.133064508
vt 0.424316406 0.520161271
vt 0.486816406 0.520161271
vt 0.486816406 0.133064508
vt 0.487792969 0.133064508
vt 0.487792969 0.348118305
vt 0.597167969 0.348118305
vt 0.597167969 0.133064508
vt 0.598144531 0.133064508
vt 0.598144531 0.348118305
vt 0.691894531 0.348118305
vt 0.691894531 0.133064508
vt 0.692871094 0.133064508
vt 0.692871094 0.219086051
vt 0.911621094 0.219086051
vt 0.911621094 0.133064508
vt 0.692871094 0.22177422
vt 0.692871094 0.307795703
vt 0.895996094 0.307795703
vt 0.895996094 0.22177422
vt 0.896972656 0.22177422
vt 0.896972656 0.393817186
vt 0.990722656 0.393817186
vt 0.990722656 0.22177422
vt 0.692871094 0.310483873
vt 0.692871094 0.482526898
vt 0.786621094 0.482526898
vt 0.786621094 0.310483873
vt 0.787597656 0.310483873
vt 0.787597656 0.482526898
vt 0.865722656 0.482526898
vt 0.865722656 0.310483873
vt 0.487792969 0.350806475
vt 0.487792969 0.608870983
vt 0.534667969 0.608870983
vt 0.534667969 0.350806475
vt 0.535644531 0.350806475
vt 0.535644531 0.608870983
vt 0.582519531 0.608870983
vt 0.582519531 0.350806475
vt 0.583496094 0.350806475
vt 0.583496094 0.522849441
vt 0.645996094 0.522849441
vt 0.645996094 0.350806475
vt 0.896972656 0.396505356
vt 0.896972656 0.52553761
vt 0.975097656 0.52553761
vt 0.975097656 0.396505356
vt 0.692871094 0.485215068
vt 0.692871094 0.614247322
vt 0.770996094 0.614247322
vt 0.770996094 0.485215068
vt 0.771972656 0.485215068
vt 0.771972656 0.614247322
vt 0.850097656 0.614247322
vt 0.850097656 0.485215068
vt 0.424316406 0.522849441
vt 0.424316406 0.651881695
vt 0.486816406 0.651881695
vt 0.486816406 0.522849441
vt 0.583496094 0.52553761
vt 0.583496094 0.654569864
vt 0.645996094 0.654569864
vt 0.645996094 0.52553761
vt 0.896972656 0.52822578
vt 0.896972656 0.700268805
vt 0.943847656 0.700268805
vt 0.943847656 0.52822578
vt 0.944824219 0.52822578
vt 0.944824219 0.700268805
vt 0.991699219 0.700268805
vt 0.991699219 0.52822578
vt 0.487792969 0.611559153
vt 0.487792969 0.783602118
vt 0.534667969 0.783602118
vt 0.534667969 0.611559153
vt 0.692871094 0.616935492
vt 0.692871094 0.702956975
vt 0.755371094 0.702956975
vt 0.755371094 0.616935492
vt 0.756347656 0.616935492
vt 0.756347656 0.702956975
vt 0.818847656 0.702956975
vt 0.818847656 0.616935492
vt 0.646972656 0.350806475
vt 0.646972656 0.522849441
vt 0.678222656 0.522849441
vt 0.678222656 0.350806475
vt 0.819824219 0.616935492
vt 0.819824219 0.702956975
vt 0.882324219 0.702956975
vt 0.882324219 0.616935492
vt 0.424316406 0.654569864
vt 0.424316406 0.740591407
vt 0.486816406 0.740591407
vt 0.486816406 0.654569864
vt 0.692871094 0.705645204
vt 0.692871094 0.748655915
vt 0.802246094 0.748655915
vt 0.802246094 0.705645204
vt 0.646972656 0.52553761
vt 0.646972656 0.654569864
vt 0.678222656 0.654569864
vt 0.678222656 0.52553761
vt 0.535644531 0.611559153
vt 0.535644531 0.740591407
vt 0.566894531 0.740591407
vt 0.566894531 0.611559153
vt 0.583496094 0.657258034
vt 0.583496094 0.786290288
vt 0.614746094 0.786290288
vt 0.614746094 0.657258034
vt 0.615722656 0.657258034
vt 0.615722656 0.786290288
vt 0.646972656 0.786290288
vt 0.646972656 0.657258034
vt 0.896972656 0.702956975
vt 0.896972656 0.745967746
vt 0.990722656 0.745967746
vt 0.990722656 0.702956975
vt 0.803222656 0.705645204
vt 0.803222656 0.791666687
vt 0.850097656 0.791666687
vt 0.850097656 0.705645204
vt 0.424316406 0.743279576
vt 0.424316406 0.829301059
vt 0.471191406 0.829301059
vt 0.471191406 0.743279576
vt 0.535644531 0.743279576
vt 0.535644531 0.829301059
vt 0.582519531 0.829301059
vt 0.582519531 0.743279576
vt 0.896972656 0.748655915
vt 0.896972656 0.834677398
vt 0.943847656 0.834677398
vt 0.943847656 0.748655915
vt 0.647949219 0.657258034
vt 0.647949219 0.786290288
vt 0.679199219 0.786290288
vt 0.679199219 0.657258034
vt 0.944824219 0.748655915
vt 0.944824219 0.834677398
vt 0.991699219 0.834677398
vt 0.991699219 0.748655915
vt 0.851074219 0.705645204
vt 0.851074219 0.834677398
vt 0.882324219 0.834677398
vt 0.882324219 0.705645204
vt 0.692871094 0.751344085
vt 0.692871094 0.966397822
vt 0.708496094 0.966397822
vt 0.708496094 0.751344085
vt 0.709472656 0.751344085
vt 0.709472656 0.837365627
vt 0.740722656 0.837365627
vt 0.740722656 0.751344085
vt 0.741699219 0.751344085
vt 0.741699219 0.92338711
vt 0.757324219 0.92338711
vt 0.757324219 0.751344085
vt 0.758300781 0.751344085
vt 0.758300781 0.837365627
vt 0.789550781 0.837365627
vt 0.789550781 0.751344085
vt 0.487792969 0.786290288
vt 0.487792969 0.915322602
vt 0.503417969 0.915322602
vt 0.503417969 0.786290288
vt 0.504394531 0.786290288
vt 0.504394531 0.915322602
vt 0.520019531 0.915322602
vt 0.520019531 0.786290288
vt 0.583496094 0.788978457
vt 0.583496094 0.918010771
vt 0.599121094 0.918010771
vt 0.599121094 0.788978457
vt 0.600097656 0.788978457
vt 0.600097656 0.918010771
vt 0.615722656 0.918010771
vt 0.615722656 0.788978457
vt 0.616699219 0.788978457
vt 0.616699219 0.918010771
vt 0.632324219 0.918010771
vt 0.632324219 0.788978457
vt 0.633300781 0.788978457
vt 0.633300781 0.831989229
vt 0.664550781 0.831989229
vt 0.664550781 0.788978457
vt 0.803222656 0.794354856
vt 0.803222656 0.837365627
vt 0.834472656 0.837365627
vt 0.834472656 0.794354856
vt 0.665527344 0.788978457
vt 0.665527344 0.875
vt 0.681152344 0.875
vt 0.681152344 0.788978457
vt 0.424316406 0.831989229
vt 0.424316406 0.875
vt 0.455566406 0.875
vt 0.455566406 0.831989229
vt 0.535644531 0.831989229
vt 0.535644531 0.875
vt 0.566894531 0.875
vt 0.566894531 0.831989229
vt 0.456542969 0.831989229
vt 0.456542969 0.918010771
vt 0.472167969 0.918010771
vt 0.472167969 0.831989229
vt 0.633300781 0.834677398
vt 0.633300781 0.877688169
vt 0.664550781 0.877688169
vt 0.664550781 0.834677398
vt 0.851074219 0.837365627
vt 0.851074219 0.92338711
vt 0.866699219 0.92338711
vt 0.866699219 0.837365627
vt 0.867675781 0.837365627
vt 0.867675781 0.92338711
vt 0.883300781 0.92338711
vt 0.883300781 0.837365627
vt 0.896972656 0.837365627
vt 0.896972656 0.880376339
vt 0.928222656 0.880376339
vt 0.928222656 0.837365627
vt 0.929199219 0.837365627
vt 0.929199219 0.92338711
vt 0.944824219 0.92338711
vt 0.944824219 0.837365627
vt 0.945800781 0.837365627
vt 0.945800781 0.92338711
vt 0.961425781 0.92338711
vt 0.961425781 0.837365627
vt 0.962402344 0.837365627
vt 0.962402344 0.92338711
vt 0.978027344 0.92338711
vt 0.978027344 0.837365627
vt 0.979003906 0.837365627
vt 0.979003906 0.92338711
vt 0.994628906 0.92338711
vt 0.994628906 0.837365627
vt 0.709472656 0.840053797
vt 0.709472656 0.883064508
vt 0.740722656 0.883064508
vt 0.740722656 0.840053797
vt 0.758300781 0.840053797
vt 0.758300781 0.883064508
vt 0.789550781 0.883064508
vt 0.789550781 0.840053797
vt 0.803222656 0.840053797
vt 0.803222656 0.883064508
vt 0.834472656 0.883064508
vt 0.834472656 0.840053797
vt 0.00048828125 0.864247322
vt 0.00048828125 0.907258034
vt 0.0317382812 0.907258034
vt 0.0317382812 0.864247322
vt 0.0327148438 0.864247322
vt 0.0327148438 0.950268805
vt 0.0483398438 0.950268805
vt 0.0483398438 0.864247322
vt 0.0493164062 0.864247322
vt 0.0493164062 0.950268805
vt 0.0649414062 0.950268805
vt 0.0649414062 0.864247322
vt 0.0659179688 0.864247322
vt 0.0659179688 0.907258034
vt 0.0971679688 0.907258034
vt 0.0971679688 0.864247322
vt 0.0981445312 0.864247322
vt 0.0981445312 0.950268805
vt 0.113769531 0.950268805
vt 0.113769531 0.864247322
vt 0.114746094 0.864247322
vt 0.114746094 0.907258034
vt 0.145996094 0.907258034
vt 0.145996094 0.864247322
vt 0.146972656 0.864247322
vt 0.146972656 0.950268805
vt 0.162597656 0.950268805
vt 0.162597656 0.864247322
vt 0.163574219 0.864247322
vt 0.163574219 0.907258034
vt 0.194824219 0.907258034
vt 0.194824219 0.864247322
vt 0.195800781 0.864247322
vt 0.195800781 0.950268805
vt 0.211425781 0.950268805
vt 0.211425781 0.864247322
vt 0.212402344 0.864247322
vt 0.212402344 0.950268805
vt 0.228027344 0.950268805
vt 0.228027344 0.864247322
vt 0.229003906 0.864247322
vt 0.229003906 0.907258034
vt 0.260253906 0.907258034
vt 0.260253906 0.864247322
vt 0.261230469 0.864247322
vt 0.261230469 0.950268805
vt 0.276855469 0.950268805
vt 0.276855469 0.864247322
vt 0.277832031 0.864247322
vt 0.277832031 0.891129017
vt 0.309082031 0.891129017
vt 0.309082031 0.864247322
vt 0.310058594 0.864247322
vt 0.310058594 0.950268805
vt 0.325683594 0.950268805
vt 0.325683594 0.864247322
vt 0.326660156 0.864247322
vt 0.326660156 0.907258034
vt 0.357910156 0.907258034
vt 0.357910156 0.864247322
vt 0.358886719 0.864247322
vt 0.358886719 0.907258034
vt 0.390136719 0.907258034
vt 0.390136719 0.864247322
vt 0.391113281 0.864247322
vt 0.391113281 0.950268805
vt 0.406738281 0.950268805
vt 0.406738281 0.864247322
vt 0.407714844 0.864247322
vt 0.407714844 0.950268805
vt 0.423339844 0.950268805
vt 0.423339844 0.864247322
vt 0.424316406 0.877688169
vt 0.424316406 0.920698941
vt 0.455566406 0.920698941
vt 0.455566406 0.877688169
vt 0.535644531 0.877688169
vt 0.535644531 0.920698941
vt 0.566894531 0.920698941
vt 0.566894531 0.877688169
vt 0.633300781 0.880376339
vt 0.633300781 0.92338711
vt 0.664550781 0.92338711
vt 0.664550781 0.880376339
vt 0.896972656 0.883064508
vt 0.896972656 0.92607528
vt 0.928222656 0.92607528
vt 0.928222656 0.883064508
vt 0.709472656 0.885752678
vt 0.709472656 0.912634432
vt 0.740722656 0.912634432
vt 0.740722656 0.885752678
vt 0.758300781 0.885752678
vt 0.758300781 0.928763449
vt 0.789550781 0.928763449
vt 0.789550781 0.885752678
vt 0.665527344 0.877688169
vt 0.665527344 0.963709652
vt 0.681152344 0.963709652
vt 0.681152344 0.877688169
vt 0.803222656 0.885752678
vt 0.803222656 0.97177422
vt 0.818847656 0.97177422
vt 0.818847656 0.885752678
vt 0.819824219 0.885752678
vt 0.819824219 0.97177422
vt 0.835449219 0.97177422
vt 0.835449219 0.885752678
vt 0.277832031 0.893817186
vt 0.277832031 0.979838729
vt 0.293457031 0.979838729
vt 0.293457031 0.893817186
vt 0.00048828125 0.909946203
vt 0.00048828125 0.952956975
vt 0.0161132812 0.952956975
vt 0.0161132812 0.909946203
vt 0.0659179688 0.909946203
vt 0.0659179688 0.952956975
vt 0.0815429688 0.952956975
vt 0.0815429688 0.909946203
vt 0.114746094 0.909946203
vt 0.114746094 0.952956975
vt 0.130371094 0.952956975
vt 0.130371094 0.909946203
vt 0.163574219 0.909946203
vt 0.163574219 0.952956975
vt 0.179199219 0.952956975
vt 0.179199219 0.909946203
vt 0.229003906 0.909946203
vt 0.229003906 0.952956975
vt 0.244628906 0.952956975
vt 0.244628906 0.909946203
vt 0.326660156 0.909946203
vt 0.326660156 0.952956975
vt 0.342285156 0.952956975
vt 0.342285156 0.909946203
vt 0.343261719 0.909946203
vt 0.343261719 0.952956975
vt 0.358886719 0.952956975
vt 0.358886719 0.909946203
vt 0.359863281 0.909946203
vt 0.359863281 0.952956975
vt 0.375488281 0.952956975
vt 0.375488281 0.909946203
vt 0.709472656 0.915322602
vt 0.709472656 0.958333313
vt 0.725097656 0.958333313
vt 0.725097656 0.915322602
vt 0.487792969 0.918010771
vt 0.487792969 0.961021483
vt 0.503417969 0.961021483
vt 0.503417969 0.918010771
vt 0.504394531 0.918010771
vt 0.504394531 0.961021483
vt 0.520019531 0.961021483
vt 0.520019531 0.918010771
vt 0.456542969 0.920698941
vt 0.456542969 0.963709652
vt 0.472167969 0.963709652
vt 0.472167969 0.920698941
vt 0.583496094 0.920698941
vt 0.583496094 0.963709652
vt 0.599121094 0.963709652
vt 0.599121094 0.920698941
vt 0.600097656 0.920698941
vt 0.600097656 0.963709652
vt 0.615722656 0.963709652
vt 0.615722656 0.920698941
vt 0.616699219 0.920698941
vt 0.616699219 0.963709652
vt 0.632324219 0.963709652
vt 0.632324219 0.920698941
vt 0.424316406 0.92338711
vt 0.424316406 0.966397822
vt 0.439941406 0.966397822
vt 0.439941406 0.92338711
vt 0.535644531 0.92338711
vt 0.535644531 0.966397822
vt 0.551269531 0.966397822
vt 0.551269531 0.92338711
vt 0.552246094 0.92338711
vt 0.552246094 0.966397822
vt 0.567871094 0.966397822
vt 0.567871094 0.92338711
vt 0.633300781 0.92607528
vt 0.633300781 0.969086051
vt 0.648925781 0.969086051
vt 0.648925781 0.92607528
vt 0.741699219 0.92607528
vt 0.741699219 0.969086051
vt 0.757324219 0.969086051
vt 0.757324219 0.92607528
vt 0.851074219 0.92607528
vt 0.851074219 0.969086051
vt 0.866699219 0.969086051
vt 0.866699219 0.92607528
vt 0.867675781 0.92607528
vt 0.867675781 0.969086051
vt 0.883300781 0.969086051
vt 0.883300781 0.92607528
vt 0.929199219 0.92607528
vt 0.929199219 0.969086051
vt 0.944824219 0.969086051
vt 0.944824219 0.92607528
vt 0.945800781 0.92607528
vt 0.945800781 0.969086051
vt 0.961425781 0.969086051
vt 0.961425781 0.92607528
vt 0.962402344 0.92607528
vt 0.962402344 0.969086051
vt 0.978027344 0.969086051
vt 0.978027344 0.92607528
vt 0.979003906 0.92607528
vt 0.979003906 0.969086051
vt 0.994628906 0.969086051
vt 0.994628906 0.92607528
vt 0.896972656 0.928763449
vt 0.896972656 0.97177422
vt 0.912597656 0.97177422
vt 0.912597656 0.928763449
vt 0.758300781 0.931451619
vt 0.758300781 0.97446239
vt 0.773925781 0.97446239
vt 0.773925781 0.931451619
vt 0.774902344 0.931451619
vt 0.774902344 0.97446239
vt 0.790527344 0.97446239
vt 0.790527344 0.931451619
vt 0.0327148438 0.952956975
vt 0.0327148438 0.995967746
vt 0.0483398438 0.995967746
vt 0.0483398438 0.952956975
vt 0.0493164062 0.952956975
vt 0.0493164062 0.995967746
vt 0.0649414062 0.995967746
vt 0.0649414062 0.952956975
vt 0.0981445312 0.952956975
vt 0.0981445312 0.995967746
vt 0.113769531 0.995967746
vt 0.113769531 0.952956975
vt 0.146972656 0.952956975
vt 0.146972656 0.995967746
vt 0.162597656 0.995967746
vt 0.162597656 0.952956975
vt 0.195800781 0.952956975
vt 0.195800781 0.995967746
vt 0.211425781 0.995967746
vt 0.211425781 0.952956975
vt 0.212402344 0.952956975
vt 0.212402344 0.995967746
vt 0.228027344 0.995967746
vt 0.228027344 0.952956975
vt 0.261230469 0.952956975
vt 0.261230469 0.995967746
vt 0.276855469 0.995967746
vt 0.276855469 0.952956975
vt 0.310058594 0.952956975
vt 0.310058594 0.995967746
vt 0.325683594 0.995967746
vt 0.325683594 0.952956975
vt 0.391113281 0.952956975
vt 0.391113281 0.995967746
vt 0.406738281 0.995967746
vt 0.406738281 0.952956975
vt 0.407714844 0.952956975
vt 0.407714844 0.995967746
vt 0.423339844 0.995967746
vt 0.423339844 0.952956975
vt 0.00048828125 0.955645144
vt 0.00048828125 0.998655915
vt 0.0161132812 0.998655915
vt 0.0161132812 0.955645144
vt 0.0659179688 0.955645144
vt 0.0659179688 0.998655915
vt 0.0815429688 0.998655915
vt 0.0815429688 0.955645144
vt 0.114746094 0.955645144
vt 0.114746094 0.998655915
vt 0.130371094 0.998655915
vt 0.130371094 0.955645144
vt 0.163574219 0.955645144
vt 0.163574219 0.998655915
vt 0.179199219 0.998655915
vt 0.179199219 0.955645144
vt 0.229003906 0.955645144
vt 0.229003906 0.998655915
vt 0.244628906 0.998655915
vt 0.244628906 0.955645144
vt 0.326660156 0.955645144
vt 0.326660156 0.998655915
vt 0.342285156 0.998655915
vt 0.342285156 0.955645144
vt 0.343261719 0.955645144
vt 0.343261719 0.998655915
vt 0.358886719 0.998655915
vt 0.358886719 0.955645144
g afuleer_4_rw-mesh_0
f 3/3/3 2/2/2 1/1/1
f 1/1/1 4/4/4 3/3/3
f 7/7/7 6/6/6 5/5/5
f 5/5/5 8/8/8 7/7/7
f 11/11/11 10/10/10 9/9/9
f 9/9/9 12/12/12 11/11/11
f 15/15/15 14/14/14 13/13/13
f 13/13/13 16/16/16 15/15/15
f 19/19/19 18/18/18 17/17/17
f 17/17/17 20/20/20 19/19/19
f 23/23/23 22/22/22 21/21/21
f 21/21/21 24/24/24 23/23/23
f 27/27/27 26/26/26 25/25/25
f 25/25/25 28/28/28 27/27/27
f 31/31/31 30/30/30 29/29/29
f 29/29/29 32/32/32 31/31/31
f 35/35/35 34/34/34 33/33/33
f 33/33/33 36/36/36 35/35/35
f 39/39/39 38/38/38 37/37/37
f 37/37/37 40/40/40 39/39/39
f 43/43/43 42/42/42 41/41/41
f 41/41/41 44/44/44 43/43/43
f 47/47/47 46/46/46 45/45/45
f 45/45/45 48/48/48 47/47/47
f 51/51/51 50/50/50 49/49/49
f 49/49/49 52/52/52 51/51/51
f 55/55/55 54/54/54 53/53/53
f 53/53/53 56/56/56 55/55/55
f 59/59/59 58/58/58 57/57/57
f 57/57/57 60/60/60 59/59/59
f 63/63/63 62/62/62 61/61/61
f 61/61/61 64/64/64 63/63/63
f 67/67/67 66/66/66 65/65/65
f 65/65/65 68/68/68 67/67/67
f 71/71/71 70/70/70 69/69/69
f 69/69/69 72/72/72 71/71/71
f 75/75/75 74/74/74 73/73/73
f 73/73/73 76/76/76 75/75/75
f 79/79/79 78/78/78 77/77/77
f 77/77/77 80/80/80 79/79/79
f 83/83/83 82/82/82 81/81/81
f 81/81/81 84/84/84 83/83/83
f 87/87/87 86/86/86 85/85/85
f 85/85/85 88/88/88 87/87/87
f 91/91/91 90/90/90 89/89/89
f 89/89/89 92/92/92 91/91/91
f 95/95/95 94/94/94 93/93/93
f 93/93/93 96/96/96 95/95/95
f 99/99/99 98/98/98 97/97/97
f 97/97/97 100/100/100 99/99/99
f 103/103/103 102/102/102 101/101/101
f 101/101/101 104/104/104 103/103/103
f 107/107/107 106/106/106 105/105/105
f 105/105/105 108/108/108 107/107/107
f 111/111/111 110/110/110 109/109/109
f 109/109/109 112/112/112 111/111/111
f 115/115/115 114/114/114 113/113/113
f 113/113/113 116/116/116 115/115/115
f 119/119/119 118/118/118 117/117/117
f 117/117/117 120/120/120 119/119/119
f 123/123/123 122/122/122 121/121/121
f 121/121/121 124/124/124 123/123/123
f 127/127/127 126/126/126 125/125/125
f 125/125/125 128/128/128 127/127/127
f 131/131/131 130/130/130 129/129/129
f 129/129/129 132/132/132 131/131/131
f 135/135/135 134/134/134 133/133/133
f 133/133/133 136/136/136 135/135/135
f 139/139/139 138/138/138 137/137/137
f 137/137/137 140/140/140 139/139/139
f 143/143/143 142/142/142 141/141/141
f 141/141/141 144/144/144 143/143/143
f 147/147/147 146/146/146 145/145/145
f 145/145/145 148/148/148 147/147/147
f 151/151/151 150/150/150 149/149/149
f 149/149/149 152/152/152 151/151/151
f 155/155/155 154/154/154 153/153/153
f 153/153/153 156/156/156 155/155/155
f 159/159/159 158/158/158 157/157/157
f 157/157/157 160/160/160 159/159/159
f 163/163/163 162/162/162 161/161/161
f 161/161/161 164/164/164 163/163/163
f 167/167/167 166/166/166 165/165/165
f 165/165/165 168/168/168 167/167/167
f 171/171/171 170/170/170 169/169/169
f 169/169/169 172/172/172 171/171/171
f 175/175/175 174/174/174 173/173/173
f 173/173/173 176/176/176 175/175/175
f 179/179/179 178/178/178 177/177/177
f 177/177/177 180/180/180 179/179/179
f 183/183/183 182/182/182 181/181/181
f 181/181/181 184/184/184 183/183/183
f 187/187/187 186/186/186 185/185/185
f 185/185/185 188/188/188 187/187/187
f 191/191/191 190/190/190 189/189/189
f 189/189/189 192/192/192 191/191/191
f 195/195/195 194/194/194 193/193/193
f 193/193/193 196/196/196 195/195/195
f 199/199/199 198/198/198 197/197/197
f 197/197/197 200/200/200 199/199/199
f 203/203/203 202/202/202 201/201/201
f 201/201/201 204/204/204 203/203/203
f 207/207/207 206/206/206 205/205/205
f 205/205/205 208/208/208 207/207/207
f 211/211/211 210/210/210 209/209/209
f 209/209/209 212/212/212 211/211/211
f 215/215/215 214/214/214 213/213/213
f 213/213/213 216/216/216 215/215/215
f 219/219/219 218/218/218 217/217/217
f 217/217/217 220/220/220 219/219/219
f 223/223/223 222/222/222 221/221/221
f 221/221/221 224/224/224 223/223/223
f 227/227/227 226/226/226 225/225/225
f 225/225/225 228/228/228 227/227/227
f 231/231/231 230/230/230 229/229/229
f 229/229/229 232/232/232 231/231/231
f 235/235/235 234/234/234 233/233/233
f 233/233/233 236/236/236 235/235/235
f 239/239/239 238/238/238 237/237/237
f 237/237/237 240/240/240 239/239/239
f 243/243/243 242/242/242 241/241/241
f 241/241/241 244/244/244 243/243/243
f 247/247/247 246/246/246 245/245/245
f 245/245/245 248/248/248 247/247/247
f 251/251/251 250/250/250 249/249/249
f 249/249/249 252/252/252 251/251/251
f 255/255/255 254/254/254 253/253/253
f 253/253/253 256/256/256 255/255/255
f 259/259/259 258/258/258 257/257/257
f 257/257/257 260/260/260 259/259/259
f 263/263/263 262/262/262 261/261/261
f 261/261/261 264/264/264 263/263/263
f 267/267/267 266/266/266 265/265/265
f 265/265/265 268/268/268 267/267/267
f 271/271/271 270/270/270 269/269/269
f 269/269/269 272/272/272 271/271/271
f 275/275/275 274/274/274 273/273/273
f 273/273/273 276/276/276 275/275/275
f 279/279/279 278/278/278 277/277/277
f 277/277/277 280/280/280 279/279/279
f 283/283/283 282/282/282 281/281/281
f 281/281/281 284/284/284 283/283/283
f 287/287/287 286/286/286 285/285/285
f 285/285/285 288/288/288 287/287/287
f 291/291/291 290/290/290 289/289/289
f 289/289/289 292/292/292 291/291/291
f 295/295/295 294/294/294 293/293/293
f 293/293/293 296/296/296 295/295/295
f 299/299/299 298/298/298 297/297/297
f 297/297/297 300/300/300 299/299/299
f 303/303/303 302/302/302 301/301/301
f 301/301/301 304/304/304 303/303/303
f 307/307/307 306/306/306 305/305/305
f 305/305/305 308/308/308 307/307/307
f 311/311/311 310/310/310 309/309/309
f 309/309/309 312/312/312 311/311/311
f 315/315/315 314/314/314 313/313/313
f 313/313/313 316/316/316 315/315/315
f 319/319/319 318/318/318 317/317/317
f 317/317/317 320/320/320 319/319/319
f 323/323/323 322/322/322 321/321/321
f 321/321/321 324/324/324 323/323/323
f 327/327/327 326/326/326 325/325/325
f 325/325/325 328/328/328 327/327/327
f 331/331/331 330/330/330 329/329/329
f 329/329/329 332/332/332 331/331/331
f 335/335/335 334/334/334 333/333/333
f 333/333/333 336/336/336 335/335/335
f 339/339/339 338/338/338 337/337/337
f 337/337/337 340/340/340 339/339/339
f 343/343/343 342/342/342 341/341/341
f 341/341/341 344/344/344 343/343/343
f 347/347/347 346/346/346 345/345/345
f 345/345/345 348/348/348 347/347/347
f 351/351/351 350/350/350 349/349/349
f 349/349/349 352/352/352 351/351/351
f 355/355/355 354/354/354 353/353/353
f 353/353/353 356/356/356 355/355/355
f 359/359/359 358/358/358 357/357/357
f 357/357/357 360/360/360 359/359/359
f 363/363/363 362/362/362 361/361/361
f 361/361/361 364/364/364 363/363/363
f 367/367/367 366/366/366 365/365/365
f 365/365/365 368/368/368 367/367/367
f 371/371/371 370/370/370 369/369/369
f 369/369/369 372/372/372 371/371/371
f 375/375/375 374/374/374 373/373/373
f 373/373/373 376/376/376 375/375/375
f 379/379/379 378/378/378 377/377/377
f 377/377/377 380/380/380 379/379/379
f 383/383/383 382/382/382 381/381/381
f 381/381/381 384/384/384 383/383/383
f 387/387/387 386/386/386 385/385/385
f 385/385/385 388/388/388 387/387/387
f 391/391/391 390/390/390 389/389/389
f 389/389/389 392/392/392 391/391/391
f 395/395/395 394/394/394 393/393/393
f 393/393/393 396/396/396 395/395/395
f 399/399/399 398/398/398 397/397/397
f 397/397/397 400/400/400 399/399/399
f 403/403/403 402/402/402 401/401/401
f 401/401/401 404/404/404 403/403/403
f 407/407/407 406/406/406 405/405/405
f 405/405/405 408/408/408 407/407/407
f 411/411/411 410/410/410 409/409/409
f 409/409/409 412/412/412 411/411/411
f 415/415/415 414/414/414 413/413/413
f 413/413/413 416/416/416 415/415/415
f 419/419/419 418/418/418 417/417/417
f 417/417/417 420/420/420 419/419/419
f 423/423/423 422/422/422 421/421/421
f 421/421/421 424/424/424 423/423/423
f 427/427/427 426/426/426 425/425/425
f 425/425/425 428/428/428 427/427/427
f 431/431/431 430/430/430 429/429/429
f 429/429/429 432/432/432 431/431/431
f 435/435/435 434/434/434 433/433/433
f 433/433/433 436/436/436 435/435/435
f 439/439/439 438/438/438 437/437/437
f 437/437/437 440/440/440 439/439/439
f 443/443/443 442/442/442 441/441/441
f 441/441/441 444/444/444 443/443/443
f 447/447/447 446/446/446 445/445/445
f 445/445/445 448/448/448 447/447/447
f 451/451/451 450/450/450 449/449/449
f 449/449/449 452/452/452 451/451/451
f 455/455/455 454/454/454 453/453/453
f 453/453/453 456/456/456 455/455/455
f 459/459/459 458/458/458 457/457/457
f 457/457/457 460/460/460 459/459/459
f 463/463/463 462/462/462 461/461/461
f 461/461/461 464/464/464 463/463/463
f 467/467/467 466/466/466 465/465/465
f 465/465/465 468/468/468 467/467/467
f 471/471/471 470/470/470 469/469/469
f 469/469/469 472/472/472 471/471/471
f 475/475/475 474/474/474 473/473/473
f 473/473/473 476/476/476 475/475/475
f 479/479/479 478/478/478 477/477/477
f 477/477/477 480/480/480 479/479/479
f 483/483/483 482/482/482 481/481/481
f 481/481/481 484/484/484 483/483/483
f 487/487/487 486/486/486 485/485/485
f 485/485/485 488/488/488 487/487/487
f 491/491/491 490/490/490 489/489/489
f 489/489/489 492/492/492 491/491/491
f 495/495/495 494/494/494 493/493/493
f 493/493/493 496/496/496 495/495/495
f 499/499/499 498/498/498 497/497/497
f 497/497/497 500/500/500 499/499/499
f 503/503/503 502/502/502 501/501/501
f 501/501/501 504/504/504 503/503/503
f 507/507/507 506/506/506 505/505/505
f 505/505/505 508/508/508 507/507/507
f 511/511/511 510/510/510 509/509/509
f 509/509/509 512/512/512 511/511/511
f 515/515/515 514/514/514 513/513/513
f 513/513/513 516/516/516 515/515/515
f 519/519/519 518/518/518 517/517/517
f 517/517/517 520/520/520 519/519/519
f 523/523/523 522/522/522 521/521/521
f 521/521/521 524/524/524 523/523/523
f 527/527/527 526/526/526 525/525/525
f 525/525/525 528/528/528 527/527/527
f 531/531/531 530/530/530 529/529/529
f 529/529/529 532/532/532 531/531/531
f 535/535/535 534/534/534 533/533/533
f 533/533/533 536/536/536 535/535/535
f 539/539/539 538/538/538 537/537/537
f 537/537/537 540/540/540 539/539/539
f 543/543/543 542/542/542 541/541/541
f 541/541/541 544/544/544 543/543/543
f 547/547/547 546/546/546 545/545/545
f 545/545/545 548/548/548 547/547/547
f 551/551/551 550/550/550 549/549/549
f 549/549/549 552/552/552 551/551/551
f 555/555/555 554/554/554 553/553/553
f 553/553/553 556/556/556 555/555/555
f 559/559/559 558/558/558 557/557/557
f 557/557/557 560/560/560 559/559/559
f 563/563/563 562/562/562 561/561/561
f 561/561/561 564/564/564 563/563/563
