g changfeng_2-mesh
v -0 294 0
v -0 1286 0
v -1024 1286 0
v -1024 294 0
v -1024 294 0
v -1024 1286 0
v -2016 1286 0
v -2016 294 0
v -896 262 0
v -896 294 0
v -1792 294 0
v -1792 262 0
v -0 262 0
v -0 294 0
v -896 294 0
v -896 262 0
v -64 1286 0
v -64 1318 0
v -512 1318 0
v -512 1286 0
v -512 1286 0
v -512 1318 0
v -928 1318 0
v -928 1286 0
v -32 230 0
v -32 262 0
v -384 262 0
v -384 230 0
v -1088 1286 0
v -1088 1318 0
v -1440 1318 0
v -1440 1286 0
v -384 230 0
v -384 262 0
v -704 262 0
v -704 230 0
v -1440 1286 0
v -1440 1318 0
v -1760 1318 0
v -1760 1286 0
v -2016 358 0
v -2016 646 0
v -2047 646 0
v -2047 358 0
v -2016 646 0
v -2016 934 0
v -2047 934 0
v -2047 646 0
v -2016 966 0
v -2016 1094 0
v -2047 1094 0
v -2047 966 0
v -2016 1094 0
v -2016 1222 0
v -2047 1222 0
v -2047 1094 0
v -1856 262 0
v -1856 294 0
v -1952 294 0
v -1952 262 0
v -192 198 0
v -192 230 0
v -256 230 0
v -256 198 0
v -1536 230 0
v -1536 262 0
v -1600 262 0
v -1600 230 0
v -320 198 0
v -320 230 0
v -384 230 0
v -384 198 0
v -128 198 0
v -128 230 0
v -192 230 0
v -192 198 0
v -1952 262 0
v -1952 294 0
v -2016 294 0
v -2016 262 0
v -1344 230 0
v -1344 262 0
v -1408 262 0
v -1408 230 0
v -1408 230 0
v -1408 262 0
v -1472 262 0
v -1472 230 0
v -1888 230 0
v -1888 262 0
v -1920 262 0
v -1920 230 0
vt 0.00048828125 0.000778794289
vt 0.00048828125 0.773364484
vt 0.500488281 0.773364484
vt 0.500488281 0.000778794289
vt 0.501464844 0.000778794289
vt 0.501464844 0.773364484
vt 0.985839844 0.773364484
vt 0.985839844 0.000778794289
vt 0.00048828125 0.774922132
vt 0.00048828125 0.799844265
vt 0.437988281 0.799844265
vt 0.437988281 0.774922132
vt 0.438964844 0.774922132
vt 0.438964844 0.799844265
vt 0.876464844 0.799844265
vt 0.876464844 0.774922132
vt 0.00048828125 0.801401854
vt 0.00048828125 0.826323986
vt 0.219238281 0.826323986
vt 0.219238281 0.801401854
vt 0.220214844 0.801401854
vt 0.220214844 0.826323986
vt 0.423339844 0.826323986
vt 0.423339844 0.801401854
vt 0.424316406 0.801401854
vt 0.424316406 0.826323986
vt 0.596191406 0.826323986
vt 0.596191406 0.801401854
vt 0.597167969 0.801401854
vt 0.597167969 0.826323986
vt 0.769042969 0.826323986
vt 0.769042969 0.801401854
vt 0.770019531 0.801401854
vt 0.770019531 0.826323986
vt 0.926269531 0.826323986
vt 0.926269531 0.801401854
vt 0.00048828125 0.827881634
vt 0.00048828125 0.852803707
vt 0.156738281 0.852803707
vt 0.156738281 0.827881634
vt 0.927246094 0.774922132
vt 0.927246094 0.999221206
vt 0.942871094 0.999221206
vt 0.942871094 0.774922132
vt 0.943847656 0.774922132
vt 0.943847656 0.999221206
vt 0.959472656 0.999221206
vt 0.959472656 0.774922132
vt 0.960449219 0.774922132
vt 0.960449219 0.874610603
vt 0.976074219 0.874610603
vt 0.976074219 0.774922132
vt 0.977050781 0.774922132
vt 0.977050781 0.874610603
vt 0.992675781 0.874610603
vt 0.992675781 0.774922132
vt 0.157714844 0.827881634
vt 0.157714844 0.852803707
vt 0.204589844 0.852803707
vt 0.204589844 0.827881634
vt 0.205566406 0.827881634
vt 0.205566406 0.852803707
vt 0.236816406 0.852803707
vt 0.236816406 0.827881634
vt 0.237792969 0.827881634
vt 0.237792969 0.852803707
vt 0.269042969 0.852803707
vt 0.269042969 0.827881634
vt 0.270019531 0.827881634
vt 0.270019531 0.852803707
vt 0.301269531 0.852803707
vt 0.301269531 0.827881634
vt 0.302246094 0.827881634
vt 0.302246094 0.852803707
vt 0.333496094 0.852803707
vt 0.333496094 0.827881634
vt 0.334472656 0.827881634
vt 0.334472656 0.852803707
vt 0.365722656 0.852803707
vt 0.365722656 0.827881634
vt 0.366699219 0.827881634
vt 0.366699219 0.852803707
vt 0.397949219 0.852803707
vt 0.397949219 0.827881634
vt 0.398925781 0.827881634
vt 0.398925781 0.852803707
vt 0.430175781 0.852803707
vt 0.430175781 0.827881634
vt 0.431152344 0.827881634
vt 0.431152344 0.852803707
vt 0.446777344 0.852803707
vt 0.446777344 0.827881634
g changfeng_2-mesh_0
f 3/3/3 2/2/2 1/1/1
f 1/1/1 4/4/4 3/3/3
f 7/7/7 6/6/6 5/5/5
f 5/5/5 8/8/8 7/7/7
f 11/11/11 10/10/10 9/9/9
f 9/9/9 12/12/12 11/11/11
f 15/15/15 14/14/14 13/13/13
f 13/13/13 16/16/16 15/15/15
f 19/19/19 18/18/18 17/17/17
f 17/17/17 20/20/20 19/19/19
f 23/23/23 22/22/22 21/21/21
f 21/21/21 24/24/24 23/23/23
f 27/27/27 26/26/26 25/25/25
f 25/25/25 28/28/28 27/27/27
f 31/31/31 30/30/30 29/29/29
f 29/29/29 32/32/32 31/31/31
f 35/35/35 34/34/34 33/33/33
f 33/33/33 36/36/36 35/35/35
f 39/39/39 38/38/38 37/37/37
f 37/37/37 40/40/40 39/39/39
f 43/43/43 42/42/42 41/41/41
f 41/41/41 44/44/44 43/43/43
f 47/47/47 46/46/46 45/45/45
f 45/45/45 48/48/48 47/47/47
f 51/51/51 50/50/50 49/49/49
f 49/49/49 52/52/52 51/51/51
f 55/55/55 54/54/54 53/53/53
f 53/53/53 56/56/56 55/55/55
f 59/59/59 58/58/58 57/57/57
f 57/57/57 60/60/60 59/59/59
f 63/63/63 62/62/62 61/61/61
f 61/61/61 64/64/64 63/63/63
f 67/67/67 66/66/66 65/65/65
f 65/65/65 68/68/68 67/67/67
f 71/71/71 70/70/70 69/69/69
f 69/69/69 72/72/72 71/71/71
f 75/75/75 74/74/74 73/73/73
f 73/73/73 76/76/76 75/75/75
f 79/79/79 78/78/78 77/77/77
f 77/77/77 80/80/80 79/79/79
f 83/83/83 82/82/82 81/81/81
f 81/81/81 84/84/84 83/83/83
f 87/87/87 86/86/86 85/85/85
f 85/85/85 88/88/88 87/87/87
f 91/91/91 90/90/90 89/89/89
f 89/89/89 92/92/92 91/91/91
