g ajiakesi-mesh
v -96 415 0
v -96 799 0
v -480 799 0
v -480 415 0
v -224 799 0
v -224 959 0
v -512 959 0
v -512 799 0
v -480 479 0
v -480 767 0
v -608 767 0
v -608 479 0
v -256 191 0
v -256 415 0
v -352 415 0
v -352 191 0
v -256 0 0
v -256 191 0
v -352 191 0
v -352 0 0
v -608 543 0
v -608 703 0
v -695 703 0
v -695 543 0
v -0 575 0
v -0 735 0
v -96 735 0
v -96 575 0
v -480 351 0
v -480 479 0
v -576 479 0
v -576 351 0
v -128 799 0
v -128 895 0
v -224 895 0
v -224 799 0
v -352 287 0
v -352 415 0
v -416 415 0
v -416 287 0
v -96 351 0
v -96 415 0
v -192 415 0
v -192 351 0
v -352 191 0
v -352 287 0
v -416 287 0
v -416 191 0
v -256 959 0
v -256 1023 0
v -352 1023 0
v -352 959 0
v -32 511 0
v -32 575 0
v -96 575 0
v -96 511 0
v -608 479 0
v -608 543 0
v -672 543 0
v -672 479 0
v -352 959 0
v -352 1023 0
v -416 1023 0
v -416 959 0
v -352 95 0
v -352 191 0
v -384 191 0
v -384 95 0
v -0 735 0
v -0 767 0
v -64 767 0
v -64 735 0
v -448 351 0
v -448 415 0
v -480 415 0
v -480 351 0
v -480 319 0
v -480 351 0
v -544 351 0
v -544 319 0
v -352 31 0
v -352 95 0
v -384 95 0
v -384 31 0
v -416 959 0
v -416 991 0
v -480 991 0
v -480 959 0
v -544 767 0
v -544 799 0
v -608 799 0
v -608 767 0
v -192 383 0
v -192 415 0
v -224 415 0
v -224 383 0
v -128 319 0
v -128 351 0
v -160 351 0
v -160 319 0
v -192 895 0
v -192 927 0
v -224 927 0
v -224 895 0
v -96 831 0
v -96 863 0
v -128 863 0
v -128 831 0
vt 0.0009765625 0.00235849619
vt 0.0009765625 0.908018887
vt 0.375976562 0.908018887
vt 0.375976562 0.00235849619
vt 0.377929688 0.00235849619
vt 0.377929688 0.379716992
vt 0.659179688 0.379716992
vt 0.659179688 0.00235849619
vt 0.661132812 0.00235849619
vt 0.661132812 0.681603789
vt 0.786132812 0.681603789
vt 0.786132812 0.00235849619
vt 0.788085938 0.00235849619
vt 0.788085938 0.530660391
vt 0.881835938 0.530660391
vt 0.881835938 0.00235849619
vt 0.883789062 0.00235849619
vt 0.883789062 0.455188692
vt 0.977539062 0.455188692
vt 0.977539062 0.00235849619
vt 0.377929688 0.384433985
vt 0.377929688 0.761792421
vt 0.463867188 0.761792421
vt 0.463867188 0.384433985
vt 0.465820312 0.384433985
vt 0.465820312 0.761792421
vt 0.559570312 0.761792421
vt 0.559570312 0.384433985
vt 0.561523438 0.384433985
vt 0.561523438 0.686320782
vt 0.655273438 0.686320782
vt 0.655273438 0.384433985
vt 0.883789062 0.459905684
vt 0.883789062 0.686320782
vt 0.977539062 0.686320782
vt 0.977539062 0.459905684
vt 0.788085938 0.535377383
vt 0.788085938 0.83726418
vt 0.850585938 0.83726418
vt 0.850585938 0.535377383
vt 0.661132812 0.686320782
vt 0.661132812 0.83726418
vt 0.754882812 0.83726418
vt 0.754882812 0.686320782
vt 0.561523438 0.691037774
vt 0.561523438 0.917452812
vt 0.624023438 0.917452812
vt 0.624023438 0.691037774
vt 0.883789062 0.691037774
vt 0.883789062 0.841981113
vt 0.977539062 0.841981113
vt 0.977539062 0.691037774
vt 0.377929688 0.766509414
vt 0.377929688 0.917452812
vt 0.440429688 0.917452812
vt 0.440429688 0.766509414
vt 0.442382812 0.766509414
vt 0.442382812 0.917452812
vt 0.504882812 0.917452812
vt 0.504882812 0.766509414
vt 0.661132812 0.841981113
vt 0.661132812 0.992924511
vt 0.723632812 0.992924511
vt 0.723632812 0.841981113
vt 0.625976562 0.691037774
vt 0.625976562 0.917452812
vt 0.657226562 0.917452812
vt 0.657226562 0.691037774
vt 0.725585938 0.841981113
vt 0.725585938 0.917452812
vt 0.788085938 0.917452812
vt 0.788085938 0.841981113
vt 0.506835938 0.766509414
vt 0.506835938 0.917452812
vt 0.538085938 0.917452812
vt 0.538085938 0.766509414
vt 0.790039062 0.841981113
vt 0.790039062 0.917452812
vt 0.852539062 0.917452812
vt 0.852539062 0.841981113
vt 0.883789062 0.846698105
vt 0.883789062 0.997641504
vt 0.915039062 0.997641504
vt 0.915039062 0.846698105
vt 0.916992188 0.846698105
vt 0.916992188 0.922169805
vt 0.979492188 0.922169805
vt 0.979492188 0.846698105
vt 0.0009765625 0.91273582
vt 0.0009765625 0.988207519
vt 0.0634765625 0.988207519
vt 0.0634765625 0.91273582
vt 0.0654296875 0.91273582
vt 0.0654296875 0.988207519
vt 0.0966796875 0.988207519
vt 0.0966796875 0.91273582
vt 0.0986328125 0.91273582
vt 0.0986328125 0.988207519
vt 0.129882812 0.988207519
vt 0.129882812 0.91273582
vt 0.131835938 0.91273582
vt 0.131835938 0.988207519
vt 0.163085938 0.988207519
vt 0.163085938 0.91273582
vt 0.165039062 0.91273582
vt 0.165039062 0.988207519
vt 0.196289062 0.988207519
vt 0.196289062 0.91273582
g ajiakesi-mesh_0
f 3/3/3 2/2/2 1/1/1
f 1/1/1 4/4/4 3/3/3
f 7/7/7 6/6/6 5/5/5
f 5/5/5 8/8/8 7/7/7
f 11/11/11 10/10/10 9/9/9
f 9/9/9 12/12/12 11/11/11
f 15/15/15 14/14/14 13/13/13
f 13/13/13 16/16/16 15/15/15
f 19/19/19 18/18/18 17/17/17
f 17/17/17 20/20/20 19/19/19
f 23/23/23 22/22/22 21/21/21
f 21/21/21 24/24/24 23/23/23
f 27/27/27 26/26/26 25/25/25
f 25/25/25 28/28/28 27/27/27
f 31/31/31 30/30/30 29/29/29
f 29/29/29 32/32/32 31/31/31
f 35/35/35 34/34/34 33/33/33
f 33/33/33 36/36/36 35/35/35
f 39/39/39 38/38/38 37/37/37
f 37/37/37 40/40/40 39/39/39
f 43/43/43 42/42/42 41/41/41
f 41/41/41 44/44/44 43/43/43
f 47/47/47 46/46/46 45/45/45
f 45/45/45 48/48/48 47/47/47
f 51/51/51 50/50/50 49/49/49
f 49/49/49 52/52/52 51/51/51
f 55/55/55 54/54/54 53/53/53
f 53/53/53 56/56/56 55/55/55
f 59/59/59 58/58/58 57/57/57
f 57/57/57 60/60/60 59/59/59
f 63/63/63 62/62/62 61/61/61
f 61/61/61 64/64/64 63/63/63
f 67/67/67 66/66/66 65/65/65
f 65/65/65 68/68/68 67/67/67
f 71/71/71 70/70/70 69/69/69
f 69/69/69 72/72/72 71/71/71
f 75/75/75 74/74/74 73/73/73
f 73/73/73 76/76/76 75/75/75
f 79/79/79 78/78/78 77/77/77
f 77/77/77 80/80/80 79/79/79
f 83/83/83 82/82/82 81/81/81
f 81/81/81 84/84/84 83/83/83
f 87/87/87 86/86/86 85/85/85
f 85/85/85 88/88/88 87/87/87
f 91/91/91 90/90/90 89/89/89
f 89/89/89 92/92/92 91/91/91
f 95/95/95 94/94/94 93/93/93
f 93/93/93 96/96/96 95/95/95
f 99/99/99 98/98/98 97/97/97
f 97/97/97 100/100/100 99/99/99
f 103/103/103 102/102/102 101/101/101
f 101/101/101 104/104/104 103/103/103
f 107/107/107 106/106/106 105/105/105
f 105/105/105 108/108/108 107/107/107
