g xinyue_jp-mesh
v -224 77 0
v -224 621 0
v -576 621 0
v -576 77 0
v -576 77 0
v -576 621 0
v -896 621 0
v -896 77 0
v -320 621 0
v -320 877 0
v -672 877 0
v -672 621 0
v -224 13 0
v -224 77 0
v -512 77 0
v -512 13 0
v -704 653 0
v -704 781 0
v -832 781 0
v -832 653 0
v -512 13 0
v -512 77 0
v -768 77 0
v -768 13 0
v -128 173 0
v -128 333 0
v -224 333 0
v -224 173 0
v -0 461 0
v -0 557 0
v -128 557 0
v -128 461 0
v -128 45 0
v -128 173 0
v -224 173 0
v -224 45 0
v -576 877 0
v -576 941 0
v -736 941 0
v -736 877 0
v -416 877 0
v -416 941 0
v -576 941 0
v -576 877 0
v -960 397 0
v -960 525 0
v -1023 525 0
v -1023 397 0
v -256 749 0
v -256 877 0
v -320 877 0
v -320 749 0
v -448 941 0
v -448 1005 0
v -576 1005 0
v -576 941 0
v -896 269 0
v -896 493 0
v -928 493 0
v -928 269 0
v -896 45 0
v -896 269 0
v -928 269 0
v -928 45 0
v -64 237 0
v -64 301 0
v -128 301 0
v -128 237 0
v -256 621 0
v -256 685 0
v -320 685 0
v -320 621 0
v -512 0 0
v -512 13 0
v -640 13 0
v -640 0 0
v -192 429 0
v -192 557 0
v -224 557 0
v -224 429 0
v -64 45 0
v -64 109 0
v -128 109 0
v -128 45 0
v -928 45 0
v -928 141 0
v -960 141 0
v -960 45 0
v -192 333 0
v -192 429 0
v -224 429 0
v -224 333 0
v -640 0 0
v -640 13 0
v -736 13 0
v -736 0 0
v -928 141 0
v -928 237 0
v -960 237 0
v -960 141 0
v -928 429 0
v -928 493 0
v -960 493 0
v -960 429 0
v -160 461 0
v -160 525 0
v -192 525 0
v -192 461 0
v -32 557 0
v -32 589 0
v -96 589 0
v -96 557 0
v -160 333 0
v -160 397 0
v -192 397 0
v -192 333 0
v -288 0 0
v -288 13 0
v -352 13 0
v -352 0 0
v -96 13 0
v -96 45 0
v -160 45 0
v -160 13 0
v -960 173 0
v -960 237 0
v -992 237 0
v -992 173 0
v -672 813 0
v -672 877 0
v -704 877 0
v -704 813 0
v -704 621 0
v -704 653 0
v -768 653 0
v -768 621 0
v -672 621 0
v -672 685 0
v -704 685 0
v -704 621 0
v -672 685 0
v -672 749 0
v -704 749 0
v -704 685 0
v -832 877 0
v -832 909 0
v -896 909 0
v -896 877 0
v -768 45 0
v -768 77 0
v -832 77 0
v -832 45 0
v -224 621 0
v -224 653 0
v -256 653 0
v -256 621 0
v -96 301 0
v -96 333 0
v -128 333 0
v -128 301 0
v -992 557 0
v -992 589 0
v -1023 589 0
v -1023 557 0
v -704 845 0
v -704 877 0
v -736 877 0
v -736 845 0
v -768 621 0
v -768 653 0
v -800 653 0
v -800 621 0
v -832 45 0
v -832 77 0
v -864 77 0
v -864 45 0
v -384 877 0
v -384 909 0
v -416 909 0
v -416 877 0
vt 0.0009765625 0.00124377012
vt 0.0009765625 0.677860737
vt 0.344726562 0.677860737
vt 0.344726562 0.00124377012
vt 0.346679688 0.00124377012
vt 0.346679688 0.677860737
vt 0.659179688 0.677860737
vt 0.659179688 0.00124377012
vt 0.0009765625 0.680348277
vt 0.0009765625 0.99875623
vt 0.344726562 0.99875623
vt 0.344726562 0.680348277
vt 0.661132812 0.00124377012
vt 0.661132812 0.0808457732
vt 0.942382812 0.0808457732
vt 0.942382812 0.00124377012
vt 0.661132812 0.0833333135
vt 0.661132812 0.24253732
vt 0.786132812 0.24253732
vt 0.786132812 0.0833333135
vt 0.661132812 0.24502486
vt 0.661132812 0.324626863
vt 0.911132812 0.324626863
vt 0.911132812 0.24502486
vt 0.661132812 0.327114403
vt 0.661132812 0.526119411
vt 0.754882812 0.526119411
vt 0.754882812 0.327114403
vt 0.756835938 0.327114403
vt 0.756835938 0.446517408
vt 0.881835938 0.446517408
vt 0.881835938 0.327114403
vt 0.883789062 0.327114403
vt 0.883789062 0.486318409
vt 0.977539062 0.486318409
vt 0.977539062 0.327114403
vt 0.661132812 0.528606951
vt 0.661132812 0.608208954
vt 0.817382812 0.608208954
vt 0.817382812 0.528606951
vt 0.661132812 0.610696554
vt 0.661132812 0.690298498
vt 0.817382812 0.690298498
vt 0.817382812 0.610696554
vt 0.819335938 0.449004948
vt 0.819335938 0.608208954
vt 0.881835938 0.608208954
vt 0.881835938 0.449004948
vt 0.883789062 0.48880595
vt 0.883789062 0.648009956
vt 0.946289062 0.648009956
vt 0.946289062 0.48880595
vt 0.346679688 0.680348277
vt 0.346679688 0.75995028
vt 0.471679688 0.75995028
vt 0.471679688 0.680348277
vt 0.948242188 0.48880595
vt 0.948242188 0.767412901
vt 0.979492188 0.767412901
vt 0.979492188 0.48880595
vt 0.819335938 0.610696554
vt 0.819335938 0.889303505
vt 0.850585938 0.889303505
vt 0.850585938 0.610696554
vt 0.883789062 0.650497556
vt 0.883789062 0.730099499
vt 0.946289062 0.730099499
vt 0.946289062 0.650497556
vt 0.473632812 0.680348277
vt 0.473632812 0.75995028
vt 0.536132812 0.75995028
vt 0.536132812 0.680348277
vt 0.661132812 0.692786098
vt 0.661132812 0.710198998
vt 0.786132812 0.710198998
vt 0.786132812 0.692786098
vt 0.538085938 0.680348277
vt 0.538085938 0.839552224
vt 0.569335938 0.839552224
vt 0.569335938 0.680348277
vt 0.571289062 0.680348277
vt 0.571289062 0.75995028
vt 0.633789062 0.75995028
vt 0.633789062 0.680348277
vt 0.661132812 0.712686539
vt 0.661132812 0.832089543
vt 0.692382812 0.832089543
vt 0.692382812 0.712686539
vt 0.694335938 0.712686539
vt 0.694335938 0.832089543
vt 0.725585938 0.832089543
vt 0.725585938 0.712686539
vt 0.346679688 0.76243782
vt 0.346679688 0.779850721
vt 0.440429688 0.779850721
vt 0.440429688 0.76243782
vt 0.727539062 0.712686539
vt 0.727539062 0.832089543
vt 0.758789062 0.832089543
vt 0.758789062 0.712686539
vt 0.760742188 0.712686539
vt 0.760742188 0.792288542
vt 0.791992188 0.792288542
vt 0.791992188 0.712686539
vt 0.883789062 0.732587099
vt 0.883789062 0.812189043
vt 0.915039062 0.812189043
vt 0.915039062 0.732587099
vt 0.442382812 0.76243782
vt 0.442382812 0.802238822
vt 0.504882812 0.802238822
vt 0.504882812 0.76243782
vt 0.571289062 0.76243782
vt 0.571289062 0.842039824
vt 0.602539062 0.842039824
vt 0.602539062 0.76243782
vt 0.346679688 0.782338321
vt 0.346679688 0.799751222
vt 0.409179688 0.799751222
vt 0.409179688 0.782338321
vt 0.346679688 0.802238822
vt 0.346679688 0.842039824
vt 0.409179688 0.842039824
vt 0.409179688 0.802238822
vt 0.604492188 0.76243782
vt 0.604492188 0.842039824
vt 0.635742188 0.842039824
vt 0.635742188 0.76243782
vt 0.948242188 0.769900501
vt 0.948242188 0.849502504
vt 0.979492188 0.849502504
vt 0.979492188 0.769900501
vt 0.442382812 0.804726362
vt 0.442382812 0.844527364
vt 0.504882812 0.844527364
vt 0.504882812 0.804726362
vt 0.760742188 0.794776142
vt 0.760742188 0.874378085
vt 0.791992188 0.874378085
vt 0.791992188 0.794776142
vt 0.883789062 0.814676642
vt 0.883789062 0.894278586
vt 0.915039062 0.894278586
vt 0.915039062 0.814676642
vt 0.661132812 0.834577084
vt 0.661132812 0.874378085
vt 0.723632812 0.874378085
vt 0.723632812 0.834577084
vt 0.346679688 0.844527364
vt 0.346679688 0.884328365
vt 0.409179688 0.884328365
vt 0.409179688 0.844527364
vt 0.725585938 0.834577084
vt 0.725585938 0.874378085
vt 0.756835938 0.874378085
vt 0.756835938 0.834577084
vt 0.538085938 0.842039824
vt 0.538085938 0.881840825
vt 0.569335938 0.881840825
vt 0.569335938 0.842039824
vt 0.571289062 0.844527364
vt 0.571289062 0.884328365
vt 0.602539062 0.884328365
vt 0.602539062 0.844527364
vt 0.604492188 0.844527364
vt 0.604492188 0.884328365
vt 0.635742188 0.884328365
vt 0.635742188 0.844527364
vt 0.442382812 0.847014904
vt 0.442382812 0.886815906
vt 0.473632812 0.886815906
vt 0.473632812 0.847014904
vt 0.475585938 0.847014904
vt 0.475585938 0.886815906
vt 0.506835938 0.886815906
vt 0.506835938 0.847014904
vt 0.948242188 0.851990044
vt 0.948242188 0.891791046
vt 0.979492188 0.891791046
vt 0.979492188 0.851990044
g xinyue_jp-mesh_0
f 3/3/3 2/2/2 1/1/1
f 1/1/1 4/4/4 3/3/3
f 7/7/7 6/6/6 5/5/5
f 5/5/5 8/8/8 7/7/7
f 11/11/11 10/10/10 9/9/9
f 9/9/9 12/12/12 11/11/11
f 15/15/15 14/14/14 13/13/13
f 13/13/13 16/16/16 15/15/15
f 19/19/19 18/18/18 17/17/17
f 17/17/17 20/20/20 19/19/19
f 23/23/23 22/22/22 21/21/21
f 21/21/21 24/24/24 23/23/23
f 27/27/27 26/26/26 25/25/25
f 25/25/25 28/28/28 27/27/27
f 31/31/31 30/30/30 29/29/29
f 29/29/29 32/32/32 31/31/31
f 35/35/35 34/34/34 33/33/33
f 33/33/33 36/36/36 35/35/35
f 39/39/39 38/38/38 37/37/37
f 37/37/37 40/40/40 39/39/39
f 43/43/43 42/42/42 41/41/41
f 41/41/41 44/44/44 43/43/43
f 47/47/47 46/46/46 45/45/45
f 45/45/45 48/48/48 47/47/47
f 51/51/51 50/50/50 49/49/49
f 49/49/49 52/52/52 51/51/51
f 55/55/55 54/54/54 53/53/53
f 53/53/53 56/56/56 55/55/55
f 59/59/59 58/58/58 57/57/57
f 57/57/57 60/60/60 59/59/59
f 63/63/63 62/62/62 61/61/61
f 61/61/61 64/64/64 63/63/63
f 67/67/67 66/66/66 65/65/65
f 65/65/65 68/68/68 67/67/67
f 71/71/71 70/70/70 69/69/69
f 69/69/69 72/72/72 71/71/71
f 75/75/75 74/74/74 73/73/73
f 73/73/73 76/76/76 75/75/75
f 79/79/79 78/78/78 77/77/77
f 77/77/77 80/80/80 79/79/79
f 83/83/83 82/82/82 81/81/81
f 81/81/81 84/84/84 83/83/83
f 87/87/87 86/86/86 85/85/85
f 85/85/85 88/88/88 87/87/87
f 91/91/91 90/90/90 89/89/89
f 89/89/89 92/92/92 91/91/91
f 95/95/95 94/94/94 93/93/93
f 93/93/93 96/96/96 95/95/95
f 99/99/99 98/98/98 97/97/97
f 97/97/97 100/100/100 99/99/99
f 103/103/103 102/102/102 101/101/101
f 101/101/101 104/104/104 103/103/103
f 107/107/107 106/106/106 105/105/105
f 105/105/105 108/108/108 107/107/107
f 111/111/111 110/110/110 109/109/109
f 109/109/109 112/112/112 111/111/111
f 115/115/115 114/114/114 113/113/113
f 113/113/113 116/116/116 115/115/115
f 119/119/119 118/118/118 117/117/117
f 117/117/117 120/120/120 119/119/119
f 123/123/123 122/122/122 121/121/121
f 121/121/121 124/124/124 123/123/123
f 127/127/127 126/126/126 125/125/125
f 125/125/125 128/128/128 127/127/127
f 131/131/131 130/130/130 129/129/129
f 129/129/129 132/132/132 131/131/131
f 135/135/135 134/134/134 133/133/133
f 133/133/133 136/136/136 135/135/135
f 139/139/139 138/138/138 137/137/137
f 137/137/137 140/140/140 139/139/139
f 143/143/143 142/142/142 141/141/141
f 141/141/141 144/144/144 143/143/143
f 147/147/147 146/146/146 145/145/145
f 145/145/145 148/148/148 147/147/147
f 151/151/151 150/150/150 149/149/149
f 149/149/149 152/152/152 151/151/151
f 155/155/155 154/154/154 153/153/153
f 153/153/153 156/156/156 155/155/155
f 159/159/159 158/158/158 157/157/157
f 157/157/157 160/160/160 159/159/159
f 163/163/163 162/162/162 161/161/161
f 161/161/161 164/164/164 163/163/163
f 167/167/167 166/166/166 165/165/165
f 165/165/165 168/168/168 167/167/167
f 171/171/171 170/170/170 169/169/169
f 169/169/169 172/172/172 171/171/171
f 175/175/175 174/174/174 173/173/173
f 173/173/173 176/176/176 175/175/175
f 179/179/179 178/178/178 177/177/177
f 177/177/177 180/180/180 179/179/179
