g maikaoer-mesh
v -256 146 0
v -256 626 0
v -672 626 0
v -672 146 0
v -0 18 0
v -0 178 0
v -256 178 0
v -256 18 0
v -256 626 0
v -256 786 0
v -512 786 0
v -512 626 0
v -160 178 0
v -160 370 0
v -256 370 0
v -256 178 0
v -512 50 0
v -512 146 0
v -672 146 0
v -672 50 0
v -384 0 0
v -384 146 0
v -480 146 0
v -480 0 0
v -672 242 0
v -672 370 0
v -768 370 0
v -768 242 0
v -672 114 0
v -672 242 0
v -768 242 0
v -768 114 0
v -256 82 0
v -256 146 0
v -384 146 0
v -384 82 0
v -512 626 0
v -512 722 0
v -576 722 0
v -576 626 0
v -192 402 0
v -192 498 0
v -256 498 0
v -256 402 0
v -64 0 0
v -64 18 0
v -192 18 0
v -192 0 0
v -768 146 0
v -768 242 0
v -800 242 0
v -800 146 0
v -192 690 0
v -192 786 0
v -224 786 0
v -224 690 0
v -192 0 0
v -192 18 0
v -288 18 0
v -288 0 0
v -768 242 0
v -768 338 0
v -800 338 0
v -800 242 0
v -800 146 0
v -800 210 0
v -803 210 0
v -803 146 0
v -672 370 0
v -672 434 0
v -704 434 0
v -704 370 0
v -160 690 0
v -160 754 0
v -192 754 0
v -192 690 0
v -544 18 0
v -544 50 0
v -608 50 0
v -608 18 0
v -256 18 0
v -256 82 0
v -288 82 0
v -288 18 0
v -672 82 0
v -672 114 0
v -736 114 0
v -736 82 0
v -224 562 0
v -224 626 0
v -256 626 0
v -256 562 0
v -224 626 0
v -224 690 0
v -256 690 0
v -256 626 0
v -192 626 0
v -192 690 0
v -224 690 0
v -224 626 0
v -224 722 0
v -224 786 0
v -256 786 0
v -256 722 0
v -128 306 0
v -128 370 0
v -160 370 0
v -160 306 0
v -704 370 0
v -704 402 0
v -736 402 0
v -736 370 0
v -288 50 0
v -288 82 0
v -320 82 0
v -320 50 0
v -352 50 0
v -352 82 0
v -384 82 0
v -384 50 0
v -224 370 0
v -224 402 0
v -256 402 0
v -256 370 0
v -128 274 0
v -128 306 0
v -160 306 0
v -160 274 0
v -512 722 0
v -512 754 0
v -544 754 0
v -544 722 0
v -224 498 0
v -224 530 0
v -256 530 0
v -256 498 0
vt 0.0009765625 0.00207471848
vt 0.0009765625 0.997925282
vt 0.407226562 0.997925282
vt 0.407226562 0.00207471848
vt 0.409179688 0.00207471848
vt 0.409179688 0.334024906
vt 0.659179688 0.334024906
vt 0.659179688 0.00207471848
vt 0.661132812 0.00207471848
vt 0.661132812 0.334024906
vt 0.911132812 0.334024906
vt 0.911132812 0.00207471848
vt 0.409179688 0.338174284
vt 0.409179688 0.736514509
vt 0.502929688 0.736514509
vt 0.502929688 0.338174284
vt 0.504882812 0.338174284
vt 0.504882812 0.537344396
vt 0.661132812 0.537344396
vt 0.661132812 0.338174284
vt 0.663085938 0.338174284
vt 0.663085938 0.643153548
vt 0.756835938 0.643153548
vt 0.756835938 0.338174284
vt 0.758789062 0.338174284
vt 0.758789062 0.603734434
vt 0.852539062 0.603734434
vt 0.852539062 0.338174284
vt 0.854492188 0.338174284
vt 0.854492188 0.603734434
vt 0.948242188 0.603734434
vt 0.948242188 0.338174284
vt 0.504882812 0.541493773
vt 0.504882812 0.674273849
vt 0.629882812 0.674273849
vt 0.629882812 0.541493773
vt 0.758789062 0.607883811
vt 0.758789062 0.807053924
vt 0.821289062 0.807053924
vt 0.821289062 0.607883811
vt 0.823242188 0.607883811
vt 0.823242188 0.807053924
vt 0.885742188 0.807053924
vt 0.885742188 0.607883811
vt 0.504882812 0.678423226
vt 0.504882812 0.71784234
vt 0.629882812 0.71784234
vt 0.629882812 0.678423226
vt 0.950195312 0.00207471848
vt 0.950195312 0.201244831
vt 0.981445312 0.201244831
vt 0.981445312 0.00207471848
vt 0.950195312 0.205394208
vt 0.950195312 0.404564321
vt 0.981445312 0.404564321
vt 0.981445312 0.205394208
vt 0.887695312 0.607883811
vt 0.887695312 0.647302866
vt 0.981445312 0.647302866
vt 0.981445312 0.607883811
vt 0.663085938 0.647302866
vt 0.663085938 0.846473038
vt 0.694335938 0.846473038
vt 0.694335938 0.647302866
vt 0.983398438 0.00207471848
vt 0.983398438 0.134854794
vt 0.987304688 0.134854794
vt 0.987304688 0.00207471848
vt 0.696289062 0.647302866
vt 0.696289062 0.780083001
vt 0.727539062 0.780083001
vt 0.727539062 0.647302866
vt 0.887695312 0.651452303
vt 0.887695312 0.784232378
vt 0.918945312 0.784232378
vt 0.918945312 0.651452303
vt 0.920898438 0.651452303
vt 0.920898438 0.71784234
vt 0.983398438 0.71784234
vt 0.983398438 0.651452303
vt 0.504882812 0.721991658
vt 0.504882812 0.854771793
vt 0.536132812 0.854771793
vt 0.536132812 0.721991658
vt 0.538085938 0.721991658
vt 0.538085938 0.788381755
vt 0.600585938 0.788381755
vt 0.600585938 0.721991658
vt 0.602539062 0.721991658
vt 0.602539062 0.854771793
vt 0.633789062 0.854771793
vt 0.633789062 0.721991658
vt 0.920898438 0.721991658
vt 0.920898438 0.854771793
vt 0.952148438 0.854771793
vt 0.952148438 0.721991658
vt 0.954101562 0.721991658
vt 0.954101562 0.854771793
vt 0.985351562 0.854771793
vt 0.985351562 0.721991658
vt 0.409179688 0.740663886
vt 0.409179688 0.873443961
vt 0.440429688 0.873443961
vt 0.440429688 0.740663886
vt 0.442382812 0.740663886
vt 0.442382812 0.873443961
vt 0.473632812 0.873443961
vt 0.473632812 0.740663886
vt 0.696289062 0.784232378
vt 0.696289062 0.850622416
vt 0.727539062 0.850622416
vt 0.727539062 0.784232378
vt 0.887695312 0.788381755
vt 0.887695312 0.854771793
vt 0.918945312 0.854771793
vt 0.918945312 0.788381755
vt 0.538085938 0.792531133
vt 0.538085938 0.85892117
vt 0.569335938 0.85892117
vt 0.569335938 0.792531133
vt 0.758789062 0.811203301
vt 0.758789062 0.877593338
vt 0.790039062 0.877593338
vt 0.790039062 0.811203301
vt 0.791992188 0.811203301
vt 0.791992188 0.877593338
vt 0.823242188 0.877593338
vt 0.823242188 0.811203301
vt 0.825195312 0.811203301
vt 0.825195312 0.877593338
vt 0.856445312 0.877593338
vt 0.856445312 0.811203301
vt 0.663085938 0.850622416
vt 0.663085938 0.917012453
vt 0.694335938 0.917012453
vt 0.694335938 0.850622416
g maikaoer-mesh_0
f 3/3/3 2/2/2 1/1/1
f 1/1/1 4/4/4 3/3/3
f 7/7/7 6/6/6 5/5/5
f 5/5/5 8/8/8 7/7/7
f 11/11/11 10/10/10 9/9/9
f 9/9/9 12/12/12 11/11/11
f 15/15/15 14/14/14 13/13/13
f 13/13/13 16/16/16 15/15/15
f 19/19/19 18/18/18 17/17/17
f 17/17/17 20/20/20 19/19/19
f 23/23/23 22/22/22 21/21/21
f 21/21/21 24/24/24 23/23/23
f 27/27/27 26/26/26 25/25/25
f 25/25/25 28/28/28 27/27/27
f 31/31/31 30/30/30 29/29/29
f 29/29/29 32/32/32 31/31/31
f 35/35/35 34/34/34 33/33/33
f 33/33/33 36/36/36 35/35/35
f 39/39/39 38/38/38 37/37/37
f 37/37/37 40/40/40 39/39/39
f 43/43/43 42/42/42 41/41/41
f 41/41/41 44/44/44 43/43/43
f 47/47/47 46/46/46 45/45/45
f 45/45/45 48/48/48 47/47/47
f 51/51/51 50/50/50 49/49/49
f 49/49/49 52/52/52 51/51/51
f 55/55/55 54/54/54 53/53/53
f 53/53/53 56/56/56 55/55/55
f 59/59/59 58/58/58 57/57/57
f 57/57/57 60/60/60 59/59/59
f 63/63/63 62/62/62 61/61/61
f 61/61/61 64/64/64 63/63/63
f 67/67/67 66/66/66 65/65/65
f 65/65/65 68/68/68 67/67/67
f 71/71/71 70/70/70 69/69/69
f 69/69/69 72/72/72 71/71/71
f 75/75/75 74/74/74 73/73/73
f 73/73/73 76/76/76 75/75/75
f 79/79/79 78/78/78 77/77/77
f 77/77/77 80/80/80 79/79/79
f 83/83/83 82/82/82 81/81/81
f 81/81/81 84/84/84 83/83/83
f 87/87/87 86/86/86 85/85/85
f 85/85/85 88/88/88 87/87/87
f 91/91/91 90/90/90 89/89/89
f 89/89/89 92/92/92 91/91/91
f 95/95/95 94/94/94 93/93/93
f 93/93/93 96/96/96 95/95/95
f 99/99/99 98/98/98 97/97/97
f 97/97/97 100/100/100 99/99/99
f 103/103/103 102/102/102 101/101/101
f 101/101/101 104/104/104 103/103/103
f 107/107/107 106/106/106 105/105/105
f 105/105/105 108/108/108 107/107/107
f 111/111/111 110/110/110 109/109/109
f 109/109/109 112/112/112 111/111/111
f 115/115/115 114/114/114 113/113/113
f 113/113/113 116/116/116 115/115/115
f 119/119/119 118/118/118 117/117/117
f 117/117/117 120/120/120 119/119/119
f 123/123/123 122/122/122 121/121/121
f 121/121/121 124/124/124 123/123/123
f 127/127/127 126/126/126 125/125/125
f 125/125/125 128/128/128 127/127/127
f 131/131/131 130/130/130 129/129/129
f 129/129/129 132/132/132 131/131/131
f 135/135/135 134/134/134 133/133/133
f 133/133/133 136/136/136 135/135/135
