g kuangsan_2_bj-mesh
v -1536 0 0
v -1536 425 0
v -2047 425 0
v -2047 0 0
v -1376 0 0
v -1376 297 0
v -1536 297 0
v -1536 0 0
v -1696 425 0
v -1696 489 0
v -1888 489 0
v -1888 425 0
v -1888 425 0
v -1888 489 0
v -2047 489 0
v -2047 425 0
v -1952 489 0
v -1952 585 0
v -2047 585 0
v -2047 489 0
v -1312 73 0
v -1312 169 0
v -1376 169 0
v -1376 73 0
v -1472 297 0
v -1472 361 0
v -1536 361 0
v -1536 297 0
v -1312 9 0
v -1312 73 0
v -1376 73 0
v -1376 9 0
v -1056 105 0
v -1056 137 0
v -1120 137 0
v -1120 105 0
v -1344 169 0
v -1344 233 0
v -1376 233 0
v -1376 169 0
v -1408 297 0
v -1408 329 0
v -1472 329 0
v -1472 297 0
v -1888 489 0
v -1888 521 0
v -1952 521 0
v -1952 489 0
v -1600 425 0
v -1600 457 0
v -1664 457 0
v -1664 425 0
v -1824 489 0
v -1824 521 0
v -1888 521 0
v -1888 489 0
v -1120 137 0
v -1120 169 0
v -1152 169 0
v -1152 137 0
v -1056 73 0
v -1056 105 0
v -1088 105 0
v -1088 73 0
v -1344 0 0
v -1344 9 0
v -1376 9 0
v -1376 0 0
v -1504 361 0
v -1504 393 0
v -1536 393 0
v -1536 361 0
v -1120 105 0
v -1120 137 0
v -1152 137 0
v -1152 105 0
v -1664 425 0
v -1664 457 0
v -1696 457 0
v -1696 425 0
v -1920 521 0
v -1920 553 0
v -1952 553 0
v -1952 521 0
vt 0.0009765625 0.00233644247
vt 0.0009765625 0.997663558
vt 0.500976562 0.997663558
vt 0.500976562 0.00233644247
vt 0.502929688 0.00233644247
vt 0.502929688 0.698598146
vt 0.659179688 0.698598146
vt 0.659179688 0.00233644247
vt 0.661132812 0.00233644247
vt 0.661132812 0.151869178
vt 0.848632812 0.151869178
vt 0.848632812 0.00233644247
vt 0.661132812 0.156542063
vt 0.661132812 0.306074739
vt 0.817382812 0.306074739
vt 0.817382812 0.156542063
vt 0.850585938 0.00233644247
vt 0.850585938 0.226635516
vt 0.944335938 0.226635516
vt 0.944335938 0.00233644247
vt 0.850585938 0.231308401
vt 0.850585938 0.455607474
vt 0.913085938 0.455607474
vt 0.913085938 0.231308401
vt 0.915039062 0.231308401
vt 0.915039062 0.380841136
vt 0.977539062 0.380841136
vt 0.977539062 0.231308401
vt 0.661132812 0.310747683
vt 0.661132812 0.460280359
vt 0.723632812 0.460280359
vt 0.723632812 0.310747683
vt 0.725585938 0.310747683
vt 0.725585938 0.385514021
vt 0.788085938 0.385514021
vt 0.788085938 0.310747683
vt 0.790039062 0.310747683
vt 0.790039062 0.460280359
vt 0.821289062 0.460280359
vt 0.821289062 0.310747683
vt 0.915039062 0.385514021
vt 0.915039062 0.460280359
vt 0.977539062 0.460280359
vt 0.977539062 0.385514021
vt 0.725585938 0.390186906
vt 0.725585938 0.464953244
vt 0.788085938 0.464953244
vt 0.788085938 0.390186906
vt 0.850585938 0.460280359
vt 0.850585938 0.535046697
vt 0.913085938 0.535046697
vt 0.913085938 0.460280359
vt 0.661132812 0.464953244
vt 0.661132812 0.539719582
vt 0.723632812 0.539719582
vt 0.723632812 0.464953244
vt 0.790039062 0.464953244
vt 0.790039062 0.539719582
vt 0.821289062 0.539719582
vt 0.821289062 0.464953244
vt 0.915039062 0.464953244
vt 0.915039062 0.539719582
vt 0.946289062 0.539719582
vt 0.946289062 0.464953244
vt 0.948242188 0.464953244
vt 0.948242188 0.488317728
vt 0.979492188 0.488317728
vt 0.979492188 0.464953244
vt 0.725585938 0.469626188
vt 0.725585938 0.544392526
vt 0.756835938 0.544392526
vt 0.756835938 0.469626188
vt 0.948242188 0.492990673
vt 0.948242188 0.56775701
vt 0.979492188 0.56775701
vt 0.979492188 0.492990673
vt 0.850585938 0.539719582
vt 0.850585938 0.614485979
vt 0.881835938 0.614485979
vt 0.881835938 0.539719582
vt 0.661132812 0.544392526
vt 0.661132812 0.619158864
vt 0.692382812 0.619158864
vt 0.692382812 0.544392526
g kuangsan_2_bj-mesh_0
f 3/3/3 2/2/2 1/1/1
f 1/1/1 4/4/4 3/3/3
f 7/7/7 6/6/6 5/5/5
f 5/5/5 8/8/8 7/7/7
f 11/11/11 10/10/10 9/9/9
f 9/9/9 12/12/12 11/11/11
f 15/15/15 14/14/14 13/13/13
f 13/13/13 16/16/16 15/15/15
f 19/19/19 18/18/18 17/17/17
f 17/17/17 20/20/20 19/19/19
f 23/23/23 22/22/22 21/21/21
f 21/21/21 24/24/24 23/23/23
f 27/27/27 26/26/26 25/25/25
f 25/25/25 28/28/28 27/27/27
f 31/31/31 30/30/30 29/29/29
f 29/29/29 32/32/32 31/31/31
f 35/35/35 34/34/34 33/33/33
f 33/33/33 36/36/36 35/35/35
f 39/39/39 38/38/38 37/37/37
f 37/37/37 40/40/40 39/39/39
f 43/43/43 42/42/42 41/41/41
f 41/41/41 44/44/44 43/43/43
f 47/47/47 46/46/46 45/45/45
f 45/45/45 48/48/48 47/47/47
f 51/51/51 50/50/50 49/49/49
f 49/49/49 52/52/52 51/51/51
f 55/55/55 54/54/54 53/53/53
f 53/53/53 56/56/56 55/55/55
f 59/59/59 58/58/58 57/57/57
f 57/57/57 60/60/60 59/59/59
f 63/63/63 62/62/62 61/61/61
f 61/61/61 64/64/64 63/63/63
f 67/67/67 66/66/66 65/65/65
f 65/65/65 68/68/68 67/67/67
f 71/71/71 70/70/70 69/69/69
f 69/69/69 72/72/72 71/71/71
f 75/75/75 74/74/74 73/73/73
f 73/73/73 76/76/76 75/75/75
f 79/79/79 78/78/78 77/77/77
f 77/77/77 80/80/80 79/79/79
f 83/83/83 82/82/82 81/81/81
f 81/81/81 84/84/84 83/83/83
