g rangbaer_3-mesh
v -320 163 0
v -320 1283 0
v -992 1283 0
v -992 163 0
v -992 163 0
v -992 1283 0
v -1632 1283 0
v -1632 163 0
v -1632 195 0
v -1632 675 0
v -1984 675 0
v -1984 195 0
v -96 227 0
v -96 643 0
v -320 643 0
v -320 227 0
v -704 1283 0
v -704 1507 0
v -1024 1507 0
v -1024 1283 0
v -1024 1283 0
v -1024 1507 0
v -1344 1507 0
v -1344 1283 0
v -640 35 0
v -640 163 0
v -1152 163 0
v -1152 35 0
v -1152 35 0
v -1152 163 0
v -1632 163 0
v -1632 35 0
v -1632 675 0
v -1632 995 0
v -1792 995 0
v -1792 675 0
v -1344 1283 0
v -1344 1411 0
v -1536 1411 0
v -1536 1283 0
v -0 259 0
v -0 451 0
v -96 451 0
v -96 259 0
v -576 1283 0
v -576 1411 0
v -704 1411 0
v -704 1283 0
v -1632 67 0
v -1632 195 0
v -1760 195 0
v -1760 67 0
v -192 643 0
v -192 771 0
v -288 771 0
v -288 643 0
v -192 1027 0
v -192 1155 0
v -288 1155 0
v -288 1027 0
v -1120 3 0
v -1120 35 0
v -1504 35 0
v -1504 3 0
v -736 3 0
v -736 35 0
v -1120 35 0
v -1120 3 0
v -288 643 0
v -288 931 0
v -320 931 0
v -320 643 0
v -288 931 0
v -288 1219 0
v -320 1219 0
v -320 931 0
v -1984 355 0
v -1984 483 0
v -2047 483 0
v -2047 355 0
v -1760 99 0
v -1760 195 0
v -1824 195 0
v -1824 99 0
v -480 99 0
v -480 163 0
v -576 163 0
v -576 99 0
v -1792 739 0
v -1792 835 0
v -1856 835 0
v -1856 739 0
v -1632 1091 0
v -1632 1187 0
v -1696 1187 0
v -1696 1091 0
v -1984 259 0
v -1984 355 0
v -2047 355 0
v -2047 259 0
v -1632 995 0
v -1632 1091 0
v -1696 1091 0
v -1696 995 0
v -1536 1283 0
v -1536 1347 0
v -1600 1347 0
v -1600 1283 0
v -512 1283 0
v -512 1347 0
v -576 1347 0
v -576 1283 0
v -1824 131 0
v -1824 195 0
v -1888 195 0
v -1888 131 0
v -128 675 0
v -128 739 0
v -192 739 0
v -192 675 0
v -128 1027 0
v -128 1091 0
v -192 1091 0
v -192 1027 0
v -864 0 0
v -864 3 0
v -992 3 0
v -992 0 0
v -576 99 0
v -576 163 0
v -640 163 0
v -640 99 0
v -1792 675 0
v -1792 739 0
v -1856 739 0
v -1856 675 0
v -1344 1411 0
v -1344 1475 0
v -1408 1475 0
v -1408 1411 0
v -992 0 0
v -992 3 0
v -1088 3 0
v -1088 0 0
v -448 1283 0
v -448 1315 0
v -512 1315 0
v -512 1283 0
v -1632 1187 0
v -1632 1251 0
v -1664 1251 0
v -1664 1187 0
v -544 67 0
v -544 99 0
v -608 99 0
v -608 67 0
v -384 131 0
v -384 163 0
v -448 163 0
v -448 131 0
v -1408 1411 0
v -1408 1443 0
v -1472 1443 0
v -1472 1411 0
v -1728 995 0
v -1728 1059 0
v -1760 1059 0
v -1760 995 0
v -256 163 0
v -256 195 0
v -320 195 0
v -320 163 0
v -1888 163 0
v -1888 195 0
v -1952 195 0
v -1952 163 0
v -64 579 0
v -64 643 0
v -96 643 0
v -96 579 0
v -224 771 0
v -224 803 0
v -288 803 0
v -288 771 0
v -1856 675 0
v -1856 739 0
v -1888 739 0
v -1888 675 0
v -608 1411 0
v -608 1443 0
v -672 1443 0
v -672 1411 0
v -320 1283 0
v -320 1315 0
v -384 1315 0
v -384 1283 0
v -256 195 0
v -256 227 0
v -320 227 0
v -320 195 0
v -1696 1059 0
v -1696 1123 0
v -1728 1123 0
v -1728 1059 0
v -1696 995 0
v -1696 1059 0
v -1728 1059 0
v -1728 995 0
v -1792 867 0
v -1792 931 0
v -1824 931 0
v -1824 867 0
v -1984 547 0
v -1984 611 0
v -2016 611 0
v -2016 547 0
v -192 195 0
v -192 227 0
v -256 227 0
v -256 195 0
v -256 1155 0
v -256 1187 0
v -288 1187 0
v -288 1155 0
v -1536 1347 0
v -1536 1379 0
v -1568 1379 0
v -1568 1347 0
v -1984 227 0
v -1984 259 0
v -2016 259 0
v -2016 227 0
v -32 579 0
v -32 611 0
v -64 611 0
v -64 579 0
v -256 867 0
v -256 899 0
v -288 899 0
v -288 867 0
v -64 227 0
v -64 259 0
v -96 259 0
v -96 227 0
v -160 1091 0
v -160 1123 0
v -192 1123 0
v -192 1091 0
v -544 1347 0
v -544 1379 0
v -576 1379 0
v -576 1347 0
v -608 67 0
v -608 99 0
v -640 99 0
v -640 67 0
v -1792 835 0
v -1792 867 0
v -1824 867 0
v -1824 835 0
v -448 131 0
v -448 163 0
v -480 163 0
v -480 131 0
v -384 1283 0
v -384 1315 0
v -416 1315 0
v -416 1283 0
v -672 1443 0
v -672 1475 0
v -704 1475 0
v -704 1443 0
v -1984 515 0
v -1984 547 0
v -2016 547 0
v -2016 515 0
v -672 1411 0
v -672 1443 0
v -704 1443 0
v -704 1411 0
vt 0.00048828125 0.000721514225
vt 0.00048828125 0.808802307
vt 0.328613281 0.808802307
vt 0.328613281 0.000721514225
vt 0.329589844 0.000721514225
vt 0.329589844 0.808802307
vt 0.642089844 0.808802307
vt 0.642089844 0.000721514225
vt 0.643066406 0.000721514225
vt 0.643066406 0.347041845
vt 0.814941406 0.347041845
vt 0.814941406 0.000721514225
vt 0.815917969 0.000721514225
vt 0.815917969 0.300865829
vt 0.925292969 0.300865829
vt 0.925292969 0.000721514225
vt 0.815917969 0.302308798
vt 0.815917969 0.463924944
vt 0.972167969 0.463924944
vt 0.972167969 0.302308798
vt 0.643066406 0.348484874
vt 0.643066406 0.51010102
vt 0.799316406 0.51010102
vt 0.799316406 0.348484874
vt 0.643066406 0.511543989
vt 0.643066406 0.603896141
vt 0.893066406 0.603896141
vt 0.893066406 0.511543989
vt 0.643066406 0.60533911
vt 0.643066406 0.697691202
vt 0.877441406 0.697691202
vt 0.877441406 0.60533911
vt 0.894042969 0.465367973
vt 0.894042969 0.696248174
vt 0.972167969 0.696248174
vt 0.972167969 0.465367973
vt 0.894042969 0.697691202
vt 0.894042969 0.790043294
vt 0.987792969 0.790043294
vt 0.987792969 0.697691202
vt 0.643066406 0.699134231
vt 0.643066406 0.837662339
vt 0.689941406 0.837662339
vt 0.689941406 0.699134231
vt 0.690917969 0.699134231
vt 0.690917969 0.791486263
vt 0.753417969 0.791486263
vt 0.753417969 0.699134231
vt 0.754394531 0.699134231
vt 0.754394531 0.791486263
vt 0.816894531 0.791486263
vt 0.816894531 0.699134231
vt 0.817871094 0.699134231
vt 0.817871094 0.791486263
vt 0.864746094 0.791486263
vt 0.864746094 0.699134231
vt 0.894042969 0.791486263
vt 0.894042969 0.883838415
vt 0.940917969 0.883838415
vt 0.940917969 0.791486263
vt 0.690917969 0.792929292
vt 0.690917969 0.81601733
vt 0.878417969 0.81601733
vt 0.878417969 0.792929292
vt 0.00048828125 0.810245275
vt 0.00048828125 0.833333313
vt 0.187988281 0.833333313
vt 0.187988281 0.810245275
vt 0.941894531 0.791486263
vt 0.941894531 0.999278486
vt 0.957519531 0.999278486
vt 0.957519531 0.791486263
vt 0.958496094 0.791486263
vt 0.958496094 0.999278486
vt 0.974121094 0.999278486
vt 0.974121094 0.791486263
vt 0.188964844 0.810245275
vt 0.188964844 0.902597427
vt 0.220214844 0.902597427
vt 0.220214844 0.810245275
vt 0.221191406 0.810245275
vt 0.221191406 0.879509389
vt 0.252441406 0.879509389
vt 0.252441406 0.810245275
vt 0.253417969 0.810245275
vt 0.253417969 0.856421351
vt 0.300292969 0.856421351
vt 0.300292969 0.810245275
vt 0.301269531 0.810245275
vt 0.301269531 0.879509389
vt 0.332519531 0.879509389
vt 0.332519531 0.810245275
vt 0.333496094 0.810245275
vt 0.333496094 0.879509389
vt 0.364746094 0.879509389
vt 0.364746094 0.810245275
vt 0.365722656 0.810245275
vt 0.365722656 0.879509389
vt 0.396972656 0.879509389
vt 0.396972656 0.810245275
vt 0.397949219 0.810245275
vt 0.397949219 0.879509389
vt 0.429199219 0.879509389
vt 0.429199219 0.810245275
vt 0.430175781 0.810245275
vt 0.430175781 0.856421351
vt 0.461425781 0.856421351
vt 0.461425781 0.810245275
vt 0.462402344 0.810245275
vt 0.462402344 0.856421351
vt 0.493652344 0.856421351
vt 0.493652344 0.810245275
vt 0.494628906 0.810245275
vt 0.494628906 0.856421351
vt 0.525878906 0.856421351
vt 0.525878906 0.810245275
vt 0.526855469 0.810245275
vt 0.526855469 0.856421351
vt 0.558105469 0.856421351
vt 0.558105469 0.810245275
vt 0.559082031 0.810245275
vt 0.559082031 0.856421351
vt 0.590332031 0.856421351
vt 0.590332031 0.810245275
vt 0.690917969 0.817460299
vt 0.690917969 0.820346355
vt 0.753417969 0.820346355
vt 0.753417969 0.817460299
vt 0.591308594 0.810245275
vt 0.591308594 0.856421351
vt 0.622558594 0.856421351
vt 0.622558594 0.810245275
vt 0.754394531 0.817460299
vt 0.754394531 0.863636374
vt 0.785644531 0.863636374
vt 0.785644531 0.817460299
vt 0.786621094 0.817460299
vt 0.786621094 0.863636374
vt 0.817871094 0.863636374
vt 0.817871094 0.817460299
vt 0.818847656 0.817460299
vt 0.818847656 0.820346355
vt 0.865722656 0.820346355
vt 0.865722656 0.817460299
vt 0.690917969 0.821789324
vt 0.690917969 0.844877362
vt 0.722167969 0.844877362
vt 0.722167969 0.821789324
vt 0.975097656 0.791486263
vt 0.975097656 0.837662339
vt 0.990722656 0.837662339
vt 0.990722656 0.791486263
vt 0.818847656 0.821789324
vt 0.818847656 0.844877362
vt 0.850097656 0.844877362
vt 0.850097656 0.821789324
vt 0.851074219 0.821789324
vt 0.851074219 0.844877362
vt 0.882324219 0.844877362
vt 0.882324219 0.821789324
vt 0.00048828125 0.834776342
vt 0.00048828125 0.85786438
vt 0.0317382812 0.85786438
vt 0.0317382812 0.834776342
vt 0.623535156 0.810245275
vt 0.623535156 0.856421351
vt 0.639160156 0.856421351
vt 0.639160156 0.810245275
vt 0.0327148438 0.834776342
vt 0.0327148438 0.85786438
vt 0.0639648438 0.85786438
vt 0.0639648438 0.834776342
vt 0.0649414062 0.834776342
vt 0.0649414062 0.85786438
vt 0.0961914062 0.85786438
vt 0.0961914062 0.834776342
vt 0.723144531 0.821789324
vt 0.723144531 0.867965341
vt 0.738769531 0.867965341
vt 0.738769531 0.821789324
vt 0.0971679688 0.834776342
vt 0.0971679688 0.85786438
vt 0.128417969 0.85786438
vt 0.128417969 0.834776342
vt 0.129394531 0.834776342
vt 0.129394531 0.880952358
vt 0.145019531 0.880952358
vt 0.145019531 0.834776342
vt 0.145996094 0.834776342
vt 0.145996094 0.85786438
vt 0.177246094 0.85786438
vt 0.177246094 0.834776342
vt 0.643066406 0.839105368
vt 0.643066406 0.862193346
vt 0.674316406 0.862193346
vt 0.674316406 0.839105368
vt 0.690917969 0.846320331
vt 0.690917969 0.869408369
vt 0.722167969 0.869408369
vt 0.722167969 0.846320331
vt 0.975097656 0.839105368
vt 0.975097656 0.885281384
vt 0.990722656 0.885281384
vt 0.990722656 0.839105368
vt 0.818847656 0.846320331
vt 0.818847656 0.892496407
vt 0.834472656 0.892496407
vt 0.834472656 0.846320331
vt 0.835449219 0.846320331
vt 0.835449219 0.892496407
vt 0.851074219 0.892496407
vt 0.851074219 0.846320331
vt 0.852050781 0.846320331
vt 0.852050781 0.892496407
vt 0.867675781 0.892496407
vt 0.867675781 0.846320331
vt 0.253417969 0.85786438
vt 0.253417969 0.880952358
vt 0.284667969 0.880952358
vt 0.284667969 0.85786438
vt 0.868652344 0.846320331
vt 0.868652344 0.869408369
vt 0.884277344 0.869408369
vt 0.884277344 0.846320331
vt 0.430175781 0.85786438
vt 0.430175781 0.880952358
vt 0.445800781 0.880952358
vt 0.445800781 0.85786438
vt 0.446777344 0.85786438
vt 0.446777344 0.880952358
vt 0.462402344 0.880952358
vt 0.462402344 0.85786438
vt 0.463378906 0.85786438
vt 0.463378906 0.880952358
vt 0.479003906 0.880952358
vt 0.479003906 0.85786438
vt 0.479980469 0.85786438
vt 0.479980469 0.880952358
vt 0.495605469 0.880952358
vt 0.495605469 0.85786438
vt 0.496582031 0.85786438
vt 0.496582031 0.880952358
vt 0.512207031 0.880952358
vt 0.512207031 0.85786438
vt 0.513183594 0.85786438
vt 0.513183594 0.880952358
vt 0.528808594 0.880952358
vt 0.528808594 0.85786438
vt 0.529785156 0.85786438
vt 0.529785156 0.880952358
vt 0.545410156 0.880952358
vt 0.545410156 0.85786438
vt 0.546386719 0.85786438
vt 0.546386719 0.880952358
vt 0.562011719 0.880952358
vt 0.562011719 0.85786438
vt 0.562988281 0.85786438
vt 0.562988281 0.880952358
vt 0.578613281 0.880952358
vt 0.578613281 0.85786438
vt 0.579589844 0.85786438
vt 0.579589844 0.880952358
vt 0.595214844 0.880952358
vt 0.595214844 0.85786438
vt 0.596191406 0.85786438
vt 0.596191406 0.880952358
vt 0.611816406 0.880952358
vt 0.611816406 0.85786438
vt 0.612792969 0.85786438
vt 0.612792969 0.880952358
vt 0.628417969 0.880952358
vt 0.628417969 0.85786438
vt 0.00048828125 0.859307349
vt 0.00048828125 0.882395387
vt 0.0161132812 0.882395387
vt 0.0161132812 0.859307349
vt 0.0170898438 0.859307349
vt 0.0170898438 0.882395387
vt 0.0327148438 0.882395387
vt 0.0327148438 0.859307349
g rangbaer_3-mesh_0
f 3/3/3 2/2/2 1/1/1
f 1/1/1 4/4/4 3/3/3
f 7/7/7 6/6/6 5/5/5
f 5/5/5 8/8/8 7/7/7
f 11/11/11 10/10/10 9/9/9
f 9/9/9 12/12/12 11/11/11
f 15/15/15 14/14/14 13/13/13
f 13/13/13 16/16/16 15/15/15
f 19/19/19 18/18/18 17/17/17
f 17/17/17 20/20/20 19/19/19
f 23/23/23 22/22/22 21/21/21
f 21/21/21 24/24/24 23/23/23
f 27/27/27 26/26/26 25/25/25
f 25/25/25 28/28/28 27/27/27
f 31/31/31 30/30/30 29/29/29
f 29/29/29 32/32/32 31/31/31
f 35/35/35 34/34/34 33/33/33
f 33/33/33 36/36/36 35/35/35
f 39/39/39 38/38/38 37/37/37
f 37/37/37 40/40/40 39/39/39
f 43/43/43 42/42/42 41/41/41
f 41/41/41 44/44/44 43/43/43
f 47/47/47 46/46/46 45/45/45
f 45/45/45 48/48/48 47/47/47
f 51/51/51 50/50/50 49/49/49
f 49/49/49 52/52/52 51/51/51
f 55/55/55 54/54/54 53/53/53
f 53/53/53 56/56/56 55/55/55
f 59/59/59 58/58/58 57/57/57
f 57/57/57 60/60/60 59/59/59
f 63/63/63 62/62/62 61/61/61
f 61/61/61 64/64/64 63/63/63
f 67/67/67 66/66/66 65/65/65
f 65/65/65 68/68/68 67/67/67
f 71/71/71 70/70/70 69/69/69
f 69/69/69 72/72/72 71/71/71
f 75/75/75 74/74/74 73/73/73
f 73/73/73 76/76/76 75/75/75
f 79/79/79 78/78/78 77/77/77
f 77/77/77 80/80/80 79/79/79
f 83/83/83 82/82/82 81/81/81
f 81/81/81 84/84/84 83/83/83
f 87/87/87 86/86/86 85/85/85
f 85/85/85 88/88/88 87/87/87
f 91/91/91 90/90/90 89/89/89
f 89/89/89 92/92/92 91/91/91
f 95/95/95 94/94/94 93/93/93
f 93/93/93 96/96/96 95/95/95
f 99/99/99 98/98/98 97/97/97
f 97/97/97 100/100/100 99/99/99
f 103/103/103 102/102/102 101/101/101
f 101/101/101 104/104/104 103/103/103
f 107/107/107 106/106/106 105/105/105
f 105/105/105 108/108/108 107/107/107
f 111/111/111 110/110/110 109/109/109
f 109/109/109 112/112/112 111/111/111
f 115/115/115 114/114/114 113/113/113
f 113/113/113 116/116/116 115/115/115
f 119/119/119 118/118/118 117/117/117
f 117/117/117 120/120/120 119/119/119
f 123/123/123 122/122/122 121/121/121
f 121/121/121 124/124/124 123/123/123
f 127/127/127 126/126/126 125/125/125
f 125/125/125 128/128/128 127/127/127
f 131/131/131 130/130/130 129/129/129
f 129/129/129 132/132/132 131/131/131
f 135/135/135 134/134/134 133/133/133
f 133/133/133 136/136/136 135/135/135
f 139/139/139 138/138/138 137/137/137
f 137/137/137 140/140/140 139/139/139
f 143/143/143 142/142/142 141/141/141
f 141/141/141 144/144/144 143/143/143
f 147/147/147 146/146/146 145/145/145
f 145/145/145 148/148/148 147/147/147
f 151/151/151 150/150/150 149/149/149
f 149/149/149 152/152/152 151/151/151
f 155/155/155 154/154/154 153/153/153
f 153/153/153 156/156/156 155/155/155
f 159/159/159 158/158/158 157/157/157
f 157/157/157 160/160/160 159/159/159
f 163/163/163 162/162/162 161/161/161
f 161/161/161 164/164/164 163/163/163
f 167/167/167 166/166/166 165/165/165
f 165/165/165 168/168/168 167/167/167
f 171/171/171 170/170/170 169/169/169
f 169/169/169 172/172/172 171/171/171
f 175/175/175 174/174/174 173/173/173
f 173/173/173 176/176/176 175/175/175
f 179/179/179 178/178/178 177/177/177
f 177/177/177 180/180/180 179/179/179
f 183/183/183 182/182/182 181/181/181
f 181/181/181 184/184/184 183/183/183
f 187/187/187 186/186/186 185/185/185
f 185/185/185 188/188/188 187/187/187
f 191/191/191 190/190/190 189/189/189
f 189/189/189 192/192/192 191/191/191
f 195/195/195 194/194/194 193/193/193
f 193/193/193 196/196/196 195/195/195
f 199/199/199 198/198/198 197/197/197
f 197/197/197 200/200/200 199/199/199
f 203/203/203 202/202/202 201/201/201
f 201/201/201 204/204/204 203/203/203
f 207/207/207 206/206/206 205/205/205
f 205/205/205 208/208/208 207/207/207
f 211/211/211 210/210/210 209/209/209
f 209/209/209 212/212/212 211/211/211
f 215/215/215 214/214/214 213/213/213
f 213/213/213 216/216/216 215/215/215
f 219/219/219 218/218/218 217/217/217
f 217/217/217 220/220/220 219/219/219
f 223/223/223 222/222/222 221/221/221
f 221/221/221 224/224/224 223/223/223
f 227/227/227 226/226/226 225/225/225
f 225/225/225 228/228/228 227/227/227
f 231/231/231 230/230/230 229/229/229
f 229/229/229 232/232/232 231/231/231
f 235/235/235 234/234/234 233/233/233
f 233/233/233 236/236/236 235/235/235
f 239/239/239 238/238/238 237/237/237
f 237/237/237 240/240/240 239/239/239
f 243/243/243 242/242/242 241/241/241
f 241/241/241 244/244/244 243/243/243
f 247/247/247 246/246/246 245/245/245
f 245/245/245 248/248/248 247/247/247
f 251/251/251 250/250/250 249/249/249
f 249/249/249 252/252/252 251/251/251
f 255/255/255 254/254/254 253/253/253
f 253/253/253 256/256/256 255/255/255
f 259/259/259 258/258/258 257/257/257
f 257/257/257 260/260/260 259/259/259
f 263/263/263 262/262/262 261/261/261
f 261/261/261 264/264/264 263/263/263
f 267/267/267 266/266/266 265/265/265
f 265/265/265 268/268/268 267/267/267
f 271/271/271 270/270/270 269/269/269
f 269/269/269 272/272/272 271/271/271
f 275/275/275 274/274/274 273/273/273
f 273/273/273 276/276/276 275/275/275
f 279/279/279 278/278/278 277/277/277
f 277/277/277 280/280/280 279/279/279
