g kelalunsi_2_rw-mesh
v -576 207 0
v -576 623 0
v -960 623 0
v -960 207 0
v -576 623 0
v -576 1039 0
v -960 1039 0
v -960 623 0
v -256 207 0
v -256 559 0
v -576 559 0
v -576 207 0
v -1440 879 0
v -1440 1103 0
v -1696 1103 0
v -1696 879 0
v -544 1039 0
v -544 1199 0
v -800 1199 0
v -800 1039 0
v -960 303 0
v -960 623 0
v -1056 623 0
v -1056 303 0
v -960 623 0
v -960 943 0
v -1056 943 0
v -1056 623 0
v -384 559 0
v -384 687 0
v -576 687 0
v -576 559 0
v -160 207 0
v -160 463 0
v -256 463 0
v -256 207 0
v -1760 1039 0
v -1760 1231 0
v -1888 1231 0
v -1888 1039 0
v -64 79 0
v -64 303 0
v -160 303 0
v -160 79 0
v -160 0 0
v -160 207 0
v -256 207 0
v -256 0 0
v -256 79 0
v -256 207 0
v -416 207 0
v -416 79 0
v -1248 943 0
v -1248 1071 0
v -1408 1071 0
v -1408 943 0
v -1088 943 0
v -1088 1071 0
v -1248 1071 0
v -1248 943 0
v -448 15 0
v -448 111 0
v -640 111 0
v -640 15 0
v -1920 1167 0
v -1920 1295 0
v -2047 1295 0
v -2047 1167 0
v -1088 335 0
v -1088 463 0
v -1184 463 0
v -1184 335 0
v -416 111 0
v -416 207 0
v -512 207 0
v -512 111 0
v -960 943 0
v -960 1007 0
v -1088 1007 0
v -1088 943 0
v -1568 1167 0
v -1568 1231 0
v -1696 1231 0
v -1696 1167 0
v -320 15 0
v -320 79 0
v -416 79 0
v -416 15 0
v -1824 1231 0
v -1824 1295 0
v -1920 1295 0
v -1920 1231 0
v -1184 367 0
v -1184 463 0
v -1248 463 0
v -1248 367 0
v -480 687 0
v -480 751 0
v -576 751 0
v -576 687 0
v -576 111 0
v -576 207 0
v -640 207 0
v -640 111 0
v -800 1039 0
v -800 1135 0
v -864 1135 0
v -864 1039 0
v -0 79 0
v -0 175 0
v -64 175 0
v -64 79 0
v -0 0 0
v -0 79 0
v -64 79 0
v -64 0 0
v -1696 911 0
v -1696 1007 0
v -1760 1007 0
v -1760 911 0
v -1344 1071 0
v -1344 1135 0
v -1440 1135 0
v -1440 1071 0
v -1696 1007 0
v -1696 1103 0
v -1760 1103 0
v -1760 1007 0
v -1248 1071 0
v -1248 1135 0
v -1344 1135 0
v -1344 1071 0
v -768 143 0
v -768 207 0
v -864 207 0
v -864 143 0
v -768 47 0
v -768 111 0
v -864 111 0
v -864 47 0
v -896 15 0
v -896 47 0
v -1056 47 0
v -1056 15 0
v -96 303 0
v -96 367 0
v -160 367 0
v -160 303 0
v -320 559 0
v -320 623 0
v -384 623 0
v -384 559 0
v -768 0 0
v -768 47 0
v -832 47 0
v -832 0 0
v -1056 0 0
v -1056 15 0
v -1184 15 0
v -1184 0 0
v -864 143 0
v -864 207 0
v -928 207 0
v -928 143 0
v -1344 1135 0
v -1344 1167 0
v -1472 1167 0
v -1472 1135 0
v -1056 15 0
v -1056 47 0
v -1184 47 0
v -1184 15 0
v -864 47 0
v -864 111 0
v -928 111 0
v -928 47 0
v -1056 367 0
v -1056 463 0
v -1088 463 0
v -1088 367 0
v -512 975 0
v -512 1071 0
v -544 1071 0
v -544 975 0
v -1184 0 0
v -1184 15 0
v -1280 15 0
v -1280 0 0
v -1472 1135 0
v -1472 1167 0
v -1568 1167 0
v -1568 1135 0
v -512 1071 0
v -512 1167 0
v -544 1167 0
v -544 1071 0
v -544 943 0
v -544 1039 0
v -576 1039 0
v -576 943 0
v -1184 1071 0
v -1184 1103 0
v -1248 1103 0
v -1248 1071 0
v -864 1039 0
v -864 1103 0
v -896 1103 0
v -896 1039 0
v -1440 1103 0
v -1440 1135 0
v -1504 1135 0
v -1504 1103 0
v -640 15 0
v -640 79 0
v -672 79 0
v -672 15 0
v -64 15 0
v -64 79 0
v -96 79 0
v -96 15 0
v -928 47 0
v -928 79 0
v -992 79 0
v -992 47 0
v -1696 1199 0
v -1696 1231 0
v -1760 1231 0
v -1760 1199 0
v -1760 1231 0
v -1760 1263 0
v -1824 1263 0
v -1824 1231 0
v -640 143 0
v -640 207 0
v -672 207 0
v -672 143 0
v -32 175 0
v -32 239 0
v -64 239 0
v -64 175 0
v -960 0 0
v -960 15 0
v -1024 15 0
v -1024 0 0
v -352 0 0
v -352 15 0
v -416 15 0
v -416 0 0
v -1024 1007 0
v -1024 1039 0
v -1088 1039 0
v -1088 1007 0
v -1408 1007 0
v -1408 1071 0
v -1440 1071 0
v -1440 1007 0
v -960 239 0
v -960 303 0
v -992 303 0
v -992 239 0
v -224 463 0
v -224 527 0
v -256 527 0
v -256 463 0
v -800 111 0
v -800 143 0
v -864 143 0
v -864 111 0
v -512 0 0
v -512 15 0
v -576 15 0
v -576 0 0
v -544 879 0
v -544 943 0
v -576 943 0
v -576 879 0
v -1920 1135 0
v -1920 1167 0
v -1984 1167 0
v -1984 1135 0
v -1472 1167 0
v -1472 1199 0
v -1536 1199 0
v -1536 1167 0
v -1888 1071 0
v -1888 1135 0
v -1920 1135 0
v -1920 1071 0
v -640 1199 0
v -640 1231 0
v -704 1231 0
v -704 1199 0
v -1056 303 0
v -1056 367 0
v -1088 367 0
v -1088 303 0
v -1888 1135 0
v -1888 1199 0
v -1920 1199 0
v -1920 1135 0
v -704 1199 0
v -704 1231 0
v -768 1231 0
v -768 1199 0
v -1760 975 0
v -1760 1039 0
v -1792 1039 0
v -1792 975 0
v -1248 431 0
v -1248 463 0
v -1312 463 0
v -1312 431 0
v -448 0 0
v -448 15 0
v -512 15 0
v -512 0 0
v -992 271 0
v -992 303 0
v -1024 303 0
v -1024 271 0
v -288 559 0
v -288 591 0
v -320 591 0
v -320 559 0
v -352 623 0
v -352 655 0
v -384 655 0
v -384 623 0
v -128 367 0
v -128 399 0
v -160 399 0
v -160 367 0
v -512 175 0
v -512 207 0
v -544 207 0
v -544 175 0
v -192 463 0
v -192 495 0
v -224 495 0
v -224 463 0
v -1248 399 0
v -1248 431 0
v -1280 431 0
v -1280 399 0
v -288 47 0
v -288 79 0
v -320 79 0
v -320 47 0
v -96 47 0
v -96 79 0
v -128 79 0
v -128 47 0
v -608 0 0
v -608 15 0
v -640 15 0
v -640 0 0
v -832 15 0
v -832 47 0
v -864 47 0
v -864 15 0
v -672 175 0
v -672 207 0
v -704 207 0
v -704 175 0
v -672 0 0
v -672 15 0
v -704 15 0
v -704 0 0
v -544 111 0
v -544 143 0
v -576 143 0
v -576 111 0
v -928 175 0
v -928 207 0
v -960 207 0
v -960 175 0
v -448 687 0
v -448 719 0
v -480 719 0
v -480 687 0
v -1760 943 0
v -1760 975 0
v -1792 975 0
v -1792 943 0
v -992 47 0
v -992 79 0
v -1024 79 0
v -1024 47 0
v -1984 1135 0
v -1984 1167 0
v -2016 1167 0
v -2016 1135 0
v -640 0 0
v -640 15 0
v -672 15 0
v -672 0 0
v -864 111 0
v -864 143 0
v -896 143 0
v -896 111 0
v -1312 431 0
v -1312 463 0
v -1344 463 0
v -1344 431 0
v -64 0 0
v -64 15 0
v -96 15 0
v -96 0 0
v -1536 1167 0
v -1536 1199 0
v -1568 1199 0
v -1568 1167 0
v -1408 943 0
v -1408 975 0
v -1440 975 0
v -1440 943 0
v -1568 847 0
v -1568 879 0
v -1600 879 0
v -1600 847 0
v -544 751 0
v -544 783 0
v -576 783 0
v -576 751 0
v -1792 1007 0
v -1792 1039 0
v -1824 1039 0
v -1824 1007 0
v -800 1135 0
v -800 1167 0
v -832 1167 0
v -832 1135 0
v -1920 1103 0
v -1920 1135 0
v -1952 1135 0
v -1952 1103 0
v -896 1039 0
v -896 1071 0
v -928 1071 0
v -928 1039 0
vt 0.00048828125 0.00166112185
vt 0.00048828125 0.692691028
vt 0.187988281 0.692691028
vt 0.187988281 0.00166112185
vt 0.188964844 0.00166112185
vt 0.188964844 0.692691028
vt 0.376464844 0.692691028
vt 0.376464844 0.00166112185
vt 0.377441406 0.00166112185
vt 0.377441406 0.586378694
vt 0.533691406 0.586378694
vt 0.533691406 0.00166112185
vt 0.534667969 0.00166112185
vt 0.534667969 0.373754144
vt 0.659667969 0.373754144
vt 0.659667969 0.00166112185
vt 0.660644531 0.00166112185
vt 0.660644531 0.267441869
vt 0.785644531 0.267441869
vt 0.785644531 0.00166112185
vt 0.786621094 0.00166112185
vt 0.786621094 0.533222556
vt 0.833496094 0.533222556
vt 0.833496094 0.00166112185
vt 0.834472656 0.00166112185
vt 0.834472656 0.533222556
vt 0.881347656 0.533222556
vt 0.881347656 0.00166112185
vt 0.882324219 0.00166112185
vt 0.882324219 0.214285731
vt 0.976074219 0.214285731
vt 0.976074219 0.00166112185
vt 0.882324219 0.217607975
vt 0.882324219 0.642857134
vt 0.929199219 0.642857134
vt 0.929199219 0.217607975
vt 0.930175781 0.217607975
vt 0.930175781 0.536544859
vt 0.992675781 0.536544859
vt 0.992675781 0.217607975
vt 0.660644531 0.270764112
vt 0.660644531 0.642857134
vt 0.707519531 0.642857134
vt 0.707519531 0.270764112
vt 0.708496094 0.270764112
vt 0.708496094 0.616279066
vt 0.755371094 0.616279066
vt 0.755371094 0.270764112
vt 0.534667969 0.377076387
vt 0.534667969 0.589700997
vt 0.612792969 0.589700997
vt 0.612792969 0.377076387
vt 0.786621094 0.536544859
vt 0.786621094 0.749169469
vt 0.864746094 0.749169469
vt 0.864746094 0.536544859
vt 0.377441406 0.589700997
vt 0.377441406 0.802325606
vt 0.455566406 0.802325606
vt 0.455566406 0.589700997
vt 0.534667969 0.5930233
vt 0.534667969 0.752491713
vt 0.628417969 0.752491713
vt 0.628417969 0.5930233
vt 0.930175781 0.539867103
vt 0.930175781 0.752491713
vt 0.992675781 0.752491713
vt 0.992675781 0.539867103
vt 0.456542969 0.589700997
vt 0.456542969 0.802325606
vt 0.503417969 0.802325606
vt 0.503417969 0.589700997
vt 0.708496094 0.619601369
vt 0.708496094 0.779069781
vt 0.755371094 0.779069781
vt 0.755371094 0.619601369
vt 0.00048828125 0.696013331
vt 0.00048828125 0.802325606
vt 0.0629882812 0.802325606
vt 0.0629882812 0.696013331
vt 0.0639648438 0.696013331
vt 0.0639648438 0.802325606
vt 0.126464844 0.802325606
vt 0.126464844 0.696013331
vt 0.660644531 0.646179438
vt 0.660644531 0.752491713
vt 0.707519531 0.752491713
vt 0.707519531 0.646179438
vt 0.882324219 0.646179438
vt 0.882324219 0.752491713
vt 0.929199219 0.752491713
vt 0.929199219 0.646179438
vt 0.127441406 0.696013331
vt 0.127441406 0.855481744
vt 0.158691406 0.855481744
vt 0.158691406 0.696013331
vt 0.159667969 0.696013331
vt 0.159667969 0.802325606
vt 0.206542969 0.802325606
vt 0.206542969 0.696013331
vt 0.207519531 0.696013331
vt 0.207519531 0.855481744
vt 0.238769531 0.855481744
vt 0.238769531 0.696013331
vt 0.239746094 0.696013331
vt 0.239746094 0.855481744
vt 0.270996094 0.855481744
vt 0.270996094 0.696013331
vt 0.271972656 0.696013331
vt 0.271972656 0.855481744
vt 0.303222656 0.855481744
vt 0.303222656 0.696013331
vt 0.304199219 0.696013331
vt 0.304199219 0.828903675
vt 0.335449219 0.828903675
vt 0.335449219 0.696013331
vt 0.336425781 0.696013331
vt 0.336425781 0.855481744
vt 0.367675781 0.855481744
vt 0.367675781 0.696013331
vt 0.786621094 0.752491713
vt 0.786621094 0.858803988
vt 0.833496094 0.858803988
vt 0.833496094 0.752491713
vt 0.834472656 0.752491713
vt 0.834472656 0.911960125
vt 0.865722656 0.911960125
vt 0.865722656 0.752491713
vt 0.534667969 0.755813956
vt 0.534667969 0.862126231
vt 0.581542969 0.862126231
vt 0.581542969 0.755813956
vt 0.582519531 0.755813956
vt 0.582519531 0.862126231
vt 0.629394531 0.862126231
vt 0.629394531 0.755813956
vt 0.660644531 0.755813956
vt 0.660644531 0.862126231
vt 0.707519531 0.862126231
vt 0.707519531 0.755813956
vt 0.882324219 0.755813956
vt 0.882324219 0.808970094
vt 0.960449219 0.808970094
vt 0.960449219 0.755813956
vt 0.961425781 0.755813956
vt 0.961425781 0.862126231
vt 0.992675781 0.862126231
vt 0.992675781 0.755813956
vt 0.708496094 0.782392025
vt 0.708496094 0.8887043
vt 0.739746094 0.8887043
vt 0.739746094 0.782392025
vt 0.740722656 0.782392025
vt 0.740722656 0.862126231
vt 0.771972656 0.862126231
vt 0.771972656 0.782392025
vt 0.00048828125 0.80564785
vt 0.00048828125 0.832225919
vt 0.0629882812 0.832225919
vt 0.0629882812 0.80564785
vt 0.0639648438 0.80564785
vt 0.0639648438 0.911960125
vt 0.0952148438 0.911960125
vt 0.0952148438 0.80564785
vt 0.377441406 0.80564785
vt 0.377441406 0.858803988
vt 0.439941406 0.858803988
vt 0.439941406 0.80564785
vt 0.440917969 0.80564785
vt 0.440917969 0.858803988
vt 0.503417969 0.858803988
vt 0.503417969 0.80564785
vt 0.159667969 0.80564785
vt 0.159667969 0.911960125
vt 0.190917969 0.911960125
vt 0.190917969 0.80564785
vt 0.630371094 0.377076387
vt 0.630371094 0.536544859
vt 0.645996094 0.536544859
vt 0.645996094 0.377076387
vt 0.630371094 0.539867103
vt 0.630371094 0.699335575
vt 0.645996094 0.699335575
vt 0.645996094 0.539867103
vt 0.882324219 0.812292337
vt 0.882324219 0.838870406
vt 0.929199219 0.838870406
vt 0.929199219 0.812292337
vt 0.00048828125 0.835548162
vt 0.00048828125 0.8887043
vt 0.0473632812 0.8887043
vt 0.0473632812 0.835548162
vt 0.504394531 0.589700997
vt 0.504394531 0.749169469
vt 0.520019531 0.749169469
vt 0.520019531 0.589700997
vt 0.630371094 0.702657819
vt 0.630371094 0.862126231
vt 0.645996094 0.862126231
vt 0.645996094 0.702657819
vt 0.304199219 0.832225919
vt 0.304199219 0.885382056
vt 0.335449219 0.885382056
vt 0.335449219 0.832225919
vt 0.504394531 0.752491713
vt 0.504394531 0.858803988
vt 0.520019531 0.858803988
vt 0.520019531 0.752491713
vt 0.882324219 0.842192709
vt 0.882324219 0.895348847
vt 0.913574219 0.895348847
vt 0.913574219 0.842192709
vt 0.0961914062 0.80564785
vt 0.0961914062 0.911960125
vt 0.111816406 0.911960125
vt 0.111816406 0.80564785
vt 0.930175781 0.812292337
vt 0.930175781 0.918604672
vt 0.945800781 0.918604672
vt 0.945800781 0.812292337
vt 0.127441406 0.858803988
vt 0.127441406 0.911960125
vt 0.158691406 0.911960125
vt 0.158691406 0.858803988
vt 0.207519531 0.858803988
vt 0.207519531 0.911960125
vt 0.238769531 0.911960125
vt 0.238769531 0.858803988
vt 0.239746094 0.858803988
vt 0.239746094 0.911960125
vt 0.270996094 0.911960125
vt 0.270996094 0.858803988
vt 0.271972656 0.858803988
vt 0.271972656 0.965116262
vt 0.287597656 0.965116262
vt 0.287597656 0.858803988
vt 0.336425781 0.858803988
vt 0.336425781 0.965116262
vt 0.352050781 0.965116262
vt 0.352050781 0.858803988
vt 0.377441406 0.862126231
vt 0.377441406 0.8887043
vt 0.408691406 0.8887043
vt 0.408691406 0.862126231
vt 0.409667969 0.862126231
vt 0.409667969 0.8887043
vt 0.440917969 0.8887043
vt 0.440917969 0.862126231
vt 0.441894531 0.862126231
vt 0.441894531 0.915282369
vt 0.473144531 0.915282369
vt 0.473144531 0.862126231
vt 0.353027344 0.858803988
vt 0.353027344 0.965116262
vt 0.368652344 0.965116262
vt 0.368652344 0.858803988
vt 0.474121094 0.862126231
vt 0.474121094 0.968438566
vt 0.489746094 0.968438566
vt 0.489746094 0.862126231
vt 0.490722656 0.862126231
vt 0.490722656 0.968438566
vt 0.506347656 0.968438566
vt 0.506347656 0.862126231
vt 0.786621094 0.862126231
vt 0.786621094 0.915282369
vt 0.817871094 0.915282369
vt 0.817871094 0.862126231
vt 0.534667969 0.865448475
vt 0.534667969 0.892026603
vt 0.565917969 0.892026603
vt 0.565917969 0.865448475
vt 0.507324219 0.862126231
vt 0.507324219 0.968438566
vt 0.522949219 0.968438566
vt 0.522949219 0.862126231
vt 0.566894531 0.865448475
vt 0.566894531 0.918604672
vt 0.598144531 0.918604672
vt 0.598144531 0.865448475
vt 0.599121094 0.865448475
vt 0.599121094 0.918604672
vt 0.630371094 0.918604672
vt 0.630371094 0.865448475
vt 0.631347656 0.865448475
vt 0.631347656 0.971760809
vt 0.646972656 0.971760809
vt 0.646972656 0.865448475
vt 0.660644531 0.865448475
vt 0.660644531 0.918604672
vt 0.691894531 0.918604672
vt 0.691894531 0.865448475
vt 0.740722656 0.865448475
vt 0.740722656 0.971760809
vt 0.756347656 0.971760809
vt 0.756347656 0.865448475
vt 0.757324219 0.865448475
vt 0.757324219 0.971760809
vt 0.772949219 0.971760809
vt 0.772949219 0.865448475
vt 0.961425781 0.865448475
vt 0.961425781 0.918604672
vt 0.992675781 0.918604672
vt 0.992675781 0.865448475
vt 0.304199219 0.8887043
vt 0.304199219 0.995016634
vt 0.319824219 0.995016634
vt 0.319824219 0.8887043
vt 0.00048828125 0.892026603
vt 0.00048828125 0.945182741
vt 0.0317382812 0.945182741
vt 0.0317382812 0.892026603
vt 0.377441406 0.892026603
vt 0.377441406 0.918604672
vt 0.408691406 0.918604672
vt 0.408691406 0.892026603
vt 0.0327148438 0.892026603
vt 0.0327148438 0.945182741
vt 0.0483398438 0.945182741
vt 0.0483398438 0.892026603
vt 0.409667969 0.892026603
vt 0.409667969 0.945182741
vt 0.425292969 0.945182741
vt 0.425292969 0.892026603
vt 0.708496094 0.892026603
vt 0.708496094 0.945182741
vt 0.724121094 0.945182741
vt 0.724121094 0.892026603
vt 0.534667969 0.895348847
vt 0.534667969 0.948504984
vt 0.550292969 0.948504984
vt 0.550292969 0.895348847
vt 0.882324219 0.898671091
vt 0.882324219 0.951827228
vt 0.897949219 0.951827228
vt 0.897949219 0.898671091
vt 0.898925781 0.898671091
vt 0.898925781 0.951827228
vt 0.914550781 0.951827228
vt 0.914550781 0.898671091
vt 0.0639648438 0.915282369
vt 0.0639648438 0.968438566
vt 0.0795898438 0.968438566
vt 0.0795898438 0.915282369
vt 0.0805664062 0.915282369
vt 0.0805664062 0.968438566
vt 0.0961914062 0.968438566
vt 0.0961914062 0.915282369
vt 0.0971679688 0.915282369
vt 0.0971679688 0.968438566
vt 0.112792969 0.968438566
vt 0.112792969 0.915282369
vt 0.127441406 0.915282369
vt 0.127441406 0.941860437
vt 0.143066406 0.941860437
vt 0.143066406 0.915282369
vt 0.144042969 0.915282369
vt 0.144042969 0.968438566
vt 0.159667969 0.968438566
vt 0.159667969 0.915282369
vt 0.160644531 0.915282369
vt 0.160644531 0.968438566
vt 0.176269531 0.968438566
vt 0.176269531 0.915282369
vt 0.177246094 0.915282369
vt 0.177246094 0.941860437
vt 0.192871094 0.941860437
vt 0.192871094 0.915282369
vt 0.207519531 0.915282369
vt 0.207519531 0.968438566
vt 0.223144531 0.968438566
vt 0.223144531 0.915282369
vt 0.224121094 0.915282369
vt 0.224121094 0.968438566
vt 0.239746094 0.968438566
vt 0.239746094 0.915282369
vt 0.240722656 0.915282369
vt 0.240722656 0.968438566
vt 0.256347656 0.968438566
vt 0.256347656 0.915282369
vt 0.834472656 0.915282369
vt 0.834472656 0.968438566
vt 0.850097656 0.968438566
vt 0.850097656 0.915282369
vt 0.851074219 0.915282369
vt 0.851074219 0.968438566
vt 0.866699219 0.968438566
vt 0.866699219 0.915282369
vt 0.441894531 0.918604672
vt 0.441894531 0.971760809
vt 0.457519531 0.971760809
vt 0.457519531 0.918604672
vt 0.786621094 0.918604672
vt 0.786621094 0.945182741
vt 0.802246094 0.945182741
vt 0.802246094 0.918604672
vt 0.803222656 0.918604672
vt 0.803222656 0.971760809
vt 0.818847656 0.971760809
vt 0.818847656 0.918604672
vt 0.377441406 0.921926916
vt 0.377441406 0.975083053
vt 0.393066406 0.975083053
vt 0.393066406 0.921926916
vt 0.566894531 0.921926916
vt 0.566894531 0.948504984
vt 0.582519531 0.948504984
vt 0.582519531 0.921926916
vt 0.583496094 0.921926916
vt 0.583496094 0.975083053
vt 0.599121094 0.975083053
vt 0.599121094 0.921926916
vt 0.600097656 0.921926916
vt 0.600097656 0.975083053
vt 0.615722656 0.975083053
vt 0.615722656 0.921926916
vt 0.660644531 0.921926916
vt 0.660644531 0.975083053
vt 0.676269531 0.975083053
vt 0.676269531 0.921926916
vt 0.677246094 0.921926916
vt 0.677246094 0.975083053
vt 0.692871094 0.975083053
vt 0.692871094 0.921926916
vt 0.930175781 0.921926916
vt 0.930175781 0.975083053
vt 0.945800781 0.975083053
vt 0.945800781 0.921926916
vt 0.961425781 0.921926916
vt 0.961425781 0.975083053
vt 0.977050781 0.975083053
vt 0.977050781 0.921926916
vt 0.978027344 0.921926916
vt 0.978027344 0.975083053
vt 0.993652344 0.975083053
vt 0.993652344 0.921926916
vt 0.127441406 0.945182741
vt 0.127441406 0.998338878
vt 0.143066406 0.998338878
vt 0.143066406 0.945182741
g kelalunsi_2_rw-mesh_0
f 3/3/3 2/2/2 1/1/1
f 1/1/1 4/4/4 3/3/3
f 7/7/7 6/6/6 5/5/5
f 5/5/5 8/8/8 7/7/7
f 11/11/11 10/10/10 9/9/9
f 9/9/9 12/12/12 11/11/11
f 15/15/15 14/14/14 13/13/13
f 13/13/13 16/16/16 15/15/15
f 19/19/19 18/18/18 17/17/17
f 17/17/17 20/20/20 19/19/19
f 23/23/23 22/22/22 21/21/21
f 21/21/21 24/24/24 23/23/23
f 27/27/27 26/26/26 25/25/25
f 25/25/25 28/28/28 27/27/27
f 31/31/31 30/30/30 29/29/29
f 29/29/29 32/32/32 31/31/31
f 35/35/35 34/34/34 33/33/33
f 33/33/33 36/36/36 35/35/35
f 39/39/39 38/38/38 37/37/37
f 37/37/37 40/40/40 39/39/39
f 43/43/43 42/42/42 41/41/41
f 41/41/41 44/44/44 43/43/43
f 47/47/47 46/46/46 45/45/45
f 45/45/45 48/48/48 47/47/47
f 51/51/51 50/50/50 49/49/49
f 49/49/49 52/52/52 51/51/51
f 55/55/55 54/54/54 53/53/53
f 53/53/53 56/56/56 55/55/55
f 59/59/59 58/58/58 57/57/57
f 57/57/57 60/60/60 59/59/59
f 63/63/63 62/62/62 61/61/61
f 61/61/61 64/64/64 63/63/63
f 67/67/67 66/66/66 65/65/65
f 65/65/65 68/68/68 67/67/67
f 71/71/71 70/70/70 69/69/69
f 69/69/69 72/72/72 71/71/71
f 75/75/75 74/74/74 73/73/73
f 73/73/73 76/76/76 75/75/75
f 79/79/79 78/78/78 77/77/77
f 77/77/77 80/80/80 79/79/79
f 83/83/83 82/82/82 81/81/81
f 81/81/81 84/84/84 83/83/83
f 87/87/87 86/86/86 85/85/85
f 85/85/85 88/88/88 87/87/87
f 91/91/91 90/90/90 89/89/89
f 89/89/89 92/92/92 91/91/91
f 95/95/95 94/94/94 93/93/93
f 93/93/93 96/96/96 95/95/95
f 99/99/99 98/98/98 97/97/97
f 97/97/97 100/100/100 99/99/99
f 103/103/103 102/102/102 101/101/101
f 101/101/101 104/104/104 103/103/103
f 107/107/107 106/106/106 105/105/105
f 105/105/105 108/108/108 107/107/107
f 111/111/111 110/110/110 109/109/109
f 109/109/109 112/112/112 111/111/111
f 115/115/115 114/114/114 113/113/113
f 113/113/113 116/116/116 115/115/115
f 119/119/119 118/118/118 117/117/117
f 117/117/117 120/120/120 119/119/119
f 123/123/123 122/122/122 121/121/121
f 121/121/121 124/124/124 123/123/123
f 127/127/127 126/126/126 125/125/125
f 125/125/125 128/128/128 127/127/127
f 131/131/131 130/130/130 129/129/129
f 129/129/129 132/132/132 131/131/131
f 135/135/135 134/134/134 133/133/133
f 133/133/133 136/136/136 135/135/135
f 139/139/139 138/138/138 137/137/137
f 137/137/137 140/140/140 139/139/139
f 143/143/143 142/142/142 141/141/141
f 141/141/141 144/144/144 143/143/143
f 147/147/147 146/146/146 145/145/145
f 145/145/145 148/148/148 147/147/147
f 151/151/151 150/150/150 149/149/149
f 149/149/149 152/152/152 151/151/151
f 155/155/155 154/154/154 153/153/153
f 153/153/153 156/156/156 155/155/155
f 159/159/159 158/158/158 157/157/157
f 157/157/157 160/160/160 159/159/159
f 163/163/163 162/162/162 161/161/161
f 161/161/161 164/164/164 163/163/163
f 167/167/167 166/166/166 165/165/165
f 165/165/165 168/168/168 167/167/167
f 171/171/171 170/170/170 169/169/169
f 169/169/169 172/172/172 171/171/171
f 175/175/175 174/174/174 173/173/173
f 173/173/173 176/176/176 175/175/175
f 179/179/179 178/178/178 177/177/177
f 177/177/177 180/180/180 179/179/179
f 183/183/183 182/182/182 181/181/181
f 181/181/181 184/184/184 183/183/183
f 187/187/187 186/186/186 185/185/185
f 185/185/185 188/188/188 187/187/187
f 191/191/191 190/190/190 189/189/189
f 189/189/189 192/192/192 191/191/191
f 195/195/195 194/194/194 193/193/193
f 193/193/193 196/196/196 195/195/195
f 199/199/199 198/198/198 197/197/197
f 197/197/197 200/200/200 199/199/199
f 203/203/203 202/202/202 201/201/201
f 201/201/201 204/204/204 203/203/203
f 207/207/207 206/206/206 205/205/205
f 205/205/205 208/208/208 207/207/207
f 211/211/211 210/210/210 209/209/209
f 209/209/209 212/212/212 211/211/211
f 215/215/215 214/214/214 213/213/213
f 213/213/213 216/216/216 215/215/215
f 219/219/219 218/218/218 217/217/217
f 217/217/217 220/220/220 219/219/219
f 223/223/223 222/222/222 221/221/221
f 221/221/221 224/224/224 223/223/223
f 227/227/227 226/226/226 225/225/225
f 225/225/225 228/228/228 227/227/227
f 231/231/231 230/230/230 229/229/229
f 229/229/229 232/232/232 231/231/231
f 235/235/235 234/234/234 233/233/233
f 233/233/233 236/236/236 235/235/235
f 239/239/239 238/238/238 237/237/237
f 237/237/237 240/240/240 239/239/239
f 243/243/243 242/242/242 241/241/241
f 241/241/241 244/244/244 243/243/243
f 247/247/247 246/246/246 245/245/245
f 245/245/245 248/248/248 247/247/247
f 251/251/251 250/250/250 249/249/249
f 249/249/249 252/252/252 251/251/251
f 255/255/255 254/254/254 253/253/253
f 253/253/253 256/256/256 255/255/255
f 259/259/259 258/258/258 257/257/257
f 257/257/257 260/260/260 259/259/259
f 263/263/263 262/262/262 261/261/261
f 261/261/261 264/264/264 263/263/263
f 267/267/267 266/266/266 265/265/265
f 265/265/265 268/268/268 267/267/267
f 271/271/271 270/270/270 269/269/269
f 269/269/269 272/272/272 271/271/271
f 275/275/275 274/274/274 273/273/273
f 273/273/273 276/276/276 275/275/275
f 279/279/279 278/278/278 277/277/277
f 277/277/277 280/280/280 279/279/279
f 283/283/283 282/282/282 281/281/281
f 281/281/281 284/284/284 283/283/283
f 287/287/287 286/286/286 285/285/285
f 285/285/285 288/288/288 287/287/287
f 291/291/291 290/290/290 289/289/289
f 289/289/289 292/292/292 291/291/291
f 295/295/295 294/294/294 293/293/293
f 293/293/293 296/296/296 295/295/295
f 299/299/299 298/298/298 297/297/297
f 297/297/297 300/300/300 299/299/299
f 303/303/303 302/302/302 301/301/301
f 301/301/301 304/304/304 303/303/303
f 307/307/307 306/306/306 305/305/305
f 305/305/305 308/308/308 307/307/307
f 311/311/311 310/310/310 309/309/309
f 309/309/309 312/312/312 311/311/311
f 315/315/315 314/314/314 313/313/313
f 313/313/313 316/316/316 315/315/315
f 319/319/319 318/318/318 317/317/317
f 317/317/317 320/320/320 319/319/319
f 323/323/323 322/322/322 321/321/321
f 321/321/321 324/324/324 323/323/323
f 327/327/327 326/326/326 325/325/325
f 325/325/325 328/328/328 327/327/327
f 331/331/331 330/330/330 329/329/329
f 329/329/329 332/332/332 331/331/331
f 335/335/335 334/334/334 333/333/333
f 333/333/333 336/336/336 335/335/335
f 339/339/339 338/338/338 337/337/337
f 337/337/337 340/340/340 339/339/339
f 343/343/343 342/342/342 341/341/341
f 341/341/341 344/344/344 343/343/343
f 347/347/347 346/346/346 345/345/345
f 345/345/345 348/348/348 347/347/347
f 351/351/351 350/350/350 349/349/349
f 349/349/349 352/352/352 351/351/351
f 355/355/355 354/354/354 353/353/353
f 353/353/353 356/356/356 355/355/355
f 359/359/359 358/358/358 357/357/357
f 357/357/357 360/360/360 359/359/359
f 363/363/363 362/362/362 361/361/361
f 361/361/361 364/364/364 363/363/363
f 367/367/367 366/366/366 365/365/365
f 365/365/365 368/368/368 367/367/367
f 371/371/371 370/370/370 369/369/369
f 369/369/369 372/372/372 371/371/371
f 375/375/375 374/374/374 373/373/373
f 373/373/373 376/376/376 375/375/375
f 379/379/379 378/378/378 377/377/377
f 377/377/377 380/380/380 379/379/379
f 383/383/383 382/382/382 381/381/381
f 381/381/381 384/384/384 383/383/383
f 387/387/387 386/386/386 385/385/385
f 385/385/385 388/388/388 387/387/387
f 391/391/391 390/390/390 389/389/389
f 389/389/389 392/392/392 391/391/391
f 395/395/395 394/394/394 393/393/393
f 393/393/393 396/396/396 395/395/395
f 399/399/399 398/398/398 397/397/397
f 397/397/397 400/400/400 399/399/399
f 403/403/403 402/402/402 401/401/401
f 401/401/401 404/404/404 403/403/403
f 407/407/407 406/406/406 405/405/405
f 405/405/405 408/408/408 407/407/407
f 411/411/411 410/410/410 409/409/409
f 409/409/409 412/412/412 411/411/411
f 415/415/415 414/414/414 413/413/413
f 413/413/413 416/416/416 415/415/415
f 419/419/419 418/418/418 417/417/417
f 417/417/417 420/420/420 419/419/419
f 423/423/423 422/422/422 421/421/421
f 421/421/421 424/424/424 423/423/423
f 427/427/427 426/426/426 425/425/425
f 425/425/425 428/428/428 427/427/427
f 431/431/431 430/430/430 429/429/429
f 429/429/429 432/432/432 431/431/431
f 435/435/435 434/434/434 433/433/433
f 433/433/433 436/436/436 435/435/435
f 439/439/439 438/438/438 437/437/437
f 437/437/437 440/440/440 439/439/439
