g yingxianzuo_3_shophx-mesh
v -928 655 0
v -928 1071 0
v -1376 1071 0
v -1376 655 0
v -864 847 0
v -864 1007 0
v -928 1007 0
v -928 847 0
v -992 591 0
v -992 655 0
v -1152 655 0
v -1152 591 0
v -992 1071 0
v -992 1135 0
v -1152 1135 0
v -1152 1071 0
v -1152 1071 0
v -1152 1135 0
v -1312 1135 0
v -1312 1071 0
v -1376 847 0
v -1376 975 0
v -1440 975 0
v -1440 847 0
v -1152 591 0
v -1152 655 0
v -1280 655 0
v -1280 591 0
v -864 719 0
v -864 847 0
v -928 847 0
v -928 719 0
v -1376 751 0
v -1376 847 0
v -1440 847 0
v -1440 751 0
v -1056 1135 0
v -1056 1167 0
v -1152 1167 0
v -1152 1135 0
v -1376 975 0
v -1376 1039 0
v -1408 1039 0
v -1408 975 0
v -1376 687 0
v -1376 751 0
v -1408 751 0
v -1408 687 0
v -1280 623 0
v -1280 655 0
v -1344 655 0
v -1344 623 0
v -1088 559 0
v -1088 591 0
v -1152 591 0
v -1152 559 0
v -1152 1135 0
v -1152 1167 0
v -1216 1167 0
v -1216 1135 0
v -896 1007 0
v -896 1039 0
v -928 1039 0
v -928 1007 0
v -896 687 0
v -896 719 0
v -928 719 0
v -928 687 0
v -960 623 0
v -960 655 0
v -992 655 0
v -992 623 0
v -1152 559 0
v -1152 591 0
v -1184 591 0
v -1184 559 0
v -960 1071 0
v -960 1103 0
v -992 1103 0
v -992 1071 0
v -1312 1071 0
v -1312 1103 0
v -1344 1103 0
v -1344 1071 0
vt 0.0009765625 0.00239235163
vt 0.0009765625 0.997607648
vt 0.438476562 0.997607648
vt 0.438476562 0.00239235163
vt 0.440429688 0.00239235163
vt 0.440429688 0.38516748
vt 0.502929688 0.38516748
vt 0.502929688 0.00239235163
vt 0.504882812 0.00239235163
vt 0.504882812 0.155502379
vt 0.661132812 0.155502379
vt 0.661132812 0.00239235163
vt 0.663085938 0.00239235163
vt 0.663085938 0.155502379
vt 0.819335938 0.155502379
vt 0.819335938 0.00239235163
vt 0.821289062 0.00239235163
vt 0.821289062 0.155502379
vt 0.977539062 0.155502379
vt 0.977539062 0.00239235163
vt 0.504882812 0.160287082
vt 0.504882812 0.466507196
vt 0.567382812 0.466507196
vt 0.567382812 0.160287082
vt 0.569335938 0.160287082
vt 0.569335938 0.31339711
vt 0.694335938 0.31339711
vt 0.694335938 0.160287082
vt 0.696289062 0.160287082
vt 0.696289062 0.466507196
vt 0.758789062 0.466507196
vt 0.758789062 0.160287082
vt 0.760742188 0.160287082
vt 0.760742188 0.389952183
vt 0.823242188 0.389952183
vt 0.823242188 0.160287082
vt 0.825195312 0.160287082
vt 0.825195312 0.236842096
vt 0.918945312 0.236842096
vt 0.918945312 0.160287082
vt 0.920898438 0.160287082
vt 0.920898438 0.31339711
vt 0.952148438 0.31339711
vt 0.952148438 0.160287082
vt 0.954101562 0.160287082
vt 0.954101562 0.31339711
vt 0.985351562 0.31339711
vt 0.985351562 0.160287082
vt 0.825195312 0.241626799
vt 0.825195312 0.318181813
vt 0.887695312 0.318181813
vt 0.887695312 0.241626799
vt 0.569335938 0.318181813
vt 0.569335938 0.394736826
vt 0.631835938 0.394736826
vt 0.631835938 0.318181813
vt 0.920898438 0.318181813
vt 0.920898438 0.394736826
vt 0.983398438 0.394736826
vt 0.983398438 0.318181813
vt 0.633789062 0.318181813
vt 0.633789062 0.394736826
vt 0.665039062 0.394736826
vt 0.665039062 0.318181813
vt 0.825195312 0.322966516
vt 0.825195312 0.39952153
vt 0.856445312 0.39952153
vt 0.856445312 0.322966516
vt 0.858398438 0.322966516
vt 0.858398438 0.39952153
vt 0.889648438 0.39952153
vt 0.889648438 0.322966516
vt 0.440429688 0.389952183
vt 0.440429688 0.466507196
vt 0.471679688 0.466507196
vt 0.471679688 0.389952183
vt 0.760742188 0.394736826
vt 0.760742188 0.47129184
vt 0.791992188 0.47129184
vt 0.791992188 0.394736826
vt 0.569335938 0.39952153
vt 0.569335938 0.476076543
vt 0.600585938 0.476076543
vt 0.600585938 0.39952153
g yingxianzuo_3_shophx-mesh_0
f 3/3/3 2/2/2 1/1/1
f 1/1/1 4/4/4 3/3/3
f 7/7/7 6/6/6 5/5/5
f 5/5/5 8/8/8 7/7/7
f 11/11/11 10/10/10 9/9/9
f 9/9/9 12/12/12 11/11/11
f 15/15/15 14/14/14 13/13/13
f 13/13/13 16/16/16 15/15/15
f 19/19/19 18/18/18 17/17/17
f 17/17/17 20/20/20 19/19/19
f 23/23/23 22/22/22 21/21/21
f 21/21/21 24/24/24 23/23/23
f 27/27/27 26/26/26 25/25/25
f 25/25/25 28/28/28 27/27/27
f 31/31/31 30/30/30 29/29/29
f 29/29/29 32/32/32 31/31/31
f 35/35/35 34/34/34 33/33/33
f 33/33/33 36/36/36 35/35/35
f 39/39/39 38/38/38 37/37/37
f 37/37/37 40/40/40 39/39/39
f 43/43/43 42/42/42 41/41/41
f 41/41/41 44/44/44 43/43/43
f 47/47/47 46/46/46 45/45/45
f 45/45/45 48/48/48 47/47/47
f 51/51/51 50/50/50 49/49/49
f 49/49/49 52/52/52 51/51/51
f 55/55/55 54/54/54 53/53/53
f 53/53/53 56/56/56 55/55/55
f 59/59/59 58/58/58 57/57/57
f 57/57/57 60/60/60 59/59/59
f 63/63/63 62/62/62 61/61/61
f 61/61/61 64/64/64 63/63/63
f 67/67/67 66/66/66 65/65/65
f 65/65/65 68/68/68 67/67/67
f 71/71/71 70/70/70 69/69/69
f 69/69/69 72/72/72 71/71/71
f 75/75/75 74/74/74 73/73/73
f 73/73/73 76/76/76 75/75/75
f 79/79/79 78/78/78 77/77/77
f 77/77/77 80/80/80 79/79/79
f 83/83/83 82/82/82 81/81/81
f 81/81/81 84/84/84 83/83/83
