g huangjiazhanmusi_bj-mesh
v -352 133 0
v -352 293 0
v -736 293 0
v -736 133 0
v -992 133 0
v -992 357 0
v -1120 357 0
v -1120 133 0
v -1536 325 0
v -1536 453 0
v -1760 453 0
v -1760 325 0
v -1312 325 0
v -1312 453 0
v -1536 453 0
v -1536 325 0
v -352 293 0
v -352 453 0
v -512 453 0
v -512 293 0
v -1088 613 0
v -1088 709 0
v -1248 709 0
v -1248 613 0
v -416 453 0
v -416 549 0
v -512 549 0
v -512 453 0
v -896 325 0
v -896 421 0
v -992 421 0
v -992 325 0
v -1440 453 0
v -1440 517 0
v -1568 517 0
v -1568 453 0
v -576 549 0
v -576 613 0
v -672 613 0
v -672 549 0
v -736 357 0
v -736 421 0
v -832 421 0
v -832 357 0
v -1632 261 0
v -1632 325 0
v -1728 325 0
v -1728 261 0
v -512 293 0
v -512 357 0
v -608 357 0
v -608 293 0
v -928 101 0
v -928 197 0
v -992 197 0
v -992 101 0
v -1152 197 0
v -1152 293 0
v -1216 293 0
v -1216 197 0
v -1568 453 0
v -1568 517 0
v -1664 517 0
v -1664 453 0
v -1472 997 0
v -1472 1093 0
v -1536 1093 0
v -1536 997 0
v -480 869 0
v -480 933 0
v -576 933 0
v -576 869 0
v -1248 645 0
v -1248 709 0
v -1312 709 0
v -1312 645 0
v -1408 805 0
v -1408 869 0
v -1472 869 0
v -1472 805 0
v -608 837 0
v -608 901 0
v -672 901 0
v -672 837 0
v -704 517 0
v -704 581 0
v -768 581 0
v -768 517 0
v -768 453 0
v -768 517 0
v -832 517 0
v -832 453 0
v -1152 133 0
v -1152 197 0
v -1216 197 0
v -1216 133 0
v -768 197 0
v -768 261 0
v -832 261 0
v -832 197 0
v -320 165 0
v -320 261 0
v -352 261 0
v -352 165 0
v -320 261 0
v -320 357 0
v -352 357 0
v -352 261 0
v -608 101 0
v -608 133 0
v -704 133 0
v -704 101 0
v -512 101 0
v -512 133 0
v -608 133 0
v -608 101 0
v -1376 613 0
v -1376 677 0
v -1408 677 0
v -1408 613 0
v -1376 453 0
v -1376 485 0
v -1440 485 0
v -1440 453 0
v -320 389 0
v -320 453 0
v -352 453 0
v -352 389 0
v -1664 453 0
v -1664 485 0
v -1728 485 0
v -1728 453 0
v -1760 837 0
v -1760 869 0
v -1824 869 0
v -1824 837 0
v -1344 837 0
v -1344 901 0
v -1376 901 0
v -1376 837 0
v -480 645 0
v -480 709 0
v -512 709 0
v -512 645 0
v -1472 709 0
v -1472 773 0
v -1504 773 0
v -1504 709 0
v -288 165 0
v -288 229 0
v -320 229 0
v -320 165 0
v -928 293 0
v -928 325 0
v -992 325 0
v -992 293 0
v -1216 133 0
v -1216 197 0
v -1248 197 0
v -1248 133 0
v -1344 165 0
v -1344 229 0
v -1376 229 0
v -1376 165 0
v -1280 357 0
v -1280 421 0
v -1312 421 0
v -1312 357 0
v -1216 357 0
v -1216 421 0
v -1248 421 0
v -1248 357 0
v -768 325 0
v -768 357 0
v -832 357 0
v -832 325 0
v -704 293 0
v -704 357 0
v -736 357 0
v -736 293 0
v -1344 677 0
v -1344 709 0
v -1408 709 0
v -1408 677 0
v -1152 581 0
v -1152 613 0
v -1216 613 0
v -1216 581 0
v -512 517 0
v -512 581 0
v -544 581 0
v -544 517 0
v -1440 293 0
v -1440 325 0
v -1504 325 0
v -1504 293 0
v -1504 293 0
v -1504 325 0
v -1568 325 0
v -1568 293 0
v -1376 1061 0
v -1376 1125 0
v -1408 1125 0
v -1408 1061 0
v -1312 901 0
v -1312 965 0
v -1344 965 0
v -1344 901 0
v -1120 165 0
v -1120 229 0
v -1152 229 0
v -1152 165 0
v -1344 933 0
v -1344 997 0
v -1376 997 0
v -1376 933 0
v -1024 357 0
v -1024 389 0
v -1088 389 0
v -1088 357 0
v -608 293 0
v -608 325 0
v -640 325 0
v -640 293 0
v -1760 325 0
v -1760 357 0
v -1792 357 0
v -1792 325 0
v -832 357 0
v -832 389 0
v -864 389 0
v -864 357 0
v -512 357 0
v -512 389 0
v -544 389 0
v -544 357 0
v -608 517 0
v -608 549 0
v -640 549 0
v -640 517 0
v -480 549 0
v -480 581 0
v -512 581 0
v -512 549 0
v -768 517 0
v -768 549 0
v -800 549 0
v -800 517 0
v -704 389 0
v -704 421 0
v -736 421 0
v -736 389 0
v -384 453 0
v -384 485 0
v -416 485 0
v -416 453 0
v -864 101 0
v -864 133 0
v -896 133 0
v -896 101 0
v -1600 261 0
v -1600 293 0
v -1632 293 0
v -1632 261 0
v -960 197 0
v -960 229 0
v -992 229 0
v -992 197 0
v -832 229 0
v -832 261 0
v -864 261 0
v -864 229 0
v -1120 261 0
v -1120 293 0
v -1152 293 0
v -1152 261 0
v -1344 293 0
v -1344 325 0
v -1376 325 0
v -1376 293 0
v -672 293 0
v -672 325 0
v -704 325 0
v -704 293 0
v -832 37 0
v -832 69 0
v -864 69 0
v -864 37 0
v -1728 293 0
v -1728 325 0
v -1760 325 0
v -1760 293 0
v -1344 1029 0
v -1344 1061 0
v -1376 1061 0
v -1376 1029 0
v -1376 1029 0
v -1376 1061 0
v -1408 1061 0
v -1408 1029 0
v -448 901 0
v -448 933 0
v -480 933 0
v -480 901 0
v -1440 1029 0
v -1440 1061 0
v -1472 1061 0
v -1472 1029 0
v -1408 677 0
v -1408 709 0
v -1440 709 0
v -1440 677 0
v -1088 357 0
v -1088 389 0
v -1120 389 0
v -1120 357 0
v -1120 133 0
v -1120 165 0
v -1152 165 0
v -1152 133 0
v -1216 581 0
v -1216 613 0
v -1248 613 0
v -1248 581 0
v -512 485 0
v -512 517 0
v -544 517 0
v -544 485 0
v -1344 709 0
v -1344 741 0
v -1376 741 0
v -1376 709 0
v -640 741 0
v -640 773 0
v -672 773 0
v -672 741 0
v -704 677 0
v -704 709 0
v -736 709 0
v -736 677 0
v -1440 709 0
v -1440 741 0
v -1472 741 0
v -1472 709 0
v -640 805 0
v -640 837 0
v -672 837 0
v -672 805 0
v -1376 869 0
v -1376 901 0
v -1408 901 0
v -1408 869 0
v -576 901 0
v -576 933 0
v -608 933 0
v -608 901 0
v -544 837 0
v -544 869 0
v -576 869 0
v -576 837 0
v -1440 869 0
v -1440 901 0
v -1472 901 0
v -1472 869 0
vt 0.0009765625 0.00203251839
vt 0.0009765625 0.327235758
vt 0.375976562 0.327235758
vt 0.375976562 0.00203251839
vt 0.377929688 0.00203251839
vt 0.377929688 0.457317054
vt 0.502929688 0.457317054
vt 0.502929688 0.00203251839
vt 0.504882812 0.00203251839
vt 0.504882812 0.26219511
vt 0.723632812 0.26219511
vt 0.723632812 0.00203251839
vt 0.725585938 0.00203251839
vt 0.725585938 0.26219511
vt 0.944335938 0.26219511
vt 0.944335938 0.00203251839
vt 0.504882812 0.266260147
vt 0.504882812 0.591463447
vt 0.661132812 0.591463447
vt 0.661132812 0.266260147
vt 0.663085938 0.266260147
vt 0.663085938 0.461382091
vt 0.819335938 0.461382091
vt 0.819335938 0.266260147
vt 0.821289062 0.266260147
vt 0.821289062 0.461382091
vt 0.915039062 0.461382091
vt 0.915039062 0.266260147
vt 0.0009765625 0.331300795
vt 0.0009765625 0.526422739
vt 0.0947265625 0.526422739
vt 0.0947265625 0.331300795
vt 0.0966796875 0.331300795
vt 0.0966796875 0.461382091
vt 0.221679688 0.461382091
vt 0.221679688 0.331300795
vt 0.223632812 0.331300795
vt 0.223632812 0.461382091
vt 0.317382812 0.461382091
vt 0.317382812 0.331300795
vt 0.377929688 0.461382091
vt 0.377929688 0.591463447
vt 0.471679688 0.591463447
vt 0.471679688 0.461382091
vt 0.0966796875 0.465447128
vt 0.0966796875 0.595528483
vt 0.190429688 0.595528483
vt 0.190429688 0.465447128
vt 0.192382812 0.465447128
vt 0.192382812 0.595528483
vt 0.286132812 0.595528483
vt 0.286132812 0.465447128
vt 0.916992188 0.266260147
vt 0.916992188 0.461382091
vt 0.979492188 0.461382091
vt 0.979492188 0.266260147
vt 0.288085938 0.465447128
vt 0.288085938 0.660569072
vt 0.350585938 0.660569072
vt 0.350585938 0.465447128
vt 0.663085938 0.465447128
vt 0.663085938 0.595528483
vt 0.756835938 0.595528483
vt 0.756835938 0.465447128
vt 0.758789062 0.465447128
vt 0.758789062 0.660569072
vt 0.821289062 0.660569072
vt 0.821289062 0.465447128
vt 0.823242188 0.465447128
vt 0.823242188 0.595528483
vt 0.916992188 0.595528483
vt 0.916992188 0.465447128
vt 0.918945312 0.465447128
vt 0.918945312 0.595528483
vt 0.981445312 0.595528483
vt 0.981445312 0.465447128
vt 0.0009765625 0.530487776
vt 0.0009765625 0.660569072
vt 0.0634765625 0.660569072
vt 0.0634765625 0.530487776
vt 0.377929688 0.595528483
vt 0.377929688 0.725609779
vt 0.440429688 0.725609779
vt 0.440429688 0.595528483
vt 0.442382812 0.595528483
vt 0.442382812 0.725609779
vt 0.504882812 0.725609779
vt 0.504882812 0.595528483
vt 0.506835938 0.595528483
vt 0.506835938 0.725609779
vt 0.569335938 0.725609779
vt 0.569335938 0.595528483
vt 0.571289062 0.595528483
vt 0.571289062 0.725609779
vt 0.633789062 0.725609779
vt 0.633789062 0.595528483
vt 0.0966796875 0.59959352
vt 0.0966796875 0.729674816
vt 0.159179688 0.729674816
vt 0.159179688 0.59959352
vt 0.161132812 0.59959352
vt 0.161132812 0.794715464
vt 0.192382812 0.794715464
vt 0.192382812 0.59959352
vt 0.194335938 0.59959352
vt 0.194335938 0.794715464
vt 0.225585938 0.794715464
vt 0.225585938 0.59959352
vt 0.663085938 0.59959352
vt 0.663085938 0.664634109
vt 0.756835938 0.664634109
vt 0.756835938 0.59959352
vt 0.823242188 0.59959352
vt 0.823242188 0.664634109
vt 0.916992188 0.664634109
vt 0.916992188 0.59959352
vt 0.227539062 0.59959352
vt 0.227539062 0.729674816
vt 0.258789062 0.729674816
vt 0.258789062 0.59959352
vt 0.918945312 0.59959352
vt 0.918945312 0.664634109
vt 0.981445312 0.664634109
vt 0.981445312 0.59959352
vt 0.0009765625 0.664634109
vt 0.0009765625 0.794715464
vt 0.0322265625 0.794715464
vt 0.0322265625 0.664634109
vt 0.288085938 0.664634109
vt 0.288085938 0.729674816
vt 0.350585938 0.729674816
vt 0.350585938 0.664634109
vt 0.758789062 0.664634109
vt 0.758789062 0.729674816
vt 0.821289062 0.729674816
vt 0.821289062 0.664634109
vt 0.0341796875 0.664634109
vt 0.0341796875 0.794715464
vt 0.0654296875 0.794715464
vt 0.0654296875 0.664634109
vt 0.663085938 0.668699145
vt 0.663085938 0.798780501
vt 0.694335938 0.798780501
vt 0.694335938 0.668699145
vt 0.696289062 0.668699145
vt 0.696289062 0.798780501
vt 0.727539062 0.798780501
vt 0.727539062 0.668699145
vt 0.823242188 0.668699145
vt 0.823242188 0.798780501
vt 0.854492188 0.798780501
vt 0.854492188 0.668699145
vt 0.856445312 0.668699145
vt 0.856445312 0.733739853
vt 0.918945312 0.733739853
vt 0.918945312 0.668699145
vt 0.920898438 0.668699145
vt 0.920898438 0.798780501
vt 0.952148438 0.798780501
vt 0.952148438 0.668699145
vt 0.954101562 0.668699145
vt 0.954101562 0.798780501
vt 0.985351562 0.798780501
vt 0.985351562 0.668699145
vt 0.377929688 0.729674816
vt 0.377929688 0.859756112
vt 0.409179688 0.859756112
vt 0.409179688 0.729674816
vt 0.411132812 0.729674816
vt 0.411132812 0.859756112
vt 0.442382812 0.859756112
vt 0.442382812 0.729674816
vt 0.444335938 0.729674816
vt 0.444335938 0.794715464
vt 0.506835938 0.794715464
vt 0.506835938 0.729674816
vt 0.508789062 0.729674816
vt 0.508789062 0.859756112
vt 0.540039062 0.859756112
vt 0.540039062 0.729674816
vt 0.541992188 0.729674816
vt 0.541992188 0.794715464
vt 0.604492188 0.794715464
vt 0.604492188 0.729674816
vt 0.0966796875 0.733739853
vt 0.0966796875 0.798780501
vt 0.159179688 0.798780501
vt 0.159179688 0.733739853
vt 0.606445312 0.729674816
vt 0.606445312 0.859756112
vt 0.637695312 0.859756112
vt 0.637695312 0.729674816
vt 0.227539062 0.733739853
vt 0.227539062 0.798780501
vt 0.290039062 0.798780501
vt 0.290039062 0.733739853
vt 0.291992188 0.733739853
vt 0.291992188 0.798780501
vt 0.354492188 0.798780501
vt 0.354492188 0.733739853
vt 0.758789062 0.733739853
vt 0.758789062 0.863821149
vt 0.790039062 0.863821149
vt 0.790039062 0.733739853
vt 0.856445312 0.73780489
vt 0.856445312 0.867886186
vt 0.887695312 0.867886186
vt 0.887695312 0.73780489
vt 0.0009765625 0.798780501
vt 0.0009765625 0.928861797
vt 0.0322265625 0.928861797
vt 0.0322265625 0.798780501
vt 0.0341796875 0.798780501
vt 0.0341796875 0.928861797
vt 0.0654296875 0.928861797
vt 0.0654296875 0.798780501
vt 0.161132812 0.798780501
vt 0.161132812 0.863821149
vt 0.223632812 0.863821149
vt 0.223632812 0.798780501
vt 0.444335938 0.798780501
vt 0.444335938 0.863821149
vt 0.475585938 0.863821149
vt 0.475585938 0.798780501
vt 0.541992188 0.798780501
vt 0.541992188 0.863821149
vt 0.573242188 0.863821149
vt 0.573242188 0.798780501
vt 0.0966796875 0.802845538
vt 0.0966796875 0.867886186
vt 0.127929688 0.867886186
vt 0.127929688 0.802845538
vt 0.227539062 0.802845538
vt 0.227539062 0.867886186
vt 0.258789062 0.867886186
vt 0.258789062 0.802845538
vt 0.260742188 0.802845538
vt 0.260742188 0.867886186
vt 0.291992188 0.867886186
vt 0.291992188 0.802845538
vt 0.293945312 0.802845538
vt 0.293945312 0.867886186
vt 0.325195312 0.867886186
vt 0.325195312 0.802845538
vt 0.327148438 0.802845538
vt 0.327148438 0.867886186
vt 0.358398438 0.867886186
vt 0.358398438 0.802845538
vt 0.663085938 0.802845538
vt 0.663085938 0.867886186
vt 0.694335938 0.867886186
vt 0.694335938 0.802845538
vt 0.696289062 0.802845538
vt 0.696289062 0.867886186
vt 0.727539062 0.867886186
vt 0.727539062 0.802845538
vt 0.823242188 0.802845538
vt 0.823242188 0.867886186
vt 0.854492188 0.867886186
vt 0.854492188 0.802845538
vt 0.920898438 0.802845538
vt 0.920898438 0.867886186
vt 0.952148438 0.867886186
vt 0.952148438 0.802845538
vt 0.954101562 0.802845538
vt 0.954101562 0.867886186
vt 0.985351562 0.867886186
vt 0.985351562 0.802845538
vt 0.377929688 0.863821149
vt 0.377929688 0.928861797
vt 0.409179688 0.928861797
vt 0.409179688 0.863821149
vt 0.411132812 0.863821149
vt 0.411132812 0.928861797
vt 0.442382812 0.928861797
vt 0.442382812 0.863821149
vt 0.508789062 0.863821149
vt 0.508789062 0.928861797
vt 0.540039062 0.928861797
vt 0.540039062 0.863821149
vt 0.606445312 0.863821149
vt 0.606445312 0.928861797
vt 0.637695312 0.928861797
vt 0.637695312 0.863821149
vt 0.161132812 0.867886186
vt 0.161132812 0.932926834
vt 0.192382812 0.932926834
vt 0.192382812 0.867886186
vt 0.194335938 0.867886186
vt 0.194335938 0.932926834
vt 0.225585938 0.932926834
vt 0.225585938 0.867886186
vt 0.444335938 0.867886186
vt 0.444335938 0.932926834
vt 0.475585938 0.932926834
vt 0.475585938 0.867886186
vt 0.541992188 0.867886186
vt 0.541992188 0.932926834
vt 0.573242188 0.932926834
vt 0.573242188 0.867886186
vt 0.758789062 0.867886186
vt 0.758789062 0.932926834
vt 0.790039062 0.932926834
vt 0.790039062 0.867886186
vt 0.0966796875 0.871951222
vt 0.0966796875 0.93699187
vt 0.127929688 0.93699187
vt 0.127929688 0.871951222
vt 0.227539062 0.871951222
vt 0.227539062 0.93699187
vt 0.258789062 0.93699187
vt 0.258789062 0.871951222
vt 0.260742188 0.871951222
vt 0.260742188 0.93699187
vt 0.291992188 0.93699187
vt 0.291992188 0.871951222
vt 0.293945312 0.871951222
vt 0.293945312 0.93699187
vt 0.325195312 0.93699187
vt 0.325195312 0.871951222
vt 0.327148438 0.871951222
vt 0.327148438 0.93699187
vt 0.358398438 0.93699187
vt 0.358398438 0.871951222
vt 0.663085938 0.871951222
vt 0.663085938 0.93699187
vt 0.694335938 0.93699187
vt 0.694335938 0.871951222
vt 0.696289062 0.871951222
vt 0.696289062 0.93699187
vt 0.727539062 0.93699187
vt 0.727539062 0.871951222
vt 0.823242188 0.871951222
vt 0.823242188 0.93699187
vt 0.854492188 0.93699187
vt 0.854492188 0.871951222
vt 0.856445312 0.871951222
vt 0.856445312 0.93699187
vt 0.887695312 0.93699187
vt 0.887695312 0.871951222
vt 0.920898438 0.871951222
vt 0.920898438 0.93699187
vt 0.952148438 0.93699187
vt 0.952148438 0.871951222
vt 0.954101562 0.871951222
vt 0.954101562 0.93699187
vt 0.985351562 0.93699187
vt 0.985351562 0.871951222
vt 0.0009765625 0.932926834
vt 0.0009765625 0.997967482
vt 0.0322265625 0.997967482
vt 0.0322265625 0.932926834
vt 0.0341796875 0.932926834
vt 0.0341796875 0.997967482
vt 0.0654296875 0.997967482
vt 0.0654296875 0.932926834
vt 0.377929688 0.932926834
vt 0.377929688 0.997967482
vt 0.409179688 0.997967482
vt 0.409179688 0.932926834
vt 0.411132812 0.932926834
vt 0.411132812 0.997967482
vt 0.442382812 0.997967482
vt 0.442382812 0.932926834
g huangjiazhanmusi_bj-mesh_0
f 3/3/3 2/2/2 1/1/1
f 1/1/1 4/4/4 3/3/3
f 7/7/7 6/6/6 5/5/5
f 5/5/5 8/8/8 7/7/7
f 11/11/11 10/10/10 9/9/9
f 9/9/9 12/12/12 11/11/11
f 15/15/15 14/14/14 13/13/13
f 13/13/13 16/16/16 15/15/15
f 19/19/19 18/18/18 17/17/17
f 17/17/17 20/20/20 19/19/19
f 23/23/23 22/22/22 21/21/21
f 21/21/21 24/24/24 23/23/23
f 27/27/27 26/26/26 25/25/25
f 25/25/25 28/28/28 27/27/27
f 31/31/31 30/30/30 29/29/29
f 29/29/29 32/32/32 31/31/31
f 35/35/35 34/34/34 33/33/33
f 33/33/33 36/36/36 35/35/35
f 39/39/39 38/38/38 37/37/37
f 37/37/37 40/40/40 39/39/39
f 43/43/43 42/42/42 41/41/41
f 41/41/41 44/44/44 43/43/43
f 47/47/47 46/46/46 45/45/45
f 45/45/45 48/48/48 47/47/47
f 51/51/51 50/50/50 49/49/49
f 49/49/49 52/52/52 51/51/51
f 55/55/55 54/54/54 53/53/53
f 53/53/53 56/56/56 55/55/55
f 59/59/59 58/58/58 57/57/57
f 57/57/57 60/60/60 59/59/59
f 63/63/63 62/62/62 61/61/61
f 61/61/61 64/64/64 63/63/63
f 67/67/67 66/66/66 65/65/65
f 65/65/65 68/68/68 67/67/67
f 71/71/71 70/70/70 69/69/69
f 69/69/69 72/72/72 71/71/71
f 75/75/75 74/74/74 73/73/73
f 73/73/73 76/76/76 75/75/75
f 79/79/79 78/78/78 77/77/77
f 77/77/77 80/80/80 79/79/79
f 83/83/83 82/82/82 81/81/81
f 81/81/81 84/84/84 83/83/83
f 87/87/87 86/86/86 85/85/85
f 85/85/85 88/88/88 87/87/87
f 91/91/91 90/90/90 89/89/89
f 89/89/89 92/92/92 91/91/91
f 95/95/95 94/94/94 93/93/93
f 93/93/93 96/96/96 95/95/95
f 99/99/99 98/98/98 97/97/97
f 97/97/97 100/100/100 99/99/99
f 103/103/103 102/102/102 101/101/101
f 101/101/101 104/104/104 103/103/103
f 107/107/107 106/106/106 105/105/105
f 105/105/105 108/108/108 107/107/107
f 111/111/111 110/110/110 109/109/109
f 109/109/109 112/112/112 111/111/111
f 115/115/115 114/114/114 113/113/113
f 113/113/113 116/116/116 115/115/115
f 119/119/119 118/118/118 117/117/117
f 117/117/117 120/120/120 119/119/119
f 123/123/123 122/122/122 121/121/121
f 121/121/121 124/124/124 123/123/123
f 127/127/127 126/126/126 125/125/125
f 125/125/125 128/128/128 127/127/127
f 131/131/131 130/130/130 129/129/129
f 129/129/129 132/132/132 131/131/131
f 135/135/135 134/134/134 133/133/133
f 133/133/133 136/136/136 135/135/135
f 139/139/139 138/138/138 137/137/137
f 137/137/137 140/140/140 139/139/139
f 143/143/143 142/142/142 141/141/141
f 141/141/141 144/144/144 143/143/143
f 147/147/147 146/146/146 145/145/145
f 145/145/145 148/148/148 147/147/147
f 151/151/151 150/150/150 149/149/149
f 149/149/149 152/152/152 151/151/151
f 155/155/155 154/154/154 153/153/153
f 153/153/153 156/156/156 155/155/155
f 159/159/159 158/158/158 157/157/157
f 157/157/157 160/160/160 159/159/159
f 163/163/163 162/162/162 161/161/161
f 161/161/161 164/164/164 163/163/163
f 167/167/167 166/166/166 165/165/165
f 165/165/165 168/168/168 167/167/167
f 171/171/171 170/170/170 169/169/169
f 169/169/169 172/172/172 171/171/171
f 175/175/175 174/174/174 173/173/173
f 173/173/173 176/176/176 175/175/175
f 179/179/179 178/178/178 177/177/177
f 177/177/177 180/180/180 179/179/179
f 183/183/183 182/182/182 181/181/181
f 181/181/181 184/184/184 183/183/183
f 187/187/187 186/186/186 185/185/185
f 185/185/185 188/188/188 187/187/187
f 191/191/191 190/190/190 189/189/189
f 189/189/189 192/192/192 191/191/191
f 195/195/195 194/194/194 193/193/193
f 193/193/193 196/196/196 195/195/195
f 199/199/199 198/198/198 197/197/197
f 197/197/197 200/200/200 199/199/199
f 203/203/203 202/202/202 201/201/201
f 201/201/201 204/204/204 203/203/203
f 207/207/207 206/206/206 205/205/205
f 205/205/205 208/208/208 207/207/207
f 211/211/211 210/210/210 209/209/209
f 209/209/209 212/212/212 211/211/211
f 215/215/215 214/214/214 213/213/213
f 213/213/213 216/216/216 215/215/215
f 219/219/219 218/218/218 217/217/217
f 217/217/217 220/220/220 219/219/219
f 223/223/223 222/222/222 221/221/221
f 221/221/221 224/224/224 223/223/223
f 227/227/227 226/226/226 225/225/225
f 225/225/225 228/228/228 227/227/227
f 231/231/231 230/230/230 229/229/229
f 229/229/229 232/232/232 231/231/231
f 235/235/235 234/234/234 233/233/233
f 233/233/233 236/236/236 235/235/235
f 239/239/239 238/238/238 237/237/237
f 237/237/237 240/240/240 239/239/239
f 243/243/243 242/242/242 241/241/241
f 241/241/241 244/244/244 243/243/243
f 247/247/247 246/246/246 245/245/245
f 245/245/245 248/248/248 247/247/247
f 251/251/251 250/250/250 249/249/249
f 249/249/249 252/252/252 251/251/251
f 255/255/255 254/254/254 253/253/253
f 253/253/253 256/256/256 255/255/255
f 259/259/259 258/258/258 257/257/257
f 257/257/257 260/260/260 259/259/259
f 263/263/263 262/262/262 261/261/261
f 261/261/261 264/264/264 263/263/263
f 267/267/267 266/266/266 265/265/265
f 265/265/265 268/268/268 267/267/267
f 271/271/271 270/270/270 269/269/269
f 269/269/269 272/272/272 271/271/271
f 275/275/275 274/274/274 273/273/273
f 273/273/273 276/276/276 275/275/275
f 279/279/279 278/278/278 277/277/277
f 277/277/277 280/280/280 279/279/279
f 283/283/283 282/282/282 281/281/281
f 281/281/281 284/284/284 283/283/283
f 287/287/287 286/286/286 285/285/285
f 285/285/285 288/288/288 287/287/287
f 291/291/291 290/290/290 289/289/289
f 289/289/289 292/292/292 291/291/291
f 295/295/295 294/294/294 293/293/293
f 293/293/293 296/296/296 295/295/295
f 299/299/299 298/298/298 297/297/297
f 297/297/297 300/300/300 299/299/299
f 303/303/303 302/302/302 301/301/301
f 301/301/301 304/304/304 303/303/303
f 307/307/307 306/306/306 305/305/305
f 305/305/305 308/308/308 307/307/307
f 311/311/311 310/310/310 309/309/309
f 309/309/309 312/312/312 311/311/311
f 315/315/315 314/314/314 313/313/313
f 313/313/313 316/316/316 315/315/315
f 319/319/319 318/318/318 317/317/317
f 317/317/317 320/320/320 319/319/319
f 323/323/323 322/322/322 321/321/321
f 321/321/321 324/324/324 323/323/323
f 327/327/327 326/326/326 325/325/325
f 325/325/325 328/328/328 327/327/327
f 331/331/331 330/330/330 329/329/329
f 329/329/329 332/332/332 331/331/331
f 335/335/335 334/334/334 333/333/333
f 333/333/333 336/336/336 335/335/335
f 339/339/339 338/338/338 337/337/337
f 337/337/337 340/340/340 339/339/339
f 343/343/343 342/342/342 341/341/341
f 341/341/341 344/344/344 343/343/343
f 347/347/347 346/346/346 345/345/345
f 345/345/345 348/348/348 347/347/347
f 351/351/351 350/350/350 349/349/349
f 349/349/349 352/352/352 351/351/351
f 355/355/355 354/354/354 353/353/353
f 353/353/353 356/356/356 355/355/355
f 359/359/359 358/358/358 357/357/357
f 357/357/357 360/360/360 359/359/359
f 363/363/363 362/362/362 361/361/361
f 361/361/361 364/364/364 363/363/363
