g feiniao_rw_ex-mesh
v -704 895 0
v -704 1439 0
v -1056 1439 0
v -1056 895 0
v -704 1439 0
v -704 1983 0
v -1056 1983 0
v -1056 1439 0
v -832 191 0
v -832 543 0
v -992 543 0
v -992 191 0
v -832 543 0
v -832 895 0
v -992 895 0
v -992 543 0
v -512 1055 0
v -512 1311 0
v -704 1311 0
v -704 1055 0
v -544 1567 0
v -544 1823 0
v -704 1823 0
v -704 1567 0
v -864 0 0
v -864 159 0
v -992 159 0
v -992 0 0
v -1056 1023 0
v -1056 1183 0
v -1184 1183 0
v -1184 1023 0
v -608 1375 0
v -608 1535 0
v -704 1535 0
v -704 1375 0
v -768 735 0
v -768 895 0
v -832 895 0
v -832 735 0
v -768 575 0
v -768 735 0
v -832 735 0
v -832 575 0
v -992 607 0
v -992 895 0
v -1024 895 0
v -1024 607 0
v -992 319 0
v -992 607 0
v -1024 607 0
v -1024 319 0
v -640 927 0
v -640 1055 0
v -704 1055 0
v -704 927 0
v -192 1663 0
v -192 1727 0
v -288 1727 0
v -288 1663 0
v -1184 1087 0
v -1184 1151 0
v -1280 1151 0
v -1280 1087 0
v -96 1631 0
v -96 1695 0
v -192 1695 0
v -192 1631 0
v -800 1983 0
v -800 2047 0
v -896 2047 0
v -896 1983 0
v -896 1983 0
v -896 2047 0
v -992 2047 0
v -992 1983 0
v -1056 1663 0
v -1056 1823 0
v -1088 1823 0
v -1088 1663 0
v -1056 1823 0
v -1056 1983 0
v -1088 1983 0
v -1088 1823 0
v -32 1599 0
v -32 1663 0
v -96 1663 0
v -96 1599 0
v -416 1727 0
v -416 1759 0
v -544 1759 0
v -544 1727 0
v -288 1663 0
v -288 1727 0
v -352 1727 0
v -352 1663 0
v -1280 1087 0
v -1280 1151 0
v -1344 1151 0
v -1344 1087 0
v -288 1727 0
v -288 1759 0
v -416 1759 0
v -416 1727 0
v -1056 927 0
v -1056 1023 0
v -1088 1023 0
v -1088 927 0
v -1088 1727 0
v -1088 1823 0
v -1120 1823 0
v -1120 1727 0
v -352 1695 0
v -352 1727 0
v -416 1727 0
v -416 1695 0
v -640 1535 0
v -640 1567 0
v -704 1567 0
v -704 1535 0
v -672 1823 0
v -672 1887 0
v -704 1887 0
v -704 1823 0
v -896 159 0
v -896 191 0
v -960 191 0
v -960 159 0
v -736 831 0
v -736 895 0
v -768 895 0
v -768 831 0
v -640 1343 0
v -640 1375 0
v -704 1375 0
v -704 1343 0
v -800 511 0
v -800 575 0
v -832 575 0
v -832 511 0
v -1024 511 0
v -1024 575 0
v -1056 575 0
v -1056 511 0
v -1088 959 0
v -1088 1023 0
v -1120 1023 0
v -1120 959 0
v -544 1311 0
v -544 1343 0
v -608 1343 0
v -608 1311 0
v -1344 1119 0
v -1344 1151 0
v -1408 1151 0
v -1408 1119 0
v -1024 831 0
v -1024 895 0
v -1056 895 0
v -1056 831 0
v -1024 767 0
v -1024 831 0
v -1056 831 0
v -1056 767 0
v -448 1759 0
v -448 1791 0
v -512 1791 0
v -512 1759 0
v -1088 1663 0
v -1088 1727 0
v -1120 1727 0
v -1120 1663 0
v -1312 1151 0
v -1312 1183 0
v -1376 1183 0
v -1376 1151 0
v -1376 1151 0
v -1376 1183 0
v -1440 1183 0
v -1440 1151 0
v -1056 863 0
v -1056 927 0
v -1088 927 0
v -1088 863 0
v -512 1631 0
v -512 1695 0
v -544 1695 0
v -544 1631 0
v -1056 1215 0
v -1056 1279 0
v -1088 1279 0
v -1088 1215 0
v -160 1695 0
v -160 1727 0
v -192 1727 0
v -192 1695 0
v -672 1311 0
v -672 1343 0
v -704 1343 0
v -704 1311 0
v -0 1599 0
v -0 1631 0
v -32 1631 0
v -32 1599 0
v -1088 1183 0
v -1088 1215 0
v -1120 1215 0
v -1120 1183 0
v -672 895 0
v -672 927 0
v -704 927 0
v -704 895 0
v -1120 991 0
v -1120 1023 0
v -1152 1023 0
v -1152 991 0
v -1472 1119 0
v -1472 1151 0
v -1493 1151 0
v -1493 1119 0
v -832 31 0
v -832 63 0
v -864 63 0
v -864 31 0
v -640 1823 0
v -640 1855 0
v -672 1855 0
v -672 1823 0
v -960 159 0
v -960 191 0
v -992 191 0
v -992 159 0
v -512 1759 0
v -512 1791 0
v -544 1791 0
v -544 1759 0
v -736 799 0
v -736 831 0
v -768 831 0
v -768 799 0
v -512 1599 0
v -512 1631 0
v -544 1631 0
v -544 1599 0
v -672 1919 0
v -672 1951 0
v -704 1951 0
v -704 1919 0
v -1088 1855 0
v -1088 1887 0
v -1120 1887 0
v -1120 1855 0
v -1056 1183 0
v -1056 1215 0
v -1088 1215 0
v -1088 1183 0
v -768 1983 0
v -768 2015 0
v -800 2015 0
v -800 1983 0
vt 0.0009765625 0.00113636255
vt 0.0009765625 0.619318187
vt 0.344726562 0.619318187
vt 0.344726562 0.00113636255
vt 0.346679688 0.00113636255
vt 0.346679688 0.619318187
vt 0.690429688 0.619318187
vt 0.690429688 0.00113636255
vt 0.692382812 0.00113636255
vt 0.692382812 0.401136339
vt 0.848632812 0.401136339
vt 0.848632812 0.00113636255
vt 0.692382812 0.403409064
vt 0.692382812 0.8034091
vt 0.848632812 0.8034091
vt 0.848632812 0.403409064
vt 0.0009765625 0.621590912
vt 0.0009765625 0.912500024
vt 0.188476562 0.912500024
vt 0.188476562 0.621590912
vt 0.190429688 0.621590912
vt 0.190429688 0.912500024
vt 0.346679688 0.912500024
vt 0.346679688 0.621590912
vt 0.850585938 0.00113636255
vt 0.850585938 0.18295455
vt 0.975585938 0.18295455
vt 0.975585938 0.00113636255
vt 0.850585938 0.185227275
vt 0.850585938 0.367045462
vt 0.975585938 0.367045462
vt 0.975585938 0.185227275
vt 0.850585938 0.369318187
vt 0.850585938 0.551136374
vt 0.944335938 0.551136374
vt 0.944335938 0.369318187
vt 0.850585938 0.5534091
vt 0.850585938 0.735227287
vt 0.913085938 0.735227287
vt 0.913085938 0.5534091
vt 0.915039062 0.5534091
vt 0.915039062 0.735227287
vt 0.977539062 0.735227287
vt 0.977539062 0.5534091
vt 0.348632812 0.621590912
vt 0.348632812 0.948863626
vt 0.379882812 0.948863626
vt 0.379882812 0.621590912
vt 0.381835938 0.621590912
vt 0.381835938 0.948863626
vt 0.413085938 0.948863626
vt 0.413085938 0.621590912
vt 0.415039062 0.621590912
vt 0.415039062 0.767045438
vt 0.477539062 0.767045438
vt 0.477539062 0.621590912
vt 0.479492188 0.621590912
vt 0.479492188 0.694318175
vt 0.573242188 0.694318175
vt 0.573242188 0.621590912
vt 0.575195312 0.621590912
vt 0.575195312 0.694318175
vt 0.668945312 0.694318175
vt 0.668945312 0.621590912
vt 0.479492188 0.6965909
vt 0.479492188 0.769318163
vt 0.573242188 0.769318163
vt 0.573242188 0.6965909
vt 0.575195312 0.6965909
vt 0.575195312 0.769318163
vt 0.668945312 0.769318163
vt 0.668945312 0.6965909
vt 0.850585938 0.737500012
vt 0.850585938 0.810227275
vt 0.944335938 0.810227275
vt 0.944335938 0.737500012
vt 0.946289062 0.737500012
vt 0.946289062 0.919318199
vt 0.977539062 0.919318199
vt 0.977539062 0.737500012
vt 0.415039062 0.769318163
vt 0.415039062 0.951136351
vt 0.446289062 0.951136351
vt 0.446289062 0.769318163
vt 0.479492188 0.771590889
vt 0.479492188 0.844318151
vt 0.541992188 0.844318151
vt 0.541992188 0.771590889
vt 0.543945312 0.771590889
vt 0.543945312 0.80795455
vt 0.668945312 0.80795455
vt 0.668945312 0.771590889
vt 0.692382812 0.805681825
vt 0.692382812 0.878409088
vt 0.754882812 0.878409088
vt 0.754882812 0.805681825
vt 0.756835938 0.805681825
vt 0.756835938 0.878409088
vt 0.819335938 0.878409088
vt 0.819335938 0.805681825
vt 0.543945312 0.810227275
vt 0.543945312 0.846590877
vt 0.668945312 0.846590877
vt 0.668945312 0.810227275
vt 0.850585938 0.8125
vt 0.850585938 0.921590924
vt 0.881835938 0.921590924
vt 0.881835938 0.8125
vt 0.883789062 0.8125
vt 0.883789062 0.921590924
vt 0.915039062 0.921590924
vt 0.915039062 0.8125
vt 0.479492188 0.846590877
vt 0.479492188 0.882954538
vt 0.541992188 0.882954538
vt 0.541992188 0.846590877
vt 0.543945312 0.848863602
vt 0.543945312 0.885227263
vt 0.606445312 0.885227263
vt 0.606445312 0.848863602
vt 0.608398438 0.848863602
vt 0.608398438 0.921590924
vt 0.639648438 0.921590924
vt 0.639648438 0.848863602
vt 0.692382812 0.880681813
vt 0.692382812 0.917045474
vt 0.754882812 0.917045474
vt 0.754882812 0.880681813
vt 0.641601562 0.848863602
vt 0.641601562 0.921590924
vt 0.672851562 0.921590924
vt 0.672851562 0.848863602
vt 0.756835938 0.880681813
vt 0.756835938 0.917045474
vt 0.819335938 0.917045474
vt 0.819335938 0.880681813
vt 0.479492188 0.885227263
vt 0.479492188 0.957954526
vt 0.510742188 0.957954526
vt 0.510742188 0.885227263
vt 0.543945312 0.887499988
vt 0.543945312 0.960227251
vt 0.575195312 0.960227251
vt 0.575195312 0.887499988
vt 0.0009765625 0.914772749
vt 0.0009765625 0.987500012
vt 0.0322265625 0.987500012
vt 0.0322265625 0.914772749
vt 0.0341796875 0.914772749
vt 0.0341796875 0.951136351
vt 0.0966796875 0.951136351
vt 0.0966796875 0.914772749
vt 0.0986328125 0.914772749
vt 0.0986328125 0.951136351
vt 0.161132812 0.951136351
vt 0.161132812 0.914772749
vt 0.163085938 0.914772749
vt 0.163085938 0.987500012
vt 0.194335938 0.987500012
vt 0.194335938 0.914772749
vt 0.196289062 0.914772749
vt 0.196289062 0.987500012
vt 0.227539062 0.987500012
vt 0.227539062 0.914772749
vt 0.229492188 0.914772749
vt 0.229492188 0.951136351
vt 0.291992188 0.951136351
vt 0.291992188 0.914772749
vt 0.293945312 0.914772749
vt 0.293945312 0.987500012
vt 0.325195312 0.987500012
vt 0.325195312 0.914772749
vt 0.692382812 0.919318199
vt 0.692382812 0.955681801
vt 0.754882812 0.955681801
vt 0.754882812 0.919318199
vt 0.756835938 0.919318199
vt 0.756835938 0.955681801
vt 0.819335938 0.955681801
vt 0.819335938 0.919318199
vt 0.946289062 0.921590924
vt 0.946289062 0.994318187
vt 0.977539062 0.994318187
vt 0.977539062 0.921590924
vt 0.608398438 0.923863649
vt 0.608398438 0.996590912
vt 0.639648438 0.996590912
vt 0.639648438 0.923863649
vt 0.641601562 0.923863649
vt 0.641601562 0.996590912
vt 0.672851562 0.996590912
vt 0.672851562 0.923863649
vt 0.850585938 0.923863649
vt 0.850585938 0.960227251
vt 0.881835938 0.960227251
vt 0.881835938 0.923863649
vt 0.883789062 0.923863649
vt 0.883789062 0.960227251
vt 0.915039062 0.960227251
vt 0.915039062 0.923863649
vt 0.348632812 0.951136351
vt 0.348632812 0.987500012
vt 0.379882812 0.987500012
vt 0.379882812 0.951136351
vt 0.381835938 0.951136351
vt 0.381835938 0.987500012
vt 0.413085938 0.987500012
vt 0.413085938 0.951136351
vt 0.0341796875 0.953409076
vt 0.0341796875 0.989772737
vt 0.0654296875 0.989772737
vt 0.0654296875 0.953409076
vt 0.0673828125 0.953409076
vt 0.0673828125 0.989772737
vt 0.0986328125 0.989772737
vt 0.0986328125 0.953409076
vt 0.448242188 0.769318163
vt 0.448242188 0.805681825
vt 0.469726562 0.805681825
vt 0.469726562 0.769318163
vt 0.100585938 0.953409076
vt 0.100585938 0.989772737
vt 0.131835938 0.989772737
vt 0.131835938 0.953409076
vt 0.229492188 0.953409076
vt 0.229492188 0.989772737
vt 0.260742188 0.989772737
vt 0.260742188 0.953409076
vt 0.415039062 0.953409076
vt 0.415039062 0.989772737
vt 0.446289062 0.989772737
vt 0.446289062 0.953409076
vt 0.692382812 0.957954526
vt 0.692382812 0.994318187
vt 0.723632812 0.994318187
vt 0.723632812 0.957954526
vt 0.725585938 0.957954526
vt 0.725585938 0.994318187
vt 0.756835938 0.994318187
vt 0.756835938 0.957954526
vt 0.758789062 0.957954526
vt 0.758789062 0.994318187
vt 0.790039062 0.994318187
vt 0.790039062 0.957954526
vt 0.791992188 0.957954526
vt 0.791992188 0.994318187
vt 0.823242188 0.994318187
vt 0.823242188 0.957954526
vt 0.479492188 0.960227251
vt 0.479492188 0.996590912
vt 0.510742188 0.996590912
vt 0.510742188 0.960227251
vt 0.543945312 0.962499976
vt 0.543945312 0.998863637
vt 0.575195312 0.998863637
vt 0.575195312 0.962499976
vt 0.850585938 0.962499976
vt 0.850585938 0.998863637
vt 0.881835938 0.998863637
vt 0.881835938 0.962499976
g feiniao_rw_ex-mesh_0
f 3/3/3 2/2/2 1/1/1
f 1/1/1 4/4/4 3/3/3
f 7/7/7 6/6/6 5/5/5
f 5/5/5 8/8/8 7/7/7
f 11/11/11 10/10/10 9/9/9
f 9/9/9 12/12/12 11/11/11
f 15/15/15 14/14/14 13/13/13
f 13/13/13 16/16/16 15/15/15
f 19/19/19 18/18/18 17/17/17
f 17/17/17 20/20/20 19/19/19
f 23/23/23 22/22/22 21/21/21
f 21/21/21 24/24/24 23/23/23
f 27/27/27 26/26/26 25/25/25
f 25/25/25 28/28/28 27/27/27
f 31/31/31 30/30/30 29/29/29
f 29/29/29 32/32/32 31/31/31
f 35/35/35 34/34/34 33/33/33
f 33/33/33 36/36/36 35/35/35
f 39/39/39 38/38/38 37/37/37
f 37/37/37 40/40/40 39/39/39
f 43/43/43 42/42/42 41/41/41
f 41/41/41 44/44/44 43/43/43
f 47/47/47 46/46/46 45/45/45
f 45/45/45 48/48/48 47/47/47
f 51/51/51 50/50/50 49/49/49
f 49/49/49 52/52/52 51/51/51
f 55/55/55 54/54/54 53/53/53
f 53/53/53 56/56/56 55/55/55
f 59/59/59 58/58/58 57/57/57
f 57/57/57 60/60/60 59/59/59
f 63/63/63 62/62/62 61/61/61
f 61/61/61 64/64/64 63/63/63
f 67/67/67 66/66/66 65/65/65
f 65/65/65 68/68/68 67/67/67
f 71/71/71 70/70/70 69/69/69
f 69/69/69 72/72/72 71/71/71
f 75/75/75 74/74/74 73/73/73
f 73/73/73 76/76/76 75/75/75
f 79/79/79 78/78/78 77/77/77
f 77/77/77 80/80/80 79/79/79
f 83/83/83 82/82/82 81/81/81
f 81/81/81 84/84/84 83/83/83
f 87/87/87 86/86/86 85/85/85
f 85/85/85 88/88/88 87/87/87
f 91/91/91 90/90/90 89/89/89
f 89/89/89 92/92/92 91/91/91
f 95/95/95 94/94/94 93/93/93
f 93/93/93 96/96/96 95/95/95
f 99/99/99 98/98/98 97/97/97
f 97/97/97 100/100/100 99/99/99
f 103/103/103 102/102/102 101/101/101
f 101/101/101 104/104/104 103/103/103
f 107/107/107 106/106/106 105/105/105
f 105/105/105 108/108/108 107/107/107
f 111/111/111 110/110/110 109/109/109
f 109/109/109 112/112/112 111/111/111
f 115/115/115 114/114/114 113/113/113
f 113/113/113 116/116/116 115/115/115
f 119/119/119 118/118/118 117/117/117
f 117/117/117 120/120/120 119/119/119
f 123/123/123 122/122/122 121/121/121
f 121/121/121 124/124/124 123/123/123
f 127/127/127 126/126/126 125/125/125
f 125/125/125 128/128/128 127/127/127
f 131/131/131 130/130/130 129/129/129
f 129/129/129 132/132/132 131/131/131
f 135/135/135 134/134/134 133/133/133
f 133/133/133 136/136/136 135/135/135
f 139/139/139 138/138/138 137/137/137
f 137/137/137 140/140/140 139/139/139
f 143/143/143 142/142/142 141/141/141
f 141/141/141 144/144/144 143/143/143
f 147/147/147 146/146/146 145/145/145
f 145/145/145 148/148/148 147/147/147
f 151/151/151 150/150/150 149/149/149
f 149/149/149 152/152/152 151/151/151
f 155/155/155 154/154/154 153/153/153
f 153/153/153 156/156/156 155/155/155
f 159/159/159 158/158/158 157/157/157
f 157/157/157 160/160/160 159/159/159
f 163/163/163 162/162/162 161/161/161
f 161/161/161 164/164/164 163/163/163
f 167/167/167 166/166/166 165/165/165
f 165/165/165 168/168/168 167/167/167
f 171/171/171 170/170/170 169/169/169
f 169/169/169 172/172/172 171/171/171
f 175/175/175 174/174/174 173/173/173
f 173/173/173 176/176/176 175/175/175
f 179/179/179 178/178/178 177/177/177
f 177/177/177 180/180/180 179/179/179
f 183/183/183 182/182/182 181/181/181
f 181/181/181 184/184/184 183/183/183
f 187/187/187 186/186/186 185/185/185
f 185/185/185 188/188/188 187/187/187
f 191/191/191 190/190/190 189/189/189
f 189/189/189 192/192/192 191/191/191
f 195/195/195 194/194/194 193/193/193
f 193/193/193 196/196/196 195/195/195
f 199/199/199 198/198/198 197/197/197
f 197/197/197 200/200/200 199/199/199
f 203/203/203 202/202/202 201/201/201
f 201/201/201 204/204/204 203/203/203
f 207/207/207 206/206/206 205/205/205
f 205/205/205 208/208/208 207/207/207
f 211/211/211 210/210/210 209/209/209
f 209/209/209 212/212/212 211/211/211
f 215/215/215 214/214/214 213/213/213
f 213/213/213 216/216/216 215/215/215
f 219/219/219 218/218/218 217/217/217
f 217/217/217 220/220/220 219/219/219
f 223/223/223 222/222/222 221/221/221
f 221/221/221 224/224/224 223/223/223
f 227/227/227 226/226/226 225/225/225
f 225/225/225 228/228/228 227/227/227
f 231/231/231 230/230/230 229/229/229
f 229/229/229 232/232/232 231/231/231
f 235/235/235 234/234/234 233/233/233
f 233/233/233 236/236/236 235/235/235
f 239/239/239 238/238/238 237/237/237
f 237/237/237 240/240/240 239/239/239
f 243/243/243 242/242/242 241/241/241
f 241/241/241 244/244/244 243/243/243
f 247/247/247 246/246/246 245/245/245
f 245/245/245 248/248/248 247/247/247
f 251/251/251 250/250/250 249/249/249
f 249/249/249 252/252/252 251/251/251
f 255/255/255 254/254/254 253/253/253
f 253/253/253 256/256/256 255/255/255
f 259/259/259 258/258/258 257/257/257
f 257/257/257 260/260/260 259/259/259
