g z52_3_bj-mesh
v -448 93 0
v -448 445 0
v -736 445 0
v -736 93 0
v -736 61 0
v -736 253 0
v -896 253 0
v -896 61 0
v -352 93 0
v -352 317 0
v -448 317 0
v -448 93 0
v -608 29 0
v -608 93 0
v -736 93 0
v -736 29 0
v -288 157 0
v -288 285 0
v -352 285 0
v -352 157 0
v -384 317 0
v -384 381 0
v -448 381 0
v -448 317 0
v -896 125 0
v -896 189 0
v -928 189 0
v -928 125 0
v -800 29 0
v -800 61 0
v -864 61 0
v -864 29 0
v -736 29 0
v -736 61 0
v -800 61 0
v -800 29 0
v -320 125 0
v -320 157 0
v -352 157 0
v -352 125 0
v -576 61 0
v -576 93 0
v -608 93 0
v -608 61 0
v -896 93 0
v -896 125 0
v -928 125 0
v -928 93 0
v -256 189 0
v -256 221 0
v -288 221 0
v -288 189 0
vt 0.001953125 0.00238096714
vt 0.001953125 0.840476155
vt 0.564453125 0.840476155
vt 0.564453125 0.00238096714
vt 0.568359375 0.00238096714
vt 0.568359375 0.459523797
vt 0.880859375 0.459523797
vt 0.880859375 0.00238096714
vt 0.568359375 0.464285731
vt 0.568359375 0.997619033
vt 0.755859375 0.997619033
vt 0.755859375 0.464285731
vt 0.001953125 0.84523809
vt 0.001953125 0.997619033
vt 0.251953125 0.997619033
vt 0.251953125 0.84523809
vt 0.759765625 0.464285731
vt 0.759765625 0.769047618
vt 0.884765625 0.769047618
vt 0.884765625 0.464285731
vt 0.759765625 0.773809552
vt 0.759765625 0.926190495
vt 0.884765625 0.926190495
vt 0.884765625 0.773809552
vt 0.888671875 0.00238096714
vt 0.888671875 0.15476191
vt 0.951171875 0.15476191
vt 0.951171875 0.00238096714
vt 0.255859375 0.84523809
vt 0.255859375 0.921428561
vt 0.380859375 0.921428561
vt 0.380859375 0.84523809
vt 0.384765625 0.84523809
vt 0.384765625 0.921428561
vt 0.509765625 0.921428561
vt 0.509765625 0.84523809
vt 0.888671875 0.159523785
vt 0.888671875 0.235714257
vt 0.951171875 0.235714257
vt 0.951171875 0.159523785
vt 0.888671875 0.240476191
vt 0.888671875 0.316666663
vt 0.951171875 0.316666663
vt 0.951171875 0.240476191
vt 0.888671875 0.321428597
vt 0.888671875 0.397619069
vt 0.951171875 0.397619069
vt 0.951171875 0.321428597
vt 0.888671875 0.402380943
vt 0.888671875 0.478571415
vt 0.951171875 0.478571415
vt 0.951171875 0.402380943
g z52_3_bj-mesh_0
f 3/3/3 2/2/2 1/1/1
f 1/1/1 4/4/4 3/3/3
f 7/7/7 6/6/6 5/5/5
f 5/5/5 8/8/8 7/7/7
f 11/11/11 10/10/10 9/9/9
f 9/9/9 12/12/12 11/11/11
f 15/15/15 14/14/14 13/13/13
f 13/13/13 16/16/16 15/15/15
f 19/19/19 18/18/18 17/17/17
f 17/17/17 20/20/20 19/19/19
f 23/23/23 22/22/22 21/21/21
f 21/21/21 24/24/24 23/23/23
f 27/27/27 26/26/26 25/25/25
f 25/25/25 28/28/28 27/27/27
f 31/31/31 30/30/30 29/29/29
f 29/29/29 32/32/32 31/31/31
f 35/35/35 34/34/34 33/33/33
f 33/33/33 36/36/36 35/35/35
f 39/39/39 38/38/38 37/37/37
f 37/37/37 40/40/40 39/39/39
f 43/43/43 42/42/42 41/41/41
f 41/41/41 44/44/44 43/43/43
f 47/47/47 46/46/46 45/45/45
f 45/45/45 48/48/48 47/47/47
f 51/51/51 50/50/50 49/49/49
f 49/49/49 52/52/52 51/51/51
