g xiefeierde_2-mesh
v -576 98 0
v -576 674 0
v -1056 674 0
v -1056 98 0
v -96 98 0
v -96 674 0
v -576 674 0
v -576 98 0
v -416 674 0
v -416 802 0
v -768 802 0
v -768 674 0
v -64 674 0
v -64 802 0
v -416 802 0
v -416 674 0
v -384 802 0
v -384 962 0
v -640 962 0
v -640 802 0
v -1056 194 0
v -1056 418 0
v -1184 418 0
v -1184 194 0
v -192 34 0
v -192 98 0
v -608 98 0
v -608 34 0
v -608 34 0
v -608 98 0
v -1024 98 0
v -1024 34 0
v -160 802 0
v -160 898 0
v -320 898 0
v -320 802 0
v -32 66 0
v -32 226 0
v -96 226 0
v -96 66 0
v -32 226 0
v -32 386 0
v -96 386 0
v -96 226 0
v -544 962 0
v -544 1058 0
v -640 1058 0
v -640 962 0
v -640 802 0
v -640 930 0
v -704 930 0
v -704 802 0
v -1056 98 0
v -1056 194 0
v -1120 194 0
v -1120 98 0
v -960 674 0
v -960 738 0
v -1056 738 0
v -1056 674 0
v -896 770 0
v -896 834 0
v -960 834 0
v -960 770 0
v -1056 642 0
v -1056 706 0
v -1120 706 0
v -1120 642 0
v -32 418 0
v -32 482 0
v -96 482 0
v -96 418 0
v -1088 546 0
v -1088 610 0
v -1152 610 0
v -1152 546 0
v -448 2 0
v -448 34 0
v -544 34 0
v -544 2 0
v -544 2 0
v -544 34 0
v -640 34 0
v -640 2 0
v -1056 514 0
v -1056 610 0
v -1088 610 0
v -1088 514 0
v -1056 418 0
v -1056 514 0
v -1088 514 0
v -1088 418 0
v -864 2 0
v -864 34 0
v -960 34 0
v -960 2 0
v -736 962 0
v -736 1026 0
v -768 1026 0
v -768 962 0
v -704 866 0
v -704 930 0
v -736 930 0
v -736 866 0
v -256 2 0
v -256 34 0
v -320 34 0
v -320 2 0
v -64 610 0
v -64 674 0
v -96 674 0
v -96 610 0
v -1088 450 0
v -1088 514 0
v -1120 514 0
v -1120 450 0
v -128 802 0
v -128 866 0
v -160 866 0
v -160 802 0
v -1120 130 0
v -1120 194 0
v -1152 194 0
v -1152 130 0
v -800 738 0
v -800 802 0
v -832 802 0
v -832 738 0
v -128 66 0
v -128 98 0
v -192 98 0
v -192 66 0
v -32 674 0
v -32 738 0
v -64 738 0
v -64 674 0
v -736 2 0
v -736 34 0
v -800 34 0
v -800 2 0
v -832 706 0
v -832 770 0
v -864 770 0
v -864 706 0
v -0 226 0
v -0 290 0
v -32 290 0
v -32 226 0
v -0 162 0
v -0 226 0
v -32 226 0
v -32 162 0
v -960 2 0
v -960 34 0
v -1024 34 0
v -1024 2 0
v -768 994 0
v -768 1058 0
v -800 1058 0
v -800 994 0
v -768 930 0
v -768 994 0
v -800 994 0
v -800 930 0
v -448 962 0
v -448 994 0
v -512 994 0
v -512 962 0
v -768 706 0
v -768 770 0
v -800 770 0
v -800 706 0
v -832 770 0
v -832 834 0
v -864 834 0
v -864 770 0
v -96 802 0
v -96 834 0
v -128 834 0
v -128 802 0
v -928 674 0
v -928 706 0
v -960 706 0
v -960 674 0
v -960 802 0
v -960 834 0
v -992 834 0
v -992 802 0
v -704 802 0
v -704 834 0
v -736 834 0
v -736 802 0
v -320 802 0
v -320 834 0
v -352 834 0
v -352 802 0
v -800 674 0
v -800 706 0
v -832 706 0
v -832 674 0
v -800 962 0
v -800 994 0
v -832 994 0
v -832 962 0
v -512 962 0
v -512 994 0
v -544 994 0
v -544 962 0
v -1088 418 0
v -1088 450 0
v -1120 450 0
v -1120 418 0
v -64 578 0
v -64 610 0
v -96 610 0
v -96 578 0
v -576 1058 0
v -576 1090 0
v -608 1090 0
v -608 1058 0
v -768 674 0
v -768 706 0
v -800 706 0
v -800 674 0
v -320 2 0
v -320 34 0
v -352 34 0
v -352 2 0
vt 0.0009765625 0.000995993614
vt 0.0009765625 0.57470119
vt 0.469726562 0.57470119
vt 0.469726562 0.000995993614
vt 0.471679688 0.000995993614
vt 0.471679688 0.57470119
vt 0.940429688 0.57470119
vt 0.940429688 0.000995993614
vt 0.0009765625 0.576693237
vt 0.0009765625 0.70418328
vt 0.344726562 0.70418328
vt 0.344726562 0.576693237
vt 0.346679688 0.576693237
vt 0.346679688 0.70418328
vt 0.690429688 0.70418328
vt 0.690429688 0.576693237
vt 0.692382812 0.576693237
vt 0.692382812 0.736055791
vt 0.942382812 0.736055791
vt 0.942382812 0.576693237
vt 0.0009765625 0.706175327
vt 0.0009765625 0.929282844
vt 0.125976562 0.929282844
vt 0.125976562 0.706175327
vt 0.127929688 0.706175327
vt 0.127929688 0.769920349
vt 0.534179688 0.769920349
vt 0.534179688 0.706175327
vt 0.127929688 0.771912336
vt 0.127929688 0.835657358
vt 0.534179688 0.835657358
vt 0.534179688 0.771912336
vt 0.692382812 0.738047838
vt 0.692382812 0.833665371
vt 0.848632812 0.833665371
vt 0.848632812 0.738047838
vt 0.536132812 0.706175327
vt 0.536132812 0.865537882
vt 0.598632812 0.865537882
vt 0.598632812 0.706175327
vt 0.600585938 0.706175327
vt 0.600585938 0.865537882
vt 0.663085938 0.865537882
vt 0.663085938 0.706175327
vt 0.850585938 0.738047838
vt 0.850585938 0.833665371
vt 0.944335938 0.833665371
vt 0.944335938 0.738047838
vt 0.692382812 0.835657358
vt 0.692382812 0.963147402
vt 0.754882812 0.963147402
vt 0.754882812 0.835657358
vt 0.756835938 0.835657358
vt 0.756835938 0.931274891
vt 0.819335938 0.931274891
vt 0.819335938 0.835657358
vt 0.821289062 0.835657358
vt 0.821289062 0.89940238
vt 0.915039062 0.89940238
vt 0.915039062 0.835657358
vt 0.916992188 0.835657358
vt 0.916992188 0.89940238
vt 0.979492188 0.89940238
vt 0.979492188 0.835657358
vt 0.127929688 0.837649405
vt 0.127929688 0.901394427
vt 0.190429688 0.901394427
vt 0.190429688 0.837649405
vt 0.192382812 0.837649405
vt 0.192382812 0.901394427
vt 0.254882812 0.901394427
vt 0.254882812 0.837649405
vt 0.256835938 0.837649405
vt 0.256835938 0.901394427
vt 0.319335938 0.901394427
vt 0.319335938 0.837649405
vt 0.321289062 0.837649405
vt 0.321289062 0.869521916
vt 0.415039062 0.869521916
vt 0.415039062 0.837649405
vt 0.416992188 0.837649405
vt 0.416992188 0.869521916
vt 0.510742188 0.869521916
vt 0.510742188 0.837649405
vt 0.536132812 0.867529869
vt 0.536132812 0.963147402
vt 0.567382812 0.963147402
vt 0.567382812 0.867529869
vt 0.569335938 0.867529869
vt 0.569335938 0.963147402
vt 0.600585938 0.963147402
vt 0.600585938 0.867529869
vt 0.321289062 0.871513963
vt 0.321289062 0.903386474
vt 0.415039062 0.903386474
vt 0.415039062 0.871513963
vt 0.602539062 0.867529869
vt 0.602539062 0.931274891
vt 0.633789062 0.931274891
vt 0.633789062 0.867529869
vt 0.635742188 0.867529869
vt 0.635742188 0.931274891
vt 0.666992188 0.931274891
vt 0.666992188 0.867529869
vt 0.416992188 0.871513963
vt 0.416992188 0.903386474
vt 0.479492188 0.903386474
vt 0.479492188 0.871513963
vt 0.481445312 0.871513963
vt 0.481445312 0.935258985
vt 0.512695312 0.935258985
vt 0.512695312 0.871513963
vt 0.821289062 0.901394427
vt 0.821289062 0.965139449
vt 0.852539062 0.965139449
vt 0.852539062 0.901394427
vt 0.854492188 0.901394427
vt 0.854492188 0.965139449
vt 0.885742188 0.965139449
vt 0.885742188 0.901394427
vt 0.887695312 0.901394427
vt 0.887695312 0.965139449
vt 0.918945312 0.965139449
vt 0.918945312 0.901394427
vt 0.920898438 0.901394427
vt 0.920898438 0.965139449
vt 0.952148438 0.965139449
vt 0.952148438 0.901394427
vt 0.127929688 0.903386474
vt 0.127929688 0.935258985
vt 0.190429688 0.935258985
vt 0.190429688 0.903386474
vt 0.954101562 0.901394427
vt 0.954101562 0.965139449
vt 0.985351562 0.965139449
vt 0.985351562 0.901394427
vt 0.192382812 0.903386474
vt 0.192382812 0.935258985
vt 0.254882812 0.935258985
vt 0.254882812 0.903386474
vt 0.256835938 0.903386474
vt 0.256835938 0.967131495
vt 0.288085938 0.967131495
vt 0.288085938 0.903386474
vt 0.321289062 0.905378461
vt 0.321289062 0.969123483
vt 0.352539062 0.969123483
vt 0.352539062 0.905378461
vt 0.354492188 0.905378461
vt 0.354492188 0.969123483
vt 0.385742188 0.969123483
vt 0.385742188 0.905378461
vt 0.387695312 0.905378461
vt 0.387695312 0.937250972
vt 0.450195312 0.937250972
vt 0.450195312 0.905378461
vt 0.0009765625 0.931274891
vt 0.0009765625 0.995019913
vt 0.0322265625 0.995019913
vt 0.0322265625 0.931274891
vt 0.0341796875 0.931274891
vt 0.0341796875 0.995019913
vt 0.0654296875 0.995019913
vt 0.0654296875 0.931274891
vt 0.602539062 0.933266938
vt 0.602539062 0.965139449
vt 0.665039062 0.965139449
vt 0.665039062 0.933266938
vt 0.0673828125 0.931274891
vt 0.0673828125 0.995019913
vt 0.0986328125 0.995019913
vt 0.0986328125 0.931274891
vt 0.756835938 0.933266938
vt 0.756835938 0.99701196
vt 0.788085938 0.99701196
vt 0.788085938 0.933266938
vt 0.127929688 0.937250972
vt 0.127929688 0.969123483
vt 0.159179688 0.969123483
vt 0.159179688 0.937250972
vt 0.161132812 0.937250972
vt 0.161132812 0.969123483
vt 0.192382812 0.969123483
vt 0.192382812 0.937250972
vt 0.194335938 0.937250972
vt 0.194335938 0.969123483
vt 0.225585938 0.969123483
vt 0.225585938 0.937250972
vt 0.481445312 0.937250972
vt 0.481445312 0.969123483
vt 0.512695312 0.969123483
vt 0.512695312 0.937250972
vt 0.387695312 0.939243019
vt 0.387695312 0.97111553
vt 0.418945312 0.97111553
vt 0.418945312 0.939243019
vt 0.420898438 0.939243019
vt 0.420898438 0.97111553
vt 0.452148438 0.97111553
vt 0.452148438 0.939243019
vt 0.536132812 0.965139449
vt 0.536132812 0.99701196
vt 0.567382812 0.99701196
vt 0.567382812 0.965139449
vt 0.569335938 0.965139449
vt 0.569335938 0.99701196
vt 0.600585938 0.99701196
vt 0.600585938 0.965139449
vt 0.692382812 0.965139449
vt 0.692382812 0.99701196
vt 0.723632812 0.99701196
vt 0.723632812 0.965139449
vt 0.602539062 0.967131495
vt 0.602539062 0.999004006
vt 0.633789062 0.999004006
vt 0.633789062 0.967131495
vt 0.635742188 0.967131495
vt 0.635742188 0.999004006
vt 0.666992188 0.999004006
vt 0.666992188 0.967131495
vt 0.821289062 0.967131495
vt 0.821289062 0.999004006
vt 0.852539062 0.999004006
vt 0.852539062 0.967131495
vt 0.854492188 0.967131495
vt 0.854492188 0.999004006
vt 0.885742188 0.999004006
vt 0.885742188 0.967131495
g xiefeierde_2-mesh_0
f 3/3/3 2/2/2 1/1/1
f 1/1/1 4/4/4 3/3/3
f 7/7/7 6/6/6 5/5/5
f 5/5/5 8/8/8 7/7/7
f 11/11/11 10/10/10 9/9/9
f 9/9/9 12/12/12 11/11/11
f 15/15/15 14/14/14 13/13/13
f 13/13/13 16/16/16 15/15/15
f 19/19/19 18/18/18 17/17/17
f 17/17/17 20/20/20 19/19/19
f 23/23/23 22/22/22 21/21/21
f 21/21/21 24/24/24 23/23/23
f 27/27/27 26/26/26 25/25/25
f 25/25/25 28/28/28 27/27/27
f 31/31/31 30/30/30 29/29/29
f 29/29/29 32/32/32 31/31/31
f 35/35/35 34/34/34 33/33/33
f 33/33/33 36/36/36 35/35/35
f 39/39/39 38/38/38 37/37/37
f 37/37/37 40/40/40 39/39/39
f 43/43/43 42/42/42 41/41/41
f 41/41/41 44/44/44 43/43/43
f 47/47/47 46/46/46 45/45/45
f 45/45/45 48/48/48 47/47/47
f 51/51/51 50/50/50 49/49/49
f 49/49/49 52/52/52 51/51/51
f 55/55/55 54/54/54 53/53/53
f 53/53/53 56/56/56 55/55/55
f 59/59/59 58/58/58 57/57/57
f 57/57/57 60/60/60 59/59/59
f 63/63/63 62/62/62 61/61/61
f 61/61/61 64/64/64 63/63/63
f 67/67/67 66/66/66 65/65/65
f 65/65/65 68/68/68 67/67/67
f 71/71/71 70/70/70 69/69/69
f 69/69/69 72/72/72 71/71/71
f 75/75/75 74/74/74 73/73/73
f 73/73/73 76/76/76 75/75/75
f 79/79/79 78/78/78 77/77/77
f 77/77/77 80/80/80 79/79/79
f 83/83/83 82/82/82 81/81/81
f 81/81/81 84/84/84 83/83/83
f 87/87/87 86/86/86 85/85/85
f 85/85/85 88/88/88 87/87/87
f 91/91/91 90/90/90 89/89/89
f 89/89/89 92/92/92 91/91/91
f 95/95/95 94/94/94 93/93/93
f 93/93/93 96/96/96 95/95/95
f 99/99/99 98/98/98 97/97/97
f 97/97/97 100/100/100 99/99/99
f 103/103/103 102/102/102 101/101/101
f 101/101/101 104/104/104 103/103/103
f 107/107/107 106/106/106 105/105/105
f 105/105/105 108/108/108 107/107/107
f 111/111/111 110/110/110 109/109/109
f 109/109/109 112/112/112 111/111/111
f 115/115/115 114/114/114 113/113/113
f 113/113/113 116/116/116 115/115/115
f 119/119/119 118/118/118 117/117/117
f 117/117/117 120/120/120 119/119/119
f 123/123/123 122/122/122 121/121/121
f 121/121/121 124/124/124 123/123/123
f 127/127/127 126/126/126 125/125/125
f 125/125/125 128/128/128 127/127/127
f 131/131/131 130/130/130 129/129/129
f 129/129/129 132/132/132 131/131/131
f 135/135/135 134/134/134 133/133/133
f 133/133/133 136/136/136 135/135/135
f 139/139/139 138/138/138 137/137/137
f 137/137/137 140/140/140 139/139/139
f 143/143/143 142/142/142 141/141/141
f 141/141/141 144/144/144 143/143/143
f 147/147/147 146/146/146 145/145/145
f 145/145/145 148/148/148 147/147/147
f 151/151/151 150/150/150 149/149/149
f 149/149/149 152/152/152 151/151/151
f 155/155/155 154/154/154 153/153/153
f 153/153/153 156/156/156 155/155/155
f 159/159/159 158/158/158 157/157/157
f 157/157/157 160/160/160 159/159/159
f 163/163/163 162/162/162 161/161/161
f 161/161/161 164/164/164 163/163/163
f 167/167/167 166/166/166 165/165/165
f 165/165/165 168/168/168 167/167/167
f 171/171/171 170/170/170 169/169/169
f 169/169/169 172/172/172 171/171/171
f 175/175/175 174/174/174 173/173/173
f 173/173/173 176/176/176 175/175/175
f 179/179/179 178/178/178 177/177/177
f 177/177/177 180/180/180 179/179/179
f 183/183/183 182/182/182 181/181/181
f 181/181/181 184/184/184 183/183/183
f 187/187/187 186/186/186 185/185/185
f 185/185/185 188/188/188 187/187/187
f 191/191/191 190/190/190 189/189/189
f 189/189/189 192/192/192 191/191/191
f 195/195/195 194/194/194 193/193/193
f 193/193/193 196/196/196 195/195/195
f 199/199/199 198/198/198 197/197/197
f 197/197/197 200/200/200 199/199/199
f 203/203/203 202/202/202 201/201/201
f 201/201/201 204/204/204 203/203/203
f 207/207/207 206/206/206 205/205/205
f 205/205/205 208/208/208 207/207/207
f 211/211/211 210/210/210 209/209/209
f 209/209/209 212/212/212 211/211/211
f 215/215/215 214/214/214 213/213/213
f 213/213/213 216/216/216 215/215/215
f 219/219/219 218/218/218 217/217/217
f 217/217/217 220/220/220 219/219/219
f 223/223/223 222/222/222 221/221/221
f 221/221/221 224/224/224 223/223/223
f 227/227/227 226/226/226 225/225/225
f 225/225/225 228/228/228 227/227/227
