g lafeier_rw-mesh
v -416 279 0
v -416 1207 0
v -1344 1207 0
v -1344 279 0
v -64 439 0
v -64 887 0
v -416 887 0
v -416 439 0
v -800 87 0
v -800 279 0
v -1056 279 0
v -1056 87 0
v -1056 87 0
v -1056 279 0
v -1280 279 0
v -1280 87 0
v -704 1207 0
v -704 1367 0
v -960 1367 0
v -960 1207 0
v -448 1207 0
v -448 1367 0
v -704 1367 0
v -704 1207 0
v -1344 535 0
v -1344 791 0
v -1472 791 0
v -1472 535 0
v -1344 311 0
v -1344 535 0
v -1472 535 0
v -1472 311 0
v -992 1207 0
v -992 1431 0
v -1088 1431 0
v -1088 1207 0
v -992 1431 0
v -992 1655 0
v -1088 1655 0
v -1088 1431 0
v -1088 1527 0
v -1088 1655 0
v -1216 1655 0
v -1216 1527 0
v -160 215 0
v -160 439 0
v -224 439 0
v -224 215 0
v -224 247 0
v -224 439 0
v -288 439 0
v -288 247 0
v -736 1431 0
v -736 1559 0
v -832 1559 0
v -832 1431 0
v -736 1719 0
v -736 1847 0
v -832 1847 0
v -832 1719 0
v -288 343 0
v -288 439 0
v -416 439 0
v -416 343 0
v -1472 599 0
v -1472 727 0
v -1568 727 0
v -1568 599 0
v -160 23 0
v -160 215 0
v -224 215 0
v -224 23 0
v -576 1367 0
v -576 1431 0
v -768 1431 0
v -768 1367 0
v -1472 471 0
v -1472 599 0
v -1568 599 0
v -1568 471 0
v -224 87 0
v -224 247 0
v -288 247 0
v -288 87 0
v -768 1367 0
v -768 1431 0
v -928 1431 0
v -928 1367 0
v -1568 1271 0
v -1568 1367 0
v -1664 1367 0
v -1664 1271 0
v -544 215 0
v -544 279 0
v -672 279 0
v -672 215 0
v -1216 1559 0
v -1216 1687 0
v -1280 1687 0
v -1280 1559 0
v -1472 791 0
v -1472 919 0
v -1536 919 0
v -1536 791 0
v -1376 1047 0
v -1376 1175 0
v -1440 1175 0
v -1440 1047 0
v -1376 1175 0
v -1376 1303 0
v -1440 1303 0
v -1440 1175 0
v -352 1175 0
v -352 1303 0
v -416 1303 0
v -416 1175 0
v -352 1047 0
v -352 1175 0
v -416 1175 0
v -416 1047 0
v -384 87 0
v -384 183 0
v -448 183 0
v -448 87 0
v -416 183 0
v -416 279 0
v -480 279 0
v -480 183 0
v -352 919 0
v -352 1015 0
v -416 1015 0
v -416 919 0
v -0 471 0
v -0 567 0
v -64 567 0
v -64 471 0
v -320 1399 0
v -320 1463 0
v -416 1463 0
v -416 1399 0
v -1408 1303 0
v -1408 1399 0
v -1472 1399 0
v -1472 1303 0
v -1568 567 0
v -1568 631 0
v -1664 631 0
v -1664 567 0
v -1344 983 0
v -1344 1175 0
v -1376 1175 0
v -1376 983 0
v -256 1335 0
v -256 1431 0
v -320 1431 0
v -320 1335 0
v -1024 55 0
v -1024 87 0
v -1216 87 0
v -1216 55 0
v -1344 791 0
v -1344 983 0
v -1376 983 0
v -1376 791 0
v -832 55 0
v -832 87 0
v -1024 87 0
v -1024 55 0
v -672 1655 0
v -672 1751 0
v -736 1751 0
v -736 1655 0
v -672 1559 0
v -672 1655 0
v -736 1655 0
v -736 1559 0
v -256 887 0
v -256 919 0
v -416 919 0
v -416 887 0
v -96 887 0
v -96 919 0
v -256 919 0
v -256 887 0
v -288 279 0
v -288 343 0
v -352 343 0
v -352 279 0
v -416 1367 0
v -416 1431 0
v -480 1431 0
v -480 1367 0
v -832 0 0
v -832 55 0
v -896 55 0
v -896 0 0
v -832 1431 0
v -832 1495 0
v -896 1495 0
v -896 1431 0
v -1664 567 0
v -1664 631 0
v -1728 631 0
v -1728 567 0
v -256 1271 0
v -256 1335 0
v -320 1335 0
v -320 1271 0
v -32 727 0
v -32 855 0
v -64 855 0
v -64 727 0
v -32 599 0
v -32 727 0
v -64 727 0
v -64 599 0
v -384 23 0
v -384 87 0
v -448 87 0
v -448 23 0
v -128 87 0
v -128 183 0
v -160 183 0
v -160 87 0
v -1440 1399 0
v -1440 1431 0
v -1536 1431 0
v -1536 1399 0
v -768 183 0
v -768 279 0
v -800 279 0
v -800 183 0
v -1280 183 0
v -1280 279 0
v -1312 279 0
v -1312 183 0
v -768 1847 0
v -768 1879 0
v -832 1879 0
v -832 1847 0
v -992 1655 0
v -992 1687 0
v -1056 1687 0
v -1056 1655 0
v -1280 1623 0
v -1280 1687 0
v -1312 1687 0
v -1312 1623 0
v -1344 279 0
v -1344 311 0
v -1408 311 0
v -1408 279 0
v -960 1239 0
v -960 1303 0
v -992 1303 0
v -992 1239 0
v -1664 1271 0
v -1664 1335 0
v -1696 1335 0
v -1696 1271 0
v -1376 983 0
v -1376 1047 0
v -1408 1047 0
v -1408 983 0
v -1568 631 0
v -1568 663 0
v -1632 663 0
v -1632 631 0
v -1376 823 0
v -1376 887 0
v -1408 887 0
v -1408 823 0
v -672 247 0
v -672 279 0
v -736 279 0
v -736 247 0
v -1472 343 0
v -1472 407 0
v -1504 407 0
v -1504 343 0
v -1312 247 0
v -1312 279 0
v -1376 279 0
v -1376 247 0
v -96 23 0
v -96 87 0
v -128 87 0
v -128 23 0
v -1312 151 0
v -1312 215 0
v -1344 215 0
v -1344 151 0
v -1568 503 0
v -1568 567 0
v -1600 567 0
v -1600 503 0
v -224 1303 0
v -224 1367 0
v -256 1367 0
v -256 1303 0
v -704 1495 0
v -704 1559 0
v -736 1559 0
v -736 1495 0
v -1600 1239 0
v -1600 1271 0
v -1664 1271 0
v -1664 1239 0
v -1504 759 0
v -1504 791 0
v -1568 791 0
v -1568 759 0
v -320 919 0
v -320 983 0
v -352 983 0
v -352 919 0
v -320 1271 0
v -320 1335 0
v -352 1335 0
v -352 1271 0
v -320 1079 0
v -320 1143 0
v -352 1143 0
v -352 1079 0
v -320 1143 0
v -320 1207 0
v -352 1207 0
v -352 1143 0
v -1088 1207 0
v -1088 1271 0
v -1120 1271 0
v -1120 1207 0
v -768 1655 0
v -768 1719 0
v -800 1719 0
v -800 1655 0
v -224 919 0
v -224 951 0
v -288 951 0
v -288 919 0
v -160 919 0
v -160 951 0
v -224 951 0
v -224 919 0
v -128 23 0
v -128 87 0
v -160 87 0
v -160 23 0
v -1280 119 0
v -1280 183 0
v -1312 183 0
v -1312 119 0
v -768 119 0
v -768 183 0
v -800 183 0
v -800 119 0
v -1088 1271 0
v -1088 1335 0
v -1120 1335 0
v -1120 1271 0
v -416 1207 0
v -416 1271 0
v -448 1271 0
v -448 1207 0
v -416 1271 0
v -416 1335 0
v -448 1335 0
v -448 1271 0
v -1536 1399 0
v -1536 1431 0
v -1600 1431 0
v -1600 1399 0
v -736 1591 0
v -736 1655 0
v -768 1655 0
v -768 1591 0
v -640 1623 0
v -640 1687 0
v -672 1687 0
v -672 1623 0
v -1536 1367 0
v -1536 1399 0
v -1600 1399 0
v -1600 1367 0
v -1408 791 0
v -1408 823 0
v -1440 823 0
v -1440 791 0
v -1472 727 0
v -1472 759 0
v -1504 759 0
v -1504 727 0
v -1376 1303 0
v -1376 1335 0
v -1408 1335 0
v -1408 1303 0
v -1568 663 0
v -1568 695 0
v -1600 695 0
v -1600 663 0
v -1472 1367 0
v -1472 1399 0
v -1504 1399 0
v -1504 1367 0
v -544 1367 0
v -544 1399 0
v -576 1399 0
v -576 1367 0
v -384 1015 0
v -384 1047 0
v -416 1047 0
v -416 1015 0
v -480 1367 0
v -480 1399 0
v -512 1399 0
v -512 1367 0
v -384 0 0
v -384 23 0
v -416 23 0
v -416 0 0
v -512 247 0
v -512 279 0
v -544 279 0
v -544 247 0
v -320 215 0
v -320 247 0
v -352 247 0
v -352 215 0
v -32 439 0
v -32 471 0
v -64 471 0
v -64 439 0
v -352 311 0
v -352 343 0
v -384 343 0
v -384 311 0
v -704 215 0
v -704 247 0
v -736 247 0
v -736 215 0
v -128 407 0
v -128 439 0
v -160 439 0
v -160 407 0
v -896 23 0
v -896 55 0
v -928 55 0
v -928 23 0
v -384 183 0
v -384 215 0
v -416 215 0
v -416 183 0
v -1344 183 0
v -1344 215 0
v -1376 215 0
v -1376 183 0
v -384 1367 0
v -384 1399 0
v -416 1399 0
v -416 1367 0
v -640 1591 0
v -640 1623 0
v -672 1623 0
v -672 1591 0
v -1376 791 0
v -1376 823 0
v -1408 823 0
v -1408 791 0
v -1408 279 0
v -1408 311 0
v -1440 311 0
v -1440 279 0
v -1632 631 0
v -1632 663 0
v -1664 663 0
v -1664 631 0
v -1376 951 0
v -1376 983 0
v -1408 983 0
v -1408 951 0
v -1664 1239 0
v -1664 1271 0
v -1696 1271 0
v -1696 1239 0
v -1600 1367 0
v -1600 1399 0
v -1632 1399 0
v -1632 1367 0
v -736 1559 0
v -736 1591 0
v -768 1591 0
v -768 1559 0
v -960 1207 0
v -960 1239 0
v -992 1239 0
v -992 1207 0
v -1280 1559 0
v -1280 1591 0
v -1312 1591 0
v -1312 1559 0
v -768 1559 0
v -768 1591 0
v -800 1591 0
v -800 1559 0
v -896 1431 0
v -896 1463 0
v -928 1463 0
v -928 1431 0
v -832 1495 0
v -832 1527 0
v -864 1527 0
v -864 1495 0
v -1376 1591 0
v -1376 1623 0
v -1408 1623 0
v -1408 1591 0
v -320 1239 0
v -320 1271 0
v -352 1271 0
v -352 1239 0
v -768 1623 0
v -768 1655 0
v -800 1655 0
v -800 1623 0
v -736 1687 0
v -736 1719 0
v -768 1719 0
v -768 1687 0
v -704 1751 0
v -704 1783 0
v -736 1783 0
v -736 1751 0
vt 0.00048828125 0.00103735924
vt 0.00048828125 0.963692963
vt 0.453613281 0.963692963
vt 0.453613281 0.00103735924
vt 0.454589844 0.00103735924
vt 0.454589844 0.465767622
vt 0.626464844 0.465767622
vt 0.626464844 0.00103735924
vt 0.627441406 0.00103735924
vt 0.627441406 0.200207472
vt 0.752441406 0.200207472
vt 0.752441406 0.00103735924
vt 0.753417969 0.00103735924
vt 0.753417969 0.200207472
vt 0.862792969 0.200207472
vt 0.862792969 0.00103735924
vt 0.863769531 0.00103735924
vt 0.863769531 0.167012453
vt 0.988769531 0.167012453
vt 0.988769531 0.00103735924
vt 0.863769531 0.169087112
vt 0.863769531 0.335062265
vt 0.988769531 0.335062265
vt 0.988769531 0.169087112
vt 0.627441406 0.202282131
vt 0.627441406 0.46784234
vt 0.689941406 0.46784234
vt 0.689941406 0.202282131
vt 0.690917969 0.202282131
vt 0.690917969 0.434647322
vt 0.753417969 0.434647322
vt 0.753417969 0.202282131
vt 0.754394531 0.202282131
vt 0.754394531 0.434647322
vt 0.801269531 0.434647322
vt 0.801269531 0.202282131
vt 0.802246094 0.202282131
vt 0.802246094 0.434647322
vt 0.849121094 0.434647322
vt 0.849121094 0.202282131
vt 0.863769531 0.337136924
vt 0.863769531 0.469916999
vt 0.926269531 0.469916999
vt 0.926269531 0.337136924
vt 0.927246094 0.337136924
vt 0.927246094 0.569502115
vt 0.958496094 0.569502115
vt 0.958496094 0.337136924
vt 0.959472656 0.337136924
vt 0.959472656 0.536307096
vt 0.990722656 0.536307096
vt 0.990722656 0.337136924
vt 0.690917969 0.436721981
vt 0.690917969 0.569502115
vt 0.737792969 0.569502115
vt 0.737792969 0.436721981
vt 0.738769531 0.436721981
vt 0.738769531 0.569502115
vt 0.785644531 0.569502115
vt 0.785644531 0.436721981
vt 0.786621094 0.436721981
vt 0.786621094 0.536307096
vt 0.849121094 0.536307096
vt 0.849121094 0.436721981
vt 0.454589844 0.46784234
vt 0.454589844 0.600622416
vt 0.501464844 0.600622416
vt 0.501464844 0.46784234
vt 0.502441406 0.46784234
vt 0.502441406 0.667012453
vt 0.533691406 0.667012453
vt 0.533691406 0.46784234
vt 0.786621094 0.538381755
vt 0.786621094 0.604771793
vt 0.880371094 0.604771793
vt 0.880371094 0.538381755
vt 0.534667969 0.46784234
vt 0.534667969 0.600622416
vt 0.581542969 0.600622416
vt 0.581542969 0.46784234
vt 0.582519531 0.46784234
vt 0.582519531 0.633817434
vt 0.613769531 0.633817434
vt 0.613769531 0.46784234
vt 0.690917969 0.571576774
vt 0.690917969 0.637966812
vt 0.769042969 0.637966812
vt 0.769042969 0.571576774
vt 0.627441406 0.469916999
vt 0.627441406 0.569502115
vt 0.674316406 0.569502115
vt 0.674316406 0.469916999
vt 0.627441406 0.571576774
vt 0.627441406 0.637966812
vt 0.689941406 0.637966812
vt 0.689941406 0.571576774
vt 0.881347656 0.471991718
vt 0.881347656 0.604771793
vt 0.912597656 0.604771793
vt 0.912597656 0.471991718
vt 0.959472656 0.538381755
vt 0.959472656 0.67116183
vt 0.990722656 0.67116183
vt 0.990722656 0.538381755
vt 0.927246094 0.571576774
vt 0.927246094 0.704356849
vt 0.958496094 0.704356849
vt 0.958496094 0.571576774
vt 0.454589844 0.602697134
vt 0.454589844 0.735477209
vt 0.485839844 0.735477209
vt 0.485839844 0.602697134
vt 0.534667969 0.602697134
vt 0.534667969 0.735477209
vt 0.565917969 0.735477209
vt 0.565917969 0.602697134
vt 0.786621094 0.606846452
vt 0.786621094 0.739626527
vt 0.817871094 0.739626527
vt 0.817871094 0.606846452
vt 0.818847656 0.606846452
vt 0.818847656 0.706431508
vt 0.850097656 0.706431508
vt 0.850097656 0.606846452
vt 0.851074219 0.606846452
vt 0.851074219 0.706431508
vt 0.882324219 0.706431508
vt 0.882324219 0.606846452
vt 0.883300781 0.606846452
vt 0.883300781 0.706431508
vt 0.914550781 0.706431508
vt 0.914550781 0.606846452
vt 0.582519531 0.635892153
vt 0.582519531 0.735477209
vt 0.613769531 0.735477209
vt 0.613769531 0.635892153
vt 0.627441406 0.640041471
vt 0.627441406 0.706431508
vt 0.674316406 0.706431508
vt 0.674316406 0.640041471
vt 0.675292969 0.640041471
vt 0.675292969 0.739626527
vt 0.706542969 0.739626527
vt 0.706542969 0.640041471
vt 0.707519531 0.640041471
vt 0.707519531 0.706431508
vt 0.754394531 0.706431508
vt 0.754394531 0.640041471
vt 0.770019531 0.571576774
vt 0.770019531 0.770746887
vt 0.785644531 0.770746887
vt 0.785644531 0.571576774
vt 0.502441406 0.669087172
vt 0.502441406 0.768672228
vt 0.533691406 0.768672228
vt 0.533691406 0.669087172
vt 0.818847656 0.708506227
vt 0.818847656 0.741701245
vt 0.912597656 0.741701245
vt 0.912597656 0.708506227
vt 0.959472656 0.673236489
vt 0.959472656 0.872406602
vt 0.975097656 0.872406602
vt 0.975097656 0.673236489
vt 0.534667969 0.737551868
vt 0.534667969 0.770746887
vt 0.628417969 0.770746887
vt 0.628417969 0.737551868
vt 0.927246094 0.706431508
vt 0.927246094 0.806016564
vt 0.958496094 0.806016564
vt 0.958496094 0.706431508
vt 0.629394531 0.708506227
vt 0.629394531 0.808091283
vt 0.660644531 0.808091283
vt 0.660644531 0.708506227
vt 0.675292969 0.741701245
vt 0.675292969 0.774896264
vt 0.753417969 0.774896264
vt 0.753417969 0.741701245
vt 0.818847656 0.743775964
vt 0.818847656 0.776970983
vt 0.896972656 0.776970983
vt 0.896972656 0.743775964
vt 0.454589844 0.737551868
vt 0.454589844 0.803941905
vt 0.485839844 0.803941905
vt 0.485839844 0.737551868
vt 0.786621094 0.741701245
vt 0.786621094 0.808091283
vt 0.817871094 0.808091283
vt 0.817871094 0.741701245
vt 0.502441406 0.770746887
vt 0.502441406 0.82883817
vt 0.533691406 0.82883817
vt 0.533691406 0.770746887
vt 0.534667969 0.772821546
vt 0.534667969 0.839211583
vt 0.565917969 0.839211583
vt 0.565917969 0.772821546
vt 0.566894531 0.772821546
vt 0.566894531 0.839211583
vt 0.598144531 0.839211583
vt 0.598144531 0.772821546
vt 0.675292969 0.776970983
vt 0.675292969 0.84336102
vt 0.706542969 0.84336102
vt 0.706542969 0.776970983
vt 0.976074219 0.673236489
vt 0.976074219 0.806016564
vt 0.991699219 0.806016564
vt 0.991699219 0.673236489
vt 0.897949219 0.743775964
vt 0.897949219 0.876556039
vt 0.913574219 0.876556039
vt 0.913574219 0.743775964
vt 0.707519531 0.776970983
vt 0.707519531 0.84336102
vt 0.738769531 0.84336102
vt 0.738769531 0.776970983
vt 0.599121094 0.772821546
vt 0.599121094 0.872406602
vt 0.614746094 0.872406602
vt 0.614746094 0.772821546
vt 0.818847656 0.779045641
vt 0.818847656 0.81224066
vt 0.865722656 0.81224066
vt 0.865722656 0.779045641
vt 0.770019531 0.772821546
vt 0.770019531 0.872406602
vt 0.785644531 0.872406602
vt 0.785644531 0.772821546
vt 0.739746094 0.776970983
vt 0.739746094 0.876556039
vt 0.755371094 0.876556039
vt 0.755371094 0.776970983
vt 0.454589844 0.806016564
vt 0.454589844 0.839211583
vt 0.485839844 0.839211583
vt 0.485839844 0.806016564
vt 0.927246094 0.808091283
vt 0.927246094 0.841286302
vt 0.958496094 0.841286302
vt 0.958496094 0.808091283
vt 0.866699219 0.779045641
vt 0.866699219 0.845435679
vt 0.882324219 0.845435679
vt 0.882324219 0.779045641
vt 0.629394531 0.810166001
vt 0.629394531 0.84336102
vt 0.660644531 0.84336102
vt 0.660644531 0.810166001
vt 0.976074219 0.808091283
vt 0.976074219 0.87448132
vt 0.991699219 0.87448132
vt 0.991699219 0.808091283
vt 0.786621094 0.810166001
vt 0.786621094 0.876556039
vt 0.802246094 0.876556039
vt 0.802246094 0.810166001
vt 0.818847656 0.814315319
vt 0.818847656 0.880705416
vt 0.834472656 0.880705416
vt 0.834472656 0.814315319
vt 0.502441406 0.830912828
vt 0.502441406 0.864107847
vt 0.533691406 0.864107847
vt 0.533691406 0.830912828
vt 0.835449219 0.814315319
vt 0.835449219 0.880705416
vt 0.851074219 0.880705416
vt 0.851074219 0.814315319
vt 0.454589844 0.841286302
vt 0.454589844 0.87448132
vt 0.485839844 0.87448132
vt 0.485839844 0.841286302
vt 0.534667969 0.841286302
vt 0.534667969 0.907676339
vt 0.550292969 0.907676339
vt 0.550292969 0.841286302
vt 0.551269531 0.841286302
vt 0.551269531 0.87448132
vt 0.582519531 0.87448132
vt 0.582519531 0.841286302
vt 0.927246094 0.84336102
vt 0.927246094 0.909751058
vt 0.942871094 0.909751058
vt 0.942871094 0.84336102
vt 0.629394531 0.845435679
vt 0.629394531 0.911825716
vt 0.645019531 0.911825716
vt 0.645019531 0.845435679
vt 0.645996094 0.845435679
vt 0.645996094 0.911825716
vt 0.661621094 0.911825716
vt 0.661621094 0.845435679
vt 0.675292969 0.845435679
vt 0.675292969 0.911825716
vt 0.690917969 0.911825716
vt 0.690917969 0.845435679
vt 0.691894531 0.845435679
vt 0.691894531 0.911825716
vt 0.707519531 0.911825716
vt 0.707519531 0.845435679
vt 0.502441406 0.866182566
vt 0.502441406 0.899377584
vt 0.533691406 0.899377584
vt 0.533691406 0.866182566
vt 0.454589844 0.876556039
vt 0.454589844 0.909751058
vt 0.485839844 0.909751058
vt 0.485839844 0.876556039
vt 0.708496094 0.845435679
vt 0.708496094 0.911825716
vt 0.724121094 0.911825716
vt 0.724121094 0.845435679
vt 0.866699219 0.847510338
vt 0.866699219 0.913900435
vt 0.882324219 0.913900435
vt 0.882324219 0.847510338
vt 0.599121094 0.87448132
vt 0.599121094 0.940871358
vt 0.614746094 0.940871358
vt 0.614746094 0.87448132
vt 0.770019531 0.87448132
vt 0.770019531 0.940871358
vt 0.785644531 0.940871358
vt 0.785644531 0.87448132
vt 0.959472656 0.87448132
vt 0.959472656 0.940871358
vt 0.975097656 0.940871358
vt 0.975097656 0.87448132
vt 0.551269531 0.876556039
vt 0.551269531 0.942946076
vt 0.566894531 0.942946076
vt 0.566894531 0.876556039
vt 0.786621094 0.878630698
vt 0.786621094 0.911825716
vt 0.817871094 0.911825716
vt 0.817871094 0.878630698
vt 0.818847656 0.882780075
vt 0.818847656 0.915975094
vt 0.850097656 0.915975094
vt 0.850097656 0.882780075
vt 0.567871094 0.876556039
vt 0.567871094 0.942946076
vt 0.583496094 0.942946076
vt 0.583496094 0.876556039
vt 0.976074219 0.876556039
vt 0.976074219 0.942946076
vt 0.991699219 0.942946076
vt 0.991699219 0.876556039
vt 0.739746094 0.878630698
vt 0.739746094 0.945020735
vt 0.755371094 0.945020735
vt 0.755371094 0.878630698
vt 0.897949219 0.878630698
vt 0.897949219 0.945020735
vt 0.913574219 0.945020735
vt 0.913574219 0.878630698
vt 0.502441406 0.901452303
vt 0.502441406 0.96784234
vt 0.518066406 0.96784234
vt 0.518066406 0.901452303
vt 0.534667969 0.909751058
vt 0.534667969 0.976141095
vt 0.550292969 0.976141095
vt 0.550292969 0.909751058
vt 0.454589844 0.911825716
vt 0.454589844 0.945020735
vt 0.485839844 0.945020735
vt 0.485839844 0.911825716
vt 0.927246094 0.911825716
vt 0.927246094 0.978215754
vt 0.942871094 0.978215754
vt 0.942871094 0.911825716
vt 0.629394531 0.913900435
vt 0.629394531 0.980290473
vt 0.645019531 0.980290473
vt 0.645019531 0.913900435
vt 0.645996094 0.913900435
vt 0.645996094 0.947095454
vt 0.677246094 0.947095454
vt 0.677246094 0.913900435
vt 0.678222656 0.913900435
vt 0.678222656 0.947095454
vt 0.693847656 0.947095454
vt 0.693847656 0.913900435
vt 0.694824219 0.913900435
vt 0.694824219 0.947095454
vt 0.710449219 0.947095454
vt 0.710449219 0.913900435
vt 0.711425781 0.913900435
vt 0.711425781 0.947095454
vt 0.727050781 0.947095454
vt 0.727050781 0.913900435
vt 0.786621094 0.913900435
vt 0.786621094 0.947095454
vt 0.802246094 0.947095454
vt 0.802246094 0.913900435
vt 0.866699219 0.915975094
vt 0.866699219 0.949170113
vt 0.882324219 0.949170113
vt 0.882324219 0.915975094
vt 0.818847656 0.918049812
vt 0.818847656 0.951244831
vt 0.834472656 0.951244831
vt 0.834472656 0.918049812
vt 0.835449219 0.918049812
vt 0.835449219 0.951244831
vt 0.851074219 0.951244831
vt 0.851074219 0.918049812
vt 0.599121094 0.942946076
vt 0.599121094 0.976141095
vt 0.614746094 0.976141095
vt 0.614746094 0.942946076
vt 0.770019531 0.942946076
vt 0.770019531 0.96784234
vt 0.785644531 0.96784234
vt 0.785644531 0.942946076
vt 0.959472656 0.942946076
vt 0.959472656 0.976141095
vt 0.975097656 0.976141095
vt 0.975097656 0.942946076
vt 0.551269531 0.945020735
vt 0.551269531 0.978215754
vt 0.566894531 0.978215754
vt 0.566894531 0.945020735
vt 0.567871094 0.945020735
vt 0.567871094 0.978215754
vt 0.583496094 0.978215754
vt 0.583496094 0.945020735
vt 0.976074219 0.945020735
vt 0.976074219 0.978215754
vt 0.991699219 0.978215754
vt 0.991699219 0.945020735
vt 0.454589844 0.947095454
vt 0.454589844 0.980290473
vt 0.470214844 0.980290473
vt 0.470214844 0.947095454
vt 0.471191406 0.947095454
vt 0.471191406 0.980290473
vt 0.486816406 0.980290473
vt 0.486816406 0.947095454
vt 0.739746094 0.947095454
vt 0.739746094 0.980290473
vt 0.755371094 0.980290473
vt 0.755371094 0.947095454
vt 0.897949219 0.947095454
vt 0.897949219 0.980290473
vt 0.913574219 0.980290473
vt 0.913574219 0.947095454
vt 0.645996094 0.949170113
vt 0.645996094 0.982365131
vt 0.661621094 0.982365131
vt 0.661621094 0.949170113
vt 0.662597656 0.949170113
vt 0.662597656 0.982365131
vt 0.678222656 0.982365131
vt 0.678222656 0.949170113
vt 0.679199219 0.949170113
vt 0.679199219 0.982365131
vt 0.694824219 0.982365131
vt 0.694824219 0.949170113
vt 0.695800781 0.949170113
vt 0.695800781 0.982365131
vt 0.711425781 0.982365131
vt 0.711425781 0.949170113
vt 0.712402344 0.949170113
vt 0.712402344 0.982365131
vt 0.728027344 0.982365131
vt 0.728027344 0.949170113
vt 0.786621094 0.949170113
vt 0.786621094 0.982365131
vt 0.802246094 0.982365131
vt 0.802246094 0.949170113
vt 0.866699219 0.951244831
vt 0.866699219 0.98443985
vt 0.882324219 0.98443985
vt 0.882324219 0.951244831
vt 0.818847656 0.95331949
vt 0.818847656 0.986514509
vt 0.834472656 0.986514509
vt 0.834472656 0.95331949
vt 0.835449219 0.95331949
vt 0.835449219 0.986514509
vt 0.851074219 0.986514509
vt 0.851074219 0.95331949
vt 0.00048828125 0.965767622
vt 0.00048828125 0.998962641
vt 0.0161132812 0.998962641
vt 0.0161132812 0.965767622
vt 0.0170898438 0.965767622
vt 0.0170898438 0.998962641
vt 0.0327148438 0.998962641
vt 0.0327148438 0.965767622
vt 0.0336914062 0.965767622
vt 0.0336914062 0.998962641
vt 0.0493164062 0.998962641
vt 0.0493164062 0.965767622
vt 0.0502929688 0.965767622
vt 0.0502929688 0.998962641
vt 0.0659179688 0.998962641
vt 0.0659179688 0.965767622
vt 0.0668945312 0.965767622
vt 0.0668945312 0.998962641
vt 0.0825195312 0.998962641
vt 0.0825195312 0.965767622
vt 0.0834960938 0.965767622
vt 0.0834960938 0.998962641
vt 0.0991210938 0.998962641
vt 0.0991210938 0.965767622
vt 0.100097656 0.965767622
vt 0.100097656 0.998962641
vt 0.115722656 0.998962641
vt 0.115722656 0.965767622
vt 0.116699219 0.965767622
vt 0.116699219 0.998962641
vt 0.132324219 0.998962641
vt 0.132324219 0.965767622
vt 0.133300781 0.965767622
vt 0.133300781 0.998962641
vt 0.148925781 0.998962641
vt 0.148925781 0.965767622
vt 0.149902344 0.965767622
vt 0.149902344 0.998962641
vt 0.165527344 0.998962641
vt 0.165527344 0.965767622
vt 0.166503906 0.965767622
vt 0.166503906 0.998962641
vt 0.182128906 0.998962641
vt 0.182128906 0.965767622
g lafeier_rw-mesh_0
f 3/3/3 2/2/2 1/1/1
f 1/1/1 4/4/4 3/3/3
f 7/7/7 6/6/6 5/5/5
f 5/5/5 8/8/8 7/7/7
f 11/11/11 10/10/10 9/9/9
f 9/9/9 12/12/12 11/11/11
f 15/15/15 14/14/14 13/13/13
f 13/13/13 16/16/16 15/15/15
f 19/19/19 18/18/18 17/17/17
f 17/17/17 20/20/20 19/19/19
f 23/23/23 22/22/22 21/21/21
f 21/21/21 24/24/24 23/23/23
f 27/27/27 26/26/26 25/25/25
f 25/25/25 28/28/28 27/27/27
f 31/31/31 30/30/30 29/29/29
f 29/29/29 32/32/32 31/31/31
f 35/35/35 34/34/34 33/33/33
f 33/33/33 36/36/36 35/35/35
f 39/39/39 38/38/38 37/37/37
f 37/37/37 40/40/40 39/39/39
f 43/43/43 42/42/42 41/41/41
f 41/41/41 44/44/44 43/43/43
f 47/47/47 46/46/46 45/45/45
f 45/45/45 48/48/48 47/47/47
f 51/51/51 50/50/50 49/49/49
f 49/49/49 52/52/52 51/51/51
f 55/55/55 54/54/54 53/53/53
f 53/53/53 56/56/56 55/55/55
f 59/59/59 58/58/58 57/57/57
f 57/57/57 60/60/60 59/59/59
f 63/63/63 62/62/62 61/61/61
f 61/61/61 64/64/64 63/63/63
f 67/67/67 66/66/66 65/65/65
f 65/65/65 68/68/68 67/67/67
f 71/71/71 70/70/70 69/69/69
f 69/69/69 72/72/72 71/71/71
f 75/75/75 74/74/74 73/73/73
f 73/73/73 76/76/76 75/75/75
f 79/79/79 78/78/78 77/77/77
f 77/77/77 80/80/80 79/79/79
f 83/83/83 82/82/82 81/81/81
f 81/81/81 84/84/84 83/83/83
f 87/87/87 86/86/86 85/85/85
f 85/85/85 88/88/88 87/87/87
f 91/91/91 90/90/90 89/89/89
f 89/89/89 92/92/92 91/91/91
f 95/95/95 94/94/94 93/93/93
f 93/93/93 96/96/96 95/95/95
f 99/99/99 98/98/98 97/97/97
f 97/97/97 100/100/100 99/99/99
f 103/103/103 102/102/102 101/101/101
f 101/101/101 104/104/104 103/103/103
f 107/107/107 106/106/106 105/105/105
f 105/105/105 108/108/108 107/107/107
f 111/111/111 110/110/110 109/109/109
f 109/109/109 112/112/112 111/111/111
f 115/115/115 114/114/114 113/113/113
f 113/113/113 116/116/116 115/115/115
f 119/119/119 118/118/118 117/117/117
f 117/117/117 120/120/120 119/119/119
f 123/123/123 122/122/122 121/121/121
f 121/121/121 124/124/124 123/123/123
f 127/127/127 126/126/126 125/125/125
f 125/125/125 128/128/128 127/127/127
f 131/131/131 130/130/130 129/129/129
f 129/129/129 132/132/132 131/131/131
f 135/135/135 134/134/134 133/133/133
f 133/133/133 136/136/136 135/135/135
f 139/139/139 138/138/138 137/137/137
f 137/137/137 140/140/140 139/139/139
f 143/143/143 142/142/142 141/141/141
f 141/141/141 144/144/144 143/143/143
f 147/147/147 146/146/146 145/145/145
f 145/145/145 148/148/148 147/147/147
f 151/151/151 150/150/150 149/149/149
f 149/149/149 152/152/152 151/151/151
f 155/155/155 154/154/154 153/153/153
f 153/153/153 156/156/156 155/155/155
f 159/159/159 158/158/158 157/157/157
f 157/157/157 160/160/160 159/159/159
f 163/163/163 162/162/162 161/161/161
f 161/161/161 164/164/164 163/163/163
f 167/167/167 166/166/166 165/165/165
f 165/165/165 168/168/168 167/167/167
f 171/171/171 170/170/170 169/169/169
f 169/169/169 172/172/172 171/171/171
f 175/175/175 174/174/174 173/173/173
f 173/173/173 176/176/176 175/175/175
f 179/179/179 178/178/178 177/177/177
f 177/177/177 180/180/180 179/179/179
f 183/183/183 182/182/182 181/181/181
f 181/181/181 184/184/184 183/183/183
f 187/187/187 186/186/186 185/185/185
f 185/185/185 188/188/188 187/187/187
f 191/191/191 190/190/190 189/189/189
f 189/189/189 192/192/192 191/191/191
f 195/195/195 194/194/194 193/193/193
f 193/193/193 196/196/196 195/195/195
f 199/199/199 198/198/198 197/197/197
f 197/197/197 200/200/200 199/199/199
f 203/203/203 202/202/202 201/201/201
f 201/201/201 204/204/204 203/203/203
f 207/207/207 206/206/206 205/205/205
f 205/205/205 208/208/208 207/207/207
f 211/211/211 210/210/210 209/209/209
f 209/209/209 212/212/212 211/211/211
f 215/215/215 214/214/214 213/213/213
f 213/213/213 216/216/216 215/215/215
f 219/219/219 218/218/218 217/217/217
f 217/217/217 220/220/220 219/219/219
f 223/223/223 222/222/222 221/221/221
f 221/221/221 224/224/224 223/223/223
f 227/227/227 226/226/226 225/225/225
f 225/225/225 228/228/228 227/227/227
f 231/231/231 230/230/230 229/229/229
f 229/229/229 232/232/232 231/231/231
f 235/235/235 234/234/234 233/233/233
f 233/233/233 236/236/236 235/235/235
f 239/239/239 238/238/238 237/237/237
f 237/237/237 240/240/240 239/239/239
f 243/243/243 242/242/242 241/241/241
f 241/241/241 244/244/244 243/243/243
f 247/247/247 246/246/246 245/245/245
f 245/245/245 248/248/248 247/247/247
f 251/251/251 250/250/250 249/249/249
f 249/249/249 252/252/252 251/251/251
f 255/255/255 254/254/254 253/253/253
f 253/253/253 256/256/256 255/255/255
f 259/259/259 258/258/258 257/257/257
f 257/257/257 260/260/260 259/259/259
f 263/263/263 262/262/262 261/261/261
f 261/261/261 264/264/264 263/263/263
f 267/267/267 266/266/266 265/265/265
f 265/265/265 268/268/268 267/267/267
f 271/271/271 270/270/270 269/269/269
f 269/269/269 272/272/272 271/271/271
f 275/275/275 274/274/274 273/273/273
f 273/273/273 276/276/276 275/275/275
f 279/279/279 278/278/278 277/277/277
f 277/277/277 280/280/280 279/279/279
f 283/283/283 282/282/282 281/281/281
f 281/281/281 284/284/284 283/283/283
f 287/287/287 286/286/286 285/285/285
f 285/285/285 288/288/288 287/287/287
f 291/291/291 290/290/290 289/289/289
f 289/289/289 292/292/292 291/291/291
f 295/295/295 294/294/294 293/293/293
f 293/293/293 296/296/296 295/295/295
f 299/299/299 298/298/298 297/297/297
f 297/297/297 300/300/300 299/299/299
f 303/303/303 302/302/302 301/301/301
f 301/301/301 304/304/304 303/303/303
f 307/307/307 306/306/306 305/305/305
f 305/305/305 308/308/308 307/307/307
f 311/311/311 310/310/310 309/309/309
f 309/309/309 312/312/312 311/311/311
f 315/315/315 314/314/314 313/313/313
f 313/313/313 316/316/316 315/315/315
f 319/319/319 318/318/318 317/317/317
f 317/317/317 320/320/320 319/319/319
f 323/323/323 322/322/322 321/321/321
f 321/321/321 324/324/324 323/323/323
f 327/327/327 326/326/326 325/325/325
f 325/325/325 328/328/328 327/327/327
f 331/331/331 330/330/330 329/329/329
f 329/329/329 332/332/332 331/331/331
f 335/335/335 334/334/334 333/333/333
f 333/333/333 336/336/336 335/335/335
f 339/339/339 338/338/338 337/337/337
f 337/337/337 340/340/340 339/339/339
f 343/343/343 342/342/342 341/341/341
f 341/341/341 344/344/344 343/343/343
f 347/347/347 346/346/346 345/345/345
f 345/345/345 348/348/348 347/347/347
f 351/351/351 350/350/350 349/349/349
f 349/349/349 352/352/352 351/351/351
f 355/355/355 354/354/354 353/353/353
f 353/353/353 356/356/356 355/355/355
f 359/359/359 358/358/358 357/357/357
f 357/357/357 360/360/360 359/359/359
f 363/363/363 362/362/362 361/361/361
f 361/361/361 364/364/364 363/363/363
f 367/367/367 366/366/366 365/365/365
f 365/365/365 368/368/368 367/367/367
f 371/371/371 370/370/370 369/369/369
f 369/369/369 372/372/372 371/371/371
f 375/375/375 374/374/374 373/373/373
f 373/373/373 376/376/376 375/375/375
f 379/379/379 378/378/378 377/377/377
f 377/377/377 380/380/380 379/379/379
f 383/383/383 382/382/382 381/381/381
f 381/381/381 384/384/384 383/383/383
f 387/387/387 386/386/386 385/385/385
f 385/385/385 388/388/388 387/387/387
f 391/391/391 390/390/390 389/389/389
f 389/389/389 392/392/392 391/391/391
f 395/395/395 394/394/394 393/393/393
f 393/393/393 396/396/396 395/395/395
f 399/399/399 398/398/398 397/397/397
f 397/397/397 400/400/400 399/399/399
f 403/403/403 402/402/402 401/401/401
f 401/401/401 404/404/404 403/403/403
f 407/407/407 406/406/406 405/405/405
f 405/405/405 408/408/408 407/407/407
f 411/411/411 410/410/410 409/409/409
f 409/409/409 412/412/412 411/411/411
f 415/415/415 414/414/414 413/413/413
f 413/413/413 416/416/416 415/415/415
f 419/419/419 418/418/418 417/417/417
f 417/417/417 420/420/420 419/419/419
f 423/423/423 422/422/422 421/421/421
f 421/421/421 424/424/424 423/423/423
f 427/427/427 426/426/426 425/425/425
f 425/425/425 428/428/428 427/427/427
f 431/431/431 430/430/430 429/429/429
f 429/429/429 432/432/432 431/431/431
f 435/435/435 434/434/434 433/433/433
f 433/433/433 436/436/436 435/435/435
f 439/439/439 438/438/438 437/437/437
f 437/437/437 440/440/440 439/439/439
f 443/443/443 442/442/442 441/441/441
f 441/441/441 444/444/444 443/443/443
f 447/447/447 446/446/446 445/445/445
f 445/445/445 448/448/448 447/447/447
f 451/451/451 450/450/450 449/449/449
f 449/449/449 452/452/452 451/451/451
f 455/455/455 454/454/454 453/453/453
f 453/453/453 456/456/456 455/455/455
f 459/459/459 458/458/458 457/457/457
f 457/457/457 460/460/460 459/459/459
f 463/463/463 462/462/462 461/461/461
f 461/461/461 464/464/464 463/463/463
f 467/467/467 466/466/466 465/465/465
f 465/465/465 468/468/468 467/467/467
f 471/471/471 470/470/470 469/469/469
f 469/469/469 472/472/472 471/471/471
f 475/475/475 474/474/474 473/473/473
f 473/473/473 476/476/476 475/475/475
f 479/479/479 478/478/478 477/477/477
f 477/477/477 480/480/480 479/479/479
f 483/483/483 482/482/482 481/481/481
f 481/481/481 484/484/484 483/483/483
f 487/487/487 486/486/486 485/485/485
f 485/485/485 488/488/488 487/487/487
f 491/491/491 490/490/490 489/489/489
f 489/489/489 492/492/492 491/491/491
f 495/495/495 494/494/494 493/493/493
f 493/493/493 496/496/496 495/495/495
f 499/499/499 498/498/498 497/497/497
f 497/497/497 500/500/500 499/499/499
f 503/503/503 502/502/502 501/501/501
f 501/501/501 504/504/504 503/503/503
f 507/507/507 506/506/506 505/505/505
f 505/505/505 508/508/508 507/507/507
f 511/511/511 510/510/510 509/509/509
f 509/509/509 512/512/512 511/511/511
f 515/515/515 514/514/514 513/513/513
f 513/513/513 516/516/516 515/515/515
f 519/519/519 518/518/518 517/517/517
f 517/517/517 520/520/520 519/519/519
f 523/523/523 522/522/522 521/521/521
f 521/521/521 524/524/524 523/523/523
f 527/527/527 526/526/526 525/525/525
f 525/525/525 528/528/528 527/527/527
f 531/531/531 530/530/530 529/529/529
f 529/529/529 532/532/532 531/531/531
