g shentong_4-mesh
v -1120 75 0
v -1120 1643 0
v -1952 1643 0
v -1952 75 0
v -288 75 0
v -288 1643 0
v -1120 1643 0
v -1120 75 0
v -160 395 0
v -160 747 0
v -288 747 0
v -288 395 0
v -160 75 0
v -160 395 0
v -288 395 0
v -288 75 0
v -160 1003 0
v -160 1291 0
v -288 1291 0
v -288 1003 0
v -1088 1643 0
v -1088 1675 0
v -1856 1675 0
v -1856 1643 0
v -320 1643 0
v -320 1675 0
v -1088 1675 0
v -1088 1643 0
v -0 427 0
v -0 555 0
v -160 555 0
v -160 427 0
v -1952 331 0
v -1952 523 0
v -2047 523 0
v -2047 331 0
v -1952 171 0
v -1952 331 0
v -2047 331 0
v -2047 171 0
v -704 43 0
v -704 75 0
v -1088 75 0
v -1088 43 0
v -1088 43 0
v -1088 75 0
v -1440 75 0
v -1440 43 0
v -512 0 0
v -512 75 0
v -608 75 0
v -608 0 0
v -224 747 0
v -224 875 0
v -288 875 0
v -288 747 0
v -96 555 0
v -96 683 0
v -160 683 0
v -160 555 0
v -224 875 0
v -224 1003 0
v -288 1003 0
v -288 875 0
v -1952 1579 0
v -1952 1675 0
v -2016 1675 0
v -2016 1579 0
v -1984 843 0
v -1984 939 0
v -2047 939 0
v -2047 843 0
v -256 1451 0
v -256 1643 0
v -288 1643 0
v -288 1451 0
v -192 1579 0
v -192 1675 0
v -256 1675 0
v -256 1579 0
v -256 1291 0
v -256 1451 0
v -288 1451 0
v -288 1291 0
v -1952 651 0
v -1952 779 0
v -1984 779 0
v -1984 651 0
v -1952 523 0
v -1952 651 0
v -1984 651 0
v -1984 523 0
v -224 1451 0
v -224 1547 0
v -256 1547 0
v -256 1451 0
v -128 267 0
v -128 331 0
v -160 331 0
v -160 267 0
v -1952 843 0
v -1952 907 0
v -1984 907 0
v -1984 843 0
v -1952 107 0
v -1952 171 0
v -1984 171 0
v -1984 107 0
v -928 11 0
v -928 43 0
v -992 43 0
v -992 11 0
v -224 43 0
v -224 75 0
v -288 75 0
v -288 43 0
v -224 1387 0
v -224 1451 0
v -256 1451 0
v -256 1387 0
v -1792 43 0
v -1792 75 0
v -1856 75 0
v -1856 43 0
v -1856 43 0
v -1856 75 0
v -1920 75 0
v -1920 43 0
v -1984 555 0
v -1984 619 0
v -2016 619 0
v -2016 555 0
v -192 747 0
v -192 779 0
v -224 779 0
v -224 747 0
v -1984 139 0
v -1984 171 0
v -2016 171 0
v -2016 139 0
v -1984 523 0
v -1984 555 0
v -2016 555 0
v -2016 523 0
v -192 971 0
v -192 1003 0
v -224 1003 0
v -224 971 0
vt 0.00048828125 0.000598788261
vt 0.00048828125 0.939520955
vt 0.406738281 0.939520955
vt 0.406738281 0.000598788261
vt 0.407714844 0.000598788261
vt 0.407714844 0.939520955
vt 0.813964844 0.939520955
vt 0.813964844 0.000598788261
vt 0.814941406 0.000598788261
vt 0.814941406 0.211377263
vt 0.877441406 0.211377263
vt 0.877441406 0.000598788261
vt 0.878417969 0.000598788261
vt 0.878417969 0.192215562
vt 0.940917969 0.192215562
vt 0.940917969 0.000598788261
vt 0.878417969 0.193413198
vt 0.878417969 0.36586827
vt 0.940917969 0.36586827
vt 0.940917969 0.193413198
vt 0.00048828125 0.940718532
vt 0.00048828125 0.959880233
vt 0.375488281 0.959880233
vt 0.375488281 0.940718532
vt 0.376464844 0.940718532
vt 0.376464844 0.959880233
vt 0.751464844 0.959880233
vt 0.751464844 0.940718532
vt 0.878417969 0.367065847
vt 0.878417969 0.443712592
vt 0.956542969 0.443712592
vt 0.956542969 0.367065847
vt 0.814941406 0.21257484
vt 0.814941406 0.327544928
vt 0.861816406 0.327544928
vt 0.861816406 0.21257484
vt 0.814941406 0.328742504
vt 0.814941406 0.424550891
vt 0.861816406 0.424550891
vt 0.861816406 0.328742504
vt 0.752441406 0.940718532
vt 0.752441406 0.959880233
vt 0.939941406 0.959880233
vt 0.939941406 0.940718532
vt 0.00048828125 0.961077869
vt 0.00048828125 0.980239511
vt 0.172363281 0.980239511
vt 0.172363281 0.961077869
vt 0.940917969 0.444910169
vt 0.940917969 0.490419149
vt 0.987792969 0.490419149
vt 0.987792969 0.444910169
vt 0.940917969 0.491616786
vt 0.940917969 0.568263471
vt 0.972167969 0.568263471
vt 0.972167969 0.491616786
vt 0.940917969 0.569461107
vt 0.940917969 0.646107793
vt 0.972167969 0.646107793
vt 0.972167969 0.569461107
vt 0.940917969 0.647305369
vt 0.940917969 0.723952055
vt 0.972167969 0.723952055
vt 0.972167969 0.647305369
vt 0.940917969 0.725149691
vt 0.940917969 0.782634735
vt 0.972167969 0.782634735
vt 0.972167969 0.725149691
vt 0.940917969 0.783832312
vt 0.940917969 0.841317356
vt 0.972167969 0.841317356
vt 0.972167969 0.783832312
vt 0.973144531 0.491616786
vt 0.973144531 0.606586814
vt 0.988769531 0.606586814
vt 0.988769531 0.491616786
vt 0.940917969 0.842514992
vt 0.940917969 0.899999976
vt 0.972167969 0.899999976
vt 0.972167969 0.842514992
vt 0.973144531 0.60778439
vt 0.973144531 0.703592777
vt 0.988769531 0.703592777
vt 0.988769531 0.60778439
vt 0.973144531 0.704790413
vt 0.973144531 0.781437159
vt 0.988769531 0.781437159
vt 0.988769531 0.704790413
vt 0.973144531 0.782634735
vt 0.973144531 0.859281421
vt 0.988769531 0.859281421
vt 0.988769531 0.782634735
vt 0.973144531 0.860479057
vt 0.973144531 0.917964101
vt 0.988769531 0.917964101
vt 0.988769531 0.860479057
vt 0.940917969 0.901197612
vt 0.940917969 0.939520955
vt 0.956542969 0.939520955
vt 0.956542969 0.901197612
vt 0.973144531 0.919161677
vt 0.973144531 0.95748502
vt 0.988769531 0.95748502
vt 0.988769531 0.919161677
vt 0.940917969 0.940718532
vt 0.940917969 0.979041934
vt 0.956542969 0.979041934
vt 0.956542969 0.940718532
vt 0.173339844 0.961077869
vt 0.173339844 0.980239511
vt 0.204589844 0.980239511
vt 0.204589844 0.961077869
vt 0.205566406 0.961077869
vt 0.205566406 0.980239511
vt 0.236816406 0.980239511
vt 0.236816406 0.961077869
vt 0.973144531 0.958682656
vt 0.973144531 0.997005999
vt 0.988769531 0.997005999
vt 0.988769531 0.958682656
vt 0.237792969 0.961077869
vt 0.237792969 0.980239511
vt 0.269042969 0.980239511
vt 0.269042969 0.961077869
vt 0.270019531 0.961077869
vt 0.270019531 0.980239511
vt 0.301269531 0.980239511
vt 0.301269531 0.961077869
vt 0.302246094 0.961077869
vt 0.302246094 0.999401212
vt 0.317871094 0.999401212
vt 0.317871094 0.961077869
vt 0.318847656 0.961077869
vt 0.318847656 0.980239511
vt 0.334472656 0.980239511
vt 0.334472656 0.961077869
vt 0.335449219 0.961077869
vt 0.335449219 0.980239511
vt 0.351074219 0.980239511
vt 0.351074219 0.961077869
vt 0.352050781 0.961077869
vt 0.352050781 0.980239511
vt 0.367675781 0.980239511
vt 0.367675781 0.961077869
vt 0.368652344 0.961077869
vt 0.368652344 0.980239511
vt 0.384277344 0.980239511
vt 0.384277344 0.961077869
g shentong_4-mesh_0
f 3/3/3 2/2/2 1/1/1
f 1/1/1 4/4/4 3/3/3
f 7/7/7 6/6/6 5/5/5
f 5/5/5 8/8/8 7/7/7
f 11/11/11 10/10/10 9/9/9
f 9/9/9 12/12/12 11/11/11
f 15/15/15 14/14/14 13/13/13
f 13/13/13 16/16/16 15/15/15
f 19/19/19 18/18/18 17/17/17
f 17/17/17 20/20/20 19/19/19
f 23/23/23 22/22/22 21/21/21
f 21/21/21 24/24/24 23/23/23
f 27/27/27 26/26/26 25/25/25
f 25/25/25 28/28/28 27/27/27
f 31/31/31 30/30/30 29/29/29
f 29/29/29 32/32/32 31/31/31
f 35/35/35 34/34/34 33/33/33
f 33/33/33 36/36/36 35/35/35
f 39/39/39 38/38/38 37/37/37
f 37/37/37 40/40/40 39/39/39
f 43/43/43 42/42/42 41/41/41
f 41/41/41 44/44/44 43/43/43
f 47/47/47 46/46/46 45/45/45
f 45/45/45 48/48/48 47/47/47
f 51/51/51 50/50/50 49/49/49
f 49/49/49 52/52/52 51/51/51
f 55/55/55 54/54/54 53/53/53
f 53/53/53 56/56/56 55/55/55
f 59/59/59 58/58/58 57/57/57
f 57/57/57 60/60/60 59/59/59
f 63/63/63 62/62/62 61/61/61
f 61/61/61 64/64/64 63/63/63
f 67/67/67 66/66/66 65/65/65
f 65/65/65 68/68/68 67/67/67
f 71/71/71 70/70/70 69/69/69
f 69/69/69 72/72/72 71/71/71
f 75/75/75 74/74/74 73/73/73
f 73/73/73 76/76/76 75/75/75
f 79/79/79 78/78/78 77/77/77
f 77/77/77 80/80/80 79/79/79
f 83/83/83 82/82/82 81/81/81
f 81/81/81 84/84/84 83/83/83
f 87/87/87 86/86/86 85/85/85
f 85/85/85 88/88/88 87/87/87
f 91/91/91 90/90/90 89/89/89
f 89/89/89 92/92/92 91/91/91
f 95/95/95 94/94/94 93/93/93
f 93/93/93 96/96/96 95/95/95
f 99/99/99 98/98/98 97/97/97
f 97/97/97 100/100/100 99/99/99
f 103/103/103 102/102/102 101/101/101
f 101/101/101 104/104/104 103/103/103
f 107/107/107 106/106/106 105/105/105
f 105/105/105 108/108/108 107/107/107
f 111/111/111 110/110/110 109/109/109
f 109/109/109 112/112/112 111/111/111
f 115/115/115 114/114/114 113/113/113
f 113/113/113 116/116/116 115/115/115
f 119/119/119 118/118/118 117/117/117
f 117/117/117 120/120/120 119/119/119
f 123/123/123 122/122/122 121/121/121
f 121/121/121 124/124/124 123/123/123
f 127/127/127 126/126/126 125/125/125
f 125/125/125 128/128/128 127/127/127
f 131/131/131 130/130/130 129/129/129
f 129/129/129 132/132/132 131/131/131
f 135/135/135 134/134/134 133/133/133
f 133/133/133 136/136/136 135/135/135
f 139/139/139 138/138/138 137/137/137
f 137/137/137 140/140/140 139/139/139
f 143/143/143 142/142/142 141/141/141
f 141/141/141 144/144/144 143/143/143
f 147/147/147 146/146/146 145/145/145
f 145/145/145 148/148/148 147/147/147
