g luyijiushi_2-mesh
v -320 991 0
v -320 1791 0
v -1120 1791 0
v -1120 991 0
v -320 223 0
v -320 991 0
v -1120 991 0
v -1120 223 0
v -1120 447 0
v -1120 767 0
v -1568 767 0
v -1568 447 0
v -1120 159 0
v -1120 447 0
v -1568 447 0
v -1568 159 0
v -128 735 0
v -128 1215 0
v -288 1215 0
v -288 735 0
v -128 287 0
v -128 735 0
v -288 735 0
v -288 287 0
v -512 63 0
v -512 223 0
v -832 223 0
v -832 63 0
v -832 63 0
v -832 223 0
v -1120 223 0
v -1120 63 0
v -320 1791 0
v -320 2047 0
v -480 2047 0
v -480 1791 0
v -1408 767 0
v -1408 927 0
v -1568 927 0
v -1568 767 0
v -1120 767 0
v -1120 959 0
v -1248 959 0
v -1248 767 0
v -1120 959 0
v -1120 1151 0
v -1248 1151 0
v -1248 959 0
v -1120 1663 0
v -1120 1759 0
v -1312 1759 0
v -1312 1663 0
v -128 1215 0
v -128 1343 0
v -256 1343 0
v -256 1215 0
v -1056 0 0
v -1056 63 0
v -1312 63 0
v -1312 0 0
v -800 0 0
v -800 63 0
v -1056 63 0
v -1056 0 0
v -64 543 0
v -64 799 0
v -128 799 0
v -128 543 0
v -1440 959 0
v -1440 1119 0
v -1536 1119 0
v -1536 959 0
v -64 319 0
v -64 543 0
v -128 543 0
v -128 319 0
v -1248 63 0
v -1248 159 0
v -1376 159 0
v -1376 63 0
v -416 95 0
v -416 223 0
v -512 223 0
v -512 95 0
v -0 895 0
v -0 1023 0
v -96 1023 0
v -96 895 0
v -1120 1535 0
v -1120 1663 0
v -1216 1663 0
v -1216 1535 0
v -288 607 0
v -288 991 0
v -320 991 0
v -320 607 0
v -768 1791 0
v -768 1855 0
v -960 1855 0
v -960 1791 0
v -576 1791 0
v -576 1855 0
v -768 1855 0
v -768 1791 0
v -288 223 0
v -288 607 0
v -320 607 0
v -320 223 0
v -1120 63 0
v -1120 159 0
v -1248 159 0
v -1248 63 0
v -1568 287 0
v -1568 415 0
v -1664 415 0
v -1664 287 0
v -1568 415 0
v -1568 543 0
v -1664 543 0
v -1664 415 0
v -1120 1439 0
v -1120 1535 0
v -1184 1535 0
v -1184 1439 0
v -1120 1215 0
v -1120 1311 0
v -1184 1311 0
v -1184 1215 0
v -352 159 0
v -352 223 0
v -416 223 0
v -416 159 0
v -1280 1567 0
v -1280 1631 0
v -1344 1631 0
v -1344 1567 0
v -1248 1183 0
v -1248 1247 0
v -1312 1247 0
v -1312 1183 0
v -1248 927 0
v -1248 1055 0
v -1280 1055 0
v -1280 927 0
v -32 479 0
v -32 607 0
v -64 607 0
v -64 479 0
v -1120 1151 0
v -1120 1215 0
v -1184 1215 0
v -1184 1151 0
v -32 383 0
v -32 479 0
v -64 479 0
v -64 383 0
v -1248 831 0
v -1248 927 0
v -1280 927 0
v -1280 831 0
v -256 1311 0
v -256 1375 0
v -288 1375 0
v -288 1311 0
v -1120 1375 0
v -1120 1439 0
v -1152 1439 0
v -1152 1375 0
v -288 1055 0
v -288 1119 0
v -320 1119 0
v -320 1055 0
v -1184 1151 0
v -1184 1215 0
v -1216 1215 0
v -1216 1151 0
v -704 31 0
v -704 63 0
v -768 63 0
v -768 31 0
v -544 31 0
v -544 63 0
v -608 63 0
v -608 31 0
v -736 1855 0
v -736 1887 0
v -800 1887 0
v -800 1855 0
v -960 1791 0
v -960 1823 0
v -1024 1823 0
v -1024 1791 0
v -512 1791 0
v -512 1823 0
v -576 1823 0
v -576 1791 0
v -0 543 0
v -0 607 0
v -32 607 0
v -32 543 0
v -1600 607 0
v -1600 671 0
v -1632 671 0
v -1632 607 0
v -1312 31 0
v -1312 63 0
v -1376 63 0
v -1376 31 0
v -0 383 0
v -0 447 0
v -32 447 0
v -32 383 0
v -32 639 0
v -32 703 0
v -64 703 0
v -64 639 0
v -1376 927 0
v -1376 991 0
v -1408 991 0
v -1408 927 0
v -96 927 0
v -96 991 0
v -128 991 0
v -128 927 0
v -1248 767 0
v -1248 799 0
v -1312 799 0
v -1312 767 0
v -1440 927 0
v -1440 959 0
v -1504 959 0
v -1504 927 0
v -1568 223 0
v -1568 287 0
v -1600 287 0
v -1600 223 0
v -224 255 0
v -224 287 0
v -288 287 0
v -288 255 0
v -1664 351 0
v -1664 415 0
v -1689 415 0
v -1689 351 0
v -1376 127 0
v -1376 159 0
v -1440 159 0
v -1440 127 0
v -480 1823 0
v -480 1887 0
v -512 1887 0
v -512 1823 0
v -1440 127 0
v -1440 159 0
v -1504 159 0
v -1504 127 0
v -288 1279 0
v -288 1343 0
v -320 1343 0
v -320 1279 0
v -288 1343 0
v -288 1407 0
v -320 1407 0
v -320 1343 0
v -1568 607 0
v -1568 671 0
v -1600 671 0
v -1600 607 0
v -1664 415 0
v -1664 479 0
v -1689 479 0
v -1689 415 0
v -1568 543 0
v -1568 607 0
v -1600 607 0
v -1600 543 0
v -96 1215 0
v -96 1279 0
v -128 1279 0
v -128 1215 0
v -1408 1023 0
v -1408 1087 0
v -1440 1087 0
v -1440 1023 0
v -1216 1759 0
v -1216 1791 0
v -1280 1791 0
v -1280 1759 0
v -160 255 0
v -160 287 0
v -224 287 0
v -224 255 0
v -1280 831 0
v -1280 863 0
v -1312 863 0
v -1312 831 0
v -256 223 0
v -256 255 0
v -288 255 0
v -288 223 0
v -1376 95 0
v -1376 127 0
v -1408 127 0
v -1408 95 0
v -1120 1759 0
v -1120 1791 0
v -1152 1791 0
v -1152 1759 0
v -1600 543 0
v -1600 575 0
v -1632 575 0
v -1632 543 0
v -1600 255 0
v -1600 287 0
v -1632 287 0
v -1632 255 0
v -96 287 0
v -96 319 0
v -128 319 0
v -128 287 0
v -480 1983 0
v -480 2015 0
v -512 2015 0
v -512 1983 0
v -768 31 0
v -768 63 0
v -800 63 0
v -800 31 0
v -608 31 0
v -608 63 0
v -640 63 0
v -640 31 0
v -1408 991 0
v -1408 1023 0
v -1440 1023 0
v -1440 991 0
v -96 1183 0
v -96 1215 0
v -128 1215 0
v -128 1183 0
v -1568 191 0
v -1568 223 0
v -1600 223 0
v -1600 191 0
v -480 1791 0
v -480 1823 0
v -512 1823 0
v -512 1791 0
v -1280 1759 0
v -1280 1791 0
v -1312 1791 0
v -1312 1759 0
vt 0.00048828125 0.000720441341
vt 0.00048828125 0.57708931
vt 0.391113281 0.57708931
vt 0.391113281 0.000720441341
vt 0.392089844 0.000720441341
vt 0.392089844 0.554034591
vt 0.782714844 0.554034591
vt 0.782714844 0.000720441341
vt 0.392089844 0.555475473
vt 0.392089844 0.786023021
vt 0.610839844 0.786023021
vt 0.610839844 0.555475473
vt 0.611816406 0.555475473
vt 0.611816406 0.762968302
vt 0.830566406 0.762968302
vt 0.830566406 0.555475473
vt 0.831542969 0.000720441341
vt 0.831542969 0.346541762
vt 0.909667969 0.346541762
vt 0.909667969 0.000720441341
vt 0.910644531 0.000720441341
vt 0.910644531 0.323487043
vt 0.988769531 0.323487043
vt 0.988769531 0.000720441341
vt 0.831542969 0.347982705
vt 0.831542969 0.463256478
vt 0.987792969 0.463256478
vt 0.987792969 0.347982705
vt 0.831542969 0.464697421
vt 0.831542969 0.579971194
vt 0.972167969 0.579971194
vt 0.972167969 0.464697421
vt 0.00048828125 0.578530252
vt 0.00048828125 0.762968302
vt 0.0786132812 0.762968302
vt 0.0786132812 0.578530252
vt 0.0795898438 0.578530252
vt 0.0795898438 0.693804026
vt 0.157714844 0.693804026
vt 0.157714844 0.578530252
vt 0.158691406 0.578530252
vt 0.158691406 0.716858804
vt 0.221191406 0.716858804
vt 0.221191406 0.578530252
vt 0.222167969 0.578530252
vt 0.222167969 0.716858804
vt 0.284667969 0.716858804
vt 0.284667969 0.578530252
vt 0.285644531 0.578530252
vt 0.285644531 0.647694528
vt 0.379394531 0.647694528
vt 0.379394531 0.578530252
vt 0.831542969 0.581412077
vt 0.831542969 0.673631132
vt 0.894042969 0.673631132
vt 0.894042969 0.581412077
vt 0.831542969 0.675072074
vt 0.831542969 0.721181512
vt 0.956542969 0.721181512
vt 0.956542969 0.675072074
vt 0.158691406 0.718299747
vt 0.158691406 0.764409244
vt 0.283691406 0.764409244
vt 0.283691406 0.718299747
vt 0.957519531 0.581412077
vt 0.957519531 0.765850127
vt 0.988769531 0.765850127
vt 0.988769531 0.581412077
vt 0.285644531 0.64913547
vt 0.285644531 0.764409244
vt 0.332519531 0.764409244
vt 0.332519531 0.64913547
vt 0.333496094 0.64913547
vt 0.333496094 0.810518742
vt 0.364746094 0.810518742
vt 0.364746094 0.64913547
vt 0.0795898438 0.695244968
vt 0.0795898438 0.764409244
vt 0.142089844 0.764409244
vt 0.142089844 0.695244968
vt 0.831542969 0.722622514
vt 0.831542969 0.814841509
vt 0.878417969 0.814841509
vt 0.878417969 0.722622514
vt 0.879394531 0.722622514
vt 0.879394531 0.814841509
vt 0.926269531 0.814841509
vt 0.926269531 0.722622514
vt 0.00048828125 0.764409244
vt 0.00048828125 0.856628239
vt 0.0473632812 0.856628239
vt 0.0473632812 0.764409244
vt 0.365722656 0.64913547
vt 0.365722656 0.925792515
vt 0.381347656 0.925792515
vt 0.381347656 0.64913547
vt 0.611816406 0.764409244
vt 0.611816406 0.810518742
vt 0.705566406 0.810518742
vt 0.705566406 0.764409244
vt 0.706542969 0.764409244
vt 0.706542969 0.810518742
vt 0.800292969 0.810518742
vt 0.800292969 0.764409244
vt 0.927246094 0.722622514
vt 0.927246094 0.999279559
vt 0.942871094 0.999279559
vt 0.942871094 0.722622514
vt 0.0795898438 0.765850127
vt 0.0795898438 0.835014403
vt 0.142089844 0.835014403
vt 0.142089844 0.765850127
vt 0.158691406 0.765850127
vt 0.158691406 0.858069181
vt 0.205566406 0.858069181
vt 0.205566406 0.765850127
vt 0.206542969 0.765850127
vt 0.206542969 0.858069181
vt 0.253417969 0.858069181
vt 0.253417969 0.765850127
vt 0.254394531 0.765850127
vt 0.254394531 0.835014403
vt 0.285644531 0.835014403
vt 0.285644531 0.765850127
vt 0.286621094 0.765850127
vt 0.286621094 0.835014403
vt 0.317871094 0.835014403
vt 0.317871094 0.765850127
vt 0.957519531 0.767291069
vt 0.957519531 0.813400567
vt 0.988769531 0.813400567
vt 0.988769531 0.767291069
vt 0.392089844 0.787463963
vt 0.392089844 0.833573461
vt 0.423339844 0.833573461
vt 0.423339844 0.787463963
vt 0.424316406 0.787463963
vt 0.424316406 0.833573461
vt 0.455566406 0.833573461
vt 0.455566406 0.787463963
vt 0.0483398438 0.764409244
vt 0.0483398438 0.856628239
vt 0.0639648438 0.856628239
vt 0.0639648438 0.764409244
vt 0.801269531 0.764409244
vt 0.801269531 0.856628239
vt 0.816894531 0.856628239
vt 0.816894531 0.764409244
vt 0.456542969 0.787463963
vt 0.456542969 0.833573461
vt 0.487792969 0.833573461
vt 0.487792969 0.787463963
vt 0.488769531 0.787463963
vt 0.488769531 0.856628239
vt 0.504394531 0.856628239
vt 0.504394531 0.787463963
vt 0.505371094 0.787463963
vt 0.505371094 0.856628239
vt 0.520996094 0.856628239
vt 0.520996094 0.787463963
vt 0.521972656 0.787463963
vt 0.521972656 0.833573461
vt 0.537597656 0.833573461
vt 0.537597656 0.787463963
vt 0.538574219 0.787463963
vt 0.538574219 0.833573461
vt 0.554199219 0.833573461
vt 0.554199219 0.787463963
vt 0.555175781 0.787463963
vt 0.555175781 0.833573461
vt 0.570800781 0.833573461
vt 0.570800781 0.787463963
vt 0.571777344 0.787463963
vt 0.571777344 0.833573461
vt 0.587402344 0.833573461
vt 0.587402344 0.787463963
vt 0.333496094 0.811959624
vt 0.333496094 0.835014403
vt 0.364746094 0.835014403
vt 0.364746094 0.811959624
vt 0.611816406 0.811959624
vt 0.611816406 0.835014403
vt 0.643066406 0.835014403
vt 0.643066406 0.811959624
vt 0.644042969 0.811959624
vt 0.644042969 0.835014403
vt 0.675292969 0.835014403
vt 0.675292969 0.811959624
vt 0.676269531 0.811959624
vt 0.676269531 0.835014403
vt 0.707519531 0.835014403
vt 0.707519531 0.811959624
vt 0.708496094 0.811959624
vt 0.708496094 0.835014403
vt 0.739746094 0.835014403
vt 0.739746094 0.811959624
vt 0.588378906 0.787463963
vt 0.588378906 0.833573461
vt 0.604003906 0.833573461
vt 0.604003906 0.787463963
vt 0.740722656 0.811959624
vt 0.740722656 0.858069181
vt 0.756347656 0.858069181
vt 0.756347656 0.811959624
vt 0.757324219 0.811959624
vt 0.757324219 0.835014403
vt 0.788574219 0.835014403
vt 0.788574219 0.811959624
vt 0.957519531 0.814841509
vt 0.957519531 0.860951006
vt 0.973144531 0.860951006
vt 0.973144531 0.814841509
vt 0.974121094 0.814841509
vt 0.974121094 0.860951006
vt 0.989746094 0.860951006
vt 0.989746094 0.814841509
vt 0.831542969 0.816282392
vt 0.831542969 0.862391949
vt 0.847167969 0.862391949
vt 0.847167969 0.816282392
vt 0.848144531 0.816282392
vt 0.848144531 0.862391949
vt 0.863769531 0.862391949
vt 0.863769531 0.816282392
vt 0.864746094 0.816282392
vt 0.864746094 0.83933717
vt 0.895996094 0.83933717
vt 0.895996094 0.816282392
vt 0.392089844 0.835014403
vt 0.392089844 0.858069181
vt 0.423339844 0.858069181
vt 0.423339844 0.835014403
vt 0.896972656 0.816282392
vt 0.896972656 0.862391949
vt 0.912597656 0.862391949
vt 0.912597656 0.816282392
vt 0.424316406 0.835014403
vt 0.424316406 0.858069181
vt 0.455566406 0.858069181
vt 0.455566406 0.835014403
vt 0.143066406 0.695244968
vt 0.143066406 0.741354465
vt 0.155761719 0.741354465
vt 0.155761719 0.695244968
vt 0.456542969 0.835014403
vt 0.456542969 0.858069181
vt 0.487792969 0.858069181
vt 0.487792969 0.835014403
vt 0.521972656 0.835014403
vt 0.521972656 0.8811239
vt 0.537597656 0.8811239
vt 0.537597656 0.835014403
vt 0.538574219 0.835014403
vt 0.538574219 0.858069181
vt 0.569824219 0.858069181
vt 0.569824219 0.835014403
vt 0.570800781 0.835014403
vt 0.570800781 0.8811239
vt 0.586425781 0.8811239
vt 0.586425781 0.835014403
vt 0.587402344 0.835014403
vt 0.587402344 0.8811239
vt 0.603027344 0.8811239
vt 0.603027344 0.835014403
vt 0.0795898438 0.836455345
vt 0.0795898438 0.882564843
vt 0.0952148438 0.882564843
vt 0.0952148438 0.836455345
vt 0.943847656 0.722622514
vt 0.943847656 0.768731952
vt 0.956542969 0.768731952
vt 0.956542969 0.722622514
vt 0.0961914062 0.836455345
vt 0.0961914062 0.882564843
vt 0.111816406 0.882564843
vt 0.111816406 0.836455345
vt 0.112792969 0.836455345
vt 0.112792969 0.882564843
vt 0.128417969 0.882564843
vt 0.128417969 0.836455345
vt 0.129394531 0.836455345
vt 0.129394531 0.882564843
vt 0.145019531 0.882564843
vt 0.145019531 0.836455345
vt 0.254394531 0.836455345
vt 0.254394531 0.859510064
vt 0.285644531 0.859510064
vt 0.285644531 0.836455345
vt 0.286621094 0.836455345
vt 0.286621094 0.859510064
vt 0.317871094 0.859510064
vt 0.317871094 0.836455345
vt 0.333496094 0.836455345
vt 0.333496094 0.859510064
vt 0.349121094 0.859510064
vt 0.349121094 0.836455345
vt 0.611816406 0.836455345
vt 0.611816406 0.859510064
vt 0.627441406 0.859510064
vt 0.627441406 0.836455345
vt 0.628417969 0.836455345
vt 0.628417969 0.859510064
vt 0.644042969 0.859510064
vt 0.644042969 0.836455345
vt 0.645019531 0.836455345
vt 0.645019531 0.859510064
vt 0.660644531 0.859510064
vt 0.660644531 0.836455345
vt 0.661621094 0.836455345
vt 0.661621094 0.859510064
vt 0.677246094 0.859510064
vt 0.677246094 0.836455345
vt 0.678222656 0.836455345
vt 0.678222656 0.859510064
vt 0.693847656 0.859510064
vt 0.693847656 0.836455345
vt 0.694824219 0.836455345
vt 0.694824219 0.859510064
vt 0.710449219 0.859510064
vt 0.710449219 0.836455345
vt 0.711425781 0.836455345
vt 0.711425781 0.859510064
vt 0.727050781 0.859510064
vt 0.727050781 0.836455345
vt 0.757324219 0.836455345
vt 0.757324219 0.859510064
vt 0.772949219 0.859510064
vt 0.772949219 0.836455345
vt 0.773925781 0.836455345
vt 0.773925781 0.859510064
vt 0.789550781 0.859510064
vt 0.789550781 0.836455345
vt 0.864746094 0.840778112
vt 0.864746094 0.863832831
vt 0.880371094 0.863832831
vt 0.880371094 0.840778112
vt 0.00048828125 0.858069181
vt 0.00048828125 0.8811239
vt 0.0161132812 0.8811239
vt 0.0161132812 0.858069181
vt 0.0170898438 0.858069181
vt 0.0170898438 0.8811239
vt 0.0327148438 0.8811239
vt 0.0327148438 0.858069181
vt 0.0336914062 0.858069181
vt 0.0336914062 0.8811239
vt 0.0493164062 0.8811239
vt 0.0493164062 0.858069181
vt 0.0502929688 0.858069181
vt 0.0502929688 0.8811239
vt 0.0659179688 0.8811239
vt 0.0659179688 0.858069181
g luyijiushi_2-mesh_0
f 3/3/3 2/2/2 1/1/1
f 1/1/1 4/4/4 3/3/3
f 7/7/7 6/6/6 5/5/5
f 5/5/5 8/8/8 7/7/7
f 11/11/11 10/10/10 9/9/9
f 9/9/9 12/12/12 11/11/11
f 15/15/15 14/14/14 13/13/13
f 13/13/13 16/16/16 15/15/15
f 19/19/19 18/18/18 17/17/17
f 17/17/17 20/20/20 19/19/19
f 23/23/23 22/22/22 21/21/21
f 21/21/21 24/24/24 23/23/23
f 27/27/27 26/26/26 25/25/25
f 25/25/25 28/28/28 27/27/27
f 31/31/31 30/30/30 29/29/29
f 29/29/29 32/32/32 31/31/31
f 35/35/35 34/34/34 33/33/33
f 33/33/33 36/36/36 35/35/35
f 39/39/39 38/38/38 37/37/37
f 37/37/37 40/40/40 39/39/39
f 43/43/43 42/42/42 41/41/41
f 41/41/41 44/44/44 43/43/43
f 47/47/47 46/46/46 45/45/45
f 45/45/45 48/48/48 47/47/47
f 51/51/51 50/50/50 49/49/49
f 49/49/49 52/52/52 51/51/51
f 55/55/55 54/54/54 53/53/53
f 53/53/53 56/56/56 55/55/55
f 59/59/59 58/58/58 57/57/57
f 57/57/57 60/60/60 59/59/59
f 63/63/63 62/62/62 61/61/61
f 61/61/61 64/64/64 63/63/63
f 67/67/67 66/66/66 65/65/65
f 65/65/65 68/68/68 67/67/67
f 71/71/71 70/70/70 69/69/69
f 69/69/69 72/72/72 71/71/71
f 75/75/75 74/74/74 73/73/73
f 73/73/73 76/76/76 75/75/75
f 79/79/79 78/78/78 77/77/77
f 77/77/77 80/80/80 79/79/79
f 83/83/83 82/82/82 81/81/81
f 81/81/81 84/84/84 83/83/83
f 87/87/87 86/86/86 85/85/85
f 85/85/85 88/88/88 87/87/87
f 91/91/91 90/90/90 89/89/89
f 89/89/89 92/92/92 91/91/91
f 95/95/95 94/94/94 93/93/93
f 93/93/93 96/96/96 95/95/95
f 99/99/99 98/98/98 97/97/97
f 97/97/97 100/100/100 99/99/99
f 103/103/103 102/102/102 101/101/101
f 101/101/101 104/104/104 103/103/103
f 107/107/107 106/106/106 105/105/105
f 105/105/105 108/108/108 107/107/107
f 111/111/111 110/110/110 109/109/109
f 109/109/109 112/112/112 111/111/111
f 115/115/115 114/114/114 113/113/113
f 113/113/113 116/116/116 115/115/115
f 119/119/119 118/118/118 117/117/117
f 117/117/117 120/120/120 119/119/119
f 123/123/123 122/122/122 121/121/121
f 121/121/121 124/124/124 123/123/123
f 127/127/127 126/126/126 125/125/125
f 125/125/125 128/128/128 127/127/127
f 131/131/131 130/130/130 129/129/129
f 129/129/129 132/132/132 131/131/131
f 135/135/135 134/134/134 133/133/133
f 133/133/133 136/136/136 135/135/135
f 139/139/139 138/138/138 137/137/137
f 137/137/137 140/140/140 139/139/139
f 143/143/143 142/142/142 141/141/141
f 141/141/141 144/144/144 143/143/143
f 147/147/147 146/146/146 145/145/145
f 145/145/145 148/148/148 147/147/147
f 151/151/151 150/150/150 149/149/149
f 149/149/149 152/152/152 151/151/151
f 155/155/155 154/154/154 153/153/153
f 153/153/153 156/156/156 155/155/155
f 159/159/159 158/158/158 157/157/157
f 157/157/157 160/160/160 159/159/159
f 163/163/163 162/162/162 161/161/161
f 161/161/161 164/164/164 163/163/163
f 167/167/167 166/166/166 165/165/165
f 165/165/165 168/168/168 167/167/167
f 171/171/171 170/170/170 169/169/169
f 169/169/169 172/172/172 171/171/171
f 175/175/175 174/174/174 173/173/173
f 173/173/173 176/176/176 175/175/175
f 179/179/179 178/178/178 177/177/177
f 177/177/177 180/180/180 179/179/179
f 183/183/183 182/182/182 181/181/181
f 181/181/181 184/184/184 183/183/183
f 187/187/187 186/186/186 185/185/185
f 185/185/185 188/188/188 187/187/187
f 191/191/191 190/190/190 189/189/189
f 189/189/189 192/192/192 191/191/191
f 195/195/195 194/194/194 193/193/193
f 193/193/193 196/196/196 195/195/195
f 199/199/199 198/198/198 197/197/197
f 197/197/197 200/200/200 199/199/199
f 203/203/203 202/202/202 201/201/201
f 201/201/201 204/204/204 203/203/203
f 207/207/207 206/206/206 205/205/205
f 205/205/205 208/208/208 207/207/207
f 211/211/211 210/210/210 209/209/209
f 209/209/209 212/212/212 211/211/211
f 215/215/215 214/214/214 213/213/213
f 213/213/213 216/216/216 215/215/215
f 219/219/219 218/218/218 217/217/217
f 217/217/217 220/220/220 219/219/219
f 223/223/223 222/222/222 221/221/221
f 221/221/221 224/224/224 223/223/223
f 227/227/227 226/226/226 225/225/225
f 225/225/225 228/228/228 227/227/227
f 231/231/231 230/230/230 229/229/229
f 229/229/229 232/232/232 231/231/231
f 235/235/235 234/234/234 233/233/233
f 233/233/233 236/236/236 235/235/235
f 239/239/239 238/238/238 237/237/237
f 237/237/237 240/240/240 239/239/239
f 243/243/243 242/242/242 241/241/241
f 241/241/241 244/244/244 243/243/243
f 247/247/247 246/246/246 245/245/245
f 245/245/245 248/248/248 247/247/247
f 251/251/251 250/250/250 249/249/249
f 249/249/249 252/252/252 251/251/251
f 255/255/255 254/254/254 253/253/253
f 253/253/253 256/256/256 255/255/255
f 259/259/259 258/258/258 257/257/257
f 257/257/257 260/260/260 259/259/259
f 263/263/263 262/262/262 261/261/261
f 261/261/261 264/264/264 263/263/263
f 267/267/267 266/266/266 265/265/265
f 265/265/265 268/268/268 267/267/267
f 271/271/271 270/270/270 269/269/269
f 269/269/269 272/272/272 271/271/271
f 275/275/275 274/274/274 273/273/273
f 273/273/273 276/276/276 275/275/275
f 279/279/279 278/278/278 277/277/277
f 277/277/277 280/280/280 279/279/279
f 283/283/283 282/282/282 281/281/281
f 281/281/281 284/284/284 283/283/283
f 287/287/287 286/286/286 285/285/285
f 285/285/285 288/288/288 287/287/287
f 291/291/291 290/290/290 289/289/289
f 289/289/289 292/292/292 291/291/291
f 295/295/295 294/294/294 293/293/293
f 293/293/293 296/296/296 295/295/295
f 299/299/299 298/298/298 297/297/297
f 297/297/297 300/300/300 299/299/299
f 303/303/303 302/302/302 301/301/301
f 301/301/301 304/304/304 303/303/303
f 307/307/307 306/306/306 305/305/305
f 305/305/305 308/308/308 307/307/307
f 311/311/311 310/310/310 309/309/309
f 309/309/309 312/312/312 311/311/311
f 315/315/315 314/314/314 313/313/313
f 313/313/313 316/316/316 315/315/315
f 319/319/319 318/318/318 317/317/317
f 317/317/317 320/320/320 319/319/319
f 323/323/323 322/322/322 321/321/321
f 321/321/321 324/324/324 323/323/323
f 327/327/327 326/326/326 325/325/325
f 325/325/325 328/328/328 327/327/327
f 331/331/331 330/330/330 329/329/329
f 329/329/329 332/332/332 331/331/331
f 335/335/335 334/334/334 333/333/333
f 333/333/333 336/336/336 335/335/335
f 339/339/339 338/338/338 337/337/337
f 337/337/337 340/340/340 339/339/339
f 343/343/343 342/342/342 341/341/341
f 341/341/341 344/344/344 343/343/343
f 347/347/347 346/346/346 345/345/345
f 345/345/345 348/348/348 347/347/347
f 351/351/351 350/350/350 349/349/349
f 349/349/349 352/352/352 351/351/351
