g shentong-mesh
v -384 261 0
v -384 549 0
v -704 549 0
v -704 261 0
v -384 549 0
v -384 837 0
v -704 837 0
v -704 549 0
v -64 357 0
v -64 549 0
v -384 549 0
v -384 357 0
v -736 197 0
v -736 581 0
v -896 581 0
v -896 197 0
v -0 165 0
v -0 357 0
v -128 357 0
v -128 165 0
v -896 293 0
v -896 453 0
v -1023 453 0
v -1023 293 0
v -448 837 0
v -448 933 0
v -640 933 0
v -640 837 0
v -352 101 0
v -352 261 0
v -448 261 0
v -448 101 0
v -128 101 0
v -128 229 0
v -224 229 0
v -224 101 0
v -352 0 0
v -352 101 0
v -448 101 0
v -448 0 0
v -480 133 0
v -480 261 0
v -576 261 0
v -576 133 0
v -480 5 0
v -480 133 0
v -576 133 0
v -576 5 0
v -768 101 0
v -768 197 0
v -864 197 0
v -864 101 0
v -192 549 0
v -192 613 0
v -320 613 0
v -320 549 0
v -288 229 0
v -288 357 0
v -352 357 0
v -352 229 0
v -704 517 0
v -704 741 0
v -736 741 0
v -736 517 0
v -576 165 0
v -576 261 0
v -640 261 0
v -640 165 0
v -160 293 0
v -160 357 0
v -256 357 0
v -256 293 0
v -0 357 0
v -0 453 0
v -64 453 0
v -64 357 0
v -704 325 0
v -704 517 0
v -736 517 0
v -736 325 0
v -320 645 0
v -320 741 0
v -384 741 0
v -384 645 0
v -320 549 0
v -320 645 0
v -384 645 0
v -384 549 0
v -224 165 0
v -224 229 0
v -288 229 0
v -288 165 0
v -896 453 0
v -896 485 0
v -960 485 0
v -960 453 0
v -128 229 0
v -128 293 0
v -160 293 0
v -160 229 0
v -352 293 0
v -352 357 0
v -384 357 0
v -384 293 0
v -64 133 0
v -64 165 0
v -128 165 0
v -128 133 0
v -768 69 0
v -768 101 0
v -832 101 0
v -832 69 0
v -192 261 0
v -192 293 0
v -256 293 0
v -256 261 0
v -640 197 0
v -640 261 0
v -672 261 0
v -672 197 0
v -192 613 0
v -192 645 0
v -256 645 0
v -256 613 0
v -448 197 0
v -448 261 0
v -480 261 0
v -480 197 0
v -512 933 0
v -512 965 0
v -576 965 0
v -576 933 0
v -448 933 0
v -448 965 0
v -512 965 0
v -512 933 0
v -448 133 0
v -448 197 0
v -480 197 0
v -480 133 0
v -416 837 0
v -416 901 0
v -448 901 0
v -448 837 0
v -896 261 0
v -896 293 0
v -960 293 0
v -960 261 0
v -256 229 0
v -256 261 0
v -288 261 0
v -288 229 0
v -160 229 0
v -160 261 0
v -192 261 0
v -192 229 0
v -128 325 0
v -128 357 0
v -160 357 0
v -160 325 0
v -96 101 0
v -96 133 0
v -128 133 0
v -128 101 0
v -224 133 0
v -224 165 0
v -256 165 0
v -256 133 0
v -896 229 0
v -896 261 0
v -928 261 0
v -928 229 0
v -32 453 0
v -32 485 0
v -64 485 0
v -64 453 0
v -288 613 0
v -288 645 0
v -320 645 0
v -320 613 0
v -640 837 0
v -640 869 0
v -672 869 0
v -672 837 0
v -960 261 0
v -960 293 0
v -992 293 0
v -992 261 0
v -896 549 0
v -896 581 0
v -928 581 0
v -928 549 0
v -160 549 0
v -160 581 0
v -192 581 0
v -192 549 0
v -736 581 0
v -736 613 0
v -768 613 0
v -768 581 0
vt 0.0009765625 0.00161290169
vt 0.0009765625 0.466129005
vt 0.313476562 0.466129005
vt 0.313476562 0.00161290169
vt 0.315429688 0.00161290169
vt 0.315429688 0.466129005
vt 0.627929688 0.466129005
vt 0.627929688 0.00161290169
vt 0.629882812 0.00161290169
vt 0.629882812 0.311290324
vt 0.942382812 0.311290324
vt 0.942382812 0.00161290169
vt 0.629882812 0.314516127
vt 0.629882812 0.933870971
vt 0.786132812 0.933870971
vt 0.786132812 0.314516127
vt 0.788085938 0.314516127
vt 0.788085938 0.624193549
vt 0.913085938 0.624193549
vt 0.913085938 0.314516127
vt 0.0009765625 0.469354868
vt 0.0009765625 0.727419376
vt 0.125976562 0.727419376
vt 0.125976562 0.469354868
vt 0.127929688 0.469354868
vt 0.127929688 0.624193549
vt 0.315429688 0.624193549
vt 0.315429688 0.469354868
vt 0.317382812 0.469354868
vt 0.317382812 0.727419376
vt 0.411132812 0.727419376
vt 0.411132812 0.469354868
vt 0.413085938 0.469354868
vt 0.413085938 0.675806463
vt 0.506835938 0.675806463
vt 0.506835938 0.469354868
vt 0.508789062 0.469354868
vt 0.508789062 0.633870959
vt 0.602539062 0.633870959
vt 0.602539062 0.469354868
vt 0.127929688 0.627419353
vt 0.127929688 0.833870947
vt 0.221679688 0.833870947
vt 0.221679688 0.627419353
vt 0.788085938 0.627419353
vt 0.788085938 0.833870947
vt 0.881835938 0.833870947
vt 0.881835938 0.627419353
vt 0.883789062 0.627419353
vt 0.883789062 0.782258034
vt 0.977539062 0.782258034
vt 0.977539062 0.627419353
vt 0.413085938 0.679032266
vt 0.413085938 0.782258034
vt 0.538085938 0.782258034
vt 0.538085938 0.679032266
vt 0.223632812 0.627419353
vt 0.223632812 0.833870947
vt 0.286132812 0.833870947
vt 0.286132812 0.627419353
vt 0.540039062 0.637096763
vt 0.540039062 0.998387098
vt 0.571289062 0.998387098
vt 0.571289062 0.637096763
vt 0.0009765625 0.73064518
vt 0.0009765625 0.885483861
vt 0.0634765625 0.885483861
vt 0.0634765625 0.73064518
vt 0.317382812 0.73064518
vt 0.317382812 0.833870947
vt 0.411132812 0.833870947
vt 0.411132812 0.73064518
vt 0.413085938 0.785483837
vt 0.413085938 0.940322578
vt 0.475585938 0.940322578
vt 0.475585938 0.785483837
vt 0.573242188 0.637096763
vt 0.573242188 0.946774185
vt 0.604492188 0.946774185
vt 0.604492188 0.637096763
vt 0.883789062 0.785483837
vt 0.883789062 0.940322578
vt 0.946289062 0.940322578
vt 0.946289062 0.785483837
vt 0.127929688 0.83709681
vt 0.127929688 0.991935492
vt 0.190429688 0.991935492
vt 0.190429688 0.83709681
vt 0.192382812 0.83709681
vt 0.192382812 0.940322578
vt 0.254882812 0.940322578
vt 0.254882812 0.83709681
vt 0.256835938 0.83709681
vt 0.256835938 0.888709664
vt 0.319335938 0.888709664
vt 0.319335938 0.83709681
vt 0.0654296875 0.73064518
vt 0.0654296875 0.833870947
vt 0.0966796875 0.833870947
vt 0.0966796875 0.73064518
vt 0.477539062 0.785483837
vt 0.477539062 0.888709664
vt 0.508789062 0.888709664
vt 0.508789062 0.785483837
vt 0.321289062 0.83709681
vt 0.321289062 0.888709664
vt 0.383789062 0.888709664
vt 0.383789062 0.83709681
vt 0.788085938 0.83709681
vt 0.788085938 0.888709664
vt 0.850585938 0.888709664
vt 0.850585938 0.83709681
vt 0.0009765625 0.888709664
vt 0.0009765625 0.940322578
vt 0.0634765625 0.940322578
vt 0.0634765625 0.888709664
vt 0.948242188 0.785483837
vt 0.948242188 0.888709664
vt 0.979492188 0.888709664
vt 0.979492188 0.785483837
vt 0.256835938 0.891935468
vt 0.256835938 0.943548381
vt 0.319335938 0.943548381
vt 0.319335938 0.891935468
vt 0.0654296875 0.83709681
vt 0.0654296875 0.940322578
vt 0.0966796875 0.940322578
vt 0.0966796875 0.83709681
vt 0.321289062 0.891935468
vt 0.321289062 0.943548381
vt 0.383789062 0.943548381
vt 0.383789062 0.891935468
vt 0.788085938 0.891935468
vt 0.788085938 0.943548381
vt 0.850585938 0.943548381
vt 0.850585938 0.891935468
vt 0.477539062 0.891935468
vt 0.477539062 0.995161295
vt 0.508789062 0.995161295
vt 0.508789062 0.891935468
vt 0.948242188 0.891935468
vt 0.948242188 0.995161295
vt 0.979492188 0.995161295
vt 0.979492188 0.891935468
vt 0.629882812 0.937096775
vt 0.629882812 0.988709688
vt 0.692382812 0.988709688
vt 0.692382812 0.937096775
vt 0.694335938 0.937096775
vt 0.694335938 0.988709688
vt 0.725585938 0.988709688
vt 0.725585938 0.937096775
vt 0.727539062 0.937096775
vt 0.727539062 0.988709688
vt 0.758789062 0.988709688
vt 0.758789062 0.937096775
vt 0.0009765625 0.943548381
vt 0.0009765625 0.995161295
vt 0.0322265625 0.995161295
vt 0.0322265625 0.943548381
vt 0.0341796875 0.943548381
vt 0.0341796875 0.995161295
vt 0.0654296875 0.995161295
vt 0.0654296875 0.943548381
vt 0.0673828125 0.943548381
vt 0.0673828125 0.995161295
vt 0.0986328125 0.995161295
vt 0.0986328125 0.943548381
vt 0.192382812 0.943548381
vt 0.192382812 0.995161295
vt 0.223632812 0.995161295
vt 0.223632812 0.943548381
vt 0.413085938 0.943548381
vt 0.413085938 0.995161295
vt 0.444335938 0.995161295
vt 0.444335938 0.943548381
vt 0.883789062 0.943548381
vt 0.883789062 0.995161295
vt 0.915039062 0.995161295
vt 0.915039062 0.943548381
vt 0.256835938 0.946774185
vt 0.256835938 0.998387098
vt 0.288085938 0.998387098
vt 0.288085938 0.946774185
vt 0.290039062 0.946774185
vt 0.290039062 0.998387098
vt 0.321289062 0.998387098
vt 0.321289062 0.946774185
vt 0.323242188 0.946774185
vt 0.323242188 0.998387098
vt 0.354492188 0.998387098
vt 0.354492188 0.946774185
vt 0.356445312 0.946774185
vt 0.356445312 0.998387098
vt 0.387695312 0.998387098
vt 0.387695312 0.946774185
vt 0.788085938 0.946774185
vt 0.788085938 0.998387098
vt 0.819335938 0.998387098
vt 0.819335938 0.946774185
g shentong-mesh_0
f 3/3/3 2/2/2 1/1/1
f 1/1/1 4/4/4 3/3/3
f 7/7/7 6/6/6 5/5/5
f 5/5/5 8/8/8 7/7/7
f 11/11/11 10/10/10 9/9/9
f 9/9/9 12/12/12 11/11/11
f 15/15/15 14/14/14 13/13/13
f 13/13/13 16/16/16 15/15/15
f 19/19/19 18/18/18 17/17/17
f 17/17/17 20/20/20 19/19/19
f 23/23/23 22/22/22 21/21/21
f 21/21/21 24/24/24 23/23/23
f 27/27/27 26/26/26 25/25/25
f 25/25/25 28/28/28 27/27/27
f 31/31/31 30/30/30 29/29/29
f 29/29/29 32/32/32 31/31/31
f 35/35/35 34/34/34 33/33/33
f 33/33/33 36/36/36 35/35/35
f 39/39/39 38/38/38 37/37/37
f 37/37/37 40/40/40 39/39/39
f 43/43/43 42/42/42 41/41/41
f 41/41/41 44/44/44 43/43/43
f 47/47/47 46/46/46 45/45/45
f 45/45/45 48/48/48 47/47/47
f 51/51/51 50/50/50 49/49/49
f 49/49/49 52/52/52 51/51/51
f 55/55/55 54/54/54 53/53/53
f 53/53/53 56/56/56 55/55/55
f 59/59/59 58/58/58 57/57/57
f 57/57/57 60/60/60 59/59/59
f 63/63/63 62/62/62 61/61/61
f 61/61/61 64/64/64 63/63/63
f 67/67/67 66/66/66 65/65/65
f 65/65/65 68/68/68 67/67/67
f 71/71/71 70/70/70 69/69/69
f 69/69/69 72/72/72 71/71/71
f 75/75/75 74/74/74 73/73/73
f 73/73/73 76/76/76 75/75/75
f 79/79/79 78/78/78 77/77/77
f 77/77/77 80/80/80 79/79/79
f 83/83/83 82/82/82 81/81/81
f 81/81/81 84/84/84 83/83/83
f 87/87/87 86/86/86 85/85/85
f 85/85/85 88/88/88 87/87/87
f 91/91/91 90/90/90 89/89/89
f 89/89/89 92/92/92 91/91/91
f 95/95/95 94/94/94 93/93/93
f 93/93/93 96/96/96 95/95/95
f 99/99/99 98/98/98 97/97/97
f 97/97/97 100/100/100 99/99/99
f 103/103/103 102/102/102 101/101/101
f 101/101/101 104/104/104 103/103/103
f 107/107/107 106/106/106 105/105/105
f 105/105/105 108/108/108 107/107/107
f 111/111/111 110/110/110 109/109/109
f 109/109/109 112/112/112 111/111/111
f 115/115/115 114/114/114 113/113/113
f 113/113/113 116/116/116 115/115/115
f 119/119/119 118/118/118 117/117/117
f 117/117/117 120/120/120 119/119/119
f 123/123/123 122/122/122 121/121/121
f 121/121/121 124/124/124 123/123/123
f 127/127/127 126/126/126 125/125/125
f 125/125/125 128/128/128 127/127/127
f 131/131/131 130/130/130 129/129/129
f 129/129/129 132/132/132 131/131/131
f 135/135/135 134/134/134 133/133/133
f 133/133/133 136/136/136 135/135/135
f 139/139/139 138/138/138 137/137/137
f 137/137/137 140/140/140 139/139/139
f 143/143/143 142/142/142 141/141/141
f 141/141/141 144/144/144 143/143/143
f 147/147/147 146/146/146 145/145/145
f 145/145/145 148/148/148 147/147/147
f 151/151/151 150/150/150 149/149/149
f 149/149/149 152/152/152 151/151/151
f 155/155/155 154/154/154 153/153/153
f 153/153/153 156/156/156 155/155/155
f 159/159/159 158/158/158 157/157/157
f 157/157/157 160/160/160 159/159/159
f 163/163/163 162/162/162 161/161/161
f 161/161/161 164/164/164 163/163/163
f 167/167/167 166/166/166 165/165/165
f 165/165/165 168/168/168 167/167/167
f 171/171/171 170/170/170 169/169/169
f 169/169/169 172/172/172 171/171/171
f 175/175/175 174/174/174 173/173/173
f 173/173/173 176/176/176 175/175/175
f 179/179/179 178/178/178 177/177/177
f 177/177/177 180/180/180 179/179/179
f 183/183/183 182/182/182 181/181/181
f 181/181/181 184/184/184 183/183/183
f 187/187/187 186/186/186 185/185/185
f 185/185/185 188/188/188 187/187/187
f 191/191/191 190/190/190 189/189/189
f 189/189/189 192/192/192 191/191/191
f 195/195/195 194/194/194 193/193/193
f 193/193/193 196/196/196 195/195/195
f 199/199/199 198/198/198 197/197/197
f 197/197/197 200/200/200 199/199/199
