g jiluofu_2-mesh
v -480 205 0
v -480 1357 0
v -1088 1357 0
v -1088 205 0
v -1088 205 0
v -1088 1357 0
v -1664 1357 0
v -1664 205 0
v -1088 1389 0
v -1088 1709 0
v -1632 1709 0
v -1632 1389 0
v -544 1389 0
v -544 1709 0
v -1088 1709 0
v -1088 1389 0
v -1664 77 0
v -1664 589 0
v -1920 589 0
v -1920 77 0
v -1664 589 0
v -1664 1101 0
v -1920 1101 0
v -1920 589 0
v -960 1709 0
v -960 1965 0
v -1440 1965 0
v -1440 1709 0
v -64 653 0
v -64 941 0
v -480 941 0
v -480 653 0
v -64 397 0
v -64 653 0
v -480 653 0
v -480 397 0
v -864 77 0
v -864 205 0
v -1280 205 0
v -1280 77 0
v -1280 77 0
v -1280 205 0
v -1664 205 0
v -1664 77 0
v -1920 237 0
v -1920 525 0
v -2047 525 0
v -2047 237 0
v -1920 525 0
v -1920 813 0
v -2047 813 0
v -2047 525 0
v -256 237 0
v -256 397 0
v -480 397 0
v -480 237 0
v -1472 0 0
v -1472 77 0
v -1664 77 0
v -1664 0 0
v -1664 0 0
v -1664 77 0
v -1824 77 0
v -1824 0 0
v -800 1357 0
v -800 1389 0
v -1248 1389 0
v -1248 1357 0
v -1248 1357 0
v -1248 1389 0
v -1664 1389 0
v -1664 1357 0
v -1440 1709 0
v -1440 1837 0
v -1536 1837 0
v -1536 1709 0
v -384 941 0
v -384 1069 0
v -480 1069 0
v -480 941 0
v -384 1069 0
v -384 1197 0
v -480 1197 0
v -480 1069 0
v -736 141 0
v -736 205 0
v -864 205 0
v -864 141 0
v -0 493 0
v -0 621 0
v -64 621 0
v -64 493 0
v -480 1453 0
v -480 1581 0
v -544 1581 0
v -544 1453 0
v -320 1069 0
v -320 1165 0
v -384 1165 0
v -384 1069 0
v -1920 877 0
v -1920 941 0
v -2016 941 0
v -2016 877 0
v -1920 173 0
v -1920 237 0
v -2016 237 0
v -2016 173 0
v -1920 973 0
v -1920 1069 0
v -1984 1069 0
v -1984 973 0
v -992 13 0
v -992 77 0
v -1088 77 0
v -1088 13 0
v -1088 13 0
v -1088 77 0
v -1184 77 0
v -1184 13 0
v -0 397 0
v -0 493 0
v -64 493 0
v -64 397 0
v -480 1357 0
v -480 1453 0
v -544 1453 0
v -544 1357 0
v -992 1965 0
v -992 1997 0
v -1184 1997 0
v -1184 1965 0
v -1184 1965 0
v -1184 1997 0
v -1344 1997 0
v -1344 1965 0
v -544 1357 0
v -544 1389 0
v -672 1389 0
v -672 1357 0
v -416 1197 0
v -416 1261 0
v -480 1261 0
v -480 1197 0
v -1632 1485 0
v -1632 1613 0
v -1664 1613 0
v -1664 1485 0
v -1664 1101 0
v -1664 1133 0
v -1792 1133 0
v -1792 1101 0
v -1376 1965 0
v -1376 2029 0
v -1440 2029 0
v -1440 1965 0
v -96 941 0
v -96 973 0
v -224 973 0
v -224 941 0
v -544 1709 0
v -544 1741 0
v -640 1741 0
v -640 1709 0
v -32 813 0
v -32 909 0
v -64 909 0
v -64 813 0
v -672 1357 0
v -672 1389 0
v -768 1389 0
v -768 1357 0
v -1632 1389 0
v -1632 1485 0
v -1664 1485 0
v -1664 1389 0
v -1792 1101 0
v -1792 1133 0
v -1888 1133 0
v -1888 1101 0
v -224 941 0
v -224 973 0
v -320 973 0
v -320 941 0
v -192 269 0
v -192 333 0
v -224 333 0
v -224 269 0
v -672 173 0
v -672 205 0
v -736 205 0
v -736 173 0
v -1664 1133 0
v -1664 1197 0
v -1696 1197 0
v -1696 1133 0
v -448 1485 0
v -448 1549 0
v -480 1549 0
v -480 1485 0
v -768 1709 0
v -768 1741 0
v -832 1741 0
v -832 1709 0
v -1920 109 0
v -1920 173 0
v -1952 173 0
v -1952 109 0
v -1440 13 0
v -1440 77 0
v -1472 77 0
v -1472 13 0
v -1824 13 0
v -1824 77 0
v -1856 77 0
v -1856 13 0
v -1184 45 0
v -1184 77 0
v -1248 77 0
v -1248 45 0
v -800 109 0
v -800 141 0
v -864 141 0
v -864 109 0
v -928 45 0
v -928 77 0
v -992 77 0
v -992 45 0
v -224 301 0
v -224 365 0
v -256 365 0
v -256 301 0
v -224 237 0
v -224 301 0
v -256 301 0
v -256 237 0
v -928 1741 0
v -928 1805 0
v -960 1805 0
v -960 1741 0
v -640 1709 0
v -640 1741 0
v -704 1741 0
v -704 1709 0
v -32 365 0
v -32 397 0
v -96 397 0
v -96 365 0
v -96 365 0
v -96 397 0
v -160 397 0
v -160 365 0
v -32 749 0
v -32 813 0
v -64 813 0
v -64 749 0
v -1536 1709 0
v -1536 1741 0
v -1600 1741 0
v -1600 1709 0
v -512 1613 0
v -512 1677 0
v -544 1677 0
v -544 1613 0
v -1696 1133 0
v -1696 1165 0
v -1728 1165 0
v -1728 1133 0
v -32 621 0
v -32 653 0
v -64 653 0
v -64 621 0
v -352 1037 0
v -352 1069 0
v -384 1069 0
v -384 1037 0
v -1088 0 0
v -1088 13 0
v -1120 13 0
v -1120 0 0
v -1856 45 0
v -1856 77 0
v -1888 77 0
v -1888 45 0
v -448 205 0
v -448 237 0
v -480 237 0
v -480 205 0
v -1952 141 0
v -1952 173 0
v -1984 173 0
v -1984 141 0
v -352 1165 0
v -352 1197 0
v -384 1197 0
v -384 1165 0
v -928 1709 0
v -928 1741 0
v -960 1741 0
v -960 1709 0
v -1600 1709 0
v -1600 1741 0
v -1632 1741 0
v -1632 1709 0
v -448 1453 0
v -448 1485 0
v -480 1485 0
v -480 1453 0
v -512 1581 0
v -512 1613 0
v -544 1613 0
v -544 1581 0
v -448 1261 0
v -448 1293 0
v -480 1293 0
v -480 1261 0
v -1536 1741 0
v -1536 1773 0
v -1568 1773 0
v -1568 1741 0
v -1440 1837 0
v -1440 1869 0
v -1472 1869 0
v -1472 1837 0
vt 0.00048828125 0.000661373138
vt 0.00048828125 0.762566149
vt 0.297363281 0.762566149
vt 0.297363281 0.000661373138
vt 0.298339844 0.000661373138
vt 0.298339844 0.762566149
vt 0.579589844 0.762566149
vt 0.579589844 0.000661373138
vt 0.580566406 0.000661373138
vt 0.580566406 0.212301612
vt 0.846191406 0.212301612
vt 0.846191406 0.000661373138
vt 0.580566406 0.213624358
vt 0.580566406 0.425264537
vt 0.846191406 0.425264537
vt 0.846191406 0.213624358
vt 0.847167969 0.000661373138
vt 0.847167969 0.339285731
vt 0.972167969 0.339285731
vt 0.972167969 0.000661373138
vt 0.847167969 0.340608478
vt 0.847167969 0.679232836
vt 0.972167969 0.679232836
vt 0.972167969 0.340608478
vt 0.580566406 0.426587284
vt 0.580566406 0.595899463
vt 0.814941406 0.595899463
vt 0.814941406 0.426587284
vt 0.580566406 0.597222209
vt 0.580566406 0.787698388
vt 0.783691406 0.787698388
vt 0.783691406 0.597222209
vt 0.00048828125 0.763888896
vt 0.00048828125 0.933201075
vt 0.203613281 0.933201075
vt 0.203613281 0.763888896
vt 0.204589844 0.763888896
vt 0.204589844 0.848544955
vt 0.407714844 0.848544955
vt 0.407714844 0.763888896
vt 0.580566406 0.789021134
vt 0.580566406 0.873677254
vt 0.768066406 0.873677254
vt 0.768066406 0.789021134
vt 0.847167969 0.680555582
vt 0.847167969 0.871031761
vt 0.909667969 0.871031761
vt 0.909667969 0.680555582
vt 0.910644531 0.680555582
vt 0.910644531 0.871031761
vt 0.973144531 0.871031761
vt 0.973144531 0.680555582
vt 0.408691406 0.763888896
vt 0.408691406 0.869709015
vt 0.518066406 0.869709015
vt 0.518066406 0.763888896
vt 0.204589844 0.849867702
vt 0.204589844 0.901455045
vt 0.298339844 0.901455045
vt 0.298339844 0.849867702
vt 0.299316406 0.849867702
vt 0.299316406 0.901455045
vt 0.377441406 0.901455045
vt 0.377441406 0.849867702
vt 0.580566406 0.875
vt 0.580566406 0.896164
vt 0.799316406 0.896164
vt 0.799316406 0.875
vt 0.580566406 0.897486806
vt 0.580566406 0.918650806
vt 0.783691406 0.918650806
vt 0.783691406 0.897486806
vt 0.519042969 0.763888896
vt 0.519042969 0.848544955
vt 0.565917969 0.848544955
vt 0.565917969 0.763888896
vt 0.519042969 0.849867702
vt 0.519042969 0.934523821
vt 0.565917969 0.934523821
vt 0.565917969 0.849867702
vt 0.408691406 0.871031761
vt 0.408691406 0.955687821
vt 0.455566406 0.955687821
vt 0.455566406 0.871031761
vt 0.847167969 0.872354507
vt 0.847167969 0.914682508
vt 0.909667969 0.914682508
vt 0.909667969 0.872354507
vt 0.800292969 0.597222209
vt 0.800292969 0.681878328
vt 0.831542969 0.681878328
vt 0.831542969 0.597222209
vt 0.800292969 0.683201075
vt 0.800292969 0.767857134
vt 0.831542969 0.767857134
vt 0.831542969 0.683201075
vt 0.800292969 0.769179881
vt 0.800292969 0.83267194
vt 0.831542969 0.83267194
vt 0.831542969 0.769179881
vt 0.456542969 0.871031761
vt 0.456542969 0.913359761
vt 0.503417969 0.913359761
vt 0.503417969 0.871031761
vt 0.910644531 0.872354507
vt 0.910644531 0.914682508
vt 0.957519531 0.914682508
vt 0.957519531 0.872354507
vt 0.800292969 0.833994746
vt 0.800292969 0.897486806
vt 0.831542969 0.897486806
vt 0.831542969 0.833994746
vt 0.204589844 0.902777791
vt 0.204589844 0.945105791
vt 0.251464844 0.945105791
vt 0.251464844 0.902777791
vt 0.252441406 0.902777791
vt 0.252441406 0.945105791
vt 0.299316406 0.945105791
vt 0.299316406 0.902777791
vt 0.958496094 0.872354507
vt 0.958496094 0.935846567
vt 0.989746094 0.935846567
vt 0.989746094 0.872354507
vt 0.800292969 0.898809552
vt 0.800292969 0.962301612
vt 0.831542969 0.962301612
vt 0.831542969 0.898809552
vt 0.300292969 0.902777791
vt 0.300292969 0.923941791
vt 0.394042969 0.923941791
vt 0.394042969 0.902777791
vt 0.847167969 0.916005313
vt 0.847167969 0.937169313
vt 0.925292969 0.937169313
vt 0.925292969 0.916005313
vt 0.580566406 0.919973552
vt 0.580566406 0.941137552
vt 0.643066406 0.941137552
vt 0.643066406 0.919973552
vt 0.456542969 0.914682508
vt 0.456542969 0.957010567
vt 0.487792969 0.957010567
vt 0.487792969 0.914682508
vt 0.488769531 0.914682508
vt 0.488769531 0.999338627
vt 0.504394531 0.999338627
vt 0.504394531 0.914682508
vt 0.644042969 0.919973552
vt 0.644042969 0.941137552
vt 0.706542969 0.941137552
vt 0.706542969 0.919973552
vt 0.926269531 0.916005313
vt 0.926269531 0.958333313
vt 0.957519531 0.958333313
vt 0.957519531 0.916005313
vt 0.707519531 0.919973552
vt 0.707519531 0.941137552
vt 0.770019531 0.941137552
vt 0.770019531 0.919973552
vt 0.300292969 0.925264537
vt 0.300292969 0.946428597
vt 0.347167969 0.946428597
vt 0.347167969 0.925264537
vt 0.770996094 0.919973552
vt 0.770996094 0.983465612
vt 0.786621094 0.983465612
vt 0.786621094 0.919973552
vt 0.348144531 0.925264537
vt 0.348144531 0.946428597
vt 0.395019531 0.946428597
vt 0.395019531 0.925264537
vt 0.00048828125 0.934523821
vt 0.00048828125 0.998015881
vt 0.0161132812 0.998015881
vt 0.0161132812 0.934523821
vt 0.0170898438 0.934523821
vt 0.0170898438 0.955687821
vt 0.0639648438 0.955687821
vt 0.0639648438 0.934523821
vt 0.0649414062 0.934523821
vt 0.0649414062 0.955687821
vt 0.111816406 0.955687821
vt 0.111816406 0.934523821
vt 0.112792969 0.934523821
vt 0.112792969 0.976851881
vt 0.128417969 0.976851881
vt 0.128417969 0.934523821
vt 0.129394531 0.934523821
vt 0.129394531 0.955687821
vt 0.160644531 0.955687821
vt 0.160644531 0.934523821
vt 0.161621094 0.934523821
vt 0.161621094 0.976851881
vt 0.177246094 0.976851881
vt 0.177246094 0.934523821
vt 0.178222656 0.934523821
vt 0.178222656 0.976851881
vt 0.193847656 0.976851881
vt 0.193847656 0.934523821
vt 0.519042969 0.935846567
vt 0.519042969 0.957010567
vt 0.550292969 0.957010567
vt 0.550292969 0.935846567
vt 0.551269531 0.935846567
vt 0.551269531 0.978174627
vt 0.566894531 0.978174627
vt 0.566894531 0.935846567
vt 0.958496094 0.937169313
vt 0.958496094 0.979497373
vt 0.974121094 0.979497373
vt 0.974121094 0.937169313
vt 0.975097656 0.937169313
vt 0.975097656 0.979497373
vt 0.990722656 0.979497373
vt 0.990722656 0.937169313
vt 0.847167969 0.93849206
vt 0.847167969 0.95965606
vt 0.878417969 0.95965606
vt 0.878417969 0.93849206
vt 0.879394531 0.93849206
vt 0.879394531 0.95965606
vt 0.910644531 0.95965606
vt 0.910644531 0.93849206
vt 0.580566406 0.942460299
vt 0.580566406 0.963624358
vt 0.611816406 0.963624358
vt 0.611816406 0.942460299
vt 0.612792969 0.942460299
vt 0.612792969 0.984788358
vt 0.628417969 0.984788358
vt 0.628417969 0.942460299
vt 0.629394531 0.942460299
vt 0.629394531 0.984788358
vt 0.645019531 0.984788358
vt 0.645019531 0.942460299
vt 0.645996094 0.942460299
vt 0.645996094 0.984788358
vt 0.661621094 0.984788358
vt 0.661621094 0.942460299
vt 0.662597656 0.942460299
vt 0.662597656 0.963624358
vt 0.693847656 0.963624358
vt 0.693847656 0.942460299
vt 0.694824219 0.942460299
vt 0.694824219 0.963624358
vt 0.726074219 0.963624358
vt 0.726074219 0.942460299
vt 0.727050781 0.942460299
vt 0.727050781 0.963624358
vt 0.758300781 0.963624358
vt 0.758300781 0.942460299
vt 0.204589844 0.946428597
vt 0.204589844 0.988756597
vt 0.220214844 0.988756597
vt 0.220214844 0.946428597
vt 0.221191406 0.946428597
vt 0.221191406 0.967592597
vt 0.252441406 0.967592597
vt 0.252441406 0.946428597
vt 0.253417969 0.946428597
vt 0.253417969 0.988756597
vt 0.269042969 0.988756597
vt 0.269042969 0.946428597
vt 0.270019531 0.946428597
vt 0.270019531 0.967592597
vt 0.285644531 0.967592597
vt 0.285644531 0.946428597
vt 0.300292969 0.947751343
vt 0.300292969 0.968915343
vt 0.315917969 0.968915343
vt 0.315917969 0.947751343
vt 0.316894531 0.947751343
vt 0.316894531 0.968915343
vt 0.332519531 0.968915343
vt 0.332519531 0.947751343
vt 0.333496094 0.947751343
vt 0.333496094 0.957010567
vt 0.349121094 0.957010567
vt 0.349121094 0.947751343
vt 0.350097656 0.947751343
vt 0.350097656 0.968915343
vt 0.365722656 0.968915343
vt 0.365722656 0.947751343
vt 0.366699219 0.947751343
vt 0.366699219 0.968915343
vt 0.382324219 0.968915343
vt 0.382324219 0.947751343
vt 0.383300781 0.947751343
vt 0.383300781 0.968915343
vt 0.398925781 0.968915343
vt 0.398925781 0.947751343
vt 0.0170898438 0.957010567
vt 0.0170898438 0.978174627
vt 0.0327148438 0.978174627
vt 0.0327148438 0.957010567
vt 0.0336914062 0.957010567
vt 0.0336914062 0.978174627
vt 0.0493164062 0.978174627
vt 0.0493164062 0.957010567
vt 0.0502929688 0.957010567
vt 0.0502929688 0.978174627
vt 0.0659179688 0.978174627
vt 0.0659179688 0.957010567
vt 0.0668945312 0.957010567
vt 0.0668945312 0.978174627
vt 0.0825195312 0.978174627
vt 0.0825195312 0.957010567
vt 0.0834960938 0.957010567
vt 0.0834960938 0.978174627
vt 0.0991210938 0.978174627
vt 0.0991210938 0.957010567
vt 0.129394531 0.957010567
vt 0.129394531 0.978174627
vt 0.145019531 0.978174627
vt 0.145019531 0.957010567
vt 0.408691406 0.957010567
vt 0.408691406 0.978174627
vt 0.424316406 0.978174627
vt 0.424316406 0.957010567
vt 0.425292969 0.957010567
vt 0.425292969 0.978174627
vt 0.440917969 0.978174627
vt 0.440917969 0.957010567
g jiluofu_2-mesh_0
f 3/3/3 2/2/2 1/1/1
f 1/1/1 4/4/4 3/3/3
f 7/7/7 6/6/6 5/5/5
f 5/5/5 8/8/8 7/7/7
f 11/11/11 10/10/10 9/9/9
f 9/9/9 12/12/12 11/11/11
f 15/15/15 14/14/14 13/13/13
f 13/13/13 16/16/16 15/15/15
f 19/19/19 18/18/18 17/17/17
f 17/17/17 20/20/20 19/19/19
f 23/23/23 22/22/22 21/21/21
f 21/21/21 24/24/24 23/23/23
f 27/27/27 26/26/26 25/25/25
f 25/25/25 28/28/28 27/27/27
f 31/31/31 30/30/30 29/29/29
f 29/29/29 32/32/32 31/31/31
f 35/35/35 34/34/34 33/33/33
f 33/33/33 36/36/36 35/35/35
f 39/39/39 38/38/38 37/37/37
f 37/37/37 40/40/40 39/39/39
f 43/43/43 42/42/42 41/41/41
f 41/41/41 44/44/44 43/43/43
f 47/47/47 46/46/46 45/45/45
f 45/45/45 48/48/48 47/47/47
f 51/51/51 50/50/50 49/49/49
f 49/49/49 52/52/52 51/51/51
f 55/55/55 54/54/54 53/53/53
f 53/53/53 56/56/56 55/55/55
f 59/59/59 58/58/58 57/57/57
f 57/57/57 60/60/60 59/59/59
f 63/63/63 62/62/62 61/61/61
f 61/61/61 64/64/64 63/63/63
f 67/67/67 66/66/66 65/65/65
f 65/65/65 68/68/68 67/67/67
f 71/71/71 70/70/70 69/69/69
f 69/69/69 72/72/72 71/71/71
f 75/75/75 74/74/74 73/73/73
f 73/73/73 76/76/76 75/75/75
f 79/79/79 78/78/78 77/77/77
f 77/77/77 80/80/80 79/79/79
f 83/83/83 82/82/82 81/81/81
f 81/81/81 84/84/84 83/83/83
f 87/87/87 86/86/86 85/85/85
f 85/85/85 88/88/88 87/87/87
f 91/91/91 90/90/90 89/89/89
f 89/89/89 92/92/92 91/91/91
f 95/95/95 94/94/94 93/93/93
f 93/93/93 96/96/96 95/95/95
f 99/99/99 98/98/98 97/97/97
f 97/97/97 100/100/100 99/99/99
f 103/103/103 102/102/102 101/101/101
f 101/101/101 104/104/104 103/103/103
f 107/107/107 106/106/106 105/105/105
f 105/105/105 108/108/108 107/107/107
f 111/111/111 110/110/110 109/109/109
f 109/109/109 112/112/112 111/111/111
f 115/115/115 114/114/114 113/113/113
f 113/113/113 116/116/116 115/115/115
f 119/119/119 118/118/118 117/117/117
f 117/117/117 120/120/120 119/119/119
f 123/123/123 122/122/122 121/121/121
f 121/121/121 124/124/124 123/123/123
f 127/127/127 126/126/126 125/125/125
f 125/125/125 128/128/128 127/127/127
f 131/131/131 130/130/130 129/129/129
f 129/129/129 132/132/132 131/131/131
f 135/135/135 134/134/134 133/133/133
f 133/133/133 136/136/136 135/135/135
f 139/139/139 138/138/138 137/137/137
f 137/137/137 140/140/140 139/139/139
f 143/143/143 142/142/142 141/141/141
f 141/141/141 144/144/144 143/143/143
f 147/147/147 146/146/146 145/145/145
f 145/145/145 148/148/148 147/147/147
f 151/151/151 150/150/150 149/149/149
f 149/149/149 152/152/152 151/151/151
f 155/155/155 154/154/154 153/153/153
f 153/153/153 156/156/156 155/155/155
f 159/159/159 158/158/158 157/157/157
f 157/157/157 160/160/160 159/159/159
f 163/163/163 162/162/162 161/161/161
f 161/161/161 164/164/164 163/163/163
f 167/167/167 166/166/166 165/165/165
f 165/165/165 168/168/168 167/167/167
f 171/171/171 170/170/170 169/169/169
f 169/169/169 172/172/172 171/171/171
f 175/175/175 174/174/174 173/173/173
f 173/173/173 176/176/176 175/175/175
f 179/179/179 178/178/178 177/177/177
f 177/177/177 180/180/180 179/179/179
f 183/183/183 182/182/182 181/181/181
f 181/181/181 184/184/184 183/183/183
f 187/187/187 186/186/186 185/185/185
f 185/185/185 188/188/188 187/187/187
f 191/191/191 190/190/190 189/189/189
f 189/189/189 192/192/192 191/191/191
f 195/195/195 194/194/194 193/193/193
f 193/193/193 196/196/196 195/195/195
f 199/199/199 198/198/198 197/197/197
f 197/197/197 200/200/200 199/199/199
f 203/203/203 202/202/202 201/201/201
f 201/201/201 204/204/204 203/203/203
f 207/207/207 206/206/206 205/205/205
f 205/205/205 208/208/208 207/207/207
f 211/211/211 210/210/210 209/209/209
f 209/209/209 212/212/212 211/211/211
f 215/215/215 214/214/214 213/213/213
f 213/213/213 216/216/216 215/215/215
f 219/219/219 218/218/218 217/217/217
f 217/217/217 220/220/220 219/219/219
f 223/223/223 222/222/222 221/221/221
f 221/221/221 224/224/224 223/223/223
f 227/227/227 226/226/226 225/225/225
f 225/225/225 228/228/228 227/227/227
f 231/231/231 230/230/230 229/229/229
f 229/229/229 232/232/232 231/231/231
f 235/235/235 234/234/234 233/233/233
f 233/233/233 236/236/236 235/235/235
f 239/239/239 238/238/238 237/237/237
f 237/237/237 240/240/240 239/239/239
f 243/243/243 242/242/242 241/241/241
f 241/241/241 244/244/244 243/243/243
f 247/247/247 246/246/246 245/245/245
f 245/245/245 248/248/248 247/247/247
f 251/251/251 250/250/250 249/249/249
f 249/249/249 252/252/252 251/251/251
f 255/255/255 254/254/254 253/253/253
f 253/253/253 256/256/256 255/255/255
f 259/259/259 258/258/258 257/257/257
f 257/257/257 260/260/260 259/259/259
f 263/263/263 262/262/262 261/261/261
f 261/261/261 264/264/264 263/263/263
f 267/267/267 266/266/266 265/265/265
f 265/265/265 268/268/268 267/267/267
f 271/271/271 270/270/270 269/269/269
f 269/269/269 272/272/272 271/271/271
f 275/275/275 274/274/274 273/273/273
f 273/273/273 276/276/276 275/275/275
f 279/279/279 278/278/278 277/277/277
f 277/277/277 280/280/280 279/279/279
f 283/283/283 282/282/282 281/281/281
f 281/281/281 284/284/284 283/283/283
f 287/287/287 286/286/286 285/285/285
f 285/285/285 288/288/288 287/287/287
f 291/291/291 290/290/290 289/289/289
f 289/289/289 292/292/292 291/291/291
f 295/295/295 294/294/294 293/293/293
f 293/293/293 296/296/296 295/295/295
f 299/299/299 298/298/298 297/297/297
f 297/297/297 300/300/300 299/299/299
f 303/303/303 302/302/302 301/301/301
f 301/301/301 304/304/304 303/303/303
f 307/307/307 306/306/306 305/305/305
f 305/305/305 308/308/308 307/307/307
f 311/311/311 310/310/310 309/309/309
f 309/309/309 312/312/312 311/311/311
f 315/315/315 314/314/314 313/313/313
f 313/313/313 316/316/316 315/315/315
f 319/319/319 318/318/318 317/317/317
f 317/317/317 320/320/320 319/319/319
f 323/323/323 322/322/322 321/321/321
f 321/321/321 324/324/324 323/323/323
