g tuzuo_2-mesh
v -416 415 0
v -416 1119 0
v -1472 1119 0
v -1472 415 0
v -416 1119 0
v -416 1823 0
v -1472 1823 0
v -1472 1119 0
v -1472 1247 0
v -1472 1567 0
v -1888 1567 0
v -1888 1247 0
v -1472 927 0
v -1472 1247 0
v -1856 1247 0
v -1856 927 0
v -1472 639 0
v -1472 927 0
v -1856 927 0
v -1856 639 0
v -960 1823 0
v -960 2015 0
v -1248 2015 0
v -1248 1823 0
v -672 1823 0
v -672 2015 0
v -960 2015 0
v -960 1823 0
v -608 0 0
v -608 191 0
v -864 191 0
v -864 0 0
v -256 799 0
v -256 1087 0
v -416 1087 0
v -416 799 0
v -256 511 0
v -256 799 0
v -416 799 0
v -416 511 0
v -1088 255 0
v -1088 383 0
v -1440 383 0
v -1440 255 0
v -736 255 0
v -736 383 0
v -1088 383 0
v -1088 255 0
v -1664 1567 0
v -1664 1759 0
v -1856 1759 0
v -1856 1567 0
v -288 223 0
v -288 351 0
v -544 351 0
v -544 223 0
v -256 1151 0
v -256 1343 0
v -416 1343 0
v -416 1151 0
v -1504 447 0
v -1504 639 0
v -1632 639 0
v -1632 447 0
v -32 223 0
v -32 319 0
v -224 319 0
v -224 223 0
v -480 1823 0
v -480 1919 0
v -672 1919 0
v -672 1823 0
v -1216 159 0
v -1216 255 0
v -1408 255 0
v -1408 159 0
v -1856 927 0
v -1856 1183 0
v -1920 1183 0
v -1920 927 0
v -1408 159 0
v -1408 255 0
v -1568 255 0
v -1568 159 0
v -1856 703 0
v -1856 927 0
v -1920 927 0
v -1920 703 0
v -672 383 0
v -672 415 0
v -1088 415 0
v -1088 383 0
v -896 95 0
v -896 191 0
v -1024 191 0
v -1024 95 0
v -288 1695 0
v -288 1791 0
v -416 1791 0
v -416 1695 0
v -1248 1823 0
v -1248 1919 0
v -1376 1919 0
v -1376 1823 0
v -160 831 0
v -160 959 0
v -256 959 0
v -256 831 0
v -1088 383 0
v -1088 415 0
v -1472 415 0
v -1472 383 0
v -160 703 0
v -160 831 0
v -256 831 0
v -256 703 0
v -1408 63 0
v -1408 159 0
v -1536 159 0
v -1536 63 0
v -704 191 0
v -704 255 0
v -896 255 0
v -896 191 0
v -896 191 0
v -896 255 0
v -1056 255 0
v -1056 191 0
v -1472 1887 0
v -1472 1951 0
v -1600 1951 0
v -1600 1887 0
v -1472 1759 0
v -1472 1887 0
v -1536 1887 0
v -1536 1759 0
v -1472 1567 0
v -1472 1695 0
v -1536 1695 0
v -1536 1567 0
v -1856 1567 0
v -1856 1695 0
v -1920 1695 0
v -1920 1567 0
v -448 351 0
v -448 415 0
v -576 415 0
v -576 351 0
v -576 1919 0
v -576 1983 0
v -672 1983 0
v -672 1919 0
v -1536 351 0
v -1536 447 0
v -1600 447 0
v -1600 351 0
v -320 1087 0
v -320 1151 0
v -416 1151 0
v -416 1087 0
v -256 415 0
v -256 479 0
v -352 479 0
v -352 415 0
v -1632 543 0
v -1632 639 0
v -1696 639 0
v -1696 543 0
v -1920 991 0
v -1920 1087 0
v -1984 1087 0
v -1984 991 0
v -1920 1087 0
v -1920 1183 0
v -1984 1183 0
v -1984 1087 0
v -736 2015 0
v -736 2047 0
v -896 2047 0
v -896 2015 0
v -384 1471 0
v -384 1631 0
v -416 1631 0
v -416 1471 0
v -896 2015 0
v -896 2047 0
v -1056 2047 0
v -1056 2015 0
v -192 511 0
v -192 575 0
v -256 575 0
v -256 511 0
v -1696 575 0
v -1696 639 0
v -1760 639 0
v -1760 575 0
v -224 223 0
v -224 287 0
v -288 287 0
v -288 223 0
v -1408 1855 0
v -1408 1919 0
v -1472 1919 0
v -1472 1855 0
v -384 191 0
v -384 223 0
v -512 223 0
v -512 191 0
v -352 415 0
v -352 479 0
v -416 479 0
v -416 415 0
v -384 1343 0
v -384 1471 0
v -416 1471 0
v -416 1343 0
v -1472 511 0
v -1472 639 0
v -1504 639 0
v -1504 511 0
v -1632 479 0
v -1632 543 0
v -1696 543 0
v -1696 479 0
v -128 191 0
v -128 223 0
v -256 223 0
v -256 191 0
v -512 191 0
v -512 223 0
v -608 223 0
v -608 191 0
v -128 799 0
v -128 895 0
v -160 895 0
v -160 799 0
v -1472 415 0
v -1472 511 0
v -1504 511 0
v -1504 415 0
v -256 191 0
v -256 223 0
v -352 223 0
v -352 191 0
v -1888 1407 0
v -1888 1503 0
v -1920 1503 0
v -1920 1407 0
v -224 959 0
v -224 1023 0
v -256 1023 0
v -256 959 0
v -2016 1055 0
v -2016 1119 0
v -2023 1119 0
v -2023 1055 0
v -1920 927 0
v -1920 991 0
v -1952 991 0
v -1952 927 0
v -128 639 0
v -128 703 0
v -160 703 0
v -160 639 0
v -1920 1631 0
v -1920 1695 0
v -1952 1695 0
v -1952 1631 0
v -352 1663 0
v -352 1695 0
v -416 1695 0
v -416 1663 0
v -352 1791 0
v -352 1823 0
v -416 1823 0
v -416 1791 0
v -1536 1791 0
v -1536 1855 0
v -1568 1855 0
v -1568 1791 0
v -192 1215 0
v -192 1279 0
v -224 1279 0
v -224 1215 0
v -1920 1439 0
v -1920 1503 0
v -1952 1503 0
v -1952 1439 0
v -1792 607 0
v -1792 639 0
v -1856 639 0
v -1856 607 0
v -1184 191 0
v -1184 255 0
v -1216 255 0
v -1216 191 0
v -1056 223 0
v -1056 255 0
v -1120 255 0
v -1120 223 0
v -576 95 0
v -576 159 0
v -608 159 0
v -608 95 0
v -1536 95 0
v -1536 159 0
v -1568 159 0
v -1568 95 0
v -896 31 0
v -896 95 0
v -928 95 0
v -928 31 0
v -1600 383 0
v -1600 447 0
v -1632 447 0
v -1632 383 0
v -192 415 0
v -192 447 0
v -256 447 0
v -256 415 0
v -0 255 0
v -0 319 0
v -32 319 0
v -32 255 0
v -1440 255 0
v -1440 319 0
v -1472 319 0
v -1472 255 0
v -704 255 0
v -704 319 0
v -736 319 0
v -736 255 0
v -1376 1823 0
v -1376 1887 0
v -1408 1887 0
v -1408 1823 0
v -864 95 0
v -864 159 0
v -896 159 0
v -896 95 0
v -1984 991 0
v -1984 1055 0
v -2016 1055 0
v -2016 991 0
v -864 31 0
v -864 95 0
v -896 95 0
v -896 31 0
v -1632 1599 0
v -1632 1663 0
v -1664 1663 0
v -1664 1599 0
v -384 1823 0
v -384 1855 0
v -448 1855 0
v -448 1823 0
v -128 735 0
v -128 799 0
v -160 799 0
v -160 735 0
v -1888 1343 0
v -1888 1407 0
v -1920 1407 0
v -1920 1343 0
v -224 1247 0
v -224 1311 0
v -256 1311 0
v -256 1247 0
v -1984 1055 0
v -1984 1119 0
v -2016 1119 0
v -2016 1055 0
v -224 1183 0
v -224 1247 0
v -256 1247 0
v -256 1183 0
v -224 639 0
v -224 703 0
v -256 703 0
v -256 639 0
v -224 383 0
v -224 415 0
v -288 415 0
v -288 383 0
v -352 1375 0
v -352 1439 0
v -384 1439 0
v -384 1375 0
v -320 479 0
v -320 511 0
v -384 511 0
v -384 479 0
v -1248 1919 0
v -1248 1951 0
v -1312 1951 0
v -1312 1919 0
v -576 383 0
v -576 415 0
v -608 415 0
v -608 383 0
v -1696 543 0
v -1696 575 0
v -1728 575 0
v -1728 543 0
v -160 639 0
v -160 671 0
v -192 671 0
v -192 639 0
v -288 1119 0
v -288 1151 0
v -320 1151 0
v -320 1119 0
v -1888 1535 0
v -1888 1567 0
v -1920 1567 0
v -1920 1535 0
v -192 959 0
v -192 991 0
v -224 991 0
v -224 959 0
v -128 991 0
v -128 1023 0
v -160 1023 0
v -160 991 0
v -672 191 0
v -672 223 0
v -704 223 0
v -704 191 0
v -1472 255 0
v -1472 287 0
v -1504 287 0
v -1504 255 0
v -544 223 0
v -544 255 0
v -576 255 0
v -576 223 0
v -1376 127 0
v -1376 159 0
v -1408 159 0
v -1408 127 0
v -704 351 0
v -704 383 0
v -736 383 0
v -736 351 0
v -1184 0 0
v -1184 31 0
v -1216 31 0
v -1216 0 0
v -928 63 0
v -928 95 0
v -960 95 0
v -960 63 0
v -1632 1567 0
v -1632 1599 0
v -1664 1599 0
v -1664 1567 0
v -448 1823 0
v -448 1855 0
v -480 1855 0
v -480 1823 0
v -1504 1951 0
v -1504 1983 0
v -1536 1983 0
v -1536 1951 0
v -352 1343 0
v -352 1375 0
v -384 1375 0
v -384 1343 0
v -288 383 0
v -288 415 0
v -320 415 0
v -320 383 0
v -384 479 0
v -384 511 0
v -416 511 0
v -416 479 0
v -224 607 0
v -224 639 0
v -256 639 0
v -256 607 0
v -1472 1727 0
v -1472 1759 0
v -1504 1759 0
v -1504 1727 0
v -1856 1695 0
v -1856 1727 0
v -1888 1727 0
v -1888 1695 0
v -1600 1567 0
v -1600 1599 0
v -1632 1599 0
v -1632 1567 0
v -1408 1823 0
v -1408 1855 0
v -1440 1855 0
v -1440 1823 0
v -544 1919 0
v -544 1951 0
v -576 1951 0
v -576 1919 0
v -448 1855 0
v -448 1887 0
v -480 1887 0
v -480 1855 0
v -1568 1855 0
v -1568 1887 0
v -1600 1887 0
v -1600 1855 0
vt 0.00048828125 0.000661373138
vt 0.00048828125 0.466269851
vt 0.516113281 0.466269851
vt 0.516113281 0.000661373138
vt 0.00048828125 0.467592597
vt 0.00048828125 0.933201075
vt 0.516113281 0.933201075
vt 0.516113281 0.467592597
vt 0.517089844 0.000661373138
vt 0.517089844 0.212301612
vt 0.720214844 0.212301612
vt 0.720214844 0.000661373138
vt 0.721191406 0.000661373138
vt 0.721191406 0.212301612
vt 0.908691406 0.212301612
vt 0.908691406 0.000661373138
vt 0.517089844 0.213624358
vt 0.517089844 0.404100537
vt 0.704589844 0.404100537
vt 0.704589844 0.213624358
vt 0.705566406 0.213624358
vt 0.705566406 0.340608478
vt 0.846191406 0.340608478
vt 0.846191406 0.213624358
vt 0.847167969 0.213624358
vt 0.847167969 0.340608478
vt 0.987792969 0.340608478
vt 0.987792969 0.213624358
vt 0.705566406 0.341931224
vt 0.705566406 0.468915343
vt 0.830566406 0.468915343
vt 0.830566406 0.341931224
vt 0.831542969 0.341931224
vt 0.831542969 0.532407403
vt 0.909667969 0.532407403
vt 0.909667969 0.341931224
vt 0.910644531 0.341931224
vt 0.910644531 0.532407403
vt 0.988769531 0.532407403
vt 0.988769531 0.341931224
vt 0.517089844 0.405423284
vt 0.517089844 0.490079343
vt 0.688964844 0.490079343
vt 0.688964844 0.405423284
vt 0.517089844 0.49140209
vt 0.517089844 0.576058209
vt 0.688964844 0.576058209
vt 0.688964844 0.49140209
vt 0.705566406 0.47023809
vt 0.705566406 0.597222209
vt 0.799316406 0.597222209
vt 0.799316406 0.47023809
vt 0.831542969 0.533730149
vt 0.831542969 0.618386269
vt 0.956542969 0.618386269
vt 0.956542969 0.533730149
vt 0.517089844 0.577380955
vt 0.517089844 0.704365075
vt 0.595214844 0.704365075
vt 0.595214844 0.577380955
vt 0.596191406 0.577380955
vt 0.596191406 0.704365075
vt 0.658691406 0.704365075
vt 0.658691406 0.577380955
vt 0.705566406 0.598544955
vt 0.705566406 0.662037015
vt 0.799316406 0.662037015
vt 0.799316406 0.598544955
vt 0.831542969 0.619709015
vt 0.831542969 0.683201075
vt 0.925292969 0.683201075
vt 0.925292969 0.619709015
vt 0.705566406 0.663359761
vt 0.705566406 0.726851821
vt 0.799316406 0.726851821
vt 0.799316406 0.663359761
vt 0.957519531 0.533730149
vt 0.957519531 0.703042328
vt 0.988769531 0.703042328
vt 0.988769531 0.533730149
vt 0.831542969 0.684523821
vt 0.831542969 0.748015881
vt 0.909667969 0.748015881
vt 0.909667969 0.684523821
vt 0.659667969 0.577380955
vt 0.659667969 0.725529075
vt 0.690917969 0.725529075
vt 0.690917969 0.577380955
vt 0.00048828125 0.934523821
vt 0.00048828125 0.955687821
vt 0.203613281 0.955687821
vt 0.203613281 0.934523821
vt 0.517089844 0.705687821
vt 0.517089844 0.769179881
vt 0.579589844 0.769179881
vt 0.579589844 0.705687821
vt 0.580566406 0.705687821
vt 0.580566406 0.769179881
vt 0.643066406 0.769179881
vt 0.643066406 0.705687821
vt 0.705566406 0.728174567
vt 0.705566406 0.791666687
vt 0.768066406 0.791666687
vt 0.768066406 0.728174567
vt 0.769042969 0.728174567
vt 0.769042969 0.812830687
vt 0.815917969 0.812830687
vt 0.815917969 0.728174567
vt 0.517089844 0.770502627
vt 0.517089844 0.791666687
vt 0.704589844 0.791666687
vt 0.704589844 0.770502627
vt 0.831542969 0.749338627
vt 0.831542969 0.833994746
vt 0.878417969 0.833994746
vt 0.878417969 0.749338627
vt 0.879394531 0.749338627
vt 0.879394531 0.812830687
vt 0.941894531 0.812830687
vt 0.941894531 0.749338627
vt 0.517089844 0.792989433
vt 0.517089844 0.835317492
vt 0.610839844 0.835317492
vt 0.610839844 0.792989433
vt 0.611816406 0.792989433
vt 0.611816406 0.835317492
vt 0.689941406 0.835317492
vt 0.689941406 0.792989433
vt 0.690917969 0.792989433
vt 0.690917969 0.835317492
vt 0.753417969 0.835317492
vt 0.753417969 0.792989433
vt 0.957519531 0.704365075
vt 0.957519531 0.789021134
vt 0.988769531 0.789021134
vt 0.988769531 0.704365075
vt 0.957519531 0.790343881
vt 0.957519531 0.875
vt 0.988769531 0.875
vt 0.988769531 0.790343881
vt 0.769042969 0.814153433
vt 0.769042969 0.898809552
vt 0.800292969 0.898809552
vt 0.800292969 0.814153433
vt 0.879394531 0.814153433
vt 0.879394531 0.856481493
vt 0.941894531 0.856481493
vt 0.941894531 0.814153433
vt 0.831542969 0.835317492
vt 0.831542969 0.877645493
vt 0.878417969 0.877645493
vt 0.878417969 0.835317492
vt 0.517089844 0.836640239
vt 0.517089844 0.900132298
vt 0.548339844 0.900132298
vt 0.548339844 0.836640239
vt 0.549316406 0.836640239
vt 0.549316406 0.878968239
vt 0.596191406 0.878968239
vt 0.596191406 0.836640239
vt 0.597167969 0.836640239
vt 0.597167969 0.878968239
vt 0.644042969 0.878968239
vt 0.644042969 0.836640239
vt 0.645019531 0.836640239
vt 0.645019531 0.900132298
vt 0.676269531 0.900132298
vt 0.676269531 0.836640239
vt 0.677246094 0.836640239
vt 0.677246094 0.900132298
vt 0.708496094 0.900132298
vt 0.708496094 0.836640239
vt 0.709472656 0.836640239
vt 0.709472656 0.900132298
vt 0.740722656 0.900132298
vt 0.740722656 0.836640239
vt 0.831542969 0.878968239
vt 0.831542969 0.900132298
vt 0.909667969 0.900132298
vt 0.909667969 0.878968239
vt 0.801269531 0.814153433
vt 0.801269531 0.919973552
vt 0.816894531 0.919973552
vt 0.816894531 0.814153433
vt 0.549316406 0.880290985
vt 0.549316406 0.901455045
vt 0.627441406 0.901455045
vt 0.627441406 0.880290985
vt 0.910644531 0.857804239
vt 0.910644531 0.900132298
vt 0.941894531 0.900132298
vt 0.941894531 0.857804239
vt 0.957519531 0.876322746
vt 0.957519531 0.918650806
vt 0.988769531 0.918650806
vt 0.988769531 0.876322746
vt 0.769042969 0.900132298
vt 0.769042969 0.942460299
vt 0.800292969 0.942460299
vt 0.800292969 0.900132298
vt 0.517089844 0.901455045
vt 0.517089844 0.943783045
vt 0.548339844 0.943783045
vt 0.548339844 0.901455045
vt 0.645019531 0.901455045
vt 0.645019531 0.922619045
vt 0.707519531 0.922619045
vt 0.707519531 0.901455045
vt 0.708496094 0.901455045
vt 0.708496094 0.943783045
vt 0.739746094 0.943783045
vt 0.739746094 0.901455045
vt 0.741699219 0.836640239
vt 0.741699219 0.921296299
vt 0.757324219 0.921296299
vt 0.757324219 0.836640239
vt 0.628417969 0.880290985
vt 0.628417969 0.964947104
vt 0.644042969 0.964947104
vt 0.644042969 0.880290985
vt 0.831542969 0.901455045
vt 0.831542969 0.943783045
vt 0.862792969 0.943783045
vt 0.862792969 0.901455045
vt 0.863769531 0.901455045
vt 0.863769531 0.922619045
vt 0.926269531 0.922619045
vt 0.926269531 0.901455045
vt 0.549316406 0.902777791
vt 0.549316406 0.923941791
vt 0.596191406 0.923941791
vt 0.596191406 0.902777791
vt 0.927246094 0.901455045
vt 0.927246094 0.964947104
vt 0.942871094 0.964947104
vt 0.942871094 0.901455045
vt 0.597167969 0.902777791
vt 0.597167969 0.966269851
vt 0.612792969 0.966269851
vt 0.612792969 0.902777791
vt 0.645019531 0.923941791
vt 0.645019531 0.945105791
vt 0.691894531 0.945105791
vt 0.691894531 0.923941791
vt 0.957519531 0.919973552
vt 0.957519531 0.983465612
vt 0.973144531 0.983465612
vt 0.973144531 0.919973552
vt 0.974121094 0.919973552
vt 0.974121094 0.962301612
vt 0.989746094 0.962301612
vt 0.989746094 0.919973552
vt 0.990722656 0.000661373138
vt 0.990722656 0.0429894328
vt 0.994628906 0.0429894328
vt 0.994628906 0.000661373138
vt 0.801269531 0.921296299
vt 0.801269531 0.963624358
vt 0.816894531 0.963624358
vt 0.816894531 0.921296299
vt 0.741699219 0.922619045
vt 0.741699219 0.964947104
vt 0.757324219 0.964947104
vt 0.757324219 0.922619045
vt 0.863769531 0.923941791
vt 0.863769531 0.966269851
vt 0.879394531 0.966269851
vt 0.879394531 0.923941791
vt 0.880371094 0.923941791
vt 0.880371094 0.945105791
vt 0.911621094 0.945105791
vt 0.911621094 0.923941791
vt 0.549316406 0.925264537
vt 0.549316406 0.946428597
vt 0.580566406 0.946428597
vt 0.580566406 0.925264537
vt 0.204589844 0.934523821
vt 0.204589844 0.976851881
vt 0.220214844 0.976851881
vt 0.220214844 0.934523821
vt 0.221191406 0.934523821
vt 0.221191406 0.976851881
vt 0.236816406 0.976851881
vt 0.236816406 0.934523821
vt 0.237792969 0.934523821
vt 0.237792969 0.976851881
vt 0.253417969 0.976851881
vt 0.253417969 0.934523821
vt 0.254394531 0.934523821
vt 0.254394531 0.955687821
vt 0.285644531 0.955687821
vt 0.285644531 0.934523821
vt 0.286621094 0.934523821
vt 0.286621094 0.976851881
vt 0.302246094 0.976851881
vt 0.302246094 0.934523821
vt 0.303222656 0.934523821
vt 0.303222656 0.955687821
vt 0.334472656 0.955687821
vt 0.334472656 0.934523821
vt 0.335449219 0.934523821
vt 0.335449219 0.976851881
vt 0.351074219 0.976851881
vt 0.351074219 0.934523821
vt 0.352050781 0.934523821
vt 0.352050781 0.976851881
vt 0.367675781 0.976851881
vt 0.367675781 0.934523821
vt 0.368652344 0.934523821
vt 0.368652344 0.976851881
vt 0.384277344 0.976851881
vt 0.384277344 0.934523821
vt 0.385253906 0.934523821
vt 0.385253906 0.976851881
vt 0.400878906 0.976851881
vt 0.400878906 0.934523821
vt 0.401855469 0.934523821
vt 0.401855469 0.955687821
vt 0.433105469 0.955687821
vt 0.433105469 0.934523821
vt 0.434082031 0.934523821
vt 0.434082031 0.976851881
vt 0.449707031 0.976851881
vt 0.449707031 0.934523821
vt 0.450683594 0.934523821
vt 0.450683594 0.976851881
vt 0.466308594 0.976851881
vt 0.466308594 0.934523821
vt 0.467285156 0.934523821
vt 0.467285156 0.976851881
vt 0.482910156 0.976851881
vt 0.482910156 0.934523821
vt 0.483886719 0.934523821
vt 0.483886719 0.976851881
vt 0.499511719 0.976851881
vt 0.499511719 0.934523821
vt 0.500488281 0.934523821
vt 0.500488281 0.976851881
vt 0.516113281 0.976851881
vt 0.516113281 0.934523821
vt 0.769042969 0.943783045
vt 0.769042969 0.986111104
vt 0.784667969 0.986111104
vt 0.784667969 0.943783045
vt 0.517089844 0.945105791
vt 0.517089844 0.987433851
vt 0.532714844 0.987433851
vt 0.532714844 0.945105791
vt 0.708496094 0.945105791
vt 0.708496094 0.987433851
vt 0.724121094 0.987433851
vt 0.724121094 0.945105791
vt 0.831542969 0.945105791
vt 0.831542969 0.966269851
vt 0.862792969 0.966269851
vt 0.862792969 0.945105791
vt 0.725097656 0.945105791
vt 0.725097656 0.987433851
vt 0.740722656 0.987433851
vt 0.740722656 0.945105791
vt 0.645019531 0.946428597
vt 0.645019531 0.988756597
vt 0.660644531 0.988756597
vt 0.660644531 0.946428597
vt 0.661621094 0.946428597
vt 0.661621094 0.988756597
vt 0.677246094 0.988756597
vt 0.677246094 0.946428597
vt 0.678222656 0.946428597
vt 0.678222656 0.988756597
vt 0.693847656 0.988756597
vt 0.693847656 0.946428597
vt 0.880371094 0.946428597
vt 0.880371094 0.988756597
vt 0.895996094 0.988756597
vt 0.895996094 0.946428597
vt 0.896972656 0.946428597
vt 0.896972656 0.988756597
vt 0.912597656 0.988756597
vt 0.912597656 0.946428597
vt 0.549316406 0.947751343
vt 0.549316406 0.968915343
vt 0.580566406 0.968915343
vt 0.580566406 0.947751343
vt 0.00048828125 0.957010567
vt 0.00048828125 0.999338627
vt 0.0161132812 0.999338627
vt 0.0161132812 0.957010567
vt 0.0170898438 0.957010567
vt 0.0170898438 0.978174627
vt 0.0483398438 0.978174627
vt 0.0483398438 0.957010567
vt 0.0493164062 0.957010567
vt 0.0493164062 0.978174627
vt 0.0805664062 0.978174627
vt 0.0805664062 0.957010567
vt 0.0815429688 0.957010567
vt 0.0815429688 0.978174627
vt 0.0971679688 0.978174627
vt 0.0971679688 0.957010567
vt 0.0981445312 0.957010567
vt 0.0981445312 0.978174627
vt 0.113769531 0.978174627
vt 0.113769531 0.957010567
vt 0.114746094 0.957010567
vt 0.114746094 0.978174627
vt 0.130371094 0.978174627
vt 0.130371094 0.957010567
vt 0.131347656 0.957010567
vt 0.131347656 0.978174627
vt 0.146972656 0.978174627
vt 0.146972656 0.957010567
vt 0.147949219 0.957010567
vt 0.147949219 0.978174627
vt 0.163574219 0.978174627
vt 0.163574219 0.957010567
vt 0.164550781 0.957010567
vt 0.164550781 0.978174627
vt 0.180175781 0.978174627
vt 0.180175781 0.957010567
vt 0.181152344 0.957010567
vt 0.181152344 0.978174627
vt 0.196777344 0.978174627
vt 0.196777344 0.957010567
vt 0.254394531 0.957010567
vt 0.254394531 0.978174627
vt 0.270019531 0.978174627
vt 0.270019531 0.957010567
vt 0.303222656 0.957010567
vt 0.303222656 0.978174627
vt 0.318847656 0.978174627
vt 0.318847656 0.957010567
vt 0.401855469 0.957010567
vt 0.401855469 0.978174627
vt 0.417480469 0.978174627
vt 0.417480469 0.957010567
vt 0.974121094 0.963624358
vt 0.974121094 0.984788358
vt 0.989746094 0.984788358
vt 0.989746094 0.963624358
vt 0.801269531 0.964947104
vt 0.801269531 0.986111104
vt 0.816894531 0.986111104
vt 0.816894531 0.964947104
vt 0.628417969 0.966269851
vt 0.628417969 0.987433851
vt 0.644042969 0.987433851
vt 0.644042969 0.966269851
vt 0.741699219 0.966269851
vt 0.741699219 0.987433851
vt 0.757324219 0.987433851
vt 0.757324219 0.966269851
vt 0.927246094 0.966269851
vt 0.927246094 0.987433851
vt 0.942871094 0.987433851
vt 0.942871094 0.966269851
vt 0.597167969 0.967592597
vt 0.597167969 0.988756597
vt 0.612792969 0.988756597
vt 0.612792969 0.967592597
vt 0.831542969 0.967592597
vt 0.831542969 0.988756597
vt 0.847167969 0.988756597
vt 0.847167969 0.967592597
vt 0.848144531 0.967592597
vt 0.848144531 0.988756597
vt 0.863769531 0.988756597
vt 0.863769531 0.967592597
vt 0.549316406 0.97023809
vt 0.549316406 0.99140209
vt 0.564941406 0.99140209
vt 0.564941406 0.97023809
vt 0.565917969 0.97023809
vt 0.565917969 0.99140209
vt 0.581542969 0.99140209
vt 0.581542969 0.97023809
vt 0.204589844 0.978174627
vt 0.204589844 0.999338627
vt 0.220214844 0.999338627
vt 0.220214844 0.978174627
vt 0.221191406 0.978174627
vt 0.221191406 0.999338627
vt 0.236816406 0.999338627
vt 0.236816406 0.978174627
vt 0.237792969 0.978174627
vt 0.237792969 0.999338627
vt 0.253417969 0.999338627
vt 0.253417969 0.978174627
vt 0.286621094 0.978174627
vt 0.286621094 0.999338627
vt 0.302246094 0.999338627
vt 0.302246094 0.978174627
vt 0.335449219 0.978174627
vt 0.335449219 0.999338627
vt 0.351074219 0.999338627
vt 0.351074219 0.978174627
vt 0.352050781 0.978174627
vt 0.352050781 0.999338627
vt 0.367675781 0.999338627
vt 0.367675781 0.978174627
vt 0.368652344 0.978174627
vt 0.368652344 0.999338627
vt 0.384277344 0.999338627
vt 0.384277344 0.978174627
vt 0.385253906 0.978174627
vt 0.385253906 0.999338627
vt 0.400878906 0.999338627
vt 0.400878906 0.978174627
g tuzuo_2-mesh_0
f 3/3/3 2/2/2 1/1/1
f 1/1/1 4/4/4 3/3/3
f 7/7/7 6/6/6 5/5/5
f 5/5/5 8/8/8 7/7/7
f 11/11/11 10/10/10 9/9/9
f 9/9/9 12/12/12 11/11/11
f 15/15/15 14/14/14 13/13/13
f 13/13/13 16/16/16 15/15/15
f 19/19/19 18/18/18 17/17/17
f 17/17/17 20/20/20 19/19/19
f 23/23/23 22/22/22 21/21/21
f 21/21/21 24/24/24 23/23/23
f 27/27/27 26/26/26 25/25/25
f 25/25/25 28/28/28 27/27/27
f 31/31/31 30/30/30 29/29/29
f 29/29/29 32/32/32 31/31/31
f 35/35/35 34/34/34 33/33/33
f 33/33/33 36/36/36 35/35/35
f 39/39/39 38/38/38 37/37/37
f 37/37/37 40/40/40 39/39/39
f 43/43/43 42/42/42 41/41/41
f 41/41/41 44/44/44 43/43/43
f 47/47/47 46/46/46 45/45/45
f 45/45/45 48/48/48 47/47/47
f 51/51/51 50/50/50 49/49/49
f 49/49/49 52/52/52 51/51/51
f 55/55/55 54/54/54 53/53/53
f 53/53/53 56/56/56 55/55/55
f 59/59/59 58/58/58 57/57/57
f 57/57/57 60/60/60 59/59/59
f 63/63/63 62/62/62 61/61/61
f 61/61/61 64/64/64 63/63/63
f 67/67/67 66/66/66 65/65/65
f 65/65/65 68/68/68 67/67/67
f 71/71/71 70/70/70 69/69/69
f 69/69/69 72/72/72 71/71/71
f 75/75/75 74/74/74 73/73/73
f 73/73/73 76/76/76 75/75/75
f 79/79/79 78/78/78 77/77/77
f 77/77/77 80/80/80 79/79/79
f 83/83/83 82/82/82 81/81/81
f 81/81/81 84/84/84 83/83/83
f 87/87/87 86/86/86 85/85/85
f 85/85/85 88/88/88 87/87/87
f 91/91/91 90/90/90 89/89/89
f 89/89/89 92/92/92 91/91/91
f 95/95/95 94/94/94 93/93/93
f 93/93/93 96/96/96 95/95/95
f 99/99/99 98/98/98 97/97/97
f 97/97/97 100/100/100 99/99/99
f 103/103/103 102/102/102 101/101/101
f 101/101/101 104/104/104 103/103/103
f 107/107/107 106/106/106 105/105/105
f 105/105/105 108/108/108 107/107/107
f 111/111/111 110/110/110 109/109/109
f 109/109/109 112/112/112 111/111/111
f 115/115/115 114/114/114 113/113/113
f 113/113/113 116/116/116 115/115/115
f 119/119/119 118/118/118 117/117/117
f 117/117/117 120/120/120 119/119/119
f 123/123/123 122/122/122 121/121/121
f 121/121/121 124/124/124 123/123/123
f 127/127/127 126/126/126 125/125/125
f 125/125/125 128/128/128 127/127/127
f 131/131/131 130/130/130 129/129/129
f 129/129/129 132/132/132 131/131/131
f 135/135/135 134/134/134 133/133/133
f 133/133/133 136/136/136 135/135/135
f 139/139/139 138/138/138 137/137/137
f 137/137/137 140/140/140 139/139/139
f 143/143/143 142/142/142 141/141/141
f 141/141/141 144/144/144 143/143/143
f 147/147/147 146/146/146 145/145/145
f 145/145/145 148/148/148 147/147/147
f 151/151/151 150/150/150 149/149/149
f 149/149/149 152/152/152 151/151/151
f 155/155/155 154/154/154 153/153/153
f 153/153/153 156/156/156 155/155/155
f 159/159/159 158/158/158 157/157/157
f 157/157/157 160/160/160 159/159/159
f 163/163/163 162/162/162 161/161/161
f 161/161/161 164/164/164 163/163/163
f 167/167/167 166/166/166 165/165/165
f 165/165/165 168/168/168 167/167/167
f 171/171/171 170/170/170 169/169/169
f 169/169/169 172/172/172 171/171/171
f 175/175/175 174/174/174 173/173/173
f 173/173/173 176/176/176 175/175/175
f 179/179/179 178/178/178 177/177/177
f 177/177/177 180/180/180 179/179/179
f 183/183/183 182/182/182 181/181/181
f 181/181/181 184/184/184 183/183/183
f 187/187/187 186/186/186 185/185/185
f 185/185/185 188/188/188 187/187/187
f 191/191/191 190/190/190 189/189/189
f 189/189/189 192/192/192 191/191/191
f 195/195/195 194/194/194 193/193/193
f 193/193/193 196/196/196 195/195/195
f 199/199/199 198/198/198 197/197/197
f 197/197/197 200/200/200 199/199/199
f 203/203/203 202/202/202 201/201/201
f 201/201/201 204/204/204 203/203/203
f 207/207/207 206/206/206 205/205/205
f 205/205/205 208/208/208 207/207/207
f 211/211/211 210/210/210 209/209/209
f 209/209/209 212/212/212 211/211/211
f 215/215/215 214/214/214 213/213/213
f 213/213/213 216/216/216 215/215/215
f 219/219/219 218/218/218 217/217/217
f 217/217/217 220/220/220 219/219/219
f 223/223/223 222/222/222 221/221/221
f 221/221/221 224/224/224 223/223/223
f 227/227/227 226/226/226 225/225/225
f 225/225/225 228/228/228 227/227/227
f 231/231/231 230/230/230 229/229/229
f 229/229/229 232/232/232 231/231/231
f 235/235/235 234/234/234 233/233/233
f 233/233/233 236/236/236 235/235/235
f 239/239/239 238/238/238 237/237/237
f 237/237/237 240/240/240 239/239/239
f 243/243/243 242/242/242 241/241/241
f 241/241/241 244/244/244 243/243/243
f 247/247/247 246/246/246 245/245/245
f 245/245/245 248/248/248 247/247/247
f 251/251/251 250/250/250 249/249/249
f 249/249/249 252/252/252 251/251/251
f 255/255/255 254/254/254 253/253/253
f 253/253/253 256/256/256 255/255/255
f 259/259/259 258/258/258 257/257/257
f 257/257/257 260/260/260 259/259/259
f 263/263/263 262/262/262 261/261/261
f 261/261/261 264/264/264 263/263/263
f 267/267/267 266/266/266 265/265/265
f 265/265/265 268/268/268 267/267/267
f 271/271/271 270/270/270 269/269/269
f 269/269/269 272/272/272 271/271/271
f 275/275/275 274/274/274 273/273/273
f 273/273/273 276/276/276 275/275/275
f 279/279/279 278/278/278 277/277/277
f 277/277/277 280/280/280 279/279/279
f 283/283/283 282/282/282 281/281/281
f 281/281/281 284/284/284 283/283/283
f 287/287/287 286/286/286 285/285/285
f 285/285/285 288/288/288 287/287/287
f 291/291/291 290/290/290 289/289/289
f 289/289/289 292/292/292 291/291/291
f 295/295/295 294/294/294 293/293/293
f 293/293/293 296/296/296 295/295/295
f 299/299/299 298/298/298 297/297/297
f 297/297/297 300/300/300 299/299/299
f 303/303/303 302/302/302 301/301/301
f 301/301/301 304/304/304 303/303/303
f 307/307/307 306/306/306 305/305/305
f 305/305/305 308/308/308 307/307/307
f 311/311/311 310/310/310 309/309/309
f 309/309/309 312/312/312 311/311/311
f 315/315/315 314/314/314 313/313/313
f 313/313/313 316/316/316 315/315/315
f 319/319/319 318/318/318 317/317/317
f 317/317/317 320/320/320 319/319/319
f 323/323/323 322/322/322 321/321/321
f 321/321/321 324/324/324 323/323/323
f 327/327/327 326/326/326 325/325/325
f 325/325/325 328/328/328 327/327/327
f 331/331/331 330/330/330 329/329/329
f 329/329/329 332/332/332 331/331/331
f 335/335/335 334/334/334 333/333/333
f 333/333/333 336/336/336 335/335/335
f 339/339/339 338/338/338 337/337/337
f 337/337/337 340/340/340 339/339/339
f 343/343/343 342/342/342 341/341/341
f 341/341/341 344/344/344 343/343/343
f 347/347/347 346/346/346 345/345/345
f 345/345/345 348/348/348 347/347/347
f 351/351/351 350/350/350 349/349/349
f 349/349/349 352/352/352 351/351/351
f 355/355/355 354/354/354 353/353/353
f 353/353/353 356/356/356 355/355/355
f 359/359/359 358/358/358 357/357/357
f 357/357/357 360/360/360 359/359/359
f 363/363/363 362/362/362 361/361/361
f 361/361/361 364/364/364 363/363/363
f 367/367/367 366/366/366 365/365/365
f 365/365/365 368/368/368 367/367/367
f 371/371/371 370/370/370 369/369/369
f 369/369/369 372/372/372 371/371/371
f 375/375/375 374/374/374 373/373/373
f 373/373/373 376/376/376 375/375/375
f 379/379/379 378/378/378 377/377/377
f 377/377/377 380/380/380 379/379/379
f 383/383/383 382/382/382 381/381/381
f 381/381/381 384/384/384 383/383/383
f 387/387/387 386/386/386 385/385/385
f 385/385/385 388/388/388 387/387/387
f 391/391/391 390/390/390 389/389/389
f 389/389/389 392/392/392 391/391/391
f 395/395/395 394/394/394 393/393/393
f 393/393/393 396/396/396 395/395/395
f 399/399/399 398/398/398 397/397/397
f 397/397/397 400/400/400 399/399/399
f 403/403/403 402/402/402 401/401/401
f 401/401/401 404/404/404 403/403/403
f 407/407/407 406/406/406 405/405/405
f 405/405/405 408/408/408 407/407/407
f 411/411/411 410/410/410 409/409/409
f 409/409/409 412/412/412 411/411/411
f 415/415/415 414/414/414 413/413/413
f 413/413/413 416/416/416 415/415/415
f 419/419/419 418/418/418 417/417/417
f 417/417/417 420/420/420 419/419/419
f 423/423/423 422/422/422 421/421/421
f 421/421/421 424/424/424 423/423/423
f 427/427/427 426/426/426 425/425/425
f 425/425/425 428/428/428 427/427/427
f 431/431/431 430/430/430 429/429/429
f 429/429/429 432/432/432 431/431/431
f 435/435/435 434/434/434 433/433/433
f 433/433/433 436/436/436 435/435/435
f 439/439/439 438/438/438 437/437/437
f 437/437/437 440/440/440 439/439/439
f 443/443/443 442/442/442 441/441/441
f 441/441/441 444/444/444 443/443/443
f 447/447/447 446/446/446 445/445/445
f 445/445/445 448/448/448 447/447/447
f 451/451/451 450/450/450 449/449/449
f 449/449/449 452/452/452 451/451/451
f 455/455/455 454/454/454 453/453/453
f 453/453/453 456/456/456 455/455/455
f 459/459/459 458/458/458 457/457/457
f 457/457/457 460/460/460 459/459/459
f 463/463/463 462/462/462 461/461/461
f 461/461/461 464/464/464 463/463/463
f 467/467/467 466/466/466 465/465/465
f 465/465/465 468/468/468 467/467/467
f 471/471/471 470/470/470 469/469/469
f 469/469/469 472/472/472 471/471/471
f 475/475/475 474/474/474 473/473/473
f 473/473/473 476/476/476 475/475/475
f 479/479/479 478/478/478 477/477/477
f 477/477/477 480/480/480 479/479/479
f 483/483/483 482/482/482 481/481/481
f 481/481/481 484/484/484 483/483/483
f 487/487/487 486/486/486 485/485/485
f 485/485/485 488/488/488 487/487/487
f 491/491/491 490/490/490 489/489/489
f 489/489/489 492/492/492 491/491/491
f 495/495/495 494/494/494 493/493/493
f 493/493/493 496/496/496 495/495/495
f 499/499/499 498/498/498 497/497/497
f 497/497/497 500/500/500 499/499/499
f 503/503/503 502/502/502 501/501/501
f 501/501/501 504/504/504 503/503/503
f 507/507/507 506/506/506 505/505/505
f 505/505/505 508/508/508 507/507/507
