g birui_5-mesh
v -384 849 0
v -384 1553 0
v -1632 1553 0
v -1632 849 0
v -384 177 0
v -384 849 0
v -1632 849 0
v -1632 177 0
v -160 689 0
v -160 1105 0
v -384 1105 0
v -384 689 0
v -1632 817 0
v -1632 1297 0
v -1824 1297 0
v -1824 817 0
v -1632 369 0
v -1632 817 0
v -1824 817 0
v -1824 369 0
v -160 305 0
v -160 689 0
v -384 689 0
v -384 305 0
v -1824 625 0
v -1824 1009 0
v -1984 1009 0
v -1984 625 0
v -1024 1553 0
v -1024 1681 0
v -1504 1681 0
v -1504 1553 0
v -544 1553 0
v -544 1681 0
v -1024 1681 0
v -1024 1553 0
v -736 49 0
v -736 177 0
v -1056 177 0
v -1056 49 0
v -1056 49 0
v -1056 177 0
v -1376 177 0
v -1376 49 0
v -64 593 0
v -64 849 0
v -160 849 0
v -160 593 0
v -64 369 0
v -64 593 0
v -160 593 0
v -160 369 0
v -1632 1297 0
v -1632 1489 0
v -1728 1489 0
v -1728 1297 0
v -896 1681 0
v -896 1777 0
v -1088 1777 0
v -1088 1681 0
v -1664 145 0
v -1664 241 0
v -1824 241 0
v -1824 145 0
v -1088 1681 0
v -1088 1777 0
v -1248 1777 0
v -1248 1681 0
v -1824 497 0
v -1824 625 0
v -1920 625 0
v -1920 497 0
v -320 1105 0
v -320 1297 0
v -384 1297 0
v -384 1105 0
v -320 1297 0
v -320 1489 0
v -384 1489 0
v -384 1297 0
v -768 1681 0
v -768 1745 0
v -896 1745 0
v -896 1681 0
v -256 241 0
v -256 305 0
v -384 305 0
v -384 241 0
v -0 401 0
v -0 529 0
v -64 529 0
v -64 401 0
v -1088 17 0
v -1088 49 0
v -1312 49 0
v -1312 17 0
v -864 17 0
v -864 49 0
v -1088 49 0
v -1088 17 0
v -1824 1009 0
v -1824 1105 0
v -1888 1105 0
v -1888 1009 0
v -480 1553 0
v -480 1649 0
v -544 1649 0
v -544 1553 0
v -1376 81 0
v -1376 177 0
v -1440 177 0
v -1440 81 0
v -1632 81 0
v -1632 145 0
v -1728 145 0
v -1728 81 0
v -96 849 0
v -96 945 0
v -160 945 0
v -160 849 0
v -1984 721 0
v -1984 817 0
v -2047 817 0
v -2047 721 0
v -1184 1841 0
v -1184 1937 0
v -1248 1937 0
v -1248 1841 0
v -1632 273 0
v -1632 369 0
v -1696 369 0
v -1696 273 0
v -1440 113 0
v -1440 177 0
v -1504 177 0
v -1504 113 0
v -128 209 0
v -128 273 0
v -192 273 0
v -192 209 0
v -1696 305 0
v -1696 369 0
v -1760 369 0
v -1760 305 0
v -1728 1297 0
v -1728 1361 0
v -1792 1361 0
v -1792 1297 0
v -608 145 0
v -608 177 0
v -736 177 0
v -736 145 0
v -1984 657 0
v -1984 721 0
v -2047 721 0
v -2047 657 0
v -480 145 0
v -480 177 0
v -608 177 0
v -608 145 0
v -1184 1777 0
v -1184 1841 0
v -1248 1841 0
v -1248 1777 0
v -288 1265 0
v -288 1361 0
v -320 1361 0
v -320 1265 0
v -288 1361 0
v -288 1457 0
v -320 1457 0
v -320 1361 0
v -1632 1489 0
v -1632 1553 0
v -1664 1553 0
v -1664 1489 0
v -448 1553 0
v -448 1617 0
v -480 1617 0
v -480 1553 0
v -1888 1009 0
v -1888 1073 0
v -1920 1073 0
v -1920 1009 0
v -224 1105 0
v -224 1137 0
v -288 1137 0
v -288 1105 0
v -1152 1777 0
v -1152 1841 0
v -1184 1841 0
v -1184 1777 0
v -480 49 0
v -480 81 0
v -544 81 0
v -544 49 0
v -1024 0 0
v -1024 17 0
v -1088 17 0
v -1088 0 0
v -1664 49 0
v -1664 81 0
v -1728 81 0
v -1728 49 0
v -1536 81 0
v -1536 113 0
v -1600 113 0
v -1600 81 0
v -1728 113 0
v -1728 145 0
v -1792 145 0
v -1792 113 0
v -1504 145 0
v -1504 177 0
v -1568 177 0
v -1568 145 0
v -1408 17 0
v -1408 81 0
v -1440 81 0
v -1440 17 0
v -672 81 0
v -672 113 0
v -736 113 0
v -736 81 0
v -1632 145 0
v -1632 209 0
v -1664 209 0
v -1664 145 0
v -32 529 0
v -32 593 0
v -64 593 0
v -64 529 0
v -128 945 0
v -128 1009 0
v -160 1009 0
v -160 945 0
v -320 209 0
v -320 241 0
v -384 241 0
v -384 209 0
v -192 273 0
v -192 305 0
v -256 305 0
v -256 273 0
v -1728 241 0
v -1728 273 0
v -1792 273 0
v -1792 241 0
v -1248 1873 0
v -1248 1937 0
v -1280 1937 0
v -1280 1873 0
v -864 0 0
v -864 17 0
v -928 17 0
v -928 0 0
v -672 1681 0
v -672 1713 0
v -736 1713 0
v -736 1681 0
v -1248 1681 0
v -1248 1713 0
v -1312 1713 0
v -1312 1681 0
v -1824 1201 0
v -1824 1265 0
v -1856 1265 0
v -1856 1201 0
v -288 1169 0
v -288 1233 0
v -320 1233 0
v -320 1169 0
v -1824 1137 0
v -1824 1201 0
v -1856 1201 0
v -1856 1137 0
v -288 1105 0
v -288 1169 0
v -320 1169 0
v -320 1105 0
v -672 113 0
v -672 145 0
v -736 145 0
v -736 113 0
v -608 113 0
v -608 145 0
v -672 145 0
v -672 113 0
v -1504 1585 0
v -1504 1649 0
v -1536 1649 0
v -1536 1585 0
v -1824 433 0
v -1824 497 0
v -1856 497 0
v -1856 433 0
v -800 0 0
v -800 17 0
v -864 17 0
v -864 0 0
v -1664 241 0
v -1664 273 0
v -1696 273 0
v -1696 241 0
v -1440 49 0
v -1440 81 0
v -1472 81 0
v -1472 49 0
v -1664 1489 0
v -1664 1521 0
v -1696 1521 0
v -1696 1489 0
v -1536 49 0
v -1536 81 0
v -1568 81 0
v -1568 49 0
v -352 1489 0
v -352 1521 0
v -384 1521 0
v -384 1489 0
v -32 689 0
v -32 721 0
v -64 721 0
v -64 689 0
v -1920 1009 0
v -1920 1041 0
v -1952 1041 0
v -1952 1009 0
v -416 1553 0
v -416 1585 0
v -448 1585 0
v -448 1553 0
v -1760 337 0
v -1760 369 0
v -1792 369 0
v -1792 337 0
v -128 337 0
v -128 369 0
v -160 369 0
v -160 337 0
v -1504 1553 0
v -1504 1585 0
v -1536 1585 0
v -1536 1553 0
v -1728 49 0
v -1728 81 0
v -1760 81 0
v -1760 49 0
v -544 49 0
v -544 81 0
v -576 81 0
v -576 49 0
v -1824 401 0
v -1824 433 0
v -1856 433 0
v -1856 401 0
v -1600 81 0
v -1600 113 0
v -1632 113 0
v -1632 81 0
v -1248 1841 0
v -1248 1873 0
v -1280 1873 0
v -1280 1841 0
v -1792 241 0
v -1792 273 0
v -1824 273 0
v -1824 241 0
v -736 1681 0
v -736 1713 0
v -768 1713 0
v -768 1681 0
v -1088 0 0
v -1088 17 0
v -1120 17 0
v -1120 0 0
v -1312 1681 0
v -1312 1713 0
v -1344 1713 0
v -1344 1681 0
vt 0.00048828125 0.000691592693
vt 0.00048828125 0.487551868
vt 0.609863281 0.487551868
vt 0.609863281 0.000691592693
vt 0.00048828125 0.488934994
vt 0.00048828125 0.953665257
vt 0.609863281 0.953665257
vt 0.609863281 0.488934994
vt 0.610839844 0.000691592693
vt 0.610839844 0.288381755
vt 0.720214844 0.288381755
vt 0.720214844 0.000691592693
vt 0.721191406 0.000691592693
vt 0.721191406 0.33264178
vt 0.814941406 0.33264178
vt 0.814941406 0.000691592693
vt 0.815917969 0.000691592693
vt 0.815917969 0.310511768
vt 0.909667969 0.310511768
vt 0.909667969 0.000691592693
vt 0.610839844 0.289764881
vt 0.610839844 0.555325031
vt 0.720214844 0.555325031
vt 0.720214844 0.289764881
vt 0.910644531 0.000691592693
vt 0.910644531 0.266251743
vt 0.988769531 0.266251743
vt 0.988769531 0.000691592693
vt 0.721191406 0.334024906
vt 0.721191406 0.422544956
vt 0.955566406 0.422544956
vt 0.955566406 0.334024906
vt 0.721191406 0.423928082
vt 0.721191406 0.512448132
vt 0.955566406 0.512448132
vt 0.955566406 0.423928082
vt 0.721191406 0.513831258
vt 0.721191406 0.602351308
vt 0.877441406 0.602351308
vt 0.877441406 0.513831258
vt 0.721191406 0.603734434
vt 0.721191406 0.692254484
vt 0.877441406 0.692254484
vt 0.877441406 0.603734434
vt 0.878417969 0.513831258
vt 0.878417969 0.690871358
vt 0.925292969 0.690871358
vt 0.925292969 0.513831258
vt 0.926269531 0.513831258
vt 0.926269531 0.668741345
vt 0.973144531 0.668741345
vt 0.973144531 0.513831258
vt 0.610839844 0.556708157
vt 0.610839844 0.689488232
vt 0.657714844 0.689488232
vt 0.657714844 0.556708157
vt 0.610839844 0.690871358
vt 0.610839844 0.757261395
vt 0.704589844 0.757261395
vt 0.704589844 0.690871358
vt 0.878417969 0.692254484
vt 0.878417969 0.758644521
vt 0.956542969 0.758644521
vt 0.956542969 0.692254484
vt 0.721191406 0.693637609
vt 0.721191406 0.760027647
vt 0.799316406 0.760027647
vt 0.799316406 0.693637609
vt 0.800292969 0.693637609
vt 0.800292969 0.78215766
vt 0.847167969 0.78215766
vt 0.847167969 0.693637609
vt 0.957519531 0.670124471
vt 0.957519531 0.802904546
vt 0.988769531 0.802904546
vt 0.988769531 0.670124471
vt 0.610839844 0.758644521
vt 0.610839844 0.891424596
vt 0.642089844 0.891424596
vt 0.642089844 0.758644521
vt 0.643066406 0.758644521
vt 0.643066406 0.802904546
vt 0.705566406 0.802904546
vt 0.705566406 0.758644521
vt 0.878417969 0.760027647
vt 0.878417969 0.804287672
vt 0.940917969 0.804287672
vt 0.940917969 0.760027647
vt 0.721191406 0.761410773
vt 0.721191406 0.849930823
vt 0.752441406 0.849930823
vt 0.752441406 0.761410773
vt 0.878417969 0.805670798
vt 0.878417969 0.82780081
vt 0.987792969 0.82780081
vt 0.987792969 0.805670798
vt 0.878417969 0.829183936
vt 0.878417969 0.851313949
vt 0.987792969 0.851313949
vt 0.987792969 0.829183936
vt 0.753417969 0.761410773
vt 0.753417969 0.82780081
vt 0.784667969 0.82780081
vt 0.784667969 0.761410773
vt 0.800292969 0.783540785
vt 0.800292969 0.849930823
vt 0.831542969 0.849930823
vt 0.831542969 0.783540785
vt 0.832519531 0.783540785
vt 0.832519531 0.849930823
vt 0.863769531 0.849930823
vt 0.863769531 0.783540785
vt 0.643066406 0.804287672
vt 0.643066406 0.848547697
vt 0.689941406 0.848547697
vt 0.689941406 0.804287672
vt 0.753417969 0.829183936
vt 0.753417969 0.895573974
vt 0.784667969 0.895573974
vt 0.784667969 0.829183936
vt 0.643066406 0.849930823
vt 0.643066406 0.91632086
vt 0.674316406 0.91632086
vt 0.674316406 0.849930823
vt 0.675292969 0.849930823
vt 0.675292969 0.91632086
vt 0.706542969 0.91632086
vt 0.706542969 0.849930823
vt 0.721191406 0.851313949
vt 0.721191406 0.917703986
vt 0.752441406 0.917703986
vt 0.752441406 0.851313949
vt 0.800292969 0.851313949
vt 0.800292969 0.895573974
vt 0.831542969 0.895573974
vt 0.831542969 0.851313949
vt 0.832519531 0.851313949
vt 0.832519531 0.895573974
vt 0.863769531 0.895573974
vt 0.863769531 0.851313949
vt 0.878417969 0.852697074
vt 0.878417969 0.896957099
vt 0.909667969 0.896957099
vt 0.909667969 0.852697074
vt 0.910644531 0.852697074
vt 0.910644531 0.896957099
vt 0.941894531 0.896957099
vt 0.941894531 0.852697074
vt 0.753417969 0.896957099
vt 0.753417969 0.919087112
vt 0.815917969 0.919087112
vt 0.815917969 0.896957099
vt 0.942871094 0.852697074
vt 0.942871094 0.896957099
vt 0.974121094 0.896957099
vt 0.974121094 0.852697074
vt 0.878417969 0.898340225
vt 0.878417969 0.920470238
vt 0.940917969 0.920470238
vt 0.940917969 0.898340225
vt 0.610839844 0.892807722
vt 0.610839844 0.937067747
vt 0.642089844 0.937067747
vt 0.642089844 0.892807722
vt 0.975097656 0.852697074
vt 0.975097656 0.919087112
vt 0.990722656 0.919087112
vt 0.990722656 0.852697074
vt 0.816894531 0.896957099
vt 0.816894531 0.963347137
vt 0.832519531 0.963347137
vt 0.832519531 0.896957099
vt 0.833496094 0.896957099
vt 0.833496094 0.941217124
vt 0.849121094 0.941217124
vt 0.849121094 0.896957099
vt 0.850097656 0.896957099
vt 0.850097656 0.941217124
vt 0.865722656 0.941217124
vt 0.865722656 0.896957099
vt 0.941894531 0.898340225
vt 0.941894531 0.94260025
vt 0.957519531 0.94260025
vt 0.957519531 0.898340225
vt 0.643066406 0.917703986
vt 0.643066406 0.939833999
vt 0.674316406 0.939833999
vt 0.674316406 0.917703986
vt 0.958496094 0.898340225
vt 0.958496094 0.94260025
vt 0.974121094 0.94260025
vt 0.974121094 0.898340225
vt 0.675292969 0.917703986
vt 0.675292969 0.939833999
vt 0.706542969 0.939833999
vt 0.706542969 0.917703986
vt 0.721191406 0.919087112
vt 0.721191406 0.931535244
vt 0.752441406 0.931535244
vt 0.752441406 0.919087112
vt 0.753417969 0.920470238
vt 0.753417969 0.94260025
vt 0.784667969 0.94260025
vt 0.784667969 0.920470238
vt 0.878417969 0.921853364
vt 0.878417969 0.943983376
vt 0.909667969 0.943983376
vt 0.909667969 0.921853364
vt 0.721191406 0.93291837
vt 0.721191406 0.955048382
vt 0.752441406 0.955048382
vt 0.752441406 0.93291837
vt 0.610839844 0.938450873
vt 0.610839844 0.960580885
vt 0.642089844 0.960580885
vt 0.642089844 0.938450873
vt 0.785644531 0.920470238
vt 0.785644531 0.964730263
vt 0.801269531 0.964730263
vt 0.801269531 0.920470238
vt 0.643066406 0.941217124
vt 0.643066406 0.963347137
vt 0.674316406 0.963347137
vt 0.674316406 0.941217124
vt 0.975097656 0.920470238
vt 0.975097656 0.964730263
vt 0.990722656 0.964730263
vt 0.990722656 0.920470238
vt 0.910644531 0.921853364
vt 0.910644531 0.966113389
vt 0.926269531 0.966113389
vt 0.926269531 0.921853364
vt 0.675292969 0.941217124
vt 0.675292969 0.985477149
vt 0.690917969 0.985477149
vt 0.690917969 0.941217124
vt 0.833496094 0.94260025
vt 0.833496094 0.964730263
vt 0.864746094 0.964730263
vt 0.864746094 0.94260025
vt 0.753417969 0.943983376
vt 0.753417969 0.966113389
vt 0.784667969 0.966113389
vt 0.784667969 0.943983376
vt 0.941894531 0.943983376
vt 0.941894531 0.966113389
vt 0.973144531 0.966113389
vt 0.973144531 0.943983376
vt 0.691894531 0.941217124
vt 0.691894531 0.985477149
vt 0.707519531 0.985477149
vt 0.707519531 0.941217124
vt 0.878417969 0.945366502
vt 0.878417969 0.957814634
vt 0.909667969 0.957814634
vt 0.909667969 0.945366502
vt 0.00048828125 0.955048382
vt 0.00048828125 0.977178395
vt 0.0317382812 0.977178395
vt 0.0317382812 0.955048382
vt 0.0327148438 0.955048382
vt 0.0327148438 0.977178395
vt 0.0639648438 0.977178395
vt 0.0639648438 0.955048382
vt 0.0649414062 0.955048382
vt 0.0649414062 0.999308407
vt 0.0805664062 0.999308407
vt 0.0805664062 0.955048382
vt 0.0815429688 0.955048382
vt 0.0815429688 0.999308407
vt 0.0971679688 0.999308407
vt 0.0971679688 0.955048382
vt 0.0981445312 0.955048382
vt 0.0981445312 0.999308407
vt 0.113769531 0.999308407
vt 0.113769531 0.955048382
vt 0.114746094 0.955048382
vt 0.114746094 0.999308407
vt 0.130371094 0.999308407
vt 0.130371094 0.955048382
vt 0.131347656 0.955048382
vt 0.131347656 0.977178395
vt 0.162597656 0.977178395
vt 0.162597656 0.955048382
vt 0.163574219 0.955048382
vt 0.163574219 0.977178395
vt 0.194824219 0.977178395
vt 0.194824219 0.955048382
vt 0.195800781 0.955048382
vt 0.195800781 0.999308407
vt 0.211425781 0.999308407
vt 0.211425781 0.955048382
vt 0.212402344 0.955048382
vt 0.212402344 0.999308407
vt 0.228027344 0.999308407
vt 0.228027344 0.955048382
vt 0.229003906 0.955048382
vt 0.229003906 0.967496514
vt 0.260253906 0.967496514
vt 0.260253906 0.955048382
vt 0.261230469 0.955048382
vt 0.261230469 0.977178395
vt 0.276855469 0.977178395
vt 0.276855469 0.955048382
vt 0.277832031 0.955048382
vt 0.277832031 0.977178395
vt 0.293457031 0.977178395
vt 0.293457031 0.955048382
vt 0.294433594 0.955048382
vt 0.294433594 0.977178395
vt 0.310058594 0.977178395
vt 0.310058594 0.955048382
vt 0.311035156 0.955048382
vt 0.311035156 0.977178395
vt 0.326660156 0.977178395
vt 0.326660156 0.955048382
vt 0.327636719 0.955048382
vt 0.327636719 0.977178395
vt 0.343261719 0.977178395
vt 0.343261719 0.955048382
vt 0.344238281 0.955048382
vt 0.344238281 0.977178395
vt 0.359863281 0.977178395
vt 0.359863281 0.955048382
vt 0.360839844 0.955048382
vt 0.360839844 0.977178395
vt 0.376464844 0.977178395
vt 0.376464844 0.955048382
vt 0.377441406 0.955048382
vt 0.377441406 0.977178395
vt 0.393066406 0.977178395
vt 0.393066406 0.955048382
vt 0.394042969 0.955048382
vt 0.394042969 0.977178395
vt 0.409667969 0.977178395
vt 0.409667969 0.955048382
vt 0.410644531 0.955048382
vt 0.410644531 0.977178395
vt 0.426269531 0.977178395
vt 0.426269531 0.955048382
vt 0.427246094 0.955048382
vt 0.427246094 0.977178395
vt 0.442871094 0.977178395
vt 0.442871094 0.955048382
vt 0.443847656 0.955048382
vt 0.443847656 0.977178395
vt 0.459472656 0.977178395
vt 0.459472656 0.955048382
vt 0.460449219 0.955048382
vt 0.460449219 0.977178395
vt 0.476074219 0.977178395
vt 0.476074219 0.955048382
vt 0.477050781 0.955048382
vt 0.477050781 0.977178395
vt 0.492675781 0.977178395
vt 0.492675781 0.955048382
vt 0.493652344 0.955048382
vt 0.493652344 0.977178395
vt 0.509277344 0.977178395
vt 0.509277344 0.955048382
vt 0.510253906 0.955048382
vt 0.510253906 0.977178395
vt 0.525878906 0.977178395
vt 0.525878906 0.955048382
vt 0.526855469 0.955048382
vt 0.526855469 0.977178395
vt 0.542480469 0.977178395
vt 0.542480469 0.955048382
vt 0.543457031 0.955048382
vt 0.543457031 0.977178395
vt 0.559082031 0.977178395
vt 0.559082031 0.955048382
vt 0.560058594 0.955048382
vt 0.560058594 0.967496514
vt 0.575683594 0.967496514
vt 0.575683594 0.955048382
vt 0.576660156 0.955048382
vt 0.576660156 0.977178395
vt 0.592285156 0.977178395
vt 0.592285156 0.955048382
g birui_5-mesh_0
f 3/3/3 2/2/2 1/1/1
f 1/1/1 4/4/4 3/3/3
f 7/7/7 6/6/6 5/5/5
f 5/5/5 8/8/8 7/7/7
f 11/11/11 10/10/10 9/9/9
f 9/9/9 12/12/12 11/11/11
f 15/15/15 14/14/14 13/13/13
f 13/13/13 16/16/16 15/15/15
f 19/19/19 18/18/18 17/17/17
f 17/17/17 20/20/20 19/19/19
f 23/23/23 22/22/22 21/21/21
f 21/21/21 24/24/24 23/23/23
f 27/27/27 26/26/26 25/25/25
f 25/25/25 28/28/28 27/27/27
f 31/31/31 30/30/30 29/29/29
f 29/29/29 32/32/32 31/31/31
f 35/35/35 34/34/34 33/33/33
f 33/33/33 36/36/36 35/35/35
f 39/39/39 38/38/38 37/37/37
f 37/37/37 40/40/40 39/39/39
f 43/43/43 42/42/42 41/41/41
f 41/41/41 44/44/44 43/43/43
f 47/47/47 46/46/46 45/45/45
f 45/45/45 48/48/48 47/47/47
f 51/51/51 50/50/50 49/49/49
f 49/49/49 52/52/52 51/51/51
f 55/55/55 54/54/54 53/53/53
f 53/53/53 56/56/56 55/55/55
f 59/59/59 58/58/58 57/57/57
f 57/57/57 60/60/60 59/59/59
f 63/63/63 62/62/62 61/61/61
f 61/61/61 64/64/64 63/63/63
f 67/67/67 66/66/66 65/65/65
f 65/65/65 68/68/68 67/67/67
f 71/71/71 70/70/70 69/69/69
f 69/69/69 72/72/72 71/71/71
f 75/75/75 74/74/74 73/73/73
f 73/73/73 76/76/76 75/75/75
f 79/79/79 78/78/78 77/77/77
f 77/77/77 80/80/80 79/79/79
f 83/83/83 82/82/82 81/81/81
f 81/81/81 84/84/84 83/83/83
f 87/87/87 86/86/86 85/85/85
f 85/85/85 88/88/88 87/87/87
f 91/91/91 90/90/90 89/89/89
f 89/89/89 92/92/92 91/91/91
f 95/95/95 94/94/94 93/93/93
f 93/93/93 96/96/96 95/95/95
f 99/99/99 98/98/98 97/97/97
f 97/97/97 100/100/100 99/99/99
f 103/103/103 102/102/102 101/101/101
f 101/101/101 104/104/104 103/103/103
f 107/107/107 106/106/106 105/105/105
f 105/105/105 108/108/108 107/107/107
f 111/111/111 110/110/110 109/109/109
f 109/109/109 112/112/112 111/111/111
f 115/115/115 114/114/114 113/113/113
f 113/113/113 116/116/116 115/115/115
f 119/119/119 118/118/118 117/117/117
f 117/117/117 120/120/120 119/119/119
f 123/123/123 122/122/122 121/121/121
f 121/121/121 124/124/124 123/123/123
f 127/127/127 126/126/126 125/125/125
f 125/125/125 128/128/128 127/127/127
f 131/131/131 130/130/130 129/129/129
f 129/129/129 132/132/132 131/131/131
f 135/135/135 134/134/134 133/133/133
f 133/133/133 136/136/136 135/135/135
f 139/139/139 138/138/138 137/137/137
f 137/137/137 140/140/140 139/139/139
f 143/143/143 142/142/142 141/141/141
f 141/141/141 144/144/144 143/143/143
f 147/147/147 146/146/146 145/145/145
f 145/145/145 148/148/148 147/147/147
f 151/151/151 150/150/150 149/149/149
f 149/149/149 152/152/152 151/151/151
f 155/155/155 154/154/154 153/153/153
f 153/153/153 156/156/156 155/155/155
f 159/159/159 158/158/158 157/157/157
f 157/157/157 160/160/160 159/159/159
f 163/163/163 162/162/162 161/161/161
f 161/161/161 164/164/164 163/163/163
f 167/167/167 166/166/166 165/165/165
f 165/165/165 168/168/168 167/167/167
f 171/171/171 170/170/170 169/169/169
f 169/169/169 172/172/172 171/171/171
f 175/175/175 174/174/174 173/173/173
f 173/173/173 176/176/176 175/175/175
f 179/179/179 178/178/178 177/177/177
f 177/177/177 180/180/180 179/179/179
f 183/183/183 182/182/182 181/181/181
f 181/181/181 184/184/184 183/183/183
f 187/187/187 186/186/186 185/185/185
f 185/185/185 188/188/188 187/187/187
f 191/191/191 190/190/190 189/189/189
f 189/189/189 192/192/192 191/191/191
f 195/195/195 194/194/194 193/193/193
f 193/193/193 196/196/196 195/195/195
f 199/199/199 198/198/198 197/197/197
f 197/197/197 200/200/200 199/199/199
f 203/203/203 202/202/202 201/201/201
f 201/201/201 204/204/204 203/203/203
f 207/207/207 206/206/206 205/205/205
f 205/205/205 208/208/208 207/207/207
f 211/211/211 210/210/210 209/209/209
f 209/209/209 212/212/212 211/211/211
f 215/215/215 214/214/214 213/213/213
f 213/213/213 216/216/216 215/215/215
f 219/219/219 218/218/218 217/217/217
f 217/217/217 220/220/220 219/219/219
f 223/223/223 222/222/222 221/221/221
f 221/221/221 224/224/224 223/223/223
f 227/227/227 226/226/226 225/225/225
f 225/225/225 228/228/228 227/227/227
f 231/231/231 230/230/230 229/229/229
f 229/229/229 232/232/232 231/231/231
f 235/235/235 234/234/234 233/233/233
f 233/233/233 236/236/236 235/235/235
f 239/239/239 238/238/238 237/237/237
f 237/237/237 240/240/240 239/239/239
f 243/243/243 242/242/242 241/241/241
f 241/241/241 244/244/244 243/243/243
f 247/247/247 246/246/246 245/245/245
f 245/245/245 248/248/248 247/247/247
f 251/251/251 250/250/250 249/249/249
f 249/249/249 252/252/252 251/251/251
f 255/255/255 254/254/254 253/253/253
f 253/253/253 256/256/256 255/255/255
f 259/259/259 258/258/258 257/257/257
f 257/257/257 260/260/260 259/259/259
f 263/263/263 262/262/262 261/261/261
f 261/261/261 264/264/264 263/263/263
f 267/267/267 266/266/266 265/265/265
f 265/265/265 268/268/268 267/267/267
f 271/271/271 270/270/270 269/269/269
f 269/269/269 272/272/272 271/271/271
f 275/275/275 274/274/274 273/273/273
f 273/273/273 276/276/276 275/275/275
f 279/279/279 278/278/278 277/277/277
f 277/277/277 280/280/280 279/279/279
f 283/283/283 282/282/282 281/281/281
f 281/281/281 284/284/284 283/283/283
f 287/287/287 286/286/286 285/285/285
f 285/285/285 288/288/288 287/287/287
f 291/291/291 290/290/290 289/289/289
f 289/289/289 292/292/292 291/291/291
f 295/295/295 294/294/294 293/293/293
f 293/293/293 296/296/296 295/295/295
f 299/299/299 298/298/298 297/297/297
f 297/297/297 300/300/300 299/299/299
f 303/303/303 302/302/302 301/301/301
f 301/301/301 304/304/304 303/303/303
f 307/307/307 306/306/306 305/305/305
f 305/305/305 308/308/308 307/307/307
f 311/311/311 310/310/310 309/309/309
f 309/309/309 312/312/312 311/311/311
f 315/315/315 314/314/314 313/313/313
f 313/313/313 316/316/316 315/315/315
f 319/319/319 318/318/318 317/317/317
f 317/317/317 320/320/320 319/319/319
f 323/323/323 322/322/322 321/321/321
f 321/321/321 324/324/324 323/323/323
f 327/327/327 326/326/326 325/325/325
f 325/325/325 328/328/328 327/327/327
f 331/331/331 330/330/330 329/329/329
f 329/329/329 332/332/332 331/331/331
f 335/335/335 334/334/334 333/333/333
f 333/333/333 336/336/336 335/335/335
f 339/339/339 338/338/338 337/337/337
f 337/337/337 340/340/340 339/339/339
f 343/343/343 342/342/342 341/341/341
f 341/341/341 344/344/344 343/343/343
f 347/347/347 346/346/346 345/345/345
f 345/345/345 348/348/348 347/347/347
f 351/351/351 350/350/350 349/349/349
f 349/349/349 352/352/352 351/351/351
f 355/355/355 354/354/354 353/353/353
f 353/353/353 356/356/356 355/355/355
f 359/359/359 358/358/358 357/357/357
f 357/357/357 360/360/360 359/359/359
f 363/363/363 362/362/362 361/361/361
f 361/361/361 364/364/364 363/363/363
f 367/367/367 366/366/366 365/365/365
f 365/365/365 368/368/368 367/367/367
f 371/371/371 370/370/370 369/369/369
f 369/369/369 372/372/372 371/371/371
f 375/375/375 374/374/374 373/373/373
f 373/373/373 376/376/376 375/375/375
f 379/379/379 378/378/378 377/377/377
f 377/377/377 380/380/380 379/379/379
