g ougen_h-mesh
v -192 255 0
v -192 703 0
v -512 703 0
v -512 255 0
v -512 255 0
v -512 703 0
v -800 703 0
v -800 255 0
v -352 703 0
v -352 959 0
v -608 959 0
v -608 703 0
v -512 95 0
v -512 255 0
v -768 255 0
v -768 95 0
v -608 703 0
v -608 831 0
v -832 831 0
v -832 703 0
v -96 319 0
v -96 575 0
v -192 575 0
v -192 319 0
v -96 63 0
v -96 319 0
v -192 319 0
v -192 63 0
v -0 287 0
v -0 479 0
v -96 479 0
v -96 287 0
v -192 703 0
v -192 767 0
v -288 767 0
v -288 703 0
v -544 31 0
v -544 95 0
v -640 95 0
v -640 31 0
v -416 959 0
v -416 1023 0
v -512 1023 0
v -512 959 0
v -32 479 0
v -32 543 0
v -96 543 0
v -96 479 0
v -640 31 0
v -640 95 0
v -704 95 0
v -704 31 0
v -512 959 0
v -512 1023 0
v -576 1023 0
v -576 959 0
v -288 703 0
v -288 767 0
v -352 767 0
v -352 703 0
v -192 63 0
v -192 127 0
v -224 127 0
v -224 63 0
v -192 767 0
v -192 799 0
v -256 799 0
v -256 767 0
v -800 479 0
v -800 543 0
v -832 543 0
v -832 479 0
v -800 319 0
v -800 383 0
v -832 383 0
v -832 319 0
v -192 159 0
v -192 223 0
v -224 223 0
v -224 159 0
v -608 0 0
v -608 31 0
v -672 31 0
v -672 0 0
v -832 735 0
v -832 799 0
v -840 799 0
v -840 735 0
v -160 575 0
v -160 639 0
v -192 639 0
v -192 575 0
v -704 831 0
v -704 863 0
v -768 863 0
v -768 831 0
v -480 127 0
v -480 191 0
v -512 191 0
v -512 127 0
v -64 159 0
v -64 223 0
v -96 223 0
v -96 159 0
v -256 223 0
v -256 255 0
v -320 255 0
v -320 223 0
v -480 191 0
v -480 255 0
v -512 255 0
v -512 191 0
v -192 223 0
v -192 255 0
v -256 255 0
v -256 223 0
v -64 223 0
v -64 287 0
v -96 287 0
v -96 223 0
v -608 863 0
v -608 927 0
v -640 927 0
v -640 863 0
v -128 575 0
v -128 607 0
v -160 607 0
v -160 575 0
v -64 671 0
v -64 703 0
v -96 703 0
v -96 671 0
v -96 31 0
v -96 63 0
v -128 63 0
v -128 31 0
v -160 31 0
v -160 63 0
v -192 63 0
v -192 31 0
v -448 223 0
v -448 255 0
v -480 255 0
v -480 223 0
v -704 63 0
v -704 95 0
v -736 95 0
v -736 63 0
v -320 767 0
v -320 799 0
v -352 799 0
v -352 767 0
v -800 287 0
v -800 319 0
v -832 319 0
v -832 287 0
v -800 447 0
v -800 479 0
v -832 479 0
v -832 447 0
v -608 831 0
v -608 863 0
v -640 863 0
v -640 831 0
v -384 959 0
v -384 991 0
v -416 991 0
v -416 959 0
v -768 831 0
v -768 863 0
v -800 863 0
v -800 831 0
v -192 31 0
v -192 63 0
v -224 63 0
v -224 31 0
vt 0.0009765625 0.00155282021
vt 0.0009765625 0.697204947
vt 0.313476562 0.697204947
vt 0.313476562 0.00155282021
vt 0.315429688 0.00155282021
vt 0.315429688 0.697204947
vt 0.596679688 0.697204947
vt 0.596679688 0.00155282021
vt 0.598632812 0.00155282021
vt 0.598632812 0.399068296
vt 0.848632812 0.399068296
vt 0.848632812 0.00155282021
vt 0.598632812 0.402173936
vt 0.598632812 0.650621116
vt 0.848632812 0.650621116
vt 0.848632812 0.402173936
vt 0.598632812 0.653726697
vt 0.598632812 0.852484465
vt 0.817382812 0.852484465
vt 0.817382812 0.653726697
vt 0.850585938 0.00155282021
vt 0.850585938 0.399068296
vt 0.944335938 0.399068296
vt 0.944335938 0.00155282021
vt 0.850585938 0.402173936
vt 0.850585938 0.799689412
vt 0.944335938 0.799689412
vt 0.944335938 0.402173936
vt 0.0009765625 0.700310588
vt 0.0009765625 0.99844718
vt 0.0947265625 0.99844718
vt 0.0947265625 0.700310588
vt 0.0966796875 0.700310588
vt 0.0966796875 0.799689412
vt 0.190429688 0.799689412
vt 0.190429688 0.700310588
vt 0.192382812 0.700310588
vt 0.192382812 0.799689412
vt 0.286132812 0.799689412
vt 0.286132812 0.700310588
vt 0.288085938 0.700310588
vt 0.288085938 0.799689412
vt 0.381835938 0.799689412
vt 0.381835938 0.700310588
vt 0.383789062 0.700310588
vt 0.383789062 0.799689412
vt 0.446289062 0.799689412
vt 0.446289062 0.700310588
vt 0.448242188 0.700310588
vt 0.448242188 0.799689412
vt 0.510742188 0.799689412
vt 0.510742188 0.700310588
vt 0.512695312 0.700310588
vt 0.512695312 0.799689412
vt 0.575195312 0.799689412
vt 0.575195312 0.700310588
vt 0.0966796875 0.802795053
vt 0.0966796875 0.902173936
vt 0.159179688 0.902173936
vt 0.159179688 0.802795053
vt 0.946289062 0.00155282021
vt 0.946289062 0.100931704
vt 0.977539062 0.100931704
vt 0.977539062 0.00155282021
vt 0.161132812 0.802795053
vt 0.161132812 0.852484465
vt 0.223632812 0.852484465
vt 0.223632812 0.802795053
vt 0.946289062 0.104037285
vt 0.946289062 0.203416169
vt 0.977539062 0.203416169
vt 0.977539062 0.104037285
vt 0.946289062 0.206521749
vt 0.946289062 0.305900633
vt 0.977539062 0.305900633
vt 0.977539062 0.206521749
vt 0.946289062 0.309006214
vt 0.946289062 0.408385098
vt 0.977539062 0.408385098
vt 0.977539062 0.309006214
vt 0.225585938 0.802795053
vt 0.225585938 0.852484465
vt 0.288085938 0.852484465
vt 0.288085938 0.802795053
vt 0.979492188 0.00155282021
vt 0.979492188 0.100931704
vt 0.98828125 0.100931704
vt 0.98828125 0.00155282021
vt 0.946289062 0.411490679
vt 0.946289062 0.510869563
vt 0.977539062 0.510869563
vt 0.977539062 0.411490679
vt 0.290039062 0.802795053
vt 0.290039062 0.852484465
vt 0.352539062 0.852484465
vt 0.352539062 0.802795053
vt 0.946289062 0.513975143
vt 0.946289062 0.613354027
vt 0.977539062 0.613354027
vt 0.977539062 0.513975143
vt 0.946289062 0.616459608
vt 0.946289062 0.715838552
vt 0.977539062 0.715838552
vt 0.977539062 0.616459608
vt 0.354492188 0.802795053
vt 0.354492188 0.852484465
vt 0.416992188 0.852484465
vt 0.416992188 0.802795053
vt 0.946289062 0.718944073
vt 0.946289062 0.818323016
vt 0.977539062 0.818323016
vt 0.977539062 0.718944073
vt 0.418945312 0.802795053
vt 0.418945312 0.852484465
vt 0.481445312 0.852484465
vt 0.481445312 0.802795053
vt 0.483398438 0.802795053
vt 0.483398438 0.902173936
vt 0.514648438 0.902173936
vt 0.514648438 0.802795053
vt 0.516601562 0.802795053
vt 0.516601562 0.902173936
vt 0.547851562 0.902173936
vt 0.547851562 0.802795053
vt 0.549804688 0.802795053
vt 0.549804688 0.852484465
vt 0.581054688 0.852484465
vt 0.581054688 0.802795053
vt 0.850585938 0.802795053
vt 0.850585938 0.852484465
vt 0.881835938 0.852484465
vt 0.881835938 0.802795053
vt 0.883789062 0.802795053
vt 0.883789062 0.852484465
vt 0.915039062 0.852484465
vt 0.915039062 0.802795053
vt 0.946289062 0.821428537
vt 0.946289062 0.871118009
vt 0.977539062 0.871118009
vt 0.977539062 0.821428537
vt 0.161132812 0.855590045
vt 0.161132812 0.905279517
vt 0.192382812 0.905279517
vt 0.192382812 0.855590045
vt 0.194335938 0.855590045
vt 0.194335938 0.905279517
vt 0.225585938 0.905279517
vt 0.225585938 0.855590045
vt 0.227539062 0.855590045
vt 0.227539062 0.905279517
vt 0.258789062 0.905279517
vt 0.258789062 0.855590045
vt 0.260742188 0.855590045
vt 0.260742188 0.905279517
vt 0.291992188 0.905279517
vt 0.291992188 0.855590045
vt 0.293945312 0.855590045
vt 0.293945312 0.905279517
vt 0.325195312 0.905279517
vt 0.325195312 0.855590045
vt 0.327148438 0.855590045
vt 0.327148438 0.905279517
vt 0.358398438 0.905279517
vt 0.358398438 0.855590045
vt 0.360351562 0.855590045
vt 0.360351562 0.905279517
vt 0.391601562 0.905279517
vt 0.391601562 0.855590045
vt 0.393554688 0.855590045
vt 0.393554688 0.905279517
vt 0.424804688 0.905279517
vt 0.424804688 0.855590045
vt 0.426757812 0.855590045
vt 0.426757812 0.905279517
vt 0.458007812 0.905279517
vt 0.458007812 0.855590045
g ougen_h-mesh_0
f 3/3/3 2/2/2 1/1/1
f 1/1/1 4/4/4 3/3/3
f 7/7/7 6/6/6 5/5/5
f 5/5/5 8/8/8 7/7/7
f 11/11/11 10/10/10 9/9/9
f 9/9/9 12/12/12 11/11/11
f 15/15/15 14/14/14 13/13/13
f 13/13/13 16/16/16 15/15/15
f 19/19/19 18/18/18 17/17/17
f 17/17/17 20/20/20 19/19/19
f 23/23/23 22/22/22 21/21/21
f 21/21/21 24/24/24 23/23/23
f 27/27/27 26/26/26 25/25/25
f 25/25/25 28/28/28 27/27/27
f 31/31/31 30/30/30 29/29/29
f 29/29/29 32/32/32 31/31/31
f 35/35/35 34/34/34 33/33/33
f 33/33/33 36/36/36 35/35/35
f 39/39/39 38/38/38 37/37/37
f 37/37/37 40/40/40 39/39/39
f 43/43/43 42/42/42 41/41/41
f 41/41/41 44/44/44 43/43/43
f 47/47/47 46/46/46 45/45/45
f 45/45/45 48/48/48 47/47/47
f 51/51/51 50/50/50 49/49/49
f 49/49/49 52/52/52 51/51/51
f 55/55/55 54/54/54 53/53/53
f 53/53/53 56/56/56 55/55/55
f 59/59/59 58/58/58 57/57/57
f 57/57/57 60/60/60 59/59/59
f 63/63/63 62/62/62 61/61/61
f 61/61/61 64/64/64 63/63/63
f 67/67/67 66/66/66 65/65/65
f 65/65/65 68/68/68 67/67/67
f 71/71/71 70/70/70 69/69/69
f 69/69/69 72/72/72 71/71/71
f 75/75/75 74/74/74 73/73/73
f 73/73/73 76/76/76 75/75/75
f 79/79/79 78/78/78 77/77/77
f 77/77/77 80/80/80 79/79/79
f 83/83/83 82/82/82 81/81/81
f 81/81/81 84/84/84 83/83/83
f 87/87/87 86/86/86 85/85/85
f 85/85/85 88/88/88 87/87/87
f 91/91/91 90/90/90 89/89/89
f 89/89/89 92/92/92 91/91/91
f 95/95/95 94/94/94 93/93/93
f 93/93/93 96/96/96 95/95/95
f 99/99/99 98/98/98 97/97/97
f 97/97/97 100/100/100 99/99/99
f 103/103/103 102/102/102 101/101/101
f 101/101/101 104/104/104 103/103/103
f 107/107/107 106/106/106 105/105/105
f 105/105/105 108/108/108 107/107/107
f 111/111/111 110/110/110 109/109/109
f 109/109/109 112/112/112 111/111/111
f 115/115/115 114/114/114 113/113/113
f 113/113/113 116/116/116 115/115/115
f 119/119/119 118/118/118 117/117/117
f 117/117/117 120/120/120 119/119/119
f 123/123/123 122/122/122 121/121/121
f 121/121/121 124/124/124 123/123/123
f 127/127/127 126/126/126 125/125/125
f 125/125/125 128/128/128 127/127/127
f 131/131/131 130/130/130 129/129/129
f 129/129/129 132/132/132 131/131/131
f 135/135/135 134/134/134 133/133/133
f 133/133/133 136/136/136 135/135/135
f 139/139/139 138/138/138 137/137/137
f 137/137/137 140/140/140 139/139/139
f 143/143/143 142/142/142 141/141/141
f 141/141/141 144/144/144 143/143/143
f 147/147/147 146/146/146 145/145/145
f 145/145/145 148/148/148 147/147/147
f 151/151/151 150/150/150 149/149/149
f 149/149/149 152/152/152 151/151/151
f 155/155/155 154/154/154 153/153/153
f 153/153/153 156/156/156 155/155/155
f 159/159/159 158/158/158 157/157/157
f 157/157/157 160/160/160 159/159/159
f 163/163/163 162/162/162 161/161/161
f 161/161/161 164/164/164 163/163/163
f 167/167/167 166/166/166 165/165/165
f 165/165/165 168/168/168 167/167/167
f 171/171/171 170/170/170 169/169/169
f 169/169/169 172/172/172 171/171/171
f 175/175/175 174/174/174 173/173/173
f 173/173/173 176/176/176 175/175/175
