g haerbin_rw2-mesh
v -480 161 0
v -480 705 0
v -1184 705 0
v -1184 161 0
v -480 705 0
v -480 1249 0
v -1184 1249 0
v -1184 705 0
v -1184 449 0
v -1184 897 0
v -1375 897 0
v -1375 449 0
v -1184 897 0
v -1184 1345 0
v -1375 1345 0
v -1375 897 0
v -160 513 0
v -160 705 0
v -352 705 0
v -352 513 0
v -352 833 0
v -352 1121 0
v -480 1121 0
v -480 833 0
v -352 577 0
v -352 833 0
v -480 833 0
v -480 577 0
v -192 961 0
v -192 1153 0
v -352 1153 0
v -352 961 0
v -960 33 0
v -960 161 0
v -1152 161 0
v -1152 33 0
v -320 1153 0
v -320 1281 0
v -480 1281 0
v -480 1153 0
v -1056 1249 0
v -1056 1409 0
v -1184 1409 0
v -1184 1249 0
v -64 865 0
v -64 961 0
v -256 961 0
v -256 865 0
v -256 705 0
v -256 833 0
v -352 833 0
v -352 705 0
v -608 1249 0
v -608 1313 0
v -736 1313 0
v -736 1249 0
v -480 1249 0
v -480 1313 0
v -608 1313 0
v -608 1249 0
v -512 129 0
v -512 161 0
v -736 161 0
v -736 129 0
v -736 129 0
v -736 161 0
v -960 161 0
v -960 129 0
v -0 801 0
v -0 897 0
v -64 897 0
v -64 801 0
v -1184 1345 0
v -1184 1441 0
v -1248 1441 0
v -1248 1345 0
v -448 321 0
v -448 449 0
v -480 449 0
v -480 321 0
v -1184 321 0
v -1184 449 0
v -1216 449 0
v -1216 321 0
v -160 417 0
v -160 481 0
v -224 481 0
v -224 417 0
v -768 1249 0
v -768 1313 0
v -832 1313 0
v -832 1249 0
v -160 481 0
v -160 513 0
v -256 513 0
v -256 481 0
v -96 1185 0
v -96 1217 0
v -192 1217 0
v -192 1185 0
v -896 1249 0
v -896 1281 0
v -992 1281 0
v -992 1249 0
v -128 1217 0
v -128 1249 0
v -224 1249 0
v -224 1217 0
v -448 225 0
v -448 321 0
v -480 321 0
v -480 225 0
v -1184 225 0
v -1184 321 0
v -1216 321 0
v -1216 225 0
v -224 1217 0
v -224 1249 0
v -320 1249 0
v -320 1217 0
v -1248 1345 0
v -1248 1409 0
v -1280 1409 0
v -1280 1345 0
v -1312 1345 0
v -1312 1377 0
v -1375 1377 0
v -1375 1345 0
v -384 1121 0
v -384 1153 0
v -448 1153 0
v -448 1121 0
v -1024 1281 0
v -1024 1345 0
v -1056 1345 0
v -1056 1281 0
v -96 545 0
v -96 609 0
v -128 609 0
v -128 545 0
v -96 961 0
v -96 993 0
v -160 993 0
v -160 961 0
v -1024 1 0
v -1024 33 0
v -1088 33 0
v -1088 1 0
v -864 97 0
v -864 129 0
v -928 129 0
v -928 97 0
v -448 513 0
v -448 577 0
v -480 577 0
v -480 513 0
v -128 833 0
v -128 865 0
v -192 865 0
v -192 833 0
v -704 65 0
v -704 129 0
v -736 129 0
v -736 65 0
v -416 321 0
v -416 385 0
v -448 385 0
v -448 321 0
v -256 865 0
v -256 929 0
v -288 929 0
v -288 865 0
v -96 1153 0
v -96 1185 0
v -160 1185 0
v -160 1153 0
v -288 1153 0
v -288 1217 0
v -320 1217 0
v -320 1153 0
v -320 897 0
v -320 961 0
v -352 961 0
v -352 897 0
v -128 1089 0
v -128 1121 0
v -192 1121 0
v -192 1089 0
v -416 513 0
v -416 577 0
v -448 577 0
v -448 513 0
v -128 545 0
v -128 609 0
v -160 609 0
v -160 545 0
v -416 449 0
v -416 513 0
v -448 513 0
v -448 449 0
v -1216 321 0
v -1216 385 0
v -1248 385 0
v -1248 321 0
v -1216 385 0
v -1216 449 0
v -1248 449 0
v -1248 385 0
v -192 1185 0
v -192 1217 0
v -256 1217 0
v -256 1185 0
v -992 1249 0
v -992 1281 0
v -1056 1281 0
v -1056 1249 0
v -288 897 0
v -288 961 0
v -320 961 0
v -320 897 0
v -128 609 0
v -128 673 0
v -160 673 0
v -160 609 0
v -288 833 0
v -288 897 0
v -320 897 0
v -320 833 0
v -544 97 0
v -544 129 0
v -608 129 0
v -608 97 0
v -1088 1409 0
v -1088 1441 0
v -1152 1441 0
v -1152 1409 0
v -256 481 0
v -256 513 0
v -320 513 0
v -320 481 0
v -480 1313 0
v -480 1345 0
v -544 1345 0
v -544 1313 0
v -608 97 0
v -608 129 0
v -672 129 0
v -672 97 0
v -352 545 0
v -352 577 0
v -384 577 0
v -384 545 0
v -32 897 0
v -32 929 0
v -64 929 0
v -64 897 0
v -320 833 0
v -320 865 0
v -352 865 0
v -352 833 0
v -160 993 0
v -160 1025 0
v -192 1025 0
v -192 993 0
v -64 833 0
v -64 865 0
v -96 865 0
v -96 833 0
v -928 65 0
v -928 97 0
v -960 97 0
v -960 65 0
v -736 97 0
v -736 129 0
v -768 129 0
v -768 97 0
v -1152 129 0
v -1152 161 0
v -1184 161 0
v -1184 129 0
v -160 385 0
v -160 417 0
v -192 417 0
v -192 385 0
v -1248 417 0
v -1248 449 0
v -1280 449 0
v -1280 417 0
v -1344 417 0
v -1344 449 0
v -1375 449 0
v -1375 417 0
v -672 65 0
v -672 97 0
v -704 97 0
v -704 65 0
v -256 1153 0
v -256 1185 0
v -288 1185 0
v -288 1153 0
v -96 513 0
v -96 545 0
v -128 545 0
v -128 513 0
v -928 97 0
v -928 129 0
v -960 129 0
v -960 97 0
v -1088 1 0
v -1088 33 0
v -1120 33 0
v -1120 1 0
v -448 1121 0
v -448 1153 0
v -480 1153 0
v -480 1121 0
v -160 961 0
v -160 993 0
v -192 993 0
v -192 961 0
v -1152 1409 0
v -1152 1441 0
v -1184 1441 0
v -1184 1409 0
v -992 1281 0
v -992 1313 0
v -1024 1313 0
v -1024 1281 0
v -736 1249 0
v -736 1281 0
v -768 1281 0
v -768 1249 0
v -832 1249 0
v -832 1281 0
v -864 1281 0
v -864 1249 0
v -544 1313 0
v -544 1345 0
v -576 1345 0
v -576 1313 0
v -1184 1505 0
v -1184 1537 0
v -1216 1537 0
v -1216 1505 0
v -1344 1441 0
v -1344 1473 0
v -1375 1473 0
v -1375 1441 0
vt 0.00048828125 0.00140058994
vt 0.00048828125 0.763305306
vt 0.344238281 0.763305306
vt 0.344238281 0.00140058994
vt 0.345214844 0.00140058994
vt 0.345214844 0.763305306
vt 0.688964844 0.763305306
vt 0.688964844 0.00140058994
vt 0.689941406 0.00140058994
vt 0.689941406 0.628851533
vt 0.783691406 0.628851533
vt 0.783691406 0.00140058994
vt 0.784667969 0.00140058994
vt 0.784667969 0.628851533
vt 0.878417969 0.628851533
vt 0.878417969 0.00140058994
vt 0.879394531 0.00140058994
vt 0.879394531 0.270308137
vt 0.973144531 0.270308137
vt 0.973144531 0.00140058994
vt 0.879394531 0.273109257
vt 0.879394531 0.676470578
vt 0.941894531 0.676470578
vt 0.941894531 0.273109257
vt 0.689941406 0.631652653
vt 0.689941406 0.990196049
vt 0.752441406 0.990196049
vt 0.752441406 0.631652653
vt 0.753417969 0.631652653
vt 0.753417969 0.9005602
vt 0.831542969 0.9005602
vt 0.831542969 0.631652653
vt 0.879394531 0.679271698
vt 0.879394531 0.858543396
vt 0.973144531 0.858543396
vt 0.973144531 0.679271698
vt 0.00048828125 0.766106427
vt 0.00048828125 0.945378125
vt 0.0786132812 0.945378125
vt 0.0786132812 0.766106427
vt 0.0795898438 0.766106427
vt 0.0795898438 0.990196049
vt 0.142089844 0.990196049
vt 0.142089844 0.766106427
vt 0.143066406 0.766106427
vt 0.143066406 0.9005602
vt 0.236816406 0.9005602
vt 0.236816406 0.766106427
vt 0.237792969 0.766106427
vt 0.237792969 0.945378125
vt 0.284667969 0.945378125
vt 0.284667969 0.766106427
vt 0.285644531 0.766106427
vt 0.285644531 0.855742276
vt 0.348144531 0.855742276
vt 0.348144531 0.766106427
vt 0.349121094 0.766106427
vt 0.349121094 0.855742276
vt 0.411621094 0.855742276
vt 0.411621094 0.766106427
vt 0.412597656 0.766106427
vt 0.412597656 0.810924351
vt 0.521972656 0.810924351
vt 0.521972656 0.766106427
vt 0.522949219 0.766106427
vt 0.522949219 0.810924351
vt 0.632324219 0.810924351
vt 0.632324219 0.766106427
vt 0.832519531 0.631652653
vt 0.832519531 0.766106427
vt 0.863769531 0.766106427
vt 0.863769531 0.631652653
vt 0.633300781 0.766106427
vt 0.633300781 0.9005602
vt 0.664550781 0.9005602
vt 0.664550781 0.766106427
vt 0.974121094 0.00140058994
vt 0.974121094 0.180672288
vt 0.989746094 0.180672288
vt 0.989746094 0.00140058994
vt 0.974121094 0.183473408
vt 0.974121094 0.362745106
vt 0.989746094 0.362745106
vt 0.989746094 0.183473408
vt 0.832519531 0.768907547
vt 0.832519531 0.858543396
vt 0.863769531 0.858543396
vt 0.863769531 0.768907547
vt 0.412597656 0.813725471
vt 0.412597656 0.90336132
vt 0.443847656 0.90336132
vt 0.443847656 0.813725471
vt 0.444824219 0.813725471
vt 0.444824219 0.858543396
vt 0.491699219 0.858543396
vt 0.491699219 0.813725471
vt 0.492675781 0.813725471
vt 0.492675781 0.858543396
vt 0.539550781 0.858543396
vt 0.539550781 0.813725471
vt 0.540527344 0.813725471
vt 0.540527344 0.858543396
vt 0.587402344 0.858543396
vt 0.587402344 0.813725471
vt 0.285644531 0.858543396
vt 0.285644531 0.90336132
vt 0.332519531 0.90336132
vt 0.332519531 0.858543396
vt 0.974121094 0.365546227
vt 0.974121094 0.5
vt 0.989746094 0.5
vt 0.989746094 0.365546227
vt 0.974121094 0.50280112
vt 0.974121094 0.637254894
vt 0.989746094 0.637254894
vt 0.989746094 0.50280112
vt 0.333496094 0.858543396
vt 0.333496094 0.90336132
vt 0.380371094 0.90336132
vt 0.380371094 0.858543396
vt 0.974121094 0.640056014
vt 0.974121094 0.729691863
vt 0.989746094 0.729691863
vt 0.989746094 0.640056014
vt 0.588378906 0.813725471
vt 0.588378906 0.858543396
vt 0.619628906 0.858543396
vt 0.619628906 0.813725471
vt 0.444824219 0.861344516
vt 0.444824219 0.906162441
vt 0.476074219 0.906162441
vt 0.476074219 0.861344516
vt 0.974121094 0.732492983
vt 0.974121094 0.822128832
vt 0.989746094 0.822128832
vt 0.989746094 0.732492983
vt 0.665527344 0.766106427
vt 0.665527344 0.855742276
vt 0.681152344 0.855742276
vt 0.681152344 0.766106427
vt 0.477050781 0.861344516
vt 0.477050781 0.906162441
vt 0.508300781 0.906162441
vt 0.508300781 0.861344516
vt 0.509277344 0.861344516
vt 0.509277344 0.906162441
vt 0.540527344 0.906162441
vt 0.540527344 0.861344516
vt 0.541503906 0.861344516
vt 0.541503906 0.906162441
vt 0.572753906 0.906162441
vt 0.572753906 0.861344516
vt 0.974121094 0.824929953
vt 0.974121094 0.914565802
vt 0.989746094 0.914565802
vt 0.989746094 0.824929953
vt 0.573730469 0.861344516
vt 0.573730469 0.906162441
vt 0.604980469 0.906162441
vt 0.604980469 0.861344516
vt 0.381347656 0.858543396
vt 0.381347656 0.948179245
vt 0.396972656 0.948179245
vt 0.396972656 0.858543396
vt 0.665527344 0.858543396
vt 0.665527344 0.948179245
vt 0.681152344 0.948179245
vt 0.681152344 0.858543396
vt 0.605957031 0.861344516
vt 0.605957031 0.950980365
vt 0.621582031 0.950980365
vt 0.621582031 0.861344516
vt 0.832519531 0.861344516
vt 0.832519531 0.906162441
vt 0.863769531 0.906162441
vt 0.863769531 0.861344516
vt 0.879394531 0.861344516
vt 0.879394531 0.950980365
vt 0.895019531 0.950980365
vt 0.895019531 0.861344516
vt 0.895996094 0.861344516
vt 0.895996094 0.950980365
vt 0.911621094 0.950980365
vt 0.911621094 0.861344516
vt 0.912597656 0.861344516
vt 0.912597656 0.906162441
vt 0.943847656 0.906162441
vt 0.943847656 0.861344516
vt 0.944824219 0.861344516
vt 0.944824219 0.950980365
vt 0.960449219 0.950980365
vt 0.960449219 0.861344516
vt 0.143066406 0.90336132
vt 0.143066406 0.992997169
vt 0.158691406 0.992997169
vt 0.158691406 0.90336132
vt 0.159667969 0.90336132
vt 0.159667969 0.992997169
vt 0.175292969 0.992997169
vt 0.175292969 0.90336132
vt 0.176269531 0.90336132
vt 0.176269531 0.992997169
vt 0.191894531 0.992997169
vt 0.191894531 0.90336132
vt 0.192871094 0.90336132
vt 0.192871094 0.992997169
vt 0.208496094 0.992997169
vt 0.208496094 0.90336132
vt 0.633300781 0.90336132
vt 0.633300781 0.948179245
vt 0.664550781 0.948179245
vt 0.664550781 0.90336132
vt 0.753417969 0.90336132
vt 0.753417969 0.948179245
vt 0.784667969 0.948179245
vt 0.784667969 0.90336132
vt 0.209472656 0.90336132
vt 0.209472656 0.992997169
vt 0.225097656 0.992997169
vt 0.225097656 0.90336132
vt 0.785644531 0.90336132
vt 0.785644531 0.992997169
vt 0.801269531 0.992997169
vt 0.801269531 0.90336132
vt 0.802246094 0.90336132
vt 0.802246094 0.992997169
vt 0.817871094 0.992997169
vt 0.817871094 0.90336132
vt 0.285644531 0.906162441
vt 0.285644531 0.950980365
vt 0.316894531 0.950980365
vt 0.316894531 0.906162441
vt 0.317871094 0.906162441
vt 0.317871094 0.950980365
vt 0.349121094 0.950980365
vt 0.349121094 0.906162441
vt 0.412597656 0.906162441
vt 0.412597656 0.950980365
vt 0.443847656 0.950980365
vt 0.443847656 0.906162441
vt 0.444824219 0.908963561
vt 0.444824219 0.953781486
vt 0.476074219 0.953781486
vt 0.476074219 0.908963561
vt 0.477050781 0.908963561
vt 0.477050781 0.953781486
vt 0.508300781 0.953781486
vt 0.508300781 0.908963561
vt 0.350097656 0.906162441
vt 0.350097656 0.950980365
vt 0.365722656 0.950980365
vt 0.365722656 0.906162441
vt 0.509277344 0.908963561
vt 0.509277344 0.953781486
vt 0.524902344 0.953781486
vt 0.524902344 0.908963561
vt 0.525878906 0.908963561
vt 0.525878906 0.953781486
vt 0.541503906 0.953781486
vt 0.541503906 0.908963561
vt 0.542480469 0.908963561
vt 0.542480469 0.953781486
vt 0.558105469 0.953781486
vt 0.558105469 0.908963561
vt 0.559082031 0.908963561
vt 0.559082031 0.953781486
vt 0.574707031 0.953781486
vt 0.574707031 0.908963561
vt 0.575683594 0.908963561
vt 0.575683594 0.953781486
vt 0.591308594 0.953781486
vt 0.591308594 0.908963561
vt 0.832519531 0.908963561
vt 0.832519531 0.953781486
vt 0.848144531 0.953781486
vt 0.848144531 0.908963561
vt 0.849121094 0.908963561
vt 0.849121094 0.953781486
vt 0.864746094 0.953781486
vt 0.864746094 0.908963561
vt 0.912597656 0.908963561
vt 0.912597656 0.953781486
vt 0.928222656 0.953781486
vt 0.928222656 0.908963561
vt 0.974121094 0.917366922
vt 0.974121094 0.962184846
vt 0.989746094 0.962184846
vt 0.989746094 0.917366922
vt 0.00048828125 0.948179245
vt 0.00048828125 0.992997169
vt 0.0161132812 0.992997169
vt 0.0161132812 0.948179245
vt 0.0170898438 0.948179245
vt 0.0170898438 0.992997169
vt 0.0327148438 0.992997169
vt 0.0327148438 0.948179245
vt 0.0336914062 0.948179245
vt 0.0336914062 0.992997169
vt 0.0493164062 0.992997169
vt 0.0493164062 0.948179245
vt 0.0502929688 0.948179245
vt 0.0502929688 0.992997169
vt 0.0659179688 0.992997169
vt 0.0659179688 0.948179245
vt 0.237792969 0.948179245
vt 0.237792969 0.992997169
vt 0.253417969 0.992997169
vt 0.253417969 0.948179245
vt 0.254394531 0.948179245
vt 0.254394531 0.992997169
vt 0.270019531 0.992997169
vt 0.270019531 0.948179245
vt 0.381347656 0.950980365
vt 0.381347656 0.99579829
vt 0.396972656 0.99579829
vt 0.396972656 0.950980365
vt 0.633300781 0.950980365
vt 0.633300781 0.99579829
vt 0.648925781 0.99579829
vt 0.648925781 0.950980365
vt 0.649902344 0.950980365
vt 0.649902344 0.99579829
vt 0.665527344 0.99579829
vt 0.665527344 0.950980365
vt 0.666503906 0.950980365
vt 0.666503906 0.99579829
vt 0.682128906 0.99579829
vt 0.682128906 0.950980365
vt 0.753417969 0.950980365
vt 0.753417969 0.99579829
vt 0.769042969 0.99579829
vt 0.769042969 0.950980365
vt 0.285644531 0.953781486
vt 0.285644531 0.99859941
vt 0.301269531 0.99859941
vt 0.301269531 0.953781486
vt 0.302246094 0.953781486
vt 0.302246094 0.99859941
vt 0.317871094 0.99859941
vt 0.317871094 0.953781486
vt 0.318847656 0.953781486
vt 0.318847656 0.99859941
vt 0.334472656 0.99859941
vt 0.334472656 0.953781486
vt 0.335449219 0.953781486
vt 0.335449219 0.99859941
vt 0.351074219 0.99859941
vt 0.351074219 0.953781486
g haerbin_rw2-mesh_0
f 3/3/3 2/2/2 1/1/1
f 1/1/1 4/4/4 3/3/3
f 7/7/7 6/6/6 5/5/5
f 5/5/5 8/8/8 7/7/7
f 11/11/11 10/10/10 9/9/9
f 9/9/9 12/12/12 11/11/11
f 15/15/15 14/14/14 13/13/13
f 13/13/13 16/16/16 15/15/15
f 19/19/19 18/18/18 17/17/17
f 17/17/17 20/20/20 19/19/19
f 23/23/23 22/22/22 21/21/21
f 21/21/21 24/24/24 23/23/23
f 27/27/27 26/26/26 25/25/25
f 25/25/25 28/28/28 27/27/27
f 31/31/31 30/30/30 29/29/29
f 29/29/29 32/32/32 31/31/31
f 35/35/35 34/34/34 33/33/33
f 33/33/33 36/36/36 35/35/35
f 39/39/39 38/38/38 37/37/37
f 37/37/37 40/40/40 39/39/39
f 43/43/43 42/42/42 41/41/41
f 41/41/41 44/44/44 43/43/43
f 47/47/47 46/46/46 45/45/45
f 45/45/45 48/48/48 47/47/47
f 51/51/51 50/50/50 49/49/49
f 49/49/49 52/52/52 51/51/51
f 55/55/55 54/54/54 53/53/53
f 53/53/53 56/56/56 55/55/55
f 59/59/59 58/58/58 57/57/57
f 57/57/57 60/60/60 59/59/59
f 63/63/63 62/62/62 61/61/61
f 61/61/61 64/64/64 63/63/63
f 67/67/67 66/66/66 65/65/65
f 65/65/65 68/68/68 67/67/67
f 71/71/71 70/70/70 69/69/69
f 69/69/69 72/72/72 71/71/71
f 75/75/75 74/74/74 73/73/73
f 73/73/73 76/76/76 75/75/75
f 79/79/79 78/78/78 77/77/77
f 77/77/77 80/80/80 79/79/79
f 83/83/83 82/82/82 81/81/81
f 81/81/81 84/84/84 83/83/83
f 87/87/87 86/86/86 85/85/85
f 85/85/85 88/88/88 87/87/87
f 91/91/91 90/90/90 89/89/89
f 89/89/89 92/92/92 91/91/91
f 95/95/95 94/94/94 93/93/93
f 93/93/93 96/96/96 95/95/95
f 99/99/99 98/98/98 97/97/97
f 97/97/97 100/100/100 99/99/99
f 103/103/103 102/102/102 101/101/101
f 101/101/101 104/104/104 103/103/103
f 107/107/107 106/106/106 105/105/105
f 105/105/105 108/108/108 107/107/107
f 111/111/111 110/110/110 109/109/109
f 109/109/109 112/112/112 111/111/111
f 115/115/115 114/114/114 113/113/113
f 113/113/113 116/116/116 115/115/115
f 119/119/119 118/118/118 117/117/117
f 117/117/117 120/120/120 119/119/119
f 123/123/123 122/122/122 121/121/121
f 121/121/121 124/124/124 123/123/123
f 127/127/127 126/126/126 125/125/125
f 125/125/125 128/128/128 127/127/127
f 131/131/131 130/130/130 129/129/129
f 129/129/129 132/132/132 131/131/131
f 135/135/135 134/134/134 133/133/133
f 133/133/133 136/136/136 135/135/135
f 139/139/139 138/138/138 137/137/137
f 137/137/137 140/140/140 139/139/139
f 143/143/143 142/142/142 141/141/141
f 141/141/141 144/144/144 143/143/143
f 147/147/147 146/146/146 145/145/145
f 145/145/145 148/148/148 147/147/147
f 151/151/151 150/150/150 149/149/149
f 149/149/149 152/152/152 151/151/151
f 155/155/155 154/154/154 153/153/153
f 153/153/153 156/156/156 155/155/155
f 159/159/159 158/158/158 157/157/157
f 157/157/157 160/160/160 159/159/159
f 163/163/163 162/162/162 161/161/161
f 161/161/161 164/164/164 163/163/163
f 167/167/167 166/166/166 165/165/165
f 165/165/165 168/168/168 167/167/167
f 171/171/171 170/170/170 169/169/169
f 169/169/169 172/172/172 171/171/171
f 175/175/175 174/174/174 173/173/173
f 173/173/173 176/176/176 175/175/175
f 179/179/179 178/178/178 177/177/177
f 177/177/177 180/180/180 179/179/179
f 183/183/183 182/182/182 181/181/181
f 181/181/181 184/184/184 183/183/183
f 187/187/187 186/186/186 185/185/185
f 185/185/185 188/188/188 187/187/187
f 191/191/191 190/190/190 189/189/189
f 189/189/189 192/192/192 191/191/191
f 195/195/195 194/194/194 193/193/193
f 193/193/193 196/196/196 195/195/195
f 199/199/199 198/198/198 197/197/197
f 197/197/197 200/200/200 199/199/199
f 203/203/203 202/202/202 201/201/201
f 201/201/201 204/204/204 203/203/203
f 207/207/207 206/206/206 205/205/205
f 205/205/205 208/208/208 207/207/207
f 211/211/211 210/210/210 209/209/209
f 209/209/209 212/212/212 211/211/211
f 215/215/215 214/214/214 213/213/213
f 213/213/213 216/216/216 215/215/215
f 219/219/219 218/218/218 217/217/217
f 217/217/217 220/220/220 219/219/219
f 223/223/223 222/222/222 221/221/221
f 221/221/221 224/224/224 223/223/223
f 227/227/227 226/226/226 225/225/225
f 225/225/225 228/228/228 227/227/227
f 231/231/231 230/230/230 229/229/229
f 229/229/229 232/232/232 231/231/231
f 235/235/235 234/234/234 233/233/233
f 233/233/233 236/236/236 235/235/235
f 239/239/239 238/238/238 237/237/237
f 237/237/237 240/240/240 239/239/239
f 243/243/243 242/242/242 241/241/241
f 241/241/241 244/244/244 243/243/243
f 247/247/247 246/246/246 245/245/245
f 245/245/245 248/248/248 247/247/247
f 251/251/251 250/250/250 249/249/249
f 249/249/249 252/252/252 251/251/251
f 255/255/255 254/254/254 253/253/253
f 253/253/253 256/256/256 255/255/255
f 259/259/259 258/258/258 257/257/257
f 257/257/257 260/260/260 259/259/259
f 263/263/263 262/262/262 261/261/261
f 261/261/261 264/264/264 263/263/263
f 267/267/267 266/266/266 265/265/265
f 265/265/265 268/268/268 267/267/267
f 271/271/271 270/270/270 269/269/269
f 269/269/269 272/272/272 271/271/271
f 275/275/275 274/274/274 273/273/273
f 273/273/273 276/276/276 275/275/275
f 279/279/279 278/278/278 277/277/277
f 277/277/277 280/280/280 279/279/279
f 283/283/283 282/282/282 281/281/281
f 281/281/281 284/284/284 283/283/283
f 287/287/287 286/286/286 285/285/285
f 285/285/285 288/288/288 287/287/287
f 291/291/291 290/290/290 289/289/289
f 289/289/289 292/292/292 291/291/291
f 295/295/295 294/294/294 293/293/293
f 293/293/293 296/296/296 295/295/295
f 299/299/299 298/298/298 297/297/297
f 297/297/297 300/300/300 299/299/299
f 303/303/303 302/302/302 301/301/301
f 301/301/301 304/304/304 303/303/303
f 307/307/307 306/306/306 305/305/305
f 305/305/305 308/308/308 307/307/307
f 311/311/311 310/310/310 309/309/309
f 309/309/309 312/312/312 311/311/311
f 315/315/315 314/314/314 313/313/313
f 313/313/313 316/316/316 315/315/315
f 319/319/319 318/318/318 317/317/317
f 317/317/317 320/320/320 319/319/319
f 323/323/323 322/322/322 321/321/321
f 321/321/321 324/324/324 323/323/323
f 327/327/327 326/326/326 325/325/325
f 325/325/325 328/328/328 327/327/327
f 331/331/331 330/330/330 329/329/329
f 329/329/329 332/332/332 331/331/331
f 335/335/335 334/334/334 333/333/333
f 333/333/333 336/336/336 335/335/335
f 339/339/339 338/338/338 337/337/337
f 337/337/337 340/340/340 339/339/339
f 343/343/343 342/342/342 341/341/341
f 341/341/341 344/344/344 343/343/343
f 347/347/347 346/346/346 345/345/345
f 345/345/345 348/348/348 347/347/347
