g biaoqiang_2-mesh
v -160 287 0
v -160 607 0
v -416 607 0
v -416 287 0
v -160 607 0
v -160 927 0
v -416 927 0
v -416 607 0
v -32 319 0
v -32 543 0
v -160 543 0
v -160 319 0
v -256 127 0
v -256 255 0
v -352 255 0
v -352 127 0
v -96 735 0
v -96 895 0
v -160 895 0
v -160 735 0
v -224 31 0
v -224 127 0
v -320 127 0
v -320 31 0
v -96 607 0
v -96 735 0
v -160 735 0
v -160 607 0
v -416 351 0
v -416 543 0
v -448 543 0
v -448 351 0
v -160 927 0
v -160 991 0
v -256 991 0
v -256 927 0
v -256 927 0
v -256 991 0
v -352 991 0
v -352 927 0
v -416 543 0
v -416 735 0
v -448 735 0
v -448 543 0
v -160 223 0
v -160 287 0
v -224 287 0
v -224 223 0
v -0 415 0
v -0 511 0
v -32 511 0
v -32 415 0
v -64 703 0
v -64 799 0
v -96 799 0
v -96 703 0
v -64 607 0
v -64 703 0
v -96 703 0
v -96 607 0
v -224 991 0
v -224 1023 0
v -288 1023 0
v -288 991 0
v -192 0 0
v -192 31 0
v -256 31 0
v -256 0 0
v -128 255 0
v -128 319 0
v -160 319 0
v -160 255 0
v -32 543 0
v -32 575 0
v -96 575 0
v -96 543 0
v -128 895 0
v -128 959 0
v -160 959 0
v -160 895 0
v -448 415 0
v -448 479 0
v -460 479 0
v -460 415 0
v -448 479 0
v -448 543 0
v -460 543 0
v -460 479 0
v -0 351 0
v -0 415 0
v -32 415 0
v -32 351 0
v -256 255 0
v -256 287 0
v -320 287 0
v -320 255 0
v -320 255 0
v -320 287 0
v -384 287 0
v -384 255 0
v -128 575 0
v -128 607 0
v -160 607 0
v -160 575 0
v -192 31 0
v -192 63 0
v -224 63 0
v -224 31 0
v -352 927 0
v -352 959 0
v -384 959 0
v -384 927 0
v -288 991 0
v -288 1023 0
v -320 1023 0
v -320 991 0
v -256 0 0
v -256 31 0
v -288 31 0
v -288 0 0
vt 0.0009765625 0.00304877758
vt 0.0009765625 0.978658557
vt 0.250976562 0.978658557
vt 0.250976562 0.00304877758
vt 0.252929688 0.00304877758
vt 0.252929688 0.978658557
vt 0.502929688 0.978658557
vt 0.502929688 0.00304877758
vt 0.504882812 0.00304877758
vt 0.504882812 0.685975611
vt 0.629882812 0.685975611
vt 0.629882812 0.00304877758
vt 0.631835938 0.00304877758
vt 0.631835938 0.393292665
vt 0.725585938 0.393292665
vt 0.725585938 0.00304877758
vt 0.727539062 0.00304877758
vt 0.727539062 0.490853667
vt 0.790039062 0.490853667
vt 0.790039062 0.00304877758
vt 0.791992188 0.00304877758
vt 0.791992188 0.295731723
vt 0.885742188 0.295731723
vt 0.885742188 0.00304877758
vt 0.887695312 0.00304877758
vt 0.887695312 0.393292665
vt 0.950195312 0.393292665
vt 0.950195312 0.00304877758
vt 0.952148438 0.00304877758
vt 0.952148438 0.588414669
vt 0.983398438 0.588414669
vt 0.983398438 0.00304877758
vt 0.791992188 0.301829278
vt 0.791992188 0.496951222
vt 0.885742188 0.496951222
vt 0.885742188 0.301829278
vt 0.631835938 0.399390221
vt 0.631835938 0.594512224
vt 0.725585938 0.594512224
vt 0.725585938 0.399390221
vt 0.887695312 0.399390221
vt 0.887695312 0.984756112
vt 0.918945312 0.984756112
vt 0.918945312 0.399390221
vt 0.727539062 0.496951222
vt 0.727539062 0.692073166
vt 0.790039062 0.692073166
vt 0.790039062 0.496951222
vt 0.791992188 0.503048778
vt 0.791992188 0.795731723
vt 0.823242188 0.795731723
vt 0.823242188 0.503048778
vt 0.825195312 0.503048778
vt 0.825195312 0.795731723
vt 0.856445312 0.795731723
vt 0.856445312 0.503048778
vt 0.952148438 0.594512224
vt 0.952148438 0.88719511
vt 0.983398438 0.88719511
vt 0.983398438 0.594512224
vt 0.631835938 0.600609779
vt 0.631835938 0.698170722
vt 0.694335938 0.698170722
vt 0.694335938 0.600609779
vt 0.504882812 0.692073166
vt 0.504882812 0.789634168
vt 0.567382812 0.789634168
vt 0.567382812 0.692073166
vt 0.569335938 0.692073166
vt 0.569335938 0.88719511
vt 0.600585938 0.88719511
vt 0.600585938 0.692073166
vt 0.727539062 0.698170722
vt 0.727539062 0.795731723
vt 0.790039062 0.795731723
vt 0.790039062 0.698170722
vt 0.631835938 0.704268336
vt 0.631835938 0.899390221
vt 0.663085938 0.899390221
vt 0.663085938 0.704268336
vt 0.985351562 0.00304877758
vt 0.985351562 0.198170722
vt 0.998046875 0.198170722
vt 0.998046875 0.00304877758
vt 0.985351562 0.204268277
vt 0.985351562 0.399390221
vt 0.998046875 0.399390221
vt 0.998046875 0.204268277
vt 0.665039062 0.704268336
vt 0.665039062 0.899390221
vt 0.696289062 0.899390221
vt 0.696289062 0.704268336
vt 0.504882812 0.795731723
vt 0.504882812 0.893292665
vt 0.567382812 0.893292665
vt 0.567382812 0.795731723
vt 0.727539062 0.801829278
vt 0.727539062 0.899390221
vt 0.790039062 0.899390221
vt 0.790039062 0.801829278
vt 0.791992188 0.801829278
vt 0.791992188 0.899390221
vt 0.823242188 0.899390221
vt 0.823242188 0.801829278
vt 0.825195312 0.801829278
vt 0.825195312 0.899390221
vt 0.856445312 0.899390221
vt 0.856445312 0.801829278
vt 0.569335938 0.893292665
vt 0.569335938 0.990853667
vt 0.600585938 0.990853667
vt 0.600585938 0.893292665
vt 0.952148438 0.893292665
vt 0.952148438 0.990853667
vt 0.983398438 0.990853667
vt 0.983398438 0.893292665
vt 0.504882812 0.899390221
vt 0.504882812 0.996951222
vt 0.536132812 0.996951222
vt 0.536132812 0.899390221
g biaoqiang_2-mesh_0
f 3/3/3 2/2/2 1/1/1
f 1/1/1 4/4/4 3/3/3
f 7/7/7 6/6/6 5/5/5
f 5/5/5 8/8/8 7/7/7
f 11/11/11 10/10/10 9/9/9
f 9/9/9 12/12/12 11/11/11
f 15/15/15 14/14/14 13/13/13
f 13/13/13 16/16/16 15/15/15
f 19/19/19 18/18/18 17/17/17
f 17/17/17 20/20/20 19/19/19
f 23/23/23 22/22/22 21/21/21
f 21/21/21 24/24/24 23/23/23
f 27/27/27 26/26/26 25/25/25
f 25/25/25 28/28/28 27/27/27
f 31/31/31 30/30/30 29/29/29
f 29/29/29 32/32/32 31/31/31
f 35/35/35 34/34/34 33/33/33
f 33/33/33 36/36/36 35/35/35
f 39/39/39 38/38/38 37/37/37
f 37/37/37 40/40/40 39/39/39
f 43/43/43 42/42/42 41/41/41
f 41/41/41 44/44/44 43/43/43
f 47/47/47 46/46/46 45/45/45
f 45/45/45 48/48/48 47/47/47
f 51/51/51 50/50/50 49/49/49
f 49/49/49 52/52/52 51/51/51
f 55/55/55 54/54/54 53/53/53
f 53/53/53 56/56/56 55/55/55
f 59/59/59 58/58/58 57/57/57
f 57/57/57 60/60/60 59/59/59
f 63/63/63 62/62/62 61/61/61
f 61/61/61 64/64/64 63/63/63
f 67/67/67 66/66/66 65/65/65
f 65/65/65 68/68/68 67/67/67
f 71/71/71 70/70/70 69/69/69
f 69/69/69 72/72/72 71/71/71
f 75/75/75 74/74/74 73/73/73
f 73/73/73 76/76/76 75/75/75
f 79/79/79 78/78/78 77/77/77
f 77/77/77 80/80/80 79/79/79
f 83/83/83 82/82/82 81/81/81
f 81/81/81 84/84/84 83/83/83
f 87/87/87 86/86/86 85/85/85
f 85/85/85 88/88/88 87/87/87
f 91/91/91 90/90/90 89/89/89
f 89/89/89 92/92/92 91/91/91
f 95/95/95 94/94/94 93/93/93
f 93/93/93 96/96/96 95/95/95
f 99/99/99 98/98/98 97/97/97
f 97/97/97 100/100/100 99/99/99
f 103/103/103 102/102/102 101/101/101
f 101/101/101 104/104/104 103/103/103
f 107/107/107 106/106/106 105/105/105
f 105/105/105 108/108/108 107/107/107
f 111/111/111 110/110/110 109/109/109
f 109/109/109 112/112/112 111/111/111
f 115/115/115 114/114/114 113/113/113
f 113/113/113 116/116/116 115/115/115
f 119/119/119 118/118/118 117/117/117
f 117/117/117 120/120/120 119/119/119
