g salatuojia_alter_rw-mesh
v -800 533 0
v -800 1045 0
v -1216 1045 0
v -1216 533 0
v -1216 533 0
v -1216 1045 0
v -1600 1045 0
v -1600 533 0
v -576 661 0
v -576 1077 0
v -800 1077 0
v -800 661 0
v -352 1077 0
v -352 1365 0
v -640 1365 0
v -640 1077 0
v -0 565 0
v -0 789 0
v -320 789 0
v -320 565 0
v -1600 597 0
v -1600 821 0
v -1920 821 0
v -1920 597 0
v -896 1045 0
v -896 1333 0
v -1056 1333 0
v -1056 1045 0
v -1472 1045 0
v -1472 1333 0
v -1600 1333 0
v -1600 1045 0
v -800 405 0
v -800 533 0
v -1056 533 0
v -1056 405 0
v -800 213 0
v -800 405 0
v -960 405 0
v -960 213 0
v -1088 1045 0
v -1088 1173 0
v -1312 1173 0
v -1312 1045 0
v -1056 405 0
v -1056 533 0
v -1280 533 0
v -1280 405 0
v -1824 1013 0
v -1824 1205 0
v -1952 1205 0
v -1952 1013 0
v -1824 821 0
v -1824 1013 0
v -1952 1013 0
v -1952 821 0
v -1312 1173 0
v -1312 1301 0
v -1472 1301 0
v -1472 1173 0
v -352 1365 0
v -352 1461 0
v -544 1461 0
v -544 1365 0
v -448 949 0
v -448 1077 0
v -576 1077 0
v -576 949 0
v -960 245 0
v -960 405 0
v -1056 405 0
v -1056 245 0
v -256 1205 0
v -256 1365 0
v -352 1365 0
v -352 1205 0
v -704 85 0
v -704 245 0
v -800 245 0
v -800 85 0
v -960 1333 0
v -960 1429 0
v -1088 1429 0
v -1088 1333 0
v -1440 405 0
v -1440 501 0
v -1568 501 0
v -1568 405 0
v -608 53 0
v -608 149 0
v -704 149 0
v -704 53 0
v -1920 661 0
v -1920 757 0
v -2016 757 0
v -2016 661 0
v -1056 277 0
v -1056 405 0
v -1120 405 0
v -1120 277 0
v -1600 533 0
v -1600 597 0
v -1728 597 0
v -1728 533 0
v -1440 1333 0
v -1440 1397 0
v -1568 1397 0
v -1568 1333 0
v -320 661 0
v -320 725 0
v -448 725 0
v -448 661 0
v -1600 1237 0
v -1600 1301 0
v -1728 1301 0
v -1728 1237 0
v -448 661 0
v -448 725 0
v -576 725 0
v -576 661 0
v -1216 1173 0
v -1216 1237 0
v -1312 1237 0
v -1312 1173 0
v -512 853 0
v -512 949 0
v -576 949 0
v -576 853 0
v -544 0 0
v -544 85 0
v -608 85 0
v -608 0 0
v -1728 1237 0
v -1728 1301 0
v -1824 1301 0
v -1824 1237 0
v -1760 1077 0
v -1760 1141 0
v -1824 1141 0
v -1824 1077 0
v -672 1141 0
v -672 1205 0
v -736 1205 0
v -736 1141 0
v -1920 597 0
v -1920 661 0
v -1984 661 0
v -1984 597 0
v -1984 917 0
v -1984 981 0
v -2047 981 0
v -2047 917 0
v -320 597 0
v -320 661 0
v -384 661 0
v -384 597 0
v -64 789 0
v -64 853 0
v -128 853 0
v -128 789 0
v -1600 853 0
v -1600 917 0
v -1664 917 0
v -1664 853 0
v -1600 821 0
v -1600 853 0
v -1728 853 0
v -1728 821 0
v -640 1173 0
v -640 1301 0
v -672 1301 0
v -672 1173 0
v -1792 1205 0
v -1792 1237 0
v -1888 1237 0
v -1888 1205 0
v -1952 1045 0
v -1952 1141 0
v -1984 1141 0
v -1984 1045 0
v -1696 1205 0
v -1696 1237 0
v -1792 1237 0
v -1792 1205 0
v -1728 821 0
v -1728 853 0
v -1824 853 0
v -1824 821 0
v -640 1077 0
v -640 1173 0
v -672 1173 0
v -672 1077 0
v -1952 949 0
v -1952 1045 0
v -1984 1045 0
v -1984 949 0
v -1600 1141 0
v -1600 1237 0
v -1632 1237 0
v -1632 1141 0
v -768 501 0
v -768 597 0
v -800 597 0
v -800 501 0
v -1088 1301 0
v -1088 1365 0
v -1120 1365 0
v -1120 1301 0
v -224 1205 0
v -224 1269 0
v -256 1269 0
v -256 1205 0
v -1152 1173 0
v -1152 1205 0
v -1216 1205 0
v -1216 1173 0
v -1408 1301 0
v -1408 1365 0
v -1440 1365 0
v -1440 1301 0
v -928 1333 0
v -928 1397 0
v -960 1397 0
v -960 1333 0
v -800 181 0
v -800 213 0
v -864 213 0
v -864 181 0
v -1504 501 0
v -1504 533 0
v -1568 533 0
v -1568 501 0
v -320 1365 0
v -320 1429 0
v -352 1429 0
v -352 1365 0
v -544 789 0
v -544 853 0
v -576 853 0
v -576 789 0
v -544 1365 0
v -544 1429 0
v -576 1429 0
v -576 1365 0
v -1120 309 0
v -1120 373 0
v -1152 373 0
v -1152 309 0
v -672 149 0
v -672 213 0
v -704 213 0
v -704 149 0
v -1376 469 0
v -1376 501 0
v -1440 501 0
v -1440 469 0
v -384 629 0
v -384 661 0
v -448 661 0
v -448 629 0
v -320 725 0
v -320 757 0
v -384 757 0
v -384 725 0
v -672 1077 0
v -672 1109 0
v -736 1109 0
v -736 1077 0
v -1760 1173 0
v -1760 1205 0
v -1824 1205 0
v -1824 1173 0
v -1440 1045 0
v -1440 1109 0
v -1472 1109 0
v -1472 1045 0
v -608 0 0
v -608 53 0
v -640 53 0
v -640 0 0
v -416 949 0
v -416 1013 0
v -448 1013 0
v -448 949 0
v -1792 885 0
v -1792 949 0
v -1824 949 0
v -1824 885 0
v -32 533 0
v -32 565 0
v -96 565 0
v -96 533 0
v -1824 565 0
v -1824 597 0
v -1888 597 0
v -1888 565 0
v -96 533 0
v -96 565 0
v -160 565 0
v -160 533 0
v -1408 501 0
v -1408 533 0
v -1472 533 0
v -1472 501 0
v -1344 501 0
v -1344 533 0
v -1408 533 0
v -1408 501 0
v -1376 1141 0
v -1376 1173 0
v -1440 1173 0
v -1440 1141 0
v -768 437 0
v -768 501 0
v -800 501 0
v -800 437 0
v -1600 1077 0
v -1600 1141 0
v -1632 1141 0
v -1632 1077 0
v -1600 1301 0
v -1600 1333 0
v -1664 1333 0
v -1664 1301 0
v -1312 1141 0
v -1312 1173 0
v -1376 1173 0
v -1376 1141 0
v -1664 1301 0
v -1664 1333 0
v -1728 1333 0
v -1728 1301 0
v -1120 373 0
v -1120 405 0
v -1184 405 0
v -1184 373 0
v -864 1077 0
v -864 1141 0
v -896 1141 0
v -896 1077 0
v -1888 565 0
v -1888 597 0
v -1952 597 0
v -1952 565 0
v -1056 1077 0
v -1056 1141 0
v -1088 1141 0
v -1088 1077 0
v -1056 1269 0
v -1056 1333 0
v -1088 1333 0
v -1088 1269 0
v -1184 373 0
v -1184 405 0
v -1248 405 0
v -1248 373 0
v -1728 565 0
v -1728 597 0
v -1760 597 0
v -1760 565 0
v -1632 917 0
v -1632 949 0
v -1664 949 0
v -1664 917 0
v -384 949 0
v -384 981 0
v -416 981 0
v -416 949 0
v -768 629 0
v -768 661 0
v -800 661 0
v -800 629 0
v -1920 757 0
v -1920 789 0
v -1952 789 0
v -1952 757 0
v -128 789 0
v -128 821 0
v -160 821 0
v -160 789 0
v -1664 853 0
v -1664 885 0
v -1696 885 0
v -1696 853 0
v -1760 853 0
v -1760 885 0
v -1792 885 0
v -1792 853 0
v -1568 469 0
v -1568 501 0
v -1600 501 0
v -1600 469 0
v -800 149 0
v -800 181 0
v -832 181 0
v -832 149 0
v -640 149 0
v -640 181 0
v -672 181 0
v -672 149 0
v -704 53 0
v -704 85 0
v -736 85 0
v -736 53 0
v -576 85 0
v -576 117 0
v -608 117 0
v -608 85 0
v -640 21 0
v -640 53 0
v -672 53 0
v -672 21 0
v -1408 437 0
v -1408 469 0
v -1440 469 0
v -1440 437 0
v -768 245 0
v -768 277 0
v -800 277 0
v -800 245 0
v -1152 341 0
v -1152 373 0
v -1184 373 0
v -1184 341 0
v -864 181 0
v -864 213 0
v -896 213 0
v -896 181 0
v -864 1045 0
v -864 1077 0
v -896 1077 0
v -896 1045 0
v -224 1397 0
v -224 1429 0
v -256 1429 0
v -256 1397 0
v -1056 1237 0
v -1056 1269 0
v -1088 1269 0
v -1088 1237 0
v -1056 1045 0
v -1056 1077 0
v -1088 1077 0
v -1088 1045 0
v -1792 853 0
v -1792 885 0
v -1824 885 0
v -1824 853 0
v -1568 501 0
v -1568 533 0
v -1600 533 0
v -1600 501 0
v -544 757 0
v -544 789 0
v -576 789 0
v -576 757 0
v -288 1365 0
v -288 1397 0
v -320 1397 0
v -320 1365 0
v -1312 1109 0
v -1312 1141 0
v -1344 1141 0
v -1344 1109 0
v -320 1173 0
v -320 1205 0
v -352 1205 0
v -352 1173 0
v -1984 981 0
v -1984 1013 0
v -2016 1013 0
v -2016 981 0
v -1728 1109 0
v -1728 1141 0
v -1760 1141 0
v -1760 1109 0
v -1440 1301 0
v -1440 1333 0
v -1472 1333 0
v -1472 1301 0
v -576 1365 0
v -576 1397 0
v -608 1397 0
v -608 1365 0
v -1824 1237 0
v -1824 1269 0
v -1856 1269 0
v -1856 1237 0
v -1280 1237 0
v -1280 1269 0
v -1312 1269 0
v -1312 1237 0
vt 0.00048828125 0.00133687258
vt 0.00048828125 0.685828865
vt 0.203613281 0.685828865
vt 0.203613281 0.00133687258
vt 0.204589844 0.00133687258
vt 0.204589844 0.685828865
vt 0.392089844 0.685828865
vt 0.392089844 0.00133687258
vt 0.393066406 0.00133687258
vt 0.393066406 0.557486653
vt 0.502441406 0.557486653
vt 0.502441406 0.00133687258
vt 0.503417969 0.00133687258
vt 0.503417969 0.386363626
vt 0.644042969 0.386363626
vt 0.644042969 0.00133687258
vt 0.645019531 0.00133687258
vt 0.645019531 0.300802112
vt 0.801269531 0.300802112
vt 0.801269531 0.00133687258
vt 0.802246094 0.00133687258
vt 0.802246094 0.300802112
vt 0.958496094 0.300802112
vt 0.958496094 0.00133687258
vt 0.645019531 0.303475916
vt 0.645019531 0.688502669
vt 0.723144531 0.688502669
vt 0.723144531 0.303475916
vt 0.724121094 0.303475916
vt 0.724121094 0.688502669
vt 0.786621094 0.688502669
vt 0.786621094 0.303475916
vt 0.787597656 0.303475916
vt 0.787597656 0.474598944
vt 0.912597656 0.474598944
vt 0.912597656 0.303475916
vt 0.913574219 0.303475916
vt 0.913574219 0.560160398
vt 0.991699219 0.560160398
vt 0.991699219 0.303475916
vt 0.503417969 0.38903743
vt 0.503417969 0.560160398
vt 0.612792969 0.560160398
vt 0.612792969 0.38903743
vt 0.787597656 0.477272749
vt 0.787597656 0.648395717
vt 0.896972656 0.648395717
vt 0.896972656 0.477272749
vt 0.393066406 0.560160398
vt 0.393066406 0.81684494
vt 0.455566406 0.81684494
vt 0.455566406 0.560160398
vt 0.503417969 0.562834263
vt 0.503417969 0.819518685
vt 0.565917969 0.819518685
vt 0.565917969 0.562834263
vt 0.913574219 0.562834263
vt 0.913574219 0.733957231
vt 0.991699219 0.733957231
vt 0.991699219 0.562834263
vt 0.787597656 0.651069522
vt 0.787597656 0.779411793
vt 0.881347656 0.779411793
vt 0.881347656 0.651069522
vt 0.566894531 0.562834263
vt 0.566894531 0.733957231
vt 0.629394531 0.733957231
vt 0.629394531 0.562834263
vt 0.00048828125 0.688502669
vt 0.00048828125 0.902406394
vt 0.0473632812 0.902406394
vt 0.0473632812 0.688502669
vt 0.0483398438 0.688502669
vt 0.0483398438 0.902406394
vt 0.0952148438 0.902406394
vt 0.0952148438 0.688502669
vt 0.0961914062 0.688502669
vt 0.0961914062 0.902406394
vt 0.143066406 0.902406394
vt 0.143066406 0.688502669
vt 0.144042969 0.688502669
vt 0.144042969 0.81684494
vt 0.206542969 0.81684494
vt 0.206542969 0.688502669
vt 0.207519531 0.688502669
vt 0.207519531 0.81684494
vt 0.270019531 0.81684494
vt 0.270019531 0.688502669
vt 0.270996094 0.688502669
vt 0.270996094 0.81684494
vt 0.317871094 0.81684494
vt 0.317871094 0.688502669
vt 0.318847656 0.688502669
vt 0.318847656 0.81684494
vt 0.365722656 0.81684494
vt 0.365722656 0.688502669
vt 0.456542969 0.560160398
vt 0.456542969 0.731283426
vt 0.487792969 0.731283426
vt 0.487792969 0.560160398
vt 0.645019531 0.691176474
vt 0.645019531 0.776737988
vt 0.707519531 0.776737988
vt 0.707519531 0.691176474
vt 0.708496094 0.691176474
vt 0.708496094 0.776737988
vt 0.770996094 0.776737988
vt 0.770996094 0.691176474
vt 0.566894531 0.736631036
vt 0.566894531 0.82219255
vt 0.629394531 0.82219255
vt 0.629394531 0.736631036
vt 0.913574219 0.736631036
vt 0.913574219 0.82219255
vt 0.976074219 0.82219255
vt 0.976074219 0.736631036
vt 0.645019531 0.779411793
vt 0.645019531 0.864973247
vt 0.707519531 0.864973247
vt 0.707519531 0.779411793
vt 0.708496094 0.779411793
vt 0.708496094 0.864973247
vt 0.755371094 0.864973247
vt 0.755371094 0.779411793
vt 0.456542969 0.733957231
vt 0.456542969 0.862299442
vt 0.487792969 0.862299442
vt 0.487792969 0.733957231
vt 0.787597656 0.782085538
vt 0.787597656 0.897058845
vt 0.818847656 0.897058845
vt 0.818847656 0.782085538
vt 0.819824219 0.782085538
vt 0.819824219 0.867647052
vt 0.866699219 0.867647052
vt 0.866699219 0.782085538
vt 0.867675781 0.782085538
vt 0.867675781 0.867647052
vt 0.898925781 0.867647052
vt 0.898925781 0.782085538
vt 0.144042969 0.819518685
vt 0.144042969 0.905080199
vt 0.175292969 0.905080199
vt 0.175292969 0.819518685
vt 0.176269531 0.819518685
vt 0.176269531 0.905080199
vt 0.207519531 0.905080199
vt 0.207519531 0.819518685
vt 0.208496094 0.819518685
vt 0.208496094 0.905080199
vt 0.239746094 0.905080199
vt 0.239746094 0.819518685
vt 0.240722656 0.819518685
vt 0.240722656 0.905080199
vt 0.271972656 0.905080199
vt 0.271972656 0.819518685
vt 0.272949219 0.819518685
vt 0.272949219 0.905080199
vt 0.304199219 0.905080199
vt 0.304199219 0.819518685
vt 0.305175781 0.819518685
vt 0.305175781 0.905080199
vt 0.336425781 0.905080199
vt 0.336425781 0.819518685
vt 0.337402344 0.819518685
vt 0.337402344 0.862299442
vt 0.399902344 0.862299442
vt 0.399902344 0.819518685
vt 0.977050781 0.736631036
vt 0.977050781 0.907754004
vt 0.992675781 0.907754004
vt 0.992675781 0.736631036
vt 0.400878906 0.819518685
vt 0.400878906 0.862299442
vt 0.447753906 0.862299442
vt 0.447753906 0.819518685
vt 0.756347656 0.779411793
vt 0.756347656 0.907754004
vt 0.771972656 0.907754004
vt 0.771972656 0.779411793
vt 0.503417969 0.82219255
vt 0.503417969 0.864973247
vt 0.550292969 0.864973247
vt 0.550292969 0.82219255
vt 0.566894531 0.824866295
vt 0.566894531 0.867647052
vt 0.613769531 0.867647052
vt 0.613769531 0.824866295
vt 0.614746094 0.824866295
vt 0.614746094 0.953208566
vt 0.630371094 0.953208566
vt 0.630371094 0.824866295
vt 0.913574219 0.824866295
vt 0.913574219 0.953208566
vt 0.929199219 0.953208566
vt 0.929199219 0.824866295
vt 0.930175781 0.824866295
vt 0.930175781 0.953208566
vt 0.945800781 0.953208566
vt 0.945800781 0.824866295
vt 0.946777344 0.824866295
vt 0.946777344 0.953208566
vt 0.962402344 0.953208566
vt 0.962402344 0.824866295
vt 0.337402344 0.864973247
vt 0.337402344 0.950534761
vt 0.353027344 0.950534761
vt 0.353027344 0.864973247
vt 0.354003906 0.864973247
vt 0.354003906 0.950534761
vt 0.369628906 0.950534761
vt 0.369628906 0.864973247
vt 0.370605469 0.864973247
vt 0.370605469 0.907754004
vt 0.401855469 0.907754004
vt 0.401855469 0.864973247
vt 0.402832031 0.864973247
vt 0.402832031 0.950534761
vt 0.418457031 0.950534761
vt 0.418457031 0.864973247
vt 0.419433594 0.864973247
vt 0.419433594 0.950534761
vt 0.435058594 0.950534761
vt 0.435058594 0.864973247
vt 0.436035156 0.864973247
vt 0.436035156 0.907754004
vt 0.467285156 0.907754004
vt 0.467285156 0.864973247
vt 0.468261719 0.864973247
vt 0.468261719 0.907754004
vt 0.499511719 0.907754004
vt 0.499511719 0.864973247
vt 0.503417969 0.867647052
vt 0.503417969 0.953208566
vt 0.519042969 0.953208566
vt 0.519042969 0.867647052
vt 0.520019531 0.867647052
vt 0.520019531 0.953208566
vt 0.535644531 0.953208566
vt 0.535644531 0.867647052
vt 0.536621094 0.867647052
vt 0.536621094 0.953208566
vt 0.552246094 0.953208566
vt 0.552246094 0.867647052
vt 0.645019531 0.867647052
vt 0.645019531 0.953208566
vt 0.660644531 0.953208566
vt 0.660644531 0.867647052
vt 0.661621094 0.867647052
vt 0.661621094 0.953208566
vt 0.677246094 0.953208566
vt 0.677246094 0.867647052
vt 0.678222656 0.867647052
vt 0.678222656 0.910427809
vt 0.709472656 0.910427809
vt 0.709472656 0.867647052
vt 0.710449219 0.867647052
vt 0.710449219 0.910427809
vt 0.741699219 0.910427809
vt 0.741699219 0.867647052
vt 0.566894531 0.870320857
vt 0.566894531 0.913101614
vt 0.598144531 0.913101614
vt 0.598144531 0.870320857
vt 0.819824219 0.870320857
vt 0.819824219 0.913101614
vt 0.851074219 0.913101614
vt 0.851074219 0.870320857
vt 0.852050781 0.870320857
vt 0.852050781 0.913101614
vt 0.883300781 0.913101614
vt 0.883300781 0.870320857
vt 0.884277344 0.870320857
vt 0.884277344 0.95588237
vt 0.899902344 0.95588237
vt 0.899902344 0.870320857
vt 0.787597656 0.89973259
vt 0.787597656 0.971925139
vt 0.803222656 0.971925139
vt 0.803222656 0.89973259
vt 0.00048828125 0.905080199
vt 0.00048828125 0.990641713
vt 0.0161132812 0.990641713
vt 0.0161132812 0.905080199
vt 0.0170898438 0.905080199
vt 0.0170898438 0.990641713
vt 0.0327148438 0.990641713
vt 0.0327148438 0.905080199
vt 0.0336914062 0.905080199
vt 0.0336914062 0.947860956
vt 0.0649414062 0.947860956
vt 0.0649414062 0.905080199
vt 0.0659179688 0.905080199
vt 0.0659179688 0.947860956
vt 0.0971679688 0.947860956
vt 0.0971679688 0.905080199
vt 0.0981445312 0.905080199
vt 0.0981445312 0.947860956
vt 0.129394531 0.947860956
vt 0.129394531 0.905080199
vt 0.144042969 0.907754004
vt 0.144042969 0.950534761
vt 0.175292969 0.950534761
vt 0.175292969 0.907754004
vt 0.176269531 0.907754004
vt 0.176269531 0.950534761
vt 0.207519531 0.950534761
vt 0.207519531 0.907754004
vt 0.208496094 0.907754004
vt 0.208496094 0.950534761
vt 0.239746094 0.950534761
vt 0.239746094 0.907754004
vt 0.240722656 0.907754004
vt 0.240722656 0.993315518
vt 0.256347656 0.993315518
vt 0.256347656 0.907754004
vt 0.257324219 0.907754004
vt 0.257324219 0.993315518
vt 0.272949219 0.993315518
vt 0.272949219 0.907754004
vt 0.273925781 0.907754004
vt 0.273925781 0.950534761
vt 0.305175781 0.950534761
vt 0.305175781 0.907754004
vt 0.370605469 0.910427809
vt 0.370605469 0.953208566
vt 0.401855469 0.953208566
vt 0.401855469 0.910427809
vt 0.436035156 0.910427809
vt 0.436035156 0.953208566
vt 0.467285156 0.953208566
vt 0.467285156 0.910427809
vt 0.468261719 0.910427809
vt 0.468261719 0.953208566
vt 0.499511719 0.953208566
vt 0.499511719 0.910427809
vt 0.306152344 0.907754004
vt 0.306152344 0.993315518
vt 0.321777344 0.993315518
vt 0.321777344 0.907754004
vt 0.678222656 0.913101614
vt 0.678222656 0.95588237
vt 0.709472656 0.95588237
vt 0.709472656 0.913101614
vt 0.756347656 0.910427809
vt 0.756347656 0.995989323
vt 0.771972656 0.995989323
vt 0.771972656 0.910427809
vt 0.977050781 0.910427809
vt 0.977050781 0.995989323
vt 0.992675781 0.995989323
vt 0.992675781 0.910427809
vt 0.710449219 0.913101614
vt 0.710449219 0.95588237
vt 0.741699219 0.95588237
vt 0.741699219 0.913101614
vt 0.566894531 0.915775418
vt 0.566894531 0.958556175
vt 0.582519531 0.958556175
vt 0.582519531 0.915775418
vt 0.583496094 0.915775418
vt 0.583496094 0.958556175
vt 0.599121094 0.958556175
vt 0.599121094 0.915775418
vt 0.819824219 0.915775418
vt 0.819824219 0.958556175
vt 0.835449219 0.958556175
vt 0.835449219 0.915775418
vt 0.836425781 0.915775418
vt 0.836425781 0.958556175
vt 0.852050781 0.958556175
vt 0.852050781 0.915775418
vt 0.853027344 0.915775418
vt 0.853027344 0.958556175
vt 0.868652344 0.958556175
vt 0.868652344 0.915775418
vt 0.0336914062 0.950534761
vt 0.0336914062 0.993315518
vt 0.0493164062 0.993315518
vt 0.0493164062 0.950534761
vt 0.0502929688 0.950534761
vt 0.0502929688 0.993315518
vt 0.0659179688 0.993315518
vt 0.0659179688 0.950534761
vt 0.0668945312 0.950534761
vt 0.0668945312 0.993315518
vt 0.0825195312 0.993315518
vt 0.0825195312 0.950534761
vt 0.0834960938 0.950534761
vt 0.0834960938 0.993315518
vt 0.0991210938 0.993315518
vt 0.0991210938 0.950534761
vt 0.100097656 0.950534761
vt 0.100097656 0.993315518
vt 0.115722656 0.993315518
vt 0.115722656 0.950534761
vt 0.116699219 0.950534761
vt 0.116699219 0.993315518
vt 0.132324219 0.993315518
vt 0.132324219 0.950534761
vt 0.144042969 0.953208566
vt 0.144042969 0.995989323
vt 0.159667969 0.995989323
vt 0.159667969 0.953208566
vt 0.160644531 0.953208566
vt 0.160644531 0.995989323
vt 0.176269531 0.995989323
vt 0.176269531 0.953208566
vt 0.177246094 0.953208566
vt 0.177246094 0.995989323
vt 0.192871094 0.995989323
vt 0.192871094 0.953208566
vt 0.193847656 0.953208566
vt 0.193847656 0.995989323
vt 0.209472656 0.995989323
vt 0.209472656 0.953208566
vt 0.210449219 0.953208566
vt 0.210449219 0.995989323
vt 0.226074219 0.995989323
vt 0.226074219 0.953208566
vt 0.273925781 0.953208566
vt 0.273925781 0.995989323
vt 0.289550781 0.995989323
vt 0.289550781 0.953208566
vt 0.337402344 0.953208566
vt 0.337402344 0.995989323
vt 0.353027344 0.995989323
vt 0.353027344 0.953208566
vt 0.354003906 0.953208566
vt 0.354003906 0.995989323
vt 0.369628906 0.995989323
vt 0.369628906 0.953208566
vt 0.402832031 0.953208566
vt 0.402832031 0.995989323
vt 0.418457031 0.995989323
vt 0.418457031 0.953208566
vt 0.419433594 0.953208566
vt 0.419433594 0.995989323
vt 0.435058594 0.995989323
vt 0.435058594 0.953208566
vt 0.370605469 0.95588237
vt 0.370605469 0.998663127
vt 0.386230469 0.998663127
vt 0.386230469 0.95588237
vt 0.436035156 0.95588237
vt 0.436035156 0.998663127
vt 0.451660156 0.998663127
vt 0.451660156 0.95588237
vt 0.452636719 0.95588237
vt 0.452636719 0.998663127
vt 0.468261719 0.998663127
vt 0.468261719 0.95588237
vt 0.469238281 0.95588237
vt 0.469238281 0.998663127
vt 0.484863281 0.998663127
vt 0.484863281 0.95588237
vt 0.485839844 0.95588237
vt 0.485839844 0.998663127
vt 0.501464844 0.998663127
vt 0.501464844 0.95588237
vt 0.503417969 0.95588237
vt 0.503417969 0.998663127
vt 0.519042969 0.998663127
vt 0.519042969 0.95588237
vt 0.520019531 0.95588237
vt 0.520019531 0.998663127
vt 0.535644531 0.998663127
vt 0.535644531 0.95588237
vt 0.536621094 0.95588237
vt 0.536621094 0.998663127
vt 0.552246094 0.998663127
vt 0.552246094 0.95588237
vt 0.614746094 0.95588237
vt 0.614746094 0.998663127
vt 0.630371094 0.998663127
vt 0.630371094 0.95588237
vt 0.645019531 0.95588237
vt 0.645019531 0.998663127
vt 0.660644531 0.998663127
vt 0.660644531 0.95588237
vt 0.661621094 0.95588237
vt 0.661621094 0.998663127
vt 0.677246094 0.998663127
vt 0.677246094 0.95588237
vt 0.913574219 0.95588237
vt 0.913574219 0.998663127
vt 0.929199219 0.998663127
vt 0.929199219 0.95588237
vt 0.930175781 0.95588237
vt 0.930175781 0.998663127
vt 0.945800781 0.998663127
vt 0.945800781 0.95588237
g salatuojia_alter_rw-mesh_0
f 3/3/3 2/2/2 1/1/1
f 1/1/1 4/4/4 3/3/3
f 7/7/7 6/6/6 5/5/5
f 5/5/5 8/8/8 7/7/7
f 11/11/11 10/10/10 9/9/9
f 9/9/9 12/12/12 11/11/11
f 15/15/15 14/14/14 13/13/13
f 13/13/13 16/16/16 15/15/15
f 19/19/19 18/18/18 17/17/17
f 17/17/17 20/20/20 19/19/19
f 23/23/23 22/22/22 21/21/21
f 21/21/21 24/24/24 23/23/23
f 27/27/27 26/26/26 25/25/25
f 25/25/25 28/28/28 27/27/27
f 31/31/31 30/30/30 29/29/29
f 29/29/29 32/32/32 31/31/31
f 35/35/35 34/34/34 33/33/33
f 33/33/33 36/36/36 35/35/35
f 39/39/39 38/38/38 37/37/37
f 37/37/37 40/40/40 39/39/39
f 43/43/43 42/42/42 41/41/41
f 41/41/41 44/44/44 43/43/43
f 47/47/47 46/46/46 45/45/45
f 45/45/45 48/48/48 47/47/47
f 51/51/51 50/50/50 49/49/49
f 49/49/49 52/52/52 51/51/51
f 55/55/55 54/54/54 53/53/53
f 53/53/53 56/56/56 55/55/55
f 59/59/59 58/58/58 57/57/57
f 57/57/57 60/60/60 59/59/59
f 63/63/63 62/62/62 61/61/61
f 61/61/61 64/64/64 63/63/63
f 67/67/67 66/66/66 65/65/65
f 65/65/65 68/68/68 67/67/67
f 71/71/71 70/70/70 69/69/69
f 69/69/69 72/72/72 71/71/71
f 75/75/75 74/74/74 73/73/73
f 73/73/73 76/76/76 75/75/75
f 79/79/79 78/78/78 77/77/77
f 77/77/77 80/80/80 79/79/79
f 83/83/83 82/82/82 81/81/81
f 81/81/81 84/84/84 83/83/83
f 87/87/87 86/86/86 85/85/85
f 85/85/85 88/88/88 87/87/87
f 91/91/91 90/90/90 89/89/89
f 89/89/89 92/92/92 91/91/91
f 95/95/95 94/94/94 93/93/93
f 93/93/93 96/96/96 95/95/95
f 99/99/99 98/98/98 97/97/97
f 97/97/97 100/100/100 99/99/99
f 103/103/103 102/102/102 101/101/101
f 101/101/101 104/104/104 103/103/103
f 107/107/107 106/106/106 105/105/105
f 105/105/105 108/108/108 107/107/107
f 111/111/111 110/110/110 109/109/109
f 109/109/109 112/112/112 111/111/111
f 115/115/115 114/114/114 113/113/113
f 113/113/113 116/116/116 115/115/115
f 119/119/119 118/118/118 117/117/117
f 117/117/117 120/120/120 119/119/119
f 123/123/123 122/122/122 121/121/121
f 121/121/121 124/124/124 123/123/123
f 127/127/127 126/126/126 125/125/125
f 125/125/125 128/128/128 127/127/127
f 131/131/131 130/130/130 129/129/129
f 129/129/129 132/132/132 131/131/131
f 135/135/135 134/134/134 133/133/133
f 133/133/133 136/136/136 135/135/135
f 139/139/139 138/138/138 137/137/137
f 137/137/137 140/140/140 139/139/139
f 143/143/143 142/142/142 141/141/141
f 141/141/141 144/144/144 143/143/143
f 147/147/147 146/146/146 145/145/145
f 145/145/145 148/148/148 147/147/147
f 151/151/151 150/150/150 149/149/149
f 149/149/149 152/152/152 151/151/151
f 155/155/155 154/154/154 153/153/153
f 153/153/153 156/156/156 155/155/155
f 159/159/159 158/158/158 157/157/157
f 157/157/157 160/160/160 159/159/159
f 163/163/163 162/162/162 161/161/161
f 161/161/161 164/164/164 163/163/163
f 167/167/167 166/166/166 165/165/165
f 165/165/165 168/168/168 167/167/167
f 171/171/171 170/170/170 169/169/169
f 169/169/169 172/172/172 171/171/171
f 175/175/175 174/174/174 173/173/173
f 173/173/173 176/176/176 175/175/175
f 179/179/179 178/178/178 177/177/177
f 177/177/177 180/180/180 179/179/179
f 183/183/183 182/182/182 181/181/181
f 181/181/181 184/184/184 183/183/183
f 187/187/187 186/186/186 185/185/185
f 185/185/185 188/188/188 187/187/187
f 191/191/191 190/190/190 189/189/189
f 189/189/189 192/192/192 191/191/191
f 195/195/195 194/194/194 193/193/193
f 193/193/193 196/196/196 195/195/195
f 199/199/199 198/198/198 197/197/197
f 197/197/197 200/200/200 199/199/199
f 203/203/203 202/202/202 201/201/201
f 201/201/201 204/204/204 203/203/203
f 207/207/207 206/206/206 205/205/205
f 205/205/205 208/208/208 207/207/207
f 211/211/211 210/210/210 209/209/209
f 209/209/209 212/212/212 211/211/211
f 215/215/215 214/214/214 213/213/213
f 213/213/213 216/216/216 215/215/215
f 219/219/219 218/218/218 217/217/217
f 217/217/217 220/220/220 219/219/219
f 223/223/223 222/222/222 221/221/221
f 221/221/221 224/224/224 223/223/223
f 227/227/227 226/226/226 225/225/225
f 225/225/225 228/228/228 227/227/227
f 231/231/231 230/230/230 229/229/229
f 229/229/229 232/232/232 231/231/231
f 235/235/235 234/234/234 233/233/233
f 233/233/233 236/236/236 235/235/235
f 239/239/239 238/238/238 237/237/237
f 237/237/237 240/240/240 239/239/239
f 243/243/243 242/242/242 241/241/241
f 241/241/241 244/244/244 243/243/243
f 247/247/247 246/246/246 245/245/245
f 245/245/245 248/248/248 247/247/247
f 251/251/251 250/250/250 249/249/249
f 249/249/249 252/252/252 251/251/251
f 255/255/255 254/254/254 253/253/253
f 253/253/253 256/256/256 255/255/255
f 259/259/259 258/258/258 257/257/257
f 257/257/257 260/260/260 259/259/259
f 263/263/263 262/262/262 261/261/261
f 261/261/261 264/264/264 263/263/263
f 267/267/267 266/266/266 265/265/265
f 265/265/265 268/268/268 267/267/267
f 271/271/271 270/270/270 269/269/269
f 269/269/269 272/272/272 271/271/271
f 275/275/275 274/274/274 273/273/273
f 273/273/273 276/276/276 275/275/275
f 279/279/279 278/278/278 277/277/277
f 277/277/277 280/280/280 279/279/279
f 283/283/283 282/282/282 281/281/281
f 281/281/281 284/284/284 283/283/283
f 287/287/287 286/286/286 285/285/285
f 285/285/285 288/288/288 287/287/287
f 291/291/291 290/290/290 289/289/289
f 289/289/289 292/292/292 291/291/291
f 295/295/295 294/294/294 293/293/293
f 293/293/293 296/296/296 295/295/295
f 299/299/299 298/298/298 297/297/297
f 297/297/297 300/300/300 299/299/299
f 303/303/303 302/302/302 301/301/301
f 301/301/301 304/304/304 303/303/303
f 307/307/307 306/306/306 305/305/305
f 305/305/305 308/308/308 307/307/307
f 311/311/311 310/310/310 309/309/309
f 309/309/309 312/312/312 311/311/311
f 315/315/315 314/314/314 313/313/313
f 313/313/313 316/316/316 315/315/315
f 319/319/319 318/318/318 317/317/317
f 317/317/317 320/320/320 319/319/319
f 323/323/323 322/322/322 321/321/321
f 321/321/321 324/324/324 323/323/323
f 327/327/327 326/326/326 325/325/325
f 325/325/325 328/328/328 327/327/327
f 331/331/331 330/330/330 329/329/329
f 329/329/329 332/332/332 331/331/331
f 335/335/335 334/334/334 333/333/333
f 333/333/333 336/336/336 335/335/335
f 339/339/339 338/338/338 337/337/337
f 337/337/337 340/340/340 339/339/339
f 343/343/343 342/342/342 341/341/341
f 341/341/341 344/344/344 343/343/343
f 347/347/347 346/346/346 345/345/345
f 345/345/345 348/348/348 347/347/347
f 351/351/351 350/350/350 349/349/349
f 349/349/349 352/352/352 351/351/351
f 355/355/355 354/354/354 353/353/353
f 353/353/353 356/356/356 355/355/355
f 359/359/359 358/358/358 357/357/357
f 357/357/357 360/360/360 359/359/359
f 363/363/363 362/362/362 361/361/361
f 361/361/361 364/364/364 363/363/363
f 367/367/367 366/366/366 365/365/365
f 365/365/365 368/368/368 367/367/367
f 371/371/371 370/370/370 369/369/369
f 369/369/369 372/372/372 371/371/371
f 375/375/375 374/374/374 373/373/373
f 373/373/373 376/376/376 375/375/375
f 379/379/379 378/378/378 377/377/377
f 377/377/377 380/380/380 379/379/379
f 383/383/383 382/382/382 381/381/381
f 381/381/381 384/384/384 383/383/383
f 387/387/387 386/386/386 385/385/385
f 385/385/385 388/388/388 387/387/387
f 391/391/391 390/390/390 389/389/389
f 389/389/389 392/392/392 391/391/391
f 395/395/395 394/394/394 393/393/393
f 393/393/393 396/396/396 395/395/395
f 399/399/399 398/398/398 397/397/397
f 397/397/397 400/400/400 399/399/399
f 403/403/403 402/402/402 401/401/401
f 401/401/401 404/404/404 403/403/403
f 407/407/407 406/406/406 405/405/405
f 405/405/405 408/408/408 407/407/407
f 411/411/411 410/410/410 409/409/409
f 409/409/409 412/412/412 411/411/411
f 415/415/415 414/414/414 413/413/413
f 413/413/413 416/416/416 415/415/415
f 419/419/419 418/418/418 417/417/417
f 417/417/417 420/420/420 419/419/419
f 423/423/423 422/422/422 421/421/421
f 421/421/421 424/424/424 423/423/423
f 427/427/427 426/426/426 425/425/425
f 425/425/425 428/428/428 427/427/427
f 431/431/431 430/430/430 429/429/429
f 429/429/429 432/432/432 431/431/431
f 435/435/435 434/434/434 433/433/433
f 433/433/433 436/436/436 435/435/435
f 439/439/439 438/438/438 437/437/437
f 437/437/437 440/440/440 439/439/439
f 443/443/443 442/442/442 441/441/441
f 441/441/441 444/444/444 443/443/443
f 447/447/447 446/446/446 445/445/445
f 445/445/445 448/448/448 447/447/447
f 451/451/451 450/450/450 449/449/449
f 449/449/449 452/452/452 451/451/451
f 455/455/455 454/454/454 453/453/453
f 453/453/453 456/456/456 455/455/455
f 459/459/459 458/458/458 457/457/457
f 457/457/457 460/460/460 459/459/459
f 463/463/463 462/462/462 461/461/461
f 461/461/461 464/464/464 463/463/463
f 467/467/467 466/466/466 465/465/465
f 465/465/465 468/468/468 467/467/467
f 471/471/471 470/470/470 469/469/469
f 469/469/469 472/472/472 471/471/471
f 475/475/475 474/474/474 473/473/473
f 473/473/473 476/476/476 475/475/475
f 479/479/479 478/478/478 477/477/477
f 477/477/477 480/480/480 479/479/479
f 483/483/483 482/482/482 481/481/481
f 481/481/481 484/484/484 483/483/483
f 487/487/487 486/486/486 485/485/485
f 485/485/485 488/488/488 487/487/487
f 491/491/491 490/490/490 489/489/489
f 489/489/489 492/492/492 491/491/491
