g lingbo_5-mesh
v -32 283 0
v -32 699 0
v -480 699 0
v -480 283 0
v -480 283 0
v -480 699 0
v -896 699 0
v -896 283 0
v -736 699 0
v -736 923 0
v -1056 923 0
v -1056 699 0
v -416 699 0
v -416 923 0
v -736 923 0
v -736 699 0
v -608 27 0
v -608 283 0
v -768 283 0
v -768 27 0
v -256 59 0
v -256 251 0
v -448 251 0
v -448 59 0
v -896 443 0
v -896 635 0
v -1088 635 0
v -1088 443 0
v -1056 635 0
v -1056 795 0
v -1184 795 0
v -1184 635 0
v -544 123 0
v -544 283 0
v -608 283 0
v -608 123 0
v -896 347 0
v -896 443 0
v -992 443 0
v -992 347 0
v -160 27 0
v -160 123 0
v -256 123 0
v -256 27 0
v -544 0 0
v -544 123 0
v -608 123 0
v -608 0 0
v -128 251 0
v -128 283 0
v -352 283 0
v -352 251 0
v -1088 475 0
v -1088 571 0
v -1152 571 0
v -1152 475 0
v -384 923 0
v -384 1019 0
v -448 1019 0
v -448 923 0
v -576 923 0
v -576 987 0
v -672 987 0
v -672 923 0
v -352 251 0
v -352 283 0
v -544 283 0
v -544 251 0
v -480 923 0
v -480 987 0
v -576 987 0
v -576 923 0
v -896 635 0
v -896 699 0
v -992 699 0
v -992 635 0
v -480 987 0
v -480 1051 0
v -544 1051 0
v -544 987 0
v -1056 827 0
v -1056 891 0
v -1120 891 0
v -1120 827 0
v -384 0 0
v -384 59 0
v -448 59 0
v -448 0 0
v -832 219 0
v -832 283 0
v -896 283 0
v -896 219 0
v -992 635 0
v -992 699 0
v -1056 699 0
v -1056 635 0
v -0 475 0
v -0 571 0
v -32 571 0
v -32 475 0
v -0 571 0
v -0 667 0
v -32 667 0
v -32 571 0
v -832 923 0
v -832 955 0
v -928 955 0
v -928 923 0
v -768 187 0
v -768 283 0
v -800 283 0
v -800 187 0
v -128 699 0
v -128 731 0
v -192 731 0
v -192 699 0
v -1184 667 0
v -1184 731 0
v -1199 731 0
v -1199 667 0
v -1120 795 0
v -1120 827 0
v -1184 827 0
v -1184 795 0
v -32 699 0
v -32 731 0
v -96 731 0
v -96 699 0
v -224 123 0
v -224 187 0
v -256 187 0
v -256 123 0
v -480 219 0
v -480 251 0
v -544 251 0
v -544 219 0
v -992 379 0
v -992 443 0
v -1024 443 0
v -1024 379 0
v -0 347 0
v -0 411 0
v -32 411 0
v -32 347 0
v -256 699 0
v -256 731 0
v -320 731 0
v -320 699 0
v -768 123 0
v -768 187 0
v -800 187 0
v -800 123 0
v -928 923 0
v -928 955 0
v -992 955 0
v -992 923 0
v -672 0 0
v -672 27 0
v -736 27 0
v -736 0 0
v -672 923 0
v -672 955 0
v -736 955 0
v -736 923 0
v -1088 443 0
v -1088 475 0
v -1120 475 0
v -1120 443 0
v -800 251 0
v -800 283 0
v -832 283 0
v -832 251 0
v -160 219 0
v -160 251 0
v -192 251 0
v -192 219 0
v -224 219 0
v -224 251 0
v -256 251 0
v -256 219 0
v -256 27 0
v -256 59 0
v -288 59 0
v -288 27 0
v -512 187 0
v -512 219 0
v -544 219 0
v -544 187 0
v -320 27 0
v -320 59 0
v -352 59 0
v -352 27 0
v -736 923 0
v -736 955 0
v -768 955 0
v -768 923 0
v -320 699 0
v -320 731 0
v -352 731 0
v -352 699 0
v -736 0 0
v -736 27 0
v -768 27 0
v -768 0 0
v -448 923 0
v -448 955 0
v -480 955 0
v -480 923 0
v -1088 571 0
v -1088 603 0
v -1120 603 0
v -1120 571 0
v -384 699 0
v -384 731 0
v -416 731 0
v -416 699 0
v -1056 795 0
v -1056 827 0
v -1088 827 0
v -1088 795 0
vt 0.0009765625 0.00106835365
vt 0.0009765625 0.445512831
vt 0.438476562 0.445512831
vt 0.438476562 0.00106835365
vt 0.440429688 0.00106835365
vt 0.440429688 0.445512831
vt 0.846679688 0.445512831
vt 0.846679688 0.00106835365
vt 0.0009765625 0.447649598
vt 0.0009765625 0.686965823
vt 0.313476562 0.686965823
vt 0.313476562 0.447649598
vt 0.315429688 0.447649598
vt 0.315429688 0.686965823
vt 0.627929688 0.686965823
vt 0.627929688 0.447649598
vt 0.629882812 0.447649598
vt 0.629882812 0.721153855
vt 0.786132812 0.721153855
vt 0.786132812 0.447649598
vt 0.788085938 0.447649598
vt 0.788085938 0.652777791
vt 0.975585938 0.652777791
vt 0.975585938 0.447649598
vt 0.788085938 0.654914498
vt 0.788085938 0.860042751
vt 0.975585938 0.860042751
vt 0.975585938 0.654914498
vt 0.0009765625 0.68910253
vt 0.0009765625 0.860042751
vt 0.125976562 0.860042751
vt 0.125976562 0.68910253
vt 0.127929688 0.68910253
vt 0.127929688 0.860042751
vt 0.190429688 0.860042751
vt 0.190429688 0.68910253
vt 0.192382812 0.68910253
vt 0.192382812 0.791666687
vt 0.286132812 0.791666687
vt 0.286132812 0.68910253
vt 0.288085938 0.68910253
vt 0.288085938 0.791666687
vt 0.381835938 0.791666687
vt 0.381835938 0.68910253
vt 0.383789062 0.68910253
vt 0.383789062 0.821581185
vt 0.446289062 0.821581185
vt 0.446289062 0.68910253
vt 0.383789062 0.823717952
vt 0.383789062 0.857905984
vt 0.602539062 0.857905984
vt 0.602539062 0.823717952
vt 0.629882812 0.723290563
vt 0.629882812 0.825854719
vt 0.692382812 0.825854719
vt 0.692382812 0.723290563
vt 0.694335938 0.723290563
vt 0.694335938 0.825854719
vt 0.756835938 0.825854719
vt 0.756835938 0.723290563
vt 0.192382812 0.793803453
vt 0.192382812 0.862179518
vt 0.286132812 0.862179518
vt 0.286132812 0.793803453
vt 0.383789062 0.860042751
vt 0.383789062 0.894230783
vt 0.571289062 0.894230783
vt 0.571289062 0.860042751
vt 0.288085938 0.793803453
vt 0.288085938 0.862179518
vt 0.381835938 0.862179518
vt 0.381835938 0.793803453
vt 0.629882812 0.827991486
vt 0.629882812 0.89636755
vt 0.723632812 0.89636755
vt 0.723632812 0.827991486
vt 0.0009765625 0.862179518
vt 0.0009765625 0.930555582
vt 0.0634765625 0.930555582
vt 0.0634765625 0.862179518
vt 0.0654296875 0.862179518
vt 0.0654296875 0.930555582
vt 0.127929688 0.930555582
vt 0.127929688 0.862179518
vt 0.788085938 0.862179518
vt 0.788085938 0.926282048
vt 0.850585938 0.926282048
vt 0.850585938 0.862179518
vt 0.852539062 0.862179518
vt 0.852539062 0.930555582
vt 0.915039062 0.930555582
vt 0.915039062 0.862179518
vt 0.916992188 0.862179518
vt 0.916992188 0.930555582
vt 0.979492188 0.930555582
vt 0.979492188 0.862179518
vt 0.725585938 0.827991486
vt 0.725585938 0.930555582
vt 0.756835938 0.930555582
vt 0.756835938 0.827991486
vt 0.573242188 0.860042751
vt 0.573242188 0.962606847
vt 0.604492188 0.962606847
vt 0.604492188 0.860042751
vt 0.192382812 0.864316225
vt 0.192382812 0.898504257
vt 0.286132812 0.898504257
vt 0.286132812 0.864316225
vt 0.129882812 0.862179518
vt 0.129882812 0.964743614
vt 0.161132812 0.964743614
vt 0.161132812 0.862179518
vt 0.288085938 0.864316225
vt 0.288085938 0.898504257
vt 0.350585938 0.898504257
vt 0.350585938 0.864316225
vt 0.981445312 0.00106835365
vt 0.981445312 0.069444418
vt 0.997070312 0.069444418
vt 0.997070312 0.00106835365
vt 0.383789062 0.89636755
vt 0.383789062 0.930555582
vt 0.446289062 0.930555582
vt 0.446289062 0.89636755
vt 0.448242188 0.89636755
vt 0.448242188 0.930555582
vt 0.510742188 0.930555582
vt 0.510742188 0.89636755
vt 0.512695312 0.89636755
vt 0.512695312 0.964743614
vt 0.543945312 0.964743614
vt 0.543945312 0.89636755
vt 0.629882812 0.898504257
vt 0.629882812 0.932692289
vt 0.692382812 0.932692289
vt 0.692382812 0.898504257
vt 0.192382812 0.900641024
vt 0.192382812 0.969017088
vt 0.223632812 0.969017088
vt 0.223632812 0.900641024
vt 0.225585938 0.900641024
vt 0.225585938 0.969017088
vt 0.256835938 0.969017088
vt 0.256835938 0.900641024
vt 0.258789062 0.900641024
vt 0.258789062 0.934829056
vt 0.321289062 0.934829056
vt 0.321289062 0.900641024
vt 0.323242188 0.900641024
vt 0.323242188 0.969017088
vt 0.354492188 0.969017088
vt 0.354492188 0.900641024
vt 0.788085938 0.928418815
vt 0.788085938 0.962606847
vt 0.850585938 0.962606847
vt 0.850585938 0.928418815
vt 0.0009765625 0.932692289
vt 0.0009765625 0.962606847
vt 0.0634765625 0.962606847
vt 0.0634765625 0.932692289
vt 0.0654296875 0.932692289
vt 0.0654296875 0.966880322
vt 0.127929688 0.966880322
vt 0.127929688 0.932692289
vt 0.383789062 0.932692289
vt 0.383789062 0.966880322
vt 0.415039062 0.966880322
vt 0.415039062 0.932692289
vt 0.416992188 0.932692289
vt 0.416992188 0.966880322
vt 0.448242188 0.966880322
vt 0.448242188 0.932692289
vt 0.450195312 0.932692289
vt 0.450195312 0.966880322
vt 0.481445312 0.966880322
vt 0.481445312 0.932692289
vt 0.725585938 0.932692289
vt 0.725585938 0.966880322
vt 0.756835938 0.966880322
vt 0.756835938 0.932692289
vt 0.852539062 0.932692289
vt 0.852539062 0.966880322
vt 0.883789062 0.966880322
vt 0.883789062 0.932692289
vt 0.885742188 0.932692289
vt 0.885742188 0.966880322
vt 0.916992188 0.966880322
vt 0.916992188 0.932692289
vt 0.918945312 0.932692289
vt 0.918945312 0.966880322
vt 0.950195312 0.966880322
vt 0.950195312 0.932692289
vt 0.952148438 0.932692289
vt 0.952148438 0.966880322
vt 0.983398438 0.966880322
vt 0.983398438 0.932692289
vt 0.629882812 0.934829056
vt 0.629882812 0.969017088
vt 0.661132812 0.969017088
vt 0.661132812 0.934829056
vt 0.663085938 0.934829056
vt 0.663085938 0.964743614
vt 0.694335938 0.964743614
vt 0.694335938 0.934829056
vt 0.258789062 0.936965823
vt 0.258789062 0.971153855
vt 0.290039062 0.971153855
vt 0.290039062 0.936965823
vt 0.0009765625 0.964743614
vt 0.0009765625 0.998931646
vt 0.0322265625 0.998931646
vt 0.0322265625 0.964743614
vt 0.573242188 0.964743614
vt 0.573242188 0.998931646
vt 0.604492188 0.998931646
vt 0.604492188 0.964743614
vt 0.788085938 0.964743614
vt 0.788085938 0.998931646
vt 0.819335938 0.998931646
vt 0.819335938 0.964743614
g lingbo_5-mesh_0
f 3/3/3 2/2/2 1/1/1
f 1/1/1 4/4/4 3/3/3
f 7/7/7 6/6/6 5/5/5
f 5/5/5 8/8/8 7/7/7
f 11/11/11 10/10/10 9/9/9
f 9/9/9 12/12/12 11/11/11
f 15/15/15 14/14/14 13/13/13
f 13/13/13 16/16/16 15/15/15
f 19/19/19 18/18/18 17/17/17
f 17/17/17 20/20/20 19/19/19
f 23/23/23 22/22/22 21/21/21
f 21/21/21 24/24/24 23/23/23
f 27/27/27 26/26/26 25/25/25
f 25/25/25 28/28/28 27/27/27
f 31/31/31 30/30/30 29/29/29
f 29/29/29 32/32/32 31/31/31
f 35/35/35 34/34/34 33/33/33
f 33/33/33 36/36/36 35/35/35
f 39/39/39 38/38/38 37/37/37
f 37/37/37 40/40/40 39/39/39
f 43/43/43 42/42/42 41/41/41
f 41/41/41 44/44/44 43/43/43
f 47/47/47 46/46/46 45/45/45
f 45/45/45 48/48/48 47/47/47
f 51/51/51 50/50/50 49/49/49
f 49/49/49 52/52/52 51/51/51
f 55/55/55 54/54/54 53/53/53
f 53/53/53 56/56/56 55/55/55
f 59/59/59 58/58/58 57/57/57
f 57/57/57 60/60/60 59/59/59
f 63/63/63 62/62/62 61/61/61
f 61/61/61 64/64/64 63/63/63
f 67/67/67 66/66/66 65/65/65
f 65/65/65 68/68/68 67/67/67
f 71/71/71 70/70/70 69/69/69
f 69/69/69 72/72/72 71/71/71
f 75/75/75 74/74/74 73/73/73
f 73/73/73 76/76/76 75/75/75
f 79/79/79 78/78/78 77/77/77
f 77/77/77 80/80/80 79/79/79
f 83/83/83 82/82/82 81/81/81
f 81/81/81 84/84/84 83/83/83
f 87/87/87 86/86/86 85/85/85
f 85/85/85 88/88/88 87/87/87
f 91/91/91 90/90/90 89/89/89
f 89/89/89 92/92/92 91/91/91
f 95/95/95 94/94/94 93/93/93
f 93/93/93 96/96/96 95/95/95
f 99/99/99 98/98/98 97/97/97
f 97/97/97 100/100/100 99/99/99
f 103/103/103 102/102/102 101/101/101
f 101/101/101 104/104/104 103/103/103
f 107/107/107 106/106/106 105/105/105
f 105/105/105 108/108/108 107/107/107
f 111/111/111 110/110/110 109/109/109
f 109/109/109 112/112/112 111/111/111
f 115/115/115 114/114/114 113/113/113
f 113/113/113 116/116/116 115/115/115
f 119/119/119 118/118/118 117/117/117
f 117/117/117 120/120/120 119/119/119
f 123/123/123 122/122/122 121/121/121
f 121/121/121 124/124/124 123/123/123
f 127/127/127 126/126/126 125/125/125
f 125/125/125 128/128/128 127/127/127
f 131/131/131 130/130/130 129/129/129
f 129/129/129 132/132/132 131/131/131
f 135/135/135 134/134/134 133/133/133
f 133/133/133 136/136/136 135/135/135
f 139/139/139 138/138/138 137/137/137
f 137/137/137 140/140/140 139/139/139
f 143/143/143 142/142/142 141/141/141
f 141/141/141 144/144/144 143/143/143
f 147/147/147 146/146/146 145/145/145
f 145/145/145 148/148/148 147/147/147
f 151/151/151 150/150/150 149/149/149
f 149/149/149 152/152/152 151/151/151
f 155/155/155 154/154/154 153/153/153
f 153/153/153 156/156/156 155/155/155
f 159/159/159 158/158/158 157/157/157
f 157/157/157 160/160/160 159/159/159
f 163/163/163 162/162/162 161/161/161
f 161/161/161 164/164/164 163/163/163
f 167/167/167 166/166/166 165/165/165
f 165/165/165 168/168/168 167/167/167
f 171/171/171 170/170/170 169/169/169
f 169/169/169 172/172/172 171/171/171
f 175/175/175 174/174/174 173/173/173
f 173/173/173 176/176/176 175/175/175
f 179/179/179 178/178/178 177/177/177
f 177/177/177 180/180/180 179/179/179
f 183/183/183 182/182/182 181/181/181
f 181/181/181 184/184/184 183/183/183
f 187/187/187 186/186/186 185/185/185
f 185/185/185 188/188/188 187/187/187
f 191/191/191 190/190/190 189/189/189
f 189/189/189 192/192/192 191/191/191
f 195/195/195 194/194/194 193/193/193
f 193/193/193 196/196/196 195/195/195
f 199/199/199 198/198/198 197/197/197
f 197/197/197 200/200/200 199/199/199
f 203/203/203 202/202/202 201/201/201
f 201/201/201 204/204/204 203/203/203
f 207/207/207 206/206/206 205/205/205
f 205/205/205 208/208/208 207/207/207
f 211/211/211 210/210/210 209/209/209
f 209/209/209 212/212/212 211/211/211
f 215/215/215 214/214/214 213/213/213
f 213/213/213 216/216/216 215/215/215
f 219/219/219 218/218/218 217/217/217
f 217/217/217 220/220/220 219/219/219
