g luyijiushi_3-mesh
v -1056 111 0
v -1056 1423 0
v -1792 1423 0
v -1792 111 0
v -320 111 0
v -320 1423 0
v -1056 1423 0
v -1056 111 0
v -1120 1423 0
v -1120 1647 0
v -1664 1647 0
v -1664 1423 0
v -576 1423 0
v -576 1647 0
v -1120 1647 0
v -1120 1423 0
v -128 111 0
v -128 623 0
v -320 623 0
v -320 111 0
v -128 623 0
v -128 1135 0
v -320 1135 0
v -320 623 0
v -576 15 0
v -576 111 0
v -1152 111 0
v -1152 15 0
v -1152 15 0
v -1152 111 0
v -1696 111 0
v -1696 15 0
v -1792 239 0
v -1792 463 0
v -1920 463 0
v -1920 239 0
v -992 1647 0
v -992 1711 0
v -1408 1711 0
v -1408 1647 0
v -576 1647 0
v -576 1711 0
v -992 1711 0
v -992 1647 0
v -1792 623 0
v -1792 815 0
v -1888 815 0
v -1888 623 0
v -1792 1199 0
v -1792 1359 0
v -1888 1359 0
v -1888 1199 0
v -96 495 0
v -96 847 0
v -128 847 0
v -128 495 0
v -96 143 0
v -96 495 0
v -128 495 0
v -128 143 0
v -1664 1423 0
v -1664 1519 0
v -1760 1519 0
v -1760 1423 0
v -64 975 0
v -64 1103 0
v -128 1103 0
v -128 975 0
v -576 1711 0
v -576 1743 0
v -832 1743 0
v -832 1711 0
v -832 1711 0
v -832 1743 0
v -1088 1743 0
v -1088 1711 0
v -64 1103 0
v -64 1231 0
v -128 1231 0
v -128 1103 0
v -32 239 0
v -32 335 0
v -96 335 0
v -96 239 0
v -128 1135 0
v -128 1231 0
v -192 1231 0
v -192 1135 0
v -192 1359 0
v -192 1455 0
v -256 1455 0
v -256 1359 0
v -512 1487 0
v -512 1583 0
v -576 1583 0
v -576 1487 0
v -1312 1711 0
v -1312 1775 0
v -1408 1775 0
v -1408 1711 0
v -1216 1711 0
v -1216 1775 0
v -1312 1775 0
v -1312 1711 0
v -64 655 0
v -64 815 0
v -96 815 0
v -96 655 0
v -256 1167 0
v -256 1231 0
v -320 1231 0
v -320 1167 0
v -96 1231 0
v -96 1295 0
v -160 1295 0
v -160 1231 0
v -1024 1743 0
v -1024 1807 0
v -1088 1807 0
v -1088 1743 0
v -32 175 0
v -32 239 0
v -96 239 0
v -96 175 0
v -64 527 0
v -64 655 0
v -96 655 0
v -96 527 0
v -512 1423 0
v -512 1487 0
v -576 1487 0
v -576 1423 0
v -1792 527 0
v -1792 623 0
v -1824 623 0
v -1824 527 0
v -1920 335 0
v -1920 431 0
v -1952 431 0
v -1952 335 0
v -1664 1679 0
v -1664 1743 0
v -1696 1743 0
v -1696 1679 0
v -1760 1423 0
v -1760 1487 0
v -1792 1487 0
v -1792 1423 0
v -1792 1359 0
v -1792 1391 0
v -1856 1391 0
v -1856 1359 0
v -1280 1775 0
v -1280 1807 0
v -1344 1807 0
v -1344 1775 0
v -1152 1711 0
v -1152 1743 0
v -1216 1743 0
v -1216 1711 0
v -1792 175 0
v -1792 239 0
v -1824 239 0
v -1824 175 0
v -1856 815 0
v -1856 879 0
v -1888 879 0
v -1888 815 0
v -1824 463 0
v -1824 527 0
v -1856 527 0
v -1856 463 0
v -0 271 0
v -0 335 0
v -32 335 0
v -32 271 0
v -224 1295 0
v -224 1359 0
v -256 1359 0
v -256 1295 0
v -32 1039 0
v -32 1103 0
v -64 1103 0
v -64 1039 0
v -1696 79 0
v -1696 111 0
v -1760 111 0
v -1760 79 0
v -0 399 0
v -0 431 0
v -64 431 0
v -64 399 0
v -32 719 0
v -32 783 0
v -64 783 0
v -64 719 0
v -32 655 0
v -32 719 0
v -64 719 0
v -64 655 0
v -1664 1551 0
v -1664 1615 0
v -1696 1615 0
v -1696 1551 0
v -1792 463 0
v -1792 527 0
v -1824 527 0
v -1824 463 0
v -384 1423 0
v -384 1455 0
v -448 1455 0
v -448 1423 0
v -448 1423 0
v -448 1455 0
v -512 1455 0
v -512 1423 0
v -1888 719 0
v -1888 783 0
v -1920 783 0
v -1920 719 0
v -96 911 0
v -96 975 0
v -128 975 0
v -128 911 0
v -1920 271 0
v -1920 335 0
v -1952 335 0
v -1952 271 0
v -1888 1231 0
v -1888 1263 0
v -1920 1263 0
v -1920 1231 0
v -1856 463 0
v -1856 495 0
v -1888 495 0
v -1888 463 0
v -192 1135 0
v -192 1167 0
v -224 1167 0
v -224 1135 0
v -64 335 0
v -64 367 0
v -96 367 0
v -96 335 0
v -0 207 0
v -0 239 0
v -32 239 0
v -32 207 0
v -2016 271 0
v -2016 303 0
v -2047 303 0
v -2047 271 0
v -1664 0 0
v -1664 15 0
v -1696 15 0
v -1696 0 0
v -32 143 0
v -32 175 0
v -64 175 0
v -64 143 0
v -480 1487 0
v -480 1519 0
v -512 1519 0
v -512 1487 0
v -96 879 0
v -96 911 0
v -128 911 0
v -128 879 0
v -1664 1519 0
v -1664 1551 0
v -1696 1551 0
v -1696 1519 0
v -1888 687 0
v -1888 719 0
v -1920 719 0
v -1920 687 0
v -1792 143 0
v -1792 175 0
v -1824 175 0
v -1824 143 0
v -1408 1647 0
v -1408 1679 0
v -1440 1679 0
v -1440 1647 0
v -1472 1647 0
v -1472 1679 0
v -1504 1679 0
v -1504 1647 0
v -64 399 0
v -64 431 0
v -96 431 0
v -96 399 0
v -1408 1711 0
v -1408 1743 0
v -1440 1743 0
v -1440 1711 0
vt 0.00048828125 0.000645160675
vt 0.00048828125 0.847096801
vt 0.359863281 0.847096801
vt 0.359863281 0.000645160675
vt 0.360839844 0.000645160675
vt 0.360839844 0.847096801
vt 0.720214844 0.847096801
vt 0.720214844 0.000645160675
vt 0.721191406 0.000645160675
vt 0.721191406 0.145161271
vt 0.986816406 0.145161271
vt 0.986816406 0.000645160675
vt 0.721191406 0.146451592
vt 0.721191406 0.290967762
vt 0.986816406 0.290967762
vt 0.986816406 0.146451592
vt 0.721191406 0.292258084
vt 0.721191406 0.622580647
vt 0.814941406 0.622580647
vt 0.814941406 0.292258084
vt 0.815917969 0.292258084
vt 0.815917969 0.622580647
vt 0.909667969 0.622580647
vt 0.909667969 0.292258084
vt 0.00048828125 0.848387122
vt 0.00048828125 0.910322607
vt 0.281738281 0.910322607
vt 0.281738281 0.848387122
vt 0.721191406 0.623870969
vt 0.721191406 0.685806453
vt 0.986816406 0.685806453
vt 0.986816406 0.623870969
vt 0.721191406 0.687096775
vt 0.721191406 0.831612885
vt 0.783691406 0.831612885
vt 0.783691406 0.687096775
vt 0.784667969 0.687096775
vt 0.784667969 0.728387117
vt 0.987792969 0.728387117
vt 0.987792969 0.687096775
vt 0.784667969 0.729677439
vt 0.784667969 0.770967722
vt 0.987792969 0.770967722
vt 0.987792969 0.729677439
vt 0.784667969 0.772258043
vt 0.784667969 0.896129012
vt 0.831542969 0.896129012
vt 0.831542969 0.772258043
vt 0.832519531 0.772258043
vt 0.832519531 0.875483871
vt 0.879394531 0.875483871
vt 0.879394531 0.772258043
vt 0.880371094 0.772258043
vt 0.880371094 0.999354839
vt 0.895996094 0.999354839
vt 0.895996094 0.772258043
vt 0.896972656 0.772258043
vt 0.896972656 0.999354839
vt 0.912597656 0.999354839
vt 0.912597656 0.772258043
vt 0.913574219 0.772258043
vt 0.913574219 0.834193528
vt 0.960449219 0.834193528
vt 0.960449219 0.772258043
vt 0.961425781 0.772258043
vt 0.961425781 0.854838729
vt 0.992675781 0.854838729
vt 0.992675781 0.772258043
vt 0.282714844 0.848387122
vt 0.282714844 0.869032264
vt 0.407714844 0.869032264
vt 0.407714844 0.848387122
vt 0.408691406 0.848387122
vt 0.408691406 0.869032264
vt 0.533691406 0.869032264
vt 0.533691406 0.848387122
vt 0.721191406 0.832903206
vt 0.721191406 0.915483892
vt 0.752441406 0.915483892
vt 0.752441406 0.832903206
vt 0.913574219 0.835483849
vt 0.913574219 0.897419333
vt 0.944824219 0.897419333
vt 0.944824219 0.835483849
vt 0.534667969 0.848387122
vt 0.534667969 0.910322607
vt 0.565917969 0.910322607
vt 0.565917969 0.848387122
vt 0.566894531 0.848387122
vt 0.566894531 0.910322607
vt 0.598144531 0.910322607
vt 0.598144531 0.848387122
vt 0.599121094 0.848387122
vt 0.599121094 0.910322607
vt 0.630371094 0.910322607
vt 0.630371094 0.848387122
vt 0.631347656 0.848387122
vt 0.631347656 0.889677405
vt 0.678222656 0.889677405
vt 0.678222656 0.848387122
vt 0.282714844 0.870322585
vt 0.282714844 0.911612928
vt 0.329589844 0.911612928
vt 0.329589844 0.870322585
vt 0.753417969 0.832903206
vt 0.753417969 0.936129034
vt 0.769042969 0.936129034
vt 0.769042969 0.832903206
vt 0.679199219 0.848387122
vt 0.679199219 0.889677405
vt 0.710449219 0.889677405
vt 0.710449219 0.848387122
vt 0.961425781 0.85612905
vt 0.961425781 0.897419333
vt 0.992675781 0.897419333
vt 0.992675781 0.85612905
vt 0.330566406 0.870322585
vt 0.330566406 0.911612928
vt 0.361816406 0.911612928
vt 0.361816406 0.870322585
vt 0.362792969 0.870322585
vt 0.362792969 0.911612928
vt 0.394042969 0.911612928
vt 0.394042969 0.870322585
vt 0.395019531 0.870322585
vt 0.395019531 0.952903211
vt 0.410644531 0.952903211
vt 0.410644531 0.870322585
vt 0.411621094 0.870322585
vt 0.411621094 0.911612928
vt 0.442871094 0.911612928
vt 0.442871094 0.870322585
vt 0.443847656 0.870322585
vt 0.443847656 0.93225807
vt 0.459472656 0.93225807
vt 0.459472656 0.870322585
vt 0.460449219 0.870322585
vt 0.460449219 0.93225807
vt 0.476074219 0.93225807
vt 0.476074219 0.870322585
vt 0.477050781 0.870322585
vt 0.477050781 0.911612928
vt 0.492675781 0.911612928
vt 0.492675781 0.870322585
vt 0.493652344 0.870322585
vt 0.493652344 0.911612928
vt 0.509277344 0.911612928
vt 0.509277344 0.870322585
vt 0.832519531 0.876774192
vt 0.832519531 0.897419333
vt 0.863769531 0.897419333
vt 0.863769531 0.876774192
vt 0.631347656 0.890967727
vt 0.631347656 0.911612928
vt 0.662597656 0.911612928
vt 0.662597656 0.890967727
vt 0.663574219 0.890967727
vt 0.663574219 0.911612928
vt 0.694824219 0.911612928
vt 0.694824219 0.890967727
vt 0.510253906 0.870322585
vt 0.510253906 0.911612928
vt 0.525878906 0.911612928
vt 0.525878906 0.870322585
vt 0.695800781 0.890967727
vt 0.695800781 0.93225807
vt 0.711425781 0.93225807
vt 0.711425781 0.890967727
vt 0.784667969 0.897419333
vt 0.784667969 0.938709676
vt 0.800292969 0.938709676
vt 0.800292969 0.897419333
vt 0.801269531 0.897419333
vt 0.801269531 0.938709676
vt 0.816894531 0.938709676
vt 0.816894531 0.897419333
vt 0.832519531 0.898709655
vt 0.832519531 0.939999998
vt 0.848144531 0.939999998
vt 0.848144531 0.898709655
vt 0.849121094 0.898709655
vt 0.849121094 0.939999998
vt 0.864746094 0.939999998
vt 0.864746094 0.898709655
vt 0.913574219 0.898709655
vt 0.913574219 0.919354856
vt 0.944824219 0.919354856
vt 0.944824219 0.898709655
vt 0.961425781 0.898709655
vt 0.961425781 0.919354856
vt 0.992675781 0.919354856
vt 0.992675781 0.898709655
vt 0.00048828125 0.911612928
vt 0.00048828125 0.952903211
vt 0.0161132812 0.952903211
vt 0.0161132812 0.911612928
vt 0.0170898438 0.911612928
vt 0.0170898438 0.952903211
vt 0.0327148438 0.952903211
vt 0.0327148438 0.911612928
vt 0.0336914062 0.911612928
vt 0.0336914062 0.952903211
vt 0.0493164062 0.952903211
vt 0.0493164062 0.911612928
vt 0.0502929688 0.911612928
vt 0.0502929688 0.952903211
vt 0.0659179688 0.952903211
vt 0.0659179688 0.911612928
vt 0.0668945312 0.911612928
vt 0.0668945312 0.93225807
vt 0.0981445312 0.93225807
vt 0.0981445312 0.911612928
vt 0.0991210938 0.911612928
vt 0.0991210938 0.93225807
vt 0.130371094 0.93225807
vt 0.130371094 0.911612928
vt 0.131347656 0.911612928
vt 0.131347656 0.952903211
vt 0.146972656 0.952903211
vt 0.146972656 0.911612928
vt 0.147949219 0.911612928
vt 0.147949219 0.952903211
vt 0.163574219 0.952903211
vt 0.163574219 0.911612928
vt 0.164550781 0.911612928
vt 0.164550781 0.952903211
vt 0.180175781 0.952903211
vt 0.180175781 0.911612928
vt 0.181152344 0.911612928
vt 0.181152344 0.93225807
vt 0.196777344 0.93225807
vt 0.196777344 0.911612928
vt 0.197753906 0.911612928
vt 0.197753906 0.93225807
vt 0.213378906 0.93225807
vt 0.213378906 0.911612928
vt 0.214355469 0.911612928
vt 0.214355469 0.93225807
vt 0.229980469 0.93225807
vt 0.229980469 0.911612928
vt 0.230957031 0.911612928
vt 0.230957031 0.93225807
vt 0.246582031 0.93225807
vt 0.246582031 0.911612928
vt 0.247558594 0.911612928
vt 0.247558594 0.93225807
vt 0.263183594 0.93225807
vt 0.263183594 0.911612928
vt 0.264160156 0.911612928
vt 0.264160156 0.93225807
vt 0.279785156 0.93225807
vt 0.279785156 0.911612928
vt 0.534667969 0.911612928
vt 0.534667969 0.921935499
vt 0.550292969 0.921935499
vt 0.550292969 0.911612928
vt 0.551269531 0.911612928
vt 0.551269531 0.93225807
vt 0.566894531 0.93225807
vt 0.566894531 0.911612928
vt 0.567871094 0.911612928
vt 0.567871094 0.93225807
vt 0.583496094 0.93225807
vt 0.583496094 0.911612928
vt 0.584472656 0.911612928
vt 0.584472656 0.93225807
vt 0.600097656 0.93225807
vt 0.600097656 0.911612928
vt 0.601074219 0.911612928
vt 0.601074219 0.93225807
vt 0.616699219 0.93225807
vt 0.616699219 0.911612928
vt 0.282714844 0.912903249
vt 0.282714844 0.933548391
vt 0.298339844 0.933548391
vt 0.298339844 0.912903249
vt 0.299316406 0.912903249
vt 0.299316406 0.933548391
vt 0.314941406 0.933548391
vt 0.314941406 0.912903249
vt 0.315917969 0.912903249
vt 0.315917969 0.933548391
vt 0.331542969 0.933548391
vt 0.331542969 0.912903249
vt 0.332519531 0.912903249
vt 0.332519531 0.933548391
vt 0.348144531 0.933548391
vt 0.348144531 0.912903249
vt 0.349121094 0.912903249
vt 0.349121094 0.933548391
vt 0.364746094 0.933548391
vt 0.364746094 0.912903249
vt 0.365722656 0.912903249
vt 0.365722656 0.933548391
vt 0.381347656 0.933548391
vt 0.381347656 0.912903249
g luyijiushi_3-mesh_0
f 3/3/3 2/2/2 1/1/1
f 1/1/1 4/4/4 3/3/3
f 7/7/7 6/6/6 5/5/5
f 5/5/5 8/8/8 7/7/7
f 11/11/11 10/10/10 9/9/9
f 9/9/9 12/12/12 11/11/11
f 15/15/15 14/14/14 13/13/13
f 13/13/13 16/16/16 15/15/15
f 19/19/19 18/18/18 17/17/17
f 17/17/17 20/20/20 19/19/19
f 23/23/23 22/22/22 21/21/21
f 21/21/21 24/24/24 23/23/23
f 27/27/27 26/26/26 25/25/25
f 25/25/25 28/28/28 27/27/27
f 31/31/31 30/30/30 29/29/29
f 29/29/29 32/32/32 31/31/31
f 35/35/35 34/34/34 33/33/33
f 33/33/33 36/36/36 35/35/35
f 39/39/39 38/38/38 37/37/37
f 37/37/37 40/40/40 39/39/39
f 43/43/43 42/42/42 41/41/41
f 41/41/41 44/44/44 43/43/43
f 47/47/47 46/46/46 45/45/45
f 45/45/45 48/48/48 47/47/47
f 51/51/51 50/50/50 49/49/49
f 49/49/49 52/52/52 51/51/51
f 55/55/55 54/54/54 53/53/53
f 53/53/53 56/56/56 55/55/55
f 59/59/59 58/58/58 57/57/57
f 57/57/57 60/60/60 59/59/59
f 63/63/63 62/62/62 61/61/61
f 61/61/61 64/64/64 63/63/63
f 67/67/67 66/66/66 65/65/65
f 65/65/65 68/68/68 67/67/67
f 71/71/71 70/70/70 69/69/69
f 69/69/69 72/72/72 71/71/71
f 75/75/75 74/74/74 73/73/73
f 73/73/73 76/76/76 75/75/75
f 79/79/79 78/78/78 77/77/77
f 77/77/77 80/80/80 79/79/79
f 83/83/83 82/82/82 81/81/81
f 81/81/81 84/84/84 83/83/83
f 87/87/87 86/86/86 85/85/85
f 85/85/85 88/88/88 87/87/87
f 91/91/91 90/90/90 89/89/89
f 89/89/89 92/92/92 91/91/91
f 95/95/95 94/94/94 93/93/93
f 93/93/93 96/96/96 95/95/95
f 99/99/99 98/98/98 97/97/97
f 97/97/97 100/100/100 99/99/99
f 103/103/103 102/102/102 101/101/101
f 101/101/101 104/104/104 103/103/103
f 107/107/107 106/106/106 105/105/105
f 105/105/105 108/108/108 107/107/107
f 111/111/111 110/110/110 109/109/109
f 109/109/109 112/112/112 111/111/111
f 115/115/115 114/114/114 113/113/113
f 113/113/113 116/116/116 115/115/115
f 119/119/119 118/118/118 117/117/117
f 117/117/117 120/120/120 119/119/119
f 123/123/123 122/122/122 121/121/121
f 121/121/121 124/124/124 123/123/123
f 127/127/127 126/126/126 125/125/125
f 125/125/125 128/128/128 127/127/127
f 131/131/131 130/130/130 129/129/129
f 129/129/129 132/132/132 131/131/131
f 135/135/135 134/134/134 133/133/133
f 133/133/133 136/136/136 135/135/135
f 139/139/139 138/138/138 137/137/137
f 137/137/137 140/140/140 139/139/139
f 143/143/143 142/142/142 141/141/141
f 141/141/141 144/144/144 143/143/143
f 147/147/147 146/146/146 145/145/145
f 145/145/145 148/148/148 147/147/147
f 151/151/151 150/150/150 149/149/149
f 149/149/149 152/152/152 151/151/151
f 155/155/155 154/154/154 153/153/153
f 153/153/153 156/156/156 155/155/155
f 159/159/159 158/158/158 157/157/157
f 157/157/157 160/160/160 159/159/159
f 163/163/163 162/162/162 161/161/161
f 161/161/161 164/164/164 163/163/163
f 167/167/167 166/166/166 165/165/165
f 165/165/165 168/168/168 167/167/167
f 171/171/171 170/170/170 169/169/169
f 169/169/169 172/172/172 171/171/171
f 175/175/175 174/174/174 173/173/173
f 173/173/173 176/176/176 175/175/175
f 179/179/179 178/178/178 177/177/177
f 177/177/177 180/180/180 179/179/179
f 183/183/183 182/182/182 181/181/181
f 181/181/181 184/184/184 183/183/183
f 187/187/187 186/186/186 185/185/185
f 185/185/185 188/188/188 187/187/187
f 191/191/191 190/190/190 189/189/189
f 189/189/189 192/192/192 191/191/191
f 195/195/195 194/194/194 193/193/193
f 193/193/193 196/196/196 195/195/195
f 199/199/199 198/198/198 197/197/197
f 197/197/197 200/200/200 199/199/199
f 203/203/203 202/202/202 201/201/201
f 201/201/201 204/204/204 203/203/203
f 207/207/207 206/206/206 205/205/205
f 205/205/205 208/208/208 207/207/207
f 211/211/211 210/210/210 209/209/209
f 209/209/209 212/212/212 211/211/211
f 215/215/215 214/214/214 213/213/213
f 213/213/213 216/216/216 215/215/215
f 219/219/219 218/218/218 217/217/217
f 217/217/217 220/220/220 219/219/219
f 223/223/223 222/222/222 221/221/221
f 221/221/221 224/224/224 223/223/223
f 227/227/227 226/226/226 225/225/225
f 225/225/225 228/228/228 227/227/227
f 231/231/231 230/230/230 229/229/229
f 229/229/229 232/232/232 231/231/231
f 235/235/235 234/234/234 233/233/233
f 233/233/233 236/236/236 235/235/235
f 239/239/239 238/238/238 237/237/237
f 237/237/237 240/240/240 239/239/239
f 243/243/243 242/242/242 241/241/241
f 241/241/241 244/244/244 243/243/243
f 247/247/247 246/246/246 245/245/245
f 245/245/245 248/248/248 247/247/247
f 251/251/251 250/250/250 249/249/249
f 249/249/249 252/252/252 251/251/251
f 255/255/255 254/254/254 253/253/253
f 253/253/253 256/256/256 255/255/255
f 259/259/259 258/258/258 257/257/257
f 257/257/257 260/260/260 259/259/259
f 263/263/263 262/262/262 261/261/261
f 261/261/261 264/264/264 263/263/263
f 267/267/267 266/266/266 265/265/265
f 265/265/265 268/268/268 267/267/267
f 271/271/271 270/270/270 269/269/269
f 269/269/269 272/272/272 271/271/271
f 275/275/275 274/274/274 273/273/273
f 273/273/273 276/276/276 275/275/275
f 279/279/279 278/278/278 277/277/277
f 277/277/277 280/280/280 279/279/279
f 283/283/283 282/282/282 281/281/281
f 281/281/281 284/284/284 283/283/283
f 287/287/287 286/286/286 285/285/285
f 285/285/285 288/288/288 287/287/287
f 291/291/291 290/290/290 289/289/289
f 289/289/289 292/292/292 291/291/291
f 295/295/295 294/294/294 293/293/293
f 293/293/293 296/296/296 295/295/295
