g junzhu_4-mesh
v -1024 52 0
v -1024 1236 0
v -1696 1236 0
v -1696 52 0
v -352 52 0
v -352 1236 0
v -1024 1236 0
v -1024 52 0
v -1024 1236 0
v -1024 1428 0
v -1568 1428 0
v -1568 1236 0
v -480 1236 0
v -480 1428 0
v -1024 1428 0
v -1024 1236 0
v -160 340 0
v -160 692 0
v -352 692 0
v -352 340 0
v -1696 116 0
v -1696 436 0
v -1888 436 0
v -1888 116 0
v -1696 436 0
v -1696 756 0
v -1888 756 0
v -1888 436 0
v -160 20 0
v -160 340 0
v -352 340 0
v -352 20 0
v -1888 148 0
v -1888 404 0
v -2047 404 0
v -2047 148 0
v -64 212 0
v -64 404 0
v -160 404 0
v -160 212 0
v -1696 884 0
v -1696 1044 0
v -1792 1044 0
v -1792 884 0
v -256 820 0
v -256 980 0
v -352 980 0
v -352 820 0
v -736 1428 0
v -736 1524 0
v -896 1524 0
v -896 1428 0
v -64 52 0
v -64 212 0
v -160 212 0
v -160 52 0
v -576 1428 0
v -576 1524 0
v -736 1524 0
v -736 1428 0
v -352 20 0
v -352 52 0
v -800 52 0
v -800 20 0
v -800 20 0
v -800 52 0
v -1216 52 0
v -1216 20 0
v -1696 756 0
v -1696 884 0
v -1792 884 0
v -1792 756 0
v -256 692 0
v -256 820 0
v -352 820 0
v -352 692 0
v -1984 852 0
v -1984 980 0
v -2047 980 0
v -2047 852 0
v -1952 980 0
v -1952 1108 0
v -2016 1108 0
v -2016 980 0
v -1888 468 0
v -1888 564 0
v -1952 564 0
v -1952 468 0
v -1696 1044 0
v -1696 1140 0
v -1760 1140 0
v -1760 1044 0
v -32 148 0
v -32 308 0
v -64 308 0
v -64 148 0
v -32 0 0
v -32 148 0
v -64 148 0
v -64 0 0
v -1856 1460 0
v -1856 1524 0
v -1920 1524 0
v -1920 1460 0
v -1888 404 0
v -1888 468 0
v -1952 468 0
v -1952 404 0
v -896 1428 0
v -896 1460 0
v -1024 1460 0
v -1024 1428 0
v -224 788 0
v -224 884 0
v -256 884 0
v -256 788 0
v -224 692 0
v -224 788 0
v -256 788 0
v -256 692 0
v -128 500 0
v -128 596 0
v -160 596 0
v -160 500 0
v -448 0 0
v -448 20 0
v -544 20 0
v -544 0 0
v -64 0 0
v -64 20 0
v -160 20 0
v -160 0 0
v -128 404 0
v -128 500 0
v -160 500 0
v -160 404 0
v -1920 1140 0
v -1920 1236 0
v -1952 1236 0
v -1952 1140 0
v -1920 1236 0
v -1920 1332 0
v -1952 1332 0
v -1952 1236 0
v -1024 1428 0
v -1024 1460 0
v -1120 1460 0
v -1120 1428 0
v -320 1076 0
v -320 1172 0
v -352 1172 0
v -352 1076 0
v -1792 852 0
v -1792 948 0
v -1824 948 0
v -1824 852 0
v -1792 756 0
v -1792 852 0
v -1824 852 0
v -1824 756 0
v -320 980 0
v -320 1076 0
v -352 1076 0
v -352 980 0
v -1888 596 0
v -1888 660 0
v -1920 660 0
v -1920 596 0
v -96 436 0
v -96 500 0
v -128 500 0
v -128 436 0
v -0 52 0
v -0 116 0
v -32 116 0
v -32 52 0
v -1952 436 0
v -1952 500 0
v -1984 500 0
v -1984 436 0
v -288 1012 0
v -288 1076 0
v -320 1076 0
v -320 1012 0
v -1952 1140 0
v -1952 1204 0
v -1984 1204 0
v -1984 1140 0
v -192 724 0
v -192 788 0
v -224 788 0
v -224 724 0
v -1824 788 0
v -1824 852 0
v -1856 852 0
v -1856 788 0
v -1888 116 0
v -1888 148 0
v -1952 148 0
v -1952 116 0
v -0 148 0
v -0 212 0
v -32 212 0
v -32 148 0
v -352 0 0
v -352 20 0
v -416 20 0
v -416 0 0
v -256 0 0
v -256 20 0
v -320 20 0
v -320 0 0
v -1888 1300 0
v -1888 1364 0
v -1920 1364 0
v -1920 1300 0
v -544 1428 0
v -544 1492 0
v -576 1492 0
v -576 1428 0
v -1696 1140 0
v -1696 1204 0
v -1728 1204 0
v -1728 1140 0
v -448 1268 0
v -448 1332 0
v -480 1332 0
v -480 1268 0
v -1760 84 0
v -1760 116 0
v -1824 116 0
v -1824 84 0
v -1184 1428 0
v -1184 1460 0
v -1248 1460 0
v -1248 1428 0
v -896 1460 0
v -896 1492 0
v -960 1492 0
v -960 1460 0
v -544 0 0
v -544 20 0
v -608 20 0
v -608 0 0
v -1696 84 0
v -1696 116 0
v -1760 116 0
v -1760 84 0
v -2016 788 0
v -2016 852 0
v -2047 852 0
v -2047 788 0
v -416 1236 0
v -416 1268 0
v -480 1268 0
v -480 1236 0
v -1248 1428 0
v -1248 1460 0
v -1312 1460 0
v -1312 1428 0
v -2016 724 0
v -2016 788 0
v -2047 788 0
v -2047 724 0
v -352 1236 0
v -352 1268 0
v -416 1268 0
v -416 1236 0
v -1568 1364 0
v -1568 1428 0
v -1600 1428 0
v -1600 1364 0
v -160 0 0
v -160 20 0
v -224 20 0
v -224 0 0
v -1376 1428 0
v -1376 1460 0
v -1440 1460 0
v -1440 1428 0
v -128 20 0
v -128 52 0
v -160 52 0
v -160 20 0
v -64 20 0
v -64 52 0
v -96 52 0
v -96 20 0
v -1984 116 0
v -1984 148 0
v -2016 148 0
v -2016 116 0
v -1600 1396 0
v -1600 1428 0
v -1632 1428 0
v -1632 1396 0
v -1888 1428 0
v -1888 1460 0
v -1920 1460 0
v -1920 1428 0
v -1984 404 0
v -1984 436 0
v -2016 436 0
v -2016 404 0
v -1568 1236 0
v -1568 1268 0
v -1600 1268 0
v -1600 1236 0
v -1440 1428 0
v -1440 1460 0
v -1472 1460 0
v -1472 1428 0
v -1824 756 0
v -1824 788 0
v -1856 788 0
v -1856 756 0
v -288 980 0
v -288 1012 0
v -320 1012 0
v -320 980 0
v -1568 1332 0
v -1568 1364 0
v -1600 1364 0
v -1600 1332 0
v -1952 1108 0
v -1952 1140 0
v -1984 1140 0
v -1984 1108 0
v -192 692 0
v -192 724 0
v -224 724 0
v -224 692 0
v -1952 404 0
v -1952 436 0
v -1984 436 0
v -1984 404 0
v -0 20 0
v -0 52 0
v -32 52 0
v -32 20 0
v -96 404 0
v -96 436 0
v -128 436 0
v -128 404 0
v -960 1460 0
v -960 1492 0
v -992 1492 0
v -992 1460 0
v -1888 564 0
v -1888 596 0
v -1920 596 0
v -1920 564 0
vt 0.00048828125 0.000778794289
vt 0.00048828125 0.92289722
vt 0.328613281 0.92289722
vt 0.328613281 0.000778794289
vt 0.329589844 0.000778794289
vt 0.329589844 0.92289722
vt 0.657714844 0.92289722
vt 0.657714844 0.000778794289
vt 0.658691406 0.000778794289
vt 0.658691406 0.15031153
vt 0.924316406 0.15031153
vt 0.924316406 0.000778794289
vt 0.658691406 0.151869178
vt 0.658691406 0.301401854
vt 0.924316406 0.301401854
vt 0.924316406 0.151869178
vt 0.658691406 0.302959502
vt 0.658691406 0.57710278
vt 0.752441406 0.57710278
vt 0.752441406 0.302959502
vt 0.753417969 0.302959502
vt 0.753417969 0.552180648
vt 0.847167969 0.552180648
vt 0.847167969 0.302959502
vt 0.848144531 0.302959502
vt 0.848144531 0.552180648
vt 0.941894531 0.552180648
vt 0.941894531 0.302959502
vt 0.753417969 0.553738356
vt 0.753417969 0.802959502
vt 0.847167969 0.802959502
vt 0.847167969 0.553738356
vt 0.848144531 0.553738356
vt 0.848144531 0.753115296
vt 0.926269531 0.753115296
vt 0.926269531 0.553738356
vt 0.942871094 0.000778794289
vt 0.942871094 0.15031153
vt 0.989746094 0.15031153
vt 0.989746094 0.000778794289
vt 0.942871094 0.151869178
vt 0.942871094 0.276479721
vt 0.989746094 0.276479721
vt 0.989746094 0.151869178
vt 0.942871094 0.278037369
vt 0.942871094 0.402647972
vt 0.989746094 0.402647972
vt 0.989746094 0.278037369
vt 0.658691406 0.578660429
vt 0.658691406 0.653426766
vt 0.736816406 0.653426766
vt 0.736816406 0.578660429
vt 0.942871094 0.40420562
vt 0.942871094 0.528816223
vt 0.989746094 0.528816223
vt 0.989746094 0.40420562
vt 0.658691406 0.654984415
vt 0.658691406 0.729750752
vt 0.736816406 0.729750752
vt 0.736816406 0.654984415
vt 0.753417969 0.80451715
vt 0.753417969 0.829439282
vt 0.972167969 0.829439282
vt 0.972167969 0.80451715
vt 0.753417969 0.830996871
vt 0.753417969 0.855919003
vt 0.956542969 0.855919003
vt 0.956542969 0.830996871
vt 0.658691406 0.731308401
vt 0.658691406 0.830996871
vt 0.705566406 0.830996871
vt 0.705566406 0.731308401
vt 0.658691406 0.832554519
vt 0.658691406 0.93224299
vt 0.705566406 0.93224299
vt 0.705566406 0.832554519
vt 0.706542969 0.731308401
vt 0.706542969 0.830996871
vt 0.737792969 0.830996871
vt 0.737792969 0.731308401
vt 0.957519531 0.830996871
vt 0.957519531 0.930685341
vt 0.988769531 0.930685341
vt 0.988769531 0.830996871
vt 0.706542969 0.832554519
vt 0.706542969 0.907320857
vt 0.737792969 0.907320857
vt 0.737792969 0.832554519
vt 0.753417969 0.857476652
vt 0.753417969 0.93224299
vt 0.784667969 0.93224299
vt 0.784667969 0.857476652
vt 0.785644531 0.857476652
vt 0.785644531 0.982087255
vt 0.801269531 0.982087255
vt 0.801269531 0.857476652
vt 0.802246094 0.857476652
vt 0.802246094 0.973520279
vt 0.817871094 0.973520279
vt 0.817871094 0.857476652
vt 0.818847656 0.857476652
vt 0.818847656 0.907320857
vt 0.850097656 0.907320857
vt 0.850097656 0.857476652
vt 0.851074219 0.857476652
vt 0.851074219 0.907320857
vt 0.882324219 0.907320857
vt 0.882324219 0.857476652
vt 0.883300781 0.857476652
vt 0.883300781 0.882398725
vt 0.945800781 0.882398725
vt 0.945800781 0.857476652
vt 0.883300781 0.883956373
vt 0.883300781 0.958722711
vt 0.898925781 0.958722711
vt 0.898925781 0.883956373
vt 0.899902344 0.883956373
vt 0.899902344 0.958722711
vt 0.915527344 0.958722711
vt 0.915527344 0.883956373
vt 0.916503906 0.883956373
vt 0.916503906 0.958722711
vt 0.932128906 0.958722711
vt 0.932128906 0.883956373
vt 0.818847656 0.908878505
vt 0.818847656 0.925233662
vt 0.865722656 0.925233662
vt 0.865722656 0.908878505
vt 0.00048828125 0.924454808
vt 0.00048828125 0.940809965
vt 0.0473632812 0.940809965
vt 0.0473632812 0.924454808
vt 0.933105469 0.883956373
vt 0.933105469 0.958722711
vt 0.948730469 0.958722711
vt 0.948730469 0.883956373
vt 0.706542969 0.908878505
vt 0.706542969 0.983644843
vt 0.722167969 0.983644843
vt 0.722167969 0.908878505
vt 0.723144531 0.908878505
vt 0.723144531 0.983644843
vt 0.738769531 0.983644843
vt 0.738769531 0.908878505
vt 0.0483398438 0.924454808
vt 0.0483398438 0.949376941
vt 0.0952148438 0.949376941
vt 0.0952148438 0.924454808
vt 0.866699219 0.908878505
vt 0.866699219 0.983644843
vt 0.882324219 0.983644843
vt 0.882324219 0.908878505
vt 0.0961914062 0.924454808
vt 0.0961914062 0.999221206
vt 0.111816406 0.999221206
vt 0.111816406 0.924454808
vt 0.112792969 0.924454808
vt 0.112792969 0.999221206
vt 0.128417969 0.999221206
vt 0.128417969 0.924454808
vt 0.129394531 0.924454808
vt 0.129394531 0.999221206
vt 0.145019531 0.999221206
vt 0.145019531 0.924454808
vt 0.145996094 0.924454808
vt 0.145996094 0.974299073
vt 0.161621094 0.974299073
vt 0.161621094 0.924454808
vt 0.162597656 0.924454808
vt 0.162597656 0.974299073
vt 0.178222656 0.974299073
vt 0.178222656 0.924454808
vt 0.179199219 0.924454808
vt 0.179199219 0.974299073
vt 0.194824219 0.974299073
vt 0.194824219 0.924454808
vt 0.195800781 0.924454808
vt 0.195800781 0.974299073
vt 0.211425781 0.974299073
vt 0.211425781 0.924454808
vt 0.212402344 0.924454808
vt 0.212402344 0.974299073
vt 0.228027344 0.974299073
vt 0.228027344 0.924454808
vt 0.229003906 0.924454808
vt 0.229003906 0.974299073
vt 0.244628906 0.974299073
vt 0.244628906 0.924454808
vt 0.245605469 0.924454808
vt 0.245605469 0.974299073
vt 0.261230469 0.974299073
vt 0.261230469 0.924454808
vt 0.262207031 0.924454808
vt 0.262207031 0.974299073
vt 0.277832031 0.974299073
vt 0.277832031 0.924454808
vt 0.278808594 0.924454808
vt 0.278808594 0.949376941
vt 0.310058594 0.949376941
vt 0.310058594 0.924454808
vt 0.311035156 0.924454808
vt 0.311035156 0.974299073
vt 0.326660156 0.974299073
vt 0.326660156 0.924454808
vt 0.327636719 0.924454808
vt 0.327636719 0.940809965
vt 0.358886719 0.940809965
vt 0.358886719 0.924454808
vt 0.359863281 0.924454808
vt 0.359863281 0.940809965
vt 0.391113281 0.940809965
vt 0.391113281 0.924454808
vt 0.392089844 0.924454808
vt 0.392089844 0.974299073
vt 0.407714844 0.974299073
vt 0.407714844 0.924454808
vt 0.408691406 0.924454808
vt 0.408691406 0.974299073
vt 0.424316406 0.974299073
vt 0.424316406 0.924454808
vt 0.425292969 0.924454808
vt 0.425292969 0.974299073
vt 0.440917969 0.974299073
vt 0.440917969 0.924454808
vt 0.441894531 0.924454808
vt 0.441894531 0.974299073
vt 0.457519531 0.974299073
vt 0.457519531 0.924454808
vt 0.458496094 0.924454808
vt 0.458496094 0.949376941
vt 0.489746094 0.949376941
vt 0.489746094 0.924454808
vt 0.490722656 0.924454808
vt 0.490722656 0.949376941
vt 0.521972656 0.949376941
vt 0.521972656 0.924454808
vt 0.522949219 0.924454808
vt 0.522949219 0.949376941
vt 0.554199219 0.949376941
vt 0.554199219 0.924454808
vt 0.555175781 0.924454808
vt 0.555175781 0.940809965
vt 0.586425781 0.940809965
vt 0.586425781 0.924454808
vt 0.587402344 0.924454808
vt 0.587402344 0.949376941
vt 0.618652344 0.949376941
vt 0.618652344 0.924454808
vt 0.619628906 0.924454808
vt 0.619628906 0.974299073
vt 0.635253906 0.974299073
vt 0.635253906 0.924454808
vt 0.818847656 0.92679131
vt 0.818847656 0.951713383
vt 0.850097656 0.951713383
vt 0.850097656 0.92679131
vt 0.957519531 0.93224299
vt 0.957519531 0.957165122
vt 0.988769531 0.957165122
vt 0.988769531 0.93224299
vt 0.636230469 0.924454808
vt 0.636230469 0.974299073
vt 0.651855469 0.974299073
vt 0.651855469 0.924454808
vt 0.658691406 0.933800638
vt 0.658691406 0.958722711
vt 0.689941406 0.958722711
vt 0.689941406 0.933800638
vt 0.753417969 0.933800638
vt 0.753417969 0.983644843
vt 0.769042969 0.983644843
vt 0.769042969 0.933800638
vt 0.00048828125 0.942367613
vt 0.00048828125 0.958722711
vt 0.0317382812 0.958722711
vt 0.0317382812 0.942367613
vt 0.327636719 0.942367613
vt 0.327636719 0.967289746
vt 0.358886719 0.967289746
vt 0.358886719 0.942367613
vt 0.359863281 0.942367613
vt 0.359863281 0.967289746
vt 0.375488281 0.967289746
vt 0.375488281 0.942367613
vt 0.555175781 0.942367613
vt 0.555175781 0.967289746
vt 0.570800781 0.967289746
vt 0.570800781 0.942367613
vt 0.0483398438 0.950934589
vt 0.0483398438 0.975856721
vt 0.0639648438 0.975856721
vt 0.0639648438 0.950934589
vt 0.0649414062 0.950934589
vt 0.0649414062 0.975856721
vt 0.0805664062 0.975856721
vt 0.0805664062 0.950934589
vt 0.278808594 0.950934589
vt 0.278808594 0.975856721
vt 0.294433594 0.975856721
vt 0.294433594 0.950934589
vt 0.458496094 0.950934589
vt 0.458496094 0.975856721
vt 0.474121094 0.975856721
vt 0.474121094 0.950934589
vt 0.475097656 0.950934589
vt 0.475097656 0.975856721
vt 0.490722656 0.975856721
vt 0.490722656 0.950934589
vt 0.491699219 0.950934589
vt 0.491699219 0.975856721
vt 0.507324219 0.975856721
vt 0.507324219 0.950934589
vt 0.508300781 0.950934589
vt 0.508300781 0.975856721
vt 0.523925781 0.975856721
vt 0.523925781 0.950934589
vt 0.524902344 0.950934589
vt 0.524902344 0.975856721
vt 0.540527344 0.975856721
vt 0.540527344 0.950934589
vt 0.587402344 0.950934589
vt 0.587402344 0.975856721
vt 0.603027344 0.975856721
vt 0.603027344 0.950934589
vt 0.818847656 0.953271031
vt 0.818847656 0.978193164
vt 0.834472656 0.978193164
vt 0.834472656 0.953271031
vt 0.835449219 0.953271031
vt 0.835449219 0.978193164
vt 0.851074219 0.978193164
vt 0.851074219 0.953271031
vt 0.957519531 0.958722711
vt 0.957519531 0.983644843
vt 0.973144531 0.983644843
vt 0.973144531 0.958722711
vt 0.974121094 0.958722711
vt 0.974121094 0.983644843
vt 0.989746094 0.983644843
vt 0.989746094 0.958722711
vt 0.00048828125 0.960280359
vt 0.00048828125 0.985202491
vt 0.0161132812 0.985202491
vt 0.0161132812 0.960280359
vt 0.0170898438 0.960280359
vt 0.0170898438 0.985202491
vt 0.0327148438 0.985202491
vt 0.0327148438 0.960280359
vt 0.658691406 0.960280359
vt 0.658691406 0.985202491
vt 0.674316406 0.985202491
vt 0.674316406 0.960280359
g junzhu_4-mesh_0
f 3/3/3 2/2/2 1/1/1
f 1/1/1 4/4/4 3/3/3
f 7/7/7 6/6/6 5/5/5
f 5/5/5 8/8/8 7/7/7
f 11/11/11 10/10/10 9/9/9
f 9/9/9 12/12/12 11/11/11
f 15/15/15 14/14/14 13/13/13
f 13/13/13 16/16/16 15/15/15
f 19/19/19 18/18/18 17/17/17
f 17/17/17 20/20/20 19/19/19
f 23/23/23 22/22/22 21/21/21
f 21/21/21 24/24/24 23/23/23
f 27/27/27 26/26/26 25/25/25
f 25/25/25 28/28/28 27/27/27
f 31/31/31 30/30/30 29/29/29
f 29/29/29 32/32/32 31/31/31
f 35/35/35 34/34/34 33/33/33
f 33/33/33 36/36/36 35/35/35
f 39/39/39 38/38/38 37/37/37
f 37/37/37 40/40/40 39/39/39
f 43/43/43 42/42/42 41/41/41
f 41/41/41 44/44/44 43/43/43
f 47/47/47 46/46/46 45/45/45
f 45/45/45 48/48/48 47/47/47
f 51/51/51 50/50/50 49/49/49
f 49/49/49 52/52/52 51/51/51
f 55/55/55 54/54/54 53/53/53
f 53/53/53 56/56/56 55/55/55
f 59/59/59 58/58/58 57/57/57
f 57/57/57 60/60/60 59/59/59
f 63/63/63 62/62/62 61/61/61
f 61/61/61 64/64/64 63/63/63
f 67/67/67 66/66/66 65/65/65
f 65/65/65 68/68/68 67/67/67
f 71/71/71 70/70/70 69/69/69
f 69/69/69 72/72/72 71/71/71
f 75/75/75 74/74/74 73/73/73
f 73/73/73 76/76/76 75/75/75
f 79/79/79 78/78/78 77/77/77
f 77/77/77 80/80/80 79/79/79
f 83/83/83 82/82/82 81/81/81
f 81/81/81 84/84/84 83/83/83
f 87/87/87 86/86/86 85/85/85
f 85/85/85 88/88/88 87/87/87
f 91/91/91 90/90/90 89/89/89
f 89/89/89 92/92/92 91/91/91
f 95/95/95 94/94/94 93/93/93
f 93/93/93 96/96/96 95/95/95
f 99/99/99 98/98/98 97/97/97
f 97/97/97 100/100/100 99/99/99
f 103/103/103 102/102/102 101/101/101
f 101/101/101 104/104/104 103/103/103
f 107/107/107 106/106/106 105/105/105
f 105/105/105 108/108/108 107/107/107
f 111/111/111 110/110/110 109/109/109
f 109/109/109 112/112/112 111/111/111
f 115/115/115 114/114/114 113/113/113
f 113/113/113 116/116/116 115/115/115
f 119/119/119 118/118/118 117/117/117
f 117/117/117 120/120/120 119/119/119
f 123/123/123 122/122/122 121/121/121
f 121/121/121 124/124/124 123/123/123
f 127/127/127 126/126/126 125/125/125
f 125/125/125 128/128/128 127/127/127
f 131/131/131 130/130/130 129/129/129
f 129/129/129 132/132/132 131/131/131
f 135/135/135 134/134/134 133/133/133
f 133/133/133 136/136/136 135/135/135
f 139/139/139 138/138/138 137/137/137
f 137/137/137 140/140/140 139/139/139
f 143/143/143 142/142/142 141/141/141
f 141/141/141 144/144/144 143/143/143
f 147/147/147 146/146/146 145/145/145
f 145/145/145 148/148/148 147/147/147
f 151/151/151 150/150/150 149/149/149
f 149/149/149 152/152/152 151/151/151
f 155/155/155 154/154/154 153/153/153
f 153/153/153 156/156/156 155/155/155
f 159/159/159 158/158/158 157/157/157
f 157/157/157 160/160/160 159/159/159
f 163/163/163 162/162/162 161/161/161
f 161/161/161 164/164/164 163/163/163
f 167/167/167 166/166/166 165/165/165
f 165/165/165 168/168/168 167/167/167
f 171/171/171 170/170/170 169/169/169
f 169/169/169 172/172/172 171/171/171
f 175/175/175 174/174/174 173/173/173
f 173/173/173 176/176/176 175/175/175
f 179/179/179 178/178/178 177/177/177
f 177/177/177 180/180/180 179/179/179
f 183/183/183 182/182/182 181/181/181
f 181/181/181 184/184/184 183/183/183
f 187/187/187 186/186/186 185/185/185
f 185/185/185 188/188/188 187/187/187
f 191/191/191 190/190/190 189/189/189
f 189/189/189 192/192/192 191/191/191
f 195/195/195 194/194/194 193/193/193
f 193/193/193 196/196/196 195/195/195
f 199/199/199 198/198/198 197/197/197
f 197/197/197 200/200/200 199/199/199
f 203/203/203 202/202/202 201/201/201
f 201/201/201 204/204/204 203/203/203
f 207/207/207 206/206/206 205/205/205
f 205/205/205 208/208/208 207/207/207
f 211/211/211 210/210/210 209/209/209
f 209/209/209 212/212/212 211/211/211
f 215/215/215 214/214/214 213/213/213
f 213/213/213 216/216/216 215/215/215
f 219/219/219 218/218/218 217/217/217
f 217/217/217 220/220/220 219/219/219
f 223/223/223 222/222/222 221/221/221
f 221/221/221 224/224/224 223/223/223
f 227/227/227 226/226/226 225/225/225
f 225/225/225 228/228/228 227/227/227
f 231/231/231 230/230/230 229/229/229
f 229/229/229 232/232/232 231/231/231
f 235/235/235 234/234/234 233/233/233
f 233/233/233 236/236/236 235/235/235
f 239/239/239 238/238/238 237/237/237
f 237/237/237 240/240/240 239/239/239
f 243/243/243 242/242/242 241/241/241
f 241/241/241 244/244/244 243/243/243
f 247/247/247 246/246/246 245/245/245
f 245/245/245 248/248/248 247/247/247
f 251/251/251 250/250/250 249/249/249
f 249/249/249 252/252/252 251/251/251
f 255/255/255 254/254/254 253/253/253
f 253/253/253 256/256/256 255/255/255
f 259/259/259 258/258/258 257/257/257
f 257/257/257 260/260/260 259/259/259
f 263/263/263 262/262/262 261/261/261
f 261/261/261 264/264/264 263/263/263
f 267/267/267 266/266/266 265/265/265
f 265/265/265 268/268/268 267/267/267
f 271/271/271 270/270/270 269/269/269
f 269/269/269 272/272/272 271/271/271
f 275/275/275 274/274/274 273/273/273
f 273/273/273 276/276/276 275/275/275
f 279/279/279 278/278/278 277/277/277
f 277/277/277 280/280/280 279/279/279
f 283/283/283 282/282/282 281/281/281
f 281/281/281 284/284/284 283/283/283
f 287/287/287 286/286/286 285/285/285
f 285/285/285 288/288/288 287/287/287
f 291/291/291 290/290/290 289/289/289
f 289/289/289 292/292/292 291/291/291
f 295/295/295 294/294/294 293/293/293
f 293/293/293 296/296/296 295/295/295
f 299/299/299 298/298/298 297/297/297
f 297/297/297 300/300/300 299/299/299
f 303/303/303 302/302/302 301/301/301
f 301/301/301 304/304/304 303/303/303
f 307/307/307 306/306/306 305/305/305
f 305/305/305 308/308/308 307/307/307
f 311/311/311 310/310/310 309/309/309
f 309/309/309 312/312/312 311/311/311
f 315/315/315 314/314/314 313/313/313
f 313/313/313 316/316/316 315/315/315
f 319/319/319 318/318/318 317/317/317
f 317/317/317 320/320/320 319/319/319
f 323/323/323 322/322/322 321/321/321
f 321/321/321 324/324/324 323/323/323
f 327/327/327 326/326/326 325/325/325
f 325/325/325 328/328/328 327/327/327
f 331/331/331 330/330/330 329/329/329
f 329/329/329 332/332/332 331/331/331
f 335/335/335 334/334/334 333/333/333
f 333/333/333 336/336/336 335/335/335
f 339/339/339 338/338/338 337/337/337
f 337/337/337 340/340/340 339/339/339
f 343/343/343 342/342/342 341/341/341
f 341/341/341 344/344/344 343/343/343
f 347/347/347 346/346/346 345/345/345
f 345/345/345 348/348/348 347/347/347
f 351/351/351 350/350/350 349/349/349
f 349/349/349 352/352/352 351/351/351
