g nengdai_8-mesh
v -512 53 0
v -512 1237 0
v -1696 1237 0
v -1696 53 0
v -768 1237 0
v -768 1493 0
v -1248 1493 0
v -1248 1237 0
v -256 53 0
v -256 501 0
v -512 501 0
v -512 53 0
v -256 501 0
v -256 949 0
v -512 949 0
v -512 501 0
v -1696 85 0
v -1696 373 0
v -1888 373 0
v -1888 85 0
v -1696 373 0
v -1696 661 0
v -1888 661 0
v -1888 373 0
v -1248 1237 0
v -1248 1397 0
v -1440 1397 0
v -1440 1237 0
v -416 0 0
v -416 53 0
v -896 53 0
v -896 0 0
v -896 0 0
v -896 53 0
v -1344 53 0
v -1344 0 0
v -1888 149 0
v -1888 373 0
v -2016 373 0
v -2016 149 0
v -128 245 0
v -128 437 0
v -256 437 0
v -256 245 0
v -128 53 0
v -128 245 0
v -256 245 0
v -256 53 0
v -1696 661 0
v -1696 853 0
v -1792 853 0
v -1792 661 0
v -384 949 0
v -384 1077 0
v -512 1077 0
v -512 949 0
v -32 53 0
v -32 213 0
v -128 213 0
v -128 53 0
v -800 1493 0
v -800 1589 0
v -960 1589 0
v -960 1493 0
v -960 1493 0
v -960 1589 0
v -1088 1589 0
v -1088 1493 0
v -192 693 0
v -192 821 0
v -256 821 0
v -256 693 0
v -192 437 0
v -192 565 0
v -256 565 0
v -256 437 0
v -1888 373 0
v -1888 501 0
v -1952 501 0
v -1952 373 0
v -1440 1237 0
v -1440 1301 0
v -1536 1301 0
v -1536 1237 0
v -512 1237 0
v -512 1301 0
v -608 1301 0
v -608 1237 0
v -320 949 0
v -320 1013 0
v -384 1013 0
v -384 949 0
v -1248 1397 0
v -1248 1461 0
v -1312 1461 0
v -1312 1397 0
v -1088 1493 0
v -1088 1557 0
v -1152 1557 0
v -1152 1493 0
v -1536 1237 0
v -1536 1301 0
v -1600 1301 0
v -1600 1237 0
v -1696 981 0
v -1696 1109 0
v -1728 1109 0
v -1728 981 0
v -1696 853 0
v -1696 981 0
v -1728 981 0
v -1728 853 0
v -800 1589 0
v -800 1621 0
v -896 1621 0
v -896 1589 0
v -1344 21 0
v -1344 53 0
v -1440 53 0
v -1440 21 0
v -2016 213 0
v -2016 309 0
v -2047 309 0
v -2047 213 0
v -1728 853 0
v -1728 917 0
v -1760 917 0
v -1760 853 0
v -224 821 0
v -224 885 0
v -256 885 0
v -256 821 0
v -1312 1397 0
v -1312 1429 0
v -1376 1429 0
v -1376 1397 0
v -0 85 0
v -0 149 0
v -32 149 0
v -32 85 0
v -608 1237 0
v -608 1269 0
v -672 1269 0
v -672 1237 0
v -448 1077 0
v -448 1141 0
v -480 1141 0
v -480 1077 0
v -1952 373 0
v -1952 437 0
v -1984 437 0
v -1984 373 0
v -64 213 0
v -64 277 0
v -96 277 0
v -96 213 0
v -1888 117 0
v -1888 149 0
v -1952 149 0
v -1952 117 0
v -160 437 0
v -160 501 0
v -192 501 0
v -192 437 0
v -1824 661 0
v -1824 725 0
v -1856 725 0
v -1856 661 0
v -224 565 0
v -224 629 0
v -256 629 0
v -256 565 0
v -1888 501 0
v -1888 565 0
v -1920 565 0
v -1920 501 0
v -1440 1301 0
v -1440 1333 0
v -1504 1333 0
v -1504 1301 0
v -480 1141 0
v -480 1205 0
v -512 1205 0
v -512 1141 0
v -480 1077 0
v -480 1141 0
v -512 1141 0
v -512 1077 0
v -1792 725 0
v -1792 789 0
v -1824 789 0
v -1824 725 0
v -736 1301 0
v -736 1365 0
v -768 1365 0
v -768 1301 0
v -896 1589 0
v -896 1621 0
v -960 1621 0
v -960 1589 0
v -2016 149 0
v -2016 213 0
v -2047 213 0
v -2047 149 0
v -1440 21 0
v -1440 53 0
v -1504 53 0
v -1504 21 0
v -1792 661 0
v -1792 725 0
v -1824 725 0
v -1824 661 0
v -288 21 0
v -288 53 0
v -352 53 0
v -352 21 0
v -352 21 0
v -352 53 0
v -416 53 0
v -416 21 0
v -736 1237 0
v -736 1301 0
v -768 1301 0
v -768 1237 0
v -96 277 0
v -96 341 0
v -128 341 0
v -128 277 0
v -96 213 0
v -96 277 0
v -128 277 0
v -128 213 0
v -1600 1237 0
v -1600 1269 0
v -1632 1269 0
v -1632 1237 0
v -416 1077 0
v -416 1109 0
v -448 1109 0
v -448 1077 0
v -288 949 0
v -288 981 0
v -320 981 0
v -320 949 0
v -224 661 0
v -224 693 0
v -256 693 0
v -256 661 0
v -352 1013 0
v -352 1045 0
v -384 1045 0
v -384 1013 0
v -1440 1333 0
v -1440 1365 0
v -1472 1365 0
v -1472 1333 0
v -0 53 0
v -0 85 0
v -32 85 0
v -32 53 0
v -672 1237 0
v -672 1269 0
v -704 1269 0
v -704 1237 0
v -1504 1301 0
v -1504 1333 0
v -1536 1333 0
v -1536 1301 0
v -1152 1493 0
v -1152 1525 0
v -1184 1525 0
v -1184 1493 0
v -768 1493 0
v -768 1525 0
v -800 1525 0
v -800 1493 0
vt 0.00048828125 0.000805139542
vt 0.00048828125 0.954106271
vt 0.578613281 0.954106271
vt 0.578613281 0.000805139542
vt 0.579589844 0.000805139542
vt 0.579589844 0.206924319
vt 0.813964844 0.206924319
vt 0.813964844 0.000805139542
vt 0.814941406 0.000805139542
vt 0.814941406 0.361513674
vt 0.939941406 0.361513674
vt 0.939941406 0.000805139542
vt 0.579589844 0.208534598
vt 0.579589844 0.569243193
vt 0.704589844 0.569243193
vt 0.704589844 0.208534598
vt 0.705566406 0.208534598
vt 0.705566406 0.440418661
vt 0.799316406 0.440418661
vt 0.799316406 0.208534598
vt 0.814941406 0.363124013
vt 0.814941406 0.595008016
vt 0.908691406 0.595008016
vt 0.908691406 0.363124013
vt 0.705566406 0.442028999
vt 0.705566406 0.570853472
vt 0.799316406 0.570853472
vt 0.799316406 0.442028999
vt 0.00048828125 0.95571661
vt 0.00048828125 0.99919486
vt 0.234863281 0.99919486
vt 0.234863281 0.95571661
vt 0.235839844 0.95571661
vt 0.235839844 0.99919486
vt 0.454589844 0.99919486
vt 0.454589844 0.95571661
vt 0.909667969 0.363124013
vt 0.909667969 0.543478251
vt 0.972167969 0.543478251
vt 0.972167969 0.363124013
vt 0.909667969 0.54508853
vt 0.909667969 0.699677944
vt 0.972167969 0.699677944
vt 0.972167969 0.54508853
vt 0.579589844 0.570853472
vt 0.579589844 0.725442827
vt 0.642089844 0.725442827
vt 0.642089844 0.570853472
vt 0.643066406 0.570853472
vt 0.643066406 0.725442827
vt 0.689941406 0.725442827
vt 0.689941406 0.570853472
vt 0.705566406 0.572463751
vt 0.705566406 0.675523341
vt 0.768066406 0.675523341
vt 0.768066406 0.572463751
vt 0.814941406 0.596618354
vt 0.814941406 0.725442827
vt 0.861816406 0.725442827
vt 0.861816406 0.596618354
vt 0.705566406 0.677133679
vt 0.705566406 0.754428327
vt 0.783691406 0.754428327
vt 0.783691406 0.677133679
vt 0.909667969 0.701288223
vt 0.909667969 0.778582931
vt 0.972167969 0.778582931
vt 0.972167969 0.701288223
vt 0.862792969 0.596618354
vt 0.862792969 0.699677944
vt 0.894042969 0.699677944
vt 0.894042969 0.596618354
vt 0.862792969 0.701288223
vt 0.862792969 0.804347813
vt 0.894042969 0.804347813
vt 0.894042969 0.701288223
vt 0.579589844 0.727053165
vt 0.579589844 0.830112696
vt 0.610839844 0.830112696
vt 0.610839844 0.727053165
vt 0.611816406 0.727053165
vt 0.611816406 0.778582931
vt 0.658691406 0.778582931
vt 0.658691406 0.727053165
vt 0.814941406 0.727053165
vt 0.814941406 0.778582931
vt 0.861816406 0.778582931
vt 0.861816406 0.727053165
vt 0.659667969 0.727053165
vt 0.659667969 0.778582931
vt 0.690917969 0.778582931
vt 0.690917969 0.727053165
vt 0.705566406 0.756038666
vt 0.705566406 0.807568431
vt 0.736816406 0.807568431
vt 0.736816406 0.756038666
vt 0.737792969 0.756038666
vt 0.737792969 0.807568431
vt 0.769042969 0.807568431
vt 0.769042969 0.756038666
vt 0.770019531 0.756038666
vt 0.770019531 0.807568431
vt 0.801269531 0.807568431
vt 0.801269531 0.756038666
vt 0.973144531 0.000805139542
vt 0.973144531 0.103864729
vt 0.988769531 0.103864729
vt 0.988769531 0.000805139542
vt 0.973144531 0.105475068
vt 0.973144531 0.208534598
vt 0.988769531 0.208534598
vt 0.988769531 0.105475068
vt 0.611816406 0.78019321
vt 0.611816406 0.805958152
vt 0.658691406 0.805958152
vt 0.658691406 0.78019321
vt 0.814941406 0.78019321
vt 0.814941406 0.805958152
vt 0.861816406 0.805958152
vt 0.861816406 0.78019321
vt 0.973144531 0.210144937
vt 0.973144531 0.287439585
vt 0.988769531 0.287439585
vt 0.988769531 0.210144937
vt 0.973144531 0.289049923
vt 0.973144531 0.340579689
vt 0.988769531 0.340579689
vt 0.988769531 0.289049923
vt 0.973144531 0.342190027
vt 0.973144531 0.393719792
vt 0.988769531 0.393719792
vt 0.988769531 0.342190027
vt 0.659667969 0.78019321
vt 0.659667969 0.805958152
vt 0.690917969 0.805958152
vt 0.690917969 0.78019321
vt 0.973144531 0.395330131
vt 0.973144531 0.446859896
vt 0.988769531 0.446859896
vt 0.988769531 0.395330131
vt 0.909667969 0.78019321
vt 0.909667969 0.805958152
vt 0.940917969 0.805958152
vt 0.940917969 0.78019321
vt 0.973144531 0.448470235
vt 0.973144531 0.5
vt 0.988769531 0.5
vt 0.988769531 0.448470235
vt 0.973144531 0.501610279
vt 0.973144531 0.553140104
vt 0.988769531 0.553140104
vt 0.988769531 0.501610279
vt 0.973144531 0.554750443
vt 0.973144531 0.606280208
vt 0.988769531 0.606280208
vt 0.988769531 0.554750443
vt 0.941894531 0.78019321
vt 0.941894531 0.805958152
vt 0.973144531 0.805958152
vt 0.973144531 0.78019321
vt 0.974121094 0.607890487
vt 0.974121094 0.659420252
vt 0.989746094 0.659420252
vt 0.989746094 0.607890487
vt 0.974121094 0.661030591
vt 0.974121094 0.712560415
vt 0.989746094 0.712560415
vt 0.989746094 0.661030591
vt 0.974121094 0.714170694
vt 0.974121094 0.765700459
vt 0.989746094 0.765700459
vt 0.989746094 0.714170694
vt 0.974121094 0.767310798
vt 0.974121094 0.818840563
vt 0.989746094 0.818840563
vt 0.989746094 0.767310798
vt 0.862792969 0.805958152
vt 0.862792969 0.831723034
vt 0.894042969 0.831723034
vt 0.894042969 0.805958152
vt 0.611816406 0.807568431
vt 0.611816406 0.859098196
vt 0.627441406 0.859098196
vt 0.627441406 0.807568431
vt 0.628417969 0.807568431
vt 0.628417969 0.859098196
vt 0.644042969 0.859098196
vt 0.644042969 0.807568431
vt 0.645019531 0.807568431
vt 0.645019531 0.859098196
vt 0.660644531 0.859098196
vt 0.660644531 0.807568431
vt 0.661621094 0.807568431
vt 0.661621094 0.859098196
vt 0.677246094 0.859098196
vt 0.677246094 0.807568431
vt 0.814941406 0.807568431
vt 0.814941406 0.833333313
vt 0.846191406 0.833333313
vt 0.846191406 0.807568431
vt 0.678222656 0.807568431
vt 0.678222656 0.859098196
vt 0.693847656 0.859098196
vt 0.693847656 0.807568431
vt 0.909667969 0.807568431
vt 0.909667969 0.833333313
vt 0.940917969 0.833333313
vt 0.940917969 0.807568431
vt 0.941894531 0.807568431
vt 0.941894531 0.859098196
vt 0.957519531 0.859098196
vt 0.957519531 0.807568431
vt 0.705566406 0.80917871
vt 0.705566406 0.834943652
vt 0.736816406 0.834943652
vt 0.736816406 0.80917871
vt 0.737792969 0.80917871
vt 0.737792969 0.834943652
vt 0.769042969 0.834943652
vt 0.769042969 0.80917871
vt 0.770019531 0.80917871
vt 0.770019531 0.860708535
vt 0.785644531 0.860708535
vt 0.785644531 0.80917871
vt 0.786621094 0.80917871
vt 0.786621094 0.860708535
vt 0.802246094 0.860708535
vt 0.802246094 0.80917871
vt 0.974121094 0.820450902
vt 0.974121094 0.871980667
vt 0.989746094 0.871980667
vt 0.989746094 0.820450902
vt 0.579589844 0.831723034
vt 0.579589844 0.857487917
vt 0.595214844 0.857487917
vt 0.595214844 0.831723034
vt 0.862792969 0.833333313
vt 0.862792969 0.859098196
vt 0.878417969 0.859098196
vt 0.878417969 0.833333313
vt 0.879394531 0.833333313
vt 0.879394531 0.859098196
vt 0.895019531 0.859098196
vt 0.895019531 0.833333313
vt 0.814941406 0.834943652
vt 0.814941406 0.860708535
vt 0.830566406 0.860708535
vt 0.830566406 0.834943652
vt 0.831542969 0.834943652
vt 0.831542969 0.860708535
vt 0.847167969 0.860708535
vt 0.847167969 0.834943652
vt 0.909667969 0.834943652
vt 0.909667969 0.860708535
vt 0.925292969 0.860708535
vt 0.925292969 0.834943652
vt 0.705566406 0.836553931
vt 0.705566406 0.862318873
vt 0.721191406 0.862318873
vt 0.721191406 0.836553931
vt 0.722167969 0.836553931
vt 0.722167969 0.862318873
vt 0.737792969 0.862318873
vt 0.737792969 0.836553931
vt 0.738769531 0.836553931
vt 0.738769531 0.862318873
vt 0.754394531 0.862318873
vt 0.754394531 0.836553931
vt 0.579589844 0.859098196
vt 0.579589844 0.884863138
vt 0.595214844 0.884863138
vt 0.595214844 0.859098196
vt 0.611816406 0.860708535
vt 0.611816406 0.886473417
vt 0.627441406 0.886473417
vt 0.627441406 0.860708535
g nengdai_8-mesh_0
f 3/3/3 2/2/2 1/1/1
f 1/1/1 4/4/4 3/3/3
f 7/7/7 6/6/6 5/5/5
f 5/5/5 8/8/8 7/7/7
f 11/11/11 10/10/10 9/9/9
f 9/9/9 12/12/12 11/11/11
f 15/15/15 14/14/14 13/13/13
f 13/13/13 16/16/16 15/15/15
f 19/19/19 18/18/18 17/17/17
f 17/17/17 20/20/20 19/19/19
f 23/23/23 22/22/22 21/21/21
f 21/21/21 24/24/24 23/23/23
f 27/27/27 26/26/26 25/25/25
f 25/25/25 28/28/28 27/27/27
f 31/31/31 30/30/30 29/29/29
f 29/29/29 32/32/32 31/31/31
f 35/35/35 34/34/34 33/33/33
f 33/33/33 36/36/36 35/35/35
f 39/39/39 38/38/38 37/37/37
f 37/37/37 40/40/40 39/39/39
f 43/43/43 42/42/42 41/41/41
f 41/41/41 44/44/44 43/43/43
f 47/47/47 46/46/46 45/45/45
f 45/45/45 48/48/48 47/47/47
f 51/51/51 50/50/50 49/49/49
f 49/49/49 52/52/52 51/51/51
f 55/55/55 54/54/54 53/53/53
f 53/53/53 56/56/56 55/55/55
f 59/59/59 58/58/58 57/57/57
f 57/57/57 60/60/60 59/59/59
f 63/63/63 62/62/62 61/61/61
f 61/61/61 64/64/64 63/63/63
f 67/67/67 66/66/66 65/65/65
f 65/65/65 68/68/68 67/67/67
f 71/71/71 70/70/70 69/69/69
f 69/69/69 72/72/72 71/71/71
f 75/75/75 74/74/74 73/73/73
f 73/73/73 76/76/76 75/75/75
f 79/79/79 78/78/78 77/77/77
f 77/77/77 80/80/80 79/79/79
f 83/83/83 82/82/82 81/81/81
f 81/81/81 84/84/84 83/83/83
f 87/87/87 86/86/86 85/85/85
f 85/85/85 88/88/88 87/87/87
f 91/91/91 90/90/90 89/89/89
f 89/89/89 92/92/92 91/91/91
f 95/95/95 94/94/94 93/93/93
f 93/93/93 96/96/96 95/95/95
f 99/99/99 98/98/98 97/97/97
f 97/97/97 100/100/100 99/99/99
f 103/103/103 102/102/102 101/101/101
f 101/101/101 104/104/104 103/103/103
f 107/107/107 106/106/106 105/105/105
f 105/105/105 108/108/108 107/107/107
f 111/111/111 110/110/110 109/109/109
f 109/109/109 112/112/112 111/111/111
f 115/115/115 114/114/114 113/113/113
f 113/113/113 116/116/116 115/115/115
f 119/119/119 118/118/118 117/117/117
f 117/117/117 120/120/120 119/119/119
f 123/123/123 122/122/122 121/121/121
f 121/121/121 124/124/124 123/123/123
f 127/127/127 126/126/126 125/125/125
f 125/125/125 128/128/128 127/127/127
f 131/131/131 130/130/130 129/129/129
f 129/129/129 132/132/132 131/131/131
f 135/135/135 134/134/134 133/133/133
f 133/133/133 136/136/136 135/135/135
f 139/139/139 138/138/138 137/137/137
f 137/137/137 140/140/140 139/139/139
f 143/143/143 142/142/142 141/141/141
f 141/141/141 144/144/144 143/143/143
f 147/147/147 146/146/146 145/145/145
f 145/145/145 148/148/148 147/147/147
f 151/151/151 150/150/150 149/149/149
f 149/149/149 152/152/152 151/151/151
f 155/155/155 154/154/154 153/153/153
f 153/153/153 156/156/156 155/155/155
f 159/159/159 158/158/158 157/157/157
f 157/157/157 160/160/160 159/159/159
f 163/163/163 162/162/162 161/161/161
f 161/161/161 164/164/164 163/163/163
f 167/167/167 166/166/166 165/165/165
f 165/165/165 168/168/168 167/167/167
f 171/171/171 170/170/170 169/169/169
f 169/169/169 172/172/172 171/171/171
f 175/175/175 174/174/174 173/173/173
f 173/173/173 176/176/176 175/175/175
f 179/179/179 178/178/178 177/177/177
f 177/177/177 180/180/180 179/179/179
f 183/183/183 182/182/182 181/181/181
f 181/181/181 184/184/184 183/183/183
f 187/187/187 186/186/186 185/185/185
f 185/185/185 188/188/188 187/187/187
f 191/191/191 190/190/190 189/189/189
f 189/189/189 192/192/192 191/191/191
f 195/195/195 194/194/194 193/193/193
f 193/193/193 196/196/196 195/195/195
f 199/199/199 198/198/198 197/197/197
f 197/197/197 200/200/200 199/199/199
f 203/203/203 202/202/202 201/201/201
f 201/201/201 204/204/204 203/203/203
f 207/207/207 206/206/206 205/205/205
f 205/205/205 208/208/208 207/207/207
f 211/211/211 210/210/210 209/209/209
f 209/209/209 212/212/212 211/211/211
f 215/215/215 214/214/214 213/213/213
f 213/213/213 216/216/216 215/215/215
f 219/219/219 218/218/218 217/217/217
f 217/217/217 220/220/220 219/219/219
f 223/223/223 222/222/222 221/221/221
f 221/221/221 224/224/224 223/223/223
f 227/227/227 226/226/226 225/225/225
f 225/225/225 228/228/228 227/227/227
f 231/231/231 230/230/230 229/229/229
f 229/229/229 232/232/232 231/231/231
f 235/235/235 234/234/234 233/233/233
f 233/233/233 236/236/236 235/235/235
f 239/239/239 238/238/238 237/237/237
f 237/237/237 240/240/240 239/239/239
f 243/243/243 242/242/242 241/241/241
f 241/241/241 244/244/244 243/243/243
f 247/247/247 246/246/246 245/245/245
f 245/245/245 248/248/248 247/247/247
f 251/251/251 250/250/250 249/249/249
f 249/249/249 252/252/252 251/251/251
f 255/255/255 254/254/254 253/253/253
f 253/253/253 256/256/256 255/255/255
f 259/259/259 258/258/258 257/257/257
f 257/257/257 260/260/260 259/259/259
f 263/263/263 262/262/262 261/261/261
f 261/261/261 264/264/264 263/263/263
f 267/267/267 266/266/266 265/265/265
f 265/265/265 268/268/268 267/267/267
f 271/271/271 270/270/270 269/269/269
f 269/269/269 272/272/272 271/271/271
f 275/275/275 274/274/274 273/273/273
f 273/273/273 276/276/276 275/275/275
