g xinnong_3_rw-mesh
v -736 669 0
v -736 1501 0
v -1216 1501 0
v -1216 669 0
v -1216 669 0
v -1216 1501 0
v -1664 1501 0
v -1664 669 0
v -224 509 0
v -224 925 0
v -736 925 0
v -736 509 0
v -224 925 0
v -224 1341 0
v -736 1341 0
v -736 925 0
v -928 413 0
v -928 669 0
v -1408 669 0
v -1408 413 0
v -1408 1501 0
v -1408 1725 0
v -1824 1725 0
v -1824 1501 0
v -416 1629 0
v -416 1917 0
v -672 1917 0
v -672 1629 0
v -416 1341 0
v -416 1629 0
v -672 1629 0
v -672 1341 0
v -32 1117 0
v -32 1469 0
v -224 1469 0
v -224 1117 0
v -160 285 0
v -160 477 0
v -480 477 0
v -480 285 0
v -480 285 0
v -480 477 0
v -800 477 0
v -800 285 0
v -1664 637 0
v -1664 797 0
v -1984 797 0
v -1984 637 0
v -736 1533 0
v -736 1693 0
v -960 1693 0
v -960 1533 0
v -224 93 0
v -224 285 0
v -384 285 0
v -384 93 0
v -960 1533 0
v -960 1693 0
v -1152 1693 0
v -1152 1533 0
v -800 381 0
v -800 605 0
v -928 605 0
v -928 381 0
v -768 1725 0
v -768 1853 0
v -960 1853 0
v -960 1725 0
v -96 637 0
v -96 797 0
v -224 797 0
v -224 637 0
v -96 477 0
v -96 637 0
v -224 637 0
v -224 477 0
v -640 189 0
v -640 285 0
v -832 285 0
v -832 189 0
v -1216 1501 0
v -1216 1597 0
v -1408 1597 0
v -1408 1501 0
v -1664 797 0
v -1664 893 0
v -1824 893 0
v -1824 797 0
v -672 1789 0
v -672 1949 0
v -768 1949 0
v -768 1789 0
v -1664 1309 0
v -1664 1501 0
v -1728 1501 0
v -1728 1309 0
v -128 989 0
v -128 1117 0
v -224 1117 0
v -224 989 0
v -1664 1149 0
v -1664 1309 0
v -1728 1309 0
v -1728 1149 0
v -672 1501 0
v -672 1661 0
v -736 1661 0
v -736 1501 0
v -352 1661 0
v -352 1821 0
v -416 1821 0
v -416 1661 0
v -672 1341 0
v -672 1501 0
v -736 1501 0
v -736 1341 0
v -960 1693 0
v -960 1789 0
v -1056 1789 0
v -1056 1693 0
v -1408 573 0
v -1408 669 0
v -1504 669 0
v -1504 573 0
v -1728 1405 0
v -1728 1501 0
v -1824 1501 0
v -1824 1405 0
v -192 1469 0
v -192 1565 0
v -288 1565 0
v -288 1469 0
v -1824 1437 0
v -1824 1533 0
v -1920 1533 0
v -1920 1437 0
v -1472 1725 0
v -1472 1789 0
v -1600 1789 0
v -1600 1725 0
v -352 1533 0
v -352 1661 0
v -416 1661 0
v -416 1533 0
v -1536 605 0
v -1536 669 0
v -1664 669 0
v -1664 605 0
v -832 605 0
v -832 669 0
v -928 669 0
v -928 605 0
v -1728 1309 0
v -1728 1405 0
v -1792 1405 0
v -1792 1309 0
v -256 29 0
v -256 93 0
v -352 93 0
v -352 29 0
v -1312 1597 0
v -1312 1661 0
v -1408 1661 0
v -1408 1597 0
v -672 93 0
v -672 189 0
v -736 189 0
v -736 93 0
v -416 477 0
v -416 509 0
v -608 509 0
v -608 477 0
v -224 477 0
v -224 509 0
v -416 509 0
v -416 477 0
v -64 1533 0
v -64 1629 0
v -128 1629 0
v -128 1533 0
v -736 541 0
v -736 637 0
v -800 637 0
v -800 541 0
v -1984 669 0
v -1984 765 0
v -2047 765 0
v -2047 669 0
v -1248 381 0
v -1248 413 0
v -1408 413 0
v -1408 381 0
v -1088 381 0
v -1088 413 0
v -1248 413 0
v -1248 381 0
v -928 1501 0
v -928 1533 0
v -1088 1533 0
v -1088 1501 0
v -160 797 0
v -160 861 0
v -224 861 0
v -224 797 0
v -192 0 0
v -192 61 0
v -256 61 0
v -256 0 0
v -1664 573 0
v -1664 637 0
v -1728 637 0
v -1728 573 0
v -1920 1437 0
v -1920 1501 0
v -1984 1501 0
v -1984 1437 0
v -352 1341 0
v -352 1405 0
v -416 1405 0
v -416 1341 0
v -768 1917 0
v -768 1981 0
v -832 1981 0
v -832 1917 0
v -1888 1693 0
v -1888 1757 0
v -1952 1757 0
v -1952 1693 0
v -1824 1661 0
v -1824 1725 0
v -1888 1725 0
v -1888 1661 0
v -448 1917 0
v -448 1949 0
v -576 1949 0
v -576 1917 0
v -0 1213 0
v -0 1341 0
v -32 1341 0
v -32 1213 0
v -384 253 0
v -384 285 0
v -512 285 0
v -512 253 0
v -512 253 0
v -512 285 0
v -640 285 0
v -640 253 0
v -736 477 0
v -736 541 0
v -800 541 0
v -800 477 0
v -64 1469 0
v -64 1533 0
v -128 1533 0
v -128 1469 0
v -0 1341 0
v -0 1469 0
v -32 1469 0
v -32 1341 0
v -1088 1501 0
v -1088 1533 0
v -1216 1533 0
v -1216 1501 0
v -1664 893 0
v -1664 989 0
v -1696 989 0
v -1696 893 0
v -1664 989 0
v -1664 1085 0
v -1696 1085 0
v -1696 989 0
v -576 1917 0
v -576 1949 0
v -672 1949 0
v -672 1917 0
v -736 1501 0
v -736 1533 0
v -832 1533 0
v -832 1501 0
v -160 957 0
v -160 989 0
v -224 989 0
v -224 957 0
v -64 1085 0
v -64 1117 0
v -128 1117 0
v -128 1085 0
v -256 1341 0
v -256 1405 0
v -288 1405 0
v -288 1341 0
v -1696 893 0
v -1696 957 0
v -1728 957 0
v -1728 893 0
v -64 445 0
v -64 477 0
v -128 477 0
v -128 445 0
v -1056 1693 0
v -1056 1757 0
v -1088 1757 0
v -1088 1693 0
v -1600 1725 0
v -1600 1757 0
v -1664 1757 0
v -1664 1725 0
v -160 1469 0
v -160 1533 0
v -192 1533 0
v -192 1469 0
v -0 1117 0
v -0 1181 0
v -32 1181 0
v -32 1117 0
v -1728 1149 0
v -1728 1213 0
v -1760 1213 0
v -1760 1149 0
v -384 157 0
v -384 221 0
v -416 221 0
v -416 157 0
v -576 221 0
v -576 253 0
v -640 253 0
v -640 221 0
v -736 125 0
v -736 189 0
v -768 189 0
v -768 125 0
v -288 0 0
v -288 29 0
v -352 29 0
v -352 0 0
v -640 61 0
v -640 125 0
v -672 125 0
v -672 61 0
v -192 221 0
v -192 285 0
v -224 285 0
v -224 221 0
v -1760 605 0
v -1760 637 0
v -1824 637 0
v -1824 605 0
v -768 637 0
v -768 669 0
v -832 669 0
v -832 637 0
v -1408 477 0
v -1408 541 0
v -1440 541 0
v -1440 477 0
v -800 349 0
v -800 381 0
v -864 381 0
v -864 349 0
v -128 381 0
v -128 445 0
v -160 445 0
v -160 381 0
v -640 477 0
v -640 509 0
v -704 509 0
v -704 477 0
v -1760 1117 0
v -1760 1149 0
v -1824 1149 0
v -1824 1117 0
v -1696 1117 0
v -1696 1149 0
v -1760 1149 0
v -1760 1117 0
v -384 221 0
v -384 253 0
v -448 253 0
v -448 221 0
v -1152 1565 0
v -1152 1629 0
v -1184 1629 0
v -1184 1565 0
v -448 221 0
v -448 253 0
v -512 253 0
v -512 221 0
v -224 1341 0
v -224 1405 0
v -256 1405 0
v -256 1341 0
v -320 1661 0
v -320 1725 0
v -352 1725 0
v -352 1661 0
v -832 1501 0
v -832 1533 0
v -896 1533 0
v -896 1501 0
v -320 1597 0
v -320 1661 0
v -352 1661 0
v -352 1597 0
v -224 1405 0
v -224 1469 0
v -256 1469 0
v -256 1405 0
v -896 1693 0
v -896 1725 0
v -960 1725 0
v -960 1693 0
v -32 1501 0
v -32 1565 0
v -64 1565 0
v -64 1501 0
v -384 1469 0
v -384 1533 0
v -416 1533 0
v -416 1469 0
v -64 605 0
v -64 669 0
v -96 669 0
v -96 605 0
v -224 1565 0
v -224 1597 0
v -288 1597 0
v -288 1565 0
v -832 1693 0
v -832 1725 0
v -896 1725 0
v -896 1693 0
v -128 797 0
v -128 829 0
v -160 829 0
v -160 797 0
v -192 925 0
v -192 957 0
v -224 957 0
v -224 925 0
v -1920 829 0
v -1920 861 0
v -1952 861 0
v -1952 829 0
v -1824 829 0
v -1824 861 0
v -1856 861 0
v -1856 829 0
v -192 861 0
v -192 893 0
v -224 893 0
v -224 861 0
v -1984 1469 0
v -1984 1501 0
v -2016 1501 0
v -2016 1469 0
v -1728 1277 0
v -1728 1309 0
v -1760 1309 0
v -1760 1277 0
v -1792 1149 0
v -1792 1181 0
v -1824 1181 0
v -1824 1149 0
v -96 1053 0
v -96 1085 0
v -128 1085 0
v -128 1053 0
v -256 1437 0
v -256 1469 0
v -288 1469 0
v -288 1437 0
v -1728 989 0
v -1728 1021 0
v -1760 1021 0
v -1760 989 0
v -1824 1405 0
v -1824 1437 0
v -1856 1437 0
v -1856 1405 0
v -768 157 0
v -768 189 0
v -800 189 0
v -800 157 0
v -416 189 0
v -416 221 0
v -448 221 0
v -448 189 0
v -800 285 0
v -800 317 0
v -832 317 0
v -832 285 0
v -352 61 0
v -352 93 0
v -384 93 0
v -384 61 0
v -480 93 0
v -480 125 0
v -512 125 0
v -512 93 0
v -192 125 0
v -192 157 0
v -224 157 0
v -224 125 0
v -1536 573 0
v -1536 605 0
v -1568 605 0
v -1568 573 0
v -1984 637 0
v -1984 669 0
v -2016 669 0
v -2016 637 0
v -1504 637 0
v -1504 669 0
v -1536 669 0
v -1536 637 0
v -448 61 0
v -448 93 0
v -480 93 0
v -480 61 0
v -1728 573 0
v -1728 605 0
v -1760 605 0
v -1760 573 0
v -1632 573 0
v -1632 605 0
v -1664 605 0
v -1664 573 0
v -768 1885 0
v -768 1917 0
v -800 1917 0
v -800 1885 0
v -544 1949 0
v -544 1981 0
v -576 1981 0
v -576 1949 0
v -1152 1533 0
v -1152 1565 0
v -1184 1565 0
v -1184 1533 0
v -736 1757 0
v -736 1789 0
v -768 1789 0
v -768 1757 0
v -960 1789 0
v -960 1821 0
v -992 1821 0
v -992 1789 0
v -384 1821 0
v -384 1853 0
v -416 1853 0
v -416 1821 0
v -128 445 0
v -128 477 0
v -160 477 0
v -160 445 0
v -64 573 0
v -64 605 0
v -96 605 0
v -96 573 0
v -704 477 0
v -704 509 0
v -736 509 0
v -736 477 0
v -288 1565 0
v -288 1597 0
v -320 1597 0
v -320 1565 0
v -32 1469 0
v -32 1501 0
v -64 1501 0
v -64 1469 0
v -384 1437 0
v -384 1469 0
v -416 1469 0
v -416 1437 0
v -288 1597 0
v -288 1629 0
v -320 1629 0
v -320 1597 0
v -1824 1629 0
v -1824 1661 0
v -1856 1661 0
v -1856 1629 0
v -96 1629 0
v -96 1661 0
v -128 1661 0
v -128 1629 0
v -352 1469 0
v -352 1501 0
v -384 1501 0
v -384 1469 0
v -1184 1533 0
v -1184 1565 0
v -1216 1565 0
v -1216 1533 0
v -1280 1597 0
v -1280 1629 0
v -1312 1629 0
v -1312 1597 0
v -1088 1693 0
v -1088 1725 0
v -1120 1725 0
v -1120 1693 0
v -1440 1725 0
v -1440 1757 0
v -1472 1757 0
v -1472 1725 0
v -1376 1725 0
v -1376 1757 0
v -1408 1757 0
v -1408 1725 0
v -1888 1661 0
v -1888 1693 0
v -1920 1693 0
v -1920 1661 0
v -1376 1661 0
v -1376 1693 0
v -1408 1693 0
v -1408 1661 0
v -288 1661 0
v -288 1693 0
v -320 1693 0
v -320 1661 0
vt 0.00048828125 0.000719428062
vt 0.00048828125 0.599280596
vt 0.234863281 0.599280596
vt 0.234863281 0.000719428062
vt 0.235839844 0.000719428062
vt 0.235839844 0.599280596
vt 0.454589844 0.599280596
vt 0.454589844 0.000719428062
vt 0.455566406 0.000719428062
vt 0.455566406 0.300000012
vt 0.705566406 0.300000012
vt 0.705566406 0.000719428062
vt 0.706542969 0.000719428062
vt 0.706542969 0.300000012
vt 0.956542969 0.300000012
vt 0.956542969 0.000719428062
vt 0.455566406 0.301438868
vt 0.455566406 0.485611498
vt 0.689941406 0.485611498
vt 0.689941406 0.301438868
vt 0.690917969 0.301438868
vt 0.690917969 0.46258992
vt 0.894042969 0.46258992
vt 0.894042969 0.301438868
vt 0.690917969 0.464028776
vt 0.690917969 0.671223044
vt 0.815917969 0.671223044
vt 0.815917969 0.464028776
vt 0.816894531 0.464028776
vt 0.816894531 0.671223044
vt 0.941894531 0.671223044
vt 0.941894531 0.464028776
vt 0.455566406 0.487050354
vt 0.455566406 0.740287781
vt 0.549316406 0.740287781
vt 0.549316406 0.487050354
vt 0.00048828125 0.600719452
vt 0.00048828125 0.738848925
vt 0.156738281 0.738848925
vt 0.156738281 0.600719452
vt 0.157714844 0.600719452
vt 0.157714844 0.738848925
vt 0.313964844 0.738848925
vt 0.313964844 0.600719452
vt 0.690917969 0.672661901
vt 0.690917969 0.787769794
vt 0.847167969 0.787769794
vt 0.847167969 0.672661901
vt 0.550292969 0.487050354
vt 0.550292969 0.602158308
vt 0.659667969 0.602158308
vt 0.659667969 0.487050354
vt 0.314941406 0.600719452
vt 0.314941406 0.738848925
vt 0.393066406 0.738848925
vt 0.393066406 0.600719452
vt 0.550292969 0.603597164
vt 0.550292969 0.718705058
vt 0.644042969 0.718705058
vt 0.644042969 0.603597164
vt 0.848144531 0.672661901
vt 0.848144531 0.833812952
vt 0.910644531 0.833812952
vt 0.910644531 0.672661901
vt 0.550292969 0.720143914
vt 0.550292969 0.812230229
vt 0.644042969 0.812230229
vt 0.644042969 0.720143914
vt 0.911621094 0.672661901
vt 0.911621094 0.787769794
vt 0.974121094 0.787769794
vt 0.974121094 0.672661901
vt 0.00048828125 0.740287781
vt 0.00048828125 0.855395675
vt 0.0629882812 0.855395675
vt 0.0629882812 0.740287781
vt 0.0639648438 0.740287781
vt 0.0639648438 0.809352517
vt 0.157714844 0.809352517
vt 0.157714844 0.740287781
vt 0.158691406 0.740287781
vt 0.158691406 0.809352517
vt 0.252441406 0.809352517
vt 0.252441406 0.740287781
vt 0.253417969 0.740287781
vt 0.253417969 0.809352517
vt 0.331542969 0.809352517
vt 0.331542969 0.740287781
vt 0.394042969 0.600719452
vt 0.394042969 0.715827346
vt 0.440917969 0.715827346
vt 0.440917969 0.600719452
vt 0.645019531 0.603597164
vt 0.645019531 0.741726637
vt 0.676269531 0.741726637
vt 0.676269531 0.603597164
vt 0.394042969 0.717266202
vt 0.394042969 0.809352517
vt 0.440917969 0.809352517
vt 0.440917969 0.717266202
vt 0.332519531 0.740287781
vt 0.332519531 0.855395675
vt 0.363769531 0.855395675
vt 0.363769531 0.740287781
vt 0.455566406 0.741726637
vt 0.455566406 0.856834531
vt 0.486816406 0.856834531
vt 0.486816406 0.741726637
vt 0.487792969 0.741726637
vt 0.487792969 0.856834531
vt 0.519042969 0.856834531
vt 0.519042969 0.741726637
vt 0.645019531 0.743165493
vt 0.645019531 0.858273387
vt 0.676269531 0.858273387
vt 0.676269531 0.743165493
vt 0.690917969 0.789208651
vt 0.690917969 0.858273387
vt 0.737792969 0.858273387
vt 0.737792969 0.789208651
vt 0.738769531 0.789208651
vt 0.738769531 0.858273387
vt 0.785644531 0.858273387
vt 0.785644531 0.789208651
vt 0.786621094 0.789208651
vt 0.786621094 0.858273387
vt 0.833496094 0.858273387
vt 0.833496094 0.789208651
vt 0.911621094 0.789208651
vt 0.911621094 0.858273387
vt 0.958496094 0.858273387
vt 0.958496094 0.789208651
vt 0.0639648438 0.810791373
vt 0.0639648438 0.87985611
vt 0.110839844 0.87985611
vt 0.110839844 0.810791373
vt 0.111816406 0.810791373
vt 0.111816406 0.856834531
vt 0.174316406 0.856834531
vt 0.174316406 0.810791373
vt 0.959472656 0.789208651
vt 0.959472656 0.881294966
vt 0.990722656 0.881294966
vt 0.990722656 0.789208651
vt 0.175292969 0.810791373
vt 0.175292969 0.856834531
vt 0.237792969 0.856834531
vt 0.237792969 0.810791373
vt 0.238769531 0.810791373
vt 0.238769531 0.856834531
vt 0.285644531 0.856834531
vt 0.285644531 0.810791373
vt 0.286621094 0.810791373
vt 0.286621094 0.87985611
vt 0.317871094 0.87985611
vt 0.317871094 0.810791373
vt 0.394042969 0.810791373
vt 0.394042969 0.856834531
vt 0.440917969 0.856834531
vt 0.440917969 0.810791373
vt 0.550292969 0.813669086
vt 0.550292969 0.859712243
vt 0.597167969 0.859712243
vt 0.597167969 0.813669086
vt 0.598144531 0.813669086
vt 0.598144531 0.882733822
vt 0.629394531 0.882733822
vt 0.629394531 0.813669086
vt 0.111816406 0.858273387
vt 0.111816406 0.881294966
vt 0.205566406 0.881294966
vt 0.205566406 0.858273387
vt 0.394042969 0.858273387
vt 0.394042969 0.881294966
vt 0.487792969 0.881294966
vt 0.487792969 0.858273387
vt 0.848144531 0.835251808
vt 0.848144531 0.904316545
vt 0.879394531 0.904316545
vt 0.879394531 0.835251808
vt 0.00048828125 0.856834531
vt 0.00048828125 0.925899267
vt 0.0317382812 0.925899267
vt 0.0317382812 0.856834531
vt 0.332519531 0.856834531
vt 0.332519531 0.925899267
vt 0.363769531 0.925899267
vt 0.363769531 0.856834531
vt 0.206542969 0.858273387
vt 0.206542969 0.881294966
vt 0.284667969 0.881294966
vt 0.284667969 0.858273387
vt 0.645019531 0.859712243
vt 0.645019531 0.882733822
vt 0.723144531 0.882733822
vt 0.723144531 0.859712243
vt 0.724121094 0.859712243
vt 0.724121094 0.882733822
vt 0.802246094 0.882733822
vt 0.802246094 0.859712243
vt 0.488769531 0.858273387
vt 0.488769531 0.904316545
vt 0.520019531 0.904316545
vt 0.520019531 0.858273387
vt 0.803222656 0.859712243
vt 0.803222656 0.904316545
vt 0.834472656 0.904316545
vt 0.834472656 0.859712243
vt 0.911621094 0.859712243
vt 0.911621094 0.905755401
vt 0.942871094 0.905755401
vt 0.942871094 0.859712243
vt 0.550292969 0.861151099
vt 0.550292969 0.907194257
vt 0.581542969 0.907194257
vt 0.581542969 0.861151099
vt 0.0639648438 0.881294966
vt 0.0639648438 0.927338123
vt 0.0952148438 0.927338123
vt 0.0952148438 0.881294966
vt 0.286621094 0.881294966
vt 0.286621094 0.927338123
vt 0.317871094 0.927338123
vt 0.317871094 0.881294966
vt 0.111816406 0.882733822
vt 0.111816406 0.928776979
vt 0.143066406 0.928776979
vt 0.143066406 0.882733822
vt 0.144042969 0.882733822
vt 0.144042969 0.928776979
vt 0.175292969 0.928776979
vt 0.175292969 0.882733822
vt 0.176269531 0.882733822
vt 0.176269531 0.905755401
vt 0.238769531 0.905755401
vt 0.238769531 0.882733822
vt 0.364746094 0.740287781
vt 0.364746094 0.832374096
vt 0.380371094 0.832374096
vt 0.380371094 0.740287781
vt 0.394042969 0.882733822
vt 0.394042969 0.905755401
vt 0.456542969 0.905755401
vt 0.456542969 0.882733822
vt 0.598144531 0.884172678
vt 0.598144531 0.907194257
vt 0.660644531 0.907194257
vt 0.660644531 0.884172678
vt 0.239746094 0.882733822
vt 0.239746094 0.928776979
vt 0.270996094 0.928776979
vt 0.270996094 0.882733822
vt 0.959472656 0.882733822
vt 0.959472656 0.928776979
vt 0.990722656 0.928776979
vt 0.990722656 0.882733822
vt 0.520996094 0.741726637
vt 0.520996094 0.833812952
vt 0.536621094 0.833812952
vt 0.536621094 0.741726637
vt 0.661621094 0.884172678
vt 0.661621094 0.907194257
vt 0.724121094 0.907194257
vt 0.724121094 0.884172678
vt 0.364746094 0.833812952
vt 0.364746094 0.902877688
vt 0.380371094 0.902877688
vt 0.380371094 0.833812952
vt 0.520996094 0.835251808
vt 0.520996094 0.904316545
vt 0.536621094 0.904316545
vt 0.536621094 0.835251808
vt 0.725097656 0.884172678
vt 0.725097656 0.907194257
vt 0.771972656 0.907194257
vt 0.771972656 0.884172678
vt 0.488769531 0.905755401
vt 0.488769531 0.928776979
vt 0.535644531 0.928776979
vt 0.535644531 0.905755401
vt 0.803222656 0.905755401
vt 0.803222656 0.928776979
vt 0.834472656 0.928776979
vt 0.834472656 0.905755401
vt 0.848144531 0.905755401
vt 0.848144531 0.928776979
vt 0.879394531 0.928776979
vt 0.879394531 0.905755401
vt 0.880371094 0.835251808
vt 0.880371094 0.881294966
vt 0.895996094 0.881294966
vt 0.895996094 0.835251808
vt 0.0327148438 0.856834531
vt 0.0327148438 0.902877688
vt 0.0483398438 0.902877688
vt 0.0483398438 0.856834531
vt 0.176269531 0.907194257
vt 0.176269531 0.930215836
vt 0.207519531 0.930215836
vt 0.207519531 0.907194257
vt 0.457519531 0.882733822
vt 0.457519531 0.928776979
vt 0.473144531 0.928776979
vt 0.473144531 0.882733822
vt 0.394042969 0.907194257
vt 0.394042969 0.930215836
vt 0.425292969 0.930215836
vt 0.425292969 0.907194257
vt 0.880371094 0.882733822
vt 0.880371094 0.928776979
vt 0.895996094 0.928776979
vt 0.895996094 0.882733822
vt 0.772949219 0.884172678
vt 0.772949219 0.930215836
vt 0.788574219 0.930215836
vt 0.788574219 0.884172678
vt 0.0327148438 0.904316545
vt 0.0327148438 0.950359702
vt 0.0483398438 0.950359702
vt 0.0483398438 0.904316545
vt 0.364746094 0.904316545
vt 0.364746094 0.950359702
vt 0.380371094 0.950359702
vt 0.380371094 0.904316545
vt 0.911621094 0.907194257
vt 0.911621094 0.930215836
vt 0.942871094 0.930215836
vt 0.942871094 0.907194257
vt 0.208496094 0.907194257
vt 0.208496094 0.953237414
vt 0.224121094 0.953237414
vt 0.224121094 0.907194257
vt 0.550292969 0.908633113
vt 0.550292969 0.930215836
vt 0.581542969 0.930215836
vt 0.581542969 0.908633113
vt 0.426269531 0.907194257
vt 0.426269531 0.953237414
vt 0.441894531 0.953237414
vt 0.441894531 0.907194257
vt 0.598144531 0.908633113
vt 0.598144531 0.95467627
vt 0.613769531 0.95467627
vt 0.613769531 0.908633113
vt 0.614746094 0.908633113
vt 0.614746094 0.931654692
vt 0.645996094 0.931654692
vt 0.645996094 0.908633113
vt 0.646972656 0.908633113
vt 0.646972656 0.931654692
vt 0.678222656 0.931654692
vt 0.678222656 0.908633113
vt 0.679199219 0.908633113
vt 0.679199219 0.95467627
vt 0.694824219 0.95467627
vt 0.694824219 0.908633113
vt 0.695800781 0.908633113
vt 0.695800781 0.931654692
vt 0.727050781 0.931654692
vt 0.727050781 0.908633113
vt 0.728027344 0.908633113
vt 0.728027344 0.95467627
vt 0.743652344 0.95467627
vt 0.743652344 0.908633113
vt 0.00048828125 0.927338123
vt 0.00048828125 0.950359702
vt 0.0317382812 0.950359702
vt 0.0317382812 0.927338123
vt 0.332519531 0.927338123
vt 0.332519531 0.950359702
vt 0.363769531 0.950359702
vt 0.363769531 0.927338123
vt 0.0639648438 0.928776979
vt 0.0639648438 0.951798558
vt 0.0952148438 0.951798558
vt 0.0952148438 0.928776979
vt 0.286621094 0.928776979
vt 0.286621094 0.951798558
vt 0.317871094 0.951798558
vt 0.317871094 0.928776979
vt 0.744628906 0.908633113
vt 0.744628906 0.95467627
vt 0.760253906 0.95467627
vt 0.760253906 0.908633113
vt 0.111816406 0.930215836
vt 0.111816406 0.953237414
vt 0.143066406 0.953237414
vt 0.143066406 0.930215836
vt 0.144042969 0.930215836
vt 0.144042969 0.976258993
vt 0.159667969 0.976258993
vt 0.159667969 0.930215836
vt 0.239746094 0.930215836
vt 0.239746094 0.976258993
vt 0.255371094 0.976258993
vt 0.255371094 0.930215836
vt 0.457519531 0.930215836
vt 0.457519531 0.953237414
vt 0.488769531 0.953237414
vt 0.488769531 0.930215836
vt 0.256347656 0.930215836
vt 0.256347656 0.976258993
vt 0.271972656 0.976258993
vt 0.271972656 0.930215836
vt 0.489746094 0.930215836
vt 0.489746094 0.976258993
vt 0.505371094 0.976258993
vt 0.505371094 0.930215836
vt 0.506347656 0.930215836
vt 0.506347656 0.953237414
vt 0.537597656 0.953237414
vt 0.537597656 0.930215836
vt 0.803222656 0.930215836
vt 0.803222656 0.976258993
vt 0.818847656 0.976258993
vt 0.818847656 0.930215836
vt 0.819824219 0.930215836
vt 0.819824219 0.976258993
vt 0.835449219 0.976258993
vt 0.835449219 0.930215836
vt 0.848144531 0.930215836
vt 0.848144531 0.976258993
vt 0.863769531 0.976258993
vt 0.863769531 0.930215836
vt 0.864746094 0.930215836
vt 0.864746094 0.953237414
vt 0.895996094 0.953237414
vt 0.895996094 0.930215836
vt 0.959472656 0.930215836
vt 0.959472656 0.953237414
vt 0.990722656 0.953237414
vt 0.990722656 0.930215836
vt 0.176269531 0.931654692
vt 0.176269531 0.95467627
vt 0.191894531 0.95467627
vt 0.191894531 0.931654692
vt 0.394042969 0.931654692
vt 0.394042969 0.95467627
vt 0.409667969 0.95467627
vt 0.409667969 0.931654692
vt 0.550292969 0.931654692
vt 0.550292969 0.95467627
vt 0.565917969 0.95467627
vt 0.565917969 0.931654692
vt 0.566894531 0.931654692
vt 0.566894531 0.95467627
vt 0.582519531 0.95467627
vt 0.582519531 0.931654692
vt 0.772949219 0.931654692
vt 0.772949219 0.95467627
vt 0.788574219 0.95467627
vt 0.788574219 0.931654692
vt 0.911621094 0.931654692
vt 0.911621094 0.95467627
vt 0.927246094 0.95467627
vt 0.927246094 0.931654692
vt 0.928222656 0.931654692
vt 0.928222656 0.95467627
vt 0.943847656 0.95467627
vt 0.943847656 0.931654692
vt 0.614746094 0.933093548
vt 0.614746094 0.956115127
vt 0.630371094 0.956115127
vt 0.630371094 0.933093548
vt 0.631347656 0.933093548
vt 0.631347656 0.956115127
vt 0.646972656 0.956115127
vt 0.646972656 0.933093548
vt 0.647949219 0.933093548
vt 0.647949219 0.956115127
vt 0.663574219 0.956115127
vt 0.663574219 0.933093548
vt 0.695800781 0.933093548
vt 0.695800781 0.956115127
vt 0.711425781 0.956115127
vt 0.711425781 0.933093548
vt 0.00048828125 0.951798558
vt 0.00048828125 0.974820137
vt 0.0161132812 0.974820137
vt 0.0161132812 0.951798558
vt 0.0170898438 0.951798558
vt 0.0170898438 0.974820137
vt 0.0327148438 0.974820137
vt 0.0327148438 0.951798558
vt 0.0336914062 0.951798558
vt 0.0336914062 0.974820137
vt 0.0493164062 0.974820137
vt 0.0493164062 0.951798558
vt 0.332519531 0.951798558
vt 0.332519531 0.974820137
vt 0.348144531 0.974820137
vt 0.348144531 0.951798558
vt 0.349121094 0.951798558
vt 0.349121094 0.974820137
vt 0.364746094 0.974820137
vt 0.364746094 0.951798558
vt 0.365722656 0.951798558
vt 0.365722656 0.974820137
vt 0.381347656 0.974820137
vt 0.381347656 0.951798558
vt 0.0639648438 0.953237414
vt 0.0639648438 0.976258993
vt 0.0795898438 0.976258993
vt 0.0795898438 0.953237414
vt 0.0805664062 0.953237414
vt 0.0805664062 0.976258993
vt 0.0961914062 0.976258993
vt 0.0961914062 0.953237414
vt 0.286621094 0.953237414
vt 0.286621094 0.976258993
vt 0.302246094 0.976258993
vt 0.302246094 0.953237414
vt 0.303222656 0.953237414
vt 0.303222656 0.976258993
vt 0.318847656 0.976258993
vt 0.318847656 0.953237414
vt 0.111816406 0.95467627
vt 0.111816406 0.977697849
vt 0.127441406 0.977697849
vt 0.127441406 0.95467627
vt 0.208496094 0.95467627
vt 0.208496094 0.977697849
vt 0.224121094 0.977697849
vt 0.224121094 0.95467627
vt 0.426269531 0.95467627
vt 0.426269531 0.977697849
vt 0.441894531 0.977697849
vt 0.441894531 0.95467627
vt 0.457519531 0.95467627
vt 0.457519531 0.977697849
vt 0.473144531 0.977697849
vt 0.473144531 0.95467627
vt 0.506347656 0.95467627
vt 0.506347656 0.977697849
vt 0.521972656 0.977697849
vt 0.521972656 0.95467627
vt 0.522949219 0.95467627
vt 0.522949219 0.977697849
vt 0.538574219 0.977697849
vt 0.538574219 0.95467627
vt 0.864746094 0.95467627
vt 0.864746094 0.977697849
vt 0.880371094 0.977697849
vt 0.880371094 0.95467627
vt 0.881347656 0.95467627
vt 0.881347656 0.977697849
vt 0.896972656 0.977697849
vt 0.896972656 0.95467627
vt 0.959472656 0.95467627
vt 0.959472656 0.977697849
vt 0.975097656 0.977697849
vt 0.975097656 0.95467627
vt 0.976074219 0.95467627
vt 0.976074219 0.977697849
vt 0.991699219 0.977697849
vt 0.991699219 0.95467627
vt 0.176269531 0.956115127
vt 0.176269531 0.979136705
vt 0.191894531 0.979136705
vt 0.191894531 0.956115127
vt 0.394042969 0.956115127
vt 0.394042969 0.979136705
vt 0.409667969 0.979136705
vt 0.409667969 0.956115127
vt 0.550292969 0.956115127
vt 0.550292969 0.979136705
vt 0.565917969 0.979136705
vt 0.565917969 0.956115127
vt 0.566894531 0.956115127
vt 0.566894531 0.979136705
vt 0.582519531 0.979136705
vt 0.582519531 0.956115127
vt 0.598144531 0.956115127
vt 0.598144531 0.979136705
vt 0.613769531 0.979136705
vt 0.613769531 0.956115127
vt 0.679199219 0.956115127
vt 0.679199219 0.979136705
vt 0.694824219 0.979136705
vt 0.694824219 0.956115127
vt 0.728027344 0.956115127
vt 0.728027344 0.979136705
vt 0.743652344 0.979136705
vt 0.743652344 0.956115127
vt 0.744628906 0.956115127
vt 0.744628906 0.979136705
vt 0.760253906 0.979136705
vt 0.760253906 0.956115127
vt 0.772949219 0.956115127
vt 0.772949219 0.979136705
vt 0.788574219 0.979136705
vt 0.788574219 0.956115127
vt 0.911621094 0.956115127
vt 0.911621094 0.979136705
vt 0.927246094 0.979136705
vt 0.927246094 0.956115127
vt 0.928222656 0.956115127
vt 0.928222656 0.979136705
vt 0.943847656 0.979136705
vt 0.943847656 0.956115127
vt 0.614746094 0.957553983
vt 0.614746094 0.980575562
vt 0.630371094 0.980575562
vt 0.630371094 0.957553983
vt 0.631347656 0.957553983
vt 0.631347656 0.980575562
vt 0.646972656 0.980575562
vt 0.646972656 0.957553983
vt 0.647949219 0.957553983
vt 0.647949219 0.980575562
vt 0.663574219 0.980575562
vt 0.663574219 0.957553983
vt 0.695800781 0.957553983
vt 0.695800781 0.980575562
vt 0.711425781 0.980575562
vt 0.711425781 0.957553983
vt 0.00048828125 0.976258993
vt 0.00048828125 0.999280572
vt 0.0161132812 0.999280572
vt 0.0161132812 0.976258993
vt 0.0170898438 0.976258993
vt 0.0170898438 0.999280572
vt 0.0327148438 0.999280572
vt 0.0327148438 0.976258993
g xinnong_3_rw-mesh_0
f 3/3/3 2/2/2 1/1/1
f 1/1/1 4/4/4 3/3/3
f 7/7/7 6/6/6 5/5/5
f 5/5/5 8/8/8 7/7/7
f 11/11/11 10/10/10 9/9/9
f 9/9/9 12/12/12 11/11/11
f 15/15/15 14/14/14 13/13/13
f 13/13/13 16/16/16 15/15/15
f 19/19/19 18/18/18 17/17/17
f 17/17/17 20/20/20 19/19/19
f 23/23/23 22/22/22 21/21/21
f 21/21/21 24/24/24 23/23/23
f 27/27/27 26/26/26 25/25/25
f 25/25/25 28/28/28 27/27/27
f 31/31/31 30/30/30 29/29/29
f 29/29/29 32/32/32 31/31/31
f 35/35/35 34/34/34 33/33/33
f 33/33/33 36/36/36 35/35/35
f 39/39/39 38/38/38 37/37/37
f 37/37/37 40/40/40 39/39/39
f 43/43/43 42/42/42 41/41/41
f 41/41/41 44/44/44 43/43/43
f 47/47/47 46/46/46 45/45/45
f 45/45/45 48/48/48 47/47/47
f 51/51/51 50/50/50 49/49/49
f 49/49/49 52/52/52 51/51/51
f 55/55/55 54/54/54 53/53/53
f 53/53/53 56/56/56 55/55/55
f 59/59/59 58/58/58 57/57/57
f 57/57/57 60/60/60 59/59/59
f 63/63/63 62/62/62 61/61/61
f 61/61/61 64/64/64 63/63/63
f 67/67/67 66/66/66 65/65/65
f 65/65/65 68/68/68 67/67/67
f 71/71/71 70/70/70 69/69/69
f 69/69/69 72/72/72 71/71/71
f 75/75/75 74/74/74 73/73/73
f 73/73/73 76/76/76 75/75/75
f 79/79/79 78/78/78 77/77/77
f 77/77/77 80/80/80 79/79/79
f 83/83/83 82/82/82 81/81/81
f 81/81/81 84/84/84 83/83/83
f 87/87/87 86/86/86 85/85/85
f 85/85/85 88/88/88 87/87/87
f 91/91/91 90/90/90 89/89/89
f 89/89/89 92/92/92 91/91/91
f 95/95/95 94/94/94 93/93/93
f 93/93/93 96/96/96 95/95/95
f 99/99/99 98/98/98 97/97/97
f 97/97/97 100/100/100 99/99/99
f 103/103/103 102/102/102 101/101/101
f 101/101/101 104/104/104 103/103/103
f 107/107/107 106/106/106 105/105/105
f 105/105/105 108/108/108 107/107/107
f 111/111/111 110/110/110 109/109/109
f 109/109/109 112/112/112 111/111/111
f 115/115/115 114/114/114 113/113/113
f 113/113/113 116/116/116 115/115/115
f 119/119/119 118/118/118 117/117/117
f 117/117/117 120/120/120 119/119/119
f 123/123/123 122/122/122 121/121/121
f 121/121/121 124/124/124 123/123/123
f 127/127/127 126/126/126 125/125/125
f 125/125/125 128/128/128 127/127/127
f 131/131/131 130/130/130 129/129/129
f 129/129/129 132/132/132 131/131/131
f 135/135/135 134/134/134 133/133/133
f 133/133/133 136/136/136 135/135/135
f 139/139/139 138/138/138 137/137/137
f 137/137/137 140/140/140 139/139/139
f 143/143/143 142/142/142 141/141/141
f 141/141/141 144/144/144 143/143/143
f 147/147/147 146/146/146 145/145/145
f 145/145/145 148/148/148 147/147/147
f 151/151/151 150/150/150 149/149/149
f 149/149/149 152/152/152 151/151/151
f 155/155/155 154/154/154 153/153/153
f 153/153/153 156/156/156 155/155/155
f 159/159/159 158/158/158 157/157/157
f 157/157/157 160/160/160 159/159/159
f 163/163/163 162/162/162 161/161/161
f 161/161/161 164/164/164 163/163/163
f 167/167/167 166/166/166 165/165/165
f 165/165/165 168/168/168 167/167/167
f 171/171/171 170/170/170 169/169/169
f 169/169/169 172/172/172 171/171/171
f 175/175/175 174/174/174 173/173/173
f 173/173/173 176/176/176 175/175/175
f 179/179/179 178/178/178 177/177/177
f 177/177/177 180/180/180 179/179/179
f 183/183/183 182/182/182 181/181/181
f 181/181/181 184/184/184 183/183/183
f 187/187/187 186/186/186 185/185/185
f 185/185/185 188/188/188 187/187/187
f 191/191/191 190/190/190 189/189/189
f 189/189/189 192/192/192 191/191/191
f 195/195/195 194/194/194 193/193/193
f 193/193/193 196/196/196 195/195/195
f 199/199/199 198/198/198 197/197/197
f 197/197/197 200/200/200 199/199/199
f 203/203/203 202/202/202 201/201/201
f 201/201/201 204/204/204 203/203/203
f 207/207/207 206/206/206 205/205/205
f 205/205/205 208/208/208 207/207/207
f 211/211/211 210/210/210 209/209/209
f 209/209/209 212/212/212 211/211/211
f 215/215/215 214/214/214 213/213/213
f 213/213/213 216/216/216 215/215/215
f 219/219/219 218/218/218 217/217/217
f 217/217/217 220/220/220 219/219/219
f 223/223/223 222/222/222 221/221/221
f 221/221/221 224/224/224 223/223/223
f 227/227/227 226/226/226 225/225/225
f 225/225/225 228/228/228 227/227/227
f 231/231/231 230/230/230 229/229/229
f 229/229/229 232/232/232 231/231/231
f 235/235/235 234/234/234 233/233/233
f 233/233/233 236/236/236 235/235/235
f 239/239/239 238/238/238 237/237/237
f 237/237/237 240/240/240 239/239/239
f 243/243/243 242/242/242 241/241/241
f 241/241/241 244/244/244 243/243/243
f 247/247/247 246/246/246 245/245/245
f 245/245/245 248/248/248 247/247/247
f 251/251/251 250/250/250 249/249/249
f 249/249/249 252/252/252 251/251/251
f 255/255/255 254/254/254 253/253/253
f 253/253/253 256/256/256 255/255/255
f 259/259/259 258/258/258 257/257/257
f 257/257/257 260/260/260 259/259/259
f 263/263/263 262/262/262 261/261/261
f 261/261/261 264/264/264 263/263/263
f 267/267/267 266/266/266 265/265/265
f 265/265/265 268/268/268 267/267/267
f 271/271/271 270/270/270 269/269/269
f 269/269/269 272/272/272 271/271/271
f 275/275/275 274/274/274 273/273/273
f 273/273/273 276/276/276 275/275/275
f 279/279/279 278/278/278 277/277/277
f 277/277/277 280/280/280 279/279/279
f 283/283/283 282/282/282 281/281/281
f 281/281/281 284/284/284 283/283/283
f 287/287/287 286/286/286 285/285/285
f 285/285/285 288/288/288 287/287/287
f 291/291/291 290/290/290 289/289/289
f 289/289/289 292/292/292 291/291/291
f 295/295/295 294/294/294 293/293/293
f 293/293/293 296/296/296 295/295/295
f 299/299/299 298/298/298 297/297/297
f 297/297/297 300/300/300 299/299/299
f 303/303/303 302/302/302 301/301/301
f 301/301/301 304/304/304 303/303/303
f 307/307/307 306/306/306 305/305/305
f 305/305/305 308/308/308 307/307/307
f 311/311/311 310/310/310 309/309/309
f 309/309/309 312/312/312 311/311/311
f 315/315/315 314/314/314 313/313/313
f 313/313/313 316/316/316 315/315/315
f 319/319/319 318/318/318 317/317/317
f 317/317/317 320/320/320 319/319/319
f 323/323/323 322/322/322 321/321/321
f 321/321/321 324/324/324 323/323/323
f 327/327/327 326/326/326 325/325/325
f 325/325/325 328/328/328 327/327/327
f 331/331/331 330/330/330 329/329/329
f 329/329/329 332/332/332 331/331/331
f 335/335/335 334/334/334 333/333/333
f 333/333/333 336/336/336 335/335/335
f 339/339/339 338/338/338 337/337/337
f 337/337/337 340/340/340 339/339/339
f 343/343/343 342/342/342 341/341/341
f 341/341/341 344/344/344 343/343/343
f 347/347/347 346/346/346 345/345/345
f 345/345/345 348/348/348 347/347/347
f 351/351/351 350/350/350 349/349/349
f 349/349/349 352/352/352 351/351/351
f 355/355/355 354/354/354 353/353/353
f 353/353/353 356/356/356 355/355/355
f 359/359/359 358/358/358 357/357/357
f 357/357/357 360/360/360 359/359/359
f 363/363/363 362/362/362 361/361/361
f 361/361/361 364/364/364 363/363/363
f 367/367/367 366/366/366 365/365/365
f 365/365/365 368/368/368 367/367/367
f 371/371/371 370/370/370 369/369/369
f 369/369/369 372/372/372 371/371/371
f 375/375/375 374/374/374 373/373/373
f 373/373/373 376/376/376 375/375/375
f 379/379/379 378/378/378 377/377/377
f 377/377/377 380/380/380 379/379/379
f 383/383/383 382/382/382 381/381/381
f 381/381/381 384/384/384 383/383/383
f 387/387/387 386/386/386 385/385/385
f 385/385/385 388/388/388 387/387/387
f 391/391/391 390/390/390 389/389/389
f 389/389/389 392/392/392 391/391/391
f 395/395/395 394/394/394 393/393/393
f 393/393/393 396/396/396 395/395/395
f 399/399/399 398/398/398 397/397/397
f 397/397/397 400/400/400 399/399/399
f 403/403/403 402/402/402 401/401/401
f 401/401/401 404/404/404 403/403/403
f 407/407/407 406/406/406 405/405/405
f 405/405/405 408/408/408 407/407/407
f 411/411/411 410/410/410 409/409/409
f 409/409/409 412/412/412 411/411/411
f 415/415/415 414/414/414 413/413/413
f 413/413/413 416/416/416 415/415/415
f 419/419/419 418/418/418 417/417/417
f 417/417/417 420/420/420 419/419/419
f 423/423/423 422/422/422 421/421/421
f 421/421/421 424/424/424 423/423/423
f 427/427/427 426/426/426 425/425/425
f 425/425/425 428/428/428 427/427/427
f 431/431/431 430/430/430 429/429/429
f 429/429/429 432/432/432 431/431/431
f 435/435/435 434/434/434 433/433/433
f 433/433/433 436/436/436 435/435/435
f 439/439/439 438/438/438 437/437/437
f 437/437/437 440/440/440 439/439/439
f 443/443/443 442/442/442 441/441/441
f 441/441/441 444/444/444 443/443/443
f 447/447/447 446/446/446 445/445/445
f 445/445/445 448/448/448 447/447/447
f 451/451/451 450/450/450 449/449/449
f 449/449/449 452/452/452 451/451/451
f 455/455/455 454/454/454 453/453/453
f 453/453/453 456/456/456 455/455/455
f 459/459/459 458/458/458 457/457/457
f 457/457/457 460/460/460 459/459/459
f 463/463/463 462/462/462 461/461/461
f 461/461/461 464/464/464 463/463/463
f 467/467/467 466/466/466 465/465/465
f 465/465/465 468/468/468 467/467/467
f 471/471/471 470/470/470 469/469/469
f 469/469/469 472/472/472 471/471/471
f 475/475/475 474/474/474 473/473/473
f 473/473/473 476/476/476 475/475/475
f 479/479/479 478/478/478 477/477/477
f 477/477/477 480/480/480 479/479/479
f 483/483/483 482/482/482 481/481/481
f 481/481/481 484/484/484 483/483/483
f 487/487/487 486/486/486 485/485/485
f 485/485/485 488/488/488 487/487/487
f 491/491/491 490/490/490 489/489/489
f 489/489/489 492/492/492 491/491/491
f 495/495/495 494/494/494 493/493/493
f 493/493/493 496/496/496 495/495/495
f 499/499/499 498/498/498 497/497/497
f 497/497/497 500/500/500 499/499/499
f 503/503/503 502/502/502 501/501/501
f 501/501/501 504/504/504 503/503/503
f 507/507/507 506/506/506 505/505/505
f 505/505/505 508/508/508 507/507/507
f 511/511/511 510/510/510 509/509/509
f 509/509/509 512/512/512 511/511/511
f 515/515/515 514/514/514 513/513/513
f 513/513/513 516/516/516 515/515/515
f 519/519/519 518/518/518 517/517/517
f 517/517/517 520/520/520 519/519/519
f 523/523/523 522/522/522 521/521/521
f 521/521/521 524/524/524 523/523/523
f 527/527/527 526/526/526 525/525/525
f 525/525/525 528/528/528 527/527/527
f 531/531/531 530/530/530 529/529/529
f 529/529/529 532/532/532 531/531/531
f 535/535/535 534/534/534 533/533/533
f 533/533/533 536/536/536 535/535/535
f 539/539/539 538/538/538 537/537/537
f 537/537/537 540/540/540 539/539/539
f 543/543/543 542/542/542 541/541/541
f 541/541/541 544/544/544 543/543/543
f 547/547/547 546/546/546 545/545/545
f 545/545/545 548/548/548 547/547/547
f 551/551/551 550/550/550 549/549/549
f 549/549/549 552/552/552 551/551/551
f 555/555/555 554/554/554 553/553/553
f 553/553/553 556/556/556 555/555/555
f 559/559/559 558/558/558 557/557/557
f 557/557/557 560/560/560 559/559/559
f 563/563/563 562/562/562 561/561/561
f 561/561/561 564/564/564 563/563/563
f 567/567/567 566/566/566 565/565/565
f 565/565/565 568/568/568 567/567/567
f 571/571/571 570/570/570 569/569/569
f 569/569/569 572/572/572 571/571/571
f 575/575/575 574/574/574 573/573/573
f 573/573/573 576/576/576 575/575/575
f 579/579/579 578/578/578 577/577/577
f 577/577/577 580/580/580 579/579/579
f 583/583/583 582/582/582 581/581/581
f 581/581/581 584/584/584 583/583/583
f 587/587/587 586/586/586 585/585/585
f 585/585/585 588/588/588 587/587/587
f 591/591/591 590/590/590 589/589/589
f 589/589/589 592/592/592 591/591/591
f 595/595/595 594/594/594 593/593/593
f 593/593/593 596/596/596 595/595/595
f 599/599/599 598/598/598 597/597/597
f 597/597/597 600/600/600 599/599/599
f 603/603/603 602/602/602 601/601/601
f 601/601/601 604/604/604 603/603/603
f 607/607/607 606/606/606 605/605/605
f 605/605/605 608/608/608 607/607/607
f 611/611/611 610/610/610 609/609/609
f 609/609/609 612/612/612 611/611/611
f 615/615/615 614/614/614 613/613/613
f 613/613/613 616/616/616 615/615/615
f 619/619/619 618/618/618 617/617/617
f 617/617/617 620/620/620 619/619/619
f 623/623/623 622/622/622 621/621/621
f 621/621/621 624/624/624 623/623/623
