g xinnong_3-mesh
v -960 124 0
v -960 1500 0
v -1728 1500 0
v -1728 124 0
v -192 124 0
v -192 1500 0
v -960 1500 0
v -960 124 0
v -1728 668 0
v -1728 1212 0
v -1952 1212 0
v -1952 668 0
v -1728 156 0
v -1728 668 0
v -1952 668 0
v -1952 156 0
v -1056 1500 0
v -1056 1724 0
v -1440 1724 0
v -1440 1500 0
v -672 1500 0
v -672 1724 0
v -1056 1724 0
v -1056 1500 0
v -1056 28 0
v -1056 124 0
v -1664 124 0
v -1664 28 0
v -448 28 0
v -448 124 0
v -1056 124 0
v -1056 28 0
v -96 156 0
v -96 476 0
v -192 476 0
v -192 156 0
v -96 476 0
v -96 796 0
v -192 796 0
v -192 476 0
v -1952 764 0
v -1952 1148 0
v -2016 1148 0
v -2016 764 0
v -1952 412 0
v -1952 764 0
v -2016 764 0
v -2016 412 0
v -1440 1500 0
v -1440 1596 0
v -1664 1596 0
v -1664 1500 0
v -1760 60 0
v -1760 156 0
v -1952 156 0
v -1952 60 0
v -1728 1212 0
v -1728 1404 0
v -1824 1404 0
v -1824 1212 0
v -480 1500 0
v -480 1596 0
v -672 1596 0
v -672 1500 0
v -0 220 0
v -0 380 0
v -96 380 0
v -96 220 0
v -864 1724 0
v -864 1788 0
v -1088 1788 0
v -1088 1724 0
v -1088 1724 0
v -1088 1788 0
v -1280 1788 0
v -1280 1724 0
v -160 1116 0
v -160 1468 0
v -192 1468 0
v -192 1116 0
v -160 796 0
v -160 1116 0
v -192 1116 0
v -192 796 0
v -32 636 0
v -32 796 0
v -96 796 0
v -96 636 0
v -32 476 0
v -32 636 0
v -96 636 0
v -96 476 0
v -1952 188 0
v -1952 316 0
v -2016 316 0
v -2016 188 0
v -1440 1596 0
v -1440 1660 0
v -1568 1660 0
v -1568 1596 0
v -672 0 0
v -672 28 0
v -928 28 0
v -928 0 0
v -928 0 0
v -928 28 0
v -1184 28 0
v -1184 0 0
v -2016 764 0
v -2016 988 0
v -2047 988 0
v -2047 764 0
v -2016 540 0
v -2016 764 0
v -2047 764 0
v -2047 540 0
v -384 1500 0
v -384 1564 0
v -480 1564 0
v -480 1500 0
v -96 1372 0
v -96 1468 0
v -160 1468 0
v -160 1372 0
v -608 1596 0
v -608 1692 0
v -672 1692 0
v -672 1596 0
v -1824 1212 0
v -1824 1276 0
v -1920 1276 0
v -1920 1212 0
v -224 92 0
v -224 124 0
v -352 124 0
v -352 92 0
v -0 508 0
v -0 604 0
v -32 604 0
v -32 508 0
v -0 604 0
v -0 700 0
v -32 700 0
v -32 604 0
v -352 92 0
v -352 124 0
v -448 124 0
v -448 92 0
v -1664 1500 0
v -1664 1564 0
v -1696 1564 0
v -1696 1500 0
v -1824 1276 0
v -1824 1340 0
v -1856 1340 0
v -1856 1276 0
v -128 1084 0
v -128 1148 0
v -160 1148 0
v -160 1084 0
v -352 60 0
v -352 92 0
v -416 92 0
v -416 60 0
v -1440 1660 0
v -1440 1692 0
v -1504 1692 0
v -1504 1660 0
v -576 1596 0
v -576 1660 0
v -608 1660 0
v -608 1596 0
v -2016 156 0
v -2016 220 0
v -2047 220 0
v -2047 156 0
v -128 124 0
v -128 156 0
v -192 156 0
v -192 124 0
v -1952 28 0
v -1952 92 0
v -1984 92 0
v -1984 28 0
v -128 956 0
v -128 1020 0
v -160 1020 0
v -160 956 0
v -64 412 0
v -64 476 0
v -96 476 0
v -96 412 0
v -32 188 0
v -32 220 0
v -96 220 0
v -96 188 0
v -1952 348 0
v -1952 412 0
v -1984 412 0
v -1984 348 0
v -288 1500 0
v -288 1532 0
v -352 1532 0
v -352 1500 0
v -1728 1436 0
v -1728 1500 0
v -1760 1500 0
v -1760 1436 0
v -1280 1724 0
v -1280 1756 0
v -1344 1756 0
v -1344 1724 0
v -128 860 0
v -128 924 0
v -160 924 0
v -160 860 0
v -128 796 0
v -128 860 0
v -160 860 0
v -160 796 0
v -768 1724 0
v -768 1756 0
v -832 1756 0
v -832 1724 0
v -2016 444 0
v -2016 508 0
v -2047 508 0
v -2047 444 0
v -1696 1500 0
v -1696 1532 0
v -1728 1532 0
v -1728 1500 0
v -1920 28 0
v -1920 60 0
v -1952 60 0
v -1952 28 0
v -1568 1596 0
v -1568 1628 0
v -1600 1628 0
v -1600 1596 0
v -1760 1404 0
v -1760 1436 0
v -1792 1436 0
v -1792 1404 0
v -64 156 0
v -64 188 0
v -96 188 0
v -96 156 0
v -1984 156 0
v -1984 188 0
v -2016 188 0
v -2016 156 0
v -1824 28 0
v -1824 60 0
v -1856 60 0
v -1856 28 0
v -128 1340 0
v -128 1372 0
v -160 1372 0
v -160 1340 0
v -1728 1404 0
v -1728 1436 0
v -1760 1436 0
v -1760 1404 0
v -352 1500 0
v -352 1532 0
v -384 1532 0
v -384 1500 0
v -2016 412 0
v -2016 444 0
v -2047 444 0
v -2047 412 0
v -416 60 0
v -416 92 0
v -448 92 0
v -448 60 0
v -1952 316 0
v -1952 348 0
v -1984 348 0
v -1984 316 0
v -544 1596 0
v -544 1628 0
v -576 1628 0
v -576 1596 0
v -1344 1724 0
v -1344 1756 0
v -1376 1756 0
v -1376 1724 0
v -832 1724 0
v -832 1756 0
v -864 1756 0
v -864 1724 0
vt 0.00048828125 0.000619590282
vt 0.00048828125 0.853159845
vt 0.375488281 0.853159845
vt 0.375488281 0.000619590282
vt 0.376464844 0.000619590282
vt 0.376464844 0.853159845
vt 0.751464844 0.853159845
vt 0.751464844 0.000619590282
vt 0.752441406 0.000619590282
vt 0.752441406 0.337670386
vt 0.861816406 0.337670386
vt 0.861816406 0.000619590282
vt 0.862792969 0.000619590282
vt 0.862792969 0.317843854
vt 0.972167969 0.317843854
vt 0.972167969 0.000619590282
vt 0.752441406 0.338909566
vt 0.752441406 0.477695167
vt 0.939941406 0.477695167
vt 0.939941406 0.338909566
vt 0.752441406 0.478934348
vt 0.752441406 0.617719948
vt 0.939941406 0.617719948
vt 0.939941406 0.478934348
vt 0.00048828125 0.854399025
vt 0.00048828125 0.91387856
vt 0.297363281 0.91387856
vt 0.297363281 0.854399025
vt 0.298339844 0.854399025
vt 0.298339844 0.91387856
vt 0.595214844 0.91387856
vt 0.595214844 0.854399025
vt 0.940917969 0.319083035
vt 0.940917969 0.51734817
vt 0.987792969 0.51734817
vt 0.987792969 0.319083035
vt 0.940917969 0.518587351
vt 0.940917969 0.716852546
vt 0.987792969 0.716852546
vt 0.987792969 0.518587351
vt 0.752441406 0.618959069
vt 0.752441406 0.856877327
vt 0.783691406 0.856877327
vt 0.783691406 0.618959069
vt 0.784667969 0.618959069
vt 0.784667969 0.837050796
vt 0.815917969 0.837050796
vt 0.815917969 0.618959069
vt 0.816894531 0.618959069
vt 0.816894531 0.678438663
vt 0.926269531 0.678438663
vt 0.926269531 0.618959069
vt 0.816894531 0.679677844
vt 0.816894531 0.739157379
vt 0.910644531 0.739157379
vt 0.910644531 0.679677844
vt 0.940917969 0.718091726
vt 0.940917969 0.837050796
vt 0.987792969 0.837050796
vt 0.987792969 0.718091726
vt 0.816894531 0.7403965
vt 0.816894531 0.799876094
vt 0.910644531 0.799876094
vt 0.910644531 0.7403965
vt 0.816894531 0.801115274
vt 0.816894531 0.900247812
vt 0.863769531 0.900247812
vt 0.863769531 0.801115274
vt 0.596191406 0.854399025
vt 0.596191406 0.894052029
vt 0.705566406 0.894052029
vt 0.705566406 0.854399025
vt 0.596191406 0.895291209
vt 0.596191406 0.934944212
vt 0.689941406 0.934944212
vt 0.689941406 0.895291209
vt 0.911621094 0.679677844
vt 0.911621094 0.897769511
vt 0.927246094 0.897769511
vt 0.927246094 0.679677844
vt 0.864746094 0.801115274
vt 0.864746094 0.99938041
vt 0.880371094 0.99938041
vt 0.880371094 0.801115274
vt 0.784667969 0.838289976
vt 0.784667969 0.937422574
vt 0.815917969 0.937422574
vt 0.815917969 0.838289976
vt 0.940917969 0.838289976
vt 0.940917969 0.937422574
vt 0.972167969 0.937422574
vt 0.972167969 0.838289976
vt 0.706542969 0.854399025
vt 0.706542969 0.933705091
vt 0.737792969 0.933705091
vt 0.737792969 0.854399025
vt 0.00048828125 0.915117741
vt 0.00048828125 0.954770744
vt 0.0629882812 0.954770744
vt 0.0629882812 0.915117741
vt 0.0639648438 0.915117741
vt 0.0639648438 0.933085501
vt 0.188964844 0.933085501
vt 0.188964844 0.915117741
vt 0.189941406 0.915117741
vt 0.189941406 0.933085501
vt 0.314941406 0.933085501
vt 0.314941406 0.915117741
vt 0.881347656 0.801115274
vt 0.881347656 0.939900875
vt 0.896972656 0.939900875
vt 0.896972656 0.801115274
vt 0.973144531 0.838289976
vt 0.973144531 0.977075577
vt 0.988769531 0.977075577
vt 0.988769531 0.838289976
vt 0.816894531 0.901486993
vt 0.816894531 0.941140056
vt 0.863769531 0.941140056
vt 0.863769531 0.901486993
vt 0.752441406 0.858116508
vt 0.752441406 0.917596042
vt 0.783691406 0.917596042
vt 0.783691406 0.858116508
vt 0.315917969 0.915117741
vt 0.315917969 0.974597275
vt 0.347167969 0.974597275
vt 0.347167969 0.915117741
vt 0.348144531 0.915117741
vt 0.348144531 0.954770744
vt 0.395019531 0.954770744
vt 0.395019531 0.915117741
vt 0.395996094 0.915117741
vt 0.395996094 0.934944212
vt 0.458496094 0.934944212
vt 0.458496094 0.915117741
vt 0.911621094 0.899008691
vt 0.911621094 0.958488226
vt 0.927246094 0.958488226
vt 0.927246094 0.899008691
vt 0.459472656 0.915117741
vt 0.459472656 0.974597275
vt 0.475097656 0.974597275
vt 0.475097656 0.915117741
vt 0.476074219 0.915117741
vt 0.476074219 0.934944212
vt 0.522949219 0.934944212
vt 0.522949219 0.915117741
vt 0.523925781 0.915117741
vt 0.523925781 0.954770744
vt 0.539550781 0.954770744
vt 0.539550781 0.915117741
vt 0.540527344 0.915117741
vt 0.540527344 0.954770744
vt 0.556152344 0.954770744
vt 0.556152344 0.915117741
vt 0.557128906 0.915117741
vt 0.557128906 0.954770744
vt 0.572753906 0.954770744
vt 0.572753906 0.915117741
vt 0.752441406 0.918835163
vt 0.752441406 0.938661695
vt 0.783691406 0.938661695
vt 0.783691406 0.918835163
vt 0.0639648438 0.934324682
vt 0.0639648438 0.954151154
vt 0.0952148438 0.954151154
vt 0.0952148438 0.934324682
vt 0.573730469 0.915117741
vt 0.573730469 0.954770744
vt 0.589355469 0.954770744
vt 0.589355469 0.915117741
vt 0.0961914062 0.934324682
vt 0.0961914062 0.973977685
vt 0.111816406 0.973977685
vt 0.111816406 0.934324682
vt 0.112792969 0.934324682
vt 0.112792969 0.954151154
vt 0.144042969 0.954151154
vt 0.144042969 0.934324682
vt 0.145019531 0.934324682
vt 0.145019531 0.973977685
vt 0.160644531 0.973977685
vt 0.160644531 0.934324682
vt 0.161621094 0.934324682
vt 0.161621094 0.973977685
vt 0.177246094 0.973977685
vt 0.177246094 0.934324682
vt 0.178222656 0.934324682
vt 0.178222656 0.973977685
vt 0.193847656 0.973977685
vt 0.193847656 0.934324682
vt 0.194824219 0.934324682
vt 0.194824219 0.954151154
vt 0.226074219 0.954151154
vt 0.226074219 0.934324682
vt 0.227050781 0.934324682
vt 0.227050781 0.973977685
vt 0.242675781 0.973977685
vt 0.242675781 0.934324682
vt 0.243652344 0.934324682
vt 0.243652344 0.954151154
vt 0.274902344 0.954151154
vt 0.274902344 0.934324682
vt 0.275878906 0.934324682
vt 0.275878906 0.973977685
vt 0.291503906 0.973977685
vt 0.291503906 0.934324682
vt 0.706542969 0.934944212
vt 0.706542969 0.954770744
vt 0.737792969 0.954770744
vt 0.737792969 0.934944212
vt 0.292480469 0.934324682
vt 0.292480469 0.973977685
vt 0.308105469 0.973977685
vt 0.308105469 0.934324682
vt 0.395996094 0.936183393
vt 0.395996094 0.975836456
vt 0.411621094 0.975836456
vt 0.411621094 0.936183393
vt 0.412597656 0.936183393
vt 0.412597656 0.956009924
vt 0.443847656 0.956009924
vt 0.443847656 0.936183393
vt 0.476074219 0.936183393
vt 0.476074219 0.975836456
vt 0.491699219 0.975836456
vt 0.491699219 0.936183393
vt 0.492675781 0.936183393
vt 0.492675781 0.956009924
vt 0.508300781 0.956009924
vt 0.508300781 0.936183393
vt 0.596191406 0.936183393
vt 0.596191406 0.956009924
vt 0.611816406 0.956009924
vt 0.611816406 0.936183393
vt 0.612792969 0.936183393
vt 0.612792969 0.956009924
vt 0.628417969 0.956009924
vt 0.628417969 0.936183393
vt 0.629394531 0.936183393
vt 0.629394531 0.956009924
vt 0.645019531 0.956009924
vt 0.645019531 0.936183393
vt 0.645996094 0.936183393
vt 0.645996094 0.956009924
vt 0.661621094 0.956009924
vt 0.661621094 0.936183393
vt 0.662597656 0.936183393
vt 0.662597656 0.956009924
vt 0.678222656 0.956009924
vt 0.678222656 0.936183393
vt 0.679199219 0.936183393
vt 0.679199219 0.956009924
vt 0.694824219 0.956009924
vt 0.694824219 0.936183393
vt 0.784667969 0.938661695
vt 0.784667969 0.958488226
vt 0.800292969 0.958488226
vt 0.800292969 0.938661695
vt 0.940917969 0.938661695
vt 0.940917969 0.958488226
vt 0.956542969 0.958488226
vt 0.956542969 0.938661695
vt 0.752441406 0.939900875
vt 0.752441406 0.959727407
vt 0.768066406 0.959727407
vt 0.768066406 0.939900875
vt 0.881347656 0.941140056
vt 0.881347656 0.960966527
vt 0.896972656 0.960966527
vt 0.896972656 0.941140056
vt 0.816894531 0.942379177
vt 0.816894531 0.962205708
vt 0.832519531 0.962205708
vt 0.832519531 0.942379177
vt 0.833496094 0.942379177
vt 0.833496094 0.962205708
vt 0.849121094 0.962205708
vt 0.849121094 0.942379177
vt 0.0639648438 0.955390334
vt 0.0639648438 0.975216866
vt 0.0795898438 0.975216866
vt 0.0795898438 0.955390334
vt 0.112792969 0.955390334
vt 0.112792969 0.975216866
vt 0.128417969 0.975216866
vt 0.128417969 0.955390334
vt 0.194824219 0.955390334
vt 0.194824219 0.975216866
vt 0.210449219 0.975216866
vt 0.210449219 0.955390334
g xinnong_3-mesh_0
f 3/3/3 2/2/2 1/1/1
f 1/1/1 4/4/4 3/3/3
f 7/7/7 6/6/6 5/5/5
f 5/5/5 8/8/8 7/7/7
f 11/11/11 10/10/10 9/9/9
f 9/9/9 12/12/12 11/11/11
f 15/15/15 14/14/14 13/13/13
f 13/13/13 16/16/16 15/15/15
f 19/19/19 18/18/18 17/17/17
f 17/17/17 20/20/20 19/19/19
f 23/23/23 22/22/22 21/21/21
f 21/21/21 24/24/24 23/23/23
f 27/27/27 26/26/26 25/25/25
f 25/25/25 28/28/28 27/27/27
f 31/31/31 30/30/30 29/29/29
f 29/29/29 32/32/32 31/31/31
f 35/35/35 34/34/34 33/33/33
f 33/33/33 36/36/36 35/35/35
f 39/39/39 38/38/38 37/37/37
f 37/37/37 40/40/40 39/39/39
f 43/43/43 42/42/42 41/41/41
f 41/41/41 44/44/44 43/43/43
f 47/47/47 46/46/46 45/45/45
f 45/45/45 48/48/48 47/47/47
f 51/51/51 50/50/50 49/49/49
f 49/49/49 52/52/52 51/51/51
f 55/55/55 54/54/54 53/53/53
f 53/53/53 56/56/56 55/55/55
f 59/59/59 58/58/58 57/57/57
f 57/57/57 60/60/60 59/59/59
f 63/63/63 62/62/62 61/61/61
f 61/61/61 64/64/64 63/63/63
f 67/67/67 66/66/66 65/65/65
f 65/65/65 68/68/68 67/67/67
f 71/71/71 70/70/70 69/69/69
f 69/69/69 72/72/72 71/71/71
f 75/75/75 74/74/74 73/73/73
f 73/73/73 76/76/76 75/75/75
f 79/79/79 78/78/78 77/77/77
f 77/77/77 80/80/80 79/79/79
f 83/83/83 82/82/82 81/81/81
f 81/81/81 84/84/84 83/83/83
f 87/87/87 86/86/86 85/85/85
f 85/85/85 88/88/88 87/87/87
f 91/91/91 90/90/90 89/89/89
f 89/89/89 92/92/92 91/91/91
f 95/95/95 94/94/94 93/93/93
f 93/93/93 96/96/96 95/95/95
f 99/99/99 98/98/98 97/97/97
f 97/97/97 100/100/100 99/99/99
f 103/103/103 102/102/102 101/101/101
f 101/101/101 104/104/104 103/103/103
f 107/107/107 106/106/106 105/105/105
f 105/105/105 108/108/108 107/107/107
f 111/111/111 110/110/110 109/109/109
f 109/109/109 112/112/112 111/111/111
f 115/115/115 114/114/114 113/113/113
f 113/113/113 116/116/116 115/115/115
f 119/119/119 118/118/118 117/117/117
f 117/117/117 120/120/120 119/119/119
f 123/123/123 122/122/122 121/121/121
f 121/121/121 124/124/124 123/123/123
f 127/127/127 126/126/126 125/125/125
f 125/125/125 128/128/128 127/127/127
f 131/131/131 130/130/130 129/129/129
f 129/129/129 132/132/132 131/131/131
f 135/135/135 134/134/134 133/133/133
f 133/133/133 136/136/136 135/135/135
f 139/139/139 138/138/138 137/137/137
f 137/137/137 140/140/140 139/139/139
f 143/143/143 142/142/142 141/141/141
f 141/141/141 144/144/144 143/143/143
f 147/147/147 146/146/146 145/145/145
f 145/145/145 148/148/148 147/147/147
f 151/151/151 150/150/150 149/149/149
f 149/149/149 152/152/152 151/151/151
f 155/155/155 154/154/154 153/153/153
f 153/153/153 156/156/156 155/155/155
f 159/159/159 158/158/158 157/157/157
f 157/157/157 160/160/160 159/159/159
f 163/163/163 162/162/162 161/161/161
f 161/161/161 164/164/164 163/163/163
f 167/167/167 166/166/166 165/165/165
f 165/165/165 168/168/168 167/167/167
f 171/171/171 170/170/170 169/169/169
f 169/169/169 172/172/172 171/171/171
f 175/175/175 174/174/174 173/173/173
f 173/173/173 176/176/176 175/175/175
f 179/179/179 178/178/178 177/177/177
f 177/177/177 180/180/180 179/179/179
f 183/183/183 182/182/182 181/181/181
f 181/181/181 184/184/184 183/183/183
f 187/187/187 186/186/186 185/185/185
f 185/185/185 188/188/188 187/187/187
f 191/191/191 190/190/190 189/189/189
f 189/189/189 192/192/192 191/191/191
f 195/195/195 194/194/194 193/193/193
f 193/193/193 196/196/196 195/195/195
f 199/199/199 198/198/198 197/197/197
f 197/197/197 200/200/200 199/199/199
f 203/203/203 202/202/202 201/201/201
f 201/201/201 204/204/204 203/203/203
f 207/207/207 206/206/206 205/205/205
f 205/205/205 208/208/208 207/207/207
f 211/211/211 210/210/210 209/209/209
f 209/209/209 212/212/212 211/211/211
f 215/215/215 214/214/214 213/213/213
f 213/213/213 216/216/216 215/215/215
f 219/219/219 218/218/218 217/217/217
f 217/217/217 220/220/220 219/219/219
f 223/223/223 222/222/222 221/221/221
f 221/221/221 224/224/224 223/223/223
f 227/227/227 226/226/226 225/225/225
f 225/225/225 228/228/228 227/227/227
f 231/231/231 230/230/230 229/229/229
f 229/229/229 232/232/232 231/231/231
f 235/235/235 234/234/234 233/233/233
f 233/233/233 236/236/236 235/235/235
f 239/239/239 238/238/238 237/237/237
f 237/237/237 240/240/240 239/239/239
f 243/243/243 242/242/242 241/241/241
f 241/241/241 244/244/244 243/243/243
f 247/247/247 246/246/246 245/245/245
f 245/245/245 248/248/248 247/247/247
f 251/251/251 250/250/250 249/249/249
f 249/249/249 252/252/252 251/251/251
f 255/255/255 254/254/254 253/253/253
f 253/253/253 256/256/256 255/255/255
f 259/259/259 258/258/258 257/257/257
f 257/257/257 260/260/260 259/259/259
f 263/263/263 262/262/262 261/261/261
f 261/261/261 264/264/264 263/263/263
f 267/267/267 266/266/266 265/265/265
f 265/265/265 268/268/268 267/267/267
f 271/271/271 270/270/270 269/269/269
f 269/269/269 272/272/272 271/271/271
f 275/275/275 274/274/274 273/273/273
f 273/273/273 276/276/276 275/275/275
f 279/279/279 278/278/278 277/277/277
f 277/277/277 280/280/280 279/279/279
f 283/283/283 282/282/282 281/281/281
f 281/281/281 284/284/284 283/283/283
f 287/287/287 286/286/286 285/285/285
f 285/285/285 288/288/288 287/287/287
f 291/291/291 290/290/290 289/289/289
f 289/289/289 292/292/292 291/291/291
