g ougen_8_bj-mesh
v -1760 0 0
v -1760 285 0
v -2047 285 0
v -2047 0 0
v -1504 573 0
v -1504 829 0
v -1728 829 0
v -1728 573 0
v -1632 0 0
v -1632 157 0
v -1760 157 0
v -1760 0 0
v -800 29 0
v -800 189 0
v -928 189 0
v -928 29 0
v -800 189 0
v -800 349 0
v -928 349 0
v -928 189 0
v -1568 829 0
v -1568 925 0
v -1760 925 0
v -1760 829 0
v -1888 285 0
v -1888 381 0
v -2047 381 0
v -2047 285 0
v -1568 509 0
v -1568 573 0
v -1696 573 0
v -1696 509 0
v -992 189 0
v -992 253 0
v -1120 253 0
v -1120 189 0
v -736 0 0
v -736 125 0
v -800 125 0
v -800 0 0
v -928 0 0
v -928 125 0
v -992 125 0
v -992 0 0
v -928 125 0
v -928 253 0
v -992 253 0
v -992 125 0
v -1760 765 0
v -1760 893 0
v -1824 893 0
v -1824 765 0
v -1568 0 0
v -1568 93 0
v -1632 93 0
v -1632 0 0
v -1984 381 0
v -1984 445 0
v -2047 445 0
v -2047 381 0
v -736 253 0
v -736 317 0
v -800 317 0
v -800 253 0
v -1696 157 0
v -1696 221 0
v -1760 221 0
v -1760 157 0
v -1728 573 0
v -1728 637 0
v -1792 637 0
v -1792 573 0
v -1696 541 0
v -1696 573 0
v -1760 573 0
v -1760 541 0
v -1824 829 0
v -1824 893 0
v -1856 893 0
v -1856 829 0
v -1792 285 0
v -1792 317 0
v -1856 317 0
v -1856 285 0
v -1536 0 0
v -1536 61 0
v -1568 61 0
v -1568 0 0
v -1024 125 0
v -1024 189 0
v -1056 189 0
v -1056 125 0
v -768 189 0
v -768 253 0
v -800 253 0
v -800 189 0
v -992 61 0
v -992 125 0
v -1024 125 0
v -1024 61 0
v -992 125 0
v -992 189 0
v -1024 189 0
v -1024 125 0
v -1472 669 0
v -1472 733 0
v -1504 733 0
v -1504 669 0
v -1472 605 0
v -1472 669 0
v -1504 669 0
v -1504 605 0
v -1728 765 0
v -1728 829 0
v -1760 829 0
v -1760 765 0
v -1024 253 0
v -1024 285 0
v -1056 285 0
v -1056 253 0
v -1728 221 0
v -1728 253 0
v -1760 253 0
v -1760 221 0
v -1184 317 0
v -1184 349 0
v -1216 349 0
v -1216 317 0
v -1856 317 0
v -1856 349 0
v -1888 349 0
v -1888 317 0
v -1056 157 0
v -1056 189 0
v -1088 189 0
v -1088 157 0
v -800 0 0
v -800 29 0
v -832 29 0
v -832 0 0
v -1056 29 0
v -1056 61 0
v -1088 61 0
v -1088 29 0
v -1664 157 0
v -1664 189 0
v -1696 189 0
v -1696 157 0
v -1600 93 0
v -1600 125 0
v -1632 125 0
v -1632 93 0
v -1600 925 0
v -1600 957 0
v -1632 957 0
v -1632 925 0
v -1536 829 0
v -1536 861 0
v -1568 861 0
v -1568 829 0
v -1728 733 0
v -1728 765 0
v -1760 765 0
v -1760 733 0
v -1856 285 0
v -1856 317 0
v -1888 317 0
v -1888 285 0
v -1792 733 0
v -1792 765 0
v -1824 765 0
v -1824 733 0
v -1952 381 0
v -1952 413 0
v -1984 413 0
v -1984 381 0
v -864 349 0
v -864 381 0
v -896 381 0
v -896 349 0
v -1280 701 0
v -1280 733 0
v -1312 733 0
v -1312 701 0
v -1440 669 0
v -1440 701 0
v -1472 701 0
v -1472 669 0
vt 0.0009765625 0.00253808498
vt 0.0009765625 0.728426397
vt 0.282226562 0.728426397
vt 0.282226562 0.00253808498
vt 0.284179688 0.00253808498
vt 0.284179688 0.652284265
vt 0.502929688 0.652284265
vt 0.502929688 0.00253808498
vt 0.504882812 0.00253808498
vt 0.504882812 0.403553307
vt 0.629882812 0.403553307
vt 0.629882812 0.00253808498
vt 0.631835938 0.00253808498
vt 0.631835938 0.408629417
vt 0.756835938 0.408629417
vt 0.756835938 0.00253808498
vt 0.758789062 0.00253808498
vt 0.758789062 0.408629417
vt 0.883789062 0.408629417
vt 0.883789062 0.00253808498
vt 0.631835938 0.413705587
vt 0.631835938 0.657360435
vt 0.819335938 0.657360435
vt 0.819335938 0.413705587
vt 0.821289062 0.413705587
vt 0.821289062 0.657360435
vt 0.977539062 0.657360435
vt 0.977539062 0.413705587
vt 0.504882812 0.408629417
vt 0.504882812 0.571066022
vt 0.629882812 0.571066022
vt 0.629882812 0.408629417
vt 0.504882812 0.576142132
vt 0.504882812 0.738578677
vt 0.629882812 0.738578677
vt 0.629882812 0.576142132
vt 0.284179688 0.657360435
vt 0.284179688 0.977157354
vt 0.346679688 0.977157354
vt 0.346679688 0.657360435
vt 0.348632812 0.657360435
vt 0.348632812 0.977157354
vt 0.411132812 0.977157354
vt 0.411132812 0.657360435
vt 0.413085938 0.657360435
vt 0.413085938 0.982233524
vt 0.475585938 0.982233524
vt 0.475585938 0.657360435
vt 0.631835938 0.662436545
vt 0.631835938 0.987309635
vt 0.694335938 0.987309635
vt 0.694335938 0.662436545
vt 0.696289062 0.662436545
vt 0.696289062 0.901015222
vt 0.758789062 0.901015222
vt 0.758789062 0.662436545
vt 0.760742188 0.662436545
vt 0.760742188 0.82487309
vt 0.823242188 0.82487309
vt 0.823242188 0.662436545
vt 0.825195312 0.662436545
vt 0.825195312 0.82487309
vt 0.887695312 0.82487309
vt 0.887695312 0.662436545
vt 0.889648438 0.662436545
vt 0.889648438 0.82487309
vt 0.952148438 0.82487309
vt 0.952148438 0.662436545
vt 0.0009765625 0.733502507
vt 0.0009765625 0.895939112
vt 0.0634765625 0.895939112
vt 0.0634765625 0.733502507
vt 0.0654296875 0.733502507
vt 0.0654296875 0.814720809
vt 0.127929688 0.814720809
vt 0.127929688 0.733502507
vt 0.954101562 0.662436545
vt 0.954101562 0.82487309
vt 0.985351562 0.82487309
vt 0.985351562 0.662436545
vt 0.129882812 0.733502507
vt 0.129882812 0.814720809
vt 0.192382812 0.814720809
vt 0.192382812 0.733502507
vt 0.194335938 0.733502507
vt 0.194335938 0.890862942
vt 0.225585938 0.890862942
vt 0.225585938 0.733502507
vt 0.227539062 0.733502507
vt 0.227539062 0.895939112
vt 0.258789062 0.895939112
vt 0.258789062 0.733502507
vt 0.504882812 0.743654847
vt 0.504882812 0.906091392
vt 0.536132812 0.906091392
vt 0.536132812 0.743654847
vt 0.538085938 0.743654847
vt 0.538085938 0.906091392
vt 0.569335938 0.906091392
vt 0.569335938 0.743654847
vt 0.571289062 0.743654847
vt 0.571289062 0.906091392
vt 0.602539062 0.906091392
vt 0.602539062 0.743654847
vt 0.0654296875 0.81979692
vt 0.0654296875 0.982233524
vt 0.0966796875 0.982233524
vt 0.0966796875 0.81979692
vt 0.0986328125 0.81979692
vt 0.0986328125 0.982233524
vt 0.129882812 0.982233524
vt 0.129882812 0.81979692
vt 0.131835938 0.81979692
vt 0.131835938 0.982233524
vt 0.163085938 0.982233524
vt 0.163085938 0.81979692
vt 0.760742188 0.82994926
vt 0.760742188 0.911167502
vt 0.791992188 0.911167502
vt 0.791992188 0.82994926
vt 0.793945312 0.82994926
vt 0.793945312 0.911167502
vt 0.825195312 0.911167502
vt 0.825195312 0.82994926
vt 0.827148438 0.82994926
vt 0.827148438 0.911167502
vt 0.858398438 0.911167502
vt 0.858398438 0.82994926
vt 0.860351562 0.82994926
vt 0.860351562 0.911167502
vt 0.891601562 0.911167502
vt 0.891601562 0.82994926
vt 0.893554688 0.82994926
vt 0.893554688 0.911167502
vt 0.924804688 0.911167502
vt 0.924804688 0.82994926
vt 0.926757812 0.82994926
vt 0.926757812 0.906091392
vt 0.958007812 0.906091392
vt 0.958007812 0.82994926
vt 0.959960938 0.82994926
vt 0.959960938 0.911167502
vt 0.991210938 0.911167502
vt 0.991210938 0.82994926
vt 0.194335938 0.895939112
vt 0.194335938 0.977157354
vt 0.225585938 0.977157354
vt 0.225585938 0.895939112
vt 0.0009765625 0.901015222
vt 0.0009765625 0.982233524
vt 0.0322265625 0.982233524
vt 0.0322265625 0.901015222
vt 0.227539062 0.901015222
vt 0.227539062 0.982233524
vt 0.258789062 0.982233524
vt 0.258789062 0.901015222
vt 0.696289062 0.906091392
vt 0.696289062 0.987309635
vt 0.727539062 0.987309635
vt 0.727539062 0.906091392
vt 0.504882812 0.911167502
vt 0.504882812 0.992385805
vt 0.536132812 0.992385805
vt 0.536132812 0.911167502
vt 0.538085938 0.911167502
vt 0.538085938 0.992385805
vt 0.569335938 0.992385805
vt 0.569335938 0.911167502
vt 0.571289062 0.911167502
vt 0.571289062 0.992385805
vt 0.602539062 0.992385805
vt 0.602539062 0.911167502
vt 0.926757812 0.911167502
vt 0.926757812 0.992385805
vt 0.958007812 0.992385805
vt 0.958007812 0.911167502
vt 0.760742188 0.916243672
vt 0.760742188 0.997461915
vt 0.791992188 0.997461915
vt 0.791992188 0.916243672
vt 0.793945312 0.916243672
vt 0.793945312 0.997461915
vt 0.825195312 0.997461915
vt 0.825195312 0.916243672
vt 0.827148438 0.916243672
vt 0.827148438 0.997461915
vt 0.858398438 0.997461915
vt 0.858398438 0.916243672
g ougen_8_bj-mesh_0
f 3/3/3 2/2/2 1/1/1
f 1/1/1 4/4/4 3/3/3
f 7/7/7 6/6/6 5/5/5
f 5/5/5 8/8/8 7/7/7
f 11/11/11 10/10/10 9/9/9
f 9/9/9 12/12/12 11/11/11
f 15/15/15 14/14/14 13/13/13
f 13/13/13 16/16/16 15/15/15
f 19/19/19 18/18/18 17/17/17
f 17/17/17 20/20/20 19/19/19
f 23/23/23 22/22/22 21/21/21
f 21/21/21 24/24/24 23/23/23
f 27/27/27 26/26/26 25/25/25
f 25/25/25 28/28/28 27/27/27
f 31/31/31 30/30/30 29/29/29
f 29/29/29 32/32/32 31/31/31
f 35/35/35 34/34/34 33/33/33
f 33/33/33 36/36/36 35/35/35
f 39/39/39 38/38/38 37/37/37
f 37/37/37 40/40/40 39/39/39
f 43/43/43 42/42/42 41/41/41
f 41/41/41 44/44/44 43/43/43
f 47/47/47 46/46/46 45/45/45
f 45/45/45 48/48/48 47/47/47
f 51/51/51 50/50/50 49/49/49
f 49/49/49 52/52/52 51/51/51
f 55/55/55 54/54/54 53/53/53
f 53/53/53 56/56/56 55/55/55
f 59/59/59 58/58/58 57/57/57
f 57/57/57 60/60/60 59/59/59
f 63/63/63 62/62/62 61/61/61
f 61/61/61 64/64/64 63/63/63
f 67/67/67 66/66/66 65/65/65
f 65/65/65 68/68/68 67/67/67
f 71/71/71 70/70/70 69/69/69
f 69/69/69 72/72/72 71/71/71
f 75/75/75 74/74/74 73/73/73
f 73/73/73 76/76/76 75/75/75
f 79/79/79 78/78/78 77/77/77
f 77/77/77 80/80/80 79/79/79
f 83/83/83 82/82/82 81/81/81
f 81/81/81 84/84/84 83/83/83
f 87/87/87 86/86/86 85/85/85
f 85/85/85 88/88/88 87/87/87
f 91/91/91 90/90/90 89/89/89
f 89/89/89 92/92/92 91/91/91
f 95/95/95 94/94/94 93/93/93
f 93/93/93 96/96/96 95/95/95
f 99/99/99 98/98/98 97/97/97
f 97/97/97 100/100/100 99/99/99
f 103/103/103 102/102/102 101/101/101
f 101/101/101 104/104/104 103/103/103
f 107/107/107 106/106/106 105/105/105
f 105/105/105 108/108/108 107/107/107
f 111/111/111 110/110/110 109/109/109
f 109/109/109 112/112/112 111/111/111
f 115/115/115 114/114/114 113/113/113
f 113/113/113 116/116/116 115/115/115
f 119/119/119 118/118/118 117/117/117
f 117/117/117 120/120/120 119/119/119
f 123/123/123 122/122/122 121/121/121
f 121/121/121 124/124/124 123/123/123
f 127/127/127 126/126/126 125/125/125
f 125/125/125 128/128/128 127/127/127
f 131/131/131 130/130/130 129/129/129
f 129/129/129 132/132/132 131/131/131
f 135/135/135 134/134/134 133/133/133
f 133/133/133 136/136/136 135/135/135
f 139/139/139 138/138/138 137/137/137
f 137/137/137 140/140/140 139/139/139
f 143/143/143 142/142/142 141/141/141
f 141/141/141 144/144/144 143/143/143
f 147/147/147 146/146/146 145/145/145
f 145/145/145 148/148/148 147/147/147
f 151/151/151 150/150/150 149/149/149
f 149/149/149 152/152/152 151/151/151
f 155/155/155 154/154/154 153/153/153
f 153/153/153 156/156/156 155/155/155
f 159/159/159 158/158/158 157/157/157
f 157/157/157 160/160/160 159/159/159
f 163/163/163 162/162/162 161/161/161
f 161/161/161 164/164/164 163/163/163
f 167/167/167 166/166/166 165/165/165
f 165/165/165 168/168/168 167/167/167
f 171/171/171 170/170/170 169/169/169
f 169/169/169 172/172/172 171/171/171
f 175/175/175 174/174/174 173/173/173
f 173/173/173 176/176/176 175/175/175
f 179/179/179 178/178/178 177/177/177
f 177/177/177 180/180/180 179/179/179
f 183/183/183 182/182/182 181/181/181
f 181/181/181 184/184/184 183/183/183
f 187/187/187 186/186/186 185/185/185
f 185/185/185 188/188/188 187/187/187
