g kuersike_2-mesh
v -1056 210 0
v -1056 1682 0
v -1824 1682 0
v -1824 210 0
v -288 210 0
v -288 1682 0
v -1056 1682 0
v -1056 210 0
v -736 1682 0
v -736 1810 0
v -1408 1810 0
v -1408 1682 0
v -1408 1682 0
v -1408 1810 0
v -2047 1810 0
v -2047 1682 0
v -64 754 0
v -64 1042 0
v -288 1042 0
v -288 754 0
v -64 498 0
v -64 754 0
v -288 754 0
v -288 498 0
v -1824 338 0
v -1824 1010 0
v -1888 1010 0
v -1888 338 0
v -1824 1010 0
v -1824 1682 0
v -1888 1682 0
v -1888 1010 0
v -1472 82 0
v -1472 210 0
v -1792 210 0
v -1792 82 0
v -1152 82 0
v -1152 210 0
v -1472 210 0
v -1472 82 0
v -1888 1106 0
v -1888 1682 0
v -1952 1682 0
v -1952 1106 0
v -1888 530 0
v -1888 1106 0
v -1952 1106 0
v -1952 530 0
v -896 1810 0
v -896 1842 0
v -1376 1842 0
v -1376 1810 0
v -1952 1522 0
v -1952 1682 0
v -2047 1682 0
v -2047 1522 0
v -192 338 0
v -192 498 0
v -288 498 0
v -288 338 0
v -192 178 0
v -192 338 0
v -288 338 0
v -288 178 0
v -224 1234 0
v -224 1458 0
v -288 1458 0
v -288 1234 0
v -1376 1810 0
v -1376 1842 0
v -1824 1842 0
v -1824 1810 0
v -224 1042 0
v -224 1234 0
v -288 1234 0
v -288 1042 0
v -1952 1394 0
v -1952 1522 0
v -2047 1522 0
v -2047 1394 0
v -800 178 0
v -800 210 0
v -1152 210 0
v -1152 178 0
v -448 178 0
v -448 210 0
v -800 210 0
v -800 178 0
v -1504 18 0
v -1504 82 0
v -1632 82 0
v -1632 18 0
v -1632 18 0
v -1632 82 0
v -1760 82 0
v -1760 18 0
v -480 1682 0
v -480 1746 0
v -608 1746 0
v -608 1682 0
v -608 1682 0
v -608 1746 0
v -736 1746 0
v -736 1682 0
v -128 1042 0
v -128 1106 0
v -224 1106 0
v -224 1042 0
v -1056 114 0
v -1056 178 0
v -1152 178 0
v -1152 114 0
v -960 114 0
v -960 178 0
v -1056 178 0
v -1056 114 0
v -1952 1234 0
v -1952 1394 0
v -1984 1394 0
v -1984 1234 0
v -1952 914 0
v -1952 978 0
v -2016 978 0
v -2016 914 0
v -0 946 0
v -0 1010 0
v -64 1010 0
v -64 946 0
v -1952 1106 0
v -1952 1234 0
v -1984 1234 0
v -1984 1106 0
v -256 1554 0
v -256 1682 0
v -288 1682 0
v -288 1554 0
v -128 402 0
v -128 466 0
v -192 466 0
v -192 402 0
v -1408 50 0
v -1408 82 0
v -1504 82 0
v -1504 50 0
v -800 146 0
v -800 178 0
v -896 178 0
v -896 146 0
v -1600 0 0
v -1600 18 0
v -1696 18 0
v -1696 0 0
v -96 242 0
v -96 338 0
v -128 338 0
v -128 242 0
v -256 1458 0
v -256 1554 0
v -288 1554 0
v -288 1458 0
v -96 338 0
v -96 434 0
v -128 434 0
v -128 338 0
v -128 178 0
v -128 274 0
v -160 274 0
v -160 178 0
v -1312 50 0
v -1312 82 0
v -1408 82 0
v -1408 50 0
v -128 82 0
v -128 178 0
v -160 178 0
v -160 82 0
v -160 0 0
v -160 50 0
v -192 50 0
v -192 0 0
v -192 1138 0
v -192 1202 0
v -224 1202 0
v -224 1138 0
v -2016 274 0
v -2016 338 0
v -2047 338 0
v -2047 274 0
v -160 50 0
v -160 114 0
v -192 114 0
v -192 50 0
v -224 1554 0
v -224 1618 0
v -256 1618 0
v -256 1554 0
v -32 786 0
v -32 850 0
v -64 850 0
v -64 786 0
v -1952 338 0
v -1952 402 0
v -1984 402 0
v -1984 338 0
v -1952 818 0
v -1952 882 0
v -1984 882 0
v -1984 818 0
v -1888 402 0
v -1888 434 0
v -1952 434 0
v -1952 402 0
v -1984 306 0
v -1984 370 0
v -2016 370 0
v -2016 306 0
v -992 1842 0
v -992 1874 0
v -1056 1874 0
v -1056 1842 0
v -1152 1842 0
v -1152 1874 0
v -1216 1874 0
v -1216 1842 0
v -1216 1842 0
v -1216 1874 0
v -1280 1874 0
v -1280 1842 0
v -896 146 0
v -896 178 0
v -960 178 0
v -960 146 0
v -1696 0 0
v -1696 18 0
v -1760 18 0
v -1760 0 0
v -928 1842 0
v -928 1874 0
v -992 1874 0
v -992 1842 0
v -608 1746 0
v -608 1778 0
v -672 1778 0
v -672 1746 0
v -672 1746 0
v -672 1778 0
v -736 1778 0
v -736 1746 0
v -416 1682 0
v -416 1714 0
v -480 1714 0
v -480 1682 0
v -352 1682 0
v -352 1714 0
v -416 1714 0
v -416 1682 0
v -1984 1330 0
v -1984 1394 0
v -2016 1394 0
v -2016 1330 0
v -1984 1266 0
v -1984 1330 0
v -2016 1330 0
v -2016 1266 0
v -32 1010 0
v -32 1042 0
v -64 1042 0
v -64 1010 0
v -1824 306 0
v -1824 338 0
v -1856 338 0
v -1856 306 0
v -1888 370 0
v -1888 402 0
v -1920 402 0
v -1920 370 0
v -160 466 0
v -160 498 0
v -192 498 0
v -192 466 0
v -1920 434 0
v -1920 466 0
v -1952 466 0
v -1952 434 0
v -96 1042 0
v -96 1074 0
v -128 1074 0
v -128 1042 0
v -1952 786 0
v -1952 818 0
v -1984 818 0
v -1984 786 0
v -192 1106 0
v -192 1138 0
v -224 1138 0
v -224 1106 0
v -1952 402 0
v -1952 434 0
v -1984 434 0
v -1984 402 0
v -1824 1842 0
v -1824 1874 0
v -1856 1874 0
v -1856 1842 0
v -2016 242 0
v -2016 274 0
v -2047 274 0
v -2047 242 0
vt 0.00048828125 0.000575363636
vt 0.00048828125 0.847525895
vt 0.375488281 0.847525895
vt 0.375488281 0.000575363636
vt 0.376464844 0.000575363636
vt 0.376464844 0.847525895
vt 0.751464844 0.847525895
vt 0.751464844 0.000575363636
vt 0.00048828125 0.848676622
vt 0.00048828125 0.922324538
vt 0.328613281 0.922324538
vt 0.328613281 0.848676622
vt 0.329589844 0.848676622
vt 0.329589844 0.922324538
vt 0.642089844 0.922324538
vt 0.642089844 0.848676622
vt 0.752441406 0.000575363636
vt 0.752441406 0.166283071
vt 0.861816406 0.166283071
vt 0.861816406 0.000575363636
vt 0.862792969 0.000575363636
vt 0.862792969 0.147871137
vt 0.972167969 0.147871137
vt 0.972167969 0.000575363636
vt 0.862792969 0.149021864
vt 0.862792969 0.535673201
vt 0.894042969 0.535673201
vt 0.894042969 0.149021864
vt 0.895019531 0.149021864
vt 0.895019531 0.535673201
vt 0.926269531 0.535673201
vt 0.926269531 0.149021864
vt 0.643066406 0.848676622
vt 0.643066406 0.922324538
vt 0.799316406 0.922324538
vt 0.799316406 0.848676622
vt 0.00048828125 0.923475266
vt 0.00048828125 0.997123122
vt 0.156738281 0.997123122
vt 0.156738281 0.923475266
vt 0.927246094 0.149021864
vt 0.927246094 0.480437279
vt 0.958496094 0.480437279
vt 0.958496094 0.149021864
vt 0.959472656 0.149021864
vt 0.959472656 0.480437279
vt 0.990722656 0.480437279
vt 0.990722656 0.149021864
vt 0.157714844 0.923475266
vt 0.157714844 0.9418872
vt 0.392089844 0.9418872
vt 0.392089844 0.923475266
vt 0.800292969 0.167433858
vt 0.800292969 0.259493649
vt 0.847167969 0.259493649
vt 0.847167969 0.167433858
vt 0.800292969 0.260644436
vt 0.800292969 0.352704287
vt 0.847167969 0.352704287
vt 0.847167969 0.260644436
vt 0.800292969 0.353855014
vt 0.800292969 0.445914865
vt 0.847167969 0.445914865
vt 0.847167969 0.353855014
vt 0.800292969 0.447065592
vt 0.800292969 0.575949371
vt 0.831542969 0.575949371
vt 0.831542969 0.447065592
vt 0.393066406 0.923475266
vt 0.393066406 0.9418872
vt 0.611816406 0.9418872
vt 0.611816406 0.923475266
vt 0.927246094 0.481588006
vt 0.927246094 0.592059851
vt 0.958496094 0.592059851
vt 0.958496094 0.481588006
vt 0.862792969 0.536823928
vt 0.862792969 0.610471845
vt 0.909667969 0.610471845
vt 0.909667969 0.536823928
vt 0.612792969 0.923475266
vt 0.612792969 0.9418872
vt 0.784667969 0.9418872
vt 0.784667969 0.923475266
vt 0.785644531 0.923475266
vt 0.785644531 0.9418872
vt 0.957519531 0.9418872
vt 0.957519531 0.923475266
vt 0.157714844 0.943037987
vt 0.157714844 0.979861915
vt 0.220214844 0.979861915
vt 0.220214844 0.943037987
vt 0.221191406 0.943037987
vt 0.221191406 0.979861915
vt 0.283691406 0.979861915
vt 0.283691406 0.943037987
vt 0.284667969 0.943037987
vt 0.284667969 0.979861915
vt 0.347167969 0.979861915
vt 0.347167969 0.943037987
vt 0.348144531 0.943037987
vt 0.348144531 0.979861915
vt 0.410644531 0.979861915
vt 0.410644531 0.943037987
vt 0.411621094 0.943037987
vt 0.411621094 0.979861915
vt 0.458496094 0.979861915
vt 0.458496094 0.943037987
vt 0.459472656 0.943037987
vt 0.459472656 0.979861915
vt 0.506347656 0.979861915
vt 0.506347656 0.943037987
vt 0.507324219 0.943037987
vt 0.507324219 0.979861915
vt 0.554199219 0.979861915
vt 0.554199219 0.943037987
vt 0.959472656 0.481588006
vt 0.959472656 0.573647857
vt 0.975097656 0.573647857
vt 0.975097656 0.481588006
vt 0.959472656 0.574798584
vt 0.959472656 0.611622572
vt 0.990722656 0.611622572
vt 0.990722656 0.574798584
vt 0.959472656 0.612773299
vt 0.959472656 0.649597228
vt 0.990722656 0.649597228
vt 0.990722656 0.612773299
vt 0.959472656 0.650748014
vt 0.959472656 0.724395871
vt 0.975097656 0.724395871
vt 0.975097656 0.650748014
vt 0.976074219 0.650748014
vt 0.976074219 0.724395871
vt 0.991699219 0.724395871
vt 0.991699219 0.650748014
vt 0.959472656 0.725546598
vt 0.959472656 0.762370527
vt 0.990722656 0.762370527
vt 0.990722656 0.725546598
vt 0.555175781 0.943037987
vt 0.555175781 0.961449921
vt 0.602050781 0.961449921
vt 0.602050781 0.943037987
vt 0.603027344 0.943037987
vt 0.603027344 0.961449921
vt 0.649902344 0.961449921
vt 0.649902344 0.943037987
vt 0.650878906 0.943037987
vt 0.650878906 0.953970075
vt 0.697753906 0.953970075
vt 0.697753906 0.943037987
vt 0.959472656 0.763521314
vt 0.959472656 0.818757176
vt 0.975097656 0.818757176
vt 0.975097656 0.763521314
vt 0.976074219 0.763521314
vt 0.976074219 0.818757176
vt 0.991699219 0.818757176
vt 0.991699219 0.763521314
vt 0.959472656 0.819907904
vt 0.959472656 0.875143826
vt 0.975097656 0.875143826
vt 0.975097656 0.819907904
vt 0.976074219 0.819907904
vt 0.976074219 0.875143826
vt 0.991699219 0.875143826
vt 0.991699219 0.819907904
vt 0.698730469 0.943037987
vt 0.698730469 0.961449921
vt 0.745605469 0.961449921
vt 0.745605469 0.943037987
vt 0.959472656 0.876294613
vt 0.959472656 0.931530476
vt 0.975097656 0.931530476
vt 0.975097656 0.876294613
vt 0.976074219 0.876294613
vt 0.976074219 0.905638695
vt 0.991699219 0.905638695
vt 0.991699219 0.876294613
vt 0.976074219 0.906789422
vt 0.976074219 0.94361335
vt 0.991699219 0.94361335
vt 0.991699219 0.906789422
vt 0.959472656 0.932681262
vt 0.959472656 0.969505191
vt 0.975097656 0.969505191
vt 0.975097656 0.932681262
vt 0.746582031 0.943037987
vt 0.746582031 0.979861915
vt 0.762207031 0.979861915
vt 0.762207031 0.943037987
vt 0.763183594 0.943037987
vt 0.763183594 0.979861915
vt 0.778808594 0.979861915
vt 0.778808594 0.943037987
vt 0.779785156 0.943037987
vt 0.779785156 0.979861915
vt 0.795410156 0.979861915
vt 0.795410156 0.943037987
vt 0.796386719 0.943037987
vt 0.796386719 0.979861915
vt 0.812011719 0.979861915
vt 0.812011719 0.943037987
vt 0.812988281 0.943037987
vt 0.812988281 0.979861915
vt 0.828613281 0.979861915
vt 0.828613281 0.943037987
vt 0.829589844 0.943037987
vt 0.829589844 0.961449921
vt 0.860839844 0.961449921
vt 0.860839844 0.943037987
vt 0.861816406 0.943037987
vt 0.861816406 0.979861915
vt 0.877441406 0.979861915
vt 0.877441406 0.943037987
vt 0.878417969 0.943037987
vt 0.878417969 0.961449921
vt 0.909667969 0.961449921
vt 0.909667969 0.943037987
vt 0.910644531 0.943037987
vt 0.910644531 0.961449921
vt 0.941894531 0.961449921
vt 0.941894531 0.943037987
vt 0.650878906 0.955120802
vt 0.650878906 0.973532796
vt 0.682128906 0.973532796
vt 0.682128906 0.955120802
vt 0.555175781 0.962600708
vt 0.555175781 0.981012642
vt 0.586425781 0.981012642
vt 0.586425781 0.962600708
vt 0.587402344 0.962600708
vt 0.587402344 0.973532796
vt 0.618652344 0.973532796
vt 0.618652344 0.962600708
vt 0.698730469 0.962600708
vt 0.698730469 0.981012642
vt 0.729980469 0.981012642
vt 0.729980469 0.962600708
vt 0.829589844 0.962600708
vt 0.829589844 0.981012642
vt 0.860839844 0.981012642
vt 0.860839844 0.962600708
vt 0.878417969 0.962600708
vt 0.878417969 0.981012642
vt 0.909667969 0.981012642
vt 0.909667969 0.962600708
vt 0.910644531 0.962600708
vt 0.910644531 0.981012642
vt 0.941894531 0.981012642
vt 0.941894531 0.962600708
vt 0.959472656 0.970655918
vt 0.959472656 0.989067912
vt 0.990722656 0.989067912
vt 0.990722656 0.970655918
vt 0.942871094 0.943037987
vt 0.942871094 0.979861915
vt 0.958496094 0.979861915
vt 0.958496094 0.943037987
vt 0.619628906 0.962600708
vt 0.619628906 0.999424636
vt 0.635253906 0.999424636
vt 0.635253906 0.962600708
vt 0.587402344 0.974683523
vt 0.587402344 0.993095517
vt 0.603027344 0.993095517
vt 0.603027344 0.974683523
vt 0.650878906 0.974683523
vt 0.650878906 0.993095517
vt 0.666503906 0.993095517
vt 0.666503906 0.974683523
vt 0.667480469 0.974683523
vt 0.667480469 0.993095517
vt 0.683105469 0.993095517
vt 0.683105469 0.974683523
vt 0.157714844 0.981012642
vt 0.157714844 0.999424636
vt 0.173339844 0.999424636
vt 0.173339844 0.981012642
vt 0.174316406 0.981012642
vt 0.174316406 0.999424636
vt 0.189941406 0.999424636
vt 0.189941406 0.981012642
vt 0.190917969 0.981012642
vt 0.190917969 0.999424636
vt 0.206542969 0.999424636
vt 0.206542969 0.981012642
vt 0.207519531 0.981012642
vt 0.207519531 0.999424636
vt 0.223144531 0.999424636
vt 0.223144531 0.981012642
vt 0.224121094 0.981012642
vt 0.224121094 0.999424636
vt 0.239746094 0.999424636
vt 0.239746094 0.981012642
vt 0.240722656 0.981012642
vt 0.240722656 0.999424636
vt 0.256347656 0.999424636
vt 0.256347656 0.981012642
vt 0.257324219 0.981012642
vt 0.257324219 0.999424636
vt 0.272949219 0.999424636
vt 0.272949219 0.981012642
vt 0.273925781 0.981012642
vt 0.273925781 0.999424636
vt 0.289550781 0.999424636
vt 0.289550781 0.981012642
g kuersike_2-mesh_0
f 3/3/3 2/2/2 1/1/1
f 1/1/1 4/4/4 3/3/3
f 7/7/7 6/6/6 5/5/5
f 5/5/5 8/8/8 7/7/7
f 11/11/11 10/10/10 9/9/9
f 9/9/9 12/12/12 11/11/11
f 15/15/15 14/14/14 13/13/13
f 13/13/13 16/16/16 15/15/15
f 19/19/19 18/18/18 17/17/17
f 17/17/17 20/20/20 19/19/19
f 23/23/23 22/22/22 21/21/21
f 21/21/21 24/24/24 23/23/23
f 27/27/27 26/26/26 25/25/25
f 25/25/25 28/28/28 27/27/27
f 31/31/31 30/30/30 29/29/29
f 29/29/29 32/32/32 31/31/31
f 35/35/35 34/34/34 33/33/33
f 33/33/33 36/36/36 35/35/35
f 39/39/39 38/38/38 37/37/37
f 37/37/37 40/40/40 39/39/39
f 43/43/43 42/42/42 41/41/41
f 41/41/41 44/44/44 43/43/43
f 47/47/47 46/46/46 45/45/45
f 45/45/45 48/48/48 47/47/47
f 51/51/51 50/50/50 49/49/49
f 49/49/49 52/52/52 51/51/51
f 55/55/55 54/54/54 53/53/53
f 53/53/53 56/56/56 55/55/55
f 59/59/59 58/58/58 57/57/57
f 57/57/57 60/60/60 59/59/59
f 63/63/63 62/62/62 61/61/61
f 61/61/61 64/64/64 63/63/63
f 67/67/67 66/66/66 65/65/65
f 65/65/65 68/68/68 67/67/67
f 71/71/71 70/70/70 69/69/69
f 69/69/69 72/72/72 71/71/71
f 75/75/75 74/74/74 73/73/73
f 73/73/73 76/76/76 75/75/75
f 79/79/79 78/78/78 77/77/77
f 77/77/77 80/80/80 79/79/79
f 83/83/83 82/82/82 81/81/81
f 81/81/81 84/84/84 83/83/83
f 87/87/87 86/86/86 85/85/85
f 85/85/85 88/88/88 87/87/87
f 91/91/91 90/90/90 89/89/89
f 89/89/89 92/92/92 91/91/91
f 95/95/95 94/94/94 93/93/93
f 93/93/93 96/96/96 95/95/95
f 99/99/99 98/98/98 97/97/97
f 97/97/97 100/100/100 99/99/99
f 103/103/103 102/102/102 101/101/101
f 101/101/101 104/104/104 103/103/103
f 107/107/107 106/106/106 105/105/105
f 105/105/105 108/108/108 107/107/107
f 111/111/111 110/110/110 109/109/109
f 109/109/109 112/112/112 111/111/111
f 115/115/115 114/114/114 113/113/113
f 113/113/113 116/116/116 115/115/115
f 119/119/119 118/118/118 117/117/117
f 117/117/117 120/120/120 119/119/119
f 123/123/123 122/122/122 121/121/121
f 121/121/121 124/124/124 123/123/123
f 127/127/127 126/126/126 125/125/125
f 125/125/125 128/128/128 127/127/127
f 131/131/131 130/130/130 129/129/129
f 129/129/129 132/132/132 131/131/131
f 135/135/135 134/134/134 133/133/133
f 133/133/133 136/136/136 135/135/135
f 139/139/139 138/138/138 137/137/137
f 137/137/137 140/140/140 139/139/139
f 143/143/143 142/142/142 141/141/141
f 141/141/141 144/144/144 143/143/143
f 147/147/147 146/146/146 145/145/145
f 145/145/145 148/148/148 147/147/147
f 151/151/151 150/150/150 149/149/149
f 149/149/149 152/152/152 151/151/151
f 155/155/155 154/154/154 153/153/153
f 153/153/153 156/156/156 155/155/155
f 159/159/159 158/158/158 157/157/157
f 157/157/157 160/160/160 159/159/159
f 163/163/163 162/162/162 161/161/161
f 161/161/161 164/164/164 163/163/163
f 167/167/167 166/166/166 165/165/165
f 165/165/165 168/168/168 167/167/167
f 171/171/171 170/170/170 169/169/169
f 169/169/169 172/172/172 171/171/171
f 175/175/175 174/174/174 173/173/173
f 173/173/173 176/176/176 175/175/175
f 179/179/179 178/178/178 177/177/177
f 177/177/177 180/180/180 179/179/179
f 183/183/183 182/182/182 181/181/181
f 181/181/181 184/184/184 183/183/183
f 187/187/187 186/186/186 185/185/185
f 185/185/185 188/188/188 187/187/187
f 191/191/191 190/190/190 189/189/189
f 189/189/189 192/192/192 191/191/191
f 195/195/195 194/194/194 193/193/193
f 193/193/193 196/196/196 195/195/195
f 199/199/199 198/198/198 197/197/197
f 197/197/197 200/200/200 199/199/199
f 203/203/203 202/202/202 201/201/201
f 201/201/201 204/204/204 203/203/203
f 207/207/207 206/206/206 205/205/205
f 205/205/205 208/208/208 207/207/207
f 211/211/211 210/210/210 209/209/209
f 209/209/209 212/212/212 211/211/211
f 215/215/215 214/214/214 213/213/213
f 213/213/213 216/216/216 215/215/215
f 219/219/219 218/218/218 217/217/217
f 217/217/217 220/220/220 219/219/219
f 223/223/223 222/222/222 221/221/221
f 221/221/221 224/224/224 223/223/223
f 227/227/227 226/226/226 225/225/225
f 225/225/225 228/228/228 227/227/227
f 231/231/231 230/230/230 229/229/229
f 229/229/229 232/232/232 231/231/231
f 235/235/235 234/234/234 233/233/233
f 233/233/233 236/236/236 235/235/235
f 239/239/239 238/238/238 237/237/237
f 237/237/237 240/240/240 239/239/239
f 243/243/243 242/242/242 241/241/241
f 241/241/241 244/244/244 243/243/243
f 247/247/247 246/246/246 245/245/245
f 245/245/245 248/248/248 247/247/247
f 251/251/251 250/250/250 249/249/249
f 249/249/249 252/252/252 251/251/251
f 255/255/255 254/254/254 253/253/253
f 253/253/253 256/256/256 255/255/255
f 259/259/259 258/258/258 257/257/257
f 257/257/257 260/260/260 259/259/259
f 263/263/263 262/262/262 261/261/261
f 261/261/261 264/264/264 263/263/263
f 267/267/267 266/266/266 265/265/265
f 265/265/265 268/268/268 267/267/267
f 271/271/271 270/270/270 269/269/269
f 269/269/269 272/272/272 271/271/271
f 275/275/275 274/274/274 273/273/273
f 273/273/273 276/276/276 275/275/275
f 279/279/279 278/278/278 277/277/277
f 277/277/277 280/280/280 279/279/279
f 283/283/283 282/282/282 281/281/281
f 281/281/281 284/284/284 283/283/283
f 287/287/287 286/286/286 285/285/285
f 285/285/285 288/288/288 287/287/287
f 291/291/291 290/290/290 289/289/289
f 289/289/289 292/292/292 291/291/291
f 295/295/295 294/294/294 293/293/293
f 293/293/293 296/296/296 295/295/295
f 299/299/299 298/298/298 297/297/297
f 297/297/297 300/300/300 299/299/299
f 303/303/303 302/302/302 301/301/301
f 301/301/301 304/304/304 303/303/303
f 307/307/307 306/306/306 305/305/305
f 305/305/305 308/308/308 307/307/307
