g kaiersheng_3-mesh
v -1024 170 0
v -1024 1226 0
v -1952 1226 0
v -1952 170 0
v -96 170 0
v -96 1226 0
v -1024 1226 0
v -1024 170 0
v -928 10 0
v -928 170 0
v -1312 170 0
v -1312 10 0
v -544 10 0
v -544 170 0
v -928 170 0
v -928 10 0
v -608 1226 0
v -608 1322 0
v -1120 1322 0
v -1120 1226 0
v -1120 1226 0
v -1120 1322 0
v -1600 1322 0
v -1600 1226 0
v -32 810 0
v -32 1194 0
v -96 1194 0
v -96 810 0
v -32 458 0
v -32 810 0
v -96 810 0
v -96 458 0
v -1408 74 0
v -1408 170 0
v -1632 170 0
v -1632 74 0
v -192 1226 0
v -192 1290 0
v -416 1290 0
v -416 1226 0
v -736 1322 0
v -736 1386 0
v -960 1386 0
v -960 1322 0
v -1952 202 0
v -1952 618 0
v -1984 618 0
v -1984 202 0
v -1952 618 0
v -1952 1034 0
v -1984 1034 0
v -1984 618 0
v -1312 42 0
v -1312 170 0
v -1408 170 0
v -1408 42 0
v -960 1322 0
v -960 1386 0
v -1152 1386 0
v -1152 1322 0
v -416 1226 0
v -416 1290 0
v -608 1290 0
v -608 1226 0
v -1760 106 0
v -1760 170 0
v -1888 170 0
v -1888 106 0
v -1760 1226 0
v -1760 1290 0
v -1888 1290 0
v -1888 1226 0
v -1632 1226 0
v -1632 1290 0
v -1760 1290 0
v -1760 1226 0
v -1632 106 0
v -1632 170 0
v -1760 170 0
v -1760 106 0
v -1984 810 0
v -1984 1034 0
v -2016 1034 0
v -2016 810 0
v -1984 618 0
v -1984 810 0
v -2016 810 0
v -2016 618 0
v -384 138 0
v -384 170 0
v -544 170 0
v -544 138 0
v -224 138 0
v -224 170 0
v -384 170 0
v -384 138 0
v -64 202 0
v -64 330 0
v -96 330 0
v -96 202 0
v -64 330 0
v -64 458 0
v -96 458 0
v -96 330 0
v -1984 266 0
v -1984 362 0
v -2016 362 0
v -2016 266 0
v -384 106 0
v -384 138 0
v -480 138 0
v -480 106 0
v -1984 362 0
v -1984 458 0
v -2016 458 0
v -2016 362 0
v -1312 1322 0
v -1312 1354 0
v -1408 1354 0
v -1408 1322 0
v -1408 1322 0
v -1408 1354 0
v -1504 1354 0
v -1504 1322 0
v -128 1226 0
v -128 1258 0
v -192 1258 0
v -192 1226 0
v -2016 1226 0
v -2016 1290 0
v -2047 1290 0
v -2047 1226 0
v -640 0 0
v -640 10 0
v -704 10 0
v -704 0 0
v -0 874 0
v -0 938 0
v -32 938 0
v -32 874 0
v -1248 0 0
v -1248 10 0
v -1312 10 0
v -1312 0 0
v -512 0 0
v -512 42 0
v -544 42 0
v -544 0 0
v -480 74 0
v -480 106 0
v -544 106 0
v -544 74 0
v -0 682 0
v -0 746 0
v -32 746 0
v -32 682 0
v -2016 906 0
v -2016 970 0
v -2047 970 0
v -2047 906 0
v -2016 842 0
v -2016 906 0
v -2047 906 0
v -2047 842 0
v -1152 1322 0
v -1152 1354 0
v -1216 1354 0
v -1216 1322 0
v -1216 1322 0
v -1216 1354 0
v -1280 1354 0
v -1280 1322 0
v -480 106 0
v -480 138 0
v -544 138 0
v -544 106 0
v -0 1098 0
v -0 1162 0
v -32 1162 0
v -32 1098 0
v -1984 1226 0
v -1984 1258 0
v -2016 1258 0
v -2016 1226 0
v -1888 1226 0
v -1888 1258 0
v -1920 1258 0
v -1920 1226 0
v -64 1194 0
v -64 1226 0
v -96 1226 0
v -96 1194 0
v -1888 138 0
v -1888 170 0
v -1920 170 0
v -1920 138 0
v -160 138 0
v -160 170 0
v -192 170 0
v -192 138 0
v -1600 1226 0
v -1600 1258 0
v -1632 1258 0
v -1632 1226 0
v -704 0 0
v -704 10 0
v -736 10 0
v -736 0 0
v -0 1066 0
v -0 1098 0
v -32 1098 0
v -32 1066 0
v -0 650 0
v -0 682 0
v -32 682 0
v -32 650 0
v -1888 1322 0
v -1888 1354 0
v -1920 1354 0
v -1920 1322 0
v -704 1322 0
v -704 1354 0
v -736 1354 0
v -736 1322 0
vt 0.00048828125 0.000740766525
vt 0.00048828125 0.782962978
vt 0.453613281 0.782962978
vt 0.453613281 0.000740766525
vt 0.454589844 0.000740766525
vt 0.454589844 0.782962978
vt 0.907714844 0.782962978
vt 0.907714844 0.000740766525
vt 0.00048828125 0.784444451
vt 0.00048828125 0.902962983
vt 0.187988281 0.902962983
vt 0.187988281 0.784444451
vt 0.188964844 0.784444451
vt 0.188964844 0.902962983
vt 0.376464844 0.902962983
vt 0.376464844 0.784444451
vt 0.377441406 0.784444451
vt 0.377441406 0.855555534
vt 0.627441406 0.855555534
vt 0.627441406 0.784444451
vt 0.628417969 0.784444451
vt 0.628417969 0.855555534
vt 0.862792969 0.855555534
vt 0.862792969 0.784444451
vt 0.908691406 0.000740766525
vt 0.908691406 0.285185158
vt 0.939941406 0.285185158
vt 0.939941406 0.000740766525
vt 0.940917969 0.000740766525
vt 0.940917969 0.261481464
vt 0.972167969 0.261481464
vt 0.972167969 0.000740766525
vt 0.863769531 0.784444451
vt 0.863769531 0.855555534
vt 0.973144531 0.855555534
vt 0.973144531 0.784444451
vt 0.377441406 0.857037067
vt 0.377441406 0.904444456
vt 0.486816406 0.904444456
vt 0.486816406 0.857037067
vt 0.487792969 0.857037067
vt 0.487792969 0.904444456
vt 0.597167969 0.904444456
vt 0.597167969 0.857037067
vt 0.974121094 0.000740766525
vt 0.974121094 0.308888912
vt 0.989746094 0.308888912
vt 0.989746094 0.000740766525
vt 0.974121094 0.310370386
vt 0.974121094 0.618518531
vt 0.989746094 0.618518531
vt 0.989746094 0.310370386
vt 0.598144531 0.857037067
vt 0.598144531 0.951851845
vt 0.645019531 0.951851845
vt 0.645019531 0.857037067
vt 0.645996094 0.857037067
vt 0.645996094 0.904444456
vt 0.739746094 0.904444456
vt 0.739746094 0.857037067
vt 0.740722656 0.857037067
vt 0.740722656 0.904444456
vt 0.834472656 0.904444456
vt 0.834472656 0.857037067
vt 0.835449219 0.857037067
vt 0.835449219 0.904444456
vt 0.897949219 0.904444456
vt 0.897949219 0.857037067
vt 0.898925781 0.857037067
vt 0.898925781 0.904444456
vt 0.961425781 0.904444456
vt 0.961425781 0.857037067
vt 0.00048828125 0.904444456
vt 0.00048828125 0.951851845
vt 0.0629882812 0.951851845
vt 0.0629882812 0.904444456
vt 0.0639648438 0.904444456
vt 0.0639648438 0.951851845
vt 0.126464844 0.951851845
vt 0.126464844 0.904444456
vt 0.974121094 0.620000005
vt 0.974121094 0.785925925
vt 0.989746094 0.785925925
vt 0.989746094 0.620000005
vt 0.974121094 0.787407398
vt 0.974121094 0.929629624
vt 0.989746094 0.929629624
vt 0.989746094 0.787407398
vt 0.127441406 0.904444456
vt 0.127441406 0.92814815
vt 0.205566406 0.92814815
vt 0.205566406 0.904444456
vt 0.206542969 0.904444456
vt 0.206542969 0.92814815
vt 0.284667969 0.92814815
vt 0.284667969 0.904444456
vt 0.285644531 0.904444456
vt 0.285644531 0.999259233
vt 0.301269531 0.999259233
vt 0.301269531 0.904444456
vt 0.302246094 0.904444456
vt 0.302246094 0.999259233
vt 0.317871094 0.999259233
vt 0.317871094 0.904444456
vt 0.318847656 0.904444456
vt 0.318847656 0.975555539
vt 0.334472656 0.975555539
vt 0.334472656 0.904444456
vt 0.377441406 0.90592593
vt 0.377441406 0.929629624
vt 0.424316406 0.929629624
vt 0.424316406 0.90592593
vt 0.335449219 0.904444456
vt 0.335449219 0.975555539
vt 0.351074219 0.975555539
vt 0.351074219 0.904444456
vt 0.425292969 0.90592593
vt 0.425292969 0.929629624
vt 0.472167969 0.929629624
vt 0.472167969 0.90592593
vt 0.473144531 0.90592593
vt 0.473144531 0.929629624
vt 0.520019531 0.929629624
vt 0.520019531 0.90592593
vt 0.520996094 0.90592593
vt 0.520996094 0.929629624
vt 0.552246094 0.929629624
vt 0.552246094 0.90592593
vt 0.352050781 0.904444456
vt 0.352050781 0.951851845
vt 0.367675781 0.951851845
vt 0.367675781 0.904444456
vt 0.553222656 0.90592593
vt 0.553222656 0.914074063
vt 0.584472656 0.914074063
vt 0.584472656 0.90592593
vt 0.645996094 0.90592593
vt 0.645996094 0.953333318
vt 0.661621094 0.953333318
vt 0.661621094 0.90592593
vt 0.662597656 0.90592593
vt 0.662597656 0.914074063
vt 0.693847656 0.914074063
vt 0.693847656 0.90592593
vt 0.694824219 0.90592593
vt 0.694824219 0.937777758
vt 0.710449219 0.937777758
vt 0.710449219 0.90592593
vt 0.711425781 0.90592593
vt 0.711425781 0.929629624
vt 0.742675781 0.929629624
vt 0.742675781 0.90592593
vt 0.743652344 0.90592593
vt 0.743652344 0.953333318
vt 0.759277344 0.953333318
vt 0.759277344 0.90592593
vt 0.760253906 0.90592593
vt 0.760253906 0.953333318
vt 0.775878906 0.953333318
vt 0.775878906 0.90592593
vt 0.776855469 0.90592593
vt 0.776855469 0.953333318
vt 0.792480469 0.953333318
vt 0.792480469 0.90592593
vt 0.793457031 0.90592593
vt 0.793457031 0.929629624
vt 0.824707031 0.929629624
vt 0.824707031 0.90592593
vt 0.825683594 0.90592593
vt 0.825683594 0.929629624
vt 0.856933594 0.929629624
vt 0.856933594 0.90592593
vt 0.857910156 0.90592593
vt 0.857910156 0.929629624
vt 0.889160156 0.929629624
vt 0.889160156 0.90592593
vt 0.890136719 0.90592593
vt 0.890136719 0.953333318
vt 0.905761719 0.953333318
vt 0.905761719 0.90592593
vt 0.906738281 0.90592593
vt 0.906738281 0.929629624
vt 0.922363281 0.929629624
vt 0.922363281 0.90592593
vt 0.923339844 0.90592593
vt 0.923339844 0.929629624
vt 0.938964844 0.929629624
vt 0.938964844 0.90592593
vt 0.939941406 0.90592593
vt 0.939941406 0.929629624
vt 0.955566406 0.929629624
vt 0.955566406 0.90592593
vt 0.956542969 0.90592593
vt 0.956542969 0.929629624
vt 0.972167969 0.929629624
vt 0.972167969 0.90592593
vt 0.553222656 0.915555537
vt 0.553222656 0.939259291
vt 0.568847656 0.939259291
vt 0.568847656 0.915555537
vt 0.569824219 0.915555537
vt 0.569824219 0.939259291
vt 0.585449219 0.939259291
vt 0.585449219 0.915555537
vt 0.662597656 0.915555537
vt 0.662597656 0.923703671
vt 0.678222656 0.923703671
vt 0.678222656 0.915555537
vt 0.662597656 0.925185204
vt 0.662597656 0.948888898
vt 0.678222656 0.948888898
vt 0.678222656 0.925185204
vt 0.127441406 0.929629624
vt 0.127441406 0.953333318
vt 0.143066406 0.953333318
vt 0.143066406 0.929629624
vt 0.144042969 0.929629624
vt 0.144042969 0.953333318
vt 0.159667969 0.953333318
vt 0.159667969 0.929629624
vt 0.160644531 0.929629624
vt 0.160644531 0.953333318
vt 0.176269531 0.953333318
vt 0.176269531 0.929629624
g kaiersheng_3-mesh_0
f 3/3/3 2/2/2 1/1/1
f 1/1/1 4/4/4 3/3/3
f 7/7/7 6/6/6 5/5/5
f 5/5/5 8/8/8 7/7/7
f 11/11/11 10/10/10 9/9/9
f 9/9/9 12/12/12 11/11/11
f 15/15/15 14/14/14 13/13/13
f 13/13/13 16/16/16 15/15/15
f 19/19/19 18/18/18 17/17/17
f 17/17/17 20/20/20 19/19/19
f 23/23/23 22/22/22 21/21/21
f 21/21/21 24/24/24 23/23/23
f 27/27/27 26/26/26 25/25/25
f 25/25/25 28/28/28 27/27/27
f 31/31/31 30/30/30 29/29/29
f 29/29/29 32/32/32 31/31/31
f 35/35/35 34/34/34 33/33/33
f 33/33/33 36/36/36 35/35/35
f 39/39/39 38/38/38 37/37/37
f 37/37/37 40/40/40 39/39/39
f 43/43/43 42/42/42 41/41/41
f 41/41/41 44/44/44 43/43/43
f 47/47/47 46/46/46 45/45/45
f 45/45/45 48/48/48 47/47/47
f 51/51/51 50/50/50 49/49/49
f 49/49/49 52/52/52 51/51/51
f 55/55/55 54/54/54 53/53/53
f 53/53/53 56/56/56 55/55/55
f 59/59/59 58/58/58 57/57/57
f 57/57/57 60/60/60 59/59/59
f 63/63/63 62/62/62 61/61/61
f 61/61/61 64/64/64 63/63/63
f 67/67/67 66/66/66 65/65/65
f 65/65/65 68/68/68 67/67/67
f 71/71/71 70/70/70 69/69/69
f 69/69/69 72/72/72 71/71/71
f 75/75/75 74/74/74 73/73/73
f 73/73/73 76/76/76 75/75/75
f 79/79/79 78/78/78 77/77/77
f 77/77/77 80/80/80 79/79/79
f 83/83/83 82/82/82 81/81/81
f 81/81/81 84/84/84 83/83/83
f 87/87/87 86/86/86 85/85/85
f 85/85/85 88/88/88 87/87/87
f 91/91/91 90/90/90 89/89/89
f 89/89/89 92/92/92 91/91/91
f 95/95/95 94/94/94 93/93/93
f 93/93/93 96/96/96 95/95/95
f 99/99/99 98/98/98 97/97/97
f 97/97/97 100/100/100 99/99/99
f 103/103/103 102/102/102 101/101/101
f 101/101/101 104/104/104 103/103/103
f 107/107/107 106/106/106 105/105/105
f 105/105/105 108/108/108 107/107/107
f 111/111/111 110/110/110 109/109/109
f 109/109/109 112/112/112 111/111/111
f 115/115/115 114/114/114 113/113/113
f 113/113/113 116/116/116 115/115/115
f 119/119/119 118/118/118 117/117/117
f 117/117/117 120/120/120 119/119/119
f 123/123/123 122/122/122 121/121/121
f 121/121/121 124/124/124 123/123/123
f 127/127/127 126/126/126 125/125/125
f 125/125/125 128/128/128 127/127/127
f 131/131/131 130/130/130 129/129/129
f 129/129/129 132/132/132 131/131/131
f 135/135/135 134/134/134 133/133/133
f 133/133/133 136/136/136 135/135/135
f 139/139/139 138/138/138 137/137/137
f 137/137/137 140/140/140 139/139/139
f 143/143/143 142/142/142 141/141/141
f 141/141/141 144/144/144 143/143/143
f 147/147/147 146/146/146 145/145/145
f 145/145/145 148/148/148 147/147/147
f 151/151/151 150/150/150 149/149/149
f 149/149/149 152/152/152 151/151/151
f 155/155/155 154/154/154 153/153/153
f 153/153/153 156/156/156 155/155/155
f 159/159/159 158/158/158 157/157/157
f 157/157/157 160/160/160 159/159/159
f 163/163/163 162/162/162 161/161/161
f 161/161/161 164/164/164 163/163/163
f 167/167/167 166/166/166 165/165/165
f 165/165/165 168/168/168 167/167/167
f 171/171/171 170/170/170 169/169/169
f 169/169/169 172/172/172 171/171/171
f 175/175/175 174/174/174 173/173/173
f 173/173/173 176/176/176 175/175/175
f 179/179/179 178/178/178 177/177/177
f 177/177/177 180/180/180 179/179/179
f 183/183/183 182/182/182 181/181/181
f 181/181/181 184/184/184 183/183/183
f 187/187/187 186/186/186 185/185/185
f 185/185/185 188/188/188 187/187/187
f 191/191/191 190/190/190 189/189/189
f 189/189/189 192/192/192 191/191/191
f 195/195/195 194/194/194 193/193/193
f 193/193/193 196/196/196 195/195/195
f 199/199/199 198/198/198 197/197/197
f 197/197/197 200/200/200 199/199/199
f 203/203/203 202/202/202 201/201/201
f 201/201/201 204/204/204 203/203/203
f 207/207/207 206/206/206 205/205/205
f 205/205/205 208/208/208 207/207/207
f 211/211/211 210/210/210 209/209/209
f 209/209/209 212/212/212 211/211/211
f 215/215/215 214/214/214 213/213/213
f 213/213/213 216/216/216 215/215/215
f 219/219/219 218/218/218 217/217/217
f 217/217/217 220/220/220 219/219/219
f 223/223/223 222/222/222 221/221/221
f 221/221/221 224/224/224 223/223/223
