g guanghui-mesh
v -160 226 0
v -160 706 0
v -512 706 0
v -512 226 0
v -512 226 0
v -512 706 0
v -832 706 0
v -832 226 0
v -256 706 0
v -256 898 0
v -512 898 0
v -512 706 0
v -832 386 0
v -832 610 0
v -992 610 0
v -992 386 0
v -128 130 0
v -128 226 0
v -384 226 0
v -384 130 0
v -384 130 0
v -384 226 0
v -640 226 0
v -640 130 0
v -64 226 0
v -64 418 0
v -160 418 0
v -160 226 0
v -672 706 0
v -672 834 0
v -800 834 0
v -800 706 0
v -0 514 0
v -0 610 0
v -160 610 0
v -160 514 0
v -832 258 0
v -832 386 0
v -928 386 0
v -928 258 0
v -192 66 0
v -192 130 0
v -352 130 0
v -352 66 0
v -128 706 0
v -128 770 0
v -256 770 0
v -256 706 0
v -352 66 0
v -352 130 0
v -480 130 0
v -480 66 0
v -352 0 0
v -352 66 0
v -416 66 0
v -416 0 0
v -64 642 0
v -64 738 0
v -128 738 0
v -128 642 0
v -320 898 0
v -320 962 0
v -416 962 0
v -416 898 0
v -96 418 0
v -96 482 0
v -160 482 0
v -160 418 0
v -640 162 0
v -640 226 0
v -704 226 0
v -704 162 0
v -32 258 0
v -32 322 0
v -64 322 0
v -64 258 0
v -736 194 0
v -736 226 0
v -800 226 0
v -800 194 0
v -640 738 0
v -640 802 0
v -672 802 0
v -672 738 0
v -128 642 0
v -128 706 0
v -160 706 0
v -160 642 0
v -96 66 0
v -96 130 0
v -128 130 0
v -128 66 0
v -416 2 0
v -416 66 0
v -448 66 0
v -448 2 0
v -832 610 0
v -832 674 0
v -864 674 0
v -864 610 0
v -832 226 0
v -832 258 0
v -896 258 0
v -896 226 0
v -768 834 0
v -768 866 0
v -832 866 0
v -832 834 0
v -512 834 0
v -512 898 0
v -544 898 0
v -544 834 0
v -992 450 0
v -992 514 0
v -1023 514 0
v -1023 450 0
v -992 514 0
v -992 578 0
v -1023 578 0
v -1023 514 0
v -512 770 0
v -512 834 0
v -544 834 0
v -544 770 0
v -416 898 0
v -416 930 0
v -480 930 0
v -480 898 0
v -704 834 0
v -704 866 0
v -768 866 0
v -768 834 0
v -512 706 0
v -512 738 0
v -544 738 0
v -544 706 0
v -736 130 0
v -736 162 0
v -768 162 0
v -768 130 0
v -160 98 0
v -160 130 0
v -192 130 0
v -192 98 0
v -96 194 0
v -96 226 0
v -128 226 0
v -128 194 0
v -64 610 0
v -64 642 0
v -96 642 0
v -96 610 0
v -480 98 0
v -480 130 0
v -512 130 0
v -512 98 0
v -608 738 0
v -608 770 0
v -640 770 0
v -640 738 0
v -128 610 0
v -128 642 0
v -160 642 0
v -160 610 0
v -640 706 0
v -640 738 0
v -672 738 0
v -672 706 0
v -480 898 0
v -480 930 0
v -512 930 0
v -512 898 0
v -800 802 0
v -800 834 0
v -832 834 0
v -832 802 0
v -800 194 0
v -800 226 0
v -832 226 0
v -832 194 0
v -32 226 0
v -32 258 0
v -64 258 0
v -64 226 0
vt 0.0009765625 0.0014705658
vt 0.0009765625 0.707352936
vt 0.344726562 0.707352936
vt 0.344726562 0.0014705658
vt 0.346679688 0.0014705658
vt 0.346679688 0.707352936
vt 0.659179688 0.707352936
vt 0.659179688 0.0014705658
vt 0.661132812 0.0014705658
vt 0.661132812 0.28382355
vt 0.911132812 0.28382355
vt 0.911132812 0.0014705658
vt 0.661132812 0.286764681
vt 0.661132812 0.616176486
vt 0.817382812 0.616176486
vt 0.817382812 0.286764681
vt 0.661132812 0.619117618
vt 0.661132812 0.760294139
vt 0.911132812 0.760294139
vt 0.911132812 0.619117618
vt 0.0009765625 0.710294127
vt 0.0009765625 0.85147059
vt 0.250976562 0.85147059
vt 0.250976562 0.710294127
vt 0.252929688 0.710294127
vt 0.252929688 0.992647052
vt 0.346679688 0.992647052
vt 0.346679688 0.710294127
vt 0.348632812 0.710294127
vt 0.348632812 0.89852941
vt 0.473632812 0.89852941
vt 0.473632812 0.710294127
vt 0.475585938 0.710294127
vt 0.475585938 0.85147059
vt 0.631835938 0.85147059
vt 0.631835938 0.710294127
vt 0.661132812 0.763235331
vt 0.661132812 0.951470613
vt 0.754882812 0.951470613
vt 0.754882812 0.763235331
vt 0.756835938 0.763235331
vt 0.756835938 0.857352972
vt 0.913085938 0.857352972
vt 0.913085938 0.763235331
vt 0.0009765625 0.854411781
vt 0.0009765625 0.948529422
vt 0.125976562 0.948529422
vt 0.125976562 0.854411781
vt 0.475585938 0.854411781
vt 0.475585938 0.948529422
vt 0.600585938 0.948529422
vt 0.600585938 0.854411781
vt 0.915039062 0.0014705658
vt 0.915039062 0.100000024
vt 0.977539062 0.100000024
vt 0.977539062 0.0014705658
vt 0.915039062 0.102941155
vt 0.915039062 0.244117618
vt 0.977539062 0.244117618
vt 0.977539062 0.102941155
vt 0.127929688 0.854411781
vt 0.127929688 0.948529422
vt 0.221679688 0.948529422
vt 0.221679688 0.854411781
vt 0.915039062 0.247058809
vt 0.915039062 0.34117645
vt 0.977539062 0.34117645
vt 0.977539062 0.247058809
vt 0.915039062 0.344117641
vt 0.915039062 0.438235283
vt 0.977539062 0.438235283
vt 0.977539062 0.344117641
vt 0.915039062 0.441176474
vt 0.915039062 0.535294116
vt 0.946289062 0.535294116
vt 0.946289062 0.441176474
vt 0.915039062 0.538235307
vt 0.915039062 0.585294127
vt 0.977539062 0.585294127
vt 0.977539062 0.538235307
vt 0.915039062 0.588235259
vt 0.915039062 0.682352901
vt 0.946289062 0.682352901
vt 0.946289062 0.588235259
vt 0.948242188 0.588235259
vt 0.948242188 0.682352901
vt 0.979492188 0.682352901
vt 0.979492188 0.588235259
vt 0.915039062 0.685294151
vt 0.915039062 0.779411793
vt 0.946289062 0.779411793
vt 0.946289062 0.685294151
vt 0.948242188 0.685294151
vt 0.948242188 0.779411793
vt 0.979492188 0.779411793
vt 0.979492188 0.685294151
vt 0.915039062 0.782352924
vt 0.915039062 0.876470566
vt 0.946289062 0.876470566
vt 0.946289062 0.782352924
vt 0.756835938 0.860294104
vt 0.756835938 0.907352924
vt 0.819335938 0.907352924
vt 0.819335938 0.860294104
vt 0.821289062 0.860294104
vt 0.821289062 0.907352924
vt 0.883789062 0.907352924
vt 0.883789062 0.860294104
vt 0.948242188 0.782352924
vt 0.948242188 0.876470566
vt 0.979492188 0.876470566
vt 0.979492188 0.782352924
vt 0.602539062 0.854411781
vt 0.602539062 0.948529422
vt 0.633789062 0.948529422
vt 0.633789062 0.854411781
vt 0.915039062 0.879411757
vt 0.915039062 0.973529398
vt 0.946289062 0.973529398
vt 0.946289062 0.879411757
vt 0.948242188 0.879411757
vt 0.948242188 0.973529398
vt 0.979492188 0.973529398
vt 0.979492188 0.879411757
vt 0.348632812 0.901470602
vt 0.348632812 0.948529422
vt 0.411132812 0.948529422
vt 0.411132812 0.901470602
vt 0.756835938 0.910294116
vt 0.756835938 0.957352936
vt 0.819335938 0.957352936
vt 0.819335938 0.910294116
vt 0.413085938 0.901470602
vt 0.413085938 0.948529422
vt 0.444335938 0.948529422
vt 0.444335938 0.901470602
vt 0.821289062 0.910294116
vt 0.821289062 0.957352936
vt 0.852539062 0.957352936
vt 0.852539062 0.910294116
vt 0.854492188 0.910294116
vt 0.854492188 0.957352936
vt 0.885742188 0.957352936
vt 0.885742188 0.910294116
vt 0.0009765625 0.951470613
vt 0.0009765625 0.998529434
vt 0.0322265625 0.998529434
vt 0.0322265625 0.951470613
vt 0.0341796875 0.951470613
vt 0.0341796875 0.998529434
vt 0.0654296875 0.998529434
vt 0.0654296875 0.951470613
vt 0.0673828125 0.951470613
vt 0.0673828125 0.998529434
vt 0.0986328125 0.998529434
vt 0.0986328125 0.951470613
vt 0.100585938 0.951470613
vt 0.100585938 0.998529434
vt 0.131835938 0.998529434
vt 0.131835938 0.951470613
vt 0.133789062 0.951470613
vt 0.133789062 0.998529434
vt 0.165039062 0.998529434
vt 0.165039062 0.951470613
vt 0.166992188 0.951470613
vt 0.166992188 0.998529434
vt 0.198242188 0.998529434
vt 0.198242188 0.951470613
vt 0.200195312 0.951470613
vt 0.200195312 0.998529434
vt 0.231445312 0.998529434
vt 0.231445312 0.951470613
vt 0.348632812 0.951470613
vt 0.348632812 0.998529434
vt 0.379882812 0.998529434
vt 0.379882812 0.951470613
vt 0.381835938 0.951470613
vt 0.381835938 0.998529434
vt 0.413085938 0.998529434
vt 0.413085938 0.951470613
vt 0.415039062 0.951470613
vt 0.415039062 0.998529434
vt 0.446289062 0.998529434
vt 0.446289062 0.951470613
g guanghui-mesh_0
f 3/3/3 2/2/2 1/1/1
f 1/1/1 4/4/4 3/3/3
f 7/7/7 6/6/6 5/5/5
f 5/5/5 8/8/8 7/7/7
f 11/11/11 10/10/10 9/9/9
f 9/9/9 12/12/12 11/11/11
f 15/15/15 14/14/14 13/13/13
f 13/13/13 16/16/16 15/15/15
f 19/19/19 18/18/18 17/17/17
f 17/17/17 20/20/20 19/19/19
f 23/23/23 22/22/22 21/21/21
f 21/21/21 24/24/24 23/23/23
f 27/27/27 26/26/26 25/25/25
f 25/25/25 28/28/28 27/27/27
f 31/31/31 30/30/30 29/29/29
f 29/29/29 32/32/32 31/31/31
f 35/35/35 34/34/34 33/33/33
f 33/33/33 36/36/36 35/35/35
f 39/39/39 38/38/38 37/37/37
f 37/37/37 40/40/40 39/39/39
f 43/43/43 42/42/42 41/41/41
f 41/41/41 44/44/44 43/43/43
f 47/47/47 46/46/46 45/45/45
f 45/45/45 48/48/48 47/47/47
f 51/51/51 50/50/50 49/49/49
f 49/49/49 52/52/52 51/51/51
f 55/55/55 54/54/54 53/53/53
f 53/53/53 56/56/56 55/55/55
f 59/59/59 58/58/58 57/57/57
f 57/57/57 60/60/60 59/59/59
f 63/63/63 62/62/62 61/61/61
f 61/61/61 64/64/64 63/63/63
f 67/67/67 66/66/66 65/65/65
f 65/65/65 68/68/68 67/67/67
f 71/71/71 70/70/70 69/69/69
f 69/69/69 72/72/72 71/71/71
f 75/75/75 74/74/74 73/73/73
f 73/73/73 76/76/76 75/75/75
f 79/79/79 78/78/78 77/77/77
f 77/77/77 80/80/80 79/79/79
f 83/83/83 82/82/82 81/81/81
f 81/81/81 84/84/84 83/83/83
f 87/87/87 86/86/86 85/85/85
f 85/85/85 88/88/88 87/87/87
f 91/91/91 90/90/90 89/89/89
f 89/89/89 92/92/92 91/91/91
f 95/95/95 94/94/94 93/93/93
f 93/93/93 96/96/96 95/95/95
f 99/99/99 98/98/98 97/97/97
f 97/97/97 100/100/100 99/99/99
f 103/103/103 102/102/102 101/101/101
f 101/101/101 104/104/104 103/103/103
f 107/107/107 106/106/106 105/105/105
f 105/105/105 108/108/108 107/107/107
f 111/111/111 110/110/110 109/109/109
f 109/109/109 112/112/112 111/111/111
f 115/115/115 114/114/114 113/113/113
f 113/113/113 116/116/116 115/115/115
f 119/119/119 118/118/118 117/117/117
f 117/117/117 120/120/120 119/119/119
f 123/123/123 122/122/122 121/121/121
f 121/121/121 124/124/124 123/123/123
f 127/127/127 126/126/126 125/125/125
f 125/125/125 128/128/128 127/127/127
f 131/131/131 130/130/130 129/129/129
f 129/129/129 132/132/132 131/131/131
f 135/135/135 134/134/134 133/133/133
f 133/133/133 136/136/136 135/135/135
f 139/139/139 138/138/138 137/137/137
f 137/137/137 140/140/140 139/139/139
f 143/143/143 142/142/142 141/141/141
f 141/141/141 144/144/144 143/143/143
f 147/147/147 146/146/146 145/145/145
f 145/145/145 148/148/148 147/147/147
f 151/151/151 150/150/150 149/149/149
f 149/149/149 152/152/152 151/151/151
f 155/155/155 154/154/154 153/153/153
f 153/153/153 156/156/156 155/155/155
f 159/159/159 158/158/158 157/157/157
f 157/157/157 160/160/160 159/159/159
f 163/163/163 162/162/162 161/161/161
f 161/161/161 164/164/164 163/163/163
f 167/167/167 166/166/166 165/165/165
f 165/165/165 168/168/168 167/167/167
f 171/171/171 170/170/170 169/169/169
f 169/169/169 172/172/172 171/171/171
f 175/175/175 174/174/174 173/173/173
f 173/173/173 176/176/176 175/175/175
f 179/179/179 178/178/178 177/177/177
f 177/177/177 180/180/180 179/179/179
f 183/183/183 182/182/182 181/181/181
f 181/181/181 184/184/184 183/183/183
