g duwei_3-mesh
v -320 47 0
v -320 623 0
v -608 623 0
v -608 47 0
v -320 623 0
v -320 1199 0
v -608 1199 0
v -608 623 0
v -672 79 0
v -672 431 0
v -896 431 0
v -896 79 0
v -672 431 0
v -672 783 0
v -896 783 0
v -896 431 0
v -32 623 0
v -32 943 0
v -224 943 0
v -224 623 0
v -32 335 0
v -32 623 0
v -224 623 0
v -224 335 0
v -128 79 0
v -128 335 0
v -320 335 0
v -320 79 0
v -608 911 0
v -608 1103 0
v -768 1103 0
v -768 911 0
v -704 783 0
v -704 911 0
v -864 911 0
v -864 783 0
v -608 367 0
v -608 687 0
v -672 687 0
v -672 367 0
v -608 47 0
v -608 367 0
v -672 367 0
v -672 47 0
v -224 975 0
v -224 1167 0
v -320 1167 0
v -320 975 0
v -224 815 0
v -224 975 0
v -320 975 0
v -320 815 0
v -128 943 0
v -128 1071 0
v -224 1071 0
v -224 943 0
v -224 335 0
v -224 463 0
v -320 463 0
v -320 335 0
v -0 623 0
v -0 847 0
v -32 847 0
v -32 623 0
v -288 0 0
v -288 47 0
v -384 47 0
v -384 0 0
v -384 0 0
v -384 47 0
v -480 47 0
v -480 0 0
v -768 911 0
v -768 1007 0
v -832 1007 0
v -832 911 0
v -0 431 0
v -0 623 0
v -32 623 0
v -32 431 0
v -896 239 0
v -896 431 0
v -928 431 0
v -928 239 0
v -896 47 0
v -896 239 0
v -928 239 0
v -928 47 0
v -608 1103 0
v -608 1167 0
v -672 1167 0
v -672 1103 0
v -64 271 0
v -64 335 0
v -128 335 0
v -128 271 0
v -608 783 0
v -608 911 0
v -640 911 0
v -640 783 0
v -64 47 0
v -64 111 0
v -128 111 0
v -128 47 0
v -896 623 0
v -896 719 0
v -928 719 0
v -928 623 0
v -608 687 0
v -608 783 0
v -640 783 0
v -640 687 0
v -896 527 0
v -896 623 0
v -928 623 0
v -928 527 0
v -928 79 0
v -928 143 0
v -960 143 0
v -960 79 0
v -864 815 0
v -864 879 0
v -896 879 0
v -896 815 0
v -192 1071 0
v -192 1135 0
v -224 1135 0
v -224 1071 0
v -256 15 0
v -256 79 0
v -288 79 0
v -288 15 0
v -928 175 0
v -928 239 0
v -960 239 0
v -960 175 0
v -832 47 0
v -832 79 0
v -896 79 0
v -896 47 0
v -288 527 0
v -288 591 0
v -320 591 0
v -320 527 0
v -768 47 0
v -768 79 0
v -832 79 0
v -832 47 0
v -288 463 0
v -288 527 0
v -320 527 0
v -320 463 0
v -96 975 0
v -96 1039 0
v -128 1039 0
v -128 975 0
v -928 335 0
v -928 367 0
v -960 367 0
v -960 335 0
v -224 463 0
v -224 495 0
v -256 495 0
v -256 463 0
v -224 783 0
v -224 815 0
v -256 815 0
v -256 783 0
v -640 719 0
v -640 751 0
v -672 751 0
v -672 719 0
v -96 239 0
v -96 271 0
v -128 271 0
v -128 239 0
v -288 47 0
v -288 79 0
v -320 79 0
v -320 47 0
v -672 47 0
v -672 79 0
v -704 79 0
v -704 47 0
v -128 47 0
v -128 79 0
v -160 79 0
v -160 47 0
v -576 15 0
v -576 47 0
v -608 47 0
v -608 15 0
v -928 47 0
v -928 79 0
v -960 79 0
v -960 47 0
v -672 1103 0
v -672 1135 0
v -704 1135 0
v -704 1103 0
v -96 943 0
v -96 975 0
v -128 975 0
v -128 943 0
v -864 783 0
v -864 815 0
v -896 815 0
v -896 783 0
v -160 1071 0
v -160 1103 0
v -192 1103 0
v -192 1071 0
v -832 911 0
v -832 943 0
v -864 943 0
v -864 911 0
v -672 879 0
v -672 911 0
v -704 911 0
v -704 879 0
v -768 1007 0
v -768 1039 0
v -800 1039 0
v -800 1007 0
v -64 943 0
v -64 975 0
v -96 975 0
v -96 943 0
vt 0.0009765625 0.000998020172
vt 0.0009765625 0.575848341
vt 0.282226562 0.575848341
vt 0.282226562 0.000998020172
vt 0.284179688 0.000998020172
vt 0.284179688 0.575848341
vt 0.565429688 0.575848341
vt 0.565429688 0.000998020172
vt 0.567382812 0.000998020172
vt 0.567382812 0.352295399
vt 0.786132812 0.352295399
vt 0.786132812 0.000998020172
vt 0.567382812 0.354291439
vt 0.567382812 0.705588818
vt 0.786132812 0.705588818
vt 0.786132812 0.354291439
vt 0.788085938 0.000998020172
vt 0.788085938 0.32035929
vt 0.975585938 0.32035929
vt 0.975585938 0.000998020172
vt 0.788085938 0.32235527
vt 0.788085938 0.609780431
vt 0.975585938 0.609780431
vt 0.975585938 0.32235527
vt 0.0009765625 0.577844322
vt 0.0009765625 0.833333313
vt 0.188476562 0.833333313
vt 0.188476562 0.577844322
vt 0.190429688 0.577844322
vt 0.190429688 0.769461095
vt 0.346679688 0.769461095
vt 0.346679688 0.577844322
vt 0.348632812 0.577844322
vt 0.348632812 0.705588818
vt 0.504882812 0.705588818
vt 0.504882812 0.577844322
vt 0.788085938 0.611776471
vt 0.788085938 0.931137741
vt 0.850585938 0.931137741
vt 0.850585938 0.611776471
vt 0.852539062 0.611776471
vt 0.852539062 0.931137741
vt 0.915039062 0.931137741
vt 0.915039062 0.611776471
vt 0.348632812 0.707584858
vt 0.348632812 0.899201572
vt 0.442382812 0.899201572
vt 0.442382812 0.707584858
vt 0.444335938 0.707584858
vt 0.444335938 0.867265463
vt 0.538085938 0.867265463
vt 0.538085938 0.707584858
vt 0.567382812 0.707584858
vt 0.567382812 0.835329354
vt 0.661132812 0.835329354
vt 0.661132812 0.707584858
vt 0.663085938 0.707584858
vt 0.663085938 0.835329354
vt 0.756835938 0.835329354
vt 0.756835938 0.707584858
vt 0.916992188 0.611776471
vt 0.916992188 0.835329354
vt 0.948242188 0.835329354
vt 0.948242188 0.611776471
vt 0.190429688 0.771457076
vt 0.190429688 0.819361269
vt 0.284179688 0.819361269
vt 0.284179688 0.771457076
vt 0.190429688 0.82135725
vt 0.190429688 0.869261503
vt 0.284179688 0.869261503
vt 0.284179688 0.82135725
vt 0.0009765625 0.835329354
vt 0.0009765625 0.931137741
vt 0.0634765625 0.931137741
vt 0.0634765625 0.835329354
vt 0.950195312 0.611776471
vt 0.950195312 0.803393245
vt 0.981445312 0.803393245
vt 0.981445312 0.611776471
vt 0.286132812 0.771457076
vt 0.286132812 0.96307385
vt 0.317382812 0.96307385
vt 0.317382812 0.771457076
vt 0.950195312 0.805389225
vt 0.950195312 0.997005999
vt 0.981445312 0.997005999
vt 0.981445312 0.805389225
vt 0.0654296875 0.835329354
vt 0.0654296875 0.899201572
vt 0.127929688 0.899201572
vt 0.127929688 0.835329354
vt 0.567382812 0.837325335
vt 0.567382812 0.901197612
vt 0.629882812 0.901197612
vt 0.629882812 0.837325335
vt 0.129882812 0.835329354
vt 0.129882812 0.96307385
vt 0.161132812 0.96307385
vt 0.161132812 0.835329354
vt 0.631835938 0.837325335
vt 0.631835938 0.901197612
vt 0.694335938 0.901197612
vt 0.694335938 0.837325335
vt 0.696289062 0.837325335
vt 0.696289062 0.933133721
vt 0.727539062 0.933133721
vt 0.727539062 0.837325335
vt 0.729492188 0.837325335
vt 0.729492188 0.933133721
vt 0.760742188 0.933133721
vt 0.760742188 0.837325335
vt 0.916992188 0.837325335
vt 0.916992188 0.933133721
vt 0.948242188 0.933133721
vt 0.948242188 0.837325335
vt 0.444335938 0.869261503
vt 0.444335938 0.933133721
vt 0.475585938 0.933133721
vt 0.475585938 0.869261503
vt 0.477539062 0.869261503
vt 0.477539062 0.933133721
vt 0.508789062 0.933133721
vt 0.508789062 0.869261503
vt 0.510742188 0.869261503
vt 0.510742188 0.933133721
vt 0.541992188 0.933133721
vt 0.541992188 0.869261503
vt 0.190429688 0.871257484
vt 0.190429688 0.935129762
vt 0.221679688 0.935129762
vt 0.221679688 0.871257484
vt 0.223632812 0.871257484
vt 0.223632812 0.935129762
vt 0.254882812 0.935129762
vt 0.254882812 0.871257484
vt 0.0654296875 0.901197612
vt 0.0654296875 0.933133721
vt 0.127929688 0.933133721
vt 0.127929688 0.901197612
vt 0.348632812 0.901197612
vt 0.348632812 0.96506989
vt 0.379882812 0.96506989
vt 0.379882812 0.901197612
vt 0.567382812 0.903193593
vt 0.567382812 0.935129762
vt 0.629882812 0.935129762
vt 0.629882812 0.903193593
vt 0.381835938 0.901197612
vt 0.381835938 0.96506989
vt 0.413085938 0.96506989
vt 0.413085938 0.901197612
vt 0.631835938 0.903193593
vt 0.631835938 0.967065871
vt 0.663085938 0.967065871
vt 0.663085938 0.903193593
vt 0.0009765625 0.933133721
vt 0.0009765625 0.96506989
vt 0.0322265625 0.96506989
vt 0.0322265625 0.933133721
vt 0.788085938 0.933133721
vt 0.788085938 0.96506989
vt 0.819335938 0.96506989
vt 0.819335938 0.933133721
vt 0.821289062 0.933133721
vt 0.821289062 0.96506989
vt 0.852539062 0.96506989
vt 0.852539062 0.933133721
vt 0.854492188 0.933133721
vt 0.854492188 0.96506989
vt 0.885742188 0.96506989
vt 0.885742188 0.933133721
vt 0.0654296875 0.935129762
vt 0.0654296875 0.967065871
vt 0.0966796875 0.967065871
vt 0.0966796875 0.935129762
vt 0.444335938 0.935129762
vt 0.444335938 0.967065871
vt 0.475585938 0.967065871
vt 0.475585938 0.935129762
vt 0.477539062 0.935129762
vt 0.477539062 0.967065871
vt 0.508789062 0.967065871
vt 0.508789062 0.935129762
vt 0.510742188 0.935129762
vt 0.510742188 0.967065871
vt 0.541992188 0.967065871
vt 0.541992188 0.935129762
vt 0.696289062 0.935129762
vt 0.696289062 0.967065871
vt 0.727539062 0.967065871
vt 0.727539062 0.935129762
vt 0.729492188 0.935129762
vt 0.729492188 0.967065871
vt 0.760742188 0.967065871
vt 0.760742188 0.935129762
vt 0.916992188 0.935129762
vt 0.916992188 0.967065871
vt 0.948242188 0.967065871
vt 0.948242188 0.935129762
vt 0.190429688 0.937125742
vt 0.190429688 0.969061852
vt 0.221679688 0.969061852
vt 0.221679688 0.937125742
vt 0.223632812 0.937125742
vt 0.223632812 0.969061852
vt 0.254882812 0.969061852
vt 0.254882812 0.937125742
vt 0.567382812 0.937125742
vt 0.567382812 0.969061852
vt 0.598632812 0.969061852
vt 0.598632812 0.937125742
vt 0.129882812 0.96506989
vt 0.129882812 0.997005999
vt 0.161132812 0.997005999
vt 0.161132812 0.96506989
vt 0.286132812 0.96506989
vt 0.286132812 0.997005999
vt 0.317382812 0.997005999
vt 0.317382812 0.96506989
vt 0.0009765625 0.967065871
vt 0.0009765625 0.99900198
vt 0.0322265625 0.99900198
vt 0.0322265625 0.967065871
vt 0.348632812 0.967065871
vt 0.348632812 0.99900198
vt 0.379882812 0.99900198
vt 0.379882812 0.967065871
g duwei_3-mesh_0
f 3/3/3 2/2/2 1/1/1
f 1/1/1 4/4/4 3/3/3
f 7/7/7 6/6/6 5/5/5
f 5/5/5 8/8/8 7/7/7
f 11/11/11 10/10/10 9/9/9
f 9/9/9 12/12/12 11/11/11
f 15/15/15 14/14/14 13/13/13
f 13/13/13 16/16/16 15/15/15
f 19/19/19 18/18/18 17/17/17
f 17/17/17 20/20/20 19/19/19
f 23/23/23 22/22/22 21/21/21
f 21/21/21 24/24/24 23/23/23
f 27/27/27 26/26/26 25/25/25
f 25/25/25 28/28/28 27/27/27
f 31/31/31 30/30/30 29/29/29
f 29/29/29 32/32/32 31/31/31
f 35/35/35 34/34/34 33/33/33
f 33/33/33 36/36/36 35/35/35
f 39/39/39 38/38/38 37/37/37
f 37/37/37 40/40/40 39/39/39
f 43/43/43 42/42/42 41/41/41
f 41/41/41 44/44/44 43/43/43
f 47/47/47 46/46/46 45/45/45
f 45/45/45 48/48/48 47/47/47
f 51/51/51 50/50/50 49/49/49
f 49/49/49 52/52/52 51/51/51
f 55/55/55 54/54/54 53/53/53
f 53/53/53 56/56/56 55/55/55
f 59/59/59 58/58/58 57/57/57
f 57/57/57 60/60/60 59/59/59
f 63/63/63 62/62/62 61/61/61
f 61/61/61 64/64/64 63/63/63
f 67/67/67 66/66/66 65/65/65
f 65/65/65 68/68/68 67/67/67
f 71/71/71 70/70/70 69/69/69
f 69/69/69 72/72/72 71/71/71
f 75/75/75 74/74/74 73/73/73
f 73/73/73 76/76/76 75/75/75
f 79/79/79 78/78/78 77/77/77
f 77/77/77 80/80/80 79/79/79
f 83/83/83 82/82/82 81/81/81
f 81/81/81 84/84/84 83/83/83
f 87/87/87 86/86/86 85/85/85
f 85/85/85 88/88/88 87/87/87
f 91/91/91 90/90/90 89/89/89
f 89/89/89 92/92/92 91/91/91
f 95/95/95 94/94/94 93/93/93
f 93/93/93 96/96/96 95/95/95
f 99/99/99 98/98/98 97/97/97
f 97/97/97 100/100/100 99/99/99
f 103/103/103 102/102/102 101/101/101
f 101/101/101 104/104/104 103/103/103
f 107/107/107 106/106/106 105/105/105
f 105/105/105 108/108/108 107/107/107
f 111/111/111 110/110/110 109/109/109
f 109/109/109 112/112/112 111/111/111
f 115/115/115 114/114/114 113/113/113
f 113/113/113 116/116/116 115/115/115
f 119/119/119 118/118/118 117/117/117
f 117/117/117 120/120/120 119/119/119
f 123/123/123 122/122/122 121/121/121
f 121/121/121 124/124/124 123/123/123
f 127/127/127 126/126/126 125/125/125
f 125/125/125 128/128/128 127/127/127
f 131/131/131 130/130/130 129/129/129
f 129/129/129 132/132/132 131/131/131
f 135/135/135 134/134/134 133/133/133
f 133/133/133 136/136/136 135/135/135
f 139/139/139 138/138/138 137/137/137
f 137/137/137 140/140/140 139/139/139
f 143/143/143 142/142/142 141/141/141
f 141/141/141 144/144/144 143/143/143
f 147/147/147 146/146/146 145/145/145
f 145/145/145 148/148/148 147/147/147
f 151/151/151 150/150/150 149/149/149
f 149/149/149 152/152/152 151/151/151
f 155/155/155 154/154/154 153/153/153
f 153/153/153 156/156/156 155/155/155
f 159/159/159 158/158/158 157/157/157
f 157/157/157 160/160/160 159/159/159
f 163/163/163 162/162/162 161/161/161
f 161/161/161 164/164/164 163/163/163
f 167/167/167 166/166/166 165/165/165
f 165/165/165 168/168/168 167/167/167
f 171/171/171 170/170/170 169/169/169
f 169/169/169 172/172/172 171/171/171
f 175/175/175 174/174/174 173/173/173
f 173/173/173 176/176/176 175/175/175
f 179/179/179 178/178/178 177/177/177
f 177/177/177 180/180/180 179/179/179
f 183/183/183 182/182/182 181/181/181
f 181/181/181 184/184/184 183/183/183
f 187/187/187 186/186/186 185/185/185
f 185/185/185 188/188/188 187/187/187
f 191/191/191 190/190/190 189/189/189
f 189/189/189 192/192/192 191/191/191
f 195/195/195 194/194/194 193/193/193
f 193/193/193 196/196/196 195/195/195
f 199/199/199 198/198/198 197/197/197
f 197/197/197 200/200/200 199/199/199
f 203/203/203 202/202/202 201/201/201
f 201/201/201 204/204/204 203/203/203
f 207/207/207 206/206/206 205/205/205
f 205/205/205 208/208/208 207/207/207
f 211/211/211 210/210/210 209/209/209
f 209/209/209 212/212/212 211/211/211
f 215/215/215 214/214/214 213/213/213
f 213/213/213 216/216/216 215/215/215
f 219/219/219 218/218/218 217/217/217
f 217/217/217 220/220/220 219/219/219
f 223/223/223 222/222/222 221/221/221
f 221/221/221 224/224/224 223/223/223
f 227/227/227 226/226/226 225/225/225
f 225/225/225 228/228/228 227/227/227
