g yuekecheng_3-mesh
v -416 715 0
v -416 1291 0
v -1344 1291 0
v -1344 715 0
v -416 171 0
v -416 715 0
v -1344 715 0
v -1344 171 0
v -480 1291 0
v -480 1739 0
v -960 1739 0
v -960 1291 0
v -128 171 0
v -128 619 0
v -416 619 0
v -416 171 0
v -1664 203 0
v -1664 491 0
v -1984 491 0
v -1984 203 0
v -1344 203 0
v -1344 491 0
v -1664 491 0
v -1664 203 0
v -1344 491 0
v -1344 779 0
v -1536 779 0
v -1536 491 0
v -1312 75 0
v -1312 171 0
v -1888 171 0
v -1888 75 0
v -736 75 0
v -736 171 0
v -1312 171 0
v -1312 75 0
v -960 1291 0
v -960 1483 0
v -1216 1483 0
v -1216 1291 0
v -1344 875 0
v -1344 1099 0
v -1472 1099 0
v -1472 875 0
v -0 331 0
v -0 523 0
v -128 523 0
v -128 331 0
v -960 1483 0
v -960 1643 0
v -1056 1643 0
v -1056 1483 0
v -0 203 0
v -0 299 0
v -128 299 0
v -128 203 0
v -352 779 0
v -352 971 0
v -416 971 0
v -416 779 0
v -352 619 0
v -352 779 0
v -416 779 0
v -416 619 0
v -1344 171 0
v -1344 203 0
v -1632 203 0
v -1632 171 0
v -1632 171 0
v -1632 203 0
v -1920 203 0
v -1920 171 0
v -160 747 0
v -160 843 0
v -256 843 0
v -256 747 0
v -512 107 0
v -512 171 0
v -640 171 0
v -640 107 0
v -768 1739 0
v -768 1803 0
v -896 1803 0
v -896 1739 0
v -640 1739 0
v -640 1803 0
v -768 1803 0
v -768 1739 0
v -1760 811 0
v -1760 875 0
v -1856 875 0
v -1856 811 0
v -64 523 0
v -64 619 0
v -128 619 0
v -128 523 0
v -1728 1003 0
v -1728 1067 0
v -1824 1067 0
v -1824 1003 0
v -1568 1355 0
v -1568 1451 0
v -1632 1451 0
v -1632 1355 0
v -1504 1451 0
v -1504 1547 0
v -1568 1547 0
v -1568 1451 0
v -640 107 0
v -640 171 0
v -736 171 0
v -736 107 0
v -1408 43 0
v -1408 75 0
v -1600 75 0
v -1600 43 0
v -1216 43 0
v -1216 75 0
v -1408 75 0
v -1408 43 0
v -1504 1355 0
v -1504 1451 0
v -1568 1451 0
v -1568 1355 0
v -448 1419 0
v -448 1579 0
v -480 1579 0
v -480 1419 0
v -1344 1099 0
v -1344 1163 0
v -1408 1163 0
v -1408 1099 0
v -96 715 0
v -96 779 0
v -160 779 0
v -160 715 0
v -288 747 0
v -288 811 0
v -352 811 0
v -352 747 0
v -288 619 0
v -288 683 0
v -352 683 0
v -352 619 0
v -1344 811 0
v -1344 875 0
v -1408 875 0
v -1408 811 0
v -1664 1035 0
v -1664 1099 0
v -1728 1099 0
v -1728 1035 0
v -1504 907 0
v -1504 971 0
v -1568 971 0
v -1568 907 0
v -384 971 0
v -384 1099 0
v -416 1099 0
v -416 971 0
v -1408 779 0
v -1408 811 0
v -1536 811 0
v -1536 779 0
v -896 43 0
v -896 75 0
v -1024 75 0
v -1024 43 0
v -384 1099 0
v -384 1227 0
v -416 1227 0
v -416 1099 0
v -992 0 0
v -992 43 0
v -1056 43 0
v -1056 0 0
v -448 1291 0
v -448 1419 0
v -480 1419 0
v -480 1291 0
v -1536 779 0
v -1536 811 0
v -1632 811 0
v -1632 779 0
v -1984 299 0
v -1984 395 0
v -2016 395 0
v -2016 299 0
v -1024 43 0
v -1024 75 0
v -1120 75 0
v -1120 43 0
v -704 1803 0
v -704 1835 0
v -800 1835 0
v -800 1803 0
v -1984 203 0
v -1984 299 0
v -2016 299 0
v -2016 203 0
v -960 1643 0
v -960 1707 0
v -992 1707 0
v -992 1643 0
v -1632 1387 0
v -1632 1451 0
v -1664 1451 0
v -1664 1387 0
v -32 171 0
v -32 203 0
v -96 203 0
v -96 171 0
v -128 139 0
v -128 171 0
v -192 171 0
v -192 139 0
v -1344 11 0
v -1344 43 0
v -1408 43 0
v -1408 11 0
v -1088 1483 0
v -1088 1515 0
v -1152 1515 0
v -1152 1483 0
v -1568 491 0
v -1568 523 0
v -1632 523 0
v -1632 491 0
v -2016 267 0
v -2016 331 0
v -2047 331 0
v -2047 267 0
v -1632 875 0
v -1632 939 0
v -1664 939 0
v -1664 875 0
v -1536 715 0
v -1536 779 0
v -1568 779 0
v -1568 715 0
v -160 843 0
v -160 875 0
v -224 875 0
v -224 843 0
v -576 43 0
v -576 107 0
v -608 107 0
v -608 43 0
v -896 11 0
v -896 43 0
v -960 43 0
v -960 11 0
v -1248 1291 0
v -1248 1355 0
v -1280 1355 0
v -1280 1291 0
v -448 139 0
v -448 171 0
v -512 171 0
v -512 139 0
v -1280 11 0
v -1280 43 0
v -1344 43 0
v -1344 11 0
v -1472 939 0
v -1472 1003 0
v -1504 1003 0
v -1504 939 0
v -1472 1003 0
v -1472 1067 0
v -1504 1067 0
v -1504 1003 0
v -1600 811 0
v -1600 875 0
v -1632 875 0
v -1632 811 0
v -1600 875 0
v -1600 939 0
v -1632 939 0
v -1632 875 0
v -1216 1291 0
v -1216 1355 0
v -1248 1355 0
v -1248 1291 0
v -416 1355 0
v -416 1419 0
v -448 1419 0
v -448 1355 0
v -800 1803 0
v -800 1835 0
v -864 1835 0
v -864 1803 0
v -1216 1355 0
v -1216 1419 0
v -1248 1419 0
v -1248 1355 0
v -416 1291 0
v -416 1355 0
v -448 1355 0
v -448 1291 0
v -1792 491 0
v -1792 523 0
v -1856 523 0
v -1856 491 0
v -256 139 0
v -256 171 0
v -320 171 0
v -320 139 0
v -320 139 0
v -320 171 0
v -384 171 0
v -384 139 0
v -1728 491 0
v -1728 523 0
v -1792 523 0
v -1792 491 0
v -1536 555 0
v -1536 619 0
v -1568 619 0
v -1568 555 0
v -1536 491 0
v -1536 555 0
v -1568 555 0
v -1568 491 0
v -256 619 0
v -256 651 0
v -288 651 0
v -288 619 0
v -320 683 0
v -320 715 0
v -352 715 0
v -352 683 0
v -1568 811 0
v -1568 843 0
v -1600 843 0
v -1600 811 0
v -1344 779 0
v -1344 811 0
v -1376 811 0
v -1376 779 0
v -320 811 0
v -320 843 0
v -352 843 0
v -352 811 0
v -928 0 0
v -928 11 0
v -960 11 0
v -960 0 0
v -1056 11 0
v -1056 43 0
v -1088 43 0
v -1088 11 0
v -800 43 0
v -800 75 0
v -832 75 0
v -832 43 0
v -32 523 0
v -32 555 0
v -64 555 0
v -64 523 0
v -608 75 0
v -608 107 0
v -640 107 0
v -640 75 0
v -128 811 0
v -128 843 0
v -160 843 0
v -160 811 0
v -608 1739 0
v -608 1771 0
v -640 1771 0
v -640 1739 0
v -896 1739 0
v -896 1771 0
v -928 1771 0
v -928 1739 0
v -1152 1483 0
v -1152 1515 0
v -1184 1515 0
v -1184 1483 0
v -192 139 0
v -192 171 0
v -224 171 0
v -224 139 0
v -96 171 0
v -96 203 0
v -128 203 0
v -128 171 0
v -1344 1163 0
v -1344 1195 0
v -1376 1195 0
v -1376 1163 0
v -1408 1099 0
v -1408 1131 0
v -1440 1131 0
v -1440 1099 0
v -1472 1387 0
v -1472 1419 0
v -1504 1419 0
v -1504 1387 0
v -992 1643 0
v -992 1675 0
v -1024 1675 0
v -1024 1643 0
v -1568 1451 0
v -1568 1483 0
v -1600 1483 0
v -1600 1451 0
vt 0.00048828125 0.000837504864
vt 0.00048828125 0.483249605
vt 0.453613281 0.483249605
vt 0.453613281 0.000837504864
vt 0.454589844 0.000837504864
vt 0.454589844 0.456448913
vt 0.907714844 0.456448913
vt 0.907714844 0.000837504864
vt 0.454589844 0.458123982
vt 0.454589844 0.833333313
vt 0.688964844 0.833333313
vt 0.688964844 0.458123982
vt 0.689941406 0.458123982
vt 0.689941406 0.833333313
vt 0.830566406 0.833333313
vt 0.830566406 0.458123982
vt 0.831542969 0.458123982
vt 0.831542969 0.699329972
vt 0.987792969 0.699329972
vt 0.987792969 0.458123982
vt 0.00048828125 0.484924614
vt 0.00048828125 0.726130664
vt 0.156738281 0.726130664
vt 0.156738281 0.484924614
vt 0.157714844 0.484924614
vt 0.157714844 0.726130664
vt 0.251464844 0.726130664
vt 0.251464844 0.484924614
vt 0.00048828125 0.727805734
vt 0.00048828125 0.808207691
vt 0.281738281 0.808207691
vt 0.281738281 0.727805734
vt 0.00048828125 0.80988276
vt 0.00048828125 0.890284777
vt 0.281738281 0.890284777
vt 0.281738281 0.80988276
vt 0.282714844 0.484924614
vt 0.282714844 0.645728648
vt 0.407714844 0.645728648
vt 0.407714844 0.484924614
vt 0.282714844 0.647403717
vt 0.282714844 0.835008383
vt 0.345214844 0.835008383
vt 0.345214844 0.647403717
vt 0.346191406 0.647403717
vt 0.346191406 0.808207691
vt 0.408691406 0.808207691
vt 0.408691406 0.647403717
vt 0.831542969 0.701004982
vt 0.831542969 0.835008383
vt 0.878417969 0.835008383
vt 0.878417969 0.701004982
vt 0.879394531 0.701004982
vt 0.879394531 0.781406999
vt 0.941894531 0.781406999
vt 0.941894531 0.701004982
vt 0.409667969 0.484924614
vt 0.409667969 0.645728648
vt 0.440917969 0.645728648
vt 0.440917969 0.484924614
vt 0.409667969 0.647403717
vt 0.409667969 0.781406999
vt 0.440917969 0.781406999
vt 0.440917969 0.647403717
vt 0.454589844 0.835008383
vt 0.454589844 0.861809015
vt 0.595214844 0.861809015
vt 0.595214844 0.835008383
vt 0.596191406 0.835008383
vt 0.596191406 0.861809015
vt 0.736816406 0.861809015
vt 0.736816406 0.835008383
vt 0.942871094 0.701004982
vt 0.942871094 0.781406999
vt 0.989746094 0.781406999
vt 0.989746094 0.701004982
vt 0.879394531 0.783082068
vt 0.879394531 0.836683393
vt 0.941894531 0.836683393
vt 0.941894531 0.783082068
vt 0.346191406 0.80988276
vt 0.346191406 0.863484085
vt 0.408691406 0.863484085
vt 0.408691406 0.80988276
vt 0.737792969 0.835008383
vt 0.737792969 0.888609707
vt 0.800292969 0.888609707
vt 0.800292969 0.835008383
vt 0.942871094 0.783082068
vt 0.942871094 0.836683393
vt 0.989746094 0.836683393
vt 0.989746094 0.783082068
vt 0.409667969 0.783082068
vt 0.409667969 0.863484085
vt 0.440917969 0.863484085
vt 0.440917969 0.783082068
vt 0.282714844 0.836683393
vt 0.282714844 0.890284777
vt 0.329589844 0.890284777
vt 0.329589844 0.836683393
vt 0.831542969 0.836683393
vt 0.831542969 0.917085409
vt 0.862792969 0.917085409
vt 0.862792969 0.836683393
vt 0.879394531 0.838358462
vt 0.879394531 0.918760478
vt 0.910644531 0.918760478
vt 0.910644531 0.838358462
vt 0.911621094 0.838358462
vt 0.911621094 0.891959786
vt 0.958496094 0.891959786
vt 0.958496094 0.838358462
vt 0.454589844 0.863484085
vt 0.454589844 0.890284777
vt 0.548339844 0.890284777
vt 0.548339844 0.863484085
vt 0.549316406 0.863484085
vt 0.549316406 0.890284777
vt 0.643066406 0.890284777
vt 0.643066406 0.863484085
vt 0.959472656 0.838358462
vt 0.959472656 0.918760478
vt 0.990722656 0.918760478
vt 0.990722656 0.838358462
vt 0.801269531 0.835008383
vt 0.801269531 0.969011724
vt 0.816894531 0.969011724
vt 0.816894531 0.835008383
vt 0.644042969 0.863484085
vt 0.644042969 0.917085409
vt 0.675292969 0.917085409
vt 0.675292969 0.863484085
vt 0.676269531 0.863484085
vt 0.676269531 0.917085409
vt 0.707519531 0.917085409
vt 0.707519531 0.863484085
vt 0.346191406 0.865159154
vt 0.346191406 0.918760478
vt 0.377441406 0.918760478
vt 0.377441406 0.865159154
vt 0.378417969 0.865159154
vt 0.378417969 0.918760478
vt 0.409667969 0.918760478
vt 0.409667969 0.865159154
vt 0.410644531 0.865159154
vt 0.410644531 0.918760478
vt 0.441894531 0.918760478
vt 0.441894531 0.865159154
vt 0.737792969 0.890284777
vt 0.737792969 0.943886101
vt 0.769042969 0.943886101
vt 0.769042969 0.890284777
vt 0.00048828125 0.891959786
vt 0.00048828125 0.945561171
vt 0.0317382812 0.945561171
vt 0.0317382812 0.891959786
vt 0.708496094 0.863484085
vt 0.708496094 0.970686793
vt 0.724121094 0.970686793
vt 0.724121094 0.863484085
vt 0.0327148438 0.891959786
vt 0.0327148438 0.918760478
vt 0.0952148438 0.918760478
vt 0.0952148438 0.891959786
vt 0.0961914062 0.891959786
vt 0.0961914062 0.918760478
vt 0.158691406 0.918760478
vt 0.158691406 0.891959786
vt 0.770019531 0.890284777
vt 0.770019531 0.997487426
vt 0.785644531 0.997487426
vt 0.785644531 0.890284777
vt 0.159667969 0.891959786
vt 0.159667969 0.928810716
vt 0.190917969 0.928810716
vt 0.190917969 0.891959786
vt 0.191894531 0.891959786
vt 0.191894531 0.999162495
vt 0.207519531 0.999162495
vt 0.207519531 0.891959786
vt 0.208496094 0.891959786
vt 0.208496094 0.918760478
vt 0.255371094 0.918760478
vt 0.255371094 0.891959786
vt 0.256347656 0.891959786
vt 0.256347656 0.972361803
vt 0.271972656 0.972361803
vt 0.271972656 0.891959786
vt 0.272949219 0.891959786
vt 0.272949219 0.918760478
vt 0.319824219 0.918760478
vt 0.319824219 0.891959786
vt 0.454589844 0.891959786
vt 0.454589844 0.918760478
vt 0.501464844 0.918760478
vt 0.501464844 0.891959786
vt 0.320800781 0.891959786
vt 0.320800781 0.972361803
vt 0.336425781 0.972361803
vt 0.336425781 0.891959786
vt 0.502441406 0.891959786
vt 0.502441406 0.945561171
vt 0.518066406 0.945561171
vt 0.518066406 0.891959786
vt 0.519042969 0.891959786
vt 0.519042969 0.945561171
vt 0.534667969 0.945561171
vt 0.534667969 0.891959786
vt 0.535644531 0.891959786
vt 0.535644531 0.918760478
vt 0.566894531 0.918760478
vt 0.566894531 0.891959786
vt 0.567871094 0.891959786
vt 0.567871094 0.918760478
vt 0.599121094 0.918760478
vt 0.599121094 0.891959786
vt 0.600097656 0.891959786
vt 0.600097656 0.918760478
vt 0.631347656 0.918760478
vt 0.631347656 0.891959786
vt 0.911621094 0.893634856
vt 0.911621094 0.920435488
vt 0.942871094 0.920435488
vt 0.942871094 0.893634856
vt 0.644042969 0.918760478
vt 0.644042969 0.945561171
vt 0.675292969 0.945561171
vt 0.675292969 0.918760478
vt 0.676269531 0.918760478
vt 0.676269531 0.972361803
vt 0.691894531 0.972361803
vt 0.691894531 0.918760478
vt 0.831542969 0.918760478
vt 0.831542969 0.972361803
vt 0.847167969 0.972361803
vt 0.847167969 0.918760478
vt 0.848144531 0.918760478
vt 0.848144531 0.972361803
vt 0.863769531 0.972361803
vt 0.863769531 0.918760478
vt 0.0327148438 0.920435488
vt 0.0327148438 0.94723618
vt 0.0639648438 0.94723618
vt 0.0639648438 0.920435488
vt 0.0649414062 0.920435488
vt 0.0649414062 0.974036872
vt 0.0805664062 0.974036872
vt 0.0805664062 0.920435488
vt 0.0815429688 0.920435488
vt 0.0815429688 0.94723618
vt 0.112792969 0.94723618
vt 0.112792969 0.920435488
vt 0.113769531 0.920435488
vt 0.113769531 0.974036872
vt 0.129394531 0.974036872
vt 0.129394531 0.920435488
vt 0.208496094 0.920435488
vt 0.208496094 0.94723618
vt 0.239746094 0.94723618
vt 0.239746094 0.920435488
vt 0.272949219 0.920435488
vt 0.272949219 0.94723618
vt 0.304199219 0.94723618
vt 0.304199219 0.920435488
vt 0.130371094 0.920435488
vt 0.130371094 0.974036872
vt 0.145996094 0.974036872
vt 0.145996094 0.920435488
vt 0.346191406 0.920435488
vt 0.346191406 0.974036872
vt 0.361816406 0.974036872
vt 0.361816406 0.920435488
vt 0.362792969 0.920435488
vt 0.362792969 0.974036872
vt 0.378417969 0.974036872
vt 0.378417969 0.920435488
vt 0.379394531 0.920435488
vt 0.379394531 0.974036872
vt 0.395019531 0.974036872
vt 0.395019531 0.920435488
vt 0.395996094 0.920435488
vt 0.395996094 0.974036872
vt 0.411621094 0.974036872
vt 0.411621094 0.920435488
vt 0.412597656 0.920435488
vt 0.412597656 0.974036872
vt 0.428222656 0.974036872
vt 0.428222656 0.920435488
vt 0.429199219 0.920435488
vt 0.429199219 0.94723618
vt 0.460449219 0.94723618
vt 0.460449219 0.920435488
vt 0.461425781 0.920435488
vt 0.461425781 0.974036872
vt 0.477050781 0.974036872
vt 0.477050781 0.920435488
vt 0.478027344 0.920435488
vt 0.478027344 0.974036872
vt 0.493652344 0.974036872
vt 0.493652344 0.920435488
vt 0.535644531 0.920435488
vt 0.535644531 0.94723618
vt 0.566894531 0.94723618
vt 0.566894531 0.920435488
vt 0.567871094 0.920435488
vt 0.567871094 0.94723618
vt 0.599121094 0.94723618
vt 0.599121094 0.920435488
vt 0.600097656 0.920435488
vt 0.600097656 0.94723618
vt 0.631347656 0.94723618
vt 0.631347656 0.920435488
vt 0.879394531 0.920435488
vt 0.879394531 0.94723618
vt 0.910644531 0.94723618
vt 0.910644531 0.920435488
vt 0.959472656 0.920435488
vt 0.959472656 0.974036872
vt 0.975097656 0.974036872
vt 0.975097656 0.920435488
vt 0.976074219 0.920435488
vt 0.976074219 0.974036872
vt 0.991699219 0.974036872
vt 0.991699219 0.920435488
vt 0.911621094 0.922110558
vt 0.911621094 0.94891125
vt 0.927246094 0.94891125
vt 0.927246094 0.922110558
vt 0.928222656 0.922110558
vt 0.928222656 0.94891125
vt 0.943847656 0.94891125
vt 0.943847656 0.922110558
vt 0.159667969 0.930485785
vt 0.159667969 0.957286417
vt 0.175292969 0.957286417
vt 0.175292969 0.930485785
vt 0.737792969 0.945561171
vt 0.737792969 0.972361803
vt 0.753417969 0.972361803
vt 0.753417969 0.945561171
vt 0.00048828125 0.94723618
vt 0.00048828125 0.974036872
vt 0.0161132812 0.974036872
vt 0.0161132812 0.94723618
vt 0.502441406 0.94723618
vt 0.502441406 0.957286417
vt 0.518066406 0.957286417
vt 0.518066406 0.94723618
vt 0.519042969 0.94723618
vt 0.519042969 0.974036872
vt 0.534667969 0.974036872
vt 0.534667969 0.94723618
vt 0.644042969 0.94723618
vt 0.644042969 0.974036872
vt 0.659667969 0.974036872
vt 0.659667969 0.94723618
vt 0.0327148438 0.94891125
vt 0.0327148438 0.975711882
vt 0.0483398438 0.975711882
vt 0.0483398438 0.94891125
vt 0.0815429688 0.94891125
vt 0.0815429688 0.975711882
vt 0.0971679688 0.975711882
vt 0.0971679688 0.94891125
vt 0.208496094 0.94891125
vt 0.208496094 0.975711882
vt 0.224121094 0.975711882
vt 0.224121094 0.94891125
vt 0.225097656 0.94891125
vt 0.225097656 0.975711882
vt 0.240722656 0.975711882
vt 0.240722656 0.94891125
vt 0.272949219 0.94891125
vt 0.272949219 0.975711882
vt 0.288574219 0.975711882
vt 0.288574219 0.94891125
vt 0.289550781 0.94891125
vt 0.289550781 0.975711882
vt 0.305175781 0.975711882
vt 0.305175781 0.94891125
vt 0.429199219 0.94891125
vt 0.429199219 0.975711882
vt 0.444824219 0.975711882
vt 0.444824219 0.94891125
vt 0.535644531 0.94891125
vt 0.535644531 0.975711882
vt 0.551269531 0.975711882
vt 0.551269531 0.94891125
vt 0.552246094 0.94891125
vt 0.552246094 0.975711882
vt 0.567871094 0.975711882
vt 0.567871094 0.94891125
vt 0.568847656 0.94891125
vt 0.568847656 0.975711882
vt 0.584472656 0.975711882
vt 0.584472656 0.94891125
vt 0.585449219 0.94891125
vt 0.585449219 0.975711882
vt 0.601074219 0.975711882
vt 0.601074219 0.94891125
vt 0.602050781 0.94891125
vt 0.602050781 0.975711882
vt 0.617675781 0.975711882
vt 0.617675781 0.94891125
vt 0.618652344 0.94891125
vt 0.618652344 0.975711882
vt 0.634277344 0.975711882
vt 0.634277344 0.94891125
g yuekecheng_3-mesh_0
f 3/3/3 2/2/2 1/1/1
f 1/1/1 4/4/4 3/3/3
f 7/7/7 6/6/6 5/5/5
f 5/5/5 8/8/8 7/7/7
f 11/11/11 10/10/10 9/9/9
f 9/9/9 12/12/12 11/11/11
f 15/15/15 14/14/14 13/13/13
f 13/13/13 16/16/16 15/15/15
f 19/19/19 18/18/18 17/17/17
f 17/17/17 20/20/20 19/19/19
f 23/23/23 22/22/22 21/21/21
f 21/21/21 24/24/24 23/23/23
f 27/27/27 26/26/26 25/25/25
f 25/25/25 28/28/28 27/27/27
f 31/31/31 30/30/30 29/29/29
f 29/29/29 32/32/32 31/31/31
f 35/35/35 34/34/34 33/33/33
f 33/33/33 36/36/36 35/35/35
f 39/39/39 38/38/38 37/37/37
f 37/37/37 40/40/40 39/39/39
f 43/43/43 42/42/42 41/41/41
f 41/41/41 44/44/44 43/43/43
f 47/47/47 46/46/46 45/45/45
f 45/45/45 48/48/48 47/47/47
f 51/51/51 50/50/50 49/49/49
f 49/49/49 52/52/52 51/51/51
f 55/55/55 54/54/54 53/53/53
f 53/53/53 56/56/56 55/55/55
f 59/59/59 58/58/58 57/57/57
f 57/57/57 60/60/60 59/59/59
f 63/63/63 62/62/62 61/61/61
f 61/61/61 64/64/64 63/63/63
f 67/67/67 66/66/66 65/65/65
f 65/65/65 68/68/68 67/67/67
f 71/71/71 70/70/70 69/69/69
f 69/69/69 72/72/72 71/71/71
f 75/75/75 74/74/74 73/73/73
f 73/73/73 76/76/76 75/75/75
f 79/79/79 78/78/78 77/77/77
f 77/77/77 80/80/80 79/79/79
f 83/83/83 82/82/82 81/81/81
f 81/81/81 84/84/84 83/83/83
f 87/87/87 86/86/86 85/85/85
f 85/85/85 88/88/88 87/87/87
f 91/91/91 90/90/90 89/89/89
f 89/89/89 92/92/92 91/91/91
f 95/95/95 94/94/94 93/93/93
f 93/93/93 96/96/96 95/95/95
f 99/99/99 98/98/98 97/97/97
f 97/97/97 100/100/100 99/99/99
f 103/103/103 102/102/102 101/101/101
f 101/101/101 104/104/104 103/103/103
f 107/107/107 106/106/106 105/105/105
f 105/105/105 108/108/108 107/107/107
f 111/111/111 110/110/110 109/109/109
f 109/109/109 112/112/112 111/111/111
f 115/115/115 114/114/114 113/113/113
f 113/113/113 116/116/116 115/115/115
f 119/119/119 118/118/118 117/117/117
f 117/117/117 120/120/120 119/119/119
f 123/123/123 122/122/122 121/121/121
f 121/121/121 124/124/124 123/123/123
f 127/127/127 126/126/126 125/125/125
f 125/125/125 128/128/128 127/127/127
f 131/131/131 130/130/130 129/129/129
f 129/129/129 132/132/132 131/131/131
f 135/135/135 134/134/134 133/133/133
f 133/133/133 136/136/136 135/135/135
f 139/139/139 138/138/138 137/137/137
f 137/137/137 140/140/140 139/139/139
f 143/143/143 142/142/142 141/141/141
f 141/141/141 144/144/144 143/143/143
f 147/147/147 146/146/146 145/145/145
f 145/145/145 148/148/148 147/147/147
f 151/151/151 150/150/150 149/149/149
f 149/149/149 152/152/152 151/151/151
f 155/155/155 154/154/154 153/153/153
f 153/153/153 156/156/156 155/155/155
f 159/159/159 158/158/158 157/157/157
f 157/157/157 160/160/160 159/159/159
f 163/163/163 162/162/162 161/161/161
f 161/161/161 164/164/164 163/163/163
f 167/167/167 166/166/166 165/165/165
f 165/165/165 168/168/168 167/167/167
f 171/171/171 170/170/170 169/169/169
f 169/169/169 172/172/172 171/171/171
f 175/175/175 174/174/174 173/173/173
f 173/173/173 176/176/176 175/175/175
f 179/179/179 178/178/178 177/177/177
f 177/177/177 180/180/180 179/179/179
f 183/183/183 182/182/182 181/181/181
f 181/181/181 184/184/184 183/183/183
f 187/187/187 186/186/186 185/185/185
f 185/185/185 188/188/188 187/187/187
f 191/191/191 190/190/190 189/189/189
f 189/189/189 192/192/192 191/191/191
f 195/195/195 194/194/194 193/193/193
f 193/193/193 196/196/196 195/195/195
f 199/199/199 198/198/198 197/197/197
f 197/197/197 200/200/200 199/199/199
f 203/203/203 202/202/202 201/201/201
f 201/201/201 204/204/204 203/203/203
f 207/207/207 206/206/206 205/205/205
f 205/205/205 208/208/208 207/207/207
f 211/211/211 210/210/210 209/209/209
f 209/209/209 212/212/212 211/211/211
f 215/215/215 214/214/214 213/213/213
f 213/213/213 216/216/216 215/215/215
f 219/219/219 218/218/218 217/217/217
f 217/217/217 220/220/220 219/219/219
f 223/223/223 222/222/222 221/221/221
f 221/221/221 224/224/224 223/223/223
f 227/227/227 226/226/226 225/225/225
f 225/225/225 228/228/228 227/227/227
f 231/231/231 230/230/230 229/229/229
f 229/229/229 232/232/232 231/231/231
f 235/235/235 234/234/234 233/233/233
f 233/233/233 236/236/236 235/235/235
f 239/239/239 238/238/238 237/237/237
f 237/237/237 240/240/240 239/239/239
f 243/243/243 242/242/242 241/241/241
f 241/241/241 244/244/244 243/243/243
f 247/247/247 246/246/246 245/245/245
f 245/245/245 248/248/248 247/247/247
f 251/251/251 250/250/250 249/249/249
f 249/249/249 252/252/252 251/251/251
f 255/255/255 254/254/254 253/253/253
f 253/253/253 256/256/256 255/255/255
f 259/259/259 258/258/258 257/257/257
f 257/257/257 260/260/260 259/259/259
f 263/263/263 262/262/262 261/261/261
f 261/261/261 264/264/264 263/263/263
f 267/267/267 266/266/266 265/265/265
f 265/265/265 268/268/268 267/267/267
f 271/271/271 270/270/270 269/269/269
f 269/269/269 272/272/272 271/271/271
f 275/275/275 274/274/274 273/273/273
f 273/273/273 276/276/276 275/275/275
f 279/279/279 278/278/278 277/277/277
f 277/277/277 280/280/280 279/279/279
f 283/283/283 282/282/282 281/281/281
f 281/281/281 284/284/284 283/283/283
f 287/287/287 286/286/286 285/285/285
f 285/285/285 288/288/288 287/287/287
f 291/291/291 290/290/290 289/289/289
f 289/289/289 292/292/292 291/291/291
f 295/295/295 294/294/294 293/293/293
f 293/293/293 296/296/296 295/295/295
f 299/299/299 298/298/298 297/297/297
f 297/297/297 300/300/300 299/299/299
f 303/303/303 302/302/302 301/301/301
f 301/301/301 304/304/304 303/303/303
f 307/307/307 306/306/306 305/305/305
f 305/305/305 308/308/308 307/307/307
f 311/311/311 310/310/310 309/309/309
f 309/309/309 312/312/312 311/311/311
f 315/315/315 314/314/314 313/313/313
f 313/313/313 316/316/316 315/315/315
f 319/319/319 318/318/318 317/317/317
f 317/317/317 320/320/320 319/319/319
f 323/323/323 322/322/322 321/321/321
f 321/321/321 324/324/324 323/323/323
f 327/327/327 326/326/326 325/325/325
f 325/325/325 328/328/328 327/327/327
f 331/331/331 330/330/330 329/329/329
f 329/329/329 332/332/332 331/331/331
f 335/335/335 334/334/334 333/333/333
f 333/333/333 336/336/336 335/335/335
f 339/339/339 338/338/338 337/337/337
f 337/337/337 340/340/340 339/339/339
f 343/343/343 342/342/342 341/341/341
f 341/341/341 344/344/344 343/343/343
f 347/347/347 346/346/346 345/345/345
f 345/345/345 348/348/348 347/347/347
f 351/351/351 350/350/350 349/349/349
f 349/349/349 352/352/352 351/351/351
f 355/355/355 354/354/354 353/353/353
f 353/353/353 356/356/356 355/355/355
f 359/359/359 358/358/358 357/357/357
f 357/357/357 360/360/360 359/359/359
f 363/363/363 362/362/362 361/361/361
f 361/361/361 364/364/364 363/363/363
f 367/367/367 366/366/366 365/365/365
f 365/365/365 368/368/368 367/367/367
f 371/371/371 370/370/370 369/369/369
f 369/369/369 372/372/372 371/371/371
f 375/375/375 374/374/374 373/373/373
f 373/373/373 376/376/376 375/375/375
f 379/379/379 378/378/378 377/377/377
f 377/377/377 380/380/380 379/379/379
f 383/383/383 382/382/382 381/381/381
f 381/381/381 384/384/384 383/383/383
f 387/387/387 386/386/386 385/385/385
f 385/385/385 388/388/388 387/387/387
f 391/391/391 390/390/390 389/389/389
f 389/389/389 392/392/392 391/391/391
f 395/395/395 394/394/394 393/393/393
f 393/393/393 396/396/396 395/395/395
f 399/399/399 398/398/398 397/397/397
f 397/397/397 400/400/400 399/399/399
f 403/403/403 402/402/402 401/401/401
f 401/401/401 404/404/404 403/403/403
f 407/407/407 406/406/406 405/405/405
f 405/405/405 408/408/408 407/407/407
