g luodeni_alter_rw-mesh
v -544 709 0
v -544 1189 0
v -1376 1189 0
v -1376 709 0
v -544 261 0
v -544 709 0
v -1376 709 0
v -1376 261 0
v -128 357 0
v -128 581 0
v -544 581 0
v -544 357 0
v -1376 805 0
v -1376 1285 0
v -1568 1285 0
v -1568 805 0
v -1376 357 0
v -1376 805 0
v -1568 805 0
v -1568 357 0
v -384 645 0
v -384 901 0
v -544 901 0
v -544 645 0
v -1568 933 0
v -1568 1189 0
v -1728 1189 0
v -1728 933 0
v -576 1189 0
v -576 1349 0
v -800 1349 0
v -800 1189 0
v -832 101 0
v -832 261 0
v -992 261 0
v -992 101 0
v -288 197 0
v -288 357 0
v -448 357 0
v -448 197 0
v -1696 837 0
v -1696 933 0
v -1888 933 0
v -1888 837 0
v -1568 485 0
v -1568 677 0
v -1664 677 0
v -1664 485 0
v -1216 1189 0
v -1216 1285 0
v -1376 1285 0
v -1376 1189 0
v -1568 677 0
v -1568 773 0
v -1728 773 0
v -1728 677 0
v -32 293 0
v -32 421 0
v -128 421 0
v -128 293 0
v -1568 773 0
v -1568 837 0
v -1728 837 0
v -1728 773 0
v -864 5 0
v -864 101 0
v -960 101 0
v -960 5 0
v -1248 165 0
v -1248 261 0
v -1344 261 0
v -1344 165 0
v -1024 1189 0
v -1024 1317 0
v -1088 1317 0
v -1088 1189 0
v -320 613 0
v -320 741 0
v -384 741 0
v -384 613 0
v -608 165 0
v -608 229 0
v -736 229 0
v -736 165 0
v -1888 869 0
v -1888 997 0
v -1952 997 0
v -1952 869 0
v -1728 773 0
v -1728 837 0
v -1856 837 0
v -1856 773 0
v -448 581 0
v -448 645 0
v -544 645 0
v -544 581 0
v -1600 837 0
v -1600 901 0
v -1696 901 0
v -1696 837 0
v -640 69 0
v -640 133 0
v -736 133 0
v -736 69 0
v -64 517 0
v -64 613 0
v -128 613 0
v -128 517 0
v -1376 229 0
v -1376 325 0
v -1440 325 0
v -1440 229 0
v -320 101 0
v -320 197 0
v -384 197 0
v -384 101 0
v -480 901 0
v -480 997 0
v -544 997 0
v -544 901 0
v -480 997 0
v -480 1093 0
v -544 1093 0
v -544 997 0
v -480 261 0
v -480 357 0
v -544 357 0
v -544 261 0
v -480 1125 0
v -480 1189 0
v -544 1189 0
v -544 1125 0
v -1152 1189 0
v -1152 1253 0
v -1216 1253 0
v -1216 1189 0
v -768 165 0
v -768 229 0
v -832 229 0
v -832 165 0
v -1984 1061 0
v -1984 1125 0
v -2047 1125 0
v -2047 1061 0
v -448 101 0
v -448 165 0
v -512 165 0
v -512 101 0
v -576 229 0
v -576 261 0
v -704 261 0
v -704 229 0
v -480 197 0
v -480 261 0
v -544 261 0
v -544 197 0
v -704 229 0
v -704 261 0
v -832 261 0
v -832 229 0
v -608 1349 0
v -608 1381 0
v -704 1381 0
v -704 1349 0
v -1952 997 0
v -1952 1093 0
v -1984 1093 0
v -1984 997 0
v -352 805 0
v -352 869 0
v -384 869 0
v -384 805 0
v -1568 901 0
v -1568 933 0
v -1632 933 0
v -1632 901 0
v -1728 741 0
v -1728 773 0
v -1792 773 0
v -1792 741 0
v -128 581 0
v -128 613 0
v -192 613 0
v -192 581 0
v -1664 581 0
v -1664 645 0
v -1696 645 0
v -1696 581 0
v -544 1221 0
v -544 1285 0
v -576 1285 0
v -576 1221 0
v -1088 1285 0
v -1088 1317 0
v -1152 1317 0
v -1152 1285 0
v -1568 1221 0
v -1568 1285 0
v -1600 1285 0
v -1600 1221 0
v -1088 1189 0
v -1088 1253 0
v -1120 1253 0
v -1120 1189 0
v -992 1189 0
v -992 1253 0
v -1024 1253 0
v -1024 1189 0
v -1440 197 0
v -1440 261 0
v -1472 261 0
v -1472 197 0
v -128 293 0
v -128 357 0
v -160 357 0
v -160 293 0
v -576 37 0
v -576 101 0
v -608 101 0
v -608 37 0
v -992 197 0
v -992 261 0
v -1024 261 0
v -1024 197 0
v -224 325 0
v -224 357 0
v -288 357 0
v -288 325 0
v -1600 357 0
v -1600 421 0
v -1632 421 0
v -1632 357 0
v -96 421 0
v -96 485 0
v -128 485 0
v -128 421 0
v -352 69 0
v -352 101 0
v -416 101 0
v -416 69 0
v -0 325 0
v -0 389 0
v -32 389 0
v -32 325 0
v -608 133 0
v -608 165 0
v -672 165 0
v -672 133 0
v -32 229 0
v -32 293 0
v -64 293 0
v -64 229 0
v -1568 357 0
v -1568 421 0
v -1600 421 0
v -1600 357 0
v -1568 421 0
v -1568 485 0
v -1600 485 0
v -1600 421 0
v -1728 1093 0
v -1728 1157 0
v -1760 1157 0
v -1760 1093 0
v -800 1221 0
v -800 1285 0
v -832 1285 0
v -832 1221 0
v -1632 1189 0
v -1632 1221 0
v -1696 1221 0
v -1696 1189 0
v -1952 933 0
v -1952 997 0
v -1984 997 0
v -1984 933 0
v -704 1349 0
v -704 1381 0
v -768 1381 0
v -768 1349 0
v -1568 1189 0
v -1568 1221 0
v -1632 1221 0
v -1632 1189 0
v -1440 1285 0
v -1440 1317 0
v -1504 1317 0
v -1504 1285 0
v -448 293 0
v -448 357 0
v -480 357 0
v -480 293 0
v -192 293 0
v -192 357 0
v -224 357 0
v -224 293 0
v -1504 1285 0
v -1504 1317 0
v -1568 1317 0
v -1568 1285 0
v -1792 933 0
v -1792 965 0
v -1856 965 0
v -1856 933 0
v -416 933 0
v -416 997 0
v -448 997 0
v -448 933 0
v -160 261 0
v -160 293 0
v -192 293 0
v -192 261 0
v -384 613 0
v -384 645 0
v -416 645 0
v -416 613 0
v -64 261 0
v -64 293 0
v -96 293 0
v -96 261 0
v -1504 325 0
v -1504 357 0
v -1536 357 0
v -1536 325 0
v -256 293 0
v -256 325 0
v -288 325 0
v -288 293 0
v -1600 453 0
v -1600 485 0
v -1632 485 0
v -1632 453 0
v -1632 357 0
v -1632 389 0
v -1664 389 0
v -1664 357 0
v -64 421 0
v -64 453 0
v -96 453 0
v -96 421 0
v -1408 325 0
v -1408 357 0
v -1440 357 0
v -1440 325 0
v -416 581 0
v -416 613 0
v -448 613 0
v -448 581 0
v -32 517 0
v -32 549 0
v -64 549 0
v -64 517 0
v -736 165 0
v -736 197 0
v -768 197 0
v -768 165 0
v -480 165 0
v -480 197 0
v -512 197 0
v -512 165 0
v -800 133 0
v -800 165 0
v -832 165 0
v -832 133 0
v -448 69 0
v -448 101 0
v -480 101 0
v -480 69 0
v -512 101 0
v -512 133 0
v -544 133 0
v -544 101 0
v -384 165 0
v -384 197 0
v -416 197 0
v -416 165 0
v -1344 229 0
v -1344 261 0
v -1376 261 0
v -1376 229 0
v -1216 229 0
v -1216 261 0
v -1248 261 0
v -1248 229 0
v -0 197 0
v -0 229 0
v -32 229 0
v -32 197 0
v -832 5 0
v -832 37 0
v -864 37 0
v -864 5 0
v -256 197 0
v -256 229 0
v -288 229 0
v -288 197 0
v -1632 1317 0
v -1632 1349 0
v -1664 1349 0
v -1664 1317 0
v -800 1189 0
v -800 1221 0
v -832 1221 0
v -832 1189 0
v -1600 1253 0
v -1600 1285 0
v -1632 1285 0
v -1632 1253 0
v -960 1189 0
v -960 1221 0
v -992 1221 0
v -992 1189 0
v -832 1189 0
v -832 1221 0
v -864 1221 0
v -864 1189 0
v -1728 1061 0
v -1728 1093 0
v -1760 1093 0
v -1760 1061 0
v -448 261 0
v -448 293 0
v -480 293 0
v -480 261 0
v -32 197 0
v -32 229 0
v -64 229 0
v -64 197 0
v -192 261 0
v -192 293 0
v -224 293 0
v -224 261 0
v -416 901 0
v -416 933 0
v -448 933 0
v -448 901 0
v -1856 933 0
v -1856 965 0
v -1888 965 0
v -1888 933 0
v -448 901 0
v -448 933 0
v -480 933 0
v -480 901 0
v -1984 933 0
v -1984 965 0
v -2016 965 0
v -2016 933 0
v -1568 837 0
v -1568 869 0
v -1600 869 0
v -1600 837 0
v -352 741 0
v -352 773 0
v -384 773 0
v -384 741 0
v -224 741 0
v -224 773 0
v -256 773 0
v -256 741 0
v -448 965 0
v -448 997 0
v -480 997 0
v -480 965 0
v -2016 1125 0
v -2016 1157 0
v -2047 1157 0
v -2047 1125 0
v -1120 1189 0
v -1120 1221 0
v -1152 1221 0
v -1152 1189 0
v -512 1093 0
v -512 1125 0
v -544 1125 0
v -544 1093 0
v -1920 997 0
v -1920 1029 0
v -1952 1029 0
v -1952 997 0
v -1984 1029 0
v -1984 1061 0
v -2016 1061 0
v -2016 1029 0
vt 0.00048828125 0.00111109018
vt 0.00048828125 0.534444451
vt 0.406738281 0.534444451
vt 0.406738281 0.00111109018
vt 0.407714844 0.00111109018
vt 0.407714844 0.49888891
vt 0.813964844 0.49888891
vt 0.813964844 0.00111109018
vt 0.407714844 0.50111115
vt 0.407714844 0.75
vt 0.610839844 0.75
vt 0.610839844 0.50111115
vt 0.814941406 0.00111109018
vt 0.814941406 0.534444451
vt 0.908691406 0.534444451
vt 0.908691406 0.00111109018
vt 0.611816406 0.50111115
vt 0.611816406 0.99888891
vt 0.705566406 0.99888891
vt 0.705566406 0.50111115
vt 0.909667969 0.00111109018
vt 0.909667969 0.285555542
vt 0.987792969 0.285555542
vt 0.987792969 0.00111109018
vt 0.909667969 0.287777781
vt 0.909667969 0.572222233
vt 0.987792969 0.572222233
vt 0.987792969 0.287777781
vt 0.00048828125 0.536666632
vt 0.00048828125 0.714444458
vt 0.109863281 0.714444458
vt 0.109863281 0.536666632
vt 0.706542969 0.50111115
vt 0.706542969 0.678888917
vt 0.784667969 0.678888917
vt 0.784667969 0.50111115
vt 0.110839844 0.536666632
vt 0.110839844 0.714444458
vt 0.188964844 0.714444458
vt 0.188964844 0.536666632
vt 0.189941406 0.536666632
vt 0.189941406 0.643333316
vt 0.283691406 0.643333316
vt 0.283691406 0.536666632
vt 0.284667969 0.536666632
vt 0.284667969 0.75
vt 0.331542969 0.75
vt 0.331542969 0.536666632
vt 0.814941406 0.536666632
vt 0.814941406 0.643333316
vt 0.893066406 0.643333316
vt 0.893066406 0.536666632
vt 0.909667969 0.574444413
vt 0.909667969 0.681111097
vt 0.987792969 0.681111097
vt 0.987792969 0.574444413
vt 0.332519531 0.536666632
vt 0.332519531 0.678888917
vt 0.379394531 0.678888917
vt 0.379394531 0.536666632
vt 0.189941406 0.645555556
vt 0.189941406 0.716666698
vt 0.268066406 0.716666698
vt 0.268066406 0.645555556
vt 0.814941406 0.645555556
vt 0.814941406 0.75222224
vt 0.861816406 0.75222224
vt 0.861816406 0.645555556
vt 0.332519531 0.681111097
vt 0.332519531 0.787777781
vt 0.379394531 0.787777781
vt 0.379394531 0.681111097
vt 0.862792969 0.645555556
vt 0.862792969 0.787777781
vt 0.894042969 0.787777781
vt 0.894042969 0.645555556
vt 0.706542969 0.681111097
vt 0.706542969 0.823333323
vt 0.737792969 0.823333323
vt 0.737792969 0.681111097
vt 0.738769531 0.681111097
vt 0.738769531 0.75222224
vt 0.801269531 0.75222224
vt 0.801269531 0.681111097
vt 0.909667969 0.683333337
vt 0.909667969 0.825555563
vt 0.940917969 0.825555563
vt 0.940917969 0.683333337
vt 0.00048828125 0.716666698
vt 0.00048828125 0.787777781
vt 0.0629882812 0.787777781
vt 0.0629882812 0.716666698
vt 0.941894531 0.683333337
vt 0.941894531 0.75444448
vt 0.988769531 0.75444448
vt 0.988769531 0.683333337
vt 0.0639648438 0.716666698
vt 0.0639648438 0.787777781
vt 0.110839844 0.787777781
vt 0.110839844 0.716666698
vt 0.111816406 0.716666698
vt 0.111816406 0.787777781
vt 0.158691406 0.787777781
vt 0.158691406 0.716666698
vt 0.189941406 0.718888879
vt 0.189941406 0.825555563
vt 0.221191406 0.825555563
vt 0.221191406 0.718888879
vt 0.222167969 0.718888879
vt 0.222167969 0.825555563
vt 0.253417969 0.825555563
vt 0.253417969 0.718888879
vt 0.284667969 0.75222224
vt 0.284667969 0.858888865
vt 0.315917969 0.858888865
vt 0.315917969 0.75222224
vt 0.407714844 0.75222224
vt 0.407714844 0.858888865
vt 0.438964844 0.858888865
vt 0.438964844 0.75222224
vt 0.439941406 0.75222224
vt 0.439941406 0.858888865
vt 0.471191406 0.858888865
vt 0.471191406 0.75222224
vt 0.472167969 0.75222224
vt 0.472167969 0.858888865
vt 0.503417969 0.858888865
vt 0.503417969 0.75222224
vt 0.504394531 0.75222224
vt 0.504394531 0.823333323
vt 0.535644531 0.823333323
vt 0.535644531 0.75222224
vt 0.536621094 0.75222224
vt 0.536621094 0.823333323
vt 0.567871094 0.823333323
vt 0.567871094 0.75222224
vt 0.568847656 0.75222224
vt 0.568847656 0.823333323
vt 0.600097656 0.823333323
vt 0.600097656 0.75222224
vt 0.738769531 0.75444448
vt 0.738769531 0.825555563
vt 0.770019531 0.825555563
vt 0.770019531 0.75444448
vt 0.770996094 0.75444448
vt 0.770996094 0.825555563
vt 0.802246094 0.825555563
vt 0.802246094 0.75444448
vt 0.00048828125 0.790000021
vt 0.00048828125 0.825555563
vt 0.0629882812 0.825555563
vt 0.0629882812 0.790000021
vt 0.814941406 0.75444448
vt 0.814941406 0.825555563
vt 0.846191406 0.825555563
vt 0.846191406 0.75444448
vt 0.0639648438 0.790000021
vt 0.0639648438 0.825555563
vt 0.126464844 0.825555563
vt 0.126464844 0.790000021
vt 0.941894531 0.75666666
vt 0.941894531 0.792222202
vt 0.988769531 0.792222202
vt 0.988769531 0.75666666
vt 0.380371094 0.536666632
vt 0.380371094 0.643333316
vt 0.395996094 0.643333316
vt 0.395996094 0.536666632
vt 0.380371094 0.645555556
vt 0.380371094 0.716666698
vt 0.395996094 0.716666698
vt 0.395996094 0.645555556
vt 0.127441406 0.790000021
vt 0.127441406 0.825555563
vt 0.158691406 0.825555563
vt 0.158691406 0.790000021
vt 0.332519531 0.790000021
vt 0.332519531 0.825555563
vt 0.363769531 0.825555563
vt 0.363769531 0.790000021
vt 0.364746094 0.790000021
vt 0.364746094 0.825555563
vt 0.395996094 0.825555563
vt 0.395996094 0.790000021
vt 0.159667969 0.716666698
vt 0.159667969 0.787777781
vt 0.175292969 0.787777781
vt 0.175292969 0.716666698
vt 0.254394531 0.718888879
vt 0.254394531 0.790000021
vt 0.270019531 0.790000021
vt 0.270019531 0.718888879
vt 0.862792969 0.790000021
vt 0.862792969 0.825555563
vt 0.894042969 0.825555563
vt 0.894042969 0.790000021
vt 0.159667969 0.790000021
vt 0.159667969 0.861111104
vt 0.175292969 0.861111104
vt 0.175292969 0.790000021
vt 0.254394531 0.792222202
vt 0.254394531 0.863333344
vt 0.270019531 0.863333344
vt 0.270019531 0.792222202
vt 0.941894531 0.794444442
vt 0.941894531 0.865555525
vt 0.957519531 0.865555525
vt 0.957519531 0.794444442
vt 0.958496094 0.794444442
vt 0.958496094 0.865555525
vt 0.974121094 0.865555525
vt 0.974121094 0.794444442
vt 0.975097656 0.794444442
vt 0.975097656 0.865555525
vt 0.990722656 0.865555525
vt 0.990722656 0.794444442
vt 0.504394531 0.825555563
vt 0.504394531 0.896666646
vt 0.520019531 0.896666646
vt 0.520019531 0.825555563
vt 0.520996094 0.825555563
vt 0.520996094 0.896666646
vt 0.536621094 0.896666646
vt 0.536621094 0.825555563
vt 0.537597656 0.825555563
vt 0.537597656 0.861111104
vt 0.568847656 0.861111104
vt 0.568847656 0.825555563
vt 0.569824219 0.825555563
vt 0.569824219 0.896666646
vt 0.585449219 0.896666646
vt 0.585449219 0.825555563
vt 0.586425781 0.825555563
vt 0.586425781 0.896666646
vt 0.602050781 0.896666646
vt 0.602050781 0.825555563
vt 0.706542969 0.825555563
vt 0.706542969 0.861111104
vt 0.737792969 0.861111104
vt 0.737792969 0.825555563
vt 0.00048828125 0.827777743
vt 0.00048828125 0.898888886
vt 0.0161132812 0.898888886
vt 0.0161132812 0.827777743
vt 0.0170898438 0.827777743
vt 0.0170898438 0.863333344
vt 0.0483398438 0.863333344
vt 0.0483398438 0.827777743
vt 0.0493164062 0.827777743
vt 0.0493164062 0.898888886
vt 0.0649414062 0.898888886
vt 0.0649414062 0.827777743
vt 0.0659179688 0.827777743
vt 0.0659179688 0.898888886
vt 0.0815429688 0.898888886
vt 0.0815429688 0.827777743
vt 0.0825195312 0.827777743
vt 0.0825195312 0.898888886
vt 0.0981445312 0.898888886
vt 0.0981445312 0.827777743
vt 0.0991210938 0.827777743
vt 0.0991210938 0.898888886
vt 0.114746094 0.898888886
vt 0.114746094 0.827777743
vt 0.115722656 0.827777743
vt 0.115722656 0.898888886
vt 0.131347656 0.898888886
vt 0.131347656 0.827777743
vt 0.189941406 0.827777743
vt 0.189941406 0.863333344
vt 0.221191406 0.863333344
vt 0.221191406 0.827777743
vt 0.132324219 0.827777743
vt 0.132324219 0.898888886
vt 0.147949219 0.898888886
vt 0.147949219 0.827777743
vt 0.222167969 0.827777743
vt 0.222167969 0.863333344
vt 0.253417969 0.863333344
vt 0.253417969 0.827777743
vt 0.332519531 0.827777743
vt 0.332519531 0.863333344
vt 0.363769531 0.863333344
vt 0.363769531 0.827777743
vt 0.364746094 0.827777743
vt 0.364746094 0.863333344
vt 0.395996094 0.863333344
vt 0.395996094 0.827777743
vt 0.738769531 0.827777743
vt 0.738769531 0.898888886
vt 0.754394531 0.898888886
vt 0.754394531 0.827777743
vt 0.755371094 0.827777743
vt 0.755371094 0.898888886
vt 0.770996094 0.898888886
vt 0.770996094 0.827777743
vt 0.771972656 0.827777743
vt 0.771972656 0.863333344
vt 0.803222656 0.863333344
vt 0.803222656 0.827777743
vt 0.814941406 0.827777743
vt 0.814941406 0.863333344
vt 0.846191406 0.863333344
vt 0.846191406 0.827777743
vt 0.862792969 0.827777743
vt 0.862792969 0.898888886
vt 0.878417969 0.898888886
vt 0.878417969 0.827777743
vt 0.879394531 0.827777743
vt 0.879394531 0.863333344
vt 0.895019531 0.863333344
vt 0.895019531 0.827777743
vt 0.909667969 0.827777743
vt 0.909667969 0.863333344
vt 0.925292969 0.863333344
vt 0.925292969 0.827777743
vt 0.284667969 0.861111104
vt 0.284667969 0.896666646
vt 0.300292969 0.896666646
vt 0.300292969 0.861111104
vt 0.301269531 0.861111104
vt 0.301269531 0.896666646
vt 0.316894531 0.896666646
vt 0.316894531 0.861111104
vt 0.407714844 0.861111104
vt 0.407714844 0.896666646
vt 0.423339844 0.896666646
vt 0.423339844 0.861111104
vt 0.424316406 0.861111104
vt 0.424316406 0.896666646
vt 0.439941406 0.896666646
vt 0.439941406 0.861111104
vt 0.440917969 0.861111104
vt 0.440917969 0.896666646
vt 0.456542969 0.896666646
vt 0.456542969 0.861111104
vt 0.457519531 0.861111104
vt 0.457519531 0.896666646
vt 0.473144531 0.896666646
vt 0.473144531 0.861111104
vt 0.474121094 0.861111104
vt 0.474121094 0.896666646
vt 0.489746094 0.896666646
vt 0.489746094 0.861111104
vt 0.159667969 0.863333344
vt 0.159667969 0.898888886
vt 0.175292969 0.898888886
vt 0.175292969 0.863333344
vt 0.537597656 0.863333344
vt 0.537597656 0.898888886
vt 0.553222656 0.898888886
vt 0.553222656 0.863333344
vt 0.706542969 0.863333344
vt 0.706542969 0.898888886
vt 0.722167969 0.898888886
vt 0.722167969 0.863333344
vt 0.0170898438 0.865555525
vt 0.0170898438 0.901111126
vt 0.0327148438 0.901111126
vt 0.0327148438 0.865555525
vt 0.189941406 0.865555525
vt 0.189941406 0.901111126
vt 0.205566406 0.901111126
vt 0.205566406 0.865555525
vt 0.206542969 0.865555525
vt 0.206542969 0.901111126
vt 0.222167969 0.901111126
vt 0.222167969 0.865555525
vt 0.223144531 0.865555525
vt 0.223144531 0.901111126
vt 0.238769531 0.901111126
vt 0.238769531 0.865555525
vt 0.239746094 0.865555525
vt 0.239746094 0.901111126
vt 0.255371094 0.901111126
vt 0.255371094 0.865555525
vt 0.256347656 0.865555525
vt 0.256347656 0.901111126
vt 0.271972656 0.901111126
vt 0.271972656 0.865555525
vt 0.332519531 0.865555525
vt 0.332519531 0.901111126
vt 0.348144531 0.901111126
vt 0.348144531 0.865555525
vt 0.349121094 0.865555525
vt 0.349121094 0.901111126
vt 0.364746094 0.901111126
vt 0.364746094 0.865555525
vt 0.365722656 0.865555525
vt 0.365722656 0.901111126
vt 0.381347656 0.901111126
vt 0.381347656 0.865555525
vt 0.382324219 0.865555525
vt 0.382324219 0.901111126
vt 0.397949219 0.901111126
vt 0.397949219 0.865555525
vt 0.771972656 0.865555525
vt 0.771972656 0.901111126
vt 0.787597656 0.901111126
vt 0.787597656 0.865555525
vt 0.788574219 0.865555525
vt 0.788574219 0.901111126
vt 0.804199219 0.901111126
vt 0.804199219 0.865555525
vt 0.814941406 0.865555525
vt 0.814941406 0.901111126
vt 0.830566406 0.901111126
vt 0.830566406 0.865555525
vt 0.831542969 0.865555525
vt 0.831542969 0.901111126
vt 0.847167969 0.901111126
vt 0.847167969 0.865555525
vt 0.879394531 0.865555525
vt 0.879394531 0.901111126
vt 0.895019531 0.901111126
vt 0.895019531 0.865555525
vt 0.909667969 0.865555525
vt 0.909667969 0.901111126
vt 0.925292969 0.901111126
vt 0.925292969 0.865555525
vt 0.941894531 0.867777765
vt 0.941894531 0.903333306
vt 0.957519531 0.903333306
vt 0.957519531 0.867777765
vt 0.958496094 0.867777765
vt 0.958496094 0.903333306
vt 0.974121094 0.903333306
vt 0.974121094 0.867777765
vt 0.975097656 0.867777765
vt 0.975097656 0.903333306
vt 0.990722656 0.903333306
vt 0.990722656 0.867777765
vt 0.284667969 0.898888886
vt 0.284667969 0.934444427
vt 0.300292969 0.934444427
vt 0.300292969 0.898888886
vt 0.301269531 0.898888886
vt 0.301269531 0.934444427
vt 0.316894531 0.934444427
vt 0.316894531 0.898888886
vt 0.407714844 0.898888886
vt 0.407714844 0.934444427
vt 0.423339844 0.934444427
vt 0.423339844 0.898888886
vt 0.424316406 0.898888886
vt 0.424316406 0.934444427
vt 0.439941406 0.934444427
vt 0.439941406 0.898888886
vt 0.440917969 0.898888886
vt 0.440917969 0.934444427
vt 0.456542969 0.934444427
vt 0.456542969 0.898888886
vt 0.457519531 0.898888886
vt 0.457519531 0.934444427
vt 0.473144531 0.934444427
vt 0.473144531 0.898888886
vt 0.474121094 0.898888886
vt 0.474121094 0.934444427
vt 0.489746094 0.934444427
vt 0.489746094 0.898888886
vt 0.504394531 0.898888886
vt 0.504394531 0.934444427
vt 0.520019531 0.934444427
vt 0.520019531 0.898888886
vt 0.520996094 0.898888886
vt 0.520996094 0.934444427
vt 0.536621094 0.934444427
vt 0.536621094 0.898888886
vt 0.569824219 0.898888886
vt 0.569824219 0.934444427
vt 0.585449219 0.934444427
vt 0.585449219 0.898888886
vt 0.586425781 0.898888886
vt 0.586425781 0.934444427
vt 0.602050781 0.934444427
vt 0.602050781 0.898888886
vt 0.00048828125 0.901111126
vt 0.00048828125 0.936666667
vt 0.0161132812 0.936666667
vt 0.0161132812 0.901111126
vt 0.0493164062 0.901111126
vt 0.0493164062 0.936666667
vt 0.0649414062 0.936666667
vt 0.0649414062 0.901111126
g luodeni_alter_rw-mesh_0
f 3/3/3 2/2/2 1/1/1
f 1/1/1 4/4/4 3/3/3
f 7/7/7 6/6/6 5/5/5
f 5/5/5 8/8/8 7/7/7
f 11/11/11 10/10/10 9/9/9
f 9/9/9 12/12/12 11/11/11
f 15/15/15 14/14/14 13/13/13
f 13/13/13 16/16/16 15/15/15
f 19/19/19 18/18/18 17/17/17
f 17/17/17 20/20/20 19/19/19
f 23/23/23 22/22/22 21/21/21
f 21/21/21 24/24/24 23/23/23
f 27/27/27 26/26/26 25/25/25
f 25/25/25 28/28/28 27/27/27
f 31/31/31 30/30/30 29/29/29
f 29/29/29 32/32/32 31/31/31
f 35/35/35 34/34/34 33/33/33
f 33/33/33 36/36/36 35/35/35
f 39/39/39 38/38/38 37/37/37
f 37/37/37 40/40/40 39/39/39
f 43/43/43 42/42/42 41/41/41
f 41/41/41 44/44/44 43/43/43
f 47/47/47 46/46/46 45/45/45
f 45/45/45 48/48/48 47/47/47
f 51/51/51 50/50/50 49/49/49
f 49/49/49 52/52/52 51/51/51
f 55/55/55 54/54/54 53/53/53
f 53/53/53 56/56/56 55/55/55
f 59/59/59 58/58/58 57/57/57
f 57/57/57 60/60/60 59/59/59
f 63/63/63 62/62/62 61/61/61
f 61/61/61 64/64/64 63/63/63
f 67/67/67 66/66/66 65/65/65
f 65/65/65 68/68/68 67/67/67
f 71/71/71 70/70/70 69/69/69
f 69/69/69 72/72/72 71/71/71
f 75/75/75 74/74/74 73/73/73
f 73/73/73 76/76/76 75/75/75
f 79/79/79 78/78/78 77/77/77
f 77/77/77 80/80/80 79/79/79
f 83/83/83 82/82/82 81/81/81
f 81/81/81 84/84/84 83/83/83
f 87/87/87 86/86/86 85/85/85
f 85/85/85 88/88/88 87/87/87
f 91/91/91 90/90/90 89/89/89
f 89/89/89 92/92/92 91/91/91
f 95/95/95 94/94/94 93/93/93
f 93/93/93 96/96/96 95/95/95
f 99/99/99 98/98/98 97/97/97
f 97/97/97 100/100/100 99/99/99
f 103/103/103 102/102/102 101/101/101
f 101/101/101 104/104/104 103/103/103
f 107/107/107 106/106/106 105/105/105
f 105/105/105 108/108/108 107/107/107
f 111/111/111 110/110/110 109/109/109
f 109/109/109 112/112/112 111/111/111
f 115/115/115 114/114/114 113/113/113
f 113/113/113 116/116/116 115/115/115
f 119/119/119 118/118/118 117/117/117
f 117/117/117 120/120/120 119/119/119
f 123/123/123 122/122/122 121/121/121
f 121/121/121 124/124/124 123/123/123
f 127/127/127 126/126/126 125/125/125
f 125/125/125 128/128/128 127/127/127
f 131/131/131 130/130/130 129/129/129
f 129/129/129 132/132/132 131/131/131
f 135/135/135 134/134/134 133/133/133
f 133/133/133 136/136/136 135/135/135
f 139/139/139 138/138/138 137/137/137
f 137/137/137 140/140/140 139/139/139
f 143/143/143 142/142/142 141/141/141
f 141/141/141 144/144/144 143/143/143
f 147/147/147 146/146/146 145/145/145
f 145/145/145 148/148/148 147/147/147
f 151/151/151 150/150/150 149/149/149
f 149/149/149 152/152/152 151/151/151
f 155/155/155 154/154/154 153/153/153
f 153/153/153 156/156/156 155/155/155
f 159/159/159 158/158/158 157/157/157
f 157/157/157 160/160/160 159/159/159
f 163/163/163 162/162/162 161/161/161
f 161/161/161 164/164/164 163/163/163
f 167/167/167 166/166/166 165/165/165
f 165/165/165 168/168/168 167/167/167
f 171/171/171 170/170/170 169/169/169
f 169/169/169 172/172/172 171/171/171
f 175/175/175 174/174/174 173/173/173
f 173/173/173 176/176/176 175/175/175
f 179/179/179 178/178/178 177/177/177
f 177/177/177 180/180/180 179/179/179
f 183/183/183 182/182/182 181/181/181
f 181/181/181 184/184/184 183/183/183
f 187/187/187 186/186/186 185/185/185
f 185/185/185 188/188/188 187/187/187
f 191/191/191 190/190/190 189/189/189
f 189/189/189 192/192/192 191/191/191
f 195/195/195 194/194/194 193/193/193
f 193/193/193 196/196/196 195/195/195
f 199/199/199 198/198/198 197/197/197
f 197/197/197 200/200/200 199/199/199
f 203/203/203 202/202/202 201/201/201
f 201/201/201 204/204/204 203/203/203
f 207/207/207 206/206/206 205/205/205
f 205/205/205 208/208/208 207/207/207
f 211/211/211 210/210/210 209/209/209
f 209/209/209 212/212/212 211/211/211
f 215/215/215 214/214/214 213/213/213
f 213/213/213 216/216/216 215/215/215
f 219/219/219 218/218/218 217/217/217
f 217/217/217 220/220/220 219/219/219
f 223/223/223 222/222/222 221/221/221
f 221/221/221 224/224/224 223/223/223
f 227/227/227 226/226/226 225/225/225
f 225/225/225 228/228/228 227/227/227
f 231/231/231 230/230/230 229/229/229
f 229/229/229 232/232/232 231/231/231
f 235/235/235 234/234/234 233/233/233
f 233/233/233 236/236/236 235/235/235
f 239/239/239 238/238/238 237/237/237
f 237/237/237 240/240/240 239/239/239
f 243/243/243 242/242/242 241/241/241
f 241/241/241 244/244/244 243/243/243
f 247/247/247 246/246/246 245/245/245
f 245/245/245 248/248/248 247/247/247
f 251/251/251 250/250/250 249/249/249
f 249/249/249 252/252/252 251/251/251
f 255/255/255 254/254/254 253/253/253
f 253/253/253 256/256/256 255/255/255
f 259/259/259 258/258/258 257/257/257
f 257/257/257 260/260/260 259/259/259
f 263/263/263 262/262/262 261/261/261
f 261/261/261 264/264/264 263/263/263
f 267/267/267 266/266/266 265/265/265
f 265/265/265 268/268/268 267/267/267
f 271/271/271 270/270/270 269/269/269
f 269/269/269 272/272/272 271/271/271
f 275/275/275 274/274/274 273/273/273
f 273/273/273 276/276/276 275/275/275
f 279/279/279 278/278/278 277/277/277
f 277/277/277 280/280/280 279/279/279
f 283/283/283 282/282/282 281/281/281
f 281/281/281 284/284/284 283/283/283
f 287/287/287 286/286/286 285/285/285
f 285/285/285 288/288/288 287/287/287
f 291/291/291 290/290/290 289/289/289
f 289/289/289 292/292/292 291/291/291
f 295/295/295 294/294/294 293/293/293
f 293/293/293 296/296/296 295/295/295
f 299/299/299 298/298/298 297/297/297
f 297/297/297 300/300/300 299/299/299
f 303/303/303 302/302/302 301/301/301
f 301/301/301 304/304/304 303/303/303
f 307/307/307 306/306/306 305/305/305
f 305/305/305 308/308/308 307/307/307
f 311/311/311 310/310/310 309/309/309
f 309/309/309 312/312/312 311/311/311
f 315/315/315 314/314/314 313/313/313
f 313/313/313 316/316/316 315/315/315
f 319/319/319 318/318/318 317/317/317
f 317/317/317 320/320/320 319/319/319
f 323/323/323 322/322/322 321/321/321
f 321/321/321 324/324/324 323/323/323
f 327/327/327 326/326/326 325/325/325
f 325/325/325 328/328/328 327/327/327
f 331/331/331 330/330/330 329/329/329
f 329/329/329 332/332/332 331/331/331
f 335/335/335 334/334/334 333/333/333
f 333/333/333 336/336/336 335/335/335
f 339/339/339 338/338/338 337/337/337
f 337/337/337 340/340/340 339/339/339
f 343/343/343 342/342/342 341/341/341
f 341/341/341 344/344/344 343/343/343
f 347/347/347 346/346/346 345/345/345
f 345/345/345 348/348/348 347/347/347
f 351/351/351 350/350/350 349/349/349
f 349/349/349 352/352/352 351/351/351
f 355/355/355 354/354/354 353/353/353
f 353/353/353 356/356/356 355/355/355
f 359/359/359 358/358/358 357/357/357
f 357/357/357 360/360/360 359/359/359
f 363/363/363 362/362/362 361/361/361
f 361/361/361 364/364/364 363/363/363
f 367/367/367 366/366/366 365/365/365
f 365/365/365 368/368/368 367/367/367
f 371/371/371 370/370/370 369/369/369
f 369/369/369 372/372/372 371/371/371
f 375/375/375 374/374/374 373/373/373
f 373/373/373 376/376/376 375/375/375
f 379/379/379 378/378/378 377/377/377
f 377/377/377 380/380/380 379/379/379
f 383/383/383 382/382/382 381/381/381
f 381/381/381 384/384/384 383/383/383
f 387/387/387 386/386/386 385/385/385
f 385/385/385 388/388/388 387/387/387
f 391/391/391 390/390/390 389/389/389
f 389/389/389 392/392/392 391/391/391
f 395/395/395 394/394/394 393/393/393
f 393/393/393 396/396/396 395/395/395
f 399/399/399 398/398/398 397/397/397
f 397/397/397 400/400/400 399/399/399
f 403/403/403 402/402/402 401/401/401
f 401/401/401 404/404/404 403/403/403
f 407/407/407 406/406/406 405/405/405
f 405/405/405 408/408/408 407/407/407
f 411/411/411 410/410/410 409/409/409
f 409/409/409 412/412/412 411/411/411
f 415/415/415 414/414/414 413/413/413
f 413/413/413 416/416/416 415/415/415
f 419/419/419 418/418/418 417/417/417
f 417/417/417 420/420/420 419/419/419
f 423/423/423 422/422/422 421/421/421
f 421/421/421 424/424/424 423/423/423
f 427/427/427 426/426/426 425/425/425
f 425/425/425 428/428/428 427/427/427
f 431/431/431 430/430/430 429/429/429
f 429/429/429 432/432/432 431/431/431
f 435/435/435 434/434/434 433/433/433
f 433/433/433 436/436/436 435/435/435
f 439/439/439 438/438/438 437/437/437
f 437/437/437 440/440/440 439/439/439
f 443/443/443 442/442/442 441/441/441
f 441/441/441 444/444/444 443/443/443
f 447/447/447 446/446/446 445/445/445
f 445/445/445 448/448/448 447/447/447
f 451/451/451 450/450/450 449/449/449
f 449/449/449 452/452/452 451/451/451
f 455/455/455 454/454/454 453/453/453
f 453/453/453 456/456/456 455/455/455
f 459/459/459 458/458/458 457/457/457
f 457/457/457 460/460/460 459/459/459
f 463/463/463 462/462/462 461/461/461
f 461/461/461 464/464/464 463/463/463
f 467/467/467 466/466/466 465/465/465
f 465/465/465 468/468/468 467/467/467
f 471/471/471 470/470/470 469/469/469
f 469/469/469 472/472/472 471/471/471
f 475/475/475 474/474/474 473/473/473
f 473/473/473 476/476/476 475/475/475
f 479/479/479 478/478/478 477/477/477
f 477/477/477 480/480/480 479/479/479
f 483/483/483 482/482/482 481/481/481
f 481/481/481 484/484/484 483/483/483
