g xiyatu_2-mesh
v -224 0 0
v -224 471 0
v -448 471 0
v -448 0 0
v -224 471 0
v -224 951 0
v -448 951 0
v -448 471 0
v -96 1015 0
v -96 1399 0
v -256 1399 0
v -256 1015 0
v -512 55 0
v -512 311 0
v -608 311 0
v -608 55 0
v -512 311 0
v -512 567 0
v -608 567 0
v -608 311 0
v -256 951 0
v -256 1111 0
v -384 1111 0
v -384 951 0
v -128 567 0
v -128 759 0
v -224 759 0
v -224 567 0
v -448 23 0
v -448 279 0
v -512 279 0
v -512 23 0
v -448 279 0
v -448 535 0
v -512 535 0
v -512 279 0
v -128 407 0
v -128 567 0
v -224 567 0
v -224 407 0
v -128 887 0
v -128 1015 0
v -224 1015 0
v -224 887 0
v -608 87 0
v -608 343 0
v -640 343 0
v -640 87 0
v -544 567 0
v -544 695 0
v -608 695 0
v -608 567 0
v -256 1111 0
v -256 1239 0
v -320 1239 0
v -320 1111 0
v -608 343 0
v -608 599 0
v -640 599 0
v -640 343 0
v -640 535 0
v -640 663 0
v -704 663 0
v -704 535 0
v -448 567 0
v -448 695 0
v -512 695 0
v -512 567 0
v -448 695 0
v -448 823 0
v -512 823 0
v -512 695 0
v -640 407 0
v -640 535 0
v -704 535 0
v -704 407 0
v -704 567 0
v -704 631 0
v -794 631 0
v -794 567 0
v -640 119 0
v -640 215 0
v -704 215 0
v -704 119 0
v -160 0 0
v -160 87 0
v -224 87 0
v -224 0 0
v -32 1207 0
v -32 1303 0
v -96 1303 0
v -96 1207 0
v -32 1303 0
v -32 1399 0
v -96 1399 0
v -96 1303 0
v -96 631 0
v -96 759 0
v -128 759 0
v -128 631 0
v -512 695 0
v -512 791 0
v -544 791 0
v -544 695 0
v -96 535 0
v -96 631 0
v -128 631 0
v -128 535 0
v -160 759 0
v -160 823 0
v -192 823 0
v -192 759 0
v -64 631 0
v -64 695 0
v -96 695 0
v -96 631 0
v -384 1015 0
v -384 1079 0
v -416 1079 0
v -416 1015 0
v -224 951 0
v -224 1015 0
v -256 1015 0
v -256 951 0
v -0 567 0
v -0 631 0
v -32 631 0
v -32 567 0
v -640 343 0
v -640 407 0
v -672 407 0
v -672 343 0
v -704 119 0
v -704 183 0
v -736 183 0
v -736 119 0
v -704 503 0
v -704 567 0
v -736 567 0
v -736 503 0
v -192 343 0
v -192 407 0
v -224 407 0
v -224 343 0
v -0 1335 0
v -0 1399 0
v -32 1399 0
v -32 1335 0
v -192 759 0
v -192 823 0
v -224 823 0
v -224 759 0
v -512 631 0
v -512 695 0
v -544 695 0
v -544 631 0
v -256 1271 0
v -256 1335 0
v -288 1335 0
v -288 1271 0
v -64 1143 0
v -64 1207 0
v -96 1207 0
v -96 1143 0
v -192 823 0
v -192 887 0
v -224 887 0
v -224 823 0
v -448 823 0
v -448 855 0
v -480 855 0
v -480 823 0
v -768 631 0
v -768 663 0
v -794 663 0
v -794 631 0
v -736 535 0
v -736 567 0
v -768 567 0
v -768 535 0
v -640 87 0
v -640 119 0
v -672 119 0
v -672 87 0
v -448 535 0
v -448 567 0
v -480 567 0
v -480 535 0
v -0 1303 0
v -0 1335 0
v -32 1335 0
v -32 1303 0
v -256 1239 0
v -256 1271 0
v -288 1271 0
v -288 1239 0
v -64 1111 0
v -64 1143 0
v -96 1143 0
v -96 1111 0
v -384 951 0
v -384 983 0
v -416 983 0
v -416 951 0
v -320 1111 0
v -320 1143 0
v -352 1143 0
v -352 1111 0
vt 0.0009765625 0.00154322386
vt 0.0009765625 0.729938269
vt 0.219726562 0.729938269
vt 0.219726562 0.00154322386
vt 0.221679688 0.00154322386
vt 0.221679688 0.74228394
vt 0.440429688 0.74228394
vt 0.440429688 0.00154322386
vt 0.442382812 0.00154322386
vt 0.442382812 0.594135761
vt 0.598632812 0.594135761
vt 0.598632812 0.00154322386
vt 0.600585938 0.00154322386
vt 0.600585938 0.396604955
vt 0.694335938 0.396604955
vt 0.694335938 0.00154322386
vt 0.696289062 0.00154322386
vt 0.696289062 0.396604955
vt 0.790039062 0.396604955
vt 0.790039062 0.00154322386
vt 0.791992188 0.00154322386
vt 0.791992188 0.248456776
vt 0.916992188 0.248456776
vt 0.916992188 0.00154322386
vt 0.791992188 0.251543224
vt 0.791992188 0.547839522
vt 0.885742188 0.547839522
vt 0.885742188 0.251543224
vt 0.918945312 0.00154322386
vt 0.918945312 0.396604955
vt 0.981445312 0.396604955
vt 0.981445312 0.00154322386
vt 0.600585938 0.399691343
vt 0.600585938 0.794753075
vt 0.663085938 0.794753075
vt 0.663085938 0.399691343
vt 0.665039062 0.399691343
vt 0.665039062 0.646604896
vt 0.758789062 0.646604896
vt 0.758789062 0.399691343
vt 0.791992188 0.55092597
vt 0.791992188 0.748456776
vt 0.885742188 0.748456776
vt 0.885742188 0.55092597
vt 0.918945312 0.399691343
vt 0.918945312 0.794753075
vt 0.950195312 0.794753075
vt 0.950195312 0.399691343
vt 0.442382812 0.597222209
vt 0.442382812 0.794753075
vt 0.504882812 0.794753075
vt 0.504882812 0.597222209
vt 0.506835938 0.597222209
vt 0.506835938 0.794753075
vt 0.569335938 0.794753075
vt 0.569335938 0.597222209
vt 0.952148438 0.399691343
vt 0.952148438 0.794753075
vt 0.983398438 0.794753075
vt 0.983398438 0.399691343
vt 0.665039062 0.649691343
vt 0.665039062 0.847222209
vt 0.727539062 0.847222209
vt 0.727539062 0.649691343
vt 0.0009765625 0.733024716
vt 0.0009765625 0.930555582
vt 0.0634765625 0.930555582
vt 0.0634765625 0.733024716
vt 0.0654296875 0.733024716
vt 0.0654296875 0.930555582
vt 0.127929688 0.930555582
vt 0.127929688 0.733024716
vt 0.129882812 0.733024716
vt 0.129882812 0.930555582
vt 0.192382812 0.930555582
vt 0.192382812 0.733024716
vt 0.221679688 0.745370388
vt 0.221679688 0.844135821
vt 0.310546875 0.844135821
vt 0.310546875 0.745370388
vt 0.3125 0.745370388
vt 0.3125 0.893518507
vt 0.375 0.893518507
vt 0.375 0.745370388
vt 0.376953125 0.745370388
vt 0.376953125 0.881172836
vt 0.439453125 0.881172836
vt 0.439453125 0.745370388
vt 0.791992188 0.751543224
vt 0.791992188 0.899691343
vt 0.854492188 0.899691343
vt 0.854492188 0.751543224
vt 0.442382812 0.797839522
vt 0.442382812 0.945987642
vt 0.504882812 0.945987642
vt 0.504882812 0.797839522
vt 0.729492188 0.649691343
vt 0.729492188 0.847222209
vt 0.760742188 0.847222209
vt 0.760742188 0.649691343
vt 0.856445312 0.751543224
vt 0.856445312 0.899691343
vt 0.887695312 0.899691343
vt 0.887695312 0.751543224
vt 0.506835938 0.797839522
vt 0.506835938 0.945987642
vt 0.538085938 0.945987642
vt 0.538085938 0.797839522
vt 0.540039062 0.797839522
vt 0.540039062 0.896604955
vt 0.571289062 0.896604955
vt 0.571289062 0.797839522
vt 0.600585938 0.797839522
vt 0.600585938 0.896604955
vt 0.631835938 0.896604955
vt 0.631835938 0.797839522
vt 0.918945312 0.797839522
vt 0.918945312 0.896604955
vt 0.950195312 0.896604955
vt 0.950195312 0.797839522
vt 0.952148438 0.797839522
vt 0.952148438 0.896604955
vt 0.983398438 0.896604955
vt 0.983398438 0.797839522
vt 0.221679688 0.847222209
vt 0.221679688 0.945987642
vt 0.252929688 0.945987642
vt 0.252929688 0.847222209
vt 0.254882812 0.847222209
vt 0.254882812 0.945987642
vt 0.286132812 0.945987642
vt 0.286132812 0.847222209
vt 0.665039062 0.850308657
vt 0.665039062 0.94907409
vt 0.696289062 0.94907409
vt 0.696289062 0.850308657
vt 0.698242188 0.850308657
vt 0.698242188 0.94907409
vt 0.729492188 0.94907409
vt 0.729492188 0.850308657
vt 0.731445312 0.850308657
vt 0.731445312 0.94907409
vt 0.762695312 0.94907409
vt 0.762695312 0.850308657
vt 0.376953125 0.884259284
vt 0.376953125 0.983024716
vt 0.408203125 0.983024716
vt 0.408203125 0.884259284
vt 0.3125 0.896604955
vt 0.3125 0.995370388
vt 0.34375 0.995370388
vt 0.34375 0.896604955
vt 0.540039062 0.899691343
vt 0.540039062 0.998456776
vt 0.571289062 0.998456776
vt 0.571289062 0.899691343
vt 0.600585938 0.899691343
vt 0.600585938 0.998456776
vt 0.631835938 0.998456776
vt 0.631835938 0.899691343
vt 0.918945312 0.899691343
vt 0.918945312 0.998456776
vt 0.950195312 0.998456776
vt 0.950195312 0.899691343
vt 0.952148438 0.899691343
vt 0.952148438 0.998456776
vt 0.983398438 0.998456776
vt 0.983398438 0.899691343
vt 0.791992188 0.902777791
vt 0.791992188 0.952160478
vt 0.823242188 0.952160478
vt 0.823242188 0.902777791
vt 0.889648438 0.251543224
vt 0.889648438 0.30092591
vt 0.916015625 0.30092591
vt 0.916015625 0.251543224
vt 0.825195312 0.902777791
vt 0.825195312 0.952160478
vt 0.856445312 0.952160478
vt 0.856445312 0.902777791
vt 0.858398438 0.902777791
vt 0.858398438 0.952160478
vt 0.889648438 0.952160478
vt 0.889648438 0.902777791
vt 0.0009765625 0.93364197
vt 0.0009765625 0.983024716
vt 0.0322265625 0.983024716
vt 0.0322265625 0.93364197
vt 0.0341796875 0.93364197
vt 0.0341796875 0.983024716
vt 0.0654296875 0.983024716
vt 0.0654296875 0.93364197
vt 0.0673828125 0.93364197
vt 0.0673828125 0.983024716
vt 0.0986328125 0.983024716
vt 0.0986328125 0.93364197
vt 0.100585938 0.93364197
vt 0.100585938 0.983024716
vt 0.131835938 0.983024716
vt 0.131835938 0.93364197
vt 0.133789062 0.93364197
vt 0.133789062 0.983024716
vt 0.165039062 0.983024716
vt 0.165039062 0.93364197
vt 0.166992188 0.93364197
vt 0.166992188 0.983024716
vt 0.198242188 0.983024716
vt 0.198242188 0.93364197
g xiyatu_2-mesh_0
f 3/3/3 2/2/2 1/1/1
f 1/1/1 4/4/4 3/3/3
f 7/7/7 6/6/6 5/5/5
f 5/5/5 8/8/8 7/7/7
f 11/11/11 10/10/10 9/9/9
f 9/9/9 12/12/12 11/11/11
f 15/15/15 14/14/14 13/13/13
f 13/13/13 16/16/16 15/15/15
f 19/19/19 18/18/18 17/17/17
f 17/17/17 20/20/20 19/19/19
f 23/23/23 22/22/22 21/21/21
f 21/21/21 24/24/24 23/23/23
f 27/27/27 26/26/26 25/25/25
f 25/25/25 28/28/28 27/27/27
f 31/31/31 30/30/30 29/29/29
f 29/29/29 32/32/32 31/31/31
f 35/35/35 34/34/34 33/33/33
f 33/33/33 36/36/36 35/35/35
f 39/39/39 38/38/38 37/37/37
f 37/37/37 40/40/40 39/39/39
f 43/43/43 42/42/42 41/41/41
f 41/41/41 44/44/44 43/43/43
f 47/47/47 46/46/46 45/45/45
f 45/45/45 48/48/48 47/47/47
f 51/51/51 50/50/50 49/49/49
f 49/49/49 52/52/52 51/51/51
f 55/55/55 54/54/54 53/53/53
f 53/53/53 56/56/56 55/55/55
f 59/59/59 58/58/58 57/57/57
f 57/57/57 60/60/60 59/59/59
f 63/63/63 62/62/62 61/61/61
f 61/61/61 64/64/64 63/63/63
f 67/67/67 66/66/66 65/65/65
f 65/65/65 68/68/68 67/67/67
f 71/71/71 70/70/70 69/69/69
f 69/69/69 72/72/72 71/71/71
f 75/75/75 74/74/74 73/73/73
f 73/73/73 76/76/76 75/75/75
f 79/79/79 78/78/78 77/77/77
f 77/77/77 80/80/80 79/79/79
f 83/83/83 82/82/82 81/81/81
f 81/81/81 84/84/84 83/83/83
f 87/87/87 86/86/86 85/85/85
f 85/85/85 88/88/88 87/87/87
f 91/91/91 90/90/90 89/89/89
f 89/89/89 92/92/92 91/91/91
f 95/95/95 94/94/94 93/93/93
f 93/93/93 96/96/96 95/95/95
f 99/99/99 98/98/98 97/97/97
f 97/97/97 100/100/100 99/99/99
f 103/103/103 102/102/102 101/101/101
f 101/101/101 104/104/104 103/103/103
f 107/107/107 106/106/106 105/105/105
f 105/105/105 108/108/108 107/107/107
f 111/111/111 110/110/110 109/109/109
f 109/109/109 112/112/112 111/111/111
f 115/115/115 114/114/114 113/113/113
f 113/113/113 116/116/116 115/115/115
f 119/119/119 118/118/118 117/117/117
f 117/117/117 120/120/120 119/119/119
f 123/123/123 122/122/122 121/121/121
f 121/121/121 124/124/124 123/123/123
f 127/127/127 126/126/126 125/125/125
f 125/125/125 128/128/128 127/127/127
f 131/131/131 130/130/130 129/129/129
f 129/129/129 132/132/132 131/131/131
f 135/135/135 134/134/134 133/133/133
f 133/133/133 136/136/136 135/135/135
f 139/139/139 138/138/138 137/137/137
f 137/137/137 140/140/140 139/139/139
f 143/143/143 142/142/142 141/141/141
f 141/141/141 144/144/144 143/143/143
f 147/147/147 146/146/146 145/145/145
f 145/145/145 148/148/148 147/147/147
f 151/151/151 150/150/150 149/149/149
f 149/149/149 152/152/152 151/151/151
f 155/155/155 154/154/154 153/153/153
f 153/153/153 156/156/156 155/155/155
f 159/159/159 158/158/158 157/157/157
f 157/157/157 160/160/160 159/159/159
f 163/163/163 162/162/162 161/161/161
f 161/161/161 164/164/164 163/163/163
f 167/167/167 166/166/166 165/165/165
f 165/165/165 168/168/168 167/167/167
f 171/171/171 170/170/170 169/169/169
f 169/169/169 172/172/172 171/171/171
f 175/175/175 174/174/174 173/173/173
f 173/173/173 176/176/176 175/175/175
f 179/179/179 178/178/178 177/177/177
f 177/177/177 180/180/180 179/179/179
f 183/183/183 182/182/182 181/181/181
f 181/181/181 184/184/184 183/183/183
f 187/187/187 186/186/186 185/185/185
f 185/185/185 188/188/188 187/187/187
f 191/191/191 190/190/190 189/189/189
f 189/189/189 192/192/192 191/191/191
f 195/195/195 194/194/194 193/193/193
f 193/193/193 196/196/196 195/195/195
f 199/199/199 198/198/198 197/197/197
f 197/197/197 200/200/200 199/199/199
f 203/203/203 202/202/202 201/201/201
f 201/201/201 204/204/204 203/203/203
f 207/207/207 206/206/206 205/205/205
f 205/205/205 208/208/208 207/207/207
