g wudi-mesh
v -256 671 0
v -256 991 0
v -512 991 0
v -512 671 0
v -256 383 0
v -256 671 0
v -512 671 0
v -512 383 0
v -160 351 0
v -160 575 0
v -256 575 0
v -256 351 0
v -160 575 0
v -160 799 0
v -256 799 0
v -256 575 0
v -160 0 0
v -160 159 0
v -256 159 0
v -256 0 0
v -32 543 0
v -32 639 0
v -160 639 0
v -160 543 0
v -320 223 0
v -320 319 0
v -448 319 0
v -448 223 0
v -512 639 0
v -512 927 0
v -544 927 0
v -544 639 0
v -512 383 0
v -512 639 0
v -544 639 0
v -544 383 0
v -544 703 0
v -544 799 0
v -608 799 0
v -608 703 0
v -256 95 0
v -256 159 0
v -352 159 0
v -352 95 0
v -96 703 0
v -96 799 0
v -160 799 0
v -160 703 0
v -288 159 0
v -288 223 0
v -384 223 0
v -384 159 0
v -384 319 0
v -384 383 0
v -480 383 0
v -480 319 0
v -288 319 0
v -288 383 0
v -384 383 0
v -384 319 0
v -192 159 0
v -192 223 0
v -288 223 0
v -288 159 0
v -96 351 0
v -96 415 0
v -160 415 0
v -160 351 0
v -544 639 0
v -544 703 0
v -608 703 0
v -608 639 0
v -288 991 0
v -288 1023 0
v -384 1023 0
v -384 991 0
v -384 991 0
v -384 1023 0
v -480 1023 0
v -480 991 0
v -576 863 0
v -576 927 0
v -608 927 0
v -608 863 0
v -128 639 0
v -128 703 0
v -160 703 0
v -160 639 0
v -256 31 0
v -256 95 0
v -288 95 0
v -288 31 0
v -288 223 0
v -288 287 0
v -320 287 0
v -320 223 0
v -544 895 0
v -544 959 0
v -576 959 0
v -576 895 0
v -544 447 0
v -544 511 0
v -576 511 0
v -576 447 0
v -544 831 0
v -544 895 0
v -576 895 0
v -576 831 0
v -128 415 0
v -128 447 0
v -160 447 0
v -160 415 0
v -640 607 0
v -640 639 0
v -645 639 0
v -645 607 0
v -96 639 0
v -96 671 0
v -128 671 0
v -128 639 0
v -256 351 0
v -256 383 0
v -288 383 0
v -288 351 0
v -288 63 0
v -288 95 0
v -320 95 0
v -320 63 0
v -352 95 0
v -352 127 0
v -384 127 0
v -384 95 0
v -384 191 0
v -384 223 0
v -416 223 0
v -416 191 0
v -224 959 0
v -224 991 0
v -256 991 0
v -256 959 0
v -0 991 0
v -0 1023 0
v -32 1023 0
v -32 991 0
v -544 415 0
v -544 447 0
v -576 447 0
v -576 415 0
v -96 927 0
v -96 959 0
v -128 959 0
v -128 927 0
v -224 799 0
v -224 831 0
v -256 831 0
v -256 799 0
v -0 799 0
v -0 831 0
v -32 831 0
v -32 799 0
v -224 895 0
v -224 927 0
v -256 927 0
v -256 895 0
vt 0.0009765625 0.00256413221
vt 0.0009765625 0.823076904
vt 0.250976562 0.823076904
vt 0.250976562 0.00256413221
vt 0.252929688 0.00256413221
vt 0.252929688 0.741025627
vt 0.502929688 0.741025627
vt 0.502929688 0.00256413221
vt 0.504882812 0.00256413221
vt 0.504882812 0.576923072
vt 0.598632812 0.576923072
vt 0.598632812 0.00256413221
vt 0.600585938 0.00256413221
vt 0.600585938 0.576923072
vt 0.694335938 0.576923072
vt 0.694335938 0.00256413221
vt 0.696289062 0.00256413221
vt 0.696289062 0.412820518
vt 0.790039062 0.412820518
vt 0.790039062 0.00256413221
vt 0.791992188 0.00256413221
vt 0.791992188 0.248717964
vt 0.916992188 0.248717964
vt 0.916992188 0.00256413221
vt 0.791992188 0.253846169
vt 0.791992188 0.5
vt 0.916992188 0.5
vt 0.916992188 0.253846169
vt 0.918945312 0.00256413221
vt 0.918945312 0.741025627
vt 0.950195312 0.741025627
vt 0.950195312 0.00256413221
vt 0.952148438 0.00256413221
vt 0.952148438 0.658974349
vt 0.983398438 0.658974349
vt 0.983398438 0.00256413221
vt 0.696289062 0.417948723
vt 0.696289062 0.664102554
vt 0.758789062 0.664102554
vt 0.758789062 0.417948723
vt 0.791992188 0.505128205
vt 0.791992188 0.669230759
vt 0.885742188 0.669230759
vt 0.885742188 0.505128205
vt 0.504882812 0.582051277
vt 0.504882812 0.828205109
vt 0.567382812 0.828205109
vt 0.567382812 0.582051277
vt 0.569335938 0.582051277
vt 0.569335938 0.746153831
vt 0.663085938 0.746153831
vt 0.663085938 0.582051277
vt 0.696289062 0.669230759
vt 0.696289062 0.833333313
vt 0.790039062 0.833333313
vt 0.790039062 0.669230759
vt 0.791992188 0.674358964
vt 0.791992188 0.838461518
vt 0.885742188 0.838461518
vt 0.885742188 0.674358964
vt 0.252929688 0.746153831
vt 0.252929688 0.910256386
vt 0.346679688 0.910256386
vt 0.346679688 0.746153831
vt 0.348632812 0.746153831
vt 0.348632812 0.910256386
vt 0.411132812 0.910256386
vt 0.411132812 0.746153831
vt 0.413085938 0.746153831
vt 0.413085938 0.910256386
vt 0.475585938 0.910256386
vt 0.475585938 0.746153831
vt 0.569335938 0.751282036
vt 0.569335938 0.833333313
vt 0.663085938 0.833333313
vt 0.663085938 0.751282036
vt 0.0009765625 0.828205109
vt 0.0009765625 0.910256386
vt 0.0947265625 0.910256386
vt 0.0947265625 0.828205109
vt 0.952148438 0.664102554
vt 0.952148438 0.828205109
vt 0.983398438 0.828205109
vt 0.983398438 0.664102554
vt 0.918945312 0.746153831
vt 0.918945312 0.910256386
vt 0.950195312 0.910256386
vt 0.950195312 0.746153831
vt 0.0966796875 0.828205109
vt 0.0966796875 0.992307663
vt 0.127929688 0.992307663
vt 0.127929688 0.828205109
vt 0.129882812 0.828205109
vt 0.129882812 0.992307663
vt 0.161132812 0.992307663
vt 0.161132812 0.828205109
vt 0.163085938 0.828205109
vt 0.163085938 0.992307663
vt 0.194335938 0.992307663
vt 0.194335938 0.828205109
vt 0.196289062 0.828205109
vt 0.196289062 0.992307663
vt 0.227539062 0.992307663
vt 0.227539062 0.828205109
vt 0.504882812 0.833333313
vt 0.504882812 0.997435868
vt 0.536132812 0.997435868
vt 0.536132812 0.833333313
vt 0.952148438 0.833333313
vt 0.952148438 0.915384591
vt 0.983398438 0.915384591
vt 0.983398438 0.833333313
vt 0.985351562 0.00256413221
vt 0.985351562 0.0846154094
vt 0.991210938 0.0846154094
vt 0.991210938 0.00256413221
vt 0.569335938 0.838461518
vt 0.569335938 0.920512795
vt 0.600585938 0.920512795
vt 0.600585938 0.838461518
vt 0.602539062 0.838461518
vt 0.602539062 0.920512795
vt 0.633789062 0.920512795
vt 0.633789062 0.838461518
vt 0.635742188 0.838461518
vt 0.635742188 0.920512795
vt 0.666992188 0.920512795
vt 0.666992188 0.838461518
vt 0.696289062 0.838461518
vt 0.696289062 0.920512795
vt 0.727539062 0.920512795
vt 0.727539062 0.838461518
vt 0.729492188 0.838461518
vt 0.729492188 0.920512795
vt 0.760742188 0.920512795
vt 0.760742188 0.838461518
vt 0.791992188 0.843589723
vt 0.791992188 0.925641
vt 0.823242188 0.925641
vt 0.823242188 0.843589723
vt 0.825195312 0.843589723
vt 0.825195312 0.925641
vt 0.856445312 0.925641
vt 0.856445312 0.843589723
vt 0.858398438 0.843589723
vt 0.858398438 0.925641
vt 0.889648438 0.925641
vt 0.889648438 0.843589723
vt 0.0009765625 0.915384591
vt 0.0009765625 0.997435868
vt 0.0322265625 0.997435868
vt 0.0322265625 0.915384591
vt 0.0341796875 0.915384591
vt 0.0341796875 0.997435868
vt 0.0654296875 0.997435868
vt 0.0654296875 0.915384591
vt 0.252929688 0.915384591
vt 0.252929688 0.997435868
vt 0.284179688 0.997435868
vt 0.284179688 0.915384591
vt 0.286132812 0.915384591
vt 0.286132812 0.997435868
vt 0.317382812 0.997435868
vt 0.317382812 0.915384591
g wudi-mesh_0
f 3/3/3 2/2/2 1/1/1
f 1/1/1 4/4/4 3/3/3
f 7/7/7 6/6/6 5/5/5
f 5/5/5 8/8/8 7/7/7
f 11/11/11 10/10/10 9/9/9
f 9/9/9 12/12/12 11/11/11
f 15/15/15 14/14/14 13/13/13
f 13/13/13 16/16/16 15/15/15
f 19/19/19 18/18/18 17/17/17
f 17/17/17 20/20/20 19/19/19
f 23/23/23 22/22/22 21/21/21
f 21/21/21 24/24/24 23/23/23
f 27/27/27 26/26/26 25/25/25
f 25/25/25 28/28/28 27/27/27
f 31/31/31 30/30/30 29/29/29
f 29/29/29 32/32/32 31/31/31
f 35/35/35 34/34/34 33/33/33
f 33/33/33 36/36/36 35/35/35
f 39/39/39 38/38/38 37/37/37
f 37/37/37 40/40/40 39/39/39
f 43/43/43 42/42/42 41/41/41
f 41/41/41 44/44/44 43/43/43
f 47/47/47 46/46/46 45/45/45
f 45/45/45 48/48/48 47/47/47
f 51/51/51 50/50/50 49/49/49
f 49/49/49 52/52/52 51/51/51
f 55/55/55 54/54/54 53/53/53
f 53/53/53 56/56/56 55/55/55
f 59/59/59 58/58/58 57/57/57
f 57/57/57 60/60/60 59/59/59
f 63/63/63 62/62/62 61/61/61
f 61/61/61 64/64/64 63/63/63
f 67/67/67 66/66/66 65/65/65
f 65/65/65 68/68/68 67/67/67
f 71/71/71 70/70/70 69/69/69
f 69/69/69 72/72/72 71/71/71
f 75/75/75 74/74/74 73/73/73
f 73/73/73 76/76/76 75/75/75
f 79/79/79 78/78/78 77/77/77
f 77/77/77 80/80/80 79/79/79
f 83/83/83 82/82/82 81/81/81
f 81/81/81 84/84/84 83/83/83
f 87/87/87 86/86/86 85/85/85
f 85/85/85 88/88/88 87/87/87
f 91/91/91 90/90/90 89/89/89
f 89/89/89 92/92/92 91/91/91
f 95/95/95 94/94/94 93/93/93
f 93/93/93 96/96/96 95/95/95
f 99/99/99 98/98/98 97/97/97
f 97/97/97 100/100/100 99/99/99
f 103/103/103 102/102/102 101/101/101
f 101/101/101 104/104/104 103/103/103
f 107/107/107 106/106/106 105/105/105
f 105/105/105 108/108/108 107/107/107
f 111/111/111 110/110/110 109/109/109
f 109/109/109 112/112/112 111/111/111
f 115/115/115 114/114/114 113/113/113
f 113/113/113 116/116/116 115/115/115
f 119/119/119 118/118/118 117/117/117
f 117/117/117 120/120/120 119/119/119
f 123/123/123 122/122/122 121/121/121
f 121/121/121 124/124/124 123/123/123
f 127/127/127 126/126/126 125/125/125
f 125/125/125 128/128/128 127/127/127
f 131/131/131 130/130/130 129/129/129
f 129/129/129 132/132/132 131/131/131
f 135/135/135 134/134/134 133/133/133
f 133/133/133 136/136/136 135/135/135
f 139/139/139 138/138/138 137/137/137
f 137/137/137 140/140/140 139/139/139
f 143/143/143 142/142/142 141/141/141
f 141/141/141 144/144/144 143/143/143
f 147/147/147 146/146/146 145/145/145
f 145/145/145 148/148/148 147/147/147
f 151/151/151 150/150/150 149/149/149
f 149/149/149 152/152/152 151/151/151
f 155/155/155 154/154/154 153/153/153
f 153/153/153 156/156/156 155/155/155
f 159/159/159 158/158/158 157/157/157
f 157/157/157 160/160/160 159/159/159
f 163/163/163 162/162/162 161/161/161
f 161/161/161 164/164/164 163/163/163
