g huangjiafangzhou-mesh
v -448 174 0
v -448 654 0
v -800 654 0
v -800 174 0
v -448 654 0
v -448 1134 0
v -800 1134 0
v -800 654 0
v -832 238 0
v -832 526 0
v -1088 526 0
v -1088 238 0
v -256 814 0
v -256 1038 0
v -448 1038 0
v -448 814 0
v -416 1134 0
v -416 1294 0
v -672 1294 0
v -672 1134 0
v -352 334 0
v -352 718 0
v -448 718 0
v -448 334 0
v -352 0 0
v -352 334 0
v -448 334 0
v -448 0 0
v -160 462 0
v -160 622 0
v -352 622 0
v -352 462 0
v -0 398 0
v -0 526 0
v -160 526 0
v -160 398 0
v -864 846 0
v -864 942 0
v -1024 942 0
v -1024 846 0
v -800 0 0
v -800 334 0
v -832 334 0
v -832 0 0
v -800 334 0
v -800 686 0
v -832 686 0
v -832 334 0
v -800 974 0
v -800 1102 0
v -864 1102 0
v -864 974 0
v -736 78 0
v -736 174 0
v -800 174 0
v -800 78 0
v -288 750 0
v -288 814 0
v -384 814 0
v -384 750 0
v -832 0 0
v -832 78 0
v -896 78 0
v -896 0 0
v -352 1134 0
v -352 1230 0
v -416 1230 0
v -416 1134 0
v -352 1038 0
v -352 1134 0
v -416 1134 0
v -416 1038 0
v -800 814 0
v -800 910 0
v -864 910 0
v -864 814 0
v -288 622 0
v -288 686 0
v -352 686 0
v -352 622 0
v -864 782 0
v -864 846 0
v -928 846 0
v -928 782 0
v -800 750 0
v -800 814 0
v -864 814 0
v -864 750 0
v -736 14 0
v -736 78 0
v -800 78 0
v -800 14 0
v -1088 270 0
v -1088 398 0
v -1120 398 0
v -1120 270 0
v -1088 398 0
v -1088 526 0
v -1120 526 0
v -1120 398 0
v -896 206 0
v -896 238 0
v -992 238 0
v -992 206 0
v -864 1006 0
v -864 1070 0
v -896 1070 0
v -896 1006 0
v -64 526 0
v -64 558 0
v -128 558 0
v -128 526 0
v -416 750 0
v -416 814 0
v -448 814 0
v -448 750 0
v -320 1070 0
v -320 1134 0
v -352 1134 0
v -352 1070 0
v -416 1070 0
v -416 1134 0
v -448 1134 0
v -448 1070 0
v -928 942 0
v -928 974 0
v -992 974 0
v -992 942 0
v -992 1006 0
v -992 1038 0
v -1056 1038 0
v -1056 1006 0
v -32 366 0
v -32 398 0
v -96 398 0
v -96 366 0
v -832 78 0
v -832 142 0
v -864 142 0
v -864 78 0
v -448 0 0
v -448 46 0
v -480 46 0
v -480 0 0
v -928 814 0
v -928 846 0
v -992 846 0
v -992 814 0
v -224 622 0
v -224 654 0
v -288 654 0
v -288 622 0
v -1152 462 0
v -1152 526 0
v -1165 526 0
v -1165 462 0
v -672 1134 0
v -672 1198 0
v -704 1198 0
v -704 1134 0
v -224 430 0
v -224 462 0
v -288 462 0
v -288 430 0
v -672 1198 0
v -672 1262 0
v -704 1262 0
v -704 1198 0
v -160 430 0
v -160 462 0
v -224 462 0
v -224 430 0
v -832 526 0
v -832 558 0
v -896 558 0
v -896 526 0
v -1120 462 0
v -1120 526 0
v -1152 526 0
v -1152 462 0
v -1120 398 0
v -1120 462 0
v -1152 462 0
v -1152 398 0
v -896 526 0
v -896 558 0
v -960 558 0
v -960 526 0
v -448 1294 0
v -448 1326 0
v -512 1326 0
v -512 1294 0
v -672 142 0
v -672 174 0
v -736 174 0
v -736 142 0
v -608 142 0
v -608 174 0
v -672 174 0
v -672 142 0
v -992 206 0
v -992 238 0
v -1056 238 0
v -1056 206 0
v -288 1038 0
v -288 1070 0
v -320 1070 0
v -320 1038 0
v -800 1102 0
v -800 1134 0
v -832 1134 0
v -832 1102 0
v -800 718 0
v -800 750 0
v -832 750 0
v -832 718 0
v -128 558 0
v -128 590 0
v -160 590 0
v -160 558 0
v -832 558 0
v -832 590 0
v -864 590 0
v -864 558 0
v -800 942 0
v -800 974 0
v -832 974 0
v -832 942 0
v -256 782 0
v -256 814 0
v -288 814 0
v -288 782 0
v -384 718 0
v -384 750 0
v -416 750 0
v -416 718 0
v -992 942 0
v -992 974 0
v -1024 974 0
v -1024 942 0
v -416 718 0
v -416 750 0
v -448 750 0
v -448 718 0
v -320 1038 0
v -320 1070 0
v -352 1070 0
v -352 1038 0
v -416 1038 0
v -416 1070 0
v -448 1070 0
v -448 1038 0
v -384 1230 0
v -384 1262 0
v -416 1262 0
v -416 1230 0
v -704 1134 0
v -704 1166 0
v -736 1166 0
v -736 1134 0
v -128 526 0
v -128 558 0
v -160 558 0
v -160 526 0
v -512 1294 0
v -512 1326 0
v -544 1326 0
v -544 1294 0
vt 0.0009765625 0.00112742186
vt 0.0009765625 0.542277336
vt 0.344726562 0.542277336
vt 0.344726562 0.00112742186
vt 0.346679688 0.00112742186
vt 0.346679688 0.542277336
vt 0.690429688 0.542277336
vt 0.690429688 0.00112742186
vt 0.692382812 0.00112742186
vt 0.692382812 0.325817347
vt 0.942382812 0.325817347
vt 0.942382812 0.00112742186
vt 0.692382812 0.328072131
vt 0.692382812 0.580608785
vt 0.879882812 0.580608785
vt 0.879882812 0.328072131
vt 0.0009765625 0.54453212
vt 0.0009765625 0.724915445
vt 0.250976562 0.724915445
vt 0.250976562 0.54453212
vt 0.881835938 0.328072131
vt 0.881835938 0.76099211
vt 0.975585938 0.76099211
vt 0.975585938 0.328072131
vt 0.252929688 0.54453212
vt 0.252929688 0.92220968
vt 0.346679688 0.92220968
vt 0.346679688 0.54453212
vt 0.348632812 0.54453212
vt 0.348632812 0.724915445
vt 0.536132812 0.724915445
vt 0.536132812 0.54453212
vt 0.692382812 0.582863569
vt 0.692382812 0.727170229
vt 0.848632812 0.727170229
vt 0.848632812 0.582863569
vt 0.0009765625 0.727170229
vt 0.0009765625 0.835400224
vt 0.157226562 0.835400224
vt 0.157226562 0.727170229
vt 0.538085938 0.54453212
vt 0.538085938 0.92220968
vt 0.569335938 0.92220968
vt 0.569335938 0.54453212
vt 0.571289062 0.54453212
vt 0.571289062 0.941375434
vt 0.602539062 0.941375434
vt 0.602539062 0.54453212
vt 0.604492188 0.54453212
vt 0.604492188 0.68883878
vt 0.666992188 0.68883878
vt 0.666992188 0.54453212
vt 0.604492188 0.691093564
vt 0.604492188 0.799323559
vt 0.666992188 0.799323559
vt 0.666992188 0.691093564
vt 0.348632812 0.727170229
vt 0.348632812 0.799323559
vt 0.442382812 0.799323559
vt 0.442382812 0.727170229
vt 0.159179688 0.727170229
vt 0.159179688 0.816234469
vt 0.221679688 0.816234469
vt 0.221679688 0.727170229
vt 0.444335938 0.727170229
vt 0.444335938 0.835400224
vt 0.506835938 0.835400224
vt 0.506835938 0.727170229
vt 0.692382812 0.729425073
vt 0.692382812 0.837655008
vt 0.754882812 0.837655008
vt 0.754882812 0.729425073
vt 0.756835938 0.729425073
vt 0.756835938 0.837655008
vt 0.819335938 0.837655008
vt 0.819335938 0.729425073
vt 0.881835938 0.763246894
vt 0.881835938 0.835400224
vt 0.944335938 0.835400224
vt 0.944335938 0.763246894
vt 0.348632812 0.801578343
vt 0.348632812 0.873731673
vt 0.411132812 0.873731673
vt 0.411132812 0.801578343
vt 0.604492188 0.801578343
vt 0.604492188 0.873731673
vt 0.666992188 0.873731673
vt 0.666992188 0.801578343
vt 0.159179688 0.818489313
vt 0.159179688 0.890642643
vt 0.221679688 0.890642643
vt 0.221679688 0.818489313
vt 0.821289062 0.729425073
vt 0.821289062 0.873731673
vt 0.852539062 0.873731673
vt 0.852539062 0.729425073
vt 0.946289062 0.763246894
vt 0.946289062 0.907553554
vt 0.977539062 0.907553554
vt 0.977539062 0.763246894
vt 0.0009765625 0.837655008
vt 0.0009765625 0.873731673
vt 0.0947265625 0.873731673
vt 0.0947265625 0.837655008
vt 0.0966796875 0.837655008
vt 0.0966796875 0.909808338
vt 0.127929688 0.909808338
vt 0.127929688 0.837655008
vt 0.444335938 0.837655008
vt 0.444335938 0.873731673
vt 0.506835938 0.873731673
vt 0.506835938 0.837655008
vt 0.881835938 0.837655008
vt 0.881835938 0.909808338
vt 0.913085938 0.909808338
vt 0.913085938 0.837655008
vt 0.692382812 0.839909792
vt 0.692382812 0.912063122
vt 0.723632812 0.912063122
vt 0.723632812 0.839909792
vt 0.725585938 0.839909792
vt 0.725585938 0.912063122
vt 0.756835938 0.912063122
vt 0.756835938 0.839909792
vt 0.0009765625 0.875986457
vt 0.0009765625 0.912063122
vt 0.0634765625 0.912063122
vt 0.0634765625 0.875986457
vt 0.348632812 0.875986457
vt 0.348632812 0.912063122
vt 0.411132812 0.912063122
vt 0.411132812 0.875986457
vt 0.444335938 0.875986457
vt 0.444335938 0.912063122
vt 0.506835938 0.912063122
vt 0.506835938 0.875986457
vt 0.758789062 0.839909792
vt 0.758789062 0.912063122
vt 0.790039062 0.912063122
vt 0.790039062 0.839909792
vt 0.604492188 0.875986457
vt 0.604492188 0.928974092
vt 0.635742188 0.928974092
vt 0.635742188 0.875986457
vt 0.159179688 0.892897427
vt 0.159179688 0.928974092
vt 0.221679688 0.928974092
vt 0.221679688 0.892897427
vt 0.881835938 0.912063122
vt 0.881835938 0.948139787
vt 0.944335938 0.948139787
vt 0.944335938 0.912063122
vt 0.979492188 0.00112742186
vt 0.979492188 0.0732806921
vt 0.993164062 0.0732806921
vt 0.993164062 0.00112742186
vt 0.637695312 0.875986457
vt 0.637695312 0.948139787
vt 0.668945312 0.948139787
vt 0.668945312 0.875986457
vt 0.0009765625 0.914317906
vt 0.0009765625 0.950394571
vt 0.0634765625 0.950394571
vt 0.0634765625 0.914317906
vt 0.821289062 0.875986457
vt 0.821289062 0.948139787
vt 0.852539062 0.948139787
vt 0.852539062 0.875986457
vt 0.348632812 0.914317906
vt 0.348632812 0.950394571
vt 0.411132812 0.950394571
vt 0.411132812 0.914317906
vt 0.444335938 0.914317906
vt 0.444335938 0.950394571
vt 0.506835938 0.950394571
vt 0.506835938 0.914317906
vt 0.946289062 0.909808338
vt 0.946289062 0.981961668
vt 0.977539062 0.981961668
vt 0.977539062 0.909808338
vt 0.0966796875 0.912063122
vt 0.0966796875 0.984216452
vt 0.127929688 0.984216452
vt 0.127929688 0.912063122
vt 0.692382812 0.914317906
vt 0.692382812 0.950394571
vt 0.754882812 0.950394571
vt 0.754882812 0.914317906
vt 0.756835938 0.914317906
vt 0.756835938 0.950394571
vt 0.819335938 0.950394571
vt 0.819335938 0.914317906
vt 0.252929688 0.924464464
vt 0.252929688 0.960541129
vt 0.315429688 0.960541129
vt 0.315429688 0.924464464
vt 0.159179688 0.931228876
vt 0.159179688 0.967305541
vt 0.221679688 0.967305541
vt 0.221679688 0.931228876
vt 0.571289062 0.943630219
vt 0.571289062 0.979706883
vt 0.633789062 0.979706883
vt 0.633789062 0.943630219
vt 0.538085938 0.924464464
vt 0.538085938 0.960541129
vt 0.569335938 0.960541129
vt 0.569335938 0.924464464
vt 0.637695312 0.950394571
vt 0.637695312 0.986471236
vt 0.668945312 0.986471236
vt 0.668945312 0.950394571
vt 0.821289062 0.950394571
vt 0.821289062 0.986471236
vt 0.852539062 0.986471236
vt 0.852539062 0.950394571
vt 0.881835938 0.950394571
vt 0.881835938 0.986471236
vt 0.913085938 0.986471236
vt 0.913085938 0.950394571
vt 0.0009765625 0.952649355
vt 0.0009765625 0.98872602
vt 0.0322265625 0.98872602
vt 0.0322265625 0.952649355
vt 0.0341796875 0.952649355
vt 0.0341796875 0.98872602
vt 0.0654296875 0.98872602
vt 0.0654296875 0.952649355
vt 0.348632812 0.952649355
vt 0.348632812 0.98872602
vt 0.379882812 0.98872602
vt 0.379882812 0.952649355
vt 0.381835938 0.952649355
vt 0.381835938 0.98872602
vt 0.413085938 0.98872602
vt 0.413085938 0.952649355
vt 0.444335938 0.952649355
vt 0.444335938 0.98872602
vt 0.475585938 0.98872602
vt 0.475585938 0.952649355
vt 0.477539062 0.952649355
vt 0.477539062 0.98872602
vt 0.508789062 0.98872602
vt 0.508789062 0.952649355
vt 0.692382812 0.952649355
vt 0.692382812 0.98872602
vt 0.723632812 0.98872602
vt 0.723632812 0.952649355
vt 0.725585938 0.952649355
vt 0.725585938 0.98872602
vt 0.756835938 0.98872602
vt 0.756835938 0.952649355
vt 0.758789062 0.952649355
vt 0.758789062 0.98872602
vt 0.790039062 0.98872602
vt 0.790039062 0.952649355
vt 0.252929688 0.962795973
vt 0.252929688 0.998872578
vt 0.284179688 0.998872578
vt 0.284179688 0.962795973
vt 0.286132812 0.962795973
vt 0.286132812 0.998872578
vt 0.317382812 0.998872578
vt 0.317382812 0.962795973
vt 0.538085938 0.962795973
vt 0.538085938 0.998872578
vt 0.569335938 0.998872578
vt 0.569335938 0.962795973
g huangjiafangzhou-mesh_0
f 3/3/3 2/2/2 1/1/1
f 1/1/1 4/4/4 3/3/3
f 7/7/7 6/6/6 5/5/5
f 5/5/5 8/8/8 7/7/7
f 11/11/11 10/10/10 9/9/9
f 9/9/9 12/12/12 11/11/11
f 15/15/15 14/14/14 13/13/13
f 13/13/13 16/16/16 15/15/15
f 19/19/19 18/18/18 17/17/17
f 17/17/17 20/20/20 19/19/19
f 23/23/23 22/22/22 21/21/21
f 21/21/21 24/24/24 23/23/23
f 27/27/27 26/26/26 25/25/25
f 25/25/25 28/28/28 27/27/27
f 31/31/31 30/30/30 29/29/29
f 29/29/29 32/32/32 31/31/31
f 35/35/35 34/34/34 33/33/33
f 33/33/33 36/36/36 35/35/35
f 39/39/39 38/38/38 37/37/37
f 37/37/37 40/40/40 39/39/39
f 43/43/43 42/42/42 41/41/41
f 41/41/41 44/44/44 43/43/43
f 47/47/47 46/46/46 45/45/45
f 45/45/45 48/48/48 47/47/47
f 51/51/51 50/50/50 49/49/49
f 49/49/49 52/52/52 51/51/51
f 55/55/55 54/54/54 53/53/53
f 53/53/53 56/56/56 55/55/55
f 59/59/59 58/58/58 57/57/57
f 57/57/57 60/60/60 59/59/59
f 63/63/63 62/62/62 61/61/61
f 61/61/61 64/64/64 63/63/63
f 67/67/67 66/66/66 65/65/65
f 65/65/65 68/68/68 67/67/67
f 71/71/71 70/70/70 69/69/69
f 69/69/69 72/72/72 71/71/71
f 75/75/75 74/74/74 73/73/73
f 73/73/73 76/76/76 75/75/75
f 79/79/79 78/78/78 77/77/77
f 77/77/77 80/80/80 79/79/79
f 83/83/83 82/82/82 81/81/81
f 81/81/81 84/84/84 83/83/83
f 87/87/87 86/86/86 85/85/85
f 85/85/85 88/88/88 87/87/87
f 91/91/91 90/90/90 89/89/89
f 89/89/89 92/92/92 91/91/91
f 95/95/95 94/94/94 93/93/93
f 93/93/93 96/96/96 95/95/95
f 99/99/99 98/98/98 97/97/97
f 97/97/97 100/100/100 99/99/99
f 103/103/103 102/102/102 101/101/101
f 101/101/101 104/104/104 103/103/103
f 107/107/107 106/106/106 105/105/105
f 105/105/105 108/108/108 107/107/107
f 111/111/111 110/110/110 109/109/109
f 109/109/109 112/112/112 111/111/111
f 115/115/115 114/114/114 113/113/113
f 113/113/113 116/116/116 115/115/115
f 119/119/119 118/118/118 117/117/117
f 117/117/117 120/120/120 119/119/119
f 123/123/123 122/122/122 121/121/121
f 121/121/121 124/124/124 123/123/123
f 127/127/127 126/126/126 125/125/125
f 125/125/125 128/128/128 127/127/127
f 131/131/131 130/130/130 129/129/129
f 129/129/129 132/132/132 131/131/131
f 135/135/135 134/134/134 133/133/133
f 133/133/133 136/136/136 135/135/135
f 139/139/139 138/138/138 137/137/137
f 137/137/137 140/140/140 139/139/139
f 143/143/143 142/142/142 141/141/141
f 141/141/141 144/144/144 143/143/143
f 147/147/147 146/146/146 145/145/145
f 145/145/145 148/148/148 147/147/147
f 151/151/151 150/150/150 149/149/149
f 149/149/149 152/152/152 151/151/151
f 155/155/155 154/154/154 153/153/153
f 153/153/153 156/156/156 155/155/155
f 159/159/159 158/158/158 157/157/157
f 157/157/157 160/160/160 159/159/159
f 163/163/163 162/162/162 161/161/161
f 161/161/161 164/164/164 163/163/163
f 167/167/167 166/166/166 165/165/165
f 165/165/165 168/168/168 167/167/167
f 171/171/171 170/170/170 169/169/169
f 169/169/169 172/172/172 171/171/171
f 175/175/175 174/174/174 173/173/173
f 173/173/173 176/176/176 175/175/175
f 179/179/179 178/178/178 177/177/177
f 177/177/177 180/180/180 179/179/179
f 183/183/183 182/182/182 181/181/181
f 181/181/181 184/184/184 183/183/183
f 187/187/187 186/186/186 185/185/185
f 185/185/185 188/188/188 187/187/187
f 191/191/191 190/190/190 189/189/189
f 189/189/189 192/192/192 191/191/191
f 195/195/195 194/194/194 193/193/193
f 193/193/193 196/196/196 195/195/195
f 199/199/199 198/198/198 197/197/197
f 197/197/197 200/200/200 199/199/199
f 203/203/203 202/202/202 201/201/201
f 201/201/201 204/204/204 203/203/203
f 207/207/207 206/206/206 205/205/205
f 205/205/205 208/208/208 207/207/207
f 211/211/211 210/210/210 209/209/209
f 209/209/209 212/212/212 211/211/211
f 215/215/215 214/214/214 213/213/213
f 213/213/213 216/216/216 215/215/215
f 219/219/219 218/218/218 217/217/217
f 217/217/217 220/220/220 219/219/219
f 223/223/223 222/222/222 221/221/221
f 221/221/221 224/224/224 223/223/223
f 227/227/227 226/226/226 225/225/225
f 225/225/225 228/228/228 227/227/227
f 231/231/231 230/230/230 229/229/229
f 229/229/229 232/232/232 231/231/231
f 235/235/235 234/234/234 233/233/233
f 233/233/233 236/236/236 235/235/235
f 239/239/239 238/238/238 237/237/237
f 237/237/237 240/240/240 239/239/239
f 243/243/243 242/242/242 241/241/241
f 241/241/241 244/244/244 243/243/243
f 247/247/247 246/246/246 245/245/245
f 245/245/245 248/248/248 247/247/247
f 251/251/251 250/250/250 249/249/249
f 249/249/249 252/252/252 251/251/251
f 255/255/255 254/254/254 253/253/253
f 253/253/253 256/256/256 255/255/255
f 259/259/259 258/258/258 257/257/257
f 257/257/257 260/260/260 259/259/259
f 263/263/263 262/262/262 261/261/261
f 261/261/261 264/264/264 263/263/263
f 267/267/267 266/266/266 265/265/265
f 265/265/265 268/268/268 267/267/267
