g chicheng_4-mesh
v -992 415 0
v -992 1503 0
v -1664 1503 0
v -1664 415 0
v -320 415 0
v -320 1503 0
v -992 1503 0
v -992 415 0
v -1248 1503 0
v -1248 1919 0
v -1728 1919 0
v -1728 1503 0
v -768 1503 0
v -768 1919 0
v -1248 1919 0
v -1248 1503 0
v -128 0 0
v -128 415 0
v -576 415 0
v -576 0 0
v -576 0 0
v -576 415 0
v -992 415 0
v -992 0 0
v -96 511 0
v -96 831 0
v -320 831 0
v -320 511 0
v -96 831 0
v -96 1151 0
v -320 1151 0
v -320 831 0
v -512 1503 0
v -512 1759 0
v -768 1759 0
v -768 1503 0
v -1408 1919 0
v -1408 2015 0
v -1728 2015 0
v -1728 1919 0
v -1088 1919 0
v -1088 2015 0
v -1408 2015 0
v -1408 1919 0
v -224 1151 0
v -224 1375 0
v -320 1375 0
v -320 1151 0
v -160 415 0
v -160 511 0
v -320 511 0
v -320 415 0
v -1024 223 0
v -1024 415 0
v -1088 415 0
v -1088 223 0
v -640 1759 0
v -640 1855 0
v -768 1855 0
v -768 1759 0
v -1664 927 0
v -1664 1247 0
v -1696 1247 0
v -1696 927 0
v -1152 255 0
v -1152 415 0
v -1216 415 0
v -1216 255 0
v -1088 95 0
v -1088 255 0
v -1152 255 0
v -1152 95 0
v -32 863 0
v -32 1023 0
v -96 1023 0
v -96 863 0
v -1024 63 0
v -1024 223 0
v -1088 223 0
v -1088 63 0
v -32 703 0
v -32 863 0
v -96 863 0
v -96 703 0
v -1088 255 0
v -1088 415 0
v -1152 415 0
v -1152 255 0
v -1664 639 0
v -1664 927 0
v -1696 927 0
v -1696 639 0
v -1280 2015 0
v -1280 2047 0
v -1536 2047 0
v -1536 2015 0
v -960 1919 0
v -960 1983 0
v -1088 1983 0
v -1088 1919 0
v -1152 127 0
v -1152 255 0
v -1216 255 0
v -1216 127 0
v -1216 159 0
v -1216 287 0
v -1280 287 0
v -1280 159 0
v -1216 287 0
v -1216 415 0
v -1280 415 0
v -1280 287 0
v -64 0 0
v -64 127 0
v -128 127 0
v -128 0 0
v -64 127 0
v -64 255 0
v -128 255 0
v -128 127 0
v -1536 2015 0
v -1536 2047 0
v -1741 2047 0
v -1741 2015 0
v -1344 319 0
v -1344 415 0
v -1408 415 0
v -1408 319 0
v -1280 223 0
v -1280 319 0
v -1344 319 0
v -1344 223 0
v -160 1151 0
v -160 1247 0
v -224 1247 0
v -224 1151 0
v -352 1503 0
v -352 1567 0
v -448 1567 0
v -448 1503 0
v -992 223 0
v -992 415 0
v -1024 415 0
v -1024 223 0
v -448 1503 0
v -448 1599 0
v -512 1599 0
v -512 1503 0
v -448 1599 0
v -448 1695 0
v -512 1695 0
v -512 1599 0
v -1280 319 0
v -1280 415 0
v -1344 415 0
v -1344 319 0
v -992 31 0
v -992 223 0
v -1024 223 0
v -1024 31 0
v -576 1759 0
v -576 1823 0
v -640 1823 0
v -640 1759 0
v -1696 735 0
v -1696 863 0
v -1728 863 0
v -1728 735 0
v -1344 255 0
v -1344 319 0
v -1408 319 0
v -1408 255 0
v -1408 351 0
v -1408 383 0
v -1504 383 0
v -1504 351 0
v -1696 639 0
v -1696 735 0
v -1728 735 0
v -1728 639 0
v -0 863 0
v -0 959 0
v -32 959 0
v -32 863 0
v -1408 383 0
v -1408 415 0
v -1504 415 0
v -1504 383 0
v -1504 383 0
v -1504 415 0
v -1600 415 0
v -1600 383 0
v -416 1567 0
v -416 1631 0
v -448 1631 0
v -448 1567 0
v -704 1855 0
v -704 1887 0
v -768 1887 0
v -768 1855 0
v -1408 319 0
v -1408 351 0
v -1472 351 0
v -1472 319 0
v -1728 1951 0
v -1728 2015 0
v -1741 2015 0
v -1741 1951 0
v -128 447 0
v -128 511 0
v -160 511 0
v -160 447 0
v -32 127 0
v -32 191 0
v -64 191 0
v -64 127 0
v -192 1247 0
v -192 1311 0
v -224 1311 0
v -224 1247 0
v -64 1023 0
v -64 1087 0
v -96 1087 0
v -96 1023 0
v -96 287 0
v -96 351 0
v -128 351 0
v -128 287 0
v -64 639 0
v -64 703 0
v -96 703 0
v -96 639 0
v -1504 351 0
v -1504 383 0
v -1568 383 0
v -1568 351 0
v -864 1919 0
v -864 1951 0
v -928 1951 0
v -928 1919 0
v -288 1407 0
v -288 1471 0
v -320 1471 0
v -320 1407 0
v -0 799 0
v -0 863 0
v -32 863 0
v -32 799 0
v -320 1503 0
v -320 1535 0
v -352 1535 0
v -352 1503 0
v -32 0 0
v -32 31 0
v -64 31 0
v -64 0 0
v -256 1375 0
v -256 1407 0
v -288 1407 0
v -288 1375 0
v -1632 383 0
v -1632 415 0
v -1664 415 0
v -1664 383 0
v -128 1151 0
v -128 1183 0
v -160 1183 0
v -160 1151 0
v -1408 287 0
v -1408 319 0
v -1440 319 0
v -1440 287 0
v -480 1695 0
v -480 1727 0
v -512 1727 0
v -512 1695 0
v -64 607 0
v -64 639 0
v -96 639 0
v -96 607 0
v -288 1375 0
v -288 1407 0
v -320 1407 0
v -320 1375 0
v -928 1919 0
v -928 1951 0
v -960 1951 0
v -960 1919 0
v -544 1759 0
v -544 1791 0
v -576 1791 0
v -576 1759 0
v -1472 319 0
v -1472 351 0
v -1504 351 0
v -1504 319 0
v -96 255 0
v -96 287 0
v -128 287 0
v -128 255 0
vt 0.00048828125 0.000634491444
vt 0.00048828125 0.690989852
vt 0.328613281 0.690989852
vt 0.328613281 0.000634491444
vt 0.329589844 0.000634491444
vt 0.329589844 0.690989852
vt 0.657714844 0.690989852
vt 0.657714844 0.000634491444
vt 0.658691406 0.000634491444
vt 0.658691406 0.264593899
vt 0.893066406 0.264593899
vt 0.893066406 0.000634491444
vt 0.658691406 0.265862942
vt 0.658691406 0.52982235
vt 0.893066406 0.52982235
vt 0.893066406 0.265862942
vt 0.658691406 0.531091332
vt 0.658691406 0.79505074
vt 0.877441406 0.79505074
vt 0.877441406 0.531091332
vt 0.00048828125 0.692258894
vt 0.00048828125 0.956218243
vt 0.203613281 0.956218243
vt 0.203613281 0.692258894
vt 0.878417969 0.531091332
vt 0.878417969 0.734137058
vt 0.987792969 0.734137058
vt 0.987792969 0.531091332
vt 0.204589844 0.692258894
vt 0.204589844 0.895304561
vt 0.313964844 0.895304561
vt 0.313964844 0.692258894
vt 0.314941406 0.692258894
vt 0.314941406 0.854695439
vt 0.439941406 0.854695439
vt 0.439941406 0.692258894
vt 0.440917969 0.692258894
vt 0.440917969 0.753172576
vt 0.597167969 0.753172576
vt 0.597167969 0.692258894
vt 0.440917969 0.754441619
vt 0.440917969 0.815355301
vt 0.597167969 0.815355301
vt 0.597167969 0.754441619
vt 0.598144531 0.692258894
vt 0.598144531 0.834390879
vt 0.645019531 0.834390879
vt 0.645019531 0.692258894
vt 0.878417969 0.735406101
vt 0.878417969 0.796319783
vt 0.956542969 0.796319783
vt 0.956542969 0.735406101
vt 0.957519531 0.735406101
vt 0.957519531 0.857233524
vt 0.988769531 0.857233524
vt 0.988769531 0.735406101
vt 0.658691406 0.796319783
vt 0.658691406 0.857233524
vt 0.721191406 0.857233524
vt 0.721191406 0.796319783
vt 0.722167969 0.796319783
vt 0.722167969 0.999365509
vt 0.737792969 0.999365509
vt 0.737792969 0.796319783
vt 0.738769531 0.796319783
vt 0.738769531 0.897842646
vt 0.770019531 0.897842646
vt 0.770019531 0.796319783
vt 0.770996094 0.796319783
vt 0.770996094 0.897842646
vt 0.802246094 0.897842646
vt 0.802246094 0.796319783
vt 0.803222656 0.796319783
vt 0.803222656 0.897842646
vt 0.834472656 0.897842646
vt 0.834472656 0.796319783
vt 0.835449219 0.796319783
vt 0.835449219 0.897842646
vt 0.866699219 0.897842646
vt 0.866699219 0.796319783
vt 0.878417969 0.797588825
vt 0.878417969 0.899111688
vt 0.909667969 0.899111688
vt 0.909667969 0.797588825
vt 0.910644531 0.797588825
vt 0.910644531 0.899111688
vt 0.941894531 0.899111688
vt 0.941894531 0.797588825
vt 0.440917969 0.816624343
vt 0.440917969 0.999365509
vt 0.456542969 0.999365509
vt 0.456542969 0.816624343
vt 0.457519531 0.816624343
vt 0.457519531 0.836928964
vt 0.582519531 0.836928964
vt 0.582519531 0.816624343
vt 0.457519531 0.838197947
vt 0.457519531 0.878807127
vt 0.520019531 0.878807127
vt 0.520019531 0.838197947
vt 0.598144531 0.835659862
vt 0.598144531 0.916878164
vt 0.629394531 0.916878164
vt 0.629394531 0.835659862
vt 0.520996094 0.838197947
vt 0.520996094 0.919416249
vt 0.552246094 0.919416249
vt 0.552246094 0.838197947
vt 0.553222656 0.838197947
vt 0.553222656 0.919416249
vt 0.584472656 0.919416249
vt 0.584472656 0.838197947
vt 0.314941406 0.855964482
vt 0.314941406 0.937182724
vt 0.346191406 0.937182724
vt 0.346191406 0.855964482
vt 0.347167969 0.855964482
vt 0.347167969 0.937182724
vt 0.378417969 0.937182724
vt 0.378417969 0.855964482
vt 0.204589844 0.896573603
vt 0.204589844 0.916878164
vt 0.305175781 0.916878164
vt 0.305175781 0.896573603
vt 0.379394531 0.855964482
vt 0.379394531 0.916878164
vt 0.410644531 0.916878164
vt 0.410644531 0.855964482
vt 0.658691406 0.858502507
vt 0.658691406 0.919416249
vt 0.689941406 0.919416249
vt 0.689941406 0.858502507
vt 0.957519531 0.858502507
vt 0.957519531 0.919416249
vt 0.988769531 0.919416249
vt 0.988769531 0.858502507
vt 0.457519531 0.88007617
vt 0.457519531 0.920685291
vt 0.504394531 0.920685291
vt 0.504394531 0.88007617
vt 0.630371094 0.835659862
vt 0.630371094 0.957487285
vt 0.645996094 0.957487285
vt 0.645996094 0.835659862
vt 0.738769531 0.899111688
vt 0.738769531 0.96002537
vt 0.770019531 0.96002537
vt 0.770019531 0.899111688
vt 0.770996094 0.899111688
vt 0.770996094 0.96002537
vt 0.802246094 0.96002537
vt 0.802246094 0.899111688
vt 0.803222656 0.899111688
vt 0.803222656 0.96002537
vt 0.834472656 0.96002537
vt 0.834472656 0.899111688
vt 0.411621094 0.855964482
vt 0.411621094 0.977791905
vt 0.427246094 0.977791905
vt 0.427246094 0.855964482
vt 0.835449219 0.899111688
vt 0.835449219 0.939720809
vt 0.866699219 0.939720809
vt 0.866699219 0.899111688
vt 0.690917969 0.858502507
vt 0.690917969 0.939720809
vt 0.706542969 0.939720809
vt 0.706542969 0.858502507
vt 0.878417969 0.900380731
vt 0.878417969 0.940989852
vt 0.909667969 0.940989852
vt 0.909667969 0.900380731
vt 0.204589844 0.918147206
vt 0.204589844 0.938451767
vt 0.251464844 0.938451767
vt 0.251464844 0.918147206
vt 0.910644531 0.900380731
vt 0.910644531 0.961294413
vt 0.926269531 0.961294413
vt 0.926269531 0.900380731
vt 0.927246094 0.900380731
vt 0.927246094 0.961294413
vt 0.942871094 0.961294413
vt 0.942871094 0.900380731
vt 0.252441406 0.918147206
vt 0.252441406 0.938451767
vt 0.299316406 0.938451767
vt 0.299316406 0.918147206
vt 0.520996094 0.920685291
vt 0.520996094 0.940989852
vt 0.567871094 0.940989852
vt 0.567871094 0.920685291
vt 0.379394531 0.918147206
vt 0.379394531 0.958756328
vt 0.395019531 0.958756328
vt 0.395019531 0.918147206
vt 0.598144531 0.918147206
vt 0.598144531 0.938451767
vt 0.629394531 0.938451767
vt 0.629394531 0.918147206
vt 0.658691406 0.920685291
vt 0.658691406 0.940989852
vt 0.689941406 0.940989852
vt 0.689941406 0.920685291
vt 0.989746094 0.000634491444
vt 0.989746094 0.0412436724
vt 0.996582031 0.0412436724
vt 0.996582031 0.000634491444
vt 0.568847656 0.920685291
vt 0.568847656 0.961294413
vt 0.584472656 0.961294413
vt 0.584472656 0.920685291
vt 0.957519531 0.920685291
vt 0.957519531 0.961294413
vt 0.973144531 0.961294413
vt 0.973144531 0.920685291
vt 0.974121094 0.920685291
vt 0.974121094 0.961294413
vt 0.989746094 0.961294413
vt 0.989746094 0.920685291
vt 0.457519531 0.921954334
vt 0.457519531 0.962563455
vt 0.473144531 0.962563455
vt 0.473144531 0.921954334
vt 0.474121094 0.921954334
vt 0.474121094 0.962563455
vt 0.489746094 0.962563455
vt 0.489746094 0.921954334
vt 0.490722656 0.921954334
vt 0.490722656 0.962563455
vt 0.506347656 0.962563455
vt 0.506347656 0.921954334
vt 0.314941406 0.938451767
vt 0.314941406 0.958756328
vt 0.346191406 0.958756328
vt 0.346191406 0.938451767
vt 0.347167969 0.938451767
vt 0.347167969 0.958756328
vt 0.378417969 0.958756328
vt 0.378417969 0.938451767
vt 0.204589844 0.939720809
vt 0.204589844 0.980329931
vt 0.220214844 0.980329931
vt 0.220214844 0.939720809
vt 0.221191406 0.939720809
vt 0.221191406 0.980329931
vt 0.236816406 0.980329931
vt 0.236816406 0.939720809
vt 0.237792969 0.939720809
vt 0.237792969 0.96002537
vt 0.253417969 0.96002537
vt 0.253417969 0.939720809
vt 0.254394531 0.939720809
vt 0.254394531 0.96002537
vt 0.270019531 0.96002537
vt 0.270019531 0.939720809
vt 0.270996094 0.939720809
vt 0.270996094 0.96002537
vt 0.286621094 0.96002537
vt 0.286621094 0.939720809
vt 0.287597656 0.939720809
vt 0.287597656 0.96002537
vt 0.303222656 0.96002537
vt 0.303222656 0.939720809
vt 0.598144531 0.939720809
vt 0.598144531 0.96002537
vt 0.613769531 0.96002537
vt 0.613769531 0.939720809
vt 0.690917969 0.940989852
vt 0.690917969 0.961294413
vt 0.706542969 0.961294413
vt 0.706542969 0.940989852
vt 0.835449219 0.940989852
vt 0.835449219 0.961294413
vt 0.851074219 0.961294413
vt 0.851074219 0.940989852
vt 0.852050781 0.940989852
vt 0.852050781 0.961294413
vt 0.867675781 0.961294413
vt 0.867675781 0.940989852
vt 0.520996094 0.942258894
vt 0.520996094 0.962563455
vt 0.536621094 0.962563455
vt 0.536621094 0.942258894
vt 0.537597656 0.942258894
vt 0.537597656 0.962563455
vt 0.553222656 0.962563455
vt 0.553222656 0.942258894
vt 0.658691406 0.942258894
vt 0.658691406 0.962563455
vt 0.674316406 0.962563455
vt 0.674316406 0.942258894
vt 0.878417969 0.942258894
vt 0.878417969 0.962563455
vt 0.894042969 0.962563455
vt 0.894042969 0.942258894
vt 0.00048828125 0.957487285
vt 0.00048828125 0.977791905
vt 0.0161132812 0.977791905
vt 0.0161132812 0.957487285
g chicheng_4-mesh_0
f 3/3/3 2/2/2 1/1/1
f 1/1/1 4/4/4 3/3/3
f 7/7/7 6/6/6 5/5/5
f 5/5/5 8/8/8 7/7/7
f 11/11/11 10/10/10 9/9/9
f 9/9/9 12/12/12 11/11/11
f 15/15/15 14/14/14 13/13/13
f 13/13/13 16/16/16 15/15/15
f 19/19/19 18/18/18 17/17/17
f 17/17/17 20/20/20 19/19/19
f 23/23/23 22/22/22 21/21/21
f 21/21/21 24/24/24 23/23/23
f 27/27/27 26/26/26 25/25/25
f 25/25/25 28/28/28 27/27/27
f 31/31/31 30/30/30 29/29/29
f 29/29/29 32/32/32 31/31/31
f 35/35/35 34/34/34 33/33/33
f 33/33/33 36/36/36 35/35/35
f 39/39/39 38/38/38 37/37/37
f 37/37/37 40/40/40 39/39/39
f 43/43/43 42/42/42 41/41/41
f 41/41/41 44/44/44 43/43/43
f 47/47/47 46/46/46 45/45/45
f 45/45/45 48/48/48 47/47/47
f 51/51/51 50/50/50 49/49/49
f 49/49/49 52/52/52 51/51/51
f 55/55/55 54/54/54 53/53/53
f 53/53/53 56/56/56 55/55/55
f 59/59/59 58/58/58 57/57/57
f 57/57/57 60/60/60 59/59/59
f 63/63/63 62/62/62 61/61/61
f 61/61/61 64/64/64 63/63/63
f 67/67/67 66/66/66 65/65/65
f 65/65/65 68/68/68 67/67/67
f 71/71/71 70/70/70 69/69/69
f 69/69/69 72/72/72 71/71/71
f 75/75/75 74/74/74 73/73/73
f 73/73/73 76/76/76 75/75/75
f 79/79/79 78/78/78 77/77/77
f 77/77/77 80/80/80 79/79/79
f 83/83/83 82/82/82 81/81/81
f 81/81/81 84/84/84 83/83/83
f 87/87/87 86/86/86 85/85/85
f 85/85/85 88/88/88 87/87/87
f 91/91/91 90/90/90 89/89/89
f 89/89/89 92/92/92 91/91/91
f 95/95/95 94/94/94 93/93/93
f 93/93/93 96/96/96 95/95/95
f 99/99/99 98/98/98 97/97/97
f 97/97/97 100/100/100 99/99/99
f 103/103/103 102/102/102 101/101/101
f 101/101/101 104/104/104 103/103/103
f 107/107/107 106/106/106 105/105/105
f 105/105/105 108/108/108 107/107/107
f 111/111/111 110/110/110 109/109/109
f 109/109/109 112/112/112 111/111/111
f 115/115/115 114/114/114 113/113/113
f 113/113/113 116/116/116 115/115/115
f 119/119/119 118/118/118 117/117/117
f 117/117/117 120/120/120 119/119/119
f 123/123/123 122/122/122 121/121/121
f 121/121/121 124/124/124 123/123/123
f 127/127/127 126/126/126 125/125/125
f 125/125/125 128/128/128 127/127/127
f 131/131/131 130/130/130 129/129/129
f 129/129/129 132/132/132 131/131/131
f 135/135/135 134/134/134 133/133/133
f 133/133/133 136/136/136 135/135/135
f 139/139/139 138/138/138 137/137/137
f 137/137/137 140/140/140 139/139/139
f 143/143/143 142/142/142 141/141/141
f 141/141/141 144/144/144 143/143/143
f 147/147/147 146/146/146 145/145/145
f 145/145/145 148/148/148 147/147/147
f 151/151/151 150/150/150 149/149/149
f 149/149/149 152/152/152 151/151/151
f 155/155/155 154/154/154 153/153/153
f 153/153/153 156/156/156 155/155/155
f 159/159/159 158/158/158 157/157/157
f 157/157/157 160/160/160 159/159/159
f 163/163/163 162/162/162 161/161/161
f 161/161/161 164/164/164 163/163/163
f 167/167/167 166/166/166 165/165/165
f 165/165/165 168/168/168 167/167/167
f 171/171/171 170/170/170 169/169/169
f 169/169/169 172/172/172 171/171/171
f 175/175/175 174/174/174 173/173/173
f 173/173/173 176/176/176 175/175/175
f 179/179/179 178/178/178 177/177/177
f 177/177/177 180/180/180 179/179/179
f 183/183/183 182/182/182 181/181/181
f 181/181/181 184/184/184 183/183/183
f 187/187/187 186/186/186 185/185/185
f 185/185/185 188/188/188 187/187/187
f 191/191/191 190/190/190 189/189/189
f 189/189/189 192/192/192 191/191/191
f 195/195/195 194/194/194 193/193/193
f 193/193/193 196/196/196 195/195/195
f 199/199/199 198/198/198 197/197/197
f 197/197/197 200/200/200 199/199/199
f 203/203/203 202/202/202 201/201/201
f 201/201/201 204/204/204 203/203/203
f 207/207/207 206/206/206 205/205/205
f 205/205/205 208/208/208 207/207/207
f 211/211/211 210/210/210 209/209/209
f 209/209/209 212/212/212 211/211/211
f 215/215/215 214/214/214 213/213/213
f 213/213/213 216/216/216 215/215/215
f 219/219/219 218/218/218 217/217/217
f 217/217/217 220/220/220 219/219/219
f 223/223/223 222/222/222 221/221/221
f 221/221/221 224/224/224 223/223/223
f 227/227/227 226/226/226 225/225/225
f 225/225/225 228/228/228 227/227/227
f 231/231/231 230/230/230 229/229/229
f 229/229/229 232/232/232 231/231/231
f 235/235/235 234/234/234 233/233/233
f 233/233/233 236/236/236 235/235/235
f 239/239/239 238/238/238 237/237/237
f 237/237/237 240/240/240 239/239/239
f 243/243/243 242/242/242 241/241/241
f 241/241/241 244/244/244 243/243/243
f 247/247/247 246/246/246 245/245/245
f 245/245/245 248/248/248 247/247/247
f 251/251/251 250/250/250 249/249/249
f 249/249/249 252/252/252 251/251/251
f 255/255/255 254/254/254 253/253/253
f 253/253/253 256/256/256 255/255/255
f 259/259/259 258/258/258 257/257/257
f 257/257/257 260/260/260 259/259/259
f 263/263/263 262/262/262 261/261/261
f 261/261/261 264/264/264 263/263/263
f 267/267/267 266/266/266 265/265/265
f 265/265/265 268/268/268 267/267/267
f 271/271/271 270/270/270 269/269/269
f 269/269/269 272/272/272 271/271/271
f 275/275/275 274/274/274 273/273/273
f 273/273/273 276/276/276 275/275/275
f 279/279/279 278/278/278 277/277/277
f 277/277/277 280/280/280 279/279/279
f 283/283/283 282/282/282 281/281/281
f 281/281/281 284/284/284 283/283/283
f 287/287/287 286/286/286 285/285/285
f 285/285/285 288/288/288 287/287/287
f 291/291/291 290/290/290 289/289/289
f 289/289/289 292/292/292 291/291/291
f 295/295/295 294/294/294 293/293/293
f 293/293/293 296/296/296 295/295/295
f 299/299/299 298/298/298 297/297/297
f 297/297/297 300/300/300 299/299/299
