g feilikesishuerci_bj3-mesh
v -1056 380 0
v -1056 1148 0
v -1696 1148 0
v -1696 380 0
v -416 380 0
v -416 1148 0
v -1056 1148 0
v -1056 380 0
v -832 92 0
v -832 380 0
v -1280 380 0
v -1280 92 0
v -160 1084 0
v -160 1468 0
v -416 1468 0
v -416 1084 0
v -160 732 0
v -160 1084 0
v -416 1084 0
v -416 732 0
v -1696 668 0
v -1696 1052 0
v -1888 1052 0
v -1888 668 0
v -416 1148 0
v -416 1372 0
v -672 1372 0
v -672 1148 0
v -256 540 0
v -256 732 0
v -416 732 0
v -416 540 0
v -64 1276 0
v -64 1596 0
v -160 1596 0
v -160 1276 0
v -608 252 0
v -608 380 0
v -832 380 0
v -832 252 0
v -64 988 0
v -64 1276 0
v -160 1276 0
v -160 988 0
v -1280 188 0
v -1280 380 0
v -1408 380 0
v -1408 188 0
v -704 1148 0
v -704 1276 0
v -832 1276 0
v -832 1148 0
v -1408 220 0
v -1408 380 0
v -1504 380 0
v -1504 220 0
v -1184 1148 0
v -1184 1212 0
v -1376 1212 0
v -1376 1148 0
v -1696 1052 0
v -1696 1148 0
v -1824 1148 0
v -1824 1052 0
v -160 1468 0
v -160 1596 0
v -256 1596 0
v -256 1468 0
v -0 1404 0
v -0 1564 0
v -64 1564 0
v -64 1404 0
v -1376 1148 0
v -1376 1212 0
v -1536 1212 0
v -1536 1148 0
v -480 316 0
v -480 380 0
v -608 380 0
v -608 316 0
v -928 28 0
v -928 92 0
v -1056 92 0
v -1056 28 0
v -1056 28 0
v -1056 92 0
v -1184 92 0
v -1184 28 0
v -0 1276 0
v -0 1404 0
v -64 1404 0
v -64 1276 0
v -96 892 0
v -96 988 0
v -160 988 0
v -160 892 0
v -672 1276 0
v -672 1340 0
v -768 1340 0
v -768 1276 0
v -256 1468 0
v -256 1532 0
v -352 1532 0
v -352 1468 0
v -768 188 0
v -768 252 0
v -832 252 0
v -832 188 0
v -192 668 0
v -192 732 0
v -256 732 0
v -256 668 0
v -1632 1148 0
v -1632 1180 0
v -1728 1180 0
v -1728 1148 0
v -1536 1148 0
v -1536 1180 0
v -1632 1180 0
v -1632 1148 0
v -1504 348 0
v -1504 380 0
v -1600 380 0
v -1600 348 0
v -1696 636 0
v -1696 668 0
v -1792 668 0
v -1792 636 0
v -1696 572 0
v -1696 636 0
v -1728 636 0
v -1728 572 0
v -384 444 0
v -384 508 0
v -416 508 0
v -416 444 0
v -1888 732 0
v -1888 796 0
v -1898 796 0
v -1898 732 0
v -928 1148 0
v -928 1180 0
v -992 1180 0
v -992 1148 0
v -800 124 0
v -800 188 0
v -832 188 0
v -832 124 0
v -1728 572 0
v -1728 636 0
v -1760 636 0
v -1760 572 0
v -864 1148 0
v -864 1212 0
v -896 1212 0
v -896 1148 0
v -1504 1276 0
v -1504 1308 0
v -1568 1308 0
v -1568 1276 0
v -1152 1212 0
v -1152 1244 0
v -1216 1244 0
v -1216 1212 0
v -1504 284 0
v -1504 348 0
v -1536 348 0
v -1536 284 0
v -224 604 0
v -224 668 0
v -256 668 0
v -256 604 0
v -960 0 0
v -960 28 0
v -1024 28 0
v -1024 0 0
v -1056 1148 0
v -1056 1180 0
v -1120 1180 0
v -1120 1148 0
v -1120 1148 0
v -1120 1180 0
v -1184 1180 0
v -1184 1148 0
v -288 508 0
v -288 540 0
v -352 540 0
v -352 508 0
v -32 1148 0
v -32 1212 0
v -64 1212 0
v -64 1148 0
v -1792 636 0
v -1792 668 0
v -1856 668 0
v -1856 636 0
v -1600 348 0
v -1600 380 0
v -1664 380 0
v -1664 348 0
v -32 1212 0
v -32 1276 0
v -64 1276 0
v -64 1212 0
v -672 1180 0
v -672 1244 0
v -704 1244 0
v -704 1180 0
v -1664 1180 0
v -1664 1244 0
v -1696 1244 0
v -1696 1180 0
v -352 508 0
v -352 540 0
v -416 540 0
v -416 508 0
v -416 1372 0
v -416 1404 0
v -480 1404 0
v -480 1372 0
v -1536 1244 0
v -1536 1276 0
v -1568 1276 0
v -1568 1244 0
v -128 860 0
v -128 892 0
v -160 892 0
v -160 860 0
v -768 1276 0
v -768 1308 0
v -800 1308 0
v -800 1276 0
v -1760 604 0
v -1760 636 0
v -1792 636 0
v -1792 604 0
v -736 220 0
v -736 252 0
v -768 252 0
v -768 220 0
v -608 220 0
v -608 252 0
v -640 252 0
v -640 220 0
v -1184 60 0
v -1184 92 0
v -1216 92 0
v -1216 60 0
v -896 60 0
v -896 92 0
v -928 92 0
v -928 60 0
v -448 348 0
v -448 380 0
v -480 380 0
v -480 348 0
v -320 444 0
v -320 476 0
v -352 476 0
v -352 444 0
v -544 284 0
v -544 316 0
v -576 316 0
v -576 284 0
v -1536 316 0
v -1536 348 0
v -1568 348 0
v -1568 316 0
v -1888 700 0
v -1888 732 0
v -1898 732 0
v -1898 700 0
v -1696 540 0
v -1696 572 0
v -1728 572 0
v -1728 540 0
v -384 412 0
v -384 444 0
v -416 444 0
v -416 412 0
v -480 1372 0
v -480 1404 0
v -512 1404 0
v -512 1372 0
v -672 1148 0
v -672 1180 0
v -704 1180 0
v -704 1148 0
v -992 1148 0
v -992 1180 0
v -1024 1180 0
v -1024 1148 0
v -256 1532 0
v -256 1564 0
v -288 1564 0
v -288 1532 0
v -416 1404 0
v -416 1436 0
v -448 1436 0
v -448 1404 0
v -672 1340 0
v -672 1372 0
v -704 1372 0
v -704 1340 0
v -1504 252 0
v -1504 284 0
v -1536 284 0
v -1536 252 0
v -1024 0 0
v -1024 28 0
v -1056 28 0
v -1056 0 0
v -32 1564 0
v -32 1596 0
v -64 1596 0
v -64 1564 0
vt 0.00048828125 0.00103521347
vt 0.00048828125 0.796066284
vt 0.312988281 0.796066284
vt 0.312988281 0.00103521347
vt 0.313964844 0.00103521347
vt 0.313964844 0.796066284
vt 0.626464844 0.796066284
vt 0.626464844 0.00103521347
vt 0.627441406 0.00103521347
vt 0.627441406 0.299171865
vt 0.846191406 0.299171865
vt 0.846191406 0.00103521347
vt 0.847167969 0.00103521347
vt 0.847167969 0.398550749
vt 0.972167969 0.398550749
vt 0.972167969 0.00103521347
vt 0.627441406 0.301242232
vt 0.627441406 0.665631473
vt 0.752441406 0.665631473
vt 0.752441406 0.301242232
vt 0.847167969 0.400621116
vt 0.847167969 0.798136652
vt 0.940917969 0.798136652
vt 0.940917969 0.400621116
vt 0.627441406 0.66770184
vt 0.627441406 0.899585903
vt 0.752441406 0.899585903
vt 0.752441406 0.66770184
vt 0.753417969 0.301242232
vt 0.753417969 0.5
vt 0.831542969 0.5
vt 0.831542969 0.301242232
vt 0.941894531 0.400621116
vt 0.941894531 0.731884062
vt 0.988769531 0.731884062
vt 0.988769531 0.400621116
vt 0.00048828125 0.798136652
vt 0.00048828125 0.93064183
vt 0.109863281 0.93064183
vt 0.109863281 0.798136652
vt 0.753417969 0.502070427
vt 0.753417969 0.800207019
vt 0.800292969 0.800207019
vt 0.800292969 0.502070427
vt 0.110839844 0.798136652
vt 0.110839844 0.996894419
vt 0.173339844 0.996894419
vt 0.173339844 0.798136652
vt 0.174316406 0.798136652
vt 0.174316406 0.93064183
vt 0.236816406 0.93064183
vt 0.236816406 0.798136652
vt 0.941894531 0.73395443
vt 0.941894531 0.899585903
vt 0.988769531 0.899585903
vt 0.988769531 0.73395443
vt 0.237792969 0.798136652
vt 0.237792969 0.864389241
vt 0.331542969 0.864389241
vt 0.331542969 0.798136652
vt 0.332519531 0.798136652
vt 0.332519531 0.897515535
vt 0.395019531 0.897515535
vt 0.395019531 0.798136652
vt 0.395996094 0.798136652
vt 0.395996094 0.93064183
vt 0.442871094 0.93064183
vt 0.442871094 0.798136652
vt 0.801269531 0.502070427
vt 0.801269531 0.66770184
vt 0.832519531 0.66770184
vt 0.832519531 0.502070427
vt 0.443847656 0.798136652
vt 0.443847656 0.864389241
vt 0.521972656 0.864389241
vt 0.521972656 0.798136652
vt 0.522949219 0.798136652
vt 0.522949219 0.864389241
vt 0.585449219 0.864389241
vt 0.585449219 0.798136652
vt 0.847167969 0.800207019
vt 0.847167969 0.866459608
vt 0.909667969 0.866459608
vt 0.909667969 0.800207019
vt 0.753417969 0.802277446
vt 0.753417969 0.868530035
vt 0.815917969 0.868530035
vt 0.815917969 0.802277446
vt 0.586425781 0.798136652
vt 0.586425781 0.93064183
vt 0.617675781 0.93064183
vt 0.617675781 0.798136652
vt 0.237792969 0.866459608
vt 0.237792969 0.965838492
vt 0.269042969 0.965838492
vt 0.269042969 0.866459608
vt 0.270019531 0.866459608
vt 0.270019531 0.932712197
vt 0.316894531 0.932712197
vt 0.316894531 0.866459608
vt 0.443847656 0.866459608
vt 0.443847656 0.932712197
vt 0.490722656 0.932712197
vt 0.490722656 0.866459608
vt 0.491699219 0.866459608
vt 0.491699219 0.932712197
vt 0.522949219 0.932712197
vt 0.522949219 0.866459608
vt 0.523925781 0.866459608
vt 0.523925781 0.932712197
vt 0.555175781 0.932712197
vt 0.555175781 0.866459608
vt 0.847167969 0.868530035
vt 0.847167969 0.90165633
vt 0.894042969 0.90165633
vt 0.894042969 0.868530035
vt 0.753417969 0.870600402
vt 0.753417969 0.903726697
vt 0.800292969 0.903726697
vt 0.800292969 0.870600402
vt 0.332519531 0.899585903
vt 0.332519531 0.932712197
vt 0.379394531 0.932712197
vt 0.379394531 0.899585903
vt 0.627441406 0.90165633
vt 0.627441406 0.934782624
vt 0.674316406 0.934782624
vt 0.674316406 0.90165633
vt 0.816894531 0.669772267
vt 0.816894531 0.736024857
vt 0.832519531 0.736024857
vt 0.832519531 0.669772267
vt 0.816894531 0.738095224
vt 0.816894531 0.804347813
vt 0.832519531 0.804347813
vt 0.832519531 0.738095224
vt 0.989746094 0.00103521347
vt 0.989746094 0.0672878027
vt 0.995117188 0.0672878027
vt 0.995117188 0.00103521347
vt 0.895019531 0.868530035
vt 0.895019531 0.90165633
vt 0.926269531 0.90165633
vt 0.926269531 0.868530035
vt 0.816894531 0.80641824
vt 0.816894531 0.872670829
vt 0.832519531 0.872670829
vt 0.832519531 0.80641824
vt 0.556152344 0.866459608
vt 0.556152344 0.932712197
vt 0.571777344 0.932712197
vt 0.571777344 0.866459608
vt 0.816894531 0.874741197
vt 0.816894531 0.940993786
vt 0.832519531 0.940993786
vt 0.832519531 0.874741197
vt 0.675292969 0.90165633
vt 0.675292969 0.934782624
vt 0.706542969 0.934782624
vt 0.706542969 0.90165633
vt 0.707519531 0.90165633
vt 0.707519531 0.934782624
vt 0.738769531 0.934782624
vt 0.738769531 0.90165633
vt 0.941894531 0.90165633
vt 0.941894531 0.967908919
vt 0.957519531 0.967908919
vt 0.957519531 0.90165633
vt 0.958496094 0.90165633
vt 0.958496094 0.967908919
vt 0.974121094 0.967908919
vt 0.974121094 0.90165633
vt 0.847167969 0.903726697
vt 0.847167969 0.933747411
vt 0.878417969 0.933747411
vt 0.878417969 0.903726697
vt 0.879394531 0.903726697
vt 0.879394531 0.936852992
vt 0.910644531 0.936852992
vt 0.910644531 0.903726697
vt 0.753417969 0.905797124
vt 0.753417969 0.938923419
vt 0.784667969 0.938923419
vt 0.784667969 0.905797124
vt 0.00048828125 0.932712197
vt 0.00048828125 0.965838492
vt 0.0317382812 0.965838492
vt 0.0317382812 0.932712197
vt 0.975097656 0.90165633
vt 0.975097656 0.967908919
vt 0.990722656 0.967908919
vt 0.990722656 0.90165633
vt 0.0327148438 0.932712197
vt 0.0327148438 0.965838492
vt 0.0639648438 0.965838492
vt 0.0639648438 0.932712197
vt 0.0649414062 0.932712197
vt 0.0649414062 0.965838492
vt 0.0961914062 0.965838492
vt 0.0961914062 0.932712197
vt 0.911621094 0.903726697
vt 0.911621094 0.969979286
vt 0.927246094 0.969979286
vt 0.927246094 0.903726697
vt 0.785644531 0.905797124
vt 0.785644531 0.972049713
vt 0.801269531 0.972049713
vt 0.801269531 0.905797124
vt 0.174316406 0.932712197
vt 0.174316406 0.998964787
vt 0.189941406 0.998964787
vt 0.189941406 0.932712197
vt 0.190917969 0.932712197
vt 0.190917969 0.965838492
vt 0.222167969 0.965838492
vt 0.222167969 0.932712197
vt 0.395996094 0.932712197
vt 0.395996094 0.965838492
vt 0.427246094 0.965838492
vt 0.427246094 0.932712197
vt 0.586425781 0.932712197
vt 0.586425781 0.965838492
vt 0.602050781 0.965838492
vt 0.602050781 0.932712197
vt 0.603027344 0.932712197
vt 0.603027344 0.965838492
vt 0.618652344 0.965838492
vt 0.618652344 0.932712197
vt 0.270019531 0.934782624
vt 0.270019531 0.967908919
vt 0.285644531 0.967908919
vt 0.285644531 0.934782624
vt 0.286621094 0.934782624
vt 0.286621094 0.967908919
vt 0.302246094 0.967908919
vt 0.302246094 0.934782624
vt 0.303222656 0.934782624
vt 0.303222656 0.967908919
vt 0.318847656 0.967908919
vt 0.318847656 0.934782624
vt 0.332519531 0.934782624
vt 0.332519531 0.967908919
vt 0.348144531 0.967908919
vt 0.348144531 0.934782624
vt 0.349121094 0.934782624
vt 0.349121094 0.967908919
vt 0.364746094 0.967908919
vt 0.364746094 0.934782624
vt 0.365722656 0.934782624
vt 0.365722656 0.967908919
vt 0.381347656 0.967908919
vt 0.381347656 0.934782624
vt 0.443847656 0.934782624
vt 0.443847656 0.967908919
vt 0.459472656 0.967908919
vt 0.459472656 0.934782624
vt 0.460449219 0.934782624
vt 0.460449219 0.967908919
vt 0.476074219 0.967908919
vt 0.476074219 0.934782624
vt 0.477050781 0.934782624
vt 0.477050781 0.967908919
vt 0.492675781 0.967908919
vt 0.492675781 0.934782624
vt 0.493652344 0.934782624
vt 0.493652344 0.967908919
vt 0.509277344 0.967908919
vt 0.509277344 0.934782624
vt 0.991699219 0.06935817
vt 0.991699219 0.102484465
vt 0.997070312 0.102484465
vt 0.997070312 0.06935817
vt 0.510253906 0.934782624
vt 0.510253906 0.967908919
vt 0.525878906 0.967908919
vt 0.525878906 0.934782624
vt 0.526855469 0.934782624
vt 0.526855469 0.967908919
vt 0.542480469 0.967908919
vt 0.542480469 0.934782624
vt 0.543457031 0.934782624
vt 0.543457031 0.967908919
vt 0.559082031 0.967908919
vt 0.559082031 0.934782624
vt 0.560058594 0.934782624
vt 0.560058594 0.967908919
vt 0.575683594 0.967908919
vt 0.575683594 0.934782624
vt 0.847167969 0.935817838
vt 0.847167969 0.968944073
vt 0.862792969 0.968944073
vt 0.862792969 0.935817838
vt 0.627441406 0.936852992
vt 0.627441406 0.969979286
vt 0.643066406 0.969979286
vt 0.643066406 0.936852992
vt 0.644042969 0.936852992
vt 0.644042969 0.969979286
vt 0.659667969 0.969979286
vt 0.659667969 0.936852992
vt 0.660644531 0.936852992
vt 0.660644531 0.969979286
vt 0.676269531 0.969979286
vt 0.676269531 0.936852992
vt 0.677246094 0.936852992
vt 0.677246094 0.969979286
vt 0.692871094 0.969979286
vt 0.692871094 0.936852992
vt 0.693847656 0.936852992
vt 0.693847656 0.966873705
vt 0.709472656 0.966873705
vt 0.709472656 0.936852992
vt 0.710449219 0.936852992
vt 0.710449219 0.969979286
vt 0.726074219 0.969979286
vt 0.726074219 0.936852992
g feilikesishuerci_bj3-mesh_0
f 3/3/3 2/2/2 1/1/1
f 1/1/1 4/4/4 3/3/3
f 7/7/7 6/6/6 5/5/5
f 5/5/5 8/8/8 7/7/7
f 11/11/11 10/10/10 9/9/9
f 9/9/9 12/12/12 11/11/11
f 15/15/15 14/14/14 13/13/13
f 13/13/13 16/16/16 15/15/15
f 19/19/19 18/18/18 17/17/17
f 17/17/17 20/20/20 19/19/19
f 23/23/23 22/22/22 21/21/21
f 21/21/21 24/24/24 23/23/23
f 27/27/27 26/26/26 25/25/25
f 25/25/25 28/28/28 27/27/27
f 31/31/31 30/30/30 29/29/29
f 29/29/29 32/32/32 31/31/31
f 35/35/35 34/34/34 33/33/33
f 33/33/33 36/36/36 35/35/35
f 39/39/39 38/38/38 37/37/37
f 37/37/37 40/40/40 39/39/39
f 43/43/43 42/42/42 41/41/41
f 41/41/41 44/44/44 43/43/43
f 47/47/47 46/46/46 45/45/45
f 45/45/45 48/48/48 47/47/47
f 51/51/51 50/50/50 49/49/49
f 49/49/49 52/52/52 51/51/51
f 55/55/55 54/54/54 53/53/53
f 53/53/53 56/56/56 55/55/55
f 59/59/59 58/58/58 57/57/57
f 57/57/57 60/60/60 59/59/59
f 63/63/63 62/62/62 61/61/61
f 61/61/61 64/64/64 63/63/63
f 67/67/67 66/66/66 65/65/65
f 65/65/65 68/68/68 67/67/67
f 71/71/71 70/70/70 69/69/69
f 69/69/69 72/72/72 71/71/71
f 75/75/75 74/74/74 73/73/73
f 73/73/73 76/76/76 75/75/75
f 79/79/79 78/78/78 77/77/77
f 77/77/77 80/80/80 79/79/79
f 83/83/83 82/82/82 81/81/81
f 81/81/81 84/84/84 83/83/83
f 87/87/87 86/86/86 85/85/85
f 85/85/85 88/88/88 87/87/87
f 91/91/91 90/90/90 89/89/89
f 89/89/89 92/92/92 91/91/91
f 95/95/95 94/94/94 93/93/93
f 93/93/93 96/96/96 95/95/95
f 99/99/99 98/98/98 97/97/97
f 97/97/97 100/100/100 99/99/99
f 103/103/103 102/102/102 101/101/101
f 101/101/101 104/104/104 103/103/103
f 107/107/107 106/106/106 105/105/105
f 105/105/105 108/108/108 107/107/107
f 111/111/111 110/110/110 109/109/109
f 109/109/109 112/112/112 111/111/111
f 115/115/115 114/114/114 113/113/113
f 113/113/113 116/116/116 115/115/115
f 119/119/119 118/118/118 117/117/117
f 117/117/117 120/120/120 119/119/119
f 123/123/123 122/122/122 121/121/121
f 121/121/121 124/124/124 123/123/123
f 127/127/127 126/126/126 125/125/125
f 125/125/125 128/128/128 127/127/127
f 131/131/131 130/130/130 129/129/129
f 129/129/129 132/132/132 131/131/131
f 135/135/135 134/134/134 133/133/133
f 133/133/133 136/136/136 135/135/135
f 139/139/139 138/138/138 137/137/137
f 137/137/137 140/140/140 139/139/139
f 143/143/143 142/142/142 141/141/141
f 141/141/141 144/144/144 143/143/143
f 147/147/147 146/146/146 145/145/145
f 145/145/145 148/148/148 147/147/147
f 151/151/151 150/150/150 149/149/149
f 149/149/149 152/152/152 151/151/151
f 155/155/155 154/154/154 153/153/153
f 153/153/153 156/156/156 155/155/155
f 159/159/159 158/158/158 157/157/157
f 157/157/157 160/160/160 159/159/159
f 163/163/163 162/162/162 161/161/161
f 161/161/161 164/164/164 163/163/163
f 167/167/167 166/166/166 165/165/165
f 165/165/165 168/168/168 167/167/167
f 171/171/171 170/170/170 169/169/169
f 169/169/169 172/172/172 171/171/171
f 175/175/175 174/174/174 173/173/173
f 173/173/173 176/176/176 175/175/175
f 179/179/179 178/178/178 177/177/177
f 177/177/177 180/180/180 179/179/179
f 183/183/183 182/182/182 181/181/181
f 181/181/181 184/184/184 183/183/183
f 187/187/187 186/186/186 185/185/185
f 185/185/185 188/188/188 187/187/187
f 191/191/191 190/190/190 189/189/189
f 189/189/189 192/192/192 191/191/191
f 195/195/195 194/194/194 193/193/193
f 193/193/193 196/196/196 195/195/195
f 199/199/199 198/198/198 197/197/197
f 197/197/197 200/200/200 199/199/199
f 203/203/203 202/202/202 201/201/201
f 201/201/201 204/204/204 203/203/203
f 207/207/207 206/206/206 205/205/205
f 205/205/205 208/208/208 207/207/207
f 211/211/211 210/210/210 209/209/209
f 209/209/209 212/212/212 211/211/211
f 215/215/215 214/214/214 213/213/213
f 213/213/213 216/216/216 215/215/215
f 219/219/219 218/218/218 217/217/217
f 217/217/217 220/220/220 219/219/219
f 223/223/223 222/222/222 221/221/221
f 221/221/221 224/224/224 223/223/223
f 227/227/227 226/226/226 225/225/225
f 225/225/225 228/228/228 227/227/227
f 231/231/231 230/230/230 229/229/229
f 229/229/229 232/232/232 231/231/231
f 235/235/235 234/234/234 233/233/233
f 233/233/233 236/236/236 235/235/235
f 239/239/239 238/238/238 237/237/237
f 237/237/237 240/240/240 239/239/239
f 243/243/243 242/242/242 241/241/241
f 241/241/241 244/244/244 243/243/243
f 247/247/247 246/246/246 245/245/245
f 245/245/245 248/248/248 247/247/247
f 251/251/251 250/250/250 249/249/249
f 249/249/249 252/252/252 251/251/251
f 255/255/255 254/254/254 253/253/253
f 253/253/253 256/256/256 255/255/255
f 259/259/259 258/258/258 257/257/257
f 257/257/257 260/260/260 259/259/259
f 263/263/263 262/262/262 261/261/261
f 261/261/261 264/264/264 263/263/263
f 267/267/267 266/266/266 265/265/265
f 265/265/265 268/268/268 267/267/267
f 271/271/271 270/270/270 269/269/269
f 269/269/269 272/272/272 271/271/271
f 275/275/275 274/274/274 273/273/273
f 273/273/273 276/276/276 275/275/275
f 279/279/279 278/278/278 277/277/277
f 277/277/277 280/280/280 279/279/279
f 283/283/283 282/282/282 281/281/281
f 281/281/281 284/284/284 283/283/283
f 287/287/287 286/286/286 285/285/285
f 285/285/285 288/288/288 287/287/287
f 291/291/291 290/290/290 289/289/289
f 289/289/289 292/292/292 291/291/291
f 295/295/295 294/294/294 293/293/293
f 293/293/293 296/296/296 295/295/295
f 299/299/299 298/298/298 297/297/297
f 297/297/297 300/300/300 299/299/299
f 303/303/303 302/302/302 301/301/301
f 301/301/301 304/304/304 303/303/303
f 307/307/307 306/306/306 305/305/305
f 305/305/305 308/308/308 307/307/307
f 311/311/311 310/310/310 309/309/309
f 309/309/309 312/312/312 311/311/311
f 315/315/315 314/314/314 313/313/313
f 313/313/313 316/316/316 315/315/315
