g aerbien_3_shophx-mesh
v -128 885 0
v -128 1173 0
v -416 1173 0
v -416 885 0
v -416 1013 0
v -416 1109 0
v -480 1109 0
v -480 1013 0
v -160 1173 0
v -160 1205 0
v -288 1205 0
v -288 1173 0
v -96 1013 0
v -96 1141 0
v -128 1141 0
v -128 1013 0
v -288 853 0
v -288 885 0
v -416 885 0
v -416 853 0
v -416 949 0
v -416 1013 0
v -480 1013 0
v -480 949 0
v -160 853 0
v -160 885 0
v -288 885 0
v -288 853 0
v -96 917 0
v -96 1013 0
v -128 1013 0
v -128 917 0
v -288 1173 0
v -288 1205 0
v -384 1205 0
v -384 1173 0
v -256 1205 0
v -256 1237 0
v -320 1237 0
v -320 1205 0
v -416 885 0
v -416 949 0
v -448 949 0
v -448 885 0
v -224 821 0
v -224 853 0
v -288 853 0
v -288 821 0
v -416 1109 0
v -416 1141 0
v -448 1141 0
v -448 1109 0
v -288 821 0
v -288 853 0
v -320 853 0
v -320 821 0
vt 0.001953125 0.00308644772
vt 0.001953125 0.891975284
vt 0.564453125 0.891975284
vt 0.564453125 0.00308644772
vt 0.568359375 0.00308644772
vt 0.568359375 0.299382687
vt 0.693359375 0.299382687
vt 0.693359375 0.00308644772
vt 0.697265625 0.00308644772
vt 0.697265625 0.101851881
vt 0.947265625 0.101851881
vt 0.947265625 0.00308644772
vt 0.697265625 0.108024716
vt 0.697265625 0.503086448
vt 0.759765625 0.503086448
vt 0.759765625 0.108024716
vt 0.697265625 0.509259224
vt 0.697265625 0.608024716
vt 0.947265625 0.608024716
vt 0.947265625 0.509259224
vt 0.568359375 0.305555582
vt 0.568359375 0.503086448
vt 0.693359375 0.503086448
vt 0.693359375 0.305555582
vt 0.697265625 0.614197493
vt 0.697265625 0.712962985
vt 0.947265625 0.712962985
vt 0.947265625 0.614197493
vt 0.568359375 0.509259224
vt 0.568359375 0.805555582
vt 0.630859375 0.805555582
vt 0.630859375 0.509259224
vt 0.697265625 0.719135761
vt 0.697265625 0.817901254
vt 0.884765625 0.817901254
vt 0.884765625 0.719135761
vt 0.568359375 0.811728358
vt 0.568359375 0.910493851
vt 0.693359375 0.910493851
vt 0.693359375 0.811728358
vt 0.888671875 0.719135761
vt 0.888671875 0.916666687
vt 0.951171875 0.916666687
vt 0.951171875 0.719135761
vt 0.697265625 0.82407409
vt 0.697265625 0.922839522
vt 0.822265625 0.922839522
vt 0.822265625 0.82407409
vt 0.001953125 0.898148179
vt 0.001953125 0.996913552
vt 0.064453125 0.996913552
vt 0.064453125 0.898148179
vt 0.068359375 0.898148179
vt 0.068359375 0.996913552
vt 0.130859375 0.996913552
vt 0.130859375 0.898148179
g aerbien_3_shophx-mesh_0
f 3/3/3 2/2/2 1/1/1
f 1/1/1 4/4/4 3/3/3
f 7/7/7 6/6/6 5/5/5
f 5/5/5 8/8/8 7/7/7
f 11/11/11 10/10/10 9/9/9
f 9/9/9 12/12/12 11/11/11
f 15/15/15 14/14/14 13/13/13
f 13/13/13 16/16/16 15/15/15
f 19/19/19 18/18/18 17/17/17
f 17/17/17 20/20/20 19/19/19
f 23/23/23 22/22/22 21/21/21
f 21/21/21 24/24/24 23/23/23
f 27/27/27 26/26/26 25/25/25
f 25/25/25 28/28/28 27/27/27
f 31/31/31 30/30/30 29/29/29
f 29/29/29 32/32/32 31/31/31
f 35/35/35 34/34/34 33/33/33
f 33/33/33 36/36/36 35/35/35
f 39/39/39 38/38/38 37/37/37
f 37/37/37 40/40/40 39/39/39
f 43/43/43 42/42/42 41/41/41
f 41/41/41 44/44/44 43/43/43
f 47/47/47 46/46/46 45/45/45
f 45/45/45 48/48/48 47/47/47
f 51/51/51 50/50/50 49/49/49
f 49/49/49 52/52/52 51/51/51
f 55/55/55 54/54/54 53/53/53
f 53/53/53 56/56/56 55/55/55
