g gecheng_3_mid-mesh
v -1120 338 0
v -1120 690 0
v -1856 690 0
v -1856 338 0
v -384 338 0
v -384 690 0
v -1120 690 0
v -1120 338 0
v -1216 146 0
v -1216 338 0
v -1600 338 0
v -1600 146 0
v -1600 146 0
v -1600 338 0
v -1952 338 0
v -1952 146 0
v -768 690 0
v -768 882 0
v -1024 882 0
v -1024 690 0
v -512 690 0
v -512 882 0
v -768 882 0
v -768 690 0
v -1568 850 0
v -1568 1042 0
v -1760 1042 0
v -1760 850 0
v -672 882 0
v -672 1106 0
v -832 1106 0
v -832 882 0
v -992 210 0
v -992 338 0
v -1216 338 0
v -1216 210 0
v -256 402 0
v -256 530 0
v -384 530 0
v -384 402 0
v -1856 498 0
v -1856 658 0
v -1952 658 0
v -1952 498 0
v -1856 338 0
v -1856 498 0
v -1952 498 0
v -1952 338 0
v -1344 690 0
v -1344 754 0
v -1568 754 0
v -1568 690 0
v -1120 690 0
v -1120 754 0
v -1344 754 0
v -1344 690 0
v -352 242 0
v -352 338 0
v -480 338 0
v -480 242 0
v -1632 82 0
v -1632 146 0
v -1792 146 0
v -1792 82 0
v -1792 82 0
v -1792 146 0
v -1952 146 0
v -1952 82 0
v -1248 50 0
v -1248 146 0
v -1344 146 0
v -1344 50 0
v -544 882 0
v -544 946 0
v -672 946 0
v -672 882 0
v -320 530 0
v -320 626 0
v -384 626 0
v -384 530 0
v -448 690 0
v -448 786 0
v -512 786 0
v -512 690 0
v -704 1106 0
v -704 1170 0
v -800 1170 0
v -800 1106 0
v -1600 1074 0
v -1600 1170 0
v -1664 1170 0
v -1664 1074 0
v -192 338 0
v -192 434 0
v -256 434 0
v -256 338 0
v -1120 754 0
v -1120 786 0
v -1280 786 0
v -1280 754 0
v -1888 0 0
v -1888 50 0
v -1952 50 0
v -1952 0 0
v -384 178 0
v -384 242 0
v -448 242 0
v -448 178 0
v -864 306 0
v -864 338 0
v -992 338 0
v -992 306 0
v -736 306 0
v -736 338 0
v -864 338 0
v -864 306 0
v -1280 754 0
v -1280 786 0
v -1408 786 0
v -1408 754 0
v -1760 50 0
v -1760 82 0
v -1888 82 0
v -1888 50 0
v -1888 50 0
v -1888 82 0
v -1984 82 0
v -1984 50 0
v -1568 690 0
v -1568 722 0
v -1664 722 0
v -1664 690 0
v -1760 946 0
v -1760 1042 0
v -1792 1042 0
v -1792 946 0
v -992 178 0
v -992 210 0
v -1056 210 0
v -1056 178 0
v -864 1106 0
v -864 1138 0
v -928 1138 0
v -928 1106 0
v -896 1074 0
v -896 1106 0
v -960 1106 0
v -960 1074 0
v -1088 818 0
v -1088 850 0
v -1152 850 0
v -1152 818 0
v -128 306 0
v -128 338 0
v -192 338 0
v -192 306 0
v -1600 818 0
v -1600 850 0
v -1664 850 0
v -1664 818 0
v -1408 914 0
v -1408 978 0
v -1440 978 0
v -1440 914 0
v -256 370 0
v -256 402 0
v -320 402 0
v -320 370 0
v -320 242 0
v -320 306 0
v -352 306 0
v -352 242 0
v -1280 18 0
v -1280 50 0
v -1344 50 0
v -1344 18 0
v -416 690 0
v -416 754 0
v -448 754 0
v -448 690 0
v -832 882 0
v -832 946 0
v -864 946 0
v -864 882 0
v -1536 882 0
v -1536 946 0
v -1568 946 0
v -1568 882 0
v -1952 18 0
v -1952 50 0
v -2016 50 0
v -2016 18 0
v -1376 978 0
v -1376 1042 0
v -1408 1042 0
v -1408 978 0
v -1152 786 0
v -1152 818 0
v -1216 818 0
v -1216 786 0
v -1696 1042 0
v -1696 1074 0
v -1760 1074 0
v -1760 1042 0
v -480 306 0
v -480 338 0
v -544 338 0
v -544 306 0
v -1216 786 0
v -1216 818 0
v -1280 818 0
v -1280 786 0
v -640 1042 0
v -640 1106 0
v -672 1106 0
v -672 1042 0
v -1760 882 0
v -1760 946 0
v -1792 946 0
v -1792 882 0
v -1632 1042 0
v -1632 1074 0
v -1696 1074 0
v -1696 1042 0
v -640 978 0
v -640 1042 0
v -672 1042 0
v -672 978 0
v -544 306 0
v -544 338 0
v -608 338 0
v -608 306 0
v -1504 114 0
v -1504 146 0
v -1568 146 0
v -1568 114 0
v -1568 114 0
v -1568 146 0
v -1632 146 0
v -1632 114 0
v -1664 690 0
v -1664 722 0
v -1728 722 0
v -1728 690 0
v -864 274 0
v -864 306 0
v -928 306 0
v -928 274 0
v -928 274 0
v -928 306 0
v -992 306 0
v -992 274 0
v -352 626 0
v -352 658 0
v -384 658 0
v -384 626 0
v -288 530 0
v -288 562 0
v -320 562 0
v -320 530 0
v -1024 690 0
v -1024 722 0
v -1056 722 0
v -1056 690 0
v -1088 690 0
v -1088 722 0
v -1120 722 0
v -1120 690 0
v -1568 754 0
v -1568 786 0
v -1600 786 0
v -1600 754 0
v -1184 178 0
v -1184 210 0
v -1216 210 0
v -1216 178 0
v -128 274 0
v -128 306 0
v -160 306 0
v -160 274 0
v -1216 114 0
v -1216 146 0
v -1248 146 0
v -1248 114 0
v -224 434 0
v -224 466 0
v -256 466 0
v -256 434 0
v -160 338 0
v -160 370 0
v -192 370 0
v -192 338 0
v -1376 946 0
v -1376 978 0
v -1408 978 0
v -1408 946 0
v -800 1138 0
v -800 1170 0
v -832 1170 0
v -832 1138 0
v -1056 178 0
v -1056 210 0
v -1088 210 0
v -1088 178 0
v -1152 818 0
v -1152 850 0
v -1184 850 0
v -1184 818 0
v -192 306 0
v -192 338 0
v -224 338 0
v -224 306 0
v -480 786 0
v -480 818 0
v -512 818 0
v -512 786 0
v -1024 754 0
v -1024 786 0
v -1056 786 0
v -1056 754 0
v -832 1010 0
v -832 1042 0
v -864 1042 0
v -864 1010 0
v -672 1106 0
v -672 1138 0
v -704 1138 0
v -704 1106 0
v -1664 1074 0
v -1664 1106 0
v -1696 1106 0
v -1696 1074 0
vt 0.00048828125 0.0016181469
vt 0.00048828125 0.571197391
vt 0.359863281 0.571197391
vt 0.359863281 0.0016181469
vt 0.360839844 0.0016181469
vt 0.360839844 0.571197391
vt 0.720214844 0.571197391
vt 0.720214844 0.0016181469
vt 0.721191406 0.0016181469
vt 0.721191406 0.312297761
vt 0.908691406 0.312297761
vt 0.908691406 0.0016181469
vt 0.721191406 0.315533996
vt 0.721191406 0.626213551
vt 0.893066406 0.626213551
vt 0.893066406 0.315533996
vt 0.00048828125 0.574433684
vt 0.00048828125 0.885113239
vt 0.125488281 0.885113239
vt 0.125488281 0.574433684
vt 0.126464844 0.574433684
vt 0.126464844 0.885113239
vt 0.251464844 0.885113239
vt 0.251464844 0.574433684
vt 0.894042969 0.315533996
vt 0.894042969 0.626213551
vt 0.987792969 0.626213551
vt 0.987792969 0.315533996
vt 0.252441406 0.574433684
vt 0.252441406 0.936893225
vt 0.330566406 0.936893225
vt 0.330566406 0.574433684
vt 0.331542969 0.574433684
vt 0.331542969 0.781553388
vt 0.440917969 0.781553388
vt 0.440917969 0.574433684
vt 0.441894531 0.574433684
vt 0.441894531 0.781553388
vt 0.504394531 0.781553388
vt 0.504394531 0.574433684
vt 0.505371094 0.574433684
vt 0.505371094 0.833333313
vt 0.552246094 0.833333313
vt 0.552246094 0.574433684
vt 0.553222656 0.574433684
vt 0.553222656 0.833333313
vt 0.600097656 0.833333313
vt 0.600097656 0.574433684
vt 0.601074219 0.574433684
vt 0.601074219 0.677993536
vt 0.710449219 0.677993536
vt 0.710449219 0.574433684
vt 0.721191406 0.629449844
vt 0.721191406 0.733009696
vt 0.830566406 0.733009696
vt 0.830566406 0.629449844
vt 0.831542969 0.629449844
vt 0.831542969 0.784789622
vt 0.894042969 0.784789622
vt 0.894042969 0.629449844
vt 0.895019531 0.629449844
vt 0.895019531 0.733009696
vt 0.973144531 0.733009696
vt 0.973144531 0.629449844
vt 0.601074219 0.68122977
vt 0.601074219 0.784789622
vt 0.679199219 0.784789622
vt 0.679199219 0.68122977
vt 0.721191406 0.73624599
vt 0.721191406 0.891585767
vt 0.768066406 0.891585767
vt 0.768066406 0.73624599
vt 0.895019531 0.73624599
vt 0.895019531 0.839805841
vt 0.957519531 0.839805841
vt 0.957519531 0.73624599
vt 0.680175781 0.68122977
vt 0.680175781 0.836569548
vt 0.711425781 0.836569548
vt 0.711425781 0.68122977
vt 0.769042969 0.73624599
vt 0.769042969 0.891585767
vt 0.800292969 0.891585767
vt 0.800292969 0.73624599
vt 0.331542969 0.784789622
vt 0.331542969 0.888349533
vt 0.378417969 0.888349533
vt 0.378417969 0.784789622
vt 0.958496094 0.73624599
vt 0.958496094 0.891585767
vt 0.989746094 0.891585767
vt 0.989746094 0.73624599
vt 0.379394531 0.784789622
vt 0.379394531 0.940129459
vt 0.410644531 0.940129459
vt 0.410644531 0.784789622
vt 0.411621094 0.784789622
vt 0.411621094 0.836569548
vt 0.489746094 0.836569548
vt 0.489746094 0.784789622
vt 0.601074219 0.788025856
vt 0.601074219 0.870550156
vt 0.632324219 0.870550156
vt 0.632324219 0.788025856
vt 0.633300781 0.788025856
vt 0.633300781 0.891585767
vt 0.664550781 0.891585767
vt 0.664550781 0.788025856
vt 0.831542969 0.788025856
vt 0.831542969 0.839805841
vt 0.894042969 0.839805841
vt 0.894042969 0.788025856
vt 0.505371094 0.836569548
vt 0.505371094 0.888349533
vt 0.567871094 0.888349533
vt 0.567871094 0.836569548
vt 0.411621094 0.839805841
vt 0.411621094 0.891585767
vt 0.474121094 0.891585767
vt 0.474121094 0.839805841
vt 0.831542969 0.843042076
vt 0.831542969 0.894822001
vt 0.894042969 0.894822001
vt 0.894042969 0.843042076
vt 0.895019531 0.843042076
vt 0.895019531 0.894822001
vt 0.941894531 0.894822001
vt 0.941894531 0.843042076
vt 0.00048828125 0.888349533
vt 0.00048828125 0.940129459
vt 0.0473632812 0.940129459
vt 0.0473632812 0.888349533
vt 0.801269531 0.73624599
vt 0.801269531 0.891585767
vt 0.816894531 0.891585767
vt 0.816894531 0.73624599
vt 0.568847656 0.836569548
vt 0.568847656 0.888349533
vt 0.600097656 0.888349533
vt 0.600097656 0.836569548
vt 0.680175781 0.839805841
vt 0.680175781 0.891585767
vt 0.711425781 0.891585767
vt 0.711425781 0.839805841
vt 0.601074219 0.87378639
vt 0.601074219 0.925566316
vt 0.632324219 0.925566316
vt 0.632324219 0.87378639
vt 0.0483398438 0.888349533
vt 0.0483398438 0.940129459
vt 0.0795898438 0.940129459
vt 0.0795898438 0.888349533
vt 0.0805664062 0.888349533
vt 0.0805664062 0.940129459
vt 0.111816406 0.940129459
vt 0.111816406 0.888349533
vt 0.112792969 0.888349533
vt 0.112792969 0.940129459
vt 0.144042969 0.940129459
vt 0.144042969 0.888349533
vt 0.475097656 0.839805841
vt 0.475097656 0.943365693
vt 0.490722656 0.943365693
vt 0.490722656 0.839805841
vt 0.145019531 0.888349533
vt 0.145019531 0.940129459
vt 0.176269531 0.940129459
vt 0.176269531 0.888349533
vt 0.177246094 0.888349533
vt 0.177246094 0.991909385
vt 0.192871094 0.991909385
vt 0.192871094 0.888349533
vt 0.193847656 0.888349533
vt 0.193847656 0.940129459
vt 0.225097656 0.940129459
vt 0.225097656 0.888349533
vt 0.226074219 0.888349533
vt 0.226074219 0.991909385
vt 0.241699219 0.991909385
vt 0.241699219 0.888349533
vt 0.331542969 0.891585767
vt 0.331542969 0.995145619
vt 0.347167969 0.995145619
vt 0.347167969 0.891585767
vt 0.348144531 0.891585767
vt 0.348144531 0.995145619
vt 0.363769531 0.995145619
vt 0.363769531 0.891585767
vt 0.505371094 0.891585767
vt 0.505371094 0.943365693
vt 0.536621094 0.943365693
vt 0.536621094 0.891585767
vt 0.537597656 0.891585767
vt 0.537597656 0.995145619
vt 0.553222656 0.995145619
vt 0.553222656 0.891585767
vt 0.554199219 0.891585767
vt 0.554199219 0.943365693
vt 0.585449219 0.943365693
vt 0.585449219 0.891585767
vt 0.411621094 0.894822001
vt 0.411621094 0.946601927
vt 0.442871094 0.946601927
vt 0.442871094 0.894822001
vt 0.633300781 0.894822001
vt 0.633300781 0.946601927
vt 0.664550781 0.946601927
vt 0.664550781 0.894822001
vt 0.680175781 0.894822001
vt 0.680175781 0.946601927
vt 0.711425781 0.946601927
vt 0.711425781 0.894822001
vt 0.443847656 0.894822001
vt 0.443847656 0.998381853
vt 0.459472656 0.998381853
vt 0.459472656 0.894822001
vt 0.721191406 0.894822001
vt 0.721191406 0.998381853
vt 0.736816406 0.998381853
vt 0.736816406 0.894822001
vt 0.737792969 0.894822001
vt 0.737792969 0.946601927
vt 0.769042969 0.946601927
vt 0.769042969 0.894822001
vt 0.770019531 0.894822001
vt 0.770019531 0.998381853
vt 0.785644531 0.998381853
vt 0.785644531 0.894822001
vt 0.786621094 0.894822001
vt 0.786621094 0.946601927
vt 0.817871094 0.946601927
vt 0.817871094 0.894822001
vt 0.958496094 0.894822001
vt 0.958496094 0.946601927
vt 0.989746094 0.946601927
vt 0.989746094 0.894822001
vt 0.831542969 0.898058236
vt 0.831542969 0.949838161
vt 0.862792969 0.949838161
vt 0.862792969 0.898058236
vt 0.863769531 0.898058236
vt 0.863769531 0.949838161
vt 0.895019531 0.949838161
vt 0.895019531 0.898058236
vt 0.895996094 0.898058236
vt 0.895996094 0.949838161
vt 0.927246094 0.949838161
vt 0.927246094 0.898058236
vt 0.601074219 0.928802609
vt 0.601074219 0.980582535
vt 0.632324219 0.980582535
vt 0.632324219 0.928802609
vt 0.928222656 0.898058236
vt 0.928222656 0.949838161
vt 0.943847656 0.949838161
vt 0.943847656 0.898058236
vt 0.252441406 0.940129459
vt 0.252441406 0.991909385
vt 0.268066406 0.991909385
vt 0.268066406 0.940129459
vt 0.269042969 0.940129459
vt 0.269042969 0.991909385
vt 0.284667969 0.991909385
vt 0.284667969 0.940129459
vt 0.285644531 0.940129459
vt 0.285644531 0.991909385
vt 0.301269531 0.991909385
vt 0.301269531 0.940129459
vt 0.302246094 0.940129459
vt 0.302246094 0.991909385
vt 0.317871094 0.991909385
vt 0.317871094 0.940129459
vt 0.00048828125 0.943365693
vt 0.00048828125 0.995145619
vt 0.0161132812 0.995145619
vt 0.0161132812 0.943365693
vt 0.0170898438 0.943365693
vt 0.0170898438 0.995145619
vt 0.0327148438 0.995145619
vt 0.0327148438 0.943365693
vt 0.0336914062 0.943365693
vt 0.0336914062 0.995145619
vt 0.0493164062 0.995145619
vt 0.0493164062 0.943365693
vt 0.0502929688 0.943365693
vt 0.0502929688 0.995145619
vt 0.0659179688 0.995145619
vt 0.0659179688 0.943365693
vt 0.0668945312 0.943365693
vt 0.0668945312 0.995145619
vt 0.0825195312 0.995145619
vt 0.0825195312 0.943365693
vt 0.0834960938 0.943365693
vt 0.0834960938 0.995145619
vt 0.0991210938 0.995145619
vt 0.0991210938 0.943365693
vt 0.100097656 0.943365693
vt 0.100097656 0.995145619
vt 0.115722656 0.995145619
vt 0.115722656 0.943365693
vt 0.116699219 0.943365693
vt 0.116699219 0.995145619
vt 0.132324219 0.995145619
vt 0.132324219 0.943365693
vt 0.133300781 0.943365693
vt 0.133300781 0.995145619
vt 0.148925781 0.995145619
vt 0.148925781 0.943365693
vt 0.149902344 0.943365693
vt 0.149902344 0.995145619
vt 0.165527344 0.995145619
vt 0.165527344 0.943365693
vt 0.193847656 0.943365693
vt 0.193847656 0.995145619
vt 0.209472656 0.995145619
vt 0.209472656 0.943365693
vt 0.379394531 0.943365693
vt 0.379394531 0.995145619
vt 0.395019531 0.995145619
vt 0.395019531 0.943365693
vt 0.475097656 0.946601927
vt 0.475097656 0.998381853
vt 0.490722656 0.998381853
vt 0.490722656 0.946601927
vt 0.505371094 0.946601927
vt 0.505371094 0.998381853
vt 0.520996094 0.998381853
vt 0.520996094 0.946601927
vt 0.554199219 0.946601927
vt 0.554199219 0.998381853
vt 0.569824219 0.998381853
vt 0.569824219 0.946601927
g gecheng_3_mid-mesh_0
f 3/3/3 2/2/2 1/1/1
f 1/1/1 4/4/4 3/3/3
f 7/7/7 6/6/6 5/5/5
f 5/5/5 8/8/8 7/7/7
f 11/11/11 10/10/10 9/9/9
f 9/9/9 12/12/12 11/11/11
f 15/15/15 14/14/14 13/13/13
f 13/13/13 16/16/16 15/15/15
f 19/19/19 18/18/18 17/17/17
f 17/17/17 20/20/20 19/19/19
f 23/23/23 22/22/22 21/21/21
f 21/21/21 24/24/24 23/23/23
f 27/27/27 26/26/26 25/25/25
f 25/25/25 28/28/28 27/27/27
f 31/31/31 30/30/30 29/29/29
f 29/29/29 32/32/32 31/31/31
f 35/35/35 34/34/34 33/33/33
f 33/33/33 36/36/36 35/35/35
f 39/39/39 38/38/38 37/37/37
f 37/37/37 40/40/40 39/39/39
f 43/43/43 42/42/42 41/41/41
f 41/41/41 44/44/44 43/43/43
f 47/47/47 46/46/46 45/45/45
f 45/45/45 48/48/48 47/47/47
f 51/51/51 50/50/50 49/49/49
f 49/49/49 52/52/52 51/51/51
f 55/55/55 54/54/54 53/53/53
f 53/53/53 56/56/56 55/55/55
f 59/59/59 58/58/58 57/57/57
f 57/57/57 60/60/60 59/59/59
f 63/63/63 62/62/62 61/61/61
f 61/61/61 64/64/64 63/63/63
f 67/67/67 66/66/66 65/65/65
f 65/65/65 68/68/68 67/67/67
f 71/71/71 70/70/70 69/69/69
f 69/69/69 72/72/72 71/71/71
f 75/75/75 74/74/74 73/73/73
f 73/73/73 76/76/76 75/75/75
f 79/79/79 78/78/78 77/77/77
f 77/77/77 80/80/80 79/79/79
f 83/83/83 82/82/82 81/81/81
f 81/81/81 84/84/84 83/83/83
f 87/87/87 86/86/86 85/85/85
f 85/85/85 88/88/88 87/87/87
f 91/91/91 90/90/90 89/89/89
f 89/89/89 92/92/92 91/91/91
f 95/95/95 94/94/94 93/93/93
f 93/93/93 96/96/96 95/95/95
f 99/99/99 98/98/98 97/97/97
f 97/97/97 100/100/100 99/99/99
f 103/103/103 102/102/102 101/101/101
f 101/101/101 104/104/104 103/103/103
f 107/107/107 106/106/106 105/105/105
f 105/105/105 108/108/108 107/107/107
f 111/111/111 110/110/110 109/109/109
f 109/109/109 112/112/112 111/111/111
f 115/115/115 114/114/114 113/113/113
f 113/113/113 116/116/116 115/115/115
f 119/119/119 118/118/118 117/117/117
f 117/117/117 120/120/120 119/119/119
f 123/123/123 122/122/122 121/121/121
f 121/121/121 124/124/124 123/123/123
f 127/127/127 126/126/126 125/125/125
f 125/125/125 128/128/128 127/127/127
f 131/131/131 130/130/130 129/129/129
f 129/129/129 132/132/132 131/131/131
f 135/135/135 134/134/134 133/133/133
f 133/133/133 136/136/136 135/135/135
f 139/139/139 138/138/138 137/137/137
f 137/137/137 140/140/140 139/139/139
f 143/143/143 142/142/142 141/141/141
f 141/141/141 144/144/144 143/143/143
f 147/147/147 146/146/146 145/145/145
f 145/145/145 148/148/148 147/147/147
f 151/151/151 150/150/150 149/149/149
f 149/149/149 152/152/152 151/151/151
f 155/155/155 154/154/154 153/153/153
f 153/153/153 156/156/156 155/155/155
f 159/159/159 158/158/158 157/157/157
f 157/157/157 160/160/160 159/159/159
f 163/163/163 162/162/162 161/161/161
f 161/161/161 164/164/164 163/163/163
f 167/167/167 166/166/166 165/165/165
f 165/165/165 168/168/168 167/167/167
f 171/171/171 170/170/170 169/169/169
f 169/169/169 172/172/172 171/171/171
f 175/175/175 174/174/174 173/173/173
f 173/173/173 176/176/176 175/175/175
f 179/179/179 178/178/178 177/177/177
f 177/177/177 180/180/180 179/179/179
f 183/183/183 182/182/182 181/181/181
f 181/181/181 184/184/184 183/183/183
f 187/187/187 186/186/186 185/185/185
f 185/185/185 188/188/188 187/187/187
f 191/191/191 190/190/190 189/189/189
f 189/189/189 192/192/192 191/191/191
f 195/195/195 194/194/194 193/193/193
f 193/193/193 196/196/196 195/195/195
f 199/199/199 198/198/198 197/197/197
f 197/197/197 200/200/200 199/199/199
f 203/203/203 202/202/202 201/201/201
f 201/201/201 204/204/204 203/203/203
f 207/207/207 206/206/206 205/205/205
f 205/205/205 208/208/208 207/207/207
f 211/211/211 210/210/210 209/209/209
f 209/209/209 212/212/212 211/211/211
f 215/215/215 214/214/214 213/213/213
f 213/213/213 216/216/216 215/215/215
f 219/219/219 218/218/218 217/217/217
f 217/217/217 220/220/220 219/219/219
f 223/223/223 222/222/222 221/221/221
f 221/221/221 224/224/224 223/223/223
f 227/227/227 226/226/226 225/225/225
f 225/225/225 228/228/228 227/227/227
f 231/231/231 230/230/230 229/229/229
f 229/229/229 232/232/232 231/231/231
f 235/235/235 234/234/234 233/233/233
f 233/233/233 236/236/236 235/235/235
f 239/239/239 238/238/238 237/237/237
f 237/237/237 240/240/240 239/239/239
f 243/243/243 242/242/242 241/241/241
f 241/241/241 244/244/244 243/243/243
f 247/247/247 246/246/246 245/245/245
f 245/245/245 248/248/248 247/247/247
f 251/251/251 250/250/250 249/249/249
f 249/249/249 252/252/252 251/251/251
f 255/255/255 254/254/254 253/253/253
f 253/253/253 256/256/256 255/255/255
f 259/259/259 258/258/258 257/257/257
f 257/257/257 260/260/260 259/259/259
f 263/263/263 262/262/262 261/261/261
f 261/261/261 264/264/264 263/263/263
f 267/267/267 266/266/266 265/265/265
f 265/265/265 268/268/268 267/267/267
f 271/271/271 270/270/270 269/269/269
f 269/269/269 272/272/272 271/271/271
f 275/275/275 274/274/274 273/273/273
f 273/273/273 276/276/276 275/275/275
f 279/279/279 278/278/278 277/277/277
f 277/277/277 280/280/280 279/279/279
f 283/283/283 282/282/282 281/281/281
f 281/281/281 284/284/284 283/283/283
f 287/287/287 286/286/286 285/285/285
f 285/285/285 288/288/288 287/287/287
f 291/291/291 290/290/290 289/289/289
f 289/289/289 292/292/292 291/291/291
f 295/295/295 294/294/294 293/293/293
f 293/293/293 296/296/296 295/295/295
f 299/299/299 298/298/298 297/297/297
f 297/297/297 300/300/300 299/299/299
f 303/303/303 302/302/302 301/301/301
f 301/301/301 304/304/304 303/303/303
f 307/307/307 306/306/306 305/305/305
f 305/305/305 308/308/308 307/307/307
f 311/311/311 310/310/310 309/309/309
f 309/309/309 312/312/312 311/311/311
f 315/315/315 314/314/314 313/313/313
f 313/313/313 316/316/316 315/315/315
f 319/319/319 318/318/318 317/317/317
f 317/317/317 320/320/320 319/319/319
f 323/323/323 322/322/322 321/321/321
f 321/321/321 324/324/324 323/323/323
f 327/327/327 326/326/326 325/325/325
f 325/325/325 328/328/328 327/327/327
f 331/331/331 330/330/330 329/329/329
f 329/329/329 332/332/332 331/331/331
