g sanriyue_2-mesh
v -128 447 0
v -128 895 0
v -832 895 0
v -832 447 0
v -128 31 0
v -128 447 0
v -832 447 0
v -832 31 0
v -448 895 0
v -448 1023 0
v -704 1023 0
v -704 895 0
v -192 895 0
v -192 1023 0
v -448 1023 0
v -448 895 0
v -32 287 0
v -32 575 0
v -128 575 0
v -128 287 0
v -32 575 0
v -32 863 0
v -128 863 0
v -128 575 0
v -192 0 0
v -192 31 0
v -512 31 0
v -512 0 0
v -832 511 0
v -832 831 0
v -864 831 0
v -864 511 0
v -512 0 0
v -512 31 0
v -800 31 0
v -800 0 0
v -832 223 0
v -832 511 0
v -864 511 0
v -864 223 0
v -864 255 0
v -864 383 0
v -928 383 0
v -928 255 0
v -64 63 0
v -64 191 0
v -128 191 0
v -128 63 0
v -128 895 0
v -128 991 0
v -192 991 0
v -192 895 0
v -0 607 0
v -0 767 0
v -32 767 0
v -32 607 0
v -64 863 0
v -64 927 0
v -128 927 0
v -128 863 0
v -704 895 0
v -704 959 0
v -768 959 0
v -768 895 0
v -864 607 0
v -864 735 0
v -896 735 0
v -896 607 0
v -0 479 0
v -0 607 0
v -32 607 0
v -32 479 0
v -864 511 0
v -864 607 0
v -896 607 0
v -896 511 0
v -0 351 0
v -0 447 0
v -32 447 0
v -32 351 0
v -32 95 0
v -32 159 0
v -64 159 0
v -64 95 0
v -64 255 0
v -64 287 0
v -128 287 0
v -128 255 0
v -0 287 0
v -0 351 0
v -32 351 0
v -32 287 0
v -864 383 0
v -864 415 0
v -896 415 0
v -896 383 0
v -96 223 0
v -96 255 0
v -128 255 0
v -128 223 0
v -864 223 0
v -864 255 0
v -896 255 0
v -896 223 0
v -704 959 0
v -704 991 0
v -736 991 0
v -736 959 0
v -96 927 0
v -96 959 0
v -128 959 0
v -128 927 0
v -768 895 0
v -768 927 0
v -800 927 0
v -800 895 0
vt 0.0009765625 0.00110864639
vt 0.0009765625 0.497782707
vt 0.688476562 0.497782707
vt 0.688476562 0.00110864639
vt 0.0009765625 0.5
vt 0.0009765625 0.961197317
vt 0.688476562 0.961197317
vt 0.688476562 0.5
vt 0.690429688 0.00110864639
vt 0.690429688 0.143015504
vt 0.940429688 0.143015504
vt 0.940429688 0.00110864639
vt 0.690429688 0.145232797
vt 0.690429688 0.287139714
vt 0.940429688 0.287139714
vt 0.940429688 0.145232797
vt 0.690429688 0.289357007
vt 0.690429688 0.608647466
vt 0.784179688 0.608647466
vt 0.784179688 0.289357007
vt 0.786132812 0.289357007
vt 0.786132812 0.608647466
vt 0.879882812 0.608647466
vt 0.879882812 0.289357007
vt 0.0009765625 0.963414609
vt 0.0009765625 0.998891354
vt 0.313476562 0.998891354
vt 0.313476562 0.963414609
vt 0.942382812 0.00110864639
vt 0.942382812 0.35587585
vt 0.973632812 0.35587585
vt 0.973632812 0.00110864639
vt 0.690429688 0.610864758
vt 0.690429688 0.646341443
vt 0.971679688 0.646341443
vt 0.971679688 0.610864758
vt 0.690429688 0.648558736
vt 0.690429688 0.967849255
vt 0.721679688 0.967849255
vt 0.721679688 0.648558736
vt 0.723632812 0.648558736
vt 0.723632812 0.790465653
vt 0.786132812 0.790465653
vt 0.786132812 0.648558736
vt 0.788085938 0.648558736
vt 0.788085938 0.790465653
vt 0.850585938 0.790465653
vt 0.850585938 0.648558736
vt 0.852539062 0.648558736
vt 0.852539062 0.754988909
vt 0.915039062 0.754988909
vt 0.915039062 0.648558736
vt 0.916992188 0.648558736
vt 0.916992188 0.825942338
vt 0.948242188 0.825942338
vt 0.948242188 0.648558736
vt 0.852539062 0.757206202
vt 0.852539062 0.82815963
vt 0.915039062 0.82815963
vt 0.915039062 0.757206202
vt 0.723632812 0.792682946
vt 0.723632812 0.863636374
vt 0.786132812 0.863636374
vt 0.786132812 0.792682946
vt 0.950195312 0.648558736
vt 0.950195312 0.790465653
vt 0.981445312 0.790465653
vt 0.981445312 0.648558736
vt 0.788085938 0.792682946
vt 0.788085938 0.934589803
vt 0.819335938 0.934589803
vt 0.819335938 0.792682946
vt 0.950195312 0.792682946
vt 0.950195312 0.899113059
vt 0.981445312 0.899113059
vt 0.981445312 0.792682946
vt 0.916992188 0.82815963
vt 0.916992188 0.934589803
vt 0.948242188 0.934589803
vt 0.948242188 0.82815963
vt 0.852539062 0.830376923
vt 0.852539062 0.901330352
vt 0.883789062 0.901330352
vt 0.883789062 0.830376923
vt 0.723632812 0.865853667
vt 0.723632812 0.901330352
vt 0.786132812 0.901330352
vt 0.786132812 0.865853667
vt 0.950195312 0.901330352
vt 0.950195312 0.97228384
vt 0.981445312 0.97228384
vt 0.981445312 0.901330352
vt 0.723632812 0.903547645
vt 0.723632812 0.939024389
vt 0.754882812 0.939024389
vt 0.754882812 0.903547645
vt 0.852539062 0.903547645
vt 0.852539062 0.939024389
vt 0.883789062 0.939024389
vt 0.883789062 0.903547645
vt 0.788085938 0.936807096
vt 0.788085938 0.97228384
vt 0.819335938 0.97228384
vt 0.819335938 0.936807096
vt 0.916992188 0.936807096
vt 0.916992188 0.97228384
vt 0.948242188 0.97228384
vt 0.948242188 0.936807096
vt 0.723632812 0.941241682
vt 0.723632812 0.976718426
vt 0.754882812 0.976718426
vt 0.754882812 0.941241682
vt 0.852539062 0.941241682
vt 0.852539062 0.976718426
vt 0.883789062 0.976718426
vt 0.883789062 0.941241682
g sanriyue_2-mesh_0
f 3/3/3 2/2/2 1/1/1
f 1/1/1 4/4/4 3/3/3
f 7/7/7 6/6/6 5/5/5
f 5/5/5 8/8/8 7/7/7
f 11/11/11 10/10/10 9/9/9
f 9/9/9 12/12/12 11/11/11
f 15/15/15 14/14/14 13/13/13
f 13/13/13 16/16/16 15/15/15
f 19/19/19 18/18/18 17/17/17
f 17/17/17 20/20/20 19/19/19
f 23/23/23 22/22/22 21/21/21
f 21/21/21 24/24/24 23/23/23
f 27/27/27 26/26/26 25/25/25
f 25/25/25 28/28/28 27/27/27
f 31/31/31 30/30/30 29/29/29
f 29/29/29 32/32/32 31/31/31
f 35/35/35 34/34/34 33/33/33
f 33/33/33 36/36/36 35/35/35
f 39/39/39 38/38/38 37/37/37
f 37/37/37 40/40/40 39/39/39
f 43/43/43 42/42/42 41/41/41
f 41/41/41 44/44/44 43/43/43
f 47/47/47 46/46/46 45/45/45
f 45/45/45 48/48/48 47/47/47
f 51/51/51 50/50/50 49/49/49
f 49/49/49 52/52/52 51/51/51
f 55/55/55 54/54/54 53/53/53
f 53/53/53 56/56/56 55/55/55
f 59/59/59 58/58/58 57/57/57
f 57/57/57 60/60/60 59/59/59
f 63/63/63 62/62/62 61/61/61
f 61/61/61 64/64/64 63/63/63
f 67/67/67 66/66/66 65/65/65
f 65/65/65 68/68/68 67/67/67
f 71/71/71 70/70/70 69/69/69
f 69/69/69 72/72/72 71/71/71
f 75/75/75 74/74/74 73/73/73
f 73/73/73 76/76/76 75/75/75
f 79/79/79 78/78/78 77/77/77
f 77/77/77 80/80/80 79/79/79
f 83/83/83 82/82/82 81/81/81
f 81/81/81 84/84/84 83/83/83
f 87/87/87 86/86/86 85/85/85
f 85/85/85 88/88/88 87/87/87
f 91/91/91 90/90/90 89/89/89
f 89/89/89 92/92/92 91/91/91
f 95/95/95 94/94/94 93/93/93
f 93/93/93 96/96/96 95/95/95
f 99/99/99 98/98/98 97/97/97
f 97/97/97 100/100/100 99/99/99
f 103/103/103 102/102/102 101/101/101
f 101/101/101 104/104/104 103/103/103
f 107/107/107 106/106/106 105/105/105
f 105/105/105 108/108/108 107/107/107
f 111/111/111 110/110/110 109/109/109
f 109/109/109 112/112/112 111/111/111
f 115/115/115 114/114/114 113/113/113
f 113/113/113 116/116/116 115/115/115
