g fengyun_3-mesh
v -480 797 0
v -480 1501 0
v -1568 1501 0
v -1568 797 0
v -480 125 0
v -480 797 0
v -1568 797 0
v -1568 125 0
v -1568 893 0
v -1568 1117 0
v -1984 1117 0
v -1984 893 0
v -576 1501 0
v -576 1693 0
v -960 1693 0
v -960 1501 0
v -960 1501 0
v -960 1693 0
v -1312 1693 0
v -1312 1501 0
v -320 893 0
v -320 1277 0
v -480 1277 0
v -480 893 0
v -320 541 0
v -320 893 0
v -480 893 0
v -480 541 0
v -128 957 0
v -128 1245 0
v -320 1245 0
v -320 957 0
v -1568 1117 0
v -1568 1341 0
v -1696 1341 0
v -1696 1117 0
v -1312 1501 0
v -1312 1629 0
v -1536 1629 0
v -1536 1501 0
v -1024 29 0
v -1024 125 0
v -1280 125 0
v -1280 29 0
v -1280 29 0
v -1280 125 0
v -1536 125 0
v -1536 29 0
v -1792 797 0
v -1792 893 0
v -1984 893 0
v -1984 797 0
v -1056 1693 0
v -1056 1789 0
v -1248 1789 0
v -1248 1693 0
v -864 1693 0
v -864 1789 0
v -1056 1789 0
v -1056 1693 0
v -1568 1469 0
v -1568 1565 0
v -1728 1565 0
v -1728 1469 0
v -384 381 0
v -384 541 0
v -480 541 0
v -480 381 0
v -1568 317 0
v -1568 477 0
v -1664 477 0
v -1664 317 0
v -1568 477 0
v -1568 637 0
v -1664 637 0
v -1664 477 0
v -32 1053 0
v -32 1181 0
v -128 1181 0
v -128 1053 0
v -384 253 0
v -384 381 0
v -480 381 0
v -480 253 0
v -224 861 0
v -224 957 0
v -320 957 0
v -320 861 0
v -416 125 0
v -416 253 0
v -480 253 0
v -480 125 0
v -448 1629 0
v -448 1693 0
v -576 1693 0
v -576 1629 0
v -800 61 0
v -800 125 0
v -928 125 0
v -928 61 0
v -928 61 0
v -928 125 0
v -1024 125 0
v -1024 61 0
v -1568 1341 0
v -1568 1437 0
v -1632 1437 0
v -1632 1341 0
v -416 1277 0
v -416 1373 0
v -480 1373 0
v -480 1277 0
v -1696 1117 0
v -1696 1181 0
v -1792 1181 0
v -1792 1117 0
v -1984 957 0
v -1984 1053 0
v -2047 1053 0
v -2047 957 0
v -1248 0 0
v -1248 29 0
v -1408 29 0
v -1408 0 0
v -1792 1117 0
v -1792 1181 0
v -1856 1181 0
v -1856 1117 0
v -1984 893 0
v -1984 957 0
v -2047 957 0
v -2047 893 0
v -1408 0 0
v -1408 29 0
v -1536 29 0
v -1536 0 0
v -608 93 0
v -608 125 0
v -704 125 0
v -704 93 0
v -1568 221 0
v -1568 317 0
v -1600 317 0
v -1600 221 0
v -704 93 0
v -704 125 0
v -800 125 0
v -800 93 0
v -1664 381 0
v -1664 477 0
v -1696 477 0
v -1696 381 0
v -960 1789 0
v -960 1821 0
v -1056 1821 0
v -1056 1789 0
v -1056 1789 0
v -1056 1821 0
v -1152 1821 0
v -1152 1789 0
v -1664 477 0
v -1664 573 0
v -1696 573 0
v -1696 477 0
v -448 1373 0
v -448 1437 0
v -480 1437 0
v -480 1373 0
v -1632 1341 0
v -1632 1405 0
v -1664 1405 0
v -1664 1341 0
v -1536 1501 0
v -1536 1565 0
v -1568 1565 0
v -1568 1501 0
v -1312 1629 0
v -1312 1661 0
v -1376 1661 0
v -1376 1629 0
v -544 1501 0
v -544 1565 0
v -576 1565 0
v -576 1501 0
v -384 1277 0
v -384 1341 0
v -416 1341 0
v -416 1277 0
v -1728 861 0
v -1728 893 0
v -1792 893 0
v -1792 861 0
v -1600 253 0
v -1600 317 0
v -1632 317 0
v -1632 253 0
v -160 925 0
v -160 957 0
v -224 957 0
v -224 925 0
v -64 1181 0
v -64 1213 0
v -128 1213 0
v -128 1181 0
v -1856 1117 0
v -1856 1149 0
v -1920 1149 0
v -1920 1117 0
v -1568 669 0
v -1568 733 0
v -1600 733 0
v -1600 669 0
v -352 413 0
v -352 477 0
v -384 477 0
v -384 413 0
v -224 1245 0
v -224 1277 0
v -288 1277 0
v -288 1245 0
v -0 1021 0
v -0 1085 0
v -32 1085 0
v -32 1021 0
v -1568 157 0
v -1568 221 0
v -1600 221 0
v -1600 157 0
v -0 1085 0
v -0 1149 0
v -32 1149 0
v -32 1085 0
v -1568 829 0
v -1568 893 0
v -1600 893 0
v -1600 829 0
v -1696 1213 0
v -1696 1277 0
v -1728 1277 0
v -1728 1213 0
v -352 477 0
v -352 541 0
v -384 541 0
v -384 477 0
v -1760 829 0
v -1760 861 0
v -1792 861 0
v -1792 829 0
v -32 1021 0
v -32 1053 0
v -64 1053 0
v -64 1021 0
v -1600 861 0
v -1600 893 0
v -1632 893 0
v -1632 861 0
v -192 893 0
v -192 925 0
v -224 925 0
v -224 893 0
v -288 829 0
v -288 861 0
v -320 861 0
v -320 829 0
v -1696 477 0
v -1696 509 0
v -1728 509 0
v -1728 477 0
v -1664 157 0
v -1664 189 0
v -1696 189 0
v -1696 157 0
v -1600 637 0
v -1600 669 0
v -1632 669 0
v -1632 637 0
v -1856 765 0
v -1856 797 0
v -1888 797 0
v -1888 765 0
v -1536 93 0
v -1536 125 0
v -1568 125 0
v -1568 93 0
v -1984 1053 0
v -1984 1085 0
v -2016 1085 0
v -2016 1053 0
v -288 1245 0
v -288 1277 0
v -320 1277 0
v -320 1245 0
v -832 1757 0
v -832 1789 0
v -864 1789 0
v -864 1757 0
v -1696 1181 0
v -1696 1213 0
v -1728 1213 0
v -1728 1181 0
v -1568 637 0
v -1568 669 0
v -1600 669 0
v -1600 637 0
v -1568 797 0
v -1568 829 0
v -1600 829 0
v -1600 797 0
v -1568 1437 0
v -1568 1469 0
v -1600 1469 0
v -1600 1437 0
v -1728 1181 0
v -1728 1213 0
v -1760 1213 0
v -1760 1181 0
v -512 1501 0
v -512 1533 0
v -544 1533 0
v -544 1501 0
v -832 1693 0
v -832 1725 0
v -864 1725 0
v -864 1693 0
v -1248 1693 0
v -1248 1725 0
v -1280 1725 0
v -1280 1693 0
vt 0.00048828125 0.000724613667
vt 0.00048828125 0.510869563
vt 0.531738281 0.510869563
vt 0.531738281 0.000724613667
vt 0.00048828125 0.51231885
vt 0.00048828125 0.999275386
vt 0.531738281 0.999275386
vt 0.531738281 0.51231885
vt 0.532714844 0.000724613667
vt 0.532714844 0.163043499
vt 0.735839844 0.163043499
vt 0.735839844 0.000724613667
vt 0.736816406 0.000724613667
vt 0.736816406 0.139855087
vt 0.924316406 0.139855087
vt 0.924316406 0.000724613667
vt 0.736816406 0.141304374
vt 0.736816406 0.280434787
vt 0.908691406 0.280434787
vt 0.908691406 0.141304374
vt 0.909667969 0.141304374
vt 0.909667969 0.419565201
vt 0.987792969 0.419565201
vt 0.987792969 0.141304374
vt 0.532714844 0.164492726
vt 0.532714844 0.419565201
vt 0.610839844 0.419565201
vt 0.610839844 0.164492726
vt 0.611816406 0.164492726
vt 0.611816406 0.373188376
vt 0.705566406 0.373188376
vt 0.705566406 0.164492726
vt 0.736816406 0.281884074
vt 0.736816406 0.4442029
vt 0.799316406 0.4442029
vt 0.799316406 0.281884074
vt 0.611816406 0.374637663
vt 0.611816406 0.467391312
vt 0.721191406 0.467391312
vt 0.721191406 0.374637663
vt 0.736816406 0.445652187
vt 0.736816406 0.515217423
vt 0.861816406 0.515217423
vt 0.861816406 0.445652187
vt 0.736816406 0.516666651
vt 0.736816406 0.586231887
vt 0.861816406 0.586231887
vt 0.861816406 0.516666651
vt 0.611816406 0.468840599
vt 0.611816406 0.538405776
vt 0.705566406 0.538405776
vt 0.705566406 0.468840599
vt 0.611816406 0.539855063
vt 0.611816406 0.6094203
vt 0.705566406 0.6094203
vt 0.705566406 0.539855063
vt 0.736816406 0.587681174
vt 0.736816406 0.657246351
vt 0.830566406 0.657246351
vt 0.830566406 0.587681174
vt 0.532714844 0.421014488
vt 0.532714844 0.490579724
vt 0.610839844 0.490579724
vt 0.610839844 0.421014488
vt 0.909667969 0.421014488
vt 0.909667969 0.536956549
vt 0.956542969 0.536956549
vt 0.956542969 0.421014488
vt 0.532714844 0.492029011
vt 0.532714844 0.607971013
vt 0.579589844 0.607971013
vt 0.579589844 0.492029011
vt 0.909667969 0.538405776
vt 0.909667969 0.654347837
vt 0.956542969 0.654347837
vt 0.956542969 0.538405776
vt 0.831542969 0.587681174
vt 0.831542969 0.680434823
vt 0.878417969 0.680434823
vt 0.878417969 0.587681174
vt 0.532714844 0.6094203
vt 0.532714844 0.702173948
vt 0.579589844 0.702173948
vt 0.579589844 0.6094203
vt 0.611816406 0.610869527
vt 0.611816406 0.680434823
vt 0.658691406 0.680434823
vt 0.658691406 0.610869527
vt 0.957519531 0.421014488
vt 0.957519531 0.513768077
vt 0.988769531 0.513768077
vt 0.988769531 0.421014488
vt 0.659667969 0.610869527
vt 0.659667969 0.657246351
vt 0.722167969 0.657246351
vt 0.722167969 0.610869527
vt 0.909667969 0.655797124
vt 0.909667969 0.702173948
vt 0.972167969 0.702173948
vt 0.972167969 0.655797124
vt 0.659667969 0.658695638
vt 0.659667969 0.705072463
vt 0.706542969 0.705072463
vt 0.706542969 0.658695638
vt 0.707519531 0.658695638
vt 0.707519531 0.728260875
vt 0.738769531 0.728260875
vt 0.738769531 0.658695638
vt 0.739746094 0.658695638
vt 0.739746094 0.728260875
vt 0.770996094 0.728260875
vt 0.770996094 0.658695638
vt 0.771972656 0.658695638
vt 0.771972656 0.705072463
vt 0.818847656 0.705072463
vt 0.818847656 0.658695638
vt 0.611816406 0.68188405
vt 0.611816406 0.751449287
vt 0.643066406 0.751449287
vt 0.643066406 0.68188405
vt 0.532714844 0.703623176
vt 0.532714844 0.725362301
vt 0.610839844 0.725362301
vt 0.610839844 0.703623176
vt 0.831542969 0.68188405
vt 0.831542969 0.728260875
vt 0.862792969 0.728260875
vt 0.862792969 0.68188405
vt 0.863769531 0.68188405
vt 0.863769531 0.728260875
vt 0.895019531 0.728260875
vt 0.895019531 0.68188405
vt 0.909667969 0.703623176
vt 0.909667969 0.725362301
vt 0.972167969 0.725362301
vt 0.972167969 0.703623176
vt 0.659667969 0.706521749
vt 0.659667969 0.729710102
vt 0.706542969 0.729710102
vt 0.706542969 0.706521749
vt 0.973144531 0.515217423
vt 0.973144531 0.5847826
vt 0.988769531 0.5847826
vt 0.988769531 0.515217423
vt 0.771972656 0.706521749
vt 0.771972656 0.729710102
vt 0.818847656 0.729710102
vt 0.818847656 0.706521749
vt 0.973144531 0.586231887
vt 0.973144531 0.655797124
vt 0.988769531 0.655797124
vt 0.988769531 0.586231887
vt 0.532714844 0.726811588
vt 0.532714844 0.75
vt 0.579589844 0.75
vt 0.579589844 0.726811588
vt 0.909667969 0.726811588
vt 0.909667969 0.75
vt 0.956542969 0.75
vt 0.956542969 0.726811588
vt 0.973144531 0.657246351
vt 0.973144531 0.726811588
vt 0.988769531 0.726811588
vt 0.988769531 0.657246351
vt 0.580566406 0.726811588
vt 0.580566406 0.773188412
vt 0.596191406 0.773188412
vt 0.596191406 0.726811588
vt 0.973144531 0.728260875
vt 0.973144531 0.774637699
vt 0.988769531 0.774637699
vt 0.988769531 0.728260875
vt 0.707519531 0.729710102
vt 0.707519531 0.776086926
vt 0.723144531 0.776086926
vt 0.723144531 0.729710102
vt 0.724121094 0.729710102
vt 0.724121094 0.752898574
vt 0.755371094 0.752898574
vt 0.755371094 0.729710102
vt 0.831542969 0.729710102
vt 0.831542969 0.776086926
vt 0.847167969 0.776086926
vt 0.847167969 0.729710102
vt 0.848144531 0.729710102
vt 0.848144531 0.776086926
vt 0.863769531 0.776086926
vt 0.863769531 0.729710102
vt 0.864746094 0.729710102
vt 0.864746094 0.752898574
vt 0.895996094 0.752898574
vt 0.895996094 0.729710102
vt 0.659667969 0.731159449
vt 0.659667969 0.777536213
vt 0.675292969 0.777536213
vt 0.675292969 0.731159449
vt 0.771972656 0.731159449
vt 0.771972656 0.754347801
vt 0.803222656 0.754347801
vt 0.803222656 0.731159449
vt 0.532714844 0.751449287
vt 0.532714844 0.774637699
vt 0.563964844 0.774637699
vt 0.563964844 0.751449287
vt 0.909667969 0.751449287
vt 0.909667969 0.774637699
vt 0.940917969 0.774637699
vt 0.940917969 0.751449287
vt 0.676269531 0.731159449
vt 0.676269531 0.777536213
vt 0.691894531 0.777536213
vt 0.691894531 0.731159449
vt 0.804199219 0.731159449
vt 0.804199219 0.777536213
vt 0.819824219 0.777536213
vt 0.819824219 0.731159449
vt 0.611816406 0.752898574
vt 0.611816406 0.776086926
vt 0.643066406 0.776086926
vt 0.643066406 0.752898574
vt 0.941894531 0.751449287
vt 0.941894531 0.797826052
vt 0.957519531 0.797826052
vt 0.957519531 0.751449287
vt 0.724121094 0.754347801
vt 0.724121094 0.800724626
vt 0.739746094 0.800724626
vt 0.739746094 0.754347801
vt 0.740722656 0.754347801
vt 0.740722656 0.800724626
vt 0.756347656 0.800724626
vt 0.756347656 0.754347801
vt 0.864746094 0.754347801
vt 0.864746094 0.800724626
vt 0.880371094 0.800724626
vt 0.880371094 0.754347801
vt 0.881347656 0.754347801
vt 0.881347656 0.800724626
vt 0.896972656 0.800724626
vt 0.896972656 0.754347801
vt 0.771972656 0.755797088
vt 0.771972656 0.802173913
vt 0.787597656 0.802173913
vt 0.787597656 0.755797088
vt 0.580566406 0.774637699
vt 0.580566406 0.797826052
vt 0.596191406 0.797826052
vt 0.596191406 0.774637699
vt 0.532714844 0.776086926
vt 0.532714844 0.799275398
vt 0.548339844 0.799275398
vt 0.548339844 0.776086926
vt 0.549316406 0.776086926
vt 0.549316406 0.799275398
vt 0.564941406 0.799275398
vt 0.564941406 0.776086926
vt 0.909667969 0.776086926
vt 0.909667969 0.799275398
vt 0.925292969 0.799275398
vt 0.925292969 0.776086926
vt 0.973144531 0.776086926
vt 0.973144531 0.799275398
vt 0.988769531 0.799275398
vt 0.988769531 0.776086926
vt 0.611816406 0.777536213
vt 0.611816406 0.800724626
vt 0.627441406 0.800724626
vt 0.627441406 0.777536213
vt 0.628417969 0.777536213
vt 0.628417969 0.800724626
vt 0.644042969 0.800724626
vt 0.644042969 0.777536213
vt 0.707519531 0.777536213
vt 0.707519531 0.800724626
vt 0.723144531 0.800724626
vt 0.723144531 0.777536213
vt 0.831542969 0.777536213
vt 0.831542969 0.800724626
vt 0.847167969 0.800724626
vt 0.847167969 0.777536213
vt 0.848144531 0.777536213
vt 0.848144531 0.800724626
vt 0.863769531 0.800724626
vt 0.863769531 0.777536213
vt 0.659667969 0.7789855
vt 0.659667969 0.802173913
vt 0.675292969 0.802173913
vt 0.675292969 0.7789855
vt 0.676269531 0.7789855
vt 0.676269531 0.802173913
vt 0.691894531 0.802173913
vt 0.691894531 0.7789855
vt 0.804199219 0.7789855
vt 0.804199219 0.802173913
vt 0.819824219 0.802173913
vt 0.819824219 0.7789855
vt 0.580566406 0.799275398
vt 0.580566406 0.822463751
vt 0.596191406 0.822463751
vt 0.596191406 0.799275398
vt 0.941894531 0.799275398
vt 0.941894531 0.822463751
vt 0.957519531 0.822463751
vt 0.957519531 0.799275398
vt 0.532714844 0.800724626
vt 0.532714844 0.823913038
vt 0.548339844 0.823913038
vt 0.548339844 0.800724626
vt 0.549316406 0.800724626
vt 0.549316406 0.823913038
vt 0.564941406 0.823913038
vt 0.564941406 0.800724626
vt 0.909667969 0.800724626
vt 0.909667969 0.823913038
vt 0.925292969 0.823913038
vt 0.925292969 0.800724626
vt 0.973144531 0.800724626
vt 0.973144531 0.823913038
vt 0.988769531 0.823913038
vt 0.988769531 0.800724626
vt 0.611816406 0.802173913
vt 0.611816406 0.825362325
vt 0.627441406 0.825362325
vt 0.627441406 0.802173913
vt 0.628417969 0.802173913
vt 0.628417969 0.825362325
vt 0.644042969 0.825362325
vt 0.644042969 0.802173913
g fengyun_3-mesh_0
f 3/3/3 2/2/2 1/1/1
f 1/1/1 4/4/4 3/3/3
f 7/7/7 6/6/6 5/5/5
f 5/5/5 8/8/8 7/7/7
f 11/11/11 10/10/10 9/9/9
f 9/9/9 12/12/12 11/11/11
f 15/15/15 14/14/14 13/13/13
f 13/13/13 16/16/16 15/15/15
f 19/19/19 18/18/18 17/17/17
f 17/17/17 20/20/20 19/19/19
f 23/23/23 22/22/22 21/21/21
f 21/21/21 24/24/24 23/23/23
f 27/27/27 26/26/26 25/25/25
f 25/25/25 28/28/28 27/27/27
f 31/31/31 30/30/30 29/29/29
f 29/29/29 32/32/32 31/31/31
f 35/35/35 34/34/34 33/33/33
f 33/33/33 36/36/36 35/35/35
f 39/39/39 38/38/38 37/37/37
f 37/37/37 40/40/40 39/39/39
f 43/43/43 42/42/42 41/41/41
f 41/41/41 44/44/44 43/43/43
f 47/47/47 46/46/46 45/45/45
f 45/45/45 48/48/48 47/47/47
f 51/51/51 50/50/50 49/49/49
f 49/49/49 52/52/52 51/51/51
f 55/55/55 54/54/54 53/53/53
f 53/53/53 56/56/56 55/55/55
f 59/59/59 58/58/58 57/57/57
f 57/57/57 60/60/60 59/59/59
f 63/63/63 62/62/62 61/61/61
f 61/61/61 64/64/64 63/63/63
f 67/67/67 66/66/66 65/65/65
f 65/65/65 68/68/68 67/67/67
f 71/71/71 70/70/70 69/69/69
f 69/69/69 72/72/72 71/71/71
f 75/75/75 74/74/74 73/73/73
f 73/73/73 76/76/76 75/75/75
f 79/79/79 78/78/78 77/77/77
f 77/77/77 80/80/80 79/79/79
f 83/83/83 82/82/82 81/81/81
f 81/81/81 84/84/84 83/83/83
f 87/87/87 86/86/86 85/85/85
f 85/85/85 88/88/88 87/87/87
f 91/91/91 90/90/90 89/89/89
f 89/89/89 92/92/92 91/91/91
f 95/95/95 94/94/94 93/93/93
f 93/93/93 96/96/96 95/95/95
f 99/99/99 98/98/98 97/97/97
f 97/97/97 100/100/100 99/99/99
f 103/103/103 102/102/102 101/101/101
f 101/101/101 104/104/104 103/103/103
f 107/107/107 106/106/106 105/105/105
f 105/105/105 108/108/108 107/107/107
f 111/111/111 110/110/110 109/109/109
f 109/109/109 112/112/112 111/111/111
f 115/115/115 114/114/114 113/113/113
f 113/113/113 116/116/116 115/115/115
f 119/119/119 118/118/118 117/117/117
f 117/117/117 120/120/120 119/119/119
f 123/123/123 122/122/122 121/121/121
f 121/121/121 124/124/124 123/123/123
f 127/127/127 126/126/126 125/125/125
f 125/125/125 128/128/128 127/127/127
f 131/131/131 130/130/130 129/129/129
f 129/129/129 132/132/132 131/131/131
f 135/135/135 134/134/134 133/133/133
f 133/133/133 136/136/136 135/135/135
f 139/139/139 138/138/138 137/137/137
f 137/137/137 140/140/140 139/139/139
f 143/143/143 142/142/142 141/141/141
f 141/141/141 144/144/144 143/143/143
f 147/147/147 146/146/146 145/145/145
f 145/145/145 148/148/148 147/147/147
f 151/151/151 150/150/150 149/149/149
f 149/149/149 152/152/152 151/151/151
f 155/155/155 154/154/154 153/153/153
f 153/153/153 156/156/156 155/155/155
f 159/159/159 158/158/158 157/157/157
f 157/157/157 160/160/160 159/159/159
f 163/163/163 162/162/162 161/161/161
f 161/161/161 164/164/164 163/163/163
f 167/167/167 166/166/166 165/165/165
f 165/165/165 168/168/168 167/167/167
f 171/171/171 170/170/170 169/169/169
f 169/169/169 172/172/172 171/171/171
f 175/175/175 174/174/174 173/173/173
f 173/173/173 176/176/176 175/175/175
f 179/179/179 178/178/178 177/177/177
f 177/177/177 180/180/180 179/179/179
f 183/183/183 182/182/182 181/181/181
f 181/181/181 184/184/184 183/183/183
f 187/187/187 186/186/186 185/185/185
f 185/185/185 188/188/188 187/187/187
f 191/191/191 190/190/190 189/189/189
f 189/189/189 192/192/192 191/191/191
f 195/195/195 194/194/194 193/193/193
f 193/193/193 196/196/196 195/195/195
f 199/199/199 198/198/198 197/197/197
f 197/197/197 200/200/200 199/199/199
f 203/203/203 202/202/202 201/201/201
f 201/201/201 204/204/204 203/203/203
f 207/207/207 206/206/206 205/205/205
f 205/205/205 208/208/208 207/207/207
f 211/211/211 210/210/210 209/209/209
f 209/209/209 212/212/212 211/211/211
f 215/215/215 214/214/214 213/213/213
f 213/213/213 216/216/216 215/215/215
f 219/219/219 218/218/218 217/217/217
f 217/217/217 220/220/220 219/219/219
f 223/223/223 222/222/222 221/221/221
f 221/221/221 224/224/224 223/223/223
f 227/227/227 226/226/226 225/225/225
f 225/225/225 228/228/228 227/227/227
f 231/231/231 230/230/230 229/229/229
f 229/229/229 232/232/232 231/231/231
f 235/235/235 234/234/234 233/233/233
f 233/233/233 236/236/236 235/235/235
f 239/239/239 238/238/238 237/237/237
f 237/237/237 240/240/240 239/239/239
f 243/243/243 242/242/242 241/241/241
f 241/241/241 244/244/244 243/243/243
f 247/247/247 246/246/246 245/245/245
f 245/245/245 248/248/248 247/247/247
f 251/251/251 250/250/250 249/249/249
f 249/249/249 252/252/252 251/251/251
f 255/255/255 254/254/254 253/253/253
f 253/253/253 256/256/256 255/255/255
f 259/259/259 258/258/258 257/257/257
f 257/257/257 260/260/260 259/259/259
f 263/263/263 262/262/262 261/261/261
f 261/261/261 264/264/264 263/263/263
f 267/267/267 266/266/266 265/265/265
f 265/265/265 268/268/268 267/267/267
f 271/271/271 270/270/270 269/269/269
f 269/269/269 272/272/272 271/271/271
f 275/275/275 274/274/274 273/273/273
f 273/273/273 276/276/276 275/275/275
f 279/279/279 278/278/278 277/277/277
f 277/277/277 280/280/280 279/279/279
f 283/283/283 282/282/282 281/281/281
f 281/281/281 284/284/284 283/283/283
f 287/287/287 286/286/286 285/285/285
f 285/285/285 288/288/288 287/287/287
f 291/291/291 290/290/290 289/289/289
f 289/289/289 292/292/292 291/291/291
f 295/295/295 294/294/294 293/293/293
f 293/293/293 296/296/296 295/295/295
f 299/299/299 298/298/298 297/297/297
f 297/297/297 300/300/300 299/299/299
f 303/303/303 302/302/302 301/301/301
f 301/301/301 304/304/304 303/303/303
f 307/307/307 306/306/306 305/305/305
f 305/305/305 308/308/308 307/307/307
f 311/311/311 310/310/310 309/309/309
f 309/309/309 312/312/312 311/311/311
f 315/315/315 314/314/314 313/313/313
f 313/313/313 316/316/316 315/315/315
f 319/319/319 318/318/318 317/317/317
f 317/317/317 320/320/320 319/319/319
f 323/323/323 322/322/322 321/321/321
f 321/321/321 324/324/324 323/323/323
f 327/327/327 326/326/326 325/325/325
f 325/325/325 328/328/328 327/327/327
