g naximofu_4_rw-mesh
v -832 953 0
v -832 1721 0
v -1280 1721 0
v -1280 953 0
v -384 953 0
v -384 1721 0
v -832 1721 0
v -832 953 0
v -224 1625 0
v -224 1945 0
v -384 1945 0
v -384 1625 0
v -224 1337 0
v -224 1625 0
v -384 1625 0
v -384 1337 0
v -832 121 0
v -832 537 0
v -928 537 0
v -928 121 0
v -832 537 0
v -832 953 0
v -928 953 0
v -928 537 0
v -1280 1017 0
v -1280 1305 0
v -1408 1305 0
v -1408 1017 0
v -1280 1305 0
v -1280 1593 0
v -1408 1593 0
v -1408 1305 0
v -384 1721 0
v -384 1881 0
v -544 1881 0
v -544 1721 0
v -928 1721 0
v -928 1817 0
v -1184 1817 0
v -1184 1721 0
v -672 1721 0
v -672 1817 0
v -928 1817 0
v -928 1721 0
v -896 25 0
v -896 121 0
v -1120 121 0
v -1120 25 0
v -1408 1017 0
v -1408 1113 0
v -1632 1113 0
v -1632 1017 0
v -448 857 0
v -448 953 0
v -640 953 0
v -640 857 0
v -640 857 0
v -640 953 0
v -832 953 0
v -832 857 0
v -992 857 0
v -992 953 0
v -1152 953 0
v -1152 857 0
v -128 1625 0
v -128 1785 0
v -224 1785 0
v -224 1625 0
v -128 1785 0
v -128 1945 0
v -224 1945 0
v -224 1785 0
v -1856 857 0
v -1856 953 0
v -1984 953 0
v -1984 857 0
v -1728 857 0
v -1728 953 0
v -1856 953 0
v -1856 857 0
v -768 697 0
v -768 857 0
v -832 857 0
v -832 697 0
v -768 537 0
v -768 697 0
v -832 697 0
v -832 537 0
v -0 729 0
v -0 889 0
v -64 889 0
v -64 729 0
v -0 569 0
v -0 729 0
v -64 729 0
v -64 569 0
v -224 537 0
v -224 633 0
v -320 633 0
v -320 537 0
v -288 633 0
v -288 761 0
v -352 761 0
v -352 633 0
v -320 761 0
v -320 825 0
v -448 825 0
v -448 761 0
v -320 1081 0
v -320 1209 0
v -384 1209 0
v -384 1081 0
v -320 1209 0
v -320 1337 0
v -384 1337 0
v -384 1209 0
v -1568 953 0
v -1568 1017 0
v -1696 1017 0
v -1696 953 0
v -1696 953 0
v -1696 1017 0
v -1824 1017 0
v -1824 953 0
v -256 1945 0
v -256 2009 0
v -352 2009 0
v -352 1945 0
v -384 1881 0
v -384 1945 0
v -480 1945 0
v -480 1881 0
v -1248 1753 0
v -1248 1849 0
v -1312 1849 0
v -1312 1753 0
v -448 761 0
v -448 825 0
v -544 825 0
v -544 761 0
v -896 1817 0
v -896 1881 0
v -992 1881 0
v -992 1817 0
v -256 1049 0
v -256 1145 0
v -320 1145 0
v -320 1049 0
v -160 985 0
v -160 1081 0
v -224 1081 0
v -224 985 0
v -96 921 0
v -96 1017 0
v -160 1017 0
v -160 921 0
v -256 1241 0
v -256 1337 0
v -320 1337 0
v -320 1241 0
v -96 473 0
v -96 537 0
v -192 537 0
v -192 473 0
v -928 761 0
v -928 953 0
v -960 953 0
v -960 761 0
v -1856 793 0
v -1856 857 0
v -1952 857 0
v -1952 793 0
v -928 185 0
v -928 281 0
v -992 281 0
v -992 185 0
v -1408 1273 0
v -1408 1465 0
v -1440 1465 0
v -1440 1273 0
v -1408 1113 0
v -1408 1273 0
v -1440 1273 0
v -1440 1113 0
v -928 601 0
v -928 761 0
v -960 761 0
v -960 601 0
v -1632 1017 0
v -1632 1081 0
v -1696 1081 0
v -1696 1017 0
v -992 121 0
v -992 185 0
v -1056 185 0
v -1056 121 0
v -1184 1721 0
v -1184 1785 0
v -1248 1785 0
v -1248 1721 0
v -1440 1113 0
v -1440 1177 0
v -1504 1177 0
v -1504 1113 0
v -1024 1817 0
v -1024 1881 0
v -1088 1881 0
v -1088 1817 0
v -1664 889 0
v -1664 953 0
v -1728 953 0
v -1728 889 0
v -736 1817 0
v -736 1881 0
v -800 1881 0
v -800 1817 0
v -352 825 0
v -352 857 0
v -480 857 0
v -480 825 0
v -960 0 0
v -960 25 0
v -1088 25 0
v -1088 0 0
v -192 473 0
v -192 537 0
v -256 537 0
v -256 473 0
v -1952 793 0
v -1952 857 0
v -2016 857 0
v -2016 793 0
v -928 121 0
v -928 185 0
v -992 185 0
v -992 121 0
v -64 889 0
v -64 985 0
v -96 985 0
v -96 889 0
v -800 345 0
v -800 441 0
v -832 441 0
v -832 345 0
v -800 441 0
v -800 537 0
v -832 537 0
v -832 441 0
v -480 825 0
v -480 857 0
v -576 857 0
v -576 825 0
v -1088 0 0
v -1088 25 0
v -1184 25 0
v -1184 0 0
v -1696 1017 0
v -1696 1049 0
v -1760 1049 0
v -1760 1017 0
v -1504 1113 0
v -1504 1145 0
v -1568 1145 0
v -1568 1113 0
v -160 1593 0
v -160 1625 0
v -224 1625 0
v -224 1593 0
v -1824 953 0
v -1824 985 0
v -1888 985 0
v -1888 953 0
v -1280 953 0
v -1280 1017 0
v -1312 1017 0
v -1312 953 0
v -192 1113 0
v -192 1177 0
v -224 1177 0
v -224 1113 0
v -928 313 0
v -928 377 0
v -960 377 0
v -960 313 0
v -1312 1849 0
v -1312 1913 0
v -1344 1913 0
v -1344 1849 0
v -1312 1785 0
v -1312 1817 0
v -1376 1817 0
v -1376 1785 0
v -288 1177 0
v -288 1241 0
v -320 1241 0
v -320 1177 0
v -448 697 0
v -448 761 0
v -480 761 0
v -480 697 0
v -480 729 0
v -480 761 0
v -544 761 0
v -544 729 0
v -1888 761 0
v -1888 793 0
v -1952 793 0
v -1952 761 0
v -256 633 0
v -256 697 0
v -288 697 0
v -288 633 0
v -1120 25 0
v -1120 89 0
v -1152 89 0
v -1152 25 0
v -864 57 0
v -864 121 0
v -896 121 0
v -896 57 0
v -1056 793 0
v -1056 857 0
v -1088 857 0
v -1088 793 0
v -416 889 0
v -416 953 0
v -448 953 0
v -448 889 0
v -32 889 0
v -32 953 0
v -64 953 0
v -64 889 0
v -1184 857 0
v -1184 921 0
v -1216 921 0
v -1216 857 0
v -2016 825 0
v -2016 889 0
v -2047 889 0
v -2047 825 0
v -1984 857 0
v -1984 921 0
v -2016 921 0
v -2016 857 0
v -64 505 0
v -64 569 0
v -96 569 0
v -96 505 0
v -64 569 0
v -64 633 0
v -96 633 0
v -96 569 0
v -800 249 0
v -800 313 0
v -832 313 0
v -832 249 0
v -576 1721 0
v -576 1753 0
v -640 1753 0
v -640 1721 0
v -800 185 0
v -800 249 0
v -832 249 0
v -832 185 0
v -736 793 0
v -736 857 0
v -768 857 0
v -768 793 0
v -192 1497 0
v -192 1561 0
v -224 1561 0
v -224 1497 0
v -64 825 0
v -64 889 0
v -96 889 0
v -96 825 0
v -192 1433 0
v -192 1497 0
v -224 1497 0
v -224 1433 0
v -960 825 0
v -960 889 0
v -992 889 0
v -992 825 0
v -960 889 0
v -960 953 0
v -992 953 0
v -992 889 0
v -1280 1625 0
v -1280 1689 0
v -1312 1689 0
v -1312 1625 0
v -1472 985 0
v -1472 1017 0
v -1536 1017 0
v -1536 985 0
v -736 729 0
v -736 793 0
v -768 793 0
v -768 729 0
v -352 697 0
v -352 761 0
v -384 761 0
v -384 697 0
v -1152 921 0
v -1152 953 0
v -1216 953 0
v -1216 921 0
v -224 1049 0
v -224 1113 0
v -256 1113 0
v -256 1049 0
v -1344 1625 0
v -1344 1657 0
v -1376 1657 0
v -1376 1625 0
v -1312 1657 0
v -1312 1689 0
v -1344 1689 0
v -1344 1657 0
v -96 889 0
v -96 921 0
v -128 921 0
v -128 889 0
v -1152 857 0
v -1152 889 0
v -1184 889 0
v -1184 857 0
v -1376 1593 0
v -1376 1625 0
v -1408 1625 0
v -1408 1593 0
v -192 1337 0
v -192 1369 0
v -224 1369 0
v -224 1337 0
v -1440 1177 0
v -1440 1209 0
v -1472 1209 0
v -1472 1177 0
v -1312 1593 0
v -1312 1625 0
v -1344 1625 0
v -1344 1593 0
v -128 1017 0
v -128 1049 0
v -160 1049 0
v -160 1017 0
v -1632 921 0
v -1632 953 0
v -1664 953 0
v -1664 921 0
v -1088 825 0
v -1088 857 0
v -1120 857 0
v -1120 825 0
v -96 537 0
v -96 569 0
v -128 569 0
v -128 537 0
v -32 537 0
v -32 569 0
v -64 569 0
v -64 537 0
v -192 537 0
v -192 569 0
v -224 569 0
v -224 537 0
v -992 185 0
v -992 217 0
v -1024 217 0
v -1024 185 0
v -256 505 0
v -256 537 0
v -288 537 0
v -288 505 0
v -992 793 0
v -992 825 0
v -1024 825 0
v -1024 793 0
v -1824 825 0
v -1824 857 0
v -1856 857 0
v -1856 825 0
v -1152 25 0
v -1152 57 0
v -1184 57 0
v -1184 25 0
v -320 601 0
v -320 633 0
v -352 633 0
v -352 601 0
v -384 729 0
v -384 761 0
v -416 761 0
v -416 729 0
v -1280 1593 0
v -1280 1625 0
v -1312 1625 0
v -1312 1593 0
v -224 1017 0
v -224 1049 0
v -256 1049 0
v -256 1017 0
v -640 1721 0
v -640 1753 0
v -672 1753 0
v -672 1721 0
v -480 1913 0
v -480 1945 0
v -512 1945 0
v -512 1913 0
v -128 1945 0
v -128 1977 0
v -160 1977 0
v -160 1945 0
v -448 665 0
v -448 697 0
v -480 697 0
v -480 665 0
v -352 665 0
v -352 697 0
v -384 697 0
v -384 665 0
v -1216 921 0
v -1216 953 0
v -1248 953 0
v -1248 921 0
v -1536 985 0
v -1536 1017 0
v -1568 1017 0
v -1568 985 0
v -928 281 0
v -928 313 0
v -960 313 0
v -960 281 0
v -512 1881 0
v -512 1913 0
v -544 1913 0
v -544 1881 0
v -96 1785 0
v -96 1817 0
v -128 1817 0
v -128 1785 0
v -864 1817 0
v -864 1849 0
v -896 1849 0
v -896 1817 0
v -544 1785 0
v -544 1817 0
v -576 1817 0
v -576 1785 0
v -1248 1721 0
v -1248 1753 0
v -1280 1753 0
v -1280 1721 0
v -608 1753 0
v -608 1785 0
v -640 1785 0
v -640 1753 0
v -896 1881 0
v -896 1913 0
v -928 1913 0
v -928 1881 0
v -832 1881 0
v -832 1913 0
v -864 1913 0
v -864 1881 0
v -1056 1881 0
v -1056 1913 0
v -1088 1913 0
v -1088 1881 0
v -704 1817 0
v -704 1849 0
v -736 1849 0
v -736 1817 0
v -1280 1849 0
v -1280 1881 0
v -1312 1881 0
v -1312 1849 0
vt 0.00048828125 0.00114941597
vt 0.00048828125 0.883908033
vt 0.219238281 0.883908033
vt 0.219238281 0.00114941597
vt 0.220214844 0.00114941597
vt 0.220214844 0.883908033
vt 0.438964844 0.883908033
vt 0.438964844 0.00114941597
vt 0.439941406 0.00114941597
vt 0.439941406 0.368965507
vt 0.518066406 0.368965507
vt 0.518066406 0.00114941597
vt 0.519042969 0.00114941597
vt 0.519042969 0.332183897
vt 0.597167969 0.332183897
vt 0.597167969 0.00114941597
vt 0.598144531 0.00114941597
vt 0.598144531 0.479310334
vt 0.645019531 0.479310334
vt 0.645019531 0.00114941597
vt 0.645996094 0.00114941597
vt 0.645996094 0.479310334
vt 0.692871094 0.479310334
vt 0.692871094 0.00114941597
vt 0.693847656 0.00114941597
vt 0.693847656 0.332183897
vt 0.756347656 0.332183897
vt 0.756347656 0.00114941597
vt 0.757324219 0.00114941597
vt 0.757324219 0.332183897
vt 0.819824219 0.332183897
vt 0.819824219 0.00114941597
vt 0.820800781 0.00114941597
vt 0.820800781 0.185057461
vt 0.898925781 0.185057461
vt 0.898925781 0.00114941597
vt 0.820800781 0.187356293
vt 0.820800781 0.29770112
vt 0.945800781 0.29770112
vt 0.945800781 0.187356293
vt 0.820800781 0.300000012
vt 0.820800781 0.410344839
vt 0.945800781 0.410344839
vt 0.945800781 0.300000012
vt 0.693847656 0.334482729
vt 0.693847656 0.444827557
vt 0.803222656 0.444827557
vt 0.803222656 0.334482729
vt 0.439941406 0.371264338
vt 0.439941406 0.481609166
vt 0.549316406 0.481609166
vt 0.549316406 0.371264338
vt 0.820800781 0.412643671
vt 0.820800781 0.522988498
vt 0.914550781 0.522988498
vt 0.914550781 0.412643671
vt 0.693847656 0.447126448
vt 0.693847656 0.557471275
vt 0.787597656 0.557471275
vt 0.787597656 0.447126448
vt 0.915527344 0.412643671
vt 0.915527344 0.522988498
vt 0.993652344 0.522988498
vt 0.993652344 0.412643671
vt 0.550292969 0.334482729
vt 0.550292969 0.518390775
vt 0.597167969 0.518390775
vt 0.597167969 0.334482729
vt 0.598144531 0.481609166
vt 0.598144531 0.665517211
vt 0.645019531 0.665517211
vt 0.645019531 0.481609166
vt 0.439941406 0.483908057
vt 0.439941406 0.594252884
vt 0.502441406 0.594252884
vt 0.502441406 0.483908057
vt 0.820800781 0.52528739
vt 0.820800781 0.635632157
vt 0.883300781 0.635632157
vt 0.883300781 0.52528739
vt 0.788574219 0.447126448
vt 0.788574219 0.631034493
vt 0.819824219 0.631034493
vt 0.819824219 0.447126448
vt 0.645996094 0.481609166
vt 0.645996094 0.665517211
vt 0.677246094 0.665517211
vt 0.677246094 0.481609166
vt 0.503417969 0.483908057
vt 0.503417969 0.667816103
vt 0.534667969 0.667816103
vt 0.534667969 0.483908057
vt 0.550292969 0.520689666
vt 0.550292969 0.704597712
vt 0.581542969 0.704597712
vt 0.581542969 0.520689666
vt 0.884277344 0.52528739
vt 0.884277344 0.635632157
vt 0.931152344 0.635632157
vt 0.931152344 0.52528739
vt 0.932128906 0.52528739
vt 0.932128906 0.672413826
vt 0.963378906 0.672413826
vt 0.963378906 0.52528739
vt 0.693847656 0.559770107
vt 0.693847656 0.633333325
vt 0.756347656 0.633333325
vt 0.756347656 0.559770107
vt 0.964355469 0.52528739
vt 0.964355469 0.672413826
vt 0.995605469 0.672413826
vt 0.995605469 0.52528739
vt 0.439941406 0.596551716
vt 0.439941406 0.743678153
vt 0.471191406 0.743678153
vt 0.471191406 0.596551716
vt 0.693847656 0.635632157
vt 0.693847656 0.709195375
vt 0.756347656 0.709195375
vt 0.756347656 0.635632157
vt 0.820800781 0.637931049
vt 0.820800781 0.711494267
vt 0.883300781 0.711494267
vt 0.883300781 0.637931049
vt 0.884277344 0.637931049
vt 0.884277344 0.711494267
vt 0.931152344 0.711494267
vt 0.931152344 0.637931049
vt 0.598144531 0.667816103
vt 0.598144531 0.741379321
vt 0.645019531 0.741379321
vt 0.645019531 0.667816103
vt 0.788574219 0.633333325
vt 0.788574219 0.743678153
vt 0.819824219 0.743678153
vt 0.819824219 0.633333325
vt 0.645996094 0.667816103
vt 0.645996094 0.741379321
vt 0.692871094 0.741379321
vt 0.692871094 0.667816103
vt 0.932128906 0.674712658
vt 0.932128906 0.748275876
vt 0.979003906 0.748275876
vt 0.979003906 0.674712658
vt 0.503417969 0.670114934
vt 0.503417969 0.780459762
vt 0.534667969 0.780459762
vt 0.534667969 0.670114934
vt 0.550292969 0.706896544
vt 0.550292969 0.817241371
vt 0.581542969 0.817241371
vt 0.581542969 0.706896544
vt 0.693847656 0.711494267
vt 0.693847656 0.821839094
vt 0.725097656 0.821839094
vt 0.725097656 0.711494267
vt 0.726074219 0.711494267
vt 0.726074219 0.821839094
vt 0.757324219 0.821839094
vt 0.757324219 0.711494267
vt 0.820800781 0.713793099
vt 0.820800781 0.787356317
vt 0.867675781 0.787356317
vt 0.867675781 0.713793099
vt 0.758300781 0.559770107
vt 0.758300781 0.780459762
vt 0.773925781 0.780459762
vt 0.773925781 0.559770107
vt 0.868652344 0.713793099
vt 0.868652344 0.787356317
vt 0.915527344 0.787356317
vt 0.915527344 0.713793099
vt 0.598144531 0.743678153
vt 0.598144531 0.85402298
vt 0.629394531 0.85402298
vt 0.629394531 0.743678153
vt 0.472167969 0.596551716
vt 0.472167969 0.817241371
vt 0.487792969 0.817241371
vt 0.487792969 0.596551716
vt 0.979980469 0.674712658
vt 0.979980469 0.858620703
vt 0.995605469 0.858620703
vt 0.995605469 0.674712658
vt 0.630371094 0.743678153
vt 0.630371094 0.927586198
vt 0.645996094 0.927586198
vt 0.645996094 0.743678153
vt 0.646972656 0.743678153
vt 0.646972656 0.817241371
vt 0.678222656 0.817241371
vt 0.678222656 0.743678153
vt 0.439941406 0.745977044
vt 0.439941406 0.819540262
vt 0.471191406 0.819540262
vt 0.471191406 0.745977044
vt 0.788574219 0.745977044
vt 0.788574219 0.819540262
vt 0.819824219 0.819540262
vt 0.819824219 0.745977044
vt 0.932128906 0.750574708
vt 0.932128906 0.824137926
vt 0.963378906 0.824137926
vt 0.963378906 0.750574708
vt 0.503417969 0.782758594
vt 0.503417969 0.856321812
vt 0.534667969 0.856321812
vt 0.534667969 0.782758594
vt 0.820800781 0.789655209
vt 0.820800781 0.863218427
vt 0.852050781 0.863218427
vt 0.852050781 0.789655209
vt 0.853027344 0.789655209
vt 0.853027344 0.863218427
vt 0.884277344 0.863218427
vt 0.884277344 0.789655209
vt 0.439941406 0.821839094
vt 0.439941406 0.858620703
vt 0.502441406 0.858620703
vt 0.502441406 0.821839094
vt 0.693847656 0.824137926
vt 0.693847656 0.85402298
vt 0.756347656 0.85402298
vt 0.756347656 0.824137926
vt 0.885253906 0.789655209
vt 0.885253906 0.863218427
vt 0.916503906 0.863218427
vt 0.916503906 0.789655209
vt 0.550292969 0.819540262
vt 0.550292969 0.89310348
vt 0.581542969 0.89310348
vt 0.581542969 0.819540262
vt 0.646972656 0.819540262
vt 0.646972656 0.89310348
vt 0.678222656 0.89310348
vt 0.678222656 0.819540262
vt 0.758300781 0.782758594
vt 0.758300781 0.89310348
vt 0.773925781 0.89310348
vt 0.773925781 0.782758594
vt 0.788574219 0.821839094
vt 0.788574219 0.932183921
vt 0.804199219 0.932183921
vt 0.804199219 0.821839094
vt 0.932128906 0.826436758
vt 0.932128906 0.936781585
vt 0.947753906 0.936781585
vt 0.947753906 0.826436758
vt 0.693847656 0.856321812
vt 0.693847656 0.89310348
vt 0.740722656 0.89310348
vt 0.740722656 0.856321812
vt 0.439941406 0.860919535
vt 0.439941406 0.890804589
vt 0.486816406 0.890804589
vt 0.486816406 0.860919535
vt 0.598144531 0.856321812
vt 0.598144531 0.89310348
vt 0.629394531 0.89310348
vt 0.629394531 0.856321812
vt 0.503417969 0.858620703
vt 0.503417969 0.895402312
vt 0.534667969 0.895402312
vt 0.534667969 0.858620703
vt 0.820800781 0.865517259
vt 0.820800781 0.902298868
vt 0.852050781 0.902298868
vt 0.852050781 0.865517259
vt 0.853027344 0.865517259
vt 0.853027344 0.902298868
vt 0.884277344 0.902298868
vt 0.884277344 0.865517259
vt 0.948730469 0.826436758
vt 0.948730469 0.899999976
vt 0.964355469 0.899999976
vt 0.964355469 0.826436758
vt 0.741699219 0.856321812
vt 0.741699219 0.92988503
vt 0.757324219 0.92988503
vt 0.757324219 0.856321812
vt 0.979980469 0.860919535
vt 0.979980469 0.934482753
vt 0.995605469 0.934482753
vt 0.995605469 0.860919535
vt 0.885253906 0.865517259
vt 0.885253906 0.939080477
vt 0.900878906 0.939080477
vt 0.900878906 0.865517259
vt 0.00048828125 0.886206865
vt 0.00048828125 0.922988534
vt 0.0317382812 0.922988534
vt 0.0317382812 0.886206865
vt 0.901855469 0.865517259
vt 0.901855469 0.939080477
vt 0.917480469 0.939080477
vt 0.917480469 0.865517259
vt 0.0327148438 0.886206865
vt 0.0327148438 0.959770083
vt 0.0483398438 0.959770083
vt 0.0483398438 0.886206865
vt 0.0493164062 0.886206865
vt 0.0493164062 0.922988534
vt 0.0805664062 0.922988534
vt 0.0805664062 0.886206865
vt 0.0815429688 0.886206865
vt 0.0815429688 0.922988534
vt 0.112792969 0.922988534
vt 0.112792969 0.886206865
vt 0.113769531 0.886206865
vt 0.113769531 0.959770083
vt 0.129394531 0.959770083
vt 0.129394531 0.886206865
vt 0.130371094 0.886206865
vt 0.130371094 0.959770083
vt 0.145996094 0.959770083
vt 0.145996094 0.886206865
vt 0.146972656 0.886206865
vt 0.146972656 0.959770083
vt 0.162597656 0.959770083
vt 0.162597656 0.886206865
vt 0.163574219 0.886206865
vt 0.163574219 0.959770083
vt 0.179199219 0.959770083
vt 0.179199219 0.886206865
vt 0.180175781 0.886206865
vt 0.180175781 0.959770083
vt 0.195800781 0.959770083
vt 0.195800781 0.886206865
vt 0.196777344 0.886206865
vt 0.196777344 0.959770083
vt 0.212402344 0.959770083
vt 0.212402344 0.886206865
vt 0.213378906 0.886206865
vt 0.213378906 0.959770083
vt 0.229003906 0.959770083
vt 0.229003906 0.886206865
vt 0.229980469 0.886206865
vt 0.229980469 0.959770083
vt 0.245605469 0.959770083
vt 0.245605469 0.886206865
vt 0.246582031 0.886206865
vt 0.246582031 0.959770083
vt 0.262207031 0.959770083
vt 0.262207031 0.886206865
vt 0.263183594 0.886206865
vt 0.263183594 0.959770083
vt 0.278808594 0.959770083
vt 0.278808594 0.886206865
vt 0.279785156 0.886206865
vt 0.279785156 0.959770083
vt 0.295410156 0.959770083
vt 0.295410156 0.886206865
vt 0.296386719 0.886206865
vt 0.296386719 0.959770083
vt 0.312011719 0.959770083
vt 0.312011719 0.886206865
vt 0.312988281 0.886206865
vt 0.312988281 0.922988534
vt 0.344238281 0.922988534
vt 0.344238281 0.886206865
vt 0.345214844 0.886206865
vt 0.345214844 0.959770083
vt 0.360839844 0.959770083
vt 0.360839844 0.886206865
vt 0.361816406 0.886206865
vt 0.361816406 0.959770083
vt 0.377441406 0.959770083
vt 0.377441406 0.886206865
vt 0.378417969 0.886206865
vt 0.378417969 0.959770083
vt 0.394042969 0.959770083
vt 0.394042969 0.886206865
vt 0.395019531 0.886206865
vt 0.395019531 0.959770083
vt 0.410644531 0.959770083
vt 0.410644531 0.886206865
vt 0.411621094 0.886206865
vt 0.411621094 0.959770083
vt 0.427246094 0.959770083
vt 0.427246094 0.886206865
vt 0.439941406 0.89310348
vt 0.439941406 0.966666639
vt 0.455566406 0.966666639
vt 0.455566406 0.89310348
vt 0.456542969 0.89310348
vt 0.456542969 0.966666639
vt 0.472167969 0.966666639
vt 0.472167969 0.89310348
vt 0.473144531 0.89310348
vt 0.473144531 0.966666639
vt 0.488769531 0.966666639
vt 0.488769531 0.89310348
vt 0.550292969 0.895402312
vt 0.550292969 0.932183921
vt 0.581542969 0.932183921
vt 0.581542969 0.895402312
vt 0.598144531 0.895402312
vt 0.598144531 0.96896553
vt 0.613769531 0.96896553
vt 0.613769531 0.895402312
vt 0.646972656 0.895402312
vt 0.646972656 0.96896553
vt 0.662597656 0.96896553
vt 0.662597656 0.895402312
vt 0.663574219 0.895402312
vt 0.663574219 0.932183921
vt 0.694824219 0.932183921
vt 0.694824219 0.895402312
vt 0.695800781 0.895402312
vt 0.695800781 0.96896553
vt 0.711425781 0.96896553
vt 0.711425781 0.895402312
vt 0.712402344 0.895402312
vt 0.712402344 0.932183921
vt 0.728027344 0.932183921
vt 0.728027344 0.895402312
vt 0.758300781 0.895402312
vt 0.758300781 0.932183921
vt 0.773925781 0.932183921
vt 0.773925781 0.895402312
vt 0.503417969 0.897701144
vt 0.503417969 0.934482753
vt 0.519042969 0.934482753
vt 0.519042969 0.897701144
vt 0.520019531 0.897701144
vt 0.520019531 0.934482753
vt 0.535644531 0.934482753
vt 0.535644531 0.897701144
vt 0.948730469 0.902298868
vt 0.948730469 0.939080477
vt 0.964355469 0.939080477
vt 0.964355469 0.902298868
vt 0.820800781 0.9045977
vt 0.820800781 0.941379309
vt 0.836425781 0.941379309
vt 0.836425781 0.9045977
vt 0.837402344 0.9045977
vt 0.837402344 0.941379309
vt 0.853027344 0.941379309
vt 0.853027344 0.9045977
vt 0.854003906 0.9045977
vt 0.854003906 0.941379309
vt 0.869628906 0.941379309
vt 0.869628906 0.9045977
vt 0.00048828125 0.925287366
vt 0.00048828125 0.962068975
vt 0.0161132812 0.962068975
vt 0.0161132812 0.925287366
vt 0.0493164062 0.925287366
vt 0.0493164062 0.962068975
vt 0.0649414062 0.962068975
vt 0.0649414062 0.925287366
vt 0.0659179688 0.925287366
vt 0.0659179688 0.962068975
vt 0.0815429688 0.962068975
vt 0.0815429688 0.925287366
vt 0.0825195312 0.925287366
vt 0.0825195312 0.962068975
vt 0.0981445312 0.962068975
vt 0.0981445312 0.925287366
vt 0.312988281 0.925287366
vt 0.312988281 0.962068975
vt 0.328613281 0.962068975
vt 0.328613281 0.925287366
vt 0.630371094 0.92988503
vt 0.630371094 0.966666639
vt 0.645996094 0.966666639
vt 0.645996094 0.92988503
vt 0.741699219 0.932183921
vt 0.741699219 0.96896553
vt 0.757324219 0.96896553
vt 0.757324219 0.932183921
vt 0.550292969 0.934482753
vt 0.550292969 0.971264362
vt 0.565917969 0.971264362
vt 0.565917969 0.934482753
vt 0.566894531 0.934482753
vt 0.566894531 0.971264362
vt 0.582519531 0.971264362
vt 0.582519531 0.934482753
vt 0.663574219 0.934482753
vt 0.663574219 0.971264362
vt 0.679199219 0.971264362
vt 0.679199219 0.934482753
vt 0.712402344 0.934482753
vt 0.712402344 0.971264362
vt 0.728027344 0.971264362
vt 0.728027344 0.934482753
vt 0.758300781 0.934482753
vt 0.758300781 0.971264362
vt 0.773925781 0.971264362
vt 0.773925781 0.934482753
vt 0.788574219 0.934482753
vt 0.788574219 0.971264362
vt 0.804199219 0.971264362
vt 0.804199219 0.934482753
vt 0.503417969 0.936781585
vt 0.503417969 0.973563194
vt 0.519042969 0.973563194
vt 0.519042969 0.936781585
vt 0.520019531 0.936781585
vt 0.520019531 0.973563194
vt 0.535644531 0.973563194
vt 0.535644531 0.936781585
vt 0.979980469 0.936781585
vt 0.979980469 0.973563194
vt 0.995605469 0.973563194
vt 0.995605469 0.936781585
vt 0.932128906 0.939080477
vt 0.932128906 0.975862086
vt 0.947753906 0.975862086
vt 0.947753906 0.939080477
vt 0.885253906 0.941379309
vt 0.885253906 0.978160918
vt 0.900878906 0.978160918
vt 0.900878906 0.941379309
vt 0.901855469 0.941379309
vt 0.901855469 0.978160918
vt 0.917480469 0.978160918
vt 0.917480469 0.941379309
vt 0.948730469 0.941379309
vt 0.948730469 0.978160918
vt 0.964355469 0.978160918
vt 0.964355469 0.941379309
vt 0.820800781 0.943678141
vt 0.820800781 0.98045975
vt 0.836425781 0.98045975
vt 0.836425781 0.943678141
vt 0.837402344 0.943678141
vt 0.837402344 0.98045975
vt 0.853027344 0.98045975
vt 0.853027344 0.943678141
vt 0.854003906 0.943678141
vt 0.854003906 0.98045975
vt 0.869628906 0.98045975
vt 0.869628906 0.943678141
vt 0.0327148438 0.962068975
vt 0.0327148438 0.998850584
vt 0.0483398438 0.998850584
vt 0.0483398438 0.962068975
vt 0.113769531 0.962068975
vt 0.113769531 0.998850584
vt 0.129394531 0.998850584
vt 0.129394531 0.962068975
vt 0.130371094 0.962068975
vt 0.130371094 0.998850584
vt 0.145996094 0.998850584
vt 0.145996094 0.962068975
vt 0.146972656 0.962068975
vt 0.146972656 0.998850584
vt 0.162597656 0.998850584
vt 0.162597656 0.962068975
vt 0.163574219 0.962068975
vt 0.163574219 0.998850584
vt 0.179199219 0.998850584
vt 0.179199219 0.962068975
vt 0.180175781 0.962068975
vt 0.180175781 0.998850584
vt 0.195800781 0.998850584
vt 0.195800781 0.962068975
vt 0.196777344 0.962068975
vt 0.196777344 0.998850584
vt 0.212402344 0.998850584
vt 0.212402344 0.962068975
vt 0.213378906 0.962068975
vt 0.213378906 0.998850584
vt 0.229003906 0.998850584
vt 0.229003906 0.962068975
vt 0.229980469 0.962068975
vt 0.229980469 0.998850584
vt 0.245605469 0.998850584
vt 0.245605469 0.962068975
vt 0.246582031 0.962068975
vt 0.246582031 0.998850584
vt 0.262207031 0.998850584
vt 0.262207031 0.962068975
vt 0.263183594 0.962068975
vt 0.263183594 0.998850584
vt 0.278808594 0.998850584
vt 0.278808594 0.962068975
g naximofu_4_rw-mesh_0
f 3/3/3 2/2/2 1/1/1
f 1/1/1 4/4/4 3/3/3
f 7/7/7 6/6/6 5/5/5
f 5/5/5 8/8/8 7/7/7
f 11/11/11 10/10/10 9/9/9
f 9/9/9 12/12/12 11/11/11
f 15/15/15 14/14/14 13/13/13
f 13/13/13 16/16/16 15/15/15
f 19/19/19 18/18/18 17/17/17
f 17/17/17 20/20/20 19/19/19
f 23/23/23 22/22/22 21/21/21
f 21/21/21 24/24/24 23/23/23
f 27/27/27 26/26/26 25/25/25
f 25/25/25 28/28/28 27/27/27
f 31/31/31 30/30/30 29/29/29
f 29/29/29 32/32/32 31/31/31
f 35/35/35 34/34/34 33/33/33
f 33/33/33 36/36/36 35/35/35
f 39/39/39 38/38/38 37/37/37
f 37/37/37 40/40/40 39/39/39
f 43/43/43 42/42/42 41/41/41
f 41/41/41 44/44/44 43/43/43
f 47/47/47 46/46/46 45/45/45
f 45/45/45 48/48/48 47/47/47
f 51/51/51 50/50/50 49/49/49
f 49/49/49 52/52/52 51/51/51
f 55/55/55 54/54/54 53/53/53
f 53/53/53 56/56/56 55/55/55
f 59/59/59 58/58/58 57/57/57
f 57/57/57 60/60/60 59/59/59
f 63/63/63 62/62/62 61/61/61
f 61/61/61 64/64/64 63/63/63
f 67/67/67 66/66/66 65/65/65
f 65/65/65 68/68/68 67/67/67
f 71/71/71 70/70/70 69/69/69
f 69/69/69 72/72/72 71/71/71
f 75/75/75 74/74/74 73/73/73
f 73/73/73 76/76/76 75/75/75
f 79/79/79 78/78/78 77/77/77
f 77/77/77 80/80/80 79/79/79
f 83/83/83 82/82/82 81/81/81
f 81/81/81 84/84/84 83/83/83
f 87/87/87 86/86/86 85/85/85
f 85/85/85 88/88/88 87/87/87
f 91/91/91 90/90/90 89/89/89
f 89/89/89 92/92/92 91/91/91
f 95/95/95 94/94/94 93/93/93
f 93/93/93 96/96/96 95/95/95
f 99/99/99 98/98/98 97/97/97
f 97/97/97 100/100/100 99/99/99
f 103/103/103 102/102/102 101/101/101
f 101/101/101 104/104/104 103/103/103
f 107/107/107 106/106/106 105/105/105
f 105/105/105 108/108/108 107/107/107
f 111/111/111 110/110/110 109/109/109
f 109/109/109 112/112/112 111/111/111
f 115/115/115 114/114/114 113/113/113
f 113/113/113 116/116/116 115/115/115
f 119/119/119 118/118/118 117/117/117
f 117/117/117 120/120/120 119/119/119
f 123/123/123 122/122/122 121/121/121
f 121/121/121 124/124/124 123/123/123
f 127/127/127 126/126/126 125/125/125
f 125/125/125 128/128/128 127/127/127
f 131/131/131 130/130/130 129/129/129
f 129/129/129 132/132/132 131/131/131
f 135/135/135 134/134/134 133/133/133
f 133/133/133 136/136/136 135/135/135
f 139/139/139 138/138/138 137/137/137
f 137/137/137 140/140/140 139/139/139
f 143/143/143 142/142/142 141/141/141
f 141/141/141 144/144/144 143/143/143
f 147/147/147 146/146/146 145/145/145
f 145/145/145 148/148/148 147/147/147
f 151/151/151 150/150/150 149/149/149
f 149/149/149 152/152/152 151/151/151
f 155/155/155 154/154/154 153/153/153
f 153/153/153 156/156/156 155/155/155
f 159/159/159 158/158/158 157/157/157
f 157/157/157 160/160/160 159/159/159
f 163/163/163 162/162/162 161/161/161
f 161/161/161 164/164/164 163/163/163
f 167/167/167 166/166/166 165/165/165
f 165/165/165 168/168/168 167/167/167
f 171/171/171 170/170/170 169/169/169
f 169/169/169 172/172/172 171/171/171
f 175/175/175 174/174/174 173/173/173
f 173/173/173 176/176/176 175/175/175
f 179/179/179 178/178/178 177/177/177
f 177/177/177 180/180/180 179/179/179
f 183/183/183 182/182/182 181/181/181
f 181/181/181 184/184/184 183/183/183
f 187/187/187 186/186/186 185/185/185
f 185/185/185 188/188/188 187/187/187
f 191/191/191 190/190/190 189/189/189
f 189/189/189 192/192/192 191/191/191
f 195/195/195 194/194/194 193/193/193
f 193/193/193 196/196/196 195/195/195
f 199/199/199 198/198/198 197/197/197
f 197/197/197 200/200/200 199/199/199
f 203/203/203 202/202/202 201/201/201
f 201/201/201 204/204/204 203/203/203
f 207/207/207 206/206/206 205/205/205
f 205/205/205 208/208/208 207/207/207
f 211/211/211 210/210/210 209/209/209
f 209/209/209 212/212/212 211/211/211
f 215/215/215 214/214/214 213/213/213
f 213/213/213 216/216/216 215/215/215
f 219/219/219 218/218/218 217/217/217
f 217/217/217 220/220/220 219/219/219
f 223/223/223 222/222/222 221/221/221
f 221/221/221 224/224/224 223/223/223
f 227/227/227 226/226/226 225/225/225
f 225/225/225 228/228/228 227/227/227
f 231/231/231 230/230/230 229/229/229
f 229/229/229 232/232/232 231/231/231
f 235/235/235 234/234/234 233/233/233
f 233/233/233 236/236/236 235/235/235
f 239/239/239 238/238/238 237/237/237
f 237/237/237 240/240/240 239/239/239
f 243/243/243 242/242/242 241/241/241
f 241/241/241 244/244/244 243/243/243
f 247/247/247 246/246/246 245/245/245
f 245/245/245 248/248/248 247/247/247
f 251/251/251 250/250/250 249/249/249
f 249/249/249 252/252/252 251/251/251
f 255/255/255 254/254/254 253/253/253
f 253/253/253 256/256/256 255/255/255
f 259/259/259 258/258/258 257/257/257
f 257/257/257 260/260/260 259/259/259
f 263/263/263 262/262/262 261/261/261
f 261/261/261 264/264/264 263/263/263
f 267/267/267 266/266/266 265/265/265
f 265/265/265 268/268/268 267/267/267
f 271/271/271 270/270/270 269/269/269
f 269/269/269 272/272/272 271/271/271
f 275/275/275 274/274/274 273/273/273
f 273/273/273 276/276/276 275/275/275
f 279/279/279 278/278/278 277/277/277
f 277/277/277 280/280/280 279/279/279
f 283/283/283 282/282/282 281/281/281
f 281/281/281 284/284/284 283/283/283
f 287/287/287 286/286/286 285/285/285
f 285/285/285 288/288/288 287/287/287
f 291/291/291 290/290/290 289/289/289
f 289/289/289 292/292/292 291/291/291
f 295/295/295 294/294/294 293/293/293
f 293/293/293 296/296/296 295/295/295
f 299/299/299 298/298/298 297/297/297
f 297/297/297 300/300/300 299/299/299
f 303/303/303 302/302/302 301/301/301
f 301/301/301 304/304/304 303/303/303
f 307/307/307 306/306/306 305/305/305
f 305/305/305 308/308/308 307/307/307
f 311/311/311 310/310/310 309/309/309
f 309/309/309 312/312/312 311/311/311
f 315/315/315 314/314/314 313/313/313
f 313/313/313 316/316/316 315/315/315
f 319/319/319 318/318/318 317/317/317
f 317/317/317 320/320/320 319/319/319
f 323/323/323 322/322/322 321/321/321
f 321/321/321 324/324/324 323/323/323
f 327/327/327 326/326/326 325/325/325
f 325/325/325 328/328/328 327/327/327
f 331/331/331 330/330/330 329/329/329
f 329/329/329 332/332/332 331/331/331
f 335/335/335 334/334/334 333/333/333
f 333/333/333 336/336/336 335/335/335
f 339/339/339 338/338/338 337/337/337
f 337/337/337 340/340/340 339/339/339
f 343/343/343 342/342/342 341/341/341
f 341/341/341 344/344/344 343/343/343
f 347/347/347 346/346/346 345/345/345
f 345/345/345 348/348/348 347/347/347
f 351/351/351 350/350/350 349/349/349
f 349/349/349 352/352/352 351/351/351
f 355/355/355 354/354/354 353/353/353
f 353/353/353 356/356/356 355/355/355
f 359/359/359 358/358/358 357/357/357
f 357/357/357 360/360/360 359/359/359
f 363/363/363 362/362/362 361/361/361
f 361/361/361 364/364/364 363/363/363
f 367/367/367 366/366/366 365/365/365
f 365/365/365 368/368/368 367/367/367
f 371/371/371 370/370/370 369/369/369
f 369/369/369 372/372/372 371/371/371
f 375/375/375 374/374/374 373/373/373
f 373/373/373 376/376/376 375/375/375
f 379/379/379 378/378/378 377/377/377
f 377/377/377 380/380/380 379/379/379
f 383/383/383 382/382/382 381/381/381
f 381/381/381 384/384/384 383/383/383
f 387/387/387 386/386/386 385/385/385
f 385/385/385 388/388/388 387/387/387
f 391/391/391 390/390/390 389/389/389
f 389/389/389 392/392/392 391/391/391
f 395/395/395 394/394/394 393/393/393
f 393/393/393 396/396/396 395/395/395
f 399/399/399 398/398/398 397/397/397
f 397/397/397 400/400/400 399/399/399
f 403/403/403 402/402/402 401/401/401
f 401/401/401 404/404/404 403/403/403
f 407/407/407 406/406/406 405/405/405
f 405/405/405 408/408/408 407/407/407
f 411/411/411 410/410/410 409/409/409
f 409/409/409 412/412/412 411/411/411
f 415/415/415 414/414/414 413/413/413
f 413/413/413 416/416/416 415/415/415
f 419/419/419 418/418/418 417/417/417
f 417/417/417 420/420/420 419/419/419
f 423/423/423 422/422/422 421/421/421
f 421/421/421 424/424/424 423/423/423
f 427/427/427 426/426/426 425/425/425
f 425/425/425 428/428/428 427/427/427
f 431/431/431 430/430/430 429/429/429
f 429/429/429 432/432/432 431/431/431
f 435/435/435 434/434/434 433/433/433
f 433/433/433 436/436/436 435/435/435
f 439/439/439 438/438/438 437/437/437
f 437/437/437 440/440/440 439/439/439
f 443/443/443 442/442/442 441/441/441
f 441/441/441 444/444/444 443/443/443
f 447/447/447 446/446/446 445/445/445
f 445/445/445 448/448/448 447/447/447
f 451/451/451 450/450/450 449/449/449
f 449/449/449 452/452/452 451/451/451
f 455/455/455 454/454/454 453/453/453
f 453/453/453 456/456/456 455/455/455
f 459/459/459 458/458/458 457/457/457
f 457/457/457 460/460/460 459/459/459
f 463/463/463 462/462/462 461/461/461
f 461/461/461 464/464/464 463/463/463
f 467/467/467 466/466/466 465/465/465
f 465/465/465 468/468/468 467/467/467
f 471/471/471 470/470/470 469/469/469
f 469/469/469 472/472/472 471/471/471
f 475/475/475 474/474/474 473/473/473
f 473/473/473 476/476/476 475/475/475
f 479/479/479 478/478/478 477/477/477
f 477/477/477 480/480/480 479/479/479
f 483/483/483 482/482/482 481/481/481
f 481/481/481 484/484/484 483/483/483
f 487/487/487 486/486/486 485/485/485
f 485/485/485 488/488/488 487/487/487
f 491/491/491 490/490/490 489/489/489
f 489/489/489 492/492/492 491/491/491
f 495/495/495 494/494/494 493/493/493
f 493/493/493 496/496/496 495/495/495
f 499/499/499 498/498/498 497/497/497
f 497/497/497 500/500/500 499/499/499
f 503/503/503 502/502/502 501/501/501
f 501/501/501 504/504/504 503/503/503
f 507/507/507 506/506/506 505/505/505
f 505/505/505 508/508/508 507/507/507
f 511/511/511 510/510/510 509/509/509
f 509/509/509 512/512/512 511/511/511
f 515/515/515 514/514/514 513/513/513
f 513/513/513 516/516/516 515/515/515
f 519/519/519 518/518/518 517/517/517
f 517/517/517 520/520/520 519/519/519
f 523/523/523 522/522/522 521/521/521
f 521/521/521 524/524/524 523/523/523
f 527/527/527 526/526/526 525/525/525
f 525/525/525 528/528/528 527/527/527
f 531/531/531 530/530/530 529/529/529
f 529/529/529 532/532/532 531/531/531
f 535/535/535 534/534/534 533/533/533
f 533/533/533 536/536/536 535/535/535
f 539/539/539 538/538/538 537/537/537
f 537/537/537 540/540/540 539/539/539
f 543/543/543 542/542/542 541/541/541
f 541/541/541 544/544/544 543/543/543
f 547/547/547 546/546/546 545/545/545
f 545/545/545 548/548/548 547/547/547
f 551/551/551 550/550/550 549/549/549
f 549/549/549 552/552/552 551/551/551
f 555/555/555 554/554/554 553/553/553
f 553/553/553 556/556/556 555/555/555
f 559/559/559 558/558/558 557/557/557
f 557/557/557 560/560/560 559/559/559
f 563/563/563 562/562/562 561/561/561
f 561/561/561 564/564/564 563/563/563
f 567/567/567 566/566/566 565/565/565
f 565/565/565 568/568/568 567/567/567
f 571/571/571 570/570/570 569/569/569
f 569/569/569 572/572/572 571/571/571
f 575/575/575 574/574/574 573/573/573
f 573/573/573 576/576/576 575/575/575
f 579/579/579 578/578/578 577/577/577
f 577/577/577 580/580/580 579/579/579
