g qiannai_DOA_bj-mesh
v -1440 1429 0
v -1440 1589 0
v -1568 1589 0
v -1568 1429 0
v -384 213 0
v -384 373 0
v -480 373 0
v -480 213 0
v -1664 533 0
v -1664 629 0
v -1760 629 0
v -1760 533 0
v -128 1109 0
v -128 1237 0
v -192 1237 0
v -192 1109 0
v -224 1237 0
v -224 1301 0
v -352 1301 0
v -352 1237 0
v -928 885 0
v -928 949 0
v -1024 949 0
v -1024 885 0
v -192 1173 0
v -192 1237 0
v -256 1237 0
v -256 1173 0
v -352 341 0
v -352 437 0
v -384 437 0
v -384 341 0
v -1024 917 0
v -1024 949 0
v -1088 949 0
v -1088 917 0
v -160 1237 0
v -160 1269 0
v -224 1269 0
v -224 1237 0
v -1408 1493 0
v -1408 1557 0
v -1440 1557 0
v -1440 1493 0
v -1056 885 0
v -1056 917 0
v -1120 917 0
v -1120 885 0
v -1600 501 0
v -1600 565 0
v -1632 565 0
v -1632 501 0
v -1792 597 0
v -1792 661 0
v -1824 661 0
v -1824 597 0
v -1696 629 0
v -1696 661 0
v -1760 661 0
v -1760 629 0
v -1568 1429 0
v -1568 1493 0
v -1600 1493 0
v -1600 1429 0
v -1760 565 0
v -1760 629 0
v -1792 629 0
v -1792 565 0
v -352 277 0
v -352 341 0
v -384 341 0
v -384 277 0
v -1760 629 0
v -1760 693 0
v -1792 693 0
v -1792 629 0
v -480 277 0
v -480 341 0
v -512 341 0
v -512 277 0
v -960 853 0
v -960 885 0
v -992 885 0
v -992 853 0
v -512 245 0
v -512 277 0
v -544 277 0
v -544 245 0
v -1632 533 0
v -1632 565 0
v -1664 565 0
v -1664 533 0
v -256 1205 0
v -256 1237 0
v -288 1237 0
v -288 1205 0
v -1568 1397 0
v -1568 1429 0
v -1600 1429 0
v -1600 1397 0
v -480 245 0
v -480 277 0
v -512 277 0
v -512 245 0
v -1536 1397 0
v -1536 1429 0
v -1568 1429 0
v -1568 1397 0
vt 0.001953125 0.00337839127
vt 0.001953125 0.543918908
vt 0.251953125 0.543918908
vt 0.251953125 0.00337839127
vt 0.255859375 0.00337839127
vt 0.255859375 0.543918908
vt 0.443359375 0.543918908
vt 0.443359375 0.00337839127
vt 0.447265625 0.00337839127
vt 0.447265625 0.327702701
vt 0.634765625 0.327702701
vt 0.634765625 0.00337839127
vt 0.638671875 0.00337839127
vt 0.638671875 0.435810804
vt 0.763671875 0.435810804
vt 0.763671875 0.00337839127
vt 0.638671875 0.442567587
vt 0.638671875 0.658783793
vt 0.888671875 0.658783793
vt 0.888671875 0.442567587
vt 0.447265625 0.334459484
vt 0.447265625 0.55067569
vt 0.634765625 0.55067569
vt 0.634765625 0.334459484
vt 0.001953125 0.55067569
vt 0.001953125 0.766891897
vt 0.126953125 0.766891897
vt 0.126953125 0.55067569
vt 0.892578125 0.00337839127
vt 0.892578125 0.327702701
vt 0.955078125 0.327702701
vt 0.955078125 0.00337839127
vt 0.130859375 0.55067569
vt 0.130859375 0.658783793
vt 0.255859375 0.658783793
vt 0.255859375 0.55067569
vt 0.259765625 0.55067569
vt 0.259765625 0.658783793
vt 0.384765625 0.658783793
vt 0.384765625 0.55067569
vt 0.892578125 0.334459484
vt 0.892578125 0.55067569
vt 0.955078125 0.55067569
vt 0.955078125 0.334459484
vt 0.447265625 0.557432413
vt 0.447265625 0.665540576
vt 0.572265625 0.665540576
vt 0.572265625 0.557432413
vt 0.892578125 0.557432413
vt 0.892578125 0.77364862
vt 0.955078125 0.77364862
vt 0.955078125 0.557432413
vt 0.130859375 0.665540576
vt 0.130859375 0.881756783
vt 0.193359375 0.881756783
vt 0.193359375 0.665540576
vt 0.197265625 0.665540576
vt 0.197265625 0.77364862
vt 0.322265625 0.77364862
vt 0.322265625 0.665540576
vt 0.326171875 0.665540576
vt 0.326171875 0.881756783
vt 0.388671875 0.881756783
vt 0.388671875 0.665540576
vt 0.638671875 0.665540576
vt 0.638671875 0.881756783
vt 0.701171875 0.881756783
vt 0.701171875 0.665540576
vt 0.705078125 0.665540576
vt 0.705078125 0.881756783
vt 0.767578125 0.881756783
vt 0.767578125 0.665540576
vt 0.771484375 0.665540576
vt 0.771484375 0.881756783
vt 0.833984375 0.881756783
vt 0.833984375 0.665540576
vt 0.447265625 0.672297299
vt 0.447265625 0.888513505
vt 0.509765625 0.888513505
vt 0.509765625 0.672297299
vt 0.513671875 0.672297299
vt 0.513671875 0.780405402
vt 0.576171875 0.780405402
vt 0.576171875 0.672297299
vt 0.001953125 0.77364862
vt 0.001953125 0.881756783
vt 0.064453125 0.881756783
vt 0.064453125 0.77364862
vt 0.197265625 0.780405402
vt 0.197265625 0.888513505
vt 0.259765625 0.888513505
vt 0.259765625 0.780405402
vt 0.892578125 0.780405402
vt 0.892578125 0.888513505
vt 0.955078125 0.888513505
vt 0.955078125 0.780405402
vt 0.513671875 0.787162185
vt 0.513671875 0.895270288
vt 0.576171875 0.895270288
vt 0.576171875 0.787162185
vt 0.001953125 0.888513505
vt 0.001953125 0.996621609
vt 0.064453125 0.996621609
vt 0.064453125 0.888513505
vt 0.130859375 0.888513505
vt 0.130859375 0.996621609
vt 0.193359375 0.996621609
vt 0.193359375 0.888513505
g qiannai_DOA_bj-mesh_0
f 3/3/3 2/2/2 1/1/1
f 1/1/1 4/4/4 3/3/3
f 7/7/7 6/6/6 5/5/5
f 5/5/5 8/8/8 7/7/7
f 11/11/11 10/10/10 9/9/9
f 9/9/9 12/12/12 11/11/11
f 15/15/15 14/14/14 13/13/13
f 13/13/13 16/16/16 15/15/15
f 19/19/19 18/18/18 17/17/17
f 17/17/17 20/20/20 19/19/19
f 23/23/23 22/22/22 21/21/21
f 21/21/21 24/24/24 23/23/23
f 27/27/27 26/26/26 25/25/25
f 25/25/25 28/28/28 27/27/27
f 31/31/31 30/30/30 29/29/29
f 29/29/29 32/32/32 31/31/31
f 35/35/35 34/34/34 33/33/33
f 33/33/33 36/36/36 35/35/35
f 39/39/39 38/38/38 37/37/37
f 37/37/37 40/40/40 39/39/39
f 43/43/43 42/42/42 41/41/41
f 41/41/41 44/44/44 43/43/43
f 47/47/47 46/46/46 45/45/45
f 45/45/45 48/48/48 47/47/47
f 51/51/51 50/50/50 49/49/49
f 49/49/49 52/52/52 51/51/51
f 55/55/55 54/54/54 53/53/53
f 53/53/53 56/56/56 55/55/55
f 59/59/59 58/58/58 57/57/57
f 57/57/57 60/60/60 59/59/59
f 63/63/63 62/62/62 61/61/61
f 61/61/61 64/64/64 63/63/63
f 67/67/67 66/66/66 65/65/65
f 65/65/65 68/68/68 67/67/67
f 71/71/71 70/70/70 69/69/69
f 69/69/69 72/72/72 71/71/71
f 75/75/75 74/74/74 73/73/73
f 73/73/73 76/76/76 75/75/75
f 79/79/79 78/78/78 77/77/77
f 77/77/77 80/80/80 79/79/79
f 83/83/83 82/82/82 81/81/81
f 81/81/81 84/84/84 83/83/83
f 87/87/87 86/86/86 85/85/85
f 85/85/85 88/88/88 87/87/87
f 91/91/91 90/90/90 89/89/89
f 89/89/89 92/92/92 91/91/91
f 95/95/95 94/94/94 93/93/93
f 93/93/93 96/96/96 95/95/95
f 99/99/99 98/98/98 97/97/97
f 97/97/97 100/100/100 99/99/99
f 103/103/103 102/102/102 101/101/101
f 101/101/101 104/104/104 103/103/103
f 107/107/107 106/106/106 105/105/105
f 105/105/105 108/108/108 107/107/107
