g yan_2-mesh
v -992 298 0
v -992 1354 0
v -1696 1354 0
v -1696 298 0
v -288 298 0
v -288 1354 0
v -992 1354 0
v -992 298 0
v -1696 330 0
v -1696 618 0
v -1920 618 0
v -1920 330 0
v -1696 618 0
v -1696 906 0
v -1920 906 0
v -1920 618 0
v -608 1354 0
v -608 1514 0
v -992 1514 0
v -992 1354 0
v -160 906 0
v -160 1386 0
v -288 1386 0
v -288 906 0
v -160 458 0
v -160 906 0
v -288 906 0
v -288 458 0
v -992 1354 0
v -992 1514 0
v -1344 1514 0
v -1344 1354 0
v -1056 202 0
v -1056 298 0
v -1600 298 0
v -1600 202 0
v -512 202 0
v -512 298 0
v -1056 298 0
v -1056 202 0
v -32 842 0
v -32 1034 0
v -160 1034 0
v -160 842 0
v -832 106 0
v -832 202 0
v -1056 202 0
v -1056 106 0
v -608 106 0
v -608 202 0
v -832 202 0
v -832 106 0
v -32 682 0
v -32 842 0
v -160 842 0
v -160 682 0
v -640 10 0
v -640 106 0
v -832 106 0
v -832 10 0
v -1920 554 0
v -1920 746 0
v -1984 746 0
v -1984 554 0
v -1920 362 0
v -1920 554 0
v -1984 554 0
v -1984 362 0
v -1248 106 0
v -1248 202 0
v -1376 202 0
v -1376 106 0
v -1056 1514 0
v -1056 1578 0
v -1248 1578 0
v -1248 1514 0
v -864 1514 0
v -864 1578 0
v -1056 1578 0
v -1056 1514 0
v -1696 906 0
v -1696 1034 0
v -1792 1034 0
v -1792 906 0
v -1696 1034 0
v -1696 1162 0
v -1792 1162 0
v -1792 1034 0
v -288 1354 0
v -288 1418 0
v -448 1418 0
v -448 1354 0
v -448 1354 0
v -448 1418 0
v -608 1418 0
v -608 1354 0
v -1984 426 0
v -1984 554 0
v -2047 554 0
v -2047 426 0
v -96 554 0
v -96 682 0
v -160 682 0
v -160 554 0
v -288 234 0
v -288 298 0
v -384 298 0
v -384 234 0
v -224 362 0
v -224 458 0
v -288 458 0
v -288 362 0
v -1376 138 0
v -1376 202 0
v -1472 202 0
v -1472 138 0
v -1600 234 0
v -1600 298 0
v -1696 298 0
v -1696 234 0
v -1696 1162 0
v -1696 1258 0
v -1760 1258 0
v -1760 1162 0
v -1344 1354 0
v -1344 1418 0
v -1440 1418 0
v -1440 1354 0
v -512 1418 0
v -512 1482 0
v -608 1482 0
v -608 1418 0
v -1024 1578 0
v -1024 1610 0
v -1152 1610 0
v -1152 1578 0
v -1824 906 0
v -1824 970 0
v -1888 970 0
v -1888 906 0
v -832 42 0
v -832 106 0
v -896 106 0
v -896 42 0
v -1056 138 0
v -1056 202 0
v -1120 202 0
v -1120 138 0
v -1792 1002 0
v -1792 1098 0
v -1824 1098 0
v -1824 1002 0
v -1696 298 0
v -1696 330 0
v -1792 330 0
v -1792 298 0
v -1792 906 0
v -1792 1002 0
v -1824 1002 0
v -1824 906 0
v -0 778 0
v -0 874 0
v -32 874 0
v -32 778 0
v -0 874 0
v -0 970 0
v -32 970 0
v -32 874 0
v -1152 1578 0
v -1152 1610 0
v -1248 1610 0
v -1248 1578 0
v -672 0 0
v -672 10 0
v -736 10 0
v -736 0 0
v -64 618 0
v -64 682 0
v -96 682 0
v -96 618 0
v -1920 746 0
v -1920 810 0
v -1952 810 0
v -1952 746 0
v -1696 1258 0
v -1696 1322 0
v -1728 1322 0
v -1728 1258 0
v -1984 554 0
v -1984 618 0
v -2016 618 0
v -2016 554 0
v -384 266 0
v -384 298 0
v -448 298 0
v -448 266 0
v -1472 170 0
v -1472 202 0
v -1536 202 0
v -1536 170 0
v -896 74 0
v -896 106 0
v -960 106 0
v -960 74 0
v -1120 170 0
v -1120 202 0
v -1184 202 0
v -1184 170 0
v -1696 266 0
v -1696 298 0
v -1760 298 0
v -1760 266 0
v -544 170 0
v -544 202 0
v -608 202 0
v -608 170 0
v -128 1226 0
v -128 1290 0
v -160 1290 0
v -160 1226 0
v -416 1418 0
v -416 1450 0
v -480 1450 0
v -480 1418 0
v -128 1290 0
v -128 1354 0
v -160 1354 0
v -160 1290 0
v -736 1514 0
v -736 1546 0
v -800 1546 0
v -800 1514 0
v -800 1514 0
v -800 1546 0
v -864 1546 0
v -864 1514 0
v -64 1034 0
v -64 1066 0
v -128 1066 0
v -128 1034 0
v -1568 1354 0
v -1568 1386 0
v -1632 1386 0
v -1632 1354 0
v -1792 298 0
v -1792 330 0
v -1856 330 0
v -1856 298 0
v -192 426 0
v -192 458 0
v -224 458 0
v -224 426 0
v -1984 394 0
v -1984 426 0
v -2016 426 0
v -2016 394 0
v -1824 970 0
v -1824 1002 0
v -1856 1002 0
v -1856 970 0
v -128 522 0
v -128 554 0
v -160 554 0
v -160 522 0
v -576 138 0
v -576 170 0
v -608 170 0
v -608 138 0
v -1216 170 0
v -1216 202 0
v -1248 202 0
v -1248 170 0
v -256 330 0
v -256 362 0
v -288 362 0
v -288 330 0
v -480 266 0
v -480 298 0
v -512 298 0
v -512 266 0
v -480 1418 0
v -480 1450 0
v -512 1450 0
v -512 1418 0
v -128 1034 0
v -128 1066 0
v -160 1066 0
v -160 1034 0
v -736 0 0
v -736 10 0
v -768 10 0
v -768 0 0
v -1632 1354 0
v -1632 1386 0
v -1664 1386 0
v -1664 1354 0
v -256 1386 0
v -256 1418 0
v -288 1418 0
v -288 1386 0
v -128 1066 0
v -128 1098 0
v -160 1098 0
v -160 1066 0
v -1248 1514 0
v -1248 1546 0
v -1280 1546 0
v -1280 1514 0
v -1344 1418 0
v -1344 1450 0
v -1376 1450 0
v -1376 1418 0
vt 0.00048828125 0.000757575035
vt 0.00048828125 0.800757587
vt 0.344238281 0.800757587
vt 0.344238281 0.000757575035
vt 0.345214844 0.000757575035
vt 0.345214844 0.800757587
vt 0.688964844 0.800757587
vt 0.688964844 0.000757575035
vt 0.689941406 0.000757575035
vt 0.689941406 0.218939424
vt 0.799316406 0.218939424
vt 0.799316406 0.000757575035
vt 0.800292969 0.000757575035
vt 0.800292969 0.218939424
vt 0.909667969 0.218939424
vt 0.909667969 0.000757575035
vt 0.689941406 0.220454574
vt 0.689941406 0.341666639
vt 0.877441406 0.341666639
vt 0.877441406 0.220454574
vt 0.910644531 0.000757575035
vt 0.910644531 0.36439395
vt 0.973144531 0.36439395
vt 0.973144531 0.000757575035
vt 0.689941406 0.343181789
vt 0.689941406 0.682575762
vt 0.752441406 0.682575762
vt 0.752441406 0.343181789
vt 0.689941406 0.684090912
vt 0.689941406 0.805303037
vt 0.861816406 0.805303037
vt 0.861816406 0.684090912
vt 0.00048828125 0.802272737
vt 0.00048828125 0.875
vt 0.266113281 0.875
vt 0.266113281 0.802272737
vt 0.267089844 0.802272737
vt 0.267089844 0.875
vt 0.532714844 0.875
vt 0.532714844 0.802272737
vt 0.910644531 0.3659091
vt 0.910644531 0.511363626
vt 0.973144531 0.511363626
vt 0.973144531 0.3659091
vt 0.533691406 0.802272737
vt 0.533691406 0.875
vt 0.643066406 0.875
vt 0.643066406 0.802272737
vt 0.689941406 0.806818187
vt 0.689941406 0.87954545
vt 0.799316406 0.87954545
vt 0.799316406 0.806818187
vt 0.910644531 0.512878776
vt 0.910644531 0.6340909
vt 0.973144531 0.6340909
vt 0.973144531 0.512878776
vt 0.800292969 0.806818187
vt 0.800292969 0.87954545
vt 0.894042969 0.87954545
vt 0.894042969 0.806818187
vt 0.910644531 0.63560605
vt 0.910644531 0.781060576
vt 0.941894531 0.781060576
vt 0.941894531 0.63560605
vt 0.942871094 0.63560605
vt 0.942871094 0.781060576
vt 0.974121094 0.781060576
vt 0.974121094 0.63560605
vt 0.910644531 0.782575727
vt 0.910644531 0.855303049
vt 0.973144531 0.855303049
vt 0.973144531 0.782575727
vt 0.00048828125 0.87651515
vt 0.00048828125 0.925000012
vt 0.0942382812 0.925000012
vt 0.0942382812 0.87651515
vt 0.0952148438 0.87651515
vt 0.0952148438 0.925000012
vt 0.188964844 0.925000012
vt 0.188964844 0.87651515
vt 0.910644531 0.856818199
vt 0.910644531 0.953787863
vt 0.957519531 0.953787863
vt 0.957519531 0.856818199
vt 0.189941406 0.87651515
vt 0.189941406 0.973484874
vt 0.236816406 0.973484874
vt 0.236816406 0.87651515
vt 0.237792969 0.87651515
vt 0.237792969 0.925000012
vt 0.315917969 0.925000012
vt 0.315917969 0.87651515
vt 0.316894531 0.87651515
vt 0.316894531 0.925000012
vt 0.395019531 0.925000012
vt 0.395019531 0.87651515
vt 0.644042969 0.802272737
vt 0.644042969 0.899242401
vt 0.675292969 0.899242401
vt 0.675292969 0.802272737
vt 0.958496094 0.856818199
vt 0.958496094 0.953787863
vt 0.989746094 0.953787863
vt 0.989746094 0.856818199
vt 0.395996094 0.87651515
vt 0.395996094 0.925000012
vt 0.442871094 0.925000012
vt 0.442871094 0.87651515
vt 0.443847656 0.87651515
vt 0.443847656 0.949242413
vt 0.475097656 0.949242413
vt 0.475097656 0.87651515
vt 0.476074219 0.87651515
vt 0.476074219 0.925000012
vt 0.522949219 0.925000012
vt 0.522949219 0.87651515
vt 0.523925781 0.87651515
vt 0.523925781 0.925000012
vt 0.570800781 0.925000012
vt 0.570800781 0.87651515
vt 0.571777344 0.87651515
vt 0.571777344 0.949242413
vt 0.603027344 0.949242413
vt 0.603027344 0.87651515
vt 0.689941406 0.8810606
vt 0.689941406 0.929545462
vt 0.736816406 0.929545462
vt 0.736816406 0.8810606
vt 0.737792969 0.8810606
vt 0.737792969 0.929545462
vt 0.784667969 0.929545462
vt 0.784667969 0.8810606
vt 0.785644531 0.8810606
vt 0.785644531 0.905303001
vt 0.848144531 0.905303001
vt 0.848144531 0.8810606
vt 0.604003906 0.87651515
vt 0.604003906 0.925000012
vt 0.635253906 0.925000012
vt 0.635253906 0.87651515
vt 0.849121094 0.8810606
vt 0.849121094 0.929545462
vt 0.880371094 0.929545462
vt 0.880371094 0.8810606
vt 0.644042969 0.900757551
vt 0.644042969 0.949242413
vt 0.675292969 0.949242413
vt 0.675292969 0.900757551
vt 0.881347656 0.8810606
vt 0.881347656 0.953787863
vt 0.896972656 0.953787863
vt 0.896972656 0.8810606
vt 0.785644531 0.906818151
vt 0.785644531 0.931060612
vt 0.832519531 0.931060612
vt 0.832519531 0.906818151
vt 0.00048828125 0.926515162
vt 0.00048828125 0.999242425
vt 0.0161132812 0.999242425
vt 0.0161132812 0.926515162
vt 0.0170898438 0.926515162
vt 0.0170898438 0.999242425
vt 0.0327148438 0.999242425
vt 0.0327148438 0.926515162
vt 0.0336914062 0.926515162
vt 0.0336914062 0.999242425
vt 0.0493164062 0.999242425
vt 0.0493164062 0.926515162
vt 0.0502929688 0.926515162
vt 0.0502929688 0.950757563
vt 0.0971679688 0.950757563
vt 0.0971679688 0.926515162
vt 0.0981445312 0.926515162
vt 0.0981445312 0.934848487
vt 0.129394531 0.934848487
vt 0.129394531 0.926515162
vt 0.130371094 0.926515162
vt 0.130371094 0.975000024
vt 0.145996094 0.975000024
vt 0.145996094 0.926515162
vt 0.146972656 0.926515162
vt 0.146972656 0.975000024
vt 0.162597656 0.975000024
vt 0.162597656 0.926515162
vt 0.163574219 0.926515162
vt 0.163574219 0.975000024
vt 0.179199219 0.975000024
vt 0.179199219 0.926515162
vt 0.237792969 0.926515162
vt 0.237792969 0.975000024
vt 0.253417969 0.975000024
vt 0.253417969 0.926515162
vt 0.254394531 0.926515162
vt 0.254394531 0.950757563
vt 0.285644531 0.950757563
vt 0.285644531 0.926515162
vt 0.286621094 0.926515162
vt 0.286621094 0.950757563
vt 0.317871094 0.950757563
vt 0.317871094 0.926515162
vt 0.318847656 0.926515162
vt 0.318847656 0.950757563
vt 0.350097656 0.950757563
vt 0.350097656 0.926515162
vt 0.351074219 0.926515162
vt 0.351074219 0.950757563
vt 0.382324219 0.950757563
vt 0.382324219 0.926515162
vt 0.383300781 0.926515162
vt 0.383300781 0.950757563
vt 0.414550781 0.950757563
vt 0.414550781 0.926515162
vt 0.476074219 0.926515162
vt 0.476074219 0.950757563
vt 0.507324219 0.950757563
vt 0.507324219 0.926515162
vt 0.415527344 0.926515162
vt 0.415527344 0.975000024
vt 0.431152344 0.975000024
vt 0.431152344 0.926515162
vt 0.508300781 0.926515162
vt 0.508300781 0.950757563
vt 0.539550781 0.950757563
vt 0.539550781 0.926515162
vt 0.540527344 0.926515162
vt 0.540527344 0.975000024
vt 0.556152344 0.975000024
vt 0.556152344 0.926515162
vt 0.604003906 0.926515162
vt 0.604003906 0.950757563
vt 0.635253906 0.950757563
vt 0.635253906 0.926515162
vt 0.689941406 0.931060612
vt 0.689941406 0.955303013
vt 0.721191406 0.955303013
vt 0.721191406 0.931060612
vt 0.722167969 0.931060612
vt 0.722167969 0.955303013
vt 0.753417969 0.955303013
vt 0.753417969 0.931060612
vt 0.849121094 0.931060612
vt 0.849121094 0.955303013
vt 0.880371094 0.955303013
vt 0.880371094 0.931060612
vt 0.785644531 0.932575762
vt 0.785644531 0.956818163
vt 0.816894531 0.956818163
vt 0.816894531 0.932575762
vt 0.754394531 0.931060612
vt 0.754394531 0.955303013
vt 0.770019531 0.955303013
vt 0.770019531 0.931060612
vt 0.817871094 0.932575762
vt 0.817871094 0.956818163
vt 0.833496094 0.956818163
vt 0.833496094 0.932575762
vt 0.0981445312 0.936363637
vt 0.0981445312 0.960606039
vt 0.113769531 0.960606039
vt 0.113769531 0.936363637
vt 0.443847656 0.950757563
vt 0.443847656 0.975000024
vt 0.459472656 0.975000024
vt 0.459472656 0.950757563
vt 0.571777344 0.950757563
vt 0.571777344 0.975000024
vt 0.587402344 0.975000024
vt 0.587402344 0.950757563
vt 0.644042969 0.950757563
vt 0.644042969 0.975000024
vt 0.659667969 0.975000024
vt 0.659667969 0.950757563
vt 0.660644531 0.950757563
vt 0.660644531 0.975000024
vt 0.676269531 0.975000024
vt 0.676269531 0.950757563
vt 0.0502929688 0.952272713
vt 0.0502929688 0.976515174
vt 0.0659179688 0.976515174
vt 0.0659179688 0.952272713
vt 0.0668945312 0.952272713
vt 0.0668945312 0.976515174
vt 0.0825195312 0.976515174
vt 0.0825195312 0.952272713
vt 0.254394531 0.952272713
vt 0.254394531 0.976515174
vt 0.270019531 0.976515174
vt 0.270019531 0.952272713
vt 0.270996094 0.952272713
vt 0.270996094 0.960606039
vt 0.286621094 0.960606039
vt 0.286621094 0.952272713
vt 0.287597656 0.952272713
vt 0.287597656 0.976515174
vt 0.303222656 0.976515174
vt 0.303222656 0.952272713
vt 0.304199219 0.952272713
vt 0.304199219 0.976515174
vt 0.319824219 0.976515174
vt 0.319824219 0.952272713
vt 0.320800781 0.952272713
vt 0.320800781 0.976515174
vt 0.336425781 0.976515174
vt 0.336425781 0.952272713
vt 0.337402344 0.952272713
vt 0.337402344 0.976515174
vt 0.353027344 0.976515174
vt 0.353027344 0.952272713
vt 0.354003906 0.952272713
vt 0.354003906 0.976515174
vt 0.369628906 0.976515174
vt 0.369628906 0.952272713
g yan_2-mesh_0
f 3/3/3 2/2/2 1/1/1
f 1/1/1 4/4/4 3/3/3
f 7/7/7 6/6/6 5/5/5
f 5/5/5 8/8/8 7/7/7
f 11/11/11 10/10/10 9/9/9
f 9/9/9 12/12/12 11/11/11
f 15/15/15 14/14/14 13/13/13
f 13/13/13 16/16/16 15/15/15
f 19/19/19 18/18/18 17/17/17
f 17/17/17 20/20/20 19/19/19
f 23/23/23 22/22/22 21/21/21
f 21/21/21 24/24/24 23/23/23
f 27/27/27 26/26/26 25/25/25
f 25/25/25 28/28/28 27/27/27
f 31/31/31 30/30/30 29/29/29
f 29/29/29 32/32/32 31/31/31
f 35/35/35 34/34/34 33/33/33
f 33/33/33 36/36/36 35/35/35
f 39/39/39 38/38/38 37/37/37
f 37/37/37 40/40/40 39/39/39
f 43/43/43 42/42/42 41/41/41
f 41/41/41 44/44/44 43/43/43
f 47/47/47 46/46/46 45/45/45
f 45/45/45 48/48/48 47/47/47
f 51/51/51 50/50/50 49/49/49
f 49/49/49 52/52/52 51/51/51
f 55/55/55 54/54/54 53/53/53
f 53/53/53 56/56/56 55/55/55
f 59/59/59 58/58/58 57/57/57
f 57/57/57 60/60/60 59/59/59
f 63/63/63 62/62/62 61/61/61
f 61/61/61 64/64/64 63/63/63
f 67/67/67 66/66/66 65/65/65
f 65/65/65 68/68/68 67/67/67
f 71/71/71 70/70/70 69/69/69
f 69/69/69 72/72/72 71/71/71
f 75/75/75 74/74/74 73/73/73
f 73/73/73 76/76/76 75/75/75
f 79/79/79 78/78/78 77/77/77
f 77/77/77 80/80/80 79/79/79
f 83/83/83 82/82/82 81/81/81
f 81/81/81 84/84/84 83/83/83
f 87/87/87 86/86/86 85/85/85
f 85/85/85 88/88/88 87/87/87
f 91/91/91 90/90/90 89/89/89
f 89/89/89 92/92/92 91/91/91
f 95/95/95 94/94/94 93/93/93
f 93/93/93 96/96/96 95/95/95
f 99/99/99 98/98/98 97/97/97
f 97/97/97 100/100/100 99/99/99
f 103/103/103 102/102/102 101/101/101
f 101/101/101 104/104/104 103/103/103
f 107/107/107 106/106/106 105/105/105
f 105/105/105 108/108/108 107/107/107
f 111/111/111 110/110/110 109/109/109
f 109/109/109 112/112/112 111/111/111
f 115/115/115 114/114/114 113/113/113
f 113/113/113 116/116/116 115/115/115
f 119/119/119 118/118/118 117/117/117
f 117/117/117 120/120/120 119/119/119
f 123/123/123 122/122/122 121/121/121
f 121/121/121 124/124/124 123/123/123
f 127/127/127 126/126/126 125/125/125
f 125/125/125 128/128/128 127/127/127
f 131/131/131 130/130/130 129/129/129
f 129/129/129 132/132/132 131/131/131
f 135/135/135 134/134/134 133/133/133
f 133/133/133 136/136/136 135/135/135
f 139/139/139 138/138/138 137/137/137
f 137/137/137 140/140/140 139/139/139
f 143/143/143 142/142/142 141/141/141
f 141/141/141 144/144/144 143/143/143
f 147/147/147 146/146/146 145/145/145
f 145/145/145 148/148/148 147/147/147
f 151/151/151 150/150/150 149/149/149
f 149/149/149 152/152/152 151/151/151
f 155/155/155 154/154/154 153/153/153
f 153/153/153 156/156/156 155/155/155
f 159/159/159 158/158/158 157/157/157
f 157/157/157 160/160/160 159/159/159
f 163/163/163 162/162/162 161/161/161
f 161/161/161 164/164/164 163/163/163
f 167/167/167 166/166/166 165/165/165
f 165/165/165 168/168/168 167/167/167
f 171/171/171 170/170/170 169/169/169
f 169/169/169 172/172/172 171/171/171
f 175/175/175 174/174/174 173/173/173
f 173/173/173 176/176/176 175/175/175
f 179/179/179 178/178/178 177/177/177
f 177/177/177 180/180/180 179/179/179
f 183/183/183 182/182/182 181/181/181
f 181/181/181 184/184/184 183/183/183
f 187/187/187 186/186/186 185/185/185
f 185/185/185 188/188/188 187/187/187
f 191/191/191 190/190/190 189/189/189
f 189/189/189 192/192/192 191/191/191
f 195/195/195 194/194/194 193/193/193
f 193/193/193 196/196/196 195/195/195
f 199/199/199 198/198/198 197/197/197
f 197/197/197 200/200/200 199/199/199
f 203/203/203 202/202/202 201/201/201
f 201/201/201 204/204/204 203/203/203
f 207/207/207 206/206/206 205/205/205
f 205/205/205 208/208/208 207/207/207
f 211/211/211 210/210/210 209/209/209
f 209/209/209 212/212/212 211/211/211
f 215/215/215 214/214/214 213/213/213
f 213/213/213 216/216/216 215/215/215
f 219/219/219 218/218/218 217/217/217
f 217/217/217 220/220/220 219/219/219
f 223/223/223 222/222/222 221/221/221
f 221/221/221 224/224/224 223/223/223
f 227/227/227 226/226/226 225/225/225
f 225/225/225 228/228/228 227/227/227
f 231/231/231 230/230/230 229/229/229
f 229/229/229 232/232/232 231/231/231
f 235/235/235 234/234/234 233/233/233
f 233/233/233 236/236/236 235/235/235
f 239/239/239 238/238/238 237/237/237
f 237/237/237 240/240/240 239/239/239
f 243/243/243 242/242/242 241/241/241
f 241/241/241 244/244/244 243/243/243
f 247/247/247 246/246/246 245/245/245
f 245/245/245 248/248/248 247/247/247
f 251/251/251 250/250/250 249/249/249
f 249/249/249 252/252/252 251/251/251
f 255/255/255 254/254/254 253/253/253
f 253/253/253 256/256/256 255/255/255
f 259/259/259 258/258/258 257/257/257
f 257/257/257 260/260/260 259/259/259
f 263/263/263 262/262/262 261/261/261
f 261/261/261 264/264/264 263/263/263
f 267/267/267 266/266/266 265/265/265
f 265/265/265 268/268/268 267/267/267
f 271/271/271 270/270/270 269/269/269
f 269/269/269 272/272/272 271/271/271
f 275/275/275 274/274/274 273/273/273
f 273/273/273 276/276/276 275/275/275
f 279/279/279 278/278/278 277/277/277
f 277/277/277 280/280/280 279/279/279
f 283/283/283 282/282/282 281/281/281
f 281/281/281 284/284/284 283/283/283
f 287/287/287 286/286/286 285/285/285
f 285/285/285 288/288/288 287/287/287
f 291/291/291 290/290/290 289/289/289
f 289/289/289 292/292/292 291/291/291
f 295/295/295 294/294/294 293/293/293
f 293/293/293 296/296/296 295/295/295
f 299/299/299 298/298/298 297/297/297
f 297/297/297 300/300/300 299/299/299
f 303/303/303 302/302/302 301/301/301
f 301/301/301 304/304/304 303/303/303
f 307/307/307 306/306/306 305/305/305
f 305/305/305 308/308/308 307/307/307
f 311/311/311 310/310/310 309/309/309
f 309/309/309 312/312/312 311/311/311
