g zubing-mesh
v -64 194 0
v -64 642 0
v -384 642 0
v -384 194 0
v -384 194 0
v -384 642 0
v -672 642 0
v -672 194 0
v -288 34 0
v -288 194 0
v -512 194 0
v -512 34 0
v -768 386 0
v -768 482 0
v -896 482 0
v -896 386 0
v -672 2 0
v -672 130 0
v -768 130 0
v -768 2 0
v -0 450 0
v -0 642 0
v -64 642 0
v -64 450 0
v -672 418 0
v -672 546 0
v -768 546 0
v -768 418 0
v -672 290 0
v -672 418 0
v -768 418 0
v -768 290 0
v -0 290 0
v -0 450 0
v -64 450 0
v -64 290 0
v -128 642 0
v -128 674 0
v -448 674 0
v -448 642 0
v -448 642 0
v -448 674 0
v -736 674 0
v -736 642 0
v -896 450 0
v -896 514 0
v -1023 514 0
v -1023 450 0
v -192 130 0
v -192 194 0
v -288 194 0
v -288 130 0
v -608 130 0
v -608 194 0
v -704 194 0
v -704 130 0
v -128 674 0
v -128 706 0
v -224 706 0
v -224 674 0
v -224 674 0
v -224 706 0
v -320 706 0
v -320 674 0
v -224 98 0
v -224 130 0
v -288 130 0
v -288 98 0
v -640 66 0
v -640 130 0
v -672 130 0
v -672 66 0
v -416 2 0
v -416 34 0
v -480 34 0
v -480 2 0
v -672 258 0
v -672 290 0
v -736 290 0
v -736 258 0
v -672 578 0
v -672 642 0
v -704 642 0
v -704 578 0
v -896 418 0
v -896 450 0
v -960 450 0
v -960 418 0
v -32 226 0
v -32 290 0
v -64 290 0
v -64 226 0
v -256 66 0
v -256 98 0
v -288 98 0
v -288 66 0
v -704 130 0
v -704 162 0
v -736 162 0
v -736 130 0
v -512 34 0
v -512 66 0
v -544 66 0
v -544 34 0
v -736 0 0
v -736 2 0
v -768 2 0
v -768 0 0
v -320 2 0
v -320 34 0
v -352 34 0
v -352 2 0
v -704 610 0
v -704 642 0
v -736 642 0
v -736 610 0
v -480 674 0
v -480 706 0
v -512 706 0
v -512 674 0
v -768 482 0
v -768 514 0
v -800 514 0
v -800 482 0
v -576 162 0
v -576 194 0
v -608 194 0
v -608 162 0
v -864 482 0
v -864 514 0
v -896 514 0
v -896 482 0
vt 0.0009765625 0.00193047523
vt 0.0009765625 0.866795361
vt 0.313476562 0.866795361
vt 0.313476562 0.00193047523
vt 0.315429688 0.00193047523
vt 0.315429688 0.866795361
vt 0.596679688 0.866795361
vt 0.596679688 0.00193047523
vt 0.598632812 0.00193047523
vt 0.598632812 0.310810804
vt 0.817382812 0.310810804
vt 0.817382812 0.00193047523
vt 0.819335938 0.00193047523
vt 0.819335938 0.187258661
vt 0.944335938 0.187258661
vt 0.944335938 0.00193047523
vt 0.819335938 0.191119671
vt 0.819335938 0.438223958
vt 0.913085938 0.438223958
vt 0.913085938 0.191119671
vt 0.915039062 0.191119671
vt 0.915039062 0.561776042
vt 0.977539062 0.561776042
vt 0.977539062 0.191119671
vt 0.598632812 0.314671814
vt 0.598632812 0.561776042
vt 0.692382812 0.561776042
vt 0.692382812 0.314671814
vt 0.694335938 0.314671814
vt 0.694335938 0.561776042
vt 0.788085938 0.561776042
vt 0.788085938 0.314671814
vt 0.819335938 0.442084968
vt 0.819335938 0.750965238
vt 0.881835938 0.750965238
vt 0.881835938 0.442084968
vt 0.0009765625 0.870656371
vt 0.0009765625 0.932432413
vt 0.313476562 0.932432413
vt 0.313476562 0.870656371
vt 0.315429688 0.870656371
vt 0.315429688 0.932432413
vt 0.596679688 0.932432413
vt 0.596679688 0.870656371
vt 0.598632812 0.565637052
vt 0.598632812 0.689189196
vt 0.723632812 0.689189196
vt 0.723632812 0.565637052
vt 0.598632812 0.693050206
vt 0.598632812 0.816602349
vt 0.692382812 0.816602349
vt 0.692382812 0.693050206
vt 0.694335938 0.693050206
vt 0.694335938 0.816602349
vt 0.788085938 0.816602349
vt 0.788085938 0.693050206
vt 0.819335938 0.754826248
vt 0.819335938 0.816602349
vt 0.913085938 0.816602349
vt 0.913085938 0.754826248
vt 0.598632812 0.8204633
vt 0.598632812 0.882239401
vt 0.692382812 0.882239401
vt 0.692382812 0.8204633
vt 0.915039062 0.565637052
vt 0.915039062 0.627413154
vt 0.977539062 0.627413154
vt 0.977539062 0.565637052
vt 0.915039062 0.631274104
vt 0.915039062 0.754826248
vt 0.946289062 0.754826248
vt 0.946289062 0.631274104
vt 0.915039062 0.758687258
vt 0.915039062 0.8204633
vt 0.977539062 0.8204633
vt 0.977539062 0.758687258
vt 0.694335938 0.8204633
vt 0.694335938 0.882239401
vt 0.756835938 0.882239401
vt 0.756835938 0.8204633
vt 0.758789062 0.8204633
vt 0.758789062 0.944015443
vt 0.790039062 0.944015443
vt 0.790039062 0.8204633
vt 0.819335938 0.8204633
vt 0.819335938 0.882239401
vt 0.881835938 0.882239401
vt 0.881835938 0.8204633
vt 0.915039062 0.82432431
vt 0.915039062 0.947876453
vt 0.946289062 0.947876453
vt 0.946289062 0.82432431
vt 0.948242188 0.82432431
vt 0.948242188 0.886100411
vt 0.979492188 0.886100411
vt 0.979492188 0.82432431
vt 0.598632812 0.886100411
vt 0.598632812 0.947876453
vt 0.629882812 0.947876453
vt 0.629882812 0.886100411
vt 0.631835938 0.886100411
vt 0.631835938 0.947876453
vt 0.663085938 0.947876453
vt 0.663085938 0.886100411
vt 0.665039062 0.886100411
vt 0.665039062 0.891891897
vt 0.696289062 0.891891897
vt 0.696289062 0.886100411
vt 0.698242188 0.886100411
vt 0.698242188 0.947876453
vt 0.729492188 0.947876453
vt 0.729492188 0.886100411
vt 0.819335938 0.886100411
vt 0.819335938 0.947876453
vt 0.850585938 0.947876453
vt 0.850585938 0.886100411
vt 0.852539062 0.886100411
vt 0.852539062 0.947876453
vt 0.883789062 0.947876453
vt 0.883789062 0.886100411
vt 0.948242188 0.889961362
vt 0.948242188 0.951737463
vt 0.979492188 0.951737463
vt 0.979492188 0.889961362
vt 0.665039062 0.895752907
vt 0.665039062 0.957528949
vt 0.696289062 0.957528949
vt 0.696289062 0.895752907
vt 0.0009765625 0.936293423
vt 0.0009765625 0.998069525
vt 0.0322265625 0.998069525
vt 0.0322265625 0.936293423
g zubing-mesh_0
f 3/3/3 2/2/2 1/1/1
f 1/1/1 4/4/4 3/3/3
f 7/7/7 6/6/6 5/5/5
f 5/5/5 8/8/8 7/7/7
f 11/11/11 10/10/10 9/9/9
f 9/9/9 12/12/12 11/11/11
f 15/15/15 14/14/14 13/13/13
f 13/13/13 16/16/16 15/15/15
f 19/19/19 18/18/18 17/17/17
f 17/17/17 20/20/20 19/19/19
f 23/23/23 22/22/22 21/21/21
f 21/21/21 24/24/24 23/23/23
f 27/27/27 26/26/26 25/25/25
f 25/25/25 28/28/28 27/27/27
f 31/31/31 30/30/30 29/29/29
f 29/29/29 32/32/32 31/31/31
f 35/35/35 34/34/34 33/33/33
f 33/33/33 36/36/36 35/35/35
f 39/39/39 38/38/38 37/37/37
f 37/37/37 40/40/40 39/39/39
f 43/43/43 42/42/42 41/41/41
f 41/41/41 44/44/44 43/43/43
f 47/47/47 46/46/46 45/45/45
f 45/45/45 48/48/48 47/47/47
f 51/51/51 50/50/50 49/49/49
f 49/49/49 52/52/52 51/51/51
f 55/55/55 54/54/54 53/53/53
f 53/53/53 56/56/56 55/55/55
f 59/59/59 58/58/58 57/57/57
f 57/57/57 60/60/60 59/59/59
f 63/63/63 62/62/62 61/61/61
f 61/61/61 64/64/64 63/63/63
f 67/67/67 66/66/66 65/65/65
f 65/65/65 68/68/68 67/67/67
f 71/71/71 70/70/70 69/69/69
f 69/69/69 72/72/72 71/71/71
f 75/75/75 74/74/74 73/73/73
f 73/73/73 76/76/76 75/75/75
f 79/79/79 78/78/78 77/77/77
f 77/77/77 80/80/80 79/79/79
f 83/83/83 82/82/82 81/81/81
f 81/81/81 84/84/84 83/83/83
f 87/87/87 86/86/86 85/85/85
f 85/85/85 88/88/88 87/87/87
f 91/91/91 90/90/90 89/89/89
f 89/89/89 92/92/92 91/91/91
f 95/95/95 94/94/94 93/93/93
f 93/93/93 96/96/96 95/95/95
f 99/99/99 98/98/98 97/97/97
f 97/97/97 100/100/100 99/99/99
f 103/103/103 102/102/102 101/101/101
f 101/101/101 104/104/104 103/103/103
f 107/107/107 106/106/106 105/105/105
f 105/105/105 108/108/108 107/107/107
f 111/111/111 110/110/110 109/109/109
f 109/109/109 112/112/112 111/111/111
f 115/115/115 114/114/114 113/113/113
f 113/113/113 116/116/116 115/115/115
f 119/119/119 118/118/118 117/117/117
f 117/117/117 120/120/120 119/119/119
f 123/123/123 122/122/122 121/121/121
f 121/121/121 124/124/124 123/123/123
f 127/127/127 126/126/126 125/125/125
f 125/125/125 128/128/128 127/127/127
f 131/131/131 130/130/130 129/129/129
f 129/129/129 132/132/132 131/131/131
