g kewei_6_bj-mesh
v -576 768 0
v -576 832 0
v -704 832 0
v -704 768 0
v -448 736 0
v -448 768 0
v -512 768 0
v -512 736 0
v -480 768 0
v -480 800 0
v -544 800 0
v -544 768 0
v -576 736 0
v -576 768 0
v -608 768 0
v -608 736 0
v -512 800 0
v -512 832 0
v -544 832 0
v -544 800 0
v -544 768 0
v -544 800 0
v -576 800 0
v -576 768 0
vt 0.001953125 0.0151515007
vt 0.001953125 0.984848499
vt 0.251953125 0.984848499
vt 0.251953125 0.0151515007
vt 0.255859375 0.0151515007
vt 0.255859375 0.5
vt 0.380859375 0.5
vt 0.380859375 0.0151515007
vt 0.384765625 0.0151515007
vt 0.384765625 0.5
vt 0.509765625 0.5
vt 0.509765625 0.0151515007
vt 0.513671875 0.0151515007
vt 0.513671875 0.5
vt 0.576171875 0.5
vt 0.576171875 0.0151515007
vt 0.580078125 0.0151515007
vt 0.580078125 0.5
vt 0.642578125 0.5
vt 0.642578125 0.0151515007
vt 0.646484375 0.0151515007
vt 0.646484375 0.5
vt 0.708984375 0.5
vt 0.708984375 0.0151515007
g kewei_6_bj-mesh_0
f 3/3/3 2/2/2 1/1/1
f 1/1/1 4/4/4 3/3/3
f 7/7/7 6/6/6 5/5/5
f 5/5/5 8/8/8 7/7/7
f 11/11/11 10/10/10 9/9/9
f 9/9/9 12/12/12 11/11/11
f 15/15/15 14/14/14 13/13/13
f 13/13/13 16/16/16 15/15/15
f 19/19/19 18/18/18 17/17/17
f 17/17/17 20/20/20 19/19/19
f 23/23/23 22/22/22 21/21/21
f 21/21/21 24/24/24 23/23/23
