g masaina_bj-mesh
v -1280 283 0
v -1280 571 0
v -1504 571 0
v -1504 283 0
v -1216 59 0
v -1216 283 0
v -1312 283 0
v -1312 59 0
v -1344 571 0
v -1344 731 0
v -1472 731 0
v -1472 571 0
v -1376 731 0
v -1376 827 0
v -1440 827 0
v -1440 731 0
v -1248 379 0
v -1248 507 0
v -1280 507 0
v -1280 379 0
v -1312 251 0
v -1312 283 0
v -1408 283 0
v -1408 251 0
v -1248 283 0
v -1248 379 0
v -1280 379 0
v -1280 283 0
v -1312 187 0
v -1312 251 0
v -1344 251 0
v -1344 187 0
v -1504 283 0
v -1504 347 0
v -1536 347 0
v -1536 283 0
v -1408 251 0
v -1408 283 0
v -1472 283 0
v -1472 251 0
v -1216 315 0
v -1216 379 0
v -1248 379 0
v -1248 315 0
v -1344 219 0
v -1344 251 0
v -1376 251 0
v -1376 219 0
v -1248 27 0
v -1248 59 0
v -1280 59 0
v -1280 27 0
v -1184 155 0
v -1184 187 0
v -1216 187 0
v -1216 155 0
v -1312 571 0
v -1312 603 0
v -1344 603 0
v -1344 571 0
v -1216 283 0
v -1216 315 0
v -1248 315 0
v -1248 283 0
v -1312 155 0
v -1312 187 0
v -1344 187 0
v -1344 155 0
v -1344 731 0
v -1344 763 0
v -1376 763 0
v -1376 731 0
vt 0.001953125 0.00306749344
vt 0.001953125 0.8865031
vt 0.439453125 0.8865031
vt 0.439453125 0.00306749344
vt 0.443359375 0.00306749344
vt 0.443359375 0.690184057
vt 0.630859375 0.690184057
vt 0.630859375 0.00306749344
vt 0.634765625 0.00306749344
vt 0.634765625 0.493865013
vt 0.884765625 0.493865013
vt 0.884765625 0.00306749344
vt 0.634765625 0.5
vt 0.634765625 0.794478536
vt 0.759765625 0.794478536
vt 0.759765625 0.5
vt 0.888671875 0.00306749344
vt 0.888671875 0.395705521
vt 0.951171875 0.395705521
vt 0.951171875 0.00306749344
vt 0.763671875 0.5
vt 0.763671875 0.598159552
vt 0.951171875 0.598159552
vt 0.951171875 0.5
vt 0.763671875 0.604294479
vt 0.763671875 0.898773015
vt 0.826171875 0.898773015
vt 0.826171875 0.604294479
vt 0.830078125 0.604294479
vt 0.830078125 0.800613523
vt 0.892578125 0.800613523
vt 0.892578125 0.604294479
vt 0.896484375 0.604294479
vt 0.896484375 0.800613523
vt 0.958984375 0.800613523
vt 0.958984375 0.604294479
vt 0.443359375 0.696318984
vt 0.443359375 0.794478536
vt 0.568359375 0.794478536
vt 0.568359375 0.696318984
vt 0.443359375 0.800613523
vt 0.443359375 0.996932507
vt 0.505859375 0.996932507
vt 0.505859375 0.800613523
vt 0.509765625 0.800613523
vt 0.509765625 0.898773015
vt 0.572265625 0.898773015
vt 0.572265625 0.800613523
vt 0.634765625 0.800613523
vt 0.634765625 0.898773015
vt 0.697265625 0.898773015
vt 0.697265625 0.800613523
vt 0.830078125 0.80674845
vt 0.830078125 0.904908001
vt 0.892578125 0.904908001
vt 0.892578125 0.80674845
vt 0.896484375 0.80674845
vt 0.896484375 0.904908001
vt 0.958984375 0.904908001
vt 0.958984375 0.80674845
vt 0.001953125 0.892638028
vt 0.001953125 0.99079752
vt 0.064453125 0.99079752
vt 0.064453125 0.892638028
vt 0.068359375 0.892638028
vt 0.068359375 0.99079752
vt 0.130859375 0.99079752
vt 0.130859375 0.892638028
vt 0.134765625 0.892638028
vt 0.134765625 0.99079752
vt 0.197265625 0.99079752
vt 0.197265625 0.892638028
g masaina_bj-mesh_0
f 3/3/3 2/2/2 1/1/1
f 1/1/1 4/4/4 3/3/3
f 7/7/7 6/6/6 5/5/5
f 5/5/5 8/8/8 7/7/7
f 11/11/11 10/10/10 9/9/9
f 9/9/9 12/12/12 11/11/11
f 15/15/15 14/14/14 13/13/13
f 13/13/13 16/16/16 15/15/15
f 19/19/19 18/18/18 17/17/17
f 17/17/17 20/20/20 19/19/19
f 23/23/23 22/22/22 21/21/21
f 21/21/21 24/24/24 23/23/23
f 27/27/27 26/26/26 25/25/25
f 25/25/25 28/28/28 27/27/27
f 31/31/31 30/30/30 29/29/29
f 29/29/29 32/32/32 31/31/31
f 35/35/35 34/34/34 33/33/33
f 33/33/33 36/36/36 35/35/35
f 39/39/39 38/38/38 37/37/37
f 37/37/37 40/40/40 39/39/39
f 43/43/43 42/42/42 41/41/41
f 41/41/41 44/44/44 43/43/43
f 47/47/47 46/46/46 45/45/45
f 45/45/45 48/48/48 47/47/47
f 51/51/51 50/50/50 49/49/49
f 49/49/49 52/52/52 51/51/51
f 55/55/55 54/54/54 53/53/53
f 53/53/53 56/56/56 55/55/55
f 59/59/59 58/58/58 57/57/57
f 57/57/57 60/60/60 59/59/59
f 63/63/63 62/62/62 61/61/61
f 61/61/61 64/64/64 63/63/63
f 67/67/67 66/66/66 65/65/65
f 65/65/65 68/68/68 67/67/67
f 71/71/71 70/70/70 69/69/69
f 69/69/69 72/72/72 71/71/71
