g shengnvzhende_3-mesh
v -288 81 0
v -288 1169 0
v -1088 1169 0
v -1088 81 0
v -1088 81 0
v -1088 1169 0
v -1856 1169 0
v -1856 81 0
v -96 465 0
v -96 785 0
v -288 785 0
v -288 465 0
v -96 177 0
v -96 465 0
v -288 465 0
v -288 177 0
v -1856 17 0
v -1856 337 0
v -1952 337 0
v -1952 17 0
v -1856 337 0
v -1856 657 0
v -1952 657 0
v -1952 337 0
v -416 1169 0
v -416 1201 0
v -1120 1201 0
v -1120 1169 0
v -1152 49 0
v -1152 81 0
v -1856 81 0
v -1856 49 0
v -448 49 0
v -448 81 0
v -1152 81 0
v -1152 49 0
v -192 785 0
v -192 1009 0
v -288 1009 0
v -288 785 0
v -1120 1169 0
v -1120 1201 0
v -1792 1201 0
v -1792 1169 0
v -0 529 0
v -0 689 0
v -96 689 0
v -96 529 0
v -0 369 0
v -0 529 0
v -96 529 0
v -96 369 0
v -1952 433 0
v -1952 625 0
v -2016 625 0
v -2016 433 0
v -1120 1201 0
v -1120 1265 0
v -1312 1265 0
v -1312 1201 0
v -1152 17 0
v -1152 49 0
v -1504 49 0
v -1504 17 0
v -1504 17 0
v -1504 49 0
v -1856 49 0
v -1856 17 0
v -1312 1201 0
v -1312 1265 0
v -1472 1265 0
v -1472 1201 0
v -1952 273 0
v -1952 433 0
v -2016 433 0
v -2016 273 0
v -672 0 0
v -672 49 0
v -800 49 0
v -800 0 0
v -32 273 0
v -32 369 0
v -96 369 0
v -96 273 0
v -800 0 0
v -800 49 0
v -896 49 0
v -896 0 0
v -1856 817 0
v -1856 977 0
v -1888 977 0
v -1888 817 0
v -1856 657 0
v -1856 817 0
v -1888 817 0
v -1888 657 0
v -1248 0 0
v -1248 17 0
v -1376 17 0
v -1376 0 0
v -1376 0 0
v -1376 17 0
v -1504 17 0
v -1504 0 0
v -1888 721 0
v -1888 817 0
v -1920 817 0
v -1920 721 0
v -2016 497 0
v -2016 593 0
v -2047 593 0
v -2047 497 0
v -2016 401 0
v -2016 497 0
v -2047 497 0
v -2047 401 0
v -224 1009 0
v -224 1073 0
v -256 1073 0
v -256 1009 0
v -128 785 0
v -128 849 0
v -160 849 0
v -160 785 0
v -1952 81 0
v -1952 145 0
v -1984 145 0
v -1984 81 0
v -1056 1201 0
v -1056 1233 0
v -1120 1233 0
v -1120 1201 0
v -224 145 0
v -224 177 0
v -288 177 0
v -288 145 0
v -896 17 0
v -896 49 0
v -960 49 0
v -960 17 0
v -1952 209 0
v -1952 273 0
v -1984 273 0
v -1984 209 0
v -64 177 0
v -64 241 0
v -96 241 0
v -96 177 0
v -160 849 0
v -160 913 0
v -192 913 0
v -192 849 0
v -160 785 0
v -160 849 0
v -192 849 0
v -192 785 0
v -1888 657 0
v -1888 721 0
v -1920 721 0
v -1920 657 0
v -256 1009 0
v -256 1073 0
v -288 1073 0
v -288 1009 0
v -1344 1265 0
v -1344 1297 0
v -1408 1297 0
v -1408 1265 0
v -64 721 0
v -64 785 0
v -96 785 0
v -96 721 0
v -256 1073 0
v -256 1137 0
v -288 1137 0
v -288 1073 0
v -1472 1201 0
v -1472 1233 0
v -1504 1233 0
v -1504 1201 0
v -1888 1009 0
v -1888 1041 0
v -1920 1041 0
v -1920 1009 0
v -256 113 0
v -256 145 0
v -288 145 0
v -288 113 0
v -640 17 0
v -640 49 0
v -672 49 0
v -672 17 0
v -32 689 0
v -32 721 0
v -64 721 0
v -64 689 0
v -1408 1265 0
v -1408 1297 0
v -1440 1297 0
v -1440 1265 0
v -1952 49 0
v -1952 81 0
v -1984 81 0
v -1984 49 0
v -64 689 0
v -64 721 0
v -96 721 0
v -96 689 0
v -512 1201 0
v -512 1233 0
v -544 1233 0
v -544 1201 0
v -384 1201 0
v -384 1233 0
v -416 1233 0
v -416 1201 0
vt 0.00048828125 0.000863552094
vt 0.00048828125 0.940414488
vt 0.391113281 0.940414488
vt 0.391113281 0.000863552094
vt 0.392089844 0.000863552094
vt 0.392089844 0.940414488
vt 0.767089844 0.940414488
vt 0.767089844 0.000863552094
vt 0.768066406 0.000863552094
vt 0.768066406 0.27720207
vt 0.861816406 0.27720207
vt 0.861816406 0.000863552094
vt 0.862792969 0.000863552094
vt 0.862792969 0.249568224
vt 0.956542969 0.249568224
vt 0.956542969 0.000863552094
vt 0.862792969 0.251295328
vt 0.862792969 0.527633846
vt 0.909667969 0.527633846
vt 0.909667969 0.251295328
vt 0.910644531 0.251295328
vt 0.910644531 0.527633846
vt 0.957519531 0.527633846
vt 0.957519531 0.251295328
vt 0.00048828125 0.942141652
vt 0.00048828125 0.969775498
vt 0.344238281 0.969775498
vt 0.344238281 0.942141652
vt 0.345214844 0.942141652
vt 0.345214844 0.969775498
vt 0.688964844 0.969775498
vt 0.688964844 0.942141652
vt 0.00048828125 0.971502602
vt 0.00048828125 0.999136448
vt 0.344238281 0.999136448
vt 0.344238281 0.971502602
vt 0.768066406 0.278929174
vt 0.768066406 0.472366154
vt 0.814941406 0.472366154
vt 0.814941406 0.278929174
vt 0.345214844 0.971502602
vt 0.345214844 0.999136448
vt 0.673339844 0.999136448
vt 0.673339844 0.971502602
vt 0.768066406 0.474093258
vt 0.768066406 0.612262487
vt 0.814941406 0.612262487
vt 0.814941406 0.474093258
vt 0.862792969 0.52936101
vt 0.862792969 0.667530239
vt 0.909667969 0.667530239
vt 0.909667969 0.52936101
vt 0.958496094 0.000863552094
vt 0.958496094 0.166666687
vt 0.989746094 0.166666687
vt 0.989746094 0.000863552094
vt 0.768066406 0.613989651
vt 0.768066406 0.669257343
vt 0.861816406 0.669257343
vt 0.861816406 0.613989651
vt 0.768066406 0.670984447
vt 0.768066406 0.698618293
vt 0.939941406 0.698618293
vt 0.939941406 0.670984447
vt 0.768066406 0.700345397
vt 0.768066406 0.727979302
vt 0.939941406 0.727979302
vt 0.939941406 0.700345397
vt 0.768066406 0.729706407
vt 0.768066406 0.784974098
vt 0.846191406 0.784974098
vt 0.846191406 0.729706407
vt 0.958496094 0.168393791
vt 0.958496094 0.30656302
vt 0.989746094 0.30656302
vt 0.989746094 0.168393791
vt 0.847167969 0.729706407
vt 0.847167969 0.77288425
vt 0.909667969 0.77288425
vt 0.909667969 0.729706407
vt 0.958496094 0.308290184
vt 0.958496094 0.391191721
vt 0.989746094 0.391191721
vt 0.989746094 0.308290184
vt 0.940917969 0.52936101
vt 0.940917969 0.572538853
vt 0.987792969 0.572538853
vt 0.987792969 0.52936101
vt 0.940917969 0.574265957
vt 0.940917969 0.712435246
vt 0.956542969 0.712435246
vt 0.956542969 0.574265957
vt 0.957519531 0.574265957
vt 0.957519531 0.712435246
vt 0.973144531 0.712435246
vt 0.973144531 0.574265957
vt 0.910644531 0.729706407
vt 0.910644531 0.745250463
vt 0.973144531 0.745250463
vt 0.973144531 0.729706407
vt 0.910644531 0.746977568
vt 0.910644531 0.762521625
vt 0.973144531 0.762521625
vt 0.973144531 0.746977568
vt 0.974121094 0.574265957
vt 0.974121094 0.657167554
vt 0.989746094 0.657167554
vt 0.989746094 0.574265957
vt 0.974121094 0.658894658
vt 0.974121094 0.741796196
vt 0.989746094 0.741796196
vt 0.989746094 0.658894658
vt 0.974121094 0.743523359
vt 0.974121094 0.826424837
vt 0.989746094 0.826424837
vt 0.989746094 0.743523359
vt 0.910644531 0.764248729
vt 0.910644531 0.81951642
vt 0.926269531 0.81951642
vt 0.926269531 0.764248729
vt 0.927246094 0.764248729
vt 0.927246094 0.81951642
vt 0.942871094 0.81951642
vt 0.942871094 0.764248729
vt 0.943847656 0.764248729
vt 0.943847656 0.81951642
vt 0.959472656 0.81951642
vt 0.959472656 0.764248729
vt 0.847167969 0.774611413
vt 0.847167969 0.802245259
vt 0.878417969 0.802245259
vt 0.878417969 0.774611413
vt 0.768066406 0.786701202
vt 0.768066406 0.814335048
vt 0.799316406 0.814335048
vt 0.799316406 0.786701202
vt 0.800292969 0.786701202
vt 0.800292969 0.814335048
vt 0.831542969 0.814335048
vt 0.831542969 0.786701202
vt 0.879394531 0.774611413
vt 0.879394531 0.829879105
vt 0.895019531 0.829879105
vt 0.895019531 0.774611413
vt 0.847167969 0.803972363
vt 0.847167969 0.859240055
vt 0.862792969 0.859240055
vt 0.862792969 0.803972363
vt 0.768066406 0.816062212
vt 0.768066406 0.871329904
vt 0.783691406 0.871329904
vt 0.783691406 0.816062212
vt 0.784667969 0.816062212
vt 0.784667969 0.871329904
vt 0.800292969 0.871329904
vt 0.800292969 0.816062212
vt 0.801269531 0.816062212
vt 0.801269531 0.871329904
vt 0.816894531 0.871329904
vt 0.816894531 0.816062212
vt 0.817871094 0.816062212
vt 0.817871094 0.871329904
vt 0.833496094 0.871329904
vt 0.833496094 0.816062212
vt 0.910644531 0.821243525
vt 0.910644531 0.84887737
vt 0.941894531 0.84887737
vt 0.941894531 0.821243525
vt 0.942871094 0.821243525
vt 0.942871094 0.876511216
vt 0.958496094 0.876511216
vt 0.958496094 0.821243525
vt 0.974121094 0.828152001
vt 0.974121094 0.883419693
vt 0.989746094 0.883419693
vt 0.989746094 0.828152001
vt 0.879394531 0.831606209
vt 0.879394531 0.859240055
vt 0.895019531 0.859240055
vt 0.895019531 0.831606209
vt 0.910644531 0.850604475
vt 0.910644531 0.87823832
vt 0.926269531 0.87823832
vt 0.926269531 0.850604475
vt 0.847167969 0.860967159
vt 0.847167969 0.888601065
vt 0.862792969 0.888601065
vt 0.862792969 0.860967159
vt 0.879394531 0.860967159
vt 0.879394531 0.888601065
vt 0.895019531 0.888601065
vt 0.895019531 0.860967159
vt 0.768066406 0.873057008
vt 0.768066406 0.900690854
vt 0.783691406 0.900690854
vt 0.783691406 0.873057008
vt 0.784667969 0.873057008
vt 0.784667969 0.900690854
vt 0.800292969 0.900690854
vt 0.800292969 0.873057008
vt 0.801269531 0.873057008
vt 0.801269531 0.900690854
vt 0.816894531 0.900690854
vt 0.816894531 0.873057008
vt 0.817871094 0.873057008
vt 0.817871094 0.900690854
vt 0.833496094 0.900690854
vt 0.833496094 0.873057008
vt 0.942871094 0.87823832
vt 0.942871094 0.905872226
vt 0.958496094 0.905872226
vt 0.958496094 0.87823832
vt 0.910644531 0.879965425
vt 0.910644531 0.90759933
vt 0.926269531 0.90759933
vt 0.926269531 0.879965425
g shengnvzhende_3-mesh_0
f 3/3/3 2/2/2 1/1/1
f 1/1/1 4/4/4 3/3/3
f 7/7/7 6/6/6 5/5/5
f 5/5/5 8/8/8 7/7/7
f 11/11/11 10/10/10 9/9/9
f 9/9/9 12/12/12 11/11/11
f 15/15/15 14/14/14 13/13/13
f 13/13/13 16/16/16 15/15/15
f 19/19/19 18/18/18 17/17/17
f 17/17/17 20/20/20 19/19/19
f 23/23/23 22/22/22 21/21/21
f 21/21/21 24/24/24 23/23/23
f 27/27/27 26/26/26 25/25/25
f 25/25/25 28/28/28 27/27/27
f 31/31/31 30/30/30 29/29/29
f 29/29/29 32/32/32 31/31/31
f 35/35/35 34/34/34 33/33/33
f 33/33/33 36/36/36 35/35/35
f 39/39/39 38/38/38 37/37/37
f 37/37/37 40/40/40 39/39/39
f 43/43/43 42/42/42 41/41/41
f 41/41/41 44/44/44 43/43/43
f 47/47/47 46/46/46 45/45/45
f 45/45/45 48/48/48 47/47/47
f 51/51/51 50/50/50 49/49/49
f 49/49/49 52/52/52 51/51/51
f 55/55/55 54/54/54 53/53/53
f 53/53/53 56/56/56 55/55/55
f 59/59/59 58/58/58 57/57/57
f 57/57/57 60/60/60 59/59/59
f 63/63/63 62/62/62 61/61/61
f 61/61/61 64/64/64 63/63/63
f 67/67/67 66/66/66 65/65/65
f 65/65/65 68/68/68 67/67/67
f 71/71/71 70/70/70 69/69/69
f 69/69/69 72/72/72 71/71/71
f 75/75/75 74/74/74 73/73/73
f 73/73/73 76/76/76 75/75/75
f 79/79/79 78/78/78 77/77/77
f 77/77/77 80/80/80 79/79/79
f 83/83/83 82/82/82 81/81/81
f 81/81/81 84/84/84 83/83/83
f 87/87/87 86/86/86 85/85/85
f 85/85/85 88/88/88 87/87/87
f 91/91/91 90/90/90 89/89/89
f 89/89/89 92/92/92 91/91/91
f 95/95/95 94/94/94 93/93/93
f 93/93/93 96/96/96 95/95/95
f 99/99/99 98/98/98 97/97/97
f 97/97/97 100/100/100 99/99/99
f 103/103/103 102/102/102 101/101/101
f 101/101/101 104/104/104 103/103/103
f 107/107/107 106/106/106 105/105/105
f 105/105/105 108/108/108 107/107/107
f 111/111/111 110/110/110 109/109/109
f 109/109/109 112/112/112 111/111/111
f 115/115/115 114/114/114 113/113/113
f 113/113/113 116/116/116 115/115/115
f 119/119/119 118/118/118 117/117/117
f 117/117/117 120/120/120 119/119/119
f 123/123/123 122/122/122 121/121/121
f 121/121/121 124/124/124 123/123/123
f 127/127/127 126/126/126 125/125/125
f 125/125/125 128/128/128 127/127/127
f 131/131/131 130/130/130 129/129/129
f 129/129/129 132/132/132 131/131/131
f 135/135/135 134/134/134 133/133/133
f 133/133/133 136/136/136 135/135/135
f 139/139/139 138/138/138 137/137/137
f 137/137/137 140/140/140 139/139/139
f 143/143/143 142/142/142 141/141/141
f 141/141/141 144/144/144 143/143/143
f 147/147/147 146/146/146 145/145/145
f 145/145/145 148/148/148 147/147/147
f 151/151/151 150/150/150 149/149/149
f 149/149/149 152/152/152 151/151/151
f 155/155/155 154/154/154 153/153/153
f 153/153/153 156/156/156 155/155/155
f 159/159/159 158/158/158 157/157/157
f 157/157/157 160/160/160 159/159/159
f 163/163/163 162/162/162 161/161/161
f 161/161/161 164/164/164 163/163/163
f 167/167/167 166/166/166 165/165/165
f 165/165/165 168/168/168 167/167/167
f 171/171/171 170/170/170 169/169/169
f 169/169/169 172/172/172 171/171/171
f 175/175/175 174/174/174 173/173/173
f 173/173/173 176/176/176 175/175/175
f 179/179/179 178/178/178 177/177/177
f 177/177/177 180/180/180 179/179/179
f 183/183/183 182/182/182 181/181/181
f 181/181/181 184/184/184 183/183/183
f 187/187/187 186/186/186 185/185/185
f 185/185/185 188/188/188 187/187/187
f 191/191/191 190/190/190 189/189/189
f 189/189/189 192/192/192 191/191/191
f 195/195/195 194/194/194 193/193/193
f 193/193/193 196/196/196 195/195/195
f 199/199/199 198/198/198 197/197/197
f 197/197/197 200/200/200 199/199/199
f 203/203/203 202/202/202 201/201/201
f 201/201/201 204/204/204 203/203/203
f 207/207/207 206/206/206 205/205/205
f 205/205/205 208/208/208 207/207/207
f 211/211/211 210/210/210 209/209/209
f 209/209/209 212/212/212 211/211/211
f 215/215/215 214/214/214 213/213/213
f 213/213/213 216/216/216 215/215/215
