g kunxi_2-mesh
v -352 95 0
v -352 511 0
v -768 511 0
v -768 95 0
v -352 511 0
v -352 927 0
v -768 927 0
v -768 511 0
v -96 191 0
v -96 671 0
v -352 671 0
v -352 191 0
v -800 767 0
v -800 1023 0
v -960 1023 0
v -960 767 0
v -0 383 0
v -0 575 0
v -96 575 0
v -96 383 0
v -800 383 0
v -800 479 0
v -992 479 0
v -992 383 0
v -768 543 0
v -768 991 0
v -800 991 0
v -800 543 0
v -768 127 0
v -768 543 0
v -800 543 0
v -800 127 0
v -128 671 0
v -128 767 0
v -256 767 0
v -256 671 0
v -448 31 0
v -448 95 0
v -608 95 0
v -608 31 0
v -800 639 0
v -800 767 0
v -864 767 0
v -864 639 0
v -224 127 0
v -224 191 0
v -352 191 0
v -352 127 0
v -288 799 0
v -288 927 0
v -352 927 0
v -352 799 0
v -608 31 0
v -608 95 0
v -736 95 0
v -736 31 0
v -32 223 0
v -32 319 0
v -96 319 0
v -96 223 0
v -864 511 0
v -864 575 0
v -960 575 0
v -960 511 0
v -800 543 0
v -800 639 0
v -864 639 0
v -864 543 0
v -288 703 0
v -288 799 0
v -352 799 0
v -352 703 0
v -800 319 0
v -800 383 0
v -896 383 0
v -896 319 0
v -864 703 0
v -864 767 0
v -928 767 0
v -928 703 0
v -704 927 0
v -704 991 0
v -768 991 0
v -768 927 0
v -896 319 0
v -896 383 0
v -960 383 0
v -960 319 0
v -32 575 0
v -32 607 0
v -96 607 0
v -96 575 0
v -832 255 0
v -832 319 0
v -864 319 0
v -864 255 0
v -640 927 0
v -640 959 0
v -704 959 0
v -704 927 0
v -256 671 0
v -256 735 0
v -288 735 0
v -288 671 0
v -160 159 0
v -160 191 0
v -224 191 0
v -224 159 0
v -384 63 0
v -384 95 0
v -448 95 0
v -448 63 0
v -864 255 0
v -864 319 0
v -896 319 0
v -896 255 0
v -0 223 0
v -0 287 0
v -32 287 0
v -32 223 0
v -896 479 0
v -896 511 0
v -960 511 0
v -960 479 0
v -256 767 0
v -256 831 0
v -288 831 0
v -288 767 0
v -800 255 0
v -800 319 0
v -832 319 0
v -832 255 0
v -960 927 0
v -960 991 0
v -992 991 0
v -992 927 0
v -256 831 0
v -256 895 0
v -288 895 0
v -288 831 0
v -800 191 0
v -800 255 0
v -832 255 0
v -832 191 0
v -640 0 0
v -640 31 0
v -704 31 0
v -704 0 0
v -960 863 0
v -960 927 0
v -992 927 0
v -992 863 0
v -576 0 0
v -576 31 0
v -640 31 0
v -640 0 0
v -960 511 0
v -960 543 0
v -992 543 0
v -992 511 0
v -800 479 0
v -800 511 0
v -832 511 0
v -832 479 0
v -64 351 0
v -64 383 0
v -96 383 0
v -96 351 0
v -320 95 0
v -320 127 0
v -352 127 0
v -352 95 0
v -896 287 0
v -896 319 0
v -928 319 0
v -928 287 0
v -960 479 0
v -960 511 0
v -992 511 0
v -992 479 0
v -832 223 0
v -832 255 0
v -864 255 0
v -864 223 0
v -288 671 0
v -288 703 0
v -320 703 0
v -320 671 0
v -864 575 0
v -864 607 0
v -896 607 0
v -896 575 0
v -864 671 0
v -864 703 0
v -896 703 0
v -896 671 0
vt 0.0009765625 0.00111109018
vt 0.0009765625 0.463333309
vt 0.407226562 0.463333309
vt 0.407226562 0.00111109018
vt 0.409179688 0.00111109018
vt 0.409179688 0.463333309
vt 0.815429688 0.463333309
vt 0.815429688 0.00111109018
vt 0.0009765625 0.465555549
vt 0.0009765625 0.99888891
vt 0.250976562 0.99888891
vt 0.250976562 0.465555549
vt 0.817382812 0.00111109018
vt 0.817382812 0.285555542
vt 0.973632812 0.285555542
vt 0.973632812 0.00111109018
vt 0.817382812 0.287777781
vt 0.817382812 0.50111115
vt 0.911132812 0.50111115
vt 0.911132812 0.287777781
vt 0.252929688 0.465555549
vt 0.252929688 0.572222233
vt 0.440429688 0.572222233
vt 0.440429688 0.465555549
vt 0.913085938 0.287777781
vt 0.913085938 0.785555542
vt 0.944335938 0.785555542
vt 0.944335938 0.287777781
vt 0.946289062 0.287777781
vt 0.946289062 0.75
vt 0.977539062 0.75
vt 0.977539062 0.287777781
vt 0.442382812 0.465555549
vt 0.442382812 0.572222233
vt 0.567382812 0.572222233
vt 0.567382812 0.465555549
vt 0.569335938 0.465555549
vt 0.569335938 0.536666632
vt 0.725585938 0.536666632
vt 0.725585938 0.465555549
vt 0.727539062 0.465555549
vt 0.727539062 0.607777774
vt 0.790039062 0.607777774
vt 0.790039062 0.465555549
vt 0.569335938 0.538888931
vt 0.569335938 0.610000014
vt 0.694335938 0.610000014
vt 0.694335938 0.538888931
vt 0.817382812 0.50333333
vt 0.817382812 0.645555556
vt 0.879882812 0.645555556
vt 0.879882812 0.50333333
vt 0.252929688 0.574444413
vt 0.252929688 0.645555556
vt 0.377929688 0.645555556
vt 0.377929688 0.574444413
vt 0.379882812 0.574444413
vt 0.379882812 0.681111097
vt 0.442382812 0.681111097
vt 0.442382812 0.574444413
vt 0.444335938 0.574444413
vt 0.444335938 0.645555556
vt 0.538085938 0.645555556
vt 0.538085938 0.574444413
vt 0.727539062 0.610000014
vt 0.727539062 0.716666698
vt 0.790039062 0.716666698
vt 0.790039062 0.610000014
vt 0.569335938 0.612222195
vt 0.569335938 0.718888879
vt 0.631835938 0.718888879
vt 0.631835938 0.612222195
vt 0.252929688 0.647777796
vt 0.252929688 0.718888879
vt 0.346679688 0.718888879
vt 0.346679688 0.647777796
vt 0.633789062 0.612222195
vt 0.633789062 0.683333337
vt 0.696289062 0.683333337
vt 0.696289062 0.612222195
vt 0.444335938 0.647777796
vt 0.444335938 0.718888879
vt 0.506835938 0.718888879
vt 0.506835938 0.647777796
vt 0.817382812 0.647777796
vt 0.817382812 0.718888879
vt 0.879882812 0.718888879
vt 0.879882812 0.647777796
vt 0.379882812 0.683333337
vt 0.379882812 0.718888879
vt 0.442382812 0.718888879
vt 0.442382812 0.683333337
vt 0.508789062 0.647777796
vt 0.508789062 0.718888879
vt 0.540039062 0.718888879
vt 0.540039062 0.647777796
vt 0.633789062 0.685555577
vt 0.633789062 0.721111119
vt 0.696289062 0.721111119
vt 0.696289062 0.685555577
vt 0.727539062 0.718888879
vt 0.727539062 0.790000021
vt 0.758789062 0.790000021
vt 0.758789062 0.718888879
vt 0.252929688 0.721111119
vt 0.252929688 0.75666666
vt 0.315429688 0.75666666
vt 0.315429688 0.721111119
vt 0.317382812 0.721111119
vt 0.317382812 0.75666666
vt 0.379882812 0.75666666
vt 0.379882812 0.721111119
vt 0.760742188 0.718888879
vt 0.760742188 0.790000021
vt 0.791992188 0.790000021
vt 0.791992188 0.718888879
vt 0.381835938 0.721111119
vt 0.381835938 0.792222202
vt 0.413085938 0.792222202
vt 0.413085938 0.721111119
vt 0.415039062 0.721111119
vt 0.415039062 0.75666666
vt 0.477539062 0.75666666
vt 0.477539062 0.721111119
vt 0.479492188 0.721111119
vt 0.479492188 0.792222202
vt 0.510742188 0.792222202
vt 0.510742188 0.721111119
vt 0.512695312 0.721111119
vt 0.512695312 0.792222202
vt 0.543945312 0.792222202
vt 0.543945312 0.721111119
vt 0.569335938 0.721111119
vt 0.569335938 0.792222202
vt 0.600585938 0.792222202
vt 0.600585938 0.721111119
vt 0.817382812 0.721111119
vt 0.817382812 0.792222202
vt 0.848632812 0.792222202
vt 0.848632812 0.721111119
vt 0.850585938 0.721111119
vt 0.850585938 0.792222202
vt 0.881835938 0.792222202
vt 0.881835938 0.721111119
vt 0.633789062 0.723333359
vt 0.633789062 0.7588889
vt 0.696289062 0.7588889
vt 0.696289062 0.723333359
vt 0.946289062 0.75222224
vt 0.946289062 0.823333323
vt 0.977539062 0.823333323
vt 0.977539062 0.75222224
vt 0.252929688 0.7588889
vt 0.252929688 0.794444442
vt 0.315429688 0.794444442
vt 0.315429688 0.7588889
vt 0.317382812 0.7588889
vt 0.317382812 0.794444442
vt 0.348632812 0.794444442
vt 0.348632812 0.7588889
vt 0.415039062 0.7588889
vt 0.415039062 0.794444442
vt 0.446289062 0.794444442
vt 0.446289062 0.7588889
vt 0.633789062 0.76111114
vt 0.633789062 0.796666682
vt 0.665039062 0.796666682
vt 0.665039062 0.76111114
vt 0.666992188 0.76111114
vt 0.666992188 0.796666682
vt 0.698242188 0.796666682
vt 0.698242188 0.76111114
vt 0.913085938 0.787777781
vt 0.913085938 0.823333323
vt 0.944335938 0.823333323
vt 0.944335938 0.787777781
vt 0.727539062 0.792222202
vt 0.727539062 0.827777743
vt 0.758789062 0.827777743
vt 0.758789062 0.792222202
vt 0.760742188 0.792222202
vt 0.760742188 0.827777743
vt 0.791992188 0.827777743
vt 0.791992188 0.792222202
vt 0.381835938 0.794444442
vt 0.381835938 0.829999983
vt 0.413085938 0.829999983
vt 0.413085938 0.794444442
vt 0.479492188 0.794444442
vt 0.479492188 0.829999983
vt 0.510742188 0.829999983
vt 0.510742188 0.794444442
vt 0.512695312 0.794444442
vt 0.512695312 0.829999983
vt 0.543945312 0.829999983
vt 0.543945312 0.794444442
g kunxi_2-mesh_0
f 3/3/3 2/2/2 1/1/1
f 1/1/1 4/4/4 3/3/3
f 7/7/7 6/6/6 5/5/5
f 5/5/5 8/8/8 7/7/7
f 11/11/11 10/10/10 9/9/9
f 9/9/9 12/12/12 11/11/11
f 15/15/15 14/14/14 13/13/13
f 13/13/13 16/16/16 15/15/15
f 19/19/19 18/18/18 17/17/17
f 17/17/17 20/20/20 19/19/19
f 23/23/23 22/22/22 21/21/21
f 21/21/21 24/24/24 23/23/23
f 27/27/27 26/26/26 25/25/25
f 25/25/25 28/28/28 27/27/27
f 31/31/31 30/30/30 29/29/29
f 29/29/29 32/32/32 31/31/31
f 35/35/35 34/34/34 33/33/33
f 33/33/33 36/36/36 35/35/35
f 39/39/39 38/38/38 37/37/37
f 37/37/37 40/40/40 39/39/39
f 43/43/43 42/42/42 41/41/41
f 41/41/41 44/44/44 43/43/43
f 47/47/47 46/46/46 45/45/45
f 45/45/45 48/48/48 47/47/47
f 51/51/51 50/50/50 49/49/49
f 49/49/49 52/52/52 51/51/51
f 55/55/55 54/54/54 53/53/53
f 53/53/53 56/56/56 55/55/55
f 59/59/59 58/58/58 57/57/57
f 57/57/57 60/60/60 59/59/59
f 63/63/63 62/62/62 61/61/61
f 61/61/61 64/64/64 63/63/63
f 67/67/67 66/66/66 65/65/65
f 65/65/65 68/68/68 67/67/67
f 71/71/71 70/70/70 69/69/69
f 69/69/69 72/72/72 71/71/71
f 75/75/75 74/74/74 73/73/73
f 73/73/73 76/76/76 75/75/75
f 79/79/79 78/78/78 77/77/77
f 77/77/77 80/80/80 79/79/79
f 83/83/83 82/82/82 81/81/81
f 81/81/81 84/84/84 83/83/83
f 87/87/87 86/86/86 85/85/85
f 85/85/85 88/88/88 87/87/87
f 91/91/91 90/90/90 89/89/89
f 89/89/89 92/92/92 91/91/91
f 95/95/95 94/94/94 93/93/93
f 93/93/93 96/96/96 95/95/95
f 99/99/99 98/98/98 97/97/97
f 97/97/97 100/100/100 99/99/99
f 103/103/103 102/102/102 101/101/101
f 101/101/101 104/104/104 103/103/103
f 107/107/107 106/106/106 105/105/105
f 105/105/105 108/108/108 107/107/107
f 111/111/111 110/110/110 109/109/109
f 109/109/109 112/112/112 111/111/111
f 115/115/115 114/114/114 113/113/113
f 113/113/113 116/116/116 115/115/115
f 119/119/119 118/118/118 117/117/117
f 117/117/117 120/120/120 119/119/119
f 123/123/123 122/122/122 121/121/121
f 121/121/121 124/124/124 123/123/123
f 127/127/127 126/126/126 125/125/125
f 125/125/125 128/128/128 127/127/127
f 131/131/131 130/130/130 129/129/129
f 129/129/129 132/132/132 131/131/131
f 135/135/135 134/134/134 133/133/133
f 133/133/133 136/136/136 135/135/135
f 139/139/139 138/138/138 137/137/137
f 137/137/137 140/140/140 139/139/139
f 143/143/143 142/142/142 141/141/141
f 141/141/141 144/144/144 143/143/143
f 147/147/147 146/146/146 145/145/145
f 145/145/145 148/148/148 147/147/147
f 151/151/151 150/150/150 149/149/149
f 149/149/149 152/152/152 151/151/151
f 155/155/155 154/154/154 153/153/153
f 153/153/153 156/156/156 155/155/155
f 159/159/159 158/158/158 157/157/157
f 157/157/157 160/160/160 159/159/159
f 163/163/163 162/162/162 161/161/161
f 161/161/161 164/164/164 163/163/163
f 167/167/167 166/166/166 165/165/165
f 165/165/165 168/168/168 167/167/167
f 171/171/171 170/170/170 169/169/169
f 169/169/169 172/172/172 171/171/171
f 175/175/175 174/174/174 173/173/173
f 173/173/173 176/176/176 175/175/175
f 179/179/179 178/178/178 177/177/177
f 177/177/177 180/180/180 179/179/179
f 183/183/183 182/182/182 181/181/181
f 181/181/181 184/184/184 183/183/183
f 187/187/187 186/186/186 185/185/185
f 185/185/185 188/188/188 187/187/187
f 191/191/191 190/190/190 189/189/189
f 189/189/189 192/192/192 191/191/191
f 195/195/195 194/194/194 193/193/193
f 193/193/193 196/196/196 195/195/195
