g zuozhiya_2-mesh
v -96 415 0
v -96 895 0
v -416 895 0
v -416 415 0
v -416 415 0
v -416 895 0
v -704 895 0
v -704 415 0
v -128 63 0
v -128 415 0
v -416 415 0
v -416 63 0
v -320 895 0
v -320 991 0
v -544 991 0
v -544 895 0
v -544 895 0
v -544 991 0
v -736 991 0
v -736 895 0
v -32 95 0
v -32 223 0
v -128 223 0
v -128 95 0
v -32 223 0
v -32 351 0
v -128 351 0
v -128 223 0
v -576 351 0
v -576 415 0
v -736 415 0
v -736 351 0
v -416 351 0
v -416 415 0
v -576 415 0
v -576 351 0
v -416 255 0
v -416 351 0
v -512 351 0
v -512 255 0
v -256 0 0
v -256 63 0
v -384 63 0
v -384 0 0
v -704 671 0
v -704 895 0
v -736 895 0
v -736 671 0
v -704 447 0
v -704 671 0
v -736 671 0
v -736 447 0
v -64 703 0
v -64 895 0
v -96 895 0
v -96 703 0
v -512 287 0
v -512 351 0
v -608 351 0
v -608 287 0
v -64 543 0
v -64 703 0
v -96 703 0
v -96 543 0
v -736 511 0
v -736 639 0
v -768 639 0
v -768 511 0
v -608 287 0
v -608 351 0
v -672 351 0
v -672 287 0
v -736 639 0
v -736 767 0
v -768 767 0
v -768 639 0
v -544 255 0
v -544 287 0
v -608 287 0
v -608 255 0
v -768 543 0
v -768 607 0
v -782 607 0
v -782 543 0
v -768 703 0
v -768 767 0
v -782 767 0
v -782 703 0
v -544 991 0
v -544 1023 0
v -608 1023 0
v -608 991 0
v -640 991 0
v -640 1023 0
v -704 1023 0
v -704 991 0
v -352 991 0
v -352 1023 0
v -416 1023 0
v -416 991 0
v -416 991 0
v -416 1023 0
v -480 1023 0
v -480 991 0
v -0 287 0
v -0 351 0
v -32 351 0
v -32 287 0
v -0 223 0
v -0 287 0
v -32 287 0
v -32 223 0
v -224 31 0
v -224 63 0
v -256 63 0
v -256 31 0
v -96 63 0
v -96 95 0
v -128 95 0
v -128 63 0
v -672 319 0
v -672 351 0
v -704 351 0
v -704 319 0
v -704 991 0
v -704 1023 0
v -736 1023 0
v -736 991 0
v -768 511 0
v -768 543 0
v -782 543 0
v -782 511 0
v -608 255 0
v -608 287 0
v -640 287 0
v -640 255 0
vt 0.0009765625 0.00141245127
vt 0.0009765625 0.67937851
vt 0.313476562 0.67937851
vt 0.313476562 0.00141245127
vt 0.315429688 0.00141245127
vt 0.315429688 0.67937851
vt 0.596679688 0.67937851
vt 0.596679688 0.00141245127
vt 0.598632812 0.00141245127
vt 0.598632812 0.498587549
vt 0.879882812 0.498587549
vt 0.879882812 0.00141245127
vt 0.598632812 0.501412392
vt 0.598632812 0.637005687
vt 0.817382812 0.637005687
vt 0.817382812 0.501412392
vt 0.598632812 0.63983047
vt 0.598632812 0.775423765
vt 0.786132812 0.775423765
vt 0.786132812 0.63983047
vt 0.881835938 0.00141245127
vt 0.881835938 0.182203412
vt 0.975585938 0.182203412
vt 0.975585938 0.00141245127
vt 0.881835938 0.185028255
vt 0.881835938 0.365819216
vt 0.975585938 0.365819216
vt 0.975585938 0.185028255
vt 0.819335938 0.501412392
vt 0.819335938 0.591807902
vt 0.975585938 0.591807902
vt 0.975585938 0.501412392
vt 0.819335938 0.594632745
vt 0.819335938 0.685028255
vt 0.975585938 0.685028255
vt 0.975585938 0.594632745
vt 0.0009765625 0.682203412
vt 0.0009765625 0.817796588
vt 0.0947265625 0.817796588
vt 0.0947265625 0.682203412
vt 0.0966796875 0.682203412
vt 0.0966796875 0.772598863
vt 0.221679688 0.772598863
vt 0.221679688 0.682203412
vt 0.223632812 0.682203412
vt 0.223632812 0.998587549
vt 0.254882812 0.998587549
vt 0.254882812 0.682203412
vt 0.256835938 0.682203412
vt 0.256835938 0.998587549
vt 0.288085938 0.998587549
vt 0.288085938 0.682203412
vt 0.290039062 0.682203412
vt 0.290039062 0.953389823
vt 0.321289062 0.953389823
vt 0.321289062 0.682203412
vt 0.323242188 0.682203412
vt 0.323242188 0.772598863
vt 0.416992188 0.772598863
vt 0.416992188 0.682203412
vt 0.418945312 0.682203412
vt 0.418945312 0.908192098
vt 0.450195312 0.908192098
vt 0.450195312 0.682203412
vt 0.452148438 0.682203412
vt 0.452148438 0.862994313
vt 0.483398438 0.862994313
vt 0.483398438 0.682203412
vt 0.485351562 0.682203412
vt 0.485351562 0.772598863
vt 0.547851562 0.772598863
vt 0.547851562 0.682203412
vt 0.549804688 0.682203412
vt 0.549804688 0.862994313
vt 0.581054688 0.862994313
vt 0.581054688 0.682203412
vt 0.819335938 0.687853098
vt 0.819335938 0.733050823
vt 0.881835938 0.733050823
vt 0.881835938 0.687853098
vt 0.977539062 0.00141245127
vt 0.977539062 0.0918079019
vt 0.9921875 0.0918079019
vt 0.9921875 0.00141245127
vt 0.977539062 0.0946327448
vt 0.977539062 0.185028255
vt 0.9921875 0.185028255
vt 0.9921875 0.0946327448
vt 0.883789062 0.687853098
vt 0.883789062 0.733050823
vt 0.946289062 0.733050823
vt 0.946289062 0.687853098
vt 0.819335938 0.735875726
vt 0.819335938 0.781073451
vt 0.881835938 0.781073451
vt 0.881835938 0.735875726
vt 0.883789062 0.735875726
vt 0.883789062 0.781073451
vt 0.946289062 0.781073451
vt 0.946289062 0.735875726
vt 0.0966796875 0.775423765
vt 0.0966796875 0.82062149
vt 0.159179688 0.82062149
vt 0.159179688 0.775423765
vt 0.948242188 0.687853098
vt 0.948242188 0.778248608
vt 0.979492188 0.778248608
vt 0.979492188 0.687853098
vt 0.161132812 0.775423765
vt 0.161132812 0.865819216
vt 0.192382812 0.865819216
vt 0.192382812 0.775423765
vt 0.323242188 0.775423765
vt 0.323242188 0.82062149
vt 0.354492188 0.82062149
vt 0.354492188 0.775423765
vt 0.356445312 0.775423765
vt 0.356445312 0.82062149
vt 0.387695312 0.82062149
vt 0.387695312 0.775423765
vt 0.485351562 0.775423765
vt 0.485351562 0.82062149
vt 0.516601562 0.82062149
vt 0.516601562 0.775423765
vt 0.598632812 0.778248608
vt 0.598632812 0.823446333
vt 0.629882812 0.823446333
vt 0.629882812 0.778248608
vt 0.981445312 0.187853098
vt 0.981445312 0.233050823
vt 0.99609375 0.233050823
vt 0.99609375 0.187853098
vt 0.631835938 0.778248608
vt 0.631835938 0.823446333
vt 0.663085938 0.823446333
vt 0.663085938 0.778248608
g zuozhiya_2-mesh_0
f 3/3/3 2/2/2 1/1/1
f 1/1/1 4/4/4 3/3/3
f 7/7/7 6/6/6 5/5/5
f 5/5/5 8/8/8 7/7/7
f 11/11/11 10/10/10 9/9/9
f 9/9/9 12/12/12 11/11/11
f 15/15/15 14/14/14 13/13/13
f 13/13/13 16/16/16 15/15/15
f 19/19/19 18/18/18 17/17/17
f 17/17/17 20/20/20 19/19/19
f 23/23/23 22/22/22 21/21/21
f 21/21/21 24/24/24 23/23/23
f 27/27/27 26/26/26 25/25/25
f 25/25/25 28/28/28 27/27/27
f 31/31/31 30/30/30 29/29/29
f 29/29/29 32/32/32 31/31/31
f 35/35/35 34/34/34 33/33/33
f 33/33/33 36/36/36 35/35/35
f 39/39/39 38/38/38 37/37/37
f 37/37/37 40/40/40 39/39/39
f 43/43/43 42/42/42 41/41/41
f 41/41/41 44/44/44 43/43/43
f 47/47/47 46/46/46 45/45/45
f 45/45/45 48/48/48 47/47/47
f 51/51/51 50/50/50 49/49/49
f 49/49/49 52/52/52 51/51/51
f 55/55/55 54/54/54 53/53/53
f 53/53/53 56/56/56 55/55/55
f 59/59/59 58/58/58 57/57/57
f 57/57/57 60/60/60 59/59/59
f 63/63/63 62/62/62 61/61/61
f 61/61/61 64/64/64 63/63/63
f 67/67/67 66/66/66 65/65/65
f 65/65/65 68/68/68 67/67/67
f 71/71/71 70/70/70 69/69/69
f 69/69/69 72/72/72 71/71/71
f 75/75/75 74/74/74 73/73/73
f 73/73/73 76/76/76 75/75/75
f 79/79/79 78/78/78 77/77/77
f 77/77/77 80/80/80 79/79/79
f 83/83/83 82/82/82 81/81/81
f 81/81/81 84/84/84 83/83/83
f 87/87/87 86/86/86 85/85/85
f 85/85/85 88/88/88 87/87/87
f 91/91/91 90/90/90 89/89/89
f 89/89/89 92/92/92 91/91/91
f 95/95/95 94/94/94 93/93/93
f 93/93/93 96/96/96 95/95/95
f 99/99/99 98/98/98 97/97/97
f 97/97/97 100/100/100 99/99/99
f 103/103/103 102/102/102 101/101/101
f 101/101/101 104/104/104 103/103/103
f 107/107/107 106/106/106 105/105/105
f 105/105/105 108/108/108 107/107/107
f 111/111/111 110/110/110 109/109/109
f 109/109/109 112/112/112 111/111/111
f 115/115/115 114/114/114 113/113/113
f 113/113/113 116/116/116 115/115/115
f 119/119/119 118/118/118 117/117/117
f 117/117/117 120/120/120 119/119/119
f 123/123/123 122/122/122 121/121/121
f 121/121/121 124/124/124 123/123/123
f 127/127/127 126/126/126 125/125/125
f 125/125/125 128/128/128 127/127/127
f 131/131/131 130/130/130 129/129/129
f 129/129/129 132/132/132 131/131/131
f 135/135/135 134/134/134 133/133/133
f 133/133/133 136/136/136 135/135/135
