g moli-mesh
v -96 276 0
v -96 596 0
v -448 596 0
v -448 276 0
v -96 596 0
v -96 916 0
v -448 916 0
v -448 596 0
v -448 436 0
v -448 628 0
v -576 628 0
v -576 436 0
v -448 628 0
v -448 820 0
v -576 820 0
v -576 628 0
v -576 500 0
v -576 660 0
v -681 660 0
v -681 500 0
v -224 0 0
v -224 116 0
v -320 116 0
v -320 0 0
v -288 148 0
v -288 244 0
v -416 244 0
v -416 148 0
v -32 564 0
v -32 756 0
v -96 756 0
v -96 564 0
v -32 756 0
v -32 948 0
v -96 948 0
v -96 756 0
v -64 52 0
v -64 148 0
v -128 148 0
v -128 52 0
v -32 340 0
v -32 436 0
v -96 436 0
v -96 340 0
v -128 148 0
v -128 244 0
v -192 244 0
v -192 148 0
v -128 52 0
v -128 148 0
v -192 148 0
v -192 52 0
v -96 916 0
v -96 948 0
v -256 948 0
v -256 916 0
v -256 916 0
v -256 948 0
v -416 948 0
v -416 916 0
v -32 276 0
v -32 340 0
v -96 340 0
v -96 276 0
v -192 84 0
v -192 180 0
v -224 180 0
v -224 84 0
v -192 180 0
v -192 276 0
v -224 276 0
v -224 180 0
v -0 852 0
v -0 948 0
v -32 948 0
v -32 852 0
v -0 756 0
v -0 852 0
v -32 852 0
v -32 756 0
v -448 820 0
v -448 852 0
v -512 852 0
v -512 820 0
v -320 52 0
v -320 116 0
v -352 116 0
v -352 52 0
v -224 212 0
v -224 276 0
v -256 276 0
v -256 212 0
v -64 500 0
v -64 564 0
v -96 564 0
v -96 500 0
v -64 244 0
v -64 276 0
v -128 276 0
v -128 244 0
v -480 372 0
v -480 436 0
v -512 436 0
v -512 372 0
v -576 436 0
v -576 500 0
v -608 500 0
v -608 436 0
v -576 660 0
v -576 692 0
v -640 692 0
v -640 660 0
v -384 244 0
v -384 276 0
v -448 276 0
v -448 244 0
v -256 116 0
v -256 148 0
v -320 148 0
v -320 116 0
v -320 244 0
v -320 276 0
v -384 276 0
v -384 244 0
v -320 116 0
v -320 148 0
v -384 148 0
v -384 116 0
v -448 372 0
v -448 436 0
v -480 436 0
v -480 372 0
v -256 244 0
v -256 276 0
v -288 276 0
v -288 244 0
v -512 404 0
v -512 436 0
v -544 436 0
v -544 404 0
v -160 244 0
v -160 276 0
v -192 276 0
v -192 244 0
v -256 148 0
v -256 180 0
v -288 180 0
v -288 148 0
v -352 84 0
v -352 116 0
v -384 116 0
v -384 84 0
v -192 20 0
v -192 52 0
v -224 52 0
v -224 20 0
v -96 148 0
v -96 180 0
v -128 180 0
v -128 148 0
v -64 436 0
v -64 468 0
v -96 468 0
v -96 436 0
v -640 660 0
v -640 692 0
v -672 692 0
v -672 660 0
v -224 180 0
v -224 212 0
v -256 212 0
v -256 180 0
v -448 340 0
v -448 372 0
v -480 372 0
v -480 340 0
v -320 20 0
v -320 52 0
v -352 52 0
v -352 20 0
v -608 468 0
v -608 500 0
v -640 500 0
v -640 468 0
v -0 660 0
v -0 692 0
v -32 692 0
v -32 660 0
v -576 692 0
v -576 724 0
v -608 724 0
v -608 692 0
vt 0.0009765625 0.00193798542
vt 0.0009765625 0.622093022
vt 0.344726562 0.622093022
vt 0.344726562 0.00193798542
vt 0.346679688 0.00193798542
vt 0.346679688 0.622093022
vt 0.690429688 0.622093022
vt 0.690429688 0.00193798542
vt 0.692382812 0.00193798542
vt 0.692382812 0.374031007
vt 0.817382812 0.374031007
vt 0.817382812 0.00193798542
vt 0.819335938 0.00193798542
vt 0.819335938 0.374031007
vt 0.944335938 0.374031007
vt 0.944335938 0.00193798542
vt 0.692382812 0.377906978
vt 0.692382812 0.687984467
vt 0.795898438 0.687984467
vt 0.795898438 0.377906978
vt 0.797851562 0.377906978
vt 0.797851562 0.604651153
vt 0.891601562 0.604651153
vt 0.891601562 0.377906978
vt 0.797851562 0.608527124
vt 0.797851562 0.794573665
vt 0.922851562 0.794573665
vt 0.922851562 0.608527124
vt 0.924804688 0.377906978
vt 0.924804688 0.75
vt 0.987304688 0.75
vt 0.987304688 0.377906978
vt 0.0009765625 0.625968993
vt 0.0009765625 0.998062015
vt 0.0634765625 0.998062015
vt 0.0634765625 0.625968993
vt 0.0654296875 0.625968993
vt 0.0654296875 0.812015533
vt 0.127929688 0.812015533
vt 0.127929688 0.625968993
vt 0.129882812 0.625968993
vt 0.129882812 0.812015533
vt 0.192382812 0.812015533
vt 0.192382812 0.625968993
vt 0.194335938 0.625968993
vt 0.194335938 0.812015533
vt 0.256835938 0.812015533
vt 0.256835938 0.625968993
vt 0.258789062 0.625968993
vt 0.258789062 0.812015533
vt 0.321289062 0.812015533
vt 0.321289062 0.625968993
vt 0.323242188 0.625968993
vt 0.323242188 0.687984467
vt 0.479492188 0.687984467
vt 0.479492188 0.625968993
vt 0.481445312 0.625968993
vt 0.481445312 0.687984467
vt 0.637695312 0.687984467
vt 0.637695312 0.625968993
vt 0.323242188 0.691860437
vt 0.323242188 0.815891504
vt 0.385742188 0.815891504
vt 0.385742188 0.691860437
vt 0.639648438 0.625968993
vt 0.639648438 0.812015533
vt 0.670898438 0.812015533
vt 0.670898438 0.625968993
vt 0.387695312 0.691860437
vt 0.387695312 0.877906978
vt 0.418945312 0.877906978
vt 0.418945312 0.691860437
vt 0.420898438 0.691860437
vt 0.420898438 0.877906978
vt 0.452148438 0.877906978
vt 0.452148438 0.691860437
vt 0.454101562 0.691860437
vt 0.454101562 0.877906978
vt 0.485351562 0.877906978
vt 0.485351562 0.691860437
vt 0.487304688 0.691860437
vt 0.487304688 0.753875971
vt 0.549804688 0.753875971
vt 0.549804688 0.691860437
vt 0.551757812 0.691860437
vt 0.551757812 0.815891504
vt 0.583007812 0.815891504
vt 0.583007812 0.691860437
vt 0.584960938 0.691860437
vt 0.584960938 0.815891504
vt 0.616210938 0.815891504
vt 0.616210938 0.691860437
vt 0.692382812 0.691860437
vt 0.692382812 0.815891504
vt 0.723632812 0.815891504
vt 0.723632812 0.691860437
vt 0.725585938 0.691860437
vt 0.725585938 0.753875971
vt 0.788085938 0.753875971
vt 0.788085938 0.691860437
vt 0.924804688 0.753875971
vt 0.924804688 0.877906978
vt 0.956054688 0.877906978
vt 0.956054688 0.753875971
vt 0.958007812 0.753875971
vt 0.958007812 0.877906978
vt 0.989257812 0.877906978
vt 0.989257812 0.753875971
vt 0.487304688 0.757751942
vt 0.487304688 0.819767475
vt 0.549804688 0.819767475
vt 0.549804688 0.757751942
vt 0.725585938 0.757751942
vt 0.725585938 0.819767475
vt 0.788085938 0.819767475
vt 0.788085938 0.757751942
vt 0.797851562 0.798449636
vt 0.797851562 0.860465109
vt 0.860351562 0.860465109
vt 0.860351562 0.798449636
vt 0.0654296875 0.815891504
vt 0.0654296875 0.877906978
vt 0.127929688 0.877906978
vt 0.127929688 0.815891504
vt 0.129882812 0.815891504
vt 0.129882812 0.877906978
vt 0.192382812 0.877906978
vt 0.192382812 0.815891504
vt 0.862304688 0.798449636
vt 0.862304688 0.922480643
vt 0.893554688 0.922480643
vt 0.893554688 0.798449636
vt 0.194335938 0.815891504
vt 0.194335938 0.877906978
vt 0.225585938 0.877906978
vt 0.225585938 0.815891504
vt 0.227539062 0.815891504
vt 0.227539062 0.877906978
vt 0.258789062 0.877906978
vt 0.258789062 0.815891504
vt 0.260742188 0.815891504
vt 0.260742188 0.877906978
vt 0.291992188 0.877906978
vt 0.291992188 0.815891504
vt 0.639648438 0.815891504
vt 0.639648438 0.877906978
vt 0.670898438 0.877906978
vt 0.670898438 0.815891504
vt 0.323242188 0.819767475
vt 0.323242188 0.881782949
vt 0.354492188 0.881782949
vt 0.354492188 0.819767475
vt 0.551757812 0.819767475
vt 0.551757812 0.881782949
vt 0.583007812 0.881782949
vt 0.583007812 0.819767475
vt 0.584960938 0.819767475
vt 0.584960938 0.881782949
vt 0.616210938 0.881782949
vt 0.616210938 0.819767475
vt 0.692382812 0.819767475
vt 0.692382812 0.881782949
vt 0.723632812 0.881782949
vt 0.723632812 0.819767475
vt 0.487304688 0.823643446
vt 0.487304688 0.88565892
vt 0.518554688 0.88565892
vt 0.518554688 0.823643446
vt 0.725585938 0.823643446
vt 0.725585938 0.88565892
vt 0.756835938 0.88565892
vt 0.756835938 0.823643446
vt 0.758789062 0.823643446
vt 0.758789062 0.88565892
vt 0.790039062 0.88565892
vt 0.790039062 0.823643446
vt 0.797851562 0.86434108
vt 0.797851562 0.926356614
vt 0.829101562 0.926356614
vt 0.829101562 0.86434108
vt 0.0654296875 0.881782949
vt 0.0654296875 0.943798423
vt 0.0966796875 0.943798423
vt 0.0966796875 0.881782949
vt 0.0986328125 0.881782949
vt 0.0986328125 0.943798423
vt 0.129882812 0.943798423
vt 0.129882812 0.881782949
vt 0.131835938 0.881782949
vt 0.131835938 0.943798423
vt 0.163085938 0.943798423
vt 0.163085938 0.881782949
g moli-mesh_0
f 3/3/3 2/2/2 1/1/1
f 1/1/1 4/4/4 3/3/3
f 7/7/7 6/6/6 5/5/5
f 5/5/5 8/8/8 7/7/7
f 11/11/11 10/10/10 9/9/9
f 9/9/9 12/12/12 11/11/11
f 15/15/15 14/14/14 13/13/13
f 13/13/13 16/16/16 15/15/15
f 19/19/19 18/18/18 17/17/17
f 17/17/17 20/20/20 19/19/19
f 23/23/23 22/22/22 21/21/21
f 21/21/21 24/24/24 23/23/23
f 27/27/27 26/26/26 25/25/25
f 25/25/25 28/28/28 27/27/27
f 31/31/31 30/30/30 29/29/29
f 29/29/29 32/32/32 31/31/31
f 35/35/35 34/34/34 33/33/33
f 33/33/33 36/36/36 35/35/35
f 39/39/39 38/38/38 37/37/37
f 37/37/37 40/40/40 39/39/39
f 43/43/43 42/42/42 41/41/41
f 41/41/41 44/44/44 43/43/43
f 47/47/47 46/46/46 45/45/45
f 45/45/45 48/48/48 47/47/47
f 51/51/51 50/50/50 49/49/49
f 49/49/49 52/52/52 51/51/51
f 55/55/55 54/54/54 53/53/53
f 53/53/53 56/56/56 55/55/55
f 59/59/59 58/58/58 57/57/57
f 57/57/57 60/60/60 59/59/59
f 63/63/63 62/62/62 61/61/61
f 61/61/61 64/64/64 63/63/63
f 67/67/67 66/66/66 65/65/65
f 65/65/65 68/68/68 67/67/67
f 71/71/71 70/70/70 69/69/69
f 69/69/69 72/72/72 71/71/71
f 75/75/75 74/74/74 73/73/73
f 73/73/73 76/76/76 75/75/75
f 79/79/79 78/78/78 77/77/77
f 77/77/77 80/80/80 79/79/79
f 83/83/83 82/82/82 81/81/81
f 81/81/81 84/84/84 83/83/83
f 87/87/87 86/86/86 85/85/85
f 85/85/85 88/88/88 87/87/87
f 91/91/91 90/90/90 89/89/89
f 89/89/89 92/92/92 91/91/91
f 95/95/95 94/94/94 93/93/93
f 93/93/93 96/96/96 95/95/95
f 99/99/99 98/98/98 97/97/97
f 97/97/97 100/100/100 99/99/99
f 103/103/103 102/102/102 101/101/101
f 101/101/101 104/104/104 103/103/103
f 107/107/107 106/106/106 105/105/105
f 105/105/105 108/108/108 107/107/107
f 111/111/111 110/110/110 109/109/109
f 109/109/109 112/112/112 111/111/111
f 115/115/115 114/114/114 113/113/113
f 113/113/113 116/116/116 115/115/115
f 119/119/119 118/118/118 117/117/117
f 117/117/117 120/120/120 119/119/119
f 123/123/123 122/122/122 121/121/121
f 121/121/121 124/124/124 123/123/123
f 127/127/127 126/126/126 125/125/125
f 125/125/125 128/128/128 127/127/127
f 131/131/131 130/130/130 129/129/129
f 129/129/129 132/132/132 131/131/131
f 135/135/135 134/134/134 133/133/133
f 133/133/133 136/136/136 135/135/135
f 139/139/139 138/138/138 137/137/137
f 137/137/137 140/140/140 139/139/139
f 143/143/143 142/142/142 141/141/141
f 141/141/141 144/144/144 143/143/143
f 147/147/147 146/146/146 145/145/145
f 145/145/145 148/148/148 147/147/147
f 151/151/151 150/150/150 149/149/149
f 149/149/149 152/152/152 151/151/151
f 155/155/155 154/154/154 153/153/153
f 153/153/153 156/156/156 155/155/155
f 159/159/159 158/158/158 157/157/157
f 157/157/157 160/160/160 159/159/159
f 163/163/163 162/162/162 161/161/161
f 161/161/161 164/164/164 163/163/163
f 167/167/167 166/166/166 165/165/165
f 165/165/165 168/168/168 167/167/167
f 171/171/171 170/170/170 169/169/169
f 169/169/169 172/172/172 171/171/171
f 175/175/175 174/174/174 173/173/173
f 173/173/173 176/176/176 175/175/175
f 179/179/179 178/178/178 177/177/177
f 177/177/177 180/180/180 179/179/179
f 183/183/183 182/182/182 181/181/181
f 181/181/181 184/184/184 183/183/183
f 187/187/187 186/186/186 185/185/185
f 185/185/185 188/188/188 187/187/187
f 191/191/191 190/190/190 189/189/189
f 189/189/189 192/192/192 191/191/191
