g hemin_2-mesh
v -96 144 0
v -96 1488 0
v -992 1488 0
v -992 144 0
v -992 144 0
v -992 1488 0
v -1856 1488 0
v -1856 144 0
v -992 1488 0
v -992 1744 0
v -1632 1744 0
v -1632 1488 0
v -352 1488 0
v -352 1744 0
v -992 1744 0
v -992 1488 0
v -448 0 0
v -448 144 0
v -1024 144 0
v -1024 0 0
v -1024 0 0
v -1024 144 0
v -1568 144 0
v -1568 0 0
v -1856 656 0
v -1856 1168 0
v -2016 1168 0
v -2016 656 0
v -1856 176 0
v -1856 656 0
v -2016 656 0
v -2016 176 0
v -32 240 0
v -32 816 0
v -96 816 0
v -96 240 0
v -32 816 0
v -32 1392 0
v -96 1392 0
v -96 816 0
v -1312 1744 0
v -1312 1968 0
v -1472 1968 0
v -1472 1744 0
v -224 48 0
v -224 144 0
v -448 144 0
v -448 48 0
v -1696 48 0
v -1696 144 0
v -1888 144 0
v -1888 48 0
v -1856 1168 0
v -1856 1360 0
v -1952 1360 0
v -1952 1168 0
v -256 1488 0
v -256 1680 0
v -352 1680 0
v -352 1488 0
v -1568 16 0
v -1568 144 0
v -1696 144 0
v -1696 16 0
v -480 1744 0
v -480 1872 0
v -608 1872 0
v -608 1744 0
v -2016 528 0
v -2016 848 0
v -2047 848 0
v -2047 528 0
v -960 1744 0
v -960 1776 0
v -1280 1776 0
v -1280 1744 0
v -640 1744 0
v -640 1776 0
v -960 1776 0
v -960 1744 0
v -2016 208 0
v -2016 528 0
v -2047 528 0
v -2047 208 0
v -1472 1744 0
v -1472 1840 0
v -1568 1840 0
v -1568 1744 0
v -0 752 0
v -0 1040 0
v -32 1040 0
v -32 752 0
v -0 464 0
v -0 752 0
v -32 752 0
v -32 464 0
v -416 1744 0
v -416 1808 0
v -480 1808 0
v -480 1744 0
v -1568 1840 0
v -1568 1904 0
v -1632 1904 0
v -1632 1840 0
v -1952 1328 0
v -1952 1392 0
v -2016 1392 0
v -2016 1328 0
v -768 1776 0
v -768 1808 0
v -896 1808 0
v -896 1776 0
v -896 1776 0
v -896 1808 0
v -1024 1808 0
v -1024 1776 0
v -1664 1488 0
v -1664 1520 0
v -1760 1520 0
v -1760 1488 0
v -1632 1584 0
v -1632 1680 0
v -1664 1680 0
v -1664 1584 0
v -1632 1488 0
v -1632 1584 0
v -1664 1584 0
v -1664 1488 0
v -1056 1776 0
v -1056 1808 0
v -1152 1808 0
v -1152 1776 0
v -1664 1616 0
v -1664 1680 0
v -1696 1680 0
v -1696 1616 0
v -288 1680 0
v -288 1712 0
v -352 1712 0
v -352 1680 0
v -1504 1840 0
v -1504 1872 0
v -1568 1872 0
v -1568 1840 0
v -512 1872 0
v -512 1904 0
v -576 1904 0
v -576 1872 0
v -128 1488 0
v -128 1520 0
v -192 1520 0
v -192 1488 0
v -1632 1712 0
v -1632 1744 0
v -1696 1744 0
v -1696 1712 0
v -1888 80 0
v -1888 144 0
v -1920 144 0
v -1920 80 0
v -32 48 0
v -32 112 0
v -64 112 0
v -64 48 0
v -2016 0 0
v -2016 48 0
v -2047 48 0
v -2047 0 0
v -160 112 0
v -160 144 0
v -224 144 0
v -224 112 0
v -1664 1520 0
v -1664 1584 0
v -1696 1584 0
v -1696 1520 0
v -1856 1360 0
v -1856 1424 0
v -1888 1424 0
v -1888 1360 0
v -1952 1168 0
v -1952 1232 0
v -1984 1232 0
v -1984 1168 0
v -1632 1744 0
v -1632 1776 0
v -1696 1776 0
v -1696 1744 0
v -224 1552 0
v -224 1616 0
v -256 1616 0
v -256 1552 0
v -224 1488 0
v -224 1552 0
v -256 1552 0
v -256 1488 0
v -1568 1744 0
v -1568 1776 0
v -1632 1776 0
v -1632 1744 0
v -1760 1488 0
v -1760 1520 0
v -1824 1520 0
v -1824 1488 0
v -1312 1968 0
v -1312 2000 0
v -1376 2000 0
v -1376 1968 0
v -1376 1968 0
v -1376 2000 0
v -1440 2000 0
v -1440 1968 0
v -384 16 0
v -384 48 0
v -448 48 0
v -448 16 0
v -928 1808 0
v -928 1840 0
v -992 1840 0
v -992 1808 0
v -1152 1776 0
v -1152 1808 0
v -1216 1808 0
v -1216 1776 0
v -1920 144 0
v -1920 176 0
v -1984 176 0
v -1984 144 0
v -1856 144 0
v -1856 176 0
v -1920 176 0
v -1920 144 0
v -320 16 0
v -320 48 0
v -384 48 0
v -384 16 0
v -1888 1360 0
v -1888 1392 0
v -1920 1392 0
v -1920 1360 0
v -1952 1296 0
v -1952 1328 0
v -1984 1328 0
v -1984 1296 0
v -1696 1520 0
v -1696 1552 0
v -1728 1552 0
v -1728 1520 0
v -64 1392 0
v -64 1424 0
v -96 1424 0
v -96 1392 0
v -192 80 0
v -192 112 0
v -224 112 0
v -224 80 0
v -64 48 0
v -64 80 0
v -96 80 0
v -96 48 0
v -64 208 0
v -64 240 0
v -96 240 0
v -96 208 0
v -1920 112 0
v -1920 144 0
v -1952 144 0
v -1952 112 0
v -448 1808 0
v -448 1840 0
v -480 1840 0
v -480 1808 0
v -1280 1808 0
v -1280 1840 0
v -1312 1840 0
v -1312 1808 0
v -192 1488 0
v -192 1520 0
v -224 1520 0
v -224 1488 0
v -992 1808 0
v -992 1840 0
v -1024 1840 0
v -1024 1808 0
v -384 1744 0
v -384 1776 0
v -416 1776 0
v -416 1744 0
v -192 1520 0
v -192 1552 0
v -224 1552 0
v -224 1520 0
v -1568 1808 0
v -1568 1840 0
v -1600 1840 0
v -1600 1808 0
v -608 1776 0
v -608 1808 0
v -640 1808 0
v -640 1776 0
vt 0.00048828125 0.000518143177
vt 0.00048828125 0.696891189
vt 0.437988281 0.696891189
vt 0.437988281 0.000518143177
vt 0.438964844 0.000518143177
vt 0.438964844 0.696891189
vt 0.860839844 0.696891189
vt 0.860839844 0.000518143177
vt 0.00048828125 0.697927475
vt 0.00048828125 0.830569983
vt 0.312988281 0.830569983
vt 0.312988281 0.697927475
vt 0.313964844 0.697927475
vt 0.313964844 0.830569983
vt 0.626464844 0.830569983
vt 0.626464844 0.697927475
vt 0.627441406 0.697927475
vt 0.627441406 0.773056984
vt 0.908691406 0.773056984
vt 0.908691406 0.697927475
vt 0.627441406 0.77409327
vt 0.627441406 0.849222779
vt 0.893066406 0.849222779
vt 0.893066406 0.77409327
vt 0.909667969 0.000518143177
vt 0.909667969 0.265803099
vt 0.987792969 0.265803099
vt 0.987792969 0.000518143177
vt 0.909667969 0.266839385
vt 0.909667969 0.515544057
vt 0.987792969 0.515544057
vt 0.987792969 0.266839385
vt 0.909667969 0.516580343
vt 0.909667969 0.815025926
vt 0.940917969 0.815025926
vt 0.940917969 0.516580343
vt 0.941894531 0.516580343
vt 0.941894531 0.815025926
vt 0.973144531 0.815025926
vt 0.973144531 0.516580343
vt 0.909667969 0.816062212
vt 0.909667969 0.932124376
vt 0.987792969 0.932124376
vt 0.987792969 0.816062212
vt 0.00048828125 0.831606209
vt 0.00048828125 0.881347179
vt 0.109863281 0.881347179
vt 0.109863281 0.831606209
vt 0.110839844 0.831606209
vt 0.110839844 0.881347179
vt 0.204589844 0.881347179
vt 0.204589844 0.831606209
vt 0.205566406 0.831606209
vt 0.205566406 0.93108809
vt 0.252441406 0.93108809
vt 0.252441406 0.831606209
vt 0.253417969 0.831606209
vt 0.253417969 0.93108809
vt 0.300292969 0.93108809
vt 0.300292969 0.831606209
vt 0.301269531 0.831606209
vt 0.301269531 0.897927463
vt 0.363769531 0.897927463
vt 0.363769531 0.831606209
vt 0.364746094 0.831606209
vt 0.364746094 0.897927463
vt 0.427246094 0.897927463
vt 0.427246094 0.831606209
vt 0.428222656 0.831606209
vt 0.428222656 0.997409344
vt 0.443847656 0.997409344
vt 0.443847656 0.831606209
vt 0.444824219 0.831606209
vt 0.444824219 0.848186493
vt 0.601074219 0.848186493
vt 0.601074219 0.831606209
vt 0.444824219 0.849222779
vt 0.444824219 0.865803123
vt 0.601074219 0.865803123
vt 0.601074219 0.849222779
vt 0.602050781 0.831606209
vt 0.602050781 0.997409344
vt 0.617675781 0.997409344
vt 0.617675781 0.831606209
vt 0.627441406 0.850259066
vt 0.627441406 0.899999976
vt 0.674316406 0.899999976
vt 0.674316406 0.850259066
vt 0.675292969 0.850259066
vt 0.675292969 0.999481857
vt 0.690917969 0.999481857
vt 0.690917969 0.850259066
vt 0.691894531 0.850259066
vt 0.691894531 0.999481857
vt 0.707519531 0.999481857
vt 0.707519531 0.850259066
vt 0.708496094 0.850259066
vt 0.708496094 0.883419693
vt 0.739746094 0.883419693
vt 0.739746094 0.850259066
vt 0.740722656 0.850259066
vt 0.740722656 0.883419693
vt 0.771972656 0.883419693
vt 0.771972656 0.850259066
vt 0.772949219 0.850259066
vt 0.772949219 0.883419693
vt 0.804199219 0.883419693
vt 0.804199219 0.850259066
vt 0.805175781 0.850259066
vt 0.805175781 0.866839409
vt 0.867675781 0.866839409
vt 0.867675781 0.850259066
vt 0.444824219 0.866839409
vt 0.444824219 0.883419693
vt 0.507324219 0.883419693
vt 0.507324219 0.866839409
vt 0.508300781 0.866839409
vt 0.508300781 0.883419693
vt 0.555175781 0.883419693
vt 0.555175781 0.866839409
vt 0.868652344 0.850259066
vt 0.868652344 0.899999976
vt 0.884277344 0.899999976
vt 0.884277344 0.850259066
vt 0.885253906 0.850259066
vt 0.885253906 0.899999976
vt 0.900878906 0.899999976
vt 0.900878906 0.850259066
vt 0.805175781 0.867875636
vt 0.805175781 0.884455979
vt 0.852050781 0.884455979
vt 0.852050781 0.867875636
vt 0.556152344 0.866839409
vt 0.556152344 0.899999976
vt 0.571777344 0.899999976
vt 0.571777344 0.866839409
vt 0.00048828125 0.882383406
vt 0.00048828125 0.898963749
vt 0.0317382812 0.898963749
vt 0.0317382812 0.882383406
vt 0.0327148438 0.882383406
vt 0.0327148438 0.898963749
vt 0.0639648438 0.898963749
vt 0.0639648438 0.882383406
vt 0.0649414062 0.882383406
vt 0.0649414062 0.898963749
vt 0.0961914062 0.898963749
vt 0.0961914062 0.882383406
vt 0.0971679688 0.882383406
vt 0.0971679688 0.898963749
vt 0.128417969 0.898963749
vt 0.128417969 0.882383406
vt 0.129394531 0.882383406
vt 0.129394531 0.898963749
vt 0.160644531 0.898963749
vt 0.160644531 0.882383406
vt 0.572753906 0.866839409
vt 0.572753906 0.899999976
vt 0.588378906 0.899999976
vt 0.588378906 0.866839409
vt 0.161621094 0.882383406
vt 0.161621094 0.915544033
vt 0.177246094 0.915544033
vt 0.177246094 0.882383406
vt 0.178222656 0.882383406
vt 0.178222656 0.907772005
vt 0.193847656 0.907772005
vt 0.193847656 0.882383406
vt 0.444824219 0.884455979
vt 0.444824219 0.901036263
vt 0.476074219 0.901036263
vt 0.476074219 0.884455979
vt 0.477050781 0.884455979
vt 0.477050781 0.917616606
vt 0.492675781 0.917616606
vt 0.492675781 0.884455979
vt 0.493652344 0.884455979
vt 0.493652344 0.917616606
vt 0.509277344 0.917616606
vt 0.509277344 0.884455979
vt 0.510253906 0.884455979
vt 0.510253906 0.917616606
vt 0.525878906 0.917616606
vt 0.525878906 0.884455979
vt 0.708496094 0.884455979
vt 0.708496094 0.901036263
vt 0.739746094 0.901036263
vt 0.739746094 0.884455979
vt 0.526855469 0.884455979
vt 0.526855469 0.917616606
vt 0.542480469 0.917616606
vt 0.542480469 0.884455979
vt 0.740722656 0.884455979
vt 0.740722656 0.917616606
vt 0.756347656 0.917616606
vt 0.756347656 0.884455979
vt 0.757324219 0.884455979
vt 0.757324219 0.901036263
vt 0.788574219 0.901036263
vt 0.788574219 0.884455979
vt 0.805175781 0.885492206
vt 0.805175781 0.902072549
vt 0.836425781 0.902072549
vt 0.836425781 0.885492206
vt 0.301269531 0.898963749
vt 0.301269531 0.915544033
vt 0.332519531 0.915544033
vt 0.332519531 0.898963749
vt 0.333496094 0.898963749
vt 0.333496094 0.915544033
vt 0.364746094 0.915544033
vt 0.364746094 0.898963749
vt 0.365722656 0.898963749
vt 0.365722656 0.915544033
vt 0.396972656 0.915544033
vt 0.396972656 0.898963749
vt 0.00048828125 0.899999976
vt 0.00048828125 0.916580319
vt 0.0317382812 0.916580319
vt 0.0317382812 0.899999976
vt 0.0327148438 0.899999976
vt 0.0327148438 0.916580319
vt 0.0639648438 0.916580319
vt 0.0639648438 0.899999976
vt 0.0649414062 0.899999976
vt 0.0649414062 0.916580319
vt 0.0961914062 0.916580319
vt 0.0961914062 0.899999976
vt 0.0971679688 0.899999976
vt 0.0971679688 0.916580319
vt 0.128417969 0.916580319
vt 0.128417969 0.899999976
vt 0.129394531 0.899999976
vt 0.129394531 0.916580319
vt 0.160644531 0.916580319
vt 0.160644531 0.899999976
vt 0.837402344 0.885492206
vt 0.837402344 0.902072549
vt 0.853027344 0.902072549
vt 0.853027344 0.885492206
vt 0.397949219 0.898963749
vt 0.397949219 0.915544033
vt 0.413574219 0.915544033
vt 0.413574219 0.898963749
vt 0.556152344 0.901036263
vt 0.556152344 0.917616606
vt 0.571777344 0.917616606
vt 0.571777344 0.901036263
vt 0.572753906 0.901036263
vt 0.572753906 0.917616606
vt 0.588378906 0.917616606
vt 0.588378906 0.901036263
vt 0.627441406 0.901036263
vt 0.627441406 0.917616606
vt 0.643066406 0.917616606
vt 0.643066406 0.901036263
vt 0.644042969 0.901036263
vt 0.644042969 0.917616606
vt 0.659667969 0.917616606
vt 0.659667969 0.901036263
vt 0.868652344 0.901036263
vt 0.868652344 0.917616606
vt 0.884277344 0.917616606
vt 0.884277344 0.901036263
vt 0.885253906 0.901036263
vt 0.885253906 0.917616606
vt 0.900878906 0.917616606
vt 0.900878906 0.901036263
vt 0.444824219 0.902072549
vt 0.444824219 0.918652833
vt 0.460449219 0.918652833
vt 0.460449219 0.902072549
vt 0.708496094 0.902072549
vt 0.708496094 0.918652833
vt 0.724121094 0.918652833
vt 0.724121094 0.902072549
vt 0.757324219 0.902072549
vt 0.757324219 0.918652833
vt 0.772949219 0.918652833
vt 0.772949219 0.902072549
vt 0.773925781 0.902072549
vt 0.773925781 0.918652833
vt 0.789550781 0.918652833
vt 0.789550781 0.902072549
vt 0.805175781 0.903108835
vt 0.805175781 0.919689119
vt 0.820800781 0.919689119
vt 0.820800781 0.903108835
vt 0.821777344 0.903108835
vt 0.821777344 0.919689119
vt 0.837402344 0.919689119
vt 0.837402344 0.903108835
vt 0.838378906 0.903108835
vt 0.838378906 0.919689119
vt 0.854003906 0.919689119
vt 0.854003906 0.903108835
vt 0.178222656 0.908808291
vt 0.178222656 0.925388575
vt 0.193847656 0.925388575
vt 0.193847656 0.908808291
g hemin_2-mesh_0
f 3/3/3 2/2/2 1/1/1
f 1/1/1 4/4/4 3/3/3
f 7/7/7 6/6/6 5/5/5
f 5/5/5 8/8/8 7/7/7
f 11/11/11 10/10/10 9/9/9
f 9/9/9 12/12/12 11/11/11
f 15/15/15 14/14/14 13/13/13
f 13/13/13 16/16/16 15/15/15
f 19/19/19 18/18/18 17/17/17
f 17/17/17 20/20/20 19/19/19
f 23/23/23 22/22/22 21/21/21
f 21/21/21 24/24/24 23/23/23
f 27/27/27 26/26/26 25/25/25
f 25/25/25 28/28/28 27/27/27
f 31/31/31 30/30/30 29/29/29
f 29/29/29 32/32/32 31/31/31
f 35/35/35 34/34/34 33/33/33
f 33/33/33 36/36/36 35/35/35
f 39/39/39 38/38/38 37/37/37
f 37/37/37 40/40/40 39/39/39
f 43/43/43 42/42/42 41/41/41
f 41/41/41 44/44/44 43/43/43
f 47/47/47 46/46/46 45/45/45
f 45/45/45 48/48/48 47/47/47
f 51/51/51 50/50/50 49/49/49
f 49/49/49 52/52/52 51/51/51
f 55/55/55 54/54/54 53/53/53
f 53/53/53 56/56/56 55/55/55
f 59/59/59 58/58/58 57/57/57
f 57/57/57 60/60/60 59/59/59
f 63/63/63 62/62/62 61/61/61
f 61/61/61 64/64/64 63/63/63
f 67/67/67 66/66/66 65/65/65
f 65/65/65 68/68/68 67/67/67
f 71/71/71 70/70/70 69/69/69
f 69/69/69 72/72/72 71/71/71
f 75/75/75 74/74/74 73/73/73
f 73/73/73 76/76/76 75/75/75
f 79/79/79 78/78/78 77/77/77
f 77/77/77 80/80/80 79/79/79
f 83/83/83 82/82/82 81/81/81
f 81/81/81 84/84/84 83/83/83
f 87/87/87 86/86/86 85/85/85
f 85/85/85 88/88/88 87/87/87
f 91/91/91 90/90/90 89/89/89
f 89/89/89 92/92/92 91/91/91
f 95/95/95 94/94/94 93/93/93
f 93/93/93 96/96/96 95/95/95
f 99/99/99 98/98/98 97/97/97
f 97/97/97 100/100/100 99/99/99
f 103/103/103 102/102/102 101/101/101
f 101/101/101 104/104/104 103/103/103
f 107/107/107 106/106/106 105/105/105
f 105/105/105 108/108/108 107/107/107
f 111/111/111 110/110/110 109/109/109
f 109/109/109 112/112/112 111/111/111
f 115/115/115 114/114/114 113/113/113
f 113/113/113 116/116/116 115/115/115
f 119/119/119 118/118/118 117/117/117
f 117/117/117 120/120/120 119/119/119
f 123/123/123 122/122/122 121/121/121
f 121/121/121 124/124/124 123/123/123
f 127/127/127 126/126/126 125/125/125
f 125/125/125 128/128/128 127/127/127
f 131/131/131 130/130/130 129/129/129
f 129/129/129 132/132/132 131/131/131
f 135/135/135 134/134/134 133/133/133
f 133/133/133 136/136/136 135/135/135
f 139/139/139 138/138/138 137/137/137
f 137/137/137 140/140/140 139/139/139
f 143/143/143 142/142/142 141/141/141
f 141/141/141 144/144/144 143/143/143
f 147/147/147 146/146/146 145/145/145
f 145/145/145 148/148/148 147/147/147
f 151/151/151 150/150/150 149/149/149
f 149/149/149 152/152/152 151/151/151
f 155/155/155 154/154/154 153/153/153
f 153/153/153 156/156/156 155/155/155
f 159/159/159 158/158/158 157/157/157
f 157/157/157 160/160/160 159/159/159
f 163/163/163 162/162/162 161/161/161
f 161/161/161 164/164/164 163/163/163
f 167/167/167 166/166/166 165/165/165
f 165/165/165 168/168/168 167/167/167
f 171/171/171 170/170/170 169/169/169
f 169/169/169 172/172/172 171/171/171
f 175/175/175 174/174/174 173/173/173
f 173/173/173 176/176/176 175/175/175
f 179/179/179 178/178/178 177/177/177
f 177/177/177 180/180/180 179/179/179
f 183/183/183 182/182/182 181/181/181
f 181/181/181 184/184/184 183/183/183
f 187/187/187 186/186/186 185/185/185
f 185/185/185 188/188/188 187/187/187
f 191/191/191 190/190/190 189/189/189
f 189/189/189 192/192/192 191/191/191
f 195/195/195 194/194/194 193/193/193
f 193/193/193 196/196/196 195/195/195
f 199/199/199 198/198/198 197/197/197
f 197/197/197 200/200/200 199/199/199
f 203/203/203 202/202/202 201/201/201
f 201/201/201 204/204/204 203/203/203
f 207/207/207 206/206/206 205/205/205
f 205/205/205 208/208/208 207/207/207
f 211/211/211 210/210/210 209/209/209
f 209/209/209 212/212/212 211/211/211
f 215/215/215 214/214/214 213/213/213
f 213/213/213 216/216/216 215/215/215
f 219/219/219 218/218/218 217/217/217
f 217/217/217 220/220/220 219/219/219
f 223/223/223 222/222/222 221/221/221
f 221/221/221 224/224/224 223/223/223
f 227/227/227 226/226/226 225/225/225
f 225/225/225 228/228/228 227/227/227
f 231/231/231 230/230/230 229/229/229
f 229/229/229 232/232/232 231/231/231
f 235/235/235 234/234/234 233/233/233
f 233/233/233 236/236/236 235/235/235
f 239/239/239 238/238/238 237/237/237
f 237/237/237 240/240/240 239/239/239
f 243/243/243 242/242/242 241/241/241
f 241/241/241 244/244/244 243/243/243
f 247/247/247 246/246/246 245/245/245
f 245/245/245 248/248/248 247/247/247
f 251/251/251 250/250/250 249/249/249
f 249/249/249 252/252/252 251/251/251
f 255/255/255 254/254/254 253/253/253
f 253/253/253 256/256/256 255/255/255
f 259/259/259 258/258/258 257/257/257
f 257/257/257 260/260/260 259/259/259
f 263/263/263 262/262/262 261/261/261
f 261/261/261 264/264/264 263/263/263
f 267/267/267 266/266/266 265/265/265
f 265/265/265 268/268/268 267/267/267
f 271/271/271 270/270/270 269/269/269
f 269/269/269 272/272/272 271/271/271
f 275/275/275 274/274/274 273/273/273
f 273/273/273 276/276/276 275/275/275
f 279/279/279 278/278/278 277/277/277
f 277/277/277 280/280/280 279/279/279
f 283/283/283 282/282/282 281/281/281
f 281/281/281 284/284/284 283/283/283
f 287/287/287 286/286/286 285/285/285
f 285/285/285 288/288/288 287/287/287
f 291/291/291 290/290/290 289/289/289
f 289/289/289 292/292/292 291/291/291
f 295/295/295 294/294/294 293/293/293
f 293/293/293 296/296/296 295/295/295
f 299/299/299 298/298/298 297/297/297
f 297/297/297 300/300/300 299/299/299
