g huanxianghao_2_rw-mesh
v -480 679 0
v -480 1479 0
v -1024 1479 0
v -1024 679 0
v -1024 679 0
v -1024 1479 0
v -1536 1479 0
v -1536 679 0
v -384 231 0
v -384 551 0
v -736 551 0
v -736 231 0
v -736 231 0
v -736 551 0
v -1056 551 0
v -1056 231 0
v -128 1063 0
v -128 1351 0
v -480 1351 0
v -480 1063 0
v -128 807 0
v -128 1063 0
v -480 1063 0
v -480 807 0
v -512 551 0
v -512 679 0
v -960 679 0
v -960 551 0
v -960 551 0
v -960 679 0
v -1376 679 0
v -1376 551 0
v -1536 807 0
v -1536 1031 0
v -1760 1031 0
v -1760 807 0
v -1056 327 0
v -1056 551 0
v -1152 551 0
v -1152 327 0
v -288 391 0
v -288 615 0
v -384 615 0
v -384 391 0
v -448 135 0
v -448 231 0
v -672 231 0
v -672 135 0
v -256 1351 0
v -256 1447 0
v -480 1447 0
v -480 1351 0
v -672 135 0
v -672 231 0
v -864 231 0
v -864 135 0
v -992 1479 0
v -992 1543 0
v -1248 1543 0
v -1248 1479 0
v -1248 1479 0
v -1248 1543 0
v -1504 1543 0
v -1504 1479 0
v -736 7 0
v -736 103 0
v -896 103 0
v -896 7 0
v -1664 1031 0
v -1664 1191 0
v -1760 1191 0
v -1760 1031 0
v -1536 679 0
v -1536 807 0
v -1632 807 0
v -1632 679 0
v -1664 615 0
v -1664 711 0
v -1792 711 0
v -1792 615 0
v -64 1127 0
v -64 1319 0
v -128 1319 0
v -128 1127 0
v -64 935 0
v -64 1127 0
v -128 1127 0
v -128 935 0
v -352 615 0
v -352 711 0
v -448 711 0
v -448 615 0
v -1600 1159 0
v -1600 1287 0
v -1664 1287 0
v -1664 1159 0
v -1760 551 0
v -1760 615 0
v -1888 615 0
v -1888 551 0
v -544 1479 0
v -544 1511 0
v -768 1511 0
v -768 1479 0
v -768 1479 0
v -768 1511 0
v -992 1511 0
v -992 1479 0
v -224 743 0
v -224 807 0
v -320 807 0
v -320 743 0
v -864 167 0
v -864 231 0
v -960 231 0
v -960 167 0
v -1184 295 0
v -1184 359 0
v -1280 359 0
v -1280 295 0
v -1376 583 0
v -1376 679 0
v -1440 679 0
v -1440 583 0
v -320 743 0
v -320 807 0
v -416 807 0
v -416 743 0
v -1152 359 0
v -1152 455 0
v -1216 455 0
v -1216 359 0
v -1536 1191 0
v -1536 1287 0
v -1600 1287 0
v -1600 1191 0
v -1536 1287 0
v -1536 1383 0
v -1600 1383 0
v -1600 1287 0
v -512 71 0
v -512 135 0
v -608 135 0
v -608 71 0
v -1152 455 0
v -1152 551 0
v -1216 551 0
v -1216 455 0
v -608 71 0
v -608 135 0
v -672 135 0
v -672 71 0
v -1216 39 0
v -1216 103 0
v -1280 103 0
v -1280 39 0
v -32 1031 0
v -32 1159 0
v -64 1159 0
v -64 1031 0
v -32 1159 0
v -32 1287 0
v -64 1287 0
v -64 1159 0
v -320 327 0
v -320 391 0
v -384 391 0
v -384 327 0
v -320 1447 0
v -320 1479 0
v -416 1479 0
v -416 1447 0
v -1760 775 0
v -1760 807 0
v -1856 807 0
v -1856 775 0
v -1664 775 0
v -1664 807 0
v -1760 807 0
v -1760 775 0
v -1664 711 0
v -1664 743 0
v -1728 743 0
v -1728 711 0
v -1984 679 0
v -1984 711 0
v -2047 711 0
v -2047 679 0
v -1440 615 0
v -1440 679 0
v -1472 679 0
v -1472 615 0
v -320 679 0
v -320 743 0
v -352 743 0
v -352 679 0
v -1216 1543 0
v -1216 1575 0
v -1280 1575 0
v -1280 1543 0
v -672 103 0
v -672 135 0
v -736 135 0
v -736 103 0
v -1664 1191 0
v -1664 1255 0
v -1696 1255 0
v -1696 1191 0
v -1920 807 0
v -1920 871 0
v -1952 871 0
v -1952 807 0
v -1632 1031 0
v -1632 1095 0
v -1664 1095 0
v -1664 1031 0
v -1056 263 0
v -1056 327 0
v -1088 327 0
v -1088 263 0
v -352 263 0
v -352 327 0
v -384 327 0
v -384 263 0
v -416 167 0
v -416 231 0
v -448 231 0
v -448 167 0
v -896 7 0
v -896 71 0
v -928 71 0
v -928 7 0
v -800 103 0
v -800 135 0
v -864 135 0
v -864 103 0
v -1280 487 0
v -1280 551 0
v -1312 551 0
v -1312 487 0
v -384 583 0
v -384 615 0
v -448 615 0
v -448 583 0
v -1792 615 0
v -1792 679 0
v -1824 679 0
v -1824 615 0
v -1696 583 0
v -1696 615 0
v -1760 615 0
v -1760 583 0
v -416 551 0
v -416 583 0
v -480 583 0
v -480 551 0
v -256 519 0
v -256 583 0
v -288 583 0
v -288 519 0
v -448 711 0
v -448 775 0
v -480 775 0
v -480 711 0
v -1760 807 0
v -1760 871 0
v -1792 871 0
v -1792 807 0
v -448 647 0
v -448 711 0
v -480 711 0
v -480 647 0
v -1632 647 0
v -1632 711 0
v -1664 711 0
v -1664 647 0
v -1632 711 0
v -1632 775 0
v -1664 775 0
v -1664 711 0
v -1440 1543 0
v -1440 1575 0
v -1504 1575 0
v -1504 1543 0
v -416 1447 0
v -416 1479 0
v -480 1479 0
v -480 1447 0
v -0 1191 0
v -0 1255 0
v -32 1255 0
v -32 1191 0
v -1760 871 0
v -1760 935 0
v -1792 935 0
v -1792 871 0
v -0 1127 0
v -0 1191 0
v -32 1191 0
v -32 1127 0
v -1216 487 0
v -1216 551 0
v -1248 551 0
v -1248 487 0
v -96 871 0
v -96 935 0
v -128 935 0
v -128 871 0
v -1248 487 0
v -1248 551 0
v -1280 551 0
v -1280 487 0
v -1376 1543 0
v -1376 1575 0
v -1440 1575 0
v -1440 1543 0
v -1760 1095 0
v -1760 1159 0
v -1792 1159 0
v -1792 1095 0
v -160 1351 0
v -160 1383 0
v -224 1383 0
v -224 1351 0
v -1216 423 0
v -1216 487 0
v -1248 487 0
v -1248 423 0
v -1824 615 0
v -1824 647 0
v -1856 647 0
v -1856 615 0
v -320 615 0
v -320 647 0
v -352 647 0
v -352 615 0
v -1312 519 0
v -1312 551 0
v -1344 551 0
v -1344 519 0
v -352 711 0
v -352 743 0
v -384 743 0
v -384 711 0
v -416 711 0
v -416 743 0
v -448 743 0
v -448 711 0
v -1472 647 0
v -1472 679 0
v -1504 679 0
v -1504 647 0
v -768 0 0
v -768 7 0
v -800 7 0
v -800 0 0
v -480 103 0
v -480 135 0
v -512 135 0
v -512 103 0
v -1216 263 0
v -1216 295 0
v -1248 295 0
v -1248 263 0
v -1216 359 0
v -1216 391 0
v -1248 391 0
v -1248 359 0
v -960 199 0
v -960 231 0
v -992 231 0
v -992 199 0
v -1088 295 0
v -1088 327 0
v -1120 327 0
v -1120 295 0
v -192 775 0
v -192 807 0
v -224 807 0
v -224 775 0
v -224 1351 0
v -224 1383 0
v -256 1383 0
v -256 1351 0
v -1248 455 0
v -1248 487 0
v -1280 487 0
v -1280 455 0
v -224 1383 0
v -224 1415 0
v -256 1415 0
v -256 1383 0
v -736 103 0
v -736 135 0
v -768 135 0
v -768 103 0
v -96 839 0
v -96 871 0
v -128 871 0
v -128 839 0
v -1760 1063 0
v -1760 1095 0
v -1792 1095 0
v -1792 1063 0
v -1632 1127 0
v -1632 1159 0
v -1664 1159 0
v -1664 1127 0
v -1600 1031 0
v -1600 1063 0
v -1632 1063 0
v -1632 1031 0
v -1792 839 0
v -1792 871 0
v -1824 871 0
v -1824 839 0
v -1536 1383 0
v -1536 1415 0
v -1568 1415 0
v -1568 1383 0
v -1600 1287 0
v -1600 1319 0
v -1632 1319 0
v -1632 1287 0
v -1568 1159 0
v -1568 1191 0
v -1600 1191 0
v -1600 1159 0
vt 0.00048828125 0.000938057899
vt 0.00048828125 0.751407146
vt 0.266113281 0.751407146
vt 0.266113281 0.000938057899
vt 0.267089844 0.000938057899
vt 0.267089844 0.751407146
vt 0.517089844 0.751407146
vt 0.517089844 0.000938057899
vt 0.518066406 0.000938057899
vt 0.518066406 0.301125705
vt 0.689941406 0.301125705
vt 0.689941406 0.000938057899
vt 0.690917969 0.000938057899
vt 0.690917969 0.301125705
vt 0.847167969 0.301125705
vt 0.847167969 0.000938057899
vt 0.518066406 0.303001881
vt 0.518066406 0.573170722
vt 0.689941406 0.573170722
vt 0.689941406 0.303001881
vt 0.690917969 0.303001881
vt 0.690917969 0.543151975
vt 0.862792969 0.543151975
vt 0.862792969 0.303001881
vt 0.690917969 0.54502815
vt 0.690917969 0.665103197
vt 0.909667969 0.665103197
vt 0.909667969 0.54502815
vt 0.690917969 0.666979373
vt 0.690917969 0.78705442
vt 0.894042969 0.78705442
vt 0.894042969 0.666979373
vt 0.518066406 0.575046897
vt 0.518066406 0.785178244
vt 0.627441406 0.785178244
vt 0.627441406 0.575046897
vt 0.910644531 0.000938057899
vt 0.910644531 0.211069405
vt 0.957519531 0.211069405
vt 0.957519531 0.000938057899
vt 0.910644531 0.21294558
vt 0.910644531 0.423076928
vt 0.957519531 0.423076928
vt 0.957519531 0.21294558
vt 0.00048828125 0.753283322
vt 0.00048828125 0.843339562
vt 0.109863281 0.843339562
vt 0.109863281 0.753283322
vt 0.110839844 0.753283322
vt 0.110839844 0.843339562
vt 0.220214844 0.843339562
vt 0.220214844 0.753283322
vt 0.895019531 0.666979373
vt 0.895019531 0.757035613
vt 0.988769531 0.757035613
vt 0.988769531 0.666979373
vt 0.221191406 0.753283322
vt 0.221191406 0.813320816
vt 0.346191406 0.813320816
vt 0.346191406 0.753283322
vt 0.347167969 0.753283322
vt 0.347167969 0.813320816
vt 0.472167969 0.813320816
vt 0.472167969 0.753283322
vt 0.895019531 0.758911848
vt 0.895019531 0.848968089
vt 0.973144531 0.848968089
vt 0.973144531 0.758911848
vt 0.628417969 0.575046897
vt 0.628417969 0.725140691
vt 0.675292969 0.725140691
vt 0.675292969 0.575046897
vt 0.628417969 0.727016926
vt 0.628417969 0.847091913
vt 0.675292969 0.847091913
vt 0.675292969 0.727016926
vt 0.518066406 0.78705442
vt 0.518066406 0.87711072
vt 0.580566406 0.87711072
vt 0.580566406 0.78705442
vt 0.473144531 0.753283322
vt 0.473144531 0.933395863
vt 0.504394531 0.933395863
vt 0.504394531 0.753283322
vt 0.581542969 0.78705442
vt 0.581542969 0.96716696
vt 0.612792969 0.96716696
vt 0.612792969 0.78705442
vt 0.690917969 0.788930595
vt 0.690917969 0.878986835
vt 0.737792969 0.878986835
vt 0.737792969 0.788930595
vt 0.738769531 0.788930595
vt 0.738769531 0.909005642
vt 0.770019531 0.909005642
vt 0.770019531 0.788930595
vt 0.770996094 0.788930595
vt 0.770996094 0.848968089
vt 0.833496094 0.848968089
vt 0.833496094 0.788930595
vt 0.221191406 0.815196991
vt 0.221191406 0.845215738
vt 0.330566406 0.845215738
vt 0.330566406 0.815196991
vt 0.331542969 0.815196991
vt 0.331542969 0.845215738
vt 0.440917969 0.845215738
vt 0.440917969 0.815196991
vt 0.834472656 0.788930595
vt 0.834472656 0.848968089
vt 0.881347656 0.848968089
vt 0.881347656 0.788930595
vt 0.00048828125 0.845215738
vt 0.00048828125 0.905253291
vt 0.0473632812 0.905253291
vt 0.0473632812 0.845215738
vt 0.0483398438 0.845215738
vt 0.0483398438 0.905253291
vt 0.0952148438 0.905253291
vt 0.0952148438 0.845215738
vt 0.0961914062 0.845215738
vt 0.0961914062 0.935272038
vt 0.127441406 0.935272038
vt 0.127441406 0.845215738
vt 0.128417969 0.845215738
vt 0.128417969 0.905253291
vt 0.175292969 0.905253291
vt 0.175292969 0.845215738
vt 0.176269531 0.845215738
vt 0.176269531 0.935272038
vt 0.207519531 0.935272038
vt 0.207519531 0.845215738
vt 0.221191406 0.847091913
vt 0.221191406 0.937148213
vt 0.252441406 0.937148213
vt 0.252441406 0.847091913
vt 0.253417969 0.847091913
vt 0.253417969 0.937148213
vt 0.284667969 0.937148213
vt 0.284667969 0.847091913
vt 0.285644531 0.847091913
vt 0.285644531 0.907129467
vt 0.332519531 0.907129467
vt 0.332519531 0.847091913
vt 0.333496094 0.847091913
vt 0.333496094 0.937148213
vt 0.364746094 0.937148213
vt 0.364746094 0.847091913
vt 0.365722656 0.847091913
vt 0.365722656 0.907129467
vt 0.396972656 0.907129467
vt 0.396972656 0.847091913
vt 0.397949219 0.847091913
vt 0.397949219 0.907129467
vt 0.429199219 0.907129467
vt 0.429199219 0.847091913
vt 0.974121094 0.758911848
vt 0.974121094 0.878986835
vt 0.989746094 0.878986835
vt 0.989746094 0.758911848
vt 0.441894531 0.815196991
vt 0.441894531 0.935272038
vt 0.457519531 0.935272038
vt 0.457519531 0.815196991
vt 0.628417969 0.848968089
vt 0.628417969 0.909005642
vt 0.659667969 0.909005642
vt 0.659667969 0.848968089
vt 0.770996094 0.850844264
vt 0.770996094 0.88086307
vt 0.817871094 0.88086307
vt 0.817871094 0.850844264
vt 0.818847656 0.850844264
vt 0.818847656 0.88086307
vt 0.865722656 0.88086307
vt 0.865722656 0.850844264
vt 0.866699219 0.850844264
vt 0.866699219 0.88086307
vt 0.913574219 0.88086307
vt 0.913574219 0.850844264
vt 0.914550781 0.850844264
vt 0.914550781 0.88086307
vt 0.945800781 0.88086307
vt 0.945800781 0.850844264
vt 0.518066406 0.878986835
vt 0.518066406 0.909005642
vt 0.549316406 0.909005642
vt 0.549316406 0.878986835
vt 0.660644531 0.848968089
vt 0.660644531 0.909005642
vt 0.676269531 0.909005642
vt 0.676269531 0.848968089
vt 0.946777344 0.850844264
vt 0.946777344 0.910881817
vt 0.962402344 0.910881817
vt 0.962402344 0.850844264
vt 0.690917969 0.88086307
vt 0.690917969 0.910881817
vt 0.722167969 0.910881817
vt 0.722167969 0.88086307
vt 0.770996094 0.882739186
vt 0.770996094 0.912757993
vt 0.802246094 0.912757993
vt 0.802246094 0.882739186
vt 0.550292969 0.878986835
vt 0.550292969 0.939024389
vt 0.565917969 0.939024389
vt 0.565917969 0.878986835
vt 0.974121094 0.88086307
vt 0.974121094 0.940900564
vt 0.989746094 0.940900564
vt 0.989746094 0.88086307
vt 0.803222656 0.882739186
vt 0.803222656 0.94277674
vt 0.818847656 0.94277674
vt 0.818847656 0.882739186
vt 0.819824219 0.882739186
vt 0.819824219 0.94277674
vt 0.835449219 0.94277674
vt 0.835449219 0.882739186
vt 0.836425781 0.882739186
vt 0.836425781 0.94277674
vt 0.852050781 0.94277674
vt 0.852050781 0.882739186
vt 0.853027344 0.882739186
vt 0.853027344 0.94277674
vt 0.868652344 0.94277674
vt 0.868652344 0.882739186
vt 0.869628906 0.882739186
vt 0.869628906 0.94277674
vt 0.885253906 0.94277674
vt 0.885253906 0.882739186
vt 0.886230469 0.882739186
vt 0.886230469 0.912757993
vt 0.917480469 0.912757993
vt 0.917480469 0.882739186
vt 0.918457031 0.882739186
vt 0.918457031 0.94277674
vt 0.934082031 0.94277674
vt 0.934082031 0.882739186
vt 0.00048828125 0.907129467
vt 0.00048828125 0.937148213
vt 0.0317382812 0.937148213
vt 0.0317382812 0.907129467
vt 0.0327148438 0.907129467
vt 0.0327148438 0.96716696
vt 0.0483398438 0.96716696
vt 0.0483398438 0.907129467
vt 0.0493164062 0.907129467
vt 0.0493164062 0.937148213
vt 0.0805664062 0.937148213
vt 0.0805664062 0.907129467
vt 0.128417969 0.907129467
vt 0.128417969 0.937148213
vt 0.159667969 0.937148213
vt 0.159667969 0.907129467
vt 0.285644531 0.909005642
vt 0.285644531 0.969043136
vt 0.301269531 0.969043136
vt 0.301269531 0.909005642
vt 0.302246094 0.909005642
vt 0.302246094 0.969043136
vt 0.317871094 0.969043136
vt 0.317871094 0.909005642
vt 0.365722656 0.909005642
vt 0.365722656 0.969043136
vt 0.381347656 0.969043136
vt 0.381347656 0.909005642
vt 0.382324219 0.909005642
vt 0.382324219 0.969043136
vt 0.397949219 0.969043136
vt 0.397949219 0.909005642
vt 0.398925781 0.909005642
vt 0.398925781 0.969043136
vt 0.414550781 0.969043136
vt 0.414550781 0.909005642
vt 0.415527344 0.909005642
vt 0.415527344 0.969043136
vt 0.431152344 0.969043136
vt 0.431152344 0.909005642
vt 0.518066406 0.910881817
vt 0.518066406 0.940900564
vt 0.549316406 0.940900564
vt 0.549316406 0.910881817
vt 0.628417969 0.910881817
vt 0.628417969 0.940900564
vt 0.659667969 0.940900564
vt 0.659667969 0.910881817
vt 0.660644531 0.910881817
vt 0.660644531 0.970919311
vt 0.676269531 0.970919311
vt 0.676269531 0.910881817
vt 0.738769531 0.910881817
vt 0.738769531 0.970919311
vt 0.754394531 0.970919311
vt 0.754394531 0.910881817
vt 0.690917969 0.912757993
vt 0.690917969 0.972795486
vt 0.706542969 0.972795486
vt 0.706542969 0.912757993
vt 0.707519531 0.912757993
vt 0.707519531 0.972795486
vt 0.723144531 0.972795486
vt 0.723144531 0.912757993
vt 0.946777344 0.912757993
vt 0.946777344 0.972795486
vt 0.962402344 0.972795486
vt 0.962402344 0.912757993
vt 0.770996094 0.914634168
vt 0.770996094 0.974671662
vt 0.786621094 0.974671662
vt 0.786621094 0.914634168
vt 0.886230469 0.914634168
vt 0.886230469 0.944652915
vt 0.917480469 0.944652915
vt 0.917480469 0.914634168
vt 0.473144531 0.935272038
vt 0.473144531 0.995309591
vt 0.488769531 0.995309591
vt 0.488769531 0.935272038
vt 0.0961914062 0.937148213
vt 0.0961914062 0.96716696
vt 0.127441406 0.96716696
vt 0.127441406 0.937148213
vt 0.489746094 0.935272038
vt 0.489746094 0.995309591
vt 0.505371094 0.995309591
vt 0.505371094 0.935272038
vt 0.176269531 0.937148213
vt 0.176269531 0.96716696
vt 0.191894531 0.96716696
vt 0.191894531 0.937148213
vt 0.192871094 0.937148213
vt 0.192871094 0.96716696
vt 0.208496094 0.96716696
vt 0.208496094 0.937148213
vt 0.441894531 0.937148213
vt 0.441894531 0.96716696
vt 0.457519531 0.96716696
vt 0.457519531 0.937148213
vt 0.00048828125 0.939024389
vt 0.00048828125 0.969043136
vt 0.0161132812 0.969043136
vt 0.0161132812 0.939024389
vt 0.0493164062 0.939024389
vt 0.0493164062 0.969043136
vt 0.0649414062 0.969043136
vt 0.0649414062 0.939024389
vt 0.0659179688 0.939024389
vt 0.0659179688 0.969043136
vt 0.0815429688 0.969043136
vt 0.0815429688 0.939024389
vt 0.128417969 0.939024389
vt 0.128417969 0.94652909
vt 0.144042969 0.94652909
vt 0.144042969 0.939024389
vt 0.145019531 0.939024389
vt 0.145019531 0.969043136
vt 0.160644531 0.969043136
vt 0.160644531 0.939024389
vt 0.221191406 0.939024389
vt 0.221191406 0.969043136
vt 0.236816406 0.969043136
vt 0.236816406 0.939024389
vt 0.237792969 0.939024389
vt 0.237792969 0.969043136
vt 0.253417969 0.969043136
vt 0.253417969 0.939024389
vt 0.254394531 0.939024389
vt 0.254394531 0.969043136
vt 0.270019531 0.969043136
vt 0.270019531 0.939024389
vt 0.333496094 0.939024389
vt 0.333496094 0.969043136
vt 0.349121094 0.969043136
vt 0.349121094 0.939024389
vt 0.550292969 0.940900564
vt 0.550292969 0.970919311
vt 0.565917969 0.970919311
vt 0.565917969 0.940900564
vt 0.518066406 0.94277674
vt 0.518066406 0.972795486
vt 0.533691406 0.972795486
vt 0.533691406 0.94277674
vt 0.628417969 0.94277674
vt 0.628417969 0.972795486
vt 0.644042969 0.972795486
vt 0.644042969 0.94277674
vt 0.974121094 0.94277674
vt 0.974121094 0.972795486
vt 0.989746094 0.972795486
vt 0.989746094 0.94277674
vt 0.803222656 0.944652915
vt 0.803222656 0.974671662
vt 0.818847656 0.974671662
vt 0.818847656 0.944652915
vt 0.819824219 0.944652915
vt 0.819824219 0.974671662
vt 0.835449219 0.974671662
vt 0.835449219 0.944652915
vt 0.836425781 0.944652915
vt 0.836425781 0.974671662
vt 0.852050781 0.974671662
vt 0.852050781 0.944652915
vt 0.853027344 0.944652915
vt 0.853027344 0.974671662
vt 0.868652344 0.974671662
vt 0.868652344 0.944652915
vt 0.869628906 0.944652915
vt 0.869628906 0.974671662
vt 0.885253906 0.974671662
vt 0.885253906 0.944652915
vt 0.918457031 0.944652915
vt 0.918457031 0.974671662
vt 0.934082031 0.974671662
vt 0.934082031 0.944652915
vt 0.886230469 0.94652909
vt 0.886230469 0.976547837
vt 0.901855469 0.976547837
vt 0.901855469 0.94652909
vt 0.128417969 0.948405266
vt 0.128417969 0.978424013
vt 0.144042969 0.978424013
vt 0.144042969 0.948405266
vt 0.0327148438 0.969043136
vt 0.0327148438 0.999061942
vt 0.0483398438 0.999061942
vt 0.0483398438 0.969043136
g huanxianghao_2_rw-mesh_0
f 3/3/3 2/2/2 1/1/1
f 1/1/1 4/4/4 3/3/3
f 7/7/7 6/6/6 5/5/5
f 5/5/5 8/8/8 7/7/7
f 11/11/11 10/10/10 9/9/9
f 9/9/9 12/12/12 11/11/11
f 15/15/15 14/14/14 13/13/13
f 13/13/13 16/16/16 15/15/15
f 19/19/19 18/18/18 17/17/17
f 17/17/17 20/20/20 19/19/19
f 23/23/23 22/22/22 21/21/21
f 21/21/21 24/24/24 23/23/23
f 27/27/27 26/26/26 25/25/25
f 25/25/25 28/28/28 27/27/27
f 31/31/31 30/30/30 29/29/29
f 29/29/29 32/32/32 31/31/31
f 35/35/35 34/34/34 33/33/33
f 33/33/33 36/36/36 35/35/35
f 39/39/39 38/38/38 37/37/37
f 37/37/37 40/40/40 39/39/39
f 43/43/43 42/42/42 41/41/41
f 41/41/41 44/44/44 43/43/43
f 47/47/47 46/46/46 45/45/45
f 45/45/45 48/48/48 47/47/47
f 51/51/51 50/50/50 49/49/49
f 49/49/49 52/52/52 51/51/51
f 55/55/55 54/54/54 53/53/53
f 53/53/53 56/56/56 55/55/55
f 59/59/59 58/58/58 57/57/57
f 57/57/57 60/60/60 59/59/59
f 63/63/63 62/62/62 61/61/61
f 61/61/61 64/64/64 63/63/63
f 67/67/67 66/66/66 65/65/65
f 65/65/65 68/68/68 67/67/67
f 71/71/71 70/70/70 69/69/69
f 69/69/69 72/72/72 71/71/71
f 75/75/75 74/74/74 73/73/73
f 73/73/73 76/76/76 75/75/75
f 79/79/79 78/78/78 77/77/77
f 77/77/77 80/80/80 79/79/79
f 83/83/83 82/82/82 81/81/81
f 81/81/81 84/84/84 83/83/83
f 87/87/87 86/86/86 85/85/85
f 85/85/85 88/88/88 87/87/87
f 91/91/91 90/90/90 89/89/89
f 89/89/89 92/92/92 91/91/91
f 95/95/95 94/94/94 93/93/93
f 93/93/93 96/96/96 95/95/95
f 99/99/99 98/98/98 97/97/97
f 97/97/97 100/100/100 99/99/99
f 103/103/103 102/102/102 101/101/101
f 101/101/101 104/104/104 103/103/103
f 107/107/107 106/106/106 105/105/105
f 105/105/105 108/108/108 107/107/107
f 111/111/111 110/110/110 109/109/109
f 109/109/109 112/112/112 111/111/111
f 115/115/115 114/114/114 113/113/113
f 113/113/113 116/116/116 115/115/115
f 119/119/119 118/118/118 117/117/117
f 117/117/117 120/120/120 119/119/119
f 123/123/123 122/122/122 121/121/121
f 121/121/121 124/124/124 123/123/123
f 127/127/127 126/126/126 125/125/125
f 125/125/125 128/128/128 127/127/127
f 131/131/131 130/130/130 129/129/129
f 129/129/129 132/132/132 131/131/131
f 135/135/135 134/134/134 133/133/133
f 133/133/133 136/136/136 135/135/135
f 139/139/139 138/138/138 137/137/137
f 137/137/137 140/140/140 139/139/139
f 143/143/143 142/142/142 141/141/141
f 141/141/141 144/144/144 143/143/143
f 147/147/147 146/146/146 145/145/145
f 145/145/145 148/148/148 147/147/147
f 151/151/151 150/150/150 149/149/149
f 149/149/149 152/152/152 151/151/151
f 155/155/155 154/154/154 153/153/153
f 153/153/153 156/156/156 155/155/155
f 159/159/159 158/158/158 157/157/157
f 157/157/157 160/160/160 159/159/159
f 163/163/163 162/162/162 161/161/161
f 161/161/161 164/164/164 163/163/163
f 167/167/167 166/166/166 165/165/165
f 165/165/165 168/168/168 167/167/167
f 171/171/171 170/170/170 169/169/169
f 169/169/169 172/172/172 171/171/171
f 175/175/175 174/174/174 173/173/173
f 173/173/173 176/176/176 175/175/175
f 179/179/179 178/178/178 177/177/177
f 177/177/177 180/180/180 179/179/179
f 183/183/183 182/182/182 181/181/181
f 181/181/181 184/184/184 183/183/183
f 187/187/187 186/186/186 185/185/185
f 185/185/185 188/188/188 187/187/187
f 191/191/191 190/190/190 189/189/189
f 189/189/189 192/192/192 191/191/191
f 195/195/195 194/194/194 193/193/193
f 193/193/193 196/196/196 195/195/195
f 199/199/199 198/198/198 197/197/197
f 197/197/197 200/200/200 199/199/199
f 203/203/203 202/202/202 201/201/201
f 201/201/201 204/204/204 203/203/203
f 207/207/207 206/206/206 205/205/205
f 205/205/205 208/208/208 207/207/207
f 211/211/211 210/210/210 209/209/209
f 209/209/209 212/212/212 211/211/211
f 215/215/215 214/214/214 213/213/213
f 213/213/213 216/216/216 215/215/215
f 219/219/219 218/218/218 217/217/217
f 217/217/217 220/220/220 219/219/219
f 223/223/223 222/222/222 221/221/221
f 221/221/221 224/224/224 223/223/223
f 227/227/227 226/226/226 225/225/225
f 225/225/225 228/228/228 227/227/227
f 231/231/231 230/230/230 229/229/229
f 229/229/229 232/232/232 231/231/231
f 235/235/235 234/234/234 233/233/233
f 233/233/233 236/236/236 235/235/235
f 239/239/239 238/238/238 237/237/237
f 237/237/237 240/240/240 239/239/239
f 243/243/243 242/242/242 241/241/241
f 241/241/241 244/244/244 243/243/243
f 247/247/247 246/246/246 245/245/245
f 245/245/245 248/248/248 247/247/247
f 251/251/251 250/250/250 249/249/249
f 249/249/249 252/252/252 251/251/251
f 255/255/255 254/254/254 253/253/253
f 253/253/253 256/256/256 255/255/255
f 259/259/259 258/258/258 257/257/257
f 257/257/257 260/260/260 259/259/259
f 263/263/263 262/262/262 261/261/261
f 261/261/261 264/264/264 263/263/263
f 267/267/267 266/266/266 265/265/265
f 265/265/265 268/268/268 267/267/267
f 271/271/271 270/270/270 269/269/269
f 269/269/269 272/272/272 271/271/271
f 275/275/275 274/274/274 273/273/273
f 273/273/273 276/276/276 275/275/275
f 279/279/279 278/278/278 277/277/277
f 277/277/277 280/280/280 279/279/279
f 283/283/283 282/282/282 281/281/281
f 281/281/281 284/284/284 283/283/283
f 287/287/287 286/286/286 285/285/285
f 285/285/285 288/288/288 287/287/287
f 291/291/291 290/290/290 289/289/289
f 289/289/289 292/292/292 291/291/291
f 295/295/295 294/294/294 293/293/293
f 293/293/293 296/296/296 295/295/295
f 299/299/299 298/298/298 297/297/297
f 297/297/297 300/300/300 299/299/299
f 303/303/303 302/302/302 301/301/301
f 301/301/301 304/304/304 303/303/303
f 307/307/307 306/306/306 305/305/305
f 305/305/305 308/308/308 307/307/307
f 311/311/311 310/310/310 309/309/309
f 309/309/309 312/312/312 311/311/311
f 315/315/315 314/314/314 313/313/313
f 313/313/313 316/316/316 315/315/315
f 319/319/319 318/318/318 317/317/317
f 317/317/317 320/320/320 319/319/319
f 323/323/323 322/322/322 321/321/321
f 321/321/321 324/324/324 323/323/323
f 327/327/327 326/326/326 325/325/325
f 325/325/325 328/328/328 327/327/327
f 331/331/331 330/330/330 329/329/329
f 329/329/329 332/332/332 331/331/331
f 335/335/335 334/334/334 333/333/333
f 333/333/333 336/336/336 335/335/335
f 339/339/339 338/338/338 337/337/337
f 337/337/337 340/340/340 339/339/339
f 343/343/343 342/342/342 341/341/341
f 341/341/341 344/344/344 343/343/343
f 347/347/347 346/346/346 345/345/345
f 345/345/345 348/348/348 347/347/347
f 351/351/351 350/350/350 349/349/349
f 349/349/349 352/352/352 351/351/351
f 355/355/355 354/354/354 353/353/353
f 353/353/353 356/356/356 355/355/355
f 359/359/359 358/358/358 357/357/357
f 357/357/357 360/360/360 359/359/359
f 363/363/363 362/362/362 361/361/361
f 361/361/361 364/364/364 363/363/363
f 367/367/367 366/366/366 365/365/365
f 365/365/365 368/368/368 367/367/367
f 371/371/371 370/370/370 369/369/369
f 369/369/369 372/372/372 371/371/371
f 375/375/375 374/374/374 373/373/373
f 373/373/373 376/376/376 375/375/375
f 379/379/379 378/378/378 377/377/377
f 377/377/377 380/380/380 379/379/379
f 383/383/383 382/382/382 381/381/381
f 381/381/381 384/384/384 383/383/383
f 387/387/387 386/386/386 385/385/385
f 385/385/385 388/388/388 387/387/387
f 391/391/391 390/390/390 389/389/389
f 389/389/389 392/392/392 391/391/391
f 395/395/395 394/394/394 393/393/393
f 393/393/393 396/396/396 395/395/395
f 399/399/399 398/398/398 397/397/397
f 397/397/397 400/400/400 399/399/399
f 403/403/403 402/402/402 401/401/401
f 401/401/401 404/404/404 403/403/403
f 407/407/407 406/406/406 405/405/405
f 405/405/405 408/408/408 407/407/407
f 411/411/411 410/410/410 409/409/409
f 409/409/409 412/412/412 411/411/411
f 415/415/415 414/414/414 413/413/413
f 413/413/413 416/416/416 415/415/415
f 419/419/419 418/418/418 417/417/417
f 417/417/417 420/420/420 419/419/419
f 423/423/423 422/422/422 421/421/421
f 421/421/421 424/424/424 423/423/423
f 427/427/427 426/426/426 425/425/425
f 425/425/425 428/428/428 427/427/427
