g baiyanjuren_2_rw-mesh
v -896 447 0
v -896 1023 0
v -1568 1023 0
v -1568 447 0
v -224 447 0
v -224 1023 0
v -896 1023 0
v -896 447 0
v -160 1023 0
v -160 1439 0
v -640 1439 0
v -640 1023 0
v -1568 447 0
v -1568 703 0
v -2016 703 0
v -2016 447 0
v -160 159 0
v -160 351 0
v -352 351 0
v -352 159 0
v -640 1023 0
v -640 1215 0
v -800 1215 0
v -800 1023 0
v -320 1439 0
v -320 1567 0
v -480 1567 0
v -480 1439 0
v -384 287 0
v -384 447 0
v -512 447 0
v -512 287 0
v -1184 1023 0
v -1184 1119 0
v -1312 1119 0
v -1312 1023 0
v -1312 1023 0
v -1312 1119 0
v -1440 1119 0
v -1440 1023 0
v -800 1023 0
v -800 1119 0
v -896 1119 0
v -896 1023 0
v -160 351 0
v -160 447 0
v -256 447 0
v -256 351 0
v -672 415 0
v -672 447 0
v -960 447 0
v -960 415 0
v -160 735 0
v -160 863 0
v -224 863 0
v -224 735 0
v -960 415 0
v -960 447 0
v -1216 447 0
v -1216 415 0
v -128 895 0
v -128 959 0
v -224 959 0
v -224 895 0
v -448 191 0
v -448 287 0
v -512 287 0
v -512 191 0
v -160 639 0
v -160 735 0
v -224 735 0
v -224 639 0
v -1568 703 0
v -1568 735 0
v -1760 735 0
v -1760 703 0
v -1760 703 0
v -1760 735 0
v -1920 735 0
v -1920 703 0
v -1568 831 0
v -1568 959 0
v -1600 959 0
v -1600 831 0
v -1120 1023 0
v -1120 1087 0
v -1184 1087 0
v -1184 1023 0
v -1440 1023 0
v -1440 1087 0
v -1504 1087 0
v -1504 1023 0
v -1984 191 0
v -1984 319 0
v -2016 319 0
v -2016 191 0
v -576 319 0
v -576 447 0
v -608 447 0
v -608 319 0
v -576 191 0
v -576 319 0
v -608 319 0
v -608 191 0
v -352 191 0
v -352 319 0
v -384 319 0
v -384 191 0
v -352 319 0
v -352 447 0
v -384 447 0
v -384 319 0
v -1984 319 0
v -1984 447 0
v -2016 447 0
v -2016 319 0
v -1344 415 0
v -1344 447 0
v -1440 447 0
v -1440 415 0
v -192 127 0
v -192 159 0
v -288 159 0
v -288 127 0
v -2016 607 0
v -2016 703 0
v -2047 703 0
v -2047 607 0
v -1568 735 0
v -1568 831 0
v -1600 831 0
v -1600 735 0
v -128 319 0
v -128 415 0
v -160 415 0
v -160 319 0
v -128 223 0
v -128 319 0
v -160 319 0
v -160 223 0
v -224 1439 0
v -224 1471 0
v -320 1471 0
v -320 1439 0
v -128 1439 0
v -128 1471 0
v -224 1471 0
v -224 1439 0
v -1600 735 0
v -1600 767 0
v -1664 767 0
v -1664 735 0
v -608 383 0
v -608 447 0
v -640 447 0
v -640 383 0
v -480 1439 0
v -480 1503 0
v -512 1503 0
v -512 1439 0
v -800 1119 0
v -800 1183 0
v -832 1183 0
v -832 1119 0
v -160 991 0
v -160 1023 0
v -224 1023 0
v -224 991 0
v -96 639 0
v -96 703 0
v -128 703 0
v -128 639 0
v -480 159 0
v -480 191 0
v -544 191 0
v -544 159 0
v -224 95 0
v -224 127 0
v -288 127 0
v -288 95 0
v -320 351 0
v -320 415 0
v -352 415 0
v -352 351 0
v -160 447 0
v -160 479 0
v -224 479 0
v -224 447 0
v -256 415 0
v -256 447 0
v -320 447 0
v -320 415 0
v -896 1023 0
v -896 1055 0
v -960 1055 0
v -960 1023 0
v -704 1215 0
v -704 1247 0
v -768 1247 0
v -768 1215 0
v -960 383 0
v -960 415 0
v -1024 415 0
v -1024 383 0
v -1024 383 0
v -1024 415 0
v -1088 415 0
v -1088 383 0
v -2016 543 0
v -2016 607 0
v -2047 607 0
v -2047 543 0
v -1440 415 0
v -1440 447 0
v -1504 447 0
v -1504 415 0
v -640 1215 0
v -640 1247 0
v -704 1247 0
v -704 1215 0
v -352 1567 0
v -352 1599 0
v -416 1599 0
v -416 1567 0
v -288 127 0
v -288 159 0
v -352 159 0
v -352 127 0
v -608 63 0
v -608 127 0
v -640 127 0
v -640 63 0
v -608 0 0
v -608 63 0
v -640 63 0
v -640 0 0
v -64 447 0
v -64 479 0
v -96 479 0
v -96 447 0
v -32 639 0
v -32 671 0
v -64 671 0
v -64 639 0
v -192 607 0
v -192 639 0
v -224 639 0
v -224 607 0
v -192 863 0
v -192 895 0
v -224 895 0
v -224 863 0
v -0 671 0
v -0 703 0
v -32 703 0
v -32 671 0
v -192 959 0
v -192 991 0
v -224 991 0
v -224 959 0
v -640 0 0
v -640 31 0
v -672 31 0
v -672 0 0
v -832 191 0
v -832 223 0
v -864 223 0
v -864 191 0
v -480 63 0
v -480 95 0
v -512 95 0
v -512 63 0
v -512 415 0
v -512 447 0
v -544 447 0
v -544 415 0
v -256 351 0
v -256 383 0
v -288 383 0
v -288 351 0
v -416 255 0
v -416 287 0
v -448 287 0
v -448 255 0
v -288 1471 0
v -288 1503 0
v -320 1503 0
v -320 1471 0
v -512 1439 0
v -512 1471 0
v -544 1471 0
v -544 1439 0
v -128 1407 0
v -128 1439 0
v -160 1439 0
v -160 1407 0
v -960 1023 0
v -960 1055 0
v -992 1055 0
v -992 1023 0
v -416 1567 0
v -416 1599 0
v -448 1599 0
v -448 1567 0
v -608 351 0
v -608 383 0
v -640 383 0
v -640 351 0
v -896 1055 0
v -896 1087 0
v -928 1087 0
v -928 1055 0
v -1088 1023 0
v -1088 1055 0
v -1120 1055 0
v -1120 1023 0
v -1504 1023 0
v -1504 1055 0
v -1536 1055 0
v -1536 1023 0
v -640 1279 0
v -640 1311 0
v -672 1311 0
v -672 1279 0
v -832 1119 0
v -832 1151 0
v -864 1151 0
v -864 1119 0
v -1312 1119 0
v -1312 1151 0
v -1344 1151 0
v -1344 1119 0
vt 0.00048828125 0.00129199028
vt 0.00048828125 0.745478034
vt 0.328613281 0.745478034
vt 0.328613281 0.00129199028
vt 0.329589844 0.00129199028
vt 0.329589844 0.745478034
vt 0.657714844 0.745478034
vt 0.657714844 0.00129199028
vt 0.658691406 0.00129199028
vt 0.658691406 0.538759708
vt 0.893066406 0.538759708
vt 0.893066406 0.00129199028
vt 0.658691406 0.541343689
vt 0.658691406 0.872093022
vt 0.877441406 0.872093022
vt 0.877441406 0.541343689
vt 0.894042969 0.00129199028
vt 0.894042969 0.249354005
vt 0.987792969 0.249354005
vt 0.987792969 0.00129199028
vt 0.894042969 0.251937985
vt 0.894042969 0.5
vt 0.972167969 0.5
vt 0.972167969 0.251937985
vt 0.894042969 0.502583981
vt 0.894042969 0.667958617
vt 0.972167969 0.667958617
vt 0.972167969 0.502583981
vt 0.894042969 0.670542598
vt 0.894042969 0.877260983
vt 0.956542969 0.877260983
vt 0.956542969 0.670542598
vt 0.00048828125 0.748062015
vt 0.00048828125 0.872093022
vt 0.0629882812 0.872093022
vt 0.0629882812 0.748062015
vt 0.0639648438 0.748062015
vt 0.0639648438 0.872093022
vt 0.126464844 0.872093022
vt 0.126464844 0.748062015
vt 0.127441406 0.748062015
vt 0.127441406 0.872093022
vt 0.174316406 0.872093022
vt 0.174316406 0.748062015
vt 0.175292969 0.748062015
vt 0.175292969 0.872093022
vt 0.222167969 0.872093022
vt 0.222167969 0.748062015
vt 0.223144531 0.748062015
vt 0.223144531 0.789405704
vt 0.363769531 0.789405704
vt 0.363769531 0.748062015
vt 0.957519531 0.670542598
vt 0.957519531 0.835917294
vt 0.988769531 0.835917294
vt 0.988769531 0.670542598
vt 0.364746094 0.748062015
vt 0.364746094 0.789405704
vt 0.489746094 0.789405704
vt 0.489746094 0.748062015
vt 0.490722656 0.748062015
vt 0.490722656 0.830749333
vt 0.537597656 0.830749333
vt 0.537597656 0.748062015
vt 0.538574219 0.748062015
vt 0.538574219 0.872093022
vt 0.569824219 0.872093022
vt 0.569824219 0.748062015
vt 0.570800781 0.748062015
vt 0.570800781 0.872093022
vt 0.602050781 0.872093022
vt 0.602050781 0.748062015
vt 0.223144531 0.791989684
vt 0.223144531 0.833333313
vt 0.316894531 0.833333313
vt 0.316894531 0.791989684
vt 0.317871094 0.791989684
vt 0.317871094 0.833333313
vt 0.395996094 0.833333313
vt 0.395996094 0.791989684
vt 0.603027344 0.748062015
vt 0.603027344 0.913436711
vt 0.618652344 0.913436711
vt 0.618652344 0.748062015
vt 0.619628906 0.748062015
vt 0.619628906 0.830749333
vt 0.650878906 0.830749333
vt 0.650878906 0.748062015
vt 0.396972656 0.791989684
vt 0.396972656 0.874677002
vt 0.428222656 0.874677002
vt 0.428222656 0.791989684
vt 0.429199219 0.791989684
vt 0.429199219 0.957364321
vt 0.444824219 0.957364321
vt 0.444824219 0.791989684
vt 0.445800781 0.791989684
vt 0.445800781 0.957364321
vt 0.461425781 0.957364321
vt 0.461425781 0.791989684
vt 0.462402344 0.791989684
vt 0.462402344 0.957364321
vt 0.478027344 0.957364321
vt 0.478027344 0.791989684
vt 0.490722656 0.833333313
vt 0.490722656 0.99870801
vt 0.506347656 0.99870801
vt 0.506347656 0.833333313
vt 0.507324219 0.833333313
vt 0.507324219 0.99870801
vt 0.522949219 0.99870801
vt 0.522949219 0.833333313
vt 0.619628906 0.833333313
vt 0.619628906 0.99870801
vt 0.635253906 0.99870801
vt 0.635253906 0.833333313
vt 0.223144531 0.835917294
vt 0.223144531 0.877260983
vt 0.270019531 0.877260983
vt 0.270019531 0.835917294
vt 0.270996094 0.835917294
vt 0.270996094 0.877260983
vt 0.317871094 0.877260983
vt 0.317871094 0.835917294
vt 0.636230469 0.833333313
vt 0.636230469 0.957364321
vt 0.651855469 0.957364321
vt 0.651855469 0.833333313
vt 0.318847656 0.835917294
vt 0.318847656 0.959948301
vt 0.334472656 0.959948301
vt 0.334472656 0.835917294
vt 0.335449219 0.835917294
vt 0.335449219 0.959948301
vt 0.351074219 0.959948301
vt 0.351074219 0.835917294
vt 0.352050781 0.835917294
vt 0.352050781 0.959948301
vt 0.367675781 0.959948301
vt 0.367675781 0.835917294
vt 0.00048828125 0.874677002
vt 0.00048828125 0.916020691
vt 0.0473632812 0.916020691
vt 0.0473632812 0.874677002
vt 0.0483398438 0.874677002
vt 0.0483398438 0.916020691
vt 0.0952148438 0.916020691
vt 0.0952148438 0.874677002
vt 0.957519531 0.838501275
vt 0.957519531 0.879844964
vt 0.988769531 0.879844964
vt 0.988769531 0.838501275
vt 0.368652344 0.835917294
vt 0.368652344 0.918604672
vt 0.384277344 0.918604672
vt 0.384277344 0.835917294
vt 0.0961914062 0.874677002
vt 0.0961914062 0.957364321
vt 0.111816406 0.957364321
vt 0.111816406 0.874677002
vt 0.112792969 0.874677002
vt 0.112792969 0.957364321
vt 0.128417969 0.957364321
vt 0.128417969 0.874677002
vt 0.129394531 0.874677002
vt 0.129394531 0.916020691
vt 0.160644531 0.916020691
vt 0.160644531 0.874677002
vt 0.161621094 0.874677002
vt 0.161621094 0.957364321
vt 0.177246094 0.957364321
vt 0.177246094 0.874677002
vt 0.178222656 0.874677002
vt 0.178222656 0.916020691
vt 0.209472656 0.916020691
vt 0.209472656 0.874677002
vt 0.538574219 0.874677002
vt 0.538574219 0.916020691
vt 0.569824219 0.916020691
vt 0.569824219 0.874677002
vt 0.570800781 0.874677002
vt 0.570800781 0.957364321
vt 0.586425781 0.957364321
vt 0.586425781 0.874677002
vt 0.658691406 0.874677002
vt 0.658691406 0.916020691
vt 0.689941406 0.916020691
vt 0.689941406 0.874677002
vt 0.690917969 0.874677002
vt 0.690917969 0.916020691
vt 0.722167969 0.916020691
vt 0.722167969 0.874677002
vt 0.723144531 0.874677002
vt 0.723144531 0.916020691
vt 0.754394531 0.916020691
vt 0.754394531 0.874677002
vt 0.755371094 0.874677002
vt 0.755371094 0.916020691
vt 0.786621094 0.916020691
vt 0.786621094 0.874677002
vt 0.787597656 0.874677002
vt 0.787597656 0.916020691
vt 0.818847656 0.916020691
vt 0.818847656 0.874677002
vt 0.819824219 0.874677002
vt 0.819824219 0.916020691
vt 0.851074219 0.916020691
vt 0.851074219 0.874677002
vt 0.852050781 0.874677002
vt 0.852050781 0.957364321
vt 0.867675781 0.957364321
vt 0.867675781 0.874677002
vt 0.396972656 0.877260983
vt 0.396972656 0.918604672
vt 0.428222656 0.918604672
vt 0.428222656 0.877260983
vt 0.223144531 0.879844964
vt 0.223144531 0.921188653
vt 0.254394531 0.921188653
vt 0.254394531 0.879844964
vt 0.255371094 0.879844964
vt 0.255371094 0.921188653
vt 0.286621094 0.921188653
vt 0.286621094 0.879844964
vt 0.894042969 0.879844964
vt 0.894042969 0.921188653
vt 0.925292969 0.921188653
vt 0.925292969 0.879844964
vt 0.868652344 0.874677002
vt 0.868652344 0.957364321
vt 0.884277344 0.957364321
vt 0.884277344 0.874677002
vt 0.287597656 0.879844964
vt 0.287597656 0.962532282
vt 0.303222656 0.962532282
vt 0.303222656 0.879844964
vt 0.926269531 0.879844964
vt 0.926269531 0.921188653
vt 0.941894531 0.921188653
vt 0.941894531 0.879844964
vt 0.957519531 0.882428944
vt 0.957519531 0.923772633
vt 0.973144531 0.923772633
vt 0.973144531 0.882428944
vt 0.974121094 0.882428944
vt 0.974121094 0.923772633
vt 0.989746094 0.923772633
vt 0.989746094 0.882428944
vt 0.603027344 0.916020691
vt 0.603027344 0.957364321
vt 0.618652344 0.957364321
vt 0.618652344 0.916020691
vt 0.00048828125 0.918604672
vt 0.00048828125 0.959948301
vt 0.0161132812 0.959948301
vt 0.0161132812 0.918604672
vt 0.0170898438 0.918604672
vt 0.0170898438 0.959948301
vt 0.0327148438 0.959948301
vt 0.0327148438 0.918604672
vt 0.0336914062 0.918604672
vt 0.0336914062 0.959948301
vt 0.0493164062 0.959948301
vt 0.0493164062 0.918604672
vt 0.0502929688 0.918604672
vt 0.0502929688 0.959948301
vt 0.0659179688 0.959948301
vt 0.0659179688 0.918604672
vt 0.0668945312 0.918604672
vt 0.0668945312 0.959948301
vt 0.0825195312 0.959948301
vt 0.0825195312 0.918604672
vt 0.129394531 0.918604672
vt 0.129394531 0.959948301
vt 0.145019531 0.959948301
vt 0.145019531 0.918604672
vt 0.178222656 0.918604672
vt 0.178222656 0.959948301
vt 0.193847656 0.959948301
vt 0.193847656 0.918604672
vt 0.194824219 0.918604672
vt 0.194824219 0.959948301
vt 0.210449219 0.959948301
vt 0.210449219 0.918604672
vt 0.538574219 0.918604672
vt 0.538574219 0.959948301
vt 0.554199219 0.959948301
vt 0.554199219 0.918604672
vt 0.658691406 0.918604672
vt 0.658691406 0.959948301
vt 0.674316406 0.959948301
vt 0.674316406 0.918604672
vt 0.675292969 0.918604672
vt 0.675292969 0.959948301
vt 0.690917969 0.959948301
vt 0.690917969 0.918604672
vt 0.691894531 0.918604672
vt 0.691894531 0.959948301
vt 0.707519531 0.959948301
vt 0.707519531 0.918604672
vt 0.708496094 0.918604672
vt 0.708496094 0.959948301
vt 0.724121094 0.959948301
vt 0.724121094 0.918604672
vt 0.725097656 0.918604672
vt 0.725097656 0.959948301
vt 0.740722656 0.959948301
vt 0.740722656 0.918604672
vt 0.741699219 0.918604672
vt 0.741699219 0.959948301
vt 0.757324219 0.959948301
vt 0.757324219 0.918604672
vt 0.758300781 0.918604672
vt 0.758300781 0.959948301
vt 0.773925781 0.959948301
vt 0.773925781 0.918604672
vt 0.774902344 0.918604672
vt 0.774902344 0.959948301
vt 0.790527344 0.959948301
vt 0.790527344 0.918604672
vt 0.791503906 0.918604672
vt 0.791503906 0.959948301
vt 0.807128906 0.959948301
vt 0.807128906 0.918604672
vt 0.808105469 0.918604672
vt 0.808105469 0.959948301
vt 0.823730469 0.959948301
vt 0.823730469 0.918604672
vt 0.824707031 0.918604672
vt 0.824707031 0.959948301
vt 0.840332031 0.959948301
vt 0.840332031 0.918604672
g baiyanjuren_2_rw-mesh_0
f 3/3/3 2/2/2 1/1/1
f 1/1/1 4/4/4 3/3/3
f 7/7/7 6/6/6 5/5/5
f 5/5/5 8/8/8 7/7/7
f 11/11/11 10/10/10 9/9/9
f 9/9/9 12/12/12 11/11/11
f 15/15/15 14/14/14 13/13/13
f 13/13/13 16/16/16 15/15/15
f 19/19/19 18/18/18 17/17/17
f 17/17/17 20/20/20 19/19/19
f 23/23/23 22/22/22 21/21/21
f 21/21/21 24/24/24 23/23/23
f 27/27/27 26/26/26 25/25/25
f 25/25/25 28/28/28 27/27/27
f 31/31/31 30/30/30 29/29/29
f 29/29/29 32/32/32 31/31/31
f 35/35/35 34/34/34 33/33/33
f 33/33/33 36/36/36 35/35/35
f 39/39/39 38/38/38 37/37/37
f 37/37/37 40/40/40 39/39/39
f 43/43/43 42/42/42 41/41/41
f 41/41/41 44/44/44 43/43/43
f 47/47/47 46/46/46 45/45/45
f 45/45/45 48/48/48 47/47/47
f 51/51/51 50/50/50 49/49/49
f 49/49/49 52/52/52 51/51/51
f 55/55/55 54/54/54 53/53/53
f 53/53/53 56/56/56 55/55/55
f 59/59/59 58/58/58 57/57/57
f 57/57/57 60/60/60 59/59/59
f 63/63/63 62/62/62 61/61/61
f 61/61/61 64/64/64 63/63/63
f 67/67/67 66/66/66 65/65/65
f 65/65/65 68/68/68 67/67/67
f 71/71/71 70/70/70 69/69/69
f 69/69/69 72/72/72 71/71/71
f 75/75/75 74/74/74 73/73/73
f 73/73/73 76/76/76 75/75/75
f 79/79/79 78/78/78 77/77/77
f 77/77/77 80/80/80 79/79/79
f 83/83/83 82/82/82 81/81/81
f 81/81/81 84/84/84 83/83/83
f 87/87/87 86/86/86 85/85/85
f 85/85/85 88/88/88 87/87/87
f 91/91/91 90/90/90 89/89/89
f 89/89/89 92/92/92 91/91/91
f 95/95/95 94/94/94 93/93/93
f 93/93/93 96/96/96 95/95/95
f 99/99/99 98/98/98 97/97/97
f 97/97/97 100/100/100 99/99/99
f 103/103/103 102/102/102 101/101/101
f 101/101/101 104/104/104 103/103/103
f 107/107/107 106/106/106 105/105/105
f 105/105/105 108/108/108 107/107/107
f 111/111/111 110/110/110 109/109/109
f 109/109/109 112/112/112 111/111/111
f 115/115/115 114/114/114 113/113/113
f 113/113/113 116/116/116 115/115/115
f 119/119/119 118/118/118 117/117/117
f 117/117/117 120/120/120 119/119/119
f 123/123/123 122/122/122 121/121/121
f 121/121/121 124/124/124 123/123/123
f 127/127/127 126/126/126 125/125/125
f 125/125/125 128/128/128 127/127/127
f 131/131/131 130/130/130 129/129/129
f 129/129/129 132/132/132 131/131/131
f 135/135/135 134/134/134 133/133/133
f 133/133/133 136/136/136 135/135/135
f 139/139/139 138/138/138 137/137/137
f 137/137/137 140/140/140 139/139/139
f 143/143/143 142/142/142 141/141/141
f 141/141/141 144/144/144 143/143/143
f 147/147/147 146/146/146 145/145/145
f 145/145/145 148/148/148 147/147/147
f 151/151/151 150/150/150 149/149/149
f 149/149/149 152/152/152 151/151/151
f 155/155/155 154/154/154 153/153/153
f 153/153/153 156/156/156 155/155/155
f 159/159/159 158/158/158 157/157/157
f 157/157/157 160/160/160 159/159/159
f 163/163/163 162/162/162 161/161/161
f 161/161/161 164/164/164 163/163/163
f 167/167/167 166/166/166 165/165/165
f 165/165/165 168/168/168 167/167/167
f 171/171/171 170/170/170 169/169/169
f 169/169/169 172/172/172 171/171/171
f 175/175/175 174/174/174 173/173/173
f 173/173/173 176/176/176 175/175/175
f 179/179/179 178/178/178 177/177/177
f 177/177/177 180/180/180 179/179/179
f 183/183/183 182/182/182 181/181/181
f 181/181/181 184/184/184 183/183/183
f 187/187/187 186/186/186 185/185/185
f 185/185/185 188/188/188 187/187/187
f 191/191/191 190/190/190 189/189/189
f 189/189/189 192/192/192 191/191/191
f 195/195/195 194/194/194 193/193/193
f 193/193/193 196/196/196 195/195/195
f 199/199/199 198/198/198 197/197/197
f 197/197/197 200/200/200 199/199/199
f 203/203/203 202/202/202 201/201/201
f 201/201/201 204/204/204 203/203/203
f 207/207/207 206/206/206 205/205/205
f 205/205/205 208/208/208 207/207/207
f 211/211/211 210/210/210 209/209/209
f 209/209/209 212/212/212 211/211/211
f 215/215/215 214/214/214 213/213/213
f 213/213/213 216/216/216 215/215/215
f 219/219/219 218/218/218 217/217/217
f 217/217/217 220/220/220 219/219/219
f 223/223/223 222/222/222 221/221/221
f 221/221/221 224/224/224 223/223/223
f 227/227/227 226/226/226 225/225/225
f 225/225/225 228/228/228 227/227/227
f 231/231/231 230/230/230 229/229/229
f 229/229/229 232/232/232 231/231/231
f 235/235/235 234/234/234 233/233/233
f 233/233/233 236/236/236 235/235/235
f 239/239/239 238/238/238 237/237/237
f 237/237/237 240/240/240 239/239/239
f 243/243/243 242/242/242 241/241/241
f 241/241/241 244/244/244 243/243/243
f 247/247/247 246/246/246 245/245/245
f 245/245/245 248/248/248 247/247/247
f 251/251/251 250/250/250 249/249/249
f 249/249/249 252/252/252 251/251/251
f 255/255/255 254/254/254 253/253/253
f 253/253/253 256/256/256 255/255/255
f 259/259/259 258/258/258 257/257/257
f 257/257/257 260/260/260 259/259/259
f 263/263/263 262/262/262 261/261/261
f 261/261/261 264/264/264 263/263/263
f 267/267/267 266/266/266 265/265/265
f 265/265/265 268/268/268 267/267/267
f 271/271/271 270/270/270 269/269/269
f 269/269/269 272/272/272 271/271/271
f 275/275/275 274/274/274 273/273/273
f 273/273/273 276/276/276 275/275/275
f 279/279/279 278/278/278 277/277/277
f 277/277/277 280/280/280 279/279/279
f 283/283/283 282/282/282 281/281/281
f 281/281/281 284/284/284 283/283/283
f 287/287/287 286/286/286 285/285/285
f 285/285/285 288/288/288 287/287/287
f 291/291/291 290/290/290 289/289/289
f 289/289/289 292/292/292 291/291/291
f 295/295/295 294/294/294 293/293/293
f 293/293/293 296/296/296 295/295/295
f 299/299/299 298/298/298 297/297/297
f 297/297/297 300/300/300 299/299/299
f 303/303/303 302/302/302 301/301/301
f 301/301/301 304/304/304 303/303/303
f 307/307/307 306/306/306 305/305/305
f 305/305/305 308/308/308 307/307/307
f 311/311/311 310/310/310 309/309/309
f 309/309/309 312/312/312 311/311/311
f 315/315/315 314/314/314 313/313/313
f 313/313/313 316/316/316 315/315/315
f 319/319/319 318/318/318 317/317/317
f 317/317/317 320/320/320 319/319/319
f 323/323/323 322/322/322 321/321/321
f 321/321/321 324/324/324 323/323/323
f 327/327/327 326/326/326 325/325/325
f 325/325/325 328/328/328 327/327/327
f 331/331/331 330/330/330 329/329/329
f 329/329/329 332/332/332 331/331/331
