g gangyishawa_3_bj-mesh
v -0 587 0
v -0 1227 0
v -320 1227 0
v -320 587 0
v -0 0 0
v -0 587 0
v -320 587 0
v -320 0 0
v -1856 587 0
v -1856 1227 0
v -2047 1227 0
v -2047 587 0
v -1856 0 0
v -1856 587 0
v -2047 587 0
v -2047 0 0
v -1760 235 0
v -1760 523 0
v -1856 523 0
v -1856 235 0
v -416 811 0
v -416 1003 0
v -544 1003 0
v -544 811 0
v -1760 0 0
v -1760 235 0
v -1856 235 0
v -1856 0 0
v -320 459 0
v -320 971 0
v -352 971 0
v -352 459 0
v -320 0 0
v -320 459 0
v -352 459 0
v -352 0 0
v -1824 523 0
v -1824 747 0
v -1856 747 0
v -1856 523 0
v -1824 747 0
v -1824 971 0
v -1856 971 0
v -1856 747 0
v -352 0 0
v -352 171 0
v -384 171 0
v -384 0 0
v -320 1131 0
v -320 1227 0
v -384 1227 0
v -384 1131 0
v -352 171 0
v -352 363 0
v -384 363 0
v -384 171 0
v -352 875 0
v -352 971 0
v -416 971 0
v -416 875 0
v -352 779 0
v -352 875 0
v -416 875 0
v -416 779 0
v -1728 0 0
v -1728 139 0
v -1760 139 0
v -1760 0 0
v -1728 139 0
v -1728 299 0
v -1760 299 0
v -1760 139 0
v -320 1067 0
v -320 1131 0
v -384 1131 0
v -384 1067 0
v -1792 523 0
v -1792 619 0
v -1824 619 0
v -1824 523 0
v -1792 619 0
v -1792 715 0
v -1824 715 0
v -1824 619 0
v -416 1163 0
v -416 1227 0
v -448 1227 0
v -448 1163 0
v -1696 11 0
v -1696 75 0
v -1728 75 0
v -1728 11 0
v -672 683 0
v -672 747 0
v -704 747 0
v -704 683 0
v -576 811 0
v -576 843 0
v -640 843 0
v -640 811 0
v -384 11 0
v -384 75 0
v -416 75 0
v -416 11 0
v -544 907 0
v -544 971 0
v -576 971 0
v -576 907 0
v -384 1163 0
v -384 1227 0
v -416 1227 0
v -416 1163 0
v -416 779 0
v -416 811 0
v -448 811 0
v -448 779 0
v -512 779 0
v -512 811 0
v -544 811 0
v -544 779 0
v -608 715 0
v -608 747 0
v -640 747 0
v -640 715 0
v -352 747 0
v -352 779 0
v -384 779 0
v -384 747 0
v -448 1195 0
v -448 1227 0
v -480 1227 0
v -480 1195 0
v -1696 0 0
v -1696 11 0
v -1728 11 0
v -1728 0 0
v -544 875 0
v -544 907 0
v -576 907 0
v -576 875 0
v -384 0 0
v -384 11 0
v -416 11 0
v -416 0 0
v -384 1131 0
v -384 1163 0
v -416 1163 0
v -416 1131 0
vt 0.00048828125 0.00155764818
vt 0.00048828125 0.998442352
vt 0.156738281 0.998442352
vt 0.156738281 0.00155764818
vt 0.157714844 0.00155764818
vt 0.157714844 0.917445481
vt 0.313964844 0.917445481
vt 0.313964844 0.00155764818
vt 0.314941406 0.00155764818
vt 0.314941406 0.998442352
vt 0.408691406 0.998442352
vt 0.408691406 0.00155764818
vt 0.409667969 0.00155764818
vt 0.409667969 0.917445481
vt 0.503417969 0.917445481
vt 0.503417969 0.00155764818
vt 0.504394531 0.00155764818
vt 0.504394531 0.450155735
vt 0.551269531 0.450155735
vt 0.551269531 0.00155764818
vt 0.552246094 0.00155764818
vt 0.552246094 0.300623059
vt 0.614746094 0.300623059
vt 0.614746094 0.00155764818
vt 0.615722656 0.00155764818
vt 0.615722656 0.369158864
vt 0.662597656 0.369158864
vt 0.662597656 0.00155764818
vt 0.663574219 0.00155764818
vt 0.663574219 0.799065411
vt 0.679199219 0.799065411
vt 0.679199219 0.00155764818
vt 0.680175781 0.00155764818
vt 0.680175781 0.71806854
vt 0.695800781 0.71806854
vt 0.695800781 0.00155764818
vt 0.696777344 0.00155764818
vt 0.696777344 0.350467265
vt 0.712402344 0.350467265
vt 0.712402344 0.00155764818
vt 0.713378906 0.00155764818
vt 0.713378906 0.350467265
vt 0.729003906 0.350467265
vt 0.729003906 0.00155764818
vt 0.729980469 0.00155764818
vt 0.729980469 0.269470394
vt 0.745605469 0.269470394
vt 0.745605469 0.00155764818
vt 0.746582031 0.00155764818
vt 0.746582031 0.151090324
vt 0.777832031 0.151090324
vt 0.777832031 0.00155764818
vt 0.778808594 0.00155764818
vt 0.778808594 0.300623059
vt 0.794433594 0.300623059
vt 0.794433594 0.00155764818
vt 0.795410156 0.00155764818
vt 0.795410156 0.151090324
vt 0.826660156 0.151090324
vt 0.826660156 0.00155764818
vt 0.827636719 0.00155764818
vt 0.827636719 0.151090324
vt 0.858886719 0.151090324
vt 0.858886719 0.00155764818
vt 0.859863281 0.00155764818
vt 0.859863281 0.219626188
vt 0.875488281 0.219626188
vt 0.875488281 0.00155764818
vt 0.876464844 0.00155764818
vt 0.876464844 0.250778794
vt 0.892089844 0.250778794
vt 0.892089844 0.00155764818
vt 0.893066406 0.00155764818
vt 0.893066406 0.101246119
vt 0.924316406 0.101246119
vt 0.924316406 0.00155764818
vt 0.925292969 0.00155764818
vt 0.925292969 0.151090324
vt 0.940917969 0.151090324
vt 0.940917969 0.00155764818
vt 0.941894531 0.00155764818
vt 0.941894531 0.151090324
vt 0.957519531 0.151090324
vt 0.957519531 0.00155764818
vt 0.958496094 0.00155764818
vt 0.958496094 0.101246119
vt 0.974121094 0.101246119
vt 0.974121094 0.00155764818
vt 0.975097656 0.00155764818
vt 0.975097656 0.101246119
vt 0.990722656 0.101246119
vt 0.990722656 0.00155764818
vt 0.893066406 0.104361355
vt 0.893066406 0.204049826
vt 0.908691406 0.204049826
vt 0.908691406 0.104361355
vt 0.958496094 0.104361355
vt 0.958496094 0.15420562
vt 0.989746094 0.15420562
vt 0.989746094 0.104361355
vt 0.746582031 0.15420562
vt 0.746582031 0.253894091
vt 0.762207031 0.253894091
vt 0.762207031 0.15420562
vt 0.795410156 0.15420562
vt 0.795410156 0.253894091
vt 0.811035156 0.253894091
vt 0.811035156 0.15420562
vt 0.812011719 0.15420562
vt 0.812011719 0.253894091
vt 0.827636719 0.253894091
vt 0.827636719 0.15420562
vt 0.828613281 0.15420562
vt 0.828613281 0.204049826
vt 0.844238281 0.204049826
vt 0.844238281 0.15420562
vt 0.925292969 0.15420562
vt 0.925292969 0.204049826
vt 0.940917969 0.204049826
vt 0.940917969 0.15420562
vt 0.941894531 0.15420562
vt 0.941894531 0.204049826
vt 0.957519531 0.204049826
vt 0.957519531 0.15420562
vt 0.958496094 0.157320857
vt 0.958496094 0.207165122
vt 0.974121094 0.207165122
vt 0.974121094 0.157320857
vt 0.975097656 0.157320857
vt 0.975097656 0.207165122
vt 0.990722656 0.207165122
vt 0.990722656 0.157320857
vt 0.828613281 0.207165122
vt 0.828613281 0.225856721
vt 0.844238281 0.225856721
vt 0.844238281 0.207165122
vt 0.893066406 0.207165122
vt 0.893066406 0.257009327
vt 0.908691406 0.257009327
vt 0.908691406 0.207165122
vt 0.925292969 0.207165122
vt 0.925292969 0.225856721
vt 0.940917969 0.225856721
vt 0.940917969 0.207165122
vt 0.941894531 0.207165122
vt 0.941894531 0.257009327
vt 0.957519531 0.257009327
vt 0.957519531 0.207165122
g gangyishawa_3_bj-mesh_0
f 3/3/3 2/2/2 1/1/1
f 1/1/1 4/4/4 3/3/3
f 7/7/7 6/6/6 5/5/5
f 5/5/5 8/8/8 7/7/7
f 11/11/11 10/10/10 9/9/9
f 9/9/9 12/12/12 11/11/11
f 15/15/15 14/14/14 13/13/13
f 13/13/13 16/16/16 15/15/15
f 19/19/19 18/18/18 17/17/17
f 17/17/17 20/20/20 19/19/19
f 23/23/23 22/22/22 21/21/21
f 21/21/21 24/24/24 23/23/23
f 27/27/27 26/26/26 25/25/25
f 25/25/25 28/28/28 27/27/27
f 31/31/31 30/30/30 29/29/29
f 29/29/29 32/32/32 31/31/31
f 35/35/35 34/34/34 33/33/33
f 33/33/33 36/36/36 35/35/35
f 39/39/39 38/38/38 37/37/37
f 37/37/37 40/40/40 39/39/39
f 43/43/43 42/42/42 41/41/41
f 41/41/41 44/44/44 43/43/43
f 47/47/47 46/46/46 45/45/45
f 45/45/45 48/48/48 47/47/47
f 51/51/51 50/50/50 49/49/49
f 49/49/49 52/52/52 51/51/51
f 55/55/55 54/54/54 53/53/53
f 53/53/53 56/56/56 55/55/55
f 59/59/59 58/58/58 57/57/57
f 57/57/57 60/60/60 59/59/59
f 63/63/63 62/62/62 61/61/61
f 61/61/61 64/64/64 63/63/63
f 67/67/67 66/66/66 65/65/65
f 65/65/65 68/68/68 67/67/67
f 71/71/71 70/70/70 69/69/69
f 69/69/69 72/72/72 71/71/71
f 75/75/75 74/74/74 73/73/73
f 73/73/73 76/76/76 75/75/75
f 79/79/79 78/78/78 77/77/77
f 77/77/77 80/80/80 79/79/79
f 83/83/83 82/82/82 81/81/81
f 81/81/81 84/84/84 83/83/83
f 87/87/87 86/86/86 85/85/85
f 85/85/85 88/88/88 87/87/87
f 91/91/91 90/90/90 89/89/89
f 89/89/89 92/92/92 91/91/91
f 95/95/95 94/94/94 93/93/93
f 93/93/93 96/96/96 95/95/95
f 99/99/99 98/98/98 97/97/97
f 97/97/97 100/100/100 99/99/99
f 103/103/103 102/102/102 101/101/101
f 101/101/101 104/104/104 103/103/103
f 107/107/107 106/106/106 105/105/105
f 105/105/105 108/108/108 107/107/107
f 111/111/111 110/110/110 109/109/109
f 109/109/109 112/112/112 111/111/111
f 115/115/115 114/114/114 113/113/113
f 113/113/113 116/116/116 115/115/115
f 119/119/119 118/118/118 117/117/117
f 117/117/117 120/120/120 119/119/119
f 123/123/123 122/122/122 121/121/121
f 121/121/121 124/124/124 123/123/123
f 127/127/127 126/126/126 125/125/125
f 125/125/125 128/128/128 127/127/127
f 131/131/131 130/130/130 129/129/129
f 129/129/129 132/132/132 131/131/131
f 135/135/135 134/134/134 133/133/133
f 133/133/133 136/136/136 135/135/135
f 139/139/139 138/138/138 137/137/137
f 137/137/137 140/140/140 139/139/139
f 143/143/143 142/142/142 141/141/141
f 141/141/141 144/144/144 143/143/143
f 147/147/147 146/146/146 145/145/145
f 145/145/145 148/148/148 147/147/147
