g lemaer_2-mesh
v -256 225 0
v -256 609 0
v -704 609 0
v -704 225 0
v -480 609 0
v -480 929 0
v -672 929 0
v -672 609 0
v -704 129 0
v -704 289 0
v -960 289 0
v -960 129 0
v -32 609 0
v -32 769 0
v -288 769 0
v -288 609 0
v -320 769 0
v -320 929 0
v -480 929 0
v -480 769 0
v -800 449 0
v -800 609 0
v -928 609 0
v -928 449 0
v -64 513 0
v -64 609 0
v -256 609 0
v -256 513 0
v -896 289 0
v -896 417 0
v -992 417 0
v -992 289 0
v -352 129 0
v -352 225 0
v -480 225 0
v -480 129 0
v -480 129 0
v -480 225 0
v -608 225 0
v -608 129 0
v -384 609 0
v -384 737 0
v -448 737 0
v -448 609 0
v -192 289 0
v -192 417 0
v -256 417 0
v -256 289 0
v -736 65 0
v -736 129 0
v -864 129 0
v -864 65 0
v -608 65 0
v -608 129 0
v -736 129 0
v -736 65 0
v -352 929 0
v -352 993 0
v -448 993 0
v -448 929 0
v -960 161 0
v -960 257 0
v -1023 257 0
v -1023 161 0
v -800 289 0
v -800 353 0
v -896 353 0
v -896 289 0
v -736 673 0
v -736 769 0
v -800 769 0
v -800 673 0
v -640 129 0
v -640 225 0
v -704 225 0
v -704 129 0
v -704 577 0
v -704 673 0
v -768 673 0
v -768 577 0
v -672 705 0
v -672 801 0
v -736 801 0
v -736 705 0
v -672 801 0
v -672 897 0
v -736 897 0
v -736 801 0
v -544 929 0
v -544 993 0
v -640 993 0
v -640 929 0
v -704 353 0
v -704 449 0
v -768 449 0
v -768 353 0
v -704 481 0
v -704 577 0
v -768 577 0
v -768 481 0
v -64 449 0
v -64 513 0
v -128 513 0
v -128 449 0
v -256 769 0
v -256 833 0
v -320 833 0
v -320 769 0
v -704 1 0
v -704 65 0
v -768 65 0
v -768 1 0
v -128 161 0
v -128 225 0
v -192 225 0
v -192 161 0
v -704 897 0
v -704 961 0
v -768 961 0
v -768 897 0
v -704 289 0
v -704 353 0
v -768 353 0
v -768 289 0
v -640 929 0
v -640 993 0
v -704 993 0
v -704 929 0
v -800 833 0
v -800 897 0
v -864 897 0
v -864 833 0
v -288 737 0
v -288 769 0
v -352 769 0
v -352 737 0
v -416 737 0
v -416 769 0
v -480 769 0
v -480 737 0
v -0 609 0
v -0 673 0
v -32 673 0
v -32 609 0
v -800 705 0
v -800 769 0
v -832 769 0
v -832 705 0
v -96 833 0
v -96 897 0
v -128 897 0
v -128 833 0
v -288 897 0
v -288 961 0
v -320 961 0
v -320 897 0
v -864 801 0
v -864 865 0
v -896 865 0
v -896 801 0
v -736 769 0
v -736 833 0
v -768 833 0
v -768 769 0
v -800 33 0
v -800 65 0
v -864 65 0
v -864 33 0
v -608 129 0
v -608 193 0
v -640 193 0
v -640 129 0
v -320 161 0
v -320 225 0
v -352 225 0
v -352 161 0
v -544 97 0
v -544 129 0
v -608 129 0
v -608 97 0
v -160 97 0
v -160 129 0
v -224 129 0
v -224 97 0
v -192 225 0
v -192 257 0
v -256 257 0
v -256 225 0
v -768 545 0
v -768 609 0
v -800 609 0
v -800 545 0
v -448 609 0
v -448 673 0
v -480 673 0
v -480 609 0
v -160 353 0
v -160 417 0
v -192 417 0
v -192 353 0
v -960 449 0
v -960 513 0
v -992 513 0
v -992 449 0
v -992 353 0
v -992 417 0
v -1023 417 0
v -1023 353 0
v -288 641 0
v -288 705 0
v -320 705 0
v -320 641 0
v -768 385 0
v -768 449 0
v -800 449 0
v -800 385 0
v -800 609 0
v -800 641 0
v -864 641 0
v -864 609 0
v -448 97 0
v -448 129 0
v -512 129 0
v -512 97 0
v -128 801 0
v -128 865 0
v -160 865 0
v -160 801 0
v -384 97 0
v -384 129 0
v -448 129 0
v -448 97 0
v -768 449 0
v -768 513 0
v -800 513 0
v -800 449 0
v -800 385 0
v -800 449 0
v -832 449 0
v -832 385 0
v -928 513 0
v -928 577 0
v -960 577 0
v -960 513 0
v -160 449 0
v -160 481 0
v -224 481 0
v -224 449 0
v -32 513 0
v -32 577 0
v -64 577 0
v -64 513 0
v -928 449 0
v -928 513 0
v -960 513 0
v -960 449 0
v -160 481 0
v -160 513 0
v -192 513 0
v -192 481 0
v -320 673 0
v -320 705 0
v -352 705 0
v -352 673 0
v -672 609 0
v -672 641 0
v -704 641 0
v -704 609 0
v -448 705 0
v -448 737 0
v -480 737 0
v -480 705 0
v -224 769 0
v -224 801 0
v -256 801 0
v -256 769 0
v -0 705 0
v -0 737 0
v -32 737 0
v -32 705 0
v -224 193 0
v -224 225 0
v -256 225 0
v -256 193 0
v -864 97 0
v -864 129 0
v -896 129 0
v -896 97 0
v -672 33 0
v -672 65 0
v -704 65 0
v -704 33 0
v -768 289 0
v -768 321 0
v -800 321 0
v -800 289 0
v -224 417 0
v -224 449 0
v -256 449 0
v -256 417 0
v -832 417 0
v -832 449 0
v -864 449 0
v -864 417 0
v -864 353 0
v -864 385 0
v -896 385 0
v -896 353 0
v -32 481 0
v -32 513 0
v -64 513 0
v -64 481 0
v -224 449 0
v -224 481 0
v -256 481 0
v -256 449 0
v -800 353 0
v -800 385 0
v -832 385 0
v -832 353 0
v -128 769 0
v -128 801 0
v -160 801 0
v -160 769 0
v -288 609 0
v -288 641 0
v -320 641 0
v -320 609 0
v -864 609 0
v -864 641 0
v -896 641 0
v -896 609 0
v -992 321 0
v -992 353 0
v -1023 353 0
v -1023 321 0
v -160 801 0
v -160 833 0
v -192 833 0
v -192 801 0
v -832 801 0
v -832 833 0
v -864 833 0
v -864 801 0
v -96 769 0
v -96 801 0
v -128 801 0
v -128 769 0
v -320 929 0
v -320 961 0
v -352 961 0
v -352 929 0
v -512 929 0
v -512 961 0
v -544 961 0
v -544 929 0
v -736 865 0
v -736 897 0
v -768 897 0
v -768 865 0
vt 0.0009765625 0.00132977962
vt 0.0009765625 0.511968076
vt 0.438476562 0.511968076
vt 0.438476562 0.00132977962
vt 0.440429688 0.00132977962
vt 0.440429688 0.426861703
vt 0.627929688 0.426861703
vt 0.627929688 0.00132977962
vt 0.629882812 0.00132977962
vt 0.629882812 0.214095771
vt 0.879882812 0.214095771
vt 0.879882812 0.00132977962
vt 0.629882812 0.216755331
vt 0.629882812 0.429521263
vt 0.879882812 0.429521263
vt 0.879882812 0.216755331
vt 0.440429688 0.429521263
vt 0.440429688 0.642287254
vt 0.596679688 0.642287254
vt 0.596679688 0.429521263
vt 0.629882812 0.432180822
vt 0.629882812 0.644946814
vt 0.754882812 0.644946814
vt 0.754882812 0.432180822
vt 0.756835938 0.432180822
vt 0.756835938 0.559840441
vt 0.944335938 0.559840441
vt 0.944335938 0.432180822
vt 0.0009765625 0.514627695
vt 0.0009765625 0.684840441
vt 0.0947265625 0.684840441
vt 0.0947265625 0.514627695
vt 0.0966796875 0.514627695
vt 0.0966796875 0.642287254
vt 0.221679688 0.642287254
vt 0.221679688 0.514627695
vt 0.223632812 0.514627695
vt 0.223632812 0.642287254
vt 0.348632812 0.642287254
vt 0.348632812 0.514627695
vt 0.350585938 0.514627695
vt 0.350585938 0.684840441
vt 0.413085938 0.684840441
vt 0.413085938 0.514627695
vt 0.756835938 0.5625
vt 0.756835938 0.732712746
vt 0.819335938 0.732712746
vt 0.819335938 0.5625
vt 0.821289062 0.5625
vt 0.821289062 0.647606373
vt 0.946289062 0.647606373
vt 0.946289062 0.5625
vt 0.0966796875 0.644946814
vt 0.0966796875 0.730053186
vt 0.221679688 0.730053186
vt 0.221679688 0.644946814
vt 0.223632812 0.644946814
vt 0.223632812 0.730053186
vt 0.317382812 0.730053186
vt 0.317382812 0.644946814
vt 0.440429688 0.644946814
vt 0.440429688 0.772606373
vt 0.502929688 0.772606373
vt 0.502929688 0.644946814
vt 0.504882812 0.644946814
vt 0.504882812 0.730053186
vt 0.598632812 0.730053186
vt 0.598632812 0.644946814
vt 0.629882812 0.647606373
vt 0.629882812 0.775265932
vt 0.692382812 0.775265932
vt 0.692382812 0.647606373
vt 0.821289062 0.650265932
vt 0.821289062 0.777925551
vt 0.883789062 0.777925551
vt 0.883789062 0.650265932
vt 0.885742188 0.650265932
vt 0.885742188 0.777925551
vt 0.948242188 0.777925551
vt 0.948242188 0.650265932
vt 0.0009765625 0.6875
vt 0.0009765625 0.815159559
vt 0.0634765625 0.815159559
vt 0.0634765625 0.6875
vt 0.350585938 0.6875
vt 0.350585938 0.815159559
vt 0.413085938 0.815159559
vt 0.413085938 0.6875
vt 0.0966796875 0.732712746
vt 0.0966796875 0.817819118
vt 0.190429688 0.817819118
vt 0.190429688 0.732712746
vt 0.192382812 0.732712746
vt 0.192382812 0.860372305
vt 0.254882812 0.860372305
vt 0.254882812 0.732712746
vt 0.256835938 0.732712746
vt 0.256835938 0.860372305
vt 0.319335938 0.860372305
vt 0.319335938 0.732712746
vt 0.504882812 0.732712746
vt 0.504882812 0.817819118
vt 0.567382812 0.817819118
vt 0.567382812 0.732712746
vt 0.756835938 0.735372305
vt 0.756835938 0.820478737
vt 0.819335938 0.820478737
vt 0.819335938 0.735372305
vt 0.440429688 0.775265932
vt 0.440429688 0.860372305
vt 0.502929688 0.860372305
vt 0.502929688 0.775265932
vt 0.629882812 0.777925551
vt 0.629882812 0.863031924
vt 0.692382812 0.863031924
vt 0.692382812 0.777925551
vt 0.821289062 0.78058511
vt 0.821289062 0.865691483
vt 0.883789062 0.865691483
vt 0.883789062 0.78058511
vt 0.885742188 0.78058511
vt 0.885742188 0.865691483
vt 0.948242188 0.865691483
vt 0.948242188 0.78058511
vt 0.0009765625 0.817819118
vt 0.0009765625 0.902925551
vt 0.0634765625 0.902925551
vt 0.0634765625 0.817819118
vt 0.350585938 0.817819118
vt 0.350585938 0.902925551
vt 0.413085938 0.902925551
vt 0.413085938 0.817819118
vt 0.0966796875 0.820478737
vt 0.0966796875 0.863031924
vt 0.159179688 0.863031924
vt 0.159179688 0.820478737
vt 0.504882812 0.820478737
vt 0.504882812 0.863031924
vt 0.567382812 0.863031924
vt 0.567382812 0.820478737
vt 0.950195312 0.00132977962
vt 0.950195312 0.0864361525
vt 0.981445312 0.0864361525
vt 0.981445312 0.00132977962
vt 0.950195312 0.0890957713
vt 0.950195312 0.174202144
vt 0.981445312 0.174202144
vt 0.981445312 0.0890957713
vt 0.950195312 0.176861703
vt 0.950195312 0.261968076
vt 0.981445312 0.261968076
vt 0.981445312 0.176861703
vt 0.950195312 0.264627635
vt 0.950195312 0.349734068
vt 0.981445312 0.349734068
vt 0.981445312 0.264627635
vt 0.950195312 0.352393627
vt 0.950195312 0.4375
vt 0.981445312 0.4375
vt 0.981445312 0.352393627
vt 0.950195312 0.440159559
vt 0.950195312 0.525265932
vt 0.981445312 0.525265932
vt 0.981445312 0.440159559
vt 0.756835938 0.823138297
vt 0.756835938 0.865691483
vt 0.819335938 0.865691483
vt 0.819335938 0.823138297
vt 0.950195312 0.527925491
vt 0.950195312 0.613031924
vt 0.981445312 0.613031924
vt 0.981445312 0.527925491
vt 0.950195312 0.615691483
vt 0.950195312 0.700797915
vt 0.981445312 0.700797915
vt 0.981445312 0.615691483
vt 0.192382812 0.863031924
vt 0.192382812 0.90558511
vt 0.254882812 0.90558511
vt 0.254882812 0.863031924
vt 0.256835938 0.863031924
vt 0.256835938 0.90558511
vt 0.319335938 0.90558511
vt 0.319335938 0.863031924
vt 0.440429688 0.863031924
vt 0.440429688 0.90558511
vt 0.502929688 0.90558511
vt 0.502929688 0.863031924
vt 0.694335938 0.647606373
vt 0.694335938 0.732712746
vt 0.725585938 0.732712746
vt 0.725585938 0.647606373
vt 0.950195312 0.703457475
vt 0.950195312 0.788563848
vt 0.981445312 0.788563848
vt 0.981445312 0.703457475
vt 0.569335938 0.732712746
vt 0.569335938 0.817819118
vt 0.600585938 0.817819118
vt 0.600585938 0.732712746
vt 0.694335938 0.735372305
vt 0.694335938 0.820478737
vt 0.725585938 0.820478737
vt 0.725585938 0.735372305
vt 0.950195312 0.791223407
vt 0.950195312 0.87632978
vt 0.981445312 0.87632978
vt 0.981445312 0.791223407
vt 0.569335938 0.820478737
vt 0.569335938 0.90558511
vt 0.600585938 0.90558511
vt 0.600585938 0.820478737
vt 0.694335938 0.823138297
vt 0.694335938 0.908244669
vt 0.725585938 0.908244669
vt 0.725585938 0.823138297
vt 0.0966796875 0.865691483
vt 0.0966796875 0.908244669
vt 0.159179688 0.908244669
vt 0.159179688 0.865691483
vt 0.504882812 0.865691483
vt 0.504882812 0.908244669
vt 0.567382812 0.908244669
vt 0.567382812 0.865691483
vt 0.629882812 0.865691483
vt 0.629882812 0.950797856
vt 0.661132812 0.950797856
vt 0.661132812 0.865691483
vt 0.756835938 0.868351042
vt 0.756835938 0.910904288
vt 0.819335938 0.910904288
vt 0.819335938 0.868351042
vt 0.821289062 0.868351042
vt 0.821289062 0.953457475
vt 0.852539062 0.953457475
vt 0.852539062 0.868351042
vt 0.854492188 0.868351042
vt 0.854492188 0.953457475
vt 0.885742188 0.953457475
vt 0.885742188 0.868351042
vt 0.887695312 0.868351042
vt 0.887695312 0.953457475
vt 0.918945312 0.953457475
vt 0.918945312 0.868351042
vt 0.0009765625 0.90558511
vt 0.0009765625 0.948138297
vt 0.0634765625 0.948138297
vt 0.0634765625 0.90558511
vt 0.950195312 0.878989339
vt 0.950195312 0.964095771
vt 0.981445312 0.964095771
vt 0.981445312 0.878989339
vt 0.350585938 0.90558511
vt 0.350585938 0.990691483
vt 0.381835938 0.990691483
vt 0.381835938 0.90558511
vt 0.383789062 0.90558511
vt 0.383789062 0.948138297
vt 0.415039062 0.948138297
vt 0.415039062 0.90558511
vt 0.192382812 0.908244669
vt 0.192382812 0.950797856
vt 0.223632812 0.950797856
vt 0.223632812 0.908244669
vt 0.225585938 0.908244669
vt 0.225585938 0.950797856
vt 0.256835938 0.950797856
vt 0.256835938 0.908244669
vt 0.258789062 0.908244669
vt 0.258789062 0.950797856
vt 0.290039062 0.950797856
vt 0.290039062 0.908244669
vt 0.291992188 0.908244669
vt 0.291992188 0.950797856
vt 0.323242188 0.950797856
vt 0.323242188 0.908244669
vt 0.440429688 0.908244669
vt 0.440429688 0.950797856
vt 0.471679688 0.950797856
vt 0.471679688 0.908244669
vt 0.569335938 0.908244669
vt 0.569335938 0.950797856
vt 0.600585938 0.950797856
vt 0.600585938 0.908244669
vt 0.0966796875 0.910904288
vt 0.0966796875 0.953457475
vt 0.127929688 0.953457475
vt 0.127929688 0.910904288
vt 0.129882812 0.910904288
vt 0.129882812 0.953457475
vt 0.161132812 0.953457475
vt 0.161132812 0.910904288
vt 0.504882812 0.910904288
vt 0.504882812 0.953457475
vt 0.536132812 0.953457475
vt 0.536132812 0.910904288
vt 0.694335938 0.910904288
vt 0.694335938 0.953457475
vt 0.725585938 0.953457475
vt 0.725585938 0.910904288
vt 0.756835938 0.913563848
vt 0.756835938 0.956117034
vt 0.788085938 0.956117034
vt 0.788085938 0.913563848
vt 0.0009765625 0.950797856
vt 0.0009765625 0.993351042
vt 0.0322265625 0.993351042
vt 0.0322265625 0.950797856
vt 0.0341796875 0.950797856
vt 0.0341796875 0.993351042
vt 0.0654296875 0.993351042
vt 0.0654296875 0.950797856
vt 0.383789062 0.950797856
vt 0.383789062 0.993351042
vt 0.415039062 0.993351042
vt 0.415039062 0.950797856
vt 0.192382812 0.953457475
vt 0.192382812 0.996010661
vt 0.223632812 0.996010661
vt 0.223632812 0.953457475
vt 0.225585938 0.953457475
vt 0.225585938 0.996010661
vt 0.256835938 0.996010661
vt 0.256835938 0.953457475
vt 0.258789062 0.953457475
vt 0.258789062 0.996010661
vt 0.290039062 0.996010661
vt 0.290039062 0.953457475
vt 0.291992188 0.953457475
vt 0.291992188 0.996010661
vt 0.323242188 0.996010661
vt 0.323242188 0.953457475
vt 0.440429688 0.953457475
vt 0.440429688 0.996010661
vt 0.471679688 0.996010661
vt 0.471679688 0.953457475
vt 0.569335938 0.953457475
vt 0.569335938 0.996010661
vt 0.600585938 0.996010661
vt 0.600585938 0.953457475
vt 0.629882812 0.953457475
vt 0.629882812 0.996010661
vt 0.661132812 0.996010661
vt 0.661132812 0.953457475
vt 0.0966796875 0.956117034
vt 0.0966796875 0.99867022
vt 0.127929688 0.99867022
vt 0.127929688 0.956117034
vt 0.129882812 0.956117034
vt 0.129882812 0.99867022
vt 0.161132812 0.99867022
vt 0.161132812 0.956117034
vt 0.504882812 0.956117034
vt 0.504882812 0.99867022
vt 0.536132812 0.99867022
vt 0.536132812 0.956117034
vt 0.694335938 0.956117034
vt 0.694335938 0.99867022
vt 0.725585938 0.99867022
vt 0.725585938 0.956117034
g lemaer_2-mesh_0
f 3/3/3 2/2/2 1/1/1
f 1/1/1 4/4/4 3/3/3
f 7/7/7 6/6/6 5/5/5
f 5/5/5 8/8/8 7/7/7
f 11/11/11 10/10/10 9/9/9
f 9/9/9 12/12/12 11/11/11
f 15/15/15 14/14/14 13/13/13
f 13/13/13 16/16/16 15/15/15
f 19/19/19 18/18/18 17/17/17
f 17/17/17 20/20/20 19/19/19
f 23/23/23 22/22/22 21/21/21
f 21/21/21 24/24/24 23/23/23
f 27/27/27 26/26/26 25/25/25
f 25/25/25 28/28/28 27/27/27
f 31/31/31 30/30/30 29/29/29
f 29/29/29 32/32/32 31/31/31
f 35/35/35 34/34/34 33/33/33
f 33/33/33 36/36/36 35/35/35
f 39/39/39 38/38/38 37/37/37
f 37/37/37 40/40/40 39/39/39
f 43/43/43 42/42/42 41/41/41
f 41/41/41 44/44/44 43/43/43
f 47/47/47 46/46/46 45/45/45
f 45/45/45 48/48/48 47/47/47
f 51/51/51 50/50/50 49/49/49
f 49/49/49 52/52/52 51/51/51
f 55/55/55 54/54/54 53/53/53
f 53/53/53 56/56/56 55/55/55
f 59/59/59 58/58/58 57/57/57
f 57/57/57 60/60/60 59/59/59
f 63/63/63 62/62/62 61/61/61
f 61/61/61 64/64/64 63/63/63
f 67/67/67 66/66/66 65/65/65
f 65/65/65 68/68/68 67/67/67
f 71/71/71 70/70/70 69/69/69
f 69/69/69 72/72/72 71/71/71
f 75/75/75 74/74/74 73/73/73
f 73/73/73 76/76/76 75/75/75
f 79/79/79 78/78/78 77/77/77
f 77/77/77 80/80/80 79/79/79
f 83/83/83 82/82/82 81/81/81
f 81/81/81 84/84/84 83/83/83
f 87/87/87 86/86/86 85/85/85
f 85/85/85 88/88/88 87/87/87
f 91/91/91 90/90/90 89/89/89
f 89/89/89 92/92/92 91/91/91
f 95/95/95 94/94/94 93/93/93
f 93/93/93 96/96/96 95/95/95
f 99/99/99 98/98/98 97/97/97
f 97/97/97 100/100/100 99/99/99
f 103/103/103 102/102/102 101/101/101
f 101/101/101 104/104/104 103/103/103
f 107/107/107 106/106/106 105/105/105
f 105/105/105 108/108/108 107/107/107
f 111/111/111 110/110/110 109/109/109
f 109/109/109 112/112/112 111/111/111
f 115/115/115 114/114/114 113/113/113
f 113/113/113 116/116/116 115/115/115
f 119/119/119 118/118/118 117/117/117
f 117/117/117 120/120/120 119/119/119
f 123/123/123 122/122/122 121/121/121
f 121/121/121 124/124/124 123/123/123
f 127/127/127 126/126/126 125/125/125
f 125/125/125 128/128/128 127/127/127
f 131/131/131 130/130/130 129/129/129
f 129/129/129 132/132/132 131/131/131
f 135/135/135 134/134/134 133/133/133
f 133/133/133 136/136/136 135/135/135
f 139/139/139 138/138/138 137/137/137
f 137/137/137 140/140/140 139/139/139
f 143/143/143 142/142/142 141/141/141
f 141/141/141 144/144/144 143/143/143
f 147/147/147 146/146/146 145/145/145
f 145/145/145 148/148/148 147/147/147
f 151/151/151 150/150/150 149/149/149
f 149/149/149 152/152/152 151/151/151
f 155/155/155 154/154/154 153/153/153
f 153/153/153 156/156/156 155/155/155
f 159/159/159 158/158/158 157/157/157
f 157/157/157 160/160/160 159/159/159
f 163/163/163 162/162/162 161/161/161
f 161/161/161 164/164/164 163/163/163
f 167/167/167 166/166/166 165/165/165
f 165/165/165 168/168/168 167/167/167
f 171/171/171 170/170/170 169/169/169
f 169/169/169 172/172/172 171/171/171
f 175/175/175 174/174/174 173/173/173
f 173/173/173 176/176/176 175/175/175
f 179/179/179 178/178/178 177/177/177
f 177/177/177 180/180/180 179/179/179
f 183/183/183 182/182/182 181/181/181
f 181/181/181 184/184/184 183/183/183
f 187/187/187 186/186/186 185/185/185
f 185/185/185 188/188/188 187/187/187
f 191/191/191 190/190/190 189/189/189
f 189/189/189 192/192/192 191/191/191
f 195/195/195 194/194/194 193/193/193
f 193/193/193 196/196/196 195/195/195
f 199/199/199 198/198/198 197/197/197
f 197/197/197 200/200/200 199/199/199
f 203/203/203 202/202/202 201/201/201
f 201/201/201 204/204/204 203/203/203
f 207/207/207 206/206/206 205/205/205
f 205/205/205 208/208/208 207/207/207
f 211/211/211 210/210/210 209/209/209
f 209/209/209 212/212/212 211/211/211
f 215/215/215 214/214/214 213/213/213
f 213/213/213 216/216/216 215/215/215
f 219/219/219 218/218/218 217/217/217
f 217/217/217 220/220/220 219/219/219
f 223/223/223 222/222/222 221/221/221
f 221/221/221 224/224/224 223/223/223
f 227/227/227 226/226/226 225/225/225
f 225/225/225 228/228/228 227/227/227
f 231/231/231 230/230/230 229/229/229
f 229/229/229 232/232/232 231/231/231
f 235/235/235 234/234/234 233/233/233
f 233/233/233 236/236/236 235/235/235
f 239/239/239 238/238/238 237/237/237
f 237/237/237 240/240/240 239/239/239
f 243/243/243 242/242/242 241/241/241
f 241/241/241 244/244/244 243/243/243
f 247/247/247 246/246/246 245/245/245
f 245/245/245 248/248/248 247/247/247
f 251/251/251 250/250/250 249/249/249
f 249/249/249 252/252/252 251/251/251
f 255/255/255 254/254/254 253/253/253
f 253/253/253 256/256/256 255/255/255
f 259/259/259 258/258/258 257/257/257
f 257/257/257 260/260/260 259/259/259
f 263/263/263 262/262/262 261/261/261
f 261/261/261 264/264/264 263/263/263
f 267/267/267 266/266/266 265/265/265
f 265/265/265 268/268/268 267/267/267
f 271/271/271 270/270/270 269/269/269
f 269/269/269 272/272/272 271/271/271
f 275/275/275 274/274/274 273/273/273
f 273/273/273 276/276/276 275/275/275
f 279/279/279 278/278/278 277/277/277
f 277/277/277 280/280/280 279/279/279
f 283/283/283 282/282/282 281/281/281
f 281/281/281 284/284/284 283/283/283
f 287/287/287 286/286/286 285/285/285
f 285/285/285 288/288/288 287/287/287
f 291/291/291 290/290/290 289/289/289
f 289/289/289 292/292/292 291/291/291
f 295/295/295 294/294/294 293/293/293
f 293/293/293 296/296/296 295/295/295
f 299/299/299 298/298/298 297/297/297
f 297/297/297 300/300/300 299/299/299
f 303/303/303 302/302/302 301/301/301
f 301/301/301 304/304/304 303/303/303
f 307/307/307 306/306/306 305/305/305
f 305/305/305 308/308/308 307/307/307
f 311/311/311 310/310/310 309/309/309
f 309/309/309 312/312/312 311/311/311
f 315/315/315 314/314/314 313/313/313
f 313/313/313 316/316/316 315/315/315
f 319/319/319 318/318/318 317/317/317
f 317/317/317 320/320/320 319/319/319
f 323/323/323 322/322/322 321/321/321
f 321/321/321 324/324/324 323/323/323
f 327/327/327 326/326/326 325/325/325
f 325/325/325 328/328/328 327/327/327
f 331/331/331 330/330/330 329/329/329
f 329/329/329 332/332/332 331/331/331
f 335/335/335 334/334/334 333/333/333
f 333/333/333 336/336/336 335/335/335
f 339/339/339 338/338/338 337/337/337
f 337/337/337 340/340/340 339/339/339
f 343/343/343 342/342/342 341/341/341
f 341/341/341 344/344/344 343/343/343
f 347/347/347 346/346/346 345/345/345
f 345/345/345 348/348/348 347/347/347
f 351/351/351 350/350/350 349/349/349
f 349/349/349 352/352/352 351/351/351
f 355/355/355 354/354/354 353/353/353
f 353/353/353 356/356/356 355/355/355
f 359/359/359 358/358/358 357/357/357
f 357/357/357 360/360/360 359/359/359
