g ruoyue_3_shophx-mesh
v -512 703 0
v -512 1087 0
v -864 1087 0
v -864 703 0
v -576 639 0
v -576 703 0
v -736 703 0
v -736 639 0
v -736 639 0
v -736 703 0
v -864 703 0
v -864 639 0
v -864 767 0
v -864 863 0
v -928 863 0
v -928 767 0
v -704 1087 0
v -704 1151 0
v -800 1151 0
v -800 1087 0
v -608 1087 0
v -608 1151 0
v -704 1151 0
v -704 1087 0
v -864 703 0
v -864 767 0
v -928 767 0
v -928 703 0
v -480 991 0
v -480 1055 0
v -512 1055 0
v -512 991 0
v -864 959 0
v -864 1023 0
v -896 1023 0
v -896 959 0
v -512 1087 0
v -512 1119 0
v -576 1119 0
v -576 1087 0
v -480 831 0
v -480 895 0
v -512 895 0
v -512 831 0
v -480 767 0
v -480 831 0
v -512 831 0
v -512 767 0
v -544 671 0
v -544 703 0
v -576 703 0
v -576 671 0
v -864 671 0
v -864 703 0
v -896 703 0
v -896 671 0
v -864 863 0
v -864 895 0
v -896 895 0
v -896 863 0
v -576 1087 0
v -576 1119 0
v -608 1119 0
v -608 1087 0
v -800 1087 0
v -800 1119 0
v -832 1119 0
v -832 1087 0
vt 0.001953125 0.0022124052
vt 0.001953125 0.851769924
vt 0.689453125 0.851769924
vt 0.689453125 0.0022124052
vt 0.001953125 0.856194675
vt 0.001953125 0.997787595
vt 0.314453125 0.997787595
vt 0.314453125 0.856194675
vt 0.693359375 0.0022124052
vt 0.693359375 0.143805325
vt 0.943359375 0.143805325
vt 0.943359375 0.0022124052
vt 0.693359375 0.148230076
vt 0.693359375 0.360619485
vt 0.818359375 0.360619485
vt 0.818359375 0.148230076
vt 0.693359375 0.365044236
vt 0.693359375 0.506637156
vt 0.880859375 0.506637156
vt 0.880859375 0.365044236
vt 0.693359375 0.511061907
vt 0.693359375 0.652654886
vt 0.880859375 0.652654886
vt 0.880859375 0.511061907
vt 0.693359375 0.657079637
vt 0.693359375 0.798672557
vt 0.818359375 0.798672557
vt 0.818359375 0.657079637
vt 0.884765625 0.148230076
vt 0.884765625 0.289822996
vt 0.947265625 0.289822996
vt 0.947265625 0.148230076
vt 0.884765625 0.294247806
vt 0.884765625 0.435840726
vt 0.947265625 0.435840726
vt 0.947265625 0.294247806
vt 0.822265625 0.657079637
vt 0.822265625 0.727876067
vt 0.947265625 0.727876067
vt 0.947265625 0.657079637
vt 0.822265625 0.732300878
vt 0.822265625 0.873893797
vt 0.884765625 0.873893797
vt 0.884765625 0.732300878
vt 0.888671875 0.732300878
vt 0.888671875 0.873893797
vt 0.951171875 0.873893797
vt 0.951171875 0.732300878
vt 0.693359375 0.803097367
vt 0.693359375 0.873893797
vt 0.755859375 0.873893797
vt 0.755859375 0.803097367
vt 0.318359375 0.856194675
vt 0.318359375 0.926991165
vt 0.380859375 0.926991165
vt 0.380859375 0.856194675
vt 0.384765625 0.856194675
vt 0.384765625 0.926991165
vt 0.447265625 0.926991165
vt 0.447265625 0.856194675
vt 0.451171875 0.856194675
vt 0.451171875 0.926991165
vt 0.513671875 0.926991165
vt 0.513671875 0.856194675
vt 0.517578125 0.856194675
vt 0.517578125 0.926991165
vt 0.580078125 0.926991165
vt 0.580078125 0.856194675
g ruoyue_3_shophx-mesh_0
f 3/3/3 2/2/2 1/1/1
f 1/1/1 4/4/4 3/3/3
f 7/7/7 6/6/6 5/5/5
f 5/5/5 8/8/8 7/7/7
f 11/11/11 10/10/10 9/9/9
f 9/9/9 12/12/12 11/11/11
f 15/15/15 14/14/14 13/13/13
f 13/13/13 16/16/16 15/15/15
f 19/19/19 18/18/18 17/17/17
f 17/17/17 20/20/20 19/19/19
f 23/23/23 22/22/22 21/21/21
f 21/21/21 24/24/24 23/23/23
f 27/27/27 26/26/26 25/25/25
f 25/25/25 28/28/28 27/27/27
f 31/31/31 30/30/30 29/29/29
f 29/29/29 32/32/32 31/31/31
f 35/35/35 34/34/34 33/33/33
f 33/33/33 36/36/36 35/35/35
f 39/39/39 38/38/38 37/37/37
f 37/37/37 40/40/40 39/39/39
f 43/43/43 42/42/42 41/41/41
f 41/41/41 44/44/44 43/43/43
f 47/47/47 46/46/46 45/45/45
f 45/45/45 48/48/48 47/47/47
f 51/51/51 50/50/50 49/49/49
f 49/49/49 52/52/52 51/51/51
f 55/55/55 54/54/54 53/53/53
f 53/53/53 56/56/56 55/55/55
f 59/59/59 58/58/58 57/57/57
f 57/57/57 60/60/60 59/59/59
f 63/63/63 62/62/62 61/61/61
f 61/61/61 64/64/64 63/63/63
f 67/67/67 66/66/66 65/65/65
f 65/65/65 68/68/68 67/67/67
