g guangrong_alter-mesh
v -256 169 0
v -256 1129 0
v -1024 1129 0
v -1024 169 0
v -1024 169 0
v -1024 1129 0
v -1760 1129 0
v -1760 169 0
v -1760 617 0
v -1760 1001 0
v -1920 1001 0
v -1920 617 0
v -1760 265 0
v -1760 617 0
v -1920 617 0
v -1920 265 0
v -544 41 0
v -544 169 0
v -928 169 0
v -928 41 0
v -352 1129 0
v -352 1225 0
v -864 1225 0
v -864 1129 0
v -864 1129 0
v -864 1225 0
v -1344 1225 0
v -1344 1129 0
v -928 41 0
v -928 169 0
v -1280 169 0
v -1280 41 0
v -160 681 0
v -160 1129 0
v -256 1129 0
v -256 681 0
v -160 265 0
v -160 681 0
v -256 681 0
v -256 265 0
v -1088 1289 0
v -1088 1321 0
v -1984 1321 0
v -1984 1289 0
v -192 1289 0
v -192 1321 0
v -1088 1321 0
v -1088 1289 0
v -416 73 0
v -416 169 0
v -544 169 0
v -544 73 0
v -960 1225 0
v -960 1289 0
v -1152 1289 0
v -1152 1225 0
v -768 1225 0
v -768 1289 0
v -960 1289 0
v -960 1225 0
v -96 393 0
v -96 553 0
v -160 553 0
v -160 393 0
v -96 553 0
v -96 713 0
v -160 713 0
v -160 553 0
v -1920 617 0
v -1920 777 0
v -1984 777 0
v -1984 617 0
v -1920 457 0
v -1920 617 0
v -1984 617 0
v -1984 457 0
v -32 457 0
v -32 585 0
v -96 585 0
v -96 457 0
v -1760 1001 0
v -1760 1065 0
v -1888 1065 0
v -1888 1001 0
v -224 1129 0
v -224 1193 0
v -352 1193 0
v -352 1129 0
v -1984 457 0
v -1984 553 0
v -2047 553 0
v -2047 457 0
v -1280 73 0
v -1280 169 0
v -1344 169 0
v -1344 73 0
v -1344 105 0
v -1344 169 0
v -1440 169 0
v -1440 105 0
v -96 1033 0
v -96 1129 0
v -160 1129 0
v -160 1033 0
v -1504 1129 0
v -1504 1161 0
v -1664 1161 0
v -1664 1129 0
v -1344 1129 0
v -1344 1161 0
v -1504 1161 0
v -1504 1129 0
v -800 9 0
v -800 41 0
v -960 41 0
v -960 9 0
v -960 9 0
v -960 41 0
v -1120 41 0
v -1120 9 0
v -1440 105 0
v -1440 169 0
v -1504 169 0
v -1504 105 0
v -96 969 0
v -96 1033 0
v -160 1033 0
v -160 969 0
v -1152 1225 0
v -1152 1257 0
v -1248 1257 0
v -1248 1225 0
v -1760 1065 0
v -1760 1097 0
v -1824 1097 0
v -1824 1065 0
v -1920 905 0
v -1920 969 0
v -1952 969 0
v -1952 905 0
v -32 1097 0
v -32 1129 0
v -96 1129 0
v -96 1097 0
v -128 745 0
v -128 809 0
v -160 809 0
v -160 745 0
v -416 1225 0
v -416 1257 0
v -480 1257 0
v -480 1225 0
v -0 457 0
v -0 521 0
v -32 521 0
v -32 457 0
v -1504 137 0
v -1504 169 0
v -1568 169 0
v -1568 137 0
v -704 9 0
v -704 41 0
v -768 41 0
v -768 9 0
v -352 137 0
v -352 169 0
v -416 169 0
v -416 137 0
v -1920 393 0
v -1920 457 0
v -1952 457 0
v -1952 393 0
v -192 233 0
v -192 265 0
v -256 265 0
v -256 233 0
v -128 265 0
v -128 329 0
v -160 329 0
v -160 265 0
v -1760 233 0
v -1760 265 0
v -1824 265 0
v -1824 233 0
v -128 841 0
v -128 905 0
v -160 905 0
v -160 841 0
v -1248 1225 0
v -1248 1257 0
v -1312 1257 0
v -1312 1225 0
v -128 905 0
v -128 969 0
v -160 969 0
v -160 905 0
v -1824 233 0
v -1824 265 0
v -1888 265 0
v -1888 233 0
v -1344 1161 0
v -1344 1193 0
v -1408 1193 0
v -1408 1161 0
v -128 329 0
v -128 393 0
v -160 393 0
v -160 329 0
v -64 1289 0
v -64 1321 0
v -128 1321 0
v -128 1289 0
v -1920 265 0
v -1920 297 0
v -1952 297 0
v -1952 265 0
v -64 585 0
v -64 617 0
v -96 617 0
v -96 585 0
v -1920 329 0
v -1920 361 0
v -1952 361 0
v -1952 329 0
v -64 425 0
v -64 457 0
v -96 457 0
v -96 425 0
v -1760 201 0
v -1760 233 0
v -1792 233 0
v -1792 201 0
v -384 105 0
v -384 137 0
v -416 137 0
v -416 105 0
v -224 201 0
v -224 233 0
v -256 233 0
v -256 201 0
v -1024 0 0
v -1024 9 0
v -1056 9 0
v -1056 0 0
v -1920 777 0
v -1920 809 0
v -1952 809 0
v -1952 777 0
v -128 1289 0
v -128 1321 0
v -160 1321 0
v -160 1289 0
v -736 1257 0
v -736 1289 0
v -768 1289 0
v -768 1257 0
v -1408 1161 0
v -1408 1193 0
v -1440 1193 0
v -1440 1161 0
v -128 713 0
v -128 745 0
v -160 745 0
v -160 713 0
v -1536 1161 0
v -1536 1193 0
v -1568 1193 0
v -1568 1161 0
v -64 1065 0
v -64 1097 0
v -96 1097 0
v -96 1065 0
v -672 1225 0
v -672 1257 0
v -704 1257 0
v -704 1225 0
v -288 1193 0
v -288 1225 0
v -320 1225 0
v -320 1193 0
vt 0.00048828125 0.000793635845
vt 0.00048828125 0.762698412
vt 0.375488281 0.762698412
vt 0.375488281 0.000793635845
vt 0.376464844 0.000793635845
vt 0.376464844 0.762698412
vt 0.735839844 0.762698412
vt 0.735839844 0.000793635845
vt 0.736816406 0.000793635845
vt 0.736816406 0.305555582
vt 0.814941406 0.305555582
vt 0.814941406 0.000793635845
vt 0.815917969 0.000793635845
vt 0.815917969 0.280158758
vt 0.894042969 0.280158758
vt 0.894042969 0.000793635845
vt 0.736816406 0.307142854
vt 0.736816406 0.408730149
vt 0.924316406 0.408730149
vt 0.924316406 0.307142854
vt 0.736816406 0.410317481
vt 0.736816406 0.486507952
vt 0.986816406 0.486507952
vt 0.986816406 0.410317481
vt 0.736816406 0.488095224
vt 0.736816406 0.564285755
vt 0.971191406 0.564285755
vt 0.971191406 0.488095224
vt 0.736816406 0.565873027
vt 0.736816406 0.667460322
vt 0.908691406 0.667460322
vt 0.908691406 0.565873027
vt 0.909667969 0.565873027
vt 0.909667969 0.921428561
vt 0.956542969 0.921428561
vt 0.956542969 0.565873027
vt 0.736816406 0.669047594
vt 0.736816406 0.999206364
vt 0.783691406 0.999206364
vt 0.783691406 0.669047594
vt 0.00048828125 0.764285684
vt 0.00048828125 0.789682508
vt 0.437988281 0.789682508
vt 0.437988281 0.764285684
vt 0.00048828125 0.791269839
vt 0.00048828125 0.816666663
vt 0.437988281 0.816666663
vt 0.437988281 0.791269839
vt 0.784667969 0.669047594
vt 0.784667969 0.745238066
vt 0.847167969 0.745238066
vt 0.847167969 0.669047594
vt 0.784667969 0.746825397
vt 0.784667969 0.797619045
vt 0.878417969 0.797619045
vt 0.878417969 0.746825397
vt 0.438964844 0.764285684
vt 0.438964844 0.815079331
vt 0.532714844 0.815079331
vt 0.532714844 0.764285684
vt 0.957519531 0.565873027
vt 0.957519531 0.692857146
vt 0.988769531 0.692857146
vt 0.988769531 0.565873027
vt 0.957519531 0.694444418
vt 0.957519531 0.821428537
vt 0.988769531 0.821428537
vt 0.988769531 0.694444418
vt 0.533691406 0.764285684
vt 0.533691406 0.891269863
vt 0.564941406 0.891269863
vt 0.564941406 0.764285684
vt 0.565917969 0.764285684
vt 0.565917969 0.891269863
vt 0.597167969 0.891269863
vt 0.597167969 0.764285684
vt 0.598144531 0.764285684
vt 0.598144531 0.865872979
vt 0.629394531 0.865872979
vt 0.629394531 0.764285684
vt 0.630371094 0.764285684
vt 0.630371094 0.815079331
vt 0.692871094 0.815079331
vt 0.692871094 0.764285684
vt 0.784667969 0.799206376
vt 0.784667969 0.850000024
vt 0.847167969 0.850000024
vt 0.847167969 0.799206376
vt 0.693847656 0.764285684
vt 0.693847656 0.840476155
vt 0.725097656 0.840476155
vt 0.725097656 0.764285684
vt 0.848144531 0.799206376
vt 0.848144531 0.875396848
vt 0.879394531 0.875396848
vt 0.879394531 0.799206376
vt 0.438964844 0.816666663
vt 0.438964844 0.86746031
vt 0.485839844 0.86746031
vt 0.485839844 0.816666663
vt 0.486816406 0.816666663
vt 0.486816406 0.892857134
vt 0.518066406 0.892857134
vt 0.518066406 0.816666663
vt 0.00048828125 0.818253994
vt 0.00048828125 0.843650818
vt 0.0786132812 0.843650818
vt 0.0786132812 0.818253994
vt 0.0795898438 0.818253994
vt 0.0795898438 0.843650818
vt 0.157714844 0.843650818
vt 0.157714844 0.818253994
vt 0.158691406 0.818253994
vt 0.158691406 0.843650818
vt 0.236816406 0.843650818
vt 0.236816406 0.818253994
vt 0.237792969 0.818253994
vt 0.237792969 0.843650818
vt 0.315917969 0.843650818
vt 0.315917969 0.818253994
vt 0.630371094 0.816666663
vt 0.630371094 0.86746031
vt 0.661621094 0.86746031
vt 0.661621094 0.816666663
vt 0.316894531 0.818253994
vt 0.316894531 0.869047642
vt 0.348144531 0.869047642
vt 0.348144531 0.818253994
vt 0.349121094 0.818253994
vt 0.349121094 0.843650818
vt 0.395996094 0.843650818
vt 0.395996094 0.818253994
vt 0.396972656 0.818253994
vt 0.396972656 0.843650818
vt 0.428222656 0.843650818
vt 0.428222656 0.818253994
vt 0.880371094 0.669047594
vt 0.880371094 0.719841242
vt 0.895996094 0.719841242
vt 0.895996094 0.669047594
vt 0.957519531 0.823015869
vt 0.957519531 0.848412693
vt 0.988769531 0.848412693
vt 0.988769531 0.823015869
vt 0.880371094 0.721428573
vt 0.880371094 0.772222221
vt 0.895996094 0.772222221
vt 0.895996094 0.721428573
vt 0.693847656 0.842063487
vt 0.693847656 0.86746031
vt 0.725097656 0.86746031
vt 0.725097656 0.842063487
vt 0.880371094 0.773809552
vt 0.880371094 0.8246032
vt 0.895996094 0.8246032
vt 0.895996094 0.773809552
vt 0.00048828125 0.84523809
vt 0.00048828125 0.870634913
vt 0.0317382812 0.870634913
vt 0.0317382812 0.84523809
vt 0.0327148438 0.84523809
vt 0.0327148438 0.870634913
vt 0.0639648438 0.870634913
vt 0.0639648438 0.84523809
vt 0.0649414062 0.84523809
vt 0.0649414062 0.870634913
vt 0.0961914062 0.870634913
vt 0.0961914062 0.84523809
vt 0.662597656 0.816666663
vt 0.662597656 0.86746031
vt 0.678222656 0.86746031
vt 0.678222656 0.816666663
vt 0.0971679688 0.84523809
vt 0.0971679688 0.870634913
vt 0.128417969 0.870634913
vt 0.128417969 0.84523809
vt 0.880371094 0.826190472
vt 0.880371094 0.876984119
vt 0.895996094 0.876984119
vt 0.895996094 0.826190472
vt 0.129394531 0.84523809
vt 0.129394531 0.870634913
vt 0.160644531 0.870634913
vt 0.160644531 0.84523809
vt 0.161621094 0.84523809
vt 0.161621094 0.896031737
vt 0.177246094 0.896031737
vt 0.177246094 0.84523809
vt 0.178222656 0.84523809
vt 0.178222656 0.870634913
vt 0.209472656 0.870634913
vt 0.209472656 0.84523809
vt 0.210449219 0.84523809
vt 0.210449219 0.896031737
vt 0.226074219 0.896031737
vt 0.226074219 0.84523809
vt 0.227050781 0.84523809
vt 0.227050781 0.870634913
vt 0.258300781 0.870634913
vt 0.258300781 0.84523809
vt 0.259277344 0.84523809
vt 0.259277344 0.870634913
vt 0.290527344 0.870634913
vt 0.290527344 0.84523809
vt 0.291503906 0.84523809
vt 0.291503906 0.896031737
vt 0.307128906 0.896031737
vt 0.307128906 0.84523809
vt 0.349121094 0.84523809
vt 0.349121094 0.870634913
vt 0.380371094 0.870634913
vt 0.380371094 0.84523809
vt 0.381347656 0.84523809
vt 0.381347656 0.870634913
vt 0.396972656 0.870634913
vt 0.396972656 0.84523809
vt 0.397949219 0.84523809
vt 0.397949219 0.870634913
vt 0.413574219 0.870634913
vt 0.413574219 0.84523809
vt 0.414550781 0.84523809
vt 0.414550781 0.870634913
vt 0.430175781 0.870634913
vt 0.430175781 0.84523809
vt 0.957519531 0.850000024
vt 0.957519531 0.875396848
vt 0.973144531 0.875396848
vt 0.973144531 0.850000024
vt 0.974121094 0.850000024
vt 0.974121094 0.875396848
vt 0.989746094 0.875396848
vt 0.989746094 0.850000024
vt 0.784667969 0.851587296
vt 0.784667969 0.876984119
vt 0.800292969 0.876984119
vt 0.800292969 0.851587296
vt 0.801269531 0.851587296
vt 0.801269531 0.876984119
vt 0.816894531 0.876984119
vt 0.816894531 0.851587296
vt 0.817871094 0.851587296
vt 0.817871094 0.859523773
vt 0.833496094 0.859523773
vt 0.833496094 0.851587296
vt 0.817871094 0.861111104
vt 0.817871094 0.886507928
vt 0.833496094 0.886507928
vt 0.833496094 0.861111104
vt 0.598144531 0.86746031
vt 0.598144531 0.892857134
vt 0.613769531 0.892857134
vt 0.613769531 0.86746031
vt 0.438964844 0.869047642
vt 0.438964844 0.894444466
vt 0.454589844 0.894444466
vt 0.454589844 0.869047642
vt 0.455566406 0.869047642
vt 0.455566406 0.894444466
vt 0.471191406 0.894444466
vt 0.471191406 0.869047642
vt 0.630371094 0.869047642
vt 0.630371094 0.894444466
vt 0.645996094 0.894444466
vt 0.645996094 0.869047642
vt 0.646972656 0.869047642
vt 0.646972656 0.894444466
vt 0.662597656 0.894444466
vt 0.662597656 0.869047642
vt 0.663574219 0.869047642
vt 0.663574219 0.894444466
vt 0.679199219 0.894444466
vt 0.679199219 0.869047642
vt 0.693847656 0.869047642
vt 0.693847656 0.894444466
vt 0.709472656 0.894444466
vt 0.709472656 0.869047642
vt 0.710449219 0.869047642
vt 0.710449219 0.894444466
vt 0.726074219 0.894444466
vt 0.726074219 0.869047642
g guangrong_alter-mesh_0
f 3/3/3 2/2/2 1/1/1
f 1/1/1 4/4/4 3/3/3
f 7/7/7 6/6/6 5/5/5
f 5/5/5 8/8/8 7/7/7
f 11/11/11 10/10/10 9/9/9
f 9/9/9 12/12/12 11/11/11
f 15/15/15 14/14/14 13/13/13
f 13/13/13 16/16/16 15/15/15
f 19/19/19 18/18/18 17/17/17
f 17/17/17 20/20/20 19/19/19
f 23/23/23 22/22/22 21/21/21
f 21/21/21 24/24/24 23/23/23
f 27/27/27 26/26/26 25/25/25
f 25/25/25 28/28/28 27/27/27
f 31/31/31 30/30/30 29/29/29
f 29/29/29 32/32/32 31/31/31
f 35/35/35 34/34/34 33/33/33
f 33/33/33 36/36/36 35/35/35
f 39/39/39 38/38/38 37/37/37
f 37/37/37 40/40/40 39/39/39
f 43/43/43 42/42/42 41/41/41
f 41/41/41 44/44/44 43/43/43
f 47/47/47 46/46/46 45/45/45
f 45/45/45 48/48/48 47/47/47
f 51/51/51 50/50/50 49/49/49
f 49/49/49 52/52/52 51/51/51
f 55/55/55 54/54/54 53/53/53
f 53/53/53 56/56/56 55/55/55
f 59/59/59 58/58/58 57/57/57
f 57/57/57 60/60/60 59/59/59
f 63/63/63 62/62/62 61/61/61
f 61/61/61 64/64/64 63/63/63
f 67/67/67 66/66/66 65/65/65
f 65/65/65 68/68/68 67/67/67
f 71/71/71 70/70/70 69/69/69
f 69/69/69 72/72/72 71/71/71
f 75/75/75 74/74/74 73/73/73
f 73/73/73 76/76/76 75/75/75
f 79/79/79 78/78/78 77/77/77
f 77/77/77 80/80/80 79/79/79
f 83/83/83 82/82/82 81/81/81
f 81/81/81 84/84/84 83/83/83
f 87/87/87 86/86/86 85/85/85
f 85/85/85 88/88/88 87/87/87
f 91/91/91 90/90/90 89/89/89
f 89/89/89 92/92/92 91/91/91
f 95/95/95 94/94/94 93/93/93
f 93/93/93 96/96/96 95/95/95
f 99/99/99 98/98/98 97/97/97
f 97/97/97 100/100/100 99/99/99
f 103/103/103 102/102/102 101/101/101
f 101/101/101 104/104/104 103/103/103
f 107/107/107 106/106/106 105/105/105
f 105/105/105 108/108/108 107/107/107
f 111/111/111 110/110/110 109/109/109
f 109/109/109 112/112/112 111/111/111
f 115/115/115 114/114/114 113/113/113
f 113/113/113 116/116/116 115/115/115
f 119/119/119 118/118/118 117/117/117
f 117/117/117 120/120/120 119/119/119
f 123/123/123 122/122/122 121/121/121
f 121/121/121 124/124/124 123/123/123
f 127/127/127 126/126/126 125/125/125
f 125/125/125 128/128/128 127/127/127
f 131/131/131 130/130/130 129/129/129
f 129/129/129 132/132/132 131/131/131
f 135/135/135 134/134/134 133/133/133
f 133/133/133 136/136/136 135/135/135
f 139/139/139 138/138/138 137/137/137
f 137/137/137 140/140/140 139/139/139
f 143/143/143 142/142/142 141/141/141
f 141/141/141 144/144/144 143/143/143
f 147/147/147 146/146/146 145/145/145
f 145/145/145 148/148/148 147/147/147
f 151/151/151 150/150/150 149/149/149
f 149/149/149 152/152/152 151/151/151
f 155/155/155 154/154/154 153/153/153
f 153/153/153 156/156/156 155/155/155
f 159/159/159 158/158/158 157/157/157
f 157/157/157 160/160/160 159/159/159
f 163/163/163 162/162/162 161/161/161
f 161/161/161 164/164/164 163/163/163
f 167/167/167 166/166/166 165/165/165
f 165/165/165 168/168/168 167/167/167
f 171/171/171 170/170/170 169/169/169
f 169/169/169 172/172/172 171/171/171
f 175/175/175 174/174/174 173/173/173
f 173/173/173 176/176/176 175/175/175
f 179/179/179 178/178/178 177/177/177
f 177/177/177 180/180/180 179/179/179
f 183/183/183 182/182/182 181/181/181
f 181/181/181 184/184/184 183/183/183
f 187/187/187 186/186/186 185/185/185
f 185/185/185 188/188/188 187/187/187
f 191/191/191 190/190/190 189/189/189
f 189/189/189 192/192/192 191/191/191
f 195/195/195 194/194/194 193/193/193
f 193/193/193 196/196/196 195/195/195
f 199/199/199 198/198/198 197/197/197
f 197/197/197 200/200/200 199/199/199
f 203/203/203 202/202/202 201/201/201
f 201/201/201 204/204/204 203/203/203
f 207/207/207 206/206/206 205/205/205
f 205/205/205 208/208/208 207/207/207
f 211/211/211 210/210/210 209/209/209
f 209/209/209 212/212/212 211/211/211
f 215/215/215 214/214/214 213/213/213
f 213/213/213 216/216/216 215/215/215
f 219/219/219 218/218/218 217/217/217
f 217/217/217 220/220/220 219/219/219
f 223/223/223 222/222/222 221/221/221
f 221/221/221 224/224/224 223/223/223
f 227/227/227 226/226/226 225/225/225
f 225/225/225 228/228/228 227/227/227
f 231/231/231 230/230/230 229/229/229
f 229/229/229 232/232/232 231/231/231
f 235/235/235 234/234/234 233/233/233
f 233/233/233 236/236/236 235/235/235
f 239/239/239 238/238/238 237/237/237
f 237/237/237 240/240/240 239/239/239
f 243/243/243 242/242/242 241/241/241
f 241/241/241 244/244/244 243/243/243
f 247/247/247 246/246/246 245/245/245
f 245/245/245 248/248/248 247/247/247
f 251/251/251 250/250/250 249/249/249
f 249/249/249 252/252/252 251/251/251
f 255/255/255 254/254/254 253/253/253
f 253/253/253 256/256/256 255/255/255
f 259/259/259 258/258/258 257/257/257
f 257/257/257 260/260/260 259/259/259
f 263/263/263 262/262/262 261/261/261
f 261/261/261 264/264/264 263/263/263
f 267/267/267 266/266/266 265/265/265
f 265/265/265 268/268/268 267/267/267
f 271/271/271 270/270/270 269/269/269
f 269/269/269 272/272/272 271/271/271
f 275/275/275 274/274/274 273/273/273
f 273/273/273 276/276/276 275/275/275
f 279/279/279 278/278/278 277/277/277
f 277/277/277 280/280/280 279/279/279
