g bojiateli_bj-mesh
v -928 1087 0
v -928 1311 0
v -1184 1311 0
v -1184 1087 0
v -1152 95 0
v -1152 319 0
v -1344 319 0
v -1344 95 0
v -640 191 0
v -640 415 0
v -800 415 0
v -800 191 0
v -1120 831 0
v -1120 1087 0
v -1248 1087 0
v -1248 831 0
v -800 671 0
v -800 831 0
v -960 831 0
v -960 671 0
v -1312 991 0
v -1312 1151 0
v -1440 1151 0
v -1440 991 0
v -1312 831 0
v -1312 991 0
v -1440 991 0
v -1440 831 0
v -1568 319 0
v -1568 479 0
v -1664 479 0
v -1664 319 0
v -672 799 0
v -672 959 0
v -768 959 0
v -768 799 0
v -1344 159 0
v -1344 255 0
v -1472 255 0
v -1472 159 0
v -1120 1471 0
v -1120 1535 0
v -1248 1535 0
v -1248 1471 0
v -1184 1087 0
v -1184 1151 0
v -1312 1151 0
v -1312 1087 0
v -1184 319 0
v -1184 383 0
v -1312 383 0
v -1312 319 0
v -576 191 0
v -576 319 0
v -640 319 0
v -640 191 0
v -832 223 0
v -832 287 0
v -960 287 0
v -960 223 0
v -608 959 0
v -608 1023 0
v -704 1023 0
v -704 959 0
v -800 831 0
v -800 927 0
v -864 927 0
v -864 831 0
v -1056 287 0
v -1056 351 0
v -1152 351 0
v -1152 287 0
v -1440 255 0
v -1440 351 0
v -1504 351 0
v -1504 255 0
v -1376 671 0
v -1376 767 0
v -1440 767 0
v -1440 671 0
v -800 607 0
v -800 671 0
v -896 671 0
v -896 607 0
v -960 1311 0
v -960 1407 0
v -1024 1407 0
v -1024 1311 0
v -1056 991 0
v -1056 1087 0
v -1120 1087 0
v -1120 991 0
v -1440 863 0
v -1440 1023 0
v -1472 1023 0
v -1472 863 0
v -1248 895 0
v -1248 959 0
v -1312 959 0
v -1312 895 0
v -1248 1023 0
v -1248 1087 0
v -1312 1087 0
v -1312 1023 0
v -992 1023 0
v -992 1087 0
v -1056 1087 0
v -1056 1023 0
v -1056 1439 0
v -1056 1503 0
v -1120 1503 0
v -1120 1439 0
v -512 1343 0
v -512 1407 0
v -576 1407 0
v -576 1343 0
v -1408 1247 0
v -1408 1311 0
v -1472 1311 0
v -1472 1247 0
v -1664 607 0
v -1664 671 0
v -1728 671 0
v -1728 607 0
v -1664 351 0
v -1664 415 0
v -1728 415 0
v -1728 351 0
v -896 1151 0
v -896 1279 0
v -928 1279 0
v -928 1151 0
v -1056 927 0
v -1056 991 0
v -1120 991 0
v -1120 927 0
v -1248 1247 0
v -1248 1311 0
v -1312 1311 0
v -1312 1247 0
v -1440 735 0
v -1440 863 0
v -1472 863 0
v -1472 735 0
v -896 1055 0
v -896 1151 0
v -928 1151 0
v -928 1055 0
v -1312 1375 0
v -1312 1471 0
v -1344 1471 0
v -1344 1375 0
v -768 703 0
v -768 799 0
v -800 799 0
v -800 703 0
v -768 799 0
v -768 895 0
v -800 895 0
v -800 799 0
v -1280 63 0
v -1280 95 0
v -1376 95 0
v -1376 63 0
v -608 415 0
v -608 447 0
v -704 447 0
v -704 415 0
v -1184 63 0
v -1184 95 0
v -1280 95 0
v -1280 63 0
v -1248 1471 0
v -1248 1503 0
v -1312 1503 0
v -1312 1471 0
v -1312 799 0
v -1312 831 0
v -1376 831 0
v -1376 799 0
v -1344 127 0
v -1344 159 0
v -1408 159 0
v -1408 127 0
v -1536 415 0
v -1536 479 0
v -1568 479 0
v -1568 415 0
v -1024 1407 0
v -1024 1471 0
v -1056 1471 0
v -1056 1407 0
v -736 1279 0
v -736 1343 0
v -768 1343 0
v -768 1279 0
v -992 703 0
v -992 767 0
v -1024 767 0
v -1024 703 0
v -832 575 0
v -832 607 0
v -896 607 0
v -896 575 0
v -800 191 0
v -800 255 0
v -832 255 0
v -832 191 0
v -640 831 0
v -640 895 0
v -672 895 0
v -672 831 0
v -672 1247 0
v -672 1311 0
v -704 1311 0
v -704 1247 0
v -928 287 0
v -928 319 0
v -992 319 0
v -992 287 0
v -1216 1215 0
v -1216 1279 0
v -1248 1279 0
v -1248 1215 0
v -960 735 0
v -960 799 0
v -992 799 0
v -992 735 0
v -1344 1151 0
v -1344 1183 0
v -1408 1183 0
v -1408 1151 0
v -1120 191 0
v -1120 255 0
v -1152 255 0
v -1152 191 0
v -960 671 0
v -960 735 0
v -992 735 0
v -992 671 0
v -704 415 0
v -704 447 0
v -768 447 0
v -768 415 0
v -1312 1311 0
v -1312 1375 0
v -1344 1375 0
v -1344 1311 0
v -1280 1151 0
v -1280 1183 0
v -1344 1183 0
v -1344 1151 0
v -1184 1151 0
v -1184 1215 0
v -1216 1215 0
v -1216 1151 0
v -672 159 0
v -672 191 0
v -736 191 0
v -736 159 0
v -1472 799 0
v -1472 863 0
v -1504 863 0
v -1504 799 0
v -1184 1215 0
v -1184 1279 0
v -1216 1279 0
v -1216 1215 0
v -608 159 0
v -608 191 0
v -672 191 0
v -672 159 0
v -1120 127 0
v -1120 191 0
v -1152 191 0
v -1152 127 0
v -1664 415 0
v -1664 447 0
v -1696 447 0
v -1696 415 0
v -896 639 0
v -896 671 0
v -928 671 0
v -928 639 0
v -1344 671 0
v -1344 703 0
v -1376 703 0
v -1376 671 0
v -1408 767 0
v -1408 799 0
v -1440 799 0
v -1440 767 0
v -1248 863 0
v -1248 895 0
v -1280 895 0
v -1280 863 0
v -864 831 0
v -864 863 0
v -896 863 0
v -896 831 0
v -1344 767 0
v -1344 799 0
v -1376 799 0
v -1376 767 0
v -1088 895 0
v -1088 927 0
v -1120 927 0
v -1120 895 0
v -608 383 0
v -608 415 0
v -640 415 0
v -640 383 0
v -1344 255 0
v -1344 287 0
v -1376 287 0
v -1376 255 0
v -1344 95 0
v -1344 127 0
v -1376 127 0
v -1376 95 0
v -1088 191 0
v -1088 223 0
v -1120 223 0
v -1120 191 0
v -1408 255 0
v -1408 287 0
v -1440 287 0
v -1440 255 0
v -608 319 0
v -608 351 0
v -640 351 0
v -640 319 0
v -1472 351 0
v -1472 383 0
v -1504 383 0
v -1504 351 0
v -960 255 0
v -960 287 0
v -992 287 0
v -992 255 0
v -1152 319 0
v -1152 351 0
v -1184 351 0
v -1184 319 0
v -512 1407 0
v -512 1439 0
v -544 1439 0
v -544 1407 0
v -1280 1439 0
v -1280 1471 0
v -1312 1471 0
v -1312 1439 0
v -992 1407 0
v -992 1439 0
v -1024 1439 0
v -1024 1407 0
v -608 1407 0
v -608 1439 0
v -640 1439 0
v -640 1407 0
v -1376 799 0
v -1376 831 0
v -1408 831 0
v -1408 799 0
v -1472 767 0
v -1472 799 0
v -1504 799 0
v -1504 767 0
v -1408 127 0
v -1408 159 0
v -1440 159 0
v -1440 127 0
v -1536 383 0
v -1536 415 0
v -1568 415 0
v -1568 383 0
v -576 1343 0
v -576 1375 0
v -608 1375 0
v -608 1343 0
v -960 1055 0
v -960 1087 0
v -992 1087 0
v -992 1055 0
v -1216 1151 0
v -1216 1183 0
v -1248 1183 0
v -1248 1151 0
v -640 927 0
v -640 959 0
v -672 959 0
v -672 927 0
v -1024 991 0
v -1024 1023 0
v -1056 1023 0
v -1056 991 0
v -1024 1311 0
v -1024 1343 0
v -1056 1343 0
v -1056 1311 0
v -928 1311 0
v -928 1343 0
v -960 1343 0
v -960 1311 0
v -608 1247 0
v -608 1279 0
v -640 1279 0
v -640 1247 0
v -1280 1311 0
v -1280 1343 0
v -1312 1343 0
v -1312 1311 0
vt 0.0009765625 0.00152438879
vt 0.0009765625 0.342987776
vt 0.250976562 0.342987776
vt 0.250976562 0.00152438879
vt 0.252929688 0.00152438879
vt 0.252929688 0.342987776
vt 0.440429688 0.342987776
vt 0.440429688 0.00152438879
vt 0.442382812 0.00152438879
vt 0.442382812 0.342987776
vt 0.598632812 0.342987776
vt 0.598632812 0.00152438879
vt 0.600585938 0.00152438879
vt 0.600585938 0.391768277
vt 0.725585938 0.391768277
vt 0.725585938 0.00152438879
vt 0.727539062 0.00152438879
vt 0.727539062 0.245426834
vt 0.883789062 0.245426834
vt 0.883789062 0.00152438879
vt 0.727539062 0.248475611
vt 0.727539062 0.492378056
vt 0.852539062 0.492378056
vt 0.852539062 0.248475611
vt 0.854492188 0.248475611
vt 0.854492188 0.492378056
vt 0.979492188 0.492378056
vt 0.979492188 0.248475611
vt 0.0009765625 0.346036613
vt 0.0009765625 0.589938998
vt 0.0947265625 0.589938998
vt 0.0947265625 0.346036613
vt 0.0966796875 0.346036613
vt 0.0966796875 0.589938998
vt 0.190429688 0.589938998
vt 0.190429688 0.346036613
vt 0.192382812 0.346036613
vt 0.192382812 0.492378056
vt 0.317382812 0.492378056
vt 0.317382812 0.346036613
vt 0.319335938 0.346036613
vt 0.319335938 0.443597555
vt 0.444335938 0.443597555
vt 0.444335938 0.346036613
vt 0.446289062 0.346036613
vt 0.446289062 0.443597555
vt 0.571289062 0.443597555
vt 0.571289062 0.346036613
vt 0.600585938 0.394817054
vt 0.600585938 0.492378056
vt 0.725585938 0.492378056
vt 0.725585938 0.394817054
vt 0.319335938 0.446646333
vt 0.319335938 0.641768336
vt 0.381835938 0.641768336
vt 0.381835938 0.446646333
vt 0.383789062 0.446646333
vt 0.383789062 0.544207335
vt 0.508789062 0.544207335
vt 0.508789062 0.446646333
vt 0.192382812 0.495426834
vt 0.192382812 0.592987776
vt 0.286132812 0.592987776
vt 0.286132812 0.495426834
vt 0.510742188 0.446646333
vt 0.510742188 0.592987776
vt 0.573242188 0.592987776
vt 0.573242188 0.446646333
vt 0.600585938 0.495426834
vt 0.600585938 0.592987776
vt 0.694335938 0.592987776
vt 0.694335938 0.495426834
vt 0.696289062 0.495426834
vt 0.696289062 0.641768336
vt 0.758789062 0.641768336
vt 0.758789062 0.495426834
vt 0.760742188 0.495426834
vt 0.760742188 0.641768336
vt 0.823242188 0.641768336
vt 0.823242188 0.495426834
vt 0.825195312 0.495426834
vt 0.825195312 0.592987776
vt 0.918945312 0.592987776
vt 0.918945312 0.495426834
vt 0.920898438 0.495426834
vt 0.920898438 0.641768336
vt 0.983398438 0.641768336
vt 0.983398438 0.495426834
vt 0.383789062 0.547256112
vt 0.383789062 0.693597555
vt 0.446289062 0.693597555
vt 0.446289062 0.547256112
vt 0.448242188 0.547256112
vt 0.448242188 0.791158557
vt 0.479492188 0.791158557
vt 0.479492188 0.547256112
vt 0.0009765625 0.592987776
vt 0.0009765625 0.690548778
vt 0.0634765625 0.690548778
vt 0.0634765625 0.592987776
vt 0.0654296875 0.592987776
vt 0.0654296875 0.690548778
vt 0.127929688 0.690548778
vt 0.127929688 0.592987776
vt 0.192382812 0.596036553
vt 0.192382812 0.693597555
vt 0.254882812 0.693597555
vt 0.254882812 0.596036553
vt 0.510742188 0.596036553
vt 0.510742188 0.693597555
vt 0.573242188 0.693597555
vt 0.573242188 0.596036553
vt 0.600585938 0.596036553
vt 0.600585938 0.693597555
vt 0.663085938 0.693597555
vt 0.663085938 0.596036553
vt 0.825195312 0.596036553
vt 0.825195312 0.693597555
vt 0.887695312 0.693597555
vt 0.887695312 0.596036553
vt 0.319335938 0.644817114
vt 0.319335938 0.742378056
vt 0.381835938 0.742378056
vt 0.381835938 0.644817114
vt 0.696289062 0.644817114
vt 0.696289062 0.742378056
vt 0.758789062 0.742378056
vt 0.758789062 0.644817114
vt 0.129882812 0.592987776
vt 0.129882812 0.788109779
vt 0.161132812 0.788109779
vt 0.161132812 0.592987776
vt 0.760742188 0.644817114
vt 0.760742188 0.742378056
vt 0.823242188 0.742378056
vt 0.823242188 0.644817114
vt 0.920898438 0.644817114
vt 0.920898438 0.742378056
vt 0.983398438 0.742378056
vt 0.983398438 0.644817114
vt 0.256835938 0.596036553
vt 0.256835938 0.791158557
vt 0.288085938 0.791158557
vt 0.288085938 0.596036553
vt 0.0009765625 0.693597555
vt 0.0009765625 0.839938998
vt 0.0322265625 0.839938998
vt 0.0322265625 0.693597555
vt 0.0341796875 0.693597555
vt 0.0341796875 0.839938998
vt 0.0654296875 0.839938998
vt 0.0654296875 0.693597555
vt 0.0673828125 0.693597555
vt 0.0673828125 0.839938998
vt 0.0986328125 0.839938998
vt 0.0986328125 0.693597555
vt 0.192382812 0.696646333
vt 0.192382812 0.842987776
vt 0.223632812 0.842987776
vt 0.223632812 0.696646333
vt 0.510742188 0.696646333
vt 0.510742188 0.745426834
vt 0.604492188 0.745426834
vt 0.604492188 0.696646333
vt 0.825195312 0.696646333
vt 0.825195312 0.745426834
vt 0.918945312 0.745426834
vt 0.918945312 0.696646333
vt 0.319335938 0.745426834
vt 0.319335938 0.794207335
vt 0.413085938 0.794207335
vt 0.413085938 0.745426834
vt 0.606445312 0.696646333
vt 0.606445312 0.745426834
vt 0.668945312 0.745426834
vt 0.668945312 0.696646333
vt 0.696289062 0.745426834
vt 0.696289062 0.794207335
vt 0.758789062 0.794207335
vt 0.758789062 0.745426834
vt 0.760742188 0.745426834
vt 0.760742188 0.794207335
vt 0.823242188 0.794207335
vt 0.823242188 0.745426834
vt 0.415039062 0.696646333
vt 0.415039062 0.794207335
vt 0.446289062 0.794207335
vt 0.446289062 0.696646333
vt 0.920898438 0.745426834
vt 0.920898438 0.842987776
vt 0.952148438 0.842987776
vt 0.952148438 0.745426834
vt 0.954101562 0.745426834
vt 0.954101562 0.842987776
vt 0.985351562 0.842987776
vt 0.985351562 0.745426834
vt 0.510742188 0.748475611
vt 0.510742188 0.846036553
vt 0.541992188 0.846036553
vt 0.541992188 0.748475611
vt 0.543945312 0.748475611
vt 0.543945312 0.797256112
vt 0.606445312 0.797256112
vt 0.606445312 0.748475611
vt 0.608398438 0.748475611
vt 0.608398438 0.846036553
vt 0.639648438 0.846036553
vt 0.639648438 0.748475611
vt 0.641601562 0.748475611
vt 0.641601562 0.846036553
vt 0.672851562 0.846036553
vt 0.672851562 0.748475611
vt 0.825195312 0.748475611
vt 0.825195312 0.846036553
vt 0.856445312 0.846036553
vt 0.856445312 0.748475611
vt 0.319335938 0.797256112
vt 0.319335938 0.846036553
vt 0.381835938 0.846036553
vt 0.381835938 0.797256112
vt 0.858398438 0.748475611
vt 0.858398438 0.846036553
vt 0.889648438 0.846036553
vt 0.889648438 0.748475611
vt 0.129882812 0.791158557
vt 0.129882812 0.888719499
vt 0.161132812 0.888719499
vt 0.161132812 0.791158557
vt 0.383789062 0.797256112
vt 0.383789062 0.846036553
vt 0.446289062 0.846036553
vt 0.446289062 0.797256112
vt 0.256835938 0.794207335
vt 0.256835938 0.891768277
vt 0.288085938 0.891768277
vt 0.288085938 0.794207335
vt 0.448242188 0.794207335
vt 0.448242188 0.891768277
vt 0.479492188 0.891768277
vt 0.479492188 0.794207335
vt 0.696289062 0.797256112
vt 0.696289062 0.846036553
vt 0.758789062 0.846036553
vt 0.758789062 0.797256112
vt 0.760742188 0.797256112
vt 0.760742188 0.894817054
vt 0.791992188 0.894817054
vt 0.791992188 0.797256112
vt 0.543945312 0.80030489
vt 0.543945312 0.849085331
vt 0.606445312 0.849085331
vt 0.606445312 0.80030489
vt 0.0009765625 0.842987776
vt 0.0009765625 0.940548778
vt 0.0322265625 0.940548778
vt 0.0322265625 0.842987776
vt 0.0341796875 0.842987776
vt 0.0341796875 0.891768277
vt 0.0966796875 0.891768277
vt 0.0966796875 0.842987776
vt 0.192382812 0.846036553
vt 0.192382812 0.943597555
vt 0.223632812 0.943597555
vt 0.223632812 0.846036553
vt 0.920898438 0.846036553
vt 0.920898438 0.943597555
vt 0.952148438 0.943597555
vt 0.952148438 0.846036553
vt 0.319335938 0.849085331
vt 0.319335938 0.897865832
vt 0.381835938 0.897865832
vt 0.381835938 0.849085331
vt 0.954101562 0.846036553
vt 0.954101562 0.943597555
vt 0.985351562 0.943597555
vt 0.985351562 0.846036553
vt 0.383789062 0.849085331
vt 0.383789062 0.897865832
vt 0.415039062 0.897865832
vt 0.415039062 0.849085331
vt 0.510742188 0.849085331
vt 0.510742188 0.897865832
vt 0.541992188 0.897865832
vt 0.541992188 0.849085331
vt 0.608398438 0.849085331
vt 0.608398438 0.897865832
vt 0.639648438 0.897865832
vt 0.639648438 0.849085331
vt 0.641601562 0.849085331
vt 0.641601562 0.897865832
vt 0.672851562 0.897865832
vt 0.672851562 0.849085331
vt 0.696289062 0.849085331
vt 0.696289062 0.897865832
vt 0.727539062 0.897865832
vt 0.727539062 0.849085331
vt 0.825195312 0.849085331
vt 0.825195312 0.897865832
vt 0.856445312 0.897865832
vt 0.856445312 0.849085331
vt 0.858398438 0.849085331
vt 0.858398438 0.897865832
vt 0.889648438 0.897865832
vt 0.889648438 0.849085331
vt 0.543945312 0.852134168
vt 0.543945312 0.900914609
vt 0.575195312 0.900914609
vt 0.575195312 0.852134168
vt 0.129882812 0.891768277
vt 0.129882812 0.940548778
vt 0.161132812 0.940548778
vt 0.161132812 0.891768277
vt 0.0341796875 0.894817054
vt 0.0341796875 0.943597555
vt 0.0654296875 0.943597555
vt 0.0654296875 0.894817054
vt 0.0673828125 0.894817054
vt 0.0673828125 0.943597555
vt 0.0986328125 0.943597555
vt 0.0986328125 0.894817054
vt 0.256835938 0.894817054
vt 0.256835938 0.943597555
vt 0.288085938 0.943597555
vt 0.288085938 0.894817054
vt 0.448242188 0.894817054
vt 0.448242188 0.943597555
vt 0.479492188 0.943597555
vt 0.479492188 0.894817054
vt 0.760742188 0.897865832
vt 0.760742188 0.946646333
vt 0.791992188 0.946646333
vt 0.791992188 0.897865832
vt 0.319335938 0.900914609
vt 0.319335938 0.94969511
vt 0.350585938 0.94969511
vt 0.350585938 0.900914609
vt 0.352539062 0.900914609
vt 0.352539062 0.94969511
vt 0.383789062 0.94969511
vt 0.383789062 0.900914609
vt 0.385742188 0.900914609
vt 0.385742188 0.94969511
vt 0.416992188 0.94969511
vt 0.416992188 0.900914609
vt 0.510742188 0.900914609
vt 0.510742188 0.94969511
vt 0.541992188 0.94969511
vt 0.541992188 0.900914609
vt 0.608398438 0.900914609
vt 0.608398438 0.94969511
vt 0.639648438 0.94969511
vt 0.639648438 0.900914609
vt 0.641601562 0.900914609
vt 0.641601562 0.94969511
vt 0.672851562 0.94969511
vt 0.672851562 0.900914609
vt 0.696289062 0.900914609
vt 0.696289062 0.94969511
vt 0.727539062 0.94969511
vt 0.727539062 0.900914609
vt 0.825195312 0.900914609
vt 0.825195312 0.94969511
vt 0.856445312 0.94969511
vt 0.856445312 0.900914609
vt 0.858398438 0.900914609
vt 0.858398438 0.94969511
vt 0.889648438 0.94969511
vt 0.889648438 0.900914609
vt 0.543945312 0.903963447
vt 0.543945312 0.952743888
vt 0.575195312 0.952743888
vt 0.575195312 0.903963447
vt 0.0009765625 0.943597555
vt 0.0009765625 0.992378056
vt 0.0322265625 0.992378056
vt 0.0322265625 0.943597555
vt 0.129882812 0.943597555
vt 0.129882812 0.992378056
vt 0.161132812 0.992378056
vt 0.161132812 0.943597555
vt 0.0341796875 0.946646333
vt 0.0341796875 0.995426834
vt 0.0654296875 0.995426834
vt 0.0654296875 0.946646333
vt 0.0673828125 0.946646333
vt 0.0673828125 0.995426834
vt 0.0986328125 0.995426834
vt 0.0986328125 0.946646333
vt 0.192382812 0.946646333
vt 0.192382812 0.995426834
vt 0.223632812 0.995426834
vt 0.223632812 0.946646333
vt 0.256835938 0.946646333
vt 0.256835938 0.995426834
vt 0.288085938 0.995426834
vt 0.288085938 0.946646333
vt 0.448242188 0.946646333
vt 0.448242188 0.995426834
vt 0.479492188 0.995426834
vt 0.479492188 0.946646333
vt 0.920898438 0.946646333
vt 0.920898438 0.995426834
vt 0.952148438 0.995426834
vt 0.952148438 0.946646333
vt 0.954101562 0.946646333
vt 0.954101562 0.995426834
vt 0.985351562 0.995426834
vt 0.985351562 0.946646333
vt 0.760742188 0.94969511
vt 0.760742188 0.998475611
vt 0.791992188 0.998475611
vt 0.791992188 0.94969511
g bojiateli_bj-mesh_0
f 3/3/3 2/2/2 1/1/1
f 1/1/1 4/4/4 3/3/3
f 7/7/7 6/6/6 5/5/5
f 5/5/5 8/8/8 7/7/7
f 11/11/11 10/10/10 9/9/9
f 9/9/9 12/12/12 11/11/11
f 15/15/15 14/14/14 13/13/13
f 13/13/13 16/16/16 15/15/15
f 19/19/19 18/18/18 17/17/17
f 17/17/17 20/20/20 19/19/19
f 23/23/23 22/22/22 21/21/21
f 21/21/21 24/24/24 23/23/23
f 27/27/27 26/26/26 25/25/25
f 25/25/25 28/28/28 27/27/27
f 31/31/31 30/30/30 29/29/29
f 29/29/29 32/32/32 31/31/31
f 35/35/35 34/34/34 33/33/33
f 33/33/33 36/36/36 35/35/35
f 39/39/39 38/38/38 37/37/37
f 37/37/37 40/40/40 39/39/39
f 43/43/43 42/42/42 41/41/41
f 41/41/41 44/44/44 43/43/43
f 47/47/47 46/46/46 45/45/45
f 45/45/45 48/48/48 47/47/47
f 51/51/51 50/50/50 49/49/49
f 49/49/49 52/52/52 51/51/51
f 55/55/55 54/54/54 53/53/53
f 53/53/53 56/56/56 55/55/55
f 59/59/59 58/58/58 57/57/57
f 57/57/57 60/60/60 59/59/59
f 63/63/63 62/62/62 61/61/61
f 61/61/61 64/64/64 63/63/63
f 67/67/67 66/66/66 65/65/65
f 65/65/65 68/68/68 67/67/67
f 71/71/71 70/70/70 69/69/69
f 69/69/69 72/72/72 71/71/71
f 75/75/75 74/74/74 73/73/73
f 73/73/73 76/76/76 75/75/75
f 79/79/79 78/78/78 77/77/77
f 77/77/77 80/80/80 79/79/79
f 83/83/83 82/82/82 81/81/81
f 81/81/81 84/84/84 83/83/83
f 87/87/87 86/86/86 85/85/85
f 85/85/85 88/88/88 87/87/87
f 91/91/91 90/90/90 89/89/89
f 89/89/89 92/92/92 91/91/91
f 95/95/95 94/94/94 93/93/93
f 93/93/93 96/96/96 95/95/95
f 99/99/99 98/98/98 97/97/97
f 97/97/97 100/100/100 99/99/99
f 103/103/103 102/102/102 101/101/101
f 101/101/101 104/104/104 103/103/103
f 107/107/107 106/106/106 105/105/105
f 105/105/105 108/108/108 107/107/107
f 111/111/111 110/110/110 109/109/109
f 109/109/109 112/112/112 111/111/111
f 115/115/115 114/114/114 113/113/113
f 113/113/113 116/116/116 115/115/115
f 119/119/119 118/118/118 117/117/117
f 117/117/117 120/120/120 119/119/119
f 123/123/123 122/122/122 121/121/121
f 121/121/121 124/124/124 123/123/123
f 127/127/127 126/126/126 125/125/125
f 125/125/125 128/128/128 127/127/127
f 131/131/131 130/130/130 129/129/129
f 129/129/129 132/132/132 131/131/131
f 135/135/135 134/134/134 133/133/133
f 133/133/133 136/136/136 135/135/135
f 139/139/139 138/138/138 137/137/137
f 137/137/137 140/140/140 139/139/139
f 143/143/143 142/142/142 141/141/141
f 141/141/141 144/144/144 143/143/143
f 147/147/147 146/146/146 145/145/145
f 145/145/145 148/148/148 147/147/147
f 151/151/151 150/150/150 149/149/149
f 149/149/149 152/152/152 151/151/151
f 155/155/155 154/154/154 153/153/153
f 153/153/153 156/156/156 155/155/155
f 159/159/159 158/158/158 157/157/157
f 157/157/157 160/160/160 159/159/159
f 163/163/163 162/162/162 161/161/161
f 161/161/161 164/164/164 163/163/163
f 167/167/167 166/166/166 165/165/165
f 165/165/165 168/168/168 167/167/167
f 171/171/171 170/170/170 169/169/169
f 169/169/169 172/172/172 171/171/171
f 175/175/175 174/174/174 173/173/173
f 173/173/173 176/176/176 175/175/175
f 179/179/179 178/178/178 177/177/177
f 177/177/177 180/180/180 179/179/179
f 183/183/183 182/182/182 181/181/181
f 181/181/181 184/184/184 183/183/183
f 187/187/187 186/186/186 185/185/185
f 185/185/185 188/188/188 187/187/187
f 191/191/191 190/190/190 189/189/189
f 189/189/189 192/192/192 191/191/191
f 195/195/195 194/194/194 193/193/193
f 193/193/193 196/196/196 195/195/195
f 199/199/199 198/198/198 197/197/197
f 197/197/197 200/200/200 199/199/199
f 203/203/203 202/202/202 201/201/201
f 201/201/201 204/204/204 203/203/203
f 207/207/207 206/206/206 205/205/205
f 205/205/205 208/208/208 207/207/207
f 211/211/211 210/210/210 209/209/209
f 209/209/209 212/212/212 211/211/211
f 215/215/215 214/214/214 213/213/213
f 213/213/213 216/216/216 215/215/215
f 219/219/219 218/218/218 217/217/217
f 217/217/217 220/220/220 219/219/219
f 223/223/223 222/222/222 221/221/221
f 221/221/221 224/224/224 223/223/223
f 227/227/227 226/226/226 225/225/225
f 225/225/225 228/228/228 227/227/227
f 231/231/231 230/230/230 229/229/229
f 229/229/229 232/232/232 231/231/231
f 235/235/235 234/234/234 233/233/233
f 233/233/233 236/236/236 235/235/235
f 239/239/239 238/238/238 237/237/237
f 237/237/237 240/240/240 239/239/239
f 243/243/243 242/242/242 241/241/241
f 241/241/241 244/244/244 243/243/243
f 247/247/247 246/246/246 245/245/245
f 245/245/245 248/248/248 247/247/247
f 251/251/251 250/250/250 249/249/249
f 249/249/249 252/252/252 251/251/251
f 255/255/255 254/254/254 253/253/253
f 253/253/253 256/256/256 255/255/255
f 259/259/259 258/258/258 257/257/257
f 257/257/257 260/260/260 259/259/259
f 263/263/263 262/262/262 261/261/261
f 261/261/261 264/264/264 263/263/263
f 267/267/267 266/266/266 265/265/265
f 265/265/265 268/268/268 267/267/267
f 271/271/271 270/270/270 269/269/269
f 269/269/269 272/272/272 271/271/271
f 275/275/275 274/274/274 273/273/273
f 273/273/273 276/276/276 275/275/275
f 279/279/279 278/278/278 277/277/277
f 277/277/277 280/280/280 279/279/279
f 283/283/283 282/282/282 281/281/281
f 281/281/281 284/284/284 283/283/283
f 287/287/287 286/286/286 285/285/285
f 285/285/285 288/288/288 287/287/287
f 291/291/291 290/290/290 289/289/289
f 289/289/289 292/292/292 291/291/291
f 295/295/295 294/294/294 293/293/293
f 293/293/293 296/296/296 295/295/295
f 299/299/299 298/298/298 297/297/297
f 297/297/297 300/300/300 299/299/299
f 303/303/303 302/302/302 301/301/301
f 301/301/301 304/304/304 303/303/303
f 307/307/307 306/306/306 305/305/305
f 305/305/305 308/308/308 307/307/307
f 311/311/311 310/310/310 309/309/309
f 309/309/309 312/312/312 311/311/311
f 315/315/315 314/314/314 313/313/313
f 313/313/313 316/316/316 315/315/315
f 319/319/319 318/318/318 317/317/317
f 317/317/317 320/320/320 319/319/319
f 323/323/323 322/322/322 321/321/321
f 321/321/321 324/324/324 323/323/323
f 327/327/327 326/326/326 325/325/325
f 325/325/325 328/328/328 327/327/327
f 331/331/331 330/330/330 329/329/329
f 329/329/329 332/332/332 331/331/331
f 335/335/335 334/334/334 333/333/333
f 333/333/333 336/336/336 335/335/335
f 339/339/339 338/338/338 337/337/337
f 337/337/337 340/340/340 339/339/339
f 343/343/343 342/342/342 341/341/341
f 341/341/341 344/344/344 343/343/343
f 347/347/347 346/346/346 345/345/345
f 345/345/345 348/348/348 347/347/347
f 351/351/351 350/350/350 349/349/349
f 349/349/349 352/352/352 351/351/351
f 355/355/355 354/354/354 353/353/353
f 353/353/353 356/356/356 355/355/355
f 359/359/359 358/358/358 357/357/357
f 357/357/357 360/360/360 359/359/359
f 363/363/363 362/362/362 361/361/361
f 361/361/361 364/364/364 363/363/363
f 367/367/367 366/366/366 365/365/365
f 365/365/365 368/368/368 367/367/367
f 371/371/371 370/370/370 369/369/369
f 369/369/369 372/372/372 371/371/371
f 375/375/375 374/374/374 373/373/373
f 373/373/373 376/376/376 375/375/375
f 379/379/379 378/378/378 377/377/377
f 377/377/377 380/380/380 379/379/379
f 383/383/383 382/382/382 381/381/381
f 381/381/381 384/384/384 383/383/383
f 387/387/387 386/386/386 385/385/385
f 385/385/385 388/388/388 387/387/387
f 391/391/391 390/390/390 389/389/389
f 389/389/389 392/392/392 391/391/391
f 395/395/395 394/394/394 393/393/393
f 393/393/393 396/396/396 395/395/395
f 399/399/399 398/398/398 397/397/397
f 397/397/397 400/400/400 399/399/399
f 403/403/403 402/402/402 401/401/401
f 401/401/401 404/404/404 403/403/403
f 407/407/407 406/406/406 405/405/405
f 405/405/405 408/408/408 407/407/407
f 411/411/411 410/410/410 409/409/409
f 409/409/409 412/412/412 411/411/411
