g gangyishawa_2_shophx-mesh
v -704 895 0
v -704 1183 0
v -960 1183 0
v -960 895 0
v -640 1023 0
v -640 1119 0
v -704 1119 0
v -704 1023 0
v -960 927 0
v -960 1023 0
v -1024 1023 0
v -1024 927 0
v -960 1023 0
v -960 1119 0
v -1024 1119 0
v -1024 1023 0
v -640 959 0
v -640 1023 0
v -704 1023 0
v -704 959 0
v -832 863 0
v -832 895 0
v -928 895 0
v -928 863 0
v -736 863 0
v -736 895 0
v -832 895 0
v -832 863 0
v -1024 959 0
v -1024 1023 0
v -1056 1023 0
v -1056 959 0
v -1024 1023 0
v -1024 1087 0
v -1056 1087 0
v -1056 1023 0
v -672 927 0
v -672 959 0
v -704 959 0
v -704 927 0
v -960 895 0
v -960 927 0
v -992 927 0
v -992 895 0
v -672 1119 0
v -672 1151 0
v -704 1151 0
v -704 1119 0
v -960 1119 0
v -960 1151 0
v -992 1151 0
v -992 1119 0
vt 0.001953125 0.00344824791
vt 0.001953125 0.996551752
vt 0.501953125 0.996551752
vt 0.501953125 0.00344824791
vt 0.505859375 0.00344824791
vt 0.505859375 0.334482729
vt 0.630859375 0.334482729
vt 0.630859375 0.00344824791
vt 0.634765625 0.00344824791
vt 0.634765625 0.334482729
vt 0.759765625 0.334482729
vt 0.759765625 0.00344824791
vt 0.763671875 0.00344824791
vt 0.763671875 0.334482729
vt 0.888671875 0.334482729
vt 0.888671875 0.00344824791
vt 0.505859375 0.341379285
vt 0.505859375 0.562068939
vt 0.630859375 0.562068939
vt 0.630859375 0.341379285
vt 0.634765625 0.341379285
vt 0.634765625 0.451724112
vt 0.822265625 0.451724112
vt 0.822265625 0.341379285
vt 0.634765625 0.458620667
vt 0.634765625 0.568965554
vt 0.822265625 0.568965554
vt 0.822265625 0.458620667
vt 0.892578125 0.00344824791
vt 0.892578125 0.224137902
vt 0.955078125 0.224137902
vt 0.955078125 0.00344824791
vt 0.892578125 0.231034458
vt 0.892578125 0.451724112
vt 0.955078125 0.451724112
vt 0.955078125 0.231034458
vt 0.826171875 0.341379285
vt 0.826171875 0.451724112
vt 0.888671875 0.451724112
vt 0.888671875 0.341379285
vt 0.826171875 0.458620667
vt 0.826171875 0.568965554
vt 0.888671875 0.568965554
vt 0.888671875 0.458620667
vt 0.892578125 0.458620667
vt 0.892578125 0.568965554
vt 0.955078125 0.568965554
vt 0.955078125 0.458620667
vt 0.505859375 0.568965554
vt 0.505859375 0.679310322
vt 0.568359375 0.679310322
vt 0.568359375 0.568965554
g gangyishawa_2_shophx-mesh_0
f 3/3/3 2/2/2 1/1/1
f 1/1/1 4/4/4 3/3/3
f 7/7/7 6/6/6 5/5/5
f 5/5/5 8/8/8 7/7/7
f 11/11/11 10/10/10 9/9/9
f 9/9/9 12/12/12 11/11/11
f 15/15/15 14/14/14 13/13/13
f 13/13/13 16/16/16 15/15/15
f 19/19/19 18/18/18 17/17/17
f 17/17/17 20/20/20 19/19/19
f 23/23/23 22/22/22 21/21/21
f 21/21/21 24/24/24 23/23/23
f 27/27/27 26/26/26 25/25/25
f 25/25/25 28/28/28 27/27/27
f 31/31/31 30/30/30 29/29/29
f 29/29/29 32/32/32 31/31/31
f 35/35/35 34/34/34 33/33/33
f 33/33/33 36/36/36 35/35/35
f 39/39/39 38/38/38 37/37/37
f 37/37/37 40/40/40 39/39/39
f 43/43/43 42/42/42 41/41/41
f 41/41/41 44/44/44 43/43/43
f 47/47/47 46/46/46 45/45/45
f 45/45/45 48/48/48 47/47/47
f 51/51/51 50/50/50 49/49/49
f 49/49/49 52/52/52 51/51/51
