g na_DOA_bj-mesh
v -1376 965 0
v -1376 1189 0
v -1536 1189 0
v -1536 965 0
v -1344 869 0
v -1344 965 0
v -1504 965 0
v -1504 869 0
v -800 997 0
v -800 1061 0
v -1024 1061 0
v -1024 997 0
v -1024 997 0
v -1024 1061 0
v -1216 1061 0
v -1216 997 0
v -992 517 0
v -992 613 0
v -1088 613 0
v -1088 517 0
v -800 1061 0
v -800 1125 0
v -928 1125 0
v -928 1061 0
v -1888 517 0
v -1888 645 0
v -1952 645 0
v -1952 517 0
v -1216 1029 0
v -1216 1093 0
v -1344 1093 0
v -1344 1029 0
v -1472 1189 0
v -1472 1285 0
v -1536 1285 0
v -1536 1189 0
v -1888 421 0
v -1888 517 0
v -1952 517 0
v -1952 421 0
v -928 645 0
v -928 741 0
v -992 741 0
v -992 645 0
v -1088 485 0
v -1088 549 0
v -1152 549 0
v -1152 485 0
v -1280 837 0
v -1280 901 0
v -1344 901 0
v -1344 837 0
v -928 965 0
v -928 997 0
v -1056 997 0
v -1056 965 0
v -928 581 0
v -928 645 0
v -992 645 0
v -992 581 0
v -1056 965 0
v -1056 997 0
v -1184 997 0
v -1184 965 0
v -1856 613 0
v -1856 709 0
v -1888 709 0
v -1888 613 0
v -1344 837 0
v -1344 869 0
v -1408 869 0
v -1408 837 0
v -1152 1061 0
v -1152 1093 0
v -1216 1093 0
v -1216 1061 0
v -960 1061 0
v -960 1125 0
v -992 1125 0
v -992 1061 0
v -1856 453 0
v -1856 517 0
v -1888 517 0
v -1888 453 0
v -1024 485 0
v -1024 517 0
v -1088 517 0
v -1088 485 0
v -1824 645 0
v -1824 709 0
v -1856 709 0
v -1856 645 0
v -1280 1093 0
v -1280 1125 0
v -1344 1125 0
v -1344 1093 0
v -1856 549 0
v -1856 613 0
v -1888 613 0
v -1888 549 0
v -960 933 0
v -960 965 0
v -1024 965 0
v -1024 933 0
v -1440 1189 0
v -1440 1253 0
v -1472 1253 0
v -1472 1189 0
v -1888 645 0
v -1888 677 0
v -1920 677 0
v -1920 645 0
v -1312 901 0
v -1312 933 0
v -1344 933 0
v -1344 901 0
v -896 645 0
v -896 677 0
v -928 677 0
v -928 645 0
v -992 613 0
v -992 645 0
v -1024 645 0
v -1024 613 0
v -1088 549 0
v -1088 581 0
v -1120 581 0
v -1120 549 0
v -1888 389 0
v -1888 421 0
v -1920 421 0
v -1920 389 0
v -960 549 0
v -960 581 0
v -992 581 0
v -992 549 0
v -1120 933 0
v -1120 965 0
v -1152 965 0
v -1152 933 0
v -1408 1189 0
v -1408 1221 0
v -1440 1221 0
v -1440 1189 0
v -1344 1093 0
v -1344 1125 0
v -1376 1125 0
v -1376 1093 0
v -1024 933 0
v -1024 965 0
v -1056 965 0
v -1056 933 0
v -1280 1125 0
v -1280 1157 0
v -1312 1157 0
v -1312 1125 0
v -1344 965 0
v -1344 997 0
v -1376 997 0
v -1376 965 0
v -1344 1061 0
v -1344 1093 0
v -1376 1093 0
v -1376 1061 0
v -928 1061 0
v -928 1093 0
v -960 1093 0
v -960 1061 0
vt 0.001953125 0.00201612711
vt 0.001953125 0.453629017
vt 0.314453125 0.453629017
vt 0.314453125 0.00201612711
vt 0.318359375 0.00201612711
vt 0.318359375 0.195564508
vt 0.630859375 0.195564508
vt 0.630859375 0.00201612711
vt 0.318359375 0.199596763
vt 0.318359375 0.328629017
vt 0.755859375 0.328629017
vt 0.755859375 0.199596763
vt 0.318359375 0.332661271
vt 0.318359375 0.461693525
vt 0.693359375 0.461693525
vt 0.693359375 0.332661271
vt 0.759765625 0.00201612711
vt 0.759765625 0.195564508
vt 0.947265625 0.195564508
vt 0.947265625 0.00201612711
vt 0.697265625 0.332661271
vt 0.697265625 0.461693525
vt 0.947265625 0.461693525
vt 0.947265625 0.332661271
vt 0.001953125 0.457661271
vt 0.001953125 0.71572578
vt 0.126953125 0.71572578
vt 0.126953125 0.457661271
vt 0.318359375 0.46572578
vt 0.318359375 0.594758034
vt 0.568359375 0.594758034
vt 0.568359375 0.46572578
vt 0.130859375 0.457661271
vt 0.130859375 0.651209712
vt 0.255859375 0.651209712
vt 0.255859375 0.457661271
vt 0.572265625 0.46572578
vt 0.572265625 0.65927422
vt 0.697265625 0.65927422
vt 0.697265625 0.46572578
vt 0.701171875 0.46572578
vt 0.701171875 0.65927422
vt 0.826171875 0.65927422
vt 0.826171875 0.46572578
vt 0.830078125 0.46572578
vt 0.830078125 0.594758034
vt 0.955078125 0.594758034
vt 0.955078125 0.46572578
vt 0.318359375 0.598790288
vt 0.318359375 0.727822542
vt 0.443359375 0.727822542
vt 0.443359375 0.598790288
vt 0.572265625 0.663306475
vt 0.572265625 0.727822542
vt 0.822265625 0.727822542
vt 0.822265625 0.663306475
vt 0.830078125 0.598790288
vt 0.830078125 0.727822542
vt 0.955078125 0.727822542
vt 0.955078125 0.598790288
vt 0.001953125 0.719758034
vt 0.001953125 0.78427422
vt 0.251953125 0.78427422
vt 0.251953125 0.719758034
vt 0.447265625 0.598790288
vt 0.447265625 0.792338729
vt 0.509765625 0.792338729
vt 0.509765625 0.598790288
vt 0.318359375 0.731854796
vt 0.318359375 0.796370983
vt 0.443359375 0.796370983
vt 0.443359375 0.731854796
vt 0.572265625 0.731854796
vt 0.572265625 0.796370983
vt 0.697265625 0.796370983
vt 0.697265625 0.731854796
vt 0.701171875 0.731854796
vt 0.701171875 0.86088711
vt 0.763671875 0.86088711
vt 0.763671875 0.731854796
vt 0.767578125 0.731854796
vt 0.767578125 0.86088711
vt 0.830078125 0.86088711
vt 0.830078125 0.731854796
vt 0.833984375 0.731854796
vt 0.833984375 0.796370983
vt 0.958984375 0.796370983
vt 0.958984375 0.731854796
vt 0.001953125 0.788306475
vt 0.001953125 0.917338729
vt 0.064453125 0.917338729
vt 0.064453125 0.788306475
vt 0.068359375 0.788306475
vt 0.068359375 0.852822602
vt 0.193359375 0.852822602
vt 0.193359375 0.788306475
vt 0.197265625 0.788306475
vt 0.197265625 0.917338729
vt 0.259765625 0.917338729
vt 0.259765625 0.788306475
vt 0.318359375 0.800403237
vt 0.318359375 0.864919364
vt 0.443359375 0.864919364
vt 0.443359375 0.800403237
vt 0.447265625 0.796370983
vt 0.447265625 0.925403237
vt 0.509765625 0.925403237
vt 0.509765625 0.796370983
vt 0.572265625 0.800403237
vt 0.572265625 0.864919364
vt 0.634765625 0.864919364
vt 0.634765625 0.800403237
vt 0.833984375 0.800403237
vt 0.833984375 0.864919364
vt 0.896484375 0.864919364
vt 0.896484375 0.800403237
vt 0.900390625 0.800403237
vt 0.900390625 0.864919364
vt 0.962890625 0.864919364
vt 0.962890625 0.800403237
vt 0.068359375 0.856854856
vt 0.068359375 0.921370983
vt 0.130859375 0.921370983
vt 0.130859375 0.856854856
vt 0.701171875 0.864919364
vt 0.701171875 0.929435492
vt 0.763671875 0.929435492
vt 0.763671875 0.864919364
vt 0.767578125 0.864919364
vt 0.767578125 0.929435492
vt 0.830078125 0.929435492
vt 0.830078125 0.864919364
vt 0.318359375 0.868951619
vt 0.318359375 0.933467746
vt 0.380859375 0.933467746
vt 0.380859375 0.868951619
vt 0.572265625 0.868951619
vt 0.572265625 0.933467746
vt 0.634765625 0.933467746
vt 0.634765625 0.868951619
vt 0.833984375 0.868951619
vt 0.833984375 0.933467746
vt 0.896484375 0.933467746
vt 0.896484375 0.868951619
vt 0.900390625 0.868951619
vt 0.900390625 0.933467746
vt 0.962890625 0.933467746
vt 0.962890625 0.868951619
vt 0.001953125 0.921370983
vt 0.001953125 0.98588711
vt 0.064453125 0.98588711
vt 0.064453125 0.921370983
vt 0.197265625 0.921370983
vt 0.197265625 0.98588711
vt 0.259765625 0.98588711
vt 0.259765625 0.921370983
vt 0.068359375 0.925403237
vt 0.068359375 0.989919364
vt 0.130859375 0.989919364
vt 0.130859375 0.925403237
vt 0.447265625 0.929435492
vt 0.447265625 0.993951619
vt 0.509765625 0.993951619
vt 0.509765625 0.929435492
vt 0.701171875 0.933467746
vt 0.701171875 0.997983873
vt 0.763671875 0.997983873
vt 0.763671875 0.933467746
g na_DOA_bj-mesh_0
f 3/3/3 2/2/2 1/1/1
f 1/1/1 4/4/4 3/3/3
f 7/7/7 6/6/6 5/5/5
f 5/5/5 8/8/8 7/7/7
f 11/11/11 10/10/10 9/9/9
f 9/9/9 12/12/12 11/11/11
f 15/15/15 14/14/14 13/13/13
f 13/13/13 16/16/16 15/15/15
f 19/19/19 18/18/18 17/17/17
f 17/17/17 20/20/20 19/19/19
f 23/23/23 22/22/22 21/21/21
f 21/21/21 24/24/24 23/23/23
f 27/27/27 26/26/26 25/25/25
f 25/25/25 28/28/28 27/27/27
f 31/31/31 30/30/30 29/29/29
f 29/29/29 32/32/32 31/31/31
f 35/35/35 34/34/34 33/33/33
f 33/33/33 36/36/36 35/35/35
f 39/39/39 38/38/38 37/37/37
f 37/37/37 40/40/40 39/39/39
f 43/43/43 42/42/42 41/41/41
f 41/41/41 44/44/44 43/43/43
f 47/47/47 46/46/46 45/45/45
f 45/45/45 48/48/48 47/47/47
f 51/51/51 50/50/50 49/49/49
f 49/49/49 52/52/52 51/51/51
f 55/55/55 54/54/54 53/53/53
f 53/53/53 56/56/56 55/55/55
f 59/59/59 58/58/58 57/57/57
f 57/57/57 60/60/60 59/59/59
f 63/63/63 62/62/62 61/61/61
f 61/61/61 64/64/64 63/63/63
f 67/67/67 66/66/66 65/65/65
f 65/65/65 68/68/68 67/67/67
f 71/71/71 70/70/70 69/69/69
f 69/69/69 72/72/72 71/71/71
f 75/75/75 74/74/74 73/73/73
f 73/73/73 76/76/76 75/75/75
f 79/79/79 78/78/78 77/77/77
f 77/77/77 80/80/80 79/79/79
f 83/83/83 82/82/82 81/81/81
f 81/81/81 84/84/84 83/83/83
f 87/87/87 86/86/86 85/85/85
f 85/85/85 88/88/88 87/87/87
f 91/91/91 90/90/90 89/89/89
f 89/89/89 92/92/92 91/91/91
f 95/95/95 94/94/94 93/93/93
f 93/93/93 96/96/96 95/95/95
f 99/99/99 98/98/98 97/97/97
f 97/97/97 100/100/100 99/99/99
f 103/103/103 102/102/102 101/101/101
f 101/101/101 104/104/104 103/103/103
f 107/107/107 106/106/106 105/105/105
f 105/105/105 108/108/108 107/107/107
f 111/111/111 110/110/110 109/109/109
f 109/109/109 112/112/112 111/111/111
f 115/115/115 114/114/114 113/113/113
f 113/113/113 116/116/116 115/115/115
f 119/119/119 118/118/118 117/117/117
f 117/117/117 120/120/120 119/119/119
f 123/123/123 122/122/122 121/121/121
f 121/121/121 124/124/124 123/123/123
f 127/127/127 126/126/126 125/125/125
f 125/125/125 128/128/128 127/127/127
f 131/131/131 130/130/130 129/129/129
f 129/129/129 132/132/132 131/131/131
f 135/135/135 134/134/134 133/133/133
f 133/133/133 136/136/136 135/135/135
f 139/139/139 138/138/138 137/137/137
f 137/137/137 140/140/140 139/139/139
f 143/143/143 142/142/142 141/141/141
f 141/141/141 144/144/144 143/143/143
f 147/147/147 146/146/146 145/145/145
f 145/145/145 148/148/148 147/147/147
f 151/151/151 150/150/150 149/149/149
f 149/149/149 152/152/152 151/151/151
f 155/155/155 154/154/154 153/153/153
f 153/153/153 156/156/156 155/155/155
f 159/159/159 158/158/158 157/157/157
f 157/157/157 160/160/160 159/159/159
f 163/163/163 162/162/162 161/161/161
f 161/161/161 164/164/164 163/163/163
f 167/167/167 166/166/166 165/165/165
f 165/165/165 168/168/168 167/167/167
