g wuzang_younv_bj2-mesh
v -352 739 0
v -352 835 0
v -576 835 0
v -576 739 0
v -1472 739 0
v -1472 835 0
v -1632 835 0
v -1632 739 0
v -1376 451 0
v -1376 547 0
v -1440 547 0
v -1440 451 0
v -1120 579 0
v -1120 611 0
v -1248 611 0
v -1248 579 0
v -1120 611 0
v -1120 675 0
v -1184 675 0
v -1184 611 0
v -1248 579 0
v -1248 611 0
v -1344 611 0
v -1344 579 0
v -384 707 0
v -384 739 0
v -480 739 0
v -480 707 0
v -480 675 0
v -480 707 0
v -544 707 0
v -544 675 0
v -1440 771 0
v -1440 835 0
v -1472 835 0
v -1472 771 0
v -352 835 0
v -352 867 0
v -416 867 0
v -416 835 0
v -992 579 0
v -992 643 0
v -1024 643 0
v -1024 579 0
v -1440 675 0
v -1440 707 0
v -1504 707 0
v -1504 675 0
v -1632 739 0
v -1632 803 0
v -1664 803 0
v -1664 739 0
v -1536 707 0
v -1536 739 0
v -1600 739 0
v -1600 707 0
v -1472 707 0
v -1472 739 0
v -1536 739 0
v -1536 707 0
v -480 707 0
v -480 739 0
v -544 739 0
v -544 707 0
v -1344 547 0
v -1344 579 0
v -1408 579 0
v -1408 547 0
v -1568 835 0
v -1568 867 0
v -1632 867 0
v -1632 835 0
v -1280 547 0
v -1280 579 0
v -1344 579 0
v -1344 547 0
v -1184 611 0
v -1184 643 0
v -1216 643 0
v -1216 611 0
v -1088 611 0
v -1088 643 0
v -1120 643 0
v -1120 611 0
v -1120 547 0
v -1120 579 0
v -1152 579 0
v -1152 547 0
v -1344 515 0
v -1344 547 0
v -1376 547 0
v -1376 515 0
v -1664 771 0
v -1664 803 0
v -1696 803 0
v -1696 771 0
v -544 675 0
v -544 707 0
v -576 707 0
v -576 675 0
v -1632 835 0
v -1632 867 0
v -1664 867 0
v -1664 835 0
v -1568 899 0
v -1568 931 0
v -1600 931 0
v -1600 899 0
v -384 899 0
v -384 931 0
v -416 931 0
v -416 899 0
vt 0.001953125 0.00431036949
vt 0.001953125 0.418103456
vt 0.439453125 0.418103456
vt 0.439453125 0.00431036949
vt 0.443359375 0.00431036949
vt 0.443359375 0.418103456
vt 0.755859375 0.418103456
vt 0.755859375 0.00431036949
vt 0.759765625 0.00431036949
vt 0.759765625 0.418103456
vt 0.884765625 0.418103456
vt 0.884765625 0.00431036949
vt 0.001953125 0.426724136
vt 0.001953125 0.564655185
vt 0.251953125 0.564655185
vt 0.251953125 0.426724136
vt 0.255859375 0.426724136
vt 0.255859375 0.702586174
vt 0.380859375 0.702586174
vt 0.380859375 0.426724136
vt 0.384765625 0.426724136
vt 0.384765625 0.564655185
vt 0.572265625 0.564655185
vt 0.572265625 0.426724136
vt 0.576171875 0.426724136
vt 0.576171875 0.564655185
vt 0.763671875 0.564655185
vt 0.763671875 0.426724136
vt 0.767578125 0.426724136
vt 0.767578125 0.564655185
vt 0.892578125 0.564655185
vt 0.892578125 0.426724136
vt 0.896484375 0.00431036949
vt 0.896484375 0.280172408
vt 0.958984375 0.280172408
vt 0.958984375 0.00431036949
vt 0.001953125 0.573275864
vt 0.001953125 0.711206913
vt 0.126953125 0.711206913
vt 0.126953125 0.573275864
vt 0.896484375 0.288793087
vt 0.896484375 0.564655185
vt 0.958984375 0.564655185
vt 0.958984375 0.288793087
vt 0.384765625 0.573275864
vt 0.384765625 0.711206913
vt 0.509765625 0.711206913
vt 0.509765625 0.573275864
vt 0.130859375 0.573275864
vt 0.130859375 0.849137902
vt 0.193359375 0.849137902
vt 0.193359375 0.573275864
vt 0.513671875 0.573275864
vt 0.513671875 0.711206913
vt 0.638671875 0.711206913
vt 0.638671875 0.573275864
vt 0.642578125 0.573275864
vt 0.642578125 0.711206913
vt 0.767578125 0.711206913
vt 0.767578125 0.573275864
vt 0.771484375 0.573275864
vt 0.771484375 0.711206913
vt 0.896484375 0.711206913
vt 0.896484375 0.573275864
vt 0.255859375 0.711206913
vt 0.255859375 0.849137902
vt 0.380859375 0.849137902
vt 0.380859375 0.711206913
vt 0.001953125 0.719827592
vt 0.001953125 0.857758641
vt 0.126953125 0.857758641
vt 0.126953125 0.719827592
vt 0.384765625 0.719827592
vt 0.384765625 0.857758641
vt 0.509765625 0.857758641
vt 0.509765625 0.719827592
vt 0.900390625 0.573275864
vt 0.900390625 0.711206913
vt 0.962890625 0.711206913
vt 0.962890625 0.573275864
vt 0.513671875 0.719827592
vt 0.513671875 0.857758641
vt 0.576171875 0.857758641
vt 0.576171875 0.719827592
vt 0.580078125 0.719827592
vt 0.580078125 0.857758641
vt 0.642578125 0.857758641
vt 0.642578125 0.719827592
vt 0.646484375 0.719827592
vt 0.646484375 0.857758641
vt 0.708984375 0.857758641
vt 0.708984375 0.719827592
vt 0.712890625 0.719827592
vt 0.712890625 0.857758641
vt 0.775390625 0.857758641
vt 0.775390625 0.719827592
vt 0.779296875 0.719827592
vt 0.779296875 0.857758641
vt 0.841796875 0.857758641
vt 0.841796875 0.719827592
vt 0.845703125 0.719827592
vt 0.845703125 0.857758641
vt 0.908203125 0.857758641
vt 0.908203125 0.719827592
vt 0.912109375 0.719827592
vt 0.912109375 0.857758641
vt 0.974609375 0.857758641
vt 0.974609375 0.719827592
vt 0.130859375 0.857758641
vt 0.130859375 0.995689631
vt 0.193359375 0.995689631
vt 0.193359375 0.857758641
g wuzang_younv_bj2-mesh_0
f 3/3/3 2/2/2 1/1/1
f 1/1/1 4/4/4 3/3/3
f 7/7/7 6/6/6 5/5/5
f 5/5/5 8/8/8 7/7/7
f 11/11/11 10/10/10 9/9/9
f 9/9/9 12/12/12 11/11/11
f 15/15/15 14/14/14 13/13/13
f 13/13/13 16/16/16 15/15/15
f 19/19/19 18/18/18 17/17/17
f 17/17/17 20/20/20 19/19/19
f 23/23/23 22/22/22 21/21/21
f 21/21/21 24/24/24 23/23/23
f 27/27/27 26/26/26 25/25/25
f 25/25/25 28/28/28 27/27/27
f 31/31/31 30/30/30 29/29/29
f 29/29/29 32/32/32 31/31/31
f 35/35/35 34/34/34 33/33/33
f 33/33/33 36/36/36 35/35/35
f 39/39/39 38/38/38 37/37/37
f 37/37/37 40/40/40 39/39/39
f 43/43/43 42/42/42 41/41/41
f 41/41/41 44/44/44 43/43/43
f 47/47/47 46/46/46 45/45/45
f 45/45/45 48/48/48 47/47/47
f 51/51/51 50/50/50 49/49/49
f 49/49/49 52/52/52 51/51/51
f 55/55/55 54/54/54 53/53/53
f 53/53/53 56/56/56 55/55/55
f 59/59/59 58/58/58 57/57/57
f 57/57/57 60/60/60 59/59/59
f 63/63/63 62/62/62 61/61/61
f 61/61/61 64/64/64 63/63/63
f 67/67/67 66/66/66 65/65/65
f 65/65/65 68/68/68 67/67/67
f 71/71/71 70/70/70 69/69/69
f 69/69/69 72/72/72 71/71/71
f 75/75/75 74/74/74 73/73/73
f 73/73/73 76/76/76 75/75/75
f 79/79/79 78/78/78 77/77/77
f 77/77/77 80/80/80 79/79/79
f 83/83/83 82/82/82 81/81/81
f 81/81/81 84/84/84 83/83/83
f 87/87/87 86/86/86 85/85/85
f 85/85/85 88/88/88 87/87/87
f 91/91/91 90/90/90 89/89/89
f 89/89/89 92/92/92 91/91/91
f 95/95/95 94/94/94 93/93/93
f 93/93/93 96/96/96 95/95/95
f 99/99/99 98/98/98 97/97/97
f 97/97/97 100/100/100 99/99/99
f 103/103/103 102/102/102 101/101/101
f 101/101/101 104/104/104 103/103/103
f 107/107/107 106/106/106 105/105/105
f 105/105/105 108/108/108 107/107/107
f 111/111/111 110/110/110 109/109/109
f 109/109/109 112/112/112 111/111/111
