g bailu_2-mesh
v -160 447 0
v -160 831 0
v -448 831 0
v -448 447 0
v -448 447 0
v -448 831 0
v -704 831 0
v -704 447 0
v -352 127 0
v -352 319 0
v -768 319 0
v -768 127 0
v -704 511 0
v -704 735 0
v -832 735 0
v -832 511 0
v -320 831 0
v -320 959 0
v -544 959 0
v -544 831 0
v -96 831 0
v -96 959 0
v -320 959 0
v -320 831 0
v -224 255 0
v -224 447 0
v -352 447 0
v -352 255 0
v -704 319 0
v -704 511 0
v -832 511 0
v -832 319 0
v -480 351 0
v -480 447 0
v -704 447 0
v -704 351 0
v -672 0 0
v -672 127 0
v -800 127 0
v -800 0 0
v -96 575 0
v -96 703 0
v -160 703 0
v -160 575 0
v -832 639 0
v -832 767 0
v -896 767 0
v -896 639 0
v -256 191 0
v -256 255 0
v -352 255 0
v -352 191 0
v -128 383 0
v -128 447 0
v -224 447 0
v -224 383 0
v -0 767 0
v -0 831 0
v -96 831 0
v -96 767 0
v -96 479 0
v -96 575 0
v -160 575 0
v -160 479 0
v -832 543 0
v -832 639 0
v -896 639 0
v -896 543 0
v -416 383 0
v -416 447 0
v -480 447 0
v -480 383 0
v -544 831 0
v -544 895 0
v -608 895 0
v -608 831 0
v -320 959 0
v -320 991 0
v -448 991 0
v -448 959 0
v -96 767 0
v -96 831 0
v -160 831 0
v -160 767 0
v -448 959 0
v -448 991 0
v -544 991 0
v -544 959 0
v -96 959 0
v -96 991 0
v -192 991 0
v -192 959 0
v -64 895 0
v -64 959 0
v -96 959 0
v -96 895 0
v -32 831 0
v -32 863 0
v -96 863 0
v -96 831 0
v -160 991 0
v -160 1023 0
v -224 1023 0
v -224 991 0
v -640 63 0
v -640 127 0
v -672 127 0
v -672 63 0
v -800 31 0
v -800 95 0
v -832 95 0
v -832 31 0
v -768 127 0
v -768 191 0
v -800 191 0
v -800 127 0
v -480 95 0
v -480 127 0
v -544 127 0
v -544 95 0
v -768 255 0
v -768 319 0
v -800 319 0
v -800 255 0
v -96 735 0
v -96 767 0
v -160 767 0
v -160 735 0
v -704 735 0
v -704 767 0
v -768 767 0
v -768 735 0
v -352 319 0
v -352 351 0
v -416 351 0
v -416 319 0
v -64 511 0
v -64 575 0
v -96 575 0
v -96 511 0
v -832 479 0
v -832 543 0
v -864 543 0
v -864 479 0
v -320 991 0
v -320 1023 0
v -384 1023 0
v -384 991 0
v -608 319 0
v -608 351 0
v -672 351 0
v -672 319 0
v -192 959 0
v -192 991 0
v -256 991 0
v -256 959 0
v -544 895 0
v -544 927 0
v -576 927 0
v -576 895 0
v -320 159 0
v -320 191 0
v -352 191 0
v -352 159 0
v -800 735 0
v -800 767 0
v -832 767 0
v -832 735 0
v -192 351 0
v -192 383 0
v -224 383 0
v -224 351 0
v -352 351 0
v -352 383 0
v -384 383 0
v -384 351 0
v -128 447 0
v -128 479 0
v -160 479 0
v -160 447 0
v -384 415 0
v -384 447 0
v -416 447 0
v -416 415 0
v -480 991 0
v -480 1023 0
v -512 1023 0
v -512 991 0
v -416 319 0
v -416 351 0
v -448 351 0
v -448 319 0
v -640 31 0
v -640 63 0
v -672 63 0
v -672 31 0
v -672 319 0
v -672 351 0
v -704 351 0
v -704 319 0
v -800 0 0
v -800 31 0
v -832 31 0
v -832 0 0
v -384 991 0
v -384 1023 0
v -416 1023 0
v -416 991 0
v -64 479 0
v -64 511 0
v -96 511 0
v -96 479 0
v -832 447 0
v -832 479 0
v -864 479 0
v -864 447 0
vt 0.0009765625 0.00154322386
vt 0.0009765625 0.594135761
vt 0.282226562 0.594135761
vt 0.282226562 0.00154322386
vt 0.284179688 0.00154322386
vt 0.284179688 0.594135761
vt 0.534179688 0.594135761
vt 0.534179688 0.00154322386
vt 0.536132812 0.00154322386
vt 0.536132812 0.297839522
vt 0.942382812 0.297839522
vt 0.942382812 0.00154322386
vt 0.536132812 0.30092591
vt 0.536132812 0.646604896
vt 0.661132812 0.646604896
vt 0.661132812 0.30092591
vt 0.663085938 0.30092591
vt 0.663085938 0.498456776
vt 0.881835938 0.498456776
vt 0.881835938 0.30092591
vt 0.663085938 0.501543224
vt 0.663085938 0.69907403
vt 0.881835938 0.69907403
vt 0.881835938 0.501543224
vt 0.0009765625 0.597222209
vt 0.0009765625 0.893518507
vt 0.125976562 0.893518507
vt 0.125976562 0.597222209
vt 0.127929688 0.597222209
vt 0.127929688 0.893518507
vt 0.252929688 0.893518507
vt 0.252929688 0.597222209
vt 0.254882812 0.597222209
vt 0.254882812 0.745370388
vt 0.473632812 0.745370388
vt 0.473632812 0.597222209
vt 0.536132812 0.649691343
vt 0.536132812 0.847222209
vt 0.661132812 0.847222209
vt 0.661132812 0.649691343
vt 0.883789062 0.30092591
vt 0.883789062 0.498456776
vt 0.946289062 0.498456776
vt 0.946289062 0.30092591
vt 0.883789062 0.501543224
vt 0.883789062 0.69907403
vt 0.946289062 0.69907403
vt 0.946289062 0.501543224
vt 0.663085938 0.702160478
vt 0.663085938 0.80092591
vt 0.756835938 0.80092591
vt 0.756835938 0.702160478
vt 0.758789062 0.702160478
vt 0.758789062 0.80092591
vt 0.852539062 0.80092591
vt 0.852539062 0.702160478
vt 0.854492188 0.702160478
vt 0.854492188 0.80092591
vt 0.948242188 0.80092591
vt 0.948242188 0.702160478
vt 0.254882812 0.748456776
vt 0.254882812 0.896604955
vt 0.317382812 0.896604955
vt 0.317382812 0.748456776
vt 0.319335938 0.748456776
vt 0.319335938 0.896604955
vt 0.381835938 0.896604955
vt 0.381835938 0.748456776
vt 0.383789062 0.748456776
vt 0.383789062 0.847222209
vt 0.446289062 0.847222209
vt 0.446289062 0.748456776
vt 0.448242188 0.748456776
vt 0.448242188 0.847222209
vt 0.510742188 0.847222209
vt 0.510742188 0.748456776
vt 0.663085938 0.804012358
vt 0.663085938 0.853395045
vt 0.788085938 0.853395045
vt 0.788085938 0.804012358
vt 0.790039062 0.804012358
vt 0.790039062 0.902777791
vt 0.852539062 0.902777791
vt 0.852539062 0.804012358
vt 0.854492188 0.804012358
vt 0.854492188 0.853395045
vt 0.948242188 0.853395045
vt 0.948242188 0.804012358
vt 0.383789062 0.850308657
vt 0.383789062 0.899691343
vt 0.477539062 0.899691343
vt 0.477539062 0.850308657
vt 0.950195312 0.00154322386
vt 0.950195312 0.100308657
vt 0.981445312 0.100308657
vt 0.981445312 0.00154322386
vt 0.479492188 0.850308657
vt 0.479492188 0.899691343
vt 0.541992188 0.899691343
vt 0.541992188 0.850308657
vt 0.543945312 0.850308657
vt 0.543945312 0.899691343
vt 0.606445312 0.899691343
vt 0.606445312 0.850308657
vt 0.950195312 0.103395045
vt 0.950195312 0.202160478
vt 0.981445312 0.202160478
vt 0.981445312 0.103395045
vt 0.950195312 0.205246925
vt 0.950195312 0.304012358
vt 0.981445312 0.304012358
vt 0.981445312 0.205246925
vt 0.950195312 0.307098746
vt 0.950195312 0.405864179
vt 0.981445312 0.405864179
vt 0.981445312 0.307098746
vt 0.663085938 0.856481493
vt 0.663085938 0.905864179
vt 0.725585938 0.905864179
vt 0.725585938 0.856481493
vt 0.950195312 0.408950627
vt 0.950195312 0.50771606
vt 0.981445312 0.50771606
vt 0.981445312 0.408950627
vt 0.854492188 0.856481493
vt 0.854492188 0.905864179
vt 0.916992188 0.905864179
vt 0.916992188 0.856481493
vt 0.918945312 0.856481493
vt 0.918945312 0.905864179
vt 0.981445312 0.905864179
vt 0.981445312 0.856481493
vt 0.0009765625 0.896604955
vt 0.0009765625 0.945987642
vt 0.0634765625 0.945987642
vt 0.0634765625 0.896604955
vt 0.608398438 0.850308657
vt 0.608398438 0.94907409
vt 0.639648438 0.94907409
vt 0.639648438 0.850308657
vt 0.727539062 0.856481493
vt 0.727539062 0.955246925
vt 0.758789062 0.955246925
vt 0.758789062 0.856481493
vt 0.0654296875 0.896604955
vt 0.0654296875 0.945987642
vt 0.127929688 0.945987642
vt 0.127929688 0.896604955
vt 0.129882812 0.896604955
vt 0.129882812 0.945987642
vt 0.192382812 0.945987642
vt 0.192382812 0.896604955
vt 0.254882812 0.899691343
vt 0.254882812 0.94907409
vt 0.317382812 0.94907409
vt 0.317382812 0.899691343
vt 0.194335938 0.896604955
vt 0.194335938 0.945987642
vt 0.225585938 0.945987642
vt 0.225585938 0.896604955
vt 0.319335938 0.899691343
vt 0.319335938 0.94907409
vt 0.350585938 0.94907409
vt 0.350585938 0.899691343
vt 0.383789062 0.902777791
vt 0.383789062 0.952160478
vt 0.415039062 0.952160478
vt 0.415039062 0.902777791
vt 0.416992188 0.902777791
vt 0.416992188 0.952160478
vt 0.448242188 0.952160478
vt 0.448242188 0.902777791
vt 0.450195312 0.902777791
vt 0.450195312 0.952160478
vt 0.481445312 0.952160478
vt 0.481445312 0.902777791
vt 0.483398438 0.902777791
vt 0.483398438 0.952160478
vt 0.514648438 0.952160478
vt 0.514648438 0.902777791
vt 0.516601562 0.902777791
vt 0.516601562 0.952160478
vt 0.547851562 0.952160478
vt 0.547851562 0.902777791
vt 0.549804688 0.902777791
vt 0.549804688 0.952160478
vt 0.581054688 0.952160478
vt 0.581054688 0.902777791
vt 0.790039062 0.905864179
vt 0.790039062 0.955246925
vt 0.821289062 0.955246925
vt 0.821289062 0.905864179
vt 0.663085938 0.908950627
vt 0.663085938 0.958333313
vt 0.694335938 0.958333313
vt 0.694335938 0.908950627
vt 0.854492188 0.908950627
vt 0.854492188 0.958333313
vt 0.885742188 0.958333313
vt 0.885742188 0.908950627
vt 0.887695312 0.908950627
vt 0.887695312 0.958333313
vt 0.918945312 0.958333313
vt 0.918945312 0.908950627
vt 0.920898438 0.908950627
vt 0.920898438 0.958333313
vt 0.952148438 0.958333313
vt 0.952148438 0.908950627
vt 0.954101562 0.908950627
vt 0.954101562 0.958333313
vt 0.985351562 0.958333313
vt 0.985351562 0.908950627
vt 0.0009765625 0.94907409
vt 0.0009765625 0.998456776
vt 0.0322265625 0.998456776
vt 0.0322265625 0.94907409
g bailu_2-mesh_0
f 3/3/3 2/2/2 1/1/1
f 1/1/1 4/4/4 3/3/3
f 7/7/7 6/6/6 5/5/5
f 5/5/5 8/8/8 7/7/7
f 11/11/11 10/10/10 9/9/9
f 9/9/9 12/12/12 11/11/11
f 15/15/15 14/14/14 13/13/13
f 13/13/13 16/16/16 15/15/15
f 19/19/19 18/18/18 17/17/17
f 17/17/17 20/20/20 19/19/19
f 23/23/23 22/22/22 21/21/21
f 21/21/21 24/24/24 23/23/23
f 27/27/27 26/26/26 25/25/25
f 25/25/25 28/28/28 27/27/27
f 31/31/31 30/30/30 29/29/29
f 29/29/29 32/32/32 31/31/31
f 35/35/35 34/34/34 33/33/33
f 33/33/33 36/36/36 35/35/35
f 39/39/39 38/38/38 37/37/37
f 37/37/37 40/40/40 39/39/39
f 43/43/43 42/42/42 41/41/41
f 41/41/41 44/44/44 43/43/43
f 47/47/47 46/46/46 45/45/45
f 45/45/45 48/48/48 47/47/47
f 51/51/51 50/50/50 49/49/49
f 49/49/49 52/52/52 51/51/51
f 55/55/55 54/54/54 53/53/53
f 53/53/53 56/56/56 55/55/55
f 59/59/59 58/58/58 57/57/57
f 57/57/57 60/60/60 59/59/59
f 63/63/63 62/62/62 61/61/61
f 61/61/61 64/64/64 63/63/63
f 67/67/67 66/66/66 65/65/65
f 65/65/65 68/68/68 67/67/67
f 71/71/71 70/70/70 69/69/69
f 69/69/69 72/72/72 71/71/71
f 75/75/75 74/74/74 73/73/73
f 73/73/73 76/76/76 75/75/75
f 79/79/79 78/78/78 77/77/77
f 77/77/77 80/80/80 79/79/79
f 83/83/83 82/82/82 81/81/81
f 81/81/81 84/84/84 83/83/83
f 87/87/87 86/86/86 85/85/85
f 85/85/85 88/88/88 87/87/87
f 91/91/91 90/90/90 89/89/89
f 89/89/89 92/92/92 91/91/91
f 95/95/95 94/94/94 93/93/93
f 93/93/93 96/96/96 95/95/95
f 99/99/99 98/98/98 97/97/97
f 97/97/97 100/100/100 99/99/99
f 103/103/103 102/102/102 101/101/101
f 101/101/101 104/104/104 103/103/103
f 107/107/107 106/106/106 105/105/105
f 105/105/105 108/108/108 107/107/107
f 111/111/111 110/110/110 109/109/109
f 109/109/109 112/112/112 111/111/111
f 115/115/115 114/114/114 113/113/113
f 113/113/113 116/116/116 115/115/115
f 119/119/119 118/118/118 117/117/117
f 117/117/117 120/120/120 119/119/119
f 123/123/123 122/122/122 121/121/121
f 121/121/121 124/124/124 123/123/123
f 127/127/127 126/126/126 125/125/125
f 125/125/125 128/128/128 127/127/127
f 131/131/131 130/130/130 129/129/129
f 129/129/129 132/132/132 131/131/131
f 135/135/135 134/134/134 133/133/133
f 133/133/133 136/136/136 135/135/135
f 139/139/139 138/138/138 137/137/137
f 137/137/137 140/140/140 139/139/139
f 143/143/143 142/142/142 141/141/141
f 141/141/141 144/144/144 143/143/143
f 147/147/147 146/146/146 145/145/145
f 145/145/145 148/148/148 147/147/147
f 151/151/151 150/150/150 149/149/149
f 149/149/149 152/152/152 151/151/151
f 155/155/155 154/154/154 153/153/153
f 153/153/153 156/156/156 155/155/155
f 159/159/159 158/158/158 157/157/157
f 157/157/157 160/160/160 159/159/159
f 163/163/163 162/162/162 161/161/161
f 161/161/161 164/164/164 163/163/163
f 167/167/167 166/166/166 165/165/165
f 165/165/165 168/168/168 167/167/167
f 171/171/171 170/170/170 169/169/169
f 169/169/169 172/172/172 171/171/171
f 175/175/175 174/174/174 173/173/173
f 173/173/173 176/176/176 175/175/175
f 179/179/179 178/178/178 177/177/177
f 177/177/177 180/180/180 179/179/179
f 183/183/183 182/182/182 181/181/181
f 181/181/181 184/184/184 183/183/183
f 187/187/187 186/186/186 185/185/185
f 185/185/185 188/188/188 187/187/187
f 191/191/191 190/190/190 189/189/189
f 189/189/189 192/192/192 191/191/191
f 195/195/195 194/194/194 193/193/193
f 193/193/193 196/196/196 195/195/195
f 199/199/199 198/198/198 197/197/197
f 197/197/197 200/200/200 199/199/199
f 203/203/203 202/202/202 201/201/201
f 201/201/201 204/204/204 203/203/203
f 207/207/207 206/206/206 205/205/205
f 205/205/205 208/208/208 207/207/207
f 211/211/211 210/210/210 209/209/209
f 209/209/209 212/212/212 211/211/211
f 215/215/215 214/214/214 213/213/213
f 213/213/213 216/216/216 215/215/215
