g duyisibao_2_rw-mesh
v -160 863 0
v -160 1727 0
v -544 1727 0
v -544 863 0
v -160 31 0
v -160 863 0
v -544 863 0
v -544 31 0
v -96 127 0
v -96 767 0
v -160 767 0
v -160 127 0
v -96 767 0
v -96 1407 0
v -160 1407 0
v -160 767 0
v -480 1727 0
v -480 1855 0
v -704 1855 0
v -704 1727 0
v -256 1727 0
v -256 1855 0
v -480 1855 0
v -480 1727 0
v -544 223 0
v -544 319 0
v -800 319 0
v -800 223 0
v -800 223 0
v -800 319 0
v -1056 319 0
v -1056 223 0
v -544 671 0
v -544 927 0
v -640 927 0
v -640 671 0
v -544 415 0
v -544 671 0
v -640 671 0
v -640 415 0
v -544 63 0
v -544 223 0
v -640 223 0
v -640 63 0
v -0 1087 0
v -0 1247 0
v -96 1247 0
v -96 1087 0
v -0 959 0
v -0 1087 0
v -96 1087 0
v -96 959 0
v -384 1855 0
v -384 1951 0
v -480 1951 0
v -480 1855 0
v -704 1695 0
v -704 1759 0
v -832 1759 0
v -832 1695 0
v -416 1951 0
v -416 2015 0
v -544 2015 0
v -544 1951 0
v -640 671 0
v -640 799 0
v -704 799 0
v -704 671 0
v -544 1471 0
v -544 1599 0
v -608 1599 0
v -608 1471 0
v -544 1599 0
v -544 1727 0
v -608 1727 0
v -608 1599 0
v -32 319 0
v -32 447 0
v -96 447 0
v -96 319 0
v -32 191 0
v -32 319 0
v -96 319 0
v -96 191 0
v -640 575 0
v -640 671 0
v -704 671 0
v -704 575 0
v -544 1951 0
v -544 2015 0
v -640 2015 0
v -640 1951 0
v -768 319 0
v -768 351 0
v -928 351 0
v -928 319 0
v -640 191 0
v -640 223 0
v -800 223 0
v -800 191 0
v -800 191 0
v -800 223 0
v -960 223 0
v -960 191 0
v -544 351 0
v -544 415 0
v -608 415 0
v -608 351 0
v -192 1727 0
v -192 1791 0
v -256 1791 0
v -256 1727 0
v -480 1887 0
v -480 1951 0
v -544 1951 0
v -544 1887 0
v -928 319 0
v -928 351 0
v -1056 351 0
v -1056 319 0
v -640 159 0
v -640 191 0
v -768 191 0
v -768 159 0
v -832 351 0
v -832 415 0
v -896 415 0
v -896 351 0
v -64 1311 0
v -64 1407 0
v -96 1407 0
v -96 1311 0
v -0 255 0
v -0 351 0
v -32 351 0
v -32 255 0
v -640 127 0
v -640 159 0
v -736 159 0
v -736 127 0
v -576 2015 0
v -576 2047 0
v -672 2047 0
v -672 2015 0
v -64 767 0
v -64 863 0
v -96 863 0
v -96 767 0
v -768 159 0
v -768 191 0
v -864 191 0
v -864 159 0
v -480 2015 0
v -480 2047 0
v -576 2047 0
v -576 2015 0
v -64 671 0
v -64 767 0
v -96 767 0
v -96 671 0
v -384 0 0
v -384 31 0
v -480 31 0
v -480 0 0
v -288 0 0
v -288 31 0
v -384 31 0
v -384 0 0
v -640 1695 0
v -640 1727 0
v -704 1727 0
v -704 1695 0
v -64 895 0
v -64 959 0
v -96 959 0
v -96 895 0
v -32 1247 0
v -32 1311 0
v -64 1311 0
v -64 1247 0
v -640 95 0
v -640 127 0
v -704 127 0
v -704 95 0
v -768 351 0
v -768 383 0
v -832 383 0
v -832 351 0
v -640 511 0
v -640 575 0
v -672 575 0
v -672 511 0
v -640 799 0
v -640 863 0
v -672 863 0
v -672 799 0
v -32 671 0
v -32 735 0
v -64 735 0
v -64 671 0
v -736 127 0
v -736 159 0
v -800 159 0
v -800 127 0
v -544 1247 0
v -544 1311 0
v -576 1311 0
v -576 1247 0
v -64 1247 0
v -64 1311 0
v -96 1311 0
v -96 1247 0
v -0 191 0
v -0 255 0
v -32 255 0
v -32 191 0
v -704 1759 0
v -704 1823 0
v -736 1823 0
v -736 1759 0
v -288 1855 0
v -288 1887 0
v -352 1887 0
v -352 1855 0
v -544 1183 0
v -544 1247 0
v -576 1247 0
v -576 1183 0
v -32 831 0
v -32 863 0
v -64 863 0
v -64 831 0
v -64 447 0
v -64 479 0
v -96 479 0
v -96 447 0
v -0 927 0
v -0 959 0
v -32 959 0
v -32 927 0
v -544 927 0
v -544 959 0
v -576 959 0
v -576 927 0
v -544 319 0
v -544 351 0
v -576 351 0
v -576 319 0
v -1088 63 0
v -1088 95 0
v -1107 95 0
v -1107 63 0
v -1088 0 0
v -1088 31 0
v -1107 31 0
v -1107 0 0
v -64 159 0
v -64 191 0
v -96 191 0
v -96 159 0
v -128 95 0
v -128 127 0
v -160 127 0
v -160 95 0
v -544 1919 0
v -544 1951 0
v -576 1951 0
v -576 1919 0
v -352 1887 0
v -352 1919 0
v -384 1919 0
v -384 1887 0
v -352 1855 0
v -352 1887 0
v -384 1887 0
v -384 1855 0
v -384 1951 0
v -384 1983 0
v -416 1983 0
v -416 1951 0
v -224 1791 0
v -224 1823 0
v -256 1823 0
v -256 1791 0
v -128 1407 0
v -128 1439 0
v -160 1439 0
v -160 1407 0
v -544 1023 0
v -544 1055 0
v -576 1055 0
v -576 1023 0
v -736 1759 0
v -736 1791 0
v -768 1791 0
v -768 1759 0
v -544 1439 0
v -544 1471 0
v -576 1471 0
v -576 1439 0
vt 0.00048828125 0.00115472078
vt 0.00048828125 0.998845279
vt 0.187988281 0.998845279
vt 0.187988281 0.00115472078
vt 0.188964844 0.00115472078
vt 0.188964844 0.961893737
vt 0.376464844 0.961893737
vt 0.376464844 0.00115472078
vt 0.377441406 0.00115472078
vt 0.377441406 0.740184784
vt 0.408691406 0.740184784
vt 0.408691406 0.00115472078
vt 0.409667969 0.00115472078
vt 0.409667969 0.740184784
vt 0.440917969 0.740184784
vt 0.440917969 0.00115472078
vt 0.441894531 0.00115472078
vt 0.441894531 0.14896071
vt 0.551269531 0.14896071
vt 0.551269531 0.00115472078
vt 0.552246094 0.00115472078
vt 0.552246094 0.14896071
vt 0.661621094 0.14896071
vt 0.661621094 0.00115472078
vt 0.662597656 0.00115472078
vt 0.662597656 0.112009227
vt 0.787597656 0.112009227
vt 0.787597656 0.00115472078
vt 0.788574219 0.00115472078
vt 0.788574219 0.112009227
vt 0.913574219 0.112009227
vt 0.913574219 0.00115472078
vt 0.914550781 0.00115472078
vt 0.914550781 0.296766758
vt 0.961425781 0.296766758
vt 0.961425781 0.00115472078
vt 0.662597656 0.114318728
vt 0.662597656 0.409930706
vt 0.709472656 0.409930706
vt 0.709472656 0.114318728
vt 0.710449219 0.114318728
vt 0.710449219 0.2990762
vt 0.757324219 0.2990762
vt 0.757324219 0.114318728
vt 0.758300781 0.114318728
vt 0.758300781 0.2990762
vt 0.805175781 0.2990762
vt 0.805175781 0.114318728
vt 0.806152344 0.114318728
vt 0.806152344 0.262124717
vt 0.853027344 0.262124717
vt 0.853027344 0.114318728
vt 0.854003906 0.114318728
vt 0.854003906 0.225173235
vt 0.900878906 0.225173235
vt 0.900878906 0.114318728
vt 0.441894531 0.151270211
vt 0.441894531 0.225173235
vt 0.504394531 0.225173235
vt 0.504394531 0.151270211
vt 0.505371094 0.151270211
vt 0.505371094 0.225173235
vt 0.567871094 0.225173235
vt 0.567871094 0.151270211
vt 0.962402344 0.00115472078
vt 0.962402344 0.14896071
vt 0.993652344 0.14896071
vt 0.993652344 0.00115472078
vt 0.568847656 0.151270211
vt 0.568847656 0.2990762
vt 0.600097656 0.2990762
vt 0.600097656 0.151270211
vt 0.601074219 0.151270211
vt 0.601074219 0.2990762
vt 0.632324219 0.2990762
vt 0.632324219 0.151270211
vt 0.962402344 0.151270211
vt 0.962402344 0.2990762
vt 0.993652344 0.2990762
vt 0.993652344 0.151270211
vt 0.441894531 0.227482677
vt 0.441894531 0.375288665
vt 0.473144531 0.375288665
vt 0.473144531 0.227482677
vt 0.474121094 0.227482677
vt 0.474121094 0.338337183
vt 0.505371094 0.338337183
vt 0.505371094 0.227482677
vt 0.506347656 0.227482677
vt 0.506347656 0.301385701
vt 0.553222656 0.301385701
vt 0.553222656 0.227482677
vt 0.806152344 0.264434159
vt 0.806152344 0.301385701
vt 0.884277344 0.301385701
vt 0.884277344 0.264434159
vt 0.568847656 0.301385701
vt 0.568847656 0.338337183
vt 0.646972656 0.338337183
vt 0.646972656 0.301385701
vt 0.710449219 0.301385701
vt 0.710449219 0.338337183
vt 0.788574219 0.338337183
vt 0.788574219 0.301385701
vt 0.914550781 0.2990762
vt 0.914550781 0.372979224
vt 0.945800781 0.372979224
vt 0.945800781 0.2990762
vt 0.962402344 0.301385701
vt 0.962402344 0.375288665
vt 0.993652344 0.375288665
vt 0.993652344 0.301385701
vt 0.506347656 0.303695142
vt 0.506347656 0.377598166
vt 0.537597656 0.377598166
vt 0.537597656 0.303695142
vt 0.806152344 0.303695142
vt 0.806152344 0.340646625
vt 0.868652344 0.340646625
vt 0.868652344 0.303695142
vt 0.568847656 0.340646625
vt 0.568847656 0.377598166
vt 0.631347656 0.377598166
vt 0.631347656 0.340646625
vt 0.869628906 0.303695142
vt 0.869628906 0.377598166
vt 0.900878906 0.377598166
vt 0.900878906 0.303695142
vt 0.789550781 0.301385701
vt 0.789550781 0.412240207
vt 0.805175781 0.412240207
vt 0.805175781 0.301385701
vt 0.538574219 0.303695142
vt 0.538574219 0.414549649
vt 0.554199219 0.414549649
vt 0.554199219 0.303695142
vt 0.710449219 0.340646625
vt 0.710449219 0.377598166
vt 0.757324219 0.377598166
vt 0.757324219 0.340646625
vt 0.806152344 0.342956126
vt 0.806152344 0.379907608
vt 0.853027344 0.379907608
vt 0.853027344 0.342956126
vt 0.474121094 0.340646625
vt 0.474121094 0.451501131
vt 0.489746094 0.451501131
vt 0.489746094 0.340646625
vt 0.914550781 0.375288665
vt 0.914550781 0.412240207
vt 0.961425781 0.412240207
vt 0.961425781 0.375288665
vt 0.568847656 0.379907608
vt 0.568847656 0.41685915
vt 0.615722656 0.41685915
vt 0.615722656 0.379907608
vt 0.632324219 0.340646625
vt 0.632324219 0.451501131
vt 0.647949219 0.451501131
vt 0.647949219 0.340646625
vt 0.710449219 0.379907608
vt 0.710449219 0.41685915
vt 0.757324219 0.41685915
vt 0.757324219 0.379907608
vt 0.806152344 0.382217109
vt 0.806152344 0.419168591
vt 0.853027344 0.419168591
vt 0.853027344 0.382217109
vt 0.441894531 0.377598166
vt 0.441894531 0.414549649
vt 0.473144531 0.414549649
vt 0.473144531 0.377598166
vt 0.758300781 0.340646625
vt 0.758300781 0.414549649
vt 0.773925781 0.414549649
vt 0.773925781 0.340646625
vt 0.962402344 0.377598166
vt 0.962402344 0.451501131
vt 0.978027344 0.451501131
vt 0.978027344 0.377598166
vt 0.506347656 0.379907608
vt 0.506347656 0.41685915
vt 0.537597656 0.41685915
vt 0.537597656 0.379907608
vt 0.869628906 0.379907608
vt 0.869628906 0.41685915
vt 0.900878906 0.41685915
vt 0.900878906 0.379907608
vt 0.979003906 0.377598166
vt 0.979003906 0.451501131
vt 0.994628906 0.451501131
vt 0.994628906 0.377598166
vt 0.662597656 0.412240207
vt 0.662597656 0.486143172
vt 0.678222656 0.486143172
vt 0.678222656 0.412240207
vt 0.679199219 0.412240207
vt 0.679199219 0.486143172
vt 0.694824219 0.486143172
vt 0.694824219 0.412240207
vt 0.914550781 0.414549649
vt 0.914550781 0.451501131
vt 0.945800781 0.451501131
vt 0.945800781 0.414549649
vt 0.789550781 0.414549649
vt 0.789550781 0.488452673
vt 0.805175781 0.488452673
vt 0.805175781 0.414549649
vt 0.441894531 0.41685915
vt 0.441894531 0.490762115
vt 0.457519531 0.490762115
vt 0.457519531 0.41685915
vt 0.538574219 0.41685915
vt 0.538574219 0.490762115
vt 0.554199219 0.490762115
vt 0.554199219 0.41685915
vt 0.758300781 0.41685915
vt 0.758300781 0.490762115
vt 0.773925781 0.490762115
vt 0.773925781 0.41685915
vt 0.506347656 0.419168591
vt 0.506347656 0.456120074
vt 0.537597656 0.456120074
vt 0.537597656 0.419168591
vt 0.568847656 0.419168591
vt 0.568847656 0.493071616
vt 0.584472656 0.493071616
vt 0.584472656 0.419168591
vt 0.585449219 0.419168591
vt 0.585449219 0.456120074
vt 0.601074219 0.456120074
vt 0.601074219 0.419168591
vt 0.602050781 0.419168591
vt 0.602050781 0.456120074
vt 0.617675781 0.456120074
vt 0.617675781 0.419168591
vt 0.710449219 0.419168591
vt 0.710449219 0.456120074
vt 0.726074219 0.456120074
vt 0.726074219 0.419168591
vt 0.727050781 0.419168591
vt 0.727050781 0.456120074
vt 0.742675781 0.456120074
vt 0.742675781 0.419168591
vt 0.869628906 0.419168591
vt 0.869628906 0.456120074
vt 0.885253906 0.456120074
vt 0.885253906 0.419168591
vt 0.901855469 0.114318728
vt 0.901855469 0.151270211
vt 0.911621094 0.151270211
vt 0.911621094 0.114318728
vt 0.648925781 0.151270211
vt 0.648925781 0.188221693
vt 0.658691406 0.188221693
vt 0.658691406 0.151270211
vt 0.886230469 0.419168591
vt 0.886230469 0.456120074
vt 0.901855469 0.456120074
vt 0.901855469 0.419168591
vt 0.806152344 0.421478033
vt 0.806152344 0.458429575
vt 0.821777344 0.458429575
vt 0.821777344 0.421478033
vt 0.822753906 0.421478033
vt 0.822753906 0.458429575
vt 0.838378906 0.458429575
vt 0.838378906 0.421478033
vt 0.839355469 0.421478033
vt 0.839355469 0.458429575
vt 0.854980469 0.458429575
vt 0.854980469 0.421478033
vt 0.474121094 0.453810632
vt 0.474121094 0.490762115
vt 0.489746094 0.490762115
vt 0.489746094 0.453810632
vt 0.632324219 0.453810632
vt 0.632324219 0.490762115
vt 0.647949219 0.490762115
vt 0.647949219 0.453810632
vt 0.914550781 0.453810632
vt 0.914550781 0.490762115
vt 0.930175781 0.490762115
vt 0.930175781 0.453810632
vt 0.931152344 0.453810632
vt 0.931152344 0.490762115
vt 0.946777344 0.490762115
vt 0.946777344 0.453810632
vt 0.962402344 0.453810632
vt 0.962402344 0.490762115
vt 0.978027344 0.490762115
vt 0.978027344 0.453810632
vt 0.979003906 0.453810632
vt 0.979003906 0.490762115
vt 0.994628906 0.490762115
vt 0.994628906 0.453810632
vt 0.506347656 0.458429575
vt 0.506347656 0.495381057
vt 0.521972656 0.495381057
vt 0.521972656 0.458429575
g duyisibao_2_rw-mesh_0
f 3/3/3 2/2/2 1/1/1
f 1/1/1 4/4/4 3/3/3
f 7/7/7 6/6/6 5/5/5
f 5/5/5 8/8/8 7/7/7
f 11/11/11 10/10/10 9/9/9
f 9/9/9 12/12/12 11/11/11
f 15/15/15 14/14/14 13/13/13
f 13/13/13 16/16/16 15/15/15
f 19/19/19 18/18/18 17/17/17
f 17/17/17 20/20/20 19/19/19
f 23/23/23 22/22/22 21/21/21
f 21/21/21 24/24/24 23/23/23
f 27/27/27 26/26/26 25/25/25
f 25/25/25 28/28/28 27/27/27
f 31/31/31 30/30/30 29/29/29
f 29/29/29 32/32/32 31/31/31
f 35/35/35 34/34/34 33/33/33
f 33/33/33 36/36/36 35/35/35
f 39/39/39 38/38/38 37/37/37
f 37/37/37 40/40/40 39/39/39
f 43/43/43 42/42/42 41/41/41
f 41/41/41 44/44/44 43/43/43
f 47/47/47 46/46/46 45/45/45
f 45/45/45 48/48/48 47/47/47
f 51/51/51 50/50/50 49/49/49
f 49/49/49 52/52/52 51/51/51
f 55/55/55 54/54/54 53/53/53
f 53/53/53 56/56/56 55/55/55
f 59/59/59 58/58/58 57/57/57
f 57/57/57 60/60/60 59/59/59
f 63/63/63 62/62/62 61/61/61
f 61/61/61 64/64/64 63/63/63
f 67/67/67 66/66/66 65/65/65
f 65/65/65 68/68/68 67/67/67
f 71/71/71 70/70/70 69/69/69
f 69/69/69 72/72/72 71/71/71
f 75/75/75 74/74/74 73/73/73
f 73/73/73 76/76/76 75/75/75
f 79/79/79 78/78/78 77/77/77
f 77/77/77 80/80/80 79/79/79
f 83/83/83 82/82/82 81/81/81
f 81/81/81 84/84/84 83/83/83
f 87/87/87 86/86/86 85/85/85
f 85/85/85 88/88/88 87/87/87
f 91/91/91 90/90/90 89/89/89
f 89/89/89 92/92/92 91/91/91
f 95/95/95 94/94/94 93/93/93
f 93/93/93 96/96/96 95/95/95
f 99/99/99 98/98/98 97/97/97
f 97/97/97 100/100/100 99/99/99
f 103/103/103 102/102/102 101/101/101
f 101/101/101 104/104/104 103/103/103
f 107/107/107 106/106/106 105/105/105
f 105/105/105 108/108/108 107/107/107
f 111/111/111 110/110/110 109/109/109
f 109/109/109 112/112/112 111/111/111
f 115/115/115 114/114/114 113/113/113
f 113/113/113 116/116/116 115/115/115
f 119/119/119 118/118/118 117/117/117
f 117/117/117 120/120/120 119/119/119
f 123/123/123 122/122/122 121/121/121
f 121/121/121 124/124/124 123/123/123
f 127/127/127 126/126/126 125/125/125
f 125/125/125 128/128/128 127/127/127
f 131/131/131 130/130/130 129/129/129
f 129/129/129 132/132/132 131/131/131
f 135/135/135 134/134/134 133/133/133
f 133/133/133 136/136/136 135/135/135
f 139/139/139 138/138/138 137/137/137
f 137/137/137 140/140/140 139/139/139
f 143/143/143 142/142/142 141/141/141
f 141/141/141 144/144/144 143/143/143
f 147/147/147 146/146/146 145/145/145
f 145/145/145 148/148/148 147/147/147
f 151/151/151 150/150/150 149/149/149
f 149/149/149 152/152/152 151/151/151
f 155/155/155 154/154/154 153/153/153
f 153/153/153 156/156/156 155/155/155
f 159/159/159 158/158/158 157/157/157
f 157/157/157 160/160/160 159/159/159
f 163/163/163 162/162/162 161/161/161
f 161/161/161 164/164/164 163/163/163
f 167/167/167 166/166/166 165/165/165
f 165/165/165 168/168/168 167/167/167
f 171/171/171 170/170/170 169/169/169
f 169/169/169 172/172/172 171/171/171
f 175/175/175 174/174/174 173/173/173
f 173/173/173 176/176/176 175/175/175
f 179/179/179 178/178/178 177/177/177
f 177/177/177 180/180/180 179/179/179
f 183/183/183 182/182/182 181/181/181
f 181/181/181 184/184/184 183/183/183
f 187/187/187 186/186/186 185/185/185
f 185/185/185 188/188/188 187/187/187
f 191/191/191 190/190/190 189/189/189
f 189/189/189 192/192/192 191/191/191
f 195/195/195 194/194/194 193/193/193
f 193/193/193 196/196/196 195/195/195
f 199/199/199 198/198/198 197/197/197
f 197/197/197 200/200/200 199/199/199
f 203/203/203 202/202/202 201/201/201
f 201/201/201 204/204/204 203/203/203
f 207/207/207 206/206/206 205/205/205
f 205/205/205 208/208/208 207/207/207
f 211/211/211 210/210/210 209/209/209
f 209/209/209 212/212/212 211/211/211
f 215/215/215 214/214/214 213/213/213
f 213/213/213 216/216/216 215/215/215
f 219/219/219 218/218/218 217/217/217
f 217/217/217 220/220/220 219/219/219
f 223/223/223 222/222/222 221/221/221
f 221/221/221 224/224/224 223/223/223
f 227/227/227 226/226/226 225/225/225
f 225/225/225 228/228/228 227/227/227
f 231/231/231 230/230/230 229/229/229
f 229/229/229 232/232/232 231/231/231
f 235/235/235 234/234/234 233/233/233
f 233/233/233 236/236/236 235/235/235
f 239/239/239 238/238/238 237/237/237
f 237/237/237 240/240/240 239/239/239
f 243/243/243 242/242/242 241/241/241
f 241/241/241 244/244/244 243/243/243
f 247/247/247 246/246/246 245/245/245
f 245/245/245 248/248/248 247/247/247
f 251/251/251 250/250/250 249/249/249
f 249/249/249 252/252/252 251/251/251
f 255/255/255 254/254/254 253/253/253
f 253/253/253 256/256/256 255/255/255
f 259/259/259 258/258/258 257/257/257
f 257/257/257 260/260/260 259/259/259
f 263/263/263 262/262/262 261/261/261
f 261/261/261 264/264/264 263/263/263
f 267/267/267 266/266/266 265/265/265
f 265/265/265 268/268/268 267/267/267
f 271/271/271 270/270/270 269/269/269
f 269/269/269 272/272/272 271/271/271
f 275/275/275 274/274/274 273/273/273
f 273/273/273 276/276/276 275/275/275
f 279/279/279 278/278/278 277/277/277
f 277/277/277 280/280/280 279/279/279
f 283/283/283 282/282/282 281/281/281
f 281/281/281 284/284/284 283/283/283
f 287/287/287 286/286/286 285/285/285
f 285/285/285 288/288/288 287/287/287
f 291/291/291 290/290/290 289/289/289
f 289/289/289 292/292/292 291/291/291
f 295/295/295 294/294/294 293/293/293
f 293/293/293 296/296/296 295/295/295
f 299/299/299 298/298/298 297/297/297
f 297/297/297 300/300/300 299/299/299
