g congmang_2_bj-mesh
v -800 573 0
v -800 637 0
v -896 637 0
v -896 573 0
v -1216 605 0
v -1216 669 0
v -1312 669 0
v -1312 605 0
v -1184 637 0
v -1184 669 0
v -1216 669 0
v -1216 637 0
v -1216 669 0
v -1216 701 0
v -1248 701 0
v -1248 669 0
vt 0.001953125 0.0151515007
vt 0.001953125 0.984848499
vt 0.189453125 0.984848499
vt 0.189453125 0.0151515007
vt 0.193359375 0.0151515007
vt 0.193359375 0.984848499
vt 0.380859375 0.984848499
vt 0.380859375 0.0151515007
vt 0.384765625 0.0151515007
vt 0.384765625 0.5
vt 0.447265625 0.5
vt 0.447265625 0.0151515007
vt 0.451171875 0.0151515007
vt 0.451171875 0.5
vt 0.513671875 0.5
vt 0.513671875 0.0151515007
g congmang_2_bj-mesh_0
f 3/3/3 2/2/2 1/1/1
f 1/1/1 4/4/4 3/3/3
f 7/7/7 6/6/6 5/5/5
f 5/5/5 8/8/8 7/7/7
f 11/11/11 10/10/10 9/9/9
f 9/9/9 12/12/12 11/11/11
f 15/15/15 14/14/14 13/13/13
f 13/13/13 16/16/16 15/15/15
