g changchun-mesh
v -192 191 0
v -192 479 0
v -608 479 0
v -608 191 0
v -192 479 0
v -192 767 0
v -608 767 0
v -608 479 0
v -224 767 0
v -224 927 0
v -512 927 0
v -512 767 0
v -608 255 0
v -608 543 0
v -736 543 0
v -736 255 0
v -608 543 0
v -608 671 0
v -749 671 0
v -749 543 0
v -96 671 0
v -96 831 0
v -192 831 0
v -192 671 0
v -96 511 0
v -96 671 0
v -192 671 0
v -192 511 0
v -96 351 0
v -96 479 0
v -192 479 0
v -192 351 0
v -352 927 0
v -352 1023 0
v -480 1023 0
v -480 927 0
v -96 31 0
v -96 127 0
v -224 127 0
v -224 31 0
v -224 31 0
v -224 127 0
v -352 127 0
v -352 31 0
v -256 127 0
v -256 191 0
v -384 191 0
v -384 127 0
v -0 511 0
v -0 575 0
v -96 575 0
v -96 511 0
v -128 191 0
v -128 287 0
v -192 287 0
v -192 191 0
v -32 735 0
v -32 831 0
v -96 831 0
v -96 735 0
v -608 191 0
v -608 255 0
v -672 255 0
v -672 191 0
v -32 671 0
v -32 735 0
v -96 735 0
v -96 671 0
v -128 127 0
v -128 191 0
v -192 191 0
v -192 127 0
v -448 159 0
v -448 191 0
v -544 191 0
v -544 159 0
v -544 159 0
v -544 191 0
v -640 191 0
v -640 159 0
v -0 703 0
v -0 767 0
v -32 767 0
v -32 703 0
v -512 767 0
v -512 831 0
v -544 831 0
v -544 767 0
v -192 127 0
v -192 191 0
v -224 191 0
v -224 127 0
v -64 607 0
v -64 671 0
v -96 671 0
v -96 607 0
v -192 767 0
v -192 831 0
v -224 831 0
v -224 767 0
v -288 0 0
v -288 31 0
v -352 31 0
v -352 0 0
v -224 0 0
v -224 31 0
v -288 31 0
v -288 0 0
v -192 863 0
v -192 927 0
v -224 927 0
v -224 863 0
v -608 927 0
v -608 959 0
v -672 959 0
v -672 927 0
v -672 223 0
v -672 255 0
v -704 255 0
v -704 223 0
v -160 287 0
v -160 319 0
v -192 319 0
v -192 287 0
v -224 159 0
v -224 191 0
v -256 191 0
v -256 159 0
v -96 127 0
v -96 159 0
v -128 159 0
v -128 127 0
v -384 159 0
v -384 191 0
v -416 191 0
v -416 159 0
v -480 927 0
v -480 959 0
v -512 959 0
v -512 927 0
v -320 927 0
v -320 959 0
v -352 959 0
v -352 927 0
v -544 767 0
v -544 799 0
v -576 799 0
v -576 767 0
v -160 479 0
v -160 511 0
v -192 511 0
v -192 479 0
v -0 479 0
v -0 511 0
v -32 511 0
v -32 479 0
vt 0.0009765625 0.00181818008
vt 0.0009765625 0.525454521
vt 0.407226562 0.525454521
vt 0.407226562 0.00181818008
vt 0.409179688 0.00181818008
vt 0.409179688 0.525454521
vt 0.815429688 0.525454521
vt 0.815429688 0.00181818008
vt 0.0009765625 0.529090881
vt 0.0009765625 0.819999993
vt 0.282226562 0.819999993
vt 0.282226562 0.529090881
vt 0.817382812 0.00181818008
vt 0.817382812 0.525454521
vt 0.942382812 0.525454521
vt 0.942382812 0.00181818008
vt 0.284179688 0.529090881
vt 0.284179688 0.761818171
vt 0.422851562 0.761818171
vt 0.422851562 0.529090881
vt 0.424804688 0.529090881
vt 0.424804688 0.819999993
vt 0.518554688 0.819999993
vt 0.518554688 0.529090881
vt 0.520507812 0.529090881
vt 0.520507812 0.819999993
vt 0.614257812 0.819999993
vt 0.614257812 0.529090881
vt 0.616210938 0.529090881
vt 0.616210938 0.761818171
vt 0.709960938 0.761818171
vt 0.709960938 0.529090881
vt 0.711914062 0.529090881
vt 0.711914062 0.703636408
vt 0.836914062 0.703636408
vt 0.836914062 0.529090881
vt 0.838867188 0.529090881
vt 0.838867188 0.703636408
vt 0.963867188 0.703636408
vt 0.963867188 0.529090881
vt 0.711914062 0.707272768
vt 0.711914062 0.881818175
vt 0.836914062 0.881818175
vt 0.836914062 0.707272768
vt 0.838867188 0.707272768
vt 0.838867188 0.823636353
vt 0.963867188 0.823636353
vt 0.963867188 0.707272768
vt 0.284179688 0.765454531
vt 0.284179688 0.881818175
vt 0.377929688 0.881818175
vt 0.377929688 0.765454531
vt 0.616210938 0.765454531
vt 0.616210938 0.939999998
vt 0.678710938 0.939999998
vt 0.678710938 0.765454531
vt 0.0009765625 0.823636353
vt 0.0009765625 0.99818182
vt 0.0634765625 0.99818182
vt 0.0634765625 0.823636353
vt 0.0654296875 0.823636353
vt 0.0654296875 0.939999998
vt 0.127929688 0.939999998
vt 0.127929688 0.823636353
vt 0.129882812 0.823636353
vt 0.129882812 0.939999998
vt 0.192382812 0.939999998
vt 0.192382812 0.823636353
vt 0.194335938 0.823636353
vt 0.194335938 0.939999998
vt 0.256835938 0.939999998
vt 0.256835938 0.823636353
vt 0.424804688 0.823636353
vt 0.424804688 0.881818175
vt 0.518554688 0.881818175
vt 0.518554688 0.823636353
vt 0.520507812 0.823636353
vt 0.520507812 0.881818175
vt 0.614257812 0.881818175
vt 0.614257812 0.823636353
vt 0.965820312 0.00181818008
vt 0.965820312 0.118181825
vt 0.997070312 0.118181825
vt 0.997070312 0.00181818008
vt 0.965820312 0.121818185
vt 0.965820312 0.238181829
vt 0.997070312 0.238181829
vt 0.997070312 0.121818185
vt 0.965820312 0.24181819
vt 0.965820312 0.358181834
vt 0.997070312 0.358181834
vt 0.997070312 0.24181819
vt 0.965820312 0.361818194
vt 0.965820312 0.478181839
vt 0.997070312 0.478181839
vt 0.997070312 0.361818194
vt 0.965820312 0.481818199
vt 0.965820312 0.598181844
vt 0.997070312 0.598181844
vt 0.997070312 0.481818199
vt 0.838867188 0.827272713
vt 0.838867188 0.885454535
vt 0.901367188 0.885454535
vt 0.901367188 0.827272713
vt 0.903320312 0.827272713
vt 0.903320312 0.885454535
vt 0.965820312 0.885454535
vt 0.965820312 0.827272713
vt 0.967773438 0.601818204
vt 0.967773438 0.718181849
vt 0.999023438 0.718181849
vt 0.999023438 0.601818204
vt 0.284179688 0.885454535
vt 0.284179688 0.943636358
vt 0.346679688 0.943636358
vt 0.346679688 0.885454535
vt 0.967773438 0.721818209
vt 0.967773438 0.779999971
vt 0.999023438 0.779999971
vt 0.999023438 0.721818209
vt 0.379882812 0.765454531
vt 0.379882812 0.823636353
vt 0.411132812 0.823636353
vt 0.411132812 0.765454531
vt 0.967773438 0.783636332
vt 0.967773438 0.841818213
vt 0.999023438 0.841818213
vt 0.999023438 0.783636332
vt 0.379882812 0.827272713
vt 0.379882812 0.885454535
vt 0.411132812 0.885454535
vt 0.411132812 0.827272713
vt 0.967773438 0.845454574
vt 0.967773438 0.903636336
vt 0.999023438 0.903636336
vt 0.999023438 0.845454574
vt 0.424804688 0.885454535
vt 0.424804688 0.943636358
vt 0.456054688 0.943636358
vt 0.456054688 0.885454535
vt 0.458007812 0.885454535
vt 0.458007812 0.943636358
vt 0.489257812 0.943636358
vt 0.489257812 0.885454535
vt 0.491210938 0.885454535
vt 0.491210938 0.943636358
vt 0.522460938 0.943636358
vt 0.522460938 0.885454535
vt 0.524414062 0.885454535
vt 0.524414062 0.943636358
vt 0.555664062 0.943636358
vt 0.555664062 0.885454535
vt 0.557617188 0.885454535
vt 0.557617188 0.943636358
vt 0.588867188 0.943636358
vt 0.588867188 0.885454535
g changchun-mesh_0
f 3/3/3 2/2/2 1/1/1
f 1/1/1 4/4/4 3/3/3
f 7/7/7 6/6/6 5/5/5
f 5/5/5 8/8/8 7/7/7
f 11/11/11 10/10/10 9/9/9
f 9/9/9 12/12/12 11/11/11
f 15/15/15 14/14/14 13/13/13
f 13/13/13 16/16/16 15/15/15
f 19/19/19 18/18/18 17/17/17
f 17/17/17 20/20/20 19/19/19
f 23/23/23 22/22/22 21/21/21
f 21/21/21 24/24/24 23/23/23
f 27/27/27 26/26/26 25/25/25
f 25/25/25 28/28/28 27/27/27
f 31/31/31 30/30/30 29/29/29
f 29/29/29 32/32/32 31/31/31
f 35/35/35 34/34/34 33/33/33
f 33/33/33 36/36/36 35/35/35
f 39/39/39 38/38/38 37/37/37
f 37/37/37 40/40/40 39/39/39
f 43/43/43 42/42/42 41/41/41
f 41/41/41 44/44/44 43/43/43
f 47/47/47 46/46/46 45/45/45
f 45/45/45 48/48/48 47/47/47
f 51/51/51 50/50/50 49/49/49
f 49/49/49 52/52/52 51/51/51
f 55/55/55 54/54/54 53/53/53
f 53/53/53 56/56/56 55/55/55
f 59/59/59 58/58/58 57/57/57
f 57/57/57 60/60/60 59/59/59
f 63/63/63 62/62/62 61/61/61
f 61/61/61 64/64/64 63/63/63
f 67/67/67 66/66/66 65/65/65
f 65/65/65 68/68/68 67/67/67
f 71/71/71 70/70/70 69/69/69
f 69/69/69 72/72/72 71/71/71
f 75/75/75 74/74/74 73/73/73
f 73/73/73 76/76/76 75/75/75
f 79/79/79 78/78/78 77/77/77
f 77/77/77 80/80/80 79/79/79
f 83/83/83 82/82/82 81/81/81
f 81/81/81 84/84/84 83/83/83
f 87/87/87 86/86/86 85/85/85
f 85/85/85 88/88/88 87/87/87
f 91/91/91 90/90/90 89/89/89
f 89/89/89 92/92/92 91/91/91
f 95/95/95 94/94/94 93/93/93
f 93/93/93 96/96/96 95/95/95
f 99/99/99 98/98/98 97/97/97
f 97/97/97 100/100/100 99/99/99
f 103/103/103 102/102/102 101/101/101
f 101/101/101 104/104/104 103/103/103
f 107/107/107 106/106/106 105/105/105
f 105/105/105 108/108/108 107/107/107
f 111/111/111 110/110/110 109/109/109
f 109/109/109 112/112/112 111/111/111
f 115/115/115 114/114/114 113/113/113
f 113/113/113 116/116/116 115/115/115
f 119/119/119 118/118/118 117/117/117
f 117/117/117 120/120/120 119/119/119
f 123/123/123 122/122/122 121/121/121
f 121/121/121 124/124/124 123/123/123
f 127/127/127 126/126/126 125/125/125
f 125/125/125 128/128/128 127/127/127
f 131/131/131 130/130/130 129/129/129
f 129/129/129 132/132/132 131/131/131
f 135/135/135 134/134/134 133/133/133
f 133/133/133 136/136/136 135/135/135
f 139/139/139 138/138/138 137/137/137
f 137/137/137 140/140/140 139/139/139
f 143/143/143 142/142/142 141/141/141
f 141/141/141 144/144/144 143/143/143
f 147/147/147 146/146/146 145/145/145
f 145/145/145 148/148/148 147/147/147
f 151/151/151 150/150/150 149/149/149
f 149/149/149 152/152/152 151/151/151
f 155/155/155 154/154/154 153/153/153
f 153/153/153 156/156/156 155/155/155
