g lituoliao_3f2-mesh
v -736 202 0
v -736 522 0
v -1216 522 0
v -1216 202 0
v -32 618 0
v -32 906 0
v -384 906 0
v -384 618 0
v -32 330 0
v -32 618 0
v -384 618 0
v -384 330 0
v -384 394 0
v -384 714 0
v -544 714 0
v -544 394 0
v -992 522 0
v -992 714 0
v -1184 714 0
v -1184 522 0
v -1216 266 0
v -1216 458 0
v -1344 458 0
v -1344 266 0
v -640 202 0
v -640 426 0
v -736 426 0
v -736 202 0
v -1120 74 0
v -1120 202 0
v -1248 202 0
v -1248 74 0
v -512 266 0
v -512 362 0
v -640 362 0
v -640 266 0
v -672 10 0
v -672 138 0
v -736 138 0
v -736 10 0
v -768 522 0
v -768 650 0
v -832 650 0
v -832 522 0
v -1184 522 0
v -1184 650 0
v -1248 650 0
v -1248 522 0
v -704 138 0
v -704 202 0
v -832 202 0
v -832 138 0
v -32 234 0
v -32 330 0
v -96 330 0
v -96 234 0
v -1184 0 0
v -1184 74 0
v -1248 74 0
v -1248 0 0
v -0 906 0
v -0 938 0
v -192 938 0
v -192 906 0
v -192 234 0
v -192 330 0
v -256 330 0
v -256 234 0
v -192 906 0
v -192 938 0
v -352 938 0
v -352 906 0
v -928 586 0
v -928 650 0
v -992 650 0
v -992 586 0
v -544 458 0
v -544 586 0
v -576 586 0
v -576 458 0
v -0 778 0
v -0 906 0
v -32 906 0
v -32 778 0
v -192 170 0
v -192 234 0
v -256 234 0
v -256 170 0
v -1248 170 0
v -1248 266 0
v -1280 266 0
v -1280 170 0
v -544 362 0
v -544 458 0
v -576 458 0
v -576 362 0
v -0 682 0
v -0 778 0
v -32 778 0
v -32 682 0
v -1216 458 0
v -1216 490 0
v -1312 490 0
v -1312 458 0
v -576 458 0
v -576 490 0
v -640 490 0
v -640 458 0
v -832 522 0
v -832 586 0
v -864 586 0
v -864 522 0
v -448 714 0
v -448 746 0
v -512 746 0
v -512 714 0
v -1056 714 0
v -1056 746 0
v -1120 746 0
v -1120 714 0
v -1216 202 0
v -1216 266 0
v -1248 266 0
v -1248 202 0
v -736 74 0
v -736 138 0
v -768 138 0
v -768 74 0
v -704 426 0
v -704 490 0
v -736 490 0
v -736 426 0
v -544 234 0
v -544 266 0
v -608 266 0
v -608 234 0
v -640 0 0
v -640 42 0
v -672 42 0
v -672 0 0
v -640 42 0
v -640 106 0
v -672 106 0
v -672 42 0
v -1312 458 0
v -1312 490 0
v -1376 490 0
v -1376 458 0
v -384 362 0
v -384 394 0
v -448 394 0
v -448 362 0
v -1248 106 0
v -1248 170 0
v -1280 170 0
v -1280 106 0
v -928 170 0
v -928 202 0
v -992 202 0
v -992 170 0
v -672 170 0
v -672 202 0
v -704 202 0
v -704 170 0
v -256 170 0
v -256 202 0
v -288 202 0
v -288 170 0
v -384 330 0
v -384 362 0
v -416 362 0
v -416 330 0
v -1280 234 0
v -1280 266 0
v -1312 266 0
v -1312 234 0
v -1248 10 0
v -1248 42 0
v -1280 42 0
v -1280 10 0
v -1152 42 0
v -1152 74 0
v -1184 74 0
v -1184 42 0
v -832 170 0
v -832 202 0
v -864 202 0
v -864 170 0
v -960 138 0
v -960 170 0
v -992 170 0
v -992 138 0
v -384 714 0
v -384 746 0
v -416 746 0
v -416 714 0
v -960 650 0
v -960 682 0
v -992 682 0
v -992 650 0
v -992 170 0
v -992 202 0
v -1024 202 0
v -1024 170 0
v -448 362 0
v -448 394 0
v -480 394 0
v -480 362 0
v -512 362 0
v -512 394 0
v -544 394 0
v -544 362 0
v -608 362 0
v -608 394 0
v -640 394 0
v -640 362 0
v -672 426 0
v -672 458 0
v -704 458 0
v -704 426 0
v -1376 426 0
v -1376 458 0
v -1399 458 0
v -1399 426 0
vt 0.0009765625 0.00139665604
vt 0.0009765625 0.448324025
vt 0.469726562 0.448324025
vt 0.469726562 0.00139665604
vt 0.471679688 0.00139665604
vt 0.471679688 0.40363127
vt 0.815429688 0.40363127
vt 0.815429688 0.00139665604
vt 0.471679688 0.406424582
vt 0.471679688 0.808659196
vt 0.815429688 0.808659196
vt 0.815429688 0.406424582
vt 0.817382812 0.00139665604
vt 0.817382812 0.448324025
vt 0.973632812 0.448324025
vt 0.973632812 0.00139665604
vt 0.0009765625 0.451117337
vt 0.0009765625 0.719273746
vt 0.188476562 0.719273746
vt 0.188476562 0.451117337
vt 0.190429688 0.451117337
vt 0.190429688 0.719273746
vt 0.315429688 0.719273746
vt 0.315429688 0.451117337
vt 0.317382812 0.451117337
vt 0.317382812 0.763966501
vt 0.411132812 0.763966501
vt 0.411132812 0.451117337
vt 0.817382812 0.451117337
vt 0.817382812 0.629888296
vt 0.942382812 0.629888296
vt 0.942382812 0.451117337
vt 0.817382812 0.632681608
vt 0.817382812 0.766759753
vt 0.942382812 0.766759753
vt 0.942382812 0.632681608
vt 0.0009765625 0.722066998
vt 0.0009765625 0.900838017
vt 0.0634765625 0.900838017
vt 0.0634765625 0.722066998
vt 0.0654296875 0.722066998
vt 0.0654296875 0.900838017
vt 0.127929688 0.900838017
vt 0.127929688 0.722066998
vt 0.129882812 0.722066998
vt 0.129882812 0.900838017
vt 0.192382812 0.900838017
vt 0.192382812 0.722066998
vt 0.317382812 0.766759753
vt 0.317382812 0.856145263
vt 0.442382812 0.856145263
vt 0.442382812 0.766759753
vt 0.194335938 0.722066998
vt 0.194335938 0.856145263
vt 0.256835938 0.856145263
vt 0.256835938 0.722066998
vt 0.817382812 0.769553065
vt 0.817382812 0.874301672
vt 0.879882812 0.874301672
vt 0.879882812 0.769553065
vt 0.471679688 0.811452508
vt 0.471679688 0.856145263
vt 0.659179688 0.856145263
vt 0.659179688 0.811452508
vt 0.881835938 0.769553065
vt 0.881835938 0.90363127
vt 0.944335938 0.90363127
vt 0.944335938 0.769553065
vt 0.194335938 0.858938575
vt 0.194335938 0.90363127
vt 0.350585938 0.90363127
vt 0.350585938 0.858938575
vt 0.661132812 0.811452508
vt 0.661132812 0.900838017
vt 0.723632812 0.900838017
vt 0.723632812 0.811452508
vt 0.946289062 0.451117337
vt 0.946289062 0.629888296
vt 0.977539062 0.629888296
vt 0.977539062 0.451117337
vt 0.946289062 0.632681608
vt 0.946289062 0.811452508
vt 0.977539062 0.811452508
vt 0.977539062 0.632681608
vt 0.725585938 0.811452508
vt 0.725585938 0.900838017
vt 0.788085938 0.900838017
vt 0.788085938 0.811452508
vt 0.946289062 0.81424582
vt 0.946289062 0.948324025
vt 0.977539062 0.948324025
vt 0.977539062 0.81424582
vt 0.352539062 0.858938575
vt 0.352539062 0.993016779
vt 0.383789062 0.993016779
vt 0.383789062 0.858938575
vt 0.385742188 0.858938575
vt 0.385742188 0.993016779
vt 0.416992188 0.993016779
vt 0.416992188 0.858938575
vt 0.418945312 0.858938575
vt 0.418945312 0.90363127
vt 0.512695312 0.90363127
vt 0.512695312 0.858938575
vt 0.514648438 0.858938575
vt 0.514648438 0.90363127
vt 0.577148438 0.90363127
vt 0.577148438 0.858938575
vt 0.579101562 0.858938575
vt 0.579101562 0.948324025
vt 0.610351562 0.948324025
vt 0.610351562 0.858938575
vt 0.817382812 0.877094984
vt 0.817382812 0.921787739
vt 0.879882812 0.921787739
vt 0.879882812 0.877094984
vt 0.0009765625 0.90363127
vt 0.0009765625 0.948324025
vt 0.0634765625 0.948324025
vt 0.0634765625 0.90363127
vt 0.612304688 0.858938575
vt 0.612304688 0.948324025
vt 0.643554688 0.948324025
vt 0.643554688 0.858938575
vt 0.0654296875 0.90363127
vt 0.0654296875 0.993016779
vt 0.0966796875 0.993016779
vt 0.0966796875 0.90363127
vt 0.0986328125 0.90363127
vt 0.0986328125 0.993016779
vt 0.129882812 0.993016779
vt 0.129882812 0.90363127
vt 0.661132812 0.90363127
vt 0.661132812 0.948324025
vt 0.723632812 0.948324025
vt 0.723632812 0.90363127
vt 0.131835938 0.90363127
vt 0.131835938 0.963687181
vt 0.163085938 0.963687181
vt 0.163085938 0.90363127
vt 0.725585938 0.90363127
vt 0.725585938 0.993016779
vt 0.756835938 0.993016779
vt 0.756835938 0.90363127
vt 0.194335938 0.906424582
vt 0.194335938 0.951117337
vt 0.256835938 0.951117337
vt 0.256835938 0.906424582
vt 0.258789062 0.906424582
vt 0.258789062 0.951117337
vt 0.321289062 0.951117337
vt 0.321289062 0.906424582
vt 0.758789062 0.90363127
vt 0.758789062 0.993016779
vt 0.790039062 0.993016779
vt 0.790039062 0.90363127
vt 0.418945312 0.906424582
vt 0.418945312 0.951117337
vt 0.481445312 0.951117337
vt 0.481445312 0.906424582
vt 0.483398438 0.906424582
vt 0.483398438 0.951117337
vt 0.514648438 0.951117337
vt 0.514648438 0.906424582
vt 0.516601562 0.906424582
vt 0.516601562 0.951117337
vt 0.547851562 0.951117337
vt 0.547851562 0.906424582
vt 0.881835938 0.906424582
vt 0.881835938 0.951117337
vt 0.913085938 0.951117337
vt 0.913085938 0.906424582
vt 0.817382812 0.924580991
vt 0.817382812 0.969273746
vt 0.848632812 0.969273746
vt 0.848632812 0.924580991
vt 0.0009765625 0.951117337
vt 0.0009765625 0.995810032
vt 0.0322265625 0.995810032
vt 0.0322265625 0.951117337
vt 0.579101562 0.951117337
vt 0.579101562 0.995810032
vt 0.610351562 0.995810032
vt 0.610351562 0.951117337
vt 0.612304688 0.951117337
vt 0.612304688 0.995810032
vt 0.643554688 0.995810032
vt 0.643554688 0.951117337
vt 0.661132812 0.951117337
vt 0.661132812 0.995810032
vt 0.692382812 0.995810032
vt 0.692382812 0.951117337
vt 0.946289062 0.951117337
vt 0.946289062 0.995810032
vt 0.977539062 0.995810032
vt 0.977539062 0.951117337
vt 0.194335938 0.953910589
vt 0.194335938 0.998603344
vt 0.225585938 0.998603344
vt 0.225585938 0.953910589
vt 0.227539062 0.953910589
vt 0.227539062 0.998603344
vt 0.258789062 0.998603344
vt 0.258789062 0.953910589
vt 0.260742188 0.953910589
vt 0.260742188 0.998603344
vt 0.291992188 0.998603344
vt 0.291992188 0.953910589
vt 0.293945312 0.953910589
vt 0.293945312 0.998603344
vt 0.325195312 0.998603344
vt 0.325195312 0.953910589
vt 0.418945312 0.953910589
vt 0.418945312 0.998603344
vt 0.450195312 0.998603344
vt 0.450195312 0.953910589
vt 0.452148438 0.953910589
vt 0.452148438 0.998603344
vt 0.483398438 0.998603344
vt 0.483398438 0.953910589
vt 0.791992188 0.811452508
vt 0.791992188 0.856145263
vt 0.815429688 0.856145263
vt 0.815429688 0.811452508
g lituoliao_3f2-mesh_0
f 3/3/3 2/2/2 1/1/1
f 1/1/1 4/4/4 3/3/3
f 7/7/7 6/6/6 5/5/5
f 5/5/5 8/8/8 7/7/7
f 11/11/11 10/10/10 9/9/9
f 9/9/9 12/12/12 11/11/11
f 15/15/15 14/14/14 13/13/13
f 13/13/13 16/16/16 15/15/15
f 19/19/19 18/18/18 17/17/17
f 17/17/17 20/20/20 19/19/19
f 23/23/23 22/22/22 21/21/21
f 21/21/21 24/24/24 23/23/23
f 27/27/27 26/26/26 25/25/25
f 25/25/25 28/28/28 27/27/27
f 31/31/31 30/30/30 29/29/29
f 29/29/29 32/32/32 31/31/31
f 35/35/35 34/34/34 33/33/33
f 33/33/33 36/36/36 35/35/35
f 39/39/39 38/38/38 37/37/37
f 37/37/37 40/40/40 39/39/39
f 43/43/43 42/42/42 41/41/41
f 41/41/41 44/44/44 43/43/43
f 47/47/47 46/46/46 45/45/45
f 45/45/45 48/48/48 47/47/47
f 51/51/51 50/50/50 49/49/49
f 49/49/49 52/52/52 51/51/51
f 55/55/55 54/54/54 53/53/53
f 53/53/53 56/56/56 55/55/55
f 59/59/59 58/58/58 57/57/57
f 57/57/57 60/60/60 59/59/59
f 63/63/63 62/62/62 61/61/61
f 61/61/61 64/64/64 63/63/63
f 67/67/67 66/66/66 65/65/65
f 65/65/65 68/68/68 67/67/67
f 71/71/71 70/70/70 69/69/69
f 69/69/69 72/72/72 71/71/71
f 75/75/75 74/74/74 73/73/73
f 73/73/73 76/76/76 75/75/75
f 79/79/79 78/78/78 77/77/77
f 77/77/77 80/80/80 79/79/79
f 83/83/83 82/82/82 81/81/81
f 81/81/81 84/84/84 83/83/83
f 87/87/87 86/86/86 85/85/85
f 85/85/85 88/88/88 87/87/87
f 91/91/91 90/90/90 89/89/89
f 89/89/89 92/92/92 91/91/91
f 95/95/95 94/94/94 93/93/93
f 93/93/93 96/96/96 95/95/95
f 99/99/99 98/98/98 97/97/97
f 97/97/97 100/100/100 99/99/99
f 103/103/103 102/102/102 101/101/101
f 101/101/101 104/104/104 103/103/103
f 107/107/107 106/106/106 105/105/105
f 105/105/105 108/108/108 107/107/107
f 111/111/111 110/110/110 109/109/109
f 109/109/109 112/112/112 111/111/111
f 115/115/115 114/114/114 113/113/113
f 113/113/113 116/116/116 115/115/115
f 119/119/119 118/118/118 117/117/117
f 117/117/117 120/120/120 119/119/119
f 123/123/123 122/122/122 121/121/121
f 121/121/121 124/124/124 123/123/123
f 127/127/127 126/126/126 125/125/125
f 125/125/125 128/128/128 127/127/127
f 131/131/131 130/130/130 129/129/129
f 129/129/129 132/132/132 131/131/131
f 135/135/135 134/134/134 133/133/133
f 133/133/133 136/136/136 135/135/135
f 139/139/139 138/138/138 137/137/137
f 137/137/137 140/140/140 139/139/139
f 143/143/143 142/142/142 141/141/141
f 141/141/141 144/144/144 143/143/143
f 147/147/147 146/146/146 145/145/145
f 145/145/145 148/148/148 147/147/147
f 151/151/151 150/150/150 149/149/149
f 149/149/149 152/152/152 151/151/151
f 155/155/155 154/154/154 153/153/153
f 153/153/153 156/156/156 155/155/155
f 159/159/159 158/158/158 157/157/157
f 157/157/157 160/160/160 159/159/159
f 163/163/163 162/162/162 161/161/161
f 161/161/161 164/164/164 163/163/163
f 167/167/167 166/166/166 165/165/165
f 165/165/165 168/168/168 167/167/167
f 171/171/171 170/170/170 169/169/169
f 169/169/169 172/172/172 171/171/171
f 175/175/175 174/174/174 173/173/173
f 173/173/173 176/176/176 175/175/175
f 179/179/179 178/178/178 177/177/177
f 177/177/177 180/180/180 179/179/179
f 183/183/183 182/182/182 181/181/181
f 181/181/181 184/184/184 183/183/183
f 187/187/187 186/186/186 185/185/185
f 185/185/185 188/188/188 187/187/187
f 191/191/191 190/190/190 189/189/189
f 189/189/189 192/192/192 191/191/191
f 195/195/195 194/194/194 193/193/193
f 193/193/193 196/196/196 195/195/195
f 199/199/199 198/198/198 197/197/197
f 197/197/197 200/200/200 199/199/199
f 203/203/203 202/202/202 201/201/201
f 201/201/201 204/204/204 203/203/203
f 207/207/207 206/206/206 205/205/205
f 205/205/205 208/208/208 207/207/207
f 211/211/211 210/210/210 209/209/209
f 209/209/209 212/212/212 211/211/211
f 215/215/215 214/214/214 213/213/213
f 213/213/213 216/216/216 215/215/215
f 219/219/219 218/218/218 217/217/217
f 217/217/217 220/220/220 219/219/219
f 223/223/223 222/222/222 221/221/221
f 221/221/221 224/224/224 223/223/223
