g lituoliao_3-mesh
v -160 372 0
v -160 1044 0
v -1056 1044 0
v -1056 372 0
v -1056 372 0
v -1056 1044 0
v -1920 1044 0
v -1920 372 0
v -416 1044 0
v -416 1140 0
v -1120 1140 0
v -1120 1044 0
v -1120 1044 0
v -1120 1140 0
v -1792 1140 0
v -1792 1044 0
v -704 1140 0
v -704 1396 0
v -928 1396 0
v -928 1140 0
v -64 628 0
v -64 948 0
v -160 948 0
v -160 628 0
v -64 340 0
v -64 628 0
v -160 628 0
v -160 340 0
v -928 244 0
v -928 372 0
v -1120 372 0
v -1120 244 0
v -1120 244 0
v -1120 372 0
v -1280 372 0
v -1280 244 0
v -1920 500 0
v -1920 660 0
v -2016 660 0
v -2016 500 0
v -1792 212 0
v -1792 372 0
v -1888 372 0
v -1888 212 0
v -576 180 0
v -576 308 0
v -672 308 0
v -672 180 0
v -1920 820 0
v -1920 948 0
v -2016 948 0
v -2016 820 0
v -1792 84 0
v -1792 212 0
v -1888 212 0
v -1888 84 0
v -1920 692 0
v -1920 820 0
v -2016 820 0
v -2016 692 0
v -960 1140 0
v -960 1204 0
v -1120 1204 0
v -1120 1140 0
v -1120 1140 0
v -1120 1204 0
v -1280 1204 0
v -1280 1140 0
v -1216 1204 0
v -1216 1300 0
v -1312 1300 0
v -1312 1204 0
v -1664 20 0
v -1664 148 0
v -1728 148 0
v -1728 20 0
v -992 180 0
v -992 244 0
v -1120 244 0
v -1120 180 0
v -64 212 0
v -64 340 0
v -128 340 0
v -128 212 0
v -32 404 0
v -32 628 0
v -64 628 0
v -64 404 0
v -1952 20 0
v -1952 116 0
v -2016 116 0
v -2016 20 0
v -1888 212 0
v -1888 308 0
v -1952 308 0
v -1952 212 0
v -640 1140 0
v -640 1236 0
v -704 1236 0
v -704 1140 0
v -1728 84 0
v -1728 180 0
v -1792 180 0
v -1792 84 0
v -320 1044 0
v -320 1108 0
v -416 1108 0
v -416 1044 0
v -1888 84 0
v -1888 180 0
v -1952 180 0
v -1952 84 0
v -0 724 0
v -0 820 0
v -64 820 0
v -64 724 0
v -0 820 0
v -0 916 0
v -64 916 0
v -64 820 0
v -32 212 0
v -32 404 0
v -64 404 0
v -64 212 0
v -1280 308 0
v -1280 372 0
v -1376 372 0
v -1376 308 0
v -1824 0 0
v -1824 84 0
v -1888 84 0
v -1888 0 0
v -640 340 0
v -640 372 0
v -800 372 0
v -800 340 0
v -1792 1044 0
v -1792 1108 0
v -1856 1108 0
v -1856 1044 0
v -1376 308 0
v -1376 372 0
v -1440 372 0
v -1440 308 0
v -800 340 0
v -800 372 0
v -928 372 0
v -928 340 0
v -736 1396 0
v -736 1428 0
v -832 1428 0
v -832 1396 0
v -256 1044 0
v -256 1076 0
v -320 1076 0
v -320 1044 0
v -1920 948 0
v -1920 980 0
v -1984 980 0
v -1984 948 0
v -2016 756 0
v -2016 820 0
v -2047 820 0
v -2047 756 0
v -1728 1140 0
v -1728 1172 0
v -1792 1172 0
v -1792 1140 0
v -672 1236 0
v -672 1300 0
v -704 1300 0
v -704 1236 0
v -608 1140 0
v -608 1204 0
v -640 1204 0
v -640 1140 0
v -1376 1140 0
v -1376 1172 0
v -1440 1172 0
v -1440 1140 0
v -608 116 0
v -608 180 0
v -640 180 0
v -640 116 0
v -1056 148 0
v -1056 180 0
v -1120 180 0
v -1120 148 0
v -1888 0 0
v -1888 52 0
v -1920 52 0
v -1920 0 0
v -1760 180 0
v -1760 244 0
v -1792 244 0
v -1792 180 0
v -0 436 0
v -0 500 0
v -32 500 0
v -32 436 0
v -1888 308 0
v -1888 372 0
v -1920 372 0
v -1920 308 0
v -384 308 0
v -384 340 0
v -448 340 0
v -448 308 0
v -1152 212 0
v -1152 244 0
v -1216 244 0
v -1216 212 0
v -1216 212 0
v -1216 244 0
v -1280 244 0
v -1280 212 0
v -2016 564 0
v -2016 628 0
v -2047 628 0
v -2047 564 0
v -832 1396 0
v -832 1428 0
v -896 1428 0
v -896 1396 0
v -608 308 0
v -608 340 0
v -672 340 0
v -672 308 0
v -672 308 0
v -672 340 0
v -736 340 0
v -736 308 0
v -672 244 0
v -672 308 0
v -704 308 0
v -704 244 0
v -544 212 0
v -544 276 0
v -576 276 0
v -576 212 0
v -1120 1204 0
v -1120 1236 0
v -1184 1236 0
v -1184 1204 0
v -1920 436 0
v -1920 500 0
v -1952 500 0
v -1952 436 0
v -160 340 0
v -160 372 0
v -192 372 0
v -192 340 0
v -32 692 0
v -32 724 0
v -64 724 0
v -64 692 0
v -1440 340 0
v -1440 372 0
v -1472 372 0
v -1472 340 0
v -896 308 0
v -896 340 0
v -928 340 0
v -928 308 0
v -1920 660 0
v -1920 692 0
v -1952 692 0
v -1952 660 0
v -1952 116 0
v -1952 148 0
v -1984 148 0
v -1984 116 0
v -512 84 0
v -512 116 0
v -544 116 0
v -544 84 0
v -960 212 0
v -960 244 0
v -992 244 0
v -992 212 0
v -1920 52 0
v -1920 84 0
v -1952 84 0
v -1952 52 0
v -704 276 0
v -704 308 0
v -736 308 0
v -736 276 0
v -128 948 0
v -128 980 0
v -160 980 0
v -160 948 0
v -2016 532 0
v -2016 564 0
v -2047 564 0
v -2047 532 0
v -1184 1204 0
v -1184 1236 0
v -1216 1236 0
v -1216 1204 0
v -1920 404 0
v -1920 436 0
v -1952 436 0
v -1952 404 0
v -544 180 0
v -544 212 0
v -576 212 0
v -576 180 0
v -672 212 0
v -672 244 0
v -704 244 0
v -704 212 0
v -1504 1140 0
v -1504 1172 0
v -1536 1172 0
v -1536 1140 0
v -1856 1044 0
v -1856 1076 0
v -1888 1076 0
v -1888 1044 0
v -1280 1140 0
v -1280 1172 0
v -1312 1172 0
v -1312 1140 0
v -1248 1300 0
v -1248 1332 0
v -1280 1332 0
v -1280 1300 0
v -928 1140 0
v -928 1172 0
v -960 1172 0
v -960 1140 0
vt 0.00048828125 0.00103521347
vt 0.00048828125 0.696687341
vt 0.437988281 0.696687341
vt 0.437988281 0.00103521347
vt 0.438964844 0.00103521347
vt 0.438964844 0.696687341
vt 0.860839844 0.696687341
vt 0.860839844 0.00103521347
vt 0.00048828125 0.698757768
vt 0.00048828125 0.798136652
vt 0.344238281 0.798136652
vt 0.344238281 0.698757768
vt 0.345214844 0.698757768
vt 0.345214844 0.798136652
vt 0.673339844 0.798136652
vt 0.673339844 0.698757768
vt 0.861816406 0.00103521347
vt 0.861816406 0.26604557
vt 0.971191406 0.26604557
vt 0.971191406 0.00103521347
vt 0.861816406 0.268115938
vt 0.861816406 0.599378884
vt 0.908691406 0.599378884
vt 0.908691406 0.268115938
vt 0.909667969 0.268115938
vt 0.909667969 0.566252589
vt 0.956542969 0.566252589
vt 0.956542969 0.268115938
vt 0.861816406 0.601449251
vt 0.861816406 0.73395443
vt 0.955566406 0.73395443
vt 0.955566406 0.601449251
vt 0.674316406 0.698757768
vt 0.674316406 0.831262946
vt 0.752441406 0.831262946
vt 0.752441406 0.698757768
vt 0.753417969 0.698757768
vt 0.753417969 0.864389241
vt 0.800292969 0.864389241
vt 0.800292969 0.698757768
vt 0.801269531 0.698757768
vt 0.801269531 0.864389241
vt 0.848144531 0.864389241
vt 0.848144531 0.698757768
vt 0.861816406 0.736024857
vt 0.861816406 0.868530035
vt 0.908691406 0.868530035
vt 0.908691406 0.736024857
vt 0.909667969 0.736024857
vt 0.909667969 0.868530035
vt 0.956542969 0.868530035
vt 0.956542969 0.736024857
vt 0.00048828125 0.800207019
vt 0.00048828125 0.932712197
vt 0.0473632812 0.932712197
vt 0.0473632812 0.800207019
vt 0.0483398438 0.800207019
vt 0.0483398438 0.932712197
vt 0.0952148438 0.932712197
vt 0.0952148438 0.800207019
vt 0.0961914062 0.800207019
vt 0.0961914062 0.866459608
vt 0.174316406 0.866459608
vt 0.174316406 0.800207019
vt 0.175292969 0.800207019
vt 0.175292969 0.866459608
vt 0.253417969 0.866459608
vt 0.253417969 0.800207019
vt 0.254394531 0.800207019
vt 0.254394531 0.899585903
vt 0.301269531 0.899585903
vt 0.301269531 0.800207019
vt 0.957519531 0.268115938
vt 0.957519531 0.400621116
vt 0.988769531 0.400621116
vt 0.988769531 0.268115938
vt 0.302246094 0.800207019
vt 0.302246094 0.866459608
vt 0.364746094 0.866459608
vt 0.364746094 0.800207019
vt 0.957519531 0.402691483
vt 0.957519531 0.535196662
vt 0.988769531 0.535196662
vt 0.988769531 0.402691483
vt 0.957519531 0.537267089
vt 0.957519531 0.769151151
vt 0.973144531 0.769151151
vt 0.973144531 0.537267089
vt 0.957519531 0.771221519
vt 0.957519531 0.870600402
vt 0.988769531 0.870600402
vt 0.988769531 0.771221519
vt 0.365722656 0.800207019
vt 0.365722656 0.899585903
vt 0.396972656 0.899585903
vt 0.396972656 0.800207019
vt 0.397949219 0.800207019
vt 0.397949219 0.899585903
vt 0.429199219 0.899585903
vt 0.429199219 0.800207019
vt 0.430175781 0.800207019
vt 0.430175781 0.899585903
vt 0.461425781 0.899585903
vt 0.461425781 0.800207019
vt 0.462402344 0.800207019
vt 0.462402344 0.866459608
vt 0.509277344 0.866459608
vt 0.509277344 0.800207019
vt 0.510253906 0.800207019
vt 0.510253906 0.899585903
vt 0.541503906 0.899585903
vt 0.541503906 0.800207019
vt 0.542480469 0.800207019
vt 0.542480469 0.899585903
vt 0.573730469 0.899585903
vt 0.573730469 0.800207019
vt 0.574707031 0.800207019
vt 0.574707031 0.899585903
vt 0.605957031 0.899585903
vt 0.605957031 0.800207019
vt 0.606933594 0.800207019
vt 0.606933594 0.998964787
vt 0.622558594 0.998964787
vt 0.622558594 0.800207019
vt 0.623535156 0.800207019
vt 0.623535156 0.866459608
vt 0.670410156 0.866459608
vt 0.670410156 0.800207019
vt 0.674316406 0.833333313
vt 0.674316406 0.921325028
vt 0.705566406 0.921325028
vt 0.705566406 0.833333313
vt 0.753417969 0.866459608
vt 0.753417969 0.899585903
vt 0.831542969 0.899585903
vt 0.831542969 0.866459608
vt 0.706542969 0.833333313
vt 0.706542969 0.899585903
vt 0.737792969 0.899585903
vt 0.737792969 0.833333313
vt 0.0961914062 0.868530035
vt 0.0961914062 0.934782624
vt 0.127441406 0.934782624
vt 0.127441406 0.868530035
vt 0.128417969 0.868530035
vt 0.128417969 0.90165633
vt 0.190917969 0.90165633
vt 0.190917969 0.868530035
vt 0.191894531 0.868530035
vt 0.191894531 0.90165633
vt 0.238769531 0.90165633
vt 0.238769531 0.868530035
vt 0.302246094 0.868530035
vt 0.302246094 0.90165633
vt 0.333496094 0.90165633
vt 0.333496094 0.868530035
vt 0.462402344 0.868530035
vt 0.462402344 0.90165633
vt 0.493652344 0.90165633
vt 0.493652344 0.868530035
vt 0.832519531 0.866459608
vt 0.832519531 0.932712197
vt 0.848144531 0.932712197
vt 0.848144531 0.866459608
vt 0.623535156 0.868530035
vt 0.623535156 0.90165633
vt 0.654785156 0.90165633
vt 0.654785156 0.868530035
vt 0.334472656 0.868530035
vt 0.334472656 0.934782624
vt 0.350097656 0.934782624
vt 0.350097656 0.868530035
vt 0.655761719 0.868530035
vt 0.655761719 0.934782624
vt 0.671386719 0.934782624
vt 0.671386719 0.868530035
vt 0.861816406 0.870600402
vt 0.861816406 0.903726697
vt 0.893066406 0.903726697
vt 0.893066406 0.870600402
vt 0.894042969 0.870600402
vt 0.894042969 0.936852992
vt 0.909667969 0.936852992
vt 0.909667969 0.870600402
vt 0.910644531 0.870600402
vt 0.910644531 0.903726697
vt 0.941894531 0.903726697
vt 0.941894531 0.870600402
vt 0.957519531 0.872670829
vt 0.957519531 0.927536249
vt 0.973144531 0.927536249
vt 0.973144531 0.872670829
vt 0.974121094 0.872670829
vt 0.974121094 0.938923419
vt 0.989746094 0.938923419
vt 0.989746094 0.872670829
vt 0.254394531 0.90165633
vt 0.254394531 0.967908919
vt 0.270019531 0.967908919
vt 0.270019531 0.90165633
vt 0.270996094 0.90165633
vt 0.270996094 0.967908919
vt 0.286621094 0.967908919
vt 0.286621094 0.90165633
vt 0.365722656 0.90165633
vt 0.365722656 0.934782624
vt 0.396972656 0.934782624
vt 0.396972656 0.90165633
vt 0.397949219 0.90165633
vt 0.397949219 0.934782624
vt 0.429199219 0.934782624
vt 0.429199219 0.90165633
vt 0.430175781 0.90165633
vt 0.430175781 0.934782624
vt 0.461425781 0.934782624
vt 0.461425781 0.90165633
vt 0.510253906 0.90165633
vt 0.510253906 0.967908919
vt 0.525878906 0.967908919
vt 0.525878906 0.90165633
vt 0.526855469 0.90165633
vt 0.526855469 0.934782624
vt 0.558105469 0.934782624
vt 0.558105469 0.90165633
vt 0.559082031 0.90165633
vt 0.559082031 0.934782624
vt 0.590332031 0.934782624
vt 0.590332031 0.90165633
vt 0.706542969 0.90165633
vt 0.706542969 0.934782624
vt 0.737792969 0.934782624
vt 0.737792969 0.90165633
vt 0.753417969 0.90165633
vt 0.753417969 0.967908919
vt 0.769042969 0.967908919
vt 0.769042969 0.90165633
vt 0.770019531 0.90165633
vt 0.770019531 0.967908919
vt 0.785644531 0.967908919
vt 0.785644531 0.90165633
vt 0.786621094 0.90165633
vt 0.786621094 0.934782624
vt 0.817871094 0.934782624
vt 0.817871094 0.90165633
vt 0.128417969 0.903726697
vt 0.128417969 0.969979286
vt 0.144042969 0.969979286
vt 0.144042969 0.903726697
vt 0.145019531 0.903726697
vt 0.145019531 0.936852992
vt 0.160644531 0.936852992
vt 0.160644531 0.903726697
vt 0.161621094 0.903726697
vt 0.161621094 0.936852992
vt 0.177246094 0.936852992
vt 0.177246094 0.903726697
vt 0.178222656 0.903726697
vt 0.178222656 0.936852992
vt 0.193847656 0.936852992
vt 0.193847656 0.903726697
vt 0.194824219 0.903726697
vt 0.194824219 0.936852992
vt 0.210449219 0.936852992
vt 0.210449219 0.903726697
vt 0.211425781 0.903726697
vt 0.211425781 0.936852992
vt 0.227050781 0.936852992
vt 0.227050781 0.903726697
vt 0.228027344 0.903726697
vt 0.228027344 0.936852992
vt 0.243652344 0.936852992
vt 0.243652344 0.903726697
vt 0.302246094 0.903726697
vt 0.302246094 0.936852992
vt 0.317871094 0.936852992
vt 0.317871094 0.903726697
vt 0.462402344 0.903726697
vt 0.462402344 0.936852992
vt 0.478027344 0.936852992
vt 0.478027344 0.903726697
vt 0.479003906 0.903726697
vt 0.479003906 0.936852992
vt 0.494628906 0.936852992
vt 0.494628906 0.903726697
vt 0.623535156 0.903726697
vt 0.623535156 0.936852992
vt 0.639160156 0.936852992
vt 0.639160156 0.903726697
vt 0.861816406 0.905797124
vt 0.861816406 0.938923419
vt 0.877441406 0.938923419
vt 0.877441406 0.905797124
vt 0.910644531 0.905797124
vt 0.910644531 0.938923419
vt 0.926269531 0.938923419
vt 0.926269531 0.905797124
vt 0.927246094 0.905797124
vt 0.927246094 0.938923419
vt 0.942871094 0.938923419
vt 0.942871094 0.905797124
vt 0.674316406 0.923395455
vt 0.674316406 0.956521749
vt 0.689941406 0.956521749
vt 0.689941406 0.923395455
vt 0.957519531 0.929606616
vt 0.957519531 0.962732911
vt 0.973144531 0.962732911
vt 0.973144531 0.929606616
vt 0.00048828125 0.934782624
vt 0.00048828125 0.967908919
vt 0.0161132812 0.967908919
vt 0.0161132812 0.934782624
vt 0.0170898438 0.934782624
vt 0.0170898438 0.967908919
vt 0.0327148438 0.967908919
vt 0.0327148438 0.934782624
vt 0.0336914062 0.934782624
vt 0.0336914062 0.967908919
vt 0.0493164062 0.967908919
vt 0.0493164062 0.934782624
vt 0.0502929688 0.934782624
vt 0.0502929688 0.967908919
vt 0.0659179688 0.967908919
vt 0.0659179688 0.934782624
vt 0.0668945312 0.934782624
vt 0.0668945312 0.967908919
vt 0.0825195312 0.967908919
vt 0.0825195312 0.934782624
vt 0.832519531 0.934782624
vt 0.832519531 0.967908919
vt 0.848144531 0.967908919
vt 0.848144531 0.934782624
g lituoliao_3-mesh_0
f 3/3/3 2/2/2 1/1/1
f 1/1/1 4/4/4 3/3/3
f 7/7/7 6/6/6 5/5/5
f 5/5/5 8/8/8 7/7/7
f 11/11/11 10/10/10 9/9/9
f 9/9/9 12/12/12 11/11/11
f 15/15/15 14/14/14 13/13/13
f 13/13/13 16/16/16 15/15/15
f 19/19/19 18/18/18 17/17/17
f 17/17/17 20/20/20 19/19/19
f 23/23/23 22/22/22 21/21/21
f 21/21/21 24/24/24 23/23/23
f 27/27/27 26/26/26 25/25/25
f 25/25/25 28/28/28 27/27/27
f 31/31/31 30/30/30 29/29/29
f 29/29/29 32/32/32 31/31/31
f 35/35/35 34/34/34 33/33/33
f 33/33/33 36/36/36 35/35/35
f 39/39/39 38/38/38 37/37/37
f 37/37/37 40/40/40 39/39/39
f 43/43/43 42/42/42 41/41/41
f 41/41/41 44/44/44 43/43/43
f 47/47/47 46/46/46 45/45/45
f 45/45/45 48/48/48 47/47/47
f 51/51/51 50/50/50 49/49/49
f 49/49/49 52/52/52 51/51/51
f 55/55/55 54/54/54 53/53/53
f 53/53/53 56/56/56 55/55/55
f 59/59/59 58/58/58 57/57/57
f 57/57/57 60/60/60 59/59/59
f 63/63/63 62/62/62 61/61/61
f 61/61/61 64/64/64 63/63/63
f 67/67/67 66/66/66 65/65/65
f 65/65/65 68/68/68 67/67/67
f 71/71/71 70/70/70 69/69/69
f 69/69/69 72/72/72 71/71/71
f 75/75/75 74/74/74 73/73/73
f 73/73/73 76/76/76 75/75/75
f 79/79/79 78/78/78 77/77/77
f 77/77/77 80/80/80 79/79/79
f 83/83/83 82/82/82 81/81/81
f 81/81/81 84/84/84 83/83/83
f 87/87/87 86/86/86 85/85/85
f 85/85/85 88/88/88 87/87/87
f 91/91/91 90/90/90 89/89/89
f 89/89/89 92/92/92 91/91/91
f 95/95/95 94/94/94 93/93/93
f 93/93/93 96/96/96 95/95/95
f 99/99/99 98/98/98 97/97/97
f 97/97/97 100/100/100 99/99/99
f 103/103/103 102/102/102 101/101/101
f 101/101/101 104/104/104 103/103/103
f 107/107/107 106/106/106 105/105/105
f 105/105/105 108/108/108 107/107/107
f 111/111/111 110/110/110 109/109/109
f 109/109/109 112/112/112 111/111/111
f 115/115/115 114/114/114 113/113/113
f 113/113/113 116/116/116 115/115/115
f 119/119/119 118/118/118 117/117/117
f 117/117/117 120/120/120 119/119/119
f 123/123/123 122/122/122 121/121/121
f 121/121/121 124/124/124 123/123/123
f 127/127/127 126/126/126 125/125/125
f 125/125/125 128/128/128 127/127/127
f 131/131/131 130/130/130 129/129/129
f 129/129/129 132/132/132 131/131/131
f 135/135/135 134/134/134 133/133/133
f 133/133/133 136/136/136 135/135/135
f 139/139/139 138/138/138 137/137/137
f 137/137/137 140/140/140 139/139/139
f 143/143/143 142/142/142 141/141/141
f 141/141/141 144/144/144 143/143/143
f 147/147/147 146/146/146 145/145/145
f 145/145/145 148/148/148 147/147/147
f 151/151/151 150/150/150 149/149/149
f 149/149/149 152/152/152 151/151/151
f 155/155/155 154/154/154 153/153/153
f 153/153/153 156/156/156 155/155/155
f 159/159/159 158/158/158 157/157/157
f 157/157/157 160/160/160 159/159/159
f 163/163/163 162/162/162 161/161/161
f 161/161/161 164/164/164 163/163/163
f 167/167/167 166/166/166 165/165/165
f 165/165/165 168/168/168 167/167/167
f 171/171/171 170/170/170 169/169/169
f 169/169/169 172/172/172 171/171/171
f 175/175/175 174/174/174 173/173/173
f 173/173/173 176/176/176 175/175/175
f 179/179/179 178/178/178 177/177/177
f 177/177/177 180/180/180 179/179/179
f 183/183/183 182/182/182 181/181/181
f 181/181/181 184/184/184 183/183/183
f 187/187/187 186/186/186 185/185/185
f 185/185/185 188/188/188 187/187/187
f 191/191/191 190/190/190 189/189/189
f 189/189/189 192/192/192 191/191/191
f 195/195/195 194/194/194 193/193/193
f 193/193/193 196/196/196 195/195/195
f 199/199/199 198/198/198 197/197/197
f 197/197/197 200/200/200 199/199/199
f 203/203/203 202/202/202 201/201/201
f 201/201/201 204/204/204 203/203/203
f 207/207/207 206/206/206 205/205/205
f 205/205/205 208/208/208 207/207/207
f 211/211/211 210/210/210 209/209/209
f 209/209/209 212/212/212 211/211/211
f 215/215/215 214/214/214 213/213/213
f 213/213/213 216/216/216 215/215/215
f 219/219/219 218/218/218 217/217/217
f 217/217/217 220/220/220 219/219/219
f 223/223/223 222/222/222 221/221/221
f 221/221/221 224/224/224 223/223/223
f 227/227/227 226/226/226 225/225/225
f 225/225/225 228/228/228 227/227/227
f 231/231/231 230/230/230 229/229/229
f 229/229/229 232/232/232 231/231/231
f 235/235/235 234/234/234 233/233/233
f 233/233/233 236/236/236 235/235/235
f 239/239/239 238/238/238 237/237/237
f 237/237/237 240/240/240 239/239/239
f 243/243/243 242/242/242 241/241/241
f 241/241/241 244/244/244 243/243/243
f 247/247/247 246/246/246 245/245/245
f 245/245/245 248/248/248 247/247/247
f 251/251/251 250/250/250 249/249/249
f 249/249/249 252/252/252 251/251/251
f 255/255/255 254/254/254 253/253/253
f 253/253/253 256/256/256 255/255/255
f 259/259/259 258/258/258 257/257/257
f 257/257/257 260/260/260 259/259/259
f 263/263/263 262/262/262 261/261/261
f 261/261/261 264/264/264 263/263/263
f 267/267/267 266/266/266 265/265/265
f 265/265/265 268/268/268 267/267/267
f 271/271/271 270/270/270 269/269/269
f 269/269/269 272/272/272 271/271/271
f 275/275/275 274/274/274 273/273/273
f 273/273/273 276/276/276 275/275/275
f 279/279/279 278/278/278 277/277/277
f 277/277/277 280/280/280 279/279/279
f 283/283/283 282/282/282 281/281/281
f 281/281/281 284/284/284 283/283/283
f 287/287/287 286/286/286 285/285/285
f 285/285/285 288/288/288 287/287/287
f 291/291/291 290/290/290 289/289/289
f 289/289/289 292/292/292 291/291/291
f 295/295/295 294/294/294 293/293/293
f 293/293/293 296/296/296 295/295/295
f 299/299/299 298/298/298 297/297/297
f 297/297/297 300/300/300 299/299/299
f 303/303/303 302/302/302 301/301/301
f 301/301/301 304/304/304 303/303/303
f 307/307/307 306/306/306 305/305/305
f 305/305/305 308/308/308 307/307/307
f 311/311/311 310/310/310 309/309/309
f 309/309/309 312/312/312 311/311/311
f 315/315/315 314/314/314 313/313/313
f 313/313/313 316/316/316 315/315/315
f 319/319/319 318/318/318 317/317/317
f 317/317/317 320/320/320 319/319/319
f 323/323/323 322/322/322 321/321/321
f 321/321/321 324/324/324 323/323/323
f 327/327/327 326/326/326 325/325/325
f 325/325/325 328/328/328 327/327/327
f 331/331/331 330/330/330 329/329/329
f 329/329/329 332/332/332 331/331/331
