g huixing-mesh
v -160 479 0
v -160 831 0
v -608 831 0
v -608 479 0
v -192 831 0
v -192 991 0
v -480 991 0
v -480 831 0
v -288 255 0
v -288 479 0
v -448 479 0
v -448 255 0
v -480 0 0
v -480 127 0
v -608 127 0
v -608 0 0
v -448 319 0
v -448 479 0
v -544 479 0
v -544 319 0
v -32 479 0
v -32 639 0
v -128 639 0
v -128 479 0
v -608 543 0
v -608 703 0
v -704 703 0
v -704 543 0
v -384 127 0
v -384 255 0
v -480 255 0
v -480 127 0
v -96 639 0
v -96 799 0
v -160 799 0
v -160 639 0
v -96 799 0
v -96 959 0
v -160 959 0
v -160 799 0
v -0 799 0
v -0 927 0
v -64 927 0
v -64 799 0
v -0 703 0
v -0 799 0
v -64 799 0
v -64 703 0
v -288 991 0
v -288 1023 0
v -416 1023 0
v -416 991 0
v -160 991 0
v -160 1023 0
v -288 1023 0
v -288 991 0
v -704 447 0
v -704 543 0
v -736 543 0
v -736 447 0
v -704 543 0
v -704 639 0
v -736 639 0
v -736 543 0
v -544 831 0
v -544 863 0
v -608 863 0
v -608 831 0
v -608 703 0
v -608 767 0
v -640 767 0
v -640 703 0
v -32 415 0
v -32 479 0
v -64 479 0
v -64 415 0
v -448 63 0
v -448 127 0
v -480 127 0
v -480 63 0
v -224 447 0
v -224 479 0
v -288 479 0
v -288 447 0
v -480 127 0
v -480 191 0
v -512 191 0
v -512 127 0
v -608 31 0
v -608 95 0
v -640 95 0
v -640 31 0
v -544 415 0
v -544 479 0
v -576 479 0
v -576 415 0
v -352 191 0
v -352 255 0
v -384 255 0
v -384 191 0
v -64 895 0
v -64 959 0
v -96 959 0
v -96 895 0
v -64 671 0
v -64 735 0
v -96 735 0
v -96 671 0
v -736 479 0
v -736 543 0
v -759 543 0
v -759 479 0
v -736 415 0
v -736 479 0
v -759 479 0
v -759 415 0
v -480 895 0
v -480 959 0
v -512 959 0
v -512 895 0
v -128 543 0
v -128 607 0
v -160 607 0
v -160 543 0
v -480 831 0
v -480 895 0
v -512 895 0
v -512 831 0
v -736 607 0
v -736 639 0
v -759 639 0
v -759 607 0
v -0 575 0
v -0 607 0
v -32 607 0
v -32 575 0
v -32 639 0
v -32 671 0
v -64 671 0
v -64 639 0
v -256 415 0
v -256 447 0
v -288 447 0
v -288 415 0
v -416 95 0
v -416 127 0
v -448 127 0
v -448 95 0
v -672 511 0
v -672 543 0
v -704 543 0
v -704 511 0
v -576 447 0
v -576 479 0
v -608 479 0
v -608 447 0
v -448 31 0
v -448 63 0
v -480 63 0
v -480 31 0
v -64 639 0
v -64 671 0
v -96 671 0
v -96 639 0
v -32 383 0
v -32 415 0
v -64 415 0
v -64 383 0
v -64 863 0
v -64 895 0
v -96 895 0
v -96 863 0
v -640 703 0
v -640 735 0
v -672 735 0
v -672 703 0
v -128 959 0
v -128 991 0
v -160 991 0
v -160 959 0
v -128 511 0
v -128 543 0
v -160 543 0
v -160 511 0
vt 0.0009765625 0.00205761194
vt 0.0009765625 0.726337433
vt 0.438476562 0.726337433
vt 0.438476562 0.00205761194
vt 0.440429688 0.00205761194
vt 0.440429688 0.331275702
vt 0.721679688 0.331275702
vt 0.721679688 0.00205761194
vt 0.723632812 0.00205761194
vt 0.723632812 0.462962985
vt 0.879882812 0.462962985
vt 0.879882812 0.00205761194
vt 0.440429688 0.335390925
vt 0.440429688 0.598765433
vt 0.565429688 0.598765433
vt 0.565429688 0.335390925
vt 0.881835938 0.00205761194
vt 0.881835938 0.331275702
vt 0.975585938 0.331275702
vt 0.975585938 0.00205761194
vt 0.567382812 0.335390925
vt 0.567382812 0.664609075
vt 0.661132812 0.664609075
vt 0.661132812 0.335390925
vt 0.881835938 0.335390925
vt 0.881835938 0.664609075
vt 0.975585938 0.664609075
vt 0.975585938 0.335390925
vt 0.723632812 0.467078209
vt 0.723632812 0.730452657
vt 0.817382812 0.730452657
vt 0.817382812 0.467078209
vt 0.440429688 0.602880657
vt 0.440429688 0.932098746
vt 0.502929688 0.932098746
vt 0.502929688 0.602880657
vt 0.567382812 0.668724298
vt 0.567382812 0.997942388
vt 0.629882812 0.997942388
vt 0.629882812 0.668724298
vt 0.631835938 0.668724298
vt 0.631835938 0.932098746
vt 0.694335938 0.932098746
vt 0.694335938 0.668724298
vt 0.881835938 0.668724298
vt 0.881835938 0.866255164
vt 0.944335938 0.866255164
vt 0.944335938 0.668724298
vt 0.0009765625 0.730452657
vt 0.0009765625 0.796296299
vt 0.125976562 0.796296299
vt 0.125976562 0.730452657
vt 0.127929688 0.730452657
vt 0.127929688 0.796296299
vt 0.252929688 0.796296299
vt 0.252929688 0.730452657
vt 0.819335938 0.467078209
vt 0.819335938 0.664609075
vt 0.850585938 0.664609075
vt 0.850585938 0.467078209
vt 0.504882812 0.602880657
vt 0.504882812 0.800411522
vt 0.536132812 0.800411522
vt 0.536132812 0.602880657
vt 0.254882812 0.730452657
vt 0.254882812 0.796296299
vt 0.317382812 0.796296299
vt 0.317382812 0.730452657
vt 0.819335938 0.668724298
vt 0.819335938 0.800411522
vt 0.850585938 0.800411522
vt 0.850585938 0.668724298
vt 0.946289062 0.668724298
vt 0.946289062 0.800411522
vt 0.977539062 0.800411522
vt 0.977539062 0.668724298
vt 0.319335938 0.730452657
vt 0.319335938 0.86213994
vt 0.350585938 0.86213994
vt 0.350585938 0.730452657
vt 0.352539062 0.730452657
vt 0.352539062 0.796296299
vt 0.415039062 0.796296299
vt 0.415039062 0.730452657
vt 0.723632812 0.734567881
vt 0.723632812 0.866255164
vt 0.754882812 0.866255164
vt 0.754882812 0.734567881
vt 0.756835938 0.734567881
vt 0.756835938 0.866255164
vt 0.788085938 0.866255164
vt 0.788085938 0.734567881
vt 0.0009765625 0.800411522
vt 0.0009765625 0.932098746
vt 0.0322265625 0.932098746
vt 0.0322265625 0.800411522
vt 0.0341796875 0.800411522
vt 0.0341796875 0.932098746
vt 0.0654296875 0.932098746
vt 0.0654296875 0.800411522
vt 0.0673828125 0.800411522
vt 0.0673828125 0.932098746
vt 0.0986328125 0.932098746
vt 0.0986328125 0.800411522
vt 0.100585938 0.800411522
vt 0.100585938 0.932098746
vt 0.131835938 0.932098746
vt 0.131835938 0.800411522
vt 0.696289062 0.335390925
vt 0.696289062 0.467078209
vt 0.719726562 0.467078209
vt 0.719726562 0.335390925
vt 0.852539062 0.467078209
vt 0.852539062 0.598765433
vt 0.875976562 0.598765433
vt 0.875976562 0.467078209
vt 0.133789062 0.800411522
vt 0.133789062 0.932098746
vt 0.165039062 0.932098746
vt 0.165039062 0.800411522
vt 0.166992188 0.800411522
vt 0.166992188 0.932098746
vt 0.198242188 0.932098746
vt 0.198242188 0.800411522
vt 0.200195312 0.800411522
vt 0.200195312 0.932098746
vt 0.231445312 0.932098746
vt 0.231445312 0.800411522
vt 0.696289062 0.471193433
vt 0.696289062 0.537037015
vt 0.719726562 0.537037015
vt 0.719726562 0.471193433
vt 0.233398438 0.800411522
vt 0.233398438 0.866255164
vt 0.264648438 0.866255164
vt 0.264648438 0.800411522
vt 0.266601562 0.800411522
vt 0.266601562 0.866255164
vt 0.297851562 0.866255164
vt 0.297851562 0.800411522
vt 0.352539062 0.800411522
vt 0.352539062 0.866255164
vt 0.383789062 0.866255164
vt 0.383789062 0.800411522
vt 0.385742188 0.800411522
vt 0.385742188 0.866255164
vt 0.416992188 0.866255164
vt 0.416992188 0.800411522
vt 0.504882812 0.804526746
vt 0.504882812 0.870370388
vt 0.536132812 0.870370388
vt 0.536132812 0.804526746
vt 0.819335938 0.804526746
vt 0.819335938 0.870370388
vt 0.850585938 0.870370388
vt 0.850585938 0.804526746
vt 0.946289062 0.804526746
vt 0.946289062 0.870370388
vt 0.977539062 0.870370388
vt 0.977539062 0.804526746
vt 0.319335938 0.866255164
vt 0.319335938 0.932098746
vt 0.350585938 0.932098746
vt 0.350585938 0.866255164
vt 0.233398438 0.870370388
vt 0.233398438 0.93621397
vt 0.264648438 0.93621397
vt 0.264648438 0.870370388
vt 0.266601562 0.870370388
vt 0.266601562 0.93621397
vt 0.297851562 0.93621397
vt 0.297851562 0.870370388
vt 0.352539062 0.870370388
vt 0.352539062 0.93621397
vt 0.383789062 0.93621397
vt 0.383789062 0.870370388
vt 0.385742188 0.870370388
vt 0.385742188 0.93621397
vt 0.416992188 0.93621397
vt 0.416992188 0.870370388
vt 0.723632812 0.870370388
vt 0.723632812 0.93621397
vt 0.754882812 0.93621397
vt 0.754882812 0.870370388
g huixing-mesh_0
f 3/3/3 2/2/2 1/1/1
f 1/1/1 4/4/4 3/3/3
f 7/7/7 6/6/6 5/5/5
f 5/5/5 8/8/8 7/7/7
f 11/11/11 10/10/10 9/9/9
f 9/9/9 12/12/12 11/11/11
f 15/15/15 14/14/14 13/13/13
f 13/13/13 16/16/16 15/15/15
f 19/19/19 18/18/18 17/17/17
f 17/17/17 20/20/20 19/19/19
f 23/23/23 22/22/22 21/21/21
f 21/21/21 24/24/24 23/23/23
f 27/27/27 26/26/26 25/25/25
f 25/25/25 28/28/28 27/27/27
f 31/31/31 30/30/30 29/29/29
f 29/29/29 32/32/32 31/31/31
f 35/35/35 34/34/34 33/33/33
f 33/33/33 36/36/36 35/35/35
f 39/39/39 38/38/38 37/37/37
f 37/37/37 40/40/40 39/39/39
f 43/43/43 42/42/42 41/41/41
f 41/41/41 44/44/44 43/43/43
f 47/47/47 46/46/46 45/45/45
f 45/45/45 48/48/48 47/47/47
f 51/51/51 50/50/50 49/49/49
f 49/49/49 52/52/52 51/51/51
f 55/55/55 54/54/54 53/53/53
f 53/53/53 56/56/56 55/55/55
f 59/59/59 58/58/58 57/57/57
f 57/57/57 60/60/60 59/59/59
f 63/63/63 62/62/62 61/61/61
f 61/61/61 64/64/64 63/63/63
f 67/67/67 66/66/66 65/65/65
f 65/65/65 68/68/68 67/67/67
f 71/71/71 70/70/70 69/69/69
f 69/69/69 72/72/72 71/71/71
f 75/75/75 74/74/74 73/73/73
f 73/73/73 76/76/76 75/75/75
f 79/79/79 78/78/78 77/77/77
f 77/77/77 80/80/80 79/79/79
f 83/83/83 82/82/82 81/81/81
f 81/81/81 84/84/84 83/83/83
f 87/87/87 86/86/86 85/85/85
f 85/85/85 88/88/88 87/87/87
f 91/91/91 90/90/90 89/89/89
f 89/89/89 92/92/92 91/91/91
f 95/95/95 94/94/94 93/93/93
f 93/93/93 96/96/96 95/95/95
f 99/99/99 98/98/98 97/97/97
f 97/97/97 100/100/100 99/99/99
f 103/103/103 102/102/102 101/101/101
f 101/101/101 104/104/104 103/103/103
f 107/107/107 106/106/106 105/105/105
f 105/105/105 108/108/108 107/107/107
f 111/111/111 110/110/110 109/109/109
f 109/109/109 112/112/112 111/111/111
f 115/115/115 114/114/114 113/113/113
f 113/113/113 116/116/116 115/115/115
f 119/119/119 118/118/118 117/117/117
f 117/117/117 120/120/120 119/119/119
f 123/123/123 122/122/122 121/121/121
f 121/121/121 124/124/124 123/123/123
f 127/127/127 126/126/126 125/125/125
f 125/125/125 128/128/128 127/127/127
f 131/131/131 130/130/130 129/129/129
f 129/129/129 132/132/132 131/131/131
f 135/135/135 134/134/134 133/133/133
f 133/133/133 136/136/136 135/135/135
f 139/139/139 138/138/138 137/137/137
f 137/137/137 140/140/140 139/139/139
f 143/143/143 142/142/142 141/141/141
f 141/141/141 144/144/144 143/143/143
f 147/147/147 146/146/146 145/145/145
f 145/145/145 148/148/148 147/147/147
f 151/151/151 150/150/150 149/149/149
f 149/149/149 152/152/152 151/151/151
f 155/155/155 154/154/154 153/153/153
f 153/153/153 156/156/156 155/155/155
f 159/159/159 158/158/158 157/157/157
f 157/157/157 160/160/160 159/159/159
f 163/163/163 162/162/162 161/161/161
f 161/161/161 164/164/164 163/163/163
f 167/167/167 166/166/166 165/165/165
f 165/165/165 168/168/168 167/167/167
f 171/171/171 170/170/170 169/169/169
f 169/169/169 172/172/172 171/171/171
f 175/175/175 174/174/174 173/173/173
f 173/173/173 176/176/176 175/175/175
f 179/179/179 178/178/178 177/177/177
f 177/177/177 180/180/180 179/179/179
f 183/183/183 182/182/182 181/181/181
f 181/181/181 184/184/184 183/183/183
