g U557-mesh
v -256 211 0
v -256 659 0
v -608 659 0
v -608 211 0
v -672 371 0
v -672 627 0
v -864 627 0
v -864 371 0
v -224 659 0
v -224 819 0
v -416 819 0
v -416 659 0
v -416 115 0
v -416 211 0
v -640 211 0
v -640 115 0
v -768 275 0
v -768 371 0
v -992 371 0
v -992 275 0
v -128 275 0
v -128 435 0
v -256 435 0
v -256 275 0
v -128 435 0
v -128 595 0
v -256 595 0
v -256 435 0
v -640 19 0
v -640 115 0
v -832 115 0
v -832 19 0
v -640 115 0
v -640 211 0
v -832 211 0
v -832 115 0
v -608 211 0
v -608 371 0
v -704 371 0
v -704 211 0
v -864 371 0
v -864 467 0
v -928 467 0
v -928 371 0
v -0 371 0
v -0 435 0
v -96 435 0
v -96 371 0
v -960 179 0
v -960 275 0
v -1023 275 0
v -1023 179 0
v -608 499 0
v -608 595 0
v -672 595 0
v -672 499 0
v -416 659 0
v -416 723 0
v -512 723 0
v -512 659 0
v -704 211 0
v -704 275 0
v -768 275 0
v -768 211 0
v -608 435 0
v -608 499 0
v -672 499 0
v -672 435 0
v -608 595 0
v -608 659 0
v -640 659 0
v -640 595 0
v -736 627 0
v -736 691 0
v -768 691 0
v -768 627 0
v -576 691 0
v -576 755 0
v -608 755 0
v -608 691 0
v -416 723 0
v -416 787 0
v -448 787 0
v -448 723 0
v -192 691 0
v -192 755 0
v -224 755 0
v -224 691 0
v -896 531 0
v -896 595 0
v -928 595 0
v -928 531 0
v -832 243 0
v -832 275 0
v -896 275 0
v -896 243 0
v -608 51 0
v -608 115 0
v -640 115 0
v -640 51 0
v -992 275 0
v -992 339 0
v -1023 339 0
v -1023 275 0
v -928 371 0
v -928 435 0
v -960 435 0
v -960 371 0
v -32 339 0
v -32 371 0
v -96 371 0
v -96 339 0
v -832 115 0
v -832 179 0
v -864 179 0
v -864 115 0
v -832 51 0
v -832 115 0
v -864 115 0
v -864 51 0
v -288 179 0
v -288 211 0
v -352 211 0
v -352 179 0
v -96 531 0
v -96 595 0
v -128 595 0
v -128 531 0
v -96 467 0
v -96 531 0
v -128 531 0
v -128 467 0
v -736 0 0
v -736 19 0
v -800 19 0
v -800 0 0
v -352 179 0
v -352 211 0
v -416 211 0
v -416 179 0
v -160 243 0
v -160 275 0
v -224 275 0
v -224 243 0
v -800 0 0
v -800 19 0
v -864 19 0
v -864 0 0
v -96 339 0
v -96 403 0
v -128 403 0
v -128 339 0
v -928 243 0
v -928 275 0
v -960 275 0
v -960 243 0
v -736 339 0
v -736 371 0
v -768 371 0
v -768 339 0
v -608 371 0
v -608 403 0
v -640 403 0
v -640 371 0
v -640 403 0
v -640 435 0
v -672 435 0
v -672 403 0
v -960 147 0
v -960 179 0
v -992 179 0
v -992 147 0
v -544 83 0
v -544 115 0
v -576 115 0
v -576 83 0
v -768 211 0
v -768 243 0
v -800 243 0
v -800 211 0
v -384 147 0
v -384 179 0
v -416 179 0
v -416 147 0
v -0 755 0
v -0 787 0
v -32 787 0
v -32 755 0
v -512 659 0
v -512 691 0
v -544 691 0
v -544 659 0
v -96 307 0
v -96 339 0
v -128 339 0
v -128 307 0
v -224 243 0
v -224 275 0
v -256 275 0
v -256 243 0
v -160 595 0
v -160 627 0
v -192 627 0
v -192 595 0
v -864 467 0
v -864 499 0
v -896 499 0
v -896 467 0
v -224 627 0
v -224 659 0
v -256 659 0
v -256 627 0
v -704 627 0
v -704 659 0
v -736 659 0
v -736 627 0
vt 0.0009765625 0.00191569328
vt 0.0009765625 0.860153258
vt 0.344726562 0.860153258
vt 0.344726562 0.00191569328
vt 0.346679688 0.00191569328
vt 0.346679688 0.492337167
vt 0.534179688 0.492337167
vt 0.534179688 0.00191569328
vt 0.536132812 0.00191569328
vt 0.536132812 0.308429122
vt 0.723632812 0.308429122
vt 0.723632812 0.00191569328
vt 0.725585938 0.00191569328
vt 0.725585938 0.185823739
vt 0.944335938 0.185823739
vt 0.944335938 0.00191569328
vt 0.725585938 0.189655185
vt 0.725585938 0.37356323
vt 0.944335938 0.37356323
vt 0.944335938 0.189655185
vt 0.536132812 0.312260509
vt 0.536132812 0.618773937
vt 0.661132812 0.618773937
vt 0.661132812 0.312260509
vt 0.725585938 0.377394617
vt 0.725585938 0.683908045
vt 0.850585938 0.683908045
vt 0.850585938 0.377394617
vt 0.346679688 0.496168554
vt 0.346679688 0.680076599
vt 0.534179688 0.680076599
vt 0.534179688 0.496168554
vt 0.536132812 0.622605324
vt 0.536132812 0.806513429
vt 0.723632812 0.806513429
vt 0.723632812 0.622605324
vt 0.852539062 0.377394617
vt 0.852539062 0.683908045
vt 0.946289062 0.683908045
vt 0.946289062 0.377394617
vt 0.346679688 0.683908045
vt 0.346679688 0.867816091
vt 0.409179688 0.867816091
vt 0.409179688 0.683908045
vt 0.411132812 0.683908045
vt 0.411132812 0.806513429
vt 0.504882812 0.806513429
vt 0.504882812 0.683908045
vt 0.725585938 0.687739491
vt 0.725585938 0.871647477
vt 0.788085938 0.871647477
vt 0.788085938 0.687739491
vt 0.790039062 0.687739491
vt 0.790039062 0.871647477
vt 0.852539062 0.871647477
vt 0.852539062 0.687739491
vt 0.854492188 0.687739491
vt 0.854492188 0.810344815
vt 0.948242188 0.810344815
vt 0.948242188 0.687739491
vt 0.411132812 0.810344815
vt 0.411132812 0.932950199
vt 0.473632812 0.932950199
vt 0.473632812 0.810344815
vt 0.475585938 0.810344815
vt 0.475585938 0.932950199
vt 0.538085938 0.932950199
vt 0.538085938 0.810344815
vt 0.950195312 0.00191569328
vt 0.950195312 0.124521077
vt 0.981445312 0.124521077
vt 0.981445312 0.00191569328
vt 0.950195312 0.128352463
vt 0.950195312 0.250957847
vt 0.981445312 0.250957847
vt 0.981445312 0.128352463
vt 0.950195312 0.254789293
vt 0.950195312 0.377394617
vt 0.981445312 0.377394617
vt 0.981445312 0.254789293
vt 0.950195312 0.381226063
vt 0.950195312 0.503831387
vt 0.981445312 0.503831387
vt 0.981445312 0.381226063
vt 0.950195312 0.507662833
vt 0.950195312 0.630268216
vt 0.981445312 0.630268216
vt 0.981445312 0.507662833
vt 0.950195312 0.634099603
vt 0.950195312 0.756704986
vt 0.981445312 0.756704986
vt 0.981445312 0.634099603
vt 0.540039062 0.810344815
vt 0.540039062 0.871647477
vt 0.602539062 0.871647477
vt 0.602539062 0.810344815
vt 0.950195312 0.760536432
vt 0.950195312 0.883141756
vt 0.981445312 0.883141756
vt 0.981445312 0.760536432
vt 0.604492188 0.810344815
vt 0.604492188 0.932950199
vt 0.635742188 0.932950199
vt 0.635742188 0.810344815
vt 0.637695312 0.810344815
vt 0.637695312 0.932950199
vt 0.668945312 0.932950199
vt 0.668945312 0.810344815
vt 0.854492188 0.814176261
vt 0.854492188 0.875478923
vt 0.916992188 0.875478923
vt 0.916992188 0.814176261
vt 0.670898438 0.810344815
vt 0.670898438 0.932950199
vt 0.702148438 0.932950199
vt 0.702148438 0.810344815
vt 0.0009765625 0.863984704
vt 0.0009765625 0.986590028
vt 0.0322265625 0.986590028
vt 0.0322265625 0.863984704
vt 0.0341796875 0.863984704
vt 0.0341796875 0.925287366
vt 0.0966796875 0.925287366
vt 0.0966796875 0.863984704
vt 0.0986328125 0.863984704
vt 0.0986328125 0.986590028
vt 0.129882812 0.986590028
vt 0.129882812 0.863984704
vt 0.131835938 0.863984704
vt 0.131835938 0.986590028
vt 0.163085938 0.986590028
vt 0.163085938 0.863984704
vt 0.165039062 0.863984704
vt 0.165039062 0.902298868
vt 0.227539062 0.902298868
vt 0.227539062 0.863984704
vt 0.229492188 0.863984704
vt 0.229492188 0.925287366
vt 0.291992188 0.925287366
vt 0.291992188 0.863984704
vt 0.346679688 0.871647477
vt 0.346679688 0.932950199
vt 0.409179688 0.932950199
vt 0.409179688 0.871647477
vt 0.540039062 0.875478923
vt 0.540039062 0.913793087
vt 0.602539062 0.913793087
vt 0.602539062 0.875478923
vt 0.293945312 0.863984704
vt 0.293945312 0.986590028
vt 0.325195312 0.986590028
vt 0.325195312 0.863984704
vt 0.725585938 0.875478923
vt 0.725585938 0.936781585
vt 0.756835938 0.936781585
vt 0.756835938 0.875478923
vt 0.758789062 0.875478923
vt 0.758789062 0.936781585
vt 0.790039062 0.936781585
vt 0.790039062 0.875478923
vt 0.791992188 0.875478923
vt 0.791992188 0.936781585
vt 0.823242188 0.936781585
vt 0.823242188 0.875478923
vt 0.854492188 0.879310369
vt 0.854492188 0.940613031
vt 0.885742188 0.940613031
vt 0.885742188 0.879310369
vt 0.887695312 0.879310369
vt 0.887695312 0.940613031
vt 0.918945312 0.940613031
vt 0.918945312 0.879310369
vt 0.950195312 0.886973202
vt 0.950195312 0.948275864
vt 0.981445312 0.948275864
vt 0.981445312 0.886973202
vt 0.165039062 0.906130254
vt 0.165039062 0.967432976
vt 0.196289062 0.967432976
vt 0.196289062 0.906130254
vt 0.540039062 0.917624533
vt 0.540039062 0.978927195
vt 0.571289062 0.978927195
vt 0.571289062 0.917624533
vt 0.0341796875 0.929118752
vt 0.0341796875 0.990421474
vt 0.0654296875 0.990421474
vt 0.0654296875 0.929118752
vt 0.229492188 0.929118752
vt 0.229492188 0.990421474
vt 0.260742188 0.990421474
vt 0.260742188 0.929118752
vt 0.346679688 0.936781585
vt 0.346679688 0.998084307
vt 0.377929688 0.998084307
vt 0.377929688 0.936781585
vt 0.379882812 0.936781585
vt 0.379882812 0.998084307
vt 0.411132812 0.998084307
vt 0.411132812 0.936781585
vt 0.413085938 0.936781585
vt 0.413085938 0.998084307
vt 0.444335938 0.998084307
vt 0.444335938 0.936781585
vt 0.446289062 0.936781585
vt 0.446289062 0.998084307
vt 0.477539062 0.998084307
vt 0.477539062 0.936781585
vt 0.479492188 0.936781585
vt 0.479492188 0.998084307
vt 0.510742188 0.998084307
vt 0.510742188 0.936781585
vt 0.604492188 0.936781585
vt 0.604492188 0.998084307
vt 0.635742188 0.998084307
vt 0.635742188 0.936781585
g U557-mesh_0
f 3/3/3 2/2/2 1/1/1
f 1/1/1 4/4/4 3/3/3
f 7/7/7 6/6/6 5/5/5
f 5/5/5 8/8/8 7/7/7
f 11/11/11 10/10/10 9/9/9
f 9/9/9 12/12/12 11/11/11
f 15/15/15 14/14/14 13/13/13
f 13/13/13 16/16/16 15/15/15
f 19/19/19 18/18/18 17/17/17
f 17/17/17 20/20/20 19/19/19
f 23/23/23 22/22/22 21/21/21
f 21/21/21 24/24/24 23/23/23
f 27/27/27 26/26/26 25/25/25
f 25/25/25 28/28/28 27/27/27
f 31/31/31 30/30/30 29/29/29
f 29/29/29 32/32/32 31/31/31
f 35/35/35 34/34/34 33/33/33
f 33/33/33 36/36/36 35/35/35
f 39/39/39 38/38/38 37/37/37
f 37/37/37 40/40/40 39/39/39
f 43/43/43 42/42/42 41/41/41
f 41/41/41 44/44/44 43/43/43
f 47/47/47 46/46/46 45/45/45
f 45/45/45 48/48/48 47/47/47
f 51/51/51 50/50/50 49/49/49
f 49/49/49 52/52/52 51/51/51
f 55/55/55 54/54/54 53/53/53
f 53/53/53 56/56/56 55/55/55
f 59/59/59 58/58/58 57/57/57
f 57/57/57 60/60/60 59/59/59
f 63/63/63 62/62/62 61/61/61
f 61/61/61 64/64/64 63/63/63
f 67/67/67 66/66/66 65/65/65
f 65/65/65 68/68/68 67/67/67
f 71/71/71 70/70/70 69/69/69
f 69/69/69 72/72/72 71/71/71
f 75/75/75 74/74/74 73/73/73
f 73/73/73 76/76/76 75/75/75
f 79/79/79 78/78/78 77/77/77
f 77/77/77 80/80/80 79/79/79
f 83/83/83 82/82/82 81/81/81
f 81/81/81 84/84/84 83/83/83
f 87/87/87 86/86/86 85/85/85
f 85/85/85 88/88/88 87/87/87
f 91/91/91 90/90/90 89/89/89
f 89/89/89 92/92/92 91/91/91
f 95/95/95 94/94/94 93/93/93
f 93/93/93 96/96/96 95/95/95
f 99/99/99 98/98/98 97/97/97
f 97/97/97 100/100/100 99/99/99
f 103/103/103 102/102/102 101/101/101
f 101/101/101 104/104/104 103/103/103
f 107/107/107 106/106/106 105/105/105
f 105/105/105 108/108/108 107/107/107
f 111/111/111 110/110/110 109/109/109
f 109/109/109 112/112/112 111/111/111
f 115/115/115 114/114/114 113/113/113
f 113/113/113 116/116/116 115/115/115
f 119/119/119 118/118/118 117/117/117
f 117/117/117 120/120/120 119/119/119
f 123/123/123 122/122/122 121/121/121
f 121/121/121 124/124/124 123/123/123
f 127/127/127 126/126/126 125/125/125
f 125/125/125 128/128/128 127/127/127
f 131/131/131 130/130/130 129/129/129
f 129/129/129 132/132/132 131/131/131
f 135/135/135 134/134/134 133/133/133
f 133/133/133 136/136/136 135/135/135
f 139/139/139 138/138/138 137/137/137
f 137/137/137 140/140/140 139/139/139
f 143/143/143 142/142/142 141/141/141
f 141/141/141 144/144/144 143/143/143
f 147/147/147 146/146/146 145/145/145
f 145/145/145 148/148/148 147/147/147
f 151/151/151 150/150/150 149/149/149
f 149/149/149 152/152/152 151/151/151
f 155/155/155 154/154/154 153/153/153
f 153/153/153 156/156/156 155/155/155
f 159/159/159 158/158/158 157/157/157
f 157/157/157 160/160/160 159/159/159
f 163/163/163 162/162/162 161/161/161
f 161/161/161 164/164/164 163/163/163
f 167/167/167 166/166/166 165/165/165
f 165/165/165 168/168/168 167/167/167
f 171/171/171 170/170/170 169/169/169
f 169/169/169 172/172/172 171/171/171
f 175/175/175 174/174/174 173/173/173
f 173/173/173 176/176/176 175/175/175
f 179/179/179 178/178/178 177/177/177
f 177/177/177 180/180/180 179/179/179
f 183/183/183 182/182/182 181/181/181
f 181/181/181 184/184/184 183/183/183
f 187/187/187 186/186/186 185/185/185
f 185/185/185 188/188/188 187/187/187
f 191/191/191 190/190/190 189/189/189
f 189/189/189 192/192/192 191/191/191
f 195/195/195 194/194/194 193/193/193
f 193/193/193 196/196/196 195/195/195
f 199/199/199 198/198/198 197/197/197
f 197/197/197 200/200/200 199/199/199
f 203/203/203 202/202/202 201/201/201
f 201/201/201 204/204/204 203/203/203
f 207/207/207 206/206/206 205/205/205
f 205/205/205 208/208/208 207/207/207
f 211/211/211 210/210/210 209/209/209
f 209/209/209 212/212/212 211/211/211
f 215/215/215 214/214/214 213/213/213
f 213/213/213 216/216/216 215/215/215
