g ximu_3-mesh
v -96 383 0
v -96 895 0
v -416 895 0
v -416 383 0
v -160 895 0
v -160 991 0
v -352 991 0
v -352 895 0
v -448 383 0
v -448 575 0
v -544 575 0
v -544 383 0
v -448 575 0
v -448 767 0
v -544 767 0
v -544 575 0
v -192 159 0
v -192 351 0
v -256 351 0
v -256 159 0
v -192 0 0
v -192 159 0
v -256 159 0
v -256 0 0
v -448 767 0
v -448 895 0
v -512 895 0
v -512 767 0
v -64 575 0
v -64 831 0
v -96 831 0
v -96 575 0
v -64 351 0
v -64 575 0
v -96 575 0
v -96 351 0
v -256 191 0
v -256 383 0
v -288 383 0
v -288 191 0
v -0 383 0
v -0 479 0
v -64 479 0
v -64 383 0
v -256 31 0
v -256 191 0
v -288 191 0
v -288 31 0
v -416 639 0
v -416 799 0
v -448 799 0
v -448 639 0
v -288 351 0
v -288 383 0
v -416 383 0
v -416 351 0
v -352 287 0
v -352 351 0
v -416 351 0
v -416 287 0
v -0 575 0
v -0 639 0
v -64 639 0
v -64 575 0
v -0 319 0
v -0 383 0
v -64 383 0
v -64 319 0
v -544 575 0
v -544 703 0
v -567 703 0
v -567 575 0
v -416 511 0
v -416 639 0
v -448 639 0
v -448 511 0
v -544 479 0
v -544 575 0
v -567 575 0
v -567 479 0
v -416 351 0
v -416 383 0
v -512 383 0
v -512 351 0
v -192 991 0
v -192 1023 0
v -256 1023 0
v -256 991 0
v -288 991 0
v -288 1023 0
v -352 1023 0
v -352 991 0
v -352 895 0
v -352 959 0
v -384 959 0
v -384 895 0
v -416 319 0
v -416 351 0
v -480 351 0
v -480 319 0
v -128 0 0
v -128 63 0
v -160 63 0
v -160 0 0
v -416 831 0
v -416 895 0
v -448 895 0
v -448 831 0
v -416 415 0
v -416 479 0
v -448 479 0
v -448 415 0
v -288 223 0
v -288 287 0
v -320 287 0
v -320 223 0
v -288 287 0
v -288 351 0
v -320 351 0
v -320 287 0
v -32 703 0
v -32 767 0
v -64 767 0
v -64 703 0
v -32 767 0
v -32 831 0
v -64 831 0
v -64 767 0
v -160 0 0
v -160 63 0
v -192 63 0
v -192 0 0
v -160 63 0
v -160 127 0
v -192 127 0
v -192 63 0
v -32 479 0
v -32 511 0
v -64 511 0
v -64 479 0
v -32 543 0
v -32 575 0
v -64 575 0
v -64 543 0
v -224 351 0
v -224 383 0
v -256 383 0
v -256 351 0
v -544 415 0
v -544 447 0
v -567 447 0
v -567 415 0
v -128 895 0
v -128 927 0
v -160 927 0
v -160 895 0
v -416 383 0
v -416 415 0
v -448 415 0
v -448 383 0
v -512 831 0
v -512 863 0
v -544 863 0
v -544 831 0
v -384 895 0
v -384 927 0
v -416 927 0
v -416 895 0
vt 0.0009765625 0.00194549561
vt 0.0009765625 0.998054504
vt 0.313476562 0.998054504
vt 0.313476562 0.00194549561
vt 0.315429688 0.00194549561
vt 0.315429688 0.188715935
vt 0.502929688 0.188715935
vt 0.502929688 0.00194549561
vt 0.504882812 0.00194549561
vt 0.504882812 0.375486374
vt 0.598632812 0.375486374
vt 0.598632812 0.00194549561
vt 0.600585938 0.00194549561
vt 0.600585938 0.375486374
vt 0.694335938 0.375486374
vt 0.694335938 0.00194549561
vt 0.696289062 0.00194549561
vt 0.696289062 0.375486374
vt 0.758789062 0.375486374
vt 0.758789062 0.00194549561
vt 0.760742188 0.00194549561
vt 0.760742188 0.313229561
vt 0.823242188 0.313229561
vt 0.823242188 0.00194549561
vt 0.825195312 0.00194549561
vt 0.825195312 0.250972748
vt 0.887695312 0.250972748
vt 0.887695312 0.00194549561
vt 0.889648438 0.00194549561
vt 0.889648438 0.5
vt 0.920898438 0.5
vt 0.920898438 0.00194549561
vt 0.922851562 0.00194549561
vt 0.922851562 0.437743187
vt 0.954101562 0.437743187
vt 0.954101562 0.00194549561
vt 0.956054688 0.00194549561
vt 0.956054688 0.375486374
vt 0.987304688 0.375486374
vt 0.987304688 0.00194549561
vt 0.315429688 0.192606986
vt 0.315429688 0.379377425
vt 0.377929688 0.379377425
vt 0.377929688 0.192606986
vt 0.379882812 0.192606986
vt 0.379882812 0.503891051
vt 0.411132812 0.503891051
vt 0.411132812 0.192606986
vt 0.413085938 0.192606986
vt 0.413085938 0.503891051
vt 0.444335938 0.503891051
vt 0.444335938 0.192606986
vt 0.760742188 0.317120612
vt 0.760742188 0.379377425
vt 0.885742188 0.379377425
vt 0.885742188 0.317120612
vt 0.504882812 0.379377425
vt 0.504882812 0.503891051
vt 0.567382812 0.503891051
vt 0.567382812 0.379377425
vt 0.569335938 0.379377425
vt 0.569335938 0.503891051
vt 0.631835938 0.503891051
vt 0.631835938 0.379377425
vt 0.633789062 0.379377425
vt 0.633789062 0.503891051
vt 0.696289062 0.503891051
vt 0.696289062 0.379377425
vt 0.446289062 0.192606986
vt 0.446289062 0.441634238
vt 0.469726562 0.441634238
vt 0.469726562 0.192606986
vt 0.471679688 0.192606986
vt 0.471679688 0.441634238
vt 0.502929688 0.441634238
vt 0.502929688 0.192606986
vt 0.698242188 0.379377425
vt 0.698242188 0.566147864
vt 0.721679688 0.566147864
vt 0.721679688 0.379377425
vt 0.760742188 0.383268476
vt 0.760742188 0.445525289
vt 0.854492188 0.445525289
vt 0.854492188 0.383268476
vt 0.315429688 0.383268476
vt 0.315429688 0.445525289
vt 0.377929688 0.445525289
vt 0.377929688 0.383268476
vt 0.922851562 0.441634238
vt 0.922851562 0.503891051
vt 0.985351562 0.503891051
vt 0.985351562 0.441634238
vt 0.723632812 0.379377425
vt 0.723632812 0.503891051
vt 0.754882812 0.503891051
vt 0.754882812 0.379377425
vt 0.315429688 0.449416339
vt 0.315429688 0.511673152
vt 0.377929688 0.511673152
vt 0.377929688 0.449416339
vt 0.856445312 0.383268476
vt 0.856445312 0.507782102
vt 0.887695312 0.507782102
vt 0.887695312 0.383268476
vt 0.446289062 0.445525289
vt 0.446289062 0.570038915
vt 0.477539062 0.570038915
vt 0.477539062 0.445525289
vt 0.760742188 0.449416339
vt 0.760742188 0.573929965
vt 0.791992188 0.573929965
vt 0.791992188 0.449416339
vt 0.793945312 0.449416339
vt 0.793945312 0.573929965
vt 0.825195312 0.573929965
vt 0.825195312 0.449416339
vt 0.889648438 0.503891051
vt 0.889648438 0.628404677
vt 0.920898438 0.628404677
vt 0.920898438 0.503891051
vt 0.379882812 0.507782102
vt 0.379882812 0.632295728
vt 0.411132812 0.632295728
vt 0.411132812 0.507782102
vt 0.413085938 0.507782102
vt 0.413085938 0.632295728
vt 0.444335938 0.632295728
vt 0.444335938 0.507782102
vt 0.504882812 0.507782102
vt 0.504882812 0.632295728
vt 0.536132812 0.632295728
vt 0.536132812 0.507782102
vt 0.538085938 0.507782102
vt 0.538085938 0.632295728
vt 0.569335938 0.632295728
vt 0.569335938 0.507782102
vt 0.571289062 0.507782102
vt 0.571289062 0.570038915
vt 0.602539062 0.570038915
vt 0.602539062 0.507782102
vt 0.604492188 0.507782102
vt 0.604492188 0.570038915
vt 0.635742188 0.570038915
vt 0.635742188 0.507782102
vt 0.637695312 0.507782102
vt 0.637695312 0.570038915
vt 0.668945312 0.570038915
vt 0.668945312 0.507782102
vt 0.479492188 0.445525289
vt 0.479492188 0.507782102
vt 0.502929688 0.507782102
vt 0.502929688 0.445525289
vt 0.723632812 0.507782102
vt 0.723632812 0.570038915
vt 0.754882812 0.570038915
vt 0.754882812 0.507782102
vt 0.922851562 0.507782102
vt 0.922851562 0.570038915
vt 0.954101562 0.570038915
vt 0.954101562 0.507782102
vt 0.956054688 0.507782102
vt 0.956054688 0.570038915
vt 0.987304688 0.570038915
vt 0.987304688 0.507782102
vt 0.856445312 0.511673152
vt 0.856445312 0.573929965
vt 0.887695312 0.573929965
vt 0.887695312 0.511673152
g ximu_3-mesh_0
f 3/3/3 2/2/2 1/1/1
f 1/1/1 4/4/4 3/3/3
f 7/7/7 6/6/6 5/5/5
f 5/5/5 8/8/8 7/7/7
f 11/11/11 10/10/10 9/9/9
f 9/9/9 12/12/12 11/11/11
f 15/15/15 14/14/14 13/13/13
f 13/13/13 16/16/16 15/15/15
f 19/19/19 18/18/18 17/17/17
f 17/17/17 20/20/20 19/19/19
f 23/23/23 22/22/22 21/21/21
f 21/21/21 24/24/24 23/23/23
f 27/27/27 26/26/26 25/25/25
f 25/25/25 28/28/28 27/27/27
f 31/31/31 30/30/30 29/29/29
f 29/29/29 32/32/32 31/31/31
f 35/35/35 34/34/34 33/33/33
f 33/33/33 36/36/36 35/35/35
f 39/39/39 38/38/38 37/37/37
f 37/37/37 40/40/40 39/39/39
f 43/43/43 42/42/42 41/41/41
f 41/41/41 44/44/44 43/43/43
f 47/47/47 46/46/46 45/45/45
f 45/45/45 48/48/48 47/47/47
f 51/51/51 50/50/50 49/49/49
f 49/49/49 52/52/52 51/51/51
f 55/55/55 54/54/54 53/53/53
f 53/53/53 56/56/56 55/55/55
f 59/59/59 58/58/58 57/57/57
f 57/57/57 60/60/60 59/59/59
f 63/63/63 62/62/62 61/61/61
f 61/61/61 64/64/64 63/63/63
f 67/67/67 66/66/66 65/65/65
f 65/65/65 68/68/68 67/67/67
f 71/71/71 70/70/70 69/69/69
f 69/69/69 72/72/72 71/71/71
f 75/75/75 74/74/74 73/73/73
f 73/73/73 76/76/76 75/75/75
f 79/79/79 78/78/78 77/77/77
f 77/77/77 80/80/80 79/79/79
f 83/83/83 82/82/82 81/81/81
f 81/81/81 84/84/84 83/83/83
f 87/87/87 86/86/86 85/85/85
f 85/85/85 88/88/88 87/87/87
f 91/91/91 90/90/90 89/89/89
f 89/89/89 92/92/92 91/91/91
f 95/95/95 94/94/94 93/93/93
f 93/93/93 96/96/96 95/95/95
f 99/99/99 98/98/98 97/97/97
f 97/97/97 100/100/100 99/99/99
f 103/103/103 102/102/102 101/101/101
f 101/101/101 104/104/104 103/103/103
f 107/107/107 106/106/106 105/105/105
f 105/105/105 108/108/108 107/107/107
f 111/111/111 110/110/110 109/109/109
f 109/109/109 112/112/112 111/111/111
f 115/115/115 114/114/114 113/113/113
f 113/113/113 116/116/116 115/115/115
f 119/119/119 118/118/118 117/117/117
f 117/117/117 120/120/120 119/119/119
f 123/123/123 122/122/122 121/121/121
f 121/121/121 124/124/124 123/123/123
f 127/127/127 126/126/126 125/125/125
f 125/125/125 128/128/128 127/127/127
f 131/131/131 130/130/130 129/129/129
f 129/129/129 132/132/132 131/131/131
f 135/135/135 134/134/134 133/133/133
f 133/133/133 136/136/136 135/135/135
f 139/139/139 138/138/138 137/137/137
f 137/137/137 140/140/140 139/139/139
f 143/143/143 142/142/142 141/141/141
f 141/141/141 144/144/144 143/143/143
f 147/147/147 146/146/146 145/145/145
f 145/145/145 148/148/148 147/147/147
f 151/151/151 150/150/150 149/149/149
f 149/149/149 152/152/152 151/151/151
f 155/155/155 154/154/154 153/153/153
f 153/153/153 156/156/156 155/155/155
f 159/159/159 158/158/158 157/157/157
f 157/157/157 160/160/160 159/159/159
f 163/163/163 162/162/162 161/161/161
f 161/161/161 164/164/164 163/163/163
f 167/167/167 166/166/166 165/165/165
f 165/165/165 168/168/168 167/167/167
