g ekelahema_g-mesh
v -32 447 0
v -32 895 0
v -480 895 0
v -480 447 0
v -480 575 0
v -480 735 0
v -608 735 0
v -608 575 0
v -480 735 0
v -480 895 0
v -608 895 0
v -608 735 0
v -384 895 0
v -384 991 0
v -544 991 0
v -544 895 0
v -224 895 0
v -224 991 0
v -384 991 0
v -384 895 0
v -192 0 0
v -192 223 0
v -256 223 0
v -256 0 0
v -192 223 0
v -192 447 0
v -256 447 0
v -256 223 0
v -384 287 0
v -384 447 0
v -448 447 0
v -448 287 0
v -608 543 0
v -608 639 0
v -694 639 0
v -694 543 0
v -96 895 0
v -96 959 0
v -224 959 0
v -224 895 0
v -384 159 0
v -384 287 0
v -448 287 0
v -448 159 0
v -128 351 0
v -128 447 0
v -192 447 0
v -192 351 0
v -448 159 0
v -448 255 0
v -512 255 0
v -512 159 0
v -128 95 0
v -128 191 0
v -192 191 0
v -192 95 0
v -0 511 0
v -0 639 0
v -32 639 0
v -32 511 0
v -512 511 0
v -512 575 0
v -576 575 0
v -576 511 0
v -448 95 0
v -448 159 0
v -512 159 0
v -512 95 0
v -128 31 0
v -128 95 0
v -192 95 0
v -192 31 0
v -0 639 0
v -0 767 0
v -32 767 0
v -32 639 0
v -256 351 0
v -256 447 0
v -288 447 0
v -288 351 0
v -256 63 0
v -256 159 0
v -288 159 0
v -288 63 0
v -256 255 0
v -256 351 0
v -288 351 0
v -288 255 0
v -608 799 0
v -608 863 0
v -640 863 0
v -640 799 0
v -544 895 0
v -544 959 0
v -576 959 0
v -576 895 0
v -320 991 0
v -320 1023 0
v -384 1023 0
v -384 991 0
v -640 511 0
v -640 543 0
v -694 543 0
v -694 511 0
v -96 127 0
v -96 191 0
v -128 191 0
v -128 127 0
v -160 191 0
v -160 255 0
v -192 255 0
v -192 191 0
v -288 383 0
v -288 447 0
v -320 447 0
v -320 383 0
v -608 671 0
v -608 735 0
v -640 735 0
v -640 671 0
v -352 383 0
v -352 447 0
v -384 447 0
v -384 383 0
v -256 0 0
v -256 63 0
v -288 63 0
v -288 0 0
v -448 287 0
v -448 351 0
v -480 351 0
v -480 287 0
v -352 319 0
v -352 383 0
v -384 383 0
v -384 319 0
v -448 415 0
v -448 447 0
v -480 447 0
v -480 415 0
v -160 319 0
v -160 351 0
v -192 351 0
v -192 319 0
v -512 159 0
v -512 191 0
v -544 191 0
v -544 159 0
v -416 127 0
v -416 159 0
v -448 159 0
v -448 127 0
v -160 0 0
v -160 31 0
v -192 31 0
v -192 0 0
v -96 415 0
v -96 447 0
v -128 447 0
v -128 415 0
v -608 639 0
v -608 671 0
v -640 671 0
v -640 639 0
v -448 255 0
v -448 287 0
v -480 287 0
v -480 255 0
v -64 895 0
v -64 927 0
v -96 927 0
v -96 895 0
v -480 543 0
v -480 575 0
v -512 575 0
v -512 543 0
v -640 639 0
v -640 671 0
v -672 671 0
v -672 639 0
vt 0.0009765625 0.00216448307
vt 0.0009765625 0.971861482
vt 0.438476562 0.971861482
vt 0.438476562 0.00216448307
vt 0.440429688 0.00216448307
vt 0.440429688 0.348484874
vt 0.565429688 0.348484874
vt 0.565429688 0.00216448307
vt 0.567382812 0.00216448307
vt 0.567382812 0.348484874
vt 0.692382812 0.348484874
vt 0.692382812 0.00216448307
vt 0.694335938 0.00216448307
vt 0.694335938 0.209956706
vt 0.850585938 0.209956706
vt 0.850585938 0.00216448307
vt 0.694335938 0.214285731
vt 0.694335938 0.422077894
vt 0.850585938 0.422077894
vt 0.850585938 0.214285731
vt 0.852539062 0.00216448307
vt 0.852539062 0.487012982
vt 0.915039062 0.487012982
vt 0.915039062 0.00216448307
vt 0.916992188 0.00216448307
vt 0.916992188 0.487012982
vt 0.979492188 0.487012982
vt 0.979492188 0.00216448307
vt 0.440429688 0.35281384
vt 0.440429688 0.699134231
vt 0.502929688 0.699134231
vt 0.502929688 0.35281384
vt 0.504882812 0.35281384
vt 0.504882812 0.560606062
vt 0.58984375 0.560606062
vt 0.58984375 0.35281384
vt 0.694335938 0.42640692
vt 0.694335938 0.564935088
vt 0.819335938 0.564935088
vt 0.819335938 0.42640692
vt 0.591796875 0.35281384
vt 0.591796875 0.629870117
vt 0.654296875 0.629870117
vt 0.654296875 0.35281384
vt 0.852539062 0.491342008
vt 0.852539062 0.699134231
vt 0.915039062 0.699134231
vt 0.915039062 0.491342008
vt 0.916992188 0.491342008
vt 0.916992188 0.699134231
vt 0.979492188 0.699134231
vt 0.979492188 0.491342008
vt 0.504882812 0.564935088
vt 0.504882812 0.772727251
vt 0.567382812 0.772727251
vt 0.567382812 0.564935088
vt 0.65625 0.35281384
vt 0.65625 0.629870117
vt 0.6875 0.629870117
vt 0.6875 0.35281384
vt 0.694335938 0.569264054
vt 0.694335938 0.707792222
vt 0.756835938 0.707792222
vt 0.756835938 0.569264054
vt 0.758789062 0.569264054
vt 0.758789062 0.707792222
vt 0.821289062 0.707792222
vt 0.821289062 0.569264054
vt 0.591796875 0.634199142
vt 0.591796875 0.772727251
vt 0.654296875 0.772727251
vt 0.654296875 0.634199142
vt 0.65625 0.634199142
vt 0.65625 0.911255419
vt 0.6875 0.911255419
vt 0.6875 0.634199142
vt 0.440429688 0.703463197
vt 0.440429688 0.911255419
vt 0.471679688 0.911255419
vt 0.471679688 0.703463197
vt 0.852539062 0.703463197
vt 0.852539062 0.911255419
vt 0.883789062 0.911255419
vt 0.883789062 0.703463197
vt 0.885742188 0.703463197
vt 0.885742188 0.911255419
vt 0.916992188 0.911255419
vt 0.916992188 0.703463197
vt 0.918945312 0.703463197
vt 0.918945312 0.841991305
vt 0.950195312 0.841991305
vt 0.950195312 0.703463197
vt 0.952148438 0.703463197
vt 0.952148438 0.841991305
vt 0.983398438 0.841991305
vt 0.983398438 0.703463197
vt 0.694335938 0.712121248
vt 0.694335938 0.781385303
vt 0.756835938 0.781385303
vt 0.756835938 0.712121248
vt 0.758789062 0.712121248
vt 0.758789062 0.781385303
vt 0.8125 0.781385303
vt 0.8125 0.712121248
vt 0.814453125 0.712121248
vt 0.814453125 0.850649357
vt 0.845703125 0.850649357
vt 0.845703125 0.712121248
vt 0.504882812 0.777056277
vt 0.504882812 0.915584445
vt 0.536132812 0.915584445
vt 0.536132812 0.777056277
vt 0.538085938 0.777056277
vt 0.538085938 0.915584445
vt 0.569335938 0.915584445
vt 0.569335938 0.777056277
vt 0.591796875 0.777056277
vt 0.591796875 0.915584445
vt 0.623046875 0.915584445
vt 0.623046875 0.777056277
vt 0.694335938 0.785714269
vt 0.694335938 0.924242437
vt 0.725585938 0.924242437
vt 0.725585938 0.785714269
vt 0.727539062 0.785714269
vt 0.727539062 0.924242437
vt 0.758789062 0.924242437
vt 0.758789062 0.785714269
vt 0.760742188 0.785714269
vt 0.760742188 0.924242437
vt 0.791992188 0.924242437
vt 0.791992188 0.785714269
vt 0.918945312 0.846320331
vt 0.918945312 0.984848499
vt 0.950195312 0.984848499
vt 0.950195312 0.846320331
vt 0.952148438 0.846320331
vt 0.952148438 0.915584445
vt 0.983398438 0.915584445
vt 0.983398438 0.846320331
vt 0.814453125 0.854978323
vt 0.814453125 0.924242437
vt 0.845703125 0.924242437
vt 0.845703125 0.854978323
vt 0.440429688 0.915584445
vt 0.440429688 0.984848499
vt 0.471679688 0.984848499
vt 0.471679688 0.915584445
vt 0.65625 0.915584445
vt 0.65625 0.984848499
vt 0.6875 0.984848499
vt 0.6875 0.915584445
vt 0.852539062 0.915584445
vt 0.852539062 0.984848499
vt 0.883789062 0.984848499
vt 0.883789062 0.915584445
vt 0.885742188 0.915584445
vt 0.885742188 0.984848499
vt 0.916992188 0.984848499
vt 0.916992188 0.915584445
vt 0.504882812 0.919913411
vt 0.504882812 0.989177465
vt 0.536132812 0.989177465
vt 0.536132812 0.919913411
vt 0.538085938 0.919913411
vt 0.538085938 0.989177465
vt 0.569335938 0.989177465
vt 0.569335938 0.919913411
vt 0.591796875 0.919913411
vt 0.591796875 0.989177465
vt 0.623046875 0.989177465
vt 0.623046875 0.919913411
vt 0.952148438 0.919913411
vt 0.952148438 0.989177465
vt 0.983398438 0.989177465
vt 0.983398438 0.919913411
vt 0.694335938 0.928571403
vt 0.694335938 0.997835517
vt 0.725585938 0.997835517
vt 0.725585938 0.928571403
g ekelahema_g-mesh_0
f 3/3/3 2/2/2 1/1/1
f 1/1/1 4/4/4 3/3/3
f 7/7/7 6/6/6 5/5/5
f 5/5/5 8/8/8 7/7/7
f 11/11/11 10/10/10 9/9/9
f 9/9/9 12/12/12 11/11/11
f 15/15/15 14/14/14 13/13/13
f 13/13/13 16/16/16 15/15/15
f 19/19/19 18/18/18 17/17/17
f 17/17/17 20/20/20 19/19/19
f 23/23/23 22/22/22 21/21/21
f 21/21/21 24/24/24 23/23/23
f 27/27/27 26/26/26 25/25/25
f 25/25/25 28/28/28 27/27/27
f 31/31/31 30/30/30 29/29/29
f 29/29/29 32/32/32 31/31/31
f 35/35/35 34/34/34 33/33/33
f 33/33/33 36/36/36 35/35/35
f 39/39/39 38/38/38 37/37/37
f 37/37/37 40/40/40 39/39/39
f 43/43/43 42/42/42 41/41/41
f 41/41/41 44/44/44 43/43/43
f 47/47/47 46/46/46 45/45/45
f 45/45/45 48/48/48 47/47/47
f 51/51/51 50/50/50 49/49/49
f 49/49/49 52/52/52 51/51/51
f 55/55/55 54/54/54 53/53/53
f 53/53/53 56/56/56 55/55/55
f 59/59/59 58/58/58 57/57/57
f 57/57/57 60/60/60 59/59/59
f 63/63/63 62/62/62 61/61/61
f 61/61/61 64/64/64 63/63/63
f 67/67/67 66/66/66 65/65/65
f 65/65/65 68/68/68 67/67/67
f 71/71/71 70/70/70 69/69/69
f 69/69/69 72/72/72 71/71/71
f 75/75/75 74/74/74 73/73/73
f 73/73/73 76/76/76 75/75/75
f 79/79/79 78/78/78 77/77/77
f 77/77/77 80/80/80 79/79/79
f 83/83/83 82/82/82 81/81/81
f 81/81/81 84/84/84 83/83/83
f 87/87/87 86/86/86 85/85/85
f 85/85/85 88/88/88 87/87/87
f 91/91/91 90/90/90 89/89/89
f 89/89/89 92/92/92 91/91/91
f 95/95/95 94/94/94 93/93/93
f 93/93/93 96/96/96 95/95/95
f 99/99/99 98/98/98 97/97/97
f 97/97/97 100/100/100 99/99/99
f 103/103/103 102/102/102 101/101/101
f 101/101/101 104/104/104 103/103/103
f 107/107/107 106/106/106 105/105/105
f 105/105/105 108/108/108 107/107/107
f 111/111/111 110/110/110 109/109/109
f 109/109/109 112/112/112 111/111/111
f 115/115/115 114/114/114 113/113/113
f 113/113/113 116/116/116 115/115/115
f 119/119/119 118/118/118 117/117/117
f 117/117/117 120/120/120 119/119/119
f 123/123/123 122/122/122 121/121/121
f 121/121/121 124/124/124 123/123/123
f 127/127/127 126/126/126 125/125/125
f 125/125/125 128/128/128 127/127/127
f 131/131/131 130/130/130 129/129/129
f 129/129/129 132/132/132 131/131/131
f 135/135/135 134/134/134 133/133/133
f 133/133/133 136/136/136 135/135/135
f 139/139/139 138/138/138 137/137/137
f 137/137/137 140/140/140 139/139/139
f 143/143/143 142/142/142 141/141/141
f 141/141/141 144/144/144 143/143/143
f 147/147/147 146/146/146 145/145/145
f 145/145/145 148/148/148 147/147/147
f 151/151/151 150/150/150 149/149/149
f 149/149/149 152/152/152 151/151/151
f 155/155/155 154/154/154 153/153/153
f 153/153/153 156/156/156 155/155/155
f 159/159/159 158/158/158 157/157/157
f 157/157/157 160/160/160 159/159/159
f 163/163/163 162/162/162 161/161/161
f 161/161/161 164/164/164 163/163/163
f 167/167/167 166/166/166 165/165/165
f 165/165/165 168/168/168 167/167/167
f 171/171/171 170/170/170 169/169/169
f 169/169/169 172/172/172 171/171/171
f 175/175/175 174/174/174 173/173/173
f 173/173/173 176/176/176 175/175/175
f 179/179/179 178/178/178 177/177/177
f 177/177/177 180/180/180 179/179/179
