g U101_2-mesh
v -512 311 0
v -512 855 0
v -800 855 0
v -800 311 0
v -224 311 0
v -224 855 0
v -512 855 0
v -512 311 0
v -64 183 0
v -64 567 0
v -224 567 0
v -224 183 0
v -576 55 0
v -576 311 0
v -736 311 0
v -736 55 0
v -64 759 0
v -64 951 0
v -224 951 0
v -224 759 0
v -608 855 0
v -608 951 0
v -768 951 0
v -768 855 0
v -448 855 0
v -448 951 0
v -608 951 0
v -608 855 0
v -224 119 0
v -224 215 0
v -352 215 0
v -352 119 0
v -224 215 0
v -224 279 0
v -416 279 0
v -416 215 0
v -416 215 0
v -416 279 0
v -576 279 0
v -576 215 0
v -416 0 0
v -416 119 0
v -480 119 0
v -480 0 0
v -448 151 0
v -448 215 0
v -576 215 0
v -576 151 0
v -800 375 0
v -800 599 0
v -832 599 0
v -832 375 0
v -800 151 0
v -800 375 0
v -832 375 0
v -832 151 0
v -160 631 0
v -160 695 0
v -224 695 0
v -224 631 0
v -832 855 0
v -832 919 0
v -896 919 0
v -896 855 0
v -224 855 0
v -224 919 0
v -288 919 0
v -288 855 0
v -864 183 0
v -864 247 0
v -928 247 0
v -928 183 0
v -416 951 0
v -416 983 0
v -544 983 0
v -544 951 0
v -256 55 0
v -256 119 0
v -320 119 0
v -320 55 0
v -736 119 0
v -736 247 0
v -768 247 0
v -768 119 0
v -256 279 0
v -256 311 0
v -352 311 0
v -352 279 0
v -832 151 0
v -832 247 0
v -864 247 0
v -864 151 0
v -832 247 0
v -832 343 0
v -864 343 0
v -864 247 0
v -544 951 0
v -544 983 0
v -640 983 0
v -640 951 0
v -736 23 0
v -736 119 0
v -768 119 0
v -768 23 0
v -32 791 0
v -32 887 0
v -64 887 0
v -64 791 0
v -416 855 0
v -416 919 0
v -448 919 0
v -448 855 0
v -288 855 0
v -288 887 0
v -352 887 0
v -352 855 0
v -192 119 0
v -192 183 0
v -224 183 0
v -224 119 0
v -640 23 0
v -640 55 0
v -704 55 0
v -704 23 0
v -64 951 0
v -64 983 0
v -128 983 0
v -128 951 0
v -832 471 0
v -832 535 0
v -864 535 0
v -864 471 0
v -32 151 0
v -32 215 0
v -64 215 0
v -64 151 0
v -768 151 0
v -768 215 0
v -800 215 0
v -800 151 0
v -736 279 0
v -736 311 0
v -800 311 0
v -800 279 0
v -0 343 0
v -0 407 0
v -32 407 0
v -32 343 0
v -448 119 0
v -448 151 0
v -512 151 0
v -512 119 0
v -352 279 0
v -352 311 0
v -416 311 0
v -416 279 0
v -32 311 0
v -32 375 0
v -64 375 0
v -64 311 0
v -800 823 0
v -800 887 0
v -832 887 0
v -832 823 0
v -416 983 0
v -416 1015 0
v -480 1015 0
v -480 983 0
v -32 375 0
v -32 439 0
v -64 439 0
v -64 375 0
v -128 567 0
v -128 599 0
v -192 599 0
v -192 567 0
v -480 279 0
v -480 311 0
v -544 311 0
v -544 279 0
v -32 727 0
v -32 791 0
v -64 791 0
v -64 727 0
v -192 599 0
v -192 631 0
v -224 631 0
v -224 599 0
v -768 247 0
v -768 279 0
v -800 279 0
v -800 247 0
v -32 535 0
v -32 567 0
v -64 567 0
v -64 535 0
v -544 119 0
v -544 151 0
v -576 151 0
v -576 119 0
v -352 183 0
v -352 215 0
v -384 215 0
v -384 183 0
v -64 151 0
v -64 183 0
v -96 183 0
v -96 151 0
v -480 87 0
v -480 119 0
v -512 119 0
v -512 87 0
v -320 87 0
v -320 119 0
v -352 119 0
v -352 87 0
v -864 247 0
v -864 279 0
v -896 279 0
v -896 247 0
v -160 695 0
v -160 727 0
v -192 727 0
v -192 695 0
v -192 567 0
v -192 599 0
v -224 599 0
v -224 567 0
v -544 279 0
v -544 311 0
v -576 311 0
v -576 279 0
v -480 983 0
v -480 1015 0
v -512 1015 0
v -512 983 0
v -800 791 0
v -800 823 0
v -832 823 0
v -832 791 0
v -192 87 0
v -192 119 0
v -224 119 0
v -224 87 0
v -64 727 0
v -64 759 0
v -96 759 0
v -96 727 0
v -192 727 0
v -192 759 0
v -224 759 0
v -224 727 0
v -704 23 0
v -704 55 0
v -736 55 0
v -736 23 0
v -768 855 0
v -768 887 0
v -800 887 0
v -800 855 0
vt 0.0009765625 0.00140058994
vt 0.0009765625 0.763305306
vt 0.282226562 0.763305306
vt 0.282226562 0.00140058994
vt 0.284179688 0.00140058994
vt 0.284179688 0.763305306
vt 0.565429688 0.763305306
vt 0.565429688 0.00140058994
vt 0.567382812 0.00140058994
vt 0.567382812 0.539215684
vt 0.723632812 0.539215684
vt 0.723632812 0.00140058994
vt 0.725585938 0.00140058994
vt 0.725585938 0.359943986
vt 0.881835938 0.359943986
vt 0.881835938 0.00140058994
vt 0.725585938 0.362745106
vt 0.725585938 0.631652653
vt 0.881835938 0.631652653
vt 0.881835938 0.362745106
vt 0.567382812 0.542016804
vt 0.567382812 0.676470578
vt 0.723632812 0.676470578
vt 0.723632812 0.542016804
vt 0.725585938 0.634453773
vt 0.725585938 0.768907547
vt 0.881835938 0.768907547
vt 0.881835938 0.634453773
vt 0.567382812 0.679271698
vt 0.567382812 0.813725471
vt 0.692382812 0.813725471
vt 0.692382812 0.679271698
vt 0.0009765625 0.766106427
vt 0.0009765625 0.855742276
vt 0.188476562 0.855742276
vt 0.188476562 0.766106427
vt 0.190429688 0.766106427
vt 0.190429688 0.855742276
vt 0.346679688 0.855742276
vt 0.346679688 0.766106427
vt 0.883789062 0.00140058994
vt 0.883789062 0.169467807
vt 0.946289062 0.169467807
vt 0.946289062 0.00140058994
vt 0.348632812 0.766106427
vt 0.348632812 0.855742276
vt 0.473632812 0.855742276
vt 0.473632812 0.766106427
vt 0.948242188 0.00140058994
vt 0.948242188 0.315126061
vt 0.979492188 0.315126061
vt 0.979492188 0.00140058994
vt 0.883789062 0.172268927
vt 0.883789062 0.485994399
vt 0.915039062 0.485994399
vt 0.915039062 0.172268927
vt 0.883789062 0.488795519
vt 0.883789062 0.578431368
vt 0.946289062 0.578431368
vt 0.946289062 0.488795519
vt 0.883789062 0.581232488
vt 0.883789062 0.670868337
vt 0.946289062 0.670868337
vt 0.946289062 0.581232488
vt 0.883789062 0.673669457
vt 0.883789062 0.763305306
vt 0.946289062 0.763305306
vt 0.946289062 0.673669457
vt 0.475585938 0.766106427
vt 0.475585938 0.855742276
vt 0.538085938 0.855742276
vt 0.538085938 0.766106427
vt 0.725585938 0.771708667
vt 0.725585938 0.816526592
vt 0.850585938 0.816526592
vt 0.850585938 0.771708667
vt 0.883789062 0.766106427
vt 0.883789062 0.855742276
vt 0.946289062 0.855742276
vt 0.946289062 0.766106427
vt 0.948242188 0.317927182
vt 0.948242188 0.49719888
vt 0.979492188 0.49719888
vt 0.979492188 0.317927182
vt 0.567382812 0.816526592
vt 0.567382812 0.861344516
vt 0.661132812 0.861344516
vt 0.661132812 0.816526592
vt 0.948242188 0.5
vt 0.948242188 0.634453773
vt 0.979492188 0.634453773
vt 0.979492188 0.5
vt 0.948242188 0.637254894
vt 0.948242188 0.771708667
vt 0.979492188 0.771708667
vt 0.979492188 0.637254894
vt 0.725585938 0.819327712
vt 0.725585938 0.864145637
vt 0.819335938 0.864145637
vt 0.819335938 0.819327712
vt 0.948242188 0.774509788
vt 0.948242188 0.908963561
vt 0.979492188 0.908963561
vt 0.979492188 0.774509788
vt 0.663085938 0.816526592
vt 0.663085938 0.950980365
vt 0.694335938 0.950980365
vt 0.694335938 0.816526592
vt 0.821289062 0.819327712
vt 0.821289062 0.908963561
vt 0.852539062 0.908963561
vt 0.852539062 0.819327712
vt 0.0009765625 0.858543396
vt 0.0009765625 0.90336132
vt 0.0634765625 0.90336132
vt 0.0634765625 0.858543396
vt 0.0654296875 0.858543396
vt 0.0654296875 0.948179245
vt 0.0966796875 0.948179245
vt 0.0966796875 0.858543396
vt 0.0986328125 0.858543396
vt 0.0986328125 0.90336132
vt 0.161132812 0.90336132
vt 0.161132812 0.858543396
vt 0.163085938 0.858543396
vt 0.163085938 0.90336132
vt 0.225585938 0.90336132
vt 0.225585938 0.858543396
vt 0.227539062 0.858543396
vt 0.227539062 0.948179245
vt 0.258789062 0.948179245
vt 0.258789062 0.858543396
vt 0.260742188 0.858543396
vt 0.260742188 0.948179245
vt 0.291992188 0.948179245
vt 0.291992188 0.858543396
vt 0.293945312 0.858543396
vt 0.293945312 0.948179245
vt 0.325195312 0.948179245
vt 0.325195312 0.858543396
vt 0.327148438 0.858543396
vt 0.327148438 0.90336132
vt 0.389648438 0.90336132
vt 0.389648438 0.858543396
vt 0.391601562 0.858543396
vt 0.391601562 0.948179245
vt 0.422851562 0.948179245
vt 0.422851562 0.858543396
vt 0.424804688 0.858543396
vt 0.424804688 0.90336132
vt 0.487304688 0.90336132
vt 0.487304688 0.858543396
vt 0.489257812 0.858543396
vt 0.489257812 0.90336132
vt 0.551757812 0.90336132
vt 0.551757812 0.858543396
vt 0.883789062 0.858543396
vt 0.883789062 0.948179245
vt 0.915039062 0.948179245
vt 0.915039062 0.858543396
vt 0.567382812 0.864145637
vt 0.567382812 0.953781486
vt 0.598632812 0.953781486
vt 0.598632812 0.864145637
vt 0.725585938 0.866946757
vt 0.725585938 0.911764681
vt 0.788085938 0.911764681
vt 0.788085938 0.866946757
vt 0.600585938 0.864145637
vt 0.600585938 0.953781486
vt 0.631835938 0.953781486
vt 0.631835938 0.864145637
vt 0.0009765625 0.906162441
vt 0.0009765625 0.950980365
vt 0.0634765625 0.950980365
vt 0.0634765625 0.906162441
vt 0.0986328125 0.906162441
vt 0.0986328125 0.950980365
vt 0.161132812 0.950980365
vt 0.161132812 0.906162441
vt 0.163085938 0.906162441
vt 0.163085938 0.99579829
vt 0.194335938 0.99579829
vt 0.194335938 0.906162441
vt 0.327148438 0.906162441
vt 0.327148438 0.950980365
vt 0.358398438 0.950980365
vt 0.358398438 0.906162441
vt 0.424804688 0.906162441
vt 0.424804688 0.950980365
vt 0.456054688 0.950980365
vt 0.456054688 0.906162441
vt 0.458007812 0.906162441
vt 0.458007812 0.950980365
vt 0.489257812 0.950980365
vt 0.489257812 0.906162441
vt 0.491210938 0.906162441
vt 0.491210938 0.950980365
vt 0.522460938 0.950980365
vt 0.522460938 0.906162441
vt 0.524414062 0.906162441
vt 0.524414062 0.950980365
vt 0.555664062 0.950980365
vt 0.555664062 0.906162441
vt 0.821289062 0.911764681
vt 0.821289062 0.956582606
vt 0.852539062 0.956582606
vt 0.852539062 0.911764681
vt 0.948242188 0.911764681
vt 0.948242188 0.956582606
vt 0.979492188 0.956582606
vt 0.979492188 0.911764681
vt 0.725585938 0.914565802
vt 0.725585938 0.959383726
vt 0.756835938 0.959383726
vt 0.756835938 0.914565802
vt 0.758789062 0.914565802
vt 0.758789062 0.959383726
vt 0.790039062 0.959383726
vt 0.790039062 0.914565802
vt 0.0654296875 0.950980365
vt 0.0654296875 0.99579829
vt 0.0966796875 0.99579829
vt 0.0966796875 0.950980365
vt 0.227539062 0.950980365
vt 0.227539062 0.99579829
vt 0.258789062 0.99579829
vt 0.258789062 0.950980365
vt 0.260742188 0.950980365
vt 0.260742188 0.99579829
vt 0.291992188 0.99579829
vt 0.291992188 0.950980365
vt 0.293945312 0.950980365
vt 0.293945312 0.99579829
vt 0.325195312 0.99579829
vt 0.325195312 0.950980365
vt 0.391601562 0.950980365
vt 0.391601562 0.99579829
vt 0.422851562 0.99579829
vt 0.422851562 0.950980365
vt 0.883789062 0.950980365
vt 0.883789062 0.99579829
vt 0.915039062 0.99579829
vt 0.915039062 0.950980365
vt 0.0009765625 0.953781486
vt 0.0009765625 0.99859941
vt 0.0322265625 0.99859941
vt 0.0322265625 0.953781486
vt 0.0986328125 0.953781486
vt 0.0986328125 0.99859941
vt 0.129882812 0.99859941
vt 0.129882812 0.953781486
vt 0.327148438 0.953781486
vt 0.327148438 0.99859941
vt 0.358398438 0.99859941
vt 0.358398438 0.953781486
vt 0.424804688 0.953781486
vt 0.424804688 0.99859941
vt 0.456054688 0.99859941
vt 0.456054688 0.953781486
g U101_2-mesh_0
f 3/3/3 2/2/2 1/1/1
f 1/1/1 4/4/4 3/3/3
f 7/7/7 6/6/6 5/5/5
f 5/5/5 8/8/8 7/7/7
f 11/11/11 10/10/10 9/9/9
f 9/9/9 12/12/12 11/11/11
f 15/15/15 14/14/14 13/13/13
f 13/13/13 16/16/16 15/15/15
f 19/19/19 18/18/18 17/17/17
f 17/17/17 20/20/20 19/19/19
f 23/23/23 22/22/22 21/21/21
f 21/21/21 24/24/24 23/23/23
f 27/27/27 26/26/26 25/25/25
f 25/25/25 28/28/28 27/27/27
f 31/31/31 30/30/30 29/29/29
f 29/29/29 32/32/32 31/31/31
f 35/35/35 34/34/34 33/33/33
f 33/33/33 36/36/36 35/35/35
f 39/39/39 38/38/38 37/37/37
f 37/37/37 40/40/40 39/39/39
f 43/43/43 42/42/42 41/41/41
f 41/41/41 44/44/44 43/43/43
f 47/47/47 46/46/46 45/45/45
f 45/45/45 48/48/48 47/47/47
f 51/51/51 50/50/50 49/49/49
f 49/49/49 52/52/52 51/51/51
f 55/55/55 54/54/54 53/53/53
f 53/53/53 56/56/56 55/55/55
f 59/59/59 58/58/58 57/57/57
f 57/57/57 60/60/60 59/59/59
f 63/63/63 62/62/62 61/61/61
f 61/61/61 64/64/64 63/63/63
f 67/67/67 66/66/66 65/65/65
f 65/65/65 68/68/68 67/67/67
f 71/71/71 70/70/70 69/69/69
f 69/69/69 72/72/72 71/71/71
f 75/75/75 74/74/74 73/73/73
f 73/73/73 76/76/76 75/75/75
f 79/79/79 78/78/78 77/77/77
f 77/77/77 80/80/80 79/79/79
f 83/83/83 82/82/82 81/81/81
f 81/81/81 84/84/84 83/83/83
f 87/87/87 86/86/86 85/85/85
f 85/85/85 88/88/88 87/87/87
f 91/91/91 90/90/90 89/89/89
f 89/89/89 92/92/92 91/91/91
f 95/95/95 94/94/94 93/93/93
f 93/93/93 96/96/96 95/95/95
f 99/99/99 98/98/98 97/97/97
f 97/97/97 100/100/100 99/99/99
f 103/103/103 102/102/102 101/101/101
f 101/101/101 104/104/104 103/103/103
f 107/107/107 106/106/106 105/105/105
f 105/105/105 108/108/108 107/107/107
f 111/111/111 110/110/110 109/109/109
f 109/109/109 112/112/112 111/111/111
f 115/115/115 114/114/114 113/113/113
f 113/113/113 116/116/116 115/115/115
f 119/119/119 118/118/118 117/117/117
f 117/117/117 120/120/120 119/119/119
f 123/123/123 122/122/122 121/121/121
f 121/121/121 124/124/124 123/123/123
f 127/127/127 126/126/126 125/125/125
f 125/125/125 128/128/128 127/127/127
f 131/131/131 130/130/130 129/129/129
f 129/129/129 132/132/132 131/131/131
f 135/135/135 134/134/134 133/133/133
f 133/133/133 136/136/136 135/135/135
f 139/139/139 138/138/138 137/137/137
f 137/137/137 140/140/140 139/139/139
f 143/143/143 142/142/142 141/141/141
f 141/141/141 144/144/144 143/143/143
f 147/147/147 146/146/146 145/145/145
f 145/145/145 148/148/148 147/147/147
f 151/151/151 150/150/150 149/149/149
f 149/149/149 152/152/152 151/151/151
f 155/155/155 154/154/154 153/153/153
f 153/153/153 156/156/156 155/155/155
f 159/159/159 158/158/158 157/157/157
f 157/157/157 160/160/160 159/159/159
f 163/163/163 162/162/162 161/161/161
f 161/161/161 164/164/164 163/163/163
f 167/167/167 166/166/166 165/165/165
f 165/165/165 168/168/168 167/167/167
f 171/171/171 170/170/170 169/169/169
f 169/169/169 172/172/172 171/171/171
f 175/175/175 174/174/174 173/173/173
f 173/173/173 176/176/176 175/175/175
f 179/179/179 178/178/178 177/177/177
f 177/177/177 180/180/180 179/179/179
f 183/183/183 182/182/182 181/181/181
f 181/181/181 184/184/184 183/183/183
f 187/187/187 186/186/186 185/185/185
f 185/185/185 188/188/188 187/187/187
f 191/191/191 190/190/190 189/189/189
f 189/189/189 192/192/192 191/191/191
f 195/195/195 194/194/194 193/193/193
f 193/193/193 196/196/196 195/195/195
f 199/199/199 198/198/198 197/197/197
f 197/197/197 200/200/200 199/199/199
f 203/203/203 202/202/202 201/201/201
f 201/201/201 204/204/204 203/203/203
f 207/207/207 206/206/206 205/205/205
f 205/205/205 208/208/208 207/207/207
f 211/211/211 210/210/210 209/209/209
f 209/209/209 212/212/212 211/211/211
f 215/215/215 214/214/214 213/213/213
f 213/213/213 216/216/216 215/215/215
f 219/219/219 218/218/218 217/217/217
f 217/217/217 220/220/220 219/219/219
f 223/223/223 222/222/222 221/221/221
f 221/221/221 224/224/224 223/223/223
f 227/227/227 226/226/226 225/225/225
f 225/225/225 228/228/228 227/227/227
f 231/231/231 230/230/230 229/229/229
f 229/229/229 232/232/232 231/231/231
f 235/235/235 234/234/234 233/233/233
f 233/233/233 236/236/236 235/235/235
f 239/239/239 238/238/238 237/237/237
f 237/237/237 240/240/240 239/239/239
f 243/243/243 242/242/242 241/241/241
f 241/241/241 244/244/244 243/243/243
f 247/247/247 246/246/246 245/245/245
f 245/245/245 248/248/248 247/247/247
f 251/251/251 250/250/250 249/249/249
f 249/249/249 252/252/252 251/251/251
f 255/255/255 254/254/254 253/253/253
f 253/253/253 256/256/256 255/255/255
f 259/259/259 258/258/258 257/257/257
f 257/257/257 260/260/260 259/259/259
