g haiqi-mesh
v -480 735 0
v -480 1151 0
v -1280 1151 0
v -1280 735 0
v -480 1151 0
v -480 1567 0
v -1280 1567 0
v -1280 1151 0
v -1280 863 0
v -1280 1151 0
v -1568 1151 0
v -1568 863 0
v -320 575 0
v -320 959 0
v -480 959 0
v -480 575 0
v -320 959 0
v -320 1343 0
v -480 1343 0
v -480 959 0
v -960 1567 0
v -960 1727 0
v -1248 1727 0
v -1248 1567 0
v -672 1567 0
v -672 1727 0
v -960 1727 0
v -960 1567 0
v -768 351 0
v -768 735 0
v -864 735 0
v -864 351 0
v -768 0 0
v -768 351 0
v -864 351 0
v -864 0 0
v -1248 1599 0
v -1248 1855 0
v -1376 1855 0
v -1376 1599 0
v -864 0 0
v -864 223 0
v -992 223 0
v -992 0 0
v -192 1023 0
v -192 1439 0
v -256 1439 0
v -256 1023 0
v -192 607 0
v -192 1023 0
v -256 1023 0
v -256 607 0
v -480 1567 0
v -480 1727 0
v -640 1727 0
v -640 1567 0
v -1504 575 0
v -1504 735 0
v -1664 735 0
v -1664 575 0
v -992 1727 0
v -992 1823 0
v -1216 1823 0
v -1216 1727 0
v -1376 479 0
v -1376 639 0
v -1504 639 0
v -1504 479 0
v -1216 575 0
v -1216 703 0
v -1376 703 0
v -1376 575 0
v -1056 575 0
v -1056 703 0
v -1216 703 0
v -1216 575 0
v -896 351 0
v -896 415 0
v -1152 415 0
v -1152 351 0
v -992 63 0
v -992 191 0
v -1120 191 0
v -1120 63 0
v -64 703 0
v -64 831 0
v -192 831 0
v -192 703 0
v -1344 703 0
v -1344 831 0
v -1472 831 0
v -1472 703 0
v -864 639 0
v -864 735 0
v -1024 735 0
v -1024 639 0
v -704 1727 0
v -704 1823 0
v -864 1823 0
v -864 1727 0
v -1376 1279 0
v -1376 1439 0
v -1472 1439 0
v -1472 1279 0
v -1152 351 0
v -1152 415 0
v -1376 415 0
v -1376 351 0
v -256 767 0
v -256 991 0
v -320 991 0
v -320 767 0
v -256 575 0
v -256 767 0
v -320 767 0
v -320 575 0
v -1376 1151 0
v -1376 1279 0
v -1472 1279 0
v -1472 1151 0
v -1472 1375 0
v -1472 1471 0
v -1600 1471 0
v -1600 1375 0
v -352 31 0
v -352 159 0
v -448 159 0
v -448 31 0
v -640 415 0
v -640 575 0
v -704 575 0
v -704 415 0
v -640 575 0
v -640 735 0
v -704 735 0
v -704 575 0
v -448 127 0
v -448 191 0
v -608 191 0
v -608 127 0
v -608 127 0
v -608 191 0
v -768 191 0
v -768 127 0
v -1280 1279 0
v -1280 1439 0
v -1344 1439 0
v -1344 1279 0
v -320 1535 0
v -320 1663 0
v -384 1663 0
v -384 1535 0
v -1312 31 0
v -1312 159 0
v -1376 159 0
v -1376 31 0
v -1152 127 0
v -1152 191 0
v -1280 191 0
v -1280 127 0
v -704 607 0
v -704 735 0
v -768 735 0
v -768 607 0
v -96 991 0
v -96 1119 0
v -160 1119 0
v -160 991 0
v -96 863 0
v -96 991 0
v -160 991 0
v -160 863 0
v -1280 1151 0
v -1280 1279 0
v -1344 1279 0
v -1344 1151 0
v -832 1823 0
v -832 1887 0
v -960 1887 0
v -960 1823 0
v -1632 1503 0
v -1632 1599 0
v -1696 1599 0
v -1696 1503 0
v -1152 0 0
v -1152 63 0
v -1248 63 0
v -1248 0 0
v -1760 1055 0
v -1760 1151 0
v -1824 1151 0
v -1824 1055 0
v -544 575 0
v -544 639 0
v -640 639 0
v -640 575 0
v -1408 383 0
v -1408 479 0
v -1472 479 0
v -1472 383 0
v -1696 1183 0
v -1696 1279 0
v -1760 1279 0
v -1760 1183 0
v -384 1439 0
v -384 1535 0
v -448 1535 0
v -448 1439 0
v -256 1343 0
v -256 1407 0
v -352 1407 0
v -352 1343 0
v -1632 1279 0
v -1632 1375 0
v -1696 1375 0
v -1696 1279 0
v -448 0 0
v -448 63 0
v -544 63 0
v -544 0 0
v -1696 735 0
v -1696 831 0
v -1760 831 0
v -1760 735 0
v -480 639 0
v -480 735 0
v -544 735 0
v -544 639 0
v -704 255 0
v -704 351 0
v -768 351 0
v -768 255 0
v -608 63 0
v -608 127 0
v -704 127 0
v -704 63 0
v -32 927 0
v -32 1023 0
v -96 1023 0
v -96 927 0
v -256 1663 0
v -256 1759 0
v -320 1759 0
v -320 1663 0
v -32 831 0
v -32 927 0
v -96 927 0
v -96 831 0
v -1568 959 0
v -1568 1119 0
v -1600 1119 0
v -1600 959 0
v -1056 1855 0
v -1056 1887 0
v -1216 1887 0
v -1216 1855 0
v -1280 799 0
v -1280 863 0
v -1344 863 0
v -1344 799 0
v -1696 671 0
v -1696 735 0
v -1760 735 0
v -1760 671 0
v -256 1599 0
v -256 1663 0
v -320 1663 0
v -320 1599 0
v -1504 1311 0
v -1504 1375 0
v -1568 1375 0
v -1568 1311 0
v -1600 895 0
v -1600 959 0
v -1664 959 0
v -1664 895 0
v -0 1119 0
v -0 1183 0
v -64 1183 0
v -64 1119 0
v -1568 831 0
v -1568 959 0
v -1600 959 0
v -1600 831 0
v -704 63 0
v -704 127 0
v -768 127 0
v -768 63 0
v -1216 1855 0
v -1216 1887 0
v -1344 1887 0
v -1344 1855 0
v -544 0 0
v -544 63 0
v -608 63 0
v -608 0 0
v -1248 0 0
v -1248 63 0
v -1312 63 0
v -1312 0 0
v -1440 639 0
v -1440 703 0
v -1504 703 0
v -1504 639 0
v -480 575 0
v -480 639 0
v -544 639 0
v -544 575 0
v -1632 799 0
v -1632 863 0
v -1696 863 0
v -1696 799 0
v -160 1311 0
v -160 1439 0
v -192 1439 0
v -192 1311 0
v -704 191 0
v -704 255 0
v -768 255 0
v -768 191 0
v -928 1887 0
v -928 1919 0
v -1024 1919 0
v -1024 1887 0
v -1600 1471 0
v -1600 1567 0
v -1632 1567 0
v -1632 1471 0
v -1376 1727 0
v -1376 1823 0
v -1408 1823 0
v -1408 1727 0
v -1120 703 0
v -1120 735 0
v -1216 735 0
v -1216 703 0
v -992 0 0
v -992 31 0
v -1088 31 0
v -1088 0 0
v -608 0 0
v -608 31 0
v -704 31 0
v -704 0 0
v -864 543 0
v -864 639 0
v -896 639 0
v -896 543 0
v -992 1919 0
v -992 1951 0
v -1088 1951 0
v -1088 1919 0
v -1120 1983 0
v -1120 2015 0
v -1216 2015 0
v -1216 1983 0
v -288 1087 0
v -288 1183 0
v -320 1183 0
v -320 1087 0
v -1472 1151 0
v -1472 1247 0
v -1504 1247 0
v -1504 1151 0
v -288 991 0
v -288 1087 0
v -320 1087 0
v -320 991 0
v -704 383 0
v -704 479 0
v -736 479 0
v -736 383 0
v -704 479 0
v -704 575 0
v -736 575 0
v -736 479 0
v -160 1215 0
v -160 1311 0
v -192 1311 0
v -192 1215 0
v -1472 1247 0
v -1472 1343 0
v -1504 1343 0
v -1504 1247 0
v -1344 1343 0
v -1344 1439 0
v -1376 1439 0
v -1376 1343 0
v -1344 1247 0
v -1344 1343 0
v -1376 1343 0
v -1376 1247 0
v -1056 1951 0
v -1056 1983 0
v -1152 1983 0
v -1152 1951 0
v -448 1695 0
v -448 1759 0
v -480 1759 0
v -480 1695 0
v -640 1695 0
v -640 1759 0
v -672 1759 0
v -672 1695 0
v -1632 1439 0
v -1632 1503 0
v -1664 1503 0
v -1664 1439 0
v -416 1375 0
v -416 1439 0
v -448 1439 0
v -448 1375 0
v -1312 1567 0
v -1312 1599 0
v -1376 1599 0
v -1376 1567 0
v -1568 1471 0
v -1568 1535 0
v -1600 1535 0
v -1600 1471 0
v -224 1695 0
v -224 1759 0
v -256 1759 0
v -256 1695 0
v -96 671 0
v -96 703 0
v -160 703 0
v -160 671 0
v -288 543 0
v -288 575 0
v -352 575 0
v -352 543 0
v -1152 543 0
v -1152 575 0
v -1216 575 0
v -1216 543 0
v -160 863 0
v -160 927 0
v -192 927 0
v -192 863 0
v -1472 799 0
v -1472 863 0
v -1504 863 0
v -1504 799 0
v -1760 735 0
v -1760 799 0
v -1792 799 0
v -1792 735 0
v -864 1759 0
v -864 1823 0
v -896 1823 0
v -896 1759 0
v -960 1727 0
v -960 1791 0
v -992 1791 0
v -992 1727 0
v -1216 1727 0
v -1216 1791 0
v -1248 1791 0
v -1248 1727 0
v -960 1855 0
v -960 1887 0
v -1024 1887 0
v -1024 1855 0
v -768 1823 0
v -768 1855 0
v -832 1855 0
v -832 1823 0
v -1184 1823 0
v -1184 1855 0
v -1248 1855 0
v -1248 1823 0
v -1600 543 0
v -1600 575 0
v -1664 575 0
v -1664 543 0
v -896 415 0
v -896 479 0
v -928 479 0
v -928 415 0
v -896 575 0
v -896 639 0
v -928 639 0
v -928 575 0
v -1664 575 0
v -1664 639 0
v -1696 639 0
v -1696 575 0
v -1376 63 0
v -1376 127 0
v -1408 127 0
v -1408 63 0
v -320 63 0
v -320 127 0
v -352 127 0
v -352 63 0
v -672 191 0
v -672 255 0
v -704 255 0
v -704 191 0
v -1248 447 0
v -1248 479 0
v -1312 479 0
v -1312 447 0
v -1344 415 0
v -1344 447 0
v -1408 447 0
v -1408 415 0
v -1024 607 0
v -1024 671 0
v -1056 671 0
v -1056 607 0
v -128 1247 0
v -128 1311 0
v -160 1311 0
v -160 1247 0
v -1760 1151 0
v -1760 1215 0
v -1792 1215 0
v -1792 1151 0
v -352 1343 0
v -352 1375 0
v -416 1375 0
v -416 1343 0
v -1696 1279 0
v -1696 1343 0
v -1728 1343 0
v -1728 1279 0
v -1728 1119 0
v -1728 1183 0
v -1760 1183 0
v -1760 1119 0
v -1600 735 0
v -1600 767 0
v -1664 767 0
v -1664 735 0
v -1664 671 0
v -1664 735 0
v -1696 735 0
v -1696 671 0
v -1856 991 0
v -1856 1055 0
v -1863 1055 0
v -1863 991 0
v -1504 799 0
v -1504 863 0
v -1536 863 0
v -1536 799 0
v -1824 991 0
v -1824 1055 0
v -1856 1055 0
v -1856 991 0
v -160 1023 0
v -160 1087 0
v -192 1087 0
v -192 1023 0
v -1824 1055 0
v -1824 1119 0
v -1856 1119 0
v -1856 1055 0
v -448 1407 0
v -448 1471 0
v -480 1471 0
v -480 1407 0
v -448 1343 0
v -448 1407 0
v -480 1407 0
v -480 1343 0
v -1184 479 0
v -1184 511 0
v -1248 511 0
v -1248 479 0
v -1248 479 0
v -1248 511 0
v -1312 511 0
v -1312 479 0
v -608 447 0
v -608 511 0
v -640 511 0
v -640 447 0
v -160 959 0
v -160 1023 0
v -192 1023 0
v -192 959 0
v -608 511 0
v -608 575 0
v -640 575 0
v -640 511 0
v -1248 2015 0
v -1248 2047 0
v -1312 2047 0
v -1312 2015 0
v -1024 1887 0
v -1024 1919 0
v -1088 1919 0
v -1088 1887 0
v -1376 1663 0
v -1376 1727 0
v -1408 1727 0
v -1408 1663 0
v -1088 1919 0
v -1088 1951 0
v -1152 1951 0
v -1152 1919 0
v -1216 1983 0
v -1216 2015 0
v -1280 2015 0
v -1280 1983 0
v -1152 1951 0
v -1152 1983 0
v -1216 1983 0
v -1216 1951 0
v -1088 0 0
v -1088 31 0
v -1152 31 0
v -1152 0 0
v -1184 2015 0
v -1184 2047 0
v -1248 2047 0
v -1248 2015 0
v -704 0 0
v -704 31 0
v -768 31 0
v -768 0 0
v -1216 703 0
v -1216 735 0
v -1280 735 0
v -1280 703 0
v -864 479 0
v -864 543 0
v -896 543 0
v -896 479 0
v -736 415 0
v -736 479 0
v -768 479 0
v -768 415 0
v -0 895 0
v -0 959 0
v -32 959 0
v -32 895 0
v -1280 1471 0
v -1280 1535 0
v -1312 1535 0
v -1312 1471 0
v -288 1279 0
v -288 1343 0
v -320 1343 0
v -320 1279 0
v -1600 1407 0
v -1600 1471 0
v -1632 1471 0
v -1632 1407 0
v -64 1087 0
v -64 1151 0
v -96 1151 0
v -96 1087 0
v -640 1599 0
v -640 1663 0
v -672 1663 0
v -672 1599 0
v -864 383 0
v -864 447 0
v -896 447 0
v -896 383 0
v -864 319 0
v -864 383 0
v -896 383 0
v -896 319 0
v -736 351 0
v -736 415 0
v -768 415 0
v -768 351 0
v -1056 1823 0
v -1056 1855 0
v -1120 1855 0
v -1120 1823 0
v -1664 767 0
v -1664 799 0
v -1696 799 0
v -1696 767 0
v -1600 863 0
v -1600 895 0
v -1632 895 0
v -1632 863 0
v -1312 703 0
v -1312 735 0
v -1344 735 0
v -1344 703 0
v -608 703 0
v -608 735 0
v -640 735 0
v -640 703 0
v -1792 1023 0
v -1792 1055 0
v -1824 1055 0
v -1824 1023 0
v -1344 1151 0
v -1344 1183 0
v -1376 1183 0
v -1376 1151 0
v -32 1087 0
v -32 1119 0
v -64 1119 0
v -64 1087 0
v -1536 831 0
v -1536 863 0
v -1568 863 0
v -1568 831 0
v -1344 831 0
v -1344 863 0
v -1376 863 0
v -1376 831 0
v -128 831 0
v -128 863 0
v -160 863 0
v -160 831 0
v -736 31 0
v -736 63 0
v -768 63 0
v -768 31 0
v -576 543 0
v -576 575 0
v -608 575 0
v -608 543 0
v -1344 543 0
v -1344 575 0
v -1376 575 0
v -1376 543 0
v -224 575 0
v -224 607 0
v -256 607 0
v -256 575 0
v -160 639 0
v -160 671 0
v -192 671 0
v -192 639 0
v -1376 639 0
v -1376 671 0
v -1408 671 0
v -1408 639 0
v -1376 383 0
v -1376 415 0
v -1408 415 0
v -1408 383 0
v -1120 159 0
v -1120 191 0
v -1152 191 0
v -1152 159 0
v -1280 127 0
v -1280 159 0
v -1312 159 0
v -1312 127 0
v -1472 703 0
v -1472 735 0
v -1504 735 0
v -1504 703 0
v -672 287 0
v -672 319 0
v -704 319 0
v -704 287 0
v -992 191 0
v -992 223 0
v -1024 223 0
v -1024 191 0
v -1664 1247 0
v -1664 1279 0
v -1696 1279 0
v -1696 1247 0
v -1216 543 0
v -1216 575 0
v -1248 575 0
v -1248 543 0
v -352 543 0
v -352 575 0
v -384 575 0
v -384 543 0
v -1280 1439 0
v -1280 1471 0
v -1312 1471 0
v -1312 1439 0
v -1120 1823 0
v -1120 1855 0
v -1152 1855 0
v -1152 1823 0
v -640 1567 0
v -640 1599 0
v -672 1599 0
v -672 1567 0
v -288 1247 0
v -288 1279 0
v -320 1279 0
v -320 1247 0
v -1472 767 0
v -1472 799 0
v -1504 799 0
v -1504 767 0
v -160 831 0
v -160 863 0
v -192 863 0
v -192 831 0
v -64 1055 0
v -64 1087 0
v -96 1087 0
v -96 1055 0
v -160 671 0
v -160 703 0
v -192 703 0
v -192 671 0
v -1760 703 0
v -1760 735 0
v -1792 735 0
v -1792 703 0
v -1536 1471 0
v -1536 1503 0
v -1568 1503 0
v -1568 1471 0
v -352 1503 0
v -352 1535 0
v -384 1535 0
v -384 1503 0
v -1440 1439 0
v -1440 1471 0
v -1472 1471 0
v -1472 1439 0
v -1504 1279 0
v -1504 1311 0
v -1536 1311 0
v -1536 1279 0
v -256 1407 0
v -256 1439 0
v -288 1439 0
v -288 1407 0
v -384 1535 0
v -384 1567 0
v -416 1567 0
v -416 1535 0
v -480 1727 0
v -480 1759 0
v -512 1759 0
v -512 1727 0
v -0 863 0
v -0 895 0
v -32 895 0
v -32 863 0
v -672 1727 0
v -672 1759 0
v -704 1759 0
v -704 1727 0
v -288 1567 0
v -288 1599 0
v -320 1599 0
v -320 1567 0
v -320 1663 0
v -320 1695 0
v -352 1695 0
v -352 1663 0
vt 0.00048828125 0.000877201557
vt 0.00048828125 0.365789473
vt 0.391113281 0.365789473
vt 0.391113281 0.000877201557
vt 0.392089844 0.000877201557
vt 0.392089844 0.365789473
vt 0.782714844 0.365789473
vt 0.782714844 0.000877201557
vt 0.783691406 0.000877201557
vt 0.783691406 0.253508747
vt 0.924316406 0.253508747
vt 0.924316406 0.000877201557
vt 0.783691406 0.25526315
vt 0.783691406 0.592105269
vt 0.861816406 0.592105269
vt 0.861816406 0.25526315
vt 0.862792969 0.25526315
vt 0.862792969 0.592105269
vt 0.940917969 0.592105269
vt 0.940917969 0.25526315
vt 0.00048828125 0.367543876
vt 0.00048828125 0.507894754
vt 0.141113281 0.507894754
vt 0.141113281 0.367543876
vt 0.142089844 0.367543876
vt 0.142089844 0.507894754
vt 0.282714844 0.507894754
vt 0.282714844 0.367543876
vt 0.941894531 0.000877201557
vt 0.941894531 0.337719321
vt 0.988769531 0.337719321
vt 0.988769531 0.000877201557
vt 0.941894531 0.339473665
vt 0.941894531 0.648245573
vt 0.988769531 0.648245573
vt 0.988769531 0.339473665
vt 0.283691406 0.367543876
vt 0.283691406 0.592105269
vt 0.346191406 0.592105269
vt 0.346191406 0.367543876
vt 0.347167969 0.367543876
vt 0.347167969 0.564035058
vt 0.409667969 0.564035058
vt 0.409667969 0.367543876
vt 0.410644531 0.367543876
vt 0.410644531 0.732456148
vt 0.441894531 0.732456148
vt 0.441894531 0.367543876
vt 0.442871094 0.367543876
vt 0.442871094 0.732456148
vt 0.474121094 0.732456148
vt 0.474121094 0.367543876
vt 0.475097656 0.367543876
vt 0.475097656 0.507894754
vt 0.553222656 0.507894754
vt 0.553222656 0.367543876
vt 0.554199219 0.367543876
vt 0.554199219 0.507894754
vt 0.632324219 0.507894754
vt 0.632324219 0.367543876
vt 0.633300781 0.367543876
vt 0.633300781 0.451754391
vt 0.742675781 0.451754391
vt 0.742675781 0.367543876
vt 0.633300781 0.453508794
vt 0.633300781 0.593859673
vt 0.695800781 0.593859673
vt 0.695800781 0.453508794
vt 0.696777344 0.453508794
vt 0.696777344 0.565789461
vt 0.774902344 0.565789461
vt 0.774902344 0.453508794
vt 0.00048828125 0.509649158
vt 0.00048828125 0.621929824
vt 0.0786132812 0.621929824
vt 0.0786132812 0.509649158
vt 0.0795898438 0.509649158
vt 0.0795898438 0.565789461
vt 0.204589844 0.565789461
vt 0.204589844 0.509649158
vt 0.205566406 0.509649158
vt 0.205566406 0.621929824
vt 0.268066406 0.621929824
vt 0.268066406 0.509649158
vt 0.475097656 0.509649158
vt 0.475097656 0.621929824
vt 0.537597656 0.621929824
vt 0.537597656 0.509649158
vt 0.538574219 0.509649158
vt 0.538574219 0.621929824
vt 0.601074219 0.621929824
vt 0.601074219 0.509649158
vt 0.0795898438 0.567543864
vt 0.0795898438 0.651754379
vt 0.157714844 0.651754379
vt 0.157714844 0.567543864
vt 0.696777344 0.567543864
vt 0.696777344 0.651754379
vt 0.774902344 0.651754379
vt 0.774902344 0.567543864
vt 0.347167969 0.565789461
vt 0.347167969 0.706140339
vt 0.394042969 0.706140339
vt 0.394042969 0.565789461
vt 0.783691406 0.593859673
vt 0.783691406 0.649999976
vt 0.893066406 0.649999976
vt 0.893066406 0.593859673
vt 0.158691406 0.567543864
vt 0.158691406 0.764035106
vt 0.189941406 0.764035106
vt 0.189941406 0.567543864
vt 0.283691406 0.593859673
vt 0.283691406 0.762280703
vt 0.314941406 0.762280703
vt 0.314941406 0.593859673
vt 0.894042969 0.593859673
vt 0.894042969 0.706140339
vt 0.940917969 0.706140339
vt 0.940917969 0.593859673
vt 0.633300781 0.595614076
vt 0.633300781 0.679824591
vt 0.695800781 0.679824591
vt 0.695800781 0.595614076
vt 0.00048828125 0.623684168
vt 0.00048828125 0.735964894
vt 0.0473632812 0.735964894
vt 0.0473632812 0.623684168
vt 0.205566406 0.623684168
vt 0.205566406 0.764035106
vt 0.236816406 0.764035106
vt 0.236816406 0.623684168
vt 0.237792969 0.623684168
vt 0.237792969 0.764035106
vt 0.269042969 0.764035106
vt 0.269042969 0.623684168
vt 0.475097656 0.623684168
vt 0.475097656 0.679824591
vt 0.553222656 0.679824591
vt 0.553222656 0.623684168
vt 0.554199219 0.623684168
vt 0.554199219 0.679824591
vt 0.632324219 0.679824591
vt 0.632324219 0.623684168
vt 0.941894531 0.649999976
vt 0.941894531 0.790350914
vt 0.973144531 0.790350914
vt 0.973144531 0.649999976
vt 0.783691406 0.651754379
vt 0.783691406 0.764035106
vt 0.814941406 0.764035106
vt 0.814941406 0.651754379
vt 0.815917969 0.651754379
vt 0.815917969 0.764035106
vt 0.847167969 0.764035106
vt 0.847167969 0.651754379
vt 0.0795898438 0.653508782
vt 0.0795898438 0.709649086
vt 0.142089844 0.709649086
vt 0.142089844 0.653508782
vt 0.848144531 0.651754379
vt 0.848144531 0.764035106
vt 0.879394531 0.764035106
vt 0.879394531 0.651754379
vt 0.696777344 0.653508782
vt 0.696777344 0.765789509
vt 0.728027344 0.765789509
vt 0.728027344 0.653508782
vt 0.729003906 0.653508782
vt 0.729003906 0.765789509
vt 0.760253906 0.765789509
vt 0.760253906 0.653508782
vt 0.475097656 0.681578934
vt 0.475097656 0.793859661
vt 0.506347656 0.793859661
vt 0.506347656 0.681578934
vt 0.507324219 0.681578934
vt 0.507324219 0.737719297
vt 0.569824219 0.737719297
vt 0.569824219 0.681578934
vt 0.570800781 0.681578934
vt 0.570800781 0.765789509
vt 0.602050781 0.765789509
vt 0.602050781 0.681578934
vt 0.603027344 0.681578934
vt 0.603027344 0.737719297
vt 0.649902344 0.737719297
vt 0.649902344 0.681578934
vt 0.650878906 0.681578934
vt 0.650878906 0.765789509
vt 0.682128906 0.765789509
vt 0.682128906 0.681578934
vt 0.347167969 0.707894742
vt 0.347167969 0.764035106
vt 0.394042969 0.764035106
vt 0.394042969 0.707894742
vt 0.894042969 0.707894742
vt 0.894042969 0.792105258
vt 0.925292969 0.792105258
vt 0.925292969 0.707894742
vt 0.0795898438 0.711403489
vt 0.0795898438 0.795614004
vt 0.110839844 0.795614004
vt 0.110839844 0.711403489
vt 0.111816406 0.711403489
vt 0.111816406 0.795614004
vt 0.143066406 0.795614004
vt 0.143066406 0.711403489
vt 0.410644531 0.734210491
vt 0.410644531 0.790350914
vt 0.457519531 0.790350914
vt 0.457519531 0.734210491
vt 0.00048828125 0.737719297
vt 0.00048828125 0.821929812
vt 0.0317382812 0.821929812
vt 0.0317382812 0.737719297
vt 0.507324219 0.739473701
vt 0.507324219 0.795614004
vt 0.554199219 0.795614004
vt 0.554199219 0.739473701
vt 0.0327148438 0.737719297
vt 0.0327148438 0.821929812
vt 0.0639648438 0.821929812
vt 0.0639648438 0.737719297
vt 0.603027344 0.739473701
vt 0.603027344 0.823684216
vt 0.634277344 0.823684216
vt 0.634277344 0.739473701
vt 0.283691406 0.764035106
vt 0.283691406 0.848245621
vt 0.314941406 0.848245621
vt 0.314941406 0.764035106
vt 0.158691406 0.765789509
vt 0.158691406 0.821929812
vt 0.205566406 0.821929812
vt 0.205566406 0.765789509
vt 0.206542969 0.765789509
vt 0.206542969 0.850000024
vt 0.237792969 0.850000024
vt 0.237792969 0.765789509
vt 0.238769531 0.765789509
vt 0.238769531 0.850000024
vt 0.270019531 0.850000024
vt 0.270019531 0.765789509
vt 0.347167969 0.765789509
vt 0.347167969 0.850000024
vt 0.378417969 0.850000024
vt 0.378417969 0.765789509
vt 0.315917969 0.593859673
vt 0.315917969 0.734210491
vt 0.331542969 0.734210491
vt 0.331542969 0.593859673
vt 0.783691406 0.765789509
vt 0.783691406 0.793859661
vt 0.861816406 0.793859661
vt 0.861816406 0.765789509
vt 0.570800781 0.767543852
vt 0.570800781 0.823684216
vt 0.602050781 0.823684216
vt 0.602050781 0.767543852
vt 0.650878906 0.767543852
vt 0.650878906 0.823684216
vt 0.682128906 0.823684216
vt 0.682128906 0.767543852
vt 0.696777344 0.767543852
vt 0.696777344 0.823684216
vt 0.728027344 0.823684216
vt 0.728027344 0.767543852
vt 0.729003906 0.767543852
vt 0.729003906 0.823684216
vt 0.760253906 0.823684216
vt 0.760253906 0.767543852
vt 0.410644531 0.792105258
vt 0.410644531 0.848245621
vt 0.441894531 0.848245621
vt 0.441894531 0.792105258
vt 0.442871094 0.792105258
vt 0.442871094 0.848245621
vt 0.474121094 0.848245621
vt 0.474121094 0.792105258
vt 0.974121094 0.649999976
vt 0.974121094 0.762280703
vt 0.989746094 0.762280703
vt 0.989746094 0.649999976
vt 0.941894531 0.792105258
vt 0.941894531 0.848245621
vt 0.973144531 0.848245621
vt 0.973144531 0.792105258
vt 0.783691406 0.795614004
vt 0.783691406 0.823684216
vt 0.846191406 0.823684216
vt 0.846191406 0.795614004
vt 0.894042969 0.793859661
vt 0.894042969 0.850000024
vt 0.925292969 0.850000024
vt 0.925292969 0.793859661
vt 0.475097656 0.795614004
vt 0.475097656 0.851754367
vt 0.506347656 0.851754367
vt 0.506347656 0.795614004
vt 0.847167969 0.795614004
vt 0.847167969 0.851754367
vt 0.878417969 0.851754367
vt 0.878417969 0.795614004
vt 0.0795898438 0.797368407
vt 0.0795898438 0.85350877
vt 0.110839844 0.85350877
vt 0.110839844 0.797368407
vt 0.111816406 0.797368407
vt 0.111816406 0.85350877
vt 0.143066406 0.85350877
vt 0.143066406 0.797368407
vt 0.761230469 0.653508782
vt 0.761230469 0.765789509
vt 0.776855469 0.765789509
vt 0.776855469 0.653508782
vt 0.507324219 0.797368407
vt 0.507324219 0.85350877
vt 0.538574219 0.85350877
vt 0.538574219 0.797368407
vt 0.00048828125 0.823684216
vt 0.00048828125 0.851754367
vt 0.0473632812 0.851754367
vt 0.0473632812 0.823684216
vt 0.315917969 0.735964894
vt 0.315917969 0.820175409
vt 0.331542969 0.820175409
vt 0.331542969 0.735964894
vt 0.974121094 0.764035106
vt 0.974121094 0.848245621
vt 0.989746094 0.848245621
vt 0.989746094 0.764035106
vt 0.158691406 0.823684216
vt 0.158691406 0.851754367
vt 0.205566406 0.851754367
vt 0.205566406 0.823684216
vt 0.570800781 0.825438619
vt 0.570800781 0.85350877
vt 0.617675781 0.85350877
vt 0.617675781 0.825438619
vt 0.618652344 0.825438619
vt 0.618652344 0.85350877
vt 0.665527344 0.85350877
vt 0.665527344 0.825438619
vt 0.379394531 0.765789509
vt 0.379394531 0.850000024
vt 0.395019531 0.850000024
vt 0.395019531 0.765789509
vt 0.666503906 0.825438619
vt 0.666503906 0.85350877
vt 0.713378906 0.85350877
vt 0.713378906 0.825438619
vt 0.714355469 0.825438619
vt 0.714355469 0.85350877
vt 0.761230469 0.85350877
vt 0.761230469 0.825438619
vt 0.762207031 0.767543852
vt 0.762207031 0.851754367
vt 0.777832031 0.851754367
vt 0.777832031 0.767543852
vt 0.539550781 0.797368407
vt 0.539550781 0.881578922
vt 0.555175781 0.881578922
vt 0.555175781 0.797368407
vt 0.315917969 0.821929812
vt 0.315917969 0.906140327
vt 0.331542969 0.906140327
vt 0.331542969 0.821929812
vt 0.0483398438 0.823684216
vt 0.0483398438 0.907894731
vt 0.0639648438 0.907894731
vt 0.0639648438 0.823684216
vt 0.783691406 0.825438619
vt 0.783691406 0.909649134
vt 0.799316406 0.909649134
vt 0.799316406 0.825438619
vt 0.800292969 0.825438619
vt 0.800292969 0.909649134
vt 0.815917969 0.909649134
vt 0.815917969 0.825438619
vt 0.816894531 0.825438619
vt 0.816894531 0.909649134
vt 0.832519531 0.909649134
vt 0.832519531 0.825438619
vt 0.283691406 0.850000024
vt 0.283691406 0.934210539
vt 0.299316406 0.934210539
vt 0.299316406 0.850000024
vt 0.410644531 0.850000024
vt 0.410644531 0.934210539
vt 0.426269531 0.934210539
vt 0.426269531 0.850000024
vt 0.427246094 0.850000024
vt 0.427246094 0.878070176
vt 0.474121094 0.878070176
vt 0.474121094 0.850000024
vt 0.941894531 0.850000024
vt 0.941894531 0.906140327
vt 0.957519531 0.906140327
vt 0.957519531 0.850000024
vt 0.958496094 0.850000024
vt 0.958496094 0.906140327
vt 0.974121094 0.906140327
vt 0.974121094 0.850000024
vt 0.975097656 0.850000024
vt 0.975097656 0.906140327
vt 0.990722656 0.906140327
vt 0.990722656 0.850000024
vt 0.206542969 0.851754367
vt 0.206542969 0.907894731
vt 0.222167969 0.907894731
vt 0.222167969 0.851754367
vt 0.223144531 0.851754367
vt 0.223144531 0.879824579
vt 0.254394531 0.879824579
vt 0.254394531 0.851754367
vt 0.255371094 0.851754367
vt 0.255371094 0.907894731
vt 0.270996094 0.907894731
vt 0.270996094 0.851754367
vt 0.347167969 0.851754367
vt 0.347167969 0.907894731
vt 0.362792969 0.907894731
vt 0.362792969 0.851754367
vt 0.363769531 0.851754367
vt 0.363769531 0.879824579
vt 0.395019531 0.879824579
vt 0.395019531 0.851754367
vt 0.894042969 0.851754367
vt 0.894042969 0.879824579
vt 0.925292969 0.879824579
vt 0.925292969 0.851754367
vt 0.00048828125 0.85350877
vt 0.00048828125 0.881578922
vt 0.0317382812 0.881578922
vt 0.0317382812 0.85350877
vt 0.158691406 0.85350877
vt 0.158691406 0.909649134
vt 0.174316406 0.909649134
vt 0.174316406 0.85350877
vt 0.175292969 0.85350877
vt 0.175292969 0.909649134
vt 0.190917969 0.909649134
vt 0.190917969 0.85350877
vt 0.475097656 0.85350877
vt 0.475097656 0.909649134
vt 0.490722656 0.909649134
vt 0.490722656 0.85350877
vt 0.762207031 0.85350877
vt 0.762207031 0.909649134
vt 0.777832031 0.909649134
vt 0.777832031 0.85350877
vt 0.847167969 0.85350877
vt 0.847167969 0.909649134
vt 0.862792969 0.909649134
vt 0.862792969 0.85350877
vt 0.863769531 0.85350877
vt 0.863769531 0.909649134
vt 0.879394531 0.909649134
vt 0.879394531 0.85350877
vt 0.0795898438 0.855263174
vt 0.0795898438 0.883333325
vt 0.110839844 0.883333325
vt 0.110839844 0.855263174
vt 0.111816406 0.855263174
vt 0.111816406 0.883333325
vt 0.143066406 0.883333325
vt 0.143066406 0.855263174
vt 0.507324219 0.855263174
vt 0.507324219 0.883333325
vt 0.538574219 0.883333325
vt 0.538574219 0.855263174
vt 0.570800781 0.855263174
vt 0.570800781 0.883333325
vt 0.602050781 0.883333325
vt 0.602050781 0.855263174
vt 0.603027344 0.855263174
vt 0.603027344 0.911403537
vt 0.618652344 0.911403537
vt 0.618652344 0.855263174
vt 0.619628906 0.855263174
vt 0.619628906 0.911403537
vt 0.635253906 0.911403537
vt 0.635253906 0.855263174
vt 0.636230469 0.855263174
vt 0.636230469 0.911403537
vt 0.651855469 0.911403537
vt 0.651855469 0.855263174
vt 0.652832031 0.855263174
vt 0.652832031 0.911403537
vt 0.668457031 0.911403537
vt 0.668457031 0.855263174
vt 0.669433594 0.855263174
vt 0.669433594 0.911403537
vt 0.685058594 0.911403537
vt 0.685058594 0.855263174
vt 0.686035156 0.855263174
vt 0.686035156 0.911403537
vt 0.701660156 0.911403537
vt 0.701660156 0.855263174
vt 0.702636719 0.855263174
vt 0.702636719 0.883333325
vt 0.733886719 0.883333325
vt 0.733886719 0.855263174
vt 0.427246094 0.879824579
vt 0.427246094 0.907894731
vt 0.458496094 0.907894731
vt 0.458496094 0.879824579
vt 0.734863281 0.855263174
vt 0.734863281 0.911403537
vt 0.750488281 0.911403537
vt 0.750488281 0.855263174
vt 0.223144531 0.881578922
vt 0.223144531 0.937719285
vt 0.238769531 0.937719285
vt 0.238769531 0.881578922
vt 0.363769531 0.881578922
vt 0.363769531 0.937719285
vt 0.379394531 0.937719285
vt 0.379394531 0.881578922
vt 0.894042969 0.881578922
vt 0.894042969 0.909649134
vt 0.925292969 0.909649134
vt 0.925292969 0.881578922
vt 0.380371094 0.881578922
vt 0.380371094 0.937719285
vt 0.395996094 0.937719285
vt 0.395996094 0.881578922
vt 0.00048828125 0.883333325
vt 0.00048828125 0.939473689
vt 0.0161132812 0.939473689
vt 0.0161132812 0.883333325
vt 0.0795898438 0.885087729
vt 0.0795898438 0.91315788
vt 0.110839844 0.91315788
vt 0.110839844 0.885087729
vt 0.0170898438 0.883333325
vt 0.0170898438 0.939473689
vt 0.0327148438 0.939473689
vt 0.0327148438 0.883333325
vt 0.991699219 0.000877201557
vt 0.991699219 0.0570175648
vt 0.995605469 0.0570175648
vt 0.995605469 0.000877201557
vt 0.539550781 0.883333325
vt 0.539550781 0.939473689
vt 0.555175781 0.939473689
vt 0.555175781 0.883333325
vt 0.111816406 0.885087729
vt 0.111816406 0.941228092
vt 0.127441406 0.941228092
vt 0.127441406 0.885087729
vt 0.128417969 0.885087729
vt 0.128417969 0.941228092
vt 0.144042969 0.941228092
vt 0.144042969 0.885087729
vt 0.507324219 0.885087729
vt 0.507324219 0.941228092
vt 0.522949219 0.941228092
vt 0.522949219 0.885087729
vt 0.570800781 0.885087729
vt 0.570800781 0.941228092
vt 0.586425781 0.941228092
vt 0.586425781 0.885087729
vt 0.702636719 0.885087729
vt 0.702636719 0.941228092
vt 0.718261719 0.941228092
vt 0.718261719 0.885087729
vt 0.941894531 0.907894731
vt 0.941894531 0.935964942
vt 0.973144531 0.935964942
vt 0.973144531 0.907894731
vt 0.427246094 0.909649134
vt 0.427246094 0.937719285
vt 0.458496094 0.937719285
vt 0.458496094 0.909649134
vt 0.315917969 0.907894731
vt 0.315917969 0.964035094
vt 0.331542969 0.964035094
vt 0.331542969 0.907894731
vt 0.974121094 0.907894731
vt 0.974121094 0.964035094
vt 0.989746094 0.964035094
vt 0.989746094 0.907894731
vt 0.0483398438 0.909649134
vt 0.0483398438 0.965789497
vt 0.0639648438 0.965789497
vt 0.0639648438 0.909649134
vt 0.158691406 0.911403537
vt 0.158691406 0.939473689
vt 0.189941406 0.939473689
vt 0.189941406 0.911403537
vt 0.190917969 0.911403537
vt 0.190917969 0.939473689
vt 0.222167969 0.939473689
vt 0.222167969 0.911403537
vt 0.255371094 0.909649134
vt 0.255371094 0.965789497
vt 0.270996094 0.965789497
vt 0.270996094 0.909649134
vt 0.475097656 0.911403537
vt 0.475097656 0.939473689
vt 0.506347656 0.939473689
vt 0.506347656 0.911403537
vt 0.762207031 0.911403537
vt 0.762207031 0.939473689
vt 0.793457031 0.939473689
vt 0.793457031 0.911403537
vt 0.794433594 0.911403537
vt 0.794433594 0.939473689
vt 0.825683594 0.939473689
vt 0.825683594 0.911403537
vt 0.826660156 0.911403537
vt 0.826660156 0.939473689
vt 0.857910156 0.939473689
vt 0.857910156 0.911403537
vt 0.858886719 0.911403537
vt 0.858886719 0.939473689
vt 0.890136719 0.939473689
vt 0.890136719 0.911403537
vt 0.894042969 0.911403537
vt 0.894042969 0.939473689
vt 0.925292969 0.939473689
vt 0.925292969 0.911403537
vt 0.603027344 0.91315788
vt 0.603027344 0.941228092
vt 0.634277344 0.941228092
vt 0.634277344 0.91315788
vt 0.347167969 0.909649134
vt 0.347167969 0.965789497
vt 0.362792969 0.965789497
vt 0.362792969 0.909649134
vt 0.635253906 0.91315788
vt 0.635253906 0.969298244
vt 0.650878906 0.969298244
vt 0.650878906 0.91315788
vt 0.651855469 0.91315788
vt 0.651855469 0.969298244
vt 0.667480469 0.969298244
vt 0.667480469 0.91315788
vt 0.668457031 0.91315788
vt 0.668457031 0.969298244
vt 0.684082031 0.969298244
vt 0.684082031 0.91315788
vt 0.685058594 0.91315788
vt 0.685058594 0.969298244
vt 0.700683594 0.969298244
vt 0.700683594 0.91315788
vt 0.734863281 0.91315788
vt 0.734863281 0.969298244
vt 0.750488281 0.969298244
vt 0.750488281 0.91315788
vt 0.0795898438 0.914912283
vt 0.0795898438 0.971052647
vt 0.0952148438 0.971052647
vt 0.0952148438 0.914912283
vt 0.283691406 0.935964942
vt 0.283691406 0.992105246
vt 0.299316406 0.992105246
vt 0.299316406 0.935964942
vt 0.410644531 0.935964942
vt 0.410644531 0.992105246
vt 0.426269531 0.992105246
vt 0.426269531 0.935964942
vt 0.941894531 0.937719285
vt 0.941894531 0.993859649
vt 0.957519531 0.993859649
vt 0.957519531 0.937719285
vt 0.223144531 0.939473689
vt 0.223144531 0.995614052
vt 0.238769531 0.995614052
vt 0.238769531 0.939473689
vt 0.363769531 0.939473689
vt 0.363769531 0.96754384
vt 0.395019531 0.96754384
vt 0.395019531 0.939473689
vt 0.427246094 0.939473689
vt 0.427246094 0.96754384
vt 0.442871094 0.96754384
vt 0.442871094 0.939473689
vt 0.443847656 0.939473689
vt 0.443847656 0.96754384
vt 0.459472656 0.96754384
vt 0.459472656 0.939473689
vt 0.00048828125 0.941228092
vt 0.00048828125 0.969298244
vt 0.0161132812 0.969298244
vt 0.0161132812 0.941228092
vt 0.0170898438 0.941228092
vt 0.0170898438 0.969298244
vt 0.0327148438 0.969298244
vt 0.0327148438 0.941228092
vt 0.158691406 0.941228092
vt 0.158691406 0.969298244
vt 0.174316406 0.969298244
vt 0.174316406 0.941228092
vt 0.175292969 0.941228092
vt 0.175292969 0.969298244
vt 0.190917969 0.969298244
vt 0.190917969 0.941228092
vt 0.191894531 0.941228092
vt 0.191894531 0.969298244
vt 0.207519531 0.969298244
vt 0.207519531 0.941228092
vt 0.475097656 0.941228092
vt 0.475097656 0.969298244
vt 0.490722656 0.969298244
vt 0.490722656 0.941228092
vt 0.539550781 0.941228092
vt 0.539550781 0.969298244
vt 0.555175781 0.969298244
vt 0.555175781 0.941228092
vt 0.762207031 0.941228092
vt 0.762207031 0.969298244
vt 0.777832031 0.969298244
vt 0.777832031 0.941228092
vt 0.778808594 0.941228092
vt 0.778808594 0.969298244
vt 0.794433594 0.969298244
vt 0.794433594 0.941228092
vt 0.795410156 0.941228092
vt 0.795410156 0.969298244
vt 0.811035156 0.969298244
vt 0.811035156 0.941228092
vt 0.812011719 0.941228092
vt 0.812011719 0.969298244
vt 0.827636719 0.969298244
vt 0.827636719 0.941228092
vt 0.828613281 0.941228092
vt 0.828613281 0.969298244
vt 0.844238281 0.969298244
vt 0.844238281 0.941228092
vt 0.845214844 0.941228092
vt 0.845214844 0.969298244
vt 0.860839844 0.969298244
vt 0.860839844 0.941228092
vt 0.861816406 0.941228092
vt 0.861816406 0.969298244
vt 0.877441406 0.969298244
vt 0.877441406 0.941228092
vt 0.878417969 0.941228092
vt 0.878417969 0.969298244
vt 0.894042969 0.969298244
vt 0.894042969 0.941228092
vt 0.895019531 0.941228092
vt 0.895019531 0.969298244
vt 0.910644531 0.969298244
vt 0.910644531 0.941228092
vt 0.911621094 0.941228092
vt 0.911621094 0.969298244
vt 0.927246094 0.969298244
vt 0.927246094 0.941228092
vt 0.111816406 0.942982435
vt 0.111816406 0.971052647
vt 0.127441406 0.971052647
vt 0.127441406 0.942982435
vt 0.128417969 0.942982435
vt 0.128417969 0.971052647
vt 0.144042969 0.971052647
vt 0.144042969 0.942982435
vt 0.507324219 0.942982435
vt 0.507324219 0.971052647
vt 0.522949219 0.971052647
vt 0.522949219 0.942982435
vt 0.570800781 0.942982435
vt 0.570800781 0.971052647
vt 0.586425781 0.971052647
vt 0.586425781 0.942982435
vt 0.603027344 0.942982435
vt 0.603027344 0.971052647
vt 0.618652344 0.971052647
vt 0.618652344 0.942982435
vt 0.702636719 0.942982435
vt 0.702636719 0.971052647
vt 0.718261719 0.971052647
vt 0.718261719 0.942982435
vt 0.315917969 0.965789497
vt 0.315917969 0.993859649
vt 0.331542969 0.993859649
vt 0.331542969 0.965789497
vt 0.974121094 0.965789497
vt 0.974121094 0.993859649
vt 0.989746094 0.993859649
vt 0.989746094 0.965789497
vt 0.0483398438 0.96754384
vt 0.0483398438 0.995614052
vt 0.0639648438 0.995614052
vt 0.0639648438 0.96754384
vt 0.255371094 0.96754384
vt 0.255371094 0.995614052
vt 0.270996094 0.995614052
vt 0.270996094 0.96754384
vt 0.347167969 0.96754384
vt 0.347167969 0.995614052
vt 0.362792969 0.995614052
vt 0.362792969 0.96754384
vt 0.363769531 0.969298244
vt 0.363769531 0.997368395
vt 0.379394531 0.997368395
vt 0.379394531 0.969298244
vt 0.380371094 0.969298244
vt 0.380371094 0.997368395
vt 0.395996094 0.997368395
vt 0.395996094 0.969298244
vt 0.427246094 0.969298244
vt 0.427246094 0.997368395
vt 0.442871094 0.997368395
vt 0.442871094 0.969298244
vt 0.443847656 0.969298244
vt 0.443847656 0.997368395
vt 0.459472656 0.997368395
vt 0.459472656 0.969298244
vt 0.00048828125 0.971052647
vt 0.00048828125 0.999122798
vt 0.0161132812 0.999122798
vt 0.0161132812 0.971052647
vt 0.0170898438 0.971052647
vt 0.0170898438 0.999122798
vt 0.0327148438 0.999122798
vt 0.0327148438 0.971052647
vt 0.158691406 0.971052647
vt 0.158691406 0.999122798
vt 0.174316406 0.999122798
vt 0.174316406 0.971052647
vt 0.175292969 0.971052647
vt 0.175292969 0.999122798
vt 0.190917969 0.999122798
vt 0.190917969 0.971052647
vt 0.191894531 0.971052647
vt 0.191894531 0.999122798
vt 0.207519531 0.999122798
vt 0.207519531 0.971052647
vt 0.475097656 0.971052647
vt 0.475097656 0.999122798
vt 0.490722656 0.999122798
vt 0.490722656 0.971052647
vt 0.539550781 0.971052647
vt 0.539550781 0.999122798
vt 0.555175781 0.999122798
vt 0.555175781 0.971052647
vt 0.635253906 0.971052647
vt 0.635253906 0.999122798
vt 0.650878906 0.999122798
vt 0.650878906 0.971052647
vt 0.651855469 0.971052647
vt 0.651855469 0.999122798
vt 0.667480469 0.999122798
vt 0.667480469 0.971052647
vt 0.668457031 0.971052647
vt 0.668457031 0.999122798
vt 0.684082031 0.999122798
vt 0.684082031 0.971052647
vt 0.685058594 0.971052647
vt 0.685058594 0.999122798
vt 0.700683594 0.999122798
vt 0.700683594 0.971052647
g haiqi-mesh_0
f 3/3/3 2/2/2 1/1/1
f 1/1/1 4/4/4 3/3/3
f 7/7/7 6/6/6 5/5/5
f 5/5/5 8/8/8 7/7/7
f 11/11/11 10/10/10 9/9/9
f 9/9/9 12/12/12 11/11/11
f 15/15/15 14/14/14 13/13/13
f 13/13/13 16/16/16 15/15/15
f 19/19/19 18/18/18 17/17/17
f 17/17/17 20/20/20 19/19/19
f 23/23/23 22/22/22 21/21/21
f 21/21/21 24/24/24 23/23/23
f 27/27/27 26/26/26 25/25/25
f 25/25/25 28/28/28 27/27/27
f 31/31/31 30/30/30 29/29/29
f 29/29/29 32/32/32 31/31/31
f 35/35/35 34/34/34 33/33/33
f 33/33/33 36/36/36 35/35/35
f 39/39/39 38/38/38 37/37/37
f 37/37/37 40/40/40 39/39/39
f 43/43/43 42/42/42 41/41/41
f 41/41/41 44/44/44 43/43/43
f 47/47/47 46/46/46 45/45/45
f 45/45/45 48/48/48 47/47/47
f 51/51/51 50/50/50 49/49/49
f 49/49/49 52/52/52 51/51/51
f 55/55/55 54/54/54 53/53/53
f 53/53/53 56/56/56 55/55/55
f 59/59/59 58/58/58 57/57/57
f 57/57/57 60/60/60 59/59/59
f 63/63/63 62/62/62 61/61/61
f 61/61/61 64/64/64 63/63/63
f 67/67/67 66/66/66 65/65/65
f 65/65/65 68/68/68 67/67/67
f 71/71/71 70/70/70 69/69/69
f 69/69/69 72/72/72 71/71/71
f 75/75/75 74/74/74 73/73/73
f 73/73/73 76/76/76 75/75/75
f 79/79/79 78/78/78 77/77/77
f 77/77/77 80/80/80 79/79/79
f 83/83/83 82/82/82 81/81/81
f 81/81/81 84/84/84 83/83/83
f 87/87/87 86/86/86 85/85/85
f 85/85/85 88/88/88 87/87/87
f 91/91/91 90/90/90 89/89/89
f 89/89/89 92/92/92 91/91/91
f 95/95/95 94/94/94 93/93/93
f 93/93/93 96/96/96 95/95/95
f 99/99/99 98/98/98 97/97/97
f 97/97/97 100/100/100 99/99/99
f 103/103/103 102/102/102 101/101/101
f 101/101/101 104/104/104 103/103/103
f 107/107/107 106/106/106 105/105/105
f 105/105/105 108/108/108 107/107/107
f 111/111/111 110/110/110 109/109/109
f 109/109/109 112/112/112 111/111/111
f 115/115/115 114/114/114 113/113/113
f 113/113/113 116/116/116 115/115/115
f 119/119/119 118/118/118 117/117/117
f 117/117/117 120/120/120 119/119/119
f 123/123/123 122/122/122 121/121/121
f 121/121/121 124/124/124 123/123/123
f 127/127/127 126/126/126 125/125/125
f 125/125/125 128/128/128 127/127/127
f 131/131/131 130/130/130 129/129/129
f 129/129/129 132/132/132 131/131/131
f 135/135/135 134/134/134 133/133/133
f 133/133/133 136/136/136 135/135/135
f 139/139/139 138/138/138 137/137/137
f 137/137/137 140/140/140 139/139/139
f 143/143/143 142/142/142 141/141/141
f 141/141/141 144/144/144 143/143/143
f 147/147/147 146/146/146 145/145/145
f 145/145/145 148/148/148 147/147/147
f 151/151/151 150/150/150 149/149/149
f 149/149/149 152/152/152 151/151/151
f 155/155/155 154/154/154 153/153/153
f 153/153/153 156/156/156 155/155/155
f 159/159/159 158/158/158 157/157/157
f 157/157/157 160/160/160 159/159/159
f 163/163/163 162/162/162 161/161/161
f 161/161/161 164/164/164 163/163/163
f 167/167/167 166/166/166 165/165/165
f 165/165/165 168/168/168 167/167/167
f 171/171/171 170/170/170 169/169/169
f 169/169/169 172/172/172 171/171/171
f 175/175/175 174/174/174 173/173/173
f 173/173/173 176/176/176 175/175/175
f 179/179/179 178/178/178 177/177/177
f 177/177/177 180/180/180 179/179/179
f 183/183/183 182/182/182 181/181/181
f 181/181/181 184/184/184 183/183/183
f 187/187/187 186/186/186 185/185/185
f 185/185/185 188/188/188 187/187/187
f 191/191/191 190/190/190 189/189/189
f 189/189/189 192/192/192 191/191/191
f 195/195/195 194/194/194 193/193/193
f 193/193/193 196/196/196 195/195/195
f 199/199/199 198/198/198 197/197/197
f 197/197/197 200/200/200 199/199/199
f 203/203/203 202/202/202 201/201/201
f 201/201/201 204/204/204 203/203/203
f 207/207/207 206/206/206 205/205/205
f 205/205/205 208/208/208 207/207/207
f 211/211/211 210/210/210 209/209/209
f 209/209/209 212/212/212 211/211/211
f 215/215/215 214/214/214 213/213/213
f 213/213/213 216/216/216 215/215/215
f 219/219/219 218/218/218 217/217/217
f 217/217/217 220/220/220 219/219/219
f 223/223/223 222/222/222 221/221/221
f 221/221/221 224/224/224 223/223/223
f 227/227/227 226/226/226 225/225/225
f 225/225/225 228/228/228 227/227/227
f 231/231/231 230/230/230 229/229/229
f 229/229/229 232/232/232 231/231/231
f 235/235/235 234/234/234 233/233/233
f 233/233/233 236/236/236 235/235/235
f 239/239/239 238/238/238 237/237/237
f 237/237/237 240/240/240 239/239/239
f 243/243/243 242/242/242 241/241/241
f 241/241/241 244/244/244 243/243/243
f 247/247/247 246/246/246 245/245/245
f 245/245/245 248/248/248 247/247/247
f 251/251/251 250/250/250 249/249/249
f 249/249/249 252/252/252 251/251/251
f 255/255/255 254/254/254 253/253/253
f 253/253/253 256/256/256 255/255/255
f 259/259/259 258/258/258 257/257/257
f 257/257/257 260/260/260 259/259/259
f 263/263/263 262/262/262 261/261/261
f 261/261/261 264/264/264 263/263/263
f 267/267/267 266/266/266 265/265/265
f 265/265/265 268/268/268 267/267/267
f 271/271/271 270/270/270 269/269/269
f 269/269/269 272/272/272 271/271/271
f 275/275/275 274/274/274 273/273/273
f 273/273/273 276/276/276 275/275/275
f 279/279/279 278/278/278 277/277/277
f 277/277/277 280/280/280 279/279/279
f 283/283/283 282/282/282 281/281/281
f 281/281/281 284/284/284 283/283/283
f 287/287/287 286/286/286 285/285/285
f 285/285/285 288/288/288 287/287/287
f 291/291/291 290/290/290 289/289/289
f 289/289/289 292/292/292 291/291/291
f 295/295/295 294/294/294 293/293/293
f 293/293/293 296/296/296 295/295/295
f 299/299/299 298/298/298 297/297/297
f 297/297/297 300/300/300 299/299/299
f 303/303/303 302/302/302 301/301/301
f 301/301/301 304/304/304 303/303/303
f 307/307/307 306/306/306 305/305/305
f 305/305/305 308/308/308 307/307/307
f 311/311/311 310/310/310 309/309/309
f 309/309/309 312/312/312 311/311/311
f 315/315/315 314/314/314 313/313/313
f 313/313/313 316/316/316 315/315/315
f 319/319/319 318/318/318 317/317/317
f 317/317/317 320/320/320 319/319/319
f 323/323/323 322/322/322 321/321/321
f 321/321/321 324/324/324 323/323/323
f 327/327/327 326/326/326 325/325/325
f 325/325/325 328/328/328 327/327/327
f 331/331/331 330/330/330 329/329/329
f 329/329/329 332/332/332 331/331/331
f 335/335/335 334/334/334 333/333/333
f 333/333/333 336/336/336 335/335/335
f 339/339/339 338/338/338 337/337/337
f 337/337/337 340/340/340 339/339/339
f 343/343/343 342/342/342 341/341/341
f 341/341/341 344/344/344 343/343/343
f 347/347/347 346/346/346 345/345/345
f 345/345/345 348/348/348 347/347/347
f 351/351/351 350/350/350 349/349/349
f 349/349/349 352/352/352 351/351/351
f 355/355/355 354/354/354 353/353/353
f 353/353/353 356/356/356 355/355/355
f 359/359/359 358/358/358 357/357/357
f 357/357/357 360/360/360 359/359/359
f 363/363/363 362/362/362 361/361/361
f 361/361/361 364/364/364 363/363/363
f 367/367/367 366/366/366 365/365/365
f 365/365/365 368/368/368 367/367/367
f 371/371/371 370/370/370 369/369/369
f 369/369/369 372/372/372 371/371/371
f 375/375/375 374/374/374 373/373/373
f 373/373/373 376/376/376 375/375/375
f 379/379/379 378/378/378 377/377/377
f 377/377/377 380/380/380 379/379/379
f 383/383/383 382/382/382 381/381/381
f 381/381/381 384/384/384 383/383/383
f 387/387/387 386/386/386 385/385/385
f 385/385/385 388/388/388 387/387/387
f 391/391/391 390/390/390 389/389/389
f 389/389/389 392/392/392 391/391/391
f 395/395/395 394/394/394 393/393/393
f 393/393/393 396/396/396 395/395/395
f 399/399/399 398/398/398 397/397/397
f 397/397/397 400/400/400 399/399/399
f 403/403/403 402/402/402 401/401/401
f 401/401/401 404/404/404 403/403/403
f 407/407/407 406/406/406 405/405/405
f 405/405/405 408/408/408 407/407/407
f 411/411/411 410/410/410 409/409/409
f 409/409/409 412/412/412 411/411/411
f 415/415/415 414/414/414 413/413/413
f 413/413/413 416/416/416 415/415/415
f 419/419/419 418/418/418 417/417/417
f 417/417/417 420/420/420 419/419/419
f 423/423/423 422/422/422 421/421/421
f 421/421/421 424/424/424 423/423/423
f 427/427/427 426/426/426 425/425/425
f 425/425/425 428/428/428 427/427/427
f 431/431/431 430/430/430 429/429/429
f 429/429/429 432/432/432 431/431/431
f 435/435/435 434/434/434 433/433/433
f 433/433/433 436/436/436 435/435/435
f 439/439/439 438/438/438 437/437/437
f 437/437/437 440/440/440 439/439/439
f 443/443/443 442/442/442 441/441/441
f 441/441/441 444/444/444 443/443/443
f 447/447/447 446/446/446 445/445/445
f 445/445/445 448/448/448 447/447/447
f 451/451/451 450/450/450 449/449/449
f 449/449/449 452/452/452 451/451/451
f 455/455/455 454/454/454 453/453/453
f 453/453/453 456/456/456 455/455/455
f 459/459/459 458/458/458 457/457/457
f 457/457/457 460/460/460 459/459/459
f 463/463/463 462/462/462 461/461/461
f 461/461/461 464/464/464 463/463/463
f 467/467/467 466/466/466 465/465/465
f 465/465/465 468/468/468 467/467/467
f 471/471/471 470/470/470 469/469/469
f 469/469/469 472/472/472 471/471/471
f 475/475/475 474/474/474 473/473/473
f 473/473/473 476/476/476 475/475/475
f 479/479/479 478/478/478 477/477/477
f 477/477/477 480/480/480 479/479/479
f 483/483/483 482/482/482 481/481/481
f 481/481/481 484/484/484 483/483/483
f 487/487/487 486/486/486 485/485/485
f 485/485/485 488/488/488 487/487/487
f 491/491/491 490/490/490 489/489/489
f 489/489/489 492/492/492 491/491/491
f 495/495/495 494/494/494 493/493/493
f 493/493/493 496/496/496 495/495/495
f 499/499/499 498/498/498 497/497/497
f 497/497/497 500/500/500 499/499/499
f 503/503/503 502/502/502 501/501/501
f 501/501/501 504/504/504 503/503/503
f 507/507/507 506/506/506 505/505/505
f 505/505/505 508/508/508 507/507/507
f 511/511/511 510/510/510 509/509/509
f 509/509/509 512/512/512 511/511/511
f 515/515/515 514/514/514 513/513/513
f 513/513/513 516/516/516 515/515/515
f 519/519/519 518/518/518 517/517/517
f 517/517/517 520/520/520 519/519/519
f 523/523/523 522/522/522 521/521/521
f 521/521/521 524/524/524 523/523/523
f 527/527/527 526/526/526 525/525/525
f 525/525/525 528/528/528 527/527/527
f 531/531/531 530/530/530 529/529/529
f 529/529/529 532/532/532 531/531/531
f 535/535/535 534/534/534 533/533/533
f 533/533/533 536/536/536 535/535/535
f 539/539/539 538/538/538 537/537/537
f 537/537/537 540/540/540 539/539/539
f 543/543/543 542/542/542 541/541/541
f 541/541/541 544/544/544 543/543/543
f 547/547/547 546/546/546 545/545/545
f 545/545/545 548/548/548 547/547/547
f 551/551/551 550/550/550 549/549/549
f 549/549/549 552/552/552 551/551/551
f 555/555/555 554/554/554 553/553/553
f 553/553/553 556/556/556 555/555/555
f 559/559/559 558/558/558 557/557/557
f 557/557/557 560/560/560 559/559/559
f 563/563/563 562/562/562 561/561/561
f 561/561/561 564/564/564 563/563/563
f 567/567/567 566/566/566 565/565/565
f 565/565/565 568/568/568 567/567/567
f 571/571/571 570/570/570 569/569/569
f 569/569/569 572/572/572 571/571/571
f 575/575/575 574/574/574 573/573/573
f 573/573/573 576/576/576 575/575/575
f 579/579/579 578/578/578 577/577/577
f 577/577/577 580/580/580 579/579/579
f 583/583/583 582/582/582 581/581/581
f 581/581/581 584/584/584 583/583/583
f 587/587/587 586/586/586 585/585/585
f 585/585/585 588/588/588 587/587/587
f 591/591/591 590/590/590 589/589/589
f 589/589/589 592/592/592 591/591/591
f 595/595/595 594/594/594 593/593/593
f 593/593/593 596/596/596 595/595/595
f 599/599/599 598/598/598 597/597/597
f 597/597/597 600/600/600 599/599/599
f 603/603/603 602/602/602 601/601/601
f 601/601/601 604/604/604 603/603/603
f 607/607/607 606/606/606 605/605/605
f 605/605/605 608/608/608 607/607/607
f 611/611/611 610/610/610 609/609/609
f 609/609/609 612/612/612 611/611/611
f 615/615/615 614/614/614 613/613/613
f 613/613/613 616/616/616 615/615/615
f 619/619/619 618/618/618 617/617/617
f 617/617/617 620/620/620 619/619/619
f 623/623/623 622/622/622 621/621/621
f 621/621/621 624/624/624 623/623/623
f 627/627/627 626/626/626 625/625/625
f 625/625/625 628/628/628 627/627/627
f 631/631/631 630/630/630 629/629/629
f 629/629/629 632/632/632 631/631/631
f 635/635/635 634/634/634 633/633/633
f 633/633/633 636/636/636 635/635/635
f 639/639/639 638/638/638 637/637/637
f 637/637/637 640/640/640 639/639/639
f 643/643/643 642/642/642 641/641/641
f 641/641/641 644/644/644 643/643/643
f 647/647/647 646/646/646 645/645/645
f 645/645/645 648/648/648 647/647/647
f 651/651/651 650/650/650 649/649/649
f 649/649/649 652/652/652 651/651/651
f 655/655/655 654/654/654 653/653/653
f 653/653/653 656/656/656 655/655/655
f 659/659/659 658/658/658 657/657/657
f 657/657/657 660/660/660 659/659/659
f 663/663/663 662/662/662 661/661/661
f 661/661/661 664/664/664 663/663/663
f 667/667/667 666/666/666 665/665/665
f 665/665/665 668/668/668 667/667/667
f 671/671/671 670/670/670 669/669/669
f 669/669/669 672/672/672 671/671/671
f 675/675/675 674/674/674 673/673/673
f 673/673/673 676/676/676 675/675/675
f 679/679/679 678/678/678 677/677/677
f 677/677/677 680/680/680 679/679/679
f 683/683/683 682/682/682 681/681/681
f 681/681/681 684/684/684 683/683/683
f 687/687/687 686/686/686 685/685/685
f 685/685/685 688/688/688 687/687/687
f 691/691/691 690/690/690 689/689/689
f 689/689/689 692/692/692 691/691/691
f 695/695/695 694/694/694 693/693/693
f 693/693/693 696/696/696 695/695/695
f 699/699/699 698/698/698 697/697/697
f 697/697/697 700/700/700 699/699/699
f 703/703/703 702/702/702 701/701/701
f 701/701/701 704/704/704 703/703/703
f 707/707/707 706/706/706 705/705/705
f 705/705/705 708/708/708 707/707/707
f 711/711/711 710/710/710 709/709/709
f 709/709/709 712/712/712 711/711/711
f 715/715/715 714/714/714 713/713/713
f 713/713/713 716/716/716 715/715/715
f 719/719/719 718/718/718 717/717/717
f 717/717/717 720/720/720 719/719/719
f 723/723/723 722/722/722 721/721/721
f 721/721/721 724/724/724 723/723/723
f 727/727/727 726/726/726 725/725/725
f 725/725/725 728/728/728 727/727/727
f 731/731/731 730/730/730 729/729/729
f 729/729/729 732/732/732 731/731/731
f 735/735/735 734/734/734 733/733/733
f 733/733/733 736/736/736 735/735/735
f 739/739/739 738/738/738 737/737/737
f 737/737/737 740/740/740 739/739/739
f 743/743/743 742/742/742 741/741/741
f 741/741/741 744/744/744 743/743/743
f 747/747/747 746/746/746 745/745/745
f 745/745/745 748/748/748 747/747/747
f 751/751/751 750/750/750 749/749/749
f 749/749/749 752/752/752 751/751/751
f 755/755/755 754/754/754 753/753/753
f 753/753/753 756/756/756 755/755/755
f 759/759/759 758/758/758 757/757/757
f 757/757/757 760/760/760 759/759/759
f 763/763/763 762/762/762 761/761/761
f 761/761/761 764/764/764 763/763/763
f 767/767/767 766/766/766 765/765/765
f 765/765/765 768/768/768 767/767/767
f 771/771/771 770/770/770 769/769/769
f 769/769/769 772/772/772 771/771/771
f 775/775/775 774/774/774 773/773/773
f 773/773/773 776/776/776 775/775/775
f 779/779/779 778/778/778 777/777/777
f 777/777/777 780/780/780 779/779/779
f 783/783/783 782/782/782 781/781/781
f 781/781/781 784/784/784 783/783/783
f 787/787/787 786/786/786 785/785/785
f 785/785/785 788/788/788 787/787/787
f 791/791/791 790/790/790 789/789/789
f 789/789/789 792/792/792 791/791/791
f 795/795/795 794/794/794 793/793/793
f 793/793/793 796/796/796 795/795/795
f 799/799/799 798/798/798 797/797/797
f 797/797/797 800/800/800 799/799/799
f 803/803/803 802/802/802 801/801/801
f 801/801/801 804/804/804 803/803/803
f 807/807/807 806/806/806 805/805/805
f 805/805/805 808/808/808 807/807/807
f 811/811/811 810/810/810 809/809/809
f 809/809/809 812/812/812 811/811/811
f 815/815/815 814/814/814 813/813/813
f 813/813/813 816/816/816 815/815/815
f 819/819/819 818/818/818 817/817/817
f 817/817/817 820/820/820 819/819/819
f 823/823/823 822/822/822 821/821/821
f 821/821/821 824/824/824 823/823/823
f 827/827/827 826/826/826 825/825/825
f 825/825/825 828/828/828 827/827/827
f 831/831/831 830/830/830 829/829/829
f 829/829/829 832/832/832 831/831/831
f 835/835/835 834/834/834 833/833/833
f 833/833/833 836/836/836 835/835/835
f 839/839/839 838/838/838 837/837/837
f 837/837/837 840/840/840 839/839/839
f 843/843/843 842/842/842 841/841/841
f 841/841/841 844/844/844 843/843/843
f 847/847/847 846/846/846 845/845/845
f 845/845/845 848/848/848 847/847/847
f 851/851/851 850/850/850 849/849/849
f 849/849/849 852/852/852 851/851/851
f 855/855/855 854/854/854 853/853/853
f 853/853/853 856/856/856 855/855/855
