g jinluhao_2_rw3-mesh
v -480 303 0
v -480 1359 0
v -1120 1359 0
v -1120 303 0
v -1120 303 0
v -1120 1359 0
v -1699 1359 0
v -1699 303 0
v -1056 79 0
v -1056 303 0
v -1408 303 0
v -1408 79 0
v -1408 79 0
v -1408 303 0
v -1699 303 0
v -1699 79 0
v -160 431 0
v -160 623 0
v -480 623 0
v -480 431 0
v -832 175 0
v -832 303 0
v -1056 303 0
v -1056 175 0
v -416 1039 0
v -416 1359 0
v -480 1359 0
v -480 1039 0
v -416 751 0
v -416 1039 0
v -480 1039 0
v -480 751 0
v -0 495 0
v -0 591 0
v -160 591 0
v -160 495 0
v -288 1295 0
v -288 1359 0
v -416 1359 0
v -416 1295 0
v -672 239 0
v -672 303 0
v -768 303 0
v -768 239 0
v -960 111 0
v -960 175 0
v -1056 175 0
v -1056 111 0
v -384 367 0
v -384 431 0
v -480 431 0
v -480 367 0
v -352 1071 0
v -352 1167 0
v -416 1167 0
v -416 1071 0
v -352 975 0
v -352 1071 0
v -416 1071 0
v -416 975 0
v -288 367 0
v -288 431 0
v -384 431 0
v -384 367 0
v -1440 47 0
v -1440 79 0
v -1600 79 0
v -1600 47 0
v -32 591 0
v -32 655 0
v -96 655 0
v -96 591 0
v -288 1039 0
v -288 1103 0
v -352 1103 0
v -352 1039 0
v -1600 47 0
v -1600 79 0
v -1699 79 0
v -1699 47 0
v -768 239 0
v -768 303 0
v -832 303 0
v -832 239 0
v -384 623 0
v -384 655 0
v -480 655 0
v -480 623 0
v -288 623 0
v -288 655 0
v -384 655 0
v -384 623 0
v -224 399 0
v -224 431 0
v -288 431 0
v -288 399 0
v -352 1263 0
v -352 1295 0
v -416 1295 0
v -416 1263 0
v -576 271 0
v -576 303 0
v -640 303 0
v -640 271 0
v -1632 15 0
v -1632 47 0
v -1696 47 0
v -1696 15 0
v -896 143 0
v -896 175 0
v -960 175 0
v -960 143 0
v -768 207 0
v -768 239 0
v -832 239 0
v -832 207 0
v -384 335 0
v -384 367 0
v -448 367 0
v -448 335 0
v -448 687 0
v -448 751 0
v -480 751 0
v -480 687 0
v -64 463 0
v -64 495 0
v -128 495 0
v -128 463 0
v -224 1007 0
v -224 1039 0
v -288 1039 0
v -288 1007 0
v -256 1039 0
v -256 1071 0
v -288 1071 0
v -288 1039 0
v -384 943 0
v -384 975 0
v -416 975 0
v -416 943 0
v -224 975 0
v -224 1007 0
v -256 1007 0
v -256 975 0
v -128 431 0
v -128 463 0
v -160 463 0
v -160 431 0
v -704 207 0
v -704 239 0
v -736 239 0
v -736 207 0
v -416 655 0
v -416 687 0
v -448 687 0
v -448 655 0
v -0 591 0
v -0 623 0
v -32 623 0
v -32 591 0
v -320 1103 0
v -320 1135 0
v -352 1135 0
v -352 1103 0
v -640 271 0
v -640 303 0
v -672 303 0
v -672 271 0
v -128 463 0
v -128 495 0
v -160 495 0
v -160 463 0
v -448 335 0
v -448 367 0
v -480 367 0
v -480 335 0
v -448 655 0
v -448 687 0
v -480 687 0
v -480 655 0
v -384 1167 0
v -384 1199 0
v -416 1199 0
v -416 1167 0
v -256 1327 0
v -256 1359 0
v -288 1359 0
v -288 1327 0
v -288 1007 0
v -288 1039 0
v -320 1039 0
v -320 1007 0
vt 0.00048828125 0.000945150852
vt 0.00048828125 0.999054849
vt 0.312988281 0.999054849
vt 0.312988281 0.000945150852
vt 0.313964844 0.000945150852
vt 0.313964844 0.999054849
vt 0.597167969 0.999054849
vt 0.597167969 0.000945150852
vt 0.598144531 0.000945150852
vt 0.598144531 0.212665379
vt 0.770019531 0.212665379
vt 0.770019531 0.000945150852
vt 0.770996094 0.000945150852
vt 0.770996094 0.212665379
vt 0.913574219 0.212665379
vt 0.913574219 0.000945150852
vt 0.598144531 0.21455574
vt 0.598144531 0.396030247
vt 0.754394531 0.396030247
vt 0.754394531 0.21455574
vt 0.755371094 0.21455574
vt 0.755371094 0.335538745
vt 0.864746094 0.335538745
vt 0.864746094 0.21455574
vt 0.914550781 0.000945150852
vt 0.914550781 0.303402662
vt 0.945800781 0.303402662
vt 0.945800781 0.000945150852
vt 0.946777344 0.000945150852
vt 0.946777344 0.273156881
vt 0.978027344 0.273156881
vt 0.978027344 0.000945150852
vt 0.914550781 0.305293024
vt 0.914550781 0.396030247
vt 0.992675781 0.396030247
vt 0.992675781 0.305293024
vt 0.755371094 0.337429106
vt 0.755371094 0.397920609
vt 0.817871094 0.397920609
vt 0.817871094 0.337429106
vt 0.865722656 0.21455574
vt 0.865722656 0.275047243
vt 0.912597656 0.275047243
vt 0.912597656 0.21455574
vt 0.865722656 0.276937604
vt 0.865722656 0.337429106
vt 0.912597656 0.337429106
vt 0.912597656 0.276937604
vt 0.865722656 0.339319468
vt 0.865722656 0.39981097
vt 0.912597656 0.39981097
vt 0.912597656 0.339319468
vt 0.818847656 0.337429106
vt 0.818847656 0.42816633
vt 0.850097656 0.42816633
vt 0.850097656 0.337429106
vt 0.598144531 0.397920609
vt 0.598144531 0.488657832
vt 0.629394531 0.488657832
vt 0.629394531 0.397920609
vt 0.630371094 0.397920609
vt 0.630371094 0.458412111
vt 0.677246094 0.458412111
vt 0.677246094 0.397920609
vt 0.914550781 0.397920609
vt 0.914550781 0.42816633
vt 0.992675781 0.42816633
vt 0.992675781 0.397920609
vt 0.678222656 0.397920609
vt 0.678222656 0.458412111
vt 0.709472656 0.458412111
vt 0.709472656 0.397920609
vt 0.710449219 0.397920609
vt 0.710449219 0.458412111
vt 0.741699219 0.458412111
vt 0.741699219 0.397920609
vt 0.755371094 0.39981097
vt 0.755371094 0.430056691
vt 0.804199219 0.430056691
vt 0.804199219 0.39981097
vt 0.865722656 0.401701331
vt 0.865722656 0.462192833
vt 0.896972656 0.462192833
vt 0.896972656 0.401701331
vt 0.914550781 0.430056691
vt 0.914550781 0.460302472
vt 0.961425781 0.460302472
vt 0.961425781 0.430056691
vt 0.755371094 0.431947052
vt 0.755371094 0.462192833
vt 0.802246094 0.462192833
vt 0.802246094 0.431947052
vt 0.818847656 0.430056691
vt 0.818847656 0.460302472
vt 0.850097656 0.460302472
vt 0.850097656 0.430056691
vt 0.962402344 0.430056691
vt 0.962402344 0.460302472
vt 0.993652344 0.460302472
vt 0.993652344 0.430056691
vt 0.630371094 0.460302472
vt 0.630371094 0.490548193
vt 0.661621094 0.490548193
vt 0.661621094 0.460302472
vt 0.662597656 0.460302472
vt 0.662597656 0.490548193
vt 0.693847656 0.490548193
vt 0.693847656 0.460302472
vt 0.694824219 0.460302472
vt 0.694824219 0.490548193
vt 0.726074219 0.490548193
vt 0.726074219 0.460302472
vt 0.818847656 0.462192833
vt 0.818847656 0.492438555
vt 0.850097656 0.492438555
vt 0.850097656 0.462192833
vt 0.914550781 0.462192833
vt 0.914550781 0.492438555
vt 0.945800781 0.492438555
vt 0.945800781 0.462192833
vt 0.897949219 0.401701331
vt 0.897949219 0.462192833
vt 0.913574219 0.462192833
vt 0.913574219 0.401701331
vt 0.946777344 0.462192833
vt 0.946777344 0.492438555
vt 0.978027344 0.492438555
vt 0.978027344 0.462192833
vt 0.755371094 0.464083195
vt 0.755371094 0.494328916
vt 0.786621094 0.494328916
vt 0.786621094 0.464083195
vt 0.727050781 0.460302472
vt 0.727050781 0.490548193
vt 0.742675781 0.490548193
vt 0.742675781 0.460302472
vt 0.979003906 0.462192833
vt 0.979003906 0.492438555
vt 0.994628906 0.492438555
vt 0.994628906 0.462192833
vt 0.787597656 0.464083195
vt 0.787597656 0.494328916
vt 0.803222656 0.494328916
vt 0.803222656 0.464083195
vt 0.865722656 0.464083195
vt 0.865722656 0.494328916
vt 0.881347656 0.494328916
vt 0.881347656 0.464083195
vt 0.882324219 0.464083195
vt 0.882324219 0.494328916
vt 0.897949219 0.494328916
vt 0.897949219 0.464083195
vt 0.598144531 0.490548193
vt 0.598144531 0.520793915
vt 0.613769531 0.520793915
vt 0.613769531 0.490548193
vt 0.630371094 0.492438555
vt 0.630371094 0.522684336
vt 0.645996094 0.522684336
vt 0.645996094 0.492438555
vt 0.646972656 0.492438555
vt 0.646972656 0.522684336
vt 0.662597656 0.522684336
vt 0.662597656 0.492438555
vt 0.663574219 0.492438555
vt 0.663574219 0.522684336
vt 0.679199219 0.522684336
vt 0.679199219 0.492438555
vt 0.680175781 0.492438555
vt 0.680175781 0.522684336
vt 0.695800781 0.522684336
vt 0.695800781 0.492438555
vt 0.696777344 0.492438555
vt 0.696777344 0.522684336
vt 0.712402344 0.522684336
vt 0.712402344 0.492438555
vt 0.713378906 0.492438555
vt 0.713378906 0.522684336
vt 0.729003906 0.522684336
vt 0.729003906 0.492438555
vt 0.729980469 0.492438555
vt 0.729980469 0.522684336
vt 0.745605469 0.522684336
vt 0.745605469 0.492438555
vt 0.818847656 0.494328916
vt 0.818847656 0.524574637
vt 0.834472656 0.524574637
vt 0.834472656 0.494328916
vt 0.835449219 0.494328916
vt 0.835449219 0.524574637
vt 0.851074219 0.524574637
vt 0.851074219 0.494328916
g jinluhao_2_rw3-mesh_0
f 3/3/3 2/2/2 1/1/1
f 1/1/1 4/4/4 3/3/3
f 7/7/7 6/6/6 5/5/5
f 5/5/5 8/8/8 7/7/7
f 11/11/11 10/10/10 9/9/9
f 9/9/9 12/12/12 11/11/11
f 15/15/15 14/14/14 13/13/13
f 13/13/13 16/16/16 15/15/15
f 19/19/19 18/18/18 17/17/17
f 17/17/17 20/20/20 19/19/19
f 23/23/23 22/22/22 21/21/21
f 21/21/21 24/24/24 23/23/23
f 27/27/27 26/26/26 25/25/25
f 25/25/25 28/28/28 27/27/27
f 31/31/31 30/30/30 29/29/29
f 29/29/29 32/32/32 31/31/31
f 35/35/35 34/34/34 33/33/33
f 33/33/33 36/36/36 35/35/35
f 39/39/39 38/38/38 37/37/37
f 37/37/37 40/40/40 39/39/39
f 43/43/43 42/42/42 41/41/41
f 41/41/41 44/44/44 43/43/43
f 47/47/47 46/46/46 45/45/45
f 45/45/45 48/48/48 47/47/47
f 51/51/51 50/50/50 49/49/49
f 49/49/49 52/52/52 51/51/51
f 55/55/55 54/54/54 53/53/53
f 53/53/53 56/56/56 55/55/55
f 59/59/59 58/58/58 57/57/57
f 57/57/57 60/60/60 59/59/59
f 63/63/63 62/62/62 61/61/61
f 61/61/61 64/64/64 63/63/63
f 67/67/67 66/66/66 65/65/65
f 65/65/65 68/68/68 67/67/67
f 71/71/71 70/70/70 69/69/69
f 69/69/69 72/72/72 71/71/71
f 75/75/75 74/74/74 73/73/73
f 73/73/73 76/76/76 75/75/75
f 79/79/79 78/78/78 77/77/77
f 77/77/77 80/80/80 79/79/79
f 83/83/83 82/82/82 81/81/81
f 81/81/81 84/84/84 83/83/83
f 87/87/87 86/86/86 85/85/85
f 85/85/85 88/88/88 87/87/87
f 91/91/91 90/90/90 89/89/89
f 89/89/89 92/92/92 91/91/91
f 95/95/95 94/94/94 93/93/93
f 93/93/93 96/96/96 95/95/95
f 99/99/99 98/98/98 97/97/97
f 97/97/97 100/100/100 99/99/99
f 103/103/103 102/102/102 101/101/101
f 101/101/101 104/104/104 103/103/103
f 107/107/107 106/106/106 105/105/105
f 105/105/105 108/108/108 107/107/107
f 111/111/111 110/110/110 109/109/109
f 109/109/109 112/112/112 111/111/111
f 115/115/115 114/114/114 113/113/113
f 113/113/113 116/116/116 115/115/115
f 119/119/119 118/118/118 117/117/117
f 117/117/117 120/120/120 119/119/119
f 123/123/123 122/122/122 121/121/121
f 121/121/121 124/124/124 123/123/123
f 127/127/127 126/126/126 125/125/125
f 125/125/125 128/128/128 127/127/127
f 131/131/131 130/130/130 129/129/129
f 129/129/129 132/132/132 131/131/131
f 135/135/135 134/134/134 133/133/133
f 133/133/133 136/136/136 135/135/135
f 139/139/139 138/138/138 137/137/137
f 137/137/137 140/140/140 139/139/139
f 143/143/143 142/142/142 141/141/141
f 141/141/141 144/144/144 143/143/143
f 147/147/147 146/146/146 145/145/145
f 145/145/145 148/148/148 147/147/147
f 151/151/151 150/150/150 149/149/149
f 149/149/149 152/152/152 151/151/151
f 155/155/155 154/154/154 153/153/153
f 153/153/153 156/156/156 155/155/155
f 159/159/159 158/158/158 157/157/157
f 157/157/157 160/160/160 159/159/159
f 163/163/163 162/162/162 161/161/161
f 161/161/161 164/164/164 163/163/163
f 167/167/167 166/166/166 165/165/165
f 165/165/165 168/168/168 167/167/167
f 171/171/171 170/170/170 169/169/169
f 169/169/169 172/172/172 171/171/171
f 175/175/175 174/174/174 173/173/173
f 173/173/173 176/176/176 175/175/175
f 179/179/179 178/178/178 177/177/177
f 177/177/177 180/180/180 179/179/179
f 183/183/183 182/182/182 181/181/181
f 181/181/181 184/184/184 183/183/183
f 187/187/187 186/186/186 185/185/185
f 185/185/185 188/188/188 187/187/187
f 191/191/191 190/190/190 189/189/189
f 189/189/189 192/192/192 191/191/191
