g dujiaoshou_7-mesh
v -832 613 0
v -832 1125 0
v -1696 1125 0
v -1696 613 0
v -832 133 0
v -832 613 0
v -1696 613 0
v -1696 133 0
v -1024 1125 0
v -1024 1445 0
v -1504 1445 0
v -1504 1125 0
v -1024 1445 0
v -1024 1765 0
v -1504 1765 0
v -1504 1445 0
v -480 197 0
v -480 613 0
v -832 613 0
v -832 197 0
v -1696 5 0
v -1696 293 0
v -1984 293 0
v -1984 5 0
v -256 261 0
v -256 549 0
v -416 549 0
v -416 261 0
v -256 549 0
v -256 837 0
v -416 837 0
v -416 549 0
v -1088 1765 0
v -1088 1893 0
v -1376 1893 0
v -1376 1765 0
v -1504 1125 0
v -1504 1381 0
v -1632 1381 0
v -1632 1125 0
v -1696 581 0
v -1696 773 0
v -1824 773 0
v -1824 581 0
v -1696 773 0
v -1696 965 0
v -1824 965 0
v -1824 773 0
v -32 293 0
v -32 389 0
v -256 389 0
v -256 293 0
v -1472 69 0
v -1472 133 0
v -1696 133 0
v -1696 69 0
v -1248 69 0
v -1248 133 0
v -1472 133 0
v -1472 69 0
v -768 837 0
v -768 1061 0
v -832 1061 0
v -832 837 0
v -768 613 0
v -768 837 0
v -832 837 0
v -832 613 0
v -992 1125 0
v -992 1413 0
v -1024 1413 0
v -1024 1125 0
v -992 1413 0
v -992 1701 0
v -1024 1701 0
v -1024 1413 0
v -416 325 0
v -416 453 0
v -480 453 0
v -480 325 0
v -1504 1381 0
v -1504 1509 0
v -1568 1509 0
v -1568 1381 0
v -1696 1061 0
v -1696 1189 0
v -1760 1189 0
v -1760 1061 0
v -1504 1701 0
v -1504 1829 0
v -1568 1829 0
v -1568 1701 0
v -1696 293 0
v -1696 357 0
v -1792 357 0
v -1792 293 0
v -928 1125 0
v -928 1221 0
v -992 1221 0
v -992 1125 0
v -1024 1765 0
v -1024 1861 0
v -1088 1861 0
v -1088 1765 0
v -416 229 0
v -416 325 0
v -480 325 0
v -480 229 0
v -1632 1189 0
v -1632 1285 0
v -1696 1285 0
v -1696 1189 0
v -1696 965 0
v -1696 1061 0
v -1760 1061 0
v -1760 965 0
v -1984 165 0
v -1984 261 0
v -2047 261 0
v -2047 165 0
v -1472 37 0
v -1472 69 0
v -1600 69 0
v -1600 37 0
v -1376 1765 0
v -1376 1829 0
v -1440 1829 0
v -1440 1765 0
v -1120 101 0
v -1120 133 0
v -1248 133 0
v -1248 101 0
v -1632 1125 0
v -1632 1189 0
v -1696 1189 0
v -1696 1125 0
v -1984 101 0
v -1984 165 0
v -2047 165 0
v -2047 101 0
v -512 613 0
v -512 645 0
v -640 645 0
v -640 613 0
v -992 101 0
v -992 133 0
v -1120 133 0
v -1120 101 0
v -640 613 0
v -640 645 0
v -768 645 0
v -768 613 0
v -1824 677 0
v -1824 773 0
v -1856 773 0
v -1856 677 0
v -736 709 0
v -736 805 0
v -768 805 0
v -768 709 0
v -96 261 0
v -96 293 0
v -192 293 0
v -192 261 0
v -1696 485 0
v -1696 581 0
v -1728 581 0
v -1728 485 0
v -640 165 0
v -640 197 0
v -736 197 0
v -736 165 0
v -736 165 0
v -736 197 0
v -832 197 0
v -832 165 0
v -736 901 0
v -736 997 0
v -768 997 0
v -768 901 0
v -1600 37 0
v -1600 69 0
v -1696 69 0
v -1696 37 0
v -1568 1381 0
v -1568 1445 0
v -1600 1445 0
v -1600 1381 0
v -1504 1509 0
v -1504 1573 0
v -1536 1573 0
v -1536 1509 0
v -1696 1189 0
v -1696 1253 0
v -1728 1253 0
v -1728 1189 0
v -1504 1605 0
v -1504 1669 0
v -1536 1669 0
v -1536 1605 0
v -1792 293 0
v -1792 325 0
v -1856 325 0
v -1856 293 0
v -1888 0 0
v -1888 5 0
v -1952 5 0
v -1952 0 0
v -1472 1765 0
v -1472 1829 0
v -1504 1829 0
v -1504 1765 0
v -576 645 0
v -576 677 0
v -640 677 0
v -640 645 0
v -448 453 0
v -448 517 0
v -480 517 0
v -480 453 0
v -0 293 0
v -0 357 0
v -32 357 0
v -32 293 0
v -1856 645 0
v -1856 709 0
v -1888 709 0
v -1888 645 0
v -896 1125 0
v -896 1189 0
v -928 1189 0
v -928 1125 0
v -704 645 0
v -704 709 0
v -736 709 0
v -736 645 0
v -1984 37 0
v -1984 101 0
v -2016 101 0
v -2016 37 0
v -960 1285 0
v -960 1349 0
v -992 1349 0
v -992 1285 0
v -960 1349 0
v -960 1413 0
v -992 1413 0
v -992 1349 0
v -352 229 0
v -352 261 0
v -416 261 0
v -416 229 0
v -288 229 0
v -288 261 0
v -352 261 0
v -352 229 0
v -736 645 0
v -736 709 0
v -768 709 0
v -768 645 0
v -736 837 0
v -736 901 0
v -768 901 0
v -768 837 0
v -1696 421 0
v -1696 485 0
v -1728 485 0
v -1728 421 0
v -1824 613 0
v -1824 677 0
v -1856 677 0
v -1856 613 0
v -192 261 0
v -192 293 0
v -256 293 0
v -256 261 0
v -416 773 0
v -416 837 0
v -448 837 0
v -448 773 0
v -288 837 0
v -288 869 0
v -352 869 0
v -352 837 0
v -1760 997 0
v -1760 1061 0
v -1792 1061 0
v -1792 997 0
v -864 1125 0
v -864 1157 0
v -896 1157 0
v -896 1125 0
v -960 1221 0
v -960 1253 0
v -992 1253 0
v -992 1221 0
v -1664 5 0
v -1664 37 0
v -1696 37 0
v -1696 5 0
v -1728 549 0
v -1728 581 0
v -1760 581 0
v -1760 549 0
v -672 645 0
v -672 677 0
v -704 677 0
v -704 645 0
v -448 197 0
v -448 229 0
v -480 229 0
v -480 197 0
v -800 1061 0
v -800 1093 0
v -832 1093 0
v -832 1061 0
v -1952 0 0
v -1952 5 0
v -1984 5 0
v -1984 0 0
v -352 837 0
v -352 869 0
v -384 869 0
v -384 837 0
v -1856 293 0
v -1856 325 0
v -1888 325 0
v -1888 293 0
v -1760 965 0
v -1760 997 0
v -1792 997 0
v -1792 965 0
v -1632 1285 0
v -1632 1317 0
v -1664 1317 0
v -1664 1285 0
v -1376 1829 0
v -1376 1861 0
v -1408 1861 0
v -1408 1829 0
v -416 741 0
v -416 773 0
v -448 773 0
v -448 741 0
vt 0.00048828125 0.000967144966
vt 0.00048828125 0.496131539
vt 0.422363281 0.496131539
vt 0.422363281 0.000967144966
vt 0.423339844 0.000967144966
vt 0.423339844 0.465183735
vt 0.845214844 0.465183735
vt 0.845214844 0.000967144966
vt 0.423339844 0.467117965
vt 0.423339844 0.776595712
vt 0.657714844 0.776595712
vt 0.657714844 0.467117965
vt 0.658691406 0.467117965
vt 0.658691406 0.776595712
vt 0.893066406 0.776595712
vt 0.893066406 0.467117965
vt 0.00048828125 0.49806577
vt 0.00048828125 0.90038687
vt 0.172363281 0.90038687
vt 0.172363281 0.49806577
vt 0.173339844 0.49806577
vt 0.173339844 0.776595712
vt 0.313964844 0.776595712
vt 0.313964844 0.49806577
vt 0.894042969 0.000967144966
vt 0.894042969 0.279497087
vt 0.972167969 0.279497087
vt 0.972167969 0.000967144966
vt 0.894042969 0.281431317
vt 0.894042969 0.559961319
vt 0.972167969 0.559961319
vt 0.972167969 0.281431317
vt 0.173339844 0.778530002
vt 0.173339844 0.9023211
vt 0.313964844 0.9023211
vt 0.313964844 0.778530002
vt 0.314941406 0.49806577
vt 0.314941406 0.745647967
vt 0.377441406 0.745647967
vt 0.377441406 0.49806577
vt 0.894042969 0.561895549
vt 0.894042969 0.747582197
vt 0.956542969 0.747582197
vt 0.956542969 0.561895549
vt 0.314941406 0.747582197
vt 0.314941406 0.933268845
vt 0.377441406 0.933268845
vt 0.377441406 0.747582197
vt 0.423339844 0.778530002
vt 0.423339844 0.871373296
vt 0.532714844 0.871373296
vt 0.532714844 0.778530002
vt 0.533691406 0.778530002
vt 0.533691406 0.840425551
vt 0.643066406 0.840425551
vt 0.643066406 0.778530002
vt 0.644042969 0.778530002
vt 0.644042969 0.840425551
vt 0.753417969 0.840425551
vt 0.753417969 0.778530002
vt 0.378417969 0.49806577
vt 0.378417969 0.714700222
vt 0.409667969 0.714700222
vt 0.409667969 0.49806577
vt 0.957519531 0.561895549
vt 0.957519531 0.778530002
vt 0.988769531 0.778530002
vt 0.988769531 0.561895549
vt 0.378417969 0.716634393
vt 0.378417969 0.995164394
vt 0.394042969 0.995164394
vt 0.394042969 0.716634393
vt 0.395019531 0.716634393
vt 0.395019531 0.995164394
vt 0.410644531 0.995164394
vt 0.410644531 0.716634393
vt 0.894042969 0.749516428
vt 0.894042969 0.873307526
vt 0.925292969 0.873307526
vt 0.925292969 0.749516428
vt 0.754394531 0.778530002
vt 0.754394531 0.9023211
vt 0.785644531 0.9023211
vt 0.785644531 0.778530002
vt 0.786621094 0.778530002
vt 0.786621094 0.9023211
vt 0.817871094 0.9023211
vt 0.817871094 0.778530002
vt 0.818847656 0.778530002
vt 0.818847656 0.9023211
vt 0.850097656 0.9023211
vt 0.850097656 0.778530002
vt 0.533691406 0.842359781
vt 0.533691406 0.904255331
vt 0.580566406 0.904255331
vt 0.580566406 0.842359781
vt 0.851074219 0.778530002
vt 0.851074219 0.871373296
vt 0.882324219 0.871373296
vt 0.882324219 0.778530002
vt 0.957519531 0.780464232
vt 0.957519531 0.873307526
vt 0.988769531 0.873307526
vt 0.988769531 0.780464232
vt 0.581542969 0.842359781
vt 0.581542969 0.935203075
vt 0.612792969 0.935203075
vt 0.612792969 0.842359781
vt 0.613769531 0.842359781
vt 0.613769531 0.935203075
vt 0.645019531 0.935203075
vt 0.645019531 0.842359781
vt 0.645996094 0.842359781
vt 0.645996094 0.935203075
vt 0.677246094 0.935203075
vt 0.677246094 0.842359781
vt 0.678222656 0.842359781
vt 0.678222656 0.935203075
vt 0.709472656 0.935203075
vt 0.709472656 0.842359781
vt 0.423339844 0.873307526
vt 0.423339844 0.904255331
vt 0.485839844 0.904255331
vt 0.485839844 0.873307526
vt 0.710449219 0.842359781
vt 0.710449219 0.904255331
vt 0.741699219 0.904255331
vt 0.741699219 0.842359781
vt 0.894042969 0.875241756
vt 0.894042969 0.906189561
vt 0.956542969 0.906189561
vt 0.956542969 0.875241756
vt 0.486816406 0.873307526
vt 0.486816406 0.935203075
vt 0.518066406 0.935203075
vt 0.518066406 0.873307526
vt 0.851074219 0.873307526
vt 0.851074219 0.935203075
vt 0.882324219 0.935203075
vt 0.882324219 0.873307526
vt 0.00048828125 0.9023211
vt 0.00048828125 0.933268845
vt 0.0629882812 0.933268845
vt 0.0629882812 0.9023211
vt 0.0639648438 0.9023211
vt 0.0639648438 0.933268845
vt 0.126464844 0.933268845
vt 0.126464844 0.9023211
vt 0.173339844 0.904255331
vt 0.173339844 0.935203075
vt 0.235839844 0.935203075
vt 0.235839844 0.904255331
vt 0.957519531 0.875241756
vt 0.957519531 0.96808511
vt 0.973144531 0.96808511
vt 0.973144531 0.875241756
vt 0.974121094 0.875241756
vt 0.974121094 0.96808511
vt 0.989746094 0.96808511
vt 0.989746094 0.875241756
vt 0.236816406 0.904255331
vt 0.236816406 0.935203075
vt 0.283691406 0.935203075
vt 0.283691406 0.904255331
vt 0.127441406 0.9023211
vt 0.127441406 0.995164394
vt 0.143066406 0.995164394
vt 0.143066406 0.9023211
vt 0.754394531 0.904255331
vt 0.754394531 0.935203075
vt 0.801269531 0.935203075
vt 0.801269531 0.904255331
vt 0.802246094 0.904255331
vt 0.802246094 0.935203075
vt 0.849121094 0.935203075
vt 0.849121094 0.904255331
vt 0.144042969 0.9023211
vt 0.144042969 0.995164394
vt 0.159667969 0.995164394
vt 0.159667969 0.9023211
vt 0.423339844 0.906189561
vt 0.423339844 0.937137306
vt 0.470214844 0.937137306
vt 0.470214844 0.906189561
vt 0.284667969 0.904255331
vt 0.284667969 0.96615088
vt 0.300292969 0.96615088
vt 0.300292969 0.904255331
vt 0.533691406 0.906189561
vt 0.533691406 0.96808511
vt 0.549316406 0.96808511
vt 0.549316406 0.906189561
vt 0.550292969 0.906189561
vt 0.550292969 0.96808511
vt 0.565917969 0.96808511
vt 0.565917969 0.906189561
vt 0.710449219 0.906189561
vt 0.710449219 0.96808511
vt 0.726074219 0.96808511
vt 0.726074219 0.906189561
vt 0.894042969 0.908123791
vt 0.894042969 0.939071536
vt 0.925292969 0.939071536
vt 0.925292969 0.908123791
vt 0.00048828125 0.935203075
vt 0.00048828125 0.941005826
vt 0.0317382812 0.941005826
vt 0.0317382812 0.935203075
vt 0.727050781 0.906189561
vt 0.727050781 0.96808511
vt 0.742675781 0.96808511
vt 0.742675781 0.906189561
vt 0.0327148438 0.935203075
vt 0.0327148438 0.96615088
vt 0.0639648438 0.96615088
vt 0.0639648438 0.935203075
vt 0.926269531 0.908123791
vt 0.926269531 0.970019341
vt 0.941894531 0.970019341
vt 0.941894531 0.908123791
vt 0.0649414062 0.935203075
vt 0.0649414062 0.997098625
vt 0.0805664062 0.997098625
vt 0.0805664062 0.935203075
vt 0.0815429688 0.935203075
vt 0.0815429688 0.997098625
vt 0.0971679688 0.997098625
vt 0.0971679688 0.935203075
vt 0.0981445312 0.935203075
vt 0.0981445312 0.997098625
vt 0.113769531 0.997098625
vt 0.113769531 0.935203075
vt 0.314941406 0.935203075
vt 0.314941406 0.997098625
vt 0.330566406 0.997098625
vt 0.330566406 0.935203075
vt 0.331542969 0.935203075
vt 0.331542969 0.997098625
vt 0.347167969 0.997098625
vt 0.347167969 0.935203075
vt 0.348144531 0.935203075
vt 0.348144531 0.997098625
vt 0.363769531 0.997098625
vt 0.363769531 0.935203075
vt 0.173339844 0.937137306
vt 0.173339844 0.999032855
vt 0.188964844 0.999032855
vt 0.188964844 0.937137306
vt 0.189941406 0.937137306
vt 0.189941406 0.96808511
vt 0.221191406 0.96808511
vt 0.221191406 0.937137306
vt 0.222167969 0.937137306
vt 0.222167969 0.96808511
vt 0.253417969 0.96808511
vt 0.253417969 0.937137306
vt 0.254394531 0.937137306
vt 0.254394531 0.999032855
vt 0.270019531 0.999032855
vt 0.270019531 0.937137306
vt 0.486816406 0.937137306
vt 0.486816406 0.999032855
vt 0.502441406 0.999032855
vt 0.502441406 0.937137306
vt 0.503417969 0.937137306
vt 0.503417969 0.999032855
vt 0.519042969 0.999032855
vt 0.519042969 0.937137306
vt 0.581542969 0.937137306
vt 0.581542969 0.999032855
vt 0.597167969 0.999032855
vt 0.597167969 0.937137306
vt 0.598144531 0.937137306
vt 0.598144531 0.96808511
vt 0.629394531 0.96808511
vt 0.629394531 0.937137306
vt 0.630371094 0.937137306
vt 0.630371094 0.999032855
vt 0.645996094 0.999032855
vt 0.645996094 0.937137306
vt 0.646972656 0.937137306
vt 0.646972656 0.96808511
vt 0.678222656 0.96808511
vt 0.678222656 0.937137306
vt 0.679199219 0.937137306
vt 0.679199219 0.999032855
vt 0.694824219 0.999032855
vt 0.694824219 0.937137306
vt 0.754394531 0.937137306
vt 0.754394531 0.96808511
vt 0.770019531 0.96808511
vt 0.770019531 0.937137306
vt 0.770996094 0.937137306
vt 0.770996094 0.96808511
vt 0.786621094 0.96808511
vt 0.786621094 0.937137306
vt 0.787597656 0.937137306
vt 0.787597656 0.96808511
vt 0.803222656 0.96808511
vt 0.803222656 0.937137306
vt 0.804199219 0.937137306
vt 0.804199219 0.96808511
vt 0.819824219 0.96808511
vt 0.819824219 0.937137306
vt 0.820800781 0.937137306
vt 0.820800781 0.96808511
vt 0.836425781 0.96808511
vt 0.836425781 0.937137306
vt 0.837402344 0.937137306
vt 0.837402344 0.96808511
vt 0.853027344 0.96808511
vt 0.853027344 0.937137306
vt 0.854003906 0.937137306
vt 0.854003906 0.96808511
vt 0.869628906 0.96808511
vt 0.869628906 0.937137306
vt 0.870605469 0.937137306
vt 0.870605469 0.942940056
vt 0.886230469 0.942940056
vt 0.886230469 0.937137306
vt 0.423339844 0.939071536
vt 0.423339844 0.970019341
vt 0.438964844 0.970019341
vt 0.438964844 0.939071536
vt 0.439941406 0.939071536
vt 0.439941406 0.970019341
vt 0.455566406 0.970019341
vt 0.455566406 0.939071536
vt 0.456542969 0.939071536
vt 0.456542969 0.970019341
vt 0.472167969 0.970019341
vt 0.472167969 0.939071536
vt 0.894042969 0.941005826
vt 0.894042969 0.971953571
vt 0.909667969 0.971953571
vt 0.909667969 0.941005826
vt 0.00048828125 0.942940056
vt 0.00048828125 0.973887801
vt 0.0161132812 0.973887801
vt 0.0161132812 0.942940056
vt 0.870605469 0.944874287
vt 0.870605469 0.975822031
vt 0.886230469 0.975822031
vt 0.886230469 0.944874287
g dujiaoshou_7-mesh_0
f 3/3/3 2/2/2 1/1/1
f 1/1/1 4/4/4 3/3/3
f 7/7/7 6/6/6 5/5/5
f 5/5/5 8/8/8 7/7/7
f 11/11/11 10/10/10 9/9/9
f 9/9/9 12/12/12 11/11/11
f 15/15/15 14/14/14 13/13/13
f 13/13/13 16/16/16 15/15/15
f 19/19/19 18/18/18 17/17/17
f 17/17/17 20/20/20 19/19/19
f 23/23/23 22/22/22 21/21/21
f 21/21/21 24/24/24 23/23/23
f 27/27/27 26/26/26 25/25/25
f 25/25/25 28/28/28 27/27/27
f 31/31/31 30/30/30 29/29/29
f 29/29/29 32/32/32 31/31/31
f 35/35/35 34/34/34 33/33/33
f 33/33/33 36/36/36 35/35/35
f 39/39/39 38/38/38 37/37/37
f 37/37/37 40/40/40 39/39/39
f 43/43/43 42/42/42 41/41/41
f 41/41/41 44/44/44 43/43/43
f 47/47/47 46/46/46 45/45/45
f 45/45/45 48/48/48 47/47/47
f 51/51/51 50/50/50 49/49/49
f 49/49/49 52/52/52 51/51/51
f 55/55/55 54/54/54 53/53/53
f 53/53/53 56/56/56 55/55/55
f 59/59/59 58/58/58 57/57/57
f 57/57/57 60/60/60 59/59/59
f 63/63/63 62/62/62 61/61/61
f 61/61/61 64/64/64 63/63/63
f 67/67/67 66/66/66 65/65/65
f 65/65/65 68/68/68 67/67/67
f 71/71/71 70/70/70 69/69/69
f 69/69/69 72/72/72 71/71/71
f 75/75/75 74/74/74 73/73/73
f 73/73/73 76/76/76 75/75/75
f 79/79/79 78/78/78 77/77/77
f 77/77/77 80/80/80 79/79/79
f 83/83/83 82/82/82 81/81/81
f 81/81/81 84/84/84 83/83/83
f 87/87/87 86/86/86 85/85/85
f 85/85/85 88/88/88 87/87/87
f 91/91/91 90/90/90 89/89/89
f 89/89/89 92/92/92 91/91/91
f 95/95/95 94/94/94 93/93/93
f 93/93/93 96/96/96 95/95/95
f 99/99/99 98/98/98 97/97/97
f 97/97/97 100/100/100 99/99/99
f 103/103/103 102/102/102 101/101/101
f 101/101/101 104/104/104 103/103/103
f 107/107/107 106/106/106 105/105/105
f 105/105/105 108/108/108 107/107/107
f 111/111/111 110/110/110 109/109/109
f 109/109/109 112/112/112 111/111/111
f 115/115/115 114/114/114 113/113/113
f 113/113/113 116/116/116 115/115/115
f 119/119/119 118/118/118 117/117/117
f 117/117/117 120/120/120 119/119/119
f 123/123/123 122/122/122 121/121/121
f 121/121/121 124/124/124 123/123/123
f 127/127/127 126/126/126 125/125/125
f 125/125/125 128/128/128 127/127/127
f 131/131/131 130/130/130 129/129/129
f 129/129/129 132/132/132 131/131/131
f 135/135/135 134/134/134 133/133/133
f 133/133/133 136/136/136 135/135/135
f 139/139/139 138/138/138 137/137/137
f 137/137/137 140/140/140 139/139/139
f 143/143/143 142/142/142 141/141/141
f 141/141/141 144/144/144 143/143/143
f 147/147/147 146/146/146 145/145/145
f 145/145/145 148/148/148 147/147/147
f 151/151/151 150/150/150 149/149/149
f 149/149/149 152/152/152 151/151/151
f 155/155/155 154/154/154 153/153/153
f 153/153/153 156/156/156 155/155/155
f 159/159/159 158/158/158 157/157/157
f 157/157/157 160/160/160 159/159/159
f 163/163/163 162/162/162 161/161/161
f 161/161/161 164/164/164 163/163/163
f 167/167/167 166/166/166 165/165/165
f 165/165/165 168/168/168 167/167/167
f 171/171/171 170/170/170 169/169/169
f 169/169/169 172/172/172 171/171/171
f 175/175/175 174/174/174 173/173/173
f 173/173/173 176/176/176 175/175/175
f 179/179/179 178/178/178 177/177/177
f 177/177/177 180/180/180 179/179/179
f 183/183/183 182/182/182 181/181/181
f 181/181/181 184/184/184 183/183/183
f 187/187/187 186/186/186 185/185/185
f 185/185/185 188/188/188 187/187/187
f 191/191/191 190/190/190 189/189/189
f 189/189/189 192/192/192 191/191/191
f 195/195/195 194/194/194 193/193/193
f 193/193/193 196/196/196 195/195/195
f 199/199/199 198/198/198 197/197/197
f 197/197/197 200/200/200 199/199/199
f 203/203/203 202/202/202 201/201/201
f 201/201/201 204/204/204 203/203/203
f 207/207/207 206/206/206 205/205/205
f 205/205/205 208/208/208 207/207/207
f 211/211/211 210/210/210 209/209/209
f 209/209/209 212/212/212 211/211/211
f 215/215/215 214/214/214 213/213/213
f 213/213/213 216/216/216 215/215/215
f 219/219/219 218/218/218 217/217/217
f 217/217/217 220/220/220 219/219/219
f 223/223/223 222/222/222 221/221/221
f 221/221/221 224/224/224 223/223/223
f 227/227/227 226/226/226 225/225/225
f 225/225/225 228/228/228 227/227/227
f 231/231/231 230/230/230 229/229/229
f 229/229/229 232/232/232 231/231/231
f 235/235/235 234/234/234 233/233/233
f 233/233/233 236/236/236 235/235/235
f 239/239/239 238/238/238 237/237/237
f 237/237/237 240/240/240 239/239/239
f 243/243/243 242/242/242 241/241/241
f 241/241/241 244/244/244 243/243/243
f 247/247/247 246/246/246 245/245/245
f 245/245/245 248/248/248 247/247/247
f 251/251/251 250/250/250 249/249/249
f 249/249/249 252/252/252 251/251/251
f 255/255/255 254/254/254 253/253/253
f 253/253/253 256/256/256 255/255/255
f 259/259/259 258/258/258 257/257/257
f 257/257/257 260/260/260 259/259/259
f 263/263/263 262/262/262 261/261/261
f 261/261/261 264/264/264 263/263/263
f 267/267/267 266/266/266 265/265/265
f 265/265/265 268/268/268 267/267/267
f 271/271/271 270/270/270 269/269/269
f 269/269/269 272/272/272 271/271/271
f 275/275/275 274/274/274 273/273/273
f 273/273/273 276/276/276 275/275/275
f 279/279/279 278/278/278 277/277/277
f 277/277/277 280/280/280 279/279/279
f 283/283/283 282/282/282 281/281/281
f 281/281/281 284/284/284 283/283/283
f 287/287/287 286/286/286 285/285/285
f 285/285/285 288/288/288 287/287/287
f 291/291/291 290/290/290 289/289/289
f 289/289/289 292/292/292 291/291/291
f 295/295/295 294/294/294 293/293/293
f 293/293/293 296/296/296 295/295/295
f 299/299/299 298/298/298 297/297/297
f 297/297/297 300/300/300 299/299/299
f 303/303/303 302/302/302 301/301/301
f 301/301/301 304/304/304 303/303/303
f 307/307/307 306/306/306 305/305/305
f 305/305/305 308/308/308 307/307/307
f 311/311/311 310/310/310 309/309/309
f 309/309/309 312/312/312 311/311/311
f 315/315/315 314/314/314 313/313/313
f 313/313/313 316/316/316 315/315/315
f 319/319/319 318/318/318 317/317/317
f 317/317/317 320/320/320 319/319/319
f 323/323/323 322/322/322 321/321/321
f 321/321/321 324/324/324 323/323/323
f 327/327/327 326/326/326 325/325/325
f 325/325/325 328/328/328 327/327/327
f 331/331/331 330/330/330 329/329/329
f 329/329/329 332/332/332 331/331/331
f 335/335/335 334/334/334 333/333/333
f 333/333/333 336/336/336 335/335/335
f 339/339/339 338/338/338 337/337/337
f 337/337/337 340/340/340 339/339/339
f 343/343/343 342/342/342 341/341/341
f 341/341/341 344/344/344 343/343/343
