g yilishabai_4-mesh
v -352 745 0
v -352 1481 0
v -1728 1481 0
v -1728 745 0
v -352 41 0
v -352 745 0
v -1728 745 0
v -1728 41 0
v -128 1033 0
v -128 1321 0
v -352 1321 0
v -352 1033 0
v -128 777 0
v -128 1033 0
v -352 1033 0
v -352 777 0
v -1728 1033 0
v -1728 1289 0
v -1920 1289 0
v -1920 1033 0
v -1728 809 0
v -1728 1033 0
v -1920 1033 0
v -1920 809 0
v -672 1481 0
v -672 1577 0
v -1024 1577 0
v -1024 1481 0
v -1024 1481 0
v -1024 1577 0
v -1344 1577 0
v -1344 1481 0
v -640 0 0
v -640 41 0
v -1024 41 0
v -1024 0 0
v -1024 0 0
v -1024 41 0
v -1376 41 0
v -1376 0 0
v -1920 1097 0
v -1920 1193 0
v -2047 1193 0
v -2047 1097 0
v -256 41 0
v -256 137 0
v -352 137 0
v -352 41 0
v -288 1321 0
v -288 1449 0
v -352 1449 0
v -352 1321 0
v -288 585 0
v -288 713 0
v -352 713 0
v -352 585 0
v -64 1033 0
v -64 1161 0
v -128 1161 0
v -128 1033 0
v -1728 681 0
v -1728 809 0
v -1792 809 0
v -1792 681 0
v -64 905 0
v -64 1033 0
v -128 1033 0
v -128 905 0
v -1920 809 0
v -1920 905 0
v -1984 905 0
v -1984 809 0
v -1728 41 0
v -1728 105 0
v -1824 105 0
v -1824 41 0
v -1920 969 0
v -1920 1033 0
v -2016 1033 0
v -2016 969 0
v -1728 265 0
v -1728 361 0
v -1792 361 0
v -1792 265 0
v -1728 1289 0
v -1728 1385 0
v -1792 1385 0
v -1792 1289 0
v -288 297 0
v -288 393 0
v -352 393 0
v -352 297 0
v -256 713 0
v -256 777 0
v -352 777 0
v -352 713 0
v -160 713 0
v -160 777 0
v -256 777 0
v -256 713 0
v -288 201 0
v -288 297 0
v -352 297 0
v -352 201 0
v -512 1481 0
v -512 1545 0
v -608 1545 0
v -608 1481 0
v -1728 169 0
v -1728 265 0
v -1792 265 0
v -1792 169 0
v -1728 585 0
v -1728 681 0
v -1792 681 0
v -1792 585 0
v -1536 9 0
v -1536 41 0
v -1696 41 0
v -1696 9 0
v -1376 9 0
v -1376 41 0
v -1536 41 0
v -1536 9 0
v -1344 1481 0
v -1344 1513 0
v -1504 1513 0
v -1504 1481 0
v -352 9 0
v -352 41 0
v -512 41 0
v -512 9 0
v -224 1321 0
v -224 1385 0
v -288 1385 0
v -288 1321 0
v -256 489 0
v -256 553 0
v -320 553 0
v -320 489 0
v -64 393 0
v -64 457 0
v -128 457 0
v -128 393 0
v -608 1481 0
v -608 1545 0
v -672 1545 0
v -672 1481 0
v -512 9 0
v -512 41 0
v -640 41 0
v -640 9 0
v -1504 1481 0
v -1504 1513 0
v -1632 1513 0
v -1632 1481 0
v -448 1481 0
v -448 1513 0
v -512 1513 0
v -512 1481 0
v -1984 1193 0
v -1984 1225 0
v -2047 1225 0
v -2047 1193 0
v -1792 1289 0
v -1792 1353 0
v -1824 1353 0
v -1824 1289 0
v -1920 1193 0
v -1920 1257 0
v -1952 1257 0
v -1952 1193 0
v -224 233 0
v -224 297 0
v -256 297 0
v -256 233 0
v -1792 233 0
v -1792 297 0
v -1824 297 0
v -1824 233 0
v -64 201 0
v -64 265 0
v -96 265 0
v -96 201 0
v -0 1033 0
v -0 1097 0
v -32 1097 0
v -32 1033 0
v -1920 1033 0
v -1920 1097 0
v -1952 1097 0
v -1952 1033 0
v -224 681 0
v -224 713 0
v -288 713 0
v -288 681 0
v -1792 777 0
v -1792 809 0
v -1856 809 0
v -1856 777 0
v -96 841 0
v -96 905 0
v -128 905 0
v -128 841 0
v -96 777 0
v -96 841 0
v -128 841 0
v -128 777 0
v -32 1033 0
v -32 1097 0
v -64 1097 0
v -64 1033 0
v -1344 1513 0
v -1344 1545 0
v -1408 1545 0
v -1408 1513 0
v -32 1097 0
v -32 1161 0
v -64 1161 0
v -64 1097 0
v -96 1257 0
v -96 1321 0
v -128 1321 0
v -128 1257 0
v -1408 1513 0
v -1408 1545 0
v -1472 1545 0
v -1472 1513 0
v -256 297 0
v -256 361 0
v -288 361 0
v -288 297 0
v -256 233 0
v -256 297 0
v -288 297 0
v -288 233 0
v -1728 361 0
v -1728 393 0
v -1760 393 0
v -1760 361 0
v -64 361 0
v -64 393 0
v -96 393 0
v -96 361 0
v -320 393 0
v -320 425 0
v -352 425 0
v -352 393 0
v -64 809 0
v -64 841 0
v -96 841 0
v -96 809 0
v -1792 745 0
v -1792 777 0
v -1824 777 0
v -1824 745 0
v -192 9 0
v -192 41 0
v -224 41 0
v -224 9 0
v -224 73 0
v -224 105 0
v -256 105 0
v -256 73 0
v -320 137 0
v -320 169 0
v -352 169 0
v -352 137 0
v -96 233 0
v -96 265 0
v -128 265 0
v -128 233 0
v -1792 169 0
v -1792 201 0
v -1824 201 0
v -1824 169 0
v -1728 1385 0
v -1728 1417 0
v -1760 1417 0
v -1760 1385 0
v -192 1353 0
v -192 1385 0
v -224 1385 0
v -224 1353 0
v -320 1449 0
v -320 1481 0
v -352 1481 0
v -352 1449 0
v -1856 777 0
v -1856 809 0
v -1888 809 0
v -1888 777 0
v -96 1225 0
v -96 1257 0
v -128 1257 0
v -128 1225 0
v -1920 937 0
v -1920 969 0
v -1952 969 0
v -1952 937 0
v -1952 905 0
v -1952 937 0
v -1984 937 0
v -1984 905 0
v -1952 1065 0
v -1952 1097 0
v -1984 1097 0
v -1984 1065 0
v -1824 1289 0
v -1824 1321 0
v -1856 1321 0
v -1856 1289 0
v -96 1161 0
v -96 1193 0
v -128 1193 0
v -128 1161 0
vt 0.00048828125 0.000692546368
vt 0.00048828125 0.510387778
vt 0.672363281 0.510387778
vt 0.672363281 0.000692546368
vt 0.00048828125 0.511772871
vt 0.00048828125 0.999307454
vt 0.672363281 0.999307454
vt 0.672363281 0.511772871
vt 0.673339844 0.000692546368
vt 0.673339844 0.200138509
vt 0.782714844 0.200138509
vt 0.782714844 0.000692546368
vt 0.783691406 0.000692546368
vt 0.783691406 0.17797786
vt 0.893066406 0.17797786
vt 0.893066406 0.000692546368
vt 0.894042969 0.000692546368
vt 0.894042969 0.17797786
vt 0.987792969 0.17797786
vt 0.987792969 0.000692546368
vt 0.783691406 0.179362893
vt 0.783691406 0.334487557
vt 0.877441406 0.334487557
vt 0.877441406 0.179362893
vt 0.783691406 0.335872591
vt 0.783691406 0.402354598
vt 0.955566406 0.402354598
vt 0.955566406 0.335872591
vt 0.783691406 0.403739631
vt 0.783691406 0.470221579
vt 0.939941406 0.470221579
vt 0.939941406 0.403739631
vt 0.783691406 0.471606672
vt 0.783691406 0.500692487
vt 0.971191406 0.500692487
vt 0.971191406 0.471606672
vt 0.783691406 0.502077579
vt 0.783691406 0.531163454
vt 0.955566406 0.531163454
vt 0.955566406 0.502077579
vt 0.673339844 0.201523542
vt 0.673339844 0.26800555
vt 0.735839844 0.26800555
vt 0.735839844 0.201523542
vt 0.673339844 0.269390583
vt 0.673339844 0.335872591
vt 0.720214844 0.335872591
vt 0.720214844 0.269390583
vt 0.736816406 0.201523542
vt 0.736816406 0.290166199
vt 0.768066406 0.290166199
vt 0.768066406 0.201523542
vt 0.736816406 0.291551232
vt 0.736816406 0.380193889
vt 0.768066406 0.380193889
vt 0.768066406 0.291551232
vt 0.673339844 0.337257624
vt 0.673339844 0.42590028
vt 0.704589844 0.42590028
vt 0.704589844 0.337257624
vt 0.736816406 0.381578922
vt 0.736816406 0.470221579
vt 0.768066406 0.470221579
vt 0.768066406 0.381578922
vt 0.673339844 0.427285314
vt 0.673339844 0.51592797
vt 0.704589844 0.51592797
vt 0.704589844 0.427285314
vt 0.736816406 0.471606672
vt 0.736816406 0.538088679
vt 0.768066406 0.538088679
vt 0.768066406 0.471606672
vt 0.673339844 0.517313004
vt 0.673339844 0.561634362
vt 0.720214844 0.561634362
vt 0.720214844 0.517313004
vt 0.783691406 0.532548487
vt 0.783691406 0.576869845
vt 0.830566406 0.576869845
vt 0.830566406 0.532548487
vt 0.956542969 0.502077579
vt 0.956542969 0.568559527
vt 0.987792969 0.568559527
vt 0.987792969 0.502077579
vt 0.831542969 0.532548487
vt 0.831542969 0.599030495
vt 0.862792969 0.599030495
vt 0.862792969 0.532548487
vt 0.863769531 0.532548487
vt 0.863769531 0.599030495
vt 0.895019531 0.599030495
vt 0.895019531 0.532548487
vt 0.895996094 0.532548487
vt 0.895996094 0.576869845
vt 0.942871094 0.576869845
vt 0.942871094 0.532548487
vt 0.673339844 0.563019395
vt 0.673339844 0.607340693
vt 0.720214844 0.607340693
vt 0.720214844 0.563019395
vt 0.736816406 0.539473653
vt 0.736816406 0.60595572
vt 0.768066406 0.60595572
vt 0.768066406 0.539473653
vt 0.783691406 0.578254819
vt 0.783691406 0.622576177
vt 0.830566406 0.622576177
vt 0.830566406 0.578254819
vt 0.956542969 0.56994462
vt 0.956542969 0.636426568
vt 0.987792969 0.636426568
vt 0.987792969 0.56994462
vt 0.895996094 0.578254819
vt 0.895996094 0.644736886
vt 0.927246094 0.644736886
vt 0.927246094 0.578254819
vt 0.673339844 0.608725786
vt 0.673339844 0.630886436
vt 0.751464844 0.630886436
vt 0.751464844 0.608725786
vt 0.783691406 0.62396121
vt 0.783691406 0.64612186
vt 0.861816406 0.64612186
vt 0.861816406 0.62396121
vt 0.673339844 0.632271469
vt 0.673339844 0.654432178
vt 0.751464844 0.654432178
vt 0.751464844 0.632271469
vt 0.895996094 0.64612186
vt 0.895996094 0.668282509
vt 0.974121094 0.668282509
vt 0.974121094 0.64612186
vt 0.862792969 0.600415468
vt 0.862792969 0.644736886
vt 0.894042969 0.644736886
vt 0.894042969 0.600415468
vt 0.862792969 0.64612186
vt 0.862792969 0.690443218
vt 0.894042969 0.690443218
vt 0.894042969 0.64612186
vt 0.783691406 0.647506952
vt 0.783691406 0.691828251
vt 0.814941406 0.691828251
vt 0.814941406 0.647506952
vt 0.815917969 0.647506952
vt 0.815917969 0.691828251
vt 0.847167969 0.691828251
vt 0.847167969 0.647506952
vt 0.673339844 0.655817151
vt 0.673339844 0.6779778
vt 0.735839844 0.6779778
vt 0.735839844 0.655817151
vt 0.895996094 0.669667602
vt 0.895996094 0.691828251
vt 0.958496094 0.691828251
vt 0.958496094 0.669667602
vt 0.736816406 0.655817151
vt 0.736816406 0.6779778
vt 0.768066406 0.6779778
vt 0.768066406 0.655817151
vt 0.959472656 0.669667602
vt 0.959472656 0.691828251
vt 0.990722656 0.691828251
vt 0.990722656 0.669667602
vt 0.673339844 0.679362893
vt 0.673339844 0.723684192
vt 0.688964844 0.723684192
vt 0.688964844 0.679362893
vt 0.689941406 0.679362893
vt 0.689941406 0.723684192
vt 0.705566406 0.723684192
vt 0.705566406 0.679362893
vt 0.706542969 0.679362893
vt 0.706542969 0.723684192
vt 0.722167969 0.723684192
vt 0.722167969 0.679362893
vt 0.723144531 0.679362893
vt 0.723144531 0.723684192
vt 0.738769531 0.723684192
vt 0.738769531 0.679362893
vt 0.739746094 0.679362893
vt 0.739746094 0.723684192
vt 0.755371094 0.723684192
vt 0.755371094 0.679362893
vt 0.756347656 0.679362893
vt 0.756347656 0.723684192
vt 0.771972656 0.723684192
vt 0.771972656 0.679362893
vt 0.862792969 0.691828251
vt 0.862792969 0.736149549
vt 0.878417969 0.736149549
vt 0.878417969 0.691828251
vt 0.783691406 0.693213284
vt 0.783691406 0.715373993
vt 0.814941406 0.715373993
vt 0.814941406 0.693213284
vt 0.815917969 0.693213284
vt 0.815917969 0.715373993
vt 0.847167969 0.715373993
vt 0.847167969 0.693213284
vt 0.879394531 0.691828251
vt 0.879394531 0.736149549
vt 0.895019531 0.736149549
vt 0.895019531 0.691828251
vt 0.895996094 0.693213284
vt 0.895996094 0.737534642
vt 0.911621094 0.737534642
vt 0.911621094 0.693213284
vt 0.912597656 0.693213284
vt 0.912597656 0.737534642
vt 0.928222656 0.737534642
vt 0.928222656 0.693213284
vt 0.929199219 0.693213284
vt 0.929199219 0.715373993
vt 0.960449219 0.715373993
vt 0.960449219 0.693213284
vt 0.961425781 0.693213284
vt 0.961425781 0.737534642
vt 0.977050781 0.737534642
vt 0.977050781 0.693213284
vt 0.978027344 0.693213284
vt 0.978027344 0.737534642
vt 0.993652344 0.737534642
vt 0.993652344 0.693213284
vt 0.783691406 0.716758966
vt 0.783691406 0.738919675
vt 0.814941406 0.738919675
vt 0.814941406 0.716758966
vt 0.815917969 0.716758966
vt 0.815917969 0.761080325
vt 0.831542969 0.761080325
vt 0.831542969 0.716758966
vt 0.832519531 0.716758966
vt 0.832519531 0.761080325
vt 0.848144531 0.761080325
vt 0.848144531 0.716758966
vt 0.929199219 0.716758966
vt 0.929199219 0.738919675
vt 0.944824219 0.738919675
vt 0.944824219 0.716758966
vt 0.673339844 0.725069284
vt 0.673339844 0.747229934
vt 0.688964844 0.747229934
vt 0.688964844 0.725069284
vt 0.689941406 0.725069284
vt 0.689941406 0.747229934
vt 0.705566406 0.747229934
vt 0.705566406 0.725069284
vt 0.706542969 0.725069284
vt 0.706542969 0.747229934
vt 0.722167969 0.747229934
vt 0.722167969 0.725069284
vt 0.723144531 0.725069284
vt 0.723144531 0.747229934
vt 0.738769531 0.747229934
vt 0.738769531 0.725069284
vt 0.739746094 0.725069284
vt 0.739746094 0.747229934
vt 0.755371094 0.747229934
vt 0.755371094 0.725069284
vt 0.756347656 0.725069284
vt 0.756347656 0.747229934
vt 0.771972656 0.747229934
vt 0.771972656 0.725069284
vt 0.862792969 0.737534642
vt 0.862792969 0.759695292
vt 0.878417969 0.759695292
vt 0.878417969 0.737534642
vt 0.879394531 0.737534642
vt 0.879394531 0.759695292
vt 0.895019531 0.759695292
vt 0.895019531 0.737534642
vt 0.895996094 0.738919675
vt 0.895996094 0.761080325
vt 0.911621094 0.761080325
vt 0.911621094 0.738919675
vt 0.912597656 0.738919675
vt 0.912597656 0.761080325
vt 0.928222656 0.761080325
vt 0.928222656 0.738919675
vt 0.961425781 0.738919675
vt 0.961425781 0.761080325
vt 0.977050781 0.761080325
vt 0.977050781 0.738919675
vt 0.978027344 0.738919675
vt 0.978027344 0.761080325
vt 0.993652344 0.761080325
vt 0.993652344 0.738919675
vt 0.783691406 0.740304708
vt 0.783691406 0.762465358
vt 0.799316406 0.762465358
vt 0.799316406 0.740304708
vt 0.929199219 0.740304708
vt 0.929199219 0.762465358
vt 0.944824219 0.762465358
vt 0.944824219 0.740304708
vt 0.673339844 0.748614967
vt 0.673339844 0.770775616
vt 0.688964844 0.770775616
vt 0.688964844 0.748614967
vt 0.689941406 0.748614967
vt 0.689941406 0.770775616
vt 0.705566406 0.770775616
vt 0.705566406 0.748614967
vt 0.706542969 0.748614967
vt 0.706542969 0.770775616
vt 0.722167969 0.770775616
vt 0.722167969 0.748614967
vt 0.723144531 0.748614967
vt 0.723144531 0.770775616
vt 0.738769531 0.770775616
vt 0.738769531 0.748614967
vt 0.739746094 0.748614967
vt 0.739746094 0.770775616
vt 0.755371094 0.770775616
vt 0.755371094 0.748614967
g yilishabai_4-mesh_0
f 3/3/3 2/2/2 1/1/1
f 1/1/1 4/4/4 3/3/3
f 7/7/7 6/6/6 5/5/5
f 5/5/5 8/8/8 7/7/7
f 11/11/11 10/10/10 9/9/9
f 9/9/9 12/12/12 11/11/11
f 15/15/15 14/14/14 13/13/13
f 13/13/13 16/16/16 15/15/15
f 19/19/19 18/18/18 17/17/17
f 17/17/17 20/20/20 19/19/19
f 23/23/23 22/22/22 21/21/21
f 21/21/21 24/24/24 23/23/23
f 27/27/27 26/26/26 25/25/25
f 25/25/25 28/28/28 27/27/27
f 31/31/31 30/30/30 29/29/29
f 29/29/29 32/32/32 31/31/31
f 35/35/35 34/34/34 33/33/33
f 33/33/33 36/36/36 35/35/35
f 39/39/39 38/38/38 37/37/37
f 37/37/37 40/40/40 39/39/39
f 43/43/43 42/42/42 41/41/41
f 41/41/41 44/44/44 43/43/43
f 47/47/47 46/46/46 45/45/45
f 45/45/45 48/48/48 47/47/47
f 51/51/51 50/50/50 49/49/49
f 49/49/49 52/52/52 51/51/51
f 55/55/55 54/54/54 53/53/53
f 53/53/53 56/56/56 55/55/55
f 59/59/59 58/58/58 57/57/57
f 57/57/57 60/60/60 59/59/59
f 63/63/63 62/62/62 61/61/61
f 61/61/61 64/64/64 63/63/63
f 67/67/67 66/66/66 65/65/65
f 65/65/65 68/68/68 67/67/67
f 71/71/71 70/70/70 69/69/69
f 69/69/69 72/72/72 71/71/71
f 75/75/75 74/74/74 73/73/73
f 73/73/73 76/76/76 75/75/75
f 79/79/79 78/78/78 77/77/77
f 77/77/77 80/80/80 79/79/79
f 83/83/83 82/82/82 81/81/81
f 81/81/81 84/84/84 83/83/83
f 87/87/87 86/86/86 85/85/85
f 85/85/85 88/88/88 87/87/87
f 91/91/91 90/90/90 89/89/89
f 89/89/89 92/92/92 91/91/91
f 95/95/95 94/94/94 93/93/93
f 93/93/93 96/96/96 95/95/95
f 99/99/99 98/98/98 97/97/97
f 97/97/97 100/100/100 99/99/99
f 103/103/103 102/102/102 101/101/101
f 101/101/101 104/104/104 103/103/103
f 107/107/107 106/106/106 105/105/105
f 105/105/105 108/108/108 107/107/107
f 111/111/111 110/110/110 109/109/109
f 109/109/109 112/112/112 111/111/111
f 115/115/115 114/114/114 113/113/113
f 113/113/113 116/116/116 115/115/115
f 119/119/119 118/118/118 117/117/117
f 117/117/117 120/120/120 119/119/119
f 123/123/123 122/122/122 121/121/121
f 121/121/121 124/124/124 123/123/123
f 127/127/127 126/126/126 125/125/125
f 125/125/125 128/128/128 127/127/127
f 131/131/131 130/130/130 129/129/129
f 129/129/129 132/132/132 131/131/131
f 135/135/135 134/134/134 133/133/133
f 133/133/133 136/136/136 135/135/135
f 139/139/139 138/138/138 137/137/137
f 137/137/137 140/140/140 139/139/139
f 143/143/143 142/142/142 141/141/141
f 141/141/141 144/144/144 143/143/143
f 147/147/147 146/146/146 145/145/145
f 145/145/145 148/148/148 147/147/147
f 151/151/151 150/150/150 149/149/149
f 149/149/149 152/152/152 151/151/151
f 155/155/155 154/154/154 153/153/153
f 153/153/153 156/156/156 155/155/155
f 159/159/159 158/158/158 157/157/157
f 157/157/157 160/160/160 159/159/159
f 163/163/163 162/162/162 161/161/161
f 161/161/161 164/164/164 163/163/163
f 167/167/167 166/166/166 165/165/165
f 165/165/165 168/168/168 167/167/167
f 171/171/171 170/170/170 169/169/169
f 169/169/169 172/172/172 171/171/171
f 175/175/175 174/174/174 173/173/173
f 173/173/173 176/176/176 175/175/175
f 179/179/179 178/178/178 177/177/177
f 177/177/177 180/180/180 179/179/179
f 183/183/183 182/182/182 181/181/181
f 181/181/181 184/184/184 183/183/183
f 187/187/187 186/186/186 185/185/185
f 185/185/185 188/188/188 187/187/187
f 191/191/191 190/190/190 189/189/189
f 189/189/189 192/192/192 191/191/191
f 195/195/195 194/194/194 193/193/193
f 193/193/193 196/196/196 195/195/195
f 199/199/199 198/198/198 197/197/197
f 197/197/197 200/200/200 199/199/199
f 203/203/203 202/202/202 201/201/201
f 201/201/201 204/204/204 203/203/203
f 207/207/207 206/206/206 205/205/205
f 205/205/205 208/208/208 207/207/207
f 211/211/211 210/210/210 209/209/209
f 209/209/209 212/212/212 211/211/211
f 215/215/215 214/214/214 213/213/213
f 213/213/213 216/216/216 215/215/215
f 219/219/219 218/218/218 217/217/217
f 217/217/217 220/220/220 219/219/219
f 223/223/223 222/222/222 221/221/221
f 221/221/221 224/224/224 223/223/223
f 227/227/227 226/226/226 225/225/225
f 225/225/225 228/228/228 227/227/227
f 231/231/231 230/230/230 229/229/229
f 229/229/229 232/232/232 231/231/231
f 235/235/235 234/234/234 233/233/233
f 233/233/233 236/236/236 235/235/235
f 239/239/239 238/238/238 237/237/237
f 237/237/237 240/240/240 239/239/239
f 243/243/243 242/242/242 241/241/241
f 241/241/241 244/244/244 243/243/243
f 247/247/247 246/246/246 245/245/245
f 245/245/245 248/248/248 247/247/247
f 251/251/251 250/250/250 249/249/249
f 249/249/249 252/252/252 251/251/251
f 255/255/255 254/254/254 253/253/253
f 253/253/253 256/256/256 255/255/255
f 259/259/259 258/258/258 257/257/257
f 257/257/257 260/260/260 259/259/259
f 263/263/263 262/262/262 261/261/261
f 261/261/261 264/264/264 263/263/263
f 267/267/267 266/266/266 265/265/265
f 265/265/265 268/268/268 267/267/267
f 271/271/271 270/270/270 269/269/269
f 269/269/269 272/272/272 271/271/271
f 275/275/275 274/274/274 273/273/273
f 273/273/273 276/276/276 275/275/275
f 279/279/279 278/278/278 277/277/277
f 277/277/277 280/280/280 279/279/279
f 283/283/283 282/282/282 281/281/281
f 281/281/281 284/284/284 283/283/283
f 287/287/287 286/286/286 285/285/285
f 285/285/285 288/288/288 287/287/287
f 291/291/291 290/290/290 289/289/289
f 289/289/289 292/292/292 291/291/291
f 295/295/295 294/294/294 293/293/293
f 293/293/293 296/296/296 295/295/295
f 299/299/299 298/298/298 297/297/297
f 297/297/297 300/300/300 299/299/299
f 303/303/303 302/302/302 301/301/301
f 301/301/301 304/304/304 303/303/303
f 307/307/307 306/306/306 305/305/305
f 305/305/305 308/308/308 307/307/307
f 311/311/311 310/310/310 309/309/309
f 309/309/309 312/312/312 311/311/311
f 315/315/315 314/314/314 313/313/313
f 313/313/313 316/316/316 315/315/315
