g weiyan_3-mesh
v -192 191 0
v -192 1119 0
v -1664 1119 0
v -1664 191 0
v -192 1119 0
v -192 2047 0
v -1664 2047 0
v -1664 1119 0
v -0 223 0
v -0 607 0
v -192 607 0
v -192 223 0
v -832 31 0
v -832 191 0
v -1152 191 0
v -1152 31 0
v -1152 31 0
v -1152 191 0
v -1440 191 0
v -1440 31 0
v -1664 447 0
v -1664 735 0
v -1792 735 0
v -1792 447 0
v -1664 191 0
v -1664 447 0
v -1792 447 0
v -1792 191 0
v -160 1503 0
v -160 2047 0
v -192 2047 0
v -192 1503 0
v -160 991 0
v -160 1503 0
v -192 1503 0
v -192 991 0
v -1792 383 0
v -1792 511 0
v -1888 511 0
v -1888 383 0
v -1792 511 0
v -1792 639 0
v -1888 639 0
v -1888 511 0
v -96 639 0
v -96 735 0
v -192 735 0
v -192 639 0
v -1888 447 0
v -1888 575 0
v -1925 575 0
v -1925 447 0
v -1440 127 0
v -1440 191 0
v -1568 191 0
v -1568 127 0
v -1568 127 0
v -1568 191 0
v -1696 191 0
v -1696 127 0
v -928 0 0
v -928 31 0
v -1184 31 0
v -1184 0 0
v -608 159 0
v -608 191 0
v -832 191 0
v -832 159 0
v -1184 0 0
v -1184 31 0
v -1408 31 0
v -1408 0 0
v -384 159 0
v -384 191 0
v -608 191 0
v -608 159 0
v -1664 895 0
v -1664 1055 0
v -1696 1055 0
v -1696 895 0
v -1664 735 0
v -1664 895 0
v -1696 895 0
v -1696 735 0
v -1792 639 0
v -1792 703 0
v -1856 703 0
v -1856 639 0
v -1664 1951 0
v -1664 2047 0
v -1696 2047 0
v -1696 1951 0
v -1696 159 0
v -1696 191 0
v -1760 191 0
v -1760 159 0
v -128 191 0
v -128 223 0
v -192 223 0
v -192 191 0
v -1696 735 0
v -1696 767 0
v -1760 767 0
v -1760 735 0
v -64 191 0
v -64 223 0
v -128 223 0
v -128 191 0
v -1664 1887 0
v -1664 1951 0
v -1696 1951 0
v -1696 1887 0
v -128 1951 0
v -128 2015 0
v -160 2015 0
v -160 1951 0
v -128 1887 0
v -128 1951 0
v -160 1951 0
v -160 1887 0
v -1792 351 0
v -1792 383 0
v -1824 383 0
v -1824 351 0
v -800 127 0
v -800 159 0
v -832 159 0
v -832 127 0
v -1888 575 0
v -1888 607 0
v -1920 607 0
v -1920 575 0
v -1888 415 0
v -1888 447 0
v -1920 447 0
v -1920 415 0
vt 0.00048828125 0.000537633896
vt 0.00048828125 0.499462366
vt 0.719238281 0.499462366
vt 0.719238281 0.000537633896
vt 0.00048828125 0.500537634
vt 0.00048828125 0.999462366
vt 0.719238281 0.999462366
vt 0.719238281 0.500537634
vt 0.720214844 0.000537633896
vt 0.720214844 0.206989229
vt 0.813964844 0.206989229
vt 0.813964844 0.000537633896
vt 0.814941406 0.000537633896
vt 0.814941406 0.0865591168
vt 0.971191406 0.0865591168
vt 0.971191406 0.000537633896
vt 0.814941406 0.0876343846
vt 0.814941406 0.173655927
vt 0.955566406 0.173655927
vt 0.955566406 0.0876343846
vt 0.814941406 0.174731195
vt 0.814941406 0.329569876
vt 0.877441406 0.329569876
vt 0.877441406 0.174731195
vt 0.878417969 0.174731195
vt 0.878417969 0.312365592
vt 0.940917969 0.312365592
vt 0.940917969 0.174731195
vt 0.972167969 0.000537633896
vt 0.972167969 0.293010771
vt 0.987792969 0.293010771
vt 0.987792969 0.000537633896
vt 0.941894531 0.174731195
vt 0.941894531 0.449999988
vt 0.957519531 0.449999988
vt 0.957519531 0.174731195
vt 0.720214844 0.208064497
vt 0.720214844 0.276881695
vt 0.767089844 0.276881695
vt 0.767089844 0.208064497
vt 0.720214844 0.277956963
vt 0.720214844 0.34677422
vt 0.767089844 0.34677422
vt 0.767089844 0.277956963
vt 0.878417969 0.313440859
vt 0.878417969 0.365053773
vt 0.925292969 0.365053773
vt 0.925292969 0.313440859
vt 0.768066406 0.208064497
vt 0.768066406 0.276881695
vt 0.786621094 0.276881695
vt 0.786621094 0.208064497
vt 0.814941406 0.330645144
vt 0.814941406 0.365053773
vt 0.877441406 0.365053773
vt 0.877441406 0.330645144
vt 0.720214844 0.347849488
vt 0.720214844 0.382258058
vt 0.782714844 0.382258058
vt 0.782714844 0.347849488
vt 0.814941406 0.366129041
vt 0.814941406 0.383333325
vt 0.939941406 0.383333325
vt 0.939941406 0.366129041
vt 0.814941406 0.384408593
vt 0.814941406 0.401612878
vt 0.924316406 0.401612878
vt 0.924316406 0.384408593
vt 0.814941406 0.402688146
vt 0.814941406 0.41989249
vt 0.924316406 0.41989249
vt 0.924316406 0.402688146
vt 0.814941406 0.420967758
vt 0.814941406 0.438172042
vt 0.924316406 0.438172042
vt 0.924316406 0.420967758
vt 0.787597656 0.208064497
vt 0.787597656 0.294086039
vt 0.803222656 0.294086039
vt 0.803222656 0.208064497
vt 0.972167969 0.294086039
vt 0.972167969 0.380107522
vt 0.987792969 0.380107522
vt 0.987792969 0.294086039
vt 0.720214844 0.383333325
vt 0.720214844 0.417741954
vt 0.751464844 0.417741954
vt 0.751464844 0.383333325
vt 0.787597656 0.295161307
vt 0.787597656 0.34677422
vt 0.803222656 0.34677422
vt 0.803222656 0.295161307
vt 0.752441406 0.383333325
vt 0.752441406 0.40053761
vt 0.783691406 0.40053761
vt 0.783691406 0.383333325
vt 0.752441406 0.401612878
vt 0.752441406 0.418817222
vt 0.783691406 0.418817222
vt 0.783691406 0.401612878
vt 0.720214844 0.418817222
vt 0.720214844 0.436021507
vt 0.751464844 0.436021507
vt 0.751464844 0.418817222
vt 0.752441406 0.41989249
vt 0.752441406 0.437096775
vt 0.783691406 0.437096775
vt 0.783691406 0.41989249
vt 0.787597656 0.347849488
vt 0.787597656 0.382258058
vt 0.803222656 0.382258058
vt 0.803222656 0.347849488
vt 0.972167969 0.38118279
vt 0.972167969 0.415591419
vt 0.987792969 0.415591419
vt 0.987792969 0.38118279
vt 0.787597656 0.383333325
vt 0.787597656 0.417741954
vt 0.803222656 0.417741954
vt 0.803222656 0.383333325
vt 0.925292969 0.384408593
vt 0.925292969 0.401612878
vt 0.940917969 0.401612878
vt 0.940917969 0.384408593
vt 0.925292969 0.402688146
vt 0.925292969 0.41989249
vt 0.940917969 0.41989249
vt 0.940917969 0.402688146
vt 0.972167969 0.416666687
vt 0.972167969 0.433870971
vt 0.987792969 0.433870971
vt 0.987792969 0.416666687
vt 0.787597656 0.418817222
vt 0.787597656 0.436021507
vt 0.803222656 0.436021507
vt 0.803222656 0.418817222
g weiyan_3-mesh_0
f 3/3/3 2/2/2 1/1/1
f 1/1/1 4/4/4 3/3/3
f 7/7/7 6/6/6 5/5/5
f 5/5/5 8/8/8 7/7/7
f 11/11/11 10/10/10 9/9/9
f 9/9/9 12/12/12 11/11/11
f 15/15/15 14/14/14 13/13/13
f 13/13/13 16/16/16 15/15/15
f 19/19/19 18/18/18 17/17/17
f 17/17/17 20/20/20 19/19/19
f 23/23/23 22/22/22 21/21/21
f 21/21/21 24/24/24 23/23/23
f 27/27/27 26/26/26 25/25/25
f 25/25/25 28/28/28 27/27/27
f 31/31/31 30/30/30 29/29/29
f 29/29/29 32/32/32 31/31/31
f 35/35/35 34/34/34 33/33/33
f 33/33/33 36/36/36 35/35/35
f 39/39/39 38/38/38 37/37/37
f 37/37/37 40/40/40 39/39/39
f 43/43/43 42/42/42 41/41/41
f 41/41/41 44/44/44 43/43/43
f 47/47/47 46/46/46 45/45/45
f 45/45/45 48/48/48 47/47/47
f 51/51/51 50/50/50 49/49/49
f 49/49/49 52/52/52 51/51/51
f 55/55/55 54/54/54 53/53/53
f 53/53/53 56/56/56 55/55/55
f 59/59/59 58/58/58 57/57/57
f 57/57/57 60/60/60 59/59/59
f 63/63/63 62/62/62 61/61/61
f 61/61/61 64/64/64 63/63/63
f 67/67/67 66/66/66 65/65/65
f 65/65/65 68/68/68 67/67/67
f 71/71/71 70/70/70 69/69/69
f 69/69/69 72/72/72 71/71/71
f 75/75/75 74/74/74 73/73/73
f 73/73/73 76/76/76 75/75/75
f 79/79/79 78/78/78 77/77/77
f 77/77/77 80/80/80 79/79/79
f 83/83/83 82/82/82 81/81/81
f 81/81/81 84/84/84 83/83/83
f 87/87/87 86/86/86 85/85/85
f 85/85/85 88/88/88 87/87/87
f 91/91/91 90/90/90 89/89/89
f 89/89/89 92/92/92 91/91/91
f 95/95/95 94/94/94 93/93/93
f 93/93/93 96/96/96 95/95/95
f 99/99/99 98/98/98 97/97/97
f 97/97/97 100/100/100 99/99/99
f 103/103/103 102/102/102 101/101/101
f 101/101/101 104/104/104 103/103/103
f 107/107/107 106/106/106 105/105/105
f 105/105/105 108/108/108 107/107/107
f 111/111/111 110/110/110 109/109/109
f 109/109/109 112/112/112 111/111/111
f 115/115/115 114/114/114 113/113/113
f 113/113/113 116/116/116 115/115/115
f 119/119/119 118/118/118 117/117/117
f 117/117/117 120/120/120 119/119/119
f 123/123/123 122/122/122 121/121/121
f 121/121/121 124/124/124 123/123/123
f 127/127/127 126/126/126 125/125/125
f 125/125/125 128/128/128 127/127/127
f 131/131/131 130/130/130 129/129/129
f 129/129/129 132/132/132 131/131/131
f 135/135/135 134/134/134 133/133/133
f 133/133/133 136/136/136 135/135/135
