g beiqi_2-mesh
v -128 351 0
v -128 671 0
v -672 671 0
v -672 351 0
v -128 63 0
v -128 351 0
v -672 351 0
v -672 63 0
v -224 671 0
v -224 927 0
v -576 927 0
v -576 671 0
v -0 127 0
v -0 351 0
v -128 351 0
v -128 127 0
v -256 927 0
v -256 1023 0
v -448 1023 0
v -448 927 0
v -672 191 0
v -672 415 0
v -736 415 0
v -736 191 0
v -672 0 0
v -672 191 0
v -736 191 0
v -736 0 0
v -672 607 0
v -672 735 0
v -736 735 0
v -736 607 0
v -576 735 0
v -576 831 0
v -640 831 0
v -640 735 0
v -672 511 0
v -672 607 0
v -736 607 0
v -736 511 0
v -384 31 0
v -384 63 0
v -544 63 0
v -544 31 0
v -96 351 0
v -96 479 0
v -128 479 0
v -128 351 0
v -32 351 0
v -32 415 0
v -96 415 0
v -96 351 0
v -96 479 0
v -96 607 0
v -128 607 0
v -128 479 0
v -576 671 0
v -576 735 0
v -640 735 0
v -640 671 0
v -544 31 0
v -544 63 0
v -672 63 0
v -672 31 0
v -736 159 0
v -736 255 0
v -768 255 0
v -768 159 0
v -736 255 0
v -736 351 0
v -768 351 0
v -768 255 0
v -32 671 0
v -32 703 0
v -128 703 0
v -128 671 0
v -128 671 0
v -128 703 0
v -224 703 0
v -224 671 0
v -64 639 0
v -64 671 0
v -128 671 0
v -128 639 0
v -192 735 0
v -192 799 0
v -224 799 0
v -224 735 0
v -448 927 0
v -448 991 0
v -480 991 0
v -480 927 0
v -768 31 0
v -768 95 0
v -781 95 0
v -781 31 0
v -64 95 0
v -64 127 0
v -128 127 0
v -128 95 0
v -672 415 0
v -672 479 0
v -704 479 0
v -704 415 0
v -736 63 0
v -736 127 0
v -768 127 0
v -768 63 0
v -736 607 0
v -736 671 0
v -768 671 0
v -768 607 0
v -736 671 0
v -736 735 0
v -768 735 0
v -768 671 0
v -736 0 0
v -736 63 0
v -768 63 0
v -768 0 0
v -608 0 0
v -608 31 0
v -672 31 0
v -672 0 0
v -544 0 0
v -544 31 0
v -608 31 0
v -608 0 0
v -576 831 0
v -576 863 0
v -608 863 0
v -608 831 0
v -64 703 0
v -64 735 0
v -96 735 0
v -96 703 0
v -480 927 0
v -480 959 0
v -512 959 0
v -512 927 0
v -192 703 0
v -192 735 0
v -224 735 0
v -224 703 0
v -224 927 0
v -224 959 0
v -256 959 0
v -256 927 0
vt 0.0009765625 0.00160771608
vt 0.0009765625 0.516077161
vt 0.532226562 0.516077161
vt 0.532226562 0.00160771608
vt 0.0009765625 0.519292593
vt 0.0009765625 0.982315123
vt 0.532226562 0.982315123
vt 0.532226562 0.519292593
vt 0.534179688 0.00160771608
vt 0.534179688 0.413183272
vt 0.877929688 0.413183272
vt 0.877929688 0.00160771608
vt 0.534179688 0.416398704
vt 0.534179688 0.776527345
vt 0.659179688 0.776527345
vt 0.659179688 0.416398704
vt 0.661132812 0.416398704
vt 0.661132812 0.570739508
vt 0.848632812 0.570739508
vt 0.848632812 0.416398704
vt 0.879882812 0.00160771608
vt 0.879882812 0.361736357
vt 0.942382812 0.361736357
vt 0.942382812 0.00160771608
vt 0.879882812 0.364951789
vt 0.879882812 0.673633456
vt 0.942382812 0.673633456
vt 0.942382812 0.364951789
vt 0.661132812 0.57395494
vt 0.661132812 0.779742777
vt 0.723632812 0.779742777
vt 0.723632812 0.57395494
vt 0.725585938 0.57395494
vt 0.725585938 0.728295803
vt 0.788085938 0.728295803
vt 0.788085938 0.57395494
vt 0.790039062 0.57395494
vt 0.790039062 0.728295803
vt 0.852539062 0.728295803
vt 0.852539062 0.57395494
vt 0.725585938 0.731511235
vt 0.725585938 0.78295821
vt 0.881835938 0.78295821
vt 0.881835938 0.731511235
vt 0.944335938 0.00160771608
vt 0.944335938 0.207395494
vt 0.975585938 0.207395494
vt 0.975585938 0.00160771608
vt 0.883789062 0.676848888
vt 0.883789062 0.779742777
vt 0.946289062 0.779742777
vt 0.946289062 0.676848888
vt 0.948242188 0.210610926
vt 0.948242188 0.416398704
vt 0.979492188 0.416398704
vt 0.979492188 0.210610926
vt 0.534179688 0.779742777
vt 0.534179688 0.882636666
vt 0.596679688 0.882636666
vt 0.596679688 0.779742777
vt 0.725585938 0.786173642
vt 0.725585938 0.837620616
vt 0.850585938 0.837620616
vt 0.850585938 0.786173642
vt 0.948242188 0.419614136
vt 0.948242188 0.57395494
vt 0.979492188 0.57395494
vt 0.979492188 0.419614136
vt 0.948242188 0.577170432
vt 0.948242188 0.731511235
vt 0.979492188 0.731511235
vt 0.979492188 0.577170432
vt 0.883789062 0.78295821
vt 0.883789062 0.834405124
vt 0.977539062 0.834405124
vt 0.977539062 0.78295821
vt 0.883789062 0.837620616
vt 0.883789062 0.889067531
vt 0.977539062 0.889067531
vt 0.977539062 0.837620616
vt 0.661132812 0.78295821
vt 0.661132812 0.834405124
vt 0.723632812 0.834405124
vt 0.723632812 0.78295821
vt 0.598632812 0.779742777
vt 0.598632812 0.882636666
vt 0.629882812 0.882636666
vt 0.629882812 0.779742777
vt 0.661132812 0.837620616
vt 0.661132812 0.940514445
vt 0.692382812 0.940514445
vt 0.692382812 0.837620616
vt 0.981445312 0.00160771608
vt 0.981445312 0.104501605
vt 0.995117188 0.104501605
vt 0.995117188 0.00160771608
vt 0.725585938 0.840836048
vt 0.725585938 0.892282963
vt 0.788085938 0.892282963
vt 0.788085938 0.840836048
vt 0.790039062 0.840836048
vt 0.790039062 0.943729877
vt 0.821289062 0.943729877
vt 0.821289062 0.840836048
vt 0.823242188 0.840836048
vt 0.823242188 0.943729877
vt 0.854492188 0.943729877
vt 0.854492188 0.840836048
vt 0.534179688 0.885852098
vt 0.534179688 0.988745987
vt 0.565429688 0.988745987
vt 0.565429688 0.885852098
vt 0.567382812 0.885852098
vt 0.567382812 0.988745987
vt 0.598632812 0.988745987
vt 0.598632812 0.885852098
vt 0.600585938 0.885852098
vt 0.600585938 0.988745987
vt 0.631835938 0.988745987
vt 0.631835938 0.885852098
vt 0.883789062 0.892282963
vt 0.883789062 0.943729877
vt 0.946289062 0.943729877
vt 0.946289062 0.892282963
vt 0.725585938 0.895498395
vt 0.725585938 0.94694531
vt 0.788085938 0.94694531
vt 0.788085938 0.895498395
vt 0.948242188 0.892282963
vt 0.948242188 0.943729877
vt 0.979492188 0.943729877
vt 0.979492188 0.892282963
vt 0.661132812 0.943729877
vt 0.661132812 0.995176852
vt 0.692382812 0.995176852
vt 0.692382812 0.943729877
vt 0.790039062 0.94694531
vt 0.790039062 0.998392284
vt 0.821289062 0.998392284
vt 0.821289062 0.94694531
vt 0.823242188 0.94694531
vt 0.823242188 0.998392284
vt 0.854492188 0.998392284
vt 0.854492188 0.94694531
vt 0.883789062 0.94694531
vt 0.883789062 0.998392284
vt 0.915039062 0.998392284
vt 0.915039062 0.94694531
g beiqi_2-mesh_0
f 3/3/3 2/2/2 1/1/1
f 1/1/1 4/4/4 3/3/3
f 7/7/7 6/6/6 5/5/5
f 5/5/5 8/8/8 7/7/7
f 11/11/11 10/10/10 9/9/9
f 9/9/9 12/12/12 11/11/11
f 15/15/15 14/14/14 13/13/13
f 13/13/13 16/16/16 15/15/15
f 19/19/19 18/18/18 17/17/17
f 17/17/17 20/20/20 19/19/19
f 23/23/23 22/22/22 21/21/21
f 21/21/21 24/24/24 23/23/23
f 27/27/27 26/26/26 25/25/25
f 25/25/25 28/28/28 27/27/27
f 31/31/31 30/30/30 29/29/29
f 29/29/29 32/32/32 31/31/31
f 35/35/35 34/34/34 33/33/33
f 33/33/33 36/36/36 35/35/35
f 39/39/39 38/38/38 37/37/37
f 37/37/37 40/40/40 39/39/39
f 43/43/43 42/42/42 41/41/41
f 41/41/41 44/44/44 43/43/43
f 47/47/47 46/46/46 45/45/45
f 45/45/45 48/48/48 47/47/47
f 51/51/51 50/50/50 49/49/49
f 49/49/49 52/52/52 51/51/51
f 55/55/55 54/54/54 53/53/53
f 53/53/53 56/56/56 55/55/55
f 59/59/59 58/58/58 57/57/57
f 57/57/57 60/60/60 59/59/59
f 63/63/63 62/62/62 61/61/61
f 61/61/61 64/64/64 63/63/63
f 67/67/67 66/66/66 65/65/65
f 65/65/65 68/68/68 67/67/67
f 71/71/71 70/70/70 69/69/69
f 69/69/69 72/72/72 71/71/71
f 75/75/75 74/74/74 73/73/73
f 73/73/73 76/76/76 75/75/75
f 79/79/79 78/78/78 77/77/77
f 77/77/77 80/80/80 79/79/79
f 83/83/83 82/82/82 81/81/81
f 81/81/81 84/84/84 83/83/83
f 87/87/87 86/86/86 85/85/85
f 85/85/85 88/88/88 87/87/87
f 91/91/91 90/90/90 89/89/89
f 89/89/89 92/92/92 91/91/91
f 95/95/95 94/94/94 93/93/93
f 93/93/93 96/96/96 95/95/95
f 99/99/99 98/98/98 97/97/97
f 97/97/97 100/100/100 99/99/99
f 103/103/103 102/102/102 101/101/101
f 101/101/101 104/104/104 103/103/103
f 107/107/107 106/106/106 105/105/105
f 105/105/105 108/108/108 107/107/107
f 111/111/111 110/110/110 109/109/109
f 109/109/109 112/112/112 111/111/111
f 115/115/115 114/114/114 113/113/113
f 113/113/113 116/116/116 115/115/115
f 119/119/119 118/118/118 117/117/117
f 117/117/117 120/120/120 119/119/119
f 123/123/123 122/122/122 121/121/121
f 121/121/121 124/124/124 123/123/123
f 127/127/127 126/126/126 125/125/125
f 125/125/125 128/128/128 127/127/127
f 131/131/131 130/130/130 129/129/129
f 129/129/129 132/132/132 131/131/131
f 135/135/135 134/134/134 133/133/133
f 133/133/133 136/136/136 135/135/135
f 139/139/139 138/138/138 137/137/137
f 137/137/137 140/140/140 139/139/139
f 143/143/143 142/142/142 141/141/141
f 141/141/141 144/144/144 143/143/143
f 147/147/147 146/146/146 145/145/145
f 145/145/145 148/148/148 147/147/147
