g tikangdeluojia_3-mesh
v -192 139 0
v -192 843 0
v -1568 843 0
v -1568 139 0
v -192 843 0
v -192 1547 0
v -1568 1547 0
v -1568 843 0
v -1568 491 0
v -1568 1099 0
v -1824 1099 0
v -1824 491 0
v -1568 1099 0
v -1568 1707 0
v -1824 1707 0
v -1824 1099 0
v -1824 1131 0
v -1824 1387 0
v -2047 1387 0
v -2047 1131 0
v -64 491 0
v -64 875 0
v -192 875 0
v -192 491 0
v -64 875 0
v -64 1259 0
v -192 1259 0
v -192 875 0
v -480 1547 0
v -480 1643 0
v -928 1643 0
v -928 1547 0
v -928 1547 0
v -928 1643 0
v -1344 1643 0
v -1344 1547 0
v -1824 683 0
v -1824 971 0
v -1952 971 0
v -1952 683 0
v -640 43 0
v -640 139 0
v -928 139 0
v -928 43 0
v -928 43 0
v -928 139 0
v -1216 139 0
v -1216 43 0
v -1824 971 0
v -1824 1131 0
v -1984 1131 0
v -1984 971 0
v -192 1547 0
v -192 1707 0
v -352 1707 0
v -352 1547 0
v -1472 1547 0
v -1472 1707 0
v -1568 1707 0
v -1568 1547 0
v -1568 363 0
v -1568 459 0
v -1728 459 0
v -1728 363 0
v -128 1419 0
v -128 1579 0
v -192 1579 0
v -192 1419 0
v -128 1259 0
v -128 1419 0
v -192 1419 0
v -192 1259 0
v -1184 1643 0
v -1184 1739 0
v -1280 1739 0
v -1280 1643 0
v -928 0 0
v -928 43 0
v -1056 43 0
v -1056 0 0
v -1888 1387 0
v -1888 1451 0
v -2016 1451 0
v -2016 1387 0
v -128 235 0
v -128 363 0
v -192 363 0
v -192 235 0
v -128 363 0
v -128 491 0
v -192 491 0
v -192 363 0
v -32 1035 0
v -32 1259 0
v -64 1259 0
v -64 1035 0
v -1376 75 0
v -1376 139 0
v -1472 139 0
v -1472 75 0
v -448 107 0
v -448 139 0
v -640 139 0
v -640 107 0
v -768 1643 0
v -768 1675 0
v -960 1675 0
v -960 1643 0
v -576 1643 0
v -576 1675 0
v -768 1675 0
v -768 1643 0
v -32 843 0
v -32 1035 0
v -64 1035 0
v -64 843 0
v -256 107 0
v -256 139 0
v -448 139 0
v -448 107 0
v -1344 1547 0
v -1344 1611 0
v -1408 1611 0
v -1408 1547 0
v -1568 171 0
v -1568 235 0
v -1632 235 0
v -1632 171 0
v -32 683 0
v -32 811 0
v -64 811 0
v -64 683 0
v -1536 1707 0
v -1536 1739 0
v -1664 1739 0
v -1664 1707 0
v -1664 1707 0
v -1664 1739 0
v -1792 1739 0
v -1792 1707 0
v -1824 587 0
v -1824 683 0
v -1856 683 0
v -1856 587 0
v -32 587 0
v -32 683 0
v -64 683 0
v -64 587 0
v -1568 459 0
v -1568 491 0
v -1664 491 0
v -1664 459 0
v -0 907 0
v -0 1003 0
v -32 1003 0
v -32 907 0
v -1664 459 0
v -1664 491 0
v -1760 491 0
v -1760 459 0
v -96 267 0
v -96 331 0
v -128 331 0
v -128 267 0
v -1984 1067 0
v -1984 1131 0
v -2016 1131 0
v -2016 1067 0
v -96 427 0
v -96 491 0
v -128 491 0
v -128 427 0
v -1568 299 0
v -1568 363 0
v -1600 363 0
v -1600 299 0
v -1216 107 0
v -1216 139 0
v -1280 139 0
v -1280 107 0
v -1856 555 0
v -1856 619 0
v -1888 619 0
v -1888 555 0
v -1728 363 0
v -1728 427 0
v -1760 427 0
v -1760 363 0
v -1952 811 0
v -1952 875 0
v -1984 875 0
v -1984 811 0
v -1696 1739 0
v -1696 1771 0
v -1760 1771 0
v -1760 1739 0
v -1056 1643 0
v -1056 1675 0
v -1120 1675 0
v -1120 1643 0
v -0 843 0
v -0 907 0
v -32 907 0
v -32 843 0
v -96 1259 0
v -96 1323 0
v -128 1323 0
v -128 1259 0
v -1824 523 0
v -1824 587 0
v -1856 587 0
v -1856 523 0
v -352 1547 0
v -352 1579 0
v -416 1579 0
v -416 1547 0
v -416 1547 0
v -416 1579 0
v -480 1579 0
v -480 1547 0
v -96 1323 0
v -96 1387 0
v -128 1387 0
v -128 1323 0
v -160 1611 0
v -160 1675 0
v -192 1675 0
v -192 1611 0
v -352 75 0
v -352 107 0
v -416 107 0
v -416 75 0
v -416 75 0
v -416 107 0
v -480 107 0
v -480 75 0
v -1408 1547 0
v -1408 1579 0
v -1440 1579 0
v -1440 1547 0
v -1856 1387 0
v -1856 1419 0
v -1888 1419 0
v -1888 1387 0
v -1952 907 0
v -1952 939 0
v -1984 939 0
v -1984 907 0
v -1856 651 0
v -1856 683 0
v -1888 683 0
v -1888 651 0
v -2016 1387 0
v -2016 1419 0
v -2047 1419 0
v -2047 1387 0
v -608 75 0
v -608 107 0
v -640 107 0
v -640 75 0
v -1216 75 0
v -1216 107 0
v -1248 107 0
v -1248 75 0
v -896 11 0
v -896 43 0
v -928 43 0
v -928 11 0
v -1600 331 0
v -1600 363 0
v -1632 363 0
v -1632 331 0
v -1632 203 0
v -1632 235 0
v -1664 235 0
v -1664 203 0
v -512 75 0
v -512 107 0
v -544 107 0
v -544 75 0
v -1568 267 0
v -1568 299 0
v -1600 299 0
v -1600 267 0
v -96 235 0
v -96 267 0
v -128 267 0
v -128 235 0
v -96 395 0
v -96 427 0
v -128 427 0
v -128 395 0
v -160 1579 0
v -160 1611 0
v -192 1611 0
v -192 1579 0
v -1984 1035 0
v -1984 1067 0
v -2016 1067 0
v -2016 1035 0
v -1280 107 0
v -1280 139 0
v -1312 139 0
v -1312 107 0
v -1152 1643 0
v -1152 1675 0
v -1184 1675 0
v -1184 1643 0
v -352 1579 0
v -352 1611 0
v -384 1611 0
v -384 1579 0
v -288 1707 0
v -288 1739 0
v -320 1739 0
v -320 1707 0
v -352 1803 0
v -352 1835 0
v -384 1835 0
v -384 1803 0
v -320 1771 0
v -320 1803 0
v -352 1803 0
v -352 1771 0
vt 0.00048828125 0.000639379025
vt 0.00048828125 0.450767279
vt 0.672363281 0.450767279
vt 0.672363281 0.000639379025
vt 0.00048828125 0.452046037
vt 0.00048828125 0.902173936
vt 0.672363281 0.902173936
vt 0.672363281 0.452046037
vt 0.673339844 0.000639379025
vt 0.673339844 0.389386177
vt 0.798339844 0.389386177
vt 0.798339844 0.000639379025
vt 0.799316406 0.000639379025
vt 0.799316406 0.389386177
vt 0.924316406 0.389386177
vt 0.924316406 0.000639379025
vt 0.673339844 0.390664935
vt 0.673339844 0.554347813
vt 0.782714844 0.554347813
vt 0.782714844 0.390664935
vt 0.925292969 0.000639379025
vt 0.925292969 0.246163666
vt 0.987792969 0.246163666
vt 0.987792969 0.000639379025
vt 0.925292969 0.247442484
vt 0.925292969 0.492966771
vt 0.987792969 0.492966771
vt 0.987792969 0.247442484
vt 0.673339844 0.555626631
vt 0.673339844 0.617007673
vt 0.892089844 0.617007673
vt 0.892089844 0.555626631
vt 0.673339844 0.618286431
vt 0.673339844 0.679667532
vt 0.876464844 0.679667532
vt 0.876464844 0.618286431
vt 0.925292969 0.494245529
vt 0.925292969 0.678388715
vt 0.987792969 0.678388715
vt 0.987792969 0.494245529
vt 0.673339844 0.68094629
vt 0.673339844 0.742327332
vt 0.813964844 0.742327332
vt 0.813964844 0.68094629
vt 0.814941406 0.68094629
vt 0.814941406 0.742327332
vt 0.955566406 0.742327332
vt 0.955566406 0.68094629
vt 0.673339844 0.74360615
vt 0.673339844 0.845907927
vt 0.751464844 0.845907927
vt 0.751464844 0.74360615
vt 0.752441406 0.74360615
vt 0.752441406 0.845907927
vt 0.830566406 0.845907927
vt 0.830566406 0.74360615
vt 0.831542969 0.74360615
vt 0.831542969 0.845907927
vt 0.878417969 0.845907927
vt 0.878417969 0.74360615
vt 0.879394531 0.74360615
vt 0.879394531 0.804987192
vt 0.957519531 0.804987192
vt 0.957519531 0.74360615
vt 0.958496094 0.679667532
vt 0.958496094 0.781969309
vt 0.989746094 0.781969309
vt 0.989746094 0.679667532
vt 0.958496094 0.783248067
vt 0.958496094 0.885549903
vt 0.989746094 0.885549903
vt 0.989746094 0.783248067
vt 0.879394531 0.80626595
vt 0.879394531 0.867647052
vt 0.926269531 0.867647052
vt 0.926269531 0.80626595
vt 0.673339844 0.847186685
vt 0.673339844 0.875319719
vt 0.735839844 0.875319719
vt 0.735839844 0.847186685
vt 0.736816406 0.847186685
vt 0.736816406 0.888107419
vt 0.799316406 0.888107419
vt 0.799316406 0.847186685
vt 0.800292969 0.847186685
vt 0.800292969 0.929028153
vt 0.831542969 0.929028153
vt 0.831542969 0.847186685
vt 0.832519531 0.847186685
vt 0.832519531 0.929028153
vt 0.863769531 0.929028153
vt 0.863769531 0.847186685
vt 0.927246094 0.80626595
vt 0.927246094 0.949488521
vt 0.942871094 0.949488521
vt 0.942871094 0.80626595
vt 0.879394531 0.86892581
vt 0.879394531 0.909846544
vt 0.926269531 0.909846544
vt 0.926269531 0.86892581
vt 0.00048828125 0.903452694
vt 0.00048828125 0.923913062
vt 0.0942382812 0.923913062
vt 0.0942382812 0.903452694
vt 0.0952148438 0.903452694
vt 0.0952148438 0.923913062
vt 0.188964844 0.923913062
vt 0.188964844 0.903452694
vt 0.189941406 0.903452694
vt 0.189941406 0.923913062
vt 0.283691406 0.923913062
vt 0.283691406 0.903452694
vt 0.673339844 0.876598477
vt 0.673339844 0.999360621
vt 0.688964844 0.999360621
vt 0.688964844 0.876598477
vt 0.284667969 0.903452694
vt 0.284667969 0.923913062
vt 0.378417969 0.923913062
vt 0.378417969 0.903452694
vt 0.689941406 0.876598477
vt 0.689941406 0.917519212
vt 0.721191406 0.917519212
vt 0.721191406 0.876598477
vt 0.958496094 0.886828661
vt 0.958496094 0.927749336
vt 0.989746094 0.927749336
vt 0.989746094 0.886828661
vt 0.736816406 0.889386177
vt 0.736816406 0.971227646
vt 0.752441406 0.971227646
vt 0.752441406 0.889386177
vt 0.379394531 0.903452694
vt 0.379394531 0.923913062
vt 0.441894531 0.923913062
vt 0.441894531 0.903452694
vt 0.442871094 0.903452694
vt 0.442871094 0.923913062
vt 0.505371094 0.923913062
vt 0.505371094 0.903452694
vt 0.753417969 0.889386177
vt 0.753417969 0.950767279
vt 0.769042969 0.950767279
vt 0.769042969 0.889386177
vt 0.770019531 0.889386177
vt 0.770019531 0.950767279
vt 0.785644531 0.950767279
vt 0.785644531 0.889386177
vt 0.506347656 0.903452694
vt 0.506347656 0.923913062
vt 0.553222656 0.923913062
vt 0.553222656 0.903452694
vt 0.554199219 0.903452694
vt 0.554199219 0.964833736
vt 0.569824219 0.964833736
vt 0.569824219 0.903452694
vt 0.570800781 0.903452694
vt 0.570800781 0.923913062
vt 0.617675781 0.923913062
vt 0.617675781 0.903452694
vt 0.618652344 0.903452694
vt 0.618652344 0.944373429
vt 0.634277344 0.944373429
vt 0.634277344 0.903452694
vt 0.635253906 0.903452694
vt 0.635253906 0.944373429
vt 0.650878906 0.944373429
vt 0.650878906 0.903452694
vt 0.651855469 0.903452694
vt 0.651855469 0.944373429
vt 0.667480469 0.944373429
vt 0.667480469 0.903452694
vt 0.879394531 0.911125302
vt 0.879394531 0.952046037
vt 0.895019531 0.952046037
vt 0.895019531 0.911125302
vt 0.689941406 0.91879797
vt 0.689941406 0.939258337
vt 0.721191406 0.939258337
vt 0.721191406 0.91879797
vt 0.895996094 0.911125302
vt 0.895996094 0.952046037
vt 0.911621094 0.952046037
vt 0.911621094 0.911125302
vt 0.00048828125 0.92519182
vt 0.00048828125 0.966112554
vt 0.0161132812 0.966112554
vt 0.0161132812 0.92519182
vt 0.0170898438 0.92519182
vt 0.0170898438 0.966112554
vt 0.0327148438 0.966112554
vt 0.0327148438 0.92519182
vt 0.0336914062 0.92519182
vt 0.0336914062 0.945652187
vt 0.0649414062 0.945652187
vt 0.0649414062 0.92519182
vt 0.0659179688 0.92519182
vt 0.0659179688 0.945652187
vt 0.0971679688 0.945652187
vt 0.0971679688 0.92519182
vt 0.0981445312 0.92519182
vt 0.0981445312 0.966112554
vt 0.113769531 0.966112554
vt 0.113769531 0.92519182
vt 0.114746094 0.92519182
vt 0.114746094 0.966112554
vt 0.130371094 0.966112554
vt 0.130371094 0.92519182
vt 0.131347656 0.92519182
vt 0.131347656 0.966112554
vt 0.146972656 0.966112554
vt 0.146972656 0.92519182
vt 0.147949219 0.92519182
vt 0.147949219 0.945652187
vt 0.179199219 0.945652187
vt 0.179199219 0.92519182
vt 0.180175781 0.92519182
vt 0.180175781 0.945652187
vt 0.211425781 0.945652187
vt 0.211425781 0.92519182
vt 0.212402344 0.92519182
vt 0.212402344 0.966112554
vt 0.228027344 0.966112554
vt 0.228027344 0.92519182
vt 0.229003906 0.92519182
vt 0.229003906 0.966112554
vt 0.244628906 0.966112554
vt 0.244628906 0.92519182
vt 0.245605469 0.92519182
vt 0.245605469 0.945652187
vt 0.276855469 0.945652187
vt 0.276855469 0.92519182
vt 0.277832031 0.92519182
vt 0.277832031 0.945652187
vt 0.309082031 0.945652187
vt 0.309082031 0.92519182
vt 0.310058594 0.92519182
vt 0.310058594 0.945652187
vt 0.325683594 0.945652187
vt 0.325683594 0.92519182
vt 0.326660156 0.92519182
vt 0.326660156 0.945652187
vt 0.342285156 0.945652187
vt 0.342285156 0.92519182
vt 0.343261719 0.92519182
vt 0.343261719 0.945652187
vt 0.358886719 0.945652187
vt 0.358886719 0.92519182
vt 0.359863281 0.92519182
vt 0.359863281 0.945652187
vt 0.375488281 0.945652187
vt 0.375488281 0.92519182
vt 0.376464844 0.92519182
vt 0.376464844 0.945652187
vt 0.392089844 0.945652187
vt 0.392089844 0.92519182
vt 0.393066406 0.92519182
vt 0.393066406 0.945652187
vt 0.408691406 0.945652187
vt 0.408691406 0.92519182
vt 0.409667969 0.92519182
vt 0.409667969 0.945652187
vt 0.425292969 0.945652187
vt 0.425292969 0.92519182
vt 0.426269531 0.92519182
vt 0.426269531 0.945652187
vt 0.441894531 0.945652187
vt 0.441894531 0.92519182
vt 0.442871094 0.92519182
vt 0.442871094 0.945652187
vt 0.458496094 0.945652187
vt 0.458496094 0.92519182
vt 0.459472656 0.92519182
vt 0.459472656 0.945652187
vt 0.475097656 0.945652187
vt 0.475097656 0.92519182
vt 0.476074219 0.92519182
vt 0.476074219 0.945652187
vt 0.491699219 0.945652187
vt 0.491699219 0.92519182
vt 0.492675781 0.92519182
vt 0.492675781 0.945652187
vt 0.508300781 0.945652187
vt 0.508300781 0.92519182
vt 0.509277344 0.92519182
vt 0.509277344 0.945652187
vt 0.524902344 0.945652187
vt 0.524902344 0.92519182
vt 0.525878906 0.92519182
vt 0.525878906 0.945652187
vt 0.541503906 0.945652187
vt 0.541503906 0.92519182
vt 0.570800781 0.92519182
vt 0.570800781 0.945652187
vt 0.586425781 0.945652187
vt 0.586425781 0.92519182
vt 0.587402344 0.92519182
vt 0.587402344 0.945652187
vt 0.603027344 0.945652187
vt 0.603027344 0.92519182
vt 0.958496094 0.929028153
vt 0.958496094 0.949488521
vt 0.974121094 0.949488521
vt 0.974121094 0.929028153
vt 0.975097656 0.929028153
vt 0.975097656 0.949488521
vt 0.990722656 0.949488521
vt 0.990722656 0.929028153
vt 0.800292969 0.930306911
vt 0.800292969 0.950767279
vt 0.815917969 0.950767279
vt 0.815917969 0.930306911
vt 0.816894531 0.930306911
vt 0.816894531 0.950767279
vt 0.832519531 0.950767279
vt 0.832519531 0.930306911
vt 0.833496094 0.930306911
vt 0.833496094 0.950767279
vt 0.849121094 0.950767279
vt 0.849121094 0.930306911
vt 0.850097656 0.930306911
vt 0.850097656 0.950767279
vt 0.865722656 0.950767279
vt 0.865722656 0.930306911
g tikangdeluojia_3-mesh_0
f 3/3/3 2/2/2 1/1/1
f 1/1/1 4/4/4 3/3/3
f 7/7/7 6/6/6 5/5/5
f 5/5/5 8/8/8 7/7/7
f 11/11/11 10/10/10 9/9/9
f 9/9/9 12/12/12 11/11/11
f 15/15/15 14/14/14 13/13/13
f 13/13/13 16/16/16 15/15/15
f 19/19/19 18/18/18 17/17/17
f 17/17/17 20/20/20 19/19/19
f 23/23/23 22/22/22 21/21/21
f 21/21/21 24/24/24 23/23/23
f 27/27/27 26/26/26 25/25/25
f 25/25/25 28/28/28 27/27/27
f 31/31/31 30/30/30 29/29/29
f 29/29/29 32/32/32 31/31/31
f 35/35/35 34/34/34 33/33/33
f 33/33/33 36/36/36 35/35/35
f 39/39/39 38/38/38 37/37/37
f 37/37/37 40/40/40 39/39/39
f 43/43/43 42/42/42 41/41/41
f 41/41/41 44/44/44 43/43/43
f 47/47/47 46/46/46 45/45/45
f 45/45/45 48/48/48 47/47/47
f 51/51/51 50/50/50 49/49/49
f 49/49/49 52/52/52 51/51/51
f 55/55/55 54/54/54 53/53/53
f 53/53/53 56/56/56 55/55/55
f 59/59/59 58/58/58 57/57/57
f 57/57/57 60/60/60 59/59/59
f 63/63/63 62/62/62 61/61/61
f 61/61/61 64/64/64 63/63/63
f 67/67/67 66/66/66 65/65/65
f 65/65/65 68/68/68 67/67/67
f 71/71/71 70/70/70 69/69/69
f 69/69/69 72/72/72 71/71/71
f 75/75/75 74/74/74 73/73/73
f 73/73/73 76/76/76 75/75/75
f 79/79/79 78/78/78 77/77/77
f 77/77/77 80/80/80 79/79/79
f 83/83/83 82/82/82 81/81/81
f 81/81/81 84/84/84 83/83/83
f 87/87/87 86/86/86 85/85/85
f 85/85/85 88/88/88 87/87/87
f 91/91/91 90/90/90 89/89/89
f 89/89/89 92/92/92 91/91/91
f 95/95/95 94/94/94 93/93/93
f 93/93/93 96/96/96 95/95/95
f 99/99/99 98/98/98 97/97/97
f 97/97/97 100/100/100 99/99/99
f 103/103/103 102/102/102 101/101/101
f 101/101/101 104/104/104 103/103/103
f 107/107/107 106/106/106 105/105/105
f 105/105/105 108/108/108 107/107/107
f 111/111/111 110/110/110 109/109/109
f 109/109/109 112/112/112 111/111/111
f 115/115/115 114/114/114 113/113/113
f 113/113/113 116/116/116 115/115/115
f 119/119/119 118/118/118 117/117/117
f 117/117/117 120/120/120 119/119/119
f 123/123/123 122/122/122 121/121/121
f 121/121/121 124/124/124 123/123/123
f 127/127/127 126/126/126 125/125/125
f 125/125/125 128/128/128 127/127/127
f 131/131/131 130/130/130 129/129/129
f 129/129/129 132/132/132 131/131/131
f 135/135/135 134/134/134 133/133/133
f 133/133/133 136/136/136 135/135/135
f 139/139/139 138/138/138 137/137/137
f 137/137/137 140/140/140 139/139/139
f 143/143/143 142/142/142 141/141/141
f 141/141/141 144/144/144 143/143/143
f 147/147/147 146/146/146 145/145/145
f 145/145/145 148/148/148 147/147/147
f 151/151/151 150/150/150 149/149/149
f 149/149/149 152/152/152 151/151/151
f 155/155/155 154/154/154 153/153/153
f 153/153/153 156/156/156 155/155/155
f 159/159/159 158/158/158 157/157/157
f 157/157/157 160/160/160 159/159/159
f 163/163/163 162/162/162 161/161/161
f 161/161/161 164/164/164 163/163/163
f 167/167/167 166/166/166 165/165/165
f 165/165/165 168/168/168 167/167/167
f 171/171/171 170/170/170 169/169/169
f 169/169/169 172/172/172 171/171/171
f 175/175/175 174/174/174 173/173/173
f 173/173/173 176/176/176 175/175/175
f 179/179/179 178/178/178 177/177/177
f 177/177/177 180/180/180 179/179/179
f 183/183/183 182/182/182 181/181/181
f 181/181/181 184/184/184 183/183/183
f 187/187/187 186/186/186 185/185/185
f 185/185/185 188/188/188 187/187/187
f 191/191/191 190/190/190 189/189/189
f 189/189/189 192/192/192 191/191/191
f 195/195/195 194/194/194 193/193/193
f 193/193/193 196/196/196 195/195/195
f 199/199/199 198/198/198 197/197/197
f 197/197/197 200/200/200 199/199/199
f 203/203/203 202/202/202 201/201/201
f 201/201/201 204/204/204 203/203/203
f 207/207/207 206/206/206 205/205/205
f 205/205/205 208/208/208 207/207/207
f 211/211/211 210/210/210 209/209/209
f 209/209/209 212/212/212 211/211/211
f 215/215/215 214/214/214 213/213/213
f 213/213/213 216/216/216 215/215/215
f 219/219/219 218/218/218 217/217/217
f 217/217/217 220/220/220 219/219/219
f 223/223/223 222/222/222 221/221/221
f 221/221/221 224/224/224 223/223/223
f 227/227/227 226/226/226 225/225/225
f 225/225/225 228/228/228 227/227/227
f 231/231/231 230/230/230 229/229/229
f 229/229/229 232/232/232 231/231/231
f 235/235/235 234/234/234 233/233/233
f 233/233/233 236/236/236 235/235/235
f 239/239/239 238/238/238 237/237/237
f 237/237/237 240/240/240 239/239/239
f 243/243/243 242/242/242 241/241/241
f 241/241/241 244/244/244 243/243/243
f 247/247/247 246/246/246 245/245/245
f 245/245/245 248/248/248 247/247/247
f 251/251/251 250/250/250 249/249/249
f 249/249/249 252/252/252 251/251/251
f 255/255/255 254/254/254 253/253/253
f 253/253/253 256/256/256 255/255/255
f 259/259/259 258/258/258 257/257/257
f 257/257/257 260/260/260 259/259/259
f 263/263/263 262/262/262 261/261/261
f 261/261/261 264/264/264 263/263/263
f 267/267/267 266/266/266 265/265/265
f 265/265/265 268/268/268 267/267/267
f 271/271/271 270/270/270 269/269/269
f 269/269/269 272/272/272 271/271/271
f 275/275/275 274/274/274 273/273/273
f 273/273/273 276/276/276 275/275/275
f 279/279/279 278/278/278 277/277/277
f 277/277/277 280/280/280 279/279/279
f 283/283/283 282/282/282 281/281/281
f 281/281/281 284/284/284 283/283/283
f 287/287/287 286/286/286 285/285/285
f 285/285/285 288/288/288 287/287/287
f 291/291/291 290/290/290 289/289/289
f 289/289/289 292/292/292 291/291/291
f 295/295/295 294/294/294 293/293/293
f 293/293/293 296/296/296 295/295/295
f 299/299/299 298/298/298 297/297/297
f 297/297/297 300/300/300 299/299/299
f 303/303/303 302/302/302 301/301/301
f 301/301/301 304/304/304 303/303/303
f 307/307/307 306/306/306 305/305/305
f 305/305/305 308/308/308 307/307/307
f 311/311/311 310/310/310 309/309/309
f 309/309/309 312/312/312 311/311/311
f 315/315/315 314/314/314 313/313/313
f 313/313/313 316/316/316 315/315/315
f 319/319/319 318/318/318 317/317/317
f 317/317/317 320/320/320 319/319/319
f 323/323/323 322/322/322 321/321/321
f 321/321/321 324/324/324 323/323/323
