g u96_3-mesh
v -416 895 0
v -416 1823 0
v -928 1823 0
v -928 895 0
v -928 895 0
v -928 1823 0
v -1408 1823 0
v -1408 895 0
v -384 159 0
v -384 799 0
v -992 799 0
v -992 159 0
v -992 159 0
v -992 799 0
v -1568 799 0
v -1568 159 0
v -224 1055 0
v -224 1439 0
v -384 1439 0
v -384 1055 0
v -192 287 0
v -192 607 0
v -384 607 0
v -384 287 0
v -192 0 0
v -192 287 0
v -384 287 0
v -384 0 0
v -1568 575 0
v -1568 735 0
v -1873 735 0
v -1873 575 0
v -608 1823 0
v -608 1983 0
v -896 1983 0
v -896 1823 0
v -1440 1119 0
v -1440 1439 0
v -1568 1439 0
v -1568 1119 0
v -896 1823 0
v -896 1983 0
v -1152 1983 0
v -1152 1823 0
v -1440 799 0
v -1440 1119 0
v -1568 1119 0
v -1568 799 0
v -960 63 0
v -960 159 0
v -1280 159 0
v -1280 63 0
v -640 63 0
v -640 159 0
v -960 159 0
v -960 63 0
v -1568 383 0
v -1568 511 0
v -1792 511 0
v -1792 383 0
v -0 1183 0
v -0 1279 0
v -224 1279 0
v -224 1183 0
v -1664 1247 0
v -1664 1343 0
v -1856 1343 0
v -1856 1247 0
v -1568 1279 0
v -1568 1471 0
v -1664 1471 0
v -1664 1279 0
v -768 799 0
v -768 895 0
v -960 895 0
v -960 799 0
v -960 799 0
v -960 895 0
v -1152 895 0
v -1152 799 0
v -1216 799 0
v -1216 895 0
v -1408 895 0
v -1408 799 0
v -1568 1119 0
v -1568 1279 0
v -1664 1279 0
v -1664 1119 0
v -384 799 0
v -384 895 0
v -512 895 0
v -512 799 0
v -512 799 0
v -512 895 0
v -640 895 0
v -640 799 0
v -352 1599 0
v -352 1759 0
v -416 1759 0
v -416 1599 0
v -1632 319 0
v -1632 383 0
v -1760 383 0
v -1760 319 0
v -1280 95 0
v -1280 159 0
v -1408 159 0
v -1408 95 0
v -288 1503 0
v -288 1631 0
v -352 1631 0
v -352 1503 0
v -128 127 0
v -128 255 0
v -192 255 0
v -192 127 0
v -512 95 0
v -512 159 0
v -640 159 0
v -640 95 0
v -1568 511 0
v -1568 575 0
v -1696 575 0
v -1696 511 0
v -352 1471 0
v -352 1599 0
v -416 1599 0
v -416 1471 0
v -384 95 0
v -384 159 0
v -512 159 0
v -512 95 0
v -1696 511 0
v -1696 575 0
v -1824 575 0
v -1824 511 0
v -1408 1087 0
v -1408 1311 0
v -1440 1311 0
v -1440 1087 0
v -384 895 0
v -384 1119 0
v -416 1119 0
v -416 895 0
v -640 1983 0
v -640 2015 0
v -864 2015 0
v -864 1983 0
v -384 1119 0
v -384 1343 0
v -416 1343 0
v -416 1119 0
v -1472 1439 0
v -1472 1503 0
v -1568 1503 0
v -1568 1439 0
v -128 31 0
v -128 127 0
v -192 127 0
v -192 31 0
v -864 1983 0
v -864 2015 0
v -1056 2015 0
v -1056 1983 0
v -1568 191 0
v -1568 287 0
v -1632 287 0
v -1632 191 0
v -1408 895 0
v -1408 1087 0
v -1440 1087 0
v -1440 895 0
v -1792 735 0
v -1792 799 0
v -1873 799 0
v -1873 735 0
v -1696 735 0
v -1696 799 0
v -1792 799 0
v -1792 735 0
v -1568 287 0
v -1568 383 0
v -1632 383 0
v -1632 287 0
v -352 895 0
v -352 1055 0
v -384 1055 0
v -384 895 0
v -1088 1983 0
v -1088 2047 0
v -1152 2047 0
v -1152 1983 0
v -320 607 0
v -320 671 0
v -384 671 0
v -384 607 0
v -1152 1823 0
v -1152 1855 0
v -1280 1855 0
v -1280 1823 0
v -352 767 0
v -352 895 0
v -384 895 0
v -384 767 0
v -1280 1823 0
v -1280 1855 0
v -1408 1855 0
v -1408 1823 0
v -832 2015 0
v -832 2047 0
v -928 2047 0
v -928 2015 0
v -1568 1471 0
v -1568 1503 0
v -1632 1503 0
v -1632 1471 0
v -1664 1343 0
v -1664 1407 0
v -1696 1407 0
v -1696 1343 0
v -384 31 0
v -384 95 0
v -416 95 0
v -416 31 0
v -1664 1183 0
v -1664 1247 0
v -1696 1247 0
v -1696 1183 0
v -1408 127 0
v -1408 159 0
v -1472 159 0
v -1472 127 0
v -1632 255 0
v -1632 319 0
v -1664 319 0
v -1664 255 0
v -256 1535 0
v -256 1599 0
v -288 1599 0
v -288 1535 0
v -320 1631 0
v -320 1695 0
v -352 1695 0
v -352 1631 0
v -160 255 0
v -160 319 0
v -192 319 0
v -192 255 0
v -256 607 0
v -256 639 0
v -320 639 0
v -320 607 0
v -416 31 0
v -416 95 0
v -448 95 0
v -448 31 0
v -1664 255 0
v -1664 319 0
v -1696 319 0
v -1696 255 0
v -1152 799 0
v -1152 831 0
v -1216 831 0
v -1216 799 0
v -640 831 0
v -640 895 0
v -672 895 0
v -672 831 0
v -192 1119 0
v -192 1183 0
v -224 1183 0
v -224 1119 0
v -704 799 0
v -704 831 0
v -768 831 0
v -768 799 0
v -1152 863 0
v -1152 895 0
v -1216 895 0
v -1216 863 0
v -256 1023 0
v -256 1055 0
v -320 1055 0
v -320 1023 0
v -1568 1055 0
v -1568 1119 0
v -1600 1119 0
v -1600 1055 0
v -192 1279 0
v -192 1343 0
v -224 1343 0
v -224 1279 0
v -1568 991 0
v -1568 1055 0
v -1600 1055 0
v -1600 991 0
v -96 63 0
v -96 127 0
v -128 127 0
v -128 63 0
v -96 127 0
v -96 191 0
v -128 191 0
v -128 127 0
v -576 1887 0
v -576 1951 0
v -608 1951 0
v -608 1887 0
v -928 2015 0
v -928 2047 0
v -992 2047 0
v -992 2015 0
v -576 1823 0
v -576 1887 0
v -608 1887 0
v -608 1823 0
v -288 1439 0
v -288 1471 0
v -352 1471 0
v -352 1439 0
v -224 1439 0
v -224 1471 0
v -288 1471 0
v -288 1439 0
v -1408 1695 0
v -1408 1759 0
v -1440 1759 0
v -1440 1695 0
v -192 1343 0
v -192 1407 0
v -224 1407 0
v -224 1343 0
v -416 1823 0
v -416 1855 0
v -480 1855 0
v -480 1823 0
v -1152 1855 0
v -1152 1887 0
v -1216 1887 0
v -1216 1855 0
v -448 63 0
v -448 95 0
v -480 95 0
v -480 63 0
v -736 863 0
v -736 895 0
v -768 895 0
v -768 863 0
v -672 863 0
v -672 895 0
v -704 895 0
v -704 863 0
v -160 0 0
v -160 31 0
v -192 31 0
v -192 0 0
v -352 671 0
v -352 703 0
v -384 703 0
v -384 671 0
v -1664 735 0
v -1664 767 0
v -1696 767 0
v -1696 735 0
v -1824 543 0
v -1824 575 0
v -1856 575 0
v -1856 543 0
v -1696 287 0
v -1696 319 0
v -1728 319 0
v -1728 287 0
v -1824 799 0
v -1824 831 0
v -1856 831 0
v -1856 799 0
v -1472 127 0
v -1472 159 0
v -1504 159 0
v -1504 127 0
v -480 1823 0
v -480 1855 0
v -512 1855 0
v -512 1823 0
v -1408 1663 0
v -1408 1695 0
v -1440 1695 0
v -1440 1663 0
v -1632 223 0
v -1632 255 0
v -1664 255 0
v -1664 223 0
v -384 0 0
v -384 31 0
v -416 31 0
v -416 0 0
v -384 1759 0
v -384 1791 0
v -416 1791 0
v -416 1759 0
v -1600 1087 0
v -1600 1119 0
v -1632 1119 0
v -1632 1087 0
v -1216 1855 0
v -1216 1887 0
v -1248 1887 0
v -1248 1855 0
v -320 1023 0
v -320 1055 0
v -352 1055 0
v -352 1023 0
vt 0.00048828125 0.000704228878
vt 0.00048828125 0.654225349
vt 0.250488281 0.654225349
vt 0.250488281 0.000704228878
vt 0.251464844 0.000704228878
vt 0.251464844 0.654225349
vt 0.485839844 0.654225349
vt 0.485839844 0.000704228878
vt 0.486816406 0.000704228878
vt 0.486816406 0.451408446
vt 0.783691406 0.451408446
vt 0.783691406 0.000704228878
vt 0.486816406 0.452816904
vt 0.486816406 0.903521121
vt 0.768066406 0.903521121
vt 0.768066406 0.452816904
vt 0.784667969 0.000704228878
vt 0.784667969 0.271126747
vt 0.862792969 0.271126747
vt 0.862792969 0.000704228878
vt 0.863769531 0.000704228878
vt 0.863769531 0.226056337
vt 0.957519531 0.226056337
vt 0.957519531 0.000704228878
vt 0.863769531 0.227464795
vt 0.863769531 0.430281699
vt 0.957519531 0.430281699
vt 0.957519531 0.227464795
vt 0.769042969 0.452816904
vt 0.769042969 0.565492988
vt 0.918457031 0.565492988
vt 0.918457031 0.452816904
vt 0.769042969 0.566901445
vt 0.769042969 0.67957747
vt 0.909667969 0.67957747
vt 0.909667969 0.566901445
vt 0.919433594 0.431690156
vt 0.919433594 0.657042265
vt 0.981933594 0.657042265
vt 0.981933594 0.431690156
vt 0.00048828125 0.655633807
vt 0.00048828125 0.768309832
vt 0.125488281 0.768309832
vt 0.125488281 0.655633807
vt 0.126464844 0.655633807
vt 0.126464844 0.880985916
vt 0.188964844 0.880985916
vt 0.188964844 0.655633807
vt 0.189941406 0.655633807
vt 0.189941406 0.723239422
vt 0.346191406 0.723239422
vt 0.346191406 0.655633807
vt 0.769042969 0.680985928
vt 0.769042969 0.748591542
vt 0.925292969 0.748591542
vt 0.925292969 0.680985928
vt 0.347167969 0.655633807
vt 0.347167969 0.745774627
vt 0.456542969 0.745774627
vt 0.456542969 0.655633807
vt 0.189941406 0.72464788
vt 0.189941406 0.792253494
vt 0.299316406 0.792253494
vt 0.299316406 0.72464788
vt 0.347167969 0.747183084
vt 0.347167969 0.814788699
vt 0.440917969 0.814788699
vt 0.440917969 0.747183084
vt 0.926269531 0.658450723
vt 0.926269531 0.793661952
vt 0.973144531 0.793661952
vt 0.973144531 0.658450723
vt 0.769042969 0.75
vt 0.769042969 0.817605615
vt 0.862792969 0.817605615
vt 0.862792969 0.75
vt 0.00048828125 0.769718289
vt 0.00048828125 0.837323964
vt 0.0942382812 0.837323964
vt 0.0942382812 0.769718289
vt 0.189941406 0.793661952
vt 0.189941406 0.861267626
vt 0.283691406 0.861267626
vt 0.283691406 0.793661952
vt 0.863769531 0.75
vt 0.863769531 0.862676024
vt 0.910644531 0.862676024
vt 0.910644531 0.75
vt 0.926269531 0.79507041
vt 0.926269531 0.862676024
vt 0.988769531 0.862676024
vt 0.988769531 0.79507041
vt 0.347167969 0.816197157
vt 0.347167969 0.883802831
vt 0.409667969 0.883802831
vt 0.409667969 0.816197157
vt 0.300292969 0.72464788
vt 0.300292969 0.837323964
vt 0.331542969 0.837323964
vt 0.331542969 0.72464788
vt 0.410644531 0.816197157
vt 0.410644531 0.861267626
vt 0.473144531 0.861267626
vt 0.473144531 0.816197157
vt 0.769042969 0.819014072
vt 0.769042969 0.864084482
vt 0.831542969 0.864084482
vt 0.831542969 0.819014072
vt 0.00048828125 0.838732362
vt 0.00048828125 0.928873241
vt 0.0317382812 0.928873241
vt 0.0317382812 0.838732362
vt 0.0327148438 0.838732362
vt 0.0327148438 0.928873241
vt 0.0639648438 0.928873241
vt 0.0639648438 0.838732362
vt 0.189941406 0.862676024
vt 0.189941406 0.907746494
vt 0.252441406 0.907746494
vt 0.252441406 0.862676024
vt 0.253417969 0.862676024
vt 0.253417969 0.907746494
vt 0.315917969 0.907746494
vt 0.315917969 0.862676024
vt 0.0649414062 0.838732362
vt 0.0649414062 0.928873241
vt 0.0961914062 0.928873241
vt 0.0961914062 0.838732362
vt 0.410644531 0.862676024
vt 0.410644531 0.907746494
vt 0.473144531 0.907746494
vt 0.473144531 0.862676024
vt 0.863769531 0.864084482
vt 0.863769531 0.909154952
vt 0.926269531 0.909154952
vt 0.926269531 0.864084482
vt 0.0971679688 0.769718289
vt 0.0971679688 0.927464783
vt 0.112792969 0.927464783
vt 0.112792969 0.769718289
vt 0.832519531 0.819014072
vt 0.832519531 0.976760566
vt 0.848144531 0.976760566
vt 0.848144531 0.819014072
vt 0.486816406 0.904929578
vt 0.486816406 0.927464783
vt 0.596191406 0.927464783
vt 0.596191406 0.904929578
vt 0.316894531 0.838732362
vt 0.316894531 0.996478856
vt 0.332519531 0.996478856
vt 0.332519531 0.838732362
vt 0.927246094 0.864084482
vt 0.927246094 0.909154952
vt 0.974121094 0.909154952
vt 0.974121094 0.864084482
vt 0.769042969 0.86549294
vt 0.769042969 0.933098614
vt 0.800292969 0.933098614
vt 0.800292969 0.86549294
vt 0.597167969 0.904929578
vt 0.597167969 0.927464783
vt 0.690917969 0.927464783
vt 0.690917969 0.904929578
vt 0.126464844 0.882394373
vt 0.126464844 0.949999988
vt 0.157714844 0.949999988
vt 0.157714844 0.882394373
vt 0.975097656 0.864084482
vt 0.975097656 0.999295771
vt 0.990722656 0.999295771
vt 0.990722656 0.864084482
vt 0.347167969 0.885211289
vt 0.347167969 0.930281699
vt 0.387207031 0.930281699
vt 0.387207031 0.885211289
vt 0.691894531 0.904929578
vt 0.691894531 0.949999988
vt 0.738769531 0.949999988
vt 0.738769531 0.904929578
vt 0.189941406 0.909154952
vt 0.189941406 0.976760566
vt 0.221191406 0.976760566
vt 0.221191406 0.909154952
vt 0.801269531 0.86549294
vt 0.801269531 0.978169024
vt 0.816894531 0.978169024
vt 0.816894531 0.86549294
vt 0.222167969 0.909154952
vt 0.222167969 0.954225361
vt 0.253417969 0.954225361
vt 0.253417969 0.909154952
vt 0.254394531 0.909154952
vt 0.254394531 0.954225361
vt 0.285644531 0.954225361
vt 0.285644531 0.909154952
vt 0.410644531 0.909154952
vt 0.410644531 0.931690156
vt 0.473144531 0.931690156
vt 0.473144531 0.909154952
vt 0.158691406 0.882394373
vt 0.158691406 0.972535193
vt 0.174316406 0.972535193
vt 0.174316406 0.882394373
vt 0.863769531 0.91056335
vt 0.863769531 0.933098614
vt 0.926269531 0.933098614
vt 0.926269531 0.91056335
vt 0.927246094 0.91056335
vt 0.927246094 0.933098614
vt 0.974121094 0.933098614
vt 0.974121094 0.91056335
vt 0.486816406 0.928873241
vt 0.486816406 0.951408446
vt 0.518066406 0.951408446
vt 0.518066406 0.928873241
vt 0.388183594 0.885211289
vt 0.388183594 0.930281699
vt 0.403808594 0.930281699
vt 0.403808594 0.885211289
vt 0.739746094 0.904929578
vt 0.739746094 0.949999988
vt 0.755371094 0.949999988
vt 0.755371094 0.904929578
vt 0.286621094 0.909154952
vt 0.286621094 0.954225361
vt 0.302246094 0.954225361
vt 0.302246094 0.909154952
vt 0.519042969 0.928873241
vt 0.519042969 0.951408446
vt 0.550292969 0.951408446
vt 0.550292969 0.928873241
vt 0.0971679688 0.928873241
vt 0.0971679688 0.973943651
vt 0.112792969 0.973943651
vt 0.112792969 0.928873241
vt 0.551269531 0.928873241
vt 0.551269531 0.973943651
vt 0.566894531 0.973943651
vt 0.566894531 0.928873241
vt 0.567871094 0.928873241
vt 0.567871094 0.973943651
vt 0.583496094 0.973943651
vt 0.583496094 0.928873241
vt 0.584472656 0.928873241
vt 0.584472656 0.973943651
vt 0.600097656 0.973943651
vt 0.600097656 0.928873241
vt 0.601074219 0.928873241
vt 0.601074219 0.951408446
vt 0.632324219 0.951408446
vt 0.632324219 0.928873241
vt 0.633300781 0.928873241
vt 0.633300781 0.973943651
vt 0.648925781 0.973943651
vt 0.648925781 0.928873241
vt 0.649902344 0.928873241
vt 0.649902344 0.973943651
vt 0.665527344 0.973943651
vt 0.665527344 0.928873241
vt 0.00048828125 0.930281699
vt 0.00048828125 0.952816904
vt 0.0317382812 0.952816904
vt 0.0317382812 0.930281699
vt 0.666503906 0.928873241
vt 0.666503906 0.973943651
vt 0.682128906 0.973943651
vt 0.682128906 0.928873241
vt 0.0327148438 0.930281699
vt 0.0327148438 0.975352108
vt 0.0483398438 0.975352108
vt 0.0483398438 0.930281699
vt 0.0493164062 0.930281699
vt 0.0493164062 0.952816904
vt 0.0805664062 0.952816904
vt 0.0805664062 0.930281699
vt 0.347167969 0.931690156
vt 0.347167969 0.954225361
vt 0.378417969 0.954225361
vt 0.378417969 0.931690156
vt 0.410644531 0.933098614
vt 0.410644531 0.955633819
vt 0.441894531 0.955633819
vt 0.441894531 0.933098614
vt 0.379394531 0.931690156
vt 0.379394531 0.976760566
vt 0.395019531 0.976760566
vt 0.395019531 0.931690156
vt 0.442871094 0.933098614
vt 0.442871094 0.978169024
vt 0.458496094 0.978169024
vt 0.458496094 0.933098614
vt 0.459472656 0.933098614
vt 0.459472656 0.978169024
vt 0.475097656 0.978169024
vt 0.475097656 0.933098614
vt 0.769042969 0.934507012
vt 0.769042969 0.979577482
vt 0.784667969 0.979577482
vt 0.784667969 0.934507012
vt 0.863769531 0.934507012
vt 0.863769531 0.979577482
vt 0.879394531 0.979577482
vt 0.879394531 0.934507012
vt 0.880371094 0.934507012
vt 0.880371094 0.979577482
vt 0.895996094 0.979577482
vt 0.895996094 0.934507012
vt 0.896972656 0.934507012
vt 0.896972656 0.957042277
vt 0.928222656 0.957042277
vt 0.928222656 0.934507012
vt 0.929199219 0.934507012
vt 0.929199219 0.979577482
vt 0.944824219 0.979577482
vt 0.944824219 0.934507012
vt 0.126464844 0.951408446
vt 0.126464844 0.973943651
vt 0.157714844 0.973943651
vt 0.157714844 0.951408446
vt 0.691894531 0.951408446
vt 0.691894531 0.973943651
vt 0.723144531 0.973943651
vt 0.723144531 0.951408446
vt 0.945800781 0.934507012
vt 0.945800781 0.979577482
vt 0.961425781 0.979577482
vt 0.961425781 0.934507012
vt 0.724121094 0.951408446
vt 0.724121094 0.996478856
vt 0.739746094 0.996478856
vt 0.739746094 0.951408446
vt 0.486816406 0.952816904
vt 0.486816406 0.975352108
vt 0.518066406 0.975352108
vt 0.518066406 0.952816904
vt 0.519042969 0.952816904
vt 0.519042969 0.975352108
vt 0.550292969 0.975352108
vt 0.550292969 0.952816904
vt 0.740722656 0.951408446
vt 0.740722656 0.973943651
vt 0.756347656 0.973943651
vt 0.756347656 0.951408446
vt 0.601074219 0.952816904
vt 0.601074219 0.975352108
vt 0.616699219 0.975352108
vt 0.616699219 0.952816904
vt 0.00048828125 0.954225361
vt 0.00048828125 0.976760566
vt 0.0161132812 0.976760566
vt 0.0161132812 0.954225361
vt 0.0493164062 0.954225361
vt 0.0493164062 0.976760566
vt 0.0649414062 0.976760566
vt 0.0649414062 0.954225361
vt 0.0659179688 0.954225361
vt 0.0659179688 0.976760566
vt 0.0815429688 0.976760566
vt 0.0815429688 0.954225361
vt 0.222167969 0.955633819
vt 0.222167969 0.978169024
vt 0.237792969 0.978169024
vt 0.237792969 0.955633819
vt 0.238769531 0.955633819
vt 0.238769531 0.978169024
vt 0.254394531 0.978169024
vt 0.254394531 0.955633819
vt 0.255371094 0.955633819
vt 0.255371094 0.978169024
vt 0.270996094 0.978169024
vt 0.270996094 0.955633819
vt 0.271972656 0.955633819
vt 0.271972656 0.978169024
vt 0.287597656 0.978169024
vt 0.287597656 0.955633819
vt 0.288574219 0.955633819
vt 0.288574219 0.978169024
vt 0.304199219 0.978169024
vt 0.304199219 0.955633819
vt 0.347167969 0.955633819
vt 0.347167969 0.978169024
vt 0.362792969 0.978169024
vt 0.362792969 0.955633819
vt 0.410644531 0.957042277
vt 0.410644531 0.979577482
vt 0.426269531 0.979577482
vt 0.426269531 0.957042277
vt 0.896972656 0.958450675
vt 0.896972656 0.98098594
vt 0.912597656 0.98098594
vt 0.912597656 0.958450675
vt 0.158691406 0.973943651
vt 0.158691406 0.996478856
vt 0.174316406 0.996478856
vt 0.174316406 0.973943651
vt 0.0971679688 0.975352108
vt 0.0971679688 0.997887313
vt 0.112792969 0.997887313
vt 0.112792969 0.975352108
vt 0.126464844 0.975352108
vt 0.126464844 0.997887313
vt 0.142089844 0.997887313
vt 0.142089844 0.975352108
vt 0.551269531 0.975352108
vt 0.551269531 0.997887313
vt 0.566894531 0.997887313
vt 0.566894531 0.975352108
vt 0.567871094 0.975352108
vt 0.567871094 0.997887313
vt 0.583496094 0.997887313
vt 0.583496094 0.975352108
g u96_3-mesh_0
f 3/3/3 2/2/2 1/1/1
f 1/1/1 4/4/4 3/3/3
f 7/7/7 6/6/6 5/5/5
f 5/5/5 8/8/8 7/7/7
f 11/11/11 10/10/10 9/9/9
f 9/9/9 12/12/12 11/11/11
f 15/15/15 14/14/14 13/13/13
f 13/13/13 16/16/16 15/15/15
f 19/19/19 18/18/18 17/17/17
f 17/17/17 20/20/20 19/19/19
f 23/23/23 22/22/22 21/21/21
f 21/21/21 24/24/24 23/23/23
f 27/27/27 26/26/26 25/25/25
f 25/25/25 28/28/28 27/27/27
f 31/31/31 30/30/30 29/29/29
f 29/29/29 32/32/32 31/31/31
f 35/35/35 34/34/34 33/33/33
f 33/33/33 36/36/36 35/35/35
f 39/39/39 38/38/38 37/37/37
f 37/37/37 40/40/40 39/39/39
f 43/43/43 42/42/42 41/41/41
f 41/41/41 44/44/44 43/43/43
f 47/47/47 46/46/46 45/45/45
f 45/45/45 48/48/48 47/47/47
f 51/51/51 50/50/50 49/49/49
f 49/49/49 52/52/52 51/51/51
f 55/55/55 54/54/54 53/53/53
f 53/53/53 56/56/56 55/55/55
f 59/59/59 58/58/58 57/57/57
f 57/57/57 60/60/60 59/59/59
f 63/63/63 62/62/62 61/61/61
f 61/61/61 64/64/64 63/63/63
f 67/67/67 66/66/66 65/65/65
f 65/65/65 68/68/68 67/67/67
f 71/71/71 70/70/70 69/69/69
f 69/69/69 72/72/72 71/71/71
f 75/75/75 74/74/74 73/73/73
f 73/73/73 76/76/76 75/75/75
f 79/79/79 78/78/78 77/77/77
f 77/77/77 80/80/80 79/79/79
f 83/83/83 82/82/82 81/81/81
f 81/81/81 84/84/84 83/83/83
f 87/87/87 86/86/86 85/85/85
f 85/85/85 88/88/88 87/87/87
f 91/91/91 90/90/90 89/89/89
f 89/89/89 92/92/92 91/91/91
f 95/95/95 94/94/94 93/93/93
f 93/93/93 96/96/96 95/95/95
f 99/99/99 98/98/98 97/97/97
f 97/97/97 100/100/100 99/99/99
f 103/103/103 102/102/102 101/101/101
f 101/101/101 104/104/104 103/103/103
f 107/107/107 106/106/106 105/105/105
f 105/105/105 108/108/108 107/107/107
f 111/111/111 110/110/110 109/109/109
f 109/109/109 112/112/112 111/111/111
f 115/115/115 114/114/114 113/113/113
f 113/113/113 116/116/116 115/115/115
f 119/119/119 118/118/118 117/117/117
f 117/117/117 120/120/120 119/119/119
f 123/123/123 122/122/122 121/121/121
f 121/121/121 124/124/124 123/123/123
f 127/127/127 126/126/126 125/125/125
f 125/125/125 128/128/128 127/127/127
f 131/131/131 130/130/130 129/129/129
f 129/129/129 132/132/132 131/131/131
f 135/135/135 134/134/134 133/133/133
f 133/133/133 136/136/136 135/135/135
f 139/139/139 138/138/138 137/137/137
f 137/137/137 140/140/140 139/139/139
f 143/143/143 142/142/142 141/141/141
f 141/141/141 144/144/144 143/143/143
f 147/147/147 146/146/146 145/145/145
f 145/145/145 148/148/148 147/147/147
f 151/151/151 150/150/150 149/149/149
f 149/149/149 152/152/152 151/151/151
f 155/155/155 154/154/154 153/153/153
f 153/153/153 156/156/156 155/155/155
f 159/159/159 158/158/158 157/157/157
f 157/157/157 160/160/160 159/159/159
f 163/163/163 162/162/162 161/161/161
f 161/161/161 164/164/164 163/163/163
f 167/167/167 166/166/166 165/165/165
f 165/165/165 168/168/168 167/167/167
f 171/171/171 170/170/170 169/169/169
f 169/169/169 172/172/172 171/171/171
f 175/175/175 174/174/174 173/173/173
f 173/173/173 176/176/176 175/175/175
f 179/179/179 178/178/178 177/177/177
f 177/177/177 180/180/180 179/179/179
f 183/183/183 182/182/182 181/181/181
f 181/181/181 184/184/184 183/183/183
f 187/187/187 186/186/186 185/185/185
f 185/185/185 188/188/188 187/187/187
f 191/191/191 190/190/190 189/189/189
f 189/189/189 192/192/192 191/191/191
f 195/195/195 194/194/194 193/193/193
f 193/193/193 196/196/196 195/195/195
f 199/199/199 198/198/198 197/197/197
f 197/197/197 200/200/200 199/199/199
f 203/203/203 202/202/202 201/201/201
f 201/201/201 204/204/204 203/203/203
f 207/207/207 206/206/206 205/205/205
f 205/205/205 208/208/208 207/207/207
f 211/211/211 210/210/210 209/209/209
f 209/209/209 212/212/212 211/211/211
f 215/215/215 214/214/214 213/213/213
f 213/213/213 216/216/216 215/215/215
f 219/219/219 218/218/218 217/217/217
f 217/217/217 220/220/220 219/219/219
f 223/223/223 222/222/222 221/221/221
f 221/221/221 224/224/224 223/223/223
f 227/227/227 226/226/226 225/225/225
f 225/225/225 228/228/228 227/227/227
f 231/231/231 230/230/230 229/229/229
f 229/229/229 232/232/232 231/231/231
f 235/235/235 234/234/234 233/233/233
f 233/233/233 236/236/236 235/235/235
f 239/239/239 238/238/238 237/237/237
f 237/237/237 240/240/240 239/239/239
f 243/243/243 242/242/242 241/241/241
f 241/241/241 244/244/244 243/243/243
f 247/247/247 246/246/246 245/245/245
f 245/245/245 248/248/248 247/247/247
f 251/251/251 250/250/250 249/249/249
f 249/249/249 252/252/252 251/251/251
f 255/255/255 254/254/254 253/253/253
f 253/253/253 256/256/256 255/255/255
f 259/259/259 258/258/258 257/257/257
f 257/257/257 260/260/260 259/259/259
f 263/263/263 262/262/262 261/261/261
f 261/261/261 264/264/264 263/263/263
f 267/267/267 266/266/266 265/265/265
f 265/265/265 268/268/268 267/267/267
f 271/271/271 270/270/270 269/269/269
f 269/269/269 272/272/272 271/271/271
f 275/275/275 274/274/274 273/273/273
f 273/273/273 276/276/276 275/275/275
f 279/279/279 278/278/278 277/277/277
f 277/277/277 280/280/280 279/279/279
f 283/283/283 282/282/282 281/281/281
f 281/281/281 284/284/284 283/283/283
f 287/287/287 286/286/286 285/285/285
f 285/285/285 288/288/288 287/287/287
f 291/291/291 290/290/290 289/289/289
f 289/289/289 292/292/292 291/291/291
f 295/295/295 294/294/294 293/293/293
f 293/293/293 296/296/296 295/295/295
f 299/299/299 298/298/298 297/297/297
f 297/297/297 300/300/300 299/299/299
f 303/303/303 302/302/302 301/301/301
f 301/301/301 304/304/304 303/303/303
f 307/307/307 306/306/306 305/305/305
f 305/305/305 308/308/308 307/307/307
f 311/311/311 310/310/310 309/309/309
f 309/309/309 312/312/312 311/311/311
f 315/315/315 314/314/314 313/313/313
f 313/313/313 316/316/316 315/315/315
f 319/319/319 318/318/318 317/317/317
f 317/317/317 320/320/320 319/319/319
f 323/323/323 322/322/322 321/321/321
f 321/321/321 324/324/324 323/323/323
f 327/327/327 326/326/326 325/325/325
f 325/325/325 328/328/328 327/327/327
f 331/331/331 330/330/330 329/329/329
f 329/329/329 332/332/332 331/331/331
f 335/335/335 334/334/334 333/333/333
f 333/333/333 336/336/336 335/335/335
f 339/339/339 338/338/338 337/337/337
f 337/337/337 340/340/340 339/339/339
f 343/343/343 342/342/342 341/341/341
f 341/341/341 344/344/344 343/343/343
f 347/347/347 346/346/346 345/345/345
f 345/345/345 348/348/348 347/347/347
f 351/351/351 350/350/350 349/349/349
f 349/349/349 352/352/352 351/351/351
f 355/355/355 354/354/354 353/353/353
f 353/353/353 356/356/356 355/355/355
f 359/359/359 358/358/358 357/357/357
f 357/357/357 360/360/360 359/359/359
f 363/363/363 362/362/362 361/361/361
f 361/361/361 364/364/364 363/363/363
f 367/367/367 366/366/366 365/365/365
f 365/365/365 368/368/368 367/367/367
f 371/371/371 370/370/370 369/369/369
f 369/369/369 372/372/372 371/371/371
f 375/375/375 374/374/374 373/373/373
f 373/373/373 376/376/376 375/375/375
f 379/379/379 378/378/378 377/377/377
f 377/377/377 380/380/380 379/379/379
f 383/383/383 382/382/382 381/381/381
f 381/381/381 384/384/384 383/383/383
f 387/387/387 386/386/386 385/385/385
f 385/385/385 388/388/388 387/387/387
f 391/391/391 390/390/390 389/389/389
f 389/389/389 392/392/392 391/391/391
f 395/395/395 394/394/394 393/393/393
f 393/393/393 396/396/396 395/395/395
f 399/399/399 398/398/398 397/397/397
f 397/397/397 400/400/400 399/399/399
f 403/403/403 402/402/402 401/401/401
f 401/401/401 404/404/404 403/403/403
f 407/407/407 406/406/406 405/405/405
f 405/405/405 408/408/408 407/407/407
f 411/411/411 410/410/410 409/409/409
f 409/409/409 412/412/412 411/411/411
