g hude_2-mesh
v -384 0 0
v -384 413 0
v -704 413 0
v -704 0 0
v -384 413 0
v -384 829 0
v -704 829 0
v -704 413 0
v -32 61 0
v -32 253 0
v -384 253 0
v -384 61 0
v -704 253 0
v -704 509 0
v -864 509 0
v -864 253 0
v -704 29 0
v -704 253 0
v -864 253 0
v -864 29 0
v -864 93 0
v -864 317 0
v -960 317 0
v -960 93 0
v -256 253 0
v -256 413 0
v -384 413 0
v -384 253 0
v -864 317 0
v -864 445 0
v -992 445 0
v -992 317 0
v -320 701 0
v -320 861 0
v -384 861 0
v -384 701 0
v -704 509 0
v -704 637 0
v -768 637 0
v -768 509 0
v -160 0 0
v -160 61 0
v -288 61 0
v -288 0 0
v -320 573 0
v -320 701 0
v -384 701 0
v -384 573 0
v -960 125 0
v -960 221 0
v -1023 221 0
v -1023 125 0
v -480 829 0
v -480 893 0
v -576 893 0
v -576 829 0
v -288 0 0
v -288 61 0
v -384 61 0
v -384 0 0
v -384 829 0
v -384 893 0
v -480 893 0
v -480 829 0
v -96 253 0
v -96 285 0
v -192 285 0
v -192 253 0
v -288 701 0
v -288 797 0
v -320 797 0
v -320 701 0
v -288 605 0
v -288 701 0
v -320 701 0
v -320 605 0
v -256 733 0
v -256 797 0
v -288 797 0
v -288 733 0
v -576 829 0
v -576 861 0
v -640 861 0
v -640 829 0
v -704 669 0
v -704 733 0
v -736 733 0
v -736 669 0
v -768 509 0
v -768 573 0
v -800 573 0
v -800 509 0
v -864 29 0
v -864 93 0
v -896 93 0
v -896 29 0
v -192 285 0
v -192 349 0
v -224 349 0
v -224 285 0
v -288 413 0
v -288 445 0
v -352 445 0
v -352 413 0
v -352 413 0
v -352 477 0
v -384 477 0
v -384 413 0
v -0 157 0
v -0 221 0
v -32 221 0
v -32 157 0
v -192 253 0
v -192 285 0
v -256 285 0
v -256 253 0
v -352 477 0
v -352 541 0
v -384 541 0
v -384 477 0
v -768 0 0
v -768 29 0
v -832 29 0
v -832 0 0
v -704 0 0
v -704 29 0
v -768 29 0
v -768 0 0
v -0 93 0
v -0 157 0
v -32 157 0
v -32 93 0
v -992 253 0
v -992 285 0
v -1023 285 0
v -1023 253 0
v -224 285 0
v -224 317 0
v -256 317 0
v -256 285 0
v -960 93 0
v -960 125 0
v -992 125 0
v -992 93 0
v -128 29 0
v -128 61 0
v -160 61 0
v -160 29 0
v -896 61 0
v -896 93 0
v -928 93 0
v -928 61 0
v -352 861 0
v -352 893 0
v -384 893 0
v -384 861 0
v -704 637 0
v -704 669 0
v -736 669 0
v -736 637 0
v -224 573 0
v -224 605 0
v -256 605 0
v -256 573 0
v -896 445 0
v -896 477 0
v -928 477 0
v -928 445 0
v -800 509 0
v -800 541 0
v -832 541 0
v -832 509 0
vt 0.0009765625 0.00155282021
vt 0.0009765625 0.644409895
vt 0.313476562 0.644409895
vt 0.313476562 0.00155282021
vt 0.315429688 0.00155282021
vt 0.315429688 0.647515535
vt 0.627929688 0.647515535
vt 0.627929688 0.00155282021
vt 0.629882812 0.00155282021
vt 0.629882812 0.299689412
vt 0.973632812 0.299689412
vt 0.973632812 0.00155282021
vt 0.629882812 0.302795053
vt 0.629882812 0.700310588
vt 0.786132812 0.700310588
vt 0.786132812 0.302795053
vt 0.788085938 0.302795053
vt 0.788085938 0.650621116
vt 0.944335938 0.650621116
vt 0.944335938 0.302795053
vt 0.0009765625 0.647515535
vt 0.0009765625 0.995341599
vt 0.0947265625 0.995341599
vt 0.0947265625 0.647515535
vt 0.0966796875 0.647515535
vt 0.0966796875 0.895962715
vt 0.221679688 0.895962715
vt 0.221679688 0.647515535
vt 0.315429688 0.650621116
vt 0.315429688 0.849378884
vt 0.440429688 0.849378884
vt 0.440429688 0.650621116
vt 0.223632812 0.647515535
vt 0.223632812 0.895962715
vt 0.286132812 0.895962715
vt 0.286132812 0.647515535
vt 0.442382812 0.650621116
vt 0.442382812 0.849378884
vt 0.504882812 0.849378884
vt 0.504882812 0.650621116
vt 0.788085938 0.653726697
vt 0.788085938 0.75
vt 0.913085938 0.75
vt 0.913085938 0.653726697
vt 0.506835938 0.650621116
vt 0.506835938 0.849378884
vt 0.569335938 0.849378884
vt 0.569335938 0.650621116
vt 0.915039062 0.653726697
vt 0.915039062 0.802795053
vt 0.977539062 0.802795053
vt 0.977539062 0.653726697
vt 0.629882812 0.703416109
vt 0.629882812 0.802795053
vt 0.723632812 0.802795053
vt 0.723632812 0.703416109
vt 0.788085938 0.753105581
vt 0.788085938 0.849378884
vt 0.881835938 0.849378884
vt 0.881835938 0.753105581
vt 0.629882812 0.805900633
vt 0.629882812 0.905279517
vt 0.723632812 0.905279517
vt 0.723632812 0.805900633
vt 0.315429688 0.852484465
vt 0.315429688 0.902173936
vt 0.409179688 0.902173936
vt 0.409179688 0.852484465
vt 0.571289062 0.650621116
vt 0.571289062 0.799689412
vt 0.602539062 0.799689412
vt 0.602539062 0.650621116
vt 0.725585938 0.703416109
vt 0.725585938 0.852484465
vt 0.756835938 0.852484465
vt 0.756835938 0.703416109
vt 0.571289062 0.802795053
vt 0.571289062 0.902173936
vt 0.602539062 0.902173936
vt 0.602539062 0.802795053
vt 0.915039062 0.805900633
vt 0.915039062 0.855590045
vt 0.977539062 0.855590045
vt 0.977539062 0.805900633
vt 0.411132812 0.852484465
vt 0.411132812 0.951863348
vt 0.442382812 0.951863348
vt 0.442382812 0.852484465
vt 0.444335938 0.852484465
vt 0.444335938 0.951863348
vt 0.475585938 0.951863348
vt 0.475585938 0.852484465
vt 0.477539062 0.852484465
vt 0.477539062 0.951863348
vt 0.508789062 0.951863348
vt 0.508789062 0.852484465
vt 0.510742188 0.852484465
vt 0.510742188 0.951863348
vt 0.541992188 0.951863348
vt 0.541992188 0.852484465
vt 0.788085938 0.852484465
vt 0.788085938 0.902173936
vt 0.850585938 0.902173936
vt 0.850585938 0.852484465
vt 0.852539062 0.852484465
vt 0.852539062 0.951863348
vt 0.883789062 0.951863348
vt 0.883789062 0.852484465
vt 0.725585938 0.855590045
vt 0.725585938 0.954968929
vt 0.756835938 0.954968929
vt 0.756835938 0.855590045
vt 0.915039062 0.858695626
vt 0.915039062 0.908385098
vt 0.977539062 0.908385098
vt 0.977539062 0.858695626
vt 0.0966796875 0.899068356
vt 0.0966796875 0.99844718
vt 0.127929688 0.99844718
vt 0.127929688 0.899068356
vt 0.129882812 0.899068356
vt 0.129882812 0.945652187
vt 0.192382812 0.945652187
vt 0.192382812 0.899068356
vt 0.194335938 0.899068356
vt 0.194335938 0.945652187
vt 0.256835938 0.945652187
vt 0.256835938 0.899068356
vt 0.258789062 0.899068356
vt 0.258789062 0.99844718
vt 0.290039062 0.99844718
vt 0.290039062 0.899068356
vt 0.315429688 0.905279517
vt 0.315429688 0.954968929
vt 0.346679688 0.954968929
vt 0.346679688 0.905279517
vt 0.348632812 0.905279517
vt 0.348632812 0.954968929
vt 0.379882812 0.954968929
vt 0.379882812 0.905279517
vt 0.571289062 0.905279517
vt 0.571289062 0.954968929
vt 0.602539062 0.954968929
vt 0.602539062 0.905279517
vt 0.788085938 0.905279517
vt 0.788085938 0.954968929
vt 0.819335938 0.954968929
vt 0.819335938 0.905279517
vt 0.629882812 0.908385098
vt 0.629882812 0.95807451
vt 0.661132812 0.95807451
vt 0.661132812 0.908385098
vt 0.663085938 0.908385098
vt 0.663085938 0.95807451
vt 0.694335938 0.95807451
vt 0.694335938 0.908385098
vt 0.915039062 0.911490679
vt 0.915039062 0.961180151
vt 0.946289062 0.961180151
vt 0.946289062 0.911490679
vt 0.948242188 0.911490679
vt 0.948242188 0.961180151
vt 0.979492188 0.961180151
vt 0.979492188 0.911490679
vt 0.129882812 0.948757768
vt 0.129882812 0.99844718
vt 0.161132812 0.99844718
vt 0.161132812 0.948757768
vt 0.163085938 0.948757768
vt 0.163085938 0.99844718
vt 0.194335938 0.99844718
vt 0.194335938 0.948757768
g hude_2-mesh_0
f 3/3/3 2/2/2 1/1/1
f 1/1/1 4/4/4 3/3/3
f 7/7/7 6/6/6 5/5/5
f 5/5/5 8/8/8 7/7/7
f 11/11/11 10/10/10 9/9/9
f 9/9/9 12/12/12 11/11/11
f 15/15/15 14/14/14 13/13/13
f 13/13/13 16/16/16 15/15/15
f 19/19/19 18/18/18 17/17/17
f 17/17/17 20/20/20 19/19/19
f 23/23/23 22/22/22 21/21/21
f 21/21/21 24/24/24 23/23/23
f 27/27/27 26/26/26 25/25/25
f 25/25/25 28/28/28 27/27/27
f 31/31/31 30/30/30 29/29/29
f 29/29/29 32/32/32 31/31/31
f 35/35/35 34/34/34 33/33/33
f 33/33/33 36/36/36 35/35/35
f 39/39/39 38/38/38 37/37/37
f 37/37/37 40/40/40 39/39/39
f 43/43/43 42/42/42 41/41/41
f 41/41/41 44/44/44 43/43/43
f 47/47/47 46/46/46 45/45/45
f 45/45/45 48/48/48 47/47/47
f 51/51/51 50/50/50 49/49/49
f 49/49/49 52/52/52 51/51/51
f 55/55/55 54/54/54 53/53/53
f 53/53/53 56/56/56 55/55/55
f 59/59/59 58/58/58 57/57/57
f 57/57/57 60/60/60 59/59/59
f 63/63/63 62/62/62 61/61/61
f 61/61/61 64/64/64 63/63/63
f 67/67/67 66/66/66 65/65/65
f 65/65/65 68/68/68 67/67/67
f 71/71/71 70/70/70 69/69/69
f 69/69/69 72/72/72 71/71/71
f 75/75/75 74/74/74 73/73/73
f 73/73/73 76/76/76 75/75/75
f 79/79/79 78/78/78 77/77/77
f 77/77/77 80/80/80 79/79/79
f 83/83/83 82/82/82 81/81/81
f 81/81/81 84/84/84 83/83/83
f 87/87/87 86/86/86 85/85/85
f 85/85/85 88/88/88 87/87/87
f 91/91/91 90/90/90 89/89/89
f 89/89/89 92/92/92 91/91/91
f 95/95/95 94/94/94 93/93/93
f 93/93/93 96/96/96 95/95/95
f 99/99/99 98/98/98 97/97/97
f 97/97/97 100/100/100 99/99/99
f 103/103/103 102/102/102 101/101/101
f 101/101/101 104/104/104 103/103/103
f 107/107/107 106/106/106 105/105/105
f 105/105/105 108/108/108 107/107/107
f 111/111/111 110/110/110 109/109/109
f 109/109/109 112/112/112 111/111/111
f 115/115/115 114/114/114 113/113/113
f 113/113/113 116/116/116 115/115/115
f 119/119/119 118/118/118 117/117/117
f 117/117/117 120/120/120 119/119/119
f 123/123/123 122/122/122 121/121/121
f 121/121/121 124/124/124 123/123/123
f 127/127/127 126/126/126 125/125/125
f 125/125/125 128/128/128 127/127/127
f 131/131/131 130/130/130 129/129/129
f 129/129/129 132/132/132 131/131/131
f 135/135/135 134/134/134 133/133/133
f 133/133/133 136/136/136 135/135/135
f 139/139/139 138/138/138 137/137/137
f 137/137/137 140/140/140 139/139/139
f 143/143/143 142/142/142 141/141/141
f 141/141/141 144/144/144 143/143/143
f 147/147/147 146/146/146 145/145/145
f 145/145/145 148/148/148 147/147/147
f 151/151/151 150/150/150 149/149/149
f 149/149/149 152/152/152 151/151/151
f 155/155/155 154/154/154 153/153/153
f 153/153/153 156/156/156 155/155/155
f 159/159/159 158/158/158 157/157/157
f 157/157/157 160/160/160 159/159/159
f 163/163/163 162/162/162 161/161/161
f 161/161/161 164/164/164 163/163/163
f 167/167/167 166/166/166 165/165/165
f 165/165/165 168/168/168 167/167/167
f 171/171/171 170/170/170 169/169/169
f 169/169/169 172/172/172 171/171/171
