g yamaijia_3-mesh
v -320 170 0
v -320 714 0
v -864 714 0
v -864 170 0
v -320 714 0
v -320 874 0
v -576 874 0
v -576 714 0
v -864 266 0
v -864 554 0
v -960 554 0
v -960 266 0
v -864 10 0
v -864 266 0
v -960 266 0
v -960 10 0
v -32 618 0
v -32 714 0
v -192 714 0
v -192 618 0
v -128 74 0
v -128 202 0
v -224 202 0
v -224 74 0
v -192 618 0
v -192 714 0
v -320 714 0
v -320 618 0
v -224 714 0
v -224 810 0
v -320 810 0
v -320 714 0
v -640 106 0
v -640 170 0
v -768 170 0
v -768 106 0
v -960 170 0
v -960 298 0
v -1023 298 0
v -1023 170 0
v -256 298 0
v -256 426 0
v -320 426 0
v -320 298 0
v -864 554 0
v -864 650 0
v -928 650 0
v -928 554 0
v -576 714 0
v -576 810 0
v -640 810 0
v -640 714 0
v -896 650 0
v -896 714 0
v -992 714 0
v -992 650 0
v -768 42 0
v -768 106 0
v -864 106 0
v -864 42 0
v -768 106 0
v -768 170 0
v -864 170 0
v -864 106 0
v -256 202 0
v -256 298 0
v -320 298 0
v -320 202 0
v -960 74 0
v -960 170 0
v -1023 170 0
v -1023 74 0
v -224 202 0
v -224 330 0
v -256 330 0
v -256 202 0
v -256 458 0
v -256 522 0
v -320 522 0
v -320 458 0
v -416 138 0
v -416 170 0
v -512 170 0
v -512 138 0
v -352 874 0
v -352 906 0
v -448 906 0
v -448 874 0
v -32 586 0
v -32 618 0
v -128 618 0
v -128 586 0
v -224 106 0
v -224 202 0
v -256 202 0
v -256 106 0
v -320 138 0
v -320 170 0
v -416 170 0
v -416 138 0
v -128 586 0
v -128 618 0
v -224 618 0
v -224 586 0
v -960 298 0
v -960 362 0
v -992 362 0
v -992 298 0
v -160 554 0
v -160 586 0
v -224 586 0
v -224 554 0
v -576 138 0
v -576 170 0
v -640 170 0
v -640 138 0
v -800 10 0
v -800 42 0
v -864 42 0
v -864 10 0
v -384 106 0
v -384 138 0
v -448 138 0
v -448 106 0
v -128 714 0
v -128 746 0
v -192 746 0
v -192 714 0
v -448 874 0
v -448 906 0
v -512 906 0
v -512 874 0
v -0 650 0
v -0 714 0
v -32 714 0
v -32 650 0
v -640 714 0
v -640 746 0
v -704 746 0
v -704 714 0
v -256 170 0
v -256 202 0
v -288 202 0
v -288 170 0
v -192 202 0
v -192 234 0
v -224 234 0
v -224 202 0
v -96 138 0
v -96 170 0
v -128 170 0
v -128 138 0
v -960 42 0
v -960 74 0
v -992 74 0
v -992 42 0
v -736 74 0
v -736 106 0
v -768 106 0
v -768 74 0
v -288 426 0
v -288 458 0
v -320 458 0
v -320 426 0
v -288 810 0
v -288 842 0
v -320 842 0
v -320 810 0
v -192 714 0
v -192 746 0
v -224 746 0
v -224 714 0
v -576 810 0
v -576 842 0
v -608 842 0
v -608 810 0
v -288 586 0
v -288 618 0
v -320 618 0
v -320 586 0
v -928 618 0
v -928 650 0
v -960 650 0
v -960 618 0
vt 0.0009765625 0.00154322386
vt 0.0009765625 0.841049373
vt 0.532226562 0.841049373
vt 0.532226562 0.00154322386
vt 0.534179688 0.00154322386
vt 0.534179688 0.248456776
vt 0.784179688 0.248456776
vt 0.784179688 0.00154322386
vt 0.786132812 0.00154322386
vt 0.786132812 0.445987642
vt 0.879882812 0.445987642
vt 0.879882812 0.00154322386
vt 0.881835938 0.00154322386
vt 0.881835938 0.396604955
vt 0.975585938 0.396604955
vt 0.975585938 0.00154322386
vt 0.534179688 0.251543224
vt 0.534179688 0.399691343
vt 0.690429688 0.399691343
vt 0.690429688 0.251543224
vt 0.881835938 0.399691343
vt 0.881835938 0.597222209
vt 0.975585938 0.597222209
vt 0.975585938 0.399691343
vt 0.534179688 0.402777791
vt 0.534179688 0.55092597
vt 0.659179688 0.55092597
vt 0.659179688 0.402777791
vt 0.661132812 0.402777791
vt 0.661132812 0.55092597
vt 0.754882812 0.55092597
vt 0.754882812 0.402777791
vt 0.534179688 0.554012358
vt 0.534179688 0.652777791
vt 0.659179688 0.652777791
vt 0.659179688 0.554012358
vt 0.786132812 0.44907409
vt 0.786132812 0.646604896
vt 0.848632812 0.646604896
vt 0.848632812 0.44907409
vt 0.661132812 0.554012358
vt 0.661132812 0.751543224
vt 0.723632812 0.751543224
vt 0.723632812 0.554012358
vt 0.881835938 0.600308657
vt 0.881835938 0.748456776
vt 0.944335938 0.748456776
vt 0.944335938 0.600308657
vt 0.786132812 0.649691343
vt 0.786132812 0.797839522
vt 0.848632812 0.797839522
vt 0.848632812 0.649691343
vt 0.534179688 0.655864239
vt 0.534179688 0.754629612
vt 0.627929688 0.754629612
vt 0.627929688 0.655864239
vt 0.881835938 0.751543224
vt 0.881835938 0.850308657
vt 0.975585938 0.850308657
vt 0.975585938 0.751543224
vt 0.661132812 0.754629612
vt 0.661132812 0.853395045
vt 0.754882812 0.853395045
vt 0.754882812 0.754629612
vt 0.534179688 0.75771606
vt 0.534179688 0.905864179
vt 0.596679688 0.905864179
vt 0.596679688 0.75771606
vt 0.786132812 0.80092591
vt 0.786132812 0.94907409
vt 0.848632812 0.94907409
vt 0.848632812 0.80092591
vt 0.598632812 0.75771606
vt 0.598632812 0.955246925
vt 0.629882812 0.955246925
vt 0.629882812 0.75771606
vt 0.0009765625 0.844135821
vt 0.0009765625 0.942901254
vt 0.0634765625 0.942901254
vt 0.0634765625 0.844135821
vt 0.0654296875 0.844135821
vt 0.0654296875 0.893518507
vt 0.159179688 0.893518507
vt 0.159179688 0.844135821
vt 0.161132812 0.844135821
vt 0.161132812 0.893518507
vt 0.254882812 0.893518507
vt 0.254882812 0.844135821
vt 0.256835938 0.844135821
vt 0.256835938 0.893518507
vt 0.350585938 0.893518507
vt 0.350585938 0.844135821
vt 0.352539062 0.844135821
vt 0.352539062 0.99228394
vt 0.383789062 0.99228394
vt 0.383789062 0.844135821
vt 0.385742188 0.844135821
vt 0.385742188 0.893518507
vt 0.479492188 0.893518507
vt 0.479492188 0.844135821
vt 0.881835938 0.853395045
vt 0.881835938 0.902777791
vt 0.975585938 0.902777791
vt 0.975585938 0.853395045
vt 0.481445312 0.844135821
vt 0.481445312 0.942901254
vt 0.512695312 0.942901254
vt 0.512695312 0.844135821
vt 0.661132812 0.856481493
vt 0.661132812 0.905864179
vt 0.723632812 0.905864179
vt 0.723632812 0.856481493
vt 0.0654296875 0.896604955
vt 0.0654296875 0.945987642
vt 0.127929688 0.945987642
vt 0.127929688 0.896604955
vt 0.129882812 0.896604955
vt 0.129882812 0.945987642
vt 0.192382812 0.945987642
vt 0.192382812 0.896604955
vt 0.194335938 0.896604955
vt 0.194335938 0.945987642
vt 0.256835938 0.945987642
vt 0.256835938 0.896604955
vt 0.258789062 0.896604955
vt 0.258789062 0.945987642
vt 0.321289062 0.945987642
vt 0.321289062 0.896604955
vt 0.385742188 0.896604955
vt 0.385742188 0.945987642
vt 0.448242188 0.945987642
vt 0.448242188 0.896604955
vt 0.725585938 0.856481493
vt 0.725585938 0.955246925
vt 0.756835938 0.955246925
vt 0.756835938 0.856481493
vt 0.881835938 0.905864179
vt 0.881835938 0.955246925
vt 0.944335938 0.955246925
vt 0.944335938 0.905864179
vt 0.946289062 0.905864179
vt 0.946289062 0.955246925
vt 0.977539062 0.955246925
vt 0.977539062 0.905864179
vt 0.534179688 0.908950627
vt 0.534179688 0.958333313
vt 0.565429688 0.958333313
vt 0.565429688 0.908950627
vt 0.661132812 0.908950627
vt 0.661132812 0.958333313
vt 0.692382812 0.958333313
vt 0.692382812 0.908950627
vt 0.0009765625 0.945987642
vt 0.0009765625 0.995370388
vt 0.0322265625 0.995370388
vt 0.0322265625 0.945987642
vt 0.481445312 0.945987642
vt 0.481445312 0.995370388
vt 0.512695312 0.995370388
vt 0.512695312 0.945987642
vt 0.0654296875 0.94907409
vt 0.0654296875 0.998456776
vt 0.0966796875 0.998456776
vt 0.0966796875 0.94907409
vt 0.0986328125 0.94907409
vt 0.0986328125 0.998456776
vt 0.129882812 0.998456776
vt 0.129882812 0.94907409
vt 0.131835938 0.94907409
vt 0.131835938 0.998456776
vt 0.163085938 0.998456776
vt 0.163085938 0.94907409
vt 0.165039062 0.94907409
vt 0.165039062 0.998456776
vt 0.196289062 0.998456776
vt 0.196289062 0.94907409
vt 0.198242188 0.94907409
vt 0.198242188 0.998456776
vt 0.229492188 0.998456776
vt 0.229492188 0.94907409
vt 0.231445312 0.94907409
vt 0.231445312 0.998456776
vt 0.262695312 0.998456776
vt 0.262695312 0.94907409
g yamaijia_3-mesh_0
f 3/3/3 2/2/2 1/1/1
f 1/1/1 4/4/4 3/3/3
f 7/7/7 6/6/6 5/5/5
f 5/5/5 8/8/8 7/7/7
f 11/11/11 10/10/10 9/9/9
f 9/9/9 12/12/12 11/11/11
f 15/15/15 14/14/14 13/13/13
f 13/13/13 16/16/16 15/15/15
f 19/19/19 18/18/18 17/17/17
f 17/17/17 20/20/20 19/19/19
f 23/23/23 22/22/22 21/21/21
f 21/21/21 24/24/24 23/23/23
f 27/27/27 26/26/26 25/25/25
f 25/25/25 28/28/28 27/27/27
f 31/31/31 30/30/30 29/29/29
f 29/29/29 32/32/32 31/31/31
f 35/35/35 34/34/34 33/33/33
f 33/33/33 36/36/36 35/35/35
f 39/39/39 38/38/38 37/37/37
f 37/37/37 40/40/40 39/39/39
f 43/43/43 42/42/42 41/41/41
f 41/41/41 44/44/44 43/43/43
f 47/47/47 46/46/46 45/45/45
f 45/45/45 48/48/48 47/47/47
f 51/51/51 50/50/50 49/49/49
f 49/49/49 52/52/52 51/51/51
f 55/55/55 54/54/54 53/53/53
f 53/53/53 56/56/56 55/55/55
f 59/59/59 58/58/58 57/57/57
f 57/57/57 60/60/60 59/59/59
f 63/63/63 62/62/62 61/61/61
f 61/61/61 64/64/64 63/63/63
f 67/67/67 66/66/66 65/65/65
f 65/65/65 68/68/68 67/67/67
f 71/71/71 70/70/70 69/69/69
f 69/69/69 72/72/72 71/71/71
f 75/75/75 74/74/74 73/73/73
f 73/73/73 76/76/76 75/75/75
f 79/79/79 78/78/78 77/77/77
f 77/77/77 80/80/80 79/79/79
f 83/83/83 82/82/82 81/81/81
f 81/81/81 84/84/84 83/83/83
f 87/87/87 86/86/86 85/85/85
f 85/85/85 88/88/88 87/87/87
f 91/91/91 90/90/90 89/89/89
f 89/89/89 92/92/92 91/91/91
f 95/95/95 94/94/94 93/93/93
f 93/93/93 96/96/96 95/95/95
f 99/99/99 98/98/98 97/97/97
f 97/97/97 100/100/100 99/99/99
f 103/103/103 102/102/102 101/101/101
f 101/101/101 104/104/104 103/103/103
f 107/107/107 106/106/106 105/105/105
f 105/105/105 108/108/108 107/107/107
f 111/111/111 110/110/110 109/109/109
f 109/109/109 112/112/112 111/111/111
f 115/115/115 114/114/114 113/113/113
f 113/113/113 116/116/116 115/115/115
f 119/119/119 118/118/118 117/117/117
f 117/117/117 120/120/120 119/119/119
f 123/123/123 122/122/122 121/121/121
f 121/121/121 124/124/124 123/123/123
f 127/127/127 126/126/126 125/125/125
f 125/125/125 128/128/128 127/127/127
f 131/131/131 130/130/130 129/129/129
f 129/129/129 132/132/132 131/131/131
f 135/135/135 134/134/134 133/133/133
f 133/133/133 136/136/136 135/135/135
f 139/139/139 138/138/138 137/137/137
f 137/137/137 140/140/140 139/139/139
f 143/143/143 142/142/142 141/141/141
f 141/141/141 144/144/144 143/143/143
f 147/147/147 146/146/146 145/145/145
f 145/145/145 148/148/148 147/147/147
f 151/151/151 150/150/150 149/149/149
f 149/149/149 152/152/152 151/151/151
f 155/155/155 154/154/154 153/153/153
f 153/153/153 156/156/156 155/155/155
f 159/159/159 158/158/158 157/157/157
f 157/157/157 160/160/160 159/159/159
f 163/163/163 162/162/162 161/161/161
f 161/161/161 164/164/164 163/163/163
f 167/167/167 166/166/166 165/165/165
f 165/165/165 168/168/168 167/167/167
f 171/171/171 170/170/170 169/169/169
f 169/169/169 172/172/172 171/171/171
f 175/175/175 174/174/174 173/173/173
f 173/173/173 176/176/176 175/175/175
f 179/179/179 178/178/178 177/177/177
f 177/177/177 180/180/180 179/179/179
f 183/183/183 182/182/182 181/181/181
f 181/181/181 184/184/184 183/183/183
