g i14_2_bj-mesh
v -1824 0 0
v -1824 271 0
v -2047 271 0
v -2047 0 0
v -160 239 0
v -160 463 0
v -352 463 0
v -352 239 0
v -1152 495 0
v -1152 655 0
v -1312 655 0
v -1312 495 0
v -64 495 0
v -64 591 0
v -288 591 0
v -288 495 0
v -736 911 0
v -736 1039 0
v -864 1039 0
v -864 911 0
v -384 911 0
v -384 1039 0
v -512 1039 0
v -512 911 0
v -320 687 0
v -320 847 0
v -416 847 0
v -416 687 0
v -64 719 0
v -64 879 0
v -160 879 0
v -160 719 0
v -480 751 0
v -480 911 0
v -576 911 0
v -576 751 0
v -640 1103 0
v -640 1199 0
v -768 1199 0
v -768 1103 0
v -1760 111 0
v -1760 239 0
v -1824 239 0
v -1824 111 0
v -800 847 0
v -800 911 0
v -896 911 0
v -896 847 0
v -192 591 0
v -192 687 0
v -256 687 0
v -256 591 0
v -1760 15 0
v -1760 111 0
v -1824 111 0
v -1824 15 0
v -1824 1007 0
v -1824 1135 0
v -1856 1135 0
v -1856 1007 0
v -352 335 0
v -352 431 0
v -384 431 0
v -384 335 0
v -352 239 0
v -352 335 0
v -384 335 0
v -384 239 0
v -160 207 0
v -160 239 0
v -256 239 0
v -256 207 0
v -1824 911 0
v -1824 1007 0
v -1856 1007 0
v -1856 911 0
v -128 399 0
v -128 495 0
v -160 495 0
v -160 399 0
v -128 303 0
v -128 399 0
v -160 399 0
v -160 303 0
v -64 463 0
v -64 495 0
v -128 495 0
v -128 463 0
v -32 815 0
v -32 879 0
v -64 879 0
v -64 815 0
v -160 783 0
v -160 847 0
v -192 847 0
v -192 783 0
v -576 783 0
v -576 847 0
v -608 847 0
v -608 783 0
v -256 591 0
v -256 655 0
v -288 655 0
v -288 591 0
v -384 335 0
v -384 399 0
v -416 399 0
v -416 335 0
v -192 175 0
v -192 207 0
v -256 207 0
v -256 175 0
v -0 879 0
v -0 943 0
v -32 943 0
v -32 879 0
v -320 879 0
v -320 943 0
v -352 943 0
v -352 879 0
v -448 847 0
v -448 911 0
v -480 911 0
v -480 847 0
v -1952 271 0
v -1952 303 0
v -2016 303 0
v -2016 271 0
v -128 591 0
v -128 655 0
v -160 655 0
v -160 591 0
v -352 1135 0
v -352 1199 0
v -384 1199 0
v -384 1135 0
v -1216 655 0
v -1216 687 0
v -1280 687 0
v -1280 655 0
v -32 559 0
v -32 623 0
v -64 623 0
v -64 559 0
v -224 463 0
v -224 495 0
v -288 495 0
v -288 463 0
v -192 1135 0
v -192 1199 0
v -224 1199 0
v -224 1135 0
v -416 1039 0
v -416 1071 0
v -480 1071 0
v -480 1039 0
v -64 879 0
v -64 943 0
v -96 943 0
v -96 879 0
v -416 751 0
v -416 815 0
v -448 815 0
v -448 751 0
v -96 655 0
v -96 719 0
v -128 719 0
v -128 655 0
v -1120 623 0
v -1120 687 0
v -1152 687 0
v -1152 623 0
v -352 975 0
v -352 1039 0
v -384 1039 0
v -384 975 0
v -864 943 0
v -864 1007 0
v -896 1007 0
v -896 943 0
v -672 1071 0
v -672 1103 0
v -736 1103 0
v -736 1071 0
v -224 1103 0
v -224 1167 0
v -256 1167 0
v -256 1103 0
v -384 1039 0
v -384 1103 0
v -416 1103 0
v -416 1039 0
v -1792 1103 0
v -1792 1167 0
v -1824 1167 0
v -1824 1103 0
v -1728 79 0
v -1728 143 0
v -1760 143 0
v -1760 79 0
v -288 975 0
v -288 1039 0
v -320 1039 0
v -320 975 0
v -736 1071 0
v -736 1103 0
v -800 1103 0
v -800 1071 0
v -1728 143 0
v -1728 207 0
v -1760 207 0
v -1760 143 0
v -288 911 0
v -288 975 0
v -320 975 0
v -320 911 0
v -1088 1135 0
v -1088 1199 0
v -1120 1199 0
v -1120 1135 0
v -0 1007 0
v -0 1071 0
v -32 1071 0
v -32 1007 0
v -256 207 0
v -256 239 0
v -320 239 0
v -320 207 0
v -32 943 0
v -32 1007 0
v -64 1007 0
v -64 943 0
v -384 1103 0
v -384 1167 0
v -416 1167 0
v -416 1103 0
v -1120 1071 0
v -1120 1135 0
v -1152 1135 0
v -1152 1071 0
v -1088 1071 0
v -1088 1135 0
v -1120 1135 0
v -1120 1071 0
v -256 1039 0
v -256 1103 0
v -288 1103 0
v -288 1039 0
v -768 1039 0
v -768 1071 0
v -800 1071 0
v -800 1039 0
v -1152 655 0
v -1152 687 0
v -1184 687 0
v -1184 655 0
v -768 879 0
v -768 911 0
v -800 911 0
v -800 879 0
v -832 1039 0
v -832 1071 0
v -864 1071 0
v -864 1039 0
v -96 431 0
v -96 463 0
v -128 463 0
v -128 431 0
v -160 463 0
v -160 495 0
v -192 495 0
v -192 463 0
v -64 591 0
v -64 623 0
v -96 623 0
v -96 591 0
v -288 463 0
v -288 495 0
v -320 495 0
v -320 463 0
v -864 911 0
v -864 943 0
v -896 943 0
v -896 911 0
v -32 911 0
v -32 943 0
v -64 943 0
v -64 911 0
v -320 847 0
v -320 879 0
v -352 879 0
v -352 847 0
v -0 847 0
v -0 879 0
v -32 879 0
v -32 847 0
v -0 975 0
v -0 1007 0
v -32 1007 0
v -32 975 0
v -1792 1071 0
v -1792 1103 0
v -1824 1103 0
v -1824 1071 0
v -224 1071 0
v -224 1103 0
v -256 1103 0
v -256 1071 0
v -256 1007 0
v -256 1039 0
v -288 1039 0
v -288 1007 0
v -1120 1039 0
v -1120 1071 0
v -1152 1071 0
v -1152 1039 0
v -1120 591 0
v -1120 623 0
v -1152 623 0
v -1152 591 0
v -96 623 0
v -96 655 0
v -128 655 0
v -128 623 0
v -32 527 0
v -32 559 0
v -64 559 0
v -64 527 0
v -1280 655 0
v -1280 687 0
v -1312 687 0
v -1312 655 0
v -416 719 0
v -416 751 0
v -448 751 0
v -448 719 0
v -32 783 0
v -32 815 0
v -64 815 0
v -64 783 0
v -448 815 0
v -448 847 0
v -480 847 0
v -480 815 0
v -576 751 0
v -576 783 0
v -608 783 0
v -608 751 0
v -160 751 0
v -160 783 0
v -192 783 0
v -192 751 0
vt 0.0009765625 0.00202429295
vt 0.0009765625 0.552631617
vt 0.219726562 0.552631617
vt 0.219726562 0.00202429295
vt 0.221679688 0.00202429295
vt 0.221679688 0.455465615
vt 0.409179688 0.455465615
vt 0.409179688 0.00202429295
vt 0.411132812 0.00202429295
vt 0.411132812 0.325910926
vt 0.567382812 0.325910926
vt 0.567382812 0.00202429295
vt 0.569335938 0.00202429295
vt 0.569335938 0.196356297
vt 0.788085938 0.196356297
vt 0.788085938 0.00202429295
vt 0.790039062 0.00202429295
vt 0.790039062 0.261133611
vt 0.915039062 0.261133611
vt 0.915039062 0.00202429295
vt 0.569335938 0.200404882
vt 0.569335938 0.459514141
vt 0.694335938 0.459514141
vt 0.694335938 0.200404882
vt 0.790039062 0.265182197
vt 0.790039062 0.58906883
vt 0.883789062 0.58906883
vt 0.883789062 0.265182197
vt 0.885742188 0.265182197
vt 0.885742188 0.58906883
vt 0.979492188 0.58906883
vt 0.979492188 0.265182197
vt 0.411132812 0.329959512
vt 0.411132812 0.653846145
vt 0.504882812 0.653846145
vt 0.504882812 0.329959512
vt 0.221679688 0.459514141
vt 0.221679688 0.653846145
vt 0.346679688 0.653846145
vt 0.346679688 0.459514141
vt 0.696289062 0.200404882
vt 0.696289062 0.459514141
vt 0.758789062 0.459514141
vt 0.758789062 0.200404882
vt 0.569335938 0.463562727
vt 0.569335938 0.593117416
vt 0.663085938 0.593117416
vt 0.663085938 0.463562727
vt 0.665039062 0.463562727
vt 0.665039062 0.657894731
vt 0.727539062 0.657894731
vt 0.727539062 0.463562727
vt 0.0009765625 0.556680202
vt 0.0009765625 0.751012146
vt 0.0634765625 0.751012146
vt 0.0634765625 0.556680202
vt 0.506835938 0.329959512
vt 0.506835938 0.58906883
vt 0.538085938 0.58906883
vt 0.538085938 0.329959512
vt 0.348632812 0.459514141
vt 0.348632812 0.653846145
vt 0.379882812 0.653846145
vt 0.379882812 0.459514141
vt 0.729492188 0.463562727
vt 0.729492188 0.657894731
vt 0.760742188 0.657894731
vt 0.760742188 0.463562727
vt 0.0654296875 0.556680202
vt 0.0654296875 0.621457458
vt 0.159179688 0.621457458
vt 0.159179688 0.556680202
vt 0.161132812 0.556680202
vt 0.161132812 0.751012146
vt 0.192382812 0.751012146
vt 0.192382812 0.556680202
vt 0.506835938 0.593117416
vt 0.506835938 0.78744936
vt 0.538085938 0.78744936
vt 0.538085938 0.593117416
vt 0.790039062 0.593117416
vt 0.790039062 0.78744936
vt 0.821289062 0.78744936
vt 0.821289062 0.593117416
vt 0.823242188 0.593117416
vt 0.823242188 0.657894731
vt 0.885742188 0.657894731
vt 0.885742188 0.593117416
vt 0.887695312 0.593117416
vt 0.887695312 0.722672105
vt 0.918945312 0.722672105
vt 0.918945312 0.593117416
vt 0.920898438 0.593117416
vt 0.920898438 0.722672105
vt 0.952148438 0.722672105
vt 0.952148438 0.593117416
vt 0.954101562 0.593117416
vt 0.954101562 0.722672105
vt 0.985351562 0.722672105
vt 0.985351562 0.593117416
vt 0.569335938 0.597166002
vt 0.569335938 0.726720691
vt 0.600585938 0.726720691
vt 0.600585938 0.597166002
vt 0.602539062 0.597166002
vt 0.602539062 0.726720691
vt 0.633789062 0.726720691
vt 0.633789062 0.597166002
vt 0.0654296875 0.625506043
vt 0.0654296875 0.690283418
vt 0.127929688 0.690283418
vt 0.127929688 0.625506043
vt 0.221679688 0.657894731
vt 0.221679688 0.78744936
vt 0.252929688 0.78744936
vt 0.252929688 0.657894731
vt 0.254882812 0.657894731
vt 0.254882812 0.78744936
vt 0.286132812 0.78744936
vt 0.286132812 0.657894731
vt 0.288085938 0.657894731
vt 0.288085938 0.78744936
vt 0.319335938 0.78744936
vt 0.319335938 0.657894731
vt 0.321289062 0.657894731
vt 0.321289062 0.722672105
vt 0.383789062 0.722672105
vt 0.383789062 0.657894731
vt 0.411132812 0.657894731
vt 0.411132812 0.78744936
vt 0.442382812 0.78744936
vt 0.442382812 0.657894731
vt 0.444335938 0.657894731
vt 0.444335938 0.78744936
vt 0.475585938 0.78744936
vt 0.475585938 0.657894731
vt 0.665039062 0.661943316
vt 0.665039062 0.726720691
vt 0.727539062 0.726720691
vt 0.727539062 0.661943316
vt 0.729492188 0.661943316
vt 0.729492188 0.791497946
vt 0.760742188 0.791497946
vt 0.760742188 0.661943316
vt 0.823242188 0.661943316
vt 0.823242188 0.726720691
vt 0.885742188 0.726720691
vt 0.885742188 0.661943316
vt 0.0654296875 0.694332004
vt 0.0654296875 0.823886633
vt 0.0966796875 0.823886633
vt 0.0966796875 0.694332004
vt 0.321289062 0.726720691
vt 0.321289062 0.791497946
vt 0.383789062 0.791497946
vt 0.383789062 0.726720691
vt 0.0986328125 0.694332004
vt 0.0986328125 0.823886633
vt 0.129882812 0.823886633
vt 0.129882812 0.694332004
vt 0.887695312 0.726720691
vt 0.887695312 0.85627532
vt 0.918945312 0.85627532
vt 0.918945312 0.726720691
vt 0.920898438 0.726720691
vt 0.920898438 0.85627532
vt 0.952148438 0.85627532
vt 0.952148438 0.726720691
vt 0.954101562 0.726720691
vt 0.954101562 0.85627532
vt 0.985351562 0.85627532
vt 0.985351562 0.726720691
vt 0.569335938 0.730769217
vt 0.569335938 0.860323906
vt 0.600585938 0.860323906
vt 0.600585938 0.730769217
vt 0.602539062 0.730769217
vt 0.602539062 0.860323906
vt 0.633789062 0.860323906
vt 0.633789062 0.730769217
vt 0.665039062 0.730769217
vt 0.665039062 0.795546532
vt 0.727539062 0.795546532
vt 0.727539062 0.730769217
vt 0.823242188 0.730769217
vt 0.823242188 0.860323906
vt 0.854492188 0.860323906
vt 0.854492188 0.730769217
vt 0.0009765625 0.755060732
vt 0.0009765625 0.884615362
vt 0.0322265625 0.884615362
vt 0.0322265625 0.755060732
vt 0.161132812 0.755060732
vt 0.161132812 0.884615362
vt 0.192382812 0.884615362
vt 0.192382812 0.755060732
vt 0.221679688 0.791497946
vt 0.221679688 0.921052635
vt 0.252929688 0.921052635
vt 0.252929688 0.791497946
vt 0.254882812 0.791497946
vt 0.254882812 0.921052635
vt 0.286132812 0.921052635
vt 0.286132812 0.791497946
vt 0.411132812 0.791497946
vt 0.411132812 0.85627532
vt 0.473632812 0.85627532
vt 0.473632812 0.791497946
vt 0.288085938 0.791497946
vt 0.288085938 0.921052635
vt 0.319335938 0.921052635
vt 0.319335938 0.791497946
vt 0.475585938 0.791497946
vt 0.475585938 0.921052635
vt 0.506835938 0.921052635
vt 0.506835938 0.791497946
vt 0.508789062 0.791497946
vt 0.508789062 0.921052635
vt 0.540039062 0.921052635
vt 0.540039062 0.791497946
vt 0.790039062 0.791497946
vt 0.790039062 0.921052635
vt 0.821289062 0.921052635
vt 0.821289062 0.791497946
vt 0.321289062 0.795546532
vt 0.321289062 0.860323906
vt 0.383789062 0.860323906
vt 0.383789062 0.795546532
vt 0.729492188 0.795546532
vt 0.729492188 0.925101221
vt 0.760742188 0.925101221
vt 0.760742188 0.795546532
vt 0.665039062 0.799595118
vt 0.665039062 0.929149806
vt 0.696289062 0.929149806
vt 0.696289062 0.799595118
vt 0.0654296875 0.827935219
vt 0.0654296875 0.957489848
vt 0.0966796875 0.957489848
vt 0.0966796875 0.827935219
vt 0.0986328125 0.827935219
vt 0.0986328125 0.957489848
vt 0.129882812 0.957489848
vt 0.129882812 0.827935219
vt 0.411132812 0.860323906
vt 0.411132812 0.989878535
vt 0.442382812 0.989878535
vt 0.442382812 0.860323906
vt 0.887695312 0.860323906
vt 0.887695312 0.925101221
vt 0.918945312 0.925101221
vt 0.918945312 0.860323906
vt 0.920898438 0.860323906
vt 0.920898438 0.925101221
vt 0.952148438 0.925101221
vt 0.952148438 0.860323906
vt 0.954101562 0.860323906
vt 0.954101562 0.925101221
vt 0.985351562 0.925101221
vt 0.985351562 0.860323906
vt 0.321289062 0.864372492
vt 0.321289062 0.929149806
vt 0.352539062 0.929149806
vt 0.352539062 0.864372492
vt 0.354492188 0.864372492
vt 0.354492188 0.929149806
vt 0.385742188 0.929149806
vt 0.385742188 0.864372492
vt 0.569335938 0.864372492
vt 0.569335938 0.929149806
vt 0.600585938 0.929149806
vt 0.600585938 0.864372492
vt 0.602539062 0.864372492
vt 0.602539062 0.929149806
vt 0.633789062 0.929149806
vt 0.633789062 0.864372492
vt 0.823242188 0.864372492
vt 0.823242188 0.929149806
vt 0.854492188 0.929149806
vt 0.854492188 0.864372492
vt 0.0009765625 0.888663948
vt 0.0009765625 0.953441322
vt 0.0322265625 0.953441322
vt 0.0322265625 0.888663948
vt 0.161132812 0.888663948
vt 0.161132812 0.953441322
vt 0.192382812 0.953441322
vt 0.192382812 0.888663948
vt 0.221679688 0.925101221
vt 0.221679688 0.989878535
vt 0.252929688 0.989878535
vt 0.252929688 0.925101221
vt 0.254882812 0.925101221
vt 0.254882812 0.989878535
vt 0.286132812 0.989878535
vt 0.286132812 0.925101221
vt 0.288085938 0.925101221
vt 0.288085938 0.989878535
vt 0.319335938 0.989878535
vt 0.319335938 0.925101221
vt 0.475585938 0.925101221
vt 0.475585938 0.989878535
vt 0.506835938 0.989878535
vt 0.506835938 0.925101221
vt 0.508789062 0.925101221
vt 0.508789062 0.989878535
vt 0.540039062 0.989878535
vt 0.540039062 0.925101221
vt 0.790039062 0.925101221
vt 0.790039062 0.989878535
vt 0.821289062 0.989878535
vt 0.821289062 0.925101221
vt 0.729492188 0.929149806
vt 0.729492188 0.993927121
vt 0.760742188 0.993927121
vt 0.760742188 0.929149806
vt 0.887695312 0.929149806
vt 0.887695312 0.993927121
vt 0.918945312 0.993927121
vt 0.918945312 0.929149806
vt 0.920898438 0.929149806
vt 0.920898438 0.993927121
vt 0.952148438 0.993927121
vt 0.952148438 0.929149806
vt 0.954101562 0.929149806
vt 0.954101562 0.993927121
vt 0.985351562 0.993927121
vt 0.985351562 0.929149806
vt 0.321289062 0.933198392
vt 0.321289062 0.997975707
vt 0.352539062 0.997975707
vt 0.352539062 0.933198392
vt 0.354492188 0.933198392
vt 0.354492188 0.997975707
vt 0.385742188 0.997975707
vt 0.385742188 0.933198392
vt 0.569335938 0.933198392
vt 0.569335938 0.997975707
vt 0.600585938 0.997975707
vt 0.600585938 0.933198392
vt 0.602539062 0.933198392
vt 0.602539062 0.997975707
vt 0.633789062 0.997975707
vt 0.633789062 0.933198392
vt 0.665039062 0.933198392
vt 0.665039062 0.997975707
vt 0.696289062 0.997975707
vt 0.696289062 0.933198392
vt 0.823242188 0.933198392
vt 0.823242188 0.997975707
vt 0.854492188 0.997975707
vt 0.854492188 0.933198392
g i14_2_bj-mesh_0
f 3/3/3 2/2/2 1/1/1
f 1/1/1 4/4/4 3/3/3
f 7/7/7 6/6/6 5/5/5
f 5/5/5 8/8/8 7/7/7
f 11/11/11 10/10/10 9/9/9
f 9/9/9 12/12/12 11/11/11
f 15/15/15 14/14/14 13/13/13
f 13/13/13 16/16/16 15/15/15
f 19/19/19 18/18/18 17/17/17
f 17/17/17 20/20/20 19/19/19
f 23/23/23 22/22/22 21/21/21
f 21/21/21 24/24/24 23/23/23
f 27/27/27 26/26/26 25/25/25
f 25/25/25 28/28/28 27/27/27
f 31/31/31 30/30/30 29/29/29
f 29/29/29 32/32/32 31/31/31
f 35/35/35 34/34/34 33/33/33
f 33/33/33 36/36/36 35/35/35
f 39/39/39 38/38/38 37/37/37
f 37/37/37 40/40/40 39/39/39
f 43/43/43 42/42/42 41/41/41
f 41/41/41 44/44/44 43/43/43
f 47/47/47 46/46/46 45/45/45
f 45/45/45 48/48/48 47/47/47
f 51/51/51 50/50/50 49/49/49
f 49/49/49 52/52/52 51/51/51
f 55/55/55 54/54/54 53/53/53
f 53/53/53 56/56/56 55/55/55
f 59/59/59 58/58/58 57/57/57
f 57/57/57 60/60/60 59/59/59
f 63/63/63 62/62/62 61/61/61
f 61/61/61 64/64/64 63/63/63
f 67/67/67 66/66/66 65/65/65
f 65/65/65 68/68/68 67/67/67
f 71/71/71 70/70/70 69/69/69
f 69/69/69 72/72/72 71/71/71
f 75/75/75 74/74/74 73/73/73
f 73/73/73 76/76/76 75/75/75
f 79/79/79 78/78/78 77/77/77
f 77/77/77 80/80/80 79/79/79
f 83/83/83 82/82/82 81/81/81
f 81/81/81 84/84/84 83/83/83
f 87/87/87 86/86/86 85/85/85
f 85/85/85 88/88/88 87/87/87
f 91/91/91 90/90/90 89/89/89
f 89/89/89 92/92/92 91/91/91
f 95/95/95 94/94/94 93/93/93
f 93/93/93 96/96/96 95/95/95
f 99/99/99 98/98/98 97/97/97
f 97/97/97 100/100/100 99/99/99
f 103/103/103 102/102/102 101/101/101
f 101/101/101 104/104/104 103/103/103
f 107/107/107 106/106/106 105/105/105
f 105/105/105 108/108/108 107/107/107
f 111/111/111 110/110/110 109/109/109
f 109/109/109 112/112/112 111/111/111
f 115/115/115 114/114/114 113/113/113
f 113/113/113 116/116/116 115/115/115
f 119/119/119 118/118/118 117/117/117
f 117/117/117 120/120/120 119/119/119
f 123/123/123 122/122/122 121/121/121
f 121/121/121 124/124/124 123/123/123
f 127/127/127 126/126/126 125/125/125
f 125/125/125 128/128/128 127/127/127
f 131/131/131 130/130/130 129/129/129
f 129/129/129 132/132/132 131/131/131
f 135/135/135 134/134/134 133/133/133
f 133/133/133 136/136/136 135/135/135
f 139/139/139 138/138/138 137/137/137
f 137/137/137 140/140/140 139/139/139
f 143/143/143 142/142/142 141/141/141
f 141/141/141 144/144/144 143/143/143
f 147/147/147 146/146/146 145/145/145
f 145/145/145 148/148/148 147/147/147
f 151/151/151 150/150/150 149/149/149
f 149/149/149 152/152/152 151/151/151
f 155/155/155 154/154/154 153/153/153
f 153/153/153 156/156/156 155/155/155
f 159/159/159 158/158/158 157/157/157
f 157/157/157 160/160/160 159/159/159
f 163/163/163 162/162/162 161/161/161
f 161/161/161 164/164/164 163/163/163
f 167/167/167 166/166/166 165/165/165
f 165/165/165 168/168/168 167/167/167
f 171/171/171 170/170/170 169/169/169
f 169/169/169 172/172/172 171/171/171
f 175/175/175 174/174/174 173/173/173
f 173/173/173 176/176/176 175/175/175
f 179/179/179 178/178/178 177/177/177
f 177/177/177 180/180/180 179/179/179
f 183/183/183 182/182/182 181/181/181
f 181/181/181 184/184/184 183/183/183
f 187/187/187 186/186/186 185/185/185
f 185/185/185 188/188/188 187/187/187
f 191/191/191 190/190/190 189/189/189
f 189/189/189 192/192/192 191/191/191
f 195/195/195 194/194/194 193/193/193
f 193/193/193 196/196/196 195/195/195
f 199/199/199 198/198/198 197/197/197
f 197/197/197 200/200/200 199/199/199
f 203/203/203 202/202/202 201/201/201
f 201/201/201 204/204/204 203/203/203
f 207/207/207 206/206/206 205/205/205
f 205/205/205 208/208/208 207/207/207
f 211/211/211 210/210/210 209/209/209
f 209/209/209 212/212/212 211/211/211
f 215/215/215 214/214/214 213/213/213
f 213/213/213 216/216/216 215/215/215
f 219/219/219 218/218/218 217/217/217
f 217/217/217 220/220/220 219/219/219
f 223/223/223 222/222/222 221/221/221
f 221/221/221 224/224/224 223/223/223
f 227/227/227 226/226/226 225/225/225
f 225/225/225 228/228/228 227/227/227
f 231/231/231 230/230/230 229/229/229
f 229/229/229 232/232/232 231/231/231
f 235/235/235 234/234/234 233/233/233
f 233/233/233 236/236/236 235/235/235
f 239/239/239 238/238/238 237/237/237
f 237/237/237 240/240/240 239/239/239
f 243/243/243 242/242/242 241/241/241
f 241/241/241 244/244/244 243/243/243
f 247/247/247 246/246/246 245/245/245
f 245/245/245 248/248/248 247/247/247
f 251/251/251 250/250/250 249/249/249
f 249/249/249 252/252/252 251/251/251
f 255/255/255 254/254/254 253/253/253
f 253/253/253 256/256/256 255/255/255
f 259/259/259 258/258/258 257/257/257
f 257/257/257 260/260/260 259/259/259
f 263/263/263 262/262/262 261/261/261
f 261/261/261 264/264/264 263/263/263
f 267/267/267 266/266/266 265/265/265
f 265/265/265 268/268/268 267/267/267
f 271/271/271 270/270/270 269/269/269
f 269/269/269 272/272/272 271/271/271
f 275/275/275 274/274/274 273/273/273
f 273/273/273 276/276/276 275/275/275
f 279/279/279 278/278/278 277/277/277
f 277/277/277 280/280/280 279/279/279
f 283/283/283 282/282/282 281/281/281
f 281/281/281 284/284/284 283/283/283
f 287/287/287 286/286/286 285/285/285
f 285/285/285 288/288/288 287/287/287
f 291/291/291 290/290/290 289/289/289
f 289/289/289 292/292/292 291/291/291
f 295/295/295 294/294/294 293/293/293
f 293/293/293 296/296/296 295/295/295
f 299/299/299 298/298/298 297/297/297
f 297/297/297 300/300/300 299/299/299
f 303/303/303 302/302/302 301/301/301
f 301/301/301 304/304/304 303/303/303
f 307/307/307 306/306/306 305/305/305
f 305/305/305 308/308/308 307/307/307
f 311/311/311 310/310/310 309/309/309
f 309/309/309 312/312/312 311/311/311
f 315/315/315 314/314/314 313/313/313
f 313/313/313 316/316/316 315/315/315
f 319/319/319 318/318/318 317/317/317
f 317/317/317 320/320/320 319/319/319
f 323/323/323 322/322/322 321/321/321
f 321/321/321 324/324/324 323/323/323
f 327/327/327 326/326/326 325/325/325
f 325/325/325 328/328/328 327/327/327
f 331/331/331 330/330/330 329/329/329
f 329/329/329 332/332/332 331/331/331
f 335/335/335 334/334/334 333/333/333
f 333/333/333 336/336/336 335/335/335
f 339/339/339 338/338/338 337/337/337
f 337/337/337 340/340/340 339/339/339
f 343/343/343 342/342/342 341/341/341
f 341/341/341 344/344/344 343/343/343
f 347/347/347 346/346/346 345/345/345
f 345/345/345 348/348/348 347/347/347
f 351/351/351 350/350/350 349/349/349
f 349/349/349 352/352/352 351/351/351
