g i14_2_rw-mesh
v -896 0 0
v -896 537 0
v -1792 537 0
v -1792 0 0
v -0 0 0
v -0 537 0
v -896 537 0
v -896 0 0
v -1344 537 0
v -1344 889 0
v -1728 889 0
v -1728 537 0
v -1344 889 0
v -1344 1241 0
v -1728 1241 0
v -1728 889 0
v -896 537 0
v -896 825 0
v -1344 825 0
v -1344 537 0
v -1728 665 0
v -1728 825 0
v -1984 825 0
v -1984 665 0
v -1216 857 0
v -1216 1049 0
v -1344 1049 0
v -1344 857 0
v -1120 825 0
v -1120 953 0
v -1216 953 0
v -1216 825 0
v -1760 953 0
v -1760 1049 0
v -1888 1049 0
v -1888 953 0
v -512 537 0
v -512 601 0
v -704 601 0
v -704 537 0
v -704 537 0
v -704 601 0
v -896 601 0
v -896 537 0
v -1408 1241 0
v -1408 1305 0
v -1568 1305 0
v -1568 1241 0
v -1792 153 0
v -1792 313 0
v -1856 313 0
v -1856 153 0
v -1792 0 0
v -1792 153 0
v -1856 153 0
v -1856 0 0
v -1568 1241 0
v -1568 1305 0
v -1696 1305 0
v -1696 1241 0
v -1504 1305 0
v -1504 1369 0
v -1600 1369 0
v -1600 1305 0
v -1984 697 0
v -1984 793 0
v -2047 793 0
v -2047 697 0
v -736 601 0
v -736 665 0
v -832 665 0
v -832 601 0
v -1280 1049 0
v -1280 1113 0
v -1344 1113 0
v -1344 1049 0
v -832 601 0
v -832 665 0
v -896 665 0
v -896 601 0
v -64 537 0
v -64 569 0
v -192 569 0
v -192 537 0
v -1760 825 0
v -1760 889 0
v -1824 889 0
v -1824 825 0
v -1728 1113 0
v -1728 1209 0
v -1760 1209 0
v -1760 1113 0
v -1856 57 0
v -1856 153 0
v -1888 153 0
v -1888 57 0
v -416 537 0
v -416 569 0
v -512 569 0
v -512 537 0
v -1728 921 0
v -1728 1017 0
v -1760 1017 0
v -1760 921 0
v -192 537 0
v -192 569 0
v -288 569 0
v -288 537 0
v -1728 825 0
v -1728 921 0
v -1760 921 0
v -1760 825 0
v -320 537 0
v -320 569 0
v -416 569 0
v -416 537 0
v -1760 1081 0
v -1760 1145 0
v -1792 1145 0
v -1792 1081 0
v -1888 985 0
v -1888 1049 0
v -1920 1049 0
v -1920 985 0
v -128 569 0
v -128 601 0
v -192 601 0
v -192 569 0
v -1440 1305 0
v -1440 1337 0
v -1504 1337 0
v -1504 1305 0
v -1152 953 0
v -1152 985 0
v -1216 985 0
v -1216 953 0
v -800 665 0
v -800 697 0
v -864 697 0
v -864 665 0
v -672 601 0
v -672 633 0
v -736 633 0
v -736 601 0
v -1280 825 0
v -1280 857 0
v -1344 857 0
v -1344 825 0
v -1824 825 0
v -1824 857 0
v -1888 857 0
v -1888 825 0
v -1728 601 0
v -1728 665 0
v -1760 665 0
v -1760 601 0
v -1728 537 0
v -1728 601 0
v -1760 601 0
v -1760 537 0
v -864 665 0
v -864 729 0
v -896 729 0
v -896 665 0
v -1728 1049 0
v -1728 1113 0
v -1760 1113 0
v -1760 1049 0
v -864 729 0
v -864 793 0
v -896 793 0
v -896 729 0
v -1856 0 0
v -1856 57 0
v -1888 57 0
v -1888 0 0
v -1024 825 0
v -1024 857 0
v -1088 857 0
v -1088 825 0
v -1824 1049 0
v -1824 1081 0
v -1888 1081 0
v -1888 1049 0
v -1760 889 0
v -1760 921 0
v -1792 921 0
v -1792 889 0
v -1216 825 0
v -1216 857 0
v -1248 857 0
v -1248 825 0
v -1248 1049 0
v -1248 1081 0
v -1280 1081 0
v -1280 1049 0
v -1792 313 0
v -1792 345 0
v -1824 345 0
v -1824 313 0
v -1888 0 0
v -1888 25 0
v -1920 25 0
v -1920 0 0
v -1760 537 0
v -1760 569 0
v -1792 569 0
v -1792 537 0
v -1088 825 0
v -1088 857 0
v -1120 857 0
v -1120 825 0
v -1888 1049 0
v -1888 1081 0
v -1920 1081 0
v -1920 1049 0
v -192 569 0
v -192 601 0
v -224 601 0
v -224 569 0
v -1824 1209 0
v -1824 1241 0
v -1856 1241 0
v -1856 1209 0
v -1696 1241 0
v -1696 1273 0
v -1728 1273 0
v -1728 1241 0
v -1376 1241 0
v -1376 1273 0
v -1408 1273 0
v -1408 1241 0
vt 0.00048828125 0.00111854076
vt 0.00048828125 0.602908254
vt 0.437988281 0.602908254
vt 0.437988281 0.00111854076
vt 0.438964844 0.00111854076
vt 0.438964844 0.602908254
vt 0.876464844 0.602908254
vt 0.876464844 0.00111854076
vt 0.00048828125 0.605145454
vt 0.00048828125 0.998881459
vt 0.187988281 0.998881459
vt 0.187988281 0.605145454
vt 0.188964844 0.605145454
vt 0.188964844 0.998881459
vt 0.376464844 0.998881459
vt 0.376464844 0.605145454
vt 0.377441406 0.605145454
vt 0.377441406 0.927293062
vt 0.596191406 0.927293062
vt 0.596191406 0.605145454
vt 0.597167969 0.605145454
vt 0.597167969 0.784116328
vt 0.722167969 0.784116328
vt 0.722167969 0.605145454
vt 0.877441406 0.00111854076
vt 0.877441406 0.215883672
vt 0.939941406 0.215883672
vt 0.939941406 0.00111854076
vt 0.940917969 0.00111854076
vt 0.940917969 0.144295275
vt 0.987792969 0.144295275
vt 0.987792969 0.00111854076
vt 0.877441406 0.218120813
vt 0.877441406 0.325503349
vt 0.939941406 0.325503349
vt 0.939941406 0.218120813
vt 0.877441406 0.32774049
vt 0.877441406 0.399328887
vt 0.971191406 0.399328887
vt 0.971191406 0.32774049
vt 0.877441406 0.401565969
vt 0.877441406 0.473154366
vt 0.971191406 0.473154366
vt 0.971191406 0.401565969
vt 0.877441406 0.475391507
vt 0.877441406 0.546979904
vt 0.955566406 0.546979904
vt 0.955566406 0.475391507
vt 0.956542969 0.475391507
vt 0.956542969 0.65436244
vt 0.987792969 0.65436244
vt 0.987792969 0.475391507
vt 0.877441406 0.549216986
vt 0.877441406 0.721476495
vt 0.908691406 0.721476495
vt 0.908691406 0.549216986
vt 0.723144531 0.605145454
vt 0.723144531 0.676733792
vt 0.785644531 0.676733792
vt 0.785644531 0.605145454
vt 0.786621094 0.605145454
vt 0.786621094 0.676733792
vt 0.833496094 0.676733792
vt 0.833496094 0.605145454
vt 0.909667969 0.549216986
vt 0.909667969 0.656599522
vt 0.940917969 0.656599522
vt 0.940917969 0.549216986
vt 0.909667969 0.658836722
vt 0.909667969 0.73042506
vt 0.956542969 0.73042506
vt 0.956542969 0.658836722
vt 0.834472656 0.605145454
vt 0.834472656 0.676733792
vt 0.865722656 0.676733792
vt 0.865722656 0.605145454
vt 0.957519531 0.656599522
vt 0.957519531 0.728187919
vt 0.988769531 0.728187919
vt 0.988769531 0.656599522
vt 0.723144531 0.678970933
vt 0.723144531 0.714765072
vt 0.785644531 0.714765072
vt 0.785644531 0.678970933
vt 0.786621094 0.678970933
vt 0.786621094 0.75055927
vt 0.817871094 0.75055927
vt 0.817871094 0.678970933
vt 0.818847656 0.678970933
vt 0.818847656 0.786353469
vt 0.834472656 0.786353469
vt 0.834472656 0.678970933
vt 0.835449219 0.678970933
vt 0.835449219 0.786353469
vt 0.851074219 0.786353469
vt 0.851074219 0.678970933
vt 0.723144531 0.717002273
vt 0.723144531 0.752796412
vt 0.770019531 0.752796412
vt 0.770019531 0.717002273
vt 0.852050781 0.678970933
vt 0.852050781 0.786353469
vt 0.867675781 0.786353469
vt 0.867675781 0.678970933
vt 0.909667969 0.732662201
vt 0.909667969 0.76845634
vt 0.956542969 0.76845634
vt 0.956542969 0.732662201
vt 0.877441406 0.723713636
vt 0.877441406 0.831096172
vt 0.893066406 0.831096172
vt 0.893066406 0.723713636
vt 0.723144531 0.755033553
vt 0.723144531 0.790827751
vt 0.770019531 0.790827751
vt 0.770019531 0.755033553
vt 0.957519531 0.73042506
vt 0.957519531 0.802013397
vt 0.973144531 0.802013397
vt 0.973144531 0.73042506
vt 0.974121094 0.73042506
vt 0.974121094 0.802013397
vt 0.989746094 0.802013397
vt 0.989746094 0.73042506
vt 0.786621094 0.752796412
vt 0.786621094 0.78859061
vt 0.817871094 0.78859061
vt 0.817871094 0.752796412
vt 0.909667969 0.770693541
vt 0.909667969 0.806487679
vt 0.940917969 0.806487679
vt 0.940917969 0.770693541
vt 0.597167969 0.786353469
vt 0.597167969 0.822147667
vt 0.628417969 0.822147667
vt 0.628417969 0.786353469
vt 0.629394531 0.786353469
vt 0.629394531 0.822147667
vt 0.660644531 0.822147667
vt 0.660644531 0.786353469
vt 0.661621094 0.786353469
vt 0.661621094 0.822147667
vt 0.692871094 0.822147667
vt 0.692871094 0.786353469
vt 0.818847656 0.78859061
vt 0.818847656 0.824384809
vt 0.850097656 0.824384809
vt 0.850097656 0.78859061
vt 0.786621094 0.790827751
vt 0.786621094 0.82662189
vt 0.817871094 0.82662189
vt 0.817871094 0.790827751
vt 0.693847656 0.786353469
vt 0.693847656 0.857941866
vt 0.709472656 0.857941866
vt 0.709472656 0.786353469
vt 0.851074219 0.78859061
vt 0.851074219 0.860178947
vt 0.866699219 0.860178947
vt 0.866699219 0.78859061
vt 0.723144531 0.793064892
vt 0.723144531 0.86465323
vt 0.738769531 0.86465323
vt 0.738769531 0.793064892
vt 0.739746094 0.793064892
vt 0.739746094 0.86465323
vt 0.755371094 0.86465323
vt 0.755371094 0.793064892
vt 0.756347656 0.793064892
vt 0.756347656 0.86465323
vt 0.771972656 0.86465323
vt 0.771972656 0.793064892
vt 0.957519531 0.804250538
vt 0.957519531 0.869127512
vt 0.973144531 0.869127512
vt 0.973144531 0.804250538
vt 0.909667969 0.808724821
vt 0.909667969 0.844519019
vt 0.940917969 0.844519019
vt 0.940917969 0.808724821
vt 0.597167969 0.824384809
vt 0.597167969 0.860178947
vt 0.628417969 0.860178947
vt 0.628417969 0.824384809
vt 0.974121094 0.804250538
vt 0.974121094 0.840044737
vt 0.989746094 0.840044737
vt 0.989746094 0.804250538
vt 0.629394531 0.824384809
vt 0.629394531 0.860178947
vt 0.645019531 0.860178947
vt 0.645019531 0.824384809
vt 0.645996094 0.824384809
vt 0.645996094 0.860178947
vt 0.661621094 0.860178947
vt 0.661621094 0.824384809
vt 0.662597656 0.824384809
vt 0.662597656 0.860178947
vt 0.678222656 0.860178947
vt 0.678222656 0.824384809
vt 0.818847656 0.82662189
vt 0.818847656 0.855704665
vt 0.834472656 0.855704665
vt 0.834472656 0.82662189
vt 0.786621094 0.828859091
vt 0.786621094 0.86465323
vt 0.802246094 0.86465323
vt 0.802246094 0.828859091
vt 0.877441406 0.833333313
vt 0.877441406 0.869127512
vt 0.893066406 0.869127512
vt 0.893066406 0.833333313
vt 0.974121094 0.842281878
vt 0.974121094 0.878076077
vt 0.989746094 0.878076077
vt 0.989746094 0.842281878
vt 0.909667969 0.84675616
vt 0.909667969 0.882550359
vt 0.925292969 0.882550359
vt 0.925292969 0.84675616
vt 0.926269531 0.84675616
vt 0.926269531 0.882550359
vt 0.941894531 0.882550359
vt 0.941894531 0.84675616
vt 0.818847656 0.857941866
vt 0.818847656 0.893736005
vt 0.834472656 0.893736005
vt 0.834472656 0.857941866
vt 0.693847656 0.860178947
vt 0.693847656 0.895973146
vt 0.709472656 0.895973146
vt 0.709472656 0.860178947
g i14_2_rw-mesh_0
f 3/3/3 2/2/2 1/1/1
f 1/1/1 4/4/4 3/3/3
f 7/7/7 6/6/6 5/5/5
f 5/5/5 8/8/8 7/7/7
f 11/11/11 10/10/10 9/9/9
f 9/9/9 12/12/12 11/11/11
f 15/15/15 14/14/14 13/13/13
f 13/13/13 16/16/16 15/15/15
f 19/19/19 18/18/18 17/17/17
f 17/17/17 20/20/20 19/19/19
f 23/23/23 22/22/22 21/21/21
f 21/21/21 24/24/24 23/23/23
f 27/27/27 26/26/26 25/25/25
f 25/25/25 28/28/28 27/27/27
f 31/31/31 30/30/30 29/29/29
f 29/29/29 32/32/32 31/31/31
f 35/35/35 34/34/34 33/33/33
f 33/33/33 36/36/36 35/35/35
f 39/39/39 38/38/38 37/37/37
f 37/37/37 40/40/40 39/39/39
f 43/43/43 42/42/42 41/41/41
f 41/41/41 44/44/44 43/43/43
f 47/47/47 46/46/46 45/45/45
f 45/45/45 48/48/48 47/47/47
f 51/51/51 50/50/50 49/49/49
f 49/49/49 52/52/52 51/51/51
f 55/55/55 54/54/54 53/53/53
f 53/53/53 56/56/56 55/55/55
f 59/59/59 58/58/58 57/57/57
f 57/57/57 60/60/60 59/59/59
f 63/63/63 62/62/62 61/61/61
f 61/61/61 64/64/64 63/63/63
f 67/67/67 66/66/66 65/65/65
f 65/65/65 68/68/68 67/67/67
f 71/71/71 70/70/70 69/69/69
f 69/69/69 72/72/72 71/71/71
f 75/75/75 74/74/74 73/73/73
f 73/73/73 76/76/76 75/75/75
f 79/79/79 78/78/78 77/77/77
f 77/77/77 80/80/80 79/79/79
f 83/83/83 82/82/82 81/81/81
f 81/81/81 84/84/84 83/83/83
f 87/87/87 86/86/86 85/85/85
f 85/85/85 88/88/88 87/87/87
f 91/91/91 90/90/90 89/89/89
f 89/89/89 92/92/92 91/91/91
f 95/95/95 94/94/94 93/93/93
f 93/93/93 96/96/96 95/95/95
f 99/99/99 98/98/98 97/97/97
f 97/97/97 100/100/100 99/99/99
f 103/103/103 102/102/102 101/101/101
f 101/101/101 104/104/104 103/103/103
f 107/107/107 106/106/106 105/105/105
f 105/105/105 108/108/108 107/107/107
f 111/111/111 110/110/110 109/109/109
f 109/109/109 112/112/112 111/111/111
f 115/115/115 114/114/114 113/113/113
f 113/113/113 116/116/116 115/115/115
f 119/119/119 118/118/118 117/117/117
f 117/117/117 120/120/120 119/119/119
f 123/123/123 122/122/122 121/121/121
f 121/121/121 124/124/124 123/123/123
f 127/127/127 126/126/126 125/125/125
f 125/125/125 128/128/128 127/127/127
f 131/131/131 130/130/130 129/129/129
f 129/129/129 132/132/132 131/131/131
f 135/135/135 134/134/134 133/133/133
f 133/133/133 136/136/136 135/135/135
f 139/139/139 138/138/138 137/137/137
f 137/137/137 140/140/140 139/139/139
f 143/143/143 142/142/142 141/141/141
f 141/141/141 144/144/144 143/143/143
f 147/147/147 146/146/146 145/145/145
f 145/145/145 148/148/148 147/147/147
f 151/151/151 150/150/150 149/149/149
f 149/149/149 152/152/152 151/151/151
f 155/155/155 154/154/154 153/153/153
f 153/153/153 156/156/156 155/155/155
f 159/159/159 158/158/158 157/157/157
f 157/157/157 160/160/160 159/159/159
f 163/163/163 162/162/162 161/161/161
f 161/161/161 164/164/164 163/163/163
f 167/167/167 166/166/166 165/165/165
f 165/165/165 168/168/168 167/167/167
f 171/171/171 170/170/170 169/169/169
f 169/169/169 172/172/172 171/171/171
f 175/175/175 174/174/174 173/173/173
f 173/173/173 176/176/176 175/175/175
f 179/179/179 178/178/178 177/177/177
f 177/177/177 180/180/180 179/179/179
f 183/183/183 182/182/182 181/181/181
f 181/181/181 184/184/184 183/183/183
f 187/187/187 186/186/186 185/185/185
f 185/185/185 188/188/188 187/187/187
f 191/191/191 190/190/190 189/189/189
f 189/189/189 192/192/192 191/191/191
f 195/195/195 194/194/194 193/193/193
f 193/193/193 196/196/196 195/195/195
f 199/199/199 198/198/198 197/197/197
f 197/197/197 200/200/200 199/199/199
f 203/203/203 202/202/202 201/201/201
f 201/201/201 204/204/204 203/203/203
f 207/207/207 206/206/206 205/205/205
f 205/205/205 208/208/208 207/207/207
f 211/211/211 210/210/210 209/209/209
f 209/209/209 212/212/212 211/211/211
f 215/215/215 214/214/214 213/213/213
f 213/213/213 216/216/216 215/215/215
f 219/219/219 218/218/218 217/217/217
f 217/217/217 220/220/220 219/219/219
f 223/223/223 222/222/222 221/221/221
f 221/221/221 224/224/224 223/223/223
f 227/227/227 226/226/226 225/225/225
f 225/225/225 228/228/228 227/227/227
f 231/231/231 230/230/230 229/229/229
f 229/229/229 232/232/232 231/231/231
