g alabama_2-mesh
v -256 127 0
v -256 1663 0
v -1792 1663 0
v -1792 127 0
v -576 1663 0
v -576 1919 0
v -1120 1919 0
v -1120 1663 0
v -1120 1663 0
v -1120 1919 0
v -1632 1919 0
v -1632 1663 0
v -64 703 0
v -64 1215 0
v -256 1215 0
v -256 703 0
v -64 223 0
v -64 703 0
v -256 703 0
v -256 223 0
v -1792 799 0
v -1792 1311 0
v -1952 1311 0
v -1952 799 0
v -1792 319 0
v -1792 799 0
v -1952 799 0
v -1952 319 0
v -544 0 0
v -544 127 0
v -1024 127 0
v -1024 0 0
v -1024 0 0
v -1024 127 0
v -1472 127 0
v -1472 0 0
v -416 1663 0
v -416 1823 0
v -576 1823 0
v -576 1663 0
v -1952 319 0
v -1952 575 0
v -2016 575 0
v -2016 319 0
v -1952 575 0
v -1952 831 0
v -2016 831 0
v -2016 575 0
v -1632 1663 0
v -1632 1823 0
v -1728 1823 0
v -1728 1663 0
v -160 1343 0
v -160 1503 0
v -256 1503 0
v -256 1343 0
v -1472 31 0
v -1472 127 0
v -1600 127 0
v -1600 31 0
v -128 127 0
v -128 223 0
v -256 223 0
v -256 127 0
v -160 1215 0
v -160 1343 0
v -256 1343 0
v -256 1215 0
v -32 575 0
v -32 959 0
v -64 959 0
v -64 575 0
v -32 223 0
v -32 575 0
v -64 575 0
v -64 223 0
v -256 63 0
v -256 127 0
v -416 127 0
v -416 63 0
v -416 63 0
v -416 127 0
v -544 127 0
v -544 63 0
v -352 1663 0
v -352 1759 0
v -416 1759 0
v -416 1663 0
v -1600 63 0
v -1600 127 0
v -1696 127 0
v -1696 63 0
v -1248 1919 0
v -1248 1983 0
v -1344 1983 0
v -1344 1919 0
v -1792 1311 0
v -1792 1407 0
v -1856 1407 0
v -1856 1311 0
v -1792 1407 0
v -1792 1503 0
v -1856 1503 0
v -1856 1407 0
v -1952 959 0
v -1952 1119 0
v -1984 1119 0
v -1984 959 0
v -1632 1823 0
v -1632 1887 0
v -1696 1887 0
v -1696 1823 0
v -512 1823 0
v -512 1887 0
v -576 1887 0
v -576 1823 0
v -2016 415 0
v -2016 543 0
v -2047 543 0
v -2047 415 0
v -1952 831 0
v -1952 959 0
v -1984 959 0
v -1984 831 0
v -1344 1919 0
v -1344 1983 0
v -1408 1983 0
v -1408 1919 0
v -864 1919 0
v -864 1951 0
v -992 1951 0
v -992 1919 0
v -736 1919 0
v -736 1951 0
v -864 1951 0
v -864 1919 0
v -1792 223 0
v -1792 319 0
v -1824 319 0
v -1824 223 0
v -384 31 0
v -384 63 0
v -480 63 0
v -480 31 0
v -2016 319 0
v -2016 415 0
v -2047 415 0
v -2047 319 0
v -128 1311 0
v -128 1407 0
v -160 1407 0
v -160 1311 0
v -128 1215 0
v -128 1311 0
v -160 1311 0
v -160 1215 0
v -0 319 0
v -0 415 0
v -32 415 0
v -32 319 0
v -1728 1663 0
v -1728 1727 0
v -1760 1727 0
v -1760 1663 0
v -320 1663 0
v -320 1727 0
v -352 1727 0
v -352 1663 0
v -448 1823 0
v -448 1855 0
v -512 1855 0
v -512 1823 0
v -768 1951 0
v -768 1983 0
v -832 1983 0
v -832 1951 0
v -896 1951 0
v -896 1983 0
v -960 1983 0
v -960 1951 0
v -1184 1919 0
v -1184 1951 0
v -1248 1951 0
v -1248 1919 0
v -96 1215 0
v -96 1279 0
v -128 1279 0
v -128 1215 0
v -1856 255 0
v -1856 319 0
v -1888 319 0
v -1888 255 0
v -1696 95 0
v -1696 127 0
v -1760 127 0
v -1760 95 0
v -192 1503 0
v -192 1567 0
v -224 1567 0
v -224 1503 0
v -1792 1503 0
v -1792 1567 0
v -1824 1567 0
v -1824 1503 0
v -1888 1311 0
v -1888 1375 0
v -1920 1375 0
v -1920 1311 0
v -224 1567 0
v -224 1631 0
v -256 1631 0
v -256 1567 0
v -224 1503 0
v -224 1567 0
v -256 1567 0
v -256 1503 0
v -1856 1311 0
v -1856 1375 0
v -1888 1375 0
v -1888 1311 0
v -0 255 0
v -0 319 0
v -32 319 0
v -32 255 0
v -1792 159 0
v -1792 223 0
v -1824 223 0
v -1824 159 0
v -480 31 0
v -480 63 0
v -544 63 0
v -544 31 0
v -1408 1919 0
v -1408 1951 0
v -1472 1951 0
v -1472 1919 0
v -160 95 0
v -160 127 0
v -224 127 0
v -224 95 0
v -1856 1375 0
v -1856 1439 0
v -1888 1439 0
v -1888 1375 0
v -1824 255 0
v -1824 319 0
v -1856 319 0
v -1856 255 0
v -1824 191 0
v -1824 255 0
v -1856 255 0
v -1856 191 0
v -1888 287 0
v -1888 319 0
v -1920 319 0
v -1920 287 0
v -288 1663 0
v -288 1695 0
v -320 1695 0
v -320 1663 0
v -384 1759 0
v -384 1791 0
v -416 1791 0
v -416 1759 0
v -1472 1919 0
v -1472 1951 0
v -1504 1951 0
v -1504 1919 0
v -224 95 0
v -224 127 0
v -256 127 0
v -256 95 0
vt 0.00048828125 0.000554323196
vt 0.00048828125 0.851995587
vt 0.750488281 0.851995587
vt 0.750488281 0.000554323196
vt 0.00048828125 0.853104234
vt 0.00048828125 0.995011091
vt 0.266113281 0.995011091
vt 0.266113281 0.853104234
vt 0.267089844 0.853104234
vt 0.267089844 0.995011091
vt 0.517089844 0.995011091
vt 0.517089844 0.853104234
vt 0.751464844 0.000554323196
vt 0.751464844 0.284368098
vt 0.845214844 0.284368098
vt 0.845214844 0.000554323196
vt 0.846191406 0.000554323196
vt 0.846191406 0.266629696
vt 0.939941406 0.266629696
vt 0.939941406 0.000554323196
vt 0.846191406 0.267738342
vt 0.846191406 0.551552117
vt 0.924316406 0.551552117
vt 0.924316406 0.267738342
vt 0.751464844 0.285476744
vt 0.751464844 0.551552117
vt 0.829589844 0.551552117
vt 0.829589844 0.285476744
vt 0.751464844 0.552660763
vt 0.751464844 0.623614192
vt 0.985839844 0.623614192
vt 0.985839844 0.552660763
vt 0.751464844 0.624722838
vt 0.751464844 0.695676267
vt 0.970214844 0.695676267
vt 0.970214844 0.624722838
vt 0.751464844 0.696784914
vt 0.751464844 0.785476685
vt 0.829589844 0.785476685
vt 0.829589844 0.696784914
vt 0.830566406 0.696784914
vt 0.830566406 0.838691831
vt 0.861816406 0.838691831
vt 0.861816406 0.696784914
vt 0.862792969 0.696784914
vt 0.862792969 0.838691831
vt 0.894042969 0.838691831
vt 0.894042969 0.696784914
vt 0.895019531 0.696784914
vt 0.895019531 0.785476685
vt 0.941894531 0.785476685
vt 0.941894531 0.696784914
vt 0.942871094 0.696784914
vt 0.942871094 0.785476685
vt 0.989746094 0.785476685
vt 0.989746094 0.696784914
vt 0.751464844 0.786585331
vt 0.751464844 0.839800477
vt 0.813964844 0.839800477
vt 0.813964844 0.786585331
vt 0.895019531 0.786585331
vt 0.895019531 0.839800477
vt 0.957519531 0.839800477
vt 0.957519531 0.786585331
vt 0.830566406 0.839800477
vt 0.830566406 0.910753906
vt 0.877441406 0.910753906
vt 0.877441406 0.839800477
vt 0.958496094 0.786585331
vt 0.958496094 0.999445677
vt 0.974121094 0.999445677
vt 0.974121094 0.786585331
vt 0.975097656 0.786585331
vt 0.975097656 0.981707335
vt 0.990722656 0.981707335
vt 0.990722656 0.786585331
vt 0.751464844 0.840909123
vt 0.751464844 0.876385808
vt 0.829589844 0.876385808
vt 0.829589844 0.840909123
vt 0.895019531 0.840909123
vt 0.895019531 0.876385808
vt 0.957519531 0.876385808
vt 0.957519531 0.840909123
vt 0.518066406 0.853104234
vt 0.518066406 0.906319261
vt 0.549316406 0.906319261
vt 0.549316406 0.853104234
vt 0.550292969 0.853104234
vt 0.550292969 0.888580918
vt 0.597167969 0.888580918
vt 0.597167969 0.853104234
vt 0.598144531 0.853104234
vt 0.598144531 0.888580918
vt 0.645019531 0.888580918
vt 0.645019531 0.853104234
vt 0.645996094 0.853104234
vt 0.645996094 0.906319261
vt 0.677246094 0.906319261
vt 0.677246094 0.853104234
vt 0.678222656 0.853104234
vt 0.678222656 0.906319261
vt 0.709472656 0.906319261
vt 0.709472656 0.853104234
vt 0.878417969 0.839800477
vt 0.878417969 0.928492248
vt 0.894042969 0.928492248
vt 0.894042969 0.839800477
vt 0.710449219 0.853104234
vt 0.710449219 0.888580918
vt 0.741699219 0.888580918
vt 0.741699219 0.853104234
vt 0.751464844 0.877494454
vt 0.751464844 0.912971199
vt 0.782714844 0.912971199
vt 0.782714844 0.877494454
vt 0.783691406 0.877494454
vt 0.783691406 0.948447883
vt 0.799316406 0.948447883
vt 0.799316406 0.877494454
vt 0.800292969 0.877494454
vt 0.800292969 0.948447883
vt 0.815917969 0.948447883
vt 0.815917969 0.877494454
vt 0.895019531 0.877494454
vt 0.895019531 0.912971199
vt 0.926269531 0.912971199
vt 0.926269531 0.877494454
vt 0.550292969 0.889689565
vt 0.550292969 0.907427907
vt 0.612792969 0.907427907
vt 0.612792969 0.889689565
vt 0.645996094 0.907427907
vt 0.645996094 0.925166309
vt 0.708496094 0.925166309
vt 0.708496094 0.907427907
vt 0.927246094 0.877494454
vt 0.927246094 0.930709541
vt 0.942871094 0.930709541
vt 0.942871094 0.877494454
vt 0.550292969 0.908536553
vt 0.550292969 0.926274955
vt 0.597167969 0.926274955
vt 0.597167969 0.908536553
vt 0.613769531 0.889689565
vt 0.613769531 0.942904651
vt 0.629394531 0.942904651
vt 0.629394531 0.889689565
vt 0.710449219 0.889689565
vt 0.710449219 0.942904651
vt 0.726074219 0.942904651
vt 0.726074219 0.889689565
vt 0.727050781 0.889689565
vt 0.727050781 0.942904651
vt 0.742675781 0.942904651
vt 0.742675781 0.889689565
vt 0.518066406 0.907427907
vt 0.518066406 0.960642993
vt 0.533691406 0.960642993
vt 0.533691406 0.907427907
vt 0.830566406 0.911862552
vt 0.830566406 0.947339237
vt 0.846191406 0.947339237
vt 0.846191406 0.911862552
vt 0.847167969 0.911862552
vt 0.847167969 0.947339237
vt 0.862792969 0.947339237
vt 0.862792969 0.911862552
vt 0.751464844 0.914079845
vt 0.751464844 0.931818187
vt 0.782714844 0.931818187
vt 0.782714844 0.914079845
vt 0.895019531 0.914079845
vt 0.895019531 0.931818187
vt 0.926269531 0.931818187
vt 0.926269531 0.914079845
vt 0.645996094 0.926274955
vt 0.645996094 0.944013298
vt 0.677246094 0.944013298
vt 0.677246094 0.926274955
vt 0.678222656 0.926274955
vt 0.678222656 0.944013298
vt 0.709472656 0.944013298
vt 0.709472656 0.926274955
vt 0.550292969 0.927383602
vt 0.550292969 0.962860286
vt 0.565917969 0.962860286
vt 0.565917969 0.927383602
vt 0.566894531 0.927383602
vt 0.566894531 0.962860286
vt 0.582519531 0.962860286
vt 0.582519531 0.927383602
vt 0.751464844 0.932926834
vt 0.751464844 0.950665176
vt 0.782714844 0.950665176
vt 0.782714844 0.932926834
vt 0.583496094 0.927383602
vt 0.583496094 0.962860286
vt 0.599121094 0.962860286
vt 0.599121094 0.927383602
vt 0.878417969 0.929600894
vt 0.878417969 0.965077579
vt 0.894042969 0.965077579
vt 0.894042969 0.929600894
vt 0.927246094 0.931818187
vt 0.927246094 0.967294931
vt 0.942871094 0.967294931
vt 0.942871094 0.931818187
vt 0.895019531 0.932926834
vt 0.895019531 0.968403578
vt 0.910644531 0.968403578
vt 0.910644531 0.932926834
vt 0.613769531 0.944013298
vt 0.613769531 0.979490042
vt 0.629394531 0.979490042
vt 0.629394531 0.944013298
vt 0.710449219 0.944013298
vt 0.710449219 0.979490042
vt 0.726074219 0.979490042
vt 0.726074219 0.944013298
vt 0.727050781 0.944013298
vt 0.727050781 0.979490042
vt 0.742675781 0.979490042
vt 0.742675781 0.944013298
vt 0.645996094 0.945121944
vt 0.645996094 0.980598688
vt 0.661621094 0.980598688
vt 0.661621094 0.945121944
vt 0.662597656 0.945121944
vt 0.662597656 0.962860286
vt 0.693847656 0.962860286
vt 0.693847656 0.945121944
vt 0.830566406 0.948447883
vt 0.830566406 0.966186225
vt 0.861816406 0.966186225
vt 0.861816406 0.948447883
vt 0.783691406 0.94955653
vt 0.783691406 0.967294931
vt 0.814941406 0.967294931
vt 0.814941406 0.94955653
vt 0.751464844 0.951773822
vt 0.751464844 0.987250566
vt 0.767089844 0.987250566
vt 0.767089844 0.951773822
vt 0.518066406 0.96175164
vt 0.518066406 0.997228384
vt 0.533691406 0.997228384
vt 0.533691406 0.96175164
vt 0.550292969 0.963968933
vt 0.550292969 0.999445677
vt 0.565917969 0.999445677
vt 0.565917969 0.963968933
vt 0.566894531 0.963968933
vt 0.566894531 0.981707335
vt 0.582519531 0.981707335
vt 0.582519531 0.963968933
vt 0.583496094 0.963968933
vt 0.583496094 0.981707335
vt 0.599121094 0.981707335
vt 0.599121094 0.963968933
vt 0.662597656 0.963968933
vt 0.662597656 0.981707335
vt 0.678222656 0.981707335
vt 0.678222656 0.963968933
vt 0.679199219 0.963968933
vt 0.679199219 0.981707335
vt 0.694824219 0.981707335
vt 0.694824219 0.963968933
vt 0.878417969 0.966186225
vt 0.878417969 0.983924627
vt 0.894042969 0.983924627
vt 0.894042969 0.966186225
g alabama_2-mesh_0
f 3/3/3 2/2/2 1/1/1
f 1/1/1 4/4/4 3/3/3
f 7/7/7 6/6/6 5/5/5
f 5/5/5 8/8/8 7/7/7
f 11/11/11 10/10/10 9/9/9
f 9/9/9 12/12/12 11/11/11
f 15/15/15 14/14/14 13/13/13
f 13/13/13 16/16/16 15/15/15
f 19/19/19 18/18/18 17/17/17
f 17/17/17 20/20/20 19/19/19
f 23/23/23 22/22/22 21/21/21
f 21/21/21 24/24/24 23/23/23
f 27/27/27 26/26/26 25/25/25
f 25/25/25 28/28/28 27/27/27
f 31/31/31 30/30/30 29/29/29
f 29/29/29 32/32/32 31/31/31
f 35/35/35 34/34/34 33/33/33
f 33/33/33 36/36/36 35/35/35
f 39/39/39 38/38/38 37/37/37
f 37/37/37 40/40/40 39/39/39
f 43/43/43 42/42/42 41/41/41
f 41/41/41 44/44/44 43/43/43
f 47/47/47 46/46/46 45/45/45
f 45/45/45 48/48/48 47/47/47
f 51/51/51 50/50/50 49/49/49
f 49/49/49 52/52/52 51/51/51
f 55/55/55 54/54/54 53/53/53
f 53/53/53 56/56/56 55/55/55
f 59/59/59 58/58/58 57/57/57
f 57/57/57 60/60/60 59/59/59
f 63/63/63 62/62/62 61/61/61
f 61/61/61 64/64/64 63/63/63
f 67/67/67 66/66/66 65/65/65
f 65/65/65 68/68/68 67/67/67
f 71/71/71 70/70/70 69/69/69
f 69/69/69 72/72/72 71/71/71
f 75/75/75 74/74/74 73/73/73
f 73/73/73 76/76/76 75/75/75
f 79/79/79 78/78/78 77/77/77
f 77/77/77 80/80/80 79/79/79
f 83/83/83 82/82/82 81/81/81
f 81/81/81 84/84/84 83/83/83
f 87/87/87 86/86/86 85/85/85
f 85/85/85 88/88/88 87/87/87
f 91/91/91 90/90/90 89/89/89
f 89/89/89 92/92/92 91/91/91
f 95/95/95 94/94/94 93/93/93
f 93/93/93 96/96/96 95/95/95
f 99/99/99 98/98/98 97/97/97
f 97/97/97 100/100/100 99/99/99
f 103/103/103 102/102/102 101/101/101
f 101/101/101 104/104/104 103/103/103
f 107/107/107 106/106/106 105/105/105
f 105/105/105 108/108/108 107/107/107
f 111/111/111 110/110/110 109/109/109
f 109/109/109 112/112/112 111/111/111
f 115/115/115 114/114/114 113/113/113
f 113/113/113 116/116/116 115/115/115
f 119/119/119 118/118/118 117/117/117
f 117/117/117 120/120/120 119/119/119
f 123/123/123 122/122/122 121/121/121
f 121/121/121 124/124/124 123/123/123
f 127/127/127 126/126/126 125/125/125
f 125/125/125 128/128/128 127/127/127
f 131/131/131 130/130/130 129/129/129
f 129/129/129 132/132/132 131/131/131
f 135/135/135 134/134/134 133/133/133
f 133/133/133 136/136/136 135/135/135
f 139/139/139 138/138/138 137/137/137
f 137/137/137 140/140/140 139/139/139
f 143/143/143 142/142/142 141/141/141
f 141/141/141 144/144/144 143/143/143
f 147/147/147 146/146/146 145/145/145
f 145/145/145 148/148/148 147/147/147
f 151/151/151 150/150/150 149/149/149
f 149/149/149 152/152/152 151/151/151
f 155/155/155 154/154/154 153/153/153
f 153/153/153 156/156/156 155/155/155
f 159/159/159 158/158/158 157/157/157
f 157/157/157 160/160/160 159/159/159
f 163/163/163 162/162/162 161/161/161
f 161/161/161 164/164/164 163/163/163
f 167/167/167 166/166/166 165/165/165
f 165/165/165 168/168/168 167/167/167
f 171/171/171 170/170/170 169/169/169
f 169/169/169 172/172/172 171/171/171
f 175/175/175 174/174/174 173/173/173
f 173/173/173 176/176/176 175/175/175
f 179/179/179 178/178/178 177/177/177
f 177/177/177 180/180/180 179/179/179
f 183/183/183 182/182/182 181/181/181
f 181/181/181 184/184/184 183/183/183
f 187/187/187 186/186/186 185/185/185
f 185/185/185 188/188/188 187/187/187
f 191/191/191 190/190/190 189/189/189
f 189/189/189 192/192/192 191/191/191
f 195/195/195 194/194/194 193/193/193
f 193/193/193 196/196/196 195/195/195
f 199/199/199 198/198/198 197/197/197
f 197/197/197 200/200/200 199/199/199
f 203/203/203 202/202/202 201/201/201
f 201/201/201 204/204/204 203/203/203
f 207/207/207 206/206/206 205/205/205
f 205/205/205 208/208/208 207/207/207
f 211/211/211 210/210/210 209/209/209
f 209/209/209 212/212/212 211/211/211
f 215/215/215 214/214/214 213/213/213
f 213/213/213 216/216/216 215/215/215
f 219/219/219 218/218/218 217/217/217
f 217/217/217 220/220/220 219/219/219
f 223/223/223 222/222/222 221/221/221
f 221/221/221 224/224/224 223/223/223
f 227/227/227 226/226/226 225/225/225
f 225/225/225 228/228/228 227/227/227
f 231/231/231 230/230/230 229/229/229
f 229/229/229 232/232/232 231/231/231
f 235/235/235 234/234/234 233/233/233
f 233/233/233 236/236/236 235/235/235
f 239/239/239 238/238/238 237/237/237
f 237/237/237 240/240/240 239/239/239
f 243/243/243 242/242/242 241/241/241
f 241/241/241 244/244/244 243/243/243
f 247/247/247 246/246/246 245/245/245
f 245/245/245 248/248/248 247/247/247
f 251/251/251 250/250/250 249/249/249
f 249/249/249 252/252/252 251/251/251
f 255/255/255 254/254/254 253/253/253
f 253/253/253 256/256/256 255/255/255
f 259/259/259 258/258/258 257/257/257
f 257/257/257 260/260/260 259/259/259
f 263/263/263 262/262/262 261/261/261
f 261/261/261 264/264/264 263/263/263
f 267/267/267 266/266/266 265/265/265
f 265/265/265 268/268/268 267/267/267
f 271/271/271 270/270/270 269/269/269
f 269/269/269 272/272/272 271/271/271
