g tianying_3-mesh
v -1152 142 0
v -1152 1422 0
v -1920 1422 0
v -1920 142 0
v -384 142 0
v -384 1422 0
v -1152 1422 0
v -1152 142 0
v -1280 1422 0
v -1280 1646 0
v -1760 1646 0
v -1760 1422 0
v -160 750 0
v -160 1134 0
v -384 1134 0
v -384 750 0
v -160 398 0
v -160 750 0
v -384 750 0
v -384 398 0
v -864 46 0
v -864 142 0
v -1248 142 0
v -1248 46 0
v -1248 46 0
v -1248 142 0
v -1600 142 0
v -1600 46 0
v -640 1422 0
v -640 1550 0
v -896 1550 0
v -896 1422 0
v -384 1422 0
v -384 1550 0
v -640 1550 0
v -640 1422 0
v -1920 878 0
v -1920 1166 0
v -2016 1166 0
v -2016 878 0
v -1344 1646 0
v -1344 1806 0
v -1504 1806 0
v -1504 1646 0
v -32 622 0
v -32 814 0
v -160 814 0
v -160 622 0
v -1920 622 0
v -1920 878 0
v -2016 878 0
v -2016 622 0
v -288 174 0
v -288 398 0
v -384 398 0
v -384 174 0
v -224 1134 0
v -224 1262 0
v -384 1262 0
v -384 1134 0
v -1088 1422 0
v -1088 1518 0
v -1280 1518 0
v -1280 1422 0
v -64 430 0
v -64 526 0
v -160 526 0
v -160 430 0
v -192 302 0
v -192 398 0
v -288 398 0
v -288 302 0
v -1920 334 0
v -1920 622 0
v -1952 622 0
v -1952 334 0
v -1920 78 0
v -1920 334 0
v -1952 334 0
v -1952 78 0
v -1920 1166 0
v -1920 1230 0
v -2047 1230 0
v -2047 1166 0
v -1696 78 0
v -1696 142 0
v -1824 142 0
v -1824 78 0
v -1184 1518 0
v -1184 1582 0
v -1280 1582 0
v -1280 1518 0
v -896 1422 0
v -896 1486 0
v -992 1486 0
v -992 1422 0
v -1824 78 0
v -1824 142 0
v -1920 142 0
v -1920 78 0
v -768 78 0
v -768 142 0
v -864 142 0
v -864 78 0
v -672 78 0
v -672 142 0
v -768 142 0
v -768 78 0
v -1440 14 0
v -1440 46 0
v -1600 46 0
v -1600 14 0
v -1280 14 0
v -1280 46 0
v -1440 46 0
v -1440 14 0
v -576 1550 0
v -576 1582 0
v -736 1582 0
v -736 1550 0
v -736 1550 0
v -736 1582 0
v -896 1582 0
v -896 1550 0
v -160 1230 0
v -160 1294 0
v -224 1294 0
v -224 1230 0
v -320 1486 0
v -320 1550 0
v -384 1550 0
v -384 1486 0
v -1248 1742 0
v -1248 1806 0
v -1312 1806 0
v -1312 1742 0
v -2016 814 0
v -2016 942 0
v -2047 942 0
v -2047 814 0
v -0 782 0
v -0 910 0
v -32 910 0
v -32 782 0
v -2016 942 0
v -2016 1070 0
v -2047 1070 0
v -2047 942 0
v -512 110 0
v -512 142 0
v -608 142 0
v -608 110 0
v -1760 1454 0
v -1760 1550 0
v -1792 1550 0
v -1792 1454 0
v -0 686 0
v -0 782 0
v -32 782 0
v -32 686 0
v -1760 1550 0
v -1760 1646 0
v -1792 1646 0
v -1792 1550 0
v -1024 14 0
v -1024 46 0
v -1120 46 0
v -1120 14 0
v -1120 14 0
v -1120 46 0
v -1216 46 0
v -1216 14 0
v -1920 1326 0
v -1920 1390 0
v -1952 1390 0
v -1952 1326 0
v -1792 1550 0
v -1792 1614 0
v -1824 1614 0
v -1824 1550 0
v -1056 1422 0
v -1056 1486 0
v -1088 1486 0
v -1088 1422 0
v -1504 1646 0
v -1504 1678 0
v -1568 1678 0
v -1568 1646 0
v -1600 110 0
v -1600 142 0
v -1664 142 0
v -1664 110 0
v -1504 1742 0
v -1504 1806 0
v -1536 1806 0
v -1536 1742 0
v -1280 1646 0
v -1280 1678 0
v -1344 1678 0
v -1344 1646 0
v -192 1166 0
v -192 1230 0
v -224 1230 0
v -224 1166 0
v -160 302 0
v -160 366 0
v -192 366 0
v -192 302 0
v -224 270 0
v -224 302 0
v -288 302 0
v -288 270 0
v -320 142 0
v -320 174 0
v -384 174 0
v -384 142 0
v -32 430 0
v -32 494 0
v -64 494 0
v -64 430 0
v -96 1006 0
v -96 1070 0
v -128 1070 0
v -128 1006 0
v -32 814 0
v -32 878 0
v -64 878 0
v -64 814 0
v -128 526 0
v -128 590 0
v -160 590 0
v -160 526 0
v -1952 558 0
v -1952 622 0
v -1984 622 0
v -1984 558 0
v -1952 494 0
v -1952 558 0
v -1984 558 0
v -1984 494 0
v -1472 0 0
v -1472 14 0
v -1536 14 0
v -1536 0 0
v -128 1006 0
v -128 1070 0
v -160 1070 0
v -160 1006 0
v -608 110 0
v -608 142 0
v -672 142 0
v -672 110 0
v -1792 1422 0
v -1792 1454 0
v -1856 1454 0
v -1856 1422 0
v -1856 1422 0
v -1856 1454 0
v -1920 1454 0
v -1920 1422 0
v -1536 0 0
v -1536 14 0
v -1600 14 0
v -1600 0 0
v -64 590 0
v -64 622 0
v -128 622 0
v -128 590 0
v -128 1070 0
v -128 1134 0
v -160 1134 0
v -160 1070 0
v -128 846 0
v -128 910 0
v -160 910 0
v -160 846 0
v -864 1646 0
v -864 1710 0
v -896 1710 0
v -896 1646 0
v -256 1262 0
v -256 1294 0
v -288 1294 0
v -288 1262 0
v -1920 1230 0
v -1920 1262 0
v -1952 1262 0
v -1952 1230 0
v -352 1262 0
v -352 1294 0
v -384 1294 0
v -384 1262 0
v -64 814 0
v -64 846 0
v -96 846 0
v -96 814 0
v -1600 78 0
v -1600 110 0
v -1632 110 0
v -1632 78 0
v -1888 46 0
v -1888 78 0
v -1920 78 0
v -1920 46 0
v -96 526 0
v -96 558 0
v -128 558 0
v -128 526 0
v -864 1614 0
v -864 1646 0
v -896 1646 0
v -896 1614 0
v -128 814 0
v -128 846 0
v -160 846 0
v -160 814 0
v -1664 110 0
v -1664 142 0
v -1696 142 0
v -1696 110 0
v -128 590 0
v -128 622 0
v -160 622 0
v -160 590 0
v -1120 1518 0
v -1120 1550 0
v -1152 1550 0
v -1152 1518 0
v -1248 1582 0
v -1248 1614 0
v -1280 1614 0
v -1280 1582 0
v -1312 1774 0
v -1312 1806 0
v -1344 1806 0
v -1344 1774 0
vt 0.00048828125 0.000636160374
vt 0.00048828125 0.814885497
vt 0.375488281 0.814885497
vt 0.375488281 0.000636160374
vt 0.376464844 0.000636160374
vt 0.376464844 0.814885497
vt 0.751464844 0.814885497
vt 0.751464844 0.000636160374
vt 0.752441406 0.000636160374
vt 0.752441406 0.143129766
vt 0.986816406 0.143129766
vt 0.986816406 0.000636160374
vt 0.752441406 0.144402027
vt 0.752441406 0.388676822
vt 0.861816406 0.388676822
vt 0.861816406 0.144402027
vt 0.862792969 0.144402027
vt 0.862792969 0.368320584
vt 0.972167969 0.368320584
vt 0.972167969 0.144402027
vt 0.752441406 0.389949083
vt 0.752441406 0.451017797
vt 0.939941406 0.451017797
vt 0.939941406 0.389949083
vt 0.752441406 0.452290058
vt 0.752441406 0.513358772
vt 0.924316406 0.513358772
vt 0.924316406 0.452290058
vt 0.752441406 0.514631033
vt 0.752441406 0.596055984
vt 0.877441406 0.596055984
vt 0.877441406 0.514631033
vt 0.752441406 0.597328246
vt 0.752441406 0.678753138
vt 0.877441406 0.678753138
vt 0.877441406 0.597328246
vt 0.940917969 0.369592905
vt 0.940917969 0.552798986
vt 0.987792969 0.552798986
vt 0.987792969 0.369592905
vt 0.752441406 0.680025458
vt 0.752441406 0.781806588
vt 0.830566406 0.781806588
vt 0.830566406 0.680025458
vt 0.831542969 0.680025458
vt 0.831542969 0.802162886
vt 0.894042969 0.802162886
vt 0.894042969 0.680025458
vt 0.940917969 0.554071248
vt 0.940917969 0.716921091
vt 0.987792969 0.716921091
vt 0.987792969 0.554071248
vt 0.940917969 0.718193412
vt 0.940917969 0.860687017
vt 0.987792969 0.860687017
vt 0.987792969 0.718193412
vt 0.752441406 0.783078909
vt 0.752441406 0.864503801
vt 0.830566406 0.864503801
vt 0.830566406 0.783078909
vt 0.831542969 0.803435087
vt 0.831542969 0.864503801
vt 0.925292969 0.864503801
vt 0.925292969 0.803435087
vt 0.00048828125 0.816157758
vt 0.00048828125 0.877226472
vt 0.0473632812 0.877226472
vt 0.0473632812 0.816157758
vt 0.0483398438 0.816157758
vt 0.0483398438 0.877226472
vt 0.0952148438 0.877226472
vt 0.0952148438 0.816157758
vt 0.0961914062 0.816157758
vt 0.0961914062 0.99936384
vt 0.111816406 0.99936384
vt 0.111816406 0.816157758
vt 0.112792969 0.816157758
vt 0.112792969 0.979007661
vt 0.128417969 0.979007661
vt 0.128417969 0.816157758
vt 0.129394531 0.816157758
vt 0.129394531 0.856870234
vt 0.191894531 0.856870234
vt 0.191894531 0.816157758
vt 0.192871094 0.816157758
vt 0.192871094 0.856870234
vt 0.255371094 0.856870234
vt 0.255371094 0.816157758
vt 0.256347656 0.816157758
vt 0.256347656 0.856870234
vt 0.303222656 0.856870234
vt 0.303222656 0.816157758
vt 0.304199219 0.816157758
vt 0.304199219 0.856870234
vt 0.351074219 0.856870234
vt 0.351074219 0.816157758
vt 0.352050781 0.816157758
vt 0.352050781 0.856870234
vt 0.398925781 0.856870234
vt 0.398925781 0.816157758
vt 0.399902344 0.816157758
vt 0.399902344 0.856870234
vt 0.446777344 0.856870234
vt 0.446777344 0.816157758
vt 0.447753906 0.816157758
vt 0.447753906 0.856870234
vt 0.494628906 0.856870234
vt 0.494628906 0.816157758
vt 0.495605469 0.816157758
vt 0.495605469 0.836513996
vt 0.573730469 0.836513996
vt 0.573730469 0.816157758
vt 0.574707031 0.816157758
vt 0.574707031 0.836513996
vt 0.652832031 0.836513996
vt 0.652832031 0.816157758
vt 0.653808594 0.816157758
vt 0.653808594 0.836513996
vt 0.731933594 0.836513996
vt 0.731933594 0.816157758
vt 0.495605469 0.837786257
vt 0.495605469 0.858142495
vt 0.573730469 0.858142495
vt 0.573730469 0.837786257
vt 0.574707031 0.837786257
vt 0.574707031 0.878498733
vt 0.605957031 0.878498733
vt 0.605957031 0.837786257
vt 0.606933594 0.837786257
vt 0.606933594 0.878498733
vt 0.638183594 0.878498733
vt 0.638183594 0.837786257
vt 0.639160156 0.837786257
vt 0.639160156 0.878498733
vt 0.670410156 0.878498733
vt 0.670410156 0.837786257
vt 0.732910156 0.816157758
vt 0.732910156 0.89758271
vt 0.748535156 0.89758271
vt 0.748535156 0.816157758
vt 0.671386719 0.837786257
vt 0.671386719 0.919211209
vt 0.687011719 0.919211209
vt 0.687011719 0.837786257
vt 0.687988281 0.837786257
vt 0.687988281 0.919211209
vt 0.703613281 0.919211209
vt 0.703613281 0.837786257
vt 0.129394531 0.858142495
vt 0.129394531 0.878498733
vt 0.176269531 0.878498733
vt 0.176269531 0.858142495
vt 0.704589844 0.837786257
vt 0.704589844 0.898854971
vt 0.720214844 0.898854971
vt 0.720214844 0.837786257
vt 0.177246094 0.858142495
vt 0.177246094 0.919211209
vt 0.192871094 0.919211209
vt 0.192871094 0.858142495
vt 0.193847656 0.858142495
vt 0.193847656 0.919211209
vt 0.209472656 0.919211209
vt 0.209472656 0.858142495
vt 0.210449219 0.858142495
vt 0.210449219 0.878498733
vt 0.257324219 0.878498733
vt 0.257324219 0.858142495
vt 0.258300781 0.858142495
vt 0.258300781 0.878498733
vt 0.305175781 0.878498733
vt 0.305175781 0.858142495
vt 0.306152344 0.858142495
vt 0.306152344 0.898854971
vt 0.321777344 0.898854971
vt 0.321777344 0.858142495
vt 0.322753906 0.858142495
vt 0.322753906 0.898854971
vt 0.338378906 0.898854971
vt 0.338378906 0.858142495
vt 0.339355469 0.858142495
vt 0.339355469 0.898854971
vt 0.354980469 0.898854971
vt 0.354980469 0.858142495
vt 0.355957031 0.858142495
vt 0.355957031 0.878498733
vt 0.387207031 0.878498733
vt 0.387207031 0.858142495
vt 0.388183594 0.858142495
vt 0.388183594 0.878498733
vt 0.419433594 0.878498733
vt 0.419433594 0.858142495
vt 0.420410156 0.858142495
vt 0.420410156 0.898854971
vt 0.436035156 0.898854971
vt 0.436035156 0.858142495
vt 0.437011719 0.858142495
vt 0.437011719 0.878498733
vt 0.468261719 0.878498733
vt 0.468261719 0.858142495
vt 0.469238281 0.858142495
vt 0.469238281 0.898854971
vt 0.484863281 0.898854971
vt 0.484863281 0.858142495
vt 0.495605469 0.859414756
vt 0.495605469 0.900127232
vt 0.511230469 0.900127232
vt 0.511230469 0.859414756
vt 0.512207031 0.859414756
vt 0.512207031 0.879770994
vt 0.543457031 0.879770994
vt 0.543457031 0.859414756
vt 0.940917969 0.861959279
vt 0.940917969 0.882315516
vt 0.972167969 0.882315516
vt 0.972167969 0.861959279
vt 0.544433594 0.859414756
vt 0.544433594 0.900127232
vt 0.560058594 0.900127232
vt 0.560058594 0.859414756
vt 0.973144531 0.861959279
vt 0.973144531 0.902671754
vt 0.988769531 0.902671754
vt 0.988769531 0.861959279
vt 0.752441406 0.865776062
vt 0.752441406 0.906488538
vt 0.768066406 0.906488538
vt 0.768066406 0.865776062
vt 0.769042969 0.865776062
vt 0.769042969 0.906488538
vt 0.784667969 0.906488538
vt 0.784667969 0.865776062
vt 0.785644531 0.865776062
vt 0.785644531 0.906488538
vt 0.801269531 0.906488538
vt 0.801269531 0.865776062
vt 0.802246094 0.865776062
vt 0.802246094 0.906488538
vt 0.817871094 0.906488538
vt 0.817871094 0.865776062
vt 0.818847656 0.865776062
vt 0.818847656 0.87531805
vt 0.850097656 0.87531805
vt 0.850097656 0.865776062
vt 0.851074219 0.865776062
vt 0.851074219 0.906488538
vt 0.866699219 0.906488538
vt 0.866699219 0.865776062
vt 0.867675781 0.865776062
vt 0.867675781 0.8861323
vt 0.898925781 0.8861323
vt 0.898925781 0.865776062
vt 0.899902344 0.865776062
vt 0.899902344 0.8861323
vt 0.931152344 0.8861323
vt 0.931152344 0.865776062
vt 0.818847656 0.876590312
vt 0.818847656 0.896946549
vt 0.850097656 0.896946549
vt 0.850097656 0.876590312
vt 0.00048828125 0.878498733
vt 0.00048828125 0.888040721
vt 0.0317382812 0.888040721
vt 0.0317382812 0.878498733
vt 0.0327148438 0.878498733
vt 0.0327148438 0.898854971
vt 0.0639648438 0.898854971
vt 0.0639648438 0.878498733
vt 0.0649414062 0.878498733
vt 0.0649414062 0.919211209
vt 0.0805664062 0.919211209
vt 0.0805664062 0.878498733
vt 0.129394531 0.879770994
vt 0.129394531 0.92048347
vt 0.145019531 0.92048347
vt 0.145019531 0.879770994
vt 0.145996094 0.879770994
vt 0.145996094 0.92048347
vt 0.161621094 0.92048347
vt 0.161621094 0.879770994
vt 0.210449219 0.879770994
vt 0.210449219 0.900127232
vt 0.226074219 0.900127232
vt 0.226074219 0.879770994
vt 0.227050781 0.879770994
vt 0.227050781 0.900127232
vt 0.242675781 0.900127232
vt 0.242675781 0.879770994
vt 0.243652344 0.879770994
vt 0.243652344 0.900127232
vt 0.259277344 0.900127232
vt 0.259277344 0.879770994
vt 0.260253906 0.879770994
vt 0.260253906 0.900127232
vt 0.275878906 0.900127232
vt 0.275878906 0.879770994
vt 0.276855469 0.879770994
vt 0.276855469 0.900127232
vt 0.292480469 0.900127232
vt 0.292480469 0.879770994
vt 0.355957031 0.879770994
vt 0.355957031 0.900127232
vt 0.371582031 0.900127232
vt 0.371582031 0.879770994
vt 0.372558594 0.879770994
vt 0.372558594 0.900127232
vt 0.388183594 0.900127232
vt 0.388183594 0.879770994
vt 0.389160156 0.879770994
vt 0.389160156 0.900127232
vt 0.404785156 0.900127232
vt 0.404785156 0.879770994
vt 0.437011719 0.879770994
vt 0.437011719 0.900127232
vt 0.452636719 0.900127232
vt 0.452636719 0.879770994
vt 0.574707031 0.879770994
vt 0.574707031 0.900127232
vt 0.590332031 0.900127232
vt 0.590332031 0.879770994
vt 0.591308594 0.879770994
vt 0.591308594 0.900127232
vt 0.606933594 0.900127232
vt 0.606933594 0.879770994
vt 0.607910156 0.879770994
vt 0.607910156 0.900127232
vt 0.623535156 0.900127232
vt 0.623535156 0.879770994
vt 0.624511719 0.879770994
vt 0.624511719 0.900127232
vt 0.640136719 0.900127232
vt 0.640136719 0.879770994
vt 0.641113281 0.879770994
vt 0.641113281 0.900127232
vt 0.656738281 0.900127232
vt 0.656738281 0.879770994
g tianying_3-mesh_0
f 3/3/3 2/2/2 1/1/1
f 1/1/1 4/4/4 3/3/3
f 7/7/7 6/6/6 5/5/5
f 5/5/5 8/8/8 7/7/7
f 11/11/11 10/10/10 9/9/9
f 9/9/9 12/12/12 11/11/11
f 15/15/15 14/14/14 13/13/13
f 13/13/13 16/16/16 15/15/15
f 19/19/19 18/18/18 17/17/17
f 17/17/17 20/20/20 19/19/19
f 23/23/23 22/22/22 21/21/21
f 21/21/21 24/24/24 23/23/23
f 27/27/27 26/26/26 25/25/25
f 25/25/25 28/28/28 27/27/27
f 31/31/31 30/30/30 29/29/29
f 29/29/29 32/32/32 31/31/31
f 35/35/35 34/34/34 33/33/33
f 33/33/33 36/36/36 35/35/35
f 39/39/39 38/38/38 37/37/37
f 37/37/37 40/40/40 39/39/39
f 43/43/43 42/42/42 41/41/41
f 41/41/41 44/44/44 43/43/43
f 47/47/47 46/46/46 45/45/45
f 45/45/45 48/48/48 47/47/47
f 51/51/51 50/50/50 49/49/49
f 49/49/49 52/52/52 51/51/51
f 55/55/55 54/54/54 53/53/53
f 53/53/53 56/56/56 55/55/55
f 59/59/59 58/58/58 57/57/57
f 57/57/57 60/60/60 59/59/59
f 63/63/63 62/62/62 61/61/61
f 61/61/61 64/64/64 63/63/63
f 67/67/67 66/66/66 65/65/65
f 65/65/65 68/68/68 67/67/67
f 71/71/71 70/70/70 69/69/69
f 69/69/69 72/72/72 71/71/71
f 75/75/75 74/74/74 73/73/73
f 73/73/73 76/76/76 75/75/75
f 79/79/79 78/78/78 77/77/77
f 77/77/77 80/80/80 79/79/79
f 83/83/83 82/82/82 81/81/81
f 81/81/81 84/84/84 83/83/83
f 87/87/87 86/86/86 85/85/85
f 85/85/85 88/88/88 87/87/87
f 91/91/91 90/90/90 89/89/89
f 89/89/89 92/92/92 91/91/91
f 95/95/95 94/94/94 93/93/93
f 93/93/93 96/96/96 95/95/95
f 99/99/99 98/98/98 97/97/97
f 97/97/97 100/100/100 99/99/99
f 103/103/103 102/102/102 101/101/101
f 101/101/101 104/104/104 103/103/103
f 107/107/107 106/106/106 105/105/105
f 105/105/105 108/108/108 107/107/107
f 111/111/111 110/110/110 109/109/109
f 109/109/109 112/112/112 111/111/111
f 115/115/115 114/114/114 113/113/113
f 113/113/113 116/116/116 115/115/115
f 119/119/119 118/118/118 117/117/117
f 117/117/117 120/120/120 119/119/119
f 123/123/123 122/122/122 121/121/121
f 121/121/121 124/124/124 123/123/123
f 127/127/127 126/126/126 125/125/125
f 125/125/125 128/128/128 127/127/127
f 131/131/131 130/130/130 129/129/129
f 129/129/129 132/132/132 131/131/131
f 135/135/135 134/134/134 133/133/133
f 133/133/133 136/136/136 135/135/135
f 139/139/139 138/138/138 137/137/137
f 137/137/137 140/140/140 139/139/139
f 143/143/143 142/142/142 141/141/141
f 141/141/141 144/144/144 143/143/143
f 147/147/147 146/146/146 145/145/145
f 145/145/145 148/148/148 147/147/147
f 151/151/151 150/150/150 149/149/149
f 149/149/149 152/152/152 151/151/151
f 155/155/155 154/154/154 153/153/153
f 153/153/153 156/156/156 155/155/155
f 159/159/159 158/158/158 157/157/157
f 157/157/157 160/160/160 159/159/159
f 163/163/163 162/162/162 161/161/161
f 161/161/161 164/164/164 163/163/163
f 167/167/167 166/166/166 165/165/165
f 165/165/165 168/168/168 167/167/167
f 171/171/171 170/170/170 169/169/169
f 169/169/169 172/172/172 171/171/171
f 175/175/175 174/174/174 173/173/173
f 173/173/173 176/176/176 175/175/175
f 179/179/179 178/178/178 177/177/177
f 177/177/177 180/180/180 179/179/179
f 183/183/183 182/182/182 181/181/181
f 181/181/181 184/184/184 183/183/183
f 187/187/187 186/186/186 185/185/185
f 185/185/185 188/188/188 187/187/187
f 191/191/191 190/190/190 189/189/189
f 189/189/189 192/192/192 191/191/191
f 195/195/195 194/194/194 193/193/193
f 193/193/193 196/196/196 195/195/195
f 199/199/199 198/198/198 197/197/197
f 197/197/197 200/200/200 199/199/199
f 203/203/203 202/202/202 201/201/201
f 201/201/201 204/204/204 203/203/203
f 207/207/207 206/206/206 205/205/205
f 205/205/205 208/208/208 207/207/207
f 211/211/211 210/210/210 209/209/209
f 209/209/209 212/212/212 211/211/211
f 215/215/215 214/214/214 213/213/213
f 213/213/213 216/216/216 215/215/215
f 219/219/219 218/218/218 217/217/217
f 217/217/217 220/220/220 219/219/219
f 223/223/223 222/222/222 221/221/221
f 221/221/221 224/224/224 223/223/223
f 227/227/227 226/226/226 225/225/225
f 225/225/225 228/228/228 227/227/227
f 231/231/231 230/230/230 229/229/229
f 229/229/229 232/232/232 231/231/231
f 235/235/235 234/234/234 233/233/233
f 233/233/233 236/236/236 235/235/235
f 239/239/239 238/238/238 237/237/237
f 237/237/237 240/240/240 239/239/239
f 243/243/243 242/242/242 241/241/241
f 241/241/241 244/244/244 243/243/243
f 247/247/247 246/246/246 245/245/245
f 245/245/245 248/248/248 247/247/247
f 251/251/251 250/250/250 249/249/249
f 249/249/249 252/252/252 251/251/251
f 255/255/255 254/254/254 253/253/253
f 253/253/253 256/256/256 255/255/255
f 259/259/259 258/258/258 257/257/257
f 257/257/257 260/260/260 259/259/259
f 263/263/263 262/262/262 261/261/261
f 261/261/261 264/264/264 263/263/263
f 267/267/267 266/266/266 265/265/265
f 265/265/265 268/268/268 267/267/267
f 271/271/271 270/270/270 269/269/269
f 269/269/269 272/272/272 271/271/271
f 275/275/275 274/274/274 273/273/273
f 273/273/273 276/276/276 275/275/275
f 279/279/279 278/278/278 277/277/277
f 277/277/277 280/280/280 279/279/279
f 283/283/283 282/282/282 281/281/281
f 281/281/281 284/284/284 283/283/283
f 287/287/287 286/286/286 285/285/285
f 285/285/285 288/288/288 287/287/287
f 291/291/291 290/290/290 289/289/289
f 289/289/289 292/292/292 291/291/291
f 295/295/295 294/294/294 293/293/293
f 293/293/293 296/296/296 295/295/295
f 299/299/299 298/298/298 297/297/297
f 297/297/297 300/300/300 299/299/299
f 303/303/303 302/302/302 301/301/301
f 301/301/301 304/304/304 303/303/303
f 307/307/307 306/306/306 305/305/305
f 305/305/305 308/308/308 307/307/307
f 311/311/311 310/310/310 309/309/309
f 309/309/309 312/312/312 311/311/311
f 315/315/315 314/314/314 313/313/313
f 313/313/313 316/316/316 315/315/315
f 319/319/319 318/318/318 317/317/317
f 317/317/317 320/320/320 319/319/319
f 323/323/323 322/322/322 321/321/321
f 321/321/321 324/324/324 323/323/323
f 327/327/327 326/326/326 325/325/325
f 325/325/325 328/328/328 327/327/327
f 331/331/331 330/330/330 329/329/329
f 329/329/329 332/332/332 331/331/331
f 335/335/335 334/334/334 333/333/333
f 333/333/333 336/336/336 335/335/335
