g xinnong_5-mesh
v -1024 47 0
v -1024 1679 0
v -1920 1679 0
v -1920 47 0
v -128 47 0
v -128 1679 0
v -1024 1679 0
v -1024 47 0
v -288 1679 0
v -288 1775 0
v -576 1775 0
v -576 1679 0
v -160 15 0
v -160 47 0
v -992 47 0
v -992 15 0
v -992 15 0
v -992 47 0
v -1792 47 0
v -1792 15 0
v -576 1679 0
v -576 1775 0
v -832 1775 0
v -832 1679 0
v -1920 719 0
v -1920 911 0
v -2016 911 0
v -2016 719 0
v -1344 1679 0
v -1344 1775 0
v -1536 1775 0
v -1536 1679 0
v -32 111 0
v -32 271 0
v -128 271 0
v -128 111 0
v -1536 1679 0
v -1536 1775 0
v -1696 1775 0
v -1696 1679 0
v -96 911 0
v -96 1327 0
v -128 1327 0
v -128 911 0
v -96 527 0
v -96 911 0
v -128 911 0
v -128 527 0
v -1920 911 0
v -1920 1039 0
v -1984 1039 0
v -1984 911 0
v -1920 143 0
v -1920 271 0
v -1984 271 0
v -1984 143 0
v -1920 47 0
v -1920 143 0
v -1984 143 0
v -1984 47 0
v -32 815 0
v -32 911 0
v -96 911 0
v -96 815 0
v -448 0 0
v -448 15 0
v -576 15 0
v -576 0 0
v -224 1679 0
v -224 1743 0
v -288 1743 0
v -288 1679 0
v -32 751 0
v -32 815 0
v -96 815 0
v -96 751 0
v -320 0 0
v -320 15 0
v -448 15 0
v -448 0 0
v -1984 143 0
v -1984 239 0
v -2016 239 0
v -2016 143 0
v -1920 1039 0
v -1920 1103 0
v -1952 1103 0
v -1952 1039 0
v -1984 975 0
v -1984 1039 0
v -2016 1039 0
v -2016 975 0
v -64 687 0
v -64 751 0
v -96 751 0
v -96 687 0
v -1920 559 0
v -1920 623 0
v -1952 623 0
v -1952 559 0
v -832 1711 0
v -832 1775 0
v -864 1775 0
v -864 1711 0
v -64 1135 0
v -64 1199 0
v -96 1199 0
v -96 1135 0
v -2016 79 0
v -2016 143 0
v -2047 143 0
v -2047 79 0
v -64 79 0
v -64 111 0
v -128 111 0
v -128 79 0
v -1152 0 0
v -1152 15 0
v -1216 15 0
v -1216 0 0
v -1920 655 0
v -1920 719 0
v -1952 719 0
v -1952 655 0
v -64 591 0
v -64 655 0
v -96 655 0
v -96 591 0
v -0 111 0
v -0 175 0
v -32 175 0
v -32 111 0
v -1824 15 0
v -1824 47 0
v -1888 47 0
v -1888 15 0
v -1888 15 0
v -1888 47 0
v -1952 47 0
v -1952 15 0
v -1440 0 0
v -1440 15 0
v -1504 15 0
v -1504 0 0
v -1984 79 0
v -1984 143 0
v -2016 143 0
v -2016 79 0
v -1696 1679 0
v -1696 1711 0
v -1760 1711 0
v -1760 1679 0
v -1760 1679 0
v -1760 1711 0
v -1824 1711 0
v -1824 1679 0
v -96 1519 0
v -96 1583 0
v -128 1583 0
v -128 1519 0
v -64 1007 0
v -64 1071 0
v -96 1071 0
v -96 1007 0
v -0 815 0
v -0 879 0
v -32 879 0
v -32 815 0
v -1376 0 0
v -1376 15 0
v -1440 15 0
v -1440 0 0
v -0 207 0
v -0 239 0
v -32 239 0
v -32 207 0
v -864 0 0
v -864 15 0
v -896 15 0
v -896 0 0
v -1280 1679 0
v -1280 1711 0
v -1312 1711 0
v -1312 1679 0
v -2016 207 0
v -2016 239 0
v -2047 239 0
v -2047 207 0
v -64 975 0
v -64 1007 0
v -96 1007 0
v -96 975 0
v -1920 527 0
v -1920 559 0
v -1952 559 0
v -1952 527 0
v -0 783 0
v -0 815 0
v -32 815 0
v -32 783 0
v -96 1487 0
v -96 1519 0
v -128 1519 0
v -128 1487 0
vt 0.00048828125 0.000566244125
vt 0.00048828125 0.924688578
vt 0.437988281 0.924688578
vt 0.437988281 0.000566244125
vt 0.438964844 0.000566244125
vt 0.438964844 0.924688578
vt 0.876464844 0.924688578
vt 0.876464844 0.000566244125
vt 0.00048828125 0.925821066
vt 0.00048828125 0.980181217
vt 0.141113281 0.980181217
vt 0.141113281 0.925821066
vt 0.142089844 0.925821066
vt 0.142089844 0.943941116
vt 0.548339844 0.943941116
vt 0.548339844 0.925821066
vt 0.549316406 0.925821066
vt 0.549316406 0.943941116
vt 0.939941406 0.943941116
vt 0.939941406 0.925821066
vt 0.142089844 0.945073605
vt 0.142089844 0.999433756
vt 0.267089844 0.999433756
vt 0.267089844 0.945073605
vt 0.940917969 0.000566244125
vt 0.940917969 0.109286547
vt 0.987792969 0.109286547
vt 0.987792969 0.000566244125
vt 0.268066406 0.945073605
vt 0.268066406 0.999433756
vt 0.361816406 0.999433756
vt 0.361816406 0.945073605
vt 0.940917969 0.110419035
vt 0.940917969 0.201019228
vt 0.987792969 0.201019228
vt 0.987792969 0.110419035
vt 0.362792969 0.945073605
vt 0.362792969 0.999433756
vt 0.440917969 0.999433756
vt 0.440917969 0.945073605
vt 0.940917969 0.202151775
vt 0.940917969 0.437712371
vt 0.956542969 0.437712371
vt 0.956542969 0.202151775
vt 0.957519531 0.202151775
vt 0.957519531 0.419592321
vt 0.973144531 0.419592321
vt 0.973144531 0.202151775
vt 0.957519531 0.420724809
vt 0.957519531 0.493205011
vt 0.988769531 0.493205011
vt 0.988769531 0.420724809
vt 0.957519531 0.494337499
vt 0.957519531 0.566817641
vt 0.988769531 0.566817641
vt 0.988769531 0.494337499
vt 0.957519531 0.56795013
vt 0.957519531 0.622310281
vt 0.988769531 0.622310281
vt 0.988769531 0.56795013
vt 0.957519531 0.623442769
vt 0.957519531 0.67780292
vt 0.988769531 0.67780292
vt 0.988769531 0.623442769
vt 0.441894531 0.945073605
vt 0.441894531 0.95413363
vt 0.504394531 0.95413363
vt 0.504394531 0.945073605
vt 0.957519531 0.678935409
vt 0.957519531 0.715175509
vt 0.988769531 0.715175509
vt 0.988769531 0.678935409
vt 0.957519531 0.716307998
vt 0.957519531 0.752548099
vt 0.988769531 0.752548099
vt 0.988769531 0.716307998
vt 0.505371094 0.945073605
vt 0.505371094 0.95413363
vt 0.567871094 0.95413363
vt 0.567871094 0.945073605
vt 0.940917969 0.43884486
vt 0.940917969 0.493205011
vt 0.956542969 0.493205011
vt 0.956542969 0.43884486
vt 0.940917969 0.494337499
vt 0.940917969 0.53057754
vt 0.956542969 0.53057754
vt 0.956542969 0.494337499
vt 0.940917969 0.531710088
vt 0.940917969 0.56795013
vt 0.956542969 0.56795013
vt 0.956542969 0.531710088
vt 0.940917969 0.569082677
vt 0.940917969 0.605322719
vt 0.956542969 0.605322719
vt 0.956542969 0.569082677
vt 0.940917969 0.606455266
vt 0.940917969 0.642695367
vt 0.956542969 0.642695367
vt 0.956542969 0.606455266
vt 0.940917969 0.643827856
vt 0.940917969 0.680067956
vt 0.956542969 0.680067956
vt 0.956542969 0.643827856
vt 0.940917969 0.681200445
vt 0.940917969 0.717440546
vt 0.956542969 0.717440546
vt 0.956542969 0.681200445
vt 0.940917969 0.718573034
vt 0.940917969 0.754813135
vt 0.956542969 0.754813135
vt 0.956542969 0.718573034
vt 0.957519531 0.753680646
vt 0.957519531 0.771800697
vt 0.988769531 0.771800697
vt 0.988769531 0.753680646
vt 0.957519531 0.772933185
vt 0.957519531 0.78199321
vt 0.988769531 0.78199321
vt 0.988769531 0.772933185
vt 0.940917969 0.755945623
vt 0.940917969 0.792185724
vt 0.956542969 0.792185724
vt 0.956542969 0.755945623
vt 0.957519531 0.783125699
vt 0.957519531 0.819365799
vt 0.973144531 0.819365799
vt 0.973144531 0.783125699
vt 0.974121094 0.783125699
vt 0.974121094 0.819365799
vt 0.989746094 0.819365799
vt 0.989746094 0.783125699
vt 0.957519531 0.820498288
vt 0.957519531 0.838618338
vt 0.988769531 0.838618338
vt 0.988769531 0.820498288
vt 0.957519531 0.839750886
vt 0.957519531 0.857870877
vt 0.988769531 0.857870877
vt 0.988769531 0.839750886
vt 0.957519531 0.859003425
vt 0.957519531 0.86806345
vt 0.988769531 0.86806345
vt 0.988769531 0.859003425
vt 0.940917969 0.793318212
vt 0.940917969 0.829558313
vt 0.956542969 0.829558313
vt 0.956542969 0.793318212
vt 0.957519531 0.869195938
vt 0.957519531 0.887315989
vt 0.988769531 0.887315989
vt 0.988769531 0.869195938
vt 0.957519531 0.888448477
vt 0.957519531 0.906568527
vt 0.988769531 0.906568527
vt 0.988769531 0.888448477
vt 0.940917969 0.830690861
vt 0.940917969 0.866930902
vt 0.956542969 0.866930902
vt 0.956542969 0.830690861
vt 0.940917969 0.86806345
vt 0.940917969 0.904303491
vt 0.956542969 0.904303491
vt 0.956542969 0.86806345
vt 0.940917969 0.905436039
vt 0.940917969 0.94167608
vt 0.956542969 0.94167608
vt 0.956542969 0.905436039
vt 0.957519531 0.907701015
vt 0.957519531 0.916761041
vt 0.988769531 0.916761041
vt 0.988769531 0.907701015
vt 0.957519531 0.917893529
vt 0.957519531 0.936013579
vt 0.973144531 0.936013579
vt 0.973144531 0.917893529
vt 0.974121094 0.917893529
vt 0.974121094 0.926953554
vt 0.989746094 0.926953554
vt 0.989746094 0.917893529
vt 0.974121094 0.928086042
vt 0.974121094 0.946206093
vt 0.989746094 0.946206093
vt 0.989746094 0.928086042
vt 0.957519531 0.937146068
vt 0.957519531 0.955266118
vt 0.973144531 0.955266118
vt 0.973144531 0.937146068
vt 0.940917969 0.942808628
vt 0.940917969 0.960928679
vt 0.956542969 0.960928679
vt 0.956542969 0.942808628
vt 0.568847656 0.945073605
vt 0.568847656 0.963193655
vt 0.584472656 0.963193655
vt 0.584472656 0.945073605
vt 0.585449219 0.945073605
vt 0.585449219 0.963193655
vt 0.601074219 0.963193655
vt 0.601074219 0.945073605
vt 0.602050781 0.945073605
vt 0.602050781 0.963193655
vt 0.617675781 0.963193655
vt 0.617675781 0.945073605
g xinnong_5-mesh_0
f 3/3/3 2/2/2 1/1/1
f 1/1/1 4/4/4 3/3/3
f 7/7/7 6/6/6 5/5/5
f 5/5/5 8/8/8 7/7/7
f 11/11/11 10/10/10 9/9/9
f 9/9/9 12/12/12 11/11/11
f 15/15/15 14/14/14 13/13/13
f 13/13/13 16/16/16 15/15/15
f 19/19/19 18/18/18 17/17/17
f 17/17/17 20/20/20 19/19/19
f 23/23/23 22/22/22 21/21/21
f 21/21/21 24/24/24 23/23/23
f 27/27/27 26/26/26 25/25/25
f 25/25/25 28/28/28 27/27/27
f 31/31/31 30/30/30 29/29/29
f 29/29/29 32/32/32 31/31/31
f 35/35/35 34/34/34 33/33/33
f 33/33/33 36/36/36 35/35/35
f 39/39/39 38/38/38 37/37/37
f 37/37/37 40/40/40 39/39/39
f 43/43/43 42/42/42 41/41/41
f 41/41/41 44/44/44 43/43/43
f 47/47/47 46/46/46 45/45/45
f 45/45/45 48/48/48 47/47/47
f 51/51/51 50/50/50 49/49/49
f 49/49/49 52/52/52 51/51/51
f 55/55/55 54/54/54 53/53/53
f 53/53/53 56/56/56 55/55/55
f 59/59/59 58/58/58 57/57/57
f 57/57/57 60/60/60 59/59/59
f 63/63/63 62/62/62 61/61/61
f 61/61/61 64/64/64 63/63/63
f 67/67/67 66/66/66 65/65/65
f 65/65/65 68/68/68 67/67/67
f 71/71/71 70/70/70 69/69/69
f 69/69/69 72/72/72 71/71/71
f 75/75/75 74/74/74 73/73/73
f 73/73/73 76/76/76 75/75/75
f 79/79/79 78/78/78 77/77/77
f 77/77/77 80/80/80 79/79/79
f 83/83/83 82/82/82 81/81/81
f 81/81/81 84/84/84 83/83/83
f 87/87/87 86/86/86 85/85/85
f 85/85/85 88/88/88 87/87/87
f 91/91/91 90/90/90 89/89/89
f 89/89/89 92/92/92 91/91/91
f 95/95/95 94/94/94 93/93/93
f 93/93/93 96/96/96 95/95/95
f 99/99/99 98/98/98 97/97/97
f 97/97/97 100/100/100 99/99/99
f 103/103/103 102/102/102 101/101/101
f 101/101/101 104/104/104 103/103/103
f 107/107/107 106/106/106 105/105/105
f 105/105/105 108/108/108 107/107/107
f 111/111/111 110/110/110 109/109/109
f 109/109/109 112/112/112 111/111/111
f 115/115/115 114/114/114 113/113/113
f 113/113/113 116/116/116 115/115/115
f 119/119/119 118/118/118 117/117/117
f 117/117/117 120/120/120 119/119/119
f 123/123/123 122/122/122 121/121/121
f 121/121/121 124/124/124 123/123/123
f 127/127/127 126/126/126 125/125/125
f 125/125/125 128/128/128 127/127/127
f 131/131/131 130/130/130 129/129/129
f 129/129/129 132/132/132 131/131/131
f 135/135/135 134/134/134 133/133/133
f 133/133/133 136/136/136 135/135/135
f 139/139/139 138/138/138 137/137/137
f 137/137/137 140/140/140 139/139/139
f 143/143/143 142/142/142 141/141/141
f 141/141/141 144/144/144 143/143/143
f 147/147/147 146/146/146 145/145/145
f 145/145/145 148/148/148 147/147/147
f 151/151/151 150/150/150 149/149/149
f 149/149/149 152/152/152 151/151/151
f 155/155/155 154/154/154 153/153/153
f 153/153/153 156/156/156 155/155/155
f 159/159/159 158/158/158 157/157/157
f 157/157/157 160/160/160 159/159/159
f 163/163/163 162/162/162 161/161/161
f 161/161/161 164/164/164 163/163/163
f 167/167/167 166/166/166 165/165/165
f 165/165/165 168/168/168 167/167/167
f 171/171/171 170/170/170 169/169/169
f 169/169/169 172/172/172 171/171/171
f 175/175/175 174/174/174 173/173/173
f 173/173/173 176/176/176 175/175/175
f 179/179/179 178/178/178 177/177/177
f 177/177/177 180/180/180 179/179/179
f 183/183/183 182/182/182 181/181/181
f 181/181/181 184/184/184 183/183/183
f 187/187/187 186/186/186 185/185/185
f 185/185/185 188/188/188 187/187/187
f 191/191/191 190/190/190 189/189/189
f 189/189/189 192/192/192 191/191/191
f 195/195/195 194/194/194 193/193/193
f 193/193/193 196/196/196 195/195/195
f 199/199/199 198/198/198 197/197/197
f 197/197/197 200/200/200 199/199/199
f 203/203/203 202/202/202 201/201/201
f 201/201/201 204/204/204 203/203/203
