g hailunna_4_bj-mesh
v -768 603 0
v -768 731 0
v -832 731 0
v -832 603 0
v -800 731 0
v -800 763 0
v -864 763 0
v -864 731 0
v -736 699 0
v -736 763 0
v -768 763 0
v -768 699 0
v -832 699 0
v -832 731 0
v -864 731 0
v -864 699 0
v -736 667 0
v -736 699 0
v -768 699 0
v -768 667 0
vt 0.001953125 0.00769233704
vt 0.001953125 0.992307663
vt 0.126953125 0.992307663
vt 0.126953125 0.00769233704
vt 0.130859375 0.00769233704
vt 0.130859375 0.253846169
vt 0.255859375 0.253846169
vt 0.255859375 0.00769233704
vt 0.259765625 0.00769233704
vt 0.259765625 0.5
vt 0.322265625 0.5
vt 0.322265625 0.00769233704
vt 0.326171875 0.00769233704
vt 0.326171875 0.253846169
vt 0.388671875 0.253846169
vt 0.388671875 0.00769233704
vt 0.392578125 0.00769233704
vt 0.392578125 0.253846169
vt 0.455078125 0.253846169
vt 0.455078125 0.00769233704
g hailunna_4_bj-mesh_0
f 3/3/3 2/2/2 1/1/1
f 1/1/1 4/4/4 3/3/3
f 7/7/7 6/6/6 5/5/5
f 5/5/5 8/8/8 7/7/7
f 11/11/11 10/10/10 9/9/9
f 9/9/9 12/12/12 11/11/11
f 15/15/15 14/14/14 13/13/13
f 13/13/13 16/16/16 15/15/15
f 19/19/19 18/18/18 17/17/17
f 17/17/17 20/20/20 19/19/19
