g jinboli_alter-mesh
v -1024 415 0
v -1024 1791 0
v -1824 1791 0
v -1824 415 0
v -224 415 0
v -224 1791 0
v -1024 1791 0
v -1024 415 0
v -1824 543 0
v -1824 1023 0
v -2016 1023 0
v -2016 543 0
v -1824 1023 0
v -1824 1503 0
v -2016 1503 0
v -2016 1023 0
v -960 1791 0
v -960 1983 0
v -1376 1983 0
v -1376 1791 0
v -544 1791 0
v -544 1983 0
v -960 1983 0
v -960 1791 0
v -96 1055 0
v -96 1599 0
v -224 1599 0
v -224 1055 0
v -96 543 0
v -96 1055 0
v -224 1055 0
v -224 543 0
v -992 287 0
v -992 415 0
v -1472 415 0
v -1472 287 0
v -512 287 0
v -512 415 0
v -992 415 0
v -992 287 0
v -1184 159 0
v -1184 287 0
v -1440 287 0
v -1440 159 0
v -1376 1791 0
v -1376 1919 0
v -1568 1919 0
v -1568 1791 0
v -352 1791 0
v -352 1919 0
v -544 1919 0
v -544 1791 0
v -1824 1503 0
v -1824 1695 0
v -1920 1695 0
v -1920 1503 0
v -704 1983 0
v -704 2047 0
v -960 2047 0
v -960 1983 0
v -352 319 0
v -352 415 0
v -512 415 0
v -512 319 0
v -960 1983 0
v -960 2047 0
v -1184 2047 0
v -1184 1983 0
v -32 959 0
v -32 1183 0
v -96 1183 0
v -96 959 0
v -32 735 0
v -32 959 0
v -96 959 0
v -96 735 0
v -96 1631 0
v -96 1727 0
v -224 1727 0
v -224 1631 0
v -1600 351 0
v -1600 415 0
v -1728 415 0
v -1728 351 0
v -1088 191 0
v -1088 255 0
v -1184 255 0
v -1184 191 0
v -128 479 0
v -128 543 0
v -224 543 0
v -224 479 0
v -1920 1503 0
v -1920 1599 0
v -1984 1599 0
v -1984 1503 0
v -1824 479 0
v -1824 543 0
v -1920 543 0
v -1920 479 0
v -1568 1791 0
v -1568 1855 0
v -1664 1855 0
v -1664 1791 0
v -640 223 0
v -640 287 0
v -736 287 0
v -736 223 0
v -736 223 0
v -736 287 0
v -832 287 0
v -832 223 0
v -864 159 0
v -864 191 0
v -1024 191 0
v -1024 159 0
v -2016 1151 0
v -2016 1311 0
v -2047 1311 0
v -2047 1151 0
v -2016 767 0
v -2016 927 0
v -2047 927 0
v -2047 767 0
v -1024 255 0
v -1024 287 0
v -1184 287 0
v -1184 255 0
v -864 255 0
v -864 287 0
v -1024 287 0
v -1024 255 0
v -0 991 0
v -0 1151 0
v -32 1151 0
v -32 991 0
v -1728 287 0
v -1728 351 0
v -1792 351 0
v -1792 287 0
v -288 1791 0
v -288 1855 0
v -352 1855 0
v -352 1791 0
v -288 351 0
v -288 415 0
v -352 415 0
v -352 351 0
v -0 863 0
v -0 991 0
v -32 991 0
v -32 863 0
v -2016 1023 0
v -2016 1151 0
v -2047 1151 0
v -2047 1023 0
v -1664 1791 0
v -1664 1855 0
v -1728 1855 0
v -1728 1791 0
v -2016 639 0
v -2016 767 0
v -2047 767 0
v -2047 639 0
v -1024 159 0
v -1024 191 0
v -1152 191 0
v -1152 159 0
v -864 191 0
v -864 223 0
v -960 223 0
v -960 191 0
v -768 191 0
v -768 223 0
v -864 223 0
v -864 191 0
v -1248 127 0
v -1248 159 0
v -1344 159 0
v -1344 127 0
v -1344 127 0
v -1344 159 0
v -1440 159 0
v -1440 127 0
v -160 447 0
v -160 479 0
v -224 479 0
v -224 447 0
v -64 1183 0
v -64 1247 0
v -96 1247 0
v -96 1183 0
v -1504 351 0
v -1504 415 0
v -1536 415 0
v -1536 351 0
v -1920 511 0
v -1920 543 0
v -1984 543 0
v -1984 511 0
v -480 1919 0
v -480 1951 0
v -544 1951 0
v -544 1919 0
v -448 2015 0
v -448 2047 0
v -512 2047 0
v -512 2015 0
v -1824 1695 0
v -1824 1759 0
v -1856 1759 0
v -1856 1695 0
v -1568 1855 0
v -1568 1887 0
v -1632 1887 0
v -1632 1855 0
v -832 223 0
v -832 255 0
v -896 255 0
v -896 223 0
v -1824 223 0
v -1824 287 0
v -1856 287 0
v -1856 223 0
v -1024 63 0
v -1024 127 0
v -1056 127 0
v -1056 63 0
v -544 191 0
v -544 223 0
v -608 223 0
v -608 191 0
v -1792 255 0
v -1792 319 0
v -1824 319 0
v -1824 255 0
v -1568 287 0
v -1568 351 0
v -1600 351 0
v -1600 287 0
v -1440 223 0
v -1440 287 0
v -1472 287 0
v -1472 223 0
v -576 255 0
v -576 287 0
v -640 287 0
v -640 255 0
v -992 31 0
v -992 95 0
v -1024 95 0
v -1024 31 0
v -992 127 0
v -992 159 0
v -1056 159 0
v -1056 127 0
v -608 1983 0
v -608 2015 0
v -672 2015 0
v -672 1983 0
v -1376 1919 0
v -1376 1951 0
v -1440 1951 0
v -1440 1919 0
v -64 607 0
v -64 671 0
v -96 671 0
v -96 607 0
v -1184 1983 0
v -1184 2015 0
v -1248 2015 0
v -1248 1983 0
v -1248 1983 0
v -1248 2015 0
v -1312 2015 0
v -1312 1983 0
v -64 671 0
v -64 735 0
v -96 735 0
v -96 671 0
v -1472 351 0
v -1472 415 0
v -1504 415 0
v -1504 351 0
v -1312 95 0
v -1312 127 0
v -1376 127 0
v -1376 95 0
v -1056 127 0
v -1056 159 0
v -1120 159 0
v -1120 127 0
v -128 1599 0
v -128 1631 0
v -192 1631 0
v -192 1599 0
v -1760 383 0
v -1760 415 0
v -1792 415 0
v -1792 383 0
v -192 415 0
v -192 447 0
v -224 447 0
v -224 415 0
v -256 383 0
v -256 415 0
v -288 415 0
v -288 383 0
v -1728 351 0
v -1728 383 0
v -1760 383 0
v -1760 351 0
v -1536 383 0
v -1536 415 0
v -1568 415 0
v -1568 383 0
v -1600 319 0
v -1600 351 0
v -1632 351 0
v -1632 319 0
v -1056 223 0
v -1056 255 0
v -1088 255 0
v -1088 223 0
v -1856 223 0
v -1856 255 0
v -1888 255 0
v -1888 223 0
v -1056 95 0
v -1056 127 0
v -1088 127 0
v -1088 95 0
v -960 0 0
v -960 31 0
v -992 31 0
v -992 0 0
v -1696 319 0
v -1696 351 0
v -1728 351 0
v -1728 319 0
v -992 223 0
v -992 255 0
v -1024 255 0
v -1024 223 0
v -192 1599 0
v -192 1631 0
v -224 1631 0
v -224 1599 0
v -1440 1919 0
v -1440 1951 0
v -1472 1951 0
v -1472 1919 0
v -672 1983 0
v -672 2015 0
v -704 2015 0
v -704 1983 0
v -992 0 0
v -992 31 0
v -1024 31 0
v -1024 0 0
v -1376 95 0
v -1376 127 0
v -1408 127 0
v -1408 95 0
v -1472 319 0
v -1472 351 0
v -1504 351 0
v -1504 319 0
v -192 1727 0
v -192 1759 0
v -224 1759 0
v -224 1727 0
v -1856 1695 0
v -1856 1727 0
v -1888 1727 0
v -1888 1695 0
v -1920 1599 0
v -1920 1631 0
v -1952 1631 0
v -1952 1599 0
v -320 1855 0
v -320 1887 0
v -352 1887 0
v -352 1855 0
v -256 1791 0
v -256 1823 0
v -288 1823 0
v -288 1791 0
v -1728 1791 0
v -1728 1823 0
v -1760 1823 0
v -1760 1791 0
vt 0.00048828125 0.000598073006
vt 0.00048828125 0.823564589
vt 0.391113281 0.823564589
vt 0.391113281 0.000598073006
vt 0.392089844 0.000598073006
vt 0.392089844 0.823564589
vt 0.782714844 0.823564589
vt 0.782714844 0.000598073006
vt 0.783691406 0.000598073006
vt 0.783691406 0.287679434
vt 0.877441406 0.287679434
vt 0.877441406 0.000598073006
vt 0.878417969 0.000598073006
vt 0.878417969 0.287679434
vt 0.972167969 0.287679434
vt 0.972167969 0.000598073006
vt 0.783691406 0.28887558
vt 0.783691406 0.40370816
vt 0.986816406 0.40370816
vt 0.986816406 0.28887558
vt 0.783691406 0.404904306
vt 0.783691406 0.519736886
vt 0.986816406 0.519736886
vt 0.986816406 0.404904306
vt 0.783691406 0.520933032
vt 0.783691406 0.8462919
vt 0.846191406 0.8462919
vt 0.846191406 0.520933032
vt 0.847167969 0.520933032
vt 0.847167969 0.827153087
vt 0.909667969 0.827153087
vt 0.909667969 0.520933032
vt 0.00048828125 0.824760795
vt 0.00048828125 0.901315808
vt 0.234863281 0.901315808
vt 0.234863281 0.824760795
vt 0.235839844 0.824760795
vt 0.235839844 0.901315808
vt 0.470214844 0.901315808
vt 0.470214844 0.824760795
vt 0.471191406 0.824760795
vt 0.471191406 0.901315808
vt 0.596191406 0.901315808
vt 0.596191406 0.824760795
vt 0.597167969 0.824760795
vt 0.597167969 0.901315808
vt 0.690917969 0.901315808
vt 0.690917969 0.824760795
vt 0.847167969 0.828349292
vt 0.847167969 0.904904306
vt 0.940917969 0.904904306
vt 0.940917969 0.828349292
vt 0.941894531 0.520933032
vt 0.941894531 0.635765553
vt 0.988769531 0.635765553
vt 0.988769531 0.520933032
vt 0.00048828125 0.902511954
vt 0.00048828125 0.940789461
vt 0.125488281 0.940789461
vt 0.125488281 0.902511954
vt 0.691894531 0.824760795
vt 0.691894531 0.882177055
vt 0.770019531 0.882177055
vt 0.770019531 0.824760795
vt 0.691894531 0.883373201
vt 0.691894531 0.921650708
vt 0.801269531 0.921650708
vt 0.801269531 0.883373201
vt 0.941894531 0.636961699
vt 0.941894531 0.770933032
vt 0.973144531 0.770933032
vt 0.973144531 0.636961699
vt 0.941894531 0.772129178
vt 0.941894531 0.906100512
vt 0.973144531 0.906100512
vt 0.973144531 0.772129178
vt 0.126464844 0.902511954
vt 0.126464844 0.959928215
vt 0.188964844 0.959928215
vt 0.188964844 0.902511954
vt 0.189941406 0.902511954
vt 0.189941406 0.940789461
vt 0.252441406 0.940789461
vt 0.252441406 0.902511954
vt 0.253417969 0.902511954
vt 0.253417969 0.940789461
vt 0.300292969 0.940789461
vt 0.300292969 0.902511954
vt 0.301269531 0.902511954
vt 0.301269531 0.940789461
vt 0.348144531 0.940789461
vt 0.348144531 0.902511954
vt 0.802246094 0.847488046
vt 0.802246094 0.904904306
vt 0.833496094 0.904904306
vt 0.833496094 0.847488046
vt 0.349121094 0.902511954
vt 0.349121094 0.940789461
vt 0.395996094 0.940789461
vt 0.395996094 0.902511954
vt 0.396972656 0.902511954
vt 0.396972656 0.940789461
vt 0.443847656 0.940789461
vt 0.443847656 0.902511954
vt 0.444824219 0.902511954
vt 0.444824219 0.940789461
vt 0.491699219 0.940789461
vt 0.491699219 0.902511954
vt 0.492675781 0.902511954
vt 0.492675781 0.940789461
vt 0.539550781 0.940789461
vt 0.539550781 0.902511954
vt 0.540527344 0.902511954
vt 0.540527344 0.921650708
vt 0.618652344 0.921650708
vt 0.618652344 0.902511954
vt 0.974121094 0.636961699
vt 0.974121094 0.732655525
vt 0.989746094 0.732655525
vt 0.989746094 0.636961699
vt 0.974121094 0.733851671
vt 0.974121094 0.829545438
vt 0.989746094 0.829545438
vt 0.989746094 0.733851671
vt 0.802246094 0.906100512
vt 0.802246094 0.925239205
vt 0.880371094 0.925239205
vt 0.880371094 0.906100512
vt 0.540527344 0.922846913
vt 0.540527344 0.941985667
vt 0.618652344 0.941985667
vt 0.618652344 0.922846913
vt 0.974121094 0.830741644
vt 0.974121094 0.926435411
vt 0.989746094 0.926435411
vt 0.989746094 0.830741644
vt 0.619628906 0.902511954
vt 0.619628906 0.940789461
vt 0.650878906 0.940789461
vt 0.650878906 0.902511954
vt 0.651855469 0.902511954
vt 0.651855469 0.940789461
vt 0.683105469 0.940789461
vt 0.683105469 0.902511954
vt 0.881347656 0.906100512
vt 0.881347656 0.944378018
vt 0.912597656 0.944378018
vt 0.912597656 0.906100512
vt 0.913574219 0.906100512
vt 0.913574219 0.982655525
vt 0.929199219 0.982655525
vt 0.929199219 0.906100512
vt 0.941894531 0.907296658
vt 0.941894531 0.983851671
vt 0.957519531 0.983851671
vt 0.957519531 0.907296658
vt 0.691894531 0.922846913
vt 0.691894531 0.96112442
vt 0.723144531 0.96112442
vt 0.723144531 0.922846913
vt 0.724121094 0.922846913
vt 0.724121094 0.999401927
vt 0.739746094 0.999401927
vt 0.739746094 0.922846913
vt 0.802246094 0.926435411
vt 0.802246094 0.945574164
vt 0.864746094 0.945574164
vt 0.864746094 0.926435411
vt 0.740722656 0.922846913
vt 0.740722656 0.941985667
vt 0.787597656 0.941985667
vt 0.787597656 0.922846913
vt 0.00048828125 0.941985667
vt 0.00048828125 0.96112442
vt 0.0473632812 0.96112442
vt 0.0473632812 0.941985667
vt 0.0483398438 0.941985667
vt 0.0483398438 0.96112442
vt 0.0952148438 0.96112442
vt 0.0952148438 0.941985667
vt 0.189941406 0.941985667
vt 0.189941406 0.96112442
vt 0.236816406 0.96112442
vt 0.236816406 0.941985667
vt 0.237792969 0.941985667
vt 0.237792969 0.96112442
vt 0.269042969 0.96112442
vt 0.269042969 0.941985667
vt 0.974121094 0.927631557
vt 0.974121094 0.965909064
vt 0.989746094 0.965909064
vt 0.989746094 0.927631557
vt 0.0961914062 0.941985667
vt 0.0961914062 0.980263174
vt 0.111816406 0.980263174
vt 0.111816406 0.941985667
vt 0.270019531 0.941985667
vt 0.270019531 0.96112442
vt 0.301269531 0.96112442
vt 0.301269531 0.941985667
vt 0.302246094 0.941985667
vt 0.302246094 0.96112442
vt 0.333496094 0.96112442
vt 0.333496094 0.941985667
vt 0.334472656 0.941985667
vt 0.334472656 0.96112442
vt 0.365722656 0.96112442
vt 0.365722656 0.941985667
vt 0.366699219 0.941985667
vt 0.366699219 0.980263174
vt 0.382324219 0.980263174
vt 0.382324219 0.941985667
vt 0.383300781 0.941985667
vt 0.383300781 0.96112442
vt 0.414550781 0.96112442
vt 0.414550781 0.941985667
vt 0.415527344 0.941985667
vt 0.415527344 0.96112442
vt 0.446777344 0.96112442
vt 0.446777344 0.941985667
vt 0.447753906 0.941985667
vt 0.447753906 0.980263174
vt 0.463378906 0.980263174
vt 0.463378906 0.941985667
vt 0.464355469 0.941985667
vt 0.464355469 0.980263174
vt 0.479980469 0.980263174
vt 0.479980469 0.941985667
vt 0.480957031 0.941985667
vt 0.480957031 0.96112442
vt 0.512207031 0.96112442
vt 0.512207031 0.941985667
vt 0.513183594 0.941985667
vt 0.513183594 0.980263174
vt 0.528808594 0.980263174
vt 0.528808594 0.941985667
vt 0.619628906 0.941985667
vt 0.619628906 0.980263174
vt 0.635253906 0.980263174
vt 0.635253906 0.941985667
vt 0.636230469 0.941985667
vt 0.636230469 0.980263174
vt 0.651855469 0.980263174
vt 0.651855469 0.941985667
vt 0.652832031 0.941985667
vt 0.652832031 0.96112442
vt 0.684082031 0.96112442
vt 0.684082031 0.941985667
vt 0.540527344 0.943181813
vt 0.540527344 0.98145932
vt 0.556152344 0.98145932
vt 0.556152344 0.943181813
vt 0.557128906 0.943181813
vt 0.557128906 0.962320566
vt 0.588378906 0.962320566
vt 0.588378906 0.943181813
vt 0.740722656 0.943181813
vt 0.740722656 0.962320566
vt 0.771972656 0.962320566
vt 0.771972656 0.943181813
vt 0.881347656 0.945574164
vt 0.881347656 0.964712918
vt 0.912597656 0.964712918
vt 0.912597656 0.945574164
vt 0.589355469 0.943181813
vt 0.589355469 0.98145932
vt 0.604980469 0.98145932
vt 0.604980469 0.943181813
vt 0.802246094 0.94677031
vt 0.802246094 0.965909064
vt 0.833496094 0.965909064
vt 0.833496094 0.94677031
vt 0.834472656 0.94677031
vt 0.834472656 0.965909064
vt 0.865722656 0.965909064
vt 0.865722656 0.94677031
vt 0.772949219 0.943181813
vt 0.772949219 0.98145932
vt 0.788574219 0.98145932
vt 0.788574219 0.943181813
vt 0.126464844 0.96112442
vt 0.126464844 0.999401927
vt 0.142089844 0.999401927
vt 0.142089844 0.96112442
vt 0.143066406 0.96112442
vt 0.143066406 0.980263174
vt 0.174316406 0.980263174
vt 0.174316406 0.96112442
vt 0.00048828125 0.962320566
vt 0.00048828125 0.98145932
vt 0.0317382812 0.98145932
vt 0.0317382812 0.962320566
vt 0.0327148438 0.962320566
vt 0.0327148438 0.98145932
vt 0.0639648438 0.98145932
vt 0.0639648438 0.962320566
vt 0.0649414062 0.962320566
vt 0.0649414062 0.98145932
vt 0.0805664062 0.98145932
vt 0.0805664062 0.962320566
vt 0.189941406 0.962320566
vt 0.189941406 0.98145932
vt 0.205566406 0.98145932
vt 0.205566406 0.962320566
vt 0.206542969 0.962320566
vt 0.206542969 0.98145932
vt 0.222167969 0.98145932
vt 0.222167969 0.962320566
vt 0.223144531 0.962320566
vt 0.223144531 0.98145932
vt 0.238769531 0.98145932
vt 0.238769531 0.962320566
vt 0.239746094 0.962320566
vt 0.239746094 0.98145932
vt 0.255371094 0.98145932
vt 0.255371094 0.962320566
vt 0.256347656 0.962320566
vt 0.256347656 0.98145932
vt 0.271972656 0.98145932
vt 0.271972656 0.962320566
vt 0.272949219 0.962320566
vt 0.272949219 0.98145932
vt 0.288574219 0.98145932
vt 0.288574219 0.962320566
vt 0.289550781 0.962320566
vt 0.289550781 0.98145932
vt 0.305175781 0.98145932
vt 0.305175781 0.962320566
vt 0.306152344 0.962320566
vt 0.306152344 0.98145932
vt 0.321777344 0.98145932
vt 0.321777344 0.962320566
vt 0.322753906 0.962320566
vt 0.322753906 0.98145932
vt 0.338378906 0.98145932
vt 0.338378906 0.962320566
vt 0.339355469 0.962320566
vt 0.339355469 0.98145932
vt 0.354980469 0.98145932
vt 0.354980469 0.962320566
vt 0.383300781 0.962320566
vt 0.383300781 0.98145932
vt 0.398925781 0.98145932
vt 0.398925781 0.962320566
vt 0.399902344 0.962320566
vt 0.399902344 0.98145932
vt 0.415527344 0.98145932
vt 0.415527344 0.962320566
vt 0.416503906 0.962320566
vt 0.416503906 0.98145932
vt 0.432128906 0.98145932
vt 0.432128906 0.962320566
vt 0.480957031 0.962320566
vt 0.480957031 0.98145932
vt 0.496582031 0.98145932
vt 0.496582031 0.962320566
vt 0.652832031 0.962320566
vt 0.652832031 0.98145932
vt 0.668457031 0.98145932
vt 0.668457031 0.962320566
vt 0.669433594 0.962320566
vt 0.669433594 0.98145932
vt 0.685058594 0.98145932
vt 0.685058594 0.962320566
vt 0.691894531 0.962320566
vt 0.691894531 0.98145932
vt 0.707519531 0.98145932
vt 0.707519531 0.962320566
vt 0.557128906 0.963516772
vt 0.557128906 0.982655525
vt 0.572753906 0.982655525
vt 0.572753906 0.963516772
vt 0.740722656 0.963516772
vt 0.740722656 0.982655525
vt 0.756347656 0.982655525
vt 0.756347656 0.963516772
vt 0.881347656 0.965909064
vt 0.881347656 0.985047817
vt 0.896972656 0.985047817
vt 0.896972656 0.965909064
vt 0.802246094 0.967105269
vt 0.802246094 0.986244023
vt 0.817871094 0.986244023
vt 0.817871094 0.967105269
vt 0.818847656 0.967105269
vt 0.818847656 0.986244023
vt 0.834472656 0.986244023
vt 0.834472656 0.967105269
vt 0.835449219 0.967105269
vt 0.835449219 0.986244023
vt 0.851074219 0.986244023
vt 0.851074219 0.967105269
g jinboli_alter-mesh_0
f 3/3/3 2/2/2 1/1/1
f 1/1/1 4/4/4 3/3/3
f 7/7/7 6/6/6 5/5/5
f 5/5/5 8/8/8 7/7/7
f 11/11/11 10/10/10 9/9/9
f 9/9/9 12/12/12 11/11/11
f 15/15/15 14/14/14 13/13/13
f 13/13/13 16/16/16 15/15/15
f 19/19/19 18/18/18 17/17/17
f 17/17/17 20/20/20 19/19/19
f 23/23/23 22/22/22 21/21/21
f 21/21/21 24/24/24 23/23/23
f 27/27/27 26/26/26 25/25/25
f 25/25/25 28/28/28 27/27/27
f 31/31/31 30/30/30 29/29/29
f 29/29/29 32/32/32 31/31/31
f 35/35/35 34/34/34 33/33/33
f 33/33/33 36/36/36 35/35/35
f 39/39/39 38/38/38 37/37/37
f 37/37/37 40/40/40 39/39/39
f 43/43/43 42/42/42 41/41/41
f 41/41/41 44/44/44 43/43/43
f 47/47/47 46/46/46 45/45/45
f 45/45/45 48/48/48 47/47/47
f 51/51/51 50/50/50 49/49/49
f 49/49/49 52/52/52 51/51/51
f 55/55/55 54/54/54 53/53/53
f 53/53/53 56/56/56 55/55/55
f 59/59/59 58/58/58 57/57/57
f 57/57/57 60/60/60 59/59/59
f 63/63/63 62/62/62 61/61/61
f 61/61/61 64/64/64 63/63/63
f 67/67/67 66/66/66 65/65/65
f 65/65/65 68/68/68 67/67/67
f 71/71/71 70/70/70 69/69/69
f 69/69/69 72/72/72 71/71/71
f 75/75/75 74/74/74 73/73/73
f 73/73/73 76/76/76 75/75/75
f 79/79/79 78/78/78 77/77/77
f 77/77/77 80/80/80 79/79/79
f 83/83/83 82/82/82 81/81/81
f 81/81/81 84/84/84 83/83/83
f 87/87/87 86/86/86 85/85/85
f 85/85/85 88/88/88 87/87/87
f 91/91/91 90/90/90 89/89/89
f 89/89/89 92/92/92 91/91/91
f 95/95/95 94/94/94 93/93/93
f 93/93/93 96/96/96 95/95/95
f 99/99/99 98/98/98 97/97/97
f 97/97/97 100/100/100 99/99/99
f 103/103/103 102/102/102 101/101/101
f 101/101/101 104/104/104 103/103/103
f 107/107/107 106/106/106 105/105/105
f 105/105/105 108/108/108 107/107/107
f 111/111/111 110/110/110 109/109/109
f 109/109/109 112/112/112 111/111/111
f 115/115/115 114/114/114 113/113/113
f 113/113/113 116/116/116 115/115/115
f 119/119/119 118/118/118 117/117/117
f 117/117/117 120/120/120 119/119/119
f 123/123/123 122/122/122 121/121/121
f 121/121/121 124/124/124 123/123/123
f 127/127/127 126/126/126 125/125/125
f 125/125/125 128/128/128 127/127/127
f 131/131/131 130/130/130 129/129/129
f 129/129/129 132/132/132 131/131/131
f 135/135/135 134/134/134 133/133/133
f 133/133/133 136/136/136 135/135/135
f 139/139/139 138/138/138 137/137/137
f 137/137/137 140/140/140 139/139/139
f 143/143/143 142/142/142 141/141/141
f 141/141/141 144/144/144 143/143/143
f 147/147/147 146/146/146 145/145/145
f 145/145/145 148/148/148 147/147/147
f 151/151/151 150/150/150 149/149/149
f 149/149/149 152/152/152 151/151/151
f 155/155/155 154/154/154 153/153/153
f 153/153/153 156/156/156 155/155/155
f 159/159/159 158/158/158 157/157/157
f 157/157/157 160/160/160 159/159/159
f 163/163/163 162/162/162 161/161/161
f 161/161/161 164/164/164 163/163/163
f 167/167/167 166/166/166 165/165/165
f 165/165/165 168/168/168 167/167/167
f 171/171/171 170/170/170 169/169/169
f 169/169/169 172/172/172 171/171/171
f 175/175/175 174/174/174 173/173/173
f 173/173/173 176/176/176 175/175/175
f 179/179/179 178/178/178 177/177/177
f 177/177/177 180/180/180 179/179/179
f 183/183/183 182/182/182 181/181/181
f 181/181/181 184/184/184 183/183/183
f 187/187/187 186/186/186 185/185/185
f 185/185/185 188/188/188 187/187/187
f 191/191/191 190/190/190 189/189/189
f 189/189/189 192/192/192 191/191/191
f 195/195/195 194/194/194 193/193/193
f 193/193/193 196/196/196 195/195/195
f 199/199/199 198/198/198 197/197/197
f 197/197/197 200/200/200 199/199/199
f 203/203/203 202/202/202 201/201/201
f 201/201/201 204/204/204 203/203/203
f 207/207/207 206/206/206 205/205/205
f 205/205/205 208/208/208 207/207/207
f 211/211/211 210/210/210 209/209/209
f 209/209/209 212/212/212 211/211/211
f 215/215/215 214/214/214 213/213/213
f 213/213/213 216/216/216 215/215/215
f 219/219/219 218/218/218 217/217/217
f 217/217/217 220/220/220 219/219/219
f 223/223/223 222/222/222 221/221/221
f 221/221/221 224/224/224 223/223/223
f 227/227/227 226/226/226 225/225/225
f 225/225/225 228/228/228 227/227/227
f 231/231/231 230/230/230 229/229/229
f 229/229/229 232/232/232 231/231/231
f 235/235/235 234/234/234 233/233/233
f 233/233/233 236/236/236 235/235/235
f 239/239/239 238/238/238 237/237/237
f 237/237/237 240/240/240 239/239/239
f 243/243/243 242/242/242 241/241/241
f 241/241/241 244/244/244 243/243/243
f 247/247/247 246/246/246 245/245/245
f 245/245/245 248/248/248 247/247/247
f 251/251/251 250/250/250 249/249/249
f 249/249/249 252/252/252 251/251/251
f 255/255/255 254/254/254 253/253/253
f 253/253/253 256/256/256 255/255/255
f 259/259/259 258/258/258 257/257/257
f 257/257/257 260/260/260 259/259/259
f 263/263/263 262/262/262 261/261/261
f 261/261/261 264/264/264 263/263/263
f 267/267/267 266/266/266 265/265/265
f 265/265/265 268/268/268 267/267/267
f 271/271/271 270/270/270 269/269/269
f 269/269/269 272/272/272 271/271/271
f 275/275/275 274/274/274 273/273/273
f 273/273/273 276/276/276 275/275/275
f 279/279/279 278/278/278 277/277/277
f 277/277/277 280/280/280 279/279/279
f 283/283/283 282/282/282 281/281/281
f 281/281/281 284/284/284 283/283/283
f 287/287/287 286/286/286 285/285/285
f 285/285/285 288/288/288 287/287/287
f 291/291/291 290/290/290 289/289/289
f 289/289/289 292/292/292 291/291/291
f 295/295/295 294/294/294 293/293/293
f 293/293/293 296/296/296 295/295/295
f 299/299/299 298/298/298 297/297/297
f 297/297/297 300/300/300 299/299/299
f 303/303/303 302/302/302 301/301/301
f 301/301/301 304/304/304 303/303/303
f 307/307/307 306/306/306 305/305/305
f 305/305/305 308/308/308 307/307/307
f 311/311/311 310/310/310 309/309/309
f 309/309/309 312/312/312 311/311/311
f 315/315/315 314/314/314 313/313/313
f 313/313/313 316/316/316 315/315/315
f 319/319/319 318/318/318 317/317/317
f 317/317/317 320/320/320 319/319/319
f 323/323/323 322/322/322 321/321/321
f 321/321/321 324/324/324 323/323/323
f 327/327/327 326/326/326 325/325/325
f 325/325/325 328/328/328 327/327/327
f 331/331/331 330/330/330 329/329/329
f 329/329/329 332/332/332 331/331/331
f 335/335/335 334/334/334 333/333/333
f 333/333/333 336/336/336 335/335/335
f 339/339/339 338/338/338 337/337/337
f 337/337/337 340/340/340 339/339/339
f 343/343/343 342/342/342 341/341/341
f 341/341/341 344/344/344 343/343/343
f 347/347/347 346/346/346 345/345/345
f 345/345/345 348/348/348 347/347/347
f 351/351/351 350/350/350 349/349/349
f 349/349/349 352/352/352 351/351/351
f 355/355/355 354/354/354 353/353/353
f 353/353/353 356/356/356 355/355/355
f 359/359/359 358/358/358 357/357/357
f 357/357/357 360/360/360 359/359/359
f 363/363/363 362/362/362 361/361/361
f 361/361/361 364/364/364 363/363/363
f 367/367/367 366/366/366 365/365/365
f 365/365/365 368/368/368 367/367/367
f 371/371/371 370/370/370 369/369/369
f 369/369/369 372/372/372 371/371/371
f 375/375/375 374/374/374 373/373/373
f 373/373/373 376/376/376 375/375/375
f 379/379/379 378/378/378 377/377/377
f 377/377/377 380/380/380 379/379/379
f 383/383/383 382/382/382 381/381/381
f 381/381/381 384/384/384 383/383/383
f 387/387/387 386/386/386 385/385/385
f 385/385/385 388/388/388 387/387/387
f 391/391/391 390/390/390 389/389/389
f 389/389/389 392/392/392 391/391/391
