g shi_2_rw-mesh
v -320 307 0
v -320 1203 0
v -1216 1203 0
v -1216 307 0
v -1216 755 0
v -1216 1043 0
v -1504 1043 0
v -1504 755 0
v -1216 499 0
v -1216 755 0
v -1504 755 0
v -1504 499 0
v -1504 627 0
v -1504 915 0
v -1664 915 0
v -1664 627 0
v -256 915 0
v -256 1427 0
v -320 1427 0
v -320 915 0
v -320 1203 0
v -320 1363 0
v -512 1363 0
v -512 1203 0
v -256 435 0
v -256 915 0
v -320 915 0
v -320 435 0
v -1216 275 0
v -1216 499 0
v -1344 499 0
v -1344 275 0
v -672 211 0
v -672 307 0
v -928 307 0
v -928 211 0
v -928 211 0
v -928 307 0
v -1152 307 0
v -1152 211 0
v -1216 1043 0
v -1216 1139 0
v -1376 1139 0
v -1376 1043 0
v -768 1203 0
v -768 1267 0
v -960 1267 0
v -960 1203 0
v -192 1107 0
v -192 1267 0
v -256 1267 0
v -256 1107 0
v -960 1203 0
v -960 1267 0
v -1120 1267 0
v -1120 1203 0
v -192 1267 0
v -192 1427 0
v -256 1427 0
v -256 1267 0
v -352 211 0
v -352 307 0
v -448 307 0
v -448 211 0
v -512 1203 0
v -512 1299 0
v -608 1299 0
v -608 1203 0
v -1376 371 0
v -1376 499 0
v -1440 499 0
v -1440 371 0
v -1504 563 0
v -1504 627 0
v -1600 627 0
v -1600 563 0
v -1664 627 0
v -1664 723 0
v -1728 723 0
v -1728 627 0
v -992 147 0
v -992 211 0
v -1088 211 0
v -1088 147 0
v -224 531 0
v -224 723 0
v -256 723 0
v -256 531 0
v -224 723 0
v -224 915 0
v -256 915 0
v -256 723 0
v -352 147 0
v -352 211 0
v -416 211 0
v -416 147 0
v -1504 915 0
v -1504 979 0
v -1568 979 0
v -1568 915 0
v -608 1203 0
v -608 1235 0
v -704 1235 0
v -704 1203 0
v -192 787 0
v -192 883 0
v -224 883 0
v -224 787 0
v -864 1267 0
v -864 1299 0
v -960 1299 0
v -960 1267 0
v -192 691 0
v -192 787 0
v -224 787 0
v -224 691 0
v -1664 723 0
v -1664 787 0
v -1696 787 0
v -1696 723 0
v -1728 723 0
v -1728 787 0
v -1760 787 0
v -1760 723 0
v -1568 915 0
v -1568 947 0
v -1632 947 0
v -1632 915 0
v -1120 1203 0
v -1120 1235 0
v -1184 1235 0
v -1184 1203 0
v -1664 819 0
v -1664 883 0
v -1696 883 0
v -1696 819 0
v -1152 243 0
v -1152 307 0
v -1184 307 0
v -1184 243 0
v -320 115 0
v -320 147 0
v -384 147 0
v -384 115 0
v -1344 339 0
v -1344 403 0
v -1376 403 0
v -1376 339 0
v -1344 435 0
v -1344 499 0
v -1376 499 0
v -1376 435 0
v -1440 403 0
v -1440 467 0
v -1472 467 0
v -1472 403 0
v -544 275 0
v -544 307 0
v -608 307 0
v -608 275 0
v -320 1363 0
v -320 1395 0
v -384 1395 0
v -384 1363 0
v -960 1267 0
v -960 1299 0
v -1024 1299 0
v -1024 1267 0
v -480 275 0
v -480 307 0
v -544 307 0
v -544 275 0
v -704 1203 0
v -704 1235 0
v -768 1235 0
v -768 1203 0
v -160 1299 0
v -160 1363 0
v -192 1363 0
v -192 1299 0
v -1376 1043 0
v -1376 1075 0
v -1440 1075 0
v -1440 1043 0
v -320 275 0
v -320 307 0
v -352 307 0
v -352 275 0
v -1376 339 0
v -1376 371 0
v -1408 371 0
v -1408 339 0
v -160 755 0
v -160 787 0
v -192 787 0
v -192 755 0
v -1504 531 0
v -1504 563 0
v -1536 563 0
v -1536 531 0
v -288 403 0
v -288 435 0
v -320 435 0
v -320 403 0
v -960 179 0
v -960 211 0
v -992 211 0
v -992 179 0
v -1088 179 0
v -1088 211 0
v -1120 211 0
v -1120 179 0
v -896 147 0
v -896 179 0
v -928 179 0
v -928 147 0
v -1184 275 0
v -1184 307 0
v -1216 307 0
v -1216 275 0
v -864 179 0
v -864 211 0
v -896 211 0
v -896 179 0
v -1504 979 0
v -1504 1011 0
v -1536 1011 0
v -1536 979 0
v -320 1395 0
v -320 1427 0
v -352 1427 0
v -352 1395 0
v -512 1299 0
v -512 1331 0
v -544 1331 0
v -544 1299 0
v -384 1363 0
v -384 1395 0
v -416 1395 0
v -416 1363 0
v -1440 1043 0
v -1440 1075 0
v -1472 1075 0
v -1472 1043 0
v -160 1267 0
v -160 1299 0
v -192 1299 0
v -192 1267 0
v -224 1075 0
v -224 1107 0
v -256 1107 0
v -256 1075 0
v -1376 1075 0
v -1376 1107 0
v -1408 1107 0
v -1408 1075 0
v -1312 1139 0
v -1312 1171 0
v -1344 1171 0
v -1344 1139 0
v -608 1235 0
v -608 1267 0
v -640 1267 0
v -640 1235 0
v -1216 1139 0
v -1216 1171 0
v -1248 1171 0
v -1248 1139 0
vt 0.00048828125 0.00111359358
vt 0.00048828125 0.998886406
vt 0.437988281 0.998886406
vt 0.437988281 0.00111359358
vt 0.438964844 0.00111359358
vt 0.438964844 0.321826279
vt 0.579589844 0.321826279
vt 0.579589844 0.00111359358
vt 0.580566406 0.00111359358
vt 0.580566406 0.286191523
vt 0.721191406 0.286191523
vt 0.721191406 0.00111359358
vt 0.722167969 0.00111359358
vt 0.722167969 0.321826279
vt 0.800292969 0.321826279
vt 0.800292969 0.00111359358
vt 0.801269531 0.00111359358
vt 0.801269531 0.571269512
vt 0.832519531 0.571269512
vt 0.832519531 0.00111359358
vt 0.833496094 0.00111359358
vt 0.833496094 0.179287314
vt 0.927246094 0.179287314
vt 0.927246094 0.00111359358
vt 0.928222656 0.00111359358
vt 0.928222656 0.535634756
vt 0.959472656 0.535634756
vt 0.959472656 0.00111359358
vt 0.833496094 0.181514502
vt 0.833496094 0.430957675
vt 0.895996094 0.430957675
vt 0.895996094 0.181514502
vt 0.580566406 0.28841871
vt 0.580566406 0.395322919
vt 0.705566406 0.395322919
vt 0.705566406 0.28841871
vt 0.438964844 0.324053466
vt 0.438964844 0.430957675
vt 0.548339844 0.430957675
vt 0.548339844 0.324053466
vt 0.722167969 0.324053466
vt 0.722167969 0.430957675
vt 0.800292969 0.430957675
vt 0.800292969 0.324053466
vt 0.580566406 0.397550106
vt 0.580566406 0.468819618
vt 0.674316406 0.468819618
vt 0.674316406 0.397550106
vt 0.960449219 0.00111359358
vt 0.960449219 0.179287314
vt 0.991699219 0.179287314
vt 0.991699219 0.00111359358
vt 0.438964844 0.433184862
vt 0.438964844 0.504454374
vt 0.517089844 0.504454374
vt 0.517089844 0.433184862
vt 0.960449219 0.181514502
vt 0.960449219 0.359688222
vt 0.991699219 0.359688222
vt 0.991699219 0.181514502
vt 0.518066406 0.433184862
vt 0.518066406 0.54008913
vt 0.564941406 0.54008913
vt 0.564941406 0.433184862
vt 0.722167969 0.433184862
vt 0.722167969 0.54008913
vt 0.769042969 0.54008913
vt 0.769042969 0.433184862
vt 0.960449219 0.36191535
vt 0.960449219 0.504454374
vt 0.991699219 0.504454374
vt 0.991699219 0.36191535
vt 0.833496094 0.433184862
vt 0.833496094 0.504454374
vt 0.880371094 0.504454374
vt 0.880371094 0.433184862
vt 0.675292969 0.397550106
vt 0.675292969 0.504454374
vt 0.706542969 0.504454374
vt 0.706542969 0.397550106
vt 0.580566406 0.471046746
vt 0.580566406 0.542316258
vt 0.627441406 0.542316258
vt 0.627441406 0.471046746
vt 0.896972656 0.181514502
vt 0.896972656 0.395322919
vt 0.912597656 0.395322919
vt 0.912597656 0.181514502
vt 0.896972656 0.397550106
vt 0.896972656 0.611358583
vt 0.912597656 0.611358583
vt 0.912597656 0.397550106
vt 0.628417969 0.471046746
vt 0.628417969 0.542316258
vt 0.659667969 0.542316258
vt 0.659667969 0.471046746
vt 0.438964844 0.506681502
vt 0.438964844 0.577951014
vt 0.470214844 0.577951014
vt 0.470214844 0.506681502
vt 0.833496094 0.506681502
vt 0.833496094 0.542316258
vt 0.880371094 0.542316258
vt 0.880371094 0.506681502
vt 0.770019531 0.433184862
vt 0.770019531 0.54008913
vt 0.785644531 0.54008913
vt 0.785644531 0.433184862
vt 0.928222656 0.537861943
vt 0.928222656 0.573496699
vt 0.975097656 0.573496699
vt 0.975097656 0.537861943
vt 0.471191406 0.506681502
vt 0.471191406 0.613585711
vt 0.486816406 0.613585711
vt 0.486816406 0.506681502
vt 0.487792969 0.506681502
vt 0.487792969 0.577951014
vt 0.503417969 0.577951014
vt 0.503417969 0.506681502
vt 0.675292969 0.506681502
vt 0.675292969 0.577951014
vt 0.690917969 0.577951014
vt 0.690917969 0.506681502
vt 0.518066406 0.542316258
vt 0.518066406 0.577951014
vt 0.549316406 0.577951014
vt 0.549316406 0.542316258
vt 0.722167969 0.542316258
vt 0.722167969 0.577951014
vt 0.753417969 0.577951014
vt 0.753417969 0.542316258
vt 0.691894531 0.506681502
vt 0.691894531 0.577951014
vt 0.707519531 0.577951014
vt 0.707519531 0.506681502
vt 0.976074219 0.506681502
vt 0.976074219 0.577951014
vt 0.991699219 0.577951014
vt 0.991699219 0.506681502
vt 0.754394531 0.542316258
vt 0.754394531 0.577951014
vt 0.785644531 0.577951014
vt 0.785644531 0.542316258
vt 0.550292969 0.542316258
vt 0.550292969 0.613585711
vt 0.565917969 0.613585711
vt 0.565917969 0.542316258
vt 0.580566406 0.544543386
vt 0.580566406 0.615812898
vt 0.596191406 0.615812898
vt 0.596191406 0.544543386
vt 0.597167969 0.544543386
vt 0.597167969 0.615812898
vt 0.612792969 0.615812898
vt 0.612792969 0.544543386
vt 0.613769531 0.544543386
vt 0.613769531 0.580178142
vt 0.645019531 0.580178142
vt 0.645019531 0.544543386
vt 0.833496094 0.544543386
vt 0.833496094 0.580178142
vt 0.864746094 0.580178142
vt 0.864746094 0.544543386
vt 0.801269531 0.573496699
vt 0.801269531 0.609131396
vt 0.832519531 0.609131396
vt 0.832519531 0.573496699
vt 0.928222656 0.575723827
vt 0.928222656 0.611358583
vt 0.959472656 0.611358583
vt 0.959472656 0.575723827
vt 0.438964844 0.580178142
vt 0.438964844 0.615812898
vt 0.470214844 0.615812898
vt 0.470214844 0.580178142
vt 0.645996094 0.544543386
vt 0.645996094 0.615812898
vt 0.661621094 0.615812898
vt 0.661621094 0.544543386
vt 0.487792969 0.580178142
vt 0.487792969 0.615812898
vt 0.519042969 0.615812898
vt 0.519042969 0.580178142
vt 0.865722656 0.544543386
vt 0.865722656 0.580178142
vt 0.881347656 0.580178142
vt 0.881347656 0.544543386
vt 0.520019531 0.580178142
vt 0.520019531 0.615812898
vt 0.535644531 0.615812898
vt 0.535644531 0.580178142
vt 0.675292969 0.580178142
vt 0.675292969 0.615812898
vt 0.690917969 0.615812898
vt 0.690917969 0.580178142
vt 0.691894531 0.580178142
vt 0.691894531 0.615812898
vt 0.707519531 0.615812898
vt 0.707519531 0.580178142
vt 0.722167969 0.580178142
vt 0.722167969 0.615812898
vt 0.737792969 0.615812898
vt 0.737792969 0.580178142
vt 0.738769531 0.580178142
vt 0.738769531 0.615812898
vt 0.754394531 0.615812898
vt 0.754394531 0.580178142
vt 0.755371094 0.580178142
vt 0.755371094 0.615812898
vt 0.770996094 0.615812898
vt 0.770996094 0.580178142
vt 0.771972656 0.580178142
vt 0.771972656 0.615812898
vt 0.787597656 0.615812898
vt 0.787597656 0.580178142
vt 0.976074219 0.580178142
vt 0.976074219 0.615812898
vt 0.991699219 0.615812898
vt 0.991699219 0.580178142
vt 0.613769531 0.582405329
vt 0.613769531 0.618040085
vt 0.629394531 0.618040085
vt 0.629394531 0.582405329
vt 0.833496094 0.582405329
vt 0.833496094 0.618040085
vt 0.849121094 0.618040085
vt 0.849121094 0.582405329
vt 0.850097656 0.582405329
vt 0.850097656 0.618040085
vt 0.865722656 0.618040085
vt 0.865722656 0.582405329
vt 0.866699219 0.582405329
vt 0.866699219 0.618040085
vt 0.882324219 0.618040085
vt 0.882324219 0.582405329
vt 0.801269531 0.611358583
vt 0.801269531 0.646993279
vt 0.816894531 0.646993279
vt 0.816894531 0.611358583
vt 0.896972656 0.613585711
vt 0.896972656 0.649220467
vt 0.912597656 0.649220467
vt 0.912597656 0.613585711
vt 0.928222656 0.613585711
vt 0.928222656 0.649220467
vt 0.943847656 0.649220467
vt 0.943847656 0.613585711
vt 0.944824219 0.613585711
vt 0.944824219 0.649220467
vt 0.960449219 0.649220467
vt 0.960449219 0.613585711
vt 0.471191406 0.615812898
vt 0.471191406 0.651447654
vt 0.486816406 0.651447654
vt 0.486816406 0.615812898
vt 0.550292969 0.615812898
vt 0.550292969 0.651447654
vt 0.565917969 0.651447654
vt 0.565917969 0.615812898
vt 0.438964844 0.618040085
vt 0.438964844 0.653674841
vt 0.454589844 0.653674841
vt 0.454589844 0.618040085
vt 0.487792969 0.618040085
vt 0.487792969 0.653674841
vt 0.503417969 0.653674841
vt 0.503417969 0.618040085
g shi_2_rw-mesh_0
f 3/3/3 2/2/2 1/1/1
f 1/1/1 4/4/4 3/3/3
f 7/7/7 6/6/6 5/5/5
f 5/5/5 8/8/8 7/7/7
f 11/11/11 10/10/10 9/9/9
f 9/9/9 12/12/12 11/11/11
f 15/15/15 14/14/14 13/13/13
f 13/13/13 16/16/16 15/15/15
f 19/19/19 18/18/18 17/17/17
f 17/17/17 20/20/20 19/19/19
f 23/23/23 22/22/22 21/21/21
f 21/21/21 24/24/24 23/23/23
f 27/27/27 26/26/26 25/25/25
f 25/25/25 28/28/28 27/27/27
f 31/31/31 30/30/30 29/29/29
f 29/29/29 32/32/32 31/31/31
f 35/35/35 34/34/34 33/33/33
f 33/33/33 36/36/36 35/35/35
f 39/39/39 38/38/38 37/37/37
f 37/37/37 40/40/40 39/39/39
f 43/43/43 42/42/42 41/41/41
f 41/41/41 44/44/44 43/43/43
f 47/47/47 46/46/46 45/45/45
f 45/45/45 48/48/48 47/47/47
f 51/51/51 50/50/50 49/49/49
f 49/49/49 52/52/52 51/51/51
f 55/55/55 54/54/54 53/53/53
f 53/53/53 56/56/56 55/55/55
f 59/59/59 58/58/58 57/57/57
f 57/57/57 60/60/60 59/59/59
f 63/63/63 62/62/62 61/61/61
f 61/61/61 64/64/64 63/63/63
f 67/67/67 66/66/66 65/65/65
f 65/65/65 68/68/68 67/67/67
f 71/71/71 70/70/70 69/69/69
f 69/69/69 72/72/72 71/71/71
f 75/75/75 74/74/74 73/73/73
f 73/73/73 76/76/76 75/75/75
f 79/79/79 78/78/78 77/77/77
f 77/77/77 80/80/80 79/79/79
f 83/83/83 82/82/82 81/81/81
f 81/81/81 84/84/84 83/83/83
f 87/87/87 86/86/86 85/85/85
f 85/85/85 88/88/88 87/87/87
f 91/91/91 90/90/90 89/89/89
f 89/89/89 92/92/92 91/91/91
f 95/95/95 94/94/94 93/93/93
f 93/93/93 96/96/96 95/95/95
f 99/99/99 98/98/98 97/97/97
f 97/97/97 100/100/100 99/99/99
f 103/103/103 102/102/102 101/101/101
f 101/101/101 104/104/104 103/103/103
f 107/107/107 106/106/106 105/105/105
f 105/105/105 108/108/108 107/107/107
f 111/111/111 110/110/110 109/109/109
f 109/109/109 112/112/112 111/111/111
f 115/115/115 114/114/114 113/113/113
f 113/113/113 116/116/116 115/115/115
f 119/119/119 118/118/118 117/117/117
f 117/117/117 120/120/120 119/119/119
f 123/123/123 122/122/122 121/121/121
f 121/121/121 124/124/124 123/123/123
f 127/127/127 126/126/126 125/125/125
f 125/125/125 128/128/128 127/127/127
f 131/131/131 130/130/130 129/129/129
f 129/129/129 132/132/132 131/131/131
f 135/135/135 134/134/134 133/133/133
f 133/133/133 136/136/136 135/135/135
f 139/139/139 138/138/138 137/137/137
f 137/137/137 140/140/140 139/139/139
f 143/143/143 142/142/142 141/141/141
f 141/141/141 144/144/144 143/143/143
f 147/147/147 146/146/146 145/145/145
f 145/145/145 148/148/148 147/147/147
f 151/151/151 150/150/150 149/149/149
f 149/149/149 152/152/152 151/151/151
f 155/155/155 154/154/154 153/153/153
f 153/153/153 156/156/156 155/155/155
f 159/159/159 158/158/158 157/157/157
f 157/157/157 160/160/160 159/159/159
f 163/163/163 162/162/162 161/161/161
f 161/161/161 164/164/164 163/163/163
f 167/167/167 166/166/166 165/165/165
f 165/165/165 168/168/168 167/167/167
f 171/171/171 170/170/170 169/169/169
f 169/169/169 172/172/172 171/171/171
f 175/175/175 174/174/174 173/173/173
f 173/173/173 176/176/176 175/175/175
f 179/179/179 178/178/178 177/177/177
f 177/177/177 180/180/180 179/179/179
f 183/183/183 182/182/182 181/181/181
f 181/181/181 184/184/184 183/183/183
f 187/187/187 186/186/186 185/185/185
f 185/185/185 188/188/188 187/187/187
f 191/191/191 190/190/190 189/189/189
f 189/189/189 192/192/192 191/191/191
f 195/195/195 194/194/194 193/193/193
f 193/193/193 196/196/196 195/195/195
f 199/199/199 198/198/198 197/197/197
f 197/197/197 200/200/200 199/199/199
f 203/203/203 202/202/202 201/201/201
f 201/201/201 204/204/204 203/203/203
f 207/207/207 206/206/206 205/205/205
f 205/205/205 208/208/208 207/207/207
f 211/211/211 210/210/210 209/209/209
f 209/209/209 212/212/212 211/211/211
f 215/215/215 214/214/214 213/213/213
f 213/213/213 216/216/216 215/215/215
f 219/219/219 218/218/218 217/217/217
f 217/217/217 220/220/220 219/219/219
f 223/223/223 222/222/222 221/221/221
f 221/221/221 224/224/224 223/223/223
f 227/227/227 226/226/226 225/225/225
f 225/225/225 228/228/228 227/227/227
f 231/231/231 230/230/230 229/229/229
f 229/229/229 232/232/232 231/231/231
f 235/235/235 234/234/234 233/233/233
f 233/233/233 236/236/236 235/235/235
f 239/239/239 238/238/238 237/237/237
f 237/237/237 240/240/240 239/239/239
f 243/243/243 242/242/242 241/241/241
f 241/241/241 244/244/244 243/243/243
f 247/247/247 246/246/246 245/245/245
f 245/245/245 248/248/248 247/247/247
f 251/251/251 250/250/250 249/249/249
f 249/249/249 252/252/252 251/251/251
f 255/255/255 254/254/254 253/253/253
f 253/253/253 256/256/256 255/255/255
f 259/259/259 258/258/258 257/257/257
f 257/257/257 260/260/260 259/259/259
f 263/263/263 262/262/262 261/261/261
f 261/261/261 264/264/264 263/263/263
f 267/267/267 266/266/266 265/265/265
f 265/265/265 268/268/268 267/267/267
