g lila_2-mesh
v -160 639 0
v -160 1247 0
v -1152 1247 0
v -1152 639 0
v -160 63 0
v -160 639 0
v -1152 639 0
v -1152 63 0
v -256 1247 0
v -256 1759 0
v -608 1759 0
v -608 1247 0
v -608 1247 0
v -608 1759 0
v -928 1759 0
v -928 1247 0
v -1152 479 0
v -1152 927 0
v -1376 927 0
v -1376 479 0
v -1152 63 0
v -1152 479 0
v -1376 479 0
v -1376 63 0
v -288 1759 0
v -288 1951 0
v -608 1951 0
v -608 1759 0
v -32 319 0
v -32 575 0
v -160 575 0
v -160 319 0
v -32 63 0
v -32 319 0
v -160 319 0
v -160 63 0
v -928 1247 0
v -928 1471 0
v -1056 1471 0
v -1056 1247 0
v -1152 1023 0
v -1152 1247 0
v -1248 1247 0
v -1248 1023 0
v -608 1759 0
v -608 1855 0
v -768 1855 0
v -768 1759 0
v -1376 191 0
v -1376 383 0
v -1440 383 0
v -1440 191 0
v -1280 927 0
v -1280 1023 0
v -1408 1023 0
v -1408 927 0
v -1376 0 0
v -1376 191 0
v -1440 191 0
v -1440 0 0
v -1440 0 0
v -1440 127 0
v -1480 127 0
v -1480 0 0
v -128 831 0
v -128 1087 0
v -160 1087 0
v -160 831 0
v -128 575 0
v -128 831 0
v -160 831 0
v -160 575 0
v -0 127 0
v -0 319 0
v -32 319 0
v -32 127 0
v -928 1631 0
v -928 1727 0
v -992 1727 0
v -992 1631 0
v -448 1951 0
v -448 2015 0
v -544 2015 0
v -544 1951 0
v -352 1951 0
v -352 2015 0
v -448 2015 0
v -448 1951 0
v -0 319 0
v -0 511 0
v -32 511 0
v -32 319 0
v -1440 543 0
v -1440 607 0
v -1480 607 0
v -1480 543 0
v -1376 799 0
v -1376 927 0
v -1408 927 0
v -1408 799 0
v -96 575 0
v -96 703 0
v -128 703 0
v -128 575 0
v -96 703 0
v -96 831 0
v -128 831 0
v -128 703 0
v -1376 383 0
v -1376 511 0
v -1408 511 0
v -1408 383 0
v -1376 511 0
v -1376 639 0
v -1408 639 0
v -1408 511 0
v -1344 1023 0
v -1344 1055 0
v -1440 1055 0
v -1440 1023 0
v -1376 703 0
v -1376 799 0
v -1408 799 0
v -1408 703 0
v -1056 1311 0
v -1056 1407 0
v -1088 1407 0
v -1088 1311 0
v -64 607 0
v -64 671 0
v -96 671 0
v -96 607 0
v -928 1471 0
v -928 1503 0
v -992 1503 0
v -992 1471 0
v -1088 1247 0
v -1088 1279 0
v -1152 1279 0
v -1152 1247 0
v -1184 927 0
v -1184 959 0
v -1248 959 0
v -1248 927 0
v -1440 159 0
v -1440 223 0
v -1472 223 0
v -1472 159 0
v -1408 511 0
v -1408 575 0
v -1440 575 0
v -1440 511 0
v -1312 31 0
v -1312 63 0
v -1376 63 0
v -1376 31 0
v -1440 639 0
v -1440 703 0
v -1472 703 0
v -1472 639 0
v -928 1567 0
v -928 1631 0
v -960 1631 0
v -960 1567 0
v -1440 895 0
v -1440 959 0
v -1472 959 0
v -1472 895 0
v -768 1759 0
v -768 1791 0
v -832 1791 0
v -832 1759 0
v -1248 1119 0
v -1248 1183 0
v -1280 1183 0
v -1280 1119 0
v -1248 1055 0
v -1248 1119 0
v -1280 1119 0
v -1280 1055 0
v -384 2015 0
v -384 2047 0
v -448 2047 0
v -448 2015 0
v -1440 1023 0
v -1440 1055 0
v -1480 1055 0
v -1480 1023 0
v -224 1311 0
v -224 1375 0
v -256 1375 0
v -256 1311 0
v -224 1247 0
v -224 1311 0
v -256 1311 0
v -256 1247 0
v -1056 1247 0
v -1056 1311 0
v -1088 1311 0
v -1088 1247 0
v -608 1855 0
v -608 1887 0
v -672 1887 0
v -672 1855 0
v -1344 0 0
v -1344 31 0
v -1376 31 0
v -1376 0 0
v -1440 1055 0
v -1440 1087 0
v -1472 1087 0
v -1472 1055 0
v -256 1759 0
v -256 1791 0
v -288 1791 0
v -288 1759 0
v -992 1663 0
v -992 1695 0
v -1024 1695 0
v -1024 1663 0
v -928 1503 0
v -928 1535 0
v -960 1535 0
v -960 1503 0
v -1248 959 0
v -1248 991 0
v -1280 991 0
v -1280 959 0
v -1408 735 0
v -1408 767 0
v -1440 767 0
v -1440 735 0
v -1472 927 0
v -1472 959 0
v -1480 959 0
v -1480 927 0
v -1408 639 0
v -1408 671 0
v -1440 671 0
v -1440 639 0
v -1152 991 0
v -1152 1023 0
v -1184 1023 0
v -1184 991 0
v -1472 735 0
v -1472 767 0
v -1480 767 0
v -1480 735 0
v -768 1791 0
v -768 1823 0
v -800 1823 0
v -800 1791 0
v -448 2015 0
v -448 2047 0
v -480 2047 0
v -480 2015 0
v -1248 927 0
v -1248 959 0
v -1280 959 0
v -1280 927 0
v -1152 1247 0
v -1152 1279 0
v -1184 1279 0
v -1184 1247 0
v -672 1855 0
v -672 1887 0
v -704 1887 0
v -704 1855 0
v -992 1471 0
v -992 1503 0
v -1024 1503 0
v -1024 1471 0
v -64 575 0
v -64 607 0
v -96 607 0
v -96 575 0
v -544 1951 0
v -544 1983 0
v -576 1983 0
v -576 1951 0
v -608 1887 0
v -608 1919 0
v -640 1919 0
v -640 1887 0
v -320 1951 0
v -320 1983 0
v -352 1983 0
v -352 1951 0
v -1440 127 0
v -1440 159 0
v -1472 159 0
v -1472 127 0
v -832 1759 0
v -832 1791 0
v -864 1791 0
v -864 1759 0
vt 0.00048828125 0.000914096832
vt 0.00048828125 0.556672752
vt 0.484863281 0.556672752
vt 0.484863281 0.000914096832
vt 0.485839844 0.000914096832
vt 0.485839844 0.527422309
vt 0.970214844 0.527422309
vt 0.970214844 0.000914096832
vt 0.485839844 0.529250443
vt 0.485839844 0.997257769
vt 0.657714844 0.997257769
vt 0.657714844 0.529250443
vt 0.658691406 0.529250443
vt 0.658691406 0.997257769
vt 0.814941406 0.997257769
vt 0.814941406 0.529250443
vt 0.815917969 0.529250443
vt 0.815917969 0.938756883
vt 0.925292969 0.938756883
vt 0.925292969 0.529250443
vt 0.00048828125 0.558500886
vt 0.00048828125 0.938756883
vt 0.109863281 0.938756883
vt 0.109863281 0.558500886
vt 0.110839844 0.558500886
vt 0.110839844 0.734003663
vt 0.267089844 0.734003663
vt 0.267089844 0.558500886
vt 0.926269531 0.529250443
vt 0.926269531 0.763254106
vt 0.988769531 0.763254106
vt 0.988769531 0.529250443
vt 0.268066406 0.558500886
vt 0.268066406 0.792504549
vt 0.330566406 0.792504549
vt 0.330566406 0.558500886
vt 0.331542969 0.558500886
vt 0.331542969 0.763254106
vt 0.394042969 0.763254106
vt 0.394042969 0.558500886
vt 0.395019531 0.558500886
vt 0.395019531 0.763254106
vt 0.441894531 0.763254106
vt 0.441894531 0.558500886
vt 0.110839844 0.735831797
vt 0.110839844 0.823583186
vt 0.188964844 0.823583186
vt 0.188964844 0.735831797
vt 0.442871094 0.558500886
vt 0.442871094 0.734003663
vt 0.474121094 0.734003663
vt 0.474121094 0.558500886
vt 0.189941406 0.735831797
vt 0.189941406 0.823583186
vt 0.252441406 0.823583186
vt 0.252441406 0.735831797
vt 0.442871094 0.735831797
vt 0.442871094 0.911334574
vt 0.474121094 0.911334574
vt 0.474121094 0.735831797
vt 0.331542969 0.76508224
vt 0.331542969 0.882084072
vt 0.3515625 0.882084072
vt 0.3515625 0.76508224
vt 0.352539062 0.76508224
vt 0.352539062 0.999085903
vt 0.368164062 0.999085903
vt 0.368164062 0.76508224
vt 0.369140625 0.76508224
vt 0.369140625 0.999085903
vt 0.384765625 0.999085903
vt 0.384765625 0.76508224
vt 0.385742188 0.76508224
vt 0.385742188 0.940585017
vt 0.401367188 0.940585017
vt 0.401367188 0.76508224
vt 0.40234375 0.76508224
vt 0.40234375 0.852833629
vt 0.43359375 0.852833629
vt 0.43359375 0.76508224
vt 0.926269531 0.76508224
vt 0.926269531 0.823583186
vt 0.973144531 0.823583186
vt 0.973144531 0.76508224
vt 0.268066406 0.794332743
vt 0.268066406 0.852833629
vt 0.314941406 0.852833629
vt 0.314941406 0.794332743
vt 0.974121094 0.76508224
vt 0.974121094 0.940585017
vt 0.989746094 0.940585017
vt 0.989746094 0.76508224
vt 0.110839844 0.82541132
vt 0.110839844 0.883912265
vt 0.130859375 0.883912265
vt 0.130859375 0.82541132
vt 0.131835938 0.82541132
vt 0.131835938 0.942413151
vt 0.147460938 0.942413151
vt 0.147460938 0.82541132
vt 0.1484375 0.82541132
vt 0.1484375 0.942413151
vt 0.1640625 0.942413151
vt 0.1640625 0.82541132
vt 0.165039062 0.82541132
vt 0.165039062 0.942413151
vt 0.180664062 0.942413151
vt 0.180664062 0.82541132
vt 0.181640625 0.82541132
vt 0.181640625 0.942413151
vt 0.197265625 0.942413151
vt 0.197265625 0.82541132
vt 0.198242188 0.82541132
vt 0.198242188 0.942413151
vt 0.213867188 0.942413151
vt 0.213867188 0.82541132
vt 0.21484375 0.82541132
vt 0.21484375 0.854661822
vt 0.26171875 0.854661822
vt 0.26171875 0.82541132
vt 0.926269531 0.82541132
vt 0.926269531 0.913162708
vt 0.941894531 0.913162708
vt 0.941894531 0.82541132
vt 0.942871094 0.82541132
vt 0.942871094 0.913162708
vt 0.958496094 0.913162708
vt 0.958496094 0.82541132
vt 0.268066406 0.854661822
vt 0.268066406 0.913162708
vt 0.283691406 0.913162708
vt 0.283691406 0.854661822
vt 0.284667969 0.854661822
vt 0.284667969 0.883912265
vt 0.315917969 0.883912265
vt 0.315917969 0.854661822
vt 0.40234375 0.854661822
vt 0.40234375 0.883912265
vt 0.43359375 0.883912265
vt 0.43359375 0.854661822
vt 0.21484375 0.856489956
vt 0.21484375 0.885740399
vt 0.24609375 0.885740399
vt 0.24609375 0.856489956
vt 0.247070312 0.856489956
vt 0.247070312 0.914990842
vt 0.262695312 0.914990842
vt 0.262695312 0.856489956
vt 0.331542969 0.883912265
vt 0.331542969 0.942413151
vt 0.347167969 0.942413151
vt 0.347167969 0.883912265
vt 0.284667969 0.885740399
vt 0.284667969 0.914990842
vt 0.315917969 0.914990842
vt 0.315917969 0.885740399
vt 0.110839844 0.885740399
vt 0.110839844 0.944241285
vt 0.126464844 0.944241285
vt 0.126464844 0.885740399
vt 0.40234375 0.885740399
vt 0.40234375 0.944241285
vt 0.41796875 0.944241285
vt 0.41796875 0.885740399
vt 0.418945312 0.885740399
vt 0.418945312 0.944241285
vt 0.434570312 0.944241285
vt 0.434570312 0.885740399
vt 0.21484375 0.887568533
vt 0.21484375 0.916819036
vt 0.24609375 0.916819036
vt 0.24609375 0.887568533
vt 0.442871094 0.913162708
vt 0.442871094 0.971663594
vt 0.458496094 0.971663594
vt 0.458496094 0.913162708
vt 0.459472656 0.913162708
vt 0.459472656 0.971663594
vt 0.475097656 0.971663594
vt 0.475097656 0.913162708
vt 0.926269531 0.914990842
vt 0.926269531 0.944241285
vt 0.957519531 0.944241285
vt 0.957519531 0.914990842
vt 0.247070312 0.916819036
vt 0.247070312 0.946069479
vt 0.267089844 0.946069479
vt 0.267089844 0.916819036
vt 0.268066406 0.914990842
vt 0.268066406 0.973491788
vt 0.283691406 0.973491788
vt 0.283691406 0.914990842
vt 0.284667969 0.916819036
vt 0.284667969 0.975319922
vt 0.300292969 0.975319922
vt 0.300292969 0.916819036
vt 0.301269531 0.916819036
vt 0.301269531 0.975319922
vt 0.316894531 0.975319922
vt 0.316894531 0.916819036
vt 0.21484375 0.91864717
vt 0.21484375 0.947897613
vt 0.24609375 0.947897613
vt 0.24609375 0.91864717
vt 0.00048828125 0.940585017
vt 0.00048828125 0.96983546
vt 0.0161132812 0.96983546
vt 0.0161132812 0.940585017
vt 0.0170898438 0.940585017
vt 0.0170898438 0.96983546
vt 0.0327148438 0.96983546
vt 0.0327148438 0.940585017
vt 0.0336914062 0.940585017
vt 0.0336914062 0.96983546
vt 0.0493164062 0.96983546
vt 0.0493164062 0.940585017
vt 0.0502929688 0.940585017
vt 0.0502929688 0.96983546
vt 0.0659179688 0.96983546
vt 0.0659179688 0.940585017
vt 0.0668945312 0.940585017
vt 0.0668945312 0.96983546
vt 0.0825195312 0.96983546
vt 0.0825195312 0.940585017
vt 0.0834960938 0.940585017
vt 0.0834960938 0.96983546
vt 0.0991210938 0.96983546
vt 0.0991210938 0.940585017
vt 0.815917969 0.940585017
vt 0.815917969 0.96983546
vt 0.831542969 0.96983546
vt 0.831542969 0.940585017
vt 0.990722656 0.000914096832
vt 0.990722656 0.0301645398
vt 0.995117188 0.0301645398
vt 0.995117188 0.000914096832
vt 0.832519531 0.940585017
vt 0.832519531 0.96983546
vt 0.848144531 0.96983546
vt 0.848144531 0.940585017
vt 0.849121094 0.940585017
vt 0.849121094 0.96983546
vt 0.864746094 0.96983546
vt 0.864746094 0.940585017
vt 0.990722656 0.0319926739
vt 0.990722656 0.0612431169
vt 0.995117188 0.0612431169
vt 0.995117188 0.0319926739
vt 0.865722656 0.940585017
vt 0.865722656 0.96983546
vt 0.881347656 0.96983546
vt 0.881347656 0.940585017
vt 0.882324219 0.940585017
vt 0.882324219 0.96983546
vt 0.897949219 0.96983546
vt 0.897949219 0.940585017
vt 0.898925781 0.940585017
vt 0.898925781 0.96983546
vt 0.914550781 0.96983546
vt 0.914550781 0.940585017
vt 0.385742188 0.942413151
vt 0.385742188 0.971663594
vt 0.401367188 0.971663594
vt 0.401367188 0.942413151
vt 0.974121094 0.942413151
vt 0.974121094 0.971663594
vt 0.989746094 0.971663594
vt 0.989746094 0.942413151
vt 0.131835938 0.944241285
vt 0.131835938 0.973491788
vt 0.147460938 0.973491788
vt 0.147460938 0.944241285
vt 0.1484375 0.944241285
vt 0.1484375 0.973491788
vt 0.1640625 0.973491788
vt 0.1640625 0.944241285
vt 0.165039062 0.944241285
vt 0.165039062 0.973491788
vt 0.180664062 0.973491788
vt 0.180664062 0.944241285
vt 0.181640625 0.944241285
vt 0.181640625 0.973491788
vt 0.197265625 0.973491788
vt 0.197265625 0.944241285
vt 0.198242188 0.944241285
vt 0.198242188 0.973491788
vt 0.213867188 0.973491788
vt 0.213867188 0.944241285
vt 0.331542969 0.944241285
vt 0.331542969 0.973491788
vt 0.347167969 0.973491788
vt 0.347167969 0.944241285
vt 0.110839844 0.946069479
vt 0.110839844 0.975319922
vt 0.126464844 0.975319922
vt 0.126464844 0.946069479
g lila_2-mesh_0
f 3/3/3 2/2/2 1/1/1
f 1/1/1 4/4/4 3/3/3
f 7/7/7 6/6/6 5/5/5
f 5/5/5 8/8/8 7/7/7
f 11/11/11 10/10/10 9/9/9
f 9/9/9 12/12/12 11/11/11
f 15/15/15 14/14/14 13/13/13
f 13/13/13 16/16/16 15/15/15
f 19/19/19 18/18/18 17/17/17
f 17/17/17 20/20/20 19/19/19
f 23/23/23 22/22/22 21/21/21
f 21/21/21 24/24/24 23/23/23
f 27/27/27 26/26/26 25/25/25
f 25/25/25 28/28/28 27/27/27
f 31/31/31 30/30/30 29/29/29
f 29/29/29 32/32/32 31/31/31
f 35/35/35 34/34/34 33/33/33
f 33/33/33 36/36/36 35/35/35
f 39/39/39 38/38/38 37/37/37
f 37/37/37 40/40/40 39/39/39
f 43/43/43 42/42/42 41/41/41
f 41/41/41 44/44/44 43/43/43
f 47/47/47 46/46/46 45/45/45
f 45/45/45 48/48/48 47/47/47
f 51/51/51 50/50/50 49/49/49
f 49/49/49 52/52/52 51/51/51
f 55/55/55 54/54/54 53/53/53
f 53/53/53 56/56/56 55/55/55
f 59/59/59 58/58/58 57/57/57
f 57/57/57 60/60/60 59/59/59
f 63/63/63 62/62/62 61/61/61
f 61/61/61 64/64/64 63/63/63
f 67/67/67 66/66/66 65/65/65
f 65/65/65 68/68/68 67/67/67
f 71/71/71 70/70/70 69/69/69
f 69/69/69 72/72/72 71/71/71
f 75/75/75 74/74/74 73/73/73
f 73/73/73 76/76/76 75/75/75
f 79/79/79 78/78/78 77/77/77
f 77/77/77 80/80/80 79/79/79
f 83/83/83 82/82/82 81/81/81
f 81/81/81 84/84/84 83/83/83
f 87/87/87 86/86/86 85/85/85
f 85/85/85 88/88/88 87/87/87
f 91/91/91 90/90/90 89/89/89
f 89/89/89 92/92/92 91/91/91
f 95/95/95 94/94/94 93/93/93
f 93/93/93 96/96/96 95/95/95
f 99/99/99 98/98/98 97/97/97
f 97/97/97 100/100/100 99/99/99
f 103/103/103 102/102/102 101/101/101
f 101/101/101 104/104/104 103/103/103
f 107/107/107 106/106/106 105/105/105
f 105/105/105 108/108/108 107/107/107
f 111/111/111 110/110/110 109/109/109
f 109/109/109 112/112/112 111/111/111
f 115/115/115 114/114/114 113/113/113
f 113/113/113 116/116/116 115/115/115
f 119/119/119 118/118/118 117/117/117
f 117/117/117 120/120/120 119/119/119
f 123/123/123 122/122/122 121/121/121
f 121/121/121 124/124/124 123/123/123
f 127/127/127 126/126/126 125/125/125
f 125/125/125 128/128/128 127/127/127
f 131/131/131 130/130/130 129/129/129
f 129/129/129 132/132/132 131/131/131
f 135/135/135 134/134/134 133/133/133
f 133/133/133 136/136/136 135/135/135
f 139/139/139 138/138/138 137/137/137
f 137/137/137 140/140/140 139/139/139
f 143/143/143 142/142/142 141/141/141
f 141/141/141 144/144/144 143/143/143
f 147/147/147 146/146/146 145/145/145
f 145/145/145 148/148/148 147/147/147
f 151/151/151 150/150/150 149/149/149
f 149/149/149 152/152/152 151/151/151
f 155/155/155 154/154/154 153/153/153
f 153/153/153 156/156/156 155/155/155
f 159/159/159 158/158/158 157/157/157
f 157/157/157 160/160/160 159/159/159
f 163/163/163 162/162/162 161/161/161
f 161/161/161 164/164/164 163/163/163
f 167/167/167 166/166/166 165/165/165
f 165/165/165 168/168/168 167/167/167
f 171/171/171 170/170/170 169/169/169
f 169/169/169 172/172/172 171/171/171
f 175/175/175 174/174/174 173/173/173
f 173/173/173 176/176/176 175/175/175
f 179/179/179 178/178/178 177/177/177
f 177/177/177 180/180/180 179/179/179
f 183/183/183 182/182/182 181/181/181
f 181/181/181 184/184/184 183/183/183
f 187/187/187 186/186/186 185/185/185
f 185/185/185 188/188/188 187/187/187
f 191/191/191 190/190/190 189/189/189
f 189/189/189 192/192/192 191/191/191
f 195/195/195 194/194/194 193/193/193
f 193/193/193 196/196/196 195/195/195
f 199/199/199 198/198/198 197/197/197
f 197/197/197 200/200/200 199/199/199
f 203/203/203 202/202/202 201/201/201
f 201/201/201 204/204/204 203/203/203
f 207/207/207 206/206/206 205/205/205
f 205/205/205 208/208/208 207/207/207
f 211/211/211 210/210/210 209/209/209
f 209/209/209 212/212/212 211/211/211
f 215/215/215 214/214/214 213/213/213
f 213/213/213 216/216/216 215/215/215
f 219/219/219 218/218/218 217/217/217
f 217/217/217 220/220/220 219/219/219
f 223/223/223 222/222/222 221/221/221
f 221/221/221 224/224/224 223/223/223
f 227/227/227 226/226/226 225/225/225
f 225/225/225 228/228/228 227/227/227
f 231/231/231 230/230/230 229/229/229
f 229/229/229 232/232/232 231/231/231
f 235/235/235 234/234/234 233/233/233
f 233/233/233 236/236/236 235/235/235
f 239/239/239 238/238/238 237/237/237
f 237/237/237 240/240/240 239/239/239
f 243/243/243 242/242/242 241/241/241
f 241/241/241 244/244/244 243/243/243
f 247/247/247 246/246/246 245/245/245
f 245/245/245 248/248/248 247/247/247
f 251/251/251 250/250/250 249/249/249
f 249/249/249 252/252/252 251/251/251
f 255/255/255 254/254/254 253/253/253
f 253/253/253 256/256/256 255/255/255
f 259/259/259 258/258/258 257/257/257
f 257/257/257 260/260/260 259/259/259
f 263/263/263 262/262/262 261/261/261
f 261/261/261 264/264/264 263/263/263
f 267/267/267 266/266/266 265/265/265
f 265/265/265 268/268/268 267/267/267
f 271/271/271 270/270/270 269/269/269
f 269/269/269 272/272/272 271/271/271
f 275/275/275 274/274/274 273/273/273
f 273/273/273 276/276/276 275/275/275
f 279/279/279 278/278/278 277/277/277
f 277/277/277 280/280/280 279/279/279
f 283/283/283 282/282/282 281/281/281
f 281/281/281 284/284/284 283/283/283
f 287/287/287 286/286/286 285/285/285
f 285/285/285 288/288/288 287/287/287
f 291/291/291 290/290/290 289/289/289
f 289/289/289 292/292/292 291/291/291
f 295/295/295 294/294/294 293/293/293
f 293/293/293 296/296/296 295/295/295
