g dunkeerke_3-mesh
v -288 279 0
v -288 567 0
v -704 567 0
v -704 279 0
v -288 23 0
v -288 279 0
v -704 279 0
v -704 23 0
v -160 567 0
v -160 951 0
v -256 951 0
v -256 567 0
v -160 951 0
v -160 1335 0
v -256 1335 0
v -256 951 0
v -608 599 0
v -608 823 0
v -736 823 0
v -736 599 0
v -608 823 0
v -608 1047 0
v -736 1047 0
v -736 823 0
v -64 727 0
v -64 951 0
v -160 951 0
v -160 727 0
v -128 343 0
v -128 439 0
v -288 439 0
v -288 343 0
v -736 247 0
v -736 471 0
v -800 471 0
v -800 247 0
v -256 1207 0
v -256 1303 0
v -384 1303 0
v -384 1207 0
v -736 55 0
v -736 247 0
v -800 247 0
v -800 55 0
v -384 1207 0
v -384 1303 0
v -512 1303 0
v -512 1207 0
v -736 791 0
v -736 951 0
v -800 951 0
v -800 791 0
v -0 727 0
v -0 855 0
v -64 855 0
v -64 727 0
v -224 439 0
v -224 567 0
v -288 567 0
v -288 439 0
v -736 663 0
v -736 791 0
v -800 791 0
v -800 663 0
v -704 247 0
v -704 471 0
v -736 471 0
v -736 247 0
v -704 23 0
v -704 247 0
v -736 247 0
v -736 23 0
v -800 375 0
v -800 471 0
v -864 471 0
v -864 375 0
v -192 1335 0
v -192 1399 0
v -288 1399 0
v -288 1335 0
v -256 119 0
v -256 279 0
v -288 279 0
v -288 119 0
v -384 0 0
v -384 23 0
v -544 23 0
v -544 0 0
v -544 0 0
v -544 23 0
v -704 23 0
v -704 0 0
v -96 951 0
v -96 1015 0
v -160 1015 0
v -160 951 0
v -256 0 0
v -256 119 0
v -288 119 0
v -288 0 0
v -288 1335 0
v -288 1399 0
v -352 1399 0
v -352 1335 0
v -128 1079 0
v -128 1207 0
v -160 1207 0
v -160 1079 0
v -128 1207 0
v -128 1335 0
v -160 1335 0
v -160 1207 0
v -128 631 0
v -128 727 0
v -160 727 0
v -160 631 0
v -224 55 0
v -224 119 0
v -256 119 0
v -256 55 0
v -608 567 0
v -608 599 0
v -672 599 0
v -672 567 0
v -512 1207 0
v -512 1271 0
v -544 1271 0
v -544 1207 0
v -800 311 0
v -800 375 0
v -832 375 0
v -832 311 0
v -96 343 0
v -96 407 0
v -128 407 0
v -128 343 0
v -608 1047 0
v -608 1079 0
v -672 1079 0
v -672 1047 0
v -128 567 0
v -128 631 0
v -160 631 0
v -160 567 0
v -256 1303 0
v -256 1335 0
v -320 1335 0
v -320 1303 0
v -736 951 0
v -736 983 0
v -768 983 0
v -768 951 0
v -256 311 0
v -256 343 0
v -288 343 0
v -288 311 0
v -288 0 0
v -288 23 0
v -320 23 0
v -320 0 0
v -736 631 0
v -736 663 0
v -768 663 0
v -768 631 0
v -224 23 0
v -224 55 0
v -256 55 0
v -256 23 0
v -672 567 0
v -672 599 0
v -704 599 0
v -704 567 0
v -672 1047 0
v -672 1079 0
v -704 1079 0
v -704 1047 0
v -320 1303 0
v -320 1335 0
v -352 1335 0
v -352 1303 0
vt 0.0009765625 0.00154322386
vt 0.0009765625 0.445987642
vt 0.407226562 0.445987642
vt 0.407226562 0.00154322386
vt 0.409179688 0.00154322386
vt 0.409179688 0.396604955
vt 0.815429688 0.396604955
vt 0.815429688 0.00154322386
vt 0.817382812 0.00154322386
vt 0.817382812 0.594135761
vt 0.911132812 0.594135761
vt 0.911132812 0.00154322386
vt 0.409179688 0.399691343
vt 0.409179688 0.99228394
vt 0.502929688 0.99228394
vt 0.502929688 0.399691343
vt 0.504882812 0.399691343
vt 0.504882812 0.745370388
vt 0.629882812 0.745370388
vt 0.629882812 0.399691343
vt 0.631835938 0.399691343
vt 0.631835938 0.745370388
vt 0.756835938 0.745370388
vt 0.756835938 0.399691343
vt 0.0009765625 0.44907409
vt 0.0009765625 0.794753075
vt 0.0947265625 0.794753075
vt 0.0947265625 0.44907409
vt 0.0966796875 0.44907409
vt 0.0966796875 0.597222209
vt 0.252929688 0.597222209
vt 0.252929688 0.44907409
vt 0.913085938 0.00154322386
vt 0.913085938 0.347222209
vt 0.975585938 0.347222209
vt 0.975585938 0.00154322386
vt 0.254882812 0.44907409
vt 0.254882812 0.597222209
vt 0.379882812 0.597222209
vt 0.379882812 0.44907409
vt 0.913085938 0.350308657
vt 0.913085938 0.646604896
vt 0.975585938 0.646604896
vt 0.975585938 0.350308657
vt 0.0966796875 0.600308657
vt 0.0966796875 0.748456776
vt 0.221679688 0.748456776
vt 0.221679688 0.600308657
vt 0.817382812 0.597222209
vt 0.817382812 0.844135821
vt 0.879882812 0.844135821
vt 0.879882812 0.597222209
vt 0.223632812 0.600308657
vt 0.223632812 0.797839522
vt 0.286132812 0.797839522
vt 0.286132812 0.600308657
vt 0.288085938 0.600308657
vt 0.288085938 0.797839522
vt 0.350585938 0.797839522
vt 0.350585938 0.600308657
vt 0.913085938 0.649691343
vt 0.913085938 0.847222209
vt 0.975585938 0.847222209
vt 0.975585938 0.649691343
vt 0.758789062 0.399691343
vt 0.758789062 0.745370388
vt 0.790039062 0.745370388
vt 0.790039062 0.399691343
vt 0.352539062 0.600308657
vt 0.352539062 0.945987642
vt 0.383789062 0.945987642
vt 0.383789062 0.600308657
vt 0.504882812 0.748456776
vt 0.504882812 0.896604955
vt 0.567382812 0.896604955
vt 0.567382812 0.748456776
vt 0.569335938 0.748456776
vt 0.569335938 0.847222209
vt 0.663085938 0.847222209
vt 0.663085938 0.748456776
vt 0.665039062 0.748456776
vt 0.665039062 0.995370388
vt 0.696289062 0.995370388
vt 0.696289062 0.748456776
vt 0.0009765625 0.797839522
vt 0.0009765625 0.834876537
vt 0.157226562 0.834876537
vt 0.157226562 0.797839522
vt 0.0009765625 0.837962985
vt 0.0009765625 0.875
vt 0.157226562 0.875
vt 0.157226562 0.837962985
vt 0.698242188 0.748456776
vt 0.698242188 0.847222209
vt 0.760742188 0.847222209
vt 0.760742188 0.748456776
vt 0.762695312 0.748456776
vt 0.762695312 0.93364197
vt 0.793945312 0.93364197
vt 0.793945312 0.748456776
vt 0.159179688 0.751543224
vt 0.159179688 0.850308657
vt 0.221679688 0.850308657
vt 0.221679688 0.751543224
vt 0.223632812 0.80092591
vt 0.223632812 0.998456776
vt 0.254882812 0.998456776
vt 0.254882812 0.80092591
vt 0.256835938 0.80092591
vt 0.256835938 0.998456776
vt 0.288085938 0.998456776
vt 0.288085938 0.80092591
vt 0.290039062 0.80092591
vt 0.290039062 0.94907409
vt 0.321289062 0.94907409
vt 0.321289062 0.80092591
vt 0.817382812 0.847222209
vt 0.817382812 0.945987642
vt 0.848632812 0.945987642
vt 0.848632812 0.847222209
vt 0.569335938 0.850308657
vt 0.569335938 0.899691343
vt 0.631835938 0.899691343
vt 0.631835938 0.850308657
vt 0.850585938 0.847222209
vt 0.850585938 0.945987642
vt 0.881835938 0.945987642
vt 0.881835938 0.847222209
vt 0.698242188 0.850308657
vt 0.698242188 0.94907409
vt 0.729492188 0.94907409
vt 0.729492188 0.850308657
vt 0.913085938 0.850308657
vt 0.913085938 0.94907409
vt 0.944335938 0.94907409
vt 0.944335938 0.850308657
vt 0.159179688 0.853395045
vt 0.159179688 0.902777791
vt 0.221679688 0.902777791
vt 0.221679688 0.853395045
vt 0.946289062 0.850308657
vt 0.946289062 0.94907409
vt 0.977539062 0.94907409
vt 0.977539062 0.850308657
vt 0.0009765625 0.878086448
vt 0.0009765625 0.927469134
vt 0.0634765625 0.927469134
vt 0.0634765625 0.878086448
vt 0.0654296875 0.878086448
vt 0.0654296875 0.927469134
vt 0.0966796875 0.927469134
vt 0.0966796875 0.878086448
vt 0.0986328125 0.878086448
vt 0.0986328125 0.927469134
vt 0.129882812 0.927469134
vt 0.129882812 0.878086448
vt 0.504882812 0.899691343
vt 0.504882812 0.936728418
vt 0.536132812 0.936728418
vt 0.536132812 0.899691343
vt 0.569335938 0.902777791
vt 0.569335938 0.952160478
vt 0.600585938 0.952160478
vt 0.600585938 0.902777791
vt 0.602539062 0.902777791
vt 0.602539062 0.952160478
vt 0.633789062 0.952160478
vt 0.633789062 0.902777791
vt 0.159179688 0.905864179
vt 0.159179688 0.955246925
vt 0.190429688 0.955246925
vt 0.190429688 0.905864179
vt 0.0009765625 0.930555582
vt 0.0009765625 0.979938269
vt 0.0322265625 0.979938269
vt 0.0322265625 0.930555582
vt 0.0341796875 0.930555582
vt 0.0341796875 0.979938269
vt 0.0654296875 0.979938269
vt 0.0654296875 0.930555582
g dunkeerke_3-mesh_0
f 3/3/3 2/2/2 1/1/1
f 1/1/1 4/4/4 3/3/3
f 7/7/7 6/6/6 5/5/5
f 5/5/5 8/8/8 7/7/7
f 11/11/11 10/10/10 9/9/9
f 9/9/9 12/12/12 11/11/11
f 15/15/15 14/14/14 13/13/13
f 13/13/13 16/16/16 15/15/15
f 19/19/19 18/18/18 17/17/17
f 17/17/17 20/20/20 19/19/19
f 23/23/23 22/22/22 21/21/21
f 21/21/21 24/24/24 23/23/23
f 27/27/27 26/26/26 25/25/25
f 25/25/25 28/28/28 27/27/27
f 31/31/31 30/30/30 29/29/29
f 29/29/29 32/32/32 31/31/31
f 35/35/35 34/34/34 33/33/33
f 33/33/33 36/36/36 35/35/35
f 39/39/39 38/38/38 37/37/37
f 37/37/37 40/40/40 39/39/39
f 43/43/43 42/42/42 41/41/41
f 41/41/41 44/44/44 43/43/43
f 47/47/47 46/46/46 45/45/45
f 45/45/45 48/48/48 47/47/47
f 51/51/51 50/50/50 49/49/49
f 49/49/49 52/52/52 51/51/51
f 55/55/55 54/54/54 53/53/53
f 53/53/53 56/56/56 55/55/55
f 59/59/59 58/58/58 57/57/57
f 57/57/57 60/60/60 59/59/59
f 63/63/63 62/62/62 61/61/61
f 61/61/61 64/64/64 63/63/63
f 67/67/67 66/66/66 65/65/65
f 65/65/65 68/68/68 67/67/67
f 71/71/71 70/70/70 69/69/69
f 69/69/69 72/72/72 71/71/71
f 75/75/75 74/74/74 73/73/73
f 73/73/73 76/76/76 75/75/75
f 79/79/79 78/78/78 77/77/77
f 77/77/77 80/80/80 79/79/79
f 83/83/83 82/82/82 81/81/81
f 81/81/81 84/84/84 83/83/83
f 87/87/87 86/86/86 85/85/85
f 85/85/85 88/88/88 87/87/87
f 91/91/91 90/90/90 89/89/89
f 89/89/89 92/92/92 91/91/91
f 95/95/95 94/94/94 93/93/93
f 93/93/93 96/96/96 95/95/95
f 99/99/99 98/98/98 97/97/97
f 97/97/97 100/100/100 99/99/99
f 103/103/103 102/102/102 101/101/101
f 101/101/101 104/104/104 103/103/103
f 107/107/107 106/106/106 105/105/105
f 105/105/105 108/108/108 107/107/107
f 111/111/111 110/110/110 109/109/109
f 109/109/109 112/112/112 111/111/111
f 115/115/115 114/114/114 113/113/113
f 113/113/113 116/116/116 115/115/115
f 119/119/119 118/118/118 117/117/117
f 117/117/117 120/120/120 119/119/119
f 123/123/123 122/122/122 121/121/121
f 121/121/121 124/124/124 123/123/123
f 127/127/127 126/126/126 125/125/125
f 125/125/125 128/128/128 127/127/127
f 131/131/131 130/130/130 129/129/129
f 129/129/129 132/132/132 131/131/131
f 135/135/135 134/134/134 133/133/133
f 133/133/133 136/136/136 135/135/135
f 139/139/139 138/138/138 137/137/137
f 137/137/137 140/140/140 139/139/139
f 143/143/143 142/142/142 141/141/141
f 141/141/141 144/144/144 143/143/143
f 147/147/147 146/146/146 145/145/145
f 145/145/145 148/148/148 147/147/147
f 151/151/151 150/150/150 149/149/149
f 149/149/149 152/152/152 151/151/151
f 155/155/155 154/154/154 153/153/153
f 153/153/153 156/156/156 155/155/155
f 159/159/159 158/158/158 157/157/157
f 157/157/157 160/160/160 159/159/159
f 163/163/163 162/162/162 161/161/161
f 161/161/161 164/164/164 163/163/163
f 167/167/167 166/166/166 165/165/165
f 165/165/165 168/168/168 167/167/167
f 171/171/171 170/170/170 169/169/169
f 169/169/169 172/172/172 171/171/171
f 175/175/175 174/174/174 173/173/173
f 173/173/173 176/176/176 175/175/175
f 179/179/179 178/178/178 177/177/177
f 177/177/177 180/180/180 179/179/179
