g afuleer_2-mesh
v -288 991 0
v -288 1727 0
v -1440 1727 0
v -1440 991 0
v -288 287 0
v -288 991 0
v -1440 991 0
v -1440 287 0
v -64 63 0
v -64 735 0
v -288 735 0
v -288 63 0
v -64 735 0
v -64 1407 0
v -288 1407 0
v -288 735 0
v -768 1727 0
v -768 2047 0
v -1120 2047 0
v -1120 1727 0
v -1120 1727 0
v -1120 2047 0
v -1440 2047 0
v -1440 1727 0
v -288 31 0
v -288 287 0
v -512 287 0
v -512 31 0
v -448 1727 0
v -448 1887 0
v -768 1887 0
v -768 1727 0
v -512 159 0
v -512 287 0
v -672 287 0
v -672 159 0
v -192 1407 0
v -192 1567 0
v -288 1567 0
v -288 1407 0
v -608 1887 0
v -608 1983 0
v -768 1983 0
v -768 1887 0
v -544 63 0
v -544 159 0
v -640 159 0
v -640 63 0
v -704 191 0
v -704 287 0
v -800 287 0
v -800 191 0
v -1440 287 0
v -1440 415 0
v -1474 415 0
v -1474 287 0
v -0 255 0
v -0 351 0
v -64 351 0
v -64 255 0
v -1120 255 0
v -1120 287 0
v -1280 287 0
v -1280 255 0
v -960 255 0
v -960 287 0
v -1120 287 0
v -1120 255 0
v -320 0 0
v -320 31 0
v -448 31 0
v -448 0 0
v -448 0 0
v -448 31 0
v -544 31 0
v -544 0 0
v -512 63 0
v -512 127 0
v -544 127 0
v -544 63 0
v -352 1727 0
v -352 1759 0
v -416 1759 0
v -416 1727 0
v -32 127 0
v -32 191 0
v -64 191 0
v -64 127 0
v -96 1407 0
v -96 1439 0
v -160 1439 0
v -160 1407 0
v -672 223 0
v -672 287 0
v -704 287 0
v -704 223 0
v -544 31 0
v -544 63 0
v -576 63 0
v -576 31 0
v -256 31 0
v -256 63 0
v -288 63 0
v -288 31 0
v -32 223 0
v -32 255 0
v -64 255 0
v -64 223 0
v -1440 415 0
v -1440 447 0
v -1472 447 0
v -1472 415 0
v -160 1407 0
v -160 1439 0
v -192 1439 0
v -192 1407 0
v -32 95 0
v -32 127 0
v -64 127 0
v -64 95 0
v -512 31 0
v -512 63 0
v -544 63 0
v -544 31 0
vt 0.00048828125 0.000692546368
vt 0.00048828125 0.510387778
vt 0.562988281 0.510387778
vt 0.562988281 0.000692546368
vt 0.00048828125 0.511772871
vt 0.00048828125 0.999307454
vt 0.562988281 0.999307454
vt 0.562988281 0.511772871
vt 0.563964844 0.000692546368
vt 0.563964844 0.46606648
vt 0.673339844 0.46606648
vt 0.673339844 0.000692546368
vt 0.674316406 0.000692546368
vt 0.674316406 0.46606648
vt 0.783691406 0.46606648
vt 0.783691406 0.000692546368
vt 0.784667969 0.000692546368
vt 0.784667969 0.222299159
vt 0.956542969 0.222299159
vt 0.956542969 0.000692546368
vt 0.784667969 0.223684192
vt 0.784667969 0.445290864
vt 0.940917969 0.445290864
vt 0.940917969 0.223684192
vt 0.784667969 0.446675897
vt 0.784667969 0.62396121
vt 0.894042969 0.62396121
vt 0.894042969 0.446675897
vt 0.563964844 0.467451513
vt 0.563964844 0.578254819
vt 0.720214844 0.578254819
vt 0.720214844 0.467451513
vt 0.895019531 0.446675897
vt 0.895019531 0.535318553
vt 0.973144531 0.535318553
vt 0.973144531 0.446675897
vt 0.721191406 0.467451513
vt 0.721191406 0.578254819
vt 0.768066406 0.578254819
vt 0.768066406 0.467451513
vt 0.895019531 0.536703587
vt 0.895019531 0.603185594
vt 0.973144531 0.603185594
vt 0.973144531 0.536703587
vt 0.563964844 0.579639912
vt 0.563964844 0.64612186
vt 0.610839844 0.64612186
vt 0.610839844 0.579639912
vt 0.611816406 0.579639912
vt 0.611816406 0.64612186
vt 0.658691406 0.64612186
vt 0.658691406 0.579639912
vt 0.974121094 0.000692546368
vt 0.974121094 0.0893352032
vt 0.991210938 0.0893352032
vt 0.991210938 0.000692546368
vt 0.659667969 0.579639912
vt 0.659667969 0.64612186
vt 0.690917969 0.64612186
vt 0.690917969 0.579639912
vt 0.691894531 0.579639912
vt 0.691894531 0.601800561
vt 0.770019531 0.601800561
vt 0.770019531 0.579639912
vt 0.691894531 0.603185594
vt 0.691894531 0.625346303
vt 0.770019531 0.625346303
vt 0.770019531 0.603185594
vt 0.895019531 0.604570627
vt 0.895019531 0.626731277
vt 0.957519531 0.626731277
vt 0.957519531 0.604570627
vt 0.784667969 0.625346303
vt 0.784667969 0.647506952
vt 0.831542969 0.647506952
vt 0.831542969 0.625346303
vt 0.974121094 0.0907202363
vt 0.974121094 0.135041535
vt 0.989746094 0.135041535
vt 0.989746094 0.0907202363
vt 0.958496094 0.604570627
vt 0.958496094 0.626731277
vt 0.989746094 0.626731277
vt 0.989746094 0.604570627
vt 0.832519531 0.625346303
vt 0.832519531 0.669667602
vt 0.848144531 0.669667602
vt 0.848144531 0.625346303
vt 0.849121094 0.625346303
vt 0.849121094 0.647506952
vt 0.880371094 0.647506952
vt 0.880371094 0.625346303
vt 0.691894531 0.626731277
vt 0.691894531 0.671052635
vt 0.707519531 0.671052635
vt 0.707519531 0.626731277
vt 0.708496094 0.626731277
vt 0.708496094 0.648891926
vt 0.724121094 0.648891926
vt 0.724121094 0.626731277
vt 0.725097656 0.626731277
vt 0.725097656 0.648891926
vt 0.740722656 0.648891926
vt 0.740722656 0.626731277
vt 0.741699219 0.626731277
vt 0.741699219 0.648891926
vt 0.757324219 0.648891926
vt 0.757324219 0.626731277
vt 0.758300781 0.626731277
vt 0.758300781 0.648891926
vt 0.773925781 0.648891926
vt 0.773925781 0.626731277
vt 0.895019531 0.628116369
vt 0.895019531 0.650277019
vt 0.910644531 0.650277019
vt 0.910644531 0.628116369
vt 0.911621094 0.628116369
vt 0.911621094 0.650277019
vt 0.927246094 0.650277019
vt 0.927246094 0.628116369
vt 0.928222656 0.628116369
vt 0.928222656 0.650277019
vt 0.943847656 0.650277019
vt 0.943847656 0.628116369
g afuleer_2-mesh_0
f 3/3/3 2/2/2 1/1/1
f 1/1/1 4/4/4 3/3/3
f 7/7/7 6/6/6 5/5/5
f 5/5/5 8/8/8 7/7/7
f 11/11/11 10/10/10 9/9/9
f 9/9/9 12/12/12 11/11/11
f 15/15/15 14/14/14 13/13/13
f 13/13/13 16/16/16 15/15/15
f 19/19/19 18/18/18 17/17/17
f 17/17/17 20/20/20 19/19/19
f 23/23/23 22/22/22 21/21/21
f 21/21/21 24/24/24 23/23/23
f 27/27/27 26/26/26 25/25/25
f 25/25/25 28/28/28 27/27/27
f 31/31/31 30/30/30 29/29/29
f 29/29/29 32/32/32 31/31/31
f 35/35/35 34/34/34 33/33/33
f 33/33/33 36/36/36 35/35/35
f 39/39/39 38/38/38 37/37/37
f 37/37/37 40/40/40 39/39/39
f 43/43/43 42/42/42 41/41/41
f 41/41/41 44/44/44 43/43/43
f 47/47/47 46/46/46 45/45/45
f 45/45/45 48/48/48 47/47/47
f 51/51/51 50/50/50 49/49/49
f 49/49/49 52/52/52 51/51/51
f 55/55/55 54/54/54 53/53/53
f 53/53/53 56/56/56 55/55/55
f 59/59/59 58/58/58 57/57/57
f 57/57/57 60/60/60 59/59/59
f 63/63/63 62/62/62 61/61/61
f 61/61/61 64/64/64 63/63/63
f 67/67/67 66/66/66 65/65/65
f 65/65/65 68/68/68 67/67/67
f 71/71/71 70/70/70 69/69/69
f 69/69/69 72/72/72 71/71/71
f 75/75/75 74/74/74 73/73/73
f 73/73/73 76/76/76 75/75/75
f 79/79/79 78/78/78 77/77/77
f 77/77/77 80/80/80 79/79/79
f 83/83/83 82/82/82 81/81/81
f 81/81/81 84/84/84 83/83/83
f 87/87/87 86/86/86 85/85/85
f 85/85/85 88/88/88 87/87/87
f 91/91/91 90/90/90 89/89/89
f 89/89/89 92/92/92 91/91/91
f 95/95/95 94/94/94 93/93/93
f 93/93/93 96/96/96 95/95/95
f 99/99/99 98/98/98 97/97/97
f 97/97/97 100/100/100 99/99/99
f 103/103/103 102/102/102 101/101/101
f 101/101/101 104/104/104 103/103/103
f 107/107/107 106/106/106 105/105/105
f 105/105/105 108/108/108 107/107/107
f 111/111/111 110/110/110 109/109/109
f 109/109/109 112/112/112 111/111/111
f 115/115/115 114/114/114 113/113/113
f 113/113/113 116/116/116 115/115/115
f 119/119/119 118/118/118 117/117/117
f 117/117/117 120/120/120 119/119/119
f 123/123/123 122/122/122 121/121/121
f 121/121/121 124/124/124 123/123/123
