g wenyue-mesh
v -64 287 0
v -64 703 0
v -384 703 0
v -384 287 0
v -384 287 0
v -384 703 0
v -672 703 0
v -672 287 0
v -256 703 0
v -256 1023 0
v -544 1023 0
v -544 703 0
v -64 159 0
v -64 255 0
v -288 255 0
v -288 159 0
v -288 159 0
v -288 255 0
v -480 255 0
v -480 159 0
v -64 0 0
v -64 159 0
v -160 159 0
v -160 0 0
v -0 447 0
v -0 607 0
v -64 607 0
v -64 447 0
v -352 255 0
v -352 287 0
v -640 287 0
v -640 255 0
v -64 255 0
v -64 287 0
v -352 287 0
v -352 255 0
v -0 319 0
v -0 447 0
v -64 447 0
v -64 319 0
v -576 191 0
v -576 255 0
v -672 255 0
v -672 191 0
v -672 319 0
v -672 415 0
v -725 415 0
v -725 319 0
v -160 127 0
v -160 159 0
v -320 159 0
v -320 127 0
v -224 831 0
v -224 991 0
v -256 991 0
v -256 831 0
v -672 255 0
v -672 319 0
v -725 319 0
v -725 255 0
v -320 127 0
v -320 159 0
v -448 159 0
v -448 127 0
v -224 703 0
v -224 831 0
v -256 831 0
v -256 703 0
v -544 703 0
v -544 799 0
v -576 799 0
v -576 703 0
v -544 799 0
v -544 895 0
v -576 895 0
v -576 799 0
v -160 703 0
v -160 767 0
v -192 767 0
v -192 703 0
v -672 447 0
v -672 511 0
v -704 511 0
v -704 447 0
v -576 799 0
v -576 863 0
v -608 863 0
v -608 799 0
v -32 63 0
v -32 127 0
v -64 127 0
v -64 63 0
v -32 159 0
v -32 223 0
v -64 223 0
v -64 159 0
v -576 703 0
v -576 735 0
v -640 735 0
v -640 703 0
v -672 607 0
v -672 671 0
v -704 671 0
v -704 607 0
v -672 543 0
v -672 607 0
v -704 607 0
v -704 543 0
v -192 767 0
v -192 831 0
v -224 831 0
v -224 767 0
v -192 703 0
v -192 767 0
v -224 767 0
v -224 703 0
v -160 95 0
v -160 127 0
v -224 127 0
v -224 95 0
v -224 95 0
v -224 127 0
v -288 127 0
v -288 95 0
v -32 287 0
v -32 319 0
v -64 319 0
v -64 287 0
v -608 159 0
v -608 191 0
v -640 191 0
v -640 159 0
v -160 63 0
v -160 95 0
v -192 95 0
v -192 63 0
v -576 767 0
v -576 799 0
v -608 799 0
v -608 767 0
v -672 415 0
v -672 447 0
v -704 447 0
v -704 415 0
v -128 703 0
v -128 735 0
v -160 735 0
v -160 703 0
vt 0.0009765625 0.00171822309
vt 0.0009765625 0.716494858
vt 0.313476562 0.716494858
vt 0.313476562 0.00171822309
vt 0.315429688 0.00171822309
vt 0.315429688 0.716494858
vt 0.596679688 0.716494858
vt 0.596679688 0.00171822309
vt 0.598632812 0.00171822309
vt 0.598632812 0.551546395
vt 0.879882812 0.551546395
vt 0.879882812 0.00171822309
vt 0.598632812 0.554982781
vt 0.598632812 0.719931245
vt 0.817382812 0.719931245
vt 0.817382812 0.554982781
vt 0.0009765625 0.719931245
vt 0.0009765625 0.884879708
vt 0.188476562 0.884879708
vt 0.188476562 0.719931245
vt 0.881835938 0.00171822309
vt 0.881835938 0.276632309
vt 0.975585938 0.276632309
vt 0.975585938 0.00171822309
vt 0.881835938 0.280068755
vt 0.881835938 0.554982781
vt 0.944335938 0.554982781
vt 0.944335938 0.280068755
vt 0.190429688 0.719931245
vt 0.190429688 0.774914086
vt 0.471679688 0.774914086
vt 0.471679688 0.719931245
vt 0.598632812 0.723367691
vt 0.598632812 0.778350532
vt 0.879882812 0.778350532
vt 0.879882812 0.723367691
vt 0.881835938 0.558419228
vt 0.881835938 0.778350532
vt 0.944335938 0.778350532
vt 0.944335938 0.558419228
vt 0.473632812 0.719931245
vt 0.473632812 0.829896927
vt 0.567382812 0.829896927
vt 0.567382812 0.719931245
vt 0.946289062 0.280068755
vt 0.946289062 0.445017159
vt 0.999023438 0.445017159
vt 0.999023438 0.280068755
vt 0.190429688 0.778350532
vt 0.190429688 0.833333313
vt 0.346679688 0.833333313
vt 0.346679688 0.778350532
vt 0.946289062 0.448453605
vt 0.946289062 0.723367691
vt 0.977539062 0.723367691
vt 0.977539062 0.448453605
vt 0.946289062 0.726804137
vt 0.946289062 0.83676976
vt 0.999023438 0.83676976
vt 0.999023438 0.726804137
vt 0.598632812 0.781786919
vt 0.598632812 0.83676976
vt 0.723632812 0.83676976
vt 0.723632812 0.781786919
vt 0.348632812 0.778350532
vt 0.348632812 0.998281777
vt 0.379882812 0.998281777
vt 0.379882812 0.778350532
vt 0.381835938 0.778350532
vt 0.381835938 0.943298995
vt 0.413085938 0.943298995
vt 0.413085938 0.778350532
vt 0.415039062 0.778350532
vt 0.415039062 0.943298995
vt 0.446289062 0.943298995
vt 0.446289062 0.778350532
vt 0.725585938 0.781786919
vt 0.725585938 0.891752601
vt 0.756835938 0.891752601
vt 0.756835938 0.781786919
vt 0.758789062 0.781786919
vt 0.758789062 0.891752601
vt 0.790039062 0.891752601
vt 0.790039062 0.781786919
vt 0.791992188 0.781786919
vt 0.791992188 0.891752601
vt 0.823242188 0.891752601
vt 0.823242188 0.781786919
vt 0.825195312 0.781786919
vt 0.825195312 0.891752601
vt 0.856445312 0.891752601
vt 0.856445312 0.781786919
vt 0.858398438 0.781786919
vt 0.858398438 0.891752601
vt 0.889648438 0.891752601
vt 0.889648438 0.781786919
vt 0.473632812 0.833333313
vt 0.473632812 0.888316154
vt 0.536132812 0.888316154
vt 0.536132812 0.833333313
vt 0.891601562 0.781786919
vt 0.891601562 0.891752601
vt 0.922851562 0.891752601
vt 0.922851562 0.781786919
vt 0.538085938 0.833333313
vt 0.538085938 0.943298995
vt 0.569335938 0.943298995
vt 0.569335938 0.833333313
vt 0.190429688 0.83676976
vt 0.190429688 0.946735382
vt 0.221679688 0.946735382
vt 0.221679688 0.83676976
vt 0.223632812 0.83676976
vt 0.223632812 0.946735382
vt 0.254882812 0.946735382
vt 0.254882812 0.83676976
vt 0.256835938 0.83676976
vt 0.256835938 0.891752601
vt 0.319335938 0.891752601
vt 0.319335938 0.83676976
vt 0.598632812 0.840206206
vt 0.598632812 0.895188987
vt 0.661132812 0.895188987
vt 0.661132812 0.840206206
vt 0.663085938 0.840206206
vt 0.663085938 0.895188987
vt 0.694335938 0.895188987
vt 0.694335938 0.840206206
vt 0.946289062 0.840206206
vt 0.946289062 0.895188987
vt 0.977539062 0.895188987
vt 0.977539062 0.840206206
vt 0.0009765625 0.888316154
vt 0.0009765625 0.943298995
vt 0.0322265625 0.943298995
vt 0.0322265625 0.888316154
vt 0.0341796875 0.888316154
vt 0.0341796875 0.943298995
vt 0.0654296875 0.943298995
vt 0.0654296875 0.888316154
vt 0.0673828125 0.888316154
vt 0.0673828125 0.943298995
vt 0.0986328125 0.943298995
vt 0.0986328125 0.888316154
vt 0.100585938 0.888316154
vt 0.100585938 0.943298995
vt 0.131835938 0.943298995
vt 0.131835938 0.888316154
g wenyue-mesh_0
f 3/3/3 2/2/2 1/1/1
f 1/1/1 4/4/4 3/3/3
f 7/7/7 6/6/6 5/5/5
f 5/5/5 8/8/8 7/7/7
f 11/11/11 10/10/10 9/9/9
f 9/9/9 12/12/12 11/11/11
f 15/15/15 14/14/14 13/13/13
f 13/13/13 16/16/16 15/15/15
f 19/19/19 18/18/18 17/17/17
f 17/17/17 20/20/20 19/19/19
f 23/23/23 22/22/22 21/21/21
f 21/21/21 24/24/24 23/23/23
f 27/27/27 26/26/26 25/25/25
f 25/25/25 28/28/28 27/27/27
f 31/31/31 30/30/30 29/29/29
f 29/29/29 32/32/32 31/31/31
f 35/35/35 34/34/34 33/33/33
f 33/33/33 36/36/36 35/35/35
f 39/39/39 38/38/38 37/37/37
f 37/37/37 40/40/40 39/39/39
f 43/43/43 42/42/42 41/41/41
f 41/41/41 44/44/44 43/43/43
f 47/47/47 46/46/46 45/45/45
f 45/45/45 48/48/48 47/47/47
f 51/51/51 50/50/50 49/49/49
f 49/49/49 52/52/52 51/51/51
f 55/55/55 54/54/54 53/53/53
f 53/53/53 56/56/56 55/55/55
f 59/59/59 58/58/58 57/57/57
f 57/57/57 60/60/60 59/59/59
f 63/63/63 62/62/62 61/61/61
f 61/61/61 64/64/64 63/63/63
f 67/67/67 66/66/66 65/65/65
f 65/65/65 68/68/68 67/67/67
f 71/71/71 70/70/70 69/69/69
f 69/69/69 72/72/72 71/71/71
f 75/75/75 74/74/74 73/73/73
f 73/73/73 76/76/76 75/75/75
f 79/79/79 78/78/78 77/77/77
f 77/77/77 80/80/80 79/79/79
f 83/83/83 82/82/82 81/81/81
f 81/81/81 84/84/84 83/83/83
f 87/87/87 86/86/86 85/85/85
f 85/85/85 88/88/88 87/87/87
f 91/91/91 90/90/90 89/89/89
f 89/89/89 92/92/92 91/91/91
f 95/95/95 94/94/94 93/93/93
f 93/93/93 96/96/96 95/95/95
f 99/99/99 98/98/98 97/97/97
f 97/97/97 100/100/100 99/99/99
f 103/103/103 102/102/102 101/101/101
f 101/101/101 104/104/104 103/103/103
f 107/107/107 106/106/106 105/105/105
f 105/105/105 108/108/108 107/107/107
f 111/111/111 110/110/110 109/109/109
f 109/109/109 112/112/112 111/111/111
f 115/115/115 114/114/114 113/113/113
f 113/113/113 116/116/116 115/115/115
f 119/119/119 118/118/118 117/117/117
f 117/117/117 120/120/120 119/119/119
f 123/123/123 122/122/122 121/121/121
f 121/121/121 124/124/124 123/123/123
f 127/127/127 126/126/126 125/125/125
f 125/125/125 128/128/128 127/127/127
f 131/131/131 130/130/130 129/129/129
f 129/129/129 132/132/132 131/131/131
f 135/135/135 134/134/134 133/133/133
f 133/133/133 136/136/136 135/135/135
f 139/139/139 138/138/138 137/137/137
f 137/137/137 140/140/140 139/139/139
f 143/143/143 142/142/142 141/141/141
f 141/141/141 144/144/144 143/143/143
f 147/147/147 146/146/146 145/145/145
f 145/145/145 148/148/148 147/147/147
