g xishao_2-mesh
v -608 225 0
v -608 929 0
v -1504 929 0
v -1504 225 0
v -608 929 0
v -608 1633 0
v -1504 1633 0
v -1504 929 0
v -1504 641 0
v -1504 1153 0
v -1760 1153 0
v -1760 641 0
v -1504 1153 0
v -1504 1665 0
v -1760 1665 0
v -1760 1153 0
v -288 577 0
v -288 929 0
v -608 929 0
v -608 577 0
v -288 257 0
v -288 577 0
v -608 577 0
v -608 257 0
v -96 321 0
v -96 705 0
v -288 705 0
v -288 321 0
v -768 1633 0
v -768 1889 0
v -1056 1889 0
v -1056 1633 0
v -960 97 0
v -960 225 0
v -1216 225 0
v -1216 97 0
v -1760 1377 0
v -1760 1633 0
v -1888 1633 0
v -1888 1377 0
v -480 1121 0
v -480 1345 0
v -608 1345 0
v -608 1121 0
v -1216 97 0
v -1216 225 0
v -1440 225 0
v -1440 97 0
v -1760 1153 0
v -1760 1377 0
v -1888 1377 0
v -1888 1153 0
v -480 929 0
v -480 1121 0
v -608 1121 0
v -608 929 0
v -1056 1633 0
v -1056 1729 0
v -1280 1729 0
v -1280 1633 0
v -288 1505 0
v -288 1633 0
v -448 1633 0
v -448 1505 0
v -448 1505 0
v -448 1633 0
v -608 1633 0
v -608 1505 0
v -1280 1633 0
v -1280 1729 0
v -1472 1729 0
v -1472 1633 0
v -1248 1 0
v -1248 97 0
v -1408 97 0
v -1408 1 0
v -1056 1825 0
v -1056 1921 0
v -1216 1921 0
v -1216 1825 0
v -1760 897 0
v -1760 1089 0
v -1824 1089 0
v -1824 897 0
v -1504 417 0
v -1504 545 0
v -1600 545 0
v -1600 417 0
v -1888 1473 0
v -1888 1601 0
v -1984 1601 0
v -1984 1473 0
v -1216 1825 0
v -1216 1921 0
v -1344 1921 0
v -1344 1825 0
v -1888 1345 0
v -1888 1473 0
v -1984 1473 0
v -1984 1345 0
v -1760 737 0
v -1760 897 0
v -1824 897 0
v -1824 737 0
v -1088 1729 0
v -1088 1825 0
v -1184 1825 0
v -1184 1729 0
v -1504 577 0
v -1504 641 0
v -1632 641 0
v -1632 577 0
v -1984 1473 0
v -1984 1569 0
v -2047 1569 0
v -2047 1473 0
v -384 193 0
v -384 257 0
v -480 257 0
v -480 193 0
v -736 97 0
v -736 193 0
v -800 193 0
v -800 97 0
v -224 705 0
v -224 801 0
v -288 801 0
v -288 705 0
v -1760 1089 0
v -1760 1153 0
v -1856 1153 0
v -1856 1089 0
v -416 929 0
v -416 1025 0
v -480 1025 0
v -480 929 0
v -288 1217 0
v -288 1281 0
v -384 1281 0
v -384 1217 0
v -416 1025 0
v -416 1121 0
v -480 1121 0
v -480 1025 0
v -1632 577 0
v -1632 641 0
v -1728 641 0
v -1728 577 0
v -384 1217 0
v -384 1281 0
v -480 1281 0
v -480 1217 0
v -736 1889 0
v -736 1953 0
v -832 1953 0
v -832 1889 0
v -64 545 0
v -64 705 0
v -96 705 0
v -96 545 0
v -640 97 0
v -640 161 0
v -704 161 0
v -704 97 0
v -832 1889 0
v -832 1953 0
v -896 1953 0
v -896 1889 0
v -64 417 0
v -64 545 0
v -96 545 0
v -96 417 0
v -480 193 0
v -480 257 0
v -544 257 0
v -544 193 0
v -832 193 0
v -832 225 0
v -960 225 0
v -960 193 0
v -704 193 0
v -704 225 0
v -832 225 0
v -832 193 0
v -1088 65 0
v -1088 97 0
v -1184 97 0
v -1184 65 0
v -1824 865 0
v -1824 961 0
v -1856 961 0
v -1856 865 0
v -1472 1665 0
v -1472 1697 0
v -1568 1697 0
v -1568 1665 0
v -224 1505 0
v -224 1569 0
v -256 1569 0
v -256 1505 0
v -256 1537 0
v -256 1601 0
v -288 1601 0
v -288 1537 0
v -1920 1281 0
v -1920 1345 0
v -1952 1345 0
v -1952 1281 0
v -448 1121 0
v -448 1185 0
v -480 1185 0
v -480 1121 0
v -1984 1409 0
v -1984 1473 0
v -2016 1473 0
v -2016 1409 0
v -736 1633 0
v -736 1697 0
v -768 1697 0
v -768 1633 0
v -992 1889 0
v -992 1921 0
v -1056 1921 0
v -1056 1889 0
v -672 1921 0
v -672 1953 0
v -736 1953 0
v -736 1921 0
v -1504 353 0
v -1504 417 0
v -1536 417 0
v -1536 353 0
v -352 1665 0
v -352 1729 0
v -384 1729 0
v -384 1665 0
v -1184 1729 0
v -1184 1793 0
v -1216 1793 0
v -1216 1729 0
v -736 1825 0
v -736 1889 0
v -768 1889 0
v -768 1825 0
v -1440 161 0
v -1440 225 0
v -1472 225 0
v -1472 161 0
v -544 161 0
v -544 225 0
v -576 225 0
v -576 161 0
v -320 225 0
v -320 257 0
v -384 257 0
v -384 225 0
v -1568 1 0
v -1568 65 0
v -1600 65 0
v -1600 1 0
v -1184 33 0
v -1184 65 0
v -1248 65 0
v -1248 33 0
v -800 97 0
v -800 161 0
v -832 161 0
v -832 97 0
v -160 225 0
v -160 257 0
v -224 257 0
v -224 225 0
v -0 577 0
v -0 609 0
v -64 609 0
v -64 577 0
v -1856 833 0
v -1856 897 0
v -1888 897 0
v -1888 833 0
v -352 929 0
v -352 993 0
v -384 993 0
v -384 929 0
v -224 257 0
v -224 289 0
v -288 289 0
v -288 257 0
v -64 321 0
v -64 385 0
v -96 385 0
v -96 321 0
v -0 417 0
v -0 449 0
v -64 449 0
v -64 417 0
v -384 993 0
v -384 1057 0
v -416 1057 0
v -416 993 0
v -1888 1217 0
v -1888 1281 0
v -1920 1281 0
v -1920 1217 0
v -1888 1281 0
v -1888 1345 0
v -1920 1345 0
v -1920 1281 0
v -1568 545 0
v -1568 577 0
v -1632 577 0
v -1632 545 0
v -1504 545 0
v -1504 577 0
v -1568 577 0
v -1568 545 0
v -384 929 0
v -384 993 0
v -416 993 0
v -416 929 0
v -384 1633 0
v -384 1665 0
v -448 1665 0
v -448 1633 0
v -1184 65 0
v -1184 97 0
v -1248 97 0
v -1248 65 0
v -1568 1665 0
v -1568 1697 0
v -1632 1697 0
v -1632 1665 0
v -544 1473 0
v -544 1505 0
v -608 1505 0
v -608 1473 0
v -480 1473 0
v -480 1505 0
v -544 1505 0
v -544 1473 0
v -448 1633 0
v -448 1665 0
v -512 1665 0
v -512 1633 0
v -160 289 0
v -160 321 0
v -224 321 0
v -224 289 0
v -384 1281 0
v -384 1313 0
v -448 1313 0
v -448 1281 0
v -576 1377 0
v -576 1441 0
v -608 1441 0
v -608 1377 0
v -1824 801 0
v -1824 865 0
v -1856 865 0
v -1856 801 0
v -1760 673 0
v -1760 737 0
v -1792 737 0
v -1792 673 0
v -896 161 0
v -896 193 0
v -960 193 0
v -960 161 0
v -224 289 0
v -224 321 0
v -288 321 0
v -288 289 0
v -832 161 0
v -832 193 0
v -896 193 0
v -896 161 0
v -1216 1793 0
v -1216 1825 0
v -1280 1825 0
v -1280 1793 0
v -32 673 0
v -32 705 0
v -64 705 0
v -64 673 0
v -32 481 0
v -32 513 0
v -64 513 0
v -64 481 0
v -1664 545 0
v -1664 577 0
v -1696 577 0
v -1696 545 0
v -1824 1025 0
v -1824 1057 0
v -1856 1057 0
v -1856 1025 0
v -1984 1057 0
v -1984 1089 0
v -2016 1089 0
v -2016 1057 0
v -192 705 0
v -192 737 0
v -224 737 0
v -224 705 0
v -384 1185 0
v -384 1217 0
v -416 1217 0
v -416 1185 0
v -928 129 0
v -928 161 0
v -960 161 0
v -960 129 0
v -512 161 0
v -512 193 0
v -544 193 0
v -544 161 0
v -256 193 0
v -256 225 0
v -288 225 0
v -288 193 0
v -1024 33 0
v -1024 65 0
v -1056 65 0
v -1056 33 0
v -1600 417 0
v -1600 449 0
v -1632 449 0
v -1632 417 0
v -1536 385 0
v -1536 417 0
v -1568 417 0
v -1568 385 0
v -576 225 0
v -576 257 0
v -608 257 0
v -608 225 0
v -544 1345 0
v -544 1377 0
v -576 1377 0
v -576 1345 0
v -1760 641 0
v -1760 673 0
v -1792 673 0
v -1792 641 0
v -896 1889 0
v -896 1921 0
v -928 1921 0
v -928 1889 0
v -704 1825 0
v -704 1857 0
v -736 1857 0
v -736 1825 0
v -1280 1793 0
v -1280 1825 0
v -1312 1825 0
v -1312 1793 0
v -1504 321 0
v -1504 353 0
v -1536 353 0
v -1536 321 0
v -448 1281 0
v -448 1313 0
v -480 1313 0
v -480 1281 0
v -576 1345 0
v -576 1377 0
v -608 1377 0
v -608 1345 0
v -384 1665 0
v -384 1697 0
v -416 1697 0
v -416 1665 0
v -704 1633 0
v -704 1665 0
v -736 1665 0
v -736 1633 0
v -1472 1633 0
v -1472 1665 0
v -1504 1665 0
v -1504 1633 0
v -1376 1729 0
v -1376 1761 0
v -1408 1761 0
v -1408 1729 0
v -1056 1793 0
v -1056 1825 0
v -1088 1825 0
v -1088 1793 0
v -1056 1729 0
v -1056 1761 0
v -1088 1761 0
v -1088 1729 0
v -1216 1729 0
v -1216 1761 0
v -1248 1761 0
v -1248 1729 0
vt 0.00048828125 0.00075417757
vt 0.00048828125 0.531674206
vt 0.437988281 0.531674206
vt 0.437988281 0.00075417757
vt 0.438964844 0.00075417757
vt 0.438964844 0.531674206
vt 0.876464844 0.531674206
vt 0.876464844 0.00075417757
vt 0.00048828125 0.533182502
vt 0.00048828125 0.919306159
vt 0.125488281 0.919306159
vt 0.125488281 0.533182502
vt 0.126464844 0.533182502
vt 0.126464844 0.919306159
vt 0.251464844 0.919306159
vt 0.251464844 0.533182502
vt 0.252441406 0.533182502
vt 0.252441406 0.798642516
vt 0.408691406 0.798642516
vt 0.408691406 0.533182502
vt 0.409667969 0.533182502
vt 0.409667969 0.774509788
vt 0.565917969 0.774509788
vt 0.565917969 0.533182502
vt 0.877441406 0.00075417757
vt 0.877441406 0.29034692
vt 0.971191406 0.29034692
vt 0.971191406 0.00075417757
vt 0.566894531 0.533182502
vt 0.566894531 0.72624433
vt 0.707519531 0.72624433
vt 0.707519531 0.533182502
vt 0.708496094 0.533182502
vt 0.708496094 0.629713416
vt 0.833496094 0.629713416
vt 0.833496094 0.533182502
vt 0.877441406 0.291855216
vt 0.877441406 0.484917045
vt 0.939941406 0.484917045
vt 0.939941406 0.291855216
vt 0.877441406 0.48642534
vt 0.877441406 0.65535444
vt 0.939941406 0.65535444
vt 0.939941406 0.48642534
vt 0.708496094 0.631221712
vt 0.708496094 0.727752626
vt 0.817871094 0.727752626
vt 0.817871094 0.631221712
vt 0.877441406 0.656862736
vt 0.877441406 0.825791836
vt 0.939941406 0.825791836
vt 0.939941406 0.656862736
vt 0.566894531 0.727752626
vt 0.566894531 0.872548997
vt 0.629394531 0.872548997
vt 0.629394531 0.727752626
vt 0.708496094 0.729260921
vt 0.708496094 0.801659107
vt 0.817871094 0.801659107
vt 0.817871094 0.729260921
vt 0.409667969 0.776018083
vt 0.409667969 0.872548997
vt 0.487792969 0.872548997
vt 0.487792969 0.776018083
vt 0.252441406 0.800150812
vt 0.252441406 0.896681726
vt 0.330566406 0.896681726
vt 0.330566406 0.800150812
vt 0.708496094 0.803167403
vt 0.708496094 0.875565588
vt 0.802246094 0.875565588
vt 0.802246094 0.803167403
vt 0.877441406 0.827300131
vt 0.877441406 0.899698317
vt 0.955566406 0.899698317
vt 0.955566406 0.827300131
vt 0.409667969 0.874057293
vt 0.409667969 0.946455479
vt 0.487792969 0.946455479
vt 0.487792969 0.874057293
vt 0.956542969 0.291855216
vt 0.956542969 0.436651587
vt 0.987792969 0.436651587
vt 0.987792969 0.291855216
vt 0.818847656 0.631221712
vt 0.818847656 0.727752626
vt 0.865722656 0.727752626
vt 0.865722656 0.631221712
vt 0.630371094 0.727752626
vt 0.630371094 0.82428354
vt 0.677246094 0.82428354
vt 0.677246094 0.727752626
vt 0.488769531 0.776018083
vt 0.488769531 0.848416269
vt 0.551269531 0.848416269
vt 0.551269531 0.776018083
vt 0.818847656 0.729260921
vt 0.818847656 0.825791836
vt 0.865722656 0.825791836
vt 0.865722656 0.729260921
vt 0.956542969 0.438159883
vt 0.956542969 0.558823526
vt 0.987792969 0.558823526
vt 0.987792969 0.438159883
vt 0.331542969 0.800150812
vt 0.331542969 0.872548997
vt 0.378417969 0.872548997
vt 0.378417969 0.800150812
vt 0.630371094 0.825791836
vt 0.630371094 0.874057293
vt 0.692871094 0.874057293
vt 0.692871094 0.825791836
vt 0.956542969 0.560331821
vt 0.956542969 0.632730007
vt 0.987792969 0.632730007
vt 0.987792969 0.560331821
vt 0.818847656 0.827300131
vt 0.818847656 0.875565588
vt 0.865722656 0.875565588
vt 0.865722656 0.827300131
vt 0.956542969 0.634238303
vt 0.956542969 0.706636488
vt 0.987792969 0.706636488
vt 0.987792969 0.634238303
vt 0.956542969 0.708144784
vt 0.956542969 0.78054297
vt 0.987792969 0.78054297
vt 0.987792969 0.708144784
vt 0.488769531 0.849924564
vt 0.488769531 0.898190022
vt 0.535644531 0.898190022
vt 0.535644531 0.849924564
vt 0.956542969 0.782051265
vt 0.956542969 0.854449451
vt 0.987792969 0.854449451
vt 0.987792969 0.782051265
vt 0.331542969 0.874057293
vt 0.331542969 0.92232275
vt 0.378417969 0.92232275
vt 0.378417969 0.874057293
vt 0.956542969 0.855957747
vt 0.956542969 0.928355932
vt 0.987792969 0.928355932
vt 0.987792969 0.855957747
vt 0.566894531 0.874057293
vt 0.566894531 0.92232275
vt 0.613769531 0.92232275
vt 0.613769531 0.874057293
vt 0.630371094 0.875565588
vt 0.630371094 0.923831046
vt 0.677246094 0.923831046
vt 0.677246094 0.875565588
vt 0.708496094 0.877073884
vt 0.708496094 0.925339341
vt 0.755371094 0.925339341
vt 0.755371094 0.877073884
vt 0.379394531 0.800150812
vt 0.379394531 0.920814455
vt 0.395019531 0.920814455
vt 0.395019531 0.800150812
vt 0.756347656 0.877073884
vt 0.756347656 0.925339341
vt 0.787597656 0.925339341
vt 0.787597656 0.877073884
vt 0.788574219 0.877073884
vt 0.788574219 0.925339341
vt 0.819824219 0.925339341
vt 0.819824219 0.877073884
vt 0.536621094 0.849924564
vt 0.536621094 0.946455479
vt 0.552246094 0.946455479
vt 0.552246094 0.849924564
vt 0.820800781 0.877073884
vt 0.820800781 0.925339341
vt 0.852050781 0.925339341
vt 0.852050781 0.877073884
vt 0.252441406 0.898190022
vt 0.252441406 0.92232275
vt 0.314941406 0.92232275
vt 0.314941406 0.898190022
vt 0.877441406 0.901206613
vt 0.877441406 0.925339341
vt 0.939941406 0.925339341
vt 0.939941406 0.901206613
vt 0.488769531 0.899698317
vt 0.488769531 0.923831046
vt 0.535644531 0.923831046
vt 0.535644531 0.899698317
vt 0.678222656 0.875565588
vt 0.678222656 0.947963774
vt 0.693847656 0.947963774
vt 0.693847656 0.875565588
vt 0.00048828125 0.920814455
vt 0.00048828125 0.944947183
vt 0.0473632812 0.944947183
vt 0.0473632812 0.920814455
vt 0.853027344 0.877073884
vt 0.853027344 0.925339341
vt 0.868652344 0.925339341
vt 0.868652344 0.877073884
vt 0.0483398438 0.920814455
vt 0.0483398438 0.969079912
vt 0.0639648438 0.969079912
vt 0.0639648438 0.920814455
vt 0.0649414062 0.920814455
vt 0.0649414062 0.969079912
vt 0.0805664062 0.969079912
vt 0.0805664062 0.920814455
vt 0.0815429688 0.920814455
vt 0.0815429688 0.969079912
vt 0.0971679688 0.969079912
vt 0.0971679688 0.920814455
vt 0.0981445312 0.920814455
vt 0.0981445312 0.969079912
vt 0.113769531 0.969079912
vt 0.113769531 0.920814455
vt 0.114746094 0.920814455
vt 0.114746094 0.969079912
vt 0.130371094 0.969079912
vt 0.130371094 0.920814455
vt 0.131347656 0.920814455
vt 0.131347656 0.944947183
vt 0.162597656 0.944947183
vt 0.162597656 0.920814455
vt 0.163574219 0.920814455
vt 0.163574219 0.944947183
vt 0.194824219 0.944947183
vt 0.194824219 0.920814455
vt 0.195800781 0.920814455
vt 0.195800781 0.969079912
vt 0.211425781 0.969079912
vt 0.211425781 0.920814455
vt 0.212402344 0.920814455
vt 0.212402344 0.969079912
vt 0.228027344 0.969079912
vt 0.228027344 0.920814455
vt 0.229003906 0.920814455
vt 0.229003906 0.969079912
vt 0.244628906 0.969079912
vt 0.244628906 0.920814455
vt 0.379394531 0.92232275
vt 0.379394531 0.970588207
vt 0.395019531 0.970588207
vt 0.395019531 0.92232275
vt 0.252441406 0.923831046
vt 0.252441406 0.972096503
vt 0.268066406 0.972096503
vt 0.268066406 0.923831046
vt 0.269042969 0.923831046
vt 0.269042969 0.972096503
vt 0.284667969 0.972096503
vt 0.284667969 0.923831046
vt 0.285644531 0.923831046
vt 0.285644531 0.947963774
vt 0.316894531 0.947963774
vt 0.316894531 0.923831046
vt 0.331542969 0.923831046
vt 0.331542969 0.972096503
vt 0.347167969 0.972096503
vt 0.347167969 0.923831046
vt 0.566894531 0.923831046
vt 0.566894531 0.947963774
vt 0.598144531 0.947963774
vt 0.598144531 0.923831046
vt 0.348144531 0.923831046
vt 0.348144531 0.972096503
vt 0.363769531 0.972096503
vt 0.363769531 0.923831046
vt 0.488769531 0.925339341
vt 0.488769531 0.94947207
vt 0.520019531 0.94947207
vt 0.520019531 0.925339341
vt 0.630371094 0.925339341
vt 0.630371094 0.94947207
vt 0.661621094 0.94947207
vt 0.661621094 0.925339341
vt 0.599121094 0.923831046
vt 0.599121094 0.972096503
vt 0.614746094 0.972096503
vt 0.614746094 0.923831046
vt 0.708496094 0.926847637
vt 0.708496094 0.975113094
vt 0.724121094 0.975113094
vt 0.724121094 0.926847637
vt 0.725097656 0.926847637
vt 0.725097656 0.950980365
vt 0.756347656 0.950980365
vt 0.756347656 0.926847637
vt 0.757324219 0.926847637
vt 0.757324219 0.975113094
vt 0.772949219 0.975113094
vt 0.772949219 0.926847637
vt 0.773925781 0.926847637
vt 0.773925781 0.950980365
vt 0.805175781 0.950980365
vt 0.805175781 0.926847637
vt 0.806152344 0.926847637
vt 0.806152344 0.975113094
vt 0.821777344 0.975113094
vt 0.821777344 0.926847637
vt 0.822753906 0.926847637
vt 0.822753906 0.975113094
vt 0.838378906 0.975113094
vt 0.838378906 0.926847637
vt 0.839355469 0.926847637
vt 0.839355469 0.975113094
vt 0.854980469 0.975113094
vt 0.854980469 0.926847637
vt 0.855957031 0.926847637
vt 0.855957031 0.950980365
vt 0.887207031 0.950980365
vt 0.887207031 0.926847637
vt 0.888183594 0.926847637
vt 0.888183594 0.950980365
vt 0.919433594 0.950980365
vt 0.919433594 0.926847637
vt 0.920410156 0.926847637
vt 0.920410156 0.975113094
vt 0.936035156 0.975113094
vt 0.936035156 0.926847637
vt 0.956542969 0.929864228
vt 0.956542969 0.953996956
vt 0.987792969 0.953996956
vt 0.987792969 0.929864228
vt 0.00048828125 0.946455479
vt 0.00048828125 0.970588207
vt 0.0317382812 0.970588207
vt 0.0317382812 0.946455479
vt 0.131347656 0.946455479
vt 0.131347656 0.970588207
vt 0.162597656 0.970588207
vt 0.162597656 0.946455479
vt 0.163574219 0.946455479
vt 0.163574219 0.970588207
vt 0.194824219 0.970588207
vt 0.194824219 0.946455479
vt 0.409667969 0.947963774
vt 0.409667969 0.972096503
vt 0.440917969 0.972096503
vt 0.440917969 0.947963774
vt 0.441894531 0.947963774
vt 0.441894531 0.972096503
vt 0.473144531 0.972096503
vt 0.473144531 0.947963774
vt 0.285644531 0.94947207
vt 0.285644531 0.973604798
vt 0.316894531 0.973604798
vt 0.316894531 0.94947207
vt 0.566894531 0.94947207
vt 0.566894531 0.973604798
vt 0.598144531 0.973604798
vt 0.598144531 0.94947207
vt 0.937011719 0.926847637
vt 0.937011719 0.975113094
vt 0.952636719 0.975113094
vt 0.952636719 0.926847637
vt 0.536621094 0.947963774
vt 0.536621094 0.996229231
vt 0.552246094 0.996229231
vt 0.552246094 0.947963774
vt 0.678222656 0.94947207
vt 0.678222656 0.997737527
vt 0.693847656 0.997737527
vt 0.693847656 0.94947207
vt 0.488769531 0.950980365
vt 0.488769531 0.975113094
vt 0.520019531 0.975113094
vt 0.520019531 0.950980365
vt 0.630371094 0.950980365
vt 0.630371094 0.975113094
vt 0.661621094 0.975113094
vt 0.661621094 0.950980365
vt 0.725097656 0.952488661
vt 0.725097656 0.976621389
vt 0.756347656 0.976621389
vt 0.756347656 0.952488661
vt 0.773925781 0.952488661
vt 0.773925781 0.976621389
vt 0.805175781 0.976621389
vt 0.805175781 0.952488661
vt 0.855957031 0.952488661
vt 0.855957031 0.976621389
vt 0.871582031 0.976621389
vt 0.871582031 0.952488661
vt 0.872558594 0.952488661
vt 0.872558594 0.976621389
vt 0.888183594 0.976621389
vt 0.888183594 0.952488661
vt 0.889160156 0.952488661
vt 0.889160156 0.976621389
vt 0.904785156 0.976621389
vt 0.904785156 0.952488661
vt 0.956542969 0.955505252
vt 0.956542969 0.97963798
vt 0.972167969 0.97963798
vt 0.972167969 0.955505252
vt 0.973144531 0.955505252
vt 0.973144531 0.97963798
vt 0.988769531 0.97963798
vt 0.988769531 0.955505252
vt 0.0483398438 0.970588207
vt 0.0483398438 0.994720936
vt 0.0639648438 0.994720936
vt 0.0639648438 0.970588207
vt 0.0649414062 0.970588207
vt 0.0649414062 0.994720936
vt 0.0805664062 0.994720936
vt 0.0805664062 0.970588207
vt 0.0815429688 0.970588207
vt 0.0815429688 0.994720936
vt 0.0971679688 0.994720936
vt 0.0971679688 0.970588207
vt 0.0981445312 0.970588207
vt 0.0981445312 0.994720936
vt 0.113769531 0.994720936
vt 0.113769531 0.970588207
vt 0.114746094 0.970588207
vt 0.114746094 0.994720936
vt 0.130371094 0.994720936
vt 0.130371094 0.970588207
vt 0.195800781 0.970588207
vt 0.195800781 0.994720936
vt 0.211425781 0.994720936
vt 0.211425781 0.970588207
vt 0.212402344 0.970588207
vt 0.212402344 0.994720936
vt 0.228027344 0.994720936
vt 0.228027344 0.970588207
vt 0.229003906 0.970588207
vt 0.229003906 0.994720936
vt 0.244628906 0.994720936
vt 0.244628906 0.970588207
vt 0.00048828125 0.972096503
vt 0.00048828125 0.996229231
vt 0.0161132812 0.996229231
vt 0.0161132812 0.972096503
vt 0.0170898438 0.972096503
vt 0.0170898438 0.996229231
vt 0.0327148438 0.996229231
vt 0.0327148438 0.972096503
vt 0.131347656 0.972096503
vt 0.131347656 0.996229231
vt 0.146972656 0.996229231
vt 0.146972656 0.972096503
vt 0.147949219 0.972096503
vt 0.147949219 0.996229231
vt 0.163574219 0.996229231
vt 0.163574219 0.972096503
vt 0.164550781 0.972096503
vt 0.164550781 0.996229231
vt 0.180175781 0.996229231
vt 0.180175781 0.972096503
vt 0.379394531 0.972096503
vt 0.379394531 0.996229231
vt 0.395019531 0.996229231
vt 0.395019531 0.972096503
vt 0.252441406 0.973604798
vt 0.252441406 0.997737527
vt 0.268066406 0.997737527
vt 0.268066406 0.973604798
vt 0.269042969 0.973604798
vt 0.269042969 0.997737527
vt 0.284667969 0.997737527
vt 0.284667969 0.973604798
vt 0.331542969 0.973604798
vt 0.331542969 0.997737527
vt 0.347167969 0.997737527
vt 0.347167969 0.973604798
vt 0.348144531 0.973604798
vt 0.348144531 0.997737527
vt 0.363769531 0.997737527
vt 0.363769531 0.973604798
vt 0.409667969 0.973604798
vt 0.409667969 0.997737527
vt 0.425292969 0.997737527
vt 0.425292969 0.973604798
vt 0.426269531 0.973604798
vt 0.426269531 0.997737527
vt 0.441894531 0.997737527
vt 0.441894531 0.973604798
vt 0.442871094 0.973604798
vt 0.442871094 0.997737527
vt 0.458496094 0.997737527
vt 0.458496094 0.973604798
vt 0.459472656 0.973604798
vt 0.459472656 0.997737527
vt 0.475097656 0.997737527
vt 0.475097656 0.973604798
vt 0.599121094 0.973604798
vt 0.599121094 0.997737527
vt 0.614746094 0.997737527
vt 0.614746094 0.973604798
vt 0.285644531 0.975113094
vt 0.285644531 0.999245822
vt 0.301269531 0.999245822
vt 0.301269531 0.975113094
g xishao_2-mesh_0
f 3/3/3 2/2/2 1/1/1
f 1/1/1 4/4/4 3/3/3
f 7/7/7 6/6/6 5/5/5
f 5/5/5 8/8/8 7/7/7
f 11/11/11 10/10/10 9/9/9
f 9/9/9 12/12/12 11/11/11
f 15/15/15 14/14/14 13/13/13
f 13/13/13 16/16/16 15/15/15
f 19/19/19 18/18/18 17/17/17
f 17/17/17 20/20/20 19/19/19
f 23/23/23 22/22/22 21/21/21
f 21/21/21 24/24/24 23/23/23
f 27/27/27 26/26/26 25/25/25
f 25/25/25 28/28/28 27/27/27
f 31/31/31 30/30/30 29/29/29
f 29/29/29 32/32/32 31/31/31
f 35/35/35 34/34/34 33/33/33
f 33/33/33 36/36/36 35/35/35
f 39/39/39 38/38/38 37/37/37
f 37/37/37 40/40/40 39/39/39
f 43/43/43 42/42/42 41/41/41
f 41/41/41 44/44/44 43/43/43
f 47/47/47 46/46/46 45/45/45
f 45/45/45 48/48/48 47/47/47
f 51/51/51 50/50/50 49/49/49
f 49/49/49 52/52/52 51/51/51
f 55/55/55 54/54/54 53/53/53
f 53/53/53 56/56/56 55/55/55
f 59/59/59 58/58/58 57/57/57
f 57/57/57 60/60/60 59/59/59
f 63/63/63 62/62/62 61/61/61
f 61/61/61 64/64/64 63/63/63
f 67/67/67 66/66/66 65/65/65
f 65/65/65 68/68/68 67/67/67
f 71/71/71 70/70/70 69/69/69
f 69/69/69 72/72/72 71/71/71
f 75/75/75 74/74/74 73/73/73
f 73/73/73 76/76/76 75/75/75
f 79/79/79 78/78/78 77/77/77
f 77/77/77 80/80/80 79/79/79
f 83/83/83 82/82/82 81/81/81
f 81/81/81 84/84/84 83/83/83
f 87/87/87 86/86/86 85/85/85
f 85/85/85 88/88/88 87/87/87
f 91/91/91 90/90/90 89/89/89
f 89/89/89 92/92/92 91/91/91
f 95/95/95 94/94/94 93/93/93
f 93/93/93 96/96/96 95/95/95
f 99/99/99 98/98/98 97/97/97
f 97/97/97 100/100/100 99/99/99
f 103/103/103 102/102/102 101/101/101
f 101/101/101 104/104/104 103/103/103
f 107/107/107 106/106/106 105/105/105
f 105/105/105 108/108/108 107/107/107
f 111/111/111 110/110/110 109/109/109
f 109/109/109 112/112/112 111/111/111
f 115/115/115 114/114/114 113/113/113
f 113/113/113 116/116/116 115/115/115
f 119/119/119 118/118/118 117/117/117
f 117/117/117 120/120/120 119/119/119
f 123/123/123 122/122/122 121/121/121
f 121/121/121 124/124/124 123/123/123
f 127/127/127 126/126/126 125/125/125
f 125/125/125 128/128/128 127/127/127
f 131/131/131 130/130/130 129/129/129
f 129/129/129 132/132/132 131/131/131
f 135/135/135 134/134/134 133/133/133
f 133/133/133 136/136/136 135/135/135
f 139/139/139 138/138/138 137/137/137
f 137/137/137 140/140/140 139/139/139
f 143/143/143 142/142/142 141/141/141
f 141/141/141 144/144/144 143/143/143
f 147/147/147 146/146/146 145/145/145
f 145/145/145 148/148/148 147/147/147
f 151/151/151 150/150/150 149/149/149
f 149/149/149 152/152/152 151/151/151
f 155/155/155 154/154/154 153/153/153
f 153/153/153 156/156/156 155/155/155
f 159/159/159 158/158/158 157/157/157
f 157/157/157 160/160/160 159/159/159
f 163/163/163 162/162/162 161/161/161
f 161/161/161 164/164/164 163/163/163
f 167/167/167 166/166/166 165/165/165
f 165/165/165 168/168/168 167/167/167
f 171/171/171 170/170/170 169/169/169
f 169/169/169 172/172/172 171/171/171
f 175/175/175 174/174/174 173/173/173
f 173/173/173 176/176/176 175/175/175
f 179/179/179 178/178/178 177/177/177
f 177/177/177 180/180/180 179/179/179
f 183/183/183 182/182/182 181/181/181
f 181/181/181 184/184/184 183/183/183
f 187/187/187 186/186/186 185/185/185
f 185/185/185 188/188/188 187/187/187
f 191/191/191 190/190/190 189/189/189
f 189/189/189 192/192/192 191/191/191
f 195/195/195 194/194/194 193/193/193
f 193/193/193 196/196/196 195/195/195
f 199/199/199 198/198/198 197/197/197
f 197/197/197 200/200/200 199/199/199
f 203/203/203 202/202/202 201/201/201
f 201/201/201 204/204/204 203/203/203
f 207/207/207 206/206/206 205/205/205
f 205/205/205 208/208/208 207/207/207
f 211/211/211 210/210/210 209/209/209
f 209/209/209 212/212/212 211/211/211
f 215/215/215 214/214/214 213/213/213
f 213/213/213 216/216/216 215/215/215
f 219/219/219 218/218/218 217/217/217
f 217/217/217 220/220/220 219/219/219
f 223/223/223 222/222/222 221/221/221
f 221/221/221 224/224/224 223/223/223
f 227/227/227 226/226/226 225/225/225
f 225/225/225 228/228/228 227/227/227
f 231/231/231 230/230/230 229/229/229
f 229/229/229 232/232/232 231/231/231
f 235/235/235 234/234/234 233/233/233
f 233/233/233 236/236/236 235/235/235
f 239/239/239 238/238/238 237/237/237
f 237/237/237 240/240/240 239/239/239
f 243/243/243 242/242/242 241/241/241
f 241/241/241 244/244/244 243/243/243
f 247/247/247 246/246/246 245/245/245
f 245/245/245 248/248/248 247/247/247
f 251/251/251 250/250/250 249/249/249
f 249/249/249 252/252/252 251/251/251
f 255/255/255 254/254/254 253/253/253
f 253/253/253 256/256/256 255/255/255
f 259/259/259 258/258/258 257/257/257
f 257/257/257 260/260/260 259/259/259
f 263/263/263 262/262/262 261/261/261
f 261/261/261 264/264/264 263/263/263
f 267/267/267 266/266/266 265/265/265
f 265/265/265 268/268/268 267/267/267
f 271/271/271 270/270/270 269/269/269
f 269/269/269 272/272/272 271/271/271
f 275/275/275 274/274/274 273/273/273
f 273/273/273 276/276/276 275/275/275
f 279/279/279 278/278/278 277/277/277
f 277/277/277 280/280/280 279/279/279
f 283/283/283 282/282/282 281/281/281
f 281/281/281 284/284/284 283/283/283
f 287/287/287 286/286/286 285/285/285
f 285/285/285 288/288/288 287/287/287
f 291/291/291 290/290/290 289/289/289
f 289/289/289 292/292/292 291/291/291
f 295/295/295 294/294/294 293/293/293
f 293/293/293 296/296/296 295/295/295
f 299/299/299 298/298/298 297/297/297
f 297/297/297 300/300/300 299/299/299
f 303/303/303 302/302/302 301/301/301
f 301/301/301 304/304/304 303/303/303
f 307/307/307 306/306/306 305/305/305
f 305/305/305 308/308/308 307/307/307
f 311/311/311 310/310/310 309/309/309
f 309/309/309 312/312/312 311/311/311
f 315/315/315 314/314/314 313/313/313
f 313/313/313 316/316/316 315/315/315
f 319/319/319 318/318/318 317/317/317
f 317/317/317 320/320/320 319/319/319
f 323/323/323 322/322/322 321/321/321
f 321/321/321 324/324/324 323/323/323
f 327/327/327 326/326/326 325/325/325
f 325/325/325 328/328/328 327/327/327
f 331/331/331 330/330/330 329/329/329
f 329/329/329 332/332/332 331/331/331
f 335/335/335 334/334/334 333/333/333
f 333/333/333 336/336/336 335/335/335
f 339/339/339 338/338/338 337/337/337
f 337/337/337 340/340/340 339/339/339
f 343/343/343 342/342/342 341/341/341
f 341/341/341 344/344/344 343/343/343
f 347/347/347 346/346/346 345/345/345
f 345/345/345 348/348/348 347/347/347
f 351/351/351 350/350/350 349/349/349
f 349/349/349 352/352/352 351/351/351
f 355/355/355 354/354/354 353/353/353
f 353/353/353 356/356/356 355/355/355
f 359/359/359 358/358/358 357/357/357
f 357/357/357 360/360/360 359/359/359
f 363/363/363 362/362/362 361/361/361
f 361/361/361 364/364/364 363/363/363
f 367/367/367 366/366/366 365/365/365
f 365/365/365 368/368/368 367/367/367
f 371/371/371 370/370/370 369/369/369
f 369/369/369 372/372/372 371/371/371
f 375/375/375 374/374/374 373/373/373
f 373/373/373 376/376/376 375/375/375
f 379/379/379 378/378/378 377/377/377
f 377/377/377 380/380/380 379/379/379
f 383/383/383 382/382/382 381/381/381
f 381/381/381 384/384/384 383/383/383
f 387/387/387 386/386/386 385/385/385
f 385/385/385 388/388/388 387/387/387
f 391/391/391 390/390/390 389/389/389
f 389/389/389 392/392/392 391/391/391
f 395/395/395 394/394/394 393/393/393
f 393/393/393 396/396/396 395/395/395
f 399/399/399 398/398/398 397/397/397
f 397/397/397 400/400/400 399/399/399
f 403/403/403 402/402/402 401/401/401
f 401/401/401 404/404/404 403/403/403
f 407/407/407 406/406/406 405/405/405
f 405/405/405 408/408/408 407/407/407
f 411/411/411 410/410/410 409/409/409
f 409/409/409 412/412/412 411/411/411
f 415/415/415 414/414/414 413/413/413
f 413/413/413 416/416/416 415/415/415
f 419/419/419 418/418/418 417/417/417
f 417/417/417 420/420/420 419/419/419
f 423/423/423 422/422/422 421/421/421
f 421/421/421 424/424/424 423/423/423
f 427/427/427 426/426/426 425/425/425
f 425/425/425 428/428/428 427/427/427
f 431/431/431 430/430/430 429/429/429
f 429/429/429 432/432/432 431/431/431
f 435/435/435 434/434/434 433/433/433
f 433/433/433 436/436/436 435/435/435
f 439/439/439 438/438/438 437/437/437
f 437/437/437 440/440/440 439/439/439
f 443/443/443 442/442/442 441/441/441
f 441/441/441 444/444/444 443/443/443
f 447/447/447 446/446/446 445/445/445
f 445/445/445 448/448/448 447/447/447
f 451/451/451 450/450/450 449/449/449
f 449/449/449 452/452/452 451/451/451
f 455/455/455 454/454/454 453/453/453
f 453/453/453 456/456/456 455/455/455
f 459/459/459 458/458/458 457/457/457
f 457/457/457 460/460/460 459/459/459
f 463/463/463 462/462/462 461/461/461
f 461/461/461 464/464/464 463/463/463
f 467/467/467 466/466/466 465/465/465
f 465/465/465 468/468/468 467/467/467
f 471/471/471 470/470/470 469/469/469
f 469/469/469 472/472/472 471/471/471
f 475/475/475 474/474/474 473/473/473
f 473/473/473 476/476/476 475/475/475
f 479/479/479 478/478/478 477/477/477
f 477/477/477 480/480/480 479/479/479
f 483/483/483 482/482/482 481/481/481
f 481/481/481 484/484/484 483/483/483
f 487/487/487 486/486/486 485/485/485
f 485/485/485 488/488/488 487/487/487
f 491/491/491 490/490/490 489/489/489
f 489/489/489 492/492/492 491/491/491
f 495/495/495 494/494/494 493/493/493
f 493/493/493 496/496/496 495/495/495
