g jinluhao-mesh
v -416 194 0
v -416 1346 0
v -1088 1346 0
v -1088 194 0
v -1088 194 0
v -1088 1346 0
v -1728 1346 0
v -1728 194 0
v -544 1346 0
v -544 1602 0
v -992 1602 0
v -992 1346 0
v -992 1346 0
v -992 1602 0
v -1408 1602 0
v -1408 1346 0
v -544 1602 0
v -544 1762 0
v -928 1762 0
v -928 1602 0
v -1728 322 0
v -1728 642 0
v -1888 642 0
v -1888 322 0
v -1728 642 0
v -1728 962 0
v -1888 962 0
v -1888 642 0
v -1024 66 0
v -1024 194 0
v -1408 194 0
v -1408 66 0
v -640 66 0
v -640 194 0
v -1024 194 0
v -1024 66 0
v -288 930 0
v -288 1314 0
v -416 1314 0
v -416 930 0
v -288 546 0
v -288 930 0
v -416 930 0
v -416 546 0
v -160 226 0
v -160 386 0
v -320 386 0
v -320 226 0
v -928 1698 0
v -928 1826 0
v -1088 1826 0
v -1088 1698 0
v -1888 418 0
v -1888 578 0
v -2016 578 0
v -2016 418 0
v -384 1538 0
v -384 1666 0
v -544 1666 0
v -544 1538 0
v -1888 578 0
v -1888 738 0
v -2016 738 0
v -2016 578 0
v -1408 1346 0
v -1408 1442 0
v -1600 1442 0
v -1600 1346 0
v -1728 1154 0
v -1728 1346 0
v -1824 1346 0
v -1824 1154 0
v -96 610 0
v -96 898 0
v -160 898 0
v -160 610 0
v -1728 962 0
v -1728 1154 0
v -1824 1154 0
v -1824 962 0
v -96 354 0
v -96 610 0
v -160 610 0
v -160 354 0
v -128 1186 0
v -128 1282 0
v -288 1282 0
v -288 1186 0
v -224 610 0
v -224 834 0
v -288 834 0
v -288 610 0
v -224 834 0
v -224 1058 0
v -288 1058 0
v -288 834 0
v -544 98 0
v -544 194 0
v -640 194 0
v -640 98 0
v -448 1346 0
v -448 1442 0
v -544 1442 0
v -544 1346 0
v -768 34 0
v -768 66 0
v -1056 66 0
v -1056 34 0
v -736 0 0
v -736 34 0
v -864 34 0
v -864 0 0
v -1792 1378 0
v -1792 1442 0
v -1920 1442 0
v -1920 1378 0
v -224 162 0
v -224 226 0
v -352 226 0
v -352 162 0
v -160 386 0
v -160 514 0
v -224 514 0
v -224 386 0
v -32 546 0
v -32 674 0
v -96 674 0
v -96 546 0
v -32 674 0
v -32 802 0
v -96 802 0
v -96 674 0
v -1056 34 0
v -1056 66 0
v -1312 66 0
v -1312 34 0
v -1824 1282 0
v -1824 1378 0
v -1888 1378 0
v -1888 1282 0
v -608 1762 0
v -608 1826 0
v -704 1826 0
v -704 1762 0
v -1440 130 0
v -1440 194 0
v -1536 194 0
v -1536 130 0
v -352 450 0
v -352 546 0
v -416 546 0
v -416 450 0
v -160 898 0
v -160 994 0
v -224 994 0
v -224 898 0
v -288 1570 0
v -288 1634 0
v -384 1634 0
v -384 1570 0
v -1408 1442 0
v -1408 1538 0
v -1472 1538 0
v -1472 1442 0
v -928 1602 0
v -928 1634 0
v -1088 1634 0
v -1088 1602 0
v -1888 354 0
v -1888 418 0
v -1952 418 0
v -1952 354 0
v -1088 1698 0
v -1088 1762 0
v -1152 1762 0
v -1152 1698 0
v -320 226 0
v -320 290 0
v -384 290 0
v -384 226 0
v -704 1762 0
v -704 1826 0
v -768 1826 0
v -768 1762 0
v -352 386 0
v -352 450 0
v -416 450 0
v -416 386 0
v -1824 1218 0
v -1824 1282 0
v -1888 1282 0
v -1888 1218 0
v -160 834 0
v -160 898 0
v -224 898 0
v -224 834 0
v -2016 578 0
v -2016 706 0
v -2047 706 0
v -2047 578 0
v -2016 450 0
v -2016 578 0
v -2047 578 0
v -2047 450 0
v -1088 1602 0
v -1088 1634 0
v -1216 1634 0
v -1216 1602 0
v -1536 130 0
v -1536 194 0
v -1600 194 0
v -1600 130 0
v -1280 1602 0
v -1280 1634 0
v -1376 1634 0
v -1376 1602 0
v -1472 1442 0
v -1472 1506 0
v -1504 1506 0
v -1504 1442 0
v -224 1282 0
v -224 1314 0
v -288 1314 0
v -288 1282 0
v -1600 1346 0
v -1600 1410 0
v -1632 1410 0
v -1632 1346 0
v -416 1346 0
v -416 1410 0
v -448 1410 0
v -448 1346 0
v -480 1442 0
v -480 1474 0
v -544 1474 0
v -544 1442 0
v -1408 1634 0
v -1408 1666 0
v -1472 1666 0
v -1472 1634 0
v -1600 162 0
v -1600 194 0
v -1664 194 0
v -1664 162 0
v -1408 130 0
v -1408 194 0
v -1440 194 0
v -1440 130 0
v -1504 98 0
v -1504 130 0
v -1568 130 0
v -1568 98 0
v -480 1666 0
v -480 1698 0
v -544 1698 0
v -544 1666 0
v -1152 1730 0
v -1152 1762 0
v -1216 1762 0
v -1216 1730 0
v -128 194 0
v -128 258 0
v -160 258 0
v -160 194 0
v -128 290 0
v -128 354 0
v -160 354 0
v -160 290 0
v -384 194 0
v -384 258 0
v -416 258 0
v -416 194 0
v -1024 2 0
v -1024 34 0
v -1088 34 0
v -1088 2 0
v -352 34 0
v -352 98 0
v -384 98 0
v -384 34 0
v -384 322 0
v -384 386 0
v -416 386 0
v -416 322 0
v -256 1058 0
v -256 1122 0
v -288 1122 0
v -288 1058 0
v -224 1154 0
v -224 1186 0
v -288 1186 0
v -288 1154 0
v -160 642 0
v -160 706 0
v -192 706 0
v -192 642 0
v -224 450 0
v -224 514 0
v -256 514 0
v -256 450 0
v -160 514 0
v -160 578 0
v -192 578 0
v -192 514 0
v -1888 738 0
v -1888 770 0
v -1952 770 0
v -1952 738 0
v -992 1634 0
v -992 1666 0
v -1056 1666 0
v -1056 1634 0
v -0 578 0
v -0 642 0
v -32 642 0
v -32 578 0
v -928 1634 0
v -928 1666 0
v -992 1666 0
v -992 1634 0
v -192 770 0
v -192 834 0
v -224 834 0
v -224 770 0
v -480 1506 0
v -480 1538 0
v -544 1538 0
v -544 1506 0
v -320 1314 0
v -320 1346 0
v -384 1346 0
v -384 1314 0
v -416 1506 0
v -416 1538 0
v -480 1538 0
v -480 1506 0
v -1824 994 0
v -1824 1058 0
v -1856 1058 0
v -1856 994 0
v -832 1762 0
v -832 1794 0
v -896 1794 0
v -896 1762 0
v -1728 290 0
v -1728 322 0
v -1792 322 0
v -1792 290 0
v -448 162 0
v -448 194 0
v -512 194 0
v -512 162 0
v -1376 1602 0
v -1376 1634 0
v -1440 1634 0
v -1440 1602 0
v -320 482 0
v -320 546 0
v -352 546 0
v -352 482 0
v -96 1218 0
v -96 1250 0
v -128 1250 0
v -128 1218 0
v -1632 1346 0
v -1632 1378 0
v -1664 1378 0
v -1664 1346 0
v -64 802 0
v -64 834 0
v -96 834 0
v -96 802 0
v -1888 770 0
v -1888 802 0
v -1920 802 0
v -1920 770 0
v -1824 1186 0
v -1824 1218 0
v -1856 1218 0
v -1856 1186 0
v -192 994 0
v -192 1026 0
v -224 1026 0
v -224 994 0
v -64 514 0
v -64 546 0
v -96 546 0
v -96 514 0
v -1952 770 0
v -1952 802 0
v -1984 802 0
v -1984 770 0
v -96 290 0
v -96 322 0
v -128 322 0
v -128 290 0
v -224 386 0
v -224 418 0
v -256 418 0
v -256 386 0
v -64 450 0
v -64 482 0
v -96 482 0
v -96 450 0
v -1952 386 0
v -1952 418 0
v -1984 418 0
v -1984 386 0
v -352 194 0
v -352 226 0
v -384 226 0
v -384 194 0
v -512 130 0
v -512 162 0
v -544 162 0
v -544 130 0
v -1664 130 0
v -1664 162 0
v -1696 162 0
v -1696 130 0
v -320 290 0
v -320 322 0
v -352 322 0
v -352 290 0
v -1728 258 0
v -1728 290 0
v -1760 290 0
v -1760 258 0
v -192 194 0
v -192 226 0
v -224 226 0
v -224 194 0
v -320 450 0
v -320 482 0
v -352 482 0
v -352 450 0
v -0 546 0
v -0 578 0
v -32 578 0
v -32 546 0
v -512 162 0
v -512 194 0
v -544 194 0
v -544 162 0
v -1792 290 0
v -1792 322 0
v -1824 322 0
v -1824 290 0
v -1952 738 0
v -1952 770 0
v -1984 770 0
v -1984 738 0
v -384 1314 0
v -384 1346 0
v -416 1346 0
v -416 1314 0
v -896 1762 0
v -896 1794 0
v -928 1794 0
v -928 1762 0
v -192 738 0
v -192 770 0
v -224 770 0
v -224 738 0
v -1824 962 0
v -1824 994 0
v -1856 994 0
v -1856 962 0
v -1504 1442 0
v -1504 1474 0
v -1536 1474 0
v -1536 1442 0
v -1408 1538 0
v -1408 1570 0
v -1440 1570 0
v -1440 1538 0
v -384 1346 0
v -384 1378 0
v -416 1378 0
v -416 1346 0
v -1760 1410 0
v -1760 1442 0
v -1792 1442 0
v -1792 1410 0
v -352 1538 0
v -352 1570 0
v -384 1570 0
v -384 1538 0
v -1664 162 0
v -1664 194 0
v -1696 194 0
v -1696 162 0
v -1408 98 0
v -1408 130 0
v -1440 130 0
v -1440 98 0
v -1088 1794 0
v -1088 1826 0
v -1120 1826 0
v -1120 1794 0
v -1568 98 0
v -1568 130 0
v -1600 130 0
v -1600 98 0
vt 0.00048828125 0.000703215599
vt 0.00048828125 0.810829818
vt 0.328613281 0.810829818
vt 0.328613281 0.000703215599
vt 0.329589844 0.000703215599
vt 0.329589844 0.810829818
vt 0.642089844 0.810829818
vt 0.642089844 0.000703215599
vt 0.643066406 0.000703215599
vt 0.643066406 0.180731356
vt 0.861816406 0.180731356
vt 0.861816406 0.000703215599
vt 0.643066406 0.182137847
vt 0.643066406 0.362165987
vt 0.846191406 0.362165987
vt 0.846191406 0.182137847
vt 0.643066406 0.363572419
vt 0.643066406 0.476090014
vt 0.830566406 0.476090014
vt 0.830566406 0.363572419
vt 0.862792969 0.000703215599
vt 0.862792969 0.225738406
vt 0.940917969 0.225738406
vt 0.940917969 0.000703215599
vt 0.862792969 0.227144837
vt 0.862792969 0.452180028
vt 0.940917969 0.452180028
vt 0.940917969 0.227144837
vt 0.643066406 0.477496505
vt 0.643066406 0.567510545
vt 0.830566406 0.567510545
vt 0.830566406 0.477496505
vt 0.643066406 0.568917036
vt 0.643066406 0.658931077
vt 0.830566406 0.658931077
vt 0.830566406 0.568917036
vt 0.862792969 0.453586519
vt 0.862792969 0.7236287
vt 0.925292969 0.7236287
vt 0.925292969 0.453586519
vt 0.926269531 0.453586519
vt 0.926269531 0.7236287
vt 0.988769531 0.7236287
vt 0.988769531 0.453586519
vt 0.643066406 0.660337567
vt 0.643066406 0.772855163
vt 0.721191406 0.772855163
vt 0.721191406 0.660337567
vt 0.722167969 0.660337567
vt 0.722167969 0.750351608
vt 0.800292969 0.750351608
vt 0.800292969 0.660337567
vt 0.862792969 0.725035191
vt 0.862792969 0.837552726
vt 0.925292969 0.837552726
vt 0.925292969 0.725035191
vt 0.722167969 0.751758099
vt 0.722167969 0.841772139
vt 0.800292969 0.841772139
vt 0.800292969 0.751758099
vt 0.926269531 0.725035191
vt 0.926269531 0.837552726
vt 0.988769531 0.837552726
vt 0.988769531 0.725035191
vt 0.00048828125 0.812236309
vt 0.00048828125 0.879746854
vt 0.0942382812 0.879746854
vt 0.0942382812 0.812236309
vt 0.801269531 0.660337567
vt 0.801269531 0.795358658
vt 0.848144531 0.795358658
vt 0.848144531 0.660337567
vt 0.643066406 0.774261594
vt 0.643066406 0.97679323
vt 0.674316406 0.97679323
vt 0.674316406 0.774261594
vt 0.801269531 0.796765089
vt 0.801269531 0.931786239
vt 0.848144531 0.931786239
vt 0.848144531 0.796765089
vt 0.675292969 0.774261594
vt 0.675292969 0.954289734
vt 0.706542969 0.954289734
vt 0.706542969 0.774261594
vt 0.0952148438 0.812236309
vt 0.0952148438 0.879746854
vt 0.173339844 0.879746854
vt 0.173339844 0.812236309
vt 0.174316406 0.812236309
vt 0.174316406 0.969760895
vt 0.205566406 0.969760895
vt 0.205566406 0.812236309
vt 0.206542969 0.812236309
vt 0.206542969 0.969760895
vt 0.237792969 0.969760895
vt 0.237792969 0.812236309
vt 0.238769531 0.812236309
vt 0.238769531 0.879746854
vt 0.285644531 0.879746854
vt 0.285644531 0.812236309
vt 0.286621094 0.812236309
vt 0.286621094 0.879746854
vt 0.333496094 0.879746854
vt 0.333496094 0.812236309
vt 0.334472656 0.812236309
vt 0.334472656 0.834739804
vt 0.475097656 0.834739804
vt 0.475097656 0.812236309
vt 0.476074219 0.812236309
vt 0.476074219 0.836849511
vt 0.538574219 0.836849511
vt 0.538574219 0.812236309
vt 0.539550781 0.812236309
vt 0.539550781 0.857243299
vt 0.602050781 0.857243299
vt 0.602050781 0.812236309
vt 0.334472656 0.836146295
vt 0.334472656 0.881153286
vt 0.396972656 0.881153286
vt 0.396972656 0.836146295
vt 0.603027344 0.812236309
vt 0.603027344 0.90225035
vt 0.634277344 0.90225035
vt 0.634277344 0.812236309
vt 0.397949219 0.836146295
vt 0.397949219 0.926160336
vt 0.429199219 0.926160336
vt 0.429199219 0.836146295
vt 0.430175781 0.836146295
vt 0.430175781 0.926160336
vt 0.461425781 0.926160336
vt 0.461425781 0.836146295
vt 0.862792969 0.838959217
vt 0.862792969 0.861462712
vt 0.987792969 0.861462712
vt 0.987792969 0.838959217
vt 0.476074219 0.838256001
vt 0.476074219 0.905766547
vt 0.507324219 0.905766547
vt 0.507324219 0.838256001
vt 0.722167969 0.84317863
vt 0.722167969 0.88818568
vt 0.769042969 0.88818568
vt 0.769042969 0.84317863
vt 0.539550781 0.85864979
vt 0.539550781 0.90365684
vt 0.586425781 0.90365684
vt 0.586425781 0.85864979
vt 0.862792969 0.862869203
vt 0.862792969 0.930379748
vt 0.894042969 0.930379748
vt 0.894042969 0.862869203
vt 0.895019531 0.862869203
vt 0.895019531 0.930379748
vt 0.926269531 0.930379748
vt 0.926269531 0.862869203
vt 0.927246094 0.862869203
vt 0.927246094 0.907876253
vt 0.974121094 0.907876253
vt 0.974121094 0.862869203
vt 0.00048828125 0.881153286
vt 0.00048828125 0.948663831
vt 0.0317382812 0.948663831
vt 0.0317382812 0.881153286
vt 0.0327148438 0.881153286
vt 0.0327148438 0.90365684
vt 0.110839844 0.90365684
vt 0.110839844 0.881153286
vt 0.111816406 0.881153286
vt 0.111816406 0.926160336
vt 0.143066406 0.926160336
vt 0.143066406 0.881153286
vt 0.238769531 0.881153286
vt 0.238769531 0.926160336
vt 0.270019531 0.926160336
vt 0.270019531 0.881153286
vt 0.270996094 0.881153286
vt 0.270996094 0.926160336
vt 0.302246094 0.926160336
vt 0.302246094 0.881153286
vt 0.334472656 0.882559776
vt 0.334472656 0.927566826
vt 0.365722656 0.927566826
vt 0.365722656 0.882559776
vt 0.722167969 0.889592111
vt 0.722167969 0.934599161
vt 0.753417969 0.934599161
vt 0.753417969 0.889592111
vt 0.754394531 0.889592111
vt 0.754394531 0.934599161
vt 0.785644531 0.934599161
vt 0.785644531 0.889592111
vt 0.603027344 0.90365684
vt 0.603027344 0.948663831
vt 0.634277344 0.948663831
vt 0.634277344 0.90365684
vt 0.508300781 0.838256001
vt 0.508300781 0.928270042
vt 0.523925781 0.928270042
vt 0.523925781 0.838256001
vt 0.975097656 0.862869203
vt 0.975097656 0.952883244
vt 0.990722656 0.952883244
vt 0.990722656 0.862869203
vt 0.0327148438 0.905063272
vt 0.0327148438 0.927566826
vt 0.0952148438 0.927566826
vt 0.0952148438 0.905063272
vt 0.539550781 0.905063272
vt 0.539550781 0.950070322
vt 0.570800781 0.950070322
vt 0.570800781 0.905063272
vt 0.927246094 0.909282684
vt 0.927246094 0.931786239
vt 0.974121094 0.931786239
vt 0.974121094 0.909282684
vt 0.144042969 0.881153286
vt 0.144042969 0.926160336
vt 0.159667969 0.926160336
vt 0.159667969 0.881153286
vt 0.476074219 0.907172978
vt 0.476074219 0.929676533
vt 0.507324219 0.929676533
vt 0.507324219 0.907172978
vt 0.303222656 0.881153286
vt 0.303222656 0.926160336
vt 0.318847656 0.926160336
vt 0.318847656 0.881153286
vt 0.366699219 0.882559776
vt 0.366699219 0.927566826
vt 0.382324219 0.927566826
vt 0.382324219 0.882559776
vt 0.111816406 0.927566826
vt 0.111816406 0.950070322
vt 0.143066406 0.950070322
vt 0.143066406 0.927566826
vt 0.238769531 0.927566826
vt 0.238769531 0.950070322
vt 0.270019531 0.950070322
vt 0.270019531 0.927566826
vt 0.270996094 0.927566826
vt 0.270996094 0.950070322
vt 0.302246094 0.950070322
vt 0.302246094 0.927566826
vt 0.571777344 0.905063272
vt 0.571777344 0.950070322
vt 0.587402344 0.950070322
vt 0.587402344 0.905063272
vt 0.397949219 0.927566826
vt 0.397949219 0.950070322
vt 0.429199219 0.950070322
vt 0.429199219 0.927566826
vt 0.430175781 0.927566826
vt 0.430175781 0.950070322
vt 0.461425781 0.950070322
vt 0.461425781 0.927566826
vt 0.0327148438 0.928973258
vt 0.0327148438 0.951476812
vt 0.0639648438 0.951476812
vt 0.0639648438 0.928973258
vt 0.144042969 0.927566826
vt 0.144042969 0.972573817
vt 0.159667969 0.972573817
vt 0.159667969 0.927566826
vt 0.303222656 0.927566826
vt 0.303222656 0.972573817
vt 0.318847656 0.972573817
vt 0.318847656 0.927566826
vt 0.0649414062 0.928973258
vt 0.0649414062 0.973980308
vt 0.0805664062 0.973980308
vt 0.0805664062 0.928973258
vt 0.334472656 0.928973258
vt 0.334472656 0.951476812
vt 0.365722656 0.951476812
vt 0.365722656 0.928973258
vt 0.0815429688 0.928973258
vt 0.0815429688 0.973980308
vt 0.0971679688 0.973980308
vt 0.0971679688 0.928973258
vt 0.366699219 0.928973258
vt 0.366699219 0.973980308
vt 0.382324219 0.973980308
vt 0.382324219 0.928973258
vt 0.508300781 0.929676533
vt 0.508300781 0.974683523
vt 0.523925781 0.974683523
vt 0.523925781 0.929676533
vt 0.476074219 0.931082964
vt 0.476074219 0.953586519
vt 0.507324219 0.953586519
vt 0.507324219 0.931082964
vt 0.862792969 0.931786239
vt 0.862792969 0.97679323
vt 0.878417969 0.97679323
vt 0.878417969 0.931786239
vt 0.879394531 0.931786239
vt 0.879394531 0.97679323
vt 0.895019531 0.97679323
vt 0.895019531 0.931786239
vt 0.895996094 0.931786239
vt 0.895996094 0.97679323
vt 0.911621094 0.97679323
vt 0.911621094 0.931786239
vt 0.801269531 0.93319267
vt 0.801269531 0.955696225
vt 0.832519531 0.955696225
vt 0.832519531 0.93319267
vt 0.927246094 0.93319267
vt 0.927246094 0.955696225
vt 0.958496094 0.955696225
vt 0.958496094 0.93319267
vt 0.833496094 0.93319267
vt 0.833496094 0.97819972
vt 0.849121094 0.97819972
vt 0.849121094 0.93319267
vt 0.722167969 0.936005652
vt 0.722167969 0.958509147
vt 0.753417969 0.958509147
vt 0.753417969 0.936005652
vt 0.754394531 0.936005652
vt 0.754394531 0.981012642
vt 0.770019531 0.981012642
vt 0.770019531 0.936005652
vt 0.00048828125 0.950070322
vt 0.00048828125 0.972573817
vt 0.0317382812 0.972573817
vt 0.0317382812 0.950070322
vt 0.603027344 0.950070322
vt 0.603027344 0.972573817
vt 0.634277344 0.972573817
vt 0.634277344 0.950070322
vt 0.111816406 0.951476812
vt 0.111816406 0.973980308
vt 0.143066406 0.973980308
vt 0.143066406 0.951476812
vt 0.770996094 0.936005652
vt 0.770996094 0.981012642
vt 0.786621094 0.981012642
vt 0.786621094 0.936005652
vt 0.238769531 0.951476812
vt 0.238769531 0.973980308
vt 0.270019531 0.973980308
vt 0.270019531 0.951476812
vt 0.270996094 0.951476812
vt 0.270996094 0.973980308
vt 0.302246094 0.973980308
vt 0.302246094 0.951476812
vt 0.397949219 0.951476812
vt 0.397949219 0.973980308
vt 0.429199219 0.973980308
vt 0.429199219 0.951476812
vt 0.430175781 0.951476812
vt 0.430175781 0.973980308
vt 0.461425781 0.973980308
vt 0.461425781 0.951476812
vt 0.539550781 0.951476812
vt 0.539550781 0.996483803
vt 0.555175781 0.996483803
vt 0.555175781 0.951476812
vt 0.556152344 0.951476812
vt 0.556152344 0.973980308
vt 0.571777344 0.973980308
vt 0.571777344 0.951476812
vt 0.572753906 0.951476812
vt 0.572753906 0.973980308
vt 0.588378906 0.973980308
vt 0.588378906 0.951476812
vt 0.0327148438 0.952883244
vt 0.0327148438 0.975386798
vt 0.0483398438 0.975386798
vt 0.0483398438 0.952883244
vt 0.334472656 0.952883244
vt 0.334472656 0.975386798
vt 0.350097656 0.975386798
vt 0.350097656 0.952883244
vt 0.975097656 0.954289734
vt 0.975097656 0.97679323
vt 0.990722656 0.97679323
vt 0.990722656 0.954289734
vt 0.476074219 0.95499295
vt 0.476074219 0.977496505
vt 0.491699219 0.977496505
vt 0.491699219 0.95499295
vt 0.675292969 0.955696225
vt 0.675292969 0.97819972
vt 0.690917969 0.97819972
vt 0.690917969 0.955696225
vt 0.691894531 0.955696225
vt 0.691894531 0.97819972
vt 0.707519531 0.97819972
vt 0.707519531 0.955696225
vt 0.801269531 0.957102656
vt 0.801269531 0.979606211
vt 0.816894531 0.979606211
vt 0.816894531 0.957102656
vt 0.927246094 0.957102656
vt 0.927246094 0.979606211
vt 0.942871094 0.979606211
vt 0.942871094 0.957102656
vt 0.943847656 0.957102656
vt 0.943847656 0.979606211
vt 0.959472656 0.979606211
vt 0.959472656 0.957102656
vt 0.722167969 0.959915638
vt 0.722167969 0.982419133
vt 0.737792969 0.982419133
vt 0.737792969 0.959915638
vt 0.174316406 0.971167386
vt 0.174316406 0.993670881
vt 0.189941406 0.993670881
vt 0.189941406 0.971167386
vt 0.190917969 0.971167386
vt 0.190917969 0.993670881
vt 0.206542969 0.993670881
vt 0.206542969 0.971167386
vt 0.207519531 0.971167386
vt 0.207519531 0.993670881
vt 0.223144531 0.993670881
vt 0.223144531 0.971167386
vt 0.00048828125 0.973980308
vt 0.00048828125 0.996483803
vt 0.0161132812 0.996483803
vt 0.0161132812 0.973980308
vt 0.144042969 0.973980308
vt 0.144042969 0.996483803
vt 0.159667969 0.996483803
vt 0.159667969 0.973980308
vt 0.303222656 0.973980308
vt 0.303222656 0.996483803
vt 0.318847656 0.996483803
vt 0.318847656 0.973980308
vt 0.603027344 0.973980308
vt 0.603027344 0.996483803
vt 0.618652344 0.996483803
vt 0.618652344 0.973980308
vt 0.619628906 0.973980308
vt 0.619628906 0.996483803
vt 0.635253906 0.996483803
vt 0.635253906 0.973980308
vt 0.0649414062 0.975386798
vt 0.0649414062 0.997890294
vt 0.0805664062 0.997890294
vt 0.0805664062 0.975386798
vt 0.0815429688 0.975386798
vt 0.0815429688 0.997890294
vt 0.0971679688 0.997890294
vt 0.0971679688 0.975386798
vt 0.111816406 0.975386798
vt 0.111816406 0.997890294
vt 0.127441406 0.997890294
vt 0.127441406 0.975386798
vt 0.238769531 0.975386798
vt 0.238769531 0.997890294
vt 0.254394531 0.997890294
vt 0.254394531 0.975386798
vt 0.255371094 0.975386798
vt 0.255371094 0.997890294
vt 0.270996094 0.997890294
vt 0.270996094 0.975386798
vt 0.271972656 0.975386798
vt 0.271972656 0.997890294
vt 0.287597656 0.997890294
vt 0.287597656 0.975386798
vt 0.366699219 0.975386798
vt 0.366699219 0.997890294
vt 0.382324219 0.997890294
vt 0.382324219 0.975386798
vt 0.397949219 0.975386798
vt 0.397949219 0.997890294
vt 0.413574219 0.997890294
vt 0.413574219 0.975386798
vt 0.414550781 0.975386798
vt 0.414550781 0.997890294
vt 0.430175781 0.997890294
vt 0.430175781 0.975386798
vt 0.431152344 0.975386798
vt 0.431152344 0.997890294
vt 0.446777344 0.997890294
vt 0.446777344 0.975386798
vt 0.447753906 0.975386798
vt 0.447753906 0.997890294
vt 0.463378906 0.997890294
vt 0.463378906 0.975386798
vt 0.556152344 0.975386798
vt 0.556152344 0.997890294
vt 0.571777344 0.997890294
vt 0.571777344 0.975386798
vt 0.572753906 0.975386798
vt 0.572753906 0.997890294
vt 0.588378906 0.997890294
vt 0.588378906 0.975386798
vt 0.508300781 0.976090014
vt 0.508300781 0.998593509
vt 0.523925781 0.998593509
vt 0.523925781 0.976090014
vt 0.0327148438 0.97679323
vt 0.0327148438 0.999296784
vt 0.0483398438 0.999296784
vt 0.0483398438 0.97679323
vt 0.334472656 0.97679323
vt 0.334472656 0.999296784
vt 0.350097656 0.999296784
vt 0.350097656 0.97679323
g jinluhao-mesh_0
f 3/3/3 2/2/2 1/1/1
f 1/1/1 4/4/4 3/3/3
f 7/7/7 6/6/6 5/5/5
f 5/5/5 8/8/8 7/7/7
f 11/11/11 10/10/10 9/9/9
f 9/9/9 12/12/12 11/11/11
f 15/15/15 14/14/14 13/13/13
f 13/13/13 16/16/16 15/15/15
f 19/19/19 18/18/18 17/17/17
f 17/17/17 20/20/20 19/19/19
f 23/23/23 22/22/22 21/21/21
f 21/21/21 24/24/24 23/23/23
f 27/27/27 26/26/26 25/25/25
f 25/25/25 28/28/28 27/27/27
f 31/31/31 30/30/30 29/29/29
f 29/29/29 32/32/32 31/31/31
f 35/35/35 34/34/34 33/33/33
f 33/33/33 36/36/36 35/35/35
f 39/39/39 38/38/38 37/37/37
f 37/37/37 40/40/40 39/39/39
f 43/43/43 42/42/42 41/41/41
f 41/41/41 44/44/44 43/43/43
f 47/47/47 46/46/46 45/45/45
f 45/45/45 48/48/48 47/47/47
f 51/51/51 50/50/50 49/49/49
f 49/49/49 52/52/52 51/51/51
f 55/55/55 54/54/54 53/53/53
f 53/53/53 56/56/56 55/55/55
f 59/59/59 58/58/58 57/57/57
f 57/57/57 60/60/60 59/59/59
f 63/63/63 62/62/62 61/61/61
f 61/61/61 64/64/64 63/63/63
f 67/67/67 66/66/66 65/65/65
f 65/65/65 68/68/68 67/67/67
f 71/71/71 70/70/70 69/69/69
f 69/69/69 72/72/72 71/71/71
f 75/75/75 74/74/74 73/73/73
f 73/73/73 76/76/76 75/75/75
f 79/79/79 78/78/78 77/77/77
f 77/77/77 80/80/80 79/79/79
f 83/83/83 82/82/82 81/81/81
f 81/81/81 84/84/84 83/83/83
f 87/87/87 86/86/86 85/85/85
f 85/85/85 88/88/88 87/87/87
f 91/91/91 90/90/90 89/89/89
f 89/89/89 92/92/92 91/91/91
f 95/95/95 94/94/94 93/93/93
f 93/93/93 96/96/96 95/95/95
f 99/99/99 98/98/98 97/97/97
f 97/97/97 100/100/100 99/99/99
f 103/103/103 102/102/102 101/101/101
f 101/101/101 104/104/104 103/103/103
f 107/107/107 106/106/106 105/105/105
f 105/105/105 108/108/108 107/107/107
f 111/111/111 110/110/110 109/109/109
f 109/109/109 112/112/112 111/111/111
f 115/115/115 114/114/114 113/113/113
f 113/113/113 116/116/116 115/115/115
f 119/119/119 118/118/118 117/117/117
f 117/117/117 120/120/120 119/119/119
f 123/123/123 122/122/122 121/121/121
f 121/121/121 124/124/124 123/123/123
f 127/127/127 126/126/126 125/125/125
f 125/125/125 128/128/128 127/127/127
f 131/131/131 130/130/130 129/129/129
f 129/129/129 132/132/132 131/131/131
f 135/135/135 134/134/134 133/133/133
f 133/133/133 136/136/136 135/135/135
f 139/139/139 138/138/138 137/137/137
f 137/137/137 140/140/140 139/139/139
f 143/143/143 142/142/142 141/141/141
f 141/141/141 144/144/144 143/143/143
f 147/147/147 146/146/146 145/145/145
f 145/145/145 148/148/148 147/147/147
f 151/151/151 150/150/150 149/149/149
f 149/149/149 152/152/152 151/151/151
f 155/155/155 154/154/154 153/153/153
f 153/153/153 156/156/156 155/155/155
f 159/159/159 158/158/158 157/157/157
f 157/157/157 160/160/160 159/159/159
f 163/163/163 162/162/162 161/161/161
f 161/161/161 164/164/164 163/163/163
f 167/167/167 166/166/166 165/165/165
f 165/165/165 168/168/168 167/167/167
f 171/171/171 170/170/170 169/169/169
f 169/169/169 172/172/172 171/171/171
f 175/175/175 174/174/174 173/173/173
f 173/173/173 176/176/176 175/175/175
f 179/179/179 178/178/178 177/177/177
f 177/177/177 180/180/180 179/179/179
f 183/183/183 182/182/182 181/181/181
f 181/181/181 184/184/184 183/183/183
f 187/187/187 186/186/186 185/185/185
f 185/185/185 188/188/188 187/187/187
f 191/191/191 190/190/190 189/189/189
f 189/189/189 192/192/192 191/191/191
f 195/195/195 194/194/194 193/193/193
f 193/193/193 196/196/196 195/195/195
f 199/199/199 198/198/198 197/197/197
f 197/197/197 200/200/200 199/199/199
f 203/203/203 202/202/202 201/201/201
f 201/201/201 204/204/204 203/203/203
f 207/207/207 206/206/206 205/205/205
f 205/205/205 208/208/208 207/207/207
f 211/211/211 210/210/210 209/209/209
f 209/209/209 212/212/212 211/211/211
f 215/215/215 214/214/214 213/213/213
f 213/213/213 216/216/216 215/215/215
f 219/219/219 218/218/218 217/217/217
f 217/217/217 220/220/220 219/219/219
f 223/223/223 222/222/222 221/221/221
f 221/221/221 224/224/224 223/223/223
f 227/227/227 226/226/226 225/225/225
f 225/225/225 228/228/228 227/227/227
f 231/231/231 230/230/230 229/229/229
f 229/229/229 232/232/232 231/231/231
f 235/235/235 234/234/234 233/233/233
f 233/233/233 236/236/236 235/235/235
f 239/239/239 238/238/238 237/237/237
f 237/237/237 240/240/240 239/239/239
f 243/243/243 242/242/242 241/241/241
f 241/241/241 244/244/244 243/243/243
f 247/247/247 246/246/246 245/245/245
f 245/245/245 248/248/248 247/247/247
f 251/251/251 250/250/250 249/249/249
f 249/249/249 252/252/252 251/251/251
f 255/255/255 254/254/254 253/253/253
f 253/253/253 256/256/256 255/255/255
f 259/259/259 258/258/258 257/257/257
f 257/257/257 260/260/260 259/259/259
f 263/263/263 262/262/262 261/261/261
f 261/261/261 264/264/264 263/263/263
f 267/267/267 266/266/266 265/265/265
f 265/265/265 268/268/268 267/267/267
f 271/271/271 270/270/270 269/269/269
f 269/269/269 272/272/272 271/271/271
f 275/275/275 274/274/274 273/273/273
f 273/273/273 276/276/276 275/275/275
f 279/279/279 278/278/278 277/277/277
f 277/277/277 280/280/280 279/279/279
f 283/283/283 282/282/282 281/281/281
f 281/281/281 284/284/284 283/283/283
f 287/287/287 286/286/286 285/285/285
f 285/285/285 288/288/288 287/287/287
f 291/291/291 290/290/290 289/289/289
f 289/289/289 292/292/292 291/291/291
f 295/295/295 294/294/294 293/293/293
f 293/293/293 296/296/296 295/295/295
f 299/299/299 298/298/298 297/297/297
f 297/297/297 300/300/300 299/299/299
f 303/303/303 302/302/302 301/301/301
f 301/301/301 304/304/304 303/303/303
f 307/307/307 306/306/306 305/305/305
f 305/305/305 308/308/308 307/307/307
f 311/311/311 310/310/310 309/309/309
f 309/309/309 312/312/312 311/311/311
f 315/315/315 314/314/314 313/313/313
f 313/313/313 316/316/316 315/315/315
f 319/319/319 318/318/318 317/317/317
f 317/317/317 320/320/320 319/319/319
f 323/323/323 322/322/322 321/321/321
f 321/321/321 324/324/324 323/323/323
f 327/327/327 326/326/326 325/325/325
f 325/325/325 328/328/328 327/327/327
f 331/331/331 330/330/330 329/329/329
f 329/329/329 332/332/332 331/331/331
f 335/335/335 334/334/334 333/333/333
f 333/333/333 336/336/336 335/335/335
f 339/339/339 338/338/338 337/337/337
f 337/337/337 340/340/340 339/339/339
f 343/343/343 342/342/342 341/341/341
f 341/341/341 344/344/344 343/343/343
f 347/347/347 346/346/346 345/345/345
f 345/345/345 348/348/348 347/347/347
f 351/351/351 350/350/350 349/349/349
f 349/349/349 352/352/352 351/351/351
f 355/355/355 354/354/354 353/353/353
f 353/353/353 356/356/356 355/355/355
f 359/359/359 358/358/358 357/357/357
f 357/357/357 360/360/360 359/359/359
f 363/363/363 362/362/362 361/361/361
f 361/361/361 364/364/364 363/363/363
f 367/367/367 366/366/366 365/365/365
f 365/365/365 368/368/368 367/367/367
f 371/371/371 370/370/370 369/369/369
f 369/369/369 372/372/372 371/371/371
f 375/375/375 374/374/374 373/373/373
f 373/373/373 376/376/376 375/375/375
f 379/379/379 378/378/378 377/377/377
f 377/377/377 380/380/380 379/379/379
f 383/383/383 382/382/382 381/381/381
f 381/381/381 384/384/384 383/383/383
f 387/387/387 386/386/386 385/385/385
f 385/385/385 388/388/388 387/387/387
f 391/391/391 390/390/390 389/389/389
f 389/389/389 392/392/392 391/391/391
f 395/395/395 394/394/394 393/393/393
f 393/393/393 396/396/396 395/395/395
f 399/399/399 398/398/398 397/397/397
f 397/397/397 400/400/400 399/399/399
f 403/403/403 402/402/402 401/401/401
f 401/401/401 404/404/404 403/403/403
f 407/407/407 406/406/406 405/405/405
f 405/405/405 408/408/408 407/407/407
f 411/411/411 410/410/410 409/409/409
f 409/409/409 412/412/412 411/411/411
f 415/415/415 414/414/414 413/413/413
f 413/413/413 416/416/416 415/415/415
f 419/419/419 418/418/418 417/417/417
f 417/417/417 420/420/420 419/419/419
f 423/423/423 422/422/422 421/421/421
f 421/421/421 424/424/424 423/423/423
f 427/427/427 426/426/426 425/425/425
f 425/425/425 428/428/428 427/427/427
f 431/431/431 430/430/430 429/429/429
f 429/429/429 432/432/432 431/431/431
f 435/435/435 434/434/434 433/433/433
f 433/433/433 436/436/436 435/435/435
f 439/439/439 438/438/438 437/437/437
f 437/437/437 440/440/440 439/439/439
f 443/443/443 442/442/442 441/441/441
f 441/441/441 444/444/444 443/443/443
f 447/447/447 446/446/446 445/445/445
f 445/445/445 448/448/448 447/447/447
f 451/451/451 450/450/450 449/449/449
f 449/449/449 452/452/452 451/451/451
f 455/455/455 454/454/454 453/453/453
f 453/453/453 456/456/456 455/455/455
f 459/459/459 458/458/458 457/457/457
f 457/457/457 460/460/460 459/459/459
f 463/463/463 462/462/462 461/461/461
f 461/461/461 464/464/464 463/463/463
f 467/467/467 466/466/466 465/465/465
f 465/465/465 468/468/468 467/467/467
f 471/471/471 470/470/470 469/469/469
f 469/469/469 472/472/472 471/471/471
f 475/475/475 474/474/474 473/473/473
f 473/473/473 476/476/476 475/475/475
f 479/479/479 478/478/478 477/477/477
f 477/477/477 480/480/480 479/479/479
f 483/483/483 482/482/482 481/481/481
f 481/481/481 484/484/484 483/483/483
f 487/487/487 486/486/486 485/485/485
f 485/485/485 488/488/488 487/487/487
f 491/491/491 490/490/490 489/489/489
f 489/489/489 492/492/492 491/491/491
f 495/495/495 494/494/494 493/493/493
f 493/493/493 496/496/496 495/495/495
f 499/499/499 498/498/498 497/497/497
f 497/497/497 500/500/500 499/499/499
f 503/503/503 502/502/502 501/501/501
f 501/501/501 504/504/504 503/503/503
