g hemin_5_rw-mesh
v -256 575 0
v -256 1279 0
v -576 1279 0
v -576 575 0
v -256 1279 0
v -256 1983 0
v -576 1983 0
v -576 1279 0
v -320 127 0
v -320 543 0
v -544 543 0
v -544 127 0
v -672 1119 0
v -672 1343 0
v -960 1343 0
v -960 1119 0
v -576 927 0
v -576 1567 0
v -672 1567 0
v -672 927 0
v -576 319 0
v -576 927 0
v -672 927 0
v -672 319 0
v -672 191 0
v -672 447 0
v -896 447 0
v -896 191 0
v -0 1215 0
v -0 1407 0
v -256 1407 0
v -256 1215 0
v -352 31 0
v -352 127 0
v -544 127 0
v -544 31 0
v -704 991 0
v -704 1119 0
v -832 1119 0
v -832 991 0
v -192 767 0
v -192 991 0
v -256 991 0
v -256 767 0
v -192 575 0
v -192 767 0
v -256 767 0
v -256 575 0
v -672 1343 0
v -672 1439 0
v -768 1439 0
v -768 1343 0
v -672 63 0
v -672 191 0
v -736 191 0
v -736 63 0
v -320 1983 0
v -320 2047 0
v -448 2047 0
v -448 1983 0
v -960 1183 0
v -960 1311 0
v -1003 1311 0
v -1003 1183 0
v -256 223 0
v -256 319 0
v -320 319 0
v -320 223 0
v -192 1471 0
v -192 1567 0
v -256 1567 0
v -256 1471 0
v -448 1983 0
v -448 2047 0
v -544 2047 0
v -544 1983 0
v -544 383 0
v -544 575 0
v -576 575 0
v -576 383 0
v -672 639 0
v -672 831 0
v -704 831 0
v -704 639 0
v -672 447 0
v -672 639 0
v -704 639 0
v -704 447 0
v -256 319 0
v -256 415 0
v -320 415 0
v -320 319 0
v -544 191 0
v -544 383 0
v -576 383 0
v -576 191 0
v -160 639 0
v -160 799 0
v -192 799 0
v -192 639 0
v -736 447 0
v -736 511 0
v -800 511 0
v -800 447 0
v -832 1055 0
v -832 1119 0
v -896 1119 0
v -896 1055 0
v -224 1087 0
v -224 1215 0
v -256 1215 0
v -256 1087 0
v -192 1407 0
v -192 1471 0
v -256 1471 0
v -256 1407 0
v -160 511 0
v -160 639 0
v -192 639 0
v -192 511 0
v -224 1823 0
v -224 1951 0
v -256 1951 0
v -256 1823 0
v -224 1695 0
v -224 1823 0
v -256 1823 0
v -256 1695 0
v -448 543 0
v -448 575 0
v -544 575 0
v -544 543 0
v -576 1855 0
v -576 1951 0
v -608 1951 0
v -608 1855 0
v -288 0 0
v -288 31 0
v -384 31 0
v -384 0 0
v -576 1631 0
v -576 1727 0
v -608 1727 0
v -608 1631 0
v -672 927 0
v -672 1023 0
v -704 1023 0
v -704 927 0
v -672 1023 0
v -672 1119 0
v -704 1119 0
v -704 1023 0
v -224 991 0
v -224 1087 0
v -256 1087 0
v -256 991 0
v -704 447 0
v -704 543 0
v -736 543 0
v -736 447 0
v -352 543 0
v -352 575 0
v -448 575 0
v -448 543 0
v -704 543 0
v -704 639 0
v -736 639 0
v -736 543 0
v -768 1343 0
v -768 1407 0
v -800 1407 0
v -800 1343 0
v -896 255 0
v -896 319 0
v -928 319 0
v -928 255 0
v -736 127 0
v -736 159 0
v -800 159 0
v -800 127 0
v -608 1855 0
v -608 1919 0
v -640 1919 0
v -640 1855 0
v -608 1567 0
v -608 1631 0
v -640 1631 0
v -640 1567 0
v -288 415 0
v -288 479 0
v -320 479 0
v -320 415 0
v -320 31 0
v -320 95 0
v -352 95 0
v -352 31 0
v -480 0 0
v -480 31 0
v -544 31 0
v -544 0 0
v -256 127 0
v -256 159 0
v -320 159 0
v -320 127 0
v -832 447 0
v -832 479 0
v -896 479 0
v -896 447 0
v -576 255 0
v -576 319 0
v -608 319 0
v -608 255 0
v -128 1183 0
v -128 1215 0
v -192 1215 0
v -192 1183 0
v -736 159 0
v -736 191 0
v -800 191 0
v -800 159 0
v -800 159 0
v -800 191 0
v -864 191 0
v -864 159 0
v -576 1567 0
v -576 1631 0
v -608 1631 0
v -608 1567 0
v -384 0 0
v -384 31 0
v -448 31 0
v -448 0 0
v -64 1183 0
v -64 1215 0
v -128 1215 0
v -128 1183 0
v -224 287 0
v -224 351 0
v -256 351 0
v -256 287 0
v -576 1791 0
v -576 1855 0
v -608 1855 0
v -608 1791 0
v -672 1471 0
v -672 1535 0
v -704 1535 0
v -704 1471 0
v -736 959 0
v -736 991 0
v -768 991 0
v -768 959 0
v -832 1023 0
v -832 1055 0
v -864 1055 0
v -864 1023 0
v -800 1343 0
v -800 1375 0
v -832 1375 0
v -832 1343 0
v -960 1151 0
v -960 1183 0
v -992 1183 0
v -992 1151 0
v -736 511 0
v -736 543 0
v -768 543 0
v -768 511 0
v -640 287 0
v -640 319 0
v -672 319 0
v -672 287 0
v -832 543 0
v -832 575 0
v -864 575 0
v -864 543 0
v -736 95 0
v -736 127 0
v -768 127 0
v -768 95 0
v -672 1439 0
v -672 1471 0
v -704 1471 0
v -704 1439 0
v -224 255 0
v -224 287 0
v -256 287 0
v -256 255 0
v -896 223 0
v -896 255 0
v -928 255 0
v -928 223 0
v -800 127 0
v -800 159 0
v -832 159 0
v -832 127 0
v -704 1439 0
v -704 1471 0
v -736 1471 0
v -736 1439 0
v -160 1407 0
v -160 1439 0
v -192 1439 0
v -192 1407 0
v -288 1983 0
v -288 2015 0
v -320 2015 0
v -320 1983 0
v -224 1567 0
v -224 1599 0
v -256 1599 0
v -256 1567 0
vt 0.00048828125 0.00141644478
vt 0.00048828125 0.998583555
vt 0.156738281 0.998583555
vt 0.156738281 0.00141644478
vt 0.157714844 0.00141644478
vt 0.157714844 0.998583555
vt 0.313964844 0.998583555
vt 0.313964844 0.00141644478
vt 0.314941406 0.00141644478
vt 0.314941406 0.590651572
vt 0.424316406 0.590651572
vt 0.424316406 0.00141644478
vt 0.425292969 0.00141644478
vt 0.425292969 0.318696856
vt 0.565917969 0.318696856
vt 0.565917969 0.00141644478
vt 0.566894531 0.00141644478
vt 0.566894531 0.907932043
vt 0.613769531 0.907932043
vt 0.613769531 0.00141644478
vt 0.614746094 0.00141644478
vt 0.614746094 0.862606227
vt 0.661621094 0.862606227
vt 0.661621094 0.00141644478
vt 0.662597656 0.00141644478
vt 0.662597656 0.364022672
vt 0.771972656 0.364022672
vt 0.771972656 0.00141644478
vt 0.772949219 0.00141644478
vt 0.772949219 0.2733711
vt 0.897949219 0.2733711
vt 0.897949219 0.00141644478
vt 0.898925781 0.00141644478
vt 0.898925781 0.137393773
vt 0.992675781 0.137393773
vt 0.992675781 0.00141644478
vt 0.898925781 0.140226603
vt 0.898925781 0.321529746
vt 0.961425781 0.321529746
vt 0.961425781 0.140226603
vt 0.962402344 0.140226603
vt 0.962402344 0.457507074
vt 0.993652344 0.457507074
vt 0.993652344 0.140226603
vt 0.772949219 0.27620399
vt 0.772949219 0.548158646
vt 0.804199219 0.548158646
vt 0.804199219 0.27620399
vt 0.805175781 0.27620399
vt 0.805175781 0.412181318
vt 0.852050781 0.412181318
vt 0.852050781 0.27620399
vt 0.853027344 0.27620399
vt 0.853027344 0.457507074
vt 0.884277344 0.457507074
vt 0.884277344 0.27620399
vt 0.425292969 0.321529746
vt 0.425292969 0.412181318
vt 0.487792969 0.412181318
vt 0.487792969 0.321529746
vt 0.488769531 0.321529746
vt 0.488769531 0.50283289
vt 0.510253906 0.50283289
vt 0.510253906 0.321529746
vt 0.511230469 0.321529746
vt 0.511230469 0.457507074
vt 0.542480469 0.457507074
vt 0.542480469 0.321529746
vt 0.898925781 0.324362636
vt 0.898925781 0.460339963
vt 0.930175781 0.460339963
vt 0.930175781 0.324362636
vt 0.662597656 0.366855502
vt 0.662597656 0.457507074
vt 0.709472656 0.457507074
vt 0.709472656 0.366855502
vt 0.543457031 0.321529746
vt 0.543457031 0.593484402
vt 0.559082031 0.593484402
vt 0.559082031 0.321529746
vt 0.931152344 0.324362636
vt 0.931152344 0.596317291
vt 0.946777344 0.596317291
vt 0.946777344 0.324362636
vt 0.710449219 0.366855502
vt 0.710449219 0.638810158
vt 0.726074219 0.638810158
vt 0.726074219 0.366855502
vt 0.727050781 0.366855502
vt 0.727050781 0.50283289
vt 0.758300781 0.50283289
vt 0.758300781 0.366855502
vt 0.425292969 0.415014148
vt 0.425292969 0.686968803
vt 0.440917969 0.686968803
vt 0.440917969 0.415014148
vt 0.441894531 0.415014148
vt 0.441894531 0.641643047
vt 0.457519531 0.641643047
vt 0.457519531 0.415014148
vt 0.805175781 0.415014148
vt 0.805175781 0.50566572
vt 0.836425781 0.50566572
vt 0.836425781 0.415014148
vt 0.511230469 0.460339963
vt 0.511230469 0.550991535
vt 0.542480469 0.550991535
vt 0.542480469 0.460339963
vt 0.458496094 0.415014148
vt 0.458496094 0.596317291
vt 0.474121094 0.596317291
vt 0.474121094 0.415014148
vt 0.662597656 0.460339963
vt 0.662597656 0.550991535
vt 0.693847656 0.550991535
vt 0.693847656 0.460339963
vt 0.853027344 0.460339963
vt 0.853027344 0.641643047
vt 0.868652344 0.641643047
vt 0.868652344 0.460339963
vt 0.869628906 0.460339963
vt 0.869628906 0.641643047
vt 0.885253906 0.641643047
vt 0.885253906 0.460339963
vt 0.962402344 0.460339963
vt 0.962402344 0.641643047
vt 0.978027344 0.641643047
vt 0.978027344 0.460339963
vt 0.805175781 0.508498549
vt 0.805175781 0.553824365
vt 0.852050781 0.553824365
vt 0.852050781 0.508498549
vt 0.979003906 0.460339963
vt 0.979003906 0.596317291
vt 0.994628906 0.596317291
vt 0.994628906 0.460339963
vt 0.662597656 0.553824365
vt 0.662597656 0.599150181
vt 0.709472656 0.599150181
vt 0.709472656 0.553824365
vt 0.898925781 0.463172793
vt 0.898925781 0.599150181
vt 0.914550781 0.599150181
vt 0.914550781 0.463172793
vt 0.488769531 0.50566572
vt 0.488769531 0.641643047
vt 0.504394531 0.641643047
vt 0.504394531 0.50566572
vt 0.727050781 0.50566572
vt 0.727050781 0.641643047
vt 0.742675781 0.641643047
vt 0.742675781 0.50566572
vt 0.743652344 0.50566572
vt 0.743652344 0.641643047
vt 0.759277344 0.641643047
vt 0.759277344 0.50566572
vt 0.772949219 0.550991535
vt 0.772949219 0.686968803
vt 0.788574219 0.686968803
vt 0.788574219 0.550991535
vt 0.805175781 0.556657195
vt 0.805175781 0.601983011
vt 0.852050781 0.601983011
vt 0.852050781 0.556657195
vt 0.511230469 0.553824365
vt 0.511230469 0.689801693
vt 0.526855469 0.689801693
vt 0.526855469 0.553824365
vt 0.314941406 0.593484402
vt 0.314941406 0.684135973
vt 0.330566406 0.684135973
vt 0.330566406 0.593484402
vt 0.331542969 0.593484402
vt 0.331542969 0.684135973
vt 0.347167969 0.684135973
vt 0.347167969 0.593484402
vt 0.348144531 0.593484402
vt 0.348144531 0.638810158
vt 0.379394531 0.638810158
vt 0.379394531 0.593484402
vt 0.380371094 0.593484402
vt 0.380371094 0.684135973
vt 0.395996094 0.684135973
vt 0.395996094 0.593484402
vt 0.396972656 0.593484402
vt 0.396972656 0.684135973
vt 0.412597656 0.684135973
vt 0.412597656 0.593484402
vt 0.543457031 0.596317291
vt 0.543457031 0.686968803
vt 0.559082031 0.686968803
vt 0.559082031 0.596317291
vt 0.458496094 0.599150181
vt 0.458496094 0.689801693
vt 0.474121094 0.689801693
vt 0.474121094 0.599150181
vt 0.662597656 0.601983011
vt 0.662597656 0.647308826
vt 0.693847656 0.647308826
vt 0.693847656 0.601983011
vt 0.898925781 0.601983011
vt 0.898925781 0.647308826
vt 0.930175781 0.647308826
vt 0.930175781 0.601983011
vt 0.805175781 0.604815841
vt 0.805175781 0.650141656
vt 0.836425781 0.650141656
vt 0.836425781 0.604815841
vt 0.931152344 0.599150181
vt 0.931152344 0.689801693
vt 0.946777344 0.689801693
vt 0.946777344 0.599150181
vt 0.348144531 0.641643047
vt 0.348144531 0.686968803
vt 0.379394531 0.686968803
vt 0.379394531 0.641643047
vt 0.727050781 0.644475937
vt 0.727050781 0.689801693
vt 0.758300781 0.689801693
vt 0.758300781 0.644475937
vt 0.853027344 0.644475937
vt 0.853027344 0.689801693
vt 0.884277344 0.689801693
vt 0.884277344 0.644475937
vt 0.979003906 0.599150181
vt 0.979003906 0.689801693
vt 0.994628906 0.689801693
vt 0.994628906 0.599150181
vt 0.662597656 0.650141656
vt 0.662597656 0.695467412
vt 0.693847656 0.695467412
vt 0.693847656 0.650141656
vt 0.898925781 0.650141656
vt 0.898925781 0.695467412
vt 0.930175781 0.695467412
vt 0.930175781 0.650141656
vt 0.710449219 0.641643047
vt 0.710449219 0.732294619
vt 0.726074219 0.732294619
vt 0.726074219 0.641643047
vt 0.441894531 0.644475937
vt 0.441894531 0.735127449
vt 0.457519531 0.735127449
vt 0.457519531 0.644475937
vt 0.488769531 0.644475937
vt 0.488769531 0.735127449
vt 0.504394531 0.735127449
vt 0.504394531 0.644475937
vt 0.962402344 0.644475937
vt 0.962402344 0.689801693
vt 0.978027344 0.689801693
vt 0.978027344 0.644475937
vt 0.805175781 0.652974486
vt 0.805175781 0.698300242
vt 0.820800781 0.698300242
vt 0.820800781 0.652974486
vt 0.821777344 0.652974486
vt 0.821777344 0.698300242
vt 0.837402344 0.698300242
vt 0.837402344 0.652974486
vt 0.314941406 0.686968803
vt 0.314941406 0.732294619
vt 0.330566406 0.732294619
vt 0.330566406 0.686968803
vt 0.331542969 0.686968803
vt 0.331542969 0.732294619
vt 0.347167969 0.732294619
vt 0.347167969 0.686968803
vt 0.380371094 0.686968803
vt 0.380371094 0.732294619
vt 0.395996094 0.732294619
vt 0.395996094 0.686968803
vt 0.396972656 0.686968803
vt 0.396972656 0.732294619
vt 0.412597656 0.732294619
vt 0.412597656 0.686968803
vt 0.348144531 0.689801693
vt 0.348144531 0.735127449
vt 0.363769531 0.735127449
vt 0.363769531 0.689801693
vt 0.425292969 0.689801693
vt 0.425292969 0.735127449
vt 0.440917969 0.735127449
vt 0.440917969 0.689801693
vt 0.543457031 0.689801693
vt 0.543457031 0.735127449
vt 0.559082031 0.735127449
vt 0.559082031 0.689801693
vt 0.772949219 0.689801693
vt 0.772949219 0.735127449
vt 0.788574219 0.735127449
vt 0.788574219 0.689801693
vt 0.458496094 0.692634583
vt 0.458496094 0.737960339
vt 0.474121094 0.737960339
vt 0.474121094 0.692634583
vt 0.511230469 0.692634583
vt 0.511230469 0.737960339
vt 0.526855469 0.737960339
vt 0.526855469 0.692634583
vt 0.727050781 0.692634583
vt 0.727050781 0.737960339
vt 0.742675781 0.737960339
vt 0.742675781 0.692634583
vt 0.743652344 0.692634583
vt 0.743652344 0.737960339
vt 0.759277344 0.737960339
vt 0.759277344 0.692634583
vt 0.853027344 0.692634583
vt 0.853027344 0.737960339
vt 0.868652344 0.737960339
vt 0.868652344 0.692634583
g hemin_5_rw-mesh_0
f 3/3/3 2/2/2 1/1/1
f 1/1/1 4/4/4 3/3/3
f 7/7/7 6/6/6 5/5/5
f 5/5/5 8/8/8 7/7/7
f 11/11/11 10/10/10 9/9/9
f 9/9/9 12/12/12 11/11/11
f 15/15/15 14/14/14 13/13/13
f 13/13/13 16/16/16 15/15/15
f 19/19/19 18/18/18 17/17/17
f 17/17/17 20/20/20 19/19/19
f 23/23/23 22/22/22 21/21/21
f 21/21/21 24/24/24 23/23/23
f 27/27/27 26/26/26 25/25/25
f 25/25/25 28/28/28 27/27/27
f 31/31/31 30/30/30 29/29/29
f 29/29/29 32/32/32 31/31/31
f 35/35/35 34/34/34 33/33/33
f 33/33/33 36/36/36 35/35/35
f 39/39/39 38/38/38 37/37/37
f 37/37/37 40/40/40 39/39/39
f 43/43/43 42/42/42 41/41/41
f 41/41/41 44/44/44 43/43/43
f 47/47/47 46/46/46 45/45/45
f 45/45/45 48/48/48 47/47/47
f 51/51/51 50/50/50 49/49/49
f 49/49/49 52/52/52 51/51/51
f 55/55/55 54/54/54 53/53/53
f 53/53/53 56/56/56 55/55/55
f 59/59/59 58/58/58 57/57/57
f 57/57/57 60/60/60 59/59/59
f 63/63/63 62/62/62 61/61/61
f 61/61/61 64/64/64 63/63/63
f 67/67/67 66/66/66 65/65/65
f 65/65/65 68/68/68 67/67/67
f 71/71/71 70/70/70 69/69/69
f 69/69/69 72/72/72 71/71/71
f 75/75/75 74/74/74 73/73/73
f 73/73/73 76/76/76 75/75/75
f 79/79/79 78/78/78 77/77/77
f 77/77/77 80/80/80 79/79/79
f 83/83/83 82/82/82 81/81/81
f 81/81/81 84/84/84 83/83/83
f 87/87/87 86/86/86 85/85/85
f 85/85/85 88/88/88 87/87/87
f 91/91/91 90/90/90 89/89/89
f 89/89/89 92/92/92 91/91/91
f 95/95/95 94/94/94 93/93/93
f 93/93/93 96/96/96 95/95/95
f 99/99/99 98/98/98 97/97/97
f 97/97/97 100/100/100 99/99/99
f 103/103/103 102/102/102 101/101/101
f 101/101/101 104/104/104 103/103/103
f 107/107/107 106/106/106 105/105/105
f 105/105/105 108/108/108 107/107/107
f 111/111/111 110/110/110 109/109/109
f 109/109/109 112/112/112 111/111/111
f 115/115/115 114/114/114 113/113/113
f 113/113/113 116/116/116 115/115/115
f 119/119/119 118/118/118 117/117/117
f 117/117/117 120/120/120 119/119/119
f 123/123/123 122/122/122 121/121/121
f 121/121/121 124/124/124 123/123/123
f 127/127/127 126/126/126 125/125/125
f 125/125/125 128/128/128 127/127/127
f 131/131/131 130/130/130 129/129/129
f 129/129/129 132/132/132 131/131/131
f 135/135/135 134/134/134 133/133/133
f 133/133/133 136/136/136 135/135/135
f 139/139/139 138/138/138 137/137/137
f 137/137/137 140/140/140 139/139/139
f 143/143/143 142/142/142 141/141/141
f 141/141/141 144/144/144 143/143/143
f 147/147/147 146/146/146 145/145/145
f 145/145/145 148/148/148 147/147/147
f 151/151/151 150/150/150 149/149/149
f 149/149/149 152/152/152 151/151/151
f 155/155/155 154/154/154 153/153/153
f 153/153/153 156/156/156 155/155/155
f 159/159/159 158/158/158 157/157/157
f 157/157/157 160/160/160 159/159/159
f 163/163/163 162/162/162 161/161/161
f 161/161/161 164/164/164 163/163/163
f 167/167/167 166/166/166 165/165/165
f 165/165/165 168/168/168 167/167/167
f 171/171/171 170/170/170 169/169/169
f 169/169/169 172/172/172 171/171/171
f 175/175/175 174/174/174 173/173/173
f 173/173/173 176/176/176 175/175/175
f 179/179/179 178/178/178 177/177/177
f 177/177/177 180/180/180 179/179/179
f 183/183/183 182/182/182 181/181/181
f 181/181/181 184/184/184 183/183/183
f 187/187/187 186/186/186 185/185/185
f 185/185/185 188/188/188 187/187/187
f 191/191/191 190/190/190 189/189/189
f 189/189/189 192/192/192 191/191/191
f 195/195/195 194/194/194 193/193/193
f 193/193/193 196/196/196 195/195/195
f 199/199/199 198/198/198 197/197/197
f 197/197/197 200/200/200 199/199/199
f 203/203/203 202/202/202 201/201/201
f 201/201/201 204/204/204 203/203/203
f 207/207/207 206/206/206 205/205/205
f 205/205/205 208/208/208 207/207/207
f 211/211/211 210/210/210 209/209/209
f 209/209/209 212/212/212 211/211/211
f 215/215/215 214/214/214 213/213/213
f 213/213/213 216/216/216 215/215/215
f 219/219/219 218/218/218 217/217/217
f 217/217/217 220/220/220 219/219/219
f 223/223/223 222/222/222 221/221/221
f 221/221/221 224/224/224 223/223/223
f 227/227/227 226/226/226 225/225/225
f 225/225/225 228/228/228 227/227/227
f 231/231/231 230/230/230 229/229/229
f 229/229/229 232/232/232 231/231/231
f 235/235/235 234/234/234 233/233/233
f 233/233/233 236/236/236 235/235/235
f 239/239/239 238/238/238 237/237/237
f 237/237/237 240/240/240 239/239/239
f 243/243/243 242/242/242 241/241/241
f 241/241/241 244/244/244 243/243/243
f 247/247/247 246/246/246 245/245/245
f 245/245/245 248/248/248 247/247/247
f 251/251/251 250/250/250 249/249/249
f 249/249/249 252/252/252 251/251/251
f 255/255/255 254/254/254 253/253/253
f 253/253/253 256/256/256 255/255/255
f 259/259/259 258/258/258 257/257/257
f 257/257/257 260/260/260 259/259/259
f 263/263/263 262/262/262 261/261/261
f 261/261/261 264/264/264 263/263/263
f 267/267/267 266/266/266 265/265/265
f 265/265/265 268/268/268 267/267/267
f 271/271/271 270/270/270 269/269/269
f 269/269/269 272/272/272 271/271/271
f 275/275/275 274/274/274 273/273/273
f 273/273/273 276/276/276 275/275/275
f 279/279/279 278/278/278 277/277/277
f 277/277/277 280/280/280 279/279/279
f 283/283/283 282/282/282 281/281/281
f 281/281/281 284/284/284 283/283/283
f 287/287/287 286/286/286 285/285/285
f 285/285/285 288/288/288 287/287/287
f 291/291/291 290/290/290 289/289/289
f 289/289/289 292/292/292 291/291/291
f 295/295/295 294/294/294 293/293/293
f 293/293/293 296/296/296 295/295/295
f 299/299/299 298/298/298 297/297/297
f 297/297/297 300/300/300 299/299/299
f 303/303/303 302/302/302 301/301/301
f 301/301/301 304/304/304 303/303/303
f 307/307/307 306/306/306 305/305/305
f 305/305/305 308/308/308 307/307/307
f 311/311/311 310/310/310 309/309/309
f 309/309/309 312/312/312 311/311/311
