g dafeng_6_rw-mesh
v -896 505 0
v -896 889 0
v -1280 889 0
v -1280 505 0
v -608 665 0
v -608 1177 0
v -896 1177 0
v -896 665 0
v -320 665 0
v -320 1177 0
v -608 1177 0
v -608 665 0
v -416 1177 0
v -416 1465 0
v -704 1465 0
v -704 1177 0
v -1280 377 0
v -1280 601 0
v -1568 601 0
v -1568 377 0
v -64 793 0
v -64 1017 0
v -320 1017 0
v -320 793 0
v -704 473 0
v -704 665 0
v -896 665 0
v -896 473 0
v -288 441 0
v -288 665 0
v -384 665 0
v -384 441 0
v -800 1337 0
v -800 1497 0
v -928 1497 0
v -928 1337 0
v -1856 57 0
v -1856 217 0
v -1984 217 0
v -1984 57 0
v -800 1177 0
v -800 1337 0
v -928 1337 0
v -928 1177 0
v -1472 249 0
v -1472 377 0
v -1632 377 0
v -1632 249 0
v -1632 249 0
v -1632 377 0
v -1792 377 0
v -1792 249 0
v -1280 601 0
v -1280 793 0
v -1376 793 0
v -1376 601 0
v -384 537 0
v -384 665 0
v -512 665 0
v -512 537 0
v -1568 377 0
v -1568 505 0
v -1664 505 0
v -1664 377 0
v -704 1177 0
v -704 1305 0
v -800 1305 0
v -800 1177 0
v -704 1369 0
v -704 1497 0
v -800 1497 0
v -800 1369 0
v -192 697 0
v -192 793 0
v -320 793 0
v -320 697 0
v -896 889 0
v -896 953 0
v -1056 953 0
v -1056 889 0
v -1152 441 0
v -1152 505 0
v -1280 505 0
v -1280 441 0
v -576 1465 0
v -576 1529 0
v -704 1529 0
v -704 1465 0
v -352 1273 0
v -352 1401 0
v -416 1401 0
v -416 1273 0
v -1056 889 0
v -1056 953 0
v -1184 953 0
v -1184 889 0
v -448 1465 0
v -448 1529 0
v -544 1529 0
v -544 1465 0
v -1408 281 0
v -1408 377 0
v -1472 377 0
v -1472 281 0
v -1760 153 0
v -1760 217 0
v -1856 217 0
v -1856 153 0
v -1376 601 0
v -1376 697 0
v -1440 697 0
v -1440 601 0
v -352 1177 0
v -352 1273 0
v -416 1273 0
v -416 1177 0
v -1568 217 0
v -1568 249 0
v -1760 249 0
v -1760 217 0
v -1760 217 0
v -1760 249 0
v -1952 249 0
v -1952 217 0
v -1984 57 0
v -1984 153 0
v -2047 153 0
v -2047 57 0
v -448 473 0
v -448 537 0
v -512 537 0
v -512 473 0
v -1024 1017 0
v -1024 1081 0
v -1088 1081 0
v -1088 1017 0
v -224 633 0
v -224 697 0
v -288 697 0
v -288 633 0
v -512 601 0
v -512 665 0
v -576 665 0
v -576 601 0
v -928 1337 0
v -928 1465 0
v -960 1465 0
v -960 1337 0
v -1984 0 0
v -1984 57 0
v -2047 57 0
v -2047 0 0
v -1664 377 0
v -1664 441 0
v -1728 441 0
v -1728 377 0
v -1792 249 0
v -1792 313 0
v -1856 313 0
v -1856 249 0
v -928 1241 0
v -928 1337 0
v -960 1337 0
v -960 1241 0
v -32 857 0
v -32 953 0
v -64 953 0
v -64 857 0
v -1280 793 0
v -1280 857 0
v -1312 857 0
v -1312 793 0
v -1184 889 0
v -1184 921 0
v -1248 921 0
v -1248 889 0
v -0 889 0
v -0 953 0
v -32 953 0
v -32 889 0
v -704 1337 0
v -704 1369 0
v -768 1369 0
v -768 1337 0
v -736 1305 0
v -736 1337 0
v -800 1337 0
v -800 1305 0
v -320 1177 0
v -320 1241 0
v -352 1241 0
v -352 1177 0
v -960 1369 0
v -960 1433 0
v -992 1433 0
v -992 1369 0
v -1440 601 0
v -1440 665 0
v -1472 665 0
v -1472 601 0
v -1856 249 0
v -1856 281 0
v -1920 281 0
v -1920 249 0
v -1792 25 0
v -1792 89 0
v -1824 89 0
v -1824 25 0
v -1920 25 0
v -1920 57 0
v -1984 57 0
v -1984 25 0
v -384 441 0
v -384 505 0
v -416 505 0
v -416 441 0
v -128 569 0
v -128 601 0
v -192 601 0
v -192 569 0
v -576 537 0
v -576 601 0
v -608 601 0
v -608 537 0
v -1568 505 0
v -1568 569 0
v -1600 569 0
v -1600 505 0
v -1024 473 0
v -1024 505 0
v -1088 505 0
v -1088 473 0
v -192 1017 0
v -192 1049 0
v -256 1049 0
v -256 1017 0
v -928 1113 0
v -928 1145 0
v -992 1145 0
v -992 1113 0
v -32 793 0
v -32 857 0
v -64 857 0
v -64 793 0
v -704 441 0
v -704 473 0
v -768 473 0
v -768 441 0
v -768 441 0
v -768 473 0
v -832 473 0
v -832 441 0
v -768 1497 0
v -768 1529 0
v -832 1529 0
v -832 1497 0
v -896 985 0
v -896 1049 0
v -928 1049 0
v -928 985 0
v -896 473 0
v -896 505 0
v -960 505 0
v -960 473 0
v -256 505 0
v -256 569 0
v -288 569 0
v -288 505 0
v -256 1017 0
v -256 1049 0
v -320 1049 0
v -320 1017 0
v -1600 505 0
v -1600 537 0
v -1632 537 0
v -1632 505 0
v -1248 409 0
v -1248 441 0
v -1280 441 0
v -1280 409 0
v -1664 441 0
v -1664 473 0
v -1696 473 0
v -1696 441 0
v -672 505 0
v -672 537 0
v -704 537 0
v -704 505 0
v -672 601 0
v -672 633 0
v -704 633 0
v -704 601 0
v -1376 697 0
v -1376 729 0
v -1408 729 0
v -1408 697 0
v -1472 601 0
v -1472 633 0
v -1504 633 0
v -1504 601 0
v -416 505 0
v -416 537 0
v -448 537 0
v -448 505 0
v -512 569 0
v -512 601 0
v -544 601 0
v -544 569 0
v -1728 89 0
v -1728 121 0
v -1760 121 0
v -1760 89 0
v -1984 153 0
v -1984 185 0
v -2016 185 0
v -2016 153 0
v -1824 25 0
v -1824 57 0
v -1856 57 0
v -1856 25 0
v -896 57 0
v -896 89 0
v -928 89 0
v -928 57 0
v -1728 153 0
v -1728 185 0
v -1760 185 0
v -1760 153 0
v -1376 345 0
v -1376 377 0
v -1408 377 0
v -1408 345 0
v -1728 377 0
v -1728 409 0
v -1760 409 0
v -1760 377 0
v -1952 0 0
v -1952 25 0
v -1984 25 0
v -1984 0 0
v -1792 313 0
v -1792 345 0
v -1824 345 0
v -1824 313 0
v -416 1497 0
v -416 1529 0
v -448 1529 0
v -448 1497 0
v -832 1497 0
v -832 1529 0
v -864 1529 0
v -864 1497 0
v -384 1433 0
v -384 1465 0
v -416 1465 0
v -416 1433 0
v -544 1465 0
v -544 1497 0
v -576 1497 0
v -576 1465 0
v -992 1113 0
v -992 1145 0
v -1024 1145 0
v -1024 1113 0
v -960 473 0
v -960 505 0
v -992 505 0
v -992 473 0
v -1088 473 0
v -1088 505 0
v -1120 505 0
v -1120 473 0
v -896 953 0
v -896 985 0
v -928 985 0
v -928 953 0
v -256 473 0
v -256 505 0
v -288 505 0
v -288 473 0
v -1056 953 0
v -1056 985 0
v -1088 985 0
v -1088 953 0
v -928 953 0
v -928 985 0
v -960 985 0
v -960 953 0
v -1312 793 0
v -1312 825 0
v -1344 825 0
v -1344 793 0
v -0 793 0
v -0 825 0
v -32 825 0
v -32 793 0
v -960 1017 0
v -960 1049 0
v -992 1049 0
v -992 1017 0
v -960 1081 0
v -960 1113 0
v -992 1113 0
v -992 1081 0
v -288 1145 0
v -288 1177 0
v -320 1177 0
v -320 1145 0
v -128 1017 0
v -128 1049 0
v -160 1049 0
v -160 1017 0
v -64 1017 0
v -64 1049 0
v -96 1049 0
v -96 1017 0
vt 0.00048828125 0.0016181469
vt 0.00048828125 0.622977376
vt 0.187988281 0.622977376
vt 0.187988281 0.0016181469
vt 0.188964844 0.0016181469
vt 0.188964844 0.830097079
vt 0.329589844 0.830097079
vt 0.329589844 0.0016181469
vt 0.330566406 0.0016181469
vt 0.330566406 0.830097079
vt 0.471191406 0.830097079
vt 0.471191406 0.0016181469
vt 0.472167969 0.0016181469
vt 0.472167969 0.467637539
vt 0.612792969 0.467637539
vt 0.612792969 0.0016181469
vt 0.613769531 0.0016181469
vt 0.613769531 0.364077687
vt 0.754394531 0.364077687
vt 0.754394531 0.0016181469
vt 0.755371094 0.0016181469
vt 0.755371094 0.364077687
vt 0.880371094 0.364077687
vt 0.880371094 0.0016181469
vt 0.881347656 0.0016181469
vt 0.881347656 0.312297761
vt 0.975097656 0.312297761
vt 0.975097656 0.0016181469
vt 0.881347656 0.315533996
vt 0.881347656 0.677993536
vt 0.928222656 0.677993536
vt 0.928222656 0.315533996
vt 0.929199219 0.315533996
vt 0.929199219 0.574433684
vt 0.991699219 0.574433684
vt 0.991699219 0.315533996
vt 0.613769531 0.367313921
vt 0.613769531 0.626213551
vt 0.676269531 0.626213551
vt 0.676269531 0.367313921
vt 0.677246094 0.367313921
vt 0.677246094 0.626213551
vt 0.739746094 0.626213551
vt 0.739746094 0.367313921
vt 0.740722656 0.367313921
vt 0.740722656 0.574433684
vt 0.818847656 0.574433684
vt 0.818847656 0.367313921
vt 0.472167969 0.470873773
vt 0.472167969 0.677993536
vt 0.550292969 0.677993536
vt 0.550292969 0.470873773
vt 0.819824219 0.367313921
vt 0.819824219 0.677993536
vt 0.866699219 0.677993536
vt 0.866699219 0.367313921
vt 0.740722656 0.577669859
vt 0.740722656 0.784789622
vt 0.803222656 0.784789622
vt 0.803222656 0.577669859
vt 0.551269531 0.470873773
vt 0.551269531 0.677993536
vt 0.598144531 0.677993536
vt 0.598144531 0.470873773
vt 0.929199219 0.577669859
vt 0.929199219 0.784789622
vt 0.976074219 0.784789622
vt 0.976074219 0.577669859
vt 0.00048828125 0.626213551
vt 0.00048828125 0.833333313
vt 0.0473632812 0.833333313
vt 0.0473632812 0.626213551
vt 0.0483398438 0.626213551
vt 0.0483398438 0.781553388
vt 0.110839844 0.781553388
vt 0.110839844 0.626213551
vt 0.613769531 0.629449844
vt 0.613769531 0.733009696
vt 0.691894531 0.733009696
vt 0.691894531 0.629449844
vt 0.111816406 0.626213551
vt 0.111816406 0.729773462
vt 0.174316406 0.729773462
vt 0.174316406 0.626213551
vt 0.472167969 0.68122977
vt 0.472167969 0.784789622
vt 0.534667969 0.784789622
vt 0.534667969 0.68122977
vt 0.692871094 0.629449844
vt 0.692871094 0.836569548
vt 0.724121094 0.836569548
vt 0.724121094 0.629449844
vt 0.535644531 0.68122977
vt 0.535644531 0.784789622
vt 0.598144531 0.784789622
vt 0.598144531 0.68122977
vt 0.819824219 0.68122977
vt 0.819824219 0.784789622
vt 0.866699219 0.784789622
vt 0.866699219 0.68122977
vt 0.881347656 0.68122977
vt 0.881347656 0.836569548
vt 0.912597656 0.836569548
vt 0.912597656 0.68122977
vt 0.111816406 0.733009696
vt 0.111816406 0.836569548
vt 0.158691406 0.836569548
vt 0.158691406 0.733009696
vt 0.613769531 0.73624599
vt 0.613769531 0.891585767
vt 0.645019531 0.891585767
vt 0.645019531 0.73624599
vt 0.645996094 0.73624599
vt 0.645996094 0.891585767
vt 0.677246094 0.891585767
vt 0.677246094 0.73624599
vt 0.472167969 0.788025856
vt 0.472167969 0.839805841
vt 0.565917969 0.839805841
vt 0.565917969 0.788025856
vt 0.740722656 0.788025856
vt 0.740722656 0.839805841
vt 0.834472656 0.839805841
vt 0.834472656 0.788025856
vt 0.0483398438 0.784789622
vt 0.0483398438 0.940129459
vt 0.0795898438 0.940129459
vt 0.0795898438 0.784789622
vt 0.566894531 0.788025856
vt 0.566894531 0.891585767
vt 0.598144531 0.891585767
vt 0.598144531 0.788025856
vt 0.835449219 0.788025856
vt 0.835449219 0.891585767
vt 0.866699219 0.891585767
vt 0.866699219 0.788025856
vt 0.929199219 0.788025856
vt 0.929199219 0.891585767
vt 0.960449219 0.891585767
vt 0.960449219 0.788025856
vt 0.961425781 0.788025856
vt 0.961425781 0.891585767
vt 0.992675781 0.891585767
vt 0.992675781 0.788025856
vt 0.159667969 0.733009696
vt 0.159667969 0.940129459
vt 0.175292969 0.940129459
vt 0.175292969 0.733009696
vt 0.188964844 0.833333313
vt 0.188964844 0.927184463
vt 0.220214844 0.927184463
vt 0.220214844 0.833333313
vt 0.221191406 0.833333313
vt 0.221191406 0.936893225
vt 0.252441406 0.936893225
vt 0.252441406 0.833333313
vt 0.253417969 0.833333313
vt 0.253417969 0.936893225
vt 0.284667969 0.936893225
vt 0.284667969 0.833333313
vt 0.0805664062 0.784789622
vt 0.0805664062 0.940129459
vt 0.0961914062 0.940129459
vt 0.0961914062 0.784789622
vt 0.285644531 0.833333313
vt 0.285644531 0.988673151
vt 0.301269531 0.988673151
vt 0.301269531 0.833333313
vt 0.302246094 0.833333313
vt 0.302246094 0.936893225
vt 0.317871094 0.936893225
vt 0.317871094 0.833333313
vt 0.318847656 0.833333313
vt 0.318847656 0.885113239
vt 0.350097656 0.885113239
vt 0.350097656 0.833333313
vt 0.351074219 0.833333313
vt 0.351074219 0.936893225
vt 0.366699219 0.936893225
vt 0.366699219 0.833333313
vt 0.367675781 0.833333313
vt 0.367675781 0.885113239
vt 0.398925781 0.885113239
vt 0.398925781 0.833333313
vt 0.399902344 0.833333313
vt 0.399902344 0.885113239
vt 0.431152344 0.885113239
vt 0.431152344 0.833333313
vt 0.432128906 0.833333313
vt 0.432128906 0.936893225
vt 0.447753906 0.936893225
vt 0.447753906 0.833333313
vt 0.448730469 0.833333313
vt 0.448730469 0.936893225
vt 0.464355469 0.936893225
vt 0.464355469 0.833333313
vt 0.00048828125 0.836569548
vt 0.00048828125 0.940129459
vt 0.0161132812 0.940129459
vt 0.0161132812 0.836569548
vt 0.111816406 0.839805841
vt 0.111816406 0.891585767
vt 0.143066406 0.891585767
vt 0.143066406 0.839805841
vt 0.0170898438 0.836569548
vt 0.0170898438 0.940129459
vt 0.0327148438 0.940129459
vt 0.0327148438 0.836569548
vt 0.692871094 0.839805841
vt 0.692871094 0.891585767
vt 0.724121094 0.891585767
vt 0.724121094 0.839805841
vt 0.881347656 0.839805841
vt 0.881347656 0.943365693
vt 0.896972656 0.943365693
vt 0.896972656 0.839805841
vt 0.472167969 0.843042076
vt 0.472167969 0.894822001
vt 0.503417969 0.894822001
vt 0.503417969 0.843042076
vt 0.897949219 0.839805841
vt 0.897949219 0.943365693
vt 0.913574219 0.943365693
vt 0.913574219 0.839805841
vt 0.504394531 0.843042076
vt 0.504394531 0.946601927
vt 0.520019531 0.946601927
vt 0.520019531 0.843042076
vt 0.520996094 0.843042076
vt 0.520996094 0.894822001
vt 0.552246094 0.894822001
vt 0.552246094 0.843042076
vt 0.740722656 0.843042076
vt 0.740722656 0.894822001
vt 0.771972656 0.894822001
vt 0.771972656 0.843042076
vt 0.772949219 0.843042076
vt 0.772949219 0.894822001
vt 0.804199219 0.894822001
vt 0.804199219 0.843042076
vt 0.805175781 0.843042076
vt 0.805175781 0.946601927
vt 0.820800781 0.946601927
vt 0.820800781 0.843042076
vt 0.318847656 0.888349533
vt 0.318847656 0.940129459
vt 0.350097656 0.940129459
vt 0.350097656 0.888349533
vt 0.367675781 0.888349533
vt 0.367675781 0.940129459
vt 0.398925781 0.940129459
vt 0.398925781 0.888349533
vt 0.399902344 0.888349533
vt 0.399902344 0.940129459
vt 0.431152344 0.940129459
vt 0.431152344 0.888349533
vt 0.111816406 0.894822001
vt 0.111816406 0.998381853
vt 0.127441406 0.998381853
vt 0.127441406 0.894822001
vt 0.566894531 0.894822001
vt 0.566894531 0.946601927
vt 0.598144531 0.946601927
vt 0.598144531 0.894822001
vt 0.128417969 0.894822001
vt 0.128417969 0.998381853
vt 0.144042969 0.998381853
vt 0.144042969 0.894822001
vt 0.613769531 0.894822001
vt 0.613769531 0.946601927
vt 0.645019531 0.946601927
vt 0.645019531 0.894822001
vt 0.645996094 0.894822001
vt 0.645996094 0.946601927
vt 0.661621094 0.946601927
vt 0.661621094 0.894822001
vt 0.662597656 0.894822001
vt 0.662597656 0.946601927
vt 0.678222656 0.946601927
vt 0.678222656 0.894822001
vt 0.692871094 0.894822001
vt 0.692871094 0.946601927
vt 0.708496094 0.946601927
vt 0.708496094 0.894822001
vt 0.709472656 0.894822001
vt 0.709472656 0.946601927
vt 0.725097656 0.946601927
vt 0.725097656 0.894822001
vt 0.835449219 0.894822001
vt 0.835449219 0.946601927
vt 0.851074219 0.946601927
vt 0.851074219 0.894822001
vt 0.852050781 0.894822001
vt 0.852050781 0.946601927
vt 0.867675781 0.946601927
vt 0.867675781 0.894822001
vt 0.929199219 0.894822001
vt 0.929199219 0.946601927
vt 0.944824219 0.946601927
vt 0.944824219 0.894822001
vt 0.945800781 0.894822001
vt 0.945800781 0.946601927
vt 0.961425781 0.946601927
vt 0.961425781 0.894822001
vt 0.962402344 0.894822001
vt 0.962402344 0.946601927
vt 0.978027344 0.946601927
vt 0.978027344 0.894822001
vt 0.979003906 0.894822001
vt 0.979003906 0.946601927
vt 0.994628906 0.946601927
vt 0.994628906 0.894822001
vt 0.472167969 0.898058236
vt 0.472167969 0.949838161
vt 0.487792969 0.949838161
vt 0.487792969 0.898058236
vt 0.520996094 0.898058236
vt 0.520996094 0.949838161
vt 0.536621094 0.949838161
vt 0.536621094 0.898058236
vt 0.537597656 0.898058236
vt 0.537597656 0.949838161
vt 0.553222656 0.949838161
vt 0.553222656 0.898058236
vt 0.740722656 0.898058236
vt 0.740722656 0.949838161
vt 0.756347656 0.949838161
vt 0.756347656 0.898058236
vt 0.757324219 0.898058236
vt 0.757324219 0.949838161
vt 0.772949219 0.949838161
vt 0.772949219 0.898058236
vt 0.773925781 0.898058236
vt 0.773925781 0.949838161
vt 0.789550781 0.949838161
vt 0.789550781 0.898058236
vt 0.188964844 0.930420697
vt 0.188964844 0.97249192
vt 0.204589844 0.97249192
vt 0.204589844 0.930420697
vt 0.221191406 0.940129459
vt 0.221191406 0.991909385
vt 0.236816406 0.991909385
vt 0.236816406 0.940129459
vt 0.237792969 0.940129459
vt 0.237792969 0.991909385
vt 0.253417969 0.991909385
vt 0.253417969 0.940129459
vt 0.254394531 0.940129459
vt 0.254394531 0.991909385
vt 0.270019531 0.991909385
vt 0.270019531 0.940129459
vt 0.302246094 0.940129459
vt 0.302246094 0.991909385
vt 0.317871094 0.991909385
vt 0.317871094 0.940129459
vt 0.351074219 0.940129459
vt 0.351074219 0.991909385
vt 0.366699219 0.991909385
vt 0.366699219 0.940129459
vt 0.432128906 0.940129459
vt 0.432128906 0.991909385
vt 0.447753906 0.991909385
vt 0.447753906 0.940129459
vt 0.448730469 0.940129459
vt 0.448730469 0.991909385
vt 0.464355469 0.991909385
vt 0.464355469 0.940129459
vt 0.00048828125 0.943365693
vt 0.00048828125 0.995145619
vt 0.0161132812 0.995145619
vt 0.0161132812 0.943365693
vt 0.0170898438 0.943365693
vt 0.0170898438 0.995145619
vt 0.0327148438 0.995145619
vt 0.0327148438 0.943365693
vt 0.0483398438 0.943365693
vt 0.0483398438 0.995145619
vt 0.0639648438 0.995145619
vt 0.0639648438 0.943365693
vt 0.0649414062 0.943365693
vt 0.0649414062 0.995145619
vt 0.0805664062 0.995145619
vt 0.0805664062 0.943365693
vt 0.0815429688 0.943365693
vt 0.0815429688 0.995145619
vt 0.0971679688 0.995145619
vt 0.0971679688 0.943365693
vt 0.159667969 0.943365693
vt 0.159667969 0.995145619
vt 0.175292969 0.995145619
vt 0.175292969 0.943365693
vt 0.318847656 0.943365693
vt 0.318847656 0.995145619
vt 0.334472656 0.995145619
vt 0.334472656 0.943365693
vt 0.367675781 0.943365693
vt 0.367675781 0.995145619
vt 0.383300781 0.995145619
vt 0.383300781 0.943365693
vt 0.384277344 0.943365693
vt 0.384277344 0.995145619
vt 0.399902344 0.995145619
vt 0.399902344 0.943365693
vt 0.400878906 0.943365693
vt 0.400878906 0.995145619
vt 0.416503906 0.995145619
vt 0.416503906 0.943365693
vt 0.881347656 0.946601927
vt 0.881347656 0.998381853
vt 0.896972656 0.998381853
vt 0.896972656 0.946601927
vt 0.897949219 0.946601927
vt 0.897949219 0.998381853
vt 0.913574219 0.998381853
vt 0.913574219 0.946601927
g dafeng_6_rw-mesh_0
f 3/3/3 2/2/2 1/1/1
f 1/1/1 4/4/4 3/3/3
f 7/7/7 6/6/6 5/5/5
f 5/5/5 8/8/8 7/7/7
f 11/11/11 10/10/10 9/9/9
f 9/9/9 12/12/12 11/11/11
f 15/15/15 14/14/14 13/13/13
f 13/13/13 16/16/16 15/15/15
f 19/19/19 18/18/18 17/17/17
f 17/17/17 20/20/20 19/19/19
f 23/23/23 22/22/22 21/21/21
f 21/21/21 24/24/24 23/23/23
f 27/27/27 26/26/26 25/25/25
f 25/25/25 28/28/28 27/27/27
f 31/31/31 30/30/30 29/29/29
f 29/29/29 32/32/32 31/31/31
f 35/35/35 34/34/34 33/33/33
f 33/33/33 36/36/36 35/35/35
f 39/39/39 38/38/38 37/37/37
f 37/37/37 40/40/40 39/39/39
f 43/43/43 42/42/42 41/41/41
f 41/41/41 44/44/44 43/43/43
f 47/47/47 46/46/46 45/45/45
f 45/45/45 48/48/48 47/47/47
f 51/51/51 50/50/50 49/49/49
f 49/49/49 52/52/52 51/51/51
f 55/55/55 54/54/54 53/53/53
f 53/53/53 56/56/56 55/55/55
f 59/59/59 58/58/58 57/57/57
f 57/57/57 60/60/60 59/59/59
f 63/63/63 62/62/62 61/61/61
f 61/61/61 64/64/64 63/63/63
f 67/67/67 66/66/66 65/65/65
f 65/65/65 68/68/68 67/67/67
f 71/71/71 70/70/70 69/69/69
f 69/69/69 72/72/72 71/71/71
f 75/75/75 74/74/74 73/73/73
f 73/73/73 76/76/76 75/75/75
f 79/79/79 78/78/78 77/77/77
f 77/77/77 80/80/80 79/79/79
f 83/83/83 82/82/82 81/81/81
f 81/81/81 84/84/84 83/83/83
f 87/87/87 86/86/86 85/85/85
f 85/85/85 88/88/88 87/87/87
f 91/91/91 90/90/90 89/89/89
f 89/89/89 92/92/92 91/91/91
f 95/95/95 94/94/94 93/93/93
f 93/93/93 96/96/96 95/95/95
f 99/99/99 98/98/98 97/97/97
f 97/97/97 100/100/100 99/99/99
f 103/103/103 102/102/102 101/101/101
f 101/101/101 104/104/104 103/103/103
f 107/107/107 106/106/106 105/105/105
f 105/105/105 108/108/108 107/107/107
f 111/111/111 110/110/110 109/109/109
f 109/109/109 112/112/112 111/111/111
f 115/115/115 114/114/114 113/113/113
f 113/113/113 116/116/116 115/115/115
f 119/119/119 118/118/118 117/117/117
f 117/117/117 120/120/120 119/119/119
f 123/123/123 122/122/122 121/121/121
f 121/121/121 124/124/124 123/123/123
f 127/127/127 126/126/126 125/125/125
f 125/125/125 128/128/128 127/127/127
f 131/131/131 130/130/130 129/129/129
f 129/129/129 132/132/132 131/131/131
f 135/135/135 134/134/134 133/133/133
f 133/133/133 136/136/136 135/135/135
f 139/139/139 138/138/138 137/137/137
f 137/137/137 140/140/140 139/139/139
f 143/143/143 142/142/142 141/141/141
f 141/141/141 144/144/144 143/143/143
f 147/147/147 146/146/146 145/145/145
f 145/145/145 148/148/148 147/147/147
f 151/151/151 150/150/150 149/149/149
f 149/149/149 152/152/152 151/151/151
f 155/155/155 154/154/154 153/153/153
f 153/153/153 156/156/156 155/155/155
f 159/159/159 158/158/158 157/157/157
f 157/157/157 160/160/160 159/159/159
f 163/163/163 162/162/162 161/161/161
f 161/161/161 164/164/164 163/163/163
f 167/167/167 166/166/166 165/165/165
f 165/165/165 168/168/168 167/167/167
f 171/171/171 170/170/170 169/169/169
f 169/169/169 172/172/172 171/171/171
f 175/175/175 174/174/174 173/173/173
f 173/173/173 176/176/176 175/175/175
f 179/179/179 178/178/178 177/177/177
f 177/177/177 180/180/180 179/179/179
f 183/183/183 182/182/182 181/181/181
f 181/181/181 184/184/184 183/183/183
f 187/187/187 186/186/186 185/185/185
f 185/185/185 188/188/188 187/187/187
f 191/191/191 190/190/190 189/189/189
f 189/189/189 192/192/192 191/191/191
f 195/195/195 194/194/194 193/193/193
f 193/193/193 196/196/196 195/195/195
f 199/199/199 198/198/198 197/197/197
f 197/197/197 200/200/200 199/199/199
f 203/203/203 202/202/202 201/201/201
f 201/201/201 204/204/204 203/203/203
f 207/207/207 206/206/206 205/205/205
f 205/205/205 208/208/208 207/207/207
f 211/211/211 210/210/210 209/209/209
f 209/209/209 212/212/212 211/211/211
f 215/215/215 214/214/214 213/213/213
f 213/213/213 216/216/216 215/215/215
f 219/219/219 218/218/218 217/217/217
f 217/217/217 220/220/220 219/219/219
f 223/223/223 222/222/222 221/221/221
f 221/221/221 224/224/224 223/223/223
f 227/227/227 226/226/226 225/225/225
f 225/225/225 228/228/228 227/227/227
f 231/231/231 230/230/230 229/229/229
f 229/229/229 232/232/232 231/231/231
f 235/235/235 234/234/234 233/233/233
f 233/233/233 236/236/236 235/235/235
f 239/239/239 238/238/238 237/237/237
f 237/237/237 240/240/240 239/239/239
f 243/243/243 242/242/242 241/241/241
f 241/241/241 244/244/244 243/243/243
f 247/247/247 246/246/246 245/245/245
f 245/245/245 248/248/248 247/247/247
f 251/251/251 250/250/250 249/249/249
f 249/249/249 252/252/252 251/251/251
f 255/255/255 254/254/254 253/253/253
f 253/253/253 256/256/256 255/255/255
f 259/259/259 258/258/258 257/257/257
f 257/257/257 260/260/260 259/259/259
f 263/263/263 262/262/262 261/261/261
f 261/261/261 264/264/264 263/263/263
f 267/267/267 266/266/266 265/265/265
f 265/265/265 268/268/268 267/267/267
f 271/271/271 270/270/270 269/269/269
f 269/269/269 272/272/272 271/271/271
f 275/275/275 274/274/274 273/273/273
f 273/273/273 276/276/276 275/275/275
f 279/279/279 278/278/278 277/277/277
f 277/277/277 280/280/280 279/279/279
f 283/283/283 282/282/282 281/281/281
f 281/281/281 284/284/284 283/283/283
f 287/287/287 286/286/286 285/285/285
f 285/285/285 288/288/288 287/287/287
f 291/291/291 290/290/290 289/289/289
f 289/289/289 292/292/292 291/291/291
f 295/295/295 294/294/294 293/293/293
f 293/293/293 296/296/296 295/295/295
f 299/299/299 298/298/298 297/297/297
f 297/297/297 300/300/300 299/299/299
f 303/303/303 302/302/302 301/301/301
f 301/301/301 304/304/304 303/303/303
f 307/307/307 306/306/306 305/305/305
f 305/305/305 308/308/308 307/307/307
f 311/311/311 310/310/310 309/309/309
f 309/309/309 312/312/312 311/311/311
f 315/315/315 314/314/314 313/313/313
f 313/313/313 316/316/316 315/315/315
f 319/319/319 318/318/318 317/317/317
f 317/317/317 320/320/320 319/319/319
f 323/323/323 322/322/322 321/321/321
f 321/321/321 324/324/324 323/323/323
f 327/327/327 326/326/326 325/325/325
f 325/325/325 328/328/328 327/327/327
f 331/331/331 330/330/330 329/329/329
f 329/329/329 332/332/332 331/331/331
f 335/335/335 334/334/334 333/333/333
f 333/333/333 336/336/336 335/335/335
f 339/339/339 338/338/338 337/337/337
f 337/337/337 340/340/340 339/339/339
f 343/343/343 342/342/342 341/341/341
f 341/341/341 344/344/344 343/343/343
f 347/347/347 346/346/346 345/345/345
f 345/345/345 348/348/348 347/347/347
f 351/351/351 350/350/350 349/349/349
f 349/349/349 352/352/352 351/351/351
f 355/355/355 354/354/354 353/353/353
f 353/353/353 356/356/356 355/355/355
f 359/359/359 358/358/358 357/357/357
f 357/357/357 360/360/360 359/359/359
f 363/363/363 362/362/362 361/361/361
f 361/361/361 364/364/364 363/363/363
f 367/367/367 366/366/366 365/365/365
f 365/365/365 368/368/368 367/367/367
f 371/371/371 370/370/370 369/369/369
f 369/369/369 372/372/372 371/371/371
f 375/375/375 374/374/374 373/373/373
f 373/373/373 376/376/376 375/375/375
f 379/379/379 378/378/378 377/377/377
f 377/377/377 380/380/380 379/379/379
f 383/383/383 382/382/382 381/381/381
f 381/381/381 384/384/384 383/383/383
f 387/387/387 386/386/386 385/385/385
f 385/385/385 388/388/388 387/387/387
f 391/391/391 390/390/390 389/389/389
f 389/389/389 392/392/392 391/391/391
f 395/395/395 394/394/394 393/393/393
f 393/393/393 396/396/396 395/395/395
f 399/399/399 398/398/398 397/397/397
f 397/397/397 400/400/400 399/399/399
f 403/403/403 402/402/402 401/401/401
f 401/401/401 404/404/404 403/403/403
f 407/407/407 406/406/406 405/405/405
f 405/405/405 408/408/408 407/407/407
f 411/411/411 410/410/410 409/409/409
f 409/409/409 412/412/412 411/411/411
f 415/415/415 414/414/414 413/413/413
f 413/413/413 416/416/416 415/415/415
