g dimiteli_2_rw-mesh
v -832 635 0
v -832 1147 0
v -1184 1147 0
v -1184 635 0
v -832 155 0
v -832 635 0
v -1184 635 0
v -1184 155 0
v -1184 507 0
v -1184 859 0
v -1408 859 0
v -1408 507 0
v -128 91 0
v -128 187 0
v -480 187 0
v -480 91 0
v -1408 91 0
v -1408 187 0
v -1728 187 0
v -1728 91 0
v -480 91 0
v -480 187 0
v -800 187 0
v -800 91 0
v -1728 91 0
v -1728 187 0
v -2016 187 0
v -2016 91 0
v -1184 187 0
v -1184 347 0
v -1312 347 0
v -1312 187 0
v -1184 347 0
v -1184 507 0
v -1312 507 0
v -1312 347 0
v -704 187 0
v -704 315 0
v -832 315 0
v -832 187 0
v -1056 1147 0
v -1056 1275 0
v -1152 1275 0
v -1152 1147 0
v -1664 0 0
v -1664 91 0
v -1792 91 0
v -1792 0 0
v -896 1147 0
v -896 1275 0
v -992 1275 0
v -992 1147 0
v -1216 859 0
v -1216 923 0
v -1344 923 0
v -1344 859 0
v -1312 219 0
v -1312 283 0
v -1440 283 0
v -1440 219 0
v -0 91 0
v -0 155 0
v -128 155 0
v -128 91 0
v -1312 187 0
v -1312 219 0
v -1536 219 0
v -1536 187 0
v -768 315 0
v -768 411 0
v -832 411 0
v -832 315 0
v -800 91 0
v -800 155 0
v -896 155 0
v -896 91 0
v -1408 667 0
v -1408 763 0
v -1472 763 0
v -1472 667 0
v -1536 187 0
v -1536 219 0
v -1728 219 0
v -1728 187 0
v -1056 91 0
v -1056 155 0
v -1152 155 0
v -1152 91 0
v -1344 123 0
v -1344 187 0
v -1408 187 0
v -1408 123 0
v -1408 603 0
v -1408 667 0
v -1472 667 0
v -1472 603 0
v -1152 91 0
v -1152 155 0
v -1216 155 0
v -1216 91 0
v -544 187 0
v -544 219 0
v -640 219 0
v -640 187 0
v -864 1275 0
v -864 1371 0
v -896 1371 0
v -896 1275 0
v -1408 539 0
v -1408 603 0
v -1440 603 0
v -1440 539 0
v -800 603 0
v -800 667 0
v -832 667 0
v -832 603 0
v -1408 763 0
v -1408 827 0
v -1440 827 0
v -1440 763 0
v -992 1147 0
v -992 1211 0
v -1024 1211 0
v -1024 1147 0
v -1184 987 0
v -1184 1051 0
v -1216 1051 0
v -1216 987 0
v -2016 91 0
v -2016 155 0
v -2047 155 0
v -2047 91 0
v -1792 27 0
v -1792 91 0
v -1824 91 0
v -1824 27 0
v -1440 219 0
v -1440 251 0
v -1504 251 0
v -1504 219 0
v -800 411 0
v -800 475 0
v -832 475 0
v -832 411 0
v -672 219 0
v -672 283 0
v -704 283 0
v -704 219 0
v -1312 315 0
v -1312 379 0
v -1344 379 0
v -1344 315 0
v -864 1211 0
v -864 1275 0
v -896 1275 0
v -896 1211 0
v -640 187 0
v -640 219 0
v -704 219 0
v -704 187 0
v -1152 1179 0
v -1152 1243 0
v -1184 1243 0
v -1184 1179 0
v -896 1275 0
v -896 1339 0
v -928 1339 0
v -928 1275 0
v -832 1307 0
v -832 1371 0
v -864 1371 0
v -864 1307 0
v -1184 155 0
v -1184 187 0
v -1248 187 0
v -1248 155 0
v -896 123 0
v -896 155 0
v -928 155 0
v -928 123 0
v -640 219 0
v -640 251 0
v -672 251 0
v -672 219 0
v -1024 123 0
v -1024 155 0
v -1056 155 0
v -1056 123 0
v -1216 123 0
v -1216 155 0
v -1248 155 0
v -1248 123 0
v -704 27 0
v -704 59 0
v -736 59 0
v -736 27 0
v -1632 59 0
v -1632 91 0
v -1664 91 0
v -1664 59 0
v -1312 123 0
v -1312 155 0
v -1344 155 0
v -1344 123 0
v -1344 283 0
v -1344 315 0
v -1376 315 0
v -1376 283 0
v -1152 1147 0
v -1152 1179 0
v -1184 1179 0
v -1184 1147 0
v -1312 283 0
v -1312 315 0
v -1344 315 0
v -1344 283 0
v -1248 155 0
v -1248 187 0
v -1280 187 0
v -1280 155 0
v -928 1275 0
v -928 1307 0
v -960 1307 0
v -960 1275 0
v -736 315 0
v -736 347 0
v -768 347 0
v -768 315 0
v -1344 891 0
v -1344 923 0
v -1376 923 0
v -1376 891 0
v -1024 1147 0
v -1024 1179 0
v -1056 1179 0
v -1056 1147 0
vt 0.0009765625 0.00114154816
vt 0.0009765625 0.585616469
vt 0.344726562 0.585616469
vt 0.344726562 0.00114154816
vt 0.346679688 0.00114154816
vt 0.346679688 0.54908675
vt 0.690429688 0.54908675
vt 0.690429688 0.00114154816
vt 0.692382812 0.00114154816
vt 0.692382812 0.402968049
vt 0.911132812 0.402968049
vt 0.911132812 0.00114154816
vt 0.346679688 0.551369905
vt 0.346679688 0.660958886
vt 0.690429688 0.660958886
vt 0.690429688 0.551369905
vt 0.0009765625 0.587899566
vt 0.0009765625 0.697488546
vt 0.313476562 0.697488546
vt 0.313476562 0.587899566
vt 0.346679688 0.663241982
vt 0.346679688 0.772831082
vt 0.659179688 0.772831082
vt 0.659179688 0.663241982
vt 0.692382812 0.405251145
vt 0.692382812 0.514840186
vt 0.973632812 0.514840186
vt 0.973632812 0.405251145
vt 0.692382812 0.517123282
vt 0.692382812 0.699771702
vt 0.817382812 0.699771702
vt 0.817382812 0.517123282
vt 0.819335938 0.517123282
vt 0.819335938 0.699771702
vt 0.944335938 0.699771702
vt 0.944335938 0.517123282
vt 0.0009765625 0.699771702
vt 0.0009765625 0.845890403
vt 0.125976562 0.845890403
vt 0.125976562 0.699771702
vt 0.127929688 0.699771702
vt 0.127929688 0.845890403
vt 0.221679688 0.845890403
vt 0.221679688 0.699771702
vt 0.692382812 0.702054799
vt 0.692382812 0.807077646
vt 0.817382812 0.807077646
vt 0.817382812 0.702054799
vt 0.223632812 0.699771702
vt 0.223632812 0.845890403
vt 0.317382812 0.845890403
vt 0.317382812 0.699771702
vt 0.819335938 0.702054799
vt 0.819335938 0.775114179
vt 0.944335938 0.775114179
vt 0.944335938 0.702054799
vt 0.346679688 0.775114179
vt 0.346679688 0.848173499
vt 0.471679688 0.848173499
vt 0.471679688 0.775114179
vt 0.473632812 0.775114179
vt 0.473632812 0.848173499
vt 0.598632812 0.848173499
vt 0.598632812 0.775114179
vt 0.692382812 0.809360743
vt 0.692382812 0.845890403
vt 0.911132812 0.845890403
vt 0.911132812 0.809360743
vt 0.600585938 0.775114179
vt 0.600585938 0.884703219
vt 0.663085938 0.884703219
vt 0.663085938 0.775114179
vt 0.0009765625 0.848173499
vt 0.0009765625 0.921232879
vt 0.0947265625 0.921232879
vt 0.0947265625 0.848173499
vt 0.913085938 0.777397275
vt 0.913085938 0.886986315
vt 0.975585938 0.886986315
vt 0.975585938 0.777397275
vt 0.0966796875 0.848173499
vt 0.0966796875 0.884703219
vt 0.284179688 0.884703219
vt 0.284179688 0.848173499
vt 0.692382812 0.848173499
vt 0.692382812 0.921232879
vt 0.786132812 0.921232879
vt 0.786132812 0.848173499
vt 0.788085938 0.848173499
vt 0.788085938 0.921232879
vt 0.850585938 0.921232879
vt 0.850585938 0.848173499
vt 0.346679688 0.850456595
vt 0.346679688 0.923515975
vt 0.409179688 0.923515975
vt 0.409179688 0.850456595
vt 0.411132812 0.850456595
vt 0.411132812 0.923515975
vt 0.473632812 0.923515975
vt 0.473632812 0.850456595
vt 0.475585938 0.850456595
vt 0.475585938 0.886986315
vt 0.569335938 0.886986315
vt 0.569335938 0.850456595
vt 0.286132812 0.848173499
vt 0.286132812 0.957762539
vt 0.317382812 0.957762539
vt 0.317382812 0.848173499
vt 0.852539062 0.848173499
vt 0.852539062 0.921232879
vt 0.883789062 0.921232879
vt 0.883789062 0.848173499
vt 0.0966796875 0.886986315
vt 0.0966796875 0.960045636
vt 0.127929688 0.960045636
vt 0.127929688 0.886986315
vt 0.129882812 0.886986315
vt 0.129882812 0.960045636
vt 0.161132812 0.960045636
vt 0.161132812 0.886986315
vt 0.163085938 0.886986315
vt 0.163085938 0.960045636
vt 0.194335938 0.960045636
vt 0.194335938 0.886986315
vt 0.196289062 0.886986315
vt 0.196289062 0.960045636
vt 0.227539062 0.960045636
vt 0.227539062 0.886986315
vt 0.229492188 0.886986315
vt 0.229492188 0.960045636
vt 0.260742188 0.960045636
vt 0.260742188 0.886986315
vt 0.600585938 0.886986315
vt 0.600585938 0.960045636
vt 0.631835938 0.960045636
vt 0.631835938 0.886986315
vt 0.475585938 0.889269412
vt 0.475585938 0.925799072
vt 0.538085938 0.925799072
vt 0.538085938 0.889269412
vt 0.633789062 0.886986315
vt 0.633789062 0.960045636
vt 0.665039062 0.960045636
vt 0.665039062 0.886986315
vt 0.540039062 0.889269412
vt 0.540039062 0.962328792
vt 0.571289062 0.962328792
vt 0.571289062 0.889269412
vt 0.913085938 0.889269412
vt 0.913085938 0.962328792
vt 0.944335938 0.962328792
vt 0.944335938 0.889269412
vt 0.946289062 0.889269412
vt 0.946289062 0.962328792
vt 0.977539062 0.962328792
vt 0.977539062 0.889269412
vt 0.0009765625 0.923515975
vt 0.0009765625 0.960045636
vt 0.0634765625 0.960045636
vt 0.0634765625 0.923515975
vt 0.692382812 0.923515975
vt 0.692382812 0.996575356
vt 0.723632812 0.996575356
vt 0.723632812 0.923515975
vt 0.725585938 0.923515975
vt 0.725585938 0.996575356
vt 0.756835938 0.996575356
vt 0.756835938 0.923515975
vt 0.758789062 0.923515975
vt 0.758789062 0.996575356
vt 0.790039062 0.996575356
vt 0.790039062 0.923515975
vt 0.791992188 0.923515975
vt 0.791992188 0.960045636
vt 0.854492188 0.960045636
vt 0.854492188 0.923515975
vt 0.856445312 0.923515975
vt 0.856445312 0.960045636
vt 0.887695312 0.960045636
vt 0.887695312 0.923515975
vt 0.346679688 0.925799072
vt 0.346679688 0.962328792
vt 0.377929688 0.962328792
vt 0.377929688 0.925799072
vt 0.379882812 0.925799072
vt 0.379882812 0.962328792
vt 0.411132812 0.962328792
vt 0.411132812 0.925799072
vt 0.413085938 0.925799072
vt 0.413085938 0.962328792
vt 0.444335938 0.962328792
vt 0.444335938 0.925799072
vt 0.475585938 0.928082168
vt 0.475585938 0.964611888
vt 0.506835938 0.964611888
vt 0.506835938 0.928082168
vt 0.286132812 0.960045636
vt 0.286132812 0.996575356
vt 0.317382812 0.996575356
vt 0.317382812 0.960045636
vt 0.0009765625 0.962328792
vt 0.0009765625 0.998858452
vt 0.0322265625 0.998858452
vt 0.0322265625 0.962328792
vt 0.0341796875 0.962328792
vt 0.0341796875 0.998858452
vt 0.0654296875 0.998858452
vt 0.0654296875 0.962328792
vt 0.0966796875 0.962328792
vt 0.0966796875 0.998858452
vt 0.127929688 0.998858452
vt 0.127929688 0.962328792
vt 0.129882812 0.962328792
vt 0.129882812 0.998858452
vt 0.161132812 0.998858452
vt 0.161132812 0.962328792
vt 0.163085938 0.962328792
vt 0.163085938 0.998858452
vt 0.194335938 0.998858452
vt 0.194335938 0.962328792
vt 0.196289062 0.962328792
vt 0.196289062 0.998858452
vt 0.227539062 0.998858452
vt 0.227539062 0.962328792
vt 0.229492188 0.962328792
vt 0.229492188 0.998858452
vt 0.260742188 0.998858452
vt 0.260742188 0.962328792
vt 0.600585938 0.962328792
vt 0.600585938 0.998858452
vt 0.631835938 0.998858452
vt 0.631835938 0.962328792
vt 0.633789062 0.962328792
vt 0.633789062 0.998858452
vt 0.665039062 0.998858452
vt 0.665039062 0.962328792
g dimiteli_2_rw-mesh_0
f 3/3/3 2/2/2 1/1/1
f 1/1/1 4/4/4 3/3/3
f 7/7/7 6/6/6 5/5/5
f 5/5/5 8/8/8 7/7/7
f 11/11/11 10/10/10 9/9/9
f 9/9/9 12/12/12 11/11/11
f 15/15/15 14/14/14 13/13/13
f 13/13/13 16/16/16 15/15/15
f 19/19/19 18/18/18 17/17/17
f 17/17/17 20/20/20 19/19/19
f 23/23/23 22/22/22 21/21/21
f 21/21/21 24/24/24 23/23/23
f 27/27/27 26/26/26 25/25/25
f 25/25/25 28/28/28 27/27/27
f 31/31/31 30/30/30 29/29/29
f 29/29/29 32/32/32 31/31/31
f 35/35/35 34/34/34 33/33/33
f 33/33/33 36/36/36 35/35/35
f 39/39/39 38/38/38 37/37/37
f 37/37/37 40/40/40 39/39/39
f 43/43/43 42/42/42 41/41/41
f 41/41/41 44/44/44 43/43/43
f 47/47/47 46/46/46 45/45/45
f 45/45/45 48/48/48 47/47/47
f 51/51/51 50/50/50 49/49/49
f 49/49/49 52/52/52 51/51/51
f 55/55/55 54/54/54 53/53/53
f 53/53/53 56/56/56 55/55/55
f 59/59/59 58/58/58 57/57/57
f 57/57/57 60/60/60 59/59/59
f 63/63/63 62/62/62 61/61/61
f 61/61/61 64/64/64 63/63/63
f 67/67/67 66/66/66 65/65/65
f 65/65/65 68/68/68 67/67/67
f 71/71/71 70/70/70 69/69/69
f 69/69/69 72/72/72 71/71/71
f 75/75/75 74/74/74 73/73/73
f 73/73/73 76/76/76 75/75/75
f 79/79/79 78/78/78 77/77/77
f 77/77/77 80/80/80 79/79/79
f 83/83/83 82/82/82 81/81/81
f 81/81/81 84/84/84 83/83/83
f 87/87/87 86/86/86 85/85/85
f 85/85/85 88/88/88 87/87/87
f 91/91/91 90/90/90 89/89/89
f 89/89/89 92/92/92 91/91/91
f 95/95/95 94/94/94 93/93/93
f 93/93/93 96/96/96 95/95/95
f 99/99/99 98/98/98 97/97/97
f 97/97/97 100/100/100 99/99/99
f 103/103/103 102/102/102 101/101/101
f 101/101/101 104/104/104 103/103/103
f 107/107/107 106/106/106 105/105/105
f 105/105/105 108/108/108 107/107/107
f 111/111/111 110/110/110 109/109/109
f 109/109/109 112/112/112 111/111/111
f 115/115/115 114/114/114 113/113/113
f 113/113/113 116/116/116 115/115/115
f 119/119/119 118/118/118 117/117/117
f 117/117/117 120/120/120 119/119/119
f 123/123/123 122/122/122 121/121/121
f 121/121/121 124/124/124 123/123/123
f 127/127/127 126/126/126 125/125/125
f 125/125/125 128/128/128 127/127/127
f 131/131/131 130/130/130 129/129/129
f 129/129/129 132/132/132 131/131/131
f 135/135/135 134/134/134 133/133/133
f 133/133/133 136/136/136 135/135/135
f 139/139/139 138/138/138 137/137/137
f 137/137/137 140/140/140 139/139/139
f 143/143/143 142/142/142 141/141/141
f 141/141/141 144/144/144 143/143/143
f 147/147/147 146/146/146 145/145/145
f 145/145/145 148/148/148 147/147/147
f 151/151/151 150/150/150 149/149/149
f 149/149/149 152/152/152 151/151/151
f 155/155/155 154/154/154 153/153/153
f 153/153/153 156/156/156 155/155/155
f 159/159/159 158/158/158 157/157/157
f 157/157/157 160/160/160 159/159/159
f 163/163/163 162/162/162 161/161/161
f 161/161/161 164/164/164 163/163/163
f 167/167/167 166/166/166 165/165/165
f 165/165/165 168/168/168 167/167/167
f 171/171/171 170/170/170 169/169/169
f 169/169/169 172/172/172 171/171/171
f 175/175/175 174/174/174 173/173/173
f 173/173/173 176/176/176 175/175/175
f 179/179/179 178/178/178 177/177/177
f 177/177/177 180/180/180 179/179/179
f 183/183/183 182/182/182 181/181/181
f 181/181/181 184/184/184 183/183/183
f 187/187/187 186/186/186 185/185/185
f 185/185/185 188/188/188 187/187/187
f 191/191/191 190/190/190 189/189/189
f 189/189/189 192/192/192 191/191/191
f 195/195/195 194/194/194 193/193/193
f 193/193/193 196/196/196 195/195/195
f 199/199/199 198/198/198 197/197/197
f 197/197/197 200/200/200 199/199/199
f 203/203/203 202/202/202 201/201/201
f 201/201/201 204/204/204 203/203/203
f 207/207/207 206/206/206 205/205/205
f 205/205/205 208/208/208 207/207/207
f 211/211/211 210/210/210 209/209/209
f 209/209/209 212/212/212 211/211/211
f 215/215/215 214/214/214 213/213/213
f 213/213/213 216/216/216 215/215/215
f 219/219/219 218/218/218 217/217/217
f 217/217/217 220/220/220 219/219/219
f 223/223/223 222/222/222 221/221/221
f 221/221/221 224/224/224 223/223/223
f 227/227/227 226/226/226 225/225/225
f 225/225/225 228/228/228 227/227/227
f 231/231/231 230/230/230 229/229/229
f 229/229/229 232/232/232 231/231/231
f 235/235/235 234/234/234 233/233/233
f 233/233/233 236/236/236 235/235/235
