g xiefeierde_idol-mesh
v -192 319 0
v -192 607 0
v -672 607 0
v -672 319 0
v -192 607 0
v -192 895 0
v -672 895 0
v -672 607 0
v -352 0 0
v -352 223 0
v -704 223 0
v -704 0 0
v -672 447 0
v -672 799 0
v -832 799 0
v -832 447 0
v -160 31 0
v -160 159 0
v -352 159 0
v -352 31 0
v -384 895 0
v -384 1023 0
v -544 1023 0
v -544 895 0
v -64 511 0
v -64 671 0
v -192 671 0
v -192 511 0
v -64 351 0
v -64 511 0
v -192 511 0
v -192 351 0
v -224 223 0
v -224 319 0
v -416 319 0
v -416 223 0
v -864 703 0
v -864 831 0
v -928 831 0
v -928 703 0
v -672 799 0
v -672 863 0
v -800 863 0
v -800 799 0
v -704 127 0
v -704 255 0
v -768 255 0
v -768 127 0
v -672 319 0
v -672 447 0
v -736 447 0
v -736 319 0
v -480 255 0
v -480 319 0
v -608 319 0
v -608 255 0
v -608 255 0
v -608 319 0
v -736 319 0
v -736 255 0
v -832 415 0
v -832 543 0
v -896 543 0
v -896 415 0
v -832 543 0
v -832 671 0
v -896 671 0
v -896 543 0
v -224 895 0
v -224 959 0
v -320 959 0
v -320 895 0
v -64 63 0
v -64 127 0
v -160 127 0
v -160 63 0
v -96 671 0
v -96 735 0
v -192 735 0
v -192 671 0
v -64 799 0
v -64 895 0
v -128 895 0
v -128 799 0
v -768 159 0
v -768 223 0
v -864 223 0
v -864 159 0
v -0 159 0
v -0 223 0
v -96 223 0
v -96 159 0
v -224 159 0
v -224 223 0
v -288 223 0
v -288 159 0
v -672 895 0
v -672 959 0
v -736 959 0
v -736 895 0
v -800 319 0
v -800 383 0
v -864 383 0
v -864 319 0
v -864 159 0
v -864 223 0
v -928 223 0
v -928 159 0
v -96 159 0
v -96 223 0
v -160 223 0
v -160 159 0
v -704 0 0
v -704 63 0
v -768 63 0
v -768 0 0
v -32 575 0
v -32 671 0
v -64 671 0
v -64 575 0
v -32 799 0
v -32 863 0
v -64 863 0
v -64 799 0
v -544 895 0
v -544 959 0
v -576 959 0
v -576 895 0
v -608 223 0
v -608 255 0
v -672 255 0
v -672 223 0
v -256 0 0
v -256 31 0
v -320 31 0
v -320 0 0
v -416 223 0
v -416 287 0
v -448 287 0
v -448 223 0
v -736 319 0
v -736 383 0
v -768 383 0
v -768 319 0
v -832 671 0
v -832 735 0
v -864 735 0
v -864 671 0
v -96 31 0
v -96 63 0
v -160 63 0
v -160 31 0
v -160 799 0
v -160 863 0
v -192 863 0
v -192 799 0
v -32 415 0
v -32 479 0
v -64 479 0
v -64 415 0
v -32 351 0
v -32 415 0
v -64 415 0
v -64 351 0
v -352 927 0
v -352 991 0
v -384 991 0
v -384 927 0
v -480 223 0
v -480 255 0
v -544 255 0
v -544 223 0
v -32 511 0
v -32 575 0
v -64 575 0
v -64 511 0
v -192 287 0
v -192 319 0
v -224 319 0
v -224 287 0
v -160 319 0
v -160 351 0
v -192 351 0
v -192 319 0
v -704 863 0
v -704 895 0
v -736 895 0
v -736 863 0
v -448 287 0
v -448 319 0
v -480 319 0
v -480 287 0
v -320 159 0
v -320 191 0
v -352 191 0
v -352 159 0
v -704 63 0
v -704 95 0
v -736 95 0
v -736 63 0
v -736 255 0
v -736 287 0
v -768 287 0
v -768 255 0
v -928 191 0
v -928 223 0
v -944 223 0
v -944 191 0
v -320 0 0
v -320 31 0
v -352 31 0
v -352 0 0
v -352 895 0
v -352 927 0
v -384 927 0
v -384 895 0
v -672 223 0
v -672 255 0
v -704 255 0
v -704 223 0
v -160 767 0
v -160 799 0
v -192 799 0
v -192 767 0
v -192 895 0
v -192 927 0
v -224 927 0
v -224 895 0
v -320 895 0
v -320 927 0
v -352 927 0
v -352 895 0
v -544 223 0
v -544 255 0
v -576 255 0
v -576 223 0
v -672 959 0
v -672 991 0
v -704 991 0
v -704 959 0
vt 0.0009765625 0.0012820363
vt 0.0009765625 0.370512843
vt 0.469726562 0.370512843
vt 0.469726562 0.0012820363
vt 0.471679688 0.0012820363
vt 0.471679688 0.370512843
vt 0.940429688 0.370512843
vt 0.940429688 0.0012820363
vt 0.0009765625 0.373076916
vt 0.0009765625 0.660256386
vt 0.344726562 0.660256386
vt 0.344726562 0.373076916
vt 0.346679688 0.373076916
vt 0.346679688 0.82435894
vt 0.502929688 0.82435894
vt 0.502929688 0.373076916
vt 0.504882812 0.373076916
vt 0.504882812 0.53717947
vt 0.692382812 0.53717947
vt 0.692382812 0.373076916
vt 0.694335938 0.373076916
vt 0.694335938 0.53717947
vt 0.850585938 0.53717947
vt 0.850585938 0.373076916
vt 0.852539062 0.373076916
vt 0.852539062 0.578205109
vt 0.977539062 0.578205109
vt 0.977539062 0.373076916
vt 0.504882812 0.539743602
vt 0.504882812 0.744871795
vt 0.629882812 0.744871795
vt 0.629882812 0.539743602
vt 0.631835938 0.539743602
vt 0.631835938 0.662820518
vt 0.819335938 0.662820518
vt 0.819335938 0.539743602
vt 0.852539062 0.580769241
vt 0.852539062 0.744871795
vt 0.915039062 0.744871795
vt 0.915039062 0.580769241
vt 0.0009765625 0.662820518
vt 0.0009765625 0.744871795
vt 0.125976562 0.744871795
vt 0.125976562 0.662820518
vt 0.916992188 0.580769241
vt 0.916992188 0.744871795
vt 0.979492188 0.744871795
vt 0.979492188 0.580769241
vt 0.127929688 0.662820518
vt 0.127929688 0.826923072
vt 0.190429688 0.826923072
vt 0.190429688 0.662820518
vt 0.192382812 0.662820518
vt 0.192382812 0.744871795
vt 0.317382812 0.744871795
vt 0.317382812 0.662820518
vt 0.631835938 0.66538465
vt 0.631835938 0.747435927
vt 0.756835938 0.747435927
vt 0.756835938 0.66538465
vt 0.758789062 0.66538465
vt 0.758789062 0.829487205
vt 0.821289062 0.829487205
vt 0.821289062 0.66538465
vt 0.0009765625 0.747435927
vt 0.0009765625 0.911538482
vt 0.0634765625 0.911538482
vt 0.0634765625 0.747435927
vt 0.192382812 0.747435927
vt 0.192382812 0.829487205
vt 0.286132812 0.829487205
vt 0.286132812 0.747435927
vt 0.504882812 0.747435927
vt 0.504882812 0.829487205
vt 0.598632812 0.829487205
vt 0.598632812 0.747435927
vt 0.852539062 0.747435927
vt 0.852539062 0.829487205
vt 0.946289062 0.829487205
vt 0.946289062 0.747435927
vt 0.631835938 0.75
vt 0.631835938 0.873076916
vt 0.694335938 0.873076916
vt 0.694335938 0.75
vt 0.346679688 0.826923072
vt 0.346679688 0.908974349
vt 0.440429688 0.908974349
vt 0.440429688 0.826923072
vt 0.192382812 0.832051277
vt 0.192382812 0.914102554
vt 0.286132812 0.914102554
vt 0.286132812 0.832051277
vt 0.127929688 0.829487205
vt 0.127929688 0.911538482
vt 0.190429688 0.911538482
vt 0.190429688 0.829487205
vt 0.504882812 0.832051277
vt 0.504882812 0.914102554
vt 0.567382812 0.914102554
vt 0.567382812 0.832051277
vt 0.758789062 0.832051277
vt 0.758789062 0.914102554
vt 0.821289062 0.914102554
vt 0.821289062 0.832051277
vt 0.852539062 0.832051277
vt 0.852539062 0.914102554
vt 0.915039062 0.914102554
vt 0.915039062 0.832051277
vt 0.916992188 0.832051277
vt 0.916992188 0.914102554
vt 0.979492188 0.914102554
vt 0.979492188 0.832051277
vt 0.631835938 0.875641048
vt 0.631835938 0.957692325
vt 0.694335938 0.957692325
vt 0.694335938 0.875641048
vt 0.0654296875 0.747435927
vt 0.0654296875 0.870512843
vt 0.0966796875 0.870512843
vt 0.0966796875 0.747435927
vt 0.288085938 0.747435927
vt 0.288085938 0.829487205
vt 0.319335938 0.829487205
vt 0.319335938 0.747435927
vt 0.696289062 0.75
vt 0.696289062 0.832051277
vt 0.727539062 0.832051277
vt 0.727539062 0.75
vt 0.346679688 0.911538482
vt 0.346679688 0.95256412
vt 0.409179688 0.95256412
vt 0.409179688 0.911538482
vt 0.411132812 0.911538482
vt 0.411132812 0.95256412
vt 0.473632812 0.95256412
vt 0.473632812 0.911538482
vt 0.288085938 0.832051277
vt 0.288085938 0.914102554
vt 0.319335938 0.914102554
vt 0.319335938 0.832051277
vt 0.569335938 0.832051277
vt 0.569335938 0.914102554
vt 0.600585938 0.914102554
vt 0.600585938 0.832051277
vt 0.696289062 0.83461535
vt 0.696289062 0.916666687
vt 0.727539062 0.916666687
vt 0.727539062 0.83461535
vt 0.0009765625 0.914102554
vt 0.0009765625 0.955128193
vt 0.0634765625 0.955128193
vt 0.0634765625 0.914102554
vt 0.0654296875 0.873076916
vt 0.0654296875 0.955128193
vt 0.0966796875 0.955128193
vt 0.0966796875 0.873076916
vt 0.127929688 0.914102554
vt 0.127929688 0.996153831
vt 0.159179688 0.996153831
vt 0.159179688 0.914102554
vt 0.192382812 0.916666687
vt 0.192382812 0.998717964
vt 0.223632812 0.998717964
vt 0.223632812 0.916666687
vt 0.225585938 0.916666687
vt 0.225585938 0.998717964
vt 0.256835938 0.998717964
vt 0.256835938 0.916666687
vt 0.258789062 0.916666687
vt 0.258789062 0.957692325
vt 0.321289062 0.957692325
vt 0.321289062 0.916666687
vt 0.504882812 0.916666687
vt 0.504882812 0.998717964
vt 0.536132812 0.998717964
vt 0.536132812 0.916666687
vt 0.538085938 0.916666687
vt 0.538085938 0.957692325
vt 0.569335938 0.957692325
vt 0.569335938 0.916666687
vt 0.571289062 0.916666687
vt 0.571289062 0.957692325
vt 0.602539062 0.957692325
vt 0.602539062 0.916666687
vt 0.758789062 0.916666687
vt 0.758789062 0.957692325
vt 0.790039062 0.957692325
vt 0.790039062 0.916666687
vt 0.791992188 0.916666687
vt 0.791992188 0.957692325
vt 0.823242188 0.957692325
vt 0.823242188 0.916666687
vt 0.852539062 0.916666687
vt 0.852539062 0.957692325
vt 0.883789062 0.957692325
vt 0.883789062 0.916666687
vt 0.885742188 0.916666687
vt 0.885742188 0.957692325
vt 0.916992188 0.957692325
vt 0.916992188 0.916666687
vt 0.918945312 0.916666687
vt 0.918945312 0.957692325
vt 0.950195312 0.957692325
vt 0.950195312 0.916666687
vt 0.981445312 0.0012820363
vt 0.981445312 0.0423076749
vt 0.998046875 0.0423076749
vt 0.998046875 0.0012820363
vt 0.952148438 0.916666687
vt 0.952148438 0.957692325
vt 0.983398438 0.957692325
vt 0.983398438 0.916666687
vt 0.696289062 0.919230759
vt 0.696289062 0.960256398
vt 0.727539062 0.960256398
vt 0.727539062 0.919230759
vt 0.346679688 0.955128193
vt 0.346679688 0.996153831
vt 0.377929688 0.996153831
vt 0.377929688 0.955128193
vt 0.379882812 0.955128193
vt 0.379882812 0.996153831
vt 0.411132812 0.996153831
vt 0.411132812 0.955128193
vt 0.413085938 0.955128193
vt 0.413085938 0.996153831
vt 0.444335938 0.996153831
vt 0.444335938 0.955128193
vt 0.446289062 0.955128193
vt 0.446289062 0.996153831
vt 0.477539062 0.996153831
vt 0.477539062 0.955128193
vt 0.0009765625 0.957692325
vt 0.0009765625 0.998717964
vt 0.0322265625 0.998717964
vt 0.0322265625 0.957692325
vt 0.0341796875 0.957692325
vt 0.0341796875 0.998717964
vt 0.0654296875 0.998717964
vt 0.0654296875 0.957692325
g xiefeierde_idol-mesh_0
f 3/3/3 2/2/2 1/1/1
f 1/1/1 4/4/4 3/3/3
f 7/7/7 6/6/6 5/5/5
f 5/5/5 8/8/8 7/7/7
f 11/11/11 10/10/10 9/9/9
f 9/9/9 12/12/12 11/11/11
f 15/15/15 14/14/14 13/13/13
f 13/13/13 16/16/16 15/15/15
f 19/19/19 18/18/18 17/17/17
f 17/17/17 20/20/20 19/19/19
f 23/23/23 22/22/22 21/21/21
f 21/21/21 24/24/24 23/23/23
f 27/27/27 26/26/26 25/25/25
f 25/25/25 28/28/28 27/27/27
f 31/31/31 30/30/30 29/29/29
f 29/29/29 32/32/32 31/31/31
f 35/35/35 34/34/34 33/33/33
f 33/33/33 36/36/36 35/35/35
f 39/39/39 38/38/38 37/37/37
f 37/37/37 40/40/40 39/39/39
f 43/43/43 42/42/42 41/41/41
f 41/41/41 44/44/44 43/43/43
f 47/47/47 46/46/46 45/45/45
f 45/45/45 48/48/48 47/47/47
f 51/51/51 50/50/50 49/49/49
f 49/49/49 52/52/52 51/51/51
f 55/55/55 54/54/54 53/53/53
f 53/53/53 56/56/56 55/55/55
f 59/59/59 58/58/58 57/57/57
f 57/57/57 60/60/60 59/59/59
f 63/63/63 62/62/62 61/61/61
f 61/61/61 64/64/64 63/63/63
f 67/67/67 66/66/66 65/65/65
f 65/65/65 68/68/68 67/67/67
f 71/71/71 70/70/70 69/69/69
f 69/69/69 72/72/72 71/71/71
f 75/75/75 74/74/74 73/73/73
f 73/73/73 76/76/76 75/75/75
f 79/79/79 78/78/78 77/77/77
f 77/77/77 80/80/80 79/79/79
f 83/83/83 82/82/82 81/81/81
f 81/81/81 84/84/84 83/83/83
f 87/87/87 86/86/86 85/85/85
f 85/85/85 88/88/88 87/87/87
f 91/91/91 90/90/90 89/89/89
f 89/89/89 92/92/92 91/91/91
f 95/95/95 94/94/94 93/93/93
f 93/93/93 96/96/96 95/95/95
f 99/99/99 98/98/98 97/97/97
f 97/97/97 100/100/100 99/99/99
f 103/103/103 102/102/102 101/101/101
f 101/101/101 104/104/104 103/103/103
f 107/107/107 106/106/106 105/105/105
f 105/105/105 108/108/108 107/107/107
f 111/111/111 110/110/110 109/109/109
f 109/109/109 112/112/112 111/111/111
f 115/115/115 114/114/114 113/113/113
f 113/113/113 116/116/116 115/115/115
f 119/119/119 118/118/118 117/117/117
f 117/117/117 120/120/120 119/119/119
f 123/123/123 122/122/122 121/121/121
f 121/121/121 124/124/124 123/123/123
f 127/127/127 126/126/126 125/125/125
f 125/125/125 128/128/128 127/127/127
f 131/131/131 130/130/130 129/129/129
f 129/129/129 132/132/132 131/131/131
f 135/135/135 134/134/134 133/133/133
f 133/133/133 136/136/136 135/135/135
f 139/139/139 138/138/138 137/137/137
f 137/137/137 140/140/140 139/139/139
f 143/143/143 142/142/142 141/141/141
f 141/141/141 144/144/144 143/143/143
f 147/147/147 146/146/146 145/145/145
f 145/145/145 148/148/148 147/147/147
f 151/151/151 150/150/150 149/149/149
f 149/149/149 152/152/152 151/151/151
f 155/155/155 154/154/154 153/153/153
f 153/153/153 156/156/156 155/155/155
f 159/159/159 158/158/158 157/157/157
f 157/157/157 160/160/160 159/159/159
f 163/163/163 162/162/162 161/161/161
f 161/161/161 164/164/164 163/163/163
f 167/167/167 166/166/166 165/165/165
f 165/165/165 168/168/168 167/167/167
f 171/171/171 170/170/170 169/169/169
f 169/169/169 172/172/172 171/171/171
f 175/175/175 174/174/174 173/173/173
f 173/173/173 176/176/176 175/175/175
f 179/179/179 178/178/178 177/177/177
f 177/177/177 180/180/180 179/179/179
f 183/183/183 182/182/182 181/181/181
f 181/181/181 184/184/184 183/183/183
f 187/187/187 186/186/186 185/185/185
f 185/185/185 188/188/188 187/187/187
f 191/191/191 190/190/190 189/189/189
f 189/189/189 192/192/192 191/191/191
f 195/195/195 194/194/194 193/193/193
f 193/193/193 196/196/196 195/195/195
f 199/199/199 198/198/198 197/197/197
f 197/197/197 200/200/200 199/199/199
f 203/203/203 202/202/202 201/201/201
f 201/201/201 204/204/204 203/203/203
f 207/207/207 206/206/206 205/205/205
f 205/205/205 208/208/208 207/207/207
f 211/211/211 210/210/210 209/209/209
f 209/209/209 212/212/212 211/211/211
f 215/215/215 214/214/214 213/213/213
f 213/213/213 216/216/216 215/215/215
f 219/219/219 218/218/218 217/217/217
f 217/217/217 220/220/220 219/219/219
f 223/223/223 222/222/222 221/221/221
f 221/221/221 224/224/224 223/223/223
f 227/227/227 226/226/226 225/225/225
f 225/225/225 228/228/228 227/227/227
f 231/231/231 230/230/230 229/229/229
f 229/229/229 232/232/232 231/231/231
f 235/235/235 234/234/234 233/233/233
f 233/233/233 236/236/236 235/235/235
f 239/239/239 238/238/238 237/237/237
f 237/237/237 240/240/240 239/239/239
