g hamanII-mesh
v -288 511 0
v -288 1599 0
v -928 1599 0
v -928 511 0
v -928 511 0
v -928 1599 0
v -1536 1599 0
v -1536 511 0
v -768 31 0
v -768 351 0
v -1088 351 0
v -1088 31 0
v -640 1599 0
v -640 1855 0
v -1024 1855 0
v -1024 1599 0
v -1024 1599 0
v -1024 1855 0
v -1408 1855 0
v -1408 1599 0
v -480 351 0
v -480 511 0
v -992 511 0
v -992 351 0
v -992 351 0
v -992 511 0
v -1472 511 0
v -1472 351 0
v -160 991 0
v -160 1375 0
v -288 1375 0
v -288 991 0
v -1536 1215 0
v -1536 1503 0
v -1696 1503 0
v -1696 1215 0
v -1536 927 0
v -1536 1215 0
v -1696 1215 0
v -1696 927 0
v -160 639 0
v -160 991 0
v -288 991 0
v -288 639 0
v -544 1599 0
v -544 1791 0
v -640 1791 0
v -640 1599 0
v -1408 1599 0
v -1408 1791 0
v -1504 1791 0
v -1504 1599 0
v -832 1855 0
v -832 1919 0
v -1120 1919 0
v -1120 1855 0
v -1120 1855 0
v -1120 1919 0
v -1376 1919 0
v -1376 1855 0
v -1536 703 0
v -1536 863 0
v -1632 863 0
v -1632 703 0
v -1696 1215 0
v -1696 1375 0
v -1760 1375 0
v -1760 1215 0
v -672 255 0
v -672 351 0
v -768 351 0
v -768 255 0
v -1536 1503 0
v -1536 1599 0
v -1632 1599 0
v -1632 1503 0
v -256 1663 0
v -256 1791 0
v -320 1791 0
v -320 1663 0
v -608 1983 0
v -608 2047 0
v -736 2047 0
v -736 1983 0
v -1536 863 0
v -1536 927 0
v -1664 927 0
v -1664 863 0
v -1056 1919 0
v -1056 1983 0
v -1184 1983 0
v -1184 1919 0
v -1696 1087 0
v -1696 1215 0
v -1760 1215 0
v -1760 1087 0
v -352 447 0
v -352 511 0
v -480 511 0
v -480 447 0
v -32 831 0
v -32 927 0
v -96 927 0
v -96 831 0
v -1312 287 0
v -1312 351 0
v -1408 351 0
v -1408 287 0
v -480 1599 0
v -480 1695 0
v -544 1695 0
v -544 1599 0
v -704 63 0
v -704 159 0
v -768 159 0
v -768 63 0
v -320 1823 0
v -320 1919 0
v -384 1919 0
v -384 1823 0
v -384 1887 0
v -384 1983 0
v -448 1983 0
v -448 1887 0
v -576 1919 0
v -576 1983 0
v -672 1983 0
v -672 1919 0
v -384 1791 0
v -384 1887 0
v -448 1887 0
v -448 1791 0
v -480 1919 0
v -480 1983 0
v -576 1983 0
v -576 1919 0
v -96 735 0
v -96 831 0
v -160 831 0
v -160 735 0
v -320 1727 0
v -320 1823 0
v -384 1823 0
v -384 1727 0
v -128 1535 0
v -128 1631 0
v -192 1631 0
v -192 1535 0
v -96 639 0
v -96 735 0
v -160 735 0
v -160 639 0
v -1184 1919 0
v -1184 1983 0
v -1280 1983 0
v -1280 1919 0
v -1760 1055 0
v -1760 1215 0
v -1792 1215 0
v -1792 1055 0
v -800 0 0
v -800 31 0
v -928 31 0
v -928 0 0
v -1088 287 0
v -1088 351 0
v -1152 351 0
v -1152 287 0
v -1504 1663 0
v -1504 1727 0
v -1568 1727 0
v -1568 1663 0
v -224 575 0
v -224 639 0
v -288 639 0
v -288 575 0
v -128 1055 0
v -128 1183 0
v -160 1183 0
v -160 1055 0
v -1760 927 0
v -1760 1055 0
v -1792 1055 0
v -1792 927 0
v -1408 287 0
v -1408 351 0
v -1472 351 0
v -1472 287 0
v -128 1471 0
v -128 1535 0
v -192 1535 0
v -192 1471 0
v -32 767 0
v -32 831 0
v -96 831 0
v -96 767 0
v -1536 607 0
v -1536 703 0
v -1568 703 0
v -1568 607 0
v -1472 383 0
v -1472 479 0
v -1504 479 0
v -1504 383 0
v -128 959 0
v -128 1055 0
v -160 1055 0
v -160 959 0
v -256 1439 0
v -256 1535 0
v -288 1535 0
v -288 1439 0
v -224 1631 0
v -224 1727 0
v -256 1727 0
v -256 1631 0
v -448 1887 0
v -448 1919 0
v -544 1919 0
v -544 1887 0
v -544 1887 0
v -544 1919 0
v -640 1919 0
v -640 1887 0
v -928 0 0
v -928 31 0
v -1024 31 0
v -1024 0 0
v -576 319 0
v -576 351 0
v -640 351 0
v -640 319 0
v -544 1983 0
v -544 2015 0
v -608 2015 0
v -608 1983 0
v -128 831 0
v -128 895 0
v -160 895 0
v -160 831 0
v -448 1791 0
v -448 1855 0
v -480 1855 0
v -480 1791 0
v -1696 1407 0
v -1696 1471 0
v -1728 1471 0
v -1728 1407 0
v -160 1407 0
v -160 1471 0
v -192 1471 0
v -192 1407 0
v -1696 1023 0
v -1696 1087 0
v -1728 1087 0
v -1728 1023 0
v -1792 1055 0
v -1792 1119 0
v -1824 1119 0
v -1824 1055 0
v -416 415 0
v -416 447 0
v -480 447 0
v -480 415 0
v -320 415 0
v -320 447 0
v -384 447 0
v -384 415 0
v -1152 319 0
v -1152 351 0
v -1216 351 0
v -1216 319 0
v -640 95 0
v -640 159 0
v -672 159 0
v -672 95 0
v -1632 1503 0
v -1632 1567 0
v -1664 1567 0
v -1664 1503 0
v -1568 1631 0
v -1568 1695 0
v -1600 1695 0
v -1600 1631 0
v -1408 1791 0
v -1408 1823 0
v -1472 1823 0
v -1472 1791 0
v -1504 1599 0
v -1504 1631 0
v -1568 1631 0
v -1568 1599 0
v -448 1599 0
v -448 1663 0
v -480 1663 0
v -480 1599 0
v -512 1855 0
v -512 1887 0
v -576 1887 0
v -576 1855 0
v -448 1855 0
v -448 1887 0
v -512 1887 0
v -512 1855 0
v -704 1855 0
v -704 1887 0
v -768 1887 0
v -768 1855 0
v -192 1599 0
v -192 1663 0
v -224 1663 0
v -224 1599 0
v -768 1855 0
v -768 1887 0
v -832 1887 0
v -832 1855 0
v -1184 1983 0
v -1184 2015 0
v -1248 2015 0
v -1248 1983 0
v -256 1375 0
v -256 1439 0
v -288 1439 0
v -288 1375 0
v -224 1567 0
v -224 1631 0
v -256 1631 0
v -256 1567 0
v -1536 543 0
v -1536 607 0
v -1568 607 0
v -1568 543 0
v -1120 1983 0
v -1120 2015 0
v -1184 2015 0
v -1184 1983 0
v -1472 319 0
v -1472 383 0
v -1504 383 0
v -1504 319 0
v -192 1535 0
v -192 1599 0
v -224 1599 0
v -224 1535 0
v -1792 863 0
v -1792 927 0
v -1824 927 0
v -1824 863 0
v -1792 927 0
v -1792 991 0
v -1824 991 0
v -1824 927 0
v -0 831 0
v -0 895 0
v -32 895 0
v -32 831 0
v -1728 895 0
v -1728 959 0
v -1760 959 0
v -1760 895 0
v -0 895 0
v -0 959 0
v -32 959 0
v -32 895 0
v -1728 959 0
v -1728 1023 0
v -1760 1023 0
v -1760 959 0
v -64 735 0
v -64 767 0
v -96 767 0
v -96 735 0
v -192 607 0
v -192 639 0
v -224 639 0
v -224 607 0
v -1568 671 0
v -1568 703 0
v -1600 703 0
v -1600 671 0
v -1600 1631 0
v -1600 1663 0
v -1632 1663 0
v -1632 1631 0
v -256 1631 0
v -256 1663 0
v -288 1663 0
v -288 1631 0
v -1632 767 0
v -1632 799 0
v -1664 799 0
v -1664 767 0
v -1664 863 0
v -1664 895 0
v -1696 895 0
v -1696 863 0
v -736 159 0
v -736 191 0
v -768 191 0
v -768 159 0
v -736 223 0
v -736 255 0
v -768 255 0
v -768 223 0
v -1280 319 0
v -1280 351 0
v -1312 351 0
v -1312 319 0
v -736 31 0
v -736 63 0
v -768 63 0
v -768 31 0
v -256 543 0
v -256 575 0
v -288 575 0
v -288 543 0
v -320 479 0
v -320 511 0
v -352 511 0
v -352 479 0
v -448 383 0
v -448 415 0
v -480 415 0
v -480 383 0
v -320 1695 0
v -320 1727 0
v -352 1727 0
v -352 1695 0
v -640 319 0
v -640 351 0
v -672 351 0
v -672 319 0
v -352 1919 0
v -352 1951 0
v -384 1951 0
v -384 1919 0
v -448 1919 0
v -448 1951 0
v -480 1951 0
v -480 1919 0
v -1696 991 0
v -1696 1023 0
v -1728 1023 0
v -1728 991 0
v -160 1375 0
v -160 1407 0
v -192 1407 0
v -192 1375 0
v -1696 1375 0
v -1696 1407 0
v -1728 1407 0
v -1728 1375 0
v -1792 1023 0
v -1792 1055 0
v -1824 1055 0
v -1824 1023 0
v -1632 1791 0
v -1632 1823 0
v -1664 1823 0
v -1664 1791 0
v -384 1759 0
v -384 1791 0
v -416 1791 0
v -416 1759 0
v -1504 1727 0
v -1504 1759 0
v -1536 1759 0
v -1536 1727 0
v -288 1791 0
v -288 1823 0
v -320 1823 0
v -320 1791 0
v -1024 1919 0
v -1024 1951 0
v -1056 1951 0
v -1056 1919 0
v -1280 1919 0
v -1280 1951 0
v -1312 1951 0
v -1312 1919 0
v -480 1823 0
v -480 1855 0
v -512 1855 0
v -512 1823 0
vt 0.00048828125 0.000758707523
vt 0.00048828125 0.826251864
vt 0.312988281 0.826251864
vt 0.312988281 0.000758707523
vt 0.313964844 0.000758707523
vt 0.313964844 0.826251864
vt 0.610839844 0.826251864
vt 0.610839844 0.000758707523
vt 0.611816406 0.000758707523
vt 0.611816406 0.243550837
vt 0.768066406 0.243550837
vt 0.768066406 0.000758707523
vt 0.769042969 0.000758707523
vt 0.769042969 0.194992423
vt 0.956542969 0.194992423
vt 0.956542969 0.000758707523
vt 0.769042969 0.196509838
vt 0.769042969 0.390743554
vt 0.956542969 0.390743554
vt 0.956542969 0.196509838
vt 0.00048828125 0.827769339
vt 0.00048828125 0.949165404
vt 0.250488281 0.949165404
vt 0.250488281 0.827769339
vt 0.251464844 0.827769339
vt 0.251464844 0.949165404
vt 0.485839844 0.949165404
vt 0.485839844 0.827769339
vt 0.611816406 0.245068312
vt 0.611816406 0.536418796
vt 0.674316406 0.536418796
vt 0.674316406 0.245068312
vt 0.675292969 0.245068312
vt 0.675292969 0.463581204
vt 0.753417969 0.463581204
vt 0.753417969 0.245068312
vt 0.769042969 0.392261028
vt 0.769042969 0.610773921
vt 0.847167969 0.610773921
vt 0.847167969 0.392261028
vt 0.848144531 0.392261028
vt 0.848144531 0.659332335
vt 0.910644531 0.659332335
vt 0.910644531 0.392261028
vt 0.911621094 0.392261028
vt 0.911621094 0.53793627
vt 0.958496094 0.53793627
vt 0.958496094 0.392261028
vt 0.675292969 0.465098619
vt 0.675292969 0.610773921
vt 0.722167969 0.610773921
vt 0.722167969 0.465098619
vt 0.675292969 0.612291336
vt 0.675292969 0.66084981
vt 0.815917969 0.66084981
vt 0.815917969 0.612291336
vt 0.848144531 0.66084981
vt 0.848144531 0.709408164
vt 0.973144531 0.709408164
vt 0.973144531 0.66084981
vt 0.611816406 0.53793627
vt 0.611816406 0.659332335
vt 0.658691406 0.659332335
vt 0.658691406 0.53793627
vt 0.611816406 0.66084981
vt 0.611816406 0.782245815
vt 0.643066406 0.782245815
vt 0.643066406 0.66084981
vt 0.675292969 0.662367225
vt 0.675292969 0.735204816
vt 0.722167969 0.735204816
vt 0.722167969 0.662367225
vt 0.723144531 0.662367225
vt 0.723144531 0.735204816
vt 0.770019531 0.735204816
vt 0.770019531 0.662367225
vt 0.770996094 0.662367225
vt 0.770996094 0.759484053
vt 0.802246094 0.759484053
vt 0.802246094 0.662367225
vt 0.848144531 0.710925639
vt 0.848144531 0.759484053
vt 0.910644531 0.759484053
vt 0.910644531 0.710925639
vt 0.911621094 0.710925639
vt 0.911621094 0.759484053
vt 0.974121094 0.759484053
vt 0.974121094 0.710925639
vt 0.675292969 0.73672235
vt 0.675292969 0.785280704
vt 0.737792969 0.785280704
vt 0.737792969 0.73672235
vt 0.803222656 0.662367225
vt 0.803222656 0.759484053
vt 0.834472656 0.759484053
vt 0.834472656 0.662367225
vt 0.770996094 0.761001527
vt 0.770996094 0.809559941
vt 0.833496094 0.809559941
vt 0.833496094 0.761001527
vt 0.738769531 0.73672235
vt 0.738769531 0.809559941
vt 0.770019531 0.809559941
vt 0.770019531 0.73672235
vt 0.834472656 0.761001527
vt 0.834472656 0.809559941
vt 0.881347656 0.809559941
vt 0.881347656 0.761001527
vt 0.882324219 0.761001527
vt 0.882324219 0.833839178
vt 0.913574219 0.833839178
vt 0.913574219 0.761001527
vt 0.914550781 0.761001527
vt 0.914550781 0.833839178
vt 0.945800781 0.833839178
vt 0.945800781 0.761001527
vt 0.946777344 0.761001527
vt 0.946777344 0.833839178
vt 0.978027344 0.833839178
vt 0.978027344 0.761001527
vt 0.611816406 0.783763289
vt 0.611816406 0.856600881
vt 0.643066406 0.856600881
vt 0.643066406 0.783763289
vt 0.675292969 0.786798179
vt 0.675292969 0.835356593
vt 0.722167969 0.835356593
vt 0.722167969 0.786798179
vt 0.738769531 0.811077356
vt 0.738769531 0.883915007
vt 0.770019531 0.883915007
vt 0.770019531 0.811077356
vt 0.770996094 0.811077356
vt 0.770996094 0.85963583
vt 0.817871094 0.85963583
vt 0.817871094 0.811077356
vt 0.818847656 0.811077356
vt 0.818847656 0.883915007
vt 0.850097656 0.883915007
vt 0.850097656 0.811077356
vt 0.486816406 0.827769339
vt 0.486816406 0.90060699
vt 0.518066406 0.90060699
vt 0.518066406 0.827769339
vt 0.519042969 0.827769339
vt 0.519042969 0.90060699
vt 0.550292969 0.90060699
vt 0.550292969 0.827769339
vt 0.551269531 0.827769339
vt 0.551269531 0.90060699
vt 0.582519531 0.90060699
vt 0.582519531 0.827769339
vt 0.882324219 0.835356593
vt 0.882324219 0.883915007
vt 0.929199219 0.883915007
vt 0.929199219 0.835356593
vt 0.979003906 0.000758707523
vt 0.979003906 0.122154772
vt 0.994628906 0.122154772
vt 0.994628906 0.000758707523
vt 0.930175781 0.835356593
vt 0.930175781 0.85963583
vt 0.992675781 0.85963583
vt 0.992675781 0.835356593
vt 0.675292969 0.836874068
vt 0.675292969 0.885432482
vt 0.706542969 0.885432482
vt 0.706542969 0.836874068
vt 0.611816406 0.858118355
vt 0.611816406 0.906676769
vt 0.643066406 0.906676769
vt 0.643066406 0.858118355
vt 0.770996094 0.861153245
vt 0.770996094 0.909711659
vt 0.802246094 0.909711659
vt 0.802246094 0.861153245
vt 0.644042969 0.66084981
vt 0.644042969 0.757966638
vt 0.659667969 0.757966638
vt 0.659667969 0.66084981
vt 0.644042969 0.759484053
vt 0.644042969 0.856600881
vt 0.659667969 0.856600881
vt 0.659667969 0.759484053
vt 0.930175781 0.861153245
vt 0.930175781 0.909711659
vt 0.961425781 0.909711659
vt 0.961425781 0.861153245
vt 0.962402344 0.861153245
vt 0.962402344 0.909711659
vt 0.993652344 0.909711659
vt 0.993652344 0.861153245
vt 0.738769531 0.885432482
vt 0.738769531 0.933990896
vt 0.770019531 0.933990896
vt 0.770019531 0.885432482
vt 0.851074219 0.811077356
vt 0.851074219 0.883915007
vt 0.866699219 0.883915007
vt 0.866699219 0.811077356
vt 0.583496094 0.827769339
vt 0.583496094 0.90060699
vt 0.599121094 0.90060699
vt 0.599121094 0.827769339
vt 0.707519531 0.836874068
vt 0.707519531 0.909711659
vt 0.723144531 0.909711659
vt 0.723144531 0.836874068
vt 0.644042969 0.858118355
vt 0.644042969 0.930956006
vt 0.659667969 0.930956006
vt 0.659667969 0.858118355
vt 0.818847656 0.885432482
vt 0.818847656 0.958270133
vt 0.834472656 0.958270133
vt 0.834472656 0.885432482
vt 0.835449219 0.885432482
vt 0.835449219 0.909711659
vt 0.882324219 0.909711659
vt 0.882324219 0.885432482
vt 0.486816406 0.902124405
vt 0.486816406 0.926403642
vt 0.533691406 0.926403642
vt 0.533691406 0.902124405
vt 0.534667969 0.902124405
vt 0.534667969 0.926403642
vt 0.581542969 0.926403642
vt 0.581542969 0.902124405
vt 0.883300781 0.885432482
vt 0.883300781 0.909711659
vt 0.914550781 0.909711659
vt 0.914550781 0.885432482
vt 0.675292969 0.886949897
vt 0.675292969 0.911229134
vt 0.706542969 0.911229134
vt 0.706542969 0.886949897
vt 0.582519531 0.902124405
vt 0.582519531 0.950682878
vt 0.598144531 0.950682878
vt 0.598144531 0.902124405
vt 0.611816406 0.908194244
vt 0.611816406 0.956752658
vt 0.627441406 0.956752658
vt 0.627441406 0.908194244
vt 0.707519531 0.911229134
vt 0.707519531 0.959787548
vt 0.723144531 0.959787548
vt 0.723144531 0.911229134
vt 0.770996094 0.911229134
vt 0.770996094 0.959787548
vt 0.786621094 0.959787548
vt 0.786621094 0.911229134
vt 0.787597656 0.911229134
vt 0.787597656 0.959787548
vt 0.803222656 0.959787548
vt 0.803222656 0.911229134
vt 0.835449219 0.911229134
vt 0.835449219 0.959787548
vt 0.851074219 0.959787548
vt 0.851074219 0.911229134
vt 0.852050781 0.911229134
vt 0.852050781 0.93550837
vt 0.883300781 0.93550837
vt 0.883300781 0.911229134
vt 0.884277344 0.911229134
vt 0.884277344 0.93550837
vt 0.915527344 0.93550837
vt 0.915527344 0.911229134
vt 0.930175781 0.911229134
vt 0.930175781 0.93550837
vt 0.961425781 0.93550837
vt 0.961425781 0.911229134
vt 0.962402344 0.911229134
vt 0.962402344 0.959787548
vt 0.978027344 0.959787548
vt 0.978027344 0.911229134
vt 0.979003906 0.911229134
vt 0.979003906 0.959787548
vt 0.994628906 0.959787548
vt 0.994628906 0.911229134
vt 0.675292969 0.912746608
vt 0.675292969 0.961305022
vt 0.690917969 0.961305022
vt 0.690917969 0.912746608
vt 0.486816406 0.927921116
vt 0.486816406 0.952200294
vt 0.518066406 0.952200294
vt 0.518066406 0.927921116
vt 0.519042969 0.927921116
vt 0.519042969 0.952200294
vt 0.550292969 0.952200294
vt 0.550292969 0.927921116
vt 0.551269531 0.927921116
vt 0.551269531 0.97647953
vt 0.566894531 0.97647953
vt 0.566894531 0.927921116
vt 0.738769531 0.93550837
vt 0.738769531 0.959787548
vt 0.770019531 0.959787548
vt 0.770019531 0.93550837
vt 0.852050781 0.937025785
vt 0.852050781 0.961305022
vt 0.883300781 0.961305022
vt 0.883300781 0.937025785
vt 0.884277344 0.937025785
vt 0.884277344 0.961305022
vt 0.915527344 0.961305022
vt 0.915527344 0.937025785
vt 0.644042969 0.932473421
vt 0.644042969 0.981031895
vt 0.659667969 0.981031895
vt 0.659667969 0.932473421
vt 0.930175781 0.937025785
vt 0.930175781 0.961305022
vt 0.961425781 0.961305022
vt 0.961425781 0.937025785
vt 0.00048828125 0.950682878
vt 0.00048828125 0.974962056
vt 0.0317382812 0.974962056
vt 0.0317382812 0.950682878
vt 0.0327148438 0.950682878
vt 0.0327148438 0.999241292
vt 0.0483398438 0.999241292
vt 0.0483398438 0.950682878
vt 0.0493164062 0.950682878
vt 0.0493164062 0.999241292
vt 0.0649414062 0.999241292
vt 0.0649414062 0.950682878
vt 0.0659179688 0.950682878
vt 0.0659179688 0.999241292
vt 0.0815429688 0.999241292
vt 0.0815429688 0.950682878
vt 0.0825195312 0.950682878
vt 0.0825195312 0.974962056
vt 0.113769531 0.974962056
vt 0.113769531 0.950682878
vt 0.114746094 0.950682878
vt 0.114746094 0.999241292
vt 0.130371094 0.999241292
vt 0.130371094 0.950682878
vt 0.131347656 0.950682878
vt 0.131347656 0.999241292
vt 0.146972656 0.999241292
vt 0.146972656 0.950682878
vt 0.147949219 0.950682878
vt 0.147949219 0.999241292
vt 0.163574219 0.999241292
vt 0.163574219 0.950682878
vt 0.164550781 0.950682878
vt 0.164550781 0.999241292
vt 0.180175781 0.999241292
vt 0.180175781 0.950682878
vt 0.181152344 0.950682878
vt 0.181152344 0.999241292
vt 0.196777344 0.999241292
vt 0.196777344 0.950682878
vt 0.197753906 0.950682878
vt 0.197753906 0.999241292
vt 0.213378906 0.999241292
vt 0.213378906 0.950682878
vt 0.214355469 0.950682878
vt 0.214355469 0.999241292
vt 0.229980469 0.999241292
vt 0.229980469 0.950682878
vt 0.230957031 0.950682878
vt 0.230957031 0.999241292
vt 0.246582031 0.999241292
vt 0.246582031 0.950682878
vt 0.247558594 0.950682878
vt 0.247558594 0.974962056
vt 0.263183594 0.974962056
vt 0.263183594 0.950682878
vt 0.264160156 0.950682878
vt 0.264160156 0.974962056
vt 0.279785156 0.974962056
vt 0.279785156 0.950682878
vt 0.280761719 0.950682878
vt 0.280761719 0.974962056
vt 0.296386719 0.974962056
vt 0.296386719 0.950682878
vt 0.297363281 0.950682878
vt 0.297363281 0.974962056
vt 0.312988281 0.974962056
vt 0.312988281 0.950682878
vt 0.313964844 0.950682878
vt 0.313964844 0.974962056
vt 0.329589844 0.974962056
vt 0.329589844 0.950682878
vt 0.330566406 0.950682878
vt 0.330566406 0.974962056
vt 0.346191406 0.974962056
vt 0.346191406 0.950682878
vt 0.347167969 0.950682878
vt 0.347167969 0.974962056
vt 0.362792969 0.974962056
vt 0.362792969 0.950682878
vt 0.363769531 0.950682878
vt 0.363769531 0.974962056
vt 0.379394531 0.974962056
vt 0.379394531 0.950682878
vt 0.380371094 0.950682878
vt 0.380371094 0.974962056
vt 0.395996094 0.974962056
vt 0.395996094 0.950682878
vt 0.396972656 0.950682878
vt 0.396972656 0.974962056
vt 0.412597656 0.974962056
vt 0.412597656 0.950682878
vt 0.413574219 0.950682878
vt 0.413574219 0.974962056
vt 0.429199219 0.974962056
vt 0.429199219 0.950682878
vt 0.430175781 0.950682878
vt 0.430175781 0.974962056
vt 0.445800781 0.974962056
vt 0.445800781 0.950682878
vt 0.446777344 0.950682878
vt 0.446777344 0.974962056
vt 0.462402344 0.974962056
vt 0.462402344 0.950682878
vt 0.463378906 0.950682878
vt 0.463378906 0.974962056
vt 0.479003906 0.974962056
vt 0.479003906 0.950682878
vt 0.582519531 0.952200294
vt 0.582519531 0.97647953
vt 0.598144531 0.97647953
vt 0.598144531 0.952200294
vt 0.486816406 0.953717768
vt 0.486816406 0.977996945
vt 0.502441406 0.977996945
vt 0.502441406 0.953717768
vt 0.503417969 0.953717768
vt 0.503417969 0.977996945
vt 0.519042969 0.977996945
vt 0.519042969 0.953717768
vt 0.520019531 0.953717768
vt 0.520019531 0.977996945
vt 0.535644531 0.977996945
vt 0.535644531 0.953717768
vt 0.611816406 0.958270133
vt 0.611816406 0.98254931
vt 0.627441406 0.98254931
vt 0.627441406 0.958270133
vt 0.818847656 0.959787548
vt 0.818847656 0.984066784
vt 0.834472656 0.984066784
vt 0.834472656 0.959787548
vt 0.707519531 0.961305022
vt 0.707519531 0.985584199
vt 0.723144531 0.985584199
vt 0.723144531 0.961305022
vt 0.738769531 0.961305022
vt 0.738769531 0.985584199
vt 0.754394531 0.985584199
vt 0.754394531 0.961305022
vt 0.755371094 0.961305022
vt 0.755371094 0.985584199
vt 0.770996094 0.985584199
vt 0.770996094 0.961305022
vt 0.771972656 0.961305022
vt 0.771972656 0.985584199
vt 0.787597656 0.985584199
vt 0.787597656 0.961305022
vt 0.788574219 0.961305022
vt 0.788574219 0.985584199
vt 0.804199219 0.985584199
vt 0.804199219 0.961305022
vt 0.835449219 0.961305022
vt 0.835449219 0.985584199
vt 0.851074219 0.985584199
vt 0.851074219 0.961305022
vt 0.962402344 0.961305022
vt 0.962402344 0.985584199
vt 0.978027344 0.985584199
vt 0.978027344 0.961305022
vt 0.979003906 0.961305022
vt 0.979003906 0.985584199
vt 0.994628906 0.985584199
vt 0.994628906 0.961305022
vt 0.675292969 0.962822437
vt 0.675292969 0.987101674
vt 0.690917969 0.987101674
vt 0.690917969 0.962822437
g hamanII-mesh_0
f 3/3/3 2/2/2 1/1/1
f 1/1/1 4/4/4 3/3/3
f 7/7/7 6/6/6 5/5/5
f 5/5/5 8/8/8 7/7/7
f 11/11/11 10/10/10 9/9/9
f 9/9/9 12/12/12 11/11/11
f 15/15/15 14/14/14 13/13/13
f 13/13/13 16/16/16 15/15/15
f 19/19/19 18/18/18 17/17/17
f 17/17/17 20/20/20 19/19/19
f 23/23/23 22/22/22 21/21/21
f 21/21/21 24/24/24 23/23/23
f 27/27/27 26/26/26 25/25/25
f 25/25/25 28/28/28 27/27/27
f 31/31/31 30/30/30 29/29/29
f 29/29/29 32/32/32 31/31/31
f 35/35/35 34/34/34 33/33/33
f 33/33/33 36/36/36 35/35/35
f 39/39/39 38/38/38 37/37/37
f 37/37/37 40/40/40 39/39/39
f 43/43/43 42/42/42 41/41/41
f 41/41/41 44/44/44 43/43/43
f 47/47/47 46/46/46 45/45/45
f 45/45/45 48/48/48 47/47/47
f 51/51/51 50/50/50 49/49/49
f 49/49/49 52/52/52 51/51/51
f 55/55/55 54/54/54 53/53/53
f 53/53/53 56/56/56 55/55/55
f 59/59/59 58/58/58 57/57/57
f 57/57/57 60/60/60 59/59/59
f 63/63/63 62/62/62 61/61/61
f 61/61/61 64/64/64 63/63/63
f 67/67/67 66/66/66 65/65/65
f 65/65/65 68/68/68 67/67/67
f 71/71/71 70/70/70 69/69/69
f 69/69/69 72/72/72 71/71/71
f 75/75/75 74/74/74 73/73/73
f 73/73/73 76/76/76 75/75/75
f 79/79/79 78/78/78 77/77/77
f 77/77/77 80/80/80 79/79/79
f 83/83/83 82/82/82 81/81/81
f 81/81/81 84/84/84 83/83/83
f 87/87/87 86/86/86 85/85/85
f 85/85/85 88/88/88 87/87/87
f 91/91/91 90/90/90 89/89/89
f 89/89/89 92/92/92 91/91/91
f 95/95/95 94/94/94 93/93/93
f 93/93/93 96/96/96 95/95/95
f 99/99/99 98/98/98 97/97/97
f 97/97/97 100/100/100 99/99/99
f 103/103/103 102/102/102 101/101/101
f 101/101/101 104/104/104 103/103/103
f 107/107/107 106/106/106 105/105/105
f 105/105/105 108/108/108 107/107/107
f 111/111/111 110/110/110 109/109/109
f 109/109/109 112/112/112 111/111/111
f 115/115/115 114/114/114 113/113/113
f 113/113/113 116/116/116 115/115/115
f 119/119/119 118/118/118 117/117/117
f 117/117/117 120/120/120 119/119/119
f 123/123/123 122/122/122 121/121/121
f 121/121/121 124/124/124 123/123/123
f 127/127/127 126/126/126 125/125/125
f 125/125/125 128/128/128 127/127/127
f 131/131/131 130/130/130 129/129/129
f 129/129/129 132/132/132 131/131/131
f 135/135/135 134/134/134 133/133/133
f 133/133/133 136/136/136 135/135/135
f 139/139/139 138/138/138 137/137/137
f 137/137/137 140/140/140 139/139/139
f 143/143/143 142/142/142 141/141/141
f 141/141/141 144/144/144 143/143/143
f 147/147/147 146/146/146 145/145/145
f 145/145/145 148/148/148 147/147/147
f 151/151/151 150/150/150 149/149/149
f 149/149/149 152/152/152 151/151/151
f 155/155/155 154/154/154 153/153/153
f 153/153/153 156/156/156 155/155/155
f 159/159/159 158/158/158 157/157/157
f 157/157/157 160/160/160 159/159/159
f 163/163/163 162/162/162 161/161/161
f 161/161/161 164/164/164 163/163/163
f 167/167/167 166/166/166 165/165/165
f 165/165/165 168/168/168 167/167/167
f 171/171/171 170/170/170 169/169/169
f 169/169/169 172/172/172 171/171/171
f 175/175/175 174/174/174 173/173/173
f 173/173/173 176/176/176 175/175/175
f 179/179/179 178/178/178 177/177/177
f 177/177/177 180/180/180 179/179/179
f 183/183/183 182/182/182 181/181/181
f 181/181/181 184/184/184 183/183/183
f 187/187/187 186/186/186 185/185/185
f 185/185/185 188/188/188 187/187/187
f 191/191/191 190/190/190 189/189/189
f 189/189/189 192/192/192 191/191/191
f 195/195/195 194/194/194 193/193/193
f 193/193/193 196/196/196 195/195/195
f 199/199/199 198/198/198 197/197/197
f 197/197/197 200/200/200 199/199/199
f 203/203/203 202/202/202 201/201/201
f 201/201/201 204/204/204 203/203/203
f 207/207/207 206/206/206 205/205/205
f 205/205/205 208/208/208 207/207/207
f 211/211/211 210/210/210 209/209/209
f 209/209/209 212/212/212 211/211/211
f 215/215/215 214/214/214 213/213/213
f 213/213/213 216/216/216 215/215/215
f 219/219/219 218/218/218 217/217/217
f 217/217/217 220/220/220 219/219/219
f 223/223/223 222/222/222 221/221/221
f 221/221/221 224/224/224 223/223/223
f 227/227/227 226/226/226 225/225/225
f 225/225/225 228/228/228 227/227/227
f 231/231/231 230/230/230 229/229/229
f 229/229/229 232/232/232 231/231/231
f 235/235/235 234/234/234 233/233/233
f 233/233/233 236/236/236 235/235/235
f 239/239/239 238/238/238 237/237/237
f 237/237/237 240/240/240 239/239/239
f 243/243/243 242/242/242 241/241/241
f 241/241/241 244/244/244 243/243/243
f 247/247/247 246/246/246 245/245/245
f 245/245/245 248/248/248 247/247/247
f 251/251/251 250/250/250 249/249/249
f 249/249/249 252/252/252 251/251/251
f 255/255/255 254/254/254 253/253/253
f 253/253/253 256/256/256 255/255/255
f 259/259/259 258/258/258 257/257/257
f 257/257/257 260/260/260 259/259/259
f 263/263/263 262/262/262 261/261/261
f 261/261/261 264/264/264 263/263/263
f 267/267/267 266/266/266 265/265/265
f 265/265/265 268/268/268 267/267/267
f 271/271/271 270/270/270 269/269/269
f 269/269/269 272/272/272 271/271/271
f 275/275/275 274/274/274 273/273/273
f 273/273/273 276/276/276 275/275/275
f 279/279/279 278/278/278 277/277/277
f 277/277/277 280/280/280 279/279/279
f 283/283/283 282/282/282 281/281/281
f 281/281/281 284/284/284 283/283/283
f 287/287/287 286/286/286 285/285/285
f 285/285/285 288/288/288 287/287/287
f 291/291/291 290/290/290 289/289/289
f 289/289/289 292/292/292 291/291/291
f 295/295/295 294/294/294 293/293/293
f 293/293/293 296/296/296 295/295/295
f 299/299/299 298/298/298 297/297/297
f 297/297/297 300/300/300 299/299/299
f 303/303/303 302/302/302 301/301/301
f 301/301/301 304/304/304 303/303/303
f 307/307/307 306/306/306 305/305/305
f 305/305/305 308/308/308 307/307/307
f 311/311/311 310/310/310 309/309/309
f 309/309/309 312/312/312 311/311/311
f 315/315/315 314/314/314 313/313/313
f 313/313/313 316/316/316 315/315/315
f 319/319/319 318/318/318 317/317/317
f 317/317/317 320/320/320 319/319/319
f 323/323/323 322/322/322 321/321/321
f 321/321/321 324/324/324 323/323/323
f 327/327/327 326/326/326 325/325/325
f 325/325/325 328/328/328 327/327/327
f 331/331/331 330/330/330 329/329/329
f 329/329/329 332/332/332 331/331/331
f 335/335/335 334/334/334 333/333/333
f 333/333/333 336/336/336 335/335/335
f 339/339/339 338/338/338 337/337/337
f 337/337/337 340/340/340 339/339/339
f 343/343/343 342/342/342 341/341/341
f 341/341/341 344/344/344 343/343/343
f 347/347/347 346/346/346 345/345/345
f 345/345/345 348/348/348 347/347/347
f 351/351/351 350/350/350 349/349/349
f 349/349/349 352/352/352 351/351/351
f 355/355/355 354/354/354 353/353/353
f 353/353/353 356/356/356 355/355/355
f 359/359/359 358/358/358 357/357/357
f 357/357/357 360/360/360 359/359/359
f 363/363/363 362/362/362 361/361/361
f 361/361/361 364/364/364 363/363/363
f 367/367/367 366/366/366 365/365/365
f 365/365/365 368/368/368 367/367/367
f 371/371/371 370/370/370 369/369/369
f 369/369/369 372/372/372 371/371/371
f 375/375/375 374/374/374 373/373/373
f 373/373/373 376/376/376 375/375/375
f 379/379/379 378/378/378 377/377/377
f 377/377/377 380/380/380 379/379/379
f 383/383/383 382/382/382 381/381/381
f 381/381/381 384/384/384 383/383/383
f 387/387/387 386/386/386 385/385/385
f 385/385/385 388/388/388 387/387/387
f 391/391/391 390/390/390 389/389/389
f 389/389/389 392/392/392 391/391/391
f 395/395/395 394/394/394 393/393/393
f 393/393/393 396/396/396 395/395/395
f 399/399/399 398/398/398 397/397/397
f 397/397/397 400/400/400 399/399/399
f 403/403/403 402/402/402 401/401/401
f 401/401/401 404/404/404 403/403/403
f 407/407/407 406/406/406 405/405/405
f 405/405/405 408/408/408 407/407/407
f 411/411/411 410/410/410 409/409/409
f 409/409/409 412/412/412 411/411/411
f 415/415/415 414/414/414 413/413/413
f 413/413/413 416/416/416 415/415/415
f 419/419/419 418/418/418 417/417/417
f 417/417/417 420/420/420 419/419/419
f 423/423/423 422/422/422 421/421/421
f 421/421/421 424/424/424 423/423/423
f 427/427/427 426/426/426 425/425/425
f 425/425/425 428/428/428 427/427/427
f 431/431/431 430/430/430 429/429/429
f 429/429/429 432/432/432 431/431/431
f 435/435/435 434/434/434 433/433/433
f 433/433/433 436/436/436 435/435/435
f 439/439/439 438/438/438 437/437/437
f 437/437/437 440/440/440 439/439/439
f 443/443/443 442/442/442 441/441/441
f 441/441/441 444/444/444 443/443/443
f 447/447/447 446/446/446 445/445/445
f 445/445/445 448/448/448 447/447/447
f 451/451/451 450/450/450 449/449/449
f 449/449/449 452/452/452 451/451/451
f 455/455/455 454/454/454 453/453/453
f 453/453/453 456/456/456 455/455/455
f 459/459/459 458/458/458 457/457/457
f 457/457/457 460/460/460 459/459/459
f 463/463/463 462/462/462 461/461/461
f 461/461/461 464/464/464 463/463/463
f 467/467/467 466/466/466 465/465/465
f 465/465/465 468/468/468 467/467/467
f 471/471/471 470/470/470 469/469/469
f 469/469/469 472/472/472 471/471/471
f 475/475/475 474/474/474 473/473/473
f 473/473/473 476/476/476 475/475/475
f 479/479/479 478/478/478 477/477/477
f 477/477/477 480/480/480 479/479/479
f 483/483/483 482/482/482 481/481/481
f 481/481/481 484/484/484 483/483/483
