g heitaizi_h_rw-mesh
v -384 363 0
v -384 1003 0
v -768 1003 0
v -768 363 0
v -768 363 0
v -768 1003 0
v -1120 1003 0
v -1120 363 0
v -1248 171 0
v -1248 363 0
v -1760 363 0
v -1760 171 0
v -736 171 0
v -736 363 0
v -1248 363 0
v -1248 171 0
v -1120 363 0
v -1120 715 0
v -1312 715 0
v -1312 363 0
v -544 235 0
v -544 363 0
v -736 363 0
v -736 235 0
v -192 779 0
v -192 971 0
v -320 971 0
v -320 779 0
v -192 971 0
v -192 1163 0
v -320 1163 0
v -320 971 0
v -1024 139 0
v -1024 171 0
v -1536 171 0
v -1536 139 0
v -1536 139 0
v -1536 171 0
v -2047 171 0
v -2047 139 0
v -32 811 0
v -32 907 0
v -192 907 0
v -192 811 0
v -1312 363 0
v -1312 491 0
v -1408 491 0
v -1408 363 0
v -320 1003 0
v -320 1035 0
v -704 1035 0
v -704 1003 0
v -704 1003 0
v -704 1035 0
v -1056 1035 0
v -1056 1003 0
v -320 843 0
v -320 1003 0
v -384 1003 0
v -384 843 0
v -1760 171 0
v -1760 235 0
v -1920 235 0
v -1920 171 0
v -544 139 0
v -544 235 0
v -640 235 0
v -640 139 0
v -1312 107 0
v -1312 139 0
v -1600 139 0
v -1600 107 0
v -1024 107 0
v -1024 139 0
v -1312 139 0
v -1312 107 0
v -768 43 0
v -768 171 0
v -832 171 0
v -832 43 0
v -1120 875 0
v -1120 1003 0
v -1184 1003 0
v -1184 875 0
v -256 1163 0
v -256 1291 0
v -320 1291 0
v -320 1163 0
v -320 715 0
v -320 843 0
v -384 843 0
v -384 715 0
v -1920 171 0
v -1920 235 0
v -2047 235 0
v -2047 171 0
v -1024 11 0
v -1024 107 0
v -1088 107 0
v -1088 11 0
v -1152 11 0
v -1152 107 0
v -1216 107 0
v -1216 11 0
v -896 75 0
v -896 171 0
v -960 171 0
v -960 75 0
v -1120 715 0
v -1120 811 0
v -1184 811 0
v -1184 715 0
v -1760 235 0
v -1760 299 0
v -1824 299 0
v -1824 235 0
v -1792 107 0
v -1792 139 0
v -1888 139 0
v -1888 107 0
v -1888 107 0
v -1888 139 0
v -1984 139 0
v -1984 107 0
v -96 907 0
v -96 939 0
v -160 939 0
v -160 907 0
v -0 811 0
v -0 875 0
v -32 875 0
v -32 811 0
v -352 651 0
v -352 715 0
v -384 715 0
v -384 651 0
v -384 1387 0
v -384 1419 0
v -448 1419 0
v -448 1387 0
v -224 1163 0
v -224 1227 0
v -256 1227 0
v -256 1163 0
v -1184 907 0
v -1184 971 0
v -1216 971 0
v -1216 907 0
v -1824 235 0
v -1824 267 0
v -1888 267 0
v -1888 235 0
v -640 171 0
v -640 235 0
v -672 235 0
v -672 171 0
v -1088 11 0
v -1088 75 0
v -1120 75 0
v -1120 11 0
v -1312 491 0
v -1312 555 0
v -1344 555 0
v -1344 491 0
v -1440 363 0
v -1440 395 0
v -1504 395 0
v -1504 363 0
v -512 267 0
v -512 331 0
v -544 331 0
v -544 267 0
v -736 43 0
v -736 107 0
v -768 107 0
v -768 43 0
v -1920 427 0
v -1920 459 0
v -1984 459 0
v -1984 427 0
v -224 747 0
v -224 779 0
v -288 779 0
v -288 747 0
v -1184 715 0
v -1184 747 0
v -1248 747 0
v -1248 715 0
v -160 939 0
v -160 1003 0
v -192 1003 0
v -192 939 0
v -1408 395 0
v -1408 459 0
v -1440 459 0
v -1440 395 0
v -448 331 0
v -448 363 0
v -512 363 0
v -512 331 0
v -128 779 0
v -128 811 0
v -160 811 0
v -160 779 0
v -1984 395 0
v -1984 427 0
v -2016 427 0
v -2016 395 0
v -1344 491 0
v -1344 523 0
v -1376 523 0
v -1376 491 0
v -896 43 0
v -896 75 0
v -928 75 0
v -928 43 0
v -768 11 0
v -768 43 0
v -800 43 0
v -800 11 0
v -1120 75 0
v -1120 107 0
v -1152 107 0
v -1152 75 0
v -1760 299 0
v -1760 331 0
v -1792 331 0
v -1792 299 0
v -1056 0 0
v -1056 11 0
v -1088 11 0
v -1088 0 0
v -1120 811 0
v -1120 843 0
v -1152 843 0
v -1152 811 0
v -1984 427 0
v -1984 459 0
v -2016 459 0
v -2016 427 0
v -1408 363 0
v -1408 395 0
v -1440 395 0
v -1440 363 0
v -736 11 0
v -736 43 0
v -768 43 0
v -768 11 0
v -512 331 0
v -512 363 0
v -544 363 0
v -544 331 0
v -160 907 0
v -160 939 0
v -192 939 0
v -192 907 0
v -768 1035 0
v -768 1067 0
v -800 1067 0
v -800 1035 0
v -1248 715 0
v -1248 747 0
v -1280 747 0
v -1280 715 0
v -288 747 0
v -288 779 0
v -320 779 0
v -320 747 0
vt 0.00048828125 0.00155764818
vt 0.00048828125 0.998442352
vt 0.187988281 0.998442352
vt 0.187988281 0.00155764818
vt 0.188964844 0.00155764818
vt 0.188964844 0.998442352
vt 0.360839844 0.998442352
vt 0.360839844 0.00155764818
vt 0.361816406 0.00155764818
vt 0.361816406 0.300623059
vt 0.611816406 0.300623059
vt 0.611816406 0.00155764818
vt 0.612792969 0.00155764818
vt 0.612792969 0.300623059
vt 0.862792969 0.300623059
vt 0.862792969 0.00155764818
vt 0.863769531 0.00155764818
vt 0.863769531 0.549844265
vt 0.957519531 0.549844265
vt 0.957519531 0.00155764818
vt 0.361816406 0.303738296
vt 0.361816406 0.503115296
vt 0.455566406 0.503115296
vt 0.455566406 0.303738296
vt 0.456542969 0.303738296
vt 0.456542969 0.602803707
vt 0.519042969 0.602803707
vt 0.519042969 0.303738296
vt 0.520019531 0.303738296
vt 0.520019531 0.602803707
vt 0.582519531 0.602803707
vt 0.582519531 0.303738296
vt 0.583496094 0.303738296
vt 0.583496094 0.353582561
vt 0.833496094 0.353582561
vt 0.833496094 0.303738296
vt 0.583496094 0.356697798
vt 0.583496094 0.406542063
vt 0.833496094 0.406542063
vt 0.833496094 0.356697798
vt 0.583496094 0.4096573
vt 0.583496094 0.559190035
vt 0.661621094 0.559190035
vt 0.661621094 0.4096573
vt 0.662597656 0.4096573
vt 0.662597656 0.6090343
vt 0.709472656 0.6090343
vt 0.709472656 0.4096573
vt 0.456542969 0.605919003
vt 0.456542969 0.655763268
vt 0.644042969 0.655763268
vt 0.644042969 0.605919003
vt 0.662597656 0.612149537
vt 0.662597656 0.661993742
vt 0.834472656 0.661993742
vt 0.834472656 0.612149537
vt 0.958496094 0.00155764818
vt 0.958496094 0.250778794
vt 0.989746094 0.250778794
vt 0.989746094 0.00155764818
vt 0.361816406 0.506230533
vt 0.361816406 0.605919003
vt 0.439941406 0.605919003
vt 0.439941406 0.506230533
vt 0.863769531 0.552959502
vt 0.863769531 0.702492237
vt 0.910644531 0.702492237
vt 0.910644531 0.552959502
vt 0.456542969 0.658878505
vt 0.456542969 0.708722711
vt 0.597167969 0.708722711
vt 0.597167969 0.658878505
vt 0.662597656 0.665109038
vt 0.662597656 0.714953303
vt 0.803222656 0.714953303
vt 0.803222656 0.665109038
vt 0.958496094 0.253894091
vt 0.958496094 0.453271031
vt 0.989746094 0.453271031
vt 0.989746094 0.253894091
vt 0.958496094 0.456386268
vt 0.958496094 0.655763268
vt 0.989746094 0.655763268
vt 0.989746094 0.456386268
vt 0.911621094 0.552959502
vt 0.911621094 0.752336442
vt 0.942871094 0.752336442
vt 0.942871094 0.552959502
vt 0.361816406 0.6090343
vt 0.361816406 0.808411241
vt 0.393066406 0.808411241
vt 0.393066406 0.6090343
vt 0.598144531 0.658878505
vt 0.598144531 0.758566976
vt 0.660644531 0.758566976
vt 0.660644531 0.658878505
vt 0.394042969 0.6090343
vt 0.394042969 0.758566976
vt 0.425292969 0.758566976
vt 0.425292969 0.6090343
vt 0.958496094 0.658878505
vt 0.958496094 0.808411241
vt 0.989746094 0.808411241
vt 0.989746094 0.658878505
vt 0.804199219 0.665109038
vt 0.804199219 0.814641714
vt 0.835449219 0.814641714
vt 0.835449219 0.665109038
vt 0.863769531 0.705607474
vt 0.863769531 0.855140209
vt 0.895019531 0.855140209
vt 0.895019531 0.705607474
vt 0.456542969 0.711838007
vt 0.456542969 0.811526477
vt 0.487792969 0.811526477
vt 0.487792969 0.711838007
vt 0.488769531 0.711838007
vt 0.488769531 0.761682272
vt 0.535644531 0.761682272
vt 0.535644531 0.711838007
vt 0.536621094 0.711838007
vt 0.536621094 0.761682272
vt 0.583496094 0.761682272
vt 0.583496094 0.711838007
vt 0.662597656 0.71806854
vt 0.662597656 0.767912745
vt 0.693847656 0.767912745
vt 0.693847656 0.71806854
vt 0.836425781 0.303738296
vt 0.836425781 0.403426766
vt 0.852050781 0.403426766
vt 0.852050781 0.303738296
vt 0.836425781 0.406542063
vt 0.836425781 0.506230533
vt 0.852050781 0.506230533
vt 0.852050781 0.406542063
vt 0.694824219 0.71806854
vt 0.694824219 0.767912745
vt 0.726074219 0.767912745
vt 0.726074219 0.71806854
vt 0.836425781 0.50934577
vt 0.836425781 0.6090343
vt 0.852050781 0.6090343
vt 0.852050781 0.50934577
vt 0.426269531 0.6090343
vt 0.426269531 0.708722711
vt 0.441894531 0.708722711
vt 0.441894531 0.6090343
vt 0.727050781 0.71806854
vt 0.727050781 0.767912745
vt 0.758300781 0.767912745
vt 0.758300781 0.71806854
vt 0.836425781 0.612149537
vt 0.836425781 0.711838007
vt 0.852050781 0.711838007
vt 0.852050781 0.612149537
vt 0.426269531 0.711838007
vt 0.426269531 0.811526477
vt 0.441894531 0.811526477
vt 0.441894531 0.711838007
vt 0.836425781 0.714953303
vt 0.836425781 0.814641714
vt 0.852050781 0.814641714
vt 0.852050781 0.714953303
vt 0.759277344 0.71806854
vt 0.759277344 0.767912745
vt 0.790527344 0.767912745
vt 0.790527344 0.71806854
vt 0.911621094 0.755451679
vt 0.911621094 0.855140209
vt 0.927246094 0.855140209
vt 0.927246094 0.755451679
vt 0.928222656 0.755451679
vt 0.928222656 0.855140209
vt 0.943847656 0.855140209
vt 0.943847656 0.755451679
vt 0.394042969 0.761682272
vt 0.394042969 0.811526477
vt 0.425292969 0.811526477
vt 0.425292969 0.761682272
vt 0.598144531 0.761682272
vt 0.598144531 0.811526477
vt 0.629394531 0.811526477
vt 0.629394531 0.761682272
vt 0.630371094 0.761682272
vt 0.630371094 0.811526477
vt 0.661621094 0.811526477
vt 0.661621094 0.761682272
vt 0.488769531 0.764797509
vt 0.488769531 0.864485979
vt 0.504394531 0.864485979
vt 0.504394531 0.764797509
vt 0.505371094 0.764797509
vt 0.505371094 0.864485979
vt 0.520996094 0.864485979
vt 0.520996094 0.764797509
vt 0.521972656 0.764797509
vt 0.521972656 0.814641714
vt 0.553222656 0.814641714
vt 0.553222656 0.764797509
vt 0.554199219 0.764797509
vt 0.554199219 0.814641714
vt 0.569824219 0.814641714
vt 0.569824219 0.764797509
vt 0.570800781 0.764797509
vt 0.570800781 0.814641714
vt 0.586425781 0.814641714
vt 0.586425781 0.764797509
vt 0.662597656 0.771028042
vt 0.662597656 0.820872307
vt 0.678222656 0.820872307
vt 0.678222656 0.771028042
vt 0.679199219 0.771028042
vt 0.679199219 0.820872307
vt 0.694824219 0.820872307
vt 0.694824219 0.771028042
vt 0.695800781 0.771028042
vt 0.695800781 0.820872307
vt 0.711425781 0.820872307
vt 0.711425781 0.771028042
vt 0.712402344 0.771028042
vt 0.712402344 0.820872307
vt 0.728027344 0.820872307
vt 0.728027344 0.771028042
vt 0.729003906 0.771028042
vt 0.729003906 0.820872307
vt 0.744628906 0.820872307
vt 0.744628906 0.771028042
vt 0.745605469 0.771028042
vt 0.745605469 0.789719641
vt 0.761230469 0.789719641
vt 0.761230469 0.771028042
vt 0.762207031 0.771028042
vt 0.762207031 0.820872307
vt 0.777832031 0.820872307
vt 0.777832031 0.771028042
vt 0.778808594 0.771028042
vt 0.778808594 0.820872307
vt 0.794433594 0.820872307
vt 0.794433594 0.771028042
vt 0.745605469 0.792834878
vt 0.745605469 0.842679143
vt 0.761230469 0.842679143
vt 0.761230469 0.792834878
vt 0.361816406 0.811526477
vt 0.361816406 0.861370683
vt 0.377441406 0.861370683
vt 0.377441406 0.811526477
vt 0.958496094 0.811526477
vt 0.958496094 0.861370683
vt 0.974121094 0.861370683
vt 0.974121094 0.811526477
vt 0.975097656 0.811526477
vt 0.975097656 0.861370683
vt 0.990722656 0.861370683
vt 0.990722656 0.811526477
vt 0.394042969 0.814641714
vt 0.394042969 0.864485979
vt 0.409667969 0.864485979
vt 0.409667969 0.814641714
vt 0.410644531 0.814641714
vt 0.410644531 0.864485979
vt 0.426269531 0.864485979
vt 0.426269531 0.814641714
vt 0.427246094 0.814641714
vt 0.427246094 0.864485979
vt 0.442871094 0.864485979
vt 0.442871094 0.814641714
g heitaizi_h_rw-mesh_0
f 3/3/3 2/2/2 1/1/1
f 1/1/1 4/4/4 3/3/3
f 7/7/7 6/6/6 5/5/5
f 5/5/5 8/8/8 7/7/7
f 11/11/11 10/10/10 9/9/9
f 9/9/9 12/12/12 11/11/11
f 15/15/15 14/14/14 13/13/13
f 13/13/13 16/16/16 15/15/15
f 19/19/19 18/18/18 17/17/17
f 17/17/17 20/20/20 19/19/19
f 23/23/23 22/22/22 21/21/21
f 21/21/21 24/24/24 23/23/23
f 27/27/27 26/26/26 25/25/25
f 25/25/25 28/28/28 27/27/27
f 31/31/31 30/30/30 29/29/29
f 29/29/29 32/32/32 31/31/31
f 35/35/35 34/34/34 33/33/33
f 33/33/33 36/36/36 35/35/35
f 39/39/39 38/38/38 37/37/37
f 37/37/37 40/40/40 39/39/39
f 43/43/43 42/42/42 41/41/41
f 41/41/41 44/44/44 43/43/43
f 47/47/47 46/46/46 45/45/45
f 45/45/45 48/48/48 47/47/47
f 51/51/51 50/50/50 49/49/49
f 49/49/49 52/52/52 51/51/51
f 55/55/55 54/54/54 53/53/53
f 53/53/53 56/56/56 55/55/55
f 59/59/59 58/58/58 57/57/57
f 57/57/57 60/60/60 59/59/59
f 63/63/63 62/62/62 61/61/61
f 61/61/61 64/64/64 63/63/63
f 67/67/67 66/66/66 65/65/65
f 65/65/65 68/68/68 67/67/67
f 71/71/71 70/70/70 69/69/69
f 69/69/69 72/72/72 71/71/71
f 75/75/75 74/74/74 73/73/73
f 73/73/73 76/76/76 75/75/75
f 79/79/79 78/78/78 77/77/77
f 77/77/77 80/80/80 79/79/79
f 83/83/83 82/82/82 81/81/81
f 81/81/81 84/84/84 83/83/83
f 87/87/87 86/86/86 85/85/85
f 85/85/85 88/88/88 87/87/87
f 91/91/91 90/90/90 89/89/89
f 89/89/89 92/92/92 91/91/91
f 95/95/95 94/94/94 93/93/93
f 93/93/93 96/96/96 95/95/95
f 99/99/99 98/98/98 97/97/97
f 97/97/97 100/100/100 99/99/99
f 103/103/103 102/102/102 101/101/101
f 101/101/101 104/104/104 103/103/103
f 107/107/107 106/106/106 105/105/105
f 105/105/105 108/108/108 107/107/107
f 111/111/111 110/110/110 109/109/109
f 109/109/109 112/112/112 111/111/111
f 115/115/115 114/114/114 113/113/113
f 113/113/113 116/116/116 115/115/115
f 119/119/119 118/118/118 117/117/117
f 117/117/117 120/120/120 119/119/119
f 123/123/123 122/122/122 121/121/121
f 121/121/121 124/124/124 123/123/123
f 127/127/127 126/126/126 125/125/125
f 125/125/125 128/128/128 127/127/127
f 131/131/131 130/130/130 129/129/129
f 129/129/129 132/132/132 131/131/131
f 135/135/135 134/134/134 133/133/133
f 133/133/133 136/136/136 135/135/135
f 139/139/139 138/138/138 137/137/137
f 137/137/137 140/140/140 139/139/139
f 143/143/143 142/142/142 141/141/141
f 141/141/141 144/144/144 143/143/143
f 147/147/147 146/146/146 145/145/145
f 145/145/145 148/148/148 147/147/147
f 151/151/151 150/150/150 149/149/149
f 149/149/149 152/152/152 151/151/151
f 155/155/155 154/154/154 153/153/153
f 153/153/153 156/156/156 155/155/155
f 159/159/159 158/158/158 157/157/157
f 157/157/157 160/160/160 159/159/159
f 163/163/163 162/162/162 161/161/161
f 161/161/161 164/164/164 163/163/163
f 167/167/167 166/166/166 165/165/165
f 165/165/165 168/168/168 167/167/167
f 171/171/171 170/170/170 169/169/169
f 169/169/169 172/172/172 171/171/171
f 175/175/175 174/174/174 173/173/173
f 173/173/173 176/176/176 175/175/175
f 179/179/179 178/178/178 177/177/177
f 177/177/177 180/180/180 179/179/179
f 183/183/183 182/182/182 181/181/181
f 181/181/181 184/184/184 183/183/183
f 187/187/187 186/186/186 185/185/185
f 185/185/185 188/188/188 187/187/187
f 191/191/191 190/190/190 189/189/189
f 189/189/189 192/192/192 191/191/191
f 195/195/195 194/194/194 193/193/193
f 193/193/193 196/196/196 195/195/195
f 199/199/199 198/198/198 197/197/197
f 197/197/197 200/200/200 199/199/199
f 203/203/203 202/202/202 201/201/201
f 201/201/201 204/204/204 203/203/203
f 207/207/207 206/206/206 205/205/205
f 205/205/205 208/208/208 207/207/207
f 211/211/211 210/210/210 209/209/209
f 209/209/209 212/212/212 211/211/211
f 215/215/215 214/214/214 213/213/213
f 213/213/213 216/216/216 215/215/215
f 219/219/219 218/218/218 217/217/217
f 217/217/217 220/220/220 219/219/219
f 223/223/223 222/222/222 221/221/221
f 221/221/221 224/224/224 223/223/223
f 227/227/227 226/226/226 225/225/225
f 225/225/225 228/228/228 227/227/227
f 231/231/231 230/230/230 229/229/229
f 229/229/229 232/232/232 231/231/231
f 235/235/235 234/234/234 233/233/233
f 233/233/233 236/236/236 235/235/235
f 239/239/239 238/238/238 237/237/237
f 237/237/237 240/240/240 239/239/239
f 243/243/243 242/242/242 241/241/241
f 241/241/241 244/244/244 243/243/243
f 247/247/247 246/246/246 245/245/245
f 245/245/245 248/248/248 247/247/247
f 251/251/251 250/250/250 249/249/249
f 249/249/249 252/252/252 251/251/251
f 255/255/255 254/254/254 253/253/253
f 253/253/253 256/256/256 255/255/255
f 259/259/259 258/258/258 257/257/257
f 257/257/257 260/260/260 259/259/259
f 263/263/263 262/262/262 261/261/261
f 261/261/261 264/264/264 263/263/263
f 267/267/267 266/266/266 265/265/265
f 265/265/265 268/268/268 267/267/267
