g haman_5-mesh
v -640 201 0
v -640 937 0
v -1408 937 0
v -1408 201 0
v -640 937 0
v -640 1673 0
v -1408 1673 0
v -1408 937 0
v -1408 457 0
v -1408 905 0
v -1920 905 0
v -1920 457 0
v -192 1385 0
v -192 1673 0
v -640 1673 0
v -640 1385 0
v -192 1129 0
v -192 1385 0
v -640 1385 0
v -640 1129 0
v -224 1673 0
v -224 1801 0
v -736 1801 0
v -736 1673 0
v -736 1673 0
v -736 1801 0
v -1216 1801 0
v -1216 1673 0
v -1408 905 0
v -1408 1161 0
v -1632 1161 0
v -1632 905 0
v -352 233 0
v -352 553 0
v -512 553 0
v -512 233 0
v -512 777 0
v -512 1129 0
v -640 1129 0
v -640 777 0
v -512 425 0
v -512 777 0
v -640 777 0
v -640 425 0
v -544 105 0
v -544 201 0
v -864 201 0
v -864 105 0
v -864 105 0
v -864 201 0
v -1184 201 0
v -1184 105 0
v -1408 233 0
v -1408 457 0
v -1504 457 0
v -1504 233 0
v -1408 1161 0
v -1408 1321 0
v -1536 1321 0
v -1536 1161 0
v -512 201 0
v -512 361 0
v -640 361 0
v -640 201 0
v -672 1801 0
v -672 1865 0
v -928 1865 0
v -928 1801 0
v -1568 297 0
v -1568 457 0
v -1664 457 0
v -1664 297 0
v -416 969 0
v -416 1129 0
v -512 1129 0
v -512 969 0
v -928 1801 0
v -928 1865 0
v -1152 1865 0
v -1152 1801 0
v -416 841 0
v -416 969 0
v -512 969 0
v -512 841 0
v -768 9 0
v -768 105 0
v -896 105 0
v -896 9 0
v -96 1033 0
v -96 1161 0
v -192 1161 0
v -192 1033 0
v -96 1161 0
v -96 1289 0
v -192 1289 0
v -192 1161 0
v -1728 361 0
v -1728 457 0
v -1824 457 0
v -1824 361 0
v -1664 329 0
v -1664 457 0
v -1728 457 0
v -1728 329 0
v -32 1097 0
v -32 1225 0
v -96 1225 0
v -96 1097 0
v -352 1001 0
v -352 1129 0
v -416 1129 0
v -416 1001 0
v -448 553 0
v -448 649 0
v -512 649 0
v -512 553 0
v -1920 681 0
v -1920 873 0
v -1952 873 0
v -1952 681 0
v -1504 361 0
v -1504 457 0
v -1568 457 0
v -1568 361 0
v -1920 489 0
v -1920 681 0
v -1952 681 0
v -1952 489 0
v -1632 969 0
v -1632 1065 0
v -1696 1065 0
v -1696 969 0
v -1504 265 0
v -1504 361 0
v -1568 361 0
v -1568 265 0
v -1696 905 0
v -1696 969 0
v -1760 969 0
v -1760 905 0
v -448 169 0
v -448 233 0
v -512 233 0
v -512 169 0
v -1984 809 0
v -1984 873 0
v -2047 873 0
v -2047 809 0
v -512 361 0
v -512 425 0
v -576 425 0
v -576 361 0
v -448 777 0
v -448 841 0
v -512 841 0
v -512 777 0
v -896 73 0
v -896 105 0
v -1024 105 0
v -1024 73 0
v -1952 745 0
v -1952 873 0
v -1984 873 0
v -1984 745 0
v -768 1865 0
v -768 1897 0
v -896 1897 0
v -896 1865 0
v -896 1865 0
v -896 1897 0
v -1024 1897 0
v -1024 1865 0
v -1632 905 0
v -1632 969 0
v -1696 969 0
v -1696 905 0
v -1952 649 0
v -1952 745 0
v -1984 745 0
v -1984 649 0
v -1024 73 0
v -1024 105 0
v -1120 105 0
v -1120 73 0
v -1184 169 0
v -1184 201 0
v -1280 201 0
v -1280 169 0
v -1408 1321 0
v -1408 1417 0
v -1440 1417 0
v -1440 1321 0
v -1408 1417 0
v -1408 1513 0
v -1440 1513 0
v -1440 1417 0
v -1216 1705 0
v -1216 1769 0
v -1248 1769 0
v -1248 1705 0
v -1824 393 0
v -1824 457 0
v -1856 457 0
v -1856 393 0
v -1184 137 0
v -1184 169 0
v -1248 169 0
v -1248 137 0
v -1984 681 0
v -1984 745 0
v -2016 745 0
v -2016 681 0
v -1952 553 0
v -1952 617 0
v -1984 617 0
v -1984 553 0
v -800 0 0
v -800 9 0
v -864 9 0
v -864 0 0
v -512 137 0
v -512 201 0
v -544 201 0
v -544 137 0
v -160 1641 0
v -160 1705 0
v -192 1705 0
v -192 1641 0
v -224 1065 0
v -224 1129 0
v -256 1129 0
v -256 1065 0
v -320 1065 0
v -320 1129 0
v -352 1129 0
v -352 1065 0
v -128 969 0
v -128 1033 0
v -160 1033 0
v -160 969 0
v -384 937 0
v -384 1001 0
v -416 1001 0
v -416 937 0
v -160 1289 0
v -160 1353 0
v -192 1353 0
v -192 1289 0
v -0 1129 0
v -0 1193 0
v -32 1193 0
v -32 1129 0
v -480 713 0
v -480 777 0
v -512 777 0
v -512 713 0
v -608 1801 0
v -608 1833 0
v -672 1833 0
v -672 1801 0
v -544 1801 0
v -544 1833 0
v -608 1833 0
v -608 1801 0
v -1280 169 0
v -1280 201 0
v -1344 201 0
v -1344 169 0
v -1216 1673 0
v -1216 1705 0
v -1280 1705 0
v -1280 1673 0
v -1280 1673 0
v -1280 1705 0
v -1344 1705 0
v -1344 1673 0
v -1056 1865 0
v -1056 1897 0
v -1120 1897 0
v -1120 1865 0
v -192 1065 0
v -192 1129 0
v -224 1129 0
v -224 1065 0
v -192 1705 0
v -192 1769 0
v -224 1769 0
v -224 1705 0
v -1536 1193 0
v -1536 1257 0
v -1568 1257 0
v -1568 1193 0
v -1440 1353 0
v -1440 1417 0
v -1472 1417 0
v -1472 1353 0
v -416 553 0
v -416 617 0
v -448 617 0
v -448 553 0
v -160 1001 0
v -160 1033 0
v -192 1033 0
v -192 1001 0
v -1632 1065 0
v -1632 1097 0
v -1664 1097 0
v -1664 1065 0
v -1696 969 0
v -1696 1001 0
v -1728 1001 0
v -1728 969 0
v -256 1097 0
v -256 1129 0
v -288 1129 0
v -288 1097 0
v -1984 777 0
v -1984 809 0
v -2016 809 0
v -2016 777 0
v -288 329 0
v -288 361 0
v -320 361 0
v -320 329 0
v -576 361 0
v -576 393 0
v -608 393 0
v -608 361 0
v -896 41 0
v -896 73 0
v -928 73 0
v -928 41 0
v -416 201 0
v -416 233 0
v -448 233 0
v -448 201 0
v -384 553 0
v -384 585 0
v -416 585 0
v -416 553 0
v -480 649 0
v -480 681 0
v -512 681 0
v -512 649 0
v -608 393 0
v -608 425 0
v -640 425 0
v -640 393 0
v -1856 425 0
v -1856 457 0
v -1888 457 0
v -1888 425 0
v -1536 1161 0
v -1536 1193 0
v -1568 1193 0
v -1568 1161 0
v -192 1033 0
v -192 1065 0
v -224 1065 0
v -224 1033 0
v -1984 649 0
v -1984 681 0
v -2016 681 0
v -2016 649 0
v -1120 1865 0
v -1120 1897 0
v -1152 1897 0
v -1152 1865 0
v -192 1673 0
v -192 1705 0
v -224 1705 0
v -224 1673 0
v -1440 1321 0
v -1440 1353 0
v -1472 1353 0
v -1472 1321 0
v -1952 521 0
v -1952 553 0
v -1984 553 0
v -1984 521 0
v -128 1289 0
v -128 1321 0
v -160 1321 0
v -160 1289 0
v -64 1225 0
v -64 1257 0
v -96 1257 0
v -96 1225 0
v -1568 1161 0
v -1568 1193 0
v -1600 1193 0
v -1600 1161 0
v -864 0 0
v -864 9 0
v -896 9 0
v -896 0 0
v -1152 1801 0
v -1152 1833 0
v -1184 1833 0
v -1184 1801 0
v -1472 1321 0
v -1472 1353 0
v -1504 1353 0
v -1504 1321 0
vt 0.00048828125 0.000794887543
vt 0.00048828125 0.585850596
vt 0.375488281 0.585850596
vt 0.375488281 0.000794887543
vt 0.376464844 0.000794887543
vt 0.376464844 0.585850596
vt 0.751464844 0.585850596
vt 0.751464844 0.000794887543
vt 0.00048828125 0.587440372
vt 0.00048828125 0.943561196
vt 0.250488281 0.943561196
vt 0.250488281 0.587440372
vt 0.752441406 0.000794887543
vt 0.752441406 0.229729712
vt 0.971191406 0.229729712
vt 0.971191406 0.000794887543
vt 0.752441406 0.231319547
vt 0.752441406 0.434817195
vt 0.971191406 0.434817195
vt 0.971191406 0.231319547
vt 0.251464844 0.587440372
vt 0.251464844 0.689189196
vt 0.501464844 0.689189196
vt 0.501464844 0.587440372
vt 0.752441406 0.43640697
vt 0.752441406 0.538155794
vt 0.986816406 0.538155794
vt 0.986816406 0.43640697
vt 0.752441406 0.539745629
vt 0.752441406 0.743243217
vt 0.861816406 0.743243217
vt 0.861816406 0.539745629
vt 0.862792969 0.539745629
vt 0.862792969 0.79411763
vt 0.940917969 0.79411763
vt 0.940917969 0.539745629
vt 0.502441406 0.587440372
vt 0.502441406 0.867249608
vt 0.564941406 0.867249608
vt 0.564941406 0.587440372
vt 0.565917969 0.587440372
vt 0.565917969 0.867249608
vt 0.628417969 0.867249608
vt 0.628417969 0.587440372
vt 0.251464844 0.690778971
vt 0.251464844 0.767090619
vt 0.407714844 0.767090619
vt 0.407714844 0.690778971
vt 0.251464844 0.768680453
vt 0.251464844 0.844992042
vt 0.407714844 0.844992042
vt 0.407714844 0.768680453
vt 0.941894531 0.539745629
vt 0.941894531 0.717806041
vt 0.988769531 0.717806041
vt 0.988769531 0.539745629
vt 0.629394531 0.587440372
vt 0.629394531 0.714626431
vt 0.691894531 0.714626431
vt 0.691894531 0.587440372
vt 0.408691406 0.690778971
vt 0.408691406 0.817965031
vt 0.471191406 0.817965031
vt 0.471191406 0.690778971
vt 0.862792969 0.795707464
vt 0.862792969 0.846581876
vt 0.987792969 0.846581876
vt 0.987792969 0.795707464
vt 0.692871094 0.587440372
vt 0.692871094 0.714626431
vt 0.739746094 0.714626431
vt 0.739746094 0.587440372
vt 0.629394531 0.716216207
vt 0.629394531 0.843402207
vt 0.676269531 0.843402207
vt 0.676269531 0.716216207
vt 0.752441406 0.744833112
vt 0.752441406 0.795707464
vt 0.861816406 0.795707464
vt 0.861816406 0.744833112
vt 0.677246094 0.716216207
vt 0.677246094 0.817965031
vt 0.724121094 0.817965031
vt 0.724121094 0.716216207
vt 0.752441406 0.797297299
vt 0.752441406 0.873608887
vt 0.814941406 0.873608887
vt 0.814941406 0.797297299
vt 0.408691406 0.819554865
vt 0.408691406 0.92130363
vt 0.455566406 0.92130363
vt 0.455566406 0.819554865
vt 0.677246094 0.819554865
vt 0.677246094 0.92130363
vt 0.724121094 0.92130363
vt 0.724121094 0.819554865
vt 0.629394531 0.844992042
vt 0.629394531 0.92130363
vt 0.676269531 0.92130363
vt 0.676269531 0.844992042
vt 0.815917969 0.797297299
vt 0.815917969 0.899046123
vt 0.847167969 0.899046123
vt 0.847167969 0.797297299
vt 0.456542969 0.819554865
vt 0.456542969 0.92130363
vt 0.487792969 0.92130363
vt 0.487792969 0.819554865
vt 0.251464844 0.846581876
vt 0.251464844 0.9483307
vt 0.282714844 0.9483307
vt 0.282714844 0.846581876
vt 0.283691406 0.846581876
vt 0.283691406 0.922893465
vt 0.314941406 0.922893465
vt 0.314941406 0.846581876
vt 0.725097656 0.716216207
vt 0.725097656 0.868839443
vt 0.740722656 0.868839443
vt 0.740722656 0.716216207
vt 0.315917969 0.846581876
vt 0.315917969 0.922893465
vt 0.347167969 0.922893465
vt 0.347167969 0.846581876
vt 0.348144531 0.846581876
vt 0.348144531 0.999205112
vt 0.363769531 0.999205112
vt 0.363769531 0.846581876
vt 0.364746094 0.846581876
vt 0.364746094 0.922893465
vt 0.395996094 0.922893465
vt 0.395996094 0.846581876
vt 0.862792969 0.848171711
vt 0.862792969 0.924483299
vt 0.894042969 0.924483299
vt 0.894042969 0.848171711
vt 0.895019531 0.848171711
vt 0.895019531 0.899046123
vt 0.926269531 0.899046123
vt 0.926269531 0.848171711
vt 0.927246094 0.848171711
vt 0.927246094 0.899046123
vt 0.958496094 0.899046123
vt 0.958496094 0.848171711
vt 0.959472656 0.848171711
vt 0.959472656 0.899046123
vt 0.990722656 0.899046123
vt 0.990722656 0.848171711
vt 0.502441406 0.868839443
vt 0.502441406 0.919713855
vt 0.533691406 0.919713855
vt 0.533691406 0.868839443
vt 0.534667969 0.868839443
vt 0.534667969 0.919713855
vt 0.565917969 0.919713855
vt 0.565917969 0.868839443
vt 0.752441406 0.875198722
vt 0.752441406 0.900635958
vt 0.814941406 0.900635958
vt 0.814941406 0.875198722
vt 0.566894531 0.868839443
vt 0.566894531 0.970588207
vt 0.582519531 0.970588207
vt 0.582519531 0.868839443
vt 0.895019531 0.900635958
vt 0.895019531 0.926073134
vt 0.957519531 0.926073134
vt 0.957519531 0.900635958
vt 0.752441406 0.902225733
vt 0.752441406 0.927662969
vt 0.814941406 0.927662969
vt 0.814941406 0.902225733
vt 0.583496094 0.868839443
vt 0.583496094 0.919713855
vt 0.614746094 0.919713855
vt 0.614746094 0.868839443
vt 0.725097656 0.870429277
vt 0.725097656 0.946740866
vt 0.740722656 0.946740866
vt 0.740722656 0.870429277
vt 0.502441406 0.92130363
vt 0.502441406 0.946740866
vt 0.549316406 0.946740866
vt 0.549316406 0.92130363
vt 0.408691406 0.922893465
vt 0.408691406 0.9483307
vt 0.455566406 0.9483307
vt 0.455566406 0.922893465
vt 0.815917969 0.900635958
vt 0.815917969 0.976947546
vt 0.831542969 0.976947546
vt 0.831542969 0.900635958
vt 0.832519531 0.900635958
vt 0.832519531 0.976947546
vt 0.848144531 0.976947546
vt 0.848144531 0.900635958
vt 0.958496094 0.900635958
vt 0.958496094 0.95151031
vt 0.974121094 0.95151031
vt 0.974121094 0.900635958
vt 0.975097656 0.900635958
vt 0.975097656 0.95151031
vt 0.990722656 0.95151031
vt 0.990722656 0.900635958
vt 0.583496094 0.92130363
vt 0.583496094 0.946740866
vt 0.614746094 0.946740866
vt 0.614746094 0.92130363
vt 0.550292969 0.92130363
vt 0.550292969 0.972178042
vt 0.565917969 0.972178042
vt 0.565917969 0.92130363
vt 0.456542969 0.922893465
vt 0.456542969 0.973767877
vt 0.472167969 0.973767877
vt 0.472167969 0.922893465
vt 0.629394531 0.922893465
vt 0.629394531 0.930842638
vt 0.660644531 0.930842638
vt 0.660644531 0.922893465
vt 0.473144531 0.922893465
vt 0.473144531 0.973767877
vt 0.488769531 0.973767877
vt 0.488769531 0.922893465
vt 0.661621094 0.922893465
vt 0.661621094 0.973767877
vt 0.677246094 0.973767877
vt 0.677246094 0.922893465
vt 0.678222656 0.922893465
vt 0.678222656 0.973767877
vt 0.693847656 0.973767877
vt 0.693847656 0.922893465
vt 0.694824219 0.922893465
vt 0.694824219 0.973767877
vt 0.710449219 0.973767877
vt 0.710449219 0.922893465
vt 0.283691406 0.924483299
vt 0.283691406 0.975357711
vt 0.299316406 0.975357711
vt 0.299316406 0.924483299
vt 0.300292969 0.924483299
vt 0.300292969 0.975357711
vt 0.315917969 0.975357711
vt 0.315917969 0.924483299
vt 0.316894531 0.924483299
vt 0.316894531 0.975357711
vt 0.332519531 0.975357711
vt 0.332519531 0.924483299
vt 0.364746094 0.924483299
vt 0.364746094 0.975357711
vt 0.380371094 0.975357711
vt 0.380371094 0.924483299
vt 0.381347656 0.924483299
vt 0.381347656 0.975357711
vt 0.396972656 0.975357711
vt 0.396972656 0.924483299
vt 0.862792969 0.926073134
vt 0.862792969 0.95151031
vt 0.894042969 0.95151031
vt 0.894042969 0.926073134
vt 0.895019531 0.927662969
vt 0.895019531 0.953100145
vt 0.926269531 0.953100145
vt 0.926269531 0.927662969
vt 0.752441406 0.929252803
vt 0.752441406 0.95468998
vt 0.783691406 0.95468998
vt 0.783691406 0.929252803
vt 0.629394531 0.932432413
vt 0.629394531 0.957869649
vt 0.660644531 0.957869649
vt 0.660644531 0.932432413
vt 0.00048828125 0.945151031
vt 0.00048828125 0.970588207
vt 0.0317382812 0.970588207
vt 0.0317382812 0.945151031
vt 0.0327148438 0.945151031
vt 0.0327148438 0.970588207
vt 0.0639648438 0.970588207
vt 0.0639648438 0.945151031
vt 0.927246094 0.927662969
vt 0.927246094 0.978537381
vt 0.942871094 0.978537381
vt 0.942871094 0.927662969
vt 0.784667969 0.929252803
vt 0.784667969 0.980127215
vt 0.800292969 0.980127215
vt 0.800292969 0.929252803
vt 0.0649414062 0.945151031
vt 0.0649414062 0.996025443
vt 0.0805664062 0.996025443
vt 0.0805664062 0.945151031
vt 0.0815429688 0.945151031
vt 0.0815429688 0.996025443
vt 0.0971679688 0.996025443
vt 0.0971679688 0.945151031
vt 0.0981445312 0.945151031
vt 0.0981445312 0.996025443
vt 0.113769531 0.996025443
vt 0.113769531 0.945151031
vt 0.114746094 0.945151031
vt 0.114746094 0.970588207
vt 0.130371094 0.970588207
vt 0.130371094 0.945151031
vt 0.131347656 0.945151031
vt 0.131347656 0.970588207
vt 0.146972656 0.970588207
vt 0.146972656 0.945151031
vt 0.147949219 0.945151031
vt 0.147949219 0.970588207
vt 0.163574219 0.970588207
vt 0.163574219 0.945151031
vt 0.164550781 0.945151031
vt 0.164550781 0.970588207
vt 0.180175781 0.970588207
vt 0.180175781 0.945151031
vt 0.181152344 0.945151031
vt 0.181152344 0.970588207
vt 0.196777344 0.970588207
vt 0.196777344 0.945151031
vt 0.197753906 0.945151031
vt 0.197753906 0.970588207
vt 0.213378906 0.970588207
vt 0.213378906 0.945151031
vt 0.214355469 0.945151031
vt 0.214355469 0.970588207
vt 0.229980469 0.970588207
vt 0.229980469 0.945151031
vt 0.230957031 0.945151031
vt 0.230957031 0.970588207
vt 0.246582031 0.970588207
vt 0.246582031 0.945151031
vt 0.502441406 0.9483307
vt 0.502441406 0.973767877
vt 0.518066406 0.973767877
vt 0.518066406 0.9483307
vt 0.519042969 0.9483307
vt 0.519042969 0.973767877
vt 0.534667969 0.973767877
vt 0.534667969 0.9483307
vt 0.583496094 0.9483307
vt 0.583496094 0.973767877
vt 0.599121094 0.973767877
vt 0.599121094 0.9483307
vt 0.600097656 0.9483307
vt 0.600097656 0.973767877
vt 0.615722656 0.973767877
vt 0.615722656 0.9483307
vt 0.725097656 0.9483307
vt 0.725097656 0.973767877
vt 0.740722656 0.973767877
vt 0.740722656 0.9483307
vt 0.251464844 0.949920535
vt 0.251464844 0.975357711
vt 0.267089844 0.975357711
vt 0.267089844 0.949920535
vt 0.408691406 0.949920535
vt 0.408691406 0.975357711
vt 0.424316406 0.975357711
vt 0.424316406 0.949920535
vt 0.425292969 0.949920535
vt 0.425292969 0.975357711
vt 0.440917969 0.975357711
vt 0.440917969 0.949920535
vt 0.862792969 0.953100145
vt 0.862792969 0.978537381
vt 0.878417969 0.978537381
vt 0.878417969 0.953100145
vt 0.958496094 0.953100145
vt 0.958496094 0.978537381
vt 0.974121094 0.978537381
vt 0.974121094 0.953100145
vt 0.975097656 0.953100145
vt 0.975097656 0.978537381
vt 0.990722656 0.978537381
vt 0.990722656 0.953100145
vt 0.895019531 0.95468998
vt 0.895019531 0.980127215
vt 0.910644531 0.980127215
vt 0.910644531 0.95468998
vt 0.752441406 0.956279814
vt 0.752441406 0.98171699
vt 0.768066406 0.98171699
vt 0.768066406 0.956279814
vt 0.629394531 0.959459484
vt 0.629394531 0.98489666
vt 0.645019531 0.98489666
vt 0.645019531 0.959459484
vt 0.00048828125 0.972178042
vt 0.00048828125 0.997615278
vt 0.0161132812 0.997615278
vt 0.0161132812 0.972178042
vt 0.0170898438 0.972178042
vt 0.0170898438 0.980127215
vt 0.0327148438 0.980127215
vt 0.0327148438 0.972178042
vt 0.0336914062 0.972178042
vt 0.0336914062 0.997615278
vt 0.0493164062 0.997615278
vt 0.0493164062 0.972178042
vt 0.114746094 0.972178042
vt 0.114746094 0.997615278
vt 0.130371094 0.997615278
vt 0.130371094 0.972178042
g haman_5-mesh_0
f 3/3/3 2/2/2 1/1/1
f 1/1/1 4/4/4 3/3/3
f 7/7/7 6/6/6 5/5/5
f 5/5/5 8/8/8 7/7/7
f 11/11/11 10/10/10 9/9/9
f 9/9/9 12/12/12 11/11/11
f 15/15/15 14/14/14 13/13/13
f 13/13/13 16/16/16 15/15/15
f 19/19/19 18/18/18 17/17/17
f 17/17/17 20/20/20 19/19/19
f 23/23/23 22/22/22 21/21/21
f 21/21/21 24/24/24 23/23/23
f 27/27/27 26/26/26 25/25/25
f 25/25/25 28/28/28 27/27/27
f 31/31/31 30/30/30 29/29/29
f 29/29/29 32/32/32 31/31/31
f 35/35/35 34/34/34 33/33/33
f 33/33/33 36/36/36 35/35/35
f 39/39/39 38/38/38 37/37/37
f 37/37/37 40/40/40 39/39/39
f 43/43/43 42/42/42 41/41/41
f 41/41/41 44/44/44 43/43/43
f 47/47/47 46/46/46 45/45/45
f 45/45/45 48/48/48 47/47/47
f 51/51/51 50/50/50 49/49/49
f 49/49/49 52/52/52 51/51/51
f 55/55/55 54/54/54 53/53/53
f 53/53/53 56/56/56 55/55/55
f 59/59/59 58/58/58 57/57/57
f 57/57/57 60/60/60 59/59/59
f 63/63/63 62/62/62 61/61/61
f 61/61/61 64/64/64 63/63/63
f 67/67/67 66/66/66 65/65/65
f 65/65/65 68/68/68 67/67/67
f 71/71/71 70/70/70 69/69/69
f 69/69/69 72/72/72 71/71/71
f 75/75/75 74/74/74 73/73/73
f 73/73/73 76/76/76 75/75/75
f 79/79/79 78/78/78 77/77/77
f 77/77/77 80/80/80 79/79/79
f 83/83/83 82/82/82 81/81/81
f 81/81/81 84/84/84 83/83/83
f 87/87/87 86/86/86 85/85/85
f 85/85/85 88/88/88 87/87/87
f 91/91/91 90/90/90 89/89/89
f 89/89/89 92/92/92 91/91/91
f 95/95/95 94/94/94 93/93/93
f 93/93/93 96/96/96 95/95/95
f 99/99/99 98/98/98 97/97/97
f 97/97/97 100/100/100 99/99/99
f 103/103/103 102/102/102 101/101/101
f 101/101/101 104/104/104 103/103/103
f 107/107/107 106/106/106 105/105/105
f 105/105/105 108/108/108 107/107/107
f 111/111/111 110/110/110 109/109/109
f 109/109/109 112/112/112 111/111/111
f 115/115/115 114/114/114 113/113/113
f 113/113/113 116/116/116 115/115/115
f 119/119/119 118/118/118 117/117/117
f 117/117/117 120/120/120 119/119/119
f 123/123/123 122/122/122 121/121/121
f 121/121/121 124/124/124 123/123/123
f 127/127/127 126/126/126 125/125/125
f 125/125/125 128/128/128 127/127/127
f 131/131/131 130/130/130 129/129/129
f 129/129/129 132/132/132 131/131/131
f 135/135/135 134/134/134 133/133/133
f 133/133/133 136/136/136 135/135/135
f 139/139/139 138/138/138 137/137/137
f 137/137/137 140/140/140 139/139/139
f 143/143/143 142/142/142 141/141/141
f 141/141/141 144/144/144 143/143/143
f 147/147/147 146/146/146 145/145/145
f 145/145/145 148/148/148 147/147/147
f 151/151/151 150/150/150 149/149/149
f 149/149/149 152/152/152 151/151/151
f 155/155/155 154/154/154 153/153/153
f 153/153/153 156/156/156 155/155/155
f 159/159/159 158/158/158 157/157/157
f 157/157/157 160/160/160 159/159/159
f 163/163/163 162/162/162 161/161/161
f 161/161/161 164/164/164 163/163/163
f 167/167/167 166/166/166 165/165/165
f 165/165/165 168/168/168 167/167/167
f 171/171/171 170/170/170 169/169/169
f 169/169/169 172/172/172 171/171/171
f 175/175/175 174/174/174 173/173/173
f 173/173/173 176/176/176 175/175/175
f 179/179/179 178/178/178 177/177/177
f 177/177/177 180/180/180 179/179/179
f 183/183/183 182/182/182 181/181/181
f 181/181/181 184/184/184 183/183/183
f 187/187/187 186/186/186 185/185/185
f 185/185/185 188/188/188 187/187/187
f 191/191/191 190/190/190 189/189/189
f 189/189/189 192/192/192 191/191/191
f 195/195/195 194/194/194 193/193/193
f 193/193/193 196/196/196 195/195/195
f 199/199/199 198/198/198 197/197/197
f 197/197/197 200/200/200 199/199/199
f 203/203/203 202/202/202 201/201/201
f 201/201/201 204/204/204 203/203/203
f 207/207/207 206/206/206 205/205/205
f 205/205/205 208/208/208 207/207/207
f 211/211/211 210/210/210 209/209/209
f 209/209/209 212/212/212 211/211/211
f 215/215/215 214/214/214 213/213/213
f 213/213/213 216/216/216 215/215/215
f 219/219/219 218/218/218 217/217/217
f 217/217/217 220/220/220 219/219/219
f 223/223/223 222/222/222 221/221/221
f 221/221/221 224/224/224 223/223/223
f 227/227/227 226/226/226 225/225/225
f 225/225/225 228/228/228 227/227/227
f 231/231/231 230/230/230 229/229/229
f 229/229/229 232/232/232 231/231/231
f 235/235/235 234/234/234 233/233/233
f 233/233/233 236/236/236 235/235/235
f 239/239/239 238/238/238 237/237/237
f 237/237/237 240/240/240 239/239/239
f 243/243/243 242/242/242 241/241/241
f 241/241/241 244/244/244 243/243/243
f 247/247/247 246/246/246 245/245/245
f 245/245/245 248/248/248 247/247/247
f 251/251/251 250/250/250 249/249/249
f 249/249/249 252/252/252 251/251/251
f 255/255/255 254/254/254 253/253/253
f 253/253/253 256/256/256 255/255/255
f 259/259/259 258/258/258 257/257/257
f 257/257/257 260/260/260 259/259/259
f 263/263/263 262/262/262 261/261/261
f 261/261/261 264/264/264 263/263/263
f 267/267/267 266/266/266 265/265/265
f 265/265/265 268/268/268 267/267/267
f 271/271/271 270/270/270 269/269/269
f 269/269/269 272/272/272 271/271/271
f 275/275/275 274/274/274 273/273/273
f 273/273/273 276/276/276 275/275/275
f 279/279/279 278/278/278 277/277/277
f 277/277/277 280/280/280 279/279/279
f 283/283/283 282/282/282 281/281/281
f 281/281/281 284/284/284 283/283/283
f 287/287/287 286/286/286 285/285/285
f 285/285/285 288/288/288 287/287/287
f 291/291/291 290/290/290 289/289/289
f 289/289/289 292/292/292 291/291/291
f 295/295/295 294/294/294 293/293/293
f 293/293/293 296/296/296 295/295/295
f 299/299/299 298/298/298 297/297/297
f 297/297/297 300/300/300 299/299/299
f 303/303/303 302/302/302 301/301/301
f 301/301/301 304/304/304 303/303/303
f 307/307/307 306/306/306 305/305/305
f 305/305/305 308/308/308 307/307/307
f 311/311/311 310/310/310 309/309/309
f 309/309/309 312/312/312 311/311/311
f 315/315/315 314/314/314 313/313/313
f 313/313/313 316/316/316 315/315/315
f 319/319/319 318/318/318 317/317/317
f 317/317/317 320/320/320 319/319/319
f 323/323/323 322/322/322 321/321/321
f 321/321/321 324/324/324 323/323/323
f 327/327/327 326/326/326 325/325/325
f 325/325/325 328/328/328 327/327/327
f 331/331/331 330/330/330 329/329/329
f 329/329/329 332/332/332 331/331/331
f 335/335/335 334/334/334 333/333/333
f 333/333/333 336/336/336 335/335/335
f 339/339/339 338/338/338 337/337/337
f 337/337/337 340/340/340 339/339/339
f 343/343/343 342/342/342 341/341/341
f 341/341/341 344/344/344 343/343/343
f 347/347/347 346/346/346 345/345/345
f 345/345/345 348/348/348 347/347/347
f 351/351/351 350/350/350 349/349/349
f 349/349/349 352/352/352 351/351/351
f 355/355/355 354/354/354 353/353/353
f 353/353/353 356/356/356 355/355/355
f 359/359/359 358/358/358 357/357/357
f 357/357/357 360/360/360 359/359/359
f 363/363/363 362/362/362 361/361/361
f 361/361/361 364/364/364 363/363/363
f 367/367/367 366/366/366 365/365/365
f 365/365/365 368/368/368 367/367/367
f 371/371/371 370/370/370 369/369/369
f 369/369/369 372/372/372 371/371/371
f 375/375/375 374/374/374 373/373/373
f 373/373/373 376/376/376 375/375/375
f 379/379/379 378/378/378 377/377/377
f 377/377/377 380/380/380 379/379/379
f 383/383/383 382/382/382 381/381/381
f 381/381/381 384/384/384 383/383/383
f 387/387/387 386/386/386 385/385/385
f 385/385/385 388/388/388 387/387/387
f 391/391/391 390/390/390 389/389/389
f 389/389/389 392/392/392 391/391/391
f 395/395/395 394/394/394 393/393/393
f 393/393/393 396/396/396 395/395/395
f 399/399/399 398/398/398 397/397/397
f 397/397/397 400/400/400 399/399/399
f 403/403/403 402/402/402 401/401/401
f 401/401/401 404/404/404 403/403/403
