g adiliao_2_bj-mesh
v -512 983 0
v -512 1143 0
v -721 1143 0
v -721 983 0
v -640 1143 0
v -640 1239 0
v -721 1239 0
v -721 1143 0
v -0 0 0
v -0 55 0
v -96 55 0
v -96 0 0
v -608 631 0
v -608 791 0
v -640 791 0
v -640 631 0
v -608 503 0
v -608 631 0
v -640 631 0
v -640 503 0
v -640 727 0
v -640 855 0
v -672 855 0
v -672 727 0
v -640 855 0
v -640 983 0
v -672 983 0
v -672 855 0
v -64 55 0
v -64 87 0
v -160 87 0
v -160 55 0
v -576 439 0
v -576 535 0
v -608 535 0
v -608 439 0
v -576 343 0
v -576 439 0
v -608 439 0
v -608 343 0
v -576 1207 0
v -576 1239 0
v -640 1239 0
v -640 1207 0
v -544 1143 0
v -544 1175 0
v -608 1175 0
v -608 1143 0
v -544 247 0
v -544 311 0
v -576 311 0
v -576 247 0
v -160 55 0
v -160 87 0
v -224 87 0
v -224 55 0
v -544 311 0
v -544 375 0
v -576 375 0
v -576 311 0
v -512 247 0
v -512 279 0
v -544 279 0
v -544 247 0
v -192 87 0
v -192 119 0
v -224 119 0
v -224 87 0
v -608 1175 0
v -608 1207 0
v -640 1207 0
v -640 1175 0
v -608 951 0
v -608 983 0
v -640 983 0
v -640 951 0
vt 0.001953125 0.00450450182
vt 0.001953125 0.72522521
vt 0.412109375 0.72522521
vt 0.412109375 0.00450450182
vt 0.416015625 0.00450450182
vt 0.416015625 0.436936915
vt 0.576171875 0.436936915
vt 0.576171875 0.00450450182
vt 0.580078125 0.00450450182
vt 0.580078125 0.256756783
vt 0.767578125 0.256756783
vt 0.767578125 0.00450450182
vt 0.771484375 0.00450450182
vt 0.771484375 0.72522521
vt 0.833984375 0.72522521
vt 0.833984375 0.00450450182
vt 0.837890625 0.00450450182
vt 0.837890625 0.581081092
vt 0.900390625 0.581081092
vt 0.900390625 0.00450450182
vt 0.904296875 0.00450450182
vt 0.904296875 0.581081092
vt 0.966796875 0.581081092
vt 0.966796875 0.00450450182
vt 0.580078125 0.265765786
vt 0.580078125 0.842342377
vt 0.642578125 0.842342377
vt 0.642578125 0.265765786
vt 0.001953125 0.734234214
vt 0.001953125 0.878378391
vt 0.189453125 0.878378391
vt 0.189453125 0.734234214
vt 0.646484375 0.265765786
vt 0.646484375 0.698198199
vt 0.708984375 0.698198199
vt 0.708984375 0.265765786
vt 0.416015625 0.445945919
vt 0.416015625 0.878378391
vt 0.478515625 0.878378391
vt 0.478515625 0.445945919
vt 0.837890625 0.590090096
vt 0.837890625 0.734234214
vt 0.962890625 0.734234214
vt 0.962890625 0.590090096
vt 0.193359375 0.734234214
vt 0.193359375 0.878378391
vt 0.318359375 0.878378391
vt 0.318359375 0.734234214
vt 0.482421875 0.445945919
vt 0.482421875 0.734234214
vt 0.544921875 0.734234214
vt 0.544921875 0.445945919
vt 0.837890625 0.743243217
vt 0.837890625 0.887387395
vt 0.962890625 0.887387395
vt 0.962890625 0.743243217
vt 0.646484375 0.707207203
vt 0.646484375 0.995495498
vt 0.708984375 0.995495498
vt 0.708984375 0.707207203
vt 0.322265625 0.734234214
vt 0.322265625 0.878378391
vt 0.384765625 0.878378391
vt 0.384765625 0.734234214
vt 0.771484375 0.734234214
vt 0.771484375 0.878378391
vt 0.833984375 0.878378391
vt 0.833984375 0.734234214
vt 0.482421875 0.743243217
vt 0.482421875 0.887387395
vt 0.544921875 0.887387395
vt 0.544921875 0.743243217
vt 0.580078125 0.85135138
vt 0.580078125 0.995495498
vt 0.642578125 0.995495498
vt 0.642578125 0.85135138
g adiliao_2_bj-mesh_0
f 3/3/3 2/2/2 1/1/1
f 1/1/1 4/4/4 3/3/3
f 7/7/7 6/6/6 5/5/5
f 5/5/5 8/8/8 7/7/7
f 11/11/11 10/10/10 9/9/9
f 9/9/9 12/12/12 11/11/11
f 15/15/15 14/14/14 13/13/13
f 13/13/13 16/16/16 15/15/15
f 19/19/19 18/18/18 17/17/17
f 17/17/17 20/20/20 19/19/19
f 23/23/23 22/22/22 21/21/21
f 21/21/21 24/24/24 23/23/23
f 27/27/27 26/26/26 25/25/25
f 25/25/25 28/28/28 27/27/27
f 31/31/31 30/30/30 29/29/29
f 29/29/29 32/32/32 31/31/31
f 35/35/35 34/34/34 33/33/33
f 33/33/33 36/36/36 35/35/35
f 39/39/39 38/38/38 37/37/37
f 37/37/37 40/40/40 39/39/39
f 43/43/43 42/42/42 41/41/41
f 41/41/41 44/44/44 43/43/43
f 47/47/47 46/46/46 45/45/45
f 45/45/45 48/48/48 47/47/47
f 51/51/51 50/50/50 49/49/49
f 49/49/49 52/52/52 51/51/51
f 55/55/55 54/54/54 53/53/53
f 53/53/53 56/56/56 55/55/55
f 59/59/59 58/58/58 57/57/57
f 57/57/57 60/60/60 59/59/59
f 63/63/63 62/62/62 61/61/61
f 61/61/61 64/64/64 63/63/63
f 67/67/67 66/66/66 65/65/65
f 65/65/65 68/68/68 67/67/67
f 71/71/71 70/70/70 69/69/69
f 69/69/69 72/72/72 71/71/71
f 75/75/75 74/74/74 73/73/73
f 73/73/73 76/76/76 75/75/75
