g qibolin_3_rw-mesh
v -800 169 0
v -800 1033 0
v -1312 1033 0
v -1312 169 0
v -1312 169 0
v -1312 1033 0
v -1792 1033 0
v -1792 169 0
v -256 361 0
v -256 809 0
v -544 809 0
v -544 361 0
v -544 361 0
v -544 809 0
v -800 809 0
v -800 361 0
v -1376 1033 0
v -1376 1321 0
v -1696 1321 0
v -1696 1033 0
v -1792 457 0
v -1792 745 0
v -1920 745 0
v -1920 457 0
v -1792 201 0
v -1792 457 0
v -1920 457 0
v -1920 201 0
v -864 1033 0
v -864 1161 0
v -1088 1161 0
v -1088 1033 0
v -32 297 0
v -32 425 0
v -256 425 0
v -256 297 0
v -928 73 0
v -928 169 0
v -1216 169 0
v -1216 73 0
v -1216 73 0
v -1216 169 0
v -1504 169 0
v -1504 73 0
v -1120 1033 0
v -1120 1193 0
v -1280 1193 0
v -1280 1033 0
v -672 201 0
v -672 361 0
v -800 361 0
v -800 201 0
v -1920 201 0
v -1920 329 0
v -2047 329 0
v -2047 201 0
v -672 809 0
v -672 937 0
v -800 937 0
v -800 809 0
v -1792 745 0
v -1792 841 0
v -1888 841 0
v -1888 745 0
v -928 1161 0
v -928 1225 0
v -1056 1225 0
v -1056 1161 0
v -1312 1033 0
v -1312 1129 0
v -1376 1129 0
v -1376 1033 0
v -832 73 0
v -832 169 0
v -896 169 0
v -896 73 0
v -1312 1129 0
v -1312 1225 0
v -1376 1225 0
v -1376 1129 0
v -192 553 0
v -192 649 0
v -256 649 0
v -256 553 0
v -192 649 0
v -192 745 0
v -256 745 0
v -256 649 0
v -1696 1033 0
v -1696 1097 0
v -1792 1097 0
v -1792 1033 0
v -1184 41 0
v -1184 73 0
v -1344 73 0
v -1344 41 0
v -384 809 0
v -384 841 0
v -544 841 0
v -544 809 0
v -480 841 0
v -480 905 0
v -544 905 0
v -544 841 0
v -1632 137 0
v -1632 169 0
v -1760 169 0
v -1760 137 0
v -1504 137 0
v -1504 169 0
v -1632 169 0
v -1632 137 0
v -544 809 0
v -544 841 0
v -672 841 0
v -672 809 0
v -1792 1033 0
v -1792 1097 0
v -1856 1097 0
v -1856 1033 0
v -1344 41 0
v -1344 73 0
v -1472 73 0
v -1472 41 0
v -1920 617 0
v -1920 713 0
v -1952 713 0
v -1952 617 0
v -1440 1321 0
v -1440 1353 0
v -1536 1353 0
v -1536 1321 0
v -1920 425 0
v -1920 521 0
v -1952 521 0
v -1952 425 0
v -1920 329 0
v -1920 425 0
v -1952 425 0
v -1952 329 0
v -1184 9 0
v -1184 41 0
v -1248 41 0
v -1248 9 0
v -832 1033 0
v -832 1097 0
v -864 1097 0
v -864 1033 0
v -1728 1097 0
v -1728 1161 0
v -1760 1161 0
v -1760 1097 0
v -1632 105 0
v -1632 137 0
v -1696 137 0
v -1696 105 0
v -704 137 0
v -704 201 0
v -736 201 0
v -736 137 0
v -128 265 0
v -128 297 0
v -192 297 0
v -192 265 0
v -1504 105 0
v -1504 137 0
v -1568 137 0
v -1568 105 0
v -1792 169 0
v -1792 201 0
v -1856 201 0
v -1856 169 0
v -256 297 0
v -256 361 0
v -288 361 0
v -288 297 0
v -1952 489 0
v -1952 521 0
v -2016 521 0
v -2016 489 0
v -1568 73 0
v -1568 105 0
v -1632 105 0
v -1632 73 0
v -736 169 0
v -736 201 0
v -800 201 0
v -800 169 0
v -256 809 0
v -256 873 0
v -288 873 0
v -288 809 0
v -672 937 0
v -672 969 0
v -736 969 0
v -736 937 0
v -224 745 0
v -224 809 0
v -256 809 0
v -256 745 0
v -1888 809 0
v -1888 841 0
v -1952 841 0
v -1952 809 0
v -160 649 0
v -160 713 0
v -192 713 0
v -192 649 0
v -160 713 0
v -160 777 0
v -192 777 0
v -192 713 0
v -0 393 0
v -0 457 0
v -32 457 0
v -32 393 0
v -1280 1065 0
v -1280 1129 0
v -1312 1129 0
v -1312 1065 0
v -0 329 0
v -0 393 0
v -32 393 0
v -32 329 0
v -1696 1161 0
v -1696 1225 0
v -1728 1225 0
v -1728 1161 0
v -1920 553 0
v -1920 617 0
v -1952 617 0
v -1952 553 0
v -1696 1097 0
v -1696 1161 0
v -1728 1161 0
v -1728 1097 0
v -1792 841 0
v -1792 905 0
v -1824 905 0
v -1824 841 0
v -1792 905 0
v -1792 969 0
v -1824 969 0
v -1824 905 0
v -352 841 0
v -352 873 0
v -416 873 0
v -416 841 0
v -1536 1321 0
v -1536 1353 0
v -1600 1353 0
v -1600 1321 0
v -576 841 0
v -576 873 0
v -640 873 0
v -640 841 0
v -224 425 0
v -224 457 0
v -256 457 0
v -256 425 0
v -288 329 0
v -288 361 0
v -320 361 0
v -320 329 0
v -352 873 0
v -352 905 0
v -384 905 0
v -384 873 0
v -32 425 0
v -32 457 0
v -64 457 0
v -64 425 0
v -1824 841 0
v -1824 873 0
v -1856 873 0
v -1856 841 0
v -1824 905 0
v -1824 937 0
v -1856 937 0
v -1856 905 0
v -1984 457 0
v -1984 489 0
v -2016 489 0
v -2016 457 0
v -864 41 0
v -864 73 0
v -896 73 0
v -896 41 0
v -960 41 0
v -960 73 0
v -992 73 0
v -992 41 0
v -1952 329 0
v -1952 361 0
v -1984 361 0
v -1984 329 0
v -736 105 0
v -736 137 0
v -768 137 0
v -768 105 0
v -896 137 0
v -896 169 0
v -928 169 0
v -928 137 0
v -1248 0 0
v -1248 9 0
v -1280 9 0
v -1280 0 0
v -1600 41 0
v -1600 73 0
v -1632 73 0
v -1632 41 0
v -1344 9 0
v -1344 41 0
v -1376 41 0
v -1376 9 0
v -480 905 0
v -480 937 0
v -512 937 0
v -512 905 0
v -1568 105 0
v -1568 137 0
v -1600 137 0
v -1600 105 0
v -1280 1033 0
v -1280 1065 0
v -1312 1065 0
v -1312 1033 0
v -1696 105 0
v -1696 137 0
v -1728 137 0
v -1728 105 0
v -1856 169 0
v -1856 201 0
v -1888 201 0
v -1888 169 0
v -192 265 0
v -192 297 0
v -224 297 0
v -224 265 0
v -704 105 0
v -704 137 0
v -736 137 0
v -736 105 0
v -416 841 0
v -416 873 0
v -448 873 0
v -448 841 0
v -1248 9 0
v -1248 41 0
v -1280 41 0
v -1280 9 0
v -1088 1033 0
v -1088 1065 0
v -1120 1065 0
v -1120 1033 0
v -1792 1001 0
v -1792 1033 0
v -1824 1033 0
v -1824 1001 0
v -768 937 0
v -768 969 0
v -800 969 0
v -800 937 0
v -1760 1097 0
v -1760 1129 0
v -1792 1129 0
v -1792 1097 0
v -640 841 0
v -640 873 0
v -672 873 0
v -672 841 0
v -1344 1225 0
v -1344 1257 0
v -1376 1257 0
v -1376 1225 0
v -896 1161 0
v -896 1193 0
v -928 1193 0
v -928 1161 0
vt 0.00048828125 0.00113636255
vt 0.00048828125 0.982954562
vt 0.250488281 0.982954562
vt 0.250488281 0.00113636255
vt 0.251464844 0.00113636255
vt 0.251464844 0.982954562
vt 0.485839844 0.982954562
vt 0.485839844 0.00113636255
vt 0.486816406 0.00113636255
vt 0.486816406 0.510227263
vt 0.627441406 0.510227263
vt 0.627441406 0.00113636255
vt 0.628417969 0.00113636255
vt 0.628417969 0.510227263
vt 0.753417969 0.510227263
vt 0.753417969 0.00113636255
vt 0.754394531 0.00113636255
vt 0.754394531 0.328409076
vt 0.910644531 0.328409076
vt 0.910644531 0.00113636255
vt 0.911621094 0.00113636255
vt 0.911621094 0.328409076
vt 0.974121094 0.328409076
vt 0.974121094 0.00113636255
vt 0.754394531 0.330681801
vt 0.754394531 0.621590912
vt 0.816894531 0.621590912
vt 0.816894531 0.330681801
vt 0.817871094 0.330681801
vt 0.817871094 0.476136386
vt 0.927246094 0.476136386
vt 0.927246094 0.330681801
vt 0.817871094 0.478409111
vt 0.817871094 0.623863637
vt 0.927246094 0.623863637
vt 0.927246094 0.478409111
vt 0.486816406 0.512499988
vt 0.486816406 0.621590912
vt 0.627441406 0.621590912
vt 0.627441406 0.512499988
vt 0.486816406 0.623863637
vt 0.486816406 0.732954502
vt 0.627441406 0.732954502
vt 0.627441406 0.623863637
vt 0.628417969 0.512499988
vt 0.628417969 0.694318175
vt 0.706542969 0.694318175
vt 0.706542969 0.512499988
vt 0.928222656 0.330681801
vt 0.928222656 0.512499988
vt 0.990722656 0.512499988
vt 0.990722656 0.330681801
vt 0.928222656 0.514772713
vt 0.928222656 0.660227299
vt 0.990722656 0.660227299
vt 0.990722656 0.514772713
vt 0.754394531 0.623863637
vt 0.754394531 0.769318163
vt 0.816894531 0.769318163
vt 0.816894531 0.623863637
vt 0.817871094 0.626136363
vt 0.817871094 0.735227287
vt 0.864746094 0.735227287
vt 0.864746094 0.626136363
vt 0.928222656 0.662500024
vt 0.928222656 0.735227287
vt 0.990722656 0.735227287
vt 0.990722656 0.662500024
vt 0.707519531 0.512499988
vt 0.707519531 0.621590912
vt 0.738769531 0.621590912
vt 0.738769531 0.512499988
vt 0.707519531 0.623863637
vt 0.707519531 0.732954502
vt 0.738769531 0.732954502
vt 0.738769531 0.623863637
vt 0.865722656 0.626136363
vt 0.865722656 0.735227287
vt 0.896972656 0.735227287
vt 0.896972656 0.626136363
vt 0.628417969 0.6965909
vt 0.628417969 0.805681825
vt 0.659667969 0.805681825
vt 0.659667969 0.6965909
vt 0.660644531 0.6965909
vt 0.660644531 0.805681825
vt 0.691894531 0.805681825
vt 0.691894531 0.6965909
vt 0.486816406 0.735227287
vt 0.486816406 0.80795455
vt 0.533691406 0.80795455
vt 0.533691406 0.735227287
vt 0.534667969 0.735227287
vt 0.534667969 0.771590889
vt 0.612792969 0.771590889
vt 0.612792969 0.735227287
vt 0.817871094 0.737500012
vt 0.817871094 0.773863673
vt 0.895996094 0.773863673
vt 0.895996094 0.737500012
vt 0.707519531 0.735227287
vt 0.707519531 0.80795455
vt 0.738769531 0.80795455
vt 0.738769531 0.735227287
vt 0.896972656 0.737500012
vt 0.896972656 0.773863673
vt 0.959472656 0.773863673
vt 0.959472656 0.737500012
vt 0.754394531 0.771590889
vt 0.754394531 0.80795455
vt 0.816894531 0.80795455
vt 0.816894531 0.771590889
vt 0.534667969 0.773863673
vt 0.534667969 0.810227275
vt 0.597167969 0.810227275
vt 0.597167969 0.773863673
vt 0.960449219 0.737500012
vt 0.960449219 0.810227275
vt 0.991699219 0.810227275
vt 0.991699219 0.737500012
vt 0.817871094 0.776136398
vt 0.817871094 0.8125
vt 0.880371094 0.8125
vt 0.880371094 0.776136398
vt 0.598144531 0.773863673
vt 0.598144531 0.882954538
vt 0.613769531 0.882954538
vt 0.613769531 0.773863673
vt 0.881347656 0.776136398
vt 0.881347656 0.8125
vt 0.928222656 0.8125
vt 0.928222656 0.776136398
vt 0.929199219 0.776136398
vt 0.929199219 0.885227263
vt 0.944824219 0.885227263
vt 0.944824219 0.776136398
vt 0.628417969 0.80795455
vt 0.628417969 0.917045474
vt 0.644042969 0.917045474
vt 0.644042969 0.80795455
vt 0.645019531 0.80795455
vt 0.645019531 0.844318151
vt 0.676269531 0.844318151
vt 0.676269531 0.80795455
vt 0.677246094 0.80795455
vt 0.677246094 0.880681813
vt 0.692871094 0.880681813
vt 0.692871094 0.80795455
vt 0.486816406 0.810227275
vt 0.486816406 0.882954538
vt 0.502441406 0.882954538
vt 0.502441406 0.810227275
vt 0.707519531 0.810227275
vt 0.707519531 0.846590877
vt 0.738769531 0.846590877
vt 0.738769531 0.810227275
vt 0.503417969 0.810227275
vt 0.503417969 0.882954538
vt 0.519042969 0.882954538
vt 0.519042969 0.810227275
vt 0.754394531 0.810227275
vt 0.754394531 0.846590877
vt 0.785644531 0.846590877
vt 0.785644531 0.810227275
vt 0.534667969 0.8125
vt 0.534667969 0.848863602
vt 0.565917969 0.848863602
vt 0.565917969 0.8125
vt 0.960449219 0.8125
vt 0.960449219 0.848863602
vt 0.991699219 0.848863602
vt 0.991699219 0.8125
vt 0.786621094 0.810227275
vt 0.786621094 0.882954538
vt 0.802246094 0.882954538
vt 0.802246094 0.810227275
vt 0.817871094 0.814772725
vt 0.817871094 0.851136327
vt 0.849121094 0.851136327
vt 0.849121094 0.814772725
vt 0.850097656 0.814772725
vt 0.850097656 0.851136327
vt 0.881347656 0.851136327
vt 0.881347656 0.814772725
vt 0.882324219 0.814772725
vt 0.882324219 0.851136327
vt 0.913574219 0.851136327
vt 0.913574219 0.814772725
vt 0.566894531 0.8125
vt 0.566894531 0.885227263
vt 0.582519531 0.885227263
vt 0.582519531 0.8125
vt 0.645019531 0.846590877
vt 0.645019531 0.882954538
vt 0.676269531 0.882954538
vt 0.676269531 0.846590877
vt 0.707519531 0.848863602
vt 0.707519531 0.921590924
vt 0.723144531 0.921590924
vt 0.723144531 0.848863602
vt 0.724121094 0.848863602
vt 0.724121094 0.885227263
vt 0.755371094 0.885227263
vt 0.755371094 0.848863602
vt 0.756347656 0.848863602
vt 0.756347656 0.921590924
vt 0.771972656 0.921590924
vt 0.771972656 0.848863602
vt 0.534667969 0.851136327
vt 0.534667969 0.923863649
vt 0.550292969 0.923863649
vt 0.550292969 0.851136327
vt 0.960449219 0.851136327
vt 0.960449219 0.923863649
vt 0.976074219 0.923863649
vt 0.976074219 0.851136327
vt 0.977050781 0.851136327
vt 0.977050781 0.923863649
vt 0.992675781 0.923863649
vt 0.992675781 0.851136327
vt 0.817871094 0.853409111
vt 0.817871094 0.926136374
vt 0.833496094 0.926136374
vt 0.833496094 0.853409111
vt 0.834472656 0.853409111
vt 0.834472656 0.926136374
vt 0.850097656 0.926136374
vt 0.850097656 0.853409111
vt 0.851074219 0.853409111
vt 0.851074219 0.926136374
vt 0.866699219 0.926136374
vt 0.866699219 0.853409111
vt 0.867675781 0.853409111
vt 0.867675781 0.926136374
vt 0.883300781 0.926136374
vt 0.883300781 0.853409111
vt 0.884277344 0.853409111
vt 0.884277344 0.926136374
vt 0.899902344 0.926136374
vt 0.899902344 0.853409111
vt 0.900878906 0.853409111
vt 0.900878906 0.926136374
vt 0.916503906 0.926136374
vt 0.916503906 0.853409111
vt 0.486816406 0.885227263
vt 0.486816406 0.921590924
vt 0.518066406 0.921590924
vt 0.518066406 0.885227263
vt 0.645019531 0.885227263
vt 0.645019531 0.921590924
vt 0.676269531 0.921590924
vt 0.676269531 0.885227263
vt 0.566894531 0.887499988
vt 0.566894531 0.923863649
vt 0.598144531 0.923863649
vt 0.598144531 0.887499988
vt 0.677246094 0.882954538
vt 0.677246094 0.919318199
vt 0.692871094 0.919318199
vt 0.692871094 0.882954538
vt 0.599121094 0.885227263
vt 0.599121094 0.921590924
vt 0.614746094 0.921590924
vt 0.614746094 0.885227263
vt 0.786621094 0.885227263
vt 0.786621094 0.921590924
vt 0.802246094 0.921590924
vt 0.802246094 0.885227263
vt 0.724121094 0.887499988
vt 0.724121094 0.923863649
vt 0.739746094 0.923863649
vt 0.739746094 0.887499988
vt 0.929199219 0.887499988
vt 0.929199219 0.923863649
vt 0.944824219 0.923863649
vt 0.944824219 0.887499988
vt 0.628417969 0.919318199
vt 0.628417969 0.955681801
vt 0.644042969 0.955681801
vt 0.644042969 0.919318199
vt 0.677246094 0.921590924
vt 0.677246094 0.957954526
vt 0.692871094 0.957954526
vt 0.692871094 0.921590924
vt 0.486816406 0.923863649
vt 0.486816406 0.960227251
vt 0.502441406 0.960227251
vt 0.502441406 0.923863649
vt 0.503417969 0.923863649
vt 0.503417969 0.960227251
vt 0.519042969 0.960227251
vt 0.519042969 0.923863649
vt 0.599121094 0.923863649
vt 0.599121094 0.960227251
vt 0.614746094 0.960227251
vt 0.614746094 0.923863649
vt 0.645019531 0.923863649
vt 0.645019531 0.960227251
vt 0.660644531 0.960227251
vt 0.660644531 0.923863649
vt 0.707519531 0.923863649
vt 0.707519531 0.960227251
vt 0.723144531 0.960227251
vt 0.723144531 0.923863649
vt 0.756347656 0.923863649
vt 0.756347656 0.935227275
vt 0.771972656 0.935227275
vt 0.771972656 0.923863649
vt 0.786621094 0.923863649
vt 0.786621094 0.960227251
vt 0.802246094 0.960227251
vt 0.802246094 0.923863649
vt 0.534667969 0.926136374
vt 0.534667969 0.962499976
vt 0.550292969 0.962499976
vt 0.550292969 0.926136374
vt 0.566894531 0.926136374
vt 0.566894531 0.962499976
vt 0.582519531 0.962499976
vt 0.582519531 0.926136374
vt 0.724121094 0.926136374
vt 0.724121094 0.962499976
vt 0.739746094 0.962499976
vt 0.739746094 0.926136374
vt 0.929199219 0.926136374
vt 0.929199219 0.962499976
vt 0.944824219 0.962499976
vt 0.944824219 0.926136374
vt 0.960449219 0.926136374
vt 0.960449219 0.962499976
vt 0.976074219 0.962499976
vt 0.976074219 0.926136374
vt 0.977050781 0.926136374
vt 0.977050781 0.962499976
vt 0.992675781 0.962499976
vt 0.992675781 0.926136374
vt 0.817871094 0.9284091
vt 0.817871094 0.964772701
vt 0.833496094 0.964772701
vt 0.833496094 0.9284091
vt 0.834472656 0.9284091
vt 0.834472656 0.964772701
vt 0.850097656 0.964772701
vt 0.850097656 0.9284091
vt 0.851074219 0.9284091
vt 0.851074219 0.964772701
vt 0.866699219 0.964772701
vt 0.866699219 0.9284091
vt 0.867675781 0.9284091
vt 0.867675781 0.964772701
vt 0.883300781 0.964772701
vt 0.883300781 0.9284091
vt 0.884277344 0.9284091
vt 0.884277344 0.964772701
vt 0.899902344 0.964772701
vt 0.899902344 0.9284091
vt 0.900878906 0.9284091
vt 0.900878906 0.964772701
vt 0.916503906 0.964772701
vt 0.916503906 0.9284091
vt 0.756347656 0.9375
vt 0.756347656 0.973863661
vt 0.771972656 0.973863661
vt 0.771972656 0.9375
vt 0.628417969 0.957954526
vt 0.628417969 0.994318187
vt 0.644042969 0.994318187
vt 0.644042969 0.957954526
vt 0.677246094 0.960227251
vt 0.677246094 0.996590912
vt 0.692871094 0.996590912
vt 0.692871094 0.960227251
vt 0.486816406 0.962499976
vt 0.486816406 0.998863637
vt 0.502441406 0.998863637
vt 0.502441406 0.962499976
vt 0.503417969 0.962499976
vt 0.503417969 0.998863637
vt 0.519042969 0.998863637
vt 0.519042969 0.962499976
g qibolin_3_rw-mesh_0
f 3/3/3 2/2/2 1/1/1
f 1/1/1 4/4/4 3/3/3
f 7/7/7 6/6/6 5/5/5
f 5/5/5 8/8/8 7/7/7
f 11/11/11 10/10/10 9/9/9
f 9/9/9 12/12/12 11/11/11
f 15/15/15 14/14/14 13/13/13
f 13/13/13 16/16/16 15/15/15
f 19/19/19 18/18/18 17/17/17
f 17/17/17 20/20/20 19/19/19
f 23/23/23 22/22/22 21/21/21
f 21/21/21 24/24/24 23/23/23
f 27/27/27 26/26/26 25/25/25
f 25/25/25 28/28/28 27/27/27
f 31/31/31 30/30/30 29/29/29
f 29/29/29 32/32/32 31/31/31
f 35/35/35 34/34/34 33/33/33
f 33/33/33 36/36/36 35/35/35
f 39/39/39 38/38/38 37/37/37
f 37/37/37 40/40/40 39/39/39
f 43/43/43 42/42/42 41/41/41
f 41/41/41 44/44/44 43/43/43
f 47/47/47 46/46/46 45/45/45
f 45/45/45 48/48/48 47/47/47
f 51/51/51 50/50/50 49/49/49
f 49/49/49 52/52/52 51/51/51
f 55/55/55 54/54/54 53/53/53
f 53/53/53 56/56/56 55/55/55
f 59/59/59 58/58/58 57/57/57
f 57/57/57 60/60/60 59/59/59
f 63/63/63 62/62/62 61/61/61
f 61/61/61 64/64/64 63/63/63
f 67/67/67 66/66/66 65/65/65
f 65/65/65 68/68/68 67/67/67
f 71/71/71 70/70/70 69/69/69
f 69/69/69 72/72/72 71/71/71
f 75/75/75 74/74/74 73/73/73
f 73/73/73 76/76/76 75/75/75
f 79/79/79 78/78/78 77/77/77
f 77/77/77 80/80/80 79/79/79
f 83/83/83 82/82/82 81/81/81
f 81/81/81 84/84/84 83/83/83
f 87/87/87 86/86/86 85/85/85
f 85/85/85 88/88/88 87/87/87
f 91/91/91 90/90/90 89/89/89
f 89/89/89 92/92/92 91/91/91
f 95/95/95 94/94/94 93/93/93
f 93/93/93 96/96/96 95/95/95
f 99/99/99 98/98/98 97/97/97
f 97/97/97 100/100/100 99/99/99
f 103/103/103 102/102/102 101/101/101
f 101/101/101 104/104/104 103/103/103
f 107/107/107 106/106/106 105/105/105
f 105/105/105 108/108/108 107/107/107
f 111/111/111 110/110/110 109/109/109
f 109/109/109 112/112/112 111/111/111
f 115/115/115 114/114/114 113/113/113
f 113/113/113 116/116/116 115/115/115
f 119/119/119 118/118/118 117/117/117
f 117/117/117 120/120/120 119/119/119
f 123/123/123 122/122/122 121/121/121
f 121/121/121 124/124/124 123/123/123
f 127/127/127 126/126/126 125/125/125
f 125/125/125 128/128/128 127/127/127
f 131/131/131 130/130/130 129/129/129
f 129/129/129 132/132/132 131/131/131
f 135/135/135 134/134/134 133/133/133
f 133/133/133 136/136/136 135/135/135
f 139/139/139 138/138/138 137/137/137
f 137/137/137 140/140/140 139/139/139
f 143/143/143 142/142/142 141/141/141
f 141/141/141 144/144/144 143/143/143
f 147/147/147 146/146/146 145/145/145
f 145/145/145 148/148/148 147/147/147
f 151/151/151 150/150/150 149/149/149
f 149/149/149 152/152/152 151/151/151
f 155/155/155 154/154/154 153/153/153
f 153/153/153 156/156/156 155/155/155
f 159/159/159 158/158/158 157/157/157
f 157/157/157 160/160/160 159/159/159
f 163/163/163 162/162/162 161/161/161
f 161/161/161 164/164/164 163/163/163
f 167/167/167 166/166/166 165/165/165
f 165/165/165 168/168/168 167/167/167
f 171/171/171 170/170/170 169/169/169
f 169/169/169 172/172/172 171/171/171
f 175/175/175 174/174/174 173/173/173
f 173/173/173 176/176/176 175/175/175
f 179/179/179 178/178/178 177/177/177
f 177/177/177 180/180/180 179/179/179
f 183/183/183 182/182/182 181/181/181
f 181/181/181 184/184/184 183/183/183
f 187/187/187 186/186/186 185/185/185
f 185/185/185 188/188/188 187/187/187
f 191/191/191 190/190/190 189/189/189
f 189/189/189 192/192/192 191/191/191
f 195/195/195 194/194/194 193/193/193
f 193/193/193 196/196/196 195/195/195
f 199/199/199 198/198/198 197/197/197
f 197/197/197 200/200/200 199/199/199
f 203/203/203 202/202/202 201/201/201
f 201/201/201 204/204/204 203/203/203
f 207/207/207 206/206/206 205/205/205
f 205/205/205 208/208/208 207/207/207
f 211/211/211 210/210/210 209/209/209
f 209/209/209 212/212/212 211/211/211
f 215/215/215 214/214/214 213/213/213
f 213/213/213 216/216/216 215/215/215
f 219/219/219 218/218/218 217/217/217
f 217/217/217 220/220/220 219/219/219
f 223/223/223 222/222/222 221/221/221
f 221/221/221 224/224/224 223/223/223
f 227/227/227 226/226/226 225/225/225
f 225/225/225 228/228/228 227/227/227
f 231/231/231 230/230/230 229/229/229
f 229/229/229 232/232/232 231/231/231
f 235/235/235 234/234/234 233/233/233
f 233/233/233 236/236/236 235/235/235
f 239/239/239 238/238/238 237/237/237
f 237/237/237 240/240/240 239/239/239
f 243/243/243 242/242/242 241/241/241
f 241/241/241 244/244/244 243/243/243
f 247/247/247 246/246/246 245/245/245
f 245/245/245 248/248/248 247/247/247
f 251/251/251 250/250/250 249/249/249
f 249/249/249 252/252/252 251/251/251
f 255/255/255 254/254/254 253/253/253
f 253/253/253 256/256/256 255/255/255
f 259/259/259 258/258/258 257/257/257
f 257/257/257 260/260/260 259/259/259
f 263/263/263 262/262/262 261/261/261
f 261/261/261 264/264/264 263/263/263
f 267/267/267 266/266/266 265/265/265
f 265/265/265 268/268/268 267/267/267
f 271/271/271 270/270/270 269/269/269
f 269/269/269 272/272/272 271/271/271
f 275/275/275 274/274/274 273/273/273
f 273/273/273 276/276/276 275/275/275
f 279/279/279 278/278/278 277/277/277
f 277/277/277 280/280/280 279/279/279
f 283/283/283 282/282/282 281/281/281
f 281/281/281 284/284/284 283/283/283
f 287/287/287 286/286/286 285/285/285
f 285/285/285 288/288/288 287/287/287
f 291/291/291 290/290/290 289/289/289
f 289/289/289 292/292/292 291/291/291
f 295/295/295 294/294/294 293/293/293
f 293/293/293 296/296/296 295/295/295
f 299/299/299 298/298/298 297/297/297
f 297/297/297 300/300/300 299/299/299
f 303/303/303 302/302/302 301/301/301
f 301/301/301 304/304/304 303/303/303
f 307/307/307 306/306/306 305/305/305
f 305/305/305 308/308/308 307/307/307
f 311/311/311 310/310/310 309/309/309
f 309/309/309 312/312/312 311/311/311
f 315/315/315 314/314/314 313/313/313
f 313/313/313 316/316/316 315/315/315
f 319/319/319 318/318/318 317/317/317
f 317/317/317 320/320/320 319/319/319
f 323/323/323 322/322/322 321/321/321
f 321/321/321 324/324/324 323/323/323
f 327/327/327 326/326/326 325/325/325
f 325/325/325 328/328/328 327/327/327
f 331/331/331 330/330/330 329/329/329
f 329/329/329 332/332/332 331/331/331
f 335/335/335 334/334/334 333/333/333
f 333/333/333 336/336/336 335/335/335
f 339/339/339 338/338/338 337/337/337
f 337/337/337 340/340/340 339/339/339
f 343/343/343 342/342/342 341/341/341
f 341/341/341 344/344/344 343/343/343
f 347/347/347 346/346/346 345/345/345
f 345/345/345 348/348/348 347/347/347
f 351/351/351 350/350/350 349/349/349
f 349/349/349 352/352/352 351/351/351
f 355/355/355 354/354/354 353/353/353
f 353/353/353 356/356/356 355/355/355
f 359/359/359 358/358/358 357/357/357
f 357/357/357 360/360/360 359/359/359
f 363/363/363 362/362/362 361/361/361
f 361/361/361 364/364/364 363/363/363
f 367/367/367 366/366/366 365/365/365
f 365/365/365 368/368/368 367/367/367
f 371/371/371 370/370/370 369/369/369
f 369/369/369 372/372/372 371/371/371
f 375/375/375 374/374/374 373/373/373
f 373/373/373 376/376/376 375/375/375
f 379/379/379 378/378/378 377/377/377
f 377/377/377 380/380/380 379/379/379
