g duli_7_bj-mesh
v -320 129 0
v -320 321 0
v -448 321 0
v -448 129 0
v -352 321 0
v -352 353 0
v -416 353 0
v -416 321 0
v -288 193 0
v -288 257 0
v -320 257 0
v -320 193 0
v -448 225 0
v -448 289 0
v -480 289 0
v -480 225 0
v -448 161 0
v -448 225 0
v -480 225 0
v -480 161 0
v -0 1153 0
v -0 1185 0
v -32 1185 0
v -32 1153 0
v -288 161 0
v -288 193 0
v -320 193 0
v -320 161 0
v -416 321 0
v -416 353 0
v -448 353 0
v -448 321 0
vt 0.001953125 0.00515460968
vt 0.001953125 0.99484539
vt 0.251953125 0.99484539
vt 0.251953125 0.00515460968
vt 0.255859375 0.00515460968
vt 0.255859375 0.170103073
vt 0.380859375 0.170103073
vt 0.380859375 0.00515460968
vt 0.384765625 0.00515460968
vt 0.384765625 0.335051537
vt 0.447265625 0.335051537
vt 0.447265625 0.00515460968
vt 0.451171875 0.00515460968
vt 0.451171875 0.335051537
vt 0.513671875 0.335051537
vt 0.513671875 0.00515460968
vt 0.517578125 0.00515460968
vt 0.517578125 0.335051537
vt 0.580078125 0.335051537
vt 0.580078125 0.00515460968
vt 0.583984375 0.00515460968
vt 0.583984375 0.170103073
vt 0.646484375 0.170103073
vt 0.646484375 0.00515460968
vt 0.650390625 0.00515460968
vt 0.650390625 0.170103073
vt 0.712890625 0.170103073
vt 0.712890625 0.00515460968
vt 0.716796875 0.00515460968
vt 0.716796875 0.170103073
vt 0.779296875 0.170103073
vt 0.779296875 0.00515460968
g duli_7_bj-mesh_0
f 3/3/3 2/2/2 1/1/1
f 1/1/1 4/4/4 3/3/3
f 7/7/7 6/6/6 5/5/5
f 5/5/5 8/8/8 7/7/7
f 11/11/11 10/10/10 9/9/9
f 9/9/9 12/12/12 11/11/11
f 15/15/15 14/14/14 13/13/13
f 13/13/13 16/16/16 15/15/15
f 19/19/19 18/18/18 17/17/17
f 17/17/17 20/20/20 19/19/19
f 23/23/23 22/22/22 21/21/21
f 21/21/21 24/24/24 23/23/23
f 27/27/27 26/26/26 25/25/25
f 25/25/25 28/28/28 27/27/27
f 31/31/31 30/30/30 29/29/29
f 29/29/29 32/32/32 31/31/31
