g beierfasite_g-mesh
v -1024 79 0
v -1024 975 0
v -1568 975 0
v -1568 79 0
v -480 79 0
v -480 975 0
v -1024 975 0
v -1024 79 0
v -64 143 0
v -64 591 0
v -480 591 0
v -480 143 0
v -1568 143 0
v -1568 559 0
v -1920 559 0
v -1920 143 0
v -1024 0 0
v -1024 79 0
v -1472 79 0
v -1472 0 0
v -576 0 0
v -576 79 0
v -1024 79 0
v -1024 0 0
v -960 1039 0
v -960 1295 0
v -1120 1295 0
v -1120 1039 0
v -608 975 0
v -608 1039 0
v -1088 1039 0
v -1088 975 0
v -1088 975 0
v -1088 1039 0
v -1536 1039 0
v -1536 975 0
v -288 591 0
v -288 719 0
v -480 719 0
v -480 591 0
v -672 1039 0
v -672 1263 0
v -768 1263 0
v -768 1039 0
v -1920 143 0
v -1920 271 0
v -2047 271 0
v -2047 143 0
v -1568 687 0
v -1568 847 0
v -1664 847 0
v -1664 687 0
v -1536 1103 0
v -1536 1199 0
v -1664 1199 0
v -1664 1103 0
v -1664 559 0
v -1664 655 0
v -1792 655 0
v -1792 559 0
v -1568 559 0
v -1568 687 0
v -1664 687 0
v -1664 559 0
v -1568 47 0
v -1568 143 0
v -1664 143 0
v -1664 47 0
v -576 1039 0
v -576 1135 0
v -672 1135 0
v -672 1039 0
v -1920 335 0
v -1920 463 0
v -1984 463 0
v -1984 335 0
v -160 591 0
v -160 655 0
v -288 655 0
v -288 591 0
v -352 79 0
v -352 143 0
v -480 143 0
v -480 79 0
v -0 143 0
v -0 239 0
v -64 239 0
v -64 143 0
v -864 1039 0
v -864 1103 0
v -960 1103 0
v -960 1039 0
v -512 975 0
v -512 1071 0
v -576 1071 0
v -576 975 0
v -1664 1071 0
v -1664 1135 0
v -1760 1135 0
v -1760 1071 0
v -1216 1039 0
v -1216 1103 0
v -1312 1103 0
v -1312 1039 0
v -1312 1039 0
v -1312 1135 0
v -1376 1135 0
v -1376 1039 0
v -352 1103 0
v -352 1167 0
v -448 1167 0
v -448 1103 0
v -1312 1135 0
v -1312 1231 0
v -1376 1231 0
v -1376 1135 0
v -1664 1167 0
v -1664 1231 0
v -1760 1231 0
v -1760 1167 0
v -416 783 0
v -416 879 0
v -480 879 0
v -480 783 0
v -416 943 0
v -416 1007 0
v -480 1007 0
v -480 943 0
v -1760 879 0
v -1760 943 0
v -1824 943 0
v -1824 879 0
v -224 1039 0
v -224 1103 0
v -288 1103 0
v -288 1039 0
v -1120 1039 0
v -1120 1103 0
v -1184 1103 0
v -1184 1039 0
v -1792 559 0
v -1792 623 0
v -1856 623 0
v -1856 559 0
v -1376 1039 0
v -1376 1071 0
v -1504 1071 0
v -1504 1039 0
v -448 1103 0
v -448 1167 0
v -512 1167 0
v -512 1103 0
v -1504 15 0
v -1504 79 0
v -1568 79 0
v -1568 15 0
v -416 719 0
v -416 783 0
v -480 783 0
v -480 719 0
v -1760 1167 0
v -1760 1231 0
v -1824 1231 0
v -1824 1167 0
v -1504 1039 0
v -1504 1071 0
v -1600 1071 0
v -1600 1039 0
v -32 367 0
v -32 463 0
v -64 463 0
v -64 367 0
v -768 1103 0
v -768 1199 0
v -800 1199 0
v -800 1103 0
v -32 463 0
v -32 559 0
v -64 559 0
v -64 463 0
v -1696 719 0
v -1696 815 0
v -1728 815 0
v -1728 719 0
v -1824 783 0
v -1824 847 0
v -1856 847 0
v -1856 783 0
v -800 1039 0
v -800 1103 0
v -832 1103 0
v -832 1039 0
v -448 1071 0
v -448 1103 0
v -512 1103 0
v -512 1071 0
v -1376 1071 0
v -1376 1135 0
v -1408 1135 0
v -1408 1071 0
v -608 1135 0
v -608 1199 0
v -640 1199 0
v -640 1135 0
v -640 1167 0
v -640 1231 0
v -672 1231 0
v -672 1167 0
v -832 1167 0
v -832 1231 0
v -864 1231 0
v -864 1167 0
v -1280 1103 0
v -1280 1167 0
v -1312 1167 0
v -1312 1103 0
v -928 1103 0
v -928 1167 0
v -960 1167 0
v -960 1103 0
v -800 1135 0
v -800 1199 0
v -832 1199 0
v -832 1135 0
v -160 111 0
v -160 143 0
v -224 143 0
v -224 111 0
v -96 591 0
v -96 623 0
v -160 623 0
v -160 591 0
v -1856 111 0
v -1856 143 0
v -1920 143 0
v -1920 111 0
v -1600 15 0
v -1600 47 0
v -1664 47 0
v -1664 15 0
v -1472 0 0
v -1472 47 0
v -1504 47 0
v -1504 0 0
v -352 719 0
v -352 783 0
v -384 783 0
v -384 719 0
v -1664 751 0
v -1664 815 0
v -1696 815 0
v -1696 751 0
v -1728 719 0
v -1728 783 0
v -1760 783 0
v -1760 719 0
v -1664 655 0
v -1664 719 0
v -1696 719 0
v -1696 655 0
v -192 687 0
v -192 751 0
v -224 751 0
v -224 687 0
v -1280 1199 0
v -1280 1263 0
v -1312 1263 0
v -1312 1199 0
v -1728 1231 0
v -1728 1263 0
v -1792 1263 0
v -1792 1231 0
v -1504 1071 0
v -1504 1103 0
v -1568 1103 0
v -1568 1071 0
v -1568 879 0
v -1568 943 0
v -1600 943 0
v -1600 879 0
v -1568 1071 0
v -1568 1103 0
v -1632 1103 0
v -1632 1071 0
v -800 1263 0
v -800 1295 0
v -864 1295 0
v -864 1263 0
v -224 719 0
v -224 783 0
v -256 783 0
v -256 719 0
v -864 1231 0
v -864 1263 0
v -928 1263 0
v -928 1231 0
v -1920 271 0
v -1920 303 0
v -1984 303 0
v -1984 271 0
v -256 111 0
v -256 143 0
v -320 143 0
v -320 111 0
v -224 655 0
v -224 719 0
v -256 719 0
v -256 655 0
v -320 783 0
v -320 815 0
v -384 815 0
v -384 783 0
v -1696 655 0
v -1696 719 0
v -1728 719 0
v -1728 655 0
v -768 1039 0
v -768 1103 0
v -800 1103 0
v -800 1039 0
v -320 719 0
v -320 751 0
v -352 751 0
v -352 719 0
v -256 719 0
v -256 751 0
v -288 751 0
v -288 719 0
v -384 975 0
v -384 1007 0
v -416 1007 0
v -416 975 0
v -576 1007 0
v -576 1039 0
v -608 1039 0
v -608 1007 0
v -1696 1039 0
v -1696 1071 0
v -1728 1071 0
v -1728 1039 0
v -384 815 0
v -384 847 0
v -416 847 0
v -416 815 0
v -1760 847 0
v -1760 879 0
v -1792 879 0
v -1792 847 0
v -1536 975 0
v -1536 1007 0
v -1568 1007 0
v -1568 975 0
v -160 687 0
v -160 719 0
v -192 719 0
v -192 687 0
v -32 239 0
v -32 271 0
v -64 271 0
v -64 239 0
v -1664 111 0
v -1664 143 0
v -1696 143 0
v -1696 111 0
v -1984 367 0
v -1984 399 0
v -2016 399 0
v -2016 367 0
v -1920 303 0
v -1920 335 0
v -1952 335 0
v -1952 303 0
v -0 367 0
v -0 399 0
v -32 399 0
v -32 367 0
v -1920 463 0
v -1920 495 0
v -1952 495 0
v -1952 463 0
v -1792 111 0
v -1792 143 0
v -1824 143 0
v -1824 111 0
v -544 47 0
v -544 79 0
v -576 79 0
v -576 47 0
v -832 1039 0
v -832 1071 0
v -864 1071 0
v -864 1039 0
v -1984 271 0
v -1984 303 0
v -2016 303 0
v -2016 271 0
v -384 783 0
v -384 815 0
v -416 815 0
v -416 783 0
v -928 1295 0
v -928 1327 0
v -960 1327 0
v -960 1295 0
v -320 111 0
v -320 143 0
v -352 143 0
v -352 111 0
v -928 1231 0
v -928 1263 0
v -960 1263 0
v -960 1231 0
v -864 1263 0
v -864 1295 0
v -896 1295 0
v -896 1263 0
v -1568 847 0
v -1568 879 0
v -1600 879 0
v -1600 847 0
v -1792 1231 0
v -1792 1263 0
v -1824 1263 0
v -1824 1231 0
v -1024 1295 0
v -1024 1327 0
v -1056 1327 0
v -1056 1295 0
v -1664 1135 0
v -1664 1167 0
v -1696 1167 0
v -1696 1135 0
v -1120 1135 0
v -1120 1167 0
v -1152 1167 0
v -1152 1135 0
v -544 1071 0
v -544 1103 0
v -576 1103 0
v -576 1071 0
v -1504 1103 0
v -1504 1135 0
v -1536 1135 0
v -1536 1103 0
v -1312 1231 0
v -1312 1263 0
v -1344 1263 0
v -1344 1231 0
v -800 1231 0
v -800 1263 0
v -832 1263 0
v -832 1231 0
v -576 1135 0
v -576 1167 0
v -608 1167 0
v -608 1135 0
v -864 1199 0
v -864 1231 0
v -896 1231 0
v -896 1199 0
vt 0.00048828125 0.00096899271
vt 0.00048828125 0.869186044
vt 0.266113281 0.869186044
vt 0.266113281 0.00096899271
vt 0.267089844 0.00096899271
vt 0.267089844 0.869186044
vt 0.532714844 0.869186044
vt 0.532714844 0.00096899271
vt 0.533691406 0.00096899271
vt 0.533691406 0.435077548
vt 0.736816406 0.435077548
vt 0.736816406 0.00096899271
vt 0.737792969 0.00096899271
vt 0.737792969 0.404069781
vt 0.909667969 0.404069781
vt 0.909667969 0.00096899271
vt 0.737792969 0.406007767
vt 0.737792969 0.483527124
vt 0.956542969 0.483527124
vt 0.956542969 0.406007767
vt 0.737792969 0.485465109
vt 0.737792969 0.562984467
vt 0.956542969 0.562984467
vt 0.956542969 0.485465109
vt 0.533691406 0.437015533
vt 0.533691406 0.685077548
vt 0.611816406 0.685077548
vt 0.611816406 0.437015533
vt 0.737792969 0.564922452
vt 0.737792969 0.626937985
vt 0.972167969 0.626937985
vt 0.972167969 0.564922452
vt 0.737792969 0.628875971
vt 0.737792969 0.690891504
vt 0.956542969 0.690891504
vt 0.956542969 0.628875971
vt 0.612792969 0.437015533
vt 0.612792969 0.561046481
vt 0.706542969 0.561046481
vt 0.706542969 0.437015533
vt 0.612792969 0.562984467
vt 0.612792969 0.780038774
vt 0.659667969 0.780038774
vt 0.659667969 0.562984467
vt 0.660644531 0.562984467
vt 0.660644531 0.687015533
vt 0.723144531 0.687015533
vt 0.723144531 0.562984467
vt 0.533691406 0.687015533
vt 0.533691406 0.842054248
vt 0.580566406 0.842054248
vt 0.580566406 0.687015533
vt 0.660644531 0.688953519
vt 0.660644531 0.781976759
vt 0.723144531 0.781976759
vt 0.723144531 0.688953519
vt 0.737792969 0.69282949
vt 0.737792969 0.78585273
vt 0.800292969 0.78585273
vt 0.800292969 0.69282949
vt 0.801269531 0.69282949
vt 0.801269531 0.816860437
vt 0.848144531 0.816860437
vt 0.848144531 0.69282949
vt 0.849121094 0.69282949
vt 0.849121094 0.78585273
vt 0.895996094 0.78585273
vt 0.895996094 0.69282949
vt 0.896972656 0.69282949
vt 0.896972656 0.78585273
vt 0.943847656 0.78585273
vt 0.943847656 0.69282949
vt 0.957519531 0.628875971
vt 0.957519531 0.752906978
vt 0.988769531 0.752906978
vt 0.988769531 0.628875971
vt 0.660644531 0.783914745
vt 0.660644531 0.845930219
vt 0.723144531 0.845930219
vt 0.723144531 0.783914745
vt 0.737792969 0.787790716
vt 0.737792969 0.84980619
vt 0.800292969 0.84980619
vt 0.800292969 0.787790716
vt 0.957519531 0.754844964
vt 0.957519531 0.847868204
vt 0.988769531 0.847868204
vt 0.988769531 0.754844964
vt 0.612792969 0.781976759
vt 0.612792969 0.843992233
vt 0.659667969 0.843992233
vt 0.659667969 0.781976759
vt 0.849121094 0.787790716
vt 0.849121094 0.880813956
vt 0.880371094 0.880813956
vt 0.880371094 0.787790716
vt 0.881347656 0.787790716
vt 0.881347656 0.84980619
vt 0.928222656 0.84980619
vt 0.928222656 0.787790716
vt 0.801269531 0.818798423
vt 0.801269531 0.880813956
vt 0.848144531 0.880813956
vt 0.848144531 0.818798423
vt 0.533691406 0.843992233
vt 0.533691406 0.937015533
vt 0.564941406 0.937015533
vt 0.564941406 0.843992233
vt 0.612792969 0.845930219
vt 0.612792969 0.907945752
vt 0.659667969 0.907945752
vt 0.659667969 0.845930219
vt 0.565917969 0.843992233
vt 0.565917969 0.937015533
vt 0.597167969 0.937015533
vt 0.597167969 0.843992233
vt 0.660644531 0.847868204
vt 0.660644531 0.909883738
vt 0.707519531 0.909883738
vt 0.707519531 0.847868204
vt 0.957519531 0.84980619
vt 0.957519531 0.94282943
vt 0.988769531 0.94282943
vt 0.988769531 0.84980619
vt 0.737792969 0.851744175
vt 0.737792969 0.913759708
vt 0.769042969 0.913759708
vt 0.769042969 0.851744175
vt 0.881347656 0.851744175
vt 0.881347656 0.913759708
vt 0.912597656 0.913759708
vt 0.912597656 0.851744175
vt 0.913574219 0.851744175
vt 0.913574219 0.913759708
vt 0.944824219 0.913759708
vt 0.944824219 0.851744175
vt 0.00048828125 0.871124029
vt 0.00048828125 0.933139563
vt 0.0317382812 0.933139563
vt 0.0317382812 0.871124029
vt 0.0327148438 0.871124029
vt 0.0327148438 0.933139563
vt 0.0639648438 0.933139563
vt 0.0639648438 0.871124029
vt 0.0649414062 0.871124029
vt 0.0649414062 0.902131796
vt 0.127441406 0.902131796
vt 0.127441406 0.871124029
vt 0.128417969 0.871124029
vt 0.128417969 0.933139563
vt 0.159667969 0.933139563
vt 0.159667969 0.871124029
vt 0.160644531 0.871124029
vt 0.160644531 0.933139563
vt 0.191894531 0.933139563
vt 0.191894531 0.871124029
vt 0.192871094 0.871124029
vt 0.192871094 0.933139563
vt 0.224121094 0.933139563
vt 0.224121094 0.871124029
vt 0.225097656 0.871124029
vt 0.225097656 0.933139563
vt 0.256347656 0.933139563
vt 0.256347656 0.871124029
vt 0.257324219 0.871124029
vt 0.257324219 0.902131796
vt 0.304199219 0.902131796
vt 0.304199219 0.871124029
vt 0.708496094 0.847868204
vt 0.708496094 0.940891504
vt 0.724121094 0.940891504
vt 0.724121094 0.847868204
vt 0.770019531 0.851744175
vt 0.770019531 0.944767416
vt 0.785644531 0.944767416
vt 0.785644531 0.851744175
vt 0.305175781 0.871124029
vt 0.305175781 0.96414727
vt 0.320800781 0.96414727
vt 0.320800781 0.871124029
vt 0.321777344 0.871124029
vt 0.321777344 0.96414727
vt 0.337402344 0.96414727
vt 0.337402344 0.871124029
vt 0.338378906 0.871124029
vt 0.338378906 0.933139563
vt 0.354003906 0.933139563
vt 0.354003906 0.871124029
vt 0.354980469 0.871124029
vt 0.354980469 0.933139563
vt 0.370605469 0.933139563
vt 0.370605469 0.871124029
vt 0.371582031 0.871124029
vt 0.371582031 0.902131796
vt 0.402832031 0.902131796
vt 0.402832031 0.871124029
vt 0.403808594 0.871124029
vt 0.403808594 0.933139563
vt 0.419433594 0.933139563
vt 0.419433594 0.871124029
vt 0.420410156 0.871124029
vt 0.420410156 0.933139563
vt 0.436035156 0.933139563
vt 0.436035156 0.871124029
vt 0.437011719 0.871124029
vt 0.437011719 0.933139563
vt 0.452636719 0.933139563
vt 0.452636719 0.871124029
vt 0.453613281 0.871124029
vt 0.453613281 0.933139563
vt 0.469238281 0.933139563
vt 0.469238281 0.871124029
vt 0.470214844 0.871124029
vt 0.470214844 0.933139563
vt 0.485839844 0.933139563
vt 0.485839844 0.871124029
vt 0.486816406 0.871124029
vt 0.486816406 0.933139563
vt 0.502441406 0.933139563
vt 0.502441406 0.871124029
vt 0.503417969 0.871124029
vt 0.503417969 0.933139563
vt 0.519042969 0.933139563
vt 0.519042969 0.871124029
vt 0.801269531 0.882751942
vt 0.801269531 0.913759708
vt 0.832519531 0.913759708
vt 0.832519531 0.882751942
vt 0.833496094 0.882751942
vt 0.833496094 0.913759708
vt 0.864746094 0.913759708
vt 0.864746094 0.882751942
vt 0.0649414062 0.904069781
vt 0.0649414062 0.935077548
vt 0.0961914062 0.935077548
vt 0.0961914062 0.904069781
vt 0.257324219 0.904069781
vt 0.257324219 0.935077548
vt 0.288574219 0.935077548
vt 0.288574219 0.904069781
vt 0.0971679688 0.904069781
vt 0.0971679688 0.950581372
vt 0.112792969 0.950581372
vt 0.112792969 0.904069781
vt 0.371582031 0.904069781
vt 0.371582031 0.966085255
vt 0.387207031 0.966085255
vt 0.387207031 0.904069781
vt 0.612792969 0.909883738
vt 0.612792969 0.971899211
vt 0.628417969 0.971899211
vt 0.628417969 0.909883738
vt 0.629394531 0.909883738
vt 0.629394531 0.971899211
vt 0.645019531 0.971899211
vt 0.645019531 0.909883738
vt 0.660644531 0.911821723
vt 0.660644531 0.973837197
vt 0.676269531 0.973837197
vt 0.676269531 0.911821723
vt 0.677246094 0.911821723
vt 0.677246094 0.973837197
vt 0.692871094 0.973837197
vt 0.692871094 0.911821723
vt 0.737792969 0.915697694
vt 0.737792969 0.977713168
vt 0.753417969 0.977713168
vt 0.753417969 0.915697694
vt 0.801269531 0.915697694
vt 0.801269531 0.946705401
vt 0.832519531 0.946705401
vt 0.832519531 0.915697694
vt 0.833496094 0.915697694
vt 0.833496094 0.946705401
vt 0.864746094 0.946705401
vt 0.864746094 0.915697694
vt 0.881347656 0.915697694
vt 0.881347656 0.977713168
vt 0.896972656 0.977713168
vt 0.896972656 0.915697694
vt 0.897949219 0.915697694
vt 0.897949219 0.946705401
vt 0.929199219 0.946705401
vt 0.929199219 0.915697694
vt 0.00048828125 0.935077548
vt 0.00048828125 0.966085255
vt 0.0317382812 0.966085255
vt 0.0317382812 0.935077548
vt 0.930175781 0.915697694
vt 0.930175781 0.977713168
vt 0.945800781 0.977713168
vt 0.945800781 0.915697694
vt 0.0327148438 0.935077548
vt 0.0327148438 0.966085255
vt 0.0639648438 0.966085255
vt 0.0639648438 0.935077548
vt 0.128417969 0.935077548
vt 0.128417969 0.966085255
vt 0.159667969 0.966085255
vt 0.159667969 0.935077548
vt 0.160644531 0.935077548
vt 0.160644531 0.966085255
vt 0.191894531 0.966085255
vt 0.191894531 0.935077548
vt 0.192871094 0.935077548
vt 0.192871094 0.997093022
vt 0.208496094 0.997093022
vt 0.208496094 0.935077548
vt 0.209472656 0.935077548
vt 0.209472656 0.966085255
vt 0.240722656 0.966085255
vt 0.240722656 0.935077548
vt 0.338378906 0.935077548
vt 0.338378906 0.997093022
vt 0.354003906 0.997093022
vt 0.354003906 0.935077548
vt 0.354980469 0.935077548
vt 0.354980469 0.997093022
vt 0.370605469 0.997093022
vt 0.370605469 0.935077548
vt 0.403808594 0.935077548
vt 0.403808594 0.966085255
vt 0.419433594 0.966085255
vt 0.419433594 0.935077548
vt 0.420410156 0.935077548
vt 0.420410156 0.966085255
vt 0.436035156 0.966085255
vt 0.436035156 0.935077548
vt 0.437011719 0.935077548
vt 0.437011719 0.966085255
vt 0.452636719 0.966085255
vt 0.452636719 0.935077548
vt 0.453613281 0.935077548
vt 0.453613281 0.966085255
vt 0.469238281 0.966085255
vt 0.469238281 0.935077548
vt 0.470214844 0.935077548
vt 0.470214844 0.966085255
vt 0.485839844 0.966085255
vt 0.485839844 0.935077548
vt 0.486816406 0.935077548
vt 0.486816406 0.966085255
vt 0.502441406 0.966085255
vt 0.502441406 0.935077548
vt 0.503417969 0.935077548
vt 0.503417969 0.966085255
vt 0.519042969 0.966085255
vt 0.519042969 0.935077548
vt 0.0649414062 0.937015533
vt 0.0649414062 0.968023241
vt 0.0805664062 0.968023241
vt 0.0805664062 0.937015533
vt 0.257324219 0.937015533
vt 0.257324219 0.968023241
vt 0.272949219 0.968023241
vt 0.272949219 0.937015533
vt 0.273925781 0.937015533
vt 0.273925781 0.968023241
vt 0.289550781 0.968023241
vt 0.289550781 0.937015533
vt 0.533691406 0.938953519
vt 0.533691406 0.969961226
vt 0.549316406 0.969961226
vt 0.549316406 0.938953519
vt 0.550292969 0.938953519
vt 0.550292969 0.969961226
vt 0.565917969 0.969961226
vt 0.565917969 0.938953519
vt 0.566894531 0.938953519
vt 0.566894531 0.969961226
vt 0.582519531 0.969961226
vt 0.582519531 0.938953519
vt 0.583496094 0.938953519
vt 0.583496094 0.969961226
vt 0.599121094 0.969961226
vt 0.599121094 0.938953519
vt 0.708496094 0.94282943
vt 0.708496094 0.973837197
vt 0.724121094 0.973837197
vt 0.724121094 0.94282943
vt 0.957519531 0.944767416
vt 0.957519531 0.975775182
vt 0.973144531 0.975775182
vt 0.973144531 0.944767416
vt 0.974121094 0.944767416
vt 0.974121094 0.975775182
vt 0.989746094 0.975775182
vt 0.989746094 0.944767416
vt 0.770019531 0.946705401
vt 0.770019531 0.977713168
vt 0.785644531 0.977713168
vt 0.785644531 0.946705401
vt 0.801269531 0.948643386
vt 0.801269531 0.979651153
vt 0.816894531 0.979651153
vt 0.816894531 0.948643386
vt 0.817871094 0.948643386
vt 0.817871094 0.979651153
vt 0.833496094 0.979651153
vt 0.833496094 0.948643386
vt 0.834472656 0.948643386
vt 0.834472656 0.979651153
vt 0.850097656 0.979651153
vt 0.850097656 0.948643386
vt 0.851074219 0.948643386
vt 0.851074219 0.979651153
vt 0.866699219 0.979651153
vt 0.866699219 0.948643386
vt 0.897949219 0.948643386
vt 0.897949219 0.979651153
vt 0.913574219 0.979651153
vt 0.913574219 0.948643386
vt 0.0971679688 0.952519357
vt 0.0971679688 0.983527124
vt 0.112792969 0.983527124
vt 0.112792969 0.952519357
vt 0.305175781 0.966085255
vt 0.305175781 0.997093022
vt 0.320800781 0.997093022
vt 0.320800781 0.966085255
vt 0.321777344 0.966085255
vt 0.321777344 0.997093022
vt 0.337402344 0.997093022
vt 0.337402344 0.966085255
vt 0.00048828125 0.968023241
vt 0.00048828125 0.999031007
vt 0.0161132812 0.999031007
vt 0.0161132812 0.968023241
vt 0.0170898438 0.968023241
vt 0.0170898438 0.999031007
vt 0.0327148438 0.999031007
vt 0.0327148438 0.968023241
vt 0.0336914062 0.968023241
vt 0.0336914062 0.999031007
vt 0.0493164062 0.999031007
vt 0.0493164062 0.968023241
vt 0.128417969 0.968023241
vt 0.128417969 0.999031007
vt 0.144042969 0.999031007
vt 0.144042969 0.968023241
vt 0.145019531 0.968023241
vt 0.145019531 0.999031007
vt 0.160644531 0.999031007
vt 0.160644531 0.968023241
vt 0.161621094 0.968023241
vt 0.161621094 0.999031007
vt 0.177246094 0.999031007
vt 0.177246094 0.968023241
vt 0.209472656 0.968023241
vt 0.209472656 0.999031007
vt 0.225097656 0.999031007
vt 0.225097656 0.968023241
vt 0.226074219 0.968023241
vt 0.226074219 0.999031007
vt 0.241699219 0.999031007
vt 0.241699219 0.968023241
vt 0.371582031 0.968023241
vt 0.371582031 0.999031007
vt 0.387207031 0.999031007
vt 0.387207031 0.968023241
g beierfasite_g-mesh_0
f 3/3/3 2/2/2 1/1/1
f 1/1/1 4/4/4 3/3/3
f 7/7/7 6/6/6 5/5/5
f 5/5/5 8/8/8 7/7/7
f 11/11/11 10/10/10 9/9/9
f 9/9/9 12/12/12 11/11/11
f 15/15/15 14/14/14 13/13/13
f 13/13/13 16/16/16 15/15/15
f 19/19/19 18/18/18 17/17/17
f 17/17/17 20/20/20 19/19/19
f 23/23/23 22/22/22 21/21/21
f 21/21/21 24/24/24 23/23/23
f 27/27/27 26/26/26 25/25/25
f 25/25/25 28/28/28 27/27/27
f 31/31/31 30/30/30 29/29/29
f 29/29/29 32/32/32 31/31/31
f 35/35/35 34/34/34 33/33/33
f 33/33/33 36/36/36 35/35/35
f 39/39/39 38/38/38 37/37/37
f 37/37/37 40/40/40 39/39/39
f 43/43/43 42/42/42 41/41/41
f 41/41/41 44/44/44 43/43/43
f 47/47/47 46/46/46 45/45/45
f 45/45/45 48/48/48 47/47/47
f 51/51/51 50/50/50 49/49/49
f 49/49/49 52/52/52 51/51/51
f 55/55/55 54/54/54 53/53/53
f 53/53/53 56/56/56 55/55/55
f 59/59/59 58/58/58 57/57/57
f 57/57/57 60/60/60 59/59/59
f 63/63/63 62/62/62 61/61/61
f 61/61/61 64/64/64 63/63/63
f 67/67/67 66/66/66 65/65/65
f 65/65/65 68/68/68 67/67/67
f 71/71/71 70/70/70 69/69/69
f 69/69/69 72/72/72 71/71/71
f 75/75/75 74/74/74 73/73/73
f 73/73/73 76/76/76 75/75/75
f 79/79/79 78/78/78 77/77/77
f 77/77/77 80/80/80 79/79/79
f 83/83/83 82/82/82 81/81/81
f 81/81/81 84/84/84 83/83/83
f 87/87/87 86/86/86 85/85/85
f 85/85/85 88/88/88 87/87/87
f 91/91/91 90/90/90 89/89/89
f 89/89/89 92/92/92 91/91/91
f 95/95/95 94/94/94 93/93/93
f 93/93/93 96/96/96 95/95/95
f 99/99/99 98/98/98 97/97/97
f 97/97/97 100/100/100 99/99/99
f 103/103/103 102/102/102 101/101/101
f 101/101/101 104/104/104 103/103/103
f 107/107/107 106/106/106 105/105/105
f 105/105/105 108/108/108 107/107/107
f 111/111/111 110/110/110 109/109/109
f 109/109/109 112/112/112 111/111/111
f 115/115/115 114/114/114 113/113/113
f 113/113/113 116/116/116 115/115/115
f 119/119/119 118/118/118 117/117/117
f 117/117/117 120/120/120 119/119/119
f 123/123/123 122/122/122 121/121/121
f 121/121/121 124/124/124 123/123/123
f 127/127/127 126/126/126 125/125/125
f 125/125/125 128/128/128 127/127/127
f 131/131/131 130/130/130 129/129/129
f 129/129/129 132/132/132 131/131/131
f 135/135/135 134/134/134 133/133/133
f 133/133/133 136/136/136 135/135/135
f 139/139/139 138/138/138 137/137/137
f 137/137/137 140/140/140 139/139/139
f 143/143/143 142/142/142 141/141/141
f 141/141/141 144/144/144 143/143/143
f 147/147/147 146/146/146 145/145/145
f 145/145/145 148/148/148 147/147/147
f 151/151/151 150/150/150 149/149/149
f 149/149/149 152/152/152 151/151/151
f 155/155/155 154/154/154 153/153/153
f 153/153/153 156/156/156 155/155/155
f 159/159/159 158/158/158 157/157/157
f 157/157/157 160/160/160 159/159/159
f 163/163/163 162/162/162 161/161/161
f 161/161/161 164/164/164 163/163/163
f 167/167/167 166/166/166 165/165/165
f 165/165/165 168/168/168 167/167/167
f 171/171/171 170/170/170 169/169/169
f 169/169/169 172/172/172 171/171/171
f 175/175/175 174/174/174 173/173/173
f 173/173/173 176/176/176 175/175/175
f 179/179/179 178/178/178 177/177/177
f 177/177/177 180/180/180 179/179/179
f 183/183/183 182/182/182 181/181/181
f 181/181/181 184/184/184 183/183/183
f 187/187/187 186/186/186 185/185/185
f 185/185/185 188/188/188 187/187/187
f 191/191/191 190/190/190 189/189/189
f 189/189/189 192/192/192 191/191/191
f 195/195/195 194/194/194 193/193/193
f 193/193/193 196/196/196 195/195/195
f 199/199/199 198/198/198 197/197/197
f 197/197/197 200/200/200 199/199/199
f 203/203/203 202/202/202 201/201/201
f 201/201/201 204/204/204 203/203/203
f 207/207/207 206/206/206 205/205/205
f 205/205/205 208/208/208 207/207/207
f 211/211/211 210/210/210 209/209/209
f 209/209/209 212/212/212 211/211/211
f 215/215/215 214/214/214 213/213/213
f 213/213/213 216/216/216 215/215/215
f 219/219/219 218/218/218 217/217/217
f 217/217/217 220/220/220 219/219/219
f 223/223/223 222/222/222 221/221/221
f 221/221/221 224/224/224 223/223/223
f 227/227/227 226/226/226 225/225/225
f 225/225/225 228/228/228 227/227/227
f 231/231/231 230/230/230 229/229/229
f 229/229/229 232/232/232 231/231/231
f 235/235/235 234/234/234 233/233/233
f 233/233/233 236/236/236 235/235/235
f 239/239/239 238/238/238 237/237/237
f 237/237/237 240/240/240 239/239/239
f 243/243/243 242/242/242 241/241/241
f 241/241/241 244/244/244 243/243/243
f 247/247/247 246/246/246 245/245/245
f 245/245/245 248/248/248 247/247/247
f 251/251/251 250/250/250 249/249/249
f 249/249/249 252/252/252 251/251/251
f 255/255/255 254/254/254 253/253/253
f 253/253/253 256/256/256 255/255/255
f 259/259/259 258/258/258 257/257/257
f 257/257/257 260/260/260 259/259/259
f 263/263/263 262/262/262 261/261/261
f 261/261/261 264/264/264 263/263/263
f 267/267/267 266/266/266 265/265/265
f 265/265/265 268/268/268 267/267/267
f 271/271/271 270/270/270 269/269/269
f 269/269/269 272/272/272 271/271/271
f 275/275/275 274/274/274 273/273/273
f 273/273/273 276/276/276 275/275/275
f 279/279/279 278/278/278 277/277/277
f 277/277/277 280/280/280 279/279/279
f 283/283/283 282/282/282 281/281/281
f 281/281/281 284/284/284 283/283/283
f 287/287/287 286/286/286 285/285/285
f 285/285/285 288/288/288 287/287/287
f 291/291/291 290/290/290 289/289/289
f 289/289/289 292/292/292 291/291/291
f 295/295/295 294/294/294 293/293/293
f 293/293/293 296/296/296 295/295/295
f 299/299/299 298/298/298 297/297/297
f 297/297/297 300/300/300 299/299/299
f 303/303/303 302/302/302 301/301/301
f 301/301/301 304/304/304 303/303/303
f 307/307/307 306/306/306 305/305/305
f 305/305/305 308/308/308 307/307/307
f 311/311/311 310/310/310 309/309/309
f 309/309/309 312/312/312 311/311/311
f 315/315/315 314/314/314 313/313/313
f 313/313/313 316/316/316 315/315/315
f 319/319/319 318/318/318 317/317/317
f 317/317/317 320/320/320 319/319/319
f 323/323/323 322/322/322 321/321/321
f 321/321/321 324/324/324 323/323/323
f 327/327/327 326/326/326 325/325/325
f 325/325/325 328/328/328 327/327/327
f 331/331/331 330/330/330 329/329/329
f 329/329/329 332/332/332 331/331/331
f 335/335/335 334/334/334 333/333/333
f 333/333/333 336/336/336 335/335/335
f 339/339/339 338/338/338 337/337/337
f 337/337/337 340/340/340 339/339/339
f 343/343/343 342/342/342 341/341/341
f 341/341/341 344/344/344 343/343/343
f 347/347/347 346/346/346 345/345/345
f 345/345/345 348/348/348 347/347/347
f 351/351/351 350/350/350 349/349/349
f 349/349/349 352/352/352 351/351/351
f 355/355/355 354/354/354 353/353/353
f 353/353/353 356/356/356 355/355/355
f 359/359/359 358/358/358 357/357/357
f 357/357/357 360/360/360 359/359/359
f 363/363/363 362/362/362 361/361/361
f 361/361/361 364/364/364 363/363/363
f 367/367/367 366/366/366 365/365/365
f 365/365/365 368/368/368 367/367/367
f 371/371/371 370/370/370 369/369/369
f 369/369/369 372/372/372 371/371/371
f 375/375/375 374/374/374 373/373/373
f 373/373/373 376/376/376 375/375/375
f 379/379/379 378/378/378 377/377/377
f 377/377/377 380/380/380 379/379/379
f 383/383/383 382/382/382 381/381/381
f 381/381/381 384/384/384 383/383/383
f 387/387/387 386/386/386 385/385/385
f 385/385/385 388/388/388 387/387/387
f 391/391/391 390/390/390 389/389/389
f 389/389/389 392/392/392 391/391/391
f 395/395/395 394/394/394 393/393/393
f 393/393/393 396/396/396 395/395/395
f 399/399/399 398/398/398 397/397/397
f 397/397/397 400/400/400 399/399/399
f 403/403/403 402/402/402 401/401/401
f 401/401/401 404/404/404 403/403/403
f 407/407/407 406/406/406 405/405/405
f 405/405/405 408/408/408 407/407/407
f 411/411/411 410/410/410 409/409/409
f 409/409/409 412/412/412 411/411/411
f 415/415/415 414/414/414 413/413/413
f 413/413/413 416/416/416 415/415/415
f 419/419/419 418/418/418 417/417/417
f 417/417/417 420/420/420 419/419/419
f 423/423/423 422/422/422 421/421/421
f 421/421/421 424/424/424 423/423/423
f 427/427/427 426/426/426 425/425/425
f 425/425/425 428/428/428 427/427/427
f 431/431/431 430/430/430 429/429/429
f 429/429/429 432/432/432 431/431/431
f 435/435/435 434/434/434 433/433/433
f 433/433/433 436/436/436 435/435/435
f 439/439/439 438/438/438 437/437/437
f 437/437/437 440/440/440 439/439/439
f 443/443/443 442/442/442 441/441/441
f 441/441/441 444/444/444 443/443/443
f 447/447/447 446/446/446 445/445/445
f 445/445/445 448/448/448 447/447/447
f 451/451/451 450/450/450 449/449/449
f 449/449/449 452/452/452 451/451/451
f 455/455/455 454/454/454 453/453/453
f 453/453/453 456/456/456 455/455/455
f 459/459/459 458/458/458 457/457/457
f 457/457/457 460/460/460 459/459/459
