g lvzi_2-mesh
v -192 307 0
v -192 1715 0
v -992 1715 0
v -992 307 0
v -992 307 0
v -992 1715 0
v -1760 1715 0
v -1760 307 0
v -1088 179 0
v -1088 307 0
v -1696 307 0
v -1696 179 0
v -480 179 0
v -480 307 0
v -1088 307 0
v -1088 179 0
v -1760 1331 0
v -1760 1587 0
v -1952 1587 0
v -1952 1331 0
v -1760 819 0
v -1760 1107 0
v -1920 1107 0
v -1920 819 0
v -1760 1107 0
v -1760 1331 0
v -1952 1331 0
v -1952 1107 0
v -192 1715 0
v -192 1843 0
v -480 1843 0
v -480 1715 0
v -1024 1715 0
v -1024 1843 0
v -1312 1843 0
v -1312 1715 0
v -32 531 0
v -32 755 0
v -192 755 0
v -192 531 0
v -1760 307 0
v -1760 563 0
v -1888 563 0
v -1888 307 0
v -1312 1715 0
v -1312 1843 0
v -1568 1843 0
v -1568 1715 0
v -1760 563 0
v -1760 819 0
v -1888 819 0
v -1888 563 0
v -128 1427 0
v -128 1907 0
v -192 1907 0
v -192 1427 0
v -128 947 0
v -128 1427 0
v -192 1427 0
v -192 947 0
v -768 1715 0
v -768 1875 0
v -896 1875 0
v -896 1715 0
v -960 51 0
v -960 179 0
v -1120 179 0
v -1120 51 0
v -800 51 0
v -800 179 0
v -960 179 0
v -960 51 0
v -64 1267 0
v -64 1523 0
v -128 1523 0
v -128 1267 0
v -64 1043 0
v -64 1267 0
v -128 1267 0
v -128 1043 0
v -1408 115 0
v -1408 179 0
v -1568 179 0
v -1568 115 0
v -960 0 0
v -960 51 0
v -1088 51 0
v -1088 0 0
v -1568 1715 0
v -1568 1779 0
v -1696 1779 0
v -1696 1715 0
v -1568 115 0
v -1568 179 0
v -1696 179 0
v -1696 115 0
v -128 371 0
v -128 467 0
v -192 467 0
v -192 371 0
v -640 115 0
v -640 179 0
v -736 179 0
v -736 115 0
v -320 243 0
v -320 307 0
v -416 307 0
v -416 243 0
v -480 1715 0
v -480 1779 0
v -576 1779 0
v -576 1715 0
v -1216 1843 0
v -1216 1875 0
v -1408 1875 0
v -1408 1843 0
v -1696 1715 0
v -1696 1779 0
v -1792 1779 0
v -1792 1715 0
v -1888 467 0
v -1888 659 0
v -1920 659 0
v -1920 467 0
v -1920 307 0
v -1920 403 0
v -1984 403 0
v -1984 307 0
v -96 1747 0
v -96 1907 0
v -128 1907 0
v -128 1747 0
v -2016 1299 0
v -2016 1459 0
v -2047 1459 0
v -2047 1299 0
v -1888 307 0
v -1888 467 0
v -1920 467 0
v -1920 307 0
v -1408 1843 0
v -1408 1875 0
v -1568 1875 0
v -1568 1843 0
v -736 115 0
v -736 179 0
v -800 179 0
v -800 115 0
v -1824 1587 0
v -1824 1651 0
v -1888 1651 0
v -1888 1587 0
v -64 371 0
v -64 435 0
v -128 435 0
v -128 371 0
v -960 1747 0
v -960 1811 0
v -1024 1811 0
v -1024 1747 0
v -416 243 0
v -416 307 0
v -480 307 0
v -480 243 0
v -128 307 0
v -128 371 0
v -192 371 0
v -192 307 0
v -96 1619 0
v -96 1747 0
v -128 1747 0
v -128 1619 0
v -2016 1171 0
v -2016 1299 0
v -2047 1299 0
v -2047 1171 0
v -192 1843 0
v -192 1875 0
v -320 1875 0
v -320 1843 0
v -320 1843 0
v -320 1875 0
v -416 1875 0
v -416 1843 0
v -1536 83 0
v -1536 115 0
v -1632 115 0
v -1632 83 0
v -32 1299 0
v -32 1395 0
v -64 1395 0
v -64 1299 0
v -32 1395 0
v -32 1491 0
v -64 1491 0
v -64 1395 0
v -1952 1203 0
v -1952 1299 0
v -1984 1299 0
v -1984 1203 0
v -1952 1107 0
v -1952 1203 0
v -1984 1203 0
v -1984 1107 0
v -864 19 0
v -864 51 0
v -928 51 0
v -928 19 0
v -96 979 0
v -96 1043 0
v -128 1043 0
v -128 979 0
v -1888 1587 0
v -1888 1619 0
v -1952 1619 0
v -1952 1587 0
v -2016 1619 0
v -2016 1683 0
v -2047 1683 0
v -2047 1619 0
v -96 499 0
v -96 531 0
v -160 531 0
v -160 499 0
v -96 755 0
v -96 787 0
v -160 787 0
v -160 755 0
v -544 147 0
v -544 179 0
v -608 179 0
v -608 147 0
v -704 83 0
v -704 115 0
v -768 115 0
v -768 83 0
v -1312 147 0
v -1312 179 0
v -1376 179 0
v -1376 147 0
v -128 211 0
v -128 275 0
v -160 275 0
v -160 211 0
v -256 275 0
v -256 307 0
v -320 307 0
v -320 275 0
v -1120 115 0
v -1120 179 0
v -1152 179 0
v -1152 115 0
v -416 211 0
v -416 243 0
v -480 243 0
v -480 211 0
v -1920 467 0
v -1920 531 0
v -1952 531 0
v -1952 467 0
v -160 883 0
v -160 947 0
v -192 947 0
v -192 883 0
v -1952 979 0
v -1952 1043 0
v -1984 1043 0
v -1984 979 0
v -0 691 0
v -0 755 0
v -32 755 0
v -32 691 0
v -1952 787 0
v -1952 851 0
v -1984 851 0
v -1984 787 0
v -1440 1875 0
v -1440 1907 0
v -1504 1907 0
v -1504 1875 0
v -768 1875 0
v -768 1907 0
v -832 1907 0
v -832 1875 0
v -1632 83 0
v -1632 115 0
v -1696 115 0
v -1696 83 0
v -576 1715 0
v -576 1747 0
v -640 1747 0
v -640 1715 0
v -1696 275 0
v -1696 307 0
v -1760 307 0
v -1760 275 0
v -1920 947 0
v -1920 1011 0
v -1952 1011 0
v -1952 947 0
v -1920 1011 0
v -1920 1075 0
v -1952 1075 0
v -1952 1011 0
v -1920 787 0
v -1920 851 0
v -1952 851 0
v -1952 787 0
v -1920 851 0
v -1920 915 0
v -1952 915 0
v -1952 851 0
v -64 1651 0
v -64 1715 0
v -96 1715 0
v -96 1651 0
v -1760 275 0
v -1760 307 0
v -1824 307 0
v -1824 275 0
v -32 1075 0
v -32 1139 0
v -64 1139 0
v -64 1075 0
v -1984 1171 0
v -1984 1235 0
v -2016 1235 0
v -2016 1171 0
v -160 211 0
v -160 243 0
v -192 243 0
v -192 211 0
v -1568 1779 0
v -1568 1811 0
v -1600 1811 0
v -1600 1779 0
v -96 147 0
v -96 179 0
v -128 179 0
v -128 147 0
v -0 531 0
v -0 563 0
v -32 563 0
v -32 531 0
v -1152 147 0
v -1152 179 0
v -1184 179 0
v -1184 147 0
v -1696 243 0
v -1696 275 0
v -1728 275 0
v -1728 243 0
v -96 339 0
v -96 371 0
v -128 371 0
v -128 339 0
v -96 467 0
v -96 499 0
v -128 499 0
v -128 467 0
v -32 1651 0
v -32 1683 0
v -64 1683 0
v -64 1651 0
v -1920 403 0
v -1920 435 0
v -1952 435 0
v -1952 403 0
v -992 1715 0
v -992 1747 0
v -1024 1747 0
v -1024 1715 0
v -64 211 0
v -64 243 0
v -96 243 0
v -96 211 0
v -480 1779 0
v -480 1811 0
v -512 1811 0
v -512 1779 0
v -608 147 0
v -608 179 0
v -640 179 0
v -640 147 0
v -64 1619 0
v -64 1651 0
v -96 1651 0
v -96 1619 0
v -1376 147 0
v -1376 179 0
v -1408 179 0
v -1408 147 0
v -160 755 0
v -160 787 0
v -192 787 0
v -192 755 0
v -1984 1139 0
v -1984 1171 0
v -2016 1171 0
v -2016 1139 0
v -160 499 0
v -160 531 0
v -192 531 0
v -192 499 0
v -1504 1875 0
v -1504 1907 0
v -1536 1907 0
v -1536 1875 0
v -832 1875 0
v -832 1907 0
v -864 1907 0
v -864 1875 0
v -32 1043 0
v -32 1075 0
v -64 1075 0
v -64 1043 0
v -768 83 0
v -768 115 0
v -800 115 0
v -800 83 0
v -640 1715 0
v -640 1747 0
v -672 1747 0
v -672 1715 0
v -928 19 0
v -928 51 0
v -960 51 0
v -960 19 0
vt 0.00048828125 0.000609755516
vt 0.00048828125 0.859146357
vt 0.391113281 0.859146357
vt 0.391113281 0.000609755516
vt 0.392089844 0.000609755516
vt 0.392089844 0.859146357
vt 0.767089844 0.859146357
vt 0.767089844 0.000609755516
vt 0.00048828125 0.860365868
vt 0.00048828125 0.938414633
vt 0.297363281 0.938414633
vt 0.297363281 0.860365868
vt 0.298339844 0.860365868
vt 0.298339844 0.938414633
vt 0.595214844 0.938414633
vt 0.595214844 0.860365868
vt 0.768066406 0.000609755516
vt 0.768066406 0.156707346
vt 0.861816406 0.156707346
vt 0.861816406 0.000609755516
vt 0.862792969 0.000609755516
vt 0.862792969 0.176219523
vt 0.940917969 0.176219523
vt 0.940917969 0.000609755516
vt 0.768066406 0.157926857
vt 0.768066406 0.294512212
vt 0.861816406 0.294512212
vt 0.861816406 0.157926857
vt 0.768066406 0.295731723
vt 0.768066406 0.373780489
vt 0.908691406 0.373780489
vt 0.908691406 0.295731723
vt 0.768066406 0.375
vt 0.768066406 0.453048766
vt 0.908691406 0.453048766
vt 0.908691406 0.375
vt 0.909667969 0.177439034
vt 0.909667969 0.314024389
vt 0.987792969 0.314024389
vt 0.987792969 0.177439034
vt 0.909667969 0.3152439
vt 0.909667969 0.471341491
vt 0.972167969 0.471341491
vt 0.972167969 0.3152439
vt 0.768066406 0.454268277
vt 0.768066406 0.532317042
vt 0.893066406 0.532317042
vt 0.893066406 0.454268277
vt 0.909667969 0.472561002
vt 0.909667969 0.628658533
vt 0.972167969 0.628658533
vt 0.972167969 0.472561002
vt 0.768066406 0.533536553
vt 0.768066406 0.826219499
vt 0.799316406 0.826219499
vt 0.799316406 0.533536553
vt 0.800292969 0.533536553
vt 0.800292969 0.826219499
vt 0.831542969 0.826219499
vt 0.831542969 0.533536553
vt 0.832519531 0.533536553
vt 0.832519531 0.631097555
vt 0.895019531 0.631097555
vt 0.895019531 0.533536553
vt 0.909667969 0.629878044
vt 0.909667969 0.707926869
vt 0.987792969 0.707926869
vt 0.987792969 0.629878044
vt 0.909667969 0.70914638
vt 0.909667969 0.787195086
vt 0.987792969 0.787195086
vt 0.987792969 0.70914638
vt 0.832519531 0.632317066
vt 0.832519531 0.788414598
vt 0.863769531 0.788414598
vt 0.863769531 0.632317066
vt 0.864746094 0.632317066
vt 0.864746094 0.768902421
vt 0.895996094 0.768902421
vt 0.895996094 0.632317066
vt 0.909667969 0.788414598
vt 0.909667969 0.82743901
vt 0.987792969 0.82743901
vt 0.987792969 0.788414598
vt 0.832519531 0.789634168
vt 0.832519531 0.821341455
vt 0.895019531 0.821341455
vt 0.895019531 0.789634168
vt 0.832519531 0.822560966
vt 0.832519531 0.861585379
vt 0.895019531 0.861585379
vt 0.895019531 0.822560966
vt 0.768066406 0.82743901
vt 0.768066406 0.866463423
vt 0.830566406 0.866463423
vt 0.830566406 0.82743901
vt 0.909667969 0.828658521
vt 0.909667969 0.88719511
vt 0.940917969 0.88719511
vt 0.940917969 0.828658521
vt 0.941894531 0.828658521
vt 0.941894531 0.867682934
vt 0.988769531 0.867682934
vt 0.988769531 0.828658521
vt 0.596191406 0.860365868
vt 0.596191406 0.899390221
vt 0.643066406 0.899390221
vt 0.643066406 0.860365868
vt 0.644042969 0.860365868
vt 0.644042969 0.899390221
vt 0.690917969 0.899390221
vt 0.690917969 0.860365868
vt 0.768066406 0.867682934
vt 0.768066406 0.88719511
vt 0.861816406 0.88719511
vt 0.861816406 0.867682934
vt 0.691894531 0.860365868
vt 0.691894531 0.899390221
vt 0.738769531 0.899390221
vt 0.738769531 0.860365868
vt 0.739746094 0.860365868
vt 0.739746094 0.977439046
vt 0.755371094 0.977439046
vt 0.755371094 0.860365868
vt 0.862792969 0.86280489
vt 0.862792969 0.921341479
vt 0.894042969 0.921341479
vt 0.894042969 0.86280489
vt 0.941894531 0.868902445
vt 0.941894531 0.966463387
vt 0.957519531 0.966463387
vt 0.957519531 0.868902445
vt 0.958496094 0.868902445
vt 0.958496094 0.966463387
vt 0.974121094 0.966463387
vt 0.974121094 0.868902445
vt 0.975097656 0.868902445
vt 0.975097656 0.966463387
vt 0.990722656 0.966463387
vt 0.990722656 0.868902445
vt 0.768066406 0.888414621
vt 0.768066406 0.907926798
vt 0.846191406 0.907926798
vt 0.846191406 0.888414621
vt 0.909667969 0.888414621
vt 0.909667969 0.927439034
vt 0.940917969 0.927439034
vt 0.940917969 0.888414621
vt 0.596191406 0.900609732
vt 0.596191406 0.939634144
vt 0.627441406 0.939634144
vt 0.627441406 0.900609732
vt 0.628417969 0.900609732
vt 0.628417969 0.939634144
vt 0.659667969 0.939634144
vt 0.659667969 0.900609732
vt 0.660644531 0.900609732
vt 0.660644531 0.939634144
vt 0.691894531 0.939634144
vt 0.691894531 0.900609732
vt 0.692871094 0.900609732
vt 0.692871094 0.939634144
vt 0.724121094 0.939634144
vt 0.724121094 0.900609732
vt 0.768066406 0.909146309
vt 0.768066406 0.948170722
vt 0.799316406 0.948170722
vt 0.799316406 0.909146309
vt 0.800292969 0.909146309
vt 0.800292969 0.987195134
vt 0.815917969 0.987195134
vt 0.815917969 0.909146309
vt 0.816894531 0.909146309
vt 0.816894531 0.987195134
vt 0.832519531 0.987195134
vt 0.832519531 0.909146309
vt 0.00048828125 0.939634144
vt 0.00048828125 0.959146321
vt 0.0629882812 0.959146321
vt 0.0629882812 0.939634144
vt 0.0639648438 0.939634144
vt 0.0639648438 0.959146321
vt 0.110839844 0.959146321
vt 0.110839844 0.939634144
vt 0.111816406 0.939634144
vt 0.111816406 0.959146321
vt 0.158691406 0.959146321
vt 0.158691406 0.939634144
vt 0.833496094 0.909146309
vt 0.833496094 0.967682958
vt 0.849121094 0.967682958
vt 0.849121094 0.909146309
vt 0.862792969 0.92256099
vt 0.862792969 0.981097579
vt 0.878417969 0.981097579
vt 0.878417969 0.92256099
vt 0.879394531 0.92256099
vt 0.879394531 0.981097579
vt 0.895019531 0.981097579
vt 0.895019531 0.92256099
vt 0.909667969 0.928658545
vt 0.909667969 0.987195134
vt 0.925292969 0.987195134
vt 0.925292969 0.928658545
vt 0.159667969 0.939634144
vt 0.159667969 0.959146321
vt 0.190917969 0.959146321
vt 0.190917969 0.939634144
vt 0.191894531 0.939634144
vt 0.191894531 0.978658557
vt 0.207519531 0.978658557
vt 0.207519531 0.939634144
vt 0.208496094 0.939634144
vt 0.208496094 0.959146321
vt 0.239746094 0.959146321
vt 0.239746094 0.939634144
vt 0.240722656 0.939634144
vt 0.240722656 0.978658557
vt 0.256347656 0.978658557
vt 0.256347656 0.939634144
vt 0.257324219 0.939634144
vt 0.257324219 0.959146321
vt 0.288574219 0.959146321
vt 0.288574219 0.939634144
vt 0.289550781 0.939634144
vt 0.289550781 0.959146321
vt 0.320800781 0.959146321
vt 0.320800781 0.939634144
vt 0.321777344 0.939634144
vt 0.321777344 0.959146321
vt 0.353027344 0.959146321
vt 0.353027344 0.939634144
vt 0.354003906 0.939634144
vt 0.354003906 0.959146321
vt 0.385253906 0.959146321
vt 0.385253906 0.939634144
vt 0.386230469 0.939634144
vt 0.386230469 0.959146321
vt 0.417480469 0.959146321
vt 0.417480469 0.939634144
vt 0.418457031 0.939634144
vt 0.418457031 0.978658557
vt 0.434082031 0.978658557
vt 0.434082031 0.939634144
vt 0.435058594 0.939634144
vt 0.435058594 0.959146321
vt 0.466308594 0.959146321
vt 0.466308594 0.939634144
vt 0.467285156 0.939634144
vt 0.467285156 0.978658557
vt 0.482910156 0.978658557
vt 0.482910156 0.939634144
vt 0.483886719 0.939634144
vt 0.483886719 0.959146321
vt 0.515136719 0.959146321
vt 0.515136719 0.939634144
vt 0.516113281 0.939634144
vt 0.516113281 0.978658557
vt 0.531738281 0.978658557
vt 0.531738281 0.939634144
vt 0.532714844 0.939634144
vt 0.532714844 0.978658557
vt 0.548339844 0.978658557
vt 0.548339844 0.939634144
vt 0.549316406 0.939634144
vt 0.549316406 0.978658557
vt 0.564941406 0.978658557
vt 0.564941406 0.939634144
vt 0.565917969 0.939634144
vt 0.565917969 0.978658557
vt 0.581542969 0.978658557
vt 0.581542969 0.939634144
vt 0.596191406 0.940853655
vt 0.596191406 0.979878068
vt 0.611816406 0.979878068
vt 0.611816406 0.940853655
vt 0.612792969 0.940853655
vt 0.612792969 0.960365832
vt 0.644042969 0.960365832
vt 0.644042969 0.940853655
vt 0.645019531 0.940853655
vt 0.645019531 0.960365832
vt 0.676269531 0.960365832
vt 0.676269531 0.940853655
vt 0.677246094 0.940853655
vt 0.677246094 0.960365832
vt 0.708496094 0.960365832
vt 0.708496094 0.940853655
vt 0.768066406 0.949390233
vt 0.768066406 0.968902469
vt 0.799316406 0.968902469
vt 0.799316406 0.949390233
vt 0.00048828125 0.960365832
vt 0.00048828125 0.979878068
vt 0.0317382812 0.979878068
vt 0.0317382812 0.960365832
vt 0.709472656 0.940853655
vt 0.709472656 0.979878068
vt 0.725097656 0.979878068
vt 0.725097656 0.940853655
vt 0.0327148438 0.960365832
vt 0.0327148438 0.999390244
vt 0.0483398438 0.999390244
vt 0.0483398438 0.960365832
vt 0.0493164062 0.960365832
vt 0.0493164062 0.999390244
vt 0.0649414062 0.999390244
vt 0.0649414062 0.960365832
vt 0.0659179688 0.960365832
vt 0.0659179688 0.999390244
vt 0.0815429688 0.999390244
vt 0.0815429688 0.960365832
vt 0.0825195312 0.960365832
vt 0.0825195312 0.999390244
vt 0.0981445312 0.999390244
vt 0.0981445312 0.960365832
vt 0.0991210938 0.960365832
vt 0.0991210938 0.979878068
vt 0.130371094 0.979878068
vt 0.130371094 0.960365832
vt 0.131347656 0.960365832
vt 0.131347656 0.999390244
vt 0.146972656 0.999390244
vt 0.146972656 0.960365832
vt 0.147949219 0.960365832
vt 0.147949219 0.999390244
vt 0.163574219 0.999390244
vt 0.163574219 0.960365832
vt 0.164550781 0.960365832
vt 0.164550781 0.979878068
vt 0.180175781 0.979878068
vt 0.180175781 0.960365832
vt 0.208496094 0.960365832
vt 0.208496094 0.979878068
vt 0.224121094 0.979878068
vt 0.224121094 0.960365832
vt 0.257324219 0.960365832
vt 0.257324219 0.979878068
vt 0.272949219 0.979878068
vt 0.272949219 0.960365832
vt 0.273925781 0.960365832
vt 0.273925781 0.979878068
vt 0.289550781 0.979878068
vt 0.289550781 0.960365832
vt 0.290527344 0.960365832
vt 0.290527344 0.979878068
vt 0.306152344 0.979878068
vt 0.306152344 0.960365832
vt 0.307128906 0.960365832
vt 0.307128906 0.979878068
vt 0.322753906 0.979878068
vt 0.322753906 0.960365832
vt 0.323730469 0.960365832
vt 0.323730469 0.979878068
vt 0.339355469 0.979878068
vt 0.339355469 0.960365832
vt 0.340332031 0.960365832
vt 0.340332031 0.979878068
vt 0.355957031 0.979878068
vt 0.355957031 0.960365832
vt 0.356933594 0.960365832
vt 0.356933594 0.979878068
vt 0.372558594 0.979878068
vt 0.372558594 0.960365832
vt 0.373535156 0.960365832
vt 0.373535156 0.979878068
vt 0.389160156 0.979878068
vt 0.389160156 0.960365832
vt 0.390136719 0.960365832
vt 0.390136719 0.979878068
vt 0.405761719 0.979878068
vt 0.405761719 0.960365832
vt 0.435058594 0.960365832
vt 0.435058594 0.979878068
vt 0.450683594 0.979878068
vt 0.450683594 0.960365832
vt 0.483886719 0.960365832
vt 0.483886719 0.979878068
vt 0.499511719 0.979878068
vt 0.499511719 0.960365832
vt 0.612792969 0.961585343
vt 0.612792969 0.981097579
vt 0.628417969 0.981097579
vt 0.628417969 0.961585343
vt 0.629394531 0.961585343
vt 0.629394531 0.981097579
vt 0.645019531 0.981097579
vt 0.645019531 0.961585343
vt 0.645996094 0.961585343
vt 0.645996094 0.981097579
vt 0.661621094 0.981097579
vt 0.661621094 0.961585343
vt 0.662597656 0.961585343
vt 0.662597656 0.981097579
vt 0.678222656 0.981097579
vt 0.678222656 0.961585343
vt 0.679199219 0.961585343
vt 0.679199219 0.981097579
vt 0.694824219 0.981097579
vt 0.694824219 0.961585343
vt 0.941894531 0.967682958
vt 0.941894531 0.987195134
vt 0.957519531 0.987195134
vt 0.957519531 0.967682958
vt 0.958496094 0.967682958
vt 0.958496094 0.987195134
vt 0.974121094 0.987195134
vt 0.974121094 0.967682958
vt 0.975097656 0.967682958
vt 0.975097656 0.987195134
vt 0.990722656 0.987195134
vt 0.990722656 0.967682958
vt 0.833496094 0.968902469
vt 0.833496094 0.988414645
vt 0.849121094 0.988414645
vt 0.849121094 0.968902469
vt 0.768066406 0.97012198
vt 0.768066406 0.989634156
vt 0.783691406 0.989634156
vt 0.783691406 0.97012198
vt 0.739746094 0.978658557
vt 0.739746094 0.998170733
vt 0.755371094 0.998170733
vt 0.755371094 0.978658557
vt 0.191894531 0.979878068
vt 0.191894531 0.999390244
vt 0.207519531 0.999390244
vt 0.207519531 0.979878068
g lvzi_2-mesh_0
f 3/3/3 2/2/2 1/1/1
f 1/1/1 4/4/4 3/3/3
f 7/7/7 6/6/6 5/5/5
f 5/5/5 8/8/8 7/7/7
f 11/11/11 10/10/10 9/9/9
f 9/9/9 12/12/12 11/11/11
f 15/15/15 14/14/14 13/13/13
f 13/13/13 16/16/16 15/15/15
f 19/19/19 18/18/18 17/17/17
f 17/17/17 20/20/20 19/19/19
f 23/23/23 22/22/22 21/21/21
f 21/21/21 24/24/24 23/23/23
f 27/27/27 26/26/26 25/25/25
f 25/25/25 28/28/28 27/27/27
f 31/31/31 30/30/30 29/29/29
f 29/29/29 32/32/32 31/31/31
f 35/35/35 34/34/34 33/33/33
f 33/33/33 36/36/36 35/35/35
f 39/39/39 38/38/38 37/37/37
f 37/37/37 40/40/40 39/39/39
f 43/43/43 42/42/42 41/41/41
f 41/41/41 44/44/44 43/43/43
f 47/47/47 46/46/46 45/45/45
f 45/45/45 48/48/48 47/47/47
f 51/51/51 50/50/50 49/49/49
f 49/49/49 52/52/52 51/51/51
f 55/55/55 54/54/54 53/53/53
f 53/53/53 56/56/56 55/55/55
f 59/59/59 58/58/58 57/57/57
f 57/57/57 60/60/60 59/59/59
f 63/63/63 62/62/62 61/61/61
f 61/61/61 64/64/64 63/63/63
f 67/67/67 66/66/66 65/65/65
f 65/65/65 68/68/68 67/67/67
f 71/71/71 70/70/70 69/69/69
f 69/69/69 72/72/72 71/71/71
f 75/75/75 74/74/74 73/73/73
f 73/73/73 76/76/76 75/75/75
f 79/79/79 78/78/78 77/77/77
f 77/77/77 80/80/80 79/79/79
f 83/83/83 82/82/82 81/81/81
f 81/81/81 84/84/84 83/83/83
f 87/87/87 86/86/86 85/85/85
f 85/85/85 88/88/88 87/87/87
f 91/91/91 90/90/90 89/89/89
f 89/89/89 92/92/92 91/91/91
f 95/95/95 94/94/94 93/93/93
f 93/93/93 96/96/96 95/95/95
f 99/99/99 98/98/98 97/97/97
f 97/97/97 100/100/100 99/99/99
f 103/103/103 102/102/102 101/101/101
f 101/101/101 104/104/104 103/103/103
f 107/107/107 106/106/106 105/105/105
f 105/105/105 108/108/108 107/107/107
f 111/111/111 110/110/110 109/109/109
f 109/109/109 112/112/112 111/111/111
f 115/115/115 114/114/114 113/113/113
f 113/113/113 116/116/116 115/115/115
f 119/119/119 118/118/118 117/117/117
f 117/117/117 120/120/120 119/119/119
f 123/123/123 122/122/122 121/121/121
f 121/121/121 124/124/124 123/123/123
f 127/127/127 126/126/126 125/125/125
f 125/125/125 128/128/128 127/127/127
f 131/131/131 130/130/130 129/129/129
f 129/129/129 132/132/132 131/131/131
f 135/135/135 134/134/134 133/133/133
f 133/133/133 136/136/136 135/135/135
f 139/139/139 138/138/138 137/137/137
f 137/137/137 140/140/140 139/139/139
f 143/143/143 142/142/142 141/141/141
f 141/141/141 144/144/144 143/143/143
f 147/147/147 146/146/146 145/145/145
f 145/145/145 148/148/148 147/147/147
f 151/151/151 150/150/150 149/149/149
f 149/149/149 152/152/152 151/151/151
f 155/155/155 154/154/154 153/153/153
f 153/153/153 156/156/156 155/155/155
f 159/159/159 158/158/158 157/157/157
f 157/157/157 160/160/160 159/159/159
f 163/163/163 162/162/162 161/161/161
f 161/161/161 164/164/164 163/163/163
f 167/167/167 166/166/166 165/165/165
f 165/165/165 168/168/168 167/167/167
f 171/171/171 170/170/170 169/169/169
f 169/169/169 172/172/172 171/171/171
f 175/175/175 174/174/174 173/173/173
f 173/173/173 176/176/176 175/175/175
f 179/179/179 178/178/178 177/177/177
f 177/177/177 180/180/180 179/179/179
f 183/183/183 182/182/182 181/181/181
f 181/181/181 184/184/184 183/183/183
f 187/187/187 186/186/186 185/185/185
f 185/185/185 188/188/188 187/187/187
f 191/191/191 190/190/190 189/189/189
f 189/189/189 192/192/192 191/191/191
f 195/195/195 194/194/194 193/193/193
f 193/193/193 196/196/196 195/195/195
f 199/199/199 198/198/198 197/197/197
f 197/197/197 200/200/200 199/199/199
f 203/203/203 202/202/202 201/201/201
f 201/201/201 204/204/204 203/203/203
f 207/207/207 206/206/206 205/205/205
f 205/205/205 208/208/208 207/207/207
f 211/211/211 210/210/210 209/209/209
f 209/209/209 212/212/212 211/211/211
f 215/215/215 214/214/214 213/213/213
f 213/213/213 216/216/216 215/215/215
f 219/219/219 218/218/218 217/217/217
f 217/217/217 220/220/220 219/219/219
f 223/223/223 222/222/222 221/221/221
f 221/221/221 224/224/224 223/223/223
f 227/227/227 226/226/226 225/225/225
f 225/225/225 228/228/228 227/227/227
f 231/231/231 230/230/230 229/229/229
f 229/229/229 232/232/232 231/231/231
f 235/235/235 234/234/234 233/233/233
f 233/233/233 236/236/236 235/235/235
f 239/239/239 238/238/238 237/237/237
f 237/237/237 240/240/240 239/239/239
f 243/243/243 242/242/242 241/241/241
f 241/241/241 244/244/244 243/243/243
f 247/247/247 246/246/246 245/245/245
f 245/245/245 248/248/248 247/247/247
f 251/251/251 250/250/250 249/249/249
f 249/249/249 252/252/252 251/251/251
f 255/255/255 254/254/254 253/253/253
f 253/253/253 256/256/256 255/255/255
f 259/259/259 258/258/258 257/257/257
f 257/257/257 260/260/260 259/259/259
f 263/263/263 262/262/262 261/261/261
f 261/261/261 264/264/264 263/263/263
f 267/267/267 266/266/266 265/265/265
f 265/265/265 268/268/268 267/267/267
f 271/271/271 270/270/270 269/269/269
f 269/269/269 272/272/272 271/271/271
f 275/275/275 274/274/274 273/273/273
f 273/273/273 276/276/276 275/275/275
f 279/279/279 278/278/278 277/277/277
f 277/277/277 280/280/280 279/279/279
f 283/283/283 282/282/282 281/281/281
f 281/281/281 284/284/284 283/283/283
f 287/287/287 286/286/286 285/285/285
f 285/285/285 288/288/288 287/287/287
f 291/291/291 290/290/290 289/289/289
f 289/289/289 292/292/292 291/291/291
f 295/295/295 294/294/294 293/293/293
f 293/293/293 296/296/296 295/295/295
f 299/299/299 298/298/298 297/297/297
f 297/297/297 300/300/300 299/299/299
f 303/303/303 302/302/302 301/301/301
f 301/301/301 304/304/304 303/303/303
f 307/307/307 306/306/306 305/305/305
f 305/305/305 308/308/308 307/307/307
f 311/311/311 310/310/310 309/309/309
f 309/309/309 312/312/312 311/311/311
f 315/315/315 314/314/314 313/313/313
f 313/313/313 316/316/316 315/315/315
f 319/319/319 318/318/318 317/317/317
f 317/317/317 320/320/320 319/319/319
f 323/323/323 322/322/322 321/321/321
f 321/321/321 324/324/324 323/323/323
f 327/327/327 326/326/326 325/325/325
f 325/325/325 328/328/328 327/327/327
f 331/331/331 330/330/330 329/329/329
f 329/329/329 332/332/332 331/331/331
f 335/335/335 334/334/334 333/333/333
f 333/333/333 336/336/336 335/335/335
f 339/339/339 338/338/338 337/337/337
f 337/337/337 340/340/340 339/339/339
f 343/343/343 342/342/342 341/341/341
f 341/341/341 344/344/344 343/343/343
f 347/347/347 346/346/346 345/345/345
f 345/345/345 348/348/348 347/347/347
f 351/351/351 350/350/350 349/349/349
f 349/349/349 352/352/352 351/351/351
f 355/355/355 354/354/354 353/353/353
f 353/353/353 356/356/356 355/355/355
f 359/359/359 358/358/358 357/357/357
f 357/357/357 360/360/360 359/359/359
f 363/363/363 362/362/362 361/361/361
f 361/361/361 364/364/364 363/363/363
f 367/367/367 366/366/366 365/365/365
f 365/365/365 368/368/368 367/367/367
f 371/371/371 370/370/370 369/369/369
f 369/369/369 372/372/372 371/371/371
f 375/375/375 374/374/374 373/373/373
f 373/373/373 376/376/376 375/375/375
f 379/379/379 378/378/378 377/377/377
f 377/377/377 380/380/380 379/379/379
f 383/383/383 382/382/382 381/381/381
f 381/381/381 384/384/384 383/383/383
f 387/387/387 386/386/386 385/385/385
f 385/385/385 388/388/388 387/387/387
f 391/391/391 390/390/390 389/389/389
f 389/389/389 392/392/392 391/391/391
f 395/395/395 394/394/394 393/393/393
f 393/393/393 396/396/396 395/395/395
f 399/399/399 398/398/398 397/397/397
f 397/397/397 400/400/400 399/399/399
f 403/403/403 402/402/402 401/401/401
f 401/401/401 404/404/404 403/403/403
f 407/407/407 406/406/406 405/405/405
f 405/405/405 408/408/408 407/407/407
f 411/411/411 410/410/410 409/409/409
f 409/409/409 412/412/412 411/411/411
f 415/415/415 414/414/414 413/413/413
f 413/413/413 416/416/416 415/415/415
f 419/419/419 418/418/418 417/417/417
f 417/417/417 420/420/420 419/419/419
f 423/423/423 422/422/422 421/421/421
f 421/421/421 424/424/424 423/423/423
f 427/427/427 426/426/426 425/425/425
f 425/425/425 428/428/428 427/427/427
