g yixian-mesh
v -64 607 0
v -64 959 0
v -288 959 0
v -288 607 0
v -288 383 0
v -288 703 0
v -512 703 0
v -512 383 0
v -64 287 0
v -64 607 0
v -288 607 0
v -288 287 0
v -160 0 0
v -160 287 0
v -320 287 0
v -320 0 0
v -352 287 0
v -352 383 0
v -544 383 0
v -544 287 0
v -288 703 0
v -288 863 0
v -384 863 0
v -384 703 0
v -288 863 0
v -288 1023 0
v -384 1023 0
v -384 863 0
v -544 287 0
v -544 383 0
v -704 383 0
v -704 287 0
v -160 959 0
v -160 1023 0
v -288 1023 0
v -288 959 0
v -384 863 0
v -384 991 0
v -448 991 0
v -448 863 0
v -512 575 0
v -512 703 0
v -576 703 0
v -576 575 0
v -0 639 0
v -0 767 0
v -64 767 0
v -64 639 0
v -0 511 0
v -0 639 0
v -64 639 0
v -64 511 0
v -416 223 0
v -416 287 0
v -512 287 0
v -512 223 0
v -320 223 0
v -320 287 0
v -416 287 0
v -416 223 0
v -320 159 0
v -320 223 0
v -384 223 0
v -384 159 0
v -512 383 0
v -512 415 0
v -608 415 0
v -608 383 0
v -32 831 0
v -32 927 0
v -64 927 0
v -64 831 0
v -512 511 0
v -512 575 0
v -544 575 0
v -544 511 0
v -0 799 0
v -0 863 0
v -32 863 0
v -32 799 0
v -96 959 0
v -96 991 0
v -160 991 0
v -160 959 0
v -32 287 0
v -32 351 0
v -64 351 0
v -64 287 0
v -704 287 0
v -704 351 0
v -717 351 0
v -717 287 0
v -32 415 0
v -32 479 0
v -64 479 0
v -64 415 0
v -512 415 0
v -512 479 0
v -544 479 0
v -544 415 0
v -480 703 0
v -480 735 0
v -544 735 0
v -544 703 0
v -416 703 0
v -416 735 0
v -480 735 0
v -480 703 0
v -32 767 0
v -32 831 0
v -64 831 0
v -64 767 0
v -128 223 0
v -128 287 0
v -160 287 0
v -160 223 0
v -608 383 0
v -608 415 0
v -672 415 0
v -672 383 0
v -320 31 0
v -320 95 0
v -352 95 0
v -352 31 0
v -128 159 0
v -128 223 0
v -160 223 0
v -160 159 0
v -320 351 0
v -320 383 0
v -352 383 0
v -352 351 0
v -608 415 0
v -608 447 0
v -640 447 0
v -640 415 0
v -544 415 0
v -544 447 0
v -576 447 0
v -576 415 0
v -384 191 0
v -384 223 0
v -416 223 0
v -416 191 0
v -96 255 0
v -96 287 0
v -128 287 0
v -128 255 0
v -320 287 0
v -320 319 0
v -352 319 0
v -352 287 0
v -448 863 0
v -448 895 0
v -480 895 0
v -480 863 0
v -384 991 0
v -384 1023 0
v -416 1023 0
v -416 991 0
v -320 0 0
v -320 31 0
v -352 31 0
v -352 0 0
v -608 607 0
v -608 639 0
v -640 639 0
v -640 607 0
v -448 767 0
v -448 799 0
v -480 799 0
v -480 767 0
v -384 831 0
v -384 863 0
v -416 863 0
v -416 831 0
vt 0.0009765625 0.00193047523
vt 0.0009765625 0.681467175
vt 0.219726562 0.681467175
vt 0.219726562 0.00193047523
vt 0.221679688 0.00193047523
vt 0.221679688 0.619691133
vt 0.440429688 0.619691133
vt 0.440429688 0.00193047523
vt 0.442382812 0.00193047523
vt 0.442382812 0.619691133
vt 0.661132812 0.619691133
vt 0.661132812 0.00193047523
vt 0.663085938 0.00193047523
vt 0.663085938 0.557915092
vt 0.819335938 0.557915092
vt 0.819335938 0.00193047523
vt 0.663085938 0.561776042
vt 0.663085938 0.747104287
vt 0.850585938 0.747104287
vt 0.850585938 0.561776042
vt 0.852539062 0.00193047523
vt 0.852539062 0.310810804
vt 0.946289062 0.310810804
vt 0.946289062 0.00193047523
vt 0.852539062 0.314671814
vt 0.852539062 0.623552084
vt 0.946289062 0.623552084
vt 0.946289062 0.314671814
vt 0.221679688 0.623552084
vt 0.221679688 0.808880329
vt 0.377929688 0.808880329
vt 0.377929688 0.623552084
vt 0.379882812 0.623552084
vt 0.379882812 0.747104287
vt 0.504882812 0.747104287
vt 0.504882812 0.623552084
vt 0.506835938 0.623552084
vt 0.506835938 0.870656371
vt 0.569335938 0.870656371
vt 0.569335938 0.623552084
vt 0.571289062 0.623552084
vt 0.571289062 0.870656371
vt 0.633789062 0.870656371
vt 0.633789062 0.623552084
vt 0.852539062 0.627413154
vt 0.852539062 0.874517381
vt 0.915039062 0.874517381
vt 0.915039062 0.627413154
vt 0.916992188 0.627413154
vt 0.916992188 0.874517381
vt 0.979492188 0.874517381
vt 0.979492188 0.627413154
vt 0.0009765625 0.685328186
vt 0.0009765625 0.808880329
vt 0.0947265625 0.808880329
vt 0.0947265625 0.685328186
vt 0.0966796875 0.685328186
vt 0.0966796875 0.808880329
vt 0.190429688 0.808880329
vt 0.190429688 0.685328186
vt 0.379882812 0.750965238
vt 0.379882812 0.874517381
vt 0.442382812 0.874517381
vt 0.442382812 0.750965238
vt 0.663085938 0.750965238
vt 0.663085938 0.81274128
vt 0.756835938 0.81274128
vt 0.756835938 0.750965238
vt 0.444335938 0.750965238
vt 0.444335938 0.936293423
vt 0.475585938 0.936293423
vt 0.475585938 0.750965238
vt 0.758789062 0.750965238
vt 0.758789062 0.874517381
vt 0.790039062 0.874517381
vt 0.790039062 0.750965238
vt 0.791992188 0.750965238
vt 0.791992188 0.874517381
vt 0.823242188 0.874517381
vt 0.823242188 0.750965238
vt 0.0009765625 0.81274128
vt 0.0009765625 0.874517381
vt 0.0634765625 0.874517381
vt 0.0634765625 0.81274128
vt 0.0654296875 0.81274128
vt 0.0654296875 0.936293423
vt 0.0966796875 0.936293423
vt 0.0966796875 0.81274128
vt 0.981445312 0.00193047523
vt 0.981445312 0.125482619
vt 0.995117188 0.125482619
vt 0.995117188 0.00193047523
vt 0.0986328125 0.81274128
vt 0.0986328125 0.936293423
vt 0.129882812 0.936293423
vt 0.129882812 0.81274128
vt 0.131835938 0.81274128
vt 0.131835938 0.936293423
vt 0.163085938 0.936293423
vt 0.163085938 0.81274128
vt 0.165039062 0.81274128
vt 0.165039062 0.874517381
vt 0.227539062 0.874517381
vt 0.227539062 0.81274128
vt 0.229492188 0.81274128
vt 0.229492188 0.874517381
vt 0.291992188 0.874517381
vt 0.291992188 0.81274128
vt 0.293945312 0.81274128
vt 0.293945312 0.936293423
vt 0.325195312 0.936293423
vt 0.325195312 0.81274128
vt 0.327148438 0.81274128
vt 0.327148438 0.936293423
vt 0.358398438 0.936293423
vt 0.358398438 0.81274128
vt 0.663085938 0.816602349
vt 0.663085938 0.878378391
vt 0.725585938 0.878378391
vt 0.725585938 0.816602349
vt 0.506835938 0.874517381
vt 0.506835938 0.998069525
vt 0.538085938 0.998069525
vt 0.538085938 0.874517381
vt 0.540039062 0.874517381
vt 0.540039062 0.998069525
vt 0.571289062 0.998069525
vt 0.571289062 0.874517381
vt 0.573242188 0.874517381
vt 0.573242188 0.936293423
vt 0.604492188 0.936293423
vt 0.604492188 0.874517381
vt 0.606445312 0.874517381
vt 0.606445312 0.936293423
vt 0.637695312 0.936293423
vt 0.637695312 0.874517381
vt 0.0009765625 0.878378391
vt 0.0009765625 0.940154433
vt 0.0322265625 0.940154433
vt 0.0322265625 0.878378391
vt 0.165039062 0.878378391
vt 0.165039062 0.940154433
vt 0.196289062 0.940154433
vt 0.196289062 0.878378391
vt 0.198242188 0.878378391
vt 0.198242188 0.940154433
vt 0.229492188 0.940154433
vt 0.229492188 0.878378391
vt 0.231445312 0.878378391
vt 0.231445312 0.940154433
vt 0.262695312 0.940154433
vt 0.262695312 0.878378391
vt 0.379882812 0.878378391
vt 0.379882812 0.940154433
vt 0.411132812 0.940154433
vt 0.411132812 0.878378391
vt 0.758789062 0.878378391
vt 0.758789062 0.940154433
vt 0.790039062 0.940154433
vt 0.790039062 0.878378391
vt 0.791992188 0.878378391
vt 0.791992188 0.940154433
vt 0.823242188 0.940154433
vt 0.823242188 0.878378391
vt 0.852539062 0.878378391
vt 0.852539062 0.940154433
vt 0.883789062 0.940154433
vt 0.883789062 0.878378391
vt 0.885742188 0.878378391
vt 0.885742188 0.940154433
vt 0.916992188 0.940154433
vt 0.916992188 0.878378391
vt 0.918945312 0.878378391
vt 0.918945312 0.940154433
vt 0.950195312 0.940154433
vt 0.950195312 0.878378391
g yixian-mesh_0
f 3/3/3 2/2/2 1/1/1
f 1/1/1 4/4/4 3/3/3
f 7/7/7 6/6/6 5/5/5
f 5/5/5 8/8/8 7/7/7
f 11/11/11 10/10/10 9/9/9
f 9/9/9 12/12/12 11/11/11
f 15/15/15 14/14/14 13/13/13
f 13/13/13 16/16/16 15/15/15
f 19/19/19 18/18/18 17/17/17
f 17/17/17 20/20/20 19/19/19
f 23/23/23 22/22/22 21/21/21
f 21/21/21 24/24/24 23/23/23
f 27/27/27 26/26/26 25/25/25
f 25/25/25 28/28/28 27/27/27
f 31/31/31 30/30/30 29/29/29
f 29/29/29 32/32/32 31/31/31
f 35/35/35 34/34/34 33/33/33
f 33/33/33 36/36/36 35/35/35
f 39/39/39 38/38/38 37/37/37
f 37/37/37 40/40/40 39/39/39
f 43/43/43 42/42/42 41/41/41
f 41/41/41 44/44/44 43/43/43
f 47/47/47 46/46/46 45/45/45
f 45/45/45 48/48/48 47/47/47
f 51/51/51 50/50/50 49/49/49
f 49/49/49 52/52/52 51/51/51
f 55/55/55 54/54/54 53/53/53
f 53/53/53 56/56/56 55/55/55
f 59/59/59 58/58/58 57/57/57
f 57/57/57 60/60/60 59/59/59
f 63/63/63 62/62/62 61/61/61
f 61/61/61 64/64/64 63/63/63
f 67/67/67 66/66/66 65/65/65
f 65/65/65 68/68/68 67/67/67
f 71/71/71 70/70/70 69/69/69
f 69/69/69 72/72/72 71/71/71
f 75/75/75 74/74/74 73/73/73
f 73/73/73 76/76/76 75/75/75
f 79/79/79 78/78/78 77/77/77
f 77/77/77 80/80/80 79/79/79
f 83/83/83 82/82/82 81/81/81
f 81/81/81 84/84/84 83/83/83
f 87/87/87 86/86/86 85/85/85
f 85/85/85 88/88/88 87/87/87
f 91/91/91 90/90/90 89/89/89
f 89/89/89 92/92/92 91/91/91
f 95/95/95 94/94/94 93/93/93
f 93/93/93 96/96/96 95/95/95
f 99/99/99 98/98/98 97/97/97
f 97/97/97 100/100/100 99/99/99
f 103/103/103 102/102/102 101/101/101
f 101/101/101 104/104/104 103/103/103
f 107/107/107 106/106/106 105/105/105
f 105/105/105 108/108/108 107/107/107
f 111/111/111 110/110/110 109/109/109
f 109/109/109 112/112/112 111/111/111
f 115/115/115 114/114/114 113/113/113
f 113/113/113 116/116/116 115/115/115
f 119/119/119 118/118/118 117/117/117
f 117/117/117 120/120/120 119/119/119
f 123/123/123 122/122/122 121/121/121
f 121/121/121 124/124/124 123/123/123
f 127/127/127 126/126/126 125/125/125
f 125/125/125 128/128/128 127/127/127
f 131/131/131 130/130/130 129/129/129
f 129/129/129 132/132/132 131/131/131
f 135/135/135 134/134/134 133/133/133
f 133/133/133 136/136/136 135/135/135
f 139/139/139 138/138/138 137/137/137
f 137/137/137 140/140/140 139/139/139
f 143/143/143 142/142/142 141/141/141
f 141/141/141 144/144/144 143/143/143
f 147/147/147 146/146/146 145/145/145
f 145/145/145 148/148/148 147/147/147
f 151/151/151 150/150/150 149/149/149
f 149/149/149 152/152/152 151/151/151
f 155/155/155 154/154/154 153/153/153
f 153/153/153 156/156/156 155/155/155
f 159/159/159 158/158/158 157/157/157
f 157/157/157 160/160/160 159/159/159
f 163/163/163 162/162/162 161/161/161
f 161/161/161 164/164/164 163/163/163
f 167/167/167 166/166/166 165/165/165
f 165/165/165 168/168/168 167/167/167
f 171/171/171 170/170/170 169/169/169
f 169/169/169 172/172/172 171/171/171
f 175/175/175 174/174/174 173/173/173
f 173/173/173 176/176/176 175/175/175
