g ninghai-mesh
v -288 469 0
v -288 789 0
v -576 789 0
v -576 469 0
v -576 469 0
v -576 789 0
v -832 789 0
v -832 469 0
v -832 341 0
v -832 597 0
v -1014 597 0
v -1014 341 0
v -32 789 0
v -32 917 0
v -320 917 0
v -320 789 0
v -320 789 0
v -320 917 0
v -576 917 0
v -576 789 0
v -384 309 0
v -384 469 0
v -544 469 0
v -544 309 0
v -704 277 0
v -704 469 0
v -832 469 0
v -832 277 0
v -640 821 0
v -640 949 0
v -768 949 0
v -768 821 0
v -0 693 0
v -0 789 0
v -160 789 0
v -160 693 0
v -416 181 0
v -416 309 0
v -512 309 0
v -512 181 0
v -384 53 0
v -384 181 0
v -480 181 0
v -480 53 0
v -160 693 0
v -160 789 0
v -288 789 0
v -288 693 0
v -192 565 0
v -192 693 0
v -288 693 0
v -288 565 0
v -896 245 0
v -896 341 0
v -992 341 0
v -992 245 0
v -576 789 0
v -576 885 0
v -640 885 0
v -640 789 0
v -320 0 0
v -320 85 0
v -384 85 0
v -384 0 0
v -128 405 0
v -128 501 0
v -192 501 0
v -192 405 0
v -576 373 0
v -576 469 0
v -640 469 0
v -640 373 0
v -128 501 0
v -128 597 0
v -192 597 0
v -192 501 0
v -736 213 0
v -736 277 0
v -800 277 0
v -800 213 0
v -928 597 0
v -928 661 0
v -992 661 0
v -992 597 0
v -320 917 0
v -320 949 0
v -448 949 0
v -448 917 0
v -576 309 0
v -576 373 0
v -640 373 0
v -640 309 0
v -160 917 0
v -160 949 0
v -256 949 0
v -256 917 0
v -64 917 0
v -64 949 0
v -160 949 0
v -160 917 0
v -448 917 0
v -448 949 0
v -544 949 0
v -544 917 0
v -192 501 0
v -192 565 0
v -224 565 0
v -224 501 0
v -832 597 0
v -832 661 0
v -864 661 0
v -864 597 0
v -544 405 0
v -544 469 0
v -576 469 0
v -576 405 0
v -128 661 0
v -128 693 0
v -192 693 0
v -192 661 0
v -352 85 0
v -352 149 0
v -384 149 0
v -384 85 0
v -384 0 0
v -384 53 0
v -416 53 0
v -416 0 0
v -640 437 0
v -640 469 0
v -704 469 0
v -704 437 0
v -704 181 0
v -704 213 0
v -768 213 0
v -768 181 0
v -256 469 0
v -256 533 0
v -288 533 0
v -288 469 0
v -704 789 0
v -704 821 0
v -768 821 0
v -768 789 0
v -352 405 0
v -352 469 0
v -384 469 0
v -384 405 0
v -0 821 0
v -0 885 0
v -32 885 0
v -32 821 0
v -352 341 0
v -352 405 0
v -384 405 0
v -384 341 0
v -320 949 0
v -320 981 0
v -384 981 0
v -384 949 0
v -288 437 0
v -288 469 0
v -320 469 0
v -320 437 0
v -672 405 0
v -672 437 0
v -704 437 0
v -704 405 0
v -128 373 0
v -128 405 0
v -160 405 0
v -160 373 0
v -832 309 0
v -832 341 0
v -864 341 0
v -864 309 0
v -928 213 0
v -928 245 0
v -960 245 0
v -960 213 0
v -704 245 0
v -704 277 0
v -736 277 0
v -736 245 0
v -992 309 0
v -992 341 0
v -1014 341 0
v -1014 309 0
v -416 21 0
v -416 53 0
v -448 53 0
v -448 21 0
v -384 181 0
v -384 213 0
v -416 213 0
v -416 181 0
v -224 533 0
v -224 565 0
v -256 565 0
v -256 533 0
v -768 789 0
v -768 821 0
v -800 821 0
v -800 789 0
v -256 437 0
v -256 469 0
v -288 469 0
v -288 437 0
v -384 949 0
v -384 981 0
v -416 981 0
v -416 949 0
v -0 789 0
v -0 821 0
v -32 821 0
v -32 789 0
v -544 373 0
v -544 405 0
v -576 405 0
v -576 373 0
v -896 597 0
v -896 629 0
v -928 629 0
v -928 597 0
v -992 597 0
v -992 629 0
v -1014 629 0
v -1014 597 0
v -640 789 0
v -640 821 0
v -672 821 0
v -672 789 0
v -160 597 0
v -160 629 0
v -192 629 0
v -192 597 0
vt 0.0009765625 0.0016181469
vt 0.0009765625 0.519417465
vt 0.282226562 0.519417465
vt 0.282226562 0.0016181469
vt 0.284179688 0.0016181469
vt 0.284179688 0.519417465
vt 0.534179688 0.519417465
vt 0.534179688 0.0016181469
vt 0.536132812 0.0016181469
vt 0.536132812 0.415857613
vt 0.71484375 0.415857613
vt 0.71484375 0.0016181469
vt 0.716796875 0.0016181469
vt 0.716796875 0.20873785
vt 0.998046875 0.20873785
vt 0.998046875 0.0016181469
vt 0.716796875 0.211974084
vt 0.716796875 0.419093847
vt 0.966796875 0.419093847
vt 0.966796875 0.211974084
vt 0.536132812 0.419093847
vt 0.536132812 0.677993536
vt 0.692382812 0.677993536
vt 0.692382812 0.419093847
vt 0.716796875 0.422330081
vt 0.716796875 0.733009696
vt 0.841796875 0.733009696
vt 0.841796875 0.422330081
vt 0.84375 0.422330081
vt 0.84375 0.629449844
vt 0.96875 0.629449844
vt 0.96875 0.422330081
vt 0.0009765625 0.522653699
vt 0.0009765625 0.677993536
vt 0.157226562 0.677993536
vt 0.157226562 0.522653699
vt 0.159179688 0.522653699
vt 0.159179688 0.729773462
vt 0.252929688 0.729773462
vt 0.252929688 0.522653699
vt 0.254882812 0.522653699
vt 0.254882812 0.729773462
vt 0.348632812 0.729773462
vt 0.348632812 0.522653699
vt 0.350585938 0.522653699
vt 0.350585938 0.677993536
vt 0.475585938 0.677993536
vt 0.475585938 0.522653699
vt 0.84375 0.632686079
vt 0.84375 0.839805841
vt 0.9375 0.839805841
vt 0.9375 0.632686079
vt 0.0009765625 0.68122977
vt 0.0009765625 0.836569548
vt 0.0947265625 0.836569548
vt 0.0947265625 0.68122977
vt 0.350585938 0.68122977
vt 0.350585938 0.836569548
vt 0.413085938 0.836569548
vt 0.413085938 0.68122977
vt 0.415039062 0.68122977
vt 0.415039062 0.820388317
vt 0.477539062 0.820388317
vt 0.477539062 0.68122977
vt 0.536132812 0.68122977
vt 0.536132812 0.836569548
vt 0.598632812 0.836569548
vt 0.598632812 0.68122977
vt 0.600585938 0.68122977
vt 0.600585938 0.836569548
vt 0.663085938 0.836569548
vt 0.663085938 0.68122977
vt 0.159179688 0.733009696
vt 0.159179688 0.888349533
vt 0.221679688 0.888349533
vt 0.221679688 0.733009696
vt 0.223632812 0.733009696
vt 0.223632812 0.836569548
vt 0.286132812 0.836569548
vt 0.286132812 0.733009696
vt 0.716796875 0.73624599
vt 0.716796875 0.839805841
vt 0.779296875 0.839805841
vt 0.779296875 0.73624599
vt 0.0009765625 0.839805841
vt 0.0009765625 0.891585767
vt 0.125976562 0.891585767
vt 0.125976562 0.839805841
vt 0.415039062 0.823624611
vt 0.415039062 0.927184463
vt 0.477539062 0.927184463
vt 0.477539062 0.823624611
vt 0.223632812 0.839805841
vt 0.223632812 0.891585767
vt 0.317382812 0.891585767
vt 0.317382812 0.839805841
vt 0.536132812 0.839805841
vt 0.536132812 0.891585767
vt 0.629882812 0.891585767
vt 0.629882812 0.839805841
vt 0.716796875 0.843042076
vt 0.716796875 0.894822001
vt 0.810546875 0.894822001
vt 0.810546875 0.843042076
vt 0.479492188 0.522653699
vt 0.479492188 0.626213551
vt 0.510742188 0.626213551
vt 0.510742188 0.522653699
vt 0.479492188 0.629449844
vt 0.479492188 0.733009696
vt 0.510742188 0.733009696
vt 0.510742188 0.629449844
vt 0.939453125 0.632686079
vt 0.939453125 0.73624599
vt 0.970703125 0.73624599
vt 0.970703125 0.632686079
vt 0.350585938 0.839805841
vt 0.350585938 0.891585767
vt 0.413085938 0.891585767
vt 0.413085938 0.839805841
vt 0.665039062 0.68122977
vt 0.665039062 0.784789622
vt 0.696289062 0.784789622
vt 0.696289062 0.68122977
vt 0.479492188 0.73624599
vt 0.479492188 0.823624611
vt 0.510742188 0.823624611
vt 0.510742188 0.73624599
vt 0.631835938 0.839805841
vt 0.631835938 0.891585767
vt 0.694335938 0.891585767
vt 0.694335938 0.839805841
vt 0.84375 0.843042076
vt 0.84375 0.894822001
vt 0.90625 0.894822001
vt 0.90625 0.843042076
vt 0.939453125 0.739482164
vt 0.939453125 0.843042076
vt 0.970703125 0.843042076
vt 0.970703125 0.739482164
vt 0.159179688 0.891585767
vt 0.159179688 0.943365693
vt 0.221679688 0.943365693
vt 0.221679688 0.891585767
vt 0.479492188 0.826860845
vt 0.479492188 0.930420697
vt 0.510742188 0.930420697
vt 0.510742188 0.826860845
vt 0.939453125 0.84627831
vt 0.939453125 0.949838161
vt 0.970703125 0.949838161
vt 0.970703125 0.84627831
vt 0.0009765625 0.894822001
vt 0.0009765625 0.998381853
vt 0.0322265625 0.998381853
vt 0.0322265625 0.894822001
vt 0.0341796875 0.894822001
vt 0.0341796875 0.946601927
vt 0.0966796875 0.946601927
vt 0.0966796875 0.894822001
vt 0.0986328125 0.894822001
vt 0.0986328125 0.946601927
vt 0.129882812 0.946601927
vt 0.129882812 0.894822001
vt 0.223632812 0.894822001
vt 0.223632812 0.946601927
vt 0.254882812 0.946601927
vt 0.254882812 0.894822001
vt 0.256835938 0.894822001
vt 0.256835938 0.946601927
vt 0.288085938 0.946601927
vt 0.288085938 0.894822001
vt 0.290039062 0.894822001
vt 0.290039062 0.946601927
vt 0.321289062 0.946601927
vt 0.321289062 0.894822001
vt 0.350585938 0.894822001
vt 0.350585938 0.946601927
vt 0.381835938 0.946601927
vt 0.381835938 0.894822001
vt 0.536132812 0.894822001
vt 0.536132812 0.946601927
vt 0.567382812 0.946601927
vt 0.567382812 0.894822001
vt 0.97265625 0.211974084
vt 0.97265625 0.26375407
vt 0.995117188 0.26375407
vt 0.995117188 0.211974084
vt 0.569335938 0.894822001
vt 0.569335938 0.946601927
vt 0.600585938 0.946601927
vt 0.600585938 0.894822001
vt 0.602539062 0.894822001
vt 0.602539062 0.946601927
vt 0.633789062 0.946601927
vt 0.633789062 0.894822001
vt 0.635742188 0.894822001
vt 0.635742188 0.946601927
vt 0.666992188 0.946601927
vt 0.666992188 0.894822001
vt 0.668945312 0.894822001
vt 0.668945312 0.946601927
vt 0.700195312 0.946601927
vt 0.700195312 0.894822001
vt 0.716796875 0.898058236
vt 0.716796875 0.949838161
vt 0.748046875 0.949838161
vt 0.748046875 0.898058236
vt 0.75 0.898058236
vt 0.75 0.949838161
vt 0.78125 0.949838161
vt 0.78125 0.898058236
vt 0.783203125 0.898058236
vt 0.783203125 0.949838161
vt 0.814453125 0.949838161
vt 0.814453125 0.898058236
vt 0.84375 0.898058236
vt 0.84375 0.949838161
vt 0.875 0.949838161
vt 0.875 0.898058236
vt 0.876953125 0.898058236
vt 0.876953125 0.949838161
vt 0.908203125 0.949838161
vt 0.908203125 0.898058236
vt 0.97265625 0.266990304
vt 0.97265625 0.31877023
vt 0.995117188 0.31877023
vt 0.995117188 0.266990304
vt 0.415039062 0.930420697
vt 0.415039062 0.982200623
vt 0.446289062 0.982200623
vt 0.446289062 0.930420697
vt 0.479492188 0.933656931
vt 0.479492188 0.985436916
vt 0.510742188 0.985436916
vt 0.510742188 0.933656931
g ninghai-mesh_0
f 3/3/3 2/2/2 1/1/1
f 1/1/1 4/4/4 3/3/3
f 7/7/7 6/6/6 5/5/5
f 5/5/5 8/8/8 7/7/7
f 11/11/11 10/10/10 9/9/9
f 9/9/9 12/12/12 11/11/11
f 15/15/15 14/14/14 13/13/13
f 13/13/13 16/16/16 15/15/15
f 19/19/19 18/18/18 17/17/17
f 17/17/17 20/20/20 19/19/19
f 23/23/23 22/22/22 21/21/21
f 21/21/21 24/24/24 23/23/23
f 27/27/27 26/26/26 25/25/25
f 25/25/25 28/28/28 27/27/27
f 31/31/31 30/30/30 29/29/29
f 29/29/29 32/32/32 31/31/31
f 35/35/35 34/34/34 33/33/33
f 33/33/33 36/36/36 35/35/35
f 39/39/39 38/38/38 37/37/37
f 37/37/37 40/40/40 39/39/39
f 43/43/43 42/42/42 41/41/41
f 41/41/41 44/44/44 43/43/43
f 47/47/47 46/46/46 45/45/45
f 45/45/45 48/48/48 47/47/47
f 51/51/51 50/50/50 49/49/49
f 49/49/49 52/52/52 51/51/51
f 55/55/55 54/54/54 53/53/53
f 53/53/53 56/56/56 55/55/55
f 59/59/59 58/58/58 57/57/57
f 57/57/57 60/60/60 59/59/59
f 63/63/63 62/62/62 61/61/61
f 61/61/61 64/64/64 63/63/63
f 67/67/67 66/66/66 65/65/65
f 65/65/65 68/68/68 67/67/67
f 71/71/71 70/70/70 69/69/69
f 69/69/69 72/72/72 71/71/71
f 75/75/75 74/74/74 73/73/73
f 73/73/73 76/76/76 75/75/75
f 79/79/79 78/78/78 77/77/77
f 77/77/77 80/80/80 79/79/79
f 83/83/83 82/82/82 81/81/81
f 81/81/81 84/84/84 83/83/83
f 87/87/87 86/86/86 85/85/85
f 85/85/85 88/88/88 87/87/87
f 91/91/91 90/90/90 89/89/89
f 89/89/89 92/92/92 91/91/91
f 95/95/95 94/94/94 93/93/93
f 93/93/93 96/96/96 95/95/95
f 99/99/99 98/98/98 97/97/97
f 97/97/97 100/100/100 99/99/99
f 103/103/103 102/102/102 101/101/101
f 101/101/101 104/104/104 103/103/103
f 107/107/107 106/106/106 105/105/105
f 105/105/105 108/108/108 107/107/107
f 111/111/111 110/110/110 109/109/109
f 109/109/109 112/112/112 111/111/111
f 115/115/115 114/114/114 113/113/113
f 113/113/113 116/116/116 115/115/115
f 119/119/119 118/118/118 117/117/117
f 117/117/117 120/120/120 119/119/119
f 123/123/123 122/122/122 121/121/121
f 121/121/121 124/124/124 123/123/123
f 127/127/127 126/126/126 125/125/125
f 125/125/125 128/128/128 127/127/127
f 131/131/131 130/130/130 129/129/129
f 129/129/129 132/132/132 131/131/131
f 135/135/135 134/134/134 133/133/133
f 133/133/133 136/136/136 135/135/135
f 139/139/139 138/138/138 137/137/137
f 137/137/137 140/140/140 139/139/139
f 143/143/143 142/142/142 141/141/141
f 141/141/141 144/144/144 143/143/143
f 147/147/147 146/146/146 145/145/145
f 145/145/145 148/148/148 147/147/147
f 151/151/151 150/150/150 149/149/149
f 149/149/149 152/152/152 151/151/151
f 155/155/155 154/154/154 153/153/153
f 153/153/153 156/156/156 155/155/155
f 159/159/159 158/158/158 157/157/157
f 157/157/157 160/160/160 159/159/159
f 163/163/163 162/162/162 161/161/161
f 161/161/161 164/164/164 163/163/163
f 167/167/167 166/166/166 165/165/165
f 165/165/165 168/168/168 167/167/167
f 171/171/171 170/170/170 169/169/169
f 169/169/169 172/172/172 171/171/171
f 175/175/175 174/174/174 173/173/173
f 173/173/173 176/176/176 175/175/175
f 179/179/179 178/178/178 177/177/177
f 177/177/177 180/180/180 179/179/179
f 183/183/183 182/182/182 181/181/181
f 181/181/181 184/184/184 183/183/183
f 187/187/187 186/186/186 185/185/185
f 185/185/185 188/188/188 187/187/187
f 191/191/191 190/190/190 189/189/189
f 189/189/189 192/192/192 191/191/191
f 195/195/195 194/194/194 193/193/193
f 193/193/193 196/196/196 195/195/195
f 199/199/199 198/198/198 197/197/197
f 197/197/197 200/200/200 199/199/199
f 203/203/203 202/202/202 201/201/201
f 201/201/201 204/204/204 203/203/203
f 207/207/207 206/206/206 205/205/205
f 205/205/205 208/208/208 207/207/207
f 211/211/211 210/210/210 209/209/209
f 209/209/209 212/212/212 211/211/211
f 215/215/215 214/214/214 213/213/213
f 213/213/213 216/216/216 215/215/215
f 219/219/219 218/218/218 217/217/217
f 217/217/217 220/220/220 219/219/219
f 223/223/223 222/222/222 221/221/221
f 221/221/221 224/224/224 223/223/223
f 227/227/227 226/226/226 225/225/225
f 225/225/225 228/228/228 227/227/227
f 231/231/231 230/230/230 229/229/229
f 229/229/229 232/232/232 231/231/231
f 235/235/235 234/234/234 233/233/233
f 233/233/233 236/236/236 235/235/235
