g biaoqiang_7-mesh
v -512 535 0
v -512 1111 0
v -960 1111 0
v -960 535 0
v -512 0 0
v -512 535 0
v -960 535 0
v -960 0 0
v -192 247 0
v -192 759 0
v -512 759 0
v -512 247 0
v -960 311 0
v -960 727 0
v -1216 727 0
v -1216 311 0
v -128 919 0
v -128 1143 0
v -480 1143 0
v -480 919 0
v -256 1143 0
v -256 1335 0
v -544 1335 0
v -544 1143 0
v -544 1143 0
v -544 1335 0
v -800 1335 0
v -800 1143 0
v -32 439 0
v -32 695 0
v -192 695 0
v -192 439 0
v -320 55 0
v -320 247 0
v -512 247 0
v -512 55 0
v -1024 759 0
v -1024 951 0
v -1216 951 0
v -1216 759 0
v -1056 215 0
v -1056 311 0
v -1248 311 0
v -1248 215 0
v -128 823 0
v -128 919 0
v -288 919 0
v -288 823 0
v -96 343 0
v -96 439 0
v -192 439 0
v -192 343 0
v -192 1143 0
v -192 1271 0
v -256 1271 0
v -256 1143 0
v -640 1335 0
v -640 1399 0
v -736 1399 0
v -736 1335 0
v -256 87 0
v -256 183 0
v -320 183 0
v -320 87 0
v -800 1207 0
v -800 1303 0
v -864 1303 0
v -864 1207 0
v -800 1111 0
v -800 1207 0
v -864 1207 0
v -864 1111 0
v -960 727 0
v -960 919 0
v -992 919 0
v -992 727 0
v -960 919 0
v -960 1111 0
v -992 1111 0
v -992 919 0
v -512 1111 0
v -512 1143 0
v -672 1143 0
v -672 1111 0
v -1216 471 0
v -1216 631 0
v -1248 631 0
v -1248 471 0
v -1216 311 0
v -1216 471 0
v -1248 471 0
v -1248 311 0
v -480 823 0
v -480 951 0
v -512 951 0
v -512 823 0
v -1248 343 0
v -1248 471 0
v -1265 471 0
v -1265 343 0
v -736 1335 0
v -736 1399 0
v -800 1399 0
v -800 1335 0
v -672 1111 0
v -672 1143 0
v -800 1143 0
v -800 1111 0
v -480 951 0
v -480 1079 0
v -512 1079 0
v -512 951 0
v -0 567 0
v -0 663 0
v -32 663 0
v -32 567 0
v -992 823 0
v -992 919 0
v -1024 919 0
v -1024 823 0
v -1248 247 0
v -1248 343 0
v -1265 343 0
v -1265 247 0
v -1216 887 0
v -1216 951 0
v -1248 951 0
v -1248 887 0
v -288 855 0
v -288 919 0
v -320 919 0
v -320 855 0
v -448 855 0
v -448 919 0
v -480 919 0
v -480 855 0
v -1088 183 0
v -1088 215 0
v -1152 215 0
v -1152 183 0
v -160 1143 0
v -160 1207 0
v -192 1207 0
v -192 1143 0
v -1056 951 0
v -1056 983 0
v -1120 983 0
v -1120 951 0
v -160 791 0
v -160 823 0
v -224 823 0
v -224 791 0
v -992 279 0
v -992 311 0
v -1056 311 0
v -1056 279 0
v -256 215 0
v -256 247 0
v -320 247 0
v -320 215 0
v -960 23 0
v -960 87 0
v -992 87 0
v -992 23 0
v -320 759 0
v -320 791 0
v -384 791 0
v -384 759 0
v -64 375 0
v -64 439 0
v -96 439 0
v -96 375 0
v -128 311 0
v -128 343 0
v -192 343 0
v -192 311 0
v -1248 503 0
v -1248 567 0
v -1265 567 0
v -1265 503 0
v -384 23 0
v -384 55 0
v -448 55 0
v -448 23 0
v -448 23 0
v -448 55 0
v -512 55 0
v -512 23 0
v -1248 567 0
v -1248 631 0
v -1265 631 0
v -1265 567 0
v -992 759 0
v -992 823 0
v -1024 823 0
v -1024 759 0
v -0 503 0
v -0 567 0
v -32 567 0
v -32 503 0
v -96 951 0
v -96 1015 0
v -128 1015 0
v -128 951 0
v -96 887 0
v -96 951 0
v -128 951 0
v -128 887 0
v -1088 727 0
v -1088 759 0
v -1152 759 0
v -1152 727 0
v -864 1143 0
v -864 1207 0
v -896 1207 0
v -896 1143 0
v -352 1335 0
v -352 1367 0
v -416 1367 0
v -416 1335 0
v -480 759 0
v -480 791 0
v -512 791 0
v -512 759 0
v -320 887 0
v -320 919 0
v -352 919 0
v -352 887 0
v -1024 247 0
v -1024 279 0
v -1056 279 0
v -1056 247 0
v -160 279 0
v -160 311 0
v -192 311 0
v -192 279 0
v -288 183 0
v -288 215 0
v -320 215 0
v -320 183 0
v -160 695 0
v -160 727 0
v -192 727 0
v -192 695 0
v -416 1335 0
v -416 1367 0
v -448 1367 0
v -448 1335 0
v -864 1111 0
v -864 1143 0
v -896 1143 0
v -896 1111 0
v -1152 183 0
v -1152 215 0
v -1184 215 0
v -1184 183 0
v -224 1271 0
v -224 1303 0
v -256 1303 0
v -256 1271 0
v -608 1335 0
v -608 1367 0
v -640 1367 0
v -640 1335 0
v -1152 727 0
v -1152 759 0
v -1184 759 0
v -1184 727 0
vt 0.00048828125 0.00136613846
vt 0.00048828125 0.7882514
vt 0.219238281 0.7882514
vt 0.219238281 0.00136613846
vt 0.220214844 0.00136613846
vt 0.220214844 0.733606577
vt 0.438964844 0.733606577
vt 0.438964844 0.00136613846
vt 0.439941406 0.00136613846
vt 0.439941406 0.700819671
vt 0.596191406 0.700819671
vt 0.596191406 0.00136613846
vt 0.597167969 0.00136613846
vt 0.597167969 0.569672108
vt 0.722167969 0.569672108
vt 0.722167969 0.00136613846
vt 0.723144531 0.00136613846
vt 0.723144531 0.30737704
vt 0.895019531 0.30737704
vt 0.895019531 0.00136613846
vt 0.723144531 0.310109317
vt 0.723144531 0.572404385
vt 0.863769531 0.572404385
vt 0.863769531 0.310109317
vt 0.864746094 0.310109317
vt 0.864746094 0.572404385
vt 0.989746094 0.572404385
vt 0.989746094 0.310109317
vt 0.597167969 0.572404385
vt 0.597167969 0.922131181
vt 0.675292969 0.922131181
vt 0.675292969 0.572404385
vt 0.723144531 0.575136602
vt 0.723144531 0.837431669
vt 0.816894531 0.837431669
vt 0.816894531 0.575136602
vt 0.817871094 0.575136602
vt 0.817871094 0.837431669
vt 0.911621094 0.837431669
vt 0.911621094 0.575136602
vt 0.439941406 0.703551888
vt 0.439941406 0.834699452
vt 0.533691406 0.834699452
vt 0.533691406 0.703551888
vt 0.912597656 0.575136602
vt 0.912597656 0.706284165
vt 0.990722656 0.706284165
vt 0.990722656 0.575136602
vt 0.534667969 0.703551888
vt 0.534667969 0.834699452
vt 0.581542969 0.834699452
vt 0.581542969 0.703551888
vt 0.676269531 0.572404385
vt 0.676269531 0.747267723
vt 0.707519531 0.747267723
vt 0.707519531 0.572404385
vt 0.912597656 0.709016383
vt 0.912597656 0.796448112
vt 0.959472656 0.796448112
vt 0.959472656 0.709016383
vt 0.960449219 0.709016383
vt 0.960449219 0.840163946
vt 0.991699219 0.840163946
vt 0.991699219 0.709016383
vt 0.220214844 0.736338794
vt 0.220214844 0.867486358
vt 0.251464844 0.867486358
vt 0.251464844 0.736338794
vt 0.252441406 0.736338794
vt 0.252441406 0.867486358
vt 0.283691406 0.867486358
vt 0.283691406 0.736338794
vt 0.284667969 0.736338794
vt 0.284667969 0.998633862
vt 0.300292969 0.998633862
vt 0.300292969 0.736338794
vt 0.301269531 0.736338794
vt 0.301269531 0.998633862
vt 0.316894531 0.998633862
vt 0.316894531 0.736338794
vt 0.317871094 0.736338794
vt 0.317871094 0.780054629
vt 0.395996094 0.780054629
vt 0.395996094 0.736338794
vt 0.396972656 0.736338794
vt 0.396972656 0.954918027
vt 0.412597656 0.954918027
vt 0.412597656 0.736338794
vt 0.413574219 0.736338794
vt 0.413574219 0.954918027
vt 0.429199219 0.954918027
vt 0.429199219 0.736338794
vt 0.676269531 0.75
vt 0.676269531 0.924863398
vt 0.691894531 0.924863398
vt 0.691894531 0.75
vt 0.708496094 0.572404385
vt 0.708496094 0.747267723
vt 0.717285156 0.747267723
vt 0.717285156 0.572404385
vt 0.317871094 0.782786906
vt 0.317871094 0.870218575
vt 0.349121094 0.870218575
vt 0.349121094 0.782786906
vt 0.00048828125 0.790983617
vt 0.00048828125 0.834699452
vt 0.0629882812 0.834699452
vt 0.0629882812 0.790983617
vt 0.692871094 0.75
vt 0.692871094 0.924863398
vt 0.708496094 0.924863398
vt 0.708496094 0.75
vt 0.350097656 0.782786906
vt 0.350097656 0.91393441
vt 0.365722656 0.91393441
vt 0.365722656 0.782786906
vt 0.366699219 0.782786906
vt 0.366699219 0.91393441
vt 0.382324219 0.91393441
vt 0.382324219 0.782786906
vt 0.582519531 0.703551888
vt 0.582519531 0.834699452
vt 0.591308594 0.834699452
vt 0.591308594 0.703551888
vt 0.0639648438 0.790983617
vt 0.0639648438 0.878415287
vt 0.0795898438 0.878415287
vt 0.0795898438 0.790983617
vt 0.0805664062 0.790983617
vt 0.0805664062 0.878415287
vt 0.0961914062 0.878415287
vt 0.0961914062 0.790983617
vt 0.0971679688 0.790983617
vt 0.0971679688 0.878415287
vt 0.112792969 0.878415287
vt 0.112792969 0.790983617
vt 0.113769531 0.790983617
vt 0.113769531 0.834699452
vt 0.145019531 0.834699452
vt 0.145019531 0.790983617
vt 0.145996094 0.790983617
vt 0.145996094 0.878415287
vt 0.161621094 0.878415287
vt 0.161621094 0.790983617
vt 0.162597656 0.790983617
vt 0.162597656 0.834699452
vt 0.193847656 0.834699452
vt 0.193847656 0.790983617
vt 0.912597656 0.799180329
vt 0.912597656 0.842896163
vt 0.943847656 0.842896163
vt 0.943847656 0.799180329
vt 0.00048828125 0.837431669
vt 0.00048828125 0.881147563
vt 0.0317382812 0.881147563
vt 0.0317382812 0.837431669
vt 0.113769531 0.837431669
vt 0.113769531 0.881147563
vt 0.145019531 0.881147563
vt 0.145019531 0.837431669
vt 0.194824219 0.790983617
vt 0.194824219 0.878415287
vt 0.210449219 0.878415287
vt 0.210449219 0.790983617
vt 0.162597656 0.837431669
vt 0.162597656 0.881147563
vt 0.193847656 0.881147563
vt 0.193847656 0.837431669
vt 0.0327148438 0.837431669
vt 0.0327148438 0.924863398
vt 0.0483398438 0.924863398
vt 0.0483398438 0.837431669
vt 0.439941406 0.837431669
vt 0.439941406 0.881147563
vt 0.471191406 0.881147563
vt 0.471191406 0.837431669
vt 0.430175781 0.736338794
vt 0.430175781 0.823770523
vt 0.438964844 0.823770523
vt 0.438964844 0.736338794
vt 0.472167969 0.837431669
vt 0.472167969 0.881147563
vt 0.503417969 0.881147563
vt 0.503417969 0.837431669
vt 0.504394531 0.837431669
vt 0.504394531 0.881147563
vt 0.535644531 0.881147563
vt 0.535644531 0.837431669
vt 0.709472656 0.75
vt 0.709472656 0.837431669
vt 0.718261719 0.837431669
vt 0.718261719 0.75
vt 0.536621094 0.837431669
vt 0.536621094 0.924863398
vt 0.552246094 0.924863398
vt 0.552246094 0.837431669
vt 0.553222656 0.837431669
vt 0.553222656 0.924863398
vt 0.568847656 0.924863398
vt 0.568847656 0.837431669
vt 0.569824219 0.837431669
vt 0.569824219 0.924863398
vt 0.585449219 0.924863398
vt 0.585449219 0.837431669
vt 0.709472656 0.840163946
vt 0.709472656 0.927595615
vt 0.725097656 0.927595615
vt 0.725097656 0.840163946
vt 0.726074219 0.840163946
vt 0.726074219 0.883879781
vt 0.757324219 0.883879781
vt 0.757324219 0.840163946
vt 0.758300781 0.840163946
vt 0.758300781 0.927595615
vt 0.773925781 0.927595615
vt 0.773925781 0.840163946
vt 0.774902344 0.840163946
vt 0.774902344 0.883879781
vt 0.806152344 0.883879781
vt 0.806152344 0.840163946
vt 0.807128906 0.840163946
vt 0.807128906 0.883879781
vt 0.822753906 0.883879781
vt 0.822753906 0.840163946
vt 0.823730469 0.840163946
vt 0.823730469 0.883879781
vt 0.839355469 0.883879781
vt 0.839355469 0.840163946
vt 0.840332031 0.840163946
vt 0.840332031 0.883879781
vt 0.855957031 0.883879781
vt 0.855957031 0.840163946
vt 0.856933594 0.840163946
vt 0.856933594 0.883879781
vt 0.872558594 0.883879781
vt 0.872558594 0.840163946
vt 0.873535156 0.840163946
vt 0.873535156 0.883879781
vt 0.889160156 0.883879781
vt 0.889160156 0.840163946
vt 0.890136719 0.840163946
vt 0.890136719 0.883879781
vt 0.905761719 0.883879781
vt 0.905761719 0.840163946
vt 0.960449219 0.842896163
vt 0.960449219 0.886611998
vt 0.976074219 0.886611998
vt 0.976074219 0.842896163
vt 0.977050781 0.842896163
vt 0.977050781 0.886611998
vt 0.992675781 0.886611998
vt 0.992675781 0.842896163
vt 0.912597656 0.845628381
vt 0.912597656 0.889344275
vt 0.928222656 0.889344275
vt 0.928222656 0.845628381
vt 0.929199219 0.845628381
vt 0.929199219 0.889344275
vt 0.944824219 0.889344275
vt 0.944824219 0.845628381
vt 0.220214844 0.870218575
vt 0.220214844 0.91393441
vt 0.235839844 0.91393441
vt 0.235839844 0.870218575
vt 0.236816406 0.870218575
vt 0.236816406 0.91393441
vt 0.252441406 0.91393441
vt 0.252441406 0.870218575
g biaoqiang_7-mesh_0
f 3/3/3 2/2/2 1/1/1
f 1/1/1 4/4/4 3/3/3
f 7/7/7 6/6/6 5/5/5
f 5/5/5 8/8/8 7/7/7
f 11/11/11 10/10/10 9/9/9
f 9/9/9 12/12/12 11/11/11
f 15/15/15 14/14/14 13/13/13
f 13/13/13 16/16/16 15/15/15
f 19/19/19 18/18/18 17/17/17
f 17/17/17 20/20/20 19/19/19
f 23/23/23 22/22/22 21/21/21
f 21/21/21 24/24/24 23/23/23
f 27/27/27 26/26/26 25/25/25
f 25/25/25 28/28/28 27/27/27
f 31/31/31 30/30/30 29/29/29
f 29/29/29 32/32/32 31/31/31
f 35/35/35 34/34/34 33/33/33
f 33/33/33 36/36/36 35/35/35
f 39/39/39 38/38/38 37/37/37
f 37/37/37 40/40/40 39/39/39
f 43/43/43 42/42/42 41/41/41
f 41/41/41 44/44/44 43/43/43
f 47/47/47 46/46/46 45/45/45
f 45/45/45 48/48/48 47/47/47
f 51/51/51 50/50/50 49/49/49
f 49/49/49 52/52/52 51/51/51
f 55/55/55 54/54/54 53/53/53
f 53/53/53 56/56/56 55/55/55
f 59/59/59 58/58/58 57/57/57
f 57/57/57 60/60/60 59/59/59
f 63/63/63 62/62/62 61/61/61
f 61/61/61 64/64/64 63/63/63
f 67/67/67 66/66/66 65/65/65
f 65/65/65 68/68/68 67/67/67
f 71/71/71 70/70/70 69/69/69
f 69/69/69 72/72/72 71/71/71
f 75/75/75 74/74/74 73/73/73
f 73/73/73 76/76/76 75/75/75
f 79/79/79 78/78/78 77/77/77
f 77/77/77 80/80/80 79/79/79
f 83/83/83 82/82/82 81/81/81
f 81/81/81 84/84/84 83/83/83
f 87/87/87 86/86/86 85/85/85
f 85/85/85 88/88/88 87/87/87
f 91/91/91 90/90/90 89/89/89
f 89/89/89 92/92/92 91/91/91
f 95/95/95 94/94/94 93/93/93
f 93/93/93 96/96/96 95/95/95
f 99/99/99 98/98/98 97/97/97
f 97/97/97 100/100/100 99/99/99
f 103/103/103 102/102/102 101/101/101
f 101/101/101 104/104/104 103/103/103
f 107/107/107 106/106/106 105/105/105
f 105/105/105 108/108/108 107/107/107
f 111/111/111 110/110/110 109/109/109
f 109/109/109 112/112/112 111/111/111
f 115/115/115 114/114/114 113/113/113
f 113/113/113 116/116/116 115/115/115
f 119/119/119 118/118/118 117/117/117
f 117/117/117 120/120/120 119/119/119
f 123/123/123 122/122/122 121/121/121
f 121/121/121 124/124/124 123/123/123
f 127/127/127 126/126/126 125/125/125
f 125/125/125 128/128/128 127/127/127
f 131/131/131 130/130/130 129/129/129
f 129/129/129 132/132/132 131/131/131
f 135/135/135 134/134/134 133/133/133
f 133/133/133 136/136/136 135/135/135
f 139/139/139 138/138/138 137/137/137
f 137/137/137 140/140/140 139/139/139
f 143/143/143 142/142/142 141/141/141
f 141/141/141 144/144/144 143/143/143
f 147/147/147 146/146/146 145/145/145
f 145/145/145 148/148/148 147/147/147
f 151/151/151 150/150/150 149/149/149
f 149/149/149 152/152/152 151/151/151
f 155/155/155 154/154/154 153/153/153
f 153/153/153 156/156/156 155/155/155
f 159/159/159 158/158/158 157/157/157
f 157/157/157 160/160/160 159/159/159
f 163/163/163 162/162/162 161/161/161
f 161/161/161 164/164/164 163/163/163
f 167/167/167 166/166/166 165/165/165
f 165/165/165 168/168/168 167/167/167
f 171/171/171 170/170/170 169/169/169
f 169/169/169 172/172/172 171/171/171
f 175/175/175 174/174/174 173/173/173
f 173/173/173 176/176/176 175/175/175
f 179/179/179 178/178/178 177/177/177
f 177/177/177 180/180/180 179/179/179
f 183/183/183 182/182/182 181/181/181
f 181/181/181 184/184/184 183/183/183
f 187/187/187 186/186/186 185/185/185
f 185/185/185 188/188/188 187/187/187
f 191/191/191 190/190/190 189/189/189
f 189/189/189 192/192/192 191/191/191
f 195/195/195 194/194/194 193/193/193
f 193/193/193 196/196/196 195/195/195
f 199/199/199 198/198/198 197/197/197
f 197/197/197 200/200/200 199/199/199
f 203/203/203 202/202/202 201/201/201
f 201/201/201 204/204/204 203/203/203
f 207/207/207 206/206/206 205/205/205
f 205/205/205 208/208/208 207/207/207
f 211/211/211 210/210/210 209/209/209
f 209/209/209 212/212/212 211/211/211
f 215/215/215 214/214/214 213/213/213
f 213/213/213 216/216/216 215/215/215
f 219/219/219 218/218/218 217/217/217
f 217/217/217 220/220/220 219/219/219
f 223/223/223 222/222/222 221/221/221
f 221/221/221 224/224/224 223/223/223
f 227/227/227 226/226/226 225/225/225
f 225/225/225 228/228/228 227/227/227
f 231/231/231 230/230/230 229/229/229
f 229/229/229 232/232/232 231/231/231
f 235/235/235 234/234/234 233/233/233
f 233/233/233 236/236/236 235/235/235
f 239/239/239 238/238/238 237/237/237
f 237/237/237 240/240/240 239/239/239
f 243/243/243 242/242/242 241/241/241
f 241/241/241 244/244/244 243/243/243
f 247/247/247 246/246/246 245/245/245
f 245/245/245 248/248/248 247/247/247
f 251/251/251 250/250/250 249/249/249
f 249/249/249 252/252/252 251/251/251
f 255/255/255 254/254/254 253/253/253
f 253/253/253 256/256/256 255/255/255
f 259/259/259 258/258/258 257/257/257
f 257/257/257 260/260/260 259/259/259
f 263/263/263 262/262/262 261/261/261
f 261/261/261 264/264/264 263/263/263
f 267/267/267 266/266/266 265/265/265
f 265/265/265 268/268/268 267/267/267
