g huali_2_bj-mesh
v -864 0 0
v -864 225 0
v -1280 225 0
v -1280 0 0
v -1280 0 0
v -1280 225 0
v -1664 225 0
v -1664 0 0
v -1664 97 0
v -1664 225 0
v -1920 225 0
v -1920 97 0
v -480 225 0
v -480 353 0
v -704 353 0
v -704 225 0
v -1248 225 0
v -1248 289 0
v -1536 289 0
v -1536 225 0
v -1536 225 0
v -1536 289 0
v -1792 289 0
v -1792 225 0
v -1344 289 0
v -1344 321 0
v -1536 321 0
v -1536 289 0
v -1536 289 0
v -1536 321 0
v -1696 321 0
v -1696 289 0
v -832 65 0
v -832 193 0
v -864 193 0
v -864 65 0
v -832 0 0
v -832 65 0
v -864 65 0
v -864 0 0
v -704 257 0
v -704 321 0
v -736 321 0
v -736 257 0
v -1472 321 0
v -1472 385 0
v -1504 385 0
v -1504 321 0
v -800 1 0
v -800 65 0
v -832 65 0
v -832 1 0
v -1920 129 0
v -1920 193 0
v -1952 193 0
v -1952 129 0
v -1792 225 0
v -1792 257 0
v -1856 257 0
v -1856 225 0
v -928 225 0
v -928 257 0
v -992 257 0
v -992 225 0
v -1184 225 0
v -1184 257 0
v -1248 257 0
v -1248 225 0
v -1120 225 0
v -1120 257 0
v -1184 257 0
v -1184 225 0
v -480 353 0
v -480 385 0
v -544 385 0
v -544 353 0
v -544 353 0
v -544 385 0
v -608 385 0
v -608 353 0
v -1664 65 0
v -1664 97 0
v -1728 97 0
v -1728 65 0
v -448 289 0
v -448 321 0
v -480 321 0
v -480 289 0
v -1664 33 0
v -1664 65 0
v -1696 65 0
v -1696 33 0
v -1056 225 0
v -1056 257 0
v -1088 257 0
v -1088 225 0
v -800 0 0
v -800 1 0
v -832 1 0
v -832 0 0
v -1728 65 0
v -1728 97 0
v -1760 97 0
v -1760 65 0
v -672 385 0
v -672 417 0
v -704 417 0
v -704 385 0
vt 0.0009765625 0.00277775526
vt 0.0009765625 0.63055557
vt 0.407226562 0.63055557
vt 0.407226562 0.00277775526
vt 0.409179688 0.00277775526
vt 0.409179688 0.63055557
vt 0.784179688 0.63055557
vt 0.784179688 0.00277775526
vt 0.0009765625 0.63611114
vt 0.0009765625 0.991666675
vt 0.250976562 0.991666675
vt 0.250976562 0.63611114
vt 0.252929688 0.63611114
vt 0.252929688 0.991666675
vt 0.471679688 0.991666675
vt 0.471679688 0.63611114
vt 0.473632812 0.63611114
vt 0.473632812 0.813888907
vt 0.754882812 0.813888907
vt 0.754882812 0.63611114
vt 0.473632812 0.819444418
vt 0.473632812 0.997222245
vt 0.723632812 0.997222245
vt 0.723632812 0.819444418
vt 0.786132812 0.00277775526
vt 0.786132812 0.0916666389
vt 0.973632812 0.0916666389
vt 0.973632812 0.00277775526
vt 0.786132812 0.097222209
vt 0.786132812 0.186111093
vt 0.942382812 0.186111093
vt 0.942382812 0.097222209
vt 0.944335938 0.097222209
vt 0.944335938 0.452777803
vt 0.975585938 0.452777803
vt 0.975585938 0.097222209
vt 0.786132812 0.191666663
vt 0.786132812 0.375
vt 0.817382812 0.375
vt 0.817382812 0.191666663
vt 0.819335938 0.191666663
vt 0.819335938 0.36944443
vt 0.850585938 0.36944443
vt 0.850585938 0.191666663
vt 0.852539062 0.191666663
vt 0.852539062 0.36944443
vt 0.883789062 0.36944443
vt 0.883789062 0.191666663
vt 0.885742188 0.191666663
vt 0.885742188 0.36944443
vt 0.916992188 0.36944443
vt 0.916992188 0.191666663
vt 0.819335938 0.375
vt 0.819335938 0.552777767
vt 0.850585938 0.552777767
vt 0.850585938 0.375
vt 0.852539062 0.375
vt 0.852539062 0.463888884
vt 0.915039062 0.463888884
vt 0.915039062 0.375
vt 0.852539062 0.469444454
vt 0.852539062 0.558333337
vt 0.915039062 0.558333337
vt 0.915039062 0.469444454
vt 0.852539062 0.563888907
vt 0.852539062 0.652777791
vt 0.915039062 0.652777791
vt 0.915039062 0.563888907
vt 0.756835938 0.63611114
vt 0.756835938 0.725000024
vt 0.819335938 0.725000024
vt 0.819335938 0.63611114
vt 0.852539062 0.658333302
vt 0.852539062 0.747222185
vt 0.915039062 0.747222185
vt 0.915039062 0.658333302
vt 0.756835938 0.730555534
vt 0.756835938 0.819444418
vt 0.819335938 0.819444418
vt 0.819335938 0.730555534
vt 0.852539062 0.752777815
vt 0.852539062 0.841666698
vt 0.915039062 0.841666698
vt 0.915039062 0.752777815
vt 0.944335938 0.458333313
vt 0.944335938 0.547222257
vt 0.975585938 0.547222257
vt 0.975585938 0.458333313
vt 0.944335938 0.552777767
vt 0.944335938 0.641666651
vt 0.975585938 0.641666651
vt 0.975585938 0.552777767
vt 0.944335938 0.647222221
vt 0.944335938 0.736111104
vt 0.975585938 0.736111104
vt 0.975585938 0.647222221
vt 0.944335938 0.741666675
vt 0.944335938 0.747222185
vt 0.975585938 0.747222185
vt 0.975585938 0.741666675
vt 0.944335938 0.752777815
vt 0.944335938 0.841666698
vt 0.975585938 0.841666698
vt 0.975585938 0.752777815
vt 0.756835938 0.824999988
vt 0.756835938 0.913888872
vt 0.788085938 0.913888872
vt 0.788085938 0.824999988
g huali_2_bj-mesh_0
f 3/3/3 2/2/2 1/1/1
f 1/1/1 4/4/4 3/3/3
f 7/7/7 6/6/6 5/5/5
f 5/5/5 8/8/8 7/7/7
f 11/11/11 10/10/10 9/9/9
f 9/9/9 12/12/12 11/11/11
f 15/15/15 14/14/14 13/13/13
f 13/13/13 16/16/16 15/15/15
f 19/19/19 18/18/18 17/17/17
f 17/17/17 20/20/20 19/19/19
f 23/23/23 22/22/22 21/21/21
f 21/21/21 24/24/24 23/23/23
f 27/27/27 26/26/26 25/25/25
f 25/25/25 28/28/28 27/27/27
f 31/31/31 30/30/30 29/29/29
f 29/29/29 32/32/32 31/31/31
f 35/35/35 34/34/34 33/33/33
f 33/33/33 36/36/36 35/35/35
f 39/39/39 38/38/38 37/37/37
f 37/37/37 40/40/40 39/39/39
f 43/43/43 42/42/42 41/41/41
f 41/41/41 44/44/44 43/43/43
f 47/47/47 46/46/46 45/45/45
f 45/45/45 48/48/48 47/47/47
f 51/51/51 50/50/50 49/49/49
f 49/49/49 52/52/52 51/51/51
f 55/55/55 54/54/54 53/53/53
f 53/53/53 56/56/56 55/55/55
f 59/59/59 58/58/58 57/57/57
f 57/57/57 60/60/60 59/59/59
f 63/63/63 62/62/62 61/61/61
f 61/61/61 64/64/64 63/63/63
f 67/67/67 66/66/66 65/65/65
f 65/65/65 68/68/68 67/67/67
f 71/71/71 70/70/70 69/69/69
f 69/69/69 72/72/72 71/71/71
f 75/75/75 74/74/74 73/73/73
f 73/73/73 76/76/76 75/75/75
f 79/79/79 78/78/78 77/77/77
f 77/77/77 80/80/80 79/79/79
f 83/83/83 82/82/82 81/81/81
f 81/81/81 84/84/84 83/83/83
f 87/87/87 86/86/86 85/85/85
f 85/85/85 88/88/88 87/87/87
f 91/91/91 90/90/90 89/89/89
f 89/89/89 92/92/92 91/91/91
f 95/95/95 94/94/94 93/93/93
f 93/93/93 96/96/96 95/95/95
f 99/99/99 98/98/98 97/97/97
f 97/97/97 100/100/100 99/99/99
f 103/103/103 102/102/102 101/101/101
f 101/101/101 104/104/104 103/103/103
f 107/107/107 106/106/106 105/105/105
f 105/105/105 108/108/108 107/107/107
