g adaerbote_3-mesh
v -288 147 0
v -288 1427 0
v -1024 1427 0
v -1024 147 0
v -1024 147 0
v -1024 1427 0
v -1728 1427 0
v -1728 147 0
v -128 307 0
v -128 723 0
v -288 723 0
v -288 307 0
v -128 723 0
v -128 1139 0
v -288 1139 0
v -288 723 0
v -1728 243 0
v -1728 563 0
v -1920 563 0
v -1920 243 0
v -1728 563 0
v -1728 883 0
v -1920 883 0
v -1920 563 0
v -288 1427 0
v -288 1587 0
v -576 1587 0
v -576 1427 0
v -1056 51 0
v -1056 147 0
v -1472 147 0
v -1472 51 0
v -640 51 0
v -640 147 0
v -1056 147 0
v -1056 51 0
v -1920 307 0
v -1920 595 0
v -2047 595 0
v -2047 307 0
v -1344 1427 0
v -1344 1555 0
v -1568 1555 0
v -1568 1427 0
v -1568 1427 0
v -1568 1555 0
v -1760 1555 0
v -1760 1427 0
v -64 435 0
v -64 691 0
v -128 691 0
v -128 435 0
v -64 691 0
v -64 947 0
v -128 947 0
v -128 691 0
v -864 19 0
v -864 51 0
v -1152 51 0
v -1152 19 0
v -1728 1139 0
v -1728 1427 0
v -1760 1427 0
v -1760 1139 0
v -512 83 0
v -512 147 0
v -640 147 0
v -640 83 0
v -384 83 0
v -384 147 0
v -512 147 0
v -512 83 0
v -0 435 0
v -0 563 0
v -64 563 0
v -64 435 0
v -1536 1555 0
v -1536 1619 0
v -1664 1619 0
v -1664 1555 0
v -1152 19 0
v -1152 51 0
v -1408 51 0
v -1408 19 0
v -1728 883 0
v -1728 1139 0
v -1760 1139 0
v -1760 883 0
v -704 1427 0
v -704 1491 0
v -832 1491 0
v -832 1427 0
v -576 1427 0
v -576 1491 0
v -704 1491 0
v -704 1427 0
v -1920 595 0
v -1920 691 0
v -1984 691 0
v -1984 595 0
v -288 1587 0
v -288 1651 0
v -384 1651 0
v -384 1587 0
v -1760 883 0
v -1760 947 0
v -1856 947 0
v -1856 883 0
v -1248 1427 0
v -1248 1491 0
v -1344 1491 0
v -1344 1427 0
v -1664 1555 0
v -1664 1619 0
v -1760 1619 0
v -1760 1555 0
v -1152 1427 0
v -1152 1491 0
v -1248 1491 0
v -1248 1427 0
v -224 211 0
v -224 307 0
v -288 307 0
v -288 211 0
v -1472 83 0
v -1472 147 0
v -1536 147 0
v -1536 83 0
v -224 147 0
v -224 211 0
v -288 211 0
v -288 147 0
v -1728 211 0
v -1728 243 0
v -1824 243 0
v -1824 211 0
v -576 1491 0
v -576 1523 0
v -672 1523 0
v -672 1491 0
v -1280 1491 0
v -1280 1523 0
v -1344 1523 0
v -1344 1491 0
v -1056 1427 0
v -1056 1459 0
v -1120 1459 0
v -1120 1427 0
v -32 595 0
v -32 659 0
v -64 659 0
v -64 595 0
v -576 1523 0
v -576 1555 0
v -640 1555 0
v -640 1523 0
v -832 1427 0
v -832 1459 0
v -896 1459 0
v -896 1427 0
v -608 19 0
v -608 83 0
v -640 83 0
v -640 19 0
v -1184 0 0
v -1184 19 0
v -1248 19 0
v -1248 0 0
v -1728 179 0
v -1728 211 0
v -1792 211 0
v -1792 179 0
v -96 947 0
v -96 1011 0
v -128 1011 0
v -128 947 0
v -1984 595 0
v -1984 659 0
v -2016 659 0
v -2016 595 0
v -1440 1555 0
v -1440 1587 0
v -1504 1587 0
v -1504 1555 0
v -160 1139 0
v -160 1171 0
v -224 1171 0
v -224 1139 0
v -224 1139 0
v -224 1171 0
v -288 1171 0
v -288 1139 0
v -384 1587 0
v -384 1619 0
v -448 1619 0
v -448 1587 0
v -1824 211 0
v -1824 243 0
v -1888 243 0
v -1888 211 0
v -1632 1619 0
v -1632 1651 0
v -1696 1651 0
v -1696 1619 0
v -1696 1619 0
v -1696 1651 0
v -1760 1651 0
v -1760 1619 0
v -672 1491 0
v -672 1523 0
v -736 1523 0
v -736 1491 0
v -1248 1523 0
v -1248 1587 0
v -1280 1587 0
v -1280 1523 0
v -1920 275 0
v -1920 307 0
v -1952 307 0
v -1952 275 0
v -1760 947 0
v -1760 979 0
v -1792 979 0
v -1792 947 0
v -1856 883 0
v -1856 915 0
v -1888 915 0
v -1888 883 0
v -1920 691 0
v -1920 723 0
v -1952 723 0
v -1952 691 0
v -352 115 0
v -352 147 0
v -384 147 0
v -384 115 0
v -1760 147 0
v -1760 179 0
v -1792 179 0
v -1792 147 0
v -960 0 0
v -960 19 0
v -992 19 0
v -992 0 0
v -704 19 0
v -704 51 0
v -736 51 0
v -736 19 0
v -224 1171 0
v -224 1203 0
v -256 1203 0
v -256 1171 0
v -32 563 0
v -32 595 0
v -64 595 0
v -64 563 0
v -448 1587 0
v -448 1619 0
v -480 1619 0
v -480 1587 0
v -1248 1491 0
v -1248 1523 0
v -1280 1523 0
v -1280 1491 0
v -1120 1427 0
v -1120 1459 0
v -1152 1459 0
v -1152 1427 0
v -1184 1555 0
v -1184 1587 0
v -1216 1587 0
v -1216 1555 0
v -1216 1523 0
v -1216 1555 0
v -1248 1555 0
v -1248 1523 0
v -1504 1555 0
v -1504 1587 0
v -1536 1587 0
v -1536 1555 0
v -1472 1587 0
v -1472 1619 0
v -1504 1619 0
v -1504 1587 0
vt 0.00048828125 0.000724613667
vt 0.00048828125 0.928260863
vt 0.359863281 0.928260863
vt 0.359863281 0.000724613667
vt 0.360839844 0.000724613667
vt 0.360839844 0.928260863
vt 0.704589844 0.928260863
vt 0.704589844 0.000724613667
vt 0.705566406 0.000724613667
vt 0.705566406 0.302173913
vt 0.783691406 0.302173913
vt 0.783691406 0.000724613667
vt 0.784667969 0.000724613667
vt 0.784667969 0.302173913
vt 0.862792969 0.302173913
vt 0.862792969 0.000724613667
vt 0.863769531 0.000724613667
vt 0.863769531 0.232608676
vt 0.957519531 0.232608676
vt 0.957519531 0.000724613667
vt 0.863769531 0.234057963
vt 0.863769531 0.465942025
vt 0.957519531 0.465942025
vt 0.957519531 0.234057963
vt 0.705566406 0.303623199
vt 0.705566406 0.419565201
vt 0.846191406 0.419565201
vt 0.846191406 0.303623199
vt 0.00048828125 0.92971015
vt 0.00048828125 0.999275386
vt 0.203613281 0.999275386
vt 0.203613281 0.92971015
vt 0.204589844 0.92971015
vt 0.204589844 0.999275386
vt 0.407714844 0.999275386
vt 0.407714844 0.92971015
vt 0.705566406 0.421014488
vt 0.705566406 0.629710138
vt 0.768066406 0.629710138
vt 0.768066406 0.421014488
vt 0.863769531 0.467391312
vt 0.863769531 0.560144901
vt 0.973144531 0.560144901
vt 0.973144531 0.467391312
vt 0.769042969 0.421014488
vt 0.769042969 0.513768077
vt 0.862792969 0.513768077
vt 0.862792969 0.421014488
vt 0.769042969 0.515217423
vt 0.769042969 0.700724602
vt 0.800292969 0.700724602
vt 0.800292969 0.515217423
vt 0.801269531 0.515217423
vt 0.801269531 0.700724602
vt 0.832519531 0.700724602
vt 0.832519531 0.515217423
vt 0.769042969 0.702173948
vt 0.769042969 0.725362301
vt 0.909667969 0.725362301
vt 0.909667969 0.702173948
vt 0.974121094 0.000724613667
vt 0.974121094 0.209420264
vt 0.989746094 0.209420264
vt 0.989746094 0.000724613667
vt 0.910644531 0.561594188
vt 0.910644531 0.607971013
vt 0.973144531 0.607971013
vt 0.973144531 0.561594188
vt 0.910644531 0.6094203
vt 0.910644531 0.655797124
vt 0.973144531 0.655797124
vt 0.973144531 0.6094203
vt 0.705566406 0.631159425
vt 0.705566406 0.723913074
vt 0.736816406 0.723913074
vt 0.736816406 0.631159425
vt 0.910644531 0.657246351
vt 0.910644531 0.703623176
vt 0.973144531 0.703623176
vt 0.973144531 0.657246351
vt 0.769042969 0.726811588
vt 0.769042969 0.75
vt 0.894042969 0.75
vt 0.894042969 0.726811588
vt 0.974121094 0.210869551
vt 0.974121094 0.396376789
vt 0.989746094 0.396376789
vt 0.989746094 0.210869551
vt 0.910644531 0.705072463
vt 0.910644531 0.751449287
vt 0.973144531 0.751449287
vt 0.973144531 0.705072463
vt 0.705566406 0.725362301
vt 0.705566406 0.771739125
vt 0.768066406 0.771739125
vt 0.768066406 0.725362301
vt 0.769042969 0.751449287
vt 0.769042969 0.821014524
vt 0.800292969 0.821014524
vt 0.800292969 0.751449287
vt 0.801269531 0.751449287
vt 0.801269531 0.797826052
vt 0.848144531 0.797826052
vt 0.848144531 0.751449287
vt 0.849121094 0.751449287
vt 0.849121094 0.797826052
vt 0.895996094 0.797826052
vt 0.895996094 0.751449287
vt 0.910644531 0.752898574
vt 0.910644531 0.799275398
vt 0.957519531 0.799275398
vt 0.957519531 0.752898574
vt 0.705566406 0.773188412
vt 0.705566406 0.819565237
vt 0.752441406 0.819565237
vt 0.752441406 0.773188412
vt 0.801269531 0.799275398
vt 0.801269531 0.845652163
vt 0.848144531 0.845652163
vt 0.848144531 0.799275398
vt 0.958496094 0.752898574
vt 0.958496094 0.822463751
vt 0.989746094 0.822463751
vt 0.989746094 0.752898574
vt 0.849121094 0.799275398
vt 0.849121094 0.845652163
vt 0.880371094 0.845652163
vt 0.880371094 0.799275398
vt 0.910644531 0.800724626
vt 0.910644531 0.84710145
vt 0.941894531 0.84710145
vt 0.941894531 0.800724626
vt 0.705566406 0.821014524
vt 0.705566406 0.844202876
vt 0.752441406 0.844202876
vt 0.752441406 0.821014524
vt 0.705566406 0.845652163
vt 0.705566406 0.868840575
vt 0.752441406 0.868840575
vt 0.752441406 0.845652163
vt 0.769042969 0.822463751
vt 0.769042969 0.845652163
vt 0.800292969 0.845652163
vt 0.800292969 0.822463751
vt 0.958496094 0.823913038
vt 0.958496094 0.84710145
vt 0.989746094 0.84710145
vt 0.989746094 0.823913038
vt 0.881347656 0.799275398
vt 0.881347656 0.845652163
vt 0.896972656 0.845652163
vt 0.896972656 0.799275398
vt 0.769042969 0.84710145
vt 0.769042969 0.870289862
vt 0.800292969 0.870289862
vt 0.800292969 0.84710145
vt 0.801269531 0.84710145
vt 0.801269531 0.870289862
vt 0.832519531 0.870289862
vt 0.832519531 0.84710145
vt 0.833496094 0.84710145
vt 0.833496094 0.893478274
vt 0.849121094 0.893478274
vt 0.849121094 0.84710145
vt 0.850097656 0.84710145
vt 0.850097656 0.8615942
vt 0.881347656 0.8615942
vt 0.881347656 0.84710145
vt 0.910644531 0.848550737
vt 0.910644531 0.871739149
vt 0.941894531 0.871739149
vt 0.941894531 0.848550737
vt 0.882324219 0.84710145
vt 0.882324219 0.893478274
vt 0.897949219 0.893478274
vt 0.897949219 0.84710145
vt 0.958496094 0.848550737
vt 0.958496094 0.894927561
vt 0.974121094 0.894927561
vt 0.974121094 0.848550737
vt 0.850097656 0.863043487
vt 0.850097656 0.886231899
vt 0.881347656 0.886231899
vt 0.881347656 0.863043487
vt 0.705566406 0.870289862
vt 0.705566406 0.893478274
vt 0.736816406 0.893478274
vt 0.736816406 0.870289862
vt 0.769042969 0.871739149
vt 0.769042969 0.894927561
vt 0.800292969 0.894927561
vt 0.800292969 0.871739149
vt 0.801269531 0.871739149
vt 0.801269531 0.894927561
vt 0.832519531 0.894927561
vt 0.832519531 0.871739149
vt 0.910644531 0.873188376
vt 0.910644531 0.896376789
vt 0.941894531 0.896376789
vt 0.941894531 0.873188376
vt 0.850097656 0.887681127
vt 0.850097656 0.910869598
vt 0.881347656 0.910869598
vt 0.881347656 0.887681127
vt 0.705566406 0.894927561
vt 0.705566406 0.918115973
vt 0.736816406 0.918115973
vt 0.736816406 0.894927561
vt 0.769042969 0.896376789
vt 0.769042969 0.919565201
vt 0.800292969 0.919565201
vt 0.800292969 0.896376789
vt 0.975097656 0.848550737
vt 0.975097656 0.894927561
vt 0.990722656 0.894927561
vt 0.990722656 0.848550737
vt 0.737792969 0.870289862
vt 0.737792969 0.893478274
vt 0.753417969 0.893478274
vt 0.753417969 0.870289862
vt 0.737792969 0.894927561
vt 0.737792969 0.918115973
vt 0.753417969 0.918115973
vt 0.753417969 0.894927561
vt 0.833496094 0.894927561
vt 0.833496094 0.918115973
vt 0.849121094 0.918115973
vt 0.849121094 0.894927561
vt 0.882324219 0.894927561
vt 0.882324219 0.918115973
vt 0.897949219 0.918115973
vt 0.897949219 0.894927561
vt 0.801269531 0.896376789
vt 0.801269531 0.919565201
vt 0.816894531 0.919565201
vt 0.816894531 0.896376789
vt 0.958496094 0.896376789
vt 0.958496094 0.919565201
vt 0.974121094 0.919565201
vt 0.974121094 0.896376789
vt 0.975097656 0.896376789
vt 0.975097656 0.910869598
vt 0.990722656 0.910869598
vt 0.990722656 0.896376789
vt 0.910644531 0.897826076
vt 0.910644531 0.921014488
vt 0.926269531 0.921014488
vt 0.926269531 0.897826076
vt 0.927246094 0.897826076
vt 0.927246094 0.921014488
vt 0.942871094 0.921014488
vt 0.942871094 0.897826076
vt 0.850097656 0.912318826
vt 0.850097656 0.935507238
vt 0.865722656 0.935507238
vt 0.865722656 0.912318826
vt 0.975097656 0.912318826
vt 0.975097656 0.935507238
vt 0.990722656 0.935507238
vt 0.990722656 0.912318826
vt 0.705566406 0.919565201
vt 0.705566406 0.942753613
vt 0.721191406 0.942753613
vt 0.721191406 0.919565201
vt 0.722167969 0.919565201
vt 0.722167969 0.942753613
vt 0.737792969 0.942753613
vt 0.737792969 0.919565201
vt 0.738769531 0.919565201
vt 0.738769531 0.942753613
vt 0.754394531 0.942753613
vt 0.754394531 0.919565201
vt 0.833496094 0.919565201
vt 0.833496094 0.942753613
vt 0.849121094 0.942753613
vt 0.849121094 0.919565201
vt 0.882324219 0.919565201
vt 0.882324219 0.942753613
vt 0.897949219 0.942753613
vt 0.897949219 0.919565201
vt 0.769042969 0.921014488
vt 0.769042969 0.9442029
vt 0.784667969 0.9442029
vt 0.784667969 0.921014488
g adaerbote_3-mesh_0
f 3/3/3 2/2/2 1/1/1
f 1/1/1 4/4/4 3/3/3
f 7/7/7 6/6/6 5/5/5
f 5/5/5 8/8/8 7/7/7
f 11/11/11 10/10/10 9/9/9
f 9/9/9 12/12/12 11/11/11
f 15/15/15 14/14/14 13/13/13
f 13/13/13 16/16/16 15/15/15
f 19/19/19 18/18/18 17/17/17
f 17/17/17 20/20/20 19/19/19
f 23/23/23 22/22/22 21/21/21
f 21/21/21 24/24/24 23/23/23
f 27/27/27 26/26/26 25/25/25
f 25/25/25 28/28/28 27/27/27
f 31/31/31 30/30/30 29/29/29
f 29/29/29 32/32/32 31/31/31
f 35/35/35 34/34/34 33/33/33
f 33/33/33 36/36/36 35/35/35
f 39/39/39 38/38/38 37/37/37
f 37/37/37 40/40/40 39/39/39
f 43/43/43 42/42/42 41/41/41
f 41/41/41 44/44/44 43/43/43
f 47/47/47 46/46/46 45/45/45
f 45/45/45 48/48/48 47/47/47
f 51/51/51 50/50/50 49/49/49
f 49/49/49 52/52/52 51/51/51
f 55/55/55 54/54/54 53/53/53
f 53/53/53 56/56/56 55/55/55
f 59/59/59 58/58/58 57/57/57
f 57/57/57 60/60/60 59/59/59
f 63/63/63 62/62/62 61/61/61
f 61/61/61 64/64/64 63/63/63
f 67/67/67 66/66/66 65/65/65
f 65/65/65 68/68/68 67/67/67
f 71/71/71 70/70/70 69/69/69
f 69/69/69 72/72/72 71/71/71
f 75/75/75 74/74/74 73/73/73
f 73/73/73 76/76/76 75/75/75
f 79/79/79 78/78/78 77/77/77
f 77/77/77 80/80/80 79/79/79
f 83/83/83 82/82/82 81/81/81
f 81/81/81 84/84/84 83/83/83
f 87/87/87 86/86/86 85/85/85
f 85/85/85 88/88/88 87/87/87
f 91/91/91 90/90/90 89/89/89
f 89/89/89 92/92/92 91/91/91
f 95/95/95 94/94/94 93/93/93
f 93/93/93 96/96/96 95/95/95
f 99/99/99 98/98/98 97/97/97
f 97/97/97 100/100/100 99/99/99
f 103/103/103 102/102/102 101/101/101
f 101/101/101 104/104/104 103/103/103
f 107/107/107 106/106/106 105/105/105
f 105/105/105 108/108/108 107/107/107
f 111/111/111 110/110/110 109/109/109
f 109/109/109 112/112/112 111/111/111
f 115/115/115 114/114/114 113/113/113
f 113/113/113 116/116/116 115/115/115
f 119/119/119 118/118/118 117/117/117
f 117/117/117 120/120/120 119/119/119
f 123/123/123 122/122/122 121/121/121
f 121/121/121 124/124/124 123/123/123
f 127/127/127 126/126/126 125/125/125
f 125/125/125 128/128/128 127/127/127
f 131/131/131 130/130/130 129/129/129
f 129/129/129 132/132/132 131/131/131
f 135/135/135 134/134/134 133/133/133
f 133/133/133 136/136/136 135/135/135
f 139/139/139 138/138/138 137/137/137
f 137/137/137 140/140/140 139/139/139
f 143/143/143 142/142/142 141/141/141
f 141/141/141 144/144/144 143/143/143
f 147/147/147 146/146/146 145/145/145
f 145/145/145 148/148/148 147/147/147
f 151/151/151 150/150/150 149/149/149
f 149/149/149 152/152/152 151/151/151
f 155/155/155 154/154/154 153/153/153
f 153/153/153 156/156/156 155/155/155
f 159/159/159 158/158/158 157/157/157
f 157/157/157 160/160/160 159/159/159
f 163/163/163 162/162/162 161/161/161
f 161/161/161 164/164/164 163/163/163
f 167/167/167 166/166/166 165/165/165
f 165/165/165 168/168/168 167/167/167
f 171/171/171 170/170/170 169/169/169
f 169/169/169 172/172/172 171/171/171
f 175/175/175 174/174/174 173/173/173
f 173/173/173 176/176/176 175/175/175
f 179/179/179 178/178/178 177/177/177
f 177/177/177 180/180/180 179/179/179
f 183/183/183 182/182/182 181/181/181
f 181/181/181 184/184/184 183/183/183
f 187/187/187 186/186/186 185/185/185
f 185/185/185 188/188/188 187/187/187
f 191/191/191 190/190/190 189/189/189
f 189/189/189 192/192/192 191/191/191
f 195/195/195 194/194/194 193/193/193
f 193/193/193 196/196/196 195/195/195
f 199/199/199 198/198/198 197/197/197
f 197/197/197 200/200/200 199/199/199
f 203/203/203 202/202/202 201/201/201
f 201/201/201 204/204/204 203/203/203
f 207/207/207 206/206/206 205/205/205
f 205/205/205 208/208/208 207/207/207
f 211/211/211 210/210/210 209/209/209
f 209/209/209 212/212/212 211/211/211
f 215/215/215 214/214/214 213/213/213
f 213/213/213 216/216/216 215/215/215
f 219/219/219 218/218/218 217/217/217
f 217/217/217 220/220/220 219/219/219
f 223/223/223 222/222/222 221/221/221
f 221/221/221 224/224/224 223/223/223
f 227/227/227 226/226/226 225/225/225
f 225/225/225 228/228/228 227/227/227
f 231/231/231 230/230/230 229/229/229
f 229/229/229 232/232/232 231/231/231
f 235/235/235 234/234/234 233/233/233
f 233/233/233 236/236/236 235/235/235
f 239/239/239 238/238/238 237/237/237
f 237/237/237 240/240/240 239/239/239
f 243/243/243 242/242/242 241/241/241
f 241/241/241 244/244/244 243/243/243
f 247/247/247 246/246/246 245/245/245
f 245/245/245 248/248/248 247/247/247
f 251/251/251 250/250/250 249/249/249
f 249/249/249 252/252/252 251/251/251
f 255/255/255 254/254/254 253/253/253
f 253/253/253 256/256/256 255/255/255
f 259/259/259 258/258/258 257/257/257
f 257/257/257 260/260/260 259/259/259
f 263/263/263 262/262/262 261/261/261
f 261/261/261 264/264/264 263/263/263
f 267/267/267 266/266/266 265/265/265
f 265/265/265 268/268/268 267/267/267
f 271/271/271 270/270/270 269/269/269
f 269/269/269 272/272/272 271/271/271
f 275/275/275 274/274/274 273/273/273
f 273/273/273 276/276/276 275/275/275
f 279/279/279 278/278/278 277/277/277
f 277/277/277 280/280/280 279/279/279
f 283/283/283 282/282/282 281/281/281
f 281/281/281 284/284/284 283/283/283
