g hongseshanmai_2_rw-mesh
v -896 985 0
v -896 1593 0
v -1568 1593 0
v -1568 985 0
v -896 409 0
v -896 985 0
v -1568 985 0
v -1568 409 0
v -512 345 0
v -512 1049 0
v -864 1049 0
v -864 345 0
v -512 1049 0
v -512 1753 0
v -864 1753 0
v -864 1049 0
v -1088 121 0
v -1088 409 0
v -1568 409 0
v -1568 121 0
v -224 1401 0
v -224 1881 0
v -512 1881 0
v -512 1401 0
v -1344 1593 0
v -1344 1977 0
v -1696 1977 0
v -1696 1593 0
v -256 505 0
v -256 953 0
v -512 953 0
v -512 505 0
v -1696 1529 0
v -1696 1785 0
v -1984 1785 0
v -1984 1529 0
v -64 665 0
v -64 889 0
v -256 889 0
v -256 665 0
v -448 217 0
v -448 345 0
v -736 345 0
v -736 217 0
v -352 1209 0
v -352 1401 0
v -512 1401 0
v -512 1209 0
v -1568 1401 0
v -1568 1593 0
v -1696 1593 0
v -1696 1401 0
v -1568 1209 0
v -1568 1401 0
v -1696 1401 0
v -1696 1209 0
v -864 377 0
v -864 1049 0
v -896 1049 0
v -896 377 0
v -864 1049 0
v -864 1721 0
v -896 1721 0
v -896 1049 0
v -352 377 0
v -352 505 0
v -512 505 0
v -512 377 0
v -1152 1593 0
v -1152 1689 0
v -1344 1689 0
v -1344 1593 0
v -1568 441 0
v -1568 601 0
v -1664 601 0
v -1664 441 0
v -1568 601 0
v -1568 761 0
v -1664 761 0
v -1664 601 0
v -960 313 0
v -960 409 0
v -1088 409 0
v -1088 313 0
v -1312 25 0
v -1312 121 0
v -1440 121 0
v -1440 25 0
v -160 1689 0
v -160 1881 0
v -224 1881 0
v -224 1689 0
v -160 1497 0
v -160 1689 0
v -224 1689 0
v -224 1497 0
v -1184 25 0
v -1184 121 0
v -1312 121 0
v -1312 25 0
v -896 1593 0
v -896 1689 0
v -992 1689 0
v -992 1593 0
v -416 1113 0
v -416 1209 0
v -512 1209 0
v -512 1113 0
v -1696 1273 0
v -1696 1369 0
v -1792 1369 0
v -1792 1273 0
v -224 1881 0
v -224 1945 0
v -352 1945 0
v -352 1881 0
v -1440 1977 0
v -1440 2041 0
v -1568 2041 0
v -1568 1977 0
v -1696 1433 0
v -1696 1497 0
v -1824 1497 0
v -1824 1433 0
v -0 729 0
v -0 825 0
v -64 825 0
v -64 729 0
v -1984 1593 0
v -1984 1689 0
v -2047 1689 0
v -2047 1593 0
v -1024 217 0
v -1024 313 0
v -1088 313 0
v -1088 217 0
v -288 1305 0
v -288 1401 0
v -352 1401 0
v -352 1305 0
v -1696 1369 0
v -1696 1433 0
v -1792 1433 0
v -1792 1369 0
v -96 1689 0
v -96 1785 0
v -160 1785 0
v -160 1689 0
v -512 1753 0
v -512 1817 0
v -608 1817 0
v -608 1753 0
v -608 1753 0
v -608 1817 0
v -704 1817 0
v -704 1753 0
v -1824 1433 0
v -1824 1497 0
v -1920 1497 0
v -1920 1433 0
v -576 153 0
v -576 217 0
v -672 217 0
v -672 153 0
v -1568 1977 0
v -1568 2041 0
v -1664 2041 0
v -1664 1977 0
v -480 153 0
v -480 217 0
v -576 217 0
v -576 153 0
v -96 1593 0
v -96 1689 0
v -160 1689 0
v -160 1593 0
v -1568 1049 0
v -1568 1209 0
v -1600 1209 0
v -1600 1049 0
v -1440 57 0
v -1440 121 0
v -1504 121 0
v -1504 57 0
v -384 313 0
v -384 377 0
v -448 377 0
v -448 313 0
v -192 601 0
v -192 665 0
v -256 665 0
v -256 601 0
v -1312 1785 0
v -1312 1913 0
v -1344 1913 0
v -1344 1785 0
v -1824 1497 0
v -1824 1529 0
v -1952 1529 0
v -1952 1497 0
v -1792 1369 0
v -1792 1433 0
v -1856 1433 0
v -1856 1369 0
v -1696 1497 0
v -1696 1529 0
v -1824 1529 0
v -1824 1497 0
v -1568 313 0
v -1568 441 0
v -1600 441 0
v -1600 313 0
v -1568 921 0
v -1568 1049 0
v -1600 1049 0
v -1600 921 0
v -1568 217 0
v -1568 313 0
v -1600 313 0
v -1600 217 0
v -1696 1849 0
v -1696 1945 0
v -1728 1945 0
v -1728 1849 0
v -1312 1689 0
v -1312 1785 0
v -1344 1785 0
v -1344 1689 0
v -704 1753 0
v -704 1785 0
v -768 1785 0
v -768 1753 0
v -1280 1689 0
v -1280 1753 0
v -1312 1753 0
v -1312 1689 0
v -1376 1977 0
v -1376 2009 0
v -1440 2009 0
v -1440 1977 0
v -320 441 0
v -320 505 0
v -352 505 0
v -352 441 0
v -1568 793 0
v -1568 857 0
v -1600 857 0
v -1600 793 0
v -1600 377 0
v -1600 441 0
v -1632 441 0
v -1632 377 0
v -512 121 0
v -512 153 0
v -576 153 0
v -576 121 0
v -736 281 0
v -736 345 0
v -768 345 0
v -768 281 0
v -64 1657 0
v -64 1721 0
v -96 1721 0
v -96 1657 0
v -448 345 0
v -448 377 0
v -512 377 0
v -512 345 0
v -1600 1177 0
v -1600 1209 0
v -1664 1209 0
v -1664 1177 0
v -1120 89 0
v -1120 121 0
v -1184 121 0
v -1184 89 0
v -768 281 0
v -768 345 0
v -800 345 0
v -800 281 0
v -992 1593 0
v -992 1657 0
v -1024 1657 0
v -1024 1593 0
v -896 1689 0
v -896 1721 0
v -960 1721 0
v -960 1689 0
v -1696 1209 0
v -1696 1273 0
v -1728 1273 0
v -1728 1209 0
v -1120 1593 0
v -1120 1657 0
v -1152 1657 0
v -1152 1593 0
v -1216 0 0
v -1216 25 0
v -1280 25 0
v -1280 0 0
v -1664 633 0
v -1664 697 0
v -1696 697 0
v -1696 633 0
v -1280 0 0
v -1280 25 0
v -1344 25 0
v -1344 0 0
v -512 1817 0
v -512 1849 0
v -576 1849 0
v -576 1817 0
v -352 1881 0
v -352 1913 0
v -416 1913 0
v -416 1881 0
v -384 953 0
v -384 985 0
v -448 985 0
v -448 953 0
v -1696 1785 0
v -1696 1849 0
v -1728 1849 0
v -1728 1785 0
v -448 953 0
v -448 985 0
v -512 985 0
v -512 953 0
v -192 889 0
v -192 921 0
v -256 921 0
v -256 889 0
v -128 889 0
v -128 921 0
v -192 921 0
v -192 889 0
v -480 1049 0
v -480 1113 0
v -512 1113 0
v -512 1049 0
v -1856 1785 0
v -1856 1817 0
v -1920 1817 0
v -1920 1785 0
v -1664 569 0
v -1664 633 0
v -1696 633 0
v -1696 569 0
v -256 1369 0
v -256 1401 0
v -288 1401 0
v -288 1369 0
v -320 1273 0
v -320 1305 0
v -352 1305 0
v -352 1273 0
v -1600 761 0
v -1600 793 0
v -1632 793 0
v -1632 761 0
v -192 1465 0
v -192 1497 0
v -224 1497 0
v -224 1465 0
v -448 1081 0
v -448 1113 0
v -480 1113 0
v -480 1081 0
v -32 697 0
v -32 729 0
v -64 729 0
v -64 697 0
v -384 1177 0
v -384 1209 0
v -416 1209 0
v -416 1177 0
v -1728 1241 0
v -1728 1273 0
v -1760 1273 0
v -1760 1241 0
v -224 569 0
v -224 601 0
v -256 601 0
v -256 569 0
v -288 473 0
v -288 505 0
v -320 505 0
v -320 473 0
v -1056 185 0
v -1056 217 0
v -1088 217 0
v -1088 185 0
v -672 185 0
v -672 217 0
v -704 217 0
v -704 185 0
v -1504 89 0
v -1504 121 0
v -1536 121 0
v -1536 89 0
v -544 89 0
v -544 121 0
v -576 121 0
v -576 89 0
v -992 281 0
v -992 313 0
v -1024 313 0
v -1024 281 0
v -928 377 0
v -928 409 0
v -960 409 0
v -960 377 0
v -1152 57 0
v -1152 89 0
v -1184 89 0
v -1184 57 0
v -416 281 0
v -416 313 0
v -448 313 0
v -448 281 0
v -800 313 0
v -800 345 0
v -832 345 0
v -832 313 0
v -576 1817 0
v -576 1849 0
v -608 1849 0
v -608 1817 0
v -736 249 0
v -736 281 0
v -768 281 0
v -768 249 0
v -416 1881 0
v -416 1913 0
v -448 1913 0
v -448 1881 0
v -576 121 0
v -576 153 0
v -608 153 0
v -608 121 0
v -1600 345 0
v -1600 377 0
v -1632 377 0
v -1632 345 0
v -1568 761 0
v -1568 793 0
v -1600 793 0
v -1600 761 0
v -480 1017 0
v -480 1049 0
v -512 1049 0
v -512 1017 0
v -1920 1785 0
v -1920 1817 0
v -1952 1817 0
v -1952 1785 0
v -320 409 0
v -320 441 0
v -352 441 0
v -352 409 0
v -1664 1977 0
v -1664 2009 0
v -1696 2009 0
v -1696 1977 0
v -1088 1593 0
v -1088 1625 0
v -1120 1625 0
v -1120 1593 0
v -1024 1593 0
v -1024 1625 0
v -1056 1625 0
v -1056 1593 0
v -1984 1561 0
v -1984 1593 0
v -2016 1593 0
v -2016 1561 0
v -128 1561 0
v -128 1593 0
v -160 1593 0
v -160 1561 0
v -1248 1689 0
v -1248 1721 0
v -1280 1721 0
v -1280 1689 0
v -512 1849 0
v -512 1881 0
v -544 1881 0
v -544 1849 0
v -192 1881 0
v -192 1913 0
v -224 1913 0
v -224 1881 0
v -128 1785 0
v -128 1817 0
v -160 1817 0
v -160 1785 0
v -1920 1817 0
v -1920 1849 0
v -1952 1849 0
v -1952 1817 0
vt 0.00048828125 0.000736355782
vt 0.00048828125 0.448453605
vt 0.328613281 0.448453605
vt 0.328613281 0.000736355782
vt 0.329589844 0.000736355782
vt 0.329589844 0.424889565
vt 0.657714844 0.424889565
vt 0.657714844 0.000736355782
vt 0.658691406 0.000736355782
vt 0.658691406 0.519145846
vt 0.830566406 0.519145846
vt 0.830566406 0.000736355782
vt 0.329589844 0.426362276
vt 0.329589844 0.944771707
vt 0.501464844 0.944771707
vt 0.501464844 0.426362276
vt 0.00048828125 0.449926376
vt 0.00048828125 0.662002921
vt 0.234863281 0.662002921
vt 0.234863281 0.449926376
vt 0.831542969 0.000736355782
vt 0.831542969 0.354197323
vt 0.972167969 0.354197323
vt 0.972167969 0.000736355782
vt 0.658691406 0.520618558
vt 0.658691406 0.803387344
vt 0.830566406 0.803387344
vt 0.830566406 0.520618558
vt 0.831542969 0.355670094
vt 0.831542969 0.685567021
vt 0.956542969 0.685567021
vt 0.956542969 0.355670094
vt 0.502441406 0.426362276
vt 0.502441406 0.61487484
vt 0.643066406 0.61487484
vt 0.643066406 0.426362276
vt 0.502441406 0.616347551
vt 0.502441406 0.781296015
vt 0.596191406 0.781296015
vt 0.596191406 0.616347551
vt 0.00048828125 0.663475692
vt 0.00048828125 0.757731974
vt 0.141113281 0.757731974
vt 0.141113281 0.663475692
vt 0.235839844 0.449926376
vt 0.235839844 0.59131074
vt 0.313964844 0.59131074
vt 0.313964844 0.449926376
vt 0.235839844 0.592783511
vt 0.235839844 0.734167933
vt 0.298339844 0.734167933
vt 0.298339844 0.592783511
vt 0.142089844 0.663475692
vt 0.142089844 0.804860115
vt 0.204589844 0.804860115
vt 0.204589844 0.663475692
vt 0.973144531 0.000736355782
vt 0.973144531 0.495581746
vt 0.988769531 0.495581746
vt 0.988769531 0.000736355782
vt 0.973144531 0.497054517
vt 0.973144531 0.991899848
vt 0.988769531 0.991899848
vt 0.988769531 0.497054517
vt 0.831542969 0.687039733
vt 0.831542969 0.781296015
vt 0.909667969 0.781296015
vt 0.909667969 0.687039733
vt 0.00048828125 0.759204745
vt 0.00048828125 0.829896927
vt 0.0942382812 0.829896927
vt 0.0942382812 0.759204745
vt 0.597167969 0.616347551
vt 0.597167969 0.734167933
vt 0.644042969 0.734167933
vt 0.644042969 0.616347551
vt 0.910644531 0.687039733
vt 0.910644531 0.804860115
vt 0.957519531 0.804860115
vt 0.957519531 0.687039733
vt 0.235839844 0.735640645
vt 0.235839844 0.806332827
vt 0.298339844 0.806332827
vt 0.298339844 0.735640645
vt 0.502441406 0.782768786
vt 0.502441406 0.853460968
vt 0.564941406 0.853460968
vt 0.564941406 0.782768786
vt 0.597167969 0.735640645
vt 0.597167969 0.877025008
vt 0.628417969 0.877025008
vt 0.628417969 0.735640645
vt 0.0952148438 0.759204745
vt 0.0952148438 0.900589108
vt 0.126464844 0.900589108
vt 0.126464844 0.759204745
vt 0.831542969 0.782768786
vt 0.831542969 0.853460968
vt 0.894042969 0.853460968
vt 0.894042969 0.782768786
vt 0.658691406 0.804860115
vt 0.658691406 0.875552297
vt 0.705566406 0.875552297
vt 0.705566406 0.804860115
vt 0.706542969 0.804860115
vt 0.706542969 0.875552297
vt 0.753417969 0.875552297
vt 0.753417969 0.804860115
vt 0.754394531 0.804860115
vt 0.754394531 0.875552297
vt 0.801269531 0.875552297
vt 0.801269531 0.804860115
vt 0.142089844 0.806332827
vt 0.142089844 0.853460968
vt 0.204589844 0.853460968
vt 0.204589844 0.806332827
vt 0.235839844 0.807805598
vt 0.235839844 0.854933739
vt 0.298339844 0.854933739
vt 0.298339844 0.807805598
vt 0.00048828125 0.831369638
vt 0.00048828125 0.878497779
vt 0.0629882812 0.878497779
vt 0.0629882812 0.831369638
vt 0.910644531 0.806332827
vt 0.910644531 0.877025008
vt 0.941894531 0.877025008
vt 0.941894531 0.806332827
vt 0.142089844 0.854933739
vt 0.142089844 0.92562592
vt 0.173339844 0.92562592
vt 0.173339844 0.854933739
vt 0.174316406 0.854933739
vt 0.174316406 0.92562592
vt 0.205566406 0.92562592
vt 0.205566406 0.854933739
vt 0.502441406 0.854933739
vt 0.502441406 0.92562592
vt 0.533691406 0.92562592
vt 0.533691406 0.854933739
vt 0.534667969 0.854933739
vt 0.534667969 0.90206188
vt 0.581542969 0.90206188
vt 0.581542969 0.854933739
vt 0.831542969 0.854933739
vt 0.831542969 0.92562592
vt 0.862792969 0.92562592
vt 0.862792969 0.854933739
vt 0.235839844 0.85640645
vt 0.235839844 0.903534591
vt 0.282714844 0.903534591
vt 0.282714844 0.85640645
vt 0.658691406 0.877025008
vt 0.658691406 0.924153149
vt 0.705566406 0.924153149
vt 0.705566406 0.877025008
vt 0.706542969 0.877025008
vt 0.706542969 0.924153149
vt 0.753417969 0.924153149
vt 0.753417969 0.877025008
vt 0.754394531 0.877025008
vt 0.754394531 0.924153149
vt 0.801269531 0.924153149
vt 0.801269531 0.877025008
vt 0.597167969 0.878497779
vt 0.597167969 0.92562592
vt 0.644042969 0.92562592
vt 0.644042969 0.878497779
vt 0.910644531 0.878497779
vt 0.910644531 0.92562592
vt 0.957519531 0.92562592
vt 0.957519531 0.878497779
vt 0.863769531 0.854933739
vt 0.863769531 0.92562592
vt 0.895019531 0.92562592
vt 0.895019531 0.854933739
vt 0.299316406 0.592783511
vt 0.299316406 0.710603833
vt 0.314941406 0.710603833
vt 0.314941406 0.592783511
vt 0.283691406 0.85640645
vt 0.283691406 0.903534591
vt 0.314941406 0.903534591
vt 0.314941406 0.85640645
vt 0.00048828125 0.879970551
vt 0.00048828125 0.927098691
vt 0.0317382812 0.927098691
vt 0.0317382812 0.879970551
vt 0.0327148438 0.879970551
vt 0.0327148438 0.927098691
vt 0.0639648438 0.927098691
vt 0.0639648438 0.879970551
vt 0.206542969 0.663475692
vt 0.206542969 0.757731974
vt 0.222167969 0.757731974
vt 0.222167969 0.663475692
vt 0.235839844 0.905007362
vt 0.235839844 0.928571403
vt 0.298339844 0.928571403
vt 0.298339844 0.905007362
vt 0.0952148438 0.90206188
vt 0.0952148438 0.949189961
vt 0.126464844 0.949189961
vt 0.126464844 0.90206188
vt 0.658691406 0.92562592
vt 0.658691406 0.949189961
vt 0.721191406 0.949189961
vt 0.721191406 0.92562592
vt 0.206542969 0.759204745
vt 0.206542969 0.853460968
vt 0.222167969 0.853460968
vt 0.222167969 0.759204745
vt 0.802246094 0.804860115
vt 0.802246094 0.899116337
vt 0.817871094 0.899116337
vt 0.817871094 0.804860115
vt 0.0649414062 0.831369638
vt 0.0649414062 0.90206188
vt 0.0805664062 0.90206188
vt 0.0805664062 0.831369638
vt 0.206542969 0.854933739
vt 0.206542969 0.92562592
vt 0.222167969 0.92562592
vt 0.222167969 0.854933739
vt 0.802246094 0.900589108
vt 0.802246094 0.97128129
vt 0.817871094 0.97128129
vt 0.817871094 0.900589108
vt 0.534667969 0.903534591
vt 0.534667969 0.927098691
vt 0.565917969 0.927098691
vt 0.565917969 0.903534591
vt 0.0649414062 0.903534591
vt 0.0649414062 0.950662732
vt 0.0805664062 0.950662732
vt 0.0805664062 0.903534591
vt 0.722167969 0.92562592
vt 0.722167969 0.949189961
vt 0.753417969 0.949189961
vt 0.753417969 0.92562592
vt 0.566894531 0.903534591
vt 0.566894531 0.950662732
vt 0.582519531 0.950662732
vt 0.582519531 0.903534591
vt 0.299316406 0.905007362
vt 0.299316406 0.952135503
vt 0.314941406 0.952135503
vt 0.314941406 0.905007362
vt 0.754394531 0.92562592
vt 0.754394531 0.972754061
vt 0.770019531 0.972754061
vt 0.770019531 0.92562592
vt 0.142089844 0.927098691
vt 0.142089844 0.950662732
vt 0.173339844 0.950662732
vt 0.173339844 0.927098691
vt 0.770996094 0.92562592
vt 0.770996094 0.972754061
vt 0.786621094 0.972754061
vt 0.786621094 0.92562592
vt 0.174316406 0.927098691
vt 0.174316406 0.974226832
vt 0.189941406 0.974226832
vt 0.189941406 0.927098691
vt 0.190917969 0.927098691
vt 0.190917969 0.950662732
vt 0.222167969 0.950662732
vt 0.222167969 0.927098691
vt 0.502441406 0.927098691
vt 0.502441406 0.950662732
vt 0.533691406 0.950662732
vt 0.533691406 0.927098691
vt 0.597167969 0.927098691
vt 0.597167969 0.950662732
vt 0.628417969 0.950662732
vt 0.628417969 0.927098691
vt 0.629394531 0.927098691
vt 0.629394531 0.974226832
vt 0.645019531 0.974226832
vt 0.645019531 0.927098691
vt 0.831542969 0.927098691
vt 0.831542969 0.974226832
vt 0.847167969 0.974226832
vt 0.847167969 0.927098691
vt 0.848144531 0.927098691
vt 0.848144531 0.950662732
vt 0.879394531 0.950662732
vt 0.879394531 0.927098691
vt 0.880371094 0.927098691
vt 0.880371094 0.974226832
vt 0.895996094 0.974226832
vt 0.895996094 0.927098691
vt 0.910644531 0.927098691
vt 0.910644531 0.974226832
vt 0.926269531 0.974226832
vt 0.926269531 0.927098691
vt 0.927246094 0.927098691
vt 0.927246094 0.946244478
vt 0.958496094 0.946244478
vt 0.958496094 0.927098691
vt 0.00048828125 0.928571403
vt 0.00048828125 0.975699544
vt 0.0161132812 0.975699544
vt 0.0161132812 0.928571403
vt 0.0170898438 0.928571403
vt 0.0170898438 0.947717249
vt 0.0483398438 0.947717249
vt 0.0483398438 0.928571403
vt 0.534667969 0.928571403
vt 0.534667969 0.952135503
vt 0.565917969 0.952135503
vt 0.565917969 0.928571403
vt 0.235839844 0.930044174
vt 0.235839844 0.953608274
vt 0.267089844 0.953608274
vt 0.267089844 0.930044174
vt 0.329589844 0.946244478
vt 0.329589844 0.969808519
vt 0.360839844 0.969808519
vt 0.360839844 0.946244478
vt 0.268066406 0.930044174
vt 0.268066406 0.977172315
vt 0.283691406 0.977172315
vt 0.283691406 0.930044174
vt 0.361816406 0.946244478
vt 0.361816406 0.969808519
vt 0.393066406 0.969808519
vt 0.393066406 0.946244478
vt 0.394042969 0.946244478
vt 0.394042969 0.969808519
vt 0.425292969 0.969808519
vt 0.425292969 0.946244478
vt 0.426269531 0.946244478
vt 0.426269531 0.969808519
vt 0.457519531 0.969808519
vt 0.457519531 0.946244478
vt 0.458496094 0.946244478
vt 0.458496094 0.993372619
vt 0.474121094 0.993372619
vt 0.474121094 0.946244478
vt 0.927246094 0.947717249
vt 0.927246094 0.97128129
vt 0.958496094 0.97128129
vt 0.958496094 0.947717249
vt 0.475097656 0.946244478
vt 0.475097656 0.993372619
vt 0.490722656 0.993372619
vt 0.490722656 0.946244478
vt 0.0170898438 0.949189961
vt 0.0170898438 0.972754061
vt 0.0327148438 0.972754061
vt 0.0327148438 0.949189961
vt 0.0336914062 0.949189961
vt 0.0336914062 0.972754061
vt 0.0493164062 0.972754061
vt 0.0493164062 0.949189961
vt 0.0952148438 0.950662732
vt 0.0952148438 0.974226832
vt 0.110839844 0.974226832
vt 0.110839844 0.950662732
vt 0.111816406 0.950662732
vt 0.111816406 0.974226832
vt 0.127441406 0.974226832
vt 0.127441406 0.950662732
vt 0.658691406 0.950662732
vt 0.658691406 0.974226832
vt 0.674316406 0.974226832
vt 0.674316406 0.950662732
vt 0.675292969 0.950662732
vt 0.675292969 0.974226832
vt 0.690917969 0.974226832
vt 0.690917969 0.950662732
vt 0.691894531 0.950662732
vt 0.691894531 0.974226832
vt 0.707519531 0.974226832
vt 0.707519531 0.950662732
vt 0.708496094 0.950662732
vt 0.708496094 0.974226832
vt 0.724121094 0.974226832
vt 0.724121094 0.950662732
vt 0.725097656 0.950662732
vt 0.725097656 0.974226832
vt 0.740722656 0.974226832
vt 0.740722656 0.950662732
vt 0.0649414062 0.952135503
vt 0.0649414062 0.975699544
vt 0.0805664062 0.975699544
vt 0.0805664062 0.952135503
vt 0.142089844 0.952135503
vt 0.142089844 0.975699544
vt 0.157714844 0.975699544
vt 0.157714844 0.952135503
vt 0.190917969 0.952135503
vt 0.190917969 0.975699544
vt 0.206542969 0.975699544
vt 0.206542969 0.952135503
vt 0.207519531 0.952135503
vt 0.207519531 0.975699544
vt 0.223144531 0.975699544
vt 0.223144531 0.952135503
vt 0.502441406 0.952135503
vt 0.502441406 0.975699544
vt 0.518066406 0.975699544
vt 0.518066406 0.952135503
vt 0.566894531 0.952135503
vt 0.566894531 0.975699544
vt 0.582519531 0.975699544
vt 0.582519531 0.952135503
vt 0.597167969 0.952135503
vt 0.597167969 0.975699544
vt 0.612792969 0.975699544
vt 0.612792969 0.952135503
vt 0.848144531 0.952135503
vt 0.848144531 0.975699544
vt 0.863769531 0.975699544
vt 0.863769531 0.952135503
vt 0.299316406 0.953608274
vt 0.299316406 0.977172315
vt 0.314941406 0.977172315
vt 0.314941406 0.953608274
vt 0.534667969 0.953608274
vt 0.534667969 0.977172315
vt 0.550292969 0.977172315
vt 0.550292969 0.953608274
vt 0.235839844 0.955080986
vt 0.235839844 0.978645086
vt 0.251464844 0.978645086
vt 0.251464844 0.955080986
vt 0.329589844 0.97128129
vt 0.329589844 0.99484539
vt 0.345214844 0.99484539
vt 0.345214844 0.97128129
vt 0.346191406 0.97128129
vt 0.346191406 0.99484539
vt 0.361816406 0.99484539
vt 0.361816406 0.97128129
vt 0.362792969 0.97128129
vt 0.362792969 0.99484539
vt 0.378417969 0.99484539
vt 0.378417969 0.97128129
vt 0.379394531 0.97128129
vt 0.379394531 0.99484539
vt 0.395019531 0.99484539
vt 0.395019531 0.97128129
vt 0.395996094 0.97128129
vt 0.395996094 0.99484539
vt 0.411621094 0.99484539
vt 0.411621094 0.97128129
vt 0.412597656 0.97128129
vt 0.412597656 0.99484539
vt 0.428222656 0.99484539
vt 0.428222656 0.97128129
vt 0.429199219 0.97128129
vt 0.429199219 0.99484539
vt 0.444824219 0.99484539
vt 0.444824219 0.97128129
vt 0.802246094 0.972754061
vt 0.802246094 0.996318102
vt 0.817871094 0.996318102
vt 0.817871094 0.972754061
vt 0.927246094 0.972754061
vt 0.927246094 0.996318102
vt 0.942871094 0.996318102
vt 0.942871094 0.972754061
vt 0.943847656 0.972754061
vt 0.943847656 0.996318102
vt 0.959472656 0.996318102
vt 0.959472656 0.972754061
vt 0.0170898438 0.974226832
vt 0.0170898438 0.997790873
vt 0.0327148438 0.997790873
vt 0.0327148438 0.974226832
vt 0.0336914062 0.974226832
vt 0.0336914062 0.997790873
vt 0.0493164062 0.997790873
vt 0.0493164062 0.974226832
vt 0.754394531 0.974226832
vt 0.754394531 0.997790873
vt 0.770019531 0.997790873
vt 0.770019531 0.974226832
vt 0.770996094 0.974226832
vt 0.770996094 0.997790873
vt 0.786621094 0.997790873
vt 0.786621094 0.974226832
vt 0.0952148438 0.975699544
vt 0.0952148438 0.999263644
vt 0.110839844 0.999263644
vt 0.110839844 0.975699544
vt 0.111816406 0.975699544
vt 0.111816406 0.999263644
vt 0.127441406 0.999263644
vt 0.127441406 0.975699544
vt 0.174316406 0.975699544
vt 0.174316406 0.999263644
vt 0.189941406 0.999263644
vt 0.189941406 0.975699544
vt 0.629394531 0.975699544
vt 0.629394531 0.999263644
vt 0.645019531 0.999263644
vt 0.645019531 0.975699544
g hongseshanmai_2_rw-mesh_0
f 3/3/3 2/2/2 1/1/1
f 1/1/1 4/4/4 3/3/3
f 7/7/7 6/6/6 5/5/5
f 5/5/5 8/8/8 7/7/7
f 11/11/11 10/10/10 9/9/9
f 9/9/9 12/12/12 11/11/11
f 15/15/15 14/14/14 13/13/13
f 13/13/13 16/16/16 15/15/15
f 19/19/19 18/18/18 17/17/17
f 17/17/17 20/20/20 19/19/19
f 23/23/23 22/22/22 21/21/21
f 21/21/21 24/24/24 23/23/23
f 27/27/27 26/26/26 25/25/25
f 25/25/25 28/28/28 27/27/27
f 31/31/31 30/30/30 29/29/29
f 29/29/29 32/32/32 31/31/31
f 35/35/35 34/34/34 33/33/33
f 33/33/33 36/36/36 35/35/35
f 39/39/39 38/38/38 37/37/37
f 37/37/37 40/40/40 39/39/39
f 43/43/43 42/42/42 41/41/41
f 41/41/41 44/44/44 43/43/43
f 47/47/47 46/46/46 45/45/45
f 45/45/45 48/48/48 47/47/47
f 51/51/51 50/50/50 49/49/49
f 49/49/49 52/52/52 51/51/51
f 55/55/55 54/54/54 53/53/53
f 53/53/53 56/56/56 55/55/55
f 59/59/59 58/58/58 57/57/57
f 57/57/57 60/60/60 59/59/59
f 63/63/63 62/62/62 61/61/61
f 61/61/61 64/64/64 63/63/63
f 67/67/67 66/66/66 65/65/65
f 65/65/65 68/68/68 67/67/67
f 71/71/71 70/70/70 69/69/69
f 69/69/69 72/72/72 71/71/71
f 75/75/75 74/74/74 73/73/73
f 73/73/73 76/76/76 75/75/75
f 79/79/79 78/78/78 77/77/77
f 77/77/77 80/80/80 79/79/79
f 83/83/83 82/82/82 81/81/81
f 81/81/81 84/84/84 83/83/83
f 87/87/87 86/86/86 85/85/85
f 85/85/85 88/88/88 87/87/87
f 91/91/91 90/90/90 89/89/89
f 89/89/89 92/92/92 91/91/91
f 95/95/95 94/94/94 93/93/93
f 93/93/93 96/96/96 95/95/95
f 99/99/99 98/98/98 97/97/97
f 97/97/97 100/100/100 99/99/99
f 103/103/103 102/102/102 101/101/101
f 101/101/101 104/104/104 103/103/103
f 107/107/107 106/106/106 105/105/105
f 105/105/105 108/108/108 107/107/107
f 111/111/111 110/110/110 109/109/109
f 109/109/109 112/112/112 111/111/111
f 115/115/115 114/114/114 113/113/113
f 113/113/113 116/116/116 115/115/115
f 119/119/119 118/118/118 117/117/117
f 117/117/117 120/120/120 119/119/119
f 123/123/123 122/122/122 121/121/121
f 121/121/121 124/124/124 123/123/123
f 127/127/127 126/126/126 125/125/125
f 125/125/125 128/128/128 127/127/127
f 131/131/131 130/130/130 129/129/129
f 129/129/129 132/132/132 131/131/131
f 135/135/135 134/134/134 133/133/133
f 133/133/133 136/136/136 135/135/135
f 139/139/139 138/138/138 137/137/137
f 137/137/137 140/140/140 139/139/139
f 143/143/143 142/142/142 141/141/141
f 141/141/141 144/144/144 143/143/143
f 147/147/147 146/146/146 145/145/145
f 145/145/145 148/148/148 147/147/147
f 151/151/151 150/150/150 149/149/149
f 149/149/149 152/152/152 151/151/151
f 155/155/155 154/154/154 153/153/153
f 153/153/153 156/156/156 155/155/155
f 159/159/159 158/158/158 157/157/157
f 157/157/157 160/160/160 159/159/159
f 163/163/163 162/162/162 161/161/161
f 161/161/161 164/164/164 163/163/163
f 167/167/167 166/166/166 165/165/165
f 165/165/165 168/168/168 167/167/167
f 171/171/171 170/170/170 169/169/169
f 169/169/169 172/172/172 171/171/171
f 175/175/175 174/174/174 173/173/173
f 173/173/173 176/176/176 175/175/175
f 179/179/179 178/178/178 177/177/177
f 177/177/177 180/180/180 179/179/179
f 183/183/183 182/182/182 181/181/181
f 181/181/181 184/184/184 183/183/183
f 187/187/187 186/186/186 185/185/185
f 185/185/185 188/188/188 187/187/187
f 191/191/191 190/190/190 189/189/189
f 189/189/189 192/192/192 191/191/191
f 195/195/195 194/194/194 193/193/193
f 193/193/193 196/196/196 195/195/195
f 199/199/199 198/198/198 197/197/197
f 197/197/197 200/200/200 199/199/199
f 203/203/203 202/202/202 201/201/201
f 201/201/201 204/204/204 203/203/203
f 207/207/207 206/206/206 205/205/205
f 205/205/205 208/208/208 207/207/207
f 211/211/211 210/210/210 209/209/209
f 209/209/209 212/212/212 211/211/211
f 215/215/215 214/214/214 213/213/213
f 213/213/213 216/216/216 215/215/215
f 219/219/219 218/218/218 217/217/217
f 217/217/217 220/220/220 219/219/219
f 223/223/223 222/222/222 221/221/221
f 221/221/221 224/224/224 223/223/223
f 227/227/227 226/226/226 225/225/225
f 225/225/225 228/228/228 227/227/227
f 231/231/231 230/230/230 229/229/229
f 229/229/229 232/232/232 231/231/231
f 235/235/235 234/234/234 233/233/233
f 233/233/233 236/236/236 235/235/235
f 239/239/239 238/238/238 237/237/237
f 237/237/237 240/240/240 239/239/239
f 243/243/243 242/242/242 241/241/241
f 241/241/241 244/244/244 243/243/243
f 247/247/247 246/246/246 245/245/245
f 245/245/245 248/248/248 247/247/247
f 251/251/251 250/250/250 249/249/249
f 249/249/249 252/252/252 251/251/251
f 255/255/255 254/254/254 253/253/253
f 253/253/253 256/256/256 255/255/255
f 259/259/259 258/258/258 257/257/257
f 257/257/257 260/260/260 259/259/259
f 263/263/263 262/262/262 261/261/261
f 261/261/261 264/264/264 263/263/263
f 267/267/267 266/266/266 265/265/265
f 265/265/265 268/268/268 267/267/267
f 271/271/271 270/270/270 269/269/269
f 269/269/269 272/272/272 271/271/271
f 275/275/275 274/274/274 273/273/273
f 273/273/273 276/276/276 275/275/275
f 279/279/279 278/278/278 277/277/277
f 277/277/277 280/280/280 279/279/279
f 283/283/283 282/282/282 281/281/281
f 281/281/281 284/284/284 283/283/283
f 287/287/287 286/286/286 285/285/285
f 285/285/285 288/288/288 287/287/287
f 291/291/291 290/290/290 289/289/289
f 289/289/289 292/292/292 291/291/291
f 295/295/295 294/294/294 293/293/293
f 293/293/293 296/296/296 295/295/295
f 299/299/299 298/298/298 297/297/297
f 297/297/297 300/300/300 299/299/299
f 303/303/303 302/302/302 301/301/301
f 301/301/301 304/304/304 303/303/303
f 307/307/307 306/306/306 305/305/305
f 305/305/305 308/308/308 307/307/307
f 311/311/311 310/310/310 309/309/309
f 309/309/309 312/312/312 311/311/311
f 315/315/315 314/314/314 313/313/313
f 313/313/313 316/316/316 315/315/315
f 319/319/319 318/318/318 317/317/317
f 317/317/317 320/320/320 319/319/319
f 323/323/323 322/322/322 321/321/321
f 321/321/321 324/324/324 323/323/323
f 327/327/327 326/326/326 325/325/325
f 325/325/325 328/328/328 327/327/327
f 331/331/331 330/330/330 329/329/329
f 329/329/329 332/332/332 331/331/331
f 335/335/335 334/334/334 333/333/333
f 333/333/333 336/336/336 335/335/335
f 339/339/339 338/338/338 337/337/337
f 337/337/337 340/340/340 339/339/339
f 343/343/343 342/342/342 341/341/341
f 341/341/341 344/344/344 343/343/343
f 347/347/347 346/346/346 345/345/345
f 345/345/345 348/348/348 347/347/347
f 351/351/351 350/350/350 349/349/349
f 349/349/349 352/352/352 351/351/351
f 355/355/355 354/354/354 353/353/353
f 353/353/353 356/356/356 355/355/355
f 359/359/359 358/358/358 357/357/357
f 357/357/357 360/360/360 359/359/359
f 363/363/363 362/362/362 361/361/361
f 361/361/361 364/364/364 363/363/363
f 367/367/367 366/366/366 365/365/365
f 365/365/365 368/368/368 367/367/367
f 371/371/371 370/370/370 369/369/369
f 369/369/369 372/372/372 371/371/371
f 375/375/375 374/374/374 373/373/373
f 373/373/373 376/376/376 375/375/375
f 379/379/379 378/378/378 377/377/377
f 377/377/377 380/380/380 379/379/379
f 383/383/383 382/382/382 381/381/381
f 381/381/381 384/384/384 383/383/383
f 387/387/387 386/386/386 385/385/385
f 385/385/385 388/388/388 387/387/387
f 391/391/391 390/390/390 389/389/389
f 389/389/389 392/392/392 391/391/391
f 395/395/395 394/394/394 393/393/393
f 393/393/393 396/396/396 395/395/395
f 399/399/399 398/398/398 397/397/397
f 397/397/397 400/400/400 399/399/399
f 403/403/403 402/402/402 401/401/401
f 401/401/401 404/404/404 403/403/403
f 407/407/407 406/406/406 405/405/405
f 405/405/405 408/408/408 407/407/407
f 411/411/411 410/410/410 409/409/409
f 409/409/409 412/412/412 411/411/411
f 415/415/415 414/414/414 413/413/413
f 413/413/413 416/416/416 415/415/415
f 419/419/419 418/418/418 417/417/417
f 417/417/417 420/420/420 419/419/419
f 423/423/423 422/422/422 421/421/421
f 421/421/421 424/424/424 423/423/423
f 427/427/427 426/426/426 425/425/425
f 425/425/425 428/428/428 427/427/427
f 431/431/431 430/430/430 429/429/429
f 429/429/429 432/432/432 431/431/431
f 435/435/435 434/434/434 433/433/433
f 433/433/433 436/436/436 435/435/435
f 439/439/439 438/438/438 437/437/437
f 437/437/437 440/440/440 439/439/439
f 443/443/443 442/442/442 441/441/441
f 441/441/441 444/444/444 443/443/443
f 447/447/447 446/446/446 445/445/445
f 445/445/445 448/448/448 447/447/447
f 451/451/451 450/450/450 449/449/449
f 449/449/449 452/452/452 451/451/451
f 455/455/455 454/454/454 453/453/453
f 453/453/453 456/456/456 455/455/455
f 459/459/459 458/458/458 457/457/457
f 457/457/457 460/460/460 459/459/459
f 463/463/463 462/462/462 461/461/461
f 461/461/461 464/464/464 463/463/463
f 467/467/467 466/466/466 465/465/465
f 465/465/465 468/468/468 467/467/467
f 471/471/471 470/470/470 469/469/469
f 469/469/469 472/472/472 471/471/471
f 475/475/475 474/474/474 473/473/473
f 473/473/473 476/476/476 475/475/475
f 479/479/479 478/478/478 477/477/477
f 477/477/477 480/480/480 479/479/479
f 483/483/483 482/482/482 481/481/481
f 481/481/481 484/484/484 483/483/483
f 487/487/487 486/486/486 485/485/485
f 485/485/485 488/488/488 487/487/487
f 491/491/491 490/490/490 489/489/489
f 489/489/489 492/492/492 491/491/491
f 495/495/495 494/494/494 493/493/493
f 493/493/493 496/496/496 495/495/495
f 499/499/499 498/498/498 497/497/497
f 497/497/497 500/500/500 499/499/499
