g mosike_2_bj-mesh
v -1184 1145 0
v -1184 1369 0
v -1472 1369 0
v -1472 1145 0
v -1376 121 0
v -1376 313 0
v -1696 313 0
v -1696 121 0
v -1696 121 0
v -1696 313 0
v -2016 313 0
v -2016 121 0
v -1472 1145 0
v -1472 1369 0
v -1728 1369 0
v -1728 1145 0
v -1696 313 0
v -1696 537 0
v -1920 537 0
v -1920 313 0
v -1440 633 0
v -1440 793 0
v -1664 793 0
v -1664 633 0
v -1472 1017 0
v -1472 1145 0
v -1664 1145 0
v -1664 1017 0
v -1664 1017 0
v -1664 1145 0
v -1856 1145 0
v -1856 1017 0
v -1216 25 0
v -1216 121 0
v -1440 121 0
v -1440 25 0
v -960 1017 0
v -960 1241 0
v -1056 1241 0
v -1056 1017 0
v -864 985 0
v -864 1177 0
v -960 1177 0
v -960 985 0
v -1728 857 0
v -1728 921 0
v -1984 921 0
v -1984 857 0
v -1472 857 0
v -1472 921 0
v -1728 921 0
v -1728 857 0
v -1504 25 0
v -1504 121 0
v -1664 121 0
v -1664 25 0
v -800 825 0
v -800 921 0
v -928 921 0
v -928 825 0
v -1664 665 0
v -1664 793 0
v -1760 793 0
v -1760 665 0
v -1664 25 0
v -1664 121 0
v -1792 121 0
v -1792 25 0
v -448 729 0
v -448 825 0
v -544 825 0
v -544 729 0
v -1632 313 0
v -1632 441 0
v -1696 441 0
v -1696 313 0
v -1472 569 0
v -1472 633 0
v -1568 633 0
v -1568 569 0
v -1184 1081 0
v -1184 1145 0
v -1280 1145 0
v -1280 1081 0
v -1312 121 0
v -1312 217 0
v -1376 217 0
v -1376 121 0
v -768 953 0
v -768 1049 0
v -832 1049 0
v -832 953 0
v -1408 1017 0
v -1408 1113 0
v -1472 1113 0
v -1472 1017 0
v -1408 313 0
v -1408 377 0
v -1504 377 0
v -1504 313 0
v -1664 921 0
v -1664 985 0
v -1760 985 0
v -1760 921 0
v -1568 921 0
v -1568 985 0
v -1664 985 0
v -1664 921 0
v -1856 1017 0
v -1856 1081 0
v -1920 1081 0
v -1920 1017 0
v -416 825 0
v -416 889 0
v -480 889 0
v -480 825 0
v -672 953 0
v -672 1017 0
v -736 1017 0
v -736 953 0
v -1152 1209 0
v -1152 1337 0
v -1184 1337 0
v -1184 1209 0
v -1760 1241 0
v -1760 1305 0
v -1824 1305 0
v -1824 1241 0
v -1088 1113 0
v -1088 1177 0
v -1152 1177 0
v -1152 1113 0
v -1504 313 0
v -1504 377 0
v -1568 377 0
v -1568 313 0
v -1888 825 0
v -1888 857 0
v -2016 857 0
v -2016 825 0
v -1152 1081 0
v -1152 1209 0
v -1184 1209 0
v -1184 1081 0
v -1760 825 0
v -1760 857 0
v -1888 857 0
v -1888 825 0
v -448 921 0
v -448 953 0
v -576 953 0
v -576 921 0
v -576 921 0
v -576 953 0
v -704 953 0
v -704 921 0
v -1376 665 0
v -1376 729 0
v -1440 729 0
v -1440 665 0
v -1920 313 0
v -1920 377 0
v -1984 377 0
v -1984 313 0
v -1728 793 0
v -1728 825 0
v -1856 825 0
v -1856 793 0
v -576 857 0
v -576 889 0
v -704 889 0
v -704 857 0
v -1440 57 0
v -1440 121 0
v -1504 121 0
v -1504 57 0
v -1888 89 0
v -1888 121 0
v -1984 121 0
v -1984 89 0
v -1760 761 0
v -1760 793 0
v -1856 793 0
v -1856 761 0
v -1664 985 0
v -1664 1017 0
v -1760 1017 0
v -1760 985 0
v -1056 1209 0
v -1056 1305 0
v -1088 1305 0
v -1088 1209 0
v -1056 1113 0
v -1056 1209 0
v -1088 1209 0
v -1088 1113 0
v -384 889 0
v -384 921 0
v -480 921 0
v -480 889 0
v -1728 1145 0
v -1728 1241 0
v -1760 1241 0
v -1760 1145 0
v -704 857 0
v -704 889 0
v -800 889 0
v -800 857 0
v -1856 793 0
v -1856 825 0
v -1952 825 0
v -1952 793 0
v -1728 1241 0
v -1728 1337 0
v -1760 1337 0
v -1760 1241 0
v -480 889 0
v -480 921 0
v -576 921 0
v -576 889 0
v -1792 89 0
v -1792 121 0
v -1888 121 0
v -1888 89 0
v -608 793 0
v -608 825 0
v -704 825 0
v -704 793 0
v -704 793 0
v -704 825 0
v -800 825 0
v -800 793 0
v -1760 1145 0
v -1760 1209 0
v -1792 1209 0
v -1792 1145 0
v -896 1177 0
v -896 1209 0
v -960 1209 0
v -960 1177 0
v -512 697 0
v -512 729 0
v -576 729 0
v -576 697 0
v -1056 1017 0
v -1056 1081 0
v -1088 1081 0
v -1088 1017 0
v -1248 1369 0
v -1248 1401 0
v -1312 1401 0
v -1312 1369 0
v -1568 601 0
v -1568 633 0
v -1632 633 0
v -1632 601 0
v -1568 1369 0
v -1568 1401 0
v -1632 1401 0
v -1632 1369 0
v -1088 1273 0
v -1088 1337 0
v -1120 1337 0
v -1120 1273 0
v -992 1305 0
v -992 1337 0
v -1056 1337 0
v -1056 1305 0
v -928 857 0
v -928 921 0
v -960 921 0
v -960 857 0
v -1504 921 0
v -1504 953 0
v -1568 953 0
v -1568 921 0
v -1344 217 0
v -1344 281 0
v -1376 281 0
v -1376 217 0
v -736 825 0
v -736 857 0
v -800 857 0
v -800 825 0
v -1920 441 0
v -1920 505 0
v -1952 505 0
v -1952 441 0
v -832 985 0
v -832 1049 0
v -864 1049 0
v -864 985 0
v -1376 1017 0
v -1376 1081 0
v -1408 1081 0
v -1408 1017 0
v -1344 985 0
v -1344 1049 0
v -1376 1049 0
v -1376 985 0
v -1792 57 0
v -1792 89 0
v -1856 89 0
v -1856 57 0
v -608 953 0
v -608 985 0
v -672 985 0
v -672 953 0
v -640 665 0
v -640 697 0
v -704 697 0
v -704 665 0
v -576 665 0
v -576 697 0
v -640 697 0
v -640 665 0
v -640 633 0
v -640 665 0
v -704 665 0
v -704 633 0
v -1408 1369 0
v -1408 1401 0
v -1472 1401 0
v -1472 1369 0
v -704 633 0
v -704 665 0
v -768 665 0
v -768 633 0
v -1024 1337 0
v -1024 1369 0
v -1088 1369 0
v -1088 1337 0
v -1760 985 0
v -1760 1017 0
v -1824 1017 0
v -1824 985 0
v -1088 1337 0
v -1088 1369 0
v -1152 1369 0
v -1152 1337 0
v -608 825 0
v -608 857 0
v -672 857 0
v -672 825 0
v -544 825 0
v -544 857 0
v -608 857 0
v -608 825 0
v -1472 985 0
v -1472 1017 0
v -1536 1017 0
v -1536 985 0
v -1856 761 0
v -1856 793 0
v -1920 793 0
v -1920 761 0
v -1760 729 0
v -1760 761 0
v -1824 761 0
v -1824 729 0
v -1120 1241 0
v -1120 1305 0
v -1152 1305 0
v -1152 1241 0
v -1568 825 0
v -1568 857 0
v -1632 857 0
v -1632 825 0
v -1408 729 0
v -1408 761 0
v -1440 761 0
v -1440 729 0
v -960 889 0
v -960 921 0
v -992 921 0
v -992 889 0
v -544 729 0
v -544 761 0
v -576 761 0
v -576 729 0
v -1440 857 0
v -1440 889 0
v -1472 889 0
v -1472 857 0
v -1984 857 0
v -1984 889 0
v -2016 889 0
v -2016 857 0
v -480 825 0
v -480 857 0
v -512 857 0
v -512 825 0
v -1920 377 0
v -1920 409 0
v -1952 409 0
v -1952 377 0
v -1664 441 0
v -1664 473 0
v -1696 473 0
v -1696 441 0
v -1760 697 0
v -1760 729 0
v -1792 729 0
v -1792 697 0
v -1376 313 0
v -1376 345 0
v -1408 345 0
v -1408 313 0
v -1344 697 0
v -1344 729 0
v -1376 729 0
v -1376 697 0
v -2016 153 0
v -2016 185 0
v -2047 185 0
v -2047 153 0
v -1568 313 0
v -1568 345 0
v -1600 345 0
v -1600 313 0
v -768 889 0
v -768 921 0
v -800 921 0
v -800 889 0
v -1536 985 0
v -1536 1017 0
v -1568 1017 0
v -1568 985 0
v -1120 1209 0
v -1120 1241 0
v -1152 1241 0
v -1152 1209 0
v -1472 1369 0
v -1472 1401 0
v -1504 1401 0
v -1504 1369 0
v -576 697 0
v -576 729 0
v -608 729 0
v -608 697 0
v -1632 825 0
v -1632 857 0
v -1664 857 0
v -1664 825 0
v -1632 601 0
v -1632 633 0
v -1664 633 0
v -1664 601 0
v -1824 729 0
v -1824 761 0
v -1856 761 0
v -1856 729 0
v -736 985 0
v -736 1017 0
v -768 1017 0
v -768 985 0
v -1312 985 0
v -1312 1017 0
v -1344 1017 0
v -1344 985 0
v -1760 953 0
v -1760 985 0
v -1792 985 0
v -1792 953 0
v -1344 1369 0
v -1344 1401 0
v -1376 1401 0
v -1376 1369 0
v -1760 1305 0
v -1760 1337 0
v -1792 1337 0
v -1792 1305 0
v -1920 1049 0
v -1920 1081 0
v -1952 1081 0
v -1952 1049 0
vt 0.0009765625 0.00104820728
vt 0.0009765625 0.235849082
vt 0.282226562 0.235849082
vt 0.282226562 0.00104820728
vt 0.284179688 0.00104820728
vt 0.284179688 0.202306092
vt 0.596679688 0.202306092
vt 0.596679688 0.00104820728
vt 0.598632812 0.00104820728
vt 0.598632812 0.202306092
vt 0.911132812 0.202306092
vt 0.911132812 0.00104820728
vt 0.284179688 0.204402506
vt 0.284179688 0.439203382
vt 0.534179688 0.439203382
vt 0.534179688 0.204402506
vt 0.536132812 0.204402506
vt 0.536132812 0.439203382
vt 0.754882812 0.439203382
vt 0.754882812 0.204402506
vt 0.756835938 0.204402506
vt 0.756835938 0.3721174
vt 0.975585938 0.3721174
vt 0.975585938 0.204402506
vt 0.0009765625 0.237945497
vt 0.0009765625 0.3721174
vt 0.188476562 0.3721174
vt 0.188476562 0.237945497
vt 0.0009765625 0.374213815
vt 0.0009765625 0.508385777
vt 0.188476562 0.508385777
vt 0.188476562 0.374213815
vt 0.756835938 0.374213815
vt 0.756835938 0.474842787
vt 0.975585938 0.474842787
vt 0.975585938 0.374213815
vt 0.284179688 0.441299796
vt 0.284179688 0.676100612
vt 0.377929688 0.676100612
vt 0.377929688 0.441299796
vt 0.379882812 0.441299796
vt 0.379882812 0.642557621
vt 0.473632812 0.642557621
vt 0.473632812 0.441299796
vt 0.475585938 0.441299796
vt 0.475585938 0.508385777
vt 0.725585938 0.508385777
vt 0.725585938 0.441299796
vt 0.0009765625 0.510482192
vt 0.0009765625 0.577568173
vt 0.250976562 0.577568173
vt 0.250976562 0.510482192
vt 0.756835938 0.476939201
vt 0.756835938 0.577568173
vt 0.913085938 0.577568173
vt 0.913085938 0.476939201
vt 0.475585938 0.510482192
vt 0.475585938 0.611111104
vt 0.600585938 0.611111104
vt 0.600585938 0.510482192
vt 0.602539062 0.510482192
vt 0.602539062 0.644654095
vt 0.696289062 0.644654095
vt 0.696289062 0.510482192
vt 0.0009765625 0.579664588
vt 0.0009765625 0.6802935
vt 0.125976562 0.6802935
vt 0.125976562 0.579664588
vt 0.127929688 0.579664588
vt 0.127929688 0.6802935
vt 0.221679688 0.6802935
vt 0.221679688 0.579664588
vt 0.915039062 0.476939201
vt 0.915039062 0.611111104
vt 0.977539062 0.611111104
vt 0.977539062 0.476939201
vt 0.756835938 0.579664588
vt 0.756835938 0.64675051
vt 0.850585938 0.64675051
vt 0.850585938 0.579664588
vt 0.475585938 0.613207579
vt 0.475585938 0.6802935
vt 0.569335938 0.6802935
vt 0.569335938 0.613207579
vt 0.915039062 0.613207579
vt 0.915039062 0.713836491
vt 0.977539062 0.713836491
vt 0.977539062 0.613207579
vt 0.379882812 0.644654095
vt 0.379882812 0.745283008
vt 0.442382812 0.745283008
vt 0.442382812 0.644654095
vt 0.602539062 0.64675051
vt 0.602539062 0.747379422
vt 0.665039062 0.747379422
vt 0.665039062 0.64675051
vt 0.756835938 0.648846984
vt 0.756835938 0.715932906
vt 0.850585938 0.715932906
vt 0.850585938 0.648846984
vt 0.284179688 0.678197026
vt 0.284179688 0.745283008
vt 0.377929688 0.745283008
vt 0.377929688 0.678197026
vt 0.0009765625 0.682389975
vt 0.0009765625 0.749475896
vt 0.0947265625 0.749475896
vt 0.0947265625 0.682389975
vt 0.666992188 0.64675051
vt 0.666992188 0.713836491
vt 0.729492188 0.713836491
vt 0.729492188 0.64675051
vt 0.0966796875 0.682389975
vt 0.0966796875 0.749475896
vt 0.159179688 0.749475896
vt 0.159179688 0.682389975
vt 0.161132812 0.682389975
vt 0.161132812 0.749475896
vt 0.223632812 0.749475896
vt 0.223632812 0.682389975
vt 0.225585938 0.579664588
vt 0.225585938 0.713836491
vt 0.256835938 0.713836491
vt 0.256835938 0.579664588
vt 0.475585938 0.682389975
vt 0.475585938 0.749475896
vt 0.538085938 0.749475896
vt 0.538085938 0.682389975
vt 0.666992188 0.715932906
vt 0.666992188 0.783018887
vt 0.729492188 0.783018887
vt 0.729492188 0.715932906
vt 0.915039062 0.715932906
vt 0.915039062 0.783018887
vt 0.977539062 0.783018887
vt 0.977539062 0.715932906
vt 0.756835938 0.71802938
vt 0.756835938 0.751572311
vt 0.881835938 0.751572311
vt 0.881835938 0.71802938
vt 0.540039062 0.682389975
vt 0.540039062 0.816561818
vt 0.571289062 0.816561818
vt 0.571289062 0.682389975
vt 0.284179688 0.747379422
vt 0.284179688 0.780922413
vt 0.409179688 0.780922413
vt 0.409179688 0.747379422
vt 0.0009765625 0.751572311
vt 0.0009765625 0.785115302
vt 0.125976562 0.785115302
vt 0.125976562 0.751572311
vt 0.127929688 0.751572311
vt 0.127929688 0.785115302
vt 0.252929688 0.785115302
vt 0.252929688 0.751572311
vt 0.411132812 0.747379422
vt 0.411132812 0.814465404
vt 0.473632812 0.814465404
vt 0.473632812 0.747379422
vt 0.602539062 0.749475896
vt 0.602539062 0.816561818
vt 0.665039062 0.816561818
vt 0.665039062 0.749475896
vt 0.756835938 0.753668785
vt 0.756835938 0.787211776
vt 0.881835938 0.787211776
vt 0.881835938 0.753668785
vt 0.284179688 0.783018887
vt 0.284179688 0.816561818
vt 0.409179688 0.816561818
vt 0.409179688 0.783018887
vt 0.475585938 0.751572311
vt 0.475585938 0.818658292
vt 0.538085938 0.818658292
vt 0.538085938 0.751572311
vt 0.0009765625 0.787211776
vt 0.0009765625 0.820754707
vt 0.0947265625 0.820754707
vt 0.0947265625 0.787211776
vt 0.0966796875 0.787211776
vt 0.0966796875 0.820754707
vt 0.190429688 0.820754707
vt 0.190429688 0.787211776
vt 0.756835938 0.78930819
vt 0.756835938 0.822851181
vt 0.850585938 0.822851181
vt 0.850585938 0.78930819
vt 0.666992188 0.785115302
vt 0.666992188 0.885744214
vt 0.698242188 0.885744214
vt 0.698242188 0.785115302
vt 0.700195312 0.785115302
vt 0.700195312 0.885744214
vt 0.731445312 0.885744214
vt 0.731445312 0.785115302
vt 0.852539062 0.78930819
vt 0.852539062 0.822851181
vt 0.946289062 0.822851181
vt 0.946289062 0.78930819
vt 0.948242188 0.785115302
vt 0.948242188 0.885744214
vt 0.979492188 0.885744214
vt 0.979492188 0.785115302
vt 0.284179688 0.818658292
vt 0.284179688 0.852201223
vt 0.377929688 0.852201223
vt 0.377929688 0.818658292
vt 0.379882812 0.818658292
vt 0.379882812 0.852201223
vt 0.473632812 0.852201223
vt 0.473632812 0.818658292
vt 0.192382812 0.787211776
vt 0.192382812 0.887840688
vt 0.223632812 0.887840688
vt 0.223632812 0.787211776
vt 0.540039062 0.818658292
vt 0.540039062 0.852201223
vt 0.633789062 0.852201223
vt 0.633789062 0.818658292
vt 0.0009765625 0.822851181
vt 0.0009765625 0.856394112
vt 0.0947265625 0.856394112
vt 0.0947265625 0.822851181
vt 0.0966796875 0.822851181
vt 0.0966796875 0.856394112
vt 0.190429688 0.856394112
vt 0.190429688 0.822851181
vt 0.756835938 0.824947596
vt 0.756835938 0.858490586
vt 0.850585938 0.858490586
vt 0.850585938 0.824947596
vt 0.225585938 0.787211776
vt 0.225585938 0.854297698
vt 0.256835938 0.854297698
vt 0.256835938 0.787211776
vt 0.475585938 0.820754707
vt 0.475585938 0.854297698
vt 0.538085938 0.854297698
vt 0.538085938 0.820754707
vt 0.852539062 0.824947596
vt 0.852539062 0.858490586
vt 0.915039062 0.858490586
vt 0.915039062 0.824947596
vt 0.284179688 0.854297698
vt 0.284179688 0.921383619
vt 0.315429688 0.921383619
vt 0.315429688 0.854297698
vt 0.317382812 0.854297698
vt 0.317382812 0.887840688
vt 0.379882812 0.887840688
vt 0.379882812 0.854297698
vt 0.381835938 0.854297698
vt 0.381835938 0.887840688
vt 0.444335938 0.887840688
vt 0.444335938 0.854297698
vt 0.540039062 0.854297698
vt 0.540039062 0.887840688
vt 0.602539062 0.887840688
vt 0.602539062 0.854297698
vt 0.604492188 0.854297698
vt 0.604492188 0.921383619
vt 0.635742188 0.921383619
vt 0.635742188 0.854297698
vt 0.475585938 0.856394112
vt 0.475585938 0.889937103
vt 0.538085938 0.889937103
vt 0.538085938 0.856394112
vt 0.225585938 0.856394112
vt 0.225585938 0.923480093
vt 0.256835938 0.923480093
vt 0.256835938 0.856394112
vt 0.0009765625 0.858490586
vt 0.0009765625 0.892033517
vt 0.0634765625 0.892033517
vt 0.0634765625 0.858490586
vt 0.0654296875 0.858490586
vt 0.0654296875 0.925576508
vt 0.0966796875 0.925576508
vt 0.0966796875 0.858490586
vt 0.0986328125 0.858490586
vt 0.0986328125 0.892033517
vt 0.161132812 0.892033517
vt 0.161132812 0.858490586
vt 0.756835938 0.860587001
vt 0.756835938 0.927672982
vt 0.788085938 0.927672982
vt 0.788085938 0.860587001
vt 0.790039062 0.860587001
vt 0.790039062 0.927672982
vt 0.821289062 0.927672982
vt 0.821289062 0.860587001
vt 0.823242188 0.860587001
vt 0.823242188 0.927672982
vt 0.854492188 0.927672982
vt 0.854492188 0.860587001
vt 0.856445312 0.860587001
vt 0.856445312 0.927672982
vt 0.887695312 0.927672982
vt 0.887695312 0.860587001
vt 0.666992188 0.887840688
vt 0.666992188 0.921383619
vt 0.729492188 0.921383619
vt 0.729492188 0.887840688
vt 0.317382812 0.889937103
vt 0.317382812 0.923480093
vt 0.379882812 0.923480093
vt 0.379882812 0.889937103
vt 0.381835938 0.889937103
vt 0.381835938 0.923480093
vt 0.444335938 0.923480093
vt 0.444335938 0.889937103
vt 0.540039062 0.889937103
vt 0.540039062 0.923480093
vt 0.602539062 0.923480093
vt 0.602539062 0.889937103
vt 0.475585938 0.892033517
vt 0.475585938 0.925576508
vt 0.538085938 0.925576508
vt 0.538085938 0.892033517
vt 0.0009765625 0.894129992
vt 0.0009765625 0.927672982
vt 0.0634765625 0.927672982
vt 0.0634765625 0.894129992
vt 0.0986328125 0.894129992
vt 0.0986328125 0.927672982
vt 0.161132812 0.927672982
vt 0.161132812 0.894129992
vt 0.604492188 0.923480093
vt 0.604492188 0.957023084
vt 0.666992188 0.957023084
vt 0.666992188 0.923480093
vt 0.668945312 0.923480093
vt 0.668945312 0.957023084
vt 0.731445312 0.957023084
vt 0.731445312 0.923480093
vt 0.225585938 0.925576508
vt 0.225585938 0.959119499
vt 0.288085938 0.959119499
vt 0.288085938 0.925576508
vt 0.317382812 0.925576508
vt 0.317382812 0.959119499
vt 0.379882812 0.959119499
vt 0.379882812 0.925576508
vt 0.381835938 0.925576508
vt 0.381835938 0.959119499
vt 0.444335938 0.959119499
vt 0.444335938 0.925576508
vt 0.540039062 0.925576508
vt 0.540039062 0.959119499
vt 0.602539062 0.959119499
vt 0.602539062 0.925576508
vt 0.475585938 0.927672982
vt 0.475585938 0.961215913
vt 0.538085938 0.961215913
vt 0.538085938 0.927672982
vt 0.0009765625 0.929769397
vt 0.0009765625 0.963312387
vt 0.0634765625 0.963312387
vt 0.0634765625 0.929769397
vt 0.889648438 0.860587001
vt 0.889648438 0.927672982
vt 0.920898438 0.927672982
vt 0.920898438 0.860587001
vt 0.0986328125 0.929769397
vt 0.0986328125 0.963312387
vt 0.161132812 0.963312387
vt 0.161132812 0.929769397
vt 0.948242188 0.887840688
vt 0.948242188 0.921383619
vt 0.979492188 0.921383619
vt 0.979492188 0.887840688
vt 0.192382812 0.889937103
vt 0.192382812 0.923480093
vt 0.223632812 0.923480093
vt 0.223632812 0.889937103
vt 0.948242188 0.923480093
vt 0.948242188 0.957023084
vt 0.979492188 0.957023084
vt 0.979492188 0.923480093
vt 0.192382812 0.925576508
vt 0.192382812 0.959119499
vt 0.223632812 0.959119499
vt 0.223632812 0.925576508
vt 0.0654296875 0.927672982
vt 0.0654296875 0.961215913
vt 0.0966796875 0.961215913
vt 0.0966796875 0.927672982
vt 0.756835938 0.929769397
vt 0.756835938 0.963312387
vt 0.788085938 0.963312387
vt 0.788085938 0.929769397
vt 0.790039062 0.929769397
vt 0.790039062 0.963312387
vt 0.821289062 0.963312387
vt 0.821289062 0.929769397
vt 0.823242188 0.929769397
vt 0.823242188 0.963312387
vt 0.854492188 0.963312387
vt 0.854492188 0.929769397
vt 0.856445312 0.929769397
vt 0.856445312 0.963312387
vt 0.887695312 0.963312387
vt 0.887695312 0.929769397
vt 0.889648438 0.929769397
vt 0.889648438 0.963312387
vt 0.920898438 0.963312387
vt 0.920898438 0.929769397
vt 0.604492188 0.959119499
vt 0.604492188 0.992662489
vt 0.635742188 0.992662489
vt 0.635742188 0.959119499
vt 0.637695312 0.959119499
vt 0.637695312 0.992662489
vt 0.668945312 0.992662489
vt 0.668945312 0.959119499
vt 0.670898438 0.959119499
vt 0.670898438 0.992662489
vt 0.702148438 0.992662489
vt 0.702148438 0.959119499
vt 0.704101562 0.959119499
vt 0.704101562 0.992662489
vt 0.735351562 0.992662489
vt 0.735351562 0.959119499
vt 0.948242188 0.959119499
vt 0.948242188 0.992662489
vt 0.979492188 0.992662489
vt 0.979492188 0.959119499
vt 0.192382812 0.961215913
vt 0.192382812 0.994758904
vt 0.223632812 0.994758904
vt 0.223632812 0.961215913
vt 0.225585938 0.961215913
vt 0.225585938 0.994758904
vt 0.256835938 0.994758904
vt 0.256835938 0.961215913
vt 0.258789062 0.961215913
vt 0.258789062 0.994758904
vt 0.290039062 0.994758904
vt 0.290039062 0.961215913
vt 0.317382812 0.961215913
vt 0.317382812 0.994758904
vt 0.348632812 0.994758904
vt 0.348632812 0.961215913
vt 0.350585938 0.961215913
vt 0.350585938 0.994758904
vt 0.381835938 0.994758904
vt 0.381835938 0.961215913
vt 0.383789062 0.961215913
vt 0.383789062 0.994758904
vt 0.415039062 0.994758904
vt 0.415039062 0.961215913
vt 0.416992188 0.961215913
vt 0.416992188 0.994758904
vt 0.448242188 0.994758904
vt 0.448242188 0.961215913
vt 0.540039062 0.961215913
vt 0.540039062 0.994758904
vt 0.571289062 0.994758904
vt 0.571289062 0.961215913
vt 0.0654296875 0.963312387
vt 0.0654296875 0.996855319
vt 0.0966796875 0.996855319
vt 0.0966796875 0.963312387
vt 0.475585938 0.963312387
vt 0.475585938 0.996855319
vt 0.506835938 0.996855319
vt 0.506835938 0.963312387
vt 0.0009765625 0.965408802
vt 0.0009765625 0.998951793
vt 0.0322265625 0.998951793
vt 0.0322265625 0.965408802
vt 0.0986328125 0.965408802
vt 0.0986328125 0.998951793
vt 0.129882812 0.998951793
vt 0.129882812 0.965408802
g mosike_2_bj-mesh_0
f 3/3/3 2/2/2 1/1/1
f 1/1/1 4/4/4 3/3/3
f 7/7/7 6/6/6 5/5/5
f 5/5/5 8/8/8 7/7/7
f 11/11/11 10/10/10 9/9/9
f 9/9/9 12/12/12 11/11/11
f 15/15/15 14/14/14 13/13/13
f 13/13/13 16/16/16 15/15/15
f 19/19/19 18/18/18 17/17/17
f 17/17/17 20/20/20 19/19/19
f 23/23/23 22/22/22 21/21/21
f 21/21/21 24/24/24 23/23/23
f 27/27/27 26/26/26 25/25/25
f 25/25/25 28/28/28 27/27/27
f 31/31/31 30/30/30 29/29/29
f 29/29/29 32/32/32 31/31/31
f 35/35/35 34/34/34 33/33/33
f 33/33/33 36/36/36 35/35/35
f 39/39/39 38/38/38 37/37/37
f 37/37/37 40/40/40 39/39/39
f 43/43/43 42/42/42 41/41/41
f 41/41/41 44/44/44 43/43/43
f 47/47/47 46/46/46 45/45/45
f 45/45/45 48/48/48 47/47/47
f 51/51/51 50/50/50 49/49/49
f 49/49/49 52/52/52 51/51/51
f 55/55/55 54/54/54 53/53/53
f 53/53/53 56/56/56 55/55/55
f 59/59/59 58/58/58 57/57/57
f 57/57/57 60/60/60 59/59/59
f 63/63/63 62/62/62 61/61/61
f 61/61/61 64/64/64 63/63/63
f 67/67/67 66/66/66 65/65/65
f 65/65/65 68/68/68 67/67/67
f 71/71/71 70/70/70 69/69/69
f 69/69/69 72/72/72 71/71/71
f 75/75/75 74/74/74 73/73/73
f 73/73/73 76/76/76 75/75/75
f 79/79/79 78/78/78 77/77/77
f 77/77/77 80/80/80 79/79/79
f 83/83/83 82/82/82 81/81/81
f 81/81/81 84/84/84 83/83/83
f 87/87/87 86/86/86 85/85/85
f 85/85/85 88/88/88 87/87/87
f 91/91/91 90/90/90 89/89/89
f 89/89/89 92/92/92 91/91/91
f 95/95/95 94/94/94 93/93/93
f 93/93/93 96/96/96 95/95/95
f 99/99/99 98/98/98 97/97/97
f 97/97/97 100/100/100 99/99/99
f 103/103/103 102/102/102 101/101/101
f 101/101/101 104/104/104 103/103/103
f 107/107/107 106/106/106 105/105/105
f 105/105/105 108/108/108 107/107/107
f 111/111/111 110/110/110 109/109/109
f 109/109/109 112/112/112 111/111/111
f 115/115/115 114/114/114 113/113/113
f 113/113/113 116/116/116 115/115/115
f 119/119/119 118/118/118 117/117/117
f 117/117/117 120/120/120 119/119/119
f 123/123/123 122/122/122 121/121/121
f 121/121/121 124/124/124 123/123/123
f 127/127/127 126/126/126 125/125/125
f 125/125/125 128/128/128 127/127/127
f 131/131/131 130/130/130 129/129/129
f 129/129/129 132/132/132 131/131/131
f 135/135/135 134/134/134 133/133/133
f 133/133/133 136/136/136 135/135/135
f 139/139/139 138/138/138 137/137/137
f 137/137/137 140/140/140 139/139/139
f 143/143/143 142/142/142 141/141/141
f 141/141/141 144/144/144 143/143/143
f 147/147/147 146/146/146 145/145/145
f 145/145/145 148/148/148 147/147/147
f 151/151/151 150/150/150 149/149/149
f 149/149/149 152/152/152 151/151/151
f 155/155/155 154/154/154 153/153/153
f 153/153/153 156/156/156 155/155/155
f 159/159/159 158/158/158 157/157/157
f 157/157/157 160/160/160 159/159/159
f 163/163/163 162/162/162 161/161/161
f 161/161/161 164/164/164 163/163/163
f 167/167/167 166/166/166 165/165/165
f 165/165/165 168/168/168 167/167/167
f 171/171/171 170/170/170 169/169/169
f 169/169/169 172/172/172 171/171/171
f 175/175/175 174/174/174 173/173/173
f 173/173/173 176/176/176 175/175/175
f 179/179/179 178/178/178 177/177/177
f 177/177/177 180/180/180 179/179/179
f 183/183/183 182/182/182 181/181/181
f 181/181/181 184/184/184 183/183/183
f 187/187/187 186/186/186 185/185/185
f 185/185/185 188/188/188 187/187/187
f 191/191/191 190/190/190 189/189/189
f 189/189/189 192/192/192 191/191/191
f 195/195/195 194/194/194 193/193/193
f 193/193/193 196/196/196 195/195/195
f 199/199/199 198/198/198 197/197/197
f 197/197/197 200/200/200 199/199/199
f 203/203/203 202/202/202 201/201/201
f 201/201/201 204/204/204 203/203/203
f 207/207/207 206/206/206 205/205/205
f 205/205/205 208/208/208 207/207/207
f 211/211/211 210/210/210 209/209/209
f 209/209/209 212/212/212 211/211/211
f 215/215/215 214/214/214 213/213/213
f 213/213/213 216/216/216 215/215/215
f 219/219/219 218/218/218 217/217/217
f 217/217/217 220/220/220 219/219/219
f 223/223/223 222/222/222 221/221/221
f 221/221/221 224/224/224 223/223/223
f 227/227/227 226/226/226 225/225/225
f 225/225/225 228/228/228 227/227/227
f 231/231/231 230/230/230 229/229/229
f 229/229/229 232/232/232 231/231/231
f 235/235/235 234/234/234 233/233/233
f 233/233/233 236/236/236 235/235/235
f 239/239/239 238/238/238 237/237/237
f 237/237/237 240/240/240 239/239/239
f 243/243/243 242/242/242 241/241/241
f 241/241/241 244/244/244 243/243/243
f 247/247/247 246/246/246 245/245/245
f 245/245/245 248/248/248 247/247/247
f 251/251/251 250/250/250 249/249/249
f 249/249/249 252/252/252 251/251/251
f 255/255/255 254/254/254 253/253/253
f 253/253/253 256/256/256 255/255/255
f 259/259/259 258/258/258 257/257/257
f 257/257/257 260/260/260 259/259/259
f 263/263/263 262/262/262 261/261/261
f 261/261/261 264/264/264 263/263/263
f 267/267/267 266/266/266 265/265/265
f 265/265/265 268/268/268 267/267/267
f 271/271/271 270/270/270 269/269/269
f 269/269/269 272/272/272 271/271/271
f 275/275/275 274/274/274 273/273/273
f 273/273/273 276/276/276 275/275/275
f 279/279/279 278/278/278 277/277/277
f 277/277/277 280/280/280 279/279/279
f 283/283/283 282/282/282 281/281/281
f 281/281/281 284/284/284 283/283/283
f 287/287/287 286/286/286 285/285/285
f 285/285/285 288/288/288 287/287/287
f 291/291/291 290/290/290 289/289/289
f 289/289/289 292/292/292 291/291/291
f 295/295/295 294/294/294 293/293/293
f 293/293/293 296/296/296 295/295/295
f 299/299/299 298/298/298 297/297/297
f 297/297/297 300/300/300 299/299/299
f 303/303/303 302/302/302 301/301/301
f 301/301/301 304/304/304 303/303/303
f 307/307/307 306/306/306 305/305/305
f 305/305/305 308/308/308 307/307/307
f 311/311/311 310/310/310 309/309/309
f 309/309/309 312/312/312 311/311/311
f 315/315/315 314/314/314 313/313/313
f 313/313/313 316/316/316 315/315/315
f 319/319/319 318/318/318 317/317/317
f 317/317/317 320/320/320 319/319/319
f 323/323/323 322/322/322 321/321/321
f 321/321/321 324/324/324 323/323/323
f 327/327/327 326/326/326 325/325/325
f 325/325/325 328/328/328 327/327/327
f 331/331/331 330/330/330 329/329/329
f 329/329/329 332/332/332 331/331/331
f 335/335/335 334/334/334 333/333/333
f 333/333/333 336/336/336 335/335/335
f 339/339/339 338/338/338 337/337/337
f 337/337/337 340/340/340 339/339/339
f 343/343/343 342/342/342 341/341/341
f 341/341/341 344/344/344 343/343/343
f 347/347/347 346/346/346 345/345/345
f 345/345/345 348/348/348 347/347/347
f 351/351/351 350/350/350 349/349/349
f 349/349/349 352/352/352 351/351/351
f 355/355/355 354/354/354 353/353/353
f 353/353/353 356/356/356 355/355/355
f 359/359/359 358/358/358 357/357/357
f 357/357/357 360/360/360 359/359/359
f 363/363/363 362/362/362 361/361/361
f 361/361/361 364/364/364 363/363/363
f 367/367/367 366/366/366 365/365/365
f 365/365/365 368/368/368 367/367/367
f 371/371/371 370/370/370 369/369/369
f 369/369/369 372/372/372 371/371/371
f 375/375/375 374/374/374 373/373/373
f 373/373/373 376/376/376 375/375/375
f 379/379/379 378/378/378 377/377/377
f 377/377/377 380/380/380 379/379/379
f 383/383/383 382/382/382 381/381/381
f 381/381/381 384/384/384 383/383/383
f 387/387/387 386/386/386 385/385/385
f 385/385/385 388/388/388 387/387/387
f 391/391/391 390/390/390 389/389/389
f 389/389/389 392/392/392 391/391/391
f 395/395/395 394/394/394 393/393/393
f 393/393/393 396/396/396 395/395/395
f 399/399/399 398/398/398 397/397/397
f 397/397/397 400/400/400 399/399/399
f 403/403/403 402/402/402 401/401/401
f 401/401/401 404/404/404 403/403/403
f 407/407/407 406/406/406 405/405/405
f 405/405/405 408/408/408 407/407/407
f 411/411/411 410/410/410 409/409/409
f 409/409/409 412/412/412 411/411/411
f 415/415/415 414/414/414 413/413/413
f 413/413/413 416/416/416 415/415/415
f 419/419/419 418/418/418 417/417/417
f 417/417/417 420/420/420 419/419/419
f 423/423/423 422/422/422 421/421/421
f 421/421/421 424/424/424 423/423/423
f 427/427/427 426/426/426 425/425/425
f 425/425/425 428/428/428 427/427/427
f 431/431/431 430/430/430 429/429/429
f 429/429/429 432/432/432 431/431/431
f 435/435/435 434/434/434 433/433/433
f 433/433/433 436/436/436 435/435/435
f 439/439/439 438/438/438 437/437/437
f 437/437/437 440/440/440 439/439/439
f 443/443/443 442/442/442 441/441/441
f 441/441/441 444/444/444 443/443/443
f 447/447/447 446/446/446 445/445/445
f 445/445/445 448/448/448 447/447/447
f 451/451/451 450/450/450 449/449/449
f 449/449/449 452/452/452 451/451/451
f 455/455/455 454/454/454 453/453/453
f 453/453/453 456/456/456 455/455/455
f 459/459/459 458/458/458 457/457/457
f 457/457/457 460/460/460 459/459/459
f 463/463/463 462/462/462 461/461/461
f 461/461/461 464/464/464 463/463/463
f 467/467/467 466/466/466 465/465/465
f 465/465/465 468/468/468 467/467/467
f 471/471/471 470/470/470 469/469/469
f 469/469/469 472/472/472 471/471/471
f 475/475/475 474/474/474 473/473/473
f 473/473/473 476/476/476 475/475/475
