g shuixingjinian_2-mesh
v -224 0 0
v -224 585 0
v -1024 585 0
v -1024 0 0
v -224 585 0
v -224 1193 0
v -1024 1193 0
v -1024 585 0
v -1024 105 0
v -1024 489 0
v -1216 489 0
v -1216 105 0
v -1024 489 0
v -1024 873 0
v -1216 873 0
v -1216 489 0
v -1216 201 0
v -1216 489 0
v -1376 489 0
v -1376 201 0
v -0 809 0
v -0 937 0
v -224 937 0
v -224 809 0
v -96 169 0
v -96 361 0
v -224 361 0
v -224 169 0
v -96 0 0
v -96 169 0
v -224 169 0
v -224 0 0
v -224 1193 0
v -224 1257 0
v -608 1257 0
v -608 1193 0
v -608 1193 0
v -608 1257 0
v -960 1257 0
v -960 1193 0
v -0 521 0
v -0 617 0
v -224 617 0
v -224 521 0
v -1024 0 0
v -1024 105 0
v -1184 105 0
v -1184 0 0
v -1024 873 0
v -1024 1001 0
v -1152 1001 0
v -1152 873 0
v -32 201 0
v -32 329 0
v -96 329 0
v -96 201 0
v -160 425 0
v -160 521 0
v -224 521 0
v -224 425 0
v -32 937 0
v -32 1033 0
v -96 1033 0
v -96 937 0
v -32 105 0
v -32 201 0
v -96 201 0
v -96 105 0
v -160 745 0
v -160 809 0
v -224 809 0
v -224 745 0
v -1376 329 0
v -1376 457 0
v -1399 457 0
v -1399 329 0
v -1376 233 0
v -1376 329 0
v -1399 329 0
v -1399 233 0
v -1056 1001 0
v -1056 1065 0
v -1088 1065 0
v -1088 1001 0
v -0 1001 0
v -0 1065 0
v -32 1065 0
v -32 1001 0
v -1216 137 0
v -1216 201 0
v -1248 201 0
v -1248 137 0
v -32 777 0
v -32 809 0
v -96 809 0
v -96 777 0
v -192 361 0
v -192 425 0
v -224 425 0
v -224 361 0
v -96 937 0
v -96 969 0
v -160 969 0
v -160 937 0
v -160 617 0
v -160 649 0
v -224 649 0
v -224 617 0
v -96 617 0
v -96 649 0
v -160 649 0
v -160 617 0
v -1024 1065 0
v -1024 1129 0
v -1056 1129 0
v -1056 1065 0
v -1024 1001 0
v -1024 1065 0
v -1056 1065 0
v -1056 1001 0
v -0 233 0
v -0 297 0
v -32 297 0
v -32 233 0
v -192 649 0
v -192 681 0
v -224 681 0
v -224 649 0
v -128 777 0
v -128 809 0
v -160 809 0
v -160 777 0
v -192 713 0
v -192 745 0
v -224 745 0
v -224 713 0
v -160 361 0
v -160 393 0
v -192 393 0
v -192 361 0
v -64 329 0
v -64 361 0
v -96 361 0
v -96 329 0
v -1248 489 0
v -1248 521 0
v -1280 521 0
v -1280 489 0
v -992 1225 0
v -992 1257 0
v -1024 1257 0
v -1024 1225 0
v -1216 105 0
v -1216 137 0
v -1248 137 0
v -1248 105 0
v -0 201 0
v -0 233 0
v -32 233 0
v -32 201 0
v -0 937 0
v -0 969 0
v -32 969 0
v -32 937 0
v -32 1033 0
v -32 1065 0
v -64 1065 0
v -64 1033 0
v -960 1193 0
v -960 1225 0
v -992 1225 0
v -992 1193 0
vt 0.00048828125 0.00135135651
vt 0.00048828125 0.793243229
vt 0.391113281 0.793243229
vt 0.391113281 0.00135135651
vt 0.392089844 0.00135135651
vt 0.392089844 0.822972953
vt 0.782714844 0.822972953
vt 0.782714844 0.00135135651
vt 0.783691406 0.00135135651
vt 0.783691406 0.520270228
vt 0.877441406 0.520270228
vt 0.877441406 0.00135135651
vt 0.878417969 0.00135135651
vt 0.878417969 0.520270228
vt 0.972167969 0.520270228
vt 0.972167969 0.00135135651
vt 0.783691406 0.522972941
vt 0.783691406 0.912162185
vt 0.861816406 0.912162185
vt 0.861816406 0.522972941
vt 0.862792969 0.522972941
vt 0.862792969 0.695945978
vt 0.972167969 0.695945978
vt 0.972167969 0.522972941
vt 0.862792969 0.698648691
vt 0.862792969 0.958108127
vt 0.925292969 0.958108127
vt 0.925292969 0.698648691
vt 0.926269531 0.698648691
vt 0.926269531 0.928378403
vt 0.988769531 0.928378403
vt 0.988769531 0.698648691
vt 0.00048828125 0.795945942
vt 0.00048828125 0.882432461
vt 0.187988281 0.882432461
vt 0.187988281 0.795945942
vt 0.188964844 0.795945942
vt 0.188964844 0.882432461
vt 0.360839844 0.882432461
vt 0.360839844 0.795945942
vt 0.392089844 0.825675666
vt 0.392089844 0.955405414
vt 0.501464844 0.955405414
vt 0.501464844 0.825675666
vt 0.502441406 0.825675666
vt 0.502441406 0.96891892
vt 0.580566406 0.96891892
vt 0.580566406 0.825675666
vt 0.581542969 0.825675666
vt 0.581542969 0.998648643
vt 0.644042969 0.998648643
vt 0.644042969 0.825675666
vt 0.645019531 0.825675666
vt 0.645019531 0.998648643
vt 0.676269531 0.998648643
vt 0.676269531 0.825675666
vt 0.677246094 0.825675666
vt 0.677246094 0.955405414
vt 0.708496094 0.955405414
vt 0.708496094 0.825675666
vt 0.709472656 0.825675666
vt 0.709472656 0.955405414
vt 0.740722656 0.955405414
vt 0.740722656 0.825675666
vt 0.741699219 0.825675666
vt 0.741699219 0.955405414
vt 0.772949219 0.955405414
vt 0.772949219 0.825675666
vt 0.00048828125 0.885135114
vt 0.00048828125 0.971621633
vt 0.0317382812 0.971621633
vt 0.0317382812 0.885135114
vt 0.361816406 0.795945942
vt 0.361816406 0.96891892
vt 0.373535156 0.96891892
vt 0.373535156 0.795945942
vt 0.374511719 0.795945942
vt 0.374511719 0.92567569
vt 0.386230469 0.92567569
vt 0.386230469 0.795945942
vt 0.0327148438 0.885135114
vt 0.0327148438 0.971621633
vt 0.0483398438 0.971621633
vt 0.0483398438 0.885135114
vt 0.0493164062 0.885135114
vt 0.0493164062 0.971621633
vt 0.0649414062 0.971621633
vt 0.0649414062 0.885135114
vt 0.0659179688 0.885135114
vt 0.0659179688 0.971621633
vt 0.0815429688 0.971621633
vt 0.0815429688 0.885135114
vt 0.0825195312 0.885135114
vt 0.0825195312 0.928378403
vt 0.113769531 0.928378403
vt 0.113769531 0.885135114
vt 0.114746094 0.885135114
vt 0.114746094 0.971621633
vt 0.130371094 0.971621633
vt 0.130371094 0.885135114
vt 0.131347656 0.885135114
vt 0.131347656 0.928378403
vt 0.162597656 0.928378403
vt 0.162597656 0.885135114
vt 0.163574219 0.885135114
vt 0.163574219 0.928378403
vt 0.194824219 0.928378403
vt 0.194824219 0.885135114
vt 0.195800781 0.885135114
vt 0.195800781 0.928378403
vt 0.227050781 0.928378403
vt 0.227050781 0.885135114
vt 0.228027344 0.885135114
vt 0.228027344 0.971621633
vt 0.243652344 0.971621633
vt 0.243652344 0.885135114
vt 0.244628906 0.885135114
vt 0.244628906 0.971621633
vt 0.260253906 0.971621633
vt 0.260253906 0.885135114
vt 0.261230469 0.885135114
vt 0.261230469 0.971621633
vt 0.276855469 0.971621633
vt 0.276855469 0.885135114
vt 0.277832031 0.885135114
vt 0.277832031 0.928378403
vt 0.293457031 0.928378403
vt 0.293457031 0.885135114
vt 0.294433594 0.885135114
vt 0.294433594 0.928378403
vt 0.310058594 0.928378403
vt 0.310058594 0.885135114
vt 0.311035156 0.885135114
vt 0.311035156 0.928378403
vt 0.326660156 0.928378403
vt 0.326660156 0.885135114
vt 0.327636719 0.885135114
vt 0.327636719 0.928378403
vt 0.343261719 0.928378403
vt 0.343261719 0.885135114
vt 0.344238281 0.885135114
vt 0.344238281 0.928378403
vt 0.359863281 0.928378403
vt 0.359863281 0.885135114
vt 0.783691406 0.914864898
vt 0.783691406 0.958108127
vt 0.799316406 0.958108127
vt 0.799316406 0.914864898
vt 0.800292969 0.914864898
vt 0.800292969 0.958108127
vt 0.815917969 0.958108127
vt 0.815917969 0.914864898
vt 0.816894531 0.914864898
vt 0.816894531 0.958108127
vt 0.832519531 0.958108127
vt 0.832519531 0.914864898
vt 0.833496094 0.914864898
vt 0.833496094 0.958108127
vt 0.849121094 0.958108127
vt 0.849121094 0.914864898
vt 0.374511719 0.928378403
vt 0.374511719 0.971621633
vt 0.390136719 0.971621633
vt 0.390136719 0.928378403
vt 0.0825195312 0.931081057
vt 0.0825195312 0.974324346
vt 0.0981445312 0.974324346
vt 0.0981445312 0.931081057
vt 0.131347656 0.931081057
vt 0.131347656 0.974324346
vt 0.146972656 0.974324346
vt 0.146972656 0.931081057
g shuixingjinian_2-mesh_0
f 3/3/3 2/2/2 1/1/1
f 1/1/1 4/4/4 3/3/3
f 7/7/7 6/6/6 5/5/5
f 5/5/5 8/8/8 7/7/7
f 11/11/11 10/10/10 9/9/9
f 9/9/9 12/12/12 11/11/11
f 15/15/15 14/14/14 13/13/13
f 13/13/13 16/16/16 15/15/15
f 19/19/19 18/18/18 17/17/17
f 17/17/17 20/20/20 19/19/19
f 23/23/23 22/22/22 21/21/21
f 21/21/21 24/24/24 23/23/23
f 27/27/27 26/26/26 25/25/25
f 25/25/25 28/28/28 27/27/27
f 31/31/31 30/30/30 29/29/29
f 29/29/29 32/32/32 31/31/31
f 35/35/35 34/34/34 33/33/33
f 33/33/33 36/36/36 35/35/35
f 39/39/39 38/38/38 37/37/37
f 37/37/37 40/40/40 39/39/39
f 43/43/43 42/42/42 41/41/41
f 41/41/41 44/44/44 43/43/43
f 47/47/47 46/46/46 45/45/45
f 45/45/45 48/48/48 47/47/47
f 51/51/51 50/50/50 49/49/49
f 49/49/49 52/52/52 51/51/51
f 55/55/55 54/54/54 53/53/53
f 53/53/53 56/56/56 55/55/55
f 59/59/59 58/58/58 57/57/57
f 57/57/57 60/60/60 59/59/59
f 63/63/63 62/62/62 61/61/61
f 61/61/61 64/64/64 63/63/63
f 67/67/67 66/66/66 65/65/65
f 65/65/65 68/68/68 67/67/67
f 71/71/71 70/70/70 69/69/69
f 69/69/69 72/72/72 71/71/71
f 75/75/75 74/74/74 73/73/73
f 73/73/73 76/76/76 75/75/75
f 79/79/79 78/78/78 77/77/77
f 77/77/77 80/80/80 79/79/79
f 83/83/83 82/82/82 81/81/81
f 81/81/81 84/84/84 83/83/83
f 87/87/87 86/86/86 85/85/85
f 85/85/85 88/88/88 87/87/87
f 91/91/91 90/90/90 89/89/89
f 89/89/89 92/92/92 91/91/91
f 95/95/95 94/94/94 93/93/93
f 93/93/93 96/96/96 95/95/95
f 99/99/99 98/98/98 97/97/97
f 97/97/97 100/100/100 99/99/99
f 103/103/103 102/102/102 101/101/101
f 101/101/101 104/104/104 103/103/103
f 107/107/107 106/106/106 105/105/105
f 105/105/105 108/108/108 107/107/107
f 111/111/111 110/110/110 109/109/109
f 109/109/109 112/112/112 111/111/111
f 115/115/115 114/114/114 113/113/113
f 113/113/113 116/116/116 115/115/115
f 119/119/119 118/118/118 117/117/117
f 117/117/117 120/120/120 119/119/119
f 123/123/123 122/122/122 121/121/121
f 121/121/121 124/124/124 123/123/123
f 127/127/127 126/126/126 125/125/125
f 125/125/125 128/128/128 127/127/127
f 131/131/131 130/130/130 129/129/129
f 129/129/129 132/132/132 131/131/131
f 135/135/135 134/134/134 133/133/133
f 133/133/133 136/136/136 135/135/135
f 139/139/139 138/138/138 137/137/137
f 137/137/137 140/140/140 139/139/139
f 143/143/143 142/142/142 141/141/141
f 141/141/141 144/144/144 143/143/143
f 147/147/147 146/146/146 145/145/145
f 145/145/145 148/148/148 147/147/147
f 151/151/151 150/150/150 149/149/149
f 149/149/149 152/152/152 151/151/151
f 155/155/155 154/154/154 153/153/153
f 153/153/153 156/156/156 155/155/155
f 159/159/159 158/158/158 157/157/157
f 157/157/157 160/160/160 159/159/159
f 163/163/163 162/162/162 161/161/161
f 161/161/161 164/164/164 163/163/163
f 167/167/167 166/166/166 165/165/165
f 165/165/165 168/168/168 167/167/167
f 171/171/171 170/170/170 169/169/169
f 169/169/169 172/172/172 171/171/171
