g aierbin_3_rw-mesh
v -576 841 0
v -576 1193 0
v -1216 1193 0
v -1216 841 0
v -576 1193 0
v -576 1545 0
v -1216 1545 0
v -1216 1193 0
v -672 1545 0
v -672 1897 0
v -960 1897 0
v -960 1545 0
v -384 137 0
v -384 521 0
v -576 521 0
v -576 137 0
v -640 681 0
v -640 841 0
v -896 841 0
v -896 681 0
v -384 681 0
v -384 841 0
v -640 841 0
v -640 681 0
v -416 1641 0
v -416 1801 0
v -640 1801 0
v -640 1641 0
v -128 233 0
v -128 489 0
v -256 489 0
v -256 233 0
v -128 489 0
v -128 745 0
v -256 745 0
v -256 489 0
v -448 1033 0
v -448 1289 0
v -576 1289 0
v -576 1033 0
v -448 1289 0
v -448 1545 0
v -576 1545 0
v -576 1289 0
v -288 1129 0
v -288 1321 0
v -448 1321 0
v -448 1129 0
v -1440 1033 0
v -1440 1257 0
v -1568 1257 0
v -1568 1033 0
v -480 521 0
v -480 681 0
v -640 681 0
v -640 521 0
v -960 1769 0
v -960 1929 0
v -1120 1929 0
v -1120 1769 0
v -256 649 0
v -256 841 0
v -384 841 0
v -384 649 0
v -576 73 0
v -576 201 0
v -768 201 0
v -768 73 0
v -1056 713 0
v -1056 841 0
v -1248 841 0
v -1248 713 0
v -864 265 0
v -864 521 0
v -960 521 0
v -960 265 0
v -864 41 0
v -864 265 0
v -960 265 0
v -960 41 0
v -1248 1097 0
v -1248 1321 0
v -1344 1321 0
v -1344 1097 0
v -1248 713 0
v -1248 841 0
v -1408 841 0
v -1408 713 0
v -896 553 0
v -896 681 0
v -1056 681 0
v -1056 553 0
v -736 553 0
v -736 681 0
v -896 681 0
v -896 553 0
v -1568 1129 0
v -1568 1289 0
v -1696 1289 0
v -1696 1129 0
v -288 233 0
v -288 425 0
v -384 425 0
v -384 233 0
v -1248 905 0
v -1248 1097 0
v -1344 1097 0
v -1344 905 0
v -288 841 0
v -288 937 0
v -448 937 0
v -448 841 0
v -1280 1353 0
v -1280 1481 0
v -1376 1481 0
v -1376 1353 0
v -448 841 0
v -448 937 0
v -576 937 0
v -576 841 0
v -640 585 0
v -640 681 0
v -736 681 0
v -736 585 0
v -1344 1097 0
v -1344 1193 0
v -1440 1193 0
v -1440 1097 0
v -1376 1289 0
v -1376 1417 0
v -1440 1417 0
v -1440 1289 0
v -896 681 0
v -896 713 0
v -1152 713 0
v -1152 681 0
v -960 1545 0
v -960 1609 0
v -1088 1609 0
v -1088 1545 0
v -1152 681 0
v -1152 713 0
v -1376 713 0
v -1376 681 0
v -1216 1289 0
v -1216 1513 0
v -1248 1513 0
v -1248 1289 0
v -1216 1065 0
v -1216 1289 0
v -1248 1289 0
v -1248 1065 0
v -384 937 0
v -384 1033 0
v -448 1033 0
v -448 937 0
v -256 457 0
v -256 649 0
v -288 649 0
v -288 457 0
v -768 105 0
v -768 169 0
v -864 169 0
v -864 105 0
v -288 457 0
v -288 521 0
v -384 521 0
v -384 457 0
v -64 329 0
v -64 425 0
v -128 425 0
v -128 329 0
v -384 1321 0
v -384 1417 0
v -448 1417 0
v -448 1321 0
v -992 1705 0
v -992 1769 0
v -1088 1769 0
v -1088 1705 0
v -1472 937 0
v -1472 1033 0
v -1536 1033 0
v -1536 937 0
v -512 9 0
v -512 73 0
v -608 73 0
v -608 9 0
v -896 745 0
v -896 841 0
v -960 841 0
v -960 745 0
v -1568 937 0
v -1568 1097 0
v -1600 1097 0
v -1600 937 0
v -1568 777 0
v -1568 937 0
v -1600 937 0
v -1600 777 0
v -256 297 0
v -256 457 0
v -288 457 0
v -288 297 0
v -1568 1289 0
v -1568 1353 0
v -1632 1353 0
v -1632 1289 0
v -1280 841 0
v -1280 905 0
v -1344 905 0
v -1344 841 0
v -896 521 0
v -896 553 0
v -1024 553 0
v -1024 521 0
v -1344 937 0
v -1344 1065 0
v -1376 1065 0
v -1376 937 0
v -768 521 0
v -768 553 0
v -896 553 0
v -896 521 0
v -64 265 0
v -64 329 0
v -128 329 0
v -128 265 0
v -608 9 0
v -608 73 0
v -672 73 0
v -672 9 0
v -192 745 0
v -192 809 0
v -256 809 0
v -256 745 0
v -992 713 0
v -992 777 0
v -1056 777 0
v -1056 713 0
v -448 73 0
v -448 137 0
v -512 137 0
v -512 73 0
v -0 521 0
v -0 617 0
v -32 617 0
v -32 521 0
v -0 425 0
v -0 521 0
v -32 521 0
v -32 425 0
v -1536 841 0
v -1536 937 0
v -1568 937 0
v -1568 841 0
v -832 425 0
v -832 521 0
v -864 521 0
v -864 425 0
v -640 1801 0
v -640 1897 0
v -672 1897 0
v -672 1801 0
v -640 1705 0
v -640 1801 0
v -672 1801 0
v -672 1705 0
v -1120 1801 0
v -1120 1897 0
v -1152 1897 0
v -1152 1801 0
v -1344 841 0
v -1344 937 0
v -1376 937 0
v -1376 841 0
v -768 1897 0
v -768 1929 0
v -864 1929 0
v -864 1897 0
v -864 1897 0
v -864 1929 0
v -960 1929 0
v -960 1897 0
v -1120 1705 0
v -1120 1801 0
v -1152 1801 0
v -1152 1705 0
v -1216 841 0
v -1216 937 0
v -1248 937 0
v -1248 841 0
v -1216 937 0
v -1216 1033 0
v -1248 1033 0
v -1248 937 0
v -96 649 0
v -96 745 0
v -128 745 0
v -128 649 0
v -96 553 0
v -96 649 0
v -128 649 0
v -128 553 0
v -1344 1193 0
v -1344 1225 0
v -1408 1225 0
v -1408 1193 0
v -1408 1257 0
v -1408 1289 0
v -1472 1289 0
v -1472 1257 0
v -1376 1033 0
v -1376 1097 0
v -1408 1097 0
v -1408 1033 0
v -448 969 0
v -448 1033 0
v -480 1033 0
v -480 969 0
v -384 1097 0
v -384 1129 0
v -448 1129 0
v -448 1097 0
v -256 1129 0
v -256 1193 0
v -288 1193 0
v -288 1129 0
v -352 937 0
v -352 1001 0
v -384 1001 0
v -384 937 0
v -1536 1257 0
v -1536 1321 0
v -1568 1321 0
v -1568 1257 0
v -608 1801 0
v -608 1865 0
v -640 1865 0
v -640 1801 0
v -1152 1737 0
v -1152 1801 0
v -1184 1801 0
v -1184 1737 0
v -544 0 0
v -544 9 0
v -608 9 0
v -608 0 0
v -448 1801 0
v -448 1865 0
v -480 1865 0
v -480 1801 0
v -416 1417 0
v -416 1481 0
v -448 1481 0
v -448 1417 0
v -352 1321 0
v -352 1385 0
v -384 1385 0
v -384 1321 0
v -1024 1641 0
v -1024 1705 0
v -1056 1705 0
v -1056 1641 0
v -448 1577 0
v -448 1641 0
v -480 1641 0
v -480 1577 0
v -320 201 0
v -320 233 0
v -384 233 0
v -384 201 0
v -608 201 0
v -608 233 0
v -672 233 0
v -672 201 0
v -32 393 0
v -32 457 0
v -64 457 0
v -64 393 0
v -736 201 0
v -736 265 0
v -768 265 0
v -768 201 0
v -960 73 0
v -960 137 0
v -992 137 0
v -992 73 0
v -864 9 0
v -864 41 0
v -928 41 0
v -928 9 0
v -960 169 0
v -960 233 0
v -992 233 0
v -992 169 0
v -544 73 0
v -544 137 0
v -576 137 0
v -576 73 0
v -960 777 0
v -960 841 0
v -992 841 0
v -992 777 0
v -928 713 0
v -928 745 0
v -992 745 0
v -992 713 0
v -512 937 0
v -512 969 0
v -576 969 0
v -576 937 0
v -1408 937 0
v -1408 969 0
v -1472 969 0
v -1472 937 0
v -416 521 0
v -416 585 0
v -448 585 0
v -448 521 0
v -800 457 0
v -800 521 0
v -832 521 0
v -832 457 0
v -288 585 0
v -288 649 0
v -320 649 0
v -320 585 0
v -1056 585 0
v -1056 649 0
v -1088 649 0
v -1088 585 0
v -1312 649 0
v -1312 681 0
v -1376 681 0
v -1376 649 0
v -1248 649 0
v -1248 681 0
v -1312 681 0
v -1312 649 0
v -1120 649 0
v -1120 681 0
v -1184 681 0
v -1184 649 0
v -448 521 0
v -448 585 0
v -480 585 0
v -480 521 0
v -1248 1481 0
v -1248 1513 0
v -1312 1513 0
v -1312 1481 0
v -512 1609 0
v -512 1641 0
v -576 1641 0
v -576 1609 0
v -960 1641 0
v -960 1705 0
v -992 1705 0
v -992 1641 0
v -416 1545 0
v -416 1577 0
v -480 1577 0
v -480 1545 0
v -832 361 0
v -832 425 0
v -864 425 0
v -864 361 0
v -1536 777 0
v -1536 841 0
v -1568 841 0
v -1568 777 0
v -480 1545 0
v -480 1577 0
v -544 1577 0
v -544 1545 0
v -1056 649 0
v -1056 681 0
v -1120 681 0
v -1120 649 0
v -1600 937 0
v -1600 1001 0
v -1632 1001 0
v -1632 937 0
v -1600 1001 0
v -1600 1065 0
v -1632 1065 0
v -1632 1001 0
v -1248 1353 0
v -1248 1417 0
v -1280 1417 0
v -1280 1353 0
v -1696 1225 0
v -1696 1289 0
v -1728 1289 0
v -1728 1225 0
v -32 585 0
v -32 649 0
v -64 649 0
v -64 585 0
v -64 649 0
v -64 713 0
v -96 713 0
v -96 649 0
v -576 457 0
v -576 521 0
v -608 521 0
v -608 457 0
v -576 233 0
v -576 297 0
v -608 297 0
v -608 233 0
v -448 585 0
v -448 649 0
v -480 649 0
v -480 585 0
v -1344 1289 0
v -1344 1353 0
v -1376 1353 0
v -1376 1289 0
v -320 937 0
v -320 969 0
v -352 969 0
v -352 937 0
v -1440 905 0
v -1440 937 0
v -1472 937 0
v -1472 905 0
v -480 1001 0
v -480 1033 0
v -512 1033 0
v -512 1001 0
v -992 809 0
v -992 841 0
v -1024 841 0
v -1024 809 0
v -1024 777 0
v -1024 809 0
v -1056 809 0
v -1056 777 0
v -1504 809 0
v -1504 841 0
v -1536 841 0
v -1536 809 0
v -224 809 0
v -224 841 0
v -256 841 0
v -256 809 0
v -1248 841 0
v -1248 873 0
v -1280 873 0
v -1280 841 0
v -1504 873 0
v -1504 905 0
v -1536 905 0
v -1536 873 0
v -256 841 0
v -256 873 0
v -288 873 0
v -288 841 0
v -160 745 0
v -160 777 0
v -192 777 0
v -192 745 0
v -320 617 0
v -320 649 0
v -352 649 0
v -352 617 0
v -352 169 0
v -352 201 0
v -384 201 0
v -384 169 0
v -704 201 0
v -704 233 0
v -736 233 0
v -736 201 0
v -800 169 0
v -800 201 0
v -832 201 0
v -832 169 0
v -480 41 0
v -480 73 0
v -512 73 0
v -512 41 0
v -512 73 0
v -512 105 0
v -544 105 0
v -544 73 0
v -96 233 0
v -96 265 0
v -128 265 0
v -128 233 0
v -1088 617 0
v -1088 649 0
v -1120 649 0
v -1120 617 0
v -672 41 0
v -672 73 0
v -704 73 0
v -704 41 0
v -640 553 0
v -640 585 0
v -672 585 0
v -672 553 0
v -608 489 0
v -608 521 0
v -640 521 0
v -640 489 0
v -288 521 0
v -288 553 0
v -320 553 0
v -320 521 0
v -416 1033 0
v -416 1065 0
v -448 1065 0
v -448 1033 0
v -1248 1321 0
v -1248 1353 0
v -1280 1353 0
v -1280 1321 0
v -1344 1257 0
v -1344 1289 0
v -1376 1289 0
v -1376 1257 0
v -1312 1481 0
v -1312 1513 0
v -1344 1513 0
v -1344 1481 0
v -960 1609 0
v -960 1641 0
v -992 1641 0
v -992 1609 0
v -576 1609 0
v -576 1641 0
v -608 1641 0
v -608 1609 0
v -1696 1193 0
v -1696 1225 0
v -1728 1225 0
v -1728 1193 0
v -608 0 0
v -608 9 0
v -640 9 0
v -640 0 0
v -576 201 0
v -576 233 0
v -608 233 0
v -608 201 0
v -576 425 0
v -576 457 0
v -608 457 0
v -608 425 0
v -64 617 0
v -64 649 0
v -96 649 0
v -96 617 0
v -32 553 0
v -32 585 0
v -64 585 0
v -64 553 0
v -576 1801 0
v -576 1833 0
v -608 1833 0
v -608 1801 0
v -320 1321 0
v -320 1353 0
v -352 1353 0
v -352 1321 0
v -1376 1417 0
v -1376 1449 0
v -1408 1449 0
v -1408 1417 0
v -1312 1321 0
v -1312 1353 0
v -1344 1353 0
v -1344 1321 0
v -320 1097 0
v -320 1129 0
v -352 1129 0
v -352 1097 0
v -1632 1289 0
v -1632 1321 0
v -1664 1321 0
v -1664 1289 0
v -1248 1449 0
v -1248 1481 0
v -1280 1481 0
v -1280 1449 0
v -992 1609 0
v -992 1641 0
v -1024 1641 0
v -1024 1609 0
v -1088 1737 0
v -1088 1769 0
v -1120 1769 0
v -1120 1737 0
v -640 1545 0
v -640 1577 0
v -672 1577 0
v -672 1545 0
v -2016 1545 0
v -2016 1577 0
v -2047 1577 0
v -2047 1545 0
v -1088 1545 0
v -1088 1577 0
v -1120 1577 0
v -1120 1545 0
vt 0.00048828125 0.00105929375
vt 0.00048828125 0.373940706
vt 0.312988281 0.373940706
vt 0.312988281 0.00105929375
vt 0.313964844 0.00105929375
vt 0.313964844 0.373940706
vt 0.626464844 0.373940706
vt 0.626464844 0.00105929375
vt 0.627441406 0.00105929375
vt 0.627441406 0.373940706
vt 0.768066406 0.373940706
vt 0.768066406 0.00105929375
vt 0.769042969 0.00105929375
vt 0.769042969 0.407839
vt 0.862792969 0.407839
vt 0.862792969 0.00105929375
vt 0.863769531 0.00105929375
vt 0.863769531 0.170550823
vt 0.988769531 0.170550823
vt 0.988769531 0.00105929375
vt 0.863769531 0.17266947
vt 0.863769531 0.342161
vt 0.988769531 0.342161
vt 0.988769531 0.17266947
vt 0.863769531 0.344279647
vt 0.863769531 0.513771176
vt 0.973144531 0.513771176
vt 0.973144531 0.344279647
vt 0.00048828125 0.376059294
vt 0.00048828125 0.647245765
vt 0.0629882812 0.647245765
vt 0.0629882812 0.376059294
vt 0.0639648438 0.376059294
vt 0.0639648438 0.647245765
vt 0.126464844 0.647245765
vt 0.126464844 0.376059294
vt 0.127441406 0.376059294
vt 0.127441406 0.647245765
vt 0.189941406 0.647245765
vt 0.189941406 0.376059294
vt 0.190917969 0.376059294
vt 0.190917969 0.647245765
vt 0.253417969 0.647245765
vt 0.253417969 0.376059294
vt 0.254394531 0.376059294
vt 0.254394531 0.579449177
vt 0.332519531 0.579449177
vt 0.332519531 0.376059294
vt 0.333496094 0.376059294
vt 0.333496094 0.613347471
vt 0.395996094 0.613347471
vt 0.395996094 0.376059294
vt 0.396972656 0.376059294
vt 0.396972656 0.545550823
vt 0.475097656 0.545550823
vt 0.475097656 0.376059294
vt 0.476074219 0.376059294
vt 0.476074219 0.545550823
vt 0.554199219 0.545550823
vt 0.554199219 0.376059294
vt 0.555175781 0.376059294
vt 0.555175781 0.579449177
vt 0.617675781 0.579449177
vt 0.617675781 0.376059294
vt 0.618652344 0.376059294
vt 0.618652344 0.511652529
vt 0.712402344 0.511652529
vt 0.712402344 0.376059294
vt 0.769042969 0.409957647
vt 0.769042969 0.545550823
vt 0.862792969 0.545550823
vt 0.862792969 0.409957647
vt 0.713378906 0.376059294
vt 0.713378906 0.647245765
vt 0.760253906 0.647245765
vt 0.760253906 0.376059294
vt 0.618652344 0.513771176
vt 0.618652344 0.751059294
vt 0.665527344 0.751059294
vt 0.665527344 0.513771176
vt 0.863769531 0.515889823
vt 0.863769531 0.753178
vt 0.910644531 0.753178
vt 0.910644531 0.515889823
vt 0.911621094 0.515889823
vt 0.911621094 0.651483059
vt 0.989746094 0.651483059
vt 0.989746094 0.515889823
vt 0.396972656 0.54766953
vt 0.396972656 0.683262706
vt 0.475097656 0.683262706
vt 0.475097656 0.54766953
vt 0.476074219 0.54766953
vt 0.476074219 0.683262706
vt 0.554199219 0.683262706
vt 0.554199219 0.54766953
vt 0.769042969 0.54766953
vt 0.769042969 0.717161059
vt 0.831542969 0.717161059
vt 0.831542969 0.54766953
vt 0.254394531 0.581567764
vt 0.254394531 0.784957647
vt 0.301269531 0.784957647
vt 0.301269531 0.581567764
vt 0.555175781 0.581567764
vt 0.555175781 0.784957647
vt 0.602050781 0.784957647
vt 0.602050781 0.581567764
vt 0.00048828125 0.649364412
vt 0.00048828125 0.751059294
vt 0.0786132812 0.751059294
vt 0.0786132812 0.649364412
vt 0.333496094 0.615466118
vt 0.333496094 0.751059294
vt 0.380371094 0.751059294
vt 0.380371094 0.615466118
vt 0.0795898438 0.649364412
vt 0.0795898438 0.751059294
vt 0.142089844 0.751059294
vt 0.142089844 0.649364412
vt 0.143066406 0.649364412
vt 0.143066406 0.751059294
vt 0.189941406 0.751059294
vt 0.189941406 0.649364412
vt 0.190917969 0.649364412
vt 0.190917969 0.751059294
vt 0.237792969 0.751059294
vt 0.237792969 0.649364412
vt 0.666503906 0.513771176
vt 0.666503906 0.649364412
vt 0.697753906 0.649364412
vt 0.697753906 0.513771176
vt 0.396972656 0.685381353
vt 0.396972656 0.719279647
vt 0.521972656 0.719279647
vt 0.521972656 0.685381353
vt 0.666503906 0.651483059
vt 0.666503906 0.719279647
vt 0.729003906 0.719279647
vt 0.729003906 0.651483059
vt 0.396972656 0.721398294
vt 0.396972656 0.755296588
vt 0.506347656 0.755296588
vt 0.506347656 0.721398294
vt 0.832519531 0.54766953
vt 0.832519531 0.784957647
vt 0.848144531 0.784957647
vt 0.848144531 0.54766953
vt 0.302246094 0.581567764
vt 0.302246094 0.818855941
vt 0.317871094 0.818855941
vt 0.317871094 0.581567764
vt 0.729980469 0.649364412
vt 0.729980469 0.751059294
vt 0.761230469 0.751059294
vt 0.761230469 0.649364412
vt 0.911621094 0.653601706
vt 0.911621094 0.856991529
vt 0.927246094 0.856991529
vt 0.927246094 0.653601706
vt 0.928222656 0.653601706
vt 0.928222656 0.721398294
vt 0.975097656 0.721398294
vt 0.975097656 0.653601706
vt 0.769042969 0.719279647
vt 0.769042969 0.787076235
vt 0.815917969 0.787076235
vt 0.815917969 0.719279647
vt 0.522949219 0.685381353
vt 0.522949219 0.787076235
vt 0.554199219 0.787076235
vt 0.554199219 0.685381353
vt 0.666503906 0.721398294
vt 0.666503906 0.823093235
vt 0.697753906 0.823093235
vt 0.697753906 0.721398294
vt 0.928222656 0.723516941
vt 0.928222656 0.791313529
vt 0.975097656 0.791313529
vt 0.975097656 0.723516941
vt 0.00048828125 0.753178
vt 0.00048828125 0.854872882
vt 0.0317382812 0.854872882
vt 0.0317382812 0.753178
vt 0.0327148438 0.753178
vt 0.0327148438 0.820974588
vt 0.0795898438 0.820974588
vt 0.0795898438 0.753178
vt 0.0805664062 0.753178
vt 0.0805664062 0.854872882
vt 0.111816406 0.854872882
vt 0.111816406 0.753178
vt 0.976074219 0.653601706
vt 0.976074219 0.823093235
vt 0.991699219 0.823093235
vt 0.991699219 0.653601706
vt 0.698730469 0.721398294
vt 0.698730469 0.890889823
vt 0.714355469 0.890889823
vt 0.714355469 0.721398294
vt 0.112792969 0.753178
vt 0.112792969 0.92266947
vt 0.128417969 0.92266947
vt 0.128417969 0.753178
vt 0.129394531 0.753178
vt 0.129394531 0.820974588
vt 0.160644531 0.820974588
vt 0.160644531 0.753178
vt 0.161621094 0.753178
vt 0.161621094 0.820974588
vt 0.192871094 0.820974588
vt 0.192871094 0.753178
vt 0.333496094 0.753178
vt 0.333496094 0.787076235
vt 0.395996094 0.787076235
vt 0.395996094 0.753178
vt 0.193847656 0.753178
vt 0.193847656 0.888771176
vt 0.209472656 0.888771176
vt 0.209472656 0.753178
vt 0.396972656 0.757415235
vt 0.396972656 0.791313529
vt 0.459472656 0.791313529
vt 0.459472656 0.757415235
vt 0.210449219 0.753178
vt 0.210449219 0.820974588
vt 0.241699219 0.820974588
vt 0.241699219 0.753178
vt 0.618652344 0.753178
vt 0.618652344 0.820974588
vt 0.649902344 0.820974588
vt 0.649902344 0.753178
vt 0.729980469 0.753178
vt 0.729980469 0.820974588
vt 0.761230469 0.820974588
vt 0.761230469 0.753178
vt 0.863769531 0.755296588
vt 0.863769531 0.823093235
vt 0.895019531 0.823093235
vt 0.895019531 0.755296588
vt 0.460449219 0.757415235
vt 0.460449219 0.825211883
vt 0.491699219 0.825211883
vt 0.491699219 0.757415235
vt 0.492675781 0.757415235
vt 0.492675781 0.859110177
vt 0.508300781 0.859110177
vt 0.508300781 0.757415235
vt 0.254394531 0.787076235
vt 0.254394531 0.888771176
vt 0.270019531 0.888771176
vt 0.270019531 0.787076235
vt 0.270996094 0.787076235
vt 0.270996094 0.888771176
vt 0.286621094 0.888771176
vt 0.286621094 0.787076235
vt 0.555175781 0.787076235
vt 0.555175781 0.888771176
vt 0.570800781 0.888771176
vt 0.570800781 0.787076235
vt 0.571777344 0.787076235
vt 0.571777344 0.888771176
vt 0.587402344 0.888771176
vt 0.587402344 0.787076235
vt 0.588378906 0.787076235
vt 0.588378906 0.888771176
vt 0.604003906 0.888771176
vt 0.604003906 0.787076235
vt 0.832519531 0.787076235
vt 0.832519531 0.888771176
vt 0.848144531 0.888771176
vt 0.848144531 0.787076235
vt 0.333496094 0.789194942
vt 0.333496094 0.890889823
vt 0.349121094 0.890889823
vt 0.349121094 0.789194942
vt 0.769042969 0.789194942
vt 0.769042969 0.823093235
vt 0.815917969 0.823093235
vt 0.815917969 0.789194942
vt 0.396972656 0.793432236
vt 0.396972656 0.82733053
vt 0.443847656 0.82733053
vt 0.443847656 0.793432236
vt 0.350097656 0.789194942
vt 0.350097656 0.890889823
vt 0.365722656 0.890889823
vt 0.365722656 0.789194942
vt 0.366699219 0.789194942
vt 0.366699219 0.890889823
vt 0.382324219 0.890889823
vt 0.382324219 0.789194942
vt 0.522949219 0.789194942
vt 0.522949219 0.890889823
vt 0.538574219 0.890889823
vt 0.538574219 0.789194942
vt 0.928222656 0.793432236
vt 0.928222656 0.895127118
vt 0.943847656 0.895127118
vt 0.943847656 0.793432236
vt 0.944824219 0.793432236
vt 0.944824219 0.895127118
vt 0.960449219 0.895127118
vt 0.960449219 0.793432236
vt 0.0327148438 0.823093235
vt 0.0327148438 0.856991529
vt 0.0639648438 0.856991529
vt 0.0639648438 0.823093235
vt 0.129394531 0.823093235
vt 0.129394531 0.856991529
vt 0.160644531 0.856991529
vt 0.160644531 0.823093235
vt 0.302246094 0.820974588
vt 0.302246094 0.888771176
vt 0.317871094 0.888771176
vt 0.317871094 0.820974588
vt 0.161621094 0.823093235
vt 0.161621094 0.890889823
vt 0.177246094 0.890889823
vt 0.177246094 0.823093235
vt 0.210449219 0.823093235
vt 0.210449219 0.856991529
vt 0.241699219 0.856991529
vt 0.241699219 0.823093235
vt 0.618652344 0.823093235
vt 0.618652344 0.890889823
vt 0.634277344 0.890889823
vt 0.634277344 0.823093235
vt 0.635253906 0.823093235
vt 0.635253906 0.890889823
vt 0.650878906 0.890889823
vt 0.650878906 0.823093235
vt 0.729980469 0.823093235
vt 0.729980469 0.890889823
vt 0.745605469 0.890889823
vt 0.745605469 0.823093235
vt 0.746582031 0.823093235
vt 0.746582031 0.890889823
vt 0.762207031 0.890889823
vt 0.762207031 0.823093235
vt 0.666503906 0.825211883
vt 0.666503906 0.893008471
vt 0.682128906 0.893008471
vt 0.682128906 0.825211883
vt 0.769042969 0.825211883
vt 0.769042969 0.835805058
vt 0.800292969 0.835805058
vt 0.800292969 0.825211883
vt 0.801269531 0.825211883
vt 0.801269531 0.893008471
vt 0.816894531 0.893008471
vt 0.816894531 0.825211883
vt 0.863769531 0.825211883
vt 0.863769531 0.893008471
vt 0.879394531 0.893008471
vt 0.879394531 0.825211883
vt 0.880371094 0.825211883
vt 0.880371094 0.893008471
vt 0.895996094 0.893008471
vt 0.895996094 0.825211883
vt 0.976074219 0.825211883
vt 0.976074219 0.893008471
vt 0.991699219 0.893008471
vt 0.991699219 0.825211883
vt 0.460449219 0.82733053
vt 0.460449219 0.895127118
vt 0.476074219 0.895127118
vt 0.476074219 0.82733053
vt 0.396972656 0.829449177
vt 0.396972656 0.863347471
vt 0.428222656 0.863347471
vt 0.428222656 0.829449177
vt 0.769042969 0.837923765
vt 0.769042969 0.871822
vt 0.800292969 0.871822
vt 0.800292969 0.837923765
vt 0.429199219 0.829449177
vt 0.429199219 0.897245765
vt 0.444824219 0.897245765
vt 0.444824219 0.829449177
vt 0.00048828125 0.856991529
vt 0.00048828125 0.924788117
vt 0.0161132812 0.924788117
vt 0.0161132812 0.856991529
vt 0.0805664062 0.856991529
vt 0.0805664062 0.924788117
vt 0.0961914062 0.924788117
vt 0.0961914062 0.856991529
vt 0.0327148438 0.859110177
vt 0.0327148438 0.893008471
vt 0.0639648438 0.893008471
vt 0.0639648438 0.859110177
vt 0.129394531 0.859110177
vt 0.129394531 0.926906765
vt 0.145019531 0.926906765
vt 0.145019531 0.859110177
vt 0.210449219 0.859110177
vt 0.210449219 0.926906765
vt 0.226074219 0.926906765
vt 0.226074219 0.859110177
vt 0.227050781 0.859110177
vt 0.227050781 0.926906765
vt 0.242675781 0.926906765
vt 0.242675781 0.859110177
vt 0.396972656 0.865466118
vt 0.396972656 0.899364412
vt 0.428222656 0.899364412
vt 0.428222656 0.865466118
vt 0.769042969 0.873940706
vt 0.769042969 0.907839
vt 0.800292969 0.907839
vt 0.800292969 0.873940706
vt 0.254394531 0.890889823
vt 0.254394531 0.924788117
vt 0.285644531 0.924788117
vt 0.285644531 0.890889823
vt 0.911621094 0.859110177
vt 0.911621094 0.926906765
vt 0.927246094 0.926906765
vt 0.927246094 0.859110177
vt 0.492675781 0.861228824
vt 0.492675781 0.929025412
vt 0.508300781 0.929025412
vt 0.508300781 0.861228824
vt 0.193847656 0.890889823
vt 0.193847656 0.958686471
vt 0.209472656 0.958686471
vt 0.209472656 0.890889823
vt 0.286621094 0.890889823
vt 0.286621094 0.958686471
vt 0.302246094 0.958686471
vt 0.302246094 0.890889823
vt 0.555175781 0.890889823
vt 0.555175781 0.924788117
vt 0.586425781 0.924788117
vt 0.586425781 0.890889823
vt 0.161621094 0.893008471
vt 0.161621094 0.926906765
vt 0.192871094 0.926906765
vt 0.192871094 0.893008471
vt 0.333496094 0.893008471
vt 0.333496094 0.926906765
vt 0.364746094 0.926906765
vt 0.364746094 0.893008471
vt 0.303222656 0.890889823
vt 0.303222656 0.958686471
vt 0.318847656 0.958686471
vt 0.318847656 0.890889823
vt 0.522949219 0.893008471
vt 0.522949219 0.926906765
vt 0.554199219 0.926906765
vt 0.554199219 0.893008471
vt 0.618652344 0.893008471
vt 0.618652344 0.926906765
vt 0.649902344 0.926906765
vt 0.649902344 0.893008471
vt 0.587402344 0.890889823
vt 0.587402344 0.958686471
vt 0.603027344 0.958686471
vt 0.603027344 0.890889823
vt 0.698730469 0.893008471
vt 0.698730469 0.926906765
vt 0.729980469 0.926906765
vt 0.729980469 0.893008471
vt 0.832519531 0.890889823
vt 0.832519531 0.958686471
vt 0.848144531 0.958686471
vt 0.848144531 0.890889823
vt 0.365722656 0.893008471
vt 0.365722656 0.960805058
vt 0.381347656 0.960805058
vt 0.381347656 0.893008471
vt 0.730957031 0.893008471
vt 0.730957031 0.926906765
vt 0.762207031 0.926906765
vt 0.762207031 0.893008471
vt 0.0327148438 0.895127118
vt 0.0327148438 0.929025412
vt 0.0639648438 0.929025412
vt 0.0639648438 0.895127118
vt 0.666503906 0.895127118
vt 0.666503906 0.962923706
vt 0.682128906 0.962923706
vt 0.682128906 0.895127118
vt 0.801269531 0.895127118
vt 0.801269531 0.962923706
vt 0.816894531 0.962923706
vt 0.816894531 0.895127118
vt 0.863769531 0.895127118
vt 0.863769531 0.962923706
vt 0.879394531 0.962923706
vt 0.879394531 0.895127118
vt 0.880371094 0.895127118
vt 0.880371094 0.962923706
vt 0.895996094 0.962923706
vt 0.895996094 0.895127118
vt 0.976074219 0.895127118
vt 0.976074219 0.962923706
vt 0.991699219 0.962923706
vt 0.991699219 0.895127118
vt 0.460449219 0.897245765
vt 0.460449219 0.965042353
vt 0.476074219 0.965042353
vt 0.476074219 0.897245765
vt 0.928222656 0.897245765
vt 0.928222656 0.965042353
vt 0.943847656 0.965042353
vt 0.943847656 0.897245765
vt 0.944824219 0.897245765
vt 0.944824219 0.965042353
vt 0.960449219 0.965042353
vt 0.960449219 0.897245765
vt 0.429199219 0.899364412
vt 0.429199219 0.967161
vt 0.444824219 0.967161
vt 0.444824219 0.899364412
vt 0.396972656 0.901483059
vt 0.396972656 0.969279647
vt 0.412597656 0.969279647
vt 0.412597656 0.901483059
vt 0.769042969 0.909957647
vt 0.769042969 0.943855941
vt 0.784667969 0.943855941
vt 0.784667969 0.909957647
vt 0.112792969 0.924788117
vt 0.112792969 0.958686471
vt 0.128417969 0.958686471
vt 0.128417969 0.924788117
vt 0.00048828125 0.926906765
vt 0.00048828125 0.960805058
vt 0.0161132812 0.960805058
vt 0.0161132812 0.926906765
vt 0.0805664062 0.926906765
vt 0.0805664062 0.960805058
vt 0.0961914062 0.960805058
vt 0.0961914062 0.926906765
vt 0.254394531 0.926906765
vt 0.254394531 0.960805058
vt 0.270019531 0.960805058
vt 0.270019531 0.926906765
vt 0.555175781 0.926906765
vt 0.555175781 0.960805058
vt 0.570800781 0.960805058
vt 0.570800781 0.926906765
vt 0.129394531 0.929025412
vt 0.129394531 0.962923706
vt 0.145019531 0.962923706
vt 0.145019531 0.929025412
vt 0.161621094 0.929025412
vt 0.161621094 0.962923706
vt 0.177246094 0.962923706
vt 0.177246094 0.929025412
vt 0.210449219 0.929025412
vt 0.210449219 0.962923706
vt 0.226074219 0.962923706
vt 0.226074219 0.929025412
vt 0.227050781 0.929025412
vt 0.227050781 0.962923706
vt 0.242675781 0.962923706
vt 0.242675781 0.929025412
vt 0.333496094 0.929025412
vt 0.333496094 0.962923706
vt 0.349121094 0.962923706
vt 0.349121094 0.929025412
vt 0.522949219 0.929025412
vt 0.522949219 0.962923706
vt 0.538574219 0.962923706
vt 0.538574219 0.929025412
vt 0.618652344 0.929025412
vt 0.618652344 0.962923706
vt 0.634277344 0.962923706
vt 0.634277344 0.929025412
vt 0.635253906 0.929025412
vt 0.635253906 0.962923706
vt 0.650878906 0.962923706
vt 0.650878906 0.929025412
vt 0.698730469 0.929025412
vt 0.698730469 0.962923706
vt 0.714355469 0.962923706
vt 0.714355469 0.929025412
vt 0.715332031 0.929025412
vt 0.715332031 0.962923706
vt 0.730957031 0.962923706
vt 0.730957031 0.929025412
vt 0.731933594 0.929025412
vt 0.731933594 0.962923706
vt 0.747558594 0.962923706
vt 0.747558594 0.929025412
vt 0.748535156 0.929025412
vt 0.748535156 0.962923706
vt 0.764160156 0.962923706
vt 0.764160156 0.929025412
vt 0.911621094 0.929025412
vt 0.911621094 0.962923706
vt 0.927246094 0.962923706
vt 0.927246094 0.929025412
vt 0.0327148438 0.931144059
vt 0.0327148438 0.965042353
vt 0.0483398438 0.965042353
vt 0.0483398438 0.931144059
vt 0.0493164062 0.931144059
vt 0.0493164062 0.965042353
vt 0.0649414062 0.965042353
vt 0.0649414062 0.931144059
vt 0.492675781 0.931144059
vt 0.492675781 0.965042353
vt 0.508300781 0.965042353
vt 0.508300781 0.931144059
vt 0.769042969 0.945974588
vt 0.769042969 0.979872882
vt 0.784667969 0.979872882
vt 0.784667969 0.945974588
vt 0.112792969 0.960805058
vt 0.112792969 0.994703412
vt 0.128417969 0.994703412
vt 0.128417969 0.960805058
vt 0.193847656 0.960805058
vt 0.193847656 0.994703412
vt 0.209472656 0.994703412
vt 0.209472656 0.960805058
vt 0.286621094 0.960805058
vt 0.286621094 0.994703412
vt 0.302246094 0.994703412
vt 0.302246094 0.960805058
vt 0.303222656 0.960805058
vt 0.303222656 0.994703412
vt 0.318847656 0.994703412
vt 0.318847656 0.960805058
vt 0.587402344 0.960805058
vt 0.587402344 0.994703412
vt 0.603027344 0.994703412
vt 0.603027344 0.960805058
vt 0.832519531 0.960805058
vt 0.832519531 0.994703412
vt 0.848144531 0.994703412
vt 0.848144531 0.960805058
vt 0.00048828125 0.962923706
vt 0.00048828125 0.996822059
vt 0.0161132812 0.996822059
vt 0.0161132812 0.962923706
vt 0.0805664062 0.962923706
vt 0.0805664062 0.973516941
vt 0.0961914062 0.973516941
vt 0.0961914062 0.962923706
vt 0.254394531 0.962923706
vt 0.254394531 0.996822059
vt 0.270019531 0.996822059
vt 0.270019531 0.962923706
vt 0.365722656 0.962923706
vt 0.365722656 0.996822059
vt 0.381347656 0.996822059
vt 0.381347656 0.962923706
vt 0.555175781 0.962923706
vt 0.555175781 0.996822059
vt 0.570800781 0.996822059
vt 0.570800781 0.962923706
vt 0.129394531 0.965042353
vt 0.129394531 0.998940706
vt 0.145019531 0.998940706
vt 0.145019531 0.965042353
vt 0.161621094 0.965042353
vt 0.161621094 0.998940706
vt 0.177246094 0.998940706
vt 0.177246094 0.965042353
vt 0.210449219 0.965042353
vt 0.210449219 0.998940706
vt 0.226074219 0.998940706
vt 0.226074219 0.965042353
vt 0.227050781 0.965042353
vt 0.227050781 0.998940706
vt 0.242675781 0.998940706
vt 0.242675781 0.965042353
vt 0.333496094 0.965042353
vt 0.333496094 0.998940706
vt 0.349121094 0.998940706
vt 0.349121094 0.965042353
vt 0.522949219 0.965042353
vt 0.522949219 0.998940706
vt 0.538574219 0.998940706
vt 0.538574219 0.965042353
vt 0.618652344 0.965042353
vt 0.618652344 0.998940706
vt 0.634277344 0.998940706
vt 0.634277344 0.965042353
vt 0.635253906 0.965042353
vt 0.635253906 0.998940706
vt 0.650878906 0.998940706
vt 0.650878906 0.965042353
vt 0.666503906 0.965042353
vt 0.666503906 0.998940706
vt 0.682128906 0.998940706
vt 0.682128906 0.965042353
vt 0.698730469 0.965042353
vt 0.698730469 0.998940706
vt 0.714355469 0.998940706
vt 0.714355469 0.965042353
vt 0.715332031 0.965042353
vt 0.715332031 0.998940706
vt 0.730957031 0.998940706
vt 0.730957031 0.965042353
vt 0.731933594 0.965042353
vt 0.731933594 0.998940706
vt 0.747558594 0.998940706
vt 0.747558594 0.965042353
vt 0.748535156 0.965042353
vt 0.748535156 0.998940706
vt 0.764160156 0.998940706
vt 0.764160156 0.965042353
g aierbin_3_rw-mesh_0
f 3/3/3 2/2/2 1/1/1
f 1/1/1 4/4/4 3/3/3
f 7/7/7 6/6/6 5/5/5
f 5/5/5 8/8/8 7/7/7
f 11/11/11 10/10/10 9/9/9
f 9/9/9 12/12/12 11/11/11
f 15/15/15 14/14/14 13/13/13
f 13/13/13 16/16/16 15/15/15
f 19/19/19 18/18/18 17/17/17
f 17/17/17 20/20/20 19/19/19
f 23/23/23 22/22/22 21/21/21
f 21/21/21 24/24/24 23/23/23
f 27/27/27 26/26/26 25/25/25
f 25/25/25 28/28/28 27/27/27
f 31/31/31 30/30/30 29/29/29
f 29/29/29 32/32/32 31/31/31
f 35/35/35 34/34/34 33/33/33
f 33/33/33 36/36/36 35/35/35
f 39/39/39 38/38/38 37/37/37
f 37/37/37 40/40/40 39/39/39
f 43/43/43 42/42/42 41/41/41
f 41/41/41 44/44/44 43/43/43
f 47/47/47 46/46/46 45/45/45
f 45/45/45 48/48/48 47/47/47
f 51/51/51 50/50/50 49/49/49
f 49/49/49 52/52/52 51/51/51
f 55/55/55 54/54/54 53/53/53
f 53/53/53 56/56/56 55/55/55
f 59/59/59 58/58/58 57/57/57
f 57/57/57 60/60/60 59/59/59
f 63/63/63 62/62/62 61/61/61
f 61/61/61 64/64/64 63/63/63
f 67/67/67 66/66/66 65/65/65
f 65/65/65 68/68/68 67/67/67
f 71/71/71 70/70/70 69/69/69
f 69/69/69 72/72/72 71/71/71
f 75/75/75 74/74/74 73/73/73
f 73/73/73 76/76/76 75/75/75
f 79/79/79 78/78/78 77/77/77
f 77/77/77 80/80/80 79/79/79
f 83/83/83 82/82/82 81/81/81
f 81/81/81 84/84/84 83/83/83
f 87/87/87 86/86/86 85/85/85
f 85/85/85 88/88/88 87/87/87
f 91/91/91 90/90/90 89/89/89
f 89/89/89 92/92/92 91/91/91
f 95/95/95 94/94/94 93/93/93
f 93/93/93 96/96/96 95/95/95
f 99/99/99 98/98/98 97/97/97
f 97/97/97 100/100/100 99/99/99
f 103/103/103 102/102/102 101/101/101
f 101/101/101 104/104/104 103/103/103
f 107/107/107 106/106/106 105/105/105
f 105/105/105 108/108/108 107/107/107
f 111/111/111 110/110/110 109/109/109
f 109/109/109 112/112/112 111/111/111
f 115/115/115 114/114/114 113/113/113
f 113/113/113 116/116/116 115/115/115
f 119/119/119 118/118/118 117/117/117
f 117/117/117 120/120/120 119/119/119
f 123/123/123 122/122/122 121/121/121
f 121/121/121 124/124/124 123/123/123
f 127/127/127 126/126/126 125/125/125
f 125/125/125 128/128/128 127/127/127
f 131/131/131 130/130/130 129/129/129
f 129/129/129 132/132/132 131/131/131
f 135/135/135 134/134/134 133/133/133
f 133/133/133 136/136/136 135/135/135
f 139/139/139 138/138/138 137/137/137
f 137/137/137 140/140/140 139/139/139
f 143/143/143 142/142/142 141/141/141
f 141/141/141 144/144/144 143/143/143
f 147/147/147 146/146/146 145/145/145
f 145/145/145 148/148/148 147/147/147
f 151/151/151 150/150/150 149/149/149
f 149/149/149 152/152/152 151/151/151
f 155/155/155 154/154/154 153/153/153
f 153/153/153 156/156/156 155/155/155
f 159/159/159 158/158/158 157/157/157
f 157/157/157 160/160/160 159/159/159
f 163/163/163 162/162/162 161/161/161
f 161/161/161 164/164/164 163/163/163
f 167/167/167 166/166/166 165/165/165
f 165/165/165 168/168/168 167/167/167
f 171/171/171 170/170/170 169/169/169
f 169/169/169 172/172/172 171/171/171
f 175/175/175 174/174/174 173/173/173
f 173/173/173 176/176/176 175/175/175
f 179/179/179 178/178/178 177/177/177
f 177/177/177 180/180/180 179/179/179
f 183/183/183 182/182/182 181/181/181
f 181/181/181 184/184/184 183/183/183
f 187/187/187 186/186/186 185/185/185
f 185/185/185 188/188/188 187/187/187
f 191/191/191 190/190/190 189/189/189
f 189/189/189 192/192/192 191/191/191
f 195/195/195 194/194/194 193/193/193
f 193/193/193 196/196/196 195/195/195
f 199/199/199 198/198/198 197/197/197
f 197/197/197 200/200/200 199/199/199
f 203/203/203 202/202/202 201/201/201
f 201/201/201 204/204/204 203/203/203
f 207/207/207 206/206/206 205/205/205
f 205/205/205 208/208/208 207/207/207
f 211/211/211 210/210/210 209/209/209
f 209/209/209 212/212/212 211/211/211
f 215/215/215 214/214/214 213/213/213
f 213/213/213 216/216/216 215/215/215
f 219/219/219 218/218/218 217/217/217
f 217/217/217 220/220/220 219/219/219
f 223/223/223 222/222/222 221/221/221
f 221/221/221 224/224/224 223/223/223
f 227/227/227 226/226/226 225/225/225
f 225/225/225 228/228/228 227/227/227
f 231/231/231 230/230/230 229/229/229
f 229/229/229 232/232/232 231/231/231
f 235/235/235 234/234/234 233/233/233
f 233/233/233 236/236/236 235/235/235
f 239/239/239 238/238/238 237/237/237
f 237/237/237 240/240/240 239/239/239
f 243/243/243 242/242/242 241/241/241
f 241/241/241 244/244/244 243/243/243
f 247/247/247 246/246/246 245/245/245
f 245/245/245 248/248/248 247/247/247
f 251/251/251 250/250/250 249/249/249
f 249/249/249 252/252/252 251/251/251
f 255/255/255 254/254/254 253/253/253
f 253/253/253 256/256/256 255/255/255
f 259/259/259 258/258/258 257/257/257
f 257/257/257 260/260/260 259/259/259
f 263/263/263 262/262/262 261/261/261
f 261/261/261 264/264/264 263/263/263
f 267/267/267 266/266/266 265/265/265
f 265/265/265 268/268/268 267/267/267
f 271/271/271 270/270/270 269/269/269
f 269/269/269 272/272/272 271/271/271
f 275/275/275 274/274/274 273/273/273
f 273/273/273 276/276/276 275/275/275
f 279/279/279 278/278/278 277/277/277
f 277/277/277 280/280/280 279/279/279
f 283/283/283 282/282/282 281/281/281
f 281/281/281 284/284/284 283/283/283
f 287/287/287 286/286/286 285/285/285
f 285/285/285 288/288/288 287/287/287
f 291/291/291 290/290/290 289/289/289
f 289/289/289 292/292/292 291/291/291
f 295/295/295 294/294/294 293/293/293
f 293/293/293 296/296/296 295/295/295
f 299/299/299 298/298/298 297/297/297
f 297/297/297 300/300/300 299/299/299
f 303/303/303 302/302/302 301/301/301
f 301/301/301 304/304/304 303/303/303
f 307/307/307 306/306/306 305/305/305
f 305/305/305 308/308/308 307/307/307
f 311/311/311 310/310/310 309/309/309
f 309/309/309 312/312/312 311/311/311
f 315/315/315 314/314/314 313/313/313
f 313/313/313 316/316/316 315/315/315
f 319/319/319 318/318/318 317/317/317
f 317/317/317 320/320/320 319/319/319
f 323/323/323 322/322/322 321/321/321
f 321/321/321 324/324/324 323/323/323
f 327/327/327 326/326/326 325/325/325
f 325/325/325 328/328/328 327/327/327
f 331/331/331 330/330/330 329/329/329
f 329/329/329 332/332/332 331/331/331
f 335/335/335 334/334/334 333/333/333
f 333/333/333 336/336/336 335/335/335
f 339/339/339 338/338/338 337/337/337
f 337/337/337 340/340/340 339/339/339
f 343/343/343 342/342/342 341/341/341
f 341/341/341 344/344/344 343/343/343
f 347/347/347 346/346/346 345/345/345
f 345/345/345 348/348/348 347/347/347
f 351/351/351 350/350/350 349/349/349
f 349/349/349 352/352/352 351/351/351
f 355/355/355 354/354/354 353/353/353
f 353/353/353 356/356/356 355/355/355
f 359/359/359 358/358/358 357/357/357
f 357/357/357 360/360/360 359/359/359
f 363/363/363 362/362/362 361/361/361
f 361/361/361 364/364/364 363/363/363
f 367/367/367 366/366/366 365/365/365
f 365/365/365 368/368/368 367/367/367
f 371/371/371 370/370/370 369/369/369
f 369/369/369 372/372/372 371/371/371
f 375/375/375 374/374/374 373/373/373
f 373/373/373 376/376/376 375/375/375
f 379/379/379 378/378/378 377/377/377
f 377/377/377 380/380/380 379/379/379
f 383/383/383 382/382/382 381/381/381
f 381/381/381 384/384/384 383/383/383
f 387/387/387 386/386/386 385/385/385
f 385/385/385 388/388/388 387/387/387
f 391/391/391 390/390/390 389/389/389
f 389/389/389 392/392/392 391/391/391
f 395/395/395 394/394/394 393/393/393
f 393/393/393 396/396/396 395/395/395
f 399/399/399 398/398/398 397/397/397
f 397/397/397 400/400/400 399/399/399
f 403/403/403 402/402/402 401/401/401
f 401/401/401 404/404/404 403/403/403
f 407/407/407 406/406/406 405/405/405
f 405/405/405 408/408/408 407/407/407
f 411/411/411 410/410/410 409/409/409
f 409/409/409 412/412/412 411/411/411
f 415/415/415 414/414/414 413/413/413
f 413/413/413 416/416/416 415/415/415
f 419/419/419 418/418/418 417/417/417
f 417/417/417 420/420/420 419/419/419
f 423/423/423 422/422/422 421/421/421
f 421/421/421 424/424/424 423/423/423
f 427/427/427 426/426/426 425/425/425
f 425/425/425 428/428/428 427/427/427
f 431/431/431 430/430/430 429/429/429
f 429/429/429 432/432/432 431/431/431
f 435/435/435 434/434/434 433/433/433
f 433/433/433 436/436/436 435/435/435
f 439/439/439 438/438/438 437/437/437
f 437/437/437 440/440/440 439/439/439
f 443/443/443 442/442/442 441/441/441
f 441/441/441 444/444/444 443/443/443
f 447/447/447 446/446/446 445/445/445
f 445/445/445 448/448/448 447/447/447
f 451/451/451 450/450/450 449/449/449
f 449/449/449 452/452/452 451/451/451
f 455/455/455 454/454/454 453/453/453
f 453/453/453 456/456/456 455/455/455
f 459/459/459 458/458/458 457/457/457
f 457/457/457 460/460/460 459/459/459
f 463/463/463 462/462/462 461/461/461
f 461/461/461 464/464/464 463/463/463
f 467/467/467 466/466/466 465/465/465
f 465/465/465 468/468/468 467/467/467
f 471/471/471 470/470/470 469/469/469
f 469/469/469 472/472/472 471/471/471
f 475/475/475 474/474/474 473/473/473
f 473/473/473 476/476/476 475/475/475
f 479/479/479 478/478/478 477/477/477
f 477/477/477 480/480/480 479/479/479
f 483/483/483 482/482/482 481/481/481
f 481/481/481 484/484/484 483/483/483
f 487/487/487 486/486/486 485/485/485
f 485/485/485 488/488/488 487/487/487
f 491/491/491 490/490/490 489/489/489
f 489/489/489 492/492/492 491/491/491
f 495/495/495 494/494/494 493/493/493
f 493/493/493 496/496/496 495/495/495
f 499/499/499 498/498/498 497/497/497
f 497/497/497 500/500/500 499/499/499
f 503/503/503 502/502/502 501/501/501
f 501/501/501 504/504/504 503/503/503
f 507/507/507 506/506/506 505/505/505
f 505/505/505 508/508/508 507/507/507
f 511/511/511 510/510/510 509/509/509
f 509/509/509 512/512/512 511/511/511
f 515/515/515 514/514/514 513/513/513
f 513/513/513 516/516/516 515/515/515
f 519/519/519 518/518/518 517/517/517
f 517/517/517 520/520/520 519/519/519
f 523/523/523 522/522/522 521/521/521
f 521/521/521 524/524/524 523/523/523
f 527/527/527 526/526/526 525/525/525
f 525/525/525 528/528/528 527/527/527
f 531/531/531 530/530/530 529/529/529
f 529/529/529 532/532/532 531/531/531
f 535/535/535 534/534/534 533/533/533
f 533/533/533 536/536/536 535/535/535
f 539/539/539 538/538/538 537/537/537
f 537/537/537 540/540/540 539/539/539
f 543/543/543 542/542/542 541/541/541
f 541/541/541 544/544/544 543/543/543
f 547/547/547 546/546/546 545/545/545
f 545/545/545 548/548/548 547/547/547
f 551/551/551 550/550/550 549/549/549
f 549/549/549 552/552/552 551/551/551
f 555/555/555 554/554/554 553/553/553
f 553/553/553 556/556/556 555/555/555
f 559/559/559 558/558/558 557/557/557
f 557/557/557 560/560/560 559/559/559
f 563/563/563 562/562/562 561/561/561
f 561/561/561 564/564/564 563/563/563
f 567/567/567 566/566/566 565/565/565
f 565/565/565 568/568/568 567/567/567
f 571/571/571 570/570/570 569/569/569
f 569/569/569 572/572/572 571/571/571
f 575/575/575 574/574/574 573/573/573
f 573/573/573 576/576/576 575/575/575
f 579/579/579 578/578/578 577/577/577
f 577/577/577 580/580/580 579/579/579
f 583/583/583 582/582/582 581/581/581
f 581/581/581 584/584/584 583/583/583
f 587/587/587 586/586/586 585/585/585
f 585/585/585 588/588/588 587/587/587
f 591/591/591 590/590/590 589/589/589
f 589/589/589 592/592/592 591/591/591
f 595/595/595 594/594/594 593/593/593
f 593/593/593 596/596/596 595/595/595
f 599/599/599 598/598/598 597/597/597
f 597/597/597 600/600/600 599/599/599
f 603/603/603 602/602/602 601/601/601
f 601/601/601 604/604/604 603/603/603
f 607/607/607 606/606/606 605/605/605
f 605/605/605 608/608/608 607/607/607
f 611/611/611 610/610/610 609/609/609
f 609/609/609 612/612/612 611/611/611
f 615/615/615 614/614/614 613/613/613
f 613/613/613 616/616/616 615/615/615
f 619/619/619 618/618/618 617/617/617
f 617/617/617 620/620/620 619/619/619
f 623/623/623 622/622/622 621/621/621
f 621/621/621 624/624/624 623/623/623
f 627/627/627 626/626/626 625/625/625
f 625/625/625 628/628/628 627/627/627
f 631/631/631 630/630/630 629/629/629
f 629/629/629 632/632/632 631/631/631
f 635/635/635 634/634/634 633/633/633
f 633/633/633 636/636/636 635/635/635
f 639/639/639 638/638/638 637/637/637
f 637/637/637 640/640/640 639/639/639
f 643/643/643 642/642/642 641/641/641
f 641/641/641 644/644/644 643/643/643
f 647/647/647 646/646/646 645/645/645
f 645/645/645 648/648/648 647/647/647
f 651/651/651 650/650/650 649/649/649
f 649/649/649 652/652/652 651/651/651
f 655/655/655 654/654/654 653/653/653
f 653/653/653 656/656/656 655/655/655
f 659/659/659 658/658/658 657/657/657
f 657/657/657 660/660/660 659/659/659
f 663/663/663 662/662/662 661/661/661
f 661/661/661 664/664/664 663/663/663
f 667/667/667 666/666/666 665/665/665
f 665/665/665 668/668/668 667/667/667
f 671/671/671 670/670/670 669/669/669
f 669/669/669 672/672/672 671/671/671
f 675/675/675 674/674/674 673/673/673
f 673/673/673 676/676/676 675/675/675
f 679/679/679 678/678/678 677/677/677
f 677/677/677 680/680/680 679/679/679
f 683/683/683 682/682/682 681/681/681
f 681/681/681 684/684/684 683/683/683
f 687/687/687 686/686/686 685/685/685
f 685/685/685 688/688/688 687/687/687
f 691/691/691 690/690/690 689/689/689
f 689/689/689 692/692/692 691/691/691
f 695/695/695 694/694/694 693/693/693
f 693/693/693 696/696/696 695/695/695
f 699/699/699 698/698/698 697/697/697
f 697/697/697 700/700/700 699/699/699
f 703/703/703 702/702/702 701/701/701
f 701/701/701 704/704/704 703/703/703
f 707/707/707 706/706/706 705/705/705
f 705/705/705 708/708/708 707/707/707
