g kaisa_3-mesh
v -288 175 0
v -288 1327 0
v -992 1327 0
v -992 175 0
v -992 175 0
v -992 1327 0
v -1664 1327 0
v -1664 175 0
v -672 1327 0
v -672 1679 0
v -928 1679 0
v -928 1327 0
v -1088 79 0
v -1088 175 0
v -1760 175 0
v -1760 79 0
v -416 79 0
v -416 175 0
v -1088 175 0
v -1088 79 0
v -160 175 0
v -160 527 0
v -288 527 0
v -288 175 0
v -160 527 0
v -160 879 0
v -288 879 0
v -288 527 0
v -1664 175 0
v -1664 495 0
v -1792 495 0
v -1792 175 0
v -1664 495 0
v -1664 815 0
v -1792 815 0
v -1792 495 0
v -1792 335 0
v -1792 463 0
v -2047 463 0
v -2047 335 0
v -0 527 0
v -0 655 0
v -160 655 0
v -160 527 0
v -928 1327 0
v -928 1391 0
v -1248 1391 0
v -1248 1327 0
v -1248 1327 0
v -1248 1391 0
v -1536 1391 0
v -1536 1327 0
v -128 1039 0
v -128 1135 0
v -288 1135 0
v -288 1039 0
v -1280 15 0
v -1280 79 0
v -1504 79 0
v -1504 15 0
v -1504 15 0
v -1504 79 0
v -1728 79 0
v -1728 15 0
v -224 879 0
v -224 1007 0
v -288 1007 0
v -288 879 0
v -480 15 0
v -480 79 0
v -608 79 0
v -608 15 0
v -608 1519 0
v -608 1647 0
v -672 1647 0
v -672 1519 0
v -416 1327 0
v -416 1391 0
v -544 1391 0
v -544 1327 0
v -544 1327 0
v -544 1391 0
v -672 1391 0
v -672 1327 0
v -928 1583 0
v -928 1679 0
v -992 1679 0
v -992 1583 0
v -1792 463 0
v -1792 559 0
v -1856 559 0
v -1856 463 0
v -608 15 0
v -608 79 0
v -704 79 0
v -704 15 0
v -608 1423 0
v -608 1519 0
v -672 1519 0
v -672 1423 0
v -160 975 0
v -160 1039 0
v -224 1039 0
v -224 975 0
v -928 1391 0
v -928 1455 0
v -992 1455 0
v -992 1391 0
v -64 463 0
v -64 527 0
v -128 527 0
v -128 463 0
v -736 1679 0
v -736 1711 0
v -864 1711 0
v -864 1679 0
v -864 1679 0
v -864 1711 0
v -992 1711 0
v -992 1679 0
v -1056 47 0
v -1056 79 0
v -1184 79 0
v -1184 47 0
v -128 399 0
v -128 527 0
v -160 527 0
v -160 399 0
v -1536 0 0
v -1536 15 0
v -1632 15 0
v -1632 0 0
v -1088 1391 0
v -1088 1423 0
v -1184 1423 0
v -1184 1391 0
v -1344 1391 0
v -1344 1423 0
v -1440 1423 0
v -1440 1391 0
v -1184 47 0
v -1184 79 0
v -1280 79 0
v -1280 47 0
v -128 303 0
v -128 399 0
v -160 399 0
v -160 303 0
v -1440 1391 0
v -1440 1423 0
v -1536 1423 0
v -1536 1391 0
v -256 1135 0
v -256 1231 0
v -288 1231 0
v -288 1135 0
v -256 1231 0
v -256 1327 0
v -288 1327 0
v -288 1231 0
v -1664 847 0
v -1664 911 0
v -1696 911 0
v -1696 847 0
v -1856 463 0
v -1856 495 0
v -1920 495 0
v -1920 463 0
v -928 1519 0
v -928 1583 0
v -960 1583 0
v -960 1519 0
v -544 1487 0
v -544 1551 0
v -576 1551 0
v -576 1487 0
v -32 335 0
v -32 399 0
v -64 399 0
v -64 335 0
v -352 143 0
v -352 175 0
v -416 175 0
v -416 143 0
v -96 1071 0
v -96 1135 0
v -128 1135 0
v -128 1071 0
v -1696 1199 0
v -1696 1263 0
v -1728 1263 0
v -1728 1199 0
v -512 0 0
v -512 15 0
v -576 15 0
v -576 0 0
v -768 47 0
v -768 79 0
v -832 79 0
v -832 47 0
v -576 1455 0
v -576 1519 0
v -608 1519 0
v -608 1455 0
v -1664 1263 0
v -1664 1327 0
v -1696 1327 0
v -1696 1263 0
v -576 1519 0
v -576 1583 0
v -608 1583 0
v -608 1519 0
v -1184 1391 0
v -1184 1423 0
v -1248 1423 0
v -1248 1391 0
v -1632 0 0
v -1632 15 0
v -1696 15 0
v -1696 0 0
v -1664 1199 0
v -1664 1263 0
v -1696 1263 0
v -1696 1199 0
v -1856 303 0
v -1856 335 0
v -1920 335 0
v -1920 303 0
v -704 47 0
v -704 79 0
v -768 79 0
v -768 47 0
v -1792 303 0
v -1792 335 0
v -1856 335 0
v -1856 303 0
v -96 431 0
v -96 463 0
v -128 463 0
v -128 431 0
v -32 495 0
v -32 527 0
v -64 527 0
v -64 495 0
v -1856 495 0
v -1856 527 0
v -1888 527 0
v -1888 495 0
v -448 47 0
v -448 79 0
v -480 79 0
v -480 47 0
v -384 111 0
v -384 143 0
v -416 143 0
v -416 111 0
v -1792 271 0
v -1792 303 0
v -1824 303 0
v -1824 271 0
v -992 1391 0
v -992 1423 0
v -1024 1423 0
v -1024 1391 0
v -1664 815 0
v -1664 847 0
v -1696 847 0
v -1696 815 0
v -1920 463 0
v -1920 495 0
v -1952 495 0
v -1952 463 0
v -192 879 0
v -192 911 0
v -224 911 0
v -224 879 0
v -192 943 0
v -192 975 0
v -224 975 0
v -224 943 0
v -224 1007 0
v -224 1039 0
v -256 1039 0
v -256 1007 0
vt 0.00048828125 0.00079870224
vt 0.00048828125 0.920926511
vt 0.344238281 0.920926511
vt 0.344238281 0.00079870224
vt 0.345214844 0.00079870224
vt 0.345214844 0.920926511
vt 0.673339844 0.920926511
vt 0.673339844 0.00079870224
vt 0.674316406 0.00079870224
vt 0.674316406 0.281948864
vt 0.799316406 0.281948864
vt 0.799316406 0.00079870224
vt 0.00048828125 0.922523975
vt 0.00048828125 0.999201298
vt 0.328613281 0.999201298
vt 0.328613281 0.922523975
vt 0.329589844 0.922523975
vt 0.329589844 0.999201298
vt 0.657714844 0.999201298
vt 0.657714844 0.922523975
vt 0.800292969 0.00079870224
vt 0.800292969 0.281948864
vt 0.862792969 0.281948864
vt 0.862792969 0.00079870224
vt 0.863769531 0.00079870224
vt 0.863769531 0.281948864
vt 0.926269531 0.281948864
vt 0.926269531 0.00079870224
vt 0.927246094 0.00079870224
vt 0.927246094 0.256389797
vt 0.989746094 0.256389797
vt 0.989746094 0.00079870224
vt 0.927246094 0.257987201
vt 0.927246094 0.513578296
vt 0.989746094 0.513578296
vt 0.989746094 0.257987201
vt 0.674316406 0.283546329
vt 0.674316406 0.385782719
vt 0.799316406 0.385782719
vt 0.799316406 0.283546329
vt 0.800292969 0.283546329
vt 0.800292969 0.385782719
vt 0.878417969 0.385782719
vt 0.878417969 0.283546329
vt 0.674316406 0.387380183
vt 0.674316406 0.438498378
vt 0.830566406 0.438498378
vt 0.830566406 0.387380183
vt 0.674316406 0.440095842
vt 0.674316406 0.491214037
vt 0.814941406 0.491214037
vt 0.814941406 0.440095842
vt 0.831542969 0.387380183
vt 0.831542969 0.464057505
vt 0.909667969 0.464057505
vt 0.909667969 0.387380183
vt 0.674316406 0.492811501
vt 0.674316406 0.543929696
vt 0.783691406 0.543929696
vt 0.783691406 0.492811501
vt 0.784667969 0.492811501
vt 0.784667969 0.543929696
vt 0.894042969 0.543929696
vt 0.894042969 0.492811501
vt 0.895019531 0.465654969
vt 0.895019531 0.567891359
vt 0.926269531 0.567891359
vt 0.926269531 0.465654969
vt 0.927246094 0.5151757
vt 0.927246094 0.566293955
vt 0.989746094 0.566293955
vt 0.989746094 0.5151757
vt 0.674316406 0.54552716
vt 0.674316406 0.64776361
vt 0.705566406 0.64776361
vt 0.705566406 0.54552716
vt 0.706542969 0.54552716
vt 0.706542969 0.596645355
vt 0.769042969 0.596645355
vt 0.769042969 0.54552716
vt 0.770019531 0.54552716
vt 0.770019531 0.596645355
vt 0.832519531 0.596645355
vt 0.832519531 0.54552716
vt 0.833496094 0.54552716
vt 0.833496094 0.622204483
vt 0.864746094 0.622204483
vt 0.864746094 0.54552716
vt 0.927246094 0.567891359
vt 0.927246094 0.644568682
vt 0.958496094 0.644568682
vt 0.958496094 0.567891359
vt 0.706542969 0.598242819
vt 0.706542969 0.649361014
vt 0.753417969 0.649361014
vt 0.753417969 0.598242819
vt 0.959472656 0.567891359
vt 0.959472656 0.644568682
vt 0.990722656 0.644568682
vt 0.990722656 0.567891359
vt 0.895019531 0.569488823
vt 0.895019531 0.620607018
vt 0.926269531 0.620607018
vt 0.926269531 0.569488823
vt 0.754394531 0.598242819
vt 0.754394531 0.649361014
vt 0.785644531 0.649361014
vt 0.785644531 0.598242819
vt 0.786621094 0.598242819
vt 0.786621094 0.649361014
vt 0.817871094 0.649361014
vt 0.817871094 0.598242819
vt 0.833496094 0.623801947
vt 0.833496094 0.649361014
vt 0.895996094 0.649361014
vt 0.895996094 0.623801947
vt 0.927246094 0.646166146
vt 0.927246094 0.671725273
vt 0.989746094 0.671725273
vt 0.989746094 0.646166146
vt 0.706542969 0.650958478
vt 0.706542969 0.676517606
vt 0.769042969 0.676517606
vt 0.769042969 0.650958478
vt 0.896972656 0.622204483
vt 0.896972656 0.724440932
vt 0.912597656 0.724440932
vt 0.912597656 0.622204483
vt 0.770019531 0.650958478
vt 0.770019531 0.663738012
vt 0.816894531 0.663738012
vt 0.816894531 0.650958478
vt 0.817871094 0.650958478
vt 0.817871094 0.676517606
vt 0.864746094 0.676517606
vt 0.864746094 0.650958478
vt 0.770019531 0.665335476
vt 0.770019531 0.690894604
vt 0.816894531 0.690894604
vt 0.816894531 0.665335476
vt 0.927246094 0.673322678
vt 0.927246094 0.698881745
vt 0.974121094 0.698881745
vt 0.974121094 0.673322678
vt 0.674316406 0.649361014
vt 0.674316406 0.726038337
vt 0.689941406 0.726038337
vt 0.689941406 0.649361014
vt 0.706542969 0.67811501
vt 0.706542969 0.703674078
vt 0.753417969 0.703674078
vt 0.753417969 0.67811501
vt 0.865722656 0.650958478
vt 0.865722656 0.727635741
vt 0.881347656 0.727635741
vt 0.881347656 0.650958478
vt 0.975097656 0.673322678
vt 0.975097656 0.75
vt 0.990722656 0.75
vt 0.990722656 0.673322678
vt 0.817871094 0.67811501
vt 0.817871094 0.729233265
vt 0.833496094 0.729233265
vt 0.833496094 0.67811501
vt 0.770019531 0.692492008
vt 0.770019531 0.718051076
vt 0.801269531 0.718051076
vt 0.801269531 0.692492008
vt 0.834472656 0.67811501
vt 0.834472656 0.729233265
vt 0.850097656 0.729233265
vt 0.850097656 0.67811501
vt 0.927246094 0.700479269
vt 0.927246094 0.751597464
vt 0.942871094 0.751597464
vt 0.942871094 0.700479269
vt 0.943847656 0.700479269
vt 0.943847656 0.751597464
vt 0.959472656 0.751597464
vt 0.959472656 0.700479269
vt 0.706542969 0.705271602
vt 0.706542969 0.730830669
vt 0.737792969 0.730830669
vt 0.737792969 0.705271602
vt 0.738769531 0.705271602
vt 0.738769531 0.756389797
vt 0.754394531 0.756389797
vt 0.754394531 0.705271602
vt 0.770019531 0.7196486
vt 0.770019531 0.770766795
vt 0.785644531 0.770766795
vt 0.785644531 0.7196486
vt 0.674316406 0.727635741
vt 0.674316406 0.740415335
vt 0.705566406 0.740415335
vt 0.705566406 0.727635741
vt 0.865722656 0.729233265
vt 0.865722656 0.754792333
vt 0.896972656 0.754792333
vt 0.896972656 0.729233265
vt 0.786621094 0.7196486
vt 0.786621094 0.770766795
vt 0.802246094 0.770766795
vt 0.802246094 0.7196486
vt 0.897949219 0.726038337
vt 0.897949219 0.777156532
vt 0.913574219 0.777156532
vt 0.913574219 0.726038337
vt 0.817871094 0.730830669
vt 0.817871094 0.781948864
vt 0.833496094 0.781948864
vt 0.833496094 0.730830669
vt 0.706542969 0.732428074
vt 0.706542969 0.757987201
vt 0.737792969 0.757987201
vt 0.737792969 0.732428074
vt 0.674316406 0.742012739
vt 0.674316406 0.754792333
vt 0.705566406 0.754792333
vt 0.705566406 0.742012739
vt 0.834472656 0.730830669
vt 0.834472656 0.781948864
vt 0.850097656 0.781948864
vt 0.850097656 0.730830669
vt 0.927246094 0.753194869
vt 0.927246094 0.778753996
vt 0.958496094 0.778753996
vt 0.958496094 0.753194869
vt 0.959472656 0.753194869
vt 0.959472656 0.778753996
vt 0.990722656 0.778753996
vt 0.990722656 0.753194869
vt 0.674316406 0.756389797
vt 0.674316406 0.781948864
vt 0.705566406 0.781948864
vt 0.705566406 0.756389797
vt 0.865722656 0.756389797
vt 0.865722656 0.781948864
vt 0.881347656 0.781948864
vt 0.881347656 0.756389797
vt 0.738769531 0.757987201
vt 0.738769531 0.783546329
vt 0.754394531 0.783546329
vt 0.754394531 0.757987201
vt 0.706542969 0.759584665
vt 0.706542969 0.785143733
vt 0.722167969 0.785143733
vt 0.722167969 0.759584665
vt 0.770019531 0.772364199
vt 0.770019531 0.797923326
vt 0.785644531 0.797923326
vt 0.785644531 0.772364199
vt 0.786621094 0.772364199
vt 0.786621094 0.797923326
vt 0.802246094 0.797923326
vt 0.802246094 0.772364199
vt 0.897949219 0.778753996
vt 0.897949219 0.804313064
vt 0.913574219 0.804313064
vt 0.913574219 0.778753996
vt 0.927246094 0.78035146
vt 0.927246094 0.805910528
vt 0.942871094 0.805910528
vt 0.942871094 0.78035146
vt 0.943847656 0.78035146
vt 0.943847656 0.805910528
vt 0.959472656 0.805910528
vt 0.959472656 0.78035146
vt 0.960449219 0.78035146
vt 0.960449219 0.805910528
vt 0.976074219 0.805910528
vt 0.976074219 0.78035146
vt 0.977050781 0.78035146
vt 0.977050781 0.805910528
vt 0.992675781 0.805910528
vt 0.992675781 0.78035146
vt 0.674316406 0.783546329
vt 0.674316406 0.809105396
vt 0.689941406 0.809105396
vt 0.689941406 0.783546329
vt 0.817871094 0.783546329
vt 0.817871094 0.809105396
vt 0.833496094 0.809105396
vt 0.833496094 0.783546329
g kaisa_3-mesh_0
f 3/3/3 2/2/2 1/1/1
f 1/1/1 4/4/4 3/3/3
f 7/7/7 6/6/6 5/5/5
f 5/5/5 8/8/8 7/7/7
f 11/11/11 10/10/10 9/9/9
f 9/9/9 12/12/12 11/11/11
f 15/15/15 14/14/14 13/13/13
f 13/13/13 16/16/16 15/15/15
f 19/19/19 18/18/18 17/17/17
f 17/17/17 20/20/20 19/19/19
f 23/23/23 22/22/22 21/21/21
f 21/21/21 24/24/24 23/23/23
f 27/27/27 26/26/26 25/25/25
f 25/25/25 28/28/28 27/27/27
f 31/31/31 30/30/30 29/29/29
f 29/29/29 32/32/32 31/31/31
f 35/35/35 34/34/34 33/33/33
f 33/33/33 36/36/36 35/35/35
f 39/39/39 38/38/38 37/37/37
f 37/37/37 40/40/40 39/39/39
f 43/43/43 42/42/42 41/41/41
f 41/41/41 44/44/44 43/43/43
f 47/47/47 46/46/46 45/45/45
f 45/45/45 48/48/48 47/47/47
f 51/51/51 50/50/50 49/49/49
f 49/49/49 52/52/52 51/51/51
f 55/55/55 54/54/54 53/53/53
f 53/53/53 56/56/56 55/55/55
f 59/59/59 58/58/58 57/57/57
f 57/57/57 60/60/60 59/59/59
f 63/63/63 62/62/62 61/61/61
f 61/61/61 64/64/64 63/63/63
f 67/67/67 66/66/66 65/65/65
f 65/65/65 68/68/68 67/67/67
f 71/71/71 70/70/70 69/69/69
f 69/69/69 72/72/72 71/71/71
f 75/75/75 74/74/74 73/73/73
f 73/73/73 76/76/76 75/75/75
f 79/79/79 78/78/78 77/77/77
f 77/77/77 80/80/80 79/79/79
f 83/83/83 82/82/82 81/81/81
f 81/81/81 84/84/84 83/83/83
f 87/87/87 86/86/86 85/85/85
f 85/85/85 88/88/88 87/87/87
f 91/91/91 90/90/90 89/89/89
f 89/89/89 92/92/92 91/91/91
f 95/95/95 94/94/94 93/93/93
f 93/93/93 96/96/96 95/95/95
f 99/99/99 98/98/98 97/97/97
f 97/97/97 100/100/100 99/99/99
f 103/103/103 102/102/102 101/101/101
f 101/101/101 104/104/104 103/103/103
f 107/107/107 106/106/106 105/105/105
f 105/105/105 108/108/108 107/107/107
f 111/111/111 110/110/110 109/109/109
f 109/109/109 112/112/112 111/111/111
f 115/115/115 114/114/114 113/113/113
f 113/113/113 116/116/116 115/115/115
f 119/119/119 118/118/118 117/117/117
f 117/117/117 120/120/120 119/119/119
f 123/123/123 122/122/122 121/121/121
f 121/121/121 124/124/124 123/123/123
f 127/127/127 126/126/126 125/125/125
f 125/125/125 128/128/128 127/127/127
f 131/131/131 130/130/130 129/129/129
f 129/129/129 132/132/132 131/131/131
f 135/135/135 134/134/134 133/133/133
f 133/133/133 136/136/136 135/135/135
f 139/139/139 138/138/138 137/137/137
f 137/137/137 140/140/140 139/139/139
f 143/143/143 142/142/142 141/141/141
f 141/141/141 144/144/144 143/143/143
f 147/147/147 146/146/146 145/145/145
f 145/145/145 148/148/148 147/147/147
f 151/151/151 150/150/150 149/149/149
f 149/149/149 152/152/152 151/151/151
f 155/155/155 154/154/154 153/153/153
f 153/153/153 156/156/156 155/155/155
f 159/159/159 158/158/158 157/157/157
f 157/157/157 160/160/160 159/159/159
f 163/163/163 162/162/162 161/161/161
f 161/161/161 164/164/164 163/163/163
f 167/167/167 166/166/166 165/165/165
f 165/165/165 168/168/168 167/167/167
f 171/171/171 170/170/170 169/169/169
f 169/169/169 172/172/172 171/171/171
f 175/175/175 174/174/174 173/173/173
f 173/173/173 176/176/176 175/175/175
f 179/179/179 178/178/178 177/177/177
f 177/177/177 180/180/180 179/179/179
f 183/183/183 182/182/182 181/181/181
f 181/181/181 184/184/184 183/183/183
f 187/187/187 186/186/186 185/185/185
f 185/185/185 188/188/188 187/187/187
f 191/191/191 190/190/190 189/189/189
f 189/189/189 192/192/192 191/191/191
f 195/195/195 194/194/194 193/193/193
f 193/193/193 196/196/196 195/195/195
f 199/199/199 198/198/198 197/197/197
f 197/197/197 200/200/200 199/199/199
f 203/203/203 202/202/202 201/201/201
f 201/201/201 204/204/204 203/203/203
f 207/207/207 206/206/206 205/205/205
f 205/205/205 208/208/208 207/207/207
f 211/211/211 210/210/210 209/209/209
f 209/209/209 212/212/212 211/211/211
f 215/215/215 214/214/214 213/213/213
f 213/213/213 216/216/216 215/215/215
f 219/219/219 218/218/218 217/217/217
f 217/217/217 220/220/220 219/219/219
f 223/223/223 222/222/222 221/221/221
f 221/221/221 224/224/224 223/223/223
f 227/227/227 226/226/226 225/225/225
f 225/225/225 228/228/228 227/227/227
f 231/231/231 230/230/230 229/229/229
f 229/229/229 232/232/232 231/231/231
f 235/235/235 234/234/234 233/233/233
f 233/233/233 236/236/236 235/235/235
f 239/239/239 238/238/238 237/237/237
f 237/237/237 240/240/240 239/239/239
f 243/243/243 242/242/242 241/241/241
f 241/241/241 244/244/244 243/243/243
f 247/247/247 246/246/246 245/245/245
f 245/245/245 248/248/248 247/247/247
f 251/251/251 250/250/250 249/249/249
f 249/249/249 252/252/252 251/251/251
f 255/255/255 254/254/254 253/253/253
f 253/253/253 256/256/256 255/255/255
f 259/259/259 258/258/258 257/257/257
f 257/257/257 260/260/260 259/259/259
f 263/263/263 262/262/262 261/261/261
f 261/261/261 264/264/264 263/263/263
f 267/267/267 266/266/266 265/265/265
f 265/265/265 268/268/268 267/267/267
f 271/271/271 270/270/270 269/269/269
f 269/269/269 272/272/272 271/271/271
f 275/275/275 274/274/274 273/273/273
f 273/273/273 276/276/276 275/275/275
f 279/279/279 278/278/278 277/277/277
f 277/277/277 280/280/280 279/279/279
f 283/283/283 282/282/282 281/281/281
f 281/281/281 284/284/284 283/283/283
