g na_2_DOA_bj-mesh
v -768 0 0
v -768 305 0
v -1216 305 0
v -1216 0 0
v -416 369 0
v -416 625 0
v -608 625 0
v -608 369 0
v -1216 17 0
v -1216 145 0
v -1504 145 0
v -1504 17 0
v -608 273 0
v -608 561 0
v -736 561 0
v -736 273 0
v -608 0 0
v -608 273 0
v -736 273 0
v -736 0 0
v -736 305 0
v -736 433 0
v -992 433 0
v -992 305 0
v -256 145 0
v -256 241 0
v -480 241 0
v -480 145 0
v -288 529 0
v -288 721 0
v -384 721 0
v -384 529 0
v -160 369 0
v -160 529 0
v -256 529 0
v -256 369 0
v -64 529 0
v -64 625 0
v -160 625 0
v -160 529 0
v -512 273 0
v -512 369 0
v -608 369 0
v -608 273 0
v -416 625 0
v -416 689 0
v -544 689 0
v -544 625 0
v -736 433 0
v -736 497 0
v -864 497 0
v -864 433 0
v -1280 0 0
v -1280 17 0
v -1504 17 0
v -1504 0 0
v -512 0 0
v -512 49 0
v -608 49 0
v -608 0 0
v -288 241 0
v -288 305 0
v -384 305 0
v -384 241 0
v -992 305 0
v -992 369 0
v -1088 369 0
v -1088 305 0
v -224 305 0
v -224 369 0
v -320 369 0
v -320 305 0
v -1504 17 0
v -1504 81 0
v -1600 81 0
v -1600 17 0
v -1504 0 0
v -1504 17 0
v -1696 17 0
v -1696 0 0
v -1216 145 0
v -1216 209 0
v -1312 209 0
v -1312 145 0
v -416 49 0
v -416 113 0
v -512 113 0
v -512 49 0
v -0 625 0
v -0 689 0
v -64 689 0
v -64 625 0
v -160 209 0
v -160 273 0
v -224 273 0
v -224 209 0
v -512 49 0
v -512 113 0
v -576 113 0
v -576 49 0
v -1312 145 0
v -1312 209 0
v -1376 209 0
v -1376 145 0
v -1216 209 0
v -1216 273 0
v -1280 273 0
v -1280 209 0
v -736 209 0
v -736 305 0
v -768 305 0
v -768 209 0
v -192 721 0
v -192 753 0
v -288 753 0
v -288 721 0
v -416 113 0
v -416 145 0
v -512 145 0
v -512 113 0
v -320 113 0
v -320 145 0
v -416 145 0
v -416 113 0
v -384 401 0
v -384 465 0
v -416 465 0
v -416 401 0
v -96 401 0
v -96 433 0
v -160 433 0
v -160 401 0
v -864 433 0
v -864 465 0
v -928 465 0
v -928 433 0
v -32 561 0
v -32 625 0
v -64 625 0
v -64 561 0
v -416 689 0
v -416 721 0
v -480 721 0
v -480 689 0
v -736 497 0
v -736 529 0
v -800 529 0
v -800 497 0
v -256 529 0
v -256 593 0
v -288 593 0
v -288 529 0
v -224 177 0
v -224 241 0
v -256 241 0
v -256 177 0
v -1376 145 0
v -1376 177 0
v -1440 177 0
v -1440 145 0
v -544 113 0
v -544 145 0
v -608 145 0
v -608 113 0
v -544 241 0
v -544 273 0
v -608 273 0
v -608 241 0
v -480 305 0
v -480 369 0
v -512 369 0
v -512 305 0
v -1600 17 0
v -1600 49 0
v -1664 49 0
v -1664 17 0
v -384 241 0
v -384 273 0
v -448 273 0
v -448 241 0
v -224 689 0
v -224 721 0
v -288 721 0
v -288 689 0
v -32 433 0
v -32 465 0
v -96 465 0
v -96 433 0
v -96 433 0
v -96 465 0
v -160 465 0
v -160 433 0
v -480 145 0
v -480 177 0
v -544 177 0
v -544 145 0
v -736 145 0
v -736 209 0
v -768 209 0
v -768 145 0
v -384 561 0
v -384 625 0
v -416 625 0
v -416 561 0
v -384 497 0
v -384 561 0
v -416 561 0
v -416 497 0
v -544 145 0
v -544 177 0
v -608 177 0
v -608 145 0
v -256 433 0
v -256 465 0
v -320 465 0
v -320 433 0
v -288 721 0
v -288 753 0
v -352 753 0
v -352 721 0
v -608 561 0
v -608 593 0
v -672 593 0
v -672 561 0
v -736 0 0
v -736 49 0
v -768 49 0
v -768 0 0
v -736 49 0
v -736 113 0
v -768 113 0
v -768 49 0
v -256 273 0
v -256 305 0
v -288 305 0
v -288 273 0
v -128 241 0
v -128 273 0
v -160 273 0
v -160 241 0
v -576 209 0
v -576 241 0
v -608 241 0
v -608 209 0
v -1088 305 0
v -1088 337 0
v -1120 337 0
v -1120 305 0
v -992 369 0
v -992 401 0
v -1024 401 0
v -1024 369 0
v -192 337 0
v -192 369 0
v -224 369 0
v -224 337 0
v -320 305 0
v -320 337 0
v -352 337 0
v -352 305 0
v -1280 209 0
v -1280 241 0
v -1312 241 0
v -1312 209 0
v -576 49 0
v -576 81 0
v -608 81 0
v -608 49 0
v -1216 0 0
v -1216 17 0
v -1248 17 0
v -1248 0 0
v -480 17 0
v -480 49 0
v -512 49 0
v -512 17 0
v -1504 81 0
v -1504 113 0
v -1536 113 0
v -1536 81 0
v -192 177 0
v -192 209 0
v -224 209 0
v -224 177 0
v -480 177 0
v -480 209 0
v -512 209 0
v -512 177 0
v -384 81 0
v -384 113 0
v -416 113 0
v -416 81 0
v -256 657 0
v -256 689 0
v -288 689 0
v -288 657 0
v -64 625 0
v -64 657 0
v -96 657 0
v -96 625 0
v -544 625 0
v -544 657 0
v -576 657 0
v -576 625 0
v -0 689 0
v -0 721 0
v -32 721 0
v -32 689 0
v -320 433 0
v -320 465 0
v -352 465 0
v -352 433 0
v -672 561 0
v -672 593 0
v -704 593 0
v -704 561 0
v -192 753 0
v -192 785 0
v -224 785 0
v -224 753 0
v -608 593 0
v -608 625 0
v -640 625 0
v -640 593 0
v -256 465 0
v -256 497 0
v -288 497 0
v -288 465 0
v -320 401 0
v -320 433 0
v -352 433 0
v -352 401 0
v -256 369 0
v -256 401 0
v -288 401 0
v -288 369 0
v -32 465 0
v -32 497 0
v -64 497 0
v -64 465 0
v -160 529 0
v -160 561 0
v -192 561 0
v -192 529 0
v -128 497 0
v -128 529 0
v -160 529 0
v -160 497 0
v -352 497 0
v -352 529 0
v -384 529 0
v -384 497 0
vt 0.0009765625 0.00144094229
vt 0.0009765625 0.442363083
vt 0.438476562 0.442363083
vt 0.438476562 0.00144094229
vt 0.440429688 0.00144094229
vt 0.440429688 0.370316982
vt 0.627929688 0.370316982
vt 0.627929688 0.00144094229
vt 0.629882812 0.00144094229
vt 0.629882812 0.185878992
vt 0.911132812 0.185878992
vt 0.911132812 0.00144094229
vt 0.629882812 0.188760817
vt 0.629882812 0.603746414
vt 0.754882812 0.603746414
vt 0.754882812 0.188760817
vt 0.756835938 0.188760817
vt 0.756835938 0.583573461
vt 0.881835938 0.583573461
vt 0.881835938 0.188760817
vt 0.0009765625 0.445244968
vt 0.0009765625 0.629683018
vt 0.250976562 0.629683018
vt 0.250976562 0.445244968
vt 0.252929688 0.445244968
vt 0.252929688 0.583573461
vt 0.471679688 0.583573461
vt 0.471679688 0.445244968
vt 0.883789062 0.188760817
vt 0.883789062 0.465417862
vt 0.977539062 0.465417862
vt 0.977539062 0.188760817
vt 0.473632812 0.373198867
vt 0.473632812 0.603746414
vt 0.567382812 0.603746414
vt 0.567382812 0.373198867
vt 0.883789062 0.468299687
vt 0.883789062 0.606628239
vt 0.977539062 0.606628239
vt 0.977539062 0.468299687
vt 0.252929688 0.586455345
vt 0.252929688 0.724783897
vt 0.346679688 0.724783897
vt 0.346679688 0.586455345
vt 0.756835938 0.586455345
vt 0.756835938 0.67867434
vt 0.881835938 0.67867434
vt 0.881835938 0.586455345
vt 0.473632812 0.606628239
vt 0.473632812 0.698847294
vt 0.598632812 0.698847294
vt 0.598632812 0.606628239
vt 0.0009765625 0.632564843
vt 0.0009765625 0.658501446
vt 0.219726562 0.658501446
vt 0.219726562 0.632564843
vt 0.348632812 0.586455345
vt 0.348632812 0.658501446
vt 0.442382812 0.658501446
vt 0.442382812 0.586455345
vt 0.629882812 0.606628239
vt 0.629882812 0.698847294
vt 0.723632812 0.698847294
vt 0.723632812 0.606628239
vt 0.883789062 0.609510064
vt 0.883789062 0.701729119
vt 0.977539062 0.701729119
vt 0.977539062 0.609510064
vt 0.0009765625 0.661383271
vt 0.0009765625 0.753602326
vt 0.0947265625 0.753602326
vt 0.0947265625 0.661383271
vt 0.0966796875 0.661383271
vt 0.0966796875 0.753602326
vt 0.190429688 0.753602326
vt 0.190429688 0.661383271
vt 0.473632812 0.701729119
vt 0.473632812 0.727665663
vt 0.661132812 0.727665663
vt 0.661132812 0.701729119
vt 0.348632812 0.661383271
vt 0.348632812 0.753602326
vt 0.442382812 0.753602326
vt 0.442382812 0.661383271
vt 0.756835938 0.681556225
vt 0.756835938 0.77377522
vt 0.850585938 0.77377522
vt 0.850585938 0.681556225
vt 0.663085938 0.701729119
vt 0.663085938 0.793948114
vt 0.725585938 0.793948114
vt 0.725585938 0.701729119
vt 0.883789062 0.704610944
vt 0.883789062 0.796829939
vt 0.946289062 0.796829939
vt 0.946289062 0.704610944
vt 0.252929688 0.727665663
vt 0.252929688 0.819884717
vt 0.315429688 0.819884717
vt 0.315429688 0.727665663
vt 0.473632812 0.730547547
vt 0.473632812 0.822766542
vt 0.536132812 0.822766542
vt 0.536132812 0.730547547
vt 0.538085938 0.730547547
vt 0.538085938 0.822766542
vt 0.600585938 0.822766542
vt 0.600585938 0.730547547
vt 0.192382812 0.661383271
vt 0.192382812 0.799711823
vt 0.223632812 0.799711823
vt 0.223632812 0.661383271
vt 0.0009765625 0.756484151
vt 0.0009765625 0.802593648
vt 0.0947265625 0.802593648
vt 0.0947265625 0.756484151
vt 0.0966796875 0.756484151
vt 0.0966796875 0.802593648
vt 0.190429688 0.802593648
vt 0.190429688 0.756484151
vt 0.348632812 0.756484151
vt 0.348632812 0.802593648
vt 0.442382812 0.802593648
vt 0.442382812 0.756484151
vt 0.948242188 0.704610944
vt 0.948242188 0.796829939
vt 0.979492188 0.796829939
vt 0.979492188 0.704610944
vt 0.756835938 0.776657045
vt 0.756835938 0.822766542
vt 0.819335938 0.822766542
vt 0.819335938 0.776657045
vt 0.663085938 0.796829939
vt 0.663085938 0.842939496
vt 0.725585938 0.842939496
vt 0.725585938 0.796829939
vt 0.602539062 0.730547547
vt 0.602539062 0.822766542
vt 0.633789062 0.822766542
vt 0.633789062 0.730547547
vt 0.883789062 0.799711823
vt 0.883789062 0.845821321
vt 0.946289062 0.845821321
vt 0.946289062 0.799711823
vt 0.0009765625 0.805475473
vt 0.0009765625 0.851585031
vt 0.0634765625 0.851585031
vt 0.0634765625 0.805475473
vt 0.821289062 0.776657045
vt 0.821289062 0.8688761
vt 0.852539062 0.8688761
vt 0.852539062 0.776657045
vt 0.948242188 0.799711823
vt 0.948242188 0.891930819
vt 0.979492188 0.891930819
vt 0.979492188 0.799711823
vt 0.0654296875 0.805475473
vt 0.0654296875 0.851585031
vt 0.127929688 0.851585031
vt 0.127929688 0.805475473
vt 0.129882812 0.805475473
vt 0.129882812 0.851585031
vt 0.192382812 0.851585031
vt 0.192382812 0.805475473
vt 0.348632812 0.805475473
vt 0.348632812 0.851585031
vt 0.411132812 0.851585031
vt 0.411132812 0.805475473
vt 0.194335938 0.802593648
vt 0.194335938 0.894812703
vt 0.225585938 0.894812703
vt 0.225585938 0.802593648
vt 0.252929688 0.822766542
vt 0.252929688 0.8688761
vt 0.315429688 0.8688761
vt 0.315429688 0.822766542
vt 0.473632812 0.825648427
vt 0.473632812 0.871757925
vt 0.536132812 0.871757925
vt 0.536132812 0.825648427
vt 0.538085938 0.825648427
vt 0.538085938 0.871757925
vt 0.600585938 0.871757925
vt 0.600585938 0.825648427
vt 0.756835938 0.825648427
vt 0.756835938 0.871757925
vt 0.819335938 0.871757925
vt 0.819335938 0.825648427
vt 0.663085938 0.845821321
vt 0.663085938 0.891930819
vt 0.725585938 0.891930819
vt 0.725585938 0.845821321
vt 0.883789062 0.848703146
vt 0.883789062 0.894812703
vt 0.946289062 0.894812703
vt 0.946289062 0.848703146
vt 0.413085938 0.805475473
vt 0.413085938 0.897694528
vt 0.444335938 0.897694528
vt 0.444335938 0.805475473
vt 0.602539062 0.825648427
vt 0.602539062 0.917867422
vt 0.633789062 0.917867422
vt 0.633789062 0.825648427
vt 0.0009765625 0.854466856
vt 0.0009765625 0.94668591
vt 0.0322265625 0.94668591
vt 0.0322265625 0.854466856
vt 0.0341796875 0.854466856
vt 0.0341796875 0.900576353
vt 0.0966796875 0.900576353
vt 0.0966796875 0.854466856
vt 0.0986328125 0.854466856
vt 0.0986328125 0.900576353
vt 0.161132812 0.900576353
vt 0.161132812 0.854466856
vt 0.348632812 0.854466856
vt 0.348632812 0.900576353
vt 0.411132812 0.900576353
vt 0.411132812 0.854466856
vt 0.252929688 0.871757925
vt 0.252929688 0.917867422
vt 0.315429688 0.917867422
vt 0.315429688 0.871757925
vt 0.821289062 0.871757925
vt 0.821289062 0.943804026
vt 0.852539062 0.943804026
vt 0.852539062 0.871757925
vt 0.473632812 0.87463975
vt 0.473632812 0.966858804
vt 0.504882812 0.966858804
vt 0.504882812 0.87463975
vt 0.506835938 0.87463975
vt 0.506835938 0.920749307
vt 0.538085938 0.920749307
vt 0.538085938 0.87463975
vt 0.540039062 0.87463975
vt 0.540039062 0.920749307
vt 0.571289062 0.920749307
vt 0.571289062 0.87463975
vt 0.756835938 0.87463975
vt 0.756835938 0.920749307
vt 0.788085938 0.920749307
vt 0.788085938 0.87463975
vt 0.663085938 0.894812703
vt 0.663085938 0.940922201
vt 0.694335938 0.940922201
vt 0.694335938 0.894812703
vt 0.696289062 0.894812703
vt 0.696289062 0.940922201
vt 0.727539062 0.940922201
vt 0.727539062 0.894812703
vt 0.948242188 0.894812703
vt 0.948242188 0.940922201
vt 0.979492188 0.940922201
vt 0.979492188 0.894812703
vt 0.194335938 0.897694528
vt 0.194335938 0.943804026
vt 0.225585938 0.943804026
vt 0.225585938 0.897694528
vt 0.883789062 0.897694528
vt 0.883789062 0.943804026
vt 0.915039062 0.943804026
vt 0.915039062 0.897694528
vt 0.413085938 0.900576353
vt 0.413085938 0.94668591
vt 0.444335938 0.94668591
vt 0.444335938 0.900576353
vt 0.0341796875 0.903458238
vt 0.0341796875 0.929394841
vt 0.0654296875 0.929394841
vt 0.0654296875 0.903458238
vt 0.0673828125 0.903458238
vt 0.0673828125 0.949567735
vt 0.0986328125 0.949567735
vt 0.0986328125 0.903458238
vt 0.100585938 0.903458238
vt 0.100585938 0.949567735
vt 0.131835938 0.949567735
vt 0.131835938 0.903458238
vt 0.133789062 0.903458238
vt 0.133789062 0.949567735
vt 0.165039062 0.949567735
vt 0.165039062 0.903458238
vt 0.348632812 0.903458238
vt 0.348632812 0.949567735
vt 0.379882812 0.949567735
vt 0.379882812 0.903458238
vt 0.252929688 0.920749307
vt 0.252929688 0.966858804
vt 0.284179688 0.966858804
vt 0.284179688 0.920749307
vt 0.286132812 0.920749307
vt 0.286132812 0.966858804
vt 0.317382812 0.966858804
vt 0.317382812 0.920749307
vt 0.602539062 0.920749307
vt 0.602539062 0.966858804
vt 0.633789062 0.966858804
vt 0.633789062 0.920749307
vt 0.506835938 0.923631132
vt 0.506835938 0.969740629
vt 0.538085938 0.969740629
vt 0.538085938 0.923631132
vt 0.540039062 0.923631132
vt 0.540039062 0.969740629
vt 0.571289062 0.969740629
vt 0.571289062 0.923631132
vt 0.756835938 0.923631132
vt 0.756835938 0.969740629
vt 0.788085938 0.969740629
vt 0.788085938 0.923631132
vt 0.0341796875 0.932276666
vt 0.0341796875 0.978386164
vt 0.0654296875 0.978386164
vt 0.0654296875 0.932276666
vt 0.663085938 0.943804026
vt 0.663085938 0.989913523
vt 0.694335938 0.989913523
vt 0.694335938 0.943804026
vt 0.696289062 0.943804026
vt 0.696289062 0.989913523
vt 0.727539062 0.989913523
vt 0.727539062 0.943804026
vt 0.948242188 0.943804026
vt 0.948242188 0.989913523
vt 0.979492188 0.989913523
vt 0.979492188 0.943804026
vt 0.194335938 0.94668591
vt 0.194335938 0.992795408
vt 0.225585938 0.992795408
vt 0.225585938 0.94668591
vt 0.821289062 0.94668591
vt 0.821289062 0.992795408
vt 0.852539062 0.992795408
vt 0.852539062 0.94668591
vt 0.883789062 0.94668591
vt 0.883789062 0.992795408
vt 0.915039062 0.992795408
vt 0.915039062 0.94668591
vt 0.0009765625 0.949567735
vt 0.0009765625 0.995677233
vt 0.0322265625 0.995677233
vt 0.0322265625 0.949567735
vt 0.413085938 0.949567735
vt 0.413085938 0.995677233
vt 0.444335938 0.995677233
vt 0.444335938 0.949567735
vt 0.0673828125 0.95244956
vt 0.0673828125 0.998559058
vt 0.0986328125 0.998559058
vt 0.0986328125 0.95244956
g na_2_DOA_bj-mesh_0
f 3/3/3 2/2/2 1/1/1
f 1/1/1 4/4/4 3/3/3
f 7/7/7 6/6/6 5/5/5
f 5/5/5 8/8/8 7/7/7
f 11/11/11 10/10/10 9/9/9
f 9/9/9 12/12/12 11/11/11
f 15/15/15 14/14/14 13/13/13
f 13/13/13 16/16/16 15/15/15
f 19/19/19 18/18/18 17/17/17
f 17/17/17 20/20/20 19/19/19
f 23/23/23 22/22/22 21/21/21
f 21/21/21 24/24/24 23/23/23
f 27/27/27 26/26/26 25/25/25
f 25/25/25 28/28/28 27/27/27
f 31/31/31 30/30/30 29/29/29
f 29/29/29 32/32/32 31/31/31
f 35/35/35 34/34/34 33/33/33
f 33/33/33 36/36/36 35/35/35
f 39/39/39 38/38/38 37/37/37
f 37/37/37 40/40/40 39/39/39
f 43/43/43 42/42/42 41/41/41
f 41/41/41 44/44/44 43/43/43
f 47/47/47 46/46/46 45/45/45
f 45/45/45 48/48/48 47/47/47
f 51/51/51 50/50/50 49/49/49
f 49/49/49 52/52/52 51/51/51
f 55/55/55 54/54/54 53/53/53
f 53/53/53 56/56/56 55/55/55
f 59/59/59 58/58/58 57/57/57
f 57/57/57 60/60/60 59/59/59
f 63/63/63 62/62/62 61/61/61
f 61/61/61 64/64/64 63/63/63
f 67/67/67 66/66/66 65/65/65
f 65/65/65 68/68/68 67/67/67
f 71/71/71 70/70/70 69/69/69
f 69/69/69 72/72/72 71/71/71
f 75/75/75 74/74/74 73/73/73
f 73/73/73 76/76/76 75/75/75
f 79/79/79 78/78/78 77/77/77
f 77/77/77 80/80/80 79/79/79
f 83/83/83 82/82/82 81/81/81
f 81/81/81 84/84/84 83/83/83
f 87/87/87 86/86/86 85/85/85
f 85/85/85 88/88/88 87/87/87
f 91/91/91 90/90/90 89/89/89
f 89/89/89 92/92/92 91/91/91
f 95/95/95 94/94/94 93/93/93
f 93/93/93 96/96/96 95/95/95
f 99/99/99 98/98/98 97/97/97
f 97/97/97 100/100/100 99/99/99
f 103/103/103 102/102/102 101/101/101
f 101/101/101 104/104/104 103/103/103
f 107/107/107 106/106/106 105/105/105
f 105/105/105 108/108/108 107/107/107
f 111/111/111 110/110/110 109/109/109
f 109/109/109 112/112/112 111/111/111
f 115/115/115 114/114/114 113/113/113
f 113/113/113 116/116/116 115/115/115
f 119/119/119 118/118/118 117/117/117
f 117/117/117 120/120/120 119/119/119
f 123/123/123 122/122/122 121/121/121
f 121/121/121 124/124/124 123/123/123
f 127/127/127 126/126/126 125/125/125
f 125/125/125 128/128/128 127/127/127
f 131/131/131 130/130/130 129/129/129
f 129/129/129 132/132/132 131/131/131
f 135/135/135 134/134/134 133/133/133
f 133/133/133 136/136/136 135/135/135
f 139/139/139 138/138/138 137/137/137
f 137/137/137 140/140/140 139/139/139
f 143/143/143 142/142/142 141/141/141
f 141/141/141 144/144/144 143/143/143
f 147/147/147 146/146/146 145/145/145
f 145/145/145 148/148/148 147/147/147
f 151/151/151 150/150/150 149/149/149
f 149/149/149 152/152/152 151/151/151
f 155/155/155 154/154/154 153/153/153
f 153/153/153 156/156/156 155/155/155
f 159/159/159 158/158/158 157/157/157
f 157/157/157 160/160/160 159/159/159
f 163/163/163 162/162/162 161/161/161
f 161/161/161 164/164/164 163/163/163
f 167/167/167 166/166/166 165/165/165
f 165/165/165 168/168/168 167/167/167
f 171/171/171 170/170/170 169/169/169
f 169/169/169 172/172/172 171/171/171
f 175/175/175 174/174/174 173/173/173
f 173/173/173 176/176/176 175/175/175
f 179/179/179 178/178/178 177/177/177
f 177/177/177 180/180/180 179/179/179
f 183/183/183 182/182/182 181/181/181
f 181/181/181 184/184/184 183/183/183
f 187/187/187 186/186/186 185/185/185
f 185/185/185 188/188/188 187/187/187
f 191/191/191 190/190/190 189/189/189
f 189/189/189 192/192/192 191/191/191
f 195/195/195 194/194/194 193/193/193
f 193/193/193 196/196/196 195/195/195
f 199/199/199 198/198/198 197/197/197
f 197/197/197 200/200/200 199/199/199
f 203/203/203 202/202/202 201/201/201
f 201/201/201 204/204/204 203/203/203
f 207/207/207 206/206/206 205/205/205
f 205/205/205 208/208/208 207/207/207
f 211/211/211 210/210/210 209/209/209
f 209/209/209 212/212/212 211/211/211
f 215/215/215 214/214/214 213/213/213
f 213/213/213 216/216/216 215/215/215
f 219/219/219 218/218/218 217/217/217
f 217/217/217 220/220/220 219/219/219
f 223/223/223 222/222/222 221/221/221
f 221/221/221 224/224/224 223/223/223
f 227/227/227 226/226/226 225/225/225
f 225/225/225 228/228/228 227/227/227
f 231/231/231 230/230/230 229/229/229
f 229/229/229 232/232/232 231/231/231
f 235/235/235 234/234/234 233/233/233
f 233/233/233 236/236/236 235/235/235
f 239/239/239 238/238/238 237/237/237
f 237/237/237 240/240/240 239/239/239
f 243/243/243 242/242/242 241/241/241
f 241/241/241 244/244/244 243/243/243
f 247/247/247 246/246/246 245/245/245
f 245/245/245 248/248/248 247/247/247
f 251/251/251 250/250/250 249/249/249
f 249/249/249 252/252/252 251/251/251
f 255/255/255 254/254/254 253/253/253
f 253/253/253 256/256/256 255/255/255
f 259/259/259 258/258/258 257/257/257
f 257/257/257 260/260/260 259/259/259
f 263/263/263 262/262/262 261/261/261
f 261/261/261 264/264/264 263/263/263
f 267/267/267 266/266/266 265/265/265
f 265/265/265 268/268/268 267/267/267
f 271/271/271 270/270/270 269/269/269
f 269/269/269 272/272/272 271/271/271
f 275/275/275 274/274/274 273/273/273
f 273/273/273 276/276/276 275/275/275
f 279/279/279 278/278/278 277/277/277
f 277/277/277 280/280/280 279/279/279
f 283/283/283 282/282/282 281/281/281
f 281/281/281 284/284/284 283/283/283
f 287/287/287 286/286/286 285/285/285
f 285/285/285 288/288/288 287/287/287
f 291/291/291 290/290/290 289/289/289
f 289/289/289 292/292/292 291/291/291
f 295/295/295 294/294/294 293/293/293
f 293/293/293 296/296/296 295/295/295
f 299/299/299 298/298/298 297/297/297
f 297/297/297 300/300/300 299/299/299
f 303/303/303 302/302/302 301/301/301
f 301/301/301 304/304/304 303/303/303
f 307/307/307 306/306/306 305/305/305
f 305/305/305 308/308/308 307/307/307
f 311/311/311 310/310/310 309/309/309
f 309/309/309 312/312/312 311/311/311
f 315/315/315 314/314/314 313/313/313
f 313/313/313 316/316/316 315/315/315
f 319/319/319 318/318/318 317/317/317
f 317/317/317 320/320/320 319/319/319
f 323/323/323 322/322/322 321/321/321
f 321/321/321 324/324/324 323/323/323
f 327/327/327 326/326/326 325/325/325
f 325/325/325 328/328/328 327/327/327
f 331/331/331 330/330/330 329/329/329
f 329/329/329 332/332/332 331/331/331
f 335/335/335 334/334/334 333/333/333
f 333/333/333 336/336/336 335/335/335
f 339/339/339 338/338/338 337/337/337
f 337/337/337 340/340/340 339/339/339
f 343/343/343 342/342/342 341/341/341
f 341/341/341 344/344/344 343/343/343
f 347/347/347 346/346/346 345/345/345
f 345/345/345 348/348/348 347/347/347
f 351/351/351 350/350/350 349/349/349
f 349/349/349 352/352/352 351/351/351
