g heianjie-mesh
v -160 125 0
v -160 477 0
v -544 477 0
v -544 125 0
v -160 477 0
v -160 829 0
v -544 829 0
v -544 477 0
v -0 253 0
v -0 605 0
v -160 605 0
v -160 253 0
v -544 445 0
v -544 605 0
v -864 605 0
v -864 445 0
v -256 829 0
v -256 957 0
v -512 957 0
v -512 829 0
v -544 637 0
v -544 861 0
v -640 861 0
v -640 637 0
v -544 253 0
v -544 349 0
v -768 349 0
v -768 253 0
v -544 349 0
v -544 445 0
v -704 445 0
v -704 349 0
v -704 349 0
v -704 445 0
v -832 445 0
v -832 349 0
v -64 605 0
v -64 733 0
v -128 733 0
v -128 605 0
v -448 0 0
v -448 125 0
v -512 125 0
v -512 0 0
v -256 61 0
v -256 125 0
v -352 125 0
v -352 61 0
v -64 189 0
v -64 253 0
v -160 253 0
v -160 189 0
v -800 605 0
v -800 669 0
v -873 669 0
v -873 605 0
v -640 669 0
v -640 733 0
v -736 733 0
v -736 669 0
v -256 957 0
v -256 1021 0
v -352 1021 0
v -352 957 0
v -608 861 0
v -608 925 0
v -704 925 0
v -704 861 0
v -544 189 0
v -544 253 0
v -640 253 0
v -640 189 0
v -544 125 0
v -544 189 0
v -608 189 0
v -608 125 0
v -640 189 0
v -640 253 0
v -704 253 0
v -704 189 0
v -704 861 0
v -704 925 0
v -768 925 0
v -768 861 0
v -224 829 0
v -224 893 0
v -256 893 0
v -256 829 0
v -672 925 0
v -672 957 0
v -736 957 0
v -736 925 0
v -128 733 0
v -128 797 0
v -160 797 0
v -160 733 0
v -128 125 0
v -128 189 0
v -160 189 0
v -160 125 0
v -128 605 0
v -128 669 0
v -160 669 0
v -160 605 0
v -608 157 0
v -608 189 0
v -672 189 0
v -672 157 0
v -640 829 0
v -640 861 0
v -704 861 0
v -704 829 0
v -704 605 0
v -704 637 0
v -768 637 0
v -768 605 0
v -832 349 0
v -832 413 0
v -864 413 0
v -864 349 0
v -32 605 0
v -32 637 0
v -64 637 0
v -64 605 0
v -800 317 0
v -800 349 0
v -832 349 0
v -832 317 0
v -640 637 0
v -640 669 0
v -672 669 0
v -672 637 0
v -32 221 0
v -32 253 0
v -64 253 0
v -64 221 0
v -288 29 0
v -288 61 0
v -320 61 0
v -320 29 0
v -352 93 0
v -352 125 0
v -384 125 0
v -384 93 0
v -224 93 0
v -224 125 0
v -256 125 0
v -256 93 0
v -640 733 0
v -640 765 0
v -672 765 0
v -672 733 0
v -832 317 0
v -832 349 0
v -864 349 0
v -864 317 0
v -768 605 0
v -768 637 0
v -800 637 0
v -800 605 0
v -704 829 0
v -704 861 0
v -736 861 0
v -736 829 0
v -768 893 0
v -768 925 0
v -800 925 0
v -800 893 0
v -640 797 0
v -640 829 0
v -672 829 0
v -672 797 0
v -512 829 0
v -512 861 0
v -544 861 0
v -544 829 0
v -192 829 0
v -192 861 0
v -224 861 0
v -224 829 0
vt 0.0009765625 0.0014705658
vt 0.0009765625 0.519117653
vt 0.375976562 0.519117653
vt 0.375976562 0.0014705658
vt 0.377929688 0.0014705658
vt 0.377929688 0.519117653
vt 0.752929688 0.519117653
vt 0.752929688 0.0014705658
vt 0.754882812 0.0014705658
vt 0.754882812 0.519117653
vt 0.911132812 0.519117653
vt 0.911132812 0.0014705658
vt 0.0009765625 0.522058845
vt 0.0009765625 0.757352948
vt 0.313476562 0.757352948
vt 0.313476562 0.522058845
vt 0.315429688 0.522058845
vt 0.315429688 0.710294127
vt 0.565429688 0.710294127
vt 0.565429688 0.522058845
vt 0.567382812 0.522058845
vt 0.567382812 0.85147059
vt 0.661132812 0.85147059
vt 0.661132812 0.522058845
vt 0.663085938 0.522058845
vt 0.663085938 0.663235307
vt 0.881835938 0.663235307
vt 0.881835938 0.522058845
vt 0.663085938 0.666176438
vt 0.663085938 0.80735296
vt 0.819335938 0.80735296
vt 0.819335938 0.666176438
vt 0.821289062 0.666176438
vt 0.821289062 0.80735296
vt 0.946289062 0.80735296
vt 0.946289062 0.666176438
vt 0.315429688 0.713235259
vt 0.315429688 0.901470602
vt 0.377929688 0.901470602
vt 0.377929688 0.713235259
vt 0.379882812 0.713235259
vt 0.379882812 0.89852941
vt 0.442382812 0.89852941
vt 0.442382812 0.713235259
vt 0.444335938 0.713235259
vt 0.444335938 0.80735296
vt 0.538085938 0.80735296
vt 0.538085938 0.713235259
vt 0.0009765625 0.760294139
vt 0.0009765625 0.854411781
vt 0.0947265625 0.854411781
vt 0.0947265625 0.760294139
vt 0.0966796875 0.760294139
vt 0.0966796875 0.854411781
vt 0.168945312 0.854411781
vt 0.168945312 0.760294139
vt 0.170898438 0.760294139
vt 0.170898438 0.854411781
vt 0.264648438 0.854411781
vt 0.264648438 0.760294139
vt 0.444335938 0.810294151
vt 0.444335938 0.904411793
vt 0.538085938 0.904411793
vt 0.538085938 0.810294151
vt 0.663085938 0.810294151
vt 0.663085938 0.904411793
vt 0.756835938 0.904411793
vt 0.756835938 0.810294151
vt 0.758789062 0.810294151
vt 0.758789062 0.904411793
vt 0.852539062 0.904411793
vt 0.852539062 0.810294151
vt 0.854492188 0.810294151
vt 0.854492188 0.904411793
vt 0.916992188 0.904411793
vt 0.916992188 0.810294151
vt 0.918945312 0.810294151
vt 0.918945312 0.904411793
vt 0.981445312 0.904411793
vt 0.981445312 0.810294151
vt 0.567382812 0.854411781
vt 0.567382812 0.948529422
vt 0.629882812 0.948529422
vt 0.629882812 0.854411781
vt 0.266601562 0.760294139
vt 0.266601562 0.854411781
vt 0.297851562 0.854411781
vt 0.297851562 0.760294139
vt 0.0009765625 0.857352972
vt 0.0009765625 0.904411793
vt 0.0634765625 0.904411793
vt 0.0634765625 0.857352972
vt 0.0654296875 0.857352972
vt 0.0654296875 0.951470613
vt 0.0966796875 0.951470613
vt 0.0966796875 0.857352972
vt 0.0986328125 0.857352972
vt 0.0986328125 0.951470613
vt 0.129882812 0.951470613
vt 0.129882812 0.857352972
vt 0.131835938 0.857352972
vt 0.131835938 0.951470613
vt 0.163085938 0.951470613
vt 0.163085938 0.857352972
vt 0.165039062 0.857352972
vt 0.165039062 0.904411793
vt 0.227539062 0.904411793
vt 0.227539062 0.857352972
vt 0.229492188 0.857352972
vt 0.229492188 0.904411793
vt 0.291992188 0.904411793
vt 0.291992188 0.857352972
vt 0.379882812 0.901470602
vt 0.379882812 0.948529422
vt 0.442382812 0.948529422
vt 0.442382812 0.901470602
vt 0.315429688 0.904411793
vt 0.315429688 0.998529434
vt 0.346679688 0.998529434
vt 0.346679688 0.904411793
vt 0.0009765625 0.907352924
vt 0.0009765625 0.954411745
vt 0.0322265625 0.954411745
vt 0.0322265625 0.907352924
vt 0.165039062 0.907352924
vt 0.165039062 0.954411745
vt 0.196289062 0.954411745
vt 0.196289062 0.907352924
vt 0.198242188 0.907352924
vt 0.198242188 0.954411745
vt 0.229492188 0.954411745
vt 0.229492188 0.907352924
vt 0.231445312 0.907352924
vt 0.231445312 0.954411745
vt 0.262695312 0.954411745
vt 0.262695312 0.907352924
vt 0.264648438 0.907352924
vt 0.264648438 0.954411745
vt 0.295898438 0.954411745
vt 0.295898438 0.907352924
vt 0.444335938 0.907352924
vt 0.444335938 0.954411745
vt 0.475585938 0.954411745
vt 0.475585938 0.907352924
vt 0.477539062 0.907352924
vt 0.477539062 0.954411745
vt 0.508789062 0.954411745
vt 0.508789062 0.907352924
vt 0.510742188 0.907352924
vt 0.510742188 0.954411745
vt 0.541992188 0.954411745
vt 0.541992188 0.907352924
vt 0.663085938 0.907352924
vt 0.663085938 0.954411745
vt 0.694335938 0.954411745
vt 0.694335938 0.907352924
vt 0.696289062 0.907352924
vt 0.696289062 0.954411745
vt 0.727539062 0.954411745
vt 0.727539062 0.907352924
vt 0.729492188 0.907352924
vt 0.729492188 0.954411745
vt 0.760742188 0.954411745
vt 0.760742188 0.907352924
vt 0.762695312 0.907352924
vt 0.762695312 0.954411745
vt 0.793945312 0.954411745
vt 0.793945312 0.907352924
vt 0.795898438 0.907352924
vt 0.795898438 0.954411745
vt 0.827148438 0.954411745
vt 0.827148438 0.907352924
vt 0.829101562 0.907352924
vt 0.829101562 0.954411745
vt 0.860351562 0.954411745
vt 0.860351562 0.907352924
vt 0.862304688 0.907352924
vt 0.862304688 0.954411745
vt 0.893554688 0.954411745
vt 0.893554688 0.907352924
g heianjie-mesh_0
f 3/3/3 2/2/2 1/1/1
f 1/1/1 4/4/4 3/3/3
f 7/7/7 6/6/6 5/5/5
f 5/5/5 8/8/8 7/7/7
f 11/11/11 10/10/10 9/9/9
f 9/9/9 12/12/12 11/11/11
f 15/15/15 14/14/14 13/13/13
f 13/13/13 16/16/16 15/15/15
f 19/19/19 18/18/18 17/17/17
f 17/17/17 20/20/20 19/19/19
f 23/23/23 22/22/22 21/21/21
f 21/21/21 24/24/24 23/23/23
f 27/27/27 26/26/26 25/25/25
f 25/25/25 28/28/28 27/27/27
f 31/31/31 30/30/30 29/29/29
f 29/29/29 32/32/32 31/31/31
f 35/35/35 34/34/34 33/33/33
f 33/33/33 36/36/36 35/35/35
f 39/39/39 38/38/38 37/37/37
f 37/37/37 40/40/40 39/39/39
f 43/43/43 42/42/42 41/41/41
f 41/41/41 44/44/44 43/43/43
f 47/47/47 46/46/46 45/45/45
f 45/45/45 48/48/48 47/47/47
f 51/51/51 50/50/50 49/49/49
f 49/49/49 52/52/52 51/51/51
f 55/55/55 54/54/54 53/53/53
f 53/53/53 56/56/56 55/55/55
f 59/59/59 58/58/58 57/57/57
f 57/57/57 60/60/60 59/59/59
f 63/63/63 62/62/62 61/61/61
f 61/61/61 64/64/64 63/63/63
f 67/67/67 66/66/66 65/65/65
f 65/65/65 68/68/68 67/67/67
f 71/71/71 70/70/70 69/69/69
f 69/69/69 72/72/72 71/71/71
f 75/75/75 74/74/74 73/73/73
f 73/73/73 76/76/76 75/75/75
f 79/79/79 78/78/78 77/77/77
f 77/77/77 80/80/80 79/79/79
f 83/83/83 82/82/82 81/81/81
f 81/81/81 84/84/84 83/83/83
f 87/87/87 86/86/86 85/85/85
f 85/85/85 88/88/88 87/87/87
f 91/91/91 90/90/90 89/89/89
f 89/89/89 92/92/92 91/91/91
f 95/95/95 94/94/94 93/93/93
f 93/93/93 96/96/96 95/95/95
f 99/99/99 98/98/98 97/97/97
f 97/97/97 100/100/100 99/99/99
f 103/103/103 102/102/102 101/101/101
f 101/101/101 104/104/104 103/103/103
f 107/107/107 106/106/106 105/105/105
f 105/105/105 108/108/108 107/107/107
f 111/111/111 110/110/110 109/109/109
f 109/109/109 112/112/112 111/111/111
f 115/115/115 114/114/114 113/113/113
f 113/113/113 116/116/116 115/115/115
f 119/119/119 118/118/118 117/117/117
f 117/117/117 120/120/120 119/119/119
f 123/123/123 122/122/122 121/121/121
f 121/121/121 124/124/124 123/123/123
f 127/127/127 126/126/126 125/125/125
f 125/125/125 128/128/128 127/127/127
f 131/131/131 130/130/130 129/129/129
f 129/129/129 132/132/132 131/131/131
f 135/135/135 134/134/134 133/133/133
f 133/133/133 136/136/136 135/135/135
f 139/139/139 138/138/138 137/137/137
f 137/137/137 140/140/140 139/139/139
f 143/143/143 142/142/142 141/141/141
f 141/141/141 144/144/144 143/143/143
f 147/147/147 146/146/146 145/145/145
f 145/145/145 148/148/148 147/147/147
f 151/151/151 150/150/150 149/149/149
f 149/149/149 152/152/152 151/151/151
f 155/155/155 154/154/154 153/153/153
f 153/153/153 156/156/156 155/155/155
f 159/159/159 158/158/158 157/157/157
f 157/157/157 160/160/160 159/159/159
f 163/163/163 162/162/162 161/161/161
f 161/161/161 164/164/164 163/163/163
f 167/167/167 166/166/166 165/165/165
f 165/165/165 168/168/168 167/167/167
f 171/171/171 170/170/170 169/169/169
f 169/169/169 172/172/172 171/171/171
f 175/175/175 174/174/174 173/173/173
f 173/173/173 176/176/176 175/175/175
f 179/179/179 178/178/178 177/177/177
f 177/177/177 180/180/180 179/179/179
