g aifosen_3_bj-mesh
v -1696 479 0
v -1696 607 0
v -1856 607 0
v -1856 479 0
v -704 607 0
v -704 703 0
v -832 703 0
v -832 607 0
v -1728 607 0
v -1728 671 0
v -1792 671 0
v -1792 607 0
v -672 607 0
v -672 671 0
v -704 671 0
v -704 607 0
v -832 607 0
v -832 671 0
v -864 671 0
v -864 607 0
v -736 575 0
v -736 607 0
v -800 607 0
v -800 575 0
v -800 575 0
v -800 607 0
v -864 607 0
v -864 575 0
v -1856 511 0
v -1856 543 0
v -1888 543 0
v -1888 511 0
v -1792 607 0
v -1792 639 0
v -1824 639 0
v -1824 607 0
v -736 703 0
v -736 735 0
v -768 735 0
v -768 703 0
vt 0.001953125 0.00769233704
vt 0.001953125 0.992307663
vt 0.314453125 0.992307663
vt 0.314453125 0.00769233704
vt 0.318359375 0.00769233704
vt 0.318359375 0.746153831
vt 0.568359375 0.746153831
vt 0.568359375 0.00769233704
vt 0.572265625 0.00769233704
vt 0.572265625 0.5
vt 0.697265625 0.5
vt 0.697265625 0.00769233704
vt 0.701171875 0.00769233704
vt 0.701171875 0.5
vt 0.763671875 0.5
vt 0.763671875 0.00769233704
vt 0.767578125 0.00769233704
vt 0.767578125 0.5
vt 0.830078125 0.5
vt 0.830078125 0.00769233704
vt 0.833984375 0.00769233704
vt 0.833984375 0.253846169
vt 0.958984375 0.253846169
vt 0.958984375 0.00769233704
vt 0.833984375 0.269230783
vt 0.833984375 0.515384614
vt 0.958984375 0.515384614
vt 0.958984375 0.269230783
vt 0.572265625 0.515384614
vt 0.572265625 0.761538446
vt 0.634765625 0.761538446
vt 0.634765625 0.515384614
vt 0.638671875 0.515384614
vt 0.638671875 0.761538446
vt 0.701171875 0.761538446
vt 0.701171875 0.515384614
vt 0.705078125 0.515384614
vt 0.705078125 0.761538446
vt 0.767578125 0.761538446
vt 0.767578125 0.515384614
g aifosen_3_bj-mesh_0
f 3/3/3 2/2/2 1/1/1
f 1/1/1 4/4/4 3/3/3
f 7/7/7 6/6/6 5/5/5
f 5/5/5 8/8/8 7/7/7
f 11/11/11 10/10/10 9/9/9
f 9/9/9 12/12/12 11/11/11
f 15/15/15 14/14/14 13/13/13
f 13/13/13 16/16/16 15/15/15
f 19/19/19 18/18/18 17/17/17
f 17/17/17 20/20/20 19/19/19
f 23/23/23 22/22/22 21/21/21
f 21/21/21 24/24/24 23/23/23
f 27/27/27 26/26/26 25/25/25
f 25/25/25 28/28/28 27/27/27
f 31/31/31 30/30/30 29/29/29
f 29/29/29 32/32/32 31/31/31
f 35/35/35 34/34/34 33/33/33
f 33/33/33 36/36/36 35/35/35
f 39/39/39 38/38/38 37/37/37
f 37/37/37 40/40/40 39/39/39
