g u2501_2_bj-mesh
v -992 135 0
v -992 487 0
v -1408 487 0
v -1408 135 0
v -992 487 0
v -992 839 0
v -1408 839 0
v -1408 487 0
v -768 487 0
v -768 839 0
v -960 839 0
v -960 487 0
v -768 167 0
v -768 487 0
v -960 487 0
v -960 167 0
v -640 519 0
v -640 839 0
v -704 839 0
v -704 519 0
v -640 231 0
v -640 519 0
v -704 519 0
v -704 231 0
v -800 839 0
v -800 967 0
v -864 967 0
v -864 839 0
v -704 199 0
v -704 295 0
v -768 295 0
v -768 199 0
v -1440 167 0
v -1440 263 0
v -1504 263 0
v -1504 167 0
v -960 263 0
v -960 423 0
v -992 423 0
v -992 263 0
v -1184 103 0
v -1184 135 0
v -1344 135 0
v -1344 103 0
v -960 583 0
v -960 711 0
v -992 711 0
v -992 583 0
v -960 135 0
v -960 263 0
v -992 263 0
v -992 135 0
v -1344 103 0
v -1344 135 0
v -1472 135 0
v -1472 103 0
v -960 711 0
v -960 839 0
v -992 839 0
v -992 711 0
v -896 839 0
v -896 871 0
v -960 871 0
v -960 839 0
v -640 167 0
v -640 199 0
v -704 199 0
v -704 167 0
v -1344 71 0
v -1344 103 0
v -1408 103 0
v -1408 71 0
v -704 807 0
v -704 839 0
v -768 839 0
v -768 807 0
v -1408 167 0
v -1408 231 0
v -1440 231 0
v -1440 167 0
v -736 519 0
v -736 583 0
v -768 583 0
v -768 519 0
v -608 167 0
v -608 231 0
v -640 231 0
v -640 167 0
v -608 231 0
v -608 295 0
v -640 295 0
v -640 231 0
v -704 135 0
v -704 167 0
v -736 167 0
v -736 135 0
v -1408 807 0
v -1408 839 0
v -1440 839 0
v -1440 807 0
v -1440 135 0
v -1440 167 0
v -1472 167 0
v -1472 135 0
v -928 135 0
v -928 167 0
v -960 167 0
v -960 135 0
v -768 839 0
v -768 871 0
v -800 871 0
v -800 839 0
v -704 167 0
v -704 199 0
v -736 199 0
v -736 167 0
v -736 487 0
v -736 519 0
v -768 519 0
v -768 487 0
v -1280 903 0
v -1280 935 0
v -1312 935 0
v -1312 903 0
v -1408 135 0
v -1408 167 0
v -1440 167 0
v -1440 135 0
vt 0.0009765625 0.00141245127
vt 0.0009765625 0.498587549
vt 0.407226562 0.498587549
vt 0.407226562 0.00141245127
vt 0.409179688 0.00141245127
vt 0.409179688 0.498587549
vt 0.815429688 0.498587549
vt 0.815429688 0.00141245127
vt 0.0009765625 0.501412392
vt 0.0009765625 0.998587549
vt 0.188476562 0.998587549
vt 0.188476562 0.501412392
vt 0.190429688 0.501412392
vt 0.190429688 0.953389823
vt 0.377929688 0.953389823
vt 0.377929688 0.501412392
vt 0.817382812 0.00141245127
vt 0.817382812 0.453389823
vt 0.879882812 0.453389823
vt 0.879882812 0.00141245127
vt 0.881835938 0.00141245127
vt 0.881835938 0.408192098
vt 0.944335938 0.408192098
vt 0.944335938 0.00141245127
vt 0.881835938 0.411016941
vt 0.881835938 0.591807902
vt 0.944335938 0.591807902
vt 0.944335938 0.411016941
vt 0.817382812 0.456214666
vt 0.817382812 0.591807902
vt 0.879882812 0.591807902
vt 0.879882812 0.456214666
vt 0.379882812 0.501412392
vt 0.379882812 0.637005687
vt 0.442382812 0.637005687
vt 0.442382812 0.501412392
vt 0.946289062 0.00141245127
vt 0.946289062 0.227401137
vt 0.977539062 0.227401137
vt 0.977539062 0.00141245127
vt 0.444335938 0.501412392
vt 0.444335938 0.546610177
vt 0.600585938 0.546610177
vt 0.600585938 0.501412392
vt 0.946289062 0.23022598
vt 0.946289062 0.411016941
vt 0.977539062 0.411016941
vt 0.977539062 0.23022598
vt 0.946289062 0.413841784
vt 0.946289062 0.594632745
vt 0.977539062 0.594632745
vt 0.977539062 0.413841784
vt 0.602539062 0.501412392
vt 0.602539062 0.546610177
vt 0.727539062 0.546610177
vt 0.727539062 0.501412392
vt 0.729492188 0.501412392
vt 0.729492188 0.682203412
vt 0.760742188 0.682203412
vt 0.760742188 0.501412392
vt 0.444335938 0.549435019
vt 0.444335938 0.594632745
vt 0.506835938 0.594632745
vt 0.506835938 0.549435019
vt 0.508789062 0.549435019
vt 0.508789062 0.594632745
vt 0.571289062 0.594632745
vt 0.571289062 0.549435019
vt 0.573242188 0.549435019
vt 0.573242188 0.594632745
vt 0.635742188 0.594632745
vt 0.635742188 0.549435019
vt 0.637695312 0.549435019
vt 0.637695312 0.594632745
vt 0.700195312 0.594632745
vt 0.700195312 0.549435019
vt 0.762695312 0.501412392
vt 0.762695312 0.591807902
vt 0.793945312 0.591807902
vt 0.793945312 0.501412392
vt 0.762695312 0.594632745
vt 0.762695312 0.685028255
vt 0.793945312 0.685028255
vt 0.793945312 0.594632745
vt 0.817382812 0.594632745
vt 0.817382812 0.685028255
vt 0.848632812 0.685028255
vt 0.848632812 0.594632745
vt 0.850585938 0.594632745
vt 0.850585938 0.685028255
vt 0.881835938 0.685028255
vt 0.881835938 0.594632745
vt 0.883789062 0.594632745
vt 0.883789062 0.63983047
vt 0.915039062 0.63983047
vt 0.915039062 0.594632745
vt 0.444335938 0.597457647
vt 0.444335938 0.642655373
vt 0.475585938 0.642655373
vt 0.475585938 0.597457647
vt 0.477539062 0.597457647
vt 0.477539062 0.642655373
vt 0.508789062 0.642655373
vt 0.508789062 0.597457647
vt 0.510742188 0.597457647
vt 0.510742188 0.642655373
vt 0.541992188 0.642655373
vt 0.541992188 0.597457647
vt 0.543945312 0.597457647
vt 0.543945312 0.642655373
vt 0.575195312 0.642655373
vt 0.575195312 0.597457647
vt 0.577148438 0.597457647
vt 0.577148438 0.642655373
vt 0.608398438 0.642655373
vt 0.608398438 0.597457647
vt 0.610351562 0.597457647
vt 0.610351562 0.642655373
vt 0.641601562 0.642655373
vt 0.641601562 0.597457647
vt 0.643554688 0.597457647
vt 0.643554688 0.642655373
vt 0.674804688 0.642655373
vt 0.674804688 0.597457647
vt 0.676757812 0.597457647
vt 0.676757812 0.642655373
vt 0.708007812 0.642655373
vt 0.708007812 0.597457647
g u2501_2_bj-mesh_0
f 3/3/3 2/2/2 1/1/1
f 1/1/1 4/4/4 3/3/3
f 7/7/7 6/6/6 5/5/5
f 5/5/5 8/8/8 7/7/7
f 11/11/11 10/10/10 9/9/9
f 9/9/9 12/12/12 11/11/11
f 15/15/15 14/14/14 13/13/13
f 13/13/13 16/16/16 15/15/15
f 19/19/19 18/18/18 17/17/17
f 17/17/17 20/20/20 19/19/19
f 23/23/23 22/22/22 21/21/21
f 21/21/21 24/24/24 23/23/23
f 27/27/27 26/26/26 25/25/25
f 25/25/25 28/28/28 27/27/27
f 31/31/31 30/30/30 29/29/29
f 29/29/29 32/32/32 31/31/31
f 35/35/35 34/34/34 33/33/33
f 33/33/33 36/36/36 35/35/35
f 39/39/39 38/38/38 37/37/37
f 37/37/37 40/40/40 39/39/39
f 43/43/43 42/42/42 41/41/41
f 41/41/41 44/44/44 43/43/43
f 47/47/47 46/46/46 45/45/45
f 45/45/45 48/48/48 47/47/47
f 51/51/51 50/50/50 49/49/49
f 49/49/49 52/52/52 51/51/51
f 55/55/55 54/54/54 53/53/53
f 53/53/53 56/56/56 55/55/55
f 59/59/59 58/58/58 57/57/57
f 57/57/57 60/60/60 59/59/59
f 63/63/63 62/62/62 61/61/61
f 61/61/61 64/64/64 63/63/63
f 67/67/67 66/66/66 65/65/65
f 65/65/65 68/68/68 67/67/67
f 71/71/71 70/70/70 69/69/69
f 69/69/69 72/72/72 71/71/71
f 75/75/75 74/74/74 73/73/73
f 73/73/73 76/76/76 75/75/75
f 79/79/79 78/78/78 77/77/77
f 77/77/77 80/80/80 79/79/79
f 83/83/83 82/82/82 81/81/81
f 81/81/81 84/84/84 83/83/83
f 87/87/87 86/86/86 85/85/85
f 85/85/85 88/88/88 87/87/87
f 91/91/91 90/90/90 89/89/89
f 89/89/89 92/92/92 91/91/91
f 95/95/95 94/94/94 93/93/93
f 93/93/93 96/96/96 95/95/95
f 99/99/99 98/98/98 97/97/97
f 97/97/97 100/100/100 99/99/99
f 103/103/103 102/102/102 101/101/101
f 101/101/101 104/104/104 103/103/103
f 107/107/107 106/106/106 105/105/105
f 105/105/105 108/108/108 107/107/107
f 111/111/111 110/110/110 109/109/109
f 109/109/109 112/112/112 111/111/111
f 115/115/115 114/114/114 113/113/113
f 113/113/113 116/116/116 115/115/115
f 119/119/119 118/118/118 117/117/117
f 117/117/117 120/120/120 119/119/119
f 123/123/123 122/122/122 121/121/121
f 121/121/121 124/124/124 123/123/123
f 127/127/127 126/126/126 125/125/125
f 125/125/125 128/128/128 127/127/127
