g wuerlixi_bj2-mesh
v -512 848 0
v -512 1264 0
v -800 1264 0
v -800 848 0
v -1344 1104 0
v -1344 1360 0
v -1472 1360 0
v -1472 1104 0
v -1344 880 0
v -1344 1104 0
v -1472 1104 0
v -1472 880 0
v -416 880 0
v -416 1072 0
v -512 1072 0
v -512 880 0
v -1472 1200 0
v -1472 1296 0
v -1632 1296 0
v -1632 1200 0
v -960 464 0
v -960 624 0
v -1056 624 0
v -1056 464 0
v -960 336 0
v -960 464 0
v -1056 464 0
v -1056 336 0
v -512 1264 0
v -512 1360 0
v -608 1360 0
v -608 1264 0
v -1088 528 0
v -1088 624 0
v -1184 624 0
v -1184 528 0
v -1760 1168 0
v -1760 1200 0
v -2047 1200 0
v -2047 1168 0
v -704 752 0
v -704 848 0
v -800 848 0
v -800 752 0
v -1472 1168 0
v -1472 1200 0
v -1760 1200 0
v -1760 1168 0
v -1440 1360 0
v -1440 1424 0
v -1568 1424 0
v -1568 1360 0
v -256 1168 0
v -256 1200 0
v -512 1200 0
v -512 1168 0
v -0 1168 0
v -0 1200 0
v -256 1200 0
v -256 1168 0
v -320 976 0
v -320 1040 0
v -416 1040 0
v -416 976 0
v -1088 432 0
v -1088 528 0
v -1152 528 0
v -1152 432 0
v -1024 144 0
v -1024 336 0
v -1056 336 0
v -1056 144 0
v -768 560 0
v -768 624 0
v -864 624 0
v -864 560 0
v -864 560 0
v -864 624 0
v -960 624 0
v -960 560 0
v -256 784 0
v -256 816 0
v -416 816 0
v -416 784 0
v -1024 0 0
v -1024 144 0
v -1056 144 0
v -1056 0 0
v -352 816 0
v -352 880 0
v -416 880 0
v -416 816 0
v -192 720 0
v -192 784 0
v -256 784 0
v -256 720 0
v -1536 1424 0
v -1536 1488 0
v -1600 1488 0
v -1600 1424 0
v -448 1072 0
v -448 1136 0
v -512 1136 0
v -512 1072 0
v -416 784 0
v -416 816 0
v -544 816 0
v -544 784 0
v -800 432 0
v -800 560 0
v -832 560 0
v -832 432 0
v -800 336 0
v -800 432 0
v -832 432 0
v -832 336 0
v -832 464 0
v -832 560 0
v -864 560 0
v -864 464 0
v -320 1648 0
v -320 1744 0
v -352 1744 0
v -352 1648 0
v -1472 976 0
v -1472 1072 0
v -1504 1072 0
v -1504 976 0
v -1472 1072 0
v -1472 1168 0
v -1504 1168 0
v -1504 1072 0
v -224 976 0
v -224 1008 0
v -288 1008 0
v -288 976 0
v -1472 1328 0
v -1472 1360 0
v -1536 1360 0
v -1536 1328 0
v -1632 1264 0
v -1632 1328 0
v -1664 1328 0
v -1664 1264 0
v -768 336 0
v -768 400 0
v -800 400 0
v -800 336 0
v -480 816 0
v -480 848 0
v -544 848 0
v -544 816 0
v -992 240 0
v -992 304 0
v -1024 304 0
v -1024 240 0
v -448 1392 0
v -448 1456 0
v -480 1456 0
v -480 1392 0
v -1056 208 0
v -1056 272 0
v -1088 272 0
v -1088 208 0
v -1504 976 0
v -1504 1040 0
v -1536 1040 0
v -1536 976 0
v -768 688 0
v -768 752 0
v -800 752 0
v -800 688 0
v -672 720 0
v -672 752 0
v -736 752 0
v -736 720 0
v -1056 560 0
v -1056 624 0
v -1088 624 0
v -1088 560 0
v -928 496 0
v -928 560 0
v -960 560 0
v -960 496 0
v -864 496 0
v -864 560 0
v -896 560 0
v -896 496 0
v -1536 784 0
v -1536 848 0
v -1568 848 0
v -1568 784 0
v -1504 816 0
v -1504 880 0
v -1536 880 0
v -1536 816 0
v -1568 752 0
v -1568 816 0
v -1600 816 0
v -1600 752 0
v -160 688 0
v -160 752 0
v -192 752 0
v -192 688 0
v -256 752 0
v -256 784 0
v -320 784 0
v -320 752 0
v -672 1264 0
v -672 1296 0
v -736 1296 0
v -736 1264 0
v -608 1264 0
v -608 1296 0
v -672 1296 0
v -672 1264 0
v -480 1296 0
v -480 1360 0
v -512 1360 0
v -512 1296 0
v -1056 432 0
v -1056 496 0
v -1088 496 0
v -1088 432 0
v -1472 816 0
v -1472 880 0
v -1504 880 0
v -1504 816 0
v -1472 880 0
v -1472 944 0
v -1504 944 0
v -1504 880 0
v -352 1584 0
v -352 1648 0
v -384 1648 0
v -384 1584 0
v -832 400 0
v -832 464 0
v -864 464 0
v -864 400 0
v -320 1584 0
v -320 1648 0
v -352 1648 0
v -352 1584 0
v -480 1360 0
v -480 1424 0
v -512 1424 0
v -512 1360 0
v -384 1456 0
v -384 1520 0
v -416 1520 0
v -416 1456 0
v -384 1520 0
v -384 1584 0
v -416 1584 0
v -416 1520 0
v -1504 1136 0
v -1504 1168 0
v -1568 1168 0
v -1568 1136 0
v -1952 1200 0
v -1952 1232 0
v -2016 1232 0
v -2016 1200 0
v -352 1520 0
v -352 1584 0
v -384 1584 0
v -384 1520 0
v -1056 368 0
v -1056 432 0
v -1088 432 0
v -1088 368 0
v -416 1456 0
v -416 1520 0
v -448 1520 0
v -448 1456 0
v -1952 1136 0
v -1952 1168 0
v -1984 1168 0
v -1984 1136 0
v -1632 1200 0
v -1632 1232 0
v -1664 1232 0
v -1664 1200 0
v -480 1200 0
v -480 1232 0
v -512 1232 0
v -512 1200 0
v -480 1136 0
v -480 1168 0
v -512 1168 0
v -512 1136 0
v -1664 1296 0
v -1664 1328 0
v -1696 1328 0
v -1696 1296 0
v -1088 400 0
v -1088 432 0
v -1120 432 0
v -1120 400 0
v -320 816 0
v -320 848 0
v -352 848 0
v -352 816 0
v -1440 848 0
v -1440 880 0
v -1472 880 0
v -1472 848 0
v -416 848 0
v -416 880 0
v -448 880 0
v -448 848 0
v -608 816 0
v -608 848 0
v -640 848 0
v -640 816 0
v -384 1040 0
v -384 1072 0
v -416 1072 0
v -416 1040 0
v -768 624 0
v -768 656 0
v -800 656 0
v -800 624 0
v -480 752 0
v -480 784 0
v -512 784 0
v -512 752 0
v -768 304 0
v -768 336 0
v -800 336 0
v -800 304 0
v -416 1424 0
v -416 1456 0
v -448 1456 0
v -448 1424 0
v -992 208 0
v -992 240 0
v -1024 240 0
v -1024 208 0
v -288 976 0
v -288 1008 0
v -320 1008 0
v -320 976 0
v -2016 1200 0
v -2016 1232 0
v -2047 1232 0
v -2047 1200 0
v -544 816 0
v -544 848 0
v -576 848 0
v -576 816 0
v -1056 176 0
v -1056 208 0
v -1088 208 0
v -1088 176 0
v -512 1360 0
v -512 1392 0
v -544 1392 0
v -544 1360 0
v -1408 1360 0
v -1408 1392 0
v -1440 1392 0
v -1440 1360 0
v -608 1296 0
v -608 1328 0
v -640 1328 0
v -640 1296 0
v -1568 1136 0
v -1568 1168 0
v -1600 1168 0
v -1600 1136 0
v -1504 1424 0
v -1504 1456 0
v -1536 1456 0
v -1536 1424 0
v -1568 1392 0
v -1568 1424 0
v -1600 1424 0
v -1600 1392 0
vt 0.0009765625 0.00164747238
vt 0.0009765625 0.686985135
vt 0.282226562 0.686985135
vt 0.282226562 0.00164747238
vt 0.284179688 0.00164747238
vt 0.284179688 0.423393726
vt 0.409179688 0.423393726
vt 0.409179688 0.00164747238
vt 0.411132812 0.00164747238
vt 0.411132812 0.370675445
vt 0.536132812 0.370675445
vt 0.536132812 0.00164747238
vt 0.538085938 0.00164747238
vt 0.538085938 0.317957163
vt 0.631835938 0.317957163
vt 0.631835938 0.00164747238
vt 0.633789062 0.00164747238
vt 0.633789062 0.159802318
vt 0.790039062 0.159802318
vt 0.790039062 0.00164747238
vt 0.791992188 0.00164747238
vt 0.791992188 0.265238881
vt 0.885742188 0.265238881
vt 0.885742188 0.00164747238
vt 0.887695312 0.00164747238
vt 0.887695312 0.212520599
vt 0.981445312 0.212520599
vt 0.981445312 0.00164747238
vt 0.633789062 0.163097203
vt 0.633789062 0.321252048
vt 0.727539062 0.321252048
vt 0.727539062 0.163097203
vt 0.887695312 0.215815485
vt 0.887695312 0.37397033
vt 0.981445312 0.37397033
vt 0.981445312 0.215815485
vt 0.411132812 0.37397033
vt 0.411132812 0.426688612
vt 0.692382812 0.426688612
vt 0.692382812 0.37397033
vt 0.791992188 0.268533766
vt 0.791992188 0.426688612
vt 0.885742188 0.426688612
vt 0.885742188 0.268533766
vt 0.411132812 0.429983497
vt 0.411132812 0.482701838
vt 0.692382812 0.482701838
vt 0.692382812 0.429983497
vt 0.284179688 0.426688612
vt 0.284179688 0.532125235
vt 0.409179688 0.532125235
vt 0.409179688 0.426688612
vt 0.411132812 0.485996723
vt 0.411132812 0.538715005
vt 0.661132812 0.538715005
vt 0.661132812 0.485996723
vt 0.663085938 0.485996723
vt 0.663085938 0.538715005
vt 0.913085938 0.538715005
vt 0.913085938 0.485996723
vt 0.284179688 0.53542006
vt 0.284179688 0.640856683
vt 0.377929688 0.640856683
vt 0.377929688 0.53542006
vt 0.915039062 0.377265215
vt 0.915039062 0.53542006
vt 0.977539062 0.53542006
vt 0.977539062 0.377265215
vt 0.915039062 0.538715005
vt 0.915039062 0.855024695
vt 0.946289062 0.855024695
vt 0.946289062 0.538715005
vt 0.411132812 0.54200989
vt 0.411132812 0.647446454
vt 0.504882812 0.647446454
vt 0.504882812 0.54200989
vt 0.506835938 0.54200989
vt 0.506835938 0.647446454
vt 0.600585938 0.647446454
vt 0.600585938 0.54200989
vt 0.602539062 0.54200989
vt 0.602539062 0.594728172
vt 0.758789062 0.594728172
vt 0.758789062 0.54200989
vt 0.948242188 0.538715005
vt 0.948242188 0.777594745
vt 0.979492188 0.777594745
vt 0.979492188 0.538715005
vt 0.760742188 0.54200989
vt 0.760742188 0.647446454
vt 0.823242188 0.647446454
vt 0.823242188 0.54200989
vt 0.825195312 0.54200989
vt 0.825195312 0.647446454
vt 0.887695312 0.647446454
vt 0.887695312 0.54200989
vt 0.602539062 0.598023057
vt 0.602539062 0.70345962
vt 0.665039062 0.70345962
vt 0.665039062 0.598023057
vt 0.666992188 0.598023057
vt 0.666992188 0.70345962
vt 0.729492188 0.70345962
vt 0.729492188 0.598023057
vt 0.284179688 0.644151568
vt 0.284179688 0.69686985
vt 0.409179688 0.69686985
vt 0.409179688 0.644151568
vt 0.411132812 0.650741339
vt 0.411132812 0.861614466
vt 0.442382812 0.861614466
vt 0.442382812 0.650741339
vt 0.444335938 0.650741339
vt 0.444335938 0.808896184
vt 0.475585938 0.808896184
vt 0.475585938 0.650741339
vt 0.477539062 0.650741339
vt 0.477539062 0.808896184
vt 0.508789062 0.808896184
vt 0.508789062 0.650741339
vt 0.510742188 0.650741339
vt 0.510742188 0.808896184
vt 0.541992188 0.808896184
vt 0.541992188 0.650741339
vt 0.543945312 0.650741339
vt 0.543945312 0.808896184
vt 0.575195312 0.808896184
vt 0.575195312 0.650741339
vt 0.760742188 0.650741339
vt 0.760742188 0.808896184
vt 0.791992188 0.808896184
vt 0.791992188 0.650741339
vt 0.793945312 0.650741339
vt 0.793945312 0.70345962
vt 0.856445312 0.70345962
vt 0.856445312 0.650741339
vt 0.0009765625 0.69028008
vt 0.0009765625 0.742998362
vt 0.0634765625 0.742998362
vt 0.0634765625 0.69028008
vt 0.858398438 0.650741339
vt 0.858398438 0.756177902
vt 0.889648438 0.756177902
vt 0.889648438 0.650741339
vt 0.0654296875 0.69028008
vt 0.0654296875 0.795716643
vt 0.0966796875 0.795716643
vt 0.0966796875 0.69028008
vt 0.0986328125 0.69028008
vt 0.0986328125 0.742998362
vt 0.161132812 0.742998362
vt 0.161132812 0.69028008
vt 0.163085938 0.69028008
vt 0.163085938 0.795716643
vt 0.194335938 0.795716643
vt 0.194335938 0.69028008
vt 0.196289062 0.69028008
vt 0.196289062 0.795716643
vt 0.227539062 0.795716643
vt 0.227539062 0.69028008
vt 0.229492188 0.69028008
vt 0.229492188 0.795716643
vt 0.260742188 0.795716643
vt 0.260742188 0.69028008
vt 0.284179688 0.700164735
vt 0.284179688 0.805601299
vt 0.315429688 0.805601299
vt 0.315429688 0.700164735
vt 0.317382812 0.700164735
vt 0.317382812 0.805601299
vt 0.348632812 0.805601299
vt 0.348632812 0.700164735
vt 0.602539062 0.706754565
vt 0.602539062 0.759472847
vt 0.665039062 0.759472847
vt 0.665039062 0.706754565
vt 0.350585938 0.700164735
vt 0.350585938 0.805601299
vt 0.381835938 0.805601299
vt 0.381835938 0.700164735
vt 0.666992188 0.706754565
vt 0.666992188 0.812191129
vt 0.698242188 0.812191129
vt 0.698242188 0.706754565
vt 0.700195312 0.706754565
vt 0.700195312 0.812191129
vt 0.731445312 0.812191129
vt 0.731445312 0.706754565
vt 0.793945312 0.706754565
vt 0.793945312 0.812191129
vt 0.825195312 0.812191129
vt 0.825195312 0.706754565
vt 0.0009765625 0.746293247
vt 0.0009765625 0.85172981
vt 0.0322265625 0.85172981
vt 0.0322265625 0.746293247
vt 0.0986328125 0.746293247
vt 0.0986328125 0.85172981
vt 0.129882812 0.85172981
vt 0.129882812 0.746293247
vt 0.858398438 0.759472847
vt 0.858398438 0.86490941
vt 0.889648438 0.86490941
vt 0.889648438 0.759472847
vt 0.602539062 0.762767732
vt 0.602539062 0.815486014
vt 0.665039062 0.815486014
vt 0.665039062 0.762767732
vt 0.163085938 0.799011528
vt 0.163085938 0.85172981
vt 0.225585938 0.85172981
vt 0.225585938 0.799011528
vt 0.284179688 0.808896184
vt 0.284179688 0.861614466
vt 0.346679688 0.861614466
vt 0.346679688 0.808896184
vt 0.948242188 0.78088963
vt 0.948242188 0.886326194
vt 0.979492188 0.886326194
vt 0.979492188 0.78088963
vt 0.0654296875 0.799011528
vt 0.0654296875 0.904448092
vt 0.0966796875 0.904448092
vt 0.0966796875 0.799011528
vt 0.227539062 0.799011528
vt 0.227539062 0.904448092
vt 0.258789062 0.904448092
vt 0.258789062 0.799011528
vt 0.348632812 0.808896184
vt 0.348632812 0.914332807
vt 0.379882812 0.914332807
vt 0.379882812 0.808896184
vt 0.444335938 0.812191129
vt 0.444335938 0.917627692
vt 0.475585938 0.917627692
vt 0.475585938 0.812191129
vt 0.477539062 0.812191129
vt 0.477539062 0.917627692
vt 0.508789062 0.917627692
vt 0.508789062 0.812191129
vt 0.510742188 0.812191129
vt 0.510742188 0.917627692
vt 0.541992188 0.917627692
vt 0.541992188 0.812191129
vt 0.543945312 0.812191129
vt 0.543945312 0.917627692
vt 0.575195312 0.917627692
vt 0.575195312 0.812191129
vt 0.760742188 0.812191129
vt 0.760742188 0.917627692
vt 0.791992188 0.917627692
vt 0.791992188 0.812191129
vt 0.666992188 0.815486014
vt 0.666992188 0.920922577
vt 0.698242188 0.920922577
vt 0.698242188 0.815486014
vt 0.793945312 0.815486014
vt 0.793945312 0.868204296
vt 0.856445312 0.868204296
vt 0.856445312 0.815486014
vt 0.602539062 0.818780899
vt 0.602539062 0.871499181
vt 0.665039062 0.871499181
vt 0.665039062 0.818780899
vt 0.700195312 0.815486014
vt 0.700195312 0.920922577
vt 0.731445312 0.920922577
vt 0.731445312 0.815486014
vt 0.0009765625 0.855024695
vt 0.0009765625 0.960461259
vt 0.0322265625 0.960461259
vt 0.0322265625 0.855024695
vt 0.0986328125 0.855024695
vt 0.0986328125 0.960461259
vt 0.129882812 0.960461259
vt 0.129882812 0.855024695
vt 0.163085938 0.855024695
vt 0.163085938 0.907742977
vt 0.194335938 0.907742977
vt 0.194335938 0.855024695
vt 0.915039062 0.85831964
vt 0.915039062 0.911037922
vt 0.946289062 0.911037922
vt 0.946289062 0.85831964
vt 0.284179688 0.86490941
vt 0.284179688 0.917627692
vt 0.315429688 0.917627692
vt 0.315429688 0.86490941
vt 0.411132812 0.86490941
vt 0.411132812 0.917627692
vt 0.442382812 0.917627692
vt 0.442382812 0.86490941
vt 0.858398438 0.868204296
vt 0.858398438 0.920922577
vt 0.889648438 0.920922577
vt 0.889648438 0.868204296
vt 0.793945312 0.871499181
vt 0.793945312 0.924217463
vt 0.825195312 0.924217463
vt 0.825195312 0.871499181
vt 0.602539062 0.874794066
vt 0.602539062 0.927512348
vt 0.633789062 0.927512348
vt 0.633789062 0.874794066
vt 0.948242188 0.889621079
vt 0.948242188 0.942339361
vt 0.979492188 0.942339361
vt 0.979492188 0.889621079
vt 0.0654296875 0.907742977
vt 0.0654296875 0.960461259
vt 0.0966796875 0.960461259
vt 0.0966796875 0.907742977
vt 0.227539062 0.907742977
vt 0.227539062 0.960461259
vt 0.258789062 0.960461259
vt 0.258789062 0.907742977
vt 0.163085938 0.911037922
vt 0.163085938 0.963756204
vt 0.194335938 0.963756204
vt 0.194335938 0.911037922
vt 0.915039062 0.914332807
vt 0.915039062 0.967051089
vt 0.946289062 0.967051089
vt 0.946289062 0.914332807
vt 0.348632812 0.917627692
vt 0.348632812 0.970345974
vt 0.379882812 0.970345974
vt 0.379882812 0.917627692
vt 0.284179688 0.920922577
vt 0.284179688 0.973640859
vt 0.315429688 0.973640859
vt 0.315429688 0.920922577
vt 0.411132812 0.920922577
vt 0.411132812 0.973640859
vt 0.442382812 0.973640859
vt 0.442382812 0.920922577
vt 0.444335938 0.920922577
vt 0.444335938 0.973640859
vt 0.475585938 0.973640859
vt 0.475585938 0.920922577
vt 0.477539062 0.920922577
vt 0.477539062 0.973640859
vt 0.508789062 0.973640859
vt 0.508789062 0.920922577
vt 0.510742188 0.920922577
vt 0.510742188 0.973640859
vt 0.541992188 0.973640859
vt 0.541992188 0.920922577
vt 0.543945312 0.920922577
vt 0.543945312 0.973640859
vt 0.575195312 0.973640859
vt 0.575195312 0.920922577
vt 0.760742188 0.920922577
vt 0.760742188 0.973640859
vt 0.791992188 0.973640859
vt 0.791992188 0.920922577
vt 0.666992188 0.924217463
vt 0.666992188 0.976935744
vt 0.698242188 0.976935744
vt 0.698242188 0.924217463
vt 0.700195312 0.924217463
vt 0.700195312 0.976935744
vt 0.731445312 0.976935744
vt 0.731445312 0.924217463
vt 0.858398438 0.924217463
vt 0.858398438 0.976935744
vt 0.889648438 0.976935744
vt 0.889648438 0.924217463
vt 0.793945312 0.927512348
vt 0.793945312 0.980230629
vt 0.825195312 0.980230629
vt 0.825195312 0.927512348
vt 0.602539062 0.930807233
vt 0.602539062 0.983525515
vt 0.633789062 0.983525515
vt 0.633789062 0.930807233
vt 0.948242188 0.945634246
vt 0.948242188 0.998352528
vt 0.979492188 0.998352528
vt 0.979492188 0.945634246
g wuerlixi_bj2-mesh_0
f 3/3/3 2/2/2 1/1/1
f 1/1/1 4/4/4 3/3/3
f 7/7/7 6/6/6 5/5/5
f 5/5/5 8/8/8 7/7/7
f 11/11/11 10/10/10 9/9/9
f 9/9/9 12/12/12 11/11/11
f 15/15/15 14/14/14 13/13/13
f 13/13/13 16/16/16 15/15/15
f 19/19/19 18/18/18 17/17/17
f 17/17/17 20/20/20 19/19/19
f 23/23/23 22/22/22 21/21/21
f 21/21/21 24/24/24 23/23/23
f 27/27/27 26/26/26 25/25/25
f 25/25/25 28/28/28 27/27/27
f 31/31/31 30/30/30 29/29/29
f 29/29/29 32/32/32 31/31/31
f 35/35/35 34/34/34 33/33/33
f 33/33/33 36/36/36 35/35/35
f 39/39/39 38/38/38 37/37/37
f 37/37/37 40/40/40 39/39/39
f 43/43/43 42/42/42 41/41/41
f 41/41/41 44/44/44 43/43/43
f 47/47/47 46/46/46 45/45/45
f 45/45/45 48/48/48 47/47/47
f 51/51/51 50/50/50 49/49/49
f 49/49/49 52/52/52 51/51/51
f 55/55/55 54/54/54 53/53/53
f 53/53/53 56/56/56 55/55/55
f 59/59/59 58/58/58 57/57/57
f 57/57/57 60/60/60 59/59/59
f 63/63/63 62/62/62 61/61/61
f 61/61/61 64/64/64 63/63/63
f 67/67/67 66/66/66 65/65/65
f 65/65/65 68/68/68 67/67/67
f 71/71/71 70/70/70 69/69/69
f 69/69/69 72/72/72 71/71/71
f 75/75/75 74/74/74 73/73/73
f 73/73/73 76/76/76 75/75/75
f 79/79/79 78/78/78 77/77/77
f 77/77/77 80/80/80 79/79/79
f 83/83/83 82/82/82 81/81/81
f 81/81/81 84/84/84 83/83/83
f 87/87/87 86/86/86 85/85/85
f 85/85/85 88/88/88 87/87/87
f 91/91/91 90/90/90 89/89/89
f 89/89/89 92/92/92 91/91/91
f 95/95/95 94/94/94 93/93/93
f 93/93/93 96/96/96 95/95/95
f 99/99/99 98/98/98 97/97/97
f 97/97/97 100/100/100 99/99/99
f 103/103/103 102/102/102 101/101/101
f 101/101/101 104/104/104 103/103/103
f 107/107/107 106/106/106 105/105/105
f 105/105/105 108/108/108 107/107/107
f 111/111/111 110/110/110 109/109/109
f 109/109/109 112/112/112 111/111/111
f 115/115/115 114/114/114 113/113/113
f 113/113/113 116/116/116 115/115/115
f 119/119/119 118/118/118 117/117/117
f 117/117/117 120/120/120 119/119/119
f 123/123/123 122/122/122 121/121/121
f 121/121/121 124/124/124 123/123/123
f 127/127/127 126/126/126 125/125/125
f 125/125/125 128/128/128 127/127/127
f 131/131/131 130/130/130 129/129/129
f 129/129/129 132/132/132 131/131/131
f 135/135/135 134/134/134 133/133/133
f 133/133/133 136/136/136 135/135/135
f 139/139/139 138/138/138 137/137/137
f 137/137/137 140/140/140 139/139/139
f 143/143/143 142/142/142 141/141/141
f 141/141/141 144/144/144 143/143/143
f 147/147/147 146/146/146 145/145/145
f 145/145/145 148/148/148 147/147/147
f 151/151/151 150/150/150 149/149/149
f 149/149/149 152/152/152 151/151/151
f 155/155/155 154/154/154 153/153/153
f 153/153/153 156/156/156 155/155/155
f 159/159/159 158/158/158 157/157/157
f 157/157/157 160/160/160 159/159/159
f 163/163/163 162/162/162 161/161/161
f 161/161/161 164/164/164 163/163/163
f 167/167/167 166/166/166 165/165/165
f 165/165/165 168/168/168 167/167/167
f 171/171/171 170/170/170 169/169/169
f 169/169/169 172/172/172 171/171/171
f 175/175/175 174/174/174 173/173/173
f 173/173/173 176/176/176 175/175/175
f 179/179/179 178/178/178 177/177/177
f 177/177/177 180/180/180 179/179/179
f 183/183/183 182/182/182 181/181/181
f 181/181/181 184/184/184 183/183/183
f 187/187/187 186/186/186 185/185/185
f 185/185/185 188/188/188 187/187/187
f 191/191/191 190/190/190 189/189/189
f 189/189/189 192/192/192 191/191/191
f 195/195/195 194/194/194 193/193/193
f 193/193/193 196/196/196 195/195/195
f 199/199/199 198/198/198 197/197/197
f 197/197/197 200/200/200 199/199/199
f 203/203/203 202/202/202 201/201/201
f 201/201/201 204/204/204 203/203/203
f 207/207/207 206/206/206 205/205/205
f 205/205/205 208/208/208 207/207/207
f 211/211/211 210/210/210 209/209/209
f 209/209/209 212/212/212 211/211/211
f 215/215/215 214/214/214 213/213/213
f 213/213/213 216/216/216 215/215/215
f 219/219/219 218/218/218 217/217/217
f 217/217/217 220/220/220 219/219/219
f 223/223/223 222/222/222 221/221/221
f 221/221/221 224/224/224 223/223/223
f 227/227/227 226/226/226 225/225/225
f 225/225/225 228/228/228 227/227/227
f 231/231/231 230/230/230 229/229/229
f 229/229/229 232/232/232 231/231/231
f 235/235/235 234/234/234 233/233/233
f 233/233/233 236/236/236 235/235/235
f 239/239/239 238/238/238 237/237/237
f 237/237/237 240/240/240 239/239/239
f 243/243/243 242/242/242 241/241/241
f 241/241/241 244/244/244 243/243/243
f 247/247/247 246/246/246 245/245/245
f 245/245/245 248/248/248 247/247/247
f 251/251/251 250/250/250 249/249/249
f 249/249/249 252/252/252 251/251/251
f 255/255/255 254/254/254 253/253/253
f 253/253/253 256/256/256 255/255/255
f 259/259/259 258/258/258 257/257/257
f 257/257/257 260/260/260 259/259/259
f 263/263/263 262/262/262 261/261/261
f 261/261/261 264/264/264 263/263/263
f 267/267/267 266/266/266 265/265/265
f 265/265/265 268/268/268 267/267/267
f 271/271/271 270/270/270 269/269/269
f 269/269/269 272/272/272 271/271/271
f 275/275/275 274/274/274 273/273/273
f 273/273/273 276/276/276 275/275/275
f 279/279/279 278/278/278 277/277/277
f 277/277/277 280/280/280 279/279/279
f 283/283/283 282/282/282 281/281/281
f 281/281/281 284/284/284 283/283/283
f 287/287/287 286/286/286 285/285/285
f 285/285/285 288/288/288 287/287/287
f 291/291/291 290/290/290 289/289/289
f 289/289/289 292/292/292 291/291/291
f 295/295/295 294/294/294 293/293/293
f 293/293/293 296/296/296 295/295/295
f 299/299/299 298/298/298 297/297/297
f 297/297/297 300/300/300 299/299/299
f 303/303/303 302/302/302 301/301/301
f 301/301/301 304/304/304 303/303/303
f 307/307/307 306/306/306 305/305/305
f 305/305/305 308/308/308 307/307/307
f 311/311/311 310/310/310 309/309/309
f 309/309/309 312/312/312 311/311/311
f 315/315/315 314/314/314 313/313/313
f 313/313/313 316/316/316 315/315/315
f 319/319/319 318/318/318 317/317/317
f 317/317/317 320/320/320 319/319/319
f 323/323/323 322/322/322 321/321/321
f 321/321/321 324/324/324 323/323/323
f 327/327/327 326/326/326 325/325/325
f 325/325/325 328/328/328 327/327/327
f 331/331/331 330/330/330 329/329/329
f 329/329/329 332/332/332 331/331/331
f 335/335/335 334/334/334 333/333/333
f 333/333/333 336/336/336 335/335/335
f 339/339/339 338/338/338 337/337/337
f 337/337/337 340/340/340 339/339/339
f 343/343/343 342/342/342 341/341/341
f 341/341/341 344/344/344 343/343/343
f 347/347/347 346/346/346 345/345/345
f 345/345/345 348/348/348 347/347/347
f 351/351/351 350/350/350 349/349/349
f 349/349/349 352/352/352 351/351/351
f 355/355/355 354/354/354 353/353/353
f 353/353/353 356/356/356 355/355/355
f 359/359/359 358/358/358 357/357/357
f 357/357/357 360/360/360 359/359/359
f 363/363/363 362/362/362 361/361/361
f 361/361/361 364/364/364 363/363/363
f 367/367/367 366/366/366 365/365/365
f 365/365/365 368/368/368 367/367/367
f 371/371/371 370/370/370 369/369/369
f 369/369/369 372/372/372 371/371/371
f 375/375/375 374/374/374 373/373/373
f 373/373/373 376/376/376 375/375/375
f 379/379/379 378/378/378 377/377/377
f 377/377/377 380/380/380 379/379/379
