g botelan_2-mesh
v -448 351 0
v -448 543 0
v -704 543 0
v -704 351 0
v -192 351 0
v -192 543 0
v -448 543 0
v -448 351 0
v -320 159 0
v -320 351 0
v -416 351 0
v -416 159 0
v -416 0 0
v -416 159 0
v -512 159 0
v -512 0 0
v -416 287 0
v -416 351 0
v -544 351 0
v -544 287 0
v -0 479 0
v -0 543 0
v -128 543 0
v -128 479 0
v -128 255 0
v -128 383 0
v -192 383 0
v -192 255 0
v -128 383 0
v -128 511 0
v -192 511 0
v -192 383 0
v -256 255 0
v -256 351 0
v -320 351 0
v -320 255 0
v -704 351 0
v -704 447 0
v -744 447 0
v -744 351 0
v -64 191 0
v -64 287 0
v -128 287 0
v -128 191 0
v -64 95 0
v -64 191 0
v -128 191 0
v -128 95 0
v -416 191 0
v -416 255 0
v -448 255 0
v -448 191 0
v -128 191 0
v -128 255 0
v -160 255 0
v -160 191 0
v -192 287 0
v -192 351 0
v -224 351 0
v -224 287 0
v -352 127 0
v -352 159 0
v -416 159 0
v -416 127 0
v -672 319 0
v -672 351 0
v -736 351 0
v -736 319 0
v -96 319 0
v -96 383 0
v -128 383 0
v -128 319 0
v -32 95 0
v -32 159 0
v -64 159 0
v -64 95 0
v -32 159 0
v -32 223 0
v -64 223 0
v -64 159 0
v -544 319 0
v -544 351 0
v -608 351 0
v -608 319 0
v -704 447 0
v -704 479 0
v -736 479 0
v -736 447 0
v -288 223 0
v -288 255 0
v -320 255 0
v -320 223 0
v -448 159 0
v -448 191 0
v -480 191 0
v -480 159 0
v -224 319 0
v -224 351 0
v -256 351 0
v -256 319 0
v -384 95 0
v -384 127 0
v -416 127 0
v -416 95 0
v -608 319 0
v -608 351 0
v -640 351 0
v -640 319 0
v -96 287 0
v -96 319 0
v -128 319 0
v -128 287 0
v -128 159 0
v -128 191 0
v -160 191 0
v -160 159 0
v -96 447 0
v -96 479 0
v -128 479 0
v -128 447 0
v -416 159 0
v -416 191 0
v -448 191 0
v -448 159 0
vt 0.0009765625 0.00381678343
vt 0.0009765625 0.736641228
vt 0.250976562 0.736641228
vt 0.250976562 0.00381678343
vt 0.252929688 0.00381678343
vt 0.252929688 0.736641228
vt 0.502929688 0.736641228
vt 0.502929688 0.00381678343
vt 0.504882812 0.00381678343
vt 0.504882812 0.736641228
vt 0.598632812 0.736641228
vt 0.598632812 0.00381678343
vt 0.600585938 0.00381678343
vt 0.600585938 0.61450386
vt 0.694335938 0.61450386
vt 0.694335938 0.00381678343
vt 0.696289062 0.00381678343
vt 0.696289062 0.248091578
vt 0.821289062 0.248091578
vt 0.821289062 0.00381678343
vt 0.823242188 0.00381678343
vt 0.823242188 0.248091578
vt 0.948242188 0.248091578
vt 0.948242188 0.00381678343
vt 0.696289062 0.255725205
vt 0.696289062 0.744274795
vt 0.758789062 0.744274795
vt 0.758789062 0.255725205
vt 0.760742188 0.255725205
vt 0.760742188 0.744274795
vt 0.823242188 0.744274795
vt 0.823242188 0.255725205
vt 0.825195312 0.255725205
vt 0.825195312 0.622137427
vt 0.887695312 0.622137427
vt 0.887695312 0.255725205
vt 0.950195312 0.00381678343
vt 0.950195312 0.370229006
vt 0.990234375 0.370229006
vt 0.990234375 0.00381678343
vt 0.600585938 0.622137427
vt 0.600585938 0.98854959
vt 0.663085938 0.98854959
vt 0.663085938 0.622137427
vt 0.825195312 0.629770994
vt 0.825195312 0.996183217
vt 0.887695312 0.996183217
vt 0.887695312 0.629770994
vt 0.889648438 0.255725205
vt 0.889648438 0.5
vt 0.920898438 0.5
vt 0.920898438 0.255725205
vt 0.950195312 0.377862573
vt 0.950195312 0.622137427
vt 0.981445312 0.622137427
vt 0.981445312 0.377862573
vt 0.889648438 0.507633567
vt 0.889648438 0.751908422
vt 0.920898438 0.751908422
vt 0.920898438 0.507633567
vt 0.0009765625 0.744274795
vt 0.0009765625 0.866412222
vt 0.0634765625 0.866412222
vt 0.0634765625 0.744274795
vt 0.0654296875 0.744274795
vt 0.0654296875 0.866412222
vt 0.127929688 0.866412222
vt 0.127929688 0.744274795
vt 0.950195312 0.629770994
vt 0.950195312 0.874045789
vt 0.981445312 0.874045789
vt 0.981445312 0.629770994
vt 0.129882812 0.744274795
vt 0.129882812 0.98854959
vt 0.161132812 0.98854959
vt 0.161132812 0.744274795
vt 0.163085938 0.744274795
vt 0.163085938 0.98854959
vt 0.194335938 0.98854959
vt 0.194335938 0.744274795
vt 0.196289062 0.744274795
vt 0.196289062 0.866412222
vt 0.258789062 0.866412222
vt 0.258789062 0.744274795
vt 0.260742188 0.744274795
vt 0.260742188 0.866412222
vt 0.291992188 0.866412222
vt 0.291992188 0.744274795
vt 0.293945312 0.744274795
vt 0.293945312 0.866412222
vt 0.325195312 0.866412222
vt 0.325195312 0.744274795
vt 0.327148438 0.744274795
vt 0.327148438 0.866412222
vt 0.358398438 0.866412222
vt 0.358398438 0.744274795
vt 0.360351562 0.744274795
vt 0.360351562 0.866412222
vt 0.391601562 0.866412222
vt 0.391601562 0.744274795
vt 0.393554688 0.744274795
vt 0.393554688 0.866412222
vt 0.424804688 0.866412222
vt 0.424804688 0.744274795
vt 0.426757812 0.744274795
vt 0.426757812 0.866412222
vt 0.458007812 0.866412222
vt 0.458007812 0.744274795
vt 0.459960938 0.744274795
vt 0.459960938 0.866412222
vt 0.491210938 0.866412222
vt 0.491210938 0.744274795
vt 0.493164062 0.744274795
vt 0.493164062 0.866412222
vt 0.524414062 0.866412222
vt 0.524414062 0.744274795
vt 0.526367188 0.744274795
vt 0.526367188 0.866412222
vt 0.557617188 0.866412222
vt 0.557617188 0.744274795
vt 0.559570312 0.744274795
vt 0.559570312 0.866412222
vt 0.590820312 0.866412222
vt 0.590820312 0.744274795
g botelan_2-mesh_0
f 3/3/3 2/2/2 1/1/1
f 1/1/1 4/4/4 3/3/3
f 7/7/7 6/6/6 5/5/5
f 5/5/5 8/8/8 7/7/7
f 11/11/11 10/10/10 9/9/9
f 9/9/9 12/12/12 11/11/11
f 15/15/15 14/14/14 13/13/13
f 13/13/13 16/16/16 15/15/15
f 19/19/19 18/18/18 17/17/17
f 17/17/17 20/20/20 19/19/19
f 23/23/23 22/22/22 21/21/21
f 21/21/21 24/24/24 23/23/23
f 27/27/27 26/26/26 25/25/25
f 25/25/25 28/28/28 27/27/27
f 31/31/31 30/30/30 29/29/29
f 29/29/29 32/32/32 31/31/31
f 35/35/35 34/34/34 33/33/33
f 33/33/33 36/36/36 35/35/35
f 39/39/39 38/38/38 37/37/37
f 37/37/37 40/40/40 39/39/39
f 43/43/43 42/42/42 41/41/41
f 41/41/41 44/44/44 43/43/43
f 47/47/47 46/46/46 45/45/45
f 45/45/45 48/48/48 47/47/47
f 51/51/51 50/50/50 49/49/49
f 49/49/49 52/52/52 51/51/51
f 55/55/55 54/54/54 53/53/53
f 53/53/53 56/56/56 55/55/55
f 59/59/59 58/58/58 57/57/57
f 57/57/57 60/60/60 59/59/59
f 63/63/63 62/62/62 61/61/61
f 61/61/61 64/64/64 63/63/63
f 67/67/67 66/66/66 65/65/65
f 65/65/65 68/68/68 67/67/67
f 71/71/71 70/70/70 69/69/69
f 69/69/69 72/72/72 71/71/71
f 75/75/75 74/74/74 73/73/73
f 73/73/73 76/76/76 75/75/75
f 79/79/79 78/78/78 77/77/77
f 77/77/77 80/80/80 79/79/79
f 83/83/83 82/82/82 81/81/81
f 81/81/81 84/84/84 83/83/83
f 87/87/87 86/86/86 85/85/85
f 85/85/85 88/88/88 87/87/87
f 91/91/91 90/90/90 89/89/89
f 89/89/89 92/92/92 91/91/91
f 95/95/95 94/94/94 93/93/93
f 93/93/93 96/96/96 95/95/95
f 99/99/99 98/98/98 97/97/97
f 97/97/97 100/100/100 99/99/99
f 103/103/103 102/102/102 101/101/101
f 101/101/101 104/104/104 103/103/103
f 107/107/107 106/106/106 105/105/105
f 105/105/105 108/108/108 107/107/107
f 111/111/111 110/110/110 109/109/109
f 109/109/109 112/112/112 111/111/111
f 115/115/115 114/114/114 113/113/113
f 113/113/113 116/116/116 115/115/115
f 119/119/119 118/118/118 117/117/117
f 117/117/117 120/120/120 119/119/119
f 123/123/123 122/122/122 121/121/121
f 121/121/121 124/124/124 123/123/123
