g mingniabolisi_2-mesh
v -352 300 0
v -352 588 0
v -832 588 0
v -832 300 0
v -352 588 0
v -352 876 0
v -832 876 0
v -832 588 0
v -448 76 0
v -448 300 0
v -608 300 0
v -608 76 0
v -224 620 0
v -224 876 0
v -352 876 0
v -352 620 0
v -224 396 0
v -224 620 0
v -352 620 0
v -352 396 0
v -864 524 0
v -864 812 0
v -960 812 0
v -960 524 0
v -96 620 0
v -96 812 0
v -224 812 0
v -224 620 0
v -864 268 0
v -864 524 0
v -960 524 0
v -960 268 0
v -608 204 0
v -608 300 0
v -832 300 0
v -832 204 0
v -544 876 0
v -544 972 0
v -768 972 0
v -768 876 0
v -96 300 0
v -96 460 0
v -224 460 0
v -224 300 0
v -320 876 0
v -320 940 0
v -448 940 0
v -448 876 0
v -288 236 0
v -288 332 0
v -352 332 0
v -352 236 0
v -512 0 0
v -512 76 0
v -576 76 0
v -576 0 0
v -832 236 0
v -832 428 0
v -864 428 0
v -864 236 0
v -32 268 0
v -32 364 0
v -96 364 0
v -96 268 0
v -832 428 0
v -832 620 0
v -864 620 0
v -864 428 0
v -960 684 0
v -960 748 0
v -1023 748 0
v -1023 684 0
v -640 140 0
v -640 204 0
v -704 204 0
v -704 140 0
v -160 556 0
v -160 620 0
v -224 620 0
v -224 556 0
v -256 108 0
v -256 172 0
v -320 172 0
v -320 108 0
v -96 236 0
v -96 300 0
v -160 300 0
v -160 236 0
v -832 780 0
v -832 908 0
v -864 908 0
v -864 780 0
v -832 652 0
v -832 780 0
v -864 780 0
v -864 652 0
v -32 204 0
v -32 268 0
v -96 268 0
v -96 204 0
v -288 172 0
v -288 236 0
v -352 236 0
v -352 172 0
v -960 332 0
v -960 460 0
v -992 460 0
v -992 332 0
v -960 460 0
v -960 588 0
v -992 588 0
v -992 460 0
v -864 812 0
v -864 876 0
v -896 876 0
v -896 812 0
v -192 460 0
v -192 524 0
v -224 524 0
v -224 460 0
v -192 812 0
v -192 876 0
v -224 876 0
v -224 812 0
v -768 876 0
v -768 940 0
v -800 940 0
v -800 876 0
v -512 876 0
v -512 940 0
v -544 940 0
v -544 876 0
v -768 172 0
v -768 204 0
v -832 204 0
v -832 172 0
v -384 268 0
v -384 300 0
v -448 300 0
v -448 268 0
v -320 332 0
v -320 396 0
v -352 396 0
v -352 332 0
v -64 364 0
v -64 428 0
v -96 428 0
v -96 364 0
v -224 332 0
v -224 396 0
v -256 396 0
v -256 332 0
v -320 940 0
v -320 972 0
v -384 972 0
v -384 940 0
v -64 620 0
v -64 684 0
v -96 684 0
v -96 620 0
v -992 364 0
v -992 428 0
v -1023 428 0
v -1023 364 0
v -608 972 0
v -608 1004 0
v -672 1004 0
v -672 972 0
v -0 268 0
v -0 332 0
v -32 332 0
v -32 268 0
v -64 684 0
v -64 748 0
v -96 748 0
v -96 684 0
v -416 140 0
v -416 204 0
v -448 204 0
v -448 140 0
v -960 652 0
v -960 684 0
v -992 684 0
v -992 652 0
v -32 652 0
v -32 684 0
v -64 684 0
v -64 652 0
v -160 460 0
v -160 492 0
v -192 492 0
v -192 460 0
v -256 364 0
v -256 396 0
v -288 396 0
v -288 364 0
v -256 172 0
v -256 204 0
v -288 204 0
v -288 172 0
v -416 236 0
v -416 268 0
v -448 268 0
v -448 236 0
v -160 268 0
v -160 300 0
v -192 300 0
v -192 268 0
v -672 972 0
v -672 1004 0
v -704 1004 0
v -704 972 0
v -992 332 0
v -992 364 0
v -1023 364 0
v -1023 332 0
v -0 236 0
v -0 268 0
v -32 268 0
v -32 236 0
v -416 108 0
v -416 140 0
v -448 140 0
v -448 108 0
v -896 812 0
v -896 844 0
v -928 844 0
v -928 812 0
v -160 812 0
v -160 844 0
v -192 844 0
v -192 812 0
v -800 876 0
v -800 908 0
v -832 908 0
v -832 876 0
vt 0.0009765625 0.00133687258
vt 0.0009765625 0.386363626
vt 0.469726562 0.386363626
vt 0.469726562 0.00133687258
vt 0.471679688 0.00133687258
vt 0.471679688 0.386363626
vt 0.940429688 0.386363626
vt 0.940429688 0.00133687258
vt 0.0009765625 0.38903743
vt 0.0009765625 0.688502669
vt 0.157226562 0.688502669
vt 0.157226562 0.38903743
vt 0.159179688 0.38903743
vt 0.159179688 0.731283426
vt 0.284179688 0.731283426
vt 0.284179688 0.38903743
vt 0.286132812 0.38903743
vt 0.286132812 0.688502669
vt 0.411132812 0.688502669
vt 0.411132812 0.38903743
vt 0.413085938 0.38903743
vt 0.413085938 0.774064183
vt 0.506835938 0.774064183
vt 0.506835938 0.38903743
vt 0.508789062 0.38903743
vt 0.508789062 0.645721912
vt 0.633789062 0.645721912
vt 0.633789062 0.38903743
vt 0.635742188 0.38903743
vt 0.635742188 0.731283426
vt 0.729492188 0.731283426
vt 0.729492188 0.38903743
vt 0.731445312 0.38903743
vt 0.731445312 0.517379642
vt 0.950195312 0.517379642
vt 0.950195312 0.38903743
vt 0.731445312 0.520053506
vt 0.731445312 0.648395717
vt 0.950195312 0.648395717
vt 0.950195312 0.520053506
vt 0.508789062 0.648395717
vt 0.508789062 0.862299442
vt 0.633789062 0.862299442
vt 0.633789062 0.648395717
vt 0.731445312 0.651069522
vt 0.731445312 0.736631036
vt 0.856445312 0.736631036
vt 0.856445312 0.651069522
vt 0.858398438 0.651069522
vt 0.858398438 0.779411793
vt 0.920898438 0.779411793
vt 0.920898438 0.651069522
vt 0.922851562 0.651069522
vt 0.922851562 0.754010677
vt 0.985351562 0.754010677
vt 0.985351562 0.651069522
vt 0.0009765625 0.691176474
vt 0.0009765625 0.947860956
vt 0.0322265625 0.947860956
vt 0.0322265625 0.691176474
vt 0.0341796875 0.691176474
vt 0.0341796875 0.819518685
vt 0.0966796875 0.819518685
vt 0.0966796875 0.691176474
vt 0.0986328125 0.691176474
vt 0.0986328125 0.947860956
vt 0.129882812 0.947860956
vt 0.129882812 0.691176474
vt 0.286132812 0.691176474
vt 0.286132812 0.776737988
vt 0.348632812 0.776737988
vt 0.348632812 0.691176474
vt 0.159179688 0.733957231
vt 0.159179688 0.819518685
vt 0.221679688 0.819518685
vt 0.221679688 0.733957231
vt 0.635742188 0.733957231
vt 0.635742188 0.819518685
vt 0.698242188 0.819518685
vt 0.698242188 0.733957231
vt 0.731445312 0.739304781
vt 0.731445312 0.824866295
vt 0.793945312 0.824866295
vt 0.793945312 0.739304781
vt 0.922851562 0.756684482
vt 0.922851562 0.842245996
vt 0.985351562 0.842245996
vt 0.985351562 0.756684482
vt 0.350585938 0.691176474
vt 0.350585938 0.862299442
vt 0.381835938 0.862299442
vt 0.381835938 0.691176474
vt 0.223632812 0.733957231
vt 0.223632812 0.905080199
vt 0.254882812 0.905080199
vt 0.254882812 0.733957231
vt 0.413085938 0.776737988
vt 0.413085938 0.862299442
vt 0.475585938 0.862299442
vt 0.475585938 0.776737988
vt 0.286132812 0.779411793
vt 0.286132812 0.864973247
vt 0.348632812 0.864973247
vt 0.348632812 0.779411793
vt 0.795898438 0.739304781
vt 0.795898438 0.910427809
vt 0.827148438 0.910427809
vt 0.827148438 0.739304781
vt 0.858398438 0.782085538
vt 0.858398438 0.953208566
vt 0.889648438 0.953208566
vt 0.889648438 0.782085538
vt 0.0341796875 0.82219255
vt 0.0341796875 0.907754004
vt 0.0654296875 0.907754004
vt 0.0654296875 0.82219255
vt 0.159179688 0.82219255
vt 0.159179688 0.907754004
vt 0.190429688 0.907754004
vt 0.190429688 0.82219255
vt 0.635742188 0.82219255
vt 0.635742188 0.907754004
vt 0.666992188 0.907754004
vt 0.666992188 0.82219255
vt 0.668945312 0.82219255
vt 0.668945312 0.907754004
vt 0.700195312 0.907754004
vt 0.700195312 0.82219255
vt 0.731445312 0.8275401
vt 0.731445312 0.913101614
vt 0.762695312 0.913101614
vt 0.762695312 0.8275401
vt 0.922851562 0.844919801
vt 0.922851562 0.887700558
vt 0.985351562 0.887700558
vt 0.985351562 0.844919801
vt 0.350585938 0.864973247
vt 0.350585938 0.907754004
vt 0.413085938 0.907754004
vt 0.413085938 0.864973247
vt 0.415039062 0.864973247
vt 0.415039062 0.950534761
vt 0.446289062 0.950534761
vt 0.446289062 0.864973247
vt 0.448242188 0.864973247
vt 0.448242188 0.950534761
vt 0.479492188 0.950534761
vt 0.479492188 0.864973247
vt 0.508789062 0.864973247
vt 0.508789062 0.950534761
vt 0.540039062 0.950534761
vt 0.540039062 0.864973247
vt 0.541992188 0.864973247
vt 0.541992188 0.907754004
vt 0.604492188 0.907754004
vt 0.604492188 0.864973247
vt 0.286132812 0.867647052
vt 0.286132812 0.953208566
vt 0.317382812 0.953208566
vt 0.317382812 0.867647052
vt 0.922851562 0.890374303
vt 0.922851562 0.975935817
vt 0.954101562 0.975935817
vt 0.954101562 0.890374303
vt 0.0341796875 0.910427809
vt 0.0341796875 0.953208566
vt 0.0966796875 0.953208566
vt 0.0966796875 0.910427809
vt 0.956054688 0.890374303
vt 0.956054688 0.975935817
vt 0.987304688 0.975935817
vt 0.987304688 0.890374303
vt 0.223632812 0.907754004
vt 0.223632812 0.993315518
vt 0.254882812 0.993315518
vt 0.254882812 0.907754004
vt 0.159179688 0.910427809
vt 0.159179688 0.995989323
vt 0.190429688 0.995989323
vt 0.190429688 0.910427809
vt 0.350585938 0.910427809
vt 0.350585938 0.953208566
vt 0.381835938 0.953208566
vt 0.381835938 0.910427809
vt 0.541992188 0.910427809
vt 0.541992188 0.953208566
vt 0.573242188 0.953208566
vt 0.573242188 0.910427809
vt 0.575195312 0.910427809
vt 0.575195312 0.953208566
vt 0.606445312 0.953208566
vt 0.606445312 0.910427809
vt 0.635742188 0.910427809
vt 0.635742188 0.953208566
vt 0.666992188 0.953208566
vt 0.666992188 0.910427809
vt 0.668945312 0.910427809
vt 0.668945312 0.953208566
vt 0.700195312 0.953208566
vt 0.700195312 0.910427809
vt 0.795898438 0.913101614
vt 0.795898438 0.95588237
vt 0.827148438 0.95588237
vt 0.827148438 0.913101614
vt 0.731445312 0.915775418
vt 0.731445312 0.958556175
vt 0.762695312 0.958556175
vt 0.762695312 0.915775418
vt 0.0009765625 0.950534761
vt 0.0009765625 0.993315518
vt 0.0322265625 0.993315518
vt 0.0322265625 0.950534761
vt 0.0986328125 0.950534761
vt 0.0986328125 0.993315518
vt 0.129882812 0.993315518
vt 0.129882812 0.950534761
vt 0.415039062 0.953208566
vt 0.415039062 0.995989323
vt 0.446289062 0.995989323
vt 0.446289062 0.953208566
vt 0.448242188 0.953208566
vt 0.448242188 0.995989323
vt 0.479492188 0.995989323
vt 0.479492188 0.953208566
vt 0.508789062 0.953208566
vt 0.508789062 0.995989323
vt 0.540039062 0.995989323
vt 0.540039062 0.953208566
vt 0.0341796875 0.95588237
vt 0.0341796875 0.998663127
vt 0.0654296875 0.998663127
vt 0.0654296875 0.95588237
vt 0.286132812 0.95588237
vt 0.286132812 0.998663127
vt 0.317382812 0.998663127
vt 0.317382812 0.95588237
g mingniabolisi_2-mesh_0
f 3/3/3 2/2/2 1/1/1
f 1/1/1 4/4/4 3/3/3
f 7/7/7 6/6/6 5/5/5
f 5/5/5 8/8/8 7/7/7
f 11/11/11 10/10/10 9/9/9
f 9/9/9 12/12/12 11/11/11
f 15/15/15 14/14/14 13/13/13
f 13/13/13 16/16/16 15/15/15
f 19/19/19 18/18/18 17/17/17
f 17/17/17 20/20/20 19/19/19
f 23/23/23 22/22/22 21/21/21
f 21/21/21 24/24/24 23/23/23
f 27/27/27 26/26/26 25/25/25
f 25/25/25 28/28/28 27/27/27
f 31/31/31 30/30/30 29/29/29
f 29/29/29 32/32/32 31/31/31
f 35/35/35 34/34/34 33/33/33
f 33/33/33 36/36/36 35/35/35
f 39/39/39 38/38/38 37/37/37
f 37/37/37 40/40/40 39/39/39
f 43/43/43 42/42/42 41/41/41
f 41/41/41 44/44/44 43/43/43
f 47/47/47 46/46/46 45/45/45
f 45/45/45 48/48/48 47/47/47
f 51/51/51 50/50/50 49/49/49
f 49/49/49 52/52/52 51/51/51
f 55/55/55 54/54/54 53/53/53
f 53/53/53 56/56/56 55/55/55
f 59/59/59 58/58/58 57/57/57
f 57/57/57 60/60/60 59/59/59
f 63/63/63 62/62/62 61/61/61
f 61/61/61 64/64/64 63/63/63
f 67/67/67 66/66/66 65/65/65
f 65/65/65 68/68/68 67/67/67
f 71/71/71 70/70/70 69/69/69
f 69/69/69 72/72/72 71/71/71
f 75/75/75 74/74/74 73/73/73
f 73/73/73 76/76/76 75/75/75
f 79/79/79 78/78/78 77/77/77
f 77/77/77 80/80/80 79/79/79
f 83/83/83 82/82/82 81/81/81
f 81/81/81 84/84/84 83/83/83
f 87/87/87 86/86/86 85/85/85
f 85/85/85 88/88/88 87/87/87
f 91/91/91 90/90/90 89/89/89
f 89/89/89 92/92/92 91/91/91
f 95/95/95 94/94/94 93/93/93
f 93/93/93 96/96/96 95/95/95
f 99/99/99 98/98/98 97/97/97
f 97/97/97 100/100/100 99/99/99
f 103/103/103 102/102/102 101/101/101
f 101/101/101 104/104/104 103/103/103
f 107/107/107 106/106/106 105/105/105
f 105/105/105 108/108/108 107/107/107
f 111/111/111 110/110/110 109/109/109
f 109/109/109 112/112/112 111/111/111
f 115/115/115 114/114/114 113/113/113
f 113/113/113 116/116/116 115/115/115
f 119/119/119 118/118/118 117/117/117
f 117/117/117 120/120/120 119/119/119
f 123/123/123 122/122/122 121/121/121
f 121/121/121 124/124/124 123/123/123
f 127/127/127 126/126/126 125/125/125
f 125/125/125 128/128/128 127/127/127
f 131/131/131 130/130/130 129/129/129
f 129/129/129 132/132/132 131/131/131
f 135/135/135 134/134/134 133/133/133
f 133/133/133 136/136/136 135/135/135
f 139/139/139 138/138/138 137/137/137
f 137/137/137 140/140/140 139/139/139
f 143/143/143 142/142/142 141/141/141
f 141/141/141 144/144/144 143/143/143
f 147/147/147 146/146/146 145/145/145
f 145/145/145 148/148/148 147/147/147
f 151/151/151 150/150/150 149/149/149
f 149/149/149 152/152/152 151/151/151
f 155/155/155 154/154/154 153/153/153
f 153/153/153 156/156/156 155/155/155
f 159/159/159 158/158/158 157/157/157
f 157/157/157 160/160/160 159/159/159
f 163/163/163 162/162/162 161/161/161
f 161/161/161 164/164/164 163/163/163
f 167/167/167 166/166/166 165/165/165
f 165/165/165 168/168/168 167/167/167
f 171/171/171 170/170/170 169/169/169
f 169/169/169 172/172/172 171/171/171
f 175/175/175 174/174/174 173/173/173
f 173/173/173 176/176/176 175/175/175
f 179/179/179 178/178/178 177/177/177
f 177/177/177 180/180/180 179/179/179
f 183/183/183 182/182/182 181/181/181
f 181/181/181 184/184/184 183/183/183
f 187/187/187 186/186/186 185/185/185
f 185/185/185 188/188/188 187/187/187
f 191/191/191 190/190/190 189/189/189
f 189/189/189 192/192/192 191/191/191
f 195/195/195 194/194/194 193/193/193
f 193/193/193 196/196/196 195/195/195
f 199/199/199 198/198/198 197/197/197
f 197/197/197 200/200/200 199/199/199
f 203/203/203 202/202/202 201/201/201
f 201/201/201 204/204/204 203/203/203
f 207/207/207 206/206/206 205/205/205
f 205/205/205 208/208/208 207/207/207
f 211/211/211 210/210/210 209/209/209
f 209/209/209 212/212/212 211/211/211
f 215/215/215 214/214/214 213/213/213
f 213/213/213 216/216/216 215/215/215
f 219/219/219 218/218/218 217/217/217
f 217/217/217 220/220/220 219/219/219
f 223/223/223 222/222/222 221/221/221
f 221/221/221 224/224/224 223/223/223
f 227/227/227 226/226/226 225/225/225
f 225/225/225 228/228/228 227/227/227
f 231/231/231 230/230/230 229/229/229
f 229/229/229 232/232/232 231/231/231
f 235/235/235 234/234/234 233/233/233
f 233/233/233 236/236/236 235/235/235
