g xukufu-mesh
v -160 543 0
v -160 863 0
v -480 863 0
v -480 543 0
v -160 255 0
v -160 543 0
v -480 543 0
v -480 255 0
v -672 31 0
v -672 255 0
v -896 255 0
v -896 31 0
v -480 351 0
v -480 607 0
v -672 607 0
v -672 351 0
v -480 95 0
v -480 351 0
v -672 351 0
v -672 95 0
v -672 479 0
v -672 575 0
v -832 575 0
v -832 479 0
v -160 863 0
v -160 959 0
v -320 959 0
v -320 863 0
v -0 863 0
v -0 959 0
v -160 959 0
v -160 863 0
v -480 639 0
v -480 703 0
v -640 703 0
v -640 639 0
v -96 383 0
v -96 511 0
v -160 511 0
v -160 383 0
v -352 191 0
v -352 255 0
v -480 255 0
v -480 191 0
v -640 639 0
v -640 703 0
v -768 703 0
v -768 639 0
v -224 191 0
v -224 255 0
v -352 255 0
v -352 191 0
v -288 95 0
v -288 191 0
v -352 191 0
v -352 95 0
v -672 255 0
v -672 319 0
v -768 319 0
v -768 255 0
v -320 863 0
v -320 927 0
v -416 927 0
v -416 863 0
v -128 703 0
v -128 863 0
v -160 863 0
v -160 703 0
v -896 95 0
v -896 223 0
v -928 223 0
v -928 95 0
v -416 127 0
v -416 191 0
v -480 191 0
v -480 127 0
v -96 959 0
v -96 991 0
v -224 991 0
v -224 959 0
v -128 575 0
v -128 703 0
v -160 703 0
v -160 575 0
v -768 255 0
v -768 319 0
v -832 319 0
v -832 255 0
v -512 63 0
v -512 95 0
v -608 95 0
v -608 63 0
v -640 607 0
v -640 639 0
v -736 639 0
v -736 607 0
v -224 959 0
v -224 991 0
v -320 991 0
v -320 959 0
v -896 0 0
v -896 95 0
v -928 95 0
v -928 0 0
v -96 671 0
v -96 735 0
v -128 735 0
v -128 671 0
v -480 607 0
v -480 639 0
v -544 639 0
v -544 607 0
v -832 543 0
v -832 607 0
v -864 607 0
v -864 543 0
v -352 95 0
v -352 159 0
v -384 159 0
v -384 95 0
v -704 319 0
v -704 383 0
v -736 383 0
v -736 319 0
v -704 447 0
v -704 479 0
v -768 479 0
v -768 447 0
v -192 991 0
v -192 1023 0
v -256 1023 0
v -256 991 0
v -672 383 0
v -672 447 0
v -704 447 0
v -704 383 0
v -672 319 0
v -672 383 0
v -704 383 0
v -704 319 0
v -736 607 0
v -736 639 0
v -800 639 0
v -800 607 0
v -768 0 0
v -768 31 0
v -832 31 0
v -832 0 0
v -608 63 0
v -608 95 0
v -672 95 0
v -672 63 0
v -832 0 0
v -832 31 0
v -896 31 0
v -896 0 0
v -768 639 0
v -768 671 0
v -800 671 0
v -800 639 0
v -800 575 0
v -800 607 0
v -832 607 0
v -832 575 0
v -128 511 0
v -128 543 0
v -160 543 0
v -160 511 0
v -256 159 0
v -256 191 0
v -288 191 0
v -288 159 0
v -384 159 0
v -384 191 0
v -416 191 0
v -416 159 0
v -736 319 0
v -736 351 0
v -768 351 0
v -768 319 0
v -192 223 0
v -192 255 0
v -224 255 0
v -224 223 0
v -672 703 0
v -672 735 0
v -704 735 0
v -704 703 0
v -544 607 0
v -544 639 0
v -576 639 0
v -576 607 0
v -96 639 0
v -96 671 0
v -128 671 0
v -128 639 0
v -256 991 0
v -256 1023 0
v -288 1023 0
v -288 991 0
v -832 511 0
v -832 543 0
v -864 543 0
v -864 511 0
v -416 863 0
v -416 895 0
v -448 895 0
v -448 863 0
v -704 895 0
v -704 927 0
v -736 927 0
v -736 895 0
v -352 927 0
v -352 959 0
v -384 959 0
v -384 927 0
vt 0.0009765625 0.00160771608
vt 0.0009765625 0.516077161
vt 0.313476562 0.516077161
vt 0.313476562 0.00160771608
vt 0.315429688 0.00160771608
vt 0.315429688 0.464630246
vt 0.627929688 0.464630246
vt 0.627929688 0.00160771608
vt 0.629882812 0.00160771608
vt 0.629882812 0.361736357
vt 0.848632812 0.361736357
vt 0.848632812 0.00160771608
vt 0.629882812 0.364951789
vt 0.629882812 0.776527345
vt 0.817382812 0.776527345
vt 0.817382812 0.364951789
vt 0.315429688 0.467845678
vt 0.315429688 0.879421234
vt 0.502929688 0.879421234
vt 0.502929688 0.467845678
vt 0.819335938 0.364951789
vt 0.819335938 0.519292593
vt 0.975585938 0.519292593
vt 0.975585938 0.364951789
vt 0.0009765625 0.519292593
vt 0.0009765625 0.673633456
vt 0.157226562 0.673633456
vt 0.157226562 0.519292593
vt 0.819335938 0.522508025
vt 0.819335938 0.676848888
vt 0.975585938 0.676848888
vt 0.975585938 0.522508025
vt 0.0009765625 0.676848888
vt 0.0009765625 0.779742777
vt 0.157226562 0.779742777
vt 0.157226562 0.676848888
vt 0.504882812 0.467845678
vt 0.504882812 0.673633456
vt 0.567382812 0.673633456
vt 0.567382812 0.467845678
vt 0.159179688 0.519292593
vt 0.159179688 0.622186482
vt 0.284179688 0.622186482
vt 0.284179688 0.519292593
vt 0.159179688 0.625401974
vt 0.159179688 0.728295803
vt 0.284179688 0.728295803
vt 0.284179688 0.625401974
vt 0.819335938 0.680064321
vt 0.819335938 0.78295821
vt 0.944335938 0.78295821
vt 0.944335938 0.680064321
vt 0.504882812 0.676848888
vt 0.504882812 0.831189692
vt 0.567382812 0.831189692
vt 0.567382812 0.676848888
vt 0.159179688 0.731511235
vt 0.159179688 0.834405124
vt 0.252929688 0.834405124
vt 0.252929688 0.731511235
vt 0.629882812 0.779742777
vt 0.629882812 0.882636666
vt 0.723632812 0.882636666
vt 0.723632812 0.779742777
vt 0.569335938 0.467845678
vt 0.569335938 0.725080371
vt 0.600585938 0.725080371
vt 0.600585938 0.467845678
vt 0.946289062 0.680064321
vt 0.946289062 0.885852098
vt 0.977539062 0.885852098
vt 0.977539062 0.680064321
vt 0.725585938 0.779742777
vt 0.725585938 0.882636666
vt 0.788085938 0.882636666
vt 0.788085938 0.779742777
vt 0.0009765625 0.78295821
vt 0.0009765625 0.834405124
vt 0.125976562 0.834405124
vt 0.125976562 0.78295821
vt 0.569335938 0.728295803
vt 0.569335938 0.934083581
vt 0.600585938 0.934083581
vt 0.600585938 0.728295803
vt 0.819335938 0.786173642
vt 0.819335938 0.889067531
vt 0.881835938 0.889067531
vt 0.881835938 0.786173642
vt 0.0009765625 0.837620616
vt 0.0009765625 0.889067531
vt 0.0947265625 0.889067531
vt 0.0947265625 0.837620616
vt 0.0966796875 0.837620616
vt 0.0966796875 0.889067531
vt 0.190429688 0.889067531
vt 0.190429688 0.837620616
vt 0.192382812 0.837620616
vt 0.192382812 0.889067531
vt 0.286132812 0.889067531
vt 0.286132812 0.837620616
vt 0.883789062 0.786173642
vt 0.883789062 0.940514445
vt 0.915039062 0.940514445
vt 0.915039062 0.786173642
vt 0.504882812 0.834405124
vt 0.504882812 0.937299013
vt 0.536132812 0.937299013
vt 0.536132812 0.834405124
vt 0.315429688 0.882636666
vt 0.315429688 0.934083581
vt 0.377929688 0.934083581
vt 0.377929688 0.882636666
vt 0.379882812 0.882636666
vt 0.379882812 0.985530555
vt 0.411132812 0.985530555
vt 0.411132812 0.882636666
vt 0.413085938 0.882636666
vt 0.413085938 0.985530555
vt 0.444335938 0.985530555
vt 0.444335938 0.882636666
vt 0.446289062 0.882636666
vt 0.446289062 0.985530555
vt 0.477539062 0.985530555
vt 0.477539062 0.882636666
vt 0.629882812 0.885852098
vt 0.629882812 0.937299013
vt 0.692382812 0.937299013
vt 0.692382812 0.885852098
vt 0.694335938 0.885852098
vt 0.694335938 0.937299013
vt 0.756835938 0.937299013
vt 0.756835938 0.885852098
vt 0.758789062 0.885852098
vt 0.758789062 0.988745987
vt 0.790039062 0.988745987
vt 0.790039062 0.885852098
vt 0.946289062 0.889067531
vt 0.946289062 0.99196142
vt 0.977539062 0.99196142
vt 0.977539062 0.889067531
vt 0.0009765625 0.892282963
vt 0.0009765625 0.943729877
vt 0.0634765625 0.943729877
vt 0.0634765625 0.892282963
vt 0.0654296875 0.892282963
vt 0.0654296875 0.943729877
vt 0.127929688 0.943729877
vt 0.127929688 0.892282963
vt 0.129882812 0.892282963
vt 0.129882812 0.943729877
vt 0.192382812 0.943729877
vt 0.192382812 0.892282963
vt 0.194335938 0.892282963
vt 0.194335938 0.943729877
vt 0.256835938 0.943729877
vt 0.256835938 0.892282963
vt 0.258789062 0.892282963
vt 0.258789062 0.943729877
vt 0.290039062 0.943729877
vt 0.290039062 0.892282963
vt 0.819335938 0.892282963
vt 0.819335938 0.943729877
vt 0.850585938 0.943729877
vt 0.850585938 0.892282963
vt 0.315429688 0.937299013
vt 0.315429688 0.988745987
vt 0.346679688 0.988745987
vt 0.346679688 0.937299013
vt 0.569335938 0.937299013
vt 0.569335938 0.988745987
vt 0.600585938 0.988745987
vt 0.600585938 0.937299013
vt 0.504882812 0.940514445
vt 0.504882812 0.99196142
vt 0.536132812 0.99196142
vt 0.536132812 0.940514445
vt 0.629882812 0.940514445
vt 0.629882812 0.99196142
vt 0.661132812 0.99196142
vt 0.661132812 0.940514445
vt 0.663085938 0.940514445
vt 0.663085938 0.99196142
vt 0.694335938 0.99196142
vt 0.694335938 0.940514445
vt 0.696289062 0.940514445
vt 0.696289062 0.99196142
vt 0.727539062 0.99196142
vt 0.727539062 0.940514445
vt 0.883789062 0.943729877
vt 0.883789062 0.995176852
vt 0.915039062 0.995176852
vt 0.915039062 0.943729877
vt 0.0009765625 0.94694531
vt 0.0009765625 0.998392284
vt 0.0322265625 0.998392284
vt 0.0322265625 0.94694531
vt 0.0341796875 0.94694531
vt 0.0341796875 0.998392284
vt 0.0654296875 0.998392284
vt 0.0654296875 0.94694531
vt 0.0673828125 0.94694531
vt 0.0673828125 0.998392284
vt 0.0986328125 0.998392284
vt 0.0986328125 0.94694531
vt 0.100585938 0.94694531
vt 0.100585938 0.998392284
vt 0.131835938 0.998392284
vt 0.131835938 0.94694531
vt 0.133789062 0.94694531
vt 0.133789062 0.998392284
vt 0.165039062 0.998392284
vt 0.165039062 0.94694531
vt 0.166992188 0.94694531
vt 0.166992188 0.998392284
vt 0.198242188 0.998392284
vt 0.198242188 0.94694531
g xukufu-mesh_0
f 3/3/3 2/2/2 1/1/1
f 1/1/1 4/4/4 3/3/3
f 7/7/7 6/6/6 5/5/5
f 5/5/5 8/8/8 7/7/7
f 11/11/11 10/10/10 9/9/9
f 9/9/9 12/12/12 11/11/11
f 15/15/15 14/14/14 13/13/13
f 13/13/13 16/16/16 15/15/15
f 19/19/19 18/18/18 17/17/17
f 17/17/17 20/20/20 19/19/19
f 23/23/23 22/22/22 21/21/21
f 21/21/21 24/24/24 23/23/23
f 27/27/27 26/26/26 25/25/25
f 25/25/25 28/28/28 27/27/27
f 31/31/31 30/30/30 29/29/29
f 29/29/29 32/32/32 31/31/31
f 35/35/35 34/34/34 33/33/33
f 33/33/33 36/36/36 35/35/35
f 39/39/39 38/38/38 37/37/37
f 37/37/37 40/40/40 39/39/39
f 43/43/43 42/42/42 41/41/41
f 41/41/41 44/44/44 43/43/43
f 47/47/47 46/46/46 45/45/45
f 45/45/45 48/48/48 47/47/47
f 51/51/51 50/50/50 49/49/49
f 49/49/49 52/52/52 51/51/51
f 55/55/55 54/54/54 53/53/53
f 53/53/53 56/56/56 55/55/55
f 59/59/59 58/58/58 57/57/57
f 57/57/57 60/60/60 59/59/59
f 63/63/63 62/62/62 61/61/61
f 61/61/61 64/64/64 63/63/63
f 67/67/67 66/66/66 65/65/65
f 65/65/65 68/68/68 67/67/67
f 71/71/71 70/70/70 69/69/69
f 69/69/69 72/72/72 71/71/71
f 75/75/75 74/74/74 73/73/73
f 73/73/73 76/76/76 75/75/75
f 79/79/79 78/78/78 77/77/77
f 77/77/77 80/80/80 79/79/79
f 83/83/83 82/82/82 81/81/81
f 81/81/81 84/84/84 83/83/83
f 87/87/87 86/86/86 85/85/85
f 85/85/85 88/88/88 87/87/87
f 91/91/91 90/90/90 89/89/89
f 89/89/89 92/92/92 91/91/91
f 95/95/95 94/94/94 93/93/93
f 93/93/93 96/96/96 95/95/95
f 99/99/99 98/98/98 97/97/97
f 97/97/97 100/100/100 99/99/99
f 103/103/103 102/102/102 101/101/101
f 101/101/101 104/104/104 103/103/103
f 107/107/107 106/106/106 105/105/105
f 105/105/105 108/108/108 107/107/107
f 111/111/111 110/110/110 109/109/109
f 109/109/109 112/112/112 111/111/111
f 115/115/115 114/114/114 113/113/113
f 113/113/113 116/116/116 115/115/115
f 119/119/119 118/118/118 117/117/117
f 117/117/117 120/120/120 119/119/119
f 123/123/123 122/122/122 121/121/121
f 121/121/121 124/124/124 123/123/123
f 127/127/127 126/126/126 125/125/125
f 125/125/125 128/128/128 127/127/127
f 131/131/131 130/130/130 129/129/129
f 129/129/129 132/132/132 131/131/131
f 135/135/135 134/134/134 133/133/133
f 133/133/133 136/136/136 135/135/135
f 139/139/139 138/138/138 137/137/137
f 137/137/137 140/140/140 139/139/139
f 143/143/143 142/142/142 141/141/141
f 141/141/141 144/144/144 143/143/143
f 147/147/147 146/146/146 145/145/145
f 145/145/145 148/148/148 147/147/147
f 151/151/151 150/150/150 149/149/149
f 149/149/149 152/152/152 151/151/151
f 155/155/155 154/154/154 153/153/153
f 153/153/153 156/156/156 155/155/155
f 159/159/159 158/158/158 157/157/157
f 157/157/157 160/160/160 159/159/159
f 163/163/163 162/162/162 161/161/161
f 161/161/161 164/164/164 163/163/163
f 167/167/167 166/166/166 165/165/165
f 165/165/165 168/168/168 167/167/167
f 171/171/171 170/170/170 169/169/169
f 169/169/169 172/172/172 171/171/171
f 175/175/175 174/174/174 173/173/173
f 173/173/173 176/176/176 175/175/175
f 179/179/179 178/178/178 177/177/177
f 177/177/177 180/180/180 179/179/179
f 183/183/183 182/182/182 181/181/181
f 181/181/181 184/184/184 183/183/183
f 187/187/187 186/186/186 185/185/185
f 185/185/185 188/188/188 187/187/187
f 191/191/191 190/190/190 189/189/189
f 189/189/189 192/192/192 191/191/191
f 195/195/195 194/194/194 193/193/193
f 193/193/193 196/196/196 195/195/195
f 199/199/199 198/198/198 197/197/197
f 197/197/197 200/200/200 199/199/199
f 203/203/203 202/202/202 201/201/201
f 201/201/201 204/204/204 203/203/203
f 207/207/207 206/206/206 205/205/205
f 205/205/205 208/208/208 207/207/207
f 211/211/211 210/210/210 209/209/209
f 209/209/209 212/212/212 211/211/211
f 215/215/215 214/214/214 213/213/213
f 213/213/213 216/216/216 215/215/215
