g dujiaoshou_2-mesh
v -480 204 0
v -480 652 0
v -800 652 0
v -800 204 0
v -160 204 0
v -160 652 0
v -480 652 0
v -480 204 0
v -800 140 0
v -800 460 0
v -992 460 0
v -992 140 0
v -0 300 0
v -0 556 0
v -160 556 0
v -160 300 0
v -416 652 0
v -416 844 0
v -608 844 0
v -608 652 0
v -704 0 0
v -704 140 0
v -864 140 0
v -864 0 0
v -96 108 0
v -96 204 0
v -288 204 0
v -288 108 0
v -704 652 0
v -704 780 0
v -800 780 0
v -800 652 0
v -416 44 0
v -416 140 0
v -512 140 0
v -512 44 0
v -64 204 0
v -64 300 0
v -160 300 0
v -160 204 0
v -672 140 0
v -672 204 0
v -800 204 0
v -800 140 0
v -800 460 0
v -800 556 0
v -864 556 0
v -864 460 0
v -384 140 0
v -384 204 0
v -480 204 0
v -480 140 0
v -288 140 0
v -288 204 0
v -384 204 0
v -384 140 0
v -96 652 0
v -96 684 0
v -256 684 0
v -256 652 0
v -352 716 0
v -352 780 0
v -416 780 0
v -416 716 0
v -96 588 0
v -96 652 0
v -160 652 0
v -160 588 0
v -480 0 0
v -480 44 0
v -544 44 0
v -544 0 0
v -864 76 0
v -864 140 0
v -928 140 0
v -928 76 0
v -256 652 0
v -256 684 0
v -384 684 0
v -384 652 0
v -992 300 0
v -992 428 0
v -1023 428 0
v -1023 300 0
v -416 844 0
v -416 876 0
v -512 876 0
v -512 844 0
v -992 204 0
v -992 300 0
v -1023 300 0
v -1023 204 0
v -608 652 0
v -608 716 0
v -640 716 0
v -640 652 0
v -640 748 0
v -640 780 0
v -704 780 0
v -704 748 0
v -416 876 0
v -416 908 0
v -480 908 0
v -480 876 0
v -672 652 0
v -672 716 0
v -704 716 0
v -704 652 0
v -512 140 0
v -512 172 0
v -576 172 0
v -576 140 0
v -608 140 0
v -608 172 0
v -672 172 0
v -672 140 0
v -32 236 0
v -32 300 0
v -64 300 0
v -64 236 0
v -224 76 0
v -224 108 0
v -288 108 0
v -288 76 0
v -864 460 0
v -864 492 0
v -928 492 0
v -928 460 0
v -672 76 0
v -672 140 0
v -704 140 0
v -704 76 0
v -96 684 0
v -96 716 0
v -160 716 0
v -160 684 0
v -160 684 0
v -160 716 0
v -224 716 0
v -224 684 0
v -512 844 0
v -512 876 0
v -576 876 0
v -576 844 0
v -608 780 0
v -608 812 0
v -672 812 0
v -672 780 0
v -480 172 0
v -480 204 0
v -544 204 0
v -544 172 0
v -672 780 0
v -672 812 0
v -736 812 0
v -736 780 0
v -288 684 0
v -288 716 0
v -352 716 0
v -352 684 0
v -544 172 0
v -544 204 0
v -608 204 0
v -608 172 0
v -928 108 0
v -928 140 0
v -960 140 0
v -960 108 0
v -512 44 0
v -512 76 0
v -544 76 0
v -544 44 0
v -448 12 0
v -448 44 0
v -480 44 0
v -480 12 0
v -640 108 0
v -640 140 0
v -672 140 0
v -672 108 0
v -352 684 0
v -352 716 0
v -384 716 0
v -384 684 0
v -672 44 0
v -672 76 0
v -704 76 0
v -704 44 0
v -320 716 0
v -320 748 0
v -352 748 0
v -352 716 0
vt 0.0009765625 0.00153845549
vt 0.0009765625 0.690769196
vt 0.313476562 0.690769196
vt 0.313476562 0.00153845549
vt 0.315429688 0.00153845549
vt 0.315429688 0.690769196
vt 0.627929688 0.690769196
vt 0.627929688 0.00153845549
vt 0.629882812 0.00153845549
vt 0.629882812 0.493846178
vt 0.817382812 0.493846178
vt 0.817382812 0.00153845549
vt 0.819335938 0.00153845549
vt 0.819335938 0.39538461
vt 0.975585938 0.39538461
vt 0.975585938 0.00153845549
vt 0.629882812 0.496923089
vt 0.629882812 0.792307675
vt 0.817382812 0.792307675
vt 0.817382812 0.496923089
vt 0.819335938 0.398461521
vt 0.819335938 0.615384579
vt 0.975585938 0.615384579
vt 0.975585938 0.398461521
vt 0.0009765625 0.693846166
vt 0.0009765625 0.841538429
vt 0.188476562 0.841538429
vt 0.188476562 0.693846166
vt 0.819335938 0.618461549
vt 0.819335938 0.815384626
vt 0.913085938 0.815384626
vt 0.913085938 0.618461549
vt 0.190429688 0.693846166
vt 0.190429688 0.841538429
vt 0.284179688 0.841538429
vt 0.284179688 0.693846166
vt 0.286132812 0.693846166
vt 0.286132812 0.841538429
vt 0.379882812 0.841538429
vt 0.379882812 0.693846166
vt 0.381835938 0.693846166
vt 0.381835938 0.792307675
vt 0.506835938 0.792307675
vt 0.506835938 0.693846166
vt 0.915039062 0.618461549
vt 0.915039062 0.766153812
vt 0.977539062 0.766153812
vt 0.977539062 0.618461549
vt 0.508789062 0.693846166
vt 0.508789062 0.792307675
vt 0.602539062 0.792307675
vt 0.602539062 0.693846166
vt 0.381835938 0.795384645
vt 0.381835938 0.893846154
vt 0.475585938 0.893846154
vt 0.475585938 0.795384645
vt 0.477539062 0.795384645
vt 0.477539062 0.8446154
vt 0.633789062 0.8446154
vt 0.633789062 0.795384645
vt 0.915039062 0.769230783
vt 0.915039062 0.867692292
vt 0.977539062 0.867692292
vt 0.977539062 0.769230783
vt 0.635742188 0.795384645
vt 0.635742188 0.893846154
vt 0.698242188 0.893846154
vt 0.698242188 0.795384645
vt 0.700195312 0.795384645
vt 0.700195312 0.864615381
vt 0.762695312 0.864615381
vt 0.762695312 0.795384645
vt 0.819335938 0.818461537
vt 0.819335938 0.916923046
vt 0.881835938 0.916923046
vt 0.881835938 0.818461537
vt 0.0009765625 0.8446154
vt 0.0009765625 0.893846154
vt 0.125976562 0.893846154
vt 0.125976562 0.8446154
vt 0.764648438 0.795384645
vt 0.764648438 0.992307663
vt 0.795898438 0.992307663
vt 0.795898438 0.795384645
vt 0.127929688 0.8446154
vt 0.127929688 0.893846154
vt 0.221679688 0.893846154
vt 0.221679688 0.8446154
vt 0.223632812 0.8446154
vt 0.223632812 0.992307663
vt 0.254882812 0.992307663
vt 0.254882812 0.8446154
vt 0.256835938 0.8446154
vt 0.256835938 0.943076909
vt 0.288085938 0.943076909
vt 0.288085938 0.8446154
vt 0.290039062 0.8446154
vt 0.290039062 0.893846154
vt 0.352539062 0.893846154
vt 0.352539062 0.8446154
vt 0.477539062 0.847692311
vt 0.477539062 0.896923065
vt 0.540039062 0.896923065
vt 0.540039062 0.847692311
vt 0.541992188 0.847692311
vt 0.541992188 0.94615382
vt 0.573242188 0.94615382
vt 0.573242188 0.847692311
vt 0.700195312 0.867692292
vt 0.700195312 0.916923046
vt 0.762695312 0.916923046
vt 0.762695312 0.867692292
vt 0.915039062 0.870769262
vt 0.915039062 0.920000017
vt 0.977539062 0.920000017
vt 0.977539062 0.870769262
vt 0.575195312 0.847692311
vt 0.575195312 0.94615382
vt 0.606445312 0.94615382
vt 0.606445312 0.847692311
vt 0.0009765625 0.896923065
vt 0.0009765625 0.94615382
vt 0.0634765625 0.94615382
vt 0.0634765625 0.896923065
vt 0.0654296875 0.896923065
vt 0.0654296875 0.94615382
vt 0.127929688 0.94615382
vt 0.127929688 0.896923065
vt 0.129882812 0.896923065
vt 0.129882812 0.995384634
vt 0.161132812 0.995384634
vt 0.161132812 0.896923065
vt 0.290039062 0.896923065
vt 0.290039062 0.94615382
vt 0.352539062 0.94615382
vt 0.352539062 0.896923065
vt 0.381835938 0.896923065
vt 0.381835938 0.94615382
vt 0.444335938 0.94615382
vt 0.444335938 0.896923065
vt 0.635742188 0.896923065
vt 0.635742188 0.94615382
vt 0.698242188 0.94615382
vt 0.698242188 0.896923065
vt 0.477539062 0.899999976
vt 0.477539062 0.94923079
vt 0.540039062 0.94923079
vt 0.540039062 0.899999976
vt 0.700195312 0.920000017
vt 0.700195312 0.969230771
vt 0.762695312 0.969230771
vt 0.762695312 0.920000017
vt 0.819335938 0.920000017
vt 0.819335938 0.969230771
vt 0.881835938 0.969230771
vt 0.881835938 0.920000017
vt 0.915039062 0.923076928
vt 0.915039062 0.972307682
vt 0.977539062 0.972307682
vt 0.977539062 0.923076928
vt 0.0009765625 0.94923079
vt 0.0009765625 0.998461545
vt 0.0634765625 0.998461545
vt 0.0634765625 0.94923079
vt 0.163085938 0.896923065
vt 0.163085938 0.94615382
vt 0.194335938 0.94615382
vt 0.194335938 0.896923065
vt 0.256835938 0.94615382
vt 0.256835938 0.995384634
vt 0.288085938 0.995384634
vt 0.288085938 0.94615382
vt 0.0654296875 0.94923079
vt 0.0654296875 0.998461545
vt 0.0966796875 0.998461545
vt 0.0966796875 0.94923079
vt 0.163085938 0.94923079
vt 0.163085938 0.998461545
vt 0.194335938 0.998461545
vt 0.194335938 0.94923079
vt 0.290039062 0.94923079
vt 0.290039062 0.998461545
vt 0.321289062 0.998461545
vt 0.321289062 0.94923079
vt 0.323242188 0.94923079
vt 0.323242188 0.998461545
vt 0.354492188 0.998461545
vt 0.354492188 0.94923079
vt 0.381835938 0.94923079
vt 0.381835938 0.998461545
vt 0.413085938 0.998461545
vt 0.413085938 0.94923079
g dujiaoshou_2-mesh_0
f 3/3/3 2/2/2 1/1/1
f 1/1/1 4/4/4 3/3/3
f 7/7/7 6/6/6 5/5/5
f 5/5/5 8/8/8 7/7/7
f 11/11/11 10/10/10 9/9/9
f 9/9/9 12/12/12 11/11/11
f 15/15/15 14/14/14 13/13/13
f 13/13/13 16/16/16 15/15/15
f 19/19/19 18/18/18 17/17/17
f 17/17/17 20/20/20 19/19/19
f 23/23/23 22/22/22 21/21/21
f 21/21/21 24/24/24 23/23/23
f 27/27/27 26/26/26 25/25/25
f 25/25/25 28/28/28 27/27/27
f 31/31/31 30/30/30 29/29/29
f 29/29/29 32/32/32 31/31/31
f 35/35/35 34/34/34 33/33/33
f 33/33/33 36/36/36 35/35/35
f 39/39/39 38/38/38 37/37/37
f 37/37/37 40/40/40 39/39/39
f 43/43/43 42/42/42 41/41/41
f 41/41/41 44/44/44 43/43/43
f 47/47/47 46/46/46 45/45/45
f 45/45/45 48/48/48 47/47/47
f 51/51/51 50/50/50 49/49/49
f 49/49/49 52/52/52 51/51/51
f 55/55/55 54/54/54 53/53/53
f 53/53/53 56/56/56 55/55/55
f 59/59/59 58/58/58 57/57/57
f 57/57/57 60/60/60 59/59/59
f 63/63/63 62/62/62 61/61/61
f 61/61/61 64/64/64 63/63/63
f 67/67/67 66/66/66 65/65/65
f 65/65/65 68/68/68 67/67/67
f 71/71/71 70/70/70 69/69/69
f 69/69/69 72/72/72 71/71/71
f 75/75/75 74/74/74 73/73/73
f 73/73/73 76/76/76 75/75/75
f 79/79/79 78/78/78 77/77/77
f 77/77/77 80/80/80 79/79/79
f 83/83/83 82/82/82 81/81/81
f 81/81/81 84/84/84 83/83/83
f 87/87/87 86/86/86 85/85/85
f 85/85/85 88/88/88 87/87/87
f 91/91/91 90/90/90 89/89/89
f 89/89/89 92/92/92 91/91/91
f 95/95/95 94/94/94 93/93/93
f 93/93/93 96/96/96 95/95/95
f 99/99/99 98/98/98 97/97/97
f 97/97/97 100/100/100 99/99/99
f 103/103/103 102/102/102 101/101/101
f 101/101/101 104/104/104 103/103/103
f 107/107/107 106/106/106 105/105/105
f 105/105/105 108/108/108 107/107/107
f 111/111/111 110/110/110 109/109/109
f 109/109/109 112/112/112 111/111/111
f 115/115/115 114/114/114 113/113/113
f 113/113/113 116/116/116 115/115/115
f 119/119/119 118/118/118 117/117/117
f 117/117/117 120/120/120 119/119/119
f 123/123/123 122/122/122 121/121/121
f 121/121/121 124/124/124 123/123/123
f 127/127/127 126/126/126 125/125/125
f 125/125/125 128/128/128 127/127/127
f 131/131/131 130/130/130 129/129/129
f 129/129/129 132/132/132 131/131/131
f 135/135/135 134/134/134 133/133/133
f 133/133/133 136/136/136 135/135/135
f 139/139/139 138/138/138 137/137/137
f 137/137/137 140/140/140 139/139/139
f 143/143/143 142/142/142 141/141/141
f 141/141/141 144/144/144 143/143/143
f 147/147/147 146/146/146 145/145/145
f 145/145/145 148/148/148 147/147/147
f 151/151/151 150/150/150 149/149/149
f 149/149/149 152/152/152 151/151/151
f 155/155/155 154/154/154 153/153/153
f 153/153/153 156/156/156 155/155/155
f 159/159/159 158/158/158 157/157/157
f 157/157/157 160/160/160 159/159/159
f 163/163/163 162/162/162 161/161/161
f 161/161/161 164/164/164 163/163/163
f 167/167/167 166/166/166 165/165/165
f 165/165/165 168/168/168 167/167/167
f 171/171/171 170/170/170 169/169/169
f 169/169/169 172/172/172 171/171/171
f 175/175/175 174/174/174 173/173/173
f 173/173/173 176/176/176 175/175/175
f 179/179/179 178/178/178 177/177/177
f 177/177/177 180/180/180 179/179/179
f 183/183/183 182/182/182 181/181/181
f 181/181/181 184/184/184 183/183/183
f 187/187/187 186/186/186 185/185/185
f 185/185/185 188/188/188 187/187/187
f 191/191/191 190/190/190 189/189/189
f 189/189/189 192/192/192 191/191/191
