g mayebuleize_front-mesh
v -224 854 0
v -224 1174 0
v -384 1174 0
v -384 854 0
v -64 406 0
v -64 726 0
v -224 726 0
v -224 406 0
v -64 726 0
v -64 1046 0
v -224 1046 0
v -224 726 0
v -672 566 0
v -672 758 0
v -800 758 0
v -800 566 0
v -448 374 0
v -448 598 0
v -544 598 0
v -544 374 0
v -384 982 0
v -384 1142 0
v -512 1142 0
v -512 982 0
v -384 1142 0
v -384 1302 0
v -512 1302 0
v -512 1142 0
v -480 1302 0
v -480 1398 0
v -672 1398 0
v -672 1302 0
v -896 1558 0
v -896 1686 0
v -1024 1686 0
v -1024 1558 0
v -608 406 0
v -608 566 0
v -704 566 0
v -704 406 0
v -832 854 0
v -832 950 0
v -960 950 0
v -960 854 0
v -800 758 0
v -800 854 0
v -928 854 0
v -928 758 0
v -512 1206 0
v -512 1302 0
v -640 1302 0
v -640 1206 0
v -1152 1622 0
v -1152 1686 0
v -1344 1686 0
v -1344 1622 0
v -1344 1622 0
v -1344 1686 0
v -1504 1686 0
v -1504 1622 0
v -224 758 0
v -224 854 0
v -320 854 0
v -320 758 0
v -1024 1590 0
v -1024 1654 0
v -1152 1654 0
v -1152 1590 0
v -672 1462 0
v -672 1526 0
v -800 1526 0
v -800 1462 0
v -384 310 0
v -384 374 0
v -512 374 0
v -512 310 0
v -256 310 0
v -256 374 0
v -384 374 0
v -384 310 0
v -320 1174 0
v -320 1270 0
v -384 1270 0
v -384 1174 0
v -1504 1526 0
v -1504 1622 0
v -1568 1622 0
v -1568 1526 0
v -800 694 0
v -800 758 0
v -896 758 0
v -896 694 0
v -224 598 0
v -224 694 0
v -288 694 0
v -288 598 0
v -384 374 0
v -384 470 0
v -448 470 0
v -448 374 0
v -544 374 0
v -544 470 0
v -608 470 0
v -608 374 0
v -512 1142 0
v -512 1206 0
v -608 1206 0
v -608 1142 0
v -160 1046 0
v -160 1142 0
v -224 1142 0
v -224 1046 0
v -576 1398 0
v -576 1462 0
v -672 1462 0
v -672 1398 0
v -0 822 0
v -0 918 0
v -64 918 0
v -64 822 0
v -0 726 0
v -0 822 0
v -64 822 0
v -64 726 0
v -224 694 0
v -224 758 0
v -320 758 0
v -320 694 0
v -800 1494 0
v -800 1590 0
v -864 1590 0
v -864 1494 0
v -352 758 0
v -352 822 0
v -416 822 0
v -416 758 0
v -800 630 0
v -800 694 0
v -864 694 0
v -864 630 0
v -480 598 0
v -480 662 0
v -544 662 0
v -544 598 0
v -800 1430 0
v -800 1494 0
v -864 1494 0
v -864 1430 0
v -672 1398 0
v -672 1462 0
v -736 1462 0
v -736 1398 0
v -224 470 0
v -224 534 0
v -288 534 0
v -288 470 0
v -320 694 0
v -320 758 0
v -384 758 0
v -384 694 0
v -32 470 0
v -32 566 0
v -64 566 0
v -64 470 0
v -32 566 0
v -32 662 0
v -64 662 0
v -64 566 0
v -192 374 0
v -192 406 0
v -288 406 0
v -288 374 0
v -96 374 0
v -96 406 0
v -192 406 0
v -192 374 0
v -128 1046 0
v -128 1110 0
v -160 1110 0
v -160 1046 0
v -928 950 0
v -928 1014 0
v -960 1014 0
v -960 950 0
v -512 1078 0
v -512 1142 0
v -544 1142 0
v -544 1078 0
v -448 1302 0
v -448 1366 0
v -480 1366 0
v -480 1302 0
v -736 1526 0
v -736 1558 0
v -800 1558 0
v -800 1526 0
v -1024 1558 0
v -1024 1590 0
v -1088 1590 0
v -1088 1558 0
v -288 1174 0
v -288 1238 0
v -320 1238 0
v -320 1174 0
v -384 886 0
v -384 950 0
v -416 950 0
v -416 886 0
v -736 502 0
v -736 566 0
v -768 566 0
v -768 502 0
v -96 342 0
v -96 374 0
v -160 374 0
v -160 342 0
v -192 342 0
v -192 374 0
v -256 374 0
v -256 342 0
v -288 502 0
v -288 566 0
v -320 566 0
v -320 502 0
v -800 854 0
v -800 918 0
v -832 918 0
v -832 854 0
v -320 790 0
v -320 854 0
v -352 854 0
v -352 790 0
v -640 566 0
v -640 630 0
v -672 630 0
v -672 566 0
v -352 566 0
v -352 630 0
v -384 630 0
v -384 566 0
v -992 1686 0
v -992 1718 0
v -1056 1718 0
v -1056 1686 0
v -1152 1590 0
v -1152 1622 0
v -1216 1622 0
v -1216 1590 0
v -864 1526 0
v -864 1558 0
v -928 1558 0
v -928 1526 0
v -928 1526 0
v -928 1558 0
v -992 1558 0
v -992 1526 0
v -352 630 0
v -352 694 0
v -384 694 0
v -384 630 0
v -32 950 0
v -32 1014 0
v -64 1014 0
v -64 950 0
v -704 502 0
v -704 566 0
v -736 566 0
v -736 502 0
v -704 758 0
v -704 790 0
v -768 790 0
v -768 758 0
v -1440 1590 0
v -1440 1622 0
v -1504 1622 0
v -1504 1590 0
v -384 598 0
v -384 630 0
v -416 630 0
v -416 598 0
v -512 662 0
v -512 694 0
v -544 694 0
v -544 662 0
v -320 598 0
v -320 630 0
v -352 630 0
v -352 598 0
v -544 1110 0
v -544 1142 0
v -576 1142 0
v -576 1110 0
v -192 1142 0
v -192 1174 0
v -224 1174 0
v -224 1142 0
v -896 950 0
v -896 982 0
v -928 982 0
v -928 950 0
v -96 1046 0
v -96 1078 0
v -128 1078 0
v -128 1046 0
v -768 534 0
v -768 566 0
v -800 566 0
v -800 534 0
v -224 406 0
v -224 438 0
v -256 438 0
v -256 406 0
v -416 470 0
v -416 502 0
v -448 502 0
v -448 470 0
v -352 374 0
v -352 406 0
v -384 406 0
v -384 374 0
v -800 598 0
v -800 630 0
v -832 630 0
v -832 598 0
v -224 566 0
v -224 598 0
v -256 598 0
v -256 566 0
v -256 278 0
v -256 310 0
v -288 310 0
v -288 278 0
v -1056 1686 0
v -1056 1718 0
v -1088 1718 0
v -1088 1686 0
v -1504 1750 0
v -1504 1782 0
v -1536 1782 0
v -1536 1750 0
v -1504 1622 0
v -1504 1654 0
v -1536 1654 0
v -1536 1622 0
v -1216 1590 0
v -1216 1622 0
v -1248 1622 0
v -1248 1590 0
v -704 470 0
v -704 502 0
v -736 502 0
v -736 470 0
v -768 758 0
v -768 790 0
v -800 790 0
v -800 758 0
v -32 918 0
v -32 950 0
v -64 950 0
v -64 918 0
v -544 1398 0
v -544 1430 0
v -576 1430 0
v -576 1398 0
v -416 1302 0
v -416 1334 0
v -448 1334 0
v -448 1302 0
v -256 1174 0
v -256 1206 0
v -288 1206 0
v -288 1174 0
v -736 1430 0
v -736 1462 0
v -768 1462 0
v -768 1430 0
v -864 1558 0
v -864 1590 0
v -896 1590 0
v -896 1558 0
v -864 1494 0
v -864 1526 0
v -896 1526 0
v -896 1494 0
v -640 1462 0
v -640 1494 0
v -672 1494 0
v -672 1462 0
vt 0.0009765625 0.00139278173
vt 0.0009765625 0.447075188
vt 0.157226562 0.447075188
vt 0.157226562 0.00139278173
vt 0.159179688 0.00139278173
vt 0.159179688 0.447075188
vt 0.315429688 0.447075188
vt 0.315429688 0.00139278173
vt 0.317382812 0.00139278173
vt 0.317382812 0.447075188
vt 0.473632812 0.447075188
vt 0.473632812 0.00139278173
vt 0.475585938 0.00139278173
vt 0.475585938 0.268802226
vt 0.600585938 0.268802226
vt 0.600585938 0.00139278173
vt 0.602539062 0.00139278173
vt 0.602539062 0.313370466
vt 0.696289062 0.313370466
vt 0.696289062 0.00139278173
vt 0.698242188 0.00139278173
vt 0.698242188 0.224233985
vt 0.823242188 0.224233985
vt 0.823242188 0.00139278173
vt 0.825195312 0.00139278173
vt 0.825195312 0.224233985
vt 0.950195312 0.224233985
vt 0.950195312 0.00139278173
vt 0.698242188 0.227019489
vt 0.698242188 0.360724211
vt 0.885742188 0.360724211
vt 0.885742188 0.227019489
vt 0.475585938 0.271587729
vt 0.475585938 0.449860752
vt 0.600585938 0.449860752
vt 0.600585938 0.271587729
vt 0.887695312 0.227019489
vt 0.887695312 0.449860752
vt 0.981445312 0.449860752
vt 0.981445312 0.227019489
vt 0.698242188 0.363509774
vt 0.698242188 0.497214496
vt 0.823242188 0.497214496
vt 0.823242188 0.363509774
vt 0.0009765625 0.449860752
vt 0.0009765625 0.583565474
vt 0.125976562 0.583565474
vt 0.125976562 0.449860752
vt 0.127929688 0.449860752
vt 0.127929688 0.583565474
vt 0.252929688 0.583565474
vt 0.252929688 0.449860752
vt 0.254882812 0.449860752
vt 0.254882812 0.538997173
vt 0.442382812 0.538997173
vt 0.442382812 0.449860752
vt 0.475585938 0.452646255
vt 0.475585938 0.541782737
vt 0.631835938 0.541782737
vt 0.631835938 0.452646255
vt 0.887695312 0.452646255
vt 0.887695312 0.586350977
vt 0.981445312 0.586350977
vt 0.981445312 0.452646255
vt 0.698242188 0.5
vt 0.698242188 0.589136481
vt 0.823242188 0.589136481
vt 0.823242188 0.5
vt 0.254882812 0.541782737
vt 0.254882812 0.630919218
vt 0.379882812 0.630919218
vt 0.379882812 0.541782737
vt 0.475585938 0.544568241
vt 0.475585938 0.633704722
vt 0.600585938 0.633704722
vt 0.600585938 0.544568241
vt 0.0009765625 0.586350977
vt 0.0009765625 0.675487459
vt 0.125976562 0.675487459
vt 0.125976562 0.586350977
vt 0.633789062 0.31615597
vt 0.633789062 0.449860752
vt 0.696289062 0.449860752
vt 0.696289062 0.31615597
vt 0.633789062 0.452646255
vt 0.633789062 0.586350977
vt 0.696289062 0.586350977
vt 0.696289062 0.452646255
vt 0.127929688 0.586350977
vt 0.127929688 0.675487459
vt 0.221679688 0.675487459
vt 0.221679688 0.586350977
vt 0.381835938 0.541782737
vt 0.381835938 0.675487459
vt 0.444335938 0.675487459
vt 0.444335938 0.541782737
vt 0.633789062 0.589136481
vt 0.633789062 0.722841263
vt 0.696289062 0.722841263
vt 0.696289062 0.589136481
vt 0.887695312 0.589136481
vt 0.887695312 0.722841263
vt 0.950195312 0.722841263
vt 0.950195312 0.589136481
vt 0.698242188 0.591922045
vt 0.698242188 0.681058526
vt 0.791992188 0.681058526
vt 0.791992188 0.591922045
vt 0.793945312 0.591922045
vt 0.793945312 0.725626707
vt 0.856445312 0.725626707
vt 0.856445312 0.591922045
vt 0.254882812 0.633704722
vt 0.254882812 0.722841263
vt 0.348632812 0.722841263
vt 0.348632812 0.633704722
vt 0.475585938 0.636490226
vt 0.475585938 0.770195007
vt 0.538085938 0.770195007
vt 0.538085938 0.636490226
vt 0.540039062 0.636490226
vt 0.540039062 0.770195007
vt 0.602539062 0.770195007
vt 0.602539062 0.636490226
vt 0.0009765625 0.678272963
vt 0.0009765625 0.767409444
vt 0.0947265625 0.767409444
vt 0.0947265625 0.678272963
vt 0.0966796875 0.678272963
vt 0.0966796875 0.811977744
vt 0.159179688 0.811977744
vt 0.159179688 0.678272963
vt 0.161132812 0.678272963
vt 0.161132812 0.767409444
vt 0.223632812 0.767409444
vt 0.223632812 0.678272963
vt 0.381835938 0.678272963
vt 0.381835938 0.767409444
vt 0.444335938 0.767409444
vt 0.444335938 0.678272963
vt 0.698242188 0.68384397
vt 0.698242188 0.772980511
vt 0.760742188 0.772980511
vt 0.760742188 0.68384397
vt 0.254882812 0.725626707
vt 0.254882812 0.814763248
vt 0.317382812 0.814763248
vt 0.317382812 0.725626707
vt 0.633789062 0.725626707
vt 0.633789062 0.814763248
vt 0.696289062 0.814763248
vt 0.696289062 0.725626707
vt 0.887695312 0.725626707
vt 0.887695312 0.814763248
vt 0.950195312 0.814763248
vt 0.950195312 0.725626707
vt 0.793945312 0.728412271
vt 0.793945312 0.817548752
vt 0.856445312 0.817548752
vt 0.856445312 0.728412271
vt 0.952148438 0.589136481
vt 0.952148438 0.722841263
vt 0.983398438 0.722841263
vt 0.983398438 0.589136481
vt 0.319335938 0.725626707
vt 0.319335938 0.859331489
vt 0.350585938 0.859331489
vt 0.350585938 0.725626707
vt 0.0009765625 0.770195007
vt 0.0009765625 0.814763248
vt 0.0947265625 0.814763248
vt 0.0947265625 0.770195007
vt 0.475585938 0.772980511
vt 0.475585938 0.817548752
vt 0.569335938 0.817548752
vt 0.569335938 0.772980511
vt 0.952148438 0.725626707
vt 0.952148438 0.814763248
vt 0.983398438 0.814763248
vt 0.983398438 0.725626707
vt 0.161132812 0.770195007
vt 0.161132812 0.859331489
vt 0.192382812 0.859331489
vt 0.192382812 0.770195007
vt 0.194335938 0.770195007
vt 0.194335938 0.859331489
vt 0.225585938 0.859331489
vt 0.225585938 0.770195007
vt 0.381835938 0.770195007
vt 0.381835938 0.859331489
vt 0.413085938 0.859331489
vt 0.413085938 0.770195007
vt 0.698242188 0.775766015
vt 0.698242188 0.820334256
vt 0.760742188 0.820334256
vt 0.760742188 0.775766015
vt 0.0966796875 0.814763248
vt 0.0966796875 0.859331489
vt 0.159179688 0.859331489
vt 0.159179688 0.814763248
vt 0.415039062 0.770195007
vt 0.415039062 0.859331489
vt 0.446289062 0.859331489
vt 0.446289062 0.770195007
vt 0.571289062 0.772980511
vt 0.571289062 0.862116992
vt 0.602539062 0.862116992
vt 0.602539062 0.772980511
vt 0.0009765625 0.817548752
vt 0.0009765625 0.906685233
vt 0.0322265625 0.906685233
vt 0.0322265625 0.817548752
vt 0.254882812 0.817548752
vt 0.254882812 0.862116992
vt 0.317382812 0.862116992
vt 0.317382812 0.817548752
vt 0.633789062 0.817548752
vt 0.633789062 0.862116992
vt 0.696289062 0.862116992
vt 0.696289062 0.817548752
vt 0.0341796875 0.817548752
vt 0.0341796875 0.906685233
vt 0.0654296875 0.906685233
vt 0.0654296875 0.817548752
vt 0.887695312 0.817548752
vt 0.887695312 0.906685233
vt 0.918945312 0.906685233
vt 0.918945312 0.817548752
vt 0.920898438 0.817548752
vt 0.920898438 0.906685233
vt 0.952148438 0.906685233
vt 0.952148438 0.817548752
vt 0.954101562 0.817548752
vt 0.954101562 0.906685233
vt 0.985351562 0.906685233
vt 0.985351562 0.817548752
vt 0.475585938 0.820334256
vt 0.475585938 0.909470737
vt 0.506835938 0.909470737
vt 0.506835938 0.820334256
vt 0.793945312 0.820334256
vt 0.793945312 0.864902496
vt 0.856445312 0.864902496
vt 0.856445312 0.820334256
vt 0.698242188 0.82311976
vt 0.698242188 0.867688
vt 0.760742188 0.867688
vt 0.760742188 0.82311976
vt 0.0966796875 0.862116992
vt 0.0966796875 0.906685233
vt 0.159179688 0.906685233
vt 0.159179688 0.862116992
vt 0.161132812 0.862116992
vt 0.161132812 0.906685233
vt 0.223632812 0.906685233
vt 0.223632812 0.862116992
vt 0.508789062 0.820334256
vt 0.508789062 0.909470737
vt 0.540039062 0.909470737
vt 0.540039062 0.820334256
vt 0.319335938 0.862116992
vt 0.319335938 0.951253474
vt 0.350585938 0.951253474
vt 0.350585938 0.862116992
vt 0.381835938 0.862116992
vt 0.381835938 0.951253474
vt 0.413085938 0.951253474
vt 0.413085938 0.862116992
vt 0.254882812 0.864902496
vt 0.254882812 0.909470737
vt 0.317382812 0.909470737
vt 0.317382812 0.864902496
vt 0.571289062 0.864902496
vt 0.571289062 0.909470737
vt 0.633789062 0.909470737
vt 0.633789062 0.864902496
vt 0.415039062 0.862116992
vt 0.415039062 0.906685233
vt 0.446289062 0.906685233
vt 0.446289062 0.862116992
vt 0.635742188 0.864902496
vt 0.635742188 0.909470737
vt 0.666992188 0.909470737
vt 0.666992188 0.864902496
vt 0.793945312 0.867688
vt 0.793945312 0.912256241
vt 0.825195312 0.912256241
vt 0.825195312 0.867688
vt 0.827148438 0.867688
vt 0.827148438 0.912256241
vt 0.858398438 0.912256241
vt 0.858398438 0.867688
vt 0.698242188 0.870473504
vt 0.698242188 0.915041804
vt 0.729492188 0.915041804
vt 0.729492188 0.870473504
vt 0.731445312 0.870473504
vt 0.731445312 0.915041804
vt 0.762695312 0.915041804
vt 0.762695312 0.870473504
vt 0.0009765625 0.909470737
vt 0.0009765625 0.954038978
vt 0.0322265625 0.954038978
vt 0.0322265625 0.909470737
vt 0.0341796875 0.909470737
vt 0.0341796875 0.954038978
vt 0.0654296875 0.954038978
vt 0.0654296875 0.909470737
vt 0.0966796875 0.909470737
vt 0.0966796875 0.954038978
vt 0.127929688 0.954038978
vt 0.127929688 0.909470737
vt 0.129882812 0.909470737
vt 0.129882812 0.954038978
vt 0.161132812 0.954038978
vt 0.161132812 0.909470737
vt 0.163085938 0.909470737
vt 0.163085938 0.954038978
vt 0.194335938 0.954038978
vt 0.194335938 0.909470737
vt 0.196289062 0.909470737
vt 0.196289062 0.954038978
vt 0.227539062 0.954038978
vt 0.227539062 0.909470737
vt 0.415039062 0.909470737
vt 0.415039062 0.954038978
vt 0.446289062 0.954038978
vt 0.446289062 0.909470737
vt 0.887695312 0.909470737
vt 0.887695312 0.954038978
vt 0.918945312 0.954038978
vt 0.918945312 0.909470737
vt 0.920898438 0.909470737
vt 0.920898438 0.954038978
vt 0.952148438 0.954038978
vt 0.952148438 0.909470737
vt 0.954101562 0.909470737
vt 0.954101562 0.954038978
vt 0.985351562 0.954038978
vt 0.985351562 0.909470737
vt 0.254882812 0.912256241
vt 0.254882812 0.956824541
vt 0.286132812 0.956824541
vt 0.286132812 0.912256241
vt 0.475585938 0.912256241
vt 0.475585938 0.956824541
vt 0.506835938 0.956824541
vt 0.506835938 0.912256241
vt 0.508789062 0.912256241
vt 0.508789062 0.956824541
vt 0.540039062 0.956824541
vt 0.540039062 0.912256241
vt 0.571289062 0.912256241
vt 0.571289062 0.956824541
vt 0.602539062 0.956824541
vt 0.602539062 0.912256241
vt 0.604492188 0.912256241
vt 0.604492188 0.956824541
vt 0.635742188 0.956824541
vt 0.635742188 0.912256241
vt 0.637695312 0.912256241
vt 0.637695312 0.956824541
vt 0.668945312 0.956824541
vt 0.668945312 0.912256241
vt 0.793945312 0.915041804
vt 0.793945312 0.959610045
vt 0.825195312 0.959610045
vt 0.825195312 0.915041804
vt 0.827148438 0.915041804
vt 0.827148438 0.959610045
vt 0.858398438 0.959610045
vt 0.858398438 0.915041804
vt 0.698242188 0.917827308
vt 0.698242188 0.962395549
vt 0.729492188 0.962395549
vt 0.729492188 0.917827308
vt 0.731445312 0.917827308
vt 0.731445312 0.962395549
vt 0.762695312 0.962395549
vt 0.762695312 0.917827308
vt 0.319335938 0.954038978
vt 0.319335938 0.998607218
vt 0.350585938 0.998607218
vt 0.350585938 0.954038978
vt 0.381835938 0.954038978
vt 0.381835938 0.998607218
vt 0.413085938 0.998607218
vt 0.413085938 0.954038978
g mayebuleize_front-mesh_0
f 3/3/3 2/2/2 1/1/1
f 1/1/1 4/4/4 3/3/3
f 7/7/7 6/6/6 5/5/5
f 5/5/5 8/8/8 7/7/7
f 11/11/11 10/10/10 9/9/9
f 9/9/9 12/12/12 11/11/11
f 15/15/15 14/14/14 13/13/13
f 13/13/13 16/16/16 15/15/15
f 19/19/19 18/18/18 17/17/17
f 17/17/17 20/20/20 19/19/19
f 23/23/23 22/22/22 21/21/21
f 21/21/21 24/24/24 23/23/23
f 27/27/27 26/26/26 25/25/25
f 25/25/25 28/28/28 27/27/27
f 31/31/31 30/30/30 29/29/29
f 29/29/29 32/32/32 31/31/31
f 35/35/35 34/34/34 33/33/33
f 33/33/33 36/36/36 35/35/35
f 39/39/39 38/38/38 37/37/37
f 37/37/37 40/40/40 39/39/39
f 43/43/43 42/42/42 41/41/41
f 41/41/41 44/44/44 43/43/43
f 47/47/47 46/46/46 45/45/45
f 45/45/45 48/48/48 47/47/47
f 51/51/51 50/50/50 49/49/49
f 49/49/49 52/52/52 51/51/51
f 55/55/55 54/54/54 53/53/53
f 53/53/53 56/56/56 55/55/55
f 59/59/59 58/58/58 57/57/57
f 57/57/57 60/60/60 59/59/59
f 63/63/63 62/62/62 61/61/61
f 61/61/61 64/64/64 63/63/63
f 67/67/67 66/66/66 65/65/65
f 65/65/65 68/68/68 67/67/67
f 71/71/71 70/70/70 69/69/69
f 69/69/69 72/72/72 71/71/71
f 75/75/75 74/74/74 73/73/73
f 73/73/73 76/76/76 75/75/75
f 79/79/79 78/78/78 77/77/77
f 77/77/77 80/80/80 79/79/79
f 83/83/83 82/82/82 81/81/81
f 81/81/81 84/84/84 83/83/83
f 87/87/87 86/86/86 85/85/85
f 85/85/85 88/88/88 87/87/87
f 91/91/91 90/90/90 89/89/89
f 89/89/89 92/92/92 91/91/91
f 95/95/95 94/94/94 93/93/93
f 93/93/93 96/96/96 95/95/95
f 99/99/99 98/98/98 97/97/97
f 97/97/97 100/100/100 99/99/99
f 103/103/103 102/102/102 101/101/101
f 101/101/101 104/104/104 103/103/103
f 107/107/107 106/106/106 105/105/105
f 105/105/105 108/108/108 107/107/107
f 111/111/111 110/110/110 109/109/109
f 109/109/109 112/112/112 111/111/111
f 115/115/115 114/114/114 113/113/113
f 113/113/113 116/116/116 115/115/115
f 119/119/119 118/118/118 117/117/117
f 117/117/117 120/120/120 119/119/119
f 123/123/123 122/122/122 121/121/121
f 121/121/121 124/124/124 123/123/123
f 127/127/127 126/126/126 125/125/125
f 125/125/125 128/128/128 127/127/127
f 131/131/131 130/130/130 129/129/129
f 129/129/129 132/132/132 131/131/131
f 135/135/135 134/134/134 133/133/133
f 133/133/133 136/136/136 135/135/135
f 139/139/139 138/138/138 137/137/137
f 137/137/137 140/140/140 139/139/139
f 143/143/143 142/142/142 141/141/141
f 141/141/141 144/144/144 143/143/143
f 147/147/147 146/146/146 145/145/145
f 145/145/145 148/148/148 147/147/147
f 151/151/151 150/150/150 149/149/149
f 149/149/149 152/152/152 151/151/151
f 155/155/155 154/154/154 153/153/153
f 153/153/153 156/156/156 155/155/155
f 159/159/159 158/158/158 157/157/157
f 157/157/157 160/160/160 159/159/159
f 163/163/163 162/162/162 161/161/161
f 161/161/161 164/164/164 163/163/163
f 167/167/167 166/166/166 165/165/165
f 165/165/165 168/168/168 167/167/167
f 171/171/171 170/170/170 169/169/169
f 169/169/169 172/172/172 171/171/171
f 175/175/175 174/174/174 173/173/173
f 173/173/173 176/176/176 175/175/175
f 179/179/179 178/178/178 177/177/177
f 177/177/177 180/180/180 179/179/179
f 183/183/183 182/182/182 181/181/181
f 181/181/181 184/184/184 183/183/183
f 187/187/187 186/186/186 185/185/185
f 185/185/185 188/188/188 187/187/187
f 191/191/191 190/190/190 189/189/189
f 189/189/189 192/192/192 191/191/191
f 195/195/195 194/194/194 193/193/193
f 193/193/193 196/196/196 195/195/195
f 199/199/199 198/198/198 197/197/197
f 197/197/197 200/200/200 199/199/199
f 203/203/203 202/202/202 201/201/201
f 201/201/201 204/204/204 203/203/203
f 207/207/207 206/206/206 205/205/205
f 205/205/205 208/208/208 207/207/207
f 211/211/211 210/210/210 209/209/209
f 209/209/209 212/212/212 211/211/211
f 215/215/215 214/214/214 213/213/213
f 213/213/213 216/216/216 215/215/215
f 219/219/219 218/218/218 217/217/217
f 217/217/217 220/220/220 219/219/219
f 223/223/223 222/222/222 221/221/221
f 221/221/221 224/224/224 223/223/223
f 227/227/227 226/226/226 225/225/225
f 225/225/225 228/228/228 227/227/227
f 231/231/231 230/230/230 229/229/229
f 229/229/229 232/232/232 231/231/231
f 235/235/235 234/234/234 233/233/233
f 233/233/233 236/236/236 235/235/235
f 239/239/239 238/238/238 237/237/237
f 237/237/237 240/240/240 239/239/239
f 243/243/243 242/242/242 241/241/241
f 241/241/241 244/244/244 243/243/243
f 247/247/247 246/246/246 245/245/245
f 245/245/245 248/248/248 247/247/247
f 251/251/251 250/250/250 249/249/249
f 249/249/249 252/252/252 251/251/251
f 255/255/255 254/254/254 253/253/253
f 253/253/253 256/256/256 255/255/255
f 259/259/259 258/258/258 257/257/257
f 257/257/257 260/260/260 259/259/259
f 263/263/263 262/262/262 261/261/261
f 261/261/261 264/264/264 263/263/263
f 267/267/267 266/266/266 265/265/265
f 265/265/265 268/268/268 267/267/267
f 271/271/271 270/270/270 269/269/269
f 269/269/269 272/272/272 271/271/271
f 275/275/275 274/274/274 273/273/273
f 273/273/273 276/276/276 275/275/275
f 279/279/279 278/278/278 277/277/277
f 277/277/277 280/280/280 279/279/279
f 283/283/283 282/282/282 281/281/281
f 281/281/281 284/284/284 283/283/283
f 287/287/287 286/286/286 285/285/285
f 285/285/285 288/288/288 287/287/287
f 291/291/291 290/290/290 289/289/289
f 289/289/289 292/292/292 291/291/291
f 295/295/295 294/294/294 293/293/293
f 293/293/293 296/296/296 295/295/295
f 299/299/299 298/298/298 297/297/297
f 297/297/297 300/300/300 299/299/299
f 303/303/303 302/302/302 301/301/301
f 301/301/301 304/304/304 303/303/303
f 307/307/307 306/306/306 305/305/305
f 305/305/305 308/308/308 307/307/307
f 311/311/311 310/310/310 309/309/309
f 309/309/309 312/312/312 311/311/311
f 315/315/315 314/314/314 313/313/313
f 313/313/313 316/316/316 315/315/315
f 319/319/319 318/318/318 317/317/317
f 317/317/317 320/320/320 319/319/319
f 323/323/323 322/322/322 321/321/321
f 321/321/321 324/324/324 323/323/323
f 327/327/327 326/326/326 325/325/325
f 325/325/325 328/328/328 327/327/327
f 331/331/331 330/330/330 329/329/329
f 329/329/329 332/332/332 331/331/331
f 335/335/335 334/334/334 333/333/333
f 333/333/333 336/336/336 335/335/335
f 339/339/339 338/338/338 337/337/337
f 337/337/337 340/340/340 339/339/339
f 343/343/343 342/342/342 341/341/341
f 341/341/341 344/344/344 343/343/343
f 347/347/347 346/346/346 345/345/345
f 345/345/345 348/348/348 347/347/347
f 351/351/351 350/350/350 349/349/349
f 349/349/349 352/352/352 351/351/351
f 355/355/355 354/354/354 353/353/353
f 353/353/353 356/356/356 355/355/355
f 359/359/359 358/358/358 357/357/357
f 357/357/357 360/360/360 359/359/359
f 363/363/363 362/362/362 361/361/361
f 361/361/361 364/364/364 363/363/363
f 367/367/367 366/366/366 365/365/365
f 365/365/365 368/368/368 367/367/367
f 371/371/371 370/370/370 369/369/369
f 369/369/369 372/372/372 371/371/371
f 375/375/375 374/374/374 373/373/373
f 373/373/373 376/376/376 375/375/375
f 379/379/379 378/378/378 377/377/377
f 377/377/377 380/380/380 379/379/379
f 383/383/383 382/382/382 381/381/381
f 381/381/381 384/384/384 383/383/383
f 387/387/387 386/386/386 385/385/385
f 385/385/385 388/388/388 387/387/387
