g wuju_bj-mesh
v -1376 369 0
v -1376 785 0
v -1792 785 0
v -1792 369 0
v -1472 785 0
v -1472 849 0
v -1600 849 0
v -1600 785 0
v -1792 433 0
v -1792 561 0
v -1856 561 0
v -1856 433 0
v -1792 561 0
v -1792 689 0
v -1856 689 0
v -1856 561 0
v -1344 529 0
v -1344 753 0
v -1376 753 0
v -1376 529 0
v -1376 337 0
v -1376 369 0
v -1568 369 0
v -1568 337 0
v -384 529 0
v -384 625 0
v -448 625 0
v -448 529 0
v -1600 785 0
v -1600 849 0
v -1696 849 0
v -1696 785 0
v -1344 337 0
v -1344 529 0
v -1376 529 0
v -1376 337 0
v -1568 337 0
v -1568 369 0
v -1728 369 0
v -1728 337 0
v -32 465 0
v -32 529 0
v -96 529 0
v -96 465 0
v -384 465 0
v -384 529 0
v -448 529 0
v -448 465 0
v -288 657 0
v -288 753 0
v -320 753 0
v -320 657 0
v -1376 305 0
v -1376 337 0
v -1472 337 0
v -1472 305 0
v -288 561 0
v -288 657 0
v -320 657 0
v -320 561 0
v -224 689 0
v -224 721 0
v -288 721 0
v -288 689 0
v -1792 689 0
v -1792 753 0
v -1824 753 0
v -1824 689 0
v -1696 785 0
v -1696 817 0
v -1760 817 0
v -1760 785 0
v -384 401 0
v -384 465 0
v -416 465 0
v -416 401 0
v -1856 529 0
v -1856 593 0
v -1888 593 0
v -1888 529 0
v -320 657 0
v -320 721 0
v -352 721 0
v -352 657 0
v -1408 785 0
v -1408 817 0
v -1472 817 0
v -1472 785 0
v -1312 401 0
v -1312 465 0
v -1344 465 0
v -1344 401 0
v -1312 465 0
v -1312 529 0
v -1344 529 0
v -1344 465 0
v -1472 305 0
v -1472 337 0
v -1536 337 0
v -1536 305 0
v -1504 849 0
v -1504 881 0
v -1568 881 0
v -1568 849 0
v -960 1681 0
v -960 1745 0
v -992 1745 0
v -992 1681 0
v -352 561 0
v -352 593 0
v -384 593 0
v -384 561 0
v -448 561 0
v -448 593 0
v -480 593 0
v -480 561 0
v -1792 401 0
v -1792 433 0
v -1824 433 0
v -1824 401 0
v -352 689 0
v -352 721 0
v -384 721 0
v -384 689 0
v -960 1649 0
v -960 1681 0
v -992 1681 0
v -992 1649 0
v -928 1681 0
v -928 1713 0
v -960 1713 0
v -960 1681 0
v -992 1681 0
v -992 1713 0
v -1024 1713 0
v -1024 1681 0
vt 0.0009765625 0.00239235163
vt 0.0009765625 0.997607648
vt 0.407226562 0.997607648
vt 0.407226562 0.00239235163
vt 0.409179688 0.00239235163
vt 0.409179688 0.155502379
vt 0.534179688 0.155502379
vt 0.534179688 0.00239235163
vt 0.536132812 0.00239235163
vt 0.536132812 0.308612466
vt 0.598632812 0.308612466
vt 0.598632812 0.00239235163
vt 0.600585938 0.00239235163
vt 0.600585938 0.308612466
vt 0.663085938 0.308612466
vt 0.663085938 0.00239235163
vt 0.665039062 0.00239235163
vt 0.665039062 0.538277507
vt 0.696289062 0.538277507
vt 0.696289062 0.00239235163
vt 0.698242188 0.00239235163
vt 0.698242188 0.0789473653
vt 0.885742188 0.0789473653
vt 0.885742188 0.00239235163
vt 0.887695312 0.00239235163
vt 0.887695312 0.232057393
vt 0.950195312 0.232057393
vt 0.950195312 0.00239235163
vt 0.698242188 0.0837320685
vt 0.698242188 0.236842096
vt 0.791992188 0.236842096
vt 0.791992188 0.0837320685
vt 0.952148438 0.00239235163
vt 0.952148438 0.461722493
vt 0.983398438 0.461722493
vt 0.983398438 0.00239235163
vt 0.698242188 0.241626799
vt 0.698242188 0.318181813
vt 0.854492188 0.318181813
vt 0.854492188 0.241626799
vt 0.409179688 0.160287082
vt 0.409179688 0.31339711
vt 0.471679688 0.31339711
vt 0.471679688 0.160287082
vt 0.887695312 0.236842096
vt 0.887695312 0.389952183
vt 0.950195312 0.389952183
vt 0.950195312 0.236842096
vt 0.473632812 0.160287082
vt 0.473632812 0.389952183
vt 0.504882812 0.389952183
vt 0.504882812 0.160287082
vt 0.536132812 0.31339711
vt 0.536132812 0.389952183
vt 0.629882812 0.389952183
vt 0.629882812 0.31339711
vt 0.631835938 0.31339711
vt 0.631835938 0.54306221
vt 0.663085938 0.54306221
vt 0.663085938 0.31339711
vt 0.409179688 0.318181813
vt 0.409179688 0.394736826
vt 0.471679688 0.394736826
vt 0.471679688 0.318181813
vt 0.698242188 0.322966516
vt 0.698242188 0.476076543
vt 0.729492188 0.476076543
vt 0.729492188 0.322966516
vt 0.731445312 0.322966516
vt 0.731445312 0.39952153
vt 0.793945312 0.39952153
vt 0.793945312 0.322966516
vt 0.795898438 0.322966516
vt 0.795898438 0.476076543
vt 0.827148438 0.476076543
vt 0.827148438 0.322966516
vt 0.829101562 0.322966516
vt 0.829101562 0.476076543
vt 0.860351562 0.476076543
vt 0.860351562 0.322966516
vt 0.473632812 0.394736826
vt 0.473632812 0.547846913
vt 0.504882812 0.547846913
vt 0.504882812 0.394736826
vt 0.536132812 0.394736826
vt 0.536132812 0.47129184
vt 0.598632812 0.47129184
vt 0.598632812 0.394736826
vt 0.887695312 0.394736826
vt 0.887695312 0.547846913
vt 0.918945312 0.547846913
vt 0.918945312 0.394736826
vt 0.409179688 0.39952153
vt 0.409179688 0.552631617
vt 0.440429688 0.552631617
vt 0.440429688 0.39952153
vt 0.731445312 0.404306233
vt 0.731445312 0.480861247
vt 0.793945312 0.480861247
vt 0.793945312 0.404306233
vt 0.536132812 0.476076543
vt 0.536132812 0.552631617
vt 0.598632812 0.552631617
vt 0.598632812 0.476076543
vt 0.952148438 0.466507196
vt 0.952148438 0.619617224
vt 0.983398438 0.619617224
vt 0.983398438 0.466507196
vt 0.698242188 0.480861247
vt 0.698242188 0.55741626
vt 0.729492188 0.55741626
vt 0.729492188 0.480861247
vt 0.795898438 0.480861247
vt 0.795898438 0.55741626
vt 0.827148438 0.55741626
vt 0.827148438 0.480861247
vt 0.829101562 0.480861247
vt 0.829101562 0.55741626
vt 0.860351562 0.55741626
vt 0.860351562 0.480861247
vt 0.731445312 0.48564595
vt 0.731445312 0.562200963
vt 0.762695312 0.562200963
vt 0.762695312 0.48564595
vt 0.665039062 0.54306221
vt 0.665039062 0.619617224
vt 0.696289062 0.619617224
vt 0.696289062 0.54306221
vt 0.631835938 0.547846913
vt 0.631835938 0.624401927
vt 0.663085938 0.624401927
vt 0.663085938 0.547846913
vt 0.473632812 0.552631617
vt 0.473632812 0.62918663
vt 0.504882812 0.62918663
vt 0.504882812 0.552631617
g wuju_bj-mesh_0
f 3/3/3 2/2/2 1/1/1
f 1/1/1 4/4/4 3/3/3
f 7/7/7 6/6/6 5/5/5
f 5/5/5 8/8/8 7/7/7
f 11/11/11 10/10/10 9/9/9
f 9/9/9 12/12/12 11/11/11
f 15/15/15 14/14/14 13/13/13
f 13/13/13 16/16/16 15/15/15
f 19/19/19 18/18/18 17/17/17
f 17/17/17 20/20/20 19/19/19
f 23/23/23 22/22/22 21/21/21
f 21/21/21 24/24/24 23/23/23
f 27/27/27 26/26/26 25/25/25
f 25/25/25 28/28/28 27/27/27
f 31/31/31 30/30/30 29/29/29
f 29/29/29 32/32/32 31/31/31
f 35/35/35 34/34/34 33/33/33
f 33/33/33 36/36/36 35/35/35
f 39/39/39 38/38/38 37/37/37
f 37/37/37 40/40/40 39/39/39
f 43/43/43 42/42/42 41/41/41
f 41/41/41 44/44/44 43/43/43
f 47/47/47 46/46/46 45/45/45
f 45/45/45 48/48/48 47/47/47
f 51/51/51 50/50/50 49/49/49
f 49/49/49 52/52/52 51/51/51
f 55/55/55 54/54/54 53/53/53
f 53/53/53 56/56/56 55/55/55
f 59/59/59 58/58/58 57/57/57
f 57/57/57 60/60/60 59/59/59
f 63/63/63 62/62/62 61/61/61
f 61/61/61 64/64/64 63/63/63
f 67/67/67 66/66/66 65/65/65
f 65/65/65 68/68/68 67/67/67
f 71/71/71 70/70/70 69/69/69
f 69/69/69 72/72/72 71/71/71
f 75/75/75 74/74/74 73/73/73
f 73/73/73 76/76/76 75/75/75
f 79/79/79 78/78/78 77/77/77
f 77/77/77 80/80/80 79/79/79
f 83/83/83 82/82/82 81/81/81
f 81/81/81 84/84/84 83/83/83
f 87/87/87 86/86/86 85/85/85
f 85/85/85 88/88/88 87/87/87
f 91/91/91 90/90/90 89/89/89
f 89/89/89 92/92/92 91/91/91
f 95/95/95 94/94/94 93/93/93
f 93/93/93 96/96/96 95/95/95
f 99/99/99 98/98/98 97/97/97
f 97/97/97 100/100/100 99/99/99
f 103/103/103 102/102/102 101/101/101
f 101/101/101 104/104/104 103/103/103
f 107/107/107 106/106/106 105/105/105
f 105/105/105 108/108/108 107/107/107
f 111/111/111 110/110/110 109/109/109
f 109/109/109 112/112/112 111/111/111
f 115/115/115 114/114/114 113/113/113
f 113/113/113 116/116/116 115/115/115
f 119/119/119 118/118/118 117/117/117
f 117/117/117 120/120/120 119/119/119
f 123/123/123 122/122/122 121/121/121
f 121/121/121 124/124/124 123/123/123
f 127/127/127 126/126/126 125/125/125
f 125/125/125 128/128/128 127/127/127
f 131/131/131 130/130/130 129/129/129
f 129/129/129 132/132/132 131/131/131
f 135/135/135 134/134/134 133/133/133
f 133/133/133 136/136/136 135/135/135
