g danfo_2_rw-mesh
v -672 279 0
v -672 823 0
v -1248 823 0
v -1248 279 0
v -1248 279 0
v -1248 823 0
v -1792 823 0
v -1792 279 0
v -416 823 0
v -416 1143 0
v -736 1143 0
v -736 823 0
v -736 823 0
v -736 1143 0
v -1024 1143 0
v -1024 823 0
v -1792 439 0
v -1792 791 0
v -1984 791 0
v -1984 439 0
v -352 247 0
v -352 535 0
v -512 535 0
v -512 247 0
v -128 503 0
v -128 791 0
v -288 791 0
v -288 503 0
v -512 247 0
v -512 535 0
v -672 535 0
v -672 247 0
v -512 535 0
v -512 823 0
v -672 823 0
v -672 535 0
v -800 119 0
v -800 279 0
v -1056 279 0
v -1056 119 0
v -288 727 0
v -288 1015 0
v -416 1015 0
v -416 727 0
v -1248 951 0
v -1248 1207 0
v -1376 1207 0
v -1376 951 0
v -1248 1207 0
v -1248 1463 0
v -1376 1463 0
v -1376 1207 0
v -512 1143 0
v -512 1271 0
v -704 1271 0
v -704 1143 0
v -1184 823 0
v -1184 951 0
v -1344 951 0
v -1344 823 0
v -704 1143 0
v -704 1271 0
v -864 1271 0
v -864 1143 0
v -1024 823 0
v -1024 1015 0
v -1120 1015 0
v -1120 823 0
v -1344 183 0
v -1344 279 0
v -1504 279 0
v -1504 183 0
v -1504 183 0
v -1504 279 0
v -1632 279 0
v -1632 183 0
v -1600 823 0
v -1600 887 0
v -1760 887 0
v -1760 823 0
v -32 503 0
v -32 599 0
v -128 599 0
v -128 503 0
v -1760 823 0
v -1760 887 0
v -1888 887 0
v -1888 823 0
v -1792 311 0
v -1792 439 0
v -1856 439 0
v -1856 311 0
v -1344 823 0
v -1344 887 0
v -1440 887 0
v -1440 823 0
v -1984 503 0
v -1984 599 0
v -2047 599 0
v -2047 503 0
v -1376 1303 0
v -1376 1399 0
v -1440 1399 0
v -1440 1303 0
v -1376 1207 0
v -1376 1303 0
v -1440 1303 0
v -1440 1207 0
v -1984 599 0
v -1984 695 0
v -2047 695 0
v -2047 599 0
v -416 759 0
v -416 823 0
v -480 823 0
v -480 759 0
v -448 1143 0
v -448 1207 0
v -512 1207 0
v -512 1143 0
v -1024 1015 0
v -1024 1079 0
v -1088 1079 0
v -1088 1015 0
v -864 1143 0
v -864 1207 0
v -928 1207 0
v -928 1143 0
v -352 1015 0
v -352 1079 0
v -416 1079 0
v -416 1015 0
v -736 87 0
v -736 151 0
v -800 151 0
v -800 87 0
v -672 55 0
v -672 119 0
v -736 119 0
v -736 55 0
v -576 0 0
v -576 55 0
v -640 55 0
v -640 0 0
v -448 535 0
v -448 599 0
v -512 599 0
v -512 535 0
v -736 215 0
v -736 279 0
v -800 279 0
v -800 215 0
v -1632 215 0
v -1632 279 0
v -1696 279 0
v -1696 215 0
v -1216 1207 0
v -1216 1335 0
v -1248 1335 0
v -1248 1207 0
v -416 215 0
v -416 247 0
v -544 247 0
v -544 215 0
v -1216 1335 0
v -1216 1463 0
v -1248 1463 0
v -1248 1335 0
v -1056 247 0
v -1056 279 0
v -1152 279 0
v -1152 247 0
v -1152 247 0
v -1152 279 0
v -1248 279 0
v -1248 247 0
v -1408 151 0
v -1408 183 0
v -1504 183 0
v -1504 151 0
v -256 887 0
v -256 983 0
v -288 983 0
v -288 887 0
v -544 215 0
v -544 247 0
v -640 247 0
v -640 215 0
v -256 791 0
v -256 887 0
v -288 887 0
v -288 791 0
v -832 87 0
v -832 119 0
v -928 119 0
v -928 87 0
v -1792 791 0
v -1792 823 0
v -1888 823 0
v -1888 791 0
v -320 375 0
v -320 471 0
v -352 471 0
v -352 375 0
v -1216 1015 0
v -1216 1111 0
v -1248 1111 0
v -1248 1015 0
v -1504 151 0
v -1504 183 0
v -1600 183 0
v -1600 151 0
v -480 183 0
v -480 215 0
v -544 215 0
v -544 183 0
v -1856 375 0
v -1856 439 0
v -1888 439 0
v -1888 375 0
v -1152 823 0
v -1152 887 0
v -1184 887 0
v -1184 823 0
v -1056 183 0
v -1056 215 0
v -1120 215 0
v -1120 183 0
v -928 1143 0
v -928 1175 0
v -992 1175 0
v -992 1143 0
v -1184 951 0
v -1184 1015 0
v -1216 1015 0
v -1216 951 0
v -288 695 0
v -288 727 0
v -352 727 0
v -352 695 0
v -1888 375 0
v -1888 439 0
v -1920 439 0
v -1920 375 0
v -128 247 0
v -128 311 0
v -160 311 0
v -160 247 0
v -1280 247 0
v -1280 279 0
v -1344 279 0
v -1344 247 0
v -0 503 0
v -0 567 0
v -32 567 0
v -32 503 0
v -384 535 0
v -384 567 0
v -448 567 0
v -448 535 0
v -640 23 0
v -640 87 0
v -672 87 0
v -672 23 0
v -1120 215 0
v -1120 247 0
v -1184 247 0
v -1184 215 0
v -1728 887 0
v -1728 919 0
v -1792 919 0
v -1792 887 0
v -224 823 0
v -224 887 0
v -256 887 0
v -256 823 0
v -928 87 0
v -928 119 0
v -992 119 0
v -992 87 0
v -1216 951 0
v -1216 1015 0
v -1248 1015 0
v -1248 951 0
v -1888 791 0
v -1888 823 0
v -1952 823 0
v -1952 791 0
v -320 311 0
v -320 375 0
v -352 375 0
v -352 311 0
v -480 663 0
v -480 727 0
v -512 727 0
v -512 663 0
v -1056 215 0
v -1056 247 0
v -1120 247 0
v -1120 215 0
v -96 631 0
v -96 695 0
v -128 695 0
v -128 631 0
v -1440 823 0
v -1440 855 0
v -1472 855 0
v -1472 823 0
v -1120 823 0
v -1120 855 0
v -1152 855 0
v -1152 823 0
v -1984 471 0
v -1984 503 0
v -2016 503 0
v -2016 471 0
v -192 791 0
v -192 823 0
v -224 823 0
v -224 791 0
v -480 791 0
v -480 823 0
v -512 823 0
v -512 791 0
v -1984 695 0
v -1984 727 0
v -2016 727 0
v -2016 695 0
v -64 599 0
v -64 631 0
v -96 631 0
v -96 599 0
v -1888 823 0
v -1888 855 0
v -1920 855 0
v -1920 823 0
v -768 183 0
v -768 215 0
v -800 215 0
v -800 183 0
v -1312 215 0
v -1312 247 0
v -1344 247 0
v -1344 215 0
v -896 55 0
v -896 87 0
v -928 87 0
v -928 55 0
v -1056 151 0
v -1056 183 0
v -1088 183 0
v -1088 151 0
v -544 0 0
v -544 23 0
v -576 23 0
v -576 0 0
v -1920 407 0
v -1920 439 0
v -1952 439 0
v -1952 407 0
v -1696 247 0
v -1696 279 0
v -1728 279 0
v -1728 247 0
v -704 247 0
v -704 279 0
v -736 279 0
v -736 247 0
v -224 791 0
v -224 823 0
v -256 823 0
v -256 791 0
v -1120 183 0
v -1120 215 0
v -1152 215 0
v -1152 183 0
v -1376 1399 0
v -1376 1431 0
v -1408 1431 0
v -1408 1399 0
v -1792 887 0
v -1792 919 0
v -1824 919 0
v -1824 887 0
v -1856 343 0
v -1856 375 0
v -1888 375 0
v -1888 343 0
v -96 599 0
v -96 631 0
v -128 631 0
v -128 599 0
v -544 183 0
v -544 215 0
v -576 215 0
v -576 183 0
v -480 631 0
v -480 663 0
v -512 663 0
v -512 631 0
v -1024 1079 0
v -1024 1111 0
v -1056 1111 0
v -1056 1079 0
v -384 1079 0
v -384 1111 0
v -416 1111 0
v -416 1079 0
v -1120 919 0
v -1120 951 0
v -1152 951 0
v -1152 919 0
v -320 1015 0
v -320 1047 0
v -352 1047 0
v -352 1015 0
v -864 1207 0
v -864 1239 0
v -896 1239 0
v -896 1207 0
v -480 1207 0
v -480 1239 0
v -512 1239 0
v -512 1207 0
v -1376 1111 0
v -1376 1143 0
v -1408 1143 0
v -1408 1111 0
v -1216 1143 0
v -1216 1175 0
v -1248 1175 0
v -1248 1143 0
vt 0.00048828125 0.00118762255
vt 0.00048828125 0.647268414
vt 0.281738281 0.647268414
vt 0.281738281 0.00118762255
vt 0.282714844 0.00118762255
vt 0.282714844 0.647268414
vt 0.548339844 0.647268414
vt 0.548339844 0.00118762255
vt 0.549316406 0.00118762255
vt 0.549316406 0.381235182
vt 0.705566406 0.381235182
vt 0.705566406 0.00118762255
vt 0.706542969 0.00118762255
vt 0.706542969 0.381235182
vt 0.847167969 0.381235182
vt 0.847167969 0.00118762255
vt 0.848144531 0.00118762255
vt 0.848144531 0.419239879
vt 0.941894531 0.419239879
vt 0.941894531 0.00118762255
vt 0.549316406 0.383610427
vt 0.549316406 0.725653172
vt 0.627441406 0.725653172
vt 0.627441406 0.383610427
vt 0.628417969 0.383610427
vt 0.628417969 0.725653172
vt 0.706542969 0.725653172
vt 0.706542969 0.383610427
vt 0.707519531 0.383610427
vt 0.707519531 0.725653172
vt 0.785644531 0.725653172
vt 0.785644531 0.383610427
vt 0.848144531 0.421615183
vt 0.848144531 0.763657928
vt 0.926269531 0.763657928
vt 0.926269531 0.421615183
vt 0.00048828125 0.649643719
vt 0.00048828125 0.839667439
vt 0.125488281 0.839667439
vt 0.125488281 0.649643719
vt 0.927246094 0.421615183
vt 0.927246094 0.763657928
vt 0.989746094 0.763657928
vt 0.989746094 0.421615183
vt 0.126464844 0.649643719
vt 0.126464844 0.953681707
vt 0.188964844 0.953681707
vt 0.188964844 0.649643719
vt 0.189941406 0.649643719
vt 0.189941406 0.953681707
vt 0.252441406 0.953681707
vt 0.252441406 0.649643719
vt 0.253417969 0.649643719
vt 0.253417969 0.801662683
vt 0.347167969 0.801662683
vt 0.347167969 0.649643719
vt 0.348144531 0.649643719
vt 0.348144531 0.801662683
vt 0.426269531 0.801662683
vt 0.426269531 0.649643719
vt 0.427246094 0.649643719
vt 0.427246094 0.801662683
vt 0.505371094 0.801662683
vt 0.505371094 0.649643719
vt 0.786621094 0.383610427
vt 0.786621094 0.611638963
vt 0.833496094 0.611638963
vt 0.833496094 0.383610427
vt 0.549316406 0.728028536
vt 0.549316406 0.842042744
vt 0.627441406 0.842042744
vt 0.627441406 0.728028536
vt 0.628417969 0.728028536
vt 0.628417969 0.842042744
vt 0.690917969 0.842042744
vt 0.690917969 0.728028536
vt 0.691894531 0.728028536
vt 0.691894531 0.804037988
vt 0.770019531 0.804037988
vt 0.770019531 0.728028536
vt 0.786621094 0.614014268
vt 0.786621094 0.728028536
vt 0.833496094 0.728028536
vt 0.833496094 0.614014268
vt 0.848144531 0.766033232
vt 0.848144531 0.842042744
vt 0.910644531 0.842042744
vt 0.910644531 0.766033232
vt 0.506347656 0.649643719
vt 0.506347656 0.801662683
vt 0.537597656 0.801662683
vt 0.537597656 0.649643719
vt 0.786621094 0.730403781
vt 0.786621094 0.806413293
vt 0.833496094 0.806413293
vt 0.833496094 0.730403781
vt 0.911621094 0.766033232
vt 0.911621094 0.8800475
vt 0.942871094 0.8800475
vt 0.942871094 0.766033232
vt 0.943847656 0.766033232
vt 0.943847656 0.8800475
vt 0.975097656 0.8800475
vt 0.975097656 0.766033232
vt 0.253417969 0.804037988
vt 0.253417969 0.918052256
vt 0.284667969 0.918052256
vt 0.284667969 0.804037988
vt 0.285644531 0.804037988
vt 0.285644531 0.918052256
vt 0.316894531 0.918052256
vt 0.316894531 0.804037988
vt 0.317871094 0.804037988
vt 0.317871094 0.8800475
vt 0.349121094 0.8800475
vt 0.349121094 0.804037988
vt 0.350097656 0.804037988
vt 0.350097656 0.8800475
vt 0.381347656 0.8800475
vt 0.381347656 0.804037988
vt 0.382324219 0.804037988
vt 0.382324219 0.8800475
vt 0.413574219 0.8800475
vt 0.413574219 0.804037988
vt 0.414550781 0.804037988
vt 0.414550781 0.8800475
vt 0.445800781 0.8800475
vt 0.445800781 0.804037988
vt 0.446777344 0.804037988
vt 0.446777344 0.8800475
vt 0.478027344 0.8800475
vt 0.478027344 0.804037988
vt 0.479003906 0.804037988
vt 0.479003906 0.8800475
vt 0.510253906 0.8800475
vt 0.510253906 0.804037988
vt 0.511230469 0.804037988
vt 0.511230469 0.8800475
vt 0.542480469 0.8800475
vt 0.542480469 0.804037988
vt 0.691894531 0.806413293
vt 0.691894531 0.872921586
vt 0.723144531 0.872921586
vt 0.723144531 0.806413293
vt 0.724121094 0.806413293
vt 0.724121094 0.882422805
vt 0.755371094 0.882422805
vt 0.755371094 0.806413293
vt 0.786621094 0.808788598
vt 0.786621094 0.88479811
vt 0.817871094 0.88479811
vt 0.817871094 0.808788598
vt 0.00048828125 0.842042744
vt 0.00048828125 0.918052256
vt 0.0317382812 0.918052256
vt 0.0317382812 0.842042744
vt 0.976074219 0.766033232
vt 0.976074219 0.918052256
vt 0.991699219 0.918052256
vt 0.991699219 0.766033232
vt 0.0327148438 0.842042744
vt 0.0327148438 0.8800475
vt 0.0952148438 0.8800475
vt 0.0952148438 0.842042744
vt 0.756347656 0.806413293
vt 0.756347656 0.958432317
vt 0.771972656 0.958432317
vt 0.771972656 0.806413293
vt 0.549316406 0.844418049
vt 0.549316406 0.882422805
vt 0.596191406 0.882422805
vt 0.596191406 0.844418049
vt 0.597167969 0.844418049
vt 0.597167969 0.882422805
vt 0.644042969 0.882422805
vt 0.644042969 0.844418049
vt 0.848144531 0.844418049
vt 0.848144531 0.882422805
vt 0.895019531 0.882422805
vt 0.895019531 0.844418049
vt 0.818847656 0.808788598
vt 0.818847656 0.922802866
vt 0.834472656 0.922802866
vt 0.834472656 0.808788598
vt 0.0327148438 0.882422805
vt 0.0327148438 0.920427561
vt 0.0795898438 0.920427561
vt 0.0795898438 0.882422805
vt 0.0961914062 0.842042744
vt 0.0961914062 0.956057012
vt 0.111816406 0.956057012
vt 0.111816406 0.842042744
vt 0.317871094 0.882422805
vt 0.317871094 0.920427561
vt 0.364746094 0.920427561
vt 0.364746094 0.882422805
vt 0.365722656 0.882422805
vt 0.365722656 0.920427561
vt 0.412597656 0.920427561
vt 0.412597656 0.882422805
vt 0.645019531 0.844418049
vt 0.645019531 0.958432317
vt 0.660644531 0.958432317
vt 0.660644531 0.844418049
vt 0.661621094 0.844418049
vt 0.661621094 0.958432317
vt 0.677246094 0.958432317
vt 0.677246094 0.844418049
vt 0.413574219 0.882422805
vt 0.413574219 0.920427561
vt 0.460449219 0.920427561
vt 0.460449219 0.882422805
vt 0.691894531 0.875296891
vt 0.691894531 0.913301647
vt 0.723144531 0.913301647
vt 0.723144531 0.875296891
vt 0.461425781 0.882422805
vt 0.461425781 0.958432317
vt 0.477050781 0.958432317
vt 0.477050781 0.882422805
vt 0.478027344 0.882422805
vt 0.478027344 0.958432317
vt 0.493652344 0.958432317
vt 0.493652344 0.882422805
vt 0.494628906 0.882422805
vt 0.494628906 0.920427561
vt 0.525878906 0.920427561
vt 0.525878906 0.882422805
vt 0.911621094 0.882422805
vt 0.911621094 0.920427561
vt 0.942871094 0.920427561
vt 0.942871094 0.882422805
vt 0.526855469 0.882422805
vt 0.526855469 0.958432317
vt 0.542480469 0.958432317
vt 0.542480469 0.882422805
vt 0.943847656 0.882422805
vt 0.943847656 0.920427561
vt 0.975097656 0.920427561
vt 0.975097656 0.882422805
vt 0.549316406 0.88479811
vt 0.549316406 0.960807621
vt 0.564941406 0.960807621
vt 0.564941406 0.88479811
vt 0.565917969 0.88479811
vt 0.565917969 0.960807621
vt 0.581542969 0.960807621
vt 0.581542969 0.88479811
vt 0.582519531 0.88479811
vt 0.582519531 0.922802866
vt 0.613769531 0.922802866
vt 0.613769531 0.88479811
vt 0.614746094 0.88479811
vt 0.614746094 0.960807621
vt 0.630371094 0.960807621
vt 0.630371094 0.88479811
vt 0.724121094 0.88479811
vt 0.724121094 0.922802866
vt 0.755371094 0.922802866
vt 0.755371094 0.88479811
vt 0.848144531 0.88479811
vt 0.848144531 0.960807621
vt 0.863769531 0.960807621
vt 0.863769531 0.88479811
vt 0.864746094 0.88479811
vt 0.864746094 0.922802866
vt 0.895996094 0.922802866
vt 0.895996094 0.88479811
vt 0.786621094 0.887173414
vt 0.786621094 0.92517817
vt 0.817871094 0.92517817
vt 0.817871094 0.887173414
vt 0.691894531 0.915676951
vt 0.691894531 0.991686463
vt 0.707519531 0.991686463
vt 0.707519531 0.915676951
vt 0.00048828125 0.920427561
vt 0.00048828125 0.958432317
vt 0.0317382812 0.958432317
vt 0.0317382812 0.920427561
vt 0.253417969 0.920427561
vt 0.253417969 0.996437073
vt 0.269042969 0.996437073
vt 0.269042969 0.920427561
vt 0.270019531 0.920427561
vt 0.270019531 0.958432317
vt 0.301269531 0.958432317
vt 0.301269531 0.920427561
vt 0.976074219 0.920427561
vt 0.976074219 0.996437073
vt 0.991699219 0.996437073
vt 0.991699219 0.920427561
vt 0.0327148438 0.922802866
vt 0.0327148438 0.998812377
vt 0.0483398438 0.998812377
vt 0.0483398438 0.922802866
vt 0.0493164062 0.922802866
vt 0.0493164062 0.960807621
vt 0.0805664062 0.960807621
vt 0.0805664062 0.922802866
vt 0.317871094 0.922802866
vt 0.317871094 0.998812377
vt 0.333496094 0.998812377
vt 0.333496094 0.922802866
vt 0.334472656 0.922802866
vt 0.334472656 0.960807621
vt 0.350097656 0.960807621
vt 0.350097656 0.922802866
vt 0.351074219 0.922802866
vt 0.351074219 0.960807621
vt 0.366699219 0.960807621
vt 0.366699219 0.922802866
vt 0.367675781 0.922802866
vt 0.367675781 0.960807621
vt 0.383300781 0.960807621
vt 0.383300781 0.922802866
vt 0.384277344 0.922802866
vt 0.384277344 0.960807621
vt 0.399902344 0.960807621
vt 0.399902344 0.922802866
vt 0.400878906 0.922802866
vt 0.400878906 0.960807621
vt 0.416503906 0.960807621
vt 0.416503906 0.922802866
vt 0.417480469 0.922802866
vt 0.417480469 0.960807621
vt 0.433105469 0.960807621
vt 0.433105469 0.922802866
vt 0.434082031 0.922802866
vt 0.434082031 0.960807621
vt 0.449707031 0.960807621
vt 0.449707031 0.922802866
vt 0.494628906 0.922802866
vt 0.494628906 0.960807621
vt 0.510253906 0.960807621
vt 0.510253906 0.922802866
vt 0.911621094 0.922802866
vt 0.911621094 0.960807621
vt 0.927246094 0.960807621
vt 0.927246094 0.922802866
vt 0.928222656 0.922802866
vt 0.928222656 0.960807621
vt 0.943847656 0.960807621
vt 0.943847656 0.922802866
vt 0.944824219 0.922802866
vt 0.944824219 0.960807621
vt 0.960449219 0.960807621
vt 0.960449219 0.922802866
vt 0.582519531 0.92517817
vt 0.582519531 0.963182926
vt 0.598144531 0.963182926
vt 0.598144531 0.92517817
vt 0.724121094 0.92517817
vt 0.724121094 0.953681707
vt 0.739746094 0.953681707
vt 0.739746094 0.92517817
vt 0.818847656 0.92517817
vt 0.818847656 0.963182926
vt 0.834472656 0.963182926
vt 0.834472656 0.92517817
vt 0.864746094 0.92517817
vt 0.864746094 0.963182926
vt 0.880371094 0.963182926
vt 0.880371094 0.92517817
vt 0.881347656 0.92517817
vt 0.881347656 0.963182926
vt 0.896972656 0.963182926
vt 0.896972656 0.92517817
vt 0.786621094 0.927553415
vt 0.786621094 0.965558171
vt 0.802246094 0.965558171
vt 0.802246094 0.927553415
vt 0.126464844 0.956057012
vt 0.126464844 0.994061768
vt 0.142089844 0.994061768
vt 0.142089844 0.956057012
vt 0.143066406 0.956057012
vt 0.143066406 0.994061768
vt 0.158691406 0.994061768
vt 0.158691406 0.956057012
vt 0.159667969 0.956057012
vt 0.159667969 0.994061768
vt 0.175292969 0.994061768
vt 0.175292969 0.956057012
vt 0.176269531 0.956057012
vt 0.176269531 0.994061768
vt 0.191894531 0.994061768
vt 0.191894531 0.956057012
vt 0.192871094 0.956057012
vt 0.192871094 0.994061768
vt 0.208496094 0.994061768
vt 0.208496094 0.956057012
vt 0.209472656 0.956057012
vt 0.209472656 0.994061768
vt 0.225097656 0.994061768
vt 0.225097656 0.956057012
vt 0.226074219 0.956057012
vt 0.226074219 0.994061768
vt 0.241699219 0.994061768
vt 0.241699219 0.956057012
vt 0.724121094 0.956057012
vt 0.724121094 0.994061768
vt 0.739746094 0.994061768
vt 0.739746094 0.956057012
vt 0.0961914062 0.958432317
vt 0.0961914062 0.996437073
vt 0.111816406 0.996437073
vt 0.111816406 0.958432317
vt 0.00048828125 0.960807621
vt 0.00048828125 0.998812377
vt 0.0161132812 0.998812377
vt 0.0161132812 0.960807621
vt 0.270019531 0.960807621
vt 0.270019531 0.998812377
vt 0.285644531 0.998812377
vt 0.285644531 0.960807621
vt 0.286621094 0.960807621
vt 0.286621094 0.998812377
vt 0.302246094 0.998812377
vt 0.302246094 0.960807621
vt 0.461425781 0.960807621
vt 0.461425781 0.998812377
vt 0.477050781 0.998812377
vt 0.477050781 0.960807621
vt 0.478027344 0.960807621
vt 0.478027344 0.998812377
vt 0.493652344 0.998812377
vt 0.493652344 0.960807621
vt 0.526855469 0.960807621
vt 0.526855469 0.998812377
vt 0.542480469 0.998812377
vt 0.542480469 0.960807621
g danfo_2_rw-mesh_0
f 3/3/3 2/2/2 1/1/1
f 1/1/1 4/4/4 3/3/3
f 7/7/7 6/6/6 5/5/5
f 5/5/5 8/8/8 7/7/7
f 11/11/11 10/10/10 9/9/9
f 9/9/9 12/12/12 11/11/11
f 15/15/15 14/14/14 13/13/13
f 13/13/13 16/16/16 15/15/15
f 19/19/19 18/18/18 17/17/17
f 17/17/17 20/20/20 19/19/19
f 23/23/23 22/22/22 21/21/21
f 21/21/21 24/24/24 23/23/23
f 27/27/27 26/26/26 25/25/25
f 25/25/25 28/28/28 27/27/27
f 31/31/31 30/30/30 29/29/29
f 29/29/29 32/32/32 31/31/31
f 35/35/35 34/34/34 33/33/33
f 33/33/33 36/36/36 35/35/35
f 39/39/39 38/38/38 37/37/37
f 37/37/37 40/40/40 39/39/39
f 43/43/43 42/42/42 41/41/41
f 41/41/41 44/44/44 43/43/43
f 47/47/47 46/46/46 45/45/45
f 45/45/45 48/48/48 47/47/47
f 51/51/51 50/50/50 49/49/49
f 49/49/49 52/52/52 51/51/51
f 55/55/55 54/54/54 53/53/53
f 53/53/53 56/56/56 55/55/55
f 59/59/59 58/58/58 57/57/57
f 57/57/57 60/60/60 59/59/59
f 63/63/63 62/62/62 61/61/61
f 61/61/61 64/64/64 63/63/63
f 67/67/67 66/66/66 65/65/65
f 65/65/65 68/68/68 67/67/67
f 71/71/71 70/70/70 69/69/69
f 69/69/69 72/72/72 71/71/71
f 75/75/75 74/74/74 73/73/73
f 73/73/73 76/76/76 75/75/75
f 79/79/79 78/78/78 77/77/77
f 77/77/77 80/80/80 79/79/79
f 83/83/83 82/82/82 81/81/81
f 81/81/81 84/84/84 83/83/83
f 87/87/87 86/86/86 85/85/85
f 85/85/85 88/88/88 87/87/87
f 91/91/91 90/90/90 89/89/89
f 89/89/89 92/92/92 91/91/91
f 95/95/95 94/94/94 93/93/93
f 93/93/93 96/96/96 95/95/95
f 99/99/99 98/98/98 97/97/97
f 97/97/97 100/100/100 99/99/99
f 103/103/103 102/102/102 101/101/101
f 101/101/101 104/104/104 103/103/103
f 107/107/107 106/106/106 105/105/105
f 105/105/105 108/108/108 107/107/107
f 111/111/111 110/110/110 109/109/109
f 109/109/109 112/112/112 111/111/111
f 115/115/115 114/114/114 113/113/113
f 113/113/113 116/116/116 115/115/115
f 119/119/119 118/118/118 117/117/117
f 117/117/117 120/120/120 119/119/119
f 123/123/123 122/122/122 121/121/121
f 121/121/121 124/124/124 123/123/123
f 127/127/127 126/126/126 125/125/125
f 125/125/125 128/128/128 127/127/127
f 131/131/131 130/130/130 129/129/129
f 129/129/129 132/132/132 131/131/131
f 135/135/135 134/134/134 133/133/133
f 133/133/133 136/136/136 135/135/135
f 139/139/139 138/138/138 137/137/137
f 137/137/137 140/140/140 139/139/139
f 143/143/143 142/142/142 141/141/141
f 141/141/141 144/144/144 143/143/143
f 147/147/147 146/146/146 145/145/145
f 145/145/145 148/148/148 147/147/147
f 151/151/151 150/150/150 149/149/149
f 149/149/149 152/152/152 151/151/151
f 155/155/155 154/154/154 153/153/153
f 153/153/153 156/156/156 155/155/155
f 159/159/159 158/158/158 157/157/157
f 157/157/157 160/160/160 159/159/159
f 163/163/163 162/162/162 161/161/161
f 161/161/161 164/164/164 163/163/163
f 167/167/167 166/166/166 165/165/165
f 165/165/165 168/168/168 167/167/167
f 171/171/171 170/170/170 169/169/169
f 169/169/169 172/172/172 171/171/171
f 175/175/175 174/174/174 173/173/173
f 173/173/173 176/176/176 175/175/175
f 179/179/179 178/178/178 177/177/177
f 177/177/177 180/180/180 179/179/179
f 183/183/183 182/182/182 181/181/181
f 181/181/181 184/184/184 183/183/183
f 187/187/187 186/186/186 185/185/185
f 185/185/185 188/188/188 187/187/187
f 191/191/191 190/190/190 189/189/189
f 189/189/189 192/192/192 191/191/191
f 195/195/195 194/194/194 193/193/193
f 193/193/193 196/196/196 195/195/195
f 199/199/199 198/198/198 197/197/197
f 197/197/197 200/200/200 199/199/199
f 203/203/203 202/202/202 201/201/201
f 201/201/201 204/204/204 203/203/203
f 207/207/207 206/206/206 205/205/205
f 205/205/205 208/208/208 207/207/207
f 211/211/211 210/210/210 209/209/209
f 209/209/209 212/212/212 211/211/211
f 215/215/215 214/214/214 213/213/213
f 213/213/213 216/216/216 215/215/215
f 219/219/219 218/218/218 217/217/217
f 217/217/217 220/220/220 219/219/219
f 223/223/223 222/222/222 221/221/221
f 221/221/221 224/224/224 223/223/223
f 227/227/227 226/226/226 225/225/225
f 225/225/225 228/228/228 227/227/227
f 231/231/231 230/230/230 229/229/229
f 229/229/229 232/232/232 231/231/231
f 235/235/235 234/234/234 233/233/233
f 233/233/233 236/236/236 235/235/235
f 239/239/239 238/238/238 237/237/237
f 237/237/237 240/240/240 239/239/239
f 243/243/243 242/242/242 241/241/241
f 241/241/241 244/244/244 243/243/243
f 247/247/247 246/246/246 245/245/245
f 245/245/245 248/248/248 247/247/247
f 251/251/251 250/250/250 249/249/249
f 249/249/249 252/252/252 251/251/251
f 255/255/255 254/254/254 253/253/253
f 253/253/253 256/256/256 255/255/255
f 259/259/259 258/258/258 257/257/257
f 257/257/257 260/260/260 259/259/259
f 263/263/263 262/262/262 261/261/261
f 261/261/261 264/264/264 263/263/263
f 267/267/267 266/266/266 265/265/265
f 265/265/265 268/268/268 267/267/267
f 271/271/271 270/270/270 269/269/269
f 269/269/269 272/272/272 271/271/271
f 275/275/275 274/274/274 273/273/273
f 273/273/273 276/276/276 275/275/275
f 279/279/279 278/278/278 277/277/277
f 277/277/277 280/280/280 279/279/279
f 283/283/283 282/282/282 281/281/281
f 281/281/281 284/284/284 283/283/283
f 287/287/287 286/286/286 285/285/285
f 285/285/285 288/288/288 287/287/287
f 291/291/291 290/290/290 289/289/289
f 289/289/289 292/292/292 291/291/291
f 295/295/295 294/294/294 293/293/293
f 293/293/293 296/296/296 295/295/295
f 299/299/299 298/298/298 297/297/297
f 297/297/297 300/300/300 299/299/299
f 303/303/303 302/302/302 301/301/301
f 301/301/301 304/304/304 303/303/303
f 307/307/307 306/306/306 305/305/305
f 305/305/305 308/308/308 307/307/307
f 311/311/311 310/310/310 309/309/309
f 309/309/309 312/312/312 311/311/311
f 315/315/315 314/314/314 313/313/313
f 313/313/313 316/316/316 315/315/315
f 319/319/319 318/318/318 317/317/317
f 317/317/317 320/320/320 319/319/319
f 323/323/323 322/322/322 321/321/321
f 321/321/321 324/324/324 323/323/323
f 327/327/327 326/326/326 325/325/325
f 325/325/325 328/328/328 327/327/327
f 331/331/331 330/330/330 329/329/329
f 329/329/329 332/332/332 331/331/331
f 335/335/335 334/334/334 333/333/333
f 333/333/333 336/336/336 335/335/335
f 339/339/339 338/338/338 337/337/337
f 337/337/337 340/340/340 339/339/339
f 343/343/343 342/342/342 341/341/341
f 341/341/341 344/344/344 343/343/343
f 347/347/347 346/346/346 345/345/345
f 345/345/345 348/348/348 347/347/347
f 351/351/351 350/350/350 349/349/349
f 349/349/349 352/352/352 351/351/351
f 355/355/355 354/354/354 353/353/353
f 353/353/353 356/356/356 355/355/355
f 359/359/359 358/358/358 357/357/357
f 357/357/357 360/360/360 359/359/359
f 363/363/363 362/362/362 361/361/361
f 361/361/361 364/364/364 363/363/363
f 367/367/367 366/366/366 365/365/365
f 365/365/365 368/368/368 367/367/367
f 371/371/371 370/370/370 369/369/369
f 369/369/369 372/372/372 371/371/371
f 375/375/375 374/374/374 373/373/373
f 373/373/373 376/376/376 375/375/375
f 379/379/379 378/378/378 377/377/377
f 377/377/377 380/380/380 379/379/379
f 383/383/383 382/382/382 381/381/381
f 381/381/381 384/384/384 383/383/383
f 387/387/387 386/386/386 385/385/385
f 385/385/385 388/388/388 387/387/387
f 391/391/391 390/390/390 389/389/389
f 389/389/389 392/392/392 391/391/391
f 395/395/395 394/394/394 393/393/393
f 393/393/393 396/396/396 395/395/395
f 399/399/399 398/398/398 397/397/397
f 397/397/397 400/400/400 399/399/399
f 403/403/403 402/402/402 401/401/401
f 401/401/401 404/404/404 403/403/403
f 407/407/407 406/406/406 405/405/405
f 405/405/405 408/408/408 407/407/407
f 411/411/411 410/410/410 409/409/409
f 409/409/409 412/412/412 411/411/411
f 415/415/415 414/414/414 413/413/413
f 413/413/413 416/416/416 415/415/415
f 419/419/419 418/418/418 417/417/417
f 417/417/417 420/420/420 419/419/419
f 423/423/423 422/422/422 421/421/421
f 421/421/421 424/424/424 423/423/423
f 427/427/427 426/426/426 425/425/425
f 425/425/425 428/428/428 427/427/427
f 431/431/431 430/430/430 429/429/429
f 429/429/429 432/432/432 431/431/431
