g junzhu_3-mesh
v -416 559 0
v -416 1103 0
v -736 1103 0
v -736 559 0
v -416 47 0
v -416 559 0
v -736 559 0
v -736 47 0
v -256 463 0
v -256 879 0
v -416 879 0
v -416 463 0
v -96 335 0
v -96 719 0
v -256 719 0
v -256 335 0
v -256 79 0
v -256 463 0
v -416 463 0
v -416 79 0
v -768 367 0
v -768 591 0
v -896 591 0
v -896 367 0
v -768 591 0
v -768 815 0
v -896 815 0
v -896 591 0
v -736 79 0
v -736 175 0
v -896 175 0
v -896 79 0
v -896 79 0
v -896 175 0
v -1024 175 0
v -1024 79 0
v -736 783 0
v -736 1135 0
v -768 1135 0
v -768 783 0
v -448 1103 0
v -448 1167 0
v -608 1167 0
v -608 1103 0
v -736 463 0
v -736 783 0
v -768 783 0
v -768 463 0
v -64 239 0
v -64 335 0
v -160 335 0
v -160 239 0
v -608 1103 0
v -608 1167 0
v -736 1167 0
v -736 1103 0
v -0 623 0
v -0 687 0
v -96 687 0
v -96 623 0
v -160 719 0
v -160 783 0
v -256 783 0
v -256 719 0
v -768 911 0
v -768 1007 0
v -832 1007 0
v -832 911 0
v -768 815 0
v -768 911 0
v -832 911 0
v -832 815 0
v -96 47 0
v -96 111 0
v -192 111 0
v -192 47 0
v -736 175 0
v -736 303 0
v -768 303 0
v -768 175 0
v -192 47 0
v -192 111 0
v -256 111 0
v -256 47 0
v -736 303 0
v -736 431 0
v -768 431 0
v -768 303 0
v -544 1167 0
v -544 1199 0
v -640 1199 0
v -640 1167 0
v -448 15 0
v -448 47 0
v -544 47 0
v -544 15 0
v -832 47 0
v -832 79 0
v -928 79 0
v -928 47 0
v -928 47 0
v -928 79 0
v -1024 79 0
v -1024 47 0
v -160 271 0
v -160 335 0
v -192 335 0
v -192 271 0
v -800 303 0
v -800 367 0
v -832 367 0
v -832 303 0
v -768 1007 0
v -768 1071 0
v -800 1071 0
v -800 1007 0
v -480 0 0
v -480 15 0
v -544 15 0
v -544 0 0
v -864 15 0
v -864 47 0
v -928 47 0
v -928 15 0
v -736 47 0
v -736 79 0
v -800 79 0
v -800 47 0
v -160 111 0
v -160 143 0
v -224 143 0
v -224 111 0
v -768 239 0
v -768 303 0
v -800 303 0
v -800 239 0
v -768 303 0
v -768 367 0
v -800 367 0
v -800 303 0
v -640 1167 0
v -640 1199 0
v -704 1199 0
v -704 1167 0
v -544 15 0
v -544 47 0
v -608 47 0
v -608 15 0
v -320 47 0
v -320 79 0
v -384 79 0
v -384 47 0
v -256 47 0
v -256 79 0
v -320 79 0
v -320 47 0
v -224 303 0
v -224 335 0
v -256 335 0
v -256 303 0
v -832 335 0
v -832 367 0
v -864 367 0
v -864 335 0
v -96 207 0
v -96 239 0
v -128 239 0
v -128 207 0
v -1024 79 0
v -1024 111 0
v -1032 111 0
v -1032 79 0
v -768 175 0
v -768 207 0
v -800 207 0
v -800 175 0
v -64 335 0
v -64 367 0
v -96 367 0
v -96 335 0
v -384 879 0
v -384 911 0
v -416 911 0
v -416 879 0
v -224 111 0
v -224 143 0
v -256 143 0
v -256 111 0
v -224 783 0
v -224 815 0
v -256 815 0
v -256 783 0
v -64 591 0
v -64 623 0
v -96 623 0
v -96 591 0
v -64 687 0
v -64 719 0
v -96 719 0
v -96 687 0
vt 0.0009765625 0.00120770931
vt 0.0009765625 0.658212543
vt 0.313476562 0.658212543
vt 0.313476562 0.00120770931
vt 0.315429688 0.00120770931
vt 0.315429688 0.619565248
vt 0.627929688 0.619565248
vt 0.627929688 0.00120770931
vt 0.629882812 0.00120770931
vt 0.629882812 0.503623188
vt 0.786132812 0.503623188
vt 0.786132812 0.00120770931
vt 0.788085938 0.00120770931
vt 0.788085938 0.464975834
vt 0.944335938 0.464975834
vt 0.944335938 0.00120770931
vt 0.788085938 0.467391312
vt 0.788085938 0.931159437
vt 0.944335938 0.931159437
vt 0.944335938 0.467391312
vt 0.629882812 0.506038666
vt 0.629882812 0.776570082
vt 0.754882812 0.776570082
vt 0.754882812 0.506038666
vt 0.315429688 0.621980667
vt 0.315429688 0.892512083
vt 0.440429688 0.892512083
vt 0.440429688 0.621980667
vt 0.442382812 0.621980667
vt 0.442382812 0.737922668
vt 0.598632812 0.737922668
vt 0.598632812 0.621980667
vt 0.0009765625 0.660628021
vt 0.0009765625 0.776570082
vt 0.125976562 0.776570082
vt 0.125976562 0.660628021
vt 0.946289062 0.00120770931
vt 0.946289062 0.42632848
vt 0.977539062 0.42632848
vt 0.977539062 0.00120770931
vt 0.127929688 0.660628021
vt 0.127929688 0.737922668
vt 0.284179688 0.737922668
vt 0.284179688 0.660628021
vt 0.946289062 0.428743958
vt 0.946289062 0.815217376
vt 0.977539062 0.815217376
vt 0.977539062 0.428743958
vt 0.127929688 0.740338206
vt 0.127929688 0.856280208
vt 0.221679688 0.856280208
vt 0.221679688 0.740338206
vt 0.442382812 0.740338206
vt 0.442382812 0.817632854
vt 0.567382812 0.817632854
vt 0.567382812 0.740338206
vt 0.0009765625 0.7789855
vt 0.0009765625 0.856280208
vt 0.0947265625 0.856280208
vt 0.0947265625 0.7789855
vt 0.629882812 0.7789855
vt 0.629882812 0.856280208
vt 0.723632812 0.856280208
vt 0.723632812 0.7789855
vt 0.223632812 0.740338206
vt 0.223632812 0.856280208
vt 0.286132812 0.856280208
vt 0.286132812 0.740338206
vt 0.442382812 0.820048332
vt 0.442382812 0.935990334
vt 0.504882812 0.935990334
vt 0.504882812 0.820048332
vt 0.506835938 0.820048332
vt 0.506835938 0.89734298
vt 0.600585938 0.89734298
vt 0.600585938 0.820048332
vt 0.725585938 0.7789855
vt 0.725585938 0.933574855
vt 0.756835938 0.933574855
vt 0.756835938 0.7789855
vt 0.0009765625 0.858695626
vt 0.0009765625 0.935990334
vt 0.0634765625 0.935990334
vt 0.0634765625 0.858695626
vt 0.946289062 0.817632854
vt 0.946289062 0.972222209
vt 0.977539062 0.972222209
vt 0.977539062 0.817632854
vt 0.0654296875 0.858695626
vt 0.0654296875 0.89734298
vt 0.159179688 0.89734298
vt 0.159179688 0.858695626
vt 0.161132812 0.858695626
vt 0.161132812 0.89734298
vt 0.254882812 0.89734298
vt 0.254882812 0.858695626
vt 0.629882812 0.858695626
vt 0.629882812 0.89734298
vt 0.723632812 0.89734298
vt 0.723632812 0.858695626
vt 0.315429688 0.894927561
vt 0.315429688 0.933574855
vt 0.409179688 0.933574855
vt 0.409179688 0.894927561
vt 0.256835938 0.858695626
vt 0.256835938 0.935990334
vt 0.288085938 0.935990334
vt 0.288085938 0.858695626
vt 0.0654296875 0.899758458
vt 0.0654296875 0.977053165
vt 0.0966796875 0.977053165
vt 0.0966796875 0.899758458
vt 0.0986328125 0.899758458
vt 0.0986328125 0.977053165
vt 0.129882812 0.977053165
vt 0.129882812 0.899758458
vt 0.131835938 0.899758458
vt 0.131835938 0.919082105
vt 0.194335938 0.919082105
vt 0.194335938 0.899758458
vt 0.506835938 0.899758458
vt 0.506835938 0.938405812
vt 0.569335938 0.938405812
vt 0.569335938 0.899758458
vt 0.571289062 0.899758458
vt 0.571289062 0.938405812
vt 0.633789062 0.938405812
vt 0.633789062 0.899758458
vt 0.635742188 0.899758458
vt 0.635742188 0.938405812
vt 0.698242188 0.938405812
vt 0.698242188 0.899758458
vt 0.196289062 0.899758458
vt 0.196289062 0.977053165
vt 0.227539062 0.977053165
vt 0.227539062 0.899758458
vt 0.131835938 0.921497583
vt 0.131835938 0.998792291
vt 0.163085938 0.998792291
vt 0.163085938 0.921497583
vt 0.788085938 0.933574855
vt 0.788085938 0.972222209
vt 0.850585938 0.972222209
vt 0.850585938 0.933574855
vt 0.852539062 0.933574855
vt 0.852539062 0.972222209
vt 0.915039062 0.972222209
vt 0.915039062 0.933574855
vt 0.315429688 0.935990334
vt 0.315429688 0.974637687
vt 0.377929688 0.974637687
vt 0.377929688 0.935990334
vt 0.0009765625 0.938405812
vt 0.0009765625 0.977053165
vt 0.0634765625 0.977053165
vt 0.0634765625 0.938405812
vt 0.379882812 0.935990334
vt 0.379882812 0.974637687
vt 0.411132812 0.974637687
vt 0.411132812 0.935990334
vt 0.725585938 0.935990334
vt 0.725585938 0.974637687
vt 0.756835938 0.974637687
vt 0.756835938 0.935990334
vt 0.256835938 0.938405812
vt 0.256835938 0.977053165
vt 0.288085938 0.977053165
vt 0.288085938 0.938405812
vt 0.979492188 0.00120770931
vt 0.979492188 0.039855063
vt 0.98828125 0.039855063
vt 0.98828125 0.00120770931
vt 0.442382812 0.938405812
vt 0.442382812 0.977053165
vt 0.473632812 0.977053165
vt 0.473632812 0.938405812
vt 0.506835938 0.94082123
vt 0.506835938 0.979468584
vt 0.538085938 0.979468584
vt 0.538085938 0.94082123
vt 0.540039062 0.94082123
vt 0.540039062 0.979468584
vt 0.571289062 0.979468584
vt 0.571289062 0.94082123
vt 0.573242188 0.94082123
vt 0.573242188 0.979468584
vt 0.604492188 0.979468584
vt 0.604492188 0.94082123
vt 0.606445312 0.94082123
vt 0.606445312 0.979468584
vt 0.637695312 0.979468584
vt 0.637695312 0.94082123
vt 0.639648438 0.94082123
vt 0.639648438 0.979468584
vt 0.670898438 0.979468584
vt 0.670898438 0.94082123
vt 0.672851562 0.94082123
vt 0.672851562 0.979468584
vt 0.704101562 0.979468584
vt 0.704101562 0.94082123
g junzhu_3-mesh_0
f 3/3/3 2/2/2 1/1/1
f 1/1/1 4/4/4 3/3/3
f 7/7/7 6/6/6 5/5/5
f 5/5/5 8/8/8 7/7/7
f 11/11/11 10/10/10 9/9/9
f 9/9/9 12/12/12 11/11/11
f 15/15/15 14/14/14 13/13/13
f 13/13/13 16/16/16 15/15/15
f 19/19/19 18/18/18 17/17/17
f 17/17/17 20/20/20 19/19/19
f 23/23/23 22/22/22 21/21/21
f 21/21/21 24/24/24 23/23/23
f 27/27/27 26/26/26 25/25/25
f 25/25/25 28/28/28 27/27/27
f 31/31/31 30/30/30 29/29/29
f 29/29/29 32/32/32 31/31/31
f 35/35/35 34/34/34 33/33/33
f 33/33/33 36/36/36 35/35/35
f 39/39/39 38/38/38 37/37/37
f 37/37/37 40/40/40 39/39/39
f 43/43/43 42/42/42 41/41/41
f 41/41/41 44/44/44 43/43/43
f 47/47/47 46/46/46 45/45/45
f 45/45/45 48/48/48 47/47/47
f 51/51/51 50/50/50 49/49/49
f 49/49/49 52/52/52 51/51/51
f 55/55/55 54/54/54 53/53/53
f 53/53/53 56/56/56 55/55/55
f 59/59/59 58/58/58 57/57/57
f 57/57/57 60/60/60 59/59/59
f 63/63/63 62/62/62 61/61/61
f 61/61/61 64/64/64 63/63/63
f 67/67/67 66/66/66 65/65/65
f 65/65/65 68/68/68 67/67/67
f 71/71/71 70/70/70 69/69/69
f 69/69/69 72/72/72 71/71/71
f 75/75/75 74/74/74 73/73/73
f 73/73/73 76/76/76 75/75/75
f 79/79/79 78/78/78 77/77/77
f 77/77/77 80/80/80 79/79/79
f 83/83/83 82/82/82 81/81/81
f 81/81/81 84/84/84 83/83/83
f 87/87/87 86/86/86 85/85/85
f 85/85/85 88/88/88 87/87/87
f 91/91/91 90/90/90 89/89/89
f 89/89/89 92/92/92 91/91/91
f 95/95/95 94/94/94 93/93/93
f 93/93/93 96/96/96 95/95/95
f 99/99/99 98/98/98 97/97/97
f 97/97/97 100/100/100 99/99/99
f 103/103/103 102/102/102 101/101/101
f 101/101/101 104/104/104 103/103/103
f 107/107/107 106/106/106 105/105/105
f 105/105/105 108/108/108 107/107/107
f 111/111/111 110/110/110 109/109/109
f 109/109/109 112/112/112 111/111/111
f 115/115/115 114/114/114 113/113/113
f 113/113/113 116/116/116 115/115/115
f 119/119/119 118/118/118 117/117/117
f 117/117/117 120/120/120 119/119/119
f 123/123/123 122/122/122 121/121/121
f 121/121/121 124/124/124 123/123/123
f 127/127/127 126/126/126 125/125/125
f 125/125/125 128/128/128 127/127/127
f 131/131/131 130/130/130 129/129/129
f 129/129/129 132/132/132 131/131/131
f 135/135/135 134/134/134 133/133/133
f 133/133/133 136/136/136 135/135/135
f 139/139/139 138/138/138 137/137/137
f 137/137/137 140/140/140 139/139/139
f 143/143/143 142/142/142 141/141/141
f 141/141/141 144/144/144 143/143/143
f 147/147/147 146/146/146 145/145/145
f 145/145/145 148/148/148 147/147/147
f 151/151/151 150/150/150 149/149/149
f 149/149/149 152/152/152 151/151/151
f 155/155/155 154/154/154 153/153/153
f 153/153/153 156/156/156 155/155/155
f 159/159/159 158/158/158 157/157/157
f 157/157/157 160/160/160 159/159/159
f 163/163/163 162/162/162 161/161/161
f 161/161/161 164/164/164 163/163/163
f 167/167/167 166/166/166 165/165/165
f 165/165/165 168/168/168 167/167/167
f 171/171/171 170/170/170 169/169/169
f 169/169/169 172/172/172 171/171/171
f 175/175/175 174/174/174 173/173/173
f 173/173/173 176/176/176 175/175/175
f 179/179/179 178/178/178 177/177/177
f 177/177/177 180/180/180 179/179/179
f 183/183/183 182/182/182 181/181/181
f 181/181/181 184/184/184 183/183/183
f 187/187/187 186/186/186 185/185/185
f 185/185/185 188/188/188 187/187/187
f 191/191/191 190/190/190 189/189/189
f 189/189/189 192/192/192 191/191/191
f 195/195/195 194/194/194 193/193/193
f 193/193/193 196/196/196 195/195/195
f 199/199/199 198/198/198 197/197/197
f 197/197/197 200/200/200 199/199/199
