g xiangdi_2_DOA_bj-mesh
v -2976 885 0
v -2976 1237 0
v -3187 1237 0
v -3187 885 0
v -2976 565 0
v -2976 885 0
v -3187 885 0
v -3187 565 0
v -2848 1045 0
v -2848 1237 0
v -2976 1237 0
v -2976 1045 0
v -2848 885 0
v -2848 1045 0
v -2976 1045 0
v -2976 885 0
v -3008 1237 0
v -3008 1429 0
v -3104 1429 0
v -3104 1237 0
v -2912 565 0
v -2912 693 0
v -2976 693 0
v -2976 565 0
v -2912 693 0
v -2912 821 0
v -2976 821 0
v -2976 693 0
v -2880 1237 0
v -2880 1301 0
v -2976 1301 0
v -2976 1237 0
v -2784 1077 0
v -2784 1173 0
v -2848 1173 0
v -2848 1077 0
v -2784 1013 0
v -2784 1077 0
v -2848 1077 0
v -2848 1013 0
v -2880 757 0
v -2880 885 0
v -2912 885 0
v -2912 757 0
v -3040 533 0
v -3040 565 0
v -3136 565 0
v -3136 533 0
v -2944 533 0
v -2944 565 0
v -3040 565 0
v -3040 533 0
v -2880 661 0
v -2880 757 0
v -2912 757 0
v -2912 661 0
v -2848 821 0
v -2848 885 0
v -2880 885 0
v -2880 821 0
v -3168 501 0
v -3168 565 0
v -3187 565 0
v -3187 501 0
v -2816 949 0
v -2816 1013 0
v -2848 1013 0
v -2848 949 0
v -3104 1269 0
v -3104 1333 0
v -3136 1333 0
v -3136 1269 0
v -2976 1269 0
v -2976 1301 0
v -3008 1301 0
v -3008 1269 0
v -3136 1237 0
v -3136 1269 0
v -3168 1269 0
v -3168 1237 0
v -2944 821 0
v -2944 853 0
v -2976 853 0
v -2976 821 0
v -3168 469 0
v -3168 501 0
v -3187 501 0
v -3187 469 0
v -3104 1237 0
v -3104 1269 0
v -3136 1269 0
v -3136 1237 0
v -2848 789 0
v -2848 821 0
v -2880 821 0
v -2880 789 0
v -2816 917 0
v -2816 949 0
v -2848 949 0
v -2848 917 0
vt 0.0009765625 0.00282484293
vt 0.0009765625 0.997175157
vt 0.208007812 0.997175157
vt 0.208007812 0.00282484293
vt 0.209960938 0.00282484293
vt 0.209960938 0.906779647
vt 0.416992188 0.906779647
vt 0.416992188 0.00282484293
vt 0.418945312 0.00282484293
vt 0.418945312 0.545197725
vt 0.543945312 0.545197725
vt 0.543945312 0.00282484293
vt 0.545898438 0.00282484293
vt 0.545898438 0.454802275
vt 0.670898438 0.454802275
vt 0.670898438 0.00282484293
vt 0.672851562 0.00282484293
vt 0.672851562 0.545197725
vt 0.766601562 0.545197725
vt 0.766601562 0.00282484293
vt 0.768554688 0.00282484293
vt 0.768554688 0.364406765
vt 0.831054688 0.364406765
vt 0.831054688 0.00282484293
vt 0.833007812 0.00282484293
vt 0.833007812 0.364406765
vt 0.895507812 0.364406765
vt 0.895507812 0.00282484293
vt 0.897460938 0.00282484293
vt 0.897460938 0.183615804
vt 0.991210938 0.183615804
vt 0.991210938 0.00282484293
vt 0.897460938 0.189265549
vt 0.897460938 0.460451961
vt 0.959960938 0.460451961
vt 0.959960938 0.189265549
vt 0.768554688 0.37005651
vt 0.768554688 0.550847471
vt 0.831054688 0.550847471
vt 0.831054688 0.37005651
vt 0.961914062 0.189265549
vt 0.961914062 0.550847471
vt 0.993164062 0.550847471
vt 0.993164062 0.189265549
vt 0.545898438 0.460451961
vt 0.545898438 0.550847471
vt 0.639648438 0.550847471
vt 0.639648438 0.460451961
vt 0.418945312 0.550847471
vt 0.418945312 0.641242981
vt 0.512695312 0.641242981
vt 0.512695312 0.550847471
vt 0.833007812 0.37005651
vt 0.833007812 0.641242981
vt 0.864257812 0.641242981
vt 0.864257812 0.37005651
vt 0.897460938 0.466101706
vt 0.897460938 0.646892667
vt 0.928710938 0.646892667
vt 0.928710938 0.466101706
vt 0.866210938 0.37005651
vt 0.866210938 0.550847471
vt 0.885742188 0.550847471
vt 0.885742188 0.37005651
vt 0.672851562 0.550847471
vt 0.672851562 0.731638432
vt 0.704101562 0.731638432
vt 0.704101562 0.550847471
vt 0.706054688 0.550847471
vt 0.706054688 0.731638432
vt 0.737304688 0.731638432
vt 0.737304688 0.550847471
vt 0.545898438 0.556497216
vt 0.545898438 0.646892667
vt 0.577148438 0.646892667
vt 0.577148438 0.556497216
vt 0.579101562 0.556497216
vt 0.579101562 0.646892667
vt 0.610351562 0.646892667
vt 0.610351562 0.556497216
vt 0.612304688 0.556497216
vt 0.612304688 0.646892667
vt 0.643554688 0.646892667
vt 0.643554688 0.556497216
vt 0.645507812 0.460451961
vt 0.645507812 0.550847471
vt 0.665039062 0.550847471
vt 0.665039062 0.460451961
vt 0.768554688 0.556497216
vt 0.768554688 0.646892667
vt 0.799804688 0.646892667
vt 0.799804688 0.556497216
vt 0.961914062 0.556497216
vt 0.961914062 0.646892667
vt 0.993164062 0.646892667
vt 0.993164062 0.556497216
vt 0.418945312 0.646892667
vt 0.418945312 0.737288117
vt 0.450195312 0.737288117
vt 0.450195312 0.646892667
g xiangdi_2_DOA_bj-mesh_0
f 3/3/3 2/2/2 1/1/1
f 1/1/1 4/4/4 3/3/3
f 7/7/7 6/6/6 5/5/5
f 5/5/5 8/8/8 7/7/7
f 11/11/11 10/10/10 9/9/9
f 9/9/9 12/12/12 11/11/11
f 15/15/15 14/14/14 13/13/13
f 13/13/13 16/16/16 15/15/15
f 19/19/19 18/18/18 17/17/17
f 17/17/17 20/20/20 19/19/19
f 23/23/23 22/22/22 21/21/21
f 21/21/21 24/24/24 23/23/23
f 27/27/27 26/26/26 25/25/25
f 25/25/25 28/28/28 27/27/27
f 31/31/31 30/30/30 29/29/29
f 29/29/29 32/32/32 31/31/31
f 35/35/35 34/34/34 33/33/33
f 33/33/33 36/36/36 35/35/35
f 39/39/39 38/38/38 37/37/37
f 37/37/37 40/40/40 39/39/39
f 43/43/43 42/42/42 41/41/41
f 41/41/41 44/44/44 43/43/43
f 47/47/47 46/46/46 45/45/45
f 45/45/45 48/48/48 47/47/47
f 51/51/51 50/50/50 49/49/49
f 49/49/49 52/52/52 51/51/51
f 55/55/55 54/54/54 53/53/53
f 53/53/53 56/56/56 55/55/55
f 59/59/59 58/58/58 57/57/57
f 57/57/57 60/60/60 59/59/59
f 63/63/63 62/62/62 61/61/61
f 61/61/61 64/64/64 63/63/63
f 67/67/67 66/66/66 65/65/65
f 65/65/65 68/68/68 67/67/67
f 71/71/71 70/70/70 69/69/69
f 69/69/69 72/72/72 71/71/71
f 75/75/75 74/74/74 73/73/73
f 73/73/73 76/76/76 75/75/75
f 79/79/79 78/78/78 77/77/77
f 77/77/77 80/80/80 79/79/79
f 83/83/83 82/82/82 81/81/81
f 81/81/81 84/84/84 83/83/83
f 87/87/87 86/86/86 85/85/85
f 85/85/85 88/88/88 87/87/87
f 91/91/91 90/90/90 89/89/89
f 89/89/89 92/92/92 91/91/91
f 95/95/95 94/94/94 93/93/93
f 93/93/93 96/96/96 95/95/95
f 99/99/99 98/98/98 97/97/97
f 97/97/97 100/100/100 99/99/99
