g yikaluosi_4-mesh
v -192 530 0
v -192 1554 0
v -928 1554 0
v -928 530 0
v -928 530 0
v -928 1554 0
v -1632 1554 0
v -1632 530 0
v -1248 1554 0
v -1248 1810 0
v -1568 1810 0
v -1568 1554 0
v -928 1554 0
v -928 1810 0
v -1248 1810 0
v -1248 1554 0
v -1632 1010 0
v -1632 1426 0
v -1824 1426 0
v -1824 1010 0
v -480 0 0
v -480 114 0
v -960 114 0
v -960 0 0
v -480 402 0
v -480 530 0
v -960 530 0
v -960 402 0
v -960 0 0
v -960 114 0
v -1408 114 0
v -1408 0 0
v -960 402 0
v -960 530 0
v -1408 530 0
v -1408 402 0
v -0 1074 0
v -0 1266 0
v -192 1266 0
v -192 1074 0
v -160 1586 0
v -160 1682 0
v -480 1682 0
v -480 1586 0
v -1824 1170 0
v -1824 1298 0
v -2047 1298 0
v -2047 1170 0
v -480 1586 0
v -480 1682 0
v -768 1682 0
v -768 1586 0
v -1632 594 0
v -1632 786 0
v -1760 786 0
v -1760 594 0
v -1632 786 0
v -1632 978 0
v -1760 978 0
v -1760 786 0
v -32 658 0
v -32 818 0
v -128 818 0
v -128 658 0
v -640 1682 0
v -640 1778 0
v -800 1778 0
v -800 1682 0
v -128 786 0
v -128 1010 0
v -192 1010 0
v -192 786 0
v -128 562 0
v -128 786 0
v -192 786 0
v -192 562 0
v -832 1714 0
v -832 1906 0
v -896 1906 0
v -896 1714 0
v -896 242 0
v -896 402 0
v -960 402 0
v -960 242 0
v -832 1554 0
v -832 1714 0
v -896 1714 0
v -896 1554 0
v -1952 1426 0
v -1952 1586 0
v -2016 1586 0
v -2016 1426 0
v -1952 1298 0
v -1952 1426 0
v -2016 1426 0
v -2016 1298 0
v -896 114 0
v -896 242 0
v -960 242 0
v -960 114 0
v -352 1554 0
v -352 1586 0
v -544 1586 0
v -544 1554 0
v -1312 114 0
v -1312 210 0
v -1376 210 0
v -1376 114 0
v -160 1554 0
v -160 1586 0
v -352 1586 0
v -352 1554 0
v -896 1906 0
v -896 2002 0
v -960 2002 0
v -960 1906 0
v -896 1810 0
v -896 1906 0
v -960 1906 0
v -960 1810 0
v -192 498 0
v -192 530 0
v -352 530 0
v -352 498 0
v -160 1394 0
v -160 1554 0
v -192 1554 0
v -192 1394 0
v -64 978 0
v -64 1042 0
v -128 1042 0
v -128 978 0
v -576 1682 0
v -576 1746 0
v -640 1746 0
v -640 1682 0
v -1632 1426 0
v -1632 1458 0
v -1760 1458 0
v -1760 1426 0
v -416 18 0
v -416 82 0
v -480 82 0
v -480 18 0
v -1408 0 0
v -1408 50 0
v -1472 50 0
v -1472 0 0
v -416 434 0
v -416 498 0
v -480 498 0
v -480 434 0
v -1312 338 0
v -1312 402 0
v -1376 402 0
v -1376 338 0
v -1888 1394 0
v -1888 1522 0
v -1920 1522 0
v -1920 1394 0
v -704 1554 0
v -704 1586 0
v -832 1586 0
v -832 1554 0
v -352 0 0
v -352 18 0
v -480 18 0
v -480 0 0
v -1568 1650 0
v -1568 1778 0
v -1600 1778 0
v -1600 1650 0
v -576 1554 0
v -576 1586 0
v -704 1586 0
v -704 1554 0
v -160 1266 0
v -160 1394 0
v -192 1394 0
v -192 1266 0
v -224 0 0
v -224 18 0
v -352 18 0
v -352 0 0
v -352 498 0
v -352 530 0
v -480 530 0
v -480 498 0
v -1632 978 0
v -1632 1010 0
v -1728 1010 0
v -1728 978 0
v -1408 498 0
v -1408 530 0
v -1504 530 0
v -1504 498 0
v -1888 1298 0
v -1888 1394 0
v -1920 1394 0
v -1920 1298 0
v -1760 594 0
v -1760 690 0
v -1792 690 0
v -1792 594 0
v -1920 1138 0
v -1920 1170 0
v -2016 1170 0
v -2016 1138 0
v -1760 1426 0
v -1760 1458 0
v -1856 1458 0
v -1856 1426 0
v -1760 690 0
v -1760 786 0
v -1792 786 0
v -1792 690 0
v -1824 1138 0
v -1824 1170 0
v -1920 1170 0
v -1920 1138 0
v -1568 1554 0
v -1568 1650 0
v -1600 1650 0
v -1600 1554 0
v -1824 1106 0
v -1824 1138 0
v -1920 1138 0
v -1920 1106 0
v -1856 1458 0
v -1856 1522 0
v -1888 1522 0
v -1888 1458 0
v -128 1458 0
v -128 1522 0
v -160 1522 0
v -160 1458 0
v -1920 1490 0
v -1920 1554 0
v -1952 1554 0
v -1952 1490 0
v -1984 1586 0
v -1984 1618 0
v -2047 1618 0
v -2047 1586 0
v -1184 114 0
v -1184 146 0
v -1248 146 0
v -1248 114 0
v -544 114 0
v -544 146 0
v -608 146 0
v -608 114 0
v -1184 370 0
v -1184 402 0
v -1248 402 0
v -1248 370 0
v -992 1810 0
v -992 1842 0
v -1056 1842 0
v -1056 1810 0
v -768 1586 0
v -768 1650 0
v -800 1650 0
v -800 1586 0
v -512 1682 0
v -512 1714 0
v -576 1714 0
v -576 1682 0
v -896 1746 0
v -896 1810 0
v -928 1810 0
v -928 1746 0
v -1856 1042 0
v -1856 1106 0
v -1888 1106 0
v -1888 1042 0
v -864 114 0
v -864 178 0
v -896 178 0
v -896 114 0
v -960 338 0
v -960 402 0
v -992 402 0
v -992 338 0
v -960 114 0
v -960 178 0
v -992 178 0
v -992 114 0
v -1472 0 0
v -1472 18 0
v -1536 18 0
v -1536 0 0
v -224 18 0
v -224 50 0
v -288 50 0
v -288 18 0
v -864 338 0
v -864 402 0
v -896 402 0
v -896 338 0
v -64 626 0
v -64 658 0
v -128 658 0
v -128 626 0
v -160 1010 0
v -160 1074 0
v -192 1074 0
v -192 1010 0
v -1632 530 0
v -1632 594 0
v -1664 594 0
v -1664 530 0
v -1408 466 0
v -1408 498 0
v -1472 498 0
v -1472 466 0
v -224 466 0
v -224 498 0
v -288 498 0
v -288 466 0
v -960 1810 0
v -960 1874 0
v -992 1874 0
v -992 1810 0
v -128 1298 0
v -128 1362 0
v -160 1362 0
v -160 1298 0
v -960 1874 0
v -960 1938 0
v -992 1938 0
v -992 1874 0
v -1824 1042 0
v -1824 1106 0
v -1856 1106 0
v -1856 1042 0
v -800 1746 0
v -800 1810 0
v -832 1810 0
v -832 1746 0
v -256 1778 0
v -256 1810 0
v -320 1810 0
v -320 1778 0
v -2016 1330 0
v -2016 1394 0
v -2047 1394 0
v -2047 1330 0
v -896 1554 0
v -896 1618 0
v -928 1618 0
v -928 1554 0
v -96 882 0
v -96 946 0
v -128 946 0
v -128 882 0
v -1920 1106 0
v -1920 1138 0
v -1984 1138 0
v -1984 1106 0
v -896 1618 0
v -896 1682 0
v -928 1682 0
v -928 1618 0
v -544 370 0
v -544 402 0
v -608 402 0
v -608 370 0
v -1504 498 0
v -1504 530 0
v -1568 530 0
v -1568 498 0
v -1792 690 0
v -1792 754 0
v -1824 754 0
v -1824 690 0
v -1728 978 0
v -1728 1010 0
v -1792 1010 0
v -1792 978 0
v -96 1330 0
v -96 1362 0
v -128 1362 0
v -128 1330 0
v -2016 1554 0
v -2016 1586 0
v -2047 1586 0
v -2047 1554 0
v -1824 1458 0
v -1824 1490 0
v -1856 1490 0
v -1856 1458 0
v -384 466 0
v -384 498 0
v -416 498 0
v -416 466 0
v -1664 562 0
v -1664 594 0
v -1696 594 0
v -1696 562 0
v -1248 274 0
v -1248 306 0
v -1280 306 0
v -1280 274 0
v -384 18 0
v -384 50 0
v -416 50 0
v -416 18 0
v -1248 210 0
v -1248 242 0
v -1280 242 0
v -1280 210 0
v -1888 1074 0
v -1888 1106 0
v -1920 1106 0
v -1920 1074 0
v -1920 1298 0
v -1920 1330 0
v -1952 1330 0
v -1952 1298 0
v -64 914 0
v -64 946 0
v -96 946 0
v -96 914 0
v -96 594 0
v -96 626 0
v -128 626 0
v -128 594 0
v -0 722 0
v -0 754 0
v -32 754 0
v -32 722 0
v -800 1586 0
v -800 1618 0
v -832 1618 0
v -832 1586 0
v -1248 114 0
v -1248 146 0
v -1280 146 0
v -1280 114 0
v -96 850 0
v -96 882 0
v -128 882 0
v -128 850 0
v -1824 1010 0
v -1824 1042 0
v -1856 1042 0
v -1856 1010 0
v -1248 370 0
v -1248 402 0
v -1280 402 0
v -1280 370 0
v -608 114 0
v -608 146 0
v -640 146 0
v -640 114 0
v -1792 658 0
v -1792 690 0
v -1824 690 0
v -1824 658 0
v -128 1266 0
v -128 1298 0
v -160 1298 0
v -160 1266 0
v -608 370 0
v -608 402 0
v -640 402 0
v -640 370 0
v -864 1906 0
v -864 1938 0
v -896 1938 0
v -896 1906 0
v -768 1778 0
v -768 1810 0
v -800 1810 0
v -800 1778 0
v -2016 1298 0
v -2016 1330 0
v -2047 1330 0
v -2047 1298 0
v -800 1714 0
v -800 1746 0
v -832 1746 0
v -832 1714 0
v -320 1778 0
v -320 1810 0
v -352 1810 0
v -352 1778 0
vt 0.00048828125 0.000762760639
vt 0.00048828125 0.781845927
vt 0.359863281 0.781845927
vt 0.359863281 0.000762760639
vt 0.360839844 0.000762760639
vt 0.360839844 0.781845927
vt 0.704589844 0.781845927
vt 0.704589844 0.000762760639
vt 0.705566406 0.000762760639
vt 0.705566406 0.196033537
vt 0.861816406 0.196033537
vt 0.861816406 0.000762760639
vt 0.705566406 0.197559118
vt 0.705566406 0.392829895
vt 0.861816406 0.392829895
vt 0.861816406 0.197559118
vt 0.862792969 0.000762760639
vt 0.862792969 0.318077803
vt 0.956542969 0.318077803
vt 0.956542969 0.000762760639
vt 0.705566406 0.394355476
vt 0.705566406 0.482074738
vt 0.939941406 0.482074738
vt 0.939941406 0.394355476
vt 0.705566406 0.483600318
vt 0.705566406 0.581235707
vt 0.939941406 0.581235707
vt 0.939941406 0.483600318
vt 0.705566406 0.582761288
vt 0.705566406 0.670480549
vt 0.924316406 0.670480549
vt 0.924316406 0.582761288
vt 0.705566406 0.67200613
vt 0.705566406 0.769641519
vt 0.924316406 0.769641519
vt 0.924316406 0.67200613
vt 0.705566406 0.77116704
vt 0.705566406 0.917620122
vt 0.799316406 0.917620122
vt 0.799316406 0.77116704
vt 0.800292969 0.77116704
vt 0.800292969 0.844393611
vt 0.956542969 0.844393611
vt 0.956542969 0.77116704
vt 0.00048828125 0.783371449
vt 0.00048828125 0.881006837
vt 0.109863281 0.881006837
vt 0.109863281 0.783371449
vt 0.110839844 0.783371449
vt 0.110839844 0.85659802
vt 0.251464844 0.85659802
vt 0.251464844 0.783371449
vt 0.252441406 0.783371449
vt 0.252441406 0.929824591
vt 0.314941406 0.929824591
vt 0.314941406 0.783371449
vt 0.315917969 0.783371449
vt 0.315917969 0.929824591
vt 0.378417969 0.929824591
vt 0.378417969 0.783371449
vt 0.379394531 0.783371449
vt 0.379394531 0.905415714
vt 0.426269531 0.905415714
vt 0.426269531 0.783371449
vt 0.427246094 0.783371449
vt 0.427246094 0.85659802
vt 0.505371094 0.85659802
vt 0.505371094 0.783371449
vt 0.957519531 0.000762760639
vt 0.957519531 0.17162472
vt 0.988769531 0.17162472
vt 0.988769531 0.000762760639
vt 0.957519531 0.173150241
vt 0.957519531 0.344012201
vt 0.988769531 0.344012201
vt 0.988769531 0.173150241
vt 0.957519531 0.345537782
vt 0.957519531 0.491990864
vt 0.988769531 0.491990864
vt 0.988769531 0.345537782
vt 0.957519531 0.493516386
vt 0.957519531 0.615560651
vt 0.988769531 0.615560651
vt 0.988769531 0.493516386
vt 0.957519531 0.617086172
vt 0.957519531 0.739130437
vt 0.988769531 0.739130437
vt 0.988769531 0.617086172
vt 0.957519531 0.740656018
vt 0.957519531 0.862700224
vt 0.988769531 0.862700224
vt 0.988769531 0.740656018
vt 0.506347656 0.783371449
vt 0.506347656 0.881006837
vt 0.537597656 0.881006837
vt 0.537597656 0.783371449
vt 0.538574219 0.783371449
vt 0.538574219 0.881006837
vt 0.569824219 0.881006837
vt 0.569824219 0.783371449
vt 0.570800781 0.783371449
vt 0.570800781 0.807780325
vt 0.664550781 0.807780325
vt 0.664550781 0.783371449
vt 0.665527344 0.783371449
vt 0.665527344 0.85659802
vt 0.696777344 0.85659802
vt 0.696777344 0.783371449
vt 0.570800781 0.809305906
vt 0.570800781 0.833714724
vt 0.664550781 0.833714724
vt 0.664550781 0.809305906
vt 0.570800781 0.835240245
vt 0.570800781 0.908466816
vt 0.602050781 0.908466816
vt 0.602050781 0.835240245
vt 0.603027344 0.835240245
vt 0.603027344 0.908466816
vt 0.634277344 0.908466816
vt 0.634277344 0.835240245
vt 0.800292969 0.845919132
vt 0.800292969 0.870328009
vt 0.878417969 0.870328009
vt 0.878417969 0.845919132
vt 0.635253906 0.835240245
vt 0.635253906 0.95728451
vt 0.650878906 0.95728451
vt 0.650878906 0.835240245
vt 0.879394531 0.845919132
vt 0.879394531 0.894736826
vt 0.910644531 0.894736826
vt 0.910644531 0.845919132
vt 0.911621094 0.845919132
vt 0.911621094 0.894736826
vt 0.942871094 0.894736826
vt 0.942871094 0.845919132
vt 0.110839844 0.858123541
vt 0.110839844 0.882532418
vt 0.173339844 0.882532418
vt 0.173339844 0.858123541
vt 0.174316406 0.858123541
vt 0.174316406 0.906941295
vt 0.205566406 0.906941295
vt 0.205566406 0.858123541
vt 0.206542969 0.858123541
vt 0.206542969 0.897025168
vt 0.237792969 0.897025168
vt 0.237792969 0.858123541
vt 0.427246094 0.858123541
vt 0.427246094 0.906941295
vt 0.458496094 0.906941295
vt 0.458496094 0.858123541
vt 0.459472656 0.858123541
vt 0.459472656 0.906941295
vt 0.490722656 0.906941295
vt 0.490722656 0.858123541
vt 0.665527344 0.858123541
vt 0.665527344 0.955758989
vt 0.681152344 0.955758989
vt 0.681152344 0.858123541
vt 0.800292969 0.87185353
vt 0.800292969 0.896262407
vt 0.862792969 0.896262407
vt 0.862792969 0.87185353
vt 0.00048828125 0.882532418
vt 0.00048828125 0.897025168
vt 0.0629882812 0.897025168
vt 0.0629882812 0.882532418
vt 0.682128906 0.858123541
vt 0.682128906 0.955758989
vt 0.697753906 0.955758989
vt 0.697753906 0.858123541
vt 0.506347656 0.882532418
vt 0.506347656 0.906941295
vt 0.568847656 0.906941295
vt 0.568847656 0.882532418
vt 0.957519531 0.864225745
vt 0.957519531 0.961861193
vt 0.973144531 0.961861193
vt 0.973144531 0.864225745
vt 0.110839844 0.884057999
vt 0.110839844 0.898550749
vt 0.173339844 0.898550749
vt 0.173339844 0.884057999
vt 0.879394531 0.896262407
vt 0.879394531 0.920671225
vt 0.941894531 0.920671225
vt 0.941894531 0.896262407
vt 0.800292969 0.897787929
vt 0.800292969 0.922196805
vt 0.847167969 0.922196805
vt 0.847167969 0.897787929
vt 0.00048828125 0.898550749
vt 0.00048828125 0.922959566
vt 0.0473632812 0.922959566
vt 0.0473632812 0.898550749
vt 0.974121094 0.864225745
vt 0.974121094 0.937452316
vt 0.989746094 0.937452316
vt 0.989746094 0.864225745
vt 0.0639648438 0.882532418
vt 0.0639648438 0.955758989
vt 0.0795898438 0.955758989
vt 0.0795898438 0.882532418
vt 0.110839844 0.90007627
vt 0.110839844 0.924485147
vt 0.157714844 0.924485147
vt 0.157714844 0.90007627
vt 0.379394531 0.906941295
vt 0.379394531 0.931350112
vt 0.426269531 0.931350112
vt 0.426269531 0.906941295
vt 0.0805664062 0.882532418
vt 0.0805664062 0.955758989
vt 0.0961914062 0.955758989
vt 0.0961914062 0.882532418
vt 0.174316406 0.908466816
vt 0.174316406 0.932875693
vt 0.221191406 0.932875693
vt 0.221191406 0.908466816
vt 0.848144531 0.897787929
vt 0.848144531 0.9710145
vt 0.863769531 0.9710145
vt 0.863769531 0.897787929
vt 0.427246094 0.908466816
vt 0.427246094 0.932875693
vt 0.474121094 0.932875693
vt 0.474121094 0.908466816
vt 0.222167969 0.898550749
vt 0.222167969 0.947368443
vt 0.237792969 0.947368443
vt 0.237792969 0.898550749
vt 0.475097656 0.908466816
vt 0.475097656 0.95728451
vt 0.490722656 0.95728451
vt 0.490722656 0.908466816
vt 0.506347656 0.908466816
vt 0.506347656 0.95728451
vt 0.521972656 0.95728451
vt 0.521972656 0.908466816
vt 0.522949219 0.908466816
vt 0.522949219 0.932875693
vt 0.554199219 0.932875693
vt 0.554199219 0.908466816
vt 0.570800781 0.909992397
vt 0.570800781 0.934401214
vt 0.602050781 0.934401214
vt 0.602050781 0.909992397
vt 0.603027344 0.909992397
vt 0.603027344 0.934401214
vt 0.634277344 0.934401214
vt 0.634277344 0.909992397
vt 0.705566406 0.919145703
vt 0.705566406 0.943554521
vt 0.736816406 0.943554521
vt 0.736816406 0.919145703
vt 0.737792969 0.919145703
vt 0.737792969 0.943554521
vt 0.769042969 0.943554521
vt 0.769042969 0.919145703
vt 0.770019531 0.919145703
vt 0.770019531 0.967963398
vt 0.785644531 0.967963398
vt 0.785644531 0.919145703
vt 0.879394531 0.922196805
vt 0.879394531 0.946605623
vt 0.910644531 0.946605623
vt 0.910644531 0.922196805
vt 0.911621094 0.922196805
vt 0.911621094 0.9710145
vt 0.927246094 0.9710145
vt 0.927246094 0.922196805
vt 0.928222656 0.922196805
vt 0.928222656 0.9710145
vt 0.943847656 0.9710145
vt 0.943847656 0.922196805
vt 0.800292969 0.923722327
vt 0.800292969 0.972540021
vt 0.815917969 0.972540021
vt 0.815917969 0.923722327
vt 0.816894531 0.923722327
vt 0.816894531 0.972540021
vt 0.832519531 0.972540021
vt 0.832519531 0.923722327
vt 0.00048828125 0.924485147
vt 0.00048828125 0.973302841
vt 0.0161132812 0.973302841
vt 0.0161132812 0.924485147
vt 0.0170898438 0.924485147
vt 0.0170898438 0.938977897
vt 0.0483398438 0.938977897
vt 0.0483398438 0.924485147
vt 0.110839844 0.926010668
vt 0.110839844 0.950419545
vt 0.142089844 0.950419545
vt 0.142089844 0.926010668
vt 0.143066406 0.926010668
vt 0.143066406 0.974828362
vt 0.158691406 0.974828362
vt 0.158691406 0.926010668
vt 0.252441406 0.931350112
vt 0.252441406 0.955758989
vt 0.283691406 0.955758989
vt 0.283691406 0.931350112
vt 0.284667969 0.931350112
vt 0.284667969 0.980167806
vt 0.300292969 0.980167806
vt 0.300292969 0.931350112
vt 0.301269531 0.931350112
vt 0.301269531 0.980167806
vt 0.316894531 0.980167806
vt 0.316894531 0.931350112
vt 0.317871094 0.931350112
vt 0.317871094 0.955758989
vt 0.349121094 0.955758989
vt 0.349121094 0.931350112
vt 0.379394531 0.932875693
vt 0.379394531 0.95728451
vt 0.410644531 0.95728451
vt 0.410644531 0.932875693
vt 0.350097656 0.931350112
vt 0.350097656 0.980167806
vt 0.365722656 0.980167806
vt 0.365722656 0.931350112
vt 0.174316406 0.934401214
vt 0.174316406 0.983218908
vt 0.189941406 0.983218908
vt 0.189941406 0.934401214
vt 0.190917969 0.934401214
vt 0.190917969 0.983218908
vt 0.206542969 0.983218908
vt 0.206542969 0.934401214
vt 0.427246094 0.934401214
vt 0.427246094 0.983218908
vt 0.442871094 0.983218908
vt 0.442871094 0.934401214
vt 0.443847656 0.934401214
vt 0.443847656 0.983218908
vt 0.459472656 0.983218908
vt 0.459472656 0.934401214
vt 0.522949219 0.934401214
vt 0.522949219 0.958810091
vt 0.554199219 0.958810091
vt 0.554199219 0.934401214
vt 0.570800781 0.935926795
vt 0.570800781 0.984744489
vt 0.586425781 0.984744489
vt 0.586425781 0.935926795
vt 0.587402344 0.935926795
vt 0.587402344 0.984744489
vt 0.603027344 0.984744489
vt 0.603027344 0.935926795
vt 0.604003906 0.935926795
vt 0.604003906 0.984744489
vt 0.619628906 0.984744489
vt 0.619628906 0.935926795
vt 0.0170898438 0.940503418
vt 0.0170898438 0.964912295
vt 0.0483398438 0.964912295
vt 0.0483398438 0.940503418
vt 0.974121094 0.938977897
vt 0.974121094 0.987795591
vt 0.989746094 0.987795591
vt 0.989746094 0.938977897
vt 0.705566406 0.945080101
vt 0.705566406 0.969488919
vt 0.736816406 0.969488919
vt 0.736816406 0.945080101
vt 0.737792969 0.945080101
vt 0.737792969 0.969488919
vt 0.769042969 0.969488919
vt 0.769042969 0.945080101
vt 0.879394531 0.948131204
vt 0.879394531 0.996948898
vt 0.895019531 0.996948898
vt 0.895019531 0.948131204
vt 0.110839844 0.951945066
vt 0.110839844 0.976353943
vt 0.142089844 0.976353943
vt 0.142089844 0.951945066
vt 0.222167969 0.948893964
vt 0.222167969 0.973302841
vt 0.237792969 0.973302841
vt 0.237792969 0.948893964
vt 0.0639648438 0.95728451
vt 0.0639648438 0.981693387
vt 0.0795898438 0.981693387
vt 0.0795898438 0.95728451
vt 0.0805664062 0.95728451
vt 0.0805664062 0.981693387
vt 0.0961914062 0.981693387
vt 0.0961914062 0.95728451
vt 0.252441406 0.95728451
vt 0.252441406 0.981693387
vt 0.268066406 0.981693387
vt 0.268066406 0.95728451
vt 0.317871094 0.95728451
vt 0.317871094 0.981693387
vt 0.333496094 0.981693387
vt 0.333496094 0.95728451
vt 0.665527344 0.95728451
vt 0.665527344 0.981693387
vt 0.681152344 0.981693387
vt 0.681152344 0.95728451
vt 0.682128906 0.95728451
vt 0.682128906 0.981693387
vt 0.697753906 0.981693387
vt 0.697753906 0.95728451
vt 0.379394531 0.958810091
vt 0.379394531 0.983218908
vt 0.395019531 0.983218908
vt 0.395019531 0.958810091
vt 0.395996094 0.958810091
vt 0.395996094 0.983218908
vt 0.411621094 0.983218908
vt 0.411621094 0.958810091
vt 0.475097656 0.958810091
vt 0.475097656 0.983218908
vt 0.490722656 0.983218908
vt 0.490722656 0.958810091
vt 0.506347656 0.958810091
vt 0.506347656 0.983218908
vt 0.521972656 0.983218908
vt 0.521972656 0.958810091
vt 0.635253906 0.958810091
vt 0.635253906 0.983218908
vt 0.650878906 0.983218908
vt 0.650878906 0.958810091
vt 0.522949219 0.960335612
vt 0.522949219 0.984744489
vt 0.538574219 0.984744489
vt 0.538574219 0.960335612
vt 0.539550781 0.960335612
vt 0.539550781 0.984744489
vt 0.555175781 0.984744489
vt 0.555175781 0.960335612
vt 0.957519531 0.963386714
vt 0.957519531 0.987795591
vt 0.973144531 0.987795591
vt 0.973144531 0.963386714
vt 0.0170898438 0.966437817
vt 0.0170898438 0.990846694
vt 0.0327148438 0.990846694
vt 0.0327148438 0.966437817
vt 0.0336914062 0.966437817
vt 0.0336914062 0.990846694
vt 0.0493164062 0.990846694
vt 0.0493164062 0.966437817
vt 0.770019531 0.969488919
vt 0.770019531 0.993897796
vt 0.785644531 0.993897796
vt 0.785644531 0.969488919
vt 0.705566406 0.9710145
vt 0.705566406 0.995423317
vt 0.721191406 0.995423317
vt 0.721191406 0.9710145
vt 0.722167969 0.9710145
vt 0.722167969 0.995423317
vt 0.737792969 0.995423317
vt 0.737792969 0.9710145
vt 0.738769531 0.9710145
vt 0.738769531 0.995423317
vt 0.754394531 0.995423317
vt 0.754394531 0.9710145
vt 0.848144531 0.972540021
vt 0.848144531 0.996948898
vt 0.863769531 0.996948898
vt 0.863769531 0.972540021
vt 0.911621094 0.972540021
vt 0.911621094 0.996948898
vt 0.927246094 0.996948898
vt 0.927246094 0.972540021
vt 0.928222656 0.972540021
vt 0.928222656 0.996948898
vt 0.943847656 0.996948898
vt 0.943847656 0.972540021
vt 0.800292969 0.974065602
vt 0.800292969 0.998474419
vt 0.815917969 0.998474419
vt 0.815917969 0.974065602
vt 0.816894531 0.974065602
vt 0.816894531 0.998474419
vt 0.832519531 0.998474419
vt 0.832519531 0.974065602
vt 0.00048828125 0.974828362
vt 0.00048828125 0.999237239
vt 0.0161132812 0.999237239
vt 0.0161132812 0.974828362
g yikaluosi_4-mesh_0
f 3/3/3 2/2/2 1/1/1
f 1/1/1 4/4/4 3/3/3
f 7/7/7 6/6/6 5/5/5
f 5/5/5 8/8/8 7/7/7
f 11/11/11 10/10/10 9/9/9
f 9/9/9 12/12/12 11/11/11
f 15/15/15 14/14/14 13/13/13
f 13/13/13 16/16/16 15/15/15
f 19/19/19 18/18/18 17/17/17
f 17/17/17 20/20/20 19/19/19
f 23/23/23 22/22/22 21/21/21
f 21/21/21 24/24/24 23/23/23
f 27/27/27 26/26/26 25/25/25
f 25/25/25 28/28/28 27/27/27
f 31/31/31 30/30/30 29/29/29
f 29/29/29 32/32/32 31/31/31
f 35/35/35 34/34/34 33/33/33
f 33/33/33 36/36/36 35/35/35
f 39/39/39 38/38/38 37/37/37
f 37/37/37 40/40/40 39/39/39
f 43/43/43 42/42/42 41/41/41
f 41/41/41 44/44/44 43/43/43
f 47/47/47 46/46/46 45/45/45
f 45/45/45 48/48/48 47/47/47
f 51/51/51 50/50/50 49/49/49
f 49/49/49 52/52/52 51/51/51
f 55/55/55 54/54/54 53/53/53
f 53/53/53 56/56/56 55/55/55
f 59/59/59 58/58/58 57/57/57
f 57/57/57 60/60/60 59/59/59
f 63/63/63 62/62/62 61/61/61
f 61/61/61 64/64/64 63/63/63
f 67/67/67 66/66/66 65/65/65
f 65/65/65 68/68/68 67/67/67
f 71/71/71 70/70/70 69/69/69
f 69/69/69 72/72/72 71/71/71
f 75/75/75 74/74/74 73/73/73
f 73/73/73 76/76/76 75/75/75
f 79/79/79 78/78/78 77/77/77
f 77/77/77 80/80/80 79/79/79
f 83/83/83 82/82/82 81/81/81
f 81/81/81 84/84/84 83/83/83
f 87/87/87 86/86/86 85/85/85
f 85/85/85 88/88/88 87/87/87
f 91/91/91 90/90/90 89/89/89
f 89/89/89 92/92/92 91/91/91
f 95/95/95 94/94/94 93/93/93
f 93/93/93 96/96/96 95/95/95
f 99/99/99 98/98/98 97/97/97
f 97/97/97 100/100/100 99/99/99
f 103/103/103 102/102/102 101/101/101
f 101/101/101 104/104/104 103/103/103
f 107/107/107 106/106/106 105/105/105
f 105/105/105 108/108/108 107/107/107
f 111/111/111 110/110/110 109/109/109
f 109/109/109 112/112/112 111/111/111
f 115/115/115 114/114/114 113/113/113
f 113/113/113 116/116/116 115/115/115
f 119/119/119 118/118/118 117/117/117
f 117/117/117 120/120/120 119/119/119
f 123/123/123 122/122/122 121/121/121
f 121/121/121 124/124/124 123/123/123
f 127/127/127 126/126/126 125/125/125
f 125/125/125 128/128/128 127/127/127
f 131/131/131 130/130/130 129/129/129
f 129/129/129 132/132/132 131/131/131
f 135/135/135 134/134/134 133/133/133
f 133/133/133 136/136/136 135/135/135
f 139/139/139 138/138/138 137/137/137
f 137/137/137 140/140/140 139/139/139
f 143/143/143 142/142/142 141/141/141
f 141/141/141 144/144/144 143/143/143
f 147/147/147 146/146/146 145/145/145
f 145/145/145 148/148/148 147/147/147
f 151/151/151 150/150/150 149/149/149
f 149/149/149 152/152/152 151/151/151
f 155/155/155 154/154/154 153/153/153
f 153/153/153 156/156/156 155/155/155
f 159/159/159 158/158/158 157/157/157
f 157/157/157 160/160/160 159/159/159
f 163/163/163 162/162/162 161/161/161
f 161/161/161 164/164/164 163/163/163
f 167/167/167 166/166/166 165/165/165
f 165/165/165 168/168/168 167/167/167
f 171/171/171 170/170/170 169/169/169
f 169/169/169 172/172/172 171/171/171
f 175/175/175 174/174/174 173/173/173
f 173/173/173 176/176/176 175/175/175
f 179/179/179 178/178/178 177/177/177
f 177/177/177 180/180/180 179/179/179
f 183/183/183 182/182/182 181/181/181
f 181/181/181 184/184/184 183/183/183
f 187/187/187 186/186/186 185/185/185
f 185/185/185 188/188/188 187/187/187
f 191/191/191 190/190/190 189/189/189
f 189/189/189 192/192/192 191/191/191
f 195/195/195 194/194/194 193/193/193
f 193/193/193 196/196/196 195/195/195
f 199/199/199 198/198/198 197/197/197
f 197/197/197 200/200/200 199/199/199
f 203/203/203 202/202/202 201/201/201
f 201/201/201 204/204/204 203/203/203
f 207/207/207 206/206/206 205/205/205
f 205/205/205 208/208/208 207/207/207
f 211/211/211 210/210/210 209/209/209
f 209/209/209 212/212/212 211/211/211
f 215/215/215 214/214/214 213/213/213
f 213/213/213 216/216/216 215/215/215
f 219/219/219 218/218/218 217/217/217
f 217/217/217 220/220/220 219/219/219
f 223/223/223 222/222/222 221/221/221
f 221/221/221 224/224/224 223/223/223
f 227/227/227 226/226/226 225/225/225
f 225/225/225 228/228/228 227/227/227
f 231/231/231 230/230/230 229/229/229
f 229/229/229 232/232/232 231/231/231
f 235/235/235 234/234/234 233/233/233
f 233/233/233 236/236/236 235/235/235
f 239/239/239 238/238/238 237/237/237
f 237/237/237 240/240/240 239/239/239
f 243/243/243 242/242/242 241/241/241
f 241/241/241 244/244/244 243/243/243
f 247/247/247 246/246/246 245/245/245
f 245/245/245 248/248/248 247/247/247
f 251/251/251 250/250/250 249/249/249
f 249/249/249 252/252/252 251/251/251
f 255/255/255 254/254/254 253/253/253
f 253/253/253 256/256/256 255/255/255
f 259/259/259 258/258/258 257/257/257
f 257/257/257 260/260/260 259/259/259
f 263/263/263 262/262/262 261/261/261
f 261/261/261 264/264/264 263/263/263
f 267/267/267 266/266/266 265/265/265
f 265/265/265 268/268/268 267/267/267
f 271/271/271 270/270/270 269/269/269
f 269/269/269 272/272/272 271/271/271
f 275/275/275 274/274/274 273/273/273
f 273/273/273 276/276/276 275/275/275
f 279/279/279 278/278/278 277/277/277
f 277/277/277 280/280/280 279/279/279
f 283/283/283 282/282/282 281/281/281
f 281/281/281 284/284/284 283/283/283
f 287/287/287 286/286/286 285/285/285
f 285/285/285 288/288/288 287/287/287
f 291/291/291 290/290/290 289/289/289
f 289/289/289 292/292/292 291/291/291
f 295/295/295 294/294/294 293/293/293
f 293/293/293 296/296/296 295/295/295
f 299/299/299 298/298/298 297/297/297
f 297/297/297 300/300/300 299/299/299
f 303/303/303 302/302/302 301/301/301
f 301/301/301 304/304/304 303/303/303
f 307/307/307 306/306/306 305/305/305
f 305/305/305 308/308/308 307/307/307
f 311/311/311 310/310/310 309/309/309
f 309/309/309 312/312/312 311/311/311
f 315/315/315 314/314/314 313/313/313
f 313/313/313 316/316/316 315/315/315
f 319/319/319 318/318/318 317/317/317
f 317/317/317 320/320/320 319/319/319
f 323/323/323 322/322/322 321/321/321
f 321/321/321 324/324/324 323/323/323
f 327/327/327 326/326/326 325/325/325
f 325/325/325 328/328/328 327/327/327
f 331/331/331 330/330/330 329/329/329
f 329/329/329 332/332/332 331/331/331
f 335/335/335 334/334/334 333/333/333
f 333/333/333 336/336/336 335/335/335
f 339/339/339 338/338/338 337/337/337
f 337/337/337 340/340/340 339/339/339
f 343/343/343 342/342/342 341/341/341
f 341/341/341 344/344/344 343/343/343
f 347/347/347 346/346/346 345/345/345
f 345/345/345 348/348/348 347/347/347
f 351/351/351 350/350/350 349/349/349
f 349/349/349 352/352/352 351/351/351
f 355/355/355 354/354/354 353/353/353
f 353/353/353 356/356/356 355/355/355
f 359/359/359 358/358/358 357/357/357
f 357/357/357 360/360/360 359/359/359
f 363/363/363 362/362/362 361/361/361
f 361/361/361 364/364/364 363/363/363
f 367/367/367 366/366/366 365/365/365
f 365/365/365 368/368/368 367/367/367
f 371/371/371 370/370/370 369/369/369
f 369/369/369 372/372/372 371/371/371
f 375/375/375 374/374/374 373/373/373
f 373/373/373 376/376/376 375/375/375
f 379/379/379 378/378/378 377/377/377
f 377/377/377 380/380/380 379/379/379
f 383/383/383 382/382/382 381/381/381
f 381/381/381 384/384/384 383/383/383
f 387/387/387 386/386/386 385/385/385
f 385/385/385 388/388/388 387/387/387
f 391/391/391 390/390/390 389/389/389
f 389/389/389 392/392/392 391/391/391
f 395/395/395 394/394/394 393/393/393
f 393/393/393 396/396/396 395/395/395
f 399/399/399 398/398/398 397/397/397
f 397/397/397 400/400/400 399/399/399
f 403/403/403 402/402/402 401/401/401
f 401/401/401 404/404/404 403/403/403
f 407/407/407 406/406/406 405/405/405
f 405/405/405 408/408/408 407/407/407
f 411/411/411 410/410/410 409/409/409
f 409/409/409 412/412/412 411/411/411
f 415/415/415 414/414/414 413/413/413
f 413/413/413 416/416/416 415/415/415
f 419/419/419 418/418/418 417/417/417
f 417/417/417 420/420/420 419/419/419
f 423/423/423 422/422/422 421/421/421
f 421/421/421 424/424/424 423/423/423
f 427/427/427 426/426/426 425/425/425
f 425/425/425 428/428/428 427/427/427
f 431/431/431 430/430/430 429/429/429
f 429/429/429 432/432/432 431/431/431
f 435/435/435 434/434/434 433/433/433
f 433/433/433 436/436/436 435/435/435
f 439/439/439 438/438/438 437/437/437
f 437/437/437 440/440/440 439/439/439
f 443/443/443 442/442/442 441/441/441
f 441/441/441 444/444/444 443/443/443
f 447/447/447 446/446/446 445/445/445
f 445/445/445 448/448/448 447/447/447
f 451/451/451 450/450/450 449/449/449
f 449/449/449 452/452/452 451/451/451
f 455/455/455 454/454/454 453/453/453
f 453/453/453 456/456/456 455/455/455
f 459/459/459 458/458/458 457/457/457
f 457/457/457 460/460/460 459/459/459
f 463/463/463 462/462/462 461/461/461
f 461/461/461 464/464/464 463/463/463
f 467/467/467 466/466/466 465/465/465
f 465/465/465 468/468/468 467/467/467
f 471/471/471 470/470/470 469/469/469
f 469/469/469 472/472/472 471/471/471
f 475/475/475 474/474/474 473/473/473
f 473/473/473 476/476/476 475/475/475
f 479/479/479 478/478/478 477/477/477
f 477/477/477 480/480/480 479/479/479
f 483/483/483 482/482/482 481/481/481
f 481/481/481 484/484/484 483/483/483
f 487/487/487 486/486/486 485/485/485
f 485/485/485 488/488/488 487/487/487
