g baiyanjuren_4_bj-mesh
v -1632 887 0
v -1632 1175 0
v -2047 1175 0
v -2047 887 0
v -1728 87 0
v -1728 375 0
v -2047 375 0
v -2047 87 0
v -0 0 0
v -0 375 0
v -192 375 0
v -192 0 0
v -256 0 0
v -256 183 0
v -576 183 0
v -576 0 0
v -1728 407 0
v -1728 599 0
v -1984 599 0
v -1984 407 0
v -1088 247 0
v -1088 407 0
v -1344 407 0
v -1344 247 0
v -1344 247 0
v -1344 407 0
v -1568 407 0
v -1568 247 0
v -1376 1047 0
v -1376 1175 0
v -1632 1175 0
v -1632 1047 0
v -1824 0 0
v -1824 87 0
v -2047 87 0
v -2047 0 0
v -1824 791 0
v -1824 887 0
v -2047 887 0
v -2047 791 0
v -960 215 0
v -960 343 0
v -1088 343 0
v -1088 215 0
v -1408 919 0
v -1408 1047 0
v -1536 1047 0
v -1536 919 0
v -320 183 0
v -320 247 0
v -448 247 0
v -448 183 0
v -1184 119 0
v -1184 183 0
v -1312 183 0
v -1312 119 0
v -1440 407 0
v -1440 471 0
v -1568 471 0
v -1568 407 0
v -1664 503 0
v -1664 631 0
v -1728 631 0
v -1728 503 0
v -1536 471 0
v -1536 535 0
v -1664 535 0
v -1664 471 0
v -1536 0 0
v -1536 119 0
v -1600 119 0
v -1600 0 0
v -1664 119 0
v -1664 247 0
v -1728 247 0
v -1728 119 0
v -1536 119 0
v -1536 247 0
v -1600 247 0
v -1600 119 0
v -992 0 0
v -992 55 0
v -1088 55 0
v -1088 0 0
v -1440 151 0
v -1440 215 0
v -1536 215 0
v -1536 151 0
v -1984 375 0
v -1984 471 0
v -2047 471 0
v -2047 375 0
v -800 151 0
v -800 215 0
v -896 215 0
v -896 151 0
v -192 0 0
v -192 87 0
v -256 87 0
v -256 0 0
v -1408 727 0
v -1408 791 0
v -1504 791 0
v -1504 727 0
v -1888 631 0
v -1888 695 0
v -1984 695 0
v -1984 631 0
v -1600 247 0
v -1600 343 0
v -1664 343 0
v -1664 247 0
v -1664 23 0
v -1664 119 0
v -1728 119 0
v -1728 23 0
v -192 247 0
v -192 343 0
v -256 343 0
v -256 247 0
v -192 151 0
v -192 247 0
v -256 247 0
v -256 151 0
v -1792 631 0
v -1792 695 0
v -1888 695 0
v -1888 631 0
v -1248 215 0
v -1248 247 0
v -1408 247 0
v -1408 215 0
v -1088 215 0
v -1088 247 0
v -1248 247 0
v -1248 215 0
v -1376 471 0
v -1376 535 0
v -1440 535 0
v -1440 471 0
v -1728 23 0
v -1728 87 0
v -1792 87 0
v -1792 23 0
v -672 215 0
v -672 279 0
v -736 279 0
v -736 215 0
v -1728 599 0
v -1728 663 0
v -1792 663 0
v -1792 599 0
v -1696 823 0
v -1696 887 0
v -1760 887 0
v -1760 823 0
v -1632 791 0
v -1632 823 0
v -1760 823 0
v -1760 791 0
v -1504 791 0
v -1504 823 0
v -1632 823 0
v -1632 791 0
v -1600 183 0
v -1600 247 0
v -1664 247 0
v -1664 183 0
v -1696 279 0
v -1696 375 0
v -1728 375 0
v -1728 279 0
v -1792 759 0
v -1792 791 0
v -1888 791 0
v -1888 759 0
v -1696 375 0
v -1696 471 0
v -1728 471 0
v -1728 375 0
v -1888 759 0
v -1888 791 0
v -1984 791 0
v -1984 759 0
v -1664 247 0
v -1664 311 0
v -1696 311 0
v -1696 247 0
v -256 247 0
v -256 311 0
v -288 311 0
v -288 247 0
v -736 279 0
v -736 311 0
v -800 311 0
v -800 279 0
v -576 279 0
v -576 343 0
v -608 343 0
v -608 279 0
v -1760 855 0
v -1760 887 0
v -1824 887 0
v -1824 855 0
v -1504 823 0
v -1504 887 0
v -1536 887 0
v -1536 823 0
v -608 311 0
v -608 375 0
v -640 375 0
v -640 311 0
v -1920 375 0
v -1920 407 0
v -1984 407 0
v -1984 375 0
v -352 247 0
v -352 279 0
v -416 279 0
v -416 247 0
v -832 119 0
v -832 151 0
v -896 151 0
v -896 119 0
v -896 151 0
v -896 183 0
v -960 183 0
v -960 151 0
v -1696 0 0
v -1696 23 0
v -1760 23 0
v -1760 0 0
v -1472 119 0
v -1472 151 0
v -1536 151 0
v -1536 119 0
v -256 183 0
v -256 215 0
v -320 215 0
v -320 183 0
v -768 183 0
v -768 247 0
v -800 247 0
v -800 183 0
v -1216 183 0
v -1216 215 0
v -1280 215 0
v -1280 183 0
v -960 183 0
v -960 215 0
v -1024 215 0
v -1024 183 0
v -1600 983 0
v -1600 1047 0
v -1632 1047 0
v -1632 983 0
v -576 23 0
v -576 87 0
v -608 87 0
v -608 23 0
v -576 87 0
v -576 151 0
v -608 151 0
v -608 87 0
v -1888 727 0
v -1888 759 0
v -1952 759 0
v -1952 727 0
v -1440 887 0
v -1440 919 0
v -1504 919 0
v -1504 887 0
v -1248 407 0
v -1248 439 0
v -1312 439 0
v -1312 407 0
v -1184 407 0
v -1184 439 0
v -1248 439 0
v -1248 407 0
v -1792 375 0
v -1792 407 0
v -1856 407 0
v -1856 375 0
v -1728 375 0
v -1728 407 0
v -1792 407 0
v -1792 375 0
v -640 151 0
v -640 183 0
v -704 183 0
v -704 151 0
v -1568 279 0
v -1568 343 0
v -1600 343 0
v -1600 279 0
v -1600 407 0
v -1600 439 0
v -1664 439 0
v -1664 407 0
v -1536 983 0
v -1536 1047 0
v -1568 1047 0
v -1568 983 0
v -800 215 0
v -800 247 0
v -832 247 0
v -832 215 0
v -896 311 0
v -896 343 0
v -928 343 0
v -928 311 0
v -544 279 0
v -544 311 0
v -576 311 0
v -576 279 0
v -1664 439 0
v -1664 471 0
v -1696 471 0
v -1696 439 0
v -1408 439 0
v -1408 471 0
v -1440 471 0
v -1440 439 0
v -1664 343 0
v -1664 375 0
v -1696 375 0
v -1696 343 0
v -640 343 0
v -640 375 0
v -672 375 0
v -672 343 0
v -1504 215 0
v -1504 247 0
v -1536 247 0
v -1536 215 0
v -960 0 0
v -960 23 0
v -992 23 0
v -992 0 0
v -192 87 0
v -192 119 0
v -224 119 0
v -224 87 0
v -1408 23 0
v -1408 55 0
v -1440 55 0
v -1440 23 0
v -1088 0 0
v -1088 23 0
v -1120 23 0
v -1120 0 0
v -448 183 0
v -448 215 0
v -480 215 0
v -480 183 0
v -704 183 0
v -704 215 0
v -736 215 0
v -736 183 0
v -1792 0 0
v -1792 23 0
v -1824 23 0
v -1824 0 0
v -1504 887 0
v -1504 919 0
v -1536 919 0
v -1536 887 0
v -1376 1015 0
v -1376 1047 0
v -1408 1047 0
v -1408 1015 0
v -1376 919 0
v -1376 951 0
v -1408 951 0
v -1408 919 0
v -1952 727 0
v -1952 759 0
v -1984 759 0
v -1984 727 0
v -704 151 0
v -704 183 0
v -736 183 0
v -736 151 0
v -1568 247 0
v -1568 279 0
v -1600 279 0
v -1600 247 0
v -1664 407 0
v -1664 439 0
v -1696 439 0
v -1696 407 0
v -1600 887 0
v -1600 919 0
v -1632 919 0
v -1632 887 0
v -1792 599 0
v -1792 631 0
v -1824 631 0
v -1824 599 0
v -1504 471 0
v -1504 503 0
v -1536 503 0
v -1536 471 0
v -1984 471 0
v -1984 503 0
v -2016 503 0
v -2016 471 0
v -1312 599 0
v -1312 631 0
v -1344 631 0
v -1344 599 0
v -1792 791 0
v -1792 823 0
v -1824 823 0
v -1824 791 0
v -1728 727 0
v -1728 759 0
v -1760 759 0
v -1760 727 0
v -1920 695 0
v -1920 727 0
v -1952 727 0
v -1952 695 0
vt 0.00048828125 0.00204080343
vt 0.00048828125 0.589795947
vt 0.203613281 0.589795947
vt 0.203613281 0.00204080343
vt 0.204589844 0.00204080343
vt 0.204589844 0.589795947
vt 0.360839844 0.589795947
vt 0.360839844 0.00204080343
vt 0.361816406 0.00204080343
vt 0.361816406 0.769387722
vt 0.455566406 0.769387722
vt 0.455566406 0.00204080343
vt 0.456542969 0.00204080343
vt 0.456542969 0.377551019
vt 0.612792969 0.377551019
vt 0.612792969 0.00204080343
vt 0.613769531 0.00204080343
vt 0.613769531 0.393877566
vt 0.738769531 0.393877566
vt 0.738769531 0.00204080343
vt 0.739746094 0.00204080343
vt 0.739746094 0.328571439
vt 0.864746094 0.328571439
vt 0.864746094 0.00204080343
vt 0.865722656 0.00204080343
vt 0.865722656 0.328571439
vt 0.975097656 0.328571439
vt 0.975097656 0.00204080343
vt 0.739746094 0.332653046
vt 0.739746094 0.593877554
vt 0.864746094 0.593877554
vt 0.864746094 0.332653046
vt 0.865722656 0.332653046
vt 0.865722656 0.51224494
vt 0.975097656 0.51224494
vt 0.975097656 0.332653046
vt 0.456542969 0.381632626
vt 0.456542969 0.577551007
vt 0.565917969 0.577551007
vt 0.565917969 0.381632626
vt 0.613769531 0.397959173
vt 0.613769531 0.659183681
vt 0.676269531 0.659183681
vt 0.676269531 0.397959173
vt 0.865722656 0.516326547
vt 0.865722656 0.777551055
vt 0.928222656 0.777551055
vt 0.928222656 0.516326547
vt 0.929199219 0.516326547
vt 0.929199219 0.646938801
vt 0.991699219 0.646938801
vt 0.991699219 0.516326547
vt 0.456542969 0.581632614
vt 0.456542969 0.712244868
vt 0.519042969 0.712244868
vt 0.519042969 0.581632614
vt 0.520019531 0.581632614
vt 0.520019531 0.712244868
vt 0.582519531 0.712244868
vt 0.582519531 0.581632614
vt 0.677246094 0.397959173
vt 0.677246094 0.659183681
vt 0.708496094 0.659183681
vt 0.708496094 0.397959173
vt 0.00048828125 0.593877554
vt 0.00048828125 0.724489808
vt 0.0629882812 0.724489808
vt 0.0629882812 0.593877554
vt 0.0639648438 0.593877554
vt 0.0639648438 0.838775516
vt 0.0952148438 0.838775516
vt 0.0952148438 0.593877554
vt 0.0961914062 0.593877554
vt 0.0961914062 0.855102062
vt 0.127441406 0.855102062
vt 0.127441406 0.593877554
vt 0.128417969 0.593877554
vt 0.128417969 0.855102062
vt 0.159667969 0.855102062
vt 0.159667969 0.593877554
vt 0.160644531 0.593877554
vt 0.160644531 0.708163261
vt 0.207519531 0.708163261
vt 0.207519531 0.593877554
vt 0.208496094 0.593877554
vt 0.208496094 0.724489808
vt 0.255371094 0.724489808
vt 0.255371094 0.593877554
vt 0.256347656 0.593877554
vt 0.256347656 0.789795935
vt 0.287597656 0.789795935
vt 0.287597656 0.593877554
vt 0.288574219 0.593877554
vt 0.288574219 0.724489808
vt 0.335449219 0.724489808
vt 0.335449219 0.593877554
vt 0.739746094 0.597959161
vt 0.739746094 0.777551055
vt 0.770996094 0.777551055
vt 0.770996094 0.597959161
vt 0.771972656 0.597959161
vt 0.771972656 0.728571415
vt 0.818847656 0.728571415
vt 0.818847656 0.597959161
vt 0.929199219 0.651020408
vt 0.929199219 0.781632662
vt 0.976074219 0.781632662
vt 0.976074219 0.651020408
vt 0.819824219 0.597959161
vt 0.819824219 0.793877542
vt 0.851074219 0.793877542
vt 0.851074219 0.597959161
vt 0.613769531 0.663265347
vt 0.613769531 0.859183669
vt 0.645019531 0.859183669
vt 0.645019531 0.663265347
vt 0.645996094 0.663265347
vt 0.645996094 0.859183669
vt 0.677246094 0.859183669
vt 0.677246094 0.663265347
vt 0.678222656 0.663265347
vt 0.678222656 0.859183669
vt 0.709472656 0.859183669
vt 0.709472656 0.663265347
vt 0.160644531 0.712244868
vt 0.160644531 0.842857122
vt 0.207519531 0.842857122
vt 0.207519531 0.712244868
vt 0.456542969 0.716326535
vt 0.456542969 0.781632662
vt 0.534667969 0.781632662
vt 0.534667969 0.716326535
vt 0.361816406 0.773469388
vt 0.361816406 0.838775516
vt 0.439941406 0.838775516
vt 0.439941406 0.773469388
vt 0.535644531 0.716326535
vt 0.535644531 0.846938789
vt 0.566894531 0.846938789
vt 0.566894531 0.716326535
vt 0.567871094 0.716326535
vt 0.567871094 0.846938789
vt 0.599121094 0.846938789
vt 0.599121094 0.716326535
vt 0.00048828125 0.728571415
vt 0.00048828125 0.859183669
vt 0.0317382812 0.859183669
vt 0.0317382812 0.728571415
vt 0.208496094 0.728571415
vt 0.208496094 0.859183669
vt 0.239746094 0.859183669
vt 0.239746094 0.728571415
vt 0.288574219 0.728571415
vt 0.288574219 0.859183669
vt 0.319824219 0.859183669
vt 0.319824219 0.728571415
vt 0.739746094 0.781632662
vt 0.739746094 0.846938789
vt 0.802246094 0.846938789
vt 0.802246094 0.781632662
vt 0.865722656 0.781632662
vt 0.865722656 0.846938789
vt 0.928222656 0.846938789
vt 0.928222656 0.781632662
vt 0.320800781 0.728571415
vt 0.320800781 0.859183669
vt 0.352050781 0.859183669
vt 0.352050781 0.728571415
vt 0.710449219 0.397959173
vt 0.710449219 0.593877554
vt 0.726074219 0.593877554
vt 0.726074219 0.397959173
vt 0.456542969 0.785714269
vt 0.456542969 0.851020396
vt 0.503417969 0.851020396
vt 0.503417969 0.785714269
vt 0.710449219 0.597959161
vt 0.710449219 0.793877542
vt 0.726074219 0.793877542
vt 0.726074219 0.597959161
vt 0.929199219 0.785714269
vt 0.929199219 0.851020396
vt 0.976074219 0.851020396
vt 0.976074219 0.785714269
vt 0.977050781 0.651020408
vt 0.977050781 0.781632662
vt 0.992675781 0.781632662
vt 0.992675781 0.651020408
vt 0.0327148438 0.728571415
vt 0.0327148438 0.859183669
vt 0.0483398438 0.859183669
vt 0.0483398438 0.728571415
vt 0.256347656 0.793877542
vt 0.256347656 0.859183669
vt 0.287597656 0.859183669
vt 0.287597656 0.793877542
vt 0.803222656 0.732653022
vt 0.803222656 0.863265276
vt 0.818847656 0.863265276
vt 0.818847656 0.732653022
vt 0.819824219 0.797959208
vt 0.819824219 0.863265276
vt 0.851074219 0.863265276
vt 0.851074219 0.797959208
vt 0.504394531 0.785714269
vt 0.504394531 0.916326523
vt 0.520019531 0.916326523
vt 0.520019531 0.785714269
vt 0.977050781 0.785714269
vt 0.977050781 0.916326523
vt 0.992675781 0.916326523
vt 0.992675781 0.785714269
vt 0.0639648438 0.842857122
vt 0.0639648438 0.908163249
vt 0.0952148438 0.908163249
vt 0.0952148438 0.842857122
vt 0.361816406 0.842857122
vt 0.361816406 0.908163249
vt 0.393066406 0.908163249
vt 0.393066406 0.842857122
vt 0.394042969 0.842857122
vt 0.394042969 0.908163249
vt 0.425292969 0.908163249
vt 0.425292969 0.842857122
vt 0.160644531 0.846938789
vt 0.160644531 0.912244916
vt 0.191894531 0.912244916
vt 0.191894531 0.846938789
vt 0.535644531 0.851020396
vt 0.535644531 0.899999976
vt 0.566894531 0.899999976
vt 0.566894531 0.851020396
vt 0.567871094 0.851020396
vt 0.567871094 0.916326523
vt 0.599121094 0.916326523
vt 0.599121094 0.851020396
vt 0.739746094 0.851020396
vt 0.739746094 0.916326523
vt 0.770996094 0.916326523
vt 0.770996094 0.851020396
vt 0.710449219 0.797959208
vt 0.710449219 0.928571403
vt 0.726074219 0.928571403
vt 0.726074219 0.797959208
vt 0.865722656 0.851020396
vt 0.865722656 0.916326523
vt 0.896972656 0.916326523
vt 0.896972656 0.851020396
vt 0.456542969 0.855102062
vt 0.456542969 0.920408189
vt 0.487792969 0.920408189
vt 0.487792969 0.855102062
vt 0.426269531 0.842857122
vt 0.426269531 0.973469377
vt 0.441894531 0.973469377
vt 0.441894531 0.842857122
vt 0.771972656 0.851020396
vt 0.771972656 0.98163265
vt 0.787597656 0.98163265
vt 0.787597656 0.851020396
vt 0.897949219 0.851020396
vt 0.897949219 0.98163265
vt 0.913574219 0.98163265
vt 0.913574219 0.851020396
vt 0.929199219 0.855102062
vt 0.929199219 0.920408189
vt 0.960449219 0.920408189
vt 0.960449219 0.855102062
vt 0.0961914062 0.859183669
vt 0.0961914062 0.924489796
vt 0.127441406 0.924489796
vt 0.127441406 0.859183669
vt 0.128417969 0.859183669
vt 0.128417969 0.924489796
vt 0.159667969 0.924489796
vt 0.159667969 0.859183669
vt 0.00048828125 0.863265276
vt 0.00048828125 0.928571403
vt 0.0317382812 0.928571403
vt 0.0317382812 0.863265276
vt 0.208496094 0.863265276
vt 0.208496094 0.928571403
vt 0.239746094 0.928571403
vt 0.239746094 0.863265276
vt 0.256347656 0.863265276
vt 0.256347656 0.928571403
vt 0.287597656 0.928571403
vt 0.287597656 0.863265276
vt 0.288574219 0.863265276
vt 0.288574219 0.928571403
vt 0.319824219 0.928571403
vt 0.319824219 0.863265276
vt 0.0327148438 0.863265276
vt 0.0327148438 0.99387753
vt 0.0483398438 0.99387753
vt 0.0483398438 0.863265276
vt 0.320800781 0.863265276
vt 0.320800781 0.928571403
vt 0.352050781 0.928571403
vt 0.352050781 0.863265276
vt 0.613769531 0.863265276
vt 0.613769531 0.99387753
vt 0.629394531 0.99387753
vt 0.629394531 0.863265276
vt 0.630371094 0.863265276
vt 0.630371094 0.928571403
vt 0.645996094 0.928571403
vt 0.645996094 0.863265276
vt 0.646972656 0.863265276
vt 0.646972656 0.928571403
vt 0.662597656 0.928571403
vt 0.662597656 0.863265276
vt 0.663574219 0.863265276
vt 0.663574219 0.928571403
vt 0.679199219 0.928571403
vt 0.679199219 0.863265276
vt 0.680175781 0.863265276
vt 0.680175781 0.928571403
vt 0.695800781 0.928571403
vt 0.695800781 0.863265276
vt 0.803222656 0.867346942
vt 0.803222656 0.932653069
vt 0.818847656 0.932653069
vt 0.818847656 0.867346942
vt 0.819824219 0.867346942
vt 0.819824219 0.932653069
vt 0.835449219 0.932653069
vt 0.835449219 0.867346942
vt 0.836425781 0.867346942
vt 0.836425781 0.932653069
vt 0.852050781 0.932653069
vt 0.852050781 0.867346942
vt 0.535644531 0.904081643
vt 0.535644531 0.96938777
vt 0.551269531 0.96938777
vt 0.551269531 0.904081643
vt 0.0639648438 0.912244916
vt 0.0639648438 0.961224496
vt 0.0795898438 0.961224496
vt 0.0795898438 0.912244916
vt 0.361816406 0.912244916
vt 0.361816406 0.977551043
vt 0.377441406 0.977551043
vt 0.377441406 0.912244916
vt 0.378417969 0.912244916
vt 0.378417969 0.977551043
vt 0.394042969 0.977551043
vt 0.394042969 0.912244916
vt 0.395019531 0.912244916
vt 0.395019531 0.961224496
vt 0.410644531 0.961224496
vt 0.410644531 0.912244916
vt 0.160644531 0.916326523
vt 0.160644531 0.98163265
vt 0.176269531 0.98163265
vt 0.176269531 0.916326523
vt 0.177246094 0.916326523
vt 0.177246094 0.98163265
vt 0.192871094 0.98163265
vt 0.192871094 0.916326523
vt 0.504394531 0.920408189
vt 0.504394531 0.96938777
vt 0.520019531 0.96938777
vt 0.520019531 0.920408189
vt 0.567871094 0.920408189
vt 0.567871094 0.985714257
vt 0.583496094 0.985714257
vt 0.583496094 0.920408189
vt 0.584472656 0.920408189
vt 0.584472656 0.985714257
vt 0.600097656 0.985714257
vt 0.600097656 0.920408189
vt 0.739746094 0.920408189
vt 0.739746094 0.985714257
vt 0.755371094 0.985714257
vt 0.755371094 0.920408189
vt 0.865722656 0.920408189
vt 0.865722656 0.985714257
vt 0.881347656 0.985714257
vt 0.881347656 0.920408189
vt 0.977050781 0.920408189
vt 0.977050781 0.985714257
vt 0.992675781 0.985714257
vt 0.992675781 0.920408189
vt 0.456542969 0.924489796
vt 0.456542969 0.989795923
vt 0.472167969 0.989795923
vt 0.472167969 0.924489796
vt 0.473144531 0.924489796
vt 0.473144531 0.989795923
vt 0.488769531 0.989795923
vt 0.488769531 0.924489796
vt 0.929199219 0.924489796
vt 0.929199219 0.989795923
vt 0.944824219 0.989795923
vt 0.944824219 0.924489796
vt 0.945800781 0.924489796
vt 0.945800781 0.989795923
vt 0.961425781 0.989795923
vt 0.961425781 0.924489796
vt 0.0961914062 0.928571403
vt 0.0961914062 0.99387753
vt 0.111816406 0.99387753
vt 0.111816406 0.928571403
vt 0.112792969 0.928571403
vt 0.112792969 0.99387753
vt 0.128417969 0.99387753
vt 0.128417969 0.928571403
vt 0.129394531 0.928571403
vt 0.129394531 0.99387753
vt 0.145019531 0.99387753
vt 0.145019531 0.928571403
vt 0.00048828125 0.932653069
vt 0.00048828125 0.997959197
vt 0.0161132812 0.997959197
vt 0.0161132812 0.932653069
vt 0.208496094 0.932653069
vt 0.208496094 0.997959197
vt 0.224121094 0.997959197
vt 0.224121094 0.932653069
vt 0.225097656 0.932653069
vt 0.225097656 0.997959197
vt 0.240722656 0.997959197
vt 0.240722656 0.932653069
g baiyanjuren_4_bj-mesh_0
f 3/3/3 2/2/2 1/1/1
f 1/1/1 4/4/4 3/3/3
f 7/7/7 6/6/6 5/5/5
f 5/5/5 8/8/8 7/7/7
f 11/11/11 10/10/10 9/9/9
f 9/9/9 12/12/12 11/11/11
f 15/15/15 14/14/14 13/13/13
f 13/13/13 16/16/16 15/15/15
f 19/19/19 18/18/18 17/17/17
f 17/17/17 20/20/20 19/19/19
f 23/23/23 22/22/22 21/21/21
f 21/21/21 24/24/24 23/23/23
f 27/27/27 26/26/26 25/25/25
f 25/25/25 28/28/28 27/27/27
f 31/31/31 30/30/30 29/29/29
f 29/29/29 32/32/32 31/31/31
f 35/35/35 34/34/34 33/33/33
f 33/33/33 36/36/36 35/35/35
f 39/39/39 38/38/38 37/37/37
f 37/37/37 40/40/40 39/39/39
f 43/43/43 42/42/42 41/41/41
f 41/41/41 44/44/44 43/43/43
f 47/47/47 46/46/46 45/45/45
f 45/45/45 48/48/48 47/47/47
f 51/51/51 50/50/50 49/49/49
f 49/49/49 52/52/52 51/51/51
f 55/55/55 54/54/54 53/53/53
f 53/53/53 56/56/56 55/55/55
f 59/59/59 58/58/58 57/57/57
f 57/57/57 60/60/60 59/59/59
f 63/63/63 62/62/62 61/61/61
f 61/61/61 64/64/64 63/63/63
f 67/67/67 66/66/66 65/65/65
f 65/65/65 68/68/68 67/67/67
f 71/71/71 70/70/70 69/69/69
f 69/69/69 72/72/72 71/71/71
f 75/75/75 74/74/74 73/73/73
f 73/73/73 76/76/76 75/75/75
f 79/79/79 78/78/78 77/77/77
f 77/77/77 80/80/80 79/79/79
f 83/83/83 82/82/82 81/81/81
f 81/81/81 84/84/84 83/83/83
f 87/87/87 86/86/86 85/85/85
f 85/85/85 88/88/88 87/87/87
f 91/91/91 90/90/90 89/89/89
f 89/89/89 92/92/92 91/91/91
f 95/95/95 94/94/94 93/93/93
f 93/93/93 96/96/96 95/95/95
f 99/99/99 98/98/98 97/97/97
f 97/97/97 100/100/100 99/99/99
f 103/103/103 102/102/102 101/101/101
f 101/101/101 104/104/104 103/103/103
f 107/107/107 106/106/106 105/105/105
f 105/105/105 108/108/108 107/107/107
f 111/111/111 110/110/110 109/109/109
f 109/109/109 112/112/112 111/111/111
f 115/115/115 114/114/114 113/113/113
f 113/113/113 116/116/116 115/115/115
f 119/119/119 118/118/118 117/117/117
f 117/117/117 120/120/120 119/119/119
f 123/123/123 122/122/122 121/121/121
f 121/121/121 124/124/124 123/123/123
f 127/127/127 126/126/126 125/125/125
f 125/125/125 128/128/128 127/127/127
f 131/131/131 130/130/130 129/129/129
f 129/129/129 132/132/132 131/131/131
f 135/135/135 134/134/134 133/133/133
f 133/133/133 136/136/136 135/135/135
f 139/139/139 138/138/138 137/137/137
f 137/137/137 140/140/140 139/139/139
f 143/143/143 142/142/142 141/141/141
f 141/141/141 144/144/144 143/143/143
f 147/147/147 146/146/146 145/145/145
f 145/145/145 148/148/148 147/147/147
f 151/151/151 150/150/150 149/149/149
f 149/149/149 152/152/152 151/151/151
f 155/155/155 154/154/154 153/153/153
f 153/153/153 156/156/156 155/155/155
f 159/159/159 158/158/158 157/157/157
f 157/157/157 160/160/160 159/159/159
f 163/163/163 162/162/162 161/161/161
f 161/161/161 164/164/164 163/163/163
f 167/167/167 166/166/166 165/165/165
f 165/165/165 168/168/168 167/167/167
f 171/171/171 170/170/170 169/169/169
f 169/169/169 172/172/172 171/171/171
f 175/175/175 174/174/174 173/173/173
f 173/173/173 176/176/176 175/175/175
f 179/179/179 178/178/178 177/177/177
f 177/177/177 180/180/180 179/179/179
f 183/183/183 182/182/182 181/181/181
f 181/181/181 184/184/184 183/183/183
f 187/187/187 186/186/186 185/185/185
f 185/185/185 188/188/188 187/187/187
f 191/191/191 190/190/190 189/189/189
f 189/189/189 192/192/192 191/191/191
f 195/195/195 194/194/194 193/193/193
f 193/193/193 196/196/196 195/195/195
f 199/199/199 198/198/198 197/197/197
f 197/197/197 200/200/200 199/199/199
f 203/203/203 202/202/202 201/201/201
f 201/201/201 204/204/204 203/203/203
f 207/207/207 206/206/206 205/205/205
f 205/205/205 208/208/208 207/207/207
f 211/211/211 210/210/210 209/209/209
f 209/209/209 212/212/212 211/211/211
f 215/215/215 214/214/214 213/213/213
f 213/213/213 216/216/216 215/215/215
f 219/219/219 218/218/218 217/217/217
f 217/217/217 220/220/220 219/219/219
f 223/223/223 222/222/222 221/221/221
f 221/221/221 224/224/224 223/223/223
f 227/227/227 226/226/226 225/225/225
f 225/225/225 228/228/228 227/227/227
f 231/231/231 230/230/230 229/229/229
f 229/229/229 232/232/232 231/231/231
f 235/235/235 234/234/234 233/233/233
f 233/233/233 236/236/236 235/235/235
f 239/239/239 238/238/238 237/237/237
f 237/237/237 240/240/240 239/239/239
f 243/243/243 242/242/242 241/241/241
f 241/241/241 244/244/244 243/243/243
f 247/247/247 246/246/246 245/245/245
f 245/245/245 248/248/248 247/247/247
f 251/251/251 250/250/250 249/249/249
f 249/249/249 252/252/252 251/251/251
f 255/255/255 254/254/254 253/253/253
f 253/253/253 256/256/256 255/255/255
f 259/259/259 258/258/258 257/257/257
f 257/257/257 260/260/260 259/259/259
f 263/263/263 262/262/262 261/261/261
f 261/261/261 264/264/264 263/263/263
f 267/267/267 266/266/266 265/265/265
f 265/265/265 268/268/268 267/267/267
f 271/271/271 270/270/270 269/269/269
f 269/269/269 272/272/272 271/271/271
f 275/275/275 274/274/274 273/273/273
f 273/273/273 276/276/276 275/275/275
f 279/279/279 278/278/278 277/277/277
f 277/277/277 280/280/280 279/279/279
f 283/283/283 282/282/282 281/281/281
f 281/281/281 284/284/284 283/283/283
f 287/287/287 286/286/286 285/285/285
f 285/285/285 288/288/288 287/287/287
f 291/291/291 290/290/290 289/289/289
f 289/289/289 292/292/292 291/291/291
f 295/295/295 294/294/294 293/293/293
f 293/293/293 296/296/296 295/295/295
f 299/299/299 298/298/298 297/297/297
f 297/297/297 300/300/300 299/299/299
f 303/303/303 302/302/302 301/301/301
f 301/301/301 304/304/304 303/303/303
f 307/307/307 306/306/306 305/305/305
f 305/305/305 308/308/308 307/307/307
f 311/311/311 310/310/310 309/309/309
f 309/309/309 312/312/312 311/311/311
f 315/315/315 314/314/314 313/313/313
f 313/313/313 316/316/316 315/315/315
f 319/319/319 318/318/318 317/317/317
f 317/317/317 320/320/320 319/319/319
f 323/323/323 322/322/322 321/321/321
f 321/321/321 324/324/324 323/323/323
f 327/327/327 326/326/326 325/325/325
f 325/325/325 328/328/328 327/327/327
f 331/331/331 330/330/330 329/329/329
f 329/329/329 332/332/332 331/331/331
f 335/335/335 334/334/334 333/333/333
f 333/333/333 336/336/336 335/335/335
f 339/339/339 338/338/338 337/337/337
f 337/337/337 340/340/340 339/339/339
f 343/343/343 342/342/342 341/341/341
f 341/341/341 344/344/344 343/343/343
f 347/347/347 346/346/346 345/345/345
f 345/345/345 348/348/348 347/347/347
f 351/351/351 350/350/350 349/349/349
f 349/349/349 352/352/352 351/351/351
f 355/355/355 354/354/354 353/353/353
f 353/353/353 356/356/356 355/355/355
f 359/359/359 358/358/358 357/357/357
f 357/357/357 360/360/360 359/359/359
f 363/363/363 362/362/362 361/361/361
f 361/361/361 364/364/364 363/363/363
f 367/367/367 366/366/366 365/365/365
f 365/365/365 368/368/368 367/367/367
f 371/371/371 370/370/370 369/369/369
f 369/369/369 372/372/372 371/371/371
f 375/375/375 374/374/374 373/373/373
f 373/373/373 376/376/376 375/375/375
f 379/379/379 378/378/378 377/377/377
f 377/377/377 380/380/380 379/379/379
f 383/383/383 382/382/382 381/381/381
f 381/381/381 384/384/384 383/383/383
f 387/387/387 386/386/386 385/385/385
f 385/385/385 388/388/388 387/387/387
f 391/391/391 390/390/390 389/389/389
f 389/389/389 392/392/392 391/391/391
f 395/395/395 394/394/394 393/393/393
f 393/393/393 396/396/396 395/395/395
f 399/399/399 398/398/398 397/397/397
f 397/397/397 400/400/400 399/399/399
f 403/403/403 402/402/402 401/401/401
f 401/401/401 404/404/404 403/403/403
f 407/407/407 406/406/406 405/405/405
f 405/405/405 408/408/408 407/407/407
f 411/411/411 410/410/410 409/409/409
f 409/409/409 412/412/412 411/411/411
f 415/415/415 414/414/414 413/413/413
f 413/413/413 416/416/416 415/415/415
f 419/419/419 418/418/418 417/417/417
f 417/417/417 420/420/420 419/419/419
f 423/423/423 422/422/422 421/421/421
f 421/421/421 424/424/424 423/423/423
