g shuixingjinian_6_rw-mesh
v -704 639 0
v -704 1311 0
v -1376 1311 0
v -1376 639 0
v -928 223 0
v -928 639 0
v -1312 639 0
v -1312 223 0
v -512 1407 0
v -512 2047 0
v -704 2047 0
v -704 1407 0
v -512 799 0
v -512 1407 0
v -704 1407 0
v -704 799 0
v -1152 1567 0
v -1152 1855 0
v -1440 1855 0
v -1440 1567 0
v -1152 1311 0
v -1152 1567 0
v -1440 1567 0
v -1440 1311 0
v -352 1439 0
v -352 1791 0
v -512 1791 0
v -512 1439 0
v -352 1119 0
v -352 1439 0
v -512 1439 0
v -512 1119 0
v -704 1311 0
v -704 1503 0
v -960 1503 0
v -960 1311 0
v -224 1119 0
v -224 1407 0
v -352 1407 0
v -352 1119 0
v -224 863 0
v -224 1119 0
v -352 1119 0
v -352 863 0
v -1312 1855 0
v -1312 1983 0
v -1536 1983 0
v -1536 1855 0
v -1120 63 0
v -1120 223 0
v -1280 223 0
v -1280 63 0
v -480 415 0
v -480 671 0
v -576 671 0
v -576 415 0
v -480 159 0
v -480 415 0
v -576 415 0
v -576 159 0
v -32 959 0
v -32 1087 0
v -224 1087 0
v -224 959 0
v -544 671 0
v -544 799 0
v -672 799 0
v -672 671 0
v -704 1503 0
v -704 1759 0
v -768 1759 0
v -768 1503 0
v -704 1759 0
v -704 2015 0
v -768 2015 0
v -768 1759 0
v -416 895 0
v -416 1055 0
v -512 1055 0
v -512 895 0
v -1376 863 0
v -1376 1087 0
v -1440 1087 0
v -1440 863 0
v -1376 1087 0
v -1376 1311 0
v -1440 1311 0
v -1440 1087 0
v -256 1599 0
v -256 1727 0
v -352 1727 0
v -352 1599 0
v -416 767 0
v -416 895 0
v -512 895 0
v -512 767 0
v -256 1471 0
v -256 1599 0
v -352 1599 0
v -352 1471 0
v -1472 287 0
v -1472 447 0
v -1536 447 0
v -1536 287 0
v -1472 447 0
v -1472 607 0
v -1536 607 0
v -1536 447 0
v -1024 127 0
v -1024 223 0
v -1120 223 0
v -1120 127 0
v -448 1791 0
v -448 1919 0
v -512 1919 0
v -512 1791 0
v -1504 159 0
v -1504 287 0
v -1568 287 0
v -1568 159 0
v -544 95 0
v -544 159 0
v -672 159 0
v -672 95 0
v -1440 1343 0
v -1440 1599 0
v -1472 1599 0
v -1472 1343 0
v -1440 831 0
v -1440 1087 0
v -1472 1087 0
v -1472 831 0
v -1440 575 0
v -1440 831 0
v -1472 831 0
v -1472 575 0
v -1440 1599 0
v -1440 1855 0
v -1472 1855 0
v -1472 1599 0
v -1248 1855 0
v -1248 1951 0
v -1312 1951 0
v -1312 1855 0
v -128 1087 0
v -128 1151 0
v -224 1151 0
v -224 1087 0
v -1344 159 0
v -1344 223 0
v -1440 223 0
v -1440 159 0
v -1184 0 0
v -1184 63 0
v -1280 63 0
v -1280 0 0
v -768 575 0
v -768 639 0
v -864 639 0
v -864 575 0
v -1088 1407 0
v -1088 1503 0
v -1152 1503 0
v -1152 1407 0
v -352 831 0
v -352 927 0
v -416 927 0
v -416 831 0
v -768 1759 0
v -768 1855 0
v -832 1855 0
v -832 1759 0
v -1504 63 0
v -1504 159 0
v -1568 159 0
v -1568 63 0
v -768 1855 0
v -768 1951 0
v -832 1951 0
v -832 1855 0
v -352 735 0
v -352 831 0
v -416 831 0
v -416 735 0
v -1088 1311 0
v -1088 1407 0
v -1152 1407 0
v -1152 1311 0
v -1472 1695 0
v -1472 1855 0
v -1504 1855 0
v -1504 1695 0
v -576 511 0
v -576 671 0
v -608 671 0
v -608 511 0
v -800 1503 0
v -800 1567 0
v -864 1567 0
v -864 1503 0
v -448 1055 0
v -448 1119 0
v -512 1119 0
v -512 1055 0
v -256 1407 0
v -256 1471 0
v -320 1471 0
v -320 1407 0
v -192 1599 0
v -192 1663 0
v -256 1663 0
v -256 1599 0
v -352 1055 0
v -352 1119 0
v -416 1119 0
v -416 1055 0
v -576 383 0
v -576 511 0
v -608 511 0
v -608 383 0
v -1472 735 0
v -1472 863 0
v -1504 863 0
v -1504 735 0
v -864 575 0
v -864 639 0
v -928 639 0
v -928 575 0
v -1472 1567 0
v -1472 1695 0
v -1504 1695 0
v -1504 1567 0
v -1472 607 0
v -1472 735 0
v -1504 735 0
v -1504 607 0
v -896 319 0
v -896 447 0
v -928 447 0
v -928 319 0
v -288 799 0
v -288 863 0
v -352 863 0
v -352 799 0
v -1312 511 0
v -1312 639 0
v -1344 639 0
v -1344 511 0
v -1312 383 0
v -1312 511 0
v -1344 511 0
v -1344 383 0
v -448 223 0
v -448 319 0
v -480 319 0
v -480 223 0
v -896 223 0
v -896 319 0
v -928 319 0
v -928 223 0
v -1376 1983 0
v -1376 2015 0
v -1472 2015 0
v -1472 1983 0
v -768 1503 0
v -768 1599 0
v -800 1599 0
v -800 1503 0
v -768 1599 0
v -768 1695 0
v -800 1695 0
v -800 1599 0
v -1120 1567 0
v -1120 1663 0
v -1152 1663 0
v -1152 1567 0
v -192 895 0
v -192 959 0
v -224 959 0
v -224 895 0
v -96 927 0
v -96 959 0
v -160 959 0
v -160 927 0
v -672 735 0
v -672 799 0
v -704 799 0
v -704 735 0
v -192 1151 0
v -192 1215 0
v -224 1215 0
v -224 1151 0
v -960 1343 0
v -960 1375 0
v -1024 1375 0
v -1024 1343 0
v -960 1407 0
v -960 1471 0
v -992 1471 0
v -992 1407 0
v -992 1311 0
v -992 1343 0
v -1056 1343 0
v -1056 1311 0
v -224 1535 0
v -224 1599 0
v -256 1599 0
v -256 1535 0
v -416 735 0
v -416 767 0
v -480 767 0
v -480 735 0
v -960 191 0
v -960 223 0
v -1024 223 0
v -1024 191 0
v -576 159 0
v -576 223 0
v -608 223 0
v -608 159 0
v -1440 95 0
v -1440 127 0
v -1504 127 0
v -1504 95 0
v -1280 159 0
v -1280 223 0
v -1312 223 0
v -1312 159 0
v -832 543 0
v -832 575 0
v -896 575 0
v -896 543 0
v -512 671 0
v -512 735 0
v -544 735 0
v -544 671 0
v -416 191 0
v -416 255 0
v -448 255 0
v -448 191 0
v -1536 287 0
v -1536 351 0
v -1568 351 0
v -1568 287 0
v -1504 1791 0
v -1504 1855 0
v -1536 1855 0
v -1536 1791 0
v -608 607 0
v -608 671 0
v -640 671 0
v -640 607 0
v -0 927 0
v -0 991 0
v -32 991 0
v -32 927 0
v -1376 127 0
v -1376 159 0
v -1440 159 0
v -1440 127 0
v -608 543 0
v -608 607 0
v -640 607 0
v -640 543 0
v -448 159 0
v -448 223 0
v -480 223 0
v -480 159 0
v -1120 1503 0
v -1120 1567 0
v -1152 1567 0
v -1152 1503 0
v -0 991 0
v -0 1055 0
v -32 1055 0
v -32 991 0
v -1472 1983 0
v -1472 2015 0
v -1536 2015 0
v -1536 1983 0
v -1440 127 0
v -1440 159 0
v -1504 159 0
v -1504 127 0
v -480 1919 0
v -480 1983 0
v -512 1983 0
v -512 1919 0
v -768 1951 0
v -768 2015 0
v -800 2015 0
v -800 1951 0
v -1216 1855 0
v -1216 1919 0
v -1248 1919 0
v -1248 1855 0
v -416 1855 0
v -416 1919 0
v -448 1919 0
v -448 1855 0
v -1312 223 0
v -1312 287 0
v -1344 287 0
v -1344 223 0
v -320 1759 0
v -320 1823 0
v -352 1823 0
v -352 1759 0
v -320 767 0
v -320 799 0
v -352 799 0
v -352 767 0
v -736 607 0
v -736 639 0
v -768 639 0
v -768 607 0
v -1344 223 0
v -1344 255 0
v -1376 255 0
v -1376 223 0
v -352 927 0
v -352 959 0
v -384 959 0
v -384 927 0
v -256 831 0
v -256 863 0
v -288 863 0
v -288 831 0
v -1408 831 0
v -1408 863 0
v -1440 863 0
v -1440 831 0
v -608 159 0
v -608 191 0
v -640 191 0
v -640 159 0
v -1088 95 0
v -1088 127 0
v -1120 127 0
v -1120 95 0
v -1152 31 0
v -1152 63 0
v -1184 63 0
v -1184 31 0
v -1472 63 0
v -1472 95 0
v -1504 95 0
v -1504 63 0
v -992 159 0
v -992 191 0
v -1024 191 0
v -1024 159 0
v -1440 159 0
v -1440 191 0
v -1472 191 0
v -1472 159 0
v -512 127 0
v -512 159 0
v -544 159 0
v -544 127 0
v -32 927 0
v -32 959 0
v -64 959 0
v -64 927 0
v -1472 2015 0
v -1472 2047 0
v -1504 2047 0
v -1504 2015 0
v -1184 1855 0
v -1184 1887 0
v -1216 1887 0
v -1216 1855 0
v -352 1791 0
v -352 1823 0
v -384 1823 0
v -384 1791 0
v -1312 191 0
v -1312 223 0
v -1344 223 0
v -1344 191 0
v -320 1727 0
v -320 1759 0
v -352 1759 0
v -352 1727 0
v -704 2015 0
v -704 2047 0
v -736 2047 0
v -736 2015 0
v -416 1791 0
v -416 1823 0
v -448 1823 0
v -448 1791 0
v -320 1407 0
v -320 1439 0
v -352 1439 0
v -352 1407 0
v -96 1087 0
v -96 1119 0
v -128 1119 0
v -128 1087 0
v -352 1023 0
v -352 1055 0
v -384 1055 0
v -384 1023 0
v -64 1727 0
v -64 1759 0
v -96 1759 0
v -96 1727 0
v -288 1727 0
v -288 1759 0
v -320 1759 0
v -320 1727 0
v -800 1567 0
v -800 1599 0
v -832 1599 0
v -832 1567 0
vt 0.00048828125 0.000967144966
vt 0.00048828125 0.650870442
vt 0.328613281 0.650870442
vt 0.328613281 0.000967144966
vt 0.329589844 0.000967144966
vt 0.329589844 0.403288186
vt 0.517089844 0.403288186
vt 0.517089844 0.000967144966
vt 0.518066406 0.000967144966
vt 0.518066406 0.619922638
vt 0.611816406 0.619922638
vt 0.611816406 0.000967144966
vt 0.612792969 0.000967144966
vt 0.612792969 0.588974833
vt 0.706542969 0.588974833
vt 0.706542969 0.000967144966
vt 0.707519531 0.000967144966
vt 0.707519531 0.279497087
vt 0.848144531 0.279497087
vt 0.848144531 0.000967144966
vt 0.849121094 0.000967144966
vt 0.849121094 0.248549342
vt 0.989746094 0.248549342
vt 0.989746094 0.000967144966
vt 0.849121094 0.250483572
vt 0.849121094 0.590909123
vt 0.927246094 0.590909123
vt 0.927246094 0.250483572
vt 0.707519531 0.281431317
vt 0.707519531 0.590909123
vt 0.785644531 0.590909123
vt 0.785644531 0.281431317
vt 0.329589844 0.405222416
vt 0.329589844 0.590909123
vt 0.454589844 0.590909123
vt 0.454589844 0.405222416
vt 0.928222656 0.250483572
vt 0.928222656 0.529013515
vt 0.990722656 0.529013515
vt 0.990722656 0.250483572
vt 0.928222656 0.530947804
vt 0.928222656 0.778530002
vt 0.990722656 0.778530002
vt 0.990722656 0.530947804
vt 0.329589844 0.592843294
vt 0.329589844 0.716634393
vt 0.438964844 0.716634393
vt 0.438964844 0.592843294
vt 0.612792969 0.590909123
vt 0.612792969 0.745647967
vt 0.690917969 0.745647967
vt 0.690917969 0.590909123
vt 0.786621094 0.281431317
vt 0.786621094 0.529013515
vt 0.833496094 0.529013515
vt 0.833496094 0.281431317
vt 0.455566406 0.405222416
vt 0.455566406 0.652804613
vt 0.502441406 0.652804613
vt 0.502441406 0.405222416
vt 0.707519531 0.592843294
vt 0.707519531 0.716634393
vt 0.801269531 0.716634393
vt 0.801269531 0.592843294
vt 0.849121094 0.592843294
vt 0.849121094 0.716634393
vt 0.911621094 0.716634393
vt 0.911621094 0.592843294
vt 0.802246094 0.530947804
vt 0.802246094 0.778530002
vt 0.833496094 0.778530002
vt 0.833496094 0.530947804
vt 0.518066406 0.621856868
vt 0.518066406 0.869439065
vt 0.549316406 0.869439065
vt 0.549316406 0.621856868
vt 0.550292969 0.621856868
vt 0.550292969 0.776595712
vt 0.597167969 0.776595712
vt 0.597167969 0.621856868
vt 0.00048828125 0.652804613
vt 0.00048828125 0.869439065
vt 0.0317382812 0.869439065
vt 0.0317382812 0.652804613
vt 0.0327148438 0.652804613
vt 0.0327148438 0.869439065
vt 0.0639648438 0.869439065
vt 0.0639648438 0.652804613
vt 0.0649414062 0.652804613
vt 0.0649414062 0.776595712
vt 0.111816406 0.776595712
vt 0.111816406 0.652804613
vt 0.112792969 0.652804613
vt 0.112792969 0.776595712
vt 0.159667969 0.776595712
vt 0.159667969 0.652804613
vt 0.160644531 0.652804613
vt 0.160644531 0.776595712
vt 0.207519531 0.776595712
vt 0.207519531 0.652804613
vt 0.208496094 0.652804613
vt 0.208496094 0.807543516
vt 0.239746094 0.807543516
vt 0.239746094 0.652804613
vt 0.240722656 0.652804613
vt 0.240722656 0.807543516
vt 0.271972656 0.807543516
vt 0.271972656 0.652804613
vt 0.272949219 0.652804613
vt 0.272949219 0.745647967
vt 0.319824219 0.745647967
vt 0.319824219 0.652804613
vt 0.455566406 0.654738903
vt 0.455566406 0.778530002
vt 0.486816406 0.778530002
vt 0.486816406 0.654738903
vt 0.329589844 0.718568683
vt 0.329589844 0.842359781
vt 0.360839844 0.842359781
vt 0.360839844 0.718568683
vt 0.361816406 0.718568683
vt 0.361816406 0.780464232
vt 0.424316406 0.780464232
vt 0.424316406 0.718568683
vt 0.487792969 0.654738903
vt 0.487792969 0.9023211
vt 0.503417969 0.9023211
vt 0.503417969 0.654738903
vt 0.425292969 0.718568683
vt 0.425292969 0.96615088
vt 0.440917969 0.96615088
vt 0.440917969 0.718568683
vt 0.707519531 0.718568683
vt 0.707519531 0.96615088
vt 0.723144531 0.96615088
vt 0.723144531 0.718568683
vt 0.724121094 0.718568683
vt 0.724121094 0.96615088
vt 0.739746094 0.96615088
vt 0.739746094 0.718568683
vt 0.740722656 0.718568683
vt 0.740722656 0.811411977
vt 0.771972656 0.811411977
vt 0.771972656 0.718568683
vt 0.849121094 0.718568683
vt 0.849121094 0.780464232
vt 0.895996094 0.780464232
vt 0.895996094 0.718568683
vt 0.272949219 0.747582197
vt 0.272949219 0.809477746
vt 0.319824219 0.809477746
vt 0.319824219 0.747582197
vt 0.612792969 0.747582197
vt 0.612792969 0.809477746
vt 0.659667969 0.809477746
vt 0.659667969 0.747582197
vt 0.0649414062 0.778530002
vt 0.0649414062 0.840425551
vt 0.111816406 0.840425551
vt 0.111816406 0.778530002
vt 0.660644531 0.747582197
vt 0.660644531 0.840425551
vt 0.691894531 0.840425551
vt 0.691894531 0.747582197
vt 0.112792969 0.778530002
vt 0.112792969 0.871373296
vt 0.144042969 0.871373296
vt 0.144042969 0.778530002
vt 0.145019531 0.778530002
vt 0.145019531 0.871373296
vt 0.176269531 0.871373296
vt 0.176269531 0.778530002
vt 0.550292969 0.778530002
vt 0.550292969 0.871373296
vt 0.581542969 0.871373296
vt 0.581542969 0.778530002
vt 0.455566406 0.780464232
vt 0.455566406 0.873307526
vt 0.486816406 0.873307526
vt 0.486816406 0.780464232
vt 0.802246094 0.780464232
vt 0.802246094 0.873307526
vt 0.833496094 0.873307526
vt 0.833496094 0.780464232
vt 0.928222656 0.780464232
vt 0.928222656 0.873307526
vt 0.959472656 0.873307526
vt 0.959472656 0.780464232
vt 0.772949219 0.718568683
vt 0.772949219 0.873307526
vt 0.788574219 0.873307526
vt 0.788574219 0.718568683
vt 0.896972656 0.718568683
vt 0.896972656 0.873307526
vt 0.912597656 0.873307526
vt 0.912597656 0.718568683
vt 0.960449219 0.780464232
vt 0.960449219 0.842359781
vt 0.991699219 0.842359781
vt 0.991699219 0.780464232
vt 0.361816406 0.782398462
vt 0.361816406 0.844294012
vt 0.393066406 0.844294012
vt 0.393066406 0.782398462
vt 0.849121094 0.782398462
vt 0.849121094 0.844294012
vt 0.880371094 0.844294012
vt 0.880371094 0.782398462
vt 0.208496094 0.809477746
vt 0.208496094 0.871373296
vt 0.239746094 0.871373296
vt 0.239746094 0.809477746
vt 0.240722656 0.809477746
vt 0.240722656 0.871373296
vt 0.271972656 0.871373296
vt 0.271972656 0.809477746
vt 0.177246094 0.778530002
vt 0.177246094 0.9023211
vt 0.192871094 0.9023211
vt 0.192871094 0.778530002
vt 0.582519531 0.778530002
vt 0.582519531 0.9023211
vt 0.598144531 0.9023211
vt 0.598144531 0.778530002
vt 0.272949219 0.811411977
vt 0.272949219 0.873307526
vt 0.304199219 0.873307526
vt 0.304199219 0.811411977
vt 0.394042969 0.782398462
vt 0.394042969 0.906189561
vt 0.409667969 0.906189561
vt 0.409667969 0.782398462
vt 0.305175781 0.811411977
vt 0.305175781 0.935203075
vt 0.320800781 0.935203075
vt 0.320800781 0.811411977
vt 0.612792969 0.811411977
vt 0.612792969 0.935203075
vt 0.628417969 0.935203075
vt 0.628417969 0.811411977
vt 0.740722656 0.813346207
vt 0.740722656 0.875241756
vt 0.771972656 0.875241756
vt 0.771972656 0.813346207
vt 0.629394531 0.811411977
vt 0.629394531 0.935203075
vt 0.645019531 0.935203075
vt 0.645019531 0.811411977
vt 0.0649414062 0.842359781
vt 0.0649414062 0.96615088
vt 0.0805664062 0.96615088
vt 0.0805664062 0.842359781
vt 0.0815429688 0.842359781
vt 0.0815429688 0.935203075
vt 0.0971679688 0.935203075
vt 0.0971679688 0.842359781
vt 0.660644531 0.842359781
vt 0.660644531 0.935203075
vt 0.676269531 0.935203075
vt 0.676269531 0.842359781
vt 0.849121094 0.846228242
vt 0.849121094 0.877176046
vt 0.895996094 0.877176046
vt 0.895996094 0.846228242
vt 0.677246094 0.842359781
vt 0.677246094 0.935203075
vt 0.692871094 0.935203075
vt 0.692871094 0.842359781
vt 0.329589844 0.844294012
vt 0.329589844 0.937137306
vt 0.345214844 0.937137306
vt 0.345214844 0.844294012
vt 0.960449219 0.844294012
vt 0.960449219 0.937137306
vt 0.976074219 0.937137306
vt 0.976074219 0.844294012
vt 0.977050781 0.844294012
vt 0.977050781 0.906189561
vt 0.992675781 0.906189561
vt 0.992675781 0.844294012
vt 0.361816406 0.846228242
vt 0.361816406 0.877176046
vt 0.393066406 0.877176046
vt 0.393066406 0.846228242
vt 0.00048828125 0.871373296
vt 0.00048828125 0.933268845
vt 0.0161132812 0.933268845
vt 0.0161132812 0.871373296
vt 0.0170898438 0.871373296
vt 0.0170898438 0.933268845
vt 0.0327148438 0.933268845
vt 0.0327148438 0.871373296
vt 0.518066406 0.871373296
vt 0.518066406 0.9023211
vt 0.549316406 0.9023211
vt 0.549316406 0.871373296
vt 0.0336914062 0.871373296
vt 0.0336914062 0.933268845
vt 0.0493164062 0.933268845
vt 0.0493164062 0.871373296
vt 0.112792969 0.873307526
vt 0.112792969 0.904255331
vt 0.144042969 0.904255331
vt 0.144042969 0.873307526
vt 0.145019531 0.873307526
vt 0.145019531 0.935203075
vt 0.160644531 0.935203075
vt 0.160644531 0.873307526
vt 0.208496094 0.873307526
vt 0.208496094 0.904255331
vt 0.239746094 0.904255331
vt 0.239746094 0.873307526
vt 0.240722656 0.873307526
vt 0.240722656 0.904255331
vt 0.271972656 0.904255331
vt 0.271972656 0.873307526
vt 0.550292969 0.873307526
vt 0.550292969 0.935203075
vt 0.565917969 0.935203075
vt 0.565917969 0.873307526
vt 0.272949219 0.875241756
vt 0.272949219 0.906189561
vt 0.304199219 0.906189561
vt 0.304199219 0.875241756
vt 0.455566406 0.875241756
vt 0.455566406 0.937137306
vt 0.471191406 0.937137306
vt 0.471191406 0.875241756
vt 0.772949219 0.875241756
vt 0.772949219 0.906189561
vt 0.804199219 0.906189561
vt 0.804199219 0.875241756
vt 0.805175781 0.875241756
vt 0.805175781 0.937137306
vt 0.820800781 0.937137306
vt 0.820800781 0.875241756
vt 0.821777344 0.875241756
vt 0.821777344 0.937137306
vt 0.837402344 0.937137306
vt 0.837402344 0.875241756
vt 0.896972656 0.875241756
vt 0.896972656 0.937137306
vt 0.912597656 0.937137306
vt 0.912597656 0.875241756
vt 0.928222656 0.875241756
vt 0.928222656 0.937137306
vt 0.943847656 0.937137306
vt 0.943847656 0.875241756
vt 0.740722656 0.877176046
vt 0.740722656 0.939071536
vt 0.756347656 0.939071536
vt 0.756347656 0.877176046
vt 0.361816406 0.879110277
vt 0.361816406 0.941005826
vt 0.377441406 0.941005826
vt 0.377441406 0.879110277
vt 0.849121094 0.879110277
vt 0.849121094 0.910058022
vt 0.880371094 0.910058022
vt 0.880371094 0.879110277
vt 0.177246094 0.904255331
vt 0.177246094 0.96615088
vt 0.192871094 0.96615088
vt 0.192871094 0.904255331
vt 0.487792969 0.904255331
vt 0.487792969 0.96615088
vt 0.503417969 0.96615088
vt 0.503417969 0.904255331
vt 0.518066406 0.904255331
vt 0.518066406 0.96615088
vt 0.533691406 0.96615088
vt 0.533691406 0.904255331
vt 0.582519531 0.904255331
vt 0.582519531 0.96615088
vt 0.598144531 0.96615088
vt 0.598144531 0.904255331
vt 0.112792969 0.906189561
vt 0.112792969 0.937137306
vt 0.144042969 0.937137306
vt 0.144042969 0.906189561
vt 0.208496094 0.906189561
vt 0.208496094 0.937137306
vt 0.239746094 0.937137306
vt 0.239746094 0.906189561
vt 0.240722656 0.906189561
vt 0.240722656 0.96808511
vt 0.256347656 0.96808511
vt 0.256347656 0.906189561
vt 0.272949219 0.908123791
vt 0.272949219 0.970019341
vt 0.288574219 0.970019341
vt 0.288574219 0.908123791
vt 0.394042969 0.908123791
vt 0.394042969 0.970019341
vt 0.409667969 0.970019341
vt 0.409667969 0.908123791
vt 0.772949219 0.908123791
vt 0.772949219 0.970019341
vt 0.788574219 0.970019341
vt 0.788574219 0.908123791
vt 0.977050781 0.908123791
vt 0.977050781 0.970019341
vt 0.992675781 0.970019341
vt 0.992675781 0.908123791
vt 0.849121094 0.911992252
vt 0.849121094 0.973887801
vt 0.864746094 0.973887801
vt 0.864746094 0.911992252
vt 0.865722656 0.911992252
vt 0.865722656 0.942940056
vt 0.881347656 0.942940056
vt 0.881347656 0.911992252
vt 0.00048828125 0.935203075
vt 0.00048828125 0.96615088
vt 0.0161132812 0.96615088
vt 0.0161132812 0.935203075
vt 0.0170898438 0.935203075
vt 0.0170898438 0.96615088
vt 0.0327148438 0.96615088
vt 0.0327148438 0.935203075
vt 0.0336914062 0.935203075
vt 0.0336914062 0.96615088
vt 0.0493164062 0.96615088
vt 0.0493164062 0.935203075
vt 0.0815429688 0.937137306
vt 0.0815429688 0.96808511
vt 0.0971679688 0.96808511
vt 0.0971679688 0.937137306
vt 0.145019531 0.937137306
vt 0.145019531 0.96808511
vt 0.160644531 0.96808511
vt 0.160644531 0.937137306
vt 0.305175781 0.937137306
vt 0.305175781 0.96808511
vt 0.320800781 0.96808511
vt 0.320800781 0.937137306
vt 0.550292969 0.937137306
vt 0.550292969 0.96808511
vt 0.565917969 0.96808511
vt 0.565917969 0.937137306
vt 0.612792969 0.937137306
vt 0.612792969 0.96808511
vt 0.628417969 0.96808511
vt 0.628417969 0.937137306
vt 0.629394531 0.937137306
vt 0.629394531 0.96808511
vt 0.645019531 0.96808511
vt 0.645019531 0.937137306
vt 0.660644531 0.937137306
vt 0.660644531 0.96808511
vt 0.676269531 0.96808511
vt 0.676269531 0.937137306
vt 0.677246094 0.937137306
vt 0.677246094 0.96808511
vt 0.692871094 0.96808511
vt 0.692871094 0.937137306
vt 0.112792969 0.939071536
vt 0.112792969 0.970019341
vt 0.128417969 0.970019341
vt 0.128417969 0.939071536
vt 0.208496094 0.939071536
vt 0.208496094 0.970019341
vt 0.224121094 0.970019341
vt 0.224121094 0.939071536
vt 0.329589844 0.939071536
vt 0.329589844 0.970019341
vt 0.345214844 0.970019341
vt 0.345214844 0.939071536
vt 0.455566406 0.939071536
vt 0.455566406 0.970019341
vt 0.471191406 0.970019341
vt 0.471191406 0.939071536
vt 0.805175781 0.939071536
vt 0.805175781 0.970019341
vt 0.820800781 0.970019341
vt 0.820800781 0.939071536
vt 0.821777344 0.939071536
vt 0.821777344 0.970019341
vt 0.837402344 0.970019341
vt 0.837402344 0.939071536
vt 0.896972656 0.939071536
vt 0.896972656 0.970019341
vt 0.912597656 0.970019341
vt 0.912597656 0.939071536
vt 0.928222656 0.939071536
vt 0.928222656 0.970019341
vt 0.943847656 0.970019341
vt 0.943847656 0.939071536
vt 0.960449219 0.939071536
vt 0.960449219 0.970019341
vt 0.976074219 0.970019341
vt 0.976074219 0.939071536
vt 0.740722656 0.941005826
vt 0.740722656 0.971953571
vt 0.756347656 0.971953571
vt 0.756347656 0.941005826
vt 0.361816406 0.942940056
vt 0.361816406 0.973887801
vt 0.377441406 0.973887801
vt 0.377441406 0.942940056
vt 0.865722656 0.944874287
vt 0.865722656 0.975822031
vt 0.881347656 0.975822031
vt 0.881347656 0.944874287
vt 0.00048828125 0.96808511
vt 0.00048828125 0.999032855
vt 0.0161132812 0.999032855
vt 0.0161132812 0.96808511
vt 0.0170898438 0.96808511
vt 0.0170898438 0.999032855
vt 0.0327148438 0.999032855
vt 0.0327148438 0.96808511
vt 0.0336914062 0.96808511
vt 0.0336914062 0.999032855
vt 0.0493164062 0.999032855
vt 0.0493164062 0.96808511
g shuixingjinian_6_rw-mesh_0
f 3/3/3 2/2/2 1/1/1
f 1/1/1 4/4/4 3/3/3
f 7/7/7 6/6/6 5/5/5
f 5/5/5 8/8/8 7/7/7
f 11/11/11 10/10/10 9/9/9
f 9/9/9 12/12/12 11/11/11
f 15/15/15 14/14/14 13/13/13
f 13/13/13 16/16/16 15/15/15
f 19/19/19 18/18/18 17/17/17
f 17/17/17 20/20/20 19/19/19
f 23/23/23 22/22/22 21/21/21
f 21/21/21 24/24/24 23/23/23
f 27/27/27 26/26/26 25/25/25
f 25/25/25 28/28/28 27/27/27
f 31/31/31 30/30/30 29/29/29
f 29/29/29 32/32/32 31/31/31
f 35/35/35 34/34/34 33/33/33
f 33/33/33 36/36/36 35/35/35
f 39/39/39 38/38/38 37/37/37
f 37/37/37 40/40/40 39/39/39
f 43/43/43 42/42/42 41/41/41
f 41/41/41 44/44/44 43/43/43
f 47/47/47 46/46/46 45/45/45
f 45/45/45 48/48/48 47/47/47
f 51/51/51 50/50/50 49/49/49
f 49/49/49 52/52/52 51/51/51
f 55/55/55 54/54/54 53/53/53
f 53/53/53 56/56/56 55/55/55
f 59/59/59 58/58/58 57/57/57
f 57/57/57 60/60/60 59/59/59
f 63/63/63 62/62/62 61/61/61
f 61/61/61 64/64/64 63/63/63
f 67/67/67 66/66/66 65/65/65
f 65/65/65 68/68/68 67/67/67
f 71/71/71 70/70/70 69/69/69
f 69/69/69 72/72/72 71/71/71
f 75/75/75 74/74/74 73/73/73
f 73/73/73 76/76/76 75/75/75
f 79/79/79 78/78/78 77/77/77
f 77/77/77 80/80/80 79/79/79
f 83/83/83 82/82/82 81/81/81
f 81/81/81 84/84/84 83/83/83
f 87/87/87 86/86/86 85/85/85
f 85/85/85 88/88/88 87/87/87
f 91/91/91 90/90/90 89/89/89
f 89/89/89 92/92/92 91/91/91
f 95/95/95 94/94/94 93/93/93
f 93/93/93 96/96/96 95/95/95
f 99/99/99 98/98/98 97/97/97
f 97/97/97 100/100/100 99/99/99
f 103/103/103 102/102/102 101/101/101
f 101/101/101 104/104/104 103/103/103
f 107/107/107 106/106/106 105/105/105
f 105/105/105 108/108/108 107/107/107
f 111/111/111 110/110/110 109/109/109
f 109/109/109 112/112/112 111/111/111
f 115/115/115 114/114/114 113/113/113
f 113/113/113 116/116/116 115/115/115
f 119/119/119 118/118/118 117/117/117
f 117/117/117 120/120/120 119/119/119
f 123/123/123 122/122/122 121/121/121
f 121/121/121 124/124/124 123/123/123
f 127/127/127 126/126/126 125/125/125
f 125/125/125 128/128/128 127/127/127
f 131/131/131 130/130/130 129/129/129
f 129/129/129 132/132/132 131/131/131
f 135/135/135 134/134/134 133/133/133
f 133/133/133 136/136/136 135/135/135
f 139/139/139 138/138/138 137/137/137
f 137/137/137 140/140/140 139/139/139
f 143/143/143 142/142/142 141/141/141
f 141/141/141 144/144/144 143/143/143
f 147/147/147 146/146/146 145/145/145
f 145/145/145 148/148/148 147/147/147
f 151/151/151 150/150/150 149/149/149
f 149/149/149 152/152/152 151/151/151
f 155/155/155 154/154/154 153/153/153
f 153/153/153 156/156/156 155/155/155
f 159/159/159 158/158/158 157/157/157
f 157/157/157 160/160/160 159/159/159
f 163/163/163 162/162/162 161/161/161
f 161/161/161 164/164/164 163/163/163
f 167/167/167 166/166/166 165/165/165
f 165/165/165 168/168/168 167/167/167
f 171/171/171 170/170/170 169/169/169
f 169/169/169 172/172/172 171/171/171
f 175/175/175 174/174/174 173/173/173
f 173/173/173 176/176/176 175/175/175
f 179/179/179 178/178/178 177/177/177
f 177/177/177 180/180/180 179/179/179
f 183/183/183 182/182/182 181/181/181
f 181/181/181 184/184/184 183/183/183
f 187/187/187 186/186/186 185/185/185
f 185/185/185 188/188/188 187/187/187
f 191/191/191 190/190/190 189/189/189
f 189/189/189 192/192/192 191/191/191
f 195/195/195 194/194/194 193/193/193
f 193/193/193 196/196/196 195/195/195
f 199/199/199 198/198/198 197/197/197
f 197/197/197 200/200/200 199/199/199
f 203/203/203 202/202/202 201/201/201
f 201/201/201 204/204/204 203/203/203
f 207/207/207 206/206/206 205/205/205
f 205/205/205 208/208/208 207/207/207
f 211/211/211 210/210/210 209/209/209
f 209/209/209 212/212/212 211/211/211
f 215/215/215 214/214/214 213/213/213
f 213/213/213 216/216/216 215/215/215
f 219/219/219 218/218/218 217/217/217
f 217/217/217 220/220/220 219/219/219
f 223/223/223 222/222/222 221/221/221
f 221/221/221 224/224/224 223/223/223
f 227/227/227 226/226/226 225/225/225
f 225/225/225 228/228/228 227/227/227
f 231/231/231 230/230/230 229/229/229
f 229/229/229 232/232/232 231/231/231
f 235/235/235 234/234/234 233/233/233
f 233/233/233 236/236/236 235/235/235
f 239/239/239 238/238/238 237/237/237
f 237/237/237 240/240/240 239/239/239
f 243/243/243 242/242/242 241/241/241
f 241/241/241 244/244/244 243/243/243
f 247/247/247 246/246/246 245/245/245
f 245/245/245 248/248/248 247/247/247
f 251/251/251 250/250/250 249/249/249
f 249/249/249 252/252/252 251/251/251
f 255/255/255 254/254/254 253/253/253
f 253/253/253 256/256/256 255/255/255
f 259/259/259 258/258/258 257/257/257
f 257/257/257 260/260/260 259/259/259
f 263/263/263 262/262/262 261/261/261
f 261/261/261 264/264/264 263/263/263
f 267/267/267 266/266/266 265/265/265
f 265/265/265 268/268/268 267/267/267
f 271/271/271 270/270/270 269/269/269
f 269/269/269 272/272/272 271/271/271
f 275/275/275 274/274/274 273/273/273
f 273/273/273 276/276/276 275/275/275
f 279/279/279 278/278/278 277/277/277
f 277/277/277 280/280/280 279/279/279
f 283/283/283 282/282/282 281/281/281
f 281/281/281 284/284/284 283/283/283
f 287/287/287 286/286/286 285/285/285
f 285/285/285 288/288/288 287/287/287
f 291/291/291 290/290/290 289/289/289
f 289/289/289 292/292/292 291/291/291
f 295/295/295 294/294/294 293/293/293
f 293/293/293 296/296/296 295/295/295
f 299/299/299 298/298/298 297/297/297
f 297/297/297 300/300/300 299/299/299
f 303/303/303 302/302/302 301/301/301
f 301/301/301 304/304/304 303/303/303
f 307/307/307 306/306/306 305/305/305
f 305/305/305 308/308/308 307/307/307
f 311/311/311 310/310/310 309/309/309
f 309/309/309 312/312/312 311/311/311
f 315/315/315 314/314/314 313/313/313
f 313/313/313 316/316/316 315/315/315
f 319/319/319 318/318/318 317/317/317
f 317/317/317 320/320/320 319/319/319
f 323/323/323 322/322/322 321/321/321
f 321/321/321 324/324/324 323/323/323
f 327/327/327 326/326/326 325/325/325
f 325/325/325 328/328/328 327/327/327
f 331/331/331 330/330/330 329/329/329
f 329/329/329 332/332/332 331/331/331
f 335/335/335 334/334/334 333/333/333
f 333/333/333 336/336/336 335/335/335
f 339/339/339 338/338/338 337/337/337
f 337/337/337 340/340/340 339/339/339
f 343/343/343 342/342/342 341/341/341
f 341/341/341 344/344/344 343/343/343
f 347/347/347 346/346/346 345/345/345
f 345/345/345 348/348/348 347/347/347
f 351/351/351 350/350/350 349/349/349
f 349/349/349 352/352/352 351/351/351
f 355/355/355 354/354/354 353/353/353
f 353/353/353 356/356/356 355/355/355
f 359/359/359 358/358/358 357/357/357
f 357/357/357 360/360/360 359/359/359
f 363/363/363 362/362/362 361/361/361
f 361/361/361 364/364/364 363/363/363
f 367/367/367 366/366/366 365/365/365
f 365/365/365 368/368/368 367/367/367
f 371/371/371 370/370/370 369/369/369
f 369/369/369 372/372/372 371/371/371
f 375/375/375 374/374/374 373/373/373
f 373/373/373 376/376/376 375/375/375
f 379/379/379 378/378/378 377/377/377
f 377/377/377 380/380/380 379/379/379
f 383/383/383 382/382/382 381/381/381
f 381/381/381 384/384/384 383/383/383
f 387/387/387 386/386/386 385/385/385
f 385/385/385 388/388/388 387/387/387
f 391/391/391 390/390/390 389/389/389
f 389/389/389 392/392/392 391/391/391
f 395/395/395 394/394/394 393/393/393
f 393/393/393 396/396/396 395/395/395
f 399/399/399 398/398/398 397/397/397
f 397/397/397 400/400/400 399/399/399
f 403/403/403 402/402/402 401/401/401
f 401/401/401 404/404/404 403/403/403
f 407/407/407 406/406/406 405/405/405
f 405/405/405 408/408/408 407/407/407
f 411/411/411 410/410/410 409/409/409
f 409/409/409 412/412/412 411/411/411
f 415/415/415 414/414/414 413/413/413
f 413/413/413 416/416/416 415/415/415
f 419/419/419 418/418/418 417/417/417
f 417/417/417 420/420/420 419/419/419
f 423/423/423 422/422/422 421/421/421
f 421/421/421 424/424/424 423/423/423
f 427/427/427 426/426/426 425/425/425
f 425/425/425 428/428/428 427/427/427
f 431/431/431 430/430/430 429/429/429
f 429/429/429 432/432/432 431/431/431
f 435/435/435 434/434/434 433/433/433
f 433/433/433 436/436/436 435/435/435
f 439/439/439 438/438/438 437/437/437
f 437/437/437 440/440/440 439/439/439
f 443/443/443 442/442/442 441/441/441
f 441/441/441 444/444/444 443/443/443
f 447/447/447 446/446/446 445/445/445
f 445/445/445 448/448/448 447/447/447
f 451/451/451 450/450/450 449/449/449
f 449/449/449 452/452/452 451/451/451
f 455/455/455 454/454/454 453/453/453
f 453/453/453 456/456/456 455/455/455
f 459/459/459 458/458/458 457/457/457
f 457/457/457 460/460/460 459/459/459
f 463/463/463 462/462/462 461/461/461
f 461/461/461 464/464/464 463/463/463
f 467/467/467 466/466/466 465/465/465
f 465/465/465 468/468/468 467/467/467
f 471/471/471 470/470/470 469/469/469
f 469/469/469 472/472/472 471/471/471
f 475/475/475 474/474/474 473/473/473
f 473/473/473 476/476/476 475/475/475
f 479/479/479 478/478/478 477/477/477
f 477/477/477 480/480/480 479/479/479
f 483/483/483 482/482/482 481/481/481
f 481/481/481 484/484/484 483/483/483
f 487/487/487 486/486/486 485/485/485
f 485/485/485 488/488/488 487/487/487
f 491/491/491 490/490/490 489/489/489
f 489/489/489 492/492/492 491/491/491
f 495/495/495 494/494/494 493/493/493
f 493/493/493 496/496/496 495/495/495
f 499/499/499 498/498/498 497/497/497
f 497/497/497 500/500/500 499/499/499
f 503/503/503 502/502/502 501/501/501
f 501/501/501 504/504/504 503/503/503
f 507/507/507 506/506/506 505/505/505
f 505/505/505 508/508/508 507/507/507
f 511/511/511 510/510/510 509/509/509
f 509/509/509 512/512/512 511/511/511
f 515/515/515 514/514/514 513/513/513
f 513/513/513 516/516/516 515/515/515
