g shengli_4-mesh
v -320 255 0
v -320 1023 0
v -1728 1023 0
v -1728 255 0
v -320 1023 0
v -320 1791 0
v -1728 1791 0
v -1728 1023 0
v -96 1023 0
v -96 1503 0
v -320 1503 0
v -320 1023 0
v -1728 1055 0
v -1728 1535 0
v -1952 1535 0
v -1952 1055 0
v -96 575 0
v -96 1023 0
v -320 1023 0
v -320 575 0
v -1728 607 0
v -1728 1055 0
v -1952 1055 0
v -1952 607 0
v -1024 63 0
v -1024 255 0
v -1440 255 0
v -1440 63 0
v -608 63 0
v -608 255 0
v -1024 255 0
v -1024 63 0
v -1024 1791 0
v -1024 1951 0
v -1504 1951 0
v -1504 1791 0
v -544 1791 0
v -544 1951 0
v -1024 1951 0
v -1024 1791 0
v -224 351 0
v -224 575 0
v -320 575 0
v -320 351 0
v -192 1503 0
v -192 1663 0
v -320 1663 0
v -320 1503 0
v -1952 1087 0
v -1952 1407 0
v -2016 1407 0
v -2016 1087 0
v -736 1951 0
v -736 2015 0
v -1056 2015 0
v -1056 1951 0
v -1056 1951 0
v -1056 2015 0
v -1344 2015 0
v -1344 1951 0
v -1728 511 0
v -1728 607 0
v -1920 607 0
v -1920 511 0
v -1952 799 0
v -1952 1087 0
v -2016 1087 0
v -2016 799 0
v -1728 1535 0
v -1728 1695 0
v -1824 1695 0
v -1824 1535 0
v -448 159 0
v -448 255 0
v -608 255 0
v -608 159 0
v -32 831 0
v -32 1055 0
v -96 1055 0
v -96 831 0
v -32 1055 0
v -32 1279 0
v -96 1279 0
v -96 1055 0
v -1504 1791 0
v -1504 1887 0
v -1632 1887 0
v -1632 1791 0
v -832 0 0
v -832 63 0
v -1024 63 0
v -1024 0 0
v -1024 0 0
v -1024 63 0
v -1216 63 0
v -1216 0 0
v -160 447 0
v -160 575 0
v -224 575 0
v -224 447 0
v -1728 415 0
v -1728 479 0
v -1856 479 0
v -1856 415 0
v -1536 159 0
v -1536 255 0
v -1600 255 0
v -1600 159 0
v -384 1791 0
v -384 1855 0
v -480 1855 0
v -480 1791 0
v -1440 159 0
v -1440 255 0
v -1504 255 0
v -1504 159 0
v -256 1663 0
v -256 1727 0
v -320 1727 0
v -320 1663 0
v -480 1855 0
v -480 1919 0
v -544 1919 0
v -544 1855 0
v -544 95 0
v -544 159 0
v -608 159 0
v -608 95 0
v -128 1503 0
v -128 1567 0
v -192 1567 0
v -192 1503 0
v -1824 1535 0
v -1824 1599 0
v -1888 1599 0
v -1888 1535 0
v -928 2015 0
v -928 2047 0
v -1056 2047 0
v -1056 2015 0
v -1440 95 0
v -1440 159 0
v -1504 159 0
v -1504 95 0
v -480 1791 0
v -480 1855 0
v -544 1855 0
v -544 1791 0
v -672 31 0
v -672 63 0
v -768 63 0
v -768 31 0
v -1056 2015 0
v -1056 2047 0
v -1152 2047 0
v -1152 2015 0
v -1728 479 0
v -1728 511 0
v -1824 511 0
v -1824 479 0
v -640 1951 0
v -640 1983 0
v -704 1983 0
v -704 1951 0
v -1952 1439 0
v -1952 1503 0
v -1984 1503 0
v -1984 1439 0
v -2016 1119 0
v -2016 1183 0
v -2029 1183 0
v -2029 1119 0
v -1600 191 0
v -1600 255 0
v -1632 255 0
v -1632 191 0
v -1216 31 0
v -1216 63 0
v -1280 63 0
v -1280 31 0
v -1280 31 0
v -1280 63 0
v -1344 63 0
v -1344 31 0
v -128 511 0
v -128 575 0
v -160 575 0
v -160 511 0
v -1760 351 0
v -1760 415 0
v -1792 415 0
v -1792 351 0
v -256 319 0
v -256 351 0
v -320 351 0
v -320 319 0
v -1344 1951 0
v -1344 1983 0
v -1408 1983 0
v -1408 1951 0
v -1504 1887 0
v -1504 1919 0
v -1568 1919 0
v -1568 1887 0
v -1728 1695 0
v -1728 1759 0
v -1760 1759 0
v -1760 1695 0
v -64 767 0
v -64 831 0
v -96 831 0
v -96 767 0
v -64 703 0
v -64 767 0
v -96 767 0
v -96 703 0
v -1728 351 0
v -1728 415 0
v -1760 415 0
v -1760 351 0
v -64 1279 0
v -64 1343 0
v -96 1343 0
v -96 1279 0
v -1824 479 0
v -1824 511 0
v -1888 511 0
v -1888 479 0
v -768 31 0
v -768 63 0
v -832 63 0
v -832 31 0
v -64 1343 0
v -64 1407 0
v -96 1407 0
v -96 1343 0
v -320 223 0
v -320 255 0
v -384 255 0
v -384 223 0
v -1504 127 0
v -1504 191 0
v -1536 191 0
v -1536 127 0
v -384 223 0
v -384 255 0
v -448 255 0
v -448 223 0
v -1504 191 0
v -1504 255 0
v -1536 255 0
v -1536 191 0
v -1728 287 0
v -1728 351 0
v -1760 351 0
v -1760 287 0
v -1952 767 0
v -1952 799 0
v -1984 799 0
v -1984 767 0
v -2016 1215 0
v -2016 1247 0
v -2029 1247 0
v -2029 1215 0
v -160 1567 0
v -160 1599 0
v -192 1599 0
v -192 1567 0
v -1888 1535 0
v -1888 1567 0
v -1920 1567 0
v -1920 1535 0
v -192 415 0
v -192 447 0
v -224 447 0
v -224 415 0
v -512 127 0
v -512 159 0
v -544 159 0
v -544 127 0
v -416 191 0
v -416 223 0
v -448 223 0
v -448 191 0
v -1792 383 0
v -1792 415 0
v -1824 415 0
v -1824 383 0
v -1632 223 0
v -1632 255 0
v -1664 255 0
v -1664 223 0
v -1824 1599 0
v -1824 1631 0
v -1856 1631 0
v -1856 1599 0
v -2016 1087 0
v -2016 1119 0
v -2029 1119 0
v -2029 1087 0
v -448 1855 0
v -448 1887 0
v -480 1887 0
v -480 1855 0
v -704 1951 0
v -704 1983 0
v -736 1983 0
v -736 1951 0
v -1952 1407 0
v -1952 1439 0
v -1984 1439 0
v -1984 1407 0
v -352 1791 0
v -352 1823 0
v -384 1823 0
v -384 1791 0
v -1760 1695 0
v -1760 1727 0
v -1792 1727 0
v -1792 1695 0
v -224 1663 0
v -224 1695 0
v -256 1695 0
v -256 1663 0
v -1632 1791 0
v -1632 1823 0
v -1664 1823 0
v -1664 1791 0
v -288 1727 0
v -288 1759 0
v -320 1759 0
v -320 1727 0
vt 0.00048828125 0.000586152077
vt 0.00048828125 0.450762033
vt 0.687988281 0.450762033
vt 0.687988281 0.000586152077
vt 0.00048828125 0.451934338
vt 0.00048828125 0.902110219
vt 0.687988281 0.902110219
vt 0.687988281 0.451934338
vt 0.688964844 0.000586152077
vt 0.688964844 0.281946063
vt 0.798339844 0.281946063
vt 0.798339844 0.000586152077
vt 0.799316406 0.000586152077
vt 0.799316406 0.281946063
vt 0.908691406 0.281946063
vt 0.908691406 0.000586152077
vt 0.688964844 0.283118427
vt 0.688964844 0.545720994
vt 0.798339844 0.545720994
vt 0.798339844 0.283118427
vt 0.799316406 0.283118427
vt 0.799316406 0.545720994
vt 0.908691406 0.545720994
vt 0.908691406 0.283118427
vt 0.688964844 0.546893358
vt 0.688964844 0.659437299
vt 0.892089844 0.659437299
vt 0.892089844 0.546893358
vt 0.688964844 0.660609603
vt 0.688964844 0.773153543
vt 0.892089844 0.773153543
vt 0.892089844 0.660609603
vt 0.688964844 0.774325907
vt 0.688964844 0.868112564
vt 0.923339844 0.868112564
vt 0.923339844 0.774325907
vt 0.688964844 0.869284868
vt 0.688964844 0.963071525
vt 0.923339844 0.963071525
vt 0.923339844 0.869284868
vt 0.924316406 0.000586152077
vt 0.924316406 0.131887436
vt 0.971191406 0.131887436
vt 0.971191406 0.000586152077
vt 0.924316406 0.1330598
vt 0.924316406 0.226846397
vt 0.986816406 0.226846397
vt 0.986816406 0.1330598
vt 0.924316406 0.228018761
vt 0.924316406 0.415592015
vt 0.955566406 0.415592015
vt 0.955566406 0.228018761
vt 0.00048828125 0.903282523
vt 0.00048828125 0.94079721
vt 0.156738281 0.94079721
vt 0.156738281 0.903282523
vt 0.157714844 0.903282523
vt 0.157714844 0.94079721
vt 0.298339844 0.94079721
vt 0.298339844 0.903282523
vt 0.299316406 0.903282523
vt 0.299316406 0.959554493
vt 0.393066406 0.959554493
vt 0.393066406 0.903282523
vt 0.956542969 0.228018761
vt 0.956542969 0.396834671
vt 0.987792969 0.396834671
vt 0.987792969 0.228018761
vt 0.924316406 0.416764379
vt 0.924316406 0.510550976
vt 0.971191406 0.510550976
vt 0.971191406 0.416764379
vt 0.394042969 0.903282523
vt 0.394042969 0.959554493
vt 0.472167969 0.959554493
vt 0.472167969 0.903282523
vt 0.924316406 0.51172334
vt 0.924316406 0.643024623
vt 0.955566406 0.643024623
vt 0.955566406 0.51172334
vt 0.956542969 0.51172334
vt 0.956542969 0.643024623
vt 0.987792969 0.643024623
vt 0.987792969 0.51172334
vt 0.924316406 0.644196987
vt 0.924316406 0.700468898
vt 0.986816406 0.700468898
vt 0.986816406 0.644196987
vt 0.473144531 0.903282523
vt 0.473144531 0.94079721
vt 0.566894531 0.94079721
vt 0.566894531 0.903282523
vt 0.567871094 0.903282523
vt 0.567871094 0.94079721
vt 0.661621094 0.94079721
vt 0.661621094 0.903282523
vt 0.924316406 0.701641262
vt 0.924316406 0.776670575
vt 0.955566406 0.776670575
vt 0.955566406 0.701641262
vt 0.924316406 0.777842879
vt 0.924316406 0.815357566
vt 0.986816406 0.815357566
vt 0.986816406 0.777842879
vt 0.924316406 0.81652987
vt 0.924316406 0.8728019
vt 0.955566406 0.8728019
vt 0.955566406 0.81652987
vt 0.924316406 0.873974204
vt 0.924316406 0.911488891
vt 0.971191406 0.911488891
vt 0.971191406 0.873974204
vt 0.924316406 0.912661195
vt 0.924316406 0.968933165
vt 0.955566406 0.968933165
vt 0.955566406 0.912661195
vt 0.956542969 0.912661195
vt 0.956542969 0.950175881
vt 0.987792969 0.950175881
vt 0.987792969 0.912661195
vt 0.00048828125 0.941969514
vt 0.00048828125 0.9794842
vt 0.0317382812 0.9794842
vt 0.0317382812 0.941969514
vt 0.0327148438 0.941969514
vt 0.0327148438 0.9794842
vt 0.0639648438 0.9794842
vt 0.0639648438 0.941969514
vt 0.0649414062 0.941969514
vt 0.0649414062 0.9794842
vt 0.0961914062 0.9794842
vt 0.0961914062 0.941969514
vt 0.0971679688 0.941969514
vt 0.0971679688 0.9794842
vt 0.128417969 0.9794842
vt 0.128417969 0.941969514
vt 0.129394531 0.941969514
vt 0.129394531 0.960726857
vt 0.191894531 0.960726857
vt 0.191894531 0.941969514
vt 0.192871094 0.941969514
vt 0.192871094 0.9794842
vt 0.224121094 0.9794842
vt 0.224121094 0.941969514
vt 0.225097656 0.941969514
vt 0.225097656 0.9794842
vt 0.256347656 0.9794842
vt 0.256347656 0.941969514
vt 0.473144531 0.941969514
vt 0.473144531 0.960726857
vt 0.520019531 0.960726857
vt 0.520019531 0.941969514
vt 0.520996094 0.941969514
vt 0.520996094 0.960726857
vt 0.567871094 0.960726857
vt 0.567871094 0.941969514
vt 0.568847656 0.941969514
vt 0.568847656 0.960726857
vt 0.615722656 0.960726857
vt 0.615722656 0.941969514
vt 0.257324219 0.941969514
vt 0.257324219 0.960726857
vt 0.288574219 0.960726857
vt 0.288574219 0.941969514
vt 0.662597656 0.903282523
vt 0.662597656 0.94079721
vt 0.678222656 0.94079721
vt 0.678222656 0.903282523
vt 0.988769531 0.000586152077
vt 0.988769531 0.0381008387
vt 0.995605469 0.0381008387
vt 0.995605469 0.000586152077
vt 0.616699219 0.941969514
vt 0.616699219 0.9794842
vt 0.632324219 0.9794842
vt 0.632324219 0.941969514
vt 0.633300781 0.941969514
vt 0.633300781 0.960726857
vt 0.664550781 0.960726857
vt 0.664550781 0.941969514
vt 0.956542969 0.951348186
vt 0.956542969 0.970105529
vt 0.987792969 0.970105529
vt 0.987792969 0.951348186
vt 0.665527344 0.941969514
vt 0.665527344 0.9794842
vt 0.681152344 0.9794842
vt 0.681152344 0.941969514
vt 0.299316406 0.960726857
vt 0.299316406 0.998241484
vt 0.314941406 0.998241484
vt 0.314941406 0.960726857
vt 0.315917969 0.960726857
vt 0.315917969 0.9794842
vt 0.347167969 0.9794842
vt 0.347167969 0.960726857
vt 0.348144531 0.960726857
vt 0.348144531 0.9794842
vt 0.379394531 0.9794842
vt 0.379394531 0.960726857
vt 0.380371094 0.960726857
vt 0.380371094 0.9794842
vt 0.411621094 0.9794842
vt 0.411621094 0.960726857
vt 0.412597656 0.960726857
vt 0.412597656 0.998241484
vt 0.428222656 0.998241484
vt 0.428222656 0.960726857
vt 0.429199219 0.960726857
vt 0.429199219 0.998241484
vt 0.444824219 0.998241484
vt 0.444824219 0.960726857
vt 0.445800781 0.960726857
vt 0.445800781 0.998241484
vt 0.461425781 0.998241484
vt 0.461425781 0.960726857
vt 0.129394531 0.961899161
vt 0.129394531 0.999413848
vt 0.145019531 0.999413848
vt 0.145019531 0.961899161
vt 0.145996094 0.961899161
vt 0.145996094 0.999413848
vt 0.161621094 0.999413848
vt 0.161621094 0.961899161
vt 0.257324219 0.961899161
vt 0.257324219 0.980656505
vt 0.288574219 0.980656505
vt 0.288574219 0.961899161
vt 0.473144531 0.961899161
vt 0.473144531 0.980656505
vt 0.504394531 0.980656505
vt 0.504394531 0.961899161
vt 0.162597656 0.961899161
vt 0.162597656 0.999413848
vt 0.178222656 0.999413848
vt 0.178222656 0.961899161
vt 0.505371094 0.961899161
vt 0.505371094 0.980656505
vt 0.536621094 0.980656505
vt 0.536621094 0.961899161
vt 0.537597656 0.961899161
vt 0.537597656 0.999413848
vt 0.553222656 0.999413848
vt 0.553222656 0.961899161
vt 0.554199219 0.961899161
vt 0.554199219 0.980656505
vt 0.585449219 0.980656505
vt 0.585449219 0.961899161
vt 0.586425781 0.961899161
vt 0.586425781 0.999413848
vt 0.602050781 0.999413848
vt 0.602050781 0.961899161
vt 0.633300781 0.961899161
vt 0.633300781 0.999413848
vt 0.648925781 0.999413848
vt 0.648925781 0.961899161
vt 0.688964844 0.964243829
vt 0.688964844 0.983001173
vt 0.704589844 0.983001173
vt 0.704589844 0.964243829
vt 0.988769531 0.0392731428
vt 0.988769531 0.0580304861
vt 0.995605469 0.0580304861
vt 0.995605469 0.0392731428
vt 0.705566406 0.964243829
vt 0.705566406 0.983001173
vt 0.721191406 0.983001173
vt 0.721191406 0.964243829
vt 0.722167969 0.964243829
vt 0.722167969 0.983001173
vt 0.737792969 0.983001173
vt 0.737792969 0.964243829
vt 0.738769531 0.964243829
vt 0.738769531 0.983001173
vt 0.754394531 0.983001173
vt 0.754394531 0.964243829
vt 0.755371094 0.964243829
vt 0.755371094 0.983001173
vt 0.770996094 0.983001173
vt 0.770996094 0.964243829
vt 0.771972656 0.964243829
vt 0.771972656 0.983001173
vt 0.787597656 0.983001173
vt 0.787597656 0.964243829
vt 0.788574219 0.964243829
vt 0.788574219 0.983001173
vt 0.804199219 0.983001173
vt 0.804199219 0.964243829
vt 0.805175781 0.964243829
vt 0.805175781 0.983001173
vt 0.820800781 0.983001173
vt 0.820800781 0.964243829
vt 0.821777344 0.964243829
vt 0.821777344 0.983001173
vt 0.837402344 0.983001173
vt 0.837402344 0.964243829
vt 0.988769531 0.0592027903
vt 0.988769531 0.0779601336
vt 0.995605469 0.0779601336
vt 0.995605469 0.0592027903
vt 0.838378906 0.964243829
vt 0.838378906 0.983001173
vt 0.854003906 0.983001173
vt 0.854003906 0.964243829
vt 0.854980469 0.964243829
vt 0.854980469 0.983001173
vt 0.870605469 0.983001173
vt 0.870605469 0.964243829
vt 0.871582031 0.964243829
vt 0.871582031 0.983001173
vt 0.887207031 0.983001173
vt 0.887207031 0.964243829
vt 0.888183594 0.964243829
vt 0.888183594 0.983001173
vt 0.903808594 0.983001173
vt 0.903808594 0.964243829
vt 0.904785156 0.964243829
vt 0.904785156 0.983001173
vt 0.920410156 0.983001173
vt 0.920410156 0.964243829
vt 0.924316406 0.970105529
vt 0.924316406 0.988862813
vt 0.939941406 0.988862813
vt 0.939941406 0.970105529
vt 0.956542969 0.971277833
vt 0.956542969 0.990035176
vt 0.972167969 0.990035176
vt 0.972167969 0.971277833
vt 0.973144531 0.971277833
vt 0.973144531 0.990035176
vt 0.988769531 0.990035176
vt 0.988769531 0.971277833
g shengli_4-mesh_0
f 3/3/3 2/2/2 1/1/1
f 1/1/1 4/4/4 3/3/3
f 7/7/7 6/6/6 5/5/5
f 5/5/5 8/8/8 7/7/7
f 11/11/11 10/10/10 9/9/9
f 9/9/9 12/12/12 11/11/11
f 15/15/15 14/14/14 13/13/13
f 13/13/13 16/16/16 15/15/15
f 19/19/19 18/18/18 17/17/17
f 17/17/17 20/20/20 19/19/19
f 23/23/23 22/22/22 21/21/21
f 21/21/21 24/24/24 23/23/23
f 27/27/27 26/26/26 25/25/25
f 25/25/25 28/28/28 27/27/27
f 31/31/31 30/30/30 29/29/29
f 29/29/29 32/32/32 31/31/31
f 35/35/35 34/34/34 33/33/33
f 33/33/33 36/36/36 35/35/35
f 39/39/39 38/38/38 37/37/37
f 37/37/37 40/40/40 39/39/39
f 43/43/43 42/42/42 41/41/41
f 41/41/41 44/44/44 43/43/43
f 47/47/47 46/46/46 45/45/45
f 45/45/45 48/48/48 47/47/47
f 51/51/51 50/50/50 49/49/49
f 49/49/49 52/52/52 51/51/51
f 55/55/55 54/54/54 53/53/53
f 53/53/53 56/56/56 55/55/55
f 59/59/59 58/58/58 57/57/57
f 57/57/57 60/60/60 59/59/59
f 63/63/63 62/62/62 61/61/61
f 61/61/61 64/64/64 63/63/63
f 67/67/67 66/66/66 65/65/65
f 65/65/65 68/68/68 67/67/67
f 71/71/71 70/70/70 69/69/69
f 69/69/69 72/72/72 71/71/71
f 75/75/75 74/74/74 73/73/73
f 73/73/73 76/76/76 75/75/75
f 79/79/79 78/78/78 77/77/77
f 77/77/77 80/80/80 79/79/79
f 83/83/83 82/82/82 81/81/81
f 81/81/81 84/84/84 83/83/83
f 87/87/87 86/86/86 85/85/85
f 85/85/85 88/88/88 87/87/87
f 91/91/91 90/90/90 89/89/89
f 89/89/89 92/92/92 91/91/91
f 95/95/95 94/94/94 93/93/93
f 93/93/93 96/96/96 95/95/95
f 99/99/99 98/98/98 97/97/97
f 97/97/97 100/100/100 99/99/99
f 103/103/103 102/102/102 101/101/101
f 101/101/101 104/104/104 103/103/103
f 107/107/107 106/106/106 105/105/105
f 105/105/105 108/108/108 107/107/107
f 111/111/111 110/110/110 109/109/109
f 109/109/109 112/112/112 111/111/111
f 115/115/115 114/114/114 113/113/113
f 113/113/113 116/116/116 115/115/115
f 119/119/119 118/118/118 117/117/117
f 117/117/117 120/120/120 119/119/119
f 123/123/123 122/122/122 121/121/121
f 121/121/121 124/124/124 123/123/123
f 127/127/127 126/126/126 125/125/125
f 125/125/125 128/128/128 127/127/127
f 131/131/131 130/130/130 129/129/129
f 129/129/129 132/132/132 131/131/131
f 135/135/135 134/134/134 133/133/133
f 133/133/133 136/136/136 135/135/135
f 139/139/139 138/138/138 137/137/137
f 137/137/137 140/140/140 139/139/139
f 143/143/143 142/142/142 141/141/141
f 141/141/141 144/144/144 143/143/143
f 147/147/147 146/146/146 145/145/145
f 145/145/145 148/148/148 147/147/147
f 151/151/151 150/150/150 149/149/149
f 149/149/149 152/152/152 151/151/151
f 155/155/155 154/154/154 153/153/153
f 153/153/153 156/156/156 155/155/155
f 159/159/159 158/158/158 157/157/157
f 157/157/157 160/160/160 159/159/159
f 163/163/163 162/162/162 161/161/161
f 161/161/161 164/164/164 163/163/163
f 167/167/167 166/166/166 165/165/165
f 165/165/165 168/168/168 167/167/167
f 171/171/171 170/170/170 169/169/169
f 169/169/169 172/172/172 171/171/171
f 175/175/175 174/174/174 173/173/173
f 173/173/173 176/176/176 175/175/175
f 179/179/179 178/178/178 177/177/177
f 177/177/177 180/180/180 179/179/179
f 183/183/183 182/182/182 181/181/181
f 181/181/181 184/184/184 183/183/183
f 187/187/187 186/186/186 185/185/185
f 185/185/185 188/188/188 187/187/187
f 191/191/191 190/190/190 189/189/189
f 189/189/189 192/192/192 191/191/191
f 195/195/195 194/194/194 193/193/193
f 193/193/193 196/196/196 195/195/195
f 199/199/199 198/198/198 197/197/197
f 197/197/197 200/200/200 199/199/199
f 203/203/203 202/202/202 201/201/201
f 201/201/201 204/204/204 203/203/203
f 207/207/207 206/206/206 205/205/205
f 205/205/205 208/208/208 207/207/207
f 211/211/211 210/210/210 209/209/209
f 209/209/209 212/212/212 211/211/211
f 215/215/215 214/214/214 213/213/213
f 213/213/213 216/216/216 215/215/215
f 219/219/219 218/218/218 217/217/217
f 217/217/217 220/220/220 219/219/219
f 223/223/223 222/222/222 221/221/221
f 221/221/221 224/224/224 223/223/223
f 227/227/227 226/226/226 225/225/225
f 225/225/225 228/228/228 227/227/227
f 231/231/231 230/230/230 229/229/229
f 229/229/229 232/232/232 231/231/231
f 235/235/235 234/234/234 233/233/233
f 233/233/233 236/236/236 235/235/235
f 239/239/239 238/238/238 237/237/237
f 237/237/237 240/240/240 239/239/239
f 243/243/243 242/242/242 241/241/241
f 241/241/241 244/244/244 243/243/243
f 247/247/247 246/246/246 245/245/245
f 245/245/245 248/248/248 247/247/247
f 251/251/251 250/250/250 249/249/249
f 249/249/249 252/252/252 251/251/251
f 255/255/255 254/254/254 253/253/253
f 253/253/253 256/256/256 255/255/255
f 259/259/259 258/258/258 257/257/257
f 257/257/257 260/260/260 259/259/259
f 263/263/263 262/262/262 261/261/261
f 261/261/261 264/264/264 263/263/263
f 267/267/267 266/266/266 265/265/265
f 265/265/265 268/268/268 267/267/267
f 271/271/271 270/270/270 269/269/269
f 269/269/269 272/272/272 271/271/271
f 275/275/275 274/274/274 273/273/273
f 273/273/273 276/276/276 275/275/275
f 279/279/279 278/278/278 277/277/277
f 277/277/277 280/280/280 279/279/279
f 283/283/283 282/282/282 281/281/281
f 281/281/281 284/284/284 283/283/283
f 287/287/287 286/286/286 285/285/285
f 285/285/285 288/288/288 287/287/287
f 291/291/291 290/290/290 289/289/289
f 289/289/289 292/292/292 291/291/291
f 295/295/295 294/294/294 293/293/293
f 293/293/293 296/296/296 295/295/295
f 299/299/299 298/298/298 297/297/297
f 297/297/297 300/300/300 299/299/299
f 303/303/303 302/302/302 301/301/301
f 301/301/301 304/304/304 303/303/303
f 307/307/307 306/306/306 305/305/305
f 305/305/305 308/308/308 307/307/307
f 311/311/311 310/310/310 309/309/309
f 309/309/309 312/312/312 311/311/311
f 315/315/315 314/314/314 313/313/313
f 313/313/313 316/316/316 315/315/315
f 319/319/319 318/318/318 317/317/317
f 317/317/317 320/320/320 319/319/319
f 323/323/323 322/322/322 321/321/321
f 321/321/321 324/324/324 323/323/323
f 327/327/327 326/326/326 325/325/325
f 325/325/325 328/328/328 327/327/327
f 331/331/331 330/330/330 329/329/329
f 329/329/329 332/332/332 331/331/331
