g aimudeng_5_bj-mesh
v -960 353 0
v -960 449 0
v -1088 449 0
v -1088 353 0
v -640 289 0
v -640 353 0
v -768 353 0
v -768 289 0
v -1088 385 0
v -1088 449 0
v -1216 449 0
v -1216 385 0
v -1280 449 0
v -1280 513 0
v -1408 513 0
v -1408 449 0
v -832 289 0
v -832 353 0
v -928 353 0
v -928 289 0
v -1184 449 0
v -1184 513 0
v -1248 513 0
v -1248 449 0
v -384 385 0
v -384 417 0
v -512 417 0
v -512 385 0
v -512 385 0
v -512 417 0
v -640 417 0
v -640 385 0
v -384 417 0
v -384 449 0
v -448 449 0
v -448 417 0
v -576 353 0
v -576 385 0
v -640 385 0
v -640 353 0
v -576 321 0
v -576 353 0
v -640 353 0
v -640 321 0
v -800 353 0
v -800 385 0
v -864 385 0
v -864 353 0
v -512 353 0
v -512 385 0
v -576 385 0
v -576 353 0
v -928 321 0
v -928 385 0
v -960 385 0
v -960 321 0
v -928 385 0
v -928 449 0
v -960 449 0
v -960 385 0
v -800 385 0
v -800 417 0
v -864 417 0
v -864 385 0
v -736 385 0
v -736 417 0
v -800 417 0
v -800 385 0
v -1216 417 0
v -1216 449 0
v -1248 449 0
v -1248 417 0
v -1248 449 0
v -1248 481 0
v -1280 481 0
v -1280 449 0
vt 0.001953125 0.00505048037
vt 0.001953125 0.48989898
vt 0.251953125 0.48989898
vt 0.251953125 0.00505048037
vt 0.255859375 0.00505048037
vt 0.255859375 0.328282833
vt 0.505859375 0.328282833
vt 0.505859375 0.00505048037
vt 0.509765625 0.00505048037
vt 0.509765625 0.328282833
vt 0.759765625 0.328282833
vt 0.759765625 0.00505048037
vt 0.255859375 0.338383853
vt 0.255859375 0.661616206
vt 0.505859375 0.661616206
vt 0.505859375 0.338383853
vt 0.763671875 0.00505048037
vt 0.763671875 0.328282833
vt 0.951171875 0.328282833
vt 0.951171875 0.00505048037
vt 0.509765625 0.338383853
vt 0.509765625 0.661616206
vt 0.634765625 0.661616206
vt 0.634765625 0.338383853
vt 0.638671875 0.338383853
vt 0.638671875 0.5
vt 0.888671875 0.5
vt 0.888671875 0.338383853
vt 0.001953125 0.5
vt 0.001953125 0.661616206
vt 0.251953125 0.661616206
vt 0.251953125 0.5
vt 0.638671875 0.51010102
vt 0.638671875 0.671717167
vt 0.763671875 0.671717167
vt 0.763671875 0.51010102
vt 0.767578125 0.51010102
vt 0.767578125 0.671717167
vt 0.892578125 0.671717167
vt 0.892578125 0.51010102
vt 0.001953125 0.671717167
vt 0.001953125 0.833333313
vt 0.126953125 0.833333313
vt 0.126953125 0.671717167
vt 0.130859375 0.671717167
vt 0.130859375 0.833333313
vt 0.255859375 0.833333313
vt 0.255859375 0.671717167
vt 0.259765625 0.671717167
vt 0.259765625 0.833333313
vt 0.384765625 0.833333313
vt 0.384765625 0.671717167
vt 0.896484375 0.338383853
vt 0.896484375 0.661616206
vt 0.958984375 0.661616206
vt 0.958984375 0.338383853
vt 0.388671875 0.671717167
vt 0.388671875 0.99494952
vt 0.451171875 0.99494952
vt 0.451171875 0.671717167
vt 0.455078125 0.671717167
vt 0.455078125 0.833333313
vt 0.580078125 0.833333313
vt 0.580078125 0.671717167
vt 0.638671875 0.681818187
vt 0.638671875 0.843434334
vt 0.763671875 0.843434334
vt 0.763671875 0.681818187
vt 0.896484375 0.671717167
vt 0.896484375 0.833333313
vt 0.958984375 0.833333313
vt 0.958984375 0.671717167
vt 0.767578125 0.681818187
vt 0.767578125 0.843434334
vt 0.830078125 0.843434334
vt 0.830078125 0.681818187
g aimudeng_5_bj-mesh_0
f 3/3/3 2/2/2 1/1/1
f 1/1/1 4/4/4 3/3/3
f 7/7/7 6/6/6 5/5/5
f 5/5/5 8/8/8 7/7/7
f 11/11/11 10/10/10 9/9/9
f 9/9/9 12/12/12 11/11/11
f 15/15/15 14/14/14 13/13/13
f 13/13/13 16/16/16 15/15/15
f 19/19/19 18/18/18 17/17/17
f 17/17/17 20/20/20 19/19/19
f 23/23/23 22/22/22 21/21/21
f 21/21/21 24/24/24 23/23/23
f 27/27/27 26/26/26 25/25/25
f 25/25/25 28/28/28 27/27/27
f 31/31/31 30/30/30 29/29/29
f 29/29/29 32/32/32 31/31/31
f 35/35/35 34/34/34 33/33/33
f 33/33/33 36/36/36 35/35/35
f 39/39/39 38/38/38 37/37/37
f 37/37/37 40/40/40 39/39/39
f 43/43/43 42/42/42 41/41/41
f 41/41/41 44/44/44 43/43/43
f 47/47/47 46/46/46 45/45/45
f 45/45/45 48/48/48 47/47/47
f 51/51/51 50/50/50 49/49/49
f 49/49/49 52/52/52 51/51/51
f 55/55/55 54/54/54 53/53/53
f 53/53/53 56/56/56 55/55/55
f 59/59/59 58/58/58 57/57/57
f 57/57/57 60/60/60 59/59/59
f 63/63/63 62/62/62 61/61/61
f 61/61/61 64/64/64 63/63/63
f 67/67/67 66/66/66 65/65/65
f 65/65/65 68/68/68 67/67/67
f 71/71/71 70/70/70 69/69/69
f 69/69/69 72/72/72 71/71/71
f 75/75/75 74/74/74 73/73/73
f 73/73/73 76/76/76 75/75/75
