g kewei_4_rw-mesh
v -256 1279 0
v -256 1663 0
v -640 1663 0
v -640 1279 0
v -256 927 0
v -256 1279 0
v -640 1279 0
v -640 927 0
v -640 671 0
v -640 991 0
v -1024 991 0
v -1024 671 0
v -640 383 0
v -640 671 0
v -1024 671 0
v -1024 383 0
v -480 575 0
v -480 927 0
v -640 927 0
v -640 575 0
v -864 255 0
v -864 383 0
v -1152 383 0
v -1152 255 0
v -32 1823 0
v -32 2047 0
v -128 2047 0
v -128 1823 0
v -640 1215 0
v -640 1439 0
v -736 1439 0
v -736 1215 0
v -640 991 0
v -640 1215 0
v -736 1215 0
v -736 991 0
v -128 1599 0
v -128 1759 0
v -256 1759 0
v -256 1599 0
v -384 1663 0
v -384 1759 0
v -576 1759 0
v -576 1663 0
v -96 991 0
v -96 1119 0
v -224 1119 0
v -224 991 0
v -736 991 0
v -736 1119 0
v -864 1119 0
v -864 991 0
v -1024 127 0
v -1024 255 0
v -1120 255 0
v -1120 127 0
v -1056 735 0
v -1056 863 0
v -1152 863 0
v -1152 735 0
v -1056 863 0
v -1056 991 0
v -1152 991 0
v -1152 863 0
v -928 0 0
v -928 127 0
v -1024 127 0
v -1024 0 0
v -928 127 0
v -928 255 0
v -1024 255 0
v -1024 127 0
v -64 1759 0
v -64 1823 0
v -192 1823 0
v -192 1759 0
v -576 447 0
v -576 575 0
v -640 575 0
v -640 447 0
v -1184 863 0
v -1184 991 0
v -1248 991 0
v -1248 863 0
v -32 1087 0
v -32 1215 0
v -96 1215 0
v -96 1087 0
v -1120 575 0
v -1120 639 0
v -1216 639 0
v -1216 575 0
v -1184 511 0
v -1184 575 0
v -1259 575 0
v -1259 511 0
v -160 927 0
v -160 991 0
v -256 991 0
v -256 927 0
v -736 1119 0
v -736 1215 0
v -800 1215 0
v -800 1119 0
v -1024 447 0
v -1024 543 0
v -1088 543 0
v -1088 447 0
v -1088 639 0
v -1088 735 0
v -1152 735 0
v -1152 639 0
v -1024 671 0
v -1024 831 0
v -1056 831 0
v -1056 671 0
v -1024 831 0
v -1024 991 0
v -1056 991 0
v -1056 831 0
v -864 991 0
v -864 1055 0
v -928 1055 0
v -928 991 0
v -192 1535 0
v -192 1599 0
v -256 1599 0
v -256 1535 0
v -96 1119 0
v -96 1183 0
v -160 1183 0
v -160 1119 0
v -1088 415 0
v -1088 479 0
v -1152 479 0
v -1152 415 0
v -416 543 0
v -416 607 0
v -480 607 0
v -480 543 0
v -224 1119 0
v -224 1247 0
v -256 1247 0
v -256 1119 0
v -448 799 0
v -448 927 0
v -480 927 0
v -480 799 0
v -448 671 0
v -448 799 0
v -480 799 0
v -480 671 0
v -224 1247 0
v -224 1375 0
v -256 1375 0
v -256 1247 0
v -1024 383 0
v -1024 447 0
v -1088 447 0
v -1088 383 0
v -1152 703 0
v -1152 799 0
v -1184 799 0
v -1184 703 0
v -1152 799 0
v -1152 895 0
v -1184 895 0
v -1184 799 0
v -640 1503 0
v -640 1599 0
v -672 1599 0
v -672 1503 0
v -0 1951 0
v -0 2047 0
v -32 2047 0
v -32 1951 0
v -1152 927 0
v -1152 991 0
v -1184 991 0
v -1184 927 0
v -64 1023 0
v -64 1087 0
v -96 1087 0
v -96 1023 0
v -736 1215 0
v -736 1279 0
v -768 1279 0
v -768 1215 0
v -576 1663 0
v -576 1727 0
v -608 1727 0
v -608 1663 0
v -352 1663 0
v -352 1727 0
v -384 1727 0
v -384 1663 0
v -192 1311 0
v -192 1375 0
v -224 1375 0
v -224 1311 0
v -672 1439 0
v -672 1503 0
v -704 1503 0
v -704 1439 0
v -608 383 0
v -608 447 0
v -640 447 0
v -640 383 0
v -1024 543 0
v -1024 607 0
v -1056 607 0
v -1056 543 0
v -512 543 0
v -512 575 0
v -576 575 0
v -576 543 0
v -800 351 0
v -800 383 0
v -864 383 0
v -864 351 0
v -1248 895 0
v -1248 959 0
v -1259 959 0
v -1259 895 0
v -352 895 0
v -352 927 0
v -416 927 0
v -416 895 0
v -1216 607 0
v -1216 671 0
v -1248 671 0
v -1248 607 0
v -256 1663 0
v -256 1727 0
v -288 1727 0
v -288 1663 0
v -96 1695 0
v -96 1759 0
v -128 1759 0
v -128 1695 0
v -192 1215 0
v -192 1279 0
v -224 1279 0
v -224 1215 0
v -128 1823 0
v -128 1887 0
v -160 1887 0
v -160 1823 0
v -0 1887 0
v -0 1951 0
v -32 1951 0
v -32 1887 0
v -640 1439 0
v -640 1503 0
v -672 1503 0
v -672 1439 0
v -224 1023 0
v -224 1087 0
v -256 1087 0
v -256 1023 0
v -896 31 0
v -896 95 0
v -928 95 0
v -928 31 0
v -1024 63 0
v -1024 127 0
v -1056 127 0
v -1056 63 0
v -128 1887 0
v -128 1951 0
v -160 1951 0
v -160 1887 0
v -448 607 0
v -448 639 0
v -480 639 0
v -480 607 0
v -1152 639 0
v -1152 671 0
v -1184 671 0
v -1184 639 0
v -1184 831 0
v -1184 863 0
v -1216 863 0
v -1216 831 0
v -864 1055 0
v -864 1087 0
v -896 1087 0
v -896 1055 0
v -928 991 0
v -928 1023 0
v -960 1023 0
v -960 991 0
v -800 1119 0
v -800 1151 0
v -832 1151 0
v -832 1119 0
v -128 959 0
v -128 991 0
v -160 991 0
v -160 959 0
v -384 575 0
v -384 607 0
v -416 607 0
v -416 575 0
v -1088 383 0
v -1088 415 0
v -1120 415 0
v -1120 383 0
v -832 319 0
v -832 351 0
v -864 351 0
v -864 319 0
v -896 223 0
v -896 255 0
v -928 255 0
v -928 223 0
v -1120 479 0
v -1120 511 0
v -1152 511 0
v -1152 479 0
v -1152 543 0
v -1152 575 0
v -1184 575 0
v -1184 543 0
v -544 511 0
v -544 543 0
v -576 543 0
v -576 511 0
v -1056 95 0
v -1056 127 0
v -1088 127 0
v -1088 95 0
v -96 1663 0
v -96 1695 0
v -128 1695 0
v -128 1663 0
v -160 1823 0
v -160 1855 0
v -192 1855 0
v -192 1823 0
v -192 1759 0
v -192 1791 0
v -224 1791 0
v -224 1759 0
v -192 1183 0
v -192 1215 0
v -224 1215 0
v -224 1183 0
v -896 0 0
v -896 31 0
v -928 31 0
v -928 0 0
v -1024 31 0
v -1024 63 0
v -1056 63 0
v -1056 31 0
v -224 991 0
v -224 1023 0
v -256 1023 0
v -256 991 0
v -448 1759 0
v -448 1791 0
v -480 1791 0
v -480 1759 0
v -672 1567 0
v -672 1599 0
v -704 1599 0
v -704 1567 0
v -224 1503 0
v -224 1535 0
v -256 1535 0
v -256 1503 0
v -736 1311 0
v -736 1343 0
v -768 1343 0
v -768 1311 0
v -160 1567 0
v -160 1599 0
v -192 1599 0
v -192 1567 0
v -64 1727 0
v -64 1759 0
v -96 1759 0
v -96 1727 0
v -320 1663 0
v -320 1695 0
v -352 1695 0
v -352 1663 0
v -608 1663 0
v -608 1695 0
v -640 1695 0
v -640 1663 0
vt 0.00048828125 0.00171822309
vt 0.00048828125 0.661512017
vt 0.187988281 0.661512017
vt 0.187988281 0.00171822309
vt 0.188964844 0.00171822309
vt 0.188964844 0.606529236
vt 0.376464844 0.606529236
vt 0.376464844 0.00171822309
vt 0.377441406 0.00171822309
vt 0.377441406 0.551546395
vt 0.564941406 0.551546395
vt 0.564941406 0.00171822309
vt 0.565917969 0.00171822309
vt 0.565917969 0.496563554
vt 0.753417969 0.496563554
vt 0.753417969 0.00171822309
vt 0.754394531 0.00171822309
vt 0.754394531 0.606529236
vt 0.832519531 0.606529236
vt 0.832519531 0.00171822309
vt 0.833496094 0.00171822309
vt 0.833496094 0.221649468
vt 0.974121094 0.221649468
vt 0.974121094 0.00171822309
vt 0.833496094 0.225085914
vt 0.833496094 0.609965622
vt 0.880371094 0.609965622
vt 0.880371094 0.225085914
vt 0.881347656 0.225085914
vt 0.881347656 0.609965622
vt 0.928222656 0.609965622
vt 0.928222656 0.225085914
vt 0.929199219 0.225085914
vt 0.929199219 0.609965622
vt 0.976074219 0.609965622
vt 0.976074219 0.225085914
vt 0.565917969 0.5
vt 0.565917969 0.774914086
vt 0.628417969 0.774914086
vt 0.628417969 0.5
vt 0.629394531 0.5
vt 0.629394531 0.664948463
vt 0.723144531 0.664948463
vt 0.723144531 0.5
vt 0.377441406 0.554982781
vt 0.377441406 0.774914086
vt 0.439941406 0.774914086
vt 0.439941406 0.554982781
vt 0.440917969 0.554982781
vt 0.440917969 0.774914086
vt 0.503417969 0.774914086
vt 0.503417969 0.554982781
vt 0.504394531 0.554982781
vt 0.504394531 0.774914086
vt 0.551269531 0.774914086
vt 0.551269531 0.554982781
vt 0.188964844 0.609965622
vt 0.188964844 0.829896927
vt 0.235839844 0.829896927
vt 0.235839844 0.609965622
vt 0.236816406 0.609965622
vt 0.236816406 0.829896927
vt 0.283691406 0.829896927
vt 0.283691406 0.609965622
vt 0.284667969 0.609965622
vt 0.284667969 0.829896927
vt 0.331542969 0.829896927
vt 0.331542969 0.609965622
vt 0.754394531 0.609965622
vt 0.754394531 0.829896927
vt 0.801269531 0.829896927
vt 0.801269531 0.609965622
vt 0.833496094 0.613402069
vt 0.833496094 0.723367691
vt 0.895996094 0.723367691
vt 0.895996094 0.613402069
vt 0.332519531 0.609965622
vt 0.332519531 0.829896927
vt 0.363769531 0.829896927
vt 0.363769531 0.609965622
vt 0.896972656 0.613402069
vt 0.896972656 0.833333313
vt 0.928222656 0.833333313
vt 0.928222656 0.613402069
vt 0.929199219 0.613402069
vt 0.929199219 0.833333313
vt 0.960449219 0.833333313
vt 0.960449219 0.613402069
vt 0.00048828125 0.664948463
vt 0.00048828125 0.774914086
vt 0.0473632812 0.774914086
vt 0.0473632812 0.664948463
vt 0.961425781 0.613402069
vt 0.961425781 0.723367691
vt 0.998535156 0.723367691
vt 0.998535156 0.613402069
vt 0.0483398438 0.664948463
vt 0.0483398438 0.774914086
vt 0.0952148438 0.774914086
vt 0.0952148438 0.664948463
vt 0.0961914062 0.664948463
vt 0.0961914062 0.829896927
vt 0.127441406 0.829896927
vt 0.127441406 0.664948463
vt 0.128417969 0.664948463
vt 0.128417969 0.829896927
vt 0.159667969 0.829896927
vt 0.159667969 0.664948463
vt 0.629394531 0.66838491
vt 0.629394531 0.833333313
vt 0.660644531 0.833333313
vt 0.660644531 0.66838491
vt 0.724121094 0.5
vt 0.724121094 0.774914086
vt 0.739746094 0.774914086
vt 0.739746094 0.5
vt 0.802246094 0.609965622
vt 0.802246094 0.884879708
vt 0.817871094 0.884879708
vt 0.817871094 0.609965622
vt 0.661621094 0.66838491
vt 0.661621094 0.778350532
vt 0.692871094 0.778350532
vt 0.692871094 0.66838491
vt 0.833496094 0.726804137
vt 0.833496094 0.83676976
vt 0.864746094 0.83676976
vt 0.864746094 0.726804137
vt 0.961425781 0.726804137
vt 0.961425781 0.83676976
vt 0.992675781 0.83676976
vt 0.992675781 0.726804137
vt 0.00048828125 0.778350532
vt 0.00048828125 0.888316154
vt 0.0317382812 0.888316154
vt 0.0317382812 0.778350532
vt 0.0327148438 0.778350532
vt 0.0327148438 0.888316154
vt 0.0639648438 0.888316154
vt 0.0639648438 0.778350532
vt 0.160644531 0.664948463
vt 0.160644531 0.884879708
vt 0.176269531 0.884879708
vt 0.176269531 0.664948463
vt 0.693847656 0.66838491
vt 0.693847656 0.888316154
vt 0.709472656 0.888316154
vt 0.709472656 0.66838491
vt 0.865722656 0.726804137
vt 0.865722656 0.946735382
vt 0.881347656 0.946735382
vt 0.881347656 0.726804137
vt 0.0649414062 0.778350532
vt 0.0649414062 0.998281777
vt 0.0805664062 0.998281777
vt 0.0805664062 0.778350532
vt 0.377441406 0.778350532
vt 0.377441406 0.888316154
vt 0.408691406 0.888316154
vt 0.408691406 0.778350532
vt 0.409667969 0.778350532
vt 0.409667969 0.943298995
vt 0.425292969 0.943298995
vt 0.425292969 0.778350532
vt 0.426269531 0.778350532
vt 0.426269531 0.943298995
vt 0.441894531 0.943298995
vt 0.441894531 0.778350532
vt 0.442871094 0.778350532
vt 0.442871094 0.943298995
vt 0.458496094 0.943298995
vt 0.458496094 0.778350532
vt 0.459472656 0.778350532
vt 0.459472656 0.943298995
vt 0.475097656 0.943298995
vt 0.475097656 0.778350532
vt 0.476074219 0.778350532
vt 0.476074219 0.888316154
vt 0.491699219 0.888316154
vt 0.491699219 0.778350532
vt 0.492675781 0.778350532
vt 0.492675781 0.888316154
vt 0.508300781 0.888316154
vt 0.508300781 0.778350532
vt 0.509277344 0.778350532
vt 0.509277344 0.888316154
vt 0.524902344 0.888316154
vt 0.524902344 0.778350532
vt 0.525878906 0.778350532
vt 0.525878906 0.888316154
vt 0.541503906 0.888316154
vt 0.541503906 0.778350532
vt 0.542480469 0.778350532
vt 0.542480469 0.888316154
vt 0.558105469 0.888316154
vt 0.558105469 0.778350532
vt 0.565917969 0.778350532
vt 0.565917969 0.888316154
vt 0.581542969 0.888316154
vt 0.581542969 0.778350532
vt 0.582519531 0.778350532
vt 0.582519531 0.888316154
vt 0.598144531 0.888316154
vt 0.598144531 0.778350532
vt 0.599121094 0.778350532
vt 0.599121094 0.888316154
vt 0.614746094 0.888316154
vt 0.614746094 0.778350532
vt 0.724121094 0.778350532
vt 0.724121094 0.888316154
vt 0.739746094 0.888316154
vt 0.739746094 0.778350532
vt 0.661621094 0.781786919
vt 0.661621094 0.83676976
vt 0.692871094 0.83676976
vt 0.692871094 0.781786919
vt 0.0961914062 0.833333313
vt 0.0961914062 0.888316154
vt 0.127441406 0.888316154
vt 0.127441406 0.833333313
vt 0.740722656 0.5
vt 0.740722656 0.609965622
vt 0.746582031 0.609965622
vt 0.746582031 0.5
vt 0.128417969 0.833333313
vt 0.128417969 0.888316154
vt 0.159667969 0.888316154
vt 0.159667969 0.833333313
vt 0.188964844 0.833333313
vt 0.188964844 0.943298995
vt 0.204589844 0.943298995
vt 0.204589844 0.833333313
vt 0.205566406 0.833333313
vt 0.205566406 0.943298995
vt 0.221191406 0.943298995
vt 0.221191406 0.833333313
vt 0.222167969 0.833333313
vt 0.222167969 0.943298995
vt 0.237792969 0.943298995
vt 0.237792969 0.833333313
vt 0.238769531 0.833333313
vt 0.238769531 0.943298995
vt 0.254394531 0.943298995
vt 0.254394531 0.833333313
vt 0.255371094 0.833333313
vt 0.255371094 0.943298995
vt 0.270996094 0.943298995
vt 0.270996094 0.833333313
vt 0.271972656 0.833333313
vt 0.271972656 0.943298995
vt 0.287597656 0.943298995
vt 0.287597656 0.833333313
vt 0.288574219 0.833333313
vt 0.288574219 0.943298995
vt 0.304199219 0.943298995
vt 0.304199219 0.833333313
vt 0.305175781 0.833333313
vt 0.305175781 0.943298995
vt 0.320800781 0.943298995
vt 0.320800781 0.833333313
vt 0.321777344 0.833333313
vt 0.321777344 0.943298995
vt 0.337402344 0.943298995
vt 0.337402344 0.833333313
vt 0.338378906 0.833333313
vt 0.338378906 0.943298995
vt 0.354003906 0.943298995
vt 0.354003906 0.833333313
vt 0.354980469 0.833333313
vt 0.354980469 0.943298995
vt 0.370605469 0.943298995
vt 0.370605469 0.833333313
vt 0.754394531 0.833333313
vt 0.754394531 0.888316154
vt 0.770019531 0.888316154
vt 0.770019531 0.833333313
vt 0.770996094 0.833333313
vt 0.770996094 0.888316154
vt 0.786621094 0.888316154
vt 0.786621094 0.833333313
vt 0.629394531 0.83676976
vt 0.629394531 0.891752601
vt 0.645019531 0.891752601
vt 0.645019531 0.83676976
vt 0.896972656 0.83676976
vt 0.896972656 0.891752601
vt 0.912597656 0.891752601
vt 0.912597656 0.83676976
vt 0.913574219 0.83676976
vt 0.913574219 0.891752601
vt 0.929199219 0.891752601
vt 0.929199219 0.83676976
vt 0.930175781 0.83676976
vt 0.930175781 0.891752601
vt 0.945800781 0.891752601
vt 0.945800781 0.83676976
vt 0.661621094 0.840206206
vt 0.661621094 0.895188987
vt 0.677246094 0.895188987
vt 0.677246094 0.840206206
vt 0.833496094 0.840206206
vt 0.833496094 0.895188987
vt 0.849121094 0.895188987
vt 0.849121094 0.840206206
vt 0.961425781 0.840206206
vt 0.961425781 0.895188987
vt 0.977050781 0.895188987
vt 0.977050781 0.840206206
vt 0.978027344 0.840206206
vt 0.978027344 0.895188987
vt 0.993652344 0.895188987
vt 0.993652344 0.840206206
vt 0.160644531 0.888316154
vt 0.160644531 0.943298995
vt 0.176269531 0.943298995
vt 0.176269531 0.888316154
vt 0.802246094 0.888316154
vt 0.802246094 0.943298995
vt 0.817871094 0.943298995
vt 0.817871094 0.888316154
vt 0.00048828125 0.891752601
vt 0.00048828125 0.946735382
vt 0.0161132812 0.946735382
vt 0.0161132812 0.891752601
vt 0.0170898438 0.891752601
vt 0.0170898438 0.946735382
vt 0.0327148438 0.946735382
vt 0.0327148438 0.891752601
vt 0.0336914062 0.891752601
vt 0.0336914062 0.946735382
vt 0.0493164062 0.946735382
vt 0.0493164062 0.891752601
vt 0.0961914062 0.891752601
vt 0.0961914062 0.946735382
vt 0.111816406 0.946735382
vt 0.111816406 0.891752601
vt 0.112792969 0.891752601
vt 0.112792969 0.946735382
vt 0.128417969 0.946735382
vt 0.128417969 0.891752601
vt 0.129394531 0.891752601
vt 0.129394531 0.946735382
vt 0.145019531 0.946735382
vt 0.145019531 0.891752601
vt 0.377441406 0.891752601
vt 0.377441406 0.946735382
vt 0.393066406 0.946735382
vt 0.393066406 0.891752601
vt 0.476074219 0.891752601
vt 0.476074219 0.946735382
vt 0.491699219 0.946735382
vt 0.491699219 0.891752601
vt 0.492675781 0.891752601
vt 0.492675781 0.946735382
vt 0.508300781 0.946735382
vt 0.508300781 0.891752601
vt 0.509277344 0.891752601
vt 0.509277344 0.946735382
vt 0.524902344 0.946735382
vt 0.524902344 0.891752601
vt 0.525878906 0.891752601
vt 0.525878906 0.946735382
vt 0.541503906 0.946735382
vt 0.541503906 0.891752601
vt 0.542480469 0.891752601
vt 0.542480469 0.946735382
vt 0.558105469 0.946735382
vt 0.558105469 0.891752601
vt 0.565917969 0.891752601
vt 0.565917969 0.946735382
vt 0.581542969 0.946735382
vt 0.581542969 0.891752601
vt 0.582519531 0.891752601
vt 0.582519531 0.946735382
vt 0.598144531 0.946735382
vt 0.598144531 0.891752601
vt 0.599121094 0.891752601
vt 0.599121094 0.946735382
vt 0.614746094 0.946735382
vt 0.614746094 0.891752601
vt 0.693847656 0.891752601
vt 0.693847656 0.946735382
vt 0.709472656 0.946735382
vt 0.709472656 0.891752601
vt 0.724121094 0.891752601
vt 0.724121094 0.946735382
vt 0.739746094 0.946735382
vt 0.739746094 0.891752601
vt 0.754394531 0.891752601
vt 0.754394531 0.946735382
vt 0.770019531 0.946735382
vt 0.770019531 0.891752601
g kewei_4_rw-mesh_0
f 3/3/3 2/2/2 1/1/1
f 1/1/1 4/4/4 3/3/3
f 7/7/7 6/6/6 5/5/5
f 5/5/5 8/8/8 7/7/7
f 11/11/11 10/10/10 9/9/9
f 9/9/9 12/12/12 11/11/11
f 15/15/15 14/14/14 13/13/13
f 13/13/13 16/16/16 15/15/15
f 19/19/19 18/18/18 17/17/17
f 17/17/17 20/20/20 19/19/19
f 23/23/23 22/22/22 21/21/21
f 21/21/21 24/24/24 23/23/23
f 27/27/27 26/26/26 25/25/25
f 25/25/25 28/28/28 27/27/27
f 31/31/31 30/30/30 29/29/29
f 29/29/29 32/32/32 31/31/31
f 35/35/35 34/34/34 33/33/33
f 33/33/33 36/36/36 35/35/35
f 39/39/39 38/38/38 37/37/37
f 37/37/37 40/40/40 39/39/39
f 43/43/43 42/42/42 41/41/41
f 41/41/41 44/44/44 43/43/43
f 47/47/47 46/46/46 45/45/45
f 45/45/45 48/48/48 47/47/47
f 51/51/51 50/50/50 49/49/49
f 49/49/49 52/52/52 51/51/51
f 55/55/55 54/54/54 53/53/53
f 53/53/53 56/56/56 55/55/55
f 59/59/59 58/58/58 57/57/57
f 57/57/57 60/60/60 59/59/59
f 63/63/63 62/62/62 61/61/61
f 61/61/61 64/64/64 63/63/63
f 67/67/67 66/66/66 65/65/65
f 65/65/65 68/68/68 67/67/67
f 71/71/71 70/70/70 69/69/69
f 69/69/69 72/72/72 71/71/71
f 75/75/75 74/74/74 73/73/73
f 73/73/73 76/76/76 75/75/75
f 79/79/79 78/78/78 77/77/77
f 77/77/77 80/80/80 79/79/79
f 83/83/83 82/82/82 81/81/81
f 81/81/81 84/84/84 83/83/83
f 87/87/87 86/86/86 85/85/85
f 85/85/85 88/88/88 87/87/87
f 91/91/91 90/90/90 89/89/89
f 89/89/89 92/92/92 91/91/91
f 95/95/95 94/94/94 93/93/93
f 93/93/93 96/96/96 95/95/95
f 99/99/99 98/98/98 97/97/97
f 97/97/97 100/100/100 99/99/99
f 103/103/103 102/102/102 101/101/101
f 101/101/101 104/104/104 103/103/103
f 107/107/107 106/106/106 105/105/105
f 105/105/105 108/108/108 107/107/107
f 111/111/111 110/110/110 109/109/109
f 109/109/109 112/112/112 111/111/111
f 115/115/115 114/114/114 113/113/113
f 113/113/113 116/116/116 115/115/115
f 119/119/119 118/118/118 117/117/117
f 117/117/117 120/120/120 119/119/119
f 123/123/123 122/122/122 121/121/121
f 121/121/121 124/124/124 123/123/123
f 127/127/127 126/126/126 125/125/125
f 125/125/125 128/128/128 127/127/127
f 131/131/131 130/130/130 129/129/129
f 129/129/129 132/132/132 131/131/131
f 135/135/135 134/134/134 133/133/133
f 133/133/133 136/136/136 135/135/135
f 139/139/139 138/138/138 137/137/137
f 137/137/137 140/140/140 139/139/139
f 143/143/143 142/142/142 141/141/141
f 141/141/141 144/144/144 143/143/143
f 147/147/147 146/146/146 145/145/145
f 145/145/145 148/148/148 147/147/147
f 151/151/151 150/150/150 149/149/149
f 149/149/149 152/152/152 151/151/151
f 155/155/155 154/154/154 153/153/153
f 153/153/153 156/156/156 155/155/155
f 159/159/159 158/158/158 157/157/157
f 157/157/157 160/160/160 159/159/159
f 163/163/163 162/162/162 161/161/161
f 161/161/161 164/164/164 163/163/163
f 167/167/167 166/166/166 165/165/165
f 165/165/165 168/168/168 167/167/167
f 171/171/171 170/170/170 169/169/169
f 169/169/169 172/172/172 171/171/171
f 175/175/175 174/174/174 173/173/173
f 173/173/173 176/176/176 175/175/175
f 179/179/179 178/178/178 177/177/177
f 177/177/177 180/180/180 179/179/179
f 183/183/183 182/182/182 181/181/181
f 181/181/181 184/184/184 183/183/183
f 187/187/187 186/186/186 185/185/185
f 185/185/185 188/188/188 187/187/187
f 191/191/191 190/190/190 189/189/189
f 189/189/189 192/192/192 191/191/191
f 195/195/195 194/194/194 193/193/193
f 193/193/193 196/196/196 195/195/195
f 199/199/199 198/198/198 197/197/197
f 197/197/197 200/200/200 199/199/199
f 203/203/203 202/202/202 201/201/201
f 201/201/201 204/204/204 203/203/203
f 207/207/207 206/206/206 205/205/205
f 205/205/205 208/208/208 207/207/207
f 211/211/211 210/210/210 209/209/209
f 209/209/209 212/212/212 211/211/211
f 215/215/215 214/214/214 213/213/213
f 213/213/213 216/216/216 215/215/215
f 219/219/219 218/218/218 217/217/217
f 217/217/217 220/220/220 219/219/219
f 223/223/223 222/222/222 221/221/221
f 221/221/221 224/224/224 223/223/223
f 227/227/227 226/226/226 225/225/225
f 225/225/225 228/228/228 227/227/227
f 231/231/231 230/230/230 229/229/229
f 229/229/229 232/232/232 231/231/231
f 235/235/235 234/234/234 233/233/233
f 233/233/233 236/236/236 235/235/235
f 239/239/239 238/238/238 237/237/237
f 237/237/237 240/240/240 239/239/239
f 243/243/243 242/242/242 241/241/241
f 241/241/241 244/244/244 243/243/243
f 247/247/247 246/246/246 245/245/245
f 245/245/245 248/248/248 247/247/247
f 251/251/251 250/250/250 249/249/249
f 249/249/249 252/252/252 251/251/251
f 255/255/255 254/254/254 253/253/253
f 253/253/253 256/256/256 255/255/255
f 259/259/259 258/258/258 257/257/257
f 257/257/257 260/260/260 259/259/259
f 263/263/263 262/262/262 261/261/261
f 261/261/261 264/264/264 263/263/263
f 267/267/267 266/266/266 265/265/265
f 265/265/265 268/268/268 267/267/267
f 271/271/271 270/270/270 269/269/269
f 269/269/269 272/272/272 271/271/271
f 275/275/275 274/274/274 273/273/273
f 273/273/273 276/276/276 275/275/275
f 279/279/279 278/278/278 277/277/277
f 277/277/277 280/280/280 279/279/279
f 283/283/283 282/282/282 281/281/281
f 281/281/281 284/284/284 283/283/283
f 287/287/287 286/286/286 285/285/285
f 285/285/285 288/288/288 287/287/287
f 291/291/291 290/290/290 289/289/289
f 289/289/289 292/292/292 291/291/291
f 295/295/295 294/294/294 293/293/293
f 293/293/293 296/296/296 295/295/295
f 299/299/299 298/298/298 297/297/297
f 297/297/297 300/300/300 299/299/299
f 303/303/303 302/302/302 301/301/301
f 301/301/301 304/304/304 303/303/303
f 307/307/307 306/306/306 305/305/305
f 305/305/305 308/308/308 307/307/307
f 311/311/311 310/310/310 309/309/309
f 309/309/309 312/312/312 311/311/311
f 315/315/315 314/314/314 313/313/313
f 313/313/313 316/316/316 315/315/315
f 319/319/319 318/318/318 317/317/317
f 317/317/317 320/320/320 319/319/319
f 323/323/323 322/322/322 321/321/321
f 321/321/321 324/324/324 323/323/323
f 327/327/327 326/326/326 325/325/325
f 325/325/325 328/328/328 327/327/327
f 331/331/331 330/330/330 329/329/329
f 329/329/329 332/332/332 331/331/331
f 335/335/335 334/334/334 333/333/333
f 333/333/333 336/336/336 335/335/335
f 339/339/339 338/338/338 337/337/337
f 337/337/337 340/340/340 339/339/339
f 343/343/343 342/342/342 341/341/341
f 341/341/341 344/344/344 343/343/343
f 347/347/347 346/346/346 345/345/345
f 345/345/345 348/348/348 347/347/347
f 351/351/351 350/350/350 349/349/349
f 349/349/349 352/352/352 351/351/351
f 355/355/355 354/354/354 353/353/353
f 353/353/353 356/356/356 355/355/355
f 359/359/359 358/358/358 357/357/357
f 357/357/357 360/360/360 359/359/359
f 363/363/363 362/362/362 361/361/361
f 361/361/361 364/364/364 363/363/363
f 367/367/367 366/366/366 365/365/365
f 365/365/365 368/368/368 367/367/367
f 371/371/371 370/370/370 369/369/369
f 369/369/369 372/372/372 371/371/371
f 375/375/375 374/374/374 373/373/373
f 373/373/373 376/376/376 375/375/375
f 379/379/379 378/378/378 377/377/377
f 377/377/377 380/380/380 379/379/379
f 383/383/383 382/382/382 381/381/381
f 381/381/381 384/384/384 383/383/383
f 387/387/387 386/386/386 385/385/385
f 385/385/385 388/388/388 387/387/387
f 391/391/391 390/390/390 389/389/389
f 389/389/389 392/392/392 391/391/391
