g dengken_bj-mesh
v -1408 289 0
v -1408 705 0
v -1696 705 0
v -1696 289 0
v -1408 705 0
v -1408 1121 0
v -1696 1121 0
v -1696 705 0
v -0 513 0
v -0 769 0
v -384 769 0
v -384 513 0
v -384 513 0
v -384 769 0
v -736 769 0
v -736 513 0
v -1696 513 0
v -1696 833 0
v -1888 833 0
v -1888 513 0
v -1696 833 0
v -1696 1153 0
v -1888 1153 0
v -1888 833 0
v -256 257 0
v -256 513 0
v -480 513 0
v -480 257 0
v -512 225 0
v -512 417 0
v -800 417 0
v -800 225 0
v -736 417 0
v -736 609 0
v -992 609 0
v -992 417 0
v -32 769 0
v -32 865 0
v -416 865 0
v -416 769 0
v -576 865 0
v -576 1025 0
v -800 1025 0
v -800 865 0
v -416 769 0
v -416 865 0
v -768 865 0
v -768 769 0
v -1120 961 0
v -1120 1089 0
v -1344 1089 0
v -1344 961 0
v -1280 385 0
v -1280 577 0
v -1408 577 0
v -1408 385 0
v -1888 897 0
v -1888 1057 0
v -2016 1057 0
v -2016 897 0
v -1216 1185 0
v -1216 1313 0
v -1376 1313 0
v -1376 1185 0
v -1888 737 0
v -1888 897 0
v -2016 897 0
v -2016 737 0
v -64 321 0
v -64 513 0
v -160 513 0
v -160 321 0
v -1088 1281 0
v -1088 1409 0
v -1216 1409 0
v -1216 1281 0
v -1664 1409 0
v -1664 1537 0
v -1792 1537 0
v -1792 1409 0
v -1536 1185 0
v -1536 1313 0
v -1664 1313 0
v -1664 1185 0
v -256 865 0
v -256 1057 0
v -320 1057 0
v -320 865 0
v -1024 833 0
v -1024 929 0
v -1152 929 0
v -1152 833 0
v -928 1409 0
v -928 1505 0
v -1056 1505 0
v -1056 1409 0
v -256 1057 0
v -256 1249 0
v -320 1249 0
v -320 1057 0
v -1344 897 0
v -1344 1057 0
v -1408 1057 0
v -1408 897 0
v -928 1089 0
v -928 1153 0
v -1088 1153 0
v -1088 1089 0
v -1088 673 0
v -1088 769 0
v -1184 769 0
v -1184 673 0
v -480 417 0
v -480 513 0
v -576 513 0
v -576 417 0
v -928 1 0
v -928 65 0
v -1056 65 0
v -1056 1 0
v -0 385 0
v -0 513 0
v -64 513 0
v -64 385 0
v -1312 1121 0
v -1312 1185 0
v -1440 1185 0
v -1440 1121 0
v -1280 673 0
v -1280 801 0
v -1344 801 0
v -1344 673 0
v -960 1025 0
v -960 1089 0
v -1088 1089 0
v -1088 1025 0
v -1504 1569 0
v -1504 1633 0
v -1632 1633 0
v -1632 1569 0
v -1792 1345 0
v -1792 1473 0
v -1856 1473 0
v -1856 1345 0
v -960 257 0
v -960 385 0
v -1024 385 0
v -1024 257 0
v -896 801 0
v -896 929 0
v -960 929 0
v -960 801 0
v -1056 97 0
v -1056 353 0
v -1088 353 0
v -1088 97 0
v -1056 353 0
v -1056 609 0
v -1088 609 0
v -1088 353 0
v -960 129 0
v -960 257 0
v -1024 257 0
v -1024 129 0
v -352 161 0
v -352 225 0
v -480 225 0
v -480 161 0
v -320 1153 0
v -320 1409 0
v -352 1409 0
v -352 1153 0
v -896 673 0
v -896 801 0
v -960 801 0
v -960 673 0
v -1088 1089 0
v -1088 1153 0
v -1216 1153 0
v -1216 1089 0
v -1344 769 0
v -1344 897 0
v -1408 897 0
v -1408 769 0
v -480 161 0
v -480 225 0
v -608 225 0
v -608 161 0
v -352 1249 0
v -352 1473 0
v -384 1473 0
v -384 1249 0
v -320 929 0
v -320 1153 0
v -352 1153 0
v -352 929 0
v -64 929 0
v -64 1025 0
v -128 1025 0
v -128 929 0
v -1920 1153 0
v -1920 1249 0
v -1984 1249 0
v -1984 1153 0
v -640 449 0
v -640 513 0
v -736 513 0
v -736 449 0
v -1184 833 0
v -1184 929 0
v -1248 929 0
v -1248 833 0
v -352 1057 0
v -352 1249 0
v -384 1249 0
v -384 1057 0
v -1056 1 0
v -1056 65 0
v -1152 65 0
v -1152 1 0
v -1856 1185 0
v -1856 1281 0
v -1920 1281 0
v -1920 1185 0
v -128 161 0
v -128 257 0
v -192 257 0
v -192 161 0
v -128 65 0
v -128 161 0
v -192 161 0
v -192 65 0
v -1440 1121 0
v -1440 1185 0
v -1536 1185 0
v -1536 1121 0
v -1856 1281 0
v -1856 1377 0
v -1920 1377 0
v -1920 1281 0
v -0 289 0
v -0 385 0
v -64 385 0
v -64 289 0
v -192 321 0
v -192 513 0
v -224 513 0
v -224 321 0
v -192 161 0
v -192 321 0
v -224 321 0
v -224 161 0
v -1568 1153 0
v -1568 1185 0
v -1728 1185 0
v -1728 1153 0
v -1376 1185 0
v -1376 1249 0
v -1440 1249 0
v -1440 1185 0
v -1472 257 0
v -1472 289 0
v -1600 289 0
v -1600 257 0
v -352 97 0
v -352 161 0
v -416 161 0
v -416 97 0
v -1216 1313 0
v -1216 1377 0
v -1280 1377 0
v -1280 1313 0
v -1280 897 0
v -1280 961 0
v -1344 961 0
v -1344 897 0
v -768 1025 0
v -768 1089 0
v -832 1089 0
v -832 1025 0
v -1952 609 0
v -1952 673 0
v -2016 673 0
v -2016 609 0
v -1664 1185 0
v -1664 1249 0
v -1728 1249 0
v -1728 1185 0
v -1184 769 0
v -1184 833 0
v -1248 833 0
v -1248 769 0
v -1728 1153 0
v -1728 1185 0
v -1856 1185 0
v -1856 1153 0
v -1920 1089 0
v -1920 1153 0
v -1984 1153 0
v -1984 1089 0
v -64 865 0
v -64 929 0
v -128 929 0
v -128 865 0
v -384 1377 0
v -384 1505 0
v -416 1505 0
v -416 1377 0
v -224 865 0
v -224 993 0
v -256 993 0
v -256 865 0
v -2016 929 0
v -2016 1057 0
v -2047 1057 0
v -2047 929 0
v -384 1249 0
v -384 1377 0
v -416 1377 0
v -416 1249 0
v -224 993 0
v -224 1121 0
v -256 1121 0
v -256 993 0
v -800 609 0
v -800 641 0
v -896 641 0
v -896 609 0
v -1056 1377 0
v -1056 1473 0
v -1088 1473 0
v -1088 1377 0
v -800 289 0
v -800 385 0
v -832 385 0
v -832 289 0
v -928 321 0
v -928 417 0
v -960 417 0
v -960 321 0
v -320 225 0
v -320 257 0
v -416 257 0
v -416 225 0
v -2016 833 0
v -2016 929 0
v -2047 929 0
v -2047 833 0
v -416 225 0
v -416 257 0
v -512 257 0
v -512 225 0
v -1600 257 0
v -1600 289 0
v -1696 289 0
v -1696 257 0
v -1664 1537 0
v -1664 1569 0
v -1760 1569 0
v -1760 1537 0
v -1696 417 0
v -1696 513 0
v -1728 513 0
v -1728 417 0
v -256 33 0
v -256 65 0
v -352 65 0
v -352 33 0
v -1696 321 0
v -1696 417 0
v -1728 417 0
v -1728 321 0
v -416 1473 0
v -416 1569 0
v -448 1569 0
v -448 1473 0
v -1568 1537 0
v -1568 1569 0
v -1664 1569 0
v -1664 1537 0
v -160 33 0
v -160 65 0
v -256 65 0
v -256 33 0
v -1152 1249 0
v -1152 1281 0
v -1216 1281 0
v -1216 1249 0
v -1568 1313 0
v -1568 1345 0
v -1632 1345 0
v -1632 1313 0
v -1920 1249 0
v -1920 1313 0
v -1952 1313 0
v -1952 1249 0
v -1984 1313 0
v -1984 1377 0
v -2016 1377 0
v -2016 1313 0
v -1152 1153 0
v -1152 1185 0
v -1216 1185 0
v -1216 1153 0
v -1216 1089 0
v -1216 1121 0
v -1280 1121 0
v -1280 1089 0
v -1344 1089 0
v -1344 1121 0
v -1408 1121 0
v -1408 1089 0
v -1440 1185 0
v -1440 1217 0
v -1504 1217 0
v -1504 1185 0
v -1024 1153 0
v -1024 1185 0
v -1088 1185 0
v -1088 1153 0
v -1888 1057 0
v -1888 1121 0
v -1920 1121 0
v -1920 1057 0
v -1600 225 0
v -1600 257 0
v -1664 257 0
v -1664 225 0
v -1024 129 0
v -1024 193 0
v -1056 193 0
v -1056 129 0
v -896 65 0
v -896 97 0
v -960 97 0
v -960 65 0
v -1888 609 0
v -1888 673 0
v -1920 673 0
v -1920 609 0
v -1024 545 0
v -1024 609 0
v -1056 609 0
v -1056 545 0
v -1152 577 0
v -1152 609 0
v -1216 609 0
v -1216 577 0
v -1600 1505 0
v -1600 1537 0
v -1664 1537 0
v -1664 1505 0
v -1088 1409 0
v -1088 1473 0
v -1120 1473 0
v -1120 1409 0
v -1856 1377 0
v -1856 1441 0
v -1888 1441 0
v -1888 1377 0
v -1632 1569 0
v -1632 1601 0
v -1696 1601 0
v -1696 1569 0
v -448 1505 0
v -448 1569 0
v -480 1569 0
v -480 1505 0
v -928 1505 0
v -928 1537 0
v -992 1537 0
v -992 1505 0
v -1344 353 0
v -1344 385 0
v -1408 385 0
v -1408 353 0
v -832 289 0
v -832 353 0
v -864 353 0
v -864 289 0
v -480 353 0
v -480 417 0
v -512 417 0
v -512 353 0
v -992 385 0
v -992 449 0
v -1024 449 0
v -1024 385 0
v -1088 385 0
v -1088 449 0
v -1120 449 0
v -1120 385 0
v -160 257 0
v -160 321 0
v -192 321 0
v -192 257 0
v -512 129 0
v -512 161 0
v -576 161 0
v -576 129 0
v -320 65 0
v -320 97 0
v -384 97 0
v -384 65 0
v -928 161 0
v -928 225 0
v -960 225 0
v -960 161 0
v -480 257 0
v -480 321 0
v -512 321 0
v -512 257 0
v -864 257 0
v -864 321 0
v -896 321 0
v -896 257 0
v -672 417 0
v -672 449 0
v -736 449 0
v -736 417 0
v -0 769 0
v -0 833 0
v -32 833 0
v -32 769 0
v -1120 769 0
v -1120 833 0
v -1152 833 0
v -1152 769 0
v -1312 833 0
v -1312 897 0
v -1344 897 0
v -1344 833 0
v -1088 961 0
v -1088 1025 0
v -1120 1025 0
v -1120 961 0
v -960 897 0
v -960 929 0
v -1024 929 0
v -1024 897 0
v -1248 737 0
v -1248 801 0
v -1280 801 0
v -1280 737 0
v -1120 513 0
v -1120 545 0
v -1184 545 0
v -1184 513 0
v -224 449 0
v -224 513 0
v -256 513 0
v -256 449 0
v -1248 513 0
v -1248 577 0
v -1280 577 0
v -1280 513 0
v -1216 705 0
v -1216 769 0
v -1248 769 0
v -1248 705 0
v -1344 705 0
v -1344 769 0
v -1376 769 0
v -1376 705 0
v -160 449 0
v -160 513 0
v -192 513 0
v -192 449 0
v -160 385 0
v -160 449 0
v -192 449 0
v -192 385 0
v -1728 449 0
v -1728 513 0
v -1760 513 0
v -1760 449 0
v -1376 577 0
v -1376 641 0
v -1408 641 0
v -1408 577 0
v -1088 545 0
v -1088 577 0
v -1152 577 0
v -1152 545 0
v -1152 545 0
v -1152 577 0
v -1216 577 0
v -1216 545 0
v -1024 289 0
v -1024 353 0
v -1056 353 0
v -1056 289 0
v -1024 225 0
v -1024 289 0
v -1056 289 0
v -1056 225 0
v -896 225 0
v -896 289 0
v -928 289 0
v -928 225 0
v -1728 385 0
v -1728 449 0
v -1760 449 0
v -1760 385 0
v -224 353 0
v -224 417 0
v -256 417 0
v -256 353 0
v -224 289 0
v -224 353 0
v -256 353 0
v -256 289 0
v -1376 641 0
v -1376 705 0
v -1408 705 0
v -1408 641 0
v -928 257 0
v -928 321 0
v -960 321 0
v -960 257 0
v -896 993 0
v -896 1025 0
v -960 1025 0
v -960 993 0
v -960 993 0
v -960 1025 0
v -1024 1025 0
v -1024 993 0
v -416 1409 0
v -416 1473 0
v -448 1473 0
v -448 1409 0
v -1056 1313 0
v -1056 1377 0
v -1088 1377 0
v -1088 1313 0
v -896 609 0
v -896 641 0
v -960 641 0
v -960 609 0
v -1152 929 0
v -1152 961 0
v -1216 961 0
v -1216 929 0
v -2016 705 0
v -2016 769 0
v -2047 769 0
v -2047 705 0
v -2016 641 0
v -2016 705 0
v -2047 705 0
v -2047 641 0
v -192 929 0
v -192 993 0
v -224 993 0
v -224 929 0
v -192 865 0
v -192 929 0
v -224 929 0
v -224 865 0
v -1088 929 0
v -1088 961 0
v -1152 961 0
v -1152 929 0
v -608 1025 0
v -608 1057 0
v -672 1057 0
v -672 1025 0
v -1600 1121 0
v -1600 1153 0
v -1664 1153 0
v -1664 1121 0
v -288 1281 0
v -288 1345 0
v -320 1345 0
v -320 1281 0
v -864 929 0
v -864 993 0
v -896 993 0
v -896 929 0
v -1248 641 0
v -1248 705 0
v -1280 705 0
v -1280 641 0
v -800 225 0
v -800 289 0
v -832 289 0
v -832 225 0
v -544 897 0
v -544 961 0
v -576 961 0
v -576 897 0
v -896 1505 0
v -896 1569 0
v -928 1569 0
v -928 1505 0
v -960 1377 0
v -960 1409 0
v -1024 1409 0
v -1024 1377 0
v -1696 1377 0
v -1696 1409 0
v -1760 1409 0
v -1760 1377 0
v -896 161 0
v -896 225 0
v -928 225 0
v -928 161 0
v -160 865 0
v -160 897 0
v -192 897 0
v -192 865 0
v -1536 1121 0
v -1536 1153 0
v -1568 1153 0
v -1568 1121 0
v -320 865 0
v -320 897 0
v -352 897 0
v -352 865 0
v -1376 1057 0
v -1376 1089 0
v -1408 1089 0
v -1408 1057 0
v -1152 769 0
v -1152 801 0
v -1184 801 0
v -1184 769 0
v -416 865 0
v -416 897 0
v -448 897 0
v -448 865 0
v -928 1057 0
v -928 1089 0
v -960 1089 0
v -960 1057 0
v -736 1025 0
v -736 1057 0
v -768 1057 0
v -768 1025 0
v -1920 1057 0
v -1920 1089 0
v -1952 1089 0
v -1952 1057 0
v -800 993 0
v -800 1025 0
v -832 1025 0
v -832 993 0
v -1152 897 0
v -1152 929 0
v -1184 929 0
v -1184 897 0
v -1248 929 0
v -1248 961 0
v -1280 961 0
v -1280 929 0
v -896 961 0
v -896 993 0
v -928 993 0
v -928 961 0
v -192 65 0
v -192 97 0
v -224 97 0
v -224 65 0
v -1216 609 0
v -1216 641 0
v -1248 641 0
v -1248 609 0
v -1920 609 0
v -1920 641 0
v -1952 641 0
v -1952 609 0
v -1344 577 0
v -1344 609 0
v -1376 609 0
v -1376 577 0
v -736 609 0
v -736 641 0
v -768 641 0
v -768 609 0
v -1984 673 0
v -1984 705 0
v -2016 705 0
v -2016 673 0
v -928 641 0
v -928 673 0
v -960 673 0
v -960 641 0
v -1088 641 0
v -1088 673 0
v -1120 673 0
v -1120 641 0
v -544 97 0
v -544 129 0
v -576 129 0
v -576 97 0
v -1184 705 0
v -1184 737 0
v -1216 737 0
v -1216 705 0
v -928 97 0
v -928 129 0
v -960 129 0
v -960 97 0
v -1376 321 0
v -1376 353 0
v -1408 353 0
v -1408 321 0
v -608 481 0
v -608 513 0
v -640 513 0
v -640 481 0
v -1760 481 0
v -1760 513 0
v -1792 513 0
v -1792 481 0
v -576 417 0
v -576 449 0
v -608 449 0
v -608 417 0
v -1888 1153 0
v -1888 1185 0
v -1920 1185 0
v -1920 1153 0
v -1664 1121 0
v -1664 1153 0
v -1696 1153 0
v -1696 1121 0
v -672 1025 0
v -672 1057 0
v -704 1057 0
v -704 1025 0
v -960 65 0
v -960 97 0
v -992 97 0
v -992 65 0
v -288 1249 0
v -288 1281 0
v -320 1281 0
v -320 1249 0
v -896 1473 0
v -896 1505 0
v -928 1505 0
v -928 1473 0
v -1024 1377 0
v -1024 1409 0
v -1056 1409 0
v -1056 1377 0
v -1760 1377 0
v -1760 1409 0
v -1792 1409 0
v -1792 1377 0
v -544 865 0
v -544 897 0
v -576 897 0
v -576 865 0
v -1024 513 0
v -1024 545 0
v -1056 545 0
v -1056 513 0
v -1888 577 0
v -1888 609 0
v -1920 609 0
v -1920 577 0
v -1216 577 0
v -1216 609 0
v -1248 609 0
v -1248 577 0
v -1024 97 0
v -1024 129 0
v -1056 129 0
v -1056 97 0
v -864 897 0
v -864 929 0
v -896 929 0
v -896 897 0
v -1664 225 0
v -1664 257 0
v -1696 257 0
v -1696 225 0
v -2016 1281 0
v -2016 1313 0
v -2047 1313 0
v -2047 1281 0
v -1824 1313 0
v -1824 1345 0
v -1856 1345 0
v -1856 1313 0
v -1280 1313 0
v -1280 1345 0
v -1312 1345 0
v -1312 1313 0
v -1376 1249 0
v -1376 1281 0
v -1408 1281 0
v -1408 1249 0
v -1280 1153 0
v -1280 1185 0
v -1312 1185 0
v -1312 1153 0
v -1184 1217 0
v -1184 1249 0
v -1216 1249 0
v -1216 1217 0
v -1664 1249 0
v -1664 1281 0
v -1696 1281 0
v -1696 1249 0
v -1632 1473 0
v -1632 1505 0
v -1664 1505 0
v -1664 1473 0
v -1472 1601 0
v -1472 1633 0
v -1504 1633 0
v -1504 1601 0
v -1248 609 0
v -1248 641 0
v -1280 641 0
v -1280 609 0
v -1792 1473 0
v -1792 1505 0
v -1824 1505 0
v -1824 1473 0
v -1760 1345 0
v -1760 1377 0
v -1792 1377 0
v -1792 1345 0
v -1024 1345 0
v -1024 1377 0
v -1056 1377 0
v -1056 1345 0
v -1120 1409 0
v -1120 1441 0
v -1152 1441 0
v -1152 1409 0
vt 0.00048828125 0.00102043152
vt 0.00048828125 0.425510228
vt 0.141113281 0.425510228
vt 0.141113281 0.00102043152
vt 0.142089844 0.00102043152
vt 0.142089844 0.425510228
vt 0.282714844 0.425510228
vt 0.282714844 0.00102043152
vt 0.283691406 0.00102043152
vt 0.283691406 0.26224488
vt 0.471191406 0.26224488
vt 0.471191406 0.00102043152
vt 0.472167969 0.00102043152
vt 0.472167969 0.26224488
vt 0.644042969 0.26224488
vt 0.644042969 0.00102043152
vt 0.645019531 0.00102043152
vt 0.645019531 0.327551007
vt 0.738769531 0.327551007
vt 0.738769531 0.00102043152
vt 0.739746094 0.00102043152
vt 0.739746094 0.327551007
vt 0.833496094 0.327551007
vt 0.833496094 0.00102043152
vt 0.834472656 0.00102043152
vt 0.834472656 0.26224488
vt 0.943847656 0.26224488
vt 0.943847656 0.00102043152
vt 0.283691406 0.264285743
vt 0.283691406 0.460204065
vt 0.424316406 0.460204065
vt 0.424316406 0.264285743
vt 0.425292969 0.264285743
vt 0.425292969 0.460204065
vt 0.550292969 0.460204065
vt 0.550292969 0.264285743
vt 0.645019531 0.329591811
vt 0.645019531 0.427551031
vt 0.832519531 0.427551031
vt 0.832519531 0.329591811
vt 0.834472656 0.264285743
vt 0.834472656 0.427551031
vt 0.943847656 0.427551031
vt 0.943847656 0.264285743
vt 0.00048828125 0.427551031
vt 0.00048828125 0.525510192
vt 0.172363281 0.525510192
vt 0.172363281 0.427551031
vt 0.173339844 0.427551031
vt 0.173339844 0.558163285
vt 0.282714844 0.558163285
vt 0.282714844 0.427551031
vt 0.551269531 0.264285743
vt 0.551269531 0.460204065
vt 0.613769531 0.460204065
vt 0.613769531 0.264285743
vt 0.645019531 0.429591835
vt 0.645019531 0.592857122
vt 0.707519531 0.592857122
vt 0.707519531 0.429591835
vt 0.708496094 0.429591835
vt 0.708496094 0.560204089
vt 0.786621094 0.560204089
vt 0.786621094 0.429591835
vt 0.787597656 0.429591835
vt 0.787597656 0.592857122
vt 0.850097656 0.592857122
vt 0.850097656 0.429591835
vt 0.944824219 0.00102043152
vt 0.944824219 0.196938753
vt 0.991699219 0.196938753
vt 0.991699219 0.00102043152
vt 0.851074219 0.429591835
vt 0.851074219 0.560204089
vt 0.913574219 0.560204089
vt 0.913574219 0.429591835
vt 0.914550781 0.429591835
vt 0.914550781 0.560204089
vt 0.977050781 0.560204089
vt 0.977050781 0.429591835
vt 0.283691406 0.462244868
vt 0.283691406 0.592857122
vt 0.346191406 0.592857122
vt 0.346191406 0.462244868
vt 0.347167969 0.462244868
vt 0.347167969 0.658163309
vt 0.378417969 0.658163309
vt 0.378417969 0.462244868
vt 0.379394531 0.462244868
vt 0.379394531 0.560204089
vt 0.441894531 0.560204089
vt 0.441894531 0.462244868
vt 0.442871094 0.462244868
vt 0.442871094 0.560204089
vt 0.505371094 0.560204089
vt 0.505371094 0.462244868
vt 0.506347656 0.462244868
vt 0.506347656 0.658163309
vt 0.537597656 0.658163309
vt 0.537597656 0.462244868
vt 0.538574219 0.462244868
vt 0.538574219 0.625510216
vt 0.569824219 0.625510216
vt 0.569824219 0.462244868
vt 0.00048828125 0.527551055
vt 0.00048828125 0.592857122
vt 0.0786132812 0.592857122
vt 0.0786132812 0.527551055
vt 0.570800781 0.462244868
vt 0.570800781 0.560204089
vt 0.617675781 0.560204089
vt 0.617675781 0.462244868
vt 0.0795898438 0.527551055
vt 0.0795898438 0.625510216
vt 0.126464844 0.625510216
vt 0.126464844 0.527551055
vt 0.173339844 0.560204089
vt 0.173339844 0.625510216
vt 0.235839844 0.625510216
vt 0.235839844 0.560204089
vt 0.127441406 0.527551055
vt 0.127441406 0.658163309
vt 0.158691406 0.658163309
vt 0.158691406 0.527551055
vt 0.379394531 0.562244892
vt 0.379394531 0.627551019
vt 0.441894531 0.627551019
vt 0.441894531 0.562244892
vt 0.236816406 0.560204089
vt 0.236816406 0.690816283
vt 0.268066406 0.690816283
vt 0.268066406 0.560204089
vt 0.442871094 0.562244892
vt 0.442871094 0.627551019
vt 0.505371094 0.627551019
vt 0.505371094 0.562244892
vt 0.570800781 0.562244892
vt 0.570800781 0.627551019
vt 0.633300781 0.627551019
vt 0.633300781 0.562244892
vt 0.708496094 0.562244892
vt 0.708496094 0.692857146
vt 0.739746094 0.692857146
vt 0.739746094 0.562244892
vt 0.740722656 0.562244892
vt 0.740722656 0.692857146
vt 0.771972656 0.692857146
vt 0.771972656 0.562244892
vt 0.851074219 0.562244892
vt 0.851074219 0.692857146
vt 0.882324219 0.692857146
vt 0.882324219 0.562244892
vt 0.978027344 0.198979616
vt 0.978027344 0.460204065
vt 0.993652344 0.460204065
vt 0.993652344 0.198979616
vt 0.978027344 0.462244868
vt 0.978027344 0.723469377
vt 0.993652344 0.723469377
vt 0.993652344 0.462244868
vt 0.883300781 0.562244892
vt 0.883300781 0.692857146
vt 0.914550781 0.692857146
vt 0.914550781 0.562244892
vt 0.00048828125 0.594897985
vt 0.00048828125 0.660204053
vt 0.0629882812 0.660204053
vt 0.0629882812 0.594897985
vt 0.915527344 0.562244892
vt 0.915527344 0.8234694
vt 0.931152344 0.8234694
vt 0.931152344 0.562244892
vt 0.932128906 0.562244892
vt 0.932128906 0.692857146
vt 0.963378906 0.692857146
vt 0.963378906 0.562244892
vt 0.283691406 0.594897985
vt 0.283691406 0.660204053
vt 0.346191406 0.660204053
vt 0.346191406 0.594897985
vt 0.645019531 0.594897985
vt 0.645019531 0.72551024
vt 0.676269531 0.72551024
vt 0.676269531 0.594897985
vt 0.787597656 0.594897985
vt 0.787597656 0.660204053
vt 0.850097656 0.660204053
vt 0.850097656 0.594897985
vt 0.677246094 0.594897985
vt 0.677246094 0.8234694
vt 0.692871094 0.8234694
vt 0.692871094 0.594897985
vt 0.0795898438 0.627551019
vt 0.0795898438 0.856122434
vt 0.0952148438 0.856122434
vt 0.0952148438 0.627551019
vt 0.173339844 0.627551019
vt 0.173339844 0.72551024
vt 0.204589844 0.72551024
vt 0.204589844 0.627551019
vt 0.538574219 0.627551019
vt 0.538574219 0.72551024
vt 0.569824219 0.72551024
vt 0.569824219 0.627551019
vt 0.379394531 0.629591823
vt 0.379394531 0.69489795
vt 0.426269531 0.69489795
vt 0.426269531 0.629591823
vt 0.427246094 0.629591823
vt 0.427246094 0.727550983
vt 0.458496094 0.727550983
vt 0.458496094 0.629591823
vt 0.0961914062 0.627551019
vt 0.0961914062 0.8234694
vt 0.111816406 0.8234694
vt 0.111816406 0.627551019
vt 0.570800781 0.629591823
vt 0.570800781 0.69489795
vt 0.617675781 0.69489795
vt 0.617675781 0.629591823
vt 0.459472656 0.629591823
vt 0.459472656 0.727550983
vt 0.490722656 0.727550983
vt 0.490722656 0.629591823
vt 0.127441406 0.660204053
vt 0.127441406 0.758163273
vt 0.158691406 0.758163273
vt 0.158691406 0.660204053
vt 0.347167969 0.660204053
vt 0.347167969 0.758163273
vt 0.378417969 0.758163273
vt 0.378417969 0.660204053
vt 0.00048828125 0.662244916
vt 0.00048828125 0.727550983
vt 0.0473632812 0.727550983
vt 0.0473632812 0.662244916
vt 0.506347656 0.660204053
vt 0.506347656 0.758163273
vt 0.537597656 0.758163273
vt 0.537597656 0.660204053
vt 0.283691406 0.662244916
vt 0.283691406 0.760204077
vt 0.314941406 0.760204077
vt 0.314941406 0.662244916
vt 0.205566406 0.627551019
vt 0.205566406 0.8234694
vt 0.221191406 0.8234694
vt 0.221191406 0.627551019
vt 0.618652344 0.629591823
vt 0.618652344 0.79285717
vt 0.634277344 0.79285717
vt 0.634277344 0.629591823
vt 0.708496094 0.69489795
vt 0.708496094 0.727550983
vt 0.786621094 0.727550983
vt 0.786621094 0.69489795
vt 0.787597656 0.662244916
vt 0.787597656 0.727550983
vt 0.818847656 0.727550983
vt 0.818847656 0.662244916
vt 0.851074219 0.69489795
vt 0.851074219 0.727550983
vt 0.913574219 0.727550983
vt 0.913574219 0.69489795
vt 0.236816406 0.692857146
vt 0.236816406 0.758163273
vt 0.268066406 0.758163273
vt 0.268066406 0.692857146
vt 0.932128906 0.69489795
vt 0.932128906 0.760204077
vt 0.963378906 0.760204077
vt 0.963378906 0.69489795
vt 0.379394531 0.696938753
vt 0.379394531 0.76224488
vt 0.410644531 0.76224488
vt 0.410644531 0.696938753
vt 0.570800781 0.696938753
vt 0.570800781 0.76224488
vt 0.602050781 0.76224488
vt 0.602050781 0.696938753
vt 0.173339844 0.727550983
vt 0.173339844 0.79285717
vt 0.204589844 0.79285717
vt 0.204589844 0.727550983
vt 0.538574219 0.727550983
vt 0.538574219 0.79285717
vt 0.569824219 0.79285717
vt 0.569824219 0.727550983
vt 0.645019531 0.727550983
vt 0.645019531 0.79285717
vt 0.676269531 0.79285717
vt 0.676269531 0.727550983
vt 0.00048828125 0.729591846
vt 0.00048828125 0.76224488
vt 0.0629882812 0.76224488
vt 0.0629882812 0.729591846
vt 0.427246094 0.729591846
vt 0.427246094 0.794897974
vt 0.458496094 0.794897974
vt 0.458496094 0.729591846
vt 0.459472656 0.729591846
vt 0.459472656 0.794897974
vt 0.490722656 0.794897974
vt 0.490722656 0.729591846
vt 0.315917969 0.662244916
vt 0.315917969 0.79285717
vt 0.331542969 0.79285717
vt 0.331542969 0.662244916
vt 0.819824219 0.662244916
vt 0.819824219 0.79285717
vt 0.835449219 0.79285717
vt 0.835449219 0.662244916
vt 0.978027344 0.72551024
vt 0.978027344 0.856122434
vt 0.993652344 0.856122434
vt 0.993652344 0.72551024
vt 0.708496094 0.729591846
vt 0.708496094 0.860204101
vt 0.724121094 0.860204101
vt 0.724121094 0.729591846
vt 0.725097656 0.729591846
vt 0.725097656 0.860204101
vt 0.740722656 0.860204101
vt 0.740722656 0.729591846
vt 0.741699219 0.729591846
vt 0.741699219 0.76224488
vt 0.788574219 0.76224488
vt 0.788574219 0.729591846
vt 0.789550781 0.729591846
vt 0.789550781 0.827551007
vt 0.805175781 0.827551007
vt 0.805175781 0.729591846
vt 0.851074219 0.729591846
vt 0.851074219 0.827551007
vt 0.866699219 0.827551007
vt 0.866699219 0.729591846
vt 0.867675781 0.729591846
vt 0.867675781 0.827551007
vt 0.883300781 0.827551007
vt 0.883300781 0.729591846
vt 0.00048828125 0.764285684
vt 0.00048828125 0.796938777
vt 0.0473632812 0.796938777
vt 0.0473632812 0.764285684
vt 0.884277344 0.729591846
vt 0.884277344 0.827551007
vt 0.899902344 0.827551007
vt 0.899902344 0.729591846
vt 0.379394531 0.764285684
vt 0.379394531 0.796938777
vt 0.426269531 0.796938777
vt 0.426269531 0.764285684
vt 0.570800781 0.764285684
vt 0.570800781 0.796938777
vt 0.617675781 0.796938777
vt 0.617675781 0.764285684
vt 0.741699219 0.764285684
vt 0.741699219 0.796938777
vt 0.788574219 0.796938777
vt 0.788574219 0.764285684
vt 0.127441406 0.760204077
vt 0.127441406 0.858163238
vt 0.143066406 0.858163238
vt 0.143066406 0.760204077
vt 0.315917969 0.794897974
vt 0.315917969 0.827551007
vt 0.362792969 0.827551007
vt 0.362792969 0.794897974
vt 0.144042969 0.760204077
vt 0.144042969 0.858163238
vt 0.159667969 0.858163238
vt 0.159667969 0.760204077
vt 0.236816406 0.760204077
vt 0.236816406 0.858163238
vt 0.252441406 0.858163238
vt 0.252441406 0.760204077
vt 0.618652344 0.794897974
vt 0.618652344 0.827551007
vt 0.665527344 0.827551007
vt 0.665527344 0.794897974
vt 0.427246094 0.796938777
vt 0.427246094 0.82959187
vt 0.474121094 0.82959187
vt 0.474121094 0.796938777
vt 0.506347656 0.760204077
vt 0.506347656 0.79285717
vt 0.537597656 0.79285717
vt 0.537597656 0.760204077
vt 0.283691406 0.76224488
vt 0.283691406 0.794897974
vt 0.314941406 0.794897974
vt 0.314941406 0.76224488
vt 0.253417969 0.760204077
vt 0.253417969 0.825510204
vt 0.269042969 0.825510204
vt 0.269042969 0.760204077
vt 0.932128906 0.76224488
vt 0.932128906 0.827551007
vt 0.947753906 0.827551007
vt 0.947753906 0.76224488
vt 0.173339844 0.794897974
vt 0.173339844 0.827551007
vt 0.204589844 0.827551007
vt 0.204589844 0.794897974
vt 0.506347656 0.794897974
vt 0.506347656 0.827551007
vt 0.537597656 0.827551007
vt 0.537597656 0.794897974
vt 0.538574219 0.794897974
vt 0.538574219 0.827551007
vt 0.569824219 0.827551007
vt 0.569824219 0.794897974
vt 0.283691406 0.796938777
vt 0.283691406 0.82959187
vt 0.314941406 0.82959187
vt 0.314941406 0.796938777
vt 0.00048828125 0.79897958
vt 0.00048828125 0.831632674
vt 0.0317382812 0.831632674
vt 0.0317382812 0.79897958
vt 0.948730469 0.76224488
vt 0.948730469 0.827551007
vt 0.964355469 0.827551007
vt 0.964355469 0.76224488
vt 0.0327148438 0.79897958
vt 0.0327148438 0.831632674
vt 0.0639648438 0.831632674
vt 0.0639648438 0.79897958
vt 0.819824219 0.794897974
vt 0.819824219 0.860204101
vt 0.835449219 0.860204101
vt 0.835449219 0.794897974
vt 0.379394531 0.79897958
vt 0.379394531 0.831632674
vt 0.410644531 0.831632674
vt 0.410644531 0.79897958
vt 0.475097656 0.796938777
vt 0.475097656 0.862244904
vt 0.490722656 0.862244904
vt 0.490722656 0.796938777
vt 0.570800781 0.79897958
vt 0.570800781 0.864285707
vt 0.586425781 0.864285707
vt 0.586425781 0.79897958
vt 0.741699219 0.79897958
vt 0.741699219 0.831632674
vt 0.772949219 0.831632674
vt 0.772949219 0.79897958
vt 0.173339844 0.82959187
vt 0.173339844 0.862244904
vt 0.204589844 0.862244904
vt 0.204589844 0.82959187
vt 0.587402344 0.79897958
vt 0.587402344 0.864285707
vt 0.603027344 0.864285707
vt 0.603027344 0.79897958
vt 0.0961914062 0.825510204
vt 0.0961914062 0.890816331
vt 0.111816406 0.890816331
vt 0.111816406 0.825510204
vt 0.315917969 0.82959187
vt 0.315917969 0.862244904
vt 0.347167969 0.862244904
vt 0.347167969 0.82959187
vt 0.205566406 0.825510204
vt 0.205566406 0.890816331
vt 0.221191406 0.890816331
vt 0.221191406 0.825510204
vt 0.506347656 0.82959187
vt 0.506347656 0.862244904
vt 0.537597656 0.862244904
vt 0.537597656 0.82959187
vt 0.538574219 0.82959187
vt 0.538574219 0.862244904
vt 0.569824219 0.862244904
vt 0.569824219 0.82959187
vt 0.677246094 0.825510204
vt 0.677246094 0.890816331
vt 0.692871094 0.890816331
vt 0.692871094 0.825510204
vt 0.915527344 0.825510204
vt 0.915527344 0.890816331
vt 0.931152344 0.890816331
vt 0.931152344 0.825510204
vt 0.253417969 0.827551007
vt 0.253417969 0.892857134
vt 0.269042969 0.892857134
vt 0.269042969 0.827551007
vt 0.348144531 0.82959187
vt 0.348144531 0.894897938
vt 0.363769531 0.894897938
vt 0.363769531 0.82959187
vt 0.618652344 0.82959187
vt 0.618652344 0.894897938
vt 0.634277344 0.894897938
vt 0.634277344 0.82959187
vt 0.635253906 0.82959187
vt 0.635253906 0.862244904
vt 0.666503906 0.862244904
vt 0.666503906 0.82959187
vt 0.851074219 0.82959187
vt 0.851074219 0.862244904
vt 0.882324219 0.862244904
vt 0.882324219 0.82959187
vt 0.789550781 0.82959187
vt 0.789550781 0.894897938
vt 0.805175781 0.894897938
vt 0.805175781 0.82959187
vt 0.883300781 0.82959187
vt 0.883300781 0.894897938
vt 0.898925781 0.894897938
vt 0.898925781 0.82959187
vt 0.932128906 0.82959187
vt 0.932128906 0.894897938
vt 0.947753906 0.894897938
vt 0.947753906 0.82959187
vt 0.283691406 0.831632674
vt 0.283691406 0.864285707
vt 0.314941406 0.864285707
vt 0.314941406 0.831632674
vt 0.948730469 0.82959187
vt 0.948730469 0.894897938
vt 0.964355469 0.894897938
vt 0.964355469 0.82959187
vt 0.427246094 0.831632674
vt 0.427246094 0.896938801
vt 0.442871094 0.896938801
vt 0.442871094 0.831632674
vt 0.443847656 0.831632674
vt 0.443847656 0.896938801
vt 0.459472656 0.896938801
vt 0.459472656 0.831632674
vt 0.00048828125 0.833673477
vt 0.00048828125 0.898979604
vt 0.0161132812 0.898979604
vt 0.0161132812 0.833673477
vt 0.0170898438 0.833673477
vt 0.0170898438 0.866326511
vt 0.0483398438 0.866326511
vt 0.0483398438 0.833673477
vt 0.0493164062 0.833673477
vt 0.0493164062 0.898979604
vt 0.0649414062 0.898979604
vt 0.0649414062 0.833673477
vt 0.379394531 0.833673477
vt 0.379394531 0.866326511
vt 0.410644531 0.866326511
vt 0.410644531 0.833673477
vt 0.741699219 0.833673477
vt 0.741699219 0.898979604
vt 0.757324219 0.898979604
vt 0.757324219 0.833673477
vt 0.758300781 0.833673477
vt 0.758300781 0.898979604
vt 0.773925781 0.898979604
vt 0.773925781 0.833673477
vt 0.0795898438 0.858163238
vt 0.0795898438 0.923469365
vt 0.0952148438 0.923469365
vt 0.0952148438 0.858163238
vt 0.978027344 0.858163238
vt 0.978027344 0.923469365
vt 0.993652344 0.923469365
vt 0.993652344 0.858163238
vt 0.127441406 0.860204101
vt 0.127441406 0.925510228
vt 0.143066406 0.925510228
vt 0.143066406 0.860204101
vt 0.144042969 0.860204101
vt 0.144042969 0.925510228
vt 0.159667969 0.925510228
vt 0.159667969 0.860204101
vt 0.236816406 0.860204101
vt 0.236816406 0.925510228
vt 0.252441406 0.925510228
vt 0.252441406 0.860204101
vt 0.708496094 0.862244904
vt 0.708496094 0.927551031
vt 0.724121094 0.927551031
vt 0.724121094 0.862244904
vt 0.173339844 0.864285707
vt 0.173339844 0.896938801
vt 0.204589844 0.896938801
vt 0.204589844 0.864285707
vt 0.315917969 0.864285707
vt 0.315917969 0.896938801
vt 0.347167969 0.896938801
vt 0.347167969 0.864285707
vt 0.725097656 0.862244904
vt 0.725097656 0.927551031
vt 0.740722656 0.927551031
vt 0.740722656 0.862244904
vt 0.819824219 0.862244904
vt 0.819824219 0.927551031
vt 0.835449219 0.927551031
vt 0.835449219 0.862244904
vt 0.475097656 0.864285707
vt 0.475097656 0.929591835
vt 0.490722656 0.929591835
vt 0.490722656 0.864285707
vt 0.506347656 0.864285707
vt 0.506347656 0.929591835
vt 0.521972656 0.929591835
vt 0.521972656 0.864285707
vt 0.522949219 0.864285707
vt 0.522949219 0.929591835
vt 0.538574219 0.929591835
vt 0.538574219 0.864285707
vt 0.539550781 0.864285707
vt 0.539550781 0.929591835
vt 0.555175781 0.929591835
vt 0.555175781 0.864285707
vt 0.635253906 0.864285707
vt 0.635253906 0.929591835
vt 0.650878906 0.929591835
vt 0.650878906 0.864285707
vt 0.651855469 0.864285707
vt 0.651855469 0.929591835
vt 0.667480469 0.929591835
vt 0.667480469 0.864285707
vt 0.851074219 0.864285707
vt 0.851074219 0.896938801
vt 0.882324219 0.896938801
vt 0.882324219 0.864285707
vt 0.283691406 0.866326511
vt 0.283691406 0.898979604
vt 0.314941406 0.898979604
vt 0.314941406 0.866326511
vt 0.570800781 0.866326511
vt 0.570800781 0.931632638
vt 0.586425781 0.931632638
vt 0.586425781 0.866326511
vt 0.587402344 0.866326511
vt 0.587402344 0.931632638
vt 0.603027344 0.931632638
vt 0.603027344 0.866326511
vt 0.0170898438 0.868367314
vt 0.0170898438 0.901020408
vt 0.0483398438 0.901020408
vt 0.0483398438 0.868367314
vt 0.379394531 0.868367314
vt 0.379394531 0.901020408
vt 0.410644531 0.901020408
vt 0.410644531 0.868367314
vt 0.0961914062 0.892857134
vt 0.0961914062 0.958163261
vt 0.111816406 0.958163261
vt 0.111816406 0.892857134
vt 0.205566406 0.892857134
vt 0.205566406 0.958163261
vt 0.221191406 0.958163261
vt 0.221191406 0.892857134
vt 0.677246094 0.892857134
vt 0.677246094 0.958163261
vt 0.692871094 0.958163261
vt 0.692871094 0.892857134
vt 0.915527344 0.892857134
vt 0.915527344 0.958163261
vt 0.931152344 0.958163261
vt 0.931152344 0.892857134
vt 0.883300781 0.896938801
vt 0.883300781 0.929591835
vt 0.914550781 0.929591835
vt 0.914550781 0.896938801
vt 0.932128906 0.896938801
vt 0.932128906 0.929591835
vt 0.963378906 0.929591835
vt 0.963378906 0.896938801
vt 0.173339844 0.898979604
vt 0.173339844 0.931632638
vt 0.204589844 0.931632638
vt 0.204589844 0.898979604
vt 0.253417969 0.894897938
vt 0.253417969 0.960204065
vt 0.269042969 0.960204065
vt 0.269042969 0.894897938
vt 0.348144531 0.896938801
vt 0.348144531 0.962244868
vt 0.363769531 0.962244868
vt 0.363769531 0.896938801
vt 0.618652344 0.896938801
vt 0.618652344 0.962244868
vt 0.634277344 0.962244868
vt 0.634277344 0.896938801
vt 0.789550781 0.896938801
vt 0.789550781 0.962244868
vt 0.805175781 0.962244868
vt 0.805175781 0.896938801
vt 0.315917969 0.898979604
vt 0.315917969 0.964285731
vt 0.331542969 0.964285731
vt 0.331542969 0.898979604
vt 0.427246094 0.898979604
vt 0.427246094 0.964285731
vt 0.442871094 0.964285731
vt 0.442871094 0.898979604
vt 0.851074219 0.898979604
vt 0.851074219 0.931632638
vt 0.882324219 0.931632638
vt 0.882324219 0.898979604
vt 0.283691406 0.901020408
vt 0.283691406 0.933673501
vt 0.314941406 0.933673501
vt 0.314941406 0.901020408
vt 0.443847656 0.898979604
vt 0.443847656 0.964285731
vt 0.459472656 0.964285731
vt 0.459472656 0.898979604
vt 0.00048828125 0.901020408
vt 0.00048828125 0.933673501
vt 0.0161132812 0.933673501
vt 0.0161132812 0.901020408
vt 0.0493164062 0.901020408
vt 0.0493164062 0.933673501
vt 0.0649414062 0.933673501
vt 0.0649414062 0.901020408
vt 0.741699219 0.901020408
vt 0.741699219 0.933673501
vt 0.757324219 0.933673501
vt 0.757324219 0.901020408
vt 0.758300781 0.901020408
vt 0.758300781 0.933673501
vt 0.773925781 0.933673501
vt 0.773925781 0.901020408
vt 0.0170898438 0.903061211
vt 0.0170898438 0.935714304
vt 0.0327148438 0.935714304
vt 0.0327148438 0.903061211
vt 0.379394531 0.903061211
vt 0.379394531 0.935714304
vt 0.395019531 0.935714304
vt 0.395019531 0.903061211
vt 0.395996094 0.903061211
vt 0.395996094 0.935714304
vt 0.411621094 0.935714304
vt 0.411621094 0.903061211
vt 0.0795898438 0.925510228
vt 0.0795898438 0.958163261
vt 0.0952148438 0.958163261
vt 0.0952148438 0.925510228
vt 0.978027344 0.925510228
vt 0.978027344 0.958163261
vt 0.993652344 0.958163261
vt 0.993652344 0.925510228
vt 0.127441406 0.927551031
vt 0.127441406 0.960204065
vt 0.143066406 0.960204065
vt 0.143066406 0.927551031
vt 0.144042969 0.927551031
vt 0.144042969 0.960204065
vt 0.159667969 0.960204065
vt 0.159667969 0.927551031
vt 0.236816406 0.927551031
vt 0.236816406 0.960204065
vt 0.252441406 0.960204065
vt 0.252441406 0.927551031
vt 0.708496094 0.929591835
vt 0.708496094 0.962244868
vt 0.724121094 0.962244868
vt 0.724121094 0.929591835
vt 0.725097656 0.929591835
vt 0.725097656 0.962244868
vt 0.740722656 0.962244868
vt 0.740722656 0.929591835
vt 0.819824219 0.929591835
vt 0.819824219 0.962244868
vt 0.835449219 0.962244868
vt 0.835449219 0.929591835
vt 0.475097656 0.931632638
vt 0.475097656 0.964285731
vt 0.490722656 0.964285731
vt 0.490722656 0.931632638
vt 0.506347656 0.931632638
vt 0.506347656 0.964285731
vt 0.521972656 0.964285731
vt 0.521972656 0.931632638
vt 0.522949219 0.931632638
vt 0.522949219 0.964285731
vt 0.538574219 0.964285731
vt 0.538574219 0.931632638
vt 0.539550781 0.931632638
vt 0.539550781 0.964285731
vt 0.555175781 0.964285731
vt 0.555175781 0.931632638
vt 0.635253906 0.931632638
vt 0.635253906 0.964285731
vt 0.650878906 0.964285731
vt 0.650878906 0.931632638
vt 0.651855469 0.931632638
vt 0.651855469 0.964285731
vt 0.667480469 0.964285731
vt 0.667480469 0.931632638
vt 0.883300781 0.931632638
vt 0.883300781 0.964285731
vt 0.898925781 0.964285731
vt 0.898925781 0.931632638
vt 0.932128906 0.931632638
vt 0.932128906 0.964285731
vt 0.947753906 0.964285731
vt 0.947753906 0.931632638
vt 0.948730469 0.931632638
vt 0.948730469 0.964285731
vt 0.964355469 0.964285731
vt 0.964355469 0.931632638
vt 0.173339844 0.933673501
vt 0.173339844 0.966326535
vt 0.188964844 0.966326535
vt 0.188964844 0.933673501
vt 0.570800781 0.933673501
vt 0.570800781 0.966326535
vt 0.586425781 0.966326535
vt 0.586425781 0.933673501
vt 0.587402344 0.933673501
vt 0.587402344 0.966326535
vt 0.603027344 0.966326535
vt 0.603027344 0.933673501
vt 0.851074219 0.933673501
vt 0.851074219 0.966326535
vt 0.866699219 0.966326535
vt 0.866699219 0.933673501
vt 0.00048828125 0.935714304
vt 0.00048828125 0.968367338
vt 0.0161132812 0.968367338
vt 0.0161132812 0.935714304
vt 0.0493164062 0.935714304
vt 0.0493164062 0.968367338
vt 0.0649414062 0.968367338
vt 0.0649414062 0.935714304
vt 0.283691406 0.935714304
vt 0.283691406 0.968367338
vt 0.299316406 0.968367338
vt 0.299316406 0.935714304
vt 0.741699219 0.935714304
vt 0.741699219 0.968367338
vt 0.757324219 0.968367338
vt 0.757324219 0.935714304
vt 0.758300781 0.935714304
vt 0.758300781 0.968367338
vt 0.773925781 0.968367338
vt 0.773925781 0.935714304
vt 0.0170898438 0.937755108
vt 0.0170898438 0.970408142
vt 0.0327148438 0.970408142
vt 0.0327148438 0.937755108
vt 0.379394531 0.937755108
vt 0.379394531 0.970408142
vt 0.395019531 0.970408142
vt 0.395019531 0.937755108
vt 0.395996094 0.937755108
vt 0.395996094 0.970408142
vt 0.411621094 0.970408142
vt 0.411621094 0.937755108
vt 0.0795898438 0.960204065
vt 0.0795898438 0.992857158
vt 0.0952148438 0.992857158
vt 0.0952148438 0.960204065
vt 0.0961914062 0.960204065
vt 0.0961914062 0.992857158
vt 0.111816406 0.992857158
vt 0.111816406 0.960204065
vt 0.205566406 0.960204065
vt 0.205566406 0.992857158
vt 0.221191406 0.992857158
vt 0.221191406 0.960204065
vt 0.677246094 0.960204065
vt 0.677246094 0.992857158
vt 0.692871094 0.992857158
vt 0.692871094 0.960204065
vt 0.915527344 0.960204065
vt 0.915527344 0.992857158
vt 0.931152344 0.992857158
vt 0.931152344 0.960204065
vt 0.978027344 0.960204065
vt 0.978027344 0.992857158
vt 0.993652344 0.992857158
vt 0.993652344 0.960204065
vt 0.127441406 0.962244868
vt 0.127441406 0.994897962
vt 0.143066406 0.994897962
vt 0.143066406 0.962244868
vt 0.144042969 0.962244868
vt 0.144042969 0.994897962
vt 0.159667969 0.994897962
vt 0.159667969 0.962244868
vt 0.236816406 0.962244868
vt 0.236816406 0.994897962
vt 0.252441406 0.994897962
vt 0.252441406 0.962244868
vt 0.253417969 0.962244868
vt 0.253417969 0.994897962
vt 0.269042969 0.994897962
vt 0.269042969 0.962244868
vt 0.348144531 0.964285731
vt 0.348144531 0.996938765
vt 0.363769531 0.996938765
vt 0.363769531 0.964285731
vt 0.618652344 0.964285731
vt 0.618652344 0.996938765
vt 0.634277344 0.996938765
vt 0.634277344 0.964285731
vt 0.708496094 0.964285731
vt 0.708496094 0.996938765
vt 0.724121094 0.996938765
vt 0.724121094 0.964285731
vt 0.725097656 0.964285731
vt 0.725097656 0.996938765
vt 0.740722656 0.996938765
vt 0.740722656 0.964285731
vt 0.789550781 0.964285731
vt 0.789550781 0.996938765
vt 0.805175781 0.996938765
vt 0.805175781 0.964285731
vt 0.819824219 0.964285731
vt 0.819824219 0.996938765
vt 0.835449219 0.996938765
vt 0.835449219 0.964285731
vt 0.315917969 0.966326535
vt 0.315917969 0.998979568
vt 0.331542969 0.998979568
vt 0.331542969 0.966326535
vt 0.427246094 0.966326535
vt 0.427246094 0.998979568
vt 0.442871094 0.998979568
vt 0.442871094 0.966326535
vt 0.443847656 0.966326535
vt 0.443847656 0.998979568
vt 0.459472656 0.998979568
vt 0.459472656 0.966326535
vt 0.475097656 0.966326535
vt 0.475097656 0.998979568
vt 0.490722656 0.998979568
vt 0.490722656 0.966326535
vt 0.506347656 0.966326535
vt 0.506347656 0.998979568
vt 0.521972656 0.998979568
vt 0.521972656 0.966326535
g dengken_bj-mesh_0
f 3/3/3 2/2/2 1/1/1
f 1/1/1 4/4/4 3/3/3
f 7/7/7 6/6/6 5/5/5
f 5/5/5 8/8/8 7/7/7
f 11/11/11 10/10/10 9/9/9
f 9/9/9 12/12/12 11/11/11
f 15/15/15 14/14/14 13/13/13
f 13/13/13 16/16/16 15/15/15
f 19/19/19 18/18/18 17/17/17
f 17/17/17 20/20/20 19/19/19
f 23/23/23 22/22/22 21/21/21
f 21/21/21 24/24/24 23/23/23
f 27/27/27 26/26/26 25/25/25
f 25/25/25 28/28/28 27/27/27
f 31/31/31 30/30/30 29/29/29
f 29/29/29 32/32/32 31/31/31
f 35/35/35 34/34/34 33/33/33
f 33/33/33 36/36/36 35/35/35
f 39/39/39 38/38/38 37/37/37
f 37/37/37 40/40/40 39/39/39
f 43/43/43 42/42/42 41/41/41
f 41/41/41 44/44/44 43/43/43
f 47/47/47 46/46/46 45/45/45
f 45/45/45 48/48/48 47/47/47
f 51/51/51 50/50/50 49/49/49
f 49/49/49 52/52/52 51/51/51
f 55/55/55 54/54/54 53/53/53
f 53/53/53 56/56/56 55/55/55
f 59/59/59 58/58/58 57/57/57
f 57/57/57 60/60/60 59/59/59
f 63/63/63 62/62/62 61/61/61
f 61/61/61 64/64/64 63/63/63
f 67/67/67 66/66/66 65/65/65
f 65/65/65 68/68/68 67/67/67
f 71/71/71 70/70/70 69/69/69
f 69/69/69 72/72/72 71/71/71
f 75/75/75 74/74/74 73/73/73
f 73/73/73 76/76/76 75/75/75
f 79/79/79 78/78/78 77/77/77
f 77/77/77 80/80/80 79/79/79
f 83/83/83 82/82/82 81/81/81
f 81/81/81 84/84/84 83/83/83
f 87/87/87 86/86/86 85/85/85
f 85/85/85 88/88/88 87/87/87
f 91/91/91 90/90/90 89/89/89
f 89/89/89 92/92/92 91/91/91
f 95/95/95 94/94/94 93/93/93
f 93/93/93 96/96/96 95/95/95
f 99/99/99 98/98/98 97/97/97
f 97/97/97 100/100/100 99/99/99
f 103/103/103 102/102/102 101/101/101
f 101/101/101 104/104/104 103/103/103
f 107/107/107 106/106/106 105/105/105
f 105/105/105 108/108/108 107/107/107
f 111/111/111 110/110/110 109/109/109
f 109/109/109 112/112/112 111/111/111
f 115/115/115 114/114/114 113/113/113
f 113/113/113 116/116/116 115/115/115
f 119/119/119 118/118/118 117/117/117
f 117/117/117 120/120/120 119/119/119
f 123/123/123 122/122/122 121/121/121
f 121/121/121 124/124/124 123/123/123
f 127/127/127 126/126/126 125/125/125
f 125/125/125 128/128/128 127/127/127
f 131/131/131 130/130/130 129/129/129
f 129/129/129 132/132/132 131/131/131
f 135/135/135 134/134/134 133/133/133
f 133/133/133 136/136/136 135/135/135
f 139/139/139 138/138/138 137/137/137
f 137/137/137 140/140/140 139/139/139
f 143/143/143 142/142/142 141/141/141
f 141/141/141 144/144/144 143/143/143
f 147/147/147 146/146/146 145/145/145
f 145/145/145 148/148/148 147/147/147
f 151/151/151 150/150/150 149/149/149
f 149/149/149 152/152/152 151/151/151
f 155/155/155 154/154/154 153/153/153
f 153/153/153 156/156/156 155/155/155
f 159/159/159 158/158/158 157/157/157
f 157/157/157 160/160/160 159/159/159
f 163/163/163 162/162/162 161/161/161
f 161/161/161 164/164/164 163/163/163
f 167/167/167 166/166/166 165/165/165
f 165/165/165 168/168/168 167/167/167
f 171/171/171 170/170/170 169/169/169
f 169/169/169 172/172/172 171/171/171
f 175/175/175 174/174/174 173/173/173
f 173/173/173 176/176/176 175/175/175
f 179/179/179 178/178/178 177/177/177
f 177/177/177 180/180/180 179/179/179
f 183/183/183 182/182/182 181/181/181
f 181/181/181 184/184/184 183/183/183
f 187/187/187 186/186/186 185/185/185
f 185/185/185 188/188/188 187/187/187
f 191/191/191 190/190/190 189/189/189
f 189/189/189 192/192/192 191/191/191
f 195/195/195 194/194/194 193/193/193
f 193/193/193 196/196/196 195/195/195
f 199/199/199 198/198/198 197/197/197
f 197/197/197 200/200/200 199/199/199
f 203/203/203 202/202/202 201/201/201
f 201/201/201 204/204/204 203/203/203
f 207/207/207 206/206/206 205/205/205
f 205/205/205 208/208/208 207/207/207
f 211/211/211 210/210/210 209/209/209
f 209/209/209 212/212/212 211/211/211
f 215/215/215 214/214/214 213/213/213
f 213/213/213 216/216/216 215/215/215
f 219/219/219 218/218/218 217/217/217
f 217/217/217 220/220/220 219/219/219
f 223/223/223 222/222/222 221/221/221
f 221/221/221 224/224/224 223/223/223
f 227/227/227 226/226/226 225/225/225
f 225/225/225 228/228/228 227/227/227
f 231/231/231 230/230/230 229/229/229
f 229/229/229 232/232/232 231/231/231
f 235/235/235 234/234/234 233/233/233
f 233/233/233 236/236/236 235/235/235
f 239/239/239 238/238/238 237/237/237
f 237/237/237 240/240/240 239/239/239
f 243/243/243 242/242/242 241/241/241
f 241/241/241 244/244/244 243/243/243
f 247/247/247 246/246/246 245/245/245
f 245/245/245 248/248/248 247/247/247
f 251/251/251 250/250/250 249/249/249
f 249/249/249 252/252/252 251/251/251
f 255/255/255 254/254/254 253/253/253
f 253/253/253 256/256/256 255/255/255
f 259/259/259 258/258/258 257/257/257
f 257/257/257 260/260/260 259/259/259
f 263/263/263 262/262/262 261/261/261
f 261/261/261 264/264/264 263/263/263
f 267/267/267 266/266/266 265/265/265
f 265/265/265 268/268/268 267/267/267
f 271/271/271 270/270/270 269/269/269
f 269/269/269 272/272/272 271/271/271
f 275/275/275 274/274/274 273/273/273
f 273/273/273 276/276/276 275/275/275
f 279/279/279 278/278/278 277/277/277
f 277/277/277 280/280/280 279/279/279
f 283/283/283 282/282/282 281/281/281
f 281/281/281 284/284/284 283/283/283
f 287/287/287 286/286/286 285/285/285
f 285/285/285 288/288/288 287/287/287
f 291/291/291 290/290/290 289/289/289
f 289/289/289 292/292/292 291/291/291
f 295/295/295 294/294/294 293/293/293
f 293/293/293 296/296/296 295/295/295
f 299/299/299 298/298/298 297/297/297
f 297/297/297 300/300/300 299/299/299
f 303/303/303 302/302/302 301/301/301
f 301/301/301 304/304/304 303/303/303
f 307/307/307 306/306/306 305/305/305
f 305/305/305 308/308/308 307/307/307
f 311/311/311 310/310/310 309/309/309
f 309/309/309 312/312/312 311/311/311
f 315/315/315 314/314/314 313/313/313
f 313/313/313 316/316/316 315/315/315
f 319/319/319 318/318/318 317/317/317
f 317/317/317 320/320/320 319/319/319
f 323/323/323 322/322/322 321/321/321
f 321/321/321 324/324/324 323/323/323
f 327/327/327 326/326/326 325/325/325
f 325/325/325 328/328/328 327/327/327
f 331/331/331 330/330/330 329/329/329
f 329/329/329 332/332/332 331/331/331
f 335/335/335 334/334/334 333/333/333
f 333/333/333 336/336/336 335/335/335
f 339/339/339 338/338/338 337/337/337
f 337/337/337 340/340/340 339/339/339
f 343/343/343 342/342/342 341/341/341
f 341/341/341 344/344/344 343/343/343
f 347/347/347 346/346/346 345/345/345
f 345/345/345 348/348/348 347/347/347
f 351/351/351 350/350/350 349/349/349
f 349/349/349 352/352/352 351/351/351
f 355/355/355 354/354/354 353/353/353
f 353/353/353 356/356/356 355/355/355
f 359/359/359 358/358/358 357/357/357
f 357/357/357 360/360/360 359/359/359
f 363/363/363 362/362/362 361/361/361
f 361/361/361 364/364/364 363/363/363
f 367/367/367 366/366/366 365/365/365
f 365/365/365 368/368/368 367/367/367
f 371/371/371 370/370/370 369/369/369
f 369/369/369 372/372/372 371/371/371
f 375/375/375 374/374/374 373/373/373
f 373/373/373 376/376/376 375/375/375
f 379/379/379 378/378/378 377/377/377
f 377/377/377 380/380/380 379/379/379
f 383/383/383 382/382/382 381/381/381
f 381/381/381 384/384/384 383/383/383
f 387/387/387 386/386/386 385/385/385
f 385/385/385 388/388/388 387/387/387
f 391/391/391 390/390/390 389/389/389
f 389/389/389 392/392/392 391/391/391
f 395/395/395 394/394/394 393/393/393
f 393/393/393 396/396/396 395/395/395
f 399/399/399 398/398/398 397/397/397
f 397/397/397 400/400/400 399/399/399
f 403/403/403 402/402/402 401/401/401
f 401/401/401 404/404/404 403/403/403
f 407/407/407 406/406/406 405/405/405
f 405/405/405 408/408/408 407/407/407
f 411/411/411 410/410/410 409/409/409
f 409/409/409 412/412/412 411/411/411
f 415/415/415 414/414/414 413/413/413
f 413/413/413 416/416/416 415/415/415
f 419/419/419 418/418/418 417/417/417
f 417/417/417 420/420/420 419/419/419
f 423/423/423 422/422/422 421/421/421
f 421/421/421 424/424/424 423/423/423
f 427/427/427 426/426/426 425/425/425
f 425/425/425 428/428/428 427/427/427
f 431/431/431 430/430/430 429/429/429
f 429/429/429 432/432/432 431/431/431
f 435/435/435 434/434/434 433/433/433
f 433/433/433 436/436/436 435/435/435
f 439/439/439 438/438/438 437/437/437
f 437/437/437 440/440/440 439/439/439
f 443/443/443 442/442/442 441/441/441
f 441/441/441 444/444/444 443/443/443
f 447/447/447 446/446/446 445/445/445
f 445/445/445 448/448/448 447/447/447
f 451/451/451 450/450/450 449/449/449
f 449/449/449 452/452/452 451/451/451
f 455/455/455 454/454/454 453/453/453
f 453/453/453 456/456/456 455/455/455
f 459/459/459 458/458/458 457/457/457
f 457/457/457 460/460/460 459/459/459
f 463/463/463 462/462/462 461/461/461
f 461/461/461 464/464/464 463/463/463
f 467/467/467 466/466/466 465/465/465
f 465/465/465 468/468/468 467/467/467
f 471/471/471 470/470/470 469/469/469
f 469/469/469 472/472/472 471/471/471
f 475/475/475 474/474/474 473/473/473
f 473/473/473 476/476/476 475/475/475
f 479/479/479 478/478/478 477/477/477
f 477/477/477 480/480/480 479/479/479
f 483/483/483 482/482/482 481/481/481
f 481/481/481 484/484/484 483/483/483
f 487/487/487 486/486/486 485/485/485
f 485/485/485 488/488/488 487/487/487
f 491/491/491 490/490/490 489/489/489
f 489/489/489 492/492/492 491/491/491
f 495/495/495 494/494/494 493/493/493
f 493/493/493 496/496/496 495/495/495
f 499/499/499 498/498/498 497/497/497
f 497/497/497 500/500/500 499/499/499
f 503/503/503 502/502/502 501/501/501
f 501/501/501 504/504/504 503/503/503
f 507/507/507 506/506/506 505/505/505
f 505/505/505 508/508/508 507/507/507
f 511/511/511 510/510/510 509/509/509
f 509/509/509 512/512/512 511/511/511
f 515/515/515 514/514/514 513/513/513
f 513/513/513 516/516/516 515/515/515
f 519/519/519 518/518/518 517/517/517
f 517/517/517 520/520/520 519/519/519
f 523/523/523 522/522/522 521/521/521
f 521/521/521 524/524/524 523/523/523
f 527/527/527 526/526/526 525/525/525
f 525/525/525 528/528/528 527/527/527
f 531/531/531 530/530/530 529/529/529
f 529/529/529 532/532/532 531/531/531
f 535/535/535 534/534/534 533/533/533
f 533/533/533 536/536/536 535/535/535
f 539/539/539 538/538/538 537/537/537
f 537/537/537 540/540/540 539/539/539
f 543/543/543 542/542/542 541/541/541
f 541/541/541 544/544/544 543/543/543
f 547/547/547 546/546/546 545/545/545
f 545/545/545 548/548/548 547/547/547
f 551/551/551 550/550/550 549/549/549
f 549/549/549 552/552/552 551/551/551
f 555/555/555 554/554/554 553/553/553
f 553/553/553 556/556/556 555/555/555
f 559/559/559 558/558/558 557/557/557
f 557/557/557 560/560/560 559/559/559
f 563/563/563 562/562/562 561/561/561
f 561/561/561 564/564/564 563/563/563
f 567/567/567 566/566/566 565/565/565
f 565/565/565 568/568/568 567/567/567
f 571/571/571 570/570/570 569/569/569
f 569/569/569 572/572/572 571/571/571
f 575/575/575 574/574/574 573/573/573
f 573/573/573 576/576/576 575/575/575
f 579/579/579 578/578/578 577/577/577
f 577/577/577 580/580/580 579/579/579
f 583/583/583 582/582/582 581/581/581
f 581/581/581 584/584/584 583/583/583
f 587/587/587 586/586/586 585/585/585
f 585/585/585 588/588/588 587/587/587
f 591/591/591 590/590/590 589/589/589
f 589/589/589 592/592/592 591/591/591
f 595/595/595 594/594/594 593/593/593
f 593/593/593 596/596/596 595/595/595
f 599/599/599 598/598/598 597/597/597
f 597/597/597 600/600/600 599/599/599
f 603/603/603 602/602/602 601/601/601
f 601/601/601 604/604/604 603/603/603
f 607/607/607 606/606/606 605/605/605
f 605/605/605 608/608/608 607/607/607
f 611/611/611 610/610/610 609/609/609
f 609/609/609 612/612/612 611/611/611
f 615/615/615 614/614/614 613/613/613
f 613/613/613 616/616/616 615/615/615
f 619/619/619 618/618/618 617/617/617
f 617/617/617 620/620/620 619/619/619
f 623/623/623 622/622/622 621/621/621
f 621/621/621 624/624/624 623/623/623
f 627/627/627 626/626/626 625/625/625
f 625/625/625 628/628/628 627/627/627
f 631/631/631 630/630/630 629/629/629
f 629/629/629 632/632/632 631/631/631
f 635/635/635 634/634/634 633/633/633
f 633/633/633 636/636/636 635/635/635
f 639/639/639 638/638/638 637/637/637
f 637/637/637 640/640/640 639/639/639
f 643/643/643 642/642/642 641/641/641
f 641/641/641 644/644/644 643/643/643
f 647/647/647 646/646/646 645/645/645
f 645/645/645 648/648/648 647/647/647
f 651/651/651 650/650/650 649/649/649
f 649/649/649 652/652/652 651/651/651
f 655/655/655 654/654/654 653/653/653
f 653/653/653 656/656/656 655/655/655
f 659/659/659 658/658/658 657/657/657
f 657/657/657 660/660/660 659/659/659
f 663/663/663 662/662/662 661/661/661
f 661/661/661 664/664/664 663/663/663
f 667/667/667 666/666/666 665/665/665
f 665/665/665 668/668/668 667/667/667
f 671/671/671 670/670/670 669/669/669
f 669/669/669 672/672/672 671/671/671
f 675/675/675 674/674/674 673/673/673
f 673/673/673 676/676/676 675/675/675
f 679/679/679 678/678/678 677/677/677
f 677/677/677 680/680/680 679/679/679
f 683/683/683 682/682/682 681/681/681
f 681/681/681 684/684/684 683/683/683
f 687/687/687 686/686/686 685/685/685
f 685/685/685 688/688/688 687/687/687
f 691/691/691 690/690/690 689/689/689
f 689/689/689 692/692/692 691/691/691
f 695/695/695 694/694/694 693/693/693
f 693/693/693 696/696/696 695/695/695
f 699/699/699 698/698/698 697/697/697
f 697/697/697 700/700/700 699/699/699
f 703/703/703 702/702/702 701/701/701
f 701/701/701 704/704/704 703/703/703
f 707/707/707 706/706/706 705/705/705
f 705/705/705 708/708/708 707/707/707
f 711/711/711 710/710/710 709/709/709
f 709/709/709 712/712/712 711/711/711
f 715/715/715 714/714/714 713/713/713
f 713/713/713 716/716/716 715/715/715
f 719/719/719 718/718/718 717/717/717
f 717/717/717 720/720/720 719/719/719
f 723/723/723 722/722/722 721/721/721
f 721/721/721 724/724/724 723/723/723
f 727/727/727 726/726/726 725/725/725
f 725/725/725 728/728/728 727/727/727
f 731/731/731 730/730/730 729/729/729
f 729/729/729 732/732/732 731/731/731
f 735/735/735 734/734/734 733/733/733
f 733/733/733 736/736/736 735/735/735
f 739/739/739 738/738/738 737/737/737
f 737/737/737 740/740/740 739/739/739
f 743/743/743 742/742/742 741/741/741
f 741/741/741 744/744/744 743/743/743
f 747/747/747 746/746/746 745/745/745
f 745/745/745 748/748/748 747/747/747
f 751/751/751 750/750/750 749/749/749
f 749/749/749 752/752/752 751/751/751
f 755/755/755 754/754/754 753/753/753
f 753/753/753 756/756/756 755/755/755
f 759/759/759 758/758/758 757/757/757
f 757/757/757 760/760/760 759/759/759
f 763/763/763 762/762/762 761/761/761
f 761/761/761 764/764/764 763/763/763
f 767/767/767 766/766/766 765/765/765
f 765/765/765 768/768/768 767/767/767
f 771/771/771 770/770/770 769/769/769
f 769/769/769 772/772/772 771/771/771
f 775/775/775 774/774/774 773/773/773
f 773/773/773 776/776/776 775/775/775
f 779/779/779 778/778/778 777/777/777
f 777/777/777 780/780/780 779/779/779
f 783/783/783 782/782/782 781/781/781
f 781/781/781 784/784/784 783/783/783
f 787/787/787 786/786/786 785/785/785
f 785/785/785 788/788/788 787/787/787
f 791/791/791 790/790/790 789/789/789
f 789/789/789 792/792/792 791/791/791
f 795/795/795 794/794/794 793/793/793
f 793/793/793 796/796/796 795/795/795
f 799/799/799 798/798/798 797/797/797
f 797/797/797 800/800/800 799/799/799
f 803/803/803 802/802/802 801/801/801
f 801/801/801 804/804/804 803/803/803
f 807/807/807 806/806/806 805/805/805
f 805/805/805 808/808/808 807/807/807
f 811/811/811 810/810/810 809/809/809
f 809/809/809 812/812/812 811/811/811
f 815/815/815 814/814/814 813/813/813
f 813/813/813 816/816/816 815/815/815
f 819/819/819 818/818/818 817/817/817
f 817/817/817 820/820/820 819/819/819
f 823/823/823 822/822/822 821/821/821
f 821/821/821 824/824/824 823/823/823
f 827/827/827 826/826/826 825/825/825
f 825/825/825 828/828/828 827/827/827
f 831/831/831 830/830/830 829/829/829
f 829/829/829 832/832/832 831/831/831
f 835/835/835 834/834/834 833/833/833
f 833/833/833 836/836/836 835/835/835
f 839/839/839 838/838/838 837/837/837
f 837/837/837 840/840/840 839/839/839
f 843/843/843 842/842/842 841/841/841
f 841/841/841 844/844/844 843/843/843
f 847/847/847 846/846/846 845/845/845
f 845/845/845 848/848/848 847/847/847
f 851/851/851 850/850/850 849/849/849
f 849/849/849 852/852/852 851/851/851
f 855/855/855 854/854/854 853/853/853
f 853/853/853 856/856/856 855/855/855
f 859/859/859 858/858/858 857/857/857
f 857/857/857 860/860/860 859/859/859
f 863/863/863 862/862/862 861/861/861
f 861/861/861 864/864/864 863/863/863
f 867/867/867 866/866/866 865/865/865
f 865/865/865 868/868/868 867/867/867
f 871/871/871 870/870/870 869/869/869
f 869/869/869 872/872/872 871/871/871
f 875/875/875 874/874/874 873/873/873
f 873/873/873 876/876/876 875/875/875
f 879/879/879 878/878/878 877/877/877
f 877/877/877 880/880/880 879/879/879
f 883/883/883 882/882/882 881/881/881
f 881/881/881 884/884/884 883/883/883
f 887/887/887 886/886/886 885/885/885
f 885/885/885 888/888/888 887/887/887
f 891/891/891 890/890/890 889/889/889
f 889/889/889 892/892/892 891/891/891
f 895/895/895 894/894/894 893/893/893
f 893/893/893 896/896/896 895/895/895
f 899/899/899 898/898/898 897/897/897
f 897/897/897 900/900/900 899/899/899
f 903/903/903 902/902/902 901/901/901
f 901/901/901 904/904/904 903/903/903
f 907/907/907 906/906/906 905/905/905
f 905/905/905 908/908/908 907/907/907
f 911/911/911 910/910/910 909/909/909
f 909/909/909 912/912/912 911/911/911
f 915/915/915 914/914/914 913/913/913
f 913/913/913 916/916/916 915/915/915
f 919/919/919 918/918/918 917/917/917
f 917/917/917 920/920/920 919/919/919
f 923/923/923 922/922/922 921/921/921
f 921/921/921 924/924/924 923/923/923
f 927/927/927 926/926/926 925/925/925
f 925/925/925 928/928/928 927/927/927
f 931/931/931 930/930/930 929/929/929
f 929/929/929 932/932/932 931/931/931
f 935/935/935 934/934/934 933/933/933
f 933/933/933 936/936/936 935/935/935
