g dengken-mesh
v -1376 769 0
v -1376 1121 0
v -1664 1121 0
v -1664 769 0
v -1664 769 0
v -1664 1121 0
v -1920 1121 0
v -1920 769 0
v -1920 833 0
v -1920 1057 0
v -2047 1057 0
v -2047 833 0
v -1664 641 0
v -1664 737 0
v -1888 737 0
v -1888 641 0
v -1440 641 0
v -1440 737 0
v -1664 737 0
v -1664 641 0
v -1184 961 0
v -1184 1089 0
v -1344 1089 0
v -1344 961 0
v -1216 1185 0
v -1216 1313 0
v -1376 1313 0
v -1376 1185 0
v -1088 1281 0
v -1088 1409 0
v -1216 1409 0
v -1216 1281 0
v -1536 1185 0
v -1536 1313 0
v -1664 1313 0
v -1664 1185 0
v -928 1409 0
v -928 1505 0
v -1056 1505 0
v -1056 1409 0
v -1760 545 0
v -1760 641 0
v -1888 641 0
v -1888 545 0
v -1408 545 0
v -1408 641 0
v -1536 641 0
v -1536 545 0
v -1536 545 0
v -1536 641 0
v -1664 641 0
v -1664 545 0
v -1312 1121 0
v -1312 1185 0
v -1440 1185 0
v -1440 1121 0
v -1600 1121 0
v -1600 1185 0
v -1728 1185 0
v -1728 1121 0
v -1728 1121 0
v -1728 1185 0
v -1856 1185 0
v -1856 1121 0
v -1728 737 0
v -1728 769 0
v -1952 769 0
v -1952 737 0
v -1504 737 0
v -1504 769 0
v -1728 769 0
v -1728 737 0
v -1600 449 0
v -1600 545 0
v -1664 545 0
v -1664 449 0
v -1440 1121 0
v -1440 1185 0
v -1536 1185 0
v -1536 1121 0
v -1216 1313 0
v -1216 1377 0
v -1280 1377 0
v -1280 1313 0
v -1376 1185 0
v -1376 1249 0
v -1440 1249 0
v -1440 1185 0
v -1664 1185 0
v -1664 1249 0
v -1728 1249 0
v -1728 1185 0
v -1920 769 0
v -1920 833 0
v -1984 833 0
v -1984 769 0
v -1280 897 0
v -1280 961 0
v -1344 961 0
v -1344 897 0
v -1344 929 0
v -1344 1057 0
v -1376 1057 0
v -1376 929 0
v -1344 801 0
v -1344 929 0
v -1376 929 0
v -1376 801 0
v -1056 1377 0
v -1056 1473 0
v -1088 1473 0
v -1088 1377 0
v -1408 513 0
v -1408 545 0
v -1504 545 0
v -1504 513 0
v -1152 1249 0
v -1152 1281 0
v -1216 1281 0
v -1216 1249 0
v -1088 1409 0
v -1088 1473 0
v -1120 1473 0
v -1120 1409 0
v -928 1505 0
v -928 1537 0
v -992 1537 0
v -992 1505 0
v -1568 1313 0
v -1568 1345 0
v -1632 1345 0
v -1632 1313 0
v -1440 1185 0
v -1440 1217 0
v -1504 1217 0
v -1504 1185 0
v -1408 641 0
v -1408 705 0
v -1440 705 0
v -1440 641 0
v -1696 609 0
v -1696 641 0
v -1760 641 0
v -1760 609 0
v -1824 513 0
v -1824 545 0
v -1888 545 0
v -1888 513 0
v -1312 833 0
v -1312 897 0
v -1344 897 0
v -1344 833 0
v -1216 1089 0
v -1216 1121 0
v -1280 1121 0
v -1280 1089 0
v -1376 641 0
v -1376 705 0
v -1408 705 0
v -1408 641 0
v -1504 513 0
v -1504 545 0
v -1568 545 0
v -1568 513 0
v -1056 1313 0
v -1056 1377 0
v -1088 1377 0
v -1088 1313 0
v -1376 577 0
v -1376 641 0
v -1408 641 0
v -1408 577 0
v -960 1377 0
v -960 1409 0
v -1024 1409 0
v -1024 1377 0
v -1152 1089 0
v -1152 1121 0
v -1216 1121 0
v -1216 1089 0
v -896 1505 0
v -896 1569 0
v -928 1569 0
v -928 1505 0
v -1856 1121 0
v -1856 1153 0
v -1888 1153 0
v -1888 1121 0
v -1344 1089 0
v -1344 1121 0
v -1376 1121 0
v -1376 1089 0
v -1568 1153 0
v -1568 1185 0
v -1600 1185 0
v -1600 1153 0
v -1536 1121 0
v -1536 1153 0
v -1568 1153 0
v -1568 1121 0
v -1728 577 0
v -1728 609 0
v -1760 609 0
v -1760 577 0
v -1984 801 0
v -1984 833 0
v -2016 833 0
v -2016 801 0
v -1920 1057 0
v -1920 1089 0
v -1952 1089 0
v -1952 1057 0
v -1248 929 0
v -1248 961 0
v -1280 961 0
v -1280 929 0
v -1280 1153 0
v -1280 1185 0
v -1312 1185 0
v -1312 1153 0
v -1120 1409 0
v -1120 1441 0
v -1152 1441 0
v -1152 1409 0
v -1024 1345 0
v -1024 1377 0
v -1056 1377 0
v -1056 1345 0
v -1024 1377 0
v -1024 1409 0
v -1056 1409 0
v -1056 1377 0
v -896 1473 0
v -896 1505 0
v -928 1505 0
v -928 1473 0
v -1664 1249 0
v -1664 1281 0
v -1696 1281 0
v -1696 1249 0
v -1184 1217 0
v -1184 1249 0
v -1216 1249 0
v -1216 1217 0
v -1280 1313 0
v -1280 1345 0
v -1312 1345 0
v -1312 1313 0
v -1376 1249 0
v -1376 1281 0
v -1408 1281 0
v -1408 1249 0
vt 0.0009765625 0.0016181469
vt 0.0009765625 0.571197391
vt 0.282226562 0.571197391
vt 0.282226562 0.0016181469
vt 0.284179688 0.0016181469
vt 0.284179688 0.571197391
vt 0.534179688 0.571197391
vt 0.534179688 0.0016181469
vt 0.536132812 0.0016181469
vt 0.536132812 0.364077687
vt 0.661132812 0.364077687
vt 0.661132812 0.0016181469
vt 0.663085938 0.0016181469
vt 0.663085938 0.156957924
vt 0.881835938 0.156957924
vt 0.881835938 0.0016181469
vt 0.663085938 0.160194159
vt 0.663085938 0.315533996
vt 0.881835938 0.315533996
vt 0.881835938 0.160194159
vt 0.663085938 0.31877023
vt 0.663085938 0.525889993
vt 0.819335938 0.525889993
vt 0.819335938 0.31877023
vt 0.821289062 0.31877023
vt 0.821289062 0.525889993
vt 0.977539062 0.525889993
vt 0.977539062 0.31877023
vt 0.536132812 0.367313921
vt 0.536132812 0.574433684
vt 0.661132812 0.574433684
vt 0.661132812 0.367313921
vt 0.663085938 0.529126227
vt 0.663085938 0.73624599
vt 0.788085938 0.73624599
vt 0.788085938 0.529126227
vt 0.790039062 0.529126227
vt 0.790039062 0.684466004
vt 0.915039062 0.684466004
vt 0.915039062 0.529126227
vt 0.0009765625 0.574433684
vt 0.0009765625 0.729773462
vt 0.125976562 0.729773462
vt 0.125976562 0.574433684
vt 0.127929688 0.574433684
vt 0.127929688 0.729773462
vt 0.252929688 0.729773462
vt 0.252929688 0.574433684
vt 0.254882812 0.574433684
vt 0.254882812 0.729773462
vt 0.379882812 0.729773462
vt 0.379882812 0.574433684
vt 0.381835938 0.574433684
vt 0.381835938 0.677993536
vt 0.506835938 0.677993536
vt 0.506835938 0.574433684
vt 0.536132812 0.577669859
vt 0.536132812 0.68122977
vt 0.661132812 0.68122977
vt 0.661132812 0.577669859
vt 0.381835938 0.68122977
vt 0.381835938 0.784789622
vt 0.506835938 0.784789622
vt 0.506835938 0.68122977
vt 0.0009765625 0.733009696
vt 0.0009765625 0.784789622
vt 0.219726562 0.784789622
vt 0.219726562 0.733009696
vt 0.663085938 0.739482164
vt 0.663085938 0.79126215
vt 0.881835938 0.79126215
vt 0.881835938 0.739482164
vt 0.916992188 0.529126227
vt 0.916992188 0.684466004
vt 0.979492188 0.684466004
vt 0.979492188 0.529126227
vt 0.536132812 0.684466004
vt 0.536132812 0.788025856
vt 0.629882812 0.788025856
vt 0.629882812 0.684466004
vt 0.883789062 0.687702298
vt 0.883789062 0.79126215
vt 0.946289062 0.79126215
vt 0.946289062 0.687702298
vt 0.221679688 0.733009696
vt 0.221679688 0.836569548
vt 0.284179688 0.836569548
vt 0.284179688 0.733009696
vt 0.286132812 0.733009696
vt 0.286132812 0.836569548
vt 0.348632812 0.836569548
vt 0.348632812 0.733009696
vt 0.0009765625 0.788025856
vt 0.0009765625 0.891585767
vt 0.0634765625 0.891585767
vt 0.0634765625 0.788025856
vt 0.0654296875 0.788025856
vt 0.0654296875 0.891585767
vt 0.127929688 0.891585767
vt 0.127929688 0.788025856
vt 0.948242188 0.687702298
vt 0.948242188 0.894822001
vt 0.979492188 0.894822001
vt 0.979492188 0.687702298
vt 0.129882812 0.788025856
vt 0.129882812 0.995145619
vt 0.161132812 0.995145619
vt 0.161132812 0.788025856
vt 0.163085938 0.788025856
vt 0.163085938 0.943365693
vt 0.194335938 0.943365693
vt 0.194335938 0.788025856
vt 0.381835938 0.788025856
vt 0.381835938 0.839805841
vt 0.475585938 0.839805841
vt 0.475585938 0.788025856
vt 0.536132812 0.79126215
vt 0.536132812 0.843042076
vt 0.598632812 0.843042076
vt 0.598632812 0.79126215
vt 0.477539062 0.788025856
vt 0.477539062 0.891585767
vt 0.508789062 0.891585767
vt 0.508789062 0.788025856
vt 0.663085938 0.794498384
vt 0.663085938 0.84627831
vt 0.725585938 0.84627831
vt 0.725585938 0.794498384
vt 0.727539062 0.794498384
vt 0.727539062 0.84627831
vt 0.790039062 0.84627831
vt 0.790039062 0.794498384
vt 0.791992188 0.794498384
vt 0.791992188 0.84627831
vt 0.854492188 0.84627831
vt 0.854492188 0.794498384
vt 0.600585938 0.79126215
vt 0.600585938 0.894822001
vt 0.631835938 0.894822001
vt 0.631835938 0.79126215
vt 0.856445312 0.794498384
vt 0.856445312 0.84627831
vt 0.918945312 0.84627831
vt 0.918945312 0.794498384
vt 0.221679688 0.839805841
vt 0.221679688 0.891585767
vt 0.284179688 0.891585767
vt 0.284179688 0.839805841
vt 0.286132812 0.839805841
vt 0.286132812 0.943365693
vt 0.317382812 0.943365693
vt 0.317382812 0.839805841
vt 0.381835938 0.843042076
vt 0.381835938 0.894822001
vt 0.444335938 0.894822001
vt 0.444335938 0.843042076
vt 0.319335938 0.839805841
vt 0.319335938 0.943365693
vt 0.350585938 0.943365693
vt 0.350585938 0.839805841
vt 0.536132812 0.84627831
vt 0.536132812 0.898058236
vt 0.598632812 0.898058236
vt 0.598632812 0.84627831
vt 0.663085938 0.849514544
vt 0.663085938 0.953074455
vt 0.694335938 0.953074455
vt 0.694335938 0.849514544
vt 0.696289062 0.849514544
vt 0.696289062 0.953074455
vt 0.727539062 0.953074455
vt 0.727539062 0.849514544
vt 0.729492188 0.849514544
vt 0.729492188 0.90129447
vt 0.791992188 0.90129447
vt 0.791992188 0.849514544
vt 0.793945312 0.849514544
vt 0.793945312 0.90129447
vt 0.856445312 0.90129447
vt 0.856445312 0.849514544
vt 0.858398438 0.849514544
vt 0.858398438 0.953074455
vt 0.889648438 0.953074455
vt 0.889648438 0.849514544
vt 0.891601562 0.849514544
vt 0.891601562 0.90129447
vt 0.922851562 0.90129447
vt 0.922851562 0.849514544
vt 0.0009765625 0.894822001
vt 0.0009765625 0.946601927
vt 0.0322265625 0.946601927
vt 0.0322265625 0.894822001
vt 0.0341796875 0.894822001
vt 0.0341796875 0.946601927
vt 0.0654296875 0.946601927
vt 0.0654296875 0.894822001
vt 0.0673828125 0.894822001
vt 0.0673828125 0.946601927
vt 0.0986328125 0.946601927
vt 0.0986328125 0.894822001
vt 0.221679688 0.894822001
vt 0.221679688 0.946601927
vt 0.252929688 0.946601927
vt 0.252929688 0.894822001
vt 0.477539062 0.894822001
vt 0.477539062 0.946601927
vt 0.508789062 0.946601927
vt 0.508789062 0.894822001
vt 0.381835938 0.898058236
vt 0.381835938 0.949838161
vt 0.413085938 0.949838161
vt 0.413085938 0.898058236
vt 0.415039062 0.898058236
vt 0.415039062 0.949838161
vt 0.446289062 0.949838161
vt 0.446289062 0.898058236
vt 0.600585938 0.898058236
vt 0.600585938 0.949838161
vt 0.631835938 0.949838161
vt 0.631835938 0.898058236
vt 0.948242188 0.898058236
vt 0.948242188 0.949838161
vt 0.979492188 0.949838161
vt 0.979492188 0.898058236
vt 0.536132812 0.90129447
vt 0.536132812 0.953074455
vt 0.567382812 0.953074455
vt 0.567382812 0.90129447
vt 0.729492188 0.904530764
vt 0.729492188 0.956310689
vt 0.760742188 0.956310689
vt 0.760742188 0.904530764
vt 0.762695312 0.904530764
vt 0.762695312 0.956310689
vt 0.793945312 0.956310689
vt 0.793945312 0.904530764
vt 0.795898438 0.904530764
vt 0.795898438 0.956310689
vt 0.827148438 0.956310689
vt 0.827148438 0.904530764
vt 0.891601562 0.904530764
vt 0.891601562 0.956310689
vt 0.922851562 0.956310689
vt 0.922851562 0.904530764
vt 0.163085938 0.946601927
vt 0.163085938 0.998381853
vt 0.194335938 0.998381853
vt 0.194335938 0.946601927
vt 0.286132812 0.946601927
vt 0.286132812 0.998381853
vt 0.317382812 0.998381853
vt 0.317382812 0.946601927
g dengken-mesh_0
f 3/3/3 2/2/2 1/1/1
f 1/1/1 4/4/4 3/3/3
f 7/7/7 6/6/6 5/5/5
f 5/5/5 8/8/8 7/7/7
f 11/11/11 10/10/10 9/9/9
f 9/9/9 12/12/12 11/11/11
f 15/15/15 14/14/14 13/13/13
f 13/13/13 16/16/16 15/15/15
f 19/19/19 18/18/18 17/17/17
f 17/17/17 20/20/20 19/19/19
f 23/23/23 22/22/22 21/21/21
f 21/21/21 24/24/24 23/23/23
f 27/27/27 26/26/26 25/25/25
f 25/25/25 28/28/28 27/27/27
f 31/31/31 30/30/30 29/29/29
f 29/29/29 32/32/32 31/31/31
f 35/35/35 34/34/34 33/33/33
f 33/33/33 36/36/36 35/35/35
f 39/39/39 38/38/38 37/37/37
f 37/37/37 40/40/40 39/39/39
f 43/43/43 42/42/42 41/41/41
f 41/41/41 44/44/44 43/43/43
f 47/47/47 46/46/46 45/45/45
f 45/45/45 48/48/48 47/47/47
f 51/51/51 50/50/50 49/49/49
f 49/49/49 52/52/52 51/51/51
f 55/55/55 54/54/54 53/53/53
f 53/53/53 56/56/56 55/55/55
f 59/59/59 58/58/58 57/57/57
f 57/57/57 60/60/60 59/59/59
f 63/63/63 62/62/62 61/61/61
f 61/61/61 64/64/64 63/63/63
f 67/67/67 66/66/66 65/65/65
f 65/65/65 68/68/68 67/67/67
f 71/71/71 70/70/70 69/69/69
f 69/69/69 72/72/72 71/71/71
f 75/75/75 74/74/74 73/73/73
f 73/73/73 76/76/76 75/75/75
f 79/79/79 78/78/78 77/77/77
f 77/77/77 80/80/80 79/79/79
f 83/83/83 82/82/82 81/81/81
f 81/81/81 84/84/84 83/83/83
f 87/87/87 86/86/86 85/85/85
f 85/85/85 88/88/88 87/87/87
f 91/91/91 90/90/90 89/89/89
f 89/89/89 92/92/92 91/91/91
f 95/95/95 94/94/94 93/93/93
f 93/93/93 96/96/96 95/95/95
f 99/99/99 98/98/98 97/97/97
f 97/97/97 100/100/100 99/99/99
f 103/103/103 102/102/102 101/101/101
f 101/101/101 104/104/104 103/103/103
f 107/107/107 106/106/106 105/105/105
f 105/105/105 108/108/108 107/107/107
f 111/111/111 110/110/110 109/109/109
f 109/109/109 112/112/112 111/111/111
f 115/115/115 114/114/114 113/113/113
f 113/113/113 116/116/116 115/115/115
f 119/119/119 118/118/118 117/117/117
f 117/117/117 120/120/120 119/119/119
f 123/123/123 122/122/122 121/121/121
f 121/121/121 124/124/124 123/123/123
f 127/127/127 126/126/126 125/125/125
f 125/125/125 128/128/128 127/127/127
f 131/131/131 130/130/130 129/129/129
f 129/129/129 132/132/132 131/131/131
f 135/135/135 134/134/134 133/133/133
f 133/133/133 136/136/136 135/135/135
f 139/139/139 138/138/138 137/137/137
f 137/137/137 140/140/140 139/139/139
f 143/143/143 142/142/142 141/141/141
f 141/141/141 144/144/144 143/143/143
f 147/147/147 146/146/146 145/145/145
f 145/145/145 148/148/148 147/147/147
f 151/151/151 150/150/150 149/149/149
f 149/149/149 152/152/152 151/151/151
f 155/155/155 154/154/154 153/153/153
f 153/153/153 156/156/156 155/155/155
f 159/159/159 158/158/158 157/157/157
f 157/157/157 160/160/160 159/159/159
f 163/163/163 162/162/162 161/161/161
f 161/161/161 164/164/164 163/163/163
f 167/167/167 166/166/166 165/165/165
f 165/165/165 168/168/168 167/167/167
f 171/171/171 170/170/170 169/169/169
f 169/169/169 172/172/172 171/171/171
f 175/175/175 174/174/174 173/173/173
f 173/173/173 176/176/176 175/175/175
f 179/179/179 178/178/178 177/177/177
f 177/177/177 180/180/180 179/179/179
f 183/183/183 182/182/182 181/181/181
f 181/181/181 184/184/184 183/183/183
f 187/187/187 186/186/186 185/185/185
f 185/185/185 188/188/188 187/187/187
f 191/191/191 190/190/190 189/189/189
f 189/189/189 192/192/192 191/191/191
f 195/195/195 194/194/194 193/193/193
f 193/193/193 196/196/196 195/195/195
f 199/199/199 198/198/198 197/197/197
f 197/197/197 200/200/200 199/199/199
f 203/203/203 202/202/202 201/201/201
f 201/201/201 204/204/204 203/203/203
f 207/207/207 206/206/206 205/205/205
f 205/205/205 208/208/208 207/207/207
f 211/211/211 210/210/210 209/209/209
f 209/209/209 212/212/212 211/211/211
f 215/215/215 214/214/214 213/213/213
f 213/213/213 216/216/216 215/215/215
f 219/219/219 218/218/218 217/217/217
f 217/217/217 220/220/220 219/219/219
f 223/223/223 222/222/222 221/221/221
f 221/221/221 224/224/224 223/223/223
f 227/227/227 226/226/226 225/225/225
f 225/225/225 228/228/228 227/227/227
f 231/231/231 230/230/230 229/229/229
f 229/229/229 232/232/232 231/231/231
f 235/235/235 234/234/234 233/233/233
f 233/233/233 236/236/236 235/235/235
f 239/239/239 238/238/238 237/237/237
f 237/237/237 240/240/240 239/239/239
f 243/243/243 242/242/242 241/241/241
f 241/241/241 244/244/244 243/243/243
f 247/247/247 246/246/246 245/245/245
f 245/245/245 248/248/248 247/247/247
f 251/251/251 250/250/250 249/249/249
f 249/249/249 252/252/252 251/251/251
