g yichui_3-mesh
v -160 79 0
v -160 687 0
v -640 687 0
v -640 79 0
v -640 79 0
v -640 687 0
v -1088 687 0
v -1088 79 0
v -160 687 0
v -160 815 0
v -416 815 0
v -416 687 0
v -416 687 0
v -416 815 0
v -640 815 0
v -640 687 0
v -448 815 0
v -448 975 0
v -608 975 0
v -608 815 0
v -64 367 0
v -64 623 0
v -160 623 0
v -160 367 0
v -64 111 0
v -64 367 0
v -160 367 0
v -160 111 0
v -608 15 0
v -608 79 0
v -896 79 0
v -896 15 0
v -320 15 0
v -320 79 0
v -608 79 0
v -608 15 0
v -1088 335 0
v -1088 559 0
v -1152 559 0
v -1152 335 0
v -1088 111 0
v -1088 335 0
v -1152 335 0
v -1152 111 0
v -640 687 0
v -640 751 0
v -768 751 0
v -768 687 0
v -864 911 0
v -864 975 0
v -960 975 0
v -960 911 0
v -1152 143 0
v -1152 239 0
v -1199 239 0
v -1199 143 0
v -1056 687 0
v -1056 783 0
v -1120 783 0
v -1120 687 0
v -96 687 0
v -96 783 0
v -160 783 0
v -160 687 0
v -0 175 0
v -0 271 0
v -64 271 0
v -64 175 0
v -736 783 0
v -736 815 0
v -928 815 0
v -928 783 0
v -0 271 0
v -0 367 0
v -64 367 0
v -64 271 0
v -928 783 0
v -928 815 0
v -1088 815 0
v -1088 783 0
v -352 911 0
v -352 975 0
v -416 975 0
v -416 911 0
v -768 879 0
v -768 943 0
v -832 943 0
v -832 879 0
v -704 815 0
v -704 879 0
v -768 879 0
v -768 815 0
v -192 815 0
v -192 847 0
v -288 847 0
v -288 815 0
v -448 0 0
v -448 15 0
v -544 15 0
v -544 0 0
v -160 47 0
v -160 79 0
v -256 79 0
v -256 47 0
v -992 687 0
v -992 719 0
v -1056 719 0
v -1056 687 0
v -960 47 0
v -960 79 0
v -1024 79 0
v -1024 47 0
v -928 719 0
v -928 783 0
v -960 783 0
v -960 719 0
v -992 751 0
v -992 783 0
v -1056 783 0
v -1056 751 0
v -32 111 0
v -32 175 0
v -64 175 0
v -64 111 0
v -96 79 0
v -96 111 0
v -160 111 0
v -160 79 0
v -1152 271 0
v -1152 335 0
v -1184 335 0
v -1184 271 0
v -64 623 0
v -64 687 0
v -96 687 0
v -96 623 0
v -0 367 0
v -0 431 0
v -32 431 0
v -32 367 0
v -896 47 0
v -896 79 0
v -960 79 0
v -960 47 0
v -416 879 0
v -416 943 0
v -448 943 0
v -448 879 0
v -416 815 0
v -416 879 0
v -448 879 0
v -448 815 0
v -256 47 0
v -256 79 0
v -320 79 0
v -320 47 0
v -544 0 0
v -544 15 0
v -608 15 0
v -608 0 0
v -288 815 0
v -288 847 0
v -352 847 0
v -352 815 0
v -32 527 0
v -32 591 0
v -64 591 0
v -64 527 0
v -32 463 0
v -32 527 0
v -64 527 0
v -64 463 0
v -704 751 0
v -704 783 0
v -768 783 0
v -768 751 0
v -768 751 0
v -768 783 0
v -832 783 0
v -832 751 0
v -128 623 0
v -128 655 0
v -160 655 0
v -160 623 0
v -96 655 0
v -96 687 0
v -128 687 0
v -128 655 0
v -1088 79 0
v -1088 111 0
v -1120 111 0
v -1120 79 0
v -1152 111 0
v -1152 143 0
v -1184 143 0
v -1184 111 0
v -320 847 0
v -320 879 0
v -352 879 0
v -352 847 0
v -736 879 0
v -736 911 0
v -768 911 0
v -768 879 0
v -640 751 0
v -640 783 0
v -672 783 0
v -672 751 0
v -608 815 0
v -608 847 0
v -640 847 0
v -640 815 0
vt 0.0009765625 0.0010638237
vt 0.0009765625 0.647872329
vt 0.469726562 0.647872329
vt 0.469726562 0.0010638237
vt 0.471679688 0.0010638237
vt 0.471679688 0.647872329
vt 0.909179688 0.647872329
vt 0.909179688 0.0010638237
vt 0.0009765625 0.649999976
vt 0.0009765625 0.786170244
vt 0.250976562 0.786170244
vt 0.250976562 0.649999976
vt 0.252929688 0.649999976
vt 0.252929688 0.786170244
vt 0.471679688 0.786170244
vt 0.471679688 0.649999976
vt 0.473632812 0.649999976
vt 0.473632812 0.820212781
vt 0.629882812 0.820212781
vt 0.629882812 0.649999976
vt 0.631835938 0.649999976
vt 0.631835938 0.922340393
vt 0.725585938 0.922340393
vt 0.725585938 0.649999976
vt 0.727539062 0.649999976
vt 0.727539062 0.922340393
vt 0.821289062 0.922340393
vt 0.821289062 0.649999976
vt 0.0009765625 0.788297892
vt 0.0009765625 0.856382966
vt 0.282226562 0.856382966
vt 0.282226562 0.788297892
vt 0.0009765625 0.858510613
vt 0.0009765625 0.926595747
vt 0.282226562 0.926595747
vt 0.282226562 0.858510613
vt 0.911132812 0.0010638237
vt 0.911132812 0.239361703
vt 0.973632812 0.239361703
vt 0.973632812 0.0010638237
vt 0.911132812 0.241489351
vt 0.911132812 0.47978723
vt 0.973632812 0.47978723
vt 0.973632812 0.241489351
vt 0.823242188 0.649999976
vt 0.823242188 0.71808511
vt 0.948242188 0.71808511
vt 0.948242188 0.649999976
vt 0.823242188 0.720212758
vt 0.823242188 0.788297892
vt 0.916992188 0.788297892
vt 0.916992188 0.720212758
vt 0.950195312 0.481914878
vt 0.950195312 0.584042549
vt 0.997070312 0.584042549
vt 0.997070312 0.481914878
vt 0.918945312 0.720212758
vt 0.918945312 0.822340429
vt 0.981445312 0.822340429
vt 0.981445312 0.720212758
vt 0.284179688 0.788297892
vt 0.284179688 0.890425563
vt 0.346679688 0.890425563
vt 0.346679688 0.788297892
vt 0.348632812 0.788297892
vt 0.348632812 0.890425563
vt 0.411132812 0.890425563
vt 0.411132812 0.788297892
vt 0.284179688 0.89255321
vt 0.284179688 0.926595747
vt 0.471679688 0.926595747
vt 0.471679688 0.89255321
vt 0.823242188 0.790425539
vt 0.823242188 0.89255321
vt 0.885742188 0.89255321
vt 0.885742188 0.790425539
vt 0.473632812 0.822340429
vt 0.473632812 0.856382966
vt 0.629882812 0.856382966
vt 0.629882812 0.822340429
vt 0.918945312 0.824468076
vt 0.918945312 0.89255321
vt 0.981445312 0.89255321
vt 0.981445312 0.824468076
vt 0.473632812 0.858510613
vt 0.473632812 0.926595747
vt 0.536132812 0.926595747
vt 0.536132812 0.858510613
vt 0.538085938 0.858510613
vt 0.538085938 0.926595747
vt 0.600585938 0.926595747
vt 0.600585938 0.858510613
vt 0.823242188 0.894680858
vt 0.823242188 0.928723395
vt 0.916992188 0.928723395
vt 0.916992188 0.894680858
vt 0.631835938 0.9244681
vt 0.631835938 0.941489339
vt 0.725585938 0.941489339
vt 0.725585938 0.9244681
vt 0.727539062 0.9244681
vt 0.727539062 0.958510637
vt 0.821289062 0.958510637
vt 0.821289062 0.9244681
vt 0.918945312 0.894680858
vt 0.918945312 0.928723395
vt 0.981445312 0.928723395
vt 0.981445312 0.894680858
vt 0.0009765625 0.928723395
vt 0.0009765625 0.962765932
vt 0.0634765625 0.962765932
vt 0.0634765625 0.928723395
vt 0.0654296875 0.928723395
vt 0.0654296875 0.996808529
vt 0.0966796875 0.996808529
vt 0.0966796875 0.928723395
vt 0.0986328125 0.928723395
vt 0.0986328125 0.962765932
vt 0.161132812 0.962765932
vt 0.161132812 0.928723395
vt 0.163085938 0.928723395
vt 0.163085938 0.996808529
vt 0.194335938 0.996808529
vt 0.194335938 0.928723395
vt 0.196289062 0.928723395
vt 0.196289062 0.962765932
vt 0.258789062 0.962765932
vt 0.258789062 0.928723395
vt 0.260742188 0.928723395
vt 0.260742188 0.996808529
vt 0.291992188 0.996808529
vt 0.291992188 0.928723395
vt 0.293945312 0.928723395
vt 0.293945312 0.996808529
vt 0.325195312 0.996808529
vt 0.325195312 0.928723395
vt 0.327148438 0.928723395
vt 0.327148438 0.996808529
vt 0.358398438 0.996808529
vt 0.358398438 0.928723395
vt 0.360351562 0.928723395
vt 0.360351562 0.962765932
vt 0.422851562 0.962765932
vt 0.422851562 0.928723395
vt 0.424804688 0.928723395
vt 0.424804688 0.996808529
vt 0.456054688 0.996808529
vt 0.456054688 0.928723395
vt 0.458007812 0.928723395
vt 0.458007812 0.996808529
vt 0.489257812 0.996808529
vt 0.489257812 0.928723395
vt 0.491210938 0.928723395
vt 0.491210938 0.962765932
vt 0.553710938 0.962765932
vt 0.553710938 0.928723395
vt 0.555664062 0.928723395
vt 0.555664062 0.945744693
vt 0.618164062 0.945744693
vt 0.618164062 0.928723395
vt 0.823242188 0.930851042
vt 0.823242188 0.964893639
vt 0.885742188 0.964893639
vt 0.885742188 0.930851042
vt 0.887695312 0.930851042
vt 0.887695312 0.998936176
vt 0.918945312 0.998936176
vt 0.918945312 0.930851042
vt 0.920898438 0.930851042
vt 0.920898438 0.998936176
vt 0.952148438 0.998936176
vt 0.952148438 0.930851042
vt 0.631835938 0.943617046
vt 0.631835938 0.977659583
vt 0.694335938 0.977659583
vt 0.694335938 0.943617046
vt 0.555664062 0.947872341
vt 0.555664062 0.981914878
vt 0.618164062 0.981914878
vt 0.618164062 0.947872341
vt 0.954101562 0.930851042
vt 0.954101562 0.964893639
vt 0.985351562 0.964893639
vt 0.985351562 0.930851042
vt 0.727539062 0.960638285
vt 0.727539062 0.994680822
vt 0.758789062 0.994680822
vt 0.758789062 0.960638285
vt 0.760742188 0.960638285
vt 0.760742188 0.994680822
vt 0.791992188 0.994680822
vt 0.791992188 0.960638285
vt 0.0009765625 0.964893639
vt 0.0009765625 0.998936176
vt 0.0322265625 0.998936176
vt 0.0322265625 0.964893639
vt 0.0986328125 0.964893639
vt 0.0986328125 0.998936176
vt 0.129882812 0.998936176
vt 0.129882812 0.964893639
vt 0.196289062 0.964893639
vt 0.196289062 0.998936176
vt 0.227539062 0.998936176
vt 0.227539062 0.964893639
vt 0.360351562 0.964893639
vt 0.360351562 0.998936176
vt 0.391601562 0.998936176
vt 0.391601562 0.964893639
vt 0.491210938 0.964893639
vt 0.491210938 0.998936176
vt 0.522460938 0.998936176
vt 0.522460938 0.964893639
g yichui_3-mesh_0
f 3/3/3 2/2/2 1/1/1
f 1/1/1 4/4/4 3/3/3
f 7/7/7 6/6/6 5/5/5
f 5/5/5 8/8/8 7/7/7
f 11/11/11 10/10/10 9/9/9
f 9/9/9 12/12/12 11/11/11
f 15/15/15 14/14/14 13/13/13
f 13/13/13 16/16/16 15/15/15
f 19/19/19 18/18/18 17/17/17
f 17/17/17 20/20/20 19/19/19
f 23/23/23 22/22/22 21/21/21
f 21/21/21 24/24/24 23/23/23
f 27/27/27 26/26/26 25/25/25
f 25/25/25 28/28/28 27/27/27
f 31/31/31 30/30/30 29/29/29
f 29/29/29 32/32/32 31/31/31
f 35/35/35 34/34/34 33/33/33
f 33/33/33 36/36/36 35/35/35
f 39/39/39 38/38/38 37/37/37
f 37/37/37 40/40/40 39/39/39
f 43/43/43 42/42/42 41/41/41
f 41/41/41 44/44/44 43/43/43
f 47/47/47 46/46/46 45/45/45
f 45/45/45 48/48/48 47/47/47
f 51/51/51 50/50/50 49/49/49
f 49/49/49 52/52/52 51/51/51
f 55/55/55 54/54/54 53/53/53
f 53/53/53 56/56/56 55/55/55
f 59/59/59 58/58/58 57/57/57
f 57/57/57 60/60/60 59/59/59
f 63/63/63 62/62/62 61/61/61
f 61/61/61 64/64/64 63/63/63
f 67/67/67 66/66/66 65/65/65
f 65/65/65 68/68/68 67/67/67
f 71/71/71 70/70/70 69/69/69
f 69/69/69 72/72/72 71/71/71
f 75/75/75 74/74/74 73/73/73
f 73/73/73 76/76/76 75/75/75
f 79/79/79 78/78/78 77/77/77
f 77/77/77 80/80/80 79/79/79
f 83/83/83 82/82/82 81/81/81
f 81/81/81 84/84/84 83/83/83
f 87/87/87 86/86/86 85/85/85
f 85/85/85 88/88/88 87/87/87
f 91/91/91 90/90/90 89/89/89
f 89/89/89 92/92/92 91/91/91
f 95/95/95 94/94/94 93/93/93
f 93/93/93 96/96/96 95/95/95
f 99/99/99 98/98/98 97/97/97
f 97/97/97 100/100/100 99/99/99
f 103/103/103 102/102/102 101/101/101
f 101/101/101 104/104/104 103/103/103
f 107/107/107 106/106/106 105/105/105
f 105/105/105 108/108/108 107/107/107
f 111/111/111 110/110/110 109/109/109
f 109/109/109 112/112/112 111/111/111
f 115/115/115 114/114/114 113/113/113
f 113/113/113 116/116/116 115/115/115
f 119/119/119 118/118/118 117/117/117
f 117/117/117 120/120/120 119/119/119
f 123/123/123 122/122/122 121/121/121
f 121/121/121 124/124/124 123/123/123
f 127/127/127 126/126/126 125/125/125
f 125/125/125 128/128/128 127/127/127
f 131/131/131 130/130/130 129/129/129
f 129/129/129 132/132/132 131/131/131
f 135/135/135 134/134/134 133/133/133
f 133/133/133 136/136/136 135/135/135
f 139/139/139 138/138/138 137/137/137
f 137/137/137 140/140/140 139/139/139
f 143/143/143 142/142/142 141/141/141
f 141/141/141 144/144/144 143/143/143
f 147/147/147 146/146/146 145/145/145
f 145/145/145 148/148/148 147/147/147
f 151/151/151 150/150/150 149/149/149
f 149/149/149 152/152/152 151/151/151
f 155/155/155 154/154/154 153/153/153
f 153/153/153 156/156/156 155/155/155
f 159/159/159 158/158/158 157/157/157
f 157/157/157 160/160/160 159/159/159
f 163/163/163 162/162/162 161/161/161
f 161/161/161 164/164/164 163/163/163
f 167/167/167 166/166/166 165/165/165
f 165/165/165 168/168/168 167/167/167
f 171/171/171 170/170/170 169/169/169
f 169/169/169 172/172/172 171/171/171
f 175/175/175 174/174/174 173/173/173
f 173/173/173 176/176/176 175/175/175
f 179/179/179 178/178/178 177/177/177
f 177/177/177 180/180/180 179/179/179
f 183/183/183 182/182/182 181/181/181
f 181/181/181 184/184/184 183/183/183
f 187/187/187 186/186/186 185/185/185
f 185/185/185 188/188/188 187/187/187
f 191/191/191 190/190/190 189/189/189
f 189/189/189 192/192/192 191/191/191
f 195/195/195 194/194/194 193/193/193
f 193/193/193 196/196/196 195/195/195
f 199/199/199 198/198/198 197/197/197
f 197/197/197 200/200/200 199/199/199
f 203/203/203 202/202/202 201/201/201
f 201/201/201 204/204/204 203/203/203
f 207/207/207 206/206/206 205/205/205
f 205/205/205 208/208/208 207/207/207
f 211/211/211 210/210/210 209/209/209
f 209/209/209 212/212/212 211/211/211
