g gezi_bj-mesh
v -1088 515 0
v -1088 835 0
v -1440 835 0
v -1440 515 0
v -768 931 0
v -768 1251 0
v -928 1251 0
v -928 931 0
v -736 483 0
v -736 643 0
v -1024 643 0
v -1024 483 0
v -448 483 0
v -448 643 0
v -736 643 0
v -736 483 0
v -1088 931 0
v -1088 1059 0
v -1376 1059 0
v -1376 931 0
v -704 643 0
v -704 803 0
v -896 803 0
v -896 643 0
v -1024 835 0
v -1024 931 0
v -1248 931 0
v -1248 835 0
v -672 867 0
v -672 1091 0
v -768 1091 0
v -768 867 0
v -1184 163 0
v -1184 259 0
v -1376 259 0
v -1376 163 0
v -1536 547 0
v -1536 643 0
v -1728 643 0
v -1728 547 0
v -992 163 0
v -992 259 0
v -1184 259 0
v -1184 163 0
v -896 771 0
v -896 899 0
v -1024 899 0
v -1024 771 0
v -672 35 0
v -672 163 0
v -800 163 0
v -800 35 0
v -1312 835 0
v -1312 931 0
v -1440 931 0
v -1440 835 0
v -1184 1059 0
v -1184 1155 0
v -1312 1155 0
v -1312 1059 0
v -960 675 0
v -960 771 0
v -1088 771 0
v -1088 675 0
v -1024 419 0
v -1024 515 0
v -1152 515 0
v -1152 419 0
v -1152 419 0
v -1152 515 0
v -1280 515 0
v -1280 419 0
v -288 163 0
v -288 259 0
v -384 259 0
v -384 163 0
v -768 835 0
v -768 931 0
v -864 931 0
v -864 835 0
v -736 387 0
v -736 483 0
v -832 483 0
v -832 387 0
v -608 3 0
v -608 131 0
v -672 131 0
v -672 3 0
v -992 259 0
v -992 387 0
v -1056 387 0
v -1056 259 0
v -576 643 0
v -576 771 0
v -640 771 0
v -640 643 0
v -1664 739 0
v -1664 867 0
v -1728 867 0
v -1728 739 0
v -224 99 0
v -224 163 0
v -352 163 0
v -352 99 0
v -96 99 0
v -96 163 0
v -224 163 0
v -224 99 0
v -800 99 0
v -800 163 0
v -896 163 0
v -896 99 0
v -1440 515 0
v -1440 579 0
v -1536 579 0
v -1536 515 0
v -416 323 0
v -416 387 0
v -512 387 0
v -512 323 0
v -928 419 0
v -928 483 0
v -1024 483 0
v -1024 419 0
v -640 771 0
v -640 867 0
v -704 867 0
v -704 771 0
v -832 163 0
v -832 227 0
v -928 227 0
v -928 163 0
v -448 739 0
v -448 835 0
v -512 835 0
v -512 739 0
v -448 643 0
v -448 739 0
v -512 739 0
v -512 643 0
v -928 1123 0
v -928 1187 0
v -992 1187 0
v -992 1123 0
v -256 931 0
v -256 995 0
v -320 995 0
v -320 931 0
v -1024 931 0
v -1024 995 0
v -1088 995 0
v -1088 931 0
v -1856 675 0
v -1856 739 0
v -1920 739 0
v -1920 675 0
v -1408 291 0
v -1408 355 0
v -1472 355 0
v -1472 291 0
v -352 291 0
v -352 355 0
v -416 355 0
v -416 291 0
v -1664 643 0
v -1664 707 0
v -1728 707 0
v -1728 643 0
v -1280 451 0
v -1280 515 0
v -1344 515 0
v -1344 451 0
v -1120 131 0
v -1120 163 0
v -1248 163 0
v -1248 131 0
v -640 707 0
v -640 771 0
v -704 771 0
v -704 707 0
v -928 163 0
v -928 227 0
v -992 227 0
v -992 163 0
v -1056 579 0
v -1056 675 0
v -1088 675 0
v -1088 579 0
v -1248 131 0
v -1248 163 0
v -1344 163 0
v -1344 131 0
v -1152 259 0
v -1152 291 0
v -1248 291 0
v -1248 259 0
v -1088 387 0
v -1088 419 0
v -1184 419 0
v -1184 387 0
v -1600 643 0
v -1600 707 0
v -1632 707 0
v -1632 643 0
v -544 643 0
v -544 707 0
v -576 707 0
v -576 643 0
v -1792 675 0
v -1792 707 0
v -1856 707 0
v -1856 675 0
v -1344 483 0
v -1344 515 0
v -1408 515 0
v -1408 483 0
v -1760 611 0
v -1760 675 0
v -1792 675 0
v -1792 611 0
v -288 643 0
v -288 675 0
v -352 675 0
v -352 643 0
v -896 675 0
v -896 739 0
v -928 739 0
v -928 675 0
v -1248 867 0
v -1248 931 0
v -1280 931 0
v -1280 867 0
v -928 899 0
v -928 963 0
v -960 963 0
v -960 899 0
v -1376 931 0
v -1376 995 0
v -1408 995 0
v -1408 931 0
v -1600 739 0
v -1600 803 0
v -1632 803 0
v -1632 739 0
v -1632 803 0
v -1632 867 0
v -1664 867 0
v -1664 803 0
v -416 803 0
v -416 867 0
v -448 867 0
v -448 803 0
v -1088 323 0
v -1088 387 0
v -1120 387 0
v -1120 323 0
v -768 355 0
v -768 387 0
v -832 387 0
v -832 355 0
v -1472 227 0
v -1472 291 0
v -1504 291 0
v -1504 227 0
v -864 227 0
v -864 291 0
v -896 291 0
v -896 227 0
v -1152 291 0
v -1152 323 0
v -1216 323 0
v -1216 291 0
v -864 323 0
v -864 355 0
v -928 355 0
v -928 323 0
v -512 355 0
v -512 419 0
v -544 419 0
v -544 355 0
v -576 3 0
v -576 67 0
v -608 67 0
v -608 3 0
v -832 451 0
v -832 483 0
v -896 483 0
v -896 451 0
v -672 451 0
v -672 483 0
v -736 483 0
v -736 451 0
v -480 387 0
v -480 451 0
v -512 451 0
v -512 387 0
v -256 163 0
v -256 227 0
v -288 227 0
v -288 163 0
v -1120 67 0
v -1120 131 0
v -1152 131 0
v -1152 67 0
v -896 643 0
v -896 675 0
v -960 675 0
v -960 643 0
v -1568 643 0
v -1568 707 0
v -1600 707 0
v -1600 643 0
v -1568 707 0
v -1568 771 0
v -1600 771 0
v -1600 707 0
v -1376 195 0
v -1376 259 0
v -1408 259 0
v -1408 195 0
v -1376 259 0
v -1376 323 0
v -1408 323 0
v -1408 259 0
v -960 643 0
v -960 675 0
v -1024 675 0
v -1024 643 0
v -1728 675 0
v -1728 739 0
v -1760 739 0
v -1760 675 0
v -864 1251 0
v -864 1283 0
v -928 1283 0
v -928 1251 0
v -800 1251 0
v -800 1283 0
v -864 1283 0
v -864 1251 0
v -1248 259 0
v -1248 291 0
v -1312 291 0
v -1312 259 0
v -1728 739 0
v -1728 803 0
v -1760 803 0
v -1760 739 0
v -1056 515 0
v -1056 579 0
v -1088 579 0
v -1088 515 0
v -1184 387 0
v -1184 419 0
v -1248 419 0
v -1248 387 0
v -1056 323 0
v -1056 387 0
v -1088 387 0
v -1088 323 0
v -416 547 0
v -416 611 0
v -448 611 0
v -448 547 0
v -960 1283 0
v -960 1315 0
v -1024 1315 0
v -1024 1283 0
v -1568 995 0
v -1568 1059 0
v -1600 1059 0
v -1600 995 0
v -1312 1059 0
v -1312 1091 0
v -1376 1091 0
v -1376 1059 0
v -704 163 0
v -704 195 0
v -768 195 0
v -768 163 0
v -640 899 0
v -640 963 0
v -672 963 0
v -672 899 0
v -768 163 0
v -768 195 0
v -832 195 0
v -832 163 0
v -800 803 0
v -800 835 0
v -864 835 0
v -864 803 0
v -384 355 0
v -384 387 0
v -416 387 0
v -416 355 0
v -1792 515 0
v -1792 547 0
v -1824 547 0
v -1824 515 0
v -1120 355 0
v -1120 387 0
v -1152 387 0
v -1152 355 0
v -832 387 0
v -832 419 0
v -864 419 0
v -864 387 0
v -1536 515 0
v -1536 547 0
v -1568 547 0
v -1568 515 0
v -1024 611 0
v -1024 643 0
v -1056 643 0
v -1056 611 0
v -1728 547 0
v -1728 579 0
v -1760 579 0
v -1760 547 0
v -1440 579 0
v -1440 611 0
v -1472 611 0
v -1472 579 0
v -1024 515 0
v -1024 547 0
v -1056 547 0
v -1056 515 0
v -1344 355 0
v -1344 387 0
v -1376 387 0
v -1376 355 0
v -640 131 0
v -640 163 0
v -672 163 0
v -672 131 0
v -1408 259 0
v -1408 291 0
v -1440 291 0
v -1440 259 0
v -1088 67 0
v -1088 99 0
v -1120 99 0
v -1120 67 0
v -896 131 0
v -896 163 0
v -928 163 0
v -928 131 0
v -1344 259 0
v -1344 291 0
v -1376 291 0
v -1376 259 0
v -896 291 0
v -896 323 0
v -928 323 0
v -928 291 0
v -640 323 0
v -640 355 0
v -672 355 0
v -672 323 0
v -352 259 0
v -352 291 0
v -384 291 0
v -384 259 0
v -1312 291 0
v -1312 323 0
v -1344 323 0
v -1344 291 0
v -672 675 0
v -672 707 0
v -704 707 0
v -704 675 0
v -736 1091 0
v -736 1123 0
v -768 1123 0
v -768 1091 0
v -1248 1155 0
v -1248 1187 0
v -1280 1187 0
v -1280 1155 0
v -992 995 0
v -992 1027 0
v -1024 1027 0
v -1024 995 0
v -928 1091 0
v -928 1123 0
v -960 1123 0
v -960 1091 0
v -704 1155 0
v -704 1187 0
v -736 1187 0
v -736 1155 0
v -864 803 0
v -864 835 0
v -896 835 0
v -896 803 0
v -640 867 0
v -640 899 0
v -672 899 0
v -672 867 0
v -1056 291 0
v -1056 323 0
v -1088 323 0
v -1088 291 0
v -416 515 0
v -416 547 0
v -448 547 0
v -448 515 0
v -1056 995 0
v -1056 1027 0
v -1088 1027 0
v -1088 995 0
v -1856 739 0
v -1856 771 0
v -1888 771 0
v -1888 739 0
v -928 739 0
v -928 771 0
v -960 771 0
v -960 739 0
v -352 675 0
v -352 707 0
v -384 707 0
v -384 675 0
v -1696 707 0
v -1696 739 0
v -1728 739 0
v -1728 707 0
v -1056 771 0
v -1056 803 0
v -1088 803 0
v -1088 771 0
v -896 899 0
v -896 931 0
v -928 931 0
v -928 899 0
v -320 931 0
v -320 963 0
v -352 963 0
v -352 931 0
v -1280 835 0
v -1280 867 0
v -1312 867 0
v -1312 835 0
v -864 835 0
v -864 867 0
v -896 867 0
v -896 835 0
vt 0.0009765625 0.000986218452
vt 0.0009765625 0.316568077
vt 0.344726562 0.316568077
vt 0.344726562 0.000986218452
vt 0.346679688 0.000986218452
vt 0.346679688 0.316568077
vt 0.502929688 0.316568077
vt 0.502929688 0.000986218452
vt 0.504882812 0.000986218452
vt 0.504882812 0.158777118
vt 0.786132812 0.158777118
vt 0.786132812 0.000986218452
vt 0.504882812 0.160749495
vt 0.504882812 0.318540454
vt 0.786132812 0.318540454
vt 0.786132812 0.160749495
vt 0.0009765625 0.318540454
vt 0.0009765625 0.444773197
vt 0.282226562 0.444773197
vt 0.282226562 0.318540454
vt 0.788085938 0.000986218452
vt 0.788085938 0.158777118
vt 0.975585938 0.158777118
vt 0.975585938 0.000986218452
vt 0.284179688 0.318540454
vt 0.284179688 0.413214982
vt 0.502929688 0.413214982
vt 0.502929688 0.318540454
vt 0.788085938 0.160749495
vt 0.788085938 0.381656826
vt 0.881835938 0.381656826
vt 0.881835938 0.160749495
vt 0.504882812 0.320512831
vt 0.504882812 0.415187359
vt 0.692382812 0.415187359
vt 0.692382812 0.320512831
vt 0.788085938 0.383629203
vt 0.788085938 0.47830373
vt 0.975585938 0.47830373
vt 0.975585938 0.383629203
vt 0.284179688 0.415187359
vt 0.284179688 0.509861946
vt 0.471679688 0.509861946
vt 0.471679688 0.415187359
vt 0.504882812 0.417159736
vt 0.504882812 0.543392539
vt 0.629882812 0.543392539
vt 0.629882812 0.417159736
vt 0.631835938 0.417159736
vt 0.631835938 0.543392539
vt 0.756835938 0.543392539
vt 0.756835938 0.417159736
vt 0.0009765625 0.446745574
vt 0.0009765625 0.541420102
vt 0.125976562 0.541420102
vt 0.125976562 0.446745574
vt 0.127929688 0.446745574
vt 0.127929688 0.541420102
vt 0.252929688 0.541420102
vt 0.252929688 0.446745574
vt 0.788085938 0.480276108
vt 0.788085938 0.574950695
vt 0.913085938 0.574950695
vt 0.913085938 0.480276108
vt 0.284179688 0.511834323
vt 0.284179688 0.606508851
vt 0.409179688 0.606508851
vt 0.409179688 0.511834323
vt 0.0009765625 0.543392539
vt 0.0009765625 0.638067067
vt 0.125976562 0.638067067
vt 0.125976562 0.543392539
vt 0.127929688 0.543392539
vt 0.127929688 0.638067067
vt 0.221679688 0.638067067
vt 0.221679688 0.543392539
vt 0.504882812 0.545364857
vt 0.504882812 0.640039444
vt 0.598632812 0.640039444
vt 0.598632812 0.545364857
vt 0.600585938 0.545364857
vt 0.600585938 0.640039444
vt 0.694335938 0.640039444
vt 0.694335938 0.545364857
vt 0.915039062 0.480276108
vt 0.915039062 0.606508851
vt 0.977539062 0.606508851
vt 0.977539062 0.480276108
vt 0.411132812 0.511834323
vt 0.411132812 0.638067067
vt 0.473632812 0.638067067
vt 0.473632812 0.511834323
vt 0.696289062 0.545364857
vt 0.696289062 0.6715976
vt 0.758789062 0.6715976
vt 0.758789062 0.545364857
vt 0.788085938 0.576923072
vt 0.788085938 0.703155816
vt 0.850585938 0.703155816
vt 0.850585938 0.576923072
vt 0.284179688 0.608481288
vt 0.284179688 0.6715976
vt 0.409179688 0.6715976
vt 0.409179688 0.608481288
vt 0.0009765625 0.640039444
vt 0.0009765625 0.703155816
vt 0.125976562 0.703155816
vt 0.125976562 0.640039444
vt 0.127929688 0.640039444
vt 0.127929688 0.703155816
vt 0.221679688 0.703155816
vt 0.221679688 0.640039444
vt 0.504882812 0.642011821
vt 0.504882812 0.705128193
vt 0.598632812 0.705128193
vt 0.598632812 0.642011821
vt 0.600585938 0.642011821
vt 0.600585938 0.705128193
vt 0.694335938 0.705128193
vt 0.694335938 0.642011821
vt 0.284179688 0.673570037
vt 0.284179688 0.736686349
vt 0.377929688 0.736686349
vt 0.377929688 0.673570037
vt 0.915039062 0.608481288
vt 0.915039062 0.703155816
vt 0.977539062 0.703155816
vt 0.977539062 0.608481288
vt 0.379882812 0.673570037
vt 0.379882812 0.736686349
vt 0.473632812 0.736686349
vt 0.473632812 0.673570037
vt 0.696289062 0.673570037
vt 0.696289062 0.768244565
vt 0.758789062 0.768244565
vt 0.758789062 0.673570037
vt 0.0009765625 0.705128193
vt 0.0009765625 0.79980278
vt 0.0634765625 0.79980278
vt 0.0634765625 0.705128193
vt 0.0654296875 0.705128193
vt 0.0654296875 0.768244565
vt 0.127929688 0.768244565
vt 0.127929688 0.705128193
vt 0.129882812 0.705128193
vt 0.129882812 0.768244565
vt 0.192382812 0.768244565
vt 0.192382812 0.705128193
vt 0.194335938 0.705128193
vt 0.194335938 0.768244565
vt 0.256835938 0.768244565
vt 0.256835938 0.705128193
vt 0.788085938 0.705128193
vt 0.788085938 0.768244565
vt 0.850585938 0.768244565
vt 0.850585938 0.705128193
vt 0.915039062 0.705128193
vt 0.915039062 0.768244565
vt 0.977539062 0.768244565
vt 0.977539062 0.705128193
vt 0.504882812 0.70710063
vt 0.504882812 0.770216942
vt 0.567382812 0.770216942
vt 0.567382812 0.70710063
vt 0.569335938 0.70710063
vt 0.569335938 0.770216942
vt 0.631835938 0.770216942
vt 0.631835938 0.70710063
vt 0.284179688 0.738658786
vt 0.284179688 0.801775157
vt 0.346679688 0.801775157
vt 0.346679688 0.738658786
vt 0.348632812 0.738658786
vt 0.348632812 0.770216942
vt 0.473632812 0.770216942
vt 0.473632812 0.738658786
vt 0.0654296875 0.770216942
vt 0.0654296875 0.833333313
vt 0.127929688 0.833333313
vt 0.127929688 0.770216942
vt 0.129882812 0.770216942
vt 0.129882812 0.833333313
vt 0.192382812 0.833333313
vt 0.192382812 0.770216942
vt 0.852539062 0.576923072
vt 0.852539062 0.6715976
vt 0.883789062 0.6715976
vt 0.883789062 0.576923072
vt 0.696289062 0.770216942
vt 0.696289062 0.801775157
vt 0.790039062 0.801775157
vt 0.790039062 0.770216942
vt 0.791992188 0.770216942
vt 0.791992188 0.801775157
vt 0.885742188 0.801775157
vt 0.885742188 0.770216942
vt 0.348632812 0.772189379
vt 0.348632812 0.803747535
vt 0.442382812 0.803747535
vt 0.442382812 0.772189379
vt 0.633789062 0.70710063
vt 0.633789062 0.770216942
vt 0.665039062 0.770216942
vt 0.665039062 0.70710063
vt 0.194335938 0.770216942
vt 0.194335938 0.833333313
vt 0.225585938 0.833333313
vt 0.225585938 0.770216942
vt 0.915039062 0.770216942
vt 0.915039062 0.801775157
vt 0.977539062 0.801775157
vt 0.977539062 0.770216942
vt 0.444335938 0.772189379
vt 0.444335938 0.803747535
vt 0.506835938 0.803747535
vt 0.506835938 0.772189379
vt 0.227539062 0.770216942
vt 0.227539062 0.833333313
vt 0.258789062 0.833333313
vt 0.258789062 0.770216942
vt 0.508789062 0.772189379
vt 0.508789062 0.803747535
vt 0.571289062 0.803747535
vt 0.571289062 0.772189379
vt 0.573242188 0.772189379
vt 0.573242188 0.835305691
vt 0.604492188 0.835305691
vt 0.604492188 0.772189379
vt 0.606445312 0.772189379
vt 0.606445312 0.835305691
vt 0.637695312 0.835305691
vt 0.637695312 0.772189379
vt 0.639648438 0.772189379
vt 0.639648438 0.835305691
vt 0.670898438 0.835305691
vt 0.670898438 0.772189379
vt 0.0009765625 0.801775157
vt 0.0009765625 0.864891529
vt 0.0322265625 0.864891529
vt 0.0322265625 0.801775157
vt 0.284179688 0.803747535
vt 0.284179688 0.866863906
vt 0.315429688 0.866863906
vt 0.315429688 0.803747535
vt 0.696289062 0.803747535
vt 0.696289062 0.866863906
vt 0.727539062 0.866863906
vt 0.727539062 0.803747535
vt 0.729492188 0.803747535
vt 0.729492188 0.866863906
vt 0.760742188 0.866863906
vt 0.760742188 0.803747535
vt 0.762695312 0.803747535
vt 0.762695312 0.866863906
vt 0.793945312 0.866863906
vt 0.793945312 0.803747535
vt 0.795898438 0.803747535
vt 0.795898438 0.835305691
vt 0.858398438 0.835305691
vt 0.858398438 0.803747535
vt 0.860351562 0.803747535
vt 0.860351562 0.866863906
vt 0.891601562 0.866863906
vt 0.891601562 0.803747535
vt 0.915039062 0.803747535
vt 0.915039062 0.866863906
vt 0.946289062 0.866863906
vt 0.946289062 0.803747535
vt 0.348632812 0.805719912
vt 0.348632812 0.837278128
vt 0.411132812 0.837278128
vt 0.411132812 0.805719912
vt 0.413085938 0.805719912
vt 0.413085938 0.837278128
vt 0.475585938 0.837278128
vt 0.475585938 0.805719912
vt 0.948242188 0.803747535
vt 0.948242188 0.866863906
vt 0.979492188 0.866863906
vt 0.979492188 0.803747535
vt 0.477539062 0.805719912
vt 0.477539062 0.868836284
vt 0.508789062 0.868836284
vt 0.508789062 0.805719912
vt 0.0654296875 0.835305691
vt 0.0654296875 0.866863906
vt 0.127929688 0.866863906
vt 0.127929688 0.835305691
vt 0.129882812 0.835305691
vt 0.129882812 0.866863906
vt 0.192382812 0.866863906
vt 0.192382812 0.835305691
vt 0.510742188 0.805719912
vt 0.510742188 0.868836284
vt 0.541992188 0.868836284
vt 0.541992188 0.805719912
vt 0.194335938 0.835305691
vt 0.194335938 0.898422122
vt 0.225585938 0.898422122
vt 0.225585938 0.835305691
vt 0.227539062 0.835305691
vt 0.227539062 0.898422122
vt 0.258789062 0.898422122
vt 0.258789062 0.835305691
vt 0.573242188 0.837278128
vt 0.573242188 0.868836284
vt 0.635742188 0.868836284
vt 0.635742188 0.837278128
vt 0.637695312 0.837278128
vt 0.637695312 0.900394499
vt 0.668945312 0.900394499
vt 0.668945312 0.837278128
vt 0.795898438 0.837278128
vt 0.795898438 0.900394499
vt 0.827148438 0.900394499
vt 0.827148438 0.837278128
vt 0.348632812 0.839250505
vt 0.348632812 0.902366877
vt 0.379882812 0.902366877
vt 0.379882812 0.839250505
vt 0.381835938 0.839250505
vt 0.381835938 0.902366877
vt 0.413085938 0.902366877
vt 0.413085938 0.839250505
vt 0.0009765625 0.866863906
vt 0.0009765625 0.898422122
vt 0.0634765625 0.898422122
vt 0.0634765625 0.866863906
vt 0.415039062 0.839250505
vt 0.415039062 0.902366877
vt 0.446289062 0.902366877
vt 0.446289062 0.839250505
vt 0.0654296875 0.868836284
vt 0.0654296875 0.900394499
vt 0.127929688 0.900394499
vt 0.127929688 0.868836284
vt 0.129882812 0.868836284
vt 0.129882812 0.900394499
vt 0.192382812 0.900394499
vt 0.192382812 0.868836284
vt 0.284179688 0.868836284
vt 0.284179688 0.900394499
vt 0.346679688 0.900394499
vt 0.346679688 0.868836284
vt 0.696289062 0.868836284
vt 0.696289062 0.931952655
vt 0.727539062 0.931952655
vt 0.727539062 0.868836284
vt 0.729492188 0.868836284
vt 0.729492188 0.931952655
vt 0.760742188 0.931952655
vt 0.760742188 0.868836284
vt 0.860351562 0.868836284
vt 0.860351562 0.900394499
vt 0.922851562 0.900394499
vt 0.922851562 0.868836284
vt 0.762695312 0.868836284
vt 0.762695312 0.931952655
vt 0.793945312 0.931952655
vt 0.793945312 0.868836284
vt 0.924804688 0.868836284
vt 0.924804688 0.931952655
vt 0.956054688 0.931952655
vt 0.956054688 0.868836284
vt 0.477539062 0.870808661
vt 0.477539062 0.902366877
vt 0.540039062 0.902366877
vt 0.540039062 0.870808661
vt 0.958007812 0.868836284
vt 0.958007812 0.931952655
vt 0.989257812 0.931952655
vt 0.989257812 0.868836284
vt 0.541992188 0.870808661
vt 0.541992188 0.902366877
vt 0.604492188 0.902366877
vt 0.604492188 0.870808661
vt 0.0009765625 0.900394499
vt 0.0009765625 0.931952655
vt 0.0634765625 0.931952655
vt 0.0634765625 0.900394499
vt 0.194335938 0.900394499
vt 0.194335938 0.963510871
vt 0.225585938 0.963510871
vt 0.225585938 0.900394499
vt 0.0654296875 0.902366877
vt 0.0654296875 0.933925033
vt 0.127929688 0.933925033
vt 0.127929688 0.902366877
vt 0.129882812 0.902366877
vt 0.129882812 0.933925033
vt 0.192382812 0.933925033
vt 0.192382812 0.902366877
vt 0.227539062 0.900394499
vt 0.227539062 0.931952655
vt 0.258789062 0.931952655
vt 0.258789062 0.900394499
vt 0.284179688 0.902366877
vt 0.284179688 0.933925033
vt 0.315429688 0.933925033
vt 0.315429688 0.902366877
vt 0.637695312 0.902366877
vt 0.637695312 0.933925033
vt 0.668945312 0.933925033
vt 0.668945312 0.902366877
vt 0.795898438 0.902366877
vt 0.795898438 0.933925033
vt 0.827148438 0.933925033
vt 0.827148438 0.902366877
vt 0.860351562 0.902366877
vt 0.860351562 0.933925033
vt 0.891601562 0.933925033
vt 0.891601562 0.902366877
vt 0.348632812 0.904339254
vt 0.348632812 0.93589741
vt 0.379882812 0.93589741
vt 0.379882812 0.904339254
vt 0.381835938 0.904339254
vt 0.381835938 0.93589741
vt 0.413085938 0.93589741
vt 0.413085938 0.904339254
vt 0.415039062 0.904339254
vt 0.415039062 0.93589741
vt 0.446289062 0.93589741
vt 0.446289062 0.904339254
vt 0.477539062 0.904339254
vt 0.477539062 0.93589741
vt 0.508789062 0.93589741
vt 0.508789062 0.904339254
vt 0.510742188 0.904339254
vt 0.510742188 0.93589741
vt 0.541992188 0.93589741
vt 0.541992188 0.904339254
vt 0.543945312 0.904339254
vt 0.543945312 0.93589741
vt 0.575195312 0.93589741
vt 0.575195312 0.904339254
vt 0.577148438 0.904339254
vt 0.577148438 0.93589741
vt 0.608398438 0.93589741
vt 0.608398438 0.904339254
vt 0.0009765625 0.933925033
vt 0.0009765625 0.965483248
vt 0.0322265625 0.965483248
vt 0.0322265625 0.933925033
vt 0.227539062 0.933925033
vt 0.227539062 0.965483248
vt 0.258789062 0.965483248
vt 0.258789062 0.933925033
vt 0.696289062 0.933925033
vt 0.696289062 0.965483248
vt 0.727539062 0.965483248
vt 0.727539062 0.933925033
vt 0.729492188 0.933925033
vt 0.729492188 0.965483248
vt 0.760742188 0.965483248
vt 0.760742188 0.933925033
vt 0.762695312 0.933925033
vt 0.762695312 0.965483248
vt 0.793945312 0.965483248
vt 0.793945312 0.933925033
vt 0.924804688 0.933925033
vt 0.924804688 0.965483248
vt 0.956054688 0.965483248
vt 0.956054688 0.933925033
vt 0.958007812 0.933925033
vt 0.958007812 0.965483248
vt 0.989257812 0.965483248
vt 0.989257812 0.933925033
vt 0.0654296875 0.93589741
vt 0.0654296875 0.967455626
vt 0.0966796875 0.967455626
vt 0.0966796875 0.93589741
vt 0.0986328125 0.93589741
vt 0.0986328125 0.967455626
vt 0.129882812 0.967455626
vt 0.129882812 0.93589741
vt 0.131835938 0.93589741
vt 0.131835938 0.967455626
vt 0.163085938 0.967455626
vt 0.163085938 0.93589741
vt 0.284179688 0.93589741
vt 0.284179688 0.967455626
vt 0.315429688 0.967455626
vt 0.315429688 0.93589741
vt 0.637695312 0.93589741
vt 0.637695312 0.967455626
vt 0.668945312 0.967455626
vt 0.668945312 0.93589741
vt 0.795898438 0.93589741
vt 0.795898438 0.967455626
vt 0.827148438 0.967455626
vt 0.827148438 0.93589741
vt 0.860351562 0.93589741
vt 0.860351562 0.967455626
vt 0.891601562 0.967455626
vt 0.891601562 0.93589741
vt 0.348632812 0.937869847
vt 0.348632812 0.969428003
vt 0.379882812 0.969428003
vt 0.379882812 0.937869847
vt 0.381835938 0.937869847
vt 0.381835938 0.969428003
vt 0.413085938 0.969428003
vt 0.413085938 0.937869847
vt 0.415039062 0.937869847
vt 0.415039062 0.969428003
vt 0.446289062 0.969428003
vt 0.446289062 0.937869847
vt 0.477539062 0.937869847
vt 0.477539062 0.969428003
vt 0.508789062 0.969428003
vt 0.508789062 0.937869847
vt 0.510742188 0.937869847
vt 0.510742188 0.969428003
vt 0.541992188 0.969428003
vt 0.541992188 0.937869847
vt 0.543945312 0.937869847
vt 0.543945312 0.969428003
vt 0.575195312 0.969428003
vt 0.575195312 0.937869847
vt 0.577148438 0.937869847
vt 0.577148438 0.969428003
vt 0.608398438 0.969428003
vt 0.608398438 0.937869847
vt 0.194335938 0.965483248
vt 0.194335938 0.997041404
vt 0.225585938 0.997041404
vt 0.225585938 0.965483248
vt 0.0009765625 0.967455626
vt 0.0009765625 0.999013782
vt 0.0322265625 0.999013782
vt 0.0322265625 0.967455626
vt 0.227539062 0.967455626
vt 0.227539062 0.999013782
vt 0.258789062 0.999013782
vt 0.258789062 0.967455626
vt 0.696289062 0.967455626
vt 0.696289062 0.999013782
vt 0.727539062 0.999013782
vt 0.727539062 0.967455626
vt 0.729492188 0.967455626
vt 0.729492188 0.999013782
vt 0.760742188 0.999013782
vt 0.760742188 0.967455626
vt 0.762695312 0.967455626
vt 0.762695312 0.999013782
vt 0.793945312 0.999013782
vt 0.793945312 0.967455626
g gezi_bj-mesh_0
f 3/3/3 2/2/2 1/1/1
f 1/1/1 4/4/4 3/3/3
f 7/7/7 6/6/6 5/5/5
f 5/5/5 8/8/8 7/7/7
f 11/11/11 10/10/10 9/9/9
f 9/9/9 12/12/12 11/11/11
f 15/15/15 14/14/14 13/13/13
f 13/13/13 16/16/16 15/15/15
f 19/19/19 18/18/18 17/17/17
f 17/17/17 20/20/20 19/19/19
f 23/23/23 22/22/22 21/21/21
f 21/21/21 24/24/24 23/23/23
f 27/27/27 26/26/26 25/25/25
f 25/25/25 28/28/28 27/27/27
f 31/31/31 30/30/30 29/29/29
f 29/29/29 32/32/32 31/31/31
f 35/35/35 34/34/34 33/33/33
f 33/33/33 36/36/36 35/35/35
f 39/39/39 38/38/38 37/37/37
f 37/37/37 40/40/40 39/39/39
f 43/43/43 42/42/42 41/41/41
f 41/41/41 44/44/44 43/43/43
f 47/47/47 46/46/46 45/45/45
f 45/45/45 48/48/48 47/47/47
f 51/51/51 50/50/50 49/49/49
f 49/49/49 52/52/52 51/51/51
f 55/55/55 54/54/54 53/53/53
f 53/53/53 56/56/56 55/55/55
f 59/59/59 58/58/58 57/57/57
f 57/57/57 60/60/60 59/59/59
f 63/63/63 62/62/62 61/61/61
f 61/61/61 64/64/64 63/63/63
f 67/67/67 66/66/66 65/65/65
f 65/65/65 68/68/68 67/67/67
f 71/71/71 70/70/70 69/69/69
f 69/69/69 72/72/72 71/71/71
f 75/75/75 74/74/74 73/73/73
f 73/73/73 76/76/76 75/75/75
f 79/79/79 78/78/78 77/77/77
f 77/77/77 80/80/80 79/79/79
f 83/83/83 82/82/82 81/81/81
f 81/81/81 84/84/84 83/83/83
f 87/87/87 86/86/86 85/85/85
f 85/85/85 88/88/88 87/87/87
f 91/91/91 90/90/90 89/89/89
f 89/89/89 92/92/92 91/91/91
f 95/95/95 94/94/94 93/93/93
f 93/93/93 96/96/96 95/95/95
f 99/99/99 98/98/98 97/97/97
f 97/97/97 100/100/100 99/99/99
f 103/103/103 102/102/102 101/101/101
f 101/101/101 104/104/104 103/103/103
f 107/107/107 106/106/106 105/105/105
f 105/105/105 108/108/108 107/107/107
f 111/111/111 110/110/110 109/109/109
f 109/109/109 112/112/112 111/111/111
f 115/115/115 114/114/114 113/113/113
f 113/113/113 116/116/116 115/115/115
f 119/119/119 118/118/118 117/117/117
f 117/117/117 120/120/120 119/119/119
f 123/123/123 122/122/122 121/121/121
f 121/121/121 124/124/124 123/123/123
f 127/127/127 126/126/126 125/125/125
f 125/125/125 128/128/128 127/127/127
f 131/131/131 130/130/130 129/129/129
f 129/129/129 132/132/132 131/131/131
f 135/135/135 134/134/134 133/133/133
f 133/133/133 136/136/136 135/135/135
f 139/139/139 138/138/138 137/137/137
f 137/137/137 140/140/140 139/139/139
f 143/143/143 142/142/142 141/141/141
f 141/141/141 144/144/144 143/143/143
f 147/147/147 146/146/146 145/145/145
f 145/145/145 148/148/148 147/147/147
f 151/151/151 150/150/150 149/149/149
f 149/149/149 152/152/152 151/151/151
f 155/155/155 154/154/154 153/153/153
f 153/153/153 156/156/156 155/155/155
f 159/159/159 158/158/158 157/157/157
f 157/157/157 160/160/160 159/159/159
f 163/163/163 162/162/162 161/161/161
f 161/161/161 164/164/164 163/163/163
f 167/167/167 166/166/166 165/165/165
f 165/165/165 168/168/168 167/167/167
f 171/171/171 170/170/170 169/169/169
f 169/169/169 172/172/172 171/171/171
f 175/175/175 174/174/174 173/173/173
f 173/173/173 176/176/176 175/175/175
f 179/179/179 178/178/178 177/177/177
f 177/177/177 180/180/180 179/179/179
f 183/183/183 182/182/182 181/181/181
f 181/181/181 184/184/184 183/183/183
f 187/187/187 186/186/186 185/185/185
f 185/185/185 188/188/188 187/187/187
f 191/191/191 190/190/190 189/189/189
f 189/189/189 192/192/192 191/191/191
f 195/195/195 194/194/194 193/193/193
f 193/193/193 196/196/196 195/195/195
f 199/199/199 198/198/198 197/197/197
f 197/197/197 200/200/200 199/199/199
f 203/203/203 202/202/202 201/201/201
f 201/201/201 204/204/204 203/203/203
f 207/207/207 206/206/206 205/205/205
f 205/205/205 208/208/208 207/207/207
f 211/211/211 210/210/210 209/209/209
f 209/209/209 212/212/212 211/211/211
f 215/215/215 214/214/214 213/213/213
f 213/213/213 216/216/216 215/215/215
f 219/219/219 218/218/218 217/217/217
f 217/217/217 220/220/220 219/219/219
f 223/223/223 222/222/222 221/221/221
f 221/221/221 224/224/224 223/223/223
f 227/227/227 226/226/226 225/225/225
f 225/225/225 228/228/228 227/227/227
f 231/231/231 230/230/230 229/229/229
f 229/229/229 232/232/232 231/231/231
f 235/235/235 234/234/234 233/233/233
f 233/233/233 236/236/236 235/235/235
f 239/239/239 238/238/238 237/237/237
f 237/237/237 240/240/240 239/239/239
f 243/243/243 242/242/242 241/241/241
f 241/241/241 244/244/244 243/243/243
f 247/247/247 246/246/246 245/245/245
f 245/245/245 248/248/248 247/247/247
f 251/251/251 250/250/250 249/249/249
f 249/249/249 252/252/252 251/251/251
f 255/255/255 254/254/254 253/253/253
f 253/253/253 256/256/256 255/255/255
f 259/259/259 258/258/258 257/257/257
f 257/257/257 260/260/260 259/259/259
f 263/263/263 262/262/262 261/261/261
f 261/261/261 264/264/264 263/263/263
f 267/267/267 266/266/266 265/265/265
f 265/265/265 268/268/268 267/267/267
f 271/271/271 270/270/270 269/269/269
f 269/269/269 272/272/272 271/271/271
f 275/275/275 274/274/274 273/273/273
f 273/273/273 276/276/276 275/275/275
f 279/279/279 278/278/278 277/277/277
f 277/277/277 280/280/280 279/279/279
f 283/283/283 282/282/282 281/281/281
f 281/281/281 284/284/284 283/283/283
f 287/287/287 286/286/286 285/285/285
f 285/285/285 288/288/288 287/287/287
f 291/291/291 290/290/290 289/289/289
f 289/289/289 292/292/292 291/291/291
f 295/295/295 294/294/294 293/293/293
f 293/293/293 296/296/296 295/295/295
f 299/299/299 298/298/298 297/297/297
f 297/297/297 300/300/300 299/299/299
f 303/303/303 302/302/302 301/301/301
f 301/301/301 304/304/304 303/303/303
f 307/307/307 306/306/306 305/305/305
f 305/305/305 308/308/308 307/307/307
f 311/311/311 310/310/310 309/309/309
f 309/309/309 312/312/312 311/311/311
f 315/315/315 314/314/314 313/313/313
f 313/313/313 316/316/316 315/315/315
f 319/319/319 318/318/318 317/317/317
f 317/317/317 320/320/320 319/319/319
f 323/323/323 322/322/322 321/321/321
f 321/321/321 324/324/324 323/323/323
f 327/327/327 326/326/326 325/325/325
f 325/325/325 328/328/328 327/327/327
f 331/331/331 330/330/330 329/329/329
f 329/329/329 332/332/332 331/331/331
f 335/335/335 334/334/334 333/333/333
f 333/333/333 336/336/336 335/335/335
f 339/339/339 338/338/338 337/337/337
f 337/337/337 340/340/340 339/339/339
f 343/343/343 342/342/342 341/341/341
f 341/341/341 344/344/344 343/343/343
f 347/347/347 346/346/346 345/345/345
f 345/345/345 348/348/348 347/347/347
f 351/351/351 350/350/350 349/349/349
f 349/349/349 352/352/352 351/351/351
f 355/355/355 354/354/354 353/353/353
f 353/353/353 356/356/356 355/355/355
f 359/359/359 358/358/358 357/357/357
f 357/357/357 360/360/360 359/359/359
f 363/363/363 362/362/362 361/361/361
f 361/361/361 364/364/364 363/363/363
f 367/367/367 366/366/366 365/365/365
f 365/365/365 368/368/368 367/367/367
f 371/371/371 370/370/370 369/369/369
f 369/369/369 372/372/372 371/371/371
f 375/375/375 374/374/374 373/373/373
f 373/373/373 376/376/376 375/375/375
f 379/379/379 378/378/378 377/377/377
f 377/377/377 380/380/380 379/379/379
f 383/383/383 382/382/382 381/381/381
f 381/381/381 384/384/384 383/383/383
f 387/387/387 386/386/386 385/385/385
f 385/385/385 388/388/388 387/387/387
f 391/391/391 390/390/390 389/389/389
f 389/389/389 392/392/392 391/391/391
f 395/395/395 394/394/394 393/393/393
f 393/393/393 396/396/396 395/395/395
f 399/399/399 398/398/398 397/397/397
f 397/397/397 400/400/400 399/399/399
f 403/403/403 402/402/402 401/401/401
f 401/401/401 404/404/404 403/403/403
f 407/407/407 406/406/406 405/405/405
f 405/405/405 408/408/408 407/407/407
f 411/411/411 410/410/410 409/409/409
f 409/409/409 412/412/412 411/411/411
f 415/415/415 414/414/414 413/413/413
f 413/413/413 416/416/416 415/415/415
f 419/419/419 418/418/418 417/417/417
f 417/417/417 420/420/420 419/419/419
f 423/423/423 422/422/422 421/421/421
f 421/421/421 424/424/424 423/423/423
f 427/427/427 426/426/426 425/425/425
f 425/425/425 428/428/428 427/427/427
f 431/431/431 430/430/430 429/429/429
f 429/429/429 432/432/432 431/431/431
f 435/435/435 434/434/434 433/433/433
f 433/433/433 436/436/436 435/435/435
f 439/439/439 438/438/438 437/437/437
f 437/437/437 440/440/440 439/439/439
f 443/443/443 442/442/442 441/441/441
f 441/441/441 444/444/444 443/443/443
f 447/447/447 446/446/446 445/445/445
f 445/445/445 448/448/448 447/447/447
f 451/451/451 450/450/450 449/449/449
f 449/449/449 452/452/452 451/451/451
f 455/455/455 454/454/454 453/453/453
f 453/453/453 456/456/456 455/455/455
f 459/459/459 458/458/458 457/457/457
f 457/457/457 460/460/460 459/459/459
f 463/463/463 462/462/462 461/461/461
f 461/461/461 464/464/464 463/463/463
f 467/467/467 466/466/466 465/465/465
f 465/465/465 468/468/468 467/467/467
f 471/471/471 470/470/470 469/469/469
f 469/469/469 472/472/472 471/471/471
f 475/475/475 474/474/474 473/473/473
f 473/473/473 476/476/476 475/475/475
f 479/479/479 478/478/478 477/477/477
f 477/477/477 480/480/480 479/479/479
f 483/483/483 482/482/482 481/481/481
f 481/481/481 484/484/484 483/483/483
f 487/487/487 486/486/486 485/485/485
f 485/485/485 488/488/488 487/487/487
f 491/491/491 490/490/490 489/489/489
f 489/489/489 492/492/492 491/491/491
f 495/495/495 494/494/494 493/493/493
f 493/493/493 496/496/496 495/495/495
f 499/499/499 498/498/498 497/497/497
f 497/497/497 500/500/500 499/499/499
f 503/503/503 502/502/502 501/501/501
f 501/501/501 504/504/504 503/503/503
f 507/507/507 506/506/506 505/505/505
f 505/505/505 508/508/508 507/507/507
f 511/511/511 510/510/510 509/509/509
f 509/509/509 512/512/512 511/511/511
f 515/515/515 514/514/514 513/513/513
f 513/513/513 516/516/516 515/515/515
f 519/519/519 518/518/518 517/517/517
f 517/517/517 520/520/520 519/519/519
f 523/523/523 522/522/522 521/521/521
f 521/521/521 524/524/524 523/523/523
f 527/527/527 526/526/526 525/525/525
f 525/525/525 528/528/528 527/527/527
f 531/531/531 530/530/530 529/529/529
f 529/529/529 532/532/532 531/531/531
f 535/535/535 534/534/534 533/533/533
f 533/533/533 536/536/536 535/535/535
f 539/539/539 538/538/538 537/537/537
f 537/537/537 540/540/540 539/539/539
f 543/543/543 542/542/542 541/541/541
f 541/541/541 544/544/544 543/543/543
f 547/547/547 546/546/546 545/545/545
f 545/545/545 548/548/548 547/547/547
