g shancheng_g-mesh
v -576 255 0
v -576 799 0
v -896 799 0
v -896 255 0
v -256 255 0
v -256 799 0
v -576 799 0
v -576 255 0
v -64 383 0
v -64 703 0
v -256 703 0
v -256 383 0
v -288 799 0
v -288 895 0
v -640 895 0
v -640 799 0
v -192 127 0
v -192 223 0
v -544 223 0
v -544 127 0
v -544 127 0
v -544 223 0
v -896 223 0
v -896 127 0
v -640 799 0
v -640 895 0
v -939 895 0
v -939 799 0
v -160 223 0
v -160 383 0
v -256 383 0
v -256 223 0
v -672 31 0
v -672 127 0
v -832 127 0
v -832 31 0
v -736 895 0
v -736 959 0
v -896 959 0
v -896 895 0
v -576 895 0
v -576 959 0
v -736 959 0
v -736 895 0
v -224 63 0
v -224 127 0
v -384 127 0
v -384 63 0
v -896 415 0
v -896 703 0
v -928 703 0
v -928 415 0
v -608 959 0
v -608 1023 0
v -736 1023 0
v -736 959 0
v -288 0 0
v -288 63 0
v -416 63 0
v -416 0 0
v -896 159 0
v -896 415 0
v -928 415 0
v -928 159 0
v -384 63 0
v -384 127 0
v -512 127 0
v -512 63 0
v -448 223 0
v -448 255 0
v -672 255 0
v -672 223 0
v -672 223 0
v -672 255 0
v -896 255 0
v -896 223 0
v -0 415 0
v -0 511 0
v -64 511 0
v -64 415 0
v -256 895 0
v -256 927 0
v -384 927 0
v -384 895 0
v -256 223 0
v -256 255 0
v -352 255 0
v -352 223 0
v -928 447 0
v -928 543 0
v -939 543 0
v -939 447 0
v -384 895 0
v -384 927 0
v -480 927 0
v -480 895 0
v -384 927 0
v -384 991 0
v -416 991 0
v -416 927 0
v -576 95 0
v -576 127 0
v -640 127 0
v -640 95 0
v -928 255 0
v -928 319 0
v -939 319 0
v -939 255 0
v -736 0 0
v -736 31 0
v -800 31 0
v -800 0 0
v -256 927 0
v -256 959 0
v -320 959 0
v -320 927 0
v -736 959 0
v -736 991 0
v -800 991 0
v -800 959 0
v -128 319 0
v -128 383 0
v -160 383 0
v -160 319 0
v -32 639 0
v -32 703 0
v -64 703 0
v -64 639 0
v -928 383 0
v -928 447 0
v -939 447 0
v -939 383 0
v -352 223 0
v -352 255 0
v -416 255 0
v -416 223 0
v -64 703 0
v -64 735 0
v -128 735 0
v -128 703 0
v -224 703 0
v -224 735 0
v -256 735 0
v -256 703 0
v -0 671 0
v -0 703 0
v -32 703 0
v -32 671 0
v -32 511 0
v -32 543 0
v -64 543 0
v -64 511 0
v -32 383 0
v -32 415 0
v -64 415 0
v -64 383 0
v -640 63 0
v -640 95 0
v -672 95 0
v -672 63 0
v -256 31 0
v -256 63 0
v -288 63 0
v -288 31 0
v -832 95 0
v -832 127 0
v -864 127 0
v -864 95 0
v -416 31 0
v -416 63 0
v -448 63 0
v -448 31 0
v -160 191 0
v -160 223 0
v -192 223 0
v -192 191 0
v -256 799 0
v -256 831 0
v -288 831 0
v -288 799 0
v -928 223 0
v -928 255 0
v -939 255 0
v -939 223 0
v -640 95 0
v -640 127 0
v -672 127 0
v -672 95 0
v -128 287 0
v -128 319 0
v -160 319 0
v -160 287 0
v -32 607 0
v -32 639 0
v -64 639 0
v -64 607 0
v -128 703 0
v -128 735 0
v -160 735 0
v -160 703 0
v -544 895 0
v -544 927 0
v -576 927 0
v -576 895 0
v -896 895 0
v -896 927 0
v -928 927 0
v -928 895 0
v -576 991 0
v -576 1023 0
v -608 1023 0
v -608 991 0
v -416 927 0
v -416 959 0
v -448 959 0
v -448 927 0
vt 0.0009765625 0.00119614601
vt 0.0009765625 0.651913881
vt 0.313476562 0.651913881
vt 0.313476562 0.00119614601
vt 0.315429688 0.00119614601
vt 0.315429688 0.651913881
vt 0.627929688 0.651913881
vt 0.627929688 0.00119614601
vt 0.629882812 0.00119614601
vt 0.629882812 0.383971274
vt 0.817382812 0.383971274
vt 0.817382812 0.00119614601
vt 0.629882812 0.386363626
vt 0.629882812 0.501196146
vt 0.973632812 0.501196146
vt 0.973632812 0.386363626
vt 0.629882812 0.503588557
vt 0.629882812 0.618421078
vt 0.973632812 0.618421078
vt 0.973632812 0.503588557
vt 0.629882812 0.62081337
vt 0.629882812 0.73564589
vt 0.973632812 0.73564589
vt 0.973632812 0.62081337
vt 0.0009765625 0.654306233
vt 0.0009765625 0.769138753
vt 0.293945312 0.769138753
vt 0.293945312 0.654306233
vt 0.295898438 0.654306233
vt 0.295898438 0.845693767
vt 0.389648438 0.845693767
vt 0.389648438 0.654306233
vt 0.391601562 0.654306233
vt 0.391601562 0.769138753
vt 0.547851562 0.769138753
vt 0.547851562 0.654306233
vt 0.629882812 0.738038301
vt 0.629882812 0.814593315
vt 0.786132812 0.814593315
vt 0.786132812 0.738038301
vt 0.788085938 0.738038301
vt 0.788085938 0.814593315
vt 0.944335938 0.814593315
vt 0.944335938 0.738038301
vt 0.0009765625 0.771531105
vt 0.0009765625 0.848086119
vt 0.157226562 0.848086119
vt 0.157226562 0.771531105
vt 0.549804688 0.654306233
vt 0.549804688 0.998803854
vt 0.581054688 0.998803854
vt 0.581054688 0.654306233
vt 0.159179688 0.771531105
vt 0.159179688 0.848086119
vt 0.284179688 0.848086119
vt 0.284179688 0.771531105
vt 0.391601562 0.771531105
vt 0.391601562 0.848086119
vt 0.516601562 0.848086119
vt 0.516601562 0.771531105
vt 0.583007812 0.654306233
vt 0.583007812 0.960526347
vt 0.614257812 0.960526347
vt 0.614257812 0.654306233
vt 0.629882812 0.816985667
vt 0.629882812 0.89354068
vt 0.754882812 0.89354068
vt 0.754882812 0.816985667
vt 0.756835938 0.816985667
vt 0.756835938 0.855263174
vt 0.975585938 0.855263174
vt 0.975585938 0.816985667
vt 0.0009765625 0.85047847
vt 0.0009765625 0.888755977
vt 0.219726562 0.888755977
vt 0.219726562 0.85047847
vt 0.295898438 0.848086119
vt 0.295898438 0.962918639
vt 0.358398438 0.962918639
vt 0.358398438 0.848086119
vt 0.391601562 0.85047847
vt 0.391601562 0.888755977
vt 0.516601562 0.888755977
vt 0.516601562 0.85047847
vt 0.756835938 0.857655525
vt 0.756835938 0.895933032
vt 0.850585938 0.895933032
vt 0.850585938 0.857655525
vt 0.977539062 0.00119614601
vt 0.977539062 0.116028726
vt 0.989257812 0.116028726
vt 0.989257812 0.00119614601
vt 0.852539062 0.857655525
vt 0.852539062 0.895933032
vt 0.946289062 0.895933032
vt 0.946289062 0.857655525
vt 0.221679688 0.85047847
vt 0.221679688 0.927033484
vt 0.252929688 0.927033484
vt 0.252929688 0.85047847
vt 0.0009765625 0.891148329
vt 0.0009765625 0.929425836
vt 0.0634765625 0.929425836
vt 0.0634765625 0.891148329
vt 0.977539062 0.118421078
vt 0.977539062 0.194976091
vt 0.989257812 0.194976091
vt 0.989257812 0.118421078
vt 0.0654296875 0.891148329
vt 0.0654296875 0.929425836
vt 0.127929688 0.929425836
vt 0.127929688 0.891148329
vt 0.129882812 0.891148329
vt 0.129882812 0.929425836
vt 0.192382812 0.929425836
vt 0.192382812 0.891148329
vt 0.391601562 0.891148329
vt 0.391601562 0.929425836
vt 0.454101562 0.929425836
vt 0.454101562 0.891148329
vt 0.254882812 0.85047847
vt 0.254882812 0.927033484
vt 0.286132812 0.927033484
vt 0.286132812 0.85047847
vt 0.948242188 0.857655525
vt 0.948242188 0.934210539
vt 0.979492188 0.934210539
vt 0.979492188 0.857655525
vt 0.981445312 0.197368443
vt 0.981445312 0.273923457
vt 0.993164062 0.273923457
vt 0.993164062 0.197368443
vt 0.456054688 0.891148329
vt 0.456054688 0.929425836
vt 0.518554688 0.929425836
vt 0.518554688 0.891148329
vt 0.629882812 0.895933032
vt 0.629882812 0.934210539
vt 0.692382812 0.934210539
vt 0.692382812 0.895933032
vt 0.694335938 0.895933032
vt 0.694335938 0.934210539
vt 0.725585938 0.934210539
vt 0.725585938 0.895933032
vt 0.756835938 0.898325384
vt 0.756835938 0.93660289
vt 0.788085938 0.93660289
vt 0.788085938 0.898325384
vt 0.790039062 0.898325384
vt 0.790039062 0.93660289
vt 0.821289062 0.93660289
vt 0.821289062 0.898325384
vt 0.823242188 0.898325384
vt 0.823242188 0.93660289
vt 0.854492188 0.93660289
vt 0.854492188 0.898325384
vt 0.856445312 0.898325384
vt 0.856445312 0.93660289
vt 0.887695312 0.93660289
vt 0.887695312 0.898325384
vt 0.889648438 0.898325384
vt 0.889648438 0.93660289
vt 0.920898438 0.93660289
vt 0.920898438 0.898325384
vt 0.221679688 0.929425836
vt 0.221679688 0.967703342
vt 0.252929688 0.967703342
vt 0.252929688 0.929425836
vt 0.254882812 0.929425836
vt 0.254882812 0.967703342
vt 0.286132812 0.967703342
vt 0.286132812 0.929425836
vt 0.0009765625 0.931818187
vt 0.0009765625 0.970095694
vt 0.0322265625 0.970095694
vt 0.0322265625 0.931818187
vt 0.0341796875 0.931818187
vt 0.0341796875 0.970095694
vt 0.0654296875 0.970095694
vt 0.0654296875 0.931818187
vt 0.981445312 0.276315808
vt 0.981445312 0.314593315
vt 0.993164062 0.314593315
vt 0.993164062 0.276315808
vt 0.0673828125 0.931818187
vt 0.0673828125 0.970095694
vt 0.0986328125 0.970095694
vt 0.0986328125 0.931818187
vt 0.100585938 0.931818187
vt 0.100585938 0.970095694
vt 0.131835938 0.970095694
vt 0.131835938 0.931818187
vt 0.133789062 0.931818187
vt 0.133789062 0.970095694
vt 0.165039062 0.970095694
vt 0.165039062 0.931818187
vt 0.166992188 0.931818187
vt 0.166992188 0.970095694
vt 0.198242188 0.970095694
vt 0.198242188 0.931818187
vt 0.391601562 0.931818187
vt 0.391601562 0.970095694
vt 0.422851562 0.970095694
vt 0.422851562 0.931818187
vt 0.424804688 0.931818187
vt 0.424804688 0.970095694
vt 0.456054688 0.970095694
vt 0.456054688 0.931818187
vt 0.458007812 0.931818187
vt 0.458007812 0.970095694
vt 0.489257812 0.970095694
vt 0.489257812 0.931818187
vt 0.491210938 0.931818187
vt 0.491210938 0.970095694
vt 0.522460938 0.970095694
vt 0.522460938 0.931818187
g shancheng_g-mesh_0
f 3/3/3 2/2/2 1/1/1
f 1/1/1 4/4/4 3/3/3
f 7/7/7 6/6/6 5/5/5
f 5/5/5 8/8/8 7/7/7
f 11/11/11 10/10/10 9/9/9
f 9/9/9 12/12/12 11/11/11
f 15/15/15 14/14/14 13/13/13
f 13/13/13 16/16/16 15/15/15
f 19/19/19 18/18/18 17/17/17
f 17/17/17 20/20/20 19/19/19
f 23/23/23 22/22/22 21/21/21
f 21/21/21 24/24/24 23/23/23
f 27/27/27 26/26/26 25/25/25
f 25/25/25 28/28/28 27/27/27
f 31/31/31 30/30/30 29/29/29
f 29/29/29 32/32/32 31/31/31
f 35/35/35 34/34/34 33/33/33
f 33/33/33 36/36/36 35/35/35
f 39/39/39 38/38/38 37/37/37
f 37/37/37 40/40/40 39/39/39
f 43/43/43 42/42/42 41/41/41
f 41/41/41 44/44/44 43/43/43
f 47/47/47 46/46/46 45/45/45
f 45/45/45 48/48/48 47/47/47
f 51/51/51 50/50/50 49/49/49
f 49/49/49 52/52/52 51/51/51
f 55/55/55 54/54/54 53/53/53
f 53/53/53 56/56/56 55/55/55
f 59/59/59 58/58/58 57/57/57
f 57/57/57 60/60/60 59/59/59
f 63/63/63 62/62/62 61/61/61
f 61/61/61 64/64/64 63/63/63
f 67/67/67 66/66/66 65/65/65
f 65/65/65 68/68/68 67/67/67
f 71/71/71 70/70/70 69/69/69
f 69/69/69 72/72/72 71/71/71
f 75/75/75 74/74/74 73/73/73
f 73/73/73 76/76/76 75/75/75
f 79/79/79 78/78/78 77/77/77
f 77/77/77 80/80/80 79/79/79
f 83/83/83 82/82/82 81/81/81
f 81/81/81 84/84/84 83/83/83
f 87/87/87 86/86/86 85/85/85
f 85/85/85 88/88/88 87/87/87
f 91/91/91 90/90/90 89/89/89
f 89/89/89 92/92/92 91/91/91
f 95/95/95 94/94/94 93/93/93
f 93/93/93 96/96/96 95/95/95
f 99/99/99 98/98/98 97/97/97
f 97/97/97 100/100/100 99/99/99
f 103/103/103 102/102/102 101/101/101
f 101/101/101 104/104/104 103/103/103
f 107/107/107 106/106/106 105/105/105
f 105/105/105 108/108/108 107/107/107
f 111/111/111 110/110/110 109/109/109
f 109/109/109 112/112/112 111/111/111
f 115/115/115 114/114/114 113/113/113
f 113/113/113 116/116/116 115/115/115
f 119/119/119 118/118/118 117/117/117
f 117/117/117 120/120/120 119/119/119
f 123/123/123 122/122/122 121/121/121
f 121/121/121 124/124/124 123/123/123
f 127/127/127 126/126/126 125/125/125
f 125/125/125 128/128/128 127/127/127
f 131/131/131 130/130/130 129/129/129
f 129/129/129 132/132/132 131/131/131
f 135/135/135 134/134/134 133/133/133
f 133/133/133 136/136/136 135/135/135
f 139/139/139 138/138/138 137/137/137
f 137/137/137 140/140/140 139/139/139
f 143/143/143 142/142/142 141/141/141
f 141/141/141 144/144/144 143/143/143
f 147/147/147 146/146/146 145/145/145
f 145/145/145 148/148/148 147/147/147
f 151/151/151 150/150/150 149/149/149
f 149/149/149 152/152/152 151/151/151
f 155/155/155 154/154/154 153/153/153
f 153/153/153 156/156/156 155/155/155
f 159/159/159 158/158/158 157/157/157
f 157/157/157 160/160/160 159/159/159
f 163/163/163 162/162/162 161/161/161
f 161/161/161 164/164/164 163/163/163
f 167/167/167 166/166/166 165/165/165
f 165/165/165 168/168/168 167/167/167
f 171/171/171 170/170/170 169/169/169
f 169/169/169 172/172/172 171/171/171
f 175/175/175 174/174/174 173/173/173
f 173/173/173 176/176/176 175/175/175
f 179/179/179 178/178/178 177/177/177
f 177/177/177 180/180/180 179/179/179
f 183/183/183 182/182/182 181/181/181
f 181/181/181 184/184/184 183/183/183
f 187/187/187 186/186/186 185/185/185
f 185/185/185 188/188/188 187/187/187
f 191/191/191 190/190/190 189/189/189
f 189/189/189 192/192/192 191/191/191
f 195/195/195 194/194/194 193/193/193
f 193/193/193 196/196/196 195/195/195
f 199/199/199 198/198/198 197/197/197
f 197/197/197 200/200/200 199/199/199
f 203/203/203 202/202/202 201/201/201
f 201/201/201 204/204/204 203/203/203
f 207/207/207 206/206/206 205/205/205
f 205/205/205 208/208/208 207/207/207
f 211/211/211 210/210/210 209/209/209
f 209/209/209 212/212/212 211/211/211
f 215/215/215 214/214/214 213/213/213
f 213/213/213 216/216/216 215/215/215
