g maoyin-mesh
v -128 447 0
v -128 831 0
v -768 831 0
v -768 447 0
v -128 95 0
v -128 447 0
v -768 447 0
v -768 95 0
v -352 831 0
v -352 959 0
v -608 959 0
v -608 831 0
v -832 543 0
v -832 703 0
v -960 703 0
v -960 543 0
v -96 0 0
v -96 95 0
v -288 95 0
v -288 0 0
v -288 0 0
v -288 95 0
v -480 95 0
v -480 0 0
v -768 63 0
v -768 223 0
v -864 223 0
v -864 63 0
v -32 223 0
v -32 383 0
v -128 383 0
v -128 223 0
v -32 95 0
v -32 223 0
v -128 223 0
v -128 95 0
v -0 447 0
v -0 575 0
v -96 575 0
v -96 447 0
v -768 511 0
v -768 671 0
v -832 671 0
v -832 511 0
v -768 351 0
v -768 511 0
v -832 511 0
v -832 351 0
v -832 319 0
v -832 415 0
v -928 415 0
v -928 319 0
v -480 31 0
v -480 95 0
v -576 95 0
v -576 31 0
v -672 31 0
v -672 95 0
v -768 95 0
v -768 31 0
v -64 671 0
v -64 767 0
v -128 767 0
v -128 671 0
v -448 959 0
v -448 1023 0
v -544 1023 0
v -544 959 0
v -608 831 0
v -608 895 0
v -704 895 0
v -704 831 0
v -288 831 0
v -288 895 0
v -352 895 0
v -352 831 0
v -928 479 0
v -928 543 0
v -973 543 0
v -973 479 0
v -864 703 0
v -864 767 0
v -928 767 0
v -928 703 0
v -96 447 0
v -96 543 0
v -128 543 0
v -128 447 0
v -704 831 0
v -704 863 0
v -768 863 0
v -768 831 0
v -960 607 0
v -960 671 0
v -973 671 0
v -973 607 0
v -928 351 0
v -928 415 0
v -960 415 0
v -960 351 0
v -64 31 0
v -64 95 0
v -96 95 0
v -96 31 0
v -896 191 0
v -896 255 0
v -928 255 0
v -928 191 0
v -832 223 0
v -832 287 0
v -864 287 0
v -864 223 0
v -832 479 0
v -832 543 0
v -864 543 0
v -864 479 0
v -768 671 0
v -768 735 0
v -800 735 0
v -800 671 0
v -768 735 0
v -768 799 0
v -800 799 0
v -800 735 0
v -96 383 0
v -96 447 0
v -128 447 0
v -128 383 0
v -768 287 0
v -768 351 0
v -800 351 0
v -800 287 0
v -832 415 0
v -832 479 0
v -864 479 0
v -864 415 0
v -0 255 0
v -0 287 0
v -32 287 0
v -32 255 0
v -864 255 0
v -864 287 0
v -896 287 0
v -896 255 0
v -864 415 0
v -864 447 0
v -896 447 0
v -896 415 0
v -64 383 0
v -64 415 0
v -96 415 0
v -96 383 0
v -576 31 0
v -576 63 0
v -608 63 0
v -608 31 0
v -640 31 0
v -640 63 0
v -672 63 0
v -672 31 0
v -928 223 0
v -928 255 0
v -960 255 0
v -960 223 0
v -864 191 0
v -864 223 0
v -896 223 0
v -896 191 0
v -320 895 0
v -320 927 0
v -352 927 0
v -352 895 0
v -608 895 0
v -608 927 0
v -640 927 0
v -640 895 0
v -768 255 0
v -768 287 0
v -800 287 0
v -800 255 0
v -544 959 0
v -544 991 0
v -576 991 0
v -576 959 0
v -960 543 0
v -960 575 0
v -973 575 0
v -973 543 0
v -864 511 0
v -864 543 0
v -896 543 0
v -896 511 0
v -96 767 0
v -96 799 0
v -128 799 0
v -128 767 0
v -832 703 0
v -832 735 0
v -864 735 0
v -864 703 0
vt 0.0009765625 0.00123763084
vt 0.0009765625 0.476485133
vt 0.625976562 0.476485133
vt 0.625976562 0.00123763084
vt 0.0009765625 0.478960395
vt 0.0009765625 0.914603949
vt 0.625976562 0.914603949
vt 0.625976562 0.478960395
vt 0.627929688 0.00123763084
vt 0.627929688 0.159653485
vt 0.877929688 0.159653485
vt 0.877929688 0.00123763084
vt 0.627929688 0.162128687
vt 0.627929688 0.360148489
vt 0.752929688 0.360148489
vt 0.752929688 0.162128687
vt 0.754882812 0.162128687
vt 0.754882812 0.280940592
vt 0.942382812 0.280940592
vt 0.942382812 0.162128687
vt 0.754882812 0.283415854
vt 0.754882812 0.4022277
vt 0.942382812 0.4022277
vt 0.942382812 0.283415854
vt 0.627929688 0.362623751
vt 0.627929688 0.560643554
vt 0.721679688 0.560643554
vt 0.721679688 0.362623751
vt 0.754882812 0.404702961
vt 0.754882812 0.602722764
vt 0.848632812 0.602722764
vt 0.848632812 0.404702961
vt 0.850585938 0.404702961
vt 0.850585938 0.563118815
vt 0.944335938 0.563118815
vt 0.944335938 0.404702961
vt 0.627929688 0.563118815
vt 0.627929688 0.72153461
vt 0.721679688 0.72153461
vt 0.721679688 0.563118815
vt 0.850585938 0.565594077
vt 0.850585938 0.76361388
vt 0.913085938 0.76361388
vt 0.913085938 0.565594077
vt 0.915039062 0.565594077
vt 0.915039062 0.76361388
vt 0.977539062 0.76361388
vt 0.977539062 0.565594077
vt 0.754882812 0.605198026
vt 0.754882812 0.724009871
vt 0.848632812 0.724009871
vt 0.848632812 0.605198026
vt 0.627929688 0.724009871
vt 0.627929688 0.803217828
vt 0.721679688 0.803217828
vt 0.721679688 0.724009871
vt 0.754882812 0.726485133
vt 0.754882812 0.80569309
vt 0.848632812 0.80569309
vt 0.848632812 0.726485133
vt 0.850585938 0.766089082
vt 0.850585938 0.884900987
vt 0.913085938 0.884900987
vt 0.913085938 0.766089082
vt 0.627929688 0.80569309
vt 0.627929688 0.884900987
vt 0.721679688 0.884900987
vt 0.721679688 0.80569309
vt 0.754882812 0.808168292
vt 0.754882812 0.887376249
vt 0.848632812 0.887376249
vt 0.848632812 0.808168292
vt 0.915039062 0.766089082
vt 0.915039062 0.845297039
vt 0.977539062 0.845297039
vt 0.977539062 0.766089082
vt 0.915039062 0.847772241
vt 0.915039062 0.926980197
vt 0.959960938 0.926980197
vt 0.959960938 0.847772241
vt 0.627929688 0.887376249
vt 0.627929688 0.966584146
vt 0.690429688 0.966584146
vt 0.690429688 0.887376249
vt 0.961914062 0.847772241
vt 0.961914062 0.966584146
vt 0.993164062 0.966584146
vt 0.993164062 0.847772241
vt 0.850585938 0.887376249
vt 0.850585938 0.926980197
vt 0.913085938 0.926980197
vt 0.913085938 0.887376249
vt 0.723632812 0.362623751
vt 0.723632812 0.441831708
vt 0.737304688 0.441831708
vt 0.737304688 0.362623751
vt 0.692382812 0.887376249
vt 0.692382812 0.966584146
vt 0.723632812 0.966584146
vt 0.723632812 0.887376249
vt 0.754882812 0.889851511
vt 0.754882812 0.969059408
vt 0.786132812 0.969059408
vt 0.786132812 0.889851511
vt 0.788085938 0.889851511
vt 0.788085938 0.969059408
vt 0.819335938 0.969059408
vt 0.819335938 0.889851511
vt 0.0009765625 0.91707921
vt 0.0009765625 0.996287107
vt 0.0322265625 0.996287107
vt 0.0322265625 0.91707921
vt 0.0341796875 0.91707921
vt 0.0341796875 0.996287107
vt 0.0654296875 0.996287107
vt 0.0654296875 0.91707921
vt 0.0673828125 0.91707921
vt 0.0673828125 0.996287107
vt 0.0986328125 0.996287107
vt 0.0986328125 0.91707921
vt 0.100585938 0.91707921
vt 0.100585938 0.996287107
vt 0.131835938 0.996287107
vt 0.131835938 0.91707921
vt 0.133789062 0.91707921
vt 0.133789062 0.996287107
vt 0.165039062 0.996287107
vt 0.165039062 0.91707921
vt 0.166992188 0.91707921
vt 0.166992188 0.996287107
vt 0.198242188 0.996287107
vt 0.198242188 0.91707921
vt 0.200195312 0.91707921
vt 0.200195312 0.996287107
vt 0.231445312 0.996287107
vt 0.231445312 0.91707921
vt 0.233398438 0.91707921
vt 0.233398438 0.956683159
vt 0.264648438 0.956683159
vt 0.264648438 0.91707921
vt 0.266601562 0.91707921
vt 0.266601562 0.956683159
vt 0.297851562 0.956683159
vt 0.297851562 0.91707921
vt 0.299804688 0.91707921
vt 0.299804688 0.956683159
vt 0.331054688 0.956683159
vt 0.331054688 0.91707921
vt 0.333007812 0.91707921
vt 0.333007812 0.956683159
vt 0.364257812 0.956683159
vt 0.364257812 0.91707921
vt 0.366210938 0.91707921
vt 0.366210938 0.956683159
vt 0.397460938 0.956683159
vt 0.397460938 0.91707921
vt 0.399414062 0.91707921
vt 0.399414062 0.956683159
vt 0.430664062 0.956683159
vt 0.430664062 0.91707921
vt 0.432617188 0.91707921
vt 0.432617188 0.956683159
vt 0.463867188 0.956683159
vt 0.463867188 0.91707921
vt 0.465820312 0.91707921
vt 0.465820312 0.956683159
vt 0.497070312 0.956683159
vt 0.497070312 0.91707921
vt 0.499023438 0.91707921
vt 0.499023438 0.956683159
vt 0.530273438 0.956683159
vt 0.530273438 0.91707921
vt 0.532226562 0.91707921
vt 0.532226562 0.956683159
vt 0.563476562 0.956683159
vt 0.563476562 0.91707921
vt 0.565429688 0.91707921
vt 0.565429688 0.956683159
vt 0.596679688 0.956683159
vt 0.596679688 0.91707921
vt 0.850585938 0.929455459
vt 0.850585938 0.969059408
vt 0.881835938 0.969059408
vt 0.881835938 0.929455459
vt 0.739257812 0.362623751
vt 0.739257812 0.4022277
vt 0.752929688 0.4022277
vt 0.752929688 0.362623751
vt 0.883789062 0.929455459
vt 0.883789062 0.969059408
vt 0.915039062 0.969059408
vt 0.915039062 0.929455459
vt 0.916992188 0.929455459
vt 0.916992188 0.969059408
vt 0.948242188 0.969059408
vt 0.948242188 0.929455459
vt 0.233398438 0.959158421
vt 0.233398438 0.998762369
vt 0.264648438 0.998762369
vt 0.264648438 0.959158421
g maoyin-mesh_0
f 3/3/3 2/2/2 1/1/1
f 1/1/1 4/4/4 3/3/3
f 7/7/7 6/6/6 5/5/5
f 5/5/5 8/8/8 7/7/7
f 11/11/11 10/10/10 9/9/9
f 9/9/9 12/12/12 11/11/11
f 15/15/15 14/14/14 13/13/13
f 13/13/13 16/16/16 15/15/15
f 19/19/19 18/18/18 17/17/17
f 17/17/17 20/20/20 19/19/19
f 23/23/23 22/22/22 21/21/21
f 21/21/21 24/24/24 23/23/23
f 27/27/27 26/26/26 25/25/25
f 25/25/25 28/28/28 27/27/27
f 31/31/31 30/30/30 29/29/29
f 29/29/29 32/32/32 31/31/31
f 35/35/35 34/34/34 33/33/33
f 33/33/33 36/36/36 35/35/35
f 39/39/39 38/38/38 37/37/37
f 37/37/37 40/40/40 39/39/39
f 43/43/43 42/42/42 41/41/41
f 41/41/41 44/44/44 43/43/43
f 47/47/47 46/46/46 45/45/45
f 45/45/45 48/48/48 47/47/47
f 51/51/51 50/50/50 49/49/49
f 49/49/49 52/52/52 51/51/51
f 55/55/55 54/54/54 53/53/53
f 53/53/53 56/56/56 55/55/55
f 59/59/59 58/58/58 57/57/57
f 57/57/57 60/60/60 59/59/59
f 63/63/63 62/62/62 61/61/61
f 61/61/61 64/64/64 63/63/63
f 67/67/67 66/66/66 65/65/65
f 65/65/65 68/68/68 67/67/67
f 71/71/71 70/70/70 69/69/69
f 69/69/69 72/72/72 71/71/71
f 75/75/75 74/74/74 73/73/73
f 73/73/73 76/76/76 75/75/75
f 79/79/79 78/78/78 77/77/77
f 77/77/77 80/80/80 79/79/79
f 83/83/83 82/82/82 81/81/81
f 81/81/81 84/84/84 83/83/83
f 87/87/87 86/86/86 85/85/85
f 85/85/85 88/88/88 87/87/87
f 91/91/91 90/90/90 89/89/89
f 89/89/89 92/92/92 91/91/91
f 95/95/95 94/94/94 93/93/93
f 93/93/93 96/96/96 95/95/95
f 99/99/99 98/98/98 97/97/97
f 97/97/97 100/100/100 99/99/99
f 103/103/103 102/102/102 101/101/101
f 101/101/101 104/104/104 103/103/103
f 107/107/107 106/106/106 105/105/105
f 105/105/105 108/108/108 107/107/107
f 111/111/111 110/110/110 109/109/109
f 109/109/109 112/112/112 111/111/111
f 115/115/115 114/114/114 113/113/113
f 113/113/113 116/116/116 115/115/115
f 119/119/119 118/118/118 117/117/117
f 117/117/117 120/120/120 119/119/119
f 123/123/123 122/122/122 121/121/121
f 121/121/121 124/124/124 123/123/123
f 127/127/127 126/126/126 125/125/125
f 125/125/125 128/128/128 127/127/127
f 131/131/131 130/130/130 129/129/129
f 129/129/129 132/132/132 131/131/131
f 135/135/135 134/134/134 133/133/133
f 133/133/133 136/136/136 135/135/135
f 139/139/139 138/138/138 137/137/137
f 137/137/137 140/140/140 139/139/139
f 143/143/143 142/142/142 141/141/141
f 141/141/141 144/144/144 143/143/143
f 147/147/147 146/146/146 145/145/145
f 145/145/145 148/148/148 147/147/147
f 151/151/151 150/150/150 149/149/149
f 149/149/149 152/152/152 151/151/151
f 155/155/155 154/154/154 153/153/153
f 153/153/153 156/156/156 155/155/155
f 159/159/159 158/158/158 157/157/157
f 157/157/157 160/160/160 159/159/159
f 163/163/163 162/162/162 161/161/161
f 161/161/161 164/164/164 163/163/163
f 167/167/167 166/166/166 165/165/165
f 165/165/165 168/168/168 167/167/167
f 171/171/171 170/170/170 169/169/169
f 169/169/169 172/172/172 171/171/171
f 175/175/175 174/174/174 173/173/173
f 173/173/173 176/176/176 175/175/175
f 179/179/179 178/178/178 177/177/177
f 177/177/177 180/180/180 179/179/179
f 183/183/183 182/182/182 181/181/181
f 181/181/181 184/184/184 183/183/183
f 187/187/187 186/186/186 185/185/185
f 185/185/185 188/188/188 187/187/187
f 191/191/191 190/190/190 189/189/189
f 189/189/189 192/192/192 191/191/191
f 195/195/195 194/194/194 193/193/193
f 193/193/193 196/196/196 195/195/195
f 199/199/199 198/198/198 197/197/197
f 197/197/197 200/200/200 199/199/199
