g kebu_2-mesh
v -256 209 0
v -256 1585 0
v -992 1585 0
v -992 209 0
v -992 209 0
v -992 1585 0
v -1696 1585 0
v -1696 209 0
v -576 1585 0
v -576 1841 0
v -1152 1841 0
v -1152 1585 0
v -1696 977 0
v -1696 1521 0
v -1952 1521 0
v -1952 977 0
v -1152 1585 0
v -1152 1841 0
v -1696 1841 0
v -1696 1585 0
v -1696 465 0
v -1696 977 0
v -1952 977 0
v -1952 465 0
v -64 881 0
v -64 1329 0
v -256 1329 0
v -256 881 0
v -64 465 0
v -64 881 0
v -256 881 0
v -256 465 0
v -640 17 0
v -640 209 0
v -1024 209 0
v -1024 17 0
v -1024 17 0
v -1024 209 0
v -1376 209 0
v -1376 17 0
v -1696 1521 0
v -1696 1745 0
v -1824 1745 0
v -1824 1521 0
v -1952 945 0
v -1952 1233 0
v -2047 1233 0
v -2047 945 0
v -1952 689 0
v -1952 945 0
v -2047 945 0
v -2047 689 0
v -1024 1841 0
v -1024 1905 0
v -1376 1905 0
v -1376 1841 0
v -672 1841 0
v -672 1905 0
v -1024 1905 0
v -1024 1841 0
v -416 113 0
v -416 209 0
v -640 209 0
v -640 113 0
v -448 1585 0
v -448 1745 0
v -576 1745 0
v -576 1585 0
v -160 273 0
v -160 465 0
v -256 465 0
v -256 273 0
v -0 689 0
v -0 913 0
v -64 913 0
v -64 689 0
v -0 913 0
v -0 1137 0
v -64 1137 0
v -64 913 0
v -160 1329 0
v -160 1457 0
v -256 1457 0
v -256 1329 0
v -1824 1521 0
v -1824 1649 0
v -1888 1649 0
v -1888 1521 0
v -320 1585 0
v -320 1649 0
v -448 1649 0
v -448 1585 0
v -992 1905 0
v -992 1937 0
v -1216 1937 0
v -1216 1905 0
v -832 0 0
v -832 17 0
v -1056 17 0
v -1056 0 0
v -768 1905 0
v -768 1937 0
v -992 1937 0
v -992 1905 0
v -1952 593 0
v -1952 689 0
v -2016 689 0
v -2016 593 0
v -1056 0 0
v -1056 17 0
v -1248 17 0
v -1248 0 0
v -1376 113 0
v -1376 209 0
v -1440 209 0
v -1440 113 0
v -96 1329 0
v -96 1393 0
v -160 1393 0
v -160 1329 0
v -512 1745 0
v -512 1809 0
v -576 1809 0
v -576 1745 0
v -1376 49 0
v -1376 113 0
v -1440 113 0
v -1440 49 0
v -1696 337 0
v -1696 465 0
v -1728 465 0
v -1728 337 0
v -96 401 0
v -96 465 0
v -160 465 0
v -160 401 0
v -1760 369 0
v -1760 465 0
v -1792 465 0
v -1792 369 0
v -1376 1841 0
v -1376 1873 0
v -1472 1873 0
v -1472 1841 0
v -480 81 0
v -480 113 0
v -576 113 0
v -576 81 0
v -1440 145 0
v -1440 177 0
v -1536 177 0
v -1536 145 0
v -1952 1233 0
v -1952 1329 0
v -1984 1329 0
v -1984 1233 0
v -1728 369 0
v -1728 465 0
v -1760 465 0
v -1760 369 0
v -1696 241 0
v -1696 337 0
v -1728 337 0
v -1728 241 0
v -1952 1329 0
v -1952 1425 0
v -1984 1425 0
v -1984 1329 0
v -1728 273 0
v -1728 369 0
v -1760 369 0
v -1760 273 0
v -1536 177 0
v -1536 209 0
v -1632 209 0
v -1632 177 0
v -1440 177 0
v -1440 209 0
v -1536 209 0
v -1536 177 0
v -608 1841 0
v -608 1873 0
v -672 1873 0
v -672 1841 0
v -1824 401 0
v -1824 465 0
v -1856 465 0
v -1856 401 0
v -1824 1777 0
v -1824 1841 0
v -1856 1841 0
v -1856 1777 0
v -1984 1265 0
v -1984 1329 0
v -2016 1329 0
v -2016 1265 0
v -1440 113 0
v -1440 145 0
v -1504 145 0
v -1504 113 0
v -224 1489 0
v -224 1553 0
v -256 1553 0
v -256 1489 0
v -416 1649 0
v -416 1713 0
v -448 1713 0
v -448 1649 0
v -192 241 0
v -192 273 0
v -256 273 0
v -256 241 0
v -352 145 0
v -352 177 0
v -416 177 0
v -416 145 0
v -576 49 0
v -576 81 0
v -640 81 0
v -640 49 0
v -128 337 0
v -128 401 0
v -160 401 0
v -160 337 0
v -1888 1521 0
v -1888 1585 0
v -1920 1585 0
v -1920 1521 0
v -1952 529 0
v -1952 593 0
v -1984 593 0
v -1984 529 0
v -1856 401 0
v -1856 465 0
v -1888 465 0
v -1888 401 0
v -32 625 0
v -32 689 0
v -64 689 0
v -64 625 0
v -32 1137 0
v -32 1201 0
v -64 1201 0
v -64 1137 0
v -1792 401 0
v -1792 465 0
v -1824 465 0
v -1824 401 0
v -32 561 0
v -32 625 0
v -64 625 0
v -64 561 0
v -1760 305 0
v -1760 369 0
v -1792 369 0
v -1792 305 0
v -1472 1841 0
v -1472 1873 0
v -1536 1873 0
v -1536 1841 0
v -576 81 0
v -576 113 0
v -640 113 0
v -640 81 0
v -1536 145 0
v -1536 177 0
v -1600 177 0
v -1600 145 0
v -1792 337 0
v -1792 401 0
v -1824 401 0
v -1824 337 0
v -1696 1745 0
v -1696 1777 0
v -1760 1777 0
v -1760 1745 0
v -32 1201 0
v -32 1265 0
v -64 1265 0
v -64 1201 0
v -288 177 0
v -288 209 0
v -352 209 0
v -352 177 0
v -352 177 0
v -352 209 0
v -416 209 0
v -416 177 0
v -384 1649 0
v -384 1681 0
v -416 1681 0
v -416 1649 0
v -1440 81 0
v -1440 113 0
v -1472 113 0
v -1472 81 0
v -1824 1649 0
v -1824 1681 0
v -1856 1681 0
v -1856 1649 0
v -128 1393 0
v -128 1425 0
v -160 1425 0
v -160 1393 0
v -192 1457 0
v -192 1489 0
v -224 1489 0
v -224 1457 0
v -1888 433 0
v -1888 465 0
v -1920 465 0
v -1920 433 0
v -288 1585 0
v -288 1617 0
v -320 1617 0
v -320 1585 0
v -1824 369 0
v -1824 401 0
v -1856 401 0
v -1856 369 0
v -1984 1233 0
v -1984 1265 0
v -2016 1265 0
v -2016 1233 0
v -224 1457 0
v -224 1489 0
v -256 1489 0
v -256 1457 0
v -1504 113 0
v -1504 145 0
v -1536 145 0
v -1536 113 0
v -480 1745 0
v -480 1777 0
v -512 1777 0
v -512 1745 0
v -1696 1777 0
v -1696 1809 0
v -1728 1809 0
v -1728 1777 0
v -1760 1745 0
v -1760 1777 0
v -1792 1777 0
v -1792 1745 0
vt 0.00048828125 0.00055617094
vt 0.00048828125 0.765850961
vt 0.359863281 0.765850961
vt 0.359863281 0.00055617094
vt 0.360839844 0.00055617094
vt 0.360839844 0.765850961
vt 0.704589844 0.765850961
vt 0.704589844 0.00055617094
vt 0.705566406 0.00055617094
vt 0.705566406 0.142936587
vt 0.986816406 0.142936587
vt 0.986816406 0.00055617094
vt 0.705566406 0.144048929
vt 0.705566406 0.446607351
vt 0.830566406 0.446607351
vt 0.830566406 0.144048929
vt 0.705566406 0.447719693
vt 0.705566406 0.59010011
vt 0.971191406 0.59010011
vt 0.971191406 0.447719693
vt 0.705566406 0.591212451
vt 0.705566406 0.875973284
vt 0.830566406 0.875973284
vt 0.830566406 0.591212451
vt 0.831542969 0.591212451
vt 0.831542969 0.840378165
vt 0.925292969 0.840378165
vt 0.925292969 0.591212451
vt 0.00048828125 0.766963303
vt 0.00048828125 0.998331487
vt 0.0942382812 0.998331487
vt 0.0942382812 0.766963303
vt 0.0952148438 0.766963303
vt 0.0952148438 0.8737486
vt 0.282714844 0.8737486
vt 0.282714844 0.766963303
vt 0.283691406 0.766963303
vt 0.283691406 0.8737486
vt 0.455566406 0.8737486
vt 0.455566406 0.766963303
vt 0.926269531 0.591212451
vt 0.926269531 0.715795338
vt 0.988769531 0.715795338
vt 0.988769531 0.591212451
vt 0.926269531 0.71690768
vt 0.926269531 0.877085626
vt 0.973144531 0.877085626
vt 0.973144531 0.71690768
vt 0.456542969 0.766963303
vt 0.456542969 0.909343719
vt 0.503417969 0.909343719
vt 0.503417969 0.766963303
vt 0.504394531 0.766963303
vt 0.504394531 0.802558422
vt 0.676269531 0.802558422
vt 0.676269531 0.766963303
vt 0.504394531 0.803670764
vt 0.504394531 0.839265823
vt 0.676269531 0.839265823
vt 0.676269531 0.803670764
vt 0.504394531 0.840378165
vt 0.504394531 0.893770874
vt 0.613769531 0.893770874
vt 0.613769531 0.840378165
vt 0.614746094 0.840378165
vt 0.614746094 0.929365993
vt 0.677246094 0.929365993
vt 0.677246094 0.840378165
vt 0.831542969 0.841490567
vt 0.831542969 0.948275864
vt 0.878417969 0.948275864
vt 0.878417969 0.841490567
vt 0.879394531 0.841490567
vt 0.879394531 0.966073394
vt 0.910644531 0.966073394
vt 0.910644531 0.841490567
vt 0.0952148438 0.874860942
vt 0.0952148438 0.999443829
vt 0.126464844 0.999443829
vt 0.126464844 0.874860942
vt 0.127441406 0.874860942
vt 0.127441406 0.94605118
vt 0.174316406 0.94605118
vt 0.174316406 0.874860942
vt 0.175292969 0.874860942
vt 0.175292969 0.94605118
vt 0.206542969 0.94605118
vt 0.206542969 0.874860942
vt 0.207519531 0.874860942
vt 0.207519531 0.910456061
vt 0.270019531 0.910456061
vt 0.270019531 0.874860942
vt 0.270996094 0.874860942
vt 0.270996094 0.892658532
vt 0.380371094 0.892658532
vt 0.380371094 0.874860942
vt 0.705566406 0.877085626
vt 0.705566406 0.887096763
vt 0.814941406 0.887096763
vt 0.814941406 0.877085626
vt 0.705566406 0.888209105
vt 0.705566406 0.906006694
vt 0.814941406 0.906006694
vt 0.814941406 0.888209105
vt 0.381347656 0.874860942
vt 0.381347656 0.928253591
vt 0.412597656 0.928253591
vt 0.412597656 0.874860942
vt 0.270996094 0.893770874
vt 0.270996094 0.90378201
vt 0.364746094 0.90378201
vt 0.364746094 0.893770874
vt 0.413574219 0.874860942
vt 0.413574219 0.928253591
vt 0.444824219 0.928253591
vt 0.444824219 0.874860942
vt 0.926269531 0.878198028
vt 0.926269531 0.913793087
vt 0.957519531 0.913793087
vt 0.957519531 0.878198028
vt 0.958496094 0.878198028
vt 0.958496094 0.913793087
vt 0.989746094 0.913793087
vt 0.989746094 0.878198028
vt 0.504394531 0.894883215
vt 0.504394531 0.930478334
vt 0.535644531 0.930478334
vt 0.535644531 0.894883215
vt 0.678222656 0.766963303
vt 0.678222656 0.838153481
vt 0.693847656 0.838153481
vt 0.693847656 0.766963303
vt 0.536621094 0.894883215
vt 0.536621094 0.930478334
vt 0.567871094 0.930478334
vt 0.567871094 0.894883215
vt 0.678222656 0.839265823
vt 0.678222656 0.892658532
vt 0.693847656 0.892658532
vt 0.693847656 0.839265823
vt 0.270996094 0.904894352
vt 0.270996094 0.922691882
vt 0.317871094 0.922691882
vt 0.317871094 0.904894352
vt 0.318847656 0.904894352
vt 0.318847656 0.922691882
vt 0.365722656 0.922691882
vt 0.365722656 0.904894352
vt 0.705566406 0.907119036
vt 0.705566406 0.924916565
vt 0.752441406 0.924916565
vt 0.752441406 0.907119036
vt 0.678222656 0.893770874
vt 0.678222656 0.947163522
vt 0.693847656 0.947163522
vt 0.693847656 0.893770874
vt 0.568847656 0.894883215
vt 0.568847656 0.948275864
vt 0.584472656 0.948275864
vt 0.584472656 0.894883215
vt 0.585449219 0.894883215
vt 0.585449219 0.948275864
vt 0.601074219 0.948275864
vt 0.601074219 0.894883215
vt 0.753417969 0.907119036
vt 0.753417969 0.960511684
vt 0.769042969 0.960511684
vt 0.769042969 0.907119036
vt 0.770019531 0.907119036
vt 0.770019531 0.960511684
vt 0.785644531 0.960511684
vt 0.785644531 0.907119036
vt 0.456542969 0.910456061
vt 0.456542969 0.928253591
vt 0.503417969 0.928253591
vt 0.503417969 0.910456061
vt 0.207519531 0.911568403
vt 0.207519531 0.929365993
vt 0.254394531 0.929365993
vt 0.254394531 0.911568403
vt 0.786621094 0.907119036
vt 0.786621094 0.924916565
vt 0.817871094 0.924916565
vt 0.817871094 0.907119036
vt 0.926269531 0.914905429
vt 0.926269531 0.950500548
vt 0.941894531 0.950500548
vt 0.941894531 0.914905429
vt 0.942871094 0.914905429
vt 0.942871094 0.950500548
vt 0.958496094 0.950500548
vt 0.958496094 0.914905429
vt 0.959472656 0.914905429
vt 0.959472656 0.950500548
vt 0.975097656 0.950500548
vt 0.975097656 0.914905429
vt 0.270996094 0.923804224
vt 0.270996094 0.941601753
vt 0.302246094 0.941601753
vt 0.302246094 0.923804224
vt 0.976074219 0.914905429
vt 0.976074219 0.950500548
vt 0.991699219 0.950500548
vt 0.991699219 0.914905429
vt 0.303222656 0.923804224
vt 0.303222656 0.959399343
vt 0.318847656 0.959399343
vt 0.318847656 0.923804224
vt 0.319824219 0.923804224
vt 0.319824219 0.941601753
vt 0.351074219 0.941601753
vt 0.351074219 0.923804224
vt 0.705566406 0.926028907
vt 0.705566406 0.943826497
vt 0.736816406 0.943826497
vt 0.736816406 0.926028907
vt 0.786621094 0.926028907
vt 0.786621094 0.943826497
vt 0.817871094 0.943826497
vt 0.817871094 0.926028907
vt 0.352050781 0.923804224
vt 0.352050781 0.959399343
vt 0.367675781 0.959399343
vt 0.367675781 0.923804224
vt 0.381347656 0.929365993
vt 0.381347656 0.964961052
vt 0.396972656 0.964961052
vt 0.396972656 0.929365993
vt 0.397949219 0.929365993
vt 0.397949219 0.964961052
vt 0.413574219 0.964961052
vt 0.413574219 0.929365993
vt 0.414550781 0.929365993
vt 0.414550781 0.964961052
vt 0.430175781 0.964961052
vt 0.430175781 0.929365993
vt 0.431152344 0.929365993
vt 0.431152344 0.964961052
vt 0.446777344 0.964961052
vt 0.446777344 0.929365993
vt 0.456542969 0.929365993
vt 0.456542969 0.964961052
vt 0.472167969 0.964961052
vt 0.472167969 0.929365993
vt 0.473144531 0.929365993
vt 0.473144531 0.964961052
vt 0.488769531 0.964961052
vt 0.488769531 0.929365993
vt 0.207519531 0.930478334
vt 0.207519531 0.966073394
vt 0.223144531 0.966073394
vt 0.223144531 0.930478334
vt 0.224121094 0.930478334
vt 0.224121094 0.966073394
vt 0.239746094 0.966073394
vt 0.239746094 0.930478334
vt 0.614746094 0.930478334
vt 0.614746094 0.948275864
vt 0.645996094 0.948275864
vt 0.645996094 0.930478334
vt 0.504394531 0.931590676
vt 0.504394531 0.949388206
vt 0.535644531 0.949388206
vt 0.535644531 0.931590676
vt 0.536621094 0.931590676
vt 0.536621094 0.949388206
vt 0.567871094 0.949388206
vt 0.567871094 0.931590676
vt 0.240722656 0.930478334
vt 0.240722656 0.966073394
vt 0.256347656 0.966073394
vt 0.256347656 0.930478334
vt 0.270996094 0.942714155
vt 0.270996094 0.960511684
vt 0.302246094 0.960511684
vt 0.302246094 0.942714155
vt 0.646972656 0.930478334
vt 0.646972656 0.966073394
vt 0.662597656 0.966073394
vt 0.662597656 0.930478334
vt 0.319824219 0.942714155
vt 0.319824219 0.960511684
vt 0.351074219 0.960511684
vt 0.351074219 0.942714155
vt 0.705566406 0.944938838
vt 0.705566406 0.962736368
vt 0.736816406 0.962736368
vt 0.736816406 0.944938838
vt 0.786621094 0.944938838
vt 0.786621094 0.962736368
vt 0.802246094 0.962736368
vt 0.802246094 0.944938838
vt 0.803222656 0.944938838
vt 0.803222656 0.962736368
vt 0.818847656 0.962736368
vt 0.818847656 0.944938838
vt 0.127441406 0.947163522
vt 0.127441406 0.964961052
vt 0.143066406 0.964961052
vt 0.143066406 0.947163522
vt 0.144042969 0.947163522
vt 0.144042969 0.964961052
vt 0.159667969 0.964961052
vt 0.159667969 0.947163522
vt 0.160644531 0.947163522
vt 0.160644531 0.964961052
vt 0.176269531 0.964961052
vt 0.176269531 0.947163522
vt 0.177246094 0.947163522
vt 0.177246094 0.964961052
vt 0.192871094 0.964961052
vt 0.192871094 0.947163522
vt 0.678222656 0.948275864
vt 0.678222656 0.966073394
vt 0.693847656 0.966073394
vt 0.693847656 0.948275864
vt 0.568847656 0.949388206
vt 0.568847656 0.967185736
vt 0.584472656 0.967185736
vt 0.584472656 0.949388206
vt 0.585449219 0.949388206
vt 0.585449219 0.967185736
vt 0.601074219 0.967185736
vt 0.601074219 0.949388206
vt 0.614746094 0.949388206
vt 0.614746094 0.967185736
vt 0.630371094 0.967185736
vt 0.630371094 0.949388206
vt 0.831542969 0.949388206
vt 0.831542969 0.967185736
vt 0.847167969 0.967185736
vt 0.847167969 0.949388206
vt 0.848144531 0.949388206
vt 0.848144531 0.967185736
vt 0.863769531 0.967185736
vt 0.863769531 0.949388206
vt 0.504394531 0.950500548
vt 0.504394531 0.968298078
vt 0.520019531 0.968298078
vt 0.520019531 0.950500548
vt 0.520996094 0.950500548
vt 0.520996094 0.968298078
vt 0.536621094 0.968298078
vt 0.536621094 0.950500548
g kebu_2-mesh_0
f 3/3/3 2/2/2 1/1/1
f 1/1/1 4/4/4 3/3/3
f 7/7/7 6/6/6 5/5/5
f 5/5/5 8/8/8 7/7/7
f 11/11/11 10/10/10 9/9/9
f 9/9/9 12/12/12 11/11/11
f 15/15/15 14/14/14 13/13/13
f 13/13/13 16/16/16 15/15/15
f 19/19/19 18/18/18 17/17/17
f 17/17/17 20/20/20 19/19/19
f 23/23/23 22/22/22 21/21/21
f 21/21/21 24/24/24 23/23/23
f 27/27/27 26/26/26 25/25/25
f 25/25/25 28/28/28 27/27/27
f 31/31/31 30/30/30 29/29/29
f 29/29/29 32/32/32 31/31/31
f 35/35/35 34/34/34 33/33/33
f 33/33/33 36/36/36 35/35/35
f 39/39/39 38/38/38 37/37/37
f 37/37/37 40/40/40 39/39/39
f 43/43/43 42/42/42 41/41/41
f 41/41/41 44/44/44 43/43/43
f 47/47/47 46/46/46 45/45/45
f 45/45/45 48/48/48 47/47/47
f 51/51/51 50/50/50 49/49/49
f 49/49/49 52/52/52 51/51/51
f 55/55/55 54/54/54 53/53/53
f 53/53/53 56/56/56 55/55/55
f 59/59/59 58/58/58 57/57/57
f 57/57/57 60/60/60 59/59/59
f 63/63/63 62/62/62 61/61/61
f 61/61/61 64/64/64 63/63/63
f 67/67/67 66/66/66 65/65/65
f 65/65/65 68/68/68 67/67/67
f 71/71/71 70/70/70 69/69/69
f 69/69/69 72/72/72 71/71/71
f 75/75/75 74/74/74 73/73/73
f 73/73/73 76/76/76 75/75/75
f 79/79/79 78/78/78 77/77/77
f 77/77/77 80/80/80 79/79/79
f 83/83/83 82/82/82 81/81/81
f 81/81/81 84/84/84 83/83/83
f 87/87/87 86/86/86 85/85/85
f 85/85/85 88/88/88 87/87/87
f 91/91/91 90/90/90 89/89/89
f 89/89/89 92/92/92 91/91/91
f 95/95/95 94/94/94 93/93/93
f 93/93/93 96/96/96 95/95/95
f 99/99/99 98/98/98 97/97/97
f 97/97/97 100/100/100 99/99/99
f 103/103/103 102/102/102 101/101/101
f 101/101/101 104/104/104 103/103/103
f 107/107/107 106/106/106 105/105/105
f 105/105/105 108/108/108 107/107/107
f 111/111/111 110/110/110 109/109/109
f 109/109/109 112/112/112 111/111/111
f 115/115/115 114/114/114 113/113/113
f 113/113/113 116/116/116 115/115/115
f 119/119/119 118/118/118 117/117/117
f 117/117/117 120/120/120 119/119/119
f 123/123/123 122/122/122 121/121/121
f 121/121/121 124/124/124 123/123/123
f 127/127/127 126/126/126 125/125/125
f 125/125/125 128/128/128 127/127/127
f 131/131/131 130/130/130 129/129/129
f 129/129/129 132/132/132 131/131/131
f 135/135/135 134/134/134 133/133/133
f 133/133/133 136/136/136 135/135/135
f 139/139/139 138/138/138 137/137/137
f 137/137/137 140/140/140 139/139/139
f 143/143/143 142/142/142 141/141/141
f 141/141/141 144/144/144 143/143/143
f 147/147/147 146/146/146 145/145/145
f 145/145/145 148/148/148 147/147/147
f 151/151/151 150/150/150 149/149/149
f 149/149/149 152/152/152 151/151/151
f 155/155/155 154/154/154 153/153/153
f 153/153/153 156/156/156 155/155/155
f 159/159/159 158/158/158 157/157/157
f 157/157/157 160/160/160 159/159/159
f 163/163/163 162/162/162 161/161/161
f 161/161/161 164/164/164 163/163/163
f 167/167/167 166/166/166 165/165/165
f 165/165/165 168/168/168 167/167/167
f 171/171/171 170/170/170 169/169/169
f 169/169/169 172/172/172 171/171/171
f 175/175/175 174/174/174 173/173/173
f 173/173/173 176/176/176 175/175/175
f 179/179/179 178/178/178 177/177/177
f 177/177/177 180/180/180 179/179/179
f 183/183/183 182/182/182 181/181/181
f 181/181/181 184/184/184 183/183/183
f 187/187/187 186/186/186 185/185/185
f 185/185/185 188/188/188 187/187/187
f 191/191/191 190/190/190 189/189/189
f 189/189/189 192/192/192 191/191/191
f 195/195/195 194/194/194 193/193/193
f 193/193/193 196/196/196 195/195/195
f 199/199/199 198/198/198 197/197/197
f 197/197/197 200/200/200 199/199/199
f 203/203/203 202/202/202 201/201/201
f 201/201/201 204/204/204 203/203/203
f 207/207/207 206/206/206 205/205/205
f 205/205/205 208/208/208 207/207/207
f 211/211/211 210/210/210 209/209/209
f 209/209/209 212/212/212 211/211/211
f 215/215/215 214/214/214 213/213/213
f 213/213/213 216/216/216 215/215/215
f 219/219/219 218/218/218 217/217/217
f 217/217/217 220/220/220 219/219/219
f 223/223/223 222/222/222 221/221/221
f 221/221/221 224/224/224 223/223/223
f 227/227/227 226/226/226 225/225/225
f 225/225/225 228/228/228 227/227/227
f 231/231/231 230/230/230 229/229/229
f 229/229/229 232/232/232 231/231/231
f 235/235/235 234/234/234 233/233/233
f 233/233/233 236/236/236 235/235/235
f 239/239/239 238/238/238 237/237/237
f 237/237/237 240/240/240 239/239/239
f 243/243/243 242/242/242 241/241/241
f 241/241/241 244/244/244 243/243/243
f 247/247/247 246/246/246 245/245/245
f 245/245/245 248/248/248 247/247/247
f 251/251/251 250/250/250 249/249/249
f 249/249/249 252/252/252 251/251/251
f 255/255/255 254/254/254 253/253/253
f 253/253/253 256/256/256 255/255/255
f 259/259/259 258/258/258 257/257/257
f 257/257/257 260/260/260 259/259/259
f 263/263/263 262/262/262 261/261/261
f 261/261/261 264/264/264 263/263/263
f 267/267/267 266/266/266 265/265/265
f 265/265/265 268/268/268 267/267/267
f 271/271/271 270/270/270 269/269/269
f 269/269/269 272/272/272 271/271/271
f 275/275/275 274/274/274 273/273/273
f 273/273/273 276/276/276 275/275/275
f 279/279/279 278/278/278 277/277/277
f 277/277/277 280/280/280 279/279/279
f 283/283/283 282/282/282 281/281/281
f 281/281/281 284/284/284 283/283/283
f 287/287/287 286/286/286 285/285/285
f 285/285/285 288/288/288 287/287/287
f 291/291/291 290/290/290 289/289/289
f 289/289/289 292/292/292 291/291/291
f 295/295/295 294/294/294 293/293/293
f 293/293/293 296/296/296 295/295/295
f 299/299/299 298/298/298 297/297/297
f 297/297/297 300/300/300 299/299/299
f 303/303/303 302/302/302 301/301/301
f 301/301/301 304/304/304 303/303/303
f 307/307/307 306/306/306 305/305/305
f 305/305/305 308/308/308 307/307/307
f 311/311/311 310/310/310 309/309/309
f 309/309/309 312/312/312 311/311/311
f 315/315/315 314/314/314 313/313/313
f 313/313/313 316/316/316 315/315/315
f 319/319/319 318/318/318 317/317/317
f 317/317/317 320/320/320 319/319/319
f 323/323/323 322/322/322 321/321/321
f 321/321/321 324/324/324 323/323/323
f 327/327/327 326/326/326 325/325/325
f 325/325/325 328/328/328 327/327/327
f 331/331/331 330/330/330 329/329/329
f 329/329/329 332/332/332 331/331/331
f 335/335/335 334/334/334 333/333/333
f 333/333/333 336/336/336 335/335/335
f 339/339/339 338/338/338 337/337/337
f 337/337/337 340/340/340 339/339/339
f 343/343/343 342/342/342 341/341/341
f 341/341/341 344/344/344 343/343/343
