g wenyue_2-mesh
v -64 639 0
v -64 959 0
v -384 959 0
v -384 639 0
v -64 351 0
v -64 639 0
v -384 639 0
v -384 351 0
v -160 63 0
v -160 255 0
v -256 255 0
v -256 63 0
v -288 255 0
v -288 351 0
v -448 351 0
v -448 255 0
v -128 255 0
v -128 351 0
v -288 351 0
v -288 255 0
v -384 511 0
v -384 671 0
v -480 671 0
v -480 511 0
v -384 351 0
v -384 511 0
v -480 511 0
v -480 351 0
v -480 511 0
v -480 639 0
v -542 639 0
v -542 511 0
v -416 95 0
v -416 223 0
v -480 223 0
v -480 95 0
v -192 0 0
v -192 63 0
v -320 63 0
v -320 0 0
v -352 127 0
v -352 255 0
v -416 255 0
v -416 127 0
v -352 0 0
v -352 127 0
v -416 127 0
v -416 0 0
v -32 575 0
v -32 799 0
v -64 799 0
v -64 575 0
v -448 223 0
v -448 319 0
v -512 319 0
v -512 223 0
v -160 959 0
v -160 1023 0
v -256 1023 0
v -256 959 0
v -256 959 0
v -256 1023 0
v -352 1023 0
v -352 959 0
v -32 383 0
v -32 575 0
v -64 575 0
v -64 383 0
v -384 831 0
v -384 959 0
v -416 959 0
v -416 831 0
v -384 735 0
v -384 831 0
v -416 831 0
v -416 735 0
v -320 191 0
v -320 255 0
v -352 255 0
v -352 191 0
v -416 31 0
v -416 95 0
v -448 95 0
v -448 31 0
v -96 959 0
v -96 991 0
v -160 991 0
v -160 959 0
v -256 95 0
v -256 159 0
v -288 159 0
v -288 95 0
v -128 191 0
v -128 255 0
v -160 255 0
v -160 191 0
v -0 703 0
v -0 767 0
v -32 767 0
v -32 703 0
v -480 447 0
v -480 511 0
v -512 511 0
v -512 447 0
v -0 639 0
v -0 703 0
v -32 703 0
v -32 639 0
v -416 223 0
v -416 255 0
v -448 255 0
v -448 223 0
v -512 287 0
v -512 319 0
v -542 319 0
v -542 287 0
v -288 223 0
v -288 255 0
v -320 255 0
v -320 223 0
v -288 63 0
v -288 95 0
v -320 95 0
v -320 63 0
v -352 959 0
v -352 991 0
v -384 991 0
v -384 959 0
v -128 159 0
v -128 191 0
v -160 191 0
v -160 159 0
v -480 415 0
v -480 447 0
v -512 447 0
v -512 415 0
v -256 63 0
v -256 95 0
v -288 95 0
v -288 63 0
v -320 159 0
v -320 191 0
v -352 191 0
v -352 159 0
vt 0.0009765625 0.00193798542
vt 0.0009765625 0.622093022
vt 0.313476562 0.622093022
vt 0.313476562 0.00193798542
vt 0.315429688 0.00193798542
vt 0.315429688 0.560077548
vt 0.627929688 0.560077548
vt 0.627929688 0.00193798542
vt 0.629882812 0.00193798542
vt 0.629882812 0.374031007
vt 0.723632812 0.374031007
vt 0.723632812 0.00193798542
vt 0.725585938 0.00193798542
vt 0.725585938 0.187984467
vt 0.881835938 0.187984467
vt 0.881835938 0.00193798542
vt 0.725585938 0.191860437
vt 0.725585938 0.377906978
vt 0.881835938 0.377906978
vt 0.881835938 0.191860437
vt 0.883789062 0.00193798542
vt 0.883789062 0.312015533
vt 0.977539062 0.312015533
vt 0.977539062 0.00193798542
vt 0.883789062 0.315891445
vt 0.883789062 0.625968993
vt 0.977539062 0.625968993
vt 0.977539062 0.315891445
vt 0.629882812 0.377906978
vt 0.629882812 0.625968993
vt 0.69140625 0.625968993
vt 0.69140625 0.377906978
vt 0.725585938 0.381782949
vt 0.725585938 0.629844964
vt 0.788085938 0.629844964
vt 0.788085938 0.381782949
vt 0.315429688 0.563953519
vt 0.315429688 0.687984467
vt 0.440429688 0.687984467
vt 0.440429688 0.563953519
vt 0.790039062 0.381782949
vt 0.790039062 0.629844964
vt 0.852539062 0.629844964
vt 0.852539062 0.381782949
vt 0.442382812 0.563953519
vt 0.442382812 0.812015533
vt 0.504882812 0.812015533
vt 0.504882812 0.563953519
vt 0.506835938 0.563953519
vt 0.506835938 0.998062015
vt 0.538085938 0.998062015
vt 0.538085938 0.563953519
vt 0.540039062 0.563953519
vt 0.540039062 0.75
vt 0.602539062 0.75
vt 0.602539062 0.563953519
vt 0.0009765625 0.625968993
vt 0.0009765625 0.75
vt 0.0947265625 0.75
vt 0.0947265625 0.625968993
vt 0.0966796875 0.625968993
vt 0.0966796875 0.75
vt 0.190429688 0.75
vt 0.190429688 0.625968993
vt 0.192382812 0.625968993
vt 0.192382812 0.998062015
vt 0.223632812 0.998062015
vt 0.223632812 0.625968993
vt 0.225585938 0.625968993
vt 0.225585938 0.874031007
vt 0.256835938 0.874031007
vt 0.256835938 0.625968993
vt 0.258789062 0.625968993
vt 0.258789062 0.812015533
vt 0.290039062 0.812015533
vt 0.290039062 0.625968993
vt 0.629882812 0.629844964
vt 0.629882812 0.753875971
vt 0.661132812 0.753875971
vt 0.661132812 0.629844964
vt 0.663085938 0.629844964
vt 0.663085938 0.753875971
vt 0.694335938 0.753875971
vt 0.694335938 0.629844964
vt 0.883789062 0.629844964
vt 0.883789062 0.691860437
vt 0.946289062 0.691860437
vt 0.946289062 0.629844964
vt 0.948242188 0.629844964
vt 0.948242188 0.753875971
vt 0.979492188 0.753875971
vt 0.979492188 0.629844964
vt 0.725585938 0.633720934
vt 0.725585938 0.757751942
vt 0.756835938 0.757751942
vt 0.756835938 0.633720934
vt 0.758789062 0.633720934
vt 0.758789062 0.757751942
vt 0.790039062 0.757751942
vt 0.790039062 0.633720934
vt 0.791992188 0.633720934
vt 0.791992188 0.757751942
vt 0.823242188 0.757751942
vt 0.823242188 0.633720934
vt 0.825195312 0.633720934
vt 0.825195312 0.757751942
vt 0.856445312 0.757751942
vt 0.856445312 0.633720934
vt 0.315429688 0.691860437
vt 0.315429688 0.753875971
vt 0.346679688 0.753875971
vt 0.346679688 0.691860437
vt 0.348632812 0.691860437
vt 0.348632812 0.753875971
vt 0.37890625 0.753875971
vt 0.37890625 0.691860437
vt 0.380859375 0.691860437
vt 0.380859375 0.753875971
vt 0.412109375 0.753875971
vt 0.412109375 0.691860437
vt 0.883789062 0.695736408
vt 0.883789062 0.757751942
vt 0.915039062 0.757751942
vt 0.915039062 0.695736408
vt 0.0009765625 0.753875971
vt 0.0009765625 0.815891504
vt 0.0322265625 0.815891504
vt 0.0322265625 0.753875971
vt 0.0341796875 0.753875971
vt 0.0341796875 0.815891504
vt 0.0654296875 0.815891504
vt 0.0654296875 0.753875971
vt 0.0673828125 0.753875971
vt 0.0673828125 0.815891504
vt 0.0986328125 0.815891504
vt 0.0986328125 0.753875971
vt 0.100585938 0.753875971
vt 0.100585938 0.815891504
vt 0.131835938 0.815891504
vt 0.131835938 0.753875971
vt 0.133789062 0.753875971
vt 0.133789062 0.815891504
vt 0.165039062 0.815891504
vt 0.165039062 0.753875971
g wenyue_2-mesh_0
f 3/3/3 2/2/2 1/1/1
f 1/1/1 4/4/4 3/3/3
f 7/7/7 6/6/6 5/5/5
f 5/5/5 8/8/8 7/7/7
f 11/11/11 10/10/10 9/9/9
f 9/9/9 12/12/12 11/11/11
f 15/15/15 14/14/14 13/13/13
f 13/13/13 16/16/16 15/15/15
f 19/19/19 18/18/18 17/17/17
f 17/17/17 20/20/20 19/19/19
f 23/23/23 22/22/22 21/21/21
f 21/21/21 24/24/24 23/23/23
f 27/27/27 26/26/26 25/25/25
f 25/25/25 28/28/28 27/27/27
f 31/31/31 30/30/30 29/29/29
f 29/29/29 32/32/32 31/31/31
f 35/35/35 34/34/34 33/33/33
f 33/33/33 36/36/36 35/35/35
f 39/39/39 38/38/38 37/37/37
f 37/37/37 40/40/40 39/39/39
f 43/43/43 42/42/42 41/41/41
f 41/41/41 44/44/44 43/43/43
f 47/47/47 46/46/46 45/45/45
f 45/45/45 48/48/48 47/47/47
f 51/51/51 50/50/50 49/49/49
f 49/49/49 52/52/52 51/51/51
f 55/55/55 54/54/54 53/53/53
f 53/53/53 56/56/56 55/55/55
f 59/59/59 58/58/58 57/57/57
f 57/57/57 60/60/60 59/59/59
f 63/63/63 62/62/62 61/61/61
f 61/61/61 64/64/64 63/63/63
f 67/67/67 66/66/66 65/65/65
f 65/65/65 68/68/68 67/67/67
f 71/71/71 70/70/70 69/69/69
f 69/69/69 72/72/72 71/71/71
f 75/75/75 74/74/74 73/73/73
f 73/73/73 76/76/76 75/75/75
f 79/79/79 78/78/78 77/77/77
f 77/77/77 80/80/80 79/79/79
f 83/83/83 82/82/82 81/81/81
f 81/81/81 84/84/84 83/83/83
f 87/87/87 86/86/86 85/85/85
f 85/85/85 88/88/88 87/87/87
f 91/91/91 90/90/90 89/89/89
f 89/89/89 92/92/92 91/91/91
f 95/95/95 94/94/94 93/93/93
f 93/93/93 96/96/96 95/95/95
f 99/99/99 98/98/98 97/97/97
f 97/97/97 100/100/100 99/99/99
f 103/103/103 102/102/102 101/101/101
f 101/101/101 104/104/104 103/103/103
f 107/107/107 106/106/106 105/105/105
f 105/105/105 108/108/108 107/107/107
f 111/111/111 110/110/110 109/109/109
f 109/109/109 112/112/112 111/111/111
f 115/115/115 114/114/114 113/113/113
f 113/113/113 116/116/116 115/115/115
f 119/119/119 118/118/118 117/117/117
f 117/117/117 120/120/120 119/119/119
f 123/123/123 122/122/122 121/121/121
f 121/121/121 124/124/124 123/123/123
f 127/127/127 126/126/126 125/125/125
f 125/125/125 128/128/128 127/127/127
f 131/131/131 130/130/130 129/129/129
f 129/129/129 132/132/132 131/131/131
f 135/135/135 134/134/134 133/133/133
f 133/133/133 136/136/136 135/135/135
f 139/139/139 138/138/138 137/137/137
f 137/137/137 140/140/140 139/139/139
f 143/143/143 142/142/142 141/141/141
f 141/141/141 144/144/144 143/143/143
