g yanzhan_2-mesh
v -224 407 0
v -224 791 0
v -832 791 0
v -832 407 0
v -224 55 0
v -224 407 0
v -832 407 0
v -832 55 0
v -320 791 0
v -320 1143 0
v -608 1143 0
v -608 791 0
v -832 55 0
v -832 439 0
v -1056 439 0
v -1056 55 0
v -64 791 0
v -64 951 0
v -320 951 0
v -320 791 0
v -832 1239 0
v -832 1367 0
v -1056 1367 0
v -1056 1239 0
v -768 1143 0
v -768 1239 0
v -1024 1239 0
v -1024 1143 0
v -512 1143 0
v -512 1239 0
v -768 1239 0
v -768 1143 0
v -32 279 0
v -32 503 0
v -128 503 0
v -128 279 0
v -128 471 0
v -128 631 0
v -224 631 0
v -224 471 0
v -1056 87 0
v -1056 183 0
v -1216 183 0
v -1216 87 0
v -608 1079 0
v -608 1143 0
v -800 1143 0
v -800 1079 0
v -800 1079 0
v -800 1143 0
v -992 1143 0
v -992 1079 0
v -160 55 0
v -160 215 0
v -224 215 0
v -224 55 0
v -864 919 0
v -864 1079 0
v -928 1079 0
v -928 919 0
v -864 759 0
v -864 919 0
v -928 919 0
v -928 759 0
v -160 215 0
v -160 375 0
v -224 375 0
v -224 215 0
v -1056 375 0
v -1056 471 0
v -1152 471 0
v -1152 375 0
v -384 1143 0
v -384 1207 0
v -512 1207 0
v -512 1143 0
v -1056 183 0
v -1056 279 0
v -1120 279 0
v -1120 183 0
v -832 503 0
v -832 599 0
v -896 599 0
v -896 503 0
v -608 983 0
v -608 1079 0
v -672 1079 0
v -672 983 0
v -64 695 0
v -64 791 0
v -128 791 0
v -128 695 0
v -832 887 0
v -832 1079 0
v -864 1079 0
v -864 887 0
v -832 727 0
v -832 887 0
v -864 887 0
v -864 727 0
v -1024 23 0
v -1024 55 0
v -1152 55 0
v -1152 23 0
v -64 503 0
v -64 567 0
v -128 567 0
v -128 503 0
v -256 951 0
v -256 1015 0
v -320 1015 0
v -320 951 0
v -832 439 0
v -832 503 0
v -896 503 0
v -896 439 0
v -64 631 0
v -64 695 0
v -128 695 0
v -128 631 0
v -608 919 0
v -608 983 0
v -672 983 0
v -672 919 0
v -896 23 0
v -896 55 0
v -1024 55 0
v -1024 23 0
v -128 183 0
v -128 279 0
v -160 279 0
v -160 183 0
v -128 87 0
v -128 183 0
v -160 183 0
v -160 87 0
v -864 1367 0
v -864 1399 0
v -960 1399 0
v -960 1367 0
v -800 983 0
v -800 1047 0
v -832 1047 0
v -832 983 0
v -1024 0 0
v -1024 23 0
v -1088 23 0
v -1088 0 0
v -128 407 0
v -128 471 0
v -160 471 0
v -160 407 0
v -352 23 0
v -352 55 0
v -416 55 0
v -416 23 0
v -1088 0 0
v -1088 23 0
v -1152 23 0
v -1152 0 0
v -704 1015 0
v -704 1079 0
v -736 1079 0
v -736 1015 0
v -448 23 0
v -448 55 0
v -512 55 0
v -512 23 0
v -832 599 0
v -832 663 0
v -864 663 0
v -864 599 0
v -1152 407 0
v -1152 471 0
v -1184 471 0
v -1184 407 0
v -1056 279 0
v -1056 343 0
v -1088 343 0
v -1088 279 0
v -160 663 0
v -160 727 0
v -192 727 0
v -192 663 0
v -1024 1175 0
v -1024 1239 0
v -1056 1239 0
v -1056 1175 0
v -736 1015 0
v -736 1079 0
v -768 1079 0
v -768 1015 0
v -960 1015 0
v -960 1079 0
v -992 1079 0
v -992 1015 0
v -928 1015 0
v -928 1079 0
v -960 1079 0
v -960 1015 0
v -672 951 0
v -672 1015 0
v -704 1015 0
v -704 951 0
v -928 855 0
v -928 919 0
v -960 919 0
v -960 855 0
v -928 951 0
v -928 1015 0
v -960 1015 0
v -960 951 0
v -704 1239 0
v -704 1271 0
v -768 1271 0
v -768 1239 0
v -960 1367 0
v -960 1399 0
v -1024 1399 0
v -1024 1367 0
v -672 1015 0
v -672 1079 0
v -704 1079 0
v -704 1015 0
v -768 1239 0
v -768 1271 0
v -832 1271 0
v -832 1239 0
v -0 343 0
v -0 407 0
v -32 407 0
v -32 343 0
v -128 727 0
v -128 791 0
v -160 791 0
v -160 727 0
v -288 23 0
v -288 55 0
v -352 55 0
v -352 23 0
v -0 279 0
v -0 343 0
v -32 343 0
v -32 279 0
v -928 791 0
v -928 855 0
v -960 855 0
v -960 791 0
v -128 663 0
v -128 727 0
v -160 727 0
v -160 663 0
v -160 759 0
v -160 791 0
v -192 791 0
v -192 759 0
v -608 791 0
v -608 823 0
v -640 823 0
v -640 791 0
v -192 631 0
v -192 663 0
v -224 663 0
v -224 631 0
v -96 567 0
v -96 599 0
v -128 599 0
v -128 567 0
v -192 375 0
v -192 407 0
v -224 407 0
v -224 375 0
v -1120 183 0
v -1120 215 0
v -1152 215 0
v -1152 183 0
v -1056 55 0
v -1056 87 0
v -1088 87 0
v -1088 55 0
v -1024 439 0
v -1024 471 0
v -1056 471 0
v -1056 439 0
v -800 951 0
v -800 983 0
v -832 983 0
v -832 951 0
v -704 983 0
v -704 1015 0
v -736 1015 0
v -736 983 0
v -128 375 0
v -128 407 0
v -160 407 0
v -160 375 0
v -512 23 0
v -512 55 0
v -544 55 0
v -544 23 0
v -768 1047 0
v -768 1079 0
v -800 1079 0
v -800 1047 0
v -960 919 0
v -960 951 0
v -992 951 0
v -992 919 0
v -608 1239 0
v -608 1271 0
v -640 1271 0
v -640 1239 0
v -1056 1239 0
v -1056 1271 0
v -1088 1271 0
v -1088 1239 0
vt 0.00048828125 0.00172412395
vt 0.00048828125 0.663793087
vt 0.297363281 0.663793087
vt 0.297363281 0.00172412395
vt 0.298339844 0.00172412395
vt 0.298339844 0.608620703
vt 0.595214844 0.608620703
vt 0.595214844 0.00172412395
vt 0.596191406 0.00172412395
vt 0.596191406 0.608620703
vt 0.736816406 0.608620703
vt 0.736816406 0.00172412395
vt 0.737792969 0.00172412395
vt 0.737792969 0.663793087
vt 0.847167969 0.663793087
vt 0.847167969 0.00172412395
vt 0.848144531 0.00172412395
vt 0.848144531 0.277586222
vt 0.973144531 0.277586222
vt 0.973144531 0.00172412395
vt 0.848144531 0.28103447
vt 0.848144531 0.501724124
vt 0.957519531 0.501724124
vt 0.957519531 0.28103447
vt 0.848144531 0.505172372
vt 0.848144531 0.670689642
vt 0.973144531 0.670689642
vt 0.973144531 0.505172372
vt 0.298339844 0.612068951
vt 0.298339844 0.777586222
vt 0.423339844 0.777586222
vt 0.423339844 0.612068951
vt 0.424316406 0.612068951
vt 0.424316406 0.998275876
vt 0.471191406 0.998275876
vt 0.471191406 0.612068951
vt 0.472167969 0.612068951
vt 0.472167969 0.887931049
vt 0.519042969 0.887931049
vt 0.519042969 0.612068951
vt 0.520019531 0.612068951
vt 0.520019531 0.777586222
vt 0.598144531 0.777586222
vt 0.598144531 0.612068951
vt 0.599121094 0.612068951
vt 0.599121094 0.722413778
vt 0.692871094 0.722413778
vt 0.692871094 0.612068951
vt 0.00048828125 0.667241335
vt 0.00048828125 0.777586222
vt 0.0942382812 0.777586222
vt 0.0942382812 0.667241335
vt 0.693847656 0.612068951
vt 0.693847656 0.887931049
vt 0.725097656 0.887931049
vt 0.725097656 0.612068951
vt 0.0952148438 0.667241335
vt 0.0952148438 0.943103433
vt 0.126464844 0.943103433
vt 0.126464844 0.667241335
vt 0.127441406 0.667241335
vt 0.127441406 0.943103433
vt 0.158691406 0.943103433
vt 0.158691406 0.667241335
vt 0.159667969 0.667241335
vt 0.159667969 0.943103433
vt 0.190917969 0.943103433
vt 0.190917969 0.667241335
vt 0.191894531 0.667241335
vt 0.191894531 0.832758605
vt 0.238769531 0.832758605
vt 0.238769531 0.667241335
vt 0.737792969 0.667241335
vt 0.737792969 0.777586222
vt 0.800292969 0.777586222
vt 0.800292969 0.667241335
vt 0.239746094 0.667241335
vt 0.239746094 0.832758605
vt 0.270996094 0.832758605
vt 0.270996094 0.667241335
vt 0.801269531 0.667241335
vt 0.801269531 0.832758605
vt 0.832519531 0.832758605
vt 0.832519531 0.667241335
vt 0.848144531 0.67413795
vt 0.848144531 0.839655161
vt 0.879394531 0.839655161
vt 0.879394531 0.67413795
vt 0.880371094 0.67413795
vt 0.880371094 0.839655161
vt 0.911621094 0.839655161
vt 0.911621094 0.67413795
vt 0.974121094 0.00172412395
vt 0.974121094 0.332758605
vt 0.989746094 0.332758605
vt 0.989746094 0.00172412395
vt 0.974121094 0.336206913
vt 0.974121094 0.612068951
vt 0.989746094 0.612068951
vt 0.989746094 0.336206913
vt 0.912597656 0.67413795
vt 0.912597656 0.729310334
vt 0.975097656 0.729310334
vt 0.975097656 0.67413795
vt 0.599121094 0.725862026
vt 0.599121094 0.836206913
vt 0.630371094 0.836206913
vt 0.630371094 0.725862026
vt 0.631347656 0.725862026
vt 0.631347656 0.836206913
vt 0.662597656 0.836206913
vt 0.662597656 0.725862026
vt 0.912597656 0.732758641
vt 0.912597656 0.843103468
vt 0.943847656 0.843103468
vt 0.943847656 0.732758641
vt 0.944824219 0.732758641
vt 0.944824219 0.843103468
vt 0.976074219 0.843103468
vt 0.976074219 0.732758641
vt 0.00048828125 0.78103447
vt 0.00048828125 0.891379297
vt 0.0317382812 0.891379297
vt 0.0317382812 0.78103447
vt 0.298339844 0.78103447
vt 0.298339844 0.836206913
vt 0.360839844 0.836206913
vt 0.360839844 0.78103447
vt 0.977050781 0.615517259
vt 0.977050781 0.78103447
vt 0.992675781 0.78103447
vt 0.992675781 0.615517259
vt 0.271972656 0.667241335
vt 0.271972656 0.832758605
vt 0.287597656 0.832758605
vt 0.287597656 0.667241335
vt 0.0327148438 0.78103447
vt 0.0327148438 0.836206913
vt 0.0795898438 0.836206913
vt 0.0795898438 0.78103447
vt 0.663574219 0.725862026
vt 0.663574219 0.836206913
vt 0.679199219 0.836206913
vt 0.679199219 0.725862026
vt 0.361816406 0.78103447
vt 0.361816406 0.822413802
vt 0.393066406 0.822413802
vt 0.393066406 0.78103447
vt 0.394042969 0.78103447
vt 0.394042969 0.891379297
vt 0.409667969 0.891379297
vt 0.409667969 0.78103447
vt 0.520019531 0.78103447
vt 0.520019531 0.836206913
vt 0.551269531 0.836206913
vt 0.551269531 0.78103447
vt 0.552246094 0.78103447
vt 0.552246094 0.822413802
vt 0.583496094 0.822413802
vt 0.583496094 0.78103447
vt 0.737792969 0.78103447
vt 0.737792969 0.891379297
vt 0.753417969 0.891379297
vt 0.753417969 0.78103447
vt 0.754394531 0.78103447
vt 0.754394531 0.836206913
vt 0.785644531 0.836206913
vt 0.785644531 0.78103447
vt 0.977050781 0.784482777
vt 0.977050781 0.894827604
vt 0.992675781 0.894827604
vt 0.992675781 0.784482777
vt 0.361816406 0.82586205
vt 0.361816406 0.936206877
vt 0.377441406 0.936206877
vt 0.377441406 0.82586205
vt 0.552246094 0.82586205
vt 0.552246094 0.936206877
vt 0.567871094 0.936206877
vt 0.567871094 0.82586205
vt 0.568847656 0.82586205
vt 0.568847656 0.936206877
vt 0.584472656 0.936206877
vt 0.584472656 0.82586205
vt 0.191894531 0.836206913
vt 0.191894531 0.94655174
vt 0.207519531 0.94655174
vt 0.207519531 0.836206913
vt 0.208496094 0.836206913
vt 0.208496094 0.94655174
vt 0.224121094 0.94655174
vt 0.224121094 0.836206913
vt 0.225097656 0.836206913
vt 0.225097656 0.94655174
vt 0.240722656 0.94655174
vt 0.240722656 0.836206913
vt 0.241699219 0.836206913
vt 0.241699219 0.94655174
vt 0.257324219 0.94655174
vt 0.257324219 0.836206913
vt 0.258300781 0.836206913
vt 0.258300781 0.94655174
vt 0.273925781 0.94655174
vt 0.273925781 0.836206913
vt 0.274902344 0.836206913
vt 0.274902344 0.94655174
vt 0.290527344 0.94655174
vt 0.290527344 0.836206913
vt 0.801269531 0.836206913
vt 0.801269531 0.94655174
vt 0.816894531 0.94655174
vt 0.816894531 0.836206913
vt 0.0327148438 0.839655161
vt 0.0327148438 0.894827604
vt 0.0639648438 0.894827604
vt 0.0639648438 0.839655161
vt 0.298339844 0.839655161
vt 0.298339844 0.894827604
vt 0.329589844 0.894827604
vt 0.329589844 0.839655161
vt 0.817871094 0.836206913
vt 0.817871094 0.94655174
vt 0.833496094 0.94655174
vt 0.833496094 0.836206913
vt 0.520019531 0.839655161
vt 0.520019531 0.894827604
vt 0.551269531 0.894827604
vt 0.551269531 0.839655161
vt 0.0649414062 0.839655161
vt 0.0649414062 0.949999988
vt 0.0805664062 0.949999988
vt 0.0805664062 0.839655161
vt 0.330566406 0.839655161
vt 0.330566406 0.949999988
vt 0.346191406 0.949999988
vt 0.346191406 0.839655161
vt 0.599121094 0.839655161
vt 0.599121094 0.894827604
vt 0.630371094 0.894827604
vt 0.630371094 0.839655161
vt 0.631347656 0.839655161
vt 0.631347656 0.949999988
vt 0.646972656 0.949999988
vt 0.646972656 0.839655161
vt 0.647949219 0.839655161
vt 0.647949219 0.949999988
vt 0.663574219 0.949999988
vt 0.663574219 0.839655161
vt 0.664550781 0.839655161
vt 0.664550781 0.949999988
vt 0.680175781 0.949999988
vt 0.680175781 0.839655161
vt 0.754394531 0.839655161
vt 0.754394531 0.894827604
vt 0.770019531 0.894827604
vt 0.770019531 0.839655161
vt 0.770996094 0.839655161
vt 0.770996094 0.894827604
vt 0.786621094 0.894827604
vt 0.786621094 0.839655161
vt 0.848144531 0.843103468
vt 0.848144531 0.898275852
vt 0.863769531 0.898275852
vt 0.863769531 0.843103468
vt 0.864746094 0.843103468
vt 0.864746094 0.898275852
vt 0.880371094 0.898275852
vt 0.880371094 0.843103468
vt 0.881347656 0.843103468
vt 0.881347656 0.898275852
vt 0.896972656 0.898275852
vt 0.896972656 0.843103468
vt 0.912597656 0.846551716
vt 0.912597656 0.90172416
vt 0.928222656 0.90172416
vt 0.928222656 0.846551716
vt 0.929199219 0.846551716
vt 0.929199219 0.90172416
vt 0.944824219 0.90172416
vt 0.944824219 0.846551716
vt 0.945800781 0.846551716
vt 0.945800781 0.90172416
vt 0.961425781 0.90172416
vt 0.961425781 0.846551716
vt 0.472167969 0.891379297
vt 0.472167969 0.94655174
vt 0.487792969 0.94655174
vt 0.487792969 0.891379297
vt 0.488769531 0.891379297
vt 0.488769531 0.94655174
vt 0.504394531 0.94655174
vt 0.504394531 0.891379297
vt 0.693847656 0.891379297
vt 0.693847656 0.94655174
vt 0.709472656 0.94655174
vt 0.709472656 0.891379297
vt 0.710449219 0.891379297
vt 0.710449219 0.94655174
vt 0.726074219 0.94655174
vt 0.726074219 0.891379297
vt 0.00048828125 0.894827604
vt 0.00048828125 0.949999988
vt 0.0161132812 0.949999988
vt 0.0161132812 0.894827604
vt 0.394042969 0.894827604
vt 0.394042969 0.949999988
vt 0.409667969 0.949999988
vt 0.409667969 0.894827604
vt 0.737792969 0.894827604
vt 0.737792969 0.949999988
vt 0.753417969 0.949999988
vt 0.753417969 0.894827604
vt 0.0327148438 0.898275852
vt 0.0327148438 0.953448296
vt 0.0483398438 0.953448296
vt 0.0483398438 0.898275852
g yanzhan_2-mesh_0
f 3/3/3 2/2/2 1/1/1
f 1/1/1 4/4/4 3/3/3
f 7/7/7 6/6/6 5/5/5
f 5/5/5 8/8/8 7/7/7
f 11/11/11 10/10/10 9/9/9
f 9/9/9 12/12/12 11/11/11
f 15/15/15 14/14/14 13/13/13
f 13/13/13 16/16/16 15/15/15
f 19/19/19 18/18/18 17/17/17
f 17/17/17 20/20/20 19/19/19
f 23/23/23 22/22/22 21/21/21
f 21/21/21 24/24/24 23/23/23
f 27/27/27 26/26/26 25/25/25
f 25/25/25 28/28/28 27/27/27
f 31/31/31 30/30/30 29/29/29
f 29/29/29 32/32/32 31/31/31
f 35/35/35 34/34/34 33/33/33
f 33/33/33 36/36/36 35/35/35
f 39/39/39 38/38/38 37/37/37
f 37/37/37 40/40/40 39/39/39
f 43/43/43 42/42/42 41/41/41
f 41/41/41 44/44/44 43/43/43
f 47/47/47 46/46/46 45/45/45
f 45/45/45 48/48/48 47/47/47
f 51/51/51 50/50/50 49/49/49
f 49/49/49 52/52/52 51/51/51
f 55/55/55 54/54/54 53/53/53
f 53/53/53 56/56/56 55/55/55
f 59/59/59 58/58/58 57/57/57
f 57/57/57 60/60/60 59/59/59
f 63/63/63 62/62/62 61/61/61
f 61/61/61 64/64/64 63/63/63
f 67/67/67 66/66/66 65/65/65
f 65/65/65 68/68/68 67/67/67
f 71/71/71 70/70/70 69/69/69
f 69/69/69 72/72/72 71/71/71
f 75/75/75 74/74/74 73/73/73
f 73/73/73 76/76/76 75/75/75
f 79/79/79 78/78/78 77/77/77
f 77/77/77 80/80/80 79/79/79
f 83/83/83 82/82/82 81/81/81
f 81/81/81 84/84/84 83/83/83
f 87/87/87 86/86/86 85/85/85
f 85/85/85 88/88/88 87/87/87
f 91/91/91 90/90/90 89/89/89
f 89/89/89 92/92/92 91/91/91
f 95/95/95 94/94/94 93/93/93
f 93/93/93 96/96/96 95/95/95
f 99/99/99 98/98/98 97/97/97
f 97/97/97 100/100/100 99/99/99
f 103/103/103 102/102/102 101/101/101
f 101/101/101 104/104/104 103/103/103
f 107/107/107 106/106/106 105/105/105
f 105/105/105 108/108/108 107/107/107
f 111/111/111 110/110/110 109/109/109
f 109/109/109 112/112/112 111/111/111
f 115/115/115 114/114/114 113/113/113
f 113/113/113 116/116/116 115/115/115
f 119/119/119 118/118/118 117/117/117
f 117/117/117 120/120/120 119/119/119
f 123/123/123 122/122/122 121/121/121
f 121/121/121 124/124/124 123/123/123
f 127/127/127 126/126/126 125/125/125
f 125/125/125 128/128/128 127/127/127
f 131/131/131 130/130/130 129/129/129
f 129/129/129 132/132/132 131/131/131
f 135/135/135 134/134/134 133/133/133
f 133/133/133 136/136/136 135/135/135
f 139/139/139 138/138/138 137/137/137
f 137/137/137 140/140/140 139/139/139
f 143/143/143 142/142/142 141/141/141
f 141/141/141 144/144/144 143/143/143
f 147/147/147 146/146/146 145/145/145
f 145/145/145 148/148/148 147/147/147
f 151/151/151 150/150/150 149/149/149
f 149/149/149 152/152/152 151/151/151
f 155/155/155 154/154/154 153/153/153
f 153/153/153 156/156/156 155/155/155
f 159/159/159 158/158/158 157/157/157
f 157/157/157 160/160/160 159/159/159
f 163/163/163 162/162/162 161/161/161
f 161/161/161 164/164/164 163/163/163
f 167/167/167 166/166/166 165/165/165
f 165/165/165 168/168/168 167/167/167
f 171/171/171 170/170/170 169/169/169
f 169/169/169 172/172/172 171/171/171
f 175/175/175 174/174/174 173/173/173
f 173/173/173 176/176/176 175/175/175
f 179/179/179 178/178/178 177/177/177
f 177/177/177 180/180/180 179/179/179
f 183/183/183 182/182/182 181/181/181
f 181/181/181 184/184/184 183/183/183
f 187/187/187 186/186/186 185/185/185
f 185/185/185 188/188/188 187/187/187
f 191/191/191 190/190/190 189/189/189
f 189/189/189 192/192/192 191/191/191
f 195/195/195 194/194/194 193/193/193
f 193/193/193 196/196/196 195/195/195
f 199/199/199 198/198/198 197/197/197
f 197/197/197 200/200/200 199/199/199
f 203/203/203 202/202/202 201/201/201
f 201/201/201 204/204/204 203/203/203
f 207/207/207 206/206/206 205/205/205
f 205/205/205 208/208/208 207/207/207
f 211/211/211 210/210/210 209/209/209
f 209/209/209 212/212/212 211/211/211
f 215/215/215 214/214/214 213/213/213
f 213/213/213 216/216/216 215/215/215
f 219/219/219 218/218/218 217/217/217
f 217/217/217 220/220/220 219/219/219
f 223/223/223 222/222/222 221/221/221
f 221/221/221 224/224/224 223/223/223
f 227/227/227 226/226/226 225/225/225
f 225/225/225 228/228/228 227/227/227
f 231/231/231 230/230/230 229/229/229
f 229/229/229 232/232/232 231/231/231
f 235/235/235 234/234/234 233/233/233
f 233/233/233 236/236/236 235/235/235
f 239/239/239 238/238/238 237/237/237
f 237/237/237 240/240/240 239/239/239
f 243/243/243 242/242/242 241/241/241
f 241/241/241 244/244/244 243/243/243
f 247/247/247 246/246/246 245/245/245
f 245/245/245 248/248/248 247/247/247
f 251/251/251 250/250/250 249/249/249
f 249/249/249 252/252/252 251/251/251
f 255/255/255 254/254/254 253/253/253
f 253/253/253 256/256/256 255/255/255
f 259/259/259 258/258/258 257/257/257
f 257/257/257 260/260/260 259/259/259
f 263/263/263 262/262/262 261/261/261
f 261/261/261 264/264/264 263/263/263
f 267/267/267 266/266/266 265/265/265
f 265/265/265 268/268/268 267/267/267
f 271/271/271 270/270/270 269/269/269
f 269/269/269 272/272/272 271/271/271
f 275/275/275 274/274/274 273/273/273
f 273/273/273 276/276/276 275/275/275
f 279/279/279 278/278/278 277/277/277
f 277/277/277 280/280/280 279/279/279
f 283/283/283 282/282/282 281/281/281
f 281/281/281 284/284/284 283/283/283
f 287/287/287 286/286/286 285/285/285
f 285/285/285 288/288/288 287/287/287
f 291/291/291 290/290/290 289/289/289
f 289/289/289 292/292/292 291/291/291
f 295/295/295 294/294/294 293/293/293
f 293/293/293 296/296/296 295/295/295
f 299/299/299 298/298/298 297/297/297
f 297/297/297 300/300/300 299/299/299
f 303/303/303 302/302/302 301/301/301
f 301/301/301 304/304/304 303/303/303
f 307/307/307 306/306/306 305/305/305
f 305/305/305 308/308/308 307/307/307
f 311/311/311 310/310/310 309/309/309
f 309/309/309 312/312/312 311/311/311
f 315/315/315 314/314/314 313/313/313
f 313/313/313 316/316/316 315/315/315
