g guanghui_h-mesh
v -352 246 0
v -352 758 0
v -768 758 0
v -768 246 0
v -768 150 0
v -768 438 0
v -1023 438 0
v -1023 150 0
v -160 182 0
v -160 566 0
v -352 566 0
v -352 182 0
v -32 118 0
v -32 406 0
v -160 406 0
v -160 118 0
v -352 758 0
v -352 918 0
v -544 918 0
v -544 758 0
v -416 22 0
v -416 246 0
v -512 246 0
v -512 22 0
v -736 822 0
v -736 950 0
v -896 950 0
v -896 822 0
v -128 790 0
v -128 918 0
v -256 918 0
v -256 790 0
v -608 150 0
v -608 246 0
v -768 246 0
v -768 150 0
v -224 598 0
v -224 694 0
v -352 694 0
v -352 598 0
v -160 566 0
v -160 662 0
v -224 662 0
v -224 566 0
v -160 118 0
v -160 182 0
v -256 182 0
v -256 118 0
v -768 534 0
v -768 630 0
v -832 630 0
v -832 534 0
v -768 630 0
v -768 726 0
v -832 726 0
v -832 630 0
v -0 214 0
v -0 342 0
v -32 342 0
v -32 214 0
v -96 406 0
v -96 470 0
v -160 470 0
v -160 406 0
v -768 438 0
v -768 470 0
v -896 470 0
v -896 438 0
v -832 118 0
v -832 150 0
v -960 150 0
v -960 118 0
v -704 118 0
v -704 150 0
v -832 150 0
v -832 118 0
v -896 438 0
v -896 470 0
v -992 470 0
v -992 438 0
v -832 598 0
v -832 694 0
v -864 694 0
v -864 598 0
v -0 118 0
v -0 214 0
v -32 214 0
v -32 118 0
v -768 470 0
v -768 534 0
v -800 534 0
v -800 470 0
v -96 694 0
v -96 758 0
v -128 758 0
v -128 694 0
v -224 566 0
v -224 598 0
v -288 598 0
v -288 566 0
v -288 694 0
v -288 726 0
v -352 726 0
v -352 694 0
v -864 662 0
v -864 726 0
v -896 726 0
v -896 662 0
v -896 470 0
v -896 502 0
v -960 502 0
v -960 470 0
v -96 86 0
v -96 118 0
v -160 118 0
v -160 86 0
v -416 0 0
v -416 22 0
v -480 22 0
v -480 0 0
v -256 150 0
v -256 182 0
v -320 182 0
v -320 150 0
v -352 214 0
v -352 246 0
v -416 246 0
v -416 214 0
v -544 214 0
v -544 246 0
v -608 246 0
v -608 214 0
v -544 822 0
v -544 886 0
v -576 886 0
v -576 822 0
v -544 758 0
v -544 822 0
v -576 822 0
v -576 758 0
v -448 918 0
v -448 950 0
v -512 950 0
v -512 918 0
v -832 534 0
v -832 598 0
v -864 598 0
v -864 534 0
v -384 918 0
v -384 950 0
v -448 950 0
v -448 918 0
v -384 54 0
v -384 118 0
v -416 118 0
v -416 54 0
v -96 854 0
v -96 918 0
v -128 918 0
v -128 854 0
v -704 822 0
v -704 886 0
v -736 886 0
v -736 822 0
v -256 822 0
v -256 854 0
v -320 854 0
v -320 822 0
v -384 0 0
v -384 54 0
v -416 54 0
v -416 0 0
v -320 566 0
v -320 598 0
v -352 598 0
v -352 566 0
v -128 694 0
v -128 726 0
v -160 726 0
v -160 694 0
v -864 758 0
v -864 790 0
v -896 790 0
v -896 758 0
v -64 406 0
v -64 438 0
v -96 438 0
v -96 406 0
v -800 470 0
v -800 502 0
v -832 502 0
v -832 470 0
v -128 470 0
v -128 502 0
v -160 502 0
v -160 470 0
v -576 758 0
v -576 790 0
v -608 790 0
v -608 758 0
v -256 854 0
v -256 886 0
v -288 886 0
v -288 854 0
v -192 918 0
v -192 950 0
v -224 950 0
v -224 918 0
v -320 822 0
v -320 854 0
v -352 854 0
v -352 822 0
v -128 758 0
v -128 790 0
v -160 790 0
v -160 758 0
v -832 790 0
v -832 822 0
v -864 822 0
v -864 790 0
v -320 854 0
v -320 886 0
v -352 886 0
v -352 854 0
vt 0.0009765625 0.00140058994
vt 0.0009765625 0.718487382
vt 0.407226562 0.718487382
vt 0.407226562 0.00140058994
vt 0.409179688 0.00140058994
vt 0.409179688 0.40476191
vt 0.659179688 0.40476191
vt 0.659179688 0.00140058994
vt 0.661132812 0.00140058994
vt 0.661132812 0.539215684
vt 0.848632812 0.539215684
vt 0.848632812 0.00140058994
vt 0.850585938 0.00140058994
vt 0.850585938 0.40476191
vt 0.975585938 0.40476191
vt 0.975585938 0.00140058994
vt 0.409179688 0.407563031
vt 0.409179688 0.631652653
vt 0.596679688 0.631652653
vt 0.596679688 0.407563031
vt 0.850585938 0.407563031
vt 0.850585938 0.721288502
vt 0.944335938 0.721288502
vt 0.944335938 0.407563031
vt 0.661132812 0.542016804
vt 0.661132812 0.721288502
vt 0.817382812 0.721288502
vt 0.817382812 0.542016804
vt 0.409179688 0.634453773
vt 0.409179688 0.813725471
vt 0.534179688 0.813725471
vt 0.534179688 0.634453773
vt 0.0009765625 0.721288502
vt 0.0009765625 0.855742276
vt 0.157226562 0.855742276
vt 0.157226562 0.721288502
vt 0.159179688 0.721288502
vt 0.159179688 0.855742276
vt 0.284179688 0.855742276
vt 0.284179688 0.721288502
vt 0.536132812 0.634453773
vt 0.536132812 0.768907547
vt 0.598632812 0.768907547
vt 0.598632812 0.634453773
vt 0.286132812 0.721288502
vt 0.286132812 0.810924351
vt 0.379882812 0.810924351
vt 0.379882812 0.721288502
vt 0.661132812 0.724089622
vt 0.661132812 0.858543396
vt 0.723632812 0.858543396
vt 0.723632812 0.724089622
vt 0.725585938 0.724089622
vt 0.725585938 0.858543396
vt 0.788085938 0.858543396
vt 0.788085938 0.724089622
vt 0.600585938 0.407563031
vt 0.600585938 0.586834729
vt 0.631835938 0.586834729
vt 0.631835938 0.407563031
vt 0.790039062 0.724089622
vt 0.790039062 0.813725471
vt 0.852539062 0.813725471
vt 0.852539062 0.724089622
vt 0.854492188 0.724089622
vt 0.854492188 0.768907547
vt 0.979492188 0.768907547
vt 0.979492188 0.724089622
vt 0.854492188 0.771708667
vt 0.854492188 0.816526592
vt 0.979492188 0.816526592
vt 0.979492188 0.771708667
vt 0.409179688 0.816526592
vt 0.409179688 0.861344516
vt 0.534179688 0.861344516
vt 0.534179688 0.816526592
vt 0.536132812 0.771708667
vt 0.536132812 0.816526592
vt 0.629882812 0.816526592
vt 0.629882812 0.771708667
vt 0.286132812 0.813725471
vt 0.286132812 0.948179245
vt 0.317382812 0.948179245
vt 0.317382812 0.813725471
vt 0.319335938 0.813725471
vt 0.319335938 0.948179245
vt 0.350585938 0.948179245
vt 0.350585938 0.813725471
vt 0.352539062 0.813725471
vt 0.352539062 0.90336132
vt 0.383789062 0.90336132
vt 0.383789062 0.813725471
vt 0.790039062 0.816526592
vt 0.790039062 0.906162441
vt 0.821289062 0.906162441
vt 0.821289062 0.816526592
vt 0.536132812 0.819327712
vt 0.536132812 0.864145637
vt 0.598632812 0.864145637
vt 0.598632812 0.819327712
vt 0.854492188 0.819327712
vt 0.854492188 0.864145637
vt 0.916992188 0.864145637
vt 0.916992188 0.819327712
vt 0.600585938 0.819327712
vt 0.600585938 0.908963561
vt 0.631835938 0.908963561
vt 0.631835938 0.819327712
vt 0.918945312 0.819327712
vt 0.918945312 0.864145637
vt 0.981445312 0.864145637
vt 0.981445312 0.819327712
vt 0.0009765625 0.858543396
vt 0.0009765625 0.90336132
vt 0.0634765625 0.90336132
vt 0.0634765625 0.858543396
vt 0.0654296875 0.858543396
vt 0.0654296875 0.890756309
vt 0.127929688 0.890756309
vt 0.127929688 0.858543396
vt 0.129882812 0.858543396
vt 0.129882812 0.90336132
vt 0.192382812 0.90336132
vt 0.192382812 0.858543396
vt 0.194335938 0.858543396
vt 0.194335938 0.90336132
vt 0.256835938 0.90336132
vt 0.256835938 0.858543396
vt 0.661132812 0.861344516
vt 0.661132812 0.906162441
vt 0.723632812 0.906162441
vt 0.723632812 0.861344516
vt 0.725585938 0.861344516
vt 0.725585938 0.950980365
vt 0.756835938 0.950980365
vt 0.756835938 0.861344516
vt 0.409179688 0.864145637
vt 0.409179688 0.953781486
vt 0.440429688 0.953781486
vt 0.440429688 0.864145637
vt 0.442382812 0.864145637
vt 0.442382812 0.908963561
vt 0.504882812 0.908963561
vt 0.504882812 0.864145637
vt 0.536132812 0.866946757
vt 0.536132812 0.956582606
vt 0.567382812 0.956582606
vt 0.567382812 0.866946757
vt 0.854492188 0.866946757
vt 0.854492188 0.911764681
vt 0.916992188 0.911764681
vt 0.916992188 0.866946757
vt 0.918945312 0.866946757
vt 0.918945312 0.956582606
vt 0.950195312 0.956582606
vt 0.950195312 0.866946757
vt 0.952148438 0.866946757
vt 0.952148438 0.956582606
vt 0.983398438 0.956582606
vt 0.983398438 0.866946757
vt 0.0654296875 0.893557429
vt 0.0654296875 0.983193278
vt 0.0966796875 0.983193278
vt 0.0966796875 0.893557429
vt 0.0009765625 0.906162441
vt 0.0009765625 0.950980365
vt 0.0634765625 0.950980365
vt 0.0634765625 0.906162441
vt 0.129882812 0.906162441
vt 0.129882812 0.983193278
vt 0.161132812 0.983193278
vt 0.161132812 0.906162441
vt 0.163085938 0.906162441
vt 0.163085938 0.950980365
vt 0.194335938 0.950980365
vt 0.194335938 0.906162441
vt 0.196289062 0.906162441
vt 0.196289062 0.950980365
vt 0.227539062 0.950980365
vt 0.227539062 0.906162441
vt 0.229492188 0.906162441
vt 0.229492188 0.950980365
vt 0.260742188 0.950980365
vt 0.260742188 0.906162441
vt 0.352539062 0.906162441
vt 0.352539062 0.950980365
vt 0.383789062 0.950980365
vt 0.383789062 0.906162441
vt 0.661132812 0.908963561
vt 0.661132812 0.953781486
vt 0.692382812 0.953781486
vt 0.692382812 0.908963561
vt 0.790039062 0.908963561
vt 0.790039062 0.953781486
vt 0.821289062 0.953781486
vt 0.821289062 0.908963561
vt 0.442382812 0.911764681
vt 0.442382812 0.956582606
vt 0.473632812 0.956582606
vt 0.473632812 0.911764681
vt 0.475585938 0.911764681
vt 0.475585938 0.956582606
vt 0.506835938 0.956582606
vt 0.506835938 0.911764681
vt 0.600585938 0.911764681
vt 0.600585938 0.956582606
vt 0.631835938 0.956582606
vt 0.631835938 0.911764681
vt 0.854492188 0.914565802
vt 0.854492188 0.959383726
vt 0.885742188 0.959383726
vt 0.885742188 0.914565802
vt 0.286132812 0.950980365
vt 0.286132812 0.99579829
vt 0.317382812 0.99579829
vt 0.317382812 0.950980365
vt 0.319335938 0.950980365
vt 0.319335938 0.99579829
vt 0.350585938 0.99579829
vt 0.350585938 0.950980365
vt 0.0009765625 0.953781486
vt 0.0009765625 0.99859941
vt 0.0322265625 0.99859941
vt 0.0322265625 0.953781486
g guanghui_h-mesh_0
f 3/3/3 2/2/2 1/1/1
f 1/1/1 4/4/4 3/3/3
f 7/7/7 6/6/6 5/5/5
f 5/5/5 8/8/8 7/7/7
f 11/11/11 10/10/10 9/9/9
f 9/9/9 12/12/12 11/11/11
f 15/15/15 14/14/14 13/13/13
f 13/13/13 16/16/16 15/15/15
f 19/19/19 18/18/18 17/17/17
f 17/17/17 20/20/20 19/19/19
f 23/23/23 22/22/22 21/21/21
f 21/21/21 24/24/24 23/23/23
f 27/27/27 26/26/26 25/25/25
f 25/25/25 28/28/28 27/27/27
f 31/31/31 30/30/30 29/29/29
f 29/29/29 32/32/32 31/31/31
f 35/35/35 34/34/34 33/33/33
f 33/33/33 36/36/36 35/35/35
f 39/39/39 38/38/38 37/37/37
f 37/37/37 40/40/40 39/39/39
f 43/43/43 42/42/42 41/41/41
f 41/41/41 44/44/44 43/43/43
f 47/47/47 46/46/46 45/45/45
f 45/45/45 48/48/48 47/47/47
f 51/51/51 50/50/50 49/49/49
f 49/49/49 52/52/52 51/51/51
f 55/55/55 54/54/54 53/53/53
f 53/53/53 56/56/56 55/55/55
f 59/59/59 58/58/58 57/57/57
f 57/57/57 60/60/60 59/59/59
f 63/63/63 62/62/62 61/61/61
f 61/61/61 64/64/64 63/63/63
f 67/67/67 66/66/66 65/65/65
f 65/65/65 68/68/68 67/67/67
f 71/71/71 70/70/70 69/69/69
f 69/69/69 72/72/72 71/71/71
f 75/75/75 74/74/74 73/73/73
f 73/73/73 76/76/76 75/75/75
f 79/79/79 78/78/78 77/77/77
f 77/77/77 80/80/80 79/79/79
f 83/83/83 82/82/82 81/81/81
f 81/81/81 84/84/84 83/83/83
f 87/87/87 86/86/86 85/85/85
f 85/85/85 88/88/88 87/87/87
f 91/91/91 90/90/90 89/89/89
f 89/89/89 92/92/92 91/91/91
f 95/95/95 94/94/94 93/93/93
f 93/93/93 96/96/96 95/95/95
f 99/99/99 98/98/98 97/97/97
f 97/97/97 100/100/100 99/99/99
f 103/103/103 102/102/102 101/101/101
f 101/101/101 104/104/104 103/103/103
f 107/107/107 106/106/106 105/105/105
f 105/105/105 108/108/108 107/107/107
f 111/111/111 110/110/110 109/109/109
f 109/109/109 112/112/112 111/111/111
f 115/115/115 114/114/114 113/113/113
f 113/113/113 116/116/116 115/115/115
f 119/119/119 118/118/118 117/117/117
f 117/117/117 120/120/120 119/119/119
f 123/123/123 122/122/122 121/121/121
f 121/121/121 124/124/124 123/123/123
f 127/127/127 126/126/126 125/125/125
f 125/125/125 128/128/128 127/127/127
f 131/131/131 130/130/130 129/129/129
f 129/129/129 132/132/132 131/131/131
f 135/135/135 134/134/134 133/133/133
f 133/133/133 136/136/136 135/135/135
f 139/139/139 138/138/138 137/137/137
f 137/137/137 140/140/140 139/139/139
f 143/143/143 142/142/142 141/141/141
f 141/141/141 144/144/144 143/143/143
f 147/147/147 146/146/146 145/145/145
f 145/145/145 148/148/148 147/147/147
f 151/151/151 150/150/150 149/149/149
f 149/149/149 152/152/152 151/151/151
f 155/155/155 154/154/154 153/153/153
f 153/153/153 156/156/156 155/155/155
f 159/159/159 158/158/158 157/157/157
f 157/157/157 160/160/160 159/159/159
f 163/163/163 162/162/162 161/161/161
f 161/161/161 164/164/164 163/163/163
f 167/167/167 166/166/166 165/165/165
f 165/165/165 168/168/168 167/167/167
f 171/171/171 170/170/170 169/169/169
f 169/169/169 172/172/172 171/171/171
f 175/175/175 174/174/174 173/173/173
f 173/173/173 176/176/176 175/175/175
f 179/179/179 178/178/178 177/177/177
f 177/177/177 180/180/180 179/179/179
f 183/183/183 182/182/182 181/181/181
f 181/181/181 184/184/184 183/183/183
f 187/187/187 186/186/186 185/185/185
f 185/185/185 188/188/188 187/187/187
f 191/191/191 190/190/190 189/189/189
f 189/189/189 192/192/192 191/191/191
f 195/195/195 194/194/194 193/193/193
f 193/193/193 196/196/196 195/195/195
f 199/199/199 198/198/198 197/197/197
f 197/197/197 200/200/200 199/199/199
f 203/203/203 202/202/202 201/201/201
f 201/201/201 204/204/204 203/203/203
f 207/207/207 206/206/206 205/205/205
f 205/205/205 208/208/208 207/207/207
f 211/211/211 210/210/210 209/209/209
f 209/209/209 212/212/212 211/211/211
f 215/215/215 214/214/214 213/213/213
f 213/213/213 216/216/216 215/215/215
f 219/219/219 218/218/218 217/217/217
f 217/217/217 220/220/220 219/219/219
f 223/223/223 222/222/222 221/221/221
f 221/221/221 224/224/224 223/223/223
