g chicheng_younv-mesh
v -256 543 0
v -256 927 0
v -704 927 0
v -704 543 0
v -256 191 0
v -256 543 0
v -704 543 0
v -704 191 0
v -704 447 0
v -704 831 0
v -864 831 0
v -864 447 0
v -352 0 0
v -352 191 0
v -544 191 0
v -544 0 0
v -0 319 0
v -0 447 0
v -256 447 0
v -256 319 0
v -704 351 0
v -704 447 0
v -832 447 0
v -832 351 0
v -128 479 0
v -128 607 0
v -224 607 0
v -224 479 0
v -128 607 0
v -128 735 0
v -224 735 0
v -224 607 0
v -384 927 0
v -384 991 0
v -512 991 0
v -512 927 0
v -256 927 0
v -256 991 0
v -384 991 0
v -384 927 0
v -704 895 0
v -704 991 0
v -768 991 0
v -768 895 0
v -224 735 0
v -224 927 0
v -256 927 0
v -256 735 0
v -224 543 0
v -224 735 0
v -256 735 0
v -256 543 0
v -64 511 0
v -64 575 0
v -128 575 0
v -128 511 0
v -192 255 0
v -192 319 0
v -256 319 0
v -256 255 0
v -288 127 0
v -288 191 0
v -352 191 0
v -352 127 0
v -704 831 0
v -704 895 0
v -768 895 0
v -768 831 0
v -544 63 0
v -544 159 0
v -576 159 0
v -576 63 0
v -768 831 0
v -768 895 0
v -800 895 0
v -800 831 0
v -512 927 0
v -512 959 0
v -576 959 0
v -576 927 0
v -704 287 0
v -704 351 0
v -736 351 0
v -736 287 0
v -256 991 0
v -256 1023 0
v -320 1023 0
v -320 991 0
v -96 447 0
v -96 511 0
v -128 511 0
v -128 447 0
v -224 447 0
v -224 511 0
v -256 511 0
v -256 447 0
v -192 735 0
v -192 799 0
v -224 799 0
v -224 735 0
v -736 287 0
v -736 351 0
v -768 351 0
v -768 287 0
v -544 0 0
v -544 63 0
v -576 63 0
v -576 0 0
v -608 927 0
v -608 959 0
v -672 959 0
v -672 927 0
v -864 607 0
v -864 671 0
v -874 671 0
v -874 607 0
v -864 543 0
v -864 607 0
v -874 607 0
v -874 543 0
v -96 639 0
v -96 703 0
v -128 703 0
v -128 639 0
v -384 991 0
v -384 1023 0
v -448 1023 0
v -448 991 0
v -160 287 0
v -160 319 0
v -192 319 0
v -192 287 0
v -224 223 0
v -224 255 0
v -256 255 0
v -256 223 0
v -768 319 0
v -768 351 0
v -800 351 0
v -800 319 0
v -160 735 0
v -160 767 0
v -192 767 0
v -192 735 0
v -672 927 0
v -672 959 0
v -704 959 0
v -704 927 0
v -704 255 0
v -704 287 0
v -736 287 0
v -736 255 0
v -96 607 0
v -96 639 0
v -128 639 0
v -128 607 0
v -448 991 0
v -448 1023 0
v -480 1023 0
v -480 991 0
vt 0.0009765625 0.00135135651
vt 0.0009765625 0.520270228
vt 0.438476562 0.520270228
vt 0.438476562 0.00135135651
vt 0.440429688 0.00135135651
vt 0.440429688 0.477026999
vt 0.877929688 0.477026999
vt 0.877929688 0.00135135651
vt 0.440429688 0.479729712
vt 0.440429688 0.998648643
vt 0.596679688 0.998648643
vt 0.596679688 0.479729712
vt 0.598632812 0.479729712
vt 0.598632812 0.739189148
vt 0.786132812 0.739189148
vt 0.786132812 0.479729712
vt 0.0009765625 0.522972941
vt 0.0009765625 0.695945978
vt 0.250976562 0.695945978
vt 0.250976562 0.522972941
vt 0.788085938 0.479729712
vt 0.788085938 0.60945946
vt 0.913085938 0.60945946
vt 0.913085938 0.479729712
vt 0.252929688 0.522972941
vt 0.252929688 0.695945978
vt 0.346679688 0.695945978
vt 0.346679688 0.522972941
vt 0.788085938 0.612162173
vt 0.788085938 0.78513515
vt 0.881835938 0.78513515
vt 0.881835938 0.612162173
vt 0.0009765625 0.698648691
vt 0.0009765625 0.78513515
vt 0.125976562 0.78513515
vt 0.125976562 0.698648691
vt 0.127929688 0.698648691
vt 0.127929688 0.78513515
vt 0.252929688 0.78513515
vt 0.252929688 0.698648691
vt 0.915039062 0.00135135651
vt 0.915039062 0.131081104
vt 0.977539062 0.131081104
vt 0.977539062 0.00135135651
vt 0.915039062 0.133783758
vt 0.915039062 0.393243253
vt 0.946289062 0.393243253
vt 0.946289062 0.133783758
vt 0.948242188 0.133783758
vt 0.948242188 0.393243253
vt 0.979492188 0.393243253
vt 0.979492188 0.133783758
vt 0.915039062 0.395945966
vt 0.915039062 0.482432425
vt 0.977539062 0.482432425
vt 0.977539062 0.395945966
vt 0.915039062 0.485135138
vt 0.915039062 0.571621656
vt 0.977539062 0.571621656
vt 0.977539062 0.485135138
vt 0.348632812 0.522972941
vt 0.348632812 0.60945946
vt 0.411132812 0.60945946
vt 0.411132812 0.522972941
vt 0.915039062 0.57432431
vt 0.915039062 0.660810828
vt 0.977539062 0.660810828
vt 0.977539062 0.57432431
vt 0.348632812 0.612162173
vt 0.348632812 0.741891861
vt 0.379882812 0.741891861
vt 0.379882812 0.612162173
vt 0.381835938 0.612162173
vt 0.381835938 0.698648691
vt 0.413085938 0.698648691
vt 0.413085938 0.612162173
vt 0.915039062 0.663513541
vt 0.915039062 0.706756771
vt 0.977539062 0.706756771
vt 0.977539062 0.663513541
vt 0.254882812 0.698648691
vt 0.254882812 0.78513515
vt 0.286132812 0.78513515
vt 0.286132812 0.698648691
vt 0.915039062 0.709459424
vt 0.915039062 0.752702713
vt 0.977539062 0.752702713
vt 0.977539062 0.709459424
vt 0.288085938 0.698648691
vt 0.288085938 0.78513515
vt 0.319335938 0.78513515
vt 0.319335938 0.698648691
vt 0.381835938 0.701351345
vt 0.381835938 0.787837863
vt 0.413085938 0.787837863
vt 0.413085938 0.701351345
vt 0.598632812 0.741891861
vt 0.598632812 0.828378379
vt 0.629882812 0.828378379
vt 0.629882812 0.741891861
vt 0.631835938 0.741891861
vt 0.631835938 0.828378379
vt 0.663085938 0.828378379
vt 0.663085938 0.741891861
vt 0.665039062 0.741891861
vt 0.665039062 0.828378379
vt 0.696289062 0.828378379
vt 0.696289062 0.741891861
vt 0.698242188 0.741891861
vt 0.698242188 0.78513515
vt 0.760742188 0.78513515
vt 0.760742188 0.741891861
vt 0.981445312 0.00135135651
vt 0.981445312 0.0878378153
vt 0.9921875 0.0878378153
vt 0.9921875 0.00135135651
vt 0.981445312 0.0905405283
vt 0.981445312 0.177027047
vt 0.9921875 0.177027047
vt 0.9921875 0.0905405283
vt 0.348632812 0.744594574
vt 0.348632812 0.831081092
vt 0.379882812 0.831081092
vt 0.379882812 0.744594574
vt 0.915039062 0.755405426
vt 0.915039062 0.798648655
vt 0.977539062 0.798648655
vt 0.977539062 0.755405426
vt 0.0009765625 0.787837863
vt 0.0009765625 0.831081092
vt 0.0322265625 0.831081092
vt 0.0322265625 0.787837863
vt 0.0341796875 0.787837863
vt 0.0341796875 0.831081092
vt 0.0654296875 0.831081092
vt 0.0654296875 0.787837863
vt 0.0673828125 0.787837863
vt 0.0673828125 0.831081092
vt 0.0986328125 0.831081092
vt 0.0986328125 0.787837863
vt 0.100585938 0.787837863
vt 0.100585938 0.831081092
vt 0.131835938 0.831081092
vt 0.131835938 0.787837863
vt 0.133789062 0.787837863
vt 0.133789062 0.831081092
vt 0.165039062 0.831081092
vt 0.165039062 0.787837863
vt 0.166992188 0.787837863
vt 0.166992188 0.831081092
vt 0.198242188 0.831081092
vt 0.198242188 0.787837863
vt 0.200195312 0.787837863
vt 0.200195312 0.831081092
vt 0.231445312 0.831081092
vt 0.231445312 0.787837863
vt 0.233398438 0.787837863
vt 0.233398438 0.831081092
vt 0.264648438 0.831081092
vt 0.264648438 0.787837863
g chicheng_younv-mesh_0
f 3/3/3 2/2/2 1/1/1
f 1/1/1 4/4/4 3/3/3
f 7/7/7 6/6/6 5/5/5
f 5/5/5 8/8/8 7/7/7
f 11/11/11 10/10/10 9/9/9
f 9/9/9 12/12/12 11/11/11
f 15/15/15 14/14/14 13/13/13
f 13/13/13 16/16/16 15/15/15
f 19/19/19 18/18/18 17/17/17
f 17/17/17 20/20/20 19/19/19
f 23/23/23 22/22/22 21/21/21
f 21/21/21 24/24/24 23/23/23
f 27/27/27 26/26/26 25/25/25
f 25/25/25 28/28/28 27/27/27
f 31/31/31 30/30/30 29/29/29
f 29/29/29 32/32/32 31/31/31
f 35/35/35 34/34/34 33/33/33
f 33/33/33 36/36/36 35/35/35
f 39/39/39 38/38/38 37/37/37
f 37/37/37 40/40/40 39/39/39
f 43/43/43 42/42/42 41/41/41
f 41/41/41 44/44/44 43/43/43
f 47/47/47 46/46/46 45/45/45
f 45/45/45 48/48/48 47/47/47
f 51/51/51 50/50/50 49/49/49
f 49/49/49 52/52/52 51/51/51
f 55/55/55 54/54/54 53/53/53
f 53/53/53 56/56/56 55/55/55
f 59/59/59 58/58/58 57/57/57
f 57/57/57 60/60/60 59/59/59
f 63/63/63 62/62/62 61/61/61
f 61/61/61 64/64/64 63/63/63
f 67/67/67 66/66/66 65/65/65
f 65/65/65 68/68/68 67/67/67
f 71/71/71 70/70/70 69/69/69
f 69/69/69 72/72/72 71/71/71
f 75/75/75 74/74/74 73/73/73
f 73/73/73 76/76/76 75/75/75
f 79/79/79 78/78/78 77/77/77
f 77/77/77 80/80/80 79/79/79
f 83/83/83 82/82/82 81/81/81
f 81/81/81 84/84/84 83/83/83
f 87/87/87 86/86/86 85/85/85
f 85/85/85 88/88/88 87/87/87
f 91/91/91 90/90/90 89/89/89
f 89/89/89 92/92/92 91/91/91
f 95/95/95 94/94/94 93/93/93
f 93/93/93 96/96/96 95/95/95
f 99/99/99 98/98/98 97/97/97
f 97/97/97 100/100/100 99/99/99
f 103/103/103 102/102/102 101/101/101
f 101/101/101 104/104/104 103/103/103
f 107/107/107 106/106/106 105/105/105
f 105/105/105 108/108/108 107/107/107
f 111/111/111 110/110/110 109/109/109
f 109/109/109 112/112/112 111/111/111
f 115/115/115 114/114/114 113/113/113
f 113/113/113 116/116/116 115/115/115
f 119/119/119 118/118/118 117/117/117
f 117/117/117 120/120/120 119/119/119
f 123/123/123 122/122/122 121/121/121
f 121/121/121 124/124/124 123/123/123
f 127/127/127 126/126/126 125/125/125
f 125/125/125 128/128/128 127/127/127
f 131/131/131 130/130/130 129/129/129
f 129/129/129 132/132/132 131/131/131
f 135/135/135 134/134/134 133/133/133
f 133/133/133 136/136/136 135/135/135
f 139/139/139 138/138/138 137/137/137
f 137/137/137 140/140/140 139/139/139
f 143/143/143 142/142/142 141/141/141
f 141/141/141 144/144/144 143/143/143
f 147/147/147 146/146/146 145/145/145
f 145/145/145 148/148/148 147/147/147
f 151/151/151 150/150/150 149/149/149
f 149/149/149 152/152/152 151/151/151
f 155/155/155 154/154/154 153/153/153
f 153/153/153 156/156/156 155/155/155
f 159/159/159 158/158/158 157/157/157
f 157/157/157 160/160/160 159/159/159
