g niaohai-mesh
v -160 553 0
v -160 841 0
v -512 841 0
v -512 553 0
v -512 553 0
v -512 841 0
v -832 841 0
v -832 553 0
v -832 361 0
v -832 649 0
v -992 649 0
v -992 361 0
v -32 457 0
v -32 681 0
v -160 681 0
v -160 457 0
v -416 265 0
v -416 553 0
v -512 553 0
v -512 265 0
v -416 841 0
v -416 1001 0
v -576 1001 0
v -576 841 0
v -32 265 0
v -32 457 0
v -160 457 0
v -160 265 0
v -416 9 0
v -416 265 0
v -512 265 0
v -512 9 0
v -704 457 0
v -704 553 0
v -832 553 0
v -832 457 0
v -832 649 0
v -832 745 0
v -928 745 0
v -928 649 0
v -64 681 0
v -64 777 0
v -160 777 0
v -160 681 0
v -288 425 0
v -288 489 0
v -416 489 0
v -416 425 0
v -864 297 0
v -864 361 0
v -992 361 0
v -992 297 0
v -160 425 0
v -160 489 0
v -288 489 0
v -288 425 0
v -512 329 0
v -512 553 0
v -544 553 0
v -544 329 0
v -544 361 0
v -544 553 0
v -576 553 0
v -576 361 0
v -512 137 0
v -512 329 0
v -544 329 0
v -544 137 0
v -672 841 0
v -672 905 0
v -768 905 0
v -768 841 0
v -160 489 0
v -160 553 0
v -256 553 0
v -256 489 0
v -224 841 0
v -224 905 0
v -320 905 0
v -320 841 0
v -0 425 0
v -0 585 0
v -32 585 0
v -32 425 0
v -544 201 0
v -544 361 0
v -576 361 0
v -576 201 0
v -256 489 0
v -256 553 0
v -320 553 0
v -320 489 0
v -0 297 0
v -0 425 0
v -32 425 0
v -32 297 0
v -992 425 0
v -992 521 0
v -1023 521 0
v -1023 425 0
v -992 329 0
v -992 425 0
v -1023 425 0
v -1023 329 0
v -576 457 0
v -576 553 0
v -608 553 0
v -608 457 0
v -576 361 0
v -576 457 0
v -608 457 0
v -608 361 0
v -832 745 0
v -832 777 0
v -896 777 0
v -896 745 0
v -928 649 0
v -928 713 0
v -960 713 0
v -960 649 0
v -608 841 0
v -608 873 0
v -672 873 0
v -672 841 0
v -96 777 0
v -96 809 0
v -160 809 0
v -160 777 0
v -384 489 0
v -384 553 0
v -416 553 0
v -416 489 0
v -64 233 0
v -64 265 0
v -128 265 0
v -128 233 0
v -448 0 0
v -448 9 0
v -512 9 0
v -512 0 0
v -640 521 0
v -640 553 0
v -704 553 0
v -704 521 0
v -768 425 0
v -768 457 0
v -832 457 0
v -832 425 0
v -608 425 0
v -608 489 0
v -640 489 0
v -640 425 0
v -160 361 0
v -160 425 0
v -192 425 0
v -192 361 0
v -384 905 0
v -384 969 0
v -416 969 0
v -416 905 0
v -608 489 0
v -608 553 0
v -640 553 0
v -640 489 0
v -160 297 0
v -160 361 0
v -192 361 0
v -192 297 0
v -192 361 0
v -192 425 0
v -224 425 0
v -224 361 0
v -384 841 0
v -384 905 0
v -416 905 0
v -416 841 0
v -384 137 0
v -384 201 0
v -416 201 0
v -416 137 0
v -384 73 0
v -384 137 0
v -416 137 0
v -416 73 0
v -672 489 0
v -672 521 0
v -704 521 0
v -704 489 0
v -352 489 0
v -352 521 0
v -384 521 0
v -384 489 0
v -800 393 0
v -800 425 0
v -832 425 0
v -832 393 0
v -224 393 0
v -224 425 0
v -256 425 0
v -256 393 0
v -320 521 0
v -320 553 0
v -352 553 0
v -352 521 0
v -576 873 0
v -576 905 0
v -608 905 0
v -608 873 0
v -192 329 0
v -192 361 0
v -224 361 0
v -224 329 0
v -768 841 0
v -768 873 0
v -800 873 0
v -800 841 0
v -320 841 0
v -320 873 0
v -352 873 0
v -352 841 0
vt 0.0009765625 0.00162339211
vt 0.0009765625 0.469155848
vt 0.344726562 0.469155848
vt 0.344726562 0.00162339211
vt 0.346679688 0.00162339211
vt 0.346679688 0.469155848
vt 0.659179688 0.469155848
vt 0.659179688 0.00162339211
vt 0.661132812 0.00162339211
vt 0.661132812 0.469155848
vt 0.817382812 0.469155848
vt 0.817382812 0.00162339211
vt 0.819335938 0.00162339211
vt 0.819335938 0.365259767
vt 0.944335938 0.365259767
vt 0.944335938 0.00162339211
vt 0.819335938 0.368506491
vt 0.819335938 0.836038947
vt 0.913085938 0.836038947
vt 0.913085938 0.368506491
vt 0.0009765625 0.472402573
vt 0.0009765625 0.732142866
vt 0.157226562 0.732142866
vt 0.157226562 0.472402573
vt 0.159179688 0.472402573
vt 0.159179688 0.784090877
vt 0.284179688 0.784090877
vt 0.284179688 0.472402573
vt 0.286132812 0.472402573
vt 0.286132812 0.887987018
vt 0.379882812 0.887987018
vt 0.379882812 0.472402573
vt 0.381835938 0.472402573
vt 0.381835938 0.628246784
vt 0.506835938 0.628246784
vt 0.506835938 0.472402573
vt 0.508789062 0.472402573
vt 0.508789062 0.628246784
vt 0.602539062 0.628246784
vt 0.602539062 0.472402573
vt 0.604492188 0.472402573
vt 0.604492188 0.628246784
vt 0.698242188 0.628246784
vt 0.698242188 0.472402573
vt 0.381835938 0.631493509
vt 0.381835938 0.73538959
vt 0.506835938 0.73538959
vt 0.506835938 0.631493509
vt 0.508789062 0.631493509
vt 0.508789062 0.73538959
vt 0.633789062 0.73538959
vt 0.633789062 0.631493509
vt 0.635742188 0.631493509
vt 0.635742188 0.73538959
vt 0.760742188 0.73538959
vt 0.760742188 0.631493509
vt 0.946289062 0.00162339211
vt 0.946289062 0.365259767
vt 0.977539062 0.365259767
vt 0.977539062 0.00162339211
vt 0.915039062 0.368506491
vt 0.915039062 0.680194795
vt 0.946289062 0.680194795
vt 0.946289062 0.368506491
vt 0.948242188 0.368506491
vt 0.948242188 0.680194795
vt 0.979492188 0.680194795
vt 0.979492188 0.368506491
vt 0.0009765625 0.73538959
vt 0.0009765625 0.839285731
vt 0.0947265625 0.839285731
vt 0.0947265625 0.73538959
vt 0.381835938 0.738636374
vt 0.381835938 0.842532456
vt 0.475585938 0.842532456
vt 0.475585938 0.738636374
vt 0.477539062 0.738636374
vt 0.477539062 0.842532456
vt 0.571289062 0.842532456
vt 0.571289062 0.738636374
vt 0.762695312 0.472402573
vt 0.762695312 0.732142866
vt 0.793945312 0.732142866
vt 0.793945312 0.472402573
vt 0.915039062 0.68344152
vt 0.915039062 0.943181813
vt 0.946289062 0.943181813
vt 0.946289062 0.68344152
vt 0.573242188 0.738636374
vt 0.573242188 0.842532456
vt 0.635742188 0.842532456
vt 0.635742188 0.738636374
vt 0.948242188 0.68344152
vt 0.948242188 0.891233742
vt 0.979492188 0.891233742
vt 0.979492188 0.68344152
vt 0.0966796875 0.73538959
vt 0.0966796875 0.891233742
vt 0.127929688 0.891233742
vt 0.127929688 0.73538959
vt 0.762695312 0.73538959
vt 0.762695312 0.891233742
vt 0.793945312 0.891233742
vt 0.793945312 0.73538959
vt 0.637695312 0.738636374
vt 0.637695312 0.894480526
vt 0.668945312 0.894480526
vt 0.668945312 0.738636374
vt 0.670898438 0.738636374
vt 0.670898438 0.894480526
vt 0.702148438 0.894480526
vt 0.702148438 0.738636374
vt 0.159179688 0.787337661
vt 0.159179688 0.839285731
vt 0.221679688 0.839285731
vt 0.221679688 0.787337661
vt 0.704101562 0.738636374
vt 0.704101562 0.842532456
vt 0.735351562 0.842532456
vt 0.735351562 0.738636374
vt 0.819335938 0.839285731
vt 0.819335938 0.891233742
vt 0.881835938 0.891233742
vt 0.881835938 0.839285731
vt 0.0009765625 0.842532456
vt 0.0009765625 0.894480526
vt 0.0634765625 0.894480526
vt 0.0634765625 0.842532456
vt 0.223632812 0.787337661
vt 0.223632812 0.891233742
vt 0.254882812 0.891233742
vt 0.254882812 0.787337661
vt 0.159179688 0.842532456
vt 0.159179688 0.894480526
vt 0.221679688 0.894480526
vt 0.221679688 0.842532456
vt 0.381835938 0.84577924
vt 0.381835938 0.862012982
vt 0.444335938 0.862012982
vt 0.444335938 0.84577924
vt 0.446289062 0.84577924
vt 0.446289062 0.897727251
vt 0.508789062 0.897727251
vt 0.508789062 0.84577924
vt 0.510742188 0.84577924
vt 0.510742188 0.897727251
vt 0.573242188 0.897727251
vt 0.573242188 0.84577924
vt 0.575195312 0.84577924
vt 0.575195312 0.949675322
vt 0.606445312 0.949675322
vt 0.606445312 0.84577924
vt 0.704101562 0.84577924
vt 0.704101562 0.949675322
vt 0.735351562 0.949675322
vt 0.735351562 0.84577924
vt 0.381835938 0.865259767
vt 0.381835938 0.969155848
vt 0.413085938 0.969155848
vt 0.413085938 0.865259767
vt 0.286132812 0.891233742
vt 0.286132812 0.995129883
vt 0.317382812 0.995129883
vt 0.317382812 0.891233742
vt 0.319335938 0.891233742
vt 0.319335938 0.995129883
vt 0.350585938 0.995129883
vt 0.350585938 0.891233742
vt 0.0966796875 0.894480526
vt 0.0966796875 0.998376608
vt 0.127929688 0.998376608
vt 0.127929688 0.894480526
vt 0.223632812 0.894480526
vt 0.223632812 0.998376608
vt 0.254882812 0.998376608
vt 0.254882812 0.894480526
vt 0.762695312 0.894480526
vt 0.762695312 0.998376608
vt 0.793945312 0.998376608
vt 0.793945312 0.894480526
vt 0.819335938 0.894480526
vt 0.819335938 0.998376608
vt 0.850585938 0.998376608
vt 0.850585938 0.894480526
vt 0.852539062 0.894480526
vt 0.852539062 0.946428597
vt 0.883789062 0.946428597
vt 0.883789062 0.894480526
vt 0.948242188 0.894480526
vt 0.948242188 0.946428597
vt 0.979492188 0.946428597
vt 0.979492188 0.894480526
vt 0.0009765625 0.897727251
vt 0.0009765625 0.949675322
vt 0.0322265625 0.949675322
vt 0.0322265625 0.897727251
vt 0.0341796875 0.897727251
vt 0.0341796875 0.949675322
vt 0.0654296875 0.949675322
vt 0.0654296875 0.897727251
vt 0.159179688 0.897727251
vt 0.159179688 0.949675322
vt 0.190429688 0.949675322
vt 0.190429688 0.897727251
vt 0.637695312 0.897727251
vt 0.637695312 0.949675322
vt 0.668945312 0.949675322
vt 0.668945312 0.897727251
vt 0.670898438 0.897727251
vt 0.670898438 0.949675322
vt 0.702148438 0.949675322
vt 0.702148438 0.897727251
vt 0.446289062 0.900974035
vt 0.446289062 0.952922106
vt 0.477539062 0.952922106
vt 0.477539062 0.900974035
vt 0.479492188 0.900974035
vt 0.479492188 0.952922106
vt 0.510742188 0.952922106
vt 0.510742188 0.900974035
g niaohai-mesh_0
f 3/3/3 2/2/2 1/1/1
f 1/1/1 4/4/4 3/3/3
f 7/7/7 6/6/6 5/5/5
f 5/5/5 8/8/8 7/7/7
f 11/11/11 10/10/10 9/9/9
f 9/9/9 12/12/12 11/11/11
f 15/15/15 14/14/14 13/13/13
f 13/13/13 16/16/16 15/15/15
f 19/19/19 18/18/18 17/17/17
f 17/17/17 20/20/20 19/19/19
f 23/23/23 22/22/22 21/21/21
f 21/21/21 24/24/24 23/23/23
f 27/27/27 26/26/26 25/25/25
f 25/25/25 28/28/28 27/27/27
f 31/31/31 30/30/30 29/29/29
f 29/29/29 32/32/32 31/31/31
f 35/35/35 34/34/34 33/33/33
f 33/33/33 36/36/36 35/35/35
f 39/39/39 38/38/38 37/37/37
f 37/37/37 40/40/40 39/39/39
f 43/43/43 42/42/42 41/41/41
f 41/41/41 44/44/44 43/43/43
f 47/47/47 46/46/46 45/45/45
f 45/45/45 48/48/48 47/47/47
f 51/51/51 50/50/50 49/49/49
f 49/49/49 52/52/52 51/51/51
f 55/55/55 54/54/54 53/53/53
f 53/53/53 56/56/56 55/55/55
f 59/59/59 58/58/58 57/57/57
f 57/57/57 60/60/60 59/59/59
f 63/63/63 62/62/62 61/61/61
f 61/61/61 64/64/64 63/63/63
f 67/67/67 66/66/66 65/65/65
f 65/65/65 68/68/68 67/67/67
f 71/71/71 70/70/70 69/69/69
f 69/69/69 72/72/72 71/71/71
f 75/75/75 74/74/74 73/73/73
f 73/73/73 76/76/76 75/75/75
f 79/79/79 78/78/78 77/77/77
f 77/77/77 80/80/80 79/79/79
f 83/83/83 82/82/82 81/81/81
f 81/81/81 84/84/84 83/83/83
f 87/87/87 86/86/86 85/85/85
f 85/85/85 88/88/88 87/87/87
f 91/91/91 90/90/90 89/89/89
f 89/89/89 92/92/92 91/91/91
f 95/95/95 94/94/94 93/93/93
f 93/93/93 96/96/96 95/95/95
f 99/99/99 98/98/98 97/97/97
f 97/97/97 100/100/100 99/99/99
f 103/103/103 102/102/102 101/101/101
f 101/101/101 104/104/104 103/103/103
f 107/107/107 106/106/106 105/105/105
f 105/105/105 108/108/108 107/107/107
f 111/111/111 110/110/110 109/109/109
f 109/109/109 112/112/112 111/111/111
f 115/115/115 114/114/114 113/113/113
f 113/113/113 116/116/116 115/115/115
f 119/119/119 118/118/118 117/117/117
f 117/117/117 120/120/120 119/119/119
f 123/123/123 122/122/122 121/121/121
f 121/121/121 124/124/124 123/123/123
f 127/127/127 126/126/126 125/125/125
f 125/125/125 128/128/128 127/127/127
f 131/131/131 130/130/130 129/129/129
f 129/129/129 132/132/132 131/131/131
f 135/135/135 134/134/134 133/133/133
f 133/133/133 136/136/136 135/135/135
f 139/139/139 138/138/138 137/137/137
f 137/137/137 140/140/140 139/139/139
f 143/143/143 142/142/142 141/141/141
f 141/141/141 144/144/144 143/143/143
f 147/147/147 146/146/146 145/145/145
f 145/145/145 148/148/148 147/147/147
f 151/151/151 150/150/150 149/149/149
f 149/149/149 152/152/152 151/151/151
f 155/155/155 154/154/154 153/153/153
f 153/153/153 156/156/156 155/155/155
f 159/159/159 158/158/158 157/157/157
f 157/157/157 160/160/160 159/159/159
f 163/163/163 162/162/162 161/161/161
f 161/161/161 164/164/164 163/163/163
f 167/167/167 166/166/166 165/165/165
f 165/165/165 168/168/168 167/167/167
f 171/171/171 170/170/170 169/169/169
f 169/169/169 172/172/172 171/171/171
f 175/175/175 174/174/174 173/173/173
f 173/173/173 176/176/176 175/175/175
f 179/179/179 178/178/178 177/177/177
f 177/177/177 180/180/180 179/179/179
f 183/183/183 182/182/182 181/181/181
f 181/181/181 184/184/184 183/183/183
f 187/187/187 186/186/186 185/185/185
f 185/185/185 188/188/188 187/187/187
f 191/191/191 190/190/190 189/189/189
f 189/189/189 192/192/192 191/191/191
f 195/195/195 194/194/194 193/193/193
f 193/193/193 196/196/196 195/195/195
f 199/199/199 198/198/198 197/197/197
f 197/197/197 200/200/200 199/199/199
f 203/203/203 202/202/202 201/201/201
f 201/201/201 204/204/204 203/203/203
f 207/207/207 206/206/206 205/205/205
f 205/205/205 208/208/208 207/207/207
f 211/211/211 210/210/210 209/209/209
f 209/209/209 212/212/212 211/211/211
f 215/215/215 214/214/214 213/213/213
f 213/213/213 216/216/216 215/215/215
f 219/219/219 218/218/218 217/217/217
f 217/217/217 220/220/220 219/219/219
