g yishi_g-mesh
v -672 296 0
v -672 936 0
v -1024 936 0
v -1024 296 0
v -1024 296 0
v -1024 936 0
v -1344 936 0
v -1344 296 0
v -896 168 0
v -896 296 0
v -1184 296 0
v -1184 168 0
v -896 936 0
v -896 1032 0
v -1184 1032 0
v -1184 936 0
v -1184 936 0
v -1184 1032 0
v -1440 1032 0
v -1440 936 0
v -1248 72 0
v -1248 296 0
v -1344 296 0
v -1344 72 0
v -1344 584 0
v -1344 680 0
v -1568 680 0
v -1568 584 0
v -1568 584 0
v -1568 680 0
v -1792 680 0
v -1792 584 0
v -384 488 0
v -384 584 0
v -576 584 0
v -576 488 0
v -576 456 0
v -576 648 0
v -672 648 0
v -672 456 0
v -1344 392 0
v -1344 520 0
v -1472 520 0
v -1472 392 0
v -416 936 0
v -416 1032 0
v -576 1032 0
v -576 936 0
v -576 296 0
v -576 456 0
v -672 456 0
v -672 296 0
v -160 296 0
v -160 360 0
v -384 360 0
v -384 296 0
v -384 296 0
v -384 360 0
v -576 360 0
v -576 296 0
v -1472 1032 0
v -1472 1160 0
v -1568 1160 0
v -1568 1032 0
v -832 168 0
v -832 296 0
v -896 296 0
v -896 168 0
v -832 40 0
v -832 168 0
v -896 168 0
v -896 40 0
v -1376 1032 0
v -1376 1096 0
v -1472 1096 0
v -1472 1032 0
v -1216 1032 0
v -1216 1096 0
v -1312 1096 0
v -1312 1032 0
v -1280 1096 0
v -1280 1160 0
v -1376 1160 0
v -1376 1096 0
v -992 104 0
v -992 168 0
v -1088 168 0
v -1088 104 0
v -1344 296 0
v -1344 392 0
v -1408 392 0
v -1408 296 0
v -1280 8 0
v -1280 72 0
v -1376 72 0
v -1376 8 0
v -608 872 0
v -608 968 0
v -672 968 0
v -672 872 0
v -1344 680 0
v -1344 744 0
v -1440 744 0
v -1440 680 0
v -608 776 0
v -608 872 0
v -672 872 0
v -672 776 0
v -1184 200 0
v -1184 296 0
v -1248 296 0
v -1248 200 0
v -1344 520 0
v -1344 584 0
v -1440 584 0
v -1440 520 0
v -1088 1032 0
v -1088 1096 0
v -1152 1096 0
v -1152 1032 0
v -320 488 0
v -320 552 0
v -384 552 0
v -384 488 0
v -1344 1160 0
v -1344 1224 0
v -1408 1224 0
v -1408 1160 0
v -1440 680 0
v -1440 744 0
v -1504 744 0
v -1504 680 0
v -1440 520 0
v -1440 584 0
v -1504 584 0
v -1504 520 0
v -0 296 0
v -0 328 0
v -96 328 0
v -96 296 0
v -352 456 0
v -352 488 0
v -448 488 0
v -448 456 0
v -800 104 0
v -800 200 0
v -832 200 0
v -832 104 0
v -416 360 0
v -416 392 0
v -512 392 0
v -512 360 0
v -448 456 0
v -448 488 0
v -544 488 0
v -544 456 0
v -512 264 0
v -512 296 0
v -608 296 0
v -608 264 0
v -416 264 0
v -416 296 0
v -512 296 0
v -512 264 0
v -896 1032 0
v -896 1064 0
v -992 1064 0
v -992 1032 0
v -1440 968 0
v -1440 1032 0
v -1472 1032 0
v -1472 968 0
v -384 968 0
v -384 1032 0
v -416 1032 0
v -416 968 0
v -1568 1064 0
v -1568 1128 0
v -1600 1128 0
v -1600 1064 0
v -480 904 0
v -480 936 0
v -544 936 0
v -544 904 0
v -992 1064 0
v -992 1096 0
v -1056 1096 0
v -1056 1064 0
v -832 936 0
v -832 968 0
v -896 968 0
v -896 936 0
v -768 264 0
v -768 296 0
v -832 296 0
v -832 264 0
v -1344 72 0
v -1344 136 0
v -1376 136 0
v -1376 72 0
v -1024 72 0
v -1024 104 0
v -1088 104 0
v -1088 72 0
v -1376 872 0
v -1376 936 0
v -1408 936 0
v -1408 872 0
v -352 424 0
v -352 456 0
v -416 456 0
v -416 424 0
v -544 392 0
v -544 456 0
v -576 456 0
v -576 392 0
v -672 936 0
v -672 968 0
v -736 968 0
v -736 936 0
v -576 936 0
v -576 1000 0
v -608 1000 0
v -608 936 0
v -576 872 0
v -576 936 0
v -608 936 0
v -608 872 0
v -1344 872 0
v -1344 936 0
v -1376 936 0
v -1376 872 0
v -992 1032 0
v -992 1064 0
v -1056 1064 0
v -1056 1032 0
v -512 360 0
v -512 392 0
v -576 392 0
v -576 360 0
v -96 296 0
v -96 328 0
v -160 328 0
v -160 296 0
v -1344 808 0
v -1344 872 0
v -1376 872 0
v -1376 808 0
v -416 1032 0
v -416 1064 0
v -480 1064 0
v -480 1032 0
v -800 40 0
v -800 104 0
v -832 104 0
v -832 40 0
v -1664 552 0
v -1664 584 0
v -1728 584 0
v -1728 552 0
v -1728 552 0
v -1728 584 0
v -1792 584 0
v -1792 552 0
v -640 648 0
v -640 680 0
v -672 680 0
v -672 648 0
v -1504 680 0
v -1504 712 0
v -1536 712 0
v -1536 680 0
v -1344 744 0
v -1344 776 0
v -1376 776 0
v -1376 744 0
v -640 744 0
v -640 776 0
v -672 776 0
v -672 744 0
v -544 872 0
v -544 904 0
v -576 904 0
v -576 872 0
v -1344 264 0
v -1344 296 0
v -1376 296 0
v -1376 264 0
v -1216 168 0
v -1216 200 0
v -1248 200 0
v -1248 168 0
v -1088 136 0
v -1088 168 0
v -1120 168 0
v -1120 136 0
v -544 584 0
v -544 616 0
v -576 616 0
v -576 584 0
v -1504 552 0
v -1504 584 0
v -1536 584 0
v -1536 552 0
v -608 968 0
v -608 1000 0
v -640 1000 0
v -640 968 0
v -1312 1160 0
v -1312 1192 0
v -1344 1192 0
v -1344 1160 0
v -1248 1096 0
v -1248 1128 0
v -1280 1128 0
v -1280 1096 0
v -544 904 0
v -544 936 0
v -576 936 0
v -576 904 0
v -736 936 0
v -736 968 0
v -768 968 0
v -768 936 0
v -480 1032 0
v -480 1064 0
v -512 1064 0
v -512 1032 0
v -1344 1032 0
v -1344 1064 0
v -1376 1064 0
v -1376 1032 0
v -1472 1000 0
v -1472 1032 0
v -1504 1032 0
v -1504 1000 0
v -1184 1032 0
v -1184 1064 0
v -1216 1064 0
v -1216 1032 0
v -1440 1096 0
v -1440 1128 0
v -1472 1128 0
v -1472 1096 0
v -1312 1064 0
v -1312 1096 0
v -1344 1096 0
v -1344 1064 0
vt 0.0009765625 0.000982344151
vt 0.0009765625 0.629665971
vt 0.344726562 0.629665971
vt 0.344726562 0.000982344151
vt 0.346679688 0.000982344151
vt 0.346679688 0.629665971
vt 0.659179688 0.629665971
vt 0.659179688 0.000982344151
vt 0.661132812 0.000982344151
vt 0.661132812 0.126719058
vt 0.942382812 0.126719058
vt 0.942382812 0.000982344151
vt 0.661132812 0.128683686
vt 0.661132812 0.222986221
vt 0.942382812 0.222986221
vt 0.942382812 0.128683686
vt 0.661132812 0.22495091
vt 0.661132812 0.319253445
vt 0.911132812 0.319253445
vt 0.911132812 0.22495091
vt 0.661132812 0.321218073
vt 0.661132812 0.541257381
vt 0.754882812 0.541257381
vt 0.754882812 0.321218073
vt 0.756835938 0.321218073
vt 0.756835938 0.415520608
vt 0.975585938 0.415520608
vt 0.975585938 0.321218073
vt 0.756835938 0.417485237
vt 0.756835938 0.511787832
vt 0.975585938 0.511787832
vt 0.975585938 0.417485237
vt 0.756835938 0.51375246
vt 0.756835938 0.608054996
vt 0.944335938 0.608054996
vt 0.944335938 0.51375246
vt 0.661132812 0.54322201
vt 0.661132812 0.73182714
vt 0.754882812 0.73182714
vt 0.754882812 0.54322201
vt 0.756835938 0.610019684
vt 0.756835938 0.735756397
vt 0.881835938 0.735756397
vt 0.881835938 0.610019684
vt 0.0009765625 0.631630659
vt 0.0009765625 0.725933194
vt 0.157226562 0.725933194
vt 0.157226562 0.631630659
vt 0.883789062 0.610019684
vt 0.883789062 0.767190576
vt 0.977539062 0.767190576
vt 0.977539062 0.610019684
vt 0.159179688 0.631630659
vt 0.159179688 0.694499016
vt 0.377929688 0.694499016
vt 0.377929688 0.631630659
vt 0.379882812 0.631630659
vt 0.379882812 0.694499016
vt 0.567382812 0.694499016
vt 0.567382812 0.631630659
vt 0.159179688 0.696463645
vt 0.159179688 0.822200418
vt 0.252929688 0.822200418
vt 0.252929688 0.696463645
vt 0.569335938 0.631630659
vt 0.569335938 0.757367373
vt 0.631835938 0.757367373
vt 0.631835938 0.631630659
vt 0.254882812 0.696463645
vt 0.254882812 0.822200418
vt 0.317382812 0.822200418
vt 0.317382812 0.696463645
vt 0.319335938 0.696463645
vt 0.319335938 0.759332061
vt 0.413085938 0.759332061
vt 0.413085938 0.696463645
vt 0.415039062 0.696463645
vt 0.415039062 0.759332061
vt 0.508789062 0.759332061
vt 0.508789062 0.696463645
vt 0.0009765625 0.727897882
vt 0.0009765625 0.790766239
vt 0.0947265625 0.790766239
vt 0.0947265625 0.727897882
vt 0.661132812 0.733791709
vt 0.661132812 0.796660125
vt 0.754882812 0.796660125
vt 0.754882812 0.733791709
vt 0.756835938 0.737721026
vt 0.756835938 0.832023561
vt 0.819335938 0.832023561
vt 0.819335938 0.737721026
vt 0.319335938 0.76129663
vt 0.319335938 0.824165046
vt 0.413085938 0.824165046
vt 0.413085938 0.76129663
vt 0.569335938 0.759332061
vt 0.569335938 0.853634596
vt 0.631835938 0.853634596
vt 0.631835938 0.759332061
vt 0.415039062 0.76129663
vt 0.415039062 0.824165046
vt 0.508789062 0.824165046
vt 0.508789062 0.76129663
vt 0.883789062 0.769155204
vt 0.883789062 0.863457739
vt 0.946289062 0.863457739
vt 0.946289062 0.769155204
vt 0.0009765625 0.792730808
vt 0.0009765625 0.887033403
vt 0.0634765625 0.887033403
vt 0.0634765625 0.792730808
vt 0.661132812 0.798624754
vt 0.661132812 0.861493111
vt 0.754882812 0.861493111
vt 0.754882812 0.798624754
vt 0.0654296875 0.792730808
vt 0.0654296875 0.855599225
vt 0.127929688 0.855599225
vt 0.127929688 0.792730808
vt 0.159179688 0.824165046
vt 0.159179688 0.887033403
vt 0.221679688 0.887033403
vt 0.221679688 0.824165046
vt 0.223632812 0.824165046
vt 0.223632812 0.887033403
vt 0.286132812 0.887033403
vt 0.286132812 0.824165046
vt 0.319335938 0.826129675
vt 0.319335938 0.888998032
vt 0.381835938 0.888998032
vt 0.381835938 0.826129675
vt 0.383789062 0.826129675
vt 0.383789062 0.888998032
vt 0.446289062 0.888998032
vt 0.446289062 0.826129675
vt 0.448242188 0.826129675
vt 0.448242188 0.857563853
vt 0.541992188 0.857563853
vt 0.541992188 0.826129675
vt 0.756835938 0.83398819
vt 0.756835938 0.865422368
vt 0.850585938 0.865422368
vt 0.850585938 0.83398819
vt 0.948242188 0.769155204
vt 0.948242188 0.863457739
vt 0.979492188 0.863457739
vt 0.979492188 0.769155204
vt 0.448242188 0.859528482
vt 0.448242188 0.89096266
vt 0.541992188 0.89096266
vt 0.541992188 0.859528482
vt 0.661132812 0.863457739
vt 0.661132812 0.894891977
vt 0.754882812 0.894891977
vt 0.754882812 0.863457739
vt 0.883789062 0.865422368
vt 0.883789062 0.896856606
vt 0.977539062 0.896856606
vt 0.977539062 0.865422368
vt 0.756835938 0.867387056
vt 0.756835938 0.898821235
vt 0.850585938 0.898821235
vt 0.850585938 0.867387056
vt 0.0009765625 0.888998032
vt 0.0009765625 0.92043221
vt 0.0947265625 0.92043221
vt 0.0947265625 0.888998032
vt 0.569335938 0.855599225
vt 0.569335938 0.918467581
vt 0.600585938 0.918467581
vt 0.600585938 0.855599225
vt 0.602539062 0.855599225
vt 0.602539062 0.918467581
vt 0.633789062 0.918467581
vt 0.633789062 0.855599225
vt 0.0966796875 0.857563853
vt 0.0966796875 0.92043221
vt 0.127929688 0.92043221
vt 0.127929688 0.857563853
vt 0.159179688 0.888998032
vt 0.159179688 0.92043221
vt 0.221679688 0.92043221
vt 0.221679688 0.888998032
vt 0.223632812 0.888998032
vt 0.223632812 0.92043221
vt 0.286132812 0.92043221
vt 0.286132812 0.888998032
vt 0.319335938 0.89096266
vt 0.319335938 0.922396839
vt 0.381835938 0.922396839
vt 0.381835938 0.89096266
vt 0.383789062 0.89096266
vt 0.383789062 0.922396839
vt 0.446289062 0.922396839
vt 0.446289062 0.89096266
vt 0.448242188 0.892927289
vt 0.448242188 0.955795705
vt 0.479492188 0.955795705
vt 0.479492188 0.892927289
vt 0.481445312 0.892927289
vt 0.481445312 0.924361467
vt 0.543945312 0.924361467
vt 0.543945312 0.892927289
vt 0.661132812 0.896856606
vt 0.661132812 0.959724963
vt 0.692382812 0.959724963
vt 0.692382812 0.896856606
vt 0.883789062 0.898821235
vt 0.883789062 0.930255413
vt 0.946289062 0.930255413
vt 0.946289062 0.898821235
vt 0.694335938 0.896856606
vt 0.694335938 0.959724963
vt 0.725585938 0.959724963
vt 0.725585938 0.896856606
vt 0.756835938 0.900785863
vt 0.756835938 0.932220042
vt 0.819335938 0.932220042
vt 0.819335938 0.900785863
vt 0.948242188 0.898821235
vt 0.948242188 0.961689591
vt 0.979492188 0.961689591
vt 0.979492188 0.898821235
vt 0.821289062 0.900785863
vt 0.821289062 0.96365422
vt 0.852539062 0.96365422
vt 0.852539062 0.900785863
vt 0.569335938 0.92043221
vt 0.569335938 0.983300567
vt 0.600585938 0.983300567
vt 0.600585938 0.92043221
vt 0.0009765625 0.922396839
vt 0.0009765625 0.953831017
vt 0.0634765625 0.953831017
vt 0.0634765625 0.922396839
vt 0.0654296875 0.922396839
vt 0.0654296875 0.953831017
vt 0.127929688 0.953831017
vt 0.127929688 0.922396839
vt 0.159179688 0.922396839
vt 0.159179688 0.953831017
vt 0.221679688 0.953831017
vt 0.221679688 0.922396839
vt 0.602539062 0.92043221
vt 0.602539062 0.983300567
vt 0.633789062 0.983300567
vt 0.633789062 0.92043221
vt 0.223632812 0.922396839
vt 0.223632812 0.953831017
vt 0.286132812 0.953831017
vt 0.286132812 0.922396839
vt 0.319335938 0.924361467
vt 0.319335938 0.987229884
vt 0.350585938 0.987229884
vt 0.350585938 0.924361467
vt 0.352539062 0.924361467
vt 0.352539062 0.955795705
vt 0.415039062 0.955795705
vt 0.415039062 0.924361467
vt 0.481445312 0.926326156
vt 0.481445312 0.957760334
vt 0.543945312 0.957760334
vt 0.543945312 0.926326156
vt 0.883789062 0.932220042
vt 0.883789062 0.96365422
vt 0.915039062 0.96365422
vt 0.915039062 0.932220042
vt 0.756835938 0.93418467
vt 0.756835938 0.965618849
vt 0.788085938 0.965618849
vt 0.788085938 0.93418467
vt 0.0009765625 0.955795705
vt 0.0009765625 0.987229884
vt 0.0322265625 0.987229884
vt 0.0322265625 0.955795705
vt 0.0341796875 0.955795705
vt 0.0341796875 0.987229884
vt 0.0654296875 0.987229884
vt 0.0654296875 0.955795705
vt 0.0673828125 0.955795705
vt 0.0673828125 0.987229884
vt 0.0986328125 0.987229884
vt 0.0986328125 0.955795705
vt 0.100585938 0.955795705
vt 0.100585938 0.987229884
vt 0.131835938 0.987229884
vt 0.131835938 0.955795705
vt 0.159179688 0.955795705
vt 0.159179688 0.987229884
vt 0.190429688 0.987229884
vt 0.190429688 0.955795705
vt 0.192382812 0.955795705
vt 0.192382812 0.987229884
vt 0.223632812 0.987229884
vt 0.223632812 0.955795705
vt 0.225585938 0.955795705
vt 0.225585938 0.987229884
vt 0.256835938 0.987229884
vt 0.256835938 0.955795705
vt 0.258789062 0.955795705
vt 0.258789062 0.987229884
vt 0.290039062 0.987229884
vt 0.290039062 0.955795705
vt 0.352539062 0.957760334
vt 0.352539062 0.989194512
vt 0.383789062 0.989194512
vt 0.383789062 0.957760334
vt 0.385742188 0.957760334
vt 0.385742188 0.989194512
vt 0.416992188 0.989194512
vt 0.416992188 0.957760334
vt 0.448242188 0.957760334
vt 0.448242188 0.989194512
vt 0.479492188 0.989194512
vt 0.479492188 0.957760334
vt 0.481445312 0.959724963
vt 0.481445312 0.991159141
vt 0.512695312 0.991159141
vt 0.512695312 0.959724963
vt 0.514648438 0.959724963
vt 0.514648438 0.991159141
vt 0.545898438 0.991159141
vt 0.545898438 0.959724963
vt 0.661132812 0.961689591
vt 0.661132812 0.99312377
vt 0.692382812 0.99312377
vt 0.692382812 0.961689591
vt 0.694335938 0.961689591
vt 0.694335938 0.99312377
vt 0.725585938 0.99312377
vt 0.725585938 0.961689591
vt 0.948242188 0.96365422
vt 0.948242188 0.995088398
vt 0.979492188 0.995088398
vt 0.979492188 0.96365422
vt 0.821289062 0.965618849
vt 0.821289062 0.997053027
vt 0.852539062 0.997053027
vt 0.852539062 0.965618849
vt 0.883789062 0.965618849
vt 0.883789062 0.997053027
vt 0.915039062 0.997053027
vt 0.915039062 0.965618849
vt 0.756835938 0.967583477
vt 0.756835938 0.999017656
vt 0.788085938 0.999017656
vt 0.788085938 0.967583477
g yishi_g-mesh_0
f 3/3/3 2/2/2 1/1/1
f 1/1/1 4/4/4 3/3/3
f 7/7/7 6/6/6 5/5/5
f 5/5/5 8/8/8 7/7/7
f 11/11/11 10/10/10 9/9/9
f 9/9/9 12/12/12 11/11/11
f 15/15/15 14/14/14 13/13/13
f 13/13/13 16/16/16 15/15/15
f 19/19/19 18/18/18 17/17/17
f 17/17/17 20/20/20 19/19/19
f 23/23/23 22/22/22 21/21/21
f 21/21/21 24/24/24 23/23/23
f 27/27/27 26/26/26 25/25/25
f 25/25/25 28/28/28 27/27/27
f 31/31/31 30/30/30 29/29/29
f 29/29/29 32/32/32 31/31/31
f 35/35/35 34/34/34 33/33/33
f 33/33/33 36/36/36 35/35/35
f 39/39/39 38/38/38 37/37/37
f 37/37/37 40/40/40 39/39/39
f 43/43/43 42/42/42 41/41/41
f 41/41/41 44/44/44 43/43/43
f 47/47/47 46/46/46 45/45/45
f 45/45/45 48/48/48 47/47/47
f 51/51/51 50/50/50 49/49/49
f 49/49/49 52/52/52 51/51/51
f 55/55/55 54/54/54 53/53/53
f 53/53/53 56/56/56 55/55/55
f 59/59/59 58/58/58 57/57/57
f 57/57/57 60/60/60 59/59/59
f 63/63/63 62/62/62 61/61/61
f 61/61/61 64/64/64 63/63/63
f 67/67/67 66/66/66 65/65/65
f 65/65/65 68/68/68 67/67/67
f 71/71/71 70/70/70 69/69/69
f 69/69/69 72/72/72 71/71/71
f 75/75/75 74/74/74 73/73/73
f 73/73/73 76/76/76 75/75/75
f 79/79/79 78/78/78 77/77/77
f 77/77/77 80/80/80 79/79/79
f 83/83/83 82/82/82 81/81/81
f 81/81/81 84/84/84 83/83/83
f 87/87/87 86/86/86 85/85/85
f 85/85/85 88/88/88 87/87/87
f 91/91/91 90/90/90 89/89/89
f 89/89/89 92/92/92 91/91/91
f 95/95/95 94/94/94 93/93/93
f 93/93/93 96/96/96 95/95/95
f 99/99/99 98/98/98 97/97/97
f 97/97/97 100/100/100 99/99/99
f 103/103/103 102/102/102 101/101/101
f 101/101/101 104/104/104 103/103/103
f 107/107/107 106/106/106 105/105/105
f 105/105/105 108/108/108 107/107/107
f 111/111/111 110/110/110 109/109/109
f 109/109/109 112/112/112 111/111/111
f 115/115/115 114/114/114 113/113/113
f 113/113/113 116/116/116 115/115/115
f 119/119/119 118/118/118 117/117/117
f 117/117/117 120/120/120 119/119/119
f 123/123/123 122/122/122 121/121/121
f 121/121/121 124/124/124 123/123/123
f 127/127/127 126/126/126 125/125/125
f 125/125/125 128/128/128 127/127/127
f 131/131/131 130/130/130 129/129/129
f 129/129/129 132/132/132 131/131/131
f 135/135/135 134/134/134 133/133/133
f 133/133/133 136/136/136 135/135/135
f 139/139/139 138/138/138 137/137/137
f 137/137/137 140/140/140 139/139/139
f 143/143/143 142/142/142 141/141/141
f 141/141/141 144/144/144 143/143/143
f 147/147/147 146/146/146 145/145/145
f 145/145/145 148/148/148 147/147/147
f 151/151/151 150/150/150 149/149/149
f 149/149/149 152/152/152 151/151/151
f 155/155/155 154/154/154 153/153/153
f 153/153/153 156/156/156 155/155/155
f 159/159/159 158/158/158 157/157/157
f 157/157/157 160/160/160 159/159/159
f 163/163/163 162/162/162 161/161/161
f 161/161/161 164/164/164 163/163/163
f 167/167/167 166/166/166 165/165/165
f 165/165/165 168/168/168 167/167/167
f 171/171/171 170/170/170 169/169/169
f 169/169/169 172/172/172 171/171/171
f 175/175/175 174/174/174 173/173/173
f 173/173/173 176/176/176 175/175/175
f 179/179/179 178/178/178 177/177/177
f 177/177/177 180/180/180 179/179/179
f 183/183/183 182/182/182 181/181/181
f 181/181/181 184/184/184 183/183/183
f 187/187/187 186/186/186 185/185/185
f 185/185/185 188/188/188 187/187/187
f 191/191/191 190/190/190 189/189/189
f 189/189/189 192/192/192 191/191/191
f 195/195/195 194/194/194 193/193/193
f 193/193/193 196/196/196 195/195/195
f 199/199/199 198/198/198 197/197/197
f 197/197/197 200/200/200 199/199/199
f 203/203/203 202/202/202 201/201/201
f 201/201/201 204/204/204 203/203/203
f 207/207/207 206/206/206 205/205/205
f 205/205/205 208/208/208 207/207/207
f 211/211/211 210/210/210 209/209/209
f 209/209/209 212/212/212 211/211/211
f 215/215/215 214/214/214 213/213/213
f 213/213/213 216/216/216 215/215/215
f 219/219/219 218/218/218 217/217/217
f 217/217/217 220/220/220 219/219/219
f 223/223/223 222/222/222 221/221/221
f 221/221/221 224/224/224 223/223/223
f 227/227/227 226/226/226 225/225/225
f 225/225/225 228/228/228 227/227/227
f 231/231/231 230/230/230 229/229/229
f 229/229/229 232/232/232 231/231/231
f 235/235/235 234/234/234 233/233/233
f 233/233/233 236/236/236 235/235/235
f 239/239/239 238/238/238 237/237/237
f 237/237/237 240/240/240 239/239/239
f 243/243/243 242/242/242 241/241/241
f 241/241/241 244/244/244 243/243/243
f 247/247/247 246/246/246 245/245/245
f 245/245/245 248/248/248 247/247/247
f 251/251/251 250/250/250 249/249/249
f 249/249/249 252/252/252 251/251/251
f 255/255/255 254/254/254 253/253/253
f 253/253/253 256/256/256 255/255/255
f 259/259/259 258/258/258 257/257/257
f 257/257/257 260/260/260 259/259/259
f 263/263/263 262/262/262 261/261/261
f 261/261/261 264/264/264 263/263/263
f 267/267/267 266/266/266 265/265/265
f 265/265/265 268/268/268 267/267/267
f 271/271/271 270/270/270 269/269/269
f 269/269/269 272/272/272 271/271/271
f 275/275/275 274/274/274 273/273/273
f 273/273/273 276/276/276 275/275/275
f 279/279/279 278/278/278 277/277/277
f 277/277/277 280/280/280 279/279/279
f 283/283/283 282/282/282 281/281/281
f 281/281/281 284/284/284 283/283/283
f 287/287/287 286/286/286 285/285/285
f 285/285/285 288/288/288 287/287/287
f 291/291/291 290/290/290 289/289/289
f 289/289/289 292/292/292 291/291/291
f 295/295/295 294/294/294 293/293/293
f 293/293/293 296/296/296 295/295/295
f 299/299/299 298/298/298 297/297/297
f 297/297/297 300/300/300 299/299/299
f 303/303/303 302/302/302 301/301/301
f 301/301/301 304/304/304 303/303/303
f 307/307/307 306/306/306 305/305/305
f 305/305/305 308/308/308 307/307/307
f 311/311/311 310/310/310 309/309/309
f 309/309/309 312/312/312 311/311/311
f 315/315/315 314/314/314 313/313/313
f 313/313/313 316/316/316 315/315/315
f 319/319/319 318/318/318 317/317/317
f 317/317/317 320/320/320 319/319/319
f 323/323/323 322/322/322 321/321/321
f 321/321/321 324/324/324 323/323/323
f 327/327/327 326/326/326 325/325/325
f 325/325/325 328/328/328 327/327/327
f 331/331/331 330/330/330 329/329/329
f 329/329/329 332/332/332 331/331/331
f 335/335/335 334/334/334 333/333/333
f 333/333/333 336/336/336 335/335/335
f 339/339/339 338/338/338 337/337/337
f 337/337/337 340/340/340 339/339/339
f 343/343/343 342/342/342 341/341/341
f 341/341/341 344/344/344 343/343/343
f 347/347/347 346/346/346 345/345/345
f 345/345/345 348/348/348 347/347/347
