g nandaketa-mesh
v -1376 422 0
v -1376 1158 0
v -1856 1158 0
v -1856 422 0
v -896 422 0
v -896 1158 0
v -1376 1158 0
v -1376 422 0
v -544 870 0
v -544 1382 0
v -896 1382 0
v -896 870 0
v -1120 134 0
v -1120 422 0
v -1536 422 0
v -1536 134 0
v -1472 1158 0
v -1472 1542 0
v -1664 1542 0
v -1664 1158 0
v -192 774 0
v -192 1094 0
v -384 1094 0
v -384 774 0
v -192 454 0
v -192 774 0
v -384 774 0
v -384 454 0
v -32 1446 0
v -32 1670 0
v -288 1670 0
v -288 1446 0
v -384 1094 0
v -384 1382 0
v -544 1382 0
v -544 1094 0
v -704 6 0
v -704 230 0
v -896 230 0
v -896 6 0
v -384 838 0
v -384 1094 0
v -544 1094 0
v -544 838 0
v -320 262 0
v -320 454 0
v -512 454 0
v -512 262 0
v -1248 1158 0
v -1248 1318 0
v -1472 1318 0
v -1472 1158 0
v -704 710 0
v -704 870 0
v -896 870 0
v -896 710 0
v -1600 262 0
v -1600 422 0
v -1792 422 0
v -1792 262 0
v -928 6 0
v -928 102 0
v -1248 102 0
v -1248 6 0
v -1248 6 0
v -1248 102 0
v -1536 102 0
v -1536 6 0
v -960 134 0
v -960 294 0
v -1120 294 0
v -1120 134 0
v -896 1158 0
v -896 1254 0
v -1120 1254 0
v -1120 1158 0
v -288 1382 0
v -288 1574 0
v -384 1574 0
v -384 1382 0
v -576 1510 0
v -576 1638 0
v -704 1638 0
v -704 1510 0
v -1056 1254 0
v -1056 1350 0
v -1216 1350 0
v -1216 1254 0
v -288 1222 0
v -288 1382 0
v -384 1382 0
v -384 1222 0
v -1888 678 0
v -1888 774 0
v -2016 774 0
v -2016 678 0
v -1952 774 0
v -1952 902 0
v -2047 902 0
v -2047 774 0
v -160 1350 0
v -160 1446 0
v -288 1446 0
v -288 1350 0
v -512 1382 0
v -512 1478 0
v -640 1478 0
v -640 1382 0
v -384 1382 0
v -384 1478 0
v -512 1478 0
v -512 1382 0
v -1536 70 0
v -1536 166 0
v -1632 166 0
v -1632 70 0
v -1888 1094 0
v -1888 1190 0
v -1984 1190 0
v -1984 1094 0
v -1792 1158 0
v -1792 1254 0
v -1888 1254 0
v -1888 1158 0
v -1184 1350 0
v -1184 1446 0
v -1280 1446 0
v -1280 1350 0
v -320 1094 0
v -320 1222 0
v -384 1222 0
v -384 1094 0
v -704 1382 0
v -704 1446 0
v -832 1446 0
v -832 1382 0
v -896 102 0
v -896 230 0
v -960 230 0
v -960 102 0
v -832 454 0
v -832 582 0
v -896 582 0
v -896 454 0
v -160 742 0
v -160 966 0
v -192 966 0
v -192 742 0
v -160 518 0
v -160 742 0
v -192 742 0
v -192 518 0
v -832 1382 0
v -832 1446 0
v -928 1446 0
v -928 1382 0
v -896 1254 0
v -896 1350 0
v -960 1350 0
v -960 1254 0
v -1952 1190 0
v -1952 1286 0
v -2016 1286 0
v -2016 1190 0
v -1696 1158 0
v -1696 1254 0
v -1760 1254 0
v -1760 1158 0
v -832 358 0
v -832 454 0
v -896 454 0
v -896 358 0
v -384 646 0
v -384 838 0
v -416 838 0
v -416 646 0
v -1024 0 0
v -1024 6 0
v -1216 6 0
v -1216 0 0
v -1536 326 0
v -1536 422 0
v -1600 422 0
v -1600 326 0
v -1536 230 0
v -1536 326 0
v -1600 326 0
v -1600 230 0
v -1632 166 0
v -1632 262 0
v -1696 262 0
v -1696 166 0
v -640 774 0
v -640 870 0
v -704 870 0
v -704 774 0
v -1856 582 0
v -1856 742 0
v -1888 742 0
v -1888 582 0
v -1216 0 0
v -1216 6 0
v -1376 6 0
v -1376 0 0
v -384 486 0
v -384 646 0
v -416 646 0
v -416 486 0
v -1408 1318 0
v -1408 1382 0
v -1472 1382 0
v -1472 1318 0
v -224 1286 0
v -224 1350 0
v -288 1350 0
v -288 1286 0
v -1856 998 0
v -1856 1126 0
v -1888 1126 0
v -1888 998 0
v -1856 454 0
v -1856 582 0
v -1888 582 0
v -1888 454 0
v -1632 102 0
v -1632 166 0
v -1696 166 0
v -1696 102 0
v -1056 294 0
v -1056 358 0
v -1120 358 0
v -1120 294 0
v -896 358 0
v -896 422 0
v -960 422 0
v -960 358 0
v -1888 486 0
v -1888 582 0
v -1920 582 0
v -1920 486 0
v -288 358 0
v -288 454 0
v -320 454 0
v -320 358 0
v -1600 1542 0
v -1600 1574 0
v -1696 1574 0
v -1696 1542 0
v -1504 1542 0
v -1504 1574 0
v -1600 1574 0
v -1600 1542 0
v -480 1478 0
v -480 1510 0
v -576 1510 0
v -576 1478 0
v -1856 902 0
v -1856 998 0
v -1888 998 0
v -1888 902 0
v -576 1478 0
v -576 1510 0
v -672 1510 0
v -672 1478 0
v -1888 582 0
v -1888 678 0
v -1920 678 0
v -1920 582 0
v -1920 1190 0
v -1920 1254 0
v -1952 1254 0
v -1952 1190 0
v -1824 1254 0
v -1824 1286 0
v -1888 1286 0
v -1888 1254 0
v -1920 1030 0
v -1920 1094 0
v -1952 1094 0
v -1952 1030 0
v -256 1094 0
v -256 1126 0
v -320 1126 0
v -320 1094 0
v -1664 1158 0
v -1664 1222 0
v -1696 1222 0
v -1696 1158 0
v -1024 1254 0
v -1024 1318 0
v -1056 1318 0
v -1056 1254 0
v -736 230 0
v -736 262 0
v -800 262 0
v -800 230 0
v -1216 1190 0
v -1216 1254 0
v -1248 1254 0
v -1248 1190 0
v -1280 1350 0
v -1280 1414 0
v -1312 1414 0
v -1312 1350 0
v -1696 198 0
v -1696 262 0
v -1728 262 0
v -1728 198 0
v -1216 1286 0
v -1216 1350 0
v -1248 1350 0
v -1248 1286 0
v -640 1414 0
v -640 1478 0
v -672 1478 0
v -672 1414 0
v -288 1574 0
v -288 1638 0
v -320 1638 0
v -320 1574 0
v -2016 902 0
v -2016 966 0
v -2047 966 0
v -2047 902 0
v -1600 166 0
v -1600 230 0
v -1632 230 0
v -1632 166 0
v -1728 198 0
v -1728 262 0
v -1760 262 0
v -1760 198 0
v -352 230 0
v -352 262 0
v -416 262 0
v -416 230 0
v -960 102 0
v -960 134 0
v -1024 134 0
v -1024 102 0
v -1536 38 0
v -1536 70 0
v -1600 70 0
v -1600 38 0
v -896 38 0
v -896 102 0
v -928 102 0
v -928 38 0
v -1248 102 0
v -1248 134 0
v -1312 134 0
v -1312 102 0
v -960 390 0
v -960 422 0
v -1024 422 0
v -1024 390 0
v -1952 614 0
v -1952 678 0
v -1984 678 0
v -1984 614 0
v -1920 774 0
v -1920 838 0
v -1952 838 0
v -1952 774 0
v -448 774 0
v -448 838 0
v -480 838 0
v -480 774 0
v -864 582 0
v -864 646 0
v -896 646 0
v -896 582 0
v -544 358 0
v -544 422 0
v -576 422 0
v -576 358 0
v -224 422 0
v -224 454 0
v -288 454 0
v -288 422 0
v -416 454 0
v -416 486 0
v -480 486 0
v -480 454 0
v -64 1414 0
v -64 1446 0
v -128 1446 0
v -128 1414 0
v -1920 614 0
v -1920 678 0
v -1952 678 0
v -1952 614 0
v -1920 550 0
v -1920 614 0
v -1952 614 0
v -1952 550 0
v -768 678 0
v -768 710 0
v -832 710 0
v -832 678 0
v -832 678 0
v -832 710 0
v -896 710 0
v -896 678 0
v -512 358 0
v -512 422 0
v -544 422 0
v -544 358 0
v -512 294 0
v -512 358 0
v -544 358 0
v -544 294 0
v -800 486 0
v -800 550 0
v -832 550 0
v -832 486 0
v -800 422 0
v -800 486 0
v -832 486 0
v -832 422 0
v -192 1670 0
v -192 1702 0
v -256 1702 0
v -256 1670 0
v -736 1446 0
v -736 1478 0
v -800 1478 0
v -800 1446 0
v -288 294 0
v -288 358 0
v -320 358 0
v -320 294 0
v -128 1670 0
v -128 1702 0
v -192 1702 0
v -192 1670 0
v -416 774 0
v -416 838 0
v -448 838 0
v -448 774 0
v -416 710 0
v -416 774 0
v -448 774 0
v -448 710 0
v -800 1446 0
v -800 1478 0
v -864 1478 0
v -864 1446 0
v -1888 1030 0
v -1888 1094 0
v -1920 1094 0
v -1920 1030 0
v -1792 358 0
v -1792 422 0
v -1824 422 0
v -1824 358 0
v -544 1542 0
v -544 1606 0
v -576 1606 0
v -576 1542 0
v -0 1510 0
v -0 1574 0
v -32 1574 0
v -32 1510 0
v -1888 966 0
v -1888 1030 0
v -1920 1030 0
v -1920 966 0
v -1664 1478 0
v -1664 1542 0
v -1696 1542 0
v -1696 1478 0
v -1408 102 0
v -1408 134 0
v -1472 134 0
v -1472 102 0
v -1792 294 0
v -1792 358 0
v -1824 358 0
v -1824 294 0
v -608 1638 0
v -608 1670 0
v -672 1670 0
v -672 1638 0
v -1472 102 0
v -1472 134 0
v -1536 134 0
v -1536 102 0
v -1984 902 0
v -1984 934 0
v -2016 934 0
v -2016 902 0
v -1568 166 0
v -1568 198 0
v -1600 198 0
v -1600 166 0
v -1120 1222 0
v -1120 1254 0
v -1152 1254 0
v -1152 1222 0
v -1248 1318 0
v -1248 1350 0
v -1280 1350 0
v -1280 1318 0
v -192 1318 0
v -192 1350 0
v -224 1350 0
v -224 1318 0
v -992 1254 0
v -992 1286 0
v -1024 1286 0
v -1024 1254 0
v -1376 1318 0
v -1376 1350 0
v -1408 1350 0
v -1408 1318 0
v -1824 390 0
v -1824 422 0
v -1856 422 0
v -1856 390 0
v -1024 294 0
v -1024 326 0
v -1056 326 0
v -1056 294 0
v -672 742 0
v -672 774 0
v -704 774 0
v -704 742 0
v -1088 390 0
v -1088 422 0
v -1120 422 0
v -1120 390 0
v -1760 230 0
v -1760 262 0
v -1792 262 0
v -1792 230 0
v -1536 198 0
v -1536 230 0
v -1568 230 0
v -1568 198 0
v -480 806 0
v -480 838 0
v -512 838 0
v -512 806 0
v -928 230 0
v -928 262 0
v -960 262 0
v -960 230 0
v -800 230 0
v -800 262 0
v -832 262 0
v -832 230 0
v -1696 166 0
v -1696 198 0
v -1728 198 0
v -1728 166 0
v -544 1510 0
v -544 1542 0
v -576 1542 0
v -576 1510 0
v -0 1478 0
v -0 1510 0
v -32 1510 0
v -32 1478 0
v -1664 1446 0
v -1664 1478 0
v -1696 1478 0
v -1696 1446 0
v -1280 1318 0
v -1280 1350 0
v -1312 1350 0
v -1312 1318 0
v -1216 1158 0
v -1216 1190 0
v -1248 1190 0
v -1248 1158 0
v -672 1638 0
v -672 1670 0
v -704 1670 0
v -704 1638 0
v -672 1382 0
v -672 1414 0
v -704 1414 0
v -704 1382 0
v -896 1350 0
v -896 1382 0
v -928 1382 0
v -928 1350 0
v -1152 1350 0
v -1152 1382 0
v -1184 1382 0
v -1184 1350 0
v -128 1382 0
v -128 1414 0
v -160 1414 0
v -160 1382 0
v -128 1414 0
v -128 1446 0
v -160 1446 0
v -160 1414 0
v -512 1510 0
v -512 1542 0
v -544 1542 0
v -544 1510 0
v -384 1478 0
v -384 1510 0
v -416 1510 0
v -416 1478 0
vt 0.00048828125 0.000836133957
vt 0.00048828125 0.616220713
vt 0.234863281 0.616220713
vt 0.234863281 0.000836133957
vt 0.235839844 0.000836133957
vt 0.235839844 0.616220713
vt 0.470214844 0.616220713
vt 0.470214844 0.000836133957
vt 0.471191406 0.000836133957
vt 0.471191406 0.428929746
vt 0.643066406 0.428929746
vt 0.643066406 0.000836133957
vt 0.644042969 0.000836133957
vt 0.644042969 0.24163878
vt 0.847167969 0.24163878
vt 0.847167969 0.000836133957
vt 0.848144531 0.000836133957
vt 0.848144531 0.321906328
vt 0.941894531 0.321906328
vt 0.941894531 0.000836133957
vt 0.644042969 0.243311048
vt 0.644042969 0.510869563
vt 0.737792969 0.510869563
vt 0.737792969 0.243311048
vt 0.738769531 0.243311048
vt 0.738769531 0.510869563
vt 0.832519531 0.510869563
vt 0.832519531 0.243311048
vt 0.848144531 0.323578596
vt 0.848144531 0.510869563
vt 0.973144531 0.510869563
vt 0.973144531 0.323578596
vt 0.471191406 0.430602014
vt 0.471191406 0.671404719
vt 0.549316406 0.671404719
vt 0.549316406 0.430602014
vt 0.644042969 0.512541771
vt 0.644042969 0.699832797
vt 0.737792969 0.699832797
vt 0.737792969 0.512541771
vt 0.550292969 0.430602014
vt 0.550292969 0.64464879
vt 0.628417969 0.64464879
vt 0.628417969 0.430602014
vt 0.738769531 0.512541771
vt 0.738769531 0.673076928
vt 0.832519531 0.673076928
vt 0.832519531 0.512541771
vt 0.848144531 0.512541771
vt 0.848144531 0.646321058
vt 0.957519531 0.646321058
vt 0.957519531 0.512541771
vt 0.00048828125 0.617892981
vt 0.00048828125 0.751672268
vt 0.0942382812 0.751672268
vt 0.0942382812 0.617892981
vt 0.0952148438 0.617892981
vt 0.0952148438 0.751672268
vt 0.188964844 0.751672268
vt 0.188964844 0.617892981
vt 0.189941406 0.617892981
vt 0.189941406 0.698160529
vt 0.346191406 0.698160529
vt 0.346191406 0.617892981
vt 0.848144531 0.647993326
vt 0.848144531 0.728260875
vt 0.988769531 0.728260875
vt 0.988769531 0.647993326
vt 0.347167969 0.617892981
vt 0.347167969 0.751672268
vt 0.425292969 0.751672268
vt 0.425292969 0.617892981
vt 0.471191406 0.673076928
vt 0.471191406 0.753344476
vt 0.580566406 0.753344476
vt 0.580566406 0.673076928
vt 0.581542969 0.646321058
vt 0.581542969 0.806856155
vt 0.628417969 0.806856155
vt 0.628417969 0.646321058
vt 0.738769531 0.674749136
vt 0.738769531 0.781772554
vt 0.801269531 0.781772554
vt 0.801269531 0.674749136
vt 0.189941406 0.699832797
vt 0.189941406 0.780100346
vt 0.268066406 0.780100346
vt 0.268066406 0.699832797
vt 0.269042969 0.699832797
vt 0.269042969 0.833612025
vt 0.315917969 0.833612025
vt 0.315917969 0.699832797
vt 0.644042969 0.701505005
vt 0.644042969 0.781772554
vt 0.706542969 0.781772554
vt 0.706542969 0.701505005
vt 0.848144531 0.729933143
vt 0.848144531 0.836956501
vt 0.895019531 0.836956501
vt 0.895019531 0.729933143
vt 0.895996094 0.729933143
vt 0.895996094 0.810200691
vt 0.958496094 0.810200691
vt 0.958496094 0.729933143
vt 0.00048828125 0.753344476
vt 0.00048828125 0.833612025
vt 0.0629882812 0.833612025
vt 0.0629882812 0.753344476
vt 0.0639648438 0.753344476
vt 0.0639648438 0.833612025
vt 0.126464844 0.833612025
vt 0.126464844 0.753344476
vt 0.127441406 0.753344476
vt 0.127441406 0.833612025
vt 0.174316406 0.833612025
vt 0.174316406 0.753344476
vt 0.347167969 0.753344476
vt 0.347167969 0.833612025
vt 0.394042969 0.833612025
vt 0.394042969 0.753344476
vt 0.395019531 0.753344476
vt 0.395019531 0.833612025
vt 0.441894531 0.833612025
vt 0.441894531 0.753344476
vt 0.471191406 0.755016744
vt 0.471191406 0.835284293
vt 0.518066406 0.835284293
vt 0.518066406 0.755016744
vt 0.802246094 0.674749136
vt 0.802246094 0.781772554
vt 0.833496094 0.781772554
vt 0.833496094 0.674749136
vt 0.189941406 0.781772554
vt 0.189941406 0.835284293
vt 0.252441406 0.835284293
vt 0.252441406 0.781772554
vt 0.959472656 0.729933143
vt 0.959472656 0.836956501
vt 0.990722656 0.836956501
vt 0.990722656 0.729933143
vt 0.519042969 0.755016744
vt 0.519042969 0.862040162
vt 0.550292969 0.862040162
vt 0.550292969 0.755016744
vt 0.442871094 0.617892981
vt 0.442871094 0.805183947
vt 0.458496094 0.805183947
vt 0.458496094 0.617892981
vt 0.316894531 0.699832797
vt 0.316894531 0.887123764
vt 0.332519531 0.887123764
vt 0.332519531 0.699832797
vt 0.644042969 0.783444822
vt 0.644042969 0.836956501
vt 0.690917969 0.836956501
vt 0.690917969 0.783444822
vt 0.691894531 0.783444822
vt 0.691894531 0.86371237
vt 0.723144531 0.86371237
vt 0.723144531 0.783444822
vt 0.738769531 0.783444822
vt 0.738769531 0.86371237
vt 0.770019531 0.86371237
vt 0.770019531 0.783444822
vt 0.770996094 0.783444822
vt 0.770996094 0.86371237
vt 0.802246094 0.86371237
vt 0.802246094 0.783444822
vt 0.803222656 0.783444822
vt 0.803222656 0.86371237
vt 0.834472656 0.86371237
vt 0.834472656 0.783444822
vt 0.551269531 0.755016744
vt 0.551269531 0.915551841
vt 0.566894531 0.915551841
vt 0.566894531 0.755016744
vt 0.00048828125 0.835284293
vt 0.00048828125 0.841137111
vt 0.0942382812 0.841137111
vt 0.0942382812 0.835284293
vt 0.581542969 0.808528423
vt 0.581542969 0.888795972
vt 0.612792969 0.888795972
vt 0.612792969 0.808528423
vt 0.895996094 0.8118729
vt 0.895996094 0.892140448
vt 0.927246094 0.892140448
vt 0.927246094 0.8118729
vt 0.0952148438 0.835284293
vt 0.0952148438 0.915551841
vt 0.126464844 0.915551841
vt 0.126464844 0.835284293
vt 0.127441406 0.835284293
vt 0.127441406 0.915551841
vt 0.158691406 0.915551841
vt 0.158691406 0.835284293
vt 0.442871094 0.806856155
vt 0.442871094 0.940635443
vt 0.458496094 0.940635443
vt 0.458496094 0.806856155
vt 0.347167969 0.835284293
vt 0.347167969 0.841137111
vt 0.425292969 0.841137111
vt 0.425292969 0.835284293
vt 0.613769531 0.808528423
vt 0.613769531 0.942307711
vt 0.629394531 0.942307711
vt 0.629394531 0.808528423
vt 0.269042969 0.835284293
vt 0.269042969 0.888795972
vt 0.300292969 0.888795972
vt 0.300292969 0.835284293
vt 0.189941406 0.836956501
vt 0.189941406 0.89046824
vt 0.221191406 0.89046824
vt 0.221191406 0.836956501
vt 0.928222656 0.8118729
vt 0.928222656 0.918896317
vt 0.943847656 0.918896317
vt 0.943847656 0.8118729
vt 0.159667969 0.835284293
vt 0.159667969 0.942307711
vt 0.175292969 0.942307711
vt 0.175292969 0.835284293
vt 0.222167969 0.836956501
vt 0.222167969 0.89046824
vt 0.253417969 0.89046824
vt 0.253417969 0.836956501
vt 0.471191406 0.836956501
vt 0.471191406 0.89046824
vt 0.502441406 0.89046824
vt 0.502441406 0.836956501
vt 0.644042969 0.838628769
vt 0.644042969 0.892140448
vt 0.675292969 0.892140448
vt 0.675292969 0.838628769
vt 0.426269531 0.835284293
vt 0.426269531 0.915551841
vt 0.441894531 0.915551841
vt 0.441894531 0.835284293
vt 0.848144531 0.838628769
vt 0.848144531 0.918896317
vt 0.863769531 0.918896317
vt 0.863769531 0.838628769
vt 0.00048828125 0.842809379
vt 0.00048828125 0.869565248
vt 0.0473632812 0.869565248
vt 0.0473632812 0.842809379
vt 0.347167969 0.842809379
vt 0.347167969 0.869565248
vt 0.394042969 0.869565248
vt 0.394042969 0.842809379
vt 0.691894531 0.865384579
vt 0.691894531 0.892140448
vt 0.738769531 0.892140448
vt 0.738769531 0.865384579
vt 0.864746094 0.838628769
vt 0.864746094 0.918896317
vt 0.880371094 0.918896317
vt 0.880371094 0.838628769
vt 0.739746094 0.865384579
vt 0.739746094 0.892140448
vt 0.786621094 0.892140448
vt 0.786621094 0.865384579
vt 0.959472656 0.838628769
vt 0.959472656 0.918896317
vt 0.975097656 0.918896317
vt 0.975097656 0.838628769
vt 0.976074219 0.838628769
vt 0.976074219 0.892140448
vt 0.991699219 0.892140448
vt 0.991699219 0.838628769
vt 0.0483398438 0.842809379
vt 0.0483398438 0.869565248
vt 0.0795898438 0.869565248
vt 0.0795898438 0.842809379
vt 0.395019531 0.842809379
vt 0.395019531 0.896321058
vt 0.410644531 0.896321058
vt 0.410644531 0.842809379
vt 0.519042969 0.86371237
vt 0.519042969 0.89046824
vt 0.550292969 0.89046824
vt 0.550292969 0.86371237
vt 0.787597656 0.865384579
vt 0.787597656 0.918896317
vt 0.803222656 0.918896317
vt 0.803222656 0.865384579
vt 0.804199219 0.865384579
vt 0.804199219 0.918896317
vt 0.819824219 0.918896317
vt 0.819824219 0.865384579
vt 0.00048828125 0.871237457
vt 0.00048828125 0.897993326
vt 0.0317382812 0.897993326
vt 0.0317382812 0.871237457
vt 0.820800781 0.865384579
vt 0.820800781 0.918896317
vt 0.836425781 0.918896317
vt 0.836425781 0.865384579
vt 0.0327148438 0.871237457
vt 0.0327148438 0.924749136
vt 0.0483398438 0.924749136
vt 0.0483398438 0.871237457
vt 0.0493164062 0.871237457
vt 0.0493164062 0.924749136
vt 0.0649414062 0.924749136
vt 0.0649414062 0.871237457
vt 0.0659179688 0.871237457
vt 0.0659179688 0.924749136
vt 0.0815429688 0.924749136
vt 0.0815429688 0.871237457
vt 0.347167969 0.871237457
vt 0.347167969 0.924749136
vt 0.362792969 0.924749136
vt 0.362792969 0.871237457
vt 0.363769531 0.871237457
vt 0.363769531 0.924749136
vt 0.379394531 0.924749136
vt 0.379394531 0.871237457
vt 0.316894531 0.888795972
vt 0.316894531 0.942307711
vt 0.332519531 0.942307711
vt 0.332519531 0.888795972
vt 0.269042969 0.89046824
vt 0.269042969 0.943979919
vt 0.284667969 0.943979919
vt 0.284667969 0.89046824
vt 0.285644531 0.89046824
vt 0.285644531 0.943979919
vt 0.301269531 0.943979919
vt 0.301269531 0.89046824
vt 0.581542969 0.89046824
vt 0.581542969 0.91722405
vt 0.612792969 0.91722405
vt 0.612792969 0.89046824
vt 0.189941406 0.892140448
vt 0.189941406 0.918896317
vt 0.221191406 0.918896317
vt 0.221191406 0.892140448
vt 0.222167969 0.892140448
vt 0.222167969 0.918896317
vt 0.253417969 0.918896317
vt 0.253417969 0.892140448
vt 0.471191406 0.892140448
vt 0.471191406 0.945652187
vt 0.486816406 0.945652187
vt 0.486816406 0.892140448
vt 0.487792969 0.892140448
vt 0.487792969 0.918896317
vt 0.519042969 0.918896317
vt 0.519042969 0.892140448
vt 0.644042969 0.893812716
vt 0.644042969 0.920568585
vt 0.675292969 0.920568585
vt 0.675292969 0.893812716
vt 0.520019531 0.892140448
vt 0.520019531 0.945652187
vt 0.535644531 0.945652187
vt 0.535644531 0.892140448
vt 0.691894531 0.893812716
vt 0.691894531 0.947324395
vt 0.707519531 0.947324395
vt 0.707519531 0.893812716
vt 0.708496094 0.893812716
vt 0.708496094 0.947324395
vt 0.724121094 0.947324395
vt 0.724121094 0.893812716
vt 0.725097656 0.893812716
vt 0.725097656 0.947324395
vt 0.740722656 0.947324395
vt 0.740722656 0.893812716
vt 0.741699219 0.893812716
vt 0.741699219 0.947324395
vt 0.757324219 0.947324395
vt 0.757324219 0.893812716
vt 0.895996094 0.893812716
vt 0.895996094 0.920568585
vt 0.927246094 0.920568585
vt 0.927246094 0.893812716
vt 0.00048828125 0.899665534
vt 0.00048828125 0.926421404
vt 0.0317382812 0.926421404
vt 0.0317382812 0.899665534
vt 0.0952148438 0.91722405
vt 0.0952148438 0.943979919
vt 0.126464844 0.943979919
vt 0.126464844 0.91722405
vt 0.758300781 0.893812716
vt 0.758300781 0.947324395
vt 0.773925781 0.947324395
vt 0.773925781 0.893812716
vt 0.976074219 0.893812716
vt 0.976074219 0.947324395
vt 0.991699219 0.947324395
vt 0.991699219 0.893812716
vt 0.127441406 0.91722405
vt 0.127441406 0.943979919
vt 0.158691406 0.943979919
vt 0.158691406 0.91722405
vt 0.581542969 0.918896317
vt 0.581542969 0.945652187
vt 0.612792969 0.945652187
vt 0.612792969 0.918896317
vt 0.395019531 0.897993326
vt 0.395019531 0.951505005
vt 0.410644531 0.951505005
vt 0.410644531 0.897993326
vt 0.426269531 0.91722405
vt 0.426269531 0.970735788
vt 0.441894531 0.970735788
vt 0.441894531 0.91722405
vt 0.551269531 0.91722405
vt 0.551269531 0.970735788
vt 0.566894531 0.970735788
vt 0.566894531 0.91722405
vt 0.189941406 0.920568585
vt 0.189941406 0.974080265
vt 0.205566406 0.974080265
vt 0.205566406 0.920568585
vt 0.206542969 0.920568585
vt 0.206542969 0.947324395
vt 0.237792969 0.947324395
vt 0.237792969 0.920568585
vt 0.487792969 0.920568585
vt 0.487792969 0.947324395
vt 0.519042969 0.947324395
vt 0.519042969 0.920568585
vt 0.238769531 0.920568585
vt 0.238769531 0.974080265
vt 0.254394531 0.974080265
vt 0.254394531 0.920568585
vt 0.787597656 0.920568585
vt 0.787597656 0.947324395
vt 0.818847656 0.947324395
vt 0.818847656 0.920568585
vt 0.819824219 0.920568585
vt 0.819824219 0.974080265
vt 0.835449219 0.974080265
vt 0.835449219 0.920568585
vt 0.836425781 0.920568585
vt 0.836425781 0.974080265
vt 0.852050781 0.974080265
vt 0.852050781 0.920568585
vt 0.853027344 0.920568585
vt 0.853027344 0.947324395
vt 0.884277344 0.947324395
vt 0.884277344 0.920568585
vt 0.928222656 0.920568585
vt 0.928222656 0.974080265
vt 0.943847656 0.974080265
vt 0.943847656 0.920568585
vt 0.959472656 0.920568585
vt 0.959472656 0.974080265
vt 0.975097656 0.974080265
vt 0.975097656 0.920568585
vt 0.644042969 0.922240794
vt 0.644042969 0.975752532
vt 0.659667969 0.975752532
vt 0.659667969 0.922240794
vt 0.660644531 0.922240794
vt 0.660644531 0.975752532
vt 0.676269531 0.975752532
vt 0.676269531 0.922240794
vt 0.895996094 0.922240794
vt 0.895996094 0.975752532
vt 0.911621094 0.975752532
vt 0.911621094 0.922240794
vt 0.0327148438 0.926421404
vt 0.0327148438 0.979933083
vt 0.0483398438 0.979933083
vt 0.0483398438 0.926421404
vt 0.0493164062 0.926421404
vt 0.0493164062 0.953177273
vt 0.0805664062 0.953177273
vt 0.0805664062 0.926421404
vt 0.347167969 0.926421404
vt 0.347167969 0.979933083
vt 0.362792969 0.979933083
vt 0.362792969 0.926421404
vt 0.00048828125 0.928093672
vt 0.00048828125 0.954849482
vt 0.0317382812 0.954849482
vt 0.0317382812 0.928093672
vt 0.0952148438 0.945652187
vt 0.0952148438 0.972408056
vt 0.126464844 0.972408056
vt 0.126464844 0.945652187
vt 0.363769531 0.926421404
vt 0.363769531 0.953177273
vt 0.379394531 0.953177273
vt 0.379394531 0.926421404
vt 0.442871094 0.942307711
vt 0.442871094 0.96906352
vt 0.458496094 0.96906352
vt 0.458496094 0.942307711
vt 0.159667969 0.943979919
vt 0.159667969 0.970735788
vt 0.175292969 0.970735788
vt 0.175292969 0.943979919
vt 0.316894531 0.943979919
vt 0.316894531 0.970735788
vt 0.332519531 0.970735788
vt 0.332519531 0.943979919
vt 0.613769531 0.943979919
vt 0.613769531 0.970735788
vt 0.629394531 0.970735788
vt 0.629394531 0.943979919
vt 0.127441406 0.945652187
vt 0.127441406 0.972408056
vt 0.143066406 0.972408056
vt 0.143066406 0.945652187
vt 0.269042969 0.945652187
vt 0.269042969 0.972408056
vt 0.284667969 0.972408056
vt 0.284667969 0.945652187
vt 0.285644531 0.945652187
vt 0.285644531 0.972408056
vt 0.301269531 0.972408056
vt 0.301269531 0.945652187
vt 0.471191406 0.947324395
vt 0.471191406 0.974080265
vt 0.486816406 0.974080265
vt 0.486816406 0.947324395
vt 0.520019531 0.947324395
vt 0.520019531 0.974080265
vt 0.535644531 0.974080265
vt 0.535644531 0.947324395
vt 0.581542969 0.947324395
vt 0.581542969 0.974080265
vt 0.597167969 0.974080265
vt 0.597167969 0.947324395
vt 0.206542969 0.948996663
vt 0.206542969 0.975752532
vt 0.222167969 0.975752532
vt 0.222167969 0.948996663
vt 0.487792969 0.948996663
vt 0.487792969 0.975752532
vt 0.503417969 0.975752532
vt 0.503417969 0.948996663
vt 0.691894531 0.948996663
vt 0.691894531 0.975752532
vt 0.707519531 0.975752532
vt 0.707519531 0.948996663
vt 0.708496094 0.948996663
vt 0.708496094 0.975752532
vt 0.724121094 0.975752532
vt 0.724121094 0.948996663
vt 0.725097656 0.948996663
vt 0.725097656 0.975752532
vt 0.740722656 0.975752532
vt 0.740722656 0.948996663
vt 0.741699219 0.948996663
vt 0.741699219 0.975752532
vt 0.757324219 0.975752532
vt 0.757324219 0.948996663
vt 0.758300781 0.948996663
vt 0.758300781 0.975752532
vt 0.773925781 0.975752532
vt 0.773925781 0.948996663
vt 0.787597656 0.948996663
vt 0.787597656 0.975752532
vt 0.803222656 0.975752532
vt 0.803222656 0.948996663
vt 0.853027344 0.948996663
vt 0.853027344 0.975752532
vt 0.868652344 0.975752532
vt 0.868652344 0.948996663
vt 0.869628906 0.948996663
vt 0.869628906 0.975752532
vt 0.885253906 0.975752532
vt 0.885253906 0.948996663
vt 0.976074219 0.948996663
vt 0.976074219 0.975752532
vt 0.991699219 0.975752532
vt 0.991699219 0.948996663
vt 0.395019531 0.953177273
vt 0.395019531 0.979933083
vt 0.410644531 0.979933083
vt 0.410644531 0.953177273
vt 0.0493164062 0.954849482
vt 0.0493164062 0.981605351
vt 0.0649414062 0.981605351
vt 0.0649414062 0.954849482
vt 0.0659179688 0.954849482
vt 0.0659179688 0.981605351
vt 0.0815429688 0.981605351
vt 0.0815429688 0.954849482
vt 0.363769531 0.954849482
vt 0.363769531 0.981605351
vt 0.379394531 0.981605351
vt 0.379394531 0.954849482
vt 0.00048828125 0.956521749
vt 0.00048828125 0.983277619
vt 0.0161132812 0.983277619
vt 0.0161132812 0.956521749
vt 0.442871094 0.970735788
vt 0.442871094 0.997491658
vt 0.458496094 0.997491658
vt 0.458496094 0.970735788
vt 0.159667969 0.972408056
vt 0.159667969 0.999163866
vt 0.175292969 0.999163866
vt 0.175292969 0.972408056
vt 0.316894531 0.972408056
vt 0.316894531 0.999163866
vt 0.332519531 0.999163866
vt 0.332519531 0.972408056
g nandaketa-mesh_0
f 3/3/3 2/2/2 1/1/1
f 1/1/1 4/4/4 3/3/3
f 7/7/7 6/6/6 5/5/5
f 5/5/5 8/8/8 7/7/7
f 11/11/11 10/10/10 9/9/9
f 9/9/9 12/12/12 11/11/11
f 15/15/15 14/14/14 13/13/13
f 13/13/13 16/16/16 15/15/15
f 19/19/19 18/18/18 17/17/17
f 17/17/17 20/20/20 19/19/19
f 23/23/23 22/22/22 21/21/21
f 21/21/21 24/24/24 23/23/23
f 27/27/27 26/26/26 25/25/25
f 25/25/25 28/28/28 27/27/27
f 31/31/31 30/30/30 29/29/29
f 29/29/29 32/32/32 31/31/31
f 35/35/35 34/34/34 33/33/33
f 33/33/33 36/36/36 35/35/35
f 39/39/39 38/38/38 37/37/37
f 37/37/37 40/40/40 39/39/39
f 43/43/43 42/42/42 41/41/41
f 41/41/41 44/44/44 43/43/43
f 47/47/47 46/46/46 45/45/45
f 45/45/45 48/48/48 47/47/47
f 51/51/51 50/50/50 49/49/49
f 49/49/49 52/52/52 51/51/51
f 55/55/55 54/54/54 53/53/53
f 53/53/53 56/56/56 55/55/55
f 59/59/59 58/58/58 57/57/57
f 57/57/57 60/60/60 59/59/59
f 63/63/63 62/62/62 61/61/61
f 61/61/61 64/64/64 63/63/63
f 67/67/67 66/66/66 65/65/65
f 65/65/65 68/68/68 67/67/67
f 71/71/71 70/70/70 69/69/69
f 69/69/69 72/72/72 71/71/71
f 75/75/75 74/74/74 73/73/73
f 73/73/73 76/76/76 75/75/75
f 79/79/79 78/78/78 77/77/77
f 77/77/77 80/80/80 79/79/79
f 83/83/83 82/82/82 81/81/81
f 81/81/81 84/84/84 83/83/83
f 87/87/87 86/86/86 85/85/85
f 85/85/85 88/88/88 87/87/87
f 91/91/91 90/90/90 89/89/89
f 89/89/89 92/92/92 91/91/91
f 95/95/95 94/94/94 93/93/93
f 93/93/93 96/96/96 95/95/95
f 99/99/99 98/98/98 97/97/97
f 97/97/97 100/100/100 99/99/99
f 103/103/103 102/102/102 101/101/101
f 101/101/101 104/104/104 103/103/103
f 107/107/107 106/106/106 105/105/105
f 105/105/105 108/108/108 107/107/107
f 111/111/111 110/110/110 109/109/109
f 109/109/109 112/112/112 111/111/111
f 115/115/115 114/114/114 113/113/113
f 113/113/113 116/116/116 115/115/115
f 119/119/119 118/118/118 117/117/117
f 117/117/117 120/120/120 119/119/119
f 123/123/123 122/122/122 121/121/121
f 121/121/121 124/124/124 123/123/123
f 127/127/127 126/126/126 125/125/125
f 125/125/125 128/128/128 127/127/127
f 131/131/131 130/130/130 129/129/129
f 129/129/129 132/132/132 131/131/131
f 135/135/135 134/134/134 133/133/133
f 133/133/133 136/136/136 135/135/135
f 139/139/139 138/138/138 137/137/137
f 137/137/137 140/140/140 139/139/139
f 143/143/143 142/142/142 141/141/141
f 141/141/141 144/144/144 143/143/143
f 147/147/147 146/146/146 145/145/145
f 145/145/145 148/148/148 147/147/147
f 151/151/151 150/150/150 149/149/149
f 149/149/149 152/152/152 151/151/151
f 155/155/155 154/154/154 153/153/153
f 153/153/153 156/156/156 155/155/155
f 159/159/159 158/158/158 157/157/157
f 157/157/157 160/160/160 159/159/159
f 163/163/163 162/162/162 161/161/161
f 161/161/161 164/164/164 163/163/163
f 167/167/167 166/166/166 165/165/165
f 165/165/165 168/168/168 167/167/167
f 171/171/171 170/170/170 169/169/169
f 169/169/169 172/172/172 171/171/171
f 175/175/175 174/174/174 173/173/173
f 173/173/173 176/176/176 175/175/175
f 179/179/179 178/178/178 177/177/177
f 177/177/177 180/180/180 179/179/179
f 183/183/183 182/182/182 181/181/181
f 181/181/181 184/184/184 183/183/183
f 187/187/187 186/186/186 185/185/185
f 185/185/185 188/188/188 187/187/187
f 191/191/191 190/190/190 189/189/189
f 189/189/189 192/192/192 191/191/191
f 195/195/195 194/194/194 193/193/193
f 193/193/193 196/196/196 195/195/195
f 199/199/199 198/198/198 197/197/197
f 197/197/197 200/200/200 199/199/199
f 203/203/203 202/202/202 201/201/201
f 201/201/201 204/204/204 203/203/203
f 207/207/207 206/206/206 205/205/205
f 205/205/205 208/208/208 207/207/207
f 211/211/211 210/210/210 209/209/209
f 209/209/209 212/212/212 211/211/211
f 215/215/215 214/214/214 213/213/213
f 213/213/213 216/216/216 215/215/215
f 219/219/219 218/218/218 217/217/217
f 217/217/217 220/220/220 219/219/219
f 223/223/223 222/222/222 221/221/221
f 221/221/221 224/224/224 223/223/223
f 227/227/227 226/226/226 225/225/225
f 225/225/225 228/228/228 227/227/227
f 231/231/231 230/230/230 229/229/229
f 229/229/229 232/232/232 231/231/231
f 235/235/235 234/234/234 233/233/233
f 233/233/233 236/236/236 235/235/235
f 239/239/239 238/238/238 237/237/237
f 237/237/237 240/240/240 239/239/239
f 243/243/243 242/242/242 241/241/241
f 241/241/241 244/244/244 243/243/243
f 247/247/247 246/246/246 245/245/245
f 245/245/245 248/248/248 247/247/247
f 251/251/251 250/250/250 249/249/249
f 249/249/249 252/252/252 251/251/251
f 255/255/255 254/254/254 253/253/253
f 253/253/253 256/256/256 255/255/255
f 259/259/259 258/258/258 257/257/257
f 257/257/257 260/260/260 259/259/259
f 263/263/263 262/262/262 261/261/261
f 261/261/261 264/264/264 263/263/263
f 267/267/267 266/266/266 265/265/265
f 265/265/265 268/268/268 267/267/267
f 271/271/271 270/270/270 269/269/269
f 269/269/269 272/272/272 271/271/271
f 275/275/275 274/274/274 273/273/273
f 273/273/273 276/276/276 275/275/275
f 279/279/279 278/278/278 277/277/277
f 277/277/277 280/280/280 279/279/279
f 283/283/283 282/282/282 281/281/281
f 281/281/281 284/284/284 283/283/283
f 287/287/287 286/286/286 285/285/285
f 285/285/285 288/288/288 287/287/287
f 291/291/291 290/290/290 289/289/289
f 289/289/289 292/292/292 291/291/291
f 295/295/295 294/294/294 293/293/293
f 293/293/293 296/296/296 295/295/295
f 299/299/299 298/298/298 297/297/297
f 297/297/297 300/300/300 299/299/299
f 303/303/303 302/302/302 301/301/301
f 301/301/301 304/304/304 303/303/303
f 307/307/307 306/306/306 305/305/305
f 305/305/305 308/308/308 307/307/307
f 311/311/311 310/310/310 309/309/309
f 309/309/309 312/312/312 311/311/311
f 315/315/315 314/314/314 313/313/313
f 313/313/313 316/316/316 315/315/315
f 319/319/319 318/318/318 317/317/317
f 317/317/317 320/320/320 319/319/319
f 323/323/323 322/322/322 321/321/321
f 321/321/321 324/324/324 323/323/323
f 327/327/327 326/326/326 325/325/325
f 325/325/325 328/328/328 327/327/327
f 331/331/331 330/330/330 329/329/329
f 329/329/329 332/332/332 331/331/331
f 335/335/335 334/334/334 333/333/333
f 333/333/333 336/336/336 335/335/335
f 339/339/339 338/338/338 337/337/337
f 337/337/337 340/340/340 339/339/339
f 343/343/343 342/342/342 341/341/341
f 341/341/341 344/344/344 343/343/343
f 347/347/347 346/346/346 345/345/345
f 345/345/345 348/348/348 347/347/347
f 351/351/351 350/350/350 349/349/349
f 349/349/349 352/352/352 351/351/351
f 355/355/355 354/354/354 353/353/353
f 353/353/353 356/356/356 355/355/355
f 359/359/359 358/358/358 357/357/357
f 357/357/357 360/360/360 359/359/359
f 363/363/363 362/362/362 361/361/361
f 361/361/361 364/364/364 363/363/363
f 367/367/367 366/366/366 365/365/365
f 365/365/365 368/368/368 367/367/367
f 371/371/371 370/370/370 369/369/369
f 369/369/369 372/372/372 371/371/371
f 375/375/375 374/374/374 373/373/373
f 373/373/373 376/376/376 375/375/375
f 379/379/379 378/378/378 377/377/377
f 377/377/377 380/380/380 379/379/379
f 383/383/383 382/382/382 381/381/381
f 381/381/381 384/384/384 383/383/383
f 387/387/387 386/386/386 385/385/385
f 385/385/385 388/388/388 387/387/387
f 391/391/391 390/390/390 389/389/389
f 389/389/389 392/392/392 391/391/391
f 395/395/395 394/394/394 393/393/393
f 393/393/393 396/396/396 395/395/395
f 399/399/399 398/398/398 397/397/397
f 397/397/397 400/400/400 399/399/399
f 403/403/403 402/402/402 401/401/401
f 401/401/401 404/404/404 403/403/403
f 407/407/407 406/406/406 405/405/405
f 405/405/405 408/408/408 407/407/407
f 411/411/411 410/410/410 409/409/409
f 409/409/409 412/412/412 411/411/411
f 415/415/415 414/414/414 413/413/413
f 413/413/413 416/416/416 415/415/415
f 419/419/419 418/418/418 417/417/417
f 417/417/417 420/420/420 419/419/419
f 423/423/423 422/422/422 421/421/421
f 421/421/421 424/424/424 423/423/423
f 427/427/427 426/426/426 425/425/425
f 425/425/425 428/428/428 427/427/427
f 431/431/431 430/430/430 429/429/429
f 429/429/429 432/432/432 431/431/431
f 435/435/435 434/434/434 433/433/433
f 433/433/433 436/436/436 435/435/435
f 439/439/439 438/438/438 437/437/437
f 437/437/437 440/440/440 439/439/439
f 443/443/443 442/442/442 441/441/441
f 441/441/441 444/444/444 443/443/443
f 447/447/447 446/446/446 445/445/445
f 445/445/445 448/448/448 447/447/447
f 451/451/451 450/450/450 449/449/449
f 449/449/449 452/452/452 451/451/451
f 455/455/455 454/454/454 453/453/453
f 453/453/453 456/456/456 455/455/455
f 459/459/459 458/458/458 457/457/457
f 457/457/457 460/460/460 459/459/459
f 463/463/463 462/462/462 461/461/461
f 461/461/461 464/464/464 463/463/463
f 467/467/467 466/466/466 465/465/465
f 465/465/465 468/468/468 467/467/467
f 471/471/471 470/470/470 469/469/469
f 469/469/469 472/472/472 471/471/471
f 475/475/475 474/474/474 473/473/473
f 473/473/473 476/476/476 475/475/475
f 479/479/479 478/478/478 477/477/477
f 477/477/477 480/480/480 479/479/479
f 483/483/483 482/482/482 481/481/481
f 481/481/481 484/484/484 483/483/483
f 487/487/487 486/486/486 485/485/485
f 485/485/485 488/488/488 487/487/487
f 491/491/491 490/490/490 489/489/489
f 489/489/489 492/492/492 491/491/491
f 495/495/495 494/494/494 493/493/493
f 493/493/493 496/496/496 495/495/495
f 499/499/499 498/498/498 497/497/497
f 497/497/497 500/500/500 499/499/499
f 503/503/503 502/502/502 501/501/501
f 501/501/501 504/504/504 503/503/503
f 507/507/507 506/506/506 505/505/505
f 505/505/505 508/508/508 507/507/507
f 511/511/511 510/510/510 509/509/509
f 509/509/509 512/512/512 511/511/511
f 515/515/515 514/514/514 513/513/513
f 513/513/513 516/516/516 515/515/515
f 519/519/519 518/518/518 517/517/517
f 517/517/517 520/520/520 519/519/519
f 523/523/523 522/522/522 521/521/521
f 521/521/521 524/524/524 523/523/523
f 527/527/527 526/526/526 525/525/525
f 525/525/525 528/528/528 527/527/527
f 531/531/531 530/530/530 529/529/529
f 529/529/529 532/532/532 531/531/531
f 535/535/535 534/534/534 533/533/533
f 533/533/533 536/536/536 535/535/535
f 539/539/539 538/538/538 537/537/537
f 537/537/537 540/540/540 539/539/539
f 543/543/543 542/542/542 541/541/541
f 541/541/541 544/544/544 543/543/543
f 547/547/547 546/546/546 545/545/545
f 545/545/545 548/548/548 547/547/547
f 551/551/551 550/550/550 549/549/549
f 549/549/549 552/552/552 551/551/551
f 555/555/555 554/554/554 553/553/553
f 553/553/553 556/556/556 555/555/555
f 559/559/559 558/558/558 557/557/557
f 557/557/557 560/560/560 559/559/559
f 563/563/563 562/562/562 561/561/561
f 561/561/561 564/564/564 563/563/563
f 567/567/567 566/566/566 565/565/565
f 565/565/565 568/568/568 567/567/567
f 571/571/571 570/570/570 569/569/569
f 569/569/569 572/572/572 571/571/571
f 575/575/575 574/574/574 573/573/573
f 573/573/573 576/576/576 575/575/575
f 579/579/579 578/578/578 577/577/577
f 577/577/577 580/580/580 579/579/579
f 583/583/583 582/582/582 581/581/581
f 581/581/581 584/584/584 583/583/583
f 587/587/587 586/586/586 585/585/585
f 585/585/585 588/588/588 587/587/587
f 591/591/591 590/590/590 589/589/589
f 589/589/589 592/592/592 591/591/591
f 595/595/595 594/594/594 593/593/593
f 593/593/593 596/596/596 595/595/595
f 599/599/599 598/598/598 597/597/597
f 597/597/597 600/600/600 599/599/599
f 603/603/603 602/602/602 601/601/601
f 601/601/601 604/604/604 603/603/603
f 607/607/607 606/606/606 605/605/605
f 605/605/605 608/608/608 607/607/607
