g tashigan_4-mesh
v -288 348 0
v -288 1500 0
v -1024 1500 0
v -1024 348 0
v -1024 348 0
v -1024 1500 0
v -1728 1500 0
v -1728 348 0
v -192 124 0
v -192 348 0
v -736 348 0
v -736 124 0
v -736 124 0
v -736 348 0
v -1248 348 0
v -1248 124 0
v -576 1500 0
v -576 1660 0
v -1120 1660 0
v -1120 1500 0
v -64 348 0
v -64 732 0
v -288 732 0
v -288 348 0
v -64 732 0
v -64 1116 0
v -288 1116 0
v -288 732 0
v -1120 1500 0
v -1120 1660 0
v -1632 1660 0
v -1632 1500 0
v -1728 572 0
v -1728 892 0
v -1952 892 0
v -1952 572 0
v -1728 892 0
v -1728 1212 0
v -1952 1212 0
v -1952 892 0
v -1312 188 0
v -1312 348 0
v -1600 348 0
v -1600 188 0
v -128 1116 0
v -128 1340 0
v -288 1340 0
v -288 1116 0
v -352 60 0
v -352 124 0
v -704 124 0
v -704 60 0
v -704 60 0
v -704 124 0
v -1056 124 0
v -1056 60 0
v -384 1500 0
v -384 1596 0
v -576 1596 0
v -576 1500 0
v -736 1660 0
v -736 1724 0
v -992 1724 0
v -992 1660 0
v -992 1660 0
v -992 1724 0
v -1216 1724 0
v -1216 1660 0
v -1728 1212 0
v -1728 1340 0
v -1824 1340 0
v -1824 1212 0
v -64 252 0
v -64 348 0
v -192 348 0
v -192 252 0
v -1952 828 0
v -1952 1116 0
v -1984 1116 0
v -1984 828 0
v -32 828 0
v -32 1116 0
v -64 1116 0
v -64 828 0
v -32 540 0
v -32 828 0
v -64 828 0
v -64 540 0
v -288 0 0
v -288 124 0
v -352 124 0
v -352 0 0
v -1952 572 0
v -1952 828 0
v -1984 828 0
v -1984 572 0
v -480 0 0
v -480 60 0
v -608 60 0
v -608 0 0
v -1504 1660 0
v -1504 1724 0
v -1600 1724 0
v -1600 1660 0
v -32 1308 0
v -32 1372 0
v -128 1372 0
v -128 1308 0
v -32 92 0
v -32 156 0
v -128 156 0
v -128 92 0
v -1248 252 0
v -1248 348 0
v -1312 348 0
v -1312 252 0
v -1248 156 0
v -1248 252 0
v -1312 252 0
v -1312 156 0
v -608 0 0
v -608 60 0
v -704 60 0
v -704 0 0
v -160 28 0
v -160 92 0
v -224 92 0
v -224 28 0
v -576 1660 0
v -576 1724 0
v -640 1724 0
v -640 1660 0
v -224 1340 0
v -224 1404 0
v -288 1404 0
v -288 1340 0
v -1632 1500 0
v -1632 1564 0
v -1696 1564 0
v -1696 1500 0
v -1376 156 0
v -1376 188 0
v -1504 188 0
v -1504 156 0
v -0 732 0
v -0 860 0
v -32 860 0
v -32 732 0
v -128 92 0
v -128 156 0
v -192 156 0
v -192 92 0
v -32 220 0
v -32 316 0
v -64 316 0
v -64 220 0
v -768 28 0
v -768 60 0
v -864 60 0
v -864 28 0
v -0 636 0
v -0 732 0
v -32 732 0
v -32 636 0
v -1312 1660 0
v -1312 1692 0
v -1408 1692 0
v -1408 1660 0
v -1728 540 0
v -1728 572 0
v -1824 572 0
v -1824 540 0
v -1504 156 0
v -1504 188 0
v -1600 188 0
v -1600 156 0
v -1824 540 0
v -1824 572 0
v -1920 572 0
v -1920 540 0
v -1216 1660 0
v -1216 1692 0
v -1312 1692 0
v -1312 1660 0
v -1984 828 0
v -1984 924 0
v -2016 924 0
v -2016 828 0
v -1856 1212 0
v -1856 1244 0
v -1920 1244 0
v -1920 1212 0
v -1728 1340 0
v -1728 1404 0
v -1760 1404 0
v -1760 1340 0
v -64 1276 0
v -64 1308 0
v -128 1308 0
v -128 1276 0
v -160 1340 0
v -160 1372 0
v -224 1372 0
v -224 1340 0
v -1056 28 0
v -1056 60 0
v -1120 60 0
v -1120 28 0
v -384 28 0
v -384 60 0
v -448 60 0
v -448 28 0
v -672 1660 0
v -672 1692 0
v -736 1692 0
v -736 1660 0
v -352 1500 0
v -352 1564 0
v -384 1564 0
v -384 1500 0
v -1440 1660 0
v -1440 1692 0
v -1504 1692 0
v -1504 1660 0
v -224 28 0
v -224 60 0
v -288 60 0
v -288 28 0
v -1120 60 0
v -1120 92 0
v -1184 92 0
v -1184 60 0
v -800 0 0
v -800 28 0
v -864 28 0
v -864 0 0
v -352 0 0
v -352 28 0
v -416 28 0
v -416 0 0
v -64 28 0
v -64 92 0
v -96 92 0
v -96 28 0
v -1984 412 0
v -1984 444 0
v -2047 444 0
v -2047 412 0
v -96 1116 0
v -96 1180 0
v -128 1180 0
v -128 1116 0
v -0 252 0
v -0 316 0
v -32 316 0
v -32 252 0
v -0 348 0
v -0 380 0
v -64 380 0
v -64 348 0
v -1824 1244 0
v -1824 1308 0
v -1856 1308 0
v -1856 1244 0
v -1728 412 0
v -1728 476 0
v -1760 476 0
v -1760 412 0
v -1600 284 0
v -1600 348 0
v -1632 348 0
v -1632 284 0
v -1760 508 0
v -1760 540 0
v -1824 540 0
v -1824 508 0
v -1728 476 0
v -1728 540 0
v -1760 540 0
v -1760 476 0
v -32 156 0
v -32 220 0
v -64 220 0
v -64 156 0
v -1984 764 0
v -1984 828 0
v -2016 828 0
v -2016 764 0
v -448 1596 0
v -448 1628 0
v -512 1628 0
v -512 1596 0
v -864 28 0
v -864 60 0
v -928 60 0
v -928 28 0
v -1056 92 0
v -1056 124 0
v -1120 124 0
v -1120 92 0
v -1440 124 0
v -1440 156 0
v -1504 156 0
v -1504 124 0
v -160 188 0
v -160 252 0
v -192 252 0
v -192 188 0
v -512 1596 0
v -512 1628 0
v -576 1628 0
v -576 1596 0
v -256 0 0
v -256 28 0
v -288 28 0
v -288 0 0
v -96 60 0
v -96 92 0
v -128 92 0
v -128 60 0
v -1760 1340 0
v -1760 1372 0
v -1792 1372 0
v -1792 1340 0
v -256 1404 0
v -256 1436 0
v -288 1436 0
v -288 1404 0
v -1984 1148 0
v -1984 1180 0
v -2016 1180 0
v -2016 1148 0
v -1760 476 0
v -1760 508 0
v -1792 508 0
v -1792 476 0
v -1632 316 0
v -1632 348 0
v -1664 348 0
v -1664 316 0
v -96 1244 0
v -96 1276 0
v -128 1276 0
v -128 1244 0
v -256 92 0
v -256 124 0
v -288 124 0
v -288 92 0
v -96 220 0
v -96 252 0
v -128 252 0
v -128 220 0
v -320 1500 0
v -320 1532 0
v -352 1532 0
v -352 1500 0
v -160 156 0
v -160 188 0
v -192 188 0
v -192 156 0
v -1600 252 0
v -1600 284 0
v -1632 284 0
v -1632 252 0
v -1120 28 0
v -1120 60 0
v -1152 60 0
v -1152 28 0
v -448 28 0
v -448 60 0
v -480 60 0
v -480 28 0
v -1504 124 0
v -1504 156 0
v -1536 156 0
v -1536 124 0
v -1600 1660 0
v -1600 1692 0
v -1632 1692 0
v -1632 1660 0
v -1632 1564 0
v -1632 1596 0
v -1664 1596 0
v -1664 1564 0
v -1120 92 0
v -1120 124 0
v -1152 124 0
v -1152 92 0
v -1824 508 0
v -1824 540 0
v -1856 540 0
v -1856 508 0
v -1824 1212 0
v -1824 1244 0
v -1856 1244 0
v -1856 1212 0
vt 0.00048828125 0.000674784184
vt 0.00048828125 0.778002679
vt 0.359863281 0.778002679
vt 0.359863281 0.000674784184
vt 0.360839844 0.000674784184
vt 0.360839844 0.778002679
vt 0.704589844 0.778002679
vt 0.704589844 0.000674784184
vt 0.705566406 0.000674784184
vt 0.705566406 0.151821852
vt 0.971191406 0.151821852
vt 0.971191406 0.000674784184
vt 0.705566406 0.15317136
vt 0.705566406 0.304318488
vt 0.955566406 0.304318488
vt 0.955566406 0.15317136
vt 0.705566406 0.305667996
vt 0.705566406 0.413630247
vt 0.971191406 0.413630247
vt 0.971191406 0.305667996
vt 0.705566406 0.414979756
vt 0.705566406 0.674089074
vt 0.814941406 0.674089074
vt 0.814941406 0.414979756
vt 0.815917969 0.414979756
vt 0.815917969 0.674089074
vt 0.925292969 0.674089074
vt 0.925292969 0.414979756
vt 0.705566406 0.675438583
vt 0.705566406 0.783400774
vt 0.955566406 0.783400774
vt 0.955566406 0.675438583
vt 0.00048828125 0.779352248
vt 0.00048828125 0.99527663
vt 0.109863281 0.99527663
vt 0.109863281 0.779352248
vt 0.110839844 0.779352248
vt 0.110839844 0.99527663
vt 0.220214844 0.99527663
vt 0.220214844 0.779352248
vt 0.221191406 0.779352248
vt 0.221191406 0.887314439
vt 0.361816406 0.887314439
vt 0.361816406 0.779352248
vt 0.362792969 0.779352248
vt 0.362792969 0.930499315
vt 0.440917969 0.930499315
vt 0.440917969 0.779352248
vt 0.441894531 0.779352248
vt 0.441894531 0.822537124
vt 0.613769531 0.822537124
vt 0.613769531 0.779352248
vt 0.705566406 0.784750342
vt 0.705566406 0.827935219
vt 0.877441406 0.827935219
vt 0.877441406 0.784750342
vt 0.878417969 0.784750342
vt 0.878417969 0.849527657
vt 0.972167969 0.849527657
vt 0.972167969 0.784750342
vt 0.441894531 0.823886633
vt 0.441894531 0.867071509
vt 0.566894531 0.867071509
vt 0.566894531 0.823886633
vt 0.567871094 0.823886633
vt 0.567871094 0.867071509
vt 0.677246094 0.867071509
vt 0.677246094 0.823886633
vt 0.705566406 0.829284787
vt 0.705566406 0.91565454
vt 0.752441406 0.91565454
vt 0.752441406 0.829284787
vt 0.753417969 0.829284787
vt 0.753417969 0.894062102
vt 0.815917969 0.894062102
vt 0.815917969 0.829284787
vt 0.973144531 0.000674784184
vt 0.973144531 0.195006728
vt 0.988769531 0.195006728
vt 0.988769531 0.000674784184
vt 0.973144531 0.196356297
vt 0.973144531 0.390688241
vt 0.988769531 0.390688241
vt 0.988769531 0.196356297
vt 0.973144531 0.392037809
vt 0.973144531 0.586369753
vt 0.988769531 0.586369753
vt 0.988769531 0.392037809
vt 0.816894531 0.829284787
vt 0.816894531 0.913630247
vt 0.848144531 0.913630247
vt 0.848144531 0.829284787
vt 0.973144531 0.587719321
vt 0.973144531 0.760458827
vt 0.988769531 0.760458827
vt 0.988769531 0.587719321
vt 0.878417969 0.850877166
vt 0.878417969 0.892037809
vt 0.940917969 0.892037809
vt 0.940917969 0.850877166
vt 0.941894531 0.850877166
vt 0.941894531 0.894062102
vt 0.988769531 0.894062102
vt 0.988769531 0.850877166
vt 0.441894531 0.868421078
vt 0.441894531 0.911605954
vt 0.488769531 0.911605954
vt 0.488769531 0.868421078
vt 0.489746094 0.868421078
vt 0.489746094 0.911605954
vt 0.536621094 0.911605954
vt 0.536621094 0.868421078
vt 0.537597656 0.868421078
vt 0.537597656 0.933198392
vt 0.568847656 0.933198392
vt 0.568847656 0.868421078
vt 0.569824219 0.868421078
vt 0.569824219 0.933198392
vt 0.601074219 0.933198392
vt 0.601074219 0.868421078
vt 0.602050781 0.868421078
vt 0.602050781 0.909581661
vt 0.648925781 0.909581661
vt 0.648925781 0.868421078
vt 0.649902344 0.868421078
vt 0.649902344 0.911605954
vt 0.681152344 0.911605954
vt 0.681152344 0.868421078
vt 0.221191406 0.888663948
vt 0.221191406 0.931848884
vt 0.252441406 0.931848884
vt 0.252441406 0.888663948
vt 0.253417969 0.888663948
vt 0.253417969 0.931848884
vt 0.284667969 0.931848884
vt 0.284667969 0.888663948
vt 0.285644531 0.888663948
vt 0.285644531 0.931848884
vt 0.316894531 0.931848884
vt 0.316894531 0.888663948
vt 0.878417969 0.893387318
vt 0.878417969 0.914979756
vt 0.940917969 0.914979756
vt 0.940917969 0.893387318
vt 0.682128906 0.779352248
vt 0.682128906 0.865722001
vt 0.697753906 0.865722001
vt 0.697753906 0.779352248
vt 0.317871094 0.888663948
vt 0.317871094 0.931848884
vt 0.349121094 0.931848884
vt 0.349121094 0.888663948
vt 0.849121094 0.829284787
vt 0.849121094 0.894062102
vt 0.864746094 0.894062102
vt 0.864746094 0.829284787
vt 0.753417969 0.895411611
vt 0.753417969 0.917004049
vt 0.800292969 0.917004049
vt 0.800292969 0.895411611
vt 0.682128906 0.867071509
vt 0.682128906 0.931848884
vt 0.697753906 0.931848884
vt 0.697753906 0.867071509
vt 0.941894531 0.895411611
vt 0.941894531 0.917004049
vt 0.988769531 0.917004049
vt 0.988769531 0.895411611
vt 0.602050781 0.91093117
vt 0.602050781 0.932523608
vt 0.648925781 0.932523608
vt 0.648925781 0.91093117
vt 0.441894531 0.912955463
vt 0.441894531 0.934547901
vt 0.488769531 0.934547901
vt 0.488769531 0.912955463
vt 0.489746094 0.912955463
vt 0.489746094 0.934547901
vt 0.536621094 0.934547901
vt 0.536621094 0.912955463
vt 0.816894531 0.914979756
vt 0.816894531 0.936572194
vt 0.863769531 0.936572194
vt 0.863769531 0.914979756
vt 0.649902344 0.912955463
vt 0.649902344 0.977732778
vt 0.665527344 0.977732778
vt 0.665527344 0.912955463
vt 0.878417969 0.916329265
vt 0.878417969 0.937921703
vt 0.909667969 0.937921703
vt 0.909667969 0.916329265
vt 0.910644531 0.916329265
vt 0.910644531 0.959514141
vt 0.926269531 0.959514141
vt 0.926269531 0.916329265
vt 0.705566406 0.917004049
vt 0.705566406 0.938596487
vt 0.736816406 0.938596487
vt 0.736816406 0.917004049
vt 0.753417969 0.918353558
vt 0.753417969 0.939945996
vt 0.784667969 0.939945996
vt 0.784667969 0.918353558
vt 0.941894531 0.918353558
vt 0.941894531 0.939945996
vt 0.973144531 0.939945996
vt 0.973144531 0.918353558
vt 0.362792969 0.931848884
vt 0.362792969 0.953441322
vt 0.394042969 0.953441322
vt 0.394042969 0.931848884
vt 0.395019531 0.931848884
vt 0.395019531 0.953441322
vt 0.426269531 0.953441322
vt 0.426269531 0.931848884
vt 0.785644531 0.918353558
vt 0.785644531 0.961538434
vt 0.801269531 0.961538434
vt 0.801269531 0.918353558
vt 0.221191406 0.933198392
vt 0.221191406 0.954790831
vt 0.252441406 0.954790831
vt 0.252441406 0.933198392
vt 0.253417969 0.933198392
vt 0.253417969 0.954790831
vt 0.284667969 0.954790831
vt 0.284667969 0.933198392
vt 0.285644531 0.933198392
vt 0.285644531 0.954790831
vt 0.316894531 0.954790831
vt 0.316894531 0.933198392
vt 0.317871094 0.933198392
vt 0.317871094 0.952766538
vt 0.349121094 0.952766538
vt 0.349121094 0.933198392
vt 0.602050781 0.933873177
vt 0.602050781 0.953441322
vt 0.633300781 0.953441322
vt 0.633300781 0.933873177
vt 0.974121094 0.918353558
vt 0.974121094 0.961538434
vt 0.989746094 0.961538434
vt 0.989746094 0.918353558
vt 0.537597656 0.934547901
vt 0.537597656 0.956140339
vt 0.568847656 0.956140339
vt 0.568847656 0.934547901
vt 0.682128906 0.933198392
vt 0.682128906 0.976383269
vt 0.697753906 0.976383269
vt 0.697753906 0.933198392
vt 0.569824219 0.934547901
vt 0.569824219 0.977732778
vt 0.585449219 0.977732778
vt 0.585449219 0.934547901
vt 0.441894531 0.93589741
vt 0.441894531 0.957489848
vt 0.473144531 0.957489848
vt 0.473144531 0.93589741
vt 0.474121094 0.93589741
vt 0.474121094 0.979082346
vt 0.489746094 0.979082346
vt 0.489746094 0.93589741
vt 0.490722656 0.93589741
vt 0.490722656 0.979082346
vt 0.506347656 0.979082346
vt 0.506347656 0.93589741
vt 0.507324219 0.93589741
vt 0.507324219 0.979082346
vt 0.522949219 0.979082346
vt 0.522949219 0.93589741
vt 0.816894531 0.937921703
vt 0.816894531 0.959514141
vt 0.848144531 0.959514141
vt 0.848144531 0.937921703
vt 0.849121094 0.937921703
vt 0.849121094 0.981106639
vt 0.864746094 0.981106639
vt 0.864746094 0.937921703
vt 0.878417969 0.939271271
vt 0.878417969 0.982456148
vt 0.894042969 0.982456148
vt 0.894042969 0.939271271
vt 0.705566406 0.939945996
vt 0.705566406 0.983130932
vt 0.721191406 0.983130932
vt 0.721191406 0.939945996
vt 0.753417969 0.941295564
vt 0.753417969 0.962888002
vt 0.784667969 0.962888002
vt 0.784667969 0.941295564
vt 0.941894531 0.941295564
vt 0.941894531 0.962888002
vt 0.973144531 0.962888002
vt 0.973144531 0.941295564
vt 0.317871094 0.954116046
vt 0.317871094 0.975708485
vt 0.349121094 0.975708485
vt 0.349121094 0.954116046
vt 0.362792969 0.954790831
vt 0.362792969 0.976383269
vt 0.394042969 0.976383269
vt 0.394042969 0.954790831
vt 0.722167969 0.939945996
vt 0.722167969 0.983130932
vt 0.737792969 0.983130932
vt 0.737792969 0.939945996
vt 0.395019531 0.954790831
vt 0.395019531 0.976383269
vt 0.426269531 0.976383269
vt 0.426269531 0.954790831
vt 0.602050781 0.954790831
vt 0.602050781 0.974358976
vt 0.617675781 0.974358976
vt 0.617675781 0.954790831
vt 0.618652344 0.954790831
vt 0.618652344 0.976383269
vt 0.634277344 0.976383269
vt 0.634277344 0.954790831
vt 0.221191406 0.956140339
vt 0.221191406 0.977732778
vt 0.236816406 0.977732778
vt 0.236816406 0.956140339
vt 0.237792969 0.956140339
vt 0.237792969 0.977732778
vt 0.253417969 0.977732778
vt 0.253417969 0.956140339
vt 0.254394531 0.956140339
vt 0.254394531 0.977732778
vt 0.270019531 0.977732778
vt 0.270019531 0.956140339
vt 0.270996094 0.956140339
vt 0.270996094 0.977732778
vt 0.286621094 0.977732778
vt 0.286621094 0.956140339
vt 0.287597656 0.956140339
vt 0.287597656 0.977732778
vt 0.303222656 0.977732778
vt 0.303222656 0.956140339
vt 0.537597656 0.957489848
vt 0.537597656 0.979082346
vt 0.553222656 0.979082346
vt 0.553222656 0.957489848
vt 0.441894531 0.958839417
vt 0.441894531 0.980431855
vt 0.457519531 0.980431855
vt 0.457519531 0.958839417
vt 0.816894531 0.960863709
vt 0.816894531 0.982456148
vt 0.832519531 0.982456148
vt 0.832519531 0.960863709
vt 0.910644531 0.960863709
vt 0.910644531 0.982456148
vt 0.926269531 0.982456148
vt 0.926269531 0.960863709
vt 0.785644531 0.962888002
vt 0.785644531 0.984480441
vt 0.801269531 0.984480441
vt 0.801269531 0.962888002
vt 0.974121094 0.962888002
vt 0.974121094 0.984480441
vt 0.989746094 0.984480441
vt 0.989746094 0.962888002
vt 0.753417969 0.964237511
vt 0.753417969 0.985829949
vt 0.769042969 0.985829949
vt 0.769042969 0.964237511
vt 0.941894531 0.964237511
vt 0.941894531 0.985829949
vt 0.957519531 0.985829949
vt 0.957519531 0.964237511
vt 0.602050781 0.975708485
vt 0.602050781 0.997300923
vt 0.617675781 0.997300923
vt 0.617675781 0.975708485
vt 0.317871094 0.977058053
vt 0.317871094 0.998650491
vt 0.333496094 0.998650491
vt 0.333496094 0.977058053
vt 0.334472656 0.977058053
vt 0.334472656 0.998650491
vt 0.350097656 0.998650491
vt 0.350097656 0.977058053
vt 0.362792969 0.977732778
vt 0.362792969 0.999325216
vt 0.378417969 0.999325216
vt 0.378417969 0.977732778
vt 0.379394531 0.977732778
vt 0.379394531 0.999325216
vt 0.395019531 0.999325216
vt 0.395019531 0.977732778
vt 0.395996094 0.977732778
vt 0.395996094 0.999325216
vt 0.411621094 0.999325216
vt 0.411621094 0.977732778
g tashigan_4-mesh_0
f 3/3/3 2/2/2 1/1/1
f 1/1/1 4/4/4 3/3/3
f 7/7/7 6/6/6 5/5/5
f 5/5/5 8/8/8 7/7/7
f 11/11/11 10/10/10 9/9/9
f 9/9/9 12/12/12 11/11/11
f 15/15/15 14/14/14 13/13/13
f 13/13/13 16/16/16 15/15/15
f 19/19/19 18/18/18 17/17/17
f 17/17/17 20/20/20 19/19/19
f 23/23/23 22/22/22 21/21/21
f 21/21/21 24/24/24 23/23/23
f 27/27/27 26/26/26 25/25/25
f 25/25/25 28/28/28 27/27/27
f 31/31/31 30/30/30 29/29/29
f 29/29/29 32/32/32 31/31/31
f 35/35/35 34/34/34 33/33/33
f 33/33/33 36/36/36 35/35/35
f 39/39/39 38/38/38 37/37/37
f 37/37/37 40/40/40 39/39/39
f 43/43/43 42/42/42 41/41/41
f 41/41/41 44/44/44 43/43/43
f 47/47/47 46/46/46 45/45/45
f 45/45/45 48/48/48 47/47/47
f 51/51/51 50/50/50 49/49/49
f 49/49/49 52/52/52 51/51/51
f 55/55/55 54/54/54 53/53/53
f 53/53/53 56/56/56 55/55/55
f 59/59/59 58/58/58 57/57/57
f 57/57/57 60/60/60 59/59/59
f 63/63/63 62/62/62 61/61/61
f 61/61/61 64/64/64 63/63/63
f 67/67/67 66/66/66 65/65/65
f 65/65/65 68/68/68 67/67/67
f 71/71/71 70/70/70 69/69/69
f 69/69/69 72/72/72 71/71/71
f 75/75/75 74/74/74 73/73/73
f 73/73/73 76/76/76 75/75/75
f 79/79/79 78/78/78 77/77/77
f 77/77/77 80/80/80 79/79/79
f 83/83/83 82/82/82 81/81/81
f 81/81/81 84/84/84 83/83/83
f 87/87/87 86/86/86 85/85/85
f 85/85/85 88/88/88 87/87/87
f 91/91/91 90/90/90 89/89/89
f 89/89/89 92/92/92 91/91/91
f 95/95/95 94/94/94 93/93/93
f 93/93/93 96/96/96 95/95/95
f 99/99/99 98/98/98 97/97/97
f 97/97/97 100/100/100 99/99/99
f 103/103/103 102/102/102 101/101/101
f 101/101/101 104/104/104 103/103/103
f 107/107/107 106/106/106 105/105/105
f 105/105/105 108/108/108 107/107/107
f 111/111/111 110/110/110 109/109/109
f 109/109/109 112/112/112 111/111/111
f 115/115/115 114/114/114 113/113/113
f 113/113/113 116/116/116 115/115/115
f 119/119/119 118/118/118 117/117/117
f 117/117/117 120/120/120 119/119/119
f 123/123/123 122/122/122 121/121/121
f 121/121/121 124/124/124 123/123/123
f 127/127/127 126/126/126 125/125/125
f 125/125/125 128/128/128 127/127/127
f 131/131/131 130/130/130 129/129/129
f 129/129/129 132/132/132 131/131/131
f 135/135/135 134/134/134 133/133/133
f 133/133/133 136/136/136 135/135/135
f 139/139/139 138/138/138 137/137/137
f 137/137/137 140/140/140 139/139/139
f 143/143/143 142/142/142 141/141/141
f 141/141/141 144/144/144 143/143/143
f 147/147/147 146/146/146 145/145/145
f 145/145/145 148/148/148 147/147/147
f 151/151/151 150/150/150 149/149/149
f 149/149/149 152/152/152 151/151/151
f 155/155/155 154/154/154 153/153/153
f 153/153/153 156/156/156 155/155/155
f 159/159/159 158/158/158 157/157/157
f 157/157/157 160/160/160 159/159/159
f 163/163/163 162/162/162 161/161/161
f 161/161/161 164/164/164 163/163/163
f 167/167/167 166/166/166 165/165/165
f 165/165/165 168/168/168 167/167/167
f 171/171/171 170/170/170 169/169/169
f 169/169/169 172/172/172 171/171/171
f 175/175/175 174/174/174 173/173/173
f 173/173/173 176/176/176 175/175/175
f 179/179/179 178/178/178 177/177/177
f 177/177/177 180/180/180 179/179/179
f 183/183/183 182/182/182 181/181/181
f 181/181/181 184/184/184 183/183/183
f 187/187/187 186/186/186 185/185/185
f 185/185/185 188/188/188 187/187/187
f 191/191/191 190/190/190 189/189/189
f 189/189/189 192/192/192 191/191/191
f 195/195/195 194/194/194 193/193/193
f 193/193/193 196/196/196 195/195/195
f 199/199/199 198/198/198 197/197/197
f 197/197/197 200/200/200 199/199/199
f 203/203/203 202/202/202 201/201/201
f 201/201/201 204/204/204 203/203/203
f 207/207/207 206/206/206 205/205/205
f 205/205/205 208/208/208 207/207/207
f 211/211/211 210/210/210 209/209/209
f 209/209/209 212/212/212 211/211/211
f 215/215/215 214/214/214 213/213/213
f 213/213/213 216/216/216 215/215/215
f 219/219/219 218/218/218 217/217/217
f 217/217/217 220/220/220 219/219/219
f 223/223/223 222/222/222 221/221/221
f 221/221/221 224/224/224 223/223/223
f 227/227/227 226/226/226 225/225/225
f 225/225/225 228/228/228 227/227/227
f 231/231/231 230/230/230 229/229/229
f 229/229/229 232/232/232 231/231/231
f 235/235/235 234/234/234 233/233/233
f 233/233/233 236/236/236 235/235/235
f 239/239/239 238/238/238 237/237/237
f 237/237/237 240/240/240 239/239/239
f 243/243/243 242/242/242 241/241/241
f 241/241/241 244/244/244 243/243/243
f 247/247/247 246/246/246 245/245/245
f 245/245/245 248/248/248 247/247/247
f 251/251/251 250/250/250 249/249/249
f 249/249/249 252/252/252 251/251/251
f 255/255/255 254/254/254 253/253/253
f 253/253/253 256/256/256 255/255/255
f 259/259/259 258/258/258 257/257/257
f 257/257/257 260/260/260 259/259/259
f 263/263/263 262/262/262 261/261/261
f 261/261/261 264/264/264 263/263/263
f 267/267/267 266/266/266 265/265/265
f 265/265/265 268/268/268 267/267/267
f 271/271/271 270/270/270 269/269/269
f 269/269/269 272/272/272 271/271/271
f 275/275/275 274/274/274 273/273/273
f 273/273/273 276/276/276 275/275/275
f 279/279/279 278/278/278 277/277/277
f 277/277/277 280/280/280 279/279/279
f 283/283/283 282/282/282 281/281/281
f 281/281/281 284/284/284 283/283/283
f 287/287/287 286/286/286 285/285/285
f 285/285/285 288/288/288 287/287/287
f 291/291/291 290/290/290 289/289/289
f 289/289/289 292/292/292 291/291/291
f 295/295/295 294/294/294 293/293/293
f 293/293/293 296/296/296 295/295/295
f 299/299/299 298/298/298 297/297/297
f 297/297/297 300/300/300 299/299/299
f 303/303/303 302/302/302 301/301/301
f 301/301/301 304/304/304 303/303/303
f 307/307/307 306/306/306 305/305/305
f 305/305/305 308/308/308 307/307/307
f 311/311/311 310/310/310 309/309/309
f 309/309/309 312/312/312 311/311/311
f 315/315/315 314/314/314 313/313/313
f 313/313/313 316/316/316 315/315/315
f 319/319/319 318/318/318 317/317/317
f 317/317/317 320/320/320 319/319/319
f 323/323/323 322/322/322 321/321/321
f 321/321/321 324/324/324 323/323/323
f 327/327/327 326/326/326 325/325/325
f 325/325/325 328/328/328 327/327/327
f 331/331/331 330/330/330 329/329/329
f 329/329/329 332/332/332 331/331/331
f 335/335/335 334/334/334 333/333/333
f 333/333/333 336/336/336 335/335/335
f 339/339/339 338/338/338 337/337/337
f 337/337/337 340/340/340 339/339/339
f 343/343/343 342/342/342 341/341/341
f 341/341/341 344/344/344 343/343/343
f 347/347/347 346/346/346 345/345/345
f 345/345/345 348/348/348 347/347/347
f 351/351/351 350/350/350 349/349/349
f 349/349/349 352/352/352 351/351/351
f 355/355/355 354/354/354 353/353/353
f 353/353/353 356/356/356 355/355/355
f 359/359/359 358/358/358 357/357/357
f 357/357/357 360/360/360 359/359/359
f 363/363/363 362/362/362 361/361/361
f 361/361/361 364/364/364 363/363/363
f 367/367/367 366/366/366 365/365/365
f 365/365/365 368/368/368 367/367/367
f 371/371/371 370/370/370 369/369/369
f 369/369/369 372/372/372 371/371/371
f 375/375/375 374/374/374 373/373/373
f 373/373/373 376/376/376 375/375/375
f 379/379/379 378/378/378 377/377/377
f 377/377/377 380/380/380 379/379/379
f 383/383/383 382/382/382 381/381/381
f 381/381/381 384/384/384 383/383/383
f 387/387/387 386/386/386 385/385/385
f 385/385/385 388/388/388 387/387/387
f 391/391/391 390/390/390 389/389/389
f 389/389/389 392/392/392 391/391/391
f 395/395/395 394/394/394 393/393/393
f 393/393/393 396/396/396 395/395/395
