g xuefeng_h-mesh
v -480 287 0
v -480 639 0
v -800 639 0
v -800 287 0
v -160 287 0
v -160 639 0
v -480 639 0
v -480 287 0
v -224 639 0
v -224 959 0
v -480 959 0
v -480 639 0
v -224 127 0
v -224 287 0
v -480 287 0
v -480 127 0
v -64 831 0
v -64 991 0
v -224 991 0
v -224 831 0
v -480 639 0
v -480 735 0
v -576 735 0
v -576 639 0
v -832 383 0
v -832 479 0
v -927 479 0
v -927 383 0
v -288 63 0
v -288 127 0
v -416 127 0
v -416 63 0
v -608 639 0
v -608 703 0
v -736 703 0
v -736 639 0
v -736 639 0
v -736 703 0
v -864 703 0
v -864 639 0
v -96 447 0
v -96 575 0
v -160 575 0
v -160 447 0
v -736 767 0
v -736 863 0
v -800 863 0
v -800 767 0
v -32 703 0
v -32 799 0
v -96 799 0
v -96 703 0
v -96 351 0
v -96 447 0
v -160 447 0
v -160 351 0
v -480 223 0
v -480 287 0
v -576 287 0
v -576 223 0
v -576 223 0
v -576 287 0
v -672 287 0
v -672 223 0
v -160 223 0
v -160 287 0
v -224 287 0
v -224 223 0
v -608 735 0
v -608 799 0
v -672 799 0
v -672 735 0
v -320 0 0
v -320 63 0
v -384 63 0
v -384 0 0
v -576 159 0
v -576 223 0
v -640 223 0
v -640 159 0
v -352 959 0
v -352 1023 0
v -416 1023 0
v -416 959 0
v -32 927 0
v -32 1023 0
v -64 1023 0
v -64 927 0
v -800 351 0
v -800 447 0
v -832 447 0
v -832 351 0
v -0 863 0
v -0 927 0
v -32 927 0
v -32 863 0
v -128 991 0
v -128 1023 0
v -192 1023 0
v -192 991 0
v -704 255 0
v -704 287 0
v -768 287 0
v -768 255 0
v -224 959 0
v -224 1023 0
v -256 1023 0
v -256 959 0
v -192 767 0
v -192 831 0
v -224 831 0
v -224 767 0
v -864 479 0
v -864 511 0
v -927 511 0
v -927 479 0
v -192 159 0
v -192 223 0
v -224 223 0
v -224 159 0
v -800 479 0
v -800 543 0
v -832 543 0
v -832 479 0
v -416 95 0
v -416 127 0
v -480 127 0
v -480 95 0
v -576 671 0
v -576 735 0
v -608 735 0
v -608 671 0
v -128 287 0
v -128 351 0
v -160 351 0
v -160 287 0
v -768 703 0
v -768 735 0
v -832 735 0
v -832 703 0
v -32 863 0
v -32 927 0
v -64 927 0
v -64 863 0
v -704 703 0
v -704 735 0
v -768 735 0
v -768 703 0
v -480 735 0
v -480 799 0
v -512 799 0
v -512 735 0
v -800 287 0
v -800 351 0
v -832 351 0
v -832 287 0
v -96 671 0
v -96 735 0
v -128 735 0
v -128 671 0
v -32 575 0
v -32 607 0
v -96 607 0
v -96 575 0
v -480 799 0
v -480 863 0
v -512 863 0
v -512 799 0
v -64 671 0
v -64 703 0
v -96 703 0
v -96 671 0
v -192 639 0
v -192 671 0
v -224 671 0
v -224 639 0
v -512 735 0
v -512 767 0
v -544 767 0
v -544 735 0
v -672 735 0
v -672 767 0
v -704 767 0
v -704 735 0
v -384 31 0
v -384 63 0
v -416 63 0
v -416 31 0
v -544 191 0
v -544 223 0
v -576 223 0
v -576 191 0
v -64 543 0
v -64 575 0
v -96 575 0
v -96 543 0
v -864 351 0
v -864 383 0
v -896 383 0
v -896 351 0
v -96 639 0
v -96 671 0
v -128 671 0
v -128 639 0
v -128 255 0
v -128 287 0
v -160 287 0
v -160 255 0
v -96 575 0
v -96 607 0
v -128 607 0
v -128 575 0
v -768 255 0
v -768 287 0
v -800 287 0
v -800 255 0
v -320 959 0
v -320 991 0
v -352 991 0
v -352 959 0
v -800 767 0
v -800 799 0
v -832 799 0
v -832 767 0
v -64 991 0
v -64 1023 0
v -96 1023 0
v -96 991 0
v -0 959 0
v -0 991 0
v -32 991 0
v -32 959 0
vt 0.0009765625 0.00170648098
vt 0.0009765625 0.602389097
vt 0.313476562 0.602389097
vt 0.313476562 0.00170648098
vt 0.315429688 0.00170648098
vt 0.315429688 0.602389097
vt 0.627929688 0.602389097
vt 0.627929688 0.00170648098
vt 0.629882812 0.00170648098
vt 0.629882812 0.547781587
vt 0.879882812 0.547781587
vt 0.879882812 0.00170648098
vt 0.629882812 0.551194549
vt 0.629882812 0.824232101
vt 0.879882812 0.824232101
vt 0.879882812 0.551194549
vt 0.0009765625 0.605802059
vt 0.0009765625 0.878839612
vt 0.157226562 0.878839612
vt 0.157226562 0.605802059
vt 0.881835938 0.00170648098
vt 0.881835938 0.165529013
vt 0.975585938 0.165529013
vt 0.975585938 0.00170648098
vt 0.881835938 0.168941975
vt 0.881835938 0.332764506
vt 0.975585938 0.332764506
vt 0.975585938 0.168941975
vt 0.159179688 0.605802059
vt 0.159179688 0.71501708
vt 0.284179688 0.71501708
vt 0.284179688 0.605802059
vt 0.286132812 0.605802059
vt 0.286132812 0.71501708
vt 0.411132812 0.71501708
vt 0.411132812 0.605802059
vt 0.413085938 0.605802059
vt 0.413085938 0.71501708
vt 0.538085938 0.71501708
vt 0.538085938 0.605802059
vt 0.881835938 0.336177468
vt 0.881835938 0.554607511
vt 0.944335938 0.554607511
vt 0.944335938 0.336177468
vt 0.881835938 0.558020473
vt 0.881835938 0.721843004
vt 0.944335938 0.721843004
vt 0.944335938 0.558020473
vt 0.540039062 0.605802059
vt 0.540039062 0.769624591
vt 0.602539062 0.769624591
vt 0.602539062 0.605802059
vt 0.159179688 0.718430042
vt 0.159179688 0.882252574
vt 0.221679688 0.882252574
vt 0.221679688 0.718430042
vt 0.223632812 0.718430042
vt 0.223632812 0.827645063
vt 0.317382812 0.827645063
vt 0.317382812 0.718430042
vt 0.319335938 0.718430042
vt 0.319335938 0.827645063
vt 0.413085938 0.827645063
vt 0.413085938 0.718430042
vt 0.415039062 0.718430042
vt 0.415039062 0.827645063
vt 0.477539062 0.827645063
vt 0.477539062 0.718430042
vt 0.881835938 0.725255966
vt 0.881835938 0.834470987
vt 0.944335938 0.834470987
vt 0.944335938 0.725255966
vt 0.540039062 0.773037553
vt 0.540039062 0.882252574
vt 0.602539062 0.882252574
vt 0.602539062 0.773037553
vt 0.629882812 0.827645063
vt 0.629882812 0.936860085
vt 0.692382812 0.936860085
vt 0.692382812 0.827645063
vt 0.694335938 0.827645063
vt 0.694335938 0.936860085
vt 0.756835938 0.936860085
vt 0.756835938 0.827645063
vt 0.946289062 0.336177468
vt 0.946289062 0.5
vt 0.977539062 0.5
vt 0.977539062 0.336177468
vt 0.946289062 0.503412962
vt 0.946289062 0.667235494
vt 0.977539062 0.667235494
vt 0.977539062 0.503412962
vt 0.946289062 0.670648456
vt 0.946289062 0.779863477
vt 0.977539062 0.779863477
vt 0.977539062 0.670648456
vt 0.758789062 0.827645063
vt 0.758789062 0.882252574
vt 0.821289062 0.882252574
vt 0.821289062 0.827645063
vt 0.223632812 0.831058025
vt 0.223632812 0.885665536
vt 0.286132812 0.885665536
vt 0.286132812 0.831058025
vt 0.479492188 0.718430042
vt 0.479492188 0.827645063
vt 0.510742188 0.827645063
vt 0.510742188 0.718430042
vt 0.946289062 0.783276439
vt 0.946289062 0.89249146
vt 0.977539062 0.89249146
vt 0.977539062 0.783276439
vt 0.288085938 0.831058025
vt 0.288085938 0.885665536
vt 0.350585938 0.885665536
vt 0.350585938 0.831058025
vt 0.823242188 0.827645063
vt 0.823242188 0.936860085
vt 0.854492188 0.936860085
vt 0.854492188 0.827645063
vt 0.352539062 0.831058025
vt 0.352539062 0.940273046
vt 0.383789062 0.940273046
vt 0.383789062 0.831058025
vt 0.385742188 0.831058025
vt 0.385742188 0.885665536
vt 0.448242188 0.885665536
vt 0.448242188 0.831058025
vt 0.450195312 0.831058025
vt 0.450195312 0.940273046
vt 0.481445312 0.940273046
vt 0.481445312 0.831058025
vt 0.483398438 0.831058025
vt 0.483398438 0.940273046
vt 0.514648438 0.940273046
vt 0.514648438 0.831058025
vt 0.881835938 0.837883949
vt 0.881835938 0.89249146
vt 0.944335938 0.89249146
vt 0.944335938 0.837883949
vt 0.0009765625 0.882252574
vt 0.0009765625 0.991467595
vt 0.0322265625 0.991467595
vt 0.0322265625 0.882252574
vt 0.0341796875 0.882252574
vt 0.0341796875 0.936860085
vt 0.0966796875 0.936860085
vt 0.0966796875 0.882252574
vt 0.0986328125 0.882252574
vt 0.0986328125 0.991467595
vt 0.129882812 0.991467595
vt 0.129882812 0.882252574
vt 0.159179688 0.885665536
vt 0.159179688 0.994880557
vt 0.190429688 0.994880557
vt 0.190429688 0.885665536
vt 0.540039062 0.885665536
vt 0.540039062 0.994880557
vt 0.571289062 0.994880557
vt 0.571289062 0.885665536
vt 0.758789062 0.885665536
vt 0.758789062 0.940273046
vt 0.821289062 0.940273046
vt 0.821289062 0.885665536
vt 0.573242188 0.885665536
vt 0.573242188 0.994880557
vt 0.604492188 0.994880557
vt 0.604492188 0.885665536
vt 0.223632812 0.889078498
vt 0.223632812 0.943686008
vt 0.254882812 0.943686008
vt 0.254882812 0.889078498
vt 0.256835938 0.889078498
vt 0.256835938 0.943686008
vt 0.288085938 0.943686008
vt 0.288085938 0.889078498
vt 0.290039062 0.889078498
vt 0.290039062 0.943686008
vt 0.321289062 0.943686008
vt 0.321289062 0.889078498
vt 0.385742188 0.889078498
vt 0.385742188 0.943686008
vt 0.416992188 0.943686008
vt 0.416992188 0.889078498
vt 0.881835938 0.895904422
vt 0.881835938 0.950511932
vt 0.913085938 0.950511932
vt 0.913085938 0.895904422
vt 0.915039062 0.895904422
vt 0.915039062 0.950511932
vt 0.946289062 0.950511932
vt 0.946289062 0.895904422
vt 0.948242188 0.895904422
vt 0.948242188 0.950511932
vt 0.979492188 0.950511932
vt 0.979492188 0.895904422
vt 0.0341796875 0.940273046
vt 0.0341796875 0.994880557
vt 0.0654296875 0.994880557
vt 0.0654296875 0.940273046
vt 0.629882812 0.940273046
vt 0.629882812 0.994880557
vt 0.661132812 0.994880557
vt 0.661132812 0.940273046
vt 0.663085938 0.940273046
vt 0.663085938 0.994880557
vt 0.694335938 0.994880557
vt 0.694335938 0.940273046
vt 0.696289062 0.940273046
vt 0.696289062 0.994880557
vt 0.727539062 0.994880557
vt 0.727539062 0.940273046
vt 0.823242188 0.940273046
vt 0.823242188 0.994880557
vt 0.854492188 0.994880557
vt 0.854492188 0.940273046
vt 0.352539062 0.943686008
vt 0.352539062 0.998293519
vt 0.383789062 0.998293519
vt 0.383789062 0.943686008
vt 0.450195312 0.943686008
vt 0.450195312 0.998293519
vt 0.481445312 0.998293519
vt 0.481445312 0.943686008
vt 0.483398438 0.943686008
vt 0.483398438 0.998293519
vt 0.514648438 0.998293519
vt 0.514648438 0.943686008
vt 0.758789062 0.943686008
vt 0.758789062 0.998293519
vt 0.790039062 0.998293519
vt 0.790039062 0.943686008
g xuefeng_h-mesh_0
f 3/3/3 2/2/2 1/1/1
f 1/1/1 4/4/4 3/3/3
f 7/7/7 6/6/6 5/5/5
f 5/5/5 8/8/8 7/7/7
f 11/11/11 10/10/10 9/9/9
f 9/9/9 12/12/12 11/11/11
f 15/15/15 14/14/14 13/13/13
f 13/13/13 16/16/16 15/15/15
f 19/19/19 18/18/18 17/17/17
f 17/17/17 20/20/20 19/19/19
f 23/23/23 22/22/22 21/21/21
f 21/21/21 24/24/24 23/23/23
f 27/27/27 26/26/26 25/25/25
f 25/25/25 28/28/28 27/27/27
f 31/31/31 30/30/30 29/29/29
f 29/29/29 32/32/32 31/31/31
f 35/35/35 34/34/34 33/33/33
f 33/33/33 36/36/36 35/35/35
f 39/39/39 38/38/38 37/37/37
f 37/37/37 40/40/40 39/39/39
f 43/43/43 42/42/42 41/41/41
f 41/41/41 44/44/44 43/43/43
f 47/47/47 46/46/46 45/45/45
f 45/45/45 48/48/48 47/47/47
f 51/51/51 50/50/50 49/49/49
f 49/49/49 52/52/52 51/51/51
f 55/55/55 54/54/54 53/53/53
f 53/53/53 56/56/56 55/55/55
f 59/59/59 58/58/58 57/57/57
f 57/57/57 60/60/60 59/59/59
f 63/63/63 62/62/62 61/61/61
f 61/61/61 64/64/64 63/63/63
f 67/67/67 66/66/66 65/65/65
f 65/65/65 68/68/68 67/67/67
f 71/71/71 70/70/70 69/69/69
f 69/69/69 72/72/72 71/71/71
f 75/75/75 74/74/74 73/73/73
f 73/73/73 76/76/76 75/75/75
f 79/79/79 78/78/78 77/77/77
f 77/77/77 80/80/80 79/79/79
f 83/83/83 82/82/82 81/81/81
f 81/81/81 84/84/84 83/83/83
f 87/87/87 86/86/86 85/85/85
f 85/85/85 88/88/88 87/87/87
f 91/91/91 90/90/90 89/89/89
f 89/89/89 92/92/92 91/91/91
f 95/95/95 94/94/94 93/93/93
f 93/93/93 96/96/96 95/95/95
f 99/99/99 98/98/98 97/97/97
f 97/97/97 100/100/100 99/99/99
f 103/103/103 102/102/102 101/101/101
f 101/101/101 104/104/104 103/103/103
f 107/107/107 106/106/106 105/105/105
f 105/105/105 108/108/108 107/107/107
f 111/111/111 110/110/110 109/109/109
f 109/109/109 112/112/112 111/111/111
f 115/115/115 114/114/114 113/113/113
f 113/113/113 116/116/116 115/115/115
f 119/119/119 118/118/118 117/117/117
f 117/117/117 120/120/120 119/119/119
f 123/123/123 122/122/122 121/121/121
f 121/121/121 124/124/124 123/123/123
f 127/127/127 126/126/126 125/125/125
f 125/125/125 128/128/128 127/127/127
f 131/131/131 130/130/130 129/129/129
f 129/129/129 132/132/132 131/131/131
f 135/135/135 134/134/134 133/133/133
f 133/133/133 136/136/136 135/135/135
f 139/139/139 138/138/138 137/137/137
f 137/137/137 140/140/140 139/139/139
f 143/143/143 142/142/142 141/141/141
f 141/141/141 144/144/144 143/143/143
f 147/147/147 146/146/146 145/145/145
f 145/145/145 148/148/148 147/147/147
f 151/151/151 150/150/150 149/149/149
f 149/149/149 152/152/152 151/151/151
f 155/155/155 154/154/154 153/153/153
f 153/153/153 156/156/156 155/155/155
f 159/159/159 158/158/158 157/157/157
f 157/157/157 160/160/160 159/159/159
f 163/163/163 162/162/162 161/161/161
f 161/161/161 164/164/164 163/163/163
f 167/167/167 166/166/166 165/165/165
f 165/165/165 168/168/168 167/167/167
f 171/171/171 170/170/170 169/169/169
f 169/169/169 172/172/172 171/171/171
f 175/175/175 174/174/174 173/173/173
f 173/173/173 176/176/176 175/175/175
f 179/179/179 178/178/178 177/177/177
f 177/177/177 180/180/180 179/179/179
f 183/183/183 182/182/182 181/181/181
f 181/181/181 184/184/184 183/183/183
f 187/187/187 186/186/186 185/185/185
f 185/185/185 188/188/188 187/187/187
f 191/191/191 190/190/190 189/189/189
f 189/189/189 192/192/192 191/191/191
f 195/195/195 194/194/194 193/193/193
f 193/193/193 196/196/196 195/195/195
f 199/199/199 198/198/198 197/197/197
f 197/197/197 200/200/200 199/199/199
f 203/203/203 202/202/202 201/201/201
f 201/201/201 204/204/204 203/203/203
f 207/207/207 206/206/206 205/205/205
f 205/205/205 208/208/208 207/207/207
f 211/211/211 210/210/210 209/209/209
f 209/209/209 212/212/212 211/211/211
f 215/215/215 214/214/214 213/213/213
f 213/213/213 216/216/216 215/215/215
f 219/219/219 218/218/218 217/217/217
f 217/217/217 220/220/220 219/219/219
f 223/223/223 222/222/222 221/221/221
f 221/221/221 224/224/224 223/223/223
f 227/227/227 226/226/226 225/225/225
f 225/225/225 228/228/228 227/227/227
f 231/231/231 230/230/230 229/229/229
f 229/229/229 232/232/232 231/231/231
