g anninvwang_2_shophx-mesh
v -0 102 0
v -0 294 0
v -224 294 0
v -224 102 0
v -96 6 0
v -96 102 0
v -317 102 0
v -317 6 0
v -224 102 0
v -224 198 0
v -317 198 0
v -317 102 0
v -0 294 0
v -0 326 0
v -96 326 0
v -96 294 0
v -224 198 0
v -224 262 0
v -256 262 0
v -256 198 0
v -32 70 0
v -32 102 0
v -96 102 0
v -96 70 0
v -192 0 0
v -192 6 0
v -256 6 0
v -256 0 0
v -96 294 0
v -96 326 0
v -160 326 0
v -160 294 0
v -128 0 0
v -128 6 0
v -192 6 0
v -192 0 0
v -64 38 0
v -64 70 0
v -96 70 0
v -96 38 0
v -256 198 0
v -256 230 0
v -288 230 0
v -288 198 0
vt 0.001953125 0.00510203838
vt 0.001953125 0.984693885
vt 0.439453125 0.984693885
vt 0.439453125 0.00510203838
vt 0.443359375 0.00510203838
vt 0.443359375 0.494897962
vt 0.876953125 0.494897962
vt 0.876953125 0.00510203838
vt 0.443359375 0.505102038
vt 0.443359375 0.994897962
vt 0.626953125 0.994897962
vt 0.626953125 0.505102038
vt 0.630859375 0.505102038
vt 0.630859375 0.668367386
vt 0.818359375 0.668367386
vt 0.818359375 0.505102038
vt 0.880859375 0.00510203838
vt 0.880859375 0.331632674
vt 0.943359375 0.331632674
vt 0.943359375 0.00510203838
vt 0.822265625 0.505102038
vt 0.822265625 0.668367386
vt 0.947265625 0.668367386
vt 0.947265625 0.505102038
vt 0.630859375 0.678571463
vt 0.630859375 0.714285731
vt 0.755859375 0.714285731
vt 0.755859375 0.678571463
vt 0.759765625 0.678571463
vt 0.759765625 0.841836751
vt 0.884765625 0.841836751
vt 0.884765625 0.678571463
vt 0.630859375 0.724489808
vt 0.630859375 0.760204077
vt 0.755859375 0.760204077
vt 0.755859375 0.724489808
vt 0.888671875 0.678571463
vt 0.888671875 0.841836751
vt 0.951171875 0.841836751
vt 0.951171875 0.678571463
vt 0.630859375 0.770408154
vt 0.630859375 0.933673501
vt 0.693359375 0.933673501
vt 0.693359375 0.770408154
g anninvwang_2_shophx-mesh_0
f 3/3/3 2/2/2 1/1/1
f 1/1/1 4/4/4 3/3/3
f 7/7/7 6/6/6 5/5/5
f 5/5/5 8/8/8 7/7/7
f 11/11/11 10/10/10 9/9/9
f 9/9/9 12/12/12 11/11/11
f 15/15/15 14/14/14 13/13/13
f 13/13/13 16/16/16 15/15/15
f 19/19/19 18/18/18 17/17/17
f 17/17/17 20/20/20 19/19/19
f 23/23/23 22/22/22 21/21/21
f 21/21/21 24/24/24 23/23/23
f 27/27/27 26/26/26 25/25/25
f 25/25/25 28/28/28 27/27/27
f 31/31/31 30/30/30 29/29/29
f 29/29/29 32/32/32 31/31/31
f 35/35/35 34/34/34 33/33/33
f 33/33/33 36/36/36 35/35/35
f 39/39/39 38/38/38 37/37/37
f 37/37/37 40/40/40 39/39/39
f 43/43/43 42/42/42 41/41/41
f 41/41/41 44/44/44 43/43/43
