g ximu_g-mesh
v -128 27 0
v -128 475 0
v -512 475 0
v -512 27 0
v -512 27 0
v -512 475 0
v -864 475 0
v -864 27 0
v -384 475 0
v -384 731 0
v -608 731 0
v -608 475 0
v -864 219 0
v -864 411 0
v -960 411 0
v -960 219 0
v -32 219 0
v -32 379 0
v -128 379 0
v -128 219 0
v -160 475 0
v -160 571 0
v -256 571 0
v -256 475 0
v -864 27 0
v -864 91 0
v -992 91 0
v -992 27 0
v -608 475 0
v -608 539 0
v -736 539 0
v -736 475 0
v -960 251 0
v -960 347 0
v -1023 347 0
v -1023 251 0
v -704 539 0
v -704 603 0
v -800 603 0
v -800 539 0
v -864 123 0
v -864 219 0
v -928 219 0
v -928 123 0
v -736 475 0
v -736 539 0
v -832 539 0
v -832 475 0
v -512 0 0
v -512 27 0
v -672 27 0
v -672 0 0
v -352 0 0
v -352 27 0
v -512 27 0
v -512 0 0
v -64 0 0
v -64 27 0
v -192 27 0
v -192 0 0
v -736 0 0
v -736 27 0
v -832 27 0
v -832 0 0
v -192 0 0
v -192 27 0
v -288 27 0
v -288 0 0
v -352 635 0
v -352 699 0
v -384 699 0
v -384 635 0
v -0 251 0
v -0 315 0
v -32 315 0
v -32 251 0
v -448 731 0
v -448 763 0
v -512 763 0
v -512 731 0
v -224 571 0
v -224 635 0
v -256 635 0
v -256 571 0
v -64 27 0
v -64 59 0
v -128 59 0
v -128 27 0
v -64 379 0
v -64 411 0
v -128 411 0
v -128 379 0
v -320 475 0
v -320 539 0
v -352 539 0
v -352 475 0
v -608 539 0
v -608 603 0
v -640 603 0
v -640 539 0
v -352 539 0
v -352 603 0
v -384 603 0
v -384 539 0
v -832 0 0
v -832 27 0
v -896 27 0
v -896 0 0
v -608 603 0
v -608 667 0
v -640 667 0
v -640 603 0
v -352 475 0
v -352 539 0
v -384 539 0
v -384 475 0
v -96 155 0
v -96 219 0
v -128 219 0
v -128 155 0
v -96 91 0
v -96 155 0
v -128 155 0
v -128 91 0
v -832 475 0
v -832 507 0
v -864 507 0
v -864 475 0
v -288 475 0
v -288 507 0
v -320 507 0
v -320 475 0
v -864 411 0
v -864 443 0
v -896 443 0
v -896 411 0
v -64 187 0
v -64 219 0
v -96 219 0
v -96 187 0
v -864 91 0
v -864 123 0
v -896 123 0
v -896 91 0
v -128 475 0
v -128 507 0
v -160 507 0
v -160 475 0
v -512 731 0
v -512 763 0
v -544 763 0
v -544 731 0
v -0 219 0
v -0 251 0
v -32 251 0
v -32 219 0
v -192 571 0
v -192 603 0
v -224 603 0
v -224 571 0
v -800 539 0
v -800 571 0
v -832 571 0
v -832 539 0
v -640 539 0
v -640 571 0
v -672 571 0
v -672 539 0
vt 0.0009765625 0.00171822309
vt 0.0009765625 0.771477699
vt 0.375976562 0.771477699
vt 0.375976562 0.00171822309
vt 0.377929688 0.00171822309
vt 0.377929688 0.771477699
vt 0.721679688 0.771477699
vt 0.721679688 0.00171822309
vt 0.723632812 0.00171822309
vt 0.723632812 0.441580772
vt 0.942382812 0.441580772
vt 0.942382812 0.00171822309
vt 0.723632812 0.445017159
vt 0.723632812 0.774914086
vt 0.817382812 0.774914086
vt 0.817382812 0.445017159
vt 0.819335938 0.445017159
vt 0.819335938 0.719931245
vt 0.913085938 0.719931245
vt 0.913085938 0.445017159
vt 0.819335938 0.723367691
vt 0.819335938 0.888316154
vt 0.913085938 0.888316154
vt 0.913085938 0.723367691
vt 0.0009765625 0.774914086
vt 0.0009765625 0.884879708
vt 0.125976562 0.884879708
vt 0.125976562 0.774914086
vt 0.127929688 0.774914086
vt 0.127929688 0.884879708
vt 0.252929688 0.884879708
vt 0.252929688 0.774914086
vt 0.915039062 0.445017159
vt 0.915039062 0.609965622
vt 0.977539062 0.609965622
vt 0.977539062 0.445017159
vt 0.254882812 0.774914086
vt 0.254882812 0.884879708
vt 0.348632812 0.884879708
vt 0.348632812 0.774914086
vt 0.915039062 0.613402069
vt 0.915039062 0.778350532
vt 0.977539062 0.778350532
vt 0.977539062 0.613402069
vt 0.350585938 0.774914086
vt 0.350585938 0.884879708
vt 0.444335938 0.884879708
vt 0.444335938 0.774914086
vt 0.446289062 0.774914086
vt 0.446289062 0.823024035
vt 0.602539062 0.823024035
vt 0.602539062 0.774914086
vt 0.446289062 0.826460481
vt 0.446289062 0.874570429
vt 0.602539062 0.874570429
vt 0.602539062 0.826460481
vt 0.446289062 0.878006876
vt 0.446289062 0.926116824
vt 0.571289062 0.926116824
vt 0.571289062 0.878006876
vt 0.604492188 0.774914086
vt 0.604492188 0.823024035
vt 0.698242188 0.823024035
vt 0.698242188 0.774914086
vt 0.723632812 0.778350532
vt 0.723632812 0.826460481
vt 0.817382812 0.826460481
vt 0.817382812 0.778350532
vt 0.915039062 0.781786919
vt 0.915039062 0.891752601
vt 0.946289062 0.891752601
vt 0.946289062 0.781786919
vt 0.948242188 0.781786919
vt 0.948242188 0.891752601
vt 0.979492188 0.891752601
vt 0.979492188 0.781786919
vt 0.604492188 0.826460481
vt 0.604492188 0.881443322
vt 0.666992188 0.881443322
vt 0.666992188 0.826460481
vt 0.668945312 0.826460481
vt 0.668945312 0.936426103
vt 0.700195312 0.936426103
vt 0.700195312 0.826460481
vt 0.723632812 0.829896927
vt 0.723632812 0.884879708
vt 0.786132812 0.884879708
vt 0.786132812 0.829896927
vt 0.604492188 0.884879708
vt 0.604492188 0.939862549
vt 0.666992188 0.939862549
vt 0.666992188 0.884879708
vt 0.0009765625 0.888316154
vt 0.0009765625 0.998281777
vt 0.0322265625 0.998281777
vt 0.0322265625 0.888316154
vt 0.0341796875 0.888316154
vt 0.0341796875 0.998281777
vt 0.0654296875 0.998281777
vt 0.0654296875 0.888316154
vt 0.0673828125 0.888316154
vt 0.0673828125 0.998281777
vt 0.0986328125 0.998281777
vt 0.0986328125 0.888316154
vt 0.100585938 0.888316154
vt 0.100585938 0.936426103
vt 0.163085938 0.936426103
vt 0.163085938 0.888316154
vt 0.165039062 0.888316154
vt 0.165039062 0.998281777
vt 0.196289062 0.998281777
vt 0.196289062 0.888316154
vt 0.198242188 0.888316154
vt 0.198242188 0.998281777
vt 0.229492188 0.998281777
vt 0.229492188 0.888316154
vt 0.231445312 0.888316154
vt 0.231445312 0.998281777
vt 0.262695312 0.998281777
vt 0.262695312 0.888316154
vt 0.264648438 0.888316154
vt 0.264648438 0.998281777
vt 0.295898438 0.998281777
vt 0.295898438 0.888316154
vt 0.297851562 0.888316154
vt 0.297851562 0.943298995
vt 0.329101562 0.943298995
vt 0.329101562 0.888316154
vt 0.331054688 0.888316154
vt 0.331054688 0.943298995
vt 0.362304688 0.943298995
vt 0.362304688 0.888316154
vt 0.364257812 0.888316154
vt 0.364257812 0.943298995
vt 0.395507812 0.943298995
vt 0.395507812 0.888316154
vt 0.397460938 0.888316154
vt 0.397460938 0.943298995
vt 0.428710938 0.943298995
vt 0.428710938 0.888316154
vt 0.723632812 0.888316154
vt 0.723632812 0.943298995
vt 0.754882812 0.943298995
vt 0.754882812 0.888316154
vt 0.756835938 0.888316154
vt 0.756835938 0.943298995
vt 0.788085938 0.943298995
vt 0.788085938 0.888316154
vt 0.819335938 0.891752601
vt 0.819335938 0.946735382
vt 0.850585938 0.946735382
vt 0.850585938 0.891752601
vt 0.852539062 0.891752601
vt 0.852539062 0.946735382
vt 0.883789062 0.946735382
vt 0.883789062 0.891752601
vt 0.915039062 0.895188987
vt 0.915039062 0.950171828
vt 0.946289062 0.950171828
vt 0.946289062 0.895188987
vt 0.948242188 0.895188987
vt 0.948242188 0.950171828
vt 0.979492188 0.950171828
vt 0.979492188 0.895188987
vt 0.446289062 0.92955327
vt 0.446289062 0.984536111
vt 0.477539062 0.984536111
vt 0.477539062 0.92955327
g ximu_g-mesh_0
f 3/3/3 2/2/2 1/1/1
f 1/1/1 4/4/4 3/3/3
f 7/7/7 6/6/6 5/5/5
f 5/5/5 8/8/8 7/7/7
f 11/11/11 10/10/10 9/9/9
f 9/9/9 12/12/12 11/11/11
f 15/15/15 14/14/14 13/13/13
f 13/13/13 16/16/16 15/15/15
f 19/19/19 18/18/18 17/17/17
f 17/17/17 20/20/20 19/19/19
f 23/23/23 22/22/22 21/21/21
f 21/21/21 24/24/24 23/23/23
f 27/27/27 26/26/26 25/25/25
f 25/25/25 28/28/28 27/27/27
f 31/31/31 30/30/30 29/29/29
f 29/29/29 32/32/32 31/31/31
f 35/35/35 34/34/34 33/33/33
f 33/33/33 36/36/36 35/35/35
f 39/39/39 38/38/38 37/37/37
f 37/37/37 40/40/40 39/39/39
f 43/43/43 42/42/42 41/41/41
f 41/41/41 44/44/44 43/43/43
f 47/47/47 46/46/46 45/45/45
f 45/45/45 48/48/48 47/47/47
f 51/51/51 50/50/50 49/49/49
f 49/49/49 52/52/52 51/51/51
f 55/55/55 54/54/54 53/53/53
f 53/53/53 56/56/56 55/55/55
f 59/59/59 58/58/58 57/57/57
f 57/57/57 60/60/60 59/59/59
f 63/63/63 62/62/62 61/61/61
f 61/61/61 64/64/64 63/63/63
f 67/67/67 66/66/66 65/65/65
f 65/65/65 68/68/68 67/67/67
f 71/71/71 70/70/70 69/69/69
f 69/69/69 72/72/72 71/71/71
f 75/75/75 74/74/74 73/73/73
f 73/73/73 76/76/76 75/75/75
f 79/79/79 78/78/78 77/77/77
f 77/77/77 80/80/80 79/79/79
f 83/83/83 82/82/82 81/81/81
f 81/81/81 84/84/84 83/83/83
f 87/87/87 86/86/86 85/85/85
f 85/85/85 88/88/88 87/87/87
f 91/91/91 90/90/90 89/89/89
f 89/89/89 92/92/92 91/91/91
f 95/95/95 94/94/94 93/93/93
f 93/93/93 96/96/96 95/95/95
f 99/99/99 98/98/98 97/97/97
f 97/97/97 100/100/100 99/99/99
f 103/103/103 102/102/102 101/101/101
f 101/101/101 104/104/104 103/103/103
f 107/107/107 106/106/106 105/105/105
f 105/105/105 108/108/108 107/107/107
f 111/111/111 110/110/110 109/109/109
f 109/109/109 112/112/112 111/111/111
f 115/115/115 114/114/114 113/113/113
f 113/113/113 116/116/116 115/115/115
f 119/119/119 118/118/118 117/117/117
f 117/117/117 120/120/120 119/119/119
f 123/123/123 122/122/122 121/121/121
f 121/121/121 124/124/124 123/123/123
f 127/127/127 126/126/126 125/125/125
f 125/125/125 128/128/128 127/127/127
f 131/131/131 130/130/130 129/129/129
f 129/129/129 132/132/132 131/131/131
f 135/135/135 134/134/134 133/133/133
f 133/133/133 136/136/136 135/135/135
f 139/139/139 138/138/138 137/137/137
f 137/137/137 140/140/140 139/139/139
f 143/143/143 142/142/142 141/141/141
f 141/141/141 144/144/144 143/143/143
f 147/147/147 146/146/146 145/145/145
f 145/145/145 148/148/148 147/147/147
f 151/151/151 150/150/150 149/149/149
f 149/149/149 152/152/152 151/151/151
f 155/155/155 154/154/154 153/153/153
f 153/153/153 156/156/156 155/155/155
f 159/159/159 158/158/158 157/157/157
f 157/157/157 160/160/160 159/159/159
f 163/163/163 162/162/162 161/161/161
f 161/161/161 164/164/164 163/163/163
f 167/167/167 166/166/166 165/165/165
f 165/165/165 168/168/168 167/167/167
