g qiubite_2-mesh
v -160 95 0
v -160 511 0
v -832 511 0
v -832 95 0
v -160 511 0
v -160 927 0
v -832 927 0
v -832 511 0
v -832 511 0
v -832 831 0
v -960 831 0
v -960 511 0
v -832 223 0
v -832 511 0
v -960 511 0
v -960 223 0
v -32 287 0
v -32 511 0
v -160 511 0
v -160 287 0
v -32 511 0
v -32 735 0
v -160 735 0
v -160 511 0
v -288 31 0
v -288 95 0
v -512 95 0
v -512 31 0
v -512 31 0
v -512 95 0
v -736 95 0
v -736 31 0
v -288 927 0
v -288 991 0
v -512 991 0
v -512 927 0
v -512 927 0
v -512 991 0
v -736 991 0
v -736 927 0
v -960 383 0
v -960 543 0
v -1023 543 0
v -1023 383 0
v -960 543 0
v -960 703 0
v -1023 703 0
v -1023 543 0
v -96 159 0
v -96 287 0
v -160 287 0
v -160 159 0
v -96 735 0
v -96 831 0
v -160 831 0
v -160 735 0
v -384 991 0
v -384 1023 0
v -544 1023 0
v -544 991 0
v -512 0 0
v -512 31 0
v -640 31 0
v -640 0 0
v -384 0 0
v -384 31 0
v -512 31 0
v -512 0 0
v -544 991 0
v -544 1023 0
v -672 1023 0
v -672 991 0
v -0 511 0
v -0 639 0
v -32 639 0
v -32 511 0
v -0 383 0
v -0 511 0
v -32 511 0
v -32 383 0
v -64 223 0
v -64 287 0
v -96 287 0
v -96 223 0
v -64 735 0
v -64 799 0
v -96 799 0
v -96 735 0
v -832 831 0
v -832 895 0
v -864 895 0
v -864 831 0
v -736 63 0
v -736 95 0
v -800 95 0
v -800 63 0
v -224 63 0
v -224 95 0
v -288 95 0
v -288 63 0
v -864 159 0
v -864 223 0
v -896 223 0
v -896 159 0
v -832 159 0
v -832 223 0
v -864 223 0
v -864 159 0
v -960 319 0
v -960 383 0
v -992 383 0
v -992 319 0
v -736 927 0
v -736 959 0
v -800 959 0
v -800 927 0
v -224 927 0
v -224 959 0
v -288 959 0
v -288 927 0
v -960 703 0
v -960 735 0
v -992 735 0
v -992 703 0
v -128 127 0
v -128 159 0
v -160 159 0
v -160 127 0
v -896 191 0
v -896 223 0
v -928 223 0
v -928 191 0
v -864 831 0
v -864 863 0
v -896 863 0
v -896 831 0
v -832 127 0
v -832 159 0
v -864 159 0
v -864 127 0
v -960 287 0
v -960 319 0
v -992 319 0
v -992 287 0
v -128 831 0
v -128 863 0
v -160 863 0
v -160 831 0
vt 0.0009765625 0.00110864639
vt 0.0009765625 0.462305963
vt 0.657226562 0.462305963
vt 0.657226562 0.00110864639
vt 0.0009765625 0.464523256
vt 0.0009765625 0.925720632
vt 0.657226562 0.925720632
vt 0.657226562 0.464523256
vt 0.659179688 0.00110864639
vt 0.659179688 0.35587585
vt 0.784179688 0.35587585
vt 0.784179688 0.00110864639
vt 0.786132812 0.00110864639
vt 0.786132812 0.320399106
vt 0.911132812 0.320399106
vt 0.911132812 0.00110864639
vt 0.786132812 0.322616398
vt 0.786132812 0.570953429
vt 0.911132812 0.570953429
vt 0.911132812 0.322616398
vt 0.659179688 0.358093143
vt 0.659179688 0.606430173
vt 0.784179688 0.606430173
vt 0.784179688 0.358093143
vt 0.659179688 0.608647466
vt 0.659179688 0.679600894
vt 0.877929688 0.679600894
vt 0.877929688 0.608647466
vt 0.659179688 0.681818187
vt 0.659179688 0.752771616
vt 0.877929688 0.752771616
vt 0.877929688 0.681818187
vt 0.659179688 0.754988909
vt 0.659179688 0.825942338
vt 0.877929688 0.825942338
vt 0.877929688 0.754988909
vt 0.659179688 0.82815963
vt 0.659179688 0.899113059
vt 0.877929688 0.899113059
vt 0.877929688 0.82815963
vt 0.913085938 0.00110864639
vt 0.913085938 0.178492248
vt 0.975585938 0.178492248
vt 0.975585938 0.00110864639
vt 0.913085938 0.180709541
vt 0.913085938 0.358093143
vt 0.975585938 0.358093143
vt 0.975585938 0.180709541
vt 0.913085938 0.360310435
vt 0.913085938 0.502217293
vt 0.975585938 0.502217293
vt 0.975585938 0.360310435
vt 0.913085938 0.504434586
vt 0.913085938 0.610864758
vt 0.975585938 0.610864758
vt 0.975585938 0.504434586
vt 0.659179688 0.901330352
vt 0.659179688 0.936807096
vt 0.815429688 0.936807096
vt 0.815429688 0.901330352
vt 0.817382812 0.901330352
vt 0.817382812 0.936807096
vt 0.942382812 0.936807096
vt 0.942382812 0.901330352
vt 0.0009765625 0.927937925
vt 0.0009765625 0.963414609
vt 0.125976562 0.963414609
vt 0.125976562 0.927937925
vt 0.127929688 0.927937925
vt 0.127929688 0.963414609
vt 0.252929688 0.963414609
vt 0.252929688 0.927937925
vt 0.944335938 0.613082051
vt 0.944335938 0.754988909
vt 0.975585938 0.754988909
vt 0.975585938 0.613082051
vt 0.944335938 0.757206202
vt 0.944335938 0.899113059
vt 0.975585938 0.899113059
vt 0.975585938 0.757206202
vt 0.944335938 0.901330352
vt 0.944335938 0.97228384
vt 0.975585938 0.97228384
vt 0.975585938 0.901330352
vt 0.254882812 0.927937925
vt 0.254882812 0.998891354
vt 0.286132812 0.998891354
vt 0.286132812 0.927937925
vt 0.288085938 0.927937925
vt 0.288085938 0.998891354
vt 0.319335938 0.998891354
vt 0.319335938 0.927937925
vt 0.321289062 0.927937925
vt 0.321289062 0.963414609
vt 0.383789062 0.963414609
vt 0.383789062 0.927937925
vt 0.385742188 0.927937925
vt 0.385742188 0.963414609
vt 0.448242188 0.963414609
vt 0.448242188 0.927937925
vt 0.450195312 0.927937925
vt 0.450195312 0.998891354
vt 0.481445312 0.998891354
vt 0.481445312 0.927937925
vt 0.483398438 0.927937925
vt 0.483398438 0.998891354
vt 0.514648438 0.998891354
vt 0.514648438 0.927937925
vt 0.516601562 0.927937925
vt 0.516601562 0.998891354
vt 0.547851562 0.998891354
vt 0.547851562 0.927937925
vt 0.549804688 0.927937925
vt 0.549804688 0.963414609
vt 0.612304688 0.963414609
vt 0.612304688 0.927937925
vt 0.659179688 0.939024389
vt 0.659179688 0.974501133
vt 0.721679688 0.974501133
vt 0.721679688 0.939024389
vt 0.614257812 0.927937925
vt 0.614257812 0.963414609
vt 0.645507812 0.963414609
vt 0.645507812 0.927937925
vt 0.723632812 0.939024389
vt 0.723632812 0.974501133
vt 0.754882812 0.974501133
vt 0.754882812 0.939024389
vt 0.756835938 0.939024389
vt 0.756835938 0.974501133
vt 0.788085938 0.974501133
vt 0.788085938 0.939024389
vt 0.790039062 0.939024389
vt 0.790039062 0.974501133
vt 0.821289062 0.974501133
vt 0.821289062 0.939024389
vt 0.823242188 0.939024389
vt 0.823242188 0.974501133
vt 0.854492188 0.974501133
vt 0.854492188 0.939024389
vt 0.856445312 0.939024389
vt 0.856445312 0.974501133
vt 0.887695312 0.974501133
vt 0.887695312 0.939024389
vt 0.889648438 0.939024389
vt 0.889648438 0.974501133
vt 0.920898438 0.974501133
vt 0.920898438 0.939024389
g qiubite_2-mesh_0
f 3/3/3 2/2/2 1/1/1
f 1/1/1 4/4/4 3/3/3
f 7/7/7 6/6/6 5/5/5
f 5/5/5 8/8/8 7/7/7
f 11/11/11 10/10/10 9/9/9
f 9/9/9 12/12/12 11/11/11
f 15/15/15 14/14/14 13/13/13
f 13/13/13 16/16/16 15/15/15
f 19/19/19 18/18/18 17/17/17
f 17/17/17 20/20/20 19/19/19
f 23/23/23 22/22/22 21/21/21
f 21/21/21 24/24/24 23/23/23
f 27/27/27 26/26/26 25/25/25
f 25/25/25 28/28/28 27/27/27
f 31/31/31 30/30/30 29/29/29
f 29/29/29 32/32/32 31/31/31
f 35/35/35 34/34/34 33/33/33
f 33/33/33 36/36/36 35/35/35
f 39/39/39 38/38/38 37/37/37
f 37/37/37 40/40/40 39/39/39
f 43/43/43 42/42/42 41/41/41
f 41/41/41 44/44/44 43/43/43
f 47/47/47 46/46/46 45/45/45
f 45/45/45 48/48/48 47/47/47
f 51/51/51 50/50/50 49/49/49
f 49/49/49 52/52/52 51/51/51
f 55/55/55 54/54/54 53/53/53
f 53/53/53 56/56/56 55/55/55
f 59/59/59 58/58/58 57/57/57
f 57/57/57 60/60/60 59/59/59
f 63/63/63 62/62/62 61/61/61
f 61/61/61 64/64/64 63/63/63
f 67/67/67 66/66/66 65/65/65
f 65/65/65 68/68/68 67/67/67
f 71/71/71 70/70/70 69/69/69
f 69/69/69 72/72/72 71/71/71
f 75/75/75 74/74/74 73/73/73
f 73/73/73 76/76/76 75/75/75
f 79/79/79 78/78/78 77/77/77
f 77/77/77 80/80/80 79/79/79
f 83/83/83 82/82/82 81/81/81
f 81/81/81 84/84/84 83/83/83
f 87/87/87 86/86/86 85/85/85
f 85/85/85 88/88/88 87/87/87
f 91/91/91 90/90/90 89/89/89
f 89/89/89 92/92/92 91/91/91
f 95/95/95 94/94/94 93/93/93
f 93/93/93 96/96/96 95/95/95
f 99/99/99 98/98/98 97/97/97
f 97/97/97 100/100/100 99/99/99
f 103/103/103 102/102/102 101/101/101
f 101/101/101 104/104/104 103/103/103
f 107/107/107 106/106/106 105/105/105
f 105/105/105 108/108/108 107/107/107
f 111/111/111 110/110/110 109/109/109
f 109/109/109 112/112/112 111/111/111
f 115/115/115 114/114/114 113/113/113
f 113/113/113 116/116/116 115/115/115
f 119/119/119 118/118/118 117/117/117
f 117/117/117 120/120/120 119/119/119
f 123/123/123 122/122/122 121/121/121
f 121/121/121 124/124/124 123/123/123
f 127/127/127 126/126/126 125/125/125
f 125/125/125 128/128/128 127/127/127
f 131/131/131 130/130/130 129/129/129
f 129/129/129 132/132/132 131/131/131
f 135/135/135 134/134/134 133/133/133
f 133/133/133 136/136/136 135/135/135
f 139/139/139 138/138/138 137/137/137
f 137/137/137 140/140/140 139/139/139
f 143/143/143 142/142/142 141/141/141
f 141/141/141 144/144/144 143/143/143
f 147/147/147 146/146/146 145/145/145
f 145/145/145 148/148/148 147/147/147
