g baifeng_rw-mesh
v -1088 1151 0
v -1088 1791 0
v -1728 1791 0
v -1728 1151 0
v -448 1151 0
v -448 1791 0
v -1088 1791 0
v -1088 1151 0
v -544 703 0
v -544 1151 0
v -800 1151 0
v -800 703 0
v -1440 703 0
v -1440 991 0
v -1792 991 0
v -1792 703 0
v -160 1119 0
v -160 1471 0
v -448 1471 0
v -448 1119 0
v -1248 2079 0
v -1248 2367 0
v -1600 2367 0
v -1600 2079 0
v -1248 1791 0
v -1248 2079 0
v -1600 2079 0
v -1600 1791 0
v -1184 319 0
v -1184 735 0
v -1408 735 0
v -1408 319 0
v -1184 735 0
v -1184 1151 0
v -1408 1151 0
v -1408 735 0
v -800 991 0
v -800 1151 0
v -1184 1151 0
v -1184 991 0
v -1728 1311 0
v -1728 1663 0
v -1824 1663 0
v -1824 1311 0
v -1728 991 0
v -1728 1311 0
v -1824 1311 0
v -1824 991 0
v -416 1791 0
v -416 2015 0
v -544 2015 0
v -544 1791 0
v -1504 511 0
v -1504 703 0
v -1632 703 0
v -1632 511 0
v -1824 1407 0
v -1824 1503 0
v -2047 1503 0
v -2047 1407 0
v -1216 159 0
v -1216 319 0
v -1344 319 0
v -1344 159 0
v -1600 991 0
v -1600 1151 0
v -1728 1151 0
v -1728 991 0
v -1216 0 0
v -1216 159 0
v -1344 159 0
v -1344 0 0
v -64 991 0
v -64 1183 0
v -160 1183 0
v -160 991 0
v -160 927 0
v -160 1119 0
v -256 1119 0
v -256 927 0
v -1120 1791 0
v -1120 1919 0
v -1248 1919 0
v -1248 1791 0
v -160 767 0
v -160 927 0
v -256 927 0
v -256 767 0
v -1408 735 0
v -1408 1151 0
v -1440 1151 0
v -1440 735 0
v -1600 1919 0
v -1600 2047 0
v -1696 2047 0
v -1696 1919 0
v -1600 1791 0
v -1600 1919 0
v -1696 1919 0
v -1696 1791 0
v -1408 351 0
v -1408 735 0
v -1440 735 0
v -1440 351 0
v -640 607 0
v -640 703 0
v -768 703 0
v -768 607 0
v -608 543 0
v -608 607 0
v -768 607 0
v -768 543 0
v -288 1567 0
v -288 1631 0
v -448 1631 0
v -448 1567 0
v -128 1567 0
v -128 1631 0
v -288 1631 0
v -288 1567 0
v -480 799 0
v -480 959 0
v -544 959 0
v -544 799 0
v -480 639 0
v -480 799 0
v -544 799 0
v -544 639 0
v -448 383 0
v -448 479 0
v -544 479 0
v -544 383 0
v -1408 2367 0
v -1408 2463 0
v -1504 2463 0
v -1504 2367 0
v -1824 1279 0
v -1824 1343 0
v -1952 1343 0
v -1952 1279 0
v -768 543 0
v -768 607 0
v -896 607 0
v -896 543 0
v -0 927 0
v -0 1055 0
v -64 1055 0
v -64 927 0
v -0 799 0
v -0 927 0
v -64 927 0
v -64 799 0
v -416 639 0
v -416 767 0
v -480 767 0
v -480 639 0
v -960 831 0
v -960 927 0
v -1024 927 0
v -1024 831 0
v -608 2047 0
v -608 2143 0
v -672 2143 0
v -672 2047 0
v -320 671 0
v -320 735 0
v -416 735 0
v -416 671 0
v -576 319 0
v -576 383 0
v -672 383 0
v -672 319 0
v -1184 1919 0
v -1184 2015 0
v -1248 2015 0
v -1248 1919 0
v -224 703 0
v -224 767 0
v -320 767 0
v -320 703 0
v -1440 1055 0
v -1440 1151 0
v -1504 1151 0
v -1504 1055 0
v -288 1503 0
v -288 1567 0
v -384 1567 0
v -384 1503 0
v -480 1055 0
v -480 1151 0
v -544 1151 0
v -544 1055 0
v -192 1503 0
v -192 1567 0
v -288 1567 0
v -288 1503 0
v -416 543 0
v -416 639 0
v -480 639 0
v -480 543 0
v -1152 799 0
v -1152 991 0
v -1184 991 0
v -1184 799 0
v -1440 479 0
v -1440 575 0
v -1504 575 0
v -1504 479 0
v -1440 575 0
v -1440 671 0
v -1504 671 0
v -1504 575 0
v -800 959 0
v -800 991 0
v -960 991 0
v -960 959 0
v -960 959 0
v -960 991 0
v -1120 991 0
v -1120 959 0
v -1152 639 0
v -1152 799 0
v -1184 799 0
v -1184 639 0
v -384 1471 0
v -384 1535 0
v -448 1535 0
v -448 1471 0
v -32 735 0
v -32 799 0
v -96 799 0
v -96 735 0
v -352 767 0
v -352 831 0
v -416 831 0
v -416 767 0
v -64 1407 0
v -64 1471 0
v -128 1471 0
v -128 1407 0
v -480 2015 0
v -480 2079 0
v -544 2079 0
v -544 2015 0
v -544 1791 0
v -544 1823 0
v -672 1823 0
v -672 1791 0
v -1600 2047 0
v -1600 2175 0
v -1632 2175 0
v -1632 2047 0
v -800 831 0
v -800 959 0
v -832 959 0
v -832 831 0
v -960 767 0
v -960 831 0
v -1024 831 0
v -1024 767 0
v -1600 2175 0
v -1600 2303 0
v -1632 2303 0
v -1632 2175 0
v -1440 991 0
v -1440 1055 0
v -1504 1055 0
v -1504 991 0
v -480 991 0
v -480 1055 0
v -544 1055 0
v -544 991 0
v -1824 1343 0
v -1824 1375 0
v -1920 1375 0
v -1920 1343 0
v -1792 895 0
v -1792 991 0
v -1824 991 0
v -1824 895 0
v -96 895 0
v -96 991 0
v -128 991 0
v -128 895 0
v -736 511 0
v -736 543 0
v -832 543 0
v -832 511 0
v -224 1791 0
v -224 1823 0
v -320 1823 0
v -320 1791 0
v -832 863 0
v -832 959 0
v -864 959 0
v -864 863 0
v -480 543 0
v -480 639 0
v -512 639 0
v -512 543 0
v -672 1791 0
v -672 1823 0
v -768 1823 0
v -768 1791 0
v -384 1759 0
v -384 1855 0
v -416 1855 0
v -416 1759 0
v -256 927 0
v -256 1023 0
v -288 1023 0
v -288 927 0
v -256 1023 0
v -256 1119 0
v -288 1119 0
v -288 1023 0
v -384 1855 0
v -384 1951 0
v -416 1951 0
v -416 1855 0
v -800 735 0
v -800 831 0
v -832 831 0
v -832 735 0
v -128 1311 0
v -128 1407 0
v -160 1407 0
v -160 1311 0
v -1216 2207 0
v -1216 2303 0
v -1248 2303 0
v -1248 2207 0
v -128 1407 0
v -128 1503 0
v -160 1503 0
v -160 1407 0
v -1184 127 0
v -1184 191 0
v -1216 191 0
v -1216 127 0
v -416 479 0
v -416 543 0
v -448 543 0
v -448 479 0
v -544 2079 0
v -544 2143 0
v -576 2143 0
v -576 2079 0
v -1824 1535 0
v -1824 1599 0
v -1856 1599 0
v -1856 1535 0
v -1632 2111 0
v -1632 2175 0
v -1664 2175 0
v -1664 2111 0
v -1504 2367 0
v -1504 2399 0
v -1568 2399 0
v -1568 2367 0
v -896 2207 0
v -896 2271 0
v -928 2271 0
v -928 2207 0
v -896 607 0
v -896 671 0
v -928 671 0
v -928 607 0
v -288 1055 0
v -288 1119 0
v -320 1119 0
v -320 1055 0
v -992 927 0
v -992 959 0
v -1056 959 0
v -1056 927 0
v -1824 1215 0
v -1824 1279 0
v -1856 1279 0
v -1856 1215 0
v -1920 1375 0
v -1920 1407 0
v -1984 1407 0
v -1984 1375 0
v -224 1695 0
v -224 1727 0
v -288 1727 0
v -288 1695 0
v -256 799 0
v -256 863 0
v -288 863 0
v -288 799 0
v -96 703 0
v -96 767 0
v -128 767 0
v -128 703 0
v -1920 831 0
v -1920 895 0
v -1952 895 0
v -1952 831 0
v -1856 863 0
v -1856 927 0
v -1888 927 0
v -1888 863 0
v -128 831 0
v -128 895 0
v -160 895 0
v -160 831 0
v -1120 2015 0
v -1120 2047 0
v -1184 2047 0
v -1184 2015 0
v -576 671 0
v -576 703 0
v -640 703 0
v -640 671 0
v -1664 639 0
v -1664 703 0
v -1696 703 0
v -1696 639 0
v -928 767 0
v -928 831 0
v -960 831 0
v -960 767 0
v -1536 991 0
v -1536 1055 0
v -1568 1055 0
v -1568 991 0
v -896 895 0
v -896 959 0
v -928 959 0
v -928 895 0
v -1152 319 0
v -1152 383 0
v -1184 383 0
v -1184 319 0
v -1344 63 0
v -1344 127 0
v -1376 127 0
v -1376 63 0
v -544 351 0
v -544 415 0
v -576 415 0
v -576 351 0
v -800 607 0
v -800 671 0
v -832 671 0
v -832 607 0
v -1536 479 0
v -1536 511 0
v -1600 511 0
v -1600 479 0
v -416 1727 0
v -416 1791 0
v -448 1791 0
v -448 1727 0
v -1728 1663 0
v -1728 1727 0
v -1760 1727 0
v -1760 1663 0
v -1088 1823 0
v -1088 1887 0
v -1120 1887 0
v -1120 1823 0
v -352 1823 0
v -352 1887 0
v -384 1887 0
v -384 1823 0
v -544 1823 0
v -544 1887 0
v -576 1887 0
v -576 1823 0
v -448 1087 0
v -448 1151 0
v -480 1151 0
v -480 1087 0
v -32 1055 0
v -32 1119 0
v -64 1119 0
v -64 1055 0
v -128 1183 0
v -128 1247 0
v -160 1247 0
v -160 1183 0
v -320 1471 0
v -320 1503 0
v -384 1503 0
v -384 1471 0
v -1856 1215 0
v -1856 1279 0
v -1888 1279 0
v -1888 1215 0
v -160 1471 0
v -160 1503 0
v -224 1503 0
v -224 1471 0
v -224 1471 0
v -224 1503 0
v -288 1503 0
v -288 1471 0
v -32 1343 0
v -32 1407 0
v -64 1407 0
v -64 1343 0
v -320 1631 0
v -320 1663 0
v -384 1663 0
v -384 1631 0
v -384 1631 0
v -384 1663 0
v -448 1663 0
v -448 1631 0
v -1920 1503 0
v -1920 1535 0
v -1984 1535 0
v -1984 1503 0
v -864 895 0
v -864 959 0
v -896 959 0
v -896 895 0
v -864 831 0
v -864 895 0
v -896 895 0
v -896 831 0
v -1216 2143 0
v -1216 2207 0
v -1248 2207 0
v -1248 2143 0
v -32 1279 0
v -32 1343 0
v -64 1343 0
v -64 1279 0
v -1568 1055 0
v -1568 1119 0
v -1600 1119 0
v -1600 1055 0
v -1568 991 0
v -1568 1055 0
v -1600 1055 0
v -1600 991 0
v -192 1631 0
v -192 1663 0
v -256 1663 0
v -256 1631 0
v -1792 831 0
v -1792 895 0
v -1824 895 0
v -1824 831 0
v -832 799 0
v -832 863 0
v -864 863 0
v -864 799 0
v -480 479 0
v -480 543 0
v -512 543 0
v -512 479 0
v -320 1791 0
v -320 1823 0
v -384 1823 0
v -384 1791 0
v -1920 1343 0
v -1920 1375 0
v -1984 1375 0
v -1984 1343 0
v -96 831 0
v -96 895 0
v -128 895 0
v -128 831 0
v -992 1791 0
v -992 1823 0
v -1056 1823 0
v -1056 1791 0
v -1056 1791 0
v -1056 1823 0
v -1120 1823 0
v -1120 1791 0
v -128 1631 0
v -128 1663 0
v -192 1663 0
v -192 1631 0
v -832 511 0
v -832 543 0
v -896 543 0
v -896 511 0
v -1280 2367 0
v -1280 2399 0
v -1344 2399 0
v -1344 2367 0
v -1344 2367 0
v -1344 2399 0
v -1408 2399 0
v -1408 2367 0
v -1632 639 0
v -1632 703 0
v -1664 703 0
v -1664 639 0
v -1344 191 0
v -1344 255 0
v -1376 255 0
v -1376 191 0
v -1696 1823 0
v -1696 1887 0
v -1728 1887 0
v -1728 1823 0
v -544 1951 0
v -544 1983 0
v -608 1983 0
v -608 1951 0
v -704 1855 0
v -704 1919 0
v -736 1919 0
v -736 1855 0
v -1376 2463 0
v -1376 2495 0
v -1440 2495 0
v -1440 2463 0
v -1632 575 0
v -1632 639 0
v -1664 639 0
v -1664 575 0
v -800 2175 0
v -800 2207 0
v -864 2207 0
v -864 2175 0
v -1984 1503 0
v -1984 1535 0
v -2047 1535 0
v -2047 1503 0
v -1344 255 0
v -1344 319 0
v -1376 319 0
v -1376 255 0
v -608 1919 0
v -608 1951 0
v -640 1951 0
v -640 1919 0
v -576 1823 0
v -576 1855 0
v -608 1855 0
v -608 1823 0
v -1024 1823 0
v -1024 1855 0
v -1056 1855 0
v -1056 1823 0
v -1760 1855 0
v -1760 1887 0
v -1792 1887 0
v -1792 1855 0
v -96 1183 0
v -96 1215 0
v -128 1215 0
v -128 1183 0
v -1152 1919 0
v -1152 1951 0
v -1184 1951 0
v -1184 1919 0
v -736 1887 0
v -736 1919 0
v -768 1919 0
v -768 1887 0
v -1824 1791 0
v -1824 1823 0
v -1856 1823 0
v -1856 1791 0
v -1856 1503 0
v -1856 1535 0
v -1888 1535 0
v -1888 1503 0
v -160 1503 0
v -160 1535 0
v -192 1535 0
v -192 1503 0
v -64 1375 0
v -64 1407 0
v -96 1407 0
v -96 1375 0
v -320 1087 0
v -320 1119 0
v -352 1119 0
v -352 1087 0
v -1824 1375 0
v -1824 1407 0
v -1856 1407 0
v -1856 1375 0
v -416 1087 0
v -416 1119 0
v -448 1119 0
v -448 1087 0
v -192 1663 0
v -192 1695 0
v -224 1695 0
v -224 1663 0
v -192 1759 0
v -192 1791 0
v -224 1791 0
v -224 1759 0
v -1888 1247 0
v -1888 1279 0
v -1920 1279 0
v -1920 1247 0
v -416 1535 0
v -416 1567 0
v -448 1567 0
v -448 1535 0
v -416 1663 0
v -416 1695 0
v -448 1695 0
v -448 1663 0
v -1696 671 0
v -1696 703 0
v -1728 703 0
v -1728 671 0
v -608 639 0
v -608 671 0
v -640 671 0
v -640 639 0
v -768 671 0
v -768 703 0
v -800 703 0
v -800 671 0
v -1472 671 0
v -1472 703 0
v -1504 703 0
v -1504 671 0
v -832 607 0
v -832 639 0
v -864 639 0
v -864 607 0
v -1440 447 0
v -1440 479 0
v -1472 479 0
v -1472 447 0
v -512 351 0
v -512 383 0
v -544 383 0
v -544 351 0
v -384 543 0
v -384 575 0
v -416 575 0
v -416 543 0
v -640 511 0
v -640 543 0
v -672 543 0
v -672 511 0
v -128 671 0
v -128 703 0
v -160 703 0
v -160 671 0
v -512 959 0
v -512 991 0
v -544 991 0
v -544 959 0
v -928 927 0
v -928 959 0
v -960 959 0
v -960 927 0
v -1376 287 0
v -1376 319 0
v -1408 319 0
v -1408 287 0
v -64 959 0
v -64 991 0
v -96 991 0
v -96 959 0
v -1024 895 0
v -1024 927 0
v -1056 927 0
v -1056 895 0
v -384 735 0
v -384 767 0
v -416 767 0
v -416 735 0
v -992 735 0
v -992 767 0
v -1024 767 0
v -1024 735 0
v -448 767 0
v -448 799 0
v -480 799 0
v -480 767 0
v -192 735 0
v -192 767 0
v -224 767 0
v -224 735 0
v -128 799 0
v -128 831 0
v -160 831 0
v -160 799 0
v -1920 799 0
v -1920 831 0
v -1952 831 0
v -1952 799 0
v -1856 831 0
v -1856 863 0
v -1888 863 0
v -1888 831 0
v -1440 2463 0
v -1440 2495 0
v -1472 2495 0
v -1472 2463 0
v -256 767 0
v -256 799 0
v -288 799 0
v -288 767 0
v -416 447 0
v -416 479 0
v -448 479 0
v -448 447 0
v -1184 95 0
v -1184 127 0
v -1216 127 0
v -1216 95 0
v -96 671 0
v -96 703 0
v -128 703 0
v -128 671 0
v -896 575 0
v -896 607 0
v -928 607 0
v -928 575 0
v -1056 927 0
v -1056 959 0
v -1088 959 0
v -1088 927 0
v -704 1823 0
v -704 1855 0
v -736 1855 0
v -736 1823 0
v -1824 1503 0
v -1824 1535 0
v -1856 1535 0
v -1856 1503 0
v -1696 1791 0
v -1696 1823 0
v -1728 1823 0
v -1728 1791 0
v -288 1695 0
v -288 1727 0
v -320 1727 0
v -320 1695 0
v -1984 1375 0
v -1984 1407 0
v -2016 1407 0
v -2016 1375 0
v -288 1023 0
v -288 1055 0
v -320 1055 0
v -320 1023 0
v -864 2175 0
v -864 2207 0
v -896 2207 0
v -896 2175 0
v -608 1951 0
v -608 1983 0
v -640 1983 0
v -640 1951 0
v -1824 1183 0
v -1824 1215 0
v -1856 1215 0
v -1856 1183 0
v -1632 2047 0
v -1632 2079 0
v -1664 2079 0
v -1664 2047 0
v -448 2015 0
v -448 2047 0
v -480 2047 0
v -480 2015 0
v -1216 2079 0
v -1216 2111 0
v -1248 2111 0
v -1248 2079 0
v -576 2047 0
v -576 2079 0
v -608 2079 0
v -608 2047 0
v -544 2015 0
v -544 2047 0
v -576 2047 0
v -576 2015 0
v -1088 1983 0
v -1088 2015 0
v -1120 2015 0
v -1120 1983 0
v -1152 1983 0
v -1152 2015 0
v -1184 2015 0
v -1184 1983 0
v -1216 2015 0
v -1216 2047 0
v -1248 2047 0
v -1248 2015 0
v -576 1983 0
v -576 2015 0
v -608 2015 0
v -608 1983 0
v -896 2079 0
v -896 2111 0
v -928 2111 0
v -928 2079 0
v -1184 2239 0
v -1184 2271 0
v -1216 2271 0
v -1216 2239 0
v -864 2207 0
v -864 2239 0
v -896 2239 0
v -896 2207 0
v -1376 2399 0
v -1376 2431 0
v -1408 2431 0
v -1408 2399 0
v -1664 2271 0
v -1664 2303 0
v -1696 2303 0
v -1696 2271 0
v -800 2143 0
v -800 2175 0
v -832 2175 0
v -832 2143 0
v -1184 2111 0
v -1184 2143 0
v -1216 2143 0
v -1216 2111 0
v -512 2079 0
v -512 2111 0
v -544 2111 0
v -544 2079 0
v -576 2111 0
v -576 2143 0
v -608 2143 0
v -608 2111 0
v -960 2111 0
v -960 2143 0
v -992 2143 0
v -992 2111 0
vt 0.00048828125 0.000716328621
vt 0.00048828125 0.45916903
vt 0.312988281 0.45916903
vt 0.312988281 0.000716328621
vt 0.313964844 0.000716328621
vt 0.313964844 0.45916903
vt 0.626464844 0.45916903
vt 0.626464844 0.000716328621
vt 0.627441406 0.000716328621
vt 0.627441406 0.32163322
vt 0.752441406 0.32163322
vt 0.752441406 0.000716328621
vt 0.753417969 0.000716328621
vt 0.753417969 0.207020044
vt 0.925292969 0.207020044
vt 0.925292969 0.000716328621
vt 0.753417969 0.208452702
vt 0.753417969 0.460601747
vt 0.894042969 0.460601747
vt 0.894042969 0.208452702
vt 0.00048828125 0.460601747
vt 0.00048828125 0.666905403
vt 0.172363281 0.666905403
vt 0.172363281 0.460601747
vt 0.173339844 0.460601747
vt 0.173339844 0.666905403
vt 0.345214844 0.666905403
vt 0.345214844 0.460601747
vt 0.627441406 0.323065877
vt 0.627441406 0.621060133
vt 0.736816406 0.621060133
vt 0.736816406 0.323065877
vt 0.346191406 0.460601747
vt 0.346191406 0.758596003
vt 0.455566406 0.758596003
vt 0.455566406 0.460601747
vt 0.753417969 0.462034404
vt 0.753417969 0.57664752
vt 0.940917969 0.57664752
vt 0.940917969 0.462034404
vt 0.941894531 0.000716328621
vt 0.941894531 0.252865314
vt 0.988769531 0.252865314
vt 0.988769531 0.000716328621
vt 0.941894531 0.254297972
vt 0.941894531 0.483524382
vt 0.988769531 0.483524382
vt 0.988769531 0.254297972
vt 0.456542969 0.460601747
vt 0.456542969 0.621060133
vt 0.519042969 0.621060133
vt 0.519042969 0.460601747
vt 0.520019531 0.460601747
vt 0.520019531 0.598137498
vt 0.582519531 0.598137498
vt 0.582519531 0.460601747
vt 0.753417969 0.578080237
vt 0.753417969 0.646848142
vt 0.862792969 0.646848142
vt 0.862792969 0.578080237
vt 0.863769531 0.578080237
vt 0.863769531 0.692693412
vt 0.926269531 0.692693412
vt 0.926269531 0.578080237
vt 0.927246094 0.578080237
vt 0.927246094 0.692693412
vt 0.989746094 0.692693412
vt 0.989746094 0.578080237
vt 0.520019531 0.599570215
vt 0.520019531 0.71418339
vt 0.582519531 0.71418339
vt 0.582519531 0.599570215
vt 0.456542969 0.62249285
vt 0.456542969 0.76002866
vt 0.503417969 0.76002866
vt 0.503417969 0.62249285
vt 0.627441406 0.62249285
vt 0.627441406 0.76002866
vt 0.674316406 0.76002866
vt 0.674316406 0.62249285
vt 0.675292969 0.62249285
vt 0.675292969 0.71418339
vt 0.737792969 0.71418339
vt 0.737792969 0.62249285
vt 0.753417969 0.648280799
vt 0.753417969 0.762893975
vt 0.800292969 0.762893975
vt 0.800292969 0.648280799
vt 0.583496094 0.460601747
vt 0.583496094 0.758596003
vt 0.599121094 0.758596003
vt 0.599121094 0.460601747
vt 0.801269531 0.648280799
vt 0.801269531 0.73997134
vt 0.848144531 0.73997134
vt 0.848144531 0.648280799
vt 0.00048828125 0.66833812
vt 0.00048828125 0.76002866
vt 0.0473632812 0.76002866
vt 0.0473632812 0.66833812
vt 0.600097656 0.460601747
vt 0.600097656 0.735673308
vt 0.615722656 0.735673308
vt 0.615722656 0.460601747
vt 0.0483398438 0.66833812
vt 0.0483398438 0.737106025
vt 0.110839844 0.737106025
vt 0.110839844 0.66833812
vt 0.111816406 0.66833812
vt 0.111816406 0.71418339
vt 0.189941406 0.71418339
vt 0.189941406 0.66833812
vt 0.190917969 0.66833812
vt 0.190917969 0.71418339
vt 0.269042969 0.71418339
vt 0.269042969 0.66833812
vt 0.863769531 0.69412607
vt 0.863769531 0.73997134
vt 0.941894531 0.73997134
vt 0.941894531 0.69412607
vt 0.270019531 0.66833812
vt 0.270019531 0.782951295
vt 0.301269531 0.782951295
vt 0.301269531 0.66833812
vt 0.302246094 0.66833812
vt 0.302246094 0.782951295
vt 0.333496094 0.782951295
vt 0.333496094 0.66833812
vt 0.942871094 0.69412607
vt 0.942871094 0.762893975
vt 0.989746094 0.762893975
vt 0.989746094 0.69412607
vt 0.111816406 0.715616047
vt 0.111816406 0.784383953
vt 0.158691406 0.784383953
vt 0.158691406 0.715616047
vt 0.159667969 0.715616047
vt 0.159667969 0.761461318
vt 0.222167969 0.761461318
vt 0.222167969 0.715616047
vt 0.520019531 0.715616047
vt 0.520019531 0.761461318
vt 0.582519531 0.761461318
vt 0.582519531 0.715616047
vt 0.223144531 0.715616047
vt 0.223144531 0.807306588
vt 0.254394531 0.807306588
vt 0.254394531 0.715616047
vt 0.675292969 0.715616047
vt 0.675292969 0.807306588
vt 0.706542969 0.807306588
vt 0.706542969 0.715616047
vt 0.707519531 0.715616047
vt 0.707519531 0.807306588
vt 0.738769531 0.807306588
vt 0.738769531 0.715616047
vt 0.0483398438 0.738538682
vt 0.0483398438 0.807306588
vt 0.0795898438 0.807306588
vt 0.0795898438 0.738538682
vt 0.801269531 0.741403997
vt 0.801269531 0.810171902
vt 0.832519531 0.810171902
vt 0.832519531 0.741403997
vt 0.833496094 0.741403997
vt 0.833496094 0.787249267
vt 0.880371094 0.787249267
vt 0.880371094 0.741403997
vt 0.881347656 0.741403997
vt 0.881347656 0.787249267
vt 0.928222656 0.787249267
vt 0.928222656 0.741403997
vt 0.346191406 0.76002866
vt 0.346191406 0.828796566
vt 0.377441406 0.828796566
vt 0.377441406 0.76002866
vt 0.378417969 0.76002866
vt 0.378417969 0.80587393
vt 0.425292969 0.80587393
vt 0.425292969 0.76002866
vt 0.583496094 0.76002866
vt 0.583496094 0.828796566
vt 0.614746094 0.828796566
vt 0.614746094 0.76002866
vt 0.00048828125 0.761461318
vt 0.00048828125 0.807306588
vt 0.0473632812 0.807306588
vt 0.0473632812 0.761461318
vt 0.456542969 0.761461318
vt 0.456542969 0.830229223
vt 0.487792969 0.830229223
vt 0.487792969 0.761461318
vt 0.627441406 0.761461318
vt 0.627441406 0.807306588
vt 0.674316406 0.807306588
vt 0.674316406 0.761461318
vt 0.159667969 0.762893975
vt 0.159667969 0.83166188
vt 0.190917969 0.83166188
vt 0.190917969 0.762893975
vt 0.0805664062 0.738538682
vt 0.0805664062 0.876074493
vt 0.0961914062 0.876074493
vt 0.0961914062 0.738538682
vt 0.520019531 0.762893975
vt 0.520019531 0.83166188
vt 0.551269531 0.83166188
vt 0.551269531 0.762893975
vt 0.753417969 0.764326632
vt 0.753417969 0.833094537
vt 0.784667969 0.833094537
vt 0.784667969 0.764326632
vt 0.833496094 0.788681984
vt 0.833496094 0.811604619
vt 0.911621094 0.811604619
vt 0.911621094 0.788681984
vt 0.912597656 0.788681984
vt 0.912597656 0.811604619
vt 0.990722656 0.811604619
vt 0.990722656 0.788681984
vt 0.426269531 0.76002866
vt 0.426269531 0.874641836
vt 0.441894531 0.874641836
vt 0.441894531 0.76002866
vt 0.270019531 0.784383953
vt 0.270019531 0.830229223
vt 0.301269531 0.830229223
vt 0.301269531 0.784383953
vt 0.302246094 0.784383953
vt 0.302246094 0.830229223
vt 0.333496094 0.830229223
vt 0.333496094 0.784383953
vt 0.111816406 0.78581661
vt 0.111816406 0.83166188
vt 0.143066406 0.83166188
vt 0.143066406 0.78581661
vt 0.378417969 0.807306588
vt 0.378417969 0.853151858
vt 0.409667969 0.853151858
vt 0.409667969 0.807306588
vt 0.00048828125 0.808739245
vt 0.00048828125 0.854584515
vt 0.0317382812 0.854584515
vt 0.0317382812 0.808739245
vt 0.627441406 0.808739245
vt 0.627441406 0.83166188
vt 0.689941406 0.83166188
vt 0.689941406 0.808739245
vt 0.488769531 0.761461318
vt 0.488769531 0.853151858
vt 0.504394531 0.853151858
vt 0.504394531 0.761461318
vt 0.191894531 0.762893975
vt 0.191894531 0.854584515
vt 0.207519531 0.854584515
vt 0.207519531 0.762893975
vt 0.0327148438 0.808739245
vt 0.0327148438 0.854584515
vt 0.0639648438 0.854584515
vt 0.0639648438 0.808739245
vt 0.552246094 0.762893975
vt 0.552246094 0.854584515
vt 0.567871094 0.854584515
vt 0.567871094 0.762893975
vt 0.223144531 0.808739245
vt 0.223144531 0.854584515
vt 0.254394531 0.854584515
vt 0.254394531 0.808739245
vt 0.690917969 0.808739245
vt 0.690917969 0.854584515
vt 0.722167969 0.854584515
vt 0.722167969 0.808739245
vt 0.833496094 0.813037276
vt 0.833496094 0.835959911
vt 0.880371094 0.835959911
vt 0.880371094 0.813037276
vt 0.723144531 0.808739245
vt 0.723144531 0.87750715
vt 0.738769531 0.87750715
vt 0.738769531 0.808739245
vt 0.801269531 0.811604619
vt 0.801269531 0.880372524
vt 0.816894531 0.880372524
vt 0.816894531 0.811604619
vt 0.881347656 0.813037276
vt 0.881347656 0.835959911
vt 0.928222656 0.835959911
vt 0.928222656 0.813037276
vt 0.929199219 0.813037276
vt 0.929199219 0.835959911
vt 0.976074219 0.835959911
vt 0.976074219 0.813037276
vt 0.977050781 0.813037276
vt 0.977050781 0.881805182
vt 0.992675781 0.881805182
vt 0.992675781 0.813037276
vt 0.346191406 0.830229223
vt 0.346191406 0.898997128
vt 0.361816406 0.898997128
vt 0.361816406 0.830229223
vt 0.270019531 0.83166188
vt 0.270019531 0.854584515
vt 0.316894531 0.854584515
vt 0.316894531 0.83166188
vt 0.583496094 0.830229223
vt 0.583496094 0.898997128
vt 0.599121094 0.898997128
vt 0.599121094 0.830229223
vt 0.600097656 0.830229223
vt 0.600097656 0.898997128
vt 0.615722656 0.898997128
vt 0.615722656 0.830229223
vt 0.317871094 0.83166188
vt 0.317871094 0.900429785
vt 0.333496094 0.900429785
vt 0.333496094 0.83166188
vt 0.456542969 0.83166188
vt 0.456542969 0.900429785
vt 0.472167969 0.900429785
vt 0.472167969 0.83166188
vt 0.111816406 0.833094537
vt 0.111816406 0.901862442
vt 0.127441406 0.901862442
vt 0.127441406 0.833094537
vt 0.128417969 0.833094537
vt 0.128417969 0.901862442
vt 0.144042969 0.901862442
vt 0.144042969 0.833094537
vt 0.159667969 0.833094537
vt 0.159667969 0.901862442
vt 0.175292969 0.901862442
vt 0.175292969 0.833094537
vt 0.520019531 0.833094537
vt 0.520019531 0.901862442
vt 0.535644531 0.901862442
vt 0.535644531 0.833094537
vt 0.627441406 0.833094537
vt 0.627441406 0.878939807
vt 0.643066406 0.878939807
vt 0.643066406 0.833094537
vt 0.644042969 0.833094537
vt 0.644042969 0.878939807
vt 0.659667969 0.878939807
vt 0.659667969 0.833094537
vt 0.660644531 0.833094537
vt 0.660644531 0.878939807
vt 0.676269531 0.878939807
vt 0.676269531 0.833094537
vt 0.753417969 0.834527254
vt 0.753417969 0.880372524
vt 0.769042969 0.880372524
vt 0.769042969 0.834527254
vt 0.770019531 0.834527254
vt 0.770019531 0.880372524
vt 0.785644531 0.880372524
vt 0.785644531 0.834527254
vt 0.833496094 0.837392569
vt 0.833496094 0.860315204
vt 0.864746094 0.860315204
vt 0.864746094 0.837392569
vt 0.865722656 0.837392569
vt 0.865722656 0.883237839
vt 0.881347656 0.883237839
vt 0.881347656 0.837392569
vt 0.882324219 0.837392569
vt 0.882324219 0.883237839
vt 0.897949219 0.883237839
vt 0.897949219 0.837392569
vt 0.898925781 0.837392569
vt 0.898925781 0.883237839
vt 0.914550781 0.883237839
vt 0.914550781 0.837392569
vt 0.915527344 0.837392569
vt 0.915527344 0.860315204
vt 0.946777344 0.860315204
vt 0.946777344 0.837392569
vt 0.947753906 0.837392569
vt 0.947753906 0.883237839
vt 0.963378906 0.883237839
vt 0.963378906 0.837392569
vt 0.378417969 0.854584515
vt 0.378417969 0.87750715
vt 0.409667969 0.87750715
vt 0.409667969 0.854584515
vt 0.00048828125 0.856017172
vt 0.00048828125 0.878939807
vt 0.0317382812 0.878939807
vt 0.0317382812 0.856017172
vt 0.488769531 0.854584515
vt 0.488769531 0.900429785
vt 0.504394531 0.900429785
vt 0.504394531 0.854584515
vt 0.0327148438 0.856017172
vt 0.0327148438 0.901862442
vt 0.0483398438 0.901862442
vt 0.0483398438 0.856017172
vt 0.0493164062 0.856017172
vt 0.0493164062 0.901862442
vt 0.0649414062 0.901862442
vt 0.0649414062 0.856017172
vt 0.191894531 0.856017172
vt 0.191894531 0.901862442
vt 0.207519531 0.901862442
vt 0.207519531 0.856017172
vt 0.223144531 0.856017172
vt 0.223144531 0.901862442
vt 0.238769531 0.901862442
vt 0.238769531 0.856017172
vt 0.239746094 0.856017172
vt 0.239746094 0.878939807
vt 0.270996094 0.878939807
vt 0.270996094 0.856017172
vt 0.271972656 0.856017172
vt 0.271972656 0.878939807
vt 0.303222656 0.878939807
vt 0.303222656 0.856017172
vt 0.552246094 0.856017172
vt 0.552246094 0.901862442
vt 0.567871094 0.901862442
vt 0.567871094 0.856017172
vt 0.690917969 0.856017172
vt 0.690917969 0.901862442
vt 0.706542969 0.901862442
vt 0.706542969 0.856017172
vt 0.833496094 0.861747861
vt 0.833496094 0.907593131
vt 0.849121094 0.907593131
vt 0.849121094 0.861747861
vt 0.915527344 0.861747861
vt 0.915527344 0.907593131
vt 0.931152344 0.907593131
vt 0.931152344 0.861747861
vt 0.426269531 0.876074493
vt 0.426269531 0.921919763
vt 0.441894531 0.921919763
vt 0.441894531 0.876074493
vt 0.0805664062 0.87750715
vt 0.0805664062 0.92335242
vt 0.0961914062 0.92335242
vt 0.0961914062 0.87750715
vt 0.378417969 0.878939807
vt 0.378417969 0.924785078
vt 0.394042969 0.924785078
vt 0.394042969 0.878939807
vt 0.395019531 0.878939807
vt 0.395019531 0.924785078
vt 0.410644531 0.924785078
vt 0.410644531 0.878939807
vt 0.00048828125 0.880372524
vt 0.00048828125 0.903295159
vt 0.0317382812 0.903295159
vt 0.0317382812 0.880372524
vt 0.723144531 0.878939807
vt 0.723144531 0.924785078
vt 0.738769531 0.924785078
vt 0.738769531 0.878939807
vt 0.239746094 0.880372524
vt 0.239746094 0.926217794
vt 0.255371094 0.926217794
vt 0.255371094 0.880372524
vt 0.256347656 0.880372524
vt 0.256347656 0.926217794
vt 0.271972656 0.926217794
vt 0.271972656 0.880372524
vt 0.272949219 0.880372524
vt 0.272949219 0.926217794
vt 0.288574219 0.926217794
vt 0.288574219 0.880372524
vt 0.289550781 0.880372524
vt 0.289550781 0.926217794
vt 0.305175781 0.926217794
vt 0.305175781 0.880372524
vt 0.627441406 0.880372524
vt 0.627441406 0.926217794
vt 0.643066406 0.926217794
vt 0.643066406 0.880372524
vt 0.644042969 0.880372524
vt 0.644042969 0.926217794
vt 0.659667969 0.926217794
vt 0.659667969 0.880372524
vt 0.660644531 0.880372524
vt 0.660644531 0.926217794
vt 0.676269531 0.926217794
vt 0.676269531 0.880372524
vt 0.753417969 0.881805182
vt 0.753417969 0.904727817
vt 0.784667969 0.904727817
vt 0.784667969 0.881805182
vt 0.785644531 0.881805182
vt 0.785644531 0.927650452
vt 0.801269531 0.927650452
vt 0.801269531 0.881805182
vt 0.865722656 0.884670496
vt 0.865722656 0.907593131
vt 0.896972656 0.907593131
vt 0.896972656 0.884670496
vt 0.947753906 0.884670496
vt 0.947753906 0.907593131
vt 0.979003906 0.907593131
vt 0.979003906 0.884670496
vt 0.802246094 0.881805182
vt 0.802246094 0.927650452
vt 0.817871094 0.927650452
vt 0.817871094 0.881805182
vt 0.346191406 0.900429785
vt 0.346191406 0.92335242
vt 0.377441406 0.92335242
vt 0.377441406 0.900429785
vt 0.583496094 0.900429785
vt 0.583496094 0.92335242
vt 0.614746094 0.92335242
vt 0.614746094 0.900429785
vt 0.456542969 0.901862442
vt 0.456542969 0.924785078
vt 0.487792969 0.924785078
vt 0.487792969 0.901862442
vt 0.979980469 0.883237839
vt 0.979980469 0.929083109
vt 0.995605469 0.929083109
vt 0.995605469 0.883237839
vt 0.897949219 0.884670496
vt 0.897949219 0.930515766
vt 0.913574219 0.930515766
vt 0.913574219 0.884670496
vt 0.317871094 0.901862442
vt 0.317871094 0.947707713
vt 0.333496094 0.947707713
vt 0.333496094 0.901862442
vt 0.488769531 0.901862442
vt 0.488769531 0.947707713
vt 0.504394531 0.947707713
vt 0.504394531 0.901862442
vt 0.0327148438 0.903295159
vt 0.0327148438 0.949140429
vt 0.0483398438 0.949140429
vt 0.0483398438 0.903295159
vt 0.0493164062 0.903295159
vt 0.0493164062 0.949140429
vt 0.0649414062 0.949140429
vt 0.0649414062 0.903295159
vt 0.111816406 0.903295159
vt 0.111816406 0.926217794
vt 0.143066406 0.926217794
vt 0.143066406 0.903295159
vt 0.144042969 0.903295159
vt 0.144042969 0.949140429
vt 0.159667969 0.949140429
vt 0.159667969 0.903295159
vt 0.160644531 0.903295159
vt 0.160644531 0.949140429
vt 0.176269531 0.949140429
vt 0.176269531 0.903295159
vt 0.191894531 0.903295159
vt 0.191894531 0.949140429
vt 0.207519531 0.949140429
vt 0.207519531 0.903295159
vt 0.520019531 0.903295159
vt 0.520019531 0.926217794
vt 0.551269531 0.926217794
vt 0.551269531 0.903295159
vt 0.690917969 0.903295159
vt 0.690917969 0.926217794
vt 0.722167969 0.926217794
vt 0.722167969 0.903295159
vt 0.223144531 0.903295159
vt 0.223144531 0.949140429
vt 0.238769531 0.949140429
vt 0.238769531 0.903295159
vt 0.00048828125 0.904727817
vt 0.00048828125 0.927650452
vt 0.0317382812 0.927650452
vt 0.0317382812 0.904727817
vt 0.753417969 0.906160474
vt 0.753417969 0.929083109
vt 0.784667969 0.929083109
vt 0.784667969 0.906160474
vt 0.833496094 0.909025788
vt 0.833496094 0.931948423
vt 0.864746094 0.931948423
vt 0.864746094 0.909025788
vt 0.865722656 0.909025788
vt 0.865722656 0.931948423
vt 0.896972656 0.931948423
vt 0.896972656 0.909025788
vt 0.915527344 0.909025788
vt 0.915527344 0.931948423
vt 0.946777344 0.931948423
vt 0.946777344 0.909025788
vt 0.947753906 0.909025788
vt 0.947753906 0.931948423
vt 0.979003906 0.931948423
vt 0.979003906 0.909025788
vt 0.552246094 0.903295159
vt 0.552246094 0.949140429
vt 0.567871094 0.949140429
vt 0.567871094 0.903295159
vt 0.426269531 0.92335242
vt 0.426269531 0.96919769
vt 0.441894531 0.96919769
vt 0.441894531 0.92335242
vt 0.0805664062 0.924785078
vt 0.0805664062 0.970630348
vt 0.0961914062 0.970630348
vt 0.0961914062 0.924785078
vt 0.346191406 0.924785078
vt 0.346191406 0.947707713
vt 0.377441406 0.947707713
vt 0.377441406 0.924785078
vt 0.583496094 0.924785078
vt 0.583496094 0.970630348
vt 0.599121094 0.970630348
vt 0.599121094 0.924785078
vt 0.378417969 0.926217794
vt 0.378417969 0.949140429
vt 0.409667969 0.949140429
vt 0.409667969 0.926217794
vt 0.600097656 0.924785078
vt 0.600097656 0.970630348
vt 0.615722656 0.970630348
vt 0.615722656 0.924785078
vt 0.456542969 0.926217794
vt 0.456542969 0.949140429
vt 0.487792969 0.949140429
vt 0.487792969 0.926217794
vt 0.111816406 0.927650452
vt 0.111816406 0.950573087
vt 0.143066406 0.950573087
vt 0.143066406 0.927650452
vt 0.723144531 0.926217794
vt 0.723144531 0.972063065
vt 0.738769531 0.972063065
vt 0.738769531 0.926217794
vt 0.239746094 0.927650452
vt 0.239746094 0.950573087
vt 0.255371094 0.950573087
vt 0.255371094 0.927650452
vt 0.256347656 0.927650452
vt 0.256347656 0.950573087
vt 0.271972656 0.950573087
vt 0.271972656 0.927650452
vt 0.272949219 0.927650452
vt 0.272949219 0.950573087
vt 0.288574219 0.950573087
vt 0.288574219 0.927650452
vt 0.289550781 0.927650452
vt 0.289550781 0.950573087
vt 0.305175781 0.950573087
vt 0.305175781 0.927650452
vt 0.520019531 0.927650452
vt 0.520019531 0.950573087
vt 0.535644531 0.950573087
vt 0.535644531 0.927650452
vt 0.627441406 0.927650452
vt 0.627441406 0.950573087
vt 0.643066406 0.950573087
vt 0.643066406 0.927650452
vt 0.644042969 0.927650452
vt 0.644042969 0.950573087
vt 0.659667969 0.950573087
vt 0.659667969 0.927650452
vt 0.660644531 0.927650452
vt 0.660644531 0.950573087
vt 0.676269531 0.950573087
vt 0.676269531 0.927650452
vt 0.690917969 0.927650452
vt 0.690917969 0.950573087
vt 0.706542969 0.950573087
vt 0.706542969 0.927650452
vt 0.00048828125 0.929083109
vt 0.00048828125 0.952005744
vt 0.0161132812 0.952005744
vt 0.0161132812 0.929083109
vt 0.785644531 0.929083109
vt 0.785644531 0.952005744
vt 0.801269531 0.952005744
vt 0.801269531 0.929083109
vt 0.802246094 0.929083109
vt 0.802246094 0.952005744
vt 0.817871094 0.952005744
vt 0.817871094 0.929083109
vt 0.753417969 0.930515766
vt 0.753417969 0.953438401
vt 0.769042969 0.953438401
vt 0.769042969 0.930515766
vt 0.979980469 0.930515766
vt 0.979980469 0.953438401
vt 0.995605469 0.953438401
vt 0.995605469 0.930515766
vt 0.897949219 0.931948423
vt 0.897949219 0.954871058
vt 0.913574219 0.954871058
vt 0.913574219 0.931948423
vt 0.833496094 0.933381081
vt 0.833496094 0.956303716
vt 0.849121094 0.956303716
vt 0.849121094 0.933381081
vt 0.850097656 0.933381081
vt 0.850097656 0.956303716
vt 0.865722656 0.956303716
vt 0.865722656 0.933381081
vt 0.866699219 0.933381081
vt 0.866699219 0.956303716
vt 0.882324219 0.956303716
vt 0.882324219 0.933381081
vt 0.915527344 0.933381081
vt 0.915527344 0.956303716
vt 0.931152344 0.956303716
vt 0.931152344 0.933381081
vt 0.932128906 0.933381081
vt 0.932128906 0.956303716
vt 0.947753906 0.956303716
vt 0.947753906 0.933381081
vt 0.948730469 0.933381081
vt 0.948730469 0.956303716
vt 0.964355469 0.956303716
vt 0.964355469 0.933381081
vt 0.317871094 0.949140429
vt 0.317871094 0.972063065
vt 0.333496094 0.972063065
vt 0.333496094 0.949140429
vt 0.346191406 0.949140429
vt 0.346191406 0.972063065
vt 0.361816406 0.972063065
vt 0.361816406 0.949140429
vt 0.488769531 0.949140429
vt 0.488769531 0.972063065
vt 0.504394531 0.972063065
vt 0.504394531 0.949140429
vt 0.0327148438 0.950573087
vt 0.0327148438 0.973495722
vt 0.0483398438 0.973495722
vt 0.0483398438 0.950573087
vt 0.0493164062 0.950573087
vt 0.0493164062 0.973495722
vt 0.0649414062 0.973495722
vt 0.0649414062 0.950573087
vt 0.144042969 0.950573087
vt 0.144042969 0.973495722
vt 0.159667969 0.973495722
vt 0.159667969 0.950573087
vt 0.160644531 0.950573087
vt 0.160644531 0.973495722
vt 0.176269531 0.973495722
vt 0.176269531 0.950573087
vt 0.191894531 0.950573087
vt 0.191894531 0.973495722
vt 0.207519531 0.973495722
vt 0.207519531 0.950573087
vt 0.223144531 0.950573087
vt 0.223144531 0.973495722
vt 0.238769531 0.973495722
vt 0.238769531 0.950573087
vt 0.378417969 0.950573087
vt 0.378417969 0.973495722
vt 0.394042969 0.973495722
vt 0.394042969 0.950573087
vt 0.395019531 0.950573087
vt 0.395019531 0.973495722
vt 0.410644531 0.973495722
vt 0.410644531 0.950573087
vt 0.456542969 0.950573087
vt 0.456542969 0.973495722
vt 0.472167969 0.973495722
vt 0.472167969 0.950573087
vt 0.552246094 0.950573087
vt 0.552246094 0.973495722
vt 0.567871094 0.973495722
vt 0.567871094 0.950573087
vt 0.111816406 0.952005744
vt 0.111816406 0.974928379
vt 0.127441406 0.974928379
vt 0.127441406 0.952005744
vt 0.239746094 0.952005744
vt 0.239746094 0.974928379
vt 0.255371094 0.974928379
vt 0.255371094 0.952005744
vt 0.256347656 0.952005744
vt 0.256347656 0.974928379
vt 0.271972656 0.974928379
vt 0.271972656 0.952005744
vt 0.272949219 0.952005744
vt 0.272949219 0.974928379
vt 0.288574219 0.974928379
vt 0.288574219 0.952005744
vt 0.289550781 0.952005744
vt 0.289550781 0.974928379
vt 0.305175781 0.974928379
vt 0.305175781 0.952005744
vt 0.520019531 0.952005744
vt 0.520019531 0.974928379
vt 0.535644531 0.974928379
vt 0.535644531 0.952005744
vt 0.627441406 0.952005744
vt 0.627441406 0.974928379
vt 0.643066406 0.974928379
vt 0.643066406 0.952005744
vt 0.644042969 0.952005744
vt 0.644042969 0.974928379
vt 0.659667969 0.974928379
vt 0.659667969 0.952005744
vt 0.660644531 0.952005744
vt 0.660644531 0.974928379
vt 0.676269531 0.974928379
vt 0.676269531 0.952005744
vt 0.690917969 0.952005744
vt 0.690917969 0.974928379
vt 0.706542969 0.974928379
vt 0.706542969 0.952005744
vt 0.00048828125 0.953438401
vt 0.00048828125 0.976361036
vt 0.0161132812 0.976361036
vt 0.0161132812 0.953438401
vt 0.785644531 0.953438401
vt 0.785644531 0.976361036
vt 0.801269531 0.976361036
vt 0.801269531 0.953438401
vt 0.802246094 0.953438401
vt 0.802246094 0.976361036
vt 0.817871094 0.976361036
vt 0.817871094 0.953438401
vt 0.753417969 0.954871058
vt 0.753417969 0.977793694
vt 0.769042969 0.977793694
vt 0.769042969 0.954871058
vt 0.979980469 0.954871058
vt 0.979980469 0.977793694
vt 0.995605469 0.977793694
vt 0.995605469 0.954871058
vt 0.897949219 0.956303716
vt 0.897949219 0.979226351
vt 0.913574219 0.979226351
vt 0.913574219 0.956303716
vt 0.833496094 0.957736373
vt 0.833496094 0.980659008
vt 0.849121094 0.980659008
vt 0.849121094 0.957736373
vt 0.850097656 0.957736373
vt 0.850097656 0.980659008
vt 0.865722656 0.980659008
vt 0.865722656 0.957736373
vt 0.866699219 0.957736373
vt 0.866699219 0.980659008
vt 0.882324219 0.980659008
vt 0.882324219 0.957736373
vt 0.915527344 0.957736373
vt 0.915527344 0.980659008
vt 0.931152344 0.980659008
vt 0.931152344 0.957736373
vt 0.932128906 0.957736373
vt 0.932128906 0.980659008
vt 0.947753906 0.980659008
vt 0.947753906 0.957736373
vt 0.948730469 0.957736373
vt 0.948730469 0.980659008
vt 0.964355469 0.980659008
vt 0.964355469 0.957736373
vt 0.426269531 0.970630348
vt 0.426269531 0.993552983
vt 0.441894531 0.993552983
vt 0.441894531 0.970630348
vt 0.0805664062 0.972063065
vt 0.0805664062 0.9949857
vt 0.0961914062 0.9949857
vt 0.0961914062 0.972063065
vt 0.583496094 0.972063065
vt 0.583496094 0.9949857
vt 0.599121094 0.9949857
vt 0.599121094 0.972063065
vt 0.600097656 0.972063065
vt 0.600097656 0.9949857
vt 0.615722656 0.9949857
vt 0.615722656 0.972063065
vt 0.317871094 0.973495722
vt 0.317871094 0.996418357
vt 0.333496094 0.996418357
vt 0.333496094 0.973495722
vt 0.346191406 0.973495722
vt 0.346191406 0.996418357
vt 0.361816406 0.996418357
vt 0.361816406 0.973495722
vt 0.488769531 0.973495722
vt 0.488769531 0.996418357
vt 0.504394531 0.996418357
vt 0.504394531 0.973495722
vt 0.723144531 0.973495722
vt 0.723144531 0.996418357
vt 0.738769531 0.996418357
vt 0.738769531 0.973495722
vt 0.0327148438 0.974928379
vt 0.0327148438 0.997851014
vt 0.0483398438 0.997851014
vt 0.0483398438 0.974928379
vt 0.0493164062 0.974928379
vt 0.0493164062 0.997851014
vt 0.0649414062 0.997851014
vt 0.0649414062 0.974928379
vt 0.144042969 0.974928379
vt 0.144042969 0.997851014
vt 0.159667969 0.997851014
vt 0.159667969 0.974928379
vt 0.160644531 0.974928379
vt 0.160644531 0.997851014
vt 0.176269531 0.997851014
vt 0.176269531 0.974928379
vt 0.191894531 0.974928379
vt 0.191894531 0.997851014
vt 0.207519531 0.997851014
vt 0.207519531 0.974928379
vt 0.223144531 0.974928379
vt 0.223144531 0.997851014
vt 0.238769531 0.997851014
vt 0.238769531 0.974928379
vt 0.378417969 0.974928379
vt 0.378417969 0.997851014
vt 0.394042969 0.997851014
vt 0.394042969 0.974928379
vt 0.395019531 0.974928379
vt 0.395019531 0.997851014
vt 0.410644531 0.997851014
vt 0.410644531 0.974928379
vt 0.456542969 0.974928379
vt 0.456542969 0.997851014
vt 0.472167969 0.997851014
vt 0.472167969 0.974928379
vt 0.552246094 0.974928379
vt 0.552246094 0.997851014
vt 0.567871094 0.997851014
vt 0.567871094 0.974928379
vt 0.111816406 0.976361036
vt 0.111816406 0.999283671
vt 0.127441406 0.999283671
vt 0.127441406 0.976361036
vt 0.239746094 0.976361036
vt 0.239746094 0.999283671
vt 0.255371094 0.999283671
vt 0.255371094 0.976361036
g baifeng_rw-mesh_0
f 3/3/3 2/2/2 1/1/1
f 1/1/1 4/4/4 3/3/3
f 7/7/7 6/6/6 5/5/5
f 5/5/5 8/8/8 7/7/7
f 11/11/11 10/10/10 9/9/9
f 9/9/9 12/12/12 11/11/11
f 15/15/15 14/14/14 13/13/13
f 13/13/13 16/16/16 15/15/15
f 19/19/19 18/18/18 17/17/17
f 17/17/17 20/20/20 19/19/19
f 23/23/23 22/22/22 21/21/21
f 21/21/21 24/24/24 23/23/23
f 27/27/27 26/26/26 25/25/25
f 25/25/25 28/28/28 27/27/27
f 31/31/31 30/30/30 29/29/29
f 29/29/29 32/32/32 31/31/31
f 35/35/35 34/34/34 33/33/33
f 33/33/33 36/36/36 35/35/35
f 39/39/39 38/38/38 37/37/37
f 37/37/37 40/40/40 39/39/39
f 43/43/43 42/42/42 41/41/41
f 41/41/41 44/44/44 43/43/43
f 47/47/47 46/46/46 45/45/45
f 45/45/45 48/48/48 47/47/47
f 51/51/51 50/50/50 49/49/49
f 49/49/49 52/52/52 51/51/51
f 55/55/55 54/54/54 53/53/53
f 53/53/53 56/56/56 55/55/55
f 59/59/59 58/58/58 57/57/57
f 57/57/57 60/60/60 59/59/59
f 63/63/63 62/62/62 61/61/61
f 61/61/61 64/64/64 63/63/63
f 67/67/67 66/66/66 65/65/65
f 65/65/65 68/68/68 67/67/67
f 71/71/71 70/70/70 69/69/69
f 69/69/69 72/72/72 71/71/71
f 75/75/75 74/74/74 73/73/73
f 73/73/73 76/76/76 75/75/75
f 79/79/79 78/78/78 77/77/77
f 77/77/77 80/80/80 79/79/79
f 83/83/83 82/82/82 81/81/81
f 81/81/81 84/84/84 83/83/83
f 87/87/87 86/86/86 85/85/85
f 85/85/85 88/88/88 87/87/87
f 91/91/91 90/90/90 89/89/89
f 89/89/89 92/92/92 91/91/91
f 95/95/95 94/94/94 93/93/93
f 93/93/93 96/96/96 95/95/95
f 99/99/99 98/98/98 97/97/97
f 97/97/97 100/100/100 99/99/99
f 103/103/103 102/102/102 101/101/101
f 101/101/101 104/104/104 103/103/103
f 107/107/107 106/106/106 105/105/105
f 105/105/105 108/108/108 107/107/107
f 111/111/111 110/110/110 109/109/109
f 109/109/109 112/112/112 111/111/111
f 115/115/115 114/114/114 113/113/113
f 113/113/113 116/116/116 115/115/115
f 119/119/119 118/118/118 117/117/117
f 117/117/117 120/120/120 119/119/119
f 123/123/123 122/122/122 121/121/121
f 121/121/121 124/124/124 123/123/123
f 127/127/127 126/126/126 125/125/125
f 125/125/125 128/128/128 127/127/127
f 131/131/131 130/130/130 129/129/129
f 129/129/129 132/132/132 131/131/131
f 135/135/135 134/134/134 133/133/133
f 133/133/133 136/136/136 135/135/135
f 139/139/139 138/138/138 137/137/137
f 137/137/137 140/140/140 139/139/139
f 143/143/143 142/142/142 141/141/141
f 141/141/141 144/144/144 143/143/143
f 147/147/147 146/146/146 145/145/145
f 145/145/145 148/148/148 147/147/147
f 151/151/151 150/150/150 149/149/149
f 149/149/149 152/152/152 151/151/151
f 155/155/155 154/154/154 153/153/153
f 153/153/153 156/156/156 155/155/155
f 159/159/159 158/158/158 157/157/157
f 157/157/157 160/160/160 159/159/159
f 163/163/163 162/162/162 161/161/161
f 161/161/161 164/164/164 163/163/163
f 167/167/167 166/166/166 165/165/165
f 165/165/165 168/168/168 167/167/167
f 171/171/171 170/170/170 169/169/169
f 169/169/169 172/172/172 171/171/171
f 175/175/175 174/174/174 173/173/173
f 173/173/173 176/176/176 175/175/175
f 179/179/179 178/178/178 177/177/177
f 177/177/177 180/180/180 179/179/179
f 183/183/183 182/182/182 181/181/181
f 181/181/181 184/184/184 183/183/183
f 187/187/187 186/186/186 185/185/185
f 185/185/185 188/188/188 187/187/187
f 191/191/191 190/190/190 189/189/189
f 189/189/189 192/192/192 191/191/191
f 195/195/195 194/194/194 193/193/193
f 193/193/193 196/196/196 195/195/195
f 199/199/199 198/198/198 197/197/197
f 197/197/197 200/200/200 199/199/199
f 203/203/203 202/202/202 201/201/201
f 201/201/201 204/204/204 203/203/203
f 207/207/207 206/206/206 205/205/205
f 205/205/205 208/208/208 207/207/207
f 211/211/211 210/210/210 209/209/209
f 209/209/209 212/212/212 211/211/211
f 215/215/215 214/214/214 213/213/213
f 213/213/213 216/216/216 215/215/215
f 219/219/219 218/218/218 217/217/217
f 217/217/217 220/220/220 219/219/219
f 223/223/223 222/222/222 221/221/221
f 221/221/221 224/224/224 223/223/223
f 227/227/227 226/226/226 225/225/225
f 225/225/225 228/228/228 227/227/227
f 231/231/231 230/230/230 229/229/229
f 229/229/229 232/232/232 231/231/231
f 235/235/235 234/234/234 233/233/233
f 233/233/233 236/236/236 235/235/235
f 239/239/239 238/238/238 237/237/237
f 237/237/237 240/240/240 239/239/239
f 243/243/243 242/242/242 241/241/241
f 241/241/241 244/244/244 243/243/243
f 247/247/247 246/246/246 245/245/245
f 245/245/245 248/248/248 247/247/247
f 251/251/251 250/250/250 249/249/249
f 249/249/249 252/252/252 251/251/251
f 255/255/255 254/254/254 253/253/253
f 253/253/253 256/256/256 255/255/255
f 259/259/259 258/258/258 257/257/257
f 257/257/257 260/260/260 259/259/259
f 263/263/263 262/262/262 261/261/261
f 261/261/261 264/264/264 263/263/263
f 267/267/267 266/266/266 265/265/265
f 265/265/265 268/268/268 267/267/267
f 271/271/271 270/270/270 269/269/269
f 269/269/269 272/272/272 271/271/271
f 275/275/275 274/274/274 273/273/273
f 273/273/273 276/276/276 275/275/275
f 279/279/279 278/278/278 277/277/277
f 277/277/277 280/280/280 279/279/279
f 283/283/283 282/282/282 281/281/281
f 281/281/281 284/284/284 283/283/283
f 287/287/287 286/286/286 285/285/285
f 285/285/285 288/288/288 287/287/287
f 291/291/291 290/290/290 289/289/289
f 289/289/289 292/292/292 291/291/291
f 295/295/295 294/294/294 293/293/293
f 293/293/293 296/296/296 295/295/295
f 299/299/299 298/298/298 297/297/297
f 297/297/297 300/300/300 299/299/299
f 303/303/303 302/302/302 301/301/301
f 301/301/301 304/304/304 303/303/303
f 307/307/307 306/306/306 305/305/305
f 305/305/305 308/308/308 307/307/307
f 311/311/311 310/310/310 309/309/309
f 309/309/309 312/312/312 311/311/311
f 315/315/315 314/314/314 313/313/313
f 313/313/313 316/316/316 315/315/315
f 319/319/319 318/318/318 317/317/317
f 317/317/317 320/320/320 319/319/319
f 323/323/323 322/322/322 321/321/321
f 321/321/321 324/324/324 323/323/323
f 327/327/327 326/326/326 325/325/325
f 325/325/325 328/328/328 327/327/327
f 331/331/331 330/330/330 329/329/329
f 329/329/329 332/332/332 331/331/331
f 335/335/335 334/334/334 333/333/333
f 333/333/333 336/336/336 335/335/335
f 339/339/339 338/338/338 337/337/337
f 337/337/337 340/340/340 339/339/339
f 343/343/343 342/342/342 341/341/341
f 341/341/341 344/344/344 343/343/343
f 347/347/347 346/346/346 345/345/345
f 345/345/345 348/348/348 347/347/347
f 351/351/351 350/350/350 349/349/349
f 349/349/349 352/352/352 351/351/351
f 355/355/355 354/354/354 353/353/353
f 353/353/353 356/356/356 355/355/355
f 359/359/359 358/358/358 357/357/357
f 357/357/357 360/360/360 359/359/359
f 363/363/363 362/362/362 361/361/361
f 361/361/361 364/364/364 363/363/363
f 367/367/367 366/366/366 365/365/365
f 365/365/365 368/368/368 367/367/367
f 371/371/371 370/370/370 369/369/369
f 369/369/369 372/372/372 371/371/371
f 375/375/375 374/374/374 373/373/373
f 373/373/373 376/376/376 375/375/375
f 379/379/379 378/378/378 377/377/377
f 377/377/377 380/380/380 379/379/379
f 383/383/383 382/382/382 381/381/381
f 381/381/381 384/384/384 383/383/383
f 387/387/387 386/386/386 385/385/385
f 385/385/385 388/388/388 387/387/387
f 391/391/391 390/390/390 389/389/389
f 389/389/389 392/392/392 391/391/391
f 395/395/395 394/394/394 393/393/393
f 393/393/393 396/396/396 395/395/395
f 399/399/399 398/398/398 397/397/397
f 397/397/397 400/400/400 399/399/399
f 403/403/403 402/402/402 401/401/401
f 401/401/401 404/404/404 403/403/403
f 407/407/407 406/406/406 405/405/405
f 405/405/405 408/408/408 407/407/407
f 411/411/411 410/410/410 409/409/409
f 409/409/409 412/412/412 411/411/411
f 415/415/415 414/414/414 413/413/413
f 413/413/413 416/416/416 415/415/415
f 419/419/419 418/418/418 417/417/417
f 417/417/417 420/420/420 419/419/419
f 423/423/423 422/422/422 421/421/421
f 421/421/421 424/424/424 423/423/423
f 427/427/427 426/426/426 425/425/425
f 425/425/425 428/428/428 427/427/427
f 431/431/431 430/430/430 429/429/429
f 429/429/429 432/432/432 431/431/431
f 435/435/435 434/434/434 433/433/433
f 433/433/433 436/436/436 435/435/435
f 439/439/439 438/438/438 437/437/437
f 437/437/437 440/440/440 439/439/439
f 443/443/443 442/442/442 441/441/441
f 441/441/441 444/444/444 443/443/443
f 447/447/447 446/446/446 445/445/445
f 445/445/445 448/448/448 447/447/447
f 451/451/451 450/450/450 449/449/449
f 449/449/449 452/452/452 451/451/451
f 455/455/455 454/454/454 453/453/453
f 453/453/453 456/456/456 455/455/455
f 459/459/459 458/458/458 457/457/457
f 457/457/457 460/460/460 459/459/459
f 463/463/463 462/462/462 461/461/461
f 461/461/461 464/464/464 463/463/463
f 467/467/467 466/466/466 465/465/465
f 465/465/465 468/468/468 467/467/467
f 471/471/471 470/470/470 469/469/469
f 469/469/469 472/472/472 471/471/471
f 475/475/475 474/474/474 473/473/473
f 473/473/473 476/476/476 475/475/475
f 479/479/479 478/478/478 477/477/477
f 477/477/477 480/480/480 479/479/479
f 483/483/483 482/482/482 481/481/481
f 481/481/481 484/484/484 483/483/483
f 487/487/487 486/486/486 485/485/485
f 485/485/485 488/488/488 487/487/487
f 491/491/491 490/490/490 489/489/489
f 489/489/489 492/492/492 491/491/491
f 495/495/495 494/494/494 493/493/493
f 493/493/493 496/496/496 495/495/495
f 499/499/499 498/498/498 497/497/497
f 497/497/497 500/500/500 499/499/499
f 503/503/503 502/502/502 501/501/501
f 501/501/501 504/504/504 503/503/503
f 507/507/507 506/506/506 505/505/505
f 505/505/505 508/508/508 507/507/507
f 511/511/511 510/510/510 509/509/509
f 509/509/509 512/512/512 511/511/511
f 515/515/515 514/514/514 513/513/513
f 513/513/513 516/516/516 515/515/515
f 519/519/519 518/518/518 517/517/517
f 517/517/517 520/520/520 519/519/519
f 523/523/523 522/522/522 521/521/521
f 521/521/521 524/524/524 523/523/523
f 527/527/527 526/526/526 525/525/525
f 525/525/525 528/528/528 527/527/527
f 531/531/531 530/530/530 529/529/529
f 529/529/529 532/532/532 531/531/531
f 535/535/535 534/534/534 533/533/533
f 533/533/533 536/536/536 535/535/535
f 539/539/539 538/538/538 537/537/537
f 537/537/537 540/540/540 539/539/539
f 543/543/543 542/542/542 541/541/541
f 541/541/541 544/544/544 543/543/543
f 547/547/547 546/546/546 545/545/545
f 545/545/545 548/548/548 547/547/547
f 551/551/551 550/550/550 549/549/549
f 549/549/549 552/552/552 551/551/551
f 555/555/555 554/554/554 553/553/553
f 553/553/553 556/556/556 555/555/555
f 559/559/559 558/558/558 557/557/557
f 557/557/557 560/560/560 559/559/559
f 563/563/563 562/562/562 561/561/561
f 561/561/561 564/564/564 563/563/563
f 567/567/567 566/566/566 565/565/565
f 565/565/565 568/568/568 567/567/567
f 571/571/571 570/570/570 569/569/569
f 569/569/569 572/572/572 571/571/571
f 575/575/575 574/574/574 573/573/573
f 573/573/573 576/576/576 575/575/575
f 579/579/579 578/578/578 577/577/577
f 577/577/577 580/580/580 579/579/579
f 583/583/583 582/582/582 581/581/581
f 581/581/581 584/584/584 583/583/583
f 587/587/587 586/586/586 585/585/585
f 585/585/585 588/588/588 587/587/587
f 591/591/591 590/590/590 589/589/589
f 589/589/589 592/592/592 591/591/591
f 595/595/595 594/594/594 593/593/593
f 593/593/593 596/596/596 595/595/595
f 599/599/599 598/598/598 597/597/597
f 597/597/597 600/600/600 599/599/599
f 603/603/603 602/602/602 601/601/601
f 601/601/601 604/604/604 603/603/603
f 607/607/607 606/606/606 605/605/605
f 605/605/605 608/608/608 607/607/607
f 611/611/611 610/610/610 609/609/609
f 609/609/609 612/612/612 611/611/611
f 615/615/615 614/614/614 613/613/613
f 613/613/613 616/616/616 615/615/615
f 619/619/619 618/618/618 617/617/617
f 617/617/617 620/620/620 619/619/619
f 623/623/623 622/622/622 621/621/621
f 621/621/621 624/624/624 623/623/623
f 627/627/627 626/626/626 625/625/625
f 625/625/625 628/628/628 627/627/627
f 631/631/631 630/630/630 629/629/629
f 629/629/629 632/632/632 631/631/631
f 635/635/635 634/634/634 633/633/633
f 633/633/633 636/636/636 635/635/635
f 639/639/639 638/638/638 637/637/637
f 637/637/637 640/640/640 639/639/639
f 643/643/643 642/642/642 641/641/641
f 641/641/641 644/644/644 643/643/643
f 647/647/647 646/646/646 645/645/645
f 645/645/645 648/648/648 647/647/647
f 651/651/651 650/650/650 649/649/649
f 649/649/649 652/652/652 651/651/651
f 655/655/655 654/654/654 653/653/653
f 653/653/653 656/656/656 655/655/655
f 659/659/659 658/658/658 657/657/657
f 657/657/657 660/660/660 659/659/659
f 663/663/663 662/662/662 661/661/661
f 661/661/661 664/664/664 663/663/663
f 667/667/667 666/666/666 665/665/665
f 665/665/665 668/668/668 667/667/667
f 671/671/671 670/670/670 669/669/669
f 669/669/669 672/672/672 671/671/671
f 675/675/675 674/674/674 673/673/673
f 673/673/673 676/676/676 675/675/675
f 679/679/679 678/678/678 677/677/677
f 677/677/677 680/680/680 679/679/679
f 683/683/683 682/682/682 681/681/681
f 681/681/681 684/684/684 683/683/683
f 687/687/687 686/686/686 685/685/685
f 685/685/685 688/688/688 687/687/687
f 691/691/691 690/690/690 689/689/689
f 689/689/689 692/692/692 691/691/691
f 695/695/695 694/694/694 693/693/693
f 693/693/693 696/696/696 695/695/695
f 699/699/699 698/698/698 697/697/697
f 697/697/697 700/700/700 699/699/699
f 703/703/703 702/702/702 701/701/701
f 701/701/701 704/704/704 703/703/703
f 707/707/707 706/706/706 705/705/705
f 705/705/705 708/708/708 707/707/707
f 711/711/711 710/710/710 709/709/709
f 709/709/709 712/712/712 711/711/711
f 715/715/715 714/714/714 713/713/713
f 713/713/713 716/716/716 715/715/715
f 719/719/719 718/718/718 717/717/717
f 717/717/717 720/720/720 719/719/719
f 723/723/723 722/722/722 721/721/721
f 721/721/721 724/724/724 723/723/723
f 727/727/727 726/726/726 725/725/725
f 725/725/725 728/728/728 727/727/727
f 731/731/731 730/730/730 729/729/729
f 729/729/729 732/732/732 731/731/731
f 735/735/735 734/734/734 733/733/733
f 733/733/733 736/736/736 735/735/735
f 739/739/739 738/738/738 737/737/737
f 737/737/737 740/740/740 739/739/739
f 743/743/743 742/742/742 741/741/741
f 741/741/741 744/744/744 743/743/743
f 747/747/747 746/746/746 745/745/745
f 745/745/745 748/748/748 747/747/747
f 751/751/751 750/750/750 749/749/749
f 749/749/749 752/752/752 751/751/751
f 755/755/755 754/754/754 753/753/753
f 753/753/753 756/756/756 755/755/755
f 759/759/759 758/758/758 757/757/757
f 757/757/757 760/760/760 759/759/759
f 763/763/763 762/762/762 761/761/761
f 761/761/761 764/764/764 763/763/763
f 767/767/767 766/766/766 765/765/765
f 765/765/765 768/768/768 767/767/767
f 771/771/771 770/770/770 769/769/769
f 769/769/769 772/772/772 771/771/771
f 775/775/775 774/774/774 773/773/773
f 773/773/773 776/776/776 775/775/775
f 779/779/779 778/778/778 777/777/777
f 777/777/777 780/780/780 779/779/779
f 783/783/783 782/782/782 781/781/781
f 781/781/781 784/784/784 783/783/783
f 787/787/787 786/786/786 785/785/785
f 785/785/785 788/788/788 787/787/787
f 791/791/791 790/790/790 789/789/789
f 789/789/789 792/792/792 791/791/791
f 795/795/795 794/794/794 793/793/793
f 793/793/793 796/796/796 795/795/795
f 799/799/799 798/798/798 797/797/797
f 797/797/797 800/800/800 799/799/799
f 803/803/803 802/802/802 801/801/801
f 801/801/801 804/804/804 803/803/803
f 807/807/807 806/806/806 805/805/805
f 805/805/805 808/808/808 807/807/807
f 811/811/811 810/810/810 809/809/809
f 809/809/809 812/812/812 811/811/811
f 815/815/815 814/814/814 813/813/813
f 813/813/813 816/816/816 815/815/815
f 819/819/819 818/818/818 817/817/817
f 817/817/817 820/820/820 819/819/819
f 823/823/823 822/822/822 821/821/821
f 821/821/821 824/824/824 823/823/823
f 827/827/827 826/826/826 825/825/825
f 825/825/825 828/828/828 827/827/827
f 831/831/831 830/830/830 829/829/829
f 829/829/829 832/832/832 831/831/831
f 835/835/835 834/834/834 833/833/833
f 833/833/833 836/836/836 835/835/835
f 839/839/839 838/838/838 837/837/837
f 837/837/837 840/840/840 839/839/839
f 843/843/843 842/842/842 841/841/841
f 841/841/841 844/844/844 843/843/843
f 847/847/847 846/846/846 845/845/845
f 845/845/845 848/848/848 847/847/847
f 851/851/851 850/850/850 849/849/849
f 849/849/849 852/852/852 851/851/851
f 855/855/855 854/854/854 853/853/853
f 853/853/853 856/856/856 855/855/855
f 859/859/859 858/858/858 857/857/857
f 857/857/857 860/860/860 859/859/859
f 863/863/863 862/862/862 861/861/861
f 861/861/861 864/864/864 863/863/863
f 867/867/867 866/866/866 865/865/865
f 865/865/865 868/868/868 867/867/867
f 871/871/871 870/870/870 869/869/869
f 869/869/869 872/872/872 871/871/871
f 875/875/875 874/874/874 873/873/873
f 873/873/873 876/876/876 875/875/875
f 879/879/879 878/878/878 877/877/877
f 877/877/877 880/880/880 879/879/879
f 883/883/883 882/882/882 881/881/881
f 881/881/881 884/884/884 883/883/883
f 887/887/887 886/886/886 885/885/885
f 885/885/885 888/888/888 887/887/887
f 891/891/891 890/890/890 889/889/889
f 889/889/889 892/892/892 891/891/891
f 895/895/895 894/894/894 893/893/893
f 893/893/893 896/896/896 895/895/895
f 899/899/899 898/898/898 897/897/897
f 897/897/897 900/900/900 899/899/899
f 903/903/903 902/902/902 901/901/901
f 901/901/901 904/904/904 903/903/903
f 907/907/907 906/906/906 905/905/905
f 905/905/905 908/908/908 907/907/907
f 911/911/911 910/910/910 909/909/909
f 909/909/909 912/912/912 911/911/911
f 915/915/915 914/914/914 913/913/913
f 913/913/913 916/916/916 915/915/915
f 919/919/919 918/918/918 917/917/917
f 917/917/917 920/920/920 919/919/919
f 923/923/923 922/922/922 921/921/921
f 921/921/921 924/924/924 923/923/923
f 927/927/927 926/926/926 925/925/925
f 925/925/925 928/928/928 927/927/927
f 931/931/931 930/930/930 929/929/929
f 929/929/929 932/932/932 931/931/931
f 935/935/935 934/934/934 933/933/933
f 933/933/933 936/936/936 935/935/935
