g suweiaitongmeng_2-mesh
v -416 976 0
v -416 1712 0
v -1760 1712 0
v -1760 976 0
v -416 272 0
v -416 976 0
v -1760 976 0
v -1760 272 0
v -192 848 0
v -192 1456 0
v -416 1456 0
v -416 848 0
v -192 272 0
v -192 848 0
v -416 848 0
v -416 272 0
v -544 48 0
v -544 272 0
v -992 272 0
v -992 48 0
v -992 48 0
v -992 272 0
v -1408 272 0
v -1408 48 0
v -1760 432 0
v -1760 912 0
v -1952 912 0
v -1952 432 0
v -1760 912 0
v -1760 1392 0
v -1952 1392 0
v -1952 912 0
v -608 1712 0
v -608 1840 0
v -1056 1840 0
v -1056 1712 0
v -1056 1712 0
v -1056 1840 0
v -1472 1840 0
v -1472 1712 0
v -32 1040 0
v -32 1360 0
v -192 1360 0
v -192 1040 0
v -32 752 0
v -32 1040 0
v -192 1040 0
v -192 752 0
v -256 1456 0
v -256 1616 0
v -416 1616 0
v -416 1456 0
v -256 176 0
v -256 272 0
v -416 272 0
v -416 176 0
v -1760 1520 0
v -1760 1680 0
v -1856 1680 0
v -1856 1520 0
v -928 1840 0
v -928 1904 0
v -1120 1904 0
v -1120 1840 0
v -1760 1392 0
v -1760 1520 0
v -1856 1520 0
v -1856 1392 0
v -416 176 0
v -416 272 0
v -544 272 0
v -544 176 0
v -864 0 0
v -864 48 0
v -1024 48 0
v -1024 0 0
v -704 0 0
v -704 48 0
v -864 48 0
v -864 0 0
v -1120 1840 0
v -1120 1904 0
v -1280 1904 0
v -1280 1840 0
v -96 656 0
v -96 752 0
v -192 752 0
v -192 656 0
v -512 1712 0
v -512 1808 0
v -608 1808 0
v -608 1712 0
v -1952 720 0
v -1952 1008 0
v -1984 1008 0
v -1984 720 0
v -1952 432 0
v -1952 720 0
v -1984 720 0
v -1984 432 0
v -1760 304 0
v -1760 432 0
v -1824 432 0
v -1824 304 0
v -416 112 0
v -416 176 0
v -544 176 0
v -544 112 0
v -128 496 0
v -128 624 0
v -192 624 0
v -192 496 0
v -1472 1712 0
v -1472 1776 0
v -1600 1776 0
v -1600 1712 0
v -128 400 0
v -128 496 0
v -192 496 0
v -192 400 0
v -1408 176 0
v -1408 272 0
v -1472 272 0
v -1472 176 0
v -1600 1712 0
v -1600 1776 0
v -1696 1776 0
v -1696 1712 0
v -192 1488 0
v -192 1584 0
v -256 1584 0
v -256 1488 0
v -1408 80 0
v -1408 176 0
v -1472 176 0
v -1472 80 0
v -1952 1040 0
v -1952 1200 0
v -1984 1200 0
v -1984 1040 0
v -1984 784 0
v -1984 944 0
v -2016 944 0
v -2016 784 0
v -1952 1200 0
v -1952 1360 0
v -1984 1360 0
v -1984 1200 0
v -352 1616 0
v -352 1680 0
v -416 1680 0
v -416 1616 0
v -1408 1872 0
v -1408 1936 0
v -1472 1936 0
v -1472 1872 0
v -1984 656 0
v -1984 784 0
v -2016 784 0
v -2016 656 0
v -128 1360 0
v -128 1424 0
v -192 1424 0
v -192 1360 0
v -768 1840 0
v -768 1872 0
v -864 1872 0
v -864 1840 0
v -1120 1904 0
v -1120 1936 0
v -1216 1936 0
v -1216 1904 0
v -1856 1392 0
v -1856 1488 0
v -1888 1488 0
v -1888 1392 0
v -1856 1488 0
v -1856 1584 0
v -1888 1584 0
v -1888 1488 0
v -1472 240 0
v -1472 272 0
v -1568 272 0
v -1568 240 0
v -1568 240 0
v -1568 272 0
v -1664 272 0
v -1664 240 0
v -64 1360 0
v -64 1392 0
v -128 1392 0
v -128 1360 0
v -1888 1392 0
v -1888 1456 0
v -1920 1456 0
v -1920 1392 0
v -1856 1616 0
v -1856 1648 0
v -1920 1648 0
v -1920 1616 0
v -992 1904 0
v -992 1936 0
v -1056 1936 0
v -1056 1904 0
v -1120 16 0
v -1120 48 0
v -1184 48 0
v -1184 16 0
v -1696 1712 0
v -1696 1744 0
v -1760 1744 0
v -1760 1712 0
v -480 1712 0
v -480 1776 0
v -512 1776 0
v -512 1712 0
v -480 80 0
v -480 112 0
v -544 112 0
v -544 80 0
v -640 16 0
v -640 48 0
v -704 48 0
v -704 16 0
v -1024 16 0
v -1024 48 0
v -1088 48 0
v -1088 16 0
v -1472 144 0
v -1472 208 0
v -1504 208 0
v -1504 144 0
v -0 848 0
v -0 912 0
v -32 912 0
v -32 848 0
v -64 688 0
v -64 752 0
v -96 752 0
v -96 688 0
v -224 208 0
v -224 272 0
v -256 272 0
v -256 208 0
v -0 976 0
v -0 1040 0
v -32 1040 0
v -32 976 0
v -2016 752 0
v -2016 816 0
v -2047 816 0
v -2047 752 0
v -96 528 0
v -96 592 0
v -128 592 0
v -128 528 0
v -96 464 0
v -96 528 0
v -128 528 0
v -128 464 0
v -2016 816 0
v -2016 880 0
v -2047 880 0
v -2047 816 0
v -1216 1904 0
v -1216 1936 0
v -1280 1936 0
v -1280 1904 0
v -864 1840 0
v -864 1872 0
v -928 1872 0
v -928 1840 0
v -1344 1840 0
v -1344 1872 0
v -1408 1872 0
v -1408 1840 0
v -1472 208 0
v -1472 240 0
v -1536 240 0
v -1536 208 0
v -1984 1104 0
v -1984 1168 0
v -2016 1168 0
v -2016 1104 0
v -1280 1840 0
v -1280 1872 0
v -1344 1872 0
v -1344 1840 0
v -0 1264 0
v -0 1328 0
v -32 1328 0
v -32 1264 0
v -1536 208 0
v -1536 240 0
v -1600 240 0
v -1600 208 0
v -1888 1520 0
v -1888 1552 0
v -1920 1552 0
v -1920 1520 0
v -160 1424 0
v -160 1456 0
v -192 1456 0
v -192 1424 0
v -224 1456 0
v -224 1488 0
v -256 1488 0
v -256 1456 0
v -1504 176 0
v -1504 208 0
v -1536 208 0
v -1536 176 0
v -160 368 0
v -160 400 0
v -192 400 0
v -192 368 0
v -384 144 0
v -384 176 0
v -416 176 0
v -416 144 0
v -128 624 0
v -128 656 0
v -160 656 0
v -160 624 0
v -320 1616 0
v -320 1648 0
v -352 1648 0
v -352 1616 0
v -0 1232 0
v -0 1264 0
v -32 1264 0
v -32 1232 0
v -1184 16 0
v -1184 48 0
v -1216 48 0
v -1216 16 0
v -1984 1072 0
v -1984 1104 0
v -2016 1104 0
v -2016 1072 0
v -0 944 0
v -0 976 0
v -32 976 0
v -32 944 0
v -448 1712 0
v -448 1744 0
v -480 1744 0
v -480 1712 0
v -1472 1776 0
v -1472 1808 0
v -1504 1808 0
v -1504 1776 0
v -1376 1872 0
v -1376 1904 0
v -1408 1904 0
v -1408 1872 0
vt 0.00048828125 0.000576019287
vt 0.00048828125 0.424539149
vt 0.656738281 0.424539149
vt 0.656738281 0.000576019287
vt 0.00048828125 0.425691247
vt 0.00048828125 0.831221223
vt 0.656738281 0.831221223
vt 0.656738281 0.425691247
vt 0.657714844 0.000576019287
vt 0.657714844 0.350806475
vt 0.767089844 0.350806475
vt 0.767089844 0.000576019287
vt 0.768066406 0.000576019287
vt 0.768066406 0.332373261
vt 0.877441406 0.332373261
vt 0.877441406 0.000576019287
vt 0.768066406 0.33352536
vt 0.768066406 0.462557614
vt 0.986816406 0.462557614
vt 0.986816406 0.33352536
vt 0.768066406 0.463709652
vt 0.768066406 0.592741966
vt 0.971191406 0.592741966
vt 0.971191406 0.463709652
vt 0.657714844 0.351958513
vt 0.657714844 0.628456235
vt 0.751464844 0.628456235
vt 0.751464844 0.351958513
vt 0.768066406 0.593894005
vt 0.768066406 0.870391726
vt 0.861816406 0.870391726
vt 0.861816406 0.593894005
vt 0.00048828125 0.832373261
vt 0.00048828125 0.906105995
vt 0.219238281 0.906105995
vt 0.219238281 0.832373261
vt 0.220214844 0.832373261
vt 0.220214844 0.906105995
vt 0.423339844 0.906105995
vt 0.423339844 0.832373261
vt 0.862792969 0.593894005
vt 0.862792969 0.77822578
vt 0.940917969 0.77822578
vt 0.940917969 0.593894005
vt 0.657714844 0.629608274
vt 0.657714844 0.795506895
vt 0.735839844 0.795506895
vt 0.735839844 0.629608274
vt 0.862792969 0.779377878
vt 0.862792969 0.871543765
vt 0.940917969 0.871543765
vt 0.940917969 0.779377878
vt 0.657714844 0.796658993
vt 0.657714844 0.851958513
vt 0.735839844 0.851958513
vt 0.735839844 0.796658993
vt 0.941894531 0.593894005
vt 0.941894531 0.686059952
vt 0.988769531 0.686059952
vt 0.988769531 0.593894005
vt 0.424316406 0.832373261
vt 0.424316406 0.869239628
vt 0.518066406 0.869239628
vt 0.518066406 0.832373261
vt 0.941894531 0.68721199
vt 0.941894531 0.760944724
vt 0.988769531 0.760944724
vt 0.988769531 0.68721199
vt 0.519042969 0.832373261
vt 0.519042969 0.887672782
vt 0.581542969 0.887672782
vt 0.581542969 0.832373261
vt 0.657714844 0.853110611
vt 0.657714844 0.881336391
vt 0.735839844 0.881336391
vt 0.735839844 0.853110611
vt 0.424316406 0.870391726
vt 0.424316406 0.898617506
vt 0.502441406 0.898617506
vt 0.502441406 0.870391726
vt 0.768066406 0.871543765
vt 0.768066406 0.908410132
vt 0.846191406 0.908410132
vt 0.846191406 0.871543765
vt 0.941894531 0.762096763
vt 0.941894531 0.817396283
vt 0.988769531 0.817396283
vt 0.988769531 0.762096763
vt 0.941894531 0.818548381
vt 0.941894531 0.873847961
vt 0.988769531 0.873847961
vt 0.988769531 0.818548381
vt 0.736816406 0.629608274
vt 0.736816406 0.795506895
vt 0.752441406 0.795506895
vt 0.752441406 0.629608274
vt 0.736816406 0.796658993
vt 0.736816406 0.962557614
vt 0.752441406 0.962557614
vt 0.752441406 0.796658993
vt 0.582519531 0.832373261
vt 0.582519531 0.906105995
vt 0.613769531 0.906105995
vt 0.613769531 0.832373261
vt 0.862792969 0.872695863
vt 0.862792969 0.90956223
vt 0.925292969 0.90956223
vt 0.925292969 0.872695863
vt 0.614746094 0.832373261
vt 0.614746094 0.906105995
vt 0.645996094 0.906105995
vt 0.645996094 0.832373261
vt 0.657714844 0.882488489
vt 0.657714844 0.919354856
vt 0.720214844 0.919354856
vt 0.720214844 0.882488489
vt 0.941894531 0.875
vt 0.941894531 0.93029952
vt 0.973144531 0.93029952
vt 0.973144531 0.875
vt 0.519042969 0.88882488
vt 0.519042969 0.944124401
vt 0.550292969 0.944124401
vt 0.550292969 0.88882488
vt 0.424316406 0.899769604
vt 0.424316406 0.936635971
vt 0.471191406 0.936635971
vt 0.471191406 0.899769604
vt 0.472167969 0.899769604
vt 0.472167969 0.955069125
vt 0.503417969 0.955069125
vt 0.503417969 0.899769604
vt 0.00048828125 0.907258034
vt 0.00048828125 0.962557614
vt 0.0317382812 0.962557614
vt 0.0317382812 0.907258034
vt 0.974121094 0.875
vt 0.974121094 0.967165887
vt 0.989746094 0.967165887
vt 0.989746094 0.875
vt 0.551269531 0.88882488
vt 0.551269531 0.980990767
vt 0.566894531 0.980990767
vt 0.566894531 0.88882488
vt 0.0327148438 0.907258034
vt 0.0327148438 0.999423981
vt 0.0483398438 0.999423981
vt 0.0483398438 0.907258034
vt 0.0493164062 0.907258034
vt 0.0493164062 0.944124401
vt 0.0805664062 0.944124401
vt 0.0805664062 0.907258034
vt 0.0815429688 0.907258034
vt 0.0815429688 0.944124401
vt 0.112792969 0.944124401
vt 0.112792969 0.907258034
vt 0.113769531 0.907258034
vt 0.113769531 0.980990767
vt 0.129394531 0.980990767
vt 0.129394531 0.907258034
vt 0.130371094 0.907258034
vt 0.130371094 0.944124401
vt 0.161621094 0.944124401
vt 0.161621094 0.907258034
vt 0.162597656 0.907258034
vt 0.162597656 0.925691247
vt 0.209472656 0.925691247
vt 0.209472656 0.907258034
vt 0.210449219 0.907258034
vt 0.210449219 0.925691247
vt 0.257324219 0.925691247
vt 0.257324219 0.907258034
vt 0.258300781 0.907258034
vt 0.258300781 0.962557614
vt 0.273925781 0.962557614
vt 0.273925781 0.907258034
vt 0.274902344 0.907258034
vt 0.274902344 0.962557614
vt 0.290527344 0.962557614
vt 0.290527344 0.907258034
vt 0.291503906 0.907258034
vt 0.291503906 0.925691247
vt 0.338378906 0.925691247
vt 0.338378906 0.907258034
vt 0.339355469 0.907258034
vt 0.339355469 0.925691247
vt 0.386230469 0.925691247
vt 0.386230469 0.907258034
vt 0.387207031 0.907258034
vt 0.387207031 0.925691247
vt 0.418457031 0.925691247
vt 0.418457031 0.907258034
vt 0.582519531 0.907258034
vt 0.582519531 0.944124401
vt 0.598144531 0.944124401
vt 0.598144531 0.907258034
vt 0.599121094 0.907258034
vt 0.599121094 0.925691247
vt 0.630371094 0.925691247
vt 0.630371094 0.907258034
vt 0.768066406 0.90956223
vt 0.768066406 0.927995384
vt 0.799316406 0.927995384
vt 0.799316406 0.90956223
vt 0.800292969 0.90956223
vt 0.800292969 0.927995384
vt 0.831542969 0.927995384
vt 0.831542969 0.90956223
vt 0.862792969 0.910714269
vt 0.862792969 0.929147482
vt 0.894042969 0.929147482
vt 0.894042969 0.910714269
vt 0.631347656 0.907258034
vt 0.631347656 0.944124401
vt 0.646972656 0.944124401
vt 0.646972656 0.907258034
vt 0.895019531 0.910714269
vt 0.895019531 0.929147482
vt 0.926269531 0.929147482
vt 0.926269531 0.910714269
vt 0.657714844 0.920506895
vt 0.657714844 0.938940108
vt 0.688964844 0.938940108
vt 0.688964844 0.920506895
vt 0.689941406 0.920506895
vt 0.689941406 0.938940108
vt 0.721191406 0.938940108
vt 0.721191406 0.920506895
vt 0.832519531 0.90956223
vt 0.832519531 0.946428597
vt 0.848144531 0.946428597
vt 0.848144531 0.90956223
vt 0.162597656 0.926843286
vt 0.162597656 0.963709652
vt 0.178222656 0.963709652
vt 0.178222656 0.926843286
vt 0.179199219 0.926843286
vt 0.179199219 0.963709652
vt 0.194824219 0.963709652
vt 0.194824219 0.926843286
vt 0.195800781 0.926843286
vt 0.195800781 0.963709652
vt 0.211425781 0.963709652
vt 0.211425781 0.926843286
vt 0.212402344 0.926843286
vt 0.212402344 0.963709652
vt 0.228027344 0.963709652
vt 0.228027344 0.926843286
vt 0.229003906 0.926843286
vt 0.229003906 0.963709652
vt 0.244628906 0.963709652
vt 0.244628906 0.926843286
vt 0.291503906 0.926843286
vt 0.291503906 0.963709652
vt 0.307128906 0.963709652
vt 0.307128906 0.926843286
vt 0.308105469 0.926843286
vt 0.308105469 0.963709652
vt 0.323730469 0.963709652
vt 0.323730469 0.926843286
vt 0.324707031 0.926843286
vt 0.324707031 0.963709652
vt 0.340332031 0.963709652
vt 0.340332031 0.926843286
vt 0.341308594 0.926843286
vt 0.341308594 0.945276499
vt 0.372558594 0.945276499
vt 0.372558594 0.926843286
vt 0.373535156 0.926843286
vt 0.373535156 0.945276499
vt 0.404785156 0.945276499
vt 0.404785156 0.926843286
vt 0.599121094 0.926843286
vt 0.599121094 0.945276499
vt 0.630371094 0.945276499
vt 0.630371094 0.926843286
vt 0.768066406 0.929147482
vt 0.768066406 0.947580636
vt 0.799316406 0.947580636
vt 0.799316406 0.929147482
vt 0.405761719 0.926843286
vt 0.405761719 0.963709652
vt 0.421386719 0.963709652
vt 0.421386719 0.926843286
vt 0.800292969 0.929147482
vt 0.800292969 0.947580636
vt 0.831542969 0.947580636
vt 0.831542969 0.929147482
vt 0.862792969 0.93029952
vt 0.862792969 0.967165887
vt 0.878417969 0.967165887
vt 0.878417969 0.93029952
vt 0.879394531 0.93029952
vt 0.879394531 0.948732734
vt 0.910644531 0.948732734
vt 0.910644531 0.93029952
vt 0.911621094 0.93029952
vt 0.911621094 0.948732734
vt 0.927246094 0.948732734
vt 0.927246094 0.93029952
vt 0.941894531 0.931451619
vt 0.941894531 0.949884772
vt 0.957519531 0.949884772
vt 0.957519531 0.931451619
vt 0.424316406 0.93778801
vt 0.424316406 0.956221223
vt 0.439941406 0.956221223
vt 0.439941406 0.93778801
vt 0.440917969 0.93778801
vt 0.440917969 0.956221223
vt 0.456542969 0.956221223
vt 0.456542969 0.93778801
vt 0.657714844 0.940092146
vt 0.657714844 0.95852536
vt 0.673339844 0.95852536
vt 0.673339844 0.940092146
vt 0.674316406 0.940092146
vt 0.674316406 0.95852536
vt 0.689941406 0.95852536
vt 0.689941406 0.940092146
vt 0.690917969 0.940092146
vt 0.690917969 0.95852536
vt 0.706542969 0.95852536
vt 0.706542969 0.940092146
vt 0.707519531 0.940092146
vt 0.707519531 0.95852536
vt 0.723144531 0.95852536
vt 0.723144531 0.940092146
vt 0.0493164062 0.945276499
vt 0.0493164062 0.963709652
vt 0.0649414062 0.963709652
vt 0.0649414062 0.945276499
vt 0.0659179688 0.945276499
vt 0.0659179688 0.963709652
vt 0.0815429688 0.963709652
vt 0.0815429688 0.945276499
vt 0.0825195312 0.945276499
vt 0.0825195312 0.963709652
vt 0.0981445312 0.963709652
vt 0.0981445312 0.945276499
vt 0.130371094 0.945276499
vt 0.130371094 0.963709652
vt 0.145996094 0.963709652
vt 0.145996094 0.945276499
vt 0.519042969 0.945276499
vt 0.519042969 0.963709652
vt 0.534667969 0.963709652
vt 0.534667969 0.945276499
vt 0.582519531 0.945276499
vt 0.582519531 0.963709652
vt 0.598144531 0.963709652
vt 0.598144531 0.945276499
vt 0.631347656 0.945276499
vt 0.631347656 0.963709652
vt 0.646972656 0.963709652
vt 0.646972656 0.945276499
g suweiaitongmeng_2-mesh_0
f 3/3/3 2/2/2 1/1/1
f 1/1/1 4/4/4 3/3/3
f 7/7/7 6/6/6 5/5/5
f 5/5/5 8/8/8 7/7/7
f 11/11/11 10/10/10 9/9/9
f 9/9/9 12/12/12 11/11/11
f 15/15/15 14/14/14 13/13/13
f 13/13/13 16/16/16 15/15/15
f 19/19/19 18/18/18 17/17/17
f 17/17/17 20/20/20 19/19/19
f 23/23/23 22/22/22 21/21/21
f 21/21/21 24/24/24 23/23/23
f 27/27/27 26/26/26 25/25/25
f 25/25/25 28/28/28 27/27/27
f 31/31/31 30/30/30 29/29/29
f 29/29/29 32/32/32 31/31/31
f 35/35/35 34/34/34 33/33/33
f 33/33/33 36/36/36 35/35/35
f 39/39/39 38/38/38 37/37/37
f 37/37/37 40/40/40 39/39/39
f 43/43/43 42/42/42 41/41/41
f 41/41/41 44/44/44 43/43/43
f 47/47/47 46/46/46 45/45/45
f 45/45/45 48/48/48 47/47/47
f 51/51/51 50/50/50 49/49/49
f 49/49/49 52/52/52 51/51/51
f 55/55/55 54/54/54 53/53/53
f 53/53/53 56/56/56 55/55/55
f 59/59/59 58/58/58 57/57/57
f 57/57/57 60/60/60 59/59/59
f 63/63/63 62/62/62 61/61/61
f 61/61/61 64/64/64 63/63/63
f 67/67/67 66/66/66 65/65/65
f 65/65/65 68/68/68 67/67/67
f 71/71/71 70/70/70 69/69/69
f 69/69/69 72/72/72 71/71/71
f 75/75/75 74/74/74 73/73/73
f 73/73/73 76/76/76 75/75/75
f 79/79/79 78/78/78 77/77/77
f 77/77/77 80/80/80 79/79/79
f 83/83/83 82/82/82 81/81/81
f 81/81/81 84/84/84 83/83/83
f 87/87/87 86/86/86 85/85/85
f 85/85/85 88/88/88 87/87/87
f 91/91/91 90/90/90 89/89/89
f 89/89/89 92/92/92 91/91/91
f 95/95/95 94/94/94 93/93/93
f 93/93/93 96/96/96 95/95/95
f 99/99/99 98/98/98 97/97/97
f 97/97/97 100/100/100 99/99/99
f 103/103/103 102/102/102 101/101/101
f 101/101/101 104/104/104 103/103/103
f 107/107/107 106/106/106 105/105/105
f 105/105/105 108/108/108 107/107/107
f 111/111/111 110/110/110 109/109/109
f 109/109/109 112/112/112 111/111/111
f 115/115/115 114/114/114 113/113/113
f 113/113/113 116/116/116 115/115/115
f 119/119/119 118/118/118 117/117/117
f 117/117/117 120/120/120 119/119/119
f 123/123/123 122/122/122 121/121/121
f 121/121/121 124/124/124 123/123/123
f 127/127/127 126/126/126 125/125/125
f 125/125/125 128/128/128 127/127/127
f 131/131/131 130/130/130 129/129/129
f 129/129/129 132/132/132 131/131/131
f 135/135/135 134/134/134 133/133/133
f 133/133/133 136/136/136 135/135/135
f 139/139/139 138/138/138 137/137/137
f 137/137/137 140/140/140 139/139/139
f 143/143/143 142/142/142 141/141/141
f 141/141/141 144/144/144 143/143/143
f 147/147/147 146/146/146 145/145/145
f 145/145/145 148/148/148 147/147/147
f 151/151/151 150/150/150 149/149/149
f 149/149/149 152/152/152 151/151/151
f 155/155/155 154/154/154 153/153/153
f 153/153/153 156/156/156 155/155/155
f 159/159/159 158/158/158 157/157/157
f 157/157/157 160/160/160 159/159/159
f 163/163/163 162/162/162 161/161/161
f 161/161/161 164/164/164 163/163/163
f 167/167/167 166/166/166 165/165/165
f 165/165/165 168/168/168 167/167/167
f 171/171/171 170/170/170 169/169/169
f 169/169/169 172/172/172 171/171/171
f 175/175/175 174/174/174 173/173/173
f 173/173/173 176/176/176 175/175/175
f 179/179/179 178/178/178 177/177/177
f 177/177/177 180/180/180 179/179/179
f 183/183/183 182/182/182 181/181/181
f 181/181/181 184/184/184 183/183/183
f 187/187/187 186/186/186 185/185/185
f 185/185/185 188/188/188 187/187/187
f 191/191/191 190/190/190 189/189/189
f 189/189/189 192/192/192 191/191/191
f 195/195/195 194/194/194 193/193/193
f 193/193/193 196/196/196 195/195/195
f 199/199/199 198/198/198 197/197/197
f 197/197/197 200/200/200 199/199/199
f 203/203/203 202/202/202 201/201/201
f 201/201/201 204/204/204 203/203/203
f 207/207/207 206/206/206 205/205/205
f 205/205/205 208/208/208 207/207/207
f 211/211/211 210/210/210 209/209/209
f 209/209/209 212/212/212 211/211/211
f 215/215/215 214/214/214 213/213/213
f 213/213/213 216/216/216 215/215/215
f 219/219/219 218/218/218 217/217/217
f 217/217/217 220/220/220 219/219/219
f 223/223/223 222/222/222 221/221/221
f 221/221/221 224/224/224 223/223/223
f 227/227/227 226/226/226 225/225/225
f 225/225/225 228/228/228 227/227/227
f 231/231/231 230/230/230 229/229/229
f 229/229/229 232/232/232 231/231/231
f 235/235/235 234/234/234 233/233/233
f 233/233/233 236/236/236 235/235/235
f 239/239/239 238/238/238 237/237/237
f 237/237/237 240/240/240 239/239/239
f 243/243/243 242/242/242 241/241/241
f 241/241/241 244/244/244 243/243/243
f 247/247/247 246/246/246 245/245/245
f 245/245/245 248/248/248 247/247/247
f 251/251/251 250/250/250 249/249/249
f 249/249/249 252/252/252 251/251/251
f 255/255/255 254/254/254 253/253/253
f 253/253/253 256/256/256 255/255/255
f 259/259/259 258/258/258 257/257/257
f 257/257/257 260/260/260 259/259/259
f 263/263/263 262/262/262 261/261/261
f 261/261/261 264/264/264 263/263/263
f 267/267/267 266/266/266 265/265/265
f 265/265/265 268/268/268 267/267/267
f 271/271/271 270/270/270 269/269/269
f 269/269/269 272/272/272 271/271/271
f 275/275/275 274/274/274 273/273/273
f 273/273/273 276/276/276 275/275/275
f 279/279/279 278/278/278 277/277/277
f 277/277/277 280/280/280 279/279/279
f 283/283/283 282/282/282 281/281/281
f 281/281/281 284/284/284 283/283/283
f 287/287/287 286/286/286 285/285/285
f 285/285/285 288/288/288 287/287/287
f 291/291/291 290/290/290 289/289/289
f 289/289/289 292/292/292 291/291/291
f 295/295/295 294/294/294 293/293/293
f 293/293/293 296/296/296 295/295/295
f 299/299/299 298/298/298 297/297/297
f 297/297/297 300/300/300 299/299/299
f 303/303/303 302/302/302 301/301/301
f 301/301/301 304/304/304 303/303/303
f 307/307/307 306/306/306 305/305/305
f 305/305/305 308/308/308 307/307/307
f 311/311/311 310/310/310 309/309/309
f 309/309/309 312/312/312 311/311/311
f 315/315/315 314/314/314 313/313/313
f 313/313/313 316/316/316 315/315/315
f 319/319/319 318/318/318 317/317/317
f 317/317/317 320/320/320 319/319/319
f 323/323/323 322/322/322 321/321/321
f 321/321/321 324/324/324 323/323/323
f 327/327/327 326/326/326 325/325/325
f 325/325/325 328/328/328 327/327/327
f 331/331/331 330/330/330 329/329/329
f 329/329/329 332/332/332 331/331/331
f 335/335/335 334/334/334 333/333/333
f 333/333/333 336/336/336 335/335/335
f 339/339/339 338/338/338 337/337/337
f 337/337/337 340/340/340 339/339/339
f 343/343/343 342/342/342 341/341/341
f 341/341/341 344/344/344 343/343/343
f 347/347/347 346/346/346 345/345/345
f 345/345/345 348/348/348 347/347/347
f 351/351/351 350/350/350 349/349/349
f 349/349/349 352/352/352 351/351/351
f 355/355/355 354/354/354 353/353/353
f 353/353/353 356/356/356 355/355/355
