g shengwang_younv-mesh
v -160 405 0
v -160 885 0
v -544 885 0
v -544 405 0
v -544 405 0
v -544 885 0
v -896 885 0
v -896 405 0
v -896 469 0
v -896 885 0
v -1248 885 0
v -1248 469 0
v -448 885 0
v -448 1205 0
v -736 1205 0
v -736 885 0
v -352 21 0
v -352 405 0
v -544 405 0
v -544 21 0
v -864 885 0
v -864 1237 0
v -1056 1237 0
v -1056 885 0
v -672 245 0
v -672 405 0
v -960 405 0
v -960 245 0
v -0 533 0
v -0 725 0
v -160 725 0
v -160 533 0
v -1024 341 0
v -1024 469 0
v -1248 469 0
v -1248 341 0
v -32 1109 0
v -32 1237 0
v -256 1237 0
v -256 1109 0
v -896 0 0
v -896 117 0
v -1088 117 0
v -1088 0 0
v -704 21 0
v -704 245 0
v -800 245 0
v -800 21 0
v -736 1013 0
v -736 1205 0
v -832 1205 0
v -832 1013 0
v -160 21 0
v -160 117 0
v -320 117 0
v -320 21 0
v -960 181 0
v -960 341 0
v -1056 341 0
v -1056 181 0
v -864 117 0
v -864 245 0
v -960 245 0
v -960 117 0
v -1280 821 0
v -1280 917 0
v -1399 917 0
v -1399 821 0
v -544 213 0
v -544 373 0
v -608 373 0
v -608 213 0
v -32 1237 0
v -32 1333 0
v -128 1333 0
v -128 1237 0
v -768 885 0
v -768 981 0
v -864 981 0
v -864 885 0
v -480 1205 0
v -480 1269 0
v -608 1269 0
v -608 1205 0
v -1248 725 0
v -1248 981 0
v -1280 981 0
v -1280 725 0
v -384 885 0
v -384 1013 0
v -448 1013 0
v -448 885 0
v -384 1013 0
v -384 1141 0
v -448 1141 0
v -448 1013 0
v -544 85 0
v -544 213 0
v -608 213 0
v -608 85 0
v -1248 501 0
v -1248 725 0
v -1280 725 0
v -1280 501 0
v -128 885 0
v -128 949 0
v -224 949 0
v -224 885 0
v -160 1045 0
v -160 1109 0
v -256 1109 0
v -256 1045 0
v -64 469 0
v -64 533 0
v -160 533 0
v -160 469 0
v -1088 21 0
v -1088 117 0
v -1152 117 0
v -1152 21 0
v -256 1077 0
v -256 1173 0
v -320 1173 0
v -320 1077 0
v -0 789 0
v -0 853 0
v -96 853 0
v -96 789 0
v -608 1205 0
v -608 1269 0
v -704 1269 0
v -704 1205 0
v -1184 885 0
v -1184 949 0
v -1248 949 0
v -1248 885 0
v -960 405 0
v -960 469 0
v -1024 469 0
v -1024 405 0
v -96 789 0
v -96 853 0
v -160 853 0
v -160 789 0
v -256 1013 0
v -256 1077 0
v -320 1077 0
v -320 1013 0
v -1056 981 0
v -1056 1109 0
v -1088 1109 0
v -1088 981 0
v -1056 1109 0
v -1056 1237 0
v -1088 1237 0
v -1088 1109 0
v -832 1045 0
v -832 1141 0
v -864 1141 0
v -864 1045 0
v -224 0 0
v -224 21 0
v -288 21 0
v -288 0 0
v -128 1237 0
v -128 1301 0
v -160 1301 0
v -160 1237 0
v -928 1237 0
v -928 1269 0
v -992 1269 0
v -992 1237 0
v -64 757 0
v -64 789 0
v -128 789 0
v -128 757 0
v -0 725 0
v -0 757 0
v -64 757 0
v -64 725 0
v -608 181 0
v -608 245 0
v -640 245 0
v -640 181 0
v -704 1205 0
v -704 1237 0
v -768 1237 0
v -768 1205 0
v -640 309 0
v -640 373 0
v -672 373 0
v -672 309 0
v -320 245 0
v -320 309 0
v -352 309 0
v -352 245 0
v -128 21 0
v -128 85 0
v -160 85 0
v -160 21 0
v -1280 917 0
v -1280 981 0
v -1312 981 0
v -1312 917 0
v -1120 885 0
v -1120 917 0
v -1184 917 0
v -1184 885 0
v -1280 789 0
v -1280 821 0
v -1344 821 0
v -1344 789 0
v -0 853 0
v -0 885 0
v -64 885 0
v -64 853 0
v -320 117 0
v -320 181 0
v -352 181 0
v -352 117 0
v -832 85 0
v -832 149 0
v -864 149 0
v -864 85 0
v -832 981 0
v -832 1045 0
v -864 1045 0
v -864 981 0
v -320 53 0
v -320 117 0
v -352 117 0
v -352 53 0
v -608 373 0
v -608 405 0
v -672 405 0
v -672 373 0
v -544 373 0
v -544 405 0
v -608 405 0
v -608 373 0
v -1120 309 0
v -1120 341 0
v -1184 341 0
v -1184 309 0
v -1056 309 0
v -1056 341 0
v -1120 341 0
v -1120 309 0
v -832 149 0
v -832 213 0
v -864 213 0
v -864 149 0
v -0 1141 0
v -0 1205 0
v -32 1205 0
v -32 1141 0
v -448 0 0
v -448 21 0
v -512 21 0
v -512 0 0
v -384 0 0
v -384 21 0
v -448 21 0
v -448 0 0
v -32 501 0
v -32 533 0
v -64 533 0
v -64 501 0
v -352 885 0
v -352 917 0
v -384 917 0
v -384 885 0
v -736 885 0
v -736 917 0
v -768 917 0
v -768 885 0
v -128 725 0
v -128 757 0
v -160 757 0
v -160 725 0
v -128 853 0
v -128 885 0
v -160 885 0
v -160 853 0
v -128 437 0
v -128 469 0
v -160 469 0
v -160 437 0
v -960 341 0
v -960 373 0
v -992 373 0
v -992 341 0
v -864 85 0
v -864 117 0
v -896 117 0
v -896 85 0
v -544 53 0
v -544 85 0
v -576 85 0
v -576 53 0
v -1152 53 0
v -1152 85 0
v -1184 85 0
v -1184 53 0
v -96 21 0
v -96 53 0
v -128 53 0
v -128 21 0
v -672 213 0
v -672 245 0
v -704 245 0
v -704 213 0
v -288 117 0
v -288 149 0
v -320 149 0
v -320 117 0
v -224 885 0
v -224 917 0
v -256 917 0
v -256 885 0
v -64 725 0
v -64 757 0
v -96 757 0
v -96 725 0
v -608 149 0
v -608 181 0
v -640 181 0
v -640 149 0
v -288 0 0
v -288 21 0
v -320 21 0
v -320 0 0
v -64 853 0
v -64 885 0
v -96 885 0
v -96 853 0
v -0 1109 0
v -0 1141 0
v -32 1141 0
v -32 1109 0
v -128 757 0
v -128 789 0
v -160 789 0
v -160 757 0
v -160 1237 0
v -160 1269 0
v -192 1269 0
v -192 1237 0
v -736 981 0
v -736 1013 0
v -768 1013 0
v -768 981 0
v -800 981 0
v -800 1013 0
v -832 1013 0
v -832 981 0
v -1216 949 0
v -1216 981 0
v -1248 981 0
v -1248 949 0
v -256 1173 0
v -256 1205 0
v -288 1205 0
v -288 1173 0
v -416 1141 0
v -416 1173 0
v -448 1173 0
v -448 1141 0
v -1088 1141 0
v -1088 1173 0
v -1120 1173 0
v -1120 1141 0
vt 0.00048828125 0.00141245127
vt 0.00048828125 0.67937851
vt 0.187988281 0.67937851
vt 0.187988281 0.00141245127
vt 0.188964844 0.00141245127
vt 0.188964844 0.67937851
vt 0.360839844 0.67937851
vt 0.360839844 0.00141245127
vt 0.361816406 0.00141245127
vt 0.361816406 0.588983059
vt 0.533691406 0.588983059
vt 0.533691406 0.00141245127
vt 0.534667969 0.00141245127
vt 0.534667969 0.453389823
vt 0.675292969 0.453389823
vt 0.675292969 0.00141245127
vt 0.676269531 0.00141245127
vt 0.676269531 0.543785334
vt 0.770019531 0.543785334
vt 0.770019531 0.00141245127
vt 0.770996094 0.00141245127
vt 0.770996094 0.498587549
vt 0.864746094 0.498587549
vt 0.864746094 0.00141245127
vt 0.534667969 0.456214666
vt 0.534667969 0.682203412
vt 0.675292969 0.682203412
vt 0.675292969 0.456214666
vt 0.865722656 0.00141245127
vt 0.865722656 0.272598863
vt 0.943847656 0.272598863
vt 0.943847656 0.00141245127
vt 0.865722656 0.275423706
vt 0.865722656 0.456214666
vt 0.975097656 0.456214666
vt 0.975097656 0.275423706
vt 0.865722656 0.459039569
vt 0.865722656 0.63983047
vt 0.975097656 0.63983047
vt 0.975097656 0.459039569
vt 0.770996094 0.501412392
vt 0.770996094 0.668079138
vt 0.864746094 0.668079138
vt 0.864746094 0.501412392
vt 0.676269531 0.546610177
vt 0.676269531 0.862994313
vt 0.723144531 0.862994313
vt 0.723144531 0.546610177
vt 0.361816406 0.591807902
vt 0.361816406 0.862994313
vt 0.408691406 0.862994313
vt 0.408691406 0.591807902
vt 0.409667969 0.591807902
vt 0.409667969 0.727401137
vt 0.487792969 0.727401137
vt 0.487792969 0.591807902
vt 0.865722656 0.642655373
vt 0.865722656 0.868644059
vt 0.912597656 0.868644059
vt 0.912597656 0.642655373
vt 0.913574219 0.642655373
vt 0.913574219 0.823446333
vt 0.960449219 0.823446333
vt 0.960449219 0.642655373
vt 0.770996094 0.670903921
vt 0.770996094 0.806497157
vt 0.829589844 0.806497157
vt 0.829589844 0.670903921
vt 0.724121094 0.546610177
vt 0.724121094 0.772598863
vt 0.755371094 0.772598863
vt 0.755371094 0.546610177
vt 0.00048828125 0.682203412
vt 0.00048828125 0.817796588
vt 0.0473632812 0.817796588
vt 0.0473632812 0.682203412
vt 0.0483398438 0.682203412
vt 0.0483398438 0.817796588
vt 0.0952148438 0.817796588
vt 0.0952148438 0.682203412
vt 0.0961914062 0.682203412
vt 0.0961914062 0.772598863
vt 0.158691406 0.772598863
vt 0.158691406 0.682203412
vt 0.976074219 0.00141245127
vt 0.976074219 0.362994373
vt 0.991699219 0.362994373
vt 0.991699219 0.00141245127
vt 0.488769531 0.591807902
vt 0.488769531 0.772598863
vt 0.520019531 0.772598863
vt 0.520019531 0.591807902
vt 0.961425781 0.642655373
vt 0.961425781 0.823446333
vt 0.992675781 0.823446333
vt 0.992675781 0.642655373
vt 0.830566406 0.670903921
vt 0.830566406 0.851694942
vt 0.861816406 0.851694942
vt 0.861816406 0.670903921
vt 0.159667969 0.682203412
vt 0.159667969 0.998587549
vt 0.175292969 0.998587549
vt 0.175292969 0.682203412
vt 0.176269531 0.682203412
vt 0.176269531 0.772598863
vt 0.223144531 0.772598863
vt 0.223144531 0.682203412
vt 0.224121094 0.682203412
vt 0.224121094 0.772598863
vt 0.270996094 0.772598863
vt 0.270996094 0.682203412
vt 0.271972656 0.682203412
vt 0.271972656 0.772598863
vt 0.318847656 0.772598863
vt 0.318847656 0.682203412
vt 0.319824219 0.682203412
vt 0.319824219 0.817796588
vt 0.351074219 0.817796588
vt 0.351074219 0.682203412
vt 0.534667969 0.685028255
vt 0.534667969 0.82062149
vt 0.565917969 0.82062149
vt 0.565917969 0.685028255
vt 0.566894531 0.685028255
vt 0.566894531 0.775423765
vt 0.613769531 0.775423765
vt 0.613769531 0.685028255
vt 0.614746094 0.685028255
vt 0.614746094 0.775423765
vt 0.661621094 0.775423765
vt 0.661621094 0.685028255
vt 0.409667969 0.73022598
vt 0.409667969 0.82062149
vt 0.440917969 0.82062149
vt 0.440917969 0.73022598
vt 0.441894531 0.73022598
vt 0.441894531 0.82062149
vt 0.473144531 0.82062149
vt 0.473144531 0.73022598
vt 0.0961914062 0.775423765
vt 0.0961914062 0.865819216
vt 0.127441406 0.865819216
vt 0.127441406 0.775423765
vt 0.176269531 0.775423765
vt 0.176269531 0.865819216
vt 0.207519531 0.865819216
vt 0.207519531 0.775423765
vt 0.128417969 0.775423765
vt 0.128417969 0.956214666
vt 0.144042969 0.956214666
vt 0.144042969 0.775423765
vt 0.208496094 0.775423765
vt 0.208496094 0.956214666
vt 0.224121094 0.956214666
vt 0.224121094 0.775423765
vt 0.225097656 0.775423765
vt 0.225097656 0.911016941
vt 0.240722656 0.911016941
vt 0.240722656 0.775423765
vt 0.241699219 0.775423765
vt 0.241699219 0.806497157
vt 0.272949219 0.806497157
vt 0.272949219 0.775423765
vt 0.273925781 0.775423765
vt 0.273925781 0.865819216
vt 0.289550781 0.865819216
vt 0.289550781 0.775423765
vt 0.488769531 0.775423765
vt 0.488769531 0.82062149
vt 0.520019531 0.82062149
vt 0.520019531 0.775423765
vt 0.724121094 0.775423765
vt 0.724121094 0.82062149
vt 0.755371094 0.82062149
vt 0.755371094 0.775423765
vt 0.566894531 0.778248608
vt 0.566894531 0.823446333
vt 0.598144531 0.823446333
vt 0.598144531 0.778248608
vt 0.290527344 0.775423765
vt 0.290527344 0.865819216
vt 0.306152344 0.865819216
vt 0.306152344 0.775423765
vt 0.599121094 0.778248608
vt 0.599121094 0.823446333
vt 0.630371094 0.823446333
vt 0.630371094 0.778248608
vt 0.631347656 0.778248608
vt 0.631347656 0.868644059
vt 0.646972656 0.868644059
vt 0.646972656 0.778248608
vt 0.647949219 0.778248608
vt 0.647949219 0.868644059
vt 0.663574219 0.868644059
vt 0.663574219 0.778248608
vt 0.241699219 0.809322
vt 0.241699219 0.89971751
vt 0.257324219 0.89971751
vt 0.257324219 0.809322
vt 0.770996094 0.809322
vt 0.770996094 0.89971751
vt 0.786621094 0.89971751
vt 0.786621094 0.809322
vt 0.787597656 0.809322
vt 0.787597656 0.854519784
vt 0.818847656 0.854519784
vt 0.818847656 0.809322
vt 0.00048828125 0.82062149
vt 0.00048828125 0.865819216
vt 0.0317382812 0.865819216
vt 0.0317382812 0.82062149
vt 0.0327148438 0.82062149
vt 0.0327148438 0.865819216
vt 0.0639648438 0.865819216
vt 0.0639648438 0.82062149
vt 0.0649414062 0.82062149
vt 0.0649414062 0.911016941
vt 0.0805664062 0.911016941
vt 0.0805664062 0.82062149
vt 0.319824219 0.82062149
vt 0.319824219 0.911016941
vt 0.335449219 0.911016941
vt 0.335449219 0.82062149
vt 0.336425781 0.82062149
vt 0.336425781 0.911016941
vt 0.352050781 0.911016941
vt 0.352050781 0.82062149
vt 0.409667969 0.823446333
vt 0.409667969 0.913841784
vt 0.425292969 0.913841784
vt 0.425292969 0.823446333
vt 0.426269531 0.823446333
vt 0.426269531 0.868644059
vt 0.457519531 0.868644059
vt 0.457519531 0.823446333
vt 0.458496094 0.823446333
vt 0.458496094 0.868644059
vt 0.489746094 0.868644059
vt 0.489746094 0.823446333
vt 0.490722656 0.823446333
vt 0.490722656 0.868644059
vt 0.521972656 0.868644059
vt 0.521972656 0.823446333
vt 0.534667969 0.823446333
vt 0.534667969 0.868644059
vt 0.565917969 0.868644059
vt 0.565917969 0.823446333
vt 0.724121094 0.823446333
vt 0.724121094 0.913841784
vt 0.739746094 0.913841784
vt 0.739746094 0.823446333
vt 0.740722656 0.823446333
vt 0.740722656 0.913841784
vt 0.756347656 0.913841784
vt 0.756347656 0.823446333
vt 0.566894531 0.826271176
vt 0.566894531 0.857344627
vt 0.598144531 0.857344627
vt 0.598144531 0.826271176
vt 0.599121094 0.826271176
vt 0.599121094 0.857344627
vt 0.630371094 0.857344627
vt 0.630371094 0.826271176
vt 0.913574219 0.826271176
vt 0.913574219 0.871468902
vt 0.929199219 0.871468902
vt 0.929199219 0.826271176
vt 0.930175781 0.826271176
vt 0.930175781 0.871468902
vt 0.945800781 0.871468902
vt 0.945800781 0.826271176
vt 0.946777344 0.826271176
vt 0.946777344 0.871468902
vt 0.962402344 0.871468902
vt 0.962402344 0.826271176
vt 0.963378906 0.826271176
vt 0.963378906 0.871468902
vt 0.979003906 0.871468902
vt 0.979003906 0.826271176
vt 0.979980469 0.826271176
vt 0.979980469 0.871468902
vt 0.995605469 0.871468902
vt 0.995605469 0.826271176
vt 0.830566406 0.854519784
vt 0.830566406 0.89971751
vt 0.846191406 0.89971751
vt 0.846191406 0.854519784
vt 0.847167969 0.854519784
vt 0.847167969 0.89971751
vt 0.862792969 0.89971751
vt 0.862792969 0.854519784
vt 0.787597656 0.857344627
vt 0.787597656 0.902542353
vt 0.803222656 0.902542353
vt 0.803222656 0.857344627
vt 0.804199219 0.857344627
vt 0.804199219 0.902542353
vt 0.819824219 0.902542353
vt 0.819824219 0.857344627
vt 0.566894531 0.86016947
vt 0.566894531 0.905367255
vt 0.582519531 0.905367255
vt 0.582519531 0.86016947
vt 0.583496094 0.86016947
vt 0.583496094 0.905367255
vt 0.599121094 0.905367255
vt 0.599121094 0.86016947
vt 0.600097656 0.86016947
vt 0.600097656 0.905367255
vt 0.615722656 0.905367255
vt 0.615722656 0.86016947
vt 0.361816406 0.865819216
vt 0.361816406 0.911016941
vt 0.377441406 0.911016941
vt 0.377441406 0.865819216
vt 0.378417969 0.865819216
vt 0.378417969 0.911016941
vt 0.394042969 0.911016941
vt 0.394042969 0.865819216
vt 0.676269531 0.865819216
vt 0.676269531 0.911016941
vt 0.691894531 0.911016941
vt 0.691894531 0.865819216
vt 0.692871094 0.865819216
vt 0.692871094 0.911016941
vt 0.708496094 0.911016941
vt 0.708496094 0.865819216
vt 0.00048828125 0.868644059
vt 0.00048828125 0.89971751
vt 0.0161132812 0.89971751
vt 0.0161132812 0.868644059
vt 0.0170898438 0.868644059
vt 0.0170898438 0.913841784
vt 0.0327148438 0.913841784
vt 0.0327148438 0.868644059
vt 0.0336914062 0.868644059
vt 0.0336914062 0.913841784
vt 0.0493164062 0.913841784
vt 0.0493164062 0.868644059
vt 0.0961914062 0.868644059
vt 0.0961914062 0.913841784
vt 0.111816406 0.913841784
vt 0.111816406 0.868644059
vt 0.176269531 0.868644059
vt 0.176269531 0.913841784
vt 0.191894531 0.913841784
vt 0.191894531 0.868644059
vt 0.273925781 0.868644059
vt 0.273925781 0.913841784
vt 0.289550781 0.913841784
vt 0.289550781 0.868644059
vt 0.290527344 0.868644059
vt 0.290527344 0.913841784
vt 0.306152344 0.913841784
vt 0.306152344 0.868644059
vt 0.426269531 0.871468902
vt 0.426269531 0.916666687
vt 0.441894531 0.916666687
vt 0.441894531 0.871468902
vt 0.442871094 0.871468902
vt 0.442871094 0.916666687
vt 0.458496094 0.916666687
vt 0.458496094 0.871468902
vt 0.459472656 0.871468902
vt 0.459472656 0.916666687
vt 0.475097656 0.916666687
vt 0.475097656 0.871468902
vt 0.476074219 0.871468902
vt 0.476074219 0.916666687
vt 0.491699219 0.916666687
vt 0.491699219 0.871468902
g shengwang_younv-mesh_0
f 3/3/3 2/2/2 1/1/1
f 1/1/1 4/4/4 3/3/3
f 7/7/7 6/6/6 5/5/5
f 5/5/5 8/8/8 7/7/7
f 11/11/11 10/10/10 9/9/9
f 9/9/9 12/12/12 11/11/11
f 15/15/15 14/14/14 13/13/13
f 13/13/13 16/16/16 15/15/15
f 19/19/19 18/18/18 17/17/17
f 17/17/17 20/20/20 19/19/19
f 23/23/23 22/22/22 21/21/21
f 21/21/21 24/24/24 23/23/23
f 27/27/27 26/26/26 25/25/25
f 25/25/25 28/28/28 27/27/27
f 31/31/31 30/30/30 29/29/29
f 29/29/29 32/32/32 31/31/31
f 35/35/35 34/34/34 33/33/33
f 33/33/33 36/36/36 35/35/35
f 39/39/39 38/38/38 37/37/37
f 37/37/37 40/40/40 39/39/39
f 43/43/43 42/42/42 41/41/41
f 41/41/41 44/44/44 43/43/43
f 47/47/47 46/46/46 45/45/45
f 45/45/45 48/48/48 47/47/47
f 51/51/51 50/50/50 49/49/49
f 49/49/49 52/52/52 51/51/51
f 55/55/55 54/54/54 53/53/53
f 53/53/53 56/56/56 55/55/55
f 59/59/59 58/58/58 57/57/57
f 57/57/57 60/60/60 59/59/59
f 63/63/63 62/62/62 61/61/61
f 61/61/61 64/64/64 63/63/63
f 67/67/67 66/66/66 65/65/65
f 65/65/65 68/68/68 67/67/67
f 71/71/71 70/70/70 69/69/69
f 69/69/69 72/72/72 71/71/71
f 75/75/75 74/74/74 73/73/73
f 73/73/73 76/76/76 75/75/75
f 79/79/79 78/78/78 77/77/77
f 77/77/77 80/80/80 79/79/79
f 83/83/83 82/82/82 81/81/81
f 81/81/81 84/84/84 83/83/83
f 87/87/87 86/86/86 85/85/85
f 85/85/85 88/88/88 87/87/87
f 91/91/91 90/90/90 89/89/89
f 89/89/89 92/92/92 91/91/91
f 95/95/95 94/94/94 93/93/93
f 93/93/93 96/96/96 95/95/95
f 99/99/99 98/98/98 97/97/97
f 97/97/97 100/100/100 99/99/99
f 103/103/103 102/102/102 101/101/101
f 101/101/101 104/104/104 103/103/103
f 107/107/107 106/106/106 105/105/105
f 105/105/105 108/108/108 107/107/107
f 111/111/111 110/110/110 109/109/109
f 109/109/109 112/112/112 111/111/111
f 115/115/115 114/114/114 113/113/113
f 113/113/113 116/116/116 115/115/115
f 119/119/119 118/118/118 117/117/117
f 117/117/117 120/120/120 119/119/119
f 123/123/123 122/122/122 121/121/121
f 121/121/121 124/124/124 123/123/123
f 127/127/127 126/126/126 125/125/125
f 125/125/125 128/128/128 127/127/127
f 131/131/131 130/130/130 129/129/129
f 129/129/129 132/132/132 131/131/131
f 135/135/135 134/134/134 133/133/133
f 133/133/133 136/136/136 135/135/135
f 139/139/139 138/138/138 137/137/137
f 137/137/137 140/140/140 139/139/139
f 143/143/143 142/142/142 141/141/141
f 141/141/141 144/144/144 143/143/143
f 147/147/147 146/146/146 145/145/145
f 145/145/145 148/148/148 147/147/147
f 151/151/151 150/150/150 149/149/149
f 149/149/149 152/152/152 151/151/151
f 155/155/155 154/154/154 153/153/153
f 153/153/153 156/156/156 155/155/155
f 159/159/159 158/158/158 157/157/157
f 157/157/157 160/160/160 159/159/159
f 163/163/163 162/162/162 161/161/161
f 161/161/161 164/164/164 163/163/163
f 167/167/167 166/166/166 165/165/165
f 165/165/165 168/168/168 167/167/167
f 171/171/171 170/170/170 169/169/169
f 169/169/169 172/172/172 171/171/171
f 175/175/175 174/174/174 173/173/173
f 173/173/173 176/176/176 175/175/175
f 179/179/179 178/178/178 177/177/177
f 177/177/177 180/180/180 179/179/179
f 183/183/183 182/182/182 181/181/181
f 181/181/181 184/184/184 183/183/183
f 187/187/187 186/186/186 185/185/185
f 185/185/185 188/188/188 187/187/187
f 191/191/191 190/190/190 189/189/189
f 189/189/189 192/192/192 191/191/191
f 195/195/195 194/194/194 193/193/193
f 193/193/193 196/196/196 195/195/195
f 199/199/199 198/198/198 197/197/197
f 197/197/197 200/200/200 199/199/199
f 203/203/203 202/202/202 201/201/201
f 201/201/201 204/204/204 203/203/203
f 207/207/207 206/206/206 205/205/205
f 205/205/205 208/208/208 207/207/207
f 211/211/211 210/210/210 209/209/209
f 209/209/209 212/212/212 211/211/211
f 215/215/215 214/214/214 213/213/213
f 213/213/213 216/216/216 215/215/215
f 219/219/219 218/218/218 217/217/217
f 217/217/217 220/220/220 219/219/219
f 223/223/223 222/222/222 221/221/221
f 221/221/221 224/224/224 223/223/223
f 227/227/227 226/226/226 225/225/225
f 225/225/225 228/228/228 227/227/227
f 231/231/231 230/230/230 229/229/229
f 229/229/229 232/232/232 231/231/231
f 235/235/235 234/234/234 233/233/233
f 233/233/233 236/236/236 235/235/235
f 239/239/239 238/238/238 237/237/237
f 237/237/237 240/240/240 239/239/239
f 243/243/243 242/242/242 241/241/241
f 241/241/241 244/244/244 243/243/243
f 247/247/247 246/246/246 245/245/245
f 245/245/245 248/248/248 247/247/247
f 251/251/251 250/250/250 249/249/249
f 249/249/249 252/252/252 251/251/251
f 255/255/255 254/254/254 253/253/253
f 253/253/253 256/256/256 255/255/255
f 259/259/259 258/258/258 257/257/257
f 257/257/257 260/260/260 259/259/259
f 263/263/263 262/262/262 261/261/261
f 261/261/261 264/264/264 263/263/263
f 267/267/267 266/266/266 265/265/265
f 265/265/265 268/268/268 267/267/267
f 271/271/271 270/270/270 269/269/269
f 269/269/269 272/272/272 271/271/271
f 275/275/275 274/274/274 273/273/273
f 273/273/273 276/276/276 275/275/275
f 279/279/279 278/278/278 277/277/277
f 277/277/277 280/280/280 279/279/279
f 283/283/283 282/282/282 281/281/281
f 281/281/281 284/284/284 283/283/283
f 287/287/287 286/286/286 285/285/285
f 285/285/285 288/288/288 287/287/287
f 291/291/291 290/290/290 289/289/289
f 289/289/289 292/292/292 291/291/291
f 295/295/295 294/294/294 293/293/293
f 293/293/293 296/296/296 295/295/295
f 299/299/299 298/298/298 297/297/297
f 297/297/297 300/300/300 299/299/299
f 303/303/303 302/302/302 301/301/301
f 301/301/301 304/304/304 303/303/303
f 307/307/307 306/306/306 305/305/305
f 305/305/305 308/308/308 307/307/307
f 311/311/311 310/310/310 309/309/309
f 309/309/309 312/312/312 311/311/311
f 315/315/315 314/314/314 313/313/313
f 313/313/313 316/316/316 315/315/315
f 319/319/319 318/318/318 317/317/317
f 317/317/317 320/320/320 319/319/319
f 323/323/323 322/322/322 321/321/321
f 321/321/321 324/324/324 323/323/323
f 327/327/327 326/326/326 325/325/325
f 325/325/325 328/328/328 327/327/327
f 331/331/331 330/330/330 329/329/329
f 329/329/329 332/332/332 331/331/331
f 335/335/335 334/334/334 333/333/333
f 333/333/333 336/336/336 335/335/335
f 339/339/339 338/338/338 337/337/337
f 337/337/337 340/340/340 339/339/339
f 343/343/343 342/342/342 341/341/341
f 341/341/341 344/344/344 343/343/343
f 347/347/347 346/346/346 345/345/345
f 345/345/345 348/348/348 347/347/347
f 351/351/351 350/350/350 349/349/349
f 349/349/349 352/352/352 351/351/351
f 355/355/355 354/354/354 353/353/353
f 353/353/353 356/356/356 355/355/355
f 359/359/359 358/358/358 357/357/357
f 357/357/357 360/360/360 359/359/359
f 363/363/363 362/362/362 361/361/361
f 361/361/361 364/364/364 363/363/363
f 367/367/367 366/366/366 365/365/365
f 365/365/365 368/368/368 367/367/367
f 371/371/371 370/370/370 369/369/369
f 369/369/369 372/372/372 371/371/371
