g digaiteluyin_2_rw-mesh
v -704 361 0
v -704 905 0
v -1248 905 0
v -1248 361 0
v -1248 361 0
v -1248 905 0
v -1760 905 0
v -1760 361 0
v -768 905 0
v -768 1321 0
v -1152 1321 0
v -1152 905 0
v -384 201 0
v -384 297 0
v -928 297 0
v -928 201 0
v -928 201 0
v -928 297 0
v -1440 297 0
v -1440 201 0
v -1024 297 0
v -1024 361 0
v -1632 361 0
v -1632 297 0
v -416 297 0
v -416 361 0
v -1024 361 0
v -1024 297 0
v -544 361 0
v -544 553 0
v -704 553 0
v -704 361 0
v -1152 73 0
v -1152 201 0
v -1376 201 0
v -1376 73 0
v -160 73 0
v -160 201 0
v -384 201 0
v -384 73 0
v -1760 553 0
v -1760 745 0
v -1888 745 0
v -1888 553 0
v -384 73 0
v -384 201 0
v -576 201 0
v -576 73 0
v -1760 361 0
v -1760 553 0
v -1888 553 0
v -1888 361 0
v -864 1321 0
v -864 1417 0
v -1088 1417 0
v -1088 1321 0
v -1888 649 0
v -1888 841 0
v -1984 841 0
v -1984 649 0
v -1888 457 0
v -1888 649 0
v -1984 649 0
v -1984 457 0
v -576 105 0
v -576 201 0
v -736 201 0
v -736 105 0
v -1536 905 0
v -1536 1001 0
v -1664 1001 0
v -1664 905 0
v -1408 905 0
v -1408 1001 0
v -1536 1001 0
v -1536 905 0
v -1152 905 0
v -1152 1065 0
v -1216 1065 0
v -1216 905 0
v -1152 1065 0
v -1152 1225 0
v -1216 1225 0
v -1216 1065 0
v -704 905 0
v -704 1033 0
v -768 1033 0
v -768 905 0
v -1216 1129 0
v -1216 1193 0
v -1344 1193 0
v -1344 1129 0
v -1216 905 0
v -1216 1033 0
v -1280 1033 0
v -1280 905 0
v -1984 617 0
v -1984 745 0
v -2047 745 0
v -2047 617 0
v -224 0 0
v -224 41 0
v -352 41 0
v -352 0 0
v -544 1097 0
v -544 1161 0
v -672 1161 0
v -672 1097 0
v -800 137 0
v -800 201 0
v -928 201 0
v -928 137 0
v -928 137 0
v -928 201 0
v -1056 201 0
v -1056 137 0
v -480 361 0
v -480 457 0
v -544 457 0
v -544 361 0
v -96 41 0
v -96 137 0
v -160 137 0
v -160 41 0
v -1760 745 0
v -1760 841 0
v -1824 841 0
v -1824 745 0
v -832 73 0
v -832 137 0
v -928 137 0
v -928 73 0
v -640 617 0
v -640 713 0
v -704 713 0
v -704 617 0
v -736 73 0
v -736 137 0
v -832 137 0
v -832 73 0
v -672 1097 0
v -672 1161 0
v -768 1161 0
v -768 1097 0
v -1088 73 0
v -1088 137 0
v -1152 137 0
v -1152 73 0
v -1440 201 0
v -1440 265 0
v -1504 265 0
v -1504 201 0
v -352 9 0
v -352 73 0
v -416 73 0
v -416 9 0
v -0 9 0
v -0 73 0
v -64 73 0
v -64 9 0
v -704 1161 0
v -704 1225 0
v -768 1225 0
v -768 1161 0
v -640 553 0
v -640 617 0
v -704 617 0
v -704 553 0
v -1440 1001 0
v -1440 1033 0
v -1536 1033 0
v -1536 1001 0
v -1824 745 0
v -1824 809 0
v -1856 809 0
v -1856 745 0
v -1984 745 0
v -1984 809 0
v -2016 809 0
v -2016 745 0
v -512 457 0
v -512 521 0
v -544 521 0
v -544 457 0
v -672 713 0
v -672 777 0
v -704 777 0
v -704 713 0
v -1664 905 0
v -1664 969 0
v -1696 969 0
v -1696 905 0
v -1376 905 0
v -1376 969 0
v -1408 969 0
v -1408 905 0
v -1888 841 0
v -1888 873 0
v -1952 873 0
v -1952 841 0
v -1280 905 0
v -1280 969 0
v -1312 969 0
v -1312 905 0
v -1888 393 0
v -1888 457 0
v -1920 457 0
v -1920 393 0
v -1216 41 0
v -1216 73 0
v -1280 73 0
v -1280 41 0
v -736 169 0
v -736 201 0
v -800 201 0
v -800 169 0
v -64 41 0
v -64 105 0
v -96 105 0
v -96 41 0
v -1376 105 0
v -1376 169 0
v -1408 169 0
v -1408 105 0
v -352 201 0
v -352 265 0
v -384 265 0
v -384 201 0
v -448 361 0
v -448 425 0
v -480 425 0
v -480 361 0
v -1728 201 0
v -1728 265 0
v -1760 265 0
v -1760 201 0
v -1504 233 0
v -1504 265 0
v -1568 265 0
v -1568 233 0
v -928 105 0
v -928 137 0
v -992 137 0
v -992 105 0
v -192 41 0
v -192 73 0
v -256 73 0
v -256 41 0
v -768 41 0
v -768 73 0
v -832 73 0
v -832 41 0
v -608 585 0
v -608 649 0
v -640 649 0
v -640 585 0
v -1536 1001 0
v -1536 1033 0
v -1600 1033 0
v -1600 1001 0
v -1472 265 0
v -1472 297 0
v -1536 297 0
v -1536 265 0
v -1536 265 0
v -1536 297 0
v -1600 297 0
v -1600 265 0
v -1088 1321 0
v -1088 1385 0
v -1120 1385 0
v -1120 1321 0
v -1152 1225 0
v -1152 1289 0
v -1184 1289 0
v -1184 1225 0
v -640 1161 0
v -640 1193 0
v -704 1193 0
v -704 1161 0
v -1216 1033 0
v -1216 1097 0
v -1248 1097 0
v -1248 1033 0
v -736 1033 0
v -736 1097 0
v -768 1097 0
v -768 1033 0
v -832 1321 0
v -832 1385 0
v -864 1385 0
v -864 1321 0
v -384 297 0
v -384 329 0
v -416 329 0
v -416 297 0
v -2016 265 0
v -2016 297 0
v -2047 297 0
v -2047 265 0
v -1984 585 0
v -1984 617 0
v -2016 617 0
v -2016 585 0
v -576 553 0
v -576 585 0
v -608 585 0
v -608 553 0
v -1632 329 0
v -1632 361 0
v -1664 361 0
v -1664 329 0
v -1760 233 0
v -1760 265 0
v -1792 265 0
v -1792 233 0
v -704 73 0
v -704 105 0
v -736 105 0
v -736 73 0
v -1120 137 0
v -1120 169 0
v -1152 169 0
v -1152 137 0
v -416 41 0
v -416 73 0
v -448 73 0
v -448 41 0
v -320 201 0
v -320 233 0
v -352 233 0
v -352 201 0
v -128 137 0
v -128 169 0
v -160 169 0
v -160 137 0
v -1760 841 0
v -1760 873 0
v -1792 873 0
v -1792 841 0
v -832 41 0
v -832 73 0
v -864 73 0
v -864 41 0
v -800 1321 0
v -800 1353 0
v -832 1353 0
v -832 1321 0
v -256 41 0
v -256 73 0
v -288 73 0
v -288 41 0
v -608 553 0
v -608 585 0
v -640 585 0
v -640 553 0
v -992 105 0
v -992 137 0
v -1024 137 0
v -1024 105 0
v -1120 1321 0
v -1120 1353 0
v -1152 1353 0
v -1152 1321 0
v -1312 905 0
v -1312 937 0
v -1344 937 0
v -1344 905 0
v -1696 905 0
v -1696 937 0
v -1728 937 0
v -1728 905 0
v -512 1097 0
v -512 1129 0
v -544 1129 0
v -544 1097 0
v -736 1225 0
v -736 1257 0
v -768 1257 0
v -768 1225 0
v -1344 1129 0
v -1344 1161 0
v -1376 1161 0
v -1376 1129 0
vt 0.00048828125 0.00127875805
vt 0.00048828125 0.696930945
vt 0.266113281 0.696930945
vt 0.266113281 0.00127875805
vt 0.267089844 0.00127875805
vt 0.267089844 0.696930945
vt 0.517089844 0.696930945
vt 0.517089844 0.00127875805
vt 0.518066406 0.00127875805
vt 0.518066406 0.533248067
vt 0.705566406 0.533248067
vt 0.705566406 0.00127875805
vt 0.706542969 0.00127875805
vt 0.706542969 0.124040902
vt 0.972167969 0.124040902
vt 0.972167969 0.00127875805
vt 0.706542969 0.126598477
vt 0.706542969 0.249360621
vt 0.956542969 0.249360621
vt 0.956542969 0.126598477
vt 0.518066406 0.535805583
vt 0.518066406 0.617647052
vt 0.814941406 0.617647052
vt 0.814941406 0.535805583
vt 0.518066406 0.620204568
vt 0.518066406 0.702046037
vt 0.814941406 0.702046037
vt 0.814941406 0.620204568
vt 0.815917969 0.251918137
vt 0.815917969 0.497442484
vt 0.894042969 0.497442484
vt 0.894042969 0.251918137
vt 0.815917969 0.5
vt 0.815917969 0.663682878
vt 0.925292969 0.663682878
vt 0.925292969 0.5
vt 0.815917969 0.666240454
vt 0.815917969 0.829923272
vt 0.925292969 0.829923272
vt 0.925292969 0.666240454
vt 0.926269531 0.251918137
vt 0.926269531 0.497442484
vt 0.988769531 0.497442484
vt 0.988769531 0.251918137
vt 0.00048828125 0.699488521
vt 0.00048828125 0.863171339
vt 0.0942382812 0.863171339
vt 0.0942382812 0.699488521
vt 0.926269531 0.5
vt 0.926269531 0.745524287
vt 0.988769531 0.745524287
vt 0.988769531 0.5
vt 0.0952148438 0.699488521
vt 0.0952148438 0.822250605
vt 0.204589844 0.822250605
vt 0.204589844 0.699488521
vt 0.205566406 0.699488521
vt 0.205566406 0.945012808
vt 0.252441406 0.945012808
vt 0.252441406 0.699488521
vt 0.253417969 0.699488521
vt 0.253417969 0.945012808
vt 0.300292969 0.945012808
vt 0.300292969 0.699488521
vt 0.301269531 0.699488521
vt 0.301269531 0.822250605
vt 0.379394531 0.822250605
vt 0.379394531 0.699488521
vt 0.380371094 0.699488521
vt 0.380371094 0.822250605
vt 0.442871094 0.822250605
vt 0.442871094 0.699488521
vt 0.443847656 0.699488521
vt 0.443847656 0.822250605
vt 0.506347656 0.822250605
vt 0.506347656 0.699488521
vt 0.518066406 0.704603553
vt 0.518066406 0.909207165
vt 0.549316406 0.909207165
vt 0.549316406 0.704603553
vt 0.550292969 0.704603553
vt 0.550292969 0.909207165
vt 0.581542969 0.909207165
vt 0.581542969 0.704603553
vt 0.582519531 0.704603553
vt 0.582519531 0.868286431
vt 0.613769531 0.868286431
vt 0.613769531 0.704603553
vt 0.614746094 0.704603553
vt 0.614746094 0.786445022
vt 0.677246094 0.786445022
vt 0.677246094 0.704603553
vt 0.678222656 0.704603553
vt 0.678222656 0.868286431
vt 0.709472656 0.868286431
vt 0.709472656 0.704603553
vt 0.710449219 0.704603553
vt 0.710449219 0.868286431
vt 0.741699219 0.868286431
vt 0.741699219 0.704603553
vt 0.742675781 0.704603553
vt 0.742675781 0.758311987
vt 0.805175781 0.758311987
vt 0.805175781 0.704603553
vt 0.926269531 0.748081803
vt 0.926269531 0.829923272
vt 0.988769531 0.829923272
vt 0.988769531 0.748081803
vt 0.742675781 0.760869563
vt 0.742675781 0.842710972
vt 0.805175781 0.842710972
vt 0.805175781 0.760869563
vt 0.614746094 0.789002538
vt 0.614746094 0.870844007
vt 0.677246094 0.870844007
vt 0.677246094 0.789002538
vt 0.0952148438 0.82480818
vt 0.0952148438 0.947570324
vt 0.126464844 0.947570324
vt 0.126464844 0.82480818
vt 0.127441406 0.82480818
vt 0.127441406 0.947570324
vt 0.158691406 0.947570324
vt 0.158691406 0.82480818
vt 0.159667969 0.82480818
vt 0.159667969 0.947570324
vt 0.190917969 0.947570324
vt 0.190917969 0.82480818
vt 0.301269531 0.82480818
vt 0.301269531 0.90664959
vt 0.348144531 0.90664959
vt 0.348144531 0.82480818
vt 0.349121094 0.82480818
vt 0.349121094 0.947570324
vt 0.380371094 0.947570324
vt 0.380371094 0.82480818
vt 0.381347656 0.82480818
vt 0.381347656 0.90664959
vt 0.428222656 0.90664959
vt 0.428222656 0.82480818
vt 0.429199219 0.82480818
vt 0.429199219 0.90664959
vt 0.476074219 0.90664959
vt 0.476074219 0.82480818
vt 0.477050781 0.82480818
vt 0.477050781 0.90664959
vt 0.508300781 0.90664959
vt 0.508300781 0.82480818
vt 0.815917969 0.832480788
vt 0.815917969 0.914322257
vt 0.847167969 0.914322257
vt 0.847167969 0.832480788
vt 0.848144531 0.832480788
vt 0.848144531 0.914322257
vt 0.879394531 0.914322257
vt 0.879394531 0.832480788
vt 0.880371094 0.832480788
vt 0.880371094 0.914322257
vt 0.911621094 0.914322257
vt 0.911621094 0.832480788
vt 0.912597656 0.832480788
vt 0.912597656 0.914322257
vt 0.943847656 0.914322257
vt 0.943847656 0.832480788
vt 0.944824219 0.832480788
vt 0.944824219 0.914322257
vt 0.976074219 0.914322257
vt 0.976074219 0.832480788
vt 0.742675781 0.845268548
vt 0.742675781 0.886189282
vt 0.789550781 0.886189282
vt 0.789550781 0.845268548
vt 0.977050781 0.832480788
vt 0.977050781 0.914322257
vt 0.992675781 0.914322257
vt 0.992675781 0.832480788
vt 0.790527344 0.845268548
vt 0.790527344 0.927109957
vt 0.806152344 0.927109957
vt 0.806152344 0.845268548
vt 0.00048828125 0.865728915
vt 0.00048828125 0.947570324
vt 0.0161132812 0.947570324
vt 0.0161132812 0.865728915
vt 0.0170898438 0.865728915
vt 0.0170898438 0.947570324
vt 0.0327148438 0.947570324
vt 0.0327148438 0.865728915
vt 0.0336914062 0.865728915
vt 0.0336914062 0.947570324
vt 0.0493164062 0.947570324
vt 0.0493164062 0.865728915
vt 0.0502929688 0.865728915
vt 0.0502929688 0.947570324
vt 0.0659179688 0.947570324
vt 0.0659179688 0.865728915
vt 0.582519531 0.870844007
vt 0.582519531 0.911764681
vt 0.613769531 0.911764681
vt 0.613769531 0.870844007
vt 0.0668945312 0.865728915
vt 0.0668945312 0.947570324
vt 0.0825195312 0.947570324
vt 0.0825195312 0.865728915
vt 0.678222656 0.870844007
vt 0.678222656 0.952685416
vt 0.693847656 0.952685416
vt 0.693847656 0.870844007
vt 0.694824219 0.870844007
vt 0.694824219 0.911764681
vt 0.726074219 0.911764681
vt 0.726074219 0.870844007
vt 0.614746094 0.873401523
vt 0.614746094 0.914322257
vt 0.645996094 0.914322257
vt 0.645996094 0.873401523
vt 0.646972656 0.873401523
vt 0.646972656 0.955242991
vt 0.662597656 0.955242991
vt 0.662597656 0.873401523
vt 0.742675781 0.888746798
vt 0.742675781 0.970588207
vt 0.758300781 0.970588207
vt 0.758300781 0.888746798
vt 0.759277344 0.888746798
vt 0.759277344 0.970588207
vt 0.774902344 0.970588207
vt 0.774902344 0.888746798
vt 0.301269531 0.909207165
vt 0.301269531 0.991048574
vt 0.316894531 0.991048574
vt 0.316894531 0.909207165
vt 0.317871094 0.909207165
vt 0.317871094 0.991048574
vt 0.333496094 0.991048574
vt 0.333496094 0.909207165
vt 0.381347656 0.909207165
vt 0.381347656 0.9501279
vt 0.412597656 0.9501279
vt 0.412597656 0.909207165
vt 0.413574219 0.909207165
vt 0.413574219 0.9501279
vt 0.444824219 0.9501279
vt 0.444824219 0.909207165
vt 0.445800781 0.909207165
vt 0.445800781 0.9501279
vt 0.477050781 0.9501279
vt 0.477050781 0.909207165
vt 0.478027344 0.909207165
vt 0.478027344 0.9501279
vt 0.509277344 0.9501279
vt 0.509277344 0.909207165
vt 0.518066406 0.911764681
vt 0.518066406 0.99360615
vt 0.533691406 0.99360615
vt 0.533691406 0.911764681
vt 0.534667969 0.911764681
vt 0.534667969 0.952685416
vt 0.565917969 0.952685416
vt 0.565917969 0.911764681
vt 0.582519531 0.914322257
vt 0.582519531 0.955242991
vt 0.613769531 0.955242991
vt 0.613769531 0.914322257
vt 0.694824219 0.914322257
vt 0.694824219 0.955242991
vt 0.726074219 0.955242991
vt 0.726074219 0.914322257
vt 0.614746094 0.916879773
vt 0.614746094 0.998721242
vt 0.630371094 0.998721242
vt 0.630371094 0.916879773
vt 0.815917969 0.916879773
vt 0.815917969 0.998721242
vt 0.831542969 0.998721242
vt 0.831542969 0.916879773
vt 0.832519531 0.916879773
vt 0.832519531 0.957800508
vt 0.863769531 0.957800508
vt 0.863769531 0.916879773
vt 0.864746094 0.916879773
vt 0.864746094 0.998721242
vt 0.880371094 0.998721242
vt 0.880371094 0.916879773
vt 0.881347656 0.916879773
vt 0.881347656 0.998721242
vt 0.896972656 0.998721242
vt 0.896972656 0.916879773
vt 0.897949219 0.916879773
vt 0.897949219 0.998721242
vt 0.913574219 0.998721242
vt 0.913574219 0.916879773
vt 0.914550781 0.916879773
vt 0.914550781 0.957800508
vt 0.930175781 0.957800508
vt 0.930175781 0.916879773
vt 0.931152344 0.916879773
vt 0.931152344 0.957800508
vt 0.946777344 0.957800508
vt 0.946777344 0.916879773
vt 0.947753906 0.916879773
vt 0.947753906 0.957800508
vt 0.963378906 0.957800508
vt 0.963378906 0.916879773
vt 0.964355469 0.916879773
vt 0.964355469 0.957800508
vt 0.979980469 0.957800508
vt 0.979980469 0.916879773
vt 0.980957031 0.916879773
vt 0.980957031 0.957800508
vt 0.996582031 0.957800508
vt 0.996582031 0.916879773
vt 0.790527344 0.929667532
vt 0.790527344 0.970588207
vt 0.806152344 0.970588207
vt 0.806152344 0.929667532
vt 0.205566406 0.947570324
vt 0.205566406 0.988491058
vt 0.221191406 0.988491058
vt 0.221191406 0.947570324
vt 0.222167969 0.947570324
vt 0.222167969 0.988491058
vt 0.237792969 0.988491058
vt 0.237792969 0.947570324
vt 0.238769531 0.947570324
vt 0.238769531 0.988491058
vt 0.254394531 0.988491058
vt 0.254394531 0.947570324
vt 0.255371094 0.947570324
vt 0.255371094 0.988491058
vt 0.270996094 0.988491058
vt 0.270996094 0.947570324
vt 0.271972656 0.947570324
vt 0.271972656 0.988491058
vt 0.287597656 0.988491058
vt 0.287597656 0.947570324
vt 0.00048828125 0.9501279
vt 0.00048828125 0.991048574
vt 0.0161132812 0.991048574
vt 0.0161132812 0.9501279
vt 0.0170898438 0.9501279
vt 0.0170898438 0.991048574
vt 0.0327148438 0.991048574
vt 0.0327148438 0.9501279
vt 0.0336914062 0.9501279
vt 0.0336914062 0.991048574
vt 0.0493164062 0.991048574
vt 0.0493164062 0.9501279
vt 0.0502929688 0.9501279
vt 0.0502929688 0.991048574
vt 0.0659179688 0.991048574
vt 0.0659179688 0.9501279
vt 0.0668945312 0.9501279
vt 0.0668945312 0.991048574
vt 0.0825195312 0.991048574
vt 0.0825195312 0.9501279
vt 0.0952148438 0.9501279
vt 0.0952148438 0.991048574
vt 0.110839844 0.991048574
vt 0.110839844 0.9501279
vt 0.111816406 0.9501279
vt 0.111816406 0.991048574
vt 0.127441406 0.991048574
vt 0.127441406 0.9501279
vt 0.128417969 0.9501279
vt 0.128417969 0.991048574
vt 0.144042969 0.991048574
vt 0.144042969 0.9501279
vt 0.145019531 0.9501279
vt 0.145019531 0.991048574
vt 0.160644531 0.991048574
vt 0.160644531 0.9501279
vt 0.161621094 0.9501279
vt 0.161621094 0.991048574
vt 0.177246094 0.991048574
vt 0.177246094 0.9501279
vt 0.178222656 0.9501279
vt 0.178222656 0.991048574
vt 0.193847656 0.991048574
vt 0.193847656 0.9501279
vt 0.349121094 0.9501279
vt 0.349121094 0.991048574
vt 0.364746094 0.991048574
vt 0.364746094 0.9501279
g digaiteluyin_2_rw-mesh_0
f 3/3/3 2/2/2 1/1/1
f 1/1/1 4/4/4 3/3/3
f 7/7/7 6/6/6 5/5/5
f 5/5/5 8/8/8 7/7/7
f 11/11/11 10/10/10 9/9/9
f 9/9/9 12/12/12 11/11/11
f 15/15/15 14/14/14 13/13/13
f 13/13/13 16/16/16 15/15/15
f 19/19/19 18/18/18 17/17/17
f 17/17/17 20/20/20 19/19/19
f 23/23/23 22/22/22 21/21/21
f 21/21/21 24/24/24 23/23/23
f 27/27/27 26/26/26 25/25/25
f 25/25/25 28/28/28 27/27/27
f 31/31/31 30/30/30 29/29/29
f 29/29/29 32/32/32 31/31/31
f 35/35/35 34/34/34 33/33/33
f 33/33/33 36/36/36 35/35/35
f 39/39/39 38/38/38 37/37/37
f 37/37/37 40/40/40 39/39/39
f 43/43/43 42/42/42 41/41/41
f 41/41/41 44/44/44 43/43/43
f 47/47/47 46/46/46 45/45/45
f 45/45/45 48/48/48 47/47/47
f 51/51/51 50/50/50 49/49/49
f 49/49/49 52/52/52 51/51/51
f 55/55/55 54/54/54 53/53/53
f 53/53/53 56/56/56 55/55/55
f 59/59/59 58/58/58 57/57/57
f 57/57/57 60/60/60 59/59/59
f 63/63/63 62/62/62 61/61/61
f 61/61/61 64/64/64 63/63/63
f 67/67/67 66/66/66 65/65/65
f 65/65/65 68/68/68 67/67/67
f 71/71/71 70/70/70 69/69/69
f 69/69/69 72/72/72 71/71/71
f 75/75/75 74/74/74 73/73/73
f 73/73/73 76/76/76 75/75/75
f 79/79/79 78/78/78 77/77/77
f 77/77/77 80/80/80 79/79/79
f 83/83/83 82/82/82 81/81/81
f 81/81/81 84/84/84 83/83/83
f 87/87/87 86/86/86 85/85/85
f 85/85/85 88/88/88 87/87/87
f 91/91/91 90/90/90 89/89/89
f 89/89/89 92/92/92 91/91/91
f 95/95/95 94/94/94 93/93/93
f 93/93/93 96/96/96 95/95/95
f 99/99/99 98/98/98 97/97/97
f 97/97/97 100/100/100 99/99/99
f 103/103/103 102/102/102 101/101/101
f 101/101/101 104/104/104 103/103/103
f 107/107/107 106/106/106 105/105/105
f 105/105/105 108/108/108 107/107/107
f 111/111/111 110/110/110 109/109/109
f 109/109/109 112/112/112 111/111/111
f 115/115/115 114/114/114 113/113/113
f 113/113/113 116/116/116 115/115/115
f 119/119/119 118/118/118 117/117/117
f 117/117/117 120/120/120 119/119/119
f 123/123/123 122/122/122 121/121/121
f 121/121/121 124/124/124 123/123/123
f 127/127/127 126/126/126 125/125/125
f 125/125/125 128/128/128 127/127/127
f 131/131/131 130/130/130 129/129/129
f 129/129/129 132/132/132 131/131/131
f 135/135/135 134/134/134 133/133/133
f 133/133/133 136/136/136 135/135/135
f 139/139/139 138/138/138 137/137/137
f 137/137/137 140/140/140 139/139/139
f 143/143/143 142/142/142 141/141/141
f 141/141/141 144/144/144 143/143/143
f 147/147/147 146/146/146 145/145/145
f 145/145/145 148/148/148 147/147/147
f 151/151/151 150/150/150 149/149/149
f 149/149/149 152/152/152 151/151/151
f 155/155/155 154/154/154 153/153/153
f 153/153/153 156/156/156 155/155/155
f 159/159/159 158/158/158 157/157/157
f 157/157/157 160/160/160 159/159/159
f 163/163/163 162/162/162 161/161/161
f 161/161/161 164/164/164 163/163/163
f 167/167/167 166/166/166 165/165/165
f 165/165/165 168/168/168 167/167/167
f 171/171/171 170/170/170 169/169/169
f 169/169/169 172/172/172 171/171/171
f 175/175/175 174/174/174 173/173/173
f 173/173/173 176/176/176 175/175/175
f 179/179/179 178/178/178 177/177/177
f 177/177/177 180/180/180 179/179/179
f 183/183/183 182/182/182 181/181/181
f 181/181/181 184/184/184 183/183/183
f 187/187/187 186/186/186 185/185/185
f 185/185/185 188/188/188 187/187/187
f 191/191/191 190/190/190 189/189/189
f 189/189/189 192/192/192 191/191/191
f 195/195/195 194/194/194 193/193/193
f 193/193/193 196/196/196 195/195/195
f 199/199/199 198/198/198 197/197/197
f 197/197/197 200/200/200 199/199/199
f 203/203/203 202/202/202 201/201/201
f 201/201/201 204/204/204 203/203/203
f 207/207/207 206/206/206 205/205/205
f 205/205/205 208/208/208 207/207/207
f 211/211/211 210/210/210 209/209/209
f 209/209/209 212/212/212 211/211/211
f 215/215/215 214/214/214 213/213/213
f 213/213/213 216/216/216 215/215/215
f 219/219/219 218/218/218 217/217/217
f 217/217/217 220/220/220 219/219/219
f 223/223/223 222/222/222 221/221/221
f 221/221/221 224/224/224 223/223/223
f 227/227/227 226/226/226 225/225/225
f 225/225/225 228/228/228 227/227/227
f 231/231/231 230/230/230 229/229/229
f 229/229/229 232/232/232 231/231/231
f 235/235/235 234/234/234 233/233/233
f 233/233/233 236/236/236 235/235/235
f 239/239/239 238/238/238 237/237/237
f 237/237/237 240/240/240 239/239/239
f 243/243/243 242/242/242 241/241/241
f 241/241/241 244/244/244 243/243/243
f 247/247/247 246/246/246 245/245/245
f 245/245/245 248/248/248 247/247/247
f 251/251/251 250/250/250 249/249/249
f 249/249/249 252/252/252 251/251/251
f 255/255/255 254/254/254 253/253/253
f 253/253/253 256/256/256 255/255/255
f 259/259/259 258/258/258 257/257/257
f 257/257/257 260/260/260 259/259/259
f 263/263/263 262/262/262 261/261/261
f 261/261/261 264/264/264 263/263/263
f 267/267/267 266/266/266 265/265/265
f 265/265/265 268/268/268 267/267/267
f 271/271/271 270/270/270 269/269/269
f 269/269/269 272/272/272 271/271/271
f 275/275/275 274/274/274 273/273/273
f 273/273/273 276/276/276 275/275/275
f 279/279/279 278/278/278 277/277/277
f 277/277/277 280/280/280 279/279/279
f 283/283/283 282/282/282 281/281/281
f 281/281/281 284/284/284 283/283/283
f 287/287/287 286/286/286 285/285/285
f 285/285/285 288/288/288 287/287/287
f 291/291/291 290/290/290 289/289/289
f 289/289/289 292/292/292 291/291/291
f 295/295/295 294/294/294 293/293/293
f 293/293/293 296/296/296 295/295/295
f 299/299/299 298/298/298 297/297/297
f 297/297/297 300/300/300 299/299/299
f 303/303/303 302/302/302 301/301/301
f 301/301/301 304/304/304 303/303/303
f 307/307/307 306/306/306 305/305/305
f 305/305/305 308/308/308 307/307/307
f 311/311/311 310/310/310 309/309/309
f 309/309/309 312/312/312 311/311/311
f 315/315/315 314/314/314 313/313/313
f 313/313/313 316/316/316 315/315/315
f 319/319/319 318/318/318 317/317/317
f 317/317/317 320/320/320 319/319/319
f 323/323/323 322/322/322 321/321/321
f 321/321/321 324/324/324 323/323/323
f 327/327/327 326/326/326 325/325/325
f 325/325/325 328/328/328 327/327/327
f 331/331/331 330/330/330 329/329/329
f 329/329/329 332/332/332 331/331/331
f 335/335/335 334/334/334 333/333/333
f 333/333/333 336/336/336 335/335/335
f 339/339/339 338/338/338 337/337/337
f 337/337/337 340/340/340 339/339/339
f 343/343/343 342/342/342 341/341/341
f 341/341/341 344/344/344 343/343/343
f 347/347/347 346/346/346 345/345/345
f 345/345/345 348/348/348 347/347/347
f 351/351/351 350/350/350 349/349/349
f 349/349/349 352/352/352 351/351/351
f 355/355/355 354/354/354 353/353/353
f 353/353/353 356/356/356 355/355/355
f 359/359/359 358/358/358 357/357/357
f 357/357/357 360/360/360 359/359/359
f 363/363/363 362/362/362 361/361/361
f 361/361/361 364/364/364 363/363/363
f 367/367/367 366/366/366 365/365/365
f 365/365/365 368/368/368 367/367/367
f 371/371/371 370/370/370 369/369/369
f 369/369/369 372/372/372 371/371/371
f 375/375/375 374/374/374 373/373/373
f 373/373/373 376/376/376 375/375/375
f 379/379/379 378/378/378 377/377/377
f 377/377/377 380/380/380 379/379/379
f 383/383/383 382/382/382 381/381/381
f 381/381/381 384/384/384 383/383/383
