g changdao_g-mesh
v -544 183 0
v -544 599 0
v -960 599 0
v -960 183 0
v -128 183 0
v -128 599 0
v -544 599 0
v -544 183 0
v -288 599 0
v -288 887 0
v -736 887 0
v -736 599 0
v -0 183 0
v -0 439 0
v -128 439 0
v -128 183 0
v -352 887 0
v -352 983 0
v -576 983 0
v -576 887 0
v -672 0 0
v -672 183 0
v -768 183 0
v -768 0 0
v -256 0 0
v -256 183 0
v -352 183 0
v -352 0 0
v -736 695 0
v -736 823 0
v -800 823 0
v -800 695 0
v -224 599 0
v -224 727 0
v -288 727 0
v -288 599 0
v -960 343 0
v -960 471 0
v -1023 471 0
v -1023 343 0
v -960 215 0
v -960 343 0
v -1023 343 0
v -1023 215 0
v -128 695 0
v -128 759 0
v -224 759 0
v -224 695 0
v -704 887 0
v -704 951 0
v -800 951 0
v -800 887 0
v -800 599 0
v -800 695 0
v -864 695 0
v -864 599 0
v -736 599 0
v -736 695 0
v -800 695 0
v -800 599 0
v -608 951 0
v -608 1015 0
v -704 1015 0
v -704 951 0
v -32 695 0
v -32 759 0
v -128 759 0
v -128 695 0
v -704 951 0
v -704 1015 0
v -800 1015 0
v -800 951 0
v -512 151 0
v -512 183 0
v -672 183 0
v -672 151 0
v -352 151 0
v -352 183 0
v -512 183 0
v -512 151 0
v -64 439 0
v -64 503 0
v -128 503 0
v -128 439 0
v -352 87 0
v -352 151 0
v -416 151 0
v -416 87 0
v -800 887 0
v -800 951 0
v -864 951 0
v -864 887 0
v -384 983 0
v -384 1015 0
v -480 1015 0
v -480 983 0
v -192 599 0
v -192 663 0
v -224 663 0
v -224 599 0
v -864 599 0
v -864 663 0
v -896 663 0
v -896 599 0
v -608 119 0
v -608 151 0
v -672 151 0
v -672 119 0
v -160 151 0
v -160 183 0
v -224 183 0
v -224 151 0
v -960 471 0
v -960 535 0
v -992 535 0
v -992 471 0
v -128 663 0
v -128 695 0
v -192 695 0
v -192 663 0
v -768 119 0
v -768 183 0
v -800 183 0
v -800 119 0
v -480 983 0
v -480 1015 0
v -544 1015 0
v -544 983 0
v -768 55 0
v -768 119 0
v -800 119 0
v -800 55 0
v -576 887 0
v -576 951 0
v -608 951 0
v -608 887 0
v -320 887 0
v -320 951 0
v -352 951 0
v -352 887 0
v -32 439 0
v -32 471 0
v -64 471 0
v -64 439 0
v -96 503 0
v -96 535 0
v -128 535 0
v -128 503 0
v -896 599 0
v -896 631 0
v -928 631 0
v -928 599 0
v -960 183 0
v -960 215 0
v -992 215 0
v -992 183 0
v -416 119 0
v -416 151 0
v -448 151 0
v -448 119 0
v -928 151 0
v -928 183 0
v -960 183 0
v -960 151 0
v -800 151 0
v -800 183 0
v -832 183 0
v -832 151 0
v -608 887 0
v -608 919 0
v -640 919 0
v -640 887 0
v -864 919 0
v -864 951 0
v -896 951 0
v -896 919 0
v -672 919 0
v -672 951 0
v -704 951 0
v -704 919 0
v -736 823 0
v -736 855 0
v -768 855 0
v -768 823 0
v -160 599 0
v -160 631 0
v -192 631 0
v -192 599 0
v -800 695 0
v -800 727 0
v -832 727 0
v -832 695 0
v -256 727 0
v -256 759 0
v -288 759 0
v -288 727 0
vt 0.0009765625 0.0012820363
vt 0.0009765625 0.534615397
vt 0.407226562 0.534615397
vt 0.407226562 0.0012820363
vt 0.409179688 0.0012820363
vt 0.409179688 0.534615397
vt 0.815429688 0.534615397
vt 0.815429688 0.0012820363
vt 0.0009765625 0.53717947
vt 0.0009765625 0.906410277
vt 0.438476562 0.906410277
vt 0.438476562 0.53717947
vt 0.817382812 0.0012820363
vt 0.817382812 0.329487205
vt 0.942382812 0.329487205
vt 0.942382812 0.0012820363
vt 0.440429688 0.53717947
vt 0.440429688 0.660256386
vt 0.659179688 0.660256386
vt 0.659179688 0.53717947
vt 0.817382812 0.332051277
vt 0.817382812 0.567948699
vt 0.911132812 0.567948699
vt 0.911132812 0.332051277
vt 0.661132812 0.53717947
vt 0.661132812 0.773076892
vt 0.754882812 0.773076892
vt 0.754882812 0.53717947
vt 0.913085938 0.332051277
vt 0.913085938 0.496153831
vt 0.975585938 0.496153831
vt 0.975585938 0.332051277
vt 0.913085938 0.498717964
vt 0.913085938 0.662820518
vt 0.975585938 0.662820518
vt 0.975585938 0.498717964
vt 0.817382812 0.570512831
vt 0.817382812 0.734615386
vt 0.879882812 0.734615386
vt 0.879882812 0.570512831
vt 0.440429688 0.662820518
vt 0.440429688 0.826923072
vt 0.502929688 0.826923072
vt 0.502929688 0.662820518
vt 0.504882812 0.662820518
vt 0.504882812 0.744871795
vt 0.598632812 0.744871795
vt 0.598632812 0.662820518
vt 0.817382812 0.737179518
vt 0.817382812 0.819230795
vt 0.911132812 0.819230795
vt 0.911132812 0.737179518
vt 0.913085938 0.66538465
vt 0.913085938 0.788461566
vt 0.975585938 0.788461566
vt 0.975585938 0.66538465
vt 0.504882812 0.747435927
vt 0.504882812 0.870512843
vt 0.567382812 0.870512843
vt 0.567382812 0.747435927
vt 0.661132812 0.775641024
vt 0.661132812 0.857692301
vt 0.754882812 0.857692301
vt 0.754882812 0.775641024
vt 0.817382812 0.821794868
vt 0.817382812 0.903846145
vt 0.911132812 0.903846145
vt 0.911132812 0.821794868
vt 0.661132812 0.860256433
vt 0.661132812 0.942307711
vt 0.754882812 0.942307711
vt 0.754882812 0.860256433
vt 0.817382812 0.906410277
vt 0.817382812 0.947435915
vt 0.973632812 0.947435915
vt 0.973632812 0.906410277
vt 0.0009765625 0.908974349
vt 0.0009765625 0.949999988
vt 0.157226562 0.949999988
vt 0.157226562 0.908974349
vt 0.569335938 0.747435927
vt 0.569335938 0.829487205
vt 0.631835938 0.829487205
vt 0.631835938 0.747435927
vt 0.440429688 0.829487205
vt 0.440429688 0.911538482
vt 0.502929688 0.911538482
vt 0.502929688 0.829487205
vt 0.569335938 0.832051277
vt 0.569335938 0.914102554
vt 0.631835938 0.914102554
vt 0.631835938 0.832051277
vt 0.159179688 0.908974349
vt 0.159179688 0.949999988
vt 0.252929688 0.949999988
vt 0.252929688 0.908974349
vt 0.756835938 0.53717947
vt 0.756835938 0.619230747
vt 0.788085938 0.619230747
vt 0.788085938 0.53717947
vt 0.756835938 0.621794879
vt 0.756835938 0.703846157
vt 0.788085938 0.703846157
vt 0.788085938 0.621794879
vt 0.504882812 0.873076916
vt 0.504882812 0.914102554
vt 0.567382812 0.914102554
vt 0.567382812 0.873076916
vt 0.254882812 0.908974349
vt 0.254882812 0.949999988
vt 0.317382812 0.949999988
vt 0.317382812 0.908974349
vt 0.756835938 0.706410289
vt 0.756835938 0.788461566
vt 0.788085938 0.788461566
vt 0.788085938 0.706410289
vt 0.319335938 0.908974349
vt 0.319335938 0.949999988
vt 0.381835938 0.949999988
vt 0.381835938 0.908974349
vt 0.756835938 0.791025639
vt 0.756835938 0.873076916
vt 0.788085938 0.873076916
vt 0.788085938 0.791025639
vt 0.440429688 0.914102554
vt 0.440429688 0.955128193
vt 0.502929688 0.955128193
vt 0.502929688 0.914102554
vt 0.756835938 0.875641048
vt 0.756835938 0.957692325
vt 0.788085938 0.957692325
vt 0.788085938 0.875641048
vt 0.383789062 0.908974349
vt 0.383789062 0.991025627
vt 0.415039062 0.991025627
vt 0.415039062 0.908974349
vt 0.504882812 0.916666687
vt 0.504882812 0.998717964
vt 0.536132812 0.998717964
vt 0.536132812 0.916666687
vt 0.538085938 0.916666687
vt 0.538085938 0.957692325
vt 0.569335938 0.957692325
vt 0.569335938 0.916666687
vt 0.571289062 0.916666687
vt 0.571289062 0.957692325
vt 0.602539062 0.957692325
vt 0.602539062 0.916666687
vt 0.604492188 0.916666687
vt 0.604492188 0.957692325
vt 0.635742188 0.957692325
vt 0.635742188 0.916666687
vt 0.661132812 0.944871783
vt 0.661132812 0.985897422
vt 0.692382812 0.985897422
vt 0.692382812 0.944871783
vt 0.694335938 0.944871783
vt 0.694335938 0.985897422
vt 0.725585938 0.985897422
vt 0.725585938 0.944871783
vt 0.817382812 0.949999988
vt 0.817382812 0.991025627
vt 0.848632812 0.991025627
vt 0.848632812 0.949999988
vt 0.850585938 0.949999988
vt 0.850585938 0.991025627
vt 0.881835938 0.991025627
vt 0.881835938 0.949999988
vt 0.883789062 0.949999988
vt 0.883789062 0.991025627
vt 0.915039062 0.991025627
vt 0.915039062 0.949999988
vt 0.916992188 0.949999988
vt 0.916992188 0.991025627
vt 0.948242188 0.991025627
vt 0.948242188 0.949999988
vt 0.950195312 0.949999988
vt 0.950195312 0.991025627
vt 0.981445312 0.991025627
vt 0.981445312 0.949999988
vt 0.0009765625 0.95256412
vt 0.0009765625 0.993589759
vt 0.0322265625 0.993589759
vt 0.0322265625 0.95256412
vt 0.0341796875 0.95256412
vt 0.0341796875 0.993589759
vt 0.0654296875 0.993589759
vt 0.0654296875 0.95256412
vt 0.0673828125 0.95256412
vt 0.0673828125 0.993589759
vt 0.0986328125 0.993589759
vt 0.0986328125 0.95256412
vt 0.100585938 0.95256412
vt 0.100585938 0.993589759
vt 0.131835938 0.993589759
vt 0.131835938 0.95256412
g changdao_g-mesh_0
f 3/3/3 2/2/2 1/1/1
f 1/1/1 4/4/4 3/3/3
f 7/7/7 6/6/6 5/5/5
f 5/5/5 8/8/8 7/7/7
f 11/11/11 10/10/10 9/9/9
f 9/9/9 12/12/12 11/11/11
f 15/15/15 14/14/14 13/13/13
f 13/13/13 16/16/16 15/15/15
f 19/19/19 18/18/18 17/17/17
f 17/17/17 20/20/20 19/19/19
f 23/23/23 22/22/22 21/21/21
f 21/21/21 24/24/24 23/23/23
f 27/27/27 26/26/26 25/25/25
f 25/25/25 28/28/28 27/27/27
f 31/31/31 30/30/30 29/29/29
f 29/29/29 32/32/32 31/31/31
f 35/35/35 34/34/34 33/33/33
f 33/33/33 36/36/36 35/35/35
f 39/39/39 38/38/38 37/37/37
f 37/37/37 40/40/40 39/39/39
f 43/43/43 42/42/42 41/41/41
f 41/41/41 44/44/44 43/43/43
f 47/47/47 46/46/46 45/45/45
f 45/45/45 48/48/48 47/47/47
f 51/51/51 50/50/50 49/49/49
f 49/49/49 52/52/52 51/51/51
f 55/55/55 54/54/54 53/53/53
f 53/53/53 56/56/56 55/55/55
f 59/59/59 58/58/58 57/57/57
f 57/57/57 60/60/60 59/59/59
f 63/63/63 62/62/62 61/61/61
f 61/61/61 64/64/64 63/63/63
f 67/67/67 66/66/66 65/65/65
f 65/65/65 68/68/68 67/67/67
f 71/71/71 70/70/70 69/69/69
f 69/69/69 72/72/72 71/71/71
f 75/75/75 74/74/74 73/73/73
f 73/73/73 76/76/76 75/75/75
f 79/79/79 78/78/78 77/77/77
f 77/77/77 80/80/80 79/79/79
f 83/83/83 82/82/82 81/81/81
f 81/81/81 84/84/84 83/83/83
f 87/87/87 86/86/86 85/85/85
f 85/85/85 88/88/88 87/87/87
f 91/91/91 90/90/90 89/89/89
f 89/89/89 92/92/92 91/91/91
f 95/95/95 94/94/94 93/93/93
f 93/93/93 96/96/96 95/95/95
f 99/99/99 98/98/98 97/97/97
f 97/97/97 100/100/100 99/99/99
f 103/103/103 102/102/102 101/101/101
f 101/101/101 104/104/104 103/103/103
f 107/107/107 106/106/106 105/105/105
f 105/105/105 108/108/108 107/107/107
f 111/111/111 110/110/110 109/109/109
f 109/109/109 112/112/112 111/111/111
f 115/115/115 114/114/114 113/113/113
f 113/113/113 116/116/116 115/115/115
f 119/119/119 118/118/118 117/117/117
f 117/117/117 120/120/120 119/119/119
f 123/123/123 122/122/122 121/121/121
f 121/121/121 124/124/124 123/123/123
f 127/127/127 126/126/126 125/125/125
f 125/125/125 128/128/128 127/127/127
f 131/131/131 130/130/130 129/129/129
f 129/129/129 132/132/132 131/131/131
f 135/135/135 134/134/134 133/133/133
f 133/133/133 136/136/136 135/135/135
f 139/139/139 138/138/138 137/137/137
f 137/137/137 140/140/140 139/139/139
f 143/143/143 142/142/142 141/141/141
f 141/141/141 144/144/144 143/143/143
f 147/147/147 146/146/146 145/145/145
f 145/145/145 148/148/148 147/147/147
f 151/151/151 150/150/150 149/149/149
f 149/149/149 152/152/152 151/151/151
f 155/155/155 154/154/154 153/153/153
f 153/153/153 156/156/156 155/155/155
f 159/159/159 158/158/158 157/157/157
f 157/157/157 160/160/160 159/159/159
f 163/163/163 162/162/162 161/161/161
f 161/161/161 164/164/164 163/163/163
f 167/167/167 166/166/166 165/165/165
f 165/165/165 168/168/168 167/167/167
f 171/171/171 170/170/170 169/169/169
f 169/169/169 172/172/172 171/171/171
f 175/175/175 174/174/174 173/173/173
f 173/173/173 176/176/176 175/175/175
f 179/179/179 178/178/178 177/177/177
f 177/177/177 180/180/180 179/179/179
f 183/183/183 182/182/182 181/181/181
f 181/181/181 184/184/184 183/183/183
f 187/187/187 186/186/186 185/185/185
f 185/185/185 188/188/188 187/187/187
f 191/191/191 190/190/190 189/189/189
f 189/189/189 192/192/192 191/191/191
f 195/195/195 194/194/194 193/193/193
f 193/193/193 196/196/196 195/195/195
