g lafei_9_middle-mesh
v -1728 551 0
v -1728 711 0
v -2016 711 0
v -2016 551 0
v -1440 551 0
v -1440 711 0
v -1728 711 0
v -1728 551 0
v -1760 359 0
v -1760 551 0
v -1824 551 0
v -1824 359 0
v -1760 199 0
v -1760 359 0
v -1824 359 0
v -1824 199 0
v -1728 711 0
v -1728 743 0
v -1952 743 0
v -1952 711 0
v -1504 711 0
v -1504 743 0
v -1728 743 0
v -1728 711 0
v -1344 359 0
v -1344 455 0
v -1408 455 0
v -1408 359 0
v -1760 743 0
v -1760 807 0
v -1856 807 0
v -1856 743 0
v -1376 551 0
v -1376 647 0
v -1440 647 0
v -1440 551 0
v -1376 455 0
v -1376 551 0
v -1440 551 0
v -1440 455 0
v -1472 519 0
v -1472 551 0
v -1632 551 0
v -1632 519 0
v -1632 519 0
v -1632 551 0
v -1760 551 0
v -1760 519 0
v -2016 551 0
v -2016 647 0
v -2047 647 0
v -2047 551 0
v -2016 455 0
v -2016 551 0
v -2047 551 0
v -2047 455 0
v -1824 519 0
v -1824 551 0
v -1888 551 0
v -1888 519 0
v -1728 487 0
v -1728 519 0
v -1760 519 0
v -1760 487 0
v -1344 455 0
v -1344 487 0
v -1376 487 0
v -1376 455 0
v -1984 519 0
v -1984 551 0
v -2016 551 0
v -2016 519 0
v -1728 743 0
v -1728 775 0
v -1760 775 0
v -1760 743 0
v -1408 647 0
v -1408 679 0
v -1440 679 0
v -1440 647 0
vt 0.001953125 0.0021739006
vt 0.001953125 0.350000024
vt 0.564453125 0.350000024
vt 0.564453125 0.0021739006
vt 0.001953125 0.354347825
vt 0.001953125 0.702173948
vt 0.564453125 0.702173948
vt 0.564453125 0.354347825
vt 0.568359375 0.0021739006
vt 0.568359375 0.419565201
vt 0.693359375 0.419565201
vt 0.693359375 0.0021739006
vt 0.697265625 0.0021739006
vt 0.697265625 0.350000024
vt 0.822265625 0.350000024
vt 0.822265625 0.0021739006
vt 0.001953125 0.706521749
vt 0.001953125 0.776086926
vt 0.439453125 0.776086926
vt 0.439453125 0.706521749
vt 0.443359375 0.706521749
vt 0.443359375 0.776086926
vt 0.880859375 0.776086926
vt 0.880859375 0.706521749
vt 0.001953125 0.780434787
vt 0.001953125 0.989130437
vt 0.126953125 0.989130437
vt 0.126953125 0.780434787
vt 0.130859375 0.780434787
vt 0.130859375 0.919565201
vt 0.318359375 0.919565201
vt 0.318359375 0.780434787
vt 0.322265625 0.780434787
vt 0.322265625 0.989130437
vt 0.447265625 0.989130437
vt 0.447265625 0.780434787
vt 0.451171875 0.780434787
vt 0.451171875 0.989130437
vt 0.576171875 0.989130437
vt 0.576171875 0.780434787
vt 0.580078125 0.780434787
vt 0.580078125 0.850000024
vt 0.892578125 0.850000024
vt 0.892578125 0.780434787
vt 0.580078125 0.854347825
vt 0.580078125 0.923913062
vt 0.830078125 0.923913062
vt 0.830078125 0.854347825
vt 0.896484375 0.0021739006
vt 0.896484375 0.210869551
vt 0.958984375 0.210869551
vt 0.958984375 0.0021739006
vt 0.896484375 0.215217412
vt 0.896484375 0.423913062
vt 0.958984375 0.423913062
vt 0.958984375 0.215217412
vt 0.833984375 0.854347825
vt 0.833984375 0.923913062
vt 0.958984375 0.923913062
vt 0.958984375 0.854347825
vt 0.130859375 0.923913062
vt 0.130859375 0.993478239
vt 0.193359375 0.993478239
vt 0.193359375 0.923913062
vt 0.197265625 0.923913062
vt 0.197265625 0.993478239
vt 0.259765625 0.993478239
vt 0.259765625 0.923913062
vt 0.580078125 0.928260863
vt 0.580078125 0.997826099
vt 0.642578125 0.997826099
vt 0.642578125 0.928260863
vt 0.646484375 0.928260863
vt 0.646484375 0.997826099
vt 0.708984375 0.997826099
vt 0.708984375 0.928260863
vt 0.712890625 0.928260863
vt 0.712890625 0.997826099
vt 0.775390625 0.997826099
vt 0.775390625 0.928260863
g lafei_9_middle-mesh_0
f 3/3/3 2/2/2 1/1/1
f 1/1/1 4/4/4 3/3/3
f 7/7/7 6/6/6 5/5/5
f 5/5/5 8/8/8 7/7/7
f 11/11/11 10/10/10 9/9/9
f 9/9/9 12/12/12 11/11/11
f 15/15/15 14/14/14 13/13/13
f 13/13/13 16/16/16 15/15/15
f 19/19/19 18/18/18 17/17/17
f 17/17/17 20/20/20 19/19/19
f 23/23/23 22/22/22 21/21/21
f 21/21/21 24/24/24 23/23/23
f 27/27/27 26/26/26 25/25/25
f 25/25/25 28/28/28 27/27/27
f 31/31/31 30/30/30 29/29/29
f 29/29/29 32/32/32 31/31/31
f 35/35/35 34/34/34 33/33/33
f 33/33/33 36/36/36 35/35/35
f 39/39/39 38/38/38 37/37/37
f 37/37/37 40/40/40 39/39/39
f 43/43/43 42/42/42 41/41/41
f 41/41/41 44/44/44 43/43/43
f 47/47/47 46/46/46 45/45/45
f 45/45/45 48/48/48 47/47/47
f 51/51/51 50/50/50 49/49/49
f 49/49/49 52/52/52 51/51/51
f 55/55/55 54/54/54 53/53/53
f 53/53/53 56/56/56 55/55/55
f 59/59/59 58/58/58 57/57/57
f 57/57/57 60/60/60 59/59/59
f 63/63/63 62/62/62 61/61/61
f 61/61/61 64/64/64 63/63/63
f 67/67/67 66/66/66 65/65/65
f 65/65/65 68/68/68 67/67/67
f 71/71/71 70/70/70 69/69/69
f 69/69/69 72/72/72 71/71/71
f 75/75/75 74/74/74 73/73/73
f 73/73/73 76/76/76 75/75/75
f 79/79/79 78/78/78 77/77/77
f 77/77/77 80/80/80 79/79/79
