g xinzexi_jz1-mesh
v -1248 802 0
v -1248 1218 0
v -1504 1218 0
v -1504 802 0
v -576 866 0
v -576 1154 0
v -800 1154 0
v -800 866 0
v -1376 642 0
v -1376 802 0
v -1568 802 0
v -1568 642 0
v -1088 898 0
v -1088 1058 0
v -1248 1058 0
v -1248 898 0
v -1376 1218 0
v -1376 1346 0
v -1472 1346 0
v -1472 1218 0
v -480 1090 0
v -480 1218 0
v -576 1218 0
v -576 1090 0
v -1024 1058 0
v -1024 1154 0
v -1120 1154 0
v -1120 1058 0
v -1504 834 0
v -1504 930 0
v -1600 930 0
v -1600 834 0
v -800 898 0
v -800 994 0
v -896 994 0
v -896 898 0
v -1408 514 0
v -1408 578 0
v -1536 578 0
v -1536 514 0
v -800 994 0
v -800 1058 0
v -928 1058 0
v -928 994 0
v -1376 450 0
v -1376 514 0
v -1504 514 0
v -1504 450 0
v -576 738 0
v -576 866 0
v -640 866 0
v -640 738 0
v -384 930 0
v -384 994 0
v -512 994 0
v -512 930 0
v -512 738 0
v -512 866 0
v -576 866 0
v -576 738 0
v -512 866 0
v -512 994 0
v -576 994 0
v -576 866 0
v -800 1058 0
v -800 1122 0
v -896 1122 0
v -896 1058 0
v -1408 578 0
v -1408 642 0
v -1504 642 0
v -1504 578 0
v -640 802 0
v -640 866 0
v -704 866 0
v -704 802 0
v -1248 738 0
v -1248 802 0
v -1312 802 0
v -1312 738 0
v -1312 706 0
v -1312 770 0
v -1376 770 0
v -1376 706 0
v -1344 354 0
v -1344 418 0
v -1408 418 0
v -1408 354 0
v -1504 578 0
v -1504 642 0
v -1568 642 0
v -1568 578 0
v -896 1058 0
v -896 1122 0
v -960 1122 0
v -960 1058 0
v -1504 1090 0
v -1504 1186 0
v -1536 1186 0
v -1536 1090 0
v -1216 1058 0
v -1216 1122 0
v -1248 1122 0
v -1248 1058 0
v -1120 1058 0
v -1120 1122 0
v -1152 1122 0
v -1152 1058 0
v -544 1026 0
v -544 1090 0
v -576 1090 0
v -576 1026 0
v -896 1122 0
v -896 1154 0
v -960 1154 0
v -960 1122 0
v -1536 1090 0
v -1536 1154 0
v -1568 1154 0
v -1568 1090 0
v -448 1122 0
v -448 1186 0
v -480 1186 0
v -480 1122 0
v -512 450 0
v -512 514 0
v -544 514 0
v -544 450 0
v -1184 834 0
v -1184 866 0
v -1248 866 0
v -1248 834 0
v -1504 802 0
v -1504 834 0
v -1568 834 0
v -1568 802 0
v -1056 994 0
v -1056 1058 0
v -1088 1058 0
v -1088 994 0
v -352 962 0
v -352 1026 0
v -384 1026 0
v -384 962 0
v -800 834 0
v -800 898 0
v -832 898 0
v -832 834 0
v -576 1154 0
v -576 1218 0
v -608 1218 0
v -608 1154 0
v -1472 1250 0
v -1472 1314 0
v -1504 1314 0
v -1504 1250 0
v -480 866 0
v -480 930 0
v -512 930 0
v -512 866 0
v -1184 866 0
v -1184 898 0
v -1248 898 0
v -1248 866 0
v -1504 1026 0
v -1504 1090 0
v -1536 1090 0
v -1536 1026 0
v -1120 866 0
v -1120 898 0
v -1184 898 0
v -1184 866 0
v -1376 418 0
v -1376 450 0
v -1440 450 0
v -1440 418 0
v -1568 738 0
v -1568 802 0
v -1600 802 0
v -1600 738 0
v -512 1218 0
v -512 1250 0
v -576 1250 0
v -576 1218 0
v -1344 770 0
v -1344 802 0
v -1376 802 0
v -1376 770 0
v -1216 802 0
v -1216 834 0
v -1248 834 0
v -1248 802 0
v -768 834 0
v -768 866 0
v -800 866 0
v -800 834 0
v -832 866 0
v -832 898 0
v -864 898 0
v -864 866 0
v -704 834 0
v -704 866 0
v -736 866 0
v -736 834 0
v -480 706 0
v -480 738 0
v -512 738 0
v -512 706 0
v -672 642 0
v -672 674 0
v -704 674 0
v -704 642 0
v -1312 354 0
v -1312 386 0
v -1344 386 0
v -1344 354 0
v -1632 706 0
v -1632 738 0
v -1664 738 0
v -1664 706 0
v -608 706 0
v -608 738 0
v -640 738 0
v -640 706 0
v -1408 386 0
v -1408 418 0
v -1440 418 0
v -1440 386 0
v -1440 418 0
v -1440 450 0
v -1472 450 0
v -1472 418 0
v -1408 1346 0
v -1408 1378 0
v -1440 1378 0
v -1440 1346 0
v -1568 706 0
v -1568 738 0
v -1600 738 0
v -1600 706 0
v -1472 1218 0
v -1472 1250 0
v -1504 1250 0
v -1504 1218 0
v -480 834 0
v -480 866 0
v -512 866 0
v -512 834 0
v -1504 1250 0
v -1504 1282 0
v -1536 1282 0
v -1536 1250 0
v -896 930 0
v -896 962 0
v -928 962 0
v -928 930 0
v -1504 930 0
v -1504 962 0
v -1536 962 0
v -1536 930 0
v -1056 1154 0
v -1056 1186 0
v -1088 1186 0
v -1088 1154 0
v -1344 1218 0
v -1344 1250 0
v -1376 1250 0
v -1376 1218 0
v -608 1154 0
v -608 1186 0
v -640 1186 0
v -640 1154 0
vt 0.0009765625 0.00203251839
vt 0.0009765625 0.847561002
vt 0.250976562 0.847561002
vt 0.250976562 0.00203251839
vt 0.252929688 0.00203251839
vt 0.252929688 0.58739841
vt 0.471679688 0.58739841
vt 0.471679688 0.00203251839
vt 0.473632812 0.00203251839
vt 0.473632812 0.327235758
vt 0.661132812 0.327235758
vt 0.661132812 0.00203251839
vt 0.663085938 0.00203251839
vt 0.663085938 0.327235758
vt 0.819335938 0.327235758
vt 0.819335938 0.00203251839
vt 0.821289062 0.00203251839
vt 0.821289062 0.26219511
vt 0.915039062 0.26219511
vt 0.915039062 0.00203251839
vt 0.821289062 0.266260147
vt 0.821289062 0.526422739
vt 0.915039062 0.526422739
vt 0.915039062 0.266260147
vt 0.473632812 0.331300795
vt 0.473632812 0.526422739
vt 0.567382812 0.526422739
vt 0.567382812 0.331300795
vt 0.569335938 0.331300795
vt 0.569335938 0.526422739
vt 0.663085938 0.526422739
vt 0.663085938 0.331300795
vt 0.665039062 0.331300795
vt 0.665039062 0.526422739
vt 0.758789062 0.526422739
vt 0.758789062 0.331300795
vt 0.473632812 0.530487776
vt 0.473632812 0.660569072
vt 0.598632812 0.660569072
vt 0.598632812 0.530487776
vt 0.600585938 0.530487776
vt 0.600585938 0.660569072
vt 0.725585938 0.660569072
vt 0.725585938 0.530487776
vt 0.727539062 0.530487776
vt 0.727539062 0.660569072
vt 0.852539062 0.660569072
vt 0.852539062 0.530487776
vt 0.916992188 0.00203251839
vt 0.916992188 0.26219511
vt 0.979492188 0.26219511
vt 0.979492188 0.00203251839
vt 0.854492188 0.530487776
vt 0.854492188 0.660569072
vt 0.979492188 0.660569072
vt 0.979492188 0.530487776
vt 0.252929688 0.591463447
vt 0.252929688 0.851626039
vt 0.315429688 0.851626039
vt 0.315429688 0.591463447
vt 0.317382812 0.591463447
vt 0.317382812 0.851626039
vt 0.379882812 0.851626039
vt 0.379882812 0.591463447
vt 0.473632812 0.664634109
vt 0.473632812 0.794715464
vt 0.567382812 0.794715464
vt 0.567382812 0.664634109
vt 0.569335938 0.664634109
vt 0.569335938 0.794715464
vt 0.663085938 0.794715464
vt 0.663085938 0.664634109
vt 0.381835938 0.591463447
vt 0.381835938 0.721544743
vt 0.444335938 0.721544743
vt 0.444335938 0.591463447
vt 0.665039062 0.664634109
vt 0.665039062 0.794715464
vt 0.727539062 0.794715464
vt 0.727539062 0.664634109
vt 0.729492188 0.664634109
vt 0.729492188 0.794715464
vt 0.791992188 0.794715464
vt 0.791992188 0.664634109
vt 0.793945312 0.664634109
vt 0.793945312 0.794715464
vt 0.856445312 0.794715464
vt 0.856445312 0.664634109
vt 0.858398438 0.664634109
vt 0.858398438 0.794715464
vt 0.920898438 0.794715464
vt 0.920898438 0.664634109
vt 0.922851562 0.664634109
vt 0.922851562 0.794715464
vt 0.985351562 0.794715464
vt 0.985351562 0.664634109
vt 0.381835938 0.725609779
vt 0.381835938 0.920731723
vt 0.413085938 0.920731723
vt 0.413085938 0.725609779
vt 0.415039062 0.725609779
vt 0.415039062 0.855691075
vt 0.446289062 0.855691075
vt 0.446289062 0.725609779
vt 0.473632812 0.798780501
vt 0.473632812 0.928861797
vt 0.504882812 0.928861797
vt 0.504882812 0.798780501
vt 0.506835938 0.798780501
vt 0.506835938 0.928861797
vt 0.538085938 0.928861797
vt 0.538085938 0.798780501
vt 0.540039062 0.798780501
vt 0.540039062 0.863821149
vt 0.602539062 0.863821149
vt 0.602539062 0.798780501
vt 0.604492188 0.798780501
vt 0.604492188 0.928861797
vt 0.635742188 0.928861797
vt 0.635742188 0.798780501
vt 0.637695312 0.798780501
vt 0.637695312 0.928861797
vt 0.668945312 0.928861797
vt 0.668945312 0.798780501
vt 0.670898438 0.798780501
vt 0.670898438 0.928861797
vt 0.702148438 0.928861797
vt 0.702148438 0.798780501
vt 0.704101562 0.798780501
vt 0.704101562 0.863821149
vt 0.766601562 0.863821149
vt 0.766601562 0.798780501
vt 0.768554688 0.798780501
vt 0.768554688 0.863821149
vt 0.831054688 0.863821149
vt 0.831054688 0.798780501
vt 0.833007812 0.798780501
vt 0.833007812 0.928861797
vt 0.864257812 0.928861797
vt 0.864257812 0.798780501
vt 0.866210938 0.798780501
vt 0.866210938 0.928861797
vt 0.897460938 0.928861797
vt 0.897460938 0.798780501
vt 0.899414062 0.798780501
vt 0.899414062 0.928861797
vt 0.930664062 0.928861797
vt 0.930664062 0.798780501
vt 0.932617188 0.798780501
vt 0.932617188 0.928861797
vt 0.963867188 0.928861797
vt 0.963867188 0.798780501
vt 0.965820312 0.798780501
vt 0.965820312 0.928861797
vt 0.997070312 0.928861797
vt 0.997070312 0.798780501
vt 0.0009765625 0.851626039
vt 0.0009765625 0.981707335
vt 0.0322265625 0.981707335
vt 0.0322265625 0.851626039
vt 0.0341796875 0.851626039
vt 0.0341796875 0.916666687
vt 0.0966796875 0.916666687
vt 0.0966796875 0.851626039
vt 0.0986328125 0.851626039
vt 0.0986328125 0.981707335
vt 0.129882812 0.981707335
vt 0.129882812 0.851626039
vt 0.131835938 0.851626039
vt 0.131835938 0.916666687
vt 0.194335938 0.916666687
vt 0.194335938 0.851626039
vt 0.252929688 0.855691075
vt 0.252929688 0.920731723
vt 0.315429688 0.920731723
vt 0.315429688 0.855691075
vt 0.196289062 0.851626039
vt 0.196289062 0.981707335
vt 0.227539062 0.981707335
vt 0.227539062 0.851626039
vt 0.317382812 0.855691075
vt 0.317382812 0.920731723
vt 0.379882812 0.920731723
vt 0.379882812 0.855691075
vt 0.415039062 0.859756112
vt 0.415039062 0.92479676
vt 0.446289062 0.92479676
vt 0.446289062 0.859756112
vt 0.540039062 0.867886186
vt 0.540039062 0.932926834
vt 0.571289062 0.932926834
vt 0.571289062 0.867886186
vt 0.704101562 0.867886186
vt 0.704101562 0.932926834
vt 0.735351562 0.932926834
vt 0.735351562 0.867886186
vt 0.737304688 0.867886186
vt 0.737304688 0.932926834
vt 0.768554688 0.932926834
vt 0.768554688 0.867886186
vt 0.770507812 0.867886186
vt 0.770507812 0.932926834
vt 0.801757812 0.932926834
vt 0.801757812 0.867886186
vt 0.0341796875 0.920731723
vt 0.0341796875 0.985772371
vt 0.0654296875 0.985772371
vt 0.0654296875 0.920731723
vt 0.131835938 0.920731723
vt 0.131835938 0.985772371
vt 0.163085938 0.985772371
vt 0.163085938 0.920731723
vt 0.252929688 0.92479676
vt 0.252929688 0.989837408
vt 0.284179688 0.989837408
vt 0.284179688 0.92479676
vt 0.286132812 0.92479676
vt 0.286132812 0.989837408
vt 0.317382812 0.989837408
vt 0.317382812 0.92479676
vt 0.319335938 0.92479676
vt 0.319335938 0.989837408
vt 0.350585938 0.989837408
vt 0.350585938 0.92479676
vt 0.352539062 0.92479676
vt 0.352539062 0.989837408
vt 0.383789062 0.989837408
vt 0.383789062 0.92479676
vt 0.415039062 0.928861797
vt 0.415039062 0.993902445
vt 0.446289062 0.993902445
vt 0.446289062 0.928861797
vt 0.473632812 0.932926834
vt 0.473632812 0.997967482
vt 0.504882812 0.997967482
vt 0.504882812 0.932926834
vt 0.506835938 0.932926834
vt 0.506835938 0.997967482
vt 0.538085938 0.997967482
vt 0.538085938 0.932926834
vt 0.604492188 0.932926834
vt 0.604492188 0.997967482
vt 0.635742188 0.997967482
vt 0.635742188 0.932926834
vt 0.637695312 0.932926834
vt 0.637695312 0.997967482
vt 0.668945312 0.997967482
vt 0.668945312 0.932926834
vt 0.670898438 0.932926834
vt 0.670898438 0.997967482
vt 0.702148438 0.997967482
vt 0.702148438 0.932926834
vt 0.833007812 0.932926834
vt 0.833007812 0.997967482
vt 0.864257812 0.997967482
vt 0.864257812 0.932926834
vt 0.866210938 0.932926834
vt 0.866210938 0.997967482
vt 0.897460938 0.997967482
vt 0.897460938 0.932926834
vt 0.899414062 0.932926834
vt 0.899414062 0.997967482
vt 0.930664062 0.997967482
vt 0.930664062 0.932926834
vt 0.932617188 0.932926834
vt 0.932617188 0.997967482
vt 0.963867188 0.997967482
vt 0.963867188 0.932926834
vt 0.965820312 0.932926834
vt 0.965820312 0.997967482
vt 0.997070312 0.997967482
vt 0.997070312 0.932926834
g xinzexi_jz1-mesh_0
f 3/3/3 2/2/2 1/1/1
f 1/1/1 4/4/4 3/3/3
f 7/7/7 6/6/6 5/5/5
f 5/5/5 8/8/8 7/7/7
f 11/11/11 10/10/10 9/9/9
f 9/9/9 12/12/12 11/11/11
f 15/15/15 14/14/14 13/13/13
f 13/13/13 16/16/16 15/15/15
f 19/19/19 18/18/18 17/17/17
f 17/17/17 20/20/20 19/19/19
f 23/23/23 22/22/22 21/21/21
f 21/21/21 24/24/24 23/23/23
f 27/27/27 26/26/26 25/25/25
f 25/25/25 28/28/28 27/27/27
f 31/31/31 30/30/30 29/29/29
f 29/29/29 32/32/32 31/31/31
f 35/35/35 34/34/34 33/33/33
f 33/33/33 36/36/36 35/35/35
f 39/39/39 38/38/38 37/37/37
f 37/37/37 40/40/40 39/39/39
f 43/43/43 42/42/42 41/41/41
f 41/41/41 44/44/44 43/43/43
f 47/47/47 46/46/46 45/45/45
f 45/45/45 48/48/48 47/47/47
f 51/51/51 50/50/50 49/49/49
f 49/49/49 52/52/52 51/51/51
f 55/55/55 54/54/54 53/53/53
f 53/53/53 56/56/56 55/55/55
f 59/59/59 58/58/58 57/57/57
f 57/57/57 60/60/60 59/59/59
f 63/63/63 62/62/62 61/61/61
f 61/61/61 64/64/64 63/63/63
f 67/67/67 66/66/66 65/65/65
f 65/65/65 68/68/68 67/67/67
f 71/71/71 70/70/70 69/69/69
f 69/69/69 72/72/72 71/71/71
f 75/75/75 74/74/74 73/73/73
f 73/73/73 76/76/76 75/75/75
f 79/79/79 78/78/78 77/77/77
f 77/77/77 80/80/80 79/79/79
f 83/83/83 82/82/82 81/81/81
f 81/81/81 84/84/84 83/83/83
f 87/87/87 86/86/86 85/85/85
f 85/85/85 88/88/88 87/87/87
f 91/91/91 90/90/90 89/89/89
f 89/89/89 92/92/92 91/91/91
f 95/95/95 94/94/94 93/93/93
f 93/93/93 96/96/96 95/95/95
f 99/99/99 98/98/98 97/97/97
f 97/97/97 100/100/100 99/99/99
f 103/103/103 102/102/102 101/101/101
f 101/101/101 104/104/104 103/103/103
f 107/107/107 106/106/106 105/105/105
f 105/105/105 108/108/108 107/107/107
f 111/111/111 110/110/110 109/109/109
f 109/109/109 112/112/112 111/111/111
f 115/115/115 114/114/114 113/113/113
f 113/113/113 116/116/116 115/115/115
f 119/119/119 118/118/118 117/117/117
f 117/117/117 120/120/120 119/119/119
f 123/123/123 122/122/122 121/121/121
f 121/121/121 124/124/124 123/123/123
f 127/127/127 126/126/126 125/125/125
f 125/125/125 128/128/128 127/127/127
f 131/131/131 130/130/130 129/129/129
f 129/129/129 132/132/132 131/131/131
f 135/135/135 134/134/134 133/133/133
f 133/133/133 136/136/136 135/135/135
f 139/139/139 138/138/138 137/137/137
f 137/137/137 140/140/140 139/139/139
f 143/143/143 142/142/142 141/141/141
f 141/141/141 144/144/144 143/143/143
f 147/147/147 146/146/146 145/145/145
f 145/145/145 148/148/148 147/147/147
f 151/151/151 150/150/150 149/149/149
f 149/149/149 152/152/152 151/151/151
f 155/155/155 154/154/154 153/153/153
f 153/153/153 156/156/156 155/155/155
f 159/159/159 158/158/158 157/157/157
f 157/157/157 160/160/160 159/159/159
f 163/163/163 162/162/162 161/161/161
f 161/161/161 164/164/164 163/163/163
f 167/167/167 166/166/166 165/165/165
f 165/165/165 168/168/168 167/167/167
f 171/171/171 170/170/170 169/169/169
f 169/169/169 172/172/172 171/171/171
f 175/175/175 174/174/174 173/173/173
f 173/173/173 176/176/176 175/175/175
f 179/179/179 178/178/178 177/177/177
f 177/177/177 180/180/180 179/179/179
f 183/183/183 182/182/182 181/181/181
f 181/181/181 184/184/184 183/183/183
f 187/187/187 186/186/186 185/185/185
f 185/185/185 188/188/188 187/187/187
f 191/191/191 190/190/190 189/189/189
f 189/189/189 192/192/192 191/191/191
f 195/195/195 194/194/194 193/193/193
f 193/193/193 196/196/196 195/195/195
f 199/199/199 198/198/198 197/197/197
f 197/197/197 200/200/200 199/199/199
f 203/203/203 202/202/202 201/201/201
f 201/201/201 204/204/204 203/203/203
f 207/207/207 206/206/206 205/205/205
f 205/205/205 208/208/208 207/207/207
f 211/211/211 210/210/210 209/209/209
f 209/209/209 212/212/212 211/211/211
f 215/215/215 214/214/214 213/213/213
f 213/213/213 216/216/216 215/215/215
f 219/219/219 218/218/218 217/217/217
f 217/217/217 220/220/220 219/219/219
f 223/223/223 222/222/222 221/221/221
f 221/221/221 224/224/224 223/223/223
f 227/227/227 226/226/226 225/225/225
f 225/225/225 228/228/228 227/227/227
f 231/231/231 230/230/230 229/229/229
f 229/229/229 232/232/232 231/231/231
f 235/235/235 234/234/234 233/233/233
f 233/233/233 236/236/236 235/235/235
f 239/239/239 238/238/238 237/237/237
f 237/237/237 240/240/240 239/239/239
f 243/243/243 242/242/242 241/241/241
f 241/241/241 244/244/244 243/243/243
f 247/247/247 246/246/246 245/245/245
f 245/245/245 248/248/248 247/247/247
f 251/251/251 250/250/250 249/249/249
f 249/249/249 252/252/252 251/251/251
f 255/255/255 254/254/254 253/253/253
f 253/253/253 256/256/256 255/255/255
f 259/259/259 258/258/258 257/257/257
f 257/257/257 260/260/260 259/259/259
f 263/263/263 262/262/262 261/261/261
f 261/261/261 264/264/264 263/263/263
f 267/267/267 266/266/266 265/265/265
f 265/265/265 268/268/268 267/267/267
f 271/271/271 270/270/270 269/269/269
f 269/269/269 272/272/272 271/271/271
