g aisijimo_2-mesh
v -416 789 0
v -416 1557 0
v -1760 1557 0
v -1760 789 0
v -416 53 0
v -416 789 0
v -1760 789 0
v -1760 53 0
v -224 437 0
v -224 853 0
v -416 853 0
v -416 437 0
v -224 53 0
v -224 437 0
v -416 437 0
v -416 53 0
v -1760 213 0
v -1760 565 0
v -1952 565 0
v -1952 213 0
v -1760 565 0
v -1760 917 0
v -1952 917 0
v -1952 565 0
v -224 1237 0
v -224 1557 0
v -416 1557 0
v -416 1237 0
v -960 1557 0
v -960 1653 0
v -1600 1653 0
v -1600 1557 0
v -320 1557 0
v -320 1653 0
v -960 1653 0
v -960 1557 0
v -864 0 0
v -864 53 0
v -1184 53 0
v -1184 0 0
v -32 85 0
v -32 181 0
v -224 181 0
v -224 85 0
v -1184 0 0
v -1184 53 0
v -1472 53 0
v -1472 0 0
v -1760 917 0
v -1760 1077 0
v -1856 1077 0
v -1856 917 0
v -320 853 0
v -320 1013 0
v -416 1013 0
v -416 853 0
v -1760 85 0
v -1760 213 0
v -1856 213 0
v -1856 85 0
v -1760 1109 0
v -1760 1269 0
v -1824 1269 0
v -1824 1109 0
v -1760 1269 0
v -1760 1429 0
v -1824 1429 0
v -1824 1269 0
v -928 1653 0
v -928 1717 0
v -1088 1717 0
v -1088 1653 0
v -1952 469 0
v -1952 757 0
v -1984 757 0
v -1984 469 0
v -160 181 0
v -160 309 0
v -224 309 0
v -224 181 0
v -1088 1653 0
v -1088 1717 0
v -1216 1717 0
v -1216 1653 0
v -1952 213 0
v -1952 469 0
v -1984 469 0
v -1984 213 0
v -352 21 0
v -352 53 0
v -608 53 0
v -608 21 0
v -608 21 0
v -608 53 0
v -864 53 0
v -864 21 0
v -1600 1557 0
v -1600 1621 0
v -1696 1621 0
v -1696 1557 0
v -256 1557 0
v -256 1621 0
v -320 1621 0
v -320 1557 0
v -192 661 0
v -192 789 0
v -224 789 0
v -224 661 0
v -1984 245 0
v -1984 373 0
v -2016 373 0
v -2016 245 0
v -1984 373 0
v -1984 501 0
v -2016 501 0
v -2016 373 0
v -544 0 0
v -544 21 0
v -640 21 0
v -640 0 0
v -192 1269 0
v -192 1365 0
v -224 1365 0
v -224 1269 0
v -192 565 0
v -192 661 0
v -224 661 0
v -224 565 0
v -192 1365 0
v -192 1461 0
v -224 1461 0
v -224 1365 0
v -0 85 0
v -0 149 0
v -32 149 0
v -32 85 0
v -1856 149 0
v -1856 213 0
v -1888 213 0
v -1888 149 0
v -2016 277 0
v -2016 341 0
v -2047 341 0
v -2047 277 0
v -288 885 0
v -288 949 0
v -320 949 0
v -320 885 0
v -160 53 0
v -160 85 0
v -224 85 0
v -224 53 0
v -352 1173 0
v -352 1205 0
v -416 1205 0
v -416 1173 0
v -1952 789 0
v -1952 853 0
v -1984 853 0
v -1984 789 0
v -1760 1429 0
v -1760 1493 0
v -1792 1493 0
v -1792 1429 0
v -2016 405 0
v -2016 469 0
v -2047 469 0
v -2047 405 0
v -192 1621 0
v -192 1653 0
v -256 1653 0
v -256 1621 0
v -1472 21 0
v -1472 53 0
v -1536 53 0
v -1536 21 0
v -192 981 0
v -192 1013 0
v -256 1013 0
v -256 981 0
v -256 981 0
v -256 1013 0
v -320 1013 0
v -320 981 0
v -352 1205 0
v -352 1237 0
v -416 1237 0
v -416 1205 0
v -640 0 0
v -640 21 0
v -704 21 0
v -704 0 0
v -288 1205 0
v -288 1237 0
v -352 1237 0
v -352 1205 0
v -384 1045 0
v -384 1109 0
v -416 1109 0
v -416 1045 0
v -1856 949 0
v -1856 1013 0
v -1888 1013 0
v -1888 949 0
v -832 1653 0
v -832 1685 0
v -896 1685 0
v -896 1653 0
v -192 1493 0
v -192 1525 0
v -224 1525 0
v -224 1493 0
v -192 1173 0
v -192 1205 0
v -224 1205 0
v -224 1173 0
v -1888 917 0
v -1888 949 0
v -1920 949 0
v -1920 917 0
v -256 853 0
v -256 885 0
v -288 885 0
v -288 853 0
v -192 309 0
v -192 341 0
v -224 341 0
v -224 309 0
v -384 1141 0
v -384 1173 0
v -416 1173 0
v -416 1141 0
v -1760 1077 0
v -1760 1109 0
v -1792 1109 0
v -1792 1077 0
v -352 1013 0
v -352 1045 0
v -384 1045 0
v -384 1013 0
v -1856 917 0
v -1856 949 0
v -1888 949 0
v -1888 917 0
v -288 853 0
v -288 885 0
v -320 885 0
v -320 853 0
v -896 1653 0
v -896 1685 0
v -928 1685 0
v -928 1653 0
v -384 1013 0
v -384 1045 0
v -416 1045 0
v -416 1013 0
v -1216 1653 0
v -1216 1685 0
v -1248 1685 0
v -1248 1653 0
v -1696 1557 0
v -1696 1589 0
v -1728 1589 0
v -1728 1557 0
v -2016 245 0
v -2016 277 0
v -2047 277 0
v -2047 245 0
v -1856 117 0
v -1856 149 0
v -1888 149 0
v -1888 117 0
vt 0.00048828125 0.000622689724
vt 0.00048828125 0.478829384
vt 0.656738281 0.478829384
vt 0.656738281 0.000622689724
vt 0.00048828125 0.480074704
vt 0.00048828125 0.938356161
vt 0.656738281 0.938356161
vt 0.656738281 0.480074704
vt 0.657714844 0.000622689724
vt 0.657714844 0.259651303
vt 0.751464844 0.259651303
vt 0.751464844 0.000622689724
vt 0.752441406 0.000622689724
vt 0.752441406 0.239726007
vt 0.846191406 0.239726007
vt 0.846191406 0.000622689724
vt 0.847167969 0.000622689724
vt 0.847167969 0.21980077
vt 0.940917969 0.21980077
vt 0.940917969 0.000622689724
vt 0.847167969 0.22104609
vt 0.847167969 0.440224171
vt 0.940917969 0.440224171
vt 0.940917969 0.22104609
vt 0.752441406 0.240971386
vt 0.752441406 0.440224171
vt 0.846191406 0.440224171
vt 0.846191406 0.240971386
vt 0.00048828125 0.939601481
vt 0.00048828125 0.99937731
vt 0.312988281 0.99937731
vt 0.312988281 0.939601481
vt 0.313964844 0.939601481
vt 0.313964844 0.99937731
vt 0.626464844 0.99937731
vt 0.626464844 0.939601481
vt 0.752441406 0.441469491
vt 0.752441406 0.475093424
vt 0.908691406 0.475093424
vt 0.908691406 0.441469491
vt 0.657714844 0.260896623
vt 0.657714844 0.320672452
vt 0.751464844 0.320672452
vt 0.751464844 0.260896623
vt 0.752441406 0.476338744
vt 0.752441406 0.509962678
vt 0.893066406 0.509962678
vt 0.893066406 0.476338744
vt 0.941894531 0.000622689724
vt 0.941894531 0.100249052
vt 0.988769531 0.100249052
vt 0.988769531 0.000622689724
vt 0.941894531 0.101494372
vt 0.941894531 0.201120794
vt 0.988769531 0.201120794
vt 0.988769531 0.101494372
vt 0.941894531 0.202366114
vt 0.941894531 0.282067239
vt 0.988769531 0.282067239
vt 0.988769531 0.202366114
vt 0.941894531 0.283312559
vt 0.941894531 0.382938981
vt 0.973144531 0.382938981
vt 0.973144531 0.283312559
vt 0.657714844 0.321917832
vt 0.657714844 0.421544194
vt 0.688964844 0.421544194
vt 0.688964844 0.321917832
vt 0.657714844 0.422789514
vt 0.657714844 0.462640107
vt 0.735839844 0.462640107
vt 0.735839844 0.422789514
vt 0.974121094 0.283312559
vt 0.974121094 0.462640107
vt 0.989746094 0.462640107
vt 0.989746094 0.283312559
vt 0.941894531 0.384184301
vt 0.941894531 0.463885427
vt 0.973144531 0.463885427
vt 0.973144531 0.384184301
vt 0.657714844 0.463885427
vt 0.657714844 0.503736019
vt 0.720214844 0.503736019
vt 0.720214844 0.463885427
vt 0.909667969 0.441469491
vt 0.909667969 0.600871742
vt 0.925292969 0.600871742
vt 0.925292969 0.441469491
vt 0.752441406 0.511207938
vt 0.752441406 0.531133294
vt 0.877441406 0.531133294
vt 0.877441406 0.511207938
vt 0.752441406 0.532378554
vt 0.752441406 0.552303851
vt 0.877441406 0.552303851
vt 0.877441406 0.532378554
vt 0.941894531 0.465130746
vt 0.941894531 0.504981279
vt 0.988769531 0.504981279
vt 0.988769531 0.465130746
vt 0.657714844 0.504981279
vt 0.657714844 0.544831872
vt 0.688964844 0.544831872
vt 0.688964844 0.504981279
vt 0.721191406 0.463885427
vt 0.721191406 0.543586552
vt 0.736816406 0.543586552
vt 0.736816406 0.463885427
vt 0.689941406 0.504981279
vt 0.689941406 0.584682465
vt 0.705566406 0.584682465
vt 0.705566406 0.504981279
vt 0.941894531 0.506226659
vt 0.941894531 0.585927784
vt 0.957519531 0.585927784
vt 0.957519531 0.506226659
vt 0.752441406 0.55354917
vt 0.752441406 0.567247808
vt 0.799316406 0.567247808
vt 0.799316406 0.55354917
vt 0.958496094 0.506226659
vt 0.958496094 0.566002488
vt 0.974121094 0.566002488
vt 0.974121094 0.506226659
vt 0.975097656 0.506226659
vt 0.975097656 0.566002488
vt 0.990722656 0.566002488
vt 0.990722656 0.506226659
vt 0.878417969 0.511207938
vt 0.878417969 0.570983768
vt 0.894042969 0.570983768
vt 0.894042969 0.511207938
vt 0.721191406 0.544831872
vt 0.721191406 0.584682465
vt 0.736816406 0.584682465
vt 0.736816406 0.544831872
vt 0.657714844 0.546077251
vt 0.657714844 0.585927784
vt 0.673339844 0.585927784
vt 0.673339844 0.546077251
vt 0.800292969 0.55354917
vt 0.800292969 0.593399763
vt 0.815917969 0.593399763
vt 0.815917969 0.55354917
vt 0.816894531 0.55354917
vt 0.816894531 0.593399763
vt 0.832519531 0.593399763
vt 0.832519531 0.55354917
vt 0.833496094 0.55354917
vt 0.833496094 0.573474467
vt 0.864746094 0.573474467
vt 0.864746094 0.55354917
vt 0.958496094 0.567247808
vt 0.958496094 0.587173104
vt 0.989746094 0.587173104
vt 0.989746094 0.567247808
vt 0.752441406 0.568493128
vt 0.752441406 0.60834372
vt 0.768066406 0.60834372
vt 0.768066406 0.568493128
vt 0.769042969 0.568493128
vt 0.769042969 0.60834372
vt 0.784667969 0.60834372
vt 0.784667969 0.568493128
vt 0.878417969 0.572229147
vt 0.878417969 0.61207974
vt 0.894042969 0.61207974
vt 0.894042969 0.572229147
vt 0.833496094 0.574719787
vt 0.833496094 0.594645083
vt 0.864746094 0.594645083
vt 0.864746094 0.574719787
vt 0.689941406 0.585927784
vt 0.689941406 0.605853081
vt 0.721191406 0.605853081
vt 0.721191406 0.585927784
vt 0.657714844 0.587173104
vt 0.657714844 0.607098341
vt 0.688964844 0.607098341
vt 0.688964844 0.587173104
vt 0.958496094 0.588418424
vt 0.958496094 0.60834372
vt 0.989746094 0.60834372
vt 0.989746094 0.588418424
vt 0.800292969 0.594645083
vt 0.800292969 0.614570379
vt 0.831542969 0.614570379
vt 0.831542969 0.594645083
vt 0.833496094 0.595890403
vt 0.833496094 0.60958904
vt 0.864746094 0.60958904
vt 0.864746094 0.595890403
vt 0.909667969 0.602117062
vt 0.909667969 0.622042298
vt 0.940917969 0.622042298
vt 0.940917969 0.602117062
vt 0.722167969 0.585927784
vt 0.722167969 0.625778317
vt 0.737792969 0.625778317
vt 0.737792969 0.585927784
vt 0.941894531 0.587173104
vt 0.941894531 0.627023697
vt 0.957519531 0.627023697
vt 0.957519531 0.587173104
vt 0.689941406 0.607098341
vt 0.689941406 0.627023697
vt 0.721191406 0.627023697
vt 0.721191406 0.607098341
vt 0.657714844 0.60834372
vt 0.657714844 0.628268957
vt 0.673339844 0.628268957
vt 0.673339844 0.60834372
vt 0.752441406 0.60958904
vt 0.752441406 0.629514337
vt 0.768066406 0.629514337
vt 0.768066406 0.60958904
vt 0.769042969 0.60958904
vt 0.769042969 0.629514337
vt 0.784667969 0.629514337
vt 0.784667969 0.60958904
vt 0.958496094 0.60958904
vt 0.958496094 0.629514337
vt 0.974121094 0.629514337
vt 0.974121094 0.60958904
vt 0.975097656 0.60958904
vt 0.975097656 0.629514337
vt 0.990722656 0.629514337
vt 0.990722656 0.60958904
vt 0.833496094 0.61083436
vt 0.833496094 0.630759656
vt 0.849121094 0.630759656
vt 0.849121094 0.61083436
vt 0.850097656 0.61083436
vt 0.850097656 0.630759656
vt 0.865722656 0.630759656
vt 0.865722656 0.61083436
vt 0.878417969 0.613325
vt 0.878417969 0.633250356
vt 0.894042969 0.633250356
vt 0.894042969 0.613325
vt 0.800292969 0.615815699
vt 0.800292969 0.635740995
vt 0.815917969 0.635740995
vt 0.815917969 0.615815699
vt 0.816894531 0.615815699
vt 0.816894531 0.635740995
vt 0.832519531 0.635740995
vt 0.832519531 0.615815699
vt 0.909667969 0.623287678
vt 0.909667969 0.643212914
vt 0.925292969 0.643212914
vt 0.925292969 0.623287678
vt 0.722167969 0.627023697
vt 0.722167969 0.646948934
vt 0.737792969 0.646948934
vt 0.737792969 0.627023697
vt 0.689941406 0.628268957
vt 0.689941406 0.648194313
vt 0.705566406 0.648194313
vt 0.705566406 0.628268957
vt 0.941894531 0.628268957
vt 0.941894531 0.648194313
vt 0.957519531 0.648194313
vt 0.957519531 0.628268957
vt 0.657714844 0.629514337
vt 0.657714844 0.649439573
vt 0.673339844 0.649439573
vt 0.673339844 0.629514337
vt 0.752441406 0.630759656
vt 0.752441406 0.650684953
vt 0.768066406 0.650684953
vt 0.768066406 0.630759656
g aisijimo_2-mesh_0
f 3/3/3 2/2/2 1/1/1
f 1/1/1 4/4/4 3/3/3
f 7/7/7 6/6/6 5/5/5
f 5/5/5 8/8/8 7/7/7
f 11/11/11 10/10/10 9/9/9
f 9/9/9 12/12/12 11/11/11
f 15/15/15 14/14/14 13/13/13
f 13/13/13 16/16/16 15/15/15
f 19/19/19 18/18/18 17/17/17
f 17/17/17 20/20/20 19/19/19
f 23/23/23 22/22/22 21/21/21
f 21/21/21 24/24/24 23/23/23
f 27/27/27 26/26/26 25/25/25
f 25/25/25 28/28/28 27/27/27
f 31/31/31 30/30/30 29/29/29
f 29/29/29 32/32/32 31/31/31
f 35/35/35 34/34/34 33/33/33
f 33/33/33 36/36/36 35/35/35
f 39/39/39 38/38/38 37/37/37
f 37/37/37 40/40/40 39/39/39
f 43/43/43 42/42/42 41/41/41
f 41/41/41 44/44/44 43/43/43
f 47/47/47 46/46/46 45/45/45
f 45/45/45 48/48/48 47/47/47
f 51/51/51 50/50/50 49/49/49
f 49/49/49 52/52/52 51/51/51
f 55/55/55 54/54/54 53/53/53
f 53/53/53 56/56/56 55/55/55
f 59/59/59 58/58/58 57/57/57
f 57/57/57 60/60/60 59/59/59
f 63/63/63 62/62/62 61/61/61
f 61/61/61 64/64/64 63/63/63
f 67/67/67 66/66/66 65/65/65
f 65/65/65 68/68/68 67/67/67
f 71/71/71 70/70/70 69/69/69
f 69/69/69 72/72/72 71/71/71
f 75/75/75 74/74/74 73/73/73
f 73/73/73 76/76/76 75/75/75
f 79/79/79 78/78/78 77/77/77
f 77/77/77 80/80/80 79/79/79
f 83/83/83 82/82/82 81/81/81
f 81/81/81 84/84/84 83/83/83
f 87/87/87 86/86/86 85/85/85
f 85/85/85 88/88/88 87/87/87
f 91/91/91 90/90/90 89/89/89
f 89/89/89 92/92/92 91/91/91
f 95/95/95 94/94/94 93/93/93
f 93/93/93 96/96/96 95/95/95
f 99/99/99 98/98/98 97/97/97
f 97/97/97 100/100/100 99/99/99
f 103/103/103 102/102/102 101/101/101
f 101/101/101 104/104/104 103/103/103
f 107/107/107 106/106/106 105/105/105
f 105/105/105 108/108/108 107/107/107
f 111/111/111 110/110/110 109/109/109
f 109/109/109 112/112/112 111/111/111
f 115/115/115 114/114/114 113/113/113
f 113/113/113 116/116/116 115/115/115
f 119/119/119 118/118/118 117/117/117
f 117/117/117 120/120/120 119/119/119
f 123/123/123 122/122/122 121/121/121
f 121/121/121 124/124/124 123/123/123
f 127/127/127 126/126/126 125/125/125
f 125/125/125 128/128/128 127/127/127
f 131/131/131 130/130/130 129/129/129
f 129/129/129 132/132/132 131/131/131
f 135/135/135 134/134/134 133/133/133
f 133/133/133 136/136/136 135/135/135
f 139/139/139 138/138/138 137/137/137
f 137/137/137 140/140/140 139/139/139
f 143/143/143 142/142/142 141/141/141
f 141/141/141 144/144/144 143/143/143
f 147/147/147 146/146/146 145/145/145
f 145/145/145 148/148/148 147/147/147
f 151/151/151 150/150/150 149/149/149
f 149/149/149 152/152/152 151/151/151
f 155/155/155 154/154/154 153/153/153
f 153/153/153 156/156/156 155/155/155
f 159/159/159 158/158/158 157/157/157
f 157/157/157 160/160/160 159/159/159
f 163/163/163 162/162/162 161/161/161
f 161/161/161 164/164/164 163/163/163
f 167/167/167 166/166/166 165/165/165
f 165/165/165 168/168/168 167/167/167
f 171/171/171 170/170/170 169/169/169
f 169/169/169 172/172/172 171/171/171
f 175/175/175 174/174/174 173/173/173
f 173/173/173 176/176/176 175/175/175
f 179/179/179 178/178/178 177/177/177
f 177/177/177 180/180/180 179/179/179
f 183/183/183 182/182/182 181/181/181
f 181/181/181 184/184/184 183/183/183
f 187/187/187 186/186/186 185/185/185
f 185/185/185 188/188/188 187/187/187
f 191/191/191 190/190/190 189/189/189
f 189/189/189 192/192/192 191/191/191
f 195/195/195 194/194/194 193/193/193
f 193/193/193 196/196/196 195/195/195
f 199/199/199 198/198/198 197/197/197
f 197/197/197 200/200/200 199/199/199
f 203/203/203 202/202/202 201/201/201
f 201/201/201 204/204/204 203/203/203
f 207/207/207 206/206/206 205/205/205
f 205/205/205 208/208/208 207/207/207
f 211/211/211 210/210/210 209/209/209
f 209/209/209 212/212/212 211/211/211
f 215/215/215 214/214/214 213/213/213
f 213/213/213 216/216/216 215/215/215
f 219/219/219 218/218/218 217/217/217
f 217/217/217 220/220/220 219/219/219
f 223/223/223 222/222/222 221/221/221
f 221/221/221 224/224/224 223/223/223
f 227/227/227 226/226/226 225/225/225
f 225/225/225 228/228/228 227/227/227
f 231/231/231 230/230/230 229/229/229
f 229/229/229 232/232/232 231/231/231
f 235/235/235 234/234/234 233/233/233
f 233/233/233 236/236/236 235/235/235
f 239/239/239 238/238/238 237/237/237
f 237/237/237 240/240/240 239/239/239
f 243/243/243 242/242/242 241/241/241
f 241/241/241 244/244/244 243/243/243
f 247/247/247 246/246/246 245/245/245
f 245/245/245 248/248/248 247/247/247
f 251/251/251 250/250/250 249/249/249
f 249/249/249 252/252/252 251/251/251
f 255/255/255 254/254/254 253/253/253
f 253/253/253 256/256/256 255/255/255
f 259/259/259 258/258/258 257/257/257
f 257/257/257 260/260/260 259/259/259
f 263/263/263 262/262/262 261/261/261
f 261/261/261 264/264/264 263/263/263
f 267/267/267 266/266/266 265/265/265
f 265/265/265 268/268/268 267/267/267
f 271/271/271 270/270/270 269/269/269
f 269/269/269 272/272/272 271/271/271
