g Z13_rw-mesh
v -576 751 0
v -576 1135 0
v -1056 1135 0
v -1056 751 0
v -1056 751 0
v -1056 1135 0
v -1504 1135 0
v -1504 751 0
v -1536 79 0
v -1536 463 0
v -1856 463 0
v -1856 79 0
v -704 1135 0
v -704 1295 0
v -1184 1295 0
v -1184 1135 0
v -1184 1135 0
v -1184 1295 0
v -1632 1295 0
v -1632 1135 0
v -608 495 0
v -608 751 0
v -768 751 0
v -768 495 0
v -1216 1423 0
v -1216 1711 0
v -1344 1711 0
v -1344 1423 0
v -608 271 0
v -608 495 0
v -768 495 0
v -768 271 0
v -64 143 0
v -64 271 0
v -320 271 0
v -320 143 0
v -448 303 0
v -448 463 0
v -608 463 0
v -608 303 0
v -1824 559 0
v -1824 719 0
v -1984 719 0
v -1984 559 0
v -768 655 0
v -768 719 0
v -1120 719 0
v -1120 655 0
v -1120 655 0
v -1120 719 0
v -1440 719 0
v -1440 655 0
v -1216 271 0
v -1216 527 0
v -1280 527 0
v -1280 271 0
v -1760 719 0
v -1760 815 0
v -1920 815 0
v -1920 719 0
v -320 175 0
v -320 335 0
v -416 335 0
v -416 175 0
v -1216 47 0
v -1216 271 0
v -1280 271 0
v -1280 47 0
v -1408 463 0
v -1408 559 0
v -1536 559 0
v -1536 463 0
v -1536 463 0
v -1536 559 0
v -1664 559 0
v -1664 463 0
v -32 1007 0
v -32 1135 0
v -128 1135 0
v -128 1007 0
v -1120 719 0
v -1120 751 0
v -1472 751 0
v -1472 719 0
v -768 719 0
v -768 751 0
v -1120 751 0
v -1120 719 0
v -1216 1295 0
v -1216 1391 0
v -1312 1391 0
v -1312 1295 0
v -1440 367 0
v -1440 463 0
v -1536 463 0
v -1536 367 0
v -768 623 0
v -768 655 0
v -1024 655 0
v -1024 623 0
v -224 1135 0
v -224 1199 0
v -352 1199 0
v -352 1135 0
v -448 1007 0
v -448 1071 0
v -576 1071 0
v -576 1007 0
v -96 1135 0
v -96 1199 0
v -224 1199 0
v -224 1135 0
v -1856 271 0
v -1856 399 0
v -1920 399 0
v -1920 271 0
v -1024 623 0
v -1024 655 0
v -1248 655 0
v -1248 623 0
v -768 591 0
v -768 623 0
v -960 623 0
v -960 591 0
v -960 591 0
v -960 623 0
v -1152 623 0
v -1152 591 0
v -1280 15 0
v -1280 79 0
v -1376 79 0
v -1376 15 0
v -544 463 0
v -544 559 0
v -608 559 0
v -608 463 0
v -1536 1071 0
v -1536 1135 0
v -1632 1135 0
v -1632 1071 0
v -1856 175 0
v -1856 271 0
v -1920 271 0
v -1920 175 0
v -128 79 0
v -128 143 0
v -224 143 0
v -224 79 0
v -1504 943 0
v -1504 1135 0
v -1536 1135 0
v -1536 943 0
v -1664 815 0
v -1664 879 0
v -1760 879 0
v -1760 815 0
v -1248 527 0
v -1248 591 0
v -1344 591 0
v -1344 527 0
v -1184 271 0
v -1184 431 0
v -1216 431 0
v -1216 271 0
v -1504 783 0
v -1504 943 0
v -1536 943 0
v -1536 783 0
v -416 1071 0
v -416 1135 0
v -480 1135 0
v -480 1071 0
v -1280 591 0
v -1280 655 0
v -1344 655 0
v -1344 591 0
v -1664 463 0
v -1664 527 0
v -1728 527 0
v -1728 463 0
v -1536 815 0
v -1536 879 0
v -1600 879 0
v -1600 815 0
v -1632 1167 0
v -1632 1231 0
v -1696 1231 0
v -1696 1167 0
v -352 1103 0
v -352 1167 0
v -416 1167 0
v -416 1103 0
v -1600 847 0
v -1600 911 0
v -1664 911 0
v -1664 847 0
v -1216 1711 0
v -1216 1775 0
v -1280 1775 0
v -1280 1711 0
v -1376 15 0
v -1376 79 0
v -1440 79 0
v -1440 15 0
v -1760 815 0
v -1760 879 0
v -1824 879 0
v -1824 815 0
v -224 79 0
v -224 143 0
v -288 143 0
v -288 79 0
v -1344 527 0
v -1344 591 0
v -1408 591 0
v -1408 527 0
v -1184 143 0
v -1184 271 0
v -1216 271 0
v -1216 143 0
v -1568 47 0
v -1568 79 0
v -1696 79 0
v -1696 47 0
v -1696 47 0
v -1696 79 0
v -1824 79 0
v -1824 47 0
v -768 559 0
v -768 591 0
v -896 591 0
v -896 559 0
v -896 559 0
v -896 591 0
v -1024 591 0
v -1024 559 0
v -416 239 0
v -416 335 0
v -448 335 0
v -448 239 0
v -416 335 0
v -416 431 0
v -448 431 0
v -448 335 0
v -1984 591 0
v -1984 687 0
v -2016 687 0
v -2016 591 0
v -1664 879 0
v -1664 911 0
v -1728 911 0
v -1728 879 0
v -1536 1007 0
v -1536 1071 0
v -1568 1071 0
v -1568 1007 0
v -1344 623 0
v -1344 655 0
v -1408 655 0
v -1408 623 0
v -1696 783 0
v -1696 815 0
v -1760 815 0
v -1760 783 0
v -2016 591 0
v -2016 655 0
v -2047 655 0
v -2047 591 0
v -640 1135 0
v -640 1167 0
v -704 1167 0
v -704 1135 0
v -1216 1391 0
v -1216 1423 0
v -1280 1423 0
v -1280 1391 0
v -1312 0 0
v -1312 15 0
v -1376 15 0
v -1376 0 0
v -1312 1295 0
v -1312 1359 0
v -1344 1359 0
v -1344 1295 0
v -1536 1295 0
v -1536 1327 0
v -1600 1327 0
v -1600 1295 0
v -1440 1295 0
v -1440 1327 0
v -1504 1327 0
v -1504 1295 0
v -704 239 0
v -704 271 0
v -768 271 0
v -768 239 0
v -448 271 0
v -448 303 0
v -512 303 0
v -512 271 0
v -1280 79 0
v -1280 143 0
v -1312 143 0
v -1312 79 0
v -1856 111 0
v -1856 175 0
v -1888 175 0
v -1888 111 0
v -352 143 0
v -352 175 0
v -416 175 0
v -416 143 0
v -288 271 0
v -288 335 0
v -320 335 0
v -320 271 0
v -480 463 0
v -480 495 0
v -544 495 0
v -544 463 0
v -1888 527 0
v -1888 559 0
v -1952 559 0
v -1952 527 0
v -768 367 0
v -768 431 0
v -800 431 0
v -800 367 0
v -1472 335 0
v -1472 367 0
v -1536 367 0
v -1536 335 0
v -384 335 0
v -384 399 0
v -416 399 0
v -416 335 0
v -0 1039 0
v -0 1103 0
v -32 1103 0
v -32 1039 0
v -1984 527 0
v -1984 591 0
v -2016 591 0
v -2016 527 0
v -544 879 0
v -544 943 0
v -576 943 0
v -576 879 0
v -768 527 0
v -768 559 0
v -832 559 0
v -832 527 0
v -128 1071 0
v -128 1135 0
v -160 1135 0
v -160 1071 0
v -1504 111 0
v -1504 175 0
v -1536 175 0
v -1536 111 0
v -1504 175 0
v -1504 239 0
v -1536 239 0
v -1536 175 0
v -544 943 0
v -544 1007 0
v -576 1007 0
v -576 943 0
v -1344 1615 0
v -1344 1679 0
v -1376 1679 0
v -1376 1615 0
v -128 47 0
v -128 79 0
v -192 79 0
v -192 47 0
v -1376 79 0
v -1376 111 0
v -1440 111 0
v -1440 79 0
v -1280 463 0
v -1280 527 0
v -1312 527 0
v -1312 463 0
v -1664 15 0
v -1664 47 0
v -1728 47 0
v -1728 15 0
v -64 271 0
v -64 303 0
v -128 303 0
v -128 271 0
v -1824 815 0
v -1824 847 0
v -1856 847 0
v -1856 815 0
v -1728 751 0
v -1728 783 0
v -1760 783 0
v -1760 751 0
v -1536 783 0
v -1536 815 0
v -1568 815 0
v -1568 783 0
v -768 495 0
v -768 527 0
v -800 527 0
v -800 495 0
v -576 559 0
v -576 591 0
v -608 591 0
v -608 559 0
v -1248 591 0
v -1248 623 0
v -1280 623 0
v -1280 591 0
v -1792 687 0
v -1792 719 0
v -1824 719 0
v -1824 687 0
v -1376 495 0
v -1376 527 0
v -1408 527 0
v -1408 495 0
v -32 239 0
v -32 271 0
v -64 271 0
v -64 239 0
v -576 271 0
v -576 303 0
v -608 303 0
v -608 271 0
v -1408 111 0
v -1408 143 0
v -1440 143 0
v -1440 111 0
v -1440 47 0
v -1440 79 0
v -1472 79 0
v -1472 47 0
v -1312 79 0
v -1312 111 0
v -1344 111 0
v -1344 79 0
v -1856 399 0
v -1856 431 0
v -1888 431 0
v -1888 399 0
v -1728 463 0
v -1728 495 0
v -1760 495 0
v -1760 463 0
v -352 335 0
v -352 367 0
v -384 367 0
v -384 335 0
v -256 271 0
v -256 303 0
v -288 303 0
v -288 271 0
v -1504 303 0
v -1504 335 0
v -1536 335 0
v -1536 303 0
v -1568 1039 0
v -1568 1071 0
v -1600 1071 0
v -1600 1039 0
v -832 527 0
v -832 559 0
v -864 559 0
v -864 527 0
v -1280 431 0
v -1280 463 0
v -1312 463 0
v -1312 431 0
v -128 1039 0
v -128 1071 0
v -160 1071 0
v -160 1039 0
v -0 1007 0
v -0 1039 0
v -32 1039 0
v -32 1007 0
v -128 271 0
v -128 303 0
v -160 303 0
v -160 271 0
v -1376 0 0
v -1376 15 0
v -1408 15 0
v -1408 0 0
v -1728 15 0
v -1728 47 0
v -1760 47 0
v -1760 15 0
v -1440 79 0
v -1440 111 0
v -1472 111 0
v -1472 79 0
v -192 47 0
v -192 79 0
v -224 79 0
v -224 47 0
v -160 1103 0
v -160 1135 0
v -192 1135 0
v -192 1103 0
v -1632 1231 0
v -1632 1263 0
v -1664 1263 0
v -1664 1231 0
v -544 1071 0
v -544 1103 0
v -576 1103 0
v -576 1071 0
v -480 1071 0
v -480 1103 0
v -512 1103 0
v -512 1071 0
v -1344 1295 0
v -1344 1327 0
v -1376 1327 0
v -1376 1295 0
v -1280 1711 0
v -1280 1743 0
v -1312 1743 0
v -1312 1711 0
v -1344 1583 0
v -1344 1615 0
v -1376 1615 0
v -1376 1583 0
v -1344 1519 0
v -1344 1551 0
v -1376 1551 0
v -1376 1519 0
v -1376 1647 0
v -1376 1679 0
v -1408 1679 0
v -1408 1647 0
vt 0.00048828125 0.0013333559
vt 0.00048828125 0.513333321
vt 0.234863281 0.513333321
vt 0.234863281 0.0013333559
vt 0.235839844 0.0013333559
vt 0.235839844 0.513333321
vt 0.454589844 0.513333321
vt 0.454589844 0.0013333559
vt 0.455566406 0.0013333559
vt 0.455566406 0.513333321
vt 0.611816406 0.513333321
vt 0.611816406 0.0013333559
vt 0.612792969 0.0013333559
vt 0.612792969 0.214666665
vt 0.847167969 0.214666665
vt 0.847167969 0.0013333559
vt 0.612792969 0.217333317
vt 0.612792969 0.430666685
vt 0.831542969 0.430666685
vt 0.831542969 0.217333317
vt 0.848144531 0.0013333559
vt 0.848144531 0.342666686
vt 0.926269531 0.342666686
vt 0.926269531 0.0013333559
vt 0.927246094 0.0013333559
vt 0.927246094 0.385333359
vt 0.989746094 0.385333359
vt 0.989746094 0.0013333559
vt 0.848144531 0.345333338
vt 0.848144531 0.643999994
vt 0.926269531 0.643999994
vt 0.926269531 0.345333338
vt 0.612792969 0.433333337
vt 0.612792969 0.603999972
vt 0.737792969 0.603999972
vt 0.737792969 0.433333337
vt 0.738769531 0.433333337
vt 0.738769531 0.646666646
vt 0.816894531 0.646666646
vt 0.816894531 0.433333337
vt 0.00048828125 0.516000032
vt 0.00048828125 0.729333341
vt 0.0786132812 0.729333341
vt 0.0786132812 0.516000032
vt 0.0795898438 0.516000032
vt 0.0795898438 0.60133332
vt 0.251464844 0.60133332
vt 0.251464844 0.516000032
vt 0.252441406 0.516000032
vt 0.252441406 0.60133332
vt 0.408691406 0.60133332
vt 0.408691406 0.516000032
vt 0.927246094 0.388000011
vt 0.927246094 0.729333341
vt 0.958496094 0.729333341
vt 0.958496094 0.388000011
vt 0.409667969 0.516000032
vt 0.409667969 0.643999994
vt 0.487792969 0.643999994
vt 0.487792969 0.516000032
vt 0.488769531 0.516000032
vt 0.488769531 0.729333341
vt 0.535644531 0.729333341
vt 0.535644531 0.516000032
vt 0.959472656 0.388000011
vt 0.959472656 0.686666667
vt 0.990722656 0.686666667
vt 0.990722656 0.388000011
vt 0.536621094 0.516000032
vt 0.536621094 0.643999994
vt 0.599121094 0.643999994
vt 0.599121094 0.516000032
vt 0.0795898438 0.603999972
vt 0.0795898438 0.731999993
vt 0.142089844 0.731999993
vt 0.142089844 0.603999972
vt 0.143066406 0.603999972
vt 0.143066406 0.774666667
vt 0.189941406 0.774666667
vt 0.189941406 0.603999972
vt 0.190917969 0.603999972
vt 0.190917969 0.646666646
vt 0.362792969 0.646666646
vt 0.362792969 0.603999972
vt 0.536621094 0.646666646
vt 0.536621094 0.68933332
vt 0.708496094 0.68933332
vt 0.708496094 0.646666646
vt 0.409667969 0.646666646
vt 0.409667969 0.774666667
vt 0.456542969 0.774666667
vt 0.456542969 0.646666646
vt 0.848144531 0.646666646
vt 0.848144531 0.774666667
vt 0.895019531 0.774666667
vt 0.895019531 0.646666646
vt 0.190917969 0.649333358
vt 0.190917969 0.692000031
vt 0.315917969 0.692000031
vt 0.315917969 0.649333358
vt 0.316894531 0.649333358
vt 0.316894531 0.734666705
vt 0.379394531 0.734666705
vt 0.379394531 0.649333358
vt 0.738769531 0.649333358
vt 0.738769531 0.734666705
vt 0.801269531 0.734666705
vt 0.801269531 0.649333358
vt 0.536621094 0.692000031
vt 0.536621094 0.777333319
vt 0.599121094 0.777333319
vt 0.599121094 0.692000031
vt 0.802246094 0.649333358
vt 0.802246094 0.819999993
vt 0.833496094 0.819999993
vt 0.833496094 0.649333358
vt 0.600097656 0.692000031
vt 0.600097656 0.734666705
vt 0.709472656 0.734666705
vt 0.709472656 0.692000031
vt 0.190917969 0.694666624
vt 0.190917969 0.737333298
vt 0.284667969 0.737333298
vt 0.284667969 0.694666624
vt 0.600097656 0.737333298
vt 0.600097656 0.779999971
vt 0.693847656 0.779999971
vt 0.693847656 0.737333298
vt 0.00048828125 0.731999993
vt 0.00048828125 0.817333341
vt 0.0473632812 0.817333341
vt 0.0473632812 0.731999993
vt 0.959472656 0.68933332
vt 0.959472656 0.817333341
vt 0.990722656 0.817333341
vt 0.990722656 0.68933332
vt 0.488769531 0.731999993
vt 0.488769531 0.817333341
vt 0.535644531 0.817333341
vt 0.535644531 0.731999993
vt 0.927246094 0.731999993
vt 0.927246094 0.860000014
vt 0.958496094 0.860000014
vt 0.958496094 0.731999993
vt 0.0795898438 0.734666705
vt 0.0795898438 0.819999993
vt 0.126464844 0.819999993
vt 0.126464844 0.734666705
vt 0.380371094 0.603999972
vt 0.380371094 0.860000014
vt 0.395996094 0.860000014
vt 0.395996094 0.603999972
vt 0.316894531 0.737333298
vt 0.316894531 0.822666645
vt 0.363769531 0.822666645
vt 0.363769531 0.737333298
vt 0.694824219 0.737333298
vt 0.694824219 0.822666645
vt 0.741699219 0.822666645
vt 0.741699219 0.737333298
vt 0.457519531 0.646666646
vt 0.457519531 0.860000014
vt 0.473144531 0.860000014
vt 0.473144531 0.646666646
vt 0.895996094 0.646666646
vt 0.895996094 0.860000014
vt 0.911621094 0.860000014
vt 0.911621094 0.646666646
vt 0.742675781 0.737333298
vt 0.742675781 0.822666645
vt 0.773925781 0.822666645
vt 0.773925781 0.737333298
vt 0.190917969 0.74000001
vt 0.190917969 0.825333357
vt 0.222167969 0.825333357
vt 0.222167969 0.74000001
vt 0.223144531 0.74000001
vt 0.223144531 0.825333357
vt 0.254394531 0.825333357
vt 0.254394531 0.74000001
vt 0.255371094 0.74000001
vt 0.255371094 0.825333357
vt 0.286621094 0.825333357
vt 0.286621094 0.74000001
vt 0.143066406 0.777333319
vt 0.143066406 0.862666667
vt 0.174316406 0.862666667
vt 0.174316406 0.777333319
vt 0.409667969 0.777333319
vt 0.409667969 0.862666667
vt 0.440917969 0.862666667
vt 0.440917969 0.777333319
vt 0.848144531 0.777333319
vt 0.848144531 0.862666667
vt 0.879394531 0.862666667
vt 0.879394531 0.777333319
vt 0.536621094 0.779999971
vt 0.536621094 0.865333319
vt 0.567871094 0.865333319
vt 0.567871094 0.779999971
vt 0.600097656 0.782666683
vt 0.600097656 0.868000031
vt 0.631347656 0.868000031
vt 0.631347656 0.782666683
vt 0.632324219 0.782666683
vt 0.632324219 0.868000031
vt 0.663574219 0.868000031
vt 0.663574219 0.782666683
vt 0.00048828125 0.819999993
vt 0.00048828125 0.90533334
vt 0.0317382812 0.90533334
vt 0.0317382812 0.819999993
vt 0.0327148438 0.819999993
vt 0.0327148438 0.90533334
vt 0.0639648438 0.90533334
vt 0.0639648438 0.819999993
vt 0.287597656 0.694666624
vt 0.287597656 0.865333319
vt 0.303222656 0.865333319
vt 0.303222656 0.694666624
vt 0.0795898438 0.822666645
vt 0.0795898438 0.865333319
vt 0.142089844 0.865333319
vt 0.142089844 0.822666645
vt 0.316894531 0.825333357
vt 0.316894531 0.868000031
vt 0.379394531 0.868000031
vt 0.379394531 0.825333357
vt 0.694824219 0.825333357
vt 0.694824219 0.868000031
vt 0.757324219 0.868000031
vt 0.757324219 0.825333357
vt 0.758300781 0.825333357
vt 0.758300781 0.868000031
vt 0.820800781 0.868000031
vt 0.820800781 0.825333357
vt 0.568847656 0.779999971
vt 0.568847656 0.907999992
vt 0.584472656 0.907999992
vt 0.584472656 0.779999971
vt 0.664550781 0.782666683
vt 0.664550781 0.910666645
vt 0.680175781 0.910666645
vt 0.680175781 0.782666683
vt 0.488769531 0.819999993
vt 0.488769531 0.948000014
vt 0.504394531 0.948000014
vt 0.504394531 0.819999993
vt 0.959472656 0.819999993
vt 0.959472656 0.862666667
vt 0.990722656 0.862666667
vt 0.990722656 0.819999993
vt 0.505371094 0.819999993
vt 0.505371094 0.90533334
vt 0.520996094 0.90533334
vt 0.520996094 0.819999993
vt 0.190917969 0.828000009
vt 0.190917969 0.870666683
vt 0.222167969 0.870666683
vt 0.222167969 0.828000009
vt 0.223144531 0.828000009
vt 0.223144531 0.870666683
vt 0.254394531 0.870666683
vt 0.254394531 0.828000009
vt 0.821777344 0.822666645
vt 0.821777344 0.907999992
vt 0.837402344 0.907999992
vt 0.837402344 0.822666645
vt 0.255371094 0.828000009
vt 0.255371094 0.870666683
vt 0.286621094 0.870666683
vt 0.286621094 0.828000009
vt 0.895996094 0.862666667
vt 0.895996094 0.90533334
vt 0.927246094 0.90533334
vt 0.927246094 0.862666667
vt 0.143066406 0.865333319
vt 0.143066406 0.886666656
vt 0.174316406 0.886666656
vt 0.174316406 0.865333319
vt 0.380371094 0.862666667
vt 0.380371094 0.948000014
vt 0.395996094 0.948000014
vt 0.395996094 0.862666667
vt 0.409667969 0.865333319
vt 0.409667969 0.907999992
vt 0.440917969 0.907999992
vt 0.440917969 0.865333319
vt 0.848144531 0.865333319
vt 0.848144531 0.907999992
vt 0.879394531 0.907999992
vt 0.879394531 0.865333319
vt 0.959472656 0.865333319
vt 0.959472656 0.907999992
vt 0.990722656 0.907999992
vt 0.990722656 0.865333319
vt 0.0795898438 0.868000031
vt 0.0795898438 0.910666645
vt 0.110839844 0.910666645
vt 0.110839844 0.868000031
vt 0.457519531 0.862666667
vt 0.457519531 0.948000014
vt 0.473144531 0.948000014
vt 0.473144531 0.862666667
vt 0.928222656 0.862666667
vt 0.928222656 0.948000014
vt 0.943847656 0.948000014
vt 0.943847656 0.862666667
vt 0.536621094 0.868000031
vt 0.536621094 0.910666645
vt 0.567871094 0.910666645
vt 0.567871094 0.868000031
vt 0.111816406 0.868000031
vt 0.111816406 0.953333318
vt 0.127441406 0.953333318
vt 0.127441406 0.868000031
vt 0.316894531 0.870666683
vt 0.316894531 0.913333356
vt 0.348144531 0.913333356
vt 0.348144531 0.870666683
vt 0.600097656 0.870666683
vt 0.600097656 0.913333356
vt 0.631347656 0.913333356
vt 0.631347656 0.870666683
vt 0.287597656 0.868000031
vt 0.287597656 0.953333318
vt 0.303222656 0.953333318
vt 0.303222656 0.868000031
vt 0.632324219 0.870666683
vt 0.632324219 0.913333356
vt 0.663574219 0.913333356
vt 0.663574219 0.870666683
vt 0.349121094 0.870666683
vt 0.349121094 0.95599997
vt 0.364746094 0.95599997
vt 0.364746094 0.870666683
vt 0.694824219 0.870666683
vt 0.694824219 0.95599997
vt 0.710449219 0.95599997
vt 0.710449219 0.870666683
vt 0.711425781 0.870666683
vt 0.711425781 0.95599997
vt 0.727050781 0.95599997
vt 0.727050781 0.870666683
vt 0.728027344 0.870666683
vt 0.728027344 0.95599997
vt 0.743652344 0.95599997
vt 0.743652344 0.870666683
vt 0.744628906 0.870666683
vt 0.744628906 0.913333356
vt 0.775878906 0.913333356
vt 0.775878906 0.870666683
vt 0.776855469 0.870666683
vt 0.776855469 0.95599997
vt 0.792480469 0.95599997
vt 0.792480469 0.870666683
vt 0.793457031 0.870666683
vt 0.793457031 0.95599997
vt 0.809082031 0.95599997
vt 0.809082031 0.870666683
vt 0.190917969 0.873333335
vt 0.190917969 0.958666682
vt 0.206542969 0.958666682
vt 0.206542969 0.873333335
vt 0.207519531 0.873333335
vt 0.207519531 0.958666682
vt 0.223144531 0.958666682
vt 0.223144531 0.873333335
vt 0.224121094 0.873333335
vt 0.224121094 0.958666682
vt 0.239746094 0.958666682
vt 0.239746094 0.873333335
vt 0.240722656 0.873333335
vt 0.240722656 0.916000009
vt 0.271972656 0.916000009
vt 0.271972656 0.873333335
vt 0.143066406 0.889333308
vt 0.143066406 0.931999981
vt 0.174316406 0.931999981
vt 0.174316406 0.889333308
vt 0.00048828125 0.907999992
vt 0.00048828125 0.99333334
vt 0.0161132812 0.99333334
vt 0.0161132812 0.907999992
vt 0.0170898438 0.907999992
vt 0.0170898438 0.950666666
vt 0.0483398438 0.950666666
vt 0.0483398438 0.907999992
vt 0.895996094 0.907999992
vt 0.895996094 0.950666666
vt 0.927246094 0.950666666
vt 0.927246094 0.907999992
vt 0.0493164062 0.907999992
vt 0.0493164062 0.950666666
vt 0.0649414062 0.950666666
vt 0.0649414062 0.907999992
vt 0.505371094 0.907999992
vt 0.505371094 0.950666666
vt 0.520996094 0.950666666
vt 0.520996094 0.907999992
vt 0.409667969 0.910666645
vt 0.409667969 0.953333318
vt 0.425292969 0.953333318
vt 0.425292969 0.910666645
vt 0.426269531 0.910666645
vt 0.426269531 0.953333318
vt 0.441894531 0.953333318
vt 0.441894531 0.910666645
vt 0.568847656 0.910666645
vt 0.568847656 0.953333318
vt 0.584472656 0.953333318
vt 0.584472656 0.910666645
vt 0.821777344 0.910666645
vt 0.821777344 0.953333318
vt 0.837402344 0.953333318
vt 0.837402344 0.910666645
vt 0.848144531 0.910666645
vt 0.848144531 0.953333318
vt 0.863769531 0.953333318
vt 0.863769531 0.910666645
vt 0.864746094 0.910666645
vt 0.864746094 0.953333318
vt 0.880371094 0.953333318
vt 0.880371094 0.910666645
vt 0.959472656 0.910666645
vt 0.959472656 0.953333318
vt 0.975097656 0.953333318
vt 0.975097656 0.910666645
vt 0.976074219 0.910666645
vt 0.976074219 0.953333318
vt 0.991699219 0.953333318
vt 0.991699219 0.910666645
vt 0.0795898438 0.913333356
vt 0.0795898438 0.95599997
vt 0.0952148438 0.95599997
vt 0.0952148438 0.913333356
vt 0.536621094 0.913333356
vt 0.536621094 0.95599997
vt 0.552246094 0.95599997
vt 0.552246094 0.913333356
vt 0.664550781 0.913333356
vt 0.664550781 0.95599997
vt 0.680175781 0.95599997
vt 0.680175781 0.913333356
vt 0.316894531 0.916000009
vt 0.316894531 0.958666682
vt 0.332519531 0.958666682
vt 0.332519531 0.916000009
vt 0.600097656 0.916000009
vt 0.600097656 0.958666682
vt 0.615722656 0.958666682
vt 0.615722656 0.916000009
vt 0.616699219 0.916000009
vt 0.616699219 0.958666682
vt 0.632324219 0.958666682
vt 0.632324219 0.916000009
vt 0.633300781 0.916000009
vt 0.633300781 0.958666682
vt 0.648925781 0.958666682
vt 0.648925781 0.916000009
vt 0.744628906 0.916000009
vt 0.744628906 0.958666682
vt 0.760253906 0.958666682
vt 0.760253906 0.916000009
vt 0.240722656 0.918666661
vt 0.240722656 0.961333334
vt 0.256347656 0.961333334
vt 0.256347656 0.918666661
vt 0.257324219 0.918666661
vt 0.257324219 0.961333334
vt 0.272949219 0.961333334
vt 0.272949219 0.918666661
vt 0.143066406 0.934666634
vt 0.143066406 0.977333307
vt 0.158691406 0.977333307
vt 0.158691406 0.934666634
vt 0.159667969 0.934666634
vt 0.159667969 0.977333307
vt 0.175292969 0.977333307
vt 0.175292969 0.934666634
vt 0.380371094 0.950666666
vt 0.380371094 0.99333334
vt 0.395996094 0.99333334
vt 0.395996094 0.950666666
vt 0.457519531 0.950666666
vt 0.457519531 0.99333334
vt 0.473144531 0.99333334
vt 0.473144531 0.950666666
vt 0.488769531 0.950666666
vt 0.488769531 0.972000003
vt 0.504394531 0.972000003
vt 0.504394531 0.950666666
vt 0.928222656 0.950666666
vt 0.928222656 0.99333334
vt 0.943847656 0.99333334
vt 0.943847656 0.950666666
vt 0.0170898438 0.953333318
vt 0.0170898438 0.995999992
vt 0.0327148438 0.995999992
vt 0.0327148438 0.953333318
vt 0.0336914062 0.953333318
vt 0.0336914062 0.995999992
vt 0.0493164062 0.995999992
vt 0.0493164062 0.953333318
vt 0.0502929688 0.953333318
vt 0.0502929688 0.995999992
vt 0.0659179688 0.995999992
vt 0.0659179688 0.953333318
vt 0.505371094 0.953333318
vt 0.505371094 0.995999992
vt 0.520996094 0.995999992
vt 0.520996094 0.953333318
vt 0.895996094 0.953333318
vt 0.895996094 0.995999992
vt 0.911621094 0.995999992
vt 0.911621094 0.953333318
vt 0.111816406 0.95599997
vt 0.111816406 0.998666644
vt 0.127441406 0.998666644
vt 0.127441406 0.95599997
vt 0.287597656 0.95599997
vt 0.287597656 0.998666644
vt 0.303222656 0.998666644
vt 0.303222656 0.95599997
vt 0.409667969 0.95599997
vt 0.409667969 0.998666644
vt 0.425292969 0.998666644
vt 0.425292969 0.95599997
vt 0.426269531 0.95599997
vt 0.426269531 0.998666644
vt 0.441894531 0.998666644
vt 0.441894531 0.95599997
vt 0.568847656 0.95599997
vt 0.568847656 0.998666644
vt 0.584472656 0.998666644
vt 0.584472656 0.95599997
vt 0.821777344 0.95599997
vt 0.821777344 0.998666644
vt 0.837402344 0.998666644
vt 0.837402344 0.95599997
g Z13_rw-mesh_0
f 3/3/3 2/2/2 1/1/1
f 1/1/1 4/4/4 3/3/3
f 7/7/7 6/6/6 5/5/5
f 5/5/5 8/8/8 7/7/7
f 11/11/11 10/10/10 9/9/9
f 9/9/9 12/12/12 11/11/11
f 15/15/15 14/14/14 13/13/13
f 13/13/13 16/16/16 15/15/15
f 19/19/19 18/18/18 17/17/17
f 17/17/17 20/20/20 19/19/19
f 23/23/23 22/22/22 21/21/21
f 21/21/21 24/24/24 23/23/23
f 27/27/27 26/26/26 25/25/25
f 25/25/25 28/28/28 27/27/27
f 31/31/31 30/30/30 29/29/29
f 29/29/29 32/32/32 31/31/31
f 35/35/35 34/34/34 33/33/33
f 33/33/33 36/36/36 35/35/35
f 39/39/39 38/38/38 37/37/37
f 37/37/37 40/40/40 39/39/39
f 43/43/43 42/42/42 41/41/41
f 41/41/41 44/44/44 43/43/43
f 47/47/47 46/46/46 45/45/45
f 45/45/45 48/48/48 47/47/47
f 51/51/51 50/50/50 49/49/49
f 49/49/49 52/52/52 51/51/51
f 55/55/55 54/54/54 53/53/53
f 53/53/53 56/56/56 55/55/55
f 59/59/59 58/58/58 57/57/57
f 57/57/57 60/60/60 59/59/59
f 63/63/63 62/62/62 61/61/61
f 61/61/61 64/64/64 63/63/63
f 67/67/67 66/66/66 65/65/65
f 65/65/65 68/68/68 67/67/67
f 71/71/71 70/70/70 69/69/69
f 69/69/69 72/72/72 71/71/71
f 75/75/75 74/74/74 73/73/73
f 73/73/73 76/76/76 75/75/75
f 79/79/79 78/78/78 77/77/77
f 77/77/77 80/80/80 79/79/79
f 83/83/83 82/82/82 81/81/81
f 81/81/81 84/84/84 83/83/83
f 87/87/87 86/86/86 85/85/85
f 85/85/85 88/88/88 87/87/87
f 91/91/91 90/90/90 89/89/89
f 89/89/89 92/92/92 91/91/91
f 95/95/95 94/94/94 93/93/93
f 93/93/93 96/96/96 95/95/95
f 99/99/99 98/98/98 97/97/97
f 97/97/97 100/100/100 99/99/99
f 103/103/103 102/102/102 101/101/101
f 101/101/101 104/104/104 103/103/103
f 107/107/107 106/106/106 105/105/105
f 105/105/105 108/108/108 107/107/107
f 111/111/111 110/110/110 109/109/109
f 109/109/109 112/112/112 111/111/111
f 115/115/115 114/114/114 113/113/113
f 113/113/113 116/116/116 115/115/115
f 119/119/119 118/118/118 117/117/117
f 117/117/117 120/120/120 119/119/119
f 123/123/123 122/122/122 121/121/121
f 121/121/121 124/124/124 123/123/123
f 127/127/127 126/126/126 125/125/125
f 125/125/125 128/128/128 127/127/127
f 131/131/131 130/130/130 129/129/129
f 129/129/129 132/132/132 131/131/131
f 135/135/135 134/134/134 133/133/133
f 133/133/133 136/136/136 135/135/135
f 139/139/139 138/138/138 137/137/137
f 137/137/137 140/140/140 139/139/139
f 143/143/143 142/142/142 141/141/141
f 141/141/141 144/144/144 143/143/143
f 147/147/147 146/146/146 145/145/145
f 145/145/145 148/148/148 147/147/147
f 151/151/151 150/150/150 149/149/149
f 149/149/149 152/152/152 151/151/151
f 155/155/155 154/154/154 153/153/153
f 153/153/153 156/156/156 155/155/155
f 159/159/159 158/158/158 157/157/157
f 157/157/157 160/160/160 159/159/159
f 163/163/163 162/162/162 161/161/161
f 161/161/161 164/164/164 163/163/163
f 167/167/167 166/166/166 165/165/165
f 165/165/165 168/168/168 167/167/167
f 171/171/171 170/170/170 169/169/169
f 169/169/169 172/172/172 171/171/171
f 175/175/175 174/174/174 173/173/173
f 173/173/173 176/176/176 175/175/175
f 179/179/179 178/178/178 177/177/177
f 177/177/177 180/180/180 179/179/179
f 183/183/183 182/182/182 181/181/181
f 181/181/181 184/184/184 183/183/183
f 187/187/187 186/186/186 185/185/185
f 185/185/185 188/188/188 187/187/187
f 191/191/191 190/190/190 189/189/189
f 189/189/189 192/192/192 191/191/191
f 195/195/195 194/194/194 193/193/193
f 193/193/193 196/196/196 195/195/195
f 199/199/199 198/198/198 197/197/197
f 197/197/197 200/200/200 199/199/199
f 203/203/203 202/202/202 201/201/201
f 201/201/201 204/204/204 203/203/203
f 207/207/207 206/206/206 205/205/205
f 205/205/205 208/208/208 207/207/207
f 211/211/211 210/210/210 209/209/209
f 209/209/209 212/212/212 211/211/211
f 215/215/215 214/214/214 213/213/213
f 213/213/213 216/216/216 215/215/215
f 219/219/219 218/218/218 217/217/217
f 217/217/217 220/220/220 219/219/219
f 223/223/223 222/222/222 221/221/221
f 221/221/221 224/224/224 223/223/223
f 227/227/227 226/226/226 225/225/225
f 225/225/225 228/228/228 227/227/227
f 231/231/231 230/230/230 229/229/229
f 229/229/229 232/232/232 231/231/231
f 235/235/235 234/234/234 233/233/233
f 233/233/233 236/236/236 235/235/235
f 239/239/239 238/238/238 237/237/237
f 237/237/237 240/240/240 239/239/239
f 243/243/243 242/242/242 241/241/241
f 241/241/241 244/244/244 243/243/243
f 247/247/247 246/246/246 245/245/245
f 245/245/245 248/248/248 247/247/247
f 251/251/251 250/250/250 249/249/249
f 249/249/249 252/252/252 251/251/251
f 255/255/255 254/254/254 253/253/253
f 253/253/253 256/256/256 255/255/255
f 259/259/259 258/258/258 257/257/257
f 257/257/257 260/260/260 259/259/259
f 263/263/263 262/262/262 261/261/261
f 261/261/261 264/264/264 263/263/263
f 267/267/267 266/266/266 265/265/265
f 265/265/265 268/268/268 267/267/267
f 271/271/271 270/270/270 269/269/269
f 269/269/269 272/272/272 271/271/271
f 275/275/275 274/274/274 273/273/273
f 273/273/273 276/276/276 275/275/275
f 279/279/279 278/278/278 277/277/277
f 277/277/277 280/280/280 279/279/279
f 283/283/283 282/282/282 281/281/281
f 281/281/281 284/284/284 283/283/283
f 287/287/287 286/286/286 285/285/285
f 285/285/285 288/288/288 287/287/287
f 291/291/291 290/290/290 289/289/289
f 289/289/289 292/292/292 291/291/291
f 295/295/295 294/294/294 293/293/293
f 293/293/293 296/296/296 295/295/295
f 299/299/299 298/298/298 297/297/297
f 297/297/297 300/300/300 299/299/299
f 303/303/303 302/302/302 301/301/301
f 301/301/301 304/304/304 303/303/303
f 307/307/307 306/306/306 305/305/305
f 305/305/305 308/308/308 307/307/307
f 311/311/311 310/310/310 309/309/309
f 309/309/309 312/312/312 311/311/311
f 315/315/315 314/314/314 313/313/313
f 313/313/313 316/316/316 315/315/315
f 319/319/319 318/318/318 317/317/317
f 317/317/317 320/320/320 319/319/319
f 323/323/323 322/322/322 321/321/321
f 321/321/321 324/324/324 323/323/323
f 327/327/327 326/326/326 325/325/325
f 325/325/325 328/328/328 327/327/327
f 331/331/331 330/330/330 329/329/329
f 329/329/329 332/332/332 331/331/331
f 335/335/335 334/334/334 333/333/333
f 333/333/333 336/336/336 335/335/335
f 339/339/339 338/338/338 337/337/337
f 337/337/337 340/340/340 339/339/339
f 343/343/343 342/342/342 341/341/341
f 341/341/341 344/344/344 343/343/343
f 347/347/347 346/346/346 345/345/345
f 345/345/345 348/348/348 347/347/347
f 351/351/351 350/350/350 349/349/349
f 349/349/349 352/352/352 351/351/351
f 355/355/355 354/354/354 353/353/353
f 353/353/353 356/356/356 355/355/355
f 359/359/359 358/358/358 357/357/357
f 357/357/357 360/360/360 359/359/359
f 363/363/363 362/362/362 361/361/361
f 361/361/361 364/364/364 363/363/363
f 367/367/367 366/366/366 365/365/365
f 365/365/365 368/368/368 367/367/367
f 371/371/371 370/370/370 369/369/369
f 369/369/369 372/372/372 371/371/371
f 375/375/375 374/374/374 373/373/373
f 373/373/373 376/376/376 375/375/375
f 379/379/379 378/378/378 377/377/377
f 377/377/377 380/380/380 379/379/379
f 383/383/383 382/382/382 381/381/381
f 381/381/381 384/384/384 383/383/383
f 387/387/387 386/386/386 385/385/385
f 385/385/385 388/388/388 387/387/387
f 391/391/391 390/390/390 389/389/389
f 389/389/389 392/392/392 391/391/391
f 395/395/395 394/394/394 393/393/393
f 393/393/393 396/396/396 395/395/395
f 399/399/399 398/398/398 397/397/397
f 397/397/397 400/400/400 399/399/399
f 403/403/403 402/402/402 401/401/401
f 401/401/401 404/404/404 403/403/403
f 407/407/407 406/406/406 405/405/405
f 405/405/405 408/408/408 407/407/407
f 411/411/411 410/410/410 409/409/409
f 409/409/409 412/412/412 411/411/411
f 415/415/415 414/414/414 413/413/413
f 413/413/413 416/416/416 415/415/415
f 419/419/419 418/418/418 417/417/417
f 417/417/417 420/420/420 419/419/419
f 423/423/423 422/422/422 421/421/421
f 421/421/421 424/424/424 423/423/423
f 427/427/427 426/426/426 425/425/425
f 425/425/425 428/428/428 427/427/427
f 431/431/431 430/430/430 429/429/429
f 429/429/429 432/432/432 431/431/431
f 435/435/435 434/434/434 433/433/433
f 433/433/433 436/436/436 435/435/435
f 439/439/439 438/438/438 437/437/437
f 437/437/437 440/440/440 439/439/439
f 443/443/443 442/442/442 441/441/441
f 441/441/441 444/444/444 443/443/443
f 447/447/447 446/446/446 445/445/445
f 445/445/445 448/448/448 447/447/447
f 451/451/451 450/450/450 449/449/449
f 449/449/449 452/452/452 451/451/451
f 455/455/455 454/454/454 453/453/453
f 453/453/453 456/456/456 455/455/455
f 459/459/459 458/458/458 457/457/457
f 457/457/457 460/460/460 459/459/459
f 463/463/463 462/462/462 461/461/461
f 461/461/461 464/464/464 463/463/463
f 467/467/467 466/466/466 465/465/465
f 465/465/465 468/468/468 467/467/467
f 471/471/471 470/470/470 469/469/469
f 469/469/469 472/472/472 471/471/471
f 475/475/475 474/474/474 473/473/473
f 473/473/473 476/476/476 475/475/475
f 479/479/479 478/478/478 477/477/477
f 477/477/477 480/480/480 479/479/479
f 483/483/483 482/482/482 481/481/481
f 481/481/481 484/484/484 483/483/483
f 487/487/487 486/486/486 485/485/485
f 485/485/485 488/488/488 487/487/487
f 491/491/491 490/490/490 489/489/489
f 489/489/489 492/492/492 491/491/491
f 495/495/495 494/494/494 493/493/493
f 493/493/493 496/496/496 495/495/495
f 499/499/499 498/498/498 497/497/497
f 497/497/497 500/500/500 499/499/499
f 503/503/503 502/502/502 501/501/501
f 501/501/501 504/504/504 503/503/503
f 507/507/507 506/506/506 505/505/505
f 505/505/505 508/508/508 507/507/507
f 511/511/511 510/510/510 509/509/509
f 509/509/509 512/512/512 511/511/511
f 515/515/515 514/514/514 513/513/513
f 513/513/513 516/516/516 515/515/515
f 519/519/519 518/518/518 517/517/517
f 517/517/517 520/520/520 519/519/519
f 523/523/523 522/522/522 521/521/521
f 521/521/521 524/524/524 523/523/523
f 527/527/527 526/526/526 525/525/525
f 525/525/525 528/528/528 527/527/527
f 531/531/531 530/530/530 529/529/529
f 529/529/529 532/532/532 531/531/531
f 535/535/535 534/534/534 533/533/533
f 533/533/533 536/536/536 535/535/535
f 539/539/539 538/538/538 537/537/537
f 537/537/537 540/540/540 539/539/539
