g sipeibojue_3-mesh
v -64 511 0
v -64 991 0
v -288 991 0
v -288 511 0
v -64 63 0
v -64 511 0
v -288 511 0
v -288 63 0
v -288 63 0
v -288 415 0
v -448 415 0
v -448 63 0
v -288 479 0
v -288 671 0
v -416 671 0
v -416 479 0
v -288 671 0
v -288 863 0
v -416 863 0
v -416 671 0
v -0 607 0
v -0 799 0
v -64 799 0
v -64 607 0
v -0 447 0
v -0 607 0
v -64 607 0
v -64 447 0
v -384 415 0
v -384 479 0
v -480 479 0
v -480 415 0
v -384 0 0
v -384 63 0
v -448 63 0
v -448 0 0
v -0 63 0
v -0 127 0
v -64 127 0
v -64 63 0
v -448 127 0
v -448 255 0
v -480 255 0
v -480 127 0
v -448 0 0
v -448 127 0
v -480 127 0
v -480 0 0
v -96 991 0
v -96 1023 0
v -192 1023 0
v -192 991 0
v -32 799 0
v -32 863 0
v -64 863 0
v -64 799 0
v -192 31 0
v -192 63 0
v -256 63 0
v -256 31 0
v -512 127 0
v -512 191 0
v -521 191 0
v -521 127 0
v -448 351 0
v -448 415 0
v -480 415 0
v -480 351 0
v -416 479 0
v -416 543 0
v -448 543 0
v -448 479 0
v -480 63 0
v -480 127 0
v -512 127 0
v -512 63 0
v -192 991 0
v -192 1023 0
v -256 1023 0
v -256 991 0
v -416 671 0
v -416 735 0
v -448 735 0
v -448 671 0
v -480 127 0
v -480 191 0
v -512 191 0
v -512 127 0
v -288 415 0
v -288 447 0
v -320 447 0
v -320 415 0
v -32 415 0
v -32 447 0
v -64 447 0
v -64 415 0
v -352 447 0
v -352 479 0
v -384 479 0
v -384 447 0
v -256 31 0
v -256 63 0
v -288 63 0
v -288 31 0
v -416 639 0
v -416 671 0
v -448 671 0
v -448 639 0
vt 0.0009765625 0.00207471848
vt 0.0009765625 0.997925282
vt 0.219726562 0.997925282
vt 0.219726562 0.00207471848
vt 0.221679688 0.00207471848
vt 0.221679688 0.931535244
vt 0.440429688 0.931535244
vt 0.440429688 0.00207471848
vt 0.442382812 0.00207471848
vt 0.442382812 0.732365131
vt 0.598632812 0.732365131
vt 0.598632812 0.00207471848
vt 0.600585938 0.00207471848
vt 0.600585938 0.400414944
vt 0.725585938 0.400414944
vt 0.725585938 0.00207471848
vt 0.727539062 0.00207471848
vt 0.727539062 0.400414944
vt 0.852539062 0.400414944
vt 0.852539062 0.00207471848
vt 0.854492188 0.00207471848
vt 0.854492188 0.400414944
vt 0.916992188 0.400414944
vt 0.916992188 0.00207471848
vt 0.918945312 0.00207471848
vt 0.918945312 0.334024906
vt 0.981445312 0.334024906
vt 0.981445312 0.00207471848
vt 0.600585938 0.404564321
vt 0.600585938 0.537344396
vt 0.694335938 0.537344396
vt 0.694335938 0.404564321
vt 0.918945312 0.338174284
vt 0.918945312 0.470954359
vt 0.981445312 0.470954359
vt 0.981445312 0.338174284
vt 0.696289062 0.404564321
vt 0.696289062 0.537344396
vt 0.758789062 0.537344396
vt 0.758789062 0.404564321
vt 0.760742188 0.404564321
vt 0.760742188 0.670124471
vt 0.791992188 0.670124471
vt 0.791992188 0.404564321
vt 0.793945312 0.404564321
vt 0.793945312 0.670124471
vt 0.825195312 0.670124471
vt 0.825195312 0.404564321
vt 0.600585938 0.541493773
vt 0.600585938 0.607883811
vt 0.694335938 0.607883811
vt 0.694335938 0.541493773
vt 0.827148438 0.404564321
vt 0.827148438 0.537344396
vt 0.858398438 0.537344396
vt 0.858398438 0.404564321
vt 0.918945312 0.475103736
vt 0.918945312 0.541493773
vt 0.981445312 0.541493773
vt 0.981445312 0.475103736
vt 0.983398438 0.00207471848
vt 0.983398438 0.134854794
vt 0.993164062 0.134854794
vt 0.993164062 0.00207471848
vt 0.860351562 0.404564321
vt 0.860351562 0.537344396
vt 0.891601562 0.537344396
vt 0.891601562 0.404564321
vt 0.696289062 0.541493773
vt 0.696289062 0.674273849
vt 0.727539062 0.674273849
vt 0.727539062 0.541493773
vt 0.827148438 0.541493773
vt 0.827148438 0.674273849
vt 0.858398438 0.674273849
vt 0.858398438 0.541493773
vt 0.918945312 0.545643151
vt 0.918945312 0.612033188
vt 0.981445312 0.612033188
vt 0.981445312 0.545643151
vt 0.860351562 0.541493773
vt 0.860351562 0.674273849
vt 0.891601562 0.674273849
vt 0.891601562 0.541493773
vt 0.600585938 0.612033188
vt 0.600585938 0.744813263
vt 0.631835938 0.744813263
vt 0.631835938 0.612033188
vt 0.633789062 0.612033188
vt 0.633789062 0.678423226
vt 0.665039062 0.678423226
vt 0.665039062 0.612033188
vt 0.918945312 0.616182566
vt 0.918945312 0.682572603
vt 0.950195312 0.682572603
vt 0.950195312 0.616182566
vt 0.952148438 0.616182566
vt 0.952148438 0.682572603
vt 0.983398438 0.682572603
vt 0.983398438 0.616182566
vt 0.760742188 0.674273849
vt 0.760742188 0.740663886
vt 0.791992188 0.740663886
vt 0.791992188 0.674273849
vt 0.793945312 0.674273849
vt 0.793945312 0.740663886
vt 0.825195312 0.740663886
vt 0.825195312 0.674273849
g sipeibojue_3-mesh_0
f 3/3/3 2/2/2 1/1/1
f 1/1/1 4/4/4 3/3/3
f 7/7/7 6/6/6 5/5/5
f 5/5/5 8/8/8 7/7/7
f 11/11/11 10/10/10 9/9/9
f 9/9/9 12/12/12 11/11/11
f 15/15/15 14/14/14 13/13/13
f 13/13/13 16/16/16 15/15/15
f 19/19/19 18/18/18 17/17/17
f 17/17/17 20/20/20 19/19/19
f 23/23/23 22/22/22 21/21/21
f 21/21/21 24/24/24 23/23/23
f 27/27/27 26/26/26 25/25/25
f 25/25/25 28/28/28 27/27/27
f 31/31/31 30/30/30 29/29/29
f 29/29/29 32/32/32 31/31/31
f 35/35/35 34/34/34 33/33/33
f 33/33/33 36/36/36 35/35/35
f 39/39/39 38/38/38 37/37/37
f 37/37/37 40/40/40 39/39/39
f 43/43/43 42/42/42 41/41/41
f 41/41/41 44/44/44 43/43/43
f 47/47/47 46/46/46 45/45/45
f 45/45/45 48/48/48 47/47/47
f 51/51/51 50/50/50 49/49/49
f 49/49/49 52/52/52 51/51/51
f 55/55/55 54/54/54 53/53/53
f 53/53/53 56/56/56 55/55/55
f 59/59/59 58/58/58 57/57/57
f 57/57/57 60/60/60 59/59/59
f 63/63/63 62/62/62 61/61/61
f 61/61/61 64/64/64 63/63/63
f 67/67/67 66/66/66 65/65/65
f 65/65/65 68/68/68 67/67/67
f 71/71/71 70/70/70 69/69/69
f 69/69/69 72/72/72 71/71/71
f 75/75/75 74/74/74 73/73/73
f 73/73/73 76/76/76 75/75/75
f 79/79/79 78/78/78 77/77/77
f 77/77/77 80/80/80 79/79/79
f 83/83/83 82/82/82 81/81/81
f 81/81/81 84/84/84 83/83/83
f 87/87/87 86/86/86 85/85/85
f 85/85/85 88/88/88 87/87/87
f 91/91/91 90/90/90 89/89/89
f 89/89/89 92/92/92 91/91/91
f 95/95/95 94/94/94 93/93/93
f 93/93/93 96/96/96 95/95/95
f 99/99/99 98/98/98 97/97/97
f 97/97/97 100/100/100 99/99/99
f 103/103/103 102/102/102 101/101/101
f 101/101/101 104/104/104 103/103/103
f 107/107/107 106/106/106 105/105/105
f 105/105/105 108/108/108 107/107/107
