g xiaotiane_g-mesh
v -64 511 0
v -64 831 0
v -416 831 0
v -416 511 0
v -416 511 0
v -416 831 0
v -736 831 0
v -736 511 0
v -288 831 0
v -288 991 0
v -544 991 0
v -544 831 0
v -32 415 0
v -32 511 0
v -352 511 0
v -352 415 0
v -352 415 0
v -352 511 0
v -640 511 0
v -640 415 0
v -352 191 0
v -352 383 0
v -480 383 0
v -480 191 0
v -512 191 0
v -512 415 0
v -608 415 0
v -608 191 0
v -352 31 0
v -352 191 0
v -480 191 0
v -480 31 0
v -160 287 0
v -160 383 0
v -352 383 0
v -352 287 0
v -256 63 0
v -256 191 0
v -352 191 0
v -352 63 0
v -736 639 0
v -736 767 0
v -830 767 0
v -830 639 0
v -736 511 0
v -736 639 0
v -830 639 0
v -830 511 0
v -32 351 0
v -32 415 0
v -160 415 0
v -160 351 0
v -0 671 0
v -0 767 0
v -64 767 0
v -64 671 0
v -384 383 0
v -384 415 0
v -512 415 0
v -512 383 0
v -224 831 0
v -224 895 0
v -288 895 0
v -288 831 0
v -0 607 0
v -0 671 0
v -64 671 0
v -64 607 0
v -256 383 0
v -256 415 0
v -384 415 0
v -384 383 0
v -320 991 0
v -320 1023 0
v -416 1023 0
v -416 991 0
v -416 991 0
v -416 1023 0
v -512 1023 0
v -512 991 0
v -32 543 0
v -32 607 0
v -64 607 0
v -64 543 0
v -608 831 0
v -608 863 0
v -672 863 0
v -672 831 0
v -160 831 0
v -160 863 0
v -224 863 0
v -224 831 0
v -288 191 0
v -288 223 0
v -352 223 0
v -352 191 0
v -480 287 0
v -480 351 0
v -512 351 0
v -512 287 0
v -160 383 0
v -160 415 0
v -224 415 0
v -224 383 0
v -576 0 0
v -576 31 0
v -640 31 0
v -640 0 0
v -544 31 0
v -544 63 0
v -608 63 0
v -608 31 0
v -480 127 0
v -480 191 0
v -512 191 0
v -512 127 0
v -480 191 0
v -480 255 0
v -512 255 0
v -512 191 0
v -480 31 0
v -480 63 0
v -544 63 0
v -544 31 0
v -320 0 0
v -320 31 0
v -384 31 0
v -384 0 0
v -736 767 0
v -736 799 0
v -768 799 0
v -768 767 0
v -32 767 0
v -32 799 0
v -64 799 0
v -64 767 0
v -128 319 0
v -128 351 0
v -160 351 0
v -160 319 0
v -512 159 0
v -512 191 0
v -544 191 0
v -544 159 0
v -320 31 0
v -320 63 0
v -352 63 0
v -352 31 0
v -384 0 0
v -384 31 0
v -416 31 0
v -416 0 0
v -640 0 0
v -640 31 0
v -672 31 0
v -672 0 0
v -608 959 0
v -608 991 0
v -640 991 0
v -640 959 0
v -544 831 0
v -544 863 0
v -576 863 0
v -576 831 0
v -256 895 0
v -256 927 0
v -288 927 0
v -288 895 0
vt 0.0009765625 0.00171232224
vt 0.0009765625 0.549657524
vt 0.344726562 0.549657524
vt 0.344726562 0.00171232224
vt 0.346679688 0.00171232224
vt 0.346679688 0.549657524
vt 0.659179688 0.549657524
vt 0.659179688 0.00171232224
vt 0.661132812 0.00171232224
vt 0.661132812 0.275684953
vt 0.911132812 0.275684953
vt 0.911132812 0.00171232224
vt 0.661132812 0.279109597
vt 0.661132812 0.443493128
vt 0.973632812 0.443493128
vt 0.973632812 0.279109597
vt 0.661132812 0.446917832
vt 0.661132812 0.611301363
vt 0.942382812 0.611301363
vt 0.942382812 0.446917832
vt 0.0009765625 0.553082228
vt 0.0009765625 0.881849289
vt 0.125976562 0.881849289
vt 0.125976562 0.553082228
vt 0.127929688 0.553082228
vt 0.127929688 0.936643839
vt 0.221679688 0.936643839
vt 0.221679688 0.553082228
vt 0.223632812 0.553082228
vt 0.223632812 0.827054799
vt 0.348632812 0.827054799
vt 0.348632812 0.553082228
vt 0.350585938 0.553082228
vt 0.350585938 0.717465758
vt 0.538085938 0.717465758
vt 0.538085938 0.553082228
vt 0.540039062 0.553082228
vt 0.540039062 0.772260308
vt 0.633789062 0.772260308
vt 0.633789062 0.553082228
vt 0.661132812 0.614726067
vt 0.661132812 0.833904088
vt 0.75390625 0.833904088
vt 0.75390625 0.614726067
vt 0.755859375 0.614726067
vt 0.755859375 0.833904088
vt 0.848632812 0.833904088
vt 0.848632812 0.614726067
vt 0.850585938 0.614726067
vt 0.850585938 0.724315047
vt 0.975585938 0.724315047
vt 0.975585938 0.614726067
vt 0.350585938 0.720890403
vt 0.350585938 0.885273993
vt 0.413085938 0.885273993
vt 0.413085938 0.720890403
vt 0.850585938 0.727739692
vt 0.850585938 0.782534242
vt 0.975585938 0.782534242
vt 0.975585938 0.727739692
vt 0.415039062 0.720890403
vt 0.415039062 0.830479443
vt 0.477539062 0.830479443
vt 0.477539062 0.720890403
vt 0.540039062 0.775684953
vt 0.540039062 0.885273993
vt 0.602539062 0.885273993
vt 0.602539062 0.775684953
vt 0.850585938 0.785958886
vt 0.850585938 0.840753436
vt 0.975585938 0.840753436
vt 0.975585938 0.785958886
vt 0.223632812 0.830479443
vt 0.223632812 0.885273993
vt 0.317382812 0.885273993
vt 0.317382812 0.830479443
vt 0.415039062 0.833904088
vt 0.415039062 0.888698637
vt 0.508789062 0.888698637
vt 0.508789062 0.833904088
vt 0.604492188 0.775684953
vt 0.604492188 0.885273993
vt 0.635742188 0.885273993
vt 0.635742188 0.775684953
vt 0.661132812 0.837328792
vt 0.661132812 0.892123282
vt 0.723632812 0.892123282
vt 0.723632812 0.837328792
vt 0.725585938 0.837328792
vt 0.725585938 0.892123282
vt 0.788085938 0.892123282
vt 0.788085938 0.837328792
vt 0.850585938 0.844178081
vt 0.850585938 0.898972631
vt 0.913085938 0.898972631
vt 0.913085938 0.844178081
vt 0.790039062 0.837328792
vt 0.790039062 0.946917832
vt 0.821289062 0.946917832
vt 0.821289062 0.837328792
vt 0.915039062 0.844178081
vt 0.915039062 0.898972631
vt 0.977539062 0.898972631
vt 0.977539062 0.844178081
vt 0.0009765625 0.885273993
vt 0.0009765625 0.940068483
vt 0.0634765625 0.940068483
vt 0.0634765625 0.885273993
vt 0.223632812 0.888698637
vt 0.223632812 0.943493128
vt 0.286132812 0.943493128
vt 0.286132812 0.888698637
vt 0.0654296875 0.885273993
vt 0.0654296875 0.994863033
vt 0.0966796875 0.994863033
vt 0.0966796875 0.885273993
vt 0.288085938 0.888698637
vt 0.288085938 0.998287678
vt 0.319335938 0.998287678
vt 0.319335938 0.888698637
vt 0.350585938 0.888698637
vt 0.350585938 0.943493128
vt 0.413085938 0.943493128
vt 0.413085938 0.888698637
vt 0.540039062 0.888698637
vt 0.540039062 0.943493128
vt 0.602539062 0.943493128
vt 0.602539062 0.888698637
vt 0.604492188 0.888698637
vt 0.604492188 0.943493128
vt 0.635742188 0.943493128
vt 0.635742188 0.888698637
vt 0.415039062 0.892123282
vt 0.415039062 0.946917832
vt 0.446289062 0.946917832
vt 0.446289062 0.892123282
vt 0.448242188 0.892123282
vt 0.448242188 0.946917832
vt 0.479492188 0.946917832
vt 0.479492188 0.892123282
vt 0.481445312 0.892123282
vt 0.481445312 0.946917832
vt 0.512695312 0.946917832
vt 0.512695312 0.892123282
vt 0.661132812 0.895547926
vt 0.661132812 0.950342476
vt 0.692382812 0.950342476
vt 0.692382812 0.895547926
vt 0.694335938 0.895547926
vt 0.694335938 0.950342476
vt 0.725585938 0.950342476
vt 0.725585938 0.895547926
vt 0.727539062 0.895547926
vt 0.727539062 0.950342476
vt 0.758789062 0.950342476
vt 0.758789062 0.895547926
vt 0.850585938 0.902397275
vt 0.850585938 0.957191765
vt 0.881835938 0.957191765
vt 0.881835938 0.902397275
vt 0.883789062 0.902397275
vt 0.883789062 0.957191765
vt 0.915039062 0.957191765
vt 0.915039062 0.902397275
vt 0.916992188 0.902397275
vt 0.916992188 0.957191765
vt 0.948242188 0.957191765
vt 0.948242188 0.902397275
g xiaotiane_g-mesh_0
f 3/3/3 2/2/2 1/1/1
f 1/1/1 4/4/4 3/3/3
f 7/7/7 6/6/6 5/5/5
f 5/5/5 8/8/8 7/7/7
f 11/11/11 10/10/10 9/9/9
f 9/9/9 12/12/12 11/11/11
f 15/15/15 14/14/14 13/13/13
f 13/13/13 16/16/16 15/15/15
f 19/19/19 18/18/18 17/17/17
f 17/17/17 20/20/20 19/19/19
f 23/23/23 22/22/22 21/21/21
f 21/21/21 24/24/24 23/23/23
f 27/27/27 26/26/26 25/25/25
f 25/25/25 28/28/28 27/27/27
f 31/31/31 30/30/30 29/29/29
f 29/29/29 32/32/32 31/31/31
f 35/35/35 34/34/34 33/33/33
f 33/33/33 36/36/36 35/35/35
f 39/39/39 38/38/38 37/37/37
f 37/37/37 40/40/40 39/39/39
f 43/43/43 42/42/42 41/41/41
f 41/41/41 44/44/44 43/43/43
f 47/47/47 46/46/46 45/45/45
f 45/45/45 48/48/48 47/47/47
f 51/51/51 50/50/50 49/49/49
f 49/49/49 52/52/52 51/51/51
f 55/55/55 54/54/54 53/53/53
f 53/53/53 56/56/56 55/55/55
f 59/59/59 58/58/58 57/57/57
f 57/57/57 60/60/60 59/59/59
f 63/63/63 62/62/62 61/61/61
f 61/61/61 64/64/64 63/63/63
f 67/67/67 66/66/66 65/65/65
f 65/65/65 68/68/68 67/67/67
f 71/71/71 70/70/70 69/69/69
f 69/69/69 72/72/72 71/71/71
f 75/75/75 74/74/74 73/73/73
f 73/73/73 76/76/76 75/75/75
f 79/79/79 78/78/78 77/77/77
f 77/77/77 80/80/80 79/79/79
f 83/83/83 82/82/82 81/81/81
f 81/81/81 84/84/84 83/83/83
f 87/87/87 86/86/86 85/85/85
f 85/85/85 88/88/88 87/87/87
f 91/91/91 90/90/90 89/89/89
f 89/89/89 92/92/92 91/91/91
f 95/95/95 94/94/94 93/93/93
f 93/93/93 96/96/96 95/95/95
f 99/99/99 98/98/98 97/97/97
f 97/97/97 100/100/100 99/99/99
f 103/103/103 102/102/102 101/101/101
f 101/101/101 104/104/104 103/103/103
f 107/107/107 106/106/106 105/105/105
f 105/105/105 108/108/108 107/107/107
f 111/111/111 110/110/110 109/109/109
f 109/109/109 112/112/112 111/111/111
f 115/115/115 114/114/114 113/113/113
f 113/113/113 116/116/116 115/115/115
f 119/119/119 118/118/118 117/117/117
f 117/117/117 120/120/120 119/119/119
f 123/123/123 122/122/122 121/121/121
f 121/121/121 124/124/124 123/123/123
f 127/127/127 126/126/126 125/125/125
f 125/125/125 128/128/128 127/127/127
f 131/131/131 130/130/130 129/129/129
f 129/129/129 132/132/132 131/131/131
f 135/135/135 134/134/134 133/133/133
f 133/133/133 136/136/136 135/135/135
f 139/139/139 138/138/138 137/137/137
f 137/137/137 140/140/140 139/139/139
f 143/143/143 142/142/142 141/141/141
f 141/141/141 144/144/144 143/143/143
f 147/147/147 146/146/146 145/145/145
f 145/145/145 148/148/148 147/147/147
f 151/151/151 150/150/150 149/149/149
f 149/149/149 152/152/152 151/151/151
f 155/155/155 154/154/154 153/153/153
f 153/153/153 156/156/156 155/155/155
f 159/159/159 158/158/158 157/157/157
f 157/157/157 160/160/160 159/159/159
f 163/163/163 162/162/162 161/161/161
f 161/161/161 164/164/164 163/163/163
f 167/167/167 166/166/166 165/165/165
f 165/165/165 168/168/168 167/167/167
