g changmen_2-mesh
v -736 123 0
v -736 763 0
v -1216 763 0
v -1216 123 0
v -256 123 0
v -256 763 0
v -736 763 0
v -736 123 0
v -352 763 0
v -352 891 0
v -672 891 0
v -672 763 0
v -672 763 0
v -672 891 0
v -960 891 0
v -960 763 0
v -128 315 0
v -128 571 0
v -256 571 0
v -256 315 0
v -128 91 0
v -128 315 0
v -256 315 0
v -256 91 0
v -1216 347 0
v -1216 539 0
v -1344 539 0
v -1344 347 0
v -384 27 0
v -384 123 0
v -640 123 0
v -640 27 0
v -640 27 0
v -640 123 0
v -864 123 0
v -864 27 0
v -0 155 0
v -0 315 0
v -128 315 0
v -128 155 0
v -1216 187 0
v -1216 347 0
v -1344 347 0
v -1344 187 0
v -256 0 0
v -256 123 0
v -384 123 0
v -384 0 0
v -352 891 0
v -352 987 0
v -512 987 0
v -512 891 0
v -192 571 0
v -192 699 0
v -256 699 0
v -256 571 0
v -960 59 0
v -960 123 0
v -1056 123 0
v -1056 59 0
v -960 763 0
v -960 827 0
v -1056 827 0
v -1056 763 0
v -640 891 0
v -640 955 0
v -736 955 0
v -736 891 0
v -736 891 0
v -736 955 0
v -832 955 0
v -832 891 0
v -864 59 0
v -864 123 0
v -960 123 0
v -960 59 0
v -1248 667 0
v -1248 731 0
v -1312 731 0
v -1312 667 0
v -64 91 0
v -64 155 0
v -128 155 0
v -128 91 0
v -1056 763 0
v -1056 827 0
v -1120 827 0
v -1120 763 0
v -96 379 0
v -96 475 0
v -128 475 0
v -128 379 0
v -1216 635 0
v -1216 731 0
v -1248 731 0
v -1248 635 0
v -1248 539 0
v -1248 571 0
v -1344 571 0
v -1344 539 0
v -1216 539 0
v -1216 635 0
v -1248 635 0
v -1248 539 0
v -448 987 0
v -448 1019 0
v -512 1019 0
v -512 987 0
v -160 571 0
v -160 635 0
v -192 635 0
v -192 571 0
v -576 891 0
v -576 923 0
v -640 923 0
v -640 891 0
v -960 827 0
v -960 859 0
v -1024 859 0
v -1024 827 0
v -1248 571 0
v -1248 635 0
v -1280 635 0
v -1280 571 0
v -960 27 0
v -960 59 0
v -1024 59 0
v -1024 27 0
v -704 0 0
v -704 27 0
v -768 27 0
v -768 0 0
v -192 59 0
v -192 91 0
v -256 91 0
v -256 59 0
v -1376 251 0
v -1376 315 0
v -1399 315 0
v -1399 251 0
v -1056 91 0
v -1056 123 0
v -1120 123 0
v -1120 91 0
v -1312 603 0
v -1312 635 0
v -1376 635 0
v -1376 603 0
v -1344 315 0
v -1344 379 0
v -1376 379 0
v -1376 315 0
v -1344 251 0
v -1344 315 0
v -1376 315 0
v -1376 251 0
v -896 891 0
v -896 923 0
v -960 923 0
v -960 891 0
v -1344 539 0
v -1344 571 0
v -1399 571 0
v -1399 539 0
v -96 315 0
v -96 379 0
v -128 379 0
v -128 315 0
v -256 763 0
v -256 795 0
v -320 795 0
v -320 763 0
v -832 891 0
v -832 923 0
v -896 923 0
v -896 891 0
v -512 0 0
v -512 27 0
v -576 27 0
v -576 0 0
v -576 0 0
v -576 27 0
v -640 27 0
v -640 0 0
v -1344 571 0
v -1344 603 0
v -1376 603 0
v -1376 571 0
v -1280 571 0
v -1280 603 0
v -1312 603 0
v -1312 571 0
v -1280 635 0
v -1280 667 0
v -1312 667 0
v -1312 635 0
v -224 699 0
v -224 731 0
v -256 731 0
v -256 699 0
v -64 315 0
v -64 347 0
v -96 347 0
v -96 315 0
v -224 27 0
v -224 59 0
v -256 59 0
v -256 27 0
v -1344 59 0
v -1344 91 0
v -1376 91 0
v -1376 59 0
v -1216 155 0
v -1216 187 0
v -1248 187 0
v -1248 155 0
v -32 123 0
v -32 155 0
v -64 155 0
v -64 123 0
v -384 987 0
v -384 1019 0
v -416 1019 0
v -416 987 0
v -640 955 0
v -640 987 0
v -672 987 0
v -672 955 0
v -1376 603 0
v -1376 635 0
v -1399 635 0
v -1399 603 0
v -320 763 0
v -320 795 0
v -352 795 0
v -352 763 0
v -1280 955 0
v -1280 987 0
v -1312 987 0
v -1312 955 0
v -1152 763 0
v -1152 795 0
v -1184 795 0
v -1184 763 0
v -1248 731 0
v -1248 763 0
v -1280 763 0
v -1280 731 0
v -512 891 0
v -512 923 0
v -544 923 0
v -544 891 0
v -320 795 0
v -320 827 0
v -352 827 0
v -352 795 0
vt 0.00048828125 0.00155764818
vt 0.00048828125 0.998442352
vt 0.234863281 0.998442352
vt 0.234863281 0.00155764818
vt 0.235839844 0.00155764818
vt 0.235839844 0.998442352
vt 0.470214844 0.998442352
vt 0.470214844 0.00155764818
vt 0.471191406 0.00155764818
vt 0.471191406 0.200934589
vt 0.627441406 0.200934589
vt 0.627441406 0.00155764818
vt 0.628417969 0.00155764818
vt 0.628417969 0.200934589
vt 0.769042969 0.200934589
vt 0.769042969 0.00155764818
vt 0.770019531 0.00155764818
vt 0.770019531 0.40031153
vt 0.832519531 0.40031153
vt 0.832519531 0.00155764818
vt 0.833496094 0.00155764818
vt 0.833496094 0.350467265
vt 0.895996094 0.350467265
vt 0.895996094 0.00155764818
vt 0.896972656 0.00155764818
vt 0.896972656 0.300623059
vt 0.959472656 0.300623059
vt 0.959472656 0.00155764818
vt 0.471191406 0.204049826
vt 0.471191406 0.353582561
vt 0.596191406 0.353582561
vt 0.596191406 0.204049826
vt 0.597167969 0.204049826
vt 0.597167969 0.353582561
vt 0.706542969 0.353582561
vt 0.706542969 0.204049826
vt 0.896972656 0.303738296
vt 0.896972656 0.552959502
vt 0.959472656 0.552959502
vt 0.959472656 0.303738296
vt 0.833496094 0.353582561
vt 0.833496094 0.602803707
vt 0.895996094 0.602803707
vt 0.895996094 0.353582561
vt 0.471191406 0.356697798
vt 0.471191406 0.549844265
vt 0.533691406 0.549844265
vt 0.533691406 0.356697798
vt 0.534667969 0.356697798
vt 0.534667969 0.506230533
vt 0.612792969 0.506230533
vt 0.612792969 0.356697798
vt 0.960449219 0.00155764818
vt 0.960449219 0.200934589
vt 0.991699219 0.200934589
vt 0.991699219 0.00155764818
vt 0.707519531 0.204049826
vt 0.707519531 0.303738296
vt 0.754394531 0.303738296
vt 0.754394531 0.204049826
vt 0.707519531 0.306853592
vt 0.707519531 0.406542063
vt 0.754394531 0.406542063
vt 0.754394531 0.306853592
vt 0.613769531 0.356697798
vt 0.613769531 0.456386268
vt 0.660644531 0.456386268
vt 0.660644531 0.356697798
vt 0.770019531 0.403426766
vt 0.770019531 0.503115296
vt 0.816894531 0.503115296
vt 0.816894531 0.403426766
vt 0.707519531 0.4096573
vt 0.707519531 0.50934577
vt 0.754394531 0.50934577
vt 0.754394531 0.4096573
vt 0.960449219 0.204049826
vt 0.960449219 0.303738296
vt 0.991699219 0.303738296
vt 0.991699219 0.204049826
vt 0.960449219 0.306853592
vt 0.960449219 0.406542063
vt 0.991699219 0.406542063
vt 0.991699219 0.306853592
vt 0.661621094 0.356697798
vt 0.661621094 0.456386268
vt 0.692871094 0.456386268
vt 0.692871094 0.356697798
vt 0.960449219 0.4096573
vt 0.960449219 0.559190035
vt 0.976074219 0.559190035
vt 0.976074219 0.4096573
vt 0.977050781 0.4096573
vt 0.977050781 0.559190035
vt 0.992675781 0.559190035
vt 0.992675781 0.4096573
vt 0.613769531 0.459501565
vt 0.613769531 0.50934577
vt 0.660644531 0.50934577
vt 0.660644531 0.459501565
vt 0.661621094 0.459501565
vt 0.661621094 0.6090343
vt 0.677246094 0.6090343
vt 0.677246094 0.459501565
vt 0.770019531 0.506230533
vt 0.770019531 0.556074739
vt 0.801269531 0.556074739
vt 0.801269531 0.506230533
vt 0.678222656 0.459501565
vt 0.678222656 0.559190035
vt 0.693847656 0.559190035
vt 0.693847656 0.459501565
vt 0.534667969 0.50934577
vt 0.534667969 0.559190035
vt 0.565917969 0.559190035
vt 0.565917969 0.50934577
vt 0.566894531 0.50934577
vt 0.566894531 0.559190035
vt 0.598144531 0.559190035
vt 0.598144531 0.50934577
vt 0.802246094 0.506230533
vt 0.802246094 0.605919003
vt 0.817871094 0.605919003
vt 0.817871094 0.506230533
vt 0.613769531 0.512461066
vt 0.613769531 0.562305331
vt 0.645019531 0.562305331
vt 0.645019531 0.512461066
vt 0.707519531 0.512461066
vt 0.707519531 0.556074739
vt 0.738769531 0.556074739
vt 0.738769531 0.512461066
vt 0.471191406 0.552959502
vt 0.471191406 0.602803707
vt 0.502441406 0.602803707
vt 0.502441406 0.552959502
vt 0.755371094 0.204049826
vt 0.755371094 0.303738296
vt 0.767089844 0.303738296
vt 0.767089844 0.204049826
vt 0.896972656 0.556074739
vt 0.896972656 0.605919003
vt 0.928222656 0.605919003
vt 0.928222656 0.556074739
vt 0.707519531 0.559190035
vt 0.707519531 0.6090343
vt 0.738769531 0.6090343
vt 0.738769531 0.559190035
vt 0.739746094 0.512461066
vt 0.739746094 0.612149537
vt 0.755371094 0.612149537
vt 0.755371094 0.512461066
vt 0.503417969 0.552959502
vt 0.503417969 0.652647972
vt 0.519042969 0.652647972
vt 0.519042969 0.552959502
vt 0.770019531 0.559190035
vt 0.770019531 0.6090343
vt 0.801269531 0.6090343
vt 0.801269531 0.559190035
vt 0.929199219 0.556074739
vt 0.929199219 0.605919003
vt 0.956542969 0.605919003
vt 0.956542969 0.556074739
vt 0.534667969 0.562305331
vt 0.534667969 0.661993742
vt 0.550292969 0.661993742
vt 0.550292969 0.562305331
vt 0.551269531 0.562305331
vt 0.551269531 0.612149537
vt 0.582519531 0.612149537
vt 0.582519531 0.562305331
vt 0.960449219 0.562305331
vt 0.960449219 0.612149537
vt 0.991699219 0.612149537
vt 0.991699219 0.562305331
vt 0.613769531 0.565420568
vt 0.613769531 0.6090343
vt 0.645019531 0.6090343
vt 0.645019531 0.565420568
vt 0.471191406 0.605919003
vt 0.471191406 0.649532676
vt 0.502441406 0.649532676
vt 0.502441406 0.605919003
vt 0.583496094 0.562305331
vt 0.583496094 0.612149537
vt 0.599121094 0.612149537
vt 0.599121094 0.562305331
vt 0.678222656 0.562305331
vt 0.678222656 0.612149537
vt 0.693847656 0.612149537
vt 0.693847656 0.562305331
vt 0.833496094 0.605919003
vt 0.833496094 0.655763268
vt 0.849121094 0.655763268
vt 0.849121094 0.605919003
vt 0.850097656 0.605919003
vt 0.850097656 0.655763268
vt 0.865722656 0.655763268
vt 0.865722656 0.605919003
vt 0.866699219 0.605919003
vt 0.866699219 0.655763268
vt 0.882324219 0.655763268
vt 0.882324219 0.605919003
vt 0.802246094 0.6090343
vt 0.802246094 0.658878505
vt 0.817871094 0.658878505
vt 0.817871094 0.6090343
vt 0.896972656 0.6090343
vt 0.896972656 0.658878505
vt 0.912597656 0.658878505
vt 0.912597656 0.6090343
vt 0.913574219 0.6090343
vt 0.913574219 0.658878505
vt 0.929199219 0.658878505
vt 0.929199219 0.6090343
vt 0.930175781 0.6090343
vt 0.930175781 0.658878505
vt 0.945800781 0.658878505
vt 0.945800781 0.6090343
vt 0.613769531 0.612149537
vt 0.613769531 0.661993742
vt 0.629394531 0.661993742
vt 0.629394531 0.612149537
vt 0.630371094 0.612149537
vt 0.630371094 0.661993742
vt 0.645996094 0.661993742
vt 0.645996094 0.612149537
vt 0.756347656 0.306853592
vt 0.756347656 0.356697798
vt 0.768066406 0.356697798
vt 0.768066406 0.306853592
vt 0.661621094 0.612149537
vt 0.661621094 0.661993742
vt 0.677246094 0.661993742
vt 0.677246094 0.612149537
vt 0.707519531 0.612149537
vt 0.707519531 0.661993742
vt 0.723144531 0.661993742
vt 0.723144531 0.612149537
vt 0.770019531 0.612149537
vt 0.770019531 0.661993742
vt 0.785644531 0.661993742
vt 0.785644531 0.612149537
vt 0.551269531 0.615264773
vt 0.551269531 0.665109038
vt 0.566894531 0.665109038
vt 0.566894531 0.615264773
vt 0.567871094 0.615264773
vt 0.567871094 0.665109038
vt 0.583496094 0.665109038
vt 0.583496094 0.615264773
vt 0.584472656 0.615264773
vt 0.584472656 0.665109038
vt 0.600097656 0.665109038
vt 0.600097656 0.615264773
g changmen_2-mesh_0
f 3/3/3 2/2/2 1/1/1
f 1/1/1 4/4/4 3/3/3
f 7/7/7 6/6/6 5/5/5
f 5/5/5 8/8/8 7/7/7
f 11/11/11 10/10/10 9/9/9
f 9/9/9 12/12/12 11/11/11
f 15/15/15 14/14/14 13/13/13
f 13/13/13 16/16/16 15/15/15
f 19/19/19 18/18/18 17/17/17
f 17/17/17 20/20/20 19/19/19
f 23/23/23 22/22/22 21/21/21
f 21/21/21 24/24/24 23/23/23
f 27/27/27 26/26/26 25/25/25
f 25/25/25 28/28/28 27/27/27
f 31/31/31 30/30/30 29/29/29
f 29/29/29 32/32/32 31/31/31
f 35/35/35 34/34/34 33/33/33
f 33/33/33 36/36/36 35/35/35
f 39/39/39 38/38/38 37/37/37
f 37/37/37 40/40/40 39/39/39
f 43/43/43 42/42/42 41/41/41
f 41/41/41 44/44/44 43/43/43
f 47/47/47 46/46/46 45/45/45
f 45/45/45 48/48/48 47/47/47
f 51/51/51 50/50/50 49/49/49
f 49/49/49 52/52/52 51/51/51
f 55/55/55 54/54/54 53/53/53
f 53/53/53 56/56/56 55/55/55
f 59/59/59 58/58/58 57/57/57
f 57/57/57 60/60/60 59/59/59
f 63/63/63 62/62/62 61/61/61
f 61/61/61 64/64/64 63/63/63
f 67/67/67 66/66/66 65/65/65
f 65/65/65 68/68/68 67/67/67
f 71/71/71 70/70/70 69/69/69
f 69/69/69 72/72/72 71/71/71
f 75/75/75 74/74/74 73/73/73
f 73/73/73 76/76/76 75/75/75
f 79/79/79 78/78/78 77/77/77
f 77/77/77 80/80/80 79/79/79
f 83/83/83 82/82/82 81/81/81
f 81/81/81 84/84/84 83/83/83
f 87/87/87 86/86/86 85/85/85
f 85/85/85 88/88/88 87/87/87
f 91/91/91 90/90/90 89/89/89
f 89/89/89 92/92/92 91/91/91
f 95/95/95 94/94/94 93/93/93
f 93/93/93 96/96/96 95/95/95
f 99/99/99 98/98/98 97/97/97
f 97/97/97 100/100/100 99/99/99
f 103/103/103 102/102/102 101/101/101
f 101/101/101 104/104/104 103/103/103
f 107/107/107 106/106/106 105/105/105
f 105/105/105 108/108/108 107/107/107
f 111/111/111 110/110/110 109/109/109
f 109/109/109 112/112/112 111/111/111
f 115/115/115 114/114/114 113/113/113
f 113/113/113 116/116/116 115/115/115
f 119/119/119 118/118/118 117/117/117
f 117/117/117 120/120/120 119/119/119
f 123/123/123 122/122/122 121/121/121
f 121/121/121 124/124/124 123/123/123
f 127/127/127 126/126/126 125/125/125
f 125/125/125 128/128/128 127/127/127
f 131/131/131 130/130/130 129/129/129
f 129/129/129 132/132/132 131/131/131
f 135/135/135 134/134/134 133/133/133
f 133/133/133 136/136/136 135/135/135
f 139/139/139 138/138/138 137/137/137
f 137/137/137 140/140/140 139/139/139
f 143/143/143 142/142/142 141/141/141
f 141/141/141 144/144/144 143/143/143
f 147/147/147 146/146/146 145/145/145
f 145/145/145 148/148/148 147/147/147
f 151/151/151 150/150/150 149/149/149
f 149/149/149 152/152/152 151/151/151
f 155/155/155 154/154/154 153/153/153
f 153/153/153 156/156/156 155/155/155
f 159/159/159 158/158/158 157/157/157
f 157/157/157 160/160/160 159/159/159
f 163/163/163 162/162/162 161/161/161
f 161/161/161 164/164/164 163/163/163
f 167/167/167 166/166/166 165/165/165
f 165/165/165 168/168/168 167/167/167
f 171/171/171 170/170/170 169/169/169
f 169/169/169 172/172/172 171/171/171
f 175/175/175 174/174/174 173/173/173
f 173/173/173 176/176/176 175/175/175
f 179/179/179 178/178/178 177/177/177
f 177/177/177 180/180/180 179/179/179
f 183/183/183 182/182/182 181/181/181
f 181/181/181 184/184/184 183/183/183
f 187/187/187 186/186/186 185/185/185
f 185/185/185 188/188/188 187/187/187
f 191/191/191 190/190/190 189/189/189
f 189/189/189 192/192/192 191/191/191
f 195/195/195 194/194/194 193/193/193
f 193/193/193 196/196/196 195/195/195
f 199/199/199 198/198/198 197/197/197
f 197/197/197 200/200/200 199/199/199
f 203/203/203 202/202/202 201/201/201
f 201/201/201 204/204/204 203/203/203
f 207/207/207 206/206/206 205/205/205
f 205/205/205 208/208/208 207/207/207
f 211/211/211 210/210/210 209/209/209
f 209/209/209 212/212/212 211/211/211
f 215/215/215 214/214/214 213/213/213
f 213/213/213 216/216/216 215/215/215
f 219/219/219 218/218/218 217/217/217
f 217/217/217 220/220/220 219/219/219
f 223/223/223 222/222/222 221/221/221
f 221/221/221 224/224/224 223/223/223
f 227/227/227 226/226/226 225/225/225
f 225/225/225 228/228/228 227/227/227
f 231/231/231 230/230/230 229/229/229
f 229/229/229 232/232/232 231/231/231
f 235/235/235 234/234/234 233/233/233
f 233/233/233 236/236/236 235/235/235
f 239/239/239 238/238/238 237/237/237
f 237/237/237 240/240/240 239/239/239
f 243/243/243 242/242/242 241/241/241
f 241/241/241 244/244/244 243/243/243
f 247/247/247 246/246/246 245/245/245
f 245/245/245 248/248/248 247/247/247
f 251/251/251 250/250/250 249/249/249
f 249/249/249 252/252/252 251/251/251
f 255/255/255 254/254/254 253/253/253
f 253/253/253 256/256/256 255/255/255
