g luna_2_doa-mesh
v -224 261 0
v -224 1669 0
v -1024 1669 0
v -1024 261 0
v -1024 261 0
v -1024 1669 0
v -1792 1669 0
v -1792 261 0
v -992 1669 0
v -992 1893 0
v -1472 1893 0
v -1472 1669 0
v -512 1669 0
v -512 1893 0
v -992 1893 0
v -992 1669 0
v -1792 933 0
v -1792 1445 0
v -1952 1445 0
v -1952 933 0
v -640 101 0
v -640 261 0
v -1120 261 0
v -1120 101 0
v -1792 453 0
v -1792 933 0
v -1952 933 0
v -1952 453 0
v -1120 101 0
v -1120 261 0
v -1568 261 0
v -1568 101 0
v -96 613 0
v -96 965 0
v -224 965 0
v -224 613 0
v -96 965 0
v -96 1317 0
v -224 1317 0
v -224 965 0
v -1120 5 0
v -1120 101 0
v -1408 101 0
v -1408 5 0
v -832 5 0
v -832 101 0
v -1120 101 0
v -1120 5 0
v -64 389 0
v -64 549 0
v -224 549 0
v -224 389 0
v -1472 1669 0
v -1472 1797 0
v -1664 1797 0
v -1664 1669 0
v -736 1893 0
v -736 1989 0
v -960 1989 0
v -960 1893 0
v -960 1893 0
v -960 1989 0
v -1184 1989 0
v -1184 1893 0
v -480 133 0
v -480 261 0
v -640 261 0
v -640 133 0
v -352 1669 0
v -352 1797 0
v -512 1797 0
v -512 1669 0
v -1792 1445 0
v -1792 1573 0
v -1888 1573 0
v -1888 1445 0
v -64 869 0
v -64 1157 0
v -96 1157 0
v -96 869 0
v -1792 325 0
v -1792 453 0
v -1856 453 0
v -1856 325 0
v -1184 1893 0
v -1184 1957 0
v -1312 1957 0
v -1312 1893 0
v -1568 133 0
v -1568 261 0
v -1632 261 0
v -1632 133 0
v -64 613 0
v -64 869 0
v -96 869 0
v -96 613 0
v -1952 1061 0
v -1952 1189 0
v -2016 1189 0
v -2016 1061 0
v -1952 933 0
v -1952 1061 0
v -2016 1061 0
v -2016 933 0
v -160 261 0
v -160 357 0
v -224 357 0
v -224 261 0
v -1632 165 0
v -1632 261 0
v -1696 261 0
v -1696 165 0
v -1664 1669 0
v -1664 1733 0
v -1760 1733 0
v -1760 1669 0
v -160 1509 0
v -160 1605 0
v -224 1605 0
v -224 1509 0
v -1952 645 0
v -1952 837 0
v -1984 837 0
v -1984 645 0
v -1952 453 0
v -1952 645 0
v -1984 645 0
v -1984 453 0
v -128 549 0
v -128 613 0
v -224 613 0
v -224 549 0
v -224 197 0
v -224 261 0
v -320 261 0
v -320 197 0
v -1472 1797 0
v -1472 1861 0
v -1536 1861 0
v -1536 1797 0
v -1856 389 0
v -1856 453 0
v -1920 453 0
v -1920 389 0
v -448 1797 0
v -448 1861 0
v -512 1861 0
v -512 1797 0
v -672 1893 0
v -672 1957 0
v -736 1957 0
v -736 1893 0
v -160 1445 0
v -160 1509 0
v -224 1509 0
v -224 1445 0
v -320 197 0
v -320 261 0
v -384 261 0
v -384 197 0
v -32 1061 0
v -32 1157 0
v -64 1157 0
v -64 1061 0
v -32 709 0
v -32 805 0
v -64 805 0
v -64 709 0
v -32 965 0
v -32 1061 0
v -64 1061 0
v -64 965 0
v -32 805 0
v -32 901 0
v -64 901 0
v -64 805 0
v -1024 0 0
v -1024 5 0
v -1120 5 0
v -1120 0 0
v -1792 1573 0
v -1792 1637 0
v -1824 1637 0
v -1824 1573 0
v -128 1477 0
v -128 1541 0
v -160 1541 0
v -160 1477 0
v -192 1605 0
v -192 1669 0
v -224 1669 0
v -224 1605 0
v -608 1893 0
v -608 1925 0
v -672 1925 0
v -672 1893 0
v -1536 1797 0
v -1536 1829 0
v -1600 1829 0
v -1600 1797 0
v -320 1669 0
v -320 1733 0
v -352 1733 0
v -352 1669 0
v -192 1381 0
v -192 1445 0
v -224 1445 0
v -224 1381 0
v -1696 229 0
v -1696 261 0
v -1760 261 0
v -1760 229 0
v -448 101 0
v -448 133 0
v -512 133 0
v -512 101 0
v -1408 69 0
v -1408 101 0
v -1472 101 0
v -1472 69 0
v -160 1317 0
v -160 1349 0
v -224 1349 0
v -224 1317 0
v -2016 933 0
v -2016 997 0
v -2047 997 0
v -2047 933 0
v -0 389 0
v -0 453 0
v -32 453 0
v -32 389 0
v -736 69 0
v -736 101 0
v -800 101 0
v -800 69 0
v -1984 517 0
v -1984 581 0
v -2016 581 0
v -2016 517 0
v -1312 1893 0
v -1312 1925 0
v -1376 1925 0
v -1376 1893 0
v -1888 1477 0
v -1888 1541 0
v -1920 1541 0
v -1920 1477 0
v -1120 0 0
v -1120 5 0
v -1184 5 0
v -1184 0 0
v -2016 1029 0
v -2016 1093 0
v -2047 1093 0
v -2047 1029 0
v -1984 581 0
v -1984 645 0
v -2016 645 0
v -2016 581 0
v -2016 1093 0
v -2016 1157 0
v -2047 1157 0
v -2047 1093 0
v -384 229 0
v -384 261 0
v -448 261 0
v -448 229 0
v -1952 1317 0
v -1952 1381 0
v -1984 1381 0
v -1984 1317 0
v -1952 1189 0
v -1952 1221 0
v -1984 1221 0
v -1984 1189 0
v -1952 901 0
v -1952 933 0
v -1984 933 0
v -1984 901 0
v -2016 613 0
v -2016 645 0
v -2047 645 0
v -2047 613 0
v -96 549 0
v -96 581 0
v -128 581 0
v -128 549 0
v -192 357 0
v -192 389 0
v -224 389 0
v -224 357 0
v -192 229 0
v -192 261 0
v -224 261 0
v -224 229 0
v -1504 69 0
v -1504 101 0
v -1536 101 0
v -1536 69 0
v -448 197 0
v -448 229 0
v -480 229 0
v -480 197 0
v -1824 1573 0
v -1824 1605 0
v -1856 1605 0
v -1856 1573 0
v -1888 1445 0
v -1888 1477 0
v -1920 1477 0
v -1920 1445 0
v -1376 1893 0
v -1376 1925 0
v -1408 1925 0
v -1408 1893 0
v -448 229 0
v -448 261 0
v -480 261 0
v -480 229 0
v -1952 1285 0
v -1952 1317 0
v -1984 1317 0
v -1984 1285 0
v -1664 1733 0
v -1664 1765 0
v -1696 1765 0
v -1696 1733 0
v -1760 1669 0
v -1760 1701 0
v -1792 1701 0
v -1792 1669 0
v -800 69 0
v -800 101 0
v -832 101 0
v -832 69 0
v -416 1797 0
v -416 1829 0
v -448 1829 0
v -448 1797 0
vt 0.00048828125 0.000576674938
vt 0.00048828125 0.812572122
vt 0.391113281 0.812572122
vt 0.391113281 0.000576674938
vt 0.392089844 0.000576674938
vt 0.392089844 0.812572122
vt 0.767089844 0.812572122
vt 0.767089844 0.000576674938
vt 0.00048828125 0.813725471
vt 0.00048828125 0.942906559
vt 0.234863281 0.942906559
vt 0.234863281 0.813725471
vt 0.235839844 0.813725471
vt 0.235839844 0.942906559
vt 0.470214844 0.942906559
vt 0.470214844 0.813725471
vt 0.768066406 0.000576674938
vt 0.768066406 0.295847774
vt 0.846191406 0.295847774
vt 0.846191406 0.000576674938
vt 0.471191406 0.813725471
vt 0.471191406 0.905997694
vt 0.705566406 0.905997694
vt 0.705566406 0.813725471
vt 0.847167969 0.000576674938
vt 0.847167969 0.277393281
vt 0.925292969 0.277393281
vt 0.925292969 0.000576674938
vt 0.768066406 0.297001183
vt 0.768066406 0.389273345
vt 0.986816406 0.389273345
vt 0.986816406 0.297001183
vt 0.768066406 0.390426755
vt 0.768066406 0.593425632
vt 0.830566406 0.593425632
vt 0.830566406 0.390426755
vt 0.831542969 0.390426755
vt 0.831542969 0.593425632
vt 0.894042969 0.593425632
vt 0.894042969 0.390426755
vt 0.768066406 0.594578981
vt 0.768066406 0.649942338
vt 0.908691406 0.649942338
vt 0.908691406 0.594578981
vt 0.768066406 0.651095748
vt 0.768066406 0.706459045
vt 0.908691406 0.706459045
vt 0.908691406 0.651095748
vt 0.909667969 0.390426755
vt 0.909667969 0.482698977
vt 0.987792969 0.482698977
vt 0.987792969 0.390426755
vt 0.768066406 0.707612455
vt 0.768066406 0.781430244
vt 0.861816406 0.781430244
vt 0.861816406 0.707612455
vt 0.862792969 0.707612455
vt 0.862792969 0.762975812
vt 0.972167969 0.762975812
vt 0.972167969 0.707612455
vt 0.862792969 0.764129162
vt 0.862792969 0.819492519
vt 0.972167969 0.819492519
vt 0.972167969 0.764129162
vt 0.768066406 0.782583594
vt 0.768066406 0.856401384
vt 0.846191406 0.856401384
vt 0.846191406 0.782583594
vt 0.862792969 0.820645928
vt 0.862792969 0.894463658
vt 0.940917969 0.894463658
vt 0.940917969 0.820645928
vt 0.706542969 0.813725471
vt 0.706542969 0.887543261
vt 0.753417969 0.887543261
vt 0.753417969 0.813725471
vt 0.973144531 0.483852386
vt 0.973144531 0.649942338
vt 0.988769531 0.649942338
vt 0.988769531 0.483852386
vt 0.941894531 0.820645928
vt 0.941894531 0.894463658
vt 0.973144531 0.894463658
vt 0.973144531 0.820645928
vt 0.768066406 0.857554793
vt 0.768066406 0.894463658
vt 0.830566406 0.894463658
vt 0.830566406 0.857554793
vt 0.706542969 0.888696671
vt 0.706542969 0.9625144
vt 0.737792969 0.9625144
vt 0.737792969 0.888696671
vt 0.974121094 0.651095748
vt 0.974121094 0.798731267
vt 0.989746094 0.798731267
vt 0.989746094 0.651095748
vt 0.768066406 0.895617068
vt 0.768066406 0.969434857
vt 0.799316406 0.969434857
vt 0.799316406 0.895617068
vt 0.800292969 0.895617068
vt 0.800292969 0.969434857
vt 0.831542969 0.969434857
vt 0.831542969 0.895617068
vt 0.862792969 0.895617068
vt 0.862792969 0.950980365
vt 0.894042969 0.950980365
vt 0.894042969 0.895617068
vt 0.895019531 0.895617068
vt 0.895019531 0.950980365
vt 0.926269531 0.950980365
vt 0.926269531 0.895617068
vt 0.927246094 0.895617068
vt 0.927246094 0.932525933
vt 0.974121094 0.932525933
vt 0.974121094 0.895617068
vt 0.471191406 0.907151103
vt 0.471191406 0.9625144
vt 0.502441406 0.9625144
vt 0.502441406 0.907151103
vt 0.975097656 0.799884677
vt 0.975097656 0.910611272
vt 0.990722656 0.910611272
vt 0.990722656 0.799884677
vt 0.832519531 0.857554793
vt 0.832519531 0.968281448
vt 0.848144531 0.968281448
vt 0.848144531 0.857554793
vt 0.503417969 0.907151103
vt 0.503417969 0.944059968
vt 0.550292969 0.944059968
vt 0.550292969 0.907151103
vt 0.551269531 0.907151103
vt 0.551269531 0.944059968
vt 0.598144531 0.944059968
vt 0.598144531 0.907151103
vt 0.599121094 0.907151103
vt 0.599121094 0.944059968
vt 0.630371094 0.944059968
vt 0.630371094 0.907151103
vt 0.631347656 0.907151103
vt 0.631347656 0.944059968
vt 0.662597656 0.944059968
vt 0.662597656 0.907151103
vt 0.663574219 0.907151103
vt 0.663574219 0.944059968
vt 0.694824219 0.944059968
vt 0.694824219 0.907151103
vt 0.927246094 0.933679342
vt 0.927246094 0.970588207
vt 0.958496094 0.970588207
vt 0.958496094 0.933679342
vt 0.959472656 0.933679342
vt 0.959472656 0.970588207
vt 0.990722656 0.970588207
vt 0.990722656 0.933679342
vt 0.00048828125 0.944059968
vt 0.00048828125 0.980968833
vt 0.0317382812 0.980968833
vt 0.0317382812 0.944059968
vt 0.738769531 0.888696671
vt 0.738769531 0.944059968
vt 0.754394531 0.944059968
vt 0.754394531 0.888696671
vt 0.0327148438 0.944059968
vt 0.0327148438 0.999423325
vt 0.0483398438 0.999423325
vt 0.0483398438 0.944059968
vt 0.0493164062 0.944059968
vt 0.0493164062 0.999423325
vt 0.0649414062 0.999423325
vt 0.0649414062 0.944059968
vt 0.0659179688 0.944059968
vt 0.0659179688 0.999423325
vt 0.0815429688 0.999423325
vt 0.0815429688 0.944059968
vt 0.0825195312 0.944059968
vt 0.0825195312 0.947520196
vt 0.129394531 0.947520196
vt 0.129394531 0.944059968
vt 0.130371094 0.944059968
vt 0.130371094 0.980968833
vt 0.145996094 0.980968833
vt 0.145996094 0.944059968
vt 0.146972656 0.944059968
vt 0.146972656 0.980968833
vt 0.162597656 0.980968833
vt 0.162597656 0.944059968
vt 0.163574219 0.944059968
vt 0.163574219 0.980968833
vt 0.179199219 0.980968833
vt 0.179199219 0.944059968
vt 0.180175781 0.944059968
vt 0.180175781 0.9625144
vt 0.211425781 0.9625144
vt 0.211425781 0.944059968
vt 0.212402344 0.944059968
vt 0.212402344 0.9625144
vt 0.243652344 0.9625144
vt 0.243652344 0.944059968
vt 0.244628906 0.944059968
vt 0.244628906 0.980968833
vt 0.260253906 0.980968833
vt 0.260253906 0.944059968
vt 0.261230469 0.944059968
vt 0.261230469 0.980968833
vt 0.276855469 0.980968833
vt 0.276855469 0.944059968
vt 0.277832031 0.944059968
vt 0.277832031 0.9625144
vt 0.309082031 0.9625144
vt 0.309082031 0.944059968
vt 0.310058594 0.944059968
vt 0.310058594 0.9625144
vt 0.341308594 0.9625144
vt 0.341308594 0.944059968
vt 0.342285156 0.944059968
vt 0.342285156 0.9625144
vt 0.373535156 0.9625144
vt 0.373535156 0.944059968
vt 0.374511719 0.944059968
vt 0.374511719 0.9625144
vt 0.405761719 0.9625144
vt 0.405761719 0.944059968
vt 0.406738281 0.944059968
vt 0.406738281 0.980968833
vt 0.422363281 0.980968833
vt 0.422363281 0.944059968
vt 0.423339844 0.944059968
vt 0.423339844 0.980968833
vt 0.438964844 0.980968833
vt 0.438964844 0.944059968
vt 0.503417969 0.945213377
vt 0.503417969 0.96366781
vt 0.534667969 0.96366781
vt 0.534667969 0.945213377
vt 0.439941406 0.944059968
vt 0.439941406 0.980968833
vt 0.455566406 0.980968833
vt 0.455566406 0.944059968
vt 0.535644531 0.945213377
vt 0.535644531 0.96366781
vt 0.566894531 0.96366781
vt 0.566894531 0.945213377
vt 0.567871094 0.945213377
vt 0.567871094 0.982122242
vt 0.583496094 0.982122242
vt 0.583496094 0.945213377
vt 0.584472656 0.945213377
vt 0.584472656 0.948673606
vt 0.615722656 0.948673606
vt 0.615722656 0.945213377
vt 0.616699219 0.945213377
vt 0.616699219 0.982122242
vt 0.632324219 0.982122242
vt 0.632324219 0.945213377
vt 0.633300781 0.945213377
vt 0.633300781 0.982122242
vt 0.648925781 0.982122242
vt 0.648925781 0.945213377
vt 0.649902344 0.945213377
vt 0.649902344 0.982122242
vt 0.665527344 0.982122242
vt 0.665527344 0.945213377
vt 0.666503906 0.945213377
vt 0.666503906 0.96366781
vt 0.697753906 0.96366781
vt 0.697753906 0.945213377
vt 0.738769531 0.945213377
vt 0.738769531 0.982122242
vt 0.754394531 0.982122242
vt 0.754394531 0.945213377
vt 0.0825195312 0.948673606
vt 0.0825195312 0.967128038
vt 0.0981445312 0.967128038
vt 0.0981445312 0.948673606
vt 0.0991210938 0.948673606
vt 0.0991210938 0.967128038
vt 0.114746094 0.967128038
vt 0.114746094 0.948673606
vt 0.584472656 0.949827015
vt 0.584472656 0.968281448
vt 0.600097656 0.968281448
vt 0.600097656 0.949827015
vt 0.862792969 0.952133775
vt 0.862792969 0.970588207
vt 0.878417969 0.970588207
vt 0.878417969 0.952133775
vt 0.879394531 0.952133775
vt 0.879394531 0.970588207
vt 0.895019531 0.970588207
vt 0.895019531 0.952133775
vt 0.895996094 0.952133775
vt 0.895996094 0.970588207
vt 0.911621094 0.970588207
vt 0.911621094 0.952133775
vt 0.180175781 0.96366781
vt 0.180175781 0.982122242
vt 0.195800781 0.982122242
vt 0.195800781 0.96366781
vt 0.196777344 0.96366781
vt 0.196777344 0.982122242
vt 0.212402344 0.982122242
vt 0.212402344 0.96366781
vt 0.213378906 0.96366781
vt 0.213378906 0.982122242
vt 0.229003906 0.982122242
vt 0.229003906 0.96366781
vt 0.277832031 0.96366781
vt 0.277832031 0.982122242
vt 0.293457031 0.982122242
vt 0.293457031 0.96366781
vt 0.294433594 0.96366781
vt 0.294433594 0.982122242
vt 0.310058594 0.982122242
vt 0.310058594 0.96366781
vt 0.311035156 0.96366781
vt 0.311035156 0.982122242
vt 0.326660156 0.982122242
vt 0.326660156 0.96366781
vt 0.327636719 0.96366781
vt 0.327636719 0.982122242
vt 0.343261719 0.982122242
vt 0.343261719 0.96366781
vt 0.344238281 0.96366781
vt 0.344238281 0.982122242
vt 0.359863281 0.982122242
vt 0.359863281 0.96366781
vt 0.360839844 0.96366781
vt 0.360839844 0.982122242
vt 0.376464844 0.982122242
vt 0.376464844 0.96366781
vt 0.377441406 0.96366781
vt 0.377441406 0.982122242
vt 0.393066406 0.982122242
vt 0.393066406 0.96366781
vt 0.471191406 0.96366781
vt 0.471191406 0.982122242
vt 0.486816406 0.982122242
vt 0.486816406 0.96366781
g luna_2_doa-mesh_0
f 3/3/3 2/2/2 1/1/1
f 1/1/1 4/4/4 3/3/3
f 7/7/7 6/6/6 5/5/5
f 5/5/5 8/8/8 7/7/7
f 11/11/11 10/10/10 9/9/9
f 9/9/9 12/12/12 11/11/11
f 15/15/15 14/14/14 13/13/13
f 13/13/13 16/16/16 15/15/15
f 19/19/19 18/18/18 17/17/17
f 17/17/17 20/20/20 19/19/19
f 23/23/23 22/22/22 21/21/21
f 21/21/21 24/24/24 23/23/23
f 27/27/27 26/26/26 25/25/25
f 25/25/25 28/28/28 27/27/27
f 31/31/31 30/30/30 29/29/29
f 29/29/29 32/32/32 31/31/31
f 35/35/35 34/34/34 33/33/33
f 33/33/33 36/36/36 35/35/35
f 39/39/39 38/38/38 37/37/37
f 37/37/37 40/40/40 39/39/39
f 43/43/43 42/42/42 41/41/41
f 41/41/41 44/44/44 43/43/43
f 47/47/47 46/46/46 45/45/45
f 45/45/45 48/48/48 47/47/47
f 51/51/51 50/50/50 49/49/49
f 49/49/49 52/52/52 51/51/51
f 55/55/55 54/54/54 53/53/53
f 53/53/53 56/56/56 55/55/55
f 59/59/59 58/58/58 57/57/57
f 57/57/57 60/60/60 59/59/59
f 63/63/63 62/62/62 61/61/61
f 61/61/61 64/64/64 63/63/63
f 67/67/67 66/66/66 65/65/65
f 65/65/65 68/68/68 67/67/67
f 71/71/71 70/70/70 69/69/69
f 69/69/69 72/72/72 71/71/71
f 75/75/75 74/74/74 73/73/73
f 73/73/73 76/76/76 75/75/75
f 79/79/79 78/78/78 77/77/77
f 77/77/77 80/80/80 79/79/79
f 83/83/83 82/82/82 81/81/81
f 81/81/81 84/84/84 83/83/83
f 87/87/87 86/86/86 85/85/85
f 85/85/85 88/88/88 87/87/87
f 91/91/91 90/90/90 89/89/89
f 89/89/89 92/92/92 91/91/91
f 95/95/95 94/94/94 93/93/93
f 93/93/93 96/96/96 95/95/95
f 99/99/99 98/98/98 97/97/97
f 97/97/97 100/100/100 99/99/99
f 103/103/103 102/102/102 101/101/101
f 101/101/101 104/104/104 103/103/103
f 107/107/107 106/106/106 105/105/105
f 105/105/105 108/108/108 107/107/107
f 111/111/111 110/110/110 109/109/109
f 109/109/109 112/112/112 111/111/111
f 115/115/115 114/114/114 113/113/113
f 113/113/113 116/116/116 115/115/115
f 119/119/119 118/118/118 117/117/117
f 117/117/117 120/120/120 119/119/119
f 123/123/123 122/122/122 121/121/121
f 121/121/121 124/124/124 123/123/123
f 127/127/127 126/126/126 125/125/125
f 125/125/125 128/128/128 127/127/127
f 131/131/131 130/130/130 129/129/129
f 129/129/129 132/132/132 131/131/131
f 135/135/135 134/134/134 133/133/133
f 133/133/133 136/136/136 135/135/135
f 139/139/139 138/138/138 137/137/137
f 137/137/137 140/140/140 139/139/139
f 143/143/143 142/142/142 141/141/141
f 141/141/141 144/144/144 143/143/143
f 147/147/147 146/146/146 145/145/145
f 145/145/145 148/148/148 147/147/147
f 151/151/151 150/150/150 149/149/149
f 149/149/149 152/152/152 151/151/151
f 155/155/155 154/154/154 153/153/153
f 153/153/153 156/156/156 155/155/155
f 159/159/159 158/158/158 157/157/157
f 157/157/157 160/160/160 159/159/159
f 163/163/163 162/162/162 161/161/161
f 161/161/161 164/164/164 163/163/163
f 167/167/167 166/166/166 165/165/165
f 165/165/165 168/168/168 167/167/167
f 171/171/171 170/170/170 169/169/169
f 169/169/169 172/172/172 171/171/171
f 175/175/175 174/174/174 173/173/173
f 173/173/173 176/176/176 175/175/175
f 179/179/179 178/178/178 177/177/177
f 177/177/177 180/180/180 179/179/179
f 183/183/183 182/182/182 181/181/181
f 181/181/181 184/184/184 183/183/183
f 187/187/187 186/186/186 185/185/185
f 185/185/185 188/188/188 187/187/187
f 191/191/191 190/190/190 189/189/189
f 189/189/189 192/192/192 191/191/191
f 195/195/195 194/194/194 193/193/193
f 193/193/193 196/196/196 195/195/195
f 199/199/199 198/198/198 197/197/197
f 197/197/197 200/200/200 199/199/199
f 203/203/203 202/202/202 201/201/201
f 201/201/201 204/204/204 203/203/203
f 207/207/207 206/206/206 205/205/205
f 205/205/205 208/208/208 207/207/207
f 211/211/211 210/210/210 209/209/209
f 209/209/209 212/212/212 211/211/211
f 215/215/215 214/214/214 213/213/213
f 213/213/213 216/216/216 215/215/215
f 219/219/219 218/218/218 217/217/217
f 217/217/217 220/220/220 219/219/219
f 223/223/223 222/222/222 221/221/221
f 221/221/221 224/224/224 223/223/223
f 227/227/227 226/226/226 225/225/225
f 225/225/225 228/228/228 227/227/227
f 231/231/231 230/230/230 229/229/229
f 229/229/229 232/232/232 231/231/231
f 235/235/235 234/234/234 233/233/233
f 233/233/233 236/236/236 235/235/235
f 239/239/239 238/238/238 237/237/237
f 237/237/237 240/240/240 239/239/239
f 243/243/243 242/242/242 241/241/241
f 241/241/241 244/244/244 243/243/243
f 247/247/247 246/246/246 245/245/245
f 245/245/245 248/248/248 247/247/247
f 251/251/251 250/250/250 249/249/249
f 249/249/249 252/252/252 251/251/251
f 255/255/255 254/254/254 253/253/253
f 253/253/253 256/256/256 255/255/255
f 259/259/259 258/258/258 257/257/257
f 257/257/257 260/260/260 259/259/259
f 263/263/263 262/262/262 261/261/261
f 261/261/261 264/264/264 263/263/263
f 267/267/267 266/266/266 265/265/265
f 265/265/265 268/268/268 267/267/267
f 271/271/271 270/270/270 269/269/269
f 269/269/269 272/272/272 271/271/271
f 275/275/275 274/274/274 273/273/273
f 273/273/273 276/276/276 275/275/275
f 279/279/279 278/278/278 277/277/277
f 277/277/277 280/280/280 279/279/279
f 283/283/283 282/282/282 281/281/281
f 281/281/281 284/284/284 283/283/283
f 287/287/287 286/286/286 285/285/285
f 285/285/285 288/288/288 287/287/287
f 291/291/291 290/290/290 289/289/289
f 289/289/289 292/292/292 291/291/291
f 295/295/295 294/294/294 293/293/293
f 293/293/293 296/296/296 295/295/295
f 299/299/299 298/298/298 297/297/297
f 297/297/297 300/300/300 299/299/299
f 303/303/303 302/302/302 301/301/301
f 301/301/301 304/304/304 303/303/303
f 307/307/307 306/306/306 305/305/305
f 305/305/305 308/308/308 307/307/307
f 311/311/311 310/310/310 309/309/309
f 309/309/309 312/312/312 311/311/311
f 315/315/315 314/314/314 313/313/313
f 313/313/313 316/316/316 315/315/315
f 319/319/319 318/318/318 317/317/317
f 317/317/317 320/320/320 319/319/319
f 323/323/323 322/322/322 321/321/321
f 321/321/321 324/324/324 323/323/323
f 327/327/327 326/326/326 325/325/325
f 325/325/325 328/328/328 327/327/327
f 331/331/331 330/330/330 329/329/329
f 329/329/329 332/332/332 331/331/331
f 335/335/335 334/334/334 333/333/333
f 333/333/333 336/336/336 335/335/335
f 339/339/339 338/338/338 337/337/337
f 337/337/337 340/340/340 339/339/339
