g luna_2_doa_rw-mesh
v -160 831 0
v -160 1247 0
v -512 1247 0
v -512 831 0
v -160 1247 0
v -160 1663 0
v -512 1663 0
v -512 1247 0
v -64 1663 0
v -64 1983 0
v -384 1983 0
v -384 1663 0
v -288 575 0
v -288 831 0
v -544 831 0
v -544 575 0
v -384 351 0
v -384 575 0
v -480 575 0
v -480 351 0
v -64 1471 0
v -64 1663 0
v -160 1663 0
v -160 1471 0
v -64 1279 0
v -64 1471 0
v -160 1471 0
v -160 1279 0
v -480 63 0
v -480 223 0
v -576 223 0
v -576 63 0
v -512 831 0
v -512 991 0
v -576 991 0
v -576 831 0
v -512 991 0
v -512 1151 0
v -576 1151 0
v -576 991 0
v -512 0 0
v -512 63 0
v -640 63 0
v -640 0 0
v -224 703 0
v -224 831 0
v -288 831 0
v -288 703 0
v -320 447 0
v -320 575 0
v -384 575 0
v -384 447 0
v -96 1983 0
v -96 2047 0
v -224 2047 0
v -224 1983 0
v -448 223 0
v -448 351 0
v -512 351 0
v -512 223 0
v -0 1343 0
v -0 1439 0
v -64 1439 0
v -64 1343 0
v -224 1983 0
v -224 2047 0
v -320 2047 0
v -320 1983 0
v -544 543 0
v -544 639 0
v -608 639 0
v -608 543 0
v -32 1823 0
v -32 1983 0
v -64 1983 0
v -64 1823 0
v -384 1791 0
v -384 1951 0
v -416 1951 0
v -416 1791 0
v -128 1023 0
v -128 1151 0
v -160 1151 0
v -160 1023 0
v -480 511 0
v -480 575 0
v -544 575 0
v -544 511 0
v -512 1471 0
v -512 1599 0
v -544 1599 0
v -544 1471 0
v -544 479 0
v -544 543 0
v -608 543 0
v -608 479 0
v -0 1279 0
v -0 1343 0
v -64 1343 0
v -64 1279 0
v -384 1663 0
v -384 1791 0
v -416 1791 0
v -416 1663 0
v -32 1695 0
v -32 1823 0
v -64 1823 0
v -64 1695 0
v -576 927 0
v -576 1023 0
v -608 1023 0
v -608 927 0
v -576 1023 0
v -576 1119 0
v -608 1119 0
v -608 1023 0
v -512 1375 0
v -512 1471 0
v -544 1471 0
v -544 1375 0
v -128 927 0
v -128 1023 0
v -160 1023 0
v -160 927 0
v -192 767 0
v -192 831 0
v -224 831 0
v -224 767 0
v -608 991 0
v -608 1055 0
v -640 1055 0
v -640 991 0
v -640 1151 0
v -640 1183 0
v -677 1183 0
v -677 1151 0
v -512 223 0
v -512 287 0
v -544 287 0
v -544 223 0
v -416 287 0
v -416 351 0
v -448 351 0
v -448 287 0
v -544 639 0
v -544 703 0
v -576 703 0
v -576 639 0
v -576 95 0
v -576 159 0
v -608 159 0
v -608 95 0
v -0 1823 0
v -0 1887 0
v -32 1887 0
v -32 1823 0
v -32 1439 0
v -32 1503 0
v -64 1503 0
v -64 1439 0
v -416 1759 0
v -416 1791 0
v -480 1791 0
v -480 1759 0
v -512 479 0
v -512 511 0
v -544 511 0
v -544 479 0
v -544 799 0
v -544 831 0
v -576 831 0
v -576 799 0
v -256 671 0
v -256 703 0
v -288 703 0
v -288 671 0
v -352 415 0
v -352 447 0
v -384 447 0
v -384 415 0
v -608 63 0
v -608 95 0
v -640 95 0
v -640 63 0
v -448 191 0
v -448 223 0
v -480 223 0
v -480 191 0
v -480 351 0
v -480 383 0
v -512 383 0
v -512 351 0
v -64 1983 0
v -64 2015 0
v -96 2015 0
v -96 1983 0
v -0 1791 0
v -0 1823 0
v -32 1823 0
v -32 1791 0
v -576 63 0
v -576 95 0
v -608 95 0
v -608 63 0
v -320 1983 0
v -320 2015 0
v -352 2015 0
v -352 1983 0
v -512 1151 0
v -512 1183 0
v -544 1183 0
v -544 1151 0
v -128 1247 0
v -128 1279 0
v -160 1279 0
v -160 1247 0
v -32 1247 0
v -32 1279 0
v -64 1279 0
v -64 1247 0
vt 0.0009765625 0.00129199028
vt 0.0009765625 0.538759708
vt 0.344726562 0.538759708
vt 0.344726562 0.00129199028
vt 0.346679688 0.00129199028
vt 0.346679688 0.538759708
vt 0.690429688 0.538759708
vt 0.690429688 0.00129199028
vt 0.0009765625 0.541343689
vt 0.0009765625 0.95478034
vt 0.313476562 0.95478034
vt 0.313476562 0.541343689
vt 0.692382812 0.00129199028
vt 0.692382812 0.332041323
vt 0.942382812 0.332041323
vt 0.942382812 0.00129199028
vt 0.692382812 0.334625304
vt 0.692382812 0.624031007
vt 0.786132812 0.624031007
vt 0.786132812 0.334625304
vt 0.788085938 0.334625304
vt 0.788085938 0.582687378
vt 0.881835938 0.582687378
vt 0.881835938 0.334625304
vt 0.883789062 0.334625304
vt 0.883789062 0.582687378
vt 0.977539062 0.582687378
vt 0.977539062 0.334625304
vt 0.315429688 0.541343689
vt 0.315429688 0.748062015
vt 0.409179688 0.748062015
vt 0.409179688 0.541343689
vt 0.411132812 0.541343689
vt 0.411132812 0.748062015
vt 0.473632812 0.748062015
vt 0.473632812 0.541343689
vt 0.475585938 0.541343689
vt 0.475585938 0.748062015
vt 0.538085938 0.748062015
vt 0.538085938 0.541343689
vt 0.540039062 0.541343689
vt 0.540039062 0.624031007
vt 0.665039062 0.624031007
vt 0.665039062 0.541343689
vt 0.788085938 0.585271358
vt 0.788085938 0.750645995
vt 0.850585938 0.750645995
vt 0.850585938 0.585271358
vt 0.852539062 0.585271358
vt 0.852539062 0.750645995
vt 0.915039062 0.750645995
vt 0.915039062 0.585271358
vt 0.540039062 0.626614988
vt 0.540039062 0.709302306
vt 0.665039062 0.709302306
vt 0.665039062 0.626614988
vt 0.916992188 0.585271358
vt 0.916992188 0.750645995
vt 0.979492188 0.750645995
vt 0.979492188 0.585271358
vt 0.692382812 0.626614988
vt 0.692382812 0.750645995
vt 0.754882812 0.750645995
vt 0.754882812 0.626614988
vt 0.540039062 0.711886287
vt 0.540039062 0.794573665
vt 0.633789062 0.794573665
vt 0.633789062 0.711886287
vt 0.315429688 0.750645995
vt 0.315429688 0.874677002
vt 0.377929688 0.874677002
vt 0.377929688 0.750645995
vt 0.635742188 0.711886287
vt 0.635742188 0.918604672
vt 0.666992188 0.918604672
vt 0.666992188 0.711886287
vt 0.379882812 0.750645995
vt 0.379882812 0.957364321
vt 0.411132812 0.957364321
vt 0.411132812 0.750645995
vt 0.413085938 0.750645995
vt 0.413085938 0.916020691
vt 0.444335938 0.916020691
vt 0.444335938 0.750645995
vt 0.446289062 0.750645995
vt 0.446289062 0.833333313
vt 0.508789062 0.833333313
vt 0.508789062 0.750645995
vt 0.692382812 0.753229976
vt 0.692382812 0.918604672
vt 0.723632812 0.918604672
vt 0.723632812 0.753229976
vt 0.725585938 0.753229976
vt 0.725585938 0.835917294
vt 0.788085938 0.835917294
vt 0.788085938 0.753229976
vt 0.790039062 0.753229976
vt 0.790039062 0.835917294
vt 0.852539062 0.835917294
vt 0.852539062 0.753229976
vt 0.854492188 0.753229976
vt 0.854492188 0.918604672
vt 0.885742188 0.918604672
vt 0.885742188 0.753229976
vt 0.887695312 0.753229976
vt 0.887695312 0.918604672
vt 0.918945312 0.918604672
vt 0.918945312 0.753229976
vt 0.920898438 0.753229976
vt 0.920898438 0.877260983
vt 0.952148438 0.877260983
vt 0.952148438 0.753229976
vt 0.954101562 0.753229976
vt 0.954101562 0.877260983
vt 0.985351562 0.877260983
vt 0.985351562 0.753229976
vt 0.540039062 0.797157645
vt 0.540039062 0.921188653
vt 0.571289062 0.921188653
vt 0.571289062 0.797157645
vt 0.573242188 0.797157645
vt 0.573242188 0.921188653
vt 0.604492188 0.921188653
vt 0.604492188 0.797157645
vt 0.446289062 0.835917294
vt 0.446289062 0.918604672
vt 0.477539062 0.918604672
vt 0.477539062 0.835917294
vt 0.479492188 0.835917294
vt 0.479492188 0.918604672
vt 0.510742188 0.918604672
vt 0.510742188 0.835917294
vt 0.725585938 0.838501275
vt 0.725585938 0.879844964
vt 0.762695312 0.879844964
vt 0.762695312 0.838501275
vt 0.764648438 0.838501275
vt 0.764648438 0.921188653
vt 0.795898438 0.921188653
vt 0.795898438 0.838501275
vt 0.797851562 0.838501275
vt 0.797851562 0.921188653
vt 0.829101562 0.921188653
vt 0.829101562 0.838501275
vt 0.315429688 0.877260983
vt 0.315429688 0.959948301
vt 0.346679688 0.959948301
vt 0.346679688 0.877260983
vt 0.920898438 0.879844964
vt 0.920898438 0.962532282
vt 0.952148438 0.962532282
vt 0.952148438 0.879844964
vt 0.954101562 0.879844964
vt 0.954101562 0.962532282
vt 0.985351562 0.962532282
vt 0.985351562 0.879844964
vt 0.725585938 0.882428944
vt 0.725585938 0.965116262
vt 0.756835938 0.965116262
vt 0.756835938 0.882428944
vt 0.446289062 0.921188653
vt 0.446289062 0.962532282
vt 0.508789062 0.962532282
vt 0.508789062 0.921188653
vt 0.413085938 0.918604672
vt 0.413085938 0.959948301
vt 0.444335938 0.959948301
vt 0.444335938 0.918604672
vt 0.635742188 0.921188653
vt 0.635742188 0.962532282
vt 0.666992188 0.962532282
vt 0.666992188 0.921188653
vt 0.692382812 0.921188653
vt 0.692382812 0.962532282
vt 0.723632812 0.962532282
vt 0.723632812 0.921188653
vt 0.854492188 0.921188653
vt 0.854492188 0.962532282
vt 0.885742188 0.962532282
vt 0.885742188 0.921188653
vt 0.887695312 0.921188653
vt 0.887695312 0.962532282
vt 0.918945312 0.962532282
vt 0.918945312 0.921188653
vt 0.540039062 0.923772633
vt 0.540039062 0.965116262
vt 0.571289062 0.965116262
vt 0.571289062 0.923772633
vt 0.573242188 0.923772633
vt 0.573242188 0.965116262
vt 0.604492188 0.965116262
vt 0.604492188 0.923772633
vt 0.764648438 0.923772633
vt 0.764648438 0.965116262
vt 0.795898438 0.965116262
vt 0.795898438 0.923772633
vt 0.797851562 0.923772633
vt 0.797851562 0.965116262
vt 0.829101562 0.965116262
vt 0.829101562 0.923772633
vt 0.0009765625 0.957364321
vt 0.0009765625 0.99870801
vt 0.0322265625 0.99870801
vt 0.0322265625 0.957364321
vt 0.0341796875 0.957364321
vt 0.0341796875 0.99870801
vt 0.0654296875 0.99870801
vt 0.0654296875 0.957364321
vt 0.0673828125 0.957364321
vt 0.0673828125 0.99870801
vt 0.0986328125 0.99870801
vt 0.0986328125 0.957364321
vt 0.100585938 0.957364321
vt 0.100585938 0.99870801
vt 0.131835938 0.99870801
vt 0.131835938 0.957364321
vt 0.133789062 0.957364321
vt 0.133789062 0.99870801
vt 0.165039062 0.99870801
vt 0.165039062 0.957364321
g luna_2_doa_rw-mesh_0
f 3/3/3 2/2/2 1/1/1
f 1/1/1 4/4/4 3/3/3
f 7/7/7 6/6/6 5/5/5
f 5/5/5 8/8/8 7/7/7
f 11/11/11 10/10/10 9/9/9
f 9/9/9 12/12/12 11/11/11
f 15/15/15 14/14/14 13/13/13
f 13/13/13 16/16/16 15/15/15
f 19/19/19 18/18/18 17/17/17
f 17/17/17 20/20/20 19/19/19
f 23/23/23 22/22/22 21/21/21
f 21/21/21 24/24/24 23/23/23
f 27/27/27 26/26/26 25/25/25
f 25/25/25 28/28/28 27/27/27
f 31/31/31 30/30/30 29/29/29
f 29/29/29 32/32/32 31/31/31
f 35/35/35 34/34/34 33/33/33
f 33/33/33 36/36/36 35/35/35
f 39/39/39 38/38/38 37/37/37
f 37/37/37 40/40/40 39/39/39
f 43/43/43 42/42/42 41/41/41
f 41/41/41 44/44/44 43/43/43
f 47/47/47 46/46/46 45/45/45
f 45/45/45 48/48/48 47/47/47
f 51/51/51 50/50/50 49/49/49
f 49/49/49 52/52/52 51/51/51
f 55/55/55 54/54/54 53/53/53
f 53/53/53 56/56/56 55/55/55
f 59/59/59 58/58/58 57/57/57
f 57/57/57 60/60/60 59/59/59
f 63/63/63 62/62/62 61/61/61
f 61/61/61 64/64/64 63/63/63
f 67/67/67 66/66/66 65/65/65
f 65/65/65 68/68/68 67/67/67
f 71/71/71 70/70/70 69/69/69
f 69/69/69 72/72/72 71/71/71
f 75/75/75 74/74/74 73/73/73
f 73/73/73 76/76/76 75/75/75
f 79/79/79 78/78/78 77/77/77
f 77/77/77 80/80/80 79/79/79
f 83/83/83 82/82/82 81/81/81
f 81/81/81 84/84/84 83/83/83
f 87/87/87 86/86/86 85/85/85
f 85/85/85 88/88/88 87/87/87
f 91/91/91 90/90/90 89/89/89
f 89/89/89 92/92/92 91/91/91
f 95/95/95 94/94/94 93/93/93
f 93/93/93 96/96/96 95/95/95
f 99/99/99 98/98/98 97/97/97
f 97/97/97 100/100/100 99/99/99
f 103/103/103 102/102/102 101/101/101
f 101/101/101 104/104/104 103/103/103
f 107/107/107 106/106/106 105/105/105
f 105/105/105 108/108/108 107/107/107
f 111/111/111 110/110/110 109/109/109
f 109/109/109 112/112/112 111/111/111
f 115/115/115 114/114/114 113/113/113
f 113/113/113 116/116/116 115/115/115
f 119/119/119 118/118/118 117/117/117
f 117/117/117 120/120/120 119/119/119
f 123/123/123 122/122/122 121/121/121
f 121/121/121 124/124/124 123/123/123
f 127/127/127 126/126/126 125/125/125
f 125/125/125 128/128/128 127/127/127
f 131/131/131 130/130/130 129/129/129
f 129/129/129 132/132/132 131/131/131
f 135/135/135 134/134/134 133/133/133
f 133/133/133 136/136/136 135/135/135
f 139/139/139 138/138/138 137/137/137
f 137/137/137 140/140/140 139/139/139
f 143/143/143 142/142/142 141/141/141
f 141/141/141 144/144/144 143/143/143
f 147/147/147 146/146/146 145/145/145
f 145/145/145 148/148/148 147/147/147
f 151/151/151 150/150/150 149/149/149
f 149/149/149 152/152/152 151/151/151
f 155/155/155 154/154/154 153/153/153
f 153/153/153 156/156/156 155/155/155
f 159/159/159 158/158/158 157/157/157
f 157/157/157 160/160/160 159/159/159
f 163/163/163 162/162/162 161/161/161
f 161/161/161 164/164/164 163/163/163
f 167/167/167 166/166/166 165/165/165
f 165/165/165 168/168/168 167/167/167
f 171/171/171 170/170/170 169/169/169
f 169/169/169 172/172/172 171/171/171
f 175/175/175 174/174/174 173/173/173
f 173/173/173 176/176/176 175/175/175
f 179/179/179 178/178/178 177/177/177
f 177/177/177 180/180/180 179/179/179
f 183/183/183 182/182/182 181/181/181
f 181/181/181 184/184/184 183/183/183
f 187/187/187 186/186/186 185/185/185
f 185/185/185 188/188/188 187/187/187
f 191/191/191 190/190/190 189/189/189
f 189/189/189 192/192/192 191/191/191
f 195/195/195 194/194/194 193/193/193
f 193/193/193 196/196/196 195/195/195
f 199/199/199 198/198/198 197/197/197
f 197/197/197 200/200/200 199/199/199
f 203/203/203 202/202/202 201/201/201
f 201/201/201 204/204/204 203/203/203
f 207/207/207 206/206/206 205/205/205
f 205/205/205 208/208/208 207/207/207
f 211/211/211 210/210/210 209/209/209
f 209/209/209 212/212/212 211/211/211
f 215/215/215 214/214/214 213/213/213
f 213/213/213 216/216/216 215/215/215
f 219/219/219 218/218/218 217/217/217
f 217/217/217 220/220/220 219/219/219
