g jinshi_bj-mesh
v -768 805 0
v -768 1029 0
v -992 1029 0
v -992 805 0
v -352 229 0
v -352 421 0
v -608 421 0
v -608 229 0
v -992 773 0
v -992 901 0
v -1120 901 0
v -1120 773 0
v -864 485 0
v -864 581 0
v -928 581 0
v -928 485 0
v -768 261 0
v -768 325 0
v -864 325 0
v -864 261 0
v -704 197 0
v -704 261 0
v -800 261 0
v -800 197 0
v -384 421 0
v -384 485 0
v -480 485 0
v -480 421 0
v -896 613 0
v -896 677 0
v -992 677 0
v -992 613 0
v -1152 549 0
v -1152 613 0
v -1216 613 0
v -1216 549 0
v -1312 869 0
v -1312 933 0
v -1376 933 0
v -1376 869 0
v -480 421 0
v -480 485 0
v -544 485 0
v -544 421 0
v -832 325 0
v -832 389 0
v -896 389 0
v -896 325 0
v -800 1029 0
v -800 1061 0
v -896 1061 0
v -896 1029 0
v -608 325 0
v -608 357 0
v -704 357 0
v -704 325 0
v -1120 773 0
v -1120 837 0
v -1152 837 0
v -1152 773 0
v -416 197 0
v -416 229 0
v -480 229 0
v -480 197 0
v -608 293 0
v -608 325 0
v -672 325 0
v -672 293 0
v -960 741 0
v -960 805 0
v -992 805 0
v -992 741 0
v -736 357 0
v -736 421 0
v -768 421 0
v -768 357 0
v -1216 517 0
v -1216 581 0
v -1248 581 0
v -1248 517 0
v -928 517 0
v -928 581 0
v -960 581 0
v -960 517 0
v -736 901 0
v -736 965 0
v -768 965 0
v -768 901 0
v -896 1029 0
v -896 1061 0
v -960 1061 0
v -960 1029 0
v -704 325 0
v -704 357 0
v -768 357 0
v -768 325 0
v -992 901 0
v -992 933 0
v -1056 933 0
v -1056 901 0
v -416 485 0
v -416 517 0
v -480 517 0
v -480 485 0
v -544 453 0
v -544 485 0
v -576 485 0
v -576 453 0
v -1184 517 0
v -1184 549 0
v -1216 549 0
v -1216 517 0
v -736 261 0
v -736 293 0
v -768 293 0
v -768 261 0
v -800 325 0
v -800 357 0
v -832 357 0
v -832 325 0
v -704 357 0
v -704 389 0
v -736 389 0
v -736 357 0
v -800 229 0
v -800 261 0
v -832 261 0
v -832 229 0
v -608 261 0
v -608 293 0
v -640 293 0
v -640 261 0
v -480 485 0
v -480 517 0
v -512 517 0
v -512 485 0
v -1056 901 0
v -1056 933 0
v -1088 933 0
v -1088 901 0
v -736 869 0
v -736 901 0
v -768 901 0
v -768 869 0
v -672 293 0
v -672 325 0
v -704 325 0
v -704 293 0
v -1344 837 0
v -1344 869 0
v -1376 869 0
v -1376 837 0
v -992 933 0
v -992 965 0
v -1024 965 0
v -1024 933 0
v -480 197 0
v -480 229 0
v -512 229 0
v -512 197 0
vt 0.001953125 0.00202429295
vt 0.001953125 0.455465615
vt 0.439453125 0.455465615
vt 0.439453125 0.00202429295
vt 0.443359375 0.00202429295
vt 0.443359375 0.390688241
vt 0.943359375 0.390688241
vt 0.943359375 0.00202429295
vt 0.443359375 0.394736826
vt 0.443359375 0.653846145
vt 0.693359375 0.653846145
vt 0.693359375 0.394736826
vt 0.697265625 0.394736826
vt 0.697265625 0.58906883
vt 0.822265625 0.58906883
vt 0.822265625 0.394736826
vt 0.001953125 0.459514141
vt 0.001953125 0.58906883
vt 0.189453125 0.58906883
vt 0.189453125 0.459514141
vt 0.193359375 0.459514141
vt 0.193359375 0.58906883
vt 0.380859375 0.58906883
vt 0.380859375 0.459514141
vt 0.001953125 0.593117416
vt 0.001953125 0.722672105
vt 0.189453125 0.722672105
vt 0.189453125 0.593117416
vt 0.193359375 0.593117416
vt 0.193359375 0.722672105
vt 0.380859375 0.722672105
vt 0.380859375 0.593117416
vt 0.826171875 0.394736826
vt 0.826171875 0.524291515
vt 0.951171875 0.524291515
vt 0.951171875 0.394736826
vt 0.826171875 0.528340101
vt 0.826171875 0.657894731
vt 0.951171875 0.657894731
vt 0.951171875 0.528340101
vt 0.697265625 0.593117416
vt 0.697265625 0.722672105
vt 0.822265625 0.722672105
vt 0.822265625 0.593117416
vt 0.443359375 0.657894731
vt 0.443359375 0.78744936
vt 0.568359375 0.78744936
vt 0.568359375 0.657894731
vt 0.001953125 0.726720691
vt 0.001953125 0.791497946
vt 0.189453125 0.791497946
vt 0.189453125 0.726720691
vt 0.193359375 0.726720691
vt 0.193359375 0.791497946
vt 0.380859375 0.791497946
vt 0.380859375 0.726720691
vt 0.572265625 0.657894731
vt 0.572265625 0.78744936
vt 0.634765625 0.78744936
vt 0.634765625 0.657894731
vt 0.826171875 0.661943316
vt 0.826171875 0.726720691
vt 0.951171875 0.726720691
vt 0.951171875 0.661943316
vt 0.697265625 0.726720691
vt 0.697265625 0.791497946
vt 0.822265625 0.791497946
vt 0.822265625 0.726720691
vt 0.826171875 0.730769217
vt 0.826171875 0.860323906
vt 0.888671875 0.860323906
vt 0.888671875 0.730769217
vt 0.892578125 0.730769217
vt 0.892578125 0.860323906
vt 0.955078125 0.860323906
vt 0.955078125 0.730769217
vt 0.443359375 0.791497946
vt 0.443359375 0.921052635
vt 0.505859375 0.921052635
vt 0.505859375 0.791497946
vt 0.509765625 0.791497946
vt 0.509765625 0.921052635
vt 0.572265625 0.921052635
vt 0.572265625 0.791497946
vt 0.576171875 0.791497946
vt 0.576171875 0.921052635
vt 0.638671875 0.921052635
vt 0.638671875 0.791497946
vt 0.001953125 0.795546532
vt 0.001953125 0.860323906
vt 0.126953125 0.860323906
vt 0.126953125 0.795546532
vt 0.130859375 0.795546532
vt 0.130859375 0.860323906
vt 0.255859375 0.860323906
vt 0.255859375 0.795546532
vt 0.259765625 0.795546532
vt 0.259765625 0.860323906
vt 0.384765625 0.860323906
vt 0.384765625 0.795546532
vt 0.697265625 0.795546532
vt 0.697265625 0.860323906
vt 0.822265625 0.860323906
vt 0.822265625 0.795546532
vt 0.001953125 0.864372492
vt 0.001953125 0.929149806
vt 0.064453125 0.929149806
vt 0.064453125 0.864372492
vt 0.068359375 0.864372492
vt 0.068359375 0.929149806
vt 0.130859375 0.929149806
vt 0.130859375 0.864372492
vt 0.134765625 0.864372492
vt 0.134765625 0.929149806
vt 0.197265625 0.929149806
vt 0.197265625 0.864372492
vt 0.201171875 0.864372492
vt 0.201171875 0.929149806
vt 0.263671875 0.929149806
vt 0.263671875 0.864372492
vt 0.267578125 0.864372492
vt 0.267578125 0.929149806
vt 0.330078125 0.929149806
vt 0.330078125 0.864372492
vt 0.333984375 0.864372492
vt 0.333984375 0.929149806
vt 0.396484375 0.929149806
vt 0.396484375 0.864372492
vt 0.697265625 0.864372492
vt 0.697265625 0.929149806
vt 0.759765625 0.929149806
vt 0.759765625 0.864372492
vt 0.763671875 0.864372492
vt 0.763671875 0.929149806
vt 0.826171875 0.929149806
vt 0.826171875 0.864372492
vt 0.830078125 0.864372492
vt 0.830078125 0.929149806
vt 0.892578125 0.929149806
vt 0.892578125 0.864372492
vt 0.896484375 0.864372492
vt 0.896484375 0.929149806
vt 0.958984375 0.929149806
vt 0.958984375 0.864372492
vt 0.443359375 0.925101221
vt 0.443359375 0.989878535
vt 0.505859375 0.989878535
vt 0.505859375 0.925101221
vt 0.509765625 0.925101221
vt 0.509765625 0.989878535
vt 0.572265625 0.989878535
vt 0.572265625 0.925101221
vt 0.576171875 0.925101221
vt 0.576171875 0.989878535
vt 0.638671875 0.989878535
vt 0.638671875 0.925101221
vt 0.001953125 0.933198392
vt 0.001953125 0.997975707
vt 0.064453125 0.997975707
vt 0.064453125 0.933198392
g jinshi_bj-mesh_0
f 3/3/3 2/2/2 1/1/1
f 1/1/1 4/4/4 3/3/3
f 7/7/7 6/6/6 5/5/5
f 5/5/5 8/8/8 7/7/7
f 11/11/11 10/10/10 9/9/9
f 9/9/9 12/12/12 11/11/11
f 15/15/15 14/14/14 13/13/13
f 13/13/13 16/16/16 15/15/15
f 19/19/19 18/18/18 17/17/17
f 17/17/17 20/20/20 19/19/19
f 23/23/23 22/22/22 21/21/21
f 21/21/21 24/24/24 23/23/23
f 27/27/27 26/26/26 25/25/25
f 25/25/25 28/28/28 27/27/27
f 31/31/31 30/30/30 29/29/29
f 29/29/29 32/32/32 31/31/31
f 35/35/35 34/34/34 33/33/33
f 33/33/33 36/36/36 35/35/35
f 39/39/39 38/38/38 37/37/37
f 37/37/37 40/40/40 39/39/39
f 43/43/43 42/42/42 41/41/41
f 41/41/41 44/44/44 43/43/43
f 47/47/47 46/46/46 45/45/45
f 45/45/45 48/48/48 47/47/47
f 51/51/51 50/50/50 49/49/49
f 49/49/49 52/52/52 51/51/51
f 55/55/55 54/54/54 53/53/53
f 53/53/53 56/56/56 55/55/55
f 59/59/59 58/58/58 57/57/57
f 57/57/57 60/60/60 59/59/59
f 63/63/63 62/62/62 61/61/61
f 61/61/61 64/64/64 63/63/63
f 67/67/67 66/66/66 65/65/65
f 65/65/65 68/68/68 67/67/67
f 71/71/71 70/70/70 69/69/69
f 69/69/69 72/72/72 71/71/71
f 75/75/75 74/74/74 73/73/73
f 73/73/73 76/76/76 75/75/75
f 79/79/79 78/78/78 77/77/77
f 77/77/77 80/80/80 79/79/79
f 83/83/83 82/82/82 81/81/81
f 81/81/81 84/84/84 83/83/83
f 87/87/87 86/86/86 85/85/85
f 85/85/85 88/88/88 87/87/87
f 91/91/91 90/90/90 89/89/89
f 89/89/89 92/92/92 91/91/91
f 95/95/95 94/94/94 93/93/93
f 93/93/93 96/96/96 95/95/95
f 99/99/99 98/98/98 97/97/97
f 97/97/97 100/100/100 99/99/99
f 103/103/103 102/102/102 101/101/101
f 101/101/101 104/104/104 103/103/103
f 107/107/107 106/106/106 105/105/105
f 105/105/105 108/108/108 107/107/107
f 111/111/111 110/110/110 109/109/109
f 109/109/109 112/112/112 111/111/111
f 115/115/115 114/114/114 113/113/113
f 113/113/113 116/116/116 115/115/115
f 119/119/119 118/118/118 117/117/117
f 117/117/117 120/120/120 119/119/119
f 123/123/123 122/122/122 121/121/121
f 121/121/121 124/124/124 123/123/123
f 127/127/127 126/126/126 125/125/125
f 125/125/125 128/128/128 127/127/127
f 131/131/131 130/130/130 129/129/129
f 129/129/129 132/132/132 131/131/131
f 135/135/135 134/134/134 133/133/133
f 133/133/133 136/136/136 135/135/135
f 139/139/139 138/138/138 137/137/137
f 137/137/137 140/140/140 139/139/139
f 143/143/143 142/142/142 141/141/141
f 141/141/141 144/144/144 143/143/143
f 147/147/147 146/146/146 145/145/145
f 145/145/145 148/148/148 147/147/147
f 151/151/151 150/150/150 149/149/149
f 149/149/149 152/152/152 151/151/151
f 155/155/155 154/154/154 153/153/153
f 153/153/153 156/156/156 155/155/155
f 159/159/159 158/158/158 157/157/157
f 157/157/157 160/160/160 159/159/159
