g qianzao_2-mesh
v -320 1023 0
v -320 1823 0
v -1280 1823 0
v -1280 1023 0
v -320 255 0
v -320 1023 0
v -1280 1023 0
v -1280 255 0
v -1280 447 0
v -1280 991 0
v -1440 991 0
v -1440 447 0
v -1280 991 0
v -1280 1535 0
v -1440 1535 0
v -1440 991 0
v -192 1087 0
v -192 1727 0
v -320 1727 0
v -320 1087 0
v -192 479 0
v -192 1087 0
v -320 1087 0
v -320 479 0
v -544 63 0
v -544 255 0
v -832 255 0
v -832 63 0
v -32 1055 0
v -32 1375 0
v -192 1375 0
v -192 1055 0
v -832 63 0
v -832 255 0
v -1088 255 0
v -1088 63 0
v -544 1823 0
v -544 1983 0
v -832 1983 0
v -832 1823 0
v -832 1823 0
v -832 1983 0
v -1088 1983 0
v -1088 1823 0
v -1120 159 0
v -1120 255 0
v -1280 255 0
v -1280 159 0
v -96 799 0
v -96 959 0
v -192 959 0
v -192 799 0
v -416 159 0
v -416 255 0
v -544 255 0
v -544 159 0
v -896 0 0
v -896 63 0
v -1088 63 0
v -1088 0 0
v -96 671 0
v -96 799 0
v -192 799 0
v -192 671 0
v -704 0 0
v -704 63 0
v -896 63 0
v -896 0 0
v -1440 799 0
v -1440 1119 0
v -1472 1119 0
v -1472 799 0
v -1440 479 0
v -1440 799 0
v -1472 799 0
v -1472 479 0
v -1088 1823 0
v -1088 1919 0
v -1184 1919 0
v -1184 1823 0
v -832 1983 0
v -832 2047 0
v -960 2047 0
v -960 1983 0
v -704 1983 0
v -704 2047 0
v -832 2047 0
v -832 1983 0
v -1280 1535 0
v -1280 1631 0
v -1344 1631 0
v -1344 1535 0
v -256 383 0
v -256 479 0
v -320 479 0
v -320 383 0
v -96 991 0
v -96 1055 0
v -192 1055 0
v -192 991 0
v -1440 1311 0
v -1440 1407 0
v -1504 1407 0
v -1504 1311 0
v -1440 1215 0
v -1440 1311 0
v -1504 1311 0
v -1504 1215 0
v -384 1823 0
v -384 1887 0
v -480 1887 0
v -480 1823 0
v -1472 703 0
v -1472 863 0
v -1504 863 0
v -1504 703 0
v -1472 863 0
v -1472 1023 0
v -1504 1023 0
v -1504 863 0
v -128 1375 0
v -128 1439 0
v -192 1439 0
v -192 1375 0
v -480 1823 0
v -480 1887 0
v -544 1887 0
v -544 1823 0
v -256 319 0
v -256 383 0
v -320 383 0
v -320 319 0
v -1280 319 0
v -1280 447 0
v -1312 447 0
v -1312 319 0
v -1280 191 0
v -1280 319 0
v -1312 319 0
v -1312 191 0
v -64 735 0
v -64 831 0
v -96 831 0
v -96 735 0
v -160 575 0
v -160 671 0
v -192 671 0
v -192 575 0
v -0 1215 0
v -0 1311 0
v -32 1311 0
v -32 1215 0
v -0 1119 0
v -0 1215 0
v -32 1215 0
v -32 1119 0
v -64 831 0
v -64 927 0
v -96 927 0
v -96 831 0
v -1184 1823 0
v -1184 1887 0
v -1216 1887 0
v -1216 1823 0
v -288 1727 0
v -288 1791 0
v -320 1791 0
v -320 1727 0
v -320 1823 0
v -320 1887 0
v -352 1887 0
v -352 1823 0
v -960 1983 0
v -960 2015 0
v -1024 2015 0
v -1024 1983 0
v -512 1887 0
v -512 1951 0
v -544 1951 0
v -544 1887 0
v -1088 1919 0
v -1088 1951 0
v -1152 1951 0
v -1152 1919 0
v -1344 1535 0
v -1344 1599 0
v -1376 1599 0
v -1376 1535 0
v -352 223 0
v -352 255 0
v -416 255 0
v -416 223 0
v -480 127 0
v -480 159 0
v -544 159 0
v -544 127 0
v -640 31 0
v -640 63 0
v -704 63 0
v -704 31 0
v -1440 1407 0
v -1440 1471 0
v -1472 1471 0
v -1472 1407 0
v -1440 1151 0
v -1440 1215 0
v -1472 1215 0
v -1472 1151 0
v -128 959 0
v -128 991 0
v -192 991 0
v -192 959 0
v -224 415 0
v -224 479 0
v -256 479 0
v -256 415 0
v -160 1567 0
v -160 1631 0
v -192 1631 0
v -192 1567 0
v -1504 831 0
v -1504 895 0
v -1505 895 0
v -1505 831 0
v -1504 767 0
v -1504 831 0
v -1505 831 0
v -1505 767 0
v -576 1983 0
v -576 2015 0
v -640 2015 0
v -640 1983 0
v -640 1983 0
v -640 2015 0
v -704 2015 0
v -704 1983 0
v -160 1631 0
v -160 1695 0
v -192 1695 0
v -192 1631 0
v -1312 383 0
v -1312 447 0
v -1344 447 0
v -1344 383 0
v -32 831 0
v -32 895 0
v -64 895 0
v -64 831 0
v -160 511 0
v -160 575 0
v -192 575 0
v -192 511 0
v -1088 127 0
v -1088 191 0
v -1120 191 0
v -1120 127 0
v -1312 319 0
v -1312 383 0
v -1344 383 0
v -1344 319 0
v -1088 191 0
v -1088 255 0
v -1120 255 0
v -1120 191 0
v -64 1023 0
v -64 1055 0
v -96 1055 0
v -96 1023 0
v -96 1375 0
v -96 1407 0
v -128 1407 0
v -128 1375 0
v -160 1439 0
v -160 1471 0
v -192 1471 0
v -192 1439 0
v -1344 415 0
v -1344 447 0
v -1376 447 0
v -1376 415 0
v -512 95 0
v -512 127 0
v -544 127 0
v -544 95 0
v -384 191 0
v -384 223 0
v -416 223 0
v -416 191 0
v -288 287 0
v -288 319 0
v -320 319 0
v -320 287 0
v -1376 1535 0
v -1376 1567 0
v -1408 1567 0
v -1408 1535 0
v -480 1887 0
v -480 1919 0
v -512 1919 0
v -512 1887 0
v -224 383 0
v -224 415 0
v -256 415 0
v -256 383 0
v -32 799 0
v -32 831 0
v -64 831 0
v -64 799 0
v -352 1823 0
v -352 1855 0
v -384 1855 0
v -384 1823 0
v -1280 1631 0
v -1280 1663 0
v -1312 1663 0
v -1312 1631 0
v -256 1727 0
v -256 1759 0
v -288 1759 0
v -288 1727 0
v -1216 1823 0
v -1216 1855 0
v -1248 1855 0
v -1248 1823 0
vt 0.00048828125 0.000708222389
vt 0.00048828125 0.567280412
vt 0.469238281 0.567280412
vt 0.469238281 0.000708222389
vt 0.470214844 0.000708222389
vt 0.470214844 0.544617534
vt 0.938964844 0.544617534
vt 0.938964844 0.000708222389
vt 0.470214844 0.546033978
vt 0.470214844 0.931303144
vt 0.548339844 0.931303144
vt 0.548339844 0.546033978
vt 0.549316406 0.546033978
vt 0.549316406 0.931303144
vt 0.627441406 0.931303144
vt 0.627441406 0.546033978
vt 0.628417969 0.546033978
vt 0.628417969 0.999291778
vt 0.690917969 0.999291778
vt 0.690917969 0.546033978
vt 0.691894531 0.546033978
vt 0.691894531 0.9766289
vt 0.754394531 0.9766289
vt 0.754394531 0.546033978
vt 0.755371094 0.546033978
vt 0.755371094 0.682011366
vt 0.895996094 0.682011366
vt 0.895996094 0.546033978
vt 0.896972656 0.546033978
vt 0.896972656 0.772662878
vt 0.975097656 0.772662878
vt 0.975097656 0.546033978
vt 0.00048828125 0.568696856
vt 0.00048828125 0.704674244
vt 0.125488281 0.704674244
vt 0.125488281 0.568696856
vt 0.126464844 0.568696856
vt 0.126464844 0.682011366
vt 0.267089844 0.682011366
vt 0.267089844 0.568696856
vt 0.268066406 0.568696856
vt 0.268066406 0.682011366
vt 0.393066406 0.682011366
vt 0.393066406 0.568696856
vt 0.126464844 0.683427751
vt 0.126464844 0.751416445
vt 0.204589844 0.751416445
vt 0.204589844 0.683427751
vt 0.394042969 0.568696856
vt 0.394042969 0.682011366
vt 0.440917969 0.682011366
vt 0.440917969 0.568696856
vt 0.205566406 0.683427751
vt 0.205566406 0.751416445
vt 0.268066406 0.751416445
vt 0.268066406 0.683427751
vt 0.269042969 0.683427751
vt 0.269042969 0.728753567
vt 0.362792969 0.728753567
vt 0.362792969 0.683427751
vt 0.363769531 0.683427751
vt 0.363769531 0.774079323
vt 0.410644531 0.774079323
vt 0.410644531 0.683427751
vt 0.755371094 0.683427751
vt 0.755371094 0.728753567
vt 0.849121094 0.728753567
vt 0.849121094 0.683427751
vt 0.976074219 0.000708222389
vt 0.976074219 0.227337122
vt 0.991699219 0.227337122
vt 0.991699219 0.000708222389
vt 0.976074219 0.228753567
vt 0.976074219 0.455382407
vt 0.991699219 0.455382407
vt 0.991699219 0.228753567
vt 0.411621094 0.683427751
vt 0.411621094 0.751416445
vt 0.458496094 0.751416445
vt 0.458496094 0.683427751
vt 0.00048828125 0.706090689
vt 0.00048828125 0.751416445
vt 0.0629882812 0.751416445
vt 0.0629882812 0.706090689
vt 0.269042969 0.730170012
vt 0.269042969 0.775495768
vt 0.331542969 0.775495768
vt 0.331542969 0.730170012
vt 0.850097656 0.683427751
vt 0.850097656 0.751416445
vt 0.881347656 0.751416445
vt 0.881347656 0.683427751
vt 0.0639648438 0.706090689
vt 0.0639648438 0.774079323
vt 0.0952148438 0.774079323
vt 0.0952148438 0.706090689
vt 0.755371094 0.730170012
vt 0.755371094 0.775495768
vt 0.802246094 0.775495768
vt 0.802246094 0.730170012
vt 0.803222656 0.730170012
vt 0.803222656 0.798158646
vt 0.834472656 0.798158646
vt 0.834472656 0.730170012
vt 0.00048828125 0.75283289
vt 0.00048828125 0.820821524
vt 0.0317382812 0.820821524
vt 0.0317382812 0.75283289
vt 0.126464844 0.75283289
vt 0.126464844 0.798158646
vt 0.173339844 0.798158646
vt 0.173339844 0.75283289
vt 0.976074219 0.456798851
vt 0.976074219 0.570113301
vt 0.991699219 0.570113301
vt 0.991699219 0.456798851
vt 0.976074219 0.571529746
vt 0.976074219 0.684844196
vt 0.991699219 0.684844196
vt 0.991699219 0.571529746
vt 0.174316406 0.75283289
vt 0.174316406 0.798158646
vt 0.205566406 0.798158646
vt 0.205566406 0.75283289
vt 0.206542969 0.75283289
vt 0.206542969 0.798158646
vt 0.237792969 0.798158646
vt 0.237792969 0.75283289
vt 0.411621094 0.75283289
vt 0.411621094 0.798158646
vt 0.442871094 0.798158646
vt 0.442871094 0.75283289
vt 0.976074219 0.686260581
vt 0.976074219 0.776912212
vt 0.991699219 0.776912212
vt 0.991699219 0.686260581
vt 0.0961914062 0.706090689
vt 0.0961914062 0.796742201
vt 0.111816406 0.796742201
vt 0.111816406 0.706090689
vt 0.332519531 0.730170012
vt 0.332519531 0.798158646
vt 0.348144531 0.798158646
vt 0.348144531 0.730170012
vt 0.0327148438 0.75283289
vt 0.0327148438 0.820821524
vt 0.0483398438 0.820821524
vt 0.0483398438 0.75283289
vt 0.238769531 0.75283289
vt 0.238769531 0.820821524
vt 0.254394531 0.820821524
vt 0.254394531 0.75283289
vt 0.443847656 0.75283289
vt 0.443847656 0.820821524
vt 0.459472656 0.820821524
vt 0.459472656 0.75283289
vt 0.850097656 0.75283289
vt 0.850097656 0.820821524
vt 0.865722656 0.820821524
vt 0.865722656 0.75283289
vt 0.866699219 0.75283289
vt 0.866699219 0.798158646
vt 0.882324219 0.798158646
vt 0.882324219 0.75283289
vt 0.896972656 0.774079323
vt 0.896972656 0.819405079
vt 0.912597656 0.819405079
vt 0.912597656 0.774079323
vt 0.913574219 0.774079323
vt 0.913574219 0.819405079
vt 0.929199219 0.819405079
vt 0.929199219 0.774079323
vt 0.930175781 0.774079323
vt 0.930175781 0.796742201
vt 0.961425781 0.796742201
vt 0.961425781 0.774079323
vt 0.0639648438 0.775495768
vt 0.0639648438 0.820821524
vt 0.0795898438 0.820821524
vt 0.0795898438 0.775495768
vt 0.363769531 0.775495768
vt 0.363769531 0.798158646
vt 0.395019531 0.798158646
vt 0.395019531 0.775495768
vt 0.269042969 0.776912212
vt 0.269042969 0.822237968
vt 0.284667969 0.822237968
vt 0.284667969 0.776912212
vt 0.285644531 0.776912212
vt 0.285644531 0.79957509
vt 0.316894531 0.79957509
vt 0.316894531 0.776912212
vt 0.755371094 0.776912212
vt 0.755371094 0.79957509
vt 0.786621094 0.79957509
vt 0.786621094 0.776912212
vt 0.930175781 0.798158646
vt 0.930175781 0.820821524
vt 0.961425781 0.820821524
vt 0.961425781 0.798158646
vt 0.976074219 0.778328598
vt 0.976074219 0.823654413
vt 0.991699219 0.823654413
vt 0.991699219 0.778328598
vt 0.0961914062 0.798158646
vt 0.0961914062 0.843484402
vt 0.111816406 0.843484402
vt 0.111816406 0.798158646
vt 0.126464844 0.79957509
vt 0.126464844 0.822237968
vt 0.157714844 0.822237968
vt 0.157714844 0.79957509
vt 0.158691406 0.79957509
vt 0.158691406 0.844900846
vt 0.174316406 0.844900846
vt 0.174316406 0.79957509
vt 0.175292969 0.79957509
vt 0.175292969 0.844900846
vt 0.190917969 0.844900846
vt 0.190917969 0.79957509
vt 0.992675781 0.000708222389
vt 0.992675781 0.0460339785
vt 0.993652344 0.0460339785
vt 0.993652344 0.000708222389
vt 0.994628906 0.000708222389
vt 0.994628906 0.0460339785
vt 0.995605469 0.0460339785
vt 0.995605469 0.000708222389
vt 0.191894531 0.79957509
vt 0.191894531 0.822237968
vt 0.223144531 0.822237968
vt 0.223144531 0.79957509
vt 0.332519531 0.79957509
vt 0.332519531 0.822237968
vt 0.363769531 0.822237968
vt 0.363769531 0.79957509
vt 0.364746094 0.79957509
vt 0.364746094 0.844900846
vt 0.380371094 0.844900846
vt 0.380371094 0.79957509
vt 0.381347656 0.79957509
vt 0.381347656 0.844900846
vt 0.396972656 0.844900846
vt 0.396972656 0.79957509
vt 0.411621094 0.79957509
vt 0.411621094 0.844900846
vt 0.427246094 0.844900846
vt 0.427246094 0.79957509
vt 0.803222656 0.79957509
vt 0.803222656 0.844900846
vt 0.818847656 0.844900846
vt 0.818847656 0.79957509
vt 0.819824219 0.79957509
vt 0.819824219 0.844900846
vt 0.835449219 0.844900846
vt 0.835449219 0.79957509
vt 0.866699219 0.79957509
vt 0.866699219 0.844900846
vt 0.882324219 0.844900846
vt 0.882324219 0.79957509
vt 0.285644531 0.800991535
vt 0.285644531 0.846317291
vt 0.301269531 0.846317291
vt 0.301269531 0.800991535
vt 0.302246094 0.800991535
vt 0.302246094 0.823654413
vt 0.317871094 0.823654413
vt 0.317871094 0.800991535
vt 0.755371094 0.800991535
vt 0.755371094 0.823654413
vt 0.770996094 0.823654413
vt 0.770996094 0.800991535
vt 0.771972656 0.800991535
vt 0.771972656 0.823654413
vt 0.787597656 0.823654413
vt 0.787597656 0.800991535
vt 0.896972656 0.820821524
vt 0.896972656 0.843484402
vt 0.912597656 0.843484402
vt 0.912597656 0.820821524
vt 0.913574219 0.820821524
vt 0.913574219 0.843484402
vt 0.929199219 0.843484402
vt 0.929199219 0.820821524
vt 0.00048828125 0.822237968
vt 0.00048828125 0.844900846
vt 0.0161132812 0.844900846
vt 0.0161132812 0.822237968
vt 0.0170898438 0.822237968
vt 0.0170898438 0.844900846
vt 0.0327148438 0.844900846
vt 0.0327148438 0.822237968
vt 0.0336914062 0.822237968
vt 0.0336914062 0.844900846
vt 0.0493164062 0.844900846
vt 0.0493164062 0.822237968
vt 0.0639648438 0.822237968
vt 0.0639648438 0.844900846
vt 0.0795898438 0.844900846
vt 0.0795898438 0.822237968
vt 0.238769531 0.822237968
vt 0.238769531 0.844900846
vt 0.254394531 0.844900846
vt 0.254394531 0.822237968
vt 0.443847656 0.822237968
vt 0.443847656 0.844900846
vt 0.459472656 0.844900846
vt 0.459472656 0.822237968
vt 0.850097656 0.822237968
vt 0.850097656 0.844900846
vt 0.865722656 0.844900846
vt 0.865722656 0.822237968
vt 0.930175781 0.822237968
vt 0.930175781 0.844900846
vt 0.945800781 0.844900846
vt 0.945800781 0.822237968
vt 0.946777344 0.822237968
vt 0.946777344 0.844900846
vt 0.962402344 0.844900846
vt 0.962402344 0.822237968
vt 0.126464844 0.823654413
vt 0.126464844 0.846317291
vt 0.142089844 0.846317291
vt 0.142089844 0.823654413
g qianzao_2-mesh_0
f 3/3/3 2/2/2 1/1/1
f 1/1/1 4/4/4 3/3/3
f 7/7/7 6/6/6 5/5/5
f 5/5/5 8/8/8 7/7/7
f 11/11/11 10/10/10 9/9/9
f 9/9/9 12/12/12 11/11/11
f 15/15/15 14/14/14 13/13/13
f 13/13/13 16/16/16 15/15/15
f 19/19/19 18/18/18 17/17/17
f 17/17/17 20/20/20 19/19/19
f 23/23/23 22/22/22 21/21/21
f 21/21/21 24/24/24 23/23/23
f 27/27/27 26/26/26 25/25/25
f 25/25/25 28/28/28 27/27/27
f 31/31/31 30/30/30 29/29/29
f 29/29/29 32/32/32 31/31/31
f 35/35/35 34/34/34 33/33/33
f 33/33/33 36/36/36 35/35/35
f 39/39/39 38/38/38 37/37/37
f 37/37/37 40/40/40 39/39/39
f 43/43/43 42/42/42 41/41/41
f 41/41/41 44/44/44 43/43/43
f 47/47/47 46/46/46 45/45/45
f 45/45/45 48/48/48 47/47/47
f 51/51/51 50/50/50 49/49/49
f 49/49/49 52/52/52 51/51/51
f 55/55/55 54/54/54 53/53/53
f 53/53/53 56/56/56 55/55/55
f 59/59/59 58/58/58 57/57/57
f 57/57/57 60/60/60 59/59/59
f 63/63/63 62/62/62 61/61/61
f 61/61/61 64/64/64 63/63/63
f 67/67/67 66/66/66 65/65/65
f 65/65/65 68/68/68 67/67/67
f 71/71/71 70/70/70 69/69/69
f 69/69/69 72/72/72 71/71/71
f 75/75/75 74/74/74 73/73/73
f 73/73/73 76/76/76 75/75/75
f 79/79/79 78/78/78 77/77/77
f 77/77/77 80/80/80 79/79/79
f 83/83/83 82/82/82 81/81/81
f 81/81/81 84/84/84 83/83/83
f 87/87/87 86/86/86 85/85/85
f 85/85/85 88/88/88 87/87/87
f 91/91/91 90/90/90 89/89/89
f 89/89/89 92/92/92 91/91/91
f 95/95/95 94/94/94 93/93/93
f 93/93/93 96/96/96 95/95/95
f 99/99/99 98/98/98 97/97/97
f 97/97/97 100/100/100 99/99/99
f 103/103/103 102/102/102 101/101/101
f 101/101/101 104/104/104 103/103/103
f 107/107/107 106/106/106 105/105/105
f 105/105/105 108/108/108 107/107/107
f 111/111/111 110/110/110 109/109/109
f 109/109/109 112/112/112 111/111/111
f 115/115/115 114/114/114 113/113/113
f 113/113/113 116/116/116 115/115/115
f 119/119/119 118/118/118 117/117/117
f 117/117/117 120/120/120 119/119/119
f 123/123/123 122/122/122 121/121/121
f 121/121/121 124/124/124 123/123/123
f 127/127/127 126/126/126 125/125/125
f 125/125/125 128/128/128 127/127/127
f 131/131/131 130/130/130 129/129/129
f 129/129/129 132/132/132 131/131/131
f 135/135/135 134/134/134 133/133/133
f 133/133/133 136/136/136 135/135/135
f 139/139/139 138/138/138 137/137/137
f 137/137/137 140/140/140 139/139/139
f 143/143/143 142/142/142 141/141/141
f 141/141/141 144/144/144 143/143/143
f 147/147/147 146/146/146 145/145/145
f 145/145/145 148/148/148 147/147/147
f 151/151/151 150/150/150 149/149/149
f 149/149/149 152/152/152 151/151/151
f 155/155/155 154/154/154 153/153/153
f 153/153/153 156/156/156 155/155/155
f 159/159/159 158/158/158 157/157/157
f 157/157/157 160/160/160 159/159/159
f 163/163/163 162/162/162 161/161/161
f 161/161/161 164/164/164 163/163/163
f 167/167/167 166/166/166 165/165/165
f 165/165/165 168/168/168 167/167/167
f 171/171/171 170/170/170 169/169/169
f 169/169/169 172/172/172 171/171/171
f 175/175/175 174/174/174 173/173/173
f 173/173/173 176/176/176 175/175/175
f 179/179/179 178/178/178 177/177/177
f 177/177/177 180/180/180 179/179/179
f 183/183/183 182/182/182 181/181/181
f 181/181/181 184/184/184 183/183/183
f 187/187/187 186/186/186 185/185/185
f 185/185/185 188/188/188 187/187/187
f 191/191/191 190/190/190 189/189/189
f 189/189/189 192/192/192 191/191/191
f 195/195/195 194/194/194 193/193/193
f 193/193/193 196/196/196 195/195/195
f 199/199/199 198/198/198 197/197/197
f 197/197/197 200/200/200 199/199/199
f 203/203/203 202/202/202 201/201/201
f 201/201/201 204/204/204 203/203/203
f 207/207/207 206/206/206 205/205/205
f 205/205/205 208/208/208 207/207/207
f 211/211/211 210/210/210 209/209/209
f 209/209/209 212/212/212 211/211/211
f 215/215/215 214/214/214 213/213/213
f 213/213/213 216/216/216 215/215/215
f 219/219/219 218/218/218 217/217/217
f 217/217/217 220/220/220 219/219/219
f 223/223/223 222/222/222 221/221/221
f 221/221/221 224/224/224 223/223/223
f 227/227/227 226/226/226 225/225/225
f 225/225/225 228/228/228 227/227/227
f 231/231/231 230/230/230 229/229/229
f 229/229/229 232/232/232 231/231/231
f 235/235/235 234/234/234 233/233/233
f 233/233/233 236/236/236 235/235/235
f 239/239/239 238/238/238 237/237/237
f 237/237/237 240/240/240 239/239/239
f 243/243/243 242/242/242 241/241/241
f 241/241/241 244/244/244 243/243/243
f 247/247/247 246/246/246 245/245/245
f 245/245/245 248/248/248 247/247/247
f 251/251/251 250/250/250 249/249/249
f 249/249/249 252/252/252 251/251/251
f 255/255/255 254/254/254 253/253/253
f 253/253/253 256/256/256 255/255/255
f 259/259/259 258/258/258 257/257/257
f 257/257/257 260/260/260 259/259/259
f 263/263/263 262/262/262 261/261/261
f 261/261/261 264/264/264 263/263/263
f 267/267/267 266/266/266 265/265/265
f 265/265/265 268/268/268 267/267/267
f 271/271/271 270/270/270 269/269/269
f 269/269/269 272/272/272 271/271/271
f 275/275/275 274/274/274 273/273/273
f 273/273/273 276/276/276 275/275/275
f 279/279/279 278/278/278 277/277/277
f 277/277/277 280/280/280 279/279/279
f 283/283/283 282/282/282 281/281/281
f 281/281/281 284/284/284 283/283/283
f 287/287/287 286/286/286 285/285/285
f 285/285/285 288/288/288 287/287/287
f 291/291/291 290/290/290 289/289/289
f 289/289/289 292/292/292 291/291/291
f 295/295/295 294/294/294 293/293/293
f 293/293/293 296/296/296 295/295/295
f 299/299/299 298/298/298 297/297/297
f 297/297/297 300/300/300 299/299/299
f 303/303/303 302/302/302 301/301/301
f 301/301/301 304/304/304 303/303/303
f 307/307/307 306/306/306 305/305/305
f 305/305/305 308/308/308 307/307/307
f 311/311/311 310/310/310 309/309/309
f 309/309/309 312/312/312 311/311/311
f 315/315/315 314/314/314 313/313/313
f 313/313/313 316/316/316 315/315/315
f 319/319/319 318/318/318 317/317/317
f 317/317/317 320/320/320 319/319/319
f 323/323/323 322/322/322 321/321/321
f 321/321/321 324/324/324 323/323/323
