g sebao-mesh
v -1120 923 0
v -1120 1723 0
v -1696 1723 0
v -1696 923 0
v -544 923 0
v -544 1723 0
v -1120 1723 0
v -1120 923 0
v -640 59 0
v -640 315 0
v -1024 315 0
v -1024 59 0
v -1056 1723 0
v -1056 1883 0
v -1504 1883 0
v -1504 1723 0
v -608 1723 0
v -608 1883 0
v -1056 1883 0
v -1056 1723 0
v -1120 763 0
v -1120 923 0
v -1472 923 0
v -1472 763 0
v -1024 219 0
v -1024 379 0
v -1344 379 0
v -1344 219 0
v -1504 699 0
v -1504 923 0
v -1728 923 0
v -1728 699 0
v -1248 379 0
v -1248 539 0
v -1536 539 0
v -1536 379 0
v -960 379 0
v -960 539 0
v -1248 539 0
v -1248 379 0
v -352 795 0
v -352 923 0
v -640 923 0
v -640 795 0
v -1696 923 0
v -1696 1307 0
v -1792 1307 0
v -1792 923 0
v -640 795 0
v -640 923 0
v -928 923 0
v -928 795 0
v -1696 1307 0
v -1696 1691 0
v -1792 1691 0
v -1792 1307 0
v -1344 539 0
v -1344 699 0
v -1568 699 0
v -1568 539 0
v -224 539 0
v -224 763 0
v -384 763 0
v -384 539 0
v -736 347 0
v -736 507 0
v -928 507 0
v -928 347 0
v -448 1339 0
v -448 1627 0
v -544 1627 0
v -544 1339 0
v -1728 699 0
v -1728 891 0
v -1856 891 0
v -1856 699 0
v -1792 1371 0
v -1792 1563 0
v -1920 1563 0
v -1920 1371 0
v -448 1083 0
v -448 1339 0
v -544 1339 0
v -544 1083 0
v -288 1275 0
v -288 1403 0
v -448 1403 0
v -448 1275 0
v -1344 219 0
v -1344 347 0
v -1472 347 0
v -1472 219 0
v -416 923 0
v -416 1051 0
v -544 1051 0
v -544 923 0
v -1024 635 0
v -1024 795 0
v -1120 795 0
v -1120 635 0
v -1088 1883 0
v -1088 1979 0
v -1248 1979 0
v -1248 1883 0
v -992 827 0
v -992 923 0
v -1120 923 0
v -1120 827 0
v -704 603 0
v -704 731 0
v -800 731 0
v -800 603 0
v -1824 603 0
v -1824 699 0
v -1952 699 0
v -1952 603 0
v -128 539 0
v -128 667 0
v -224 667 0
v -224 539 0
v -1984 987 0
v -1984 1179 0
v -2047 1179 0
v -2047 987 0
v -1984 827 0
v -1984 987 0
v -2047 987 0
v -2047 827 0
v -1920 1499 0
v -1920 1595 0
v -2016 1595 0
v -2016 1499 0
v -256 763 0
v -256 795 0
v -544 795 0
v -544 763 0
v -352 1051 0
v -352 1147 0
v -448 1147 0
v -448 1051 0
v -1024 123 0
v -1024 219 0
v -1120 219 0
v -1120 123 0
v -544 763 0
v -544 795 0
v -832 795 0
v -832 763 0
v -1216 539 0
v -1216 603 0
v -1344 603 0
v -1344 539 0
v -224 795 0
v -224 859 0
v -352 859 0
v -352 795 0
v -288 475 0
v -288 539 0
v -416 539 0
v -416 475 0
v -1504 1723 0
v -1504 1851 0
v -1568 1851 0
v -1568 1723 0
v -1600 443 0
v -1600 507 0
v -1728 507 0
v -1728 443 0
v -1728 443 0
v -1728 507 0
v -1856 507 0
v -1856 443 0
v -1152 635 0
v -1152 763 0
v -1216 763 0
v -1216 635 0
v -96 1211 0
v -96 1275 0
v -224 1275 0
v -224 1211 0
v -224 1211 0
v -224 1275 0
v -352 1275 0
v -352 1211 0
v -928 667 0
v -928 891 0
v -960 891 0
v -960 667 0
v -1408 699 0
v -1408 763 0
v -1504 763 0
v -1504 699 0
v -608 379 0
v -608 443 0
v -704 443 0
v -704 379 0
v -192 859 0
v -192 955 0
v -256 955 0
v -256 859 0
v -1536 379 0
v -1536 475 0
v -1600 475 0
v -1600 379 0
v -480 603 0
v -480 667 0
v -576 667 0
v -576 603 0
v -1920 1243 0
v -1920 1339 0
v -1984 1339 0
v -1984 1243 0
v -672 1883 0
v -672 1979 0
v -736 1979 0
v -736 1883 0
v -384 1467 0
v -384 1563 0
v -448 1563 0
v -448 1467 0
v -192 1275 0
v -192 1371 0
v -256 1371 0
v -256 1275 0
v -0 763 0
v -0 859 0
v -64 859 0
v -64 763 0
v -0 859 0
v -0 955 0
v -64 955 0
v -64 859 0
v -576 187 0
v -576 283 0
v -640 283 0
v -640 187 0
v -576 283 0
v -576 379 0
v -640 379 0
v -640 283 0
v -928 475 0
v -928 667 0
v -960 667 0
v -960 475 0
v -384 667 0
v -384 731 0
v -480 731 0
v -480 667 0
v -1152 539 0
v -1152 635 0
v -1216 635 0
v -1216 539 0
v -704 0 0
v -704 59 0
v -800 59 0
v -800 0 0
v -384 731 0
v -384 763 0
v -544 763 0
v -544 731 0
v -544 731 0
v -544 763 0
v -704 763 0
v -704 731 0
v -1856 1147 0
v -1856 1211 0
v -1920 1211 0
v -1920 1147 0
v -224 1371 0
v -224 1435 0
v -288 1435 0
v -288 1371 0
v -288 1403 0
v -288 1467 0
v -352 1467 0
v -352 1403 0
v -1664 507 0
v -1664 571 0
v -1728 571 0
v -1728 507 0
v -1760 571 0
v -1760 635 0
v -1824 635 0
v -1824 571 0
v -1152 123 0
v -1152 187 0
v -1216 187 0
v -1216 123 0
v -1664 315 0
v -1664 379 0
v -1728 379 0
v -1728 315 0
v -1504 251 0
v -1504 315 0
v -1568 315 0
v -1568 251 0
v -320 987 0
v -320 1051 0
v -384 1051 0
v -384 987 0
v -512 283 0
v -512 347 0
v -576 347 0
v -576 283 0
v -96 891 0
v -96 955 0
v -160 955 0
v -160 891 0
v -384 603 0
v -384 667 0
v -448 667 0
v -448 603 0
v -32 699 0
v -32 763 0
v -96 763 0
v -96 699 0
v -896 315 0
v -896 347 0
v -1024 347 0
v -1024 315 0
v -768 315 0
v -768 347 0
v -896 347 0
v -896 315 0
v -1792 1211 0
v -1792 1339 0
v -1824 1339 0
v -1824 1211 0
v -864 1883 0
v -864 1915 0
v -992 1915 0
v -992 1883 0
v -160 955 0
v -160 1083 0
v -192 1083 0
v -192 955 0
v -480 667 0
v -480 731 0
v -544 731 0
v -544 667 0
v -800 0 0
v -800 59 0
v -864 59 0
v -864 0 0
v -160 1083 0
v -160 1211 0
v -192 1211 0
v -192 1083 0
v -1952 795 0
v -1952 891 0
v -1984 891 0
v -1984 795 0
v -480 315 0
v -480 411 0
v -512 411 0
v -512 315 0
v -1952 699 0
v -1952 795 0
v -1984 795 0
v -1984 699 0
v -480 219 0
v -480 315 0
v -512 315 0
v -512 219 0
v -992 1883 0
v -992 1915 0
v -1088 1915 0
v -1088 1883 0
v -1792 1115 0
v -1792 1211 0
v -1824 1211 0
v -1824 1115 0
v -544 507 0
v -544 539 0
v -640 539 0
v -640 507 0
v -832 667 0
v -832 763 0
v -864 763 0
v -864 667 0
v -1216 731 0
v -1216 763 0
v -1312 763 0
v -1312 731 0
v -896 699 0
v -896 795 0
v -928 795 0
v -928 699 0
v -1856 827 0
v -1856 923 0
v -1888 923 0
v -1888 827 0
v -480 1051 0
v -480 1083 0
v -544 1083 0
v -544 1051 0
v -192 955 0
v -192 1019 0
v -224 1019 0
v -224 955 0
v -256 1787 0
v -256 1851 0
v -288 1851 0
v -288 1787 0
v -928 379 0
v -928 443 0
v -960 443 0
v -960 379 0
v -1600 411 0
v -1600 443 0
v -1664 443 0
v -1664 411 0
v -1952 923 0
v -1952 987 0
v -1984 987 0
v -1984 923 0
v -160 859 0
v -160 923 0
v -192 923 0
v -192 859 0
v -704 443 0
v -704 507 0
v -736 507 0
v -736 443 0
v -288 955 0
v -288 1019 0
v -320 1019 0
v -320 955 0
v -384 923 0
v -384 987 0
v -416 987 0
v -416 923 0
v -320 1467 0
v -320 1499 0
v -384 1499 0
v -384 1467 0
v -864 27 0
v -864 59 0
v -928 59 0
v -928 27 0
v -384 251 0
v -384 283 0
v -448 283 0
v -448 251 0
v -1248 1883 0
v -1248 1947 0
v -1280 1947 0
v -1280 1883 0
v -640 1883 0
v -640 1947 0
v -672 1947 0
v -672 1883 0
v -480 1627 0
v -480 1659 0
v -544 1659 0
v -544 1627 0
v -1920 1435 0
v -1920 1499 0
v -1952 1499 0
v -1952 1435 0
v -352 1243 0
v -352 1275 0
v -416 1275 0
v -416 1243 0
v -352 1147 0
v -352 1211 0
v -384 1211 0
v -384 1147 0
v -1888 1083 0
v -1888 1147 0
v -1920 1147 0
v -1920 1083 0
v -416 1403 0
v -416 1467 0
v -448 1467 0
v -448 1403 0
v -1696 379 0
v -1696 411 0
v -1760 411 0
v -1760 379 0
v -160 1275 0
v -160 1339 0
v -192 1339 0
v -192 1275 0
v -1472 859 0
v -1472 923 0
v -1504 923 0
v -1504 859 0
v -416 411 0
v -416 443 0
v -480 443 0
v -480 411 0
v -640 315 0
v -640 379 0
v -672 379 0
v -672 315 0
v -768 507 0
v -768 539 0
v -832 539 0
v -832 507 0
v -640 539 0
v -640 571 0
v -704 571 0
v -704 539 0
v -128 475 0
v -128 539 0
v -160 539 0
v -160 475 0
v -960 347 0
v -960 379 0
v -1024 379 0
v -1024 347 0
v -1120 187 0
v -1120 219 0
v -1184 219 0
v -1184 187 0
v -1216 155 0
v -1216 219 0
v -1248 219 0
v -1248 155 0
v -352 283 0
v -352 315 0
v -416 315 0
v -416 283 0
v -320 315 0
v -320 347 0
v -384 347 0
v -384 315 0
v -1600 283 0
v -1600 347 0
v -1632 347 0
v -1632 283 0
v -96 507 0
v -96 571 0
v -128 571 0
v -128 507 0
v -1920 699 0
v -1920 763 0
v -1952 763 0
v -1952 699 0
v -800 635 0
v -800 699 0
v -832 699 0
v -832 635 0
v -736 731 0
v -736 763 0
v -800 763 0
v -800 731 0
v -1472 763 0
v -1472 827 0
v -1504 827 0
v -1504 763 0
v -1984 763 0
v -1984 827 0
v -2016 827 0
v -2016 763 0
v -1600 635 0
v -1600 699 0
v -1632 699 0
v -1632 635 0
v -64 539 0
v -64 603 0
v -96 603 0
v -96 539 0
v -1728 539 0
v -1728 603 0
v -1760 603 0
v -1760 539 0
v -1312 603 0
v -1312 667 0
v -1344 667 0
v -1344 603 0
v -1664 667 0
v -1664 699 0
v -1728 699 0
v -1728 667 0
v -864 603 0
v -864 667 0
v -896 667 0
v -896 603 0
v -512 539 0
v -512 571 0
v -576 571 0
v -576 539 0
v -192 1179 0
v -192 1211 0
v -256 1211 0
v -256 1179 0
v -608 667 0
v -608 731 0
v -640 731 0
v -640 667 0
v -1984 1211 0
v -1984 1275 0
v -2016 1275 0
v -2016 1211 0
v -608 603 0
v -608 667 0
v -640 667 0
v -640 603 0
v -1760 891 0
v -1760 923 0
v -1824 923 0
v -1824 891 0
v -64 859 0
v -64 923 0
v -96 923 0
v -96 859 0
v -96 667 0
v -96 731 0
v -128 731 0
v -128 667 0
v -64 795 0
v -64 859 0
v -96 859 0
v -96 795 0
v -992 699 0
v -992 763 0
v -1024 763 0
v -1024 699 0
v -1728 411 0
v -1728 443 0
v -1792 443 0
v -1792 411 0
v -1792 411 0
v -1792 443 0
v -1856 443 0
v -1856 411 0
v -352 443 0
v -352 475 0
v -416 475 0
v -416 443 0
v -416 443 0
v -416 475 0
v -480 475 0
v -480 443 0
v -1376 347 0
v -1376 379 0
v -1440 379 0
v -1440 347 0
v -1824 1243 0
v -1824 1307 0
v -1856 1307 0
v -1856 1243 0
v -1568 635 0
v -1568 699 0
v -1600 699 0
v -1600 635 0
v -1440 347 0
v -1440 379 0
v -1504 379 0
v -1504 347 0
v -1376 1883 0
v -1376 1915 0
v -1440 1915 0
v -1440 1883 0
v -1312 731 0
v -1312 763 0
v -1376 763 0
v -1376 731 0
v -832 603 0
v -832 667 0
v -864 667 0
v -864 603 0
v -640 507 0
v -640 539 0
v -704 539 0
v -704 507 0
v -1120 571 0
v -1120 635 0
v -1152 635 0
v -1152 571 0
v -1856 763 0
v -1856 827 0
v -1888 827 0
v -1888 763 0
v -1568 571 0
v -1568 635 0
v -1600 635 0
v -1600 571 0
v -896 635 0
v -896 699 0
v -928 699 0
v -928 635 0
v -736 539 0
v -736 603 0
v -768 603 0
v -768 539 0
v -576 1787 0
v -576 1851 0
v -608 1851 0
v -608 1787 0
v -1824 1339 0
v -1824 1371 0
v -1888 1371 0
v -1888 1339 0
v -992 571 0
v -992 635 0
v -1024 635 0
v -1024 571 0
v -1888 1339 0
v -1888 1371 0
v -1952 1371 0
v -1952 1339 0
v -1216 667 0
v -1216 699 0
v -1280 699 0
v -1280 667 0
v -1792 1563 0
v -1792 1627 0
v -1824 1627 0
v -1824 1563 0
v -1056 571 0
v -1056 635 0
v -1088 635 0
v -1088 571 0
v -576 1723 0
v -576 1787 0
v -608 1787 0
v -608 1723 0
v -1792 1627 0
v -1792 1691 0
v -1824 1691 0
v -1824 1627 0
v -1760 539 0
v -1760 571 0
v -1792 571 0
v -1792 539 0
v -896 507 0
v -896 539 0
v -928 539 0
v -928 507 0
v -192 667 0
v -192 699 0
v -224 699 0
v -224 667 0
v -64 667 0
v -64 699 0
v -96 699 0
v -96 667 0
v -640 603 0
v -640 635 0
v -672 635 0
v -672 603 0
v -576 603 0
v -576 635 0
v -608 635 0
v -608 603 0
v -1888 699 0
v -1888 731 0
v -1920 731 0
v -1920 699 0
v -640 699 0
v -640 731 0
v -672 731 0
v -672 699 0
v -864 763 0
v -864 795 0
v -896 795 0
v -896 763 0
v -1376 699 0
v -1376 731 0
v -1408 731 0
v -1408 699 0
v -1280 699 0
v -1280 731 0
v -1312 731 0
v -1312 699 0
v -1824 571 0
v -1824 603 0
v -1856 603 0
v -1856 571 0
v -704 571 0
v -704 603 0
v -736 603 0
v -736 571 0
v -1088 539 0
v -1088 571 0
v -1120 571 0
v -1120 539 0
v -960 539 0
v -960 571 0
v -992 571 0
v -992 539 0
v -512 571 0
v -512 603 0
v -544 603 0
v -544 571 0
v -1216 603 0
v -1216 635 0
v -1248 635 0
v -1248 603 0
v -1088 603 0
v -1088 635 0
v -1120 635 0
v -1120 603 0
v -384 571 0
v -384 603 0
v -416 603 0
v -416 571 0
v -1280 603 0
v -1280 635 0
v -1312 635 0
v -1312 603 0
v -1632 315 0
v -1632 347 0
v -1664 347 0
v -1664 315 0
v -1856 443 0
v -1856 475 0
v -1888 475 0
v -1888 443 0
v -672 475 0
v -672 507 0
v -704 507 0
v -704 475 0
v -1568 283 0
v -1568 315 0
v -1600 315 0
v -1600 283 0
v -416 475 0
v -416 507 0
v -448 507 0
v -448 475 0
v -672 347 0
v -672 379 0
v -704 379 0
v -704 347 0
v -1728 347 0
v -1728 379 0
v -1760 379 0
v -1760 347 0
v -1600 379 0
v -1600 411 0
v -1632 411 0
v -1632 379 0
v -448 379 0
v -448 411 0
v -480 411 0
v -480 379 0
v -1472 315 0
v -1472 347 0
v -1504 347 0
v -1504 315 0
v -1120 123 0
v -1120 155 0
v -1152 155 0
v -1152 123 0
v -544 123 0
v -544 155 0
v -576 155 0
v -576 123 0
v -672 27 0
v -672 59 0
v -704 59 0
v -704 27 0
v -1632 507 0
v -1632 539 0
v -1664 539 0
v -1664 507 0
v -1536 347 0
v -1536 379 0
v -1568 379 0
v -1568 347 0
v -1472 251 0
v -1472 283 0
v -1504 283 0
v -1504 251 0
v -512 251 0
v -512 283 0
v -544 283 0
v -544 251 0
v -544 187 0
v -544 219 0
v -576 219 0
v -576 187 0
v -608 155 0
v -608 187 0
v -640 187 0
v -640 155 0
v -1248 187 0
v -1248 219 0
v -1280 219 0
v -1280 187 0
v -704 411 0
v -704 443 0
v -736 443 0
v -736 411 0
v -928 347 0
v -928 379 0
v -960 379 0
v -960 347 0
v -576 539 0
v -576 571 0
v -608 571 0
v -608 539 0
v -1120 539 0
v -1120 571 0
v -1152 571 0
v -1152 539 0
v -736 507 0
v -736 539 0
v -768 539 0
v -768 507 0
v -928 27 0
v -928 59 0
v -960 59 0
v -960 27 0
v -608 1883 0
v -608 1915 0
v -640 1915 0
v -640 1883 0
v -448 251 0
v -448 283 0
v -480 283 0
v -480 251 0
v -1664 411 0
v -1664 443 0
v -1696 443 0
v -1696 411 0
v -1760 379 0
v -1760 411 0
v -1792 411 0
v -1792 379 0
v -256 1179 0
v -256 1211 0
v -288 1211 0
v -288 1179 0
v -1824 891 0
v -1824 923 0
v -1856 923 0
v -1856 891 0
v -1984 1179 0
v -1984 1211 0
v -2016 1211 0
v -2016 1179 0
v -1440 1883 0
v -1440 1915 0
v -1472 1915 0
v -1472 1883 0
v -1824 1211 0
v -1824 1243 0
v -1856 1243 0
v -1856 1211 0
v -992 539 0
v -992 571 0
v -1024 571 0
v -1024 539 0
v -1056 539 0
v -1056 571 0
v -1088 571 0
v -1088 539 0
v -1280 667 0
v -1280 699 0
v -1312 699 0
v -1312 667 0
v -992 667 0
v -992 699 0
v -1024 699 0
v -1024 667 0
v -96 635 0
v -96 667 0
v -128 667 0
v -128 635 0
v -384 1019 0
v -384 1051 0
v -416 1051 0
v -416 1019 0
v -0 955 0
v -0 987 0
v -32 987 0
v -32 955 0
v -320 1051 0
v -320 1083 0
v -352 1083 0
v -352 1051 0
v -192 1147 0
v -192 1179 0
v -224 1179 0
v -224 1147 0
v -416 1147 0
v -416 1179 0
v -448 1179 0
v -448 1147 0
v -1088 795 0
v -1088 827 0
v -1120 827 0
v -1120 795 0
v -1920 795 0
v -1920 827 0
v -1952 827 0
v -1952 795 0
v -1024 795 0
v -1024 827 0
v -1056 827 0
v -1056 795 0
v -256 859 0
v -256 891 0
v -288 891 0
v -288 859 0
v -320 859 0
v -320 891 0
v -352 891 0
v -352 859 0
v -1568 1723 0
v -1568 1755 0
v -1600 1755 0
v -1600 1723 0
v -1952 1467 0
v -1952 1499 0
v -1984 1499 0
v -1984 1467 0
v -544 1723 0
v -544 1755 0
v -576 1755 0
v -576 1723 0
v -736 1883 0
v -736 1915 0
v -768 1915 0
v -768 1883 0
v -1568 1787 0
v -1568 1819 0
v -1600 1819 0
v -1600 1787 0
v -1856 1211 0
v -1856 1243 0
v -1888 1243 0
v -1888 1211 0
v -1952 1211 0
v -1952 1243 0
v -1984 1243 0
v -1984 1211 0
v -1888 1307 0
v -1888 1339 0
v -1920 1339 0
v -1920 1307 0
v -384 1403 0
v -384 1435 0
v -416 1435 0
v -416 1403 0
v -1920 1371 0
v -1920 1403 0
v -1952 1403 0
v -1952 1371 0
vt 0.00048828125 0.00068873167
vt 0.00048828125 0.551652908
vt 0.281738281 0.551652908
vt 0.281738281 0.00068873167
vt 0.282714844 0.00068873167
vt 0.282714844 0.551652908
vt 0.563964844 0.551652908
vt 0.563964844 0.00068873167
vt 0.564941406 0.00068873167
vt 0.564941406 0.176997244
vt 0.752441406 0.176997244
vt 0.752441406 0.00068873167
vt 0.753417969 0.00068873167
vt 0.753417969 0.110881567
vt 0.972167969 0.110881567
vt 0.972167969 0.00068873167
vt 0.753417969 0.112258971
vt 0.753417969 0.222451806
vt 0.972167969 0.222451806
vt 0.972167969 0.112258971
vt 0.564941406 0.178374648
vt 0.564941406 0.288567483
vt 0.736816406 0.288567483
vt 0.736816406 0.178374648
vt 0.753417969 0.22382921
vt 0.753417969 0.334022045
vt 0.909667969 0.334022045
vt 0.909667969 0.22382921
vt 0.564941406 0.289944887
vt 0.564941406 0.44421488
vt 0.674316406 0.44421488
vt 0.674316406 0.289944887
vt 0.753417969 0.335399449
vt 0.753417969 0.445592284
vt 0.894042969 0.445592284
vt 0.894042969 0.335399449
vt 0.564941406 0.445592284
vt 0.564941406 0.55578512
vt 0.705566406 0.55578512
vt 0.705566406 0.445592284
vt 0.753417969 0.446969688
vt 0.753417969 0.535123944
vt 0.894042969 0.535123944
vt 0.894042969 0.446969688
vt 0.910644531 0.22382921
vt 0.910644531 0.488292038
vt 0.957519531 0.488292038
vt 0.957519531 0.22382921
vt 0.753417969 0.536501408
vt 0.753417969 0.624655604
vt 0.894042969 0.624655604
vt 0.894042969 0.536501408
vt 0.910644531 0.489669442
vt 0.910644531 0.754132211
vt 0.957519531 0.754132211
vt 0.957519531 0.489669442
vt 0.00048828125 0.553030312
vt 0.00048828125 0.663223147
vt 0.109863281 0.663223147
vt 0.109863281 0.553030312
vt 0.110839844 0.553030312
vt 0.110839844 0.707300305
vt 0.188964844 0.707300305
vt 0.188964844 0.553030312
vt 0.189941406 0.553030312
vt 0.189941406 0.663223147
vt 0.283691406 0.663223147
vt 0.283691406 0.553030312
vt 0.284667969 0.553030312
vt 0.284667969 0.751377404
vt 0.331542969 0.751377404
vt 0.331542969 0.553030312
vt 0.332519531 0.553030312
vt 0.332519531 0.685261726
vt 0.395019531 0.685261726
vt 0.395019531 0.553030312
vt 0.395996094 0.553030312
vt 0.395996094 0.685261726
vt 0.458496094 0.685261726
vt 0.458496094 0.553030312
vt 0.459472656 0.553030312
vt 0.459472656 0.729338884
vt 0.506347656 0.729338884
vt 0.506347656 0.553030312
vt 0.564941406 0.557162523
vt 0.564941406 0.645316839
vt 0.643066406 0.645316839
vt 0.643066406 0.557162523
vt 0.644042969 0.557162523
vt 0.644042969 0.645316839
vt 0.706542969 0.645316839
vt 0.706542969 0.557162523
vt 0.753417969 0.626033068
vt 0.753417969 0.714187324
vt 0.815917969 0.714187324
vt 0.815917969 0.626033068
vt 0.507324219 0.553030312
vt 0.507324219 0.663223147
vt 0.554199219 0.663223147
vt 0.554199219 0.553030312
vt 0.816894531 0.626033068
vt 0.816894531 0.692148805
vt 0.895019531 0.692148805
vt 0.895019531 0.626033068
vt 0.564941406 0.646694183
vt 0.564941406 0.71280992
vt 0.627441406 0.71280992
vt 0.627441406 0.646694183
vt 0.628417969 0.646694183
vt 0.628417969 0.734848499
vt 0.675292969 0.734848499
vt 0.675292969 0.646694183
vt 0.676269531 0.646694183
vt 0.676269531 0.71280992
vt 0.738769531 0.71280992
vt 0.738769531 0.646694183
vt 0.00048828125 0.664600551
vt 0.00048828125 0.752754807
vt 0.0473632812 0.752754807
vt 0.0473632812 0.664600551
vt 0.958496094 0.22382921
vt 0.958496094 0.356060624
vt 0.989746094 0.356060624
vt 0.989746094 0.22382921
vt 0.958496094 0.357438028
vt 0.958496094 0.467630863
vt 0.989746094 0.467630863
vt 0.989746094 0.357438028
vt 0.0483398438 0.664600551
vt 0.0483398438 0.730716228
vt 0.0952148438 0.730716228
vt 0.0952148438 0.664600551
vt 0.110839844 0.708677649
vt 0.110839844 0.730716228
vt 0.251464844 0.730716228
vt 0.251464844 0.708677649
vt 0.507324219 0.664600551
vt 0.507324219 0.730716228
vt 0.554199219 0.730716228
vt 0.554199219 0.664600551
vt 0.332519531 0.68663913
vt 0.332519531 0.752754807
vt 0.379394531 0.752754807
vt 0.379394531 0.68663913
vt 0.753417969 0.715564728
vt 0.753417969 0.737603307
vt 0.894042969 0.737603307
vt 0.894042969 0.715564728
vt 0.380371094 0.68663913
vt 0.380371094 0.730716228
vt 0.442871094 0.730716228
vt 0.442871094 0.68663913
vt 0.564941406 0.714187324
vt 0.564941406 0.758264482
vt 0.627441406 0.758264482
vt 0.627441406 0.714187324
vt 0.676269531 0.714187324
vt 0.676269531 0.758264482
vt 0.738769531 0.758264482
vt 0.738769531 0.714187324
vt 0.958496094 0.469008267
vt 0.958496094 0.557162523
vt 0.989746094 0.557162523
vt 0.989746094 0.469008267
vt 0.0483398438 0.732093692
vt 0.0483398438 0.77617079
vt 0.110839844 0.77617079
vt 0.110839844 0.732093692
vt 0.111816406 0.732093692
vt 0.111816406 0.77617079
vt 0.174316406 0.77617079
vt 0.174316406 0.732093692
vt 0.958496094 0.558539987
vt 0.958496094 0.646694183
vt 0.989746094 0.646694183
vt 0.989746094 0.558539987
vt 0.175292969 0.732093692
vt 0.175292969 0.77617079
vt 0.237792969 0.77617079
vt 0.237792969 0.732093692
vt 0.380371094 0.732093692
vt 0.380371094 0.77617079
vt 0.442871094 0.77617079
vt 0.442871094 0.732093692
vt 0.958496094 0.648071647
vt 0.958496094 0.80234158
vt 0.974121094 0.80234158
vt 0.974121094 0.648071647
vt 0.459472656 0.730716228
vt 0.459472656 0.774793386
vt 0.506347656 0.774793386
vt 0.506347656 0.730716228
vt 0.507324219 0.732093692
vt 0.507324219 0.77617079
vt 0.554199219 0.77617079
vt 0.554199219 0.732093692
vt 0.252441406 0.664600551
vt 0.252441406 0.730716228
vt 0.283691406 0.730716228
vt 0.283691406 0.664600551
vt 0.238769531 0.732093692
vt 0.238769531 0.798209369
vt 0.270019531 0.798209369
vt 0.270019531 0.732093692
vt 0.628417969 0.736225903
vt 0.628417969 0.780303001
vt 0.675292969 0.780303001
vt 0.675292969 0.736225903
vt 0.753417969 0.738980711
vt 0.753417969 0.805096388
vt 0.784667969 0.805096388
vt 0.784667969 0.738980711
vt 0.785644531 0.738980711
vt 0.785644531 0.805096388
vt 0.816894531 0.805096388
vt 0.816894531 0.738980711
vt 0.817871094 0.738980711
vt 0.817871094 0.805096388
vt 0.849121094 0.805096388
vt 0.849121094 0.738980711
vt 0.850097656 0.738980711
vt 0.850097656 0.805096388
vt 0.881347656 0.805096388
vt 0.881347656 0.738980711
vt 0.284667969 0.752754807
vt 0.284667969 0.818870544
vt 0.315917969 0.818870544
vt 0.315917969 0.752754807
vt 0.00048828125 0.754132211
vt 0.00048828125 0.820247948
vt 0.0317382812 0.820247948
vt 0.0317382812 0.754132211
vt 0.332519531 0.754132211
vt 0.332519531 0.820247948
vt 0.363769531 0.820247948
vt 0.363769531 0.754132211
vt 0.910644531 0.755509615
vt 0.910644531 0.821625352
vt 0.941894531 0.821625352
vt 0.941894531 0.755509615
vt 0.975097656 0.648071647
vt 0.975097656 0.780303001
vt 0.990722656 0.780303001
vt 0.990722656 0.648071647
vt 0.564941406 0.759641886
vt 0.564941406 0.803719044
vt 0.611816406 0.803719044
vt 0.611816406 0.759641886
vt 0.676269531 0.759641886
vt 0.676269531 0.825757563
vt 0.707519531 0.825757563
vt 0.707519531 0.759641886
vt 0.459472656 0.77617079
vt 0.459472656 0.817493081
vt 0.506347656 0.817493081
vt 0.506347656 0.77617079
vt 0.0483398438 0.777548194
vt 0.0483398438 0.799586773
vt 0.126464844 0.799586773
vt 0.126464844 0.777548194
vt 0.127441406 0.777548194
vt 0.127441406 0.799586773
vt 0.205566406 0.799586773
vt 0.205566406 0.777548194
vt 0.708496094 0.759641886
vt 0.708496094 0.803719044
vt 0.739746094 0.803719044
vt 0.739746094 0.759641886
vt 0.206542969 0.777548194
vt 0.206542969 0.821625352
vt 0.237792969 0.821625352
vt 0.237792969 0.777548194
vt 0.380371094 0.777548194
vt 0.380371094 0.821625352
vt 0.411621094 0.821625352
vt 0.411621094 0.777548194
vt 0.412597656 0.777548194
vt 0.412597656 0.821625352
vt 0.443847656 0.821625352
vt 0.443847656 0.777548194
vt 0.507324219 0.777548194
vt 0.507324219 0.821625352
vt 0.538574219 0.821625352
vt 0.538574219 0.777548194
vt 0.628417969 0.781680465
vt 0.628417969 0.825757563
vt 0.659667969 0.825757563
vt 0.659667969 0.781680465
vt 0.238769531 0.799586773
vt 0.238769531 0.843663931
vt 0.270019531 0.843663931
vt 0.270019531 0.799586773
vt 0.0483398438 0.800964177
vt 0.0483398438 0.845041335
vt 0.0795898438 0.845041335
vt 0.0795898438 0.800964177
vt 0.0805664062 0.800964177
vt 0.0805664062 0.845041335
vt 0.111816406 0.845041335
vt 0.111816406 0.800964177
vt 0.112792969 0.800964177
vt 0.112792969 0.845041335
vt 0.144042969 0.845041335
vt 0.144042969 0.800964177
vt 0.145019531 0.800964177
vt 0.145019531 0.845041335
vt 0.176269531 0.845041335
vt 0.176269531 0.800964177
vt 0.958496094 0.803719044
vt 0.958496094 0.847796142
vt 0.989746094 0.847796142
vt 0.989746094 0.803719044
vt 0.564941406 0.805096388
vt 0.564941406 0.849173546
vt 0.596191406 0.849173546
vt 0.596191406 0.805096388
vt 0.753417969 0.806473851
vt 0.753417969 0.82851243
vt 0.815917969 0.82851243
vt 0.815917969 0.806473851
vt 0.816894531 0.806473851
vt 0.816894531 0.82851243
vt 0.879394531 0.82851243
vt 0.879394531 0.806473851
vt 0.882324219 0.738980711
vt 0.882324219 0.827134967
vt 0.897949219 0.827134967
vt 0.897949219 0.738980711
vt 0.380371094 0.823002756
vt 0.380371094 0.845041335
vt 0.442871094 0.845041335
vt 0.442871094 0.823002756
vt 0.539550781 0.777548194
vt 0.539550781 0.86570251
vt 0.555175781 0.86570251
vt 0.555175781 0.777548194
vt 0.708496094 0.805096388
vt 0.708496094 0.849173546
vt 0.739746094 0.849173546
vt 0.739746094 0.805096388
vt 0.459472656 0.818870544
vt 0.459472656 0.860192835
vt 0.490722656 0.860192835
vt 0.490722656 0.818870544
vt 0.177246094 0.800964177
vt 0.177246094 0.889118433
vt 0.192871094 0.889118433
vt 0.192871094 0.800964177
vt 0.597167969 0.805096388
vt 0.597167969 0.871212125
vt 0.612792969 0.871212125
vt 0.612792969 0.805096388
vt 0.284667969 0.820247948
vt 0.284667969 0.886363626
vt 0.300292969 0.886363626
vt 0.300292969 0.820247948
vt 0.301269531 0.820247948
vt 0.301269531 0.886363626
vt 0.316894531 0.886363626
vt 0.316894531 0.820247948
vt 0.00048828125 0.821625352
vt 0.00048828125 0.887741029
vt 0.0161132812 0.887741029
vt 0.0161132812 0.821625352
vt 0.332519531 0.821625352
vt 0.332519531 0.843663931
vt 0.379394531 0.843663931
vt 0.379394531 0.821625352
vt 0.0170898438 0.821625352
vt 0.0170898438 0.887741029
vt 0.0327148438 0.887741029
vt 0.0327148438 0.821625352
vt 0.910644531 0.823002756
vt 0.910644531 0.845041335
vt 0.957519531 0.845041335
vt 0.957519531 0.823002756
vt 0.206542969 0.823002756
vt 0.206542969 0.889118433
vt 0.222167969 0.889118433
vt 0.222167969 0.823002756
vt 0.628417969 0.827134967
vt 0.628417969 0.849173546
vt 0.675292969 0.849173546
vt 0.675292969 0.827134967
vt 0.507324219 0.823002756
vt 0.507324219 0.889118433
vt 0.522949219 0.889118433
vt 0.522949219 0.823002756
vt 0.676269531 0.827134967
vt 0.676269531 0.893250704
vt 0.691894531 0.893250704
vt 0.691894531 0.827134967
vt 0.753417969 0.829889774
vt 0.753417969 0.851928353
vt 0.784667969 0.851928353
vt 0.784667969 0.829889774
vt 0.882324219 0.82851243
vt 0.882324219 0.872589529
vt 0.897949219 0.872589529
vt 0.897949219 0.82851243
vt 0.785644531 0.829889774
vt 0.785644531 0.873966932
vt 0.801269531 0.873966932
vt 0.801269531 0.829889774
vt 0.802246094 0.829889774
vt 0.802246094 0.873966932
vt 0.817871094 0.873966932
vt 0.817871094 0.829889774
vt 0.818847656 0.829889774
vt 0.818847656 0.851928353
vt 0.850097656 0.851928353
vt 0.850097656 0.829889774
vt 0.851074219 0.829889774
vt 0.851074219 0.873966932
vt 0.866699219 0.873966932
vt 0.866699219 0.829889774
vt 0.238769531 0.845041335
vt 0.238769531 0.889118433
vt 0.254394531 0.889118433
vt 0.254394531 0.845041335
vt 0.255371094 0.845041335
vt 0.255371094 0.889118433
vt 0.270996094 0.889118433
vt 0.270996094 0.845041335
vt 0.332519531 0.845041335
vt 0.332519531 0.889118433
vt 0.348144531 0.889118433
vt 0.348144531 0.845041335
vt 0.349121094 0.845041335
vt 0.349121094 0.889118433
vt 0.364746094 0.889118433
vt 0.364746094 0.845041335
vt 0.0483398438 0.846418738
vt 0.0483398438 0.868457317
vt 0.0795898438 0.868457317
vt 0.0795898438 0.846418738
vt 0.0805664062 0.846418738
vt 0.0805664062 0.868457317
vt 0.111816406 0.868457317
vt 0.111816406 0.846418738
vt 0.112792969 0.846418738
vt 0.112792969 0.868457317
vt 0.144042969 0.868457317
vt 0.144042969 0.846418738
vt 0.145019531 0.846418738
vt 0.145019531 0.890495896
vt 0.160644531 0.890495896
vt 0.160644531 0.846418738
vt 0.380371094 0.846418738
vt 0.380371094 0.890495896
vt 0.395996094 0.890495896
vt 0.395996094 0.846418738
vt 0.396972656 0.846418738
vt 0.396972656 0.868457317
vt 0.428222656 0.868457317
vt 0.428222656 0.846418738
vt 0.429199219 0.846418738
vt 0.429199219 0.890495896
vt 0.444824219 0.890495896
vt 0.444824219 0.846418738
vt 0.910644531 0.846418738
vt 0.910644531 0.868457317
vt 0.941894531 0.868457317
vt 0.941894531 0.846418738
vt 0.958496094 0.849173546
vt 0.958496094 0.893250704
vt 0.974121094 0.893250704
vt 0.974121094 0.849173546
vt 0.975097656 0.849173546
vt 0.975097656 0.893250704
vt 0.990722656 0.893250704
vt 0.990722656 0.849173546
vt 0.564941406 0.85055095
vt 0.564941406 0.894628108
vt 0.580566406 0.894628108
vt 0.580566406 0.85055095
vt 0.628417969 0.85055095
vt 0.628417969 0.872589529
vt 0.659667969 0.872589529
vt 0.659667969 0.85055095
vt 0.708496094 0.85055095
vt 0.708496094 0.894628108
vt 0.724121094 0.894628108
vt 0.724121094 0.85055095
vt 0.725097656 0.85055095
vt 0.725097656 0.894628108
vt 0.740722656 0.894628108
vt 0.740722656 0.85055095
vt 0.753417969 0.853305817
vt 0.753417969 0.875344336
vt 0.784667969 0.875344336
vt 0.784667969 0.853305817
vt 0.818847656 0.853305817
vt 0.818847656 0.897382915
vt 0.834472656 0.897382915
vt 0.834472656 0.853305817
vt 0.459472656 0.861570239
vt 0.459472656 0.883608818
vt 0.490722656 0.883608818
vt 0.490722656 0.861570239
vt 0.0483398438 0.869834721
vt 0.0483398438 0.8918733
vt 0.0795898438 0.8918733
vt 0.0795898438 0.869834721
vt 0.539550781 0.867079854
vt 0.539550781 0.911157012
vt 0.555175781 0.911157012
vt 0.555175781 0.867079854
vt 0.0805664062 0.869834721
vt 0.0805664062 0.8918733
vt 0.111816406 0.8918733
vt 0.111816406 0.869834721
vt 0.112792969 0.869834721
vt 0.112792969 0.8918733
vt 0.144042969 0.8918733
vt 0.144042969 0.869834721
vt 0.396972656 0.869834721
vt 0.396972656 0.913911819
vt 0.412597656 0.913911819
vt 0.412597656 0.869834721
vt 0.910644531 0.869834721
vt 0.910644531 0.8918733
vt 0.941894531 0.8918733
vt 0.941894531 0.869834721
vt 0.628417969 0.873966932
vt 0.628417969 0.896005511
vt 0.659667969 0.896005511
vt 0.659667969 0.873966932
vt 0.597167969 0.872589529
vt 0.597167969 0.916666687
vt 0.612792969 0.916666687
vt 0.612792969 0.872589529
vt 0.882324219 0.873966932
vt 0.882324219 0.91804409
vt 0.897949219 0.91804409
vt 0.897949219 0.873966932
vt 0.785644531 0.875344336
vt 0.785644531 0.919421494
vt 0.801269531 0.919421494
vt 0.801269531 0.875344336
vt 0.802246094 0.875344336
vt 0.802246094 0.919421494
vt 0.817871094 0.919421494
vt 0.817871094 0.875344336
vt 0.753417969 0.87672174
vt 0.753417969 0.898760319
vt 0.784667969 0.898760319
vt 0.784667969 0.87672174
vt 0.851074219 0.875344336
vt 0.851074219 0.919421494
vt 0.866699219 0.919421494
vt 0.866699219 0.875344336
vt 0.459472656 0.884986222
vt 0.459472656 0.92906338
vt 0.475097656 0.92906338
vt 0.475097656 0.884986222
vt 0.476074219 0.884986222
vt 0.476074219 0.92906338
vt 0.491699219 0.92906338
vt 0.491699219 0.884986222
vt 0.284667969 0.887741029
vt 0.284667969 0.931818187
vt 0.300292969 0.931818187
vt 0.300292969 0.887741029
vt 0.301269531 0.887741029
vt 0.301269531 0.931818187
vt 0.316894531 0.931818187
vt 0.316894531 0.887741029
vt 0.00048828125 0.889118433
vt 0.00048828125 0.933195591
vt 0.0161132812 0.933195591
vt 0.0161132812 0.889118433
vt 0.177246094 0.890495896
vt 0.177246094 0.912534416
vt 0.208496094 0.912534416
vt 0.208496094 0.890495896
vt 0.0170898438 0.889118433
vt 0.0170898438 0.933195591
vt 0.0327148438 0.933195591
vt 0.0327148438 0.889118433
vt 0.209472656 0.890495896
vt 0.209472656 0.912534416
vt 0.240722656 0.912534416
vt 0.240722656 0.890495896
vt 0.241699219 0.890495896
vt 0.241699219 0.912534416
vt 0.272949219 0.912534416
vt 0.272949219 0.890495896
vt 0.332519531 0.890495896
vt 0.332519531 0.934572995
vt 0.348144531 0.934572995
vt 0.348144531 0.890495896
vt 0.349121094 0.890495896
vt 0.349121094 0.934572995
vt 0.364746094 0.934572995
vt 0.364746094 0.890495896
vt 0.507324219 0.890495896
vt 0.507324219 0.934572995
vt 0.522949219 0.934572995
vt 0.522949219 0.890495896
vt 0.145019531 0.8918733
vt 0.145019531 0.913911819
vt 0.176269531 0.913911819
vt 0.176269531 0.8918733
vt 0.380371094 0.8918733
vt 0.380371094 0.935950398
vt 0.395996094 0.935950398
vt 0.395996094 0.8918733
vt 0.429199219 0.8918733
vt 0.429199219 0.935950398
vt 0.444824219 0.935950398
vt 0.444824219 0.8918733
vt 0.0483398438 0.893250704
vt 0.0483398438 0.937327802
vt 0.0639648438 0.937327802
vt 0.0639648438 0.893250704
vt 0.0649414062 0.893250704
vt 0.0649414062 0.937327802
vt 0.0805664062 0.937327802
vt 0.0805664062 0.893250704
vt 0.0815429688 0.893250704
vt 0.0815429688 0.915289283
vt 0.112792969 0.915289283
vt 0.112792969 0.893250704
vt 0.910644531 0.893250704
vt 0.910644531 0.915289283
vt 0.941894531 0.915289283
vt 0.941894531 0.893250704
vt 0.676269531 0.894628108
vt 0.676269531 0.916666687
vt 0.707519531 0.916666687
vt 0.707519531 0.894628108
vt 0.958496094 0.894628108
vt 0.958496094 0.916666687
vt 0.989746094 0.916666687
vt 0.989746094 0.894628108
vt 0.564941406 0.896005511
vt 0.564941406 0.91804409
vt 0.596191406 0.91804409
vt 0.596191406 0.896005511
vt 0.113769531 0.893250704
vt 0.113769531 0.937327802
vt 0.129394531 0.937327802
vt 0.129394531 0.893250704
vt 0.708496094 0.896005511
vt 0.708496094 0.940082669
vt 0.724121094 0.940082669
vt 0.724121094 0.896005511
vt 0.628417969 0.897382915
vt 0.628417969 0.919421494
vt 0.659667969 0.919421494
vt 0.659667969 0.897382915
vt 0.818847656 0.898760319
vt 0.818847656 0.920798898
vt 0.850097656 0.920798898
vt 0.850097656 0.898760319
vt 0.753417969 0.900137722
vt 0.753417969 0.922176301
vt 0.784667969 0.922176301
vt 0.784667969 0.900137722
vt 0.725097656 0.896005511
vt 0.725097656 0.940082669
vt 0.740722656 0.940082669
vt 0.740722656 0.896005511
vt 0.177246094 0.913911819
vt 0.177246094 0.935950398
vt 0.208496094 0.935950398
vt 0.208496094 0.913911819
vt 0.539550781 0.912534416
vt 0.539550781 0.956611574
vt 0.555175781 0.956611574
vt 0.555175781 0.912534416
vt 0.209472656 0.913911819
vt 0.209472656 0.957988977
vt 0.225097656 0.957988977
vt 0.225097656 0.913911819
vt 0.226074219 0.913911819
vt 0.226074219 0.957988977
vt 0.241699219 0.957988977
vt 0.241699219 0.913911819
vt 0.242675781 0.913911819
vt 0.242675781 0.957988977
vt 0.258300781 0.957988977
vt 0.258300781 0.913911819
vt 0.259277344 0.913911819
vt 0.259277344 0.957988977
vt 0.274902344 0.957988977
vt 0.274902344 0.913911819
vt 0.145019531 0.915289283
vt 0.145019531 0.959366381
vt 0.160644531 0.959366381
vt 0.160644531 0.915289283
vt 0.396972656 0.915289283
vt 0.396972656 0.937327802
vt 0.428222656 0.937327802
vt 0.428222656 0.915289283
vt 0.0815429688 0.916666687
vt 0.0815429688 0.960743785
vt 0.0971679688 0.960743785
vt 0.0971679688 0.916666687
vt 0.910644531 0.916666687
vt 0.910644531 0.938705206
vt 0.941894531 0.938705206
vt 0.941894531 0.916666687
vt 0.676269531 0.91804409
vt 0.676269531 0.940082669
vt 0.707519531 0.940082669
vt 0.707519531 0.91804409
vt 0.597167969 0.91804409
vt 0.597167969 0.962121189
vt 0.612792969 0.962121189
vt 0.612792969 0.91804409
vt 0.958496094 0.91804409
vt 0.958496094 0.962121189
vt 0.974121094 0.962121189
vt 0.974121094 0.91804409
vt 0.975097656 0.91804409
vt 0.975097656 0.962121189
vt 0.990722656 0.962121189
vt 0.990722656 0.91804409
vt 0.564941406 0.919421494
vt 0.564941406 0.963498592
vt 0.580566406 0.963498592
vt 0.580566406 0.919421494
vt 0.882324219 0.919421494
vt 0.882324219 0.941460073
vt 0.897949219 0.941460073
vt 0.897949219 0.919421494
vt 0.628417969 0.920798898
vt 0.628417969 0.942837477
vt 0.644042969 0.942837477
vt 0.644042969 0.920798898
vt 0.645019531 0.920798898
vt 0.645019531 0.942837477
vt 0.660644531 0.942837477
vt 0.660644531 0.920798898
vt 0.785644531 0.920798898
vt 0.785644531 0.942837477
vt 0.801269531 0.942837477
vt 0.801269531 0.920798898
vt 0.802246094 0.920798898
vt 0.802246094 0.942837477
vt 0.817871094 0.942837477
vt 0.817871094 0.920798898
vt 0.851074219 0.920798898
vt 0.851074219 0.942837477
vt 0.866699219 0.942837477
vt 0.866699219 0.920798898
vt 0.818847656 0.922176301
vt 0.818847656 0.94421488
vt 0.834472656 0.94421488
vt 0.834472656 0.922176301
vt 0.753417969 0.923553705
vt 0.753417969 0.945592284
vt 0.769042969 0.945592284
vt 0.769042969 0.923553705
vt 0.459472656 0.930440784
vt 0.459472656 0.952479362
vt 0.475097656 0.952479362
vt 0.475097656 0.930440784
vt 0.476074219 0.930440784
vt 0.476074219 0.952479362
vt 0.491699219 0.952479362
vt 0.491699219 0.930440784
vt 0.284667969 0.933195591
vt 0.284667969 0.95523417
vt 0.300292969 0.95523417
vt 0.300292969 0.933195591
vt 0.301269531 0.933195591
vt 0.301269531 0.95523417
vt 0.316894531 0.95523417
vt 0.316894531 0.933195591
vt 0.00048828125 0.934572995
vt 0.00048828125 0.956611574
vt 0.0161132812 0.956611574
vt 0.0161132812 0.934572995
vt 0.0170898438 0.934572995
vt 0.0170898438 0.956611574
vt 0.0327148438 0.956611574
vt 0.0327148438 0.934572995
vt 0.332519531 0.935950398
vt 0.332519531 0.957988977
vt 0.348144531 0.957988977
vt 0.348144531 0.935950398
vt 0.349121094 0.935950398
vt 0.349121094 0.957988977
vt 0.364746094 0.957988977
vt 0.364746094 0.935950398
vt 0.507324219 0.935950398
vt 0.507324219 0.957988977
vt 0.522949219 0.957988977
vt 0.522949219 0.935950398
vt 0.177246094 0.937327802
vt 0.177246094 0.959366381
vt 0.192871094 0.959366381
vt 0.192871094 0.937327802
vt 0.380371094 0.937327802
vt 0.380371094 0.959366381
vt 0.395996094 0.959366381
vt 0.395996094 0.937327802
vt 0.429199219 0.937327802
vt 0.429199219 0.959366381
vt 0.444824219 0.959366381
vt 0.444824219 0.937327802
vt 0.0483398438 0.938705206
vt 0.0483398438 0.960743785
vt 0.0639648438 0.960743785
vt 0.0639648438 0.938705206
vt 0.0649414062 0.938705206
vt 0.0649414062 0.960743785
vt 0.0805664062 0.960743785
vt 0.0805664062 0.938705206
vt 0.113769531 0.938705206
vt 0.113769531 0.960743785
vt 0.129394531 0.960743785
vt 0.129394531 0.938705206
vt 0.396972656 0.938705206
vt 0.396972656 0.960743785
vt 0.412597656 0.960743785
vt 0.412597656 0.938705206
vt 0.910644531 0.940082669
vt 0.910644531 0.962121189
vt 0.926269531 0.962121189
vt 0.926269531 0.940082669
vt 0.927246094 0.940082669
vt 0.927246094 0.962121189
vt 0.942871094 0.962121189
vt 0.942871094 0.940082669
vt 0.676269531 0.941460073
vt 0.676269531 0.963498592
vt 0.691894531 0.963498592
vt 0.691894531 0.941460073
vt 0.692871094 0.941460073
vt 0.692871094 0.963498592
vt 0.708496094 0.963498592
vt 0.708496094 0.941460073
vt 0.709472656 0.941460073
vt 0.709472656 0.963498592
vt 0.725097656 0.963498592
vt 0.725097656 0.941460073
vt 0.726074219 0.941460073
vt 0.726074219 0.963498592
vt 0.741699219 0.963498592
vt 0.741699219 0.941460073
vt 0.882324219 0.942837477
vt 0.882324219 0.964876056
vt 0.897949219 0.964876056
vt 0.897949219 0.942837477
vt 0.628417969 0.94421488
vt 0.628417969 0.966253459
vt 0.644042969 0.966253459
vt 0.644042969 0.94421488
vt 0.645019531 0.94421488
vt 0.645019531 0.966253459
vt 0.660644531 0.966253459
vt 0.660644531 0.94421488
vt 0.785644531 0.94421488
vt 0.785644531 0.966253459
vt 0.801269531 0.966253459
vt 0.801269531 0.94421488
vt 0.802246094 0.94421488
vt 0.802246094 0.966253459
vt 0.817871094 0.966253459
vt 0.817871094 0.94421488
vt 0.851074219 0.94421488
vt 0.851074219 0.966253459
vt 0.866699219 0.966253459
vt 0.866699219 0.94421488
vt 0.818847656 0.945592284
vt 0.818847656 0.967630863
vt 0.834472656 0.967630863
vt 0.834472656 0.945592284
vt 0.753417969 0.946969688
vt 0.753417969 0.969008267
vt 0.769042969 0.969008267
vt 0.769042969 0.946969688
vt 0.459472656 0.953856766
vt 0.459472656 0.975895345
vt 0.475097656 0.975895345
vt 0.475097656 0.953856766
vt 0.476074219 0.953856766
vt 0.476074219 0.975895345
vt 0.491699219 0.975895345
vt 0.491699219 0.953856766
vt 0.284667969 0.956611574
vt 0.284667969 0.978650153
vt 0.300292969 0.978650153
vt 0.300292969 0.956611574
vt 0.301269531 0.956611574
vt 0.301269531 0.978650153
vt 0.316894531 0.978650153
vt 0.316894531 0.956611574
vt 0.00048828125 0.957988977
vt 0.00048828125 0.980027556
vt 0.0161132812 0.980027556
vt 0.0161132812 0.957988977
vt 0.0170898438 0.957988977
vt 0.0170898438 0.980027556
vt 0.0327148438 0.980027556
vt 0.0327148438 0.957988977
vt 0.539550781 0.957988977
vt 0.539550781 0.980027556
vt 0.555175781 0.980027556
vt 0.555175781 0.957988977
vt 0.209472656 0.959366381
vt 0.209472656 0.98140496
vt 0.225097656 0.98140496
vt 0.225097656 0.959366381
vt 0.226074219 0.959366381
vt 0.226074219 0.98140496
vt 0.241699219 0.98140496
vt 0.241699219 0.959366381
vt 0.242675781 0.959366381
vt 0.242675781 0.98140496
vt 0.258300781 0.98140496
vt 0.258300781 0.959366381
vt 0.259277344 0.959366381
vt 0.259277344 0.98140496
vt 0.274902344 0.98140496
vt 0.274902344 0.959366381
vt 0.332519531 0.959366381
vt 0.332519531 0.98140496
vt 0.348144531 0.98140496
vt 0.348144531 0.959366381
vt 0.349121094 0.959366381
vt 0.349121094 0.98140496
vt 0.364746094 0.98140496
vt 0.364746094 0.959366381
vt 0.507324219 0.959366381
vt 0.507324219 0.98140496
vt 0.522949219 0.98140496
vt 0.522949219 0.959366381
vt 0.145019531 0.960743785
vt 0.145019531 0.982782364
vt 0.160644531 0.982782364
vt 0.160644531 0.960743785
vt 0.177246094 0.960743785
vt 0.177246094 0.982782364
vt 0.192871094 0.982782364
vt 0.192871094 0.960743785
vt 0.380371094 0.960743785
vt 0.380371094 0.982782364
vt 0.395996094 0.982782364
vt 0.395996094 0.960743785
vt 0.429199219 0.960743785
vt 0.429199219 0.982782364
vt 0.444824219 0.982782364
vt 0.444824219 0.960743785
vt 0.0483398438 0.962121189
vt 0.0483398438 0.984159768
vt 0.0639648438 0.984159768
vt 0.0639648438 0.962121189
vt 0.0649414062 0.962121189
vt 0.0649414062 0.984159768
vt 0.0805664062 0.984159768
vt 0.0805664062 0.962121189
vt 0.0815429688 0.962121189
vt 0.0815429688 0.984159768
vt 0.0971679688 0.984159768
vt 0.0971679688 0.962121189
vt 0.113769531 0.962121189
vt 0.113769531 0.984159768
vt 0.129394531 0.984159768
vt 0.129394531 0.962121189
vt 0.396972656 0.962121189
vt 0.396972656 0.984159768
vt 0.412597656 0.984159768
vt 0.412597656 0.962121189
vt 0.597167969 0.963498592
vt 0.597167969 0.985537171
vt 0.612792969 0.985537171
vt 0.612792969 0.963498592
vt 0.910644531 0.963498592
vt 0.910644531 0.985537171
vt 0.926269531 0.985537171
vt 0.926269531 0.963498592
vt 0.927246094 0.963498592
vt 0.927246094 0.985537171
vt 0.942871094 0.985537171
vt 0.942871094 0.963498592
vt 0.958496094 0.963498592
vt 0.958496094 0.985537171
vt 0.974121094 0.985537171
vt 0.974121094 0.963498592
vt 0.975097656 0.963498592
vt 0.975097656 0.985537171
vt 0.990722656 0.985537171
vt 0.990722656 0.963498592
vt 0.564941406 0.964876056
vt 0.564941406 0.986914575
vt 0.580566406 0.986914575
vt 0.580566406 0.964876056
vt 0.676269531 0.964876056
vt 0.676269531 0.986914575
vt 0.691894531 0.986914575
vt 0.691894531 0.964876056
vt 0.692871094 0.964876056
vt 0.692871094 0.986914575
vt 0.708496094 0.986914575
vt 0.708496094 0.964876056
vt 0.709472656 0.964876056
vt 0.709472656 0.986914575
vt 0.725097656 0.986914575
vt 0.725097656 0.964876056
vt 0.726074219 0.964876056
vt 0.726074219 0.986914575
vt 0.741699219 0.986914575
vt 0.741699219 0.964876056
vt 0.882324219 0.966253459
vt 0.882324219 0.988292038
vt 0.897949219 0.988292038
vt 0.897949219 0.966253459
vt 0.628417969 0.967630863
vt 0.628417969 0.989669442
vt 0.644042969 0.989669442
vt 0.644042969 0.967630863
vt 0.645019531 0.967630863
vt 0.645019531 0.989669442
vt 0.660644531 0.989669442
vt 0.660644531 0.967630863
vt 0.785644531 0.967630863
vt 0.785644531 0.989669442
vt 0.801269531 0.989669442
vt 0.801269531 0.967630863
vt 0.802246094 0.967630863
vt 0.802246094 0.989669442
vt 0.817871094 0.989669442
vt 0.817871094 0.967630863
vt 0.851074219 0.967630863
vt 0.851074219 0.989669442
vt 0.866699219 0.989669442
vt 0.866699219 0.967630863
vt 0.818847656 0.969008267
vt 0.818847656 0.991046846
vt 0.834472656 0.991046846
vt 0.834472656 0.969008267
vt 0.753417969 0.970385671
vt 0.753417969 0.99242425
vt 0.769042969 0.99242425
vt 0.769042969 0.970385671
vt 0.459472656 0.977272749
vt 0.459472656 0.999311268
vt 0.475097656 0.999311268
vt 0.475097656 0.977272749
g sebao-mesh_0
f 3/3/3 2/2/2 1/1/1
f 1/1/1 4/4/4 3/3/3
f 7/7/7 6/6/6 5/5/5
f 5/5/5 8/8/8 7/7/7
f 11/11/11 10/10/10 9/9/9
f 9/9/9 12/12/12 11/11/11
f 15/15/15 14/14/14 13/13/13
f 13/13/13 16/16/16 15/15/15
f 19/19/19 18/18/18 17/17/17
f 17/17/17 20/20/20 19/19/19
f 23/23/23 22/22/22 21/21/21
f 21/21/21 24/24/24 23/23/23
f 27/27/27 26/26/26 25/25/25
f 25/25/25 28/28/28 27/27/27
f 31/31/31 30/30/30 29/29/29
f 29/29/29 32/32/32 31/31/31
f 35/35/35 34/34/34 33/33/33
f 33/33/33 36/36/36 35/35/35
f 39/39/39 38/38/38 37/37/37
f 37/37/37 40/40/40 39/39/39
f 43/43/43 42/42/42 41/41/41
f 41/41/41 44/44/44 43/43/43
f 47/47/47 46/46/46 45/45/45
f 45/45/45 48/48/48 47/47/47
f 51/51/51 50/50/50 49/49/49
f 49/49/49 52/52/52 51/51/51
f 55/55/55 54/54/54 53/53/53
f 53/53/53 56/56/56 55/55/55
f 59/59/59 58/58/58 57/57/57
f 57/57/57 60/60/60 59/59/59
f 63/63/63 62/62/62 61/61/61
f 61/61/61 64/64/64 63/63/63
f 67/67/67 66/66/66 65/65/65
f 65/65/65 68/68/68 67/67/67
f 71/71/71 70/70/70 69/69/69
f 69/69/69 72/72/72 71/71/71
f 75/75/75 74/74/74 73/73/73
f 73/73/73 76/76/76 75/75/75
f 79/79/79 78/78/78 77/77/77
f 77/77/77 80/80/80 79/79/79
f 83/83/83 82/82/82 81/81/81
f 81/81/81 84/84/84 83/83/83
f 87/87/87 86/86/86 85/85/85
f 85/85/85 88/88/88 87/87/87
f 91/91/91 90/90/90 89/89/89
f 89/89/89 92/92/92 91/91/91
f 95/95/95 94/94/94 93/93/93
f 93/93/93 96/96/96 95/95/95
f 99/99/99 98/98/98 97/97/97
f 97/97/97 100/100/100 99/99/99
f 103/103/103 102/102/102 101/101/101
f 101/101/101 104/104/104 103/103/103
f 107/107/107 106/106/106 105/105/105
f 105/105/105 108/108/108 107/107/107
f 111/111/111 110/110/110 109/109/109
f 109/109/109 112/112/112 111/111/111
f 115/115/115 114/114/114 113/113/113
f 113/113/113 116/116/116 115/115/115
f 119/119/119 118/118/118 117/117/117
f 117/117/117 120/120/120 119/119/119
f 123/123/123 122/122/122 121/121/121
f 121/121/121 124/124/124 123/123/123
f 127/127/127 126/126/126 125/125/125
f 125/125/125 128/128/128 127/127/127
f 131/131/131 130/130/130 129/129/129
f 129/129/129 132/132/132 131/131/131
f 135/135/135 134/134/134 133/133/133
f 133/133/133 136/136/136 135/135/135
f 139/139/139 138/138/138 137/137/137
f 137/137/137 140/140/140 139/139/139
f 143/143/143 142/142/142 141/141/141
f 141/141/141 144/144/144 143/143/143
f 147/147/147 146/146/146 145/145/145
f 145/145/145 148/148/148 147/147/147
f 151/151/151 150/150/150 149/149/149
f 149/149/149 152/152/152 151/151/151
f 155/155/155 154/154/154 153/153/153
f 153/153/153 156/156/156 155/155/155
f 159/159/159 158/158/158 157/157/157
f 157/157/157 160/160/160 159/159/159
f 163/163/163 162/162/162 161/161/161
f 161/161/161 164/164/164 163/163/163
f 167/167/167 166/166/166 165/165/165
f 165/165/165 168/168/168 167/167/167
f 171/171/171 170/170/170 169/169/169
f 169/169/169 172/172/172 171/171/171
f 175/175/175 174/174/174 173/173/173
f 173/173/173 176/176/176 175/175/175
f 179/179/179 178/178/178 177/177/177
f 177/177/177 180/180/180 179/179/179
f 183/183/183 182/182/182 181/181/181
f 181/181/181 184/184/184 183/183/183
f 187/187/187 186/186/186 185/185/185
f 185/185/185 188/188/188 187/187/187
f 191/191/191 190/190/190 189/189/189
f 189/189/189 192/192/192 191/191/191
f 195/195/195 194/194/194 193/193/193
f 193/193/193 196/196/196 195/195/195
f 199/199/199 198/198/198 197/197/197
f 197/197/197 200/200/200 199/199/199
f 203/203/203 202/202/202 201/201/201
f 201/201/201 204/204/204 203/203/203
f 207/207/207 206/206/206 205/205/205
f 205/205/205 208/208/208 207/207/207
f 211/211/211 210/210/210 209/209/209
f 209/209/209 212/212/212 211/211/211
f 215/215/215 214/214/214 213/213/213
f 213/213/213 216/216/216 215/215/215
f 219/219/219 218/218/218 217/217/217
f 217/217/217 220/220/220 219/219/219
f 223/223/223 222/222/222 221/221/221
f 221/221/221 224/224/224 223/223/223
f 227/227/227 226/226/226 225/225/225
f 225/225/225 228/228/228 227/227/227
f 231/231/231 230/230/230 229/229/229
f 229/229/229 232/232/232 231/231/231
f 235/235/235 234/234/234 233/233/233
f 233/233/233 236/236/236 235/235/235
f 239/239/239 238/238/238 237/237/237
f 237/237/237 240/240/240 239/239/239
f 243/243/243 242/242/242 241/241/241
f 241/241/241 244/244/244 243/243/243
f 247/247/247 246/246/246 245/245/245
f 245/245/245 248/248/248 247/247/247
f 251/251/251 250/250/250 249/249/249
f 249/249/249 252/252/252 251/251/251
f 255/255/255 254/254/254 253/253/253
f 253/253/253 256/256/256 255/255/255
f 259/259/259 258/258/258 257/257/257
f 257/257/257 260/260/260 259/259/259
f 263/263/263 262/262/262 261/261/261
f 261/261/261 264/264/264 263/263/263
f 267/267/267 266/266/266 265/265/265
f 265/265/265 268/268/268 267/267/267
f 271/271/271 270/270/270 269/269/269
f 269/269/269 272/272/272 271/271/271
f 275/275/275 274/274/274 273/273/273
f 273/273/273 276/276/276 275/275/275
f 279/279/279 278/278/278 277/277/277
f 277/277/277 280/280/280 279/279/279
f 283/283/283 282/282/282 281/281/281
f 281/281/281 284/284/284 283/283/283
f 287/287/287 286/286/286 285/285/285
f 285/285/285 288/288/288 287/287/287
f 291/291/291 290/290/290 289/289/289
f 289/289/289 292/292/292 291/291/291
f 295/295/295 294/294/294 293/293/293
f 293/293/293 296/296/296 295/295/295
f 299/299/299 298/298/298 297/297/297
f 297/297/297 300/300/300 299/299/299
f 303/303/303 302/302/302 301/301/301
f 301/301/301 304/304/304 303/303/303
f 307/307/307 306/306/306 305/305/305
f 305/305/305 308/308/308 307/307/307
f 311/311/311 310/310/310 309/309/309
f 309/309/309 312/312/312 311/311/311
f 315/315/315 314/314/314 313/313/313
f 313/313/313 316/316/316 315/315/315
f 319/319/319 318/318/318 317/317/317
f 317/317/317 320/320/320 319/319/319
f 323/323/323 322/322/322 321/321/321
f 321/321/321 324/324/324 323/323/323
f 327/327/327 326/326/326 325/325/325
f 325/325/325 328/328/328 327/327/327
f 331/331/331 330/330/330 329/329/329
f 329/329/329 332/332/332 331/331/331
f 335/335/335 334/334/334 333/333/333
f 333/333/333 336/336/336 335/335/335
f 339/339/339 338/338/338 337/337/337
f 337/337/337 340/340/340 339/339/339
f 343/343/343 342/342/342 341/341/341
f 341/341/341 344/344/344 343/343/343
f 347/347/347 346/346/346 345/345/345
f 345/345/345 348/348/348 347/347/347
f 351/351/351 350/350/350 349/349/349
f 349/349/349 352/352/352 351/351/351
f 355/355/355 354/354/354 353/353/353
f 353/353/353 356/356/356 355/355/355
f 359/359/359 358/358/358 357/357/357
f 357/357/357 360/360/360 359/359/359
f 363/363/363 362/362/362 361/361/361
f 361/361/361 364/364/364 363/363/363
f 367/367/367 366/366/366 365/365/365
f 365/365/365 368/368/368 367/367/367
f 371/371/371 370/370/370 369/369/369
f 369/369/369 372/372/372 371/371/371
f 375/375/375 374/374/374 373/373/373
f 373/373/373 376/376/376 375/375/375
f 379/379/379 378/378/378 377/377/377
f 377/377/377 380/380/380 379/379/379
f 383/383/383 382/382/382 381/381/381
f 381/381/381 384/384/384 383/383/383
f 387/387/387 386/386/386 385/385/385
f 385/385/385 388/388/388 387/387/387
f 391/391/391 390/390/390 389/389/389
f 389/389/389 392/392/392 391/391/391
f 395/395/395 394/394/394 393/393/393
f 393/393/393 396/396/396 395/395/395
f 399/399/399 398/398/398 397/397/397
f 397/397/397 400/400/400 399/399/399
f 403/403/403 402/402/402 401/401/401
f 401/401/401 404/404/404 403/403/403
f 407/407/407 406/406/406 405/405/405
f 405/405/405 408/408/408 407/407/407
f 411/411/411 410/410/410 409/409/409
f 409/409/409 412/412/412 411/411/411
f 415/415/415 414/414/414 413/413/413
f 413/413/413 416/416/416 415/415/415
f 419/419/419 418/418/418 417/417/417
f 417/417/417 420/420/420 419/419/419
f 423/423/423 422/422/422 421/421/421
f 421/421/421 424/424/424 423/423/423
f 427/427/427 426/426/426 425/425/425
f 425/425/425 428/428/428 427/427/427
f 431/431/431 430/430/430 429/429/429
f 429/429/429 432/432/432 431/431/431
f 435/435/435 434/434/434 433/433/433
f 433/433/433 436/436/436 435/435/435
f 439/439/439 438/438/438 437/437/437
f 437/437/437 440/440/440 439/439/439
f 443/443/443 442/442/442 441/441/441
f 441/441/441 444/444/444 443/443/443
f 447/447/447 446/446/446 445/445/445
f 445/445/445 448/448/448 447/447/447
f 451/451/451 450/450/450 449/449/449
f 449/449/449 452/452/452 451/451/451
f 455/455/455 454/454/454 453/453/453
f 453/453/453 456/456/456 455/455/455
f 459/459/459 458/458/458 457/457/457
f 457/457/457 460/460/460 459/459/459
f 463/463/463 462/462/462 461/461/461
f 461/461/461 464/464/464 463/463/463
f 467/467/467 466/466/466 465/465/465
f 465/465/465 468/468/468 467/467/467
f 471/471/471 470/470/470 469/469/469
f 469/469/469 472/472/472 471/471/471
f 475/475/475 474/474/474 473/473/473
f 473/473/473 476/476/476 475/475/475
f 479/479/479 478/478/478 477/477/477
f 477/477/477 480/480/480 479/479/479
f 483/483/483 482/482/482 481/481/481
f 481/481/481 484/484/484 483/483/483
f 487/487/487 486/486/486 485/485/485
f 485/485/485 488/488/488 487/487/487
f 491/491/491 490/490/490 489/489/489
f 489/489/489 492/492/492 491/491/491
f 495/495/495 494/494/494 493/493/493
f 493/493/493 496/496/496 495/495/495
f 499/499/499 498/498/498 497/497/497
f 497/497/497 500/500/500 499/499/499
f 503/503/503 502/502/502 501/501/501
f 501/501/501 504/504/504 503/503/503
f 507/507/507 506/506/506 505/505/505
f 505/505/505 508/508/508 507/507/507
f 511/511/511 510/510/510 509/509/509
f 509/509/509 512/512/512 511/511/511
f 515/515/515 514/514/514 513/513/513
f 513/513/513 516/516/516 515/515/515
f 519/519/519 518/518/518 517/517/517
f 517/517/517 520/520/520 519/519/519
f 523/523/523 522/522/522 521/521/521
f 521/521/521 524/524/524 523/523/523
f 527/527/527 526/526/526 525/525/525
f 525/525/525 528/528/528 527/527/527
f 531/531/531 530/530/530 529/529/529
f 529/529/529 532/532/532 531/531/531
f 535/535/535 534/534/534 533/533/533
f 533/533/533 536/536/536 535/535/535
f 539/539/539 538/538/538 537/537/537
f 537/537/537 540/540/540 539/539/539
f 543/543/543 542/542/542 541/541/541
f 541/541/541 544/544/544 543/543/543
f 547/547/547 546/546/546 545/545/545
f 545/545/545 548/548/548 547/547/547
f 551/551/551 550/550/550 549/549/549
f 549/549/549 552/552/552 551/551/551
f 555/555/555 554/554/554 553/553/553
f 553/553/553 556/556/556 555/555/555
f 559/559/559 558/558/558 557/557/557
f 557/557/557 560/560/560 559/559/559
f 563/563/563 562/562/562 561/561/561
f 561/561/561 564/564/564 563/563/563
f 567/567/567 566/566/566 565/565/565
f 565/565/565 568/568/568 567/567/567
f 571/571/571 570/570/570 569/569/569
f 569/569/569 572/572/572 571/571/571
f 575/575/575 574/574/574 573/573/573
f 573/573/573 576/576/576 575/575/575
f 579/579/579 578/578/578 577/577/577
f 577/577/577 580/580/580 579/579/579
f 583/583/583 582/582/582 581/581/581
f 581/581/581 584/584/584 583/583/583
f 587/587/587 586/586/586 585/585/585
f 585/585/585 588/588/588 587/587/587
f 591/591/591 590/590/590 589/589/589
f 589/589/589 592/592/592 591/591/591
f 595/595/595 594/594/594 593/593/593
f 593/593/593 596/596/596 595/595/595
f 599/599/599 598/598/598 597/597/597
f 597/597/597 600/600/600 599/599/599
f 603/603/603 602/602/602 601/601/601
f 601/601/601 604/604/604 603/603/603
f 607/607/607 606/606/606 605/605/605
f 605/605/605 608/608/608 607/607/607
f 611/611/611 610/610/610 609/609/609
f 609/609/609 612/612/612 611/611/611
f 615/615/615 614/614/614 613/613/613
f 613/613/613 616/616/616 615/615/615
f 619/619/619 618/618/618 617/617/617
f 617/617/617 620/620/620 619/619/619
f 623/623/623 622/622/622 621/621/621
f 621/621/621 624/624/624 623/623/623
f 627/627/627 626/626/626 625/625/625
f 625/625/625 628/628/628 627/627/627
f 631/631/631 630/630/630 629/629/629
f 629/629/629 632/632/632 631/631/631
f 635/635/635 634/634/634 633/633/633
f 633/633/633 636/636/636 635/635/635
f 639/639/639 638/638/638 637/637/637
f 637/637/637 640/640/640 639/639/639
f 643/643/643 642/642/642 641/641/641
f 641/641/641 644/644/644 643/643/643
f 647/647/647 646/646/646 645/645/645
f 645/645/645 648/648/648 647/647/647
f 651/651/651 650/650/650 649/649/649
f 649/649/649 652/652/652 651/651/651
f 655/655/655 654/654/654 653/653/653
f 653/653/653 656/656/656 655/655/655
f 659/659/659 658/658/658 657/657/657
f 657/657/657 660/660/660 659/659/659
f 663/663/663 662/662/662 661/661/661
f 661/661/661 664/664/664 663/663/663
f 667/667/667 666/666/666 665/665/665
f 665/665/665 668/668/668 667/667/667
f 671/671/671 670/670/670 669/669/669
f 669/669/669 672/672/672 671/671/671
f 675/675/675 674/674/674 673/673/673
f 673/673/673 676/676/676 675/675/675
f 679/679/679 678/678/678 677/677/677
f 677/677/677 680/680/680 679/679/679
f 683/683/683 682/682/682 681/681/681
f 681/681/681 684/684/684 683/683/683
f 687/687/687 686/686/686 685/685/685
f 685/685/685 688/688/688 687/687/687
f 691/691/691 690/690/690 689/689/689
f 689/689/689 692/692/692 691/691/691
f 695/695/695 694/694/694 693/693/693
f 693/693/693 696/696/696 695/695/695
f 699/699/699 698/698/698 697/697/697
f 697/697/697 700/700/700 699/699/699
f 703/703/703 702/702/702 701/701/701
f 701/701/701 704/704/704 703/703/703
f 707/707/707 706/706/706 705/705/705
f 705/705/705 708/708/708 707/707/707
f 711/711/711 710/710/710 709/709/709
f 709/709/709 712/712/712 711/711/711
f 715/715/715 714/714/714 713/713/713
f 713/713/713 716/716/716 715/715/715
f 719/719/719 718/718/718 717/717/717
f 717/717/717 720/720/720 719/719/719
f 723/723/723 722/722/722 721/721/721
f 721/721/721 724/724/724 723/723/723
f 727/727/727 726/726/726 725/725/725
f 725/725/725 728/728/728 727/727/727
f 731/731/731 730/730/730 729/729/729
f 729/729/729 732/732/732 731/731/731
f 735/735/735 734/734/734 733/733/733
f 733/733/733 736/736/736 735/735/735
f 739/739/739 738/738/738 737/737/737
f 737/737/737 740/740/740 739/739/739
f 743/743/743 742/742/742 741/741/741
f 741/741/741 744/744/744 743/743/743
f 747/747/747 746/746/746 745/745/745
f 745/745/745 748/748/748 747/747/747
f 751/751/751 750/750/750 749/749/749
f 749/749/749 752/752/752 751/751/751
f 755/755/755 754/754/754 753/753/753
f 753/753/753 756/756/756 755/755/755
f 759/759/759 758/758/758 757/757/757
f 757/757/757 760/760/760 759/759/759
f 763/763/763 762/762/762 761/761/761
f 761/761/761 764/764/764 763/763/763
f 767/767/767 766/766/766 765/765/765
f 765/765/765 768/768/768 767/767/767
f 771/771/771 770/770/770 769/769/769
f 769/769/769 772/772/772 771/771/771
f 775/775/775 774/774/774 773/773/773
f 773/773/773 776/776/776 775/775/775
f 779/779/779 778/778/778 777/777/777
f 777/777/777 780/780/780 779/779/779
f 783/783/783 782/782/782 781/781/781
f 781/781/781 784/784/784 783/783/783
f 787/787/787 786/786/786 785/785/785
f 785/785/785 788/788/788 787/787/787
f 791/791/791 790/790/790 789/789/789
f 789/789/789 792/792/792 791/791/791
f 795/795/795 794/794/794 793/793/793
f 793/793/793 796/796/796 795/795/795
f 799/799/799 798/798/798 797/797/797
f 797/797/797 800/800/800 799/799/799
f 803/803/803 802/802/802 801/801/801
f 801/801/801 804/804/804 803/803/803
f 807/807/807 806/806/806 805/805/805
f 805/805/805 808/808/808 807/807/807
f 811/811/811 810/810/810 809/809/809
f 809/809/809 812/812/812 811/811/811
f 815/815/815 814/814/814 813/813/813
f 813/813/813 816/816/816 815/815/815
f 819/819/819 818/818/818 817/817/817
f 817/817/817 820/820/820 819/819/819
f 823/823/823 822/822/822 821/821/821
f 821/821/821 824/824/824 823/823/823
f 827/827/827 826/826/826 825/825/825
f 825/825/825 828/828/828 827/827/827
f 831/831/831 830/830/830 829/829/829
f 829/829/829 832/832/832 831/831/831
f 835/835/835 834/834/834 833/833/833
f 833/833/833 836/836/836 835/835/835
f 839/839/839 838/838/838 837/837/837
f 837/837/837 840/840/840 839/839/839
f 843/843/843 842/842/842 841/841/841
f 841/841/841 844/844/844 843/843/843
f 847/847/847 846/846/846 845/845/845
f 845/845/845 848/848/848 847/847/847
f 851/851/851 850/850/850 849/849/849
f 849/849/849 852/852/852 851/851/851
f 855/855/855 854/854/854 853/853/853
f 853/853/853 856/856/856 855/855/855
f 859/859/859 858/858/858 857/857/857
f 857/857/857 860/860/860 859/859/859
f 863/863/863 862/862/862 861/861/861
f 861/861/861 864/864/864 863/863/863
f 867/867/867 866/866/866 865/865/865
f 865/865/865 868/868/868 867/867/867
f 871/871/871 870/870/870 869/869/869
f 869/869/869 872/872/872 871/871/871
f 875/875/875 874/874/874 873/873/873
f 873/873/873 876/876/876 875/875/875
f 879/879/879 878/878/878 877/877/877
f 877/877/877 880/880/880 879/879/879
f 883/883/883 882/882/882 881/881/881
f 881/881/881 884/884/884 883/883/883
f 887/887/887 886/886/886 885/885/885
f 885/885/885 888/888/888 887/887/887
f 891/891/891 890/890/890 889/889/889
f 889/889/889 892/892/892 891/891/891
f 895/895/895 894/894/894 893/893/893
f 893/893/893 896/896/896 895/895/895
f 899/899/899 898/898/898 897/897/897
f 897/897/897 900/900/900 899/899/899
f 903/903/903 902/902/902 901/901/901
f 901/901/901 904/904/904 903/903/903
f 907/907/907 906/906/906 905/905/905
f 905/905/905 908/908/908 907/907/907
f 911/911/911 910/910/910 909/909/909
f 909/909/909 912/912/912 911/911/911
f 915/915/915 914/914/914 913/913/913
f 913/913/913 916/916/916 915/915/915
f 919/919/919 918/918/918 917/917/917
f 917/917/917 920/920/920 919/919/919
f 923/923/923 922/922/922 921/921/921
f 921/921/921 924/924/924 923/923/923
f 927/927/927 926/926/926 925/925/925
f 925/925/925 928/928/928 927/927/927
f 931/931/931 930/930/930 929/929/929
f 929/929/929 932/932/932 931/931/931
f 935/935/935 934/934/934 933/933/933
f 933/933/933 936/936/936 935/935/935
f 939/939/939 938/938/938 937/937/937
f 937/937/937 940/940/940 939/939/939
f 943/943/943 942/942/942 941/941/941
f 941/941/941 944/944/944 943/943/943
f 947/947/947 946/946/946 945/945/945
f 945/945/945 948/948/948 947/947/947
f 951/951/951 950/950/950 949/949/949
f 949/949/949 952/952/952 951/951/951
f 955/955/955 954/954/954 953/953/953
f 953/953/953 956/956/956 955/955/955
f 959/959/959 958/958/958 957/957/957
f 957/957/957 960/960/960 959/959/959
f 963/963/963 962/962/962 961/961/961
f 961/961/961 964/964/964 963/963/963
f 967/967/967 966/966/966 965/965/965
f 965/965/965 968/968/968 967/967/967
f 971/971/971 970/970/970 969/969/969
f 969/969/969 972/972/972 971/971/971
f 975/975/975 974/974/974 973/973/973
f 973/973/973 976/976/976 975/975/975
f 979/979/979 978/978/978 977/977/977
f 977/977/977 980/980/980 979/979/979
f 983/983/983 982/982/982 981/981/981
f 981/981/981 984/984/984 983/983/983
f 987/987/987 986/986/986 985/985/985
f 985/985/985 988/988/988 987/987/987
f 991/991/991 990/990/990 989/989/989
f 989/989/989 992/992/992 991/991/991
f 995/995/995 994/994/994 993/993/993
f 993/993/993 996/996/996 995/995/995
f 999/999/999 998/998/998 997/997/997
f 997/997/997 1000/1000/1000 999/999/999
f 1003/1003/1003 1002/1002/1002 1001/1001/1001
f 1001/1001/1001 1004/1004/1004 1003/1003/1003
f 1007/1007/1007 1006/1006/1006 1005/1005/1005
f 1005/1005/1005 1008/1008/1008 1007/1007/1007
f 1011/1011/1011 1010/1010/1010 1009/1009/1009
f 1009/1009/1009 1012/1012/1012 1011/1011/1011
f 1015/1015/1015 1014/1014/1014 1013/1013/1013
f 1013/1013/1013 1016/1016/1016 1015/1015/1015
f 1019/1019/1019 1018/1018/1018 1017/1017/1017
f 1017/1017/1017 1020/1020/1020 1019/1019/1019
f 1023/1023/1023 1022/1022/1022 1021/1021/1021
f 1021/1021/1021 1024/1024/1024 1023/1023/1023
f 1027/1027/1027 1026/1026/1026 1025/1025/1025
f 1025/1025/1025 1028/1028/1028 1027/1027/1027
f 1031/1031/1031 1030/1030/1030 1029/1029/1029
f 1029/1029/1029 1032/1032/1032 1031/1031/1031
f 1035/1035/1035 1034/1034/1034 1033/1033/1033
f 1033/1033/1033 1036/1036/1036 1035/1035/1035
f 1039/1039/1039 1038/1038/1038 1037/1037/1037
f 1037/1037/1037 1040/1040/1040 1039/1039/1039
f 1043/1043/1043 1042/1042/1042 1041/1041/1041
f 1041/1041/1041 1044/1044/1044 1043/1043/1043
