g guinu_2-mesh
v -480 499 0
v -480 947 0
v -832 947 0
v -832 499 0
v -480 83 0
v -480 499 0
v -832 499 0
v -832 83 0
v -832 19 0
v -832 531 0
v -1088 531 0
v -1088 19 0
v -192 179 0
v -192 499 0
v -480 499 0
v -480 179 0
v -320 947 0
v -320 1107 0
v -704 1107 0
v -704 947 0
v -896 563 0
v -896 755 0
v -1088 755 0
v -1088 563 0
v -128 691 0
v -128 819 0
v -416 819 0
v -416 691 0
v -256 819 0
v -256 947 0
v -480 947 0
v -480 819 0
v -256 499 0
v -256 627 0
v -416 627 0
v -416 499 0
v -96 243 0
v -96 403 0
v -192 403 0
v -192 243 0
v -1088 147 0
v -1088 275 0
v -1152 275 0
v -1152 147 0
v -352 115 0
v -352 179 0
v -480 179 0
v -480 115 0
v -64 819 0
v -64 883 0
v -192 883 0
v -192 819 0
v -64 627 0
v -64 691 0
v -192 691 0
v -192 627 0
v -416 659 0
v -416 787 0
v -480 787 0
v -480 659 0
v -576 1107 0
v -576 1171 0
v -672 1171 0
v -672 1107 0
v -192 115 0
v -192 179 0
v -288 179 0
v -288 115 0
v -1088 371 0
v -1088 467 0
v -1152 467 0
v -1152 371 0
v -128 467 0
v -128 563 0
v -192 563 0
v -192 467 0
v -704 947 0
v -704 1043 0
v -768 1043 0
v -768 947 0
v -256 947 0
v -256 1043 0
v -320 1043 0
v -320 947 0
v -1088 51 0
v -1088 147 0
v -1152 147 0
v -1152 51 0
v -288 1107 0
v -288 1171 0
v -384 1171 0
v -384 1107 0
v -960 883 0
v -960 979 0
v -1024 979 0
v -1024 883 0
v -416 563 0
v -416 659 0
v -480 659 0
v -480 563 0
v -192 627 0
v -192 691 0
v -288 691 0
v -288 627 0
v -672 51 0
v -672 83 0
v -832 83 0
v -832 51 0
v -864 723 0
v -864 883 0
v -896 883 0
v -896 723 0
v -512 51 0
v -512 83 0
v -672 83 0
v -672 51 0
v -864 595 0
v -864 723 0
v -896 723 0
v -896 595 0
v -64 691 0
v -64 755 0
v -128 755 0
v -128 691 0
v -0 659 0
v -0 723 0
v -64 723 0
v -64 659 0
v -1152 83 0
v -1152 147 0
v -1199 147 0
v -1199 83 0
v -960 819 0
v -960 883 0
v -1024 883 0
v -1024 819 0
v -384 1107 0
v -384 1171 0
v -448 1171 0
v -448 1107 0
v -352 627 0
v -352 691 0
v -416 691 0
v -416 627 0
v -832 595 0
v -832 691 0
v -864 691 0
v -864 595 0
v -1024 851 0
v -1024 947 0
v -1056 947 0
v -1056 851 0
v -1024 947 0
v -1024 1043 0
v -1056 1043 0
v -1056 947 0
v -832 819 0
v -832 915 0
v -864 915 0
v -864 819 0
v -1120 691 0
v -1120 787 0
v -1152 787 0
v -1152 691 0
v -992 787 0
v -992 819 0
v -1056 819 0
v -1056 787 0
v -896 755 0
v -896 819 0
v -928 819 0
v -928 755 0
v -64 787 0
v -64 819 0
v -128 819 0
v -128 787 0
v -224 819 0
v -224 883 0
v -256 883 0
v -256 819 0
v -128 947 0
v -128 1011 0
v -160 1011 0
v -160 947 0
v -768 947 0
v -768 1011 0
v -800 1011 0
v -800 947 0
v -1088 563 0
v -1088 627 0
v -1120 627 0
v -1120 563 0
v -544 19 0
v -544 51 0
v -608 51 0
v -608 19 0
v -768 19 0
v -768 51 0
v -832 51 0
v -832 19 0
v -800 0 0
v -800 19 0
v -864 19 0
v -864 0 0
v -1152 435 0
v -1152 499 0
v -1184 499 0
v -1184 435 0
v -128 403 0
v -128 435 0
v -192 435 0
v -192 403 0
v -416 83 0
v -416 115 0
v -480 115 0
v -480 83 0
v -800 979 0
v -800 1043 0
v -832 1043 0
v -832 979 0
v -1056 531 0
v -1056 563 0
v -1120 563 0
v -1120 531 0
v -1056 979 0
v -1056 1043 0
v -1088 1043 0
v -1088 979 0
v -992 531 0
v -992 563 0
v -1056 563 0
v -1056 531 0
v -832 755 0
v -832 819 0
v -864 819 0
v -864 755 0
v -832 531 0
v -832 595 0
v -864 595 0
v -864 531 0
v -928 947 0
v -928 1011 0
v -960 1011 0
v -960 947 0
v -224 531 0
v -224 595 0
v -256 595 0
v -256 531 0
v -1120 627 0
v -1120 691 0
v -1152 691 0
v -1152 627 0
v -160 179 0
v -160 243 0
v -192 243 0
v -192 179 0
v -1184 467 0
v -1184 499 0
v -1199 499 0
v -1199 467 0
v -192 499 0
v -192 531 0
v -224 531 0
v -224 499 0
v -416 499 0
v -416 531 0
v -448 531 0
v -448 499 0
v -1024 755 0
v -1024 787 0
v -1056 787 0
v -1056 755 0
v -1152 691 0
v -1152 723 0
v -1184 723 0
v -1184 691 0
v -320 627 0
v -320 659 0
v -352 659 0
v -352 627 0
v -288 659 0
v -288 691 0
v -320 691 0
v -320 659 0
v -1088 307 0
v -1088 339 0
v -1120 339 0
v -1120 307 0
v -992 0 0
v -992 19 0
v -1024 19 0
v -1024 0 0
v -1088 19 0
v -1088 51 0
v -1120 51 0
v -1120 19 0
v -1152 51 0
v -1152 83 0
v -1184 83 0
v -1184 51 0
v -448 51 0
v -448 83 0
v -480 83 0
v -480 51 0
v -128 211 0
v -128 243 0
v -160 243 0
v -160 211 0
v -1152 211 0
v -1152 243 0
v -1184 243 0
v -1184 211 0
v -320 147 0
v -320 179 0
v -352 179 0
v -352 147 0
v -448 787 0
v -448 819 0
v -480 819 0
v -480 787 0
v -448 1107 0
v -448 1139 0
v -480 1139 0
v -480 1107 0
v -544 1107 0
v -544 1139 0
v -576 1139 0
v -576 1107 0
v -672 1107 0
v -672 1139 0
v -704 1139 0
v -704 1107 0
v -160 147 0
v -160 179 0
v -192 179 0
v -192 147 0
v -1056 947 0
v -1056 979 0
v -1088 979 0
v -1088 947 0
v -928 915 0
v -928 947 0
v -960 947 0
v -960 915 0
v -224 499 0
v -224 531 0
v -256 531 0
v -256 499 0
v -928 1075 0
v -928 1107 0
v -960 1107 0
v -960 1075 0
v -96 883 0
v -96 915 0
v -128 915 0
v -128 883 0
v -32 819 0
v -32 851 0
v -64 851 0
v -64 819 0
v -192 819 0
v -192 851 0
v -224 851 0
v -224 819 0
v -992 979 0
v -992 1011 0
v -1024 1011 0
v -1024 979 0
v -288 1043 0
v -288 1075 0
v -320 1075 0
v -320 1043 0
v -704 1043 0
v -704 1075 0
v -736 1075 0
v -736 1043 0
v -896 979 0
v -896 1011 0
v -928 1011 0
v -928 979 0
vt 0.00048828125 0.00189393759
vt 0.00048828125 0.850378752
vt 0.172363281 0.850378752
vt 0.172363281 0.00189393759
vt 0.173339844 0.00189393759
vt 0.173339844 0.789772749
vt 0.345214844 0.789772749
vt 0.345214844 0.00189393759
vt 0.346191406 0.00189393759
vt 0.346191406 0.971590936
vt 0.471191406 0.971590936
vt 0.471191406 0.00189393759
vt 0.472167969 0.00189393759
vt 0.472167969 0.607954502
vt 0.612792969 0.607954502
vt 0.612792969 0.00189393759
vt 0.613769531 0.00189393759
vt 0.613769531 0.30492425
vt 0.801269531 0.30492425
vt 0.801269531 0.00189393759
vt 0.802246094 0.00189393759
vt 0.802246094 0.365530312
vt 0.895996094 0.365530312
vt 0.895996094 0.00189393759
vt 0.613769531 0.308712125
vt 0.613769531 0.551136374
vt 0.754394531 0.551136374
vt 0.754394531 0.308712125
vt 0.802246094 0.369318187
vt 0.802246094 0.611742437
vt 0.911621094 0.611742437
vt 0.911621094 0.369318187
vt 0.912597656 0.00189393759
vt 0.912597656 0.244318187
vt 0.990722656 0.244318187
vt 0.990722656 0.00189393759
vt 0.912597656 0.248106062
vt 0.912597656 0.551136374
vt 0.959472656 0.551136374
vt 0.959472656 0.248106062
vt 0.960449219 0.248106062
vt 0.960449219 0.490530312
vt 0.991699219 0.490530312
vt 0.991699219 0.248106062
vt 0.613769531 0.55492425
vt 0.613769531 0.676136374
vt 0.676269531 0.676136374
vt 0.676269531 0.55492425
vt 0.677246094 0.55492425
vt 0.677246094 0.676136374
vt 0.739746094 0.676136374
vt 0.739746094 0.55492425
vt 0.912597656 0.55492425
vt 0.912597656 0.676136374
vt 0.975097656 0.676136374
vt 0.975097656 0.55492425
vt 0.755371094 0.308712125
vt 0.755371094 0.551136374
vt 0.786621094 0.551136374
vt 0.786621094 0.308712125
vt 0.740722656 0.55492425
vt 0.740722656 0.676136374
vt 0.787597656 0.676136374
vt 0.787597656 0.55492425
vt 0.472167969 0.611742437
vt 0.472167969 0.732954502
vt 0.519042969 0.732954502
vt 0.519042969 0.611742437
vt 0.520019531 0.611742437
vt 0.520019531 0.793560624
vt 0.551269531 0.793560624
vt 0.551269531 0.611742437
vt 0.552246094 0.611742437
vt 0.552246094 0.793560624
vt 0.583496094 0.793560624
vt 0.583496094 0.611742437
vt 0.802246094 0.615530312
vt 0.802246094 0.797348499
vt 0.833496094 0.797348499
vt 0.833496094 0.615530312
vt 0.834472656 0.615530312
vt 0.834472656 0.797348499
vt 0.865722656 0.797348499
vt 0.865722656 0.615530312
vt 0.866699219 0.615530312
vt 0.866699219 0.797348499
vt 0.897949219 0.797348499
vt 0.897949219 0.615530312
vt 0.613769531 0.67992425
vt 0.613769531 0.801136374
vt 0.660644531 0.801136374
vt 0.660644531 0.67992425
vt 0.661621094 0.67992425
vt 0.661621094 0.861742437
vt 0.692871094 0.861742437
vt 0.692871094 0.67992425
vt 0.693847656 0.67992425
vt 0.693847656 0.861742437
vt 0.725097656 0.861742437
vt 0.725097656 0.67992425
vt 0.726074219 0.67992425
vt 0.726074219 0.801136374
vt 0.772949219 0.801136374
vt 0.772949219 0.67992425
vt 0.912597656 0.67992425
vt 0.912597656 0.740530312
vt 0.990722656 0.740530312
vt 0.990722656 0.67992425
vt 0.584472656 0.611742437
vt 0.584472656 0.914772749
vt 0.600097656 0.914772749
vt 0.600097656 0.611742437
vt 0.912597656 0.744318187
vt 0.912597656 0.80492425
vt 0.990722656 0.80492425
vt 0.990722656 0.744318187
vt 0.773925781 0.67992425
vt 0.773925781 0.922348499
vt 0.789550781 0.922348499
vt 0.789550781 0.67992425
vt 0.472167969 0.736742437
vt 0.472167969 0.857954562
vt 0.503417969 0.857954562
vt 0.503417969 0.736742437
vt 0.173339844 0.793560624
vt 0.173339844 0.914772749
vt 0.204589844 0.914772749
vt 0.204589844 0.793560624
vt 0.205566406 0.793560624
vt 0.205566406 0.914772749
vt 0.229003906 0.914772749
vt 0.229003906 0.793560624
vt 0.229980469 0.793560624
vt 0.229980469 0.914772749
vt 0.261230469 0.914772749
vt 0.261230469 0.793560624
vt 0.262207031 0.793560624
vt 0.262207031 0.914772749
vt 0.293457031 0.914772749
vt 0.293457031 0.793560624
vt 0.294433594 0.793560624
vt 0.294433594 0.914772749
vt 0.325683594 0.914772749
vt 0.325683594 0.793560624
vt 0.326660156 0.793560624
vt 0.326660156 0.975378811
vt 0.342285156 0.975378811
vt 0.342285156 0.793560624
vt 0.520019531 0.797348499
vt 0.520019531 0.979166687
vt 0.535644531 0.979166687
vt 0.535644531 0.797348499
vt 0.536621094 0.797348499
vt 0.536621094 0.979166687
vt 0.552246094 0.979166687
vt 0.552246094 0.797348499
vt 0.553222656 0.797348499
vt 0.553222656 0.979166687
vt 0.568847656 0.979166687
vt 0.568847656 0.797348499
vt 0.802246094 0.801136374
vt 0.802246094 0.982954562
vt 0.817871094 0.982954562
vt 0.817871094 0.801136374
vt 0.818847656 0.801136374
vt 0.818847656 0.861742437
vt 0.850097656 0.861742437
vt 0.850097656 0.801136374
vt 0.851074219 0.801136374
vt 0.851074219 0.922348499
vt 0.866699219 0.922348499
vt 0.866699219 0.801136374
vt 0.867675781 0.801136374
vt 0.867675781 0.861742437
vt 0.898925781 0.861742437
vt 0.898925781 0.801136374
vt 0.613769531 0.80492425
vt 0.613769531 0.926136374
vt 0.629394531 0.926136374
vt 0.629394531 0.80492425
vt 0.630371094 0.80492425
vt 0.630371094 0.926136374
vt 0.645996094 0.926136374
vt 0.645996094 0.80492425
vt 0.726074219 0.80492425
vt 0.726074219 0.926136374
vt 0.741699219 0.926136374
vt 0.741699219 0.80492425
vt 0.742675781 0.80492425
vt 0.742675781 0.926136374
vt 0.758300781 0.926136374
vt 0.758300781 0.80492425
vt 0.912597656 0.808712125
vt 0.912597656 0.869318187
vt 0.943847656 0.869318187
vt 0.943847656 0.808712125
vt 0.944824219 0.808712125
vt 0.944824219 0.869318187
vt 0.976074219 0.869318187
vt 0.976074219 0.808712125
vt 0.00048828125 0.854166687
vt 0.00048828125 0.892045438
vt 0.0317382812 0.892045438
vt 0.0317382812 0.854166687
vt 0.977050781 0.808712125
vt 0.977050781 0.92992425
vt 0.992675781 0.92992425
vt 0.992675781 0.808712125
vt 0.0327148438 0.854166687
vt 0.0327148438 0.914772749
vt 0.0639648438 0.914772749
vt 0.0639648438 0.854166687
vt 0.0649414062 0.854166687
vt 0.0649414062 0.914772749
vt 0.0961914062 0.914772749
vt 0.0961914062 0.854166687
vt 0.0971679688 0.854166687
vt 0.0971679688 0.975378811
vt 0.112792969 0.975378811
vt 0.112792969 0.854166687
vt 0.113769531 0.854166687
vt 0.113769531 0.914772749
vt 0.145019531 0.914772749
vt 0.145019531 0.854166687
vt 0.145996094 0.854166687
vt 0.145996094 0.975378811
vt 0.161621094 0.975378811
vt 0.161621094 0.854166687
vt 0.472167969 0.861742437
vt 0.472167969 0.922348499
vt 0.503417969 0.922348499
vt 0.503417969 0.861742437
vt 0.661621094 0.865530312
vt 0.661621094 0.986742437
vt 0.677246094 0.986742437
vt 0.677246094 0.865530312
vt 0.678222656 0.865530312
vt 0.678222656 0.986742437
vt 0.693847656 0.986742437
vt 0.693847656 0.865530312
vt 0.694824219 0.865530312
vt 0.694824219 0.986742437
vt 0.710449219 0.986742437
vt 0.710449219 0.865530312
vt 0.818847656 0.865530312
vt 0.818847656 0.986742437
vt 0.834472656 0.986742437
vt 0.834472656 0.865530312
vt 0.867675781 0.865530312
vt 0.867675781 0.986742437
vt 0.883300781 0.986742437
vt 0.883300781 0.865530312
vt 0.884277344 0.865530312
vt 0.884277344 0.986742437
vt 0.899902344 0.986742437
vt 0.899902344 0.865530312
vt 0.790527344 0.308712125
vt 0.790527344 0.369318187
vt 0.798339844 0.369318187
vt 0.798339844 0.308712125
vt 0.912597656 0.873106062
vt 0.912597656 0.933712125
vt 0.928222656 0.933712125
vt 0.928222656 0.873106062
vt 0.929199219 0.873106062
vt 0.929199219 0.933712125
vt 0.944824219 0.933712125
vt 0.944824219 0.873106062
vt 0.945800781 0.873106062
vt 0.945800781 0.933712125
vt 0.961425781 0.933712125
vt 0.961425781 0.873106062
vt 0.00048828125 0.895833313
vt 0.00048828125 0.956439376
vt 0.0161132812 0.956439376
vt 0.0161132812 0.895833313
vt 0.0327148438 0.918560624
vt 0.0327148438 0.979166687
vt 0.0483398438 0.979166687
vt 0.0483398438 0.918560624
vt 0.0493164062 0.918560624
vt 0.0493164062 0.979166687
vt 0.0649414062 0.979166687
vt 0.0649414062 0.918560624
vt 0.0659179688 0.918560624
vt 0.0659179688 0.979166687
vt 0.0815429688 0.979166687
vt 0.0815429688 0.918560624
vt 0.113769531 0.918560624
vt 0.113769531 0.956439376
vt 0.129394531 0.956439376
vt 0.129394531 0.918560624
vt 0.173339844 0.918560624
vt 0.173339844 0.979166687
vt 0.188964844 0.979166687
vt 0.188964844 0.918560624
vt 0.189941406 0.918560624
vt 0.189941406 0.979166687
vt 0.205566406 0.979166687
vt 0.205566406 0.918560624
vt 0.206542969 0.918560624
vt 0.206542969 0.979166687
vt 0.222167969 0.979166687
vt 0.222167969 0.918560624
vt 0.223144531 0.918560624
vt 0.223144531 0.979166687
vt 0.238769531 0.979166687
vt 0.238769531 0.918560624
vt 0.239746094 0.918560624
vt 0.239746094 0.979166687
vt 0.255371094 0.979166687
vt 0.255371094 0.918560624
vt 0.256347656 0.918560624
vt 0.256347656 0.979166687
vt 0.271972656 0.979166687
vt 0.271972656 0.918560624
vt 0.272949219 0.918560624
vt 0.272949219 0.979166687
vt 0.288574219 0.979166687
vt 0.288574219 0.918560624
vt 0.289550781 0.918560624
vt 0.289550781 0.979166687
vt 0.305175781 0.979166687
vt 0.305175781 0.918560624
vt 0.306152344 0.918560624
vt 0.306152344 0.979166687
vt 0.321777344 0.979166687
vt 0.321777344 0.918560624
vt 0.584472656 0.918560624
vt 0.584472656 0.979166687
vt 0.600097656 0.979166687
vt 0.600097656 0.918560624
vt 0.472167969 0.926136374
vt 0.472167969 0.986742437
vt 0.487792969 0.986742437
vt 0.487792969 0.926136374
vt 0.488769531 0.926136374
vt 0.488769531 0.986742437
vt 0.504394531 0.986742437
vt 0.504394531 0.926136374
vt 0.773925781 0.926136374
vt 0.773925781 0.986742437
vt 0.789550781 0.986742437
vt 0.789550781 0.926136374
vt 0.851074219 0.926136374
vt 0.851074219 0.986742437
vt 0.866699219 0.986742437
vt 0.866699219 0.926136374
vt 0.613769531 0.92992425
vt 0.613769531 0.990530312
vt 0.629394531 0.990530312
vt 0.629394531 0.92992425
vt 0.630371094 0.92992425
vt 0.630371094 0.990530312
vt 0.645996094 0.990530312
vt 0.645996094 0.92992425
vt 0.726074219 0.92992425
vt 0.726074219 0.990530312
vt 0.741699219 0.990530312
vt 0.741699219 0.92992425
vt 0.742675781 0.92992425
vt 0.742675781 0.990530312
vt 0.758300781 0.990530312
vt 0.758300781 0.92992425
vt 0.977050781 0.933712125
vt 0.977050781 0.994318187
vt 0.992675781 0.994318187
vt 0.992675781 0.933712125
vt 0.912597656 0.9375
vt 0.912597656 0.998106062
vt 0.928222656 0.998106062
vt 0.928222656 0.9375
vt 0.929199219 0.9375
vt 0.929199219 0.998106062
vt 0.944824219 0.998106062
vt 0.944824219 0.9375
vt 0.945800781 0.9375
vt 0.945800781 0.998106062
vt 0.961425781 0.998106062
vt 0.961425781 0.9375
g guinu_2-mesh_0
f 3/3/3 2/2/2 1/1/1
f 1/1/1 4/4/4 3/3/3
f 7/7/7 6/6/6 5/5/5
f 5/5/5 8/8/8 7/7/7
f 11/11/11 10/10/10 9/9/9
f 9/9/9 12/12/12 11/11/11
f 15/15/15 14/14/14 13/13/13
f 13/13/13 16/16/16 15/15/15
f 19/19/19 18/18/18 17/17/17
f 17/17/17 20/20/20 19/19/19
f 23/23/23 22/22/22 21/21/21
f 21/21/21 24/24/24 23/23/23
f 27/27/27 26/26/26 25/25/25
f 25/25/25 28/28/28 27/27/27
f 31/31/31 30/30/30 29/29/29
f 29/29/29 32/32/32 31/31/31
f 35/35/35 34/34/34 33/33/33
f 33/33/33 36/36/36 35/35/35
f 39/39/39 38/38/38 37/37/37
f 37/37/37 40/40/40 39/39/39
f 43/43/43 42/42/42 41/41/41
f 41/41/41 44/44/44 43/43/43
f 47/47/47 46/46/46 45/45/45
f 45/45/45 48/48/48 47/47/47
f 51/51/51 50/50/50 49/49/49
f 49/49/49 52/52/52 51/51/51
f 55/55/55 54/54/54 53/53/53
f 53/53/53 56/56/56 55/55/55
f 59/59/59 58/58/58 57/57/57
f 57/57/57 60/60/60 59/59/59
f 63/63/63 62/62/62 61/61/61
f 61/61/61 64/64/64 63/63/63
f 67/67/67 66/66/66 65/65/65
f 65/65/65 68/68/68 67/67/67
f 71/71/71 70/70/70 69/69/69
f 69/69/69 72/72/72 71/71/71
f 75/75/75 74/74/74 73/73/73
f 73/73/73 76/76/76 75/75/75
f 79/79/79 78/78/78 77/77/77
f 77/77/77 80/80/80 79/79/79
f 83/83/83 82/82/82 81/81/81
f 81/81/81 84/84/84 83/83/83
f 87/87/87 86/86/86 85/85/85
f 85/85/85 88/88/88 87/87/87
f 91/91/91 90/90/90 89/89/89
f 89/89/89 92/92/92 91/91/91
f 95/95/95 94/94/94 93/93/93
f 93/93/93 96/96/96 95/95/95
f 99/99/99 98/98/98 97/97/97
f 97/97/97 100/100/100 99/99/99
f 103/103/103 102/102/102 101/101/101
f 101/101/101 104/104/104 103/103/103
f 107/107/107 106/106/106 105/105/105
f 105/105/105 108/108/108 107/107/107
f 111/111/111 110/110/110 109/109/109
f 109/109/109 112/112/112 111/111/111
f 115/115/115 114/114/114 113/113/113
f 113/113/113 116/116/116 115/115/115
f 119/119/119 118/118/118 117/117/117
f 117/117/117 120/120/120 119/119/119
f 123/123/123 122/122/122 121/121/121
f 121/121/121 124/124/124 123/123/123
f 127/127/127 126/126/126 125/125/125
f 125/125/125 128/128/128 127/127/127
f 131/131/131 130/130/130 129/129/129
f 129/129/129 132/132/132 131/131/131
f 135/135/135 134/134/134 133/133/133
f 133/133/133 136/136/136 135/135/135
f 139/139/139 138/138/138 137/137/137
f 137/137/137 140/140/140 139/139/139
f 143/143/143 142/142/142 141/141/141
f 141/141/141 144/144/144 143/143/143
f 147/147/147 146/146/146 145/145/145
f 145/145/145 148/148/148 147/147/147
f 151/151/151 150/150/150 149/149/149
f 149/149/149 152/152/152 151/151/151
f 155/155/155 154/154/154 153/153/153
f 153/153/153 156/156/156 155/155/155
f 159/159/159 158/158/158 157/157/157
f 157/157/157 160/160/160 159/159/159
f 163/163/163 162/162/162 161/161/161
f 161/161/161 164/164/164 163/163/163
f 167/167/167 166/166/166 165/165/165
f 165/165/165 168/168/168 167/167/167
f 171/171/171 170/170/170 169/169/169
f 169/169/169 172/172/172 171/171/171
f 175/175/175 174/174/174 173/173/173
f 173/173/173 176/176/176 175/175/175
f 179/179/179 178/178/178 177/177/177
f 177/177/177 180/180/180 179/179/179
f 183/183/183 182/182/182 181/181/181
f 181/181/181 184/184/184 183/183/183
f 187/187/187 186/186/186 185/185/185
f 185/185/185 188/188/188 187/187/187
f 191/191/191 190/190/190 189/189/189
f 189/189/189 192/192/192 191/191/191
f 195/195/195 194/194/194 193/193/193
f 193/193/193 196/196/196 195/195/195
f 199/199/199 198/198/198 197/197/197
f 197/197/197 200/200/200 199/199/199
f 203/203/203 202/202/202 201/201/201
f 201/201/201 204/204/204 203/203/203
f 207/207/207 206/206/206 205/205/205
f 205/205/205 208/208/208 207/207/207
f 211/211/211 210/210/210 209/209/209
f 209/209/209 212/212/212 211/211/211
f 215/215/215 214/214/214 213/213/213
f 213/213/213 216/216/216 215/215/215
f 219/219/219 218/218/218 217/217/217
f 217/217/217 220/220/220 219/219/219
f 223/223/223 222/222/222 221/221/221
f 221/221/221 224/224/224 223/223/223
f 227/227/227 226/226/226 225/225/225
f 225/225/225 228/228/228 227/227/227
f 231/231/231 230/230/230 229/229/229
f 229/229/229 232/232/232 231/231/231
f 235/235/235 234/234/234 233/233/233
f 233/233/233 236/236/236 235/235/235
f 239/239/239 238/238/238 237/237/237
f 237/237/237 240/240/240 239/239/239
f 243/243/243 242/242/242 241/241/241
f 241/241/241 244/244/244 243/243/243
f 247/247/247 246/246/246 245/245/245
f 245/245/245 248/248/248 247/247/247
f 251/251/251 250/250/250 249/249/249
f 249/249/249 252/252/252 251/251/251
f 255/255/255 254/254/254 253/253/253
f 253/253/253 256/256/256 255/255/255
f 259/259/259 258/258/258 257/257/257
f 257/257/257 260/260/260 259/259/259
f 263/263/263 262/262/262 261/261/261
f 261/261/261 264/264/264 263/263/263
f 267/267/267 266/266/266 265/265/265
f 265/265/265 268/268/268 267/267/267
f 271/271/271 270/270/270 269/269/269
f 269/269/269 272/272/272 271/271/271
f 275/275/275 274/274/274 273/273/273
f 273/273/273 276/276/276 275/275/275
f 279/279/279 278/278/278 277/277/277
f 277/277/277 280/280/280 279/279/279
f 283/283/283 282/282/282 281/281/281
f 281/281/281 284/284/284 283/283/283
f 287/287/287 286/286/286 285/285/285
f 285/285/285 288/288/288 287/287/287
f 291/291/291 290/290/290 289/289/289
f 289/289/289 292/292/292 291/291/291
f 295/295/295 294/294/294 293/293/293
f 293/293/293 296/296/296 295/295/295
f 299/299/299 298/298/298 297/297/297
f 297/297/297 300/300/300 299/299/299
f 303/303/303 302/302/302 301/301/301
f 301/301/301 304/304/304 303/303/303
f 307/307/307 306/306/306 305/305/305
f 305/305/305 308/308/308 307/307/307
f 311/311/311 310/310/310 309/309/309
f 309/309/309 312/312/312 311/311/311
f 315/315/315 314/314/314 313/313/313
f 313/313/313 316/316/316 315/315/315
f 319/319/319 318/318/318 317/317/317
f 317/317/317 320/320/320 319/319/319
f 323/323/323 322/322/322 321/321/321
f 321/321/321 324/324/324 323/323/323
f 327/327/327 326/326/326 325/325/325
f 325/325/325 328/328/328 327/327/327
f 331/331/331 330/330/330 329/329/329
f 329/329/329 332/332/332 331/331/331
f 335/335/335 334/334/334 333/333/333
f 333/333/333 336/336/336 335/335/335
f 339/339/339 338/338/338 337/337/337
f 337/337/337 340/340/340 339/339/339
f 343/343/343 342/342/342 341/341/341
f 341/341/341 344/344/344 343/343/343
f 347/347/347 346/346/346 345/345/345
f 345/345/345 348/348/348 347/347/347
f 351/351/351 350/350/350 349/349/349
f 349/349/349 352/352/352 351/351/351
f 355/355/355 354/354/354 353/353/353
f 353/353/353 356/356/356 355/355/355
f 359/359/359 358/358/358 357/357/357
f 357/357/357 360/360/360 359/359/359
f 363/363/363 362/362/362 361/361/361
f 361/361/361 364/364/364 363/363/363
f 367/367/367 366/366/366 365/365/365
f 365/365/365 368/368/368 367/367/367
f 371/371/371 370/370/370 369/369/369
f 369/369/369 372/372/372 371/371/371
f 375/375/375 374/374/374 373/373/373
f 373/373/373 376/376/376 375/375/375
f 379/379/379 378/378/378 377/377/377
f 377/377/377 380/380/380 379/379/379
