g wushiling_3-mesh
v -288 479 0
v -288 927 0
v -1120 927 0
v -1120 479 0
v -288 63 0
v -288 479 0
v -1120 479 0
v -1120 63 0
v -320 927 0
v -320 1119 0
v -608 1119 0
v -608 927 0
v -544 1119 0
v -544 1311 0
v -800 1311 0
v -800 1119 0
v -608 927 0
v -608 1119 0
v -864 1119 0
v -864 927 0
v -160 319 0
v -160 607 0
v -288 607 0
v -288 319 0
v -1120 127 0
v -1120 383 0
v -1248 383 0
v -1248 127 0
v -160 63 0
v -160 319 0
v -288 319 0
v -288 63 0
v -1120 383 0
v -1120 639 0
v -1248 639 0
v -1248 383 0
v -32 191 0
v -32 383 0
v -160 383 0
v -160 191 0
v -1248 383 0
v -1248 511 0
v -1376 511 0
v -1376 383 0
v -448 0 0
v -448 63 0
v -672 63 0
v -672 0 0
v -928 927 0
v -928 1023 0
v -1056 1023 0
v -1056 927 0
v -672 0 0
v -672 63 0
v -864 63 0
v -864 0 0
v -640 1311 0
v -640 1375 0
v -768 1375 0
v -768 1311 0
v -800 1119 0
v -800 1247 0
v -864 1247 0
v -864 1119 0
v -320 1119 0
v -320 1183 0
v -416 1183 0
v -416 1119 0
v -96 95 0
v -96 191 0
v -160 191 0
v -160 95 0
v -256 799 0
v -256 959 0
v -288 959 0
v -288 799 0
v -1248 511 0
v -1248 575 0
v -1312 575 0
v -1312 511 0
v -256 671 0
v -256 799 0
v -288 799 0
v -288 671 0
v -96 31 0
v -96 95 0
v -160 95 0
v -160 31 0
v -960 31 0
v -960 63 0
v -1056 63 0
v -1056 31 0
v -864 1087 0
v -864 1183 0
v -896 1183 0
v -896 1087 0
v -1248 255 0
v -1248 351 0
v -1280 351 0
v -1280 255 0
v -1248 159 0
v -1248 255 0
v -1280 255 0
v -1280 159 0
v -864 31 0
v -864 63 0
v -960 63 0
v -960 31 0
v -352 31 0
v -352 63 0
v -416 63 0
v -416 31 0
v -576 1311 0
v -576 1343 0
v -640 1343 0
v -640 1311 0
v -1120 95 0
v -1120 127 0
v -1184 127 0
v -1184 95 0
v -1280 255 0
v -1280 319 0
v -1312 319 0
v -1312 255 0
v -64 63 0
v -64 127 0
v -96 127 0
v -96 63 0
v -416 1119 0
v -416 1151 0
v -480 1151 0
v -480 1119 0
v -224 863 0
v -224 927 0
v -256 927 0
v -256 863 0
v -1120 863 0
v -1120 927 0
v -1152 927 0
v -1152 863 0
v -1056 927 0
v -1056 991 0
v -1088 991 0
v -1088 927 0
v -928 1023 0
v -928 1055 0
v -992 1055 0
v -992 1023 0
v -896 927 0
v -896 991 0
v -928 991 0
v -928 927 0
v -864 1023 0
v -864 1087 0
v -896 1087 0
v -896 1023 0
v -128 543 0
v -128 607 0
v -160 607 0
v -160 543 0
v -1120 639 0
v -1120 671 0
v -1184 671 0
v -1184 639 0
v -0 255 0
v -0 319 0
v -32 319 0
v -32 255 0
v -0 191 0
v -0 255 0
v -32 255 0
v -32 191 0
v -288 1023 0
v -288 1087 0
v -320 1087 0
v -320 1023 0
v -1376 415 0
v -1376 479 0
v -1399 479 0
v -1399 415 0
v -128 1119 0
v -128 1151 0
v -160 1151 0
v -160 1119 0
v -1120 63 0
v -1120 95 0
v -1152 95 0
v -1152 63 0
v -864 927 0
v -864 959 0
v -896 959 0
v -896 927 0
v -1184 1055 0
v -1184 1087 0
v -1216 1087 0
v -1216 1055 0
v -64 159 0
v -64 191 0
v -96 191 0
v -96 159 0
v -128 383 0
v -128 415 0
v -160 415 0
v -160 383 0
v -1248 575 0
v -1248 607 0
v -1280 607 0
v -1280 575 0
v -288 927 0
v -288 959 0
v -320 959 0
v -320 927 0
v -800 1247 0
v -800 1279 0
v -832 1279 0
v -832 1247 0
v -128 511 0
v -128 543 0
v -160 543 0
v -160 511 0
v -1184 95 0
v -1184 127 0
v -1216 127 0
v -1216 95 0
v -1280 223 0
v -1280 255 0
v -1312 255 0
v -1312 223 0
v -64 31 0
v -64 63 0
v -96 63 0
v -96 31 0
v -288 991 0
v -288 1023 0
v -320 1023 0
v -320 991 0
v -1376 383 0
v -1376 415 0
v -1399 415 0
v -1399 383 0
v -416 31 0
v -416 63 0
v -448 63 0
v -448 31 0
v -1184 639 0
v -1184 671 0
v -1216 671 0
v -1216 639 0
vt 0.00048828125 0.00141245127
vt 0.00048828125 0.634180784
vt 0.406738281 0.634180784
vt 0.406738281 0.00141245127
vt 0.407714844 0.00141245127
vt 0.407714844 0.588983059
vt 0.813964844 0.588983059
vt 0.813964844 0.00141245127
vt 0.814941406 0.00141245127
vt 0.814941406 0.272598863
vt 0.955566406 0.272598863
vt 0.955566406 0.00141245127
vt 0.814941406 0.275423706
vt 0.814941406 0.546610177
vt 0.939941406 0.546610177
vt 0.939941406 0.275423706
vt 0.814941406 0.549435019
vt 0.814941406 0.82062149
vt 0.939941406 0.82062149
vt 0.939941406 0.549435019
vt 0.407714844 0.591807902
vt 0.407714844 0.998587549
vt 0.470214844 0.998587549
vt 0.470214844 0.591807902
vt 0.471191406 0.591807902
vt 0.471191406 0.953389823
vt 0.533691406 0.953389823
vt 0.533691406 0.591807902
vt 0.534667969 0.591807902
vt 0.534667969 0.953389823
vt 0.597167969 0.953389823
vt 0.597167969 0.591807902
vt 0.598144531 0.591807902
vt 0.598144531 0.953389823
vt 0.660644531 0.953389823
vt 0.660644531 0.591807902
vt 0.661621094 0.591807902
vt 0.661621094 0.862994313
vt 0.724121094 0.862994313
vt 0.724121094 0.591807902
vt 0.725097656 0.591807902
vt 0.725097656 0.772598863
vt 0.787597656 0.772598863
vt 0.787597656 0.591807902
vt 0.00048828125 0.637005687
vt 0.00048828125 0.727401137
vt 0.109863281 0.727401137
vt 0.109863281 0.637005687
vt 0.110839844 0.637005687
vt 0.110839844 0.772598863
vt 0.173339844 0.772598863
vt 0.173339844 0.637005687
vt 0.174316406 0.637005687
vt 0.174316406 0.727401137
vt 0.268066406 0.727401137
vt 0.268066406 0.637005687
vt 0.269042969 0.637005687
vt 0.269042969 0.727401137
vt 0.331542969 0.727401137
vt 0.331542969 0.637005687
vt 0.956542969 0.00141245127
vt 0.956542969 0.182203412
vt 0.987792969 0.182203412
vt 0.987792969 0.00141245127
vt 0.940917969 0.275423706
vt 0.940917969 0.365819216
vt 0.987792969 0.365819216
vt 0.987792969 0.275423706
vt 0.940917969 0.368644059
vt 0.940917969 0.504237294
vt 0.972167969 0.504237294
vt 0.972167969 0.368644059
vt 0.973144531 0.368644059
vt 0.973144531 0.594632745
vt 0.988769531 0.594632745
vt 0.988769531 0.368644059
vt 0.940917969 0.507062137
vt 0.940917969 0.597457647
vt 0.972167969 0.597457647
vt 0.972167969 0.507062137
vt 0.788574219 0.591807902
vt 0.788574219 0.772598863
vt 0.804199219 0.772598863
vt 0.804199219 0.591807902
vt 0.940917969 0.60028249
vt 0.940917969 0.690678
vt 0.972167969 0.690678
vt 0.972167969 0.60028249
vt 0.332519531 0.637005687
vt 0.332519531 0.682203412
vt 0.379394531 0.682203412
vt 0.379394531 0.637005687
vt 0.973144531 0.597457647
vt 0.973144531 0.733050823
vt 0.988769531 0.733050823
vt 0.988769531 0.597457647
vt 0.380371094 0.637005687
vt 0.380371094 0.772598863
vt 0.395996094 0.772598863
vt 0.395996094 0.637005687
vt 0.332519531 0.685028255
vt 0.332519531 0.82062149
vt 0.348144531 0.82062149
vt 0.348144531 0.685028255
vt 0.00048828125 0.73022598
vt 0.00048828125 0.775423765
vt 0.0473632812 0.775423765
vt 0.0473632812 0.73022598
vt 0.940917969 0.693502784
vt 0.940917969 0.738700569
vt 0.972167969 0.738700569
vt 0.972167969 0.693502784
vt 0.0483398438 0.73022598
vt 0.0483398438 0.775423765
vt 0.0795898438 0.775423765
vt 0.0795898438 0.73022598
vt 0.174316406 0.73022598
vt 0.174316406 0.775423765
vt 0.205566406 0.775423765
vt 0.205566406 0.73022598
vt 0.349121094 0.685028255
vt 0.349121094 0.775423765
vt 0.364746094 0.775423765
vt 0.364746094 0.685028255
vt 0.0805664062 0.73022598
vt 0.0805664062 0.82062149
vt 0.0961914062 0.82062149
vt 0.0961914062 0.73022598
vt 0.206542969 0.73022598
vt 0.206542969 0.775423765
vt 0.237792969 0.775423765
vt 0.237792969 0.73022598
vt 0.238769531 0.73022598
vt 0.238769531 0.82062149
vt 0.254394531 0.82062149
vt 0.254394531 0.73022598
vt 0.255371094 0.73022598
vt 0.255371094 0.82062149
vt 0.270996094 0.82062149
vt 0.270996094 0.73022598
vt 0.271972656 0.73022598
vt 0.271972656 0.82062149
vt 0.287597656 0.82062149
vt 0.287597656 0.73022598
vt 0.288574219 0.73022598
vt 0.288574219 0.775423765
vt 0.319824219 0.775423765
vt 0.319824219 0.73022598
vt 0.973144531 0.735875726
vt 0.973144531 0.826271176
vt 0.988769531 0.826271176
vt 0.988769531 0.735875726
vt 0.940917969 0.741525412
vt 0.940917969 0.831920922
vt 0.956542969 0.831920922
vt 0.956542969 0.741525412
vt 0.110839844 0.775423765
vt 0.110839844 0.865819216
vt 0.126464844 0.865819216
vt 0.126464844 0.775423765
vt 0.127441406 0.775423765
vt 0.127441406 0.82062149
vt 0.158691406 0.82062149
vt 0.158691406 0.775423765
vt 0.380371094 0.775423765
vt 0.380371094 0.865819216
vt 0.395996094 0.865819216
vt 0.395996094 0.775423765
vt 0.725097656 0.775423765
vt 0.725097656 0.865819216
vt 0.740722656 0.865819216
vt 0.740722656 0.775423765
vt 0.741699219 0.775423765
vt 0.741699219 0.865819216
vt 0.757324219 0.865819216
vt 0.757324219 0.775423765
vt 0.365722656 0.685028255
vt 0.365722656 0.775423765
vt 0.377441406 0.775423765
vt 0.377441406 0.685028255
vt 0.758300781 0.775423765
vt 0.758300781 0.82062149
vt 0.773925781 0.82062149
vt 0.773925781 0.775423765
vt 0.774902344 0.775423765
vt 0.774902344 0.82062149
vt 0.790527344 0.82062149
vt 0.790527344 0.775423765
vt 0.791503906 0.775423765
vt 0.791503906 0.82062149
vt 0.807128906 0.82062149
vt 0.807128906 0.775423765
vt 0.00048828125 0.778248608
vt 0.00048828125 0.823446333
vt 0.0161132812 0.823446333
vt 0.0161132812 0.778248608
vt 0.0170898438 0.778248608
vt 0.0170898438 0.823446333
vt 0.0327148438 0.823446333
vt 0.0327148438 0.778248608
vt 0.0336914062 0.778248608
vt 0.0336914062 0.823446333
vt 0.0493164062 0.823446333
vt 0.0493164062 0.778248608
vt 0.0502929688 0.778248608
vt 0.0502929688 0.823446333
vt 0.0659179688 0.823446333
vt 0.0659179688 0.778248608
vt 0.174316406 0.778248608
vt 0.174316406 0.823446333
vt 0.189941406 0.823446333
vt 0.189941406 0.778248608
vt 0.190917969 0.778248608
vt 0.190917969 0.823446333
vt 0.206542969 0.823446333
vt 0.206542969 0.778248608
vt 0.207519531 0.778248608
vt 0.207519531 0.823446333
vt 0.223144531 0.823446333
vt 0.223144531 0.778248608
vt 0.288574219 0.778248608
vt 0.288574219 0.823446333
vt 0.304199219 0.823446333
vt 0.304199219 0.778248608
vt 0.305175781 0.778248608
vt 0.305175781 0.823446333
vt 0.320800781 0.823446333
vt 0.320800781 0.778248608
vt 0.349121094 0.778248608
vt 0.349121094 0.823446333
vt 0.364746094 0.823446333
vt 0.364746094 0.778248608
vt 0.0805664062 0.823446333
vt 0.0805664062 0.868644059
vt 0.0961914062 0.868644059
vt 0.0961914062 0.823446333
vt 0.0971679688 0.73022598
vt 0.0971679688 0.775423765
vt 0.108886719 0.775423765
vt 0.108886719 0.73022598
vt 0.127441406 0.823446333
vt 0.127441406 0.868644059
vt 0.143066406 0.868644059
vt 0.143066406 0.823446333
vt 0.144042969 0.823446333
vt 0.144042969 0.868644059
vt 0.159667969 0.868644059
vt 0.159667969 0.823446333
g wushiling_3-mesh_0
f 3/3/3 2/2/2 1/1/1
f 1/1/1 4/4/4 3/3/3
f 7/7/7 6/6/6 5/5/5
f 5/5/5 8/8/8 7/7/7
f 11/11/11 10/10/10 9/9/9
f 9/9/9 12/12/12 11/11/11
f 15/15/15 14/14/14 13/13/13
f 13/13/13 16/16/16 15/15/15
f 19/19/19 18/18/18 17/17/17
f 17/17/17 20/20/20 19/19/19
f 23/23/23 22/22/22 21/21/21
f 21/21/21 24/24/24 23/23/23
f 27/27/27 26/26/26 25/25/25
f 25/25/25 28/28/28 27/27/27
f 31/31/31 30/30/30 29/29/29
f 29/29/29 32/32/32 31/31/31
f 35/35/35 34/34/34 33/33/33
f 33/33/33 36/36/36 35/35/35
f 39/39/39 38/38/38 37/37/37
f 37/37/37 40/40/40 39/39/39
f 43/43/43 42/42/42 41/41/41
f 41/41/41 44/44/44 43/43/43
f 47/47/47 46/46/46 45/45/45
f 45/45/45 48/48/48 47/47/47
f 51/51/51 50/50/50 49/49/49
f 49/49/49 52/52/52 51/51/51
f 55/55/55 54/54/54 53/53/53
f 53/53/53 56/56/56 55/55/55
f 59/59/59 58/58/58 57/57/57
f 57/57/57 60/60/60 59/59/59
f 63/63/63 62/62/62 61/61/61
f 61/61/61 64/64/64 63/63/63
f 67/67/67 66/66/66 65/65/65
f 65/65/65 68/68/68 67/67/67
f 71/71/71 70/70/70 69/69/69
f 69/69/69 72/72/72 71/71/71
f 75/75/75 74/74/74 73/73/73
f 73/73/73 76/76/76 75/75/75
f 79/79/79 78/78/78 77/77/77
f 77/77/77 80/80/80 79/79/79
f 83/83/83 82/82/82 81/81/81
f 81/81/81 84/84/84 83/83/83
f 87/87/87 86/86/86 85/85/85
f 85/85/85 88/88/88 87/87/87
f 91/91/91 90/90/90 89/89/89
f 89/89/89 92/92/92 91/91/91
f 95/95/95 94/94/94 93/93/93
f 93/93/93 96/96/96 95/95/95
f 99/99/99 98/98/98 97/97/97
f 97/97/97 100/100/100 99/99/99
f 103/103/103 102/102/102 101/101/101
f 101/101/101 104/104/104 103/103/103
f 107/107/107 106/106/106 105/105/105
f 105/105/105 108/108/108 107/107/107
f 111/111/111 110/110/110 109/109/109
f 109/109/109 112/112/112 111/111/111
f 115/115/115 114/114/114 113/113/113
f 113/113/113 116/116/116 115/115/115
f 119/119/119 118/118/118 117/117/117
f 117/117/117 120/120/120 119/119/119
f 123/123/123 122/122/122 121/121/121
f 121/121/121 124/124/124 123/123/123
f 127/127/127 126/126/126 125/125/125
f 125/125/125 128/128/128 127/127/127
f 131/131/131 130/130/130 129/129/129
f 129/129/129 132/132/132 131/131/131
f 135/135/135 134/134/134 133/133/133
f 133/133/133 136/136/136 135/135/135
f 139/139/139 138/138/138 137/137/137
f 137/137/137 140/140/140 139/139/139
f 143/143/143 142/142/142 141/141/141
f 141/141/141 144/144/144 143/143/143
f 147/147/147 146/146/146 145/145/145
f 145/145/145 148/148/148 147/147/147
f 151/151/151 150/150/150 149/149/149
f 149/149/149 152/152/152 151/151/151
f 155/155/155 154/154/154 153/153/153
f 153/153/153 156/156/156 155/155/155
f 159/159/159 158/158/158 157/157/157
f 157/157/157 160/160/160 159/159/159
f 163/163/163 162/162/162 161/161/161
f 161/161/161 164/164/164 163/163/163
f 167/167/167 166/166/166 165/165/165
f 165/165/165 168/168/168 167/167/167
f 171/171/171 170/170/170 169/169/169
f 169/169/169 172/172/172 171/171/171
f 175/175/175 174/174/174 173/173/173
f 173/173/173 176/176/176 175/175/175
f 179/179/179 178/178/178 177/177/177
f 177/177/177 180/180/180 179/179/179
f 183/183/183 182/182/182 181/181/181
f 181/181/181 184/184/184 183/183/183
f 187/187/187 186/186/186 185/185/185
f 185/185/185 188/188/188 187/187/187
f 191/191/191 190/190/190 189/189/189
f 189/189/189 192/192/192 191/191/191
f 195/195/195 194/194/194 193/193/193
f 193/193/193 196/196/196 195/195/195
f 199/199/199 198/198/198 197/197/197
f 197/197/197 200/200/200 199/199/199
f 203/203/203 202/202/202 201/201/201
f 201/201/201 204/204/204 203/203/203
f 207/207/207 206/206/206 205/205/205
f 205/205/205 208/208/208 207/207/207
f 211/211/211 210/210/210 209/209/209
f 209/209/209 212/212/212 211/211/211
f 215/215/215 214/214/214 213/213/213
f 213/213/213 216/216/216 215/215/215
f 219/219/219 218/218/218 217/217/217
f 217/217/217 220/220/220 219/219/219
f 223/223/223 222/222/222 221/221/221
f 221/221/221 224/224/224 223/223/223
f 227/227/227 226/226/226 225/225/225
f 225/225/225 228/228/228 227/227/227
f 231/231/231 230/230/230 229/229/229
f 229/229/229 232/232/232 231/231/231
f 235/235/235 234/234/234 233/233/233
f 233/233/233 236/236/236 235/235/235
f 239/239/239 238/238/238 237/237/237
f 237/237/237 240/240/240 239/239/239
f 243/243/243 242/242/242 241/241/241
f 241/241/241 244/244/244 243/243/243
f 247/247/247 246/246/246 245/245/245
f 245/245/245 248/248/248 247/247/247
