g jialimaoxian_2_rw-mesh
v -1312 497 0
v -1312 1137 0
v -1728 1137 0
v -1728 497 0
v -896 497 0
v -896 1137 0
v -1312 1137 0
v -1312 497 0
v -768 1137 0
v -768 1521 0
v -1152 1521 0
v -1152 1137 0
v -640 401 0
v -640 817 0
v -896 817 0
v -896 401 0
v -224 785 0
v -224 977 0
v -640 977 0
v -640 785 0
v -1728 1201 0
v -1728 1457 0
v -1888 1457 0
v -1888 1201 0
v -1152 1137 0
v -1152 1265 0
v -1408 1265 0
v -1408 1137 0
v -1408 1137 0
v -1408 1265 0
v -1664 1265 0
v -1664 1137 0
v -224 977 0
v -224 1137 0
v -384 1137 0
v -384 977 0
v -544 305 0
v -544 497 0
v -640 497 0
v -640 305 0
v -1152 1265 0
v -1152 1361 0
v -1344 1361 0
v -1344 1265 0
v -864 209 0
v -864 401 0
v -960 401 0
v -960 209 0
v -1568 305 0
v -1568 497 0
v -1664 497 0
v -1664 305 0
v -1728 689 0
v -1728 881 0
v -1824 881 0
v -1824 689 0
v -864 17 0
v -864 209 0
v -960 209 0
v -960 17 0
v -896 401 0
v -896 497 0
v -1056 497 0
v -1056 401 0
v -1408 401 0
v -1408 497 0
v -1568 497 0
v -1568 401 0
v -1728 529 0
v -1728 689 0
v -1824 689 0
v -1824 529 0
v -672 1041 0
v -672 1201 0
v -768 1201 0
v -768 1041 0
v -672 881 0
v -672 1041 0
v -768 1041 0
v -768 881 0
v -1568 145 0
v -1568 305 0
v -1664 305 0
v -1664 145 0
v -1920 1169 0
v -1920 1329 0
v -2016 1329 0
v -2016 1169 0
v -736 305 0
v -736 401 0
v -864 401 0
v -864 305 0
v -288 657 0
v -288 785 0
v -384 785 0
v -384 657 0
v -1920 1041 0
v -1920 1169 0
v -2016 1169 0
v -2016 1041 0
v -96 721 0
v -96 881 0
v -160 881 0
v -160 721 0
v -160 785 0
v -160 913 0
v -224 913 0
v -224 785 0
v -576 561 0
v -576 689 0
v -640 689 0
v -640 561 0
v -1536 1393 0
v -1536 1457 0
v -1664 1457 0
v -1664 1393 0
v -832 817 0
v -832 945 0
v -896 945 0
v -896 817 0
v -1792 1073 0
v -1792 1201 0
v -1856 1201 0
v -1856 1073 0
v -96 593 0
v -96 721 0
v -160 721 0
v -160 593 0
v -448 1041 0
v -448 1105 0
v -544 1105 0
v -544 1041 0
v -704 1201 0
v -704 1297 0
v -768 1297 0
v -768 1201 0
v -1152 1361 0
v -1152 1457 0
v -1216 1457 0
v -1216 1361 0
v -1664 1201 0
v -1664 1297 0
v -1728 1297 0
v -1728 1201 0
v -1504 305 0
v -1504 401 0
v -1568 401 0
v -1568 305 0
v -1664 401 0
v -1664 497 0
v -1728 497 0
v -1728 401 0
v -864 1521 0
v -864 1553 0
v -1056 1553 0
v -1056 1521 0
v -960 305 0
v -960 401 0
v -1024 401 0
v -1024 305 0
v -1056 1521 0
v -1056 1553 0
v -1216 1553 0
v -1216 1521 0
v -64 689 0
v -64 849 0
v -96 849 0
v -96 689 0
v -640 945 0
v -640 1105 0
v -672 1105 0
v -672 945 0
v -384 1073 0
v -384 1137 0
v -448 1137 0
v -448 1073 0
v -544 241 0
v -544 305 0
v -608 305 0
v -608 241 0
v -1728 465 0
v -1728 529 0
v -1792 529 0
v -1792 465 0
v -800 241 0
v -800 305 0
v -864 305 0
v -864 241 0
v -672 817 0
v -672 881 0
v -736 881 0
v -736 817 0
v -320 593 0
v -320 657 0
v -384 657 0
v -384 593 0
v -64 561 0
v -64 689 0
v -96 689 0
v -96 561 0
v -640 817 0
v -640 945 0
v -672 945 0
v -672 817 0
v -960 241 0
v -960 305 0
v -1024 305 0
v -1024 241 0
v -1024 273 0
v -1024 369 0
v -1056 369 0
v -1056 273 0
v -512 337 0
v -512 433 0
v -544 433 0
v -544 337 0
v -480 977 0
v -480 1009 0
v -576 1009 0
v -576 977 0
v -2016 1201 0
v -2016 1297 0
v -2047 1297 0
v -2047 1201 0
v -2016 1105 0
v -2016 1201 0
v -2047 1201 0
v -2047 1105 0
v -768 1041 0
v -768 1137 0
v -800 1137 0
v -800 1041 0
v -1888 1265 0
v -1888 1361 0
v -1920 1361 0
v -1920 1265 0
v -480 753 0
v -480 785 0
v -576 785 0
v -576 753 0
v -1824 657 0
v -1824 753 0
v -1856 753 0
v -1856 657 0
v -1824 753 0
v -1824 849 0
v -1856 849 0
v -1856 753 0
v -1312 465 0
v -1312 497 0
v -1408 497 0
v -1408 465 0
v -1216 465 0
v -1216 497 0
v -1312 497 0
v -1312 465 0
v -768 945 0
v -768 1041 0
v -800 1041 0
v -800 945 0
v -1632 1457 0
v -1632 1489 0
v -1728 1489 0
v -1728 1457 0
v -384 753 0
v -384 785 0
v -480 785 0
v -480 753 0
v -384 977 0
v -384 1009 0
v -448 1009 0
v -448 977 0
v -32 753 0
v -32 817 0
v -64 817 0
v -64 753 0
v -544 625 0
v -544 689 0
v -576 689 0
v -576 625 0
v -800 817 0
v -800 881 0
v -832 881 0
v -832 817 0
v -608 721 0
v -608 785 0
v -640 785 0
v -640 721 0
v -1920 1009 0
v -1920 1041 0
v -1984 1041 0
v -1984 1009 0
v -1696 1137 0
v -1696 1169 0
v -1760 1169 0
v -1760 1137 0
v -832 1073 0
v -832 1137 0
v -864 1137 0
v -864 1073 0
v -1408 1265 0
v -1408 1297 0
v -1472 1297 0
v -1472 1265 0
v -288 1137 0
v -288 1169 0
v -352 1169 0
v -352 1137 0
v -192 1009 0
v -192 1073 0
v -224 1073 0
v -224 1009 0
v -608 1009 0
v -608 1073 0
v -640 1073 0
v -640 1009 0
v -1760 1073 0
v -1760 1137 0
v -1792 1137 0
v -1792 1073 0
v -1728 1041 0
v -1728 1105 0
v -1760 1105 0
v -1760 1041 0
v -1536 241 0
v -1536 305 0
v -1568 305 0
v -1568 241 0
v -1056 305 0
v -1056 369 0
v -1088 369 0
v -1088 305 0
v -704 337 0
v -704 401 0
v -736 401 0
v -736 337 0
v -1056 209 0
v -1056 273 0
v -1088 273 0
v -1088 209 0
v -896 0 0
v -896 17 0
v -960 17 0
v -960 0 0
v -608 81 0
v -608 145 0
v -640 145 0
v -640 81 0
v -960 177 0
v -960 241 0
v -992 241 0
v -992 177 0
v -352 529 0
v -352 593 0
v -384 593 0
v -384 529 0
v -160 561 0
v -160 625 0
v -192 625 0
v -192 561 0
v -1856 625 0
v -1856 689 0
v -1888 689 0
v -1888 625 0
v -832 81 0
v -832 145 0
v -864 145 0
v -864 81 0
v -640 337 0
v -640 401 0
v -672 401 0
v -672 337 0
v -1280 433 0
v -1280 465 0
v -1344 465 0
v -1344 433 0
v -608 497 0
v -608 561 0
v -640 561 0
v -640 497 0
v -0 721 0
v -0 785 0
v -32 785 0
v -32 721 0
v -1728 881 0
v -1728 945 0
v -1760 945 0
v -1760 881 0
v -1728 945 0
v -1728 1009 0
v -1760 1009 0
v -1760 945 0
v -1888 1489 0
v -1888 1553 0
v -1920 1553 0
v -1920 1489 0
v -1056 1553 0
v -1056 1585 0
v -1120 1585 0
v -1120 1553 0
v -0 657 0
v -0 721 0
v -32 721 0
v -32 657 0
v -960 1553 0
v -960 1585 0
v -1024 1585 0
v -1024 1553 0
v -576 977 0
v -576 1009 0
v -640 1009 0
v -640 977 0
v -1888 1201 0
v -1888 1265 0
v -1920 1265 0
v -1920 1201 0
v -1728 1457 0
v -1728 1489 0
v -1792 1489 0
v -1792 1457 0
v -896 1553 0
v -896 1585 0
v -960 1585 0
v -960 1553 0
v -1024 209 0
v -1024 273 0
v -1056 273 0
v -1056 209 0
v -512 273 0
v -512 337 0
v -544 337 0
v -544 273 0
v -1696 1489 0
v -1696 1521 0
v -1760 1521 0
v -1760 1489 0
v -960 81 0
v -960 145 0
v -992 145 0
v -992 81 0
v -864 977 0
v -864 1041 0
v -896 1041 0
v -896 977 0
v -736 1297 0
v -736 1361 0
v -768 1361 0
v -768 1297 0
v -1216 1361 0
v -1216 1425 0
v -1248 1425 0
v -1248 1361 0
v -1664 1425 0
v -1664 1457 0
v -1728 1457 0
v -1728 1425 0
v -800 1073 0
v -800 1137 0
v -832 1137 0
v -832 1073 0
v -1344 1297 0
v -1344 1329 0
v -1408 1329 0
v -1408 1297 0
v -1920 1329 0
v -1920 1361 0
v -1984 1361 0
v -1984 1329 0
v -224 625 0
v -224 657 0
v -256 657 0
v -256 625 0
v -160 753 0
v -160 785 0
v -192 785 0
v -192 753 0
v -768 817 0
v -768 849 0
v -800 849 0
v -800 817 0
v -128 881 0
v -128 913 0
v -160 913 0
v -160 881 0
v -576 721 0
v -576 753 0
v -608 753 0
v -608 721 0
v -1888 1041 0
v -1888 1073 0
v -1920 1073 0
v -1920 1041 0
v -1888 1105 0
v -1888 1137 0
v -1920 1137 0
v -1920 1105 0
v -512 1009 0
v -512 1041 0
v -544 1041 0
v -544 1009 0
v -192 913 0
v -192 945 0
v -224 945 0
v -224 913 0
v -576 1009 0
v -576 1041 0
v -608 1041 0
v -608 1009 0
v -128 529 0
v -128 561 0
v -160 561 0
v -160 529 0
v -384 401 0
v -384 433 0
v -416 433 0
v -416 401 0
v -1728 433 0
v -1728 465 0
v -1760 465 0
v -1760 433 0
v -1472 369 0
v -1472 401 0
v -1504 401 0
v -1504 369 0
v -1088 177 0
v -1088 209 0
v -1120 209 0
v -1120 177 0
v -768 273 0
v -768 305 0
v -800 305 0
v -800 273 0
v -576 497 0
v -576 529 0
v -608 529 0
v -608 497 0
v -384 529 0
v -384 561 0
v -416 561 0
v -416 529 0
v -1056 465 0
v -1056 497 0
v -1088 497 0
v -1088 465 0
v -544 209 0
v -544 241 0
v -576 241 0
v -576 209 0
v -1376 433 0
v -1376 465 0
v -1408 465 0
v -1408 433 0
v -864 1105 0
v -864 1137 0
v -896 1137 0
v -896 1105 0
v -1184 1553 0
v -1184 1585 0
v -1216 1585 0
v -1216 1553 0
v -960 49 0
v -960 81 0
v -992 81 0
v -992 49 0
v -1856 1521 0
v -1856 1553 0
v -1888 1553 0
v -1888 1521 0
v -1152 1457 0
v -1152 1489 0
v -1184 1489 0
v -1184 1457 0
v -736 1457 0
v -736 1489 0
v -768 1489 0
v -768 1457 0
v -1888 1457 0
v -1888 1489 0
v -1920 1489 0
v -1920 1457 0
v -1120 1553 0
v -1120 1585 0
v -1152 1585 0
v -1152 1553 0
v -1408 1297 0
v -1408 1329 0
v -1440 1329 0
v -1440 1297 0
v -864 945 0
v -864 977 0
v -896 977 0
v -896 945 0
v -800 1041 0
v -800 1073 0
v -832 1073 0
v -832 1041 0
v -1856 1457 0
v -1856 1489 0
v -1888 1489 0
v -1888 1457 0
v -1344 1265 0
v -1344 1297 0
v -1376 1297 0
v -1376 1265 0
v -1696 1297 0
v -1696 1329 0
v -1728 1329 0
v -1728 1297 0
v -1632 1265 0
v -1632 1297 0
v -1664 1297 0
v -1664 1265 0
v -1760 1169 0
v -1760 1201 0
v -1792 1201 0
v -1792 1169 0
v -1664 1169 0
v -1664 1201 0
v -1696 1201 0
v -1696 1169 0
v -1376 1393 0
v -1376 1425 0
v -1408 1425 0
v -1408 1393 0
v -1920 1457 0
v -1920 1489 0
v -1952 1489 0
v -1952 1457 0
v -1696 1393 0
v -1696 1425 0
v -1728 1425 0
v -1728 1393 0
v -1568 1329 0
v -1568 1361 0
v -1600 1361 0
v -1600 1329 0
v -1248 1361 0
v -1248 1393 0
v -1280 1393 0
v -1280 1361 0
vt 0.00048828125 0.00110375881
vt 0.00048828125 0.707505524
vt 0.203613281 0.707505524
vt 0.203613281 0.00110375881
vt 0.204589844 0.00110375881
vt 0.204589844 0.707505524
vt 0.407714844 0.707505524
vt 0.407714844 0.00110375881
vt 0.408691406 0.00110375881
vt 0.408691406 0.424944818
vt 0.596191406 0.424944818
vt 0.596191406 0.00110375881
vt 0.597167969 0.00110375881
vt 0.597167969 0.460264921
vt 0.722167969 0.460264921
vt 0.722167969 0.00110375881
vt 0.723144531 0.00110375881
vt 0.723144531 0.213024259
vt 0.926269531 0.213024259
vt 0.926269531 0.00110375881
vt 0.723144531 0.215231776
vt 0.723144531 0.497792482
vt 0.801269531 0.497792482
vt 0.801269531 0.215231776
vt 0.802246094 0.215231776
vt 0.802246094 0.356512129
vt 0.927246094 0.356512129
vt 0.927246094 0.215231776
vt 0.802246094 0.358719647
vt 0.802246094 0.5
vt 0.927246094 0.5
vt 0.927246094 0.358719647
vt 0.408691406 0.427152336
vt 0.408691406 0.603752732
vt 0.486816406 0.603752732
vt 0.486816406 0.427152336
vt 0.928222656 0.00110375881
vt 0.928222656 0.213024259
vt 0.975097656 0.213024259
vt 0.975097656 0.00110375881
vt 0.487792969 0.427152336
vt 0.487792969 0.533112586
vt 0.581542969 0.533112586
vt 0.581542969 0.427152336
vt 0.928222656 0.215231776
vt 0.928222656 0.427152336
vt 0.975097656 0.427152336
vt 0.975097656 0.215231776
vt 0.928222656 0.429359794
vt 0.928222656 0.641280353
vt 0.975097656 0.641280353
vt 0.975097656 0.429359794
vt 0.597167969 0.462472379
vt 0.597167969 0.674392939
vt 0.644042969 0.674392939
vt 0.644042969 0.462472379
vt 0.645019531 0.462472379
vt 0.645019531 0.674392939
vt 0.691894531 0.674392939
vt 0.691894531 0.462472379
vt 0.723144531 0.5
vt 0.723144531 0.60596025
vt 0.801269531 0.60596025
vt 0.801269531 0.5
vt 0.802246094 0.502207518
vt 0.802246094 0.608167768
vt 0.880371094 0.608167768
vt 0.880371094 0.502207518
vt 0.487792969 0.535320103
vt 0.487792969 0.7119205
vt 0.534667969 0.7119205
vt 0.534667969 0.535320103
vt 0.535644531 0.535320103
vt 0.535644531 0.7119205
vt 0.582519531 0.7119205
vt 0.582519531 0.535320103
vt 0.408691406 0.60596025
vt 0.408691406 0.782560706
vt 0.455566406 0.782560706
vt 0.455566406 0.60596025
vt 0.723144531 0.608167768
vt 0.723144531 0.784768224
vt 0.770019531 0.784768224
vt 0.770019531 0.608167768
vt 0.802246094 0.610375285
vt 0.802246094 0.786975741
vt 0.849121094 0.786975741
vt 0.849121094 0.610375285
vt 0.850097656 0.610375285
vt 0.850097656 0.716335535
vt 0.912597656 0.716335535
vt 0.912597656 0.610375285
vt 0.928222656 0.643487871
vt 0.928222656 0.784768224
vt 0.975097656 0.784768224
vt 0.975097656 0.643487871
vt 0.597167969 0.676600456
vt 0.597167969 0.817880809
vt 0.644042969 0.817880809
vt 0.644042969 0.676600456
vt 0.645019531 0.676600456
vt 0.645019531 0.853200912
vt 0.676269531 0.853200912
vt 0.676269531 0.676600456
vt 0.677246094 0.676600456
vt 0.677246094 0.817880809
vt 0.708496094 0.817880809
vt 0.708496094 0.676600456
vt 0.00048828125 0.709712982
vt 0.00048828125 0.850993395
vt 0.0317382812 0.850993395
vt 0.0317382812 0.709712982
vt 0.0327148438 0.709712982
vt 0.0327148438 0.780353189
vt 0.0952148438 0.780353189
vt 0.0952148438 0.709712982
vt 0.0961914062 0.709712982
vt 0.0961914062 0.850993395
vt 0.127441406 0.850993395
vt 0.127441406 0.709712982
vt 0.128417969 0.709712982
vt 0.128417969 0.850993395
vt 0.159667969 0.850993395
vt 0.159667969 0.709712982
vt 0.160644531 0.709712982
vt 0.160644531 0.850993395
vt 0.191894531 0.850993395
vt 0.191894531 0.709712982
vt 0.192871094 0.709712982
vt 0.192871094 0.780353189
vt 0.239746094 0.780353189
vt 0.239746094 0.709712982
vt 0.240722656 0.709712982
vt 0.240722656 0.815673292
vt 0.271972656 0.815673292
vt 0.271972656 0.709712982
vt 0.272949219 0.709712982
vt 0.272949219 0.815673292
vt 0.304199219 0.815673292
vt 0.304199219 0.709712982
vt 0.305175781 0.709712982
vt 0.305175781 0.815673292
vt 0.336425781 0.815673292
vt 0.336425781 0.709712982
vt 0.337402344 0.709712982
vt 0.337402344 0.815673292
vt 0.368652344 0.815673292
vt 0.368652344 0.709712982
vt 0.369628906 0.709712982
vt 0.369628906 0.815673292
vt 0.400878906 0.815673292
vt 0.400878906 0.709712982
vt 0.487792969 0.714128017
vt 0.487792969 0.749448121
vt 0.581542969 0.749448121
vt 0.581542969 0.714128017
vt 0.850097656 0.718543053
vt 0.850097656 0.824503303
vt 0.881347656 0.824503303
vt 0.881347656 0.718543053
vt 0.487792969 0.751655638
vt 0.487792969 0.786975741
vt 0.565917969 0.786975741
vt 0.565917969 0.751655638
vt 0.976074219 0.00110375881
vt 0.976074219 0.177704215
vt 0.991699219 0.177704215
vt 0.991699219 0.00110375881
vt 0.976074219 0.179911673
vt 0.976074219 0.356512129
vt 0.991699219 0.356512129
vt 0.991699219 0.179911673
vt 0.882324219 0.718543053
vt 0.882324219 0.789183259
vt 0.913574219 0.789183259
vt 0.913574219 0.718543053
vt 0.0327148438 0.782560706
vt 0.0327148438 0.853200912
vt 0.0639648438 0.853200912
vt 0.0639648438 0.782560706
vt 0.192871094 0.782560706
vt 0.192871094 0.853200912
vt 0.224121094 0.853200912
vt 0.224121094 0.782560706
vt 0.408691406 0.784768224
vt 0.408691406 0.85540837
vt 0.439941406 0.85540837
vt 0.439941406 0.784768224
vt 0.440917969 0.784768224
vt 0.440917969 0.85540837
vt 0.472167969 0.85540837
vt 0.472167969 0.784768224
vt 0.723144531 0.786975741
vt 0.723144531 0.857615888
vt 0.754394531 0.857615888
vt 0.754394531 0.786975741
vt 0.976074219 0.358719647
vt 0.976074219 0.5
vt 0.991699219 0.5
vt 0.991699219 0.358719647
vt 0.976074219 0.502207518
vt 0.976074219 0.643487871
vt 0.991699219 0.643487871
vt 0.991699219 0.502207518
vt 0.755371094 0.786975741
vt 0.755371094 0.857615888
vt 0.786621094 0.857615888
vt 0.786621094 0.786975741
vt 0.976074219 0.645695329
vt 0.976074219 0.751655638
vt 0.991699219 0.751655638
vt 0.991699219 0.645695329
vt 0.566894531 0.751655638
vt 0.566894531 0.857615888
vt 0.582519531 0.857615888
vt 0.582519531 0.751655638
vt 0.928222656 0.786975741
vt 0.928222656 0.822295785
vt 0.975097656 0.822295785
vt 0.975097656 0.786975741
vt 0.976074219 0.753863156
vt 0.976074219 0.859823406
vt 0.991699219 0.859823406
vt 0.991699219 0.753863156
vt 0.0649414062 0.782560706
vt 0.0649414062 0.888520956
vt 0.0805664062 0.888520956
vt 0.0805664062 0.782560706
vt 0.487792969 0.789183259
vt 0.487792969 0.895143509
vt 0.503417969 0.895143509
vt 0.503417969 0.789183259
vt 0.504394531 0.789183259
vt 0.504394531 0.895143509
vt 0.520019531 0.895143509
vt 0.520019531 0.789183259
vt 0.802246094 0.789183259
vt 0.802246094 0.824503303
vt 0.849121094 0.824503303
vt 0.849121094 0.789183259
vt 0.520996094 0.789183259
vt 0.520996094 0.895143509
vt 0.536621094 0.895143509
vt 0.536621094 0.789183259
vt 0.537597656 0.789183259
vt 0.537597656 0.895143509
vt 0.553222656 0.895143509
vt 0.553222656 0.789183259
vt 0.240722656 0.817880809
vt 0.240722656 0.853200912
vt 0.287597656 0.853200912
vt 0.287597656 0.817880809
vt 0.288574219 0.817880809
vt 0.288574219 0.853200912
vt 0.335449219 0.853200912
vt 0.335449219 0.817880809
vt 0.882324219 0.791390717
vt 0.882324219 0.897351027
vt 0.897949219 0.897351027
vt 0.897949219 0.791390717
vt 0.336425781 0.817880809
vt 0.336425781 0.853200912
vt 0.383300781 0.853200912
vt 0.383300781 0.817880809
vt 0.597167969 0.820088267
vt 0.597167969 0.85540837
vt 0.644042969 0.85540837
vt 0.644042969 0.820088267
vt 0.677246094 0.820088267
vt 0.677246094 0.85540837
vt 0.708496094 0.85540837
vt 0.708496094 0.820088267
vt 0.898925781 0.791390717
vt 0.898925781 0.862030923
vt 0.914550781 0.862030923
vt 0.914550781 0.791390717
vt 0.384277344 0.817880809
vt 0.384277344 0.888520956
vt 0.399902344 0.888520956
vt 0.399902344 0.817880809
vt 0.928222656 0.824503303
vt 0.928222656 0.895143509
vt 0.943847656 0.895143509
vt 0.943847656 0.824503303
vt 0.944824219 0.824503303
vt 0.944824219 0.895143509
vt 0.960449219 0.895143509
vt 0.960449219 0.824503303
vt 0.802246094 0.82671082
vt 0.802246094 0.862030923
vt 0.833496094 0.862030923
vt 0.833496094 0.82671082
vt 0.834472656 0.82671082
vt 0.834472656 0.862030923
vt 0.865722656 0.862030923
vt 0.865722656 0.82671082
vt 0.00048828125 0.853200912
vt 0.00048828125 0.923841059
vt 0.0161132812 0.923841059
vt 0.0161132812 0.853200912
vt 0.0961914062 0.853200912
vt 0.0961914062 0.888520956
vt 0.127441406 0.888520956
vt 0.127441406 0.853200912
vt 0.128417969 0.853200912
vt 0.128417969 0.888520956
vt 0.159667969 0.888520956
vt 0.159667969 0.853200912
vt 0.160644531 0.853200912
vt 0.160644531 0.923841059
vt 0.176269531 0.923841059
vt 0.176269531 0.853200912
vt 0.0327148438 0.85540837
vt 0.0327148438 0.926048577
vt 0.0483398438 0.926048577
vt 0.0483398438 0.85540837
vt 0.192871094 0.85540837
vt 0.192871094 0.926048577
vt 0.208496094 0.926048577
vt 0.208496094 0.85540837
vt 0.209472656 0.85540837
vt 0.209472656 0.926048577
vt 0.225097656 0.926048577
vt 0.225097656 0.85540837
vt 0.240722656 0.85540837
vt 0.240722656 0.926048577
vt 0.256347656 0.926048577
vt 0.256347656 0.85540837
vt 0.257324219 0.85540837
vt 0.257324219 0.926048577
vt 0.272949219 0.926048577
vt 0.272949219 0.85540837
vt 0.273925781 0.85540837
vt 0.273925781 0.926048577
vt 0.289550781 0.926048577
vt 0.289550781 0.85540837
vt 0.290527344 0.85540837
vt 0.290527344 0.926048577
vt 0.306152344 0.926048577
vt 0.306152344 0.85540837
vt 0.307128906 0.85540837
vt 0.307128906 0.87527597
vt 0.338378906 0.87527597
vt 0.338378906 0.85540837
vt 0.339355469 0.85540837
vt 0.339355469 0.926048577
vt 0.354980469 0.926048577
vt 0.354980469 0.85540837
vt 0.355957031 0.85540837
vt 0.355957031 0.926048577
vt 0.371582031 0.926048577
vt 0.371582031 0.85540837
vt 0.645019531 0.85540837
vt 0.645019531 0.926048577
vt 0.660644531 0.926048577
vt 0.660644531 0.85540837
vt 0.408691406 0.857615888
vt 0.408691406 0.928256094
vt 0.424316406 0.928256094
vt 0.424316406 0.857615888
vt 0.425292969 0.857615888
vt 0.425292969 0.928256094
vt 0.440917969 0.928256094
vt 0.440917969 0.857615888
vt 0.441894531 0.857615888
vt 0.441894531 0.928256094
vt 0.457519531 0.928256094
vt 0.457519531 0.857615888
vt 0.458496094 0.857615888
vt 0.458496094 0.928256094
vt 0.474121094 0.928256094
vt 0.474121094 0.857615888
vt 0.597167969 0.857615888
vt 0.597167969 0.892935991
vt 0.628417969 0.892935991
vt 0.628417969 0.857615888
vt 0.677246094 0.857615888
vt 0.677246094 0.928256094
vt 0.692871094 0.928256094
vt 0.692871094 0.857615888
vt 0.693847656 0.857615888
vt 0.693847656 0.928256094
vt 0.709472656 0.928256094
vt 0.709472656 0.857615888
vt 0.566894531 0.859823406
vt 0.566894531 0.930463552
vt 0.582519531 0.930463552
vt 0.582519531 0.859823406
vt 0.723144531 0.859823406
vt 0.723144531 0.930463552
vt 0.738769531 0.930463552
vt 0.738769531 0.859823406
vt 0.739746094 0.859823406
vt 0.739746094 0.930463552
vt 0.755371094 0.930463552
vt 0.755371094 0.859823406
vt 0.756347656 0.859823406
vt 0.756347656 0.895143509
vt 0.787597656 0.895143509
vt 0.787597656 0.859823406
vt 0.976074219 0.862030923
vt 0.976074219 0.93267107
vt 0.991699219 0.93267107
vt 0.991699219 0.862030923
vt 0.802246094 0.864238381
vt 0.802246094 0.899558485
vt 0.833496094 0.899558485
vt 0.833496094 0.864238381
vt 0.834472656 0.864238381
vt 0.834472656 0.899558485
vt 0.865722656 0.899558485
vt 0.865722656 0.864238381
vt 0.898925781 0.864238381
vt 0.898925781 0.934878588
vt 0.914550781 0.934878588
vt 0.914550781 0.864238381
vt 0.307128906 0.877483428
vt 0.307128906 0.912803531
vt 0.338378906 0.912803531
vt 0.338378906 0.877483428
vt 0.0649414062 0.890728474
vt 0.0649414062 0.926048577
vt 0.0961914062 0.926048577
vt 0.0961914062 0.890728474
vt 0.0971679688 0.890728474
vt 0.0971679688 0.96136868
vt 0.112792969 0.96136868
vt 0.112792969 0.890728474
vt 0.113769531 0.890728474
vt 0.113769531 0.96136868
vt 0.129394531 0.96136868
vt 0.129394531 0.890728474
vt 0.597167969 0.895143509
vt 0.597167969 0.930463552
vt 0.628417969 0.930463552
vt 0.628417969 0.895143509
vt 0.130371094 0.890728474
vt 0.130371094 0.96136868
vt 0.145996094 0.96136868
vt 0.145996094 0.890728474
vt 0.384277344 0.890728474
vt 0.384277344 0.96136868
vt 0.399902344 0.96136868
vt 0.399902344 0.890728474
vt 0.487792969 0.897351027
vt 0.487792969 0.967991173
vt 0.503417969 0.967991173
vt 0.503417969 0.897351027
vt 0.504394531 0.897351027
vt 0.504394531 0.967991173
vt 0.520019531 0.967991173
vt 0.520019531 0.897351027
vt 0.520996094 0.897351027
vt 0.520996094 0.93267107
vt 0.552246094 0.93267107
vt 0.552246094 0.897351027
vt 0.756347656 0.897351027
vt 0.756347656 0.967991173
vt 0.771972656 0.967991173
vt 0.771972656 0.897351027
vt 0.928222656 0.897351027
vt 0.928222656 0.93267107
vt 0.959472656 0.93267107
vt 0.959472656 0.897351027
vt 0.802246094 0.901766002
vt 0.802246094 0.937086105
vt 0.833496094 0.937086105
vt 0.833496094 0.901766002
vt 0.772949219 0.897351027
vt 0.772949219 0.93267107
vt 0.788574219 0.93267107
vt 0.788574219 0.897351027
vt 0.882324219 0.899558485
vt 0.882324219 0.934878588
vt 0.897949219 0.934878588
vt 0.897949219 0.899558485
vt 0.834472656 0.901766002
vt 0.834472656 0.937086105
vt 0.850097656 0.937086105
vt 0.850097656 0.901766002
vt 0.851074219 0.901766002
vt 0.851074219 0.937086105
vt 0.866699219 0.937086105
vt 0.866699219 0.901766002
vt 0.307128906 0.915011048
vt 0.307128906 0.950331151
vt 0.322753906 0.950331151
vt 0.322753906 0.915011048
vt 0.00048828125 0.926048577
vt 0.00048828125 0.96136868
vt 0.0161132812 0.96136868
vt 0.0161132812 0.926048577
vt 0.160644531 0.926048577
vt 0.160644531 0.96136868
vt 0.176269531 0.96136868
vt 0.176269531 0.926048577
vt 0.0327148438 0.928256094
vt 0.0327148438 0.963576138
vt 0.0483398438 0.963576138
vt 0.0483398438 0.928256094
vt 0.0649414062 0.928256094
vt 0.0649414062 0.963576138
vt 0.0805664062 0.963576138
vt 0.0805664062 0.928256094
vt 0.192871094 0.928256094
vt 0.192871094 0.963576138
vt 0.208496094 0.963576138
vt 0.208496094 0.928256094
vt 0.209472656 0.928256094
vt 0.209472656 0.963576138
vt 0.225097656 0.963576138
vt 0.225097656 0.928256094
vt 0.240722656 0.928256094
vt 0.240722656 0.963576138
vt 0.256347656 0.963576138
vt 0.256347656 0.928256094
vt 0.257324219 0.928256094
vt 0.257324219 0.963576138
vt 0.272949219 0.963576138
vt 0.272949219 0.928256094
vt 0.273925781 0.928256094
vt 0.273925781 0.963576138
vt 0.289550781 0.963576138
vt 0.289550781 0.928256094
vt 0.290527344 0.928256094
vt 0.290527344 0.963576138
vt 0.306152344 0.963576138
vt 0.306152344 0.928256094
vt 0.339355469 0.928256094
vt 0.339355469 0.963576138
vt 0.354980469 0.963576138
vt 0.354980469 0.928256094
vt 0.355957031 0.928256094
vt 0.355957031 0.963576138
vt 0.371582031 0.963576138
vt 0.371582031 0.928256094
vt 0.645019531 0.928256094
vt 0.645019531 0.963576138
vt 0.660644531 0.963576138
vt 0.660644531 0.928256094
vt 0.408691406 0.930463552
vt 0.408691406 0.965783656
vt 0.424316406 0.965783656
vt 0.424316406 0.930463552
vt 0.425292969 0.930463552
vt 0.425292969 0.965783656
vt 0.440917969 0.965783656
vt 0.440917969 0.930463552
vt 0.441894531 0.930463552
vt 0.441894531 0.965783656
vt 0.457519531 0.965783656
vt 0.457519531 0.930463552
vt 0.458496094 0.930463552
vt 0.458496094 0.965783656
vt 0.474121094 0.965783656
vt 0.474121094 0.930463552
vt 0.677246094 0.930463552
vt 0.677246094 0.965783656
vt 0.692871094 0.965783656
vt 0.692871094 0.930463552
vt 0.693847656 0.930463552
vt 0.693847656 0.965783656
vt 0.709472656 0.965783656
vt 0.709472656 0.930463552
vt 0.566894531 0.93267107
vt 0.566894531 0.967991173
vt 0.582519531 0.967991173
vt 0.582519531 0.93267107
vt 0.597167969 0.93267107
vt 0.597167969 0.967991173
vt 0.612792969 0.967991173
vt 0.612792969 0.93267107
vt 0.613769531 0.93267107
vt 0.613769531 0.967991173
vt 0.629394531 0.967991173
vt 0.629394531 0.93267107
vt 0.723144531 0.93267107
vt 0.723144531 0.967991173
vt 0.738769531 0.967991173
vt 0.738769531 0.93267107
vt 0.739746094 0.93267107
vt 0.739746094 0.967991173
vt 0.755371094 0.967991173
vt 0.755371094 0.93267107
vt 0.520996094 0.934878588
vt 0.520996094 0.970198691
vt 0.536621094 0.970198691
vt 0.536621094 0.934878588
vt 0.537597656 0.934878588
vt 0.537597656 0.970198691
vt 0.553222656 0.970198691
vt 0.553222656 0.934878588
vt 0.772949219 0.934878588
vt 0.772949219 0.970198691
vt 0.788574219 0.970198691
vt 0.788574219 0.934878588
vt 0.928222656 0.934878588
vt 0.928222656 0.970198691
vt 0.943847656 0.970198691
vt 0.943847656 0.934878588
vt 0.944824219 0.934878588
vt 0.944824219 0.970198691
vt 0.960449219 0.970198691
vt 0.960449219 0.934878588
vt 0.976074219 0.934878588
vt 0.976074219 0.970198691
vt 0.991699219 0.970198691
vt 0.991699219 0.934878588
vt 0.882324219 0.937086105
vt 0.882324219 0.972406209
vt 0.897949219 0.972406209
vt 0.897949219 0.937086105
vt 0.898925781 0.937086105
vt 0.898925781 0.972406209
vt 0.914550781 0.972406209
vt 0.914550781 0.937086105
vt 0.802246094 0.939293623
vt 0.802246094 0.974613667
vt 0.817871094 0.974613667
vt 0.817871094 0.939293623
vt 0.818847656 0.939293623
vt 0.818847656 0.974613667
vt 0.834472656 0.974613667
vt 0.834472656 0.939293623
vt 0.835449219 0.939293623
vt 0.835449219 0.974613667
vt 0.851074219 0.974613667
vt 0.851074219 0.939293623
vt 0.852050781 0.939293623
vt 0.852050781 0.974613667
vt 0.867675781 0.974613667
vt 0.867675781 0.939293623
vt 0.307128906 0.95253861
vt 0.307128906 0.987858713
vt 0.322753906 0.987858713
vt 0.322753906 0.95253861
vt 0.00048828125 0.963576138
vt 0.00048828125 0.998896241
vt 0.0161132812 0.998896241
vt 0.0161132812 0.963576138
g jialimaoxian_2_rw-mesh_0
f 3/3/3 2/2/2 1/1/1
f 1/1/1 4/4/4 3/3/3
f 7/7/7 6/6/6 5/5/5
f 5/5/5 8/8/8 7/7/7
f 11/11/11 10/10/10 9/9/9
f 9/9/9 12/12/12 11/11/11
f 15/15/15 14/14/14 13/13/13
f 13/13/13 16/16/16 15/15/15
f 19/19/19 18/18/18 17/17/17
f 17/17/17 20/20/20 19/19/19
f 23/23/23 22/22/22 21/21/21
f 21/21/21 24/24/24 23/23/23
f 27/27/27 26/26/26 25/25/25
f 25/25/25 28/28/28 27/27/27
f 31/31/31 30/30/30 29/29/29
f 29/29/29 32/32/32 31/31/31
f 35/35/35 34/34/34 33/33/33
f 33/33/33 36/36/36 35/35/35
f 39/39/39 38/38/38 37/37/37
f 37/37/37 40/40/40 39/39/39
f 43/43/43 42/42/42 41/41/41
f 41/41/41 44/44/44 43/43/43
f 47/47/47 46/46/46 45/45/45
f 45/45/45 48/48/48 47/47/47
f 51/51/51 50/50/50 49/49/49
f 49/49/49 52/52/52 51/51/51
f 55/55/55 54/54/54 53/53/53
f 53/53/53 56/56/56 55/55/55
f 59/59/59 58/58/58 57/57/57
f 57/57/57 60/60/60 59/59/59
f 63/63/63 62/62/62 61/61/61
f 61/61/61 64/64/64 63/63/63
f 67/67/67 66/66/66 65/65/65
f 65/65/65 68/68/68 67/67/67
f 71/71/71 70/70/70 69/69/69
f 69/69/69 72/72/72 71/71/71
f 75/75/75 74/74/74 73/73/73
f 73/73/73 76/76/76 75/75/75
f 79/79/79 78/78/78 77/77/77
f 77/77/77 80/80/80 79/79/79
f 83/83/83 82/82/82 81/81/81
f 81/81/81 84/84/84 83/83/83
f 87/87/87 86/86/86 85/85/85
f 85/85/85 88/88/88 87/87/87
f 91/91/91 90/90/90 89/89/89
f 89/89/89 92/92/92 91/91/91
f 95/95/95 94/94/94 93/93/93
f 93/93/93 96/96/96 95/95/95
f 99/99/99 98/98/98 97/97/97
f 97/97/97 100/100/100 99/99/99
f 103/103/103 102/102/102 101/101/101
f 101/101/101 104/104/104 103/103/103
f 107/107/107 106/106/106 105/105/105
f 105/105/105 108/108/108 107/107/107
f 111/111/111 110/110/110 109/109/109
f 109/109/109 112/112/112 111/111/111
f 115/115/115 114/114/114 113/113/113
f 113/113/113 116/116/116 115/115/115
f 119/119/119 118/118/118 117/117/117
f 117/117/117 120/120/120 119/119/119
f 123/123/123 122/122/122 121/121/121
f 121/121/121 124/124/124 123/123/123
f 127/127/127 126/126/126 125/125/125
f 125/125/125 128/128/128 127/127/127
f 131/131/131 130/130/130 129/129/129
f 129/129/129 132/132/132 131/131/131
f 135/135/135 134/134/134 133/133/133
f 133/133/133 136/136/136 135/135/135
f 139/139/139 138/138/138 137/137/137
f 137/137/137 140/140/140 139/139/139
f 143/143/143 142/142/142 141/141/141
f 141/141/141 144/144/144 143/143/143
f 147/147/147 146/146/146 145/145/145
f 145/145/145 148/148/148 147/147/147
f 151/151/151 150/150/150 149/149/149
f 149/149/149 152/152/152 151/151/151
f 155/155/155 154/154/154 153/153/153
f 153/153/153 156/156/156 155/155/155
f 159/159/159 158/158/158 157/157/157
f 157/157/157 160/160/160 159/159/159
f 163/163/163 162/162/162 161/161/161
f 161/161/161 164/164/164 163/163/163
f 167/167/167 166/166/166 165/165/165
f 165/165/165 168/168/168 167/167/167
f 171/171/171 170/170/170 169/169/169
f 169/169/169 172/172/172 171/171/171
f 175/175/175 174/174/174 173/173/173
f 173/173/173 176/176/176 175/175/175
f 179/179/179 178/178/178 177/177/177
f 177/177/177 180/180/180 179/179/179
f 183/183/183 182/182/182 181/181/181
f 181/181/181 184/184/184 183/183/183
f 187/187/187 186/186/186 185/185/185
f 185/185/185 188/188/188 187/187/187
f 191/191/191 190/190/190 189/189/189
f 189/189/189 192/192/192 191/191/191
f 195/195/195 194/194/194 193/193/193
f 193/193/193 196/196/196 195/195/195
f 199/199/199 198/198/198 197/197/197
f 197/197/197 200/200/200 199/199/199
f 203/203/203 202/202/202 201/201/201
f 201/201/201 204/204/204 203/203/203
f 207/207/207 206/206/206 205/205/205
f 205/205/205 208/208/208 207/207/207
f 211/211/211 210/210/210 209/209/209
f 209/209/209 212/212/212 211/211/211
f 215/215/215 214/214/214 213/213/213
f 213/213/213 216/216/216 215/215/215
f 219/219/219 218/218/218 217/217/217
f 217/217/217 220/220/220 219/219/219
f 223/223/223 222/222/222 221/221/221
f 221/221/221 224/224/224 223/223/223
f 227/227/227 226/226/226 225/225/225
f 225/225/225 228/228/228 227/227/227
f 231/231/231 230/230/230 229/229/229
f 229/229/229 232/232/232 231/231/231
f 235/235/235 234/234/234 233/233/233
f 233/233/233 236/236/236 235/235/235
f 239/239/239 238/238/238 237/237/237
f 237/237/237 240/240/240 239/239/239
f 243/243/243 242/242/242 241/241/241
f 241/241/241 244/244/244 243/243/243
f 247/247/247 246/246/246 245/245/245
f 245/245/245 248/248/248 247/247/247
f 251/251/251 250/250/250 249/249/249
f 249/249/249 252/252/252 251/251/251
f 255/255/255 254/254/254 253/253/253
f 253/253/253 256/256/256 255/255/255
f 259/259/259 258/258/258 257/257/257
f 257/257/257 260/260/260 259/259/259
f 263/263/263 262/262/262 261/261/261
f 261/261/261 264/264/264 263/263/263
f 267/267/267 266/266/266 265/265/265
f 265/265/265 268/268/268 267/267/267
f 271/271/271 270/270/270 269/269/269
f 269/269/269 272/272/272 271/271/271
f 275/275/275 274/274/274 273/273/273
f 273/273/273 276/276/276 275/275/275
f 279/279/279 278/278/278 277/277/277
f 277/277/277 280/280/280 279/279/279
f 283/283/283 282/282/282 281/281/281
f 281/281/281 284/284/284 283/283/283
f 287/287/287 286/286/286 285/285/285
f 285/285/285 288/288/288 287/287/287
f 291/291/291 290/290/290 289/289/289
f 289/289/289 292/292/292 291/291/291
f 295/295/295 294/294/294 293/293/293
f 293/293/293 296/296/296 295/295/295
f 299/299/299 298/298/298 297/297/297
f 297/297/297 300/300/300 299/299/299
f 303/303/303 302/302/302 301/301/301
f 301/301/301 304/304/304 303/303/303
f 307/307/307 306/306/306 305/305/305
f 305/305/305 308/308/308 307/307/307
f 311/311/311 310/310/310 309/309/309
f 309/309/309 312/312/312 311/311/311
f 315/315/315 314/314/314 313/313/313
f 313/313/313 316/316/316 315/315/315
f 319/319/319 318/318/318 317/317/317
f 317/317/317 320/320/320 319/319/319
f 323/323/323 322/322/322 321/321/321
f 321/321/321 324/324/324 323/323/323
f 327/327/327 326/326/326 325/325/325
f 325/325/325 328/328/328 327/327/327
f 331/331/331 330/330/330 329/329/329
f 329/329/329 332/332/332 331/331/331
f 335/335/335 334/334/334 333/333/333
f 333/333/333 336/336/336 335/335/335
f 339/339/339 338/338/338 337/337/337
f 337/337/337 340/340/340 339/339/339
f 343/343/343 342/342/342 341/341/341
f 341/341/341 344/344/344 343/343/343
f 347/347/347 346/346/346 345/345/345
f 345/345/345 348/348/348 347/347/347
f 351/351/351 350/350/350 349/349/349
f 349/349/349 352/352/352 351/351/351
f 355/355/355 354/354/354 353/353/353
f 353/353/353 356/356/356 355/355/355
f 359/359/359 358/358/358 357/357/357
f 357/357/357 360/360/360 359/359/359
f 363/363/363 362/362/362 361/361/361
f 361/361/361 364/364/364 363/363/363
f 367/367/367 366/366/366 365/365/365
f 365/365/365 368/368/368 367/367/367
f 371/371/371 370/370/370 369/369/369
f 369/369/369 372/372/372 371/371/371
f 375/375/375 374/374/374 373/373/373
f 373/373/373 376/376/376 375/375/375
f 379/379/379 378/378/378 377/377/377
f 377/377/377 380/380/380 379/379/379
f 383/383/383 382/382/382 381/381/381
f 381/381/381 384/384/384 383/383/383
f 387/387/387 386/386/386 385/385/385
f 385/385/385 388/388/388 387/387/387
f 391/391/391 390/390/390 389/389/389
f 389/389/389 392/392/392 391/391/391
f 395/395/395 394/394/394 393/393/393
f 393/393/393 396/396/396 395/395/395
f 399/399/399 398/398/398 397/397/397
f 397/397/397 400/400/400 399/399/399
f 403/403/403 402/402/402 401/401/401
f 401/401/401 404/404/404 403/403/403
f 407/407/407 406/406/406 405/405/405
f 405/405/405 408/408/408 407/407/407
f 411/411/411 410/410/410 409/409/409
f 409/409/409 412/412/412 411/411/411
f 415/415/415 414/414/414 413/413/413
f 413/413/413 416/416/416 415/415/415
f 419/419/419 418/418/418 417/417/417
f 417/417/417 420/420/420 419/419/419
f 423/423/423 422/422/422 421/421/421
f 421/421/421 424/424/424 423/423/423
f 427/427/427 426/426/426 425/425/425
f 425/425/425 428/428/428 427/427/427
f 431/431/431 430/430/430 429/429/429
f 429/429/429 432/432/432 431/431/431
f 435/435/435 434/434/434 433/433/433
f 433/433/433 436/436/436 435/435/435
f 439/439/439 438/438/438 437/437/437
f 437/437/437 440/440/440 439/439/439
f 443/443/443 442/442/442 441/441/441
f 441/441/441 444/444/444 443/443/443
f 447/447/447 446/446/446 445/445/445
f 445/445/445 448/448/448 447/447/447
f 451/451/451 450/450/450 449/449/449
f 449/449/449 452/452/452 451/451/451
f 455/455/455 454/454/454 453/453/453
f 453/453/453 456/456/456 455/455/455
f 459/459/459 458/458/458 457/457/457
f 457/457/457 460/460/460 459/459/459
f 463/463/463 462/462/462 461/461/461
f 461/461/461 464/464/464 463/463/463
f 467/467/467 466/466/466 465/465/465
f 465/465/465 468/468/468 467/467/467
f 471/471/471 470/470/470 469/469/469
f 469/469/469 472/472/472 471/471/471
f 475/475/475 474/474/474 473/473/473
f 473/473/473 476/476/476 475/475/475
f 479/479/479 478/478/478 477/477/477
f 477/477/477 480/480/480 479/479/479
f 483/483/483 482/482/482 481/481/481
f 481/481/481 484/484/484 483/483/483
f 487/487/487 486/486/486 485/485/485
f 485/485/485 488/488/488 487/487/487
f 491/491/491 490/490/490 489/489/489
f 489/489/489 492/492/492 491/491/491
f 495/495/495 494/494/494 493/493/493
f 493/493/493 496/496/496 495/495/495
f 499/499/499 498/498/498 497/497/497
f 497/497/497 500/500/500 499/499/499
f 503/503/503 502/502/502 501/501/501
f 501/501/501 504/504/504 503/503/503
f 507/507/507 506/506/506 505/505/505
f 505/505/505 508/508/508 507/507/507
f 511/511/511 510/510/510 509/509/509
f 509/509/509 512/512/512 511/511/511
f 515/515/515 514/514/514 513/513/513
f 513/513/513 516/516/516 515/515/515
f 519/519/519 518/518/518 517/517/517
f 517/517/517 520/520/520 519/519/519
f 523/523/523 522/522/522 521/521/521
f 521/521/521 524/524/524 523/523/523
f 527/527/527 526/526/526 525/525/525
f 525/525/525 528/528/528 527/527/527
f 531/531/531 530/530/530 529/529/529
f 529/529/529 532/532/532 531/531/531
f 535/535/535 534/534/534 533/533/533
f 533/533/533 536/536/536 535/535/535
f 539/539/539 538/538/538 537/537/537
f 537/537/537 540/540/540 539/539/539
f 543/543/543 542/542/542 541/541/541
f 541/541/541 544/544/544 543/543/543
f 547/547/547 546/546/546 545/545/545
f 545/545/545 548/548/548 547/547/547
f 551/551/551 550/550/550 549/549/549
f 549/549/549 552/552/552 551/551/551
f 555/555/555 554/554/554 553/553/553
f 553/553/553 556/556/556 555/555/555
f 559/559/559 558/558/558 557/557/557
f 557/557/557 560/560/560 559/559/559
f 563/563/563 562/562/562 561/561/561
f 561/561/561 564/564/564 563/563/563
f 567/567/567 566/566/566 565/565/565
f 565/565/565 568/568/568 567/567/567
f 571/571/571 570/570/570 569/569/569
f 569/569/569 572/572/572 571/571/571
f 575/575/575 574/574/574 573/573/573
f 573/573/573 576/576/576 575/575/575
f 579/579/579 578/578/578 577/577/577
f 577/577/577 580/580/580 579/579/579
f 583/583/583 582/582/582 581/581/581
f 581/581/581 584/584/584 583/583/583
f 587/587/587 586/586/586 585/585/585
f 585/585/585 588/588/588 587/587/587
f 591/591/591 590/590/590 589/589/589
f 589/589/589 592/592/592 591/591/591
f 595/595/595 594/594/594 593/593/593
f 593/593/593 596/596/596 595/595/595
f 599/599/599 598/598/598 597/597/597
f 597/597/597 600/600/600 599/599/599
f 603/603/603 602/602/602 601/601/601
f 601/601/601 604/604/604 603/603/603
f 607/607/607 606/606/606 605/605/605
f 605/605/605 608/608/608 607/607/607
f 611/611/611 610/610/610 609/609/609
f 609/609/609 612/612/612 611/611/611
f 615/615/615 614/614/614 613/613/613
f 613/613/613 616/616/616 615/615/615
f 619/619/619 618/618/618 617/617/617
f 617/617/617 620/620/620 619/619/619
f 623/623/623 622/622/622 621/621/621
f 621/621/621 624/624/624 623/623/623
f 627/627/627 626/626/626 625/625/625
f 625/625/625 628/628/628 627/627/627
f 631/631/631 630/630/630 629/629/629
f 629/629/629 632/632/632 631/631/631
f 635/635/635 634/634/634 633/633/633
f 633/633/633 636/636/636 635/635/635
f 639/639/639 638/638/638 637/637/637
f 637/637/637 640/640/640 639/639/639
