g weiershiqinwang-mesh
v -288 746 0
v -288 1322 0
v -864 1322 0
v -864 746 0
v -864 746 0
v -864 1322 0
v -1408 1322 0
v -1408 746 0
v -736 1322 0
v -736 1578 0
v -1120 1578 0
v -1120 1322 0
v -384 1322 0
v -384 1546 0
v -672 1546 0
v -672 1322 0
v -1408 970 0
v -1408 1194 0
v -1696 1194 0
v -1696 970 0
v -480 554 0
v -480 746 0
v -800 746 0
v -800 554 0
v -96 586 0
v -96 810 0
v -288 810 0
v -288 586 0
v -960 362 0
v -960 746 0
v -1056 746 0
v -1056 362 0
v -960 10 0
v -960 362 0
v -1056 362 0
v -1056 10 0
v -1696 938 0
v -1696 1162 0
v -1824 1162 0
v -1824 938 0
v -288 650 0
v -288 746 0
v -480 746 0
v -480 650 0
v -192 810 0
v -192 938 0
v -288 938 0
v -288 810 0
v -1248 650 0
v -1248 746 0
v -1376 746 0
v -1376 650 0
v -0 554 0
v -0 682 0
v -96 682 0
v -96 554 0
v -1056 490 0
v -1056 618 0
v -1152 618 0
v -1152 490 0
v -1056 618 0
v -1056 746 0
v -1152 746 0
v -1152 618 0
v -1408 842 0
v -1408 970 0
v -1504 970 0
v -1504 842 0
v -1184 1322 0
v -1184 1418 0
v -1280 1418 0
v -1280 1322 0
v -800 1578 0
v -800 1706 0
v -864 1706 0
v -864 1578 0
v -672 1322 0
v -672 1418 0
v -736 1418 0
v -736 1322 0
v -320 1322 0
v -320 1418 0
v -384 1418 0
v -384 1322 0
v -1888 618 0
v -1888 682 0
v -1984 682 0
v -1984 618 0
v -1632 746 0
v -1632 810 0
v -1728 810 0
v -1728 746 0
v -1504 810 0
v -1504 874 0
v -1600 874 0
v -1600 810 0
v -1760 682 0
v -1760 746 0
v -1856 746 0
v -1856 682 0
v -608 490 0
v -608 554 0
v -704 554 0
v -704 490 0
v -928 1578 0
v -928 1642 0
v -1024 1642 0
v -1024 1578 0
v -928 586 0
v -928 746 0
v -960 746 0
v -960 586 0
v -704 490 0
v -704 554 0
v -768 554 0
v -768 490 0
v -288 586 0
v -288 650 0
v -352 650 0
v -352 586 0
v -1984 586 0
v -1984 650 0
v -2047 650 0
v -2047 586 0
v -1408 1194 0
v -1408 1258 0
v -1472 1258 0
v -1472 1194 0
v -1024 1578 0
v -1024 1642 0
v -1088 1642 0
v -1088 1578 0
v -1056 234 0
v -1056 362 0
v -1088 362 0
v -1088 234 0
v -1056 362 0
v -1056 490 0
v -1088 490 0
v -1088 362 0
v -416 1546 0
v -416 1578 0
v -544 1578 0
v -544 1546 0
v -1056 74 0
v -1056 202 0
v -1088 202 0
v -1088 74 0
v -928 458 0
v -928 586 0
v -960 586 0
v -960 458 0
v -1056 0 0
v -1056 74 0
v -1088 74 0
v -1088 0 0
v -928 106 0
v -928 202 0
v -960 202 0
v -960 106 0
v -544 1546 0
v -544 1578 0
v -640 1578 0
v -640 1546 0
v -1472 1194 0
v -1472 1226 0
v -1536 1226 0
v -1536 1194 0
v -1280 1322 0
v -1280 1386 0
v -1312 1386 0
v -1312 1322 0
v -160 810 0
v -160 874 0
v -192 874 0
v -192 810 0
v -1504 874 0
v -1504 938 0
v -1536 938 0
v -1536 874 0
v -1632 938 0
v -1632 970 0
v -1696 970 0
v -1696 938 0
v -480 1578 0
v -480 1610 0
v -544 1610 0
v -544 1578 0
v -1056 1642 0
v -1056 1706 0
v -1088 1706 0
v -1088 1642 0
v -768 1642 0
v -768 1706 0
v -800 1706 0
v -800 1642 0
v -576 1578 0
v -576 1610 0
v -640 1610 0
v -640 1578 0
v -1120 1322 0
v -1120 1386 0
v -1152 1386 0
v -1152 1322 0
v -288 1322 0
v -288 1386 0
v -320 1386 0
v -320 1322 0
v -352 1418 0
v -352 1482 0
v -384 1482 0
v -384 1418 0
v -1600 778 0
v -1600 842 0
v -1632 842 0
v -1632 778 0
v -192 554 0
v -192 586 0
v -256 586 0
v -256 554 0
v -96 554 0
v -96 586 0
v -160 586 0
v -160 554 0
v -1312 618 0
v -1312 650 0
v -1376 650 0
v -1376 618 0
v -992 0 0
v -992 10 0
v -1056 10 0
v -1056 0 0
v -1088 10 0
v -1088 74 0
v -1120 74 0
v -1120 10 0
v -544 522 0
v -544 554 0
v -608 554 0
v -608 522 0
v -832 682 0
v -832 746 0
v -864 746 0
v -864 682 0
v -64 682 0
v -64 746 0
v -96 746 0
v -96 682 0
v -1728 714 0
v -1728 778 0
v -1760 778 0
v -1760 714 0
v -416 618 0
v -416 650 0
v -480 650 0
v -480 618 0
v -1856 650 0
v -1856 714 0
v -1888 714 0
v -1888 650 0
v -1184 714 0
v -1184 746 0
v -1248 746 0
v -1248 714 0
v -896 618 0
v -896 682 0
v -928 682 0
v -928 618 0
v -896 682 0
v -896 746 0
v -928 746 0
v -928 682 0
v -1088 426 0
v -1088 490 0
v -1120 490 0
v -1120 426 0
v -704 1514 0
v -704 1578 0
v -736 1578 0
v -736 1514 0
v -1088 362 0
v -1088 426 0
v -1120 426 0
v -1120 362 0
v -800 618 0
v -800 682 0
v -832 682 0
v -832 618 0
v -1120 1418 0
v -1120 1482 0
v -1152 1482 0
v -1152 1418 0
v -928 42 0
v -928 106 0
v -960 106 0
v -960 42 0
v -1824 1098 0
v -1824 1162 0
v -1856 1162 0
v -1856 1098 0
v -800 682 0
v -800 746 0
v -832 746 0
v -832 682 0
v -1824 1034 0
v -1824 1098 0
v -1856 1098 0
v -1856 1034 0
v -256 1098 0
v -256 1162 0
v -288 1162 0
v -288 1098 0
v -1120 1482 0
v -1120 1546 0
v -1152 1546 0
v -1152 1482 0
v -1728 906 0
v -1728 938 0
v -1792 938 0
v -1792 906 0
v -640 458 0
v -640 490 0
v -704 490 0
v -704 458 0
v -1376 650 0
v -1376 714 0
v -1408 714 0
v -1408 650 0
v -1408 778 0
v -1408 842 0
v -1440 842 0
v -1440 778 0
v -256 970 0
v -256 1034 0
v -288 1034 0
v -288 970 0
v -1696 714 0
v -1696 746 0
v -1728 746 0
v -1728 714 0
v -32 682 0
v -32 714 0
v -64 714 0
v -64 682 0
v -1632 810 0
v -1632 842 0
v -1664 842 0
v -1664 810 0
v -1760 746 0
v -1760 778 0
v -1792 778 0
v -1792 746 0
v -1568 778 0
v -1568 810 0
v -1600 810 0
v -1600 778 0
v -1440 778 0
v -1440 810 0
v -1472 810 0
v -1472 778 0
v -864 714 0
v -864 746 0
v -896 746 0
v -896 714 0
v -448 586 0
v -448 618 0
v -480 618 0
v -480 586 0
v -1824 650 0
v -1824 682 0
v -1856 682 0
v -1856 650 0
v -1888 682 0
v -1888 714 0
v -1920 714 0
v -1920 682 0
v -1952 586 0
v -1952 618 0
v -1984 618 0
v -1984 586 0
v -1216 682 0
v -1216 714 0
v -1248 714 0
v -1248 682 0
v -736 426 0
v -736 458 0
v -768 458 0
v -768 426 0
v -768 522 0
v -768 554 0
v -800 554 0
v -800 522 0
v -128 810 0
v -128 842 0
v -160 842 0
v -160 810 0
v -256 1066 0
v -256 1098 0
v -288 1098 0
v -288 1066 0
v -704 1482 0
v -704 1514 0
v -736 1514 0
v -736 1482 0
v -704 458 0
v -704 490 0
v -736 490 0
v -736 458 0
v -256 938 0
v -256 970 0
v -288 970 0
v -288 938 0
v -1376 618 0
v -1376 650 0
v -1408 650 0
v -1408 618 0
v -1408 746 0
v -1408 778 0
v -1440 778 0
v -1440 746 0
v -1792 906 0
v -1792 938 0
v -1824 938 0
v -1824 906 0
v -1312 1322 0
v -1312 1354 0
v -1344 1354 0
v -1344 1322 0
v -1408 1258 0
v -1408 1290 0
v -1440 1290 0
v -1440 1258 0
v -224 938 0
v -224 970 0
v -256 970 0
v -256 938 0
v -1152 1322 0
v -1152 1354 0
v -1184 1354 0
v -1184 1322 0
v -768 1578 0
v -768 1610 0
v -800 1610 0
v -800 1578 0
v -896 1578 0
v -896 1610 0
v -928 1610 0
v -928 1578 0
v -1088 1578 0
v -1088 1610 0
v -1120 1610 0
v -1120 1578 0
vt 0.00048828125 0.00132101774
vt 0.00048828125 0.76221931
vt 0.281738281 0.76221931
vt 0.281738281 0.00132101774
vt 0.282714844 0.00132101774
vt 0.282714844 0.76221931
vt 0.548339844 0.76221931
vt 0.548339844 0.00132101774
vt 0.549316406 0.00132101774
vt 0.549316406 0.339498043
vt 0.736816406 0.339498043
vt 0.736816406 0.00132101774
vt 0.737792969 0.00132101774
vt 0.737792969 0.297225893
vt 0.878417969 0.297225893
vt 0.878417969 0.00132101774
vt 0.737792969 0.299867928
vt 0.737792969 0.595772743
vt 0.878417969 0.595772743
vt 0.878417969 0.299867928
vt 0.549316406 0.342140019
vt 0.549316406 0.595772743
vt 0.705566406 0.595772743
vt 0.705566406 0.342140019
vt 0.879394531 0.00132101774
vt 0.879394531 0.297225893
vt 0.973144531 0.297225893
vt 0.973144531 0.00132101774
vt 0.879394531 0.299867928
vt 0.879394531 0.807133436
vt 0.926269531 0.807133436
vt 0.926269531 0.299867928
vt 0.927246094 0.299867928
vt 0.927246094 0.764861286
vt 0.974121094 0.764861286
vt 0.974121094 0.299867928
vt 0.549316406 0.598414779
vt 0.549316406 0.894319654
vt 0.611816406 0.894319654
vt 0.611816406 0.598414779
vt 0.612792969 0.598414779
vt 0.612792969 0.725231171
vt 0.706542969 0.725231171
vt 0.706542969 0.598414779
vt 0.737792969 0.598414779
vt 0.737792969 0.767503321
vt 0.784667969 0.767503321
vt 0.784667969 0.598414779
vt 0.785644531 0.598414779
vt 0.785644531 0.725231171
vt 0.848144531 0.725231171
vt 0.848144531 0.598414779
vt 0.612792969 0.727873206
vt 0.612792969 0.896961689
vt 0.659667969 0.896961689
vt 0.659667969 0.727873206
vt 0.660644531 0.727873206
vt 0.660644531 0.896961689
vt 0.707519531 0.896961689
vt 0.707519531 0.727873206
vt 0.785644531 0.727873206
vt 0.785644531 0.896961689
vt 0.832519531 0.896961689
vt 0.832519531 0.727873206
vt 0.00048828125 0.764861286
vt 0.00048828125 0.933949828
vt 0.0473632812 0.933949828
vt 0.0473632812 0.764861286
vt 0.0483398438 0.764861286
vt 0.0483398438 0.891677678
vt 0.0952148438 0.891677678
vt 0.0952148438 0.764861286
vt 0.833496094 0.727873206
vt 0.833496094 0.896961689
vt 0.864746094 0.896961689
vt 0.864746094 0.727873206
vt 0.0961914062 0.764861286
vt 0.0961914062 0.891677678
vt 0.127441406 0.891677678
vt 0.127441406 0.764861286
vt 0.128417969 0.764861286
vt 0.128417969 0.891677678
vt 0.159667969 0.891677678
vt 0.159667969 0.764861286
vt 0.160644531 0.764861286
vt 0.160644531 0.849405527
vt 0.207519531 0.849405527
vt 0.207519531 0.764861286
vt 0.208496094 0.764861286
vt 0.208496094 0.849405527
vt 0.255371094 0.849405527
vt 0.255371094 0.764861286
vt 0.256347656 0.764861286
vt 0.256347656 0.849405527
vt 0.303222656 0.849405527
vt 0.303222656 0.764861286
vt 0.304199219 0.764861286
vt 0.304199219 0.849405527
vt 0.351074219 0.849405527
vt 0.351074219 0.764861286
vt 0.352050781 0.764861286
vt 0.352050781 0.849405527
vt 0.398925781 0.849405527
vt 0.398925781 0.764861286
vt 0.399902344 0.764861286
vt 0.399902344 0.849405527
vt 0.446777344 0.849405527
vt 0.446777344 0.764861286
vt 0.975097656 0.00132101774
vt 0.975097656 0.212681651
vt 0.990722656 0.212681651
vt 0.990722656 0.00132101774
vt 0.447753906 0.764861286
vt 0.447753906 0.849405527
vt 0.479003906 0.849405527
vt 0.479003906 0.764861286
vt 0.479980469 0.764861286
vt 0.479980469 0.849405527
vt 0.511230469 0.849405527
vt 0.511230469 0.764861286
vt 0.512207031 0.764861286
vt 0.512207031 0.849405527
vt 0.543457031 0.849405527
vt 0.543457031 0.764861286
vt 0.927246094 0.767503321
vt 0.927246094 0.852047563
vt 0.958496094 0.852047563
vt 0.958496094 0.767503321
vt 0.959472656 0.767503321
vt 0.959472656 0.852047563
vt 0.990722656 0.852047563
vt 0.990722656 0.767503321
vt 0.708496094 0.342140019
vt 0.708496094 0.511228561
vt 0.724121094 0.511228561
vt 0.724121094 0.342140019
vt 0.708496094 0.513870537
vt 0.708496094 0.68295908
vt 0.724121094 0.68295908
vt 0.724121094 0.513870537
vt 0.160644531 0.852047563
vt 0.160644531 0.894319654
vt 0.223144531 0.894319654
vt 0.223144531 0.852047563
vt 0.708496094 0.685601056
vt 0.708496094 0.854689598
vt 0.724121094 0.854689598
vt 0.724121094 0.685601056
vt 0.737792969 0.770145297
vt 0.737792969 0.93923384
vt 0.753417969 0.93923384
vt 0.753417969 0.770145297
vt 0.754394531 0.770145297
vt 0.754394531 0.869220614
vt 0.770019531 0.869220614
vt 0.770019531 0.770145297
vt 0.879394531 0.809775412
vt 0.879394531 0.936591804
vt 0.895019531 0.936591804
vt 0.895019531 0.809775412
vt 0.224121094 0.852047563
vt 0.224121094 0.894319654
vt 0.270996094 0.894319654
vt 0.270996094 0.852047563
vt 0.271972656 0.852047563
vt 0.271972656 0.894319654
vt 0.303222656 0.894319654
vt 0.303222656 0.852047563
vt 0.895996094 0.809775412
vt 0.895996094 0.894319654
vt 0.911621094 0.894319654
vt 0.911621094 0.809775412
vt 0.304199219 0.852047563
vt 0.304199219 0.936591804
vt 0.319824219 0.936591804
vt 0.319824219 0.852047563
vt 0.320800781 0.852047563
vt 0.320800781 0.936591804
vt 0.336425781 0.936591804
vt 0.336425781 0.852047563
vt 0.337402344 0.852047563
vt 0.337402344 0.894319654
vt 0.368652344 0.894319654
vt 0.368652344 0.852047563
vt 0.369628906 0.852047563
vt 0.369628906 0.894319654
vt 0.400878906 0.894319654
vt 0.400878906 0.852047563
vt 0.401855469 0.852047563
vt 0.401855469 0.936591804
vt 0.417480469 0.936591804
vt 0.417480469 0.852047563
vt 0.418457031 0.852047563
vt 0.418457031 0.936591804
vt 0.434082031 0.936591804
vt 0.434082031 0.852047563
vt 0.435058594 0.852047563
vt 0.435058594 0.894319654
vt 0.466308594 0.894319654
vt 0.466308594 0.852047563
vt 0.467285156 0.852047563
vt 0.467285156 0.936591804
vt 0.482910156 0.936591804
vt 0.482910156 0.852047563
vt 0.483886719 0.852047563
vt 0.483886719 0.936591804
vt 0.499511719 0.936591804
vt 0.499511719 0.852047563
vt 0.500488281 0.852047563
vt 0.500488281 0.936591804
vt 0.516113281 0.936591804
vt 0.516113281 0.852047563
vt 0.517089844 0.852047563
vt 0.517089844 0.936591804
vt 0.532714844 0.936591804
vt 0.532714844 0.852047563
vt 0.927246094 0.854689598
vt 0.927246094 0.896961689
vt 0.958496094 0.896961689
vt 0.958496094 0.854689598
vt 0.959472656 0.854689598
vt 0.959472656 0.896961689
vt 0.990722656 0.896961689
vt 0.990722656 0.854689598
vt 0.0483398438 0.894319654
vt 0.0483398438 0.936591804
vt 0.0795898438 0.936591804
vt 0.0795898438 0.894319654
vt 0.0805664062 0.894319654
vt 0.0805664062 0.908850729
vt 0.111816406 0.908850729
vt 0.111816406 0.894319654
vt 0.708496094 0.857331574
vt 0.708496094 0.941875815
vt 0.724121094 0.941875815
vt 0.724121094 0.857331574
vt 0.112792969 0.894319654
vt 0.112792969 0.936591804
vt 0.144042969 0.936591804
vt 0.144042969 0.894319654
vt 0.754394531 0.87186265
vt 0.754394531 0.956406891
vt 0.770019531 0.956406891
vt 0.770019531 0.87186265
vt 0.160644531 0.896961689
vt 0.160644531 0.98150593
vt 0.176269531 0.98150593
vt 0.176269531 0.896961689
vt 0.177246094 0.896961689
vt 0.177246094 0.98150593
vt 0.192871094 0.98150593
vt 0.192871094 0.896961689
vt 0.193847656 0.896961689
vt 0.193847656 0.93923384
vt 0.225097656 0.93923384
vt 0.225097656 0.896961689
vt 0.226074219 0.896961689
vt 0.226074219 0.98150593
vt 0.241699219 0.98150593
vt 0.241699219 0.896961689
vt 0.242675781 0.896961689
vt 0.242675781 0.93923384
vt 0.273925781 0.93923384
vt 0.273925781 0.896961689
vt 0.274902344 0.896961689
vt 0.274902344 0.98150593
vt 0.290527344 0.98150593
vt 0.290527344 0.896961689
vt 0.337402344 0.896961689
vt 0.337402344 0.98150593
vt 0.353027344 0.98150593
vt 0.353027344 0.896961689
vt 0.354003906 0.896961689
vt 0.354003906 0.98150593
vt 0.369628906 0.98150593
vt 0.369628906 0.896961689
vt 0.370605469 0.896961689
vt 0.370605469 0.98150593
vt 0.386230469 0.98150593
vt 0.386230469 0.896961689
vt 0.435058594 0.896961689
vt 0.435058594 0.98150593
vt 0.450683594 0.98150593
vt 0.450683594 0.896961689
vt 0.549316406 0.896961689
vt 0.549316406 0.98150593
vt 0.564941406 0.98150593
vt 0.564941406 0.896961689
vt 0.565917969 0.896961689
vt 0.565917969 0.98150593
vt 0.581542969 0.98150593
vt 0.581542969 0.896961689
vt 0.582519531 0.896961689
vt 0.582519531 0.98150593
vt 0.598144531 0.98150593
vt 0.598144531 0.896961689
vt 0.895996094 0.896961689
vt 0.895996094 0.98150593
vt 0.911621094 0.98150593
vt 0.911621094 0.896961689
vt 0.612792969 0.899603724
vt 0.612792969 0.984147966
vt 0.628417969 0.984147966
vt 0.628417969 0.899603724
vt 0.629394531 0.899603724
vt 0.629394531 0.984147966
vt 0.645019531 0.984147966
vt 0.645019531 0.899603724
vt 0.645996094 0.899603724
vt 0.645996094 0.984147966
vt 0.661621094 0.984147966
vt 0.661621094 0.899603724
vt 0.662597656 0.899603724
vt 0.662597656 0.984147966
vt 0.678222656 0.984147966
vt 0.678222656 0.899603724
vt 0.785644531 0.899603724
vt 0.785644531 0.941875815
vt 0.816894531 0.941875815
vt 0.816894531 0.899603724
vt 0.817871094 0.899603724
vt 0.817871094 0.941875815
vt 0.849121094 0.941875815
vt 0.849121094 0.899603724
vt 0.679199219 0.899603724
vt 0.679199219 0.984147966
vt 0.694824219 0.984147966
vt 0.694824219 0.899603724
vt 0.850097656 0.899603724
vt 0.850097656 0.984147966
vt 0.865722656 0.984147966
vt 0.865722656 0.899603724
vt 0.927246094 0.899603724
vt 0.927246094 0.984147966
vt 0.942871094 0.984147966
vt 0.942871094 0.899603724
vt 0.943847656 0.899603724
vt 0.943847656 0.941875815
vt 0.959472656 0.941875815
vt 0.959472656 0.899603724
vt 0.960449219 0.899603724
vt 0.960449219 0.941875815
vt 0.976074219 0.941875815
vt 0.976074219 0.899603724
vt 0.977050781 0.899603724
vt 0.977050781 0.941875815
vt 0.992675781 0.941875815
vt 0.992675781 0.899603724
vt 0.0805664062 0.911492705
vt 0.0805664062 0.953764856
vt 0.0961914062 0.953764856
vt 0.0961914062 0.911492705
vt 0.00048828125 0.936591804
vt 0.00048828125 0.978863955
vt 0.0161132812 0.978863955
vt 0.0161132812 0.936591804
vt 0.0170898438 0.936591804
vt 0.0170898438 0.978863955
vt 0.0327148438 0.978863955
vt 0.0327148438 0.936591804
vt 0.0483398438 0.93923384
vt 0.0483398438 0.98150593
vt 0.0639648438 0.98150593
vt 0.0639648438 0.93923384
vt 0.112792969 0.93923384
vt 0.112792969 0.98150593
vt 0.128417969 0.98150593
vt 0.128417969 0.93923384
vt 0.129394531 0.93923384
vt 0.129394531 0.98150593
vt 0.145019531 0.98150593
vt 0.145019531 0.93923384
vt 0.304199219 0.93923384
vt 0.304199219 0.98150593
vt 0.319824219 0.98150593
vt 0.319824219 0.93923384
vt 0.320800781 0.93923384
vt 0.320800781 0.98150593
vt 0.336425781 0.98150593
vt 0.336425781 0.93923384
vt 0.401855469 0.93923384
vt 0.401855469 0.98150593
vt 0.417480469 0.98150593
vt 0.417480469 0.93923384
vt 0.418457031 0.93923384
vt 0.418457031 0.98150593
vt 0.434082031 0.98150593
vt 0.434082031 0.93923384
vt 0.467285156 0.93923384
vt 0.467285156 0.98150593
vt 0.482910156 0.98150593
vt 0.482910156 0.93923384
vt 0.483886719 0.93923384
vt 0.483886719 0.98150593
vt 0.499511719 0.98150593
vt 0.499511719 0.93923384
vt 0.500488281 0.93923384
vt 0.500488281 0.98150593
vt 0.516113281 0.98150593
vt 0.516113281 0.93923384
vt 0.517089844 0.93923384
vt 0.517089844 0.98150593
vt 0.532714844 0.98150593
vt 0.532714844 0.93923384
vt 0.879394531 0.93923384
vt 0.879394531 0.98150593
vt 0.895019531 0.98150593
vt 0.895019531 0.93923384
vt 0.193847656 0.941875815
vt 0.193847656 0.984147966
vt 0.209472656 0.984147966
vt 0.209472656 0.941875815
vt 0.242675781 0.941875815
vt 0.242675781 0.984147966
vt 0.258300781 0.984147966
vt 0.258300781 0.941875815
vt 0.737792969 0.941875815
vt 0.737792969 0.984147966
vt 0.753417969 0.984147966
vt 0.753417969 0.941875815
vt 0.708496094 0.944517851
vt 0.708496094 0.986789942
vt 0.724121094 0.986789942
vt 0.724121094 0.944517851
vt 0.785644531 0.944517851
vt 0.785644531 0.986789942
vt 0.801269531 0.986789942
vt 0.801269531 0.944517851
vt 0.802246094 0.944517851
vt 0.802246094 0.986789942
vt 0.817871094 0.986789942
vt 0.817871094 0.944517851
vt 0.818847656 0.944517851
vt 0.818847656 0.986789942
vt 0.834472656 0.986789942
vt 0.834472656 0.944517851
vt 0.943847656 0.944517851
vt 0.943847656 0.986789942
vt 0.959472656 0.986789942
vt 0.959472656 0.944517851
vt 0.960449219 0.944517851
vt 0.960449219 0.986789942
vt 0.976074219 0.986789942
vt 0.976074219 0.944517851
vt 0.977050781 0.944517851
vt 0.977050781 0.986789942
vt 0.992675781 0.986789942
vt 0.992675781 0.944517851
vt 0.0805664062 0.956406891
vt 0.0805664062 0.998678982
vt 0.0961914062 0.998678982
vt 0.0961914062 0.956406891
g weiershiqinwang-mesh_0
f 3/3/3 2/2/2 1/1/1
f 1/1/1 4/4/4 3/3/3
f 7/7/7 6/6/6 5/5/5
f 5/5/5 8/8/8 7/7/7
f 11/11/11 10/10/10 9/9/9
f 9/9/9 12/12/12 11/11/11
f 15/15/15 14/14/14 13/13/13
f 13/13/13 16/16/16 15/15/15
f 19/19/19 18/18/18 17/17/17
f 17/17/17 20/20/20 19/19/19
f 23/23/23 22/22/22 21/21/21
f 21/21/21 24/24/24 23/23/23
f 27/27/27 26/26/26 25/25/25
f 25/25/25 28/28/28 27/27/27
f 31/31/31 30/30/30 29/29/29
f 29/29/29 32/32/32 31/31/31
f 35/35/35 34/34/34 33/33/33
f 33/33/33 36/36/36 35/35/35
f 39/39/39 38/38/38 37/37/37
f 37/37/37 40/40/40 39/39/39
f 43/43/43 42/42/42 41/41/41
f 41/41/41 44/44/44 43/43/43
f 47/47/47 46/46/46 45/45/45
f 45/45/45 48/48/48 47/47/47
f 51/51/51 50/50/50 49/49/49
f 49/49/49 52/52/52 51/51/51
f 55/55/55 54/54/54 53/53/53
f 53/53/53 56/56/56 55/55/55
f 59/59/59 58/58/58 57/57/57
f 57/57/57 60/60/60 59/59/59
f 63/63/63 62/62/62 61/61/61
f 61/61/61 64/64/64 63/63/63
f 67/67/67 66/66/66 65/65/65
f 65/65/65 68/68/68 67/67/67
f 71/71/71 70/70/70 69/69/69
f 69/69/69 72/72/72 71/71/71
f 75/75/75 74/74/74 73/73/73
f 73/73/73 76/76/76 75/75/75
f 79/79/79 78/78/78 77/77/77
f 77/77/77 80/80/80 79/79/79
f 83/83/83 82/82/82 81/81/81
f 81/81/81 84/84/84 83/83/83
f 87/87/87 86/86/86 85/85/85
f 85/85/85 88/88/88 87/87/87
f 91/91/91 90/90/90 89/89/89
f 89/89/89 92/92/92 91/91/91
f 95/95/95 94/94/94 93/93/93
f 93/93/93 96/96/96 95/95/95
f 99/99/99 98/98/98 97/97/97
f 97/97/97 100/100/100 99/99/99
f 103/103/103 102/102/102 101/101/101
f 101/101/101 104/104/104 103/103/103
f 107/107/107 106/106/106 105/105/105
f 105/105/105 108/108/108 107/107/107
f 111/111/111 110/110/110 109/109/109
f 109/109/109 112/112/112 111/111/111
f 115/115/115 114/114/114 113/113/113
f 113/113/113 116/116/116 115/115/115
f 119/119/119 118/118/118 117/117/117
f 117/117/117 120/120/120 119/119/119
f 123/123/123 122/122/122 121/121/121
f 121/121/121 124/124/124 123/123/123
f 127/127/127 126/126/126 125/125/125
f 125/125/125 128/128/128 127/127/127
f 131/131/131 130/130/130 129/129/129
f 129/129/129 132/132/132 131/131/131
f 135/135/135 134/134/134 133/133/133
f 133/133/133 136/136/136 135/135/135
f 139/139/139 138/138/138 137/137/137
f 137/137/137 140/140/140 139/139/139
f 143/143/143 142/142/142 141/141/141
f 141/141/141 144/144/144 143/143/143
f 147/147/147 146/146/146 145/145/145
f 145/145/145 148/148/148 147/147/147
f 151/151/151 150/150/150 149/149/149
f 149/149/149 152/152/152 151/151/151
f 155/155/155 154/154/154 153/153/153
f 153/153/153 156/156/156 155/155/155
f 159/159/159 158/158/158 157/157/157
f 157/157/157 160/160/160 159/159/159
f 163/163/163 162/162/162 161/161/161
f 161/161/161 164/164/164 163/163/163
f 167/167/167 166/166/166 165/165/165
f 165/165/165 168/168/168 167/167/167
f 171/171/171 170/170/170 169/169/169
f 169/169/169 172/172/172 171/171/171
f 175/175/175 174/174/174 173/173/173
f 173/173/173 176/176/176 175/175/175
f 179/179/179 178/178/178 177/177/177
f 177/177/177 180/180/180 179/179/179
f 183/183/183 182/182/182 181/181/181
f 181/181/181 184/184/184 183/183/183
f 187/187/187 186/186/186 185/185/185
f 185/185/185 188/188/188 187/187/187
f 191/191/191 190/190/190 189/189/189
f 189/189/189 192/192/192 191/191/191
f 195/195/195 194/194/194 193/193/193
f 193/193/193 196/196/196 195/195/195
f 199/199/199 198/198/198 197/197/197
f 197/197/197 200/200/200 199/199/199
f 203/203/203 202/202/202 201/201/201
f 201/201/201 204/204/204 203/203/203
f 207/207/207 206/206/206 205/205/205
f 205/205/205 208/208/208 207/207/207
f 211/211/211 210/210/210 209/209/209
f 209/209/209 212/212/212 211/211/211
f 215/215/215 214/214/214 213/213/213
f 213/213/213 216/216/216 215/215/215
f 219/219/219 218/218/218 217/217/217
f 217/217/217 220/220/220 219/219/219
f 223/223/223 222/222/222 221/221/221
f 221/221/221 224/224/224 223/223/223
f 227/227/227 226/226/226 225/225/225
f 225/225/225 228/228/228 227/227/227
f 231/231/231 230/230/230 229/229/229
f 229/229/229 232/232/232 231/231/231
f 235/235/235 234/234/234 233/233/233
f 233/233/233 236/236/236 235/235/235
f 239/239/239 238/238/238 237/237/237
f 237/237/237 240/240/240 239/239/239
f 243/243/243 242/242/242 241/241/241
f 241/241/241 244/244/244 243/243/243
f 247/247/247 246/246/246 245/245/245
f 245/245/245 248/248/248 247/247/247
f 251/251/251 250/250/250 249/249/249
f 249/249/249 252/252/252 251/251/251
f 255/255/255 254/254/254 253/253/253
f 253/253/253 256/256/256 255/255/255
f 259/259/259 258/258/258 257/257/257
f 257/257/257 260/260/260 259/259/259
f 263/263/263 262/262/262 261/261/261
f 261/261/261 264/264/264 263/263/263
f 267/267/267 266/266/266 265/265/265
f 265/265/265 268/268/268 267/267/267
f 271/271/271 270/270/270 269/269/269
f 269/269/269 272/272/272 271/271/271
f 275/275/275 274/274/274 273/273/273
f 273/273/273 276/276/276 275/275/275
f 279/279/279 278/278/278 277/277/277
f 277/277/277 280/280/280 279/279/279
f 283/283/283 282/282/282 281/281/281
f 281/281/281 284/284/284 283/283/283
f 287/287/287 286/286/286 285/285/285
f 285/285/285 288/288/288 287/287/287
f 291/291/291 290/290/290 289/289/289
f 289/289/289 292/292/292 291/291/291
f 295/295/295 294/294/294 293/293/293
f 293/293/293 296/296/296 295/295/295
f 299/299/299 298/298/298 297/297/297
f 297/297/297 300/300/300 299/299/299
f 303/303/303 302/302/302 301/301/301
f 301/301/301 304/304/304 303/303/303
f 307/307/307 306/306/306 305/305/305
f 305/305/305 308/308/308 307/307/307
f 311/311/311 310/310/310 309/309/309
f 309/309/309 312/312/312 311/311/311
f 315/315/315 314/314/314 313/313/313
f 313/313/313 316/316/316 315/315/315
f 319/319/319 318/318/318 317/317/317
f 317/317/317 320/320/320 319/319/319
f 323/323/323 322/322/322 321/321/321
f 321/321/321 324/324/324 323/323/323
f 327/327/327 326/326/326 325/325/325
f 325/325/325 328/328/328 327/327/327
f 331/331/331 330/330/330 329/329/329
f 329/329/329 332/332/332 331/331/331
f 335/335/335 334/334/334 333/333/333
f 333/333/333 336/336/336 335/335/335
f 339/339/339 338/338/338 337/337/337
f 337/337/337 340/340/340 339/339/339
f 343/343/343 342/342/342 341/341/341
f 341/341/341 344/344/344 343/343/343
f 347/347/347 346/346/346 345/345/345
f 345/345/345 348/348/348 347/347/347
f 351/351/351 350/350/350 349/349/349
f 349/349/349 352/352/352 351/351/351
f 355/355/355 354/354/354 353/353/353
f 353/353/353 356/356/356 355/355/355
f 359/359/359 358/358/358 357/357/357
f 357/357/357 360/360/360 359/359/359
f 363/363/363 362/362/362 361/361/361
f 361/361/361 364/364/364 363/363/363
f 367/367/367 366/366/366 365/365/365
f 365/365/365 368/368/368 367/367/367
f 371/371/371 370/370/370 369/369/369
f 369/369/369 372/372/372 371/371/371
f 375/375/375 374/374/374 373/373/373
f 373/373/373 376/376/376 375/375/375
f 379/379/379 378/378/378 377/377/377
f 377/377/377 380/380/380 379/379/379
f 383/383/383 382/382/382 381/381/381
f 381/381/381 384/384/384 383/383/383
f 387/387/387 386/386/386 385/385/385
f 385/385/385 388/388/388 387/387/387
f 391/391/391 390/390/390 389/389/389
f 389/389/389 392/392/392 391/391/391
f 395/395/395 394/394/394 393/393/393
f 393/393/393 396/396/396 395/395/395
f 399/399/399 398/398/398 397/397/397
f 397/397/397 400/400/400 399/399/399
f 403/403/403 402/402/402 401/401/401
f 401/401/401 404/404/404 403/403/403
f 407/407/407 406/406/406 405/405/405
f 405/405/405 408/408/408 407/407/407
f 411/411/411 410/410/410 409/409/409
f 409/409/409 412/412/412 411/411/411
f 415/415/415 414/414/414 413/413/413
f 413/413/413 416/416/416 415/415/415
f 419/419/419 418/418/418 417/417/417
f 417/417/417 420/420/420 419/419/419
f 423/423/423 422/422/422 421/421/421
f 421/421/421 424/424/424 423/423/423
f 427/427/427 426/426/426 425/425/425
f 425/425/425 428/428/428 427/427/427
f 431/431/431 430/430/430 429/429/429
f 429/429/429 432/432/432 431/431/431
f 435/435/435 434/434/434 433/433/433
f 433/433/433 436/436/436 435/435/435
f 439/439/439 438/438/438 437/437/437
f 437/437/437 440/440/440 439/439/439
f 443/443/443 442/442/442 441/441/441
f 441/441/441 444/444/444 443/443/443
f 447/447/447 446/446/446 445/445/445
f 445/445/445 448/448/448 447/447/447
f 451/451/451 450/450/450 449/449/449
f 449/449/449 452/452/452 451/451/451
