g junzhu-mesh
v -256 398 0
v -256 942 0
v -576 942 0
v -576 398 0
v -576 398 0
v -576 942 0
v -864 942 0
v -864 398 0
v -864 430 0
v -864 686 0
v -1056 686 0
v -1056 430 0
v -864 686 0
v -864 942 0
v -1056 942 0
v -1056 686 0
v -256 942 0
v -256 1070 0
v -480 1070 0
v -480 942 0
v -32 942 0
v -32 1070 0
v -256 1070 0
v -256 942 0
v -1056 526 0
v -1056 814 0
v -1120 814 0
v -1120 526 0
v -1056 814 0
v -1056 1102 0
v -1120 1102 0
v -1120 814 0
v -384 334 0
v -384 398 0
v -640 398 0
v -640 334 0
v -160 782 0
v -160 942 0
v -256 942 0
v -256 782 0
v -640 974 0
v -640 1038 0
v -864 1038 0
v -864 974 0
v -640 334 0
v -640 398 0
v -864 398 0
v -864 334 0
v -480 206 0
v -480 334 0
v -576 334 0
v -576 206 0
v -576 238 0
v -576 334 0
v -704 334 0
v -704 238 0
v -1120 334 0
v -1120 526 0
v -1184 526 0
v -1184 334 0
v -1120 526 0
v -1120 718 0
v -1184 718 0
v -1184 526 0
v -864 974 0
v -864 1038 0
v -1056 1038 0
v -1056 974 0
v -416 174 0
v -416 334 0
v -480 334 0
v -480 174 0
v -416 14 0
v -416 174 0
v -480 174 0
v -480 14 0
v -1120 910 0
v -1120 1070 0
v -1184 1070 0
v -1184 910 0
v -1120 782 0
v -1120 910 0
v -1184 910 0
v -1184 782 0
v -608 110 0
v -608 206 0
v -672 206 0
v -672 110 0
v -192 1070 0
v -192 1134 0
v -288 1134 0
v -288 1070 0
v -128 462 0
v -128 558 0
v -192 558 0
v -192 462 0
v -480 942 0
v -480 1038 0
v -544 1038 0
v -544 942 0
v -800 1038 0
v -800 1134 0
v -864 1134 0
v -864 1038 0
v -192 526 0
v -192 622 0
v -256 622 0
v -256 526 0
v -800 1134 0
v -800 1230 0
v -864 1230 0
v -864 1134 0
v -192 430 0
v -192 526 0
v -256 526 0
v -256 430 0
v -1088 1102 0
v -1088 1166 0
v -1152 1166 0
v -1152 1102 0
v -96 878 0
v -96 942 0
v -160 942 0
v -160 878 0
v -64 1070 0
v -64 1134 0
v -128 1134 0
v -128 1070 0
v -1088 270 0
v -1088 398 0
v -1120 398 0
v -1120 270 0
v -736 942 0
v -736 974 0
v -864 974 0
v -864 942 0
v -608 942 0
v -608 974 0
v -736 974 0
v -736 942 0
v -288 1070 0
v -288 1134 0
v -352 1134 0
v -352 1070 0
v -1088 398 0
v -1088 526 0
v -1120 526 0
v -1120 398 0
v -1184 398 0
v -1184 526 0
v -1216 526 0
v -1216 398 0
v -1184 526 0
v -1184 654 0
v -1216 654 0
v -1216 526 0
v -480 110 0
v -480 206 0
v -512 206 0
v -512 110 0
v -896 942 0
v -896 974 0
v -992 974 0
v -992 942 0
v -1184 782 0
v -1184 878 0
v -1216 878 0
v -1216 782 0
v -1184 878 0
v -1184 974 0
v -1216 974 0
v -1216 878 0
v -736 1038 0
v -736 1102 0
v -768 1102 0
v -768 1038 0
v -1184 1006 0
v -1184 1070 0
v -1216 1070 0
v -1216 1006 0
v -576 110 0
v -576 174 0
v -608 174 0
v -608 110 0
v -224 1134 0
v -224 1166 0
v -288 1166 0
v -288 1134 0
v -128 1070 0
v -128 1102 0
v -192 1102 0
v -192 1070 0
v -0 974 0
v -0 1038 0
v -32 1038 0
v -32 974 0
v -1120 270 0
v -1120 334 0
v -1152 334 0
v -1152 270 0
v -512 142 0
v -512 206 0
v -544 206 0
v -544 142 0
v -224 622 0
v -224 686 0
v -256 686 0
v -256 622 0
v -192 750 0
v -192 782 0
v -256 782 0
v -256 750 0
v -384 14 0
v -384 78 0
v -416 78 0
v -416 14 0
v -768 1038 0
v -768 1102 0
v -800 1102 0
v -800 1038 0
v -992 398 0
v -992 430 0
v -1056 430 0
v -1056 398 0
v -864 1102 0
v -864 1166 0
v -896 1166 0
v -896 1102 0
v -992 942 0
v -992 974 0
v -1056 974 0
v -1056 942 0
v -480 46 0
v -480 110 0
v -512 110 0
v -512 46 0
v -768 1102 0
v -768 1166 0
v -800 1166 0
v -800 1102 0
v -608 206 0
v -608 238 0
v -672 238 0
v -672 206 0
v -704 302 0
v -704 334 0
v -768 334 0
v -768 302 0
v -928 398 0
v -928 430 0
v -992 430 0
v -992 398 0
v -224 718 0
v -224 750 0
v -256 750 0
v -256 718 0
v -544 942 0
v -544 974 0
v -576 974 0
v -576 942 0
v -1120 718 0
v -1120 750 0
v -1152 750 0
v -1152 718 0
v -64 910 0
v -64 942 0
v -96 942 0
v -96 910 0
v -160 558 0
v -160 590 0
v -192 590 0
v -192 558 0
v -704 270 0
v -704 302 0
v -736 302 0
v -736 270 0
v -384 174 0
v -384 206 0
v -416 206 0
v -416 174 0
v -608 78 0
v -608 110 0
v -640 110 0
v -640 78 0
v -864 334 0
v -864 366 0
v -896 366 0
v -896 334 0
v -768 302 0
v -768 334 0
v -800 334 0
v -800 302 0
v -864 1070 0
v -864 1102 0
v -896 1102 0
v -896 1070 0
v -672 206 0
v -672 238 0
v -704 238 0
v -704 206 0
v -576 78 0
v -576 110 0
v -608 110 0
v -608 78 0
v -352 1070 0
v -352 1102 0
v -384 1102 0
v -384 1070 0
v -1024 1038 0
v -1024 1070 0
v -1056 1070 0
v -1056 1038 0
v -608 974 0
v -608 1006 0
v -640 1006 0
v -640 974 0
v -1120 1070 0
v -1120 1102 0
v -1152 1102 0
v -1152 1070 0
v -928 1038 0
v -928 1070 0
v -960 1070 0
v -960 1038 0
vt 0.0009765625 0.00105929375
vt 0.0009765625 0.57733047
vt 0.313476562 0.57733047
vt 0.313476562 0.00105929375
vt 0.315429688 0.00105929375
vt 0.315429688 0.57733047
vt 0.596679688 0.57733047
vt 0.596679688 0.00105929375
vt 0.598632812 0.00105929375
vt 0.598632812 0.272245765
vt 0.786132812 0.272245765
vt 0.786132812 0.00105929375
vt 0.788085938 0.00105929375
vt 0.788085938 0.272245765
vt 0.975585938 0.272245765
vt 0.975585938 0.00105929375
vt 0.598632812 0.274364412
vt 0.598632812 0.409957647
vt 0.817382812 0.409957647
vt 0.817382812 0.274364412
vt 0.598632812 0.412076294
vt 0.598632812 0.54766953
vt 0.817382812 0.54766953
vt 0.817382812 0.412076294
vt 0.819335938 0.274364412
vt 0.819335938 0.579449177
vt 0.881835938 0.579449177
vt 0.881835938 0.274364412
vt 0.883789062 0.274364412
vt 0.883789062 0.579449177
vt 0.946289062 0.579449177
vt 0.946289062 0.274364412
vt 0.0009765625 0.579449177
vt 0.0009765625 0.647245765
vt 0.250976562 0.647245765
vt 0.250976562 0.579449177
vt 0.598632812 0.549788117
vt 0.598632812 0.719279647
vt 0.692382812 0.719279647
vt 0.692382812 0.549788117
vt 0.252929688 0.579449177
vt 0.252929688 0.647245765
vt 0.471679688 0.647245765
vt 0.471679688 0.579449177
vt 0.0009765625 0.649364412
vt 0.0009765625 0.717161059
vt 0.219726562 0.717161059
vt 0.219726562 0.649364412
vt 0.694335938 0.549788117
vt 0.694335938 0.685381353
vt 0.788085938 0.685381353
vt 0.788085938 0.549788117
vt 0.819335938 0.581567764
vt 0.819335938 0.683262706
vt 0.944335938 0.683262706
vt 0.944335938 0.581567764
vt 0.473632812 0.579449177
vt 0.473632812 0.782839
vt 0.536132812 0.782839
vt 0.536132812 0.579449177
vt 0.221679688 0.649364412
vt 0.221679688 0.852754235
vt 0.284179688 0.852754235
vt 0.284179688 0.649364412
vt 0.694335938 0.6875
vt 0.694335938 0.755296588
vt 0.881835938 0.755296588
vt 0.881835938 0.6875
vt 0.286132812 0.649364412
vt 0.286132812 0.818855941
vt 0.348632812 0.818855941
vt 0.348632812 0.649364412
vt 0.350585938 0.649364412
vt 0.350585938 0.818855941
vt 0.413085938 0.818855941
vt 0.413085938 0.649364412
vt 0.883789062 0.685381353
vt 0.883789062 0.854872882
vt 0.946289062 0.854872882
vt 0.946289062 0.685381353
vt 0.0009765625 0.719279647
vt 0.0009765625 0.854872882
vt 0.0634765625 0.854872882
vt 0.0634765625 0.719279647
vt 0.0654296875 0.719279647
vt 0.0654296875 0.820974588
vt 0.127929688 0.820974588
vt 0.127929688 0.719279647
vt 0.598632812 0.721398294
vt 0.598632812 0.789194942
vt 0.692382812 0.789194942
vt 0.692382812 0.721398294
vt 0.129882812 0.719279647
vt 0.129882812 0.820974588
vt 0.192382812 0.820974588
vt 0.192382812 0.719279647
vt 0.694335938 0.757415235
vt 0.694335938 0.859110177
vt 0.756835938 0.859110177
vt 0.756835938 0.757415235
vt 0.758789062 0.757415235
vt 0.758789062 0.859110177
vt 0.821289062 0.859110177
vt 0.821289062 0.757415235
vt 0.473632812 0.784957647
vt 0.473632812 0.886652529
vt 0.536132812 0.886652529
vt 0.536132812 0.784957647
vt 0.598632812 0.791313529
vt 0.598632812 0.893008471
vt 0.661132812 0.893008471
vt 0.661132812 0.791313529
vt 0.286132812 0.820974588
vt 0.286132812 0.92266947
vt 0.348632812 0.92266947
vt 0.348632812 0.820974588
vt 0.350585938 0.820974588
vt 0.350585938 0.888771176
vt 0.413085938 0.888771176
vt 0.413085938 0.820974588
vt 0.0654296875 0.823093235
vt 0.0654296875 0.890889823
vt 0.127929688 0.890889823
vt 0.127929688 0.823093235
vt 0.129882812 0.823093235
vt 0.129882812 0.890889823
vt 0.192382812 0.890889823
vt 0.192382812 0.823093235
vt 0.948242188 0.274364412
vt 0.948242188 0.409957647
vt 0.979492188 0.409957647
vt 0.979492188 0.274364412
vt 0.694335938 0.861228824
vt 0.694335938 0.895127118
vt 0.819335938 0.895127118
vt 0.819335938 0.861228824
vt 0.821289062 0.861228824
vt 0.821289062 0.895127118
vt 0.946289062 0.895127118
vt 0.946289062 0.861228824
vt 0.221679688 0.854872882
vt 0.221679688 0.92266947
vt 0.284179688 0.92266947
vt 0.284179688 0.854872882
vt 0.948242188 0.412076294
vt 0.948242188 0.54766953
vt 0.979492188 0.54766953
vt 0.979492188 0.412076294
vt 0.948242188 0.549788117
vt 0.948242188 0.685381353
vt 0.979492188 0.685381353
vt 0.979492188 0.549788117
vt 0.538085938 0.579449177
vt 0.538085938 0.715042353
vt 0.569335938 0.715042353
vt 0.569335938 0.579449177
vt 0.415039062 0.649364412
vt 0.415039062 0.751059294
vt 0.446289062 0.751059294
vt 0.446289062 0.649364412
vt 0.473632812 0.888771176
vt 0.473632812 0.92266947
vt 0.567382812 0.92266947
vt 0.567382812 0.888771176
vt 0.948242188 0.6875
vt 0.948242188 0.789194942
vt 0.979492188 0.789194942
vt 0.979492188 0.6875
vt 0.415039062 0.753178
vt 0.415039062 0.854872882
vt 0.446289062 0.854872882
vt 0.446289062 0.753178
vt 0.948242188 0.791313529
vt 0.948242188 0.859110177
vt 0.979492188 0.859110177
vt 0.979492188 0.791313529
vt 0.0009765625 0.856991529
vt 0.0009765625 0.924788117
vt 0.0322265625 0.924788117
vt 0.0322265625 0.856991529
vt 0.415039062 0.856991529
vt 0.415039062 0.924788117
vt 0.446289062 0.924788117
vt 0.446289062 0.856991529
vt 0.350585938 0.890889823
vt 0.350585938 0.924788117
vt 0.413085938 0.924788117
vt 0.413085938 0.890889823
vt 0.0654296875 0.893008471
vt 0.0654296875 0.926906765
vt 0.127929688 0.926906765
vt 0.127929688 0.893008471
vt 0.948242188 0.861228824
vt 0.948242188 0.929025412
vt 0.979492188 0.929025412
vt 0.979492188 0.861228824
vt 0.129882812 0.893008471
vt 0.129882812 0.960805058
vt 0.161132812 0.960805058
vt 0.161132812 0.893008471
vt 0.163085938 0.893008471
vt 0.163085938 0.960805058
vt 0.194335938 0.960805058
vt 0.194335938 0.893008471
vt 0.598632812 0.895127118
vt 0.598632812 0.962923706
vt 0.629882812 0.962923706
vt 0.629882812 0.895127118
vt 0.694335938 0.897245765
vt 0.694335938 0.931144059
vt 0.756835938 0.931144059
vt 0.756835938 0.897245765
vt 0.631835938 0.895127118
vt 0.631835938 0.962923706
vt 0.663085938 0.962923706
vt 0.663085938 0.895127118
vt 0.758789062 0.897245765
vt 0.758789062 0.965042353
vt 0.790039062 0.965042353
vt 0.790039062 0.897245765
vt 0.791992188 0.897245765
vt 0.791992188 0.931144059
vt 0.854492188 0.931144059
vt 0.854492188 0.897245765
vt 0.856445312 0.897245765
vt 0.856445312 0.965042353
vt 0.887695312 0.965042353
vt 0.887695312 0.897245765
vt 0.221679688 0.924788117
vt 0.221679688 0.958686471
vt 0.284179688 0.958686471
vt 0.284179688 0.924788117
vt 0.889648438 0.897245765
vt 0.889648438 0.965042353
vt 0.920898438 0.965042353
vt 0.920898438 0.897245765
vt 0.286132812 0.924788117
vt 0.286132812 0.992584765
vt 0.317382812 0.992584765
vt 0.317382812 0.924788117
vt 0.473632812 0.924788117
vt 0.473632812 0.958686471
vt 0.536132812 0.958686471
vt 0.536132812 0.924788117
vt 0.0009765625 0.926906765
vt 0.0009765625 0.960805058
vt 0.0634765625 0.960805058
vt 0.0634765625 0.926906765
vt 0.350585938 0.926906765
vt 0.350585938 0.960805058
vt 0.413085938 0.960805058
vt 0.413085938 0.926906765
vt 0.538085938 0.924788117
vt 0.538085938 0.958686471
vt 0.569335938 0.958686471
vt 0.569335938 0.924788117
vt 0.415039062 0.926906765
vt 0.415039062 0.960805058
vt 0.446289062 0.960805058
vt 0.446289062 0.926906765
vt 0.0654296875 0.929025412
vt 0.0654296875 0.962923706
vt 0.0966796875 0.962923706
vt 0.0966796875 0.929025412
vt 0.948242188 0.931144059
vt 0.948242188 0.965042353
vt 0.979492188 0.965042353
vt 0.979492188 0.931144059
vt 0.694335938 0.933262706
vt 0.694335938 0.967161
vt 0.725585938 0.967161
vt 0.725585938 0.933262706
vt 0.791992188 0.933262706
vt 0.791992188 0.967161
vt 0.823242188 0.967161
vt 0.823242188 0.933262706
vt 0.221679688 0.960805058
vt 0.221679688 0.994703412
vt 0.252929688 0.994703412
vt 0.252929688 0.960805058
vt 0.473632812 0.960805058
vt 0.473632812 0.994703412
vt 0.504882812 0.994703412
vt 0.504882812 0.960805058
vt 0.506835938 0.960805058
vt 0.506835938 0.994703412
vt 0.538085938 0.994703412
vt 0.538085938 0.960805058
vt 0.540039062 0.960805058
vt 0.540039062 0.994703412
vt 0.571289062 0.994703412
vt 0.571289062 0.960805058
vt 0.0009765625 0.962923706
vt 0.0009765625 0.996822059
vt 0.0322265625 0.996822059
vt 0.0322265625 0.962923706
vt 0.129882812 0.962923706
vt 0.129882812 0.996822059
vt 0.161132812 0.996822059
vt 0.161132812 0.962923706
vt 0.163085938 0.962923706
vt 0.163085938 0.996822059
vt 0.194335938 0.996822059
vt 0.194335938 0.962923706
vt 0.350585938 0.962923706
vt 0.350585938 0.996822059
vt 0.381835938 0.996822059
vt 0.381835938 0.962923706
vt 0.383789062 0.962923706
vt 0.383789062 0.996822059
vt 0.415039062 0.996822059
vt 0.415039062 0.962923706
vt 0.416992188 0.962923706
vt 0.416992188 0.996822059
vt 0.448242188 0.996822059
vt 0.448242188 0.962923706
vt 0.0654296875 0.965042353
vt 0.0654296875 0.998940706
vt 0.0966796875 0.998940706
vt 0.0966796875 0.965042353
vt 0.598632812 0.965042353
vt 0.598632812 0.998940706
vt 0.629882812 0.998940706
vt 0.629882812 0.965042353
g junzhu-mesh_0
f 3/3/3 2/2/2 1/1/1
f 1/1/1 4/4/4 3/3/3
f 7/7/7 6/6/6 5/5/5
f 5/5/5 8/8/8 7/7/7
f 11/11/11 10/10/10 9/9/9
f 9/9/9 12/12/12 11/11/11
f 15/15/15 14/14/14 13/13/13
f 13/13/13 16/16/16 15/15/15
f 19/19/19 18/18/18 17/17/17
f 17/17/17 20/20/20 19/19/19
f 23/23/23 22/22/22 21/21/21
f 21/21/21 24/24/24 23/23/23
f 27/27/27 26/26/26 25/25/25
f 25/25/25 28/28/28 27/27/27
f 31/31/31 30/30/30 29/29/29
f 29/29/29 32/32/32 31/31/31
f 35/35/35 34/34/34 33/33/33
f 33/33/33 36/36/36 35/35/35
f 39/39/39 38/38/38 37/37/37
f 37/37/37 40/40/40 39/39/39
f 43/43/43 42/42/42 41/41/41
f 41/41/41 44/44/44 43/43/43
f 47/47/47 46/46/46 45/45/45
f 45/45/45 48/48/48 47/47/47
f 51/51/51 50/50/50 49/49/49
f 49/49/49 52/52/52 51/51/51
f 55/55/55 54/54/54 53/53/53
f 53/53/53 56/56/56 55/55/55
f 59/59/59 58/58/58 57/57/57
f 57/57/57 60/60/60 59/59/59
f 63/63/63 62/62/62 61/61/61
f 61/61/61 64/64/64 63/63/63
f 67/67/67 66/66/66 65/65/65
f 65/65/65 68/68/68 67/67/67
f 71/71/71 70/70/70 69/69/69
f 69/69/69 72/72/72 71/71/71
f 75/75/75 74/74/74 73/73/73
f 73/73/73 76/76/76 75/75/75
f 79/79/79 78/78/78 77/77/77
f 77/77/77 80/80/80 79/79/79
f 83/83/83 82/82/82 81/81/81
f 81/81/81 84/84/84 83/83/83
f 87/87/87 86/86/86 85/85/85
f 85/85/85 88/88/88 87/87/87
f 91/91/91 90/90/90 89/89/89
f 89/89/89 92/92/92 91/91/91
f 95/95/95 94/94/94 93/93/93
f 93/93/93 96/96/96 95/95/95
f 99/99/99 98/98/98 97/97/97
f 97/97/97 100/100/100 99/99/99
f 103/103/103 102/102/102 101/101/101
f 101/101/101 104/104/104 103/103/103
f 107/107/107 106/106/106 105/105/105
f 105/105/105 108/108/108 107/107/107
f 111/111/111 110/110/110 109/109/109
f 109/109/109 112/112/112 111/111/111
f 115/115/115 114/114/114 113/113/113
f 113/113/113 116/116/116 115/115/115
f 119/119/119 118/118/118 117/117/117
f 117/117/117 120/120/120 119/119/119
f 123/123/123 122/122/122 121/121/121
f 121/121/121 124/124/124 123/123/123
f 127/127/127 126/126/126 125/125/125
f 125/125/125 128/128/128 127/127/127
f 131/131/131 130/130/130 129/129/129
f 129/129/129 132/132/132 131/131/131
f 135/135/135 134/134/134 133/133/133
f 133/133/133 136/136/136 135/135/135
f 139/139/139 138/138/138 137/137/137
f 137/137/137 140/140/140 139/139/139
f 143/143/143 142/142/142 141/141/141
f 141/141/141 144/144/144 143/143/143
f 147/147/147 146/146/146 145/145/145
f 145/145/145 148/148/148 147/147/147
f 151/151/151 150/150/150 149/149/149
f 149/149/149 152/152/152 151/151/151
f 155/155/155 154/154/154 153/153/153
f 153/153/153 156/156/156 155/155/155
f 159/159/159 158/158/158 157/157/157
f 157/157/157 160/160/160 159/159/159
f 163/163/163 162/162/162 161/161/161
f 161/161/161 164/164/164 163/163/163
f 167/167/167 166/166/166 165/165/165
f 165/165/165 168/168/168 167/167/167
f 171/171/171 170/170/170 169/169/169
f 169/169/169 172/172/172 171/171/171
f 175/175/175 174/174/174 173/173/173
f 173/173/173 176/176/176 175/175/175
f 179/179/179 178/178/178 177/177/177
f 177/177/177 180/180/180 179/179/179
f 183/183/183 182/182/182 181/181/181
f 181/181/181 184/184/184 183/183/183
f 187/187/187 186/186/186 185/185/185
f 185/185/185 188/188/188 187/187/187
f 191/191/191 190/190/190 189/189/189
f 189/189/189 192/192/192 191/191/191
f 195/195/195 194/194/194 193/193/193
f 193/193/193 196/196/196 195/195/195
f 199/199/199 198/198/198 197/197/197
f 197/197/197 200/200/200 199/199/199
f 203/203/203 202/202/202 201/201/201
f 201/201/201 204/204/204 203/203/203
f 207/207/207 206/206/206 205/205/205
f 205/205/205 208/208/208 207/207/207
f 211/211/211 210/210/210 209/209/209
f 209/209/209 212/212/212 211/211/211
f 215/215/215 214/214/214 213/213/213
f 213/213/213 216/216/216 215/215/215
f 219/219/219 218/218/218 217/217/217
f 217/217/217 220/220/220 219/219/219
f 223/223/223 222/222/222 221/221/221
f 221/221/221 224/224/224 223/223/223
f 227/227/227 226/226/226 225/225/225
f 225/225/225 228/228/228 227/227/227
f 231/231/231 230/230/230 229/229/229
f 229/229/229 232/232/232 231/231/231
f 235/235/235 234/234/234 233/233/233
f 233/233/233 236/236/236 235/235/235
f 239/239/239 238/238/238 237/237/237
f 237/237/237 240/240/240 239/239/239
f 243/243/243 242/242/242 241/241/241
f 241/241/241 244/244/244 243/243/243
f 247/247/247 246/246/246 245/245/245
f 245/245/245 248/248/248 247/247/247
f 251/251/251 250/250/250 249/249/249
f 249/249/249 252/252/252 251/251/251
f 255/255/255 254/254/254 253/253/253
f 253/253/253 256/256/256 255/255/255
f 259/259/259 258/258/258 257/257/257
f 257/257/257 260/260/260 259/259/259
f 263/263/263 262/262/262 261/261/261
f 261/261/261 264/264/264 263/263/263
f 267/267/267 266/266/266 265/265/265
f 265/265/265 268/268/268 267/267/267
f 271/271/271 270/270/270 269/269/269
f 269/269/269 272/272/272 271/271/271
f 275/275/275 274/274/274 273/273/273
f 273/273/273 276/276/276 275/275/275
f 279/279/279 278/278/278 277/277/277
f 277/277/277 280/280/280 279/279/279
f 283/283/283 282/282/282 281/281/281
f 281/281/281 284/284/284 283/283/283
f 287/287/287 286/286/286 285/285/285
f 285/285/285 288/288/288 287/287/287
f 291/291/291 290/290/290 289/289/289
f 289/289/289 292/292/292 291/291/291
f 295/295/295 294/294/294 293/293/293
f 293/293/293 296/296/296 295/295/295
f 299/299/299 298/298/298 297/297/297
f 297/297/297 300/300/300 299/299/299
f 303/303/303 302/302/302 301/301/301
f 301/301/301 304/304/304 303/303/303
f 307/307/307 306/306/306 305/305/305
f 305/305/305 308/308/308 307/307/307
f 311/311/311 310/310/310 309/309/309
f 309/309/309 312/312/312 311/311/311
f 315/315/315 314/314/314 313/313/313
f 313/313/313 316/316/316 315/315/315
f 319/319/319 318/318/318 317/317/317
f 317/317/317 320/320/320 319/319/319
f 323/323/323 322/322/322 321/321/321
f 321/321/321 324/324/324 323/323/323
