g zhaohe_2-mesh
v -288 927 0
v -288 1599 0
v -1536 1599 0
v -1536 927 0
v -288 287 0
v -288 927 0
v -1536 927 0
v -1536 287 0
v -1536 831 0
v -1536 1311 0
v -1824 1311 0
v -1824 831 0
v -1536 383 0
v -1536 831 0
v -1824 831 0
v -1824 383 0
v -1152 1599 0
v -1152 1855 0
v -1536 1855 0
v -1536 1599 0
v -768 1599 0
v -768 1855 0
v -1152 1855 0
v -1152 1599 0
v -928 1855 0
v -928 2047 0
v -1280 2047 0
v -1280 1855 0
v -96 703 0
v -96 1023 0
v -288 1023 0
v -288 703 0
v -96 383 0
v -96 703 0
v -288 703 0
v -288 383 0
v -960 127 0
v -960 287 0
v -1312 287 0
v -1312 127 0
v -608 127 0
v -608 287 0
v -960 287 0
v -960 127 0
v -640 1599 0
v -640 1759 0
v -768 1759 0
v -768 1599 0
v -768 31 0
v -768 127 0
v -960 127 0
v -960 31 0
v -1824 447 0
v -1824 575 0
v -1937 575 0
v -1937 447 0
v -960 31 0
v -960 127 0
v -1120 127 0
v -1120 31 0
v -1312 159 0
v -1312 287 0
v -1376 287 0
v -1376 159 0
v -1280 1855 0
v -1280 1919 0
v -1408 1919 0
v -1408 1855 0
v -1408 1855 0
v -1408 1919 0
v -1536 1919 0
v -1536 1855 0
v -1376 191 0
v -1376 287 0
v -1440 287 0
v -1440 191 0
v -576 1599 0
v -576 1695 0
v -640 1695 0
v -640 1599 0
v -1536 1567 0
v -1536 1663 0
v -1600 1663 0
v -1600 1567 0
v -32 415 0
v -32 511 0
v -96 511 0
v -96 415 0
v -32 511 0
v -32 607 0
v -96 607 0
v -96 511 0
v -416 223 0
v -416 287 0
v -512 287 0
v -512 223 0
v -512 223 0
v -512 287 0
v -608 287 0
v -608 223 0
v -1440 223 0
v -1440 287 0
v -1504 287 0
v -1504 223 0
v -704 63 0
v -704 127 0
v -768 127 0
v -768 63 0
v -1120 63 0
v -1120 127 0
v -1184 127 0
v -1184 63 0
v -1536 351 0
v -1536 383 0
v -1664 383 0
v -1664 351 0
v -832 0 0
v -832 31 0
v -960 31 0
v -960 0 0
v -1664 351 0
v -1664 383 0
v -1760 383 0
v -1760 351 0
v -960 0 0
v -960 31 0
v -1056 31 0
v -1056 0 0
v -1536 319 0
v -1536 351 0
v -1632 351 0
v -1632 319 0
v -544 1599 0
v -544 1663 0
v -576 1663 0
v -576 1599 0
v -1824 575 0
v -1824 607 0
v -1888 607 0
v -1888 575 0
v -704 1759 0
v -704 1791 0
v -768 1791 0
v -768 1759 0
v -1824 415 0
v -1824 447 0
v -1888 447 0
v -1888 415 0
v -544 159 0
v -544 191 0
v -608 191 0
v -608 159 0
v -1184 95 0
v -1184 127 0
v -1248 127 0
v -1248 95 0
v -1504 255 0
v -1504 287 0
v -1568 287 0
v -1568 255 0
v -224 319 0
v -224 351 0
v -288 351 0
v -288 319 0
v -352 255 0
v -352 287 0
v -416 287 0
v -416 255 0
v -1536 287 0
v -1536 319 0
v -1600 319 0
v -1600 287 0
v -160 351 0
v -160 383 0
v -224 383 0
v -224 351 0
v -224 351 0
v -224 383 0
v -288 383 0
v -288 351 0
v -0 511 0
v -0 575 0
v -32 575 0
v -32 511 0
v -0 447 0
v -0 511 0
v -32 511 0
v -32 447 0
v -1632 319 0
v -1632 351 0
v -1696 351 0
v -1696 319 0
v -480 191 0
v -480 223 0
v -544 223 0
v -544 191 0
v -1536 1439 0
v -1536 1503 0
v -1568 1503 0
v -1568 1439 0
v -544 191 0
v -544 223 0
v -608 223 0
v -608 191 0
v -1600 1599 0
v -1600 1631 0
v -1632 1631 0
v -1632 1599 0
v -672 95 0
v -672 127 0
v -704 127 0
v -704 95 0
v -608 1695 0
v -608 1727 0
v -640 1727 0
v -640 1695 0
v -1536 1407 0
v -1536 1439 0
v -1568 1439 0
v -1568 1407 0
v -1600 287 0
v -1600 319 0
v -1632 319 0
v -1632 287 0
vt 0.00048828125 0.000676572323
vt 0.00048828125 0.455345035
vt 0.609863281 0.455345035
vt 0.609863281 0.000676572323
vt 0.00048828125 0.456698239
vt 0.00048828125 0.88971585
vt 0.609863281 0.88971585
vt 0.609863281 0.456698239
vt 0.610839844 0.000676572323
vt 0.610839844 0.325439811
vt 0.751464844 0.325439811
vt 0.751464844 0.000676572323
vt 0.752441406 0.000676572323
vt 0.752441406 0.3037889
vt 0.893066406 0.3037889
vt 0.893066406 0.000676572323
vt 0.752441406 0.305142105
vt 0.752441406 0.478349149
vt 0.939941406 0.478349149
vt 0.939941406 0.305142105
vt 0.752441406 0.479702294
vt 0.752441406 0.652909338
vt 0.939941406 0.652909338
vt 0.939941406 0.479702294
vt 0.752441406 0.654262543
vt 0.752441406 0.784167767
vt 0.924316406 0.784167767
vt 0.924316406 0.654262543
vt 0.610839844 0.326792955
vt 0.610839844 0.543301761
vt 0.704589844 0.543301761
vt 0.704589844 0.326792955
vt 0.610839844 0.544654965
vt 0.610839844 0.761163712
vt 0.704589844 0.761163712
vt 0.704589844 0.544654965
vt 0.752441406 0.785520971
vt 0.752441406 0.893775344
vt 0.924316406 0.893775344
vt 0.924316406 0.785520971
vt 0.00048828125 0.891068995
vt 0.00048828125 0.999323428
vt 0.172363281 0.999323428
vt 0.172363281 0.891068995
vt 0.925292969 0.654262543
vt 0.925292969 0.762516916
vt 0.987792969 0.762516916
vt 0.987792969 0.654262543
vt 0.610839844 0.762516916
vt 0.610839844 0.827469587
vt 0.704589844 0.827469587
vt 0.704589844 0.762516916
vt 0.925292969 0.76387012
vt 0.925292969 0.850473642
vt 0.980957031 0.850473642
vt 0.980957031 0.76387012
vt 0.610839844 0.828822732
vt 0.610839844 0.893775344
vt 0.688964844 0.893775344
vt 0.688964844 0.828822732
vt 0.705566406 0.326792955
vt 0.705566406 0.413396478
vt 0.736816406 0.413396478
vt 0.736816406 0.326792955
vt 0.925292969 0.851826787
vt 0.925292969 0.895128548
vt 0.987792969 0.895128548
vt 0.987792969 0.851826787
vt 0.173339844 0.891068995
vt 0.173339844 0.934370756
vt 0.235839844 0.934370756
vt 0.235839844 0.891068995
vt 0.705566406 0.414749682
vt 0.705566406 0.479702294
vt 0.736816406 0.479702294
vt 0.736816406 0.414749682
vt 0.705566406 0.481055498
vt 0.705566406 0.54600811
vt 0.736816406 0.54600811
vt 0.736816406 0.481055498
vt 0.705566406 0.547361255
vt 0.705566406 0.612313926
vt 0.736816406 0.612313926
vt 0.736816406 0.547361255
vt 0.705566406 0.61366713
vt 0.705566406 0.678619742
vt 0.736816406 0.678619742
vt 0.736816406 0.61366713
vt 0.705566406 0.679972947
vt 0.705566406 0.744925618
vt 0.736816406 0.744925618
vt 0.736816406 0.679972947
vt 0.689941406 0.828822732
vt 0.689941406 0.872124493
vt 0.736816406 0.872124493
vt 0.736816406 0.828822732
vt 0.689941406 0.873477697
vt 0.689941406 0.916779399
vt 0.736816406 0.916779399
vt 0.736816406 0.873477697
vt 0.236816406 0.891068995
vt 0.236816406 0.934370756
vt 0.268066406 0.934370756
vt 0.268066406 0.891068995
vt 0.269042969 0.891068995
vt 0.269042969 0.934370756
vt 0.300292969 0.934370756
vt 0.300292969 0.891068995
vt 0.301269531 0.891068995
vt 0.301269531 0.934370756
vt 0.332519531 0.934370756
vt 0.332519531 0.891068995
vt 0.333496094 0.891068995
vt 0.333496094 0.912719905
vt 0.395996094 0.912719905
vt 0.395996094 0.891068995
vt 0.396972656 0.891068995
vt 0.396972656 0.912719905
vt 0.459472656 0.912719905
vt 0.459472656 0.891068995
vt 0.460449219 0.891068995
vt 0.460449219 0.912719905
vt 0.507324219 0.912719905
vt 0.507324219 0.891068995
vt 0.508300781 0.891068995
vt 0.508300781 0.912719905
vt 0.555175781 0.912719905
vt 0.555175781 0.891068995
vt 0.556152344 0.891068995
vt 0.556152344 0.912719905
vt 0.603027344 0.912719905
vt 0.603027344 0.891068995
vt 0.610839844 0.895128548
vt 0.610839844 0.938430309
vt 0.626464844 0.938430309
vt 0.626464844 0.895128548
vt 0.627441406 0.895128548
vt 0.627441406 0.916779399
vt 0.658691406 0.916779399
vt 0.658691406 0.895128548
vt 0.752441406 0.895128548
vt 0.752441406 0.916779399
vt 0.783691406 0.916779399
vt 0.783691406 0.895128548
vt 0.784667969 0.895128548
vt 0.784667969 0.916779399
vt 0.815917969 0.916779399
vt 0.815917969 0.895128548
vt 0.816894531 0.895128548
vt 0.816894531 0.916779399
vt 0.848144531 0.916779399
vt 0.848144531 0.895128548
vt 0.849121094 0.895128548
vt 0.849121094 0.916779399
vt 0.880371094 0.916779399
vt 0.880371094 0.895128548
vt 0.881347656 0.895128548
vt 0.881347656 0.916779399
vt 0.912597656 0.916779399
vt 0.912597656 0.895128548
vt 0.925292969 0.896481752
vt 0.925292969 0.918132603
vt 0.956542969 0.918132603
vt 0.956542969 0.896481752
vt 0.957519531 0.896481752
vt 0.957519531 0.918132603
vt 0.988769531 0.918132603
vt 0.988769531 0.896481752
vt 0.333496094 0.91407305
vt 0.333496094 0.93572396
vt 0.364746094 0.93572396
vt 0.364746094 0.91407305
vt 0.365722656 0.91407305
vt 0.365722656 0.93572396
vt 0.396972656 0.93572396
vt 0.396972656 0.91407305
vt 0.397949219 0.91407305
vt 0.397949219 0.93572396
vt 0.429199219 0.93572396
vt 0.429199219 0.91407305
vt 0.659667969 0.895128548
vt 0.659667969 0.938430309
vt 0.675292969 0.938430309
vt 0.675292969 0.895128548
vt 0.430175781 0.91407305
vt 0.430175781 0.957374811
vt 0.445800781 0.957374811
vt 0.445800781 0.91407305
vt 0.446777344 0.91407305
vt 0.446777344 0.93572396
vt 0.478027344 0.93572396
vt 0.478027344 0.91407305
vt 0.479003906 0.91407305
vt 0.479003906 0.93572396
vt 0.510253906 0.93572396
vt 0.510253906 0.91407305
vt 0.511230469 0.91407305
vt 0.511230469 0.957374811
vt 0.526855469 0.957374811
vt 0.526855469 0.91407305
vt 0.527832031 0.91407305
vt 0.527832031 0.93572396
vt 0.559082031 0.93572396
vt 0.559082031 0.91407305
vt 0.560058594 0.91407305
vt 0.560058594 0.93572396
vt 0.575683594 0.93572396
vt 0.575683594 0.91407305
vt 0.576660156 0.91407305
vt 0.576660156 0.93572396
vt 0.592285156 0.93572396
vt 0.592285156 0.91407305
vt 0.593261719 0.91407305
vt 0.593261719 0.93572396
vt 0.608886719 0.93572396
vt 0.608886719 0.91407305
vt 0.627441406 0.918132603
vt 0.627441406 0.939783514
vt 0.643066406 0.939783514
vt 0.643066406 0.918132603
vt 0.689941406 0.918132603
vt 0.689941406 0.939783514
vt 0.705566406 0.939783514
vt 0.705566406 0.918132603
g zhaohe_2-mesh_0
f 3/3/3 2/2/2 1/1/1
f 1/1/1 4/4/4 3/3/3
f 7/7/7 6/6/6 5/5/5
f 5/5/5 8/8/8 7/7/7
f 11/11/11 10/10/10 9/9/9
f 9/9/9 12/12/12 11/11/11
f 15/15/15 14/14/14 13/13/13
f 13/13/13 16/16/16 15/15/15
f 19/19/19 18/18/18 17/17/17
f 17/17/17 20/20/20 19/19/19
f 23/23/23 22/22/22 21/21/21
f 21/21/21 24/24/24 23/23/23
f 27/27/27 26/26/26 25/25/25
f 25/25/25 28/28/28 27/27/27
f 31/31/31 30/30/30 29/29/29
f 29/29/29 32/32/32 31/31/31
f 35/35/35 34/34/34 33/33/33
f 33/33/33 36/36/36 35/35/35
f 39/39/39 38/38/38 37/37/37
f 37/37/37 40/40/40 39/39/39
f 43/43/43 42/42/42 41/41/41
f 41/41/41 44/44/44 43/43/43
f 47/47/47 46/46/46 45/45/45
f 45/45/45 48/48/48 47/47/47
f 51/51/51 50/50/50 49/49/49
f 49/49/49 52/52/52 51/51/51
f 55/55/55 54/54/54 53/53/53
f 53/53/53 56/56/56 55/55/55
f 59/59/59 58/58/58 57/57/57
f 57/57/57 60/60/60 59/59/59
f 63/63/63 62/62/62 61/61/61
f 61/61/61 64/64/64 63/63/63
f 67/67/67 66/66/66 65/65/65
f 65/65/65 68/68/68 67/67/67
f 71/71/71 70/70/70 69/69/69
f 69/69/69 72/72/72 71/71/71
f 75/75/75 74/74/74 73/73/73
f 73/73/73 76/76/76 75/75/75
f 79/79/79 78/78/78 77/77/77
f 77/77/77 80/80/80 79/79/79
f 83/83/83 82/82/82 81/81/81
f 81/81/81 84/84/84 83/83/83
f 87/87/87 86/86/86 85/85/85
f 85/85/85 88/88/88 87/87/87
f 91/91/91 90/90/90 89/89/89
f 89/89/89 92/92/92 91/91/91
f 95/95/95 94/94/94 93/93/93
f 93/93/93 96/96/96 95/95/95
f 99/99/99 98/98/98 97/97/97
f 97/97/97 100/100/100 99/99/99
f 103/103/103 102/102/102 101/101/101
f 101/101/101 104/104/104 103/103/103
f 107/107/107 106/106/106 105/105/105
f 105/105/105 108/108/108 107/107/107
f 111/111/111 110/110/110 109/109/109
f 109/109/109 112/112/112 111/111/111
f 115/115/115 114/114/114 113/113/113
f 113/113/113 116/116/116 115/115/115
f 119/119/119 118/118/118 117/117/117
f 117/117/117 120/120/120 119/119/119
f 123/123/123 122/122/122 121/121/121
f 121/121/121 124/124/124 123/123/123
f 127/127/127 126/126/126 125/125/125
f 125/125/125 128/128/128 127/127/127
f 131/131/131 130/130/130 129/129/129
f 129/129/129 132/132/132 131/131/131
f 135/135/135 134/134/134 133/133/133
f 133/133/133 136/136/136 135/135/135
f 139/139/139 138/138/138 137/137/137
f 137/137/137 140/140/140 139/139/139
f 143/143/143 142/142/142 141/141/141
f 141/141/141 144/144/144 143/143/143
f 147/147/147 146/146/146 145/145/145
f 145/145/145 148/148/148 147/147/147
f 151/151/151 150/150/150 149/149/149
f 149/149/149 152/152/152 151/151/151
f 155/155/155 154/154/154 153/153/153
f 153/153/153 156/156/156 155/155/155
f 159/159/159 158/158/158 157/157/157
f 157/157/157 160/160/160 159/159/159
f 163/163/163 162/162/162 161/161/161
f 161/161/161 164/164/164 163/163/163
f 167/167/167 166/166/166 165/165/165
f 165/165/165 168/168/168 167/167/167
f 171/171/171 170/170/170 169/169/169
f 169/169/169 172/172/172 171/171/171
f 175/175/175 174/174/174 173/173/173
f 173/173/173 176/176/176 175/175/175
f 179/179/179 178/178/178 177/177/177
f 177/177/177 180/180/180 179/179/179
f 183/183/183 182/182/182 181/181/181
f 181/181/181 184/184/184 183/183/183
f 187/187/187 186/186/186 185/185/185
f 185/185/185 188/188/188 187/187/187
f 191/191/191 190/190/190 189/189/189
f 189/189/189 192/192/192 191/191/191
f 195/195/195 194/194/194 193/193/193
f 193/193/193 196/196/196 195/195/195
f 199/199/199 198/198/198 197/197/197
f 197/197/197 200/200/200 199/199/199
f 203/203/203 202/202/202 201/201/201
f 201/201/201 204/204/204 203/203/203
f 207/207/207 206/206/206 205/205/205
f 205/205/205 208/208/208 207/207/207
f 211/211/211 210/210/210 209/209/209
f 209/209/209 212/212/212 211/211/211
f 215/215/215 214/214/214 213/213/213
f 213/213/213 216/216/216 215/215/215
f 219/219/219 218/218/218 217/217/217
f 217/217/217 220/220/220 219/219/219
f 223/223/223 222/222/222 221/221/221
f 221/221/221 224/224/224 223/223/223
