g salatuojia_10-mesh
v -1088 173 0
v -1088 973 0
v -1952 973 0
v -1952 173 0
v -224 173 0
v -224 973 0
v -1088 973 0
v -1088 173 0
v -544 973 0
v -544 1453 0
v -864 1453 0
v -864 973 0
v -864 973 0
v -864 1453 0
v -1152 1453 0
v -1152 973 0
v -32 493 0
v -32 813 0
v -224 813 0
v -224 493 0
v -32 205 0
v -32 493 0
v -224 493 0
v -224 205 0
v -1152 973 0
v -1152 1165 0
v -1408 1165 0
v -1408 973 0
v -1408 973 0
v -1408 1165 0
v -1632 1165 0
v -1632 973 0
v -544 109 0
v -544 173 0
v -1088 173 0
v -1088 109 0
v -288 973 0
v -288 1101 0
v -544 1101 0
v -544 973 0
v -1088 109 0
v -1088 173 0
v -1600 173 0
v -1600 109 0
v -1952 205 0
v -1952 461 0
v -2047 461 0
v -2047 205 0
v -1952 461 0
v -1952 717 0
v -2047 717 0
v -2047 461 0
v -672 1453 0
v -672 1549 0
v -896 1549 0
v -896 1453 0
v -448 1453 0
v -448 1549 0
v -672 1549 0
v -672 1453 0
v -992 1453 0
v -992 1613 0
v -1120 1613 0
v -1120 1453 0
v -1312 1229 0
v -1312 1325 0
v -1472 1325 0
v -1472 1229 0
v -1664 973 0
v -1664 1069 0
v -1792 1069 0
v -1792 973 0
v -1216 1165 0
v -1216 1293 0
v -1312 1293 0
v -1312 1165 0
v -1216 1293 0
v -1216 1421 0
v -1312 1421 0
v -1312 1293 0
v -0 333 0
v -0 557 0
v -32 557 0
v -32 333 0
v -0 557 0
v -0 781 0
v -32 781 0
v -32 557 0
v -384 1517 0
v -384 1613 0
v -448 1613 0
v -448 1517 0
v -480 1165 0
v -480 1261 0
v -544 1261 0
v -544 1165 0
v -160 813 0
v -160 909 0
v -224 909 0
v -224 813 0
v -384 1101 0
v -384 1165 0
v -480 1165 0
v -480 1101 0
v -1152 1165 0
v -1152 1261 0
v -1216 1261 0
v -1216 1165 0
v -1376 1165 0
v -1376 1229 0
v -1472 1229 0
v -1472 1165 0
v -1472 1165 0
v -1472 1229 0
v -1568 1229 0
v -1568 1165 0
v -768 1549 0
v -768 1613 0
v -864 1613 0
v -864 1549 0
v -672 1549 0
v -672 1613 0
v -768 1613 0
v -768 1549 0
v -192 141 0
v -192 173 0
v -384 173 0
v -384 141 0
v -384 141 0
v -384 173 0
v -544 173 0
v -544 141 0
v -992 1613 0
v -992 1677 0
v -1056 1677 0
v -1056 1613 0
v -224 973 0
v -224 1037 0
v -288 1037 0
v -288 973 0
v -1216 1421 0
v -1216 1485 0
v -1280 1485 0
v -1280 1421 0
v -1600 141 0
v -1600 173 0
v -1728 173 0
v -1728 141 0
v -480 1101 0
v -480 1165 0
v -544 1165 0
v -544 1101 0
v -1728 141 0
v -1728 173 0
v -1824 173 0
v -1824 141 0
v -1632 1069 0
v -1632 1165 0
v -1664 1165 0
v -1664 1069 0
v -1952 781 0
v -1952 877 0
v -1984 877 0
v -1984 781 0
v -1792 973 0
v -1792 1005 0
v -1888 1005 0
v -1888 973 0
v -1344 1325 0
v -1344 1357 0
v -1408 1357 0
v -1408 1325 0
v -1472 1229 0
v -1472 1261 0
v -1536 1261 0
v -1536 1229 0
v -896 1453 0
v -896 1517 0
v -928 1517 0
v -928 1453 0
v -352 1581 0
v -352 1645 0
v -384 1645 0
v -384 1581 0
v -352 109 0
v -352 141 0
v -416 141 0
v -416 109 0
v -1664 1069 0
v -1664 1133 0
v -1696 1133 0
v -1696 1069 0
v -1952 173 0
v -1952 205 0
v -2016 205 0
v -2016 173 0
v -128 813 0
v -128 877 0
v -160 877 0
v -160 813 0
v -256 109 0
v -256 141 0
v -320 141 0
v -320 109 0
v -1792 1005 0
v -1792 1037 0
v -1856 1037 0
v -1856 1005 0
v -160 941 0
v -160 1005 0
v -192 1005 0
v -192 941 0
v -128 173 0
v -128 205 0
v -192 205 0
v -192 173 0
v -1632 1005 0
v -1632 1069 0
v -1664 1069 0
v -1664 1005 0
v -1312 1357 0
v -1312 1421 0
v -1344 1421 0
v -1344 1357 0
v -1120 1485 0
v -1120 1549 0
v -1152 1549 0
v -1152 1485 0
v -1888 973 0
v -1888 1005 0
v -1952 1005 0
v -1952 973 0
v -1952 717 0
v -1952 781 0
v -1984 781 0
v -1984 717 0
v -448 1549 0
v -448 1581 0
v -512 1581 0
v -512 1549 0
v -512 1293 0
v -512 1357 0
v -544 1357 0
v -544 1293 0
v -1152 1261 0
v -1152 1293 0
v -1184 1293 0
v -1184 1261 0
v -1568 1165 0
v -1568 1197 0
v -1600 1197 0
v -1600 1165 0
v -1696 1069 0
v -1696 1101 0
v -1728 1101 0
v -1728 1069 0
v -1312 1165 0
v -1312 1197 0
v -1344 1197 0
v -1344 1165 0
v -448 1165 0
v -448 1197 0
v -480 1197 0
v -480 1165 0
v -352 1101 0
v -352 1133 0
v -384 1133 0
v -384 1101 0
v -96 813 0
v -96 845 0
v -128 845 0
v -128 813 0
v -1984 717 0
v -1984 749 0
v -2016 749 0
v -2016 717 0
v -0 269 0
v -0 301 0
v -32 301 0
v -32 269 0
v -1312 45 0
v -1312 77 0
v -1344 77 0
v -1344 45 0
v -256 1037 0
v -256 1069 0
v -288 1069 0
v -288 1037 0
v -192 909 0
v -192 941 0
v -224 941 0
v -224 909 0
v -1312 1325 0
v -1312 1357 0
v -1344 1357 0
v -1344 1325 0
v -1120 1453 0
v -1120 1485 0
v -1152 1485 0
v -1152 1453 0
v -512 1549 0
v -512 1581 0
v -544 1581 0
v -544 1549 0
v -192 173 0
v -192 205 0
v -224 205 0
v -224 173 0
v -512 1261 0
v -512 1293 0
v -544 1293 0
v -544 1261 0
v -416 109 0
v -416 141 0
v -448 141 0
v -448 109 0
v -864 1549 0
v -864 1581 0
v -896 1581 0
v -896 1549 0
v -416 1485 0
v -416 1517 0
v -448 1517 0
v -448 1485 0
v -928 1453 0
v -928 1485 0
v -960 1485 0
v -960 1453 0
v -384 1613 0
v -384 1645 0
v -416 1645 0
v -416 1613 0
v -448 1581 0
v -448 1613 0
v -480 1613 0
v -480 1581 0
v -640 1549 0
v -640 1581 0
v -672 1581 0
v -672 1549 0
vt 0.00048828125 0.000778794289
vt 0.00048828125 0.623831749
vt 0.422363281 0.623831749
vt 0.422363281 0.000778794289
vt 0.423339844 0.000778794289
vt 0.423339844 0.623831749
vt 0.845214844 0.623831749
vt 0.845214844 0.000778794289
vt 0.00048828125 0.625389397
vt 0.00048828125 0.999221206
vt 0.156738281 0.999221206
vt 0.156738281 0.625389397
vt 0.846191406 0.000778794289
vt 0.846191406 0.374610603
vt 0.986816406 0.374610603
vt 0.986816406 0.000778794289
vt 0.846191406 0.376168251
vt 0.846191406 0.625389397
vt 0.939941406 0.625389397
vt 0.939941406 0.376168251
vt 0.157714844 0.625389397
vt 0.157714844 0.84968847
vt 0.251464844 0.84968847
vt 0.251464844 0.625389397
vt 0.252441406 0.625389397
vt 0.252441406 0.774922132
vt 0.377441406 0.774922132
vt 0.377441406 0.625389397
vt 0.378417969 0.625389397
vt 0.378417969 0.774922132
vt 0.487792969 0.774922132
vt 0.487792969 0.625389397
vt 0.488769531 0.625389397
vt 0.488769531 0.675233603
vt 0.754394531 0.675233603
vt 0.754394531 0.625389397
vt 0.846191406 0.626947045
vt 0.846191406 0.726635516
vt 0.971191406 0.726635516
vt 0.971191406 0.626947045
vt 0.488769531 0.67679131
vt 0.488769531 0.726635516
vt 0.738769531 0.726635516
vt 0.738769531 0.67679131
vt 0.755371094 0.625389397
vt 0.755371094 0.824766338
vt 0.802246094 0.824766338
vt 0.802246094 0.625389397
vt 0.488769531 0.728193164
vt 0.488769531 0.927570105
vt 0.535644531 0.927570105
vt 0.535644531 0.728193164
vt 0.536621094 0.728193164
vt 0.536621094 0.802959502
vt 0.645996094 0.802959502
vt 0.645996094 0.728193164
vt 0.846191406 0.728193164
vt 0.846191406 0.802959502
vt 0.955566406 0.802959502
vt 0.955566406 0.728193164
vt 0.646972656 0.728193164
vt 0.646972656 0.852803707
vt 0.709472656 0.852803707
vt 0.709472656 0.728193164
vt 0.252441406 0.776479721
vt 0.252441406 0.851246119
vt 0.330566406 0.851246119
vt 0.330566406 0.776479721
vt 0.331542969 0.776479721
vt 0.331542969 0.851246119
vt 0.394042969 0.851246119
vt 0.394042969 0.776479721
vt 0.395019531 0.776479721
vt 0.395019531 0.876168251
vt 0.441894531 0.876168251
vt 0.441894531 0.776479721
vt 0.536621094 0.80451715
vt 0.536621094 0.90420562
vt 0.583496094 0.90420562
vt 0.583496094 0.80451715
vt 0.972167969 0.376168251
vt 0.972167969 0.550623059
vt 0.987792969 0.550623059
vt 0.987792969 0.376168251
vt 0.972167969 0.552180648
vt 0.972167969 0.726635516
vt 0.987792969 0.726635516
vt 0.987792969 0.552180648
vt 0.803222656 0.625389397
vt 0.803222656 0.700155735
vt 0.834472656 0.700155735
vt 0.834472656 0.625389397
vt 0.803222656 0.701713383
vt 0.803222656 0.776479721
vt 0.834472656 0.776479721
vt 0.834472656 0.701713383
vt 0.710449219 0.728193164
vt 0.710449219 0.802959502
vt 0.741699219 0.802959502
vt 0.741699219 0.728193164
vt 0.584472656 0.80451715
vt 0.584472656 0.854361355
vt 0.631347656 0.854361355
vt 0.631347656 0.80451715
vt 0.956542969 0.728193164
vt 0.956542969 0.802959502
vt 0.987792969 0.802959502
vt 0.987792969 0.728193164
vt 0.846191406 0.80451715
vt 0.846191406 0.854361355
vt 0.893066406 0.854361355
vt 0.893066406 0.80451715
vt 0.894042969 0.80451715
vt 0.894042969 0.854361355
vt 0.940917969 0.854361355
vt 0.940917969 0.80451715
vt 0.941894531 0.80451715
vt 0.941894531 0.854361355
vt 0.988769531 0.854361355
vt 0.988769531 0.80451715
vt 0.755371094 0.826323986
vt 0.755371094 0.876168251
vt 0.802246094 0.876168251
vt 0.802246094 0.826323986
vt 0.157714844 0.851246119
vt 0.157714844 0.876168251
vt 0.251464844 0.876168251
vt 0.251464844 0.851246119
vt 0.252441406 0.852803707
vt 0.252441406 0.87772584
vt 0.330566406 0.87772584
vt 0.330566406 0.852803707
vt 0.442871094 0.776479721
vt 0.442871094 0.826323986
vt 0.474121094 0.826323986
vt 0.474121094 0.776479721
vt 0.803222656 0.778037369
vt 0.803222656 0.827881634
vt 0.834472656 0.827881634
vt 0.834472656 0.778037369
vt 0.710449219 0.80451715
vt 0.710449219 0.854361355
vt 0.741699219 0.854361355
vt 0.741699219 0.80451715
vt 0.331542969 0.852803707
vt 0.331542969 0.87772584
vt 0.394042969 0.87772584
vt 0.394042969 0.852803707
vt 0.442871094 0.827881634
vt 0.442871094 0.87772584
vt 0.474121094 0.87772584
vt 0.474121094 0.827881634
vt 0.646972656 0.854361355
vt 0.646972656 0.879283488
vt 0.693847656 0.879283488
vt 0.693847656 0.854361355
vt 0.803222656 0.829439282
vt 0.803222656 0.90420562
vt 0.818847656 0.90420562
vt 0.818847656 0.829439282
vt 0.819824219 0.829439282
vt 0.819824219 0.90420562
vt 0.835449219 0.90420562
vt 0.835449219 0.829439282
vt 0.584472656 0.855919003
vt 0.584472656 0.880841136
vt 0.631347656 0.880841136
vt 0.631347656 0.855919003
vt 0.710449219 0.855919003
vt 0.710449219 0.880841136
vt 0.741699219 0.880841136
vt 0.741699219 0.855919003
vt 0.846191406 0.855919003
vt 0.846191406 0.880841136
vt 0.877441406 0.880841136
vt 0.877441406 0.855919003
vt 0.878417969 0.855919003
vt 0.878417969 0.905763268
vt 0.894042969 0.905763268
vt 0.894042969 0.855919003
vt 0.895019531 0.855919003
vt 0.895019531 0.905763268
vt 0.910644531 0.905763268
vt 0.910644531 0.855919003
vt 0.911621094 0.855919003
vt 0.911621094 0.880841136
vt 0.942871094 0.880841136
vt 0.942871094 0.855919003
vt 0.943847656 0.855919003
vt 0.943847656 0.905763268
vt 0.959472656 0.905763268
vt 0.959472656 0.855919003
vt 0.960449219 0.855919003
vt 0.960449219 0.880841136
vt 0.991699219 0.880841136
vt 0.991699219 0.855919003
vt 0.157714844 0.87772584
vt 0.157714844 0.927570105
vt 0.173339844 0.927570105
vt 0.173339844 0.87772584
vt 0.174316406 0.87772584
vt 0.174316406 0.902647972
vt 0.205566406 0.902647972
vt 0.205566406 0.87772584
vt 0.206542969 0.87772584
vt 0.206542969 0.902647972
vt 0.237792969 0.902647972
vt 0.237792969 0.87772584
vt 0.395019531 0.87772584
vt 0.395019531 0.927570105
vt 0.410644531 0.927570105
vt 0.410644531 0.87772584
vt 0.755371094 0.87772584
vt 0.755371094 0.902647972
vt 0.786621094 0.902647972
vt 0.786621094 0.87772584
vt 0.411621094 0.87772584
vt 0.411621094 0.927570105
vt 0.427246094 0.927570105
vt 0.427246094 0.87772584
vt 0.252441406 0.879283488
vt 0.252441406 0.929127693
vt 0.268066406 0.929127693
vt 0.268066406 0.879283488
vt 0.269042969 0.879283488
vt 0.269042969 0.929127693
vt 0.284667969 0.929127693
vt 0.284667969 0.879283488
vt 0.285644531 0.879283488
vt 0.285644531 0.90420562
vt 0.316894531 0.90420562
vt 0.316894531 0.879283488
vt 0.317871094 0.879283488
vt 0.317871094 0.929127693
vt 0.333496094 0.929127693
vt 0.333496094 0.879283488
vt 0.334472656 0.879283488
vt 0.334472656 0.90420562
vt 0.365722656 0.90420562
vt 0.365722656 0.879283488
vt 0.366699219 0.879283488
vt 0.366699219 0.929127693
vt 0.382324219 0.929127693
vt 0.382324219 0.879283488
vt 0.442871094 0.879283488
vt 0.442871094 0.90420562
vt 0.458496094 0.90420562
vt 0.458496094 0.879283488
vt 0.459472656 0.879283488
vt 0.459472656 0.90420562
vt 0.475097656 0.90420562
vt 0.475097656 0.879283488
vt 0.646972656 0.880841136
vt 0.646972656 0.905763268
vt 0.662597656 0.905763268
vt 0.662597656 0.880841136
vt 0.663574219 0.880841136
vt 0.663574219 0.905763268
vt 0.679199219 0.905763268
vt 0.679199219 0.880841136
vt 0.680175781 0.880841136
vt 0.680175781 0.905763268
vt 0.695800781 0.905763268
vt 0.695800781 0.880841136
vt 0.584472656 0.882398725
vt 0.584472656 0.907320857
vt 0.600097656 0.907320857
vt 0.600097656 0.882398725
vt 0.601074219 0.882398725
vt 0.601074219 0.907320857
vt 0.616699219 0.907320857
vt 0.616699219 0.882398725
vt 0.617675781 0.882398725
vt 0.617675781 0.907320857
vt 0.633300781 0.907320857
vt 0.633300781 0.882398725
vt 0.710449219 0.882398725
vt 0.710449219 0.907320857
vt 0.726074219 0.907320857
vt 0.726074219 0.882398725
vt 0.727050781 0.882398725
vt 0.727050781 0.907320857
vt 0.742675781 0.907320857
vt 0.742675781 0.882398725
vt 0.846191406 0.882398725
vt 0.846191406 0.907320857
vt 0.861816406 0.907320857
vt 0.861816406 0.882398725
vt 0.911621094 0.882398725
vt 0.911621094 0.907320857
vt 0.927246094 0.907320857
vt 0.927246094 0.882398725
vt 0.960449219 0.882398725
vt 0.960449219 0.907320857
vt 0.976074219 0.907320857
vt 0.976074219 0.882398725
vt 0.977050781 0.882398725
vt 0.977050781 0.907320857
vt 0.992675781 0.907320857
vt 0.992675781 0.882398725
vt 0.174316406 0.90420562
vt 0.174316406 0.929127693
vt 0.189941406 0.929127693
vt 0.189941406 0.90420562
vt 0.190917969 0.90420562
vt 0.190917969 0.929127693
vt 0.206542969 0.929127693
vt 0.206542969 0.90420562
vt 0.207519531 0.90420562
vt 0.207519531 0.929127693
vt 0.223144531 0.929127693
vt 0.223144531 0.90420562
vt 0.224121094 0.90420562
vt 0.224121094 0.929127693
vt 0.239746094 0.929127693
vt 0.239746094 0.90420562
vt 0.755371094 0.90420562
vt 0.755371094 0.929127693
vt 0.770996094 0.929127693
vt 0.770996094 0.90420562
vt 0.771972656 0.90420562
vt 0.771972656 0.929127693
vt 0.787597656 0.929127693
vt 0.787597656 0.90420562
vt 0.285644531 0.905763268
vt 0.285644531 0.930685341
vt 0.301269531 0.930685341
vt 0.301269531 0.905763268
vt 0.334472656 0.905763268
vt 0.334472656 0.930685341
vt 0.350097656 0.930685341
vt 0.350097656 0.905763268
vt 0.442871094 0.905763268
vt 0.442871094 0.930685341
vt 0.458496094 0.930685341
vt 0.458496094 0.905763268
vt 0.459472656 0.905763268
vt 0.459472656 0.930685341
vt 0.475097656 0.930685341
vt 0.475097656 0.905763268
g salatuojia_10-mesh_0
f 3/3/3 2/2/2 1/1/1
f 1/1/1 4/4/4 3/3/3
f 7/7/7 6/6/6 5/5/5
f 5/5/5 8/8/8 7/7/7
f 11/11/11 10/10/10 9/9/9
f 9/9/9 12/12/12 11/11/11
f 15/15/15 14/14/14 13/13/13
f 13/13/13 16/16/16 15/15/15
f 19/19/19 18/18/18 17/17/17
f 17/17/17 20/20/20 19/19/19
f 23/23/23 22/22/22 21/21/21
f 21/21/21 24/24/24 23/23/23
f 27/27/27 26/26/26 25/25/25
f 25/25/25 28/28/28 27/27/27
f 31/31/31 30/30/30 29/29/29
f 29/29/29 32/32/32 31/31/31
f 35/35/35 34/34/34 33/33/33
f 33/33/33 36/36/36 35/35/35
f 39/39/39 38/38/38 37/37/37
f 37/37/37 40/40/40 39/39/39
f 43/43/43 42/42/42 41/41/41
f 41/41/41 44/44/44 43/43/43
f 47/47/47 46/46/46 45/45/45
f 45/45/45 48/48/48 47/47/47
f 51/51/51 50/50/50 49/49/49
f 49/49/49 52/52/52 51/51/51
f 55/55/55 54/54/54 53/53/53
f 53/53/53 56/56/56 55/55/55
f 59/59/59 58/58/58 57/57/57
f 57/57/57 60/60/60 59/59/59
f 63/63/63 62/62/62 61/61/61
f 61/61/61 64/64/64 63/63/63
f 67/67/67 66/66/66 65/65/65
f 65/65/65 68/68/68 67/67/67
f 71/71/71 70/70/70 69/69/69
f 69/69/69 72/72/72 71/71/71
f 75/75/75 74/74/74 73/73/73
f 73/73/73 76/76/76 75/75/75
f 79/79/79 78/78/78 77/77/77
f 77/77/77 80/80/80 79/79/79
f 83/83/83 82/82/82 81/81/81
f 81/81/81 84/84/84 83/83/83
f 87/87/87 86/86/86 85/85/85
f 85/85/85 88/88/88 87/87/87
f 91/91/91 90/90/90 89/89/89
f 89/89/89 92/92/92 91/91/91
f 95/95/95 94/94/94 93/93/93
f 93/93/93 96/96/96 95/95/95
f 99/99/99 98/98/98 97/97/97
f 97/97/97 100/100/100 99/99/99
f 103/103/103 102/102/102 101/101/101
f 101/101/101 104/104/104 103/103/103
f 107/107/107 106/106/106 105/105/105
f 105/105/105 108/108/108 107/107/107
f 111/111/111 110/110/110 109/109/109
f 109/109/109 112/112/112 111/111/111
f 115/115/115 114/114/114 113/113/113
f 113/113/113 116/116/116 115/115/115
f 119/119/119 118/118/118 117/117/117
f 117/117/117 120/120/120 119/119/119
f 123/123/123 122/122/122 121/121/121
f 121/121/121 124/124/124 123/123/123
f 127/127/127 126/126/126 125/125/125
f 125/125/125 128/128/128 127/127/127
f 131/131/131 130/130/130 129/129/129
f 129/129/129 132/132/132 131/131/131
f 135/135/135 134/134/134 133/133/133
f 133/133/133 136/136/136 135/135/135
f 139/139/139 138/138/138 137/137/137
f 137/137/137 140/140/140 139/139/139
f 143/143/143 142/142/142 141/141/141
f 141/141/141 144/144/144 143/143/143
f 147/147/147 146/146/146 145/145/145
f 145/145/145 148/148/148 147/147/147
f 151/151/151 150/150/150 149/149/149
f 149/149/149 152/152/152 151/151/151
f 155/155/155 154/154/154 153/153/153
f 153/153/153 156/156/156 155/155/155
f 159/159/159 158/158/158 157/157/157
f 157/157/157 160/160/160 159/159/159
f 163/163/163 162/162/162 161/161/161
f 161/161/161 164/164/164 163/163/163
f 167/167/167 166/166/166 165/165/165
f 165/165/165 168/168/168 167/167/167
f 171/171/171 170/170/170 169/169/169
f 169/169/169 172/172/172 171/171/171
f 175/175/175 174/174/174 173/173/173
f 173/173/173 176/176/176 175/175/175
f 179/179/179 178/178/178 177/177/177
f 177/177/177 180/180/180 179/179/179
f 183/183/183 182/182/182 181/181/181
f 181/181/181 184/184/184 183/183/183
f 187/187/187 186/186/186 185/185/185
f 185/185/185 188/188/188 187/187/187
f 191/191/191 190/190/190 189/189/189
f 189/189/189 192/192/192 191/191/191
f 195/195/195 194/194/194 193/193/193
f 193/193/193 196/196/196 195/195/195
f 199/199/199 198/198/198 197/197/197
f 197/197/197 200/200/200 199/199/199
f 203/203/203 202/202/202 201/201/201
f 201/201/201 204/204/204 203/203/203
f 207/207/207 206/206/206 205/205/205
f 205/205/205 208/208/208 207/207/207
f 211/211/211 210/210/210 209/209/209
f 209/209/209 212/212/212 211/211/211
f 215/215/215 214/214/214 213/213/213
f 213/213/213 216/216/216 215/215/215
f 219/219/219 218/218/218 217/217/217
f 217/217/217 220/220/220 219/219/219
f 223/223/223 222/222/222 221/221/221
f 221/221/221 224/224/224 223/223/223
f 227/227/227 226/226/226 225/225/225
f 225/225/225 228/228/228 227/227/227
f 231/231/231 230/230/230 229/229/229
f 229/229/229 232/232/232 231/231/231
f 235/235/235 234/234/234 233/233/233
f 233/233/233 236/236/236 235/235/235
f 239/239/239 238/238/238 237/237/237
f 237/237/237 240/240/240 239/239/239
f 243/243/243 242/242/242 241/241/241
f 241/241/241 244/244/244 243/243/243
f 247/247/247 246/246/246 245/245/245
f 245/245/245 248/248/248 247/247/247
f 251/251/251 250/250/250 249/249/249
f 249/249/249 252/252/252 251/251/251
f 255/255/255 254/254/254 253/253/253
f 253/253/253 256/256/256 255/255/255
f 259/259/259 258/258/258 257/257/257
f 257/257/257 260/260/260 259/259/259
f 263/263/263 262/262/262 261/261/261
f 261/261/261 264/264/264 263/263/263
f 267/267/267 266/266/266 265/265/265
f 265/265/265 268/268/268 267/267/267
f 271/271/271 270/270/270 269/269/269
f 269/269/269 272/272/272 271/271/271
f 275/275/275 274/274/274 273/273/273
f 273/273/273 276/276/276 275/275/275
f 279/279/279 278/278/278 277/277/277
f 277/277/277 280/280/280 279/279/279
f 283/283/283 282/282/282 281/281/281
f 281/281/281 284/284/284 283/283/283
f 287/287/287 286/286/286 285/285/285
f 285/285/285 288/288/288 287/287/287
f 291/291/291 290/290/290 289/289/289
f 289/289/289 292/292/292 291/291/291
f 295/295/295 294/294/294 293/293/293
f 293/293/293 296/296/296 295/295/295
f 299/299/299 298/298/298 297/297/297
f 297/297/297 300/300/300 299/299/299
f 303/303/303 302/302/302 301/301/301
f 301/301/301 304/304/304 303/303/303
f 307/307/307 306/306/306 305/305/305
f 305/305/305 308/308/308 307/307/307
f 311/311/311 310/310/310 309/309/309
f 309/309/309 312/312/312 311/311/311
f 315/315/315 314/314/314 313/313/313
f 313/313/313 316/316/316 315/315/315
f 319/319/319 318/318/318 317/317/317
f 317/317/317 320/320/320 319/319/319
f 323/323/323 322/322/322 321/321/321
f 321/321/321 324/324/324 323/323/323
f 327/327/327 326/326/326 325/325/325
f 325/325/325 328/328/328 327/327/327
f 331/331/331 330/330/330 329/329/329
f 329/329/329 332/332/332 331/331/331
f 335/335/335 334/334/334 333/333/333
f 333/333/333 336/336/336 335/335/335
f 339/339/339 338/338/338 337/337/337
f 337/337/337 340/340/340 339/339/339
