g changliang_2-mesh
v -32 482 0
v -32 1154 0
v -1280 1154 0
v -1280 482 0
v -32 1154 0
v -32 1826 0
v -1280 1826 0
v -1280 1154 0
v -1280 482 0
v -1280 994 0
v -1696 994 0
v -1696 482 0
v -1312 1506 0
v -1312 2018 0
v -1696 2018 0
v -1696 1506 0
v -1696 1506 0
v -1696 2018 0
v -2047 2018 0
v -2047 1506 0
v -1024 258 0
v -1024 482 0
v -1664 482 0
v -1664 258 0
v -384 258 0
v -384 482 0
v -1024 482 0
v -1024 258 0
v -896 1826 0
v -896 2018 0
v -1312 2018 0
v -1312 1826 0
v -640 98 0
v -640 258 0
v -960 258 0
v -960 98 0
v -960 98 0
v -960 258 0
v -1248 258 0
v -1248 98 0
v -1312 1314 0
v -1312 1474 0
v -1568 1474 0
v -1568 1314 0
v -1568 1314 0
v -1568 1474 0
v -1792 1474 0
v -1792 1314 0
v -1504 1058 0
v -1504 1186 0
v -1728 1186 0
v -1728 1058 0
v -1280 1058 0
v -1280 1186 0
v -1504 1186 0
v -1504 1058 0
v -1440 1186 0
v -1440 1314 0
v -1632 1314 0
v -1632 1186 0
v -1696 546 0
v -1696 770 0
v -1792 770 0
v -1792 546 0
v -1696 322 0
v -1696 546 0
v -1792 546 0
v -1792 322 0
v -224 354 0
v -224 482 0
v -384 482 0
v -384 354 0
v -1792 386 0
v -1792 482 0
v -1984 482 0
v -1984 386 0
v -1888 1314 0
v -1888 1506 0
v -1984 1506 0
v -1984 1314 0
v -640 1826 0
v -640 1890 0
v -896 1890 0
v -896 1826 0
v -384 1826 0
v -384 1890 0
v -640 1890 0
v -640 1826 0
v -1280 1186 0
v -1280 1282 0
v -1408 1282 0
v -1408 1186 0
v -1792 578 0
v -1792 706 0
v -1888 706 0
v -1888 578 0
v -1696 770 0
v -1696 866 0
v -1824 866 0
v -1824 770 0
v -1248 130 0
v -1248 258 0
v -1344 258 0
v -1344 130 0
v -768 34 0
v -768 98 0
v -928 98 0
v -928 34 0
v -928 34 0
v -928 98 0
v -1088 98 0
v -1088 34 0
v -1280 994 0
v -1280 1058 0
v -1440 1058 0
v -1440 994 0
v -544 162 0
v -544 258 0
v -640 258 0
v -640 162 0
v -1440 994 0
v -1440 1058 0
v -1568 1058 0
v -1568 994 0
v -0 1186 0
v -0 1410 0
v -32 1410 0
v -32 1186 0
v -1824 1346 0
v -1824 1442 0
v -1888 1442 0
v -1888 1346 0
v -128 418 0
v -128 482 0
v -224 482 0
v -224 418 0
v -1664 994 0
v -1664 1058 0
v -1760 1058 0
v -1760 994 0
v -1728 1090 0
v -1728 1154 0
v -1824 1154 0
v -1824 1090 0
v -1504 1474 0
v -1504 1506 0
v -1696 1506 0
v -1696 1474 0
v -0 994 0
v -0 1186 0
v -32 1186 0
v -32 994 0
v -1312 1474 0
v -1312 1506 0
v -1504 1506 0
v -1504 1474 0
v -96 1826 0
v -96 1858 0
v -256 1858 0
v -256 1826 0
v -1280 1666 0
v -1280 1826 0
v -1312 1826 0
v -1312 1666 0
v -1888 866 0
v -1888 930 0
v -1952 930 0
v -1952 866 0
v -1984 1442 0
v -1984 1506 0
v -2047 1506 0
v -2047 1442 0
v -1728 1250 0
v -1728 1314 0
v -1792 1314 0
v -1792 1250 0
v -1280 1538 0
v -1280 1666 0
v -1312 1666 0
v -1312 1538 0
v -256 1826 0
v -256 1858 0
v -384 1858 0
v -384 1826 0
v -1824 1090 0
v -1824 1154 0
v -1888 1154 0
v -1888 1090 0
v -1344 226 0
v -1344 258 0
v -1472 258 0
v -1472 226 0
v -1888 578 0
v -1888 642 0
v -1952 642 0
v -1952 578 0
v -576 1890 0
v -576 1922 0
v -704 1922 0
v -704 1890 0
v -1728 1474 0
v -1728 1506 0
v -1824 1506 0
v -1824 1474 0
v -1344 194 0
v -1344 226 0
v -1440 226 0
v -1440 194 0
v -1472 226 0
v -1472 258 0
v -1568 258 0
v -1568 226 0
v -1664 290 0
v -1664 386 0
v -1696 386 0
v -1696 290 0
v -1664 386 0
v -1664 482 0
v -1696 482 0
v -1696 386 0
v -704 1890 0
v -704 1922 0
v -800 1922 0
v -800 1890 0
v -928 2 0
v -928 34 0
v -1024 34 0
v -1024 2 0
v -832 2 0
v -832 34 0
v -928 34 0
v -928 2 0
v -1824 834 0
v -1824 898 0
v -1856 898 0
v -1856 834 0
v -288 322 0
v -288 354 0
v -352 354 0
v -352 322 0
v -1792 354 0
v -1792 386 0
v -1856 386 0
v -1856 354 0
v -448 226 0
v -448 258 0
v -512 258 0
v -512 226 0
v -1088 66 0
v -1088 98 0
v -1152 98 0
v -1152 66 0
v -0 642 0
v -0 706 0
v -32 706 0
v -32 642 0
v -64 450 0
v -64 482 0
v -128 482 0
v -128 450 0
v -1344 162 0
v -1344 194 0
v -1408 194 0
v -1408 162 0
v -1280 1378 0
v -1280 1442 0
v -1312 1442 0
v -1312 1378 0
v -1664 1218 0
v -1664 1282 0
v -1696 1282 0
v -1696 1218 0
v -1728 1058 0
v -1728 1090 0
v -1792 1090 0
v -1792 1058 0
v -1824 1474 0
v -1824 1506 0
v -1888 1506 0
v -1888 1474 0
v -1792 482 0
v -1792 514 0
v -1856 514 0
v -1856 482 0
v -1856 482 0
v -1856 514 0
v -1920 514 0
v -1920 482 0
v -1984 1346 0
v -1984 1410 0
v -2016 1410 0
v -2016 1346 0
v -1440 194 0
v -1440 226 0
v -1504 226 0
v -1504 194 0
v -1792 1346 0
v -1792 1410 0
v -1824 1410 0
v -1824 1346 0
v -1792 1282 0
v -1792 1346 0
v -1824 1346 0
v -1824 1282 0
v -1344 1282 0
v -1344 1314 0
v -1408 1314 0
v -1408 1282 0
v -1696 930 0
v -1696 994 0
v -1728 994 0
v -1728 930 0
v -1984 1282 0
v -1984 1346 0
v -2016 1346 0
v -2016 1282 0
v -1760 1154 0
v -1760 1186 0
v -1792 1186 0
v -1792 1154 0
v -1792 866 0
v -1792 898 0
v -1824 898 0
v -1824 866 0
v -1568 1026 0
v -1568 1058 0
v -1600 1058 0
v -1600 1026 0
v -1792 514 0
v -1792 546 0
v -1824 546 0
v -1824 514 0
v -192 386 0
v -192 418 0
v -224 418 0
v -224 386 0
v -1632 994 0
v -1632 1026 0
v -1664 1026 0
v -1664 994 0
v -512 194 0
v -512 226 0
v -544 226 0
v -544 194 0
v -608 130 0
v -608 162 0
v -640 162 0
v -640 130 0
v -736 66 0
v -736 98 0
v -768 98 0
v -768 66 0
v -1696 290 0
v -1696 322 0
v -1728 322 0
v -1728 290 0
v -896 0 0
v -896 2 0
v -928 2 0
v -928 0 0
v -1792 322 0
v -1792 354 0
v -1824 354 0
v -1824 322 0
v -352 290 0
v -352 322 0
v -384 322 0
v -384 290 0
v -1856 354 0
v -1856 386 0
v -1888 386 0
v -1888 354 0
v -352 322 0
v -352 354 0
v -384 354 0
v -384 322 0
v -512 226 0
v -512 258 0
v -544 258 0
v -544 226 0
v -1696 898 0
v -1696 930 0
v -1728 930 0
v -1728 898 0
v -1824 802 0
v -1824 834 0
v -1856 834 0
v -1856 802 0
v -1408 1282 0
v -1408 1314 0
v -1440 1314 0
v -1440 1282 0
v -1152 66 0
v -1152 98 0
v -1184 98 0
v -1184 66 0
v -1696 1282 0
v -1696 1314 0
v -1728 1314 0
v -1728 1282 0
v -1952 1282 0
v -1952 1314 0
v -1984 1314 0
v -1984 1282 0
v -1408 1250 0
v -1408 1282 0
v -1440 1282 0
v -1440 1250 0
v -1824 1442 0
v -1824 1474 0
v -1856 1474 0
v -1856 1442 0
v -1856 1314 0
v -1856 1346 0
v -1888 1346 0
v -1888 1314 0
v -1632 1282 0
v -1632 1314 0
v -1664 1314 0
v -1664 1282 0
vt 0.00048828125 0.000553071499
vt 0.00048828125 0.372234523
vt 0.609863281 0.372234523
vt 0.609863281 0.000553071499
vt 0.00048828125 0.373340726
vt 0.00048828125 0.745022118
vt 0.609863281 0.745022118
vt 0.609863281 0.373340726
vt 0.610839844 0.000553071499
vt 0.610839844 0.283738911
vt 0.813964844 0.283738911
vt 0.813964844 0.000553071499
vt 0.610839844 0.284845114
vt 0.610839844 0.568030953
vt 0.798339844 0.568030953
vt 0.798339844 0.284845114
vt 0.814941406 0.000553071499
vt 0.814941406 0.283738911
vt 0.986816406 0.283738911
vt 0.986816406 0.000553071499
vt 0.610839844 0.569137156
vt 0.610839844 0.693030953
vt 0.923339844 0.693030953
vt 0.923339844 0.569137156
vt 0.610839844 0.694137156
vt 0.610839844 0.818030953
vt 0.923339844 0.818030953
vt 0.923339844 0.694137156
vt 0.00048828125 0.746128321
vt 0.00048828125 0.852322996
vt 0.203613281 0.852322996
vt 0.203613281 0.746128321
vt 0.204589844 0.746128321
vt 0.204589844 0.834623873
vt 0.360839844 0.834623873
vt 0.360839844 0.746128321
vt 0.361816406 0.746128321
vt 0.361816406 0.834623873
vt 0.502441406 0.834623873
vt 0.502441406 0.746128321
vt 0.610839844 0.819137156
vt 0.610839844 0.907632768
vt 0.735839844 0.907632768
vt 0.735839844 0.819137156
vt 0.736816406 0.819137156
vt 0.736816406 0.907632768
vt 0.846191406 0.907632768
vt 0.846191406 0.819137156
vt 0.847167969 0.819137156
vt 0.847167969 0.889933646
vt 0.956542969 0.889933646
vt 0.956542969 0.819137156
vt 0.204589844 0.835730076
vt 0.204589844 0.906526566
vt 0.313964844 0.906526566
vt 0.313964844 0.835730076
vt 0.503417969 0.746128321
vt 0.503417969 0.81692481
vt 0.597167969 0.81692481
vt 0.597167969 0.746128321
vt 0.503417969 0.818030953
vt 0.503417969 0.94192481
vt 0.550292969 0.94192481
vt 0.550292969 0.818030953
vt 0.551269531 0.818030953
vt 0.551269531 0.94192481
vt 0.598144531 0.94192481
vt 0.598144531 0.818030953
vt 0.314941406 0.835730076
vt 0.314941406 0.906526566
vt 0.393066406 0.906526566
vt 0.393066406 0.835730076
vt 0.394042969 0.835730076
vt 0.394042969 0.888827443
vt 0.487792969 0.888827443
vt 0.487792969 0.835730076
vt 0.00048828125 0.853429198
vt 0.00048828125 0.959623873
vt 0.0473632812 0.959623873
vt 0.0473632812 0.853429198
vt 0.0483398438 0.853429198
vt 0.0483398438 0.888827443
vt 0.173339844 0.888827443
vt 0.173339844 0.853429198
vt 0.0483398438 0.889933646
vt 0.0483398438 0.925331831
vt 0.173339844 0.925331831
vt 0.173339844 0.889933646
vt 0.394042969 0.889933646
vt 0.394042969 0.943030953
vt 0.456542969 0.943030953
vt 0.456542969 0.889933646
vt 0.847167969 0.891039848
vt 0.847167969 0.961836278
vt 0.894042969 0.961836278
vt 0.894042969 0.891039848
vt 0.895019531 0.891039848
vt 0.895019531 0.944137156
vt 0.957519531 0.944137156
vt 0.957519531 0.891039848
vt 0.204589844 0.907632768
vt 0.204589844 0.978429198
vt 0.251464844 0.978429198
vt 0.251464844 0.907632768
vt 0.252441406 0.907632768
vt 0.252441406 0.943030953
vt 0.330566406 0.943030953
vt 0.330566406 0.907632768
vt 0.610839844 0.908738971
vt 0.610839844 0.944137156
vt 0.688964844 0.944137156
vt 0.688964844 0.908738971
vt 0.689941406 0.908738971
vt 0.689941406 0.944137156
vt 0.768066406 0.944137156
vt 0.768066406 0.908738971
vt 0.331542969 0.907632768
vt 0.331542969 0.960730076
vt 0.378417969 0.960730076
vt 0.378417969 0.907632768
vt 0.769042969 0.908738971
vt 0.769042969 0.944137156
vt 0.831542969 0.944137156
vt 0.831542969 0.908738971
vt 0.958496094 0.284845114
vt 0.958496094 0.408738911
vt 0.974121094 0.408738911
vt 0.974121094 0.284845114
vt 0.958496094 0.409845114
vt 0.958496094 0.462942481
vt 0.989746094 0.462942481
vt 0.989746094 0.409845114
vt 0.0483398438 0.926438034
vt 0.0483398438 0.961836278
vt 0.0952148438 0.961836278
vt 0.0952148438 0.926438034
vt 0.0961914062 0.926438034
vt 0.0961914062 0.961836278
vt 0.143066406 0.961836278
vt 0.143066406 0.926438034
vt 0.144042969 0.926438034
vt 0.144042969 0.961836278
vt 0.190917969 0.961836278
vt 0.190917969 0.926438034
vt 0.503417969 0.943030953
vt 0.503417969 0.960730076
vt 0.597167969 0.960730076
vt 0.597167969 0.943030953
vt 0.958496094 0.464048684
vt 0.958496094 0.570243359
vt 0.974121094 0.570243359
vt 0.974121094 0.464048684
vt 0.394042969 0.944137156
vt 0.394042969 0.961836278
vt 0.487792969 0.961836278
vt 0.487792969 0.944137156
vt 0.252441406 0.944137156
vt 0.252441406 0.961836278
vt 0.330566406 0.961836278
vt 0.330566406 0.944137156
vt 0.975097656 0.464048684
vt 0.975097656 0.552544236
vt 0.990722656 0.552544236
vt 0.990722656 0.464048684
vt 0.958496094 0.571349561
vt 0.958496094 0.606747746
vt 0.989746094 0.606747746
vt 0.989746094 0.571349561
vt 0.958496094 0.607854009
vt 0.958496094 0.643252254
vt 0.989746094 0.643252254
vt 0.989746094 0.607854009
vt 0.958496094 0.644358397
vt 0.958496094 0.679756641
vt 0.989746094 0.679756641
vt 0.989746094 0.644358397
vt 0.958496094 0.680862844
vt 0.958496094 0.751659274
vt 0.974121094 0.751659274
vt 0.974121094 0.680862844
vt 0.610839844 0.945243359
vt 0.610839844 0.962942481
vt 0.673339844 0.962942481
vt 0.673339844 0.945243359
vt 0.958496094 0.752765477
vt 0.958496094 0.788163722
vt 0.989746094 0.788163722
vt 0.989746094 0.752765477
vt 0.674316406 0.945243359
vt 0.674316406 0.962942481
vt 0.736816406 0.962942481
vt 0.736816406 0.945243359
vt 0.958496094 0.789269924
vt 0.958496094 0.824668169
vt 0.989746094 0.824668169
vt 0.989746094 0.789269924
vt 0.737792969 0.945243359
vt 0.737792969 0.962942481
vt 0.800292969 0.962942481
vt 0.800292969 0.945243359
vt 0.895019531 0.945243359
vt 0.895019531 0.962942481
vt 0.941894531 0.962942481
vt 0.941894531 0.945243359
vt 0.942871094 0.945243359
vt 0.942871094 0.962942481
vt 0.989746094 0.962942481
vt 0.989746094 0.945243359
vt 0.00048828125 0.960730076
vt 0.00048828125 0.978429198
vt 0.0473632812 0.978429198
vt 0.0473632812 0.960730076
vt 0.801269531 0.945243359
vt 0.801269531 0.998340726
vt 0.816894531 0.998340726
vt 0.816894531 0.945243359
vt 0.817871094 0.945243359
vt 0.817871094 0.998340726
vt 0.833496094 0.998340726
vt 0.833496094 0.945243359
vt 0.331542969 0.961836278
vt 0.331542969 0.979535401
vt 0.378417969 0.979535401
vt 0.378417969 0.961836278
vt 0.503417969 0.961836278
vt 0.503417969 0.979535401
vt 0.550292969 0.979535401
vt 0.550292969 0.961836278
vt 0.551269531 0.961836278
vt 0.551269531 0.979535401
vt 0.598144531 0.979535401
vt 0.598144531 0.961836278
vt 0.0483398438 0.962942481
vt 0.0483398438 0.998340726
vt 0.0639648438 0.998340726
vt 0.0639648438 0.962942481
vt 0.0649414062 0.962942481
vt 0.0649414062 0.980641603
vt 0.0961914062 0.980641603
vt 0.0961914062 0.962942481
vt 0.0971679688 0.962942481
vt 0.0971679688 0.980641603
vt 0.128417969 0.980641603
vt 0.128417969 0.962942481
vt 0.129394531 0.962942481
vt 0.129394531 0.980641603
vt 0.160644531 0.980641603
vt 0.160644531 0.962942481
vt 0.161621094 0.962942481
vt 0.161621094 0.980641603
vt 0.192871094 0.980641603
vt 0.192871094 0.962942481
vt 0.252441406 0.962942481
vt 0.252441406 0.998340726
vt 0.268066406 0.998340726
vt 0.268066406 0.962942481
vt 0.269042969 0.962942481
vt 0.269042969 0.980641603
vt 0.300292969 0.980641603
vt 0.300292969 0.962942481
vt 0.394042969 0.962942481
vt 0.394042969 0.980641603
vt 0.425292969 0.980641603
vt 0.425292969 0.962942481
vt 0.301269531 0.962942481
vt 0.301269531 0.998340726
vt 0.316894531 0.998340726
vt 0.316894531 0.962942481
vt 0.426269531 0.962942481
vt 0.426269531 0.998340726
vt 0.441894531 0.998340726
vt 0.441894531 0.962942481
vt 0.442871094 0.962942481
vt 0.442871094 0.980641603
vt 0.474121094 0.980641603
vt 0.474121094 0.962942481
vt 0.847167969 0.962942481
vt 0.847167969 0.980641603
vt 0.878417969 0.980641603
vt 0.878417969 0.962942481
vt 0.610839844 0.964048684
vt 0.610839844 0.981747806
vt 0.642089844 0.981747806
vt 0.642089844 0.964048684
vt 0.643066406 0.964048684
vt 0.643066406 0.981747806
vt 0.674316406 0.981747806
vt 0.674316406 0.964048684
vt 0.475097656 0.962942481
vt 0.475097656 0.998340726
vt 0.490722656 0.998340726
vt 0.490722656 0.962942481
vt 0.675292969 0.964048684
vt 0.675292969 0.981747806
vt 0.706542969 0.981747806
vt 0.706542969 0.964048684
vt 0.707519531 0.964048684
vt 0.707519531 0.999446929
vt 0.723144531 0.999446929
vt 0.723144531 0.964048684
vt 0.724121094 0.964048684
vt 0.724121094 0.999446929
vt 0.739746094 0.999446929
vt 0.739746094 0.964048684
vt 0.740722656 0.964048684
vt 0.740722656 0.981747806
vt 0.771972656 0.981747806
vt 0.771972656 0.964048684
vt 0.772949219 0.964048684
vt 0.772949219 0.999446929
vt 0.788574219 0.999446929
vt 0.788574219 0.964048684
vt 0.895019531 0.964048684
vt 0.895019531 0.999446929
vt 0.910644531 0.999446929
vt 0.910644531 0.964048684
vt 0.911621094 0.964048684
vt 0.911621094 0.981747806
vt 0.927246094 0.981747806
vt 0.927246094 0.964048684
vt 0.928222656 0.964048684
vt 0.928222656 0.981747806
vt 0.943847656 0.981747806
vt 0.943847656 0.964048684
vt 0.944824219 0.964048684
vt 0.944824219 0.981747806
vt 0.960449219 0.981747806
vt 0.960449219 0.964048684
vt 0.961425781 0.964048684
vt 0.961425781 0.981747806
vt 0.977050781 0.981747806
vt 0.977050781 0.964048684
vt 0.978027344 0.964048684
vt 0.978027344 0.981747806
vt 0.993652344 0.981747806
vt 0.993652344 0.964048684
vt 0.00048828125 0.979535401
vt 0.00048828125 0.997234523
vt 0.0161132812 0.997234523
vt 0.0161132812 0.979535401
vt 0.0170898438 0.979535401
vt 0.0170898438 0.997234523
vt 0.0327148438 0.997234523
vt 0.0327148438 0.979535401
vt 0.204589844 0.979535401
vt 0.204589844 0.997234523
vt 0.220214844 0.997234523
vt 0.220214844 0.979535401
vt 0.221191406 0.979535401
vt 0.221191406 0.997234523
vt 0.236816406 0.997234523
vt 0.236816406 0.979535401
vt 0.331542969 0.980641603
vt 0.331542969 0.998340726
vt 0.347167969 0.998340726
vt 0.347167969 0.980641603
vt 0.348144531 0.980641603
vt 0.348144531 0.982300878
vt 0.363769531 0.982300878
vt 0.363769531 0.980641603
vt 0.364746094 0.980641603
vt 0.364746094 0.998340726
vt 0.380371094 0.998340726
vt 0.380371094 0.980641603
vt 0.503417969 0.980641603
vt 0.503417969 0.998340726
vt 0.519042969 0.998340726
vt 0.519042969 0.980641603
vt 0.520019531 0.980641603
vt 0.520019531 0.998340726
vt 0.535644531 0.998340726
vt 0.535644531 0.980641603
vt 0.536621094 0.980641603
vt 0.536621094 0.998340726
vt 0.552246094 0.998340726
vt 0.552246094 0.980641603
vt 0.553222656 0.980641603
vt 0.553222656 0.998340726
vt 0.568847656 0.998340726
vt 0.568847656 0.980641603
vt 0.569824219 0.980641603
vt 0.569824219 0.998340726
vt 0.585449219 0.998340726
vt 0.585449219 0.980641603
vt 0.586425781 0.980641603
vt 0.586425781 0.998340726
vt 0.602050781 0.998340726
vt 0.602050781 0.980641603
vt 0.0649414062 0.981747806
vt 0.0649414062 0.999446929
vt 0.0805664062 0.999446929
vt 0.0805664062 0.981747806
vt 0.0815429688 0.981747806
vt 0.0815429688 0.999446929
vt 0.0971679688 0.999446929
vt 0.0971679688 0.981747806
vt 0.0981445312 0.981747806
vt 0.0981445312 0.999446929
vt 0.113769531 0.999446929
vt 0.113769531 0.981747806
vt 0.114746094 0.981747806
vt 0.114746094 0.999446929
vt 0.130371094 0.999446929
vt 0.130371094 0.981747806
vt 0.131347656 0.981747806
vt 0.131347656 0.999446929
vt 0.146972656 0.999446929
vt 0.146972656 0.981747806
vt 0.147949219 0.981747806
vt 0.147949219 0.999446929
vt 0.163574219 0.999446929
vt 0.163574219 0.981747806
vt 0.164550781 0.981747806
vt 0.164550781 0.999446929
vt 0.180175781 0.999446929
vt 0.180175781 0.981747806
vt 0.181152344 0.981747806
vt 0.181152344 0.999446929
vt 0.196777344 0.999446929
vt 0.196777344 0.981747806
g changliang_2-mesh_0
f 3/3/3 2/2/2 1/1/1
f 1/1/1 4/4/4 3/3/3
f 7/7/7 6/6/6 5/5/5
f 5/5/5 8/8/8 7/7/7
f 11/11/11 10/10/10 9/9/9
f 9/9/9 12/12/12 11/11/11
f 15/15/15 14/14/14 13/13/13
f 13/13/13 16/16/16 15/15/15
f 19/19/19 18/18/18 17/17/17
f 17/17/17 20/20/20 19/19/19
f 23/23/23 22/22/22 21/21/21
f 21/21/21 24/24/24 23/23/23
f 27/27/27 26/26/26 25/25/25
f 25/25/25 28/28/28 27/27/27
f 31/31/31 30/30/30 29/29/29
f 29/29/29 32/32/32 31/31/31
f 35/35/35 34/34/34 33/33/33
f 33/33/33 36/36/36 35/35/35
f 39/39/39 38/38/38 37/37/37
f 37/37/37 40/40/40 39/39/39
f 43/43/43 42/42/42 41/41/41
f 41/41/41 44/44/44 43/43/43
f 47/47/47 46/46/46 45/45/45
f 45/45/45 48/48/48 47/47/47
f 51/51/51 50/50/50 49/49/49
f 49/49/49 52/52/52 51/51/51
f 55/55/55 54/54/54 53/53/53
f 53/53/53 56/56/56 55/55/55
f 59/59/59 58/58/58 57/57/57
f 57/57/57 60/60/60 59/59/59
f 63/63/63 62/62/62 61/61/61
f 61/61/61 64/64/64 63/63/63
f 67/67/67 66/66/66 65/65/65
f 65/65/65 68/68/68 67/67/67
f 71/71/71 70/70/70 69/69/69
f 69/69/69 72/72/72 71/71/71
f 75/75/75 74/74/74 73/73/73
f 73/73/73 76/76/76 75/75/75
f 79/79/79 78/78/78 77/77/77
f 77/77/77 80/80/80 79/79/79
f 83/83/83 82/82/82 81/81/81
f 81/81/81 84/84/84 83/83/83
f 87/87/87 86/86/86 85/85/85
f 85/85/85 88/88/88 87/87/87
f 91/91/91 90/90/90 89/89/89
f 89/89/89 92/92/92 91/91/91
f 95/95/95 94/94/94 93/93/93
f 93/93/93 96/96/96 95/95/95
f 99/99/99 98/98/98 97/97/97
f 97/97/97 100/100/100 99/99/99
f 103/103/103 102/102/102 101/101/101
f 101/101/101 104/104/104 103/103/103
f 107/107/107 106/106/106 105/105/105
f 105/105/105 108/108/108 107/107/107
f 111/111/111 110/110/110 109/109/109
f 109/109/109 112/112/112 111/111/111
f 115/115/115 114/114/114 113/113/113
f 113/113/113 116/116/116 115/115/115
f 119/119/119 118/118/118 117/117/117
f 117/117/117 120/120/120 119/119/119
f 123/123/123 122/122/122 121/121/121
f 121/121/121 124/124/124 123/123/123
f 127/127/127 126/126/126 125/125/125
f 125/125/125 128/128/128 127/127/127
f 131/131/131 130/130/130 129/129/129
f 129/129/129 132/132/132 131/131/131
f 135/135/135 134/134/134 133/133/133
f 133/133/133 136/136/136 135/135/135
f 139/139/139 138/138/138 137/137/137
f 137/137/137 140/140/140 139/139/139
f 143/143/143 142/142/142 141/141/141
f 141/141/141 144/144/144 143/143/143
f 147/147/147 146/146/146 145/145/145
f 145/145/145 148/148/148 147/147/147
f 151/151/151 150/150/150 149/149/149
f 149/149/149 152/152/152 151/151/151
f 155/155/155 154/154/154 153/153/153
f 153/153/153 156/156/156 155/155/155
f 159/159/159 158/158/158 157/157/157
f 157/157/157 160/160/160 159/159/159
f 163/163/163 162/162/162 161/161/161
f 161/161/161 164/164/164 163/163/163
f 167/167/167 166/166/166 165/165/165
f 165/165/165 168/168/168 167/167/167
f 171/171/171 170/170/170 169/169/169
f 169/169/169 172/172/172 171/171/171
f 175/175/175 174/174/174 173/173/173
f 173/173/173 176/176/176 175/175/175
f 179/179/179 178/178/178 177/177/177
f 177/177/177 180/180/180 179/179/179
f 183/183/183 182/182/182 181/181/181
f 181/181/181 184/184/184 183/183/183
f 187/187/187 186/186/186 185/185/185
f 185/185/185 188/188/188 187/187/187
f 191/191/191 190/190/190 189/189/189
f 189/189/189 192/192/192 191/191/191
f 195/195/195 194/194/194 193/193/193
f 193/193/193 196/196/196 195/195/195
f 199/199/199 198/198/198 197/197/197
f 197/197/197 200/200/200 199/199/199
f 203/203/203 202/202/202 201/201/201
f 201/201/201 204/204/204 203/203/203
f 207/207/207 206/206/206 205/205/205
f 205/205/205 208/208/208 207/207/207
f 211/211/211 210/210/210 209/209/209
f 209/209/209 212/212/212 211/211/211
f 215/215/215 214/214/214 213/213/213
f 213/213/213 216/216/216 215/215/215
f 219/219/219 218/218/218 217/217/217
f 217/217/217 220/220/220 219/219/219
f 223/223/223 222/222/222 221/221/221
f 221/221/221 224/224/224 223/223/223
f 227/227/227 226/226/226 225/225/225
f 225/225/225 228/228/228 227/227/227
f 231/231/231 230/230/230 229/229/229
f 229/229/229 232/232/232 231/231/231
f 235/235/235 234/234/234 233/233/233
f 233/233/233 236/236/236 235/235/235
f 239/239/239 238/238/238 237/237/237
f 237/237/237 240/240/240 239/239/239
f 243/243/243 242/242/242 241/241/241
f 241/241/241 244/244/244 243/243/243
f 247/247/247 246/246/246 245/245/245
f 245/245/245 248/248/248 247/247/247
f 251/251/251 250/250/250 249/249/249
f 249/249/249 252/252/252 251/251/251
f 255/255/255 254/254/254 253/253/253
f 253/253/253 256/256/256 255/255/255
f 259/259/259 258/258/258 257/257/257
f 257/257/257 260/260/260 259/259/259
f 263/263/263 262/262/262 261/261/261
f 261/261/261 264/264/264 263/263/263
f 267/267/267 266/266/266 265/265/265
f 265/265/265 268/268/268 267/267/267
f 271/271/271 270/270/270 269/269/269
f 269/269/269 272/272/272 271/271/271
f 275/275/275 274/274/274 273/273/273
f 273/273/273 276/276/276 275/275/275
f 279/279/279 278/278/278 277/277/277
f 277/277/277 280/280/280 279/279/279
f 283/283/283 282/282/282 281/281/281
f 281/281/281 284/284/284 283/283/283
f 287/287/287 286/286/286 285/285/285
f 285/285/285 288/288/288 287/287/287
f 291/291/291 290/290/290 289/289/289
f 289/289/289 292/292/292 291/291/291
f 295/295/295 294/294/294 293/293/293
f 293/293/293 296/296/296 295/295/295
f 299/299/299 298/298/298 297/297/297
f 297/297/297 300/300/300 299/299/299
f 303/303/303 302/302/302 301/301/301
f 301/301/301 304/304/304 303/303/303
f 307/307/307 306/306/306 305/305/305
f 305/305/305 308/308/308 307/307/307
f 311/311/311 310/310/310 309/309/309
f 309/309/309 312/312/312 311/311/311
f 315/315/315 314/314/314 313/313/313
f 313/313/313 316/316/316 315/315/315
f 319/319/319 318/318/318 317/317/317
f 317/317/317 320/320/320 319/319/319
f 323/323/323 322/322/322 321/321/321
f 321/321/321 324/324/324 323/323/323
f 327/327/327 326/326/326 325/325/325
f 325/325/325 328/328/328 327/327/327
f 331/331/331 330/330/330 329/329/329
f 329/329/329 332/332/332 331/331/331
f 335/335/335 334/334/334 333/333/333
f 333/333/333 336/336/336 335/335/335
f 339/339/339 338/338/338 337/337/337
f 337/337/337 340/340/340 339/339/339
f 343/343/343 342/342/342 341/341/341
f 341/341/341 344/344/344 343/343/343
f 347/347/347 346/346/346 345/345/345
f 345/345/345 348/348/348 347/347/347
f 351/351/351 350/350/350 349/349/349
f 349/349/349 352/352/352 351/351/351
f 355/355/355 354/354/354 353/353/353
f 353/353/353 356/356/356 355/355/355
f 359/359/359 358/358/358 357/357/357
f 357/357/357 360/360/360 359/359/359
f 363/363/363 362/362/362 361/361/361
f 361/361/361 364/364/364 363/363/363
f 367/367/367 366/366/366 365/365/365
f 365/365/365 368/368/368 367/367/367
f 371/371/371 370/370/370 369/369/369
f 369/369/369 372/372/372 371/371/371
f 375/375/375 374/374/374 373/373/373
f 373/373/373 376/376/376 375/375/375
f 379/379/379 378/378/378 377/377/377
f 377/377/377 380/380/380 379/379/379
f 383/383/383 382/382/382 381/381/381
f 381/381/381 384/384/384 383/383/383
f 387/387/387 386/386/386 385/385/385
f 385/385/385 388/388/388 387/387/387
f 391/391/391 390/390/390 389/389/389
f 389/389/389 392/392/392 391/391/391
f 395/395/395 394/394/394 393/393/393
f 393/393/393 396/396/396 395/395/395
f 399/399/399 398/398/398 397/397/397
f 397/397/397 400/400/400 399/399/399
f 403/403/403 402/402/402 401/401/401
f 401/401/401 404/404/404 403/403/403
f 407/407/407 406/406/406 405/405/405
f 405/405/405 408/408/408 407/407/407
f 411/411/411 410/410/410 409/409/409
f 409/409/409 412/412/412 411/411/411
f 415/415/415 414/414/414 413/413/413
f 413/413/413 416/416/416 415/415/415
f 419/419/419 418/418/418 417/417/417
f 417/417/417 420/420/420 419/419/419
