g yilisi_DOA_bj1-mesh
v -672 683 0
v -672 1067 0
v -928 1067 0
v -928 683 0
v -1152 523 0
v -1152 747 0
v -1344 747 0
v -1344 523 0
v -608 843 0
v -608 1003 0
v -672 1003 0
v -672 843 0
v -608 715 0
v -608 843 0
v -672 843 0
v -672 715 0
v -1152 427 0
v -1152 523 0
v -1216 523 0
v -1216 427 0
v -704 1067 0
v -704 1099 0
v -832 1099 0
v -832 1067 0
v -1216 459 0
v -1216 523 0
v -1280 523 0
v -1280 459 0
v -928 779 0
v -928 875 0
v -960 875 0
v -960 779 0
v -832 1067 0
v -832 1099 0
v -928 1099 0
v -928 1067 0
v -1120 587 0
v -1120 683 0
v -1152 683 0
v -1152 587 0
v -1120 491 0
v -1120 587 0
v -1152 587 0
v -1152 491 0
v -1248 747 0
v -1248 779 0
v -1312 779 0
v -1312 747 0
v -928 939 0
v -928 1003 0
v -960 1003 0
v -960 939 0
v -1184 747 0
v -1184 779 0
v -1248 779 0
v -1248 747 0
v -928 715 0
v -928 779 0
v -960 779 0
v -960 715 0
v -576 843 0
v -576 907 0
v -608 907 0
v -608 843 0
v -576 779 0
v -576 843 0
v -608 843 0
v -608 779 0
v -1280 491 0
v -1280 523 0
v -1312 523 0
v -1312 491 0
v -960 811 0
v -960 843 0
v -992 843 0
v -992 811 0
v -640 1003 0
v -640 1035 0
v -672 1035 0
v -672 1003 0
vt 0.001953125 0.00219297409
vt 0.001953125 0.844298244
vt 0.501953125 0.844298244
vt 0.501953125 0.00219297409
vt 0.505859375 0.00219297409
vt 0.505859375 0.493421078
vt 0.880859375 0.493421078
vt 0.880859375 0.00219297409
vt 0.505859375 0.497807026
vt 0.505859375 0.848684192
vt 0.630859375 0.848684192
vt 0.630859375 0.497807026
vt 0.634765625 0.497807026
vt 0.634765625 0.778508782
vt 0.759765625 0.778508782
vt 0.759765625 0.497807026
vt 0.763671875 0.497807026
vt 0.763671875 0.708333373
vt 0.888671875 0.708333373
vt 0.888671875 0.497807026
vt 0.634765625 0.782894731
vt 0.634765625 0.85307014
vt 0.884765625 0.85307014
vt 0.884765625 0.782894731
vt 0.001953125 0.848684192
vt 0.001953125 0.98903507
vt 0.126953125 0.98903507
vt 0.126953125 0.848684192
vt 0.892578125 0.00219297409
vt 0.892578125 0.212719321
vt 0.955078125 0.212719321
vt 0.955078125 0.00219297409
vt 0.130859375 0.848684192
vt 0.130859375 0.918859661
vt 0.318359375 0.918859661
vt 0.318359375 0.848684192
vt 0.892578125 0.217105269
vt 0.892578125 0.427631557
vt 0.955078125 0.427631557
vt 0.955078125 0.217105269
vt 0.892578125 0.432017565
vt 0.892578125 0.642543852
vt 0.955078125 0.642543852
vt 0.955078125 0.432017565
vt 0.322265625 0.848684192
vt 0.322265625 0.918859661
vt 0.447265625 0.918859661
vt 0.447265625 0.848684192
vt 0.892578125 0.64692986
vt 0.892578125 0.787280679
vt 0.955078125 0.787280679
vt 0.955078125 0.64692986
vt 0.505859375 0.85307014
vt 0.505859375 0.923245609
vt 0.630859375 0.923245609
vt 0.630859375 0.85307014
vt 0.892578125 0.791666687
vt 0.892578125 0.932017565
vt 0.955078125 0.932017565
vt 0.955078125 0.791666687
vt 0.634765625 0.857456148
vt 0.634765625 0.997807026
vt 0.697265625 0.997807026
vt 0.697265625 0.857456148
vt 0.701171875 0.857456148
vt 0.701171875 0.997807026
vt 0.763671875 0.997807026
vt 0.763671875 0.857456148
vt 0.767578125 0.857456148
vt 0.767578125 0.927631557
vt 0.830078125 0.927631557
vt 0.830078125 0.857456148
vt 0.130859375 0.923245609
vt 0.130859375 0.993421078
vt 0.193359375 0.993421078
vt 0.193359375 0.923245609
vt 0.197265625 0.923245609
vt 0.197265625 0.993421078
vt 0.259765625 0.993421078
vt 0.259765625 0.923245609
g yilisi_DOA_bj1-mesh_0
f 3/3/3 2/2/2 1/1/1
f 1/1/1 4/4/4 3/3/3
f 7/7/7 6/6/6 5/5/5
f 5/5/5 8/8/8 7/7/7
f 11/11/11 10/10/10 9/9/9
f 9/9/9 12/12/12 11/11/11
f 15/15/15 14/14/14 13/13/13
f 13/13/13 16/16/16 15/15/15
f 19/19/19 18/18/18 17/17/17
f 17/17/17 20/20/20 19/19/19
f 23/23/23 22/22/22 21/21/21
f 21/21/21 24/24/24 23/23/23
f 27/27/27 26/26/26 25/25/25
f 25/25/25 28/28/28 27/27/27
f 31/31/31 30/30/30 29/29/29
f 29/29/29 32/32/32 31/31/31
f 35/35/35 34/34/34 33/33/33
f 33/33/33 36/36/36 35/35/35
f 39/39/39 38/38/38 37/37/37
f 37/37/37 40/40/40 39/39/39
f 43/43/43 42/42/42 41/41/41
f 41/41/41 44/44/44 43/43/43
f 47/47/47 46/46/46 45/45/45
f 45/45/45 48/48/48 47/47/47
f 51/51/51 50/50/50 49/49/49
f 49/49/49 52/52/52 51/51/51
f 55/55/55 54/54/54 53/53/53
f 53/53/53 56/56/56 55/55/55
f 59/59/59 58/58/58 57/57/57
f 57/57/57 60/60/60 59/59/59
f 63/63/63 62/62/62 61/61/61
f 61/61/61 64/64/64 63/63/63
f 67/67/67 66/66/66 65/65/65
f 65/65/65 68/68/68 67/67/67
f 71/71/71 70/70/70 69/69/69
f 69/69/69 72/72/72 71/71/71
f 75/75/75 74/74/74 73/73/73
f 73/73/73 76/76/76 75/75/75
f 79/79/79 78/78/78 77/77/77
f 77/77/77 80/80/80 79/79/79
