g makesi_bj-mesh
v -640 73 0
v -640 233 0
v -928 233 0
v -928 73 0
v -672 233 0
v -672 361 0
v -800 361 0
v -800 233 0
v -384 1257 0
v -384 1385 0
v -480 1385 0
v -480 1257 0
v -1408 1353 0
v -1408 1481 0
v -1504 1481 0
v -1504 1353 0
v -896 233 0
v -896 297 0
v -992 297 0
v -992 233 0
v -960 105 0
v -960 169 0
v -1056 169 0
v -1056 105 0
v -1312 1449 0
v -1312 1513 0
v -1408 1513 0
v -1408 1449 0
v -768 9 0
v -768 73 0
v -864 73 0
v -864 9 0
v -320 1257 0
v -320 1321 0
v -384 1321 0
v -384 1257 0
v -864 9 0
v -864 73 0
v -928 73 0
v -928 9 0
v -480 1257 0
v -480 1321 0
v -512 1321 0
v -512 1257 0
v -1440 1321 0
v -1440 1353 0
v -1504 1353 0
v -1504 1321 0
v -608 201 0
v -608 265 0
v -640 265 0
v -640 201 0
v -1536 1353 0
v -1536 1417 0
v -1568 1417 0
v -1568 1353 0
v -992 233 0
v -992 265 0
v -1056 265 0
v -1056 233 0
v -512 137 0
v -512 169 0
v -576 169 0
v -576 137 0
v -384 1225 0
v -384 1257 0
v -448 1257 0
v -448 1225 0
v -640 233 0
v -640 297 0
v -672 297 0
v -672 233 0
v -704 361 0
v -704 393 0
v -768 393 0
v -768 361 0
v -768 361 0
v -768 393 0
v -832 393 0
v -832 361 0
v -1504 1385 0
v -1504 1449 0
v -1536 1449 0
v -1536 1385 0
v -1504 1321 0
v -1504 1385 0
v -1536 1385 0
v -1536 1321 0
v -576 169 0
v -576 233 0
v -608 233 0
v -608 169 0
v -928 41 0
v -928 105 0
v -960 105 0
v -960 41 0
v -928 105 0
v -928 169 0
v -960 169 0
v -960 105 0
v -576 105 0
v -576 169 0
v -608 169 0
v -608 105 0
v -1056 137 0
v -1056 169 0
v -1088 169 0
v -1088 137 0
v -864 233 0
v -864 265 0
v -896 265 0
v -896 233 0
v -800 297 0
v -800 329 0
v -832 329 0
v -832 297 0
v -736 41 0
v -736 73 0
v -768 73 0
v -768 41 0
v -608 105 0
v -608 137 0
v -640 137 0
v -640 105 0
v -544 105 0
v -544 137 0
v -576 137 0
v -576 105 0
v -1344 1417 0
v -1344 1449 0
v -1376 1449 0
v -1376 1417 0
v -1408 1481 0
v -1408 1513 0
v -1440 1513 0
v -1440 1481 0
v -608 169 0
v -608 201 0
v -640 201 0
v -640 169 0
v -640 329 0
v -640 361 0
v -672 361 0
v -672 329 0
v -1568 1353 0
v -1568 1385 0
v -1600 1385 0
v -1600 1353 0
v -1376 1353 0
v -1376 1385 0
v -1408 1385 0
v -1408 1353 0
vt 0.001953125 0.00252526999
vt 0.001953125 0.406565666
vt 0.564453125 0.406565666
vt 0.564453125 0.00252526999
vt 0.568359375 0.00252526999
vt 0.568359375 0.325757563
vt 0.818359375 0.325757563
vt 0.818359375 0.00252526999
vt 0.568359375 0.330808103
vt 0.568359375 0.654040396
vt 0.755859375 0.654040396
vt 0.755859375 0.330808103
vt 0.759765625 0.330808103
vt 0.759765625 0.654040396
vt 0.947265625 0.654040396
vt 0.947265625 0.330808103
vt 0.001953125 0.411616147
vt 0.001953125 0.573232293
vt 0.189453125 0.573232293
vt 0.189453125 0.411616147
vt 0.193359375 0.411616147
vt 0.193359375 0.573232293
vt 0.380859375 0.573232293
vt 0.380859375 0.411616147
vt 0.001953125 0.578282833
vt 0.001953125 0.73989898
vt 0.189453125 0.73989898
vt 0.189453125 0.578282833
vt 0.193359375 0.578282833
vt 0.193359375 0.73989898
vt 0.380859375 0.73989898
vt 0.380859375 0.578282833
vt 0.384765625 0.411616147
vt 0.384765625 0.573232293
vt 0.509765625 0.573232293
vt 0.509765625 0.411616147
vt 0.384765625 0.578282833
vt 0.384765625 0.73989898
vt 0.509765625 0.73989898
vt 0.509765625 0.578282833
vt 0.568359375 0.659090877
vt 0.568359375 0.820707083
vt 0.630859375 0.820707083
vt 0.630859375 0.659090877
vt 0.634765625 0.659090877
vt 0.634765625 0.73989898
vt 0.759765625 0.73989898
vt 0.759765625 0.659090877
vt 0.763671875 0.659090877
vt 0.763671875 0.820707083
vt 0.826171875 0.820707083
vt 0.826171875 0.659090877
vt 0.830078125 0.659090877
vt 0.830078125 0.820707083
vt 0.892578125 0.820707083
vt 0.892578125 0.659090877
vt 0.001953125 0.74494946
vt 0.001953125 0.825757563
vt 0.126953125 0.825757563
vt 0.126953125 0.74494946
vt 0.130859375 0.74494946
vt 0.130859375 0.825757563
vt 0.255859375 0.825757563
vt 0.255859375 0.74494946
vt 0.259765625 0.74494946
vt 0.259765625 0.825757563
vt 0.384765625 0.825757563
vt 0.384765625 0.74494946
vt 0.896484375 0.659090877
vt 0.896484375 0.820707083
vt 0.958984375 0.820707083
vt 0.958984375 0.659090877
vt 0.388671875 0.74494946
vt 0.388671875 0.825757563
vt 0.513671875 0.825757563
vt 0.513671875 0.74494946
vt 0.634765625 0.74494946
vt 0.634765625 0.825757563
vt 0.759765625 0.825757563
vt 0.759765625 0.74494946
vt 0.568359375 0.825757563
vt 0.568359375 0.98737371
vt 0.630859375 0.98737371
vt 0.630859375 0.825757563
vt 0.763671875 0.825757563
vt 0.763671875 0.98737371
vt 0.826171875 0.98737371
vt 0.826171875 0.825757563
vt 0.830078125 0.825757563
vt 0.830078125 0.98737371
vt 0.892578125 0.98737371
vt 0.892578125 0.825757563
vt 0.896484375 0.825757563
vt 0.896484375 0.98737371
vt 0.958984375 0.98737371
vt 0.958984375 0.825757563
vt 0.001953125 0.830808103
vt 0.001953125 0.99242425
vt 0.064453125 0.99242425
vt 0.064453125 0.830808103
vt 0.068359375 0.830808103
vt 0.068359375 0.99242425
vt 0.130859375 0.99242425
vt 0.130859375 0.830808103
vt 0.134765625 0.830808103
vt 0.134765625 0.911616147
vt 0.197265625 0.911616147
vt 0.197265625 0.830808103
vt 0.201171875 0.830808103
vt 0.201171875 0.911616147
vt 0.263671875 0.911616147
vt 0.263671875 0.830808103
vt 0.267578125 0.830808103
vt 0.267578125 0.911616147
vt 0.330078125 0.911616147
vt 0.330078125 0.830808103
vt 0.333984375 0.830808103
vt 0.333984375 0.911616147
vt 0.396484375 0.911616147
vt 0.396484375 0.830808103
vt 0.400390625 0.830808103
vt 0.400390625 0.911616147
vt 0.462890625 0.911616147
vt 0.462890625 0.830808103
vt 0.466796875 0.830808103
vt 0.466796875 0.911616147
vt 0.529296875 0.911616147
vt 0.529296875 0.830808103
vt 0.634765625 0.830808103
vt 0.634765625 0.911616147
vt 0.697265625 0.911616147
vt 0.697265625 0.830808103
vt 0.134765625 0.916666687
vt 0.134765625 0.99747473
vt 0.197265625 0.99747473
vt 0.197265625 0.916666687
vt 0.201171875 0.916666687
vt 0.201171875 0.99747473
vt 0.263671875 0.99747473
vt 0.263671875 0.916666687
vt 0.267578125 0.916666687
vt 0.267578125 0.99747473
vt 0.330078125 0.99747473
vt 0.330078125 0.916666687
vt 0.333984375 0.916666687
vt 0.333984375 0.99747473
vt 0.396484375 0.99747473
vt 0.396484375 0.916666687
vt 0.400390625 0.916666687
vt 0.400390625 0.99747473
vt 0.462890625 0.99747473
vt 0.462890625 0.916666687
g makesi_bj-mesh_0
f 3/3/3 2/2/2 1/1/1
f 1/1/1 4/4/4 3/3/3
f 7/7/7 6/6/6 5/5/5
f 5/5/5 8/8/8 7/7/7
f 11/11/11 10/10/10 9/9/9
f 9/9/9 12/12/12 11/11/11
f 15/15/15 14/14/14 13/13/13
f 13/13/13 16/16/16 15/15/15
f 19/19/19 18/18/18 17/17/17
f 17/17/17 20/20/20 19/19/19
f 23/23/23 22/22/22 21/21/21
f 21/21/21 24/24/24 23/23/23
f 27/27/27 26/26/26 25/25/25
f 25/25/25 28/28/28 27/27/27
f 31/31/31 30/30/30 29/29/29
f 29/29/29 32/32/32 31/31/31
f 35/35/35 34/34/34 33/33/33
f 33/33/33 36/36/36 35/35/35
f 39/39/39 38/38/38 37/37/37
f 37/37/37 40/40/40 39/39/39
f 43/43/43 42/42/42 41/41/41
f 41/41/41 44/44/44 43/43/43
f 47/47/47 46/46/46 45/45/45
f 45/45/45 48/48/48 47/47/47
f 51/51/51 50/50/50 49/49/49
f 49/49/49 52/52/52 51/51/51
f 55/55/55 54/54/54 53/53/53
f 53/53/53 56/56/56 55/55/55
f 59/59/59 58/58/58 57/57/57
f 57/57/57 60/60/60 59/59/59
f 63/63/63 62/62/62 61/61/61
f 61/61/61 64/64/64 63/63/63
f 67/67/67 66/66/66 65/65/65
f 65/65/65 68/68/68 67/67/67
f 71/71/71 70/70/70 69/69/69
f 69/69/69 72/72/72 71/71/71
f 75/75/75 74/74/74 73/73/73
f 73/73/73 76/76/76 75/75/75
f 79/79/79 78/78/78 77/77/77
f 77/77/77 80/80/80 79/79/79
f 83/83/83 82/82/82 81/81/81
f 81/81/81 84/84/84 83/83/83
f 87/87/87 86/86/86 85/85/85
f 85/85/85 88/88/88 87/87/87
f 91/91/91 90/90/90 89/89/89
f 89/89/89 92/92/92 91/91/91
f 95/95/95 94/94/94 93/93/93
f 93/93/93 96/96/96 95/95/95
f 99/99/99 98/98/98 97/97/97
f 97/97/97 100/100/100 99/99/99
f 103/103/103 102/102/102 101/101/101
f 101/101/101 104/104/104 103/103/103
f 107/107/107 106/106/106 105/105/105
f 105/105/105 108/108/108 107/107/107
f 111/111/111 110/110/110 109/109/109
f 109/109/109 112/112/112 111/111/111
f 115/115/115 114/114/114 113/113/113
f 113/113/113 116/116/116 115/115/115
f 119/119/119 118/118/118 117/117/117
f 117/117/117 120/120/120 119/119/119
f 123/123/123 122/122/122 121/121/121
f 121/121/121 124/124/124 123/123/123
f 127/127/127 126/126/126 125/125/125
f 125/125/125 128/128/128 127/127/127
f 131/131/131 130/130/130 129/129/129
f 129/129/129 132/132/132 131/131/131
f 135/135/135 134/134/134 133/133/133
f 133/133/133 136/136/136 135/135/135
f 139/139/139 138/138/138 137/137/137
f 137/137/137 140/140/140 139/139/139
f 143/143/143 142/142/142 141/141/141
f 141/141/141 144/144/144 143/143/143
f 147/147/147 146/146/146 145/145/145
f 145/145/145 148/148/148 147/147/147
f 151/151/151 150/150/150 149/149/149
f 149/149/149 152/152/152 151/151/151
