g z9_2-mesh
v -160 55 0
v -160 1047 0
v -1056 1047 0
v -1056 55 0
v -1056 55 0
v -1056 1047 0
v -1920 1047 0
v -1920 55 0
v -1152 1047 0
v -1152 1143 0
v -1920 1143 0
v -1920 1047 0
v -384 1047 0
v -384 1143 0
v -1152 1143 0
v -1152 1047 0
v -64 119 0
v -64 535 0
v -160 535 0
v -160 119 0
v -64 535 0
v -64 951 0
v -160 951 0
v -160 535 0
v -1216 23 0
v -1216 55 0
v -1792 55 0
v -1792 23 0
v -640 23 0
v -640 55 0
v -1216 55 0
v -1216 23 0
v -1920 599 0
v -1920 1111 0
v -1952 1111 0
v -1952 599 0
v -1920 119 0
v -1920 599 0
v -1952 599 0
v -1952 119 0
v -896 1143 0
v -896 1175 0
v -1216 1175 0
v -1216 1143 0
v -576 1143 0
v -576 1175 0
v -896 1175 0
v -896 1143 0
v -1952 535 0
v -1952 631 0
v -2016 631 0
v -2016 535 0
v -0 503 0
v -0 599 0
v -64 599 0
v -64 503 0
v -1312 1143 0
v -1312 1207 0
v -1408 1207 0
v -1408 1143 0
v -1952 951 0
v -1952 1047 0
v -2016 1047 0
v -2016 951 0
v -1952 855 0
v -1952 951 0
v -2016 951 0
v -2016 855 0
v -1952 631 0
v -1952 727 0
v -2016 727 0
v -2016 631 0
v -32 791 0
v -32 919 0
v -64 919 0
v -64 791 0
v -896 1175 0
v -896 1207 0
v -1024 1207 0
v -1024 1175 0
v -0 439 0
v -0 503 0
v -64 503 0
v -64 439 0
v -768 1175 0
v -768 1207 0
v -896 1207 0
v -896 1175 0
v -416 23 0
v -416 55 0
v -512 55 0
v -512 23 0
v -320 23 0
v -320 55 0
v -416 55 0
v -416 23 0
v -1472 0 0
v -1472 23 0
v -1568 23 0
v -1568 0 0
v -224 1047 0
v -224 1079 0
v -320 1079 0
v -320 1047 0
v -32 183 0
v -32 279 0
v -64 279 0
v -64 183 0
v -1952 311 0
v -1952 407 0
v -1984 407 0
v -1984 311 0
v -32 695 0
v -32 791 0
v -64 791 0
v -64 695 0
v -32 279 0
v -32 375 0
v -64 375 0
v -64 279 0
v -1952 215 0
v -1952 311 0
v -1984 311 0
v -1984 215 0
v -2016 823 0
v -2016 887 0
v -2047 887 0
v -2047 823 0
v -1952 1047 0
v -1952 1111 0
v -1984 1111 0
v -1984 1047 0
v -1952 727 0
v -1952 791 0
v -1984 791 0
v -1984 727 0
v -224 23 0
v -224 55 0
v -288 55 0
v -288 23 0
v -32 599 0
v -32 663 0
v -64 663 0
v -64 599 0
v -256 1079 0
v -256 1111 0
v -320 1111 0
v -320 1079 0
v -1568 0 0
v -1568 23 0
v -1632 23 0
v -1632 0 0
v -320 1047 0
v -320 1079 0
v -384 1079 0
v -384 1047 0
v -992 0 0
v -992 23 0
v -1056 23 0
v -1056 0 0
v -1248 1143 0
v -1248 1175 0
v -1312 1175 0
v -1312 1143 0
v -1056 0 0
v -1056 23 0
v -1120 23 0
v -1120 0 0
v -1952 503 0
v -1952 535 0
v -1984 535 0
v -1984 503 0
v -1952 823 0
v -1952 855 0
v -1984 855 0
v -1984 823 0
v -128 87 0
v -128 119 0
v -160 119 0
v -160 87 0
v -32 407 0
v -32 439 0
v -64 439 0
v -64 407 0
v -0 823 0
v -0 855 0
v -32 855 0
v -32 823 0
v -1792 1143 0
v -1792 1175 0
v -1824 1175 0
v -1824 1143 0
v -1408 1143 0
v -1408 1175 0
v -1440 1175 0
v -1440 1143 0
v -128 951 0
v -128 983 0
v -160 983 0
v -160 951 0
v -352 1079 0
v -352 1111 0
v -384 1111 0
v -384 1079 0
vt 0.00048828125 0.000884950161
vt 0.00048828125 0.878761053
vt 0.437988281 0.878761053
vt 0.437988281 0.000884950161
vt 0.438964844 0.000884950161
vt 0.438964844 0.878761053
vt 0.860839844 0.878761053
vt 0.860839844 0.000884950161
vt 0.00048828125 0.880530953
vt 0.00048828125 0.965486705
vt 0.375488281 0.965486705
vt 0.375488281 0.880530953
vt 0.376464844 0.880530953
vt 0.376464844 0.965486705
vt 0.751464844 0.965486705
vt 0.751464844 0.880530953
vt 0.861816406 0.000884950161
vt 0.861816406 0.369026542
vt 0.908691406 0.369026542
vt 0.908691406 0.000884950161
vt 0.909667969 0.000884950161
vt 0.909667969 0.369026542
vt 0.956542969 0.369026542
vt 0.956542969 0.000884950161
vt 0.00048828125 0.967256665
vt 0.00048828125 0.995575249
vt 0.281738281 0.995575249
vt 0.281738281 0.967256665
vt 0.282714844 0.967256665
vt 0.282714844 0.995575249
vt 0.563964844 0.995575249
vt 0.563964844 0.967256665
vt 0.957519531 0.000884950161
vt 0.957519531 0.453982294
vt 0.973144531 0.453982294
vt 0.973144531 0.000884950161
vt 0.974121094 0.000884950161
vt 0.974121094 0.42566371
vt 0.989746094 0.42566371
vt 0.989746094 0.000884950161
vt 0.752441406 0.880530953
vt 0.752441406 0.908849537
vt 0.908691406 0.908849537
vt 0.908691406 0.880530953
vt 0.752441406 0.910619497
vt 0.752441406 0.938938022
vt 0.908691406 0.938938022
vt 0.908691406 0.910619497
vt 0.909667969 0.370796442
vt 0.909667969 0.455752194
vt 0.940917969 0.455752194
vt 0.940917969 0.370796442
vt 0.957519531 0.455752194
vt 0.957519531 0.540707946
vt 0.988769531 0.540707946
vt 0.988769531 0.455752194
vt 0.909667969 0.457522094
vt 0.909667969 0.514159322
vt 0.956542969 0.514159322
vt 0.956542969 0.457522094
vt 0.909667969 0.515929222
vt 0.909667969 0.600884914
vt 0.940917969 0.600884914
vt 0.940917969 0.515929222
vt 0.957519531 0.542477846
vt 0.957519531 0.627433658
vt 0.988769531 0.627433658
vt 0.988769531 0.542477846
vt 0.909667969 0.602654874
vt 0.909667969 0.687610626
vt 0.940917969 0.687610626
vt 0.940917969 0.602654874
vt 0.957519531 0.629203558
vt 0.957519531 0.742477894
vt 0.973144531 0.742477894
vt 0.973144531 0.629203558
vt 0.752441406 0.940707982
vt 0.752441406 0.969026566
vt 0.814941406 0.969026566
vt 0.814941406 0.940707982
vt 0.909667969 0.689380527
vt 0.909667969 0.746017694
vt 0.940917969 0.746017694
vt 0.940917969 0.689380527
vt 0.909667969 0.747787595
vt 0.909667969 0.776106179
vt 0.972167969 0.776106179
vt 0.972167969 0.747787595
vt 0.909667969 0.777876139
vt 0.909667969 0.806194663
vt 0.956542969 0.806194663
vt 0.956542969 0.777876139
vt 0.909667969 0.807964623
vt 0.909667969 0.836283207
vt 0.956542969 0.836283207
vt 0.956542969 0.807964623
vt 0.909667969 0.838053107
vt 0.909667969 0.85929203
vt 0.956542969 0.85929203
vt 0.956542969 0.838053107
vt 0.909667969 0.861061931
vt 0.909667969 0.889380515
vt 0.956542969 0.889380515
vt 0.956542969 0.861061931
vt 0.974121094 0.629203558
vt 0.974121094 0.71415925
vt 0.989746094 0.71415925
vt 0.989746094 0.629203558
vt 0.974121094 0.71592921
vt 0.974121094 0.800884962
vt 0.989746094 0.800884962
vt 0.989746094 0.71592921
vt 0.957519531 0.777876139
vt 0.957519531 0.862831831
vt 0.973144531 0.862831831
vt 0.973144531 0.777876139
vt 0.974121094 0.802654862
vt 0.974121094 0.887610614
vt 0.989746094 0.887610614
vt 0.989746094 0.802654862
vt 0.957519531 0.864601791
vt 0.957519531 0.949557543
vt 0.973144531 0.949557543
vt 0.973144531 0.864601791
vt 0.974121094 0.889380515
vt 0.974121094 0.946017683
vt 0.989746094 0.946017683
vt 0.989746094 0.889380515
vt 0.909667969 0.891150475
vt 0.909667969 0.947787583
vt 0.925292969 0.947787583
vt 0.925292969 0.891150475
vt 0.926269531 0.891150475
vt 0.926269531 0.947787583
vt 0.941894531 0.947787583
vt 0.941894531 0.891150475
vt 0.815917969 0.940707982
vt 0.815917969 0.969026566
vt 0.847167969 0.969026566
vt 0.847167969 0.940707982
vt 0.848144531 0.940707982
vt 0.848144531 0.99734515
vt 0.863769531 0.99734515
vt 0.863769531 0.940707982
vt 0.864746094 0.940707982
vt 0.864746094 0.969026566
vt 0.895996094 0.969026566
vt 0.895996094 0.940707982
vt 0.909667969 0.949557543
vt 0.909667969 0.970796466
vt 0.940917969 0.970796466
vt 0.940917969 0.949557543
vt 0.957519531 0.951327443
vt 0.957519531 0.979646027
vt 0.988769531 0.979646027
vt 0.988769531 0.951327443
vt 0.564941406 0.967256665
vt 0.564941406 0.988495588
vt 0.596191406 0.988495588
vt 0.596191406 0.967256665
vt 0.597167969 0.967256665
vt 0.597167969 0.995575249
vt 0.628417969 0.995575249
vt 0.628417969 0.967256665
vt 0.629394531 0.967256665
vt 0.629394531 0.988495588
vt 0.660644531 0.988495588
vt 0.660644531 0.967256665
vt 0.661621094 0.967256665
vt 0.661621094 0.995575249
vt 0.677246094 0.995575249
vt 0.677246094 0.967256665
vt 0.678222656 0.967256665
vt 0.678222656 0.995575249
vt 0.693847656 0.995575249
vt 0.693847656 0.967256665
vt 0.694824219 0.967256665
vt 0.694824219 0.995575249
vt 0.710449219 0.995575249
vt 0.710449219 0.967256665
vt 0.711425781 0.967256665
vt 0.711425781 0.995575249
vt 0.727050781 0.995575249
vt 0.727050781 0.967256665
vt 0.728027344 0.967256665
vt 0.728027344 0.995575249
vt 0.743652344 0.995575249
vt 0.743652344 0.967256665
vt 0.752441406 0.970796466
vt 0.752441406 0.99911505
vt 0.768066406 0.99911505
vt 0.768066406 0.970796466
vt 0.769042969 0.970796466
vt 0.769042969 0.99911505
vt 0.784667969 0.99911505
vt 0.784667969 0.970796466
vt 0.785644531 0.970796466
vt 0.785644531 0.99911505
vt 0.801269531 0.99911505
vt 0.801269531 0.970796466
vt 0.802246094 0.970796466
vt 0.802246094 0.99911505
vt 0.817871094 0.99911505
vt 0.817871094 0.970796466
g z9_2-mesh_0
f 3/3/3 2/2/2 1/1/1
f 1/1/1 4/4/4 3/3/3
f 7/7/7 6/6/6 5/5/5
f 5/5/5 8/8/8 7/7/7
f 11/11/11 10/10/10 9/9/9
f 9/9/9 12/12/12 11/11/11
f 15/15/15 14/14/14 13/13/13
f 13/13/13 16/16/16 15/15/15
f 19/19/19 18/18/18 17/17/17
f 17/17/17 20/20/20 19/19/19
f 23/23/23 22/22/22 21/21/21
f 21/21/21 24/24/24 23/23/23
f 27/27/27 26/26/26 25/25/25
f 25/25/25 28/28/28 27/27/27
f 31/31/31 30/30/30 29/29/29
f 29/29/29 32/32/32 31/31/31
f 35/35/35 34/34/34 33/33/33
f 33/33/33 36/36/36 35/35/35
f 39/39/39 38/38/38 37/37/37
f 37/37/37 40/40/40 39/39/39
f 43/43/43 42/42/42 41/41/41
f 41/41/41 44/44/44 43/43/43
f 47/47/47 46/46/46 45/45/45
f 45/45/45 48/48/48 47/47/47
f 51/51/51 50/50/50 49/49/49
f 49/49/49 52/52/52 51/51/51
f 55/55/55 54/54/54 53/53/53
f 53/53/53 56/56/56 55/55/55
f 59/59/59 58/58/58 57/57/57
f 57/57/57 60/60/60 59/59/59
f 63/63/63 62/62/62 61/61/61
f 61/61/61 64/64/64 63/63/63
f 67/67/67 66/66/66 65/65/65
f 65/65/65 68/68/68 67/67/67
f 71/71/71 70/70/70 69/69/69
f 69/69/69 72/72/72 71/71/71
f 75/75/75 74/74/74 73/73/73
f 73/73/73 76/76/76 75/75/75
f 79/79/79 78/78/78 77/77/77
f 77/77/77 80/80/80 79/79/79
f 83/83/83 82/82/82 81/81/81
f 81/81/81 84/84/84 83/83/83
f 87/87/87 86/86/86 85/85/85
f 85/85/85 88/88/88 87/87/87
f 91/91/91 90/90/90 89/89/89
f 89/89/89 92/92/92 91/91/91
f 95/95/95 94/94/94 93/93/93
f 93/93/93 96/96/96 95/95/95
f 99/99/99 98/98/98 97/97/97
f 97/97/97 100/100/100 99/99/99
f 103/103/103 102/102/102 101/101/101
f 101/101/101 104/104/104 103/103/103
f 107/107/107 106/106/106 105/105/105
f 105/105/105 108/108/108 107/107/107
f 111/111/111 110/110/110 109/109/109
f 109/109/109 112/112/112 111/111/111
f 115/115/115 114/114/114 113/113/113
f 113/113/113 116/116/116 115/115/115
f 119/119/119 118/118/118 117/117/117
f 117/117/117 120/120/120 119/119/119
f 123/123/123 122/122/122 121/121/121
f 121/121/121 124/124/124 123/123/123
f 127/127/127 126/126/126 125/125/125
f 125/125/125 128/128/128 127/127/127
f 131/131/131 130/130/130 129/129/129
f 129/129/129 132/132/132 131/131/131
f 135/135/135 134/134/134 133/133/133
f 133/133/133 136/136/136 135/135/135
f 139/139/139 138/138/138 137/137/137
f 137/137/137 140/140/140 139/139/139
f 143/143/143 142/142/142 141/141/141
f 141/141/141 144/144/144 143/143/143
f 147/147/147 146/146/146 145/145/145
f 145/145/145 148/148/148 147/147/147
f 151/151/151 150/150/150 149/149/149
f 149/149/149 152/152/152 151/151/151
f 155/155/155 154/154/154 153/153/153
f 153/153/153 156/156/156 155/155/155
f 159/159/159 158/158/158 157/157/157
f 157/157/157 160/160/160 159/159/159
f 163/163/163 162/162/162 161/161/161
f 161/161/161 164/164/164 163/163/163
f 167/167/167 166/166/166 165/165/165
f 165/165/165 168/168/168 167/167/167
f 171/171/171 170/170/170 169/169/169
f 169/169/169 172/172/172 171/171/171
f 175/175/175 174/174/174 173/173/173
f 173/173/173 176/176/176 175/175/175
f 179/179/179 178/178/178 177/177/177
f 177/177/177 180/180/180 179/179/179
f 183/183/183 182/182/182 181/181/181
f 181/181/181 184/184/184 183/183/183
f 187/187/187 186/186/186 185/185/185
f 185/185/185 188/188/188 187/187/187
f 191/191/191 190/190/190 189/189/189
f 189/189/189 192/192/192 191/191/191
f 195/195/195 194/194/194 193/193/193
f 193/193/193 196/196/196 195/195/195
f 199/199/199 198/198/198 197/197/197
f 197/197/197 200/200/200 199/199/199
f 203/203/203 202/202/202 201/201/201
f 201/201/201 204/204/204 203/203/203
