g z25_2-mesh
v -192 31 0
v -192 479 0
v -576 479 0
v -576 31 0
v -192 479 0
v -192 927 0
v -576 927 0
v -576 479 0
v -608 575 0
v -608 927 0
v -800 927 0
v -800 575 0
v -64 95 0
v -64 383 0
v -192 383 0
v -192 95 0
v -64 383 0
v -64 671 0
v -192 671 0
v -192 383 0
v -800 447 0
v -800 703 0
v -928 703 0
v -928 447 0
v -576 127 0
v -576 351 0
v -672 351 0
v -672 127 0
v -576 351 0
v -576 575 0
v -672 575 0
v -672 351 0
v -704 447 0
v -704 575 0
v -800 575 0
v -800 447 0
v -800 735 0
v -800 863 0
v -896 863 0
v -896 735 0
v -320 927 0
v -320 991 0
v -480 991 0
v -480 927 0
v -480 927 0
v -480 991 0
v -608 991 0
v -608 927 0
v -672 191 0
v -672 351 0
v -704 351 0
v -704 191 0
v -672 351 0
v -672 511 0
v -704 511 0
v -704 351 0
v -800 383 0
v -800 447 0
v -864 447 0
v -864 383 0
v -32 159 0
v -32 287 0
v -64 287 0
v -64 159 0
v -32 287 0
v -32 415 0
v -64 415 0
v -64 287 0
v -576 735 0
v -576 831 0
v -608 831 0
v -608 735 0
v -288 0 0
v -288 31 0
v -384 31 0
v -384 0 0
v -576 831 0
v -576 927 0
v -608 927 0
v -608 831 0
v -96 63 0
v -96 95 0
v -160 95 0
v -160 63 0
v -160 831 0
v -160 895 0
v -192 895 0
v -192 831 0
v -480 991 0
v -480 1023 0
v -544 1023 0
v -544 991 0
v -800 863 0
v -800 895 0
v -864 895 0
v -864 863 0
v -576 63 0
v -576 127 0
v -608 127 0
v -608 63 0
v -576 0 0
v -576 31 0
v -640 31 0
v -640 0 0
v -128 671 0
v -128 703 0
v -192 703 0
v -192 671 0
v -704 383 0
v -704 447 0
v -736 447 0
v -736 383 0
v -576 639 0
v -576 703 0
v -608 703 0
v -608 639 0
v -576 575 0
v -576 639 0
v -608 639 0
v -608 575 0
v -608 927 0
v -608 959 0
v -672 959 0
v -672 927 0
v -672 927 0
v -672 959 0
v -736 959 0
v -736 927 0
v -352 991 0
v -352 1023 0
v -416 1023 0
v -416 991 0
v -896 767 0
v -896 831 0
v -928 831 0
v -928 767 0
v -384 0 0
v -384 31 0
v -448 31 0
v -448 0 0
v -768 415 0
v -768 447 0
v -800 447 0
v -800 415 0
v -800 703 0
v -800 735 0
v -832 735 0
v -832 703 0
v -832 927 0
v -832 959 0
v -864 959 0
v -864 927 0
v -160 31 0
v -160 63 0
v -192 63 0
v -192 31 0
v -704 63 0
v -704 95 0
v -736 95 0
v -736 63 0
v -608 95 0
v -608 127 0
v -640 127 0
v -640 95 0
v -896 735 0
v -896 767 0
v -928 767 0
v -928 735 0
v -416 991 0
v -416 1023 0
v -448 1023 0
v -448 991 0
v -160 63 0
v -160 95 0
v -192 95 0
v -192 63 0
v -288 927 0
v -288 959 0
v -320 959 0
v -320 927 0
v -864 959 0
v -864 991 0
v -896 991 0
v -896 959 0
v -672 959 0
v -672 991 0
v -704 991 0
v -704 959 0
vt 0.0009765625 0.00134050846
vt 0.0009765625 0.601876676
vt 0.375976562 0.601876676
vt 0.375976562 0.00134050846
vt 0.377929688 0.00134050846
vt 0.377929688 0.601876676
vt 0.752929688 0.601876676
vt 0.752929688 0.00134050846
vt 0.754882812 0.00134050846
vt 0.754882812 0.473190367
vt 0.942382812 0.473190367
vt 0.942382812 0.00134050846
vt 0.754882812 0.475871325
vt 0.754882812 0.861930311
vt 0.879882812 0.861930311
vt 0.879882812 0.475871325
vt 0.0009765625 0.604557633
vt 0.0009765625 0.99061662
vt 0.125976562 0.99061662
vt 0.125976562 0.604557633
vt 0.127929688 0.604557633
vt 0.127929688 0.947721183
vt 0.252929688 0.947721183
vt 0.252929688 0.604557633
vt 0.881835938 0.475871325
vt 0.881835938 0.776139379
vt 0.975585938 0.776139379
vt 0.975585938 0.475871325
vt 0.254882812 0.604557633
vt 0.254882812 0.904825747
vt 0.348632812 0.904825747
vt 0.348632812 0.604557633
vt 0.350585938 0.604557633
vt 0.350585938 0.776139379
vt 0.444335938 0.776139379
vt 0.444335938 0.604557633
vt 0.446289062 0.604557633
vt 0.446289062 0.776139379
vt 0.540039062 0.776139379
vt 0.540039062 0.604557633
vt 0.541992188 0.604557633
vt 0.541992188 0.690348506
vt 0.698242188 0.690348506
vt 0.698242188 0.604557633
vt 0.541992188 0.693029523
vt 0.541992188 0.778820395
vt 0.666992188 0.778820395
vt 0.666992188 0.693029523
vt 0.700195312 0.604557633
vt 0.700195312 0.819034874
vt 0.731445312 0.819034874
vt 0.731445312 0.604557633
vt 0.350585938 0.778820395
vt 0.350585938 0.993297577
vt 0.381835938 0.993297577
vt 0.381835938 0.778820395
vt 0.383789062 0.778820395
vt 0.383789062 0.864611268
vt 0.446289062 0.864611268
vt 0.446289062 0.778820395
vt 0.448242188 0.778820395
vt 0.448242188 0.950402141
vt 0.479492188 0.950402141
vt 0.479492188 0.778820395
vt 0.481445312 0.778820395
vt 0.481445312 0.950402141
vt 0.512695312 0.950402141
vt 0.512695312 0.778820395
vt 0.881835938 0.778820395
vt 0.881835938 0.907506704
vt 0.913085938 0.907506704
vt 0.913085938 0.778820395
vt 0.541992188 0.781501353
vt 0.541992188 0.824396789
vt 0.635742188 0.824396789
vt 0.635742188 0.781501353
vt 0.915039062 0.778820395
vt 0.915039062 0.907506704
vt 0.946289062 0.907506704
vt 0.946289062 0.778820395
vt 0.541992188 0.827077746
vt 0.541992188 0.869973183
vt 0.604492188 0.869973183
vt 0.604492188 0.827077746
vt 0.948242188 0.778820395
vt 0.948242188 0.864611268
vt 0.979492188 0.864611268
vt 0.979492188 0.778820395
vt 0.606445312 0.827077746
vt 0.606445312 0.869973183
vt 0.668945312 0.869973183
vt 0.668945312 0.827077746
vt 0.754882812 0.864611268
vt 0.754882812 0.907506704
vt 0.817382812 0.907506704
vt 0.817382812 0.864611268
vt 0.700195312 0.821715832
vt 0.700195312 0.907506704
vt 0.731445312 0.907506704
vt 0.731445312 0.821715832
vt 0.383789062 0.867292225
vt 0.383789062 0.910187662
vt 0.446289062 0.910187662
vt 0.446289062 0.867292225
vt 0.541992188 0.87265414
vt 0.541992188 0.915549576
vt 0.604492188 0.915549576
vt 0.604492188 0.87265414
vt 0.819335938 0.864611268
vt 0.819335938 0.950402141
vt 0.850585938 0.950402141
vt 0.850585938 0.864611268
vt 0.948242188 0.867292225
vt 0.948242188 0.953083098
vt 0.979492188 0.953083098
vt 0.979492188 0.867292225
vt 0.606445312 0.87265414
vt 0.606445312 0.958445013
vt 0.637695312 0.958445013
vt 0.637695312 0.87265414
vt 0.254882812 0.907506704
vt 0.254882812 0.950402141
vt 0.317382812 0.950402141
vt 0.317382812 0.907506704
vt 0.700195312 0.910187662
vt 0.700195312 0.953083098
vt 0.762695312 0.953083098
vt 0.762695312 0.910187662
vt 0.881835938 0.910187662
vt 0.881835938 0.953083098
vt 0.944335938 0.953083098
vt 0.944335938 0.910187662
vt 0.639648438 0.87265414
vt 0.639648438 0.958445013
vt 0.670898438 0.958445013
vt 0.670898438 0.87265414
vt 0.383789062 0.912868619
vt 0.383789062 0.955764055
vt 0.446289062 0.955764055
vt 0.446289062 0.912868619
vt 0.764648438 0.910187662
vt 0.764648438 0.953083098
vt 0.795898438 0.953083098
vt 0.795898438 0.910187662
vt 0.541992188 0.918230534
vt 0.541992188 0.961126029
vt 0.573242188 0.961126029
vt 0.573242188 0.918230534
vt 0.127929688 0.950402141
vt 0.127929688 0.993297577
vt 0.159179688 0.993297577
vt 0.159179688 0.950402141
vt 0.161132812 0.950402141
vt 0.161132812 0.993297577
vt 0.192382812 0.993297577
vt 0.192382812 0.950402141
vt 0.194335938 0.950402141
vt 0.194335938 0.993297577
vt 0.225585938 0.993297577
vt 0.225585938 0.950402141
vt 0.254882812 0.953083098
vt 0.254882812 0.995978534
vt 0.286132812 0.995978534
vt 0.286132812 0.953083098
vt 0.288085938 0.953083098
vt 0.288085938 0.995978534
vt 0.319335938 0.995978534
vt 0.319335938 0.953083098
vt 0.448242188 0.953083098
vt 0.448242188 0.995978534
vt 0.479492188 0.995978534
vt 0.479492188 0.953083098
vt 0.481445312 0.953083098
vt 0.481445312 0.995978534
vt 0.512695312 0.995978534
vt 0.512695312 0.953083098
vt 0.819335938 0.953083098
vt 0.819335938 0.995978534
vt 0.850585938 0.995978534
vt 0.850585938 0.953083098
vt 0.700195312 0.955764055
vt 0.700195312 0.998659492
vt 0.731445312 0.998659492
vt 0.731445312 0.955764055
vt 0.733398438 0.955764055
vt 0.733398438 0.998659492
vt 0.764648438 0.998659492
vt 0.764648438 0.955764055
g z25_2-mesh_0
f 3/3/3 2/2/2 1/1/1
f 1/1/1 4/4/4 3/3/3
f 7/7/7 6/6/6 5/5/5
f 5/5/5 8/8/8 7/7/7
f 11/11/11 10/10/10 9/9/9
f 9/9/9 12/12/12 11/11/11
f 15/15/15 14/14/14 13/13/13
f 13/13/13 16/16/16 15/15/15
f 19/19/19 18/18/18 17/17/17
f 17/17/17 20/20/20 19/19/19
f 23/23/23 22/22/22 21/21/21
f 21/21/21 24/24/24 23/23/23
f 27/27/27 26/26/26 25/25/25
f 25/25/25 28/28/28 27/27/27
f 31/31/31 30/30/30 29/29/29
f 29/29/29 32/32/32 31/31/31
f 35/35/35 34/34/34 33/33/33
f 33/33/33 36/36/36 35/35/35
f 39/39/39 38/38/38 37/37/37
f 37/37/37 40/40/40 39/39/39
f 43/43/43 42/42/42 41/41/41
f 41/41/41 44/44/44 43/43/43
f 47/47/47 46/46/46 45/45/45
f 45/45/45 48/48/48 47/47/47
f 51/51/51 50/50/50 49/49/49
f 49/49/49 52/52/52 51/51/51
f 55/55/55 54/54/54 53/53/53
f 53/53/53 56/56/56 55/55/55
f 59/59/59 58/58/58 57/57/57
f 57/57/57 60/60/60 59/59/59
f 63/63/63 62/62/62 61/61/61
f 61/61/61 64/64/64 63/63/63
f 67/67/67 66/66/66 65/65/65
f 65/65/65 68/68/68 67/67/67
f 71/71/71 70/70/70 69/69/69
f 69/69/69 72/72/72 71/71/71
f 75/75/75 74/74/74 73/73/73
f 73/73/73 76/76/76 75/75/75
f 79/79/79 78/78/78 77/77/77
f 77/77/77 80/80/80 79/79/79
f 83/83/83 82/82/82 81/81/81
f 81/81/81 84/84/84 83/83/83
f 87/87/87 86/86/86 85/85/85
f 85/85/85 88/88/88 87/87/87
f 91/91/91 90/90/90 89/89/89
f 89/89/89 92/92/92 91/91/91
f 95/95/95 94/94/94 93/93/93
f 93/93/93 96/96/96 95/95/95
f 99/99/99 98/98/98 97/97/97
f 97/97/97 100/100/100 99/99/99
f 103/103/103 102/102/102 101/101/101
f 101/101/101 104/104/104 103/103/103
f 107/107/107 106/106/106 105/105/105
f 105/105/105 108/108/108 107/107/107
f 111/111/111 110/110/110 109/109/109
f 109/109/109 112/112/112 111/111/111
f 115/115/115 114/114/114 113/113/113
f 113/113/113 116/116/116 115/115/115
f 119/119/119 118/118/118 117/117/117
f 117/117/117 120/120/120 119/119/119
f 123/123/123 122/122/122 121/121/121
f 121/121/121 124/124/124 123/123/123
f 127/127/127 126/126/126 125/125/125
f 125/125/125 128/128/128 127/127/127
f 131/131/131 130/130/130 129/129/129
f 129/129/129 132/132/132 131/131/131
f 135/135/135 134/134/134 133/133/133
f 133/133/133 136/136/136 135/135/135
f 139/139/139 138/138/138 137/137/137
f 137/137/137 140/140/140 139/139/139
f 143/143/143 142/142/142 141/141/141
f 141/141/141 144/144/144 143/143/143
f 147/147/147 146/146/146 145/145/145
f 145/145/145 148/148/148 147/147/147
f 151/151/151 150/150/150 149/149/149
f 149/149/149 152/152/152 151/151/151
f 155/155/155 154/154/154 153/153/153
f 153/153/153 156/156/156 155/155/155
f 159/159/159 158/158/158 157/157/157
f 157/157/157 160/160/160 159/159/159
f 163/163/163 162/162/162 161/161/161
f 161/161/161 164/164/164 163/163/163
f 167/167/167 166/166/166 165/165/165
f 165/165/165 168/168/168 167/167/167
f 171/171/171 170/170/170 169/169/169
f 169/169/169 172/172/172 171/171/171
f 175/175/175 174/174/174 173/173/173
f 173/173/173 176/176/176 175/175/175
f 179/179/179 178/178/178 177/177/177
f 177/177/177 180/180/180 179/179/179
f 183/183/183 182/182/182 181/181/181
f 181/181/181 184/184/184 183/183/183
f 187/187/187 186/186/186 185/185/185
f 185/185/185 188/188/188 187/187/187
