g dingan_3_shophx-mesh
v -448 2470 0
v -448 3142 0
v -1184 3142 0
v -1184 2470 0
v -448 3142 0
v -448 3814 0
v -1184 3814 0
v -1184 3142 0
v -1184 3110 0
v -1184 3526 0
v -1664 3526 0
v -1664 3110 0
v -1184 3526 0
v -1184 3942 0
v -1664 3942 0
v -1664 3526 0
v -704 3814 0
v -704 4038 0
v -1184 4038 0
v -1184 3814 0
v -1184 2726 0
v -1184 3014 0
v -1408 3014 0
v -1408 2726 0
v -224 2886 0
v -224 3174 0
v -448 3174 0
v -448 2886 0
v -224 2630 0
v -224 2886 0
v -448 2886 0
v -448 2630 0
v -1664 3494 0
v -1664 3782 0
v -1760 3782 0
v -1760 3494 0
v -1664 3238 0
v -1664 3494 0
v -1760 3494 0
v -1760 3238 0
v -576 3814 0
v -576 3974 0
v -704 3974 0
v -704 3814 0
v -1184 3942 0
v -1184 4038 0
v -1376 4038 0
v -1376 3942 0
v -1184 2630 0
v -1184 2726 0
v -1376 2726 0
v -1376 2630 0
v -1184 3014 0
v -1184 3110 0
v -1344 3110 0
v -1344 3014 0
v -1376 3942 0
v -1376 4038 0
v -1536 4038 0
v -1536 3942 0
v -320 2534 0
v -320 2630 0
v -448 2630 0
v -448 2534 0
v -1344 3014 0
v -1344 3110 0
v -1472 3110 0
v -1472 3014 0
v -480 2438 0
v -480 2470 0
v -800 2470 0
v -800 2438 0
v -320 3174 0
v -320 3270 0
v -416 3270 0
v -416 3174 0
v -416 3462 0
v -416 3750 0
v -448 3750 0
v -448 3462 0
v -416 3174 0
v -416 3462 0
v -448 3462 0
v -448 3174 0
v -800 2438 0
v -800 2470 0
v -1088 2470 0
v -1088 2438 0
v -1184 2502 0
v -1184 2630 0
v -1248 2630 0
v -1248 2502 0
v -864 4038 0
v -864 4070 0
v -1120 4070 0
v -1120 4038 0
v -1120 4038 0
v -1120 4070 0
v -1344 4070 0
v -1344 4038 0
v -192 2886 0
v -192 3110 0
v -224 3110 0
v -224 2886 0
v -512 3814 0
v -512 3910 0
v -576 3910 0
v -576 3814 0
v -1472 3046 0
v -1472 3110 0
v -1568 3110 0
v -1568 3046 0
v -1664 3782 0
v -1664 3878 0
v -1728 3878 0
v -1728 3782 0
v -1760 3526 0
v -1760 3718 0
v -1792 3718 0
v -1792 3526 0
v -1760 3334 0
v -1760 3526 0
v -1792 3526 0
v -1792 3334 0
v -192 2694 0
v -192 2886 0
v -224 2886 0
v -224 2694 0
v -1664 3174 0
v -1664 3238 0
v -1728 3238 0
v -1728 3174 0
v -1536 3942 0
v -1536 4006 0
v -1600 4006 0
v -1600 3942 0
v -384 3526 0
v -384 3622 0
v -416 3622 0
v -416 3526 0
v -384 3430 0
v -384 3526 0
v -416 3526 0
v -416 3430 0
v -352 3270 0
v -352 3302 0
v -416 3302 0
v -416 3270 0
v -480 3814 0
v -480 3878 0
v -512 3878 0
v -512 3814 0
v -640 3974 0
v -640 4006 0
v -704 4006 0
v -704 3974 0
v -1280 2566 0
v -1280 2630 0
v -1312 2630 0
v -1312 2566 0
v -256 2598 0
v -256 2630 0
v -320 2630 0
v -320 2598 0
v -288 3174 0
v -288 3238 0
v -320 3238 0
v -320 3174 0
v -1248 2566 0
v -1248 2630 0
v -1280 2630 0
v -1280 2566 0
v -352 2502 0
v -352 2534 0
v -416 2534 0
v -416 2502 0
v -160 2886 0
v -160 2950 0
v -192 2950 0
v -192 2886 0
v -256 3174 0
v -256 3206 0
v -288 3206 0
v -288 3174 0
v -1568 3078 0
v -1568 3110 0
v -1600 3110 0
v -1600 3078 0
v -1664 3142 0
v -1664 3174 0
v -1696 3174 0
v -1696 3142 0
v -1312 2598 0
v -1312 2630 0
v -1344 2630 0
v -1344 2598 0
v -288 2566 0
v -288 2598 0
v -320 2598 0
v -320 2566 0
v -416 2470 0
v -416 2502 0
v -448 2502 0
v -448 2470 0
v -416 2502 0
v -416 2534 0
v -448 2534 0
v -448 2502 0
v -1248 2534 0
v -1248 2566 0
v -1280 2566 0
v -1280 2534 0
v -160 2854 0
v -160 2886 0
v -192 2886 0
v -192 2854 0
v -1664 3878 0
v -1664 3910 0
v -1696 3910 0
v -1696 3878 0
v -544 3910 0
v -544 3942 0
v -576 3942 0
v -576 3910 0
v -1600 3942 0
v -1600 3974 0
v -1632 3974 0
v -1632 3942 0
vt 0.00048828125 0.000863552094
vt 0.00048828125 0.581174433
vt 0.359863281 0.581174433
vt 0.359863281 0.000863552094
vt 0.360839844 0.000863552094
vt 0.360839844 0.581174433
vt 0.720214844 0.581174433
vt 0.720214844 0.000863552094
vt 0.721191406 0.000863552094
vt 0.721191406 0.360103607
vt 0.955566406 0.360103607
vt 0.955566406 0.000863552094
vt 0.721191406 0.361830771
vt 0.721191406 0.721070826
vt 0.955566406 0.721070826
vt 0.955566406 0.361830771
vt 0.00048828125 0.582901597
vt 0.00048828125 0.776338518
vt 0.234863281 0.776338518
vt 0.234863281 0.582901597
vt 0.235839844 0.582901597
vt 0.235839844 0.831606209
vt 0.345214844 0.831606209
vt 0.345214844 0.582901597
vt 0.346191406 0.582901597
vt 0.346191406 0.831606209
vt 0.455566406 0.831606209
vt 0.455566406 0.582901597
vt 0.456542969 0.582901597
vt 0.456542969 0.803972363
vt 0.565917969 0.803972363
vt 0.565917969 0.582901597
vt 0.566894531 0.582901597
vt 0.566894531 0.831606209
vt 0.613769531 0.831606209
vt 0.613769531 0.582901597
vt 0.614746094 0.582901597
vt 0.614746094 0.803972363
vt 0.661621094 0.803972363
vt 0.661621094 0.582901597
vt 0.721191406 0.72279793
vt 0.721191406 0.860967159
vt 0.783691406 0.860967159
vt 0.783691406 0.72279793
vt 0.784667969 0.72279793
vt 0.784667969 0.805699468
vt 0.878417969 0.805699468
vt 0.878417969 0.72279793
vt 0.879394531 0.72279793
vt 0.879394531 0.805699468
vt 0.973144531 0.805699468
vt 0.973144531 0.72279793
vt 0.00048828125 0.778065622
vt 0.00048828125 0.860967159
vt 0.0786132812 0.860967159
vt 0.0786132812 0.778065622
vt 0.0795898438 0.778065622
vt 0.0795898438 0.860967159
vt 0.157714844 0.860967159
vt 0.157714844 0.778065622
vt 0.158691406 0.778065622
vt 0.158691406 0.860967159
vt 0.221191406 0.860967159
vt 0.221191406 0.778065622
vt 0.456542969 0.805699468
vt 0.456542969 0.888601065
vt 0.519042969 0.888601065
vt 0.519042969 0.805699468
vt 0.784667969 0.807426572
vt 0.784667969 0.835060477
vt 0.940917969 0.835060477
vt 0.940917969 0.807426572
vt 0.662597656 0.582901597
vt 0.662597656 0.665803075
vt 0.709472656 0.665803075
vt 0.709472656 0.582901597
vt 0.974121094 0.000863552094
vt 0.974121094 0.249568224
vt 0.989746094 0.249568224
vt 0.989746094 0.000863552094
vt 0.974121094 0.251295328
vt 0.974121094 0.5
vt 0.989746094 0.5
vt 0.989746094 0.251295328
vt 0.235839844 0.833333313
vt 0.235839844 0.860967159
vt 0.376464844 0.860967159
vt 0.376464844 0.833333313
vt 0.662597656 0.667530239
vt 0.662597656 0.778065622
vt 0.693847656 0.778065622
vt 0.693847656 0.667530239
vt 0.566894531 0.833333313
vt 0.566894531 0.860967159
vt 0.691894531 0.860967159
vt 0.691894531 0.833333313
vt 0.784667969 0.836787581
vt 0.784667969 0.864421427
vt 0.894042969 0.864421427
vt 0.894042969 0.836787581
vt 0.974121094 0.501727104
vt 0.974121094 0.695164084
vt 0.989746094 0.695164084
vt 0.989746094 0.501727104
vt 0.520019531 0.805699468
vt 0.520019531 0.888601065
vt 0.551269531 0.888601065
vt 0.551269531 0.805699468
vt 0.941894531 0.807426572
vt 0.941894531 0.862694263
vt 0.988769531 0.862694263
vt 0.988769531 0.807426572
vt 0.377441406 0.833333313
vt 0.377441406 0.91623491
vt 0.408691406 0.91623491
vt 0.408691406 0.833333313
vt 0.694824219 0.667530239
vt 0.694824219 0.833333313
vt 0.710449219 0.833333313
vt 0.710449219 0.667530239
vt 0.409667969 0.833333313
vt 0.409667969 0.999136448
vt 0.425292969 0.999136448
vt 0.425292969 0.833333313
vt 0.426269531 0.833333313
vt 0.426269531 0.999136448
vt 0.441894531 0.999136448
vt 0.441894531 0.833333313
vt 0.895019531 0.836787581
vt 0.895019531 0.892055273
vt 0.926269531 0.892055273
vt 0.926269531 0.836787581
vt 0.00048828125 0.862694263
vt 0.00048828125 0.917962015
vt 0.0317382812 0.917962015
vt 0.0317382812 0.862694263
vt 0.694824219 0.835060477
vt 0.694824219 0.917962015
vt 0.710449219 0.917962015
vt 0.710449219 0.835060477
vt 0.0327148438 0.862694263
vt 0.0327148438 0.94559586
vt 0.0483398438 0.94559586
vt 0.0483398438 0.862694263
vt 0.0493164062 0.862694263
vt 0.0493164062 0.890328169
vt 0.0805664062 0.890328169
vt 0.0805664062 0.862694263
vt 0.0815429688 0.862694263
vt 0.0815429688 0.917962015
vt 0.0971679688 0.917962015
vt 0.0971679688 0.862694263
vt 0.0981445312 0.862694263
vt 0.0981445312 0.890328169
vt 0.129394531 0.890328169
vt 0.129394531 0.862694263
vt 0.130371094 0.862694263
vt 0.130371094 0.917962015
vt 0.145996094 0.917962015
vt 0.145996094 0.862694263
vt 0.146972656 0.862694263
vt 0.146972656 0.890328169
vt 0.178222656 0.890328169
vt 0.178222656 0.862694263
vt 0.179199219 0.862694263
vt 0.179199219 0.917962015
vt 0.194824219 0.917962015
vt 0.194824219 0.862694263
vt 0.195800781 0.862694263
vt 0.195800781 0.917962015
vt 0.211425781 0.917962015
vt 0.211425781 0.862694263
vt 0.212402344 0.862694263
vt 0.212402344 0.890328169
vt 0.243652344 0.890328169
vt 0.243652344 0.862694263
vt 0.244628906 0.862694263
vt 0.244628906 0.917962015
vt 0.260253906 0.917962015
vt 0.260253906 0.862694263
vt 0.261230469 0.862694263
vt 0.261230469 0.890328169
vt 0.276855469 0.890328169
vt 0.276855469 0.862694263
vt 0.277832031 0.862694263
vt 0.277832031 0.890328169
vt 0.293457031 0.890328169
vt 0.293457031 0.862694263
vt 0.294433594 0.862694263
vt 0.294433594 0.890328169
vt 0.310058594 0.890328169
vt 0.310058594 0.862694263
vt 0.311035156 0.862694263
vt 0.311035156 0.890328169
vt 0.326660156 0.890328169
vt 0.326660156 0.862694263
vt 0.327636719 0.862694263
vt 0.327636719 0.890328169
vt 0.343261719 0.890328169
vt 0.343261719 0.862694263
vt 0.344238281 0.862694263
vt 0.344238281 0.890328169
vt 0.359863281 0.890328169
vt 0.359863281 0.862694263
vt 0.360839844 0.862694263
vt 0.360839844 0.890328169
vt 0.376464844 0.890328169
vt 0.376464844 0.862694263
vt 0.566894531 0.862694263
vt 0.566894531 0.890328169
vt 0.582519531 0.890328169
vt 0.582519531 0.862694263
vt 0.583496094 0.862694263
vt 0.583496094 0.890328169
vt 0.599121094 0.890328169
vt 0.599121094 0.862694263
vt 0.600097656 0.862694263
vt 0.600097656 0.890328169
vt 0.615722656 0.890328169
vt 0.615722656 0.862694263
vt 0.616699219 0.862694263
vt 0.616699219 0.890328169
vt 0.632324219 0.890328169
vt 0.632324219 0.862694263
vt 0.633300781 0.862694263
vt 0.633300781 0.890328169
vt 0.648925781 0.890328169
vt 0.648925781 0.862694263
g dingan_3_shophx-mesh_0
f 3/3/3 2/2/2 1/1/1
f 1/1/1 4/4/4 3/3/3
f 7/7/7 6/6/6 5/5/5
f 5/5/5 8/8/8 7/7/7
f 11/11/11 10/10/10 9/9/9
f 9/9/9 12/12/12 11/11/11
f 15/15/15 14/14/14 13/13/13
f 13/13/13 16/16/16 15/15/15
f 19/19/19 18/18/18 17/17/17
f 17/17/17 20/20/20 19/19/19
f 23/23/23 22/22/22 21/21/21
f 21/21/21 24/24/24 23/23/23
f 27/27/27 26/26/26 25/25/25
f 25/25/25 28/28/28 27/27/27
f 31/31/31 30/30/30 29/29/29
f 29/29/29 32/32/32 31/31/31
f 35/35/35 34/34/34 33/33/33
f 33/33/33 36/36/36 35/35/35
f 39/39/39 38/38/38 37/37/37
f 37/37/37 40/40/40 39/39/39
f 43/43/43 42/42/42 41/41/41
f 41/41/41 44/44/44 43/43/43
f 47/47/47 46/46/46 45/45/45
f 45/45/45 48/48/48 47/47/47
f 51/51/51 50/50/50 49/49/49
f 49/49/49 52/52/52 51/51/51
f 55/55/55 54/54/54 53/53/53
f 53/53/53 56/56/56 55/55/55
f 59/59/59 58/58/58 57/57/57
f 57/57/57 60/60/60 59/59/59
f 63/63/63 62/62/62 61/61/61
f 61/61/61 64/64/64 63/63/63
f 67/67/67 66/66/66 65/65/65
f 65/65/65 68/68/68 67/67/67
f 71/71/71 70/70/70 69/69/69
f 69/69/69 72/72/72 71/71/71
f 75/75/75 74/74/74 73/73/73
f 73/73/73 76/76/76 75/75/75
f 79/79/79 78/78/78 77/77/77
f 77/77/77 80/80/80 79/79/79
f 83/83/83 82/82/82 81/81/81
f 81/81/81 84/84/84 83/83/83
f 87/87/87 86/86/86 85/85/85
f 85/85/85 88/88/88 87/87/87
f 91/91/91 90/90/90 89/89/89
f 89/89/89 92/92/92 91/91/91
f 95/95/95 94/94/94 93/93/93
f 93/93/93 96/96/96 95/95/95
f 99/99/99 98/98/98 97/97/97
f 97/97/97 100/100/100 99/99/99
f 103/103/103 102/102/102 101/101/101
f 101/101/101 104/104/104 103/103/103
f 107/107/107 106/106/106 105/105/105
f 105/105/105 108/108/108 107/107/107
f 111/111/111 110/110/110 109/109/109
f 109/109/109 112/112/112 111/111/111
f 115/115/115 114/114/114 113/113/113
f 113/113/113 116/116/116 115/115/115
f 119/119/119 118/118/118 117/117/117
f 117/117/117 120/120/120 119/119/119
f 123/123/123 122/122/122 121/121/121
f 121/121/121 124/124/124 123/123/123
f 127/127/127 126/126/126 125/125/125
f 125/125/125 128/128/128 127/127/127
f 131/131/131 130/130/130 129/129/129
f 129/129/129 132/132/132 131/131/131
f 135/135/135 134/134/134 133/133/133
f 133/133/133 136/136/136 135/135/135
f 139/139/139 138/138/138 137/137/137
f 137/137/137 140/140/140 139/139/139
f 143/143/143 142/142/142 141/141/141
f 141/141/141 144/144/144 143/143/143
f 147/147/147 146/146/146 145/145/145
f 145/145/145 148/148/148 147/147/147
f 151/151/151 150/150/150 149/149/149
f 149/149/149 152/152/152 151/151/151
f 155/155/155 154/154/154 153/153/153
f 153/153/153 156/156/156 155/155/155
f 159/159/159 158/158/158 157/157/157
f 157/157/157 160/160/160 159/159/159
f 163/163/163 162/162/162 161/161/161
f 161/161/161 164/164/164 163/163/163
f 167/167/167 166/166/166 165/165/165
f 165/165/165 168/168/168 167/167/167
f 171/171/171 170/170/170 169/169/169
f 169/169/169 172/172/172 171/171/171
f 175/175/175 174/174/174 173/173/173
f 173/173/173 176/176/176 175/175/175
f 179/179/179 178/178/178 177/177/177
f 177/177/177 180/180/180 179/179/179
f 183/183/183 182/182/182 181/181/181
f 181/181/181 184/184/184 183/183/183
f 187/187/187 186/186/186 185/185/185
f 185/185/185 188/188/188 187/187/187
f 191/191/191 190/190/190 189/189/189
f 189/189/189 192/192/192 191/191/191
f 195/195/195 194/194/194 193/193/193
f 193/193/193 196/196/196 195/195/195
f 199/199/199 198/198/198 197/197/197
f 197/197/197 200/200/200 199/199/199
f 203/203/203 202/202/202 201/201/201
f 201/201/201 204/204/204 203/203/203
f 207/207/207 206/206/206 205/205/205
f 205/205/205 208/208/208 207/207/207
f 211/211/211 210/210/210 209/209/209
f 209/209/209 212/212/212 211/211/211
f 215/215/215 214/214/214 213/213/213
f 213/213/213 216/216/216 215/215/215
f 219/219/219 218/218/218 217/217/217
f 217/217/217 220/220/220 219/219/219
f 223/223/223 222/222/222 221/221/221
f 221/221/221 224/224/224 223/223/223
f 227/227/227 226/226/226 225/225/225
f 225/225/225 228/228/228 227/227/227
