g gaoxiong_5-mesh
v -320 821 0
v -320 1493 0
v -1600 1493 0
v -1600 821 0
v -320 181 0
v -320 821 0
v -1600 821 0
v -1600 181 0
v -96 1493 0
v -96 1653 0
v -736 1653 0
v -736 1493 0
v -736 1493 0
v -736 1653 0
v -1344 1653 0
v -1344 1493 0
v -64 181 0
v -64 533 0
v -320 533 0
v -320 181 0
v -1696 789 0
v -1696 1205 0
v -1888 1205 0
v -1888 789 0
v -32 1205 0
v -32 1493 0
v -288 1493 0
v -288 1205 0
v -1600 725 0
v -1600 1429 0
v -1696 1429 0
v -1696 725 0
v -1600 21 0
v -1600 725 0
v -1696 725 0
v -1696 21 0
v -480 1653 0
v -480 1813 0
v -768 1813 0
v -768 1653 0
v -192 1653 0
v -192 1813 0
v -480 1813 0
v -480 1653 0
v -1696 21 0
v -1696 245 0
v -1888 245 0
v -1888 21 0
v -1024 149 0
v -1024 181 0
v -1600 181 0
v -1600 149 0
v -448 149 0
v -448 181 0
v -1024 181 0
v -1024 149 0
v -96 1109 0
v -96 1205 0
v -256 1205 0
v -256 1109 0
v -1888 0 0
v -1888 85 0
v -2047 85 0
v -2047 0 0
v -1312 53 0
v -1312 149 0
v -1472 149 0
v -1472 53 0
v -1696 245 0
v -1696 341 0
v -1824 341 0
v -1824 245 0
v -1472 53 0
v -1472 149 0
v -1600 149 0
v -1600 53 0
v -1344 1493 0
v -1344 1589 0
v -1472 1589 0
v -1472 1493 0
v -288 917 0
v -288 1205 0
v -320 1205 0
v -320 917 0
v -288 661 0
v -288 917 0
v -320 917 0
v -320 661 0
v -224 533 0
v -224 629 0
v -288 629 0
v -288 533 0
v -1696 1269 0
v -1696 1365 0
v -1760 1365 0
v -1760 1269 0
v -1056 1653 0
v -1056 1685 0
v -1248 1685 0
v -1248 1653 0
v -864 1653 0
v -864 1685 0
v -1056 1685 0
v -1056 1653 0
v -224 629 0
v -224 725 0
v -288 725 0
v -288 629 0
v -1888 981 0
v -1888 1141 0
v -1920 1141 0
v -1920 981 0
v -32 309 0
v -32 469 0
v -64 469 0
v -64 309 0
v -192 149 0
v -192 181 0
v -320 181 0
v -320 149 0
v -256 821 0
v -256 949 0
v -288 949 0
v -288 821 0
v -1696 661 0
v -1696 789 0
v -1728 789 0
v -1728 661 0
v -1888 85 0
v -1888 149 0
v -1952 149 0
v -1952 85 0
v -160 533 0
v -160 597 0
v -224 597 0
v -224 533 0
v -1760 1205 0
v -1760 1269 0
v -1824 1269 0
v -1824 1205 0
v -32 181 0
v -32 309 0
v -64 309 0
v -64 181 0
v -1888 853 0
v -1888 981 0
v -1920 981 0
v -1920 853 0
v -1696 1205 0
v -1696 1269 0
v -1760 1269 0
v -1760 1205 0
v -288 1365 0
v -288 1493 0
v -320 1493 0
v -320 1365 0
v -288 1237 0
v -288 1365 0
v -320 1365 0
v -320 1237 0
v -256 949 0
v -256 1077 0
v -288 1077 0
v -288 949 0
v -1696 565 0
v -1696 661 0
v -1728 661 0
v -1728 565 0
v -320 149 0
v -320 181 0
v -416 181 0
v -416 149 0
v -1120 117 0
v -1120 149 0
v -1216 149 0
v -1216 117 0
v -1728 693 0
v -1728 789 0
v -1760 789 0
v -1760 693 0
v -1216 117 0
v -1216 149 0
v -1312 149 0
v -1312 117 0
v -1344 1589 0
v -1344 1621 0
v -1408 1621 0
v -1408 1589 0
v -128 1653 0
v -128 1717 0
v -160 1717 0
v -160 1653 0
v -64 1141 0
v -64 1205 0
v -96 1205 0
v -96 1141 0
v -1344 21 0
v -1344 53 0
v -1408 53 0
v -1408 21 0
v -1504 21 0
v -1504 53 0
v -1568 53 0
v -1568 21 0
v -288 565 0
v -288 629 0
v -320 629 0
v -320 565 0
v -256 725 0
v -256 789 0
v -288 789 0
v -288 725 0
v -1856 245 0
v -1856 277 0
v -1920 277 0
v -1920 245 0
v -0 181 0
v -0 245 0
v -32 245 0
v -32 181 0
v -1888 213 0
v -1888 245 0
v -1952 245 0
v -1952 213 0
v -1792 725 0
v -1792 789 0
v -1824 789 0
v -1824 725 0
v -96 533 0
v -96 565 0
v -160 565 0
v -160 533 0
v -1824 277 0
v -1824 309 0
v -1888 309 0
v -1888 277 0
v -1760 725 0
v -1760 789 0
v -1792 789 0
v -1792 725 0
v -0 1333 0
v -0 1397 0
v -32 1397 0
v -32 1333 0
v -160 1653 0
v -160 1717 0
v -192 1717 0
v -192 1653 0
v -1472 1493 0
v -1472 1525 0
v -1536 1525 0
v -1536 1493 0
v -1696 1397 0
v -1696 1461 0
v -1728 1461 0
v -1728 1397 0
v -160 1717 0
v -160 1781 0
v -192 1781 0
v -192 1717 0
v -1728 629 0
v -1728 693 0
v -1760 693 0
v -1760 629 0
v -64 1525 0
v -64 1589 0
v -96 1589 0
v -96 1525 0
v -128 1077 0
v -128 1109 0
v -192 1109 0
v -192 1077 0
v -1664 1429 0
v -1664 1461 0
v -1696 1461 0
v -1696 1429 0
v -1600 1429 0
v -1600 1461 0
v -1632 1461 0
v -1632 1429 0
v -1760 1269 0
v -1760 1301 0
v -1792 1301 0
v -1792 1269 0
v -1920 181 0
v -1920 213 0
v -1952 213 0
v -1952 181 0
v -1888 149 0
v -1888 181 0
v -1920 181 0
v -1920 149 0
v -1952 85 0
v -1952 117 0
v -1984 117 0
v -1984 85 0
v -192 597 0
v -192 629 0
v -224 629 0
v -224 597 0
v -1824 1205 0
v -1824 1237 0
v -1856 1237 0
v -1856 1205 0
v -256 1173 0
v -256 1205 0
v -288 1205 0
v -288 1173 0
v -1824 757 0
v -1824 789 0
v -1856 789 0
v -1856 757 0
v -0 1301 0
v -0 1333 0
v -32 1333 0
v -32 1301 0
v -1568 21 0
v -1568 53 0
v -1600 53 0
v -1600 21 0
v -1408 21 0
v -1408 53 0
v -1440 53 0
v -1440 21 0
v -192 1077 0
v -192 1109 0
v -224 1109 0
v -224 1077 0
v -288 533 0
v -288 565 0
v -320 565 0
v -320 533 0
v -1760 693 0
v -1760 725 0
v -1792 725 0
v -1792 693 0
v -1472 1525 0
v -1472 1557 0
v -1504 1557 0
v -1504 1525 0
v -64 1493 0
v -64 1525 0
v -96 1525 0
v -96 1493 0
v -1696 1365 0
v -1696 1397 0
v -1728 1397 0
v -1728 1365 0
v -1536 1493 0
v -1536 1525 0
v -1568 1525 0
v -1568 1493 0
vt 0.00048828125 0.000676572323
vt 0.00048828125 0.455345035
vt 0.625488281 0.455345035
vt 0.625488281 0.000676572323
vt 0.00048828125 0.456698239
vt 0.00048828125 0.88971585
vt 0.625488281 0.88971585
vt 0.625488281 0.456698239
vt 0.626464844 0.000676572323
vt 0.626464844 0.108931005
vt 0.938964844 0.108931005
vt 0.938964844 0.000676572323
vt 0.626464844 0.11028415
vt 0.626464844 0.218538582
vt 0.923339844 0.218538582
vt 0.923339844 0.11028415
vt 0.626464844 0.219891727
vt 0.626464844 0.458051443
vt 0.751464844 0.458051443
vt 0.751464844 0.219891727
vt 0.752441406 0.219891727
vt 0.752441406 0.501353145
vt 0.846191406 0.501353145
vt 0.846191406 0.219891727
vt 0.847167969 0.219891727
vt 0.847167969 0.414749682
vt 0.972167969 0.414749682
vt 0.972167969 0.219891727
vt 0.847167969 0.416102827
vt 0.847167969 0.892422199
vt 0.894042969 0.892422199
vt 0.894042969 0.416102827
vt 0.895019531 0.416102827
vt 0.895019531 0.892422199
vt 0.941894531 0.892422199
vt 0.941894531 0.416102827
vt 0.00048828125 0.891068995
vt 0.00048828125 0.999323428
vt 0.141113281 0.999323428
vt 0.141113281 0.891068995
vt 0.142089844 0.891068995
vt 0.142089844 0.999323428
vt 0.282714844 0.999323428
vt 0.282714844 0.891068995
vt 0.626464844 0.459404588
vt 0.626464844 0.610960722
vt 0.720214844 0.610960722
vt 0.720214844 0.459404588
vt 0.283691406 0.891068995
vt 0.283691406 0.912719905
vt 0.564941406 0.912719905
vt 0.564941406 0.891068995
vt 0.283691406 0.91407305
vt 0.283691406 0.93572396
vt 0.564941406 0.93572396
vt 0.564941406 0.91407305
vt 0.752441406 0.502706349
vt 0.752441406 0.56765902
vt 0.830566406 0.56765902
vt 0.830566406 0.502706349
vt 0.752441406 0.569012165
vt 0.752441406 0.627198935
vt 0.830566406 0.627198935
vt 0.830566406 0.569012165
vt 0.626464844 0.612313926
vt 0.626464844 0.677266598
vt 0.704589844 0.677266598
vt 0.704589844 0.612313926
vt 0.752441406 0.628552079
vt 0.752441406 0.693504751
vt 0.814941406 0.693504751
vt 0.814941406 0.628552079
vt 0.626464844 0.678619742
vt 0.626464844 0.743572354
vt 0.688964844 0.743572354
vt 0.688964844 0.678619742
vt 0.752441406 0.694857955
vt 0.752441406 0.759810567
vt 0.814941406 0.759810567
vt 0.814941406 0.694857955
vt 0.973144531 0.000676572323
vt 0.973144531 0.195534527
vt 0.988769531 0.195534527
vt 0.988769531 0.000676572323
vt 0.973144531 0.196887672
vt 0.973144531 0.370094717
vt 0.988769531 0.370094717
vt 0.988769531 0.196887672
vt 0.942871094 0.416102827
vt 0.942871094 0.481055498
vt 0.974121094 0.481055498
vt 0.974121094 0.416102827
vt 0.942871094 0.482408643
vt 0.942871094 0.547361255
vt 0.974121094 0.547361255
vt 0.974121094 0.482408643
vt 0.626464844 0.744925618
vt 0.626464844 0.766576469
vt 0.720214844 0.766576469
vt 0.720214844 0.744925618
vt 0.752441406 0.761163712
vt 0.752441406 0.782814622
vt 0.846191406 0.782814622
vt 0.846191406 0.761163712
vt 0.942871094 0.548714519
vt 0.942871094 0.61366713
vt 0.974121094 0.61366713
vt 0.974121094 0.548714519
vt 0.975097656 0.371447921
vt 0.975097656 0.479702294
vt 0.990722656 0.479702294
vt 0.990722656 0.371447921
vt 0.721191406 0.459404588
vt 0.721191406 0.56765902
vt 0.736816406 0.56765902
vt 0.736816406 0.459404588
vt 0.626464844 0.767929614
vt 0.626464844 0.789580524
vt 0.688964844 0.789580524
vt 0.688964844 0.767929614
vt 0.975097656 0.481055498
vt 0.975097656 0.56765902
vt 0.990722656 0.56765902
vt 0.990722656 0.481055498
vt 0.721191406 0.569012165
vt 0.721191406 0.655615687
vt 0.736816406 0.655615687
vt 0.736816406 0.569012165
vt 0.942871094 0.615020275
vt 0.942871094 0.658322096
vt 0.974121094 0.658322096
vt 0.974121094 0.615020275
vt 0.942871094 0.659675241
vt 0.942871094 0.702977002
vt 0.974121094 0.702977002
vt 0.974121094 0.659675241
vt 0.942871094 0.704330206
vt 0.942871094 0.747631907
vt 0.974121094 0.747631907
vt 0.974121094 0.704330206
vt 0.975097656 0.569012165
vt 0.975097656 0.655615687
vt 0.990722656 0.655615687
vt 0.990722656 0.569012165
vt 0.721191406 0.656968892
vt 0.721191406 0.743572354
vt 0.736816406 0.743572354
vt 0.736816406 0.656968892
vt 0.942871094 0.748985112
vt 0.942871094 0.792286873
vt 0.974121094 0.792286873
vt 0.974121094 0.748985112
vt 0.975097656 0.656968892
vt 0.975097656 0.743572354
vt 0.990722656 0.743572354
vt 0.990722656 0.656968892
vt 0.721191406 0.744925618
vt 0.721191406 0.831529081
vt 0.736816406 0.831529081
vt 0.736816406 0.744925618
vt 0.975097656 0.744925618
vt 0.975097656 0.831529081
vt 0.990722656 0.831529081
vt 0.990722656 0.744925618
vt 0.689941406 0.767929614
vt 0.689941406 0.832882285
vt 0.705566406 0.832882285
vt 0.705566406 0.767929614
vt 0.752441406 0.784167767
vt 0.752441406 0.805818677
vt 0.799316406 0.805818677
vt 0.799316406 0.784167767
vt 0.626464844 0.790933728
vt 0.626464844 0.812584579
vt 0.673339844 0.812584579
vt 0.673339844 0.790933728
vt 0.800292969 0.784167767
vt 0.800292969 0.849120438
vt 0.815917969 0.849120438
vt 0.815917969 0.784167767
vt 0.752441406 0.807171822
vt 0.752441406 0.828822732
vt 0.799316406 0.828822732
vt 0.799316406 0.807171822
vt 0.942871094 0.793640018
vt 0.942871094 0.815290928
vt 0.974121094 0.815290928
vt 0.974121094 0.793640018
vt 0.816894531 0.784167767
vt 0.816894531 0.827469587
vt 0.832519531 0.827469587
vt 0.832519531 0.784167767
vt 0.626464844 0.813937783
vt 0.626464844 0.857239485
vt 0.642089844 0.857239485
vt 0.642089844 0.813937783
vt 0.643066406 0.813937783
vt 0.643066406 0.835588634
vt 0.674316406 0.835588634
vt 0.674316406 0.813937783
vt 0.942871094 0.816644132
vt 0.942871094 0.838294983
vt 0.974121094 0.838294983
vt 0.974121094 0.816644132
vt 0.816894531 0.828822732
vt 0.816894531 0.872124493
vt 0.832519531 0.872124493
vt 0.832519531 0.828822732
vt 0.752441406 0.830175877
vt 0.752441406 0.873477697
vt 0.768066406 0.873477697
vt 0.768066406 0.830175877
vt 0.689941406 0.83423543
vt 0.689941406 0.85588634
vt 0.721191406 0.85588634
vt 0.721191406 0.83423543
vt 0.769042969 0.830175877
vt 0.769042969 0.873477697
vt 0.784667969 0.873477697
vt 0.784667969 0.830175877
vt 0.643066406 0.836941838
vt 0.643066406 0.858592689
vt 0.674316406 0.858592689
vt 0.674316406 0.836941838
vt 0.722167969 0.832882285
vt 0.722167969 0.876184046
vt 0.737792969 0.876184046
vt 0.737792969 0.832882285
vt 0.942871094 0.839648187
vt 0.942871094 0.861299038
vt 0.974121094 0.861299038
vt 0.974121094 0.839648187
vt 0.689941406 0.857239485
vt 0.689941406 0.878890395
vt 0.721191406 0.878890395
vt 0.721191406 0.857239485
vt 0.975097656 0.832882285
vt 0.975097656 0.876184046
vt 0.990722656 0.876184046
vt 0.990722656 0.832882285
vt 0.800292969 0.850473642
vt 0.800292969 0.893775344
vt 0.815917969 0.893775344
vt 0.815917969 0.850473642
vt 0.626464844 0.858592689
vt 0.626464844 0.90189445
vt 0.642089844 0.90189445
vt 0.642089844 0.858592689
vt 0.643066406 0.859945893
vt 0.643066406 0.881596744
vt 0.674316406 0.881596744
vt 0.674316406 0.859945893
vt 0.942871094 0.862652242
vt 0.942871094 0.905954003
vt 0.958496094 0.905954003
vt 0.958496094 0.862652242
vt 0.816894531 0.873477697
vt 0.816894531 0.916779399
vt 0.832519531 0.916779399
vt 0.832519531 0.873477697
vt 0.752441406 0.874830842
vt 0.752441406 0.918132603
vt 0.768066406 0.918132603
vt 0.768066406 0.874830842
vt 0.769042969 0.874830842
vt 0.769042969 0.918132603
vt 0.784667969 0.918132603
vt 0.784667969 0.874830842
vt 0.689941406 0.88024354
vt 0.689941406 0.90189445
vt 0.721191406 0.90189445
vt 0.721191406 0.88024354
vt 0.722167969 0.877537191
vt 0.722167969 0.899188101
vt 0.737792969 0.899188101
vt 0.737792969 0.877537191
vt 0.975097656 0.877537191
vt 0.975097656 0.899188101
vt 0.990722656 0.899188101
vt 0.990722656 0.877537191
vt 0.643066406 0.882949948
vt 0.643066406 0.904600799
vt 0.658691406 0.904600799
vt 0.658691406 0.882949948
vt 0.659667969 0.882949948
vt 0.659667969 0.904600799
vt 0.675292969 0.904600799
vt 0.675292969 0.882949948
vt 0.565917969 0.891068995
vt 0.565917969 0.912719905
vt 0.581542969 0.912719905
vt 0.581542969 0.891068995
vt 0.582519531 0.891068995
vt 0.582519531 0.912719905
vt 0.598144531 0.912719905
vt 0.598144531 0.891068995
vt 0.599121094 0.891068995
vt 0.599121094 0.912719905
vt 0.614746094 0.912719905
vt 0.614746094 0.891068995
vt 0.847167969 0.893775344
vt 0.847167969 0.915426254
vt 0.862792969 0.915426254
vt 0.862792969 0.893775344
vt 0.863769531 0.893775344
vt 0.863769531 0.915426254
vt 0.879394531 0.915426254
vt 0.879394531 0.893775344
vt 0.880371094 0.893775344
vt 0.880371094 0.915426254
vt 0.895996094 0.915426254
vt 0.895996094 0.893775344
vt 0.896972656 0.893775344
vt 0.896972656 0.915426254
vt 0.912597656 0.915426254
vt 0.912597656 0.893775344
vt 0.913574219 0.893775344
vt 0.913574219 0.915426254
vt 0.929199219 0.915426254
vt 0.929199219 0.893775344
vt 0.800292969 0.895128548
vt 0.800292969 0.916779399
vt 0.815917969 0.916779399
vt 0.815917969 0.895128548
vt 0.722167969 0.900541246
vt 0.722167969 0.922192156
vt 0.737792969 0.922192156
vt 0.737792969 0.900541246
vt 0.975097656 0.900541246
vt 0.975097656 0.922192156
vt 0.990722656 0.922192156
vt 0.990722656 0.900541246
vt 0.626464844 0.903247654
vt 0.626464844 0.924898505
vt 0.642089844 0.924898505
vt 0.642089844 0.903247654
vt 0.689941406 0.903247654
vt 0.689941406 0.924898505
vt 0.705566406 0.924898505
vt 0.705566406 0.903247654
vt 0.643066406 0.905954003
vt 0.643066406 0.927604854
vt 0.658691406 0.927604854
vt 0.658691406 0.905954003
vt 0.659667969 0.905954003
vt 0.659667969 0.927604854
vt 0.675292969 0.927604854
vt 0.675292969 0.905954003
vt 0.942871094 0.907307148
vt 0.942871094 0.928958058
vt 0.958496094 0.928958058
vt 0.958496094 0.907307148
g gaoxiong_5-mesh_0
f 3/3/3 2/2/2 1/1/1
f 1/1/1 4/4/4 3/3/3
f 7/7/7 6/6/6 5/5/5
f 5/5/5 8/8/8 7/7/7
f 11/11/11 10/10/10 9/9/9
f 9/9/9 12/12/12 11/11/11
f 15/15/15 14/14/14 13/13/13
f 13/13/13 16/16/16 15/15/15
f 19/19/19 18/18/18 17/17/17
f 17/17/17 20/20/20 19/19/19
f 23/23/23 22/22/22 21/21/21
f 21/21/21 24/24/24 23/23/23
f 27/27/27 26/26/26 25/25/25
f 25/25/25 28/28/28 27/27/27
f 31/31/31 30/30/30 29/29/29
f 29/29/29 32/32/32 31/31/31
f 35/35/35 34/34/34 33/33/33
f 33/33/33 36/36/36 35/35/35
f 39/39/39 38/38/38 37/37/37
f 37/37/37 40/40/40 39/39/39
f 43/43/43 42/42/42 41/41/41
f 41/41/41 44/44/44 43/43/43
f 47/47/47 46/46/46 45/45/45
f 45/45/45 48/48/48 47/47/47
f 51/51/51 50/50/50 49/49/49
f 49/49/49 52/52/52 51/51/51
f 55/55/55 54/54/54 53/53/53
f 53/53/53 56/56/56 55/55/55
f 59/59/59 58/58/58 57/57/57
f 57/57/57 60/60/60 59/59/59
f 63/63/63 62/62/62 61/61/61
f 61/61/61 64/64/64 63/63/63
f 67/67/67 66/66/66 65/65/65
f 65/65/65 68/68/68 67/67/67
f 71/71/71 70/70/70 69/69/69
f 69/69/69 72/72/72 71/71/71
f 75/75/75 74/74/74 73/73/73
f 73/73/73 76/76/76 75/75/75
f 79/79/79 78/78/78 77/77/77
f 77/77/77 80/80/80 79/79/79
f 83/83/83 82/82/82 81/81/81
f 81/81/81 84/84/84 83/83/83
f 87/87/87 86/86/86 85/85/85
f 85/85/85 88/88/88 87/87/87
f 91/91/91 90/90/90 89/89/89
f 89/89/89 92/92/92 91/91/91
f 95/95/95 94/94/94 93/93/93
f 93/93/93 96/96/96 95/95/95
f 99/99/99 98/98/98 97/97/97
f 97/97/97 100/100/100 99/99/99
f 103/103/103 102/102/102 101/101/101
f 101/101/101 104/104/104 103/103/103
f 107/107/107 106/106/106 105/105/105
f 105/105/105 108/108/108 107/107/107
f 111/111/111 110/110/110 109/109/109
f 109/109/109 112/112/112 111/111/111
f 115/115/115 114/114/114 113/113/113
f 113/113/113 116/116/116 115/115/115
f 119/119/119 118/118/118 117/117/117
f 117/117/117 120/120/120 119/119/119
f 123/123/123 122/122/122 121/121/121
f 121/121/121 124/124/124 123/123/123
f 127/127/127 126/126/126 125/125/125
f 125/125/125 128/128/128 127/127/127
f 131/131/131 130/130/130 129/129/129
f 129/129/129 132/132/132 131/131/131
f 135/135/135 134/134/134 133/133/133
f 133/133/133 136/136/136 135/135/135
f 139/139/139 138/138/138 137/137/137
f 137/137/137 140/140/140 139/139/139
f 143/143/143 142/142/142 141/141/141
f 141/141/141 144/144/144 143/143/143
f 147/147/147 146/146/146 145/145/145
f 145/145/145 148/148/148 147/147/147
f 151/151/151 150/150/150 149/149/149
f 149/149/149 152/152/152 151/151/151
f 155/155/155 154/154/154 153/153/153
f 153/153/153 156/156/156 155/155/155
f 159/159/159 158/158/158 157/157/157
f 157/157/157 160/160/160 159/159/159
f 163/163/163 162/162/162 161/161/161
f 161/161/161 164/164/164 163/163/163
f 167/167/167 166/166/166 165/165/165
f 165/165/165 168/168/168 167/167/167
f 171/171/171 170/170/170 169/169/169
f 169/169/169 172/172/172 171/171/171
f 175/175/175 174/174/174 173/173/173
f 173/173/173 176/176/176 175/175/175
f 179/179/179 178/178/178 177/177/177
f 177/177/177 180/180/180 179/179/179
f 183/183/183 182/182/182 181/181/181
f 181/181/181 184/184/184 183/183/183
f 187/187/187 186/186/186 185/185/185
f 185/185/185 188/188/188 187/187/187
f 191/191/191 190/190/190 189/189/189
f 189/189/189 192/192/192 191/191/191
f 195/195/195 194/194/194 193/193/193
f 193/193/193 196/196/196 195/195/195
f 199/199/199 198/198/198 197/197/197
f 197/197/197 200/200/200 199/199/199
f 203/203/203 202/202/202 201/201/201
f 201/201/201 204/204/204 203/203/203
f 207/207/207 206/206/206 205/205/205
f 205/205/205 208/208/208 207/207/207
f 211/211/211 210/210/210 209/209/209
f 209/209/209 212/212/212 211/211/211
f 215/215/215 214/214/214 213/213/213
f 213/213/213 216/216/216 215/215/215
f 219/219/219 218/218/218 217/217/217
f 217/217/217 220/220/220 219/219/219
f 223/223/223 222/222/222 221/221/221
f 221/221/221 224/224/224 223/223/223
f 227/227/227 226/226/226 225/225/225
f 225/225/225 228/228/228 227/227/227
f 231/231/231 230/230/230 229/229/229
f 229/229/229 232/232/232 231/231/231
f 235/235/235 234/234/234 233/233/233
f 233/233/233 236/236/236 235/235/235
f 239/239/239 238/238/238 237/237/237
f 237/237/237 240/240/240 239/239/239
f 243/243/243 242/242/242 241/241/241
f 241/241/241 244/244/244 243/243/243
f 247/247/247 246/246/246 245/245/245
f 245/245/245 248/248/248 247/247/247
f 251/251/251 250/250/250 249/249/249
f 249/249/249 252/252/252 251/251/251
f 255/255/255 254/254/254 253/253/253
f 253/253/253 256/256/256 255/255/255
f 259/259/259 258/258/258 257/257/257
f 257/257/257 260/260/260 259/259/259
f 263/263/263 262/262/262 261/261/261
f 261/261/261 264/264/264 263/263/263
f 267/267/267 266/266/266 265/265/265
f 265/265/265 268/268/268 267/267/267
f 271/271/271 270/270/270 269/269/269
f 269/269/269 272/272/272 271/271/271
f 275/275/275 274/274/274 273/273/273
f 273/273/273 276/276/276 275/275/275
f 279/279/279 278/278/278 277/277/277
f 277/277/277 280/280/280 279/279/279
f 283/283/283 282/282/282 281/281/281
f 281/281/281 284/284/284 283/283/283
f 287/287/287 286/286/286 285/285/285
f 285/285/285 288/288/288 287/287/287
f 291/291/291 290/290/290 289/289/289
f 289/289/289 292/292/292 291/291/291
f 295/295/295 294/294/294 293/293/293
f 293/293/293 296/296/296 295/295/295
f 299/299/299 298/298/298 297/297/297
f 297/297/297 300/300/300 299/299/299
f 303/303/303 302/302/302 301/301/301
f 301/301/301 304/304/304 303/303/303
f 307/307/307 306/306/306 305/305/305
f 305/305/305 308/308/308 307/307/307
f 311/311/311 310/310/310 309/309/309
f 309/309/309 312/312/312 311/311/311
f 315/315/315 314/314/314 313/313/313
f 313/313/313 316/316/316 315/315/315
f 319/319/319 318/318/318 317/317/317
f 317/317/317 320/320/320 319/319/319
f 323/323/323 322/322/322 321/321/321
f 321/321/321 324/324/324 323/323/323
f 327/327/327 326/326/326 325/325/325
f 325/325/325 328/328/328 327/327/327
f 331/331/331 330/330/330 329/329/329
f 329/329/329 332/332/332 331/331/331
f 335/335/335 334/334/334 333/333/333
f 333/333/333 336/336/336 335/335/335
f 339/339/339 338/338/338 337/337/337
f 337/337/337 340/340/340 339/339/339
f 343/343/343 342/342/342 341/341/341
f 341/341/341 344/344/344 343/343/343
f 347/347/347 346/346/346 345/345/345
f 345/345/345 348/348/348 347/347/347
f 351/351/351 350/350/350 349/349/349
f 349/349/349 352/352/352 351/351/351
