g wokelan_4-mesh
v -384 91 0
v -384 1307 0
v -1056 1307 0
v -1056 91 0
v -1056 91 0
v -1056 1307 0
v -1696 1307 0
v -1696 91 0
v -192 539 0
v -192 1083 0
v -384 1083 0
v -384 539 0
v -192 27 0
v -192 539 0
v -384 539 0
v -384 27 0
v -1024 1307 0
v -1024 1467 0
v -1472 1467 0
v -1472 1307 0
v -576 1307 0
v -576 1467 0
v -1024 1467 0
v -1024 1307 0
v -1696 155 0
v -1696 507 0
v -1888 507 0
v -1888 155 0
v -1696 507 0
v -1696 859 0
v -1888 859 0
v -1888 507 0
v -992 1467 0
v -992 1563 0
v -1216 1563 0
v -1216 1467 0
v -768 1467 0
v -768 1563 0
v -992 1563 0
v -992 1467 0
v -128 283 0
v -128 571 0
v -192 571 0
v -192 283 0
v -128 27 0
v -128 283 0
v -192 283 0
v -192 27 0
v -1888 475 0
v -1888 667 0
v -1952 667 0
v -1952 475 0
v -1952 347 0
v -1952 475 0
v -2047 475 0
v -2047 347 0
v -384 0 0
v -384 91 0
v -512 91 0
v -512 0 0
v -512 0 0
v -512 91 0
v -640 91 0
v -640 0 0
v -1888 315 0
v -1888 475 0
v -1952 475 0
v -1952 315 0
v -288 1083 0
v -288 1179 0
v -384 1179 0
v -384 1083 0
v -480 1307 0
v -480 1403 0
v -576 1403 0
v -576 1307 0
v -64 155 0
v -64 283 0
v -128 283 0
v -128 155 0
v -0 155 0
v -0 283 0
v -64 283 0
v -64 155 0
v -1216 1467 0
v -1216 1531 0
v -1344 1531 0
v -1344 1467 0
v -64 283 0
v -64 411 0
v -128 411 0
v -128 283 0
v -1696 955 0
v -1696 1083 0
v -1760 1083 0
v -1760 955 0
v -1568 1307 0
v -1568 1371 0
v -1664 1371 0
v -1664 1307 0
v -1696 859 0
v -1696 955 0
v -1760 955 0
v -1760 859 0
v -1472 1307 0
v -1472 1371 0
v -1568 1371 0
v -1568 1307 0
v -1344 59 0
v -1344 91 0
v -1472 91 0
v -1472 59 0
v -1696 123 0
v -1696 155 0
v -1792 155 0
v -1792 123 0
v -640 59 0
v -640 91 0
v -736 91 0
v -736 59 0
v -224 0 0
v -224 27 0
v -320 27 0
v -320 0 0
v -1472 59 0
v -1472 91 0
v -1568 91 0
v -1568 59 0
v -1888 219 0
v -1888 315 0
v -1920 315 0
v -1920 219 0
v -1760 1115 0
v -1760 1179 0
v -1792 1179 0
v -1792 1115 0
v -448 1307 0
v -448 1371 0
v -480 1371 0
v -480 1307 0
v -352 1179 0
v -352 1243 0
v -384 1243 0
v -384 1179 0
v -1088 59 0
v -1088 91 0
v -1152 91 0
v -1152 59 0
v -704 1467 0
v -704 1499 0
v -768 1499 0
v -768 1467 0
v -512 1403 0
v -512 1435 0
v -576 1435 0
v -576 1403 0
v -96 411 0
v -96 475 0
v -128 475 0
v -128 411 0
v -1952 315 0
v -1952 347 0
v -2016 347 0
v -2016 315 0
v -1696 91 0
v -1696 123 0
v -1760 123 0
v -1760 91 0
v -224 1083 0
v -224 1115 0
v -288 1115 0
v -288 1083 0
v -160 1019 0
v -160 1083 0
v -192 1083 0
v -192 1019 0
v -1952 475 0
v -1952 539 0
v -1984 539 0
v -1984 475 0
v -320 0 0
v -320 27 0
v -384 27 0
v -384 0 0
v -1696 1083 0
v -1696 1147 0
v -1728 1147 0
v -1728 1083 0
v -1344 1467 0
v -1344 1499 0
v -1408 1499 0
v -1408 1467 0
v -1888 155 0
v -1888 219 0
v -1920 219 0
v -1920 155 0
v -1792 123 0
v -1792 155 0
v -1856 155 0
v -1856 123 0
v -736 59 0
v -736 91 0
v -800 91 0
v -800 59 0
v -1760 891 0
v -1760 955 0
v -1792 955 0
v -1792 891 0
v -1472 1371 0
v -1472 1403 0
v -1536 1403 0
v -1536 1371 0
v -1696 1147 0
v -1696 1211 0
v -1728 1211 0
v -1728 1147 0
v -1472 1403 0
v -1472 1435 0
v -1504 1435 0
v -1504 1403 0
v -640 27 0
v -640 59 0
v -672 59 0
v -672 27 0
v -736 1531 0
v -736 1563 0
v -768 1563 0
v -768 1531 0
v -32 283 0
v -32 315 0
v -64 315 0
v -64 283 0
v -1536 1371 0
v -1536 1403 0
v -1568 1403 0
v -1568 1371 0
v -1152 59 0
v -1152 91 0
v -1184 91 0
v -1184 59 0
v -1760 859 0
v -1760 891 0
v -1792 891 0
v -1792 859 0
v -1408 1467 0
v -1408 1499 0
v -1440 1499 0
v -1440 1467 0
vt 0.00048828125 0.00077521801
vt 0.00048828125 0.943410873
vt 0.328613281 0.943410873
vt 0.328613281 0.00077521801
vt 0.329589844 0.00077521801
vt 0.329589844 0.943410873
vt 0.642089844 0.943410873
vt 0.642089844 0.00077521801
vt 0.643066406 0.00077521801
vt 0.643066406 0.422480643
vt 0.736816406 0.422480643
vt 0.736816406 0.00077521801
vt 0.737792969 0.00077521801
vt 0.737792969 0.397674441
vt 0.831542969 0.397674441
vt 0.831542969 0.00077521801
vt 0.737792969 0.399224818
vt 0.737792969 0.523255825
vt 0.956542969 0.523255825
vt 0.956542969 0.399224818
vt 0.737792969 0.524806201
vt 0.737792969 0.648837209
vt 0.956542969 0.648837209
vt 0.956542969 0.524806201
vt 0.643066406 0.424031019
vt 0.643066406 0.696899235
vt 0.736816406 0.696899235
vt 0.736816406 0.424031019
vt 0.737792969 0.650387585
vt 0.737792969 0.923255801
vt 0.831542969 0.923255801
vt 0.831542969 0.650387585
vt 0.832519531 0.650387585
vt 0.832519531 0.72480619
vt 0.941894531 0.72480619
vt 0.941894531 0.650387585
vt 0.832519531 0.726356626
vt 0.832519531 0.80077517
vt 0.941894531 0.80077517
vt 0.941894531 0.726356626
vt 0.957519531 0.00077521801
vt 0.957519531 0.224031031
vt 0.988769531 0.224031031
vt 0.988769531 0.00077521801
vt 0.957519531 0.225581408
vt 0.957519531 0.424031019
vt 0.988769531 0.424031019
vt 0.988769531 0.225581408
vt 0.957519531 0.425581396
vt 0.957519531 0.574418604
vt 0.988769531 0.574418604
vt 0.988769531 0.425581396
vt 0.942871094 0.650387585
vt 0.942871094 0.749612391
vt 0.989746094 0.749612391
vt 0.989746094 0.650387585
vt 0.643066406 0.698449612
vt 0.643066406 0.769767463
vt 0.705566406 0.769767463
vt 0.705566406 0.698449612
vt 0.643066406 0.77131784
vt 0.643066406 0.842635632
vt 0.705566406 0.842635632
vt 0.705566406 0.77131784
vt 0.942871094 0.751162767
vt 0.942871094 0.875193775
vt 0.974121094 0.875193775
vt 0.974121094 0.751162767
vt 0.832519531 0.802325606
vt 0.832519531 0.876744211
vt 0.879394531 0.876744211
vt 0.879394531 0.802325606
vt 0.880371094 0.802325606
vt 0.880371094 0.876744211
vt 0.927246094 0.876744211
vt 0.927246094 0.802325606
vt 0.643066406 0.844186068
vt 0.643066406 0.943410873
vt 0.674316406 0.943410873
vt 0.674316406 0.844186068
vt 0.675292969 0.844186068
vt 0.675292969 0.943410873
vt 0.706542969 0.943410873
vt 0.706542969 0.844186068
vt 0.832519531 0.878294587
vt 0.832519531 0.92790699
vt 0.895019531 0.92790699
vt 0.895019531 0.878294587
vt 0.942871094 0.876744211
vt 0.942871094 0.975969017
vt 0.974121094 0.975969017
vt 0.974121094 0.876744211
vt 0.895996094 0.878294587
vt 0.895996094 0.977519393
vt 0.927246094 0.977519393
vt 0.927246094 0.878294587
vt 0.737792969 0.924806178
vt 0.737792969 0.974418581
vt 0.784667969 0.974418581
vt 0.784667969 0.924806178
vt 0.785644531 0.924806178
vt 0.785644531 0.999224782
vt 0.816894531 0.999224782
vt 0.816894531 0.924806178
vt 0.832519531 0.929457366
vt 0.832519531 0.979069769
vt 0.879394531 0.979069769
vt 0.879394531 0.929457366
vt 0.00048828125 0.94496125
vt 0.00048828125 0.969767451
vt 0.0629882812 0.969767451
vt 0.0629882812 0.94496125
vt 0.0639648438 0.94496125
vt 0.0639648438 0.969767451
vt 0.110839844 0.969767451
vt 0.110839844 0.94496125
vt 0.111816406 0.94496125
vt 0.111816406 0.969767451
vt 0.158691406 0.969767451
vt 0.158691406 0.94496125
vt 0.159667969 0.94496125
vt 0.159667969 0.966666639
vt 0.206542969 0.966666639
vt 0.206542969 0.94496125
vt 0.207519531 0.94496125
vt 0.207519531 0.969767451
vt 0.254394531 0.969767451
vt 0.254394531 0.94496125
vt 0.707519531 0.698449612
vt 0.707519531 0.772868216
vt 0.723144531 0.772868216
vt 0.723144531 0.698449612
vt 0.975097656 0.751162767
vt 0.975097656 0.80077517
vt 0.990722656 0.80077517
vt 0.990722656 0.751162767
vt 0.707519531 0.774418592
vt 0.707519531 0.824030995
vt 0.723144531 0.824030995
vt 0.723144531 0.774418592
vt 0.975097656 0.802325606
vt 0.975097656 0.851938009
vt 0.990722656 0.851938009
vt 0.990722656 0.802325606
vt 0.255371094 0.94496125
vt 0.255371094 0.969767451
vt 0.286621094 0.969767451
vt 0.286621094 0.94496125
vt 0.287597656 0.94496125
vt 0.287597656 0.969767451
vt 0.318847656 0.969767451
vt 0.318847656 0.94496125
vt 0.319824219 0.94496125
vt 0.319824219 0.969767451
vt 0.351074219 0.969767451
vt 0.351074219 0.94496125
vt 0.707519531 0.825581431
vt 0.707519531 0.875193775
vt 0.723144531 0.875193775
vt 0.723144531 0.825581431
vt 0.352050781 0.94496125
vt 0.352050781 0.969767451
vt 0.383300781 0.969767451
vt 0.383300781 0.94496125
vt 0.384277344 0.94496125
vt 0.384277344 0.969767451
vt 0.415527344 0.969767451
vt 0.415527344 0.94496125
vt 0.416503906 0.94496125
vt 0.416503906 0.969767451
vt 0.447753906 0.969767451
vt 0.447753906 0.94496125
vt 0.975097656 0.853488386
vt 0.975097656 0.903100789
vt 0.990722656 0.903100789
vt 0.990722656 0.853488386
vt 0.707519531 0.876744211
vt 0.707519531 0.926356614
vt 0.723144531 0.926356614
vt 0.723144531 0.876744211
vt 0.448730469 0.94496125
vt 0.448730469 0.966666639
vt 0.479980469 0.966666639
vt 0.479980469 0.94496125
vt 0.975097656 0.904651165
vt 0.975097656 0.954263568
vt 0.990722656 0.954263568
vt 0.990722656 0.904651165
vt 0.480957031 0.94496125
vt 0.480957031 0.969767451
vt 0.512207031 0.969767451
vt 0.512207031 0.94496125
vt 0.707519531 0.92790699
vt 0.707519531 0.977519393
vt 0.723144531 0.977519393
vt 0.723144531 0.92790699
vt 0.513183594 0.94496125
vt 0.513183594 0.969767451
vt 0.544433594 0.969767451
vt 0.544433594 0.94496125
vt 0.545410156 0.94496125
vt 0.545410156 0.969767451
vt 0.576660156 0.969767451
vt 0.576660156 0.94496125
vt 0.577636719 0.94496125
vt 0.577636719 0.994573653
vt 0.593261719 0.994573653
vt 0.593261719 0.94496125
vt 0.594238281 0.94496125
vt 0.594238281 0.969767451
vt 0.625488281 0.969767451
vt 0.625488281 0.94496125
vt 0.626464844 0.94496125
vt 0.626464844 0.994573653
vt 0.642089844 0.994573653
vt 0.642089844 0.94496125
vt 0.643066406 0.94496125
vt 0.643066406 0.969767451
vt 0.658691406 0.969767451
vt 0.658691406 0.94496125
vt 0.659667969 0.94496125
vt 0.659667969 0.969767451
vt 0.675292969 0.969767451
vt 0.675292969 0.94496125
vt 0.676269531 0.94496125
vt 0.676269531 0.969767451
vt 0.691894531 0.969767451
vt 0.691894531 0.94496125
vt 0.975097656 0.955813944
vt 0.975097656 0.980620146
vt 0.990722656 0.980620146
vt 0.990722656 0.955813944
vt 0.159667969 0.968217075
vt 0.159667969 0.993023276
vt 0.175292969 0.993023276
vt 0.175292969 0.968217075
vt 0.176269531 0.968217075
vt 0.176269531 0.993023276
vt 0.191894531 0.993023276
vt 0.191894531 0.968217075
vt 0.448730469 0.968217075
vt 0.448730469 0.993023276
vt 0.464355469 0.993023276
vt 0.464355469 0.968217075
vt 0.00048828125 0.971317828
vt 0.00048828125 0.996124029
vt 0.0161132812 0.996124029
vt 0.0161132812 0.971317828
g wokelan_4-mesh_0
f 3/3/3 2/2/2 1/1/1
f 1/1/1 4/4/4 3/3/3
f 7/7/7 6/6/6 5/5/5
f 5/5/5 8/8/8 7/7/7
f 11/11/11 10/10/10 9/9/9
f 9/9/9 12/12/12 11/11/11
f 15/15/15 14/14/14 13/13/13
f 13/13/13 16/16/16 15/15/15
f 19/19/19 18/18/18 17/17/17
f 17/17/17 20/20/20 19/19/19
f 23/23/23 22/22/22 21/21/21
f 21/21/21 24/24/24 23/23/23
f 27/27/27 26/26/26 25/25/25
f 25/25/25 28/28/28 27/27/27
f 31/31/31 30/30/30 29/29/29
f 29/29/29 32/32/32 31/31/31
f 35/35/35 34/34/34 33/33/33
f 33/33/33 36/36/36 35/35/35
f 39/39/39 38/38/38 37/37/37
f 37/37/37 40/40/40 39/39/39
f 43/43/43 42/42/42 41/41/41
f 41/41/41 44/44/44 43/43/43
f 47/47/47 46/46/46 45/45/45
f 45/45/45 48/48/48 47/47/47
f 51/51/51 50/50/50 49/49/49
f 49/49/49 52/52/52 51/51/51
f 55/55/55 54/54/54 53/53/53
f 53/53/53 56/56/56 55/55/55
f 59/59/59 58/58/58 57/57/57
f 57/57/57 60/60/60 59/59/59
f 63/63/63 62/62/62 61/61/61
f 61/61/61 64/64/64 63/63/63
f 67/67/67 66/66/66 65/65/65
f 65/65/65 68/68/68 67/67/67
f 71/71/71 70/70/70 69/69/69
f 69/69/69 72/72/72 71/71/71
f 75/75/75 74/74/74 73/73/73
f 73/73/73 76/76/76 75/75/75
f 79/79/79 78/78/78 77/77/77
f 77/77/77 80/80/80 79/79/79
f 83/83/83 82/82/82 81/81/81
f 81/81/81 84/84/84 83/83/83
f 87/87/87 86/86/86 85/85/85
f 85/85/85 88/88/88 87/87/87
f 91/91/91 90/90/90 89/89/89
f 89/89/89 92/92/92 91/91/91
f 95/95/95 94/94/94 93/93/93
f 93/93/93 96/96/96 95/95/95
f 99/99/99 98/98/98 97/97/97
f 97/97/97 100/100/100 99/99/99
f 103/103/103 102/102/102 101/101/101
f 101/101/101 104/104/104 103/103/103
f 107/107/107 106/106/106 105/105/105
f 105/105/105 108/108/108 107/107/107
f 111/111/111 110/110/110 109/109/109
f 109/109/109 112/112/112 111/111/111
f 115/115/115 114/114/114 113/113/113
f 113/113/113 116/116/116 115/115/115
f 119/119/119 118/118/118 117/117/117
f 117/117/117 120/120/120 119/119/119
f 123/123/123 122/122/122 121/121/121
f 121/121/121 124/124/124 123/123/123
f 127/127/127 126/126/126 125/125/125
f 125/125/125 128/128/128 127/127/127
f 131/131/131 130/130/130 129/129/129
f 129/129/129 132/132/132 131/131/131
f 135/135/135 134/134/134 133/133/133
f 133/133/133 136/136/136 135/135/135
f 139/139/139 138/138/138 137/137/137
f 137/137/137 140/140/140 139/139/139
f 143/143/143 142/142/142 141/141/141
f 141/141/141 144/144/144 143/143/143
f 147/147/147 146/146/146 145/145/145
f 145/145/145 148/148/148 147/147/147
f 151/151/151 150/150/150 149/149/149
f 149/149/149 152/152/152 151/151/151
f 155/155/155 154/154/154 153/153/153
f 153/153/153 156/156/156 155/155/155
f 159/159/159 158/158/158 157/157/157
f 157/157/157 160/160/160 159/159/159
f 163/163/163 162/162/162 161/161/161
f 161/161/161 164/164/164 163/163/163
f 167/167/167 166/166/166 165/165/165
f 165/165/165 168/168/168 167/167/167
f 171/171/171 170/170/170 169/169/169
f 169/169/169 172/172/172 171/171/171
f 175/175/175 174/174/174 173/173/173
f 173/173/173 176/176/176 175/175/175
f 179/179/179 178/178/178 177/177/177
f 177/177/177 180/180/180 179/179/179
f 183/183/183 182/182/182 181/181/181
f 181/181/181 184/184/184 183/183/183
f 187/187/187 186/186/186 185/185/185
f 185/185/185 188/188/188 187/187/187
f 191/191/191 190/190/190 189/189/189
f 189/189/189 192/192/192 191/191/191
f 195/195/195 194/194/194 193/193/193
f 193/193/193 196/196/196 195/195/195
f 199/199/199 198/198/198 197/197/197
f 197/197/197 200/200/200 199/199/199
f 203/203/203 202/202/202 201/201/201
f 201/201/201 204/204/204 203/203/203
f 207/207/207 206/206/206 205/205/205
f 205/205/205 208/208/208 207/207/207
f 211/211/211 210/210/210 209/209/209
f 209/209/209 212/212/212 211/211/211
f 215/215/215 214/214/214 213/213/213
f 213/213/213 216/216/216 215/215/215
f 219/219/219 218/218/218 217/217/217
f 217/217/217 220/220/220 219/219/219
f 223/223/223 222/222/222 221/221/221
f 221/221/221 224/224/224 223/223/223
f 227/227/227 226/226/226 225/225/225
f 225/225/225 228/228/228 227/227/227
f 231/231/231 230/230/230 229/229/229
f 229/229/229 232/232/232 231/231/231
f 235/235/235 234/234/234 233/233/233
f 233/233/233 236/236/236 235/235/235
f 239/239/239 238/238/238 237/237/237
f 237/237/237 240/240/240 239/239/239
f 243/243/243 242/242/242 241/241/241
f 241/241/241 244/244/244 243/243/243
f 247/247/247 246/246/246 245/245/245
f 245/245/245 248/248/248 247/247/247
