g hailunna_younv-mesh
v -288 11 0
v -288 299 0
v -544 299 0
v -544 11 0
v -288 299 0
v -288 587 0
v -544 587 0
v -544 299 0
v -544 139 0
v -544 331 0
v -896 331 0
v -896 139 0
v -96 299 0
v -96 555 0
v -288 555 0
v -288 299 0
v -576 459 0
v -576 715 0
v -704 715 0
v -704 459 0
v -128 43 0
v -128 203 0
v -288 203 0
v -288 43 0
v -0 235 0
v -0 427 0
v -96 427 0
v -96 235 0
v -640 331 0
v -640 427 0
v -800 427 0
v -800 331 0
v -96 203 0
v -96 299 0
v -224 299 0
v -224 203 0
v -32 43 0
v -32 139 0
v -128 139 0
v -128 43 0
v -448 843 0
v -448 907 0
v -576 907 0
v -576 843 0
v -960 107 0
v -960 203 0
v -1023 203 0
v -1023 107 0
v -576 715 0
v -576 811 0
v -640 811 0
v -640 715 0
v -896 203 0
v -896 299 0
v -960 299 0
v -960 203 0
v -192 619 0
v -192 715 0
v -256 715 0
v -256 619 0
v -640 75 0
v -640 139 0
v -736 139 0
v -736 75 0
v -544 75 0
v -544 139 0
v -640 139 0
v -640 75 0
v -896 139 0
v -896 203 0
v -960 203 0
v -960 139 0
v -32 171 0
v -32 235 0
v -96 235 0
v -96 171 0
v -192 555 0
v -192 619 0
v -256 619 0
v -256 555 0
v -544 459 0
v -544 587 0
v -576 587 0
v -576 459 0
v -544 331 0
v -544 459 0
v -576 459 0
v -576 331 0
v -416 0 0
v -416 11 0
v -512 11 0
v -512 0 0
v -320 0 0
v -320 11 0
v -416 11 0
v -416 0 0
v -704 587 0
v -704 683 0
v -736 683 0
v -736 587 0
v -704 491 0
v -704 587 0
v -736 587 0
v -736 491 0
v -256 203 0
v -256 267 0
v -288 267 0
v -288 203 0
v -64 491 0
v -64 555 0
v -96 555 0
v -96 491 0
v -800 331 0
v -800 395 0
v -832 395 0
v -832 331 0
v -32 11 0
v -32 43 0
v -96 43 0
v -96 11 0
v -0 43 0
v -0 107 0
v -32 107 0
v -32 43 0
v -800 107 0
v -800 139 0
v -864 139 0
v -864 107 0
v -640 715 0
v -640 779 0
v -672 779 0
v -672 715 0
v -160 11 0
v -160 43 0
v -224 43 0
v -224 11 0
v -672 427 0
v -672 459 0
v -736 459 0
v -736 427 0
v -608 427 0
v -608 459 0
v -672 459 0
v -672 427 0
v -224 747 0
v -224 811 0
v -256 811 0
v -256 747 0
v -576 811 0
v -576 875 0
v -608 875 0
v -608 811 0
v -224 11 0
v -224 43 0
v -288 43 0
v -288 11 0
v -224 267 0
v -224 299 0
v -256 299 0
v -256 267 0
v -832 331 0
v -832 363 0
v -864 363 0
v -864 331 0
v -96 139 0
v -96 171 0
v -128 171 0
v -128 139 0
v -960 203 0
v -960 235 0
v -992 235 0
v -992 203 0
v -160 555 0
v -160 587 0
v -192 587 0
v -192 555 0
v -416 843 0
v -416 875 0
v -448 875 0
v -448 843 0
v -576 331 0
v -576 363 0
v -608 363 0
v -608 331 0
v -256 555 0
v -256 587 0
v -288 587 0
v -288 555 0
vt 0.0009765625 0.00181162357
vt 0.0009765625 0.523550749
vt 0.250976562 0.523550749
vt 0.250976562 0.00181162357
vt 0.252929688 0.00181162357
vt 0.252929688 0.523550749
vt 0.502929688 0.523550749
vt 0.502929688 0.00181162357
vt 0.504882812 0.00181162357
vt 0.504882812 0.349637687
vt 0.848632812 0.349637687
vt 0.848632812 0.00181162357
vt 0.504882812 0.353260875
vt 0.504882812 0.817028999
vt 0.692382812 0.817028999
vt 0.692382812 0.353260875
vt 0.850585938 0.00181162357
vt 0.850585938 0.465579689
vt 0.975585938 0.465579689
vt 0.975585938 0.00181162357
vt 0.0009765625 0.527173877
vt 0.0009765625 0.817028999
vt 0.157226562 0.817028999
vt 0.157226562 0.527173877
vt 0.694335938 0.353260875
vt 0.694335938 0.701086998
vt 0.788085938 0.701086998
vt 0.788085938 0.353260875
vt 0.159179688 0.527173877
vt 0.159179688 0.701086998
vt 0.315429688 0.701086998
vt 0.315429688 0.527173877
vt 0.850585938 0.469202876
vt 0.850585938 0.643115938
vt 0.975585938 0.643115938
vt 0.975585938 0.469202876
vt 0.317382812 0.527173877
vt 0.317382812 0.701086998
vt 0.411132812 0.701086998
vt 0.411132812 0.527173877
vt 0.850585938 0.646739125
vt 0.850585938 0.762681127
vt 0.975585938 0.762681127
vt 0.975585938 0.646739125
vt 0.413085938 0.527173877
vt 0.413085938 0.701086998
vt 0.475585938 0.701086998
vt 0.475585938 0.527173877
vt 0.159179688 0.704710126
vt 0.159179688 0.878623188
vt 0.221679688 0.878623188
vt 0.221679688 0.704710126
vt 0.223632812 0.704710126
vt 0.223632812 0.878623188
vt 0.286132812 0.878623188
vt 0.286132812 0.704710126
vt 0.288085938 0.704710126
vt 0.288085938 0.878623188
vt 0.350585938 0.878623188
vt 0.350585938 0.704710126
vt 0.352539062 0.704710126
vt 0.352539062 0.820652187
vt 0.446289062 0.820652187
vt 0.446289062 0.704710126
vt 0.694335938 0.704710126
vt 0.694335938 0.820652187
vt 0.788085938 0.820652187
vt 0.788085938 0.704710126
vt 0.850585938 0.766304374
vt 0.850585938 0.882246375
vt 0.913085938 0.882246375
vt 0.913085938 0.766304374
vt 0.915039062 0.766304374
vt 0.915039062 0.882246375
vt 0.977539062 0.882246375
vt 0.977539062 0.766304374
vt 0.0009765625 0.820652187
vt 0.0009765625 0.936594188
vt 0.0634765625 0.936594188
vt 0.0634765625 0.820652187
vt 0.790039062 0.353260875
vt 0.790039062 0.585144937
vt 0.821289062 0.585144937
vt 0.821289062 0.353260875
vt 0.790039062 0.588768125
vt 0.790039062 0.820652187
vt 0.821289062 0.820652187
vt 0.821289062 0.588768125
vt 0.504882812 0.820652187
vt 0.504882812 0.842391312
vt 0.598632812 0.842391312
vt 0.598632812 0.820652187
vt 0.352539062 0.824275374
vt 0.352539062 0.8460145
vt 0.446289062 0.8460145
vt 0.446289062 0.824275374
vt 0.448242188 0.704710126
vt 0.448242188 0.878623188
vt 0.479492188 0.878623188
vt 0.479492188 0.704710126
vt 0.0654296875 0.820652187
vt 0.0654296875 0.994565189
vt 0.0966796875 0.994565189
vt 0.0966796875 0.820652187
vt 0.0986328125 0.820652187
vt 0.0986328125 0.936594188
vt 0.129882812 0.936594188
vt 0.129882812 0.820652187
vt 0.600585938 0.820652187
vt 0.600585938 0.936594188
vt 0.631835938 0.936594188
vt 0.631835938 0.820652187
vt 0.633789062 0.820652187
vt 0.633789062 0.936594188
vt 0.665039062 0.936594188
vt 0.665039062 0.820652187
vt 0.694335938 0.824275374
vt 0.694335938 0.882246375
vt 0.756835938 0.882246375
vt 0.756835938 0.824275374
vt 0.758789062 0.824275374
vt 0.758789062 0.940217376
vt 0.790039062 0.940217376
vt 0.790039062 0.824275374
vt 0.504882812 0.8460145
vt 0.504882812 0.9039855
vt 0.567382812 0.9039855
vt 0.567382812 0.8460145
vt 0.791992188 0.824275374
vt 0.791992188 0.940217376
vt 0.823242188 0.940217376
vt 0.823242188 0.824275374
vt 0.352539062 0.849637687
vt 0.352539062 0.907608688
vt 0.415039062 0.907608688
vt 0.415039062 0.849637687
vt 0.159179688 0.882246375
vt 0.159179688 0.940217376
vt 0.221679688 0.940217376
vt 0.221679688 0.882246375
vt 0.223632812 0.882246375
vt 0.223632812 0.940217376
vt 0.286132812 0.940217376
vt 0.286132812 0.882246375
vt 0.288085938 0.882246375
vt 0.288085938 0.998188376
vt 0.319335938 0.998188376
vt 0.319335938 0.882246375
vt 0.448242188 0.882246375
vt 0.448242188 0.998188376
vt 0.479492188 0.998188376
vt 0.479492188 0.882246375
vt 0.694335938 0.885869563
vt 0.694335938 0.943840563
vt 0.756835938 0.943840563
vt 0.756835938 0.885869563
vt 0.850585938 0.885869563
vt 0.850585938 0.943840563
vt 0.881835938 0.943840563
vt 0.881835938 0.885869563
vt 0.883789062 0.885869563
vt 0.883789062 0.943840563
vt 0.915039062 0.943840563
vt 0.915039062 0.885869563
vt 0.916992188 0.885869563
vt 0.916992188 0.943840563
vt 0.948242188 0.943840563
vt 0.948242188 0.885869563
vt 0.950195312 0.885869563
vt 0.950195312 0.943840563
vt 0.981445312 0.943840563
vt 0.981445312 0.885869563
vt 0.504882812 0.907608688
vt 0.504882812 0.965579689
vt 0.536132812 0.965579689
vt 0.536132812 0.907608688
vt 0.538085938 0.907608688
vt 0.538085938 0.965579689
vt 0.569335938 0.965579689
vt 0.569335938 0.907608688
vt 0.352539062 0.911231875
vt 0.352539062 0.969202876
vt 0.383789062 0.969202876
vt 0.383789062 0.911231875
vt 0.385742188 0.911231875
vt 0.385742188 0.969202876
vt 0.416992188 0.969202876
vt 0.416992188 0.911231875
g hailunna_younv-mesh_0
f 3/3/3 2/2/2 1/1/1
f 1/1/1 4/4/4 3/3/3
f 7/7/7 6/6/6 5/5/5
f 5/5/5 8/8/8 7/7/7
f 11/11/11 10/10/10 9/9/9
f 9/9/9 12/12/12 11/11/11
f 15/15/15 14/14/14 13/13/13
f 13/13/13 16/16/16 15/15/15
f 19/19/19 18/18/18 17/17/17
f 17/17/17 20/20/20 19/19/19
f 23/23/23 22/22/22 21/21/21
f 21/21/21 24/24/24 23/23/23
f 27/27/27 26/26/26 25/25/25
f 25/25/25 28/28/28 27/27/27
f 31/31/31 30/30/30 29/29/29
f 29/29/29 32/32/32 31/31/31
f 35/35/35 34/34/34 33/33/33
f 33/33/33 36/36/36 35/35/35
f 39/39/39 38/38/38 37/37/37
f 37/37/37 40/40/40 39/39/39
f 43/43/43 42/42/42 41/41/41
f 41/41/41 44/44/44 43/43/43
f 47/47/47 46/46/46 45/45/45
f 45/45/45 48/48/48 47/47/47
f 51/51/51 50/50/50 49/49/49
f 49/49/49 52/52/52 51/51/51
f 55/55/55 54/54/54 53/53/53
f 53/53/53 56/56/56 55/55/55
f 59/59/59 58/58/58 57/57/57
f 57/57/57 60/60/60 59/59/59
f 63/63/63 62/62/62 61/61/61
f 61/61/61 64/64/64 63/63/63
f 67/67/67 66/66/66 65/65/65
f 65/65/65 68/68/68 67/67/67
f 71/71/71 70/70/70 69/69/69
f 69/69/69 72/72/72 71/71/71
f 75/75/75 74/74/74 73/73/73
f 73/73/73 76/76/76 75/75/75
f 79/79/79 78/78/78 77/77/77
f 77/77/77 80/80/80 79/79/79
f 83/83/83 82/82/82 81/81/81
f 81/81/81 84/84/84 83/83/83
f 87/87/87 86/86/86 85/85/85
f 85/85/85 88/88/88 87/87/87
f 91/91/91 90/90/90 89/89/89
f 89/89/89 92/92/92 91/91/91
f 95/95/95 94/94/94 93/93/93
f 93/93/93 96/96/96 95/95/95
f 99/99/99 98/98/98 97/97/97
f 97/97/97 100/100/100 99/99/99
f 103/103/103 102/102/102 101/101/101
f 101/101/101 104/104/104 103/103/103
f 107/107/107 106/106/106 105/105/105
f 105/105/105 108/108/108 107/107/107
f 111/111/111 110/110/110 109/109/109
f 109/109/109 112/112/112 111/111/111
f 115/115/115 114/114/114 113/113/113
f 113/113/113 116/116/116 115/115/115
f 119/119/119 118/118/118 117/117/117
f 117/117/117 120/120/120 119/119/119
f 123/123/123 122/122/122 121/121/121
f 121/121/121 124/124/124 123/123/123
f 127/127/127 126/126/126 125/125/125
f 125/125/125 128/128/128 127/127/127
f 131/131/131 130/130/130 129/129/129
f 129/129/129 132/132/132 131/131/131
f 135/135/135 134/134/134 133/133/133
f 133/133/133 136/136/136 135/135/135
f 139/139/139 138/138/138 137/137/137
f 137/137/137 140/140/140 139/139/139
f 143/143/143 142/142/142 141/141/141
f 141/141/141 144/144/144 143/143/143
f 147/147/147 146/146/146 145/145/145
f 145/145/145 148/148/148 147/147/147
f 151/151/151 150/150/150 149/149/149
f 149/149/149 152/152/152 151/151/151
f 155/155/155 154/154/154 153/153/153
f 153/153/153 156/156/156 155/155/155
f 159/159/159 158/158/158 157/157/157
f 157/157/157 160/160/160 159/159/159
f 163/163/163 162/162/162 161/161/161
f 161/161/161 164/164/164 163/163/163
f 167/167/167 166/166/166 165/165/165
f 165/165/165 168/168/168 167/167/167
f 171/171/171 170/170/170 169/169/169
f 169/169/169 172/172/172 171/171/171
f 175/175/175 174/174/174 173/173/173
f 173/173/173 176/176/176 175/175/175
f 179/179/179 178/178/178 177/177/177
f 177/177/177 180/180/180 179/179/179
f 183/183/183 182/182/182 181/181/181
f 181/181/181 184/184/184 183/183/183
f 187/187/187 186/186/186 185/185/185
f 185/185/185 188/188/188 187/187/187
