g kelaimengsuo_2-mesh
v -160 230 0
v -160 1670 0
v -928 1670 0
v -928 230 0
v -928 230 0
v -928 1670 0
v -1664 1670 0
v -1664 230 0
v -1664 934 0
v -1664 1510 0
v -1888 1510 0
v -1888 934 0
v -1664 390 0
v -1664 934 0
v -1888 934 0
v -1888 390 0
v -544 1670 0
v -544 1926 0
v -992 1926 0
v -992 1670 0
v -992 1670 0
v -992 1926 0
v -1408 1926 0
v -1408 1670 0
v -832 102 0
v -832 230 0
v -1440 230 0
v -1440 102 0
v -224 102 0
v -224 230 0
v -832 230 0
v -832 102 0
v -1408 1670 0
v -1408 1798 0
v -1632 1798 0
v -1632 1670 0
v -416 38 0
v -416 102 0
v -832 102 0
v -832 38 0
v -1888 614 0
v -1888 806 0
v -2016 806 0
v -2016 614 0
v -32 966 0
v -32 1158 0
v -160 1158 0
v -160 966 0
v -832 38 0
v -832 102 0
v -1216 102 0
v -1216 38 0
v -320 1670 0
v -320 1766 0
v -544 1766 0
v -544 1670 0
v -64 422 0
v -64 646 0
v -160 646 0
v -160 422 0
v -1888 454 0
v -1888 614 0
v -2016 614 0
v -2016 454 0
v -32 806 0
v -32 966 0
v -160 966 0
v -160 806 0
v -1664 1510 0
v -1664 1670 0
v -1760 1670 0
v -1760 1510 0
v -1920 966 0
v -1920 1094 0
v -2016 1094 0
v -2016 966 0
v -608 1926 0
v -608 1958 0
v -960 1958 0
v -960 1926 0
v -960 1926 0
v -960 1958 0
v -1280 1958 0
v -1280 1926 0
v -1888 1062 0
v -1888 1350 0
v -1920 1350 0
v -1920 1062 0
v -1440 166 0
v -1440 230 0
v -1568 230 0
v -1568 166 0
v -96 1510 0
v -96 1638 0
v -160 1638 0
v -160 1510 0
v -1408 1798 0
v -1408 1862 0
v -1536 1862 0
v -1536 1798 0
v -832 6 0
v -832 38 0
v -1088 38 0
v -1088 6 0
v -576 6 0
v -576 38 0
v -832 38 0
v -832 6 0
v -1888 806 0
v -1888 1062 0
v -1920 1062 0
v -1920 806 0
v -96 1222 0
v -96 1318 0
v -160 1318 0
v -160 1222 0
v -1632 1670 0
v -1632 1734 0
v -1696 1734 0
v -1696 1670 0
v -160 134 0
v -160 198 0
v -224 198 0
v -224 134 0
v -288 38 0
v -288 102 0
v -352 102 0
v -352 38 0
v -0 966 0
v -0 1094 0
v -32 1094 0
v -32 966 0
v -96 1158 0
v -96 1222 0
v -160 1222 0
v -160 1158 0
v -1664 358 0
v -1664 390 0
v -1760 390 0
v -1760 358 0
v -0 870 0
v -0 966 0
v -32 966 0
v -32 870 0
v -32 518 0
v -32 614 0
v -64 614 0
v -64 518 0
v -2016 582 0
v -2016 678 0
v -2047 678 0
v -2047 582 0
v -128 710 0
v -128 806 0
v -160 806 0
v -160 710 0
v -1664 294 0
v -1664 358 0
v -1696 358 0
v -1696 294 0
v -2016 1030 0
v -2016 1094 0
v -2047 1094 0
v -2047 1030 0
v -64 1158 0
v -64 1222 0
v -96 1222 0
v -96 1158 0
v -1216 70 0
v -1216 102 0
v -1280 102 0
v -1280 70 0
v -1408 1862 0
v -1408 1894 0
v -1472 1894 0
v -1472 1862 0
v -1952 1574 0
v -1952 1638 0
v -1984 1638 0
v -1984 1574 0
v -736 0 0
v -736 6 0
v -800 6 0
v -800 0 0
v -1888 262 0
v -1888 326 0
v -1920 326 0
v -1920 262 0
v -352 70 0
v -352 102 0
v -416 102 0
v -416 70 0
v -1440 134 0
v -1440 166 0
v -1504 166 0
v -1504 134 0
v -1696 294 0
v -1696 358 0
v -1728 358 0
v -1728 294 0
v -1920 806 0
v -1920 870 0
v -1952 870 0
v -1952 806 0
v -64 774 0
v -64 806 0
v -128 806 0
v -128 774 0
v -96 646 0
v -96 710 0
v -128 710 0
v -128 646 0
v -128 358 0
v -128 422 0
v -160 422 0
v -160 358 0
v -1920 1158 0
v -1920 1222 0
v -1952 1222 0
v -1952 1158 0
v -512 1766 0
v -512 1830 0
v -544 1830 0
v -544 1766 0
v -416 1766 0
v -416 1798 0
v -480 1798 0
v -480 1766 0
v -1920 1094 0
v -1920 1158 0
v -1952 1158 0
v -1952 1094 0
v -32 454 0
v -32 518 0
v -64 518 0
v -64 454 0
v -2016 518 0
v -2016 582 0
v -2047 582 0
v -2047 518 0
v -512 1830 0
v -512 1894 0
v -544 1894 0
v -544 1830 0
v -1760 358 0
v -1760 390 0
v -1824 390 0
v -1824 358 0
v -1888 422 0
v -1888 454 0
v -1952 454 0
v -1952 422 0
v -224 1670 0
v -224 1702 0
v -288 1702 0
v -288 1670 0
v -128 646 0
v -128 710 0
v -160 710 0
v -160 646 0
v -1760 1510 0
v -1760 1542 0
v -1792 1542 0
v -1792 1510 0
v -1920 1254 0
v -1920 1286 0
v -1952 1286 0
v -1952 1254 0
v -128 1318 0
v -128 1350 0
v -160 1350 0
v -160 1318 0
v -128 1478 0
v -128 1510 0
v -160 1510 0
v -160 1478 0
v -1888 1382 0
v -1888 1414 0
v -1920 1414 0
v -1920 1382 0
v -1952 934 0
v -1952 966 0
v -1984 966 0
v -1984 934 0
v -1728 326 0
v -1728 358 0
v -1760 358 0
v -1760 326 0
v -1888 390 0
v -1888 422 0
v -1920 422 0
v -1920 390 0
v -1920 294 0
v -1920 326 0
v -1952 326 0
v -1952 294 0
v -576 0 0
v -576 6 0
v -608 6 0
v -608 0 0
v -192 198 0
v -192 230 0
v -224 230 0
v -224 198 0
v -288 1670 0
v -288 1702 0
v -320 1702 0
v -320 1670 0
v -480 1766 0
v -480 1798 0
v -512 1798 0
v -512 1766 0
v -1280 70 0
v -1280 102 0
v -1312 102 0
v -1312 70 0
v -1952 422 0
v -1952 454 0
v -1984 454 0
v -1984 422 0
v -1664 262 0
v -1664 294 0
v -1696 294 0
v -1696 262 0
v -128 326 0
v -128 358 0
v -160 358 0
v -160 326 0
v -1632 1734 0
v -1632 1766 0
v -1664 1766 0
v -1664 1734 0
v -288 1702 0
v -288 1734 0
v -320 1734 0
v -320 1702 0
v -1536 1798 0
v -1536 1830 0
v -1568 1830 0
v -1568 1798 0
v -2016 1926 0
v -2016 1958 0
v -2047 1958 0
v -2047 1926 0
v -1504 1894 0
v -1504 1926 0
v -1536 1926 0
v -1536 1894 0
vt 0.00048828125 0.000546455383
vt 0.00048828125 0.787431717
vt 0.375488281 0.787431717
vt 0.375488281 0.000546455383
vt 0.376464844 0.000546455383
vt 0.376464844 0.787431717
vt 0.735839844 0.787431717
vt 0.735839844 0.000546455383
vt 0.736816406 0.000546455383
vt 0.736816406 0.315300524
vt 0.846191406 0.315300524
vt 0.846191406 0.000546455383
vt 0.847167969 0.000546455383
vt 0.847167969 0.29781419
vt 0.956542969 0.29781419
vt 0.956542969 0.000546455383
vt 0.736816406 0.316393435
vt 0.736816406 0.456284165
vt 0.955566406 0.456284165
vt 0.955566406 0.316393435
vt 0.736816406 0.457377076
vt 0.736816406 0.597267747
vt 0.939941406 0.597267747
vt 0.939941406 0.457377076
vt 0.00048828125 0.788524568
vt 0.00048828125 0.858469963
vt 0.297363281 0.858469963
vt 0.297363281 0.788524568
vt 0.298339844 0.788524568
vt 0.298339844 0.858469963
vt 0.595214844 0.858469963
vt 0.595214844 0.788524568
vt 0.736816406 0.598360658
vt 0.736816406 0.668305993
vt 0.846191406 0.668305993
vt 0.846191406 0.598360658
vt 0.736816406 0.669398904
vt 0.736816406 0.704371572
vt 0.939941406 0.704371572
vt 0.939941406 0.669398904
vt 0.736816406 0.705464482
vt 0.736816406 0.810382485
vt 0.799316406 0.810382485
vt 0.799316406 0.705464482
vt 0.800292969 0.705464482
vt 0.800292969 0.810382485
vt 0.862792969 0.810382485
vt 0.862792969 0.705464482
vt 0.736816406 0.811475396
vt 0.736816406 0.846448064
vt 0.924316406 0.846448064
vt 0.924316406 0.811475396
vt 0.596191406 0.788524568
vt 0.596191406 0.840983629
vt 0.705566406 0.840983629
vt 0.705566406 0.788524568
vt 0.940917969 0.457377076
vt 0.940917969 0.579781413
vt 0.987792969 0.579781413
vt 0.987792969 0.457377076
vt 0.925292969 0.705464482
vt 0.925292969 0.792896152
vt 0.987792969 0.792896152
vt 0.987792969 0.705464482
vt 0.925292969 0.793989062
vt 0.925292969 0.881420732
vt 0.987792969 0.881420732
vt 0.987792969 0.793989062
vt 0.596191406 0.84207648
vt 0.596191406 0.929508209
vt 0.643066406 0.929508209
vt 0.643066406 0.84207648
vt 0.644042969 0.84207648
vt 0.644042969 0.912021875
vt 0.690917969 0.912021875
vt 0.690917969 0.84207648
vt 0.736816406 0.847540975
vt 0.736816406 0.865027308
vt 0.908691406 0.865027308
vt 0.908691406 0.847540975
vt 0.00048828125 0.859562874
vt 0.00048828125 0.877049208
vt 0.156738281 0.877049208
vt 0.156738281 0.859562874
vt 0.706542969 0.788524568
vt 0.706542969 0.945901632
vt 0.722167969 0.945901632
vt 0.722167969 0.788524568
vt 0.157714844 0.859562874
vt 0.157714844 0.894535542
vt 0.220214844 0.894535542
vt 0.220214844 0.859562874
vt 0.221191406 0.859562874
vt 0.221191406 0.929508209
vt 0.252441406 0.929508209
vt 0.252441406 0.859562874
vt 0.253417969 0.859562874
vt 0.253417969 0.894535542
vt 0.315917969 0.894535542
vt 0.315917969 0.859562874
vt 0.316894531 0.859562874
vt 0.316894531 0.877049208
vt 0.441894531 0.877049208
vt 0.441894531 0.859562874
vt 0.442871094 0.859562874
vt 0.442871094 0.877049208
vt 0.567871094 0.877049208
vt 0.567871094 0.859562874
vt 0.568847656 0.859562874
vt 0.568847656 0.999453545
vt 0.584472656 0.999453545
vt 0.584472656 0.859562874
vt 0.736816406 0.866120219
vt 0.736816406 0.918579221
vt 0.768066406 0.918579221
vt 0.768066406 0.866120219
vt 0.769042969 0.866120219
vt 0.769042969 0.901092887
vt 0.800292969 0.901092887
vt 0.800292969 0.866120219
vt 0.801269531 0.866120219
vt 0.801269531 0.901092887
vt 0.832519531 0.901092887
vt 0.832519531 0.866120219
vt 0.833496094 0.866120219
vt 0.833496094 0.901092887
vt 0.864746094 0.901092887
vt 0.864746094 0.866120219
vt 0.865722656 0.866120219
vt 0.865722656 0.936065555
vt 0.881347656 0.936065555
vt 0.881347656 0.866120219
vt 0.882324219 0.866120219
vt 0.882324219 0.901092887
vt 0.913574219 0.901092887
vt 0.913574219 0.866120219
vt 0.00048828125 0.878142059
vt 0.00048828125 0.895628393
vt 0.0473632812 0.895628393
vt 0.0473632812 0.878142059
vt 0.0483398438 0.878142059
vt 0.0483398438 0.93060112
vt 0.0639648438 0.93060112
vt 0.0639648438 0.878142059
vt 0.0649414062 0.878142059
vt 0.0649414062 0.93060112
vt 0.0805664062 0.93060112
vt 0.0805664062 0.878142059
vt 0.0815429688 0.878142059
vt 0.0815429688 0.93060112
vt 0.0971679688 0.93060112
vt 0.0971679688 0.878142059
vt 0.0981445312 0.878142059
vt 0.0981445312 0.93060112
vt 0.113769531 0.93060112
vt 0.113769531 0.878142059
vt 0.114746094 0.878142059
vt 0.114746094 0.913114786
vt 0.130371094 0.913114786
vt 0.130371094 0.878142059
vt 0.131347656 0.878142059
vt 0.131347656 0.913114786
vt 0.146972656 0.913114786
vt 0.146972656 0.878142059
vt 0.316894531 0.878142059
vt 0.316894531 0.913114786
vt 0.332519531 0.913114786
vt 0.332519531 0.878142059
vt 0.333496094 0.878142059
vt 0.333496094 0.895628393
vt 0.364746094 0.895628393
vt 0.364746094 0.878142059
vt 0.365722656 0.878142059
vt 0.365722656 0.895628393
vt 0.396972656 0.895628393
vt 0.396972656 0.878142059
vt 0.397949219 0.878142059
vt 0.397949219 0.913114786
vt 0.413574219 0.913114786
vt 0.413574219 0.878142059
vt 0.414550781 0.878142059
vt 0.414550781 0.881967187
vt 0.445800781 0.881967187
vt 0.445800781 0.878142059
vt 0.446777344 0.878142059
vt 0.446777344 0.913114786
vt 0.462402344 0.913114786
vt 0.462402344 0.878142059
vt 0.463378906 0.878142059
vt 0.463378906 0.895628393
vt 0.494628906 0.895628393
vt 0.494628906 0.878142059
vt 0.495605469 0.878142059
vt 0.495605469 0.895628393
vt 0.526855469 0.895628393
vt 0.526855469 0.878142059
vt 0.527832031 0.878142059
vt 0.527832031 0.913114786
vt 0.543457031 0.913114786
vt 0.543457031 0.878142059
vt 0.544433594 0.878142059
vt 0.544433594 0.913114786
vt 0.560058594 0.913114786
vt 0.560058594 0.878142059
vt 0.925292969 0.882513642
vt 0.925292969 0.899999976
vt 0.956542969 0.899999976
vt 0.956542969 0.882513642
vt 0.957519531 0.882513642
vt 0.957519531 0.91748631
vt 0.973144531 0.91748631
vt 0.973144531 0.882513642
vt 0.974121094 0.882513642
vt 0.974121094 0.91748631
vt 0.989746094 0.91748631
vt 0.989746094 0.882513642
vt 0.414550781 0.883060098
vt 0.414550781 0.918032765
vt 0.430175781 0.918032765
vt 0.430175781 0.883060098
vt 0.157714844 0.895628393
vt 0.157714844 0.93060112
vt 0.173339844 0.93060112
vt 0.173339844 0.895628393
vt 0.174316406 0.895628393
vt 0.174316406 0.913114786
vt 0.205566406 0.913114786
vt 0.205566406 0.895628393
vt 0.253417969 0.895628393
vt 0.253417969 0.93060112
vt 0.269042969 0.93060112
vt 0.269042969 0.895628393
vt 0.270019531 0.895628393
vt 0.270019531 0.93060112
vt 0.285644531 0.93060112
vt 0.285644531 0.895628393
vt 0.286621094 0.895628393
vt 0.286621094 0.93060112
vt 0.302246094 0.93060112
vt 0.302246094 0.895628393
vt 0.00048828125 0.896721303
vt 0.00048828125 0.931693971
vt 0.0161132812 0.931693971
vt 0.0161132812 0.896721303
vt 0.333496094 0.896721303
vt 0.333496094 0.914207637
vt 0.364746094 0.914207637
vt 0.364746094 0.896721303
vt 0.365722656 0.896721303
vt 0.365722656 0.914207637
vt 0.396972656 0.914207637
vt 0.396972656 0.896721303
vt 0.463378906 0.896721303
vt 0.463378906 0.914207637
vt 0.494628906 0.914207637
vt 0.494628906 0.896721303
vt 0.0170898438 0.896721303
vt 0.0170898438 0.931693971
vt 0.0327148438 0.931693971
vt 0.0327148438 0.896721303
vt 0.495605469 0.896721303
vt 0.495605469 0.914207637
vt 0.511230469 0.914207637
vt 0.511230469 0.896721303
vt 0.925292969 0.901092887
vt 0.925292969 0.918579221
vt 0.940917969 0.918579221
vt 0.940917969 0.901092887
vt 0.769042969 0.902185798
vt 0.769042969 0.919672132
vt 0.784667969 0.919672132
vt 0.784667969 0.902185798
vt 0.785644531 0.902185798
vt 0.785644531 0.919672132
vt 0.801269531 0.919672132
vt 0.801269531 0.902185798
vt 0.802246094 0.902185798
vt 0.802246094 0.919672132
vt 0.817871094 0.919672132
vt 0.817871094 0.902185798
vt 0.818847656 0.902185798
vt 0.818847656 0.919672132
vt 0.834472656 0.919672132
vt 0.834472656 0.902185798
vt 0.835449219 0.902185798
vt 0.835449219 0.919672132
vt 0.851074219 0.919672132
vt 0.851074219 0.902185798
vt 0.882324219 0.902185798
vt 0.882324219 0.919672132
vt 0.897949219 0.919672132
vt 0.897949219 0.902185798
vt 0.898925781 0.902185798
vt 0.898925781 0.919672132
vt 0.914550781 0.919672132
vt 0.914550781 0.902185798
vt 0.644042969 0.913114786
vt 0.644042969 0.916939914
vt 0.659667969 0.916939914
vt 0.659667969 0.913114786
vt 0.660644531 0.913114786
vt 0.660644531 0.93060112
vt 0.676269531 0.93060112
vt 0.676269531 0.913114786
vt 0.677246094 0.913114786
vt 0.677246094 0.93060112
vt 0.692871094 0.93060112
vt 0.692871094 0.913114786
vt 0.114746094 0.914207637
vt 0.114746094 0.931693971
vt 0.130371094 0.931693971
vt 0.130371094 0.914207637
vt 0.131347656 0.914207637
vt 0.131347656 0.931693971
vt 0.146972656 0.931693971
vt 0.146972656 0.914207637
vt 0.174316406 0.914207637
vt 0.174316406 0.931693971
vt 0.189941406 0.931693971
vt 0.189941406 0.914207637
vt 0.190917969 0.914207637
vt 0.190917969 0.931693971
vt 0.206542969 0.931693971
vt 0.206542969 0.914207637
vt 0.316894531 0.914207637
vt 0.316894531 0.931693971
vt 0.332519531 0.931693971
vt 0.332519531 0.914207637
vt 0.397949219 0.914207637
vt 0.397949219 0.931693971
vt 0.413574219 0.931693971
vt 0.413574219 0.914207637
vt 0.446777344 0.914207637
vt 0.446777344 0.931693971
vt 0.462402344 0.931693971
vt 0.462402344 0.914207637
vt 0.527832031 0.914207637
vt 0.527832031 0.931693971
vt 0.543457031 0.931693971
vt 0.543457031 0.914207637
vt 0.544433594 0.914207637
vt 0.544433594 0.931693971
vt 0.560058594 0.931693971
vt 0.560058594 0.914207637
vt 0.333496094 0.915300548
vt 0.333496094 0.932786882
vt 0.349121094 0.932786882
vt 0.349121094 0.915300548
g kelaimengsuo_2-mesh_0
f 3/3/3 2/2/2 1/1/1
f 1/1/1 4/4/4 3/3/3
f 7/7/7 6/6/6 5/5/5
f 5/5/5 8/8/8 7/7/7
f 11/11/11 10/10/10 9/9/9
f 9/9/9 12/12/12 11/11/11
f 15/15/15 14/14/14 13/13/13
f 13/13/13 16/16/16 15/15/15
f 19/19/19 18/18/18 17/17/17
f 17/17/17 20/20/20 19/19/19
f 23/23/23 22/22/22 21/21/21
f 21/21/21 24/24/24 23/23/23
f 27/27/27 26/26/26 25/25/25
f 25/25/25 28/28/28 27/27/27
f 31/31/31 30/30/30 29/29/29
f 29/29/29 32/32/32 31/31/31
f 35/35/35 34/34/34 33/33/33
f 33/33/33 36/36/36 35/35/35
f 39/39/39 38/38/38 37/37/37
f 37/37/37 40/40/40 39/39/39
f 43/43/43 42/42/42 41/41/41
f 41/41/41 44/44/44 43/43/43
f 47/47/47 46/46/46 45/45/45
f 45/45/45 48/48/48 47/47/47
f 51/51/51 50/50/50 49/49/49
f 49/49/49 52/52/52 51/51/51
f 55/55/55 54/54/54 53/53/53
f 53/53/53 56/56/56 55/55/55
f 59/59/59 58/58/58 57/57/57
f 57/57/57 60/60/60 59/59/59
f 63/63/63 62/62/62 61/61/61
f 61/61/61 64/64/64 63/63/63
f 67/67/67 66/66/66 65/65/65
f 65/65/65 68/68/68 67/67/67
f 71/71/71 70/70/70 69/69/69
f 69/69/69 72/72/72 71/71/71
f 75/75/75 74/74/74 73/73/73
f 73/73/73 76/76/76 75/75/75
f 79/79/79 78/78/78 77/77/77
f 77/77/77 80/80/80 79/79/79
f 83/83/83 82/82/82 81/81/81
f 81/81/81 84/84/84 83/83/83
f 87/87/87 86/86/86 85/85/85
f 85/85/85 88/88/88 87/87/87
f 91/91/91 90/90/90 89/89/89
f 89/89/89 92/92/92 91/91/91
f 95/95/95 94/94/94 93/93/93
f 93/93/93 96/96/96 95/95/95
f 99/99/99 98/98/98 97/97/97
f 97/97/97 100/100/100 99/99/99
f 103/103/103 102/102/102 101/101/101
f 101/101/101 104/104/104 103/103/103
f 107/107/107 106/106/106 105/105/105
f 105/105/105 108/108/108 107/107/107
f 111/111/111 110/110/110 109/109/109
f 109/109/109 112/112/112 111/111/111
f 115/115/115 114/114/114 113/113/113
f 113/113/113 116/116/116 115/115/115
f 119/119/119 118/118/118 117/117/117
f 117/117/117 120/120/120 119/119/119
f 123/123/123 122/122/122 121/121/121
f 121/121/121 124/124/124 123/123/123
f 127/127/127 126/126/126 125/125/125
f 125/125/125 128/128/128 127/127/127
f 131/131/131 130/130/130 129/129/129
f 129/129/129 132/132/132 131/131/131
f 135/135/135 134/134/134 133/133/133
f 133/133/133 136/136/136 135/135/135
f 139/139/139 138/138/138 137/137/137
f 137/137/137 140/140/140 139/139/139
f 143/143/143 142/142/142 141/141/141
f 141/141/141 144/144/144 143/143/143
f 147/147/147 146/146/146 145/145/145
f 145/145/145 148/148/148 147/147/147
f 151/151/151 150/150/150 149/149/149
f 149/149/149 152/152/152 151/151/151
f 155/155/155 154/154/154 153/153/153
f 153/153/153 156/156/156 155/155/155
f 159/159/159 158/158/158 157/157/157
f 157/157/157 160/160/160 159/159/159
f 163/163/163 162/162/162 161/161/161
f 161/161/161 164/164/164 163/163/163
f 167/167/167 166/166/166 165/165/165
f 165/165/165 168/168/168 167/167/167
f 171/171/171 170/170/170 169/169/169
f 169/169/169 172/172/172 171/171/171
f 175/175/175 174/174/174 173/173/173
f 173/173/173 176/176/176 175/175/175
f 179/179/179 178/178/178 177/177/177
f 177/177/177 180/180/180 179/179/179
f 183/183/183 182/182/182 181/181/181
f 181/181/181 184/184/184 183/183/183
f 187/187/187 186/186/186 185/185/185
f 185/185/185 188/188/188 187/187/187
f 191/191/191 190/190/190 189/189/189
f 189/189/189 192/192/192 191/191/191
f 195/195/195 194/194/194 193/193/193
f 193/193/193 196/196/196 195/195/195
f 199/199/199 198/198/198 197/197/197
f 197/197/197 200/200/200 199/199/199
f 203/203/203 202/202/202 201/201/201
f 201/201/201 204/204/204 203/203/203
f 207/207/207 206/206/206 205/205/205
f 205/205/205 208/208/208 207/207/207
f 211/211/211 210/210/210 209/209/209
f 209/209/209 212/212/212 211/211/211
f 215/215/215 214/214/214 213/213/213
f 213/213/213 216/216/216 215/215/215
f 219/219/219 218/218/218 217/217/217
f 217/217/217 220/220/220 219/219/219
f 223/223/223 222/222/222 221/221/221
f 221/221/221 224/224/224 223/223/223
f 227/227/227 226/226/226 225/225/225
f 225/225/225 228/228/228 227/227/227
f 231/231/231 230/230/230 229/229/229
f 229/229/229 232/232/232 231/231/231
f 235/235/235 234/234/234 233/233/233
f 233/233/233 236/236/236 235/235/235
f 239/239/239 238/238/238 237/237/237
f 237/237/237 240/240/240 239/239/239
f 243/243/243 242/242/242 241/241/241
f 241/241/241 244/244/244 243/243/243
f 247/247/247 246/246/246 245/245/245
f 245/245/245 248/248/248 247/247/247
f 251/251/251 250/250/250 249/249/249
f 249/249/249 252/252/252 251/251/251
f 255/255/255 254/254/254 253/253/253
f 253/253/253 256/256/256 255/255/255
f 259/259/259 258/258/258 257/257/257
f 257/257/257 260/260/260 259/259/259
f 263/263/263 262/262/262 261/261/261
f 261/261/261 264/264/264 263/263/263
f 267/267/267 266/266/266 265/265/265
f 265/265/265 268/268/268 267/267/267
f 271/271/271 270/270/270 269/269/269
f 269/269/269 272/272/272 271/271/271
f 275/275/275 274/274/274 273/273/273
f 273/273/273 276/276/276 275/275/275
f 279/279/279 278/278/278 277/277/277
f 277/277/277 280/280/280 279/279/279
f 283/283/283 282/282/282 281/281/281
f 281/281/281 284/284/284 283/283/283
f 287/287/287 286/286/286 285/285/285
f 285/285/285 288/288/288 287/287/287
f 291/291/291 290/290/290 289/289/289
f 289/289/289 292/292/292 291/291/291
f 295/295/295 294/294/294 293/293/293
f 293/293/293 296/296/296 295/295/295
f 299/299/299 298/298/298 297/297/297
f 297/297/297 300/300/300 299/299/299
f 303/303/303 302/302/302 301/301/301
f 301/301/301 304/304/304 303/303/303
f 307/307/307 306/306/306 305/305/305
f 305/305/305 308/308/308 307/307/307
f 311/311/311 310/310/310 309/309/309
f 309/309/309 312/312/312 311/311/311
f 315/315/315 314/314/314 313/313/313
f 313/313/313 316/316/316 315/315/315
f 319/319/319 318/318/318 317/317/317
f 317/317/317 320/320/320 319/319/319
f 323/323/323 322/322/322 321/321/321
f 321/321/321 324/324/324 323/323/323
f 327/327/327 326/326/326 325/325/325
f 325/325/325 328/328/328 327/327/327
f 331/331/331 330/330/330 329/329/329
f 329/329/329 332/332/332 331/331/331
f 335/335/335 334/334/334 333/333/333
f 333/333/333 336/336/336 335/335/335
f 339/339/339 338/338/338 337/337/337
f 337/337/337 340/340/340 339/339/339
f 343/343/343 342/342/342 341/341/341
f 341/341/341 344/344/344 343/343/343
f 347/347/347 346/346/346 345/345/345
f 345/345/345 348/348/348 347/347/347
