g shenxue_4_shophx-mesh
v -960 293 0
v -960 453 0
v -1216 453 0
v -1216 293 0
v -1120 485 0
v -1120 677 0
v -1280 677 0
v -1280 485 0
v -800 229 0
v -800 325 0
v -960 325 0
v -960 229 0
v -640 229 0
v -640 325 0
v -800 325 0
v -800 229 0
v -1024 453 0
v -1024 549 0
v -1120 549 0
v -1120 453 0
v -640 197 0
v -640 229 0
v -768 229 0
v -768 197 0
v -864 325 0
v -864 357 0
v -960 357 0
v -960 325 0
v -960 261 0
v -960 293 0
v -1056 293 0
v -1056 261 0
v -768 197 0
v -768 229 0
v -864 229 0
v -864 197 0
v -768 325 0
v -768 357 0
v -864 357 0
v -864 325 0
v -640 165 0
v -640 197 0
v -704 197 0
v -704 165 0
v -1280 581 0
v -1280 645 0
v -1312 645 0
v -1312 581 0
v -1216 293 0
v -1216 357 0
v -1248 357 0
v -1248 293 0
v -1152 677 0
v -1152 709 0
v -1216 709 0
v -1216 677 0
v -1120 453 0
v -1120 485 0
v -1184 485 0
v -1184 453 0
v -1184 453 0
v -1184 485 0
v -1248 485 0
v -1248 453 0
v -1056 261 0
v -1056 293 0
v -1120 293 0
v -1120 261 0
v -1088 581 0
v -1088 645 0
v -1120 645 0
v -1120 581 0
v -992 453 0
v -992 485 0
v -1024 485 0
v -1024 453 0
v -928 357 0
v -928 389 0
v -960 389 0
v -960 357 0
v -608 261 0
v -608 293 0
v -640 293 0
v -640 261 0
v -896 5 0
v -896 37 0
v -928 37 0
v -928 5 0
v -960 229 0
v -960 261 0
v -992 261 0
v -992 229 0
v -704 165 0
v -704 197 0
v -736 197 0
v -736 165 0
v -1280 549 0
v -1280 581 0
v -1312 581 0
v -1312 549 0
v -1088 549 0
v -1088 581 0
v -1120 581 0
v -1120 549 0
v -1056 549 0
v -1056 581 0
v -1088 581 0
v -1088 549 0
v -1312 581 0
v -1312 613 0
v -1344 613 0
v -1344 581 0
vt 0.001953125 0.00234740973
vt 0.001953125 0.377934277
vt 0.501953125 0.377934277
vt 0.501953125 0.00234740973
vt 0.505859375 0.00234740973
vt 0.505859375 0.453051627
vt 0.818359375 0.453051627
vt 0.818359375 0.00234740973
vt 0.001953125 0.382629097
vt 0.001953125 0.607981205
vt 0.314453125 0.607981205
vt 0.314453125 0.382629097
vt 0.505859375 0.457746506
vt 0.505859375 0.683098555
vt 0.818359375 0.683098555
vt 0.818359375 0.457746506
vt 0.001953125 0.612676024
vt 0.001953125 0.838028193
vt 0.189453125 0.838028193
vt 0.189453125 0.612676024
vt 0.193359375 0.612676024
vt 0.193359375 0.687793434
vt 0.443359375 0.687793434
vt 0.443359375 0.612676024
vt 0.505859375 0.687793434
vt 0.505859375 0.762910783
vt 0.693359375 0.762910783
vt 0.693359375 0.687793434
vt 0.697265625 0.687793434
vt 0.697265625 0.762910783
vt 0.884765625 0.762910783
vt 0.884765625 0.687793434
vt 0.193359375 0.692488253
vt 0.193359375 0.767605662
vt 0.380859375 0.767605662
vt 0.380859375 0.692488253
vt 0.505859375 0.767605662
vt 0.505859375 0.842723012
vt 0.693359375 0.842723012
vt 0.693359375 0.767605662
vt 0.697265625 0.767605662
vt 0.697265625 0.842723012
vt 0.822265625 0.842723012
vt 0.822265625 0.767605662
vt 0.888671875 0.00234740973
vt 0.888671875 0.152582169
vt 0.951171875 0.152582169
vt 0.951171875 0.00234740973
vt 0.888671875 0.157276988
vt 0.888671875 0.307511747
vt 0.951171875 0.307511747
vt 0.951171875 0.157276988
vt 0.826171875 0.767605662
vt 0.826171875 0.842723012
vt 0.951171875 0.842723012
vt 0.951171875 0.767605662
vt 0.193359375 0.772300482
vt 0.193359375 0.847417831
vt 0.318359375 0.847417831
vt 0.318359375 0.772300482
vt 0.322265625 0.772300482
vt 0.322265625 0.847417831
vt 0.447265625 0.847417831
vt 0.447265625 0.772300482
vt 0.001953125 0.842723012
vt 0.001953125 0.917840362
vt 0.126953125 0.917840362
vt 0.126953125 0.842723012
vt 0.505859375 0.847417831
vt 0.505859375 0.99765259
vt 0.568359375 0.99765259
vt 0.568359375 0.847417831
vt 0.572265625 0.847417831
vt 0.572265625 0.922535181
vt 0.634765625 0.922535181
vt 0.634765625 0.847417831
vt 0.638671875 0.847417831
vt 0.638671875 0.922535181
vt 0.701171875 0.922535181
vt 0.701171875 0.847417831
vt 0.705078125 0.847417831
vt 0.705078125 0.922535181
vt 0.767578125 0.922535181
vt 0.767578125 0.847417831
vt 0.771484375 0.847417831
vt 0.771484375 0.922535181
vt 0.833984375 0.922535181
vt 0.833984375 0.847417831
vt 0.837890625 0.847417831
vt 0.837890625 0.922535181
vt 0.900390625 0.922535181
vt 0.900390625 0.847417831
vt 0.904296875 0.847417831
vt 0.904296875 0.922535181
vt 0.966796875 0.922535181
vt 0.966796875 0.847417831
vt 0.193359375 0.852112651
vt 0.193359375 0.92723006
vt 0.255859375 0.92723006
vt 0.255859375 0.852112651
vt 0.259765625 0.852112651
vt 0.259765625 0.92723006
vt 0.322265625 0.92723006
vt 0.322265625 0.852112651
vt 0.326171875 0.852112651
vt 0.326171875 0.92723006
vt 0.388671875 0.92723006
vt 0.388671875 0.852112651
vt 0.392578125 0.852112651
vt 0.392578125 0.92723006
vt 0.455078125 0.92723006
vt 0.455078125 0.852112651
g shenxue_4_shophx-mesh_0
f 3/3/3 2/2/2 1/1/1
f 1/1/1 4/4/4 3/3/3
f 7/7/7 6/6/6 5/5/5
f 5/5/5 8/8/8 7/7/7
f 11/11/11 10/10/10 9/9/9
f 9/9/9 12/12/12 11/11/11
f 15/15/15 14/14/14 13/13/13
f 13/13/13 16/16/16 15/15/15
f 19/19/19 18/18/18 17/17/17
f 17/17/17 20/20/20 19/19/19
f 23/23/23 22/22/22 21/21/21
f 21/21/21 24/24/24 23/23/23
f 27/27/27 26/26/26 25/25/25
f 25/25/25 28/28/28 27/27/27
f 31/31/31 30/30/30 29/29/29
f 29/29/29 32/32/32 31/31/31
f 35/35/35 34/34/34 33/33/33
f 33/33/33 36/36/36 35/35/35
f 39/39/39 38/38/38 37/37/37
f 37/37/37 40/40/40 39/39/39
f 43/43/43 42/42/42 41/41/41
f 41/41/41 44/44/44 43/43/43
f 47/47/47 46/46/46 45/45/45
f 45/45/45 48/48/48 47/47/47
f 51/51/51 50/50/50 49/49/49
f 49/49/49 52/52/52 51/51/51
f 55/55/55 54/54/54 53/53/53
f 53/53/53 56/56/56 55/55/55
f 59/59/59 58/58/58 57/57/57
f 57/57/57 60/60/60 59/59/59
f 63/63/63 62/62/62 61/61/61
f 61/61/61 64/64/64 63/63/63
f 67/67/67 66/66/66 65/65/65
f 65/65/65 68/68/68 67/67/67
f 71/71/71 70/70/70 69/69/69
f 69/69/69 72/72/72 71/71/71
f 75/75/75 74/74/74 73/73/73
f 73/73/73 76/76/76 75/75/75
f 79/79/79 78/78/78 77/77/77
f 77/77/77 80/80/80 79/79/79
f 83/83/83 82/82/82 81/81/81
f 81/81/81 84/84/84 83/83/83
f 87/87/87 86/86/86 85/85/85
f 85/85/85 88/88/88 87/87/87
f 91/91/91 90/90/90 89/89/89
f 89/89/89 92/92/92 91/91/91
f 95/95/95 94/94/94 93/93/93
f 93/93/93 96/96/96 95/95/95
f 99/99/99 98/98/98 97/97/97
f 97/97/97 100/100/100 99/99/99
f 103/103/103 102/102/102 101/101/101
f 101/101/101 104/104/104 103/103/103
f 107/107/107 106/106/106 105/105/105
f 105/105/105 108/108/108 107/107/107
f 111/111/111 110/110/110 109/109/109
f 109/109/109 112/112/112 111/111/111
