g jiqi_3-mesh
v -512 855 0
v -512 1175 0
v -1056 1175 0
v -1056 855 0
v -512 567 0
v -512 855 0
v -1056 855 0
v -1056 567 0
v -1056 855 0
v -1056 1335 0
v -1280 1335 0
v -1280 855 0
v -96 311 0
v -96 663 0
v -384 663 0
v -384 311 0
v -224 23 0
v -224 215 0
v -640 215 0
v -640 23 0
v -640 23 0
v -640 215 0
v -1024 215 0
v -1024 23 0
v -768 215 0
v -768 471 0
v -992 471 0
v -992 215 0
v -864 1175 0
v -864 1399 0
v -1056 1399 0
v -1056 1175 0
v -480 1175 0
v -480 1303 0
v -768 1303 0
v -768 1175 0
v -544 375 0
v -544 567 0
v -704 567 0
v -704 375 0
v -448 823 0
v -448 1111 0
v -512 1111 0
v -512 823 0
v -864 471 0
v -864 567 0
v -1056 567 0
v -1056 471 0
v -448 535 0
v -448 823 0
v -512 823 0
v -512 535 0
v -1056 471 0
v -1056 567 0
v -1216 567 0
v -1216 471 0
v -96 119 0
v -96 215 0
v -224 215 0
v -224 119 0
v -992 375 0
v -992 471 0
v -1120 471 0
v -1120 375 0
v -1056 567 0
v -1056 663 0
v -1184 663 0
v -1184 567 0
v -64 663 0
v -64 791 0
v -160 791 0
v -160 663 0
v -1280 1079 0
v -1280 1239 0
v -1344 1239 0
v -1344 1079 0
v -1088 759 0
v -1088 855 0
v -1184 855 0
v -1184 759 0
v -576 247 0
v -576 375 0
v -640 375 0
v -640 247 0
v -32 471 0
v -32 599 0
v -96 599 0
v -96 471 0
v -480 343 0
v -480 471 0
v -544 471 0
v -544 343 0
v -800 1207 0
v -800 1335 0
v -864 1335 0
v -864 1207 0
v -416 247 0
v -416 375 0
v -480 375 0
v -480 247 0
v -384 215 0
v -384 247 0
v -640 247 0
v -640 215 0
v -1024 183 0
v -1024 311 0
v -1088 311 0
v -1088 183 0
v -1024 55 0
v -1024 183 0
v -1088 183 0
v -1088 55 0
v -1280 951 0
v -1280 1079 0
v -1344 1079 0
v -1344 951 0
v -128 215 0
v -128 247 0
v -384 247 0
v -384 215 0
v -128 855 0
v -128 951 0
v -192 951 0
v -192 855 0
v -192 247 0
v -192 311 0
v -288 311 0
v -288 247 0
v -192 759 0
v -192 855 0
v -256 855 0
v -256 759 0
v -1088 55 0
v -1088 119 0
v -1184 119 0
v -1184 55 0
v -256 855 0
v -256 919 0
v -352 919 0
v -352 855 0
v -256 0 0
v -256 23 0
v -448 23 0
v -448 0 0
v -384 663 0
v -384 759 0
v -448 759 0
v -448 663 0
v -384 439 0
v -384 631 0
v -416 631 0
v -416 439 0
v -384 247 0
v -384 439 0
v -416 439 0
v -416 247 0
v -384 759 0
v -384 855 0
v -448 855 0
v -448 759 0
v -448 0 0
v -448 23 0
v -640 23 0
v -640 0 0
v -320 247 0
v -320 311 0
v -384 311 0
v -384 247 0
v -160 663 0
v -160 695 0
v -288 695 0
v -288 663 0
v -0 343 0
v -0 407 0
v -64 407 0
v -64 343 0
v -704 279 0
v -704 343 0
v -768 343 0
v -768 279 0
v -1120 407 0
v -1120 471 0
v -1184 471 0
v -1184 407 0
v -704 471 0
v -704 567 0
v -736 567 0
v -736 471 0
v -832 0 0
v -832 23 0
v -928 23 0
v -928 0 0
v -288 663 0
v -288 695 0
v -384 695 0
v -384 663 0
v -416 1015 0
v -416 1111 0
v -448 1111 0
v -448 1015 0
v -1152 1335 0
v -1152 1367 0
v -1248 1367 0
v -1248 1335 0
v -416 919 0
v -416 1015 0
v -448 1015 0
v -448 919 0
v -1056 1335 0
v -1056 1367 0
v -1152 1367 0
v -1152 1335 0
v -416 567 0
v -416 663 0
v -448 663 0
v -448 567 0
v -480 1111 0
v -480 1175 0
v -512 1175 0
v -512 1111 0
v -0 535 0
v -0 599 0
v -32 599 0
v -32 535 0
v -96 791 0
v -96 823 0
v -160 823 0
v -160 791 0
v -1280 1239 0
v -1280 1303 0
v -1312 1303 0
v -1312 1239 0
v -640 311 0
v -640 375 0
v -672 375 0
v -672 311 0
v -64 407 0
v -64 471 0
v -96 471 0
v -96 407 0
v -1184 823 0
v -1184 855 0
v -1248 855 0
v -1248 823 0
v -1280 887 0
v -1280 951 0
v -1312 951 0
v -1312 887 0
v -96 279 0
v -96 311 0
v -160 311 0
v -160 279 0
v -480 279 0
v -480 343 0
v -512 343 0
v -512 279 0
v -736 215 0
v -736 279 0
v -768 279 0
v -768 215 0
v -544 247 0
v -544 311 0
v -576 311 0
v -576 247 0
v -1024 311 0
v -1024 375 0
v -1056 375 0
v -1056 311 0
v -768 471 0
v -768 503 0
v -832 503 0
v -832 471 0
v -512 471 0
v -512 535 0
v -544 535 0
v -544 471 0
v -736 407 0
v -736 471 0
v -768 471 0
v -768 407 0
v -160 87 0
v -160 119 0
v -224 119 0
v -224 87 0
v -1216 535 0
v -1216 599 0
v -1248 599 0
v -1248 535 0
v -992 279 0
v -992 343 0
v -1024 343 0
v -1024 279 0
v -800 535 0
v -800 567 0
v -864 567 0
v -864 535 0
v -448 1207 0
v -448 1271 0
v -480 1271 0
v -480 1207 0
v -992 215 0
v -992 279 0
v -1024 279 0
v -1024 215 0
v -736 535 0
v -736 567 0
v -800 567 0
v -800 535 0
v -704 407 0
v -704 471 0
v -736 471 0
v -736 407 0
v -416 503 0
v -416 567 0
v -448 567 0
v -448 503 0
v -1056 727 0
v -1056 791 0
v -1088 791 0
v -1088 727 0
v -1056 791 0
v -1056 855 0
v -1088 855 0
v -1088 791 0
v -160 695 0
v -160 727 0
v -224 727 0
v -224 695 0
v -384 951 0
v -384 1015 0
v -416 1015 0
v -416 951 0
v -928 0 0
v -928 23 0
v -992 23 0
v -992 0 0
v -1344 1079 0
v -1344 1143 0
v -1352 1143 0
v -1352 1079 0
v -1088 119 0
v -1088 151 0
v -1120 151 0
v -1120 119 0
v -448 503 0
v -448 535 0
v -480 535 0
v -480 503 0
v -1056 663 0
v -1056 695 0
v -1088 695 0
v -1088 663 0
v -64 631 0
v -64 663 0
v -96 663 0
v -96 631 0
v -1184 567 0
v -1184 599 0
v -1216 599 0
v -1216 567 0
v -1056 343 0
v -1056 375 0
v -1088 375 0
v -1088 343 0
v -672 343 0
v -672 375 0
v -704 375 0
v -704 343 0
v -448 375 0
v -448 407 0
v -480 407 0
v -480 375 0
v -1184 439 0
v -1184 471 0
v -1216 471 0
v -1216 439 0
v -704 215 0
v -704 247 0
v -736 247 0
v -736 215 0
v -288 279 0
v -288 311 0
v -320 311 0
v -320 279 0
v -160 727 0
v -160 759 0
v -192 759 0
v -192 727 0
v -384 919 0
v -384 951 0
v -416 951 0
v -416 919 0
v -1344 1047 0
v -1344 1079 0
v -1352 1079 0
v -1352 1047 0
v -640 279 0
v -640 311 0
v -672 311 0
v -672 279 0
v -224 695 0
v -224 727 0
v -256 727 0
v -256 695 0
v -64 375 0
v -64 407 0
v -96 407 0
v -96 375 0
v -448 1175 0
v -448 1207 0
v -480 1207 0
v -480 1175 0
v -1344 1175 0
v -1344 1207 0
v -1352 1207 0
v -1352 1175 0
v -352 759 0
v -352 791 0
v -384 791 0
v -384 759 0
v -832 1175 0
v -832 1207 0
v -864 1207 0
v -864 1175 0
v -1216 503 0
v -1216 535 0
v -1248 535 0
v -1248 503 0
v -832 1335 0
v -832 1367 0
v -864 1367 0
v -864 1335 0
vt 0.00048828125 0.00140058994
vt 0.00048828125 0.449579835
vt 0.266113281 0.449579835
vt 0.266113281 0.00140058994
vt 0.267089844 0.00140058994
vt 0.267089844 0.40476191
vt 0.532714844 0.40476191
vt 0.532714844 0.00140058994
vt 0.533691406 0.00140058994
vt 0.533691406 0.673669457
vt 0.643066406 0.673669457
vt 0.643066406 0.00140058994
vt 0.644042969 0.00140058994
vt 0.644042969 0.494397759
vt 0.784667969 0.494397759
vt 0.784667969 0.00140058994
vt 0.785644531 0.00140058994
vt 0.785644531 0.270308137
vt 0.988769531 0.270308137
vt 0.988769531 0.00140058994
vt 0.785644531 0.273109257
vt 0.785644531 0.542016804
vt 0.973144531 0.542016804
vt 0.973144531 0.273109257
vt 0.267089844 0.407563031
vt 0.267089844 0.766106427
vt 0.376464844 0.766106427
vt 0.376464844 0.407563031
vt 0.377441406 0.407563031
vt 0.377441406 0.721288502
vt 0.471191406 0.721288502
vt 0.471191406 0.407563031
vt 0.00048828125 0.452380955
vt 0.00048828125 0.631652653
vt 0.141113281 0.631652653
vt 0.141113281 0.452380955
vt 0.142089844 0.452380955
vt 0.142089844 0.721288502
vt 0.220214844 0.721288502
vt 0.220214844 0.452380955
vt 0.472167969 0.407563031
vt 0.472167969 0.810924351
vt 0.503417969 0.810924351
vt 0.503417969 0.407563031
vt 0.644042969 0.49719888
vt 0.644042969 0.631652653
vt 0.737792969 0.631652653
vt 0.737792969 0.49719888
vt 0.221191406 0.452380955
vt 0.221191406 0.855742276
vt 0.252441406 0.855742276
vt 0.252441406 0.452380955
vt 0.785644531 0.544817924
vt 0.785644531 0.679271698
vt 0.863769531 0.679271698
vt 0.863769531 0.544817924
vt 0.864746094 0.544817924
vt 0.864746094 0.679271698
vt 0.927246094 0.679271698
vt 0.927246094 0.544817924
vt 0.928222656 0.544817924
vt 0.928222656 0.679271698
vt 0.990722656 0.679271698
vt 0.990722656 0.544817924
vt 0.00048828125 0.634453773
vt 0.00048828125 0.768907547
vt 0.0629882812 0.768907547
vt 0.0629882812 0.634453773
vt 0.0639648438 0.634453773
vt 0.0639648438 0.813725471
vt 0.110839844 0.813725471
vt 0.110839844 0.634453773
vt 0.738769531 0.49719888
vt 0.738769531 0.721288502
vt 0.770019531 0.721288502
vt 0.770019531 0.49719888
vt 0.644042969 0.634453773
vt 0.644042969 0.768907547
vt 0.690917969 0.768907547
vt 0.690917969 0.634453773
vt 0.691894531 0.634453773
vt 0.691894531 0.813725471
vt 0.723144531 0.813725471
vt 0.723144531 0.634453773
vt 0.533691406 0.676470578
vt 0.533691406 0.855742276
vt 0.564941406 0.855742276
vt 0.564941406 0.676470578
vt 0.565917969 0.676470578
vt 0.565917969 0.855742276
vt 0.597167969 0.855742276
vt 0.597167969 0.676470578
vt 0.598144531 0.676470578
vt 0.598144531 0.855742276
vt 0.629394531 0.855742276
vt 0.629394531 0.676470578
vt 0.785644531 0.682072818
vt 0.785644531 0.861344516
vt 0.816894531 0.861344516
vt 0.816894531 0.682072818
vt 0.817871094 0.682072818
vt 0.817871094 0.726890743
vt 0.942871094 0.726890743
vt 0.942871094 0.682072818
vt 0.943847656 0.682072818
vt 0.943847656 0.861344516
vt 0.975097656 0.861344516
vt 0.975097656 0.682072818
vt 0.142089844 0.724089622
vt 0.142089844 0.90336132
vt 0.173339844 0.90336132
vt 0.173339844 0.724089622
vt 0.174316406 0.724089622
vt 0.174316406 0.90336132
vt 0.205566406 0.90336132
vt 0.205566406 0.724089622
vt 0.817871094 0.729691863
vt 0.817871094 0.774509788
vt 0.942871094 0.774509788
vt 0.942871094 0.729691863
vt 0.377441406 0.724089622
vt 0.377441406 0.858543396
vt 0.408691406 0.858543396
vt 0.408691406 0.724089622
vt 0.409667969 0.724089622
vt 0.409667969 0.813725471
vt 0.456542969 0.813725471
vt 0.456542969 0.724089622
vt 0.738769531 0.724089622
vt 0.738769531 0.858543396
vt 0.770019531 0.858543396
vt 0.770019531 0.724089622
vt 0.267089844 0.768907547
vt 0.267089844 0.858543396
vt 0.313964844 0.858543396
vt 0.313964844 0.768907547
vt 0.314941406 0.768907547
vt 0.314941406 0.858543396
vt 0.361816406 0.858543396
vt 0.361816406 0.768907547
vt 0.817871094 0.777310908
vt 0.817871094 0.810924351
vt 0.911621094 0.810924351
vt 0.911621094 0.777310908
vt 0.00048828125 0.771708667
vt 0.00048828125 0.906162441
vt 0.0317382812 0.906162441
vt 0.0317382812 0.771708667
vt 0.504394531 0.407563031
vt 0.504394531 0.676470578
vt 0.520019531 0.676470578
vt 0.520019531 0.407563031
vt 0.111816406 0.634453773
vt 0.111816406 0.90336132
vt 0.127441406 0.90336132
vt 0.127441406 0.634453773
vt 0.644042969 0.771708667
vt 0.644042969 0.906162441
vt 0.675292969 0.906162441
vt 0.675292969 0.771708667
vt 0.817871094 0.813725471
vt 0.817871094 0.847338915
vt 0.911621094 0.847338915
vt 0.911621094 0.813725471
vt 0.472167969 0.813725471
vt 0.472167969 0.90336132
vt 0.503417969 0.90336132
vt 0.503417969 0.813725471
vt 0.817871094 0.850140035
vt 0.817871094 0.89495796
vt 0.880371094 0.89495796
vt 0.880371094 0.850140035
vt 0.0639648438 0.816526592
vt 0.0639648438 0.906162441
vt 0.0952148438 0.906162441
vt 0.0952148438 0.816526592
vt 0.409667969 0.816526592
vt 0.409667969 0.906162441
vt 0.440917969 0.906162441
vt 0.440917969 0.816526592
vt 0.691894531 0.816526592
vt 0.691894531 0.906162441
vt 0.723144531 0.906162441
vt 0.723144531 0.816526592
vt 0.504394531 0.679271698
vt 0.504394531 0.813725471
vt 0.520019531 0.813725471
vt 0.520019531 0.679271698
vt 0.881347656 0.850140035
vt 0.881347656 0.883753479
vt 0.928222656 0.883753479
vt 0.928222656 0.850140035
vt 0.533691406 0.858543396
vt 0.533691406 0.90336132
vt 0.580566406 0.90336132
vt 0.580566406 0.858543396
vt 0.976074219 0.682072818
vt 0.976074219 0.816526592
vt 0.991699219 0.816526592
vt 0.991699219 0.682072818
vt 0.581542969 0.858543396
vt 0.581542969 0.90336132
vt 0.628417969 0.90336132
vt 0.628417969 0.858543396
vt 0.0327148438 0.771708667
vt 0.0327148438 0.906162441
vt 0.0483398438 0.906162441
vt 0.0483398438 0.771708667
vt 0.267089844 0.861344516
vt 0.267089844 0.906162441
vt 0.313964844 0.906162441
vt 0.313964844 0.861344516
vt 0.441894531 0.816526592
vt 0.441894531 0.950980365
vt 0.457519531 0.950980365
vt 0.457519531 0.816526592
vt 0.504394531 0.816526592
vt 0.504394531 0.906162441
vt 0.520019531 0.906162441
vt 0.520019531 0.816526592
vt 0.976074219 0.819327712
vt 0.976074219 0.908963561
vt 0.991699219 0.908963561
vt 0.991699219 0.819327712
vt 0.221191406 0.858543396
vt 0.221191406 0.90336132
vt 0.252441406 0.90336132
vt 0.252441406 0.858543396
vt 0.314941406 0.861344516
vt 0.314941406 0.950980365
vt 0.330566406 0.950980365
vt 0.330566406 0.861344516
vt 0.331542969 0.861344516
vt 0.331542969 0.950980365
vt 0.347167969 0.950980365
vt 0.347167969 0.861344516
vt 0.348144531 0.861344516
vt 0.348144531 0.950980365
vt 0.363769531 0.950980365
vt 0.363769531 0.861344516
vt 0.377441406 0.861344516
vt 0.377441406 0.906162441
vt 0.408691406 0.906162441
vt 0.408691406 0.861344516
vt 0.738769531 0.861344516
vt 0.738769531 0.950980365
vt 0.754394531 0.950980365
vt 0.754394531 0.861344516
vt 0.785644531 0.864145637
vt 0.785644531 0.908963561
vt 0.816894531 0.908963561
vt 0.816894531 0.864145637
vt 0.755371094 0.861344516
vt 0.755371094 0.950980365
vt 0.770996094 0.950980365
vt 0.770996094 0.861344516
vt 0.943847656 0.864145637
vt 0.943847656 0.953781486
vt 0.959472656 0.953781486
vt 0.959472656 0.864145637
vt 0.881347656 0.886554599
vt 0.881347656 0.976190448
vt 0.896972656 0.976190448
vt 0.896972656 0.886554599
vt 0.897949219 0.886554599
vt 0.897949219 0.976190448
vt 0.913574219 0.976190448
vt 0.913574219 0.886554599
vt 0.817871094 0.89775908
vt 0.817871094 0.942577004
vt 0.849121094 0.942577004
vt 0.849121094 0.89775908
vt 0.914550781 0.886554599
vt 0.914550781 0.976190448
vt 0.930175781 0.976190448
vt 0.930175781 0.886554599
vt 0.850097656 0.89775908
vt 0.850097656 0.987394929
vt 0.865722656 0.987394929
vt 0.865722656 0.89775908
vt 0.111816406 0.906162441
vt 0.111816406 0.950980365
vt 0.143066406 0.950980365
vt 0.143066406 0.906162441
vt 0.144042969 0.906162441
vt 0.144042969 0.99579829
vt 0.159667969 0.99579829
vt 0.159667969 0.906162441
vt 0.160644531 0.906162441
vt 0.160644531 0.99579829
vt 0.176269531 0.99579829
vt 0.176269531 0.906162441
vt 0.177246094 0.906162441
vt 0.177246094 0.950980365
vt 0.208496094 0.950980365
vt 0.208496094 0.906162441
vt 0.221191406 0.906162441
vt 0.221191406 0.99579829
vt 0.236816406 0.99579829
vt 0.236816406 0.906162441
vt 0.237792969 0.906162441
vt 0.237792969 0.99579829
vt 0.253417969 0.99579829
vt 0.253417969 0.906162441
vt 0.472167969 0.906162441
vt 0.472167969 0.950980365
vt 0.503417969 0.950980365
vt 0.503417969 0.906162441
vt 0.533691406 0.906162441
vt 0.533691406 0.99579829
vt 0.549316406 0.99579829
vt 0.549316406 0.906162441
vt 0.550292969 0.906162441
vt 0.550292969 0.99579829
vt 0.565917969 0.99579829
vt 0.565917969 0.906162441
vt 0.566894531 0.906162441
vt 0.566894531 0.99579829
vt 0.582519531 0.99579829
vt 0.582519531 0.906162441
vt 0.583496094 0.906162441
vt 0.583496094 0.99579829
vt 0.599121094 0.99579829
vt 0.599121094 0.906162441
vt 0.600097656 0.906162441
vt 0.600097656 0.950980365
vt 0.631347656 0.950980365
vt 0.631347656 0.906162441
vt 0.00048828125 0.908963561
vt 0.00048828125 0.99859941
vt 0.0161132812 0.99859941
vt 0.0161132812 0.908963561
vt 0.0170898438 0.908963561
vt 0.0170898438 0.942577004
vt 0.0483398438 0.942577004
vt 0.0483398438 0.908963561
vt 0.992675781 0.00140058994
vt 0.992675781 0.0910364389
vt 0.997070312 0.0910364389
vt 0.997070312 0.00140058994
vt 0.0639648438 0.908963561
vt 0.0639648438 0.953781486
vt 0.0795898438 0.953781486
vt 0.0795898438 0.908963561
vt 0.0805664062 0.908963561
vt 0.0805664062 0.953781486
vt 0.0961914062 0.953781486
vt 0.0961914062 0.908963561
vt 0.267089844 0.908963561
vt 0.267089844 0.953781486
vt 0.282714844 0.953781486
vt 0.282714844 0.908963561
vt 0.283691406 0.908963561
vt 0.283691406 0.953781486
vt 0.299316406 0.953781486
vt 0.299316406 0.908963561
vt 0.377441406 0.908963561
vt 0.377441406 0.953781486
vt 0.393066406 0.953781486
vt 0.393066406 0.908963561
vt 0.394042969 0.908963561
vt 0.394042969 0.953781486
vt 0.409667969 0.953781486
vt 0.409667969 0.908963561
vt 0.410644531 0.908963561
vt 0.410644531 0.953781486
vt 0.426269531 0.953781486
vt 0.426269531 0.908963561
vt 0.504394531 0.908963561
vt 0.504394531 0.953781486
vt 0.520019531 0.953781486
vt 0.520019531 0.908963561
vt 0.644042969 0.908963561
vt 0.644042969 0.953781486
vt 0.659667969 0.953781486
vt 0.659667969 0.908963561
vt 0.660644531 0.908963561
vt 0.660644531 0.953781486
vt 0.676269531 0.953781486
vt 0.676269531 0.908963561
vt 0.691894531 0.908963561
vt 0.691894531 0.953781486
vt 0.707519531 0.953781486
vt 0.707519531 0.908963561
vt 0.708496094 0.908963561
vt 0.708496094 0.953781486
vt 0.724121094 0.953781486
vt 0.724121094 0.908963561
vt 0.785644531 0.911764681
vt 0.785644531 0.956582606
vt 0.801269531 0.956582606
vt 0.801269531 0.911764681
vt 0.992675781 0.0938375592
vt 0.992675781 0.138655484
vt 0.997070312 0.138655484
vt 0.997070312 0.0938375592
vt 0.976074219 0.911764681
vt 0.976074219 0.956582606
vt 0.991699219 0.956582606
vt 0.991699219 0.911764681
vt 0.0170898438 0.945378125
vt 0.0170898438 0.990196049
vt 0.0327148438 0.990196049
vt 0.0327148438 0.945378125
vt 0.0336914062 0.945378125
vt 0.0336914062 0.990196049
vt 0.0493164062 0.990196049
vt 0.0493164062 0.945378125
vt 0.817871094 0.945378125
vt 0.817871094 0.990196049
vt 0.833496094 0.990196049
vt 0.833496094 0.945378125
vt 0.992675781 0.141456604
vt 0.992675781 0.186274529
vt 0.997070312 0.186274529
vt 0.997070312 0.141456604
vt 0.111816406 0.953781486
vt 0.111816406 0.99859941
vt 0.127441406 0.99859941
vt 0.127441406 0.953781486
vt 0.177246094 0.953781486
vt 0.177246094 0.99859941
vt 0.192871094 0.99859941
vt 0.192871094 0.953781486
vt 0.193847656 0.953781486
vt 0.193847656 0.99859941
vt 0.209472656 0.99859941
vt 0.209472656 0.953781486
vt 0.314941406 0.953781486
vt 0.314941406 0.99859941
vt 0.330566406 0.99859941
vt 0.330566406 0.953781486
g jiqi_3-mesh_0
f 3/3/3 2/2/2 1/1/1
f 1/1/1 4/4/4 3/3/3
f 7/7/7 6/6/6 5/5/5
f 5/5/5 8/8/8 7/7/7
f 11/11/11 10/10/10 9/9/9
f 9/9/9 12/12/12 11/11/11
f 15/15/15 14/14/14 13/13/13
f 13/13/13 16/16/16 15/15/15
f 19/19/19 18/18/18 17/17/17
f 17/17/17 20/20/20 19/19/19
f 23/23/23 22/22/22 21/21/21
f 21/21/21 24/24/24 23/23/23
f 27/27/27 26/26/26 25/25/25
f 25/25/25 28/28/28 27/27/27
f 31/31/31 30/30/30 29/29/29
f 29/29/29 32/32/32 31/31/31
f 35/35/35 34/34/34 33/33/33
f 33/33/33 36/36/36 35/35/35
f 39/39/39 38/38/38 37/37/37
f 37/37/37 40/40/40 39/39/39
f 43/43/43 42/42/42 41/41/41
f 41/41/41 44/44/44 43/43/43
f 47/47/47 46/46/46 45/45/45
f 45/45/45 48/48/48 47/47/47
f 51/51/51 50/50/50 49/49/49
f 49/49/49 52/52/52 51/51/51
f 55/55/55 54/54/54 53/53/53
f 53/53/53 56/56/56 55/55/55
f 59/59/59 58/58/58 57/57/57
f 57/57/57 60/60/60 59/59/59
f 63/63/63 62/62/62 61/61/61
f 61/61/61 64/64/64 63/63/63
f 67/67/67 66/66/66 65/65/65
f 65/65/65 68/68/68 67/67/67
f 71/71/71 70/70/70 69/69/69
f 69/69/69 72/72/72 71/71/71
f 75/75/75 74/74/74 73/73/73
f 73/73/73 76/76/76 75/75/75
f 79/79/79 78/78/78 77/77/77
f 77/77/77 80/80/80 79/79/79
f 83/83/83 82/82/82 81/81/81
f 81/81/81 84/84/84 83/83/83
f 87/87/87 86/86/86 85/85/85
f 85/85/85 88/88/88 87/87/87
f 91/91/91 90/90/90 89/89/89
f 89/89/89 92/92/92 91/91/91
f 95/95/95 94/94/94 93/93/93
f 93/93/93 96/96/96 95/95/95
f 99/99/99 98/98/98 97/97/97
f 97/97/97 100/100/100 99/99/99
f 103/103/103 102/102/102 101/101/101
f 101/101/101 104/104/104 103/103/103
f 107/107/107 106/106/106 105/105/105
f 105/105/105 108/108/108 107/107/107
f 111/111/111 110/110/110 109/109/109
f 109/109/109 112/112/112 111/111/111
f 115/115/115 114/114/114 113/113/113
f 113/113/113 116/116/116 115/115/115
f 119/119/119 118/118/118 117/117/117
f 117/117/117 120/120/120 119/119/119
f 123/123/123 122/122/122 121/121/121
f 121/121/121 124/124/124 123/123/123
f 127/127/127 126/126/126 125/125/125
f 125/125/125 128/128/128 127/127/127
f 131/131/131 130/130/130 129/129/129
f 129/129/129 132/132/132 131/131/131
f 135/135/135 134/134/134 133/133/133
f 133/133/133 136/136/136 135/135/135
f 139/139/139 138/138/138 137/137/137
f 137/137/137 140/140/140 139/139/139
f 143/143/143 142/142/142 141/141/141
f 141/141/141 144/144/144 143/143/143
f 147/147/147 146/146/146 145/145/145
f 145/145/145 148/148/148 147/147/147
f 151/151/151 150/150/150 149/149/149
f 149/149/149 152/152/152 151/151/151
f 155/155/155 154/154/154 153/153/153
f 153/153/153 156/156/156 155/155/155
f 159/159/159 158/158/158 157/157/157
f 157/157/157 160/160/160 159/159/159
f 163/163/163 162/162/162 161/161/161
f 161/161/161 164/164/164 163/163/163
f 167/167/167 166/166/166 165/165/165
f 165/165/165 168/168/168 167/167/167
f 171/171/171 170/170/170 169/169/169
f 169/169/169 172/172/172 171/171/171
f 175/175/175 174/174/174 173/173/173
f 173/173/173 176/176/176 175/175/175
f 179/179/179 178/178/178 177/177/177
f 177/177/177 180/180/180 179/179/179
f 183/183/183 182/182/182 181/181/181
f 181/181/181 184/184/184 183/183/183
f 187/187/187 186/186/186 185/185/185
f 185/185/185 188/188/188 187/187/187
f 191/191/191 190/190/190 189/189/189
f 189/189/189 192/192/192 191/191/191
f 195/195/195 194/194/194 193/193/193
f 193/193/193 196/196/196 195/195/195
f 199/199/199 198/198/198 197/197/197
f 197/197/197 200/200/200 199/199/199
f 203/203/203 202/202/202 201/201/201
f 201/201/201 204/204/204 203/203/203
f 207/207/207 206/206/206 205/205/205
f 205/205/205 208/208/208 207/207/207
f 211/211/211 210/210/210 209/209/209
f 209/209/209 212/212/212 211/211/211
f 215/215/215 214/214/214 213/213/213
f 213/213/213 216/216/216 215/215/215
f 219/219/219 218/218/218 217/217/217
f 217/217/217 220/220/220 219/219/219
f 223/223/223 222/222/222 221/221/221
f 221/221/221 224/224/224 223/223/223
f 227/227/227 226/226/226 225/225/225
f 225/225/225 228/228/228 227/227/227
f 231/231/231 230/230/230 229/229/229
f 229/229/229 232/232/232 231/231/231
f 235/235/235 234/234/234 233/233/233
f 233/233/233 236/236/236 235/235/235
f 239/239/239 238/238/238 237/237/237
f 237/237/237 240/240/240 239/239/239
f 243/243/243 242/242/242 241/241/241
f 241/241/241 244/244/244 243/243/243
f 247/247/247 246/246/246 245/245/245
f 245/245/245 248/248/248 247/247/247
f 251/251/251 250/250/250 249/249/249
f 249/249/249 252/252/252 251/251/251
f 255/255/255 254/254/254 253/253/253
f 253/253/253 256/256/256 255/255/255
f 259/259/259 258/258/258 257/257/257
f 257/257/257 260/260/260 259/259/259
f 263/263/263 262/262/262 261/261/261
f 261/261/261 264/264/264 263/263/263
f 267/267/267 266/266/266 265/265/265
f 265/265/265 268/268/268 267/267/267
f 271/271/271 270/270/270 269/269/269
f 269/269/269 272/272/272 271/271/271
f 275/275/275 274/274/274 273/273/273
f 273/273/273 276/276/276 275/275/275
f 279/279/279 278/278/278 277/277/277
f 277/277/277 280/280/280 279/279/279
f 283/283/283 282/282/282 281/281/281
f 281/281/281 284/284/284 283/283/283
f 287/287/287 286/286/286 285/285/285
f 285/285/285 288/288/288 287/287/287
f 291/291/291 290/290/290 289/289/289
f 289/289/289 292/292/292 291/291/291
f 295/295/295 294/294/294 293/293/293
f 293/293/293 296/296/296 295/295/295
f 299/299/299 298/298/298 297/297/297
f 297/297/297 300/300/300 299/299/299
f 303/303/303 302/302/302 301/301/301
f 301/301/301 304/304/304 303/303/303
f 307/307/307 306/306/306 305/305/305
f 305/305/305 308/308/308 307/307/307
f 311/311/311 310/310/310 309/309/309
f 309/309/309 312/312/312 311/311/311
f 315/315/315 314/314/314 313/313/313
f 313/313/313 316/316/316 315/315/315
f 319/319/319 318/318/318 317/317/317
f 317/317/317 320/320/320 319/319/319
f 323/323/323 322/322/322 321/321/321
f 321/321/321 324/324/324 323/323/323
f 327/327/327 326/326/326 325/325/325
f 325/325/325 328/328/328 327/327/327
f 331/331/331 330/330/330 329/329/329
f 329/329/329 332/332/332 331/331/331
f 335/335/335 334/334/334 333/333/333
f 333/333/333 336/336/336 335/335/335
f 339/339/339 338/338/338 337/337/337
f 337/337/337 340/340/340 339/339/339
f 343/343/343 342/342/342 341/341/341
f 341/341/341 344/344/344 343/343/343
f 347/347/347 346/346/346 345/345/345
f 345/345/345 348/348/348 347/347/347
f 351/351/351 350/350/350 349/349/349
f 349/349/349 352/352/352 351/351/351
f 355/355/355 354/354/354 353/353/353
f 353/353/353 356/356/356 355/355/355
f 359/359/359 358/358/358 357/357/357
f 357/357/357 360/360/360 359/359/359
f 363/363/363 362/362/362 361/361/361
f 361/361/361 364/364/364 363/363/363
f 367/367/367 366/366/366 365/365/365
f 365/365/365 368/368/368 367/367/367
f 371/371/371 370/370/370 369/369/369
f 369/369/369 372/372/372 371/371/371
f 375/375/375 374/374/374 373/373/373
f 373/373/373 376/376/376 375/375/375
f 379/379/379 378/378/378 377/377/377
f 377/377/377 380/380/380 379/379/379
f 383/383/383 382/382/382 381/381/381
f 381/381/381 384/384/384 383/383/383
f 387/387/387 386/386/386 385/385/385
f 385/385/385 388/388/388 387/387/387
f 391/391/391 390/390/390 389/389/389
f 389/389/389 392/392/392 391/391/391
f 395/395/395 394/394/394 393/393/393
f 393/393/393 396/396/396 395/395/395
f 399/399/399 398/398/398 397/397/397
f 397/397/397 400/400/400 399/399/399
f 403/403/403 402/402/402 401/401/401
f 401/401/401 404/404/404 403/403/403
f 407/407/407 406/406/406 405/405/405
f 405/405/405 408/408/408 407/407/407
f 411/411/411 410/410/410 409/409/409
f 409/409/409 412/412/412 411/411/411
f 415/415/415 414/414/414 413/413/413
f 413/413/413 416/416/416 415/415/415
f 419/419/419 418/418/418 417/417/417
f 417/417/417 420/420/420 419/419/419
f 423/423/423 422/422/422 421/421/421
f 421/421/421 424/424/424 423/423/423
f 427/427/427 426/426/426 425/425/425
f 425/425/425 428/428/428 427/427/427
f 431/431/431 430/430/430 429/429/429
f 429/429/429 432/432/432 431/431/431
