g kelifulan_4-mesh
v -192 535 0
v -192 1079 0
v -640 1079 0
v -640 535 0
v -192 23 0
v -192 535 0
v -640 535 0
v -640 23 0
v -640 87 0
v -640 343 0
v -832 343 0
v -832 87 0
v -640 343 0
v -640 599 0
v -832 599 0
v -832 343 0
v -384 1079 0
v -384 1239 0
v -576 1239 0
v -576 1079 0
v -640 823 0
v -640 1079 0
v -736 1079 0
v -736 823 0
v -640 599 0
v -640 823 0
v -736 823 0
v -736 599 0
v -736 919 0
v -736 1079 0
v -864 1079 0
v -864 919 0
v -96 887 0
v -96 1079 0
v -192 1079 0
v -192 887 0
v -96 695 0
v -96 887 0
v -192 887 0
v -192 695 0
v -416 1239 0
v -416 1335 0
v -512 1335 0
v -512 1239 0
v -128 567 0
v -128 695 0
v -192 695 0
v -192 567 0
v -160 279 0
v -160 535 0
v -192 535 0
v -192 279 0
v -160 55 0
v -160 279 0
v -192 279 0
v -192 55 0
v -864 983 0
v -864 1047 0
v -960 1047 0
v -960 983 0
v -0 983 0
v -0 1047 0
v -96 1047 0
v -96 983 0
v -832 215 0
v -832 311 0
v -896 311 0
v -896 215 0
v -832 119 0
v -832 215 0
v -896 215 0
v -896 119 0
v -736 855 0
v -736 919 0
v -800 919 0
v -800 855 0
v -128 343 0
v -128 439 0
v -160 439 0
v -160 343 0
v -832 503 0
v -832 599 0
v -864 599 0
v -864 503 0
v -832 407 0
v -832 503 0
v -864 503 0
v -864 407 0
v -832 311 0
v -832 375 0
v -864 375 0
v -864 311 0
v -736 599 0
v -736 663 0
v -768 663 0
v -768 599 0
v -128 119 0
v -128 183 0
v -160 183 0
v -160 119 0
v -896 151 0
v -896 215 0
v -928 215 0
v -928 151 0
v -576 1079 0
v -576 1143 0
v -608 1143 0
v -608 1079 0
v -448 1335 0
v -448 1399 0
v -480 1399 0
v -480 1335 0
v -128 279 0
v -128 343 0
v -160 343 0
v -160 279 0
v -352 1079 0
v -352 1143 0
v -384 1143 0
v -384 1079 0
v -512 1239 0
v -512 1303 0
v -544 1303 0
v -544 1239 0
v -800 887 0
v -800 919 0
v -832 919 0
v -832 887 0
v -128 215 0
v -128 247 0
v -160 247 0
v -160 215 0
v -832 87 0
v -832 119 0
v -864 119 0
v -864 87 0
v -864 951 0
v -864 983 0
v -896 983 0
v -896 951 0
v -480 1335 0
v -480 1367 0
v -512 1367 0
v -512 1335 0
v -288 1207 0
v -288 1239 0
v -320 1239 0
v -320 1207 0
v -64 951 0
v -64 983 0
v -96 983 0
v -96 951 0
vt 0.0009765625 0.00107067823
vt 0.0009765625 0.58351177
vt 0.438476562 0.58351177
vt 0.438476562 0.00107067823
vt 0.440429688 0.00107067823
vt 0.440429688 0.549250543
vt 0.877929688 0.549250543
vt 0.877929688 0.00107067823
vt 0.440429688 0.55139184
vt 0.440429688 0.825481772
vt 0.627929688 0.825481772
vt 0.627929688 0.55139184
vt 0.629882812 0.55139184
vt 0.629882812 0.825481772
vt 0.817382812 0.825481772
vt 0.817382812 0.55139184
vt 0.0009765625 0.585653067
vt 0.0009765625 0.756959319
vt 0.188476562 0.756959319
vt 0.188476562 0.585653067
vt 0.879882812 0.00107067823
vt 0.879882812 0.275160611
vt 0.973632812 0.275160611
vt 0.973632812 0.00107067823
vt 0.879882812 0.277301908
vt 0.879882812 0.517130613
vt 0.973632812 0.517130613
vt 0.973632812 0.277301908
vt 0.819335938 0.55139184
vt 0.819335938 0.722698092
vt 0.944335938 0.722698092
vt 0.944335938 0.55139184
vt 0.190429688 0.585653067
vt 0.190429688 0.791220546
vt 0.284179688 0.791220546
vt 0.284179688 0.585653067
vt 0.286132812 0.585653067
vt 0.286132812 0.791220546
vt 0.379882812 0.791220546
vt 0.379882812 0.585653067
vt 0.819335938 0.724839389
vt 0.819335938 0.827623129
vt 0.913085938 0.827623129
vt 0.913085938 0.724839389
vt 0.915039062 0.724839389
vt 0.915039062 0.861884356
vt 0.977539062 0.861884356
vt 0.977539062 0.724839389
vt 0.381835938 0.585653067
vt 0.381835938 0.859743059
vt 0.413085938 0.859743059
vt 0.413085938 0.585653067
vt 0.0009765625 0.759100676
vt 0.0009765625 0.998929322
vt 0.0322265625 0.998929322
vt 0.0322265625 0.759100676
vt 0.0341796875 0.759100676
vt 0.0341796875 0.827623129
vt 0.127929688 0.827623129
vt 0.127929688 0.759100676
vt 0.190429688 0.793361902
vt 0.190429688 0.861884356
vt 0.284179688 0.861884356
vt 0.284179688 0.793361902
vt 0.286132812 0.793361902
vt 0.286132812 0.896145582
vt 0.348632812 0.896145582
vt 0.348632812 0.793361902
vt 0.440429688 0.827623129
vt 0.440429688 0.930406868
vt 0.502929688 0.930406868
vt 0.502929688 0.827623129
vt 0.504882812 0.827623129
vt 0.504882812 0.896145582
vt 0.567382812 0.896145582
vt 0.567382812 0.827623129
vt 0.129882812 0.759100676
vt 0.129882812 0.861884356
vt 0.161132812 0.861884356
vt 0.161132812 0.759100676
vt 0.569335938 0.827623129
vt 0.569335938 0.930406868
vt 0.600585938 0.930406868
vt 0.600585938 0.827623129
vt 0.602539062 0.827623129
vt 0.602539062 0.930406868
vt 0.633789062 0.930406868
vt 0.633789062 0.827623129
vt 0.635742188 0.827623129
vt 0.635742188 0.896145582
vt 0.666992188 0.896145582
vt 0.666992188 0.827623129
vt 0.668945312 0.827623129
vt 0.668945312 0.896145582
vt 0.700195312 0.896145582
vt 0.700195312 0.827623129
vt 0.702148438 0.827623129
vt 0.702148438 0.896145582
vt 0.733398438 0.896145582
vt 0.733398438 0.827623129
vt 0.735351562 0.827623129
vt 0.735351562 0.896145582
vt 0.766601562 0.896145582
vt 0.766601562 0.827623129
vt 0.768554688 0.827623129
vt 0.768554688 0.896145582
vt 0.799804688 0.896145582
vt 0.799804688 0.827623129
vt 0.0341796875 0.829764485
vt 0.0341796875 0.898286939
vt 0.0654296875 0.898286939
vt 0.0654296875 0.829764485
vt 0.0673828125 0.829764485
vt 0.0673828125 0.898286939
vt 0.0986328125 0.898286939
vt 0.0986328125 0.829764485
vt 0.819335938 0.829764485
vt 0.819335938 0.898286939
vt 0.850585938 0.898286939
vt 0.850585938 0.829764485
vt 0.852539062 0.829764485
vt 0.852539062 0.898286939
vt 0.883789062 0.898286939
vt 0.883789062 0.829764485
vt 0.381835938 0.861884356
vt 0.381835938 0.896145582
vt 0.413085938 0.896145582
vt 0.413085938 0.861884356
vt 0.129882812 0.864025712
vt 0.129882812 0.898286939
vt 0.161132812 0.898286939
vt 0.161132812 0.864025712
vt 0.190429688 0.864025712
vt 0.190429688 0.898286939
vt 0.221679688 0.898286939
vt 0.221679688 0.864025712
vt 0.223632812 0.864025712
vt 0.223632812 0.898286939
vt 0.254882812 0.898286939
vt 0.254882812 0.864025712
vt 0.915039062 0.864025712
vt 0.915039062 0.898286939
vt 0.946289062 0.898286939
vt 0.946289062 0.864025712
vt 0.948242188 0.864025712
vt 0.948242188 0.898286939
vt 0.979492188 0.898286939
vt 0.979492188 0.864025712
vt 0.286132812 0.898286939
vt 0.286132812 0.932548165
vt 0.317382812 0.932548165
vt 0.317382812 0.898286939
g kelifulan_4-mesh_0
f 3/3/3 2/2/2 1/1/1
f 1/1/1 4/4/4 3/3/3
f 7/7/7 6/6/6 5/5/5
f 5/5/5 8/8/8 7/7/7
f 11/11/11 10/10/10 9/9/9
f 9/9/9 12/12/12 11/11/11
f 15/15/15 14/14/14 13/13/13
f 13/13/13 16/16/16 15/15/15
f 19/19/19 18/18/18 17/17/17
f 17/17/17 20/20/20 19/19/19
f 23/23/23 22/22/22 21/21/21
f 21/21/21 24/24/24 23/23/23
f 27/27/27 26/26/26 25/25/25
f 25/25/25 28/28/28 27/27/27
f 31/31/31 30/30/30 29/29/29
f 29/29/29 32/32/32 31/31/31
f 35/35/35 34/34/34 33/33/33
f 33/33/33 36/36/36 35/35/35
f 39/39/39 38/38/38 37/37/37
f 37/37/37 40/40/40 39/39/39
f 43/43/43 42/42/42 41/41/41
f 41/41/41 44/44/44 43/43/43
f 47/47/47 46/46/46 45/45/45
f 45/45/45 48/48/48 47/47/47
f 51/51/51 50/50/50 49/49/49
f 49/49/49 52/52/52 51/51/51
f 55/55/55 54/54/54 53/53/53
f 53/53/53 56/56/56 55/55/55
f 59/59/59 58/58/58 57/57/57
f 57/57/57 60/60/60 59/59/59
f 63/63/63 62/62/62 61/61/61
f 61/61/61 64/64/64 63/63/63
f 67/67/67 66/66/66 65/65/65
f 65/65/65 68/68/68 67/67/67
f 71/71/71 70/70/70 69/69/69
f 69/69/69 72/72/72 71/71/71
f 75/75/75 74/74/74 73/73/73
f 73/73/73 76/76/76 75/75/75
f 79/79/79 78/78/78 77/77/77
f 77/77/77 80/80/80 79/79/79
f 83/83/83 82/82/82 81/81/81
f 81/81/81 84/84/84 83/83/83
f 87/87/87 86/86/86 85/85/85
f 85/85/85 88/88/88 87/87/87
f 91/91/91 90/90/90 89/89/89
f 89/89/89 92/92/92 91/91/91
f 95/95/95 94/94/94 93/93/93
f 93/93/93 96/96/96 95/95/95
f 99/99/99 98/98/98 97/97/97
f 97/97/97 100/100/100 99/99/99
f 103/103/103 102/102/102 101/101/101
f 101/101/101 104/104/104 103/103/103
f 107/107/107 106/106/106 105/105/105
f 105/105/105 108/108/108 107/107/107
f 111/111/111 110/110/110 109/109/109
f 109/109/109 112/112/112 111/111/111
f 115/115/115 114/114/114 113/113/113
f 113/113/113 116/116/116 115/115/115
f 119/119/119 118/118/118 117/117/117
f 117/117/117 120/120/120 119/119/119
f 123/123/123 122/122/122 121/121/121
f 121/121/121 124/124/124 123/123/123
f 127/127/127 126/126/126 125/125/125
f 125/125/125 128/128/128 127/127/127
f 131/131/131 130/130/130 129/129/129
f 129/129/129 132/132/132 131/131/131
f 135/135/135 134/134/134 133/133/133
f 133/133/133 136/136/136 135/135/135
f 139/139/139 138/138/138 137/137/137
f 137/137/137 140/140/140 139/139/139
f 143/143/143 142/142/142 141/141/141
f 141/141/141 144/144/144 143/143/143
f 147/147/147 146/146/146 145/145/145
f 145/145/145 148/148/148 147/147/147
f 151/151/151 150/150/150 149/149/149
f 149/149/149 152/152/152 151/151/151
